<?xml version="1.0" encoding="UTF-8" standalone="no"?>
<svg
   xmlns:dc="http://purl.org/dc/elements/1.1/"
   xmlns:cc="http://creativecommons.org/ns#"
   xmlns:rdf="http://www.w3.org/1999/02/22-rdf-syntax-ns#"
   xmlns:svg="http://www.w3.org/2000/svg"
   xmlns="http://www.w3.org/2000/svg"
   xmlns:sodipodi="http://sodipodi.sourceforge.net/DTD/sodipodi-0.dtd"
   xmlns:inkscape="http://www.inkscape.org/namespaces/inkscape"
   viewBox="0 0 337.01999 94.995576"
   version="1.1"
   id="svg1097"
   sodipodi:docname="drisp.svg"
   width="337.01999"
   height="94.995575"
   inkscape:version="1.0.2 (394de47547, 2021-03-26)">
  <metadata
     id="metadata1101">
    <rdf:RDF>
      <cc:Work
         rdf:about="">
        <dc:format>image/svg+xml</dc:format>
        <dc:type
           rdf:resource="http://purl.org/dc/dcmitype/StillImage" />
        <dc:title>Artboard 7</dc:title>
      </cc:Work>
    </rdf:RDF>
  </metadata>
  <sodipodi:namedview
     pagecolor="#ffffff"
     bordercolor="#666666"
     borderopacity="1"
     objecttolerance="10"
     gridtolerance="10"
     guidetolerance="10"
     inkscape:pageopacity="0"
     inkscape:pageshadow="2"
     inkscape:window-width="1920"
     inkscape:window-height="1016"
     id="namedview1099"
     showgrid="false"
     fit-margin-top="5"
     fit-margin-left="5"
     fit-margin-right="5"
     fit-margin-bottom="5"
     lock-margins="false"
     inkscape:zoom="2.985"
     inkscape:cx="166.1"
     inkscape:cy="62.510071"
     inkscape:window-x="1920"
     inkscape:window-y="27"
     inkscape:window-maximized="1"
     inkscape:current-layer="svg1097" />
  <defs
     id="defs988">
    <style
       id="style986">.cls-1{fill:#142752;}.cls-2{fill:#09a4de;}</style>
  </defs>
  <title
     id="title990">Artboard 7</title>
  <g
     id="Kongeblå_lys_Logo"
     data-name="Kongeblå lys_Logo"
     transform="translate(-33.9,-37.489929)">
    <path
       class="cls-1"
       d="M 38.9,97.66 V 75.1 h 6 c 7.67,0 11.3,4.35 11.3,10.89 0,6.85 -3.77,11.67 -11.64,11.67 z m 6,-2.84 c 5.79,0 8,-3.93 8,-8.73 0,-4.55 -2.08,-8.11 -7.66,-8.11 h -3.16 v 16.84 z"
       id="path992" />
    <path
       class="cls-1"
       d="m 73.47,97.66 -5.24,-9.55 h -4.86 v 9.55 H 60.19 V 75.1 h 7.9 c 6.4,0 8.21,2.09 8.21,6.2 0,3.7 -2,5.41 -4.85,6.27 l 5.78,10.09 z M 67.82,85.34 c 4.35,0 5.2,-1.61 5.2,-3.8 0,-2.43 -0.79,-3.56 -5,-3.56 h -4.65 v 7.36 z"
       id="path994" />
    <path
       class="cls-1"
       d="M 80.66,97.55 V 75 h 3.18 v 22.55 z"
       id="path996" />
    <path
       class="cls-1"
       d="m 100.1,80.34 c -0.62,-2 -2.33,-2.53 -4.52,-2.53 -2.19,0 -4.31,1.06 -4.31,2.87 0,6.23 12.94,1.3 12.94,10.3 0,4.25 -4.18,7.09 -8.42,7.09 -3.29,0 -7.6,-1.88 -8.22,-5.88 l 3.25,-0.86 C 91.41,93.56 93,95 96,95 c 2.32,0 4.75,-1.27 4.75,-3.53 0,-6 -13,-1.71 -13,-10.23 0,-4.66 4.07,-6.5 8.08,-6.5 3.45,0 7,1.57 7.39,5 z"
       id="path998" />
    <path
       class="cls-1"
       d="M 108.08,97.66 V 75.1 h 6.71 c 6.43,0 8.21,2.47 8.21,6.54 0,4.32 -2.33,7.16 -8.21,7.16 h -3.53 v 8.86 z m 6.26,-11.74 c 4.31,0 5.37,-1.43 5.37,-4 0,-2.57 -0.71,-3.92 -5.37,-3.92 h -3.08 v 7.94 z"
       id="path1000" />
    <path
       class="cls-1"
       d="M 149.37,80.52 V 66.74 h 3.68 c 4.69,0 6.91,2.65 6.91,6.65 0,4.18 -2.31,7.13 -7.12,7.13 z m 3.68,-1.74 c 3.54,0 4.9,-2.4 4.9,-5.33 0,-2.93 -1.28,-5 -4.69,-5 h -1.94 v 10.33 z"
       id="path1002" />
    <path
       class="cls-1"
       d="m 168.1,80.52 -0.11,-0.9 a 3.71,3.71 0 0 1 -3,1.15 3.1,3.1 0 0 1 -3.39,-3 c 0,-2.1 1.24,-3.27 3.75,-3.27 H 168 v -1.26 c 0,-1.11 -0.6,-1.69 -2.11,-1.69 -1.11,0 -2.15,0.42 -2.28,1.46 l -1.84,-0.42 c 0.13,-1.86 2.05,-2.78 4.2,-2.78 2.87,0 3.91,1.69 3.91,3.06 v 7.65 z M 168,76 h -2.2 c -1.38,0 -2.28,0.1 -2.28,1.7 0,1 0.75,1.5 2.11,1.5 1.36,0 2.38,-0.69 2.38,-1.84 z"
       id="path1004" />
    <path
       class="cls-1"
       d="m 178.6,80.52 v -7.13 c 0,-1.21 -0.73,-1.84 -2,-1.84 a 2.07,2.07 0 0 0 -2.32,2 v 6.94 h -1.86 V 70.07 h 1.82 v 1.12 h 0.09 A 3.3,3.3 0 0 1 177,69.81 c 2.3,0 3.47,1.38 3.47,3.56 v 7.15 z"
       id="path1006" />
    <path
       class="cls-1"
       d="m 183,68.68 v -1.94 h 1.86 v 1.94 z m 0,11.84 V 70.07 h 1.86 v 10.45 z"
       id="path1008" />
    <path
       class="cls-1"
       d="m 193.14,72.93 c -0.27,-0.9 -1,-1.38 -2.23,-1.38 -1.23,0 -2.18,0.31 -2.18,1.17 0,2.3 6.44,0.88 6.44,4.5 0,2.48 -1.8,3.55 -4.29,3.55 -2.49,0 -4,-1.19 -4.24,-3 l 1.86,-0.42 a 2.36,2.36 0 0 0 2.55,1.65 c 1.61,0 2.14,-0.71 2.14,-1.38 0,-2.46 -6.32,-0.75 -6.32,-4.66 0,-2.32 2,-3.14 4.27,-3.14 2.27,0 3.64,1.3 3.78,2.57 z"
       id="path1010" />
    <path
       class="cls-1"
       d="m 203.46,80.52 v -7.34 c 0,-1.21 -0.73,-1.63 -2,-1.63 a 2.07,2.07 0 0 0 -2.32,2 v 6.94 h -1.86 V 66.74 h 1.86 v 4.2 h 0.08 a 3.12,3.12 0 0 1 2.49,-1.13 c 2.3,0 3.62,1.17 3.62,3.35 v 7.36 z"
       id="path1012" />
    <path
       class="cls-1"
       d="m 220.56,80.52 -3.2,-5.84 h -3 v 5.84 h -1.94 V 66.74 h 4.83 c 3.91,0 5,1.27 5,3.78 a 3.63,3.63 0 0 1 -3,3.83 l 3.54,6.17 z M 217.1,73 c 2.66,0 3.18,-1 3.18,-2.32 0,-1.32 -0.48,-2.17 -3.05,-2.17 h -2.85 V 73 Z"
       id="path1014" />
    <path
       class="cls-1"
       d="m 226.06,75.71 c 0,2.09 1,3.28 2.85,3.28 1.27,0 1.71,-0.88 2.05,-1.63 l 1.84,0.4 a 4.23,4.23 0 0 1 -3.94,3 c -3.21,0 -4.74,-2.3 -4.74,-5.52 0,-3.22 1.69,-5.44 4.6,-5.44 2.7,0 4.26,2.37 4.26,5.34 v 0.56 z m 5,-1.55 a 2.53,2.53 0 0 0 -2.45,-2.59 c -1.61,0 -2.21,1.25 -2.46,2.59 z"
       id="path1016" />
    <path
       class="cls-1"
       d="m 240.79,72.93 c -0.27,-0.9 -1,-1.38 -2.24,-1.38 -1.24,0 -2.17,0.31 -2.17,1.17 0,2.3 6.44,0.88 6.44,4.5 0,2.48 -1.8,3.55 -4.29,3.55 -2.49,0 -4,-1.19 -4.24,-3 l 1.86,-0.42 A 2.35,2.35 0 0 0 238.7,79 c 1.61,0 2.13,-0.71 2.13,-1.38 0,-2.46 -6.31,-0.75 -6.31,-4.66 0,-2.32 2,-3.14 4.26,-3.14 2.26,0 3.64,1.3 3.79,2.57 z"
       id="path1018" />
    <path
       class="cls-1"
       d="m 246.65,75.71 c 0,2.09 1,3.28 2.85,3.28 1.27,0 1.71,-0.88 2.05,-1.63 l 1.84,0.4 a 4.23,4.23 0 0 1 -3.93,3 c -3.23,0 -4.75,-2.3 -4.75,-5.52 0,-3.22 1.69,-5.44 4.6,-5.44 2.7,0 4.26,2.37 4.26,5.34 v 0.56 z m 5,-1.55 a 2.53,2.53 0 0 0 -2.45,-2.59 c -1.61,0 -2.21,1.25 -2.47,2.59 z"
       id="path1020" />
    <path
       class="cls-1"
       d="m 261.55,80.52 -0.11,-0.9 a 3.71,3.71 0 0 1 -3,1.15 3.1,3.1 0 0 1 -3.39,-3 c 0,-2.1 1.24,-3.27 3.75,-3.27 h 2.63 v -1.26 c 0,-1.11 -0.6,-1.69 -2.11,-1.69 -1.11,0 -2.15,0.42 -2.28,1.46 l -1.84,-0.42 c 0.13,-1.86 2,-2.78 4.2,-2.78 2.87,0 3.91,1.69 3.91,3.06 v 7.65 z M 261.46,76 h -2.21 c -1.38,0 -2.28,0.1 -2.28,1.7 0,1 0.75,1.5 2.11,1.5 1.36,0 2.38,-0.69 2.38,-1.84 z"
       id="path1022" />
    <path
       class="cls-1"
       d="M 265.86,80.52 V 70.07 h 1.86 v 1.33 h 0.09 a 2.27,2.27 0 0 1 2.09,-1.59 4.52,4.52 0 0 1 0.77,0.08 v 1.86 a 5.23,5.23 0 0 0 -0.92,-0.07 c -1.36,0 -2,1 -2,2.36 v 6.48 z"
       id="path1024" />
    <path
       class="cls-1"
       d="m 280.3,77.22 c -0.53,2.23 -1.87,3.55 -4.19,3.55 -2.72,0 -4.39,-2.07 -4.39,-5.48 0,-3.41 1.67,-5.48 4.39,-5.48 a 4,4 0 0 1 4.16,3.43 l -1.9,0.38 c -0.31,-1.25 -0.94,-2.07 -2.26,-2.07 -1.63,0 -2.44,1.57 -2.44,3.74 0,2.17 0.81,3.7 2.44,3.7 1.43,0 2.05,-0.88 2.32,-2.3 z"
       id="path1026" />
    <path
       class="cls-1"
       d="m 288.37,80.52 v -7.34 c 0,-1.21 -0.73,-1.63 -2,-1.63 a 2.07,2.07 0 0 0 -2.32,2 v 6.94 h -1.86 V 66.74 H 284 v 4.2 h 0.09 a 3.09,3.09 0 0 1 2.49,-1.13 c 2.3,0 3.61,1.17 3.61,3.35 v 7.36 z"
       id="path1028" />
    <path
       class="cls-1"
       d="M 297.35,80.52 V 66.74 h 1.95 v 13.78 z"
       id="path1030" />
    <path
       class="cls-1"
       d="m 308.23,80.52 v -7.13 c 0,-1.21 -0.73,-1.84 -2,-1.84 a 2.07,2.07 0 0 0 -2.32,2 v 6.94 H 302 V 70.07 h 1.82 v 1.12 H 304 a 3.3,3.3 0 0 1 2.63,-1.38 c 2.3,0 3.47,1.38 3.47,3.56 v 7.15 z"
       id="path1032" />
    <path
       class="cls-1"
       d="m 318.4,72.93 c -0.27,-0.9 -1,-1.38 -2.24,-1.38 -1.24,0 -2.17,0.31 -2.17,1.17 0,2.3 6.44,0.88 6.44,4.5 0,2.48 -1.8,3.55 -4.29,3.55 -2.49,0 -4,-1.19 -4.24,-3 l 1.86,-0.42 a 2.35,2.35 0 0 0 2.55,1.65 c 1.61,0 2.13,-0.71 2.13,-1.38 0,-2.46 -6.31,-0.75 -6.31,-4.66 0,-2.32 2,-3.14 4.26,-3.14 2.26,0 3.64,1.3 3.79,2.57 z"
       id="path1034" />
    <path
       class="cls-1"
       d="m 327.78,80.27 a 3.35,3.35 0 0 1 -1.95,0.5 c -1.86,0 -2.76,-1 -2.76,-3.12 v -6 h -1.8 v -1.58 h 1.8 v -1.83 l 1.34,-1.5 h 0.48 v 3.33 h 2.55 v 1.58 h -2.55 v 6 c 0,0.82 0.36,1.41 1.23,1.41 a 1.54,1.54 0 0 0 1.07,-0.36 z"
       id="path1036" />
    <path
       class="cls-1"
       d="M 329.12,68.68 V 66.74 H 331 v 1.94 z m 0,11.84 V 70.07 H 331 v 10.45 z"
       id="path1038" />
    <path
       class="cls-1"
       d="m 339,80.27 a 3.35,3.35 0 0 1 -1.95,0.5 c -1.86,0 -2.75,-1 -2.75,-3.12 v -6 h -1.8 v -1.58 h 1.8 v -1.83 l 1.33,-1.5 h 0.48 v 3.33 h 2.55 v 1.58 h -2.55 v 6 c 0,0.82 0.36,1.41 1.24,1.41 a 1.53,1.53 0 0 0 1.06,-0.36 z"
       id="path1040" />
    <path
       class="cls-1"
       d="m 346.48,80.52 v -1.19 h -0.08 a 3.38,3.38 0 0 1 -2.8,1.44 c -2.3,0 -3.31,-1.17 -3.31,-3.37 v -7.33 h 1.86 v 7.31 c 0,1.24 0.74,1.68 2,1.68 1.26,0 2.32,-0.72 2.32,-2.09 v -6.9 h 1.86 v 10.45 z"
       id="path1042" />
    <path
       class="cls-1"
       d="m 356.32,80.27 a 3.35,3.35 0 0 1 -1.95,0.5 c -1.86,0 -2.76,-1 -2.76,-3.12 v -6 h -1.8 v -1.58 h 1.8 v -1.83 l 1.34,-1.5 h 0.48 v 3.33 H 356 v 1.58 h -2.55 v 6 c 0,0.82 0.36,1.41 1.24,1.41 a 1.53,1.53 0 0 0 1.06,-0.36 z"
       id="path1044" />
    <path
       class="cls-1"
       d="m 359,75.71 c 0,2.09 1,3.28 2.84,3.28 a 2.15,2.15 0 0 0 2.05,-1.63 l 1.84,0.4 a 4.21,4.21 0 0 1 -3.93,3 c -3.22,0 -4.75,-2.3 -4.75,-5.52 0,-3.22 1.7,-5.44 4.6,-5.44 2.7,0 4.27,2.37 4.27,5.34 v 0.56 z m 5,-1.55 a 2.54,2.54 0 0 0 -2.45,-2.59 c -1.61,0 -2.22,1.25 -2.47,2.59 z"
       id="path1046" />
    <path
       class="cls-1"
       d="m 149.79,105.63 v -8.87 h -1.67 v -1.59 h 1.67 v -0.42 c 0,-2.46 1.21,-3.15 3.08,-3.15 a 3.26,3.26 0 0 1 2.13,0.71 l -1.19,1.38 a 1.21,1.21 0 0 0 -1.09,-0.48 c -1,0 -1.09,0.58 -1.09,1.34 v 0.62 h 2.55 v 1.59 h -2.55 v 8.87 z"
       id="path1048" />
    <path
       class="cls-1"
       d="m 155.34,100.4 c 0,-3.34 1.61,-5.48 4.53,-5.48 2.92,0 4.54,2.14 4.54,5.48 0,3.34 -1.61,5.48 -4.54,5.48 -2.93,0 -4.53,-2.07 -4.53,-5.48 z m 7.13,0 c 0,-2.17 -0.75,-3.74 -2.6,-3.74 -1.85,0 -2.59,1.57 -2.59,3.74 0,2.17 0.75,3.7 2.59,3.7 1.84,0 2.6,-1.48 2.6,-3.7 z"
       id="path1050" />
    <path
       class="cls-1"
       d="M 166.72,105.63 V 95.17 h 1.86 v 1.34 h 0.08 a 2.29,2.29 0 0 1 2.1,-1.59 4,4 0 0 1 0.77,0.09 v 1.86 a 4.1,4.1 0 0 0 -0.92,-0.09 c -1.36,0 -2,1 -2,2.37 v 6.48 z"
       id="path1052" />
    <path
       class="cls-1"
       d="m 184.58,95.05 c -0.37,-1.19 -1.42,-1.55 -2.75,-1.55 -1.33,0 -2.64,0.65 -2.64,1.76 0,3.8 7.91,0.79 7.91,6.29 0,2.6 -2.56,4.33 -5.15,4.33 -2,0 -4.64,-1.15 -5,-3.6 l 2,-0.52 a 2.9,2.9 0 0 0 3.15,2.24 c 1.42,0 2.9,-0.78 2.9,-2.16 0,-3.68 -7.94,-1 -7.94,-6.25 0,-2.84 2.48,-4 4.93,-4 2.11,0 4.31,1 4.52,3.05 z"
       id="path1054" />
    <path
       class="cls-1"
       d="m 195.43,105.63 v -1.19 h -0.09 a 3.36,3.36 0 0 1 -2.8,1.44 c -2.3,0 -3.3,-1.17 -3.3,-3.37 v -7.34 h 1.86 v 7.32 c 0,1.24 0.73,1.68 2,1.68 1.27,0 2.32,-0.72 2.32,-2.1 v -6.9 h 1.86 v 10.46 z"
       id="path1056" />
    <path
       class="cls-1"
       d="m 199.8,93.79 v -1.94 h 1.86 v 1.94 z m 0,11.84 V 95.17 h 1.86 v 10.46 z"
       id="path1058" />
    <path
       class="cls-1"
       d="m 212.54,102.32 c -0.52,2.24 -1.86,3.56 -4.18,3.56 -2.72,0 -4.39,-2.07 -4.39,-5.48 0,-3.41 1.67,-5.48 4.39,-5.48 a 4,4 0 0 1 4.16,3.43 l -1.9,0.38 c -0.32,-1.26 -1,-2.07 -2.26,-2.07 -1.63,0 -2.45,1.57 -2.45,3.74 0,2.17 0.82,3.7 2.45,3.7 1.42,0 2,-0.88 2.32,-2.3 z"
       id="path1060" />
    <path
       class="cls-1"
       d="m 214.43,93.79 v -1.94 h 1.86 v 1.94 z m 0,11.84 V 95.17 h 1.86 v 10.46 z"
       id="path1062" />
    <path
       class="cls-1"
       d="m 225.81,105.63 v -1.4 h -0.09 a 3.25,3.25 0 0 1 -3,1.65 c -2.32,0 -4.16,-2.07 -4.16,-5.5 0,-3.43 1.93,-5.46 4.62,-5.46 a 3,3 0 0 1 2.51,1.26 h 0.09 v -4.33 h 1.88 v 13.78 z m 0.08,-5.27 c 0,-1.8 -0.63,-3.7 -2.68,-3.7 -1.59,0 -2.71,1.23 -2.71,3.72 0,2.74 1.25,3.77 2.88,3.77 1.86,0 2.51,-1.72 2.51,-3.79 z"
       id="path1064" />
    <path
       class="cls-1"
       d="m 231.94,100.82 c 0,2.09 1,3.28 2.85,3.28 1.27,0 1.71,-0.88 2.05,-1.63 l 1.84,0.4 a 4.23,4.23 0 0 1 -3.94,3 c -3.22,0 -4.74,-2.3 -4.74,-5.52 0,-3.22 1.69,-5.44 4.6,-5.44 2.7,0 4.26,2.36 4.26,5.34 v 0.56 z m 5,-1.55 a 2.53,2.53 0 0 0 -2.45,-2.59 c -1.61,0 -2.21,1.25 -2.46,2.59 z"
       id="path1066" />
    <path
       class="cls-1"
       d="M 245.71,105.63 V 91.85 h 4.1 c 3.93,0 5,1.51 5,4 0,2.64 -1.42,4.37 -5,4.37 h -2.15 v 5.42 z m 3.83,-7.17 c 2.63,0 3.28,-0.88 3.28,-2.45 0,-1.57 -0.46,-2.4 -3.28,-2.4 h -1.88 v 4.85 z"
       id="path1068" />
    <path
       class="cls-1"
       d="M 256.93,105.63 V 95.17 h 1.86 v 1.34 h 0.08 a 2.29,2.29 0 0 1 2.13,-1.59 4,4 0 0 1 0.78,0.09 v 1.86 a 4.14,4.14 0 0 0 -0.92,-0.09 c -1.36,0 -2,1 -2,2.37 v 6.48 z"
       id="path1070" />
    <path
       class="cls-1"
       d="m 264.52,100.82 c 0,2.09 1,3.28 2.85,3.28 1.27,0 1.71,-0.88 2.05,-1.63 l 1.84,0.4 a 4.23,4.23 0 0 1 -3.93,3 c -3.23,0 -4.75,-2.3 -4.75,-5.52 0,-3.22 1.69,-5.44 4.6,-5.44 2.7,0 4.26,2.36 4.26,5.34 v 0.56 z m 5,-1.55 a 2.53,2.53 0 0 0 -2.45,-2.59 c -1.61,0 -2.21,1.25 -2.46,2.59 z"
       id="path1072" />
    <path
       class="cls-1"
       d="m 276.07,105.63 -3.66,-10.46 h 2 l 2.28,7.2 c 0.12,0.37 0.29,1 0.37,1.31 h 0.09 c 0.08,-0.33 0.27,-1 0.37,-1.31 l 2.26,-7.2 h 2 l -3.66,10.46 z"
       id="path1074" />
    <path
       class="cls-1"
       d="m 284.59,100.82 c 0,2.09 1,3.28 2.84,3.28 a 2.15,2.15 0 0 0 2.05,-1.63 l 1.84,0.4 a 4.21,4.21 0 0 1 -3.93,3 c -3.22,0 -4.75,-2.3 -4.75,-5.52 0,-3.22 1.7,-5.44 4.61,-5.44 2.69,0 4.26,2.36 4.26,5.34 v 0.56 z m 5,-1.55 a 2.54,2.54 0 0 0 -2.45,-2.59 c -1.61,0 -2.22,1.25 -2.47,2.59 z"
       id="path1076" />
    <path
       class="cls-1"
       d="M 299.93,105.63 V 98.5 c 0,-1.22 -0.74,-1.84 -2,-1.84 a 2.08,2.08 0 0 0 -2.32,2 v 6.94 h -1.87 V 95.17 h 1.82 l 0.05,1.13 h 0.08 a 3.3,3.3 0 0 1 2.63,-1.38 c 2.31,0 3.48,1.38 3.48,3.56 v 7.15 z"
       id="path1078" />
    <path
       class="cls-1"
       d="m 309.76,105.38 a 3.34,3.34 0 0 1 -1.94,0.5 c -1.87,0 -2.77,-1 -2.77,-3.12 v -6 h -1.8 v -1.59 h 1.8 v -1.81 l 1.34,-1.51 h 0.48 v 3.32 h 2.56 v 1.59 h -2.56 v 6 c 0,0.82 0.36,1.4 1.24,1.4 a 1.51,1.51 0 0 0 1.06,-0.35 z"
       id="path1080" />
    <path
       class="cls-1"
       d="m 311.1,93.79 v -1.94 h 1.9 v 1.94 z m 0,11.84 V 95.17 h 1.9 v 10.46 z"
       id="path1082" />
    <path
       class="cls-1"
       d="m 315.27,100.4 c 0,-3.34 1.61,-5.48 4.53,-5.48 2.92,0 4.54,2.14 4.54,5.48 0,3.34 -1.61,5.48 -4.54,5.48 -2.93,0 -4.53,-2.07 -4.53,-5.48 z m 7.13,0 c 0,-2.17 -0.75,-3.74 -2.6,-3.74 -1.85,0 -2.59,1.57 -2.59,3.74 0,2.17 0.75,3.7 2.59,3.7 1.84,0 2.6,-1.48 2.6,-3.7 z"
       id="path1084" />
    <path
       class="cls-1"
       d="M 332.84,105.63 V 98.5 c 0,-1.22 -0.73,-1.84 -2,-1.84 a 2.08,2.08 0 0 0 -2.32,2 v 6.94 h -1.86 V 95.17 h 1.82 v 1.13 h 0.08 a 3.33,3.33 0 0 1 2.64,-1.38 c 2.3,0 3.47,1.38 3.47,3.56 v 7.15 z"
       id="path1086" />
    <path
       class="cls-2"
       d="m 56.44,70.89 a 27.37,27.37 0 0 1 46.93,0 H 107 a 30.51,30.51 0 0 0 -54.12,0 z"
       id="path1088" />
    <path
       class="cls-2"
       d="m 101.46,101.89 a 27.35,27.35 0 0 1 -43.1,0 h -3.88 a 30.5,30.5 0 0 0 50.85,0 z"
       id="path1090" />
    <path
       class="cls-2"
       d="m 44.28,70.89 a 38.32,38.32 0 0 1 71.26,0 H 120 a 42.51,42.51 0 0 0 -80.2,0 z"
       id="path1092" />
    <path
       class="cls-2"
       d="m 114.31,101.89 a 38.32,38.32 0 0 1 -68.81,0 h -4.61 a 42.51,42.51 0 0 0 78,0 z"
       id="path1094" />
  </g>
</svg>
