<svg id="drisp_svg__svg1097" width="337.02" height="94.996" version="1.1" xmlns="http://www.w3.org/2000/svg"><defs id="drisp_svg__defs988"><style id="style986">.drisp_svg__cls-1{fill:#142752}.drisp_svg__cls-2{fill:#09a4de}</style></defs><g id="drisp_svg__Kongeblå_lys_Logo" data-name="Kongeblå lys_Logo" transform="translate(-33.9 -37.49)"><path id="drisp_svg__path992" d="M38.9 97.66V75.1h6c7.67 0 11.3 4.35 11.3 10.89 0 6.85-3.77 11.67-11.64 11.67zm6-2.84c5.79 0 8-3.93 8-8.73 0-4.55-2.08-8.11-7.66-8.11h-3.16v16.84z" class="drisp_svg__cls-1"/><path id="drisp_svg__path994" d="m73.47 97.66-5.24-9.55h-4.86v9.55h-3.18V75.1h7.9c6.4 0 8.21 2.09 8.21 6.2 0 3.7-2 5.41-4.85 6.27l5.78 10.09zm-5.65-12.32c4.35 0 5.2-1.61 5.2-3.8 0-2.43-.79-3.56-5-3.56h-4.65v7.36z" class="drisp_svg__cls-1"/><path id="drisp_svg__path996" d="M80.66 97.55V75h3.18v22.55z" class="drisp_svg__cls-1"/><path id="drisp_svg__path998" d="M100.1 80.34c-.62-2-2.33-2.53-4.52-2.53-2.19 0-4.31 1.06-4.31 2.87 0 6.23 12.94 1.3 12.94 10.3 0 4.25-4.18 7.09-8.42 7.09-3.29 0-7.6-1.88-8.22-5.88l3.25-.86C91.41 93.56 93 95 96 95c2.32 0 4.75-1.27 4.75-3.53 0-6-13-1.71-13-10.23 0-4.66 4.07-6.5 8.08-6.5 3.45 0 7 1.57 7.39 5z" class="drisp_svg__cls-1"/><path id="drisp_svg__path1000" d="M108.08 97.66V75.1h6.71c6.43 0 8.21 2.47 8.21 6.54 0 4.32-2.33 7.16-8.21 7.16h-3.53v8.86zm6.26-11.74c4.31 0 5.37-1.43 5.37-4 0-2.57-.71-3.92-5.37-3.92h-3.08v7.94z" class="drisp_svg__cls-1"/><path id="drisp_svg__path1002" d="M149.37 80.52V66.74h3.68c4.69 0 6.91 2.65 6.91 6.65 0 4.18-2.31 7.13-7.12 7.13zm3.68-1.74c3.54 0 4.9-2.4 4.9-5.33s-1.28-5-4.69-5h-1.94v10.33z" class="drisp_svg__cls-1"/><path id="drisp_svg__path1004" d="m168.1 80.52-.11-.9a3.71 3.71 0 0 1-3 1.15 3.1 3.1 0 0 1-3.39-3c0-2.1 1.24-3.27 3.75-3.27H168v-1.26c0-1.11-.6-1.69-2.11-1.69-1.11 0-2.15.42-2.28 1.46l-1.84-.42c.13-1.86 2.05-2.78 4.2-2.78 2.87 0 3.91 1.69 3.91 3.06v7.65zM168 76h-2.2c-1.38 0-2.28.1-2.28 1.7 0 1 .75 1.5 2.11 1.5 1.36 0 2.38-.69 2.38-1.84z" class="drisp_svg__cls-1"/><path id="drisp_svg__path1006" d="M178.6 80.52v-7.13c0-1.21-.73-1.84-2-1.84a2.07 2.07 0 0 0-2.32 2v6.94h-1.86V70.07h1.82v1.12h.09a3.3 3.3 0 0 1 2.67-1.38c2.3 0 3.47 1.38 3.47 3.56v7.15z" class="drisp_svg__cls-1"/><path id="drisp_svg__path1008" d="M183 68.68v-1.94h1.86v1.94zm0 11.84V70.07h1.86v10.45z" class="drisp_svg__cls-1"/><path id="drisp_svg__path1010" d="M193.14 72.93c-.27-.9-1-1.38-2.23-1.38s-2.18.31-2.18 1.17c0 2.3 6.44.88 6.44 4.5 0 2.48-1.8 3.55-4.29 3.55s-4-1.19-4.24-3l1.86-.42a2.36 2.36 0 0 0 2.55 1.65c1.61 0 2.14-.71 2.14-1.38 0-2.46-6.32-.75-6.32-4.66 0-2.32 2-3.14 4.27-3.14 2.27 0 3.64 1.3 3.78 2.57z" class="drisp_svg__cls-1"/><path id="drisp_svg__path1012" d="M203.46 80.52v-7.34c0-1.21-.73-1.63-2-1.63a2.07 2.07 0 0 0-2.32 2v6.94h-1.86V66.74h1.86v4.2h.08a3.12 3.12 0 0 1 2.49-1.13c2.3 0 3.62 1.17 3.62 3.35v7.36z" class="drisp_svg__cls-1"/><path id="drisp_svg__path1014" d="m220.56 80.52-3.2-5.84h-3v5.84h-1.94V66.74h4.83c3.91 0 5 1.27 5 3.78a3.63 3.63 0 0 1-3 3.83l3.54 6.17zM217.1 73c2.66 0 3.18-1 3.18-2.32 0-1.32-.48-2.17-3.05-2.17h-2.85V73Z" class="drisp_svg__cls-1"/><path id="drisp_svg__path1016" d="M226.06 75.71c0 2.09 1 3.28 2.85 3.28 1.27 0 1.71-.88 2.05-1.63l1.84.4a4.23 4.23 0 0 1-3.94 3c-3.21 0-4.74-2.3-4.74-5.52 0-3.22 1.69-5.44 4.6-5.44 2.7 0 4.26 2.37 4.26 5.34v.56zm5-1.55a2.53 2.53 0 0 0-2.45-2.59c-1.61 0-2.21 1.25-2.46 2.59z" class="drisp_svg__cls-1"/><path id="drisp_svg__path1018" d="M240.79 72.93c-.27-.9-1-1.38-2.24-1.38-1.24 0-2.17.31-2.17 1.17 0 2.3 6.44.88 6.44 4.5 0 2.48-1.8 3.55-4.29 3.55s-4-1.19-4.24-3l1.86-.42A2.35 2.35 0 0 0 238.7 79c1.61 0 2.13-.71 2.13-1.38 0-2.46-6.31-.75-6.31-4.66 0-2.32 2-3.14 4.26-3.14s3.64 1.3 3.79 2.57z" class="drisp_svg__cls-1"/><path id="drisp_svg__path1020" d="M246.65 75.71c0 2.09 1 3.28 2.85 3.28 1.27 0 1.71-.88 2.05-1.63l1.84.4a4.23 4.23 0 0 1-3.93 3c-3.23 0-4.75-2.3-4.75-5.52 0-3.22 1.69-5.44 4.6-5.44 2.7 0 4.26 2.37 4.26 5.34v.56zm5-1.55a2.53 2.53 0 0 0-2.45-2.59c-1.61 0-2.21 1.25-2.47 2.59z" class="drisp_svg__cls-1"/><path id="drisp_svg__path1022" d="m261.55 80.52-.11-.9a3.71 3.71 0 0 1-3 1.15 3.1 3.1 0 0 1-3.39-3c0-2.1 1.24-3.27 3.75-3.27h2.63v-1.26c0-1.11-.6-1.69-2.11-1.69-1.11 0-2.15.42-2.28 1.46l-1.84-.42c.13-1.86 2-2.78 4.2-2.78 2.87 0 3.91 1.69 3.91 3.06v7.65zm-.09-4.52h-2.21c-1.38 0-2.28.1-2.28 1.7 0 1 .75 1.5 2.11 1.5 1.36 0 2.38-.69 2.38-1.84z" class="drisp_svg__cls-1"/><path id="drisp_svg__path1024" d="M265.86 80.52V70.07h1.86v1.33h.09a2.27 2.27 0 0 1 2.09-1.59 4.52 4.52 0 0 1 .77.08v1.86a5.23 5.23 0 0 0-.92-.07c-1.36 0-2 1-2 2.36v6.48z" class="drisp_svg__cls-1"/><path id="drisp_svg__path1026" d="M280.3 77.22c-.53 2.23-1.87 3.55-4.19 3.55-2.72 0-4.39-2.07-4.39-5.48 0-3.41 1.67-5.48 4.39-5.48a4 4 0 0 1 4.16 3.43l-1.9.38c-.31-1.25-.94-2.07-2.26-2.07-1.63 0-2.44 1.57-2.44 3.74s.81 3.7 2.44 3.7c1.43 0 2.05-.88 2.32-2.3z" class="drisp_svg__cls-1"/><path id="drisp_svg__path1028" d="M288.37 80.52v-7.34c0-1.21-.73-1.63-2-1.63a2.07 2.07 0 0 0-2.32 2v6.94h-1.86V66.74H284v4.2h.09a3.09 3.09 0 0 1 2.49-1.13c2.3 0 3.61 1.17 3.61 3.35v7.36z" class="drisp_svg__cls-1"/><path id="drisp_svg__path1030" d="M297.35 80.52V66.74h1.95v13.78z" class="drisp_svg__cls-1"/><path id="drisp_svg__path1032" d="M308.23 80.52v-7.13c0-1.21-.73-1.84-2-1.84a2.07 2.07 0 0 0-2.32 2v6.94H302V70.07h1.82v1.12h.18a3.3 3.3 0 0 1 2.63-1.38c2.3 0 3.47 1.38 3.47 3.56v7.15z" class="drisp_svg__cls-1"/><path id="drisp_svg__path1034" d="M318.4 72.93c-.27-.9-1-1.38-2.24-1.38-1.24 0-2.17.31-2.17 1.17 0 2.3 6.44.88 6.44 4.5 0 2.48-1.8 3.55-4.29 3.55s-4-1.19-4.24-3l1.86-.42a2.35 2.35 0 0 0 2.55 1.65c1.61 0 2.13-.71 2.13-1.38 0-2.46-6.31-.75-6.31-4.66 0-2.32 2-3.14 4.26-3.14s3.64 1.3 3.79 2.57z" class="drisp_svg__cls-1"/><path id="drisp_svg__path1036" d="M327.78 80.27a3.35 3.35 0 0 1-1.95.5c-1.86 0-2.76-1-2.76-3.12v-6h-1.8v-1.58h1.8v-1.83l1.34-1.5h.48v3.33h2.55v1.58h-2.55v6c0 .82.36 1.41 1.23 1.41a1.54 1.54 0 0 0 1.07-.36z" class="drisp_svg__cls-1"/><path id="drisp_svg__path1038" d="M329.12 68.68v-1.94H331v1.94zm0 11.84V70.07H331v10.45z" class="drisp_svg__cls-1"/><path id="drisp_svg__path1040" d="M339 80.27a3.35 3.35 0 0 1-1.95.5c-1.86 0-2.75-1-2.75-3.12v-6h-1.8v-1.58h1.8v-1.83l1.33-1.5h.48v3.33h2.55v1.58h-2.55v6c0 .82.36 1.41 1.24 1.41a1.53 1.53 0 0 0 1.06-.36z" class="drisp_svg__cls-1"/><path id="drisp_svg__path1042" d="M346.48 80.52v-1.19h-.08a3.38 3.38 0 0 1-2.8 1.44c-2.3 0-3.31-1.17-3.31-3.37v-7.33h1.86v7.31c0 1.24.74 1.68 2 1.68s2.32-.72 2.32-2.09v-6.9h1.86v10.45z" class="drisp_svg__cls-1"/><path id="drisp_svg__path1044" d="M356.32 80.27a3.35 3.35 0 0 1-1.95.5c-1.86 0-2.76-1-2.76-3.12v-6h-1.8v-1.58h1.8v-1.83l1.34-1.5h.48v3.33H356v1.58h-2.55v6c0 .82.36 1.41 1.24 1.41a1.53 1.53 0 0 0 1.06-.36z" class="drisp_svg__cls-1"/><path id="drisp_svg__path1046" d="M359 75.71c0 2.09 1 3.28 2.84 3.28a2.15 2.15 0 0 0 2.05-1.63l1.84.4a4.21 4.21 0 0 1-3.93 3c-3.22 0-4.75-2.3-4.75-5.52 0-3.22 1.7-5.44 4.6-5.44 2.7 0 4.27 2.37 4.27 5.34v.56zm5-1.55a2.54 2.54 0 0 0-2.45-2.59c-1.61 0-2.22 1.25-2.47 2.59z" class="drisp_svg__cls-1"/><path id="drisp_svg__path1048" d="M149.79 105.63v-8.87h-1.67v-1.59h1.67v-.42c0-2.46 1.21-3.15 3.08-3.15a3.26 3.26 0 0 1 2.13.71l-1.19 1.38a1.21 1.21 0 0 0-1.09-.48c-1 0-1.09.58-1.09 1.34v.62h2.55v1.59h-2.55v8.87z" class="drisp_svg__cls-1"/><path id="drisp_svg__path1050" d="M155.34 100.4c0-3.34 1.61-5.48 4.53-5.48s4.54 2.14 4.54 5.48c0 3.34-1.61 5.48-4.54 5.48-2.93 0-4.53-2.07-4.53-5.48zm7.13 0c0-2.17-.75-3.74-2.6-3.74s-2.59 1.57-2.59 3.74.75 3.7 2.59 3.7c1.84 0 2.6-1.48 2.6-3.7z" class="drisp_svg__cls-1"/><path id="drisp_svg__path1052" d="M166.72 105.63V95.17h1.86v1.34h.08a2.29 2.29 0 0 1 2.1-1.59 4 4 0 0 1 .77.09v1.86a4.1 4.1 0 0 0-.92-.09c-1.36 0-2 1-2 2.37v6.48z" class="drisp_svg__cls-1"/><path id="drisp_svg__path1054" d="M184.58 95.05c-.37-1.19-1.42-1.55-2.75-1.55s-2.64.65-2.64 1.76c0 3.8 7.91.79 7.91 6.29 0 2.6-2.56 4.33-5.15 4.33-2 0-4.64-1.15-5-3.6l2-.52a2.9 2.9 0 0 0 3.15 2.24c1.42 0 2.9-.78 2.9-2.16 0-3.68-7.94-1-7.94-6.25 0-2.84 2.48-4 4.93-4 2.11 0 4.31 1 4.52 3.05z" class="drisp_svg__cls-1"/><path id="drisp_svg__path1056" d="M195.43 105.63v-1.19h-.09a3.36 3.36 0 0 1-2.8 1.44c-2.3 0-3.3-1.17-3.3-3.37v-7.34h1.86v7.32c0 1.24.73 1.68 2 1.68s2.32-.72 2.32-2.1v-6.9h1.86v10.46z" class="drisp_svg__cls-1"/><path id="drisp_svg__path1058" d="M199.8 93.79v-1.94h1.86v1.94zm0 11.84V95.17h1.86v10.46z" class="drisp_svg__cls-1"/><path id="drisp_svg__path1060" d="M212.54 102.32c-.52 2.24-1.86 3.56-4.18 3.56-2.72 0-4.39-2.07-4.39-5.48 0-3.41 1.67-5.48 4.39-5.48a4 4 0 0 1 4.16 3.43l-1.9.38c-.32-1.26-1-2.07-2.26-2.07-1.63 0-2.45 1.57-2.45 3.74s.82 3.7 2.45 3.7c1.42 0 2-.88 2.32-2.3z" class="drisp_svg__cls-1"/><path id="drisp_svg__path1062" d="M214.43 93.79v-1.94h1.86v1.94zm0 11.84V95.17h1.86v10.46z" class="drisp_svg__cls-1"/><path id="drisp_svg__path1064" d="M225.81 105.63v-1.4h-.09a3.25 3.25 0 0 1-3 1.65c-2.32 0-4.16-2.07-4.16-5.5s1.93-5.46 4.62-5.46a3 3 0 0 1 2.51 1.26h.09v-4.33h1.88v13.78zm.08-5.27c0-1.8-.63-3.7-2.68-3.7-1.59 0-2.71 1.23-2.71 3.72 0 2.74 1.25 3.77 2.88 3.77 1.86 0 2.51-1.72 2.51-3.79z" class="drisp_svg__cls-1"/><path id="drisp_svg__path1066" d="M231.94 100.82c0 2.09 1 3.28 2.85 3.28 1.27 0 1.71-.88 2.05-1.63l1.84.4a4.23 4.23 0 0 1-3.94 3c-3.22 0-4.74-2.3-4.74-5.52 0-3.22 1.69-5.44 4.6-5.44 2.7 0 4.26 2.36 4.26 5.34v.56zm5-1.55a2.53 2.53 0 0 0-2.45-2.59c-1.61 0-2.21 1.25-2.46 2.59z" class="drisp_svg__cls-1"/><path id="drisp_svg__path1068" d="M245.71 105.63V91.85h4.1c3.93 0 5 1.51 5 4 0 2.64-1.42 4.37-5 4.37h-2.15v5.42zm3.83-7.17c2.63 0 3.28-.88 3.28-2.45 0-1.57-.46-2.4-3.28-2.4h-1.88v4.85z" class="drisp_svg__cls-1"/><path id="drisp_svg__path1070" d="M256.93 105.63V95.17h1.86v1.34h.08a2.29 2.29 0 0 1 2.13-1.59 4 4 0 0 1 .78.09v1.86a4.14 4.14 0 0 0-.92-.09c-1.36 0-2 1-2 2.37v6.48z" class="drisp_svg__cls-1"/><path id="drisp_svg__path1072" d="M264.52 100.82c0 2.09 1 3.28 2.85 3.28 1.27 0 1.71-.88 2.05-1.63l1.84.4a4.23 4.23 0 0 1-3.93 3c-3.23 0-4.75-2.3-4.75-5.52 0-3.22 1.69-5.44 4.6-5.44 2.7 0 4.26 2.36 4.26 5.34v.56zm5-1.55a2.53 2.53 0 0 0-2.45-2.59c-1.61 0-2.21 1.25-2.46 2.59z" class="drisp_svg__cls-1"/><path id="drisp_svg__path1074" d="m276.07 105.63-3.66-10.46h2l2.28 7.2c.12.37.29 1 .37 1.31h.09c.08-.33.27-1 .37-1.31l2.26-7.2h2l-3.66 10.46z" class="drisp_svg__cls-1"/><path id="drisp_svg__path1076" d="M284.59 100.82c0 2.09 1 3.28 2.84 3.28a2.15 2.15 0 0 0 2.05-1.63l1.84.4a4.21 4.21 0 0 1-3.93 3c-3.22 0-4.75-2.3-4.75-5.52 0-3.22 1.7-5.44 4.61-5.44 2.69 0 4.26 2.36 4.26 5.34v.56zm5-1.55a2.54 2.54 0 0 0-2.45-2.59c-1.61 0-2.22 1.25-2.47 2.59z" class="drisp_svg__cls-1"/><path id="drisp_svg__path1078" d="M299.93 105.63V98.5c0-1.22-.74-1.84-2-1.84a2.08 2.08 0 0 0-2.32 2v6.94h-1.87V95.17h1.82l.05 1.13h.08a3.3 3.3 0 0 1 2.63-1.38c2.31 0 3.48 1.38 3.48 3.56v7.15z" class="drisp_svg__cls-1"/><path id="drisp_svg__path1080" d="M309.76 105.38a3.34 3.34 0 0 1-1.94.5c-1.87 0-2.77-1-2.77-3.12v-6h-1.8v-1.59h1.8v-1.81l1.34-1.51h.48v3.32h2.56v1.59h-2.56v6c0 .82.36 1.4 1.24 1.4a1.51 1.51 0 0 0 1.06-.35z" class="drisp_svg__cls-1"/><path id="drisp_svg__path1082" d="M311.1 93.79v-1.94h1.9v1.94zm0 11.84V95.17h1.9v10.46z" class="drisp_svg__cls-1"/><path id="drisp_svg__path1084" d="M315.27 100.4c0-3.34 1.61-5.48 4.53-5.48s4.54 2.14 4.54 5.48c0 3.34-1.61 5.48-4.54 5.48-2.93 0-4.53-2.07-4.53-5.48zm7.13 0c0-2.17-.75-3.74-2.6-3.74s-2.59 1.57-2.59 3.74.75 3.7 2.59 3.7c1.84 0 2.6-1.48 2.6-3.7z" class="drisp_svg__cls-1"/><path id="drisp_svg__path1086" d="M332.84 105.63V98.5c0-1.22-.73-1.84-2-1.84a2.08 2.08 0 0 0-2.32 2v6.94h-1.86V95.17h1.82v1.13h.08a3.33 3.33 0 0 1 2.64-1.38c2.3 0 3.47 1.38 3.47 3.56v7.15z" class="drisp_svg__cls-1"/><path id="drisp_svg__path1088" d="M56.44 70.89a27.37 27.37 0 0 1 46.93 0H107a30.51 30.51 0 0 0-54.12 0z" class="drisp_svg__cls-2"/><path id="drisp_svg__path1090" d="M101.46 101.89a27.35 27.35 0 0 1-43.1 0h-3.88a30.5 30.5 0 0 0 50.85 0z" class="drisp_svg__cls-2"/><path id="drisp_svg__path1092" d="M44.28 70.89a38.32 38.32 0 0 1 71.26 0H120a42.51 42.51 0 0 0-80.2 0z" class="drisp_svg__cls-2"/><path id="drisp_svg__path1094" d="M114.31 101.89a38.32 38.32 0 0 1-68.81 0h-4.61a42.51 42.51 0 0 0 78 0z" class="drisp_svg__cls-2"/></g></svg>