<svg xml:space="preserve" width="1122.52" height="238.327" xmlns="http://www.w3.org/2000/svg"><defs><clipPath id="livslinien_svg__a" clipPathUnits="userSpaceOnUse"><path d="M0 178.745h841.89V0H0Z"/></clipPath></defs><g clip-path="url(#livslinien_svg__a)" transform="matrix(1.33333 0 0 -1.33333 0 238.327)"><path d="M0 0c0 32.787-27.725 59.365-61.924 59.365-34.201 0-61.924-26.578-61.924-59.365 0-32.786 27.723-59.363 61.924-59.363v-19.576S0-56.386 0 0" style="fill:#706f68;fill-opacity:1;fill-rule:nonzero;stroke:none" transform="translate(750.342 83.082)"/><path d="M0 0c0 32.786 27.724 59.364 61.923 59.364 34.2 0 61.923-26.578 61.923-59.364 0-32.785-27.723-59.365-61.923-59.365v-19.573S0-56.386 0 0" style="fill:#007ca6;fill-opacity:1;fill-rule:nonzero;stroke:none" transform="translate(714.23 114.258)"/><path d="M0 0c-1.814 0-3.761 1.816-3.761 3.761v43.044c0 13.483-8.038 16.855-18.15 16.855-11.021 0-21.394-6.094-28.783-12.577v7.52c-.129 3.501-.778 4.408-2.334 4.408h-15.298v-4.927h6.352c1.945 0 3.761-2.073 3.761-3.889V3.761c0-1.945-1.816-3.761-3.761-3.761h-5.705v-4.667h28.655V0h-11.67v46.415c7.65 6.225 16.595 11.151 26.319 11.151 7.65 0 13.095-2.203 13.095-12.965V0h-11.668v-4.667H5.058V0Z" style="fill:#007ca6;fill-opacity:1;fill-rule:nonzero;stroke:none" transform="translate(593.981 39.688)"/><path d="M0 0c1.296 15.816 10.372 24.764 23.597 24.764 12.706 0 21.133-6.872 21.522-24.764Zm23.597 29.69c-18.41 0-31.505-13.485-31.505-34.747 0-21.003 11.539-34.097 33.19-34.097 12.835 0 20.875 3.758 25.671 7.518v5.316h-4.406c-3.503-4.148-9.855-7.908-20.746-7.908-17.113 0-25.93 10.241-26.06 29.171H52.51c0 .259.13 1.686.13 3.112 0 22.171-11.67 31.635-29.043 31.635" style="fill:#007ca6;fill-opacity:1;fill-rule:nonzero;stroke:none" transform="translate(463.033 73.657)"/><path d="M0 0c2.852 0 5.056 2.204 5.056 5.056S2.852 10.113 0 10.113c-2.854 0-5.057-2.205-5.057-5.057C-5.057 2.204-2.854 0 0 0" style="fill:#007ca6;fill-opacity:1;fill-rule:nonzero;stroke:none" transform="translate(431.4 112.294)"/><path d="M0 0v55.231c0 3.113-.518 4.019-1.943 4.019h-16.338v-4.926h7.002c1.946 0 3.759-2.074 3.759-3.889V0c0-1.944-1.813-3.761-3.759-3.761h-6.353v-4.667h27.875v4.667H3.762C1.946-3.761 0-1.944 0 0" style="fill:#007ca6;fill-opacity:1;fill-rule:nonzero;stroke:none" transform="translate(436.065 43.448)"/><path d="M0 0v43.044c0 13.483-8.039 16.855-18.151 16.855-11.02 0-21.392-6.094-28.783-12.577v7.52c-.129 3.502-.777 4.408-2.334 4.408h-15.299v-4.926h6.353c1.945 0 3.76-2.074 3.76-3.889V0c0-1.944-1.815-3.761-3.76-3.761h-5.704v-4.667h28.653v4.667h-11.669v46.415c7.65 6.225 16.595 11.151 26.319 11.151 7.65 0 13.095-2.203 13.095-12.965V-3.761h-11.668v-4.667H8.815v4.667H3.759C1.944-3.761 0-1.944 0 0" style="fill:#007ca6;fill-opacity:1;fill-rule:nonzero;stroke:none" transform="translate(397.69 43.448)"/><path d="M0 0c2.852 0 5.057 2.204 5.057 5.056S2.852 10.113 0 10.113c-2.853 0-5.056-2.205-5.056-5.057C-5.056 2.204-2.853 0 0 0" style="fill:#007ca6;fill-opacity:1;fill-rule:nonzero;stroke:none" transform="translate(306.935 112.294)"/><path d="M0 0v55.231c0 3.113-.518 4.019-1.945 4.019h-16.337v-4.926h7.003c1.945 0 3.758-2.074 3.758-3.889V0c0-1.944-1.813-3.761-3.758-3.761h-6.354v-4.667h27.875v4.667H3.76C1.944-3.761 0-1.944 0 0" style="fill:#007ca6;fill-opacity:1;fill-rule:nonzero;stroke:none" transform="translate(311.603 43.448)"/><path d="M0 0v79.994c0 1.557-.389 2.335-1.686 2.335h-16.465v-4.797h6.872c1.944 0 3.889-2.075 3.889-3.89V0c0-1.944-1.945-3.761-3.889-3.761h-6.355v-4.667h28.006v4.667H3.89C1.944-3.761 0-1.944 0 0" style="fill:#007ca6;fill-opacity:1;fill-rule:nonzero;stroke:none" transform="translate(271.67 43.448)"/><path d="M0 0c-12.188 2.073-17.503 4.278-17.503 12.705 0 7.649 5.445 12.318 16.596 12.318 6.352 0 9.204-.39 12.057-1.557 2.723-1.165 3.371-3.112 4.019-8.427h4.927v11.928c-4.149 1.686-9.983 3.242-20.874 3.242-15.04 0-23.467-6.743-23.467-18.411 0-12.446 7.909-15.817 21.004-18.022 12.317-2.075 18.539-4.668 18.539-12.964 0-9.594-6.611-14.521-18.669-14.521-6.742 0-9.983.778-13.225 1.944-2.592 1.036-3.5 3.371-4.019 9.594h-5.056v-12.706c4.278-1.686 10.372-3.759 22.43-3.759 17.373 0 25.542 7.39 25.542 20.356C22.301-6.224 14.262-2.334 0 0" style="fill:#007ca6;fill-opacity:1;fill-rule:nonzero;stroke:none" transform="translate(219.552 73.139)"/><path d="M0 0h5.316c3.5 0 4.797-2.852 3.63-6.093l-18.929-48.49h-.26L-31.505 0h11.279v4.927h-25.67V0h2.852c2.334 0 4.279-2.074 5.445-4.797l23.208-57.954h6.871L15.818-4.538C16.984-1.556 19.059 0 21.522 0h2.593v4.927H0Z" style="fill:#007ca6;fill-opacity:1;fill-rule:nonzero;stroke:none" transform="translate(161.728 97.772)"/><path d="M0 0c2.852 0 5.056 2.204 5.056 5.056S2.852 10.113 0 10.113c-2.853 0-5.057-2.205-5.057-5.057C-5.057 2.204-2.853 0 0 0" style="fill:#007ca6;fill-opacity:1;fill-rule:nonzero;stroke:none" transform="translate(95.477 112.294)"/><path d="M0 0v55.231c0 3.113-.519 4.019-1.945 4.019H-18.28v-4.926h7c1.945 0 3.76-2.074 3.76-3.889V0c0-1.944-1.815-3.761-3.76-3.761h-6.353v-4.667h27.876v4.667H3.76C1.945-3.761 0-1.944 0 0" style="fill:#007ca6;fill-opacity:1;fill-rule:nonzero;stroke:none" transform="translate(100.144 43.448)"/><path d="M0 0h-41.748v80.903h14.392V85.7h-32.802v-4.797h5.963c2.206 0 4.409-2.464 4.409-4.538V4.019c0-2.075-2.203-4.409-4.409-4.409h-5.963v-4.667H7.001v25.153H1.167Z" style="fill:#007ca6;fill-opacity:1;fill-rule:nonzero;stroke:none" transform="translate(63.453 40.077)"/></g></svg>