<?xml version="1.0" encoding="UTF-8" standalone="no"?>
<svg
   xmlns:dc="http://purl.org/dc/elements/1.1/"
   xmlns:cc="http://creativecommons.org/ns#"
   xmlns:rdf="http://www.w3.org/1999/02/22-rdf-syntax-ns#"
   xmlns:svg="http://www.w3.org/2000/svg"
   xmlns="http://www.w3.org/2000/svg"
   xmlns:sodipodi="http://sodipodi.sourceforge.net/DTD/sodipodi-0.dtd"
   xmlns:inkscape="http://www.inkscape.org/namespaces/inkscape"
   version="1.1"
   id="svg851"
   xml:space="preserve"
   width="1122.52"
   height="238.32668"
   viewBox="0 0 1122.52 238.32668"
   sodipodi:docname="livslinien.svg"
   inkscape:version="1.0.2 (394de47547, 2021-03-26)"><metadata
     id="metadata857"><rdf:RDF><cc:Work
         rdf:about=""><dc:format>image/svg+xml</dc:format><dc:type
           rdf:resource="http://purl.org/dc/dcmitype/StillImage" /><dc:title></dc:title></cc:Work></rdf:RDF></metadata><defs
     id="defs855"><clipPath
       clipPathUnits="userSpaceOnUse"
       id="clipPath867"><path
         d="M 0,178.745 H 841.89 V 0 H 0 Z"
         id="path865" /></clipPath></defs><sodipodi:namedview
     pagecolor="#ffffff"
     bordercolor="#666666"
     borderopacity="1"
     objecttolerance="10"
     gridtolerance="10"
     guidetolerance="10"
     inkscape:pageopacity="0"
     inkscape:pageshadow="2"
     inkscape:window-width="1920"
     inkscape:window-height="1043"
     id="namedview853"
     showgrid="false"
     inkscape:zoom="1.0636781"
     inkscape:cx="561.26001"
     inkscape:cy="119.16334"
     inkscape:window-x="0"
     inkscape:window-y="0"
     inkscape:window-maximized="1"
     inkscape:current-layer="g861" /><g
     id="g859"
     inkscape:groupmode="layer"
     inkscape:label="Livslinien_Logo"
     transform="matrix(1.3333333,0,0,-1.3333333,0,238.32667)"><g
       id="g861"><g
         id="g863"
         clip-path="url(#clipPath867)"><g
           id="g869"
           transform="translate(750.3418,83.082)"><path
             d="m 0,0 c 0,32.787 -27.725,59.365 -61.924,59.365 -34.201,0 -61.924,-26.578 -61.924,-59.365 0,-32.786 27.723,-59.363 61.924,-59.363 V -78.939 C -61.924,-78.939 0,-56.386 0,0"
             style="fill:#706f68;fill-opacity:1;fill-rule:nonzero;stroke:none"
             id="path871" /></g><g
           id="g873"
           transform="translate(714.2305,114.2578)"><path
             d="m 0,0 c 0,32.786 27.724,59.364 61.923,59.364 34.2,0 61.923,-26.578 61.923,-59.364 0,-32.785 -27.723,-59.365 -61.923,-59.365 V -78.938 C 61.923,-78.938 0,-56.386 0,0"
             style="fill:#007ca6;fill-opacity:1;fill-rule:nonzero;stroke:none"
             id="path875" /></g><g
           id="g877"
           transform="translate(593.9814,39.6875)"><path
             d="m 0,0 c -1.814,0 -3.761,1.816 -3.761,3.761 v 43.044 c 0,13.483 -8.038,16.855 -18.15,16.855 -11.021,0 -21.394,-6.094 -28.783,-12.577 v 7.52 c -0.129,3.501 -0.778,4.408 -2.334,4.408 h -15.298 v -4.927 h 6.352 c 1.945,0 3.761,-2.073 3.761,-3.889 V 3.761 C -58.213,1.816 -60.029,0 -61.974,0 h -5.705 v -4.667 h 28.655 V 0 h -11.67 v 46.415 c 7.65,6.225 16.595,11.151 26.319,11.151 7.65,0 13.095,-2.203 13.095,-12.965 V 0 H -22.948 V -4.667 H 5.058 V 0 Z"
             style="fill:#007ca6;fill-opacity:1;fill-rule:nonzero;stroke:none"
             id="path879" /></g><g
           id="g881"
           transform="translate(463.0332,73.6572)"><path
             d="M 0,0 C 1.296,15.816 10.372,24.764 23.597,24.764 36.303,24.764 44.73,17.892 45.119,0 Z m 23.597,29.69 c -18.41,0 -31.505,-13.485 -31.505,-34.747 0,-21.003 11.539,-34.097 33.19,-34.097 12.835,0 20.875,3.758 25.671,7.518 v 5.316 h -4.406 c -3.503,-4.148 -9.855,-7.908 -20.746,-7.908 -17.113,0 -25.93,10.241 -26.06,29.171 H 52.51 c 0,0.259 0.13,1.686 0.13,3.112 0,22.171 -11.67,31.635 -29.043,31.635"
             style="fill:#007ca6;fill-opacity:1;fill-rule:nonzero;stroke:none"
             id="path883" /></g><g
           id="g885"
           transform="translate(431.3994,112.2939)"><path
             d="m 0,0 c 2.852,0 5.056,2.204 5.056,5.056 0,2.852 -2.204,5.057 -5.056,5.057 -2.854,0 -5.057,-2.205 -5.057,-5.057 C -5.057,2.204 -2.854,0 0,0"
             style="fill:#007ca6;fill-opacity:1;fill-rule:nonzero;stroke:none"
             id="path887" /></g><g
           id="g889"
           transform="translate(436.0654,43.4482)"><path
             d="m 0,0 v 55.231 c 0,3.113 -0.518,4.019 -1.943,4.019 h -16.338 v -4.926 h 7.002 c 1.946,0 3.759,-2.074 3.759,-3.889 L -7.52,0 c 0,-1.944 -1.813,-3.761 -3.759,-3.761 h -6.353 v -4.667 h 27.875 v 4.667 H 3.762 C 1.946,-3.761 0,-1.944 0,0"
             style="fill:#007ca6;fill-opacity:1;fill-rule:nonzero;stroke:none"
             id="path891" /></g><g
           id="g893"
           transform="translate(397.6899,43.4482)"><path
             d="m 0,0 v 43.044 c 0,13.483 -8.039,16.855 -18.151,16.855 -11.02,0 -21.392,-6.094 -28.783,-12.577 v 7.52 c -0.129,3.502 -0.777,4.408 -2.334,4.408 h -15.299 v -4.926 h 6.353 c 1.945,0 3.76,-2.074 3.76,-3.889 V 0 c 0,-1.944 -1.815,-3.761 -3.76,-3.761 h -5.704 v -4.667 h 28.653 v 4.667 h -11.669 v 46.415 c 7.65,6.225 16.595,11.151 26.319,11.151 7.65,0 13.095,-2.203 13.095,-12.965 V -3.761 H -19.188 V -8.428 H 8.815 v 4.667 H 3.759 C 1.944,-3.761 0,-1.944 0,0"
             style="fill:#007ca6;fill-opacity:1;fill-rule:nonzero;stroke:none"
             id="path895" /></g><g
           id="g897"
           transform="translate(306.9355,112.2939)"><path
             d="m 0,0 c 2.852,0 5.057,2.204 5.057,5.056 0,2.852 -2.205,5.057 -5.057,5.057 -2.853,0 -5.056,-2.205 -5.056,-5.057 C -5.056,2.204 -2.853,0 0,0"
             style="fill:#007ca6;fill-opacity:1;fill-rule:nonzero;stroke:none"
             id="path899" /></g><g
           id="g901"
           transform="translate(311.603,43.4482)"><path
             d="m 0,0 v 55.231 c 0,3.113 -0.518,4.019 -1.945,4.019 h -16.337 v -4.926 h 7.003 c 1.945,0 3.758,-2.074 3.758,-3.889 V 0 c 0,-1.944 -1.813,-3.761 -3.758,-3.761 h -6.354 v -4.667 h 27.875 v 4.667 H 3.76 C 1.944,-3.761 0,-1.944 0,0"
             style="fill:#007ca6;fill-opacity:1;fill-rule:nonzero;stroke:none"
             id="path903" /></g><g
           id="g905"
           transform="translate(271.6709,43.4482)"><path
             d="m 0,0 v 79.994 c 0,1.557 -0.389,2.335 -1.686,2.335 h -16.465 v -4.797 h 6.872 c 1.944,0 3.889,-2.075 3.889,-3.89 L -7.39,0 c 0,-1.944 -1.945,-3.761 -3.889,-3.761 h -6.355 v -4.667 h 28.006 v 4.667 H 3.89 C 1.944,-3.761 0,-1.944 0,0"
             style="fill:#007ca6;fill-opacity:1;fill-rule:nonzero;stroke:none"
             id="path907" /></g><g
           id="g909"
           transform="translate(219.5522,73.1387)"><path
             d="m 0,0 c -12.188,2.073 -17.503,4.278 -17.503,12.705 0,7.649 5.445,12.318 16.596,12.318 6.352,0 9.204,-0.39 12.057,-1.557 2.723,-1.165 3.371,-3.112 4.019,-8.427 h 4.927 v 11.928 c -4.149,1.686 -9.983,3.242 -20.874,3.242 -15.04,0 -23.467,-6.743 -23.467,-18.411 0,-12.446 7.909,-15.817 21.004,-18.022 12.317,-2.075 18.539,-4.668 18.539,-12.964 0,-9.594 -6.611,-14.521 -18.669,-14.521 -6.742,0 -9.983,0.778 -13.225,1.944 -2.592,1.036 -3.5,3.371 -4.019,9.594 h -5.056 v -12.706 c 4.278,-1.686 10.372,-3.759 22.43,-3.759 17.373,0 25.542,7.39 25.542,20.356 C 22.301,-6.224 14.262,-2.334 0,0"
             style="fill:#007ca6;fill-opacity:1;fill-rule:nonzero;stroke:none"
             id="path911" /></g><g
           id="g913"
           transform="translate(161.728,97.772)"><path
             d="m 0,0 h 5.316 c 3.5,0 4.797,-2.852 3.63,-6.093 l -18.929,-48.49 h -0.26 L -31.505,0 h 11.279 v 4.927 h -25.67 V 0 h 2.852 c 2.334,0 4.279,-2.074 5.445,-4.797 l 23.208,-57.954 H -7.52 L 15.818,-4.538 C 16.984,-1.556 19.059,0 21.522,0 h 2.593 V 4.927 H 0 Z"
             style="fill:#007ca6;fill-opacity:1;fill-rule:nonzero;stroke:none"
             id="path915" /></g><g
           id="g917"
           transform="translate(95.4766,112.2939)"><path
             d="m 0,0 c 2.852,0 5.056,2.204 5.056,5.056 0,2.852 -2.204,5.057 -5.056,5.057 -2.853,0 -5.057,-2.205 -5.057,-5.057 C -5.057,2.204 -2.853,0 0,0"
             style="fill:#007ca6;fill-opacity:1;fill-rule:nonzero;stroke:none"
             id="path919" /></g><g
           id="g921"
           transform="translate(100.1436,43.4482)"><path
             d="m 0,0 v 55.231 c 0,3.113 -0.519,4.019 -1.945,4.019 H -18.28 v -4.926 h 7 c 1.945,0 3.76,-2.074 3.76,-3.889 L -7.52,0 c 0,-1.944 -1.815,-3.761 -3.76,-3.761 h -6.353 v -4.667 h 27.876 v 4.667 H 3.76 C 1.945,-3.761 0,-1.944 0,0"
             style="fill:#007ca6;fill-opacity:1;fill-rule:nonzero;stroke:none"
             id="path923" /></g><g
           id="g925"
           transform="translate(63.4531,40.0771)"><path
             d="m 0,0 h -41.748 v 80.903 h 14.392 V 85.7 h -32.802 v -4.797 h 5.963 c 2.206,0 4.409,-2.464 4.409,-4.538 V 4.019 c 0,-2.075 -2.203,-4.409 -4.409,-4.409 h -5.963 V -5.057 H 7.001 V 20.096 H 1.167 Z"
             style="fill:#007ca6;fill-opacity:1;fill-rule:nonzero;stroke:none"
             id="path927" /></g></g></g></g></svg>
