<svg xmlns="http://www.w3.org/2000/svg" viewBox="0 0 1723.6 1891.2"><path d="M782.4 1680.3c-5-4.8-9.9-8.1-13.2-13-5.6-8.2-11.9-15.9-18-23.6-7.6-9.6-12.9-20.4-18.5-31.1-3.9-7.5-5.2-15.8-6.8-24-.5-2.5-1.4-5-1.3-7.7.1-2.6-2.4-2.8-4.3-2.7-4.8.4-9.6-.6-14.4-.2-5.7.5-11.3-1.5-16.8-2.3-7.5-1-15.3-2.3-22.7-4.5-9.8-2.9-19.8-5.1-29.6-7.9-9.8-2.8-20.1-4.2-30-7.2-4.4-1.3-8.9-2.5-13.2-4.1-10.8-4-21.8-7.4-32.7-10.9-10.8-3.5-21.5-7.3-32.2-11-7.9-2.8-15.8-5.8-23.8-8.2-11.2-3.4-21.8-7.9-32.7-11.8-14.1-5-26.8-12.8-40.5-18.4-6.2-2.5-12.1-6.7-17.9-10.4-2.2-1.4-4.7-2-7-3.2-7.7-4.3-15.5-8.5-23.2-12.8-9.5-5.4-19-10.9-28.6-16.2-8.2-4.6-15.7-10.2-23.3-15.6-5.5-4-11.3-7.4-16.7-11.4-7.2-5.3-14.2-10.8-21.1-16.5-5.5-4.6-12.3-7.7-17.1-13.1-6.7-7.5-15.7-12.1-23.3-18.6-15.9-13.7-29.4-29.6-44-44.4-3.5-3.6-8.3-5.8-11.7-9.8-7.6-9.1-15.4-17.9-23.2-26.8-11.3-13-22-26.4-31.8-40.5-6.5-9.3-14.6-17.6-19.3-28.3-1.6-3.7-5.2-7.1-7.9-10.6-6.2-8.4-11.1-17.6-16.1-26.7-3.9-7-7.7-14.2-11.7-21.2-4.6-8.1-9.1-16.2-12.9-24.7-5.8-12.9-10.2-26.5-16.5-39.2-5.8-11.8-10.4-24.1-14.5-36.4-3.5-10.5-6.8-21.3-9.5-32.2-3-12-7.1-23.8-10-35.9-3.8-15.8-7.5-31.5-8.9-47.8-.9-10.2-3.2-20.4-4.8-30.7-1.3-8.5-2.8-17-3.9-25.5-1.5-11.5-2.9-23-3.9-34.5-.5-5.7-.7-11.5-.9-17.2-.6-11.5-2.1-23-2-34.5.1-13.1.5-26.1.8-39.2.1-4.1.4-8.2.7-12.3.6-9.3 1.9-18.7 1.9-27.9 0-11.1 1.2-22.1 2.3-33.1.8-7.9 2.9-15.6 4.1-23.4 1.8-11.5 4.8-22.7 6.7-34.1 1.9-11 5.6-21.5 8.2-32.2 2.9-11.9 5.4-23.8 9-35.5 5.2-17.1 10.1-34.3 18.3-50.5 3.6-7.1 5.7-15.2 8.6-22.8 5.8-15.1 11.1-30.4 19.8-44.2 3.4-5.4 4-12 7.2-17.6 5-8.7 9-18 14-26.8 8-14 17.7-26.8 26-40.5 4.1-6.8 9.4-12.8 14.2-19.3 9.4-12.8 20.7-24 30.1-36.7 6.9-9.3 15.3-17.5 22.8-26.3 6-7.1 12.3-13.9 19.3-20.1 10.7-9.5 20.9-19.6 31.7-29.1 10.4-9.2 20.8-18.4 30.7-28.1 5.2-5.1 11.6-8.8 17.7-12.9 9.1-6 17-13.5 25.6-20.1 6.6-5.1 12.5-11.2 20.2-14.7 3-1.3 5-3.8 7.2-5.8 5.1-4.5 11.4-6.8 16.8-10.6 4.5-3.1 9.4-5.7 13.9-8.8 5.3-3.6 11.1-6.2 16.7-9.3 8.6-4.7 17-9.8 25.9-13.8 12.6-5.8 24.6-13 37.5-18.2 6.8-2.8 13.2-6.4 19.9-9.5 7.8-3.6 15.5-7.4 23.6-10.2 9.8-3.4 19.3-7.4 28.9-11.2 8.8-3.4 17.3-7.6 26.3-10.2 6.7-2 12.8-5.2 19.5-7.3 5.7-1.8 11.4-4 17.3-5.3 8.5-1.9 16.4-5.5 24.9-7 11.4-2.1 22.5-5.5 33.6-8.5 11.5-3.1 23.2-4.3 34.7-6.4 12-2.2 24.1-3.4 36.2-5.2 9.4-1.4 18.8-3.6 28.3-4.6 8.1-.8 16.3-1 24.3-2.4 12.8-2.4 25.9-1.8 38.7-3.1C831.9.4 849.8-.3 867.6.6c12.1.6 24.2.9 36.2 1.4 9.7.3 19.5 0 29 1.6 8 1.4 16.1 1.3 24.1 2.4 11 1.4 22.3 1.5 33.2 3.7 12.8 2.5 25.7 3.4 38.5 5.5 16.3 2.7 32.3 6.7 48.7 8.5 10 1.1 19.5 5 29.3 7.6 11.9 3.1 23.8 6.7 35.9 9.3 6.1 1.3 11.8 4.6 17.9 6.2 17.7 4.6 34.2 12.2 50.9 19.4 15.4 6.6 30.2 14.7 45.3 21.9 8.6 4.1 17.2 8.9 25.6 13.9 14.6 8.9 29.7 17.1 44 26.5 10.1 6.6 19.9 13.8 30.1 20.3 11.1 7.1 20.6 16.4 32.2 22.8 7.7 4.3 13.6 10.9 20.2 16.7 7.6 6.7 14.8 13.9 22.1 21 4.7 4.6 10.3 8 15.1 12.4 4.3 3.9 8.5 8.1 12.5 12.4 6.6 7.1 13.3 14.1 19.3 21.6 8.7 11 19.7 19.8 28.7 30.6 11.3 13.6 22.2 27.7 34.1 40.9 9.3 10.3 16.8 22 24.1 33.9 5.7 9.4 11.4 18.8 17.6 28 9 13.4 17.5 27.3 24.6 41.9 3.9 8.1 8.3 16 13 23.7 5.8 9.5 9.2 20 13.9 29.9 3.1 6.5 6 13.1 9.2 19.5 4.5 9 9.5 17.7 11 27.9.5 3.4 3 6.5 4.3 9.9 4.3 11.2 7.9 22.7 12.7 33.6 5.7 12.8 8.6 26.4 13 39.6 4.2 12.8 6.8 26 11.3 38.7 2.9 8.3 3.7 17.3 5.6 26 2.1 9.9 4.2 19.8 6.5 29.6.3 1.3.5 2.6.4 3.9-.2 8.5 2.9 16.6 3.5 25.1.4 6 2 11.9 2.4 17.8 1 14.2 2.2 28.3 4.9 42.2 1.3 6.9 1.7 14 2.1 21 .8 13.7 1.2 27.4 2.1 41.2 1 16 .8 32 .7 48.1 0 5.2-.8 10.2-.8 15.4 0 17.7-1.9 35.2-4.6 52.8-2.4 16-5.4 32-7.6 48.1-1.4 10.1-4.4 20.2-6.3 30.2-2.4 13-6.5 25.6-9.7 38.4-2.2 9-6 17.5-8.8 26.4-4.2 13-8.2 26-14.1 38.3-3.1 6.3-4 13.2-7 19.3-5.6 11.3-9.7 23.4-16.5 34.1-5.1 8.1-8.5 17.1-13.4 25.3-1.8 2.9-3.8 5.6-5 8.8-6.8 17.4-18.3 32-29.1 46.9-8.4 11.5-17.6 22.4-26.9 33.3-8.7 10.2-18.2 19.6-26.3 30.3-1.8 2.4-4.3 4.5-6.5 6.4-9.5 8.3-17.1 18.4-27.1 26.4-20 16-40.1 31.8-60.9 46.7-11.5 8.2-24 14.8-36.7 21.2-7.4 3.7-14.9 7.5-21.6 12.5-4.4 3.3-9.9 4.5-14.7 7.1-10.9 6-22.5 10.7-34.3 14.6-9.1 3.1-17.3 8.3-27 9.7-2.8.4-5 2-6 5.4-3.1 10.4-5 21-7.1 31.5-1.2 6.1-2.3 12.3-3.7 18.5-1.4 6.5-2.9 13.1-2.9 19.7 0 13.2-2.8 26-4 39-.6 6.6.9 13.4 1.4 20.1.1 1.6.3 3.3.4 4.9.1 13.6.1 27.1 2.7 40.6 1.2 6.4 1.4 13.2 2.6 19.5 1.7 8.4 3.9 16.8 5.9 25.2 2.3 9.7 5.3 19.1 8 28.7 3.4 11.8 8.7 22.9 12.4 34.7 2.9 9.3 8.2 17.9 12.6 26.7.8 1.7 2 1.2 3.7.6 2.3-.8 5.2-.5 4 3.1-1.9 6-3.7 12.7-10.1 15.1-3.4 1.3-4.8 4.5-8 5.7-9.5 3.5-18.9 7.7-27.7 12.3-6.4 3.3-13 5.9-19.6 8.7-8.1 3.4-16.9 5-25.2 7.9-8.5 3-17.7 3.6-26.1 6.3-9.3 3-18.9 3.8-28.2 5.9-6.8 1.5-13.4 3.8-20.5 4.2-8.2.5-16.6.8-24.6 2.3-11.8 2.1-23.7 1-35.4 3.2-4.4.8-9-.3-13.5.2-9.5 1.1-19.1 1-28.7.9-15.9-.2-31.8-1.2-47.7-2.5-12.1-.9-23.5-4.7-35.3-6.2-7.3-.9-14.2-3-20.8-5.7-11.1-4.6-20.2-11.7-22.5-24.7-.6-3.4-1.2-4.8-6.3-3.6-11.2 2.6-22.4 6-34.1 6.9-9.8.8-19.7 1.3-29.2 4.4-3.9 1.3-8.4 1.4-12.7 1.3-11.1-.4-21.7 2.2-32.5 4-3.4.6-6.9.8-10.2.9-6.8.1-13.5 1.6-20.3 1.2-14.8-.7-29.5 1.7-44.3 1-15-.8-30.1-1.3-44.9-3.2-8.7-1.1-17.3-2.9-25.9-5.3-12.5-3.5-23.7-9.3-34.9-15.5-3.3-1.8-5-5.2-6.5-8.3-4.6-9.3-7.4-19.1-8.4-29.5-1.1-11.1-2.1-22.3-1.8-33.5.3-13 .9-26.2 5.2-38.5 3.8-10.9 7.2-22.1 12.7-32.5 2.4-4.5 3.6-9.5 5.8-14.2 6.3-13.2 16.7-22.6 28.3-30.7 4.1-2.9 9.8-3.9 15-4.6 8.3-1.2 16.7-1.3 24.9 1.7 10.9 4 20.6 9.6 29.4 17.4 4.8 3.3 10.2 8 18.5 8.2zm589.1-215.1c.8-2.1 3.1-.3 4.3-1.6 6.9-7.1 16.9-8.5 25.1-13.6 6.7-4.1 13.7-8.1 20.8-11.7 6.3-3.2 11.5-8.3 17.5-12.2 8.3-5.6 17.3-9.9 25.3-16.1 7.5-5.8 15.4-11.1 22.9-16.9 7.8-6.1 15.3-12.6 22.2-19.6 8.2-8.3 16.3-16.8 24.4-25.2 1.5-1.5 3.9-1.8 4.8-4 2.6-6.2 8-10 12.3-14.7 7.6-8.3 15.3-16.6 21.8-25.8 3.1-4.4 6.4-9 10-12.8 10.5-10.7 18.5-23.1 26.8-35.4 8-11.9 15.4-24.2 21.4-37.5 8-17.8 15.5-35.8 23.6-53.6 3.8-8.4 6.8-17.1 10.1-25.7 1.9-4.9 1.6-10.6 4.3-15.2 4.4-7.7 7.5-16 9.6-24.5 3.8-15.3 7.8-30.5 11.8-45.7 4.5-17.1 8.4-34.3 12.1-51.6.9-4 2.4-8 2.6-12.3.2-3.5.1-7.2.7-10.7 2-11.2 3.2-22.5 4-33.9 1.1-17 3-33.9 2-51-.6-10.4-.1-20.8-.9-31.2-.8-9-.9-18.1-.9-27.1 0-19.9-3.6-39.4-6.3-58.9-2-14.5-4.2-29.1-5.4-43.6-1.3-14.6-5.1-28.5-8-42.6-2.5-12.2-4.4-24.5-8.6-36.3-2.5-7-1.3-14.8-4.9-21.5-.8-1.5-1.8-3.2-1.9-4.8-.2-8-4.4-15-6.3-22.5-1.9-7.8-4.2-16-7.8-23.5-2.9-6-4.4-12.6-6.5-18.9-3-9.1-7.8-17.6-9.9-27.2-1.5-6.8-4.7-13.3-7.6-19.6-4.9-10.5-8.6-21.5-13.8-31.9-7.6-15.2-14.9-30.6-23.9-45-8.1-13-14.6-26.8-22.8-39.8-3.8-6-7.7-12.2-11.5-18.1-6.3-9.7-13.7-18.8-20-28.6-11.5-17.5-24.8-33.6-38.4-49.4-11.2-13-23.3-25.1-35.4-37.3-3-3-5.3-6.8-8.2-9.5-5.9-5.4-12.6-9.9-17.5-16.3-4.1-5.4-10.2-8.5-14.6-13.5-2.9-3.4-5.5-7.3-9.1-9.9-7.1-5.2-13.4-11.1-20.2-16.6-9.1-7.2-17.6-15.2-26.7-22.5-8.7-7-18-13.1-27-19.6-8.7-6.3-17.4-12.7-26.3-18.5-7.6-5-15.4-9.8-23.1-14.7-10.4-6.6-21.7-11.7-32.1-18.2-5.3-3.4-11.6-5.4-17.3-8.6-9.3-5.2-19.4-8.9-29.1-13.4-10.4-4.7-20.4-10.2-31-14.6-13.2-5.4-26-11.5-40.2-14.1-2.6-.5-4.5-3.1-7.6-3.9-13.2-3.2-26.2-7-39.3-10.5-5.4-1.5-10.8-3.2-16.2-4.2-10.8-2-21.7-3.7-32.5-6-7.4-1.6-14.8-3.4-22.1-4.7-6-1.1-12.2-1.7-18.2-3.2-14.8-3.5-29.9-4.3-44.9-5.9-8.4-.9-16.7-2.6-25.4-2.7-10.4-.2-20.8-1.2-31.3-2.4-12.3-1.4-24.8-.2-37.2-1-11-.7-22.2.2-33.2.4-19 .3-37.9 2.7-57 2.4-4.9-.1-9.9.3-14.6 1.5-7.6 1.9-15.4 2.1-23.1 3.4-6.9 1.1-13.9 1-20.6 3.3-2.1.7-4.3 1.6-6.5 1.7-11.2.7-22.3 1.5-33.3 4-9.5 2.2-19.4 2.6-28.7 6-5.2 1.9-11.2 1.2-15.8 5-.7.6-1.7.8-2.7 1-7.1 1.8-14.2 3.4-21.3 5.4-8.3 2.4-16.4 5.6-24.9 7.4-13.6 3-27 6.9-39.8 12.4-12 5.2-24.3 9.9-36.4 14.8-9.5 3.9-19.4 6.4-28.6 10.9-15.9 7.7-32.5 14.1-48 22.5-10.1 5.5-20.3 10.9-30.6 15.8-8.1 3.9-16 8.4-24.1 12.4-5 2.5-9.8 7.2-15.1 10.2-7.5 4.2-13.7 10.3-21.3 14.5-2.4 1.3-5.4 2.8-7 4.9-6.9 9.3-17.9 13.2-25.9 21.2-6 6.1-13.8 10.3-20.5 15.9-7.5 6.2-14.4 13.3-22.4 19.1-6.7 4.9-13.2 10.4-19.5 16-7.7 6.9-15.8 13.3-22.7 20.9-7.8 8.8-16.8 16.4-24 25.7-2.4 3-6.5 4.1-8.7 7-8.4 10.9-17.7 21-26.8 31.3-7.9 9-14.1 19.2-21.5 28.5-9 11.3-16.1 24.1-24.3 35.9-9.5 13.6-14.9 29.4-23.6 43.5-5.8 9.5-8.5 20.8-13.2 31-6.3 13.6-12.3 27.4-18.4 41.1-9.7 21.8-17.2 44.7-23.1 67.9-2 7.7-6 14.4-7.9 22.1-1.6 6.5-4.6 12.8-5.5 19.4-2.4 16.3-5.5 32.5-9.5 48.5-5.3 21.5-6.3 43.3-7.7 65.2-.5 7.6-.6 15.1-.7 22.7-.1 10-1 20-1.2 30-.1 4.1.2 8.1.7 12.2.8 7-1.5 13.8-1 21.1 1 15.9 1 31.9 3.2 47.8 2.5 17.7 2.7 35.7 5.8 53.5 2.5 14.3 5.1 28.7 7.5 43.1 2.4 14.2 5.7 28.2 9.4 42.2 4 15.1 9 29.7 13.3 44.6 4.5 15.7 11.6 30.5 16.6 46 3.8 11.7 10.3 22.5 15.2 33.8 4.2 9.7 10.3 18.6 14.1 28.3 3.9 10 10.7 18 14.9 27.8 3.9 8.9 9.9 17.3 15.3 25.7 7.9 12.3 15 25.2 24 36.7 6.7 8.5 13.7 16.7 20.5 25.1 4.1 5.1 7.5 11 12.5 15.1 6.2 5.1 11.1 11.4 16.3 17.3 6.9 7.8 14 15.3 21.4 22.7 6.6 6.6 13.2 13.3 20.4 19.3 7.3 6.1 14.8 12.1 21.5 18.8 2.3 2.3 4.1 5.7 6.2 7.4 6.2 4.8 12.2 9.8 18 15 13.9 12.6 30.6 21.2 45.5 32.3 4.2 3.1 9.3 5 13 8.4 6.3 5.7 14.2 8.5 20.8 13.6 7.6 5.8 16.1 10.6 24.5 15.3 8.9 5 18.1 9.6 27.2 14.2 5.6 2.9 11.3 5.2 16.9 8 9.4 4.7 18.8 9.7 28.7 13.3 4.6 1.7 9.5 2.8 13.8 5.2 4 2.3 8.2 4.3 12.5 6 9.7 3.8 19.8 6.8 29.3 11.2 9.1 4.3 19 5.4 28.3 8.5 7.5 2.6 15.5 4.2 23 6.7 13.7 4.4 27.5 8.6 41.3 12.6 10.5 3 21.1 5.7 31.8 8 11 2.4 21.6 6.5 32.9 7.1 7.4.3 14.2 2.9 21.9 2.7 5.8-.2 12.4 2.6 18.7 3.7 3.5.6 8.1 3.2 10.8-2.5.9-1.8 4.5-1.6 4.7.6.4 3.8 3 7.2 3.1 10.4.4 12 5.5 22.5 9.3 33.3 4.5 12.7 13 23.5 19.3 35.4 3.7 7 8.8 13.2 13.6 19.5 4.4 5.7 8.9 11.2 14.3 15.9-.2.7.1 1 .8.8 1.2 2 4.2 1.4 5.2 3.7.8 1.7 2.4 3.9 1.3 5.2-2.3 2.6-5.3 5.5-9 5.1-8.6-.9-17-3.2-24.9-6.9-4.9-2.3-9.2-6-14-8.4-9.6-4.8-19.1-10.3-30-12.4-7.2-1.4-13.8-3-20.4 2.6-2.4 2-6 3-8.9 5-2.7 1.9-5.8 3.3-8.1 5.8-4.8 5-8.2 10.9-11.7 16.7-3.1 5.1-6.4 10.4-8.1 15.8-3.4 10.6-8.3 20.8-10.1 32.1-1.5 9.6-5.6 18.9-4.1 28.8 1.7 11.2.7 22.4 1.6 33.5 1.5 18.1 7.8 32.7 25.3 39.8 10.3 4.2 21.2 7.5 32.2 9.4 11.1 1.9 22.6 1.5 33.9 2.3 7.9.5 15.9.8 23.7 2.2 5 .9 9.7 1.1 14.5-.3 3.1-.9 6.1-.9 9.3-.9 8.3 0 16.8.9 24.9-.4 6.4-1 12.7-1 18.9-1.8 4.6-.6 9.3 0 13.7-1 12.1-2.8 24.5-3.2 36.8-4.8 8.1-1 16-3.2 24-5 .1.3.3.5.4.8l.8-.8c10.7-3 21.4-6.3 32.2-9 4.5-1.1 4-4.1 3.6-7-2.6-16.3-.5-32.7.3-49 .6-11.5 4.8-22.5 8.9-33.3 6-15.8 9.9-32.8 22.6-45.4.8-.8 3.4-2.1 1.5-4.9-2.7-4-3.7-8.8-5.7-13.2-3.7-8.1-4.2-16.9-5.4-25.4-1.3-9.5-3.4-18.9-4-28.4-.4-6.8 0-13.7-.8-20.5-.5-4.3.7-8.7-1.4-12.8.3-.1.5-.3.8-.4l-.8-.8c0-.8-.1-1.7 0-2.5.3-2.6 2-5.2.8-7.6-1.6-3-4.5-.6-6.9-.8-4.3-.4-8.4-.8-12.8-.4-4.7.5-9.2 3.1-13.8 2.2-6.7-1.3-13.5-.4-20.2-.9-.1-.3-.3-.5-.4-.8l-.8.8c-10.2 1.2-20.3.4-30.3-1.7-2.5-.5-5.2.4-7.7-1.1-1.9-1.2-2.8-2.9-2.8-4.8 0-2.6 2.3-2.2 4.1-2.3 4.7-.1 9.4-.4 14-.2 17.7.7 35.2-.7 52.8-1.5 11-.5 21.8-2 32.7-3.4 6.4-.8 13-.3 19.1-2.8.1.3.3.5.4.8l.8-.8c4.6-.3 9.2-1 13.7-.9 1.9 0 3 .5 3.2-1.9.2-4.1 3-2.8 4.2-1.3 1.9 2.3 4.2 3.7 6.9 4.6 1.1.4 1.8.8 1.9 2.3.8 8.9 2.3 17.4 5.6 25.9 1.7 4.3 3.9 8.4 5.4 12.8 4.1 11.4 9.5 22.1 16.2 32.2 11.4 17.1 23.8 33.3 38.6 47.6 7.8 7.5 10.7 17.6 14.7 27.1 1.2 2.8.7 5.9-2.1 8.5-4.6 4.2-9.7 3.4-14.8 2.2-9.7-2.3-18-8.1-27-12.2-14-6.4-28-12.5-43.2-15.8-7.7-1.7-25.5 2.6-30.4 11.7-3.7 7-8.2 13.7-10.9 21.2-5.5 14.8-12.6 29-15.2 44.9-1.5 9.2-2.6 18.4-2.7 27.6 0 12 2.2 24 4.5 35.9 2.9 14.7 10.2 25.2 25.5 29.8 5.5 1.6 11.2 2.7 16.7 4.3 13.5 3.9 27.1 6.9 41.2 6.4 5.1-.2 10.2.3 15.3.5 12.4.6 24.8.7 37.2.6.1.3.3.5.4.8l.8-.8c17.3.5 34.5-2.5 51.7-3.2 4.9-.2 10-1.2 15-1.9 17.7-2.6 35.3-5.9 53-8.9 13.3-2.2 26-6.6 38.8-10.4 10.9-3.2 21.2-8.1 32-11.7 11-3.7 20.8-9.6 30.7-15.4 3.3-1.9 5.6-5.7 9.2-6.1 7-.7 3.3-4.1 1.9-6.5-5.1-8.9-11.1-17.4-15.4-26.7-5.1-11-9.3-22.5-12.9-34.1-5.3-17-9.4-34.4-13.2-51.8-2.1-9.4-5.2-18.8-5.7-28.4-.6-11.9-1.8-23.7-1.2-35.6 0-1-.1-2-.3-2.9-1.1-4.2-.6-8.4-.1-12.7.9-8.1 2-16.4 1.8-24.3-.2-7.7 1.6-15.1 1.4-22.7-.2-6.9 2.3-13.4 3.1-20.2 1.3-10.5 4.2-20.5 6.3-30.8 1.8-8.9 5.3-17.5 7-26.5.7-4 1.6-9.6 6.6-10.3 4.6-.7 8.5-2.8 12.8-3.9 9.6-2.5 18.6-6.7 28-9.7 6.9-2.2 13.6-6.1 20.3-9.5.8 0 1.1-.2.9-.9zM1087.7 1710c-2.1-2-1.9-5.5-3.9-8.2-4.7-6.3-10.8-11.3-16-17.1-7-7.9-13.5-16.1-19.5-24.9-8-11.5-16.2-22.6-22.3-35.4-6-12.5-8.3-25.9-12.4-38.8-.9-2.7-1.3-5.7-2.7-8.1-.2-.4-4 1.1-6.1 1.6-.3.1-.7 0-1 0-5.7.7-11.3 1.2-16.9 2.1-1.9.3-4.3.9-4.3 3.8.1 14.6-.1 29.2.4 43.8.2 6.4 1.9 12.8 2.6 19.3 1.4 13.5 3.9 26.7 8.9 39.5 1.4 3.7 2.8 3 5.3 2 5-2.1 10.5-3.1 15.8-2.3 9.2 1.3 18.5 2.7 27.5 5.6 6.4 2.1 12.5 4.6 18.5 7.7 7.8 4.1 15.2 8.9 24 11.1 1.3.3 2 .7 2.1-1.7z"/><path fill="#FEFEFE" d="M1098.6 1880.2c-12.4.2-24.8 0-37.2-.6-5.1-.2-10.2-.7-15.3-.5-14.1.6-27.8-2.5-41.2-6.4-5.5-1.6-11.1-2.7-16.7-4.3-15.3-4.5-22.6-15.1-25.5-29.8-2.3-11.9-4.6-23.8-4.5-35.9 0-9.1 1.2-18.4 2.7-27.6 2.6-15.9 9.7-30.1 15.2-44.9 2.8-7.5 7.2-14.2 10.9-21.2 4.8-9.1 22.7-13.4 30.4-11.7 15.1 3.3 29.1 9.4 43.2 15.8 9 4.1 17.3 9.8 27 12.2 5.1 1.2 10.2 2 14.8-2.2 2.8-2.6 3.3-5.8 2.1-8.5-4-9.5-6.9-19.6-14.7-27.1-14.8-14.3-27.2-30.5-38.6-47.6-6.7-10.1-12.1-20.8-16.2-32.2-1.6-4.4-3.8-8.5-5.4-12.8-3.3-8.5-4.8-17-5.6-25.9-.1-1.5-.8-1.9-1.9-2.3-2.7-1-5-2.3-6.9-4.6-1.3-1.5-4-2.8-4.2 1.3-.1 2.4-1.3 1.9-3.2 1.9-4.6-.1-9.2.5-13.7.9h-1.2c-6.1 2.6-12.8 2-19.1 2.8-10.8 1.4-21.7 2.9-32.7 3.4-17.6.8-35.2 2.3-52.8 1.5-4.7-.2-9.3.1-14 .2-1.8 0-4.1-.3-4.1 2.3 0 1.9.9 3.6 2.8 4.8 2.5 1.5 5.1.6 7.7 1.1 10 2.2 20.1 3 30.3 1.7h1.2c6.7.5 13.4-.4 20.2.9 4.6.9 9.1-1.7 13.8-2.2 4.4-.5 8.6 0 12.8.4 2.3.2 5.3-2.2 6.9.8 1.3 2.4-.5 5-.8 7.6-.1.8 0 1.7 0 2.5v1.2c2 4.1.9 8.5 1.4 12.8.8 6.8.4 13.7.8 20.5.6 9.6 2.7 18.9 4 28.4 1.1 8.5 1.7 17.3 5.4 25.4 2 4.4 3 9.2 5.7 13.2 1.9 2.8-.7 4.1-1.5 4.9-12.6 12.6-16.6 29.6-22.6 45.4-4.1 10.7-8.3 21.8-8.9 33.3-.8 16.3-2.9 32.6-.3 49 .5 2.9.9 5.9-3.6 7-10.8 2.7-21.5 6-32.2 9h-1.2c-8 1.8-15.8 4-24 5-12.3 1.6-24.7 2-36.8 4.8-4.4 1-9.1.4-13.7 1-6.3.8-12.6.8-18.9 1.8-8.1 1.3-16.6.3-24.9.4-3.1 0-6.2 0-9.3.9-4.7 1.4-9.5 1.2-14.5.3-7.8-1.4-15.8-1.6-23.7-2.2-11.3-.8-22.8-.4-33.9-2.3-10.9-1.9-21.8-5.2-32.2-9.4-17.5-7.1-23.8-21.7-25.3-39.8-.9-11.2 0-22.4-1.6-33.5-1.5-9.9 2.6-19.2 4.1-28.8 1.8-11.2 6.6-21.4 10.1-32.1 1.8-5.5 5-10.8 8.1-15.8 3.5-5.8 7-11.7 11.7-16.7 2.3-2.5 5.4-3.9 8.1-5.8 2.9-2 6.5-3 8.9-5 6.5-5.5 13.2-4 20.4-2.6 10.9 2.1 20.4 7.6 30 12.4 4.7 2.4 9 6.1 14 8.4 7.9 3.7 16.3 6 24.9 6.9 3.7.4 6.7-2.5 9-5.1 1.1-1.3-.5-3.5-1.3-5.2-1-2.3-4-1.7-5.2-3.7l-.8-.8c-5.4-4.8-9.9-10.2-14.3-15.9-4.8-6.3-9.9-12.5-13.6-19.5-6.4-11.9-14.8-22.7-19.3-35.4-3.8-10.8-8.9-21.3-9.3-33.3-.1-3.2-2.7-6.6-3.1-10.4-.2-2.2-3.8-2.4-4.7-.6-2.7 5.6-7.2 3.1-10.8 2.5-6.3-1.1-13-3.9-18.7-3.7-7.7.3-14.6-2.3-21.9-2.7-11.3-.5-21.9-4.7-32.9-7.1-10.7-2.3-21.3-5-31.8-8-13.8-4-27.6-8.1-41.3-12.6-7.6-2.4-15.5-4.1-23-6.7-9.3-3.2-19.2-4.3-28.3-8.5-9.4-4.4-19.5-7.4-29.3-11.2-4.3-1.7-8.5-3.7-12.5-6-4.4-2.4-9.2-3.5-13.8-5.2-9.9-3.7-19.2-8.6-28.7-13.3-5.6-2.8-11.3-5.1-16.9-8-9.1-4.7-18.3-9.2-27.2-14.2-8.4-4.7-16.9-9.5-24.5-15.3-6.6-5.1-14.5-7.9-20.8-13.6-3.7-3.4-8.8-5.3-13-8.4-14.9-11.1-31.6-19.7-45.5-32.3-5.7-5.2-11.8-10.2-18-15-2.1-1.6-4-5.1-6.2-7.4-6.8-6.7-14.2-12.7-21.5-18.8-7.2-6-13.8-12.6-20.4-19.3-7.3-7.4-14.4-14.9-21.4-22.7-5.2-5.8-10.1-12.2-16.3-17.3-5-4.1-8.4-10-12.5-15.1-6.8-8.4-13.8-16.6-20.5-25.1-9-11.6-16.1-24.4-24-36.7-5.4-8.4-11.4-16.8-15.3-25.7-4.2-9.7-11.1-17.8-14.9-27.8-3.8-9.8-9.9-18.6-14.1-28.3-4.9-11.3-11.4-22.1-15.2-33.8-5.1-15.5-12.1-30.3-16.6-46-4.3-14.9-9.3-29.6-13.3-44.6-3.7-14-6.9-28-9.4-42.2-2.5-14.4-5-28.7-7.5-43.1-3.1-17.8-3.4-35.7-5.8-53.5-2.2-15.9-2.2-31.8-3.2-47.8-.4-7.3 1.9-14.1 1-21.1-.5-4.1-.8-8.2-.7-12.2.3-10 1.1-20 1.2-30 .1-7.6.2-15.1.7-22.7 1.4-21.9 2.3-43.7 7.7-65.2 4-15.9 7.1-32.1 9.5-48.5 1-6.6 3.9-12.9 5.5-19.4 1.9-7.6 5.9-14.3 7.9-22.1 5.9-23.2 13.4-46.1 23.1-67.9 6.1-13.7 12.1-27.4 18.4-41.1 4.7-10.2 7.4-21.6 13.2-31 8.6-14.1 14.1-29.8 23.6-43.5 8.3-11.9 15.3-24.7 24.3-35.9 7.5-9.3 13.6-19.5 21.5-28.5 9.1-10.3 18.4-20.4 26.8-31.3 2.2-2.8 6.4-3.9 8.7-7 7.2-9.3 16.2-17 24-25.7 6.8-7.6 15-14.1 22.7-20.9 6.3-5.6 12.8-11.1 19.5-16 8-5.8 14.9-12.8 22.4-19.1 6.7-5.6 14.5-9.8 20.5-15.9 8-8 19-11.9 25.9-21.2 1.6-2.1 4.6-3.6 7-4.9 7.6-4.2 13.8-10.3 21.3-14.5 5.4-3 10.1-7.7 15.1-10.2 8.1-4 15.9-8.5 24.1-12.4 10.3-5 20.5-10.3 30.6-15.8 15.5-8.5 32.1-14.8 48-22.5 9.3-4.5 19.2-7 28.6-10.9 12.1-4.9 24.4-9.6 36.4-14.8 12.8-5.5 26.2-9.4 39.8-12.4 8.4-1.9 16.5-5.1 24.9-7.4 7-2 14.2-3.6 21.3-5.4.9-.2 2-.4 2.7-1 4.6-3.8 10.6-3.2 15.8-5 9.3-3.4 19.2-3.8 28.7-6 11-2.5 22.1-3.3 33.3-4 2.2-.1 4.4-1 6.5-1.7 6.7-2.3 13.7-2.2 20.6-3.3 7.7-1.2 15.5-1.4 23.1-3.4 4.7-1.2 9.7-1.6 14.6-1.5 19 .3 37.9-2.1 57-2.4 11.1-.2 22.2-1.1 33.2-.4 12.4.8 24.9-.4 37.2 1 10.4 1.2 20.9 2.1 31.3 2.4 8.6.2 17 1.9 25.4 2.7 15 1.6 30.1 2.4 44.9 5.9 6 1.4 12.2 2.1 18.2 3.2 7.4 1.3 14.7 3.2 22.1 4.7 10.8 2.3 21.7 3.9 32.5 6 5.5 1 10.8 2.8 16.2 4.2 13.1 3.5 26.2 7.3 39.3 10.5 3.1.7 4.9 3.4 7.6 3.9 14.2 2.6 27 8.7 40.2 14.1 10.6 4.3 20.6 9.8 31 14.6 9.7 4.5 19.8 8.2 29.1 13.4 5.7 3.2 11.9 5.2 17.3 8.6 10.5 6.6 21.7 11.6 32.1 18.2 7.7 4.9 15.5 9.7 23.1 14.7 8.9 5.8 17.6 12.2 26.3 18.5 9 6.5 18.4 12.6 27 19.6 9.1 7.3 17.6 15.2 26.7 22.5 6.8 5.4 13.2 11.4 20.2 16.6 3.5 2.6 6.1 6.5 9.1 9.9 4.4 5 10.5 8.1 14.6 13.5 4.9 6.5 11.6 10.9 17.5 16.3 3 2.7 5.3 6.5 8.2 9.5 12 12.2 24.2 24.3 35.4 37.3 13.6 15.8 26.9 31.9 38.4 49.4 6.4 9.7 13.7 18.9 20 28.6 3.9 5.9 7.8 12.1 11.5 18.1 8.2 13 14.7 26.8 22.8 39.8 9 14.4 16.4 29.8 23.9 45 5.2 10.4 8.9 21.4 13.8 31.9 2.9 6.3 6.1 12.8 7.6 19.6 2.1 9.6 7 18 9.9 27.2 2.1 6.3 3.7 12.9 6.5 18.9 3.6 7.5 5.9 15.7 7.8 23.5 1.9 7.6 6.1 14.5 6.3 22.5 0 1.6 1 3.3 1.9 4.8 3.6 6.7 2.5 14.5 4.9 21.5 4.1 11.8 6 24.2 8.6 36.3 2.9 14.1 6.7 28 8 42.6 1.3 14.5 3.4 29.1 5.4 43.6 2.7 19.5 6.3 39 6.3 58.9 0 9 .2 18.1.9 27.1.9 10.4.4 20.8.9 31.2.9 17.1-.9 34-2 51-.8 11.3-2 22.7-4 33.9-.6 3.5-.6 7.2-.7 10.7-.2 4.4-1.7 8.3-2.6 12.3-3.7 17.3-7.5 34.5-12.1 51.6-4 15.2-7.9 30.4-11.8 45.7-2.1 8.5-5.2 16.8-9.6 24.5-2.7 4.7-2.4 10.3-4.3 15.2-3.3 8.6-6.4 17.3-10.1 25.7-8.1 17.8-15.6 35.8-23.6 53.6-5.9 13.3-13.3 25.6-21.4 37.5-8.2 12.2-16.2 24.7-26.8 35.4-3.7 3.7-6.9 8.3-10 12.8-6.5 9.3-14.2 17.5-21.8 25.8-4.3 4.7-9.8 8.5-12.3 14.7-.9 2.2-3.3 2.5-4.8 4-8.1 8.4-16.1 16.9-24.4 25.2-6.9 7-14.4 13.5-22.2 19.6-7.5 5.9-15.4 11.1-22.9 16.9-7.9 6.2-17 10.5-25.3 16.1-5.9 4-11.2 9.1-17.5 12.2-7.1 3.6-14.1 7.6-20.8 11.7-8.2 5-18.2 6.4-25.1 13.6-1.3 1.3-3.5-.5-4.3 1.6l-.8.8c-6.7 3.4-13.4 7.3-20.3 9.5-9.5 3-18.4 7.2-28 9.7-4.3 1.1-8.2 3.2-12.8 3.9-5 .7-5.9 6.3-6.6 10.3-1.7 9-5.2 17.6-7 26.5-2.1 10.3-5 20.3-6.3 30.8-.8 6.7-3.3 13.3-3.1 20.2.2 7.6-1.6 15-1.4 22.7.2 7.9-.9 16.2-1.8 24.3-.5 4.3-1 8.4.1 12.7.2.9.3 2 .3 2.9-.6 11.9.6 23.8 1.2 35.6.5 9.6 3.6 19 5.7 28.4 3.8 17.4 8 34.8 13.2 51.8 3.6 11.6 7.8 23.1 12.9 34.1 4.3 9.3 10.3 17.8 15.4 26.7 1.4 2.4 5.1 5.7-1.9 6.5-3.6.4-5.9 4.2-9.2 6.1-9.9 5.8-19.7 11.7-30.7 15.4-10.7 3.6-21.1 8.5-32 11.7-12.8 3.8-25.5 8.2-38.8 10.4-17.7 2.9-35.3 6.2-53 8.9-5 .7-10 1.8-15 1.9-17.3.7-34.4 3.7-51.8 3.2-.4.1-.8.1-1.2.1zm-222-312.1h1.2c6.4.3 12.7-1.2 19.2-1.1 8.9.1 17.8-.2 26.7-.6 17.8-.8 35.5-1.4 53.2-3.4 6.1-.7 12.6 0 17.9-4.8 1.7-1.5 2.4-3.3 2.3-4.8-.2-1.9-2.2-1.7-4.1-1.6-6.9.6-14 .2-20.8 1.4-16.3 2.8-32.8 1.3-49.2 2.6-9.6.7-19.4 1-29 1.7-10.7.8-21.5 1.9-32.2 2.5-9 .5-18 .2-27 .5-12.1.5-24-.2-36-.2-1.9 0-5.1-.5-6.1 2.3-.7 2-1.2 4.5 1.8 5.4h5.2c2.8 0 5.7.1 8.5 0 12.6-.3 25.2-.5 37.7-1.1 2.5-.1 4.8.6 7.4.5 7.8-.4 15.6-1.2 23.3.7zm461.1-196.8c3.4-3.1 4-7.9 6.9-11.3.5-.6.3-2.1-.7-3.2-4.8-5.1-6.4-12.1-10-17.9-1.3-2.2-4.2-4.4-3-7.8l.9-2.1 1 1c.3.8 1 1.1 1.8 1.1 1.8 2.6 4.7 4.1 6.8 6.3 6.3 6.9 19.7 5.9 24.8 1.5 5.3-4.5 9.5-10.1 14.7-14.8 1.7-1.6 3.7-4.6 1.9-8.1-5.5-11.2-7.3-23.8-13.4-34.8-.8-1.4-2.1-3.1-.5-4.7 7.3-7.3 11-16.5 15-25.7 4.5-10.4 10.3-20.3 12.3-31.6 1.9-10.7 3.3-21.5 4.9-32.3 1.8-11.8-1.4-22.8-2.4-34.1-.8-9-5.3-17-8.2-25.5-2.1-6.2-3.6-12.7-8.4-17.7-1.3-1.3-2-2.9.8-4.9 3-2.1 5.2-5.9 6.7-9.4 4.1-9.4 9.3-18.3 14.3-27.3 5.6-10.2 11-20.6 15.6-31.3 5.5-12.6 10.5-25.3 14.6-38.5 4.7-15.1 8.6-30.3 11.4-45.8 2.8-15.6 5.2-31.4 7.7-47.1 2.9-18.7 3.5-37.5 4.5-56.3.6-11.7.6-23.5-.9-35.1-.8-5.9-.1-11.7-.3-17.4-.3-11.2-2.2-22.3-2.9-33.4-.5-8.2-.8-16.6-2.6-24.8-2.1-9.3-3.3-18.9-4.1-28.4-.5-6.5-1.9-12.8-3-19.2-1.7-9.5-4.6-18.7-6.8-28.1-1.8-7.8-3.4-15.8-5.9-23.4-4.4-13.4-9.5-26.5-14.4-39.7-4.6-12.1-9.8-23.9-16.8-34.9-3.9-6.2-6.7-13.2-11.4-18.9-3.5-4.3-6.2-9.2-9.3-13.7-3.5-5-7.5-9.7-10.9-14.9-.4-.6-1-3.1-2.1-1.7-1.8 2.3-5.1.7-6.4 3.2-.3.5-.2 1.8-.1 1.8 4.7 1.4 3.3 7.2 6.9 9.5 2 1.3 3.7 3.5 4.9 5.6 6.6 11.2 13.5 22.2 19.1 33.9 5.8 12.2 12 24.1 17.8 36.3 4.3 8.9 8.5 17.9 10.6 27.6 1.8 8.1 4.7 16 6.4 24.2 2.2 10.2 4.8 20.4 6.9 30.6 3.4 16.5 3.7 33.5 6.8 50.1 2.1 11.5 4.3 23.3 4.3 35.1 0 17.2 2.9 34.1 3.1 51.3.1 7.1-.6 14.1-.9 21.2-.4 9.4-.1 18.8-.7 28.3-.7 10.3-1.5 20.6-3.4 30.7-1.8 9.4-2.6 18.9-4.3 28.3-2 10.8-4.4 21.4-6.6 32.2-1.5 7.4-2.2 15-4.7 22.2-3.8 11-8 21.9-12.4 32.7-3.8 9.5-7 19.4-12.2 28.1-7.2 12-12.6 24.9-20.9 36.2-3.6 5-6 10.6-10.2 15.4-2.5 2.9-6.3 6.9-3.1 12.8 1.3 2.4 3.4 3.9 4.7 6.1 3.7 6.1 6.8 12.4 8.5 19.2 1.6 6.4 4.6 12.4 5.1 19 .5 6.2.2 12.6 1.3 18.7 2.2 12.7.6 25.4-1.6 37.7-2.5 14.5-8.3 28.1-15.7 41-2.6 4.6-5 9.5-11.1 10.6-4 .8-2.9 4.2-2.6 6.8.6 5 2.1 9.4 5.2 13.6 5 7 7.1 15.4 9.4 23.6 1 3.4 2.9 7.6-.1 10.7-5.4 5.6-12.8 7.6-20.2 8.2-3.8.3-6.7-3.5-9.5-6.2-6.8-6.3-11.6-14-16.5-21.7-1.7-2.6-3.2-4.2-6.5-3.3-3.6.9-5.1 3.8-4.8 6.7.7 6.4 1.1 12.9 2.6 19.3 2.8 12.4 9.6 22.9 16 33.6 1.9 3.1.5 4.1-1.3 6.3-4.6 5.5-11.3 7.6-16.8 11.5-4.4 3.2-9.3 2.5-14.2 2.3-4.8-.2-8.1-3.8-12.3-5.2-7-2.3-12.8-6.1-16.1-13-.7-1.4-1.5-2.2-3-1.9-1.5.3-2.1 1.5-2 3 .1 1.8-.7 2.9-2.5 3-8.8.2-17.6.4-25.4-4.9-8.5-5.9-16.6-12.2-23.8-19.8-5.6-5.9-8.8-13.2-13.6-19.6-1.7-2.3-4.1-4.9-5-8.6-2-7.7-5.3-15.1-8.5-22.4-4.7-10.5-8.7-21.3-12-32.3-4.2-14.1-5.9-28.7-7.5-43.4-.9-7.8-.9-15.6-1.5-23.4-.8-11.4 0-22.9-.3-34.3-.3-10.6-.3-21.3 1.4-31.7 2.4-15.7 1.8-31.8 6.5-47.2 3-9.9 2.2-20.7 4.6-30.7 2.8-12 4.3-24.1 6.8-36.1 3.6-17.2 4.6-34.6 5.6-52 .8-13.7.6-27.4 1.1-41.2.3-8.8.6-17.6 1-26.4.4-8.3-1.2-16.5-1.6-24.7-.3-6.5-1.7-12.8-1.8-19.3-.1-6.3-1.4-12.5-2.1-18.7-1.6-14.2-5.8-28.1-7.6-42.4-1.7-13.8-5.6-27.3-9.8-40.5-4.2-13.4-7.9-27-13.1-40.1-4.8-12.2-8.6-24.8-14.9-36.3-4.5-8.3-9.6-16.2-13.7-24.8-6.3-13.3-13.5-26.4-24-37.2-3.7-3.8-6.8-8.1-9.7-12.3-3.3-4.7-6.9-8.8-11.1-12.5-4-3.5-8.7-5.9-13.7-7.8-1.3-.5-1.8.1-2.5.8-.7.8-2.1 1.4-.9 2.8.9 1.1 1.7 2.4 2.6 3.5 10.8 13.8 23.1 26.3 33 40.9 3.9 5.8 8.5 11.3 12.2 17.1 2.9 4.5 5 10.3 7.4 15.5 5.8 12.7 12.9 24.8 18 37.7 4.1 10.4 7.7 21 11.5 31.6 2.2 6.2 6.5 11.9 7.5 18.1 2.8 17.9 8.7 35 10.9 53.1 1.3 10.5 3.7 21 5.8 31.4 3.8 18.4 4.6 37 5.6 55.5.6 12.3.2 24.6.1 36.9-.1 11.2-.2 22.5-.6 33.7-.2 6.8-.1 13.8-1.7 20.4-1.4 5.6-2.6 11.3-3.6 17-1.9 12-1.4 24.6-4.6 36.1-5 17.9-4.7 36.4-9.4 54.2-4.5 17-4.4 34.6-5.9 52-1.1 12.1-2 24.3-1.3 36.6.4 5.8.4 11.6.5 17.4.2 9.1 1.7 18.1 2.6 27.1 1.4 14.3 3.6 28.5 7.9 42.3 1.7 5.5 3.2 11.1 4.3 16.8 1.1 5.6 2.5 11 4.5 16.4 1.2 3 4 4.8 4.7 7.8 2.6 10.8 9.1 19.8 13.3 29.8 4.1 9.9 11.2 17.4 17.9 25.2 3.5 4.1 8.1 7.2 12.2 10.7 12.1 10.6 25.2 16.8 41.4 11 2.6-.9 4.8-1 6.3.5 6.3 6.2 14.1 9.3 22.2 12.2 7.5 2.6 15 2 22.3.7 8.8-1.6 17.1-5 23.1-12.2.3-.4.6-.7.9-1zM867.9 386.9c5.2-3.6 8.4-9 13.9-12.2 3.7-2.1 7.2-7 7.5-11.9.4-6.5-3.2-12-7.4-16.8-14-15.7-40.8-18.2-57.4-4.3-3.8 3.2-6.6 2.6-10.3-.3-4.6-3.5-9.6-6.7-15.8-6.3-13.4.7-25.8 4-36.3 13-6.5 5.5-12.7 11.4-18.8 17.3-6.1 5.8-12.3 12-16.6 19.8-6.6 11.8-15 22.5-21.5 34.4-8.2 15.1-14.3 31-20 47-2.3 6.4-3.4 13.1-5.4 19.4-2.2 6.7-3.8 13.5-6.1 20.2-3.6 10.2-4.4 21.3-8.4 31.1-6.7 16.4-10.1 33.7-16.2 50.3-5.6 15.1-11 30.4-17.1 45.3-2.4 6-6.1 11.5-9.1 17.3-2.4 4.7-3.3 10.3-6 14.4-3.6 5.4-6.3 11.3-8.8 17-5.2 11.6-11.5 22.5-18 33.2-7.1 11.8-15.9 22.5-24.4 33.3-8.5 10.7-19.3 19.4-26.4 31.5-2.9 4.9-8.4 8.2-12.7 12.2-11.3 10.3-22.1 21-35.2 29.4-15.9 10.2-31 21.7-48.9 28.5-14.8 5.6-28.8 13.1-44.1 17.4-5.2 1.4-10.3 3.4-15.4 5.2-8 2.8-16.2 5.4-24.6 6.5-9.7 1.2-19.4 2.8-29.2 3.8-16.5 1.6-32.6 1.7-48.7-1.4-2.1-.4-4.1.3-4.5 1.7-.6 2 .4 4.6 2.8 5 11.6 2 23.1 4.9 35 5 9.3.1 18.6.4 27.8-.6 5.9-.7 11.8-2.8 17.7-4.2 17.4-3.9 35-6.8 51.8-13.1 12.7-4.8 25.5-9.3 37.8-15.1 5.6-2.6 11.2-5.3 16.7-8.3 10.8-5.9 21.4-11.9 30.9-20.2 5.4-4.8 12.2-8.5 18-13.1 10.9-8.7 22-17.5 31-28.4 5.2-6.3 10.7-12.5 15.9-18.8 5.2-6.3 10.6-12.4 16.3-18.2 7.6-7.8 13.8-16.5 19.2-25.8 4.7-8 8.6-16.6 13.8-24.3 6.9-10.2 12.1-21.1 17.3-32.1 5.5-11.7 10.9-23.6 16.9-35.1 5.8-11.3 10.1-23.1 14.1-35.1 2.5-7.3 2.8-15.4 5.6-22.5 6.2-15.9 10.2-32.4 14.4-48.8 2.4-9.4 3.3-19.2 6.6-28.2 6.9-18.4 11.9-37.5 20.4-55.4 3.6-7.5 6.7-15.1 10.4-22.6 4.5-9.1 9.9-17.6 15.1-26.3 6.2-10.3 13.5-19.6 22.1-27.9 2.9-2.8 6.6-4.9 9.5-7.8 6.7-6.6 15.2-10.7 23.2-15.1 8.5-4.7 19.7 2.4 25.3 8.9 2.4 2.8 9.4 3.8 11.3.9 1.8-2.8 4.5-3.8 7.1-4.9 4-1.7 8.3-2.5 12.2-4.3 3.1-1.4 5.7-1.8 9.2-1.1 4.7.9 8.5 3.6 12.9 4.9 7.2 2.1 9.2 8.3 11.6 14.2.3.6.3 1.6-.7 2.1-6.4 3.4-11 8.8-16.3 13.6-5.6 5-10 11.1-13.5 17.7-1.1 2.1-1.7 5.4.8 7.4 2.2 1.8 4.8 2.7 7.9 1.4 10.2-4.1 20-9.6 31.7-9.2 5.3.1 12.8 2.6 15.7 7.1.8 1.3 1 3.3.2 3.6-3.8 1.5-3.8 5.5-5.7 8.1-6.4 9.3-12.7 18.5-18 28.5-5.8 10.9-10.9 22.1-13 34.4-.9 5.2-2.6 10.6.7 15.6 11.4 17.5 15.3 37.1 16.3 57.5.4 7.5-.3 15-2 22.4-2.2 9.7-4.4 19.6-9.2 28.3-9.1 16.2-22.9 28.3-37.2 39.9-5.1 4.1-10.1 9.4-8.5 17.1 2.3 10.7 2.1 21.4 1.1 32.3-.3 3-1.3 5.9-1 9.2.5 5.6.9 11.6-.6 16.8-2.4 8.2-3.7 16.7-5.2 25-2.7 14.9-6.3 29.7-10 44.3-3.6 14.5-6.4 29.2-11.2 43.3-1.9 5.8-3.4 11.9-5.7 17.3-3.7 8.6-6.4 17.6-10.9 25.9-9.3 17-15.8 35.5-26.5 51.9-9.3 14.2-18.4 28.5-27.6 42.7-10.6 16.4-24.2 30.2-37.9 43.9-15.2 15.2-31.7 28.9-49.1 41.5-10.8 7.8-21.6 15.3-33.6 21.1-6.5 3.2-12 7.9-18.7 10.9-9.9 4.4-19.3 10.1-30.2 12-5.3.9-10.7.8-15.9 2.3-4.4 1.3-3.1 5.3-3.6 8-.4 1.8 3 2.2 5.2 2.1 1.1-.1 2.3-.3 3.4-.4 4.6-.3 8.7-2.3 12.9-3.7 8.9-2.9 17.8-5.9 26.5-9.3 3.6-1.4 5.9-4.6 9.4-5.2 7.6-1.2 13.3-6.1 20-9 8.1-3.5 15.2-9 22.3-14.4 7.1-5.4 14.7-10.4 21.8-16.1 3.8-3.1 6.8-7.2 10.7-10 5.9-4.3 10.8-9.7 16.2-14.5 7.5-6.6 14.2-14.1 21.4-21.1 7.2-7.1 13.7-14.8 19.5-22.9 5.9-8.3 12.1-16.3 17.6-24.9 6.9-10.8 14.4-21.2 20-32.9 6.2-13 14.9-24.7 20.7-38 2.9-6.7 6.4-13.2 9-20 5.3-13.9 10.1-27.9 15.1-41.9 2.9-8.1 7.5-16 8.6-24.4 2.2-15.3 7.8-29.6 9.8-44.9 1.8-13.4 4.1-26.9 6.5-40.2 1.2-6.6.7-13.3 1.8-19.9 1.6-9.1 2.6-18.3 3.1-27.6.1-2.3.7-5-.2-6.9-1.4-3.1-.5-5 1.7-6.8 8.2-6.9 13.5-16.4 21-24.1 3.5-3.6 6.9-7.5 9.5-11.8 7-11.6 14.1-23.4 16.9-36.8 2.6-12.1 5.6-24 4.6-37-1.3-17.3-4.8-33.4-13.6-48.5-1.2-2-3.4-4-3-7.5 1.1-10.3 5.4-19.6 8.6-29.1 3.6-10.5 8.4-20.8 14.6-30.2 3.9-5.9 7.2-12.4 12.6-17.3 2.9-2.6 3-8.5 1.1-11.9-1.9-3.3-5.1-4.1-7.9-5.8-11.9-5.9-22.9-14.4-38-8.6zM423.6 227c-5.3-2-9.4-4.1-14.2-2.9-10.7 2.7-21.7 4.5-32.3 7.8-8 2.5-15.8 5.6-23 9.7-8.9 5.1-18.4 9-27.2 14.4-14.6 8.9-29.2 17.7-41.4 29.8-9.1 9-17.9 18.2-26.7 27.4-11.2 11.7-19.9 25.2-29.7 38-1.9 2.5-2.4 5.7-4.2 8.1-5.8 8-10.1 16.5-14 25.7-6.5 15.2-9.5 31.2-14.3 46.8-2.5 8-3.2 16.3-3.7 24.5-.5 8.3-1.9 16.6-.5 25.2.7 4.5 1.1 9.4 1.7 14.1.5 3.9-.7 8.3 1.8 11.9.9 1.3.5 4.9 4.1 3.1 3-1.5 1.9-3.5 1-5.7-.9-2.2-2.1-5.3-.4-6.6 3.4-2.5 2.4-5.7 1.9-8.3-.4-1.9-.7-3.9-.7-5.8-.1-17.9 2.5-35.6 6.2-53 1.3-6.3 2.2-12.9 5.2-18.9 2.2-4.4 4.4-9 5.4-13.8 3.3-15.2 10.5-28.6 18.4-41.6 10.7-17.7 24.4-33.3 38.4-48.6 2.9-3.2 5.7-6.8 9.3-9.1 8.6-5.5 16.6-11.8 24.5-18.1 8.1-6.6 16.8-12.2 25.7-17.5 12.7-7.6 25.5-15.4 39.7-20.2 11.6-4 23.4-7.1 35.5-9 4.7-1.1 8.9-3.8 13.5-7.4zm-23.9 260.7c0 3.2-.4 5.6.1 7.9 4 20.1 11.7 37.9 29.1 50.7 9.8 7.2 22.7 4.2 26.7-8.1 3.1-9.5-.2-18.6-3-27.5-3-9.6-9-18-14.6-26.1-4.3-6.1-9.6-12.8-18.1-14.3-3.9-.7-7.9-2.5-11.9.1-6.5 4.3-9.5 10.2-8.3 17.3zm381.9-212.9c2.1-3.9-.6-5.3-3.6-5.5-5.1-.3-10.3-.8-15.1 1.8-5 2.6-10.6 3.6-15.9 5.8-10.3 4.4-20.1 9.8-30 15-6.8 3.6-13 8.4-19.3 13-10.5 7.8-17.6 18.7-27 27.3-6 5.4-8.3 13.3-12.8 19.8-3.3 4.7-5.6 10-8.1 15.2-4.5 9.7-6.5 20.3-9.8 30.5-.8 2.4-.7 4.9.1 7.4.8 2.3 2.7 2.5 3.4.5 1-2.7 2.7-3.9 5.3-4.7 3-.9 3.9-3.1 3.8-6.1-.1-3.3-.6-6.8.1-10 3.5-16 11.7-29.7 20.8-43 5.8-8.4 14.3-14.2 21.9-20.7 5.4-4.6 10.2-9.8 16.3-13.7 14.1-9 28.5-17.2 44.4-22.2 6.5-2 12.7-5.6 20-5.1 3.5.2 7-.3 5.5-5.3zm-202.7 217c-1.4-2.1.3-5.6-.6-8.8-3-10.7-7.7-20.6-15.1-28.6-10.7-11.7-21.4-23.9-38.5-26.9-2.8-.5-4.7-.1-5.7 2.2-1.1 2.4 1 3.7 2.8 4.4 8.2 3.5 14.6 9.1 20.9 15.3 9.9 9.6 17.6 20.5 21.4 33.8 1.6 5.7 3.8 11.5 2.7 17.7-1.8 10.5-3.8 20.9-9.4 30.1-1.3 2.1-1.4 4.8 1 6.1 1.9 1 3 4 6.9 1.5 7.5-5 8.3-13.3 11.1-20.3 3.1-7.9 2.4-17 2.5-26.5zM417.1 676.2c2.5.7 6.2-.9 9.9-1 13.8-.5 26-5.4 37.5-12.5 1.5-.9 3-2.3 3.3-4.7.4-2.8.3-3-2.4-3.2-3.9-.4-7.2 2.3-10.7 2.2-4.3-.2-7.6 1.7-11.4 2.8-7.3 2.1-14.5 4.9-22.2 4.4-4-.2-8.1-.5-12.1-1-9.4-1.1-19-1.8-27.2-7.3-2.5-1.7-5.9-.1-6.9 2.9-1.2 3.9 1.3 8.8 5.2 10.4 11.4 4.6 23.3 6.8 37 7zm171.2-254c6.9 1.2 11.4-8.9 8.8-15.2-4.8-11.4-10.2-22.3-17.9-32.1-3-3.8-4.9-6.9-10.7-4-4.3 2.2-8.5 6.8-7.8 11.9 1.5 10.4 3.6 20.7 11.1 28.7 4.5 4.7 8.2 10.9 16.5 10.7zm64.3-127.5c.3 1.9-.6 4.3 2 5.2 2.8 1 3.8-1.2 4.9-3.1.5-.8 1-1.7 1.6-2.5 7.5-10.5 15.4-20.5 27.5-26.2 5.7-2.7 11.4-5.4 16.8-8.5 8.4-4.8 16.9-9.1 27-8.5 2 .1 4.2-.4 3.5-2.8-.6-2-.4-5.8-4.1-5.1-8 1.6-16.1 1.3-24.1 4.5-18.8 7.5-35.2 17.9-47.8 33.9-3.1 3.9-7.3 7.4-7.3 13.1z"/><path fill="#FEFEFE" d="M1370.7 1466l.8-.8c.2.7-.1.9-.8.8zM992.6 1566.2h1.2l-.8.8c-.1-.3-.3-.6-.4-.8zM911.8 1584.1h-1.2l.8-.8c.1.3.2.5.4.8zM964.7 1595.3v-1.2l.8.8c-.3.1-.5.2-.8.4zM794.8 1677.1l.8.8c-.6.2-.9 0-.8-.8zM911.6 1844.2h1.2l-.8.8c-.1-.3-.3-.6-.4-.8zM1098.6 1880.2h1.2l-.8.8c-.1-.3-.3-.6-.4-.8z"/><path d="M1332.7 1330l-1-1c-1.1-.6-.5-3-2.9-2.7.7 1.7 1.4 3.3 2.1 4.8-1.1 3.4 1.7 5.6 3 7.8 3.6 5.9 5.2 12.8 10 17.9 1 1 1.2 2.5.7 3.2-2.9 3.4-3.5 8.3-6.9 11.3-.7-.2-1 .1-.8.8-6 7.2-14.3 10.7-23.1 12.2-7.3 1.3-14.8 1.9-22.3-.7-8.1-2.9-15.9-6-22.2-12.2-1.5-1.5-3.7-1.5-6.3-.5-16.2 5.9-29.3-.4-41.4-11-4.1-3.6-8.7-6.6-12.2-10.7-6.7-7.8-13.7-15.3-17.9-25.2-4.2-10-10.7-19-13.3-29.8-.7-3-3.6-4.7-4.7-7.8-2.1-5.4-3.5-10.8-4.5-16.4-1.1-5.7-2.6-11.3-4.3-16.8-4.3-13.8-6.6-28-7.9-42.3-.9-9-2.4-18.1-2.6-27.1-.1-5.8-.2-11.6-.5-17.4-.8-12.3.2-24.4 1.3-36.6 1.6-17.4 1.5-35 5.9-52 4.7-17.8 4.5-36.4 9.4-54.2 3.2-11.6 2.7-24.1 4.6-36.1.9-5.6 2.2-11.3 3.6-17 1.6-6.5 1.5-13.6 1.7-20.4.4-11.2.5-22.5.6-33.7.1-12.3.5-24.7-.1-36.9-1-18.6-1.8-37.1-5.6-55.5-2.1-10.4-4.6-20.9-5.8-31.4-2.2-18.1-8.1-35.2-10.9-53.1-1-6.3-5.3-12-7.5-18.1-3.8-10.6-7.4-21.2-11.5-31.6-5.1-12.9-12.2-25-18-37.7-2.4-5.2-4.5-10.9-7.4-15.5-3.7-5.8-8.3-11.3-12.2-17.1-9.9-14.5-22.2-27.1-33-40.9-.9-1.1-1.7-2.4-2.6-3.5-1.1-1.5.2-2.1.9-2.8.6-.7 1.2-1.3 2.5-.8 5 1.9 9.7 4.4 13.7 7.8 4.2 3.7 7.9 7.8 11.1 12.5 2.9 4.2 6 8.5 9.7 12.3 10.5 10.7 17.6 23.8 24 37.2 4.1 8.6 9.2 16.5 13.7 24.8 6.3 11.6 10.1 24.1 14.9 36.3 5.2 13.2 8.9 26.7 13.1 40.1 4.2 13.3 8 26.7 9.8 40.5 1.8 14.3 6 28.2 7.6 42.4.7 6.2 2 12.4 2.1 18.7.1 6.5 1.4 12.8 1.8 19.3.4 8.2 2.1 16.5 1.6 24.7-.4 8.8-.7 17.6-1 26.4-.5 13.7-.3 27.5-1.1 41.2-1.1 17.4-2 34.8-5.6 52-2.5 12-4 24.1-6.8 36.1-2.4 10-1.5 20.8-4.6 30.7-4.7 15.5-4.1 31.5-6.5 47.2-1.6 10.4-1.6 21.1-1.4 31.7.3 11.4-.6 22.9.3 34.3.6 7.8.6 15.6 1.5 23.4 1.6 14.7 3.2 29.3 7.5 43.4 3.3 11 7.3 21.8 12 32.3 3.3 7.3 6.6 14.7 8.5 22.4.9 3.6 3.3 6.2 5 8.6 4.8 6.3 8 13.6 13.6 19.6 7.2 7.6 15.3 13.9 23.8 19.8 7.8 5.4 16.6 5.2 25.4 4.9 1.8 0 2.6-1.2 2.5-3-.1-1.5.5-2.7 2-3 1.5-.3 2.4.5 3 1.9 3.3 6.9 9.1 10.7 16.1 13 4.2 1.4 7.5 5 12.3 5.2 5 .2 9.8.8 14.2-2.3 5.5-4 12.2-6 16.8-11.5 1.8-2.1 3.2-3.1 1.3-6.3-6.4-10.6-13.1-21.1-16-33.6-1.5-6.4-1.9-12.8-2.6-19.3-.3-2.9 1.2-5.8 4.8-6.7 3.3-.9 4.8.7 6.5 3.3 4.9 7.6 9.7 15.4 16.5 21.7 2.9 2.7 5.8 6.4 9.5 6.2 7.4-.5 14.8-2.5 20.2-8.2 3-3.2 1.1-7.3.1-10.7-2.3-8.2-4.5-16.6-9.4-23.6-3-4.3-4.6-8.7-5.2-13.6-.3-2.6-1.4-6 2.6-6.8 6.1-1.2 8.5-6.1 11.1-10.6 7.4-12.8 13.2-26.5 15.7-41 2.2-12.3 3.7-25 1.6-37.7-1-6.1-.8-12.5-1.3-18.7-.5-6.6-3.4-12.7-5.1-19-1.8-6.9-4.8-13.1-8.5-19.2-1.4-2.2-3.4-3.7-4.7-6.1-3.3-5.9.6-9.9 3.1-12.8 4.2-4.7 6.5-10.4 10.2-15.4 8.3-11.2 13.7-24.2 20.9-36.2 5.2-8.7 8.4-18.6 12.2-28.1 4.3-10.8 8.5-21.7 12.4-32.7 2.5-7.2 3.2-14.8 4.7-22.2 2.1-10.7 4.6-21.4 6.6-32.2 1.7-9.4 2.5-18.9 4.3-28.3 1.9-10.1 2.7-20.4 3.4-30.7.6-9.4.3-18.9.7-28.3.3-7.1 1-14.1.9-21.2-.2-17.1-3.1-34.1-3.1-51.3 0-11.8-2.1-23.6-4.3-35.1-3.1-16.7-3.4-33.6-6.8-50.1-2.1-10.2-4.7-20.4-6.9-30.6-1.8-8.2-4.6-16-6.4-24.2-2.2-9.6-6.4-18.7-10.6-27.6-5.8-12.1-12-24.1-17.8-36.3-5.6-11.8-12.5-22.7-19.1-33.9-1.2-2.1-2.9-4.3-4.9-5.6-3.6-2.3-2.3-8.1-6.9-9.5-.2 0-.2-1.3.1-1.8 1.3-2.5 4.6-.9 6.4-3.2 1.1-1.4 1.7 1.1 2.1 1.7 3.3 5.2 7.4 9.9 10.9 14.9 3.1 4.5 5.8 9.4 9.3 13.7 4.7 5.7 7.4 12.7 11.4 18.9 7 11 12.3 22.8 16.8 34.9 4.9 13.2 10.1 26.3 14.4 39.7 2.5 7.6 4.1 15.5 5.9 23.4 2.1 9.4 5.1 18.6 6.8 28.1 1.1 6.4 2.5 12.7 3 19.2.8 9.5 2 19.1 4.1 28.4 1.8 8.2 2.1 16.5 2.6 24.8.7 11.2 2.5 22.3 2.9 33.4.2 5.8-.5 11.6.3 17.4 1.6 11.6 1.6 23.4.9 35.1-1 18.8-1.6 37.6-4.5 56.3-2.4 15.7-4.8 31.5-7.7 47.1-2.8 15.4-6.7 30.7-11.4 45.8-4.1 13.2-9.1 25.9-14.6 38.5-4.6 10.7-10 21.1-15.6 31.3-4.9 9-10.1 17.9-14.3 27.3-1.5 3.5-3.7 7.3-6.7 9.4-2.9 2-2.1 3.6-.8 4.9 4.8 5 6.3 11.4 8.4 17.7 2.9 8.5 7.4 16.4 8.2 25.5 1 11.3 4.2 22.3 2.4 34.1-1.6 10.7-3 21.6-4.9 32.3-2 11.3-7.8 21.2-12.3 31.6-4 9.2-7.7 18.4-15 25.7-1.6 1.6-.2 3.3.5 4.7 6.1 11 7.8 23.6 13.4 34.8 1.7 3.5-.2 6.5-1.9 8.1-5.1 4.7-9.4 10.3-14.7 14.8-5.2 4.4-18.5 5.4-24.8-1.5-2-2.2-5-3.6-6.8-6.3-.1-1.2-1.3-.6-2-.9zM867.9 386.9c15-5.9 26 2.7 37.5 9.4 2.8 1.7 6 2.5 7.9 5.8 2 3.4 1.8 9.4-1.1 11.9-5.4 4.9-8.7 11.3-12.6 17.3-6.2 9.4-11 19.7-14.6 30.2-3.3 9.5-7.6 18.8-8.6 29.1-.4 3.5 1.8 5.5 3 7.5 8.8 15 12.3 31.1 13.6 48.5 1 13-2 24.9-4.6 37-2.8 13.4-10 25.2-16.9 36.8-2.6 4.3-5.9 8.2-9.5 11.8-7.5 7.6-12.7 17.1-21 24.1-2.2 1.8-3.2 3.7-1.7 6.8.9 1.9.4 4.6.2 6.9-.5 9.3-1.5 18.5-3.1 27.6-1.1 6.6-.6 13.3-1.8 19.9-2.4 13.4-4.8 26.8-6.5 40.2-2 15.3-7.7 29.6-9.8 44.9-1.2 8.4-5.7 16.2-8.6 24.4-5 14-9.9 28-15.1 41.9-2.6 6.8-6.1 13.3-9 20-5.8 13.3-14.5 25-20.7 38-5.6 11.7-13.1 22.1-20 32.9-5.5 8.6-11.7 16.7-17.6 24.9-5.8 8.1-12.3 15.9-19.5 22.9-7.2 7-13.9 14.5-21.4 21.1-5.4 4.8-10.3 10.2-16.2 14.5-3.9 2.8-6.9 6.9-10.7 10-7 5.7-14.6 10.7-21.8 16.1-7.1 5.4-14.2 10.9-22.3 14.4-6.7 2.9-12.5 7.8-20 9-3.5.6-5.8 3.8-9.4 5.2-8.8 3.4-17.6 6.3-26.5 9.3-4.2 1.4-8.3 3.4-12.9 3.7-1.1.1-2.3.3-3.4.4-2.1.1-5.5-.2-5.2-2.1.5-2.7-.8-6.7 3.6-8 5.2-1.6 10.6-1.4 15.9-2.3 10.9-1.9 20.3-7.6 30.2-12 6.7-2.9 12.2-7.7 18.7-10.9 11.9-5.8 22.8-13.2 33.6-21.1 17.5-12.7 33.9-26.3 49.1-41.5 13.7-13.7 27.3-27.5 37.9-43.9 9.2-14.2 18.3-28.5 27.6-42.7 10.7-16.4 17.2-34.9 26.5-51.9 4.6-8.4 7.2-17.4 10.9-25.9 2.4-5.4 3.8-11.6 5.7-17.3 4.8-14.2 7.6-28.9 11.2-43.3 3.7-14.7 7.3-29.4 10-44.3 1.5-8.3 2.9-16.8 5.2-25 1.5-5.3 1.1-11.2.6-16.8-.3-3.3.8-6.1 1-9.2 1-10.8 1.2-21.5-1.1-32.3-1.6-7.7 3.4-12.9 8.5-17.1 14.3-11.6 28.1-23.7 37.2-39.9 4.9-8.7 7-18.6 9.2-28.3 1.7-7.3 2.3-14.9 2-22.4-1-20.4-4.9-40-16.3-57.5-3.2-5-1.5-10.4-.7-15.6 2-12.3 7.2-23.5 13-34.4 5.3-10 11.6-19.2 18-28.5 1.8-2.7 1.8-6.7 5.7-8.1.8-.3.6-2.4-.2-3.6-2.8-4.5-10.4-7-15.7-7.1-11.7-.3-21.4 5.2-31.7 9.2-3.1 1.2-5.7.3-7.9-1.4-2.4-2-1.9-5.3-.8-7.4 3.5-6.6 7.9-12.7 13.5-17.7 5.3-4.7 9.9-10.2 16.3-13.6 1-.5.9-1.5.7-2.1-2.4-5.9-4.4-12.1-11.6-14.2-4.4-1.3-8.2-4-12.9-4.9-3.5-.7-6.1-.3-9.2 1.1-3.9 1.8-8.3 2.6-12.2 4.3-2.6 1.1-5.3 2.1-7.1 4.9-1.9 2.9-8.9 1.9-11.3-.9-5.6-6.5-16.9-13.6-25.3-8.9-8 4.4-16.5 8.5-23.2 15.1-2.9 2.9-6.6 4.9-9.5 7.8-8.6 8.3-15.9 17.6-22.1 27.9-5.2 8.7-10.6 17.2-15.1 26.3-3.7 7.4-6.8 15.1-10.4 22.6-8.5 17.8-13.5 36.9-20.4 55.4-3.4 9-4.3 18.8-6.6 28.2-4.1 16.4-8.2 32.9-14.4 48.8-2.8 7.1-3.2 15.1-5.6 22.5-4 12-8.3 23.8-14.1 35.1-6 11.5-11.3 23.4-16.9 35.1-5.2 11-10.4 22-17.3 32.1-5.2 7.7-9.1 16.3-13.8 24.3-5.4 9.3-11.6 18-19.2 25.8-5.7 5.8-11.1 11.9-16.3 18.2-5.2 6.3-10.7 12.5-15.9 18.8-9 10.9-20.1 19.7-31 28.4-5.7 4.6-12.5 8.3-18 13.1-9.4 8.3-20 14.3-30.9 20.2-5.4 3-11 5.7-16.7 8.3-12.3 5.7-25.1 10.2-37.8 15.1-16.8 6.4-34.4 9.2-51.8 13.1-5.9 1.3-11.8 3.5-17.7 4.2-9.2 1-18.5.7-27.8.6-11.9-.2-23.4-3-35-5-2.4-.4-3.4-3-2.8-5 .4-1.4 2.4-2.1 4.5-1.7 16.2 3.1 32.3 3 48.7 1.4 9.8-1 19.5-2.6 29.2-3.8 8.4-1 16.6-3.7 24.6-6.5 5.1-1.8 10.2-3.8 15.4-5.2 15.3-4.2 29.3-11.7 44.1-17.4 17.9-6.8 33-18.3 48.9-28.5 13.1-8.4 24-19.1 35.2-29.4 4.3-4 9.8-7.2 12.7-12.2 7.1-12 17.9-20.7 26.4-31.5 8.6-10.8 17.3-21.5 24.4-33.3 6.5-10.8 12.8-21.7 18-33.2 2.6-5.7 5.3-11.6 8.8-17 2.7-4.1 3.6-9.7 6-14.4 3-5.8 6.7-11.3 9.1-17.3 6.1-15 11.5-30.2 17.1-45.3 6.1-16.6 9.5-33.9 16.2-50.3 4-9.8 4.8-20.9 8.4-31.1 2.3-6.7 4-13.5 6.1-20.2 2.1-6.4 3.1-13 5.4-19.4 5.8-16.1 11.8-32 20-47 6.5-11.9 14.9-22.6 21.5-34.4 4.3-7.8 10.5-14 16.6-19.8 6.1-5.8 12.3-11.7 18.8-17.3 10.5-9 22.9-12.3 36.3-13 6.2-.3 11.2 2.8 15.8 6.3 3.7 2.9 6.5 3.5 10.3.3 16.5-13.9 43.4-11.4 57.4 4.3 4.2 4.7 7.8 10.2 7.4 16.8-.3 4.9-3.8 9.7-7.5 11.9-5 2.4-8.2 7.8-13.4 11.4zM423.6 227c-4.6 3.5-8.8 6.2-13.7 7-12.1 2-23.9 5.1-35.5 9-14.2 4.9-27 12.6-39.7 20.2-8.9 5.3-17.6 10.9-25.7 17.5-7.8 6.4-15.9 12.6-24.5 18.1-3.6 2.3-6.3 5.9-9.3 9.1-14 15.3-27.7 30.9-38.4 48.6-7.9 13-15.1 26.5-18.4 41.6-1.1 4.8-3.2 9.4-5.4 13.8-3 6-3.9 12.6-5.2 18.9-3.6 17.5-6.3 35.1-6.2 53 0 1.9.3 3.9.7 5.8.5 2.6 1.5 5.8-1.9 8.3-1.8 1.3-.6 4.4.4 6.6.9 2.1 2.1 4.1-1 5.7-3.6 1.8-3.2-1.8-4.1-3.1-2.5-3.5-1.3-7.9-1.8-11.9-.6-4.6-.9-9.6-1.7-14.1-1.4-8.6 0-16.9.5-25.2.5-8.2 1.2-16.5 3.7-24.5 4.9-15.6 7.8-31.6 14.3-46.8 3.9-9.1 8.2-17.7 14-25.7 1.8-2.4 2.2-5.6 4.2-8.1 9.8-12.8 18.5-26.3 29.7-38 8.8-9.2 17.7-18.4 26.7-27.4 12.2-12.1 26.8-20.9 41.4-29.8 8.8-5.4 18.3-9.3 27.2-14.4 7.1-4.1 14.9-7.1 23-9.7 10.6-3.4 21.6-5.1 32.3-7.8 5-.8 9.1 1.3 14.4 3.3zM399.7 487.7c-1.2-7 1.8-13 8.4-17.3 3.9-2.6 8-.8 11.9-.1 8.5 1.5 13.8 8.2 18.1 14.3 5.6 8.1 11.6 16.5 14.6 26.1 2.8 8.9 6.1 18 3 27.5-4.1 12.3-16.9 15.3-26.7 8.1-17.5-12.8-25.1-30.6-29.1-50.7-.6-2.3-.2-4.7-.2-7.9zm12-1.4h-.3c.6 4 1.4 8 1.9 12 1.1 8.4 5.9 15.1 9.6 22.4 3.3 6.6 7.3 12.3 15.1 14.1 1.8.4 3.7 2.5 5.4.8 1.6-1.6 1.6-4 1.1-6.4-1.4-5.9-3.2-11.5-5.6-17.1-5.1-11.8-10.9-22.9-21.9-30.4-1.2-.8-2.2-2.2-3.8-1.4-1.6.8-1.4 2.5-1.4 4-.1.7-.1 1.3-.1 2z"/><path fill="#B5D5D6" d="M781.6 274.8c1.5 5-2 5.5-5.2 5.3-7.3-.6-13.5 3-20 5.1-16 5-30.4 13.2-44.4 22.2-6.1 3.9-11 9.1-16.3 13.7-7.6 6.5-16.1 12.3-21.9 20.7-9.1 13.2-17.4 27-20.8 43-.7 3.2-.3 6.6-.1 10 .1 3-.8 5.3-3.8 6.1-2.6.8-4.3 1.9-5.3 4.7-.8 2-2.6 1.8-3.4-.5-.9-2.4-.9-5-.1-7.4 3.3-10.1 5.2-20.7 9.8-30.5 2.4-5.2 4.8-10.5 8.1-15.2 4.5-6.5 6.8-14.4 12.8-19.8 9.5-8.6 16.6-19.5 27-27.3 6.2-4.7 12.5-9.4 19.3-13 9.8-5.2 19.7-10.6 30-15 5.2-2.2 10.8-3.2 15.9-5.8 4.9-2.5 10.1-2.1 15.1-1.8 2.7.2 5.4 1.5 3.3 5.5z"/><path d="M798.6 1568.1h-2.8c-.1-.3-.3-.5-.4-.8l-.8.8c-3-1-2.5-3.4-1.8-5.4 1-2.9 4.2-2.3 6.1-2.3 12 0 24 .7 36 .2 8.9-.4 18 0 27-.5 10.7-.6 21.5-1.7 32.2-2.5 9.6-.7 19.4-1 29-1.7 16.4-1.3 32.9.3 49.2-2.6 6.8-1.2 13.9-.8 20.8-1.4 1.9-.2 3.9-.4 4.1 1.6.1 1.5-.6 3.3-2.3 4.8-5.3 4.8-11.8 4.1-17.9 4.8-17.7 2-35.4 2.6-53.2 3.4-8.9.4-17.8.6-26.7.6-6.5-.1-12.8 1.3-19.2 1.1-.1-.3-.3-.5-.4-.8l-.8.8c-7.6-1.9-15.4-1.1-23.1-.6-2.6.2-4.9-.6-7.4-.5-12.6.6-25.1.8-37.7 1.1-2.8.1-5.7 0-8.5 0-.1-.3-.3-.5-.4-.8-.5.2-.8.4-1 .7zM578.9 491.8c-.1 9.5.6 18.5-2.6 26.4-2.8 7-3.6 15.3-11.1 20.3-3.9 2.6-4.9-.5-6.9-1.5-2.4-1.3-2.3-3.9-1-6.1 5.7-9.3 7.6-19.7 9.4-30.1 1.1-6.2-1.1-12.1-2.7-17.7-3.7-13.2-11.4-24.2-21.4-33.8-6.3-6.1-12.8-11.8-20.9-15.3-1.8-.8-3.9-2.1-2.8-4.4 1-2.2 2.9-2.7 5.7-2.2 17.1 3 27.8 15.2 38.5 26.9 7.4 8 12.1 17.9 15.1 28.6 1 3.4-.6 6.8.7 8.9zM417.1 676.2c-13.6-.2-25.6-2.4-37-7.1-3.9-1.6-6.4-6.5-5.2-10.4 1-3 4.4-4.7 6.9-2.9 8.3 5.6 17.8 6.3 27.2 7.3 4 .5 8.1.8 12.1 1 7.8.5 15-2.3 22.2-4.4 3.8-1.1 7.1-3 11.4-2.8 3.5.2 6.8-2.5 10.7-2.2 2.7.3 2.8.4 2.4 3.2-.3 2.4-1.8 3.7-3.3 4.7-11.5 7.1-23.8 12-37.5 12.5-3.8.2-7.4 1.8-9.9 1.1zM588.3 422.2c-8.2.2-12-6-16.5-10.7-7.5-8-9.6-18.3-11.1-28.7-.7-5 3.5-9.7 7.8-11.9 5.8-2.9 7.7.2 10.7 4 7.7 9.8 13.1 20.7 17.9 32.1 2.6 6.3-2 16.4-8.8 15.2zm-4-9.1c.9-9.5-6.3-23.7-12.7-25.7 2.8 9 4.7 18.2 12.7 25.7z"/><path fill="#B5D5D6" d="M652.6 294.7c0-5.7 4.2-9.2 7.3-13.1 12.6-15.9 29-26.4 47.8-33.9 8-3.2 16.1-2.9 24.1-4.5 3.7-.7 3.5 3.1 4.1 5.1.7 2.3-1.5 2.9-3.5 2.8-10.1-.6-18.6 3.8-27 8.5-5.5 3.1-11.1 5.8-16.8 8.5-12.1 5.7-20.1 15.7-27.5 26.2-.6.8-1.1 1.7-1.6 2.5-1.1 1.8-2.1 4-4.9 3.1-2.6-.9-1.7-3.3-2-5.2z"/><path fill="#FEFEFE" d="M1330.8 1331.1c-.7-1.6-1.3-3.1-2.1-4.8 2.5-.3 1.8 2.1 2.9 2.7-.2.7-.5 1.4-.8 2.1zM1332.7 1330c.6.3 1.9-.3 1.8 1.1-.8 0-1.5-.2-1.8-1.1zM1336.8 1372.1c-.2-.7.1-1 .8-.8-.2.3-.5.6-.8.8zM794.6 1568.1l.8-.8c.1.3.3.5.4.8h-1.2zM798.6 1568.1l.8-.8c.1.3.3.5.4.8h-1.2zM876.6 1568.1l.8-.8c.1.3.3.5.4.8h-1.2zM411.7 486.3v-2c-.1-1.5-.2-3.1 1.4-4 1.6-.8 2.6.5 3.8 1.4 11 7.5 16.8 18.6 21.9 30.4 2.4 5.6 4.2 11.2 5.6 17.1.6 2.4.5 4.8-1.1 6.4-1.7 1.7-3.6-.4-5.4-.8-7.8-1.8-11.8-7.5-15.1-14.1-3.6-7.3-8.5-14-9.6-22.4-.5-4-1.2-8-1.9-12h.4zM584.3 413.1c-8-7.5-9.8-16.7-12.7-25.7 6.3 2.1 13.6 16.2 12.7 25.7z"/></svg>