<svg xmlns="http://www.w3.org/2000/svg" viewBox="0 0 3170.9 1989.1"><path fill="#090C08" d="M2048.1 1690c-4.9-10.5-12.6-19.3-18.2-29.5-9.1-16.4-15-33.8-20.3-51.6-3.8-12.7-7-25.5-8.5-38.7-.4-3.3-2-5.2-5.9-6.7-26.9-10.4-53.7-21-80.1-32.3-20.7-8.9-39.5-21.6-59.8-31.5-18.4-9-36.7-18.4-54.2-29.2-9-5.5-17.7-11.6-26.5-17.3-12.1-7.9-23.7-16.5-36.6-23.2-3.5-1.8-6.7-4.3-9.7-6.9-15.7-13.7-33.9-24.3-49.1-38.6-15.4-14.6-31.1-29-45.3-44.8-5.8-6.4-12.9-11.3-18.9-17.6-25.7-27.3-48.6-56.9-71.9-86.2-8.3-10.5-14.2-22.4-21.1-33.7-9.9-16.5-19.9-33.1-28-50.5-13-28.2-25.6-56.6-35-86.5-4.7-15.1-9.3-30.3-14.4-45.2-5.8-16.9-9.1-34.6-12.3-52.2-5.5-29.7-8.6-59.7-8.9-89.9-.3-20.8 1.5-41.6.5-62.3-.8-17.3 2.4-34.3 1.9-51.6-.3-11.4 2.5-23 4.5-34.5 3.4-20.2 7.2-40.4 11.7-60.5 5.7-24.9 12.6-49.4 20.3-73.8 10-31.6 23.1-61.9 37.6-91.6 8-16.4 16.9-32.4 25.5-48.4 9.9-18.4 21.3-35.8 31.2-54.2 4.5-8.4 10.9-15.9 16.6-23.6 19.6-26.5 42.2-50.4 64.9-74.1 17.7-18.5 37-35.2 57.9-50 4.2-3 7.5-6.4 9.5-11.1 8.3-19.7 18.6-38.3 32.1-54.8 20-24.4 40-49 66.6-66.6 15.2-10 29.9-20.9 46-29.6 19.3-10.6 39.8-18.3 60.8-24.5 19.4-5.8 39.5-8.3 59.7-8.6 5.3-.1 9.8-1.8 14.2-4.1 23.1-12.1 48-18.8 73.1-25 24-5.9 48.2-10.7 72.5-15.1 12.9-2.3 26.1-2.6 39.2-3.9 16.2-1.6 32.4-2.9 48.5-4.9 7.3-.9 14.4 0 21.6-.5 22.8-1.6 45.6-3 68.6-1.2 8.1.6 16.4 1.2 24.7.7 14.3-.8 28.4 1.8 42.5 3.4 11.5 1.3 23.2 2.4 34.8 2.3 13.8-.1 26.9 3.4 40.3 5.6 12.7 2 25.4 4.1 38.1 5.7 13.5 1.7 26.5 5.3 39.8 7.9 13.9 2.7 27.7 6.3 41.5 10 16.3 4.3 32.4 9.4 48.7 13.6 20 5.1 38.6 14 58 20.6 13.4 4.6 26.8 9.4 39.1 16.3 19.6 11 40.2 20 59.5 31.6 20.7 12.5 41.3 25.4 60.6 39.8 16.4 12.2 33 24.2 48.6 37.6 28.7 24.6 55.5 51.2 81.5 78.7 20.1 21.2 37.5 44.3 54.6 67.9 13.2 18.2 25.7 36.9 37.7 55.9 6.3 10.1 11.7 20.8 17.2 31.4 8.1 15.6 16 31.2 23.7 46.9 7.6 15.5 16 30.7 22 46.7 6.5 17.2 14.3 33.9 17.2 52.5 1.8 11.6 8.3 22.2 11.2 33.8 4.8 19.3 10.2 38.4 12.4 58.2 2.7 25 5.2 50 6.9 75.1 1.2 17.2.7 34.6 1.5 51.9.7 16.2-.2 32.3-2.2 48.4-1 8.2-.4 16.6-.5 24.9-.4 19.3-4.5 38.1-7.5 57.1-3.1 19.6-5.8 39.2-10.4 58.5-8.5 35.7-17.8 71.2-29.2 106.2-7.6 23.3-16.1 46.2-27 68.2-8.7 17.5-17.9 34.7-28.8 50.9-3.9 5.8-5.7 12.6-9.5 18.6-13.9 22.1-28.2 44.1-44.6 64.3-20 24.6-40.9 48.6-62.4 72.1-14.8 16.2-31.4 30.4-46.7 46-9.2 9.3-20.4 16.8-30.9 24.9-17.2 13.1-34.2 26.4-51.9 38.7-19.8 13.7-40.6 25.9-61.3 38.1-38 22.4-78.1 40.7-117.4 60.7-25.6 13-52.4 23.3-80 31.6-8.6 2.6-17 5.5-26 6.3-3.4.3-4.5 1.8-4.8 5-.9 8.5-2.8 17-3.2 25.6-1.3 26.6-3.8 53.2-1.8 79.8 2 26.8 2 53.6 4.7 80.4 3.5 34.4 10.2 68.1 18.4 101.6 1.4 5.8 3.8 11.3 6.6 16.6 1.5 2.7 2.4 5.5 1.6 8.6-.4 1.5-.5 3.4-2.9 3.3-9.7-.7-17.5 5.2-26.3 7.8-21 6.1-42.1 11.2-63.4 15.8-27.3 5.9-54.7 10.2-82.4 12.5-20.4 1.7-40.9 4.2-61.6 1.4-12.1-1.6-24.6-.6-36.9-1.3-25.5-1.3-51-2.5-76-7.9-23.2-5.1-46.5-9.8-69.6-15.4-10.1-2.5-18.9-7.7-28.6-11-11.3-3.8-20.7-11.3-30.7-17.5-3.1-1.9-4-4.2-1.8-7.4 2.2-3.3 3.9-6.9 4.1-11.2-14-4-28.2-4.9-42.2-7.1-39.1-6-77.1-15.8-113.6-31.3-22.2-9.5-34.4-25.8-38.5-49.2-2.3-13.3-1.6-26.3-.2-39.6 1.4-14.6 4.7-28.8 8.1-42.9 4-16.6 12.1-30.8 26.7-40.6 14.9-10 29.6-20.5 47.3-25.1 9.9-2.6 19.6-2.5 29 3.3 16 9.9 33 17.9 50.6 24.9.7.6 1.5 1.5 2.3.5.8-1.6.1-2.4-1-2.6zm896-1418c-1-1.3-1.7-2.8-2.9-4-15.5-15.4-30.3-31.4-48-44.6-16.7-12.4-31.2-27.8-48.8-39-22-13.9-39.2-34.7-64.4-43.8-.9-.3-1.7-1.1-2.5-1.7-26.3-19.4-55.4-33.5-85.4-46.3-29.3-12.5-60-20.6-89.9-31.2-24.7-8.7-50.4-13.8-75.6-20.7-17.5-4.8-35.3-9.2-53.2-11.9-22.9-3.5-45.9-6.4-68.9-8.6-26.7-2.6-53.3-6.2-80.3-6-10.3.1-20.5.5-30.8.1-22.1-.8-44.2 0-66.1 1.5-22.4 1.6-44.9 2.7-67.2 5.9-24.9 3.6-49.5 8.5-74.2 12.7-12.9 2.2-25.7 5.5-38.5 9.2-19.9 5.7-39.4 11.9-56.7 23.6-2.3 1.6-4.5 1.5-7.1 1.9-11.9 1.4-24-.6-35.8 1.4-28.2 4.6-55.8 11-80.9 25.7-12.6 7.4-26.1 13.1-38.3 21.2-22.2 14.7-42.7 31.1-59.7 52-13.4 16.5-28.1 31.7-38.2 50.8-9 16.9-18.6 33.5-24.2 52-1.2 3-2.2 6.1-3.6 9.1-1 2-2.4 4.6-5 3.8-3.1-1-1.6-3.7-1.1-5.8.5-2.2 1.4-4.3 2-6.5 1.9-3.1 3.9-6.2 2.7-10.5-5.1 2.4-9.4 5.7-13.1 9.9-15.9 14-31.5 28.3-47.7 42-17.1 14.4-29.6 32.8-43.7 49.8-10.8 13-19.8 27.6-29.8 41.3-21.1 28.8-38.3 60-53.5 92.2-12 25.5-24.9 50.5-33.6 77.6-6.7 20.8-14.5 41.5-20 62.6-7.4 28.5-15.2 57-18.6 86.5-2.8 24.4-7.3 48.5-8.3 73.2-1.4 33.9-2.8 67.9-.7 101.8 1.6 25.7 4 51.6 10.6 76.9 1.4 5.4 3 10.9 4.3 16.4 8.3 35.2 18.2 70 31.6 103.7 2.5 6.2 4.2 12.6 7 18.6 6.9 14.7 15.2 28.8 20.2 44.3.7 2.2 1.6 4.4 2.9 6.3 13.2 20.7 23.8 43.1 39.6 62.2 14.8 17.9 27.6 37.4 43 54.9 9.8 11.2 19.6 22.5 29.6 33.6 8.2 9.1 18 16.7 24.9 27 .5.8 1.4 1.5 2.1 2.1 20.8 16.4 39.3 35.4 60.3 51.7 18.2 14 37.3 26.6 55.7 40.2 32.5 24 69.3 40.7 104.7 59.6 23.1 12.4 46.9 23.3 71 33.9 20.9 9.2 41.2 19.7 64.3 22.5 4.5.5 5.4 3.9 6 7.9 1.9 13.1 3.8 26.2 7.1 39.1 8.1 31.5 22.2 60.4 39.2 87.9 1 1.7 2.4 3.3 3 5.1 2.2 6.1-.4 9.6-6.9 9.6-6.1 0-11.6-2.4-17.2-4.7-14.2-5.8-27.5-13.5-41.1-20.4-5-2.5-10-3.6-15.4-2.5-5.5 1.1-11.1 2.3-16.4 3.9-13.9 4.1-26.9 10.1-36.8 21-14.1 15.5-23.8 33.2-27.3 54.4-3 18.1-5.7 36.1-2.7 54.3 1.2 7.3.6 15.2 5.8 21.7 15.1 18.8 36.4 27.8 58.2 34.8 18.2 5.9 36.7 11 55.9 14.1 22.4 3.6 44.8 5.7 67.4 5.4 10.2-.1 12 .8 9.8 12.1-.2 1-.6 1.9-.9 2.8-5.1 16.2-2.6 13.4 9.4 21.5.3.2.6.3.9.4 30.3 14.1 62 23.6 94.9 28.9 14.7 2.4 29.6 4.3 44.4 5.6 12.2 1 24.3 3.5 36.6 3.9 24.2.6 48.4 1.9 72.7.7 11.6-.6 23.4.2 34.9-.9 18.1-1.8 36.1-5.1 54.3-7 33.6-3.6 65.8-12.3 97.2-24.4 7.7-3 7.8-3.5 5.4-11.9-2.3-7.6-5.9-14.8-7.3-22.8-2.1-12.1-4.7-24.1-7.5-36.1-8.2-35.7-12.6-71.9-15.9-108.3-2.1-23.2-.6-46.6-1.1-69.8-.4-18.1 1.8-36.5 4.3-54.6.8-5.6 1.5-11.2 3.5-16.5 1.7-4.4 4.4-7.3 9.4-7.6 5.4-.3 10.4-2.2 15.3-4.2 24-9.6 49-16.5 72.9-26.6 11.3-4.8 23.4-7.8 34.4-13 27-12.7 53.6-26.3 80.4-39.6 3-1.5 5.8-3.3 8.4-5.3 8.2-6.4 16.9-11.7 26-16.6 13.2-7 26.6-14.1 38.5-23 14.9-11.1 30.5-21.2 44.4-33.7 4.4-4 8.9-8.1 13.7-11.6 19.6-14.3 37.1-31.2 56-46.3 17.3-13.7 31.2-30.9 46.1-46.9 19.2-20.7 35.5-43.9 52.2-66.6 8.5-11.5 15.7-23.7 22.9-36.1 11.8-20.3 25.4-39.4 34.8-61.3 7.2-16.7 15.3-33.2 23.1-49.7 10.1-21.3 16.1-44.2 24.3-66.3 6.4-17.2 9.8-35.1 13.6-53 7.1-33.7 15.5-67.1 19-101.6 2.3-22.8 3-45.6 4.7-68.4 2.4-33.5-.1-67.1-1.5-100.7-.2-3.6-.5-7.3-.8-10.9-.8-11-3.8-21.6-4.6-32.5-.6-9.7-2.3-19.1-4-28.6-3.7-20.6-8.2-41-15.3-60.7-6.8-19-10.9-38.9-18.7-57.7-13.8-33.1-28.2-65.9-45.7-97.2-9.7-17.4-20.6-34.1-30.5-51.3-13.8-24.2-31.2-45.6-48.4-67.1-11.4-14.2-23.4-28-35.3-41.8-2.7-3.6-4.7-8.7-9.9-10.4z"/><path fill="#111" d="M1189.8 1343.3c-2.2 23.5 1.5 46.9.3 70.3-.8 16.8 0 33.7-1.6 50.6-1.3 13.8 1.7 27.6.8 41.5-.6 10.1-1 20.4-.4 30.3 1 17.6-.1 35.2.9 52.7.8 13.5.5 27.1 1.5 40.7 1.1 15-.6 30.3-1.1 45.4-.5 12.6.1 25.2.9 37.8.8 13.1 1.1 26.3.7 39.5-.8 25.5-1.1 51-2.4 76.5-1.2 22.6-1.1 45.1-.8 67.7.2 16.8-.7 33.6-.2 50.5.2 8.6 2.4 17.1 1.4 25.8-.4 3.1 1.4 4 4.2 3.9 2.3-.1 4.7 0 7 0 15.6 0 31.2-.2 46.8 1.3 13.9 1.4 27.9 0 41.8-.4 1.3 0 2.8-.9 3.8-.5 2.1.9 4.1 2.4 4.4 5 .3 2-1.4 2.8-2.7 3.8-3.7 2.7-7.9 3.1-12.3 3-11.3-.1-22.7-.6-34 .1-18.6 1.2-37-.1-55.4-2.1-10.1-1.1-13.1-4.6-12.1-14.7.5-5 1-10.1.2-15-2.2-13.5-1.5-27.2-1.7-40.7-.3-20.2-.2-40.4.7-60.5.8-17.1.3-34.1.5-51.2.1-9 .2-18.3.5-27.4.5-13.1-.6-26.5-2.1-39.7-2.2-18.9-1.4-37.9-.4-56.8.4-7.6.9-15.2.1-22.8-.5-5.2-.4-9.7 1.6-15.1 2.5-6.6 1.6-14.9.7-22.3-1.8-14.8-.8-29.7-1.3-44.5-.5-13.6.3-27.2.1-40.8-.1-7.8-2-15.5-2.2-23.5-.4-16.6 1.2-33.1 2.9-49.5 1.9-17.8 1.3-35.7 1.3-53.5 0-60.5-.7-120.9-.4-181.4.1-21.2-.5-42.5-.6-63.7-.1-17.5-2.4-35-.8-52.4 1.8-18.7 1.4-37.5 1.5-56.2 0-23.6.7-47.2.9-70.8 0-3-1-4.5-3.8-4.3-11.5 1.2-22.9-1.8-34.6-.4-10.9 1.3-22.2.8-33.2 0-24.1-1.7-48.2-.4-72.3-1.6-11.6-.6-23.1-2-34.7-1.4-2.1.1-5.2.7-5.3-2.6-.1-2.6 2.1-4.1 4.7-4.1 10.4-.2 20.9-1.8 31.3-.5 7.2.9 14.4.1 21.7-.4 10.5-.7 21.1-.4 31.6-.4 19.2 0 38.4-.6 57.6.5 10.7.6 21.1-.9 31.6-1 4.9-.1 6.7-1.9 6.3-6.5-.9-9.5-.5-19-.9-28.5-.7-18.5-1.8-37.2.9-55.7v-1c-.7-21.1 1.5-42.3 1.4-63.3-.2-43.9-1.6-87.8-1.1-131.8.2-12.9-.8-25.9 1.7-38.7.7-3.4-1.2-6.5-1.2-9.8-.1-10.3-.8-20.7.2-30.9.9-8.9.1-17.7-.1-26.5-.5-30.9-1.1-61.9.1-92.8.9-23.8.5-47.5 1-71.3.5-21.6.8-43.2.6-64.9-.2-21.2-.2-42.4.5-63.6.2-5.1 1.4-6.1 6.5-5.3 1 .2 1.9.7 2.9.6 17.3-.4 34.4 3 51.7 1.8 11.3-.8 22.5 1.9 33.8.1 2.2-.3 3.9.8 4.3 3.2.5 2.2-.4 3.7-2.3 5-2.8 1.9-6 1.2-8.7.8-13.9-1.8-27.6-.8-41.5.6-10.6 1.1-21.3.5-32 .2-5.2-.2-7.4 1.5-7 6.8.8 10.2-1.7 20.5 1.2 30.8.8 2.7 0 5.9-.3 8.9-1.2 9.8-1.3 19.7.4 29.4 1.1 6.8-1.8 13-1.5 19.8 1.3 28.1.6 56.3-.7 84.4-1.9 40.2-1.2 80.3-.6 120.5.4 22.8-.1 45.5-.9 68.3-.9 25.5-.8 51-1 76.5-.2 20.1.6 40.4.8 60.6.2 26.6.3 53.1-1.2 79.7-1.2 21.2 0 42.5-.1 63.8-.1 18.7 1 37.4 1.3 56.1.2 10.2-1.1 20.5-1.3 30.8-.7 32.6-.6 65.2 0 97.7.6 36.4 1.4 72.9.2 109.3-1.1 33.5 1 67-.7 100.5-.4 3-.3 6.4-.3 9.7z"/><path fill="#E9191E" d="M574.2 1250.1c-3.7-.2-5.5-1.3-5-6.1 2.7-25.1 6.9-50 15-74 3.3-9.7 6.9-19.5 14-27.3 5-5.6 7.4-5.1 10 2.2 4 11.2 8.9 22.1 11 34.1.5 3.1-.2 8.5 5.5 9.5 1.3.2 1.8 2 .8 3.3-2.5 3.3-.7 6.4.2 9.5 3.8 12.7 7.8 25.3 11.7 38 1.1 3.5-.9 5.9-4.4 5.1-4.2-.9-6.7-3.9-8.8-7.6-4.7-8.2-5.7-17.6-8.1-26.5-2.1-8.2-1.8-8.3-10.4-8.4-18.8-.2-19-.2-22.9 18.1-1.8 8.4-3.4 17-3.2 25.6.3 4.2-1.4 5.3-5.4 4.5zm35.6-62.4c-1.3-11-5.3-20.5-10.7-30.8-4.6 10.6-5.9 20.7-8.8 31.2 6.8.3 13 .6 19.5-.4zM216 1210.5c-.2 9.7-4.5 24-16.2 35.2-8.1 7.7-18 8.7-27.2 2.3-11.6-8.1-20.4-18.2-23.6-33-5.8-26.6-1.5-51.1 12.3-74.3 3.2-5.4 13.8-10.1 19.7-8.9.9.2 2.1.4 2.6 1.1 8.7 10.6 21.8 17.9 25.1 32.5 3.1 12.9 6.8 25.6 7.3 45.1zm-41.1-68.5c-1.6 2.2-3.5 4.2-4.7 6.4-9.4 16.8-14.8 34.7-13.7 54.1.8 13.6 5.2 25.9 16.4 34.9 8.3 6.7 20.5 5.1 25.6-4.2 7-12.8 9.2-26.7 8.3-41.1-.8-13.4-7.2-24.7-14.6-35.3-4.5-6.2-9.4-12.2-17.3-14.8z"/><path fill="#E91C21" d="M64.1 1203.1c-.3-21.1 6-38.2 17-53.8 1.1-1.6 2.3-3.3 3.8-4.5 7.8-6.6 11-6.1 18.7.8 12.3 10.8 18.5 24.8 22.1 40.2 2.9 12.6 5.8 25.2 4.6 38.3-1.2 12.8-3.4 25-15.7 32.6-13.1 8.1-28.5 5.4-36.7-6.7-9.9-15-14.7-30.9-13.8-46.9zm29.6-54.6c-3.7 5.2-7.5 9.1-9.9 14.4-8.7 19.1-12.4 38.8-9.7 59.8 1.4 10.9 7 18.6 15.7 24 13.8 8.6 26.7 3.9 29.7-11.3 6.3-32.7 1.9-62.7-25.8-86.9z"/><path fill="#E91A1F" d="M913.7 1173.1c.1 19.4-1.6 38.1-15.6 53.8-10.9 12.3-29.6 13.5-40.6-2.4-9.9-14.4-14.2-30.7-11.5-47.3 3.4-20.5 15-36.5 34.7-45.4 3.6-1.6 6.9-1.4 10.5 0 12.7 4.6 21.8 17.2 22.3 31.3.3 3.4.2 6.7.2 10zm-9.2 9.3c.1-12.6-3-24.4-9.3-35.1-4.6-7.7-10.7-9-17.3-3.4-23 19.4-31.6 52-9.9 78.8 5.1 6.3 10.7 7.6 17.5 3.2 8-5.2 14.1-12.1 16.3-21.8 1.6-7.1 2.4-14.4 2.7-21.7z"/><path fill="#E91C21" d="M758.6 1237.9c-1.6-3.9-2.4-7.1-2.3-10.4.6-23-4-45.7-3-68.7.2-4 .1-8 .3-11.9.1-2.3.4-4.8 2.7-6.1 1.7-.9 3.4-2.2 5.5-1.5 2.4.9 2 3 2 5-.3 11.9 1 23.9-.8 35.8-.1.4.7 1 1.6 2.2 9-8.2 18-16.3 26.9-24.5 7.8-7.2 15.3-14.8 23.3-21.7 3-2.6 7.7-7.5 11-3.3 3.8 4.9-3.1 6.2-6 8.7-8.6 7.3-16.1 15.7-23.7 24-.9 1-1.4 2.3-2.3 3.2-6.4 6.4-6.2 6.3-2.3 14.4 7.4 15.2 18.2 28.5 24.6 44.3.8 1.9 1.8 3.6 3.7 4.6 3.2 1.7 3 4.2 1 6.6-2.3 2.7-4.7 1.4-7-.3-3.1-2.3-4.4-5.8-5.9-9.1-7.9-16.8-17.9-32.4-28-50-8 10.1-19.3 16.5-15.8 31.5 1.7 7-1.3 14.5.8 21.8.6 2.3 0 2.5-6.3 5.4z"/><path fill="#E91A1F" d="M689.7 1235.7c6 .8 12 1.1 17.9-.1 11.6-2.3 16.2-13.6 9.7-23.6-2.4-3.6-5.5-6.5-9.3-8.7-8.9-5.4-18.5-8.8-28.7-10.7-12.1-2.3-19.3-10.6-19-22.9.5-22.4 16.3-36.1 36.7-39 7.5-1.1 21 8.5 24 15.7.9 2-.1 3.2-1.3 4.3-1.1 1-2.4 1.1-3.6.1-2-1.8-3.9-3.7-6-5.3-8.4-6.6-19.4-5.8-26.8 1.8-5.2 5.4-8.8 11.6-10.5 18.9-1.9 8.2 1.7 15.2 9.7 18.2 5.6 2.1 11.3 3.9 17.1 5.2 12.5 3 21.2 10.4 26.7 21.8 3.3 6.9 2.9 14.3 1 21.4-1.1 4.2-4 7.6-8.2 9.5-15.4 6.9-30.7 7.1-46.1.2-1.7-.8-2.7-1.9-2.5-3.8.2-2.8 2.3-3 4.3-3h14.9z"/><path fill="#30CA25" d="M737.5 665.4c-3.3 3.4-7.1 4.5-11.7 4.3-6-.2-11.9.2-17.7 2.1-5.1 1.7-8 4.5-8.9 10.4-1.4 8.3-.5 16.6-.8 24.8-.1 2.9 1.2 3.8 4.3 3.6 9-.5 17.9-.5 26.9-.8 2.4-.1 5.1.1 5.3 3 .1 2.2-2.4 2.8-4.4 3.4-5.1 1.6-10.3 2.4-15.6 1.9-3.6-.3-7.3-.2-11-.1-3.4.1-6.1 1.8-6 5.4.5 10.9-3.6 21.6-.5 32.6 1.8 6.5 2 7.3 8.4 6.7 10.5-1 21-2.3 31.5-3.8 2.1-.3 3.8-.9 5.2 1.2 1.4 2.1.4 3.8-1 5.3-1.4 1.4-2.7 3.3-4.5 3.9-13.4 4.2-27 5.2-40.6 1.1-7.7-2.3-10.8-9-10.8-16.3.1-20.5-1.7-41.2 1.6-61.6 1.2-7.2 0-14.6 2.1-21.8.9-3.1 1.7-5.8 5.1-6.6 10.4-2.2 20.6-5.5 31.4-4 4.4.5 8.9.9 11.7 5.3z"/><path fill="#32CB26" d="M144.2 726c-.5-15.6 1.9-30.2 8.9-43.8 3.6-7 8.5-12.7 17.4-12.5 7 .1 11.1 5.5 14 10 10.5 15.7 19.6 32.2 19.8 52.1.1 9.7-.4 19.2-2.2 28.7-2.1 11.4-8.1 19.2-20.2 21.6-9.7 2-16.3-2.2-22.6-8.6-7.3-7.4-11.1-16.2-13.3-26.2-1.6-7.2-1.8-14.4-1.8-21.3zm50.1 12.2c.5-19.3-4.6-34.8-14.4-48.8-10.4-14.9-11.2-15.3-20.2 1.5-11.5 21.5-10 44.3-2.8 66.8 1.7 5.2 5.4 9.9 10 13.5 8 6.2 17.2 4.1 21.3-5.1 4.2-9.5 7.2-19.4 6.1-27.9zM799.2 657.7c12.8-.5 21.2 5.5 28.1 14.2 1.2 1.5 3 3.1.7 5.1-1.7 1.4-3.6 1.5-5.6.5-1.6-.8-2.1-2.4-3.1-3.7-7.1-8.8-18.1-11.6-28.6-7.7-4.6 1.7-6.5 5.5-8.2 9.5-5.8 13.8-3.4 25.9 11.2 30.6 7.1 2.3 13.5 7 19.9 11 4.6 2.9 7.6 7.7 9.5 12.6 6.1 15.2 4 29.8-4.3 43.7-2.7 4.6-7.9 5.8-12.1 5.7-9.1 0-18.6-.3-26.7-5.9-2.9-2-7.4-4.3-4.9-8.4 2.6-4.1 6.4-1.1 9.5.9.3.2.6.4.9.5 11.4 6.2 17.6 6.4 23.7.6 8.8-8.3 11.9-22.3 6.9-31.9-3.6-6.9-8.6-12.2-16.3-15.1-9.9-3.8-19.5-8.3-25-18.4-5.3-9.7-3.9-27.7 2.9-36 4.6-5.3 11.6-7.9 21.5-7.8z"/><path fill="#E9191E" d="M452 1192.8c9.9-3.7 19.8-2.9 28.8-6.6.9-.4 2-.5 2.9-.5 4 .3 10.1-1.9 11 3.7.7 4.5-4.3 6.8-8.8 7.6-8.8 1.6-17.5 3.5-26.4 4.7-7.9 1.1-8.2.9-7.8 8.7.6 12.2.3 24.6 3.1 36.6.2 1 .7 1.9.7 2.9 0 2.1-.8 4.3-2.7 4.9-1.9.6-3.8-.7-5.3-2-1.9-1.7-1.8-4.2-2-6.5-1.8-18.8-4.2-37.5-5.1-56.3-.7-14.2.6-28.5 1.3-42.8.2-4.8 3.2-7.5 8.1-8.6 14.4-3.1 28.9-3.5 43.5-3 1.7.1 3.3.4 4.6 1.5 2 1.7 2.3 3.4-.3 4.4-2.1.8-4.2 1.7-6.7 1.3-11.8-2-22.8 3.4-34.4 3.8-2.9.1-4.8 1.8-4.9 5.2-.2 3.6-1.7 7.4-1.1 10.8 1.7 9.6.7 19.2 1.5 30.2z"/><path fill="#30CA25" d="M615.8 719.2c-1.8 14 4.9 25.1 13.2 35.2 7.2 8.8 13.3 9.8 23.8 5.4 5.3-2.2 10.6-3.9 16.3-3.9 1.5 0 2.6.8 2.8 2.2.1.8-.4 2.2-1 2.6-8.5 5.2-15.8 11.9-27.8 10.1-17.5-2.6-29.3-10.2-34.9-27.6-8-24.9-5.3-48.5 7.5-70.9 7.5-13.1 20.7-14.4 31.5-3.6 2.8 2.8 5.3 6 7.7 9.1 1.2 1.5.6 3.1-.8 4.4-1.7 1.6-3 .5-4.2-.7-1.1-1.2-2-2.6-3.1-3.9-7.6-8.5-17.6-7-22.7 3.9-5.6 11.9-9.2 24.3-8.3 37.7z"/><path fill="#32CB26" d="M430.2 748.4c.9-10.2-4.5-17.6-14.9-22-8-3.3-15.3-8-21.9-13.5-16.4-13.7-15.6-36.5 1.7-48.6 10.1-7.1 26.9-4.1 33.9 6.2 1.6 2.4 2.5 5.4.1 7.2-2.7 2.1-5-.4-6.6-2.5-5.9-7.6-13-7.8-21.2-4.4-6.6 2.8-9.6 8-10.7 14.5-1.8 11 4.9 22 15.7 25.6 10.8 3.5 19 10.8 26.9 18.2 8.2 7.7 8.2 18.9 6.9 29.1-2.8 21.4-30.9 32.4-47.9 19.4-1.4-1.1-2.5-2.2-2.2-4.1.4-2.6 2.4-2.7 4.4-3 3.8-.5 7.2 1.1 10.8 1.8 17.6 3 26.2-4.6 25-23.9zM116.5 724.2c-5.4.9-9.9 3.9-15.4 3.5-12.3-.9-19.9-7.8-25.1-18.3-4.3-8.6-.6-31.1 10.9-38.9 3.3-2.2 6.9-2.9 10.4-2.5 17.4 1.7 30.7 13.9 30.5 31.7-.3 27.6-10.2 51.6-26 73.6-2.1 3-4.2 6-6.5 8.9-1.4 1.8-2.9 3.8-5.4 4.2-1.3.2-2.8.3-3.7-.9-.9-1.2-.8-2.7.3-3.6 5.5-4.1 7.3-10.9 11.9-15.8 4.4-4.7 8-10.4 9.6-17.1 1.7-6.8 7.2-11.9 8.5-19 .5-1.7 1.3-3.1 0-5.8zm2.8-19.5c1.4-6.2-1.9-11.2-3.5-16.5-2.8-8.8-6.4-11.4-15.8-12.3-7.5-.8-10.7 4.4-13.7 9.5-2.6 4.3-3.5 9.4-3.8 14.3-.6 9 6.2 16.8 15.3 17.9 5 .6 9.9-.2 14.6-2 4.9-1.9 9.2-4.4 6.9-10.9zM453.5 709.6c-.2-7.5-.2-17.1 2.5-26.5.4-1.3.1-2.8.8-3.8 1-1.7 2.7-3 4.9-2.3 1.7.6 2.7 2.1 2.4 3.9-.6 4.3-1.9 8.5-2 12.7-.5 20.4 1.8 40.3 10.1 59.2.8 1.8 1.9 3.5 3.2 5 6 7 15.2 6.4 20-1.5 4.8-7.9 6.5-16.9 6.5-25.8 0-14.8 2.9-29.7-.9-44.4-1.1-4.3 1.6-6.7 4.9-7.2 3.9-.6 4.3 2.7 4.6 6 1.5 17.2 2.2 34.3-.1 51.5-1.6 11.6-6.9 21.4-13.8 30.4-6 7.9-11.4 8.7-19.5 2.8-14.7-10.5-22.2-25.1-23.4-43-.4-4.8-.2-9.8-.2-17z"/><path fill="#E91A1F" d="M282.8 1257.4c.8-3.4 1.6-6.9 3.3-10.2 10.4-19.6 20.2-39.5 31-58.8 6.1-11 13.5-21.2 20.5-31.6 4.8-7.1 10.1-13.7 14.8-20.8 2.3-3.5 5.4-5.7 8.7-7.9 1-.7 2.8-.1 3.6 1 .4.6.3 2.1-.2 2.7-14.2 16.5-21.9 36.9-33.4 55.1-14.3 22.6-28.9 45.2-36.8 71.2-.7 2.2-1.6 4.3-2.5 6.5-.8 2-2.2 3.4-4.5 3.1-2.3-.3-3.1-2.1-3.4-4.3-.2-2-.7-3.9-1.1-6z"/><path fill="#30CA25" d="M542 725.4c0 9.6 3.1 18.3 7.3 26.6 4.3 8.5 9.1 10.7 18.5 9.8 3.9-.4 7.7-1.9 11.8-1.5 3 .3 6.5.3 7.3 3.7.7 3.1-2.4 4.4-4.6 5.7-9.1 5.6-24.5 4-32.3-4.1-12.6-13-17.4-28.7-17-47 .3-13.9 4.3-25.9 11.3-37.4 3.1-5 7.5-8.3 12.5-11 7-3.8 16.1-.2 20.9 4.5 2.4 2.4 2.4 4.8.2 6.9-2.1 2.2-3.3-.3-4.8-1.4-6.6-5-10.6-4.8-15.9 2.2-9.5 12.6-15.1 26.8-15.2 43z"/><path fill="#E91C21" d="M21.3 1153.1c-7.1 3.8-10 9.5-14.4 13.3-1.7 1.5-3.1 2.6-5 1-2.1-1.8-2.7-4.1-.5-6.1 7-6.3 12.6-13.5 16.7-22.1 1-2.1 3.2-3.2 5.9-2.1 3 1.2 5.3 3 5.3 6.4-.7 31.2 4.8 62.1 2.7 93.3-.3 4.2.5 8.6 1.3 12.8.4 2.4.6 4.6-.5 6.8-.7 1.5-1.4 3.3-3.4 2.9-1.6-.3-3.1-1.2-3.8-2.9-1.3-3.2-1.3-6.5-1.3-9.8 0-20.9.4-41.9-.9-62.8-.8-9.7-1.4-19.5-2.1-30.7z"/><path fill="#090C08" d="M1240.9 10.4c-11.6 0-23.3-.2-34.9.1-8.4.2-9.5 1.7-9.7 10.3-.1 9.3 0 18.7 0 28 0 2.3-.1 4.7-.4 7-.3 1.8-1.8 2.8-3.6 2.8-2.1 0-2.7-1.5-2.7-3.3 0-14.3-.2-28.5.2-42.8.3-8.8 4.3-11.9 13.5-12.4 10.3-.5 20.5 1 30.8 1.2 11.3.2 22.6-.5 33.9-1.1 3.3-.2 6.6.3 9.9 1 3.4.8 4.2 2.6 3.8 5.7-.3 3-2.2 3.7-4.8 3.7h-36v-.2z"/><path fill="#E91C21" d="M522.2 1209.4c-.6-15 1.3-34.1 2.4-53.2.1-2.6.8-5.2.9-7.9.2-3.6 2.1-5.8 5.5-5.7 4.1.1 5.4 3.2 5.4 6.9-.2 6.6.1 13.3-.6 19.8-1.7 15.4-1.3 30.8-1.6 46.1-.1 7.9-1.3 15.8 1 23.7.3 1.1-.3 2.6-.8 3.8-1.5 3.5-2.3 8.8-7.1 8.2-4.7-.6-4.8-5.8-4.9-9.7-.3-9.2-.2-18.5-.2-32z"/><path fill="#32CB26" d="M243.8 783.9c-4.5.1-6.2-3.3-4.2-7.7 3.4-7.2 6.9-14.3 10.4-21.5.9-1.8 2.2-3.5 2.6-5.4 2.2-10.3 7.7-18.9 13.3-27.5 11.3-17.5 19.9-36.7 33.3-53 2.4-3 3.9-7.2 8.8-7.2 1.3 0 2.7.1 3.5 1.4.8 1.4.2 2.4-.9 3.4-14.6 14.1-23.1 32.1-32.1 49.9-7.3 14.5-15.2 28.7-23 42.8-3.7 6.7-6.1 14-8.5 21.2-.8 2.3-1.1 3.7-3.2 3.6z"/><path fill="#E91C21" d="M267.9 1161.5c2.1-7.5 2.5-15.8 8.7-21.7 6.4-6.2 11.4-5.6 16.9 1.3 2.1 2.6 4.5 4.8 6.1 7.8 6.1 12 4.3 25-4.8 35-3.6 4-11.1 4.9-15.3 1.1-6.8-6.1-10.9-13.9-11.6-23.5zm18.8-15.8c-5.8 5.5-8.7 12-10.1 19.2-.8 4.3 4.3 10.7 8.8 12 3.7 1 6.4-1.5 8.9-7.2 4.5-10.3-1-16.9-7.6-24z"/><path fill="#111" d="M485.9 981.6c-12.1 1.4-25.3 2.4-38.6 2.4-10.2 0-20.3-3.5-30.5-.3-1.8.6-4.1.1-4.9-2.3-.7-2.5 0-4.3 2.4-5.8 4.2-2.8 9.1-2.2 13.6-2.4 19-.6 38-.6 57.1-.9 3.7-.1 7.2.1 10.5 2.2 2.2 1.4 3.4 3.2 2.5 5.8-.8 2.5-3.1 2-5 1.9-2 0-4-.3-7.1-.6z"/><path fill="#32CB26" d="M280.1 757.3c.5-8.7 2.5-17 7.4-24.4 4.8-7.4 10.6-7.9 16.6-1.3 7.2 7.8 10.2 16.7 7 27.3-1.2 3.8-1.7 7.8-3.2 11.4-2.1 5-5.2 10.3-11.4 9.3-6.1-1-12.1-3.8-14.3-10.6-1.2-3.7-2.7-7.5-2.1-11.7zm15.7-21.5c-1.9 5.4-4 10.6-5.6 15.9-1 3.5-.9 7.3.1 10.8 1.8 6.6 4.6 7.3 9.6 3.1 8.2-6.9 9.2-20.5-4.1-29.8zM267.7 693.6c.5 4.1-.7 8.2-2.1 12.3-2.2 6-5.8 10.4-12.3 11.6-4.4.8-14.3-5.8-16.8-10.7-5.6-11.1-1.5-29.4 8.3-37.1 6.4-5 16.5-2.4 19.5 5.3 2.1 5.9 3.9 11.9 3.4 18.6zm-6.1-1.6c-1.2-4.1-2-8.7-3.9-12.9-2-4.5-5.7-4.7-9.3-.8-4 4.3-5.6 9.7-6.1 15.3-.6 6.9 3.7 14.2 7.9 14.4 4 .2 8.4-5 10.1-11.9.4-1.2.9-2.5 1.3-4.1z"/><path fill="#111" d="M461.9 945.8c-9.2.9-20.8.1-32.4 1.8-5.1.8-10.6 1.1-15.8-.7-1.8-.6-4.1-.5-4.1-3.4.1-2.7 1.7-4.2 4.1-5 .9-.3 2-.3 3-.4 19.7-1.6 39.4-2.9 59.2-.8 3.6.4 7.3.1 11 .3 2.6.1 5.3.3 7.9.9 2.1.4 3.6 1.9 3.4 4.2-.2 2.6-2.2 3-4.3 3-9.9.1-19.8.1-32 .1z"/><path fill="#E91A1F" d="M362 1233.9c.7 9.9-4.3 17.8-10.4 24.9-5.2 6.1-9.1 5.4-14-.9-11-13.9-8.1-27.5.7-41.2 5.3-8.2 14-7.2 19 1.4 2.8 4.7 5.7 9.6 4.7 15.8zm-23.7 6.5c-.1 2.4.3 4.6 1.4 6.7 3 5.9 6.2 6.3 10.4 1.2 2.3-2.8 4-6.1 5-9.7 1-3.8-3.4-16.4-5.9-17.2-2.8-.9-8 5.7-10 12.2-.6 2.2-1 4.5-.9 6.8z"/><path fill="#0C0C0C" d="M1195.6 181.5c-2.8 13.8-.6 27.6.2 41.4.1 1.7.6 3.4.2 4.9-.7 2.4-1.5 5.7-4.8 5.5-2.8-.1-3.3-3-3.4-5.4-.6-15.2-3.5-30.4-1.7-45.7.1-.7.1-1.3.1-2 .1-3.2.8-6.9 4.5-6.4 3.2.6 5.7 3.6 4.9 7.7z"/><path fill="#111" d="M1188.2 115.5c1-7.6-1-16.8 1.3-26 .6-2.5 1.2-4.7 4.2-4.4 2.5.3 2.6 2.8 2.6 4.7.2 17.1.2 34.2.3 51.3 0 2 .1 4.2-2.5 4.6-2.3.4-3.5-1.5-4.6-3.1-1.4-2.1-1.3-4.4-1.3-6.7v-20.4z"/><path fill="#F1F2F1" d="M1215.3 816.2c-.4.4-.7 1.2-1.2 1.2-1.2.1-1.8-.7-1.5-1.8.1-.4 1.1-.8 1.6-.7.5 0 .8.8 1.1 1.3z"/><path fill="#23C717" d="M1698.6 272.7c-.7 2.2-1.5 4.3-2 6.5-.5 2.1-2.1 4.9 1.1 5.8 2.6.8 4-1.8 5-3.8 1.4-2.9 2.4-6 3.6-9.1 41.7.1 83.3.2 125 .2 24.7 0 49.3-.2 74-.3.2.3.4.5.6.8 2.9 6.3 7.4 12.3 14 12.5 7.4.2 11.4-6.6 14.3-13.2 2.7 0 5.3.1 8 .1h992c3.3 0 6.7-.3 10-.4 5.2 1.7 7.2 6.8 10.3 10.4 11.9 13.8 23.9 27.6 35.3 41.8 17.3 21.5 34.7 42.9 48.4 67.1 9.8 17.3 20.8 34 30.5 51.3 17.5 31.3 31.9 64.1 45.7 97.2 7.8 18.8 11.9 38.7 18.7 57.7 7.1 19.8 11.7 40.1 15.3 60.7 1.7 9.5 3.3 18.9 4 28.6.7 10.9 3.8 21.5 4.6 32.5.3 3.6.6 7.3.8 10.9 1.4 33.5 4 67.2 1.5 100.7-1.7 22.8-2.3 45.6-4.7 68.4-3.5 34.5-11.9 67.9-19 101.6-3.8 17.9-7.2 35.8-13.6 53-8.2 22.1-14.2 44.9-24.3 66.3-7.8 16.5-15.9 33-23.1 49.7-9.4 21.8-23.1 40.9-34.8 61.3-7.2 12.4-14.4 24.6-22.9 36.1-16.8 22.7-33 45.8-52.2 66.6-14.9 16.1-28.8 33.2-46.1 46.9-19 15.1-36.4 31.9-56 46.3-4.8 3.5-9.2 7.6-13.7 11.6-13.8 12.5-29.5 22.6-44.4 33.7-11.9 8.9-25.3 15.9-38.5 23-9.2 4.9-17.9 10.2-26 16.6-2.6 2-5.5 3.9-8.4 5.3-26.7 13.3-53.4 26.8-80.4 39.6-11.1 5.2-23.1 8.2-34.4 13-23.9 10.1-48.9 16.9-72.9 26.6-4.9 2-10 3.8-15.3 4.2-5 .3-7.8 3.1-9.4 7.6-2 5.3-2.7 10.9-3.5 16.5-2.6 18.1-4.7 36.4-4.3 54.6.5 23.3-1 46.6 1.1 69.8 3.3 36.4 7.6 72.6 15.9 108.3 2.8 12 5.4 24 7.5 36.1 1.4 8 5.1 15.1 7.3 22.8 2.5 8.4 2.3 8.9-5.4 11.9-31.4 12.1-63.6 20.9-97.2 24.4-18.1 1.9-36.1 5.2-54.3 7-11.6 1.1-23.3.3-34.9.9-24.2 1.2-48.5-.1-72.7-.7-12.2-.3-24.3-2.8-36.6-3.9-14.9-1.2-29.7-3.2-44.4-5.6-32.9-5.3-64.6-14.8-94.9-28.9-.3-.1-.6-.2-.9-.4-12-8.1-14.5-5.3-9.4-21.5.3-1 .7-1.9.9-2.8 2.2-11.4.4-12.2-9.8-12.1-22.6.3-45-1.8-67.4-5.4-19.1-3.1-37.7-8.2-55.9-14.1-21.8-7-43.1-16-58.2-34.8-5.2-6.5-4.6-14.3-5.8-21.7-3.1-18.3-.3-36.2 2.7-54.3 3.5-21.2 13.2-38.9 27.3-54.4 9.9-10.9 22.9-16.9 36.8-21 5.4-1.6 10.9-2.7 16.4-3.9 5.4-1.1 10.4 0 15.4 2.5 13.6 6.9 26.9 14.7 41.1 20.4 5.6 2.3 11 4.7 17.2 4.7 6.5 0 9.1-3.5 6.9-9.6-.7-1.8-2-3.4-3-5.1-17-27.6-31.1-56.4-39.2-87.9-3.3-12.9-5.3-26-7.1-39.1-.6-4-1.5-7.3-6-7.9-23.1-2.8-43.4-13.3-64.3-22.5-24-10.5-47.8-21.5-71-33.9-35.4-18.9-72.2-35.7-104.7-59.6-18.4-13.6-37.6-26.2-55.7-40.2-21-16.2-39.5-35.3-60.3-51.7-.8-.6-1.6-1.3-2.1-2.1-6.8-10.3-16.6-17.9-24.9-27-10-11.1-19.7-22.4-29.6-33.6-15.4-17.5-28.2-37-43-54.9-15.8-19.1-26.4-41.4-39.6-62.2-1.2-1.9-2.2-4.1-2.9-6.3-5-15.6-13.3-29.6-20.2-44.3-2.8-6-4.6-12.5-7-18.6-13.4-33.7-23.3-68.4-31.6-103.7-1.3-5.5-2.9-10.9-4.3-16.4-6.6-25.2-9-51.1-10.6-76.9-2.1-33.8-.7-67.8.7-101.8 1-24.7 5.5-48.8 8.3-73.2 3.4-29.5 11.2-58 18.6-86.5 5.5-21.1 13.3-41.8 20-62.6 8.7-27.1 21.6-52.1 33.6-77.6 15.1-32.2 32.4-63.3 53.5-92.2 10-13.7 19-28.2 29.8-41.3 14.1-17 26.6-35.4 43.7-49.8 16.2-13.7 31.8-28 47.7-42 2.8.3 6.2.5 9.7.7zm950 1170.7c4.7 4.7 9.4 9.4 14.1 13.9 5.5 5.2 11.9 9.7 19.5 8.1 10.3-2.1 20.7-4.2 29.4-11.3 9.8-8 10.5-9.4 4.7-20.9-7-14-12.5-28.5-16.9-43.5-1.7-5.9-.3-10.1 2.6-14.7 16.5-26.3 23-55.5 25.6-86 1.6-19.5-1.4-38.5-7.2-57-2.9-9.2-1.3-15.9 4.8-23.5 18.7-23 32.9-48.9 47.1-74.8 11.4-20.8 19-43 27.3-65.1 8.8-23.6 15.5-47.8 19.4-72.6 2.7-17.3 5.6-34.6 7.1-52.2 2.4-27.7 6.4-55.2 7.2-83.1.5-18.6 1.2-37.1.2-55.7-.2-3.2-.9-6.3-.3-9.8 2.7-14.1 1.1-28.6-.5-42.4-2.7-23-5.2-46.1-8.7-69.1-3.7-24-9.1-47.5-15.2-70.9-1.8-7-4.5-13.9-7.3-20.7-2.6-6.2-6.1-11.9-14.2-12-1.7 0-3.3-.6-4.3 1.3s.2 3.3 1.3 4.4c3.3 3.4 5.6 7.2 7.5 11.6 7.7 17.8 12 36.4 16.2 55.2 4.7 21.4 8.9 43 11 64.7 3.7 38.5 3.9 77.3 3 116-.7 28.9-1.4 57.8-4.6 86.6-1.8 16.1-2.9 32.4-4.8 48.5-2.5 21.5-7.8 42.4-13.2 63.3-10.7 41.1-26.2 80.1-48.6 116.2-13.4 21.7-26.4 43.7-44.3 62.3-4.8 5-5 10.8-1.8 17.3 6.5 13.4 11.4 27.5 11.7 42.5.4 17.8-.6 35.4-4.3 53-3.3 15.9-9.2 30.3-18.4 43.6-1.5 2.2-2.7 4.7-5.3 5.8-6.1 2.3-5.4 6.6-3.5 11.4 2.9 7.4 6 14.8 8.5 22.3 3.5 10.5 9.4 19.8 13.3 30 2.9 7.5 2 9.9-5.2 13.5-3.3 1.6-6.8 2.6-10.2 3.9-8.4 3.1-15.1 1-21.5-5.2-8.6-8.4-16.2-17.5-23.1-27.2-2-2.8-4.3-4.1-7.5-3.6-3.8.5-4.1 3.9-5 6.7-.3.9-.2 2-.2 3 .2 24.7 1.4 49.1 17 70.1 3.1 4.2 2.2 6.4-3 7.8-13.7 3.6-27.2 7.7-41.9 7.3-10.8-.3-19.2-2.8-24-12.4-5.4-11-13.2-13.9-24.3-9.3-3.1 1.3-6.5 1.3-9.9.9-2.9-.4-6-.1-8.6-2-10.9-8.4-21.1-17.7-27.3-30-5.7-11.2-11.4-22.5-16.6-34-4.7-10.6-10.9-20.9-13.6-32-5.6-23.2-12.4-46.1-15.2-69.9-3-24.7-.8-49.2 2.6-73.5 2.4-16.9 6.4-33.8 10.1-50.6 5.3-24 13.2-47.2 17.9-71.4 3-15.2 7.9-29.9 11.1-45.2 5.2-24.7 6.8-49.9 11.6-74.7 2.1-10.8 1.3-21.9 2.4-32.8 2.2-20.7 4.7-41.4 5-62.3.5-33.2 1.1-66.3-1.7-99.5-.9-10.2-.7-20.9-2.9-30.7-3.6-15.8-2.5-32.3-8.3-47.9-3.7-9.8-4.1-20.7-8.4-30.6-4-9.1-7.9-18.3-11.3-27.6-4.2-11.3-10.1-21.5-17.7-31-4.4-5.5-8.8-6.8-15.8-4.5 5.5 6.6 10.3 12.9 14.3 19.6 10.9 18.1 17.1 38.1 23.9 57.9 11.8 34.3 13.5 70.3 15.7 106 1.3 21.9.3 44 1 65.9.7 22.3-1.6 44.4-3.1 66.6-1.1 15.5-4.1 31-4.8 46.5-1.1 21-5.5 41.5-9.1 61.9-5.7 32.5-14.2 64.6-22.8 96.5-7 26.3-9.9 53.4-17 79.7-2.4 8.8-.4 17.9-2 26.8-3.4 19.1-2.7 38.2-1.2 57.3.3 3.6.7 7.3 1.2 10.8 1.9 12.4 3 25.1 6.5 37.2 6.7 23.6 15.1 46.7 27.2 68.2 7.3 13 12.8 27.1 23 38.3 11.9 13.1 25.6 24.2 44.5 22.5 9.1-.8 15 1.6 19.8 8.7 1.8 2.7 4.6 4.8 7 7.1 1.4 1.4 2.9 2.7 5.1 2.7 12.3.1 24.5.9 36.8-1 8.9-1.4 17.3-4.7 26-6.7 10.4-2.4 13.7-10.3 8.2-19.4-2.4-4-4.9-7.8-6.5-12.3-4.3-12.3-7.2-24.8-8.4-37.7 1 0 1.5-.5 2.1-1.1zm-417 308.8c-.1 8.4-.9 9.3-6.3 7.6-3.1-.9-7.1-4-8.9-.4-2.3 4.9 3.6 5.3 6.4 6.9 21.2 12.4 42.6 24.7 61.9 40 1.8 1.5 3.5 3.2 5.9 3.6 2.5.5 4.7-.6 6.1-2.5 1.6-2.2-.5-3.6-1.7-5-3.2-3.8-7.6-6.3-10.2-10.9-11-19.3-22.9-38.2-30.8-59.1-9-23.7-15.2-48-15.7-73.5-.2-9.3-1.3-18.5 1.6-27.7 1.3-4.1-2.4-7.3-5.7-8.1-3.9-.9-4 3.2-4.7 6.1-2.5 9.7-2.9 19.8-2.8 29.6 0 10.8 1.3 21.9 4.2 32.5.7 2.7.9 5.2.3 7.8-1.4 5.5-1.3 11.2-1 16.9.4 12.5-1.2 25.2 1.4 36.2zM1889.7 379.3c-11.6-.9-26.6 5.3-41.3 12.3-5.1 2.4-9.8 5.5-14.6 8.5-1.9 1.2-3.8 2.7-5.2 4.5-1 1.2-1.3 3.1.1 4.5 1 1.1 2.4 1.3 3.7.8 2.2-.8 4.2-1.9 6.3-3 7.6-4.1 15.1-8.2 22.7-12.2 12.2-6.3 25.1-8.8 38.5-5.9 21.3 4.5 41 12.8 58 26.7 2.6 2.1 5.2 4.3 8.2 5.6 2.7 1.2 6 1.4 7.7-2.1 1.8-3.7.2-9.6-3.5-12.2-4-2.9-8.3-5.5-12.5-8.1-19.2-12.3-40.2-18.6-68.1-19.4z"/><path fill="#FEFEFE" d="M1905.2 272.2c-24.7.1-49.3.3-74 .3-41.7 0-83.3-.1-125-.2 5.6-18.5 15.2-35 24.2-52 10.1-19.1 24.8-34.3 38.2-50.8 17-20.9 37.5-37.4 59.7-52 12.2-8.1 25.7-13.8 38.3-21.2 25.1-14.8 52.7-21.1 80.9-25.7 11.9-1.9 23.9 0 35.8-1.4 2.6-.3 4.8-.3 7.1-1.9 17.3-11.7 36.8-17.8 56.7-23.6 12.7-3.7 25.5-7 38.5-9.2 24.7-4.2 49.3-9.1 74.2-12.7 22.4-3.2 44.8-4.3 67.2-5.9 22-1.6 44.1-2.3 66.1-1.5 10.3.4 20.5 0 30.8-.1 26.9-.2 53.5 3.4 80.3 6 23.1 2.2 46.1 5.1 68.9 8.6 17.9 2.7 35.7 7.1 53.2 11.9 25.2 6.9 51 12 75.6 20.7 29.9 10.6 60.6 18.7 89.9 31.2 30 12.8 59.1 26.8 85.4 46.3.8.6 1.6 1.3 2.5 1.7 25.2 9.1 42.5 29.9 64.4 43.8 17.6 11.2 32.1 26.6 48.8 39 17.7 13.2 32.5 29.2 48 44.6 1.2 1.1 1.9 2.7 2.9 4-3.3.1-6.7.4-10 .4h-992c-2.7 0-5.3-.1-8-.1 2.6-9.3 3.8-18.7 4.2-28.3.4-10.4-.9-20.5-5.7-29.9-2.5-4.9-6.7-8.4-12.1-9.3-4-.7-10.9 6-12.7 10.8-6.7 18.5-6.9 37.3-2.3 56.5zm55-81.8c.1.5.2 1.5.3 2.5 2.2 15.5 7.5 30 14.3 44 3.9 8.1 10.2 13.8 17.1 19.1 4.5 3.4 9.3 3.3 12.9.4 1.6-1.3 1.9-3.4.3-4.1-7.9-3.4-10.5-11.4-15.4-17.4-13.5-16.4-20.5-35-19-56.7.3-4.2 1.3-8.4 1-12.7-.1-1.7-.2-3.4-2.2-3.9-2.1-.6-2.8.8-3.6 2.4-3.9 8.2-4.4 17.1-5.7 26.4zm-174 42.1c-.4-5.3-.5-10.7-2.7-15.5-2-4.3-7.4-7.3-10.2-5.4-3.2 2.2-6.6 4.3-7.8 8.6-3.2 10.6-4.9 21.2-3.3 32.3.6 4 2.1 7.7 4.6 10.8 3.8 4.7 8.7 4.5 12.2-.5 6.2-9.3 7-19.7 7.2-30.3zm251.6-168.9c-2.1 1.1-7-1.9-7.5 3.2s4.3 5 7.8 5.6c1 .2 2 0 3 .1 11.3 2.2 22.9 1.6 34.1 5.2 10.7 3.4 21.7 5.7 32.1 10.1 2 .9 5 1.9 6.4-.4 2-3.4-1.8-4.2-3.6-6-1.2-1.2-2.8-1.6-4.4-2.1-4.1-1.2-8.3-2.3-12.3-3.8-17.8-6.3-36.2-9.7-55.6-11.9zm-290.7 153.3c3-.1 6.3-1.7 9.5-3.3 13.6-7.1 21-19.7 28.1-32.5 1.4-2.6.7-4.1-2-5.5-3.3-1.7-5.7-1.4-7.2 2.1-5 11.8-14 19.6-24.5 26.4-2.6 1.7-5.3 3.9-7.7 6.1-1.4 1.2-1.6 3-.9 4.6.9 1.4 1.9 2.7 4.7 2.1z"/><path fill="#F1F2F1" d="M1698.6 272.7c-3.5-.2-6.9-.4-10.4-.7 3.7-4.2 8-7.4 13.1-9.9 1.2 4.4-.8 7.5-2.7 10.6z"/><path fill="#F3FCF3" d="M2646.9 1445c1.2 12.9 4.1 25.4 8.4 37.7 1.6 4.5 4.1 8.3 6.5 12.3 5.5 9.1 2.2 17-8.2 19.4-8.7 2-17 5.3-26 6.7-12.3 1.9-24.5 1.1-36.8 1-2.2 0-3.7-1.3-5.1-2.7-2.4-2.3-5.1-4.4-7-7.1-4.9-7.2-10.7-9.6-19.8-8.7-19 1.7-32.6-9.4-44.5-22.5-10.2-11.2-15.7-25.3-23-38.3-12.1-21.5-20.5-44.6-27.2-68.2-3.4-12-4.6-24.7-6.5-37.2-.5-3.6-1-7.2-1.2-10.8-1.5-19.1-2.2-38.3 1.2-57.3 1.6-8.8-.4-17.9 2-26.8 7.1-26.3 9.9-53.4 17-79.7 8.5-31.9 17-64 22.8-96.5 3.6-20.4 8-40.9 9.1-61.9.8-15.5 3.8-31 4.8-46.5 1.5-22.2 3.8-44.3 3.1-66.6-.7-22 .3-44-1-65.9-2.2-35.7-3.9-71.7-15.7-106-6.8-19.7-12.9-39.8-23.9-57.9-4.1-6.7-8.9-13-14.3-19.6 7.1-2.3 11.4-1 15.8 4.5 7.5 9.5 13.5 19.6 17.7 31 3.4 9.3 7.3 18.5 11.3 27.6 4.3 9.8 4.8 20.8 8.4 30.6 5.8 15.6 4.8 32 8.3 47.9 2.2 9.8 2 20.4 2.9 30.7 2.8 33.1 2.2 66.3 1.7 99.5-.3 20.9-2.8 41.6-5 62.3-1.1 10.9-.4 22-2.4 32.8-4.7 24.7-6.4 49.9-11.6 74.7-3.2 15.3-8.2 30.1-11.1 45.2-4.7 24.2-12.6 47.4-17.9 71.4-3.7 16.8-7.7 33.7-10.1 50.6-3.4 24.2-5.5 48.7-2.6 73.5 2.8 23.9 9.6 46.8 15.2 69.9 2.7 11.1 8.9 21.4 13.6 32 5.1 11.5 10.9 22.8 16.6 34 6.2 12.2 16.4 21.6 27.3 30 2.6 2 5.6 1.7 8.6 2 3.4.4 6.8.4 9.9-.9 11.1-4.6 18.9-1.7 24.3 9.3 4.8 9.7 13.2 12.1 24 12.4 14.7.4 28.2-3.7 41.9-7.3 5.2-1.4 6.1-3.6 3-7.8-15.6-21-16.8-45.4-17-70.1 0-1-.1-2.1.2-3 .8-2.8 1.2-6.1 5-6.7 3.3-.5 5.5.8 7.5 3.6 6.9 9.7 14.5 18.9 23.1 27.2 6.4 6.2 13.1 8.4 21.5 5.2 3.4-1.3 7-2.3 10.2-3.9 7.2-3.6 8-6 5.2-13.5-3.9-10.2-9.9-19.5-13.3-30-2.5-7.6-5.5-14.9-8.5-22.3-1.9-4.8-2.6-9.1 3.5-11.4 2.6-1 3.8-3.6 5.3-5.8 9.2-13.3 15-27.7 18.4-43.6 3.7-17.6 4.7-35.2 4.3-53-.4-15-5.2-29.1-11.7-42.5-3.2-6.5-2.9-12.4 1.8-17.3 17.9-18.6 30.9-40.6 44.3-62.3 22.3-36.1 37.9-75.1 48.6-116.2 5.4-20.9 10.7-41.8 13.2-63.3 1.9-16.1 3-32.3 4.8-48.5 3.2-28.8 4-57.7 4.6-86.6.9-38.7.7-77.4-3-116-2.1-21.7-6.3-43.3-11-64.7-4.1-18.8-8.5-37.5-16.2-55.2-1.9-4.4-4.2-8.2-7.5-11.6-1.1-1.1-2.2-2.6-1.3-4.4 1-1.9 2.6-1.3 4.3-1.3 8.1.1 11.6 5.8 14.2 12 2.8 6.7 5.5 13.6 7.3 20.7 6 23.4 11.5 46.9 15.2 70.9 3.5 23 6 46 8.7 69.1 1.6 13.8 3.2 28.3.5 42.4-.7 3.4.1 6.5.3 9.8 1 18.6.3 37.1-.2 55.7-.8 27.9-4.9 55.4-7.2 83.1-1.5 17.5-4.3 34.9-7.1 52.2-3.9 24.8-10.6 49-19.4 72.6-8.2 22.1-15.8 44.3-27.3 65.1-14.2 25.9-28.4 51.8-47.1 74.8-6.1 7.5-7.7 14.2-4.8 23.5 5.8 18.5 8.8 37.5 7.2 57-2.6 30.4-9.1 59.7-25.6 86-2.9 4.6-4.3 8.9-2.6 14.7 4.3 15 9.8 29.6 16.9 43.5 5.8 11.5 5.1 13-4.7 20.9-8.7 7.1-19.2 9.1-29.4 11.3-7.6 1.6-14.1-2.9-19.5-8.1-4.8-4.6-9.4-9.3-14.1-13.9-.5-.4-1.3-1.2-1.5-1-1.4.2-1.2 1.2-.6 2.1z"/><path fill="#040A04" d="M2231.6 1752.2c-2.7-11-1-23.7-1.6-36.3-.3-5.6-.4-11.3 1-16.9.7-2.7.5-5.2-.3-7.8-2.8-10.6-4.1-21.7-4.2-32.5 0-9.8.4-19.9 2.8-29.6.7-2.9.8-7 4.7-6.1 3.3.8 7 4 5.7 8.1-2.9 9.2-1.8 18.4-1.6 27.7.5 25.5 6.6 49.8 15.7 73.5 8 20.9 19.8 39.8 30.8 59.1 2.6 4.5 7 7.1 10.2 10.9 1.2 1.4 3.4 2.8 1.7 5-1.4 1.9-3.6 3-6.1 2.5-2.4-.4-4-2.2-5.9-3.6-19.3-15.4-40.7-27.6-61.9-40-2.7-1.6-8.7-2-6.4-6.9 1.7-3.6 5.8-.6 8.9.4 5.6 1.8 6.5.9 6.5-7.5zm33.4 27c.7.5 1.6 1.3 2.2.4.7-.9-.1-1.5-1-1.7-8-14.4-14.5-29.6-21.3-44.6-.6 7.7-.4 15.1-.7 22.6-.3 9.7 4 15.7 13.1 18.9 2.7.9 5.1 2.9 7.7 4.4z"/><path fill="#F3FCF3" d="M1889.7 379.3c27.9.8 48.9 7.1 68.1 19.3 4.2 2.7 8.5 5.2 12.5 8.1 3.6 2.7 5.2 8.6 3.5 12.2-1.7 3.5-5 3.3-7.7 2.1-3-1.3-5.6-3.5-8.2-5.6-17-13.9-36.7-22.2-58-26.7-13.4-2.8-26.4-.4-38.5 5.9-7.6 4-15.1 8.2-22.7 12.2-2 1.1-4.1 2.2-6.3 3-1.2.5-2.7.3-3.7-.8-1.3-1.5-1.1-3.3-.1-4.5 1.5-1.7 3.3-3.3 5.2-4.5 4.8-3 9.6-6 14.6-8.5 14.7-6.9 29.6-13.1 41.3-12.2z"/><path fill="#0C0C0C" d="M1905.2 272.2c-4.6-19.1-4.4-38 2.7-56.6 1.8-4.8 8.7-11.5 12.7-10.8 5.4.9 9.6 4.4 12.1 9.3 4.8 9.4 6.1 19.5 5.7 29.9-.4 9.6-1.7 19-4.2 28.3-2.9 6.5-6.9 13.3-14.3 13.2-6.7-.2-11.1-6.2-14-12.5-.3-.3-.5-.6-.7-.8zm24.2-27.7c.5-8 .6-15.6-2.5-22.8-.8-1.8-1.1-4.2-3.5-4.4-2-.1-3.7 1.5-4.4 3.4-5.7 15.3-8.8 30.9-3.6 47.1.8 2.6 1.6 5.2 5 5.3 3.2.1 4.5-2.1 5.6-4.7 3.2-7.9 4.5-15.9 3.4-23.9zM1960.2 190.4c1.3-9.3 1.7-18.2 5.7-26.4.8-1.6 1.5-3 3.6-2.4 2 .6 2.1 2.2 2.2 3.9.3 4.3-.7 8.5-1 12.7-1.5 21.7 5.5 40.3 19 56.7 4.9 5.9 7.5 14 15.4 17.4 1.6.7 1.3 2.8-.3 4.1-3.5 2.9-8.4 3-12.9-.4-6.9-5.2-13.2-11-17.1-19.1-6.8-14.1-12.1-28.5-14.3-44-.1-1-.2-2-.3-2.5zM1786.2 232.5c-.2 10.6-1 21.1-7.3 30.2-3.4 5-8.4 5.2-12.2.5-2.5-3.1-4-6.8-4.6-10.8-1.6-11.1.1-21.7 3.3-32.3 1.3-4.2 4.6-6.4 7.8-8.6 2.7-1.8 8.2 1.2 10.2 5.4 2.3 4.9 2.4 10.3 2.8 15.6zm-11.2 18.6c3.3-7.8 3.9-15.9 1.2-24.2-3.5 7.8-3.9 15.8-1.2 24.2z"/><path fill="#111" d="M2037.8 63.6c19.3 2.2 37.7 5.6 55.5 12.1 4 1.5 8.2 2.6 12.3 3.8 1.6.5 3.2.8 4.4 2.1 1.7 1.7 5.6 2.6 3.6 6-1.4 2.3-4.4 1.2-6.4.4-10.4-4.4-21.4-6.7-32.1-10.1-11.2-3.6-22.8-3-34.1-5.2-1-.2-2 0-3-.1-3.5-.6-8.2-.5-7.8-5.6.6-5.3 5.5-2.3 7.6-3.4zM1747.1 216.9c-2.8.7-3.9-.7-4.6-2.2-.7-1.6-.4-3.3.9-4.6 2.4-2.2 5-4.4 7.7-6.1 10.4-6.8 19.5-14.6 24.5-26.4 1.5-3.5 3.9-3.9 7.2-2.1 2.7 1.4 3.4 3 2 5.5-7.1 12.8-14.5 25.4-28.1 32.5-3.2 1.7-6.6 3.2-9.6 3.4z"/><path fill="#23C717" d="M2646.9 1445c-.6-.9-.8-1.9.2-2.6.2-.1 1 .7 1.5 1-.6.6-1.1 1.1-1.7 1.6z"/><path fill="#F1F2F1" d="M1929.4 244.5c1.1 8-.3 16.1-3.5 23.8-1.1 2.6-2.4 4.8-5.6 4.7-3.4-.1-4.1-2.6-5-5.3-5.1-16.2-2-31.8 3.6-47.1.7-1.9 2.4-3.5 4.4-3.4 2.3.1 2.7 2.6 3.5 4.4 3.2 7.3 3.1 14.9 2.6 22.9zM1775 251.1c-2.6-8.4-2.3-16.4 1.2-24.2 2.6 8.3 2.1 16.4-1.2 24.2z"/></svg>