<svg viewBox="0 0 3465.4 2440.7" xmlns="http://www.w3.org/2000/svg"><path fill="#0E0B09" d="M1132.4 975.8c15.8 41.3 15.2 83.4 5.8 126.4 14.3 1.3 24.9 9.8 35.2 18.7 7.2 6.2 10.1 14.8 11.3 23.8 1.7 12.8-.7 25.2-6.9 36.6-13.9 25.8-35.6 43.4-61.5 55.6-13.7 6.4-27.6 12.8-42.9 15-14.2 2.1-28.3 3.4-42.3-1-11.1-3.5-20.7-8.9-24.1-22-16.3 9-32.2 17.7-48.1 26.4-5.8 3.2-11.7 6.4-17.7 9-21.6 9.2-41.4 22.4-64.3 28.8-20.4 5.7-40.3 13.3-61.3 16.6-25.1 3.9-50.1 8.3-75.5 10.1-18.6 1.3-37.2 1.5-55.7.9-15.9-.5-31.4-4.2-46.6-8.8-3.5-1-7-2.2-10.6-2.7-19.5-2.6-32.2-15.1-41.8-30.5-7.3-11.7-12.7-24.7-18.4-37.4-2.7-6-4.7-12.5-4.2-19.3.3-4.3-1.9-5.1-5.5-4.2-12.8 2.9-25.7 5.8-38.5 8.6-2.6.6-5.2 1.3-7.8 1.2-32.2-.7-64.4 3.4-96.6 1.5-20-1.1-39.9-3-59.5-8.9-34.4-10.4-67.5-23.8-99.6-39.7-13.2-6.5-25.6-15-36.9-25.1-9.1-8.1-19.7-14.6-28.5-23.2-16.2-15.7-31.6-32.1-44.2-50.9-10.2-15.2-18.7-31-25-48.4-5-13.9-8-27.8-10-42.2-2.1-15.4-.1-30.2 2.8-45.1 4.9-26 17.1-48.5 31.8-70.1 2.6-3.8 5.2-7.7 7.8-11.6 3.2-4.8 2.3-7-3.6-7.9-3.6-.6-7.3-.4-11-.3-4.4.2-8-.7-9.3-5.4-.8-2.9-3.1-4.3-5.4-5.5-12.6-6.7-24.2-14.9-36-23-13.3-9.2-24.2-20.4-33.1-34-7.4-11.4-16-22-22.1-34.3-13.8-27.8-23.5-57-28.8-87.5-5.4-30-4.9-60 1.1-89.9 6.6-33 21.4-61.8 41.9-88.1C59 472.2 72.4 457.5 88 445c12.6-10.1 25.9-19.3 40.3-27.2 22-12 45.2-20.8 68.5-29.2 16.2-5.8 33.4-8.4 50.3-11.3 5.7-1 11.3.1 16.8.1.3-.9.8-1.6.6-2-15.4-26.5-15.8-54.9-10.6-84 4.7-26.5 15-50.6 31.1-72.4 7.3-9.9 14.1-20.1 21.8-29.7 14.4-18 32.5-31.9 50.7-45.9 14.5-11.2 30.5-19.9 46.6-28.2 17.3-8.9 34.9-17.3 53.3-24 13.7-5 27.4-9.8 41.2-14.1 8.5-2.6 17.6-3.2 26.2-5.6 18.8-5.3 38.3-6.8 57.1-11.9 1.6-.4 3.3-.3 5-.3 25.2-.6 50.3-3.6 75.6-1.7 13.6 1 27.3.5 40.7 2.3 16 2.1 32.1 3.3 47.9 7.1 5.8 1.4 11.8 1.5 17.7 2.3 11.3 1.4 22 4.1 32.3 8.8 2.6 1.2 5.7 1.5 8.6 2.2C840 87.9 869 98.6 897 112.4c26.9 13.2 53.1 27.6 74.7 48.4 15.7 15.1 31.9 30 44 48.5 4 6.1 8.7 11.8 13.5 17.3 14.3 16.1 24.1 34.8 32.8 54.2 2.9 6.6 2.8 6.4 9.9 5 21.4-4 42.9-3.9 64.5-1.2 13.8 1.7 27.4 3.8 41 6.5 21.1 4.2 41.4 11.4 60.7 20.8 19.9 9.7 38.3 21.5 55.2 36.2 18.6 16.2 36 33.5 51.8 52.4 16.7 20 30.7 41.5 41.7 65.1 10.8 23.1 19.8 46.8 27.1 71.1 6.2 20.7 10.4 41.8 11.2 63.4.7 21.5-.9 43-3.2 64.4-3.9 35.3-15.6 68.3-29.3 100.7-2.9 7-7 13.6-10.6 20.3-2 3.7-4.8 7-4.7 11.8.1 2.6-2.3 4.6-4 6.7-10.5 13.7-20.6 27.7-31.2 41.3-10.4 13.4-23.4 24.4-35.6 36.1-11.4 10.9-23.2 21.5-37 29.9-13 7.9-25.8 16-39.4 22.6-21.5 10.4-43.3 20.1-64.9 30.4-8.8 4.2-18.2 5.9-27.3 9.2-2.1.5-3.9 1.1-5.5 2.3zm-117.3-566.7c12.8-3.5 24.7-9.4 36.7-15 2.5-1.2 3.4-3.5 2.7-5.8-1.7-6 .1-11.8.6-17.7.5-5.5-.7-6.6-6.1-5.4-7.1 1.6-14 4-21.4 4.2-3.6.1-7.5 2-7.9 6.4-1 11.2-5.5 21.9-4.6 33.4-.6.1-1.9-.5-1.1 1.1.5-.4.8-.8 1.1-1.2zM176.9 962.8c-2.1-.3-3.8.5-5.4 1.9-8.6 7.3-16.5 15.7-26 21.5-11.3 7-16 16.4-16.8 29.1-.3 4.3-1.3 8.4.7 12.5 3.2 6.5 6.3 13.1 9.3 19.7 1.2 2.8 2.8 3.3 5.4 1.9 2.3-1.2 4.7-2.5 7.2-3.4 6.5-2.4 9.6-6.6 10.6-13.9 2.3-15.7 6.2-31.2 10.7-46.5 2.1-7.3 4.9-14.5 4.9-22.2l.6-1.2-1.2.6zM971 517.3c.3.9.7 1.7 1 2.6.2-.2.6-.4.6-.7.2-1 0-1.9-1-2.5 1.9-23.8 3.9-47.6 5.7-71.5 1.9-24.1 2.9-20.3 18.9-27 8.7-3.7 15.2-7 13.2-17.8-.2-1.2.8-2.5.9-3.8.8-6.8 2-13.7.4-21.4-6.4 1.7-12.4 4-18.5 4.9-12.3 1.8-23.3 7.4-35 11-4.8 1.5-6.4 4.2-6.4 9.6 0 11.9 1.1 23.8.6 35.8-.6 15.3-3 30.3-6.2 45.3-.6 2.7-2 6.5.7 8.5 10.2 7.5 16 18.7 25.1 27zm-390.5 699c1.7-1.7 2.2-4 2.7-6.3 4.7-21 13.2-40.7 19-61.3 1.5-5.5 4.7-8.6 10.8-7.5 1.2 5-3.5 8.4-3.5 13.1 16.3 1.7 35-3.7 44.6-14.4 17.1-19 29.8-40.6 34.6-66.2 1.3-7.1.7-13.8-5.6-18.9-4.1-3.3-7.7-7.4-11.8-10.7-14.7-11.8-21.2-27.5-23-45.8-.3-3.1.1-6 .7-8.7 1.4-6.2 5.9-8.6 11.9-6.4 8.1 3 16.3 1.9 24.5.8 3.6-.5 4.3-1.9 3.9-5.2-1-8.2-1.4-16.5-2.6-24.6-.6-3.8-.6-6.8 2.6-9.9 3.3 4.2 4 8.5 4.6 12.6.8 5.6 1 11.3 2.1 16.8.7 3.6-.2 8.3 4.8 9.9-3 7.9 0 15.7.5 23.6.2 3.5 1.3 8.6-3.4 9.2-5.3.7-4.2-4.7-4.8-8-1.7-9.7-1.7-9.6-11.2-9.2-3.3.2-6.7.3-10 .3-11-.1-12.6 1.6-10.2 12.5 1.1 4.8 2.4 9.8 5.8 13.7 6.7 7.8 13.1 15.9 21.7 22 10.6 7.4 12.6 12.6 9.7 25.3-1.1 4.5-2.6 8.9-4.1 13.3-5.2 15.1-11.9 29.5-20.7 43-11.8 18.1-26.7 32.2-47.7 38.7-4.4 1.4-8.9 2.5-13.5 3.4-6.9 1.4-11.2 5.9-13.2 12.1-5.5 17.8-10.7 35.7-15.8 53.6-1.1 3.8-1.9 7.9-.2 11.8 5 11.2 10.2 22.4 17.8 32.2 4.2 5.3 9.4 9.3 15.4 12.5 15.5 8.4 32.7 10.7 49.6 14 4.2.8 5.3-2.2 6.1-5 5-18.6 11.6-36.8 16.8-55.3 9.3-32.6 20.9-64.6 28.9-97.5 3.4-14.1 11.4-21 23.7-25.4 2.5-.9 4.9-2.1 7.4-3 18.8-6.7 37.6-13.3 56.3-20.2 32-11.8 61.4-28.8 90.8-45.8 6.1-3.5 12.3-6.5 19.1-8.4 12.9-3.5 24.6-9.9 37-14.6 7.5-2.8 12.8-1.9 19.3 2.3 9.6 6.3 19.9 11.6 31.4 16.1 0-3.8-.1-6.7 0-9.6.7-12 1.3-24.6 9.7-33.9 14-15.6 26.6-32.4 40.9-47.6 20.1-21.4 37.2-45.1 56.2-67.3 12.3-14.4 24.7-28.7 37.3-42.8 10.2-11.4 20.3-22.9 29.5-35.1 7.6-10.1 15.3-20 24.8-28.5 2-1.8 3.8-3.8 6.7-4 11.6-.7 23.1-4 34.8-2.3 9.5 1.4 19.3 1.2 28.7 3.5 3.8.9 8 .4 11.9.4 2.1 0 4.2-.7 4.6-3 1.4-7.3 5.7-13.5 7.7-20.5 1.6-5.5 1.2-6.1-4.7-7-13.4-2.1-26.8-4.1-40.3-6.2-13.8-2.2-27.8-2.5-41.4-6.2-8.1-2.2-8-2-12.6 5.2-6.9 11-13.2 22.3-18.8 34-1.4 2.8-3.5 5.6-6.9 3.9-4.2-2.2-1.1-5 .3-7.5 5.9-10.4 11.1-21.4 18.1-31 9.7-13.3 10.5-28.3 11.2-43.5.2-5 0-10.1 0-15.1-5.7 7.2-9.9 14.3-13 21.9-10.9 26.8-25.7 51.8-38 77.9-.3.6-.6 1.2-1 1.7-1 1-2.1 1.7-3.5 1.1-1.4-.6-2.2-1.8-2.1-3.1.1-1.6.6-3.3 1.3-4.7 2.5-5 5.4-9.9 7.9-15 9.4-18.7 19.2-37.2 28.1-56.2 6.5-13.9 12.7-27.9 20.2-41.2 1.4-2.4 2.2-4.7 2.2-7.5.1-8 .4-16 .4-24 0-3 1-6.3-1.6-9.9-2.1 3.8-3.7 6.7-5.2 9.6-6.2 12.5-11.7 25.3-17.6 38-12.9 28.1-26 56.1-38.9 84.3-16.3 35.7-34.6 70.5-53.3 105.1-2.8 5.3-5.5 10.6-8.2 15.9-.9 1.8-2.4 2.1-4.2 1.2-1.7-.8-2.8-2-2-3.9.6-1.5 1.6-2.9 2.5-4.3 5-8.3 9.5-16.8 13.3-25.7 7.6-17.7 16-35.1 25.8-51.8 8.6-14.7 16.2-29.8 23-45.3 11.1-25.3 21.9-50.7 33.2-75.9 8.1-18.2 16.9-36.1 25.2-54.2 5.4-11.6 5.3-11.7-3.6-20.3-13.3-12.6-27.9-23.6-41.7-35.6-24.2-21.3-49.1-41.8-74.6-61.6-22-17.1-43.5-35-66.4-51.1-4.9-3.4-10.1-6.5-15.4-9.3-5.1-2.7-6.1-2.1-6.8 3.8-1.2 10.6-2.2 21.1-3.3 31.7-1.7 15.5-3.3 31-5.1 46.5-.6 5.2.5 9.9 3.4 14.2 6.8 9.8 11.4 20.9 17.6 31.1 8.2 13.7 12.6 29.3 17.6 44.4 8.4 25.4 12.2 51.6 14 78.3 1.5 21.7.6 43.2-2.1 64.6-3.1 24.5-10.2 48.1-19.2 71.1-8 20.5-18.7 39.4-31.8 57.3-8.6 11.6-17.6 23.3-22.2 37.6-2 6-2.6 12.2-5.3 18.1-8.7 19.1-19.2 37-31.6 54.1-17.5 24.1-58.9 42.6-93.4 26.8-12.7-5.8-22.9-14.1-29-27.4-3.6-7.7-7.1-15.5-9.9-23.7-7.2 2.3-13.6 4.2-19.8 6.5-3.9 1.4-6.4.5-8.3-2.9.2-4.6 3.7-5.8 7.2-7.1 9.1-3.2 18.6-5 27.4-9 3.5-1.6 5 0 5.6 3.1.9 4.9 1.1 9.9 2.3 14.7 3.9 16.2 12.7 28.1 27.3 37.1 18.7 11.6 60.6 3 76.6-17 23.5-29.4 40.2-61.5 44.4-99.5 1.3-11.7 1-23.1-1.2-34.6-2.4-12.8-9.2-21.9-21.7-26.2-2.8-1-5.5-2.3-8.4-3.1-18.7-5.7-37-2.1-52.3 8.1-28.6 19.1-45.2 47.9-56.6 79.9-1.9 5.3-3.6 10.7-5.5 16-.6 1.7-1.8 3-3.7 2.6-1.9-.4-2.5-1.9-2.2-3.8.6-4.2.6-8.6 1.6-12.7 6-25.3 17.7-48.1 34.3-67.9 18.1-21.7 41.9-33 70.5-33.7 6.9-.2 13.1 2.5 19.3 4.2 15.6 4.3 28 13.1 33.8 29.4 3.7 10.3 4.3 21.1 6.4 33.2 2.8-3.7 5.3-6 6.4-8.8 1.6-4.2 4.2-7.5 6.7-11 15-20.6 26.3-43.4 33.1-67.7 6.8-24.6 12.9-49.6 11.4-75.6-.9-15.9 1.1-32.1-1.2-47.9-4-26.2-8.3-52.3-18.2-77.4-12.8-32.4-28.4-62.9-50.9-89.6-2.6-3-5.8-5.5-8.3-8.6-4.4-5.4-7.5-10.4-6.3-18.7 1.6-11.1 3.4-22.3 4.1-33.5 1.1-19.9 1.4-39.7.7-59.6-.1-4 .1-8.1-.9-11.9-6.2-24.8-11.5-49.9-25-72.2-3.4-5.5-3.5-10.1-.7-16.5 9-20.2 14.2-41 1.2-61.8-2.2-3.5-1.3-6.9.5-10.4 3.5-6.8 6.7-13.7 9.9-20.6 2-4.2 1.2-7.7-3-10.1-4.2-2.4-7.6-1.7-10.3 2.3-2.6 3.8-5.3 7.6-7.9 11.5-1.7 2.4-4 3.6-6.9 3-3.5-.7-3.2-3.6-3.4-6.3-.5-8-.3-15.9 1.3-23.7 1.3-6.5 2.5-13.1 4.5-19.4 1.6-5.1-.6-6.5-4.8-7.4-11-2.4-13-1.6-17.7 7.4-4 7.5-4.7 7.6-10.7.8-1.6-1.8-2.9-3.9-5.7-2.3-4.5 2.5-7.7 13.1-5.1 17.5 5.7 9.7 7.4 20 4.1 30.6-1.8 5.7-1 9.6 2.6 14.5 8.9 11.9 12.1 25.7 10.6 40.5-.4 3.5-.5 7.5-4 9.8-1.2.8-2.5 1.2-3.6.3-.6-.5-.9-1.7-1-2.7 0-.9.6-1.9.7-2.9 1.9-17.2-1.4-33.1-13.1-46.3-3.2-3.6-4.5-6.2-1.5-10.1 1-1.3 1.8-2.8 2.4-4.4 3.5-8.9 1.1-18.8-5.5-23.5-2.9-2.1-5.1-1.3-5.4 2.4-.2 2.6 0 5.3.3 8 1.1 11-.9 20.7-9.1 29.2-13.2 13.6-12.9 29.1-5.2 45.8 4.8 10.5 8.8 21.7 9.9 33.3 2 19.9 3.4 39.7.3 59.7-4.4 29.2-11 57.4-31.2 80.5-3.4 3.9-5.9 5.8-11.7 3.7-7.4-2.6-15.7-4.5-23.4-4-6.6.5-10.4-1.5-14.6-5.8-6.8-7-15.2-11.5-24.7-14.3-12.4-3.7-24.7-3.2-37.4-3-16.3.3-31.8 3.3-46.3 10-28 13-53.4 29.6-71.1 56-6.5 9.8-13.5 19.5-25.8 23.6-5.2 1.8-10.3 5-14.6 8.5-18.9 15.8-36.7 32.8-51.7 52.5-2.2 2.9-5 5.4-3.4 10.6 1.4 4.4-3.8 7.6-8.4 5.7-8.4-3.3-16.2-7.5-22.6-14.2-15.6-17.2-25.7-37.1-32.1-59.1-1.4-4.9-.6-9.9.8-14.7.7-2.5 2.1-3.8 4.5-4.8 10.8-4.4 17.3-13 20.8-23.6 2-6 2.1-12.7-2.1-18.2s-3.6-10.9-1.1-16.9c2.4-5.8 4.4-11.8 6.4-17.8.6-1.7 2.2-3.8.1-5.4-1.8-1.4-3.9-.5-5.6.5-5.5 3.1-10.4 7-13.9 12.4-1.9 2.9-3.9 3.8-7 .4-4.8-5.2-5.9-10.7-4.8-17.4 1.6-10.2 3.7-20.2 7.5-29.9 1.2-3 1.1-6.4-2.4-7.7-3.8-1.4-6.5.7-7.6 4.4-1.3 4.1-2 8.3-3.3 12.5-1 3.4-1.6 7.8-6.7 6.9-4.7-.8-1.8-4.9-2.6-7.4-.1-.3 0-.7 0-1-.2-7.6-2.8-9.3-9.6-5.8-2.9 1.5-5.3 3.9-6.9 6.9-3.1 5.9-6.3 11.6-9.6 17.6 1.3 1.1 2.3 2 3.4 2.7 8.4 5.2 9.5 8.5 5.5 17.1-1.8 3.9-3.4 8-5.8 11.6-4.8 7-5.7 12.8.8 20 5 5.5 7.5 13.1 1 21.4-3.9-4.9-5.3-10.5-8.6-14.9-11-14.8-10.9-14.9-1.5-31.4 1.1-2 2.3-4 3.5-6 .6-1.1 1.5-2.2 1.8-3.5.4-1.6.4-3.3-1.3-4.5-1.4-1-2.5.2-3.5.7-4.2 2.2-7.1 5.8-10 9.4-17.8 22.2-23.5 48.8-26.2 76-3.1 31 .1 61.5 9.1 91.5 3.2 10.6 8.2 20.3 12.3 30.4 5.7 13.8 12.1 27.6 21.4 39.2 11 14 21.3 29 37.5 38.2 5.2 3 7.1 7.5 6 14.2-4.4 27.1-4.6 54.1 1.5 81.1 7.2 31.7 17.5 61.9 37.2 88.3 13.5 18 29.7 33 47.3 46.7 3.1 2.4 8.3 2.4 10.1 6 2.1 4.2-3.4 6.7-4.1 10.5-.2 1.3-.6 2.6-.9 3.9-4.7 15.8-6.4 32-5.3 48.3 1.2 18.1 8 34.4 21.2 47 8.6 8.2 17.7 16.1 28.1 22.3 5.4 3.2 10.9 6.4 16.2 9.9 6.1 4 6.1 4.9 3.6 11.4-2.8 7.5-7.6 13.7-12.9 20.2 11.6 5.9 22.8 10.8 34.2 15.1 3.5 1.3 7 2.1 8.9 5.8-1.7 3.2-3.3 5.2-7.7 2.8-18.2-9.9-37.8-16.4-56.9-24.1-37.9-15.2-75.3-31.9-113-47.6-19.6-8.2-38.7-17.7-58.1-26.5-29-13.1-57-28.6-86.4-40.9-3-1.3-5.4-1.8-8.3.3-15.4 11.1-32.6 18.9-49.2 28.1-23.6 13.1-48.3 23.5-72.8 34.6-12.3 5.6-12.4 5.3-4.1 16.8.6.8 1 1.7 1.6 2.5 17.8 25.4 38 48.4 62.7 67.7 23.4 18.3 48.1 34.1 75.1 46.4 23.7 10.9 48.6 18 73.7 24 23.3 5.5 47.3 6.5 71.3 6.7 4 0 8-.3 12 .3 22 3 43.8.3 65.6-1.6 17.4-1.5 34.5-6.4 51.7-9.8 10.5-2.1 12.1-1.1 14.3 10.3-2.6 6.9-2.6 6.9-1 12.1 1.9-3.3 2.1-6.9 2.6-10.4zM253.8 554.5c-.5-.7-1.1-1.6-1.9-.4-.1.1.7.8 1 1.2-.9 5.1 5.7 9.5 2.4 14-2.8 3.8-7.9 5.9-11.9 8.8-1.4 1-2.7 2.1-4.2 2.7-5.9 2.4-8.4 6.9-9.4 12.9-1.4 8.5-3.1 17-4.5 25.5-3.4 21-6.9 41.9-10.1 62.9-.6 3.9-3.2 5.8-5.7 7.7-2.1 1.6-3.7 0-4.1-2.3-.2-1.3.2-2.6.5-3.9 5.9-23.9 9.7-48.2 12.8-72.6.7-5.8 2.8-11.6 1.4-17.8-3.8-.3-6.6 1.6-9.5 3.1-8.8 4.8-17.5 9.5-26.2 14.3-2.7 1.5-5.1 2.7-8.4 1.2-20.6-9.2-41.3-18.5-62.1-27.3-7.4-3.1-14.2-8.1-22.3-9.6-4.2 13.2-2.7 16.6 9.6 22.5 24 11.5 46 26.8 70.9 36.4 6.1 2.4 7.5 6.2 6.4 12.9-4.3 26.2-8.6 52.4-13 78.7-3.7 22.4-3.4 23.2 10.4 41.8 7.5 10.1 15.5 19.9 22.3 30.6 5.3 8.4 6 16.5 3.2 25.6-2.9 9.4-5.6 19-8.4 28.5 1.5.6 2.4 1.1 3.3 1.3 10.4 2.1 21.1 2.8 31.7 3.4 17 .9 33.5 4.6 50 8.8 5.1 1.3 9 6.8 8.5 12.1s-1 10.7-2.8 15.6c-9.2 24.6-19.1 48.9-28.3 73.5-3.7 9.8-7.9 19.5-10.2 29.6 3.6 1.8 5.8 0 8-1.3 6.1-3.5 12.3-6.7 18-10.8 6.3-4.5 11.7-5.3 19.1-1.7 20.3 10 40.2 20.8 60.7 30.2 31.4 14.3 62.1 30.2 94.3 42.8 28.7 11.2 56.8 24.1 85.3 35.9 8.9 3.7 17.6 8.2 26.6-2.1 8.1-9.4 8.4-10.8-3.1-16.4-16.9-8.3-32.7-18.7-42.4-35.3-17.6-29.8-20.9-62-11.8-95.2 1.4-5 .4-7.6-3.4-9.8-11.2-6.4-19.4-16.4-27.6-25.8-15.9-18-29.4-37.8-38.7-60.2-9.4-22.5-17.1-45.4-19.7-69.8-2.2-20.9-2.1-41.9-.9-62.8.2-3.6.2-6.5-3.1-8.8-14.2-9.9-23.8-23.9-33.8-37.7-13.4-18.4-23.9-38.4-31.4-59.9-7.2-20.8-11.8-42.2-13.5-64.3-.3-3.9-.1-7.9-1.6-11.5-3.4-1.4-6.1.6-8.9 1.3-8.1 2.1-13.3 6.6-13.8 15.7-.2 3.3-1.1 6.6-2.2 9.7-8.2 24.3-12.6 49.6-20 74.1-6.7 22.3-11.4 45.1-17.8 67.5-4.2 14.7-8.6 29.4-12.3 44.2-4.3 16.8-10.8 32.8-15.3 49.5-.6 2.1-1.1 5.3-4.2 4.6-3.5-.8-2.3-4.3-2.3-6.8 0-1 .4-1.9.8-2.9 4.3-11.2 6.6-23 9.9-34.5 5.6-19.5 12.6-38.6 15.5-58.8.9-2.1 2-4.2 2.6-6.4 5.4-18.5 10.4-37 16.1-55.4 8.6-28.2 15.2-57.1 22.7-85.6.4-1.6.8-3.3-.6-4.6-11.9 3.3-12.2 3.7-13.7 14.7-.8 5.6-1.8 11.1-3.1 16.6-6.5 29.2-13.3 58.3-19.5 87.5-2.3 10.6-6.4 21-5.8 32.2-1.8 2.3-2.6 5.4-5.1 7.3-1.1.9-2.3 1.6-3.6 1.2-1.8-.5-2.7-2.1-2.4-3.9.5-3.6 1.1-7.3 2.1-10.8 11.2-38.7 17.3-78.5 25.9-117.8 1.2-5.4 4.8-10.4 3-16.4-.7.1-1.3.2-1.9.4-3.3 1.1-4.1 5.6-7.7 5.9-4.1.4-5.8-4.1-9.1-5.5-.4.2-1.1 0-1.7-.2zM990.3 428c11.5 7.7 21.1 14.9 30.6 22 38.2 28.8 74.4 60.2 111.5 90.4 9 7.3 16.7 16.1 26 23.2 16.7 12.6 33.2 25.5 47.6 40.9 5.1 5.5 7.2 10.7 6.8 18.6-.8 17.9-2.9 35.8-3.5 53.7-.3 9.6-.2 19.3-.6 28.9-.3 6.6-2.6 12.9-1.9 19.7.8 7.2 1.4 8.7 8.8 9.4 11.3 1 22.3 4 33.5 5.2 23.1 2.6 45.8 7.5 69 9.5 15.5 1.4 30.8 4.7 46.2 6.9 11.3 1.6 19.4-3.8 23.9-14.6 4.7-11.1 7.2-22.8 10.4-34.3 14.9-53.1 17.6-106.4 4.4-160.5-9.7-39.9-26.2-76.7-47.1-111.5-19.9-33.1-47-60.1-76.9-84.2-17.7-14.3-37.6-25.1-58.5-33.8-11.6-4.8-23.5-9.3-35.7-12.1-17.7-4.1-35.7-6.9-53.7-9.4-23.1-3.2-45.7-.7-67.7 7.1-7 2.5-8.6 2.2-11-4.7-7.6-21.4-17.5-41.7-29.7-60.7-15.3-23.9-34.8-44.5-54.9-64.3-25.8-25.4-56.6-43.8-89.8-57.8-20.7-8.7-41.6-17.5-64.2-22.2-.5 1-1.4 2.1-1.6 3.3-1.7 11.5-4 23-4.9 34.5-1.5 20.2-3.8 40.4-6.9 60.4-4.1 26.3-5.9 52.8-9 79.1-1.8 15.8-3.9 31.6-5.6 47.5-1.1 10.6-1.9 21.2-2.8 31.8-.2 2.9.3 5.1 3.2 6.6 12.6 6.3 26 11 37.3 20.1 2.4-4.1 3-7.7 3.7-11.3 3-15.1 3.7-30.2 3.5-45.6-.2-13.8-1.2-27-7.1-39.7-1.4-3-2.7-6.1-3.8-9.2-7.5-20.7-6.9-40.4 7.7-58.3 4.5-5.5 5.5-12 5.1-18.8-.2-4.6-.4-9.3-1.2-13.9-.8-4.9.8-9.3 4.7-11.2 8-4 12.7-10.2 15.1-18.5.7-2.4 2.7-3.8 4.2-5.5 5.7-6.5 7.4-6.7 13.4-.8 4.4 4.2 4.4 4.2 8-1.5 4.1-6.6 8.5-8.5 15.7-6.3 4.1 1.3 8.1 2.7 11.9 5 5.9 3.5 8.5 7.9 6.9 14.8-1.7 7.4-2.9 14.9-4.4 23.2 3.3-1.1 5.6-2 8-2.6 6.9-2 12.3.8 17.1 5.5 4.6 4.5 3.7 9.6 1.6 14.8-2.2 5.6-4 11.4-7.2 16.4-3.9 6.3-3.3 11.5.1 17.6 6.5 11.5 7.7 23.8 5 36.7-1.6 7.6-4 14.8-7.4 21.6-2.1 4.2-2.1 7.6.1 12.1 4.8 10.2 10 20.2 13.4 31.1 5.1 16.5 10.1 33 12.4 50.8 7.3-2.1 14-3.8 20.5-6 20.8-6.7 41.8-13.2 63.3-17.3 18.3-3.5 36.3-8.2 54.5-11.8 31.6-6.2 63.3-12.2 95.3-15.7 11.8-1.3 23.8-2.6 35.8-.5 3.6.6 8.1 1 8.2 5.7.1 4.2-3.8 5.8-7.3 7.1-.9.3-1.9.5-2.9.8-10.2 2.8-20.3 6.3-30.5 9.2-29.1 8.3-57.8 17.4-86.3 27.6-21 7.5-41.4 16.4-62.2 24.2-15.9 6.2-31 13.9-48.1 21.6zm-226-9.8c2.2-3.5 2.2-7.1 2.6-10.7 1.8-17.8 3.8-35.6 5.9-53.4 3.2-27 7-53.9 9.8-80.9 3.4-33 6.9-66 11.3-98.9 3.4-25.7 7.4-51.3 11-76.9 1-6.8.8-6.7-5.8-8.2-8.3-1.8-16.8-3.3-24.9-5.8-17.8-5.4-35.9-9.4-54.4-10.3-9-.5-17.7-2.6-26.8-2.4-4.2.1-6.2 1.5-5.8 5.9.3 3.3.4 6.6.3 9.9-1 32.2-1.2 64.4-3.3 96.6-1.5 23.2-.7 46.5-1 69.7-.2 16.6.2 33.3-.9 49.9-1 15-1.5 29.9-.1 44.8.5 5.4-2.2 7.2-5.9 8.8-3.3 1.5-5.6 0-4.8-3.4 1.7-7.1 1-14.3 1.2-21.5.5-27.5 1.5-55 .8-82.6-.6-22.6 2.3-45.1 2.7-67.6.6-34.9 1-69.8 2.2-104.6.2-7 .2-7.3-6.4-7.4-21.6-.5-43.2-1.9-64.9.1-20.8 2-41.4 4.3-61.7 9.3-3.7.9-3.9 2.4-3.8 5.4.2 5.3 1.3 10.7 1.1 15.8-1.1 22.4 4.4 44.3 3.7 66.7-.3 11.9.7 23.8 1.3 35.7 1.2 21.9 3.6 43.6 3.9 65.6.2 15.6.5 31.3 1.4 46.9 1.8 32.5 4 64.9 6.1 97.3 1.3 21.1 5.3 41.9 7.4 62.5 2.3.9 2.8-.5 3.7-1.4 6.3-6 10.5-13.9 16.5-19.8 9-8.7 18.7-16.9 29.5-23.6 11.3-7 23.4-12.4 35.7-17.3 29-11.6 58.5-15.6 89-4.4 7.9 3.1 15.1 8 23.4 10.2zm-84.6 889.9c4.5 3 9.3 3.1 13.9 3.1 12 .2 24 .7 35.9-.2 32.8-2.5 65.5-5.8 97.3-14.5 17.9-4.9 35.8-10 53.4-15.8 23.8-7.8 45.4-20.5 67-32.7 17.3-9.8 34.4-20.1 50.4-32 4.7-3.5 7.6-7.1 8-13.7 1.2-19.4 8.6-36.8 20.3-52.2 12.7-16.8 29.7-28.4 49-36.6 2-.8 4.7-.5 5.2-4.4-8.1-3-14.6-9-21.7-13.9-13.5-9.4-27.6-17.9-41.7-26.4-15.4-9.2-31.1-17.8-46.6-27-4.3-2.5-8.1-1.8-12.4-.6-25.8 7.2-50 18.2-73.2 31-27.1 14.9-55.2 27.6-84.2 38.3-20.3 7.5-40.9 13.9-59.9 24.5-4.1 2.3-8.3 4.3-10.1 9.1-3.3 8.3-7.1 16.5-9.7 25-6.6 22-12.5 44.2-18.9 66.2-7.2 24-16 47.7-22 72.8zM532.7 80.9c-8.1 2.1-16 3.5-23.4 6.2-9.3 3.4-18.8 6.4-28.3 9.4-27 8.4-54.1 16-78.5 31-12.7 7.8-25.7 15.2-37.7 24.1-12.1 8.9-23.4 18.5-34.1 29.1-9.9 9.8-19.8 19.5-27.5 31.2-11.7 17.8-22 36.4-30 56.2-1.8 4.4-1.3 7.5 2.3 10.6 4.3 3.7 8.3 7.7 12.5 11.4 17.7 15.7 35.5 31.2 53 47.1 11.3 10.3 22.1 21.1 33.1 31.7 3.3 3.1 6 6 10.3.6 3.9-4.8 10.6-7 16.1-6.8 5.4.2 7.4-2 10.4-5.2 5.7-6.3 12.3-5.8 17.9.7 4 4.6 5.2 10 4 15.9-1 4.9-2.6 9.7-3.1 14.6-.5 4.8-3.2 9.6-.4 15.1 4.7-.9 8.2-4.2 12.3-5.9 4.4-1.8 9-2.7 13.1 1s1.8 7.8.7 11.9c-.8 3.3-4.3 6.2-2 10.3 1.1-.2 2.2-.1 3-.5 22-11.8 45-21.2 68.5-29.7 7.7-2.8 18.9-2.2 22-9.7 3-7.3.7-17.1-.4-25.6-2.7-21.5-4.2-43.1-4.8-64.6-.8-27.9-3.2-55.7-4-83.6-.5-18.9-2.5-37.9-2.3-56.8.3-23.2-2.6-46-2.7-69.7zM263.2 322.1c.7 23.3 4 43.7 19.7 59.5-7.7 8.4-7.7 8.4-17.4 6.6-5.9-1.1-11.9-1.3-17.8.1-18.1 4.1-36.4 6.7-54.2 12.4-13.3 4.3-26.1 9.8-39.1 14.7-13.4 5-25.4 13-37.7 20.2-10.3 6-20.1 13-28.5 21.5-14.9 15.1-28.8 31.1-41.3 48.3-6.3 8.7-11.1 18.1-16.5 27.3-2 3.4-1.1 5.3 2.4 6.9 9.4 4.2 18.6 8.9 28.1 13 18.9 8.2 38.1 15.7 56.8 24.3 17.2 7.9 34.9 14.6 52.2 22.3 9.9 4.4 17.8 1.7 25.2-3.3 14.3-9.7 29.1-18.7 43.7-28 7.6-4.8 7.7-5.3 4.4-13.6-2.5-6.2-5.2-12.3-7.7-18.4-.6-1.5-.9-3.4.8-4.5 1.6-.9 3.2-.3 4.6.8 5.4 4.4 11.2 8.4 16.2 13.3 4 3.9 7.5 4.3 12.3 1.6 16-8.9 32.7-16.2 49.9-22.6 5.5-2 7.9-4.8 7.8-10.8-.3-13.7 1-27.2 3-40.8 2.3-15.9 7.6-30.9 15-45.1 4.4-8.3 4.7-8.1-1.6-15.2-20.9-24-41.7-48.2-62.8-72.2-5-5.9-9.5-12.5-17.5-18.3zM1377 766.3c-2.7-.9-4.4.9-6.3 2.1-8.4 5.4-15.4 12.7-23.2 18.8-4.9 3.9-9.8 6.1-16.3 5.9-15.3-.4-30.6-1.3-45.8-1.7-20.9-.6-41.8-2.2-62.8-2.4-11.3-.1-18.8 5-25.3 13.1-2.9 3.6-5.5 7.5-8.6 11-13.5 15.6-27.2 31-40.5 46.7-14.2 16.8-27.3 34.4-42 50.7-27.4 30.4-53.5 61.8-79.5 93.3-9.9 12-12.7 10.6 2.4 24 18.7 16.5 39.9 29.8 59.7 45 9.8 7.5 20.2 14.1 30.2 21.2 3.3 2.3 5.3 2 6.7-1.9 2.6-7.5 5.2-15 5.1-23.2 0-10.3.9-20.6.8-30.9-.2-21.3-1.4-42.4-13.7-61-5-7.6-2.5-13.1 6.4-14 11.4-1.2 21.7-5.9 32.1-9.7 15.6-5.7 30.8-12.5 46.2-18.7 27-10.8 51.9-25.4 74.6-43.4 10.9-8.6 21.5-17.8 31.5-27.5 11.2-10.9 22.4-21.8 31.5-34.7 12.1-17.1 23-35 33.3-53.2 1.6-2.8 5.3-5.1 3.5-9.5zM163.8 642.1c-1.9-1.5-3.3-3.1-5-3.9-16.1-7.2-30.6-17.3-46.3-25.4-10-5.2-20.6-9.5-30.1-15.5-18.9-11.8-38.5-22.4-57.7-33.8-5.2-3.1-6.6-2.4-8.6 3.4-.4 1.2-.6 2.6-.9 3.9-5.5 22.2-5.3 45-3.4 67.4 2.4 28.4 8 56.4 17.7 83.4 9.7 26.9 23.6 51.7 42.4 72.8 15.5 17.3 35.2 30.3 55.9 41.1 3.7 1.9 7 1.7 10.4-.2 9-4.9 19-6 28.7-7.7 8.1-1.5 15.2-4.9 22.1-8.9 9-5.2 9.6-9 3.7-17.8-.9-1.4-2-2.7-2.9-4-8.4-11.9-17.5-23.4-25.8-35.5-7.4-10.9-15.3-21.9-25.2-30.5-10.5-9.1-17.9-20.4-25.5-31.7-2.6-3.8-2.6-7.6 1.4-11.5 10.5-10.2 20.6-20.8 31.9-30.2 6.1-4.7 12.1-9.3 17.2-15.4zm1011.7 511.6c-.1-6.2.5-11.8-2.7-17-5.6-9-12.1-16.7-23.6-18-2.6-.3-5-1.6-7.6-2.4-20.3-6.4-40.3-3.9-59.3 3.9-12.2 5-23.7 11.9-34.7 19.4-7.8 5.3-14.6 11.9-18.5 20.5-5.2 11.4-10.3 22.9-13 35.3-3 13.5-.2 25.9 9.8 35.7 8.4 8.2 19.2 12 30.7 12.2 24.1.5 46.5-5.9 67.1-18.4 14.4-8.7 26.2-20.2 37.1-32.9 9.8-11.2 15.4-23.8 14.7-38.3zm-627-757.6c-1.5-.2-1.8-.4-2.1-.3-1 .2-1.9.6-2.9.7-9 1-13.8 5.5-15.7 14.9-5.4 26-14.3 51.2-17.1 77.7-.3 2.7-.7 6-4.2 5.5-3.2-.5-3.4-3.4-2.7-6.4 1.3-5.5 2.2-11.1 3.7-16.5 5.1-18.3 6.7-37.3 11.5-55.7.7-2.5.5-5.3.6-7.9 0-1.5-.9-2.4-2.4-2.5-5.4-.5-15.1 6.8-16.2 12.2-7.6 38.4-16.6 76.6-21.8 115.5-.2 1.3-.4 2.8-1.2 3.7-1.7 1.8-3 5.1-6.3 3.4-2.4-1.3-2.1-3.9-1.3-6.3 5.2-16.2 7.3-33.1 10.2-49.8 3-17.3 6.5-34.6 9.7-51.9.9-4.9 1.9-9.8.3-15.1-8.4.9-14.8 3.6-16.8 12.7-1.3 5.8-3.1 11.6-4.5 17.4-.5 1.8.2 4.7-2.5 4.5-2.6-.2-3.6-2.7-3.4-5.2.2-2.3.9-4.5 1.4-6.8.8-3.4 1.7-6.9-.4-10.6-3.8 1.6-7.1 4-10.5 4.2-4.7.2-5 1.7-3.7 5.4 6.8 18.1 2.3 33.9-9.8 48.2-1.5 1.8-2.6 4-4.4 5.4-6.8 5.1-5.4 11.4-3 18 4.1 11 9.9 21.3 17 30.4 5.2 6.7 9 14.7 16.7 19.5 6.5 4 6.3 4.5 10.7-2.2 11.8-17.9 26.3-33.4 42.2-47.7 8.8-7.8 18.9-13.5 28.7-19.7 5.4-3.5 7.5-7.8 6.9-14.2-1.8-19.5-3.6-38.9-4.4-58.5-.3-7.4-1.5-14.6-2.3-22zM275.7 872.3c-17.9-4.6-34.7-6.3-51.3-9.2-15.7-2.8-31.8-1.8-47.5-5.2-4-.9-5.7 1-8.2 3.7-13.4 14.7-21.7 32.6-31.2 49.7-5.4 9.6-9.7 19.7-12.6 30.3-4.9 17.9-7.7 35.8-2.5 55.1 49.6-42.9 104.8-78.1 153.3-124.4zm-5.6-587.7c-4.7 5.3-4.3 11.9-6 17.8-1.3 4.6.2 8.1 2.9 12 3.5 5 8.5 8.3 12.2 13 10.3 12.6 20.9 24.9 32.9 36 5.9 5.4 11 11.6 15.7 18 8.2 11.3 17.3 21.8 25.9 32.6 7.9-6.4 14.7-13.1 18.2-23.1 2.1-6 1.7-10-2.4-14.3-7.2-7.4-15-14.1-22.6-21-21.1-19.3-41.4-39.4-62.3-58.9-4.4-4.2-8.5-9.1-14.5-12.1zm-38.9 635.7c-14.1 12.3-27.9 21.4-41.1 31.3-3 2.2-4.1 5.1-4.9 8.3-5.9 23.8-11.6 47.7-16.1 71.8-.2 1.3-.2 2.6 1.6 3.4.7-.1 1.8 0 2.6-.4 5.8-2.6 11.5-5.2 17.2-7.9 15-7.1 15-7.1 19.2-23.7 1.1-4.5 2.2-9 3.4-13.5 3.6-13.5 6-27.2 10.8-40.4 3-8.4 6.3-17.2 7.3-28.9zm44.1-31.8c-11.8 5-21.8 11.4-30.4 19.8-2.7 2.6-4.6 5.5-5.7 9.1-9.2 29.8-17.4 59.9-24.1 90.3-.3 1.6-.5 3.3 1.1 5.1 5.9-3.1 14-4.7 16.3-11.4 2.7-7.9 6.8-15.1 9.7-22.9 7-18.6 14-37.3 20.9-55.9 4.3-11.2 8.2-22.7 12.2-34.1zM775.4 413c-.7 6.4.2 9.3 5.2 10 4.9.7 9.8 1.8 14.5 3.3 4.8 1.5 7.9.4 10.9-3.9 6.8-9.6 11-20.3 14.4-31.5 1.2-4-.4-6.4-3.1-8.6-8.8-7.2-18.8-12.5-29.4-16.5-5.2-2-6.3-1.2-7.5 4.1-3.2 15.1-1.8 30.5-5 43.1zm329.3-39.5c32.4-12.2 65.6-20.8 98.2-31.7-10.9-1-21.7-1.6-32.5.3-14.4 2.5-28.4 7.1-43 8-5.3.3-10.6.6-15.9 1-2.3.2-5.4-.1-5.7 2.8-.5 6.1-3.7 12.1-1.1 19.6zm-68.7 670.9c-.8 8-.5 14.3-1.9 20.4-.6 2.5.7 5.5 2.8 7.2 9.1 7 18 14.4 30.7 18.7 0-7.3-.2-13.6.1-19.8.2-3.9-1.6-6.3-4.5-8.3-8.6-5.7-17.1-11.4-27.2-18.2zm62.6-689.4c-11 1.2-20.9 3-30.5 6.5-1.3.5-2.5 1.1-2.7 2.5-1.1 8.3-5.6 16.1-3.6 26 11.3-4.3 22.1-8.3 32.7-12.5 3.1-1.2 4.9-4 3.7-7.2-1.7-4.8-.3-9.5.4-15.3zM79.5 584.3c3.4-14.2 3-15.1-8.7-20-13.5-5.6-26.7-11.7-39.4-19-2.1-1.2-4.4-3.7-6.9-.5-2.3 3-1.8 7 1.6 9.5 3.2 2.3 6.7 4.4 10.2 6.3 10.3 5.4 20.8 10.1 30 17.6 3.7 3 8.2 5.5 13.2 6.1zm89.4 67c-5 1.1-7.6 3.7-8.6 7.9-1.3 5.5-2.9 11-3.6 16.5-2.1 16.1-3.2 32.4-6.1 48.4-1.3 7.1.2 11.3 6.2 15 3.6-29.2 9.9-58 12.1-87.8zm24 172.6c-16.8 9.2-33.8 11.7-50 15.9-.1 1.9.7 2.4 1.5 3 10.9 7.7 23.6 7.8 36.1 8.7 2.7.2 4.2-1.2 5.2-3.6 3-6.9 6-13.9 7.2-24zm883.1 249.4c-3.9 4.4-2.9 9.3-3.2 13.8-.2 3.5-1.4 7.7 2.4 10.1 5.6 3.4 10.3 9.7 17.3 8.9 7.2-.8 14.5-2.4 21.8-6.1-13.2-9.2-25.7-17.9-38.3-26.7zm228.8-289.7c3.1-1.3 8.3 1.6 10.5-4.1 2.2-5.9 4.7-11.7 7-17.6.6-1.5.9-3.2-.7-4.5-5.4-4.3-14.3-2.2-17 4.2-2 4.6-4 9.1-5.7 13.8-2.8 7.2-2.1 8.3 5.9 8.2zM149.3 667.9c-6.3 2.7-6.5 2.8-7.7 9.1-1.9 10.4-3.4 20.8-5.2 31.2-1.4 8.3-1.2 8.8 8.2 14.1.7-18.5 4.9-36 4.7-54.4zm877.6 396.5c0-6.5-.2-12.2 0-17.8.4-11-1.8-14-13.4-16.7-.7 7.3-1.4 14.6-2.1 21.8-.3 2.8 0 5.7 2.8 6.9 3.9 1.6 6.8 5.2 12.7 5.8zm318.6-302.8c-6.1-2.3-11-4.7-15-.1-4.1 4.8-5.8 11.1-7.6 17.2-.4 1.5-.3 3.3 1.6 4.3 4.6 2.5 12.1-.1 13.8-5.1 1.8-5.4 3.4-10.7 7.2-16.3zM130.4 706.7c.5-8.9.9-16.8 1.3-25.2-1.7.8-2.3.9-2.8 1.3-1.8 1.5-3.4 3.1-5.2 4.6-5 4.4-5.6 8.1-2 13.2 1.9 2.5 4.3 4.2 8.7 6.1zm1216.2 73c7.1-4.3 12.8-9.1 17.8-15.5-12.7-2.3-12.8-2.3-16.9 8.4-.7 1.8-2.2 3.5-.9 7.1z"/><path fill="#0E0C0A" d="M2903.3 1159.9c-.7 12.7-3.7 23.7-9.6 34.1-3.6 6.3-6.1 13.2-9.1 19.9-6 13.4-16.8 22.8-27.5 32.2-2 1.7-4.6 2.4-7.2 3-11.6 2.9-23 6.8-34.7 9.1-10.7 2.1-21.2 5.2-32.2 5.3-22.5.2-45 .7-67.3-.9-14.2-1-28.2-4.4-42.3-6.1-32.7-3.9-63.9-14-95.1-23.7-5.7-1.8-11-4.7-16.4-7.2-17.9-8.6-36.3-16.4-53.5-26.2-16.4-9.3-33.5-17.4-49.8-27.2-3.4 12.2-12.4 17.8-23.1 21.2-21.2 6.7-41.9 3.6-62.3-3.8-14.3-5.2-28.4-10.8-41.4-19-18.6-11.7-33.8-26.9-44.2-46.3-8.1-15-9.2-30.9-4.3-47.3 1.2-4 3.2-7.5 6-10.2 10-9.8 20.6-18.8 35.1-21 .9-.1 1.8-.8 2.9-1.4-6.5-21.3-7.4-43.2-6.4-65.1.9-19.1 2.2-38.5 10.9-56.2 2.4-4.9-.2-5.5-3.9-6.5-27-7.5-51.8-20.5-77-32.3-24.5-11.5-49-23.5-69.9-40.9-27.8-23.1-54.7-47.4-74.8-78-2.4-3.6-5-7.1-8.1-10.1-8.2-8.1-10.3-19.5-15.8-29-14.7-25.4-23.1-53.2-31.4-81.2-7.6-25.5-8.7-51.5-10.3-77.6-1.7-27 2.2-53.2 8.5-79.4 5.3-22 13.5-42.9 22.1-63.6 11-26.6 24.8-51.9 43.7-74.3 15-17.8 29.7-35.7 47.4-50.9 13.8-11.9 27.5-24 43.4-33.3 19.5-11.3 40.1-20.5 61.5-26.8 13.8-4 28-7.3 42.5-9 17.4-2 34.7-5.1 52.3-4.8 10.6.2 21.2.8 31.5 3.6 4.9 1.3 7.6.6 9.6-4.7 6.6-16.7 14.9-32.8 26.2-46.7 16.7-20.5 31.8-42.3 51.1-60.8 10.6-10.1 21.2-20 32.5-29.3 6.7-5.6 14.4-9.4 21.7-13.9 11.2-6.9 23-13 34.8-19 23.4-11.9 48.1-20.8 73.2-28 13.3-3.8 26.3-8.3 39.7-12 7.4-2 15-2.1 22.5-3.5 17.5-3.2 35.1-5.5 52.7-7.7 9.2-1.1 18.6-1.8 27.9-1.7 10.9.1 21.6-1.5 32.6-1.5 8.9 0 17.8.7 26.7 1 13.6.4 27.3-.7 40.8 2.1 20.6 4.3 41.2 9.2 61.9 12.8 31 5.3 59.5 17.8 88.2 29.4 19.2 7.8 38.1 17.5 55.2 29.2 28.4 19.4 56.4 39.7 76.2 69 8.5 12.6 18.5 24.3 25.8 37.8 12.6 23.4 19.4 48.2 21.2 74.9.9 12.8-.7 25-2.8 37.3-1.3 7.4-4.9 13.7-7.9 20.3-.8 1.7-2.6 3.4-1.4 5.5 1.3 2.1 3.5 1.2 5.4 1 11.4-1.4 22.3 2.2 33.3 4.2 30.5 5.8 59 17.5 86.7 31 30.5 14.7 56.9 35.4 79.3 60.7 22.4 25.3 40.4 53.6 50.1 86.3 6.4 21.6 8.8 44.1 8.7 66.8-.2 42.3-12.4 81.7-28.5 120.1-2.9 7-6.9 13.6-11 20-16.7 26.2-35.4 50.1-63.3 66.2-16.1 9.3-31.9 18.7-49.7 24.4-.9.3-1.6 1.2-2.6 2 1.6 6.2 6.2 10.9 9.7 15.9 18.2 25.6 30.9 53.5 34.6 84.6 2.9 23.8 1 47.6-8.9 70.1-2.5 5.7-3.8 12.1-6.4 17.7-9.5 20.6-22.1 39.2-36.9 56.5-16.2 19-34.8 34.9-54 50.8-27.9 23.1-60.4 36.6-93.2 50.1-18.7 7.7-38.3 12.7-57.4 19.1-6.8 2.3-14.3 3.3-21.5 3.8-15.4 1.2-30.9 2.9-46.2 2.1-24.6-1.2-49.1-1.5-73.7-1.8-5.5-.1-11.1-1.7-16.5-2.8-12-2.9-23.9-5.6-36.6-8.4zm42.6-233.5c-.5-.2-1.2-.8-1.5-.7-1 .6-.7 1.5-.2 2.3 2.3 19.1 5.2 38.1 8.6 57.1 1.3 7.2 2.1 14.5 3.1 21.7.2 1.7-.4 3.5-2.2 4-1.9.5-3.4-.8-3.9-2.4-1.1-3.5-2.1-7-2.6-10.6-3.5-24.3-7-48.6-10.3-73-.7-4.9-2.8-8.5-6.5-11.8-5.8-5.1-13-8.2-18.6-13.4-16.8-15.6-33.8-31-52.4-44.6-2.9-2.1-5.6-3.2-9-3.4-12.3-.7-24.5-1.9-36.8-2.4-7.2-.3-14.2-3.3-21.9-1.6 1.8 8.6 6.8 15.4 10.2 22.8 1.8 3.8 1.1 5.6-2.3 8.1-4.9 3.7-10.2 6.4-15.8 8.2-35.7 11.9-71.9 18-109.8 12.2-24.7-3.8-44.4-14.7-60.5-33.1-15.5-17.9-17.3-42-3.2-59.4 10.6-13 23.7-21.3 41.5-18.9 1.8.2 3.6 2 5.5-.9-4.4-11.8-8.3-24.2-8.3-37.3 0-3.8-1.9-5.9-5.4-7.5-7-3.3-12.5-8.7-18.2-13.8-11.8-10.4-21.7-22.4-31.3-34.7-3.2-4.1-5.8-4-10.1-1.9-10.1 5.1-19.2 12.1-29.8 16.2-3.2 1.2-4.4 3.8-4.2 7.2.2 4.3.2 8.6.5 13 .7 10.3 2.3 20.5 2.1 30.8-.1 7.6 2.1 13.2 6.9 19 8 9.7 16.2 19.4 20.1 31.8 5.9 19.1 11 38.4 14 58.1 4.2 28.2 9.7 56.2 14.2 84.4 3.4 21.6 8.1 43.1 11.9 64.7 4.3 24.5 7.4 49.3 13 73.6 3.4 14.9 7.1 29.7 10.8 44.5.6 2.3 1.6 4.3.2 6.6-.8 1.3-.8 3.4-2.9 3.5-2.7.2-3.2-1.8-3.6-3.8-1.5-7.5-2.9-15-4.6-22.5-5-22.4-11-44.6-15.1-67.2-7.3-39.6-13.3-79.4-20.2-119-2.8-16-6.7-31.9-9.2-48-2-12.5-6.5-24.4-8.5-36.8-2-12.5-5.4-24.7-9.4-36.6-4-11.8-12.8-20.9-20.5-30.4-4.2-5.2-6.3-10.5-6.3-17.3.1-17.6.3-35.2-2.2-52.7-.5-3.2-.5-6-4.8-5.8-15.9.7-31.9 1-47.8 2.3-11.6 1-22.5 4.3-32.4 11.5-8.6 6.3-16.5 13.4-25.2 19.5-6.7 4.7-12.8 10.2-20.1 16 8.2 2.4 15.7 1.9 22.1 5.9 3.9 2.4 3.2 4.5 1.6 7.2-1.4 2.4-4.1 3.2-6.4 4.5-8.9 5.1-18.1 9.9-26.7 15.6-40.8 27-79.6 56.6-116.9 88.3-2.2 1.9-4.8 3.6-5.6 7.1 4.4 4.9 11.2 5.2 16.8 7.7 14.4 6.6 29.1 12.5 45 15 9.3 1.4 11.3 6.6 6.4 14.9-4.2 7.2-8.4 14.3-9.8 22.7-2.4 14.4-4.3 28.9-3.9 43.6.2 8 2.4 15.8 1.6 23.8-1 9.3 2.5 17.6 5.4 26.1 1.6 4.7 4.8 6.9 9.4 7.6 26.1 4 49.8 13.6 70.8 29.8 23.1 17.8 36.2 41.2 38.7 70.1.6 6.5 3 10.5 7.6 14 7.4 5.6 15.5 10.1 23.2 15.2 16.4 10.9 33.9 19.7 50.7 29.7 28.7 16.9 60.5 25 92 34.2 9.6 2.8 19.2 5.7 28.9 7.4 23.2 4 46.7 6.3 70.1 8.6 34.6 3.4 68.2-1.8 101.4-10.8 14.8-4 27.8-11.6 35.6-25.5 7.5-13.3 14.5-26.9 18.9-41.7 1.7-5.7 1.9-11 .5-16.6-2.5-9.5 1.6-14 11.3-12.2 8.8 1.6 17.5 3.5 26.3 5.1 13 2.5 25.9 6.3 39.2 6.6 20.6.4 41.2 1.4 61.9.3 22.2-1.2 44.4-2.3 66.5-5.5 8.6-1.2 16.7-4.2 25-6.2 33.9-8.1 65.5-21.6 95.3-39.3 11.8-7 12.1-10 2.6-20.3-.9-1-1.8-2-2.8-2.8-15.9-12.7-29.9-27.3-44.3-41.6-13.6-13.5-28.6-22.7-48.3-25.3-24.3-3.2-48.5-8.4-71.3-18.3-13.4-5.8-27.6-10.5-38.5-20.7-11-10.2-22.7-19.5-34.1-29.2-10-7.8-19.3-17-31.2-22.6zm285.6 169.3c11.4-8 22.6-16 32.4-25 13.9-12.7 26.5-27 38.4-41.8 20.2-25.1 33.7-53.3 40.7-84.4 3.1-13.7 3.3-27.8.9-42.3-2-12.3-4.7-24.3-10.1-35.2-10.5-21.5-20.8-43.1-36.6-61.5-4.8-5.5-3.6-10.7 3.2-11.8 11.8-2 21.6-8.5 32.2-12.9 17-7 31.2-18.8 45.9-29.6 12.1-8.8 20.3-20.7 29-32.6 9.5-13 16.9-27.1 23.1-41.8 8.3-19.6 14.5-39.9 17.9-60.9 3.9-24.3 6.2-48.5 5.1-73.2-1.2-28.8-11.4-54.1-25.4-78.6-6.1-10.8-14.4-19.9-21.3-30-10-14.6-22.5-27.2-35.7-38.6-24.3-21.2-53.1-35.1-83.1-46.2-20.3-7.5-41.1-12.9-62.5-16.2-10.6-1.6-21-3.7-31.5-.3-5.6 1.8-7.6-3.3-10.3-6.1-2.8-3 1.1-5.5 2.8-7.4 6.5-7.5 10.3-16.3 12.4-25.7 3.5-16 3-32.2 1.9-48.4-.2-2.6-.9-5.2-1.6-7.8-4.8-18.7-11.5-36.6-20.3-53.9-14.8-29-35.4-52.8-59.7-73.9-12.6-10.9-26.1-20.6-40.3-29.2-15.3-9.2-30.6-18.6-47.4-25.3-11.8-4.7-23.9-7.9-35.9-11.7-20.5-6.5-40.6-14.7-61.8-18.8-17.6-3.4-35-7.4-52.8-9.5-13.2-1.6-26.4-3.1-39.6-3.6-31.6-1.2-63 1.7-94.5 4.3-6.6.5-13.1 2.1-19.7 2.7-14.3 1.3-27.8 6.5-41.7 9.4-26.8 5.8-53.4 12.5-78.9 22.9-11.4 4.6-22.7 9.4-33.8 14.5-19.1 8.7-36.6 20-53.4 32.5-15.9 11.7-29.4 25.8-42.5 40.4-10.7 11.9-21.6 23.6-30.6 36.8-14 20.7-25 43-33.4 66.7-2.1 5.9-4.3 7.5-9.5 5-8.3-4-17.4-4-25.9-6.7-3.2-1-6.9-1.8-11 .2 1.8 4.1 4.3 7.1 6.8 10.1 11.9 13.9 23.9 27.7 35.5 41.8 10.8 13.1 23.5 24.6 33.1 38.6 14.7 21.4 31.2 41.4 49.3 59.9 2.5 2.5 3.7 5.3 3.9 8.9.3 7.3.9 14.6 1.4 21.9.5 7.7 1.2 8.5 8.9 7.4 10.6-1.4 20.6-5 30.4-9.1 9.5-4 18.1-9.9 27.9-13.4 5-1.8 8.1-5.4 10.5-10.1 11.2-22.5 26.6-42.2 43.7-60.3 18.8-19.8 39.5-37.5 63.6-51 6.9-3.9 13.9-7.8 20.8-11.8 29.8-17.3 61.7-29.8 95-37.9 8.8-2.1 13.9-6.2 17.8-13.4 1.3-2.3 2.4-4.7 3.8-7.1 9.8-17.4 16.5-36.2 26-53.8 9.5-17.5 17.9-35.6 27-53.5 1.9-3.8 3.8-7.7 6.8-11 1.3-1.4 2.7-2.1 4.3-.8 1.2.9 1.1 2.3.4 3.6-7.9 15.7-15.6 31.5-23.7 47.1-6.4 12.4-12.7 24.7-17.8 37.8-3.6 9.2-6.7 18.7-11.6 27.4-2.8 4.9-6.2 10.3-4.6 16.5 1.2.3 1.9.7 2.4.6 25.3-6.7 51.4-6.4 77.2-7.4 20.2-.8 40.4 1.2 60.6 3.9 35.8 4.7 69.3 16 101 32.5 27.8 14.5 53 32.8 73.9 56.8 26.3 30.2 50.3 61.5 64.4 99.9 10.7 29.1 16.2 58.6 19 89.2 2.1 22.3 1.2 44.5-.5 66.6-1.1 14.2-.1 28.7-4.1 42.6-7.3 25.8-14 51.6-27.3 75.6-17.4 31.4-37 60.9-63.5 85-24.7 22.4-51.6 41.8-84.3 51.4-6.9 2-13.7 5.1-20.8 6.8-4.2 1-6.7 3.6-6.9 7.4-.2 4.2 4.1 3.1 6.6 4.1.6.3 1.3.2 2 .4 7.8 2.3 9.8 7.8 5.2 14.4-2.9 4.2-6.8 7.3-11.1 9.9-10.9 6.6-22.8 10.8-35.2 13.5-4 .9-7.6 1.7-8.9 6.6-1.6 6.2-6.5 8.1-12.3 7.9-17.2-.7-31.7-7-42.1-21.1-5.3-7.2-11.1-14.2-15-22.3-1.4-2.9-3.2-4-6.3-3.3-9.7 2.4-19.7 2.5-29.6 3.8-.3 0-.4 1.1-.9 2.3 14.9 8.5 28.3 19.5 40.9 31.2 13.9 12.9 28.7 24.8 43.6 36.4 17 13.2 34.2 26.3 50.9 40 9.7 7.9 19.7 15.7 31.5 20.8 11.3 4.9 23.2 8.1 34.7 12.2 20.5 7.4 41.7 11 63 15 5.8 1.1 10.9 2.9 15.3 6.6 11.3 9.3 22.4 18.9 33.1 28.8 17 15.6 32.9 32.5 49.2 49.6zm-441-224.1c-2.9-4.8-5.3-8.4-7.3-12.1-2.7-5-4.5-10.4-4.4-16.2.2-7.7 3.5-10.2 10.9-7.9 4.6 1.4 9.2 1.5 13.8 1.8 16.2.9 32.5 1.6 48.7 1.9 13.3.3 26.5.2 39.8 0 7.4-.1 8.2-1.3 6.7-8.4-2.3-10.4-2.3-21.1-2.3-31.6 0-21 5.4-41.3 12.2-61 3.8-11.1 8.5-22.2 13.5-33 2.4-5.1 4.5-10.4 5.5-15.9 3.7-19.2 7-38.4 4.2-58.2-1.6-11.5-2.5-23-7.9-33.7-1.5-2.9-4.5-6-2.6-10.3 6.4 2.5 9.9 6.9 12.7 13 5.5 12.2 6 25.2 7.4 38 1.2 11.1 2.5 22.5-.6 33.5-5.1 18.4-9.7 36.8-17.7 54.5-7.2 15.9-13 32.6-16.4 50-2.8 14.1-3.9 27.9-1.3 42.2 3.3 18.3 9.2 35.1 22.5 48.7 9 9.2 19.3 16 32.3 18.3 3 .5 6.1.5 6.5-2.4 1.1-7.4 6.8-6.9 11.8-7.8 14.8-2.6 29.1-6.5 40.6-17.1 1.4-1.3 3.9-2 3.3-4.5-.6-2.6-3.2-1.7-5-2.1-12.1-2.6-12.1-2.6-7.4-14.5 5.9-15.2 7.1-30.4-.4-45.3-2.9-5.7-1.6-9.9 2.4-14.2 7-7.6 12.5-16.1 17.1-25.6 2.6-5.3 5-10.8 7.3-16.2 8.1-18.8 16.9-37.3 22.1-57.3 5.4-20.6 8.9-41.4 8-62.9-.2-4.1-.9-8.5 1.1-13.3 5.3 2.7 5 7.1 5.1 11.3.5 12.7-.4 25.3-1.8 37.9-2.7 23.6-9.3 46.3-18.3 68.1-7.2 17.5-15.6 34.5-25.5 50.7-5.4 8.8-8.9 17.2-5.4 27.7 1.4 4.2.2 9.2 0 13.8-.1 2.3-.9 4.6 1.3 7 23.1-4.2 44.8-12.8 65.1-25 13.7-8.2 25.8-18.6 37.7-29.2 18.6-16.5 33.6-35.6 46.1-57 12.5-21.3 22.6-43.6 31-66.8 4.2-11.6 4.7-23.9 8.4-35.5 1-3.1 1.5-6.4 2.1-9.7 3.3-18.4 3.9-37 4.4-55.6.6-24.3-1.3-48.2-6.2-71.9-6.3-30-16.2-58.5-31.2-85.6-14.2-25.6-32-48.1-52.4-68.6-20.5-20.5-42.9-38.6-69.2-51.4-22.4-10.9-45.1-20.9-69.8-25.4-20.6-3.8-41.6-4-62.4-6.3-15.6-1.7-31.2-2.3-46.5-.5-34.8 4.2-69.7 8.6-102.8 21.2-15.5 5.9-31.3 11-46.6 17.3-15.2 6.3-28.5 15.5-42.9 23.1-20.4 10.9-37.8 25.6-54.8 41-15.5 14-26.8 31.2-37.8 48.6-3.7 5.8-8.1 11.2-11.1 17.6-6.9 15.1-12.8 30.6-18 46.3-13 39.1-17.9 79.2-14.4 120.3 1.8 21.3 6.7 42 14.4 61.9 7.6 19.6 15.3 38.7 29.4 55.3 13.8 16.2 28.8 30.2 46.3 41.9 2.1 1.4 4.3 3.2 7.4 2 2.6-8.5 4-17.5 8.6-25.3 8.2-13.8 16.6-27.3 32.7-33.5 2.5-.9 5.5-2.7 6.6.9.8 2.5.7 5.7-3.3 7.2-18.9 7.2-28.2 22.8-33.3 40.8-7.5 26.4-1.8 51.5 11.7 74.7 10.7 18.3 25.6 33 43.5 44.5 2.1 1.4 3.9 2.5 2.6 5.5-1.3 3.1-3.5 4-6.4 2.6-6-2.9-12.2-5.1-17.3-9.7-9.9-9-19.2-18.4-26.2-29.9-1.8-3-3.9-5.2-7.2-6.4-16.7-5.8-30.8-1.7-41.3 12.6-7.8 10.5-9.4 22.9-6 34.8 3 10.6 11.4 18.6 20.2 25.2 17.4 13.1 37.7 19.4 59.1 21 16.1 1.2 32.2 1 48.4-2.6 16.6-3.3 32.3-9.7 48.9-17.3zm-371.3-104.1c-6-4.9-12.1-5.1-17.9-6.1-2-.3-4.2-.8-4.7-3-.3-1.7 1.1-3.1 2.4-4.2 1.3-1.1 2.6-2.1 3.9-3.1 17.9-13.8 35.8-27.6 53.8-41.3 3.7-2.8 3.5-5.1.3-7.9-4.1-3.4-8-7-12.2-10.4-13.6-11-28.1-19.9-46.5-20.7-11.3-.5-22.5-2-33.7-4-10.9-1.9-21.9-2.4-32.6-5.8-10.7-3.4-22.1-4.5-33.1-6.8-30.5-6.5-61.5-11.3-91.8-19.1-6.6-1.7-12.4-.7-18 3-6.9 4.6-14.3 8.7-21 13.5-7.7 5.4-16.8 8-24.6 13.1-2.6 1.7-5.2 1.3-6.5-1.9-1.1-2.7 1-3.2 2.8-4.1 5.6-2.9 10.6-6.8 16-10 9.4-5.5 20-9.1 28.1-16.8-4.8-3.8-10.6-2.8-16-3.7-22-3.5-43.4-9.9-64.9-15.4-9-2.3-18.1-4.4-27.1-6.8-2.1-.6-5.3-1-4.5-4.1.7-2.9 3.8-2.2 6-2 3.3.4 6.6 1 9.8 1.7 23 5.2 45.7 11.8 69.3 14 2.6.2 5.2 1.1 7.8 1.8 25.4 6.4 51.2 11.4 76.7 17.5 20.6 4.9 41.6 8.8 62.4 13.1 7.2 1.5 14.4 4.4 22.1 3.3.2-4-2.4-5.5-4.3-7.1-16.5-14-30.3-30.6-44.7-46.7-12.4-13.9-24.6-28-36.9-42-.9-1-1.9-1.9-2.5-3.1-1-1.9-1-3.9 1.1-5.2 1.8-1.1 3.3-.1 4.3 1.2 11.9 15.1 25.1 29.2 38.4 43.1 12.8 13.5 25.1 27.5 37.8 41.2 5 5.3 10.6 10 15.3 15.6 4.4 5.2 9.5 7.6 16.1 8.6 12.8 1.8 25.8 2.5 38.4 5.8 7.4 1.9 15 2.9 22.6 3.8 8.2.9 16.3 2.5 22.9 8.5 7.9 7.1 16.3 13.7 24.7 20.2 12.5 9.6 14.2 8.8 16.1-6.9 1.2-9.6 2.9-19.2 6.6-28 4.5-10.6 10.2-20.7 18.7-29.2 6.6-6.6 12.9-13.3 20.9-18.4 5.3-3.3 5.6-5.3 1.6-10.5-3.6-4.8-7.6-9.3-10.6-14.5-9-15.6-19.5-30.1-29.6-45-6.1-9-17.8-13.3-28.2-9.9-13.3 4.3-26.8 6.3-39.9.7-7.3-3.2-13.3-2.4-19.6 1.4-2 1.2-4.1 2.1-6.2 3.2-3.1 1.7-6.1 2-9.5.6-6.8-2.9-12.6-7.2-13.8-14.5-1.3-8 4.9-12.5 10.8-16.5.5-.4 1.3-.4 1.8-.8 6.8-4.2 13.5-8.4 20.3-12.6-1-3.7-3.7-6.3-5.6-9.5-8.2-13.7-16.5-27.3-19.8-43.3-1-4.9-1.1-9.6 2.6-13 4.1-3.7 3.6-7.4 1.5-11.6-2.5-4.8-.9-8.1 3.5-10.9 5.7-3.5 10.8-7.7 15.3-12.7 3.4-3.8 7.3-4.1 11.6-1.8 3.2 1.7 6.2 3.8 8.7 6.5 8.3 9.3 18.7 16.1 29.1 22.6 11.3 7.1 24.7 7.1 37.4 9.4 2.1.4 6-.4 5.7-4.1-.8-11.1-.2-22.2-8.4-32-19.2-23-37.5-46.7-56-70.3-20.3-25.9-40.8-51.7-60.5-78.1-5.2-7-10.8-9-18.6-7.9-1.6.2-3.3.5-4.9.7-10.1 1.6-20.3 2.7-30.4 4.8-12.6 2.7-25.4 3.7-37.8 7.8-35.7 11.8-68.1 28.7-96.9 53.5-33.5 28.9-60.7 62.4-80.5 101.5-21.3 42.1-36.3 86.1-39.5 133.8-1.7 25.8-.1 51 4.1 76.3 2.7 16.1 7.1 31.8 11.4 47.4 5.6 20.2 12.6 39.9 23 58.2 4.6 8.1 9 16.3 14.3 24 9.6 14 18.3 28.5 29.8 41.2 13.5 14.8 28.7 27.6 43.6 40.9 24.3 21.8 52.1 37.6 82 50.3 4.3 1.8 7.5.8 10.8-2.2 4.4-4 9.1-7.8 13.8-11.5 16-12.4 32.5-24.3 48-37.3 17.2-14.3 34.9-27.6 53.7-39.7 9.9-6.2 19.5-12.8 30.1-19.8zm-71.1 288c-9.7 0-35.4 5.8-41.2 8.8-1.7.9-3.3 2.2-4.8 3.5-17.9 14.9-16.3 39.2-4.8 57.1 15.4 23.7 36.3 41.9 63.4 52.5 13.5 5.3 27.3 8 41.4 9.2 14 1.2 27.1-2.8 37.5-12.7 12.3-11.7 12.3-26.2 8.3-41.4-1.8-6.8-5.7-12.8-7.5-19.4-3.9-14.4-13.1-24.2-25.1-32-8.1-5.2-16.8-9.3-25-14.3-14-8.5-29.5-9.5-42.2-11.3zm212.5-631.6c-1.2-.4-1.8-.8-2.4-.7-1 .1-1.9.5-2.8.9-16.2 8-33.2 12.6-51 16.1-18.2 3.5-35.1.4-51.5-5.5-14.3-5.2-27.1-13.9-39.3-23.2-4.2-3.2-7.6-9.4-12.4-9.2-5.4.1-8.2 7-12.6 10.5-.8.6-1.5 1.3-2.2 2-1.5 1.5-2.5 3.5-.9 5.3 4.3 4.7.8 8.3-1.8 11.3-3.1 3.6-3.3 7.4-2 11.1 3.1 9.4 6.4 18.9 13.3 26.4 4.5 4.9 9.1 9.7 13.6 14.5 6.4 6.8 5.6 11.5-2.8 16.2-3.8 2.1-7.7 3.9-11.5 5.9-6.4 3.5-12.6 7.3-18.1 12.3-2.4 2.2-2.7 4.1-.5 6.7 4.2 5.4 6.1 5.9 11.5 2.2 1.9-1.3 3.6-3 5.5-4.3 13.2-8.3 14.4-6.5 22.7.4 6.2 5.1 13.3 7.6 22.1 5.1 6.1-1.7 11.9-3.8 17.5-6.7 2.6-1.3 4.6-1.9 7.4-.6 7 3.2 14.6 4.1 22.3 4.4 15.2.6 30.3 3.4 45.6.4 4.2-.8 7.9-1.1 7.2-6.8-.2-1.2.9-2.6.8-3.9-.7-20.6 6.7-39.8 10.7-59.5 2.3-10.9 7.3-21 11.6-31.3zm20.7 259.9c-8.7-12.3-14.8-26-21-39.5-4.4-9.6-8.7-19.4-11.1-29.8-1.6-6.6-2.8-7.4-8.4-3.4-13.6 9.7-26.1 20.6-36.9 33.4-5.8 6.9-10.4 14.6-13.4 23.2-2.8 8.2-5.1 16.5-5 25.2 0 2.9.2 6.4 4.5 6.4 14.3-.2 28.6.8 42.9-.5 5.9-.5 12-4.8 17.2 1.9.9 1.1 3.1 0 4.6-.9 8.8-5.2 18.4-9.1 26.6-16zm-91.7-145.1c11.8 21.3 26.2 40.3 40 59.7 1.4 2 2.8 6.3 6.8 3.6 3.4-2.2 8.1-3.4 6.6-9.6-3.8-15.2-5-30.8-5.9-46.4-.3-4.6-2.7-5.6-6.5-5.1-9.3 1.1-18.5-.7-27.8-1.2-4.2-.1-8.3-2.3-13.2-1zM2328 651.6c-.2.2-.4.3-.7.5.2.2.3.5.5.6.2 0 .4-.3.7-.4-.1-.3-.3-.5-.5-.7z"/><path fill="#111" d="M1547.2 2388.5c-.8 2.5-1.3 4.4-1.9 6.3-1.4 4.3-4 6.4-8.9 6.1-7.9-.5-15.9-.3-23.8-.8-10-.6-12.5-4.5-9.9-14.2 2.7-9.9 5.2-19.9 7.9-29.8.6-2.1.8-3.8-.7-5.5-5.8-6.9-11.3-13.9-17.3-20.6-3.1-3.5-5.1-3.1-7.3 1.3-7.2 13.9-12.3 28.6-16.3 43.7-1.2 4.5-2 9.1-3.8 13.3-3.9 9.1-8.2 10.9-17.3 7.2-7.4-3-14.7-6.3-21.7-10.1-37.8-20.8-72-46.4-101.2-78.3-10.5-11.5-21.5-22.7-30.4-35.4-10.8-15.4-20.8-31.5-28-49.1-2-4.8-2.7-9.6-1.5-14.5 7.7-32.9 25.6-58.4 56.8-72.3 11.9-5.3 25.5-7.6 39-6.7 11.7.8 19.9 6.8 23.8 18.1 2.8 8.2 5.8 16.3 8.2 24.6 1.1 3.9 3.3 6.9 5.3 12.4 1.9-11.8.3-21.6 2-31.2 1.1-6.2 1.6-12.5 3.4-18.6 1-3.5.7-6-3-8.1-26.8-15.2-49.6-35.5-72.4-56-16.5-14.8-33.3-29.4-47.7-46.4-11.6-13.7-22.4-27.8-31-43.7-7.7-14.3-16.4-28-23.5-42.5-10.3-21.1-20.6-42.2-27.5-64.9-6.9-22.7-11.3-45.8-14.6-69-3.4-24-3.6-48.4-2.8-72.7.9-24.3 4.8-48.2 8.6-72.1 6.5-41.5 19.8-81.2 34.1-120.4 9.2-25.2 20.3-49.9 34.5-72.8 13.6-22 28.7-43 45.3-63 18.1-21.8 38.2-41.4 58.5-61 31-29.9 66.4-54 103.3-75.8 14-8.3 29.1-14.3 44.4-20.1 13.3-5.1 26.2-11.5 39.7-16 19.2-6.4 38.6-11.6 58.5-15.8 32.4-6.7 65-9.6 98-9.3 29.6.2 59.1.6 88.3 6.3 9.2 1.8 17.8 4.9 26.9 6.9 11.5 2.5 22.6 7.1 33.9 10.7 17.4 5.6 33.9 13.2 50.6 20.5 16.8 7.3 32.6 16.3 49.1 24.1 7.5 3.6 14.5 8.1 21.3 12.9 24.4 17.1 49.6 33.2 71.7 53.5 24.7 22.7 49 45.6 70.1 71.9 21.2 26.5 41.5 53.6 57.1 83.8 14 27.2 26.7 55.1 34.6 84.7 4.8 18.2 7.4 37 11.5 55.4 8 36.1 8.6 72.5 7.4 109.1-.9 26.5-3 53.1-8.2 79.2-6.4 32.3-16.4 63.6-27.7 94.5-7.3 19.9-16.7 38.9-26.1 57.9-11.7 23.8-26.8 45.1-42.7 65.7-17.4 22.5-37.2 43.2-58.1 62.7-21.3 19.8-44.6 36.8-69.5 51.6-5.1 3-10.5 5.7-15.8 8.4-2 1-3.4 2.2-3.6 4.3-.3 2.7 2.2 3.2 3.9 3.5 5.1.9 8.7 4.6 13.3 6.6 6.7 2.9 9.5 8.9 10.1 16 .5 7-5.2 9.7-9.8 12.6-3.6 2.2-7.9 3.3-12.3 3.8-4.3.4-8.6 1.1-12.8 1.7-8.3 1.2-8.6 1.5-7.3 10.1 2.5 16.1 5.2 32.1 7.5 48.2 2.3 16.8 5.1 33.4 6.7 50.3 1.1 12.1 4.7 24 6.2 36.2 1.3 9.8 3.3 19.5 5.1 29.2 2 10.7.4 14-9.5 18-12.4 5.1-25.2 5.1-38.2 2.4-5.8-1.2-7.1-5.3-7.7-10.2-2.2-17.1-4.4-34.2-6.5-51.3-2.3-19.1-4.6-38.2-7.3-57.3-3.1-21.7-4.7-43.6-6.9-65.4-.7-6.8-1-7.1-7.9-7-25.6.2-51.2.3-76.7.6-5.3.1-10.6.7-15.9 1-3.3.2-5.5 1.9-7.7 4-15.1 14-29.6 28.6-42.4 44.8-7 8.9-13.2 18.2-19.5 27.6-11.3 16.8-22.7 33.4-33.2 50.7-10.5 17.3-20.2 35-26.9 54.1-4.1 11.6-10.3 22.2-13.7 34.1-1.7 5.9-8.8 5.2-13.7 7-1.4.5-3.3.1-4.9-.3-31.1-7.1-60.8-17.1-84.5-39.9-2.4-2.4-5.3-3.9-8.2-5.6-2.9-1.4-4.5-4.8-8.9-5.9zm338.8-211.8c-4-4-7.9-8.1-12-12-7.5-7.1-14-15.1-19.3-23.9-16.4-27.5-25.4-57.7-30.1-89-4.4-29.1-4.6-58.6-1.1-87.9 2.6-22 5.1-44.1 10.6-65.8 6.5-25.4 13.3-50.6 22.9-75.1 8.7-22.2 15.6-45.1 22.9-67.8 8.3-25.6 12.2-51.7 12.4-78.2.1-17.6 0-35.6-6-52.8-1.6-4.5-3.5-9.3-3.3-15 8.6 2.2 10.5 9.1 12.2 15.7 5.7 22.1 5.4 44.7 4.8 67.3-.3 13.1-1.4 26.2-4.3 39.2-2.9 12.9-5.7 25.8-10 38.4-6.8 20.1-13.6 40.1-21.3 59.8-10.1 25.9-17.5 52.8-24.1 80-5.8 23.7-7.8 47.8-8.7 72-1 25.5-1.5 51.1 3 76.6 2.8 15.8 6.9 31 13.1 45.7 7.7 18.1 16.3 35.6 29.3 50.7 7.6 8.8 16.3 16.3 26.8 21.4 3.2 1.6 5.7 1.7 8.8-1.4 3.6-3.6 7.9-4.5 13.3-1 11.6 7.7 22 6.3 32.3-3.1 5.7-5.2 5.8-7.1.8-13-5.8-6.9-11.2-14-15.8-21.8-3.8-6.4-6.1-13.2-7.4-20.5-.5-2.6.6-4.7 2.8-5.8 1.9-.9 3.8-.5 5.4 1.3 2.9 3.2 7 5.1 9.6 8.6 4.1 5.5 10.3 8.2 15.9 11.8 3.6 2.2 6.1 1.2 8.4-2 7.3-9.7 7.1-12.1-1.6-20.8-1.2-1.2-2.3-2.4-3.5-3.5-5-5-9.7-10.1-12.7-16.5-1.4-2.9-2.5-5.7-.1-9.3 5.3-8 9.8-16.5 14.8-24.6 1.8-2.9 2.7-6 3.6-9.2 5.7-20.5 2.6-40.4-5.8-59.2-4-9-2.6-14.9 4-21.1 6.3-5.9 12.7-11.8 18.3-18.3 14.9-17.5 26.4-37.4 37.7-57.3 14-24.7 23.2-51.4 30.3-78.8 11-42.8 18.2-86.2 21.8-130.2 1.2-14.5 2.1-29.1-.2-43.7-.9-5.9-1.5-11.9-1.9-17.8-.2-2.4-.8-5.2 1.9-7 3.2 2.2 4 5.3 5.2 8.4 2.9 7.7 2.2 15.7 2.7 23.7 2.3 33.6-1.3 66.8-6.5 99.9-3.2 20.4-7.9 40.4-13 60.3-5.8 22.8-11.2 45.8-20 67.7-6.4 15.9-13.2 31.8-24 45.7-4.2 5.4-9.2 10.4-12.5 16.6-4.9 9.1-11.7 16.8-18.2 24.8-4.6 5.6-12.3 10-13.5 16.7-1.1 6.6 2.5 14.1 4.2 21.2 3.4 13.8 2.3 27.7 1.7 41.6-.2 3.8-1.1 7.8-3 11.5-5.4 10.6-9.4 22-16.3 31.8-2.3 3.3-1.1 5.2.6 7.9 4.1 6.6 10.4 11 15.2 17 4.3 5.4 4.9 10.3 3.4 16.6-1.4 5.7-5.9 9.7-7.2 15.2-1.2 5.1-4.2 4.6-8.3 3.5-8.5-2.3-15.4-7.4-22.6-12-1-1.1-2-3.2-3.6-1.4-1.2 1.3.6 2.8 1.3 4.1 2.2 6.9 6.6 12.1 11.8 17 7.2 6.8 7.2 7.1 16.1 2.8 31.2-15.3 59.7-34.5 84.7-58.7 9.8-9.5 18.6-20 28.4-29.3 21-19.9 37.3-43.1 51.3-67.9 15.3-27.2 30.3-54.4 41.2-83.9 12.1-32.7 21.5-66 28.1-100.2 1.7-8.9 1.6-17.9 2.8-26.7 2.5-19.7 4.8-39.7 4-59.6-.6-14.5-1.1-29.1-2.4-43.7-2.9-31.1-8.1-61.6-14.9-92-2.9-13-7.5-25.5-11.9-38-6.7-19.4-14.7-38.5-25-56.2-11.4-19.5-24.1-38.1-36.5-57-6.6-10-15.2-18.4-22.8-27.5-15.3-18.3-32.4-34.9-48.7-52.3-4.6-4.9-10.7-7.9-15.6-12.4-22.2-20.5-45.8-39-71.5-55-28.3-17.7-58.5-31.4-89.4-43.2-12.9-5-26.3-9-39.5-13.4-32.3-10.8-65.1-18.2-99.1-20-22.6-1.2-45.1-2.8-67.8-.8-16.6 1.5-32.8 5.1-49.3 6.9-28.7 3.1-55.9 11.5-82.5 22-10.1 4-20.2 8.2-30.4 12.2-14.5 5.8-29.3 11.2-42.2 20-21.4 14.5-43.5 28-64.1 43.8-25.9 19.9-48.7 42.9-71.1 66.5-11.4 12-21.8 25.1-32.5 37.9-16.7 19.9-31.3 41.2-42.7 64.8-9.4 19.5-17.5 39.4-26.2 59.1-7.6 17.4-14.3 35.2-19.6 53.1-7.9 26.8-14.9 54.2-16.6 82.5-.3 5.6-.4 11.4-1.6 16.9-5.8 25.5-3.4 51.4-3.9 77.1-.3 16.4 3.4 32.3 6 48.3 3.9 24.1 10.7 47.1 19.8 69.7 4 9.9 9.4 19 13.4 28.9 11.4 27.9 27.4 52.9 45.1 77.1 25.6 35 57.6 63.3 91.1 90.2 15.3 12.2 32.3 22 49.1 32.1 4.2 2.5 5.9 4.3 3.8 10-8 21.3-13.3 43.2-8.5 66.3.5 2.4-.5 5.3-1.2 7.8-1 3.4-3.5 3.9-6.1 1.8-3.4-2.7-6.5-5.8-8.2-9.9-5.8-14.1-13.3-27.5-17.3-42.4-3.2-11.9-14.3-19.1-26.5-16.6-12 2.4-24.3 4.8-34.9 11.1-21.4 12.8-35.3 31.6-42.4 55.5-1.3 4.4-1 8.1.9 12.4 6.8 14.8 15.6 28.5 24.8 41.9 11.8 17.3 25.1 33.5 39.3 48.8 16.4 17.6 35.9 31.3 55.8 44.6 17.5 11.7 35.4 22.1 56 27.2 3.5.9 5.4 1.3 6.5-3 4.5-18.4 11.2-36.1 19.2-53.2 3.5-7.6 2.7-12.8-2-19-10.9-14.5-18-31-23.2-48.3-1-3.2-1-6.2-.8-9.6 1.1-14.5 6.1-27.5 12-40.6 9.9-21.9 24.9-38.5 46.4-48.7 13.5-6.5 28-9.4 43.4-7.6 9.1 1 16.1 5.7 23.6 9.7 10.9 5.8 18.8 14.3 23.4 25.9 2.3 5.9 4.8 11.7 8 19.4 3.7-12.1 7.4-21.7 9.5-31.7 3.2-15 11.5-27.4 19.3-40.1 1.4-2.3 3.5-4 6.7-2.3 3.2 1.7 1.1 3.6.7 5.8-1.4 7.4-7.3 12.5-9.7 19.3-8.8 25.4-18.5 50.6-18.4 78.1 0 1.7 0 3.4-.5 5-.8 2.8-2.9 4.6-5.8 4.6-3.1.1-5-1.9-5.3-4.9-1.9-15-8.4-28.6-12.8-42.9-6.8-22.2-20.6-35.7-44.6-37.2-21.8-1.4-41.1 5.5-55.6 21.6-15.9 17.6-26.9 38.5-32.7 61.8-.8 3.3-.3 6.4.5 9.8 2.9 10.8 9.3 19.7 14.4 29.4 11.8 22.6 27.3 42.6 44.2 61.3 18.2 20.1 37.6 39.4 60 55.1 8.4 5.9 16.2 12.9 25.7 17 18.3 7.9 36.9 15.1 57.6 16.1 2.9-11.1 7.7-22 12-33.2 13.7-35.9 31.6-69.6 53.4-101.2 10.4-15 21.2-29.7 32.5-44.1 15.1-19.3 33.1-35.5 51.7-51.1 5.3-4.4 11.2-8.9 17.6-10.9 14.6-4.3 29.7-6.7 44.1-11.9 2.7-1 5.9-.8 8.7.8.2 1.5 1.5 3.3-.4 4.5-2.9 1.7-5.7 3.6-8.8 4.5-10.9 3.1-21.3 7.5-32.6 9.2-7 1-12.2 4.9-17.7 11.3 5 0 8.3.1 11.6 0 15.3-.5 30.6-.9 45.9-1.5 30.2-1.2 60.4-2.4 90.6-3.7 5.3-.2 10.7-.6 15.8-1.7 6.5-1.3 10-9.9 5.7-13.7-5.6-5-13.2-6-19.8-9.3-2.4-1.2-4.6 2-6.8 3.4-7.1 4.5-14.5 6.3-22.7 4.2-5.4-1.4-11-2.5-16.3-4.3-3.2-1.1-5.4-1.5-8 1.1-4.4 4.5-9.2 3.4-14.7 1.6-6.1-3-10.2-8.2-16.2-10.3zm35.1 54.6c1.5 17.4 2.6 33.6 5 49.7 3.2 21.6 5.7 43.4 9.1 65 2.4 15.1 2.8 30.4 6.2 45.3 1.7 7.5 3 8.8 10.4 9.6 8.2.9 15.8-1 23.3-4 2.9-1.1 4.2-2.6 3.1-6-1.4-4.7-2.4-9.7-3.3-14.5-4.3-21.2-6.4-42.6-9.1-64-3.4-26.6-7-53.3-11-79.8-3.1-20.3 2.4-18.5-21.5-17.2-13 .7-13 .9-12.3 13.2.2 1.3.1 2.7.1 2.7zm-401.8 130.6c-4.4 9.2-4.5 19-7.8 28-.9 2.5 1.2 3.5 3.4 3.6 6.6.2 13.3.2 19.9.3 1.4 0 2.6-.4 3.4-1.6 1.5-2 1.3-12.3-.7-14.1-5.9-5.4-10.9-11.7-18.2-16.2zm767.2-1086c-18.1.1-35.7-5.9-50.3-20-9.2-8.9-10.3-22-2.1-32.1 5.1-6.3 11.7-10.5 19.9-12.3 12-2.6 24-1.6 35.2 2.7 12.3 4.6 24.3 10.4 33.3 20.8 11.3 13.1 6.6 30.6-9.7 36.7-8 3-16 3.5-26.3 4.2zm2.2-8.8c10 2 18.9-1.7 26.7-8.7 5.3-4.8 5.4-9 .4-14.3-10.9-11.5-23.9-18.9-39.3-23-10.1-2.6-19.1-1-28.1 2.6-9.9 3.9-12.4 13-6.8 21.9 3 4.8 6.7 8.7 11.6 12 10.6 6.8 22.3 9.5 35.5 9.5zm-1093.6 70.4c-11.3 1.1-19.7-3.9-25.4-13.6-8.2-14-5.7-29.2 7.4-39 15.5-11.5 33.1-14.4 51.8-9.1 6.9 2 12.2 7.1 16.4 12.5 3.6 4.6 2.3 11.1.6 16.3-5.9 17.3-18.2 28-35.8 32.2-4.7 1.1-9.7 2.7-15 .7zm4.1-8.2c11.2.3 20.1-4.9 28.7-11.8 7.4-5.9 9.8-13 9.2-21.8-.4-6.5-2.5-9.2-8.6-10.5-14.7-3.1-28.7-2-42.3 5.3-7.6 4.1-10.8 10.7-12.6 18.2-1.6 6.4 2.4 14.3 8.2 16.7 5.4 2.3 11 4.9 17.4 3.9zm955.8-1.5c-19.5-.6-34.2-10.2-44-27.2-6-10.5.3-34.4 18.6-39.5 9.1-2.5 18.2-1.5 26.3 2.2 11.8 5.4 22.8 12.7 29.1 24.7 4.8 9.1 6.4 18.8 0 28.3-4.3 6.4-11.1 8.1-17.7 10.1-3.7 1.3-7.8 1-12.3 1.4zm2-9c10.8 1.9 17.6-4.1 22.6-11.8 4.8-7.5-2.8-11.6-6-17-7.3-12.2-19.4-16.6-31.8-20.2-6.7-2-13.2 1.3-18.7 5.1-5.4 3.8-8 12.1-5.5 17.9 2.6 6 5.6 11.8 11.1 16.3 8.5 6.8 18 9.7 28.3 9.7z"/><path fill="#FEFEFE" d="M700.6 983.4c-5.1-1.6-4.1-6.3-4.8-9.9-1.1-5.5-1.2-11.2-2.1-16.8-.6-4.2-1.3-8.4-4.6-12.6-3.2 3.2-3.2 6.1-2.6 9.9 1.2 8.2 1.6 16.4 2.6 24.6.4 3.3-.4 4.7-3.9 5.2-8.2 1.1-16.4 2.2-24.5-.8-5.9-2.2-10.5.2-11.9 6.4-.6 2.8-1 5.6-.7 8.7 1.8 18.3 8.3 34 23 45.8 4.1 3.3 7.7 7.3 11.8 10.7 6.3 5.1 7 11.9 5.6 18.9-4.7 25.6-17.5 47.1-34.6 66.2-9.6 10.7-28.2 16.1-44.6 14.4 0-4.7 4.7-8.1 3.5-13.1 3.2-9.1 3.1-9.4-6-16.5-1.9-3.6-5.4-4.4-8.9-5.8-11.4-4.3-22.6-9.2-34.2-15.1 5.3-6.5 10.2-12.7 12.9-20.2 2.4-6.6 2.4-7.4-3.6-11.4-5.3-3.5-10.7-6.6-16.2-9.9-10.4-6.2-19.5-14.1-28.1-22.3-13.2-12.7-20-29-21.2-47-1.1-16.3.5-32.5 5.3-48.3.4-1.3.7-2.6.9-3.9.7-3.9 6.2-6.4 4.1-10.5-1.8-3.6-7-3.6-10.1-6-17.6-13.7-33.8-28.7-47.3-46.7-19.7-26.5-30-56.6-37.2-88.3-6.1-27-5.9-54.1-1.5-81.1 1.1-6.7-.8-11.3-6-14.2-16.2-9.2-26.4-24.2-37.5-38.2-9.2-11.7-15.7-25.4-21.4-39.2-4.2-10.1-9.2-19.8-12.3-30.4-9-29.9-12.2-60.5-9.1-91.5 2.8-27.2 8.5-53.8 26.2-76 2.9-3.6 5.8-7.2 10-9.4 1-.5 2.1-1.8 3.5-.7 1.6 1.1 1.6 2.9 1.3 4.5-.3 1.2-1.2 2.3-1.8 3.5-1.2 2-2.3 4-3.5 6-9.4 16.5-9.5 16.7 1.5 31.4 3.3 4.4 4.7 10.1 8.6 14.9 6.5-8.3 4-15.9-1-21.4-6.5-7.2-5.6-12.9-.8-20 2.4-3.5 3.9-7.7 5.8-11.6 4-8.5 2.9-11.8-5.5-17.1-1.1-.7-2-1.6-3.4-2.7 3.3-6 6.5-11.8 9.6-17.6 1.6-3.1 4-5.4 6.9-6.9 6.8-3.5 9.4-1.9 9.6 5.8 0 .3-.1.7 0 1 .8 2.5-2 6.6 2.6 7.4 5.2.9 5.7-3.4 6.7-6.9 1.2-4.1 2-8.4 3.3-12.5 1.1-3.6 3.8-5.8 7.6-4.4 3.5 1.3 3.6 4.7 2.4 7.7-3.8 9.6-5.9 19.6-7.5 29.9-1.1 6.7 0 12.2 4.8 17.4 3.1 3.4 5.1 2.5 7-.4 3.6-5.4 8.4-9.3 13.9-12.4 1.7-1 3.7-1.9 5.6-.5 2.1 1.7.5 3.7-.1 5.4-2 6-3.9 12-6.4 17.8-2.5 5.9-3.1 11.3 1.1 16.9 4.2 5.5 4.1 12.2 2.1 18.2-3.5 10.6-10 19.2-20.8 23.6-2.4 1-3.8 2.3-4.5 4.8-1.4 4.9-2.3 9.9-.8 14.7 6.4 22 16.5 42 32.6 58.7 6.4 6.7 14.2 10.9 22.6 14.2 4.6 1.8 9.8-1.4 8.4-5.7-1.6-5.1 1.2-7.7 3.4-10.6 15-19.7 32.8-36.6 51.7-52.5 4.3-3.6 9.3-6.8 14.6-8.5 12.3-4.1 19.2-13.9 25.8-23.6 17.7-26.4 43.1-43 71.1-56 14.5-6.7 30.1-9.7 46.3-10 12.7-.3 25-.7 37.4 3 9.5 2.8 17.9 7.2 24.7 14.3 4.2 4.3 8 6.3 14.6 5.8 7.7-.5 16 1.3 23.4 4 5.8 2.1 8.3.2 11.7-3.7 20.2-23.1 26.7-51.3 31.2-80.5 3-20 1.6-39.9-.3-59.7-1.1-11.6-5.1-22.8-9.9-33.3-7.7-16.8-8-32.2 5.2-45.8 8.3-8.5 10.2-18.2 9.1-29.2-.3-2.6-.5-5.3-.3-8 .3-3.6 2.5-4.4 5.4-2.4 6.6 4.7 8.9 14.5 5.5 23.5-.6 1.5-1.4 3-2.4 4.4-3 4-1.8 6.5 1.5 10.1 11.7 13.2 15 29.1 13.1 46.3-.1 1-.7 1.9-.7 2.9 0 .9.3 2.1 1 2.7 1.1.9 2.5.5 3.6-.3 3.5-2.4 3.6-6.3 4-9.8 1.5-14.8-1.7-28.6-10.6-40.5-3.6-4.9-4.4-8.8-2.6-14.5 3.3-10.6 1.6-20.9-4.1-30.6-2.6-4.4.6-15 5.1-17.5 2.8-1.6 4.1.6 5.7 2.3 5.9 6.8 6.7 6.7 10.7-.8 4.7-9 6.8-9.8 17.7-7.4 4.2.9 6.4 2.3 4.8 7.4-2 6.3-3.2 12.9-4.5 19.4-1.5 7.8-1.8 15.7-1.3 23.7.2 2.7-.1 5.6 3.4 6.3 2.9.6 5.2-.6 6.9-3 2.7-3.8 5.3-7.6 7.9-11.5 2.7-4 6.1-4.7 10.3-2.3 4.3 2.5 5 5.9 3 10.1-3.2 6.9-6.5 13.8-9.9 20.6-1.8 3.5-2.7 6.9-.5 10.4 13 20.9 7.8 41.7-1.2 61.8-2.9 6.4-2.7 11 .7 16.5 13.5 22.2 18.8 47.4 25 72.2 1 3.8.8 7.9.9 11.9.7 19.9.5 39.8-.7 59.6-.7 11.2-2.5 22.4-4.1 33.5-1.2 8.2 1.9 13.3 6.3 18.7 2.5 3.1 5.7 5.6 8.3 8.6 22.5 26.7 38.1 57.2 50.9 89.6 9.9 25.1 14.2 51.1 18.2 77.4 2.4 15.8.3 31.9 1.2 47.9 1.5 26.1-4.6 51.1-11.4 75.6-6.7 24.4-18 47.1-33.1 67.7-2.5 3.5-5.1 6.8-6.7 11-1.1 2.9-3.7 5.1-6.4 8.8-2.1-12.1-2.7-22.9-6.4-33.2-5.8-16.4-18.2-25.1-33.8-29.4-6.2-1.7-12.4-4.4-19.3-4.2-28.6.8-52.4 12.1-70.5 33.7-16.5 19.8-28.2 42.6-34.3 67.9-1 4.1-1 8.5-1.6 12.7-.3 1.9.3 3.4 2.2 3.8 1.9.4 3.1-.8 3.7-2.6 1.8-5.3 3.6-10.7 5.5-16 11.4-31.9 27.9-60.7 56.6-79.9 15.3-10.2 33.6-13.8 52.3-8.1 2.9.9 5.6 2.2 8.4 3.1 12.6 4.3 19.3 13.3 21.7 26.2 2.2 11.5 2.5 22.9 1.2 34.6-4.2 38-20.9 70.2-44.4 99.5-16 20-57.9 28.6-76.6 17-14.6-9-23.4-21-27.3-37.1-1.2-4.8-1.4-9.8-2.3-14.7-.5-3.1-2.1-4.7-5.6-3.1-8.8 4.1-18.3 5.8-27.4 9-3.6 1.3-7 2.5-7.2 7.1-1.8.1-3.6.3-5.4.4-.6-10.3.5-20.5 1.2-30.7.8-12.5 1.9-24.9 3-37.4.3-3.4-.3-6.4-4-6.7-3.5-.3-2.2 3.3-3 5.2-.4.9-.8 1.9-.9 2.8-1 19.5-4.6 38.8-4.6 58.4 0 4.2 1.1 8.7-1.6 12.6-6.3-.7-12.5-1.1-17.7 3.6l.3-51.3c.1-24.4.5-48.8.1-73.2-.2-10.3-1.3-20.5.1-30.7.5-3.4.3-7.4-4.2-8.9-2.3 2.2-1.7 5.1-2 7.5-2.5 23.5-1.4 47-2.3 70.5-1.1 28.7-.1 57.5-2.9 86.2-4.4.4-9.2-.4-14 .7zM717 445.1c-3.4-1.4-3.7-5-5-7.7-3-5.8-7.5-10.1-12.5-13.9-1.8-1.4-3.7-2.6-6.3-2.5-3.3.2-4.9 2.4-5.3 5-.4 2.4 2 2.6 4.1 3.2 8.9 2.6 17.8 15.6 17 25.3-.7 7.2-1.9 14.5-10 18-3.1 1.3-2.7 3.3.1 5 2.4 1.4 4.4 2.2 7.2.3 7.7-5.1 10.7-12.3 10.7-21.2 0-3.9-.1-7.8-.2-11.7 1-.4 1.6-.2 2.4.7 6.5 6.9 9.3 5.8 12.6-2.9 3.5-9.1-2.1-14.6-6.3-21.4-6.2 3.3-7.7 8.4-8.3 14.2-.2 3.2 1.3 6.4-.2 9.6zm62.2 103.5c-1.3-22.9-11-42-27.1-58-4.8-4.8-11.1-7.5-17.8-8.4-26.8-3.7-51.3 4.6-74.3 16.8-14.9 7.9-27.5 19.2-38.7 32.2-15.3 17.7-25.3 37.8-31.5 60.2-1.3 4.6-1.2 9.3.8 13.7 2.1 4.8 5.1 5.2 7.8.9 12-18.9 29.6-32 46.7-45.7 3.5-2.8 7.3-3 11-.3 4.8 3.5 9.6 7.1 13.3 11.9 4.5 5.9 10.2 10.4 17 13.5 5 2.3 7.3 2 9.5-2.9 2.7-6 4.4-12.5 5.4-19.1 1-6.5 2.2-13 5.3-19 8.1-16.2 27.3-20.4 40.8-8.4 5.7 5.1 10.9 10.8 16.4 16.1 2.1 2.1 4.4 4.2 6.9 5.7 4.1 2.4 7.9.4 8.5-4.2.2-1.7 0-3.4 0-5zM661.3 445c.3-3.8-.5-7.4-2.2-10.6-2.7-5-9.8-5.3-13.2-.7-4 5.4-4.4 19.3-.4 24.7 2 2.7 4.8 5 8.3 4.6 3.4-.3 4.9-3.2 5.5-6.3.8-3.8 2.1-7.7 2-11.7z"/><path fill="#D89259" d="M990.3 428c17.1-7.7 32.2-15.4 48-21.3 20.9-7.8 41.2-16.7 62.2-24.2 28.5-10.2 57.3-19.3 86.3-27.6 10.2-2.9 20.3-6.4 30.5-9.2 1-.3 2-.4 2.9-.8 3.5-1.3 7.4-3 7.3-7.1-.1-4.7-4.5-5-8.2-5.7-12-2.1-23.9-.8-35.8.5-32 3.5-63.7 9.4-95.3 15.7-18.2 3.6-36.2 8.3-54.5 11.8-21.5 4.1-42.5 10.6-63.3 17.3-6.6 2.1-13.3 3.9-20.5 6-2.3-17.9-7.3-34.3-12.4-50.8-3.4-10.9-8.5-20.9-13.4-31.1-2.1-4.5-2.1-7.9-.1-12.1 3.4-6.9 5.8-14.1 7.4-21.6 2.7-12.9 1.4-25.2-5-36.7-3.4-6.1-4-11.4-.1-17.6 3.1-5 4.9-10.9 7.2-16.4 2.1-5.2 2.9-10.3-1.6-14.8-4.8-4.7-10.2-7.5-17.1-5.5-2.4.7-4.7 1.6-8 2.6 1.6-8.4 2.7-15.9 4.4-23.2 1.6-7-1-11.3-6.9-14.8-3.8-2.3-7.8-3.7-11.9-5-7.2-2.2-11.6-.3-15.7 6.3-3.6 5.7-3.6 5.7-8 1.5-6-5.8-7.7-5.7-13.4.8-1.5 1.7-3.5 3.1-4.2 5.5-2.4 8.3-7.1 14.5-15.1 18.5-3.9 1.9-5.5 6.3-4.7 11.2.8 4.6.9 9.3 1.2 13.9.4 6.8-.6 13.3-5.1 18.8-14.6 17.9-15.2 37.5-7.7 58.3 1.1 3.1 2.4 6.2 3.8 9.2 5.9 12.6 6.9 25.8 7.1 39.7.3 15.4-.5 30.5-3.5 45.6-.7 3.6-1.4 7.1-3.7 11.3-11.2-9.1-24.7-13.8-37.3-20.1-2.9-1.4-3.5-3.7-3.2-6.6.9-10.6 1.6-21.2 2.8-31.8 1.7-15.8 3.7-31.7 5.6-47.5 3.1-26.4 4.8-52.8 9-79.1 3.1-20 5.5-40.1 6.9-60.4.8-11.6 3.1-23 4.9-34.5.2-1.2 1.1-2.3 1.6-3.3 22.6 4.7 43.4 13.5 64.2 22.2 33.2 14 64.1 32.4 89.8 57.8 20.1 19.8 39.6 40.4 54.9 64.3 12.2 19 22.1 39.4 29.7 60.7 2.5 7 4 7.2 11 4.7 22-7.7 44.7-10.3 67.7-7.1 18 2.5 36 5.4 53.7 9.4 12.2 2.8 24.1 7.3 35.7 12.1 20.9 8.8 40.8 19.6 58.5 33.8 29.9 24.1 57.1 51.1 76.9 84.2 20.9 34.8 37.4 71.7 47.1 111.5 13.2 54.1 10.5 107.4-4.4 160.5-3.2 11.5-5.7 23.2-10.4 34.3-4.5 10.8-12.7 16.2-23.9 14.6-15.4-2.2-30.7-5.6-46.2-6.9-23.2-2.1-45.9-6.9-69-9.5-11.2-1.3-22.2-4.2-33.5-5.2-7.4-.6-7.9-2.2-8.8-9.4-.8-6.8 1.5-13.1 1.9-19.7.5-9.6.3-19.3.6-28.9.6-17.9 2.7-35.8 3.5-53.7.3-7.9-1.8-13.1-6.8-18.6-14.3-15.5-30.8-28.3-47.6-40.9-9.3-7-17-15.8-26-23.2-37.1-30.2-73.3-61.5-111.5-90.4-9.4-7.5-19-14.6-30.5-22.3z"/><path fill="#A16A3E" d="M753.3 975c1.8-.1 3.6-.3 5.4-.4 1.9 3.4 4.4 4.4 8.3 2.9 6.2-2.3 12.6-4.1 19.8-6.5 2.8 8.2 6.3 16 9.9 23.7 6.2 13.3 16.4 21.6 29 27.4 34.6 15.9 75.9-2.6 93.4-26.8 12.4-17.1 22.9-34.9 31.6-54.1 2.7-5.9 3.3-12.1 5.3-18.1 4.7-14.2 13.7-26 22.2-37.6 13.2-17.8 23.8-36.7 31.8-57.3 9-23 16-46.6 19.2-71.1 2.7-21.4 3.6-42.9 2.1-64.6-1.8-26.7-5.6-52.9-14-78.3-5-15.1-9.4-30.7-17.6-44.4-6.1-10.2-10.8-21.3-17.6-31.1-3-4.3-4.1-8.9-3.4-14.2 1.8-15.5 3.5-31 5.1-46.5 1.1-10.6 2.1-21.1 3.3-31.7.7-5.9 1.6-6.5 6.8-3.8 5.3 2.8 10.5 5.9 15.4 9.3 22.9 16 44.4 33.9 66.4 51.1 25.5 19.8 50.3 40.3 74.6 61.6 13.7 12.1 28.4 23 41.7 35.6 9 8.5 9 8.6 3.6 20.3-8.4 18.1-17.1 36-25.2 54.2-11.3 25.2-22.1 50.6-33.2 75.9-6.8 15.5-14.5 30.7-23 45.3-9.7 16.7-18.1 34.1-25.8 51.8-3.8 8.9-8.3 17.4-13.3 25.7-.9 1.4-1.8 2.8-2.5 4.3-.8 1.9.3 3.1 2 3.9 1.8.9 3.3.6 4.2-1.2 2.8-5.3 5.4-10.7 8.2-15.9 18.7-34.6 37-69.4 53.3-105.1 12.9-28.1 26-56.2 38.9-84.3 5.8-12.7 11.3-25.5 17.6-38 1.5-2.9 3.1-5.8 5.2-9.6 2.6 3.6 1.6 7 1.6 9.9 0 8-.4 16-.4 24 0 2.8-.9 5.1-2.2 7.5-7.5 13.4-13.7 27.4-20.2 41.2-8.9 19-18.6 37.5-28.1 56.2-2.5 5-5.3 9.9-7.9 15-.7 1.4-1.2 3.1-1.3 4.7-.1 1.3.7 2.5 2.1 3.1 1.4.6 2.6-.1 3.5-1.1.5-.5.8-1.1 1-1.7 12.3-26.1 27.1-51.1 38-77.9 3.1-7.6 7.3-14.7 13-21.9 0 5 .2 10.1 0 15.1-.7 15.3-1.6 30.2-11.2 43.5-7 9.6-12.2 20.6-18.1 31-1.4 2.4-4.5 5.3-.3 7.5 3.4 1.7 5.5-1.1 6.9-3.9 5.6-11.7 12-23 18.8-34 4.5-7.3 4.5-7.4 12.6-5.2 13.6 3.7 27.6 4.1 41.4 6.2 13.4 2.1 26.8 4.1 40.3 6.2 5.8.9 6.3 1.5 4.7 7-2.1 7-6.3 13.2-7.7 20.5-.4 2.3-2.5 3-4.6 3-4 0-8.1.5-11.9-.4-9.5-2.3-19.2-2.1-28.7-3.5-11.7-1.7-23.2 1.6-34.8 2.3-2.9.2-4.7 2.2-6.7 4-9.5 8.4-17.2 18.4-24.8 28.5-9.2 12.2-19.3 23.7-29.5 35.1-12.6 14.1-25 28.4-37.3 42.8-19 22.2-36.1 45.9-56.2 67.3-14.3 15.2-27 32-40.9 47.6-8.4 9.3-9 21.9-9.7 33.9-.2 2.9 0 5.9 0 9.6-11.5-4.5-21.8-9.8-31.4-16.1-6.5-4.3-11.8-5.2-19.3-2.3-12.4 4.7-24.2 11.1-37 14.6-6.8 1.9-13.1 4.9-19.1 8.4-29.4 17-58.8 34-90.8 45.8-18.7 6.9-37.5 13.5-56.3 20.2-2.5.9-4.9 2.1-7.4 3-12.3 4.4-20.3 11.3-23.7 25.4-8 32.9-19.6 64.9-28.9 97.5-5.3 18.5-11.9 36.6-16.8 55.3-.8 2.8-1.8 5.8-6.1 5-16.9-3.2-34.1-5.6-49.6-14-6-3.2-11.2-7.1-15.4-12.5-7.7-9.8-12.8-21-17.8-32.2-1.8-3.9-.9-8 .2-11.8 5.1-17.9 10.2-35.8 15.8-53.6 1.9-6.2 6.3-10.7 13.2-12.1 4.5-.9 9.1-2.1 13.5-3.4 21-6.6 35.9-20.6 47.7-38.7 8.8-13.5 15.4-27.9 20.7-43 1.5-4.4 3.1-8.8 4.1-13.3 3-12.7 1-17.8-9.7-25.3-8.6-6-15-14.2-21.7-22-3.3-3.9-4.7-8.9-5.8-13.7-2.4-10.9-.8-12.6 10.2-12.5 3.3 0 6.7-.1 10-.3 9.5-.5 9.5-.5 11.2 9.2.6 3.4-.4 8.7 4.8 8 4.7-.6 3.6-5.7 3.4-9.2-.5-7.9-3.5-15.7-.5-23.6 4.7-1.1 9.6-.3 14.3-.6.1 2.3.3 4.6.3 7 .1 2.4.4 5 3.6 4.9 2.7-.1 5.5-1 6.2-4 .6-2.6.5-5.3.8-7.9 5.2-4.6 11.4-4.3 17.7-3.6.6 6.7-.3 13.3-.7 19.9-.1 2.9.4 5.6 3.8 6 3.6.4 4.5-2.5 4.5-5.2-.2-8.4.9-16.6 1.9-24.8zm340.4-331.6c19.7.1 30.7-13.9 26.1-32.7-2.6-10.6-3.4-21.8-13.5-28.9-.5-.3-.6-1.2-.9-1.8-1.9-4.1-4.9-4.6-9.1-3.5-14 3.9-26.2 11.1-37.3 20.3-2.4 2-3.6 4.6-3.9 7.8-.8 8.1 1.5 15.8 3.2 23.6.6 2.7 2.6 4.9 5 6 9.8 4.1 19.5 8.8 30.4 9.2zm6.9 36.4c-1.3-5.4-3.7-11.2-8.5-15.5-4-3.6-8.2-3.4-12.6.3-5.1 4.3-9.5 9.1-13.5 14.5-3.3 4.5-3.2 8.5-.1 12.7 2.4 3.1 4.9 6.2 8.3 8.5 5.4 3.7 10.9 3.4 15.8-.1 6.3-4.7 9.8-11.4 10.6-20.4zM1053.1 569c-.4-4.2-4.2-9.4-8.4-13.8-2.4-2.6-7.2-3.9-9.8-.5-4.8 6.2-10.1 12.3-11.1 20.6-.8 5.8 1.4 9.5 6.7 11.8 11.9 5.2 22.9-2.4 22.6-18.1zm33 163.8c.4-4.4-2-6.8-7-5.8-6.3 1.2-10.5 5.1-12.7 11.1-1.5 4-2.1 7.8 1.9 10.6 3.4 2.3 8.4 1.3 11.7-1.9 3.7-3.6 5.1-8.3 6.1-14zm-830.3-37.1c-3 20.2-10 39.3-15.5 58.8-3.3 11.5-5.6 23.3-9.9 34.5-.4.9-.8 1.9-.8 2.9 0 2.5-1.2 5.9 2.3 6.8 3 .7 3.6-2.5 4.2-4.6 4.5-16.7 11-32.7 15.3-49.5 3.7-14.8 8.1-29.5 12.3-44.2 6.4-22.4 11-45.2 17.8-67.5 7.4-24.5 11.8-49.8 20-74.1 1.1-3.1 2-6.4 2.2-9.7.4-9 5.7-13.5 13.8-15.7 2.8-.7 5.5-2.7 8.9-1.3 1.4 3.6 1.3 7.6 1.6 11.5 1.7 22 6.2 43.5 13.5 64.3 7.5 21.4 18 41.4 31.4 59.9 10 13.8 19.6 27.8 33.8 37.7 3.2 2.3 3.3 5.2 3.1 8.8-1.2 20.9-1.3 41.9.9 62.8 2.6 24.4 10.3 47.3 19.7 69.8 9.4 22.4 22.9 42.2 38.7 60.2 8.2 9.4 16.4 19.4 27.6 25.8 3.9 2.2 4.8 4.9 3.4 9.8-9.1 33.2-5.8 65.4 11.8 95.2 9.7 16.5 25.5 26.9 42.4 35.3 11.4 5.6 11.2 7 3.1 16.4-8.9 10.4-17.6 5.9-26.6 2.1-28.5-11.8-56.6-24.7-85.3-35.9-32.2-12.6-62.9-28.5-94.3-42.8-20.5-9.3-40.4-20.2-60.7-30.2-7.4-3.7-12.9-2.8-19.1 1.7-5.6 4.1-11.9 7.3-18 10.8-2.2 1.3-4.4 3.1-8 1.3 2.3-10.2 6.5-19.9 10.2-29.6 9.2-24.6 19.1-49 28.3-73.5 1.8-4.9 2.4-10.4 2.8-15.6.5-5.3-3.4-10.8-8.5-12.1-16.4-4.2-32.9-7.9-50-8.8-10.6-.6-21.2-1.3-31.7-3.4-1-.2-1.8-.7-3.3-1.3 2.8-9.5 5.4-19 8.4-28.5 2.8-9.1 2.1-17.1-3.2-25.6-6.8-10.7-14.8-20.5-22.3-30.6-13.8-18.6-14.2-19.4-10.4-41.8 4.4-26.2 8.7-52.4 13-78.7 1.1-6.8-.3-10.6-6.4-12.9-24.9-9.7-46.9-24.9-70.9-36.4-12.3-5.9-13.9-9.3-9.6-22.5 8.1 1.6 14.9 6.5 22.3 9.6 20.8 8.8 41.5 18 62.1 27.3 3.3 1.5 5.7.3 8.4-1.2 8.7-4.8 17.5-9.6 26.2-14.3 2.9-1.6 5.6-3.5 9.5-3.1 1.3 6.2-.7 12.1-1.4 17.8-3.1 24.4-7 48.7-12.8 72.6-.3 1.3-.7 2.7-.5 3.9.3 2.3 2 4 4.1 2.3 2.5-2 5.1-3.9 5.7-7.7 3.2-21 6.6-42 10.1-62.9 1.4-8.5 3.1-17 4.5-25.5 1-6 3.5-10.5 9.4-12.9 1.5-.6 2.8-1.8 4.2-2.7 4.1-2.8 9.1-5 11.9-8.8 3.3-4.5-3.2-9-2.4-14l.9-.9c.6.2 1.3.3 1.9.6 3.3 1.4 5 5.9 9.1 5.5 3.5-.3 4.4-4.8 7.7-5.9.6-.2 1.3-.2 1.9-.4 1.8 6-1.8 11-3 16.4-8.6 39.3-14.7 79.1-25.9 117.8-1 3.5-1.6 7.1-2.1 10.8-.3 1.8.7 3.3 2.4 3.9 1.3.4 2.5-.3 3.6-1.2 2.5-1.9 3.3-5 5.1-7.3.3 0 .7.3 1.1.7zm68.5 128.1v-8.7c-.1-7.3-3-12.2-10.1-15.5-10-4.7-20.7-6.8-31.3-9.3-10.4-2.5-14.8 1.5-15.7 12.2-.7 7.9-2.3 15.7-1.9 23.7.3 6.6 2 12.2 8.1 16 3.3 2.1 6.1 5 9.1 7.7 6.3 5.9 13.7 10.6 21.6 14.1 10.6 4.7 16.6 1.2 18.6-10.1.1-.7.3-1.3.3-2 .4-9.6.9-19.2 1.3-28.1zm55.2-15.9c.3-2.1-1.2-5.7-3-8.7-2.7-4.7-4.5-11.8-10.9-11.7-5.8.1-9.2 5.8-12.1 10.8-1.9 3.2-3.9 6.5-1.5 10.2 2.1 3.3 4.5 6.6 7.2 9.5 4 4.2 8.9 3.8 13.9 2 4.8-1.8 6.1-5.8 6.4-12.1zm-8.2 97.3c.4-2.8-.8-5.6-2.4-8.1-2.7-4.1-4.9-10.2-9.6-10.4-6-.2-5.6 7.2-7.6 11.4-3.3 7-1.2 11.8 5.6 15.5 8 4.3 13.9.9 14-8.4zM333.5 773c0-4-5.2-9.2-9-9-3.9.1-8.5 4.7-8.7 8.3-.2 5 3.7 9.8 7.9 9.9 5.2 0 9.8-4.3 9.8-9.2zm-8 130.3c-2.1.2-3.9 1-3.7 3.5.2 2.1 1.7 3.6 4 3.3 1.6-.2 3.1-1.2 3.3-3.1.1-2.3-1.3-3.4-3.6-3.7zM354.9 756c-.5-2.3-2.1-3.4-4.4-3-1.8.3-3.1 1.4-2.6 3.4.4 1.9 1.9 2.5 3.7 2.5 2 .1 3.2-.8 3.3-2.9z"/><path fill="#FDFDFD" d="M764.3 418.2c-8.3-2.2-15.5-7.1-23.6-10.1-30.5-11.2-60-7.3-89 4.4-12.2 4.9-24.3 10.3-35.7 17.3-10.9 6.7-20.6 14.8-29.5 23.6-6 5.9-10.2 13.8-16.5 19.8-.9.9-1.5 2.3-3.7 1.4-2.1-20.7-6-41.4-7.4-62.5-2.1-32.4-4.3-64.9-6.1-97.3-.9-15.6-1.1-31.2-1.4-46.9-.3-21.9-2.7-43.7-3.9-65.6-.6-11.9-1.7-23.8-1.3-35.7.6-22.3-4.8-44.3-3.7-66.7.3-5.1-.9-10.5-1.1-15.8-.1-3 .2-4.5 3.8-5.4 20.3-4.9 41-7.3 61.7-9.3 21.6-2.1 43.2-.6 64.9-.1 6.6.1 6.7.4 6.4 7.4-1.2 34.9-1.7 69.7-2.2 104.6-.4 22.5-3.2 45-2.7 67.6.7 27.5-.3 55-.8 82.6-.1 7.1.5 14.4-1.2 21.5-.8 3.4 1.5 4.9 4.8 3.4 3.7-1.7 6.4-3.4 5.9-8.8-1.4-14.9-.9-29.8.1-44.8 1.1-16.6.8-33.3.9-49.9.3-23.3-.6-46.6 1-69.7 2.1-32.2 2.2-64.4 3.3-96.6.1-3.3-.1-6.6-.3-9.9-.4-4.4 1.6-5.7 5.8-5.9 9-.2 17.8 1.9 26.8 2.4 18.5 1 36.6 4.9 54.4 10.3 8.2 2.5 16.6 4 24.9 5.8 6.6 1.4 6.7 1.4 5.8 8.2-3.6 25.6-7.6 51.2-11 76.9-4.4 32.9-7.9 65.9-11.3 98.9-2.8 27-6.6 54-9.8 80.9-2.1 17.8-4.1 35.6-5.9 53.4-.2 3.6-.2 7.1-2.4 10.6z"/><path fill="#D9925A" d="M607 1124.6c9.1 7.1 9.2 7.4 6 16.5-6.1-1.1-9.2 2.1-10.8 7.5-5.8 20.6-14.3 40.4-19 61.3-.5 2.3-1 4.5-2.7 6.3-.7-.6-1.4-1.3-2.1-1.9-2.1-11.4-3.7-12.4-14.3-10.3-17.2 3.5-34.3 8.3-51.7 9.8-21.7 1.9-43.6 4.6-65.6 1.6-3.9-.5-8-.2-12-.3-24-.1-48-1.2-71.3-6.7-25.1-5.9-50.1-13.1-73.7-24-27-12.4-51.7-28.1-75.1-46.4-24.7-19.3-44.9-42.3-62.7-67.7-.6-.8-1-1.7-1.6-2.5-8.3-11.5-8.2-11.2 4.1-16.8 24.5-11.1 49.2-21.6 72.8-34.6 16.5-9.1 33.8-17 49.2-28.1 2.9-2.1 5.3-1.5 8.3-.3 29.4 12.4 57.3 27.8 86.4 40.9 19.4 8.8 38.4 18.3 58.1 26.5 37.8 15.7 75.1 32.4 113 47.6 19.1 7.7 38.8 14.2 56.9 24.1 4.5 2.8 6 .7 7.8-2.5zm72.7 183.5c6-25.1 14.8-48.8 21.8-73 6.4-22 12.3-44.2 18.9-66.2 2.6-8.5 6.5-16.7 9.7-25 1.9-4.7 6-6.8 10.1-9.1 19-10.5 39.7-17 59.9-24.5 29-10.7 57.1-23.4 84.2-38.3 23.3-12.8 47.5-23.8 73.2-31 4.3-1.2 8.1-2 12.4.6 15.4 9.1 31.2 17.8 46.6 27 14.1 8.5 28.2 17 41.7 26.4 7.2 5 13.6 10.9 21.7 13.9-.5 3.9-3.3 3.6-5.2 4.4-19.3 8.2-36.2 19.8-49 36.6-11.6 15.4-19 32.8-20.3 52.2-.4 6.6-3.3 10.2-8 13.7-16 11.9-33.1 22.2-50.4 32-21.6 12.3-43.2 24.9-67 32.7-17.6 5.8-35.5 10.9-53.4 15.8-31.8 8.7-64.6 12-97.3 14.5-11.9.9-24 .4-35.9.2-4.4.2-9.2.1-13.7-2.9zM532.7 80.9c0 23.7 3 46.5 2.8 69.5-.2 18.9 1.8 37.8 2.3 56.8.8 27.9 3.1 55.7 4 83.6.6 21.5 2.1 43.1 4.8 64.6 1.1 8.5 3.3 18.3.4 25.6-3.1 7.6-14.3 6.9-22 9.7-23.4 8.5-46.5 17.9-68.5 29.7-.8.4-1.9.4-3 .5-2.3-4.1 1.1-7 2-10.3 1.1-4.2 3.4-8.2-.7-11.9-4.1-3.7-8.7-2.8-13.1-1-4.2 1.7-7.7 5-12.3 5.9-2.8-5.5-.1-10.3.4-15.1.5-4.9 2.1-9.7 3.1-14.6 1.2-5.9 0-11.2-4-15.9-5.6-6.5-12.2-7-17.9-.7-2.9 3.2-4.9 5.4-10.4 5.2-5.5-.2-12.3 1.9-16.1 6.8-4.4 5.4-7.1 2.5-10.3-.6-11-10.6-21.8-21.4-33.1-31.7-17.5-15.9-35.3-31.4-53-47.1-4.2-3.8-8.3-7.7-12.5-11.4-3.5-3-4-6.2-2.3-10.6 8-19.8 18.3-38.4 30-56.2 7.7-11.7 17.6-21.4 27.5-31.2 10.7-10.6 22-20.2 34.1-29.1 12-8.9 25-16.3 37.7-24.1 24.4-15 51.5-22.6 78.5-31 9.4-2.9 18.9-5.9 28.3-9.4 7.3-2.5 15.2-3.9 23.3-6z"/><path fill="#D89259" d="M263.2 322.1c8 5.8 12.5 12.4 17.6 18.2 21.1 23.9 41.8 48.1 62.8 72.2 6.2 7.2 6 6.9 1.6 15.2-7.5 14.2-12.7 29.2-15 45.1-2 13.5-3.3 27.1-3 40.8.1 5.9-2.2 8.7-7.8 10.8-17.1 6.3-33.9 13.6-49.9 22.6-4.8 2.7-8.2 2.3-12.3-1.6-5-4.9-10.8-8.9-16.2-13.3-1.4-1.1-3-1.7-4.6-.8-1.7 1-1.4 2.9-.8 4.5 2.5 6.2 5.2 12.2 7.7 18.4 3.3 8.3 3.2 8.7-4.4 13.6-14.6 9.3-29.3 18.3-43.7 28-7.4 5-15.3 7.7-25.2 3.3-17.3-7.7-35-14.3-52.2-22.3-18.7-8.6-37.9-16.1-56.8-24.3-9.5-4.1-18.6-8.8-28.1-13-3.6-1.6-4.4-3.5-2.4-6.9 5.4-9.2 10.2-18.6 16.5-27.3 12.5-17.2 26.4-33.2 41.3-48.3 8.4-8.5 18.2-15.5 28.5-21.5 12.3-7.2 24.3-15.1 37.7-20.2 13-4.9 25.8-10.4 39.1-14.7 17.8-5.7 36.2-8.3 54.2-12.4 5.9-1.3 11.9-1.2 17.8-.1 9.6 1.9 9.6 1.9 17.4-6.6-15.8-15.7-19.1-36.1-19.8-59.4zM1377 766.3c1.8 4.3-1.9 6.6-3.5 9.6-10.3 18.2-21.2 36.1-33.3 53.2-9.1 12.8-20.3 23.8-31.5 34.7-10 9.7-20.5 18.9-31.5 27.5-22.8 18-47.6 32.6-74.6 43.4-15.4 6.2-30.6 13-46.2 18.7-10.5 3.8-20.7 8.5-32.1 9.7-8.9.9-11.3 6.4-6.4 14 12.3 18.7 13.6 39.7 13.7 61 .1 10.3-.8 20.6-.8 30.9 0 8.2-2.5 15.6-5.1 23.2-1.4 3.9-3.4 4.3-6.7 1.9-10-7.1-20.5-13.7-30.2-21.2-19.8-15.1-40.9-28.4-59.7-45-15.1-13.3-12.3-12-2.4-24 26-31.5 52.1-62.9 79.5-93.3 14.7-16.3 27.8-33.9 42-50.7 13.3-15.7 27.1-31.1 40.5-46.7 3-3.5 5.7-7.4 8.6-11 6.5-8.1 14-13.2 25.3-13.1 21 .2 41.8 1.8 62.8 2.4 15.3.4 30.6 1.4 45.8 1.7 6.5.2 11.4-2 16.3-5.9 7.8-6.2 14.8-13.4 23.2-18.8 1.9-1.2 3.5-3.1 6.3-2.2zM163.8 642.1c-5.1 6.1-11.2 10.7-17 15.5-11.2 9.4-21.3 20-31.9 30.2-4 3.9-4 7.6-1.4 11.5 7.6 11.2 14.9 22.5 25.5 31.7 10 8.6 17.8 19.6 25.2 30.5 8.2 12.1 17.3 23.6 25.8 35.5 1 1.4 2 2.7 2.9 4 5.8 8.8 5.3 12.6-3.7 17.8-6.9 4-14 7.4-22.1 8.9-9.7 1.8-19.8 2.9-28.7 7.7-3.4 1.8-6.7 2.1-10.4.2-20.8-10.9-40.5-23.8-55.9-41.1-18.8-21.1-32.7-46-42.4-72.8-9.7-27-15.3-55-17.7-83.4-1.9-22.4-2-45.2 3.4-67.4.3-1.3.4-2.6.9-3.9 2-5.8 3.4-6.5 8.6-3.4C44 575 63.7 585.5 82.6 597.4c9.5 6 20 10.3 30.1 15.5 15.6 8 30.1 18.2 46.3 25.4 1.6.7 2.9 2.3 4.8 3.8z"/><path fill="#FDFDFD" d="M1175.5 1153.7c.7 14.5-4.8 27.1-14.6 38.4-11 12.6-22.8 24.2-37.1 32.9-20.7 12.5-43 18.9-67.1 18.4-11.5-.2-22.3-4-30.7-12.2-10.1-9.8-12.8-22.2-9.8-35.7 2.7-12.3 7.8-23.9 13-35.3 3.9-8.6 10.7-15.2 18.5-20.5 11-7.5 22.5-14.4 34.7-19.4 19.1-7.9 39-10.4 59.3-3.9 2.5.8 5 2.1 7.6 2.4 11.5 1.4 17.9 9 23.6 18 3.1 5.1 2.5 10.7 2.6 16.9z"/><path fill="#9E683D" d="M548.5 396.1c.8 7.3 1.9 14.6 2.2 21.8.8 19.5 2.6 39 4.4 58.5.6 6.4-1.5 10.7-6.9 14.2-9.8 6.2-20 11.9-28.7 19.7-15.9 14.3-30.4 29.8-42.2 47.7-4.4 6.6-4.2 6.2-10.7 2.2-7.7-4.8-11.5-12.8-16.7-19.5-7.1-9.1-12.8-19.4-17-30.4-2.4-6.5-3.8-12.8 3-18 1.8-1.4 2.9-3.6 4.4-5.4 12-14.3 16.5-30.2 9.8-48.2-1.4-3.7-1-5.2 3.7-5.4 3.4-.2 6.7-2.6 10.5-4.2 2.1 3.8 1.2 7.2.4 10.6-.5 2.3-1.2 4.5-1.4 6.8-.2 2.5.8 5.1 3.4 5.2 2.7.2 2.1-2.7 2.5-4.5 1.4-5.8 3.2-11.5 4.5-17.4 2-9.1 8.4-11.8 16.8-12.7 1.6 5.3.6 10.2-.3 15.1-3.2 17.3-6.7 34.5-9.7 51.9-2.9 16.7-5 33.6-10.2 49.8-.7 2.3-1.1 4.9 1.3 6.3 3.3 1.8 4.6-1.6 6.3-3.4.8-.9 1-2.4 1.2-3.7 5.2-38.9 14.2-77.1 21.8-115.5 1.1-5.4 10.8-12.6 16.2-12.2 1.5.1 2.5 1 2.4 2.5-.1 2.7.1 5.4-.6 7.9-4.8 18.4-6.4 37.4-11.5 55.7-1.5 5.4-2.3 11.1-3.7 16.5-.7 3-.5 5.9 2.7 6.4 3.6.6 3.9-2.8 4.2-5.5 2.8-26.6 11.7-51.8 17.1-77.7 2-9.4 6.7-13.9 15.7-14.9 1-.1 1.9-.5 2.9-.7.4.1.7.3 2.2.5z"/><path fill="#D89259" d="M275.7 872.3c-48.5 46.3-103.6 81.4-153.2 124.4-5.3-19.3-2.5-37.3 2.5-55.1 2.9-10.6 7.2-20.7 12.6-30.3 9.6-17.1 17.8-35 31.2-49.7 2.5-2.7 4.2-4.6 8.2-3.7 15.6 3.4 31.8 2.4 47.5 5.2 16.5 2.9 33.3 4.6 51.2 9.2z"/><path fill="#9E683D" d="M970.9 517.3c-9-8.3-14.9-19.5-24.8-27.1-2.7-2.1-1.3-5.8-.7-8.5 3.2-15 5.6-30 6.2-45.3.5-12-.6-23.9-.6-35.8 0-5.4 1.6-8.1 6.4-9.6 11.7-3.6 22.7-9.2 35-11 6.1-.9 12.1-3.1 18.5-4.9 1.7 7.7.4 14.5-.4 21.4-.1 1.3-1.2 2.7-.9 3.8 2 10.8-4.5 14.1-13.2 17.8-16 6.7-17.1 3-18.9 27-1.8 23.8-3.8 47.6-5.7 71.5l-.9.7zM270.1 284.6c5.9 3 10 8 14.5 12.2 20.9 19.5 41.2 39.6 62.3 58.9 7.6 7 15.4 13.6 22.6 21 4.1 4.3 4.5 8.3 2.4 14.3-3.5 10-10.2 16.7-18.2 23.1-8.6-10.8-17.7-21.3-25.9-32.6-4.7-6.4-9.7-12.6-15.7-18-12-11-22.7-23.3-32.9-36-3.8-4.6-8.7-8-12.2-13-2.7-3.8-4.2-7.4-2.9-12 1.7-6 1.3-12.6 6-17.9zm-38.9 635.7c-1 11.6-4.3 20.4-7.4 29-4.8 13.2-7.2 26.9-10.8 40.4-1.2 4.5-2.2 9-3.4 13.5-4.2 16.6-4.2 16.6-19.2 23.7-5.7 2.7-11.4 5.3-17.2 7.9-.9.4-1.9.3-2.6.4-1.8-.8-1.8-2.1-1.6-3.4 4.5-24.1 10.2-48 16.1-71.8.8-3.2 1.9-6.1 4.9-8.3 13.4-9.9 27.2-19.1 41.2-31.4zm44.1-31.8c-4 11.4-7.9 22.9-12.1 34.3-6.9 18.7-13.9 37.3-20.9 55.9-2.9 7.7-7 14.9-9.7 22.9-2.3 6.7-10.5 8.2-16.3 11.4-1.6-1.8-1.5-3.5-1.1-5.1 6.6-30.5 14.9-60.5 24.1-90.3 1.1-3.7 3.1-6.5 5.7-9.1 8.5-8.6 18.6-15 30.3-20zm-97.9 74.9c0 7.8-2.8 15-4.9 22.2-4.5 15.3-8.4 30.8-10.7 46.5-1 7.3-4.1 11.5-10.6 13.9-2.5.9-4.9 2.2-7.2 3.4-2.6 1.4-4.2.9-5.4-1.9-3-6.6-6.1-13.2-9.3-19.7-2-4.2-1-8.2-.7-12.5.8-12.7 5.5-22 16.8-29.1 9.5-5.9 17.4-14.2 26-21.5 1.6-1.4 3.3-2.2 5.4-1.9l.6.6zm598-550.4c3.1-12.6 1.8-28.1 5.1-43 1.2-5.3 2.2-6.1 7.5-4.1 10.6 4 20.6 9.3 29.4 16.5 2.7 2.2 4.3 4.7 3.1 8.6-3.4 11.2-7.6 21.8-14.4 31.5-3 4.3-6.1 5.4-10.9 3.9-4.7-1.5-9.6-2.7-14.5-3.3-5-.7-5.9-3.6-5.3-10.1zm239.8-3.8c-1-11.5 3.5-22.2 4.6-33.4.4-4.4 4.3-6.2 7.9-6.4 7.4-.2 14.3-2.7 21.4-4.2 5.5-1.2 6.6-.1 6.1 5.4-.5 5.9-2.4 11.7-.6 17.7.7 2.3-.2 4.6-2.7 5.8-12 5.6-23.9 11.4-36.7 15v.1z"/><path fill="#A16A3E" d="M254.6 694.6c-.5-11.2 3.6-21.5 5.8-32.2 6.2-29.2 13-58.3 19.5-87.5 1.2-5.5 2.3-11 3.1-16.6 1.5-11 1.8-11.4 13.7-14.7 1.4 1.4 1 3.1.6 4.6-7.4 28.6-14.1 57.4-22.7 85.6-5.6 18.4-10.7 36.9-16.1 55.4-.6 2.2-1.8 4.3-2.6 6.4-.5-.3-.9-.6-1.3-1z"/><path fill="#9E683D" d="M1104.7 373.5c-2.5-7.5.6-13.5 1.2-19.6.3-3 3.4-2.7 5.7-2.8 5.3-.4 10.6-.6 15.9-1 14.7-.9 28.6-5.5 43-8 10.8-1.9 21.6-1.2 32.5-.3-32.7 10.8-66 19.5-98.3 31.7zm-68.7 670.9c10.1 6.8 18.7 12.4 27.2 18.2 2.9 1.9 4.7 4.3 4.5 8.3-.3 6.2-.1 12.5-.1 19.8-12.7-4.2-21.6-11.7-30.7-18.7-2.2-1.6-3.4-4.7-2.8-7.2 1.3-6.1 1-12.4 1.9-20.4zm62.6-689.4c-.7 5.7-2.2 10.5-.4 15.4 1.2 3.2-.6 6-3.7 7.2-10.7 4.2-21.4 8.2-32.7 12.5-2-9.9 2.5-17.7 3.6-26 .2-1.5 1.4-2.1 2.7-2.5 9.6-3.6 19.6-5.4 30.5-6.6zM79.5 584.3c-5.1-.6-9.6-3.1-13.3-6.1-9.1-7.5-19.7-12.2-30-17.6-3.5-1.8-7-3.9-10.2-6.3-3.4-2.5-3.9-6.5-1.6-9.5 2.5-3.3 4.9-.7 6.9.5 12.7 7.3 25.9 13.3 39.4 19 11.9 4.9 12.2 5.8 8.8 20zm89.4 67c-2.2 29.8-8.5 58.6-12.2 87.9-6-3.7-7.5-7.9-6.2-15 2.9-16 4-32.3 6.1-48.4.7-5.6 2.3-11 3.6-16.5 1.1-4.3 3.7-6.9 8.7-8zm24 172.6c-1.2 10.1-4.2 17-7.2 24-1 2.4-2.5 3.8-5.2 3.6-12.5-.9-25.2-1-36.1-8.7-.8-.6-1.6-1.1-1.5-3 16.2-4.1 33.2-6.6 50-15.9zm883.1 249.4c12.6 8.8 25.1 17.5 38.3 26.7-7.3 3.6-14.7 5.2-21.8 6.1-7 .8-11.7-5.5-17.3-8.9-3.8-2.3-2.7-6.5-2.4-10.1.3-4.5-.7-9.3 3.2-13.8zm228.8-289.7c-8 0-8.7-1-6-8.2 1.8-4.6 3.8-9.2 5.7-13.8 2.8-6.4 11.6-8.6 17-4.2 1.6 1.3 1.3 2.9.7 4.5-2.3 5.9-4.8 11.7-7 17.6-2.1 5.8-7.3 2.8-10.4 4.1zM149.3 667.9c.2 18.4-4 35.9-4.7 54.4-9.4-5.3-9.6-5.8-8.2-14.1 1.8-10.4 3.4-20.8 5.2-31.2 1.1-6.3 1.4-6.4 7.7-9.1zm877.6 396.5c-5.8-.5-8.8-4.2-12.6-5.8-2.8-1.2-3.1-4.1-2.8-6.9.7-7.3 1.4-14.5 2.1-21.8 11.5 2.8 13.8 5.7 13.4 16.7-.3 5.6-.1 11.2-.1 17.8zm318.6-302.8c-3.8 5.6-5.5 10.9-7.2 16.3-1.6 5-9.2 7.6-13.8 5.1-1.8-1-2-2.8-1.6-4.3 1.7-6.1 3.5-12.4 7.6-17.2 4-4.6 9-2.2 15 .1zM130.4 706.7c-4.4-1.9-6.9-3.6-8.6-6-3.7-5.1-3-8.8 2-13.2 1.7-1.5 3.4-3.1 5.2-4.6.5-.4 1.1-.5 2.8-1.3-.5 8.3-.9 16.2-1.4 25.1zm1216.2 73c-1.2-3.7.2-5.3.9-7.1 4.1-10.8 4.2-10.8 16.9-8.4-5.1 6.4-10.7 11.2-17.8 15.5z"/><path fill="#D9925A" d="M580.5 1216.3c-.5 3.5-.7 7.1-3.2 10.2-1.6-5.2-1.6-5.2 1-12.1.8.7 1.5 1.3 2.2 1.9z"/><path fill="#9E683D" d="M971.6 516.7c1 .6 1.1 1.5 1 2.5 0 .3-.4.5-.6.7-.3-.9-.7-1.7-1-2.6-.1 0 .6-.6.6-.6zm43.5-107.6c-.3.4-.7.8-1 1.2-.8-1.6.5-1 1.1-1.1l-.1-.1zM176.9 962.8l1.2-.6-.6 1.2c-.1 0-.6-.6-.6-.6z"/><path fill="#A16A3E" d="M252.9 555.4c-.4-.4-1.1-1.1-1-1.2.8-1.2 1.4-.4 1.9.4-.3.2-.6.5-.9.8z"/><path fill="#D9925A" d="M3231.5 1095.7c-16.3-17.1-32.2-34-49.3-49.7-10.8-9.9-21.8-19.5-33.1-28.8-4.4-3.6-9.5-5.5-15.3-6.6-21.2-3.9-42.5-7.6-63-15-11.5-4.2-23.4-7.3-34.7-12.2-11.8-5.1-21.8-12.9-31.5-20.8-16.7-13.7-33.9-26.7-50.9-40-14.9-11.6-29.7-23.5-43.6-36.4-12.6-11.7-25.9-22.7-40.9-31.2.4-1.2.6-2.3.9-2.3 9.8-1.3 19.8-1.4 29.6-3.8 3.1-.8 5 .4 6.3 3.3 3.9 8.2 9.7 15.1 15 22.3 10.4 14 25 20.4 42.1 21.1 5.8.2 10.7-1.7 12.3-7.9 1.3-4.9 4.9-5.7 8.9-6.6 12.4-2.8 24.3-6.9 35.2-13.5 4.3-2.6 8.2-5.7 11.1-9.9 4.6-6.6 2.6-12.1-5.2-14.4-.6-.2-1.4-.2-2-.4-2.5-1-6.8.1-6.6-4.1.2-3.8 2.7-6.4 6.9-7.4 7.1-1.7 13.8-4.7 20.8-6.8 32.8-9.6 59.7-29 84.3-51.4 26.5-24.1 46-53.6 63.5-85 13.3-24 20-49.8 27.3-75.6 4-13.9 3-28.4 4.1-42.6 1.7-22.2 2.6-44.3.5-66.6-2.9-30.6-8.3-60.1-19-89.2-14.1-38.4-38.1-69.7-64.4-99.9-20.9-23.9-46-42.3-73.9-56.8-31.7-16.5-65.2-27.8-101-32.5-20.2-2.7-40.4-4.6-60.6-3.9-25.8 1-51.9.8-77.2 7.4-.5.1-1.2-.3-2.4-.6-1.6-6.2 1.9-11.6 4.6-16.5 4.9-8.7 8-18.2 11.6-27.4 5.1-13.1 11.4-25.4 17.8-37.8 8.1-15.6 15.8-31.4 23.7-47.1.7-1.3.7-2.7-.4-3.6-1.6-1.3-3-.6-4.3.8-3 3.2-4.9 7.1-6.8 11-9 17.8-17.4 35.9-27 53.5-9.5 17.6-16.2 36.4-26 53.8-1.3 2.3-2.5 4.7-3.8 7.1-3.9 7.2-9 11.3-17.8 13.4-33.4 8.1-65.2 20.6-95 37.9-6.9 4-13.8 7.9-20.8 11.8-24.1 13.4-44.8 31.2-63.6 51-17.1 18.1-32.5 37.8-43.7 60.3-2.3 4.7-5.5 8.3-10.5 10.1-9.8 3.5-18.4 9.4-27.9 13.4-9.8 4.1-19.8 7.7-30.4 9.1-7.8 1-8.5.2-8.9-7.4-.5-7.3-1-14.6-1.4-21.9-.1-3.6-1.4-6.4-3.9-8.9-18.2-18.6-34.6-38.5-49.3-59.9-9.6-14-22.4-25.5-33.1-38.6-11.6-14.1-23.6-27.9-35.5-41.8-2.5-3-5.1-6-6.8-10.1 4.1-1.9 7.7-1.2 11-.2 8.5 2.8 17.7 2.8 25.9 6.7 5.2 2.5 7.4.9 9.5-5 8.4-23.6 19.4-45.9 33.4-66.7 8.9-13.2 19.9-24.9 30.6-36.8 13.1-14.6 26.7-28.7 42.5-40.4 16.9-12.5 34.3-23.8 53.4-32.5 11.2-5.1 22.5-9.8 33.8-14.5 25.5-10.4 52.1-17.1 78.9-22.9 13.9-3 27.4-8.2 41.7-9.4 6.6-.6 13.1-2.1 19.7-2.7 31.4-2.6 62.9-5.5 94.5-4.3 13.2.5 26.4 2 39.6 3.6 17.9 2.1 35.3 6.1 52.8 9.5 21.2 4.1 41.3 12.2 61.8 18.8 12 3.8 24.2 7.1 35.9 11.7 16.8 6.7 32.1 16.1 47.4 25.3 14.2 8.5 27.7 18.2 40.3 29.2 24.3 21.1 45 44.9 59.7 73.9 8.8 17.4 15.5 35.2 20.3 53.9.7 2.6 1.4 5.2 1.6 7.8 1.1 16.2 1.6 32.4-1.9 48.4-2.1 9.5-5.9 18.2-12.4 25.7-1.7 2-5.6 4.5-2.8 7.4 2.6 2.8 4.7 7.9 10.3 6.1 10.6-3.4 21-1.4 31.5.3 21.4 3.3 42.2 8.7 62.5 16.2 30.1 11.1 58.8 25 83.1 46.2 13.2 11.5 25.6 24 35.7 38.6 6.9 10.1 15.2 19.2 21.3 30 13.9 24.5 24.2 49.8 25.4 78.6 1 24.7-1.3 49-5.1 73.2-3.4 21.1-9.6 41.4-17.9 60.9-6.2 14.7-13.6 28.8-23.1 41.8-8.7 11.9-16.9 23.7-29 32.6-14.7 10.8-28.9 22.6-45.9 29.6-10.7 4.4-20.4 10.9-32.2 12.9-6.8 1.2-7.9 6.3-3.2 11.8 15.9 18.3 26.2 40 36.6 61.5 5.4 11 8 22.9 10.1 35.2 2.4 14.4 2.2 28.5-.9 42.3-7 31.1-20.4 59.3-40.7 84.4-12 14.8-24.5 29.1-38.4 41.8-9.7 9.1-20.9 17.1-32.3 25.1z"/><path fill="#FEFEFE" d="M2790.5 871.6c-16.5 7.6-32.2 14-49.2 17.8-16.2 3.6-32.3 3.8-48.4 2.6-21.4-1.6-41.6-8-59.1-21-8.8-6.6-17.2-14.6-20.2-25.2-3.4-11.9-1.8-24.3 6-34.8 10.6-14.3 24.7-18.4 41.3-12.6 3.3 1.2 5.4 3.4 7.2 6.4 7 11.4 16.4 20.9 26.2 29.9 5.1 4.6 11.3 6.9 17.3 9.7 2.9 1.4 5.1.4 6.4-2.6 1.3-3-.5-4.1-2.6-5.5-17.9-11.5-32.8-26.1-43.5-44.5-13.5-23.2-19.2-48.4-11.7-74.7 5.1-18 14.5-33.7 33.3-40.8 4-1.5 4.1-4.7 3.3-7.2-1.1-3.6-4.1-1.8-6.6-.9-16.1 6.1-24.5 19.6-32.7 33.5-4.6 7.8-6 16.8-8.6 25.3-3.1 1.2-5.3-.6-7.4-2-17.5-11.7-32.6-25.7-46.3-41.9-14.1-16.7-21.8-35.7-29.4-55.3-7.7-19.9-12.6-40.6-14.4-61.9-3.5-41.1 1.5-81.2 14.4-120.3 5.2-15.7 11.1-31.2 18-46.3 2.9-6.5 7.3-11.8 11.1-17.6 11.1-17.4 22.3-34.5 37.8-48.6 17-15.4 34.4-30.1 54.8-41 14.3-7.6 27.7-16.9 42.9-23.1 15.4-6.3 31.1-11.4 46.6-17.3 33.1-12.6 68-17 102.8-21.2 15.4-1.8 31-1.3 46.5.5 20.8 2.3 41.8 2.5 62.4 6.3 24.7 4.6 47.4 14.5 69.8 25.4 26.4 12.9 48.7 30.9 69.2 51.4s38.2 43 52.4 68.6c15.1 27.1 24.9 55.6 31.2 85.6 5 23.7 6.9 47.6 6.2 71.9-.5 18.7-1 37.2-4.4 55.6-.6 3.3-1.1 6.6-2.1 9.7-3.7 11.6-4.2 23.9-8.4 35.5-8.4 23.2-18.6 45.4-31 66.8-12.5 21.4-27.5 40.5-46.1 57-11.9 10.6-24 21-37.7 29.2-20.3 12.2-42 20.8-65.1 25-2.2-2.4-1.4-4.7-1.3-7 .2-4.6 1.3-9.6 0-13.8-3.5-10.6 0-18.9 5.4-27.7 9.9-16.2 18.3-33.2 25.5-50.7 9-21.8 15.5-44.5 18.3-68.1 1.5-12.6 2.4-25.2 1.8-37.9-.2-4.1.2-8.6-5.1-11.3-2 4.8-1.3 9.1-1.1 13.3.9 21.4-2.6 42.2-8 62.9-5.2 20-14 38.5-22.1 57.3-2.3 5.4-4.8 10.8-7.3 16.2-4.5 9.4-10.1 17.9-17.1 25.6-4 4.3-5.3 8.6-2.4 14.2 7.5 14.9 6.4 30.2.4 45.3-4.7 11.9-4.7 11.9 7.4 14.5 1.8.4 4.4-.6 5 2.1.6 2.4-1.9 3.2-3.3 4.5-11.5 10.6-25.8 14.4-40.6 17.1-5 .9-10.7.4-11.8 7.8-.4 2.9-3.5 2.9-6.5 2.4-13-2.2-23.3-9.1-32.3-18.3-13.3-13.6-19.2-30.4-22.5-48.7-2.6-14.3-1.5-28.1 1.3-42.2 3.4-17.4 9.3-34.1 16.4-50 8-17.7 12.7-36.1 17.7-54.5 3-11 1.8-22.4.6-33.5-1.4-12.8-1.8-25.8-7.4-38-2.8-6.1-6.3-10.5-12.7-13-1.9 4.3 1.1 7.4 2.6 10.3 5.4 10.7 6.2 22.2 7.9 33.7 2.8 19.8-.5 39-4.2 58.2-1.1 5.5-3.2 10.8-5.5 15.9-5 10.8-9.7 21.8-13.5 33-6.8 19.6-12.3 39.9-12.2 61 0 10.5 0 21.2 2.3 31.6 1.6 7.1.7 8.3-6.7 8.4-13.3.2-26.6.3-39.8 0-16.2-.4-32.5-1.1-48.7-1.9-4.6-.2-9.3-.3-13.8-1.8-7.4-2.3-10.6.1-10.9 7.9-.2 5.8 1.6 11.2 4.4 16.2 2.3 3.2 4.6 6.8 7.6 11.6zM2757 338.2c-16.3 2.5-32.8 2.4-48.9 7.9-21.2 7.3-39.3 18.7-55.8 33.4-14.1 12.7-23.9 28.3-32.6 44.9-3 5.7-4.4 11.8-5.9 17.9-.5 2.2.7 3.9 3 4.3 1.7.3 2.2-1.1 2.5-2.4 5-20.9 19.7-35.6 32.9-51.2 10.6-12.4 24.9-19.7 38.7-27.6 20.5-11.7 42.5-18.4 66.2-19.1 4.9-.1 9.9-.6 14.8-1 1.3-.1 2.6-.8 2.9-2.3.4-2.2-1.4-3-2.9-3.3-4.9-.6-9.8-2-14.9-1.5zm-118.5 152.9c-1.6-3.2-1.1-5.9-1.6-8.5-.6-2.9-1.3-5.9-2.5-8.6-1.5-3.2-4.1-5.5-7.9-4.8-3.3.6-4.9 3.3-5.4 6.4-.6 3.3-1.6 6.7-1.2 9.8.9 6.7-1.5 15.3 5.3 19.2 6.2 3.6 5.5 7.5 4.8 12.9-1.7 13.4 9.3 29.7 22 33.5 2.8.8 5.7.8 6.7-2.2s-2-3.5-4.1-4.5c-7.1-3.4-11.2-9.5-13.2-16.7-3.7-13 .6-24 9.8-33.3 1.2-1.2 2.7-2.3 1.8-4.1-.9-1.8-2.7-2.9-4.9-2.8-3.4.3-5.8 3.1-9.6 3.7zm62.9 33.5c.5-7.9-1.6-15.2-5.7-21.8-3.5-5.6-7.3-5.7-10.5-.1-6.2 10.9-5.9 22.2-1.4 33.5 1.2 3 3.8 5.5 6.6 7.3 4.5 2.8 7.3 1.8 9.1-3.2 1.8-5.1 1.7-10.4 1.9-15.7z"/><path fill="#D9925A" d="M2945.9 926.4c11.9 5.7 21.2 14.9 31 23.2 11.4 9.7 23.2 19 34.1 29.2 10.9 10.1 25 14.8 38.5 20.7 22.8 9.9 46.9 15.2 71.3 18.3 19.8 2.6 34.8 11.8 48.3 25.3 14.4 14.3 28.4 28.9 44.3 41.6 1 .8 1.9 1.8 2.8 2.8 9.5 10.3 9.2 13.2-2.6 20.3-29.8 17.8-61.4 31.2-95.3 39.3-8.3 2-16.4 5-25 6.2-22.1 3.2-44.3 4.3-66.5 5.5-20.6 1.1-41.3.2-61.9-.3-13.3-.3-26.2-4.1-39.2-6.6-8.8-1.7-17.5-3.6-26.3-5.1-9.6-1.7-13.7 2.7-11.3 12.2 1.5 5.7 1.2 11-.5 16.6-4.4 14.8-11.4 28.4-18.9 41.7-7.8 13.9-20.8 21.5-35.6 25.5-33.2 8.9-66.8 14.2-101.4 10.8-23.4-2.3-46.9-4.6-70.1-8.6-9.8-1.7-19.4-4.6-28.9-7.4-31.5-9.2-63.3-17.3-92-34.2-16.9-10-34.3-18.8-50.7-29.7-7.7-5.1-15.8-9.6-23.2-15.2-4.6-3.5-7.1-7.5-7.6-14-2.5-28.9-15.7-52.3-38.7-70.1-21-16.2-44.6-25.9-70.8-29.8-4.6-.7-7.8-2.8-9.4-7.6-3-8.5-6.4-16.8-5.4-26.1.8-8-1.4-15.8-1.6-23.8-.4-14.8 1.5-29.2 3.9-43.6 1.4-8.4 5.6-15.5 9.8-22.7 4.9-8.4 2.9-13.5-6.4-14.9-15.9-2.5-30.6-8.3-45-15-5.6-2.6-12.3-2.8-16.8-7.7.9-3.5 3.4-5.2 5.6-7.1 37.3-31.6 76.1-61.3 116.9-88.3 8.6-5.7 17.8-10.5 26.7-15.6 2.3-1.3 5-2.1 6.4-4.5 1.7-2.8 2.3-4.8-1.6-7.2-6.5-4-13.9-3.5-22.1-5.9 7.3-5.8 13.4-11.3 20.1-16 8.7-6.1 16.6-13.3 25.2-19.5 9.9-7.2 20.8-10.5 32.4-11.5 15.9-1.4 31.9-1.6 47.8-2.3 4.3-.2 4.3 2.6 4.8 5.8 2.6 17.5 2.3 35.1 2.2 52.7 0 6.7 2 12 6.3 17.3 7.7 9.5 16.5 18.6 20.5 30.4 4.1 11.9 7.4 24 9.4 36.6 2 12.4 6.5 24.3 8.5 36.8 2.6 16.1 6.5 31.9 9.2 48 6.8 39.6 12.9 79.4 20.2 119 4.1 22.6 10.1 44.8 15.1 67.2 1.7 7.5 3.1 15 4.6 22.5.4 2 .9 4 3.6 3.8 2.1-.2 2.1-2.2 2.9-3.5 1.5-2.3.4-4.3-.2-6.6-3.7-14.8-7.4-29.7-10.8-44.5-5.6-24.3-8.7-49.1-13-73.6-3.8-21.6-8.5-43.1-11.9-64.7-4.4-28.2-10-56.2-14.2-84.4-3-19.7-8.1-39-14-58.1-3.9-12.4-12.1-22.1-20.1-31.8-4.7-5.8-7-11.4-6.9-19 .1-10.3-1.4-20.5-2.1-30.8-.3-4.3-.3-8.6-.5-13-.2-3.3 1-5.9 4.2-7.2 10.6-4.1 19.7-11.1 29.8-16.2 4.3-2.2 6.9-2.3 10.1 1.9 9.6 12.3 19.5 24.3 31.3 34.7 5.8 5.1 11.2 10.5 18.2 13.8 3.5 1.6 5.3 3.7 5.4 7.5 0 13.2 3.9 25.5 8.3 37.3-1.9 2.9-3.7 1.2-5.5.9-17.8-2.4-30.9 5.9-41.5 18.9-14.1 17.4-12.3 41.5 3.2 59.4 16 18.4 35.8 29.3 60.5 33.1 37.9 5.8 74.1-.3 109.8-12.2 5.6-1.9 10.9-4.6 15.8-8.2 3.4-2.5 4-4.3 2.3-8.1-3.5-7.4-8.5-14.2-10.2-22.8 7.7-1.7 14.7 1.2 21.9 1.6 12.3.6 24.6 1.7 36.8 2.4 3.4.2 6.1 1.3 9 3.4 18.6 13.6 35.6 28.9 52.4 44.6 5.6 5.2 12.8 8.3 18.6 13.4 3.7 3.3 5.8 6.8 6.5 11.8 3.3 24.4 6.7 48.7 10.3 73 .5 3.6 1.5 7.2 2.6 10.6.5 1.6 2 2.9 3.9 2.4 1.8-.5 2.4-2.3 2.2-4-.9-7.3-1.8-14.5-3.1-21.7-3.4-19-6.2-38-8.6-57.1.8-1.1 1.3-1.7 1.9-2.2z"/><path fill="#D9925A" d="M2419.2 767.5c-10.6 7-20.1 13.6-29.9 19.9-18.8 12-36.6 25.4-53.7 39.7-15.6 13-32 24.9-48 37.3-4.7 3.7-9.4 7.5-13.8 11.5-3.3 3-6.5 4-10.8 2.2-29.9-12.6-57.7-28.5-82-50.3-14.9-13.3-30.1-26.1-43.6-40.9-11.5-12.7-20.2-27.2-29.8-41.2-5.3-7.7-9.7-15.9-14.3-24-10.4-18.3-17.4-38-23-58.2-4.3-15.7-8.7-31.4-11.4-47.4-4.2-25.3-5.8-50.5-4.1-76.3 3.2-47.7 18.1-91.8 39.5-133.8 19.9-39.2 47-72.7 80.5-101.5 28.8-24.8 61.3-41.7 96.9-53.5 12.4-4.1 25.2-5.1 37.8-7.8 10-2.1 20.2-3.2 30.4-4.8 1.6-.3 3.3-.5 4.9-.7 7.8-1.1 13.4.9 18.6 7.9 19.7 26.4 40.1 52.2 60.5 78.1 18.5 23.6 36.8 47.3 56 70.3 8.2 9.8 7.6 20.9 8.4 32 .3 3.7-3.7 4.5-5.7 4.1-12.7-2.2-26.1-2.2-37.4-9.4-10.4-6.6-20.7-13.4-29.1-22.6-2.5-2.8-5.5-4.8-8.7-6.5-4.3-2.3-8.2-2.1-11.6 1.8-4.5 5-9.6 9.2-15.3 12.7-4.4 2.7-6 6-3.5 10.9 2.2 4.2 2.6 7.8-1.5 11.6-3.7 3.4-3.6 8-2.6 13 3.3 16 11.6 29.6 19.8 43.3 1.9 3.1 4.6 5.7 5.6 9.5-6.8 4.2-13.6 8.4-20.3 12.6-.6.3-1.3.4-1.8.8-5.9 4-12.2 8.5-10.8 16.5 1.2 7.3 7 11.7 13.8 14.5 3.4 1.4 6.4 1.2 9.5-.6 2-1.1 4.2-2 6.2-3.2 6.3-3.8 12.3-4.5 19.6-1.4 13.1 5.6 26.6 3.7 39.9-.7 10.4-3.4 22.1.9 28.2 9.9 10.1 14.9 20.6 29.5 29.6 45 3 5.2 7 9.7 10.6 14.5 4 5.2 3.6 7.2-1.6 10.5-8 5.1-14.2 11.9-20.9 18.4-8.5 8.4-14.3 18.5-18.7 29.2-3.7 8.7-5.4 18.4-6.6 28-2 15.6-3.6 16.4-16.1 6.9-8.4-6.5-16.8-13.1-24.7-20.2-6.7-6-14.7-7.6-22.9-8.5-7.6-.8-15.2-1.8-22.6-3.8-12.6-3.3-25.6-4-38.4-5.8-6.6-.9-11.7-3.4-16.1-8.6-4.7-5.6-10.4-10.2-15.3-15.6-12.7-13.7-25-27.7-37.8-41.2-13.3-13.9-26.4-28-38.4-43.1-1.1-1.3-2.6-2.3-4.3-1.2-2.1 1.3-2.1 3.3-1.1 5.2.6 1.2 1.7 2.1 2.5 3.1 12.3 14 24.5 28.1 36.9 42 14.4 16.1 28.2 32.7 44.7 46.7 1.9 1.6 4.4 3.1 4.3 7.1-7.7 1.1-14.9-1.8-22.1-3.3-20.8-4.3-41.8-8.2-62.4-13.1-25.5-6.1-51.3-11-76.7-17.5-2.6-.7-5.2-1.5-7.8-1.8-23.6-2.2-46.3-8.8-69.3-14-3.2-.7-6.5-1.3-9.8-1.7-2.2-.3-5.3-.9-6 2-.8 3.1 2.4 3.5 4.5 4.1 9 2.4 18.1 4.5 27.1 6.8 21.5 5.5 42.9 11.9 64.9 15.4 5.3.8 11.2-.1 16 3.7-8.1 7.7-18.7 11.3-28.1 16.8-5.5 3.2-10.4 7.2-16 10-1.8.9-4 1.4-2.8 4.1 1.3 3.2 3.9 3.6 6.5 1.9 7.8-5.1 17-7.6 24.6-13.1 6.8-4.8 14.1-8.8 21-13.5 5.6-3.8 11.4-4.7 18-3 30.3 7.8 61.2 12.5 91.8 19.1 11 2.4 22.5 3.4 33.1 6.8 10.7 3.4 21.8 3.9 32.6 5.8 11.1 2 22.4 3.4 33.7 4 18.4.9 32.8 9.7 46.5 20.7 4.1 3.4 8.1 6.9 12.2 10.4 3.3 2.8 3.5 5-.3 7.9-18 13.7-35.9 27.5-53.8 41.3-1.3 1-2.6 2-3.9 3.1-1.3 1.1-2.7 2.5-2.4 4.2.5 2.2 2.6 2.7 4.7 3 5.5.9 11.6 1 17.7 6z"/><path fill="#FDFDFD" d="M2348.1 1055.5c12.8 1.8 28.2 2.7 42.2 11.2 8.2 5 17 9.1 25 14.3 12 7.8 21.2 17.6 25.1 32 1.8 6.7 5.7 12.7 7.5 19.4 4 15.2 4 29.7-8.3 41.4-10.4 9.9-23.5 13.8-37.5 12.7-14.1-1.2-27.9-3.9-41.4-9.2-27.1-10.6-48.1-28.8-63.4-52.5-11.6-17.8-13.1-42.2 4.8-57.1 1.5-1.3 3.1-2.5 4.8-3.5 5.8-2.9 31.5-8.7 41.2-8.7z"/><path fill="#FCFCFC" d="M2560.6 423.9c-4.3 10.3-9.3 20.4-11.5 31.4-4 19.8-11.4 38.9-10.7 59.5 0 1.3-1 2.6-.8 3.9.7 5.7-3 6-7.2 6.8-15.3 3-30.4.2-45.6-.4-7.7-.3-15.3-1.2-22.3-4.4-2.8-1.3-4.9-.7-7.4.6-5.6 2.9-11.4 4.9-17.5 6.7-8.9 2.5-15.9.1-22.1-5.1-8.4-6.9-9.6-8.8-22.7-.4-2 1.2-3.6 3-5.5 4.3-5.4 3.7-7.3 3.2-11.5-2.2-2.1-2.7-1.8-4.6.5-6.7 5.4-5 11.6-8.8 18.1-12.3 3.8-2.1 7.7-3.8 11.5-5.9 8.5-4.7 9.2-9.4 2.8-16.2-4.6-4.8-9.1-9.7-13.6-14.5-7-7.5-10.2-17-13.3-26.4-1.2-3.8-1.1-7.5 2-11.1 2.6-3 6.2-6.6 1.8-11.3-1.6-1.8-.6-3.7.9-5.3.7-.7 1.4-1.4 2.2-2 4.4-3.4 7.2-10.3 12.6-10.5 4.8-.1 8.2 6 12.4 9.2 12.2 9.4 25 18 39.3 23.2 16.4 5.9 33.3 9.1 51.5 5.5 17.8-3.5 34.8-8.1 51-16.1.9-.4 1.8-.8 2.8-.9.5-.2 1.1.2 2.3.6zm20.7 259.9c-8.2 6.8-17.8 10.7-26.6 15.9-1.5.9-3.7 2-4.6.9-5.2-6.7-11.3-2.5-17.2-1.9-14.3 1.3-28.6.4-42.9.5-4.3 0-4.5-3.5-4.5-6.4-.1-8.7 2.3-17 5-25.2 2.9-8.6 7.6-16.4 13.4-23.2 10.7-12.8 23.3-23.7 36.9-33.4 5.6-4 6.9-3.2 8.4 3.4 2.4 10.4 6.7 20.2 11.1 29.8 6.2 13.6 12.3 27.3 21 39.6z"/><path fill="#D89259" d="M2489.6 538.7c4.9-1.3 9 .9 13.1 1.1 9.3.5 18.5 2.3 27.8 1.2 3.8-.4 6.2.5 6.5 5.1.9 15.6 2.1 31.2 5.9 46.4 1.5 6.1-3.2 7.3-6.6 9.6-4 2.7-5.4-1.5-6.8-3.6-13.7-19.5-28.1-38.5-39.9-59.8z"/><path fill="#D9925A" d="M2328 651.6c.2.2.4.4.5.6-.2.2-.5.4-.7.4-.2 0-.4-.4-.5-.6.3-.1.5-.3.7-.4zM2944.2 928c-.6-.8-.9-1.7.2-2.3.3-.2 1 .4 1.5.7-.6.5-1.1 1.1-1.7 1.6z"/><path fill="#FEFEFE" d="M1952.4 2129.4c7.2 4.6 14.1 9.7 22.6 12 4.1 1.1 7.1 1.6 8.3-3.5 1.3-5.6 5.8-9.6 7.2-15.2 1.6-6.3.9-11.2-3.4-16.6-4.8-6-11.1-10.4-15.2-17-1.7-2.7-2.9-4.6-.6-7.9 6.9-9.8 10.9-21.1 16.3-31.8 1.9-3.7 2.8-7.7 3-11.5.6-13.9 1.7-27.9-1.7-41.6-1.8-7.1-5.4-14.6-4.2-21.2 1.1-6.7 8.9-11 13.5-16.7 6.5-8 13.3-15.7 18.2-24.8 3.3-6.2 8.3-11.2 12.5-16.6 10.8-13.9 17.6-29.7 24-45.7 8.8-21.9 14.2-44.8 20-67.7 5.1-20 9.8-40 13-60.3 5.2-33.1 8.8-66.3 6.5-99.9-.6-7.9.2-15.9-2.7-23.7-1.2-3.2-2-6.2-5.2-8.4-2.7 1.8-2.1 4.6-1.9 7 .4 6 1 11.9 1.9 17.8 2.3 14.6 1.4 29.2.2 43.7-3.6 44-10.8 87.4-21.8 130.2-7.1 27.5-16.2 54.1-30.3 78.8-11.3 19.9-22.8 39.8-37.7 57.3-5.6 6.5-12 12.5-18.3 18.3-6.6 6.2-8.1 12.1-4 21.1 8.5 18.8 11.6 38.7 5.8 59.2-.9 3.2-1.8 6.3-3.6 9.2-5.1 8.1-9.6 16.6-14.8 24.6-2.3 3.5-1.2 6.4.1 9.3 3.1 6.4 7.8 11.5 12.7 16.5 1.2 1.2 2.3 2.4 3.5 3.5 8.8 8.7 8.9 11.1 1.6 20.8-2.4 3.2-4.9 4.2-8.4 2-5.6-3.5-11.9-6.3-15.9-11.8-2.7-3.6-6.7-5.4-9.6-8.6-1.6-1.8-3.5-2.2-5.4-1.3-2.3 1.1-3.3 3.1-2.8 5.8 1.3 7.3 3.6 14.1 7.4 20.5 4.6 7.7 10 14.9 15.8 21.8 5 5.9 4.9 7.8-.8 13-10.3 9.4-20.7 10.9-32.3 3.1-5.4-3.6-9.6-2.7-13.3 1-3.1 3-5.6 3-8.8 1.4-10.5-5.2-19.2-12.6-26.8-21.4-12.9-15-21.6-32.6-29.3-50.7-6.2-14.7-10.3-29.9-13.1-45.7-4.6-25.5-4-51.1-3-76.6.9-24.1 3-48.2 8.7-72 6.6-27.1 14-54.1 24.1-80 7.7-19.8 14.5-39.8 21.3-59.8 4.2-12.6 7.1-25.4 10-38.4 2.9-13 4-26.1 4.3-39.2.5-22.5.8-45.2-4.8-67.3-1.7-6.6-3.6-13.4-12.2-15.7-.2 5.7 1.7 10.5 3.3 15 6 17.2 6.2 35.2 6 52.8-.2 26.5-4.1 52.6-12.4 78.2-7.3 22.7-14.2 45.6-22.9 67.8-9.6 24.5-16.5 49.7-22.9 75.1-5.5 21.6-8 43.7-10.6 65.8-3.5 29.3-3.3 58.7 1.1 87.9 4.8 31.3 13.7 61.5 30.1 89 5.3 8.8 11.8 16.8 19.3 23.9 4.1 3.9 8 8 12 12-1.3 2.1-3.6 2.6-5.5 3.7-2.8-1.6-6-1.8-8.7-.8-14.4 5.3-29.5 7.6-44.1 11.9-6.4 1.9-12.3 6.5-17.6 10.9-18.6 15.6-36.6 31.8-51.7 51.1-11.3 14.4-22.1 29.1-32.5 44.1-21.8 31.6-39.6 65.3-53.4 101.2-4.3 11.2-9.1 22.1-12 33.2-20.7-1-39.3-8.2-57.6-16.1-9.5-4.1-17.3-11.1-25.7-17-22.4-15.7-41.8-34.9-60-55.1-16.9-18.7-32.5-38.7-44.2-61.3-5-9.7-11.5-18.6-14.4-29.4-.9-3.3-1.3-6.5-.5-9.8 5.8-23.3 16.8-44.1 32.7-61.8 14.5-16.1 33.8-22.9 55.6-21.6 23.9 1.5 37.7 15 44.6 37.2 4.4 14.3 10.9 27.9 12.8 42.9.4 3 2.3 5 5.3 4.9 2.9-.1 5-1.8 5.8-4.6.4-1.6.5-3.3.5-5-.1-27.5 9.6-52.7 18.4-78.1 2.4-6.9 8.3-11.9 9.7-19.3.4-2.2 2.5-4-.7-5.8-3.2-1.7-5.2 0-6.7 2.3-7.8 12.7-16.1 25.1-19.3 40.1-2.1 9.9-5.8 19.5-9.5 31.7-3.2-7.8-5.7-13.6-8-19.4-4.6-11.6-12.6-20.1-23.4-25.9-7.5-4-14.5-8.7-23.6-9.7-15.4-1.8-29.9 1.2-43.4 7.6-21.5 10.2-36.5 26.8-46.4 48.7-5.9 13.1-11 26.1-12 40.6-.3 3.4-.2 6.5.8 9.6 5.2 17.3 12.3 33.7 23.2 48.3 4.7 6.2 5.5 11.4 2 19-8 17.1-14.7 34.8-19.2 53.2-1.1 4.3-3 3.9-6.5 3-20.6-5.1-38.6-15.5-56-27.2-19.9-13.3-39.4-27-55.8-44.6-14.3-15.3-27.5-31.5-39.3-48.8-9.2-13.4-17.9-27-24.8-41.9-2-4.3-2.2-8-.9-12.4 7.1-23.9 21.1-42.7 42.4-55.5 10.6-6.3 22.9-8.7 34.9-11.1 12.2-2.5 23.3 4.7 26.5 16.6 4 14.9 11.5 28.3 17.3 42.4 1.7 4.1 4.8 7.2 8.2 9.9 2.6 2.1 5.1 1.6 6.1-1.8.8-2.5 1.7-5.4 1.2-7.8-4.8-23.1.5-45 8.5-66.3 2.1-5.6.4-7.4-3.8-10-16.8-10-33.9-19.8-49.1-32.1-33.5-26.9-65.5-55.2-91.1-90.2-17.7-24.2-33.7-49.3-45.1-77.1-4-9.8-9.4-19-13.4-28.9-9.1-22.6-15.9-45.6-19.8-69.7-2.6-16.1-6.3-32-6-48.3.5-25.7-2-51.6 3.9-77.1 1.2-5.5 1.3-11.2 1.6-16.9 1.7-28.3 8.7-55.7 16.6-82.5 5.3-17.9 12-35.8 19.6-53.1 8.7-19.7 16.8-39.7 26.2-59.1 11.4-23.6 25.9-44.8 42.7-64.8 10.7-12.7 21-25.8 32.5-37.9 22.4-23.5 45.2-46.6 71.1-66.5 20.6-15.8 42.7-29.3 64.1-43.8 12.9-8.7 27.8-14.2 42.2-20 10.1-4 20.2-8.2 30.4-12.2 26.6-10.5 53.8-18.9 82.5-22 16.5-1.8 32.7-5.4 49.3-6.9 22.6-2 45.2-.4 67.8.8 34.1 1.8 66.8 9.3 99.1 20 13.2 4.4 26.6 8.4 39.5 13.4 30.9 11.9 61.1 25.6 89.4 43.2 25.7 16 49.3 34.5 71.5 55 4.9 4.5 10.9 7.5 15.6 12.4 16.3 17.4 33.4 34 48.7 52.3 7.6 9.1 16.3 17.5 22.8 27.5 12.3 18.9 25.1 37.6 36.5 57 10.4 17.7 18.3 36.8 25 56.2 4.3 12.5 9 24.9 11.9 38 6.7 30.4 12 61 14.9 92 1.3 14.6 1.9 29.2 2.4 43.7.8 19.9-1.5 39.8-4 59.6-1.1 8.9-1 17.8-2.8 26.7-6.6 34.2-16 67.5-28.1 100.2-10.9 29.5-25.9 56.7-41.2 83.9-14 24.9-30.3 48.1-51.3 67.9-9.8 9.3-18.6 19.8-28.4 29.3-25 24.3-53.5 43.4-84.7 58.7-8.9 4.4-8.9 4.1-16.1-2.8-5.1-4.9-9.6-10.2-11.8-17 .7.1 1.5-.8 2.2-1.7zm-374.8-849.6c-2.5-.5-5.4-.8-8.4-.3-2.9.4-5.9 1.1-8.8 1.2-32.5.6-62.1 10.8-90.5 26.2-33.7 18.3-59.2 44.1-77.4 77.6-.8 1.5-1.9 3-.5 4.4 1.4 1.5 3.1.4 4.6-.2 2.4-1 3-3.4 4.2-5.4 2.7-4.6 5-9.5 8.3-13.6 15.3-18.9 32.5-35.5 53.4-48.5 26-16.2 54.1-26 84.1-30.7 16.7-2.6 33.5-3.1 50.3-1.1 2 .2 4.1 1.2 4.6-1.7.4-2.4-1.2-3.6-3.1-4.5-.9-.4-1.9-.5-2.9-.8-5.5-2.1-11.4-2.7-17.9-2.6zm-287.8 921c-3.9.2-6.7 2.9-9.1 6.1-1.2 1.6-2.8 3.5-1.3 5.3 1.5 2 3.6 1 5.2-.3 4.9-4.1 8.9-2.1 13.3 1.2 7.9 5.9 13.6 13.6 18.6 21.8 7.8 12.8 15.6 25.5 24.6 37.5 6.9 9.3 13.5 18.9 20.3 28.2 4.9 6.7 10.2 13.1 16.2 18.9 1.4 1.4 3.4 2.6 5.2.7 1.7-1.8.9-3.7-.6-5.2-10.6-10.2-18.7-22.3-27.2-34.2-9.8-13.8-19.8-27.4-28.5-42-6.8-11.3-12.9-23.2-22.5-32.7-4-3.9-8.7-4.7-14.2-5.3zm141.2-731.1c0 1.6-.4 3.4.1 4.9 4.2 12.8 10 24.6 21.1 33 3.2 2.5 6.8 4.2 10.6 5.5 2.3.8 4.7.9 6.1-1.7 1.2-2.2 1.1-4.5-.2-6.7-.9-1.6-2.6-2.1-4.1-2.7-14-5.1-18-17.5-19.1-30-1.4-16.2 3.1-30.9 17.9-40.5 1.9-1.2 2.9-3.1 2.2-5-1-2.6-3.4-3-5.8-2.3-1.5.5-3.1 1.3-4.3 2.4-13.2 11.5-22.8 25-24.5 43.1zm130.5-31.2c.4-12.2-1.2-21.4-4-27.2-5.2-10.5-12.8-11.1-19.7-1.7-10.4 14-8.3 39.8 2.2 55.7 5.5 8.3 12.2 7.6 16.5-1.4 1.3-2.7 2.3-5.6 2.8-8.5 1-6.5 1.7-13.1 2.2-16.9zm-12.1 104c15.4-1.6 27.9 3.1 39.6 10.6 2 1.2 3.7 2.9 5.8 3.8 1.7.7 3.6 2.3 5.5.6 2.3-2 .8-4.5-.1-6.4-2.8-5.7-8.1-8.8-13.7-11-15.5-6.1-31.8-7.3-48-4.6-9.1 1.5-18 4.7-24.3 12.4-1 1.3-2.6 2.5-.9 4.2 1.5 1.5 2.9.6 4.3-.4 10.1-6.3 20.7-10.6 31.8-9.2zM1428.1 1427c-.1-1.4.1-4.1-.4-6.7-.4-2.3-1.4-4.4-2.2-6.6-2.9-7.9-6.6-8.8-11.6-2.3-8.8 11.4-8.6 24-4 36.9 1.1 3.1 2.8 6.4 6.9 6.2 4.1-.2 6.4-2.9 7.9-6.6 2.4-6.3 3.1-12.9 3.4-20.9z"/><path fill="#DEAA81" d="M1921.1 2231.3c0-.1.1-1.4 0-2.7-.7-12.3-.8-12.5 12.3-13.2 23.9-1.4 18.4-3.2 21.5 17.2 4 26.6 7.6 53.2 11 79.8 2.7 21.4 4.9 42.8 9.1 64 1 4.9 1.9 9.8 3.3 14.5 1 3.4-.2 4.9-3.1 6-7.5 2.9-15.2 4.8-23.3 4-7.4-.8-8.7-2.1-10.4-9.6-3.4-14.9-3.8-30.3-6.2-45.3-3.5-21.6-6-43.3-9.1-65-2.4-16-3.5-32.2-5.1-49.7zm-40.6-51c2-1 4.2-1.6 5.5-3.7 6 2.2 10.1 7.3 16.3 9.3 5.5 1.7 10.3 2.8 14.7-1.6 2.5-2.6 4.8-2.2 8-1.1 5.3 1.9 10.8 2.9 16.3 4.3 8.2 2.2 15.7.3 22.7-4.2 2.2-1.4 4.4-4.6 6.8-3.4 6.5 3.2 14.2 4.3 19.8 9.3 4.2 3.8.7 12.4-5.7 13.7-5.2 1.1-10.5 1.5-15.8 1.7-30.2 1.3-60.4 2.5-90.6 3.7-15.3.6-30.6 1-45.9 1.5-3.3.1-6.6 0-11.6 0 5.5-6.5 10.7-10.3 17.7-11.3 11.3-1.6 21.8-6.1 32.6-9.2 3.1-.9 6-2.8 8.8-4.5 1.9-1.1.6-2.9.4-4.5zm-361.2 181.6c7.3 4.5 12.3 10.8 18.2 16.1 2 1.8 2.2 12.1.7 14.1-.8 1.1-2 1.6-3.4 1.6l-19.9-.3c-2.2-.1-4.3-1.1-3.4-3.6 3.2-8.9 3.4-18.8 7.8-27.9z"/><path fill="#FEFEFE" d="M1950.1 2132.1c-.8-1.3-2.5-2.8-1.3-4.1 1.6-1.8 2.6.3 3.6 1.4-.7.9-1.5 1.8-2.3 2.7z"/><path fill="#FCFCFC" d="M2288.7 1267.1c-13.2 0-24.8-2.7-35.5-9.7-4.9-3.2-8.6-7.2-11.6-12-5.6-8.9-3-17.9 6.8-21.9 9-3.6 18-5.2 28.1-2.6 15.5 4.1 28.5 11.5 39.3 23 5 5.3 4.9 9.5-.4 14.3-7.8 7.2-16.7 10.9-26.7 8.9zm-1089.5 62.2c-6.3 1-11.9-1.6-17.4-3.9-5.8-2.5-9.8-10.4-8.2-16.7 1.9-7.4 5.1-14.1 12.6-18.2 13.5-7.3 27.6-8.4 42.3-5.3 6.1 1.3 8.1 4 8.6 10.5.6 8.8-1.8 15.9-9.2 21.8-8.6 6.9-17.5 12.1-28.7 11.8zm957.8-10.5c-10.3 0-19.8-2.9-28.3-9.8-5.4-4.4-8.5-10.2-11.1-16.3-2.5-5.7.1-14 5.5-17.9 5.5-3.9 12-7.1 18.7-5.1 12.4 3.7 24.5 8 31.8 20.2 3.2 5.4 10.8 9.5 6 17-5 7.9-11.8 13.8-22.6 11.9z"/><path fill="#111" d="M779.2 548.6c0 1.7.2 3.3 0 5-.6 4.7-4.4 6.7-8.5 4.2-2.5-1.5-4.8-3.6-6.9-5.7-5.5-5.3-10.7-11-16.4-16.1-13.5-12-32.7-7.8-40.8 8.4-3.1 6.1-4.2 12.5-5.3 19-1 6.6-2.6 13-5.4 19.1-2.2 4.9-4.5 5.1-9.5 2.9-6.8-3.1-12.5-7.6-17-13.5-3.7-4.8-8.5-8.4-13.3-11.9-3.7-2.7-7.5-2.5-11 .3-17.1 13.7-34.7 26.8-46.7 45.7-2.7 4.3-5.7 3.9-7.8-.9-2-4.4-2-9.1-.8-13.7 6.2-22.3 16.1-42.5 31.5-60.2 11.2-13 23.8-24.3 38.7-32.2 23-12.2 47.5-20.4 74.3-16.8 6.6.9 12.9 3.6 17.8 8.4 16.1 16 25.8 35 27.1 58zm-11.9-8.8c.2 1.7 1 3.3 2.8 2.9 1.5-.4.9-2 .2-3.1-1.7-8.9-5.4-17.2-9.8-25-9.2-16.3-21.7-26.9-42-23-14.6 2.8-29.6 4.2-43.1 11.3-11.8 6.2-24.4 11.3-33.9 20.8-12.9 13-24.3 27.4-33.8 43.1-2.5 4.1-3.7 8.4-2.9 13.3 4.6.4 6.4-2.8 8.8-5.5 8.1-8.9 17.1-16.7 28.3-21.7 6.7-3 13.9-3.6 20.1.4 4.9 3.2 9.9 6.6 14.2 10.9 3.8 3.8 7.4 8.2 12.6 10.7 3-3.4 2.8-7.2 3.4-10.7 1-5.9 2.9-11.6 4.5-17.4 3.8-13.5 11.6-22.5 25.8-26.4 9.8-2.7 18.4-1.8 26.3 4.1 6.4 4.8 12.4 10.2 18.5 15.3zm-162.8 42.8c.2-.2.4-.4.6-.7-.4-.2-.8-.5-1.2-.5-.2 0-.4.4-.6.6l1.2.6zm121.3 400.1c-.2 2.6-.2 5.3-.8 7.9-.7 3.1-3.5 3.9-6.2 4-3.2.1-3.5-2.4-3.6-4.9-.1-2.3-.2-4.6-.3-7 2.7-28.7 1.7-57.5 2.9-86.2.9-23.5-.2-47.1 2.3-70.5.3-2.5-.3-5.3 2-7.5 4.5 1.5 4.7 5.5 4.2 8.9-1.5 10.3-.3 20.5-.1 30.7.4 24.4 0 48.8-.1 73.2l-.3 51.4zm27.5-7.7c-1 8.2-2.1 16.4-2.1 24.7 0 2.7-.9 5.6-4.5 5.2-3.4-.4-4-3.1-3.8-6 .3-6.6 1.3-13.2.7-19.9 2.7-3.9 1.6-8.4 1.6-12.6-.1-19.6 3.6-38.9 4.6-58.4 0-1 .5-1.9.9-2.8.8-1.9-.5-5.5 3-5.2 3.7.3 4.3 3.3 4 6.7-1.1 12.4-2.2 24.9-3 37.4-.9 10.4-2 20.6-1.4 30.9zm-36.5-530.1c.1 3.9.2 7.8.2 11.7 0 8.8-3 16.1-10.7 21.2-2.8 1.9-4.9 1.1-7.2-.3-2.8-1.6-3.3-3.6-.1-5 8.1-3.5 9.3-10.7 10-18 .9-9.7-8.1-22.7-17-25.3-2-.6-4.4-.8-4.1-3.2.4-2.6 2-4.8 5.3-5 2.6-.1 4.5 1.1 6.3 2.5 5 3.9 9.4 8.2 12.5 13.9 1.4 2.7 1.6 6.3 5 7.7l-.2-.2zm-55.5.1c.2 4-1.1 7.9-2 11.7-.7 3-2.2 5.9-5.5 6.3-3.6.4-6.4-1.9-8.3-4.6-4-5.4-3.6-19.3.4-24.7 3.4-4.5 10.5-4.3 13.2.7 1.7 3.3 2.5 6.9 2.2 10.6zm-9.1-.9c-1.2 2-3.1 3.3-1.3 5.5.6.7 1.1.8 1.6.1 1.1-1.5.9-3-.3-5.6z"/><path fill="#111" d="M717 445.1c1.4-3.2-.1-6.4.2-9.7.5-5.8 2-10.9 8.3-14.2 4.2 6.7 9.7 12.2 6.3 21.4-3.3 8.8-6.1 9.8-12.6 2.9-.8-.8-1.4-1.1-2.4-.7 0 .1.2.3.2.3z"/><path fill="#0E0B09" d="M1093.7 643.4c-10.9-.3-20.5-5-30.3-9.2-2.4-1-4.4-3.2-5-6-1.6-7.8-4-15.5-3.2-23.6.3-3.2 1.4-5.7 3.9-7.8 11.1-9.2 23.2-16.5 37.3-20.3 4.2-1.1 7.2-.6 9.1 3.5.3.6.4 1.4.9 1.8 10.1 7.1 10.9 18.3 13.5 28.9 4.5 18.8-6.5 32.8-26.2 32.7zm17.7-36.6c2.8-11.8-9.5-14.4-14-22-.8-1.3-3.1-.2-4.7.3-6.1 1.9-11.5 5.1-16.8 8.5-14.5 9.4-15.2 11-11.3 27.6.6 2.7 1.6 5 4.3 6.3 4.2 2 8.2 4.5 12.4 6.2 11.8 5 22 1.9 30.9-6.9 2.9-2.9 4.5-5.8 1.1-9.4-2.9-3-2.2-6.8-1.9-10.6zm-10.8 73c-.8 9-4.3 15.7-10.7 20.4-4.9 3.5-10.4 3.8-15.8.1-3.4-2.3-5.9-5.4-8.3-8.5-3.1-4.1-3.2-8.2.1-12.7 4-5.4 8.4-10.3 13.5-14.5 4.4-3.7 8.6-3.9 12.6-.3 4.9 4.3 7.3 10.1 8.6 15.5zm-7.4 3.6c0-3.8-2-7-4-10-3.4-5.1-4.8-5.2-9.4-1.4-3.4 2.8-5.5 6.6-8 10.1-1.2 1.7-1.2 3.7-.3 5.7 1.9 4.2 7.9 7.6 12.1 6.8 5.7-1.2 9.6-5.7 9.6-11.2zM1053.1 569c.3 15.7-10.7 23.3-22.6 18.1-5.3-2.3-7.5-6.1-6.7-11.8 1.1-8.3 6.4-14.4 11.1-20.6 2.6-3.4 7.4-2 9.8.5 4.2 4.4 8 9.5 8.4 13.8zm-21.9 4.9c-.3 3.7-.3 6.7 3.9 7.2 4.4.5 8.3-2.2 8.8-6.1.4-3.7-3.9-10.5-6.6-9.8-4.6 1.1-4.7 5.8-6.1 8.7zm54.9 158.9c-1 5.7-2.4 10.3-6.1 14-3.3 3.2-8.3 4.2-11.7 1.9-4-2.8-3.4-6.6-1.9-10.6 2.3-6 6.4-9.9 12.7-11.1 5-.9 7.4 1.5 7 5.8zm-761.8 91c-.4 8.9-.9 18.5-1.4 28.1 0 .7-.2 1.3-.3 2-2 11.3-8 14.8-18.6 10.1-7.9-3.5-15.3-8.2-21.6-14.1-2.9-2.7-5.7-5.6-9.1-7.7-6.1-3.8-7.8-9.4-8.1-16-.4-8 1.2-15.8 1.9-23.7 1-10.8 5.3-14.7 15.7-12.2 10.5 2.5 21.2 4.6 31.3 9.3 7.1 3.3 10 8.3 10.1 15.5.2 2.7.1 5.3.1 8.7zm-50.9-18.7c-.7 7.1-1.8 12.9-1.8 18.6 0 5.7 1.5 11 7.3 14.2 3.4 1.9 5.7 5.5 8.9 7.9 6.7 4.9 13.3 10 22.4 9.3 3.1-.2 5.1-1.1 5-4.6-.1-11.3 2.5-22.5 2.3-33.8-.1-4.6-1.8-7.2-5.7-9.4-8.9-4.9-18.4-7.5-28.2-9.7-3.6-.8-5.2.9-3.7 4.5 2.7 6.4 5.7 12.7 8.2 19.2 1.1 2.9 4.9 7.4 1.7 8.8-4.8 2-5.5-3.7-7.1-7.2-2.5-5.6-3.2-12.2-9.3-17.8zm106.1 2.8c-.3 6.3-1.6 10.3-6.4 12-5 1.8-9.9 2.2-13.9-2-2.7-2.9-5-6.2-7.2-9.5-2.4-3.7-.4-7 1.5-10.2 2.9-5 6.4-10.7 12.1-10.8 6.3-.1 8.1 7 10.9 11.7 1.8 3.1 3.3 6.7 3 8.8zm-15.1-11.4c-.8.6-1.7 1-2.4 1.7-4.7 4.6-4.1 8.8 1.8 14 1.4 1.2 2.7 3.2 5 2.2 2.6-1.2 4.1-3.5 3.7-6.4-.5-4.1-2.7-7.4-5.5-10.2-.5-.6-1.6-.8-2.6-1.3zm6.9 108.7c-.2 9.3-6 12.7-14 8.4-6.8-3.7-8.9-8.5-5.6-15.5 2-4.2 1.6-11.6 7.6-11.4 4.7.1 7 6.3 9.6 10.4 1.7 2.5 2.9 5.2 2.4 8.1zm-8.7 1.9c1.9-.1 2.6-1.3 2.4-2.7-.4-3.3-1.4-6.8-5.2-7.3-2.2-.3-2.8 2.3-2.7 4.4.2 3.6 2.6 5 5.5 5.6zM333.5 773c0 4.9-4.6 9.2-9.8 9.2-4.2 0-8.1-4.9-7.9-9.9.1-3.7 4.8-8.2 8.7-8.3 3.7-.2 9 5 9 9z"/><path fill="#111" d="M325.5 903.3c2.3.3 3.8 1.3 3.6 3.7-.2 1.9-1.6 2.9-3.3 3.1-2.3.2-3.8-1.2-4-3.3-.2-2.5 1.6-3.2 3.7-3.5zM354.9 756c-.1 2.1-1.3 2.9-3.2 2.9-1.8 0-3.3-.6-3.7-2.5-.5-2.1.8-3.2 2.6-3.4 2.2-.3 3.8.8 4.3 3zM2757 338.2c5.1-.5 9.9.9 14.8 1.6 1.5.2 3.3 1.1 2.9 3.3-.3 1.5-1.6 2.2-2.9 2.3-4.9.5-9.9.9-14.8 1-23.7.7-45.7 7.4-66.2 19.1-13.8 7.9-28.2 15.2-38.7 27.6-13.3 15.6-27.9 30.3-32.9 51.2-.3 1.3-.8 2.7-2.5 2.4-2.3-.4-3.5-2.2-3-4.3 1.5-6.1 2.9-12.3 5.9-17.9 8.7-16.5 18.5-32.2 32.6-44.9 16.4-14.8 34.6-26.2 55.8-33.4 16.2-5.5 32.7-5.5 49-8zm-118.5 152.9c3.8-.6 6.2-3.4 9.7-3.5 2.2 0 4 1 4.9 2.8.9 1.8-.6 2.8-1.8 4.1-9.2 9.3-13.5 20.4-9.8 33.3 2 7.1 6.1 13.3 13.2 16.7 2.1 1 5.1 1.5 4.1 4.5s-3.9 3-6.7 2.2c-12.7-3.7-23.7-20.1-22-33.5.7-5.5 1.4-9.3-4.8-12.9-6.8-4-4.4-12.6-5.3-19.2-.4-3.2.6-6.6 1.2-9.8.5-3.1 2.1-5.9 5.4-6.4 3.8-.7 6.5 1.6 7.9 4.8 1.2 2.7 1.9 5.7 2.5 8.6.4 2.4-.1 5.1 1.5 8.3zm-9.3-12.6c-5.2 6.9-1.6 12.1-1.2 19.3 4.8-6.9 3.1-12.2 1.2-19.3zm8.4 13.3c.2.4.4.8.7 1.3.2-.2.6-.5.6-.7-.1-.5-.4-.9-.6-1.3l-.7.7zm63.8 32.8c-.1 5.3-.1 10.6-1.9 15.7-1.8 5-4.6 6-9.1 3.2-2.9-1.8-5.4-4.3-6.6-7.3-4.5-11.3-4.8-22.7 1.4-33.5 3.2-5.6 7.1-5.5 10.5.1 4.1 6.6 6.2 13.9 5.7 21.8zm-11.2-13.7c-4.7 9.1-3.3 18.6 3.4 23.7 2.1-9.3 1.2-16-3.4-23.7zm-1112.6 768.9c6.5 0 12.4.6 18 2.7.9.3 2 .4 2.9.8 1.9.8 3.5 2.1 3.1 4.5-.6 3-2.6 2-4.6 1.7-16.8-2-33.6-1.5-50.3 1.1-30 4.7-58.1 14.5-84.1 30.7-20.9 13-38.2 29.5-53.4 48.5-3.3 4.1-5.6 9-8.3 13.6-1.2 2-1.8 4.4-4.2 5.4-1.5.6-3.2 1.6-4.6.2-1.4-1.4-.4-3 .5-4.4 18.2-33.5 43.6-59.3 77.4-77.6 28.4-15.4 58-25.6 90.5-26.2 3-.1 5.9-.7 8.8-1.2 2.9-.6 5.9-.4 8.3.2zm-287.8 921c5.6.6 10.2 1.5 14.1 5.3 9.7 9.5 15.7 21.3 22.5 32.7 8.7 14.5 18.7 28.2 28.5 42 8.4 11.9 16.5 24.1 27.2 34.2 1.6 1.5 2.4 3.4.6 5.2-1.8 1.9-3.8.7-5.2-.7-5.9-5.8-11.3-12.2-16.2-18.9-6.8-9.4-13.4-18.9-20.3-28.2-9-12-16.8-24.7-24.6-37.5-5-8.2-10.7-15.9-18.6-21.8-4.4-3.3-8.4-5.3-13.3-1.2-1.6 1.3-3.7 2.3-5.2.3-1.4-1.9.1-3.8 1.3-5.3 2.5-3.3 5.3-6 9.2-6.1zm141.2-731.1c1.7-18.2 11.3-31.7 24.4-43.1 1.2-1.1 2.8-1.9 4.3-2.4 2.4-.7 4.9-.3 5.8 2.3.7 2-.3 3.8-2.2 5-14.8 9.6-19.4 24.3-17.9 40.5 1.1 12.6 5.1 24.9 19.1 30 1.5.6 3.2 1.1 4.1 2.7 1.3 2.2 1.4 4.5.2 6.7-1.4 2.5-3.9 2.4-6.1 1.7-3.8-1.3-7.4-3-10.6-5.5-11.1-8.4-16.8-20.2-21.1-33-.4-1.5 0-3.3 0-4.9zm130.5-31.2c-.5 3.8-1.2 10.4-2.3 16.9-.5 2.9-1.5 5.8-2.8 8.5-4.3 8.9-11 9.7-16.5 1.4-10.4-15.9-12.5-41.7-2.2-55.7 6.9-9.4 14.6-8.8 19.7 1.7 3 5.8 4.5 15 4.1 27.2zm-14.6 18.7c3.4-1.6 4-4.8 4.8-8 2.6-10.3.8-20.3-1.3-30.3-.4-1.7-.6-3.4-2.5-3.7-2-.4-2.8 1.4-3.4 3-3.7 10.1-5.6 20.4-3 31 .8 3 1.9 6.3 5.4 8zm2.5 85.3c-11.1-1.4-21.7 2.9-31.7 9.3-1.5.9-2.9 1.9-4.3.4-1.7-1.7-.1-3 .9-4.2 6.2-7.7 15.2-10.9 24.3-12.4 16.3-2.8 32.5-1.5 48 4.6 5.6 2.2 10.9 5.3 13.7 11 1 1.9 2.4 4.3.1 6.4-1.9 1.7-3.9.2-5.5-.6-2.1-.9-3.9-2.5-5.8-3.8-11.8-7.7-24.3-12.4-39.7-10.7zM1428.1 1427c-.3 8-1 14.5-3.4 20.9-1.4 3.7-3.8 6.4-7.9 6.6-4.1.2-5.8-3.1-6.9-6.2-4.7-12.9-4.9-25.5 4-36.9 5-6.5 8.7-5.7 11.6 2.3.8 2.2 1.8 4.3 2.2 6.6.5 2.6.4 5.3.4 6.7zm-10.6-7.5c-2.4 8.2-6.4 16.3-1.1 25.8 5-8.9 5.4-17.2 1.1-25.8z"/><path fill="#AFAEAD" d="M767.3 539.8c-6.2-5.1-12.1-10.4-18.5-15.2-7.9-5.9-16.5-6.8-26.3-4.1-14.2 3.9-21.9 12.9-25.8 26.4-1.6 5.8-3.4 11.4-4.5 17.4-.6 3.5-.4 7.4-3.4 10.7-5.1-2.4-8.8-6.8-12.6-10.7-4.3-4.3-9.2-7.7-14.2-10.9-6.2-4-13.3-3.4-20.1-.4-11.2 5-20.2 12.8-28.3 21.7-2.4 2.7-4.2 5.9-8.8 5.5-.8-5 .4-9.2 2.9-13.3 9.5-15.8 20.9-30.1 33.8-43.1 9.5-9.5 22.1-14.6 33.9-20.8 13.5-7.1 28.4-8.6 43.1-11.3 20.3-3.8 32.8 6.7 42 23 4.4 7.8 8.1 16.1 9.8 25-1 0-2 0-3 .1z"/><path fill="#9E683D" d="M767.3 539.8c1-.1 2-.1 3-.1.7 1.1 1.3 2.7-.2 3.1-1.7.3-2.5-1.4-2.8-3z"/><path fill="#AFAEAD" d="m604.5 582.6-1.2-.6c.2-.2.4-.6.6-.6.4.1.8.3 1.2.5-.2.2-.4.4-.6.7zm47.7-138.5c1.2 2.6 1.5 4.1.3 5.6-.6.7-1 .6-1.6-.1-1.8-2.2 0-3.6 1.3-5.5z"/><path fill="#A16A3E" d="M1111.4 606.8c-.2 3.9-1 7.6 1.9 10.7 3.4 3.6 1.8 6.5-1.1 9.4-8.9 8.8-19 11.9-30.9 6.9-4.3-1.8-8.3-4.2-12.4-6.2-2.7-1.3-3.7-3.6-4.3-6.3-3.9-16.6-3.2-18.2 11.3-27.6 5.3-3.4 10.8-6.6 16.8-8.5 1.6-.5 3.9-1.7 4.7-.3 4.4 7.4 16.8 10.1 14 21.9zm-18.2 76.6c0 5.5-3.9 9.9-9.5 11.1-4.2.8-10.2-2.6-12.1-6.8-.9-2-.9-3.9.3-5.7 2.5-3.5 4.6-7.3 8-10.1 4.6-3.7 6-3.6 9.4 1.4 1.9 3.2 3.9 6.3 3.9 10.1zm-62-109.5c1.4-2.9 1.5-7.6 6.1-8.7 2.7-.7 7 6.2 6.6 9.8-.4 3.9-4.4 6.6-8.8 6.1-4.2-.5-4.1-3.4-3.9-7.2zM273.4 805.1c6.1 5.6 6.8 12.2 9.3 17.7 1.6 3.5 2.4 9.2 7.1 7.2 3.2-1.3-.5-5.9-1.7-8.8-2.5-6.5-5.6-12.8-8.2-19.2-1.5-3.5.1-5.3 3.7-4.5 9.8 2.1 19.3 4.7 28.2 9.7 4 2.2 5.6 4.8 5.7 9.4.2 11.4-2.4 22.5-2.3 33.8 0 3.5-1.9 4.4-5 4.6-9.1.7-15.7-4.4-22.4-9.3-3.2-2.3-5.5-6-8.9-7.9-5.9-3.3-7.3-8.5-7.3-14.2 0-5.6 1.1-11.4 1.8-18.5zm91-8.6c1 .5 2 .7 2.7 1.3 2.8 2.9 5 6.1 5.5 10.2.3 2.9-1.1 5.1-3.7 6.4-2.3 1.1-3.6-.9-5-2.2-5.9-5.2-6.5-9.5-1.8-14 .6-.7 1.5-1.1 2.3-1.7z"/><path fill="#9E683D" d="M362.6 907.1c-2.9-.6-5.3-2-5.4-5.6-.1-2.1.5-4.7 2.7-4.4 3.8.5 4.8 4 5.2 7.3.1 1.4-.6 2.6-2.5 2.7z"/><path fill="#AFAEAD" d="M2629.2 478.5c2 7 3.6 12.4-1.2 19.3-.5-7.1-4-12.4 1.2-19.3z"/><path fill="#FEFEFE" d="m2637.6 491.8.7-.7c.2.4.5.9.6 1.3 0 .2-.4.4-.6.7-.3-.4-.5-.8-.7-1.3z"/><path fill="#AFAEAD" d="M2690.2 510.9c4.6 7.7 5.6 14.4 3.4 23.7-6.7-5.1-8.1-14.6-3.4-23.7z"/><path fill="#FCFCFC" d="M1546.9 1457.2c-3.4-1.7-4.5-5-5.3-8.1-2.6-10.6-.7-20.9 3-31 .6-1.5 1.3-3.3 3.4-3 1.8.3 2.1 1.9 2.5 3.7 2.1 10 3.9 20 1.3 30.3-.9 3.4-1.6 6.5-4.9 8.1z"/><path fill="#AFAEAD" d="M1417.5 1419.5c4.3 8.6 3.9 16.9-1.1 25.8-5.3-9.5-1.3-17.5 1.1-25.8z"/></svg>