<svg xml:space="preserve" id="modul_02_04_kriseplan_introduktion_svg__Layer_1" x="0" y="0" style="enable-background:new 0 0 2635.8 2173.4" version="1.1" viewBox="0 0 2635.8 2173.4" xmlns="http://www.w3.org/2000/svg"><style>.modul_02_04_kriseplan_introduktion_svg__st1{fill:#fff}.modul_02_04_kriseplan_introduktion_svg__st2{fill:#fefefe}.modul_02_04_kriseplan_introduktion_svg__st3{fill:#0e0e0e}.modul_02_04_kriseplan_introduktion_svg__st4{fill:#0d0d0d}.modul_02_04_kriseplan_introduktion_svg__st5{fill:#101010}.modul_02_04_kriseplan_introduktion_svg__st6{fill:#fcfcfc}.modul_02_04_kriseplan_introduktion_svg__st7{fill:#fbfbfb}.modul_02_04_kriseplan_introduktion_svg__st8{fill:#d7d7d7}.modul_02_04_kriseplan_introduktion_svg__st9{fill:#f9f9f9}.modul_02_04_kriseplan_introduktion_svg__st11{fill:#111}.modul_02_04_kriseplan_introduktion_svg__st12{fill:#131313}.modul_02_04_kriseplan_introduktion_svg__st13{fill:#191919}</style><path d="M981.6 2001.2c4.9-.9 8.6-4.1 11.9-7 10.4-9.3 22.4-16.7 31.8-27.2 6.8-7.6 16.1-10.1 25.5-12.4 6.9-1.6 12.8.4 18.9 3.8 19.8 11.2 29.7 29.4 36.9 49.8 6.1 17.3 9.4 35.3 12.1 53.2 2.7 17.4 2.4 35.2.9 52.8-.2 2.5-1.6 4.1-3.3 5.8-8.9 9.1-18.7 16.8-30.5 21.9-14.9 6.4-29.7 13.3-45.6 17.2-9.3 2.3-18.7 4.4-28.1 5.9-28.7 4.7-57.6 8.6-86.8 8.3-22.9-.3-45.7-.7-68.5-1.5-26.4-.9-52-6.6-78-9.5-11.3-1.3-22.7-4.2-32-12.1-4.6-3.9-6.3-8.1-4.2-13 7.6-17.7 11.3-36.7 18.3-54.6 5.6-14.3 7.8-29.4 9.3-44.7 1.2-12.5 2.3-25.1 3-37.7 1.5-29.3-2.7-57.6-16.3-83.9-.9-1.8-1.8-3.6-2.7-5.3-8.3-16.7-4.1-14.1-23.1-15.1-20.4-1.1-40.1-5.1-60.1-8.1-24.2-3.6-48.4-7.6-72.5-12.1-20.9-3.9-41.2-10-61.4-16.5-11.4-3.7-22.2-8.6-33.1-13.5-9.3-4.2-19.7-5.9-28.3-12-3.4-2.4-6-.2-8.3 2.8-6.3 8.6-12.5 17.2-19.3 25.3-10 12-21.1 23-31.4 34.6-15 16.7-33 28.8-51.2 40.8-14.7 9.7-31.4 15.3-49.2 17.6-14.7 1.9-29.6 2.7-44.6 4.4 1.8 17.2 10.5 28.5 26.1 34.6 4.3 1.7 8.4 4.2 12.8 5.4 15.4 4.3 19.9 22.9 18.8 34.8-1.6 17.6-10.8 30.9-25.6 40.4-1.1.7-2.4 1.2-3.7 1.5-15.3 3.8-30.8 6.9-46.5 8.7-32.4 3.8-64.9 5-97.4 3.7-15.5-.6-31.4 0-46.2-5.9-10.7-4.2-20.9-8.9-28.3-18.8-14-18.7-23.9-38.9-26.2-62.4-.1-1.3-.5-2.6-1-3.9-5.6-17-5.9-34.8-5.8-52.2 0-19.8 1.2-39.7 6.6-59.1 3.8-13.8 5-28.1 8.2-42 4.6-20.5 10.4-40.4 19.6-59.4 3.5-7.2 9.3-11.9 15.2-16.8 2.8-2.3 5.6-.9 8.5-.1 10.3 2.7 20.6 5.2 31.4 4.7 26.5-1.1 51-7.7 71.5-25.5 9.7-8.5 20.8-15.6 27.7-26.9.7-1.1 1.7-2.1 2.3-3.2 5.4-9.5 5.3-9.5-3.5-16.4-3.4-2.6-6.6-5.5-9.7-8.6-11-11.1-23.2-20.8-34.8-31.1-4.2-3.7-6.5-9.2-10.5-13.3-22.4-22.7-43.3-46.8-60.6-73.5-7-10.8-17-19.6-21.1-32.4-1-3.2-4.6-5.6-6.8-8.5-6-8-10.5-16.7-14.6-25.9-8.7-19.6-18.8-38.6-27.5-58.2-5-11.4-8.6-23.5-12.2-35.5-7-23.5-15.3-46.8-19.2-71.1-1.8-11.2-6.7-21.5-8-32.7-2.5-23.1-7.4-45.9-7.8-69.2-.1-7.6-1-15.2-2-22.8-1.9-15.2-1.5-30.5-1.1-45.7.6-24.3-.4-48.7 1.7-73 .7-8.5 2.8-16.9 4.1-25.4 2.2-13.8 4.2-27.6 6.4-41.4 2.6-16.7 8.1-32.8 12.2-49.2 4-16.1 8.3-32.1 12.8-48.1 3.4-12.2 8.6-23.7 13.7-35.3 2.1-4.9 4.3-9.7 6.3-14.6 10-24.6 21.3-48.5 35.6-71 5.7-8.9 11.1-18 15.3-27.9 4-9.5 10.5-17.6 16.3-26.2 6.9-10.2 14.5-19.8 21.4-30 3.9-5.9 8.1-11.1 13.9-15.4 5-3.6 7.6-9.9 11-15 12.3-18.9 28.3-34.3 44.5-49.5 19.6-18.4 39.2-36.7 59.7-54.1 17.5-14.9 36.3-27.8 55.1-40.9 11.1-7.7 22.3-15.6 33.7-22.8 6.1-3.9 13.1-6.4 19.6-9.8 11.7-6.3 23.2-12.7 34.8-19.2 15.4-8.6 32.8-12.5 48.7-19.9 24.9-11.5 51.4-17.8 77.8-24 25-5.9 50.4-10.1 75.8-14.4 24.6-4.1 49.3-6.2 74.1-8.4 16.8-1.5 33.8-3.2 50.6-3.1 16.6.1 33.2 1.4 49.7 1.4 42.8.1 84.5 7.3 126 17 12.3 2.9 24.8 4.7 37.1 7.4 7.1 1.5 14.1 4 20.9 6.4 37.4 13.6 75.6 25.4 110.8 44.1 18.4 9.8 36.8 19.8 54.2 31.5 13.9 9.2 26.7 19.5 39.7 29.8 5 3.9 10.4 4.4 16.5 5 18.5 2 36.7 5.5 54.2 12.1 12.1 4.6 24 9.6 36 14.3 10.5 4 17.9 12.5 26.9 18.6 6.3 4.2 12 9.1 20.3 11.6 1.1-15 .9-29.2.2-43.3-.7-13.6 0-27.2-1.4-40.9-.9-8.5 1.2-17.2 1-25.8-1-44.5-.8-89.1-2.3-133.6-1-31.3-.5-62.5-1.8-93.8-.8-18.6.5-37 .8-55.5.2-15.8.4-31.8 1.6-47.6 1-12.9 4.4-25.4 10-37.2 13-27.7 34.5-46.8 60.6-62.1 22.8-13.4 46.6-24 71.2-33 14.9-5.5 29.4-11.8 44.8-16.1 5.1-1.4 10.2-2.9 15.4-3.9 21.8-4.3 43.5-9.2 65.2-13.4 12.4-2.4 24.9-3.9 37.4-5.8 1.6-.2 3.4.1 5-.4 21.7-7.2 44.4-7.1 66.7-9.3 19.1-1.9 38.4-2 57.6-3.2 21.8-1.4 43.6-3.2 65.5-4.6 10.3-.6 20.7-1.1 31-.7 25.7.8 51.2-2 76.8-2.6 16.3-.4 32.4 1 48.6 1.4 9.2.3 18.3.8 27.6.1 9.1-.7 18.5.8 27.7 1.8 15.8 1.8 31.7 3.1 47.6 4 18.8 1.1 37.5 3.6 56.2 6.9 23.4 4.1 46.8 8.2 70.6 10.4 29.8 2.8 58.6 10.7 87.4 18.3 5.8 1.5 11.8 1.8 17.6 3 16.6 3.4 32.3 9.6 48.3 15 5.7 1.9 11.4 3.7 17.2 5.2 25.7 6.5 50.6 15.5 75.7 24.1 20.1 6.9 40.5 13 60.4 20.2 10.3 3.7 20.2 8.2 29.9 13.5 8.7 4.7 17.9 8.5 26.8 12.8 5.4 2.6 10.8 5.2 15.9 8.2 4 2.3 8.1 4.4 12.3 6.3 15 6.9 20.8 19.7 21.4 35.5.6 18.5 1.2 36.9 1.4 55.4.1 6.3-1 12.6-1.2 18.8-.3 11 2.2 21.8 1.3 32.8-2.8 32.6-1.7 65.2-1 97.8.6 27.9 1.9 55.9.4 83.7-1.2 20.9-.5 41.8-2.4 62.7-1.3 13.5.1 27.2-.3 40.8-1.7 56.5-2.2 113.1-2.9 169.6-.2 16.8-1 33.7-2.3 50.6-1.1 14.4-.7 29.1-1.7 43.6-2.6 35.3-.5 70.5-1.4 105.8-.8 32.2-2.2 64.5-2.9 96.7-.4 20.5-1.4 41.2-1.7 61.7-.4 26.2-3.1 52.3-2.4 78.5.3 9.9 1.2 19.9.6 29.8-2 32.5-1 65.1-2.8 97.6-2.1 38.9-.5 77.9-.4 116.8 0 18.2-1.3 36.4-1.8 54.7-.4 14.6 1.4 29.2 1.2 43.8-.4 24.9-1 49.9-2.7 74.8-.8 12.3 0 24.5-.7 36.7-1.4 27-2.7 54-3.7 81-.5 13.6-.4 27.3-.6 40.9-.2 13.3 1 26.8-.8 39.9-3 20.7-2.7 41.7-5.4 62.4-1.2 9.2-1 18.5-3.7 27.5-.6 1.9-.5 4.1-2.3 5.2-8.4 5.1-15.3 12.1-23.9 17.3-23.4 14-47.9 25.7-72.4 37.5-25.7 12.4-51.8 23.6-79 32.6-22.9 7.6-45.2 17.1-67.8 25.6-13.4 5-27.1 8.7-41.1 11.6-11.1 2.3-21.8 5.9-32.7 8.6-16.8 4.2-33.7 6.9-50.7 9.5-23.9 3.7-47.8 7.1-72 8.2-9.6.5-19.1 2.2-28.6 3.2-13.6 1.5-27.2-.4-40.9.6-41.5 2.9-83.1 1.9-124.7 2.1-19.3.1-38.7.6-57.9-.9-16.9-1.4-33.9-1.2-50.8-2.8-16.9-1.7-33.8-2.6-50.8-2.7-16.4-.1-32.4-2.1-48.5-4.5-9.5-1.4-19.1-2.1-28.7-2.9-17.2-1.4-34.4-2.8-51.6-3.9-12.7-.8-24.9-4-37.3-6.1-18.6-3.1-37.5-5.1-56.1-8.4-17-3-34-5.6-50.7-10.2-19.8-5.4-39.9-10.1-59.2-16.8-15.3-5.3-31.5-8.4-46.2-15.3-20-9.5-40.6-18-58.7-31.3-14.1-10.5-19.2-24.8-19.5-41.6-.4-18.6-1.8-37.1-3.7-55.6-.9-8.9-.4-18-.5-26.9-.6-34.2-3-68.4-4.3-102.6-.9-23.2-1.1-46.5-3.5-69.7-.1-1.2.2-2.7-1.8-4.1-6.8 4.4-10.6 12-16.1 17.8-18.3 19.2-36 38.9-55.9 56.6-13 11.5-27.3 21.2-40.2 32.5-18.3 16.1-39.7 27.8-59 42.4-8.9 6.8-19.7 11-29.8 16.1-12.4 6.3-24.7 12.4-36.7 19.5-14.8 8.7-30.7 15.8-46.9 21.6-2.8 1-5.6 2.2-8.4 3.1-2.9 1-3.6 2.7-3.9 5.9-2.4 24.8-4.2 49.7-13.4 73.2-2.4 6.2-4.9 12.3-9.7 17.1-3.8 3.8-5.2 9-8.1 13.4-6.7 10.3-14.2 20-20.6 30.5-.8 1.5-1.5 2.7-.1 5zm767.4-824.9c5.8-3.3 12.2-5.2 18.3-7.7 7.4-3 15.7-3.2 23.5-.8 8.7 2.7 13.5 9.4 15.4 18.1 2.3 10.4-3.3 17.6-11.4 22.3-18.5 10.8-30 27.7-41.3 45-2.7 4.1-3.6 8.6-3.8 13.2-.2 5.7-.1 11.3 0 17 .3 16 .4 31.8-3.7 47.5-6.3 23.7-20.5 41.2-40.8 53.9-6.3 3.9-10.8 8.7-13.1 15.6-1.9 5.7-3.7 11.5-7.3 16.3-14.1 18.8-25.2 39.6-43.4 55.6-11.6 10.3-21.8 22.1-34.9 30.9-15.3 10.3-29.7 21.6-47 29.1-29.6 12.7-59.1 25.3-91.3 30.3-26.6 4.1-53.1 8.6-80.1 7.6-5.2-.2-6.4 3.1-7.6 6.3-3.3 8.4-7.9 16.3-13.5 23.2-4.8 6-8.7 12.6-13.7 18.3-5.1 5.8-6 12.5-5.7 19.5.8 19.9 1.4 39.7.8 59.6-.6 17.5.2 35 1.3 52.5.9 14.6.4 29.2 1.5 43.8 2.2 29.5 3 59 4.2 88.6.4 9.6.1 19.3.8 28.9.4 5.8-1.3 12.5 3.4 17.1 5.4 5.3 10.1 11.6 17 15.3 8.8 4.7 17.7 9.1 26.5 13.7 12.4 6.5 26.1 9.9 38.7 15.6 15.9 7.2 32.4 11.9 48.9 16.5 19.1 5.4 38.6 9.3 58.2 12.9 17.6 3.3 34.6 8.9 52.3 11.8 10.8 1.7 21.7 2.5 32.5 4.3 25.1 4.3 50.6 6.3 75.8 10.1 19.6 2.9 39.7 3.7 59.5 4.8 23.5 1.3 46.9 3.2 70.4 4.2 18.5.8 37 2.8 55.5 3.3 28.6.7 57.2.7 85.8.8 44.9 0 89.7.2 134.5-3.8 25.1-2.2 50.3-3.5 75.3-6.7 20.4-2.6 40.9-4.6 61.2-7.9 7.4-1.2 7.6-1.3 7.5-8.7-.1-15.2-.2-30.5-1.1-45.7-1.2-19.5-.8-39.1-2.4-58.7-1.4-17.8-3.1-35.8-1.8-53.8 1.6-22.9-.7-45.8 0-68.7.7-18.8 1.1-37.7.3-56.5-1.1-29.2.1-58.4 0-87.6-.1-9.8-.3-19.7-1.3-29.2-1.8-17.3-1.7-34.5-1.1-51.6.5-12.4.4-24.9.5-37.3.3-42.2-.9-84.5-.9-126.7 0-25.2 1.2-50.4 0-75.6-.4-8.6-1.2-17.2-.8-25.8 1.1-24.3.7-48.5.7-72.8 0-23-.5-45.9.1-68.9.4-15.1.6-30.3.6-45.4 0-17.4-1-34.9 2.1-52.1 1.1-5.9 1.4-11.8 1.3-17.8 0-14.6-.4-29.3.7-43.9 1.3-16.9 1.2-33.8 1.1-50.8 0-13-1-26.1.4-38.9 2.4-22.2 2.2-44.5 3.2-66.7 1.7-36.5 1.8-73.1 2.2-109.7.3-23.2-.1-46.4-.4-69.5-.2-15.3-.3-30.5.9-45.7 2.3-29.8 1.3-59.8 3.6-89.6.4-4.7-1.4-9-1-13.8 1.9-24.8 2-49.7 2.6-74.5.7-30.5 1.4-61 1.4-91.6 0-25.2 2-50.4 3.4-75.6.8-14.3-.9-28.6-.2-42.9 1.4-28.3 1.1-56.6-2.5-84.7-.9-7 .3-14-1.4-20.8-5.8-22.1-15.2-42.3-29.3-60.4-2.2-2.9-4.1-6-6.3-8.9-1.1-1.5-1.6-3-.3-4.4 1.7-1.8 3.8-1.3 5.5-.2 1.3.9 2.2 2.4 3.1 3.8 4.2 6.3 8.8 12.5 13.7 18.3 5.2 6.1 9.1 13 12 20.5 9.1 23.2 13.2 47.2 13.5 72 .2 16 0 32 .3 47.9.6 31.2-.9 62.4-1.1 93.5-.1 21.8-1.6 43.7-1.4 65.6.2 23.9-1.6 47.7-2.3 71.6-.3 10.9.2 22-1.6 32.8-1.4 8.6-1 17-.5 25.6.7 12.3 1.2 24.7.1 36.9-1.9 20.9-1.5 41.8-2.5 62.7-.7 15.5-.5 31.2-.9 46.7-.6 24.2.2 48.4-1.2 72.5-1 17.4.6 34.9 0 52.4-1.4 42.5-1.7 84.9-4.2 127.4-1.3 21.8-1.4 43.8-1.9 65.7-.9 34.9-.3 69.9-2 104.8-1.3 27.6-.7 55.3-.9 82.9-.1 8.7.2 17.3-.1 26-.9 20.5-2.2 40.9-2 61.4.5 50.6.5 101.2.7 151.8.1 21.9-.5 43.8.9 65.7.4 6.8 1 13.8.1 20.8-1.6 12.5-1.4 25.1-.6 37.6.6 9.9 1.1 19.8 1.2 29.8.4 26.8-2.3 53.6-.6 80.5 2.7 42.9 1 85.9.6 128.8-.3 26.5.6 53 1.3 79.5.9 30.5.1 61.1 2.1 91.7 1.4 21.8.1 43.7.5 65.5.2 9.2 1.5 18.4 2.4 28 6-.9 11.1-1.8 16.3-3 17.8-4.1 34.3-12.2 52-16.9 30.8-8.3 60-20.9 89.5-32.7 16-6.4 32.6-11.7 48-19.2 22.1-10.7 44.5-20.6 66.5-31.6 12.7-6.3 24.5-14.5 36.5-22.2 6.7-4.3 9.9-10.3 11.1-18.8 2.2-15.5 1.5-31 3.7-46.5 3.5-24.6 3.9-49.7 4-74.6 0-6.1-1.8-11.8-1.5-17.8.6-14.5 0-28.9 2.7-43.5 2.6-14.1 2.3-29.1 2.4-43.7.2-20.9 1.1-41.8.7-62.8-.5-20.5 2.1-41 1.6-61.6-.4-14.9-1.1-29.9-.6-44.8 1.2-32.8 2-65.6 1.2-98.4-.6-24.9.6-49.8 1.5-74.7.8-22 .9-44 .8-65.9-.1-15.5 2.5-31.1-.2-46.6-1.6-9.3 1.6-18.4 1.4-27.8-.3-13.6 0-27.3 1-40.9 1.7-23.8.5-47.7 3.2-71.5 1.9-16.4.5-33.1 1.8-49.8 1.7-20.8 2.1-41.9 1.9-62.9-.3-34.9-1.2-69.9.8-104.8 1.5-25.9 1.7-51.8 3.9-77.6 1.5-17 .7-33.9 1.5-50.9 1-21.2 1.9-42.5 2.1-63.8.3-28.9-.3-57.7 1.2-86.6 1.3-25.2.5-50.5 2-75.8 1.4-24.9.1-49.9.6-74.8.4-23.9-.3-47.9.2-71.8.5-28.6-.3-57.1-1.2-85.7-.5-17.2.8-34.4.6-51.6-.1-10-2-19.2-10.5-25.7-8.6-6.7-17.2-13.6-27.2-18.1-17.3-7.7-34.5-15.5-52.1-22.3-15.1-5.9-28.9-14.5-44.4-19.6-10.1-3.3-20-7-30.2-10-13.6-4.1-26.9-9.4-40.4-13.8-32.5-10.6-65.6-19.4-99-26.9-14.8-3.4-28.7-9.7-43.8-12.3-11.7-2-23.6-3.5-35.2-6.7-9.9-2.7-19.9-5.3-30-7-7.2-1.3-14.5-1.4-21.7-3-10-2.2-20.2-4.1-30.3-5.5-24.6-3.2-49.4-4.9-74-8.5-20-2.9-40.2-4.4-60.4-5.2-29.9-1-59.8-.8-89.7-1.2-39.9-.6-79.8 1.5-119.6 3.7-22.2 1.2-44.2 4.1-66.4 5.5-11.9.8-23.8 2.1-35.7 2.6-23.3 1-46.4 4.3-69.4 7.4-27.2 3.7-54.1 10-81 15.5-10.7 2.2-21.7 3.6-31.9 7.8-8 3.3-16.2 5.8-24.4 8.4-18 5.6-36.4 10.4-53.5 18.8-6.8 3.3-13.2 7.6-20.3 10.1-19.6 7.1-36.7 18.2-51.7 32.4-5.8 5.5-10.6 12-16.5 17.3-7.9 7.1-11.4 16.6-14 26-5.7 20.6-5.7 41.9-5.8 63.2-.1 7.5.4 15.1.3 22.6-.3 28.3-.8 56.5-1 84.8-.2 19.9 1.4 39.8.7 59.7-.3 9.5-.6 19.1.1 28.6 2.2 30.1 3.1 60.2 3 90.4-.1 18.2.1 36.4-.4 54.7-.6 22.2.9 44.5 1 66.8 0 5.7 2.1 9.5 6.2 12.8 6.5 5.2 12.3 11.1 17.9 17.2 1.9 2.1 3.8 4.4 7 5.1 2.8-4.7 2.5-9.2 1.3-13.8-.4-1.6-.4-3.4 1.3-4.3 1.6-.9 3.2-.3 4.7.4 2.2 1.1 4.2 2.7 4.5 5.1.9 6.5 4.3 13.1 1.8 19.6-2.9 7.6.1 13.3 4.9 17.9 15.5 14.9 23.9 34.2 33.4 52.7 3.2 6.2 6.7 11.5 12.2 15.4 8.7 6.3 15.4 14.1 21.9 22.8 11.4 15.3 12.8 32.4 12 50.1-.3 6.1-2.4 12.7-7 17.3-5 5-5.1 10.6-4 16.6.6 3.3 1.4 6.4 1.4 9.8-.1 12.9 1.4 26-.5 38.6-2 13.8-1.3 25.9 4.6 39.1 7.4 16.9 11 35.4 14.9 53.6 1.1 5.2 3 10.2 3.4 15.5 1.3 14.5 4.4 28.8 5.3 43.3 1 16.6 5.5 32.8 5.1 49.5-.1 5-.5 10 .2 14.9 1.9 14.6 1.7 29.4.5 43.8-1.5 16.8-3.3 33.7-5.2 50.5-4 36.7-10.5 72.9-20.1 108.5-2.1 7.8-4.6 15.4-6.9 23 2.3 1.4 4.3 1.1 6.3.6 9.1-2.3 17.5-6 25.5-10.9 12.7-7.7 22.5-18.6 32.9-28.7 11.9-11.5 21.7-24.6 24.6-41.3 2.2-12.8 6.4-26-2.1-38.5-3-4.4-6.3-8.5-10-12.4-5.9-6.3-12.2-12.1-17-19.5-8.1-12.2-7.9-19.2 3-29.4 1-.9 1.9-1.9 2.9-2.7 12.3-9.5 21.3-13.1 34-4.4 1.4.9 2.9 1.7 4.4 2.4 6.4 3.1 7.3 2.9 8.1-4 2.3-21.9 13.9-39.9 23.9-58.6 1.2-2.3 2.8-4.8 4.8-6.3 10-7.7 17.9-17.7 28.3-25 9.7-6.8 19.9-11.7 32.4-10.6 12.8 1.1 19.2 9.5 23.8 19.9 3.6 8.2-.7 14.7-5.8 20.8-4 4.8-7.5 9.8-9.6 17.5 7.4-3.1 11.4-7.7 15.7-12.1 16.7-16.9 40.9-27.1 67-16 10.8 4.6 13.8 13.6 15.7 23.6 1.6 8.4-2.4 13.9-9.1 19.2-9.8 7.8-19 16.6-23.2 29.1-.4.5-1.1 1.1-1 1.3 1.4 1.2 2.3.9 3.2.3zm-387.9 391.8c-3.3-.7-4.9-1.2-6.6-1.4-19.5-2.3-38.6-6.4-57.6-11.2-20.7-5.2-40-14-59.3-22.6-10.9-4.8-22.2-9.2-30.9-17.9-2.3-2.3-7.1-4.7-3.4-8.7 3-3.3 6.2.4 8.6 2.2 12.4 9.2 26.5 15 40.7 20.6 13 5.1 26.6 8.6 39.4 13.7 16.8 6.8 34.8 8 51.9 13.4 5 1.6 10.4 1.9 15.7 2.3 20.6 1.5 41.3 0 61.9.4 15.8.3 30.5-6.1 46.2-7 4.2-.2 8.5-1.2 12.7-2.1 17.3-3.8 33.3-11 49.9-17 21.1-7.6 40-19.6 59-30.9 14.7-8.7 27.7-20.1 39.9-32.5 13.4-13.5 25.5-27.8 35.2-44.1 7.8-12.9 11.9-27.4 17.5-41.3.9-2.2.9-4.4 3.9-4.9 14.2-2.2 22.6-13.1 32.6-21.7 7.4-6.3 11.8-14.9 14.8-23.2 6-16.3 8-33.5 5.6-51-1.8-13.4-.7-26.3 6.3-38.5 7.8-13.5 17.8-24.9 31.2-32.8 6.4-3.8 11.6-8.6 16.8-13.7 1.2-1.2 2.4-2.1 2.4-4 .1-7.2-3-13-8.5-17.2-4.7-3.7-10.2-2.7-15 .2-8.8 5.3-19.3 7.4-27.3 14.3-2.8 2.4-7.4 2.6-10.3.2-2.3-1.9-3.8-4.9-3.5-8.8.8-13.1 8-22.8 16-32.2 6.1-7.1 14.7-11.2 21-18.2 3.9-4.3 4.2-7.8.8-12.3-4.6-6.1-10.6-10.5-18-11.2-14.7-1.4-28.2 1.5-39.6 12.2-12.7 11.8-25.6 23.2-36.4 36.8-1.6 2-3.2 3.5-5.8 3.1-2.9-.5-3.1-3.1-3.7-5.3-1.6-5.9-1.4-11.8-.3-17.8 2.4-12.4 8.8-22.7 16.8-32.3 5.1-6.1 4.3-10.6-2.6-13.9-10.6-5.2-21.3-6.7-31.7 1.2-10.2 7.6-19.5 16.2-28.1 25.4-10.3 11.1-18.2 24-21.3 39-2.9 14.3-5.6 28.7-4.3 43.5.1 1 .1 2 0 3-.2 2-.4 4.1-2.8 4.8-2.1.6-3.9.2-5.3-1.7-.8-1.1-1.4-2.3-2.3-3.2-6.7-6.3-12.4-13.8-21.4-17.4-8.9-3.5-14-2-19.6 6.1-4.8 6.9-4.4 11.6 1.7 18.6 1.3 1.5 2.8 2.8 4.2 4.2 5.7 5.6 11.5 11.1 17 16.8 5.5 5.6 8.8 12.4 10.4 20.1 3.6 17.7.6 34.3-8.6 49.8-5.1 8.7-11.9 16-17.7 24.1-18.3 25.1-42.6 41.2-72.3 49.7-14.6 4.2-29.6 4.7-44.3 1.6-12.6-2.6-24.6-7.6-36.4-12.7-25.4-11-45-28.9-59.4-52.3-5-8.1-9-17-13-25.7-2.5-5.5-4.1-11.4-.8-17.3 1.3-2.3 2.6-4.9 6.1-4 3.2.8 2.3 3.4 2.5 5.6 1.6 12.7 5.7 24.5 12.7 35.2 7.9 12 19.1 21.1 29.5 30.9 19.5 18.5 43.6 25.9 69.6 27.9 12.6 1 10.9 2.5 16.2-10.8.6-1.5 1.1-3.1 1.5-4.7 4.2-18.1 8.7-36.1 14.3-53.9 4.1-13.1 5.4-26.6 7.4-40.1 3.8-24.6 7.6-49.3 7.7-74.2 0-28.8-.9-57.7-1.5-86.5-.1-6.6.2-13.2-1.1-19.8-5.8-29.9-10.1-60.1-19.7-89.1-3-9.1-5.4-18.4-9.1-27.4-3.2-7.7-5.5-15.7-3.8-24.2 4.7-24.5 2.3-49-.4-73.4-.5-4.1 0-6.7 2.8-9.7 8.8-9.1 10.8-20.1 8.6-32.3-2.1-11.4-6.9-21.6-13.1-31-4.2-6.5-8.6-13.9-16.6-16.6-5.9-2-8.8-6.1-11.6-11.3-10.1-19-19.7-38.4-34.8-54.3-3.5-3.7-5.3-4-8.3-.1-7.4 9.6-18.5 13.7-28.5 19.6-2.3 1.4-5 1.9-7.7 1.8-1.4-.1-2.7-.2-3.2-1.7-.7-1.9.2-3.2 1.8-4 4.4-2.3 8.8-4.7 13.2-6.9 8.1-4 13.7-10.1 16.9-18.7 1.5-4 1.4-6.8-1.7-9.8-4.8-4.6-9.8-9.1-13.9-14.3-12.1-14.9-27.4-26.3-43.5-35.9-17.6-10.4-35.1-21.1-54-29.3-19.7-8.6-40-14.6-61.5-15.2-8.5-.2-16.9 2.5-21.2-7.9-.2-.5-1.1-.8-1.6-1.1-16.9-12.2-33.5-25-50.9-36.4-22.4-14.7-46.4-26.8-71-37.5-29.8-13-60.6-23.3-91.6-32.8-17.7-5.4-35.8-9.7-54.2-12.9-16.3-2.8-32.5-6.2-49-8.3-21.7-2.7-43.5-5.6-65.3-6.5-15.3-.6-30.5.2-45.8.8-18.3.8-36.6 1.4-54.8 3.1-15.2 1.4-30.4 2-45.6 3.5-17.8 1.8-35.6 3.8-53.3 6.6-11.5 1.8-22.8 4.6-34.1 7.2-11.6 2.7-23.7 4.3-34.6 8.8-18.4 7.6-37.8 12.1-56.2 19.8-13.1 5.5-27.3 9.1-39.2 16.4-16.2 9.9-33.2 18.3-50.1 26.6-17 8.3-33.1 18.3-48.6 28.8-19.7 13.4-37.7 29.3-56.2 44.5-13.3 11-25.9 22.9-39.2 33.8-15.8 12.9-28.3 28.9-41.6 44.1-12.8 14.8-23.5 31.4-36.4 46.2-16.3 18.7-29 39.7-41.2 60.9-8.9 15.4-17.9 31-26.5 46.6C74 877.6 61 911.7 48.5 946c-10.2 28-18 56.9-22.1 86.6-2.4 17.7-6.7 35.2-7.9 53-1.3 18.8-4.2 37.6-2.6 56.6.6 7.7-2.6 14.9-2.1 22.7 1.2 19.2-.6 38.4 2.1 57.6 2.2 15.7 2.7 31.7 4.2 47.5.9 9.9 3.9 19.5 5.2 29.3 4.6 35.7 14.7 70.1 25 104.3 7.2 24.1 16.7 47.5 27.8 70.3 2.3 4.8 3.7 10.1 7.5 14 5.3 5.4 8.4 12.1 11.3 18.7 7.5 17.1 17 32.9 28.1 47.9 9.2 12.6 17.9 25.6 27.7 37.7 18.3 22.8 38 44.3 58.2 65.4 1.4 1.4 2.6 2.9 4.2 4.1 10 7.7 19.8 15.5 29.6 23.4 3.6 2.9 7.1 5.9 11.1 8.3 8.8 5.3 9 9 2.9 17.6-13 18.2-28.2 34.3-45.4 48.5-14.8 12.3-32 20.8-50.3 25.3-19.1 4.6-39 4.6-58-2.4-4.8-1.8-7.9-.9-9.8 3.3-4.7 9.9-10.5 19.3-13.4 29.9-5.9 21.8-11.4 43.5-14.8 66-5.3 35-8.1 69.7-3 105 2.9 20.3 8.2 39.7 18 57.6 7.4 13.6 19.3 23.2 34.7 26.4 19.1 4 38.4 7.6 58.2 7.1 19.9-.5 39.8 0 59.7-2 10.3-1 20.3-3.8 30.5-4.6 12.8-.9 24.8-4.9 36.7-8.8 11.5-3.8 15.9-13.7 17.5-24.6 1.6-10.6-3.4-18.7-12.3-24.4-5.8-3.8-12.1-6.8-18.2-10.1-10.4-5.7-22-10.3-28.3-21.3-5-8.6-9.3-17.6-13.5-26.7-3.7-8 .5-14.4 9.3-13.4 13.6 1.6 27.2.6 40.8.8 13.6.1 27.2 0 39.9-6 15.4-7.3 28.9-17.7 43-26.9 11.2-7.3 19.3-18 28.1-27.9 6.6-7.5 11.6-16.2 17.9-23.8 7.5-9.1 15.7-17.7 22.2-27.6 6-9 5.9-9.3-3.9-14.1-10.2-5-19.5-11.3-28.3-18.5-2.3-1.9-3.8-4.4-2-6.9 2.1-3.1 5-1.1 6.9.5 7.3 5.9 15.7 9.6 24.1 13.7 25.9 12.7 51.2 26.6 79 35.1 14.6 4.5 29.3 8.4 43.7 13.6 12.6 4.5 25.9 5.4 38.5 9.7 15.5 5.3 31.5 7.5 47.6 9.9 15.4 2.2 30.6 5.6 46.3 6.8 12.9 1 25.6 3.7 38.6 3.2 4.4-.2 8.6 1 12.9 1.4 1.7.2 3.6 0 4.4 1.8 2.6 5.8 7.8 9.7 10.8 15.4 6.8 13.1 11.2 26.9 14.5 41.1 3.2 13.9 6.1 28 6.2 42.3.1 15.9 0 31.8-1.9 47.6-2.1 17.8-4.8 35.5-10.1 52.7-5.2 17.1-10.7 34.1-19 50.1-4.4 8.5-3.3 9.6 5.9 12.4 23.3 7.2 47.4 9.8 71.4 12.2 17.1 1.8 34.4 2.4 51.7 2.6 30.3.3 60.4.6 90.5-3.8 23-3.3 45.7-7.8 68.3-13.3 11.8-2.9 22.1-9.1 33.5-12.7 21-6.6 27.8-15.2 29.8-37.1.4-4.3.4-8.6.3-13-.6-18-4.4-35.5-7.7-53.1-4.2-22.1-12.2-41.7-30.7-56.3-14.7-11.6-21.2-10.7-34.7-1.1-12.9 9.1-23.6 21.3-35.2 32.1-7.1 6.6-14.2 13-22.4 17.8-7 4.2-14.4 8.5-23.3 6.7-8.7-1.7-10.8-7.4-5.1-14.3l15.9-19.2c5.7-6.9 12.3-13.3 16.7-21 5.7-9.8 11.7-19.3 17.4-29.1 7.7-13.2 15.1-26.5 18-41.8 2-10.5 3.3-21 2.8-31.7-.3-6.9 1.7-13.1 4.1-19.3 1.2-3.1 3.3-5.1 6.8-6.5 25.9-10.3 50.5-23.4 75.4-36 13-6.6 25.4-14.2 37.8-21.9 18.1-11.2 35.6-23.2 52.8-35.7 21.5-15.6 41.6-33 60.7-51.5 5.2-5.1 9.5-11 15.1-15.6 9.6-7.8 18-16.9 25.5-26.5 15.3-19.6 32.1-38 46.5-58.4 7.1-9.9 11.4-20.8 16.8-32.6zm-381 436c1.7-.6 2.6-1.9 2.5-3.6-.1-.7-1-1.5-2.2-.7-1.1.7-2.2 1.6-2.1 3-.1.8.5 1.7 1.8 1.3z" style="fill:#0c0c0c"/><path d="M1361.1 1568.1c-5.4 11.8-9.7 22.7-16.7 32.6-14.4 20.4-31.2 38.8-46.5 58.4-7.5 9.6-15.9 18.7-25.5 26.5-5.6 4.5-9.9 10.5-15.1 15.6-19.1 18.5-39.2 35.8-60.7 51.5-17.2 12.5-34.7 24.4-52.8 35.7-12.4 7.7-24.8 15.3-37.8 21.9-24.9 12.6-49.5 25.7-75.4 36-3.5 1.4-5.6 3.4-6.8 6.5-2.4 6.2-4.4 12.4-4.1 19.3.4 10.6-.9 21.2-2.8 31.7-2.9 15.3-10.3 28.6-18 41.8-5.7 9.8-11.8 19.3-17.4 29.1-4.4 7.7-11 14.1-16.7 21l-15.9 19.2c-5.7 6.9-3.6 12.5 5.1 14.3 8.9 1.8 16.3-2.6 23.3-6.7 8.2-4.9 15.3-11.2 22.4-17.8 11.6-10.8 22.3-23.1 35.2-32.1 13.5-9.5 20-10.5 34.7 1.1 18.5 14.6 26.6 34.2 30.7 56.3 3.3 17.6 7.1 35.1 7.7 53.1.1 4.3.1 8.7-.3 13-2 21.9-8.8 30.5-29.8 37.1-11.4 3.6-21.7 9.8-33.5 12.7-22.6 5.5-45.3 9.9-68.3 13.3-30.1 4.4-60.2 4.2-90.5 3.8-17.3-.2-34.6-.8-51.7-2.6-24-2.5-48.1-5.1-71.4-12.2-9.2-2.8-10.3-3.9-5.9-12.4 8.3-16 13.8-33 19-50.1 5.2-17.2 8-34.9 10.1-52.7 1.9-15.8 2-31.7 1.9-47.6-.1-14.3-3-28.4-6.2-42.3-3.3-14.2-7.7-28-14.5-41.1-3-5.7-8.2-9.6-10.8-15.4-.8-1.7-2.7-1.6-4.4-1.8-4.3-.4-8.5-1.6-12.9-1.4-13 .4-25.8-2.2-38.6-3.2-15.7-1.2-30.8-4.6-46.3-6.8-16-2.3-32.1-4.6-47.6-9.9-12.5-4.3-25.9-5.2-38.5-9.7-14.3-5.1-29.1-9.1-43.7-13.6-27.7-8.6-53.1-22.4-79-35.1-8.4-4.1-16.8-7.8-24.1-13.7-1.9-1.6-4.8-3.6-6.9-.5-1.8 2.6-.2 5.1 2 6.9 8.8 7.1 18 13.5 28.3 18.5 9.8 4.8 9.8 5.1 3.9 14.1-6.6 9.9-14.8 18.4-22.2 27.6-6.3 7.6-11.3 16.3-17.9 23.8-8.8 10-16.9 20.6-28.1 27.9-14.1 9.3-27.6 19.7-43 26.9-12.7 6-26.4 6.1-39.9 6-13.6-.1-27.2.8-40.8-.8-8.8-1-13 5.4-9.3 13.4 4.2 9.1 8.5 18.1 13.5 26.7 6.3 11 17.9 15.6 28.3 21.3 6.1 3.3 12.4 6.3 18.2 10.1 8.8 5.7 13.9 13.8 12.3 24.4-1.7 10.9-6 20.8-17.5 24.6-11.9 3.9-23.9 7.9-36.7 8.8-10.2.8-20.2 3.6-30.5 4.6-19.9 1.9-39.8 1.4-59.7 2-19.8.5-39-3.1-58.2-7.1-15.4-3.2-27.3-12.8-34.7-26.4-9.8-17.9-15.1-37.3-18-57.6-5.1-35.2-2.2-70 3-105 3.4-22.4 8.9-44.2 14.8-66 2.9-10.6 8.7-20 13.4-29.9 2-4.2 5.1-5 9.8-3.3 19 7 38.9 7 58 2.4 18.3-4.4 35.5-13 50.3-25.3 17.2-14.2 32.4-30.3 45.4-48.5 6.1-8.6 5.9-12.3-2.9-17.6-4.1-2.4-7.5-5.4-11.1-8.3-9.8-7.9-19.7-15.7-29.6-23.4-1.6-1.2-2.9-2.7-4.2-4.1-20.2-21.1-39.9-42.7-58.2-65.4-9.8-12.1-18.4-25.2-27.7-37.7-11-15-20.5-30.8-28.1-47.9-2.9-6.5-6-13.3-11.3-18.7-3.8-3.9-5.2-9.2-7.5-14-11-22.7-20.6-46.2-27.8-70.3-10.2-34.2-20.4-68.6-25-104.3-1.3-9.8-4.3-19.4-5.2-29.3-1.4-15.8-1.9-31.8-4.2-47.5-2.7-19.2-.9-38.5-2.1-57.6-.5-7.8 2.7-15 2.1-22.7-1.5-18.9 1.3-37.8 2.6-56.6 1.2-17.8 5.5-35.3 7.9-53 4.1-29.7 11.9-58.6 22.1-86.6 12.5-34.2 25.4-68.3 43.2-100.5 8.6-15.7 17.6-31.2 26.5-46.6 12.3-21.2 25-42.2 41.2-60.9 12.9-14.8 23.5-31.4 36.4-46.2 13.2-15.2 25.8-31.2 41.6-44.1 13.4-10.9 25.9-22.9 39.2-33.8 18.4-15.2 36.4-31.1 56.2-44.5 15.5-10.5 31.6-20.5 48.6-28.8s33.9-16.7 50.1-26.6c12-7.3 26.1-10.9 39.2-16.4 18.3-7.7 37.7-12.3 56.2-19.8 10.9-4.5 23-6.1 34.6-8.8 11.3-2.6 22.6-5.4 34.1-7.2 17.7-2.9 35.5-4.8 53.3-6.6 15.2-1.6 30.4-2.2 45.6-3.5 18.2-1.7 36.5-2.3 54.8-3.1 15.3-.6 30.6-1.4 45.8-.8 21.9.9 43.6 3.8 65.3 6.5 16.5 2.1 32.7 5.4 49 8.3 18.4 3.2 36.4 7.5 54.2 12.9 31 9.5 61.9 19.8 91.6 32.8 24.6 10.7 48.6 22.8 71 37.5 17.4 11.5 34 24.2 50.9 36.4.5.4 1.4.6 1.6 1.1 4.2 10.4 12.7 7.7 21.2 7.9 21.5.5 41.8 6.6 61.5 15.2 18.9 8.2 36.4 18.9 54 29.3 16.1 9.5 31.4 20.9 43.5 35.9 4.2 5.1 9.1 9.7 13.9 14.3 3.1 3 3.2 5.9 1.7 9.8-3.2 8.6-8.8 14.7-16.9 18.7-4.5 2.2-8.8 4.6-13.2 6.9-1.7.9-2.5 2.2-1.8 4 .5 1.5 1.9 1.7 3.2 1.7 2.7.1 5.4-.4 7.7-1.8 10-5.9 21.1-10 28.5-19.6 3-3.9 4.8-3.6 8.3.1 15.2 15.9 24.8 35.2 34.8 54.3 2.8 5.2 5.7 9.3 11.6 11.3 8.1 2.8 12.4 10.2 16.6 16.6 6.1 9.4 11 19.7 13.1 31 2.2 12.2.2 23.2-8.6 32.3-2.9 3-3.3 5.6-2.8 9.7 2.7 24.4 5.1 48.9.4 73.4-1.6 8.5.6 16.5 3.8 24.2 3.7 8.9 6.1 18.2 9.1 27.4 9.6 29.1 13.9 59.3 19.7 89.1 1.3 6.7.9 13.2 1.1 19.8.6 28.8 1.5 57.7 1.5 86.5 0 25-3.9 49.6-7.7 74.2-2 13.4-3.3 27-7.4 40.1-5.6 17.7-10.1 35.8-14.3 53.9-.4 1.6-.9 3.2-1.5 4.7-5.4 13.3-3.6 11.7-16.2 10.8-26-2-50.2-9.5-69.6-27.9-10.3-9.8-21.5-18.8-29.5-30.9-7-10.7-11.1-22.5-12.7-35.2-.3-2.3.6-4.8-2.5-5.6-3.5-.9-4.8 1.7-6.1 4-3.3 5.9-1.7 11.8.8 17.3 4 8.7 8 17.5 13 25.7 14.4 23.4 34 41.3 59.4 52.3 11.8 5.1 23.8 10.1 36.4 12.7 14.7 3.1 29.7 2.5 44.3-1.6 29.7-8.4 54-24.6 72.3-49.7 5.9-8.1 12.6-15.4 17.7-24.1 9.1-15.6 12.2-32.1 8.6-49.8-1.6-7.7-4.9-14.5-10.4-20.1-5.6-5.7-11.3-11.2-17-16.8-1.4-1.4-2.9-2.7-4.2-4.2-6.1-7-6.5-11.6-1.7-18.6 5.6-8.1 10.7-9.6 19.6-6.1 9 3.5 14.7 11.1 21.4 17.4 1 .9 1.6 2.1 2.3 3.2 1.3 1.9 3.2 2.3 5.3 1.7 2.3-.7 2.6-2.8 2.8-4.8.1-1 0-2 0-3-1.3-14.8 1.4-29.2 4.3-43.5 3.1-15 10.9-27.8 21.3-39 8.6-9.3 17.9-17.8 28.1-25.4 10.5-7.9 21.1-6.3 31.7-1.2 6.8 3.3 7.7 7.9 2.6 13.9-8 9.6-14.4 19.8-16.8 32.3-1.2 6-1.4 11.8.3 17.8.6 2.2.8 4.8 3.7 5.3 2.6.5 4.2-1.1 5.8-3.1 10.8-13.6 23.8-25 36.4-36.8 11.4-10.6 24.9-13.6 39.6-12.2 7.4.7 13.4 5.1 18 11.2 3.3 4.5 3.1 8-.8 12.3-6.3 7-15 11.1-21 18.2-8 9.3-15.2 19.1-16 32.2-.3 3.9 1.2 6.9 3.5 8.8 2.9 2.3 7.5 2.2 10.3-.2 8.1-6.9 18.5-9 27.3-14.3 4.8-2.9 10.3-3.9 15-.2 5.4 4.2 8.6 10 8.5 17.2 0 1.9-1.2 2.9-2.4 4-5.2 5.1-10.4 10-16.8 13.7-13.4 7.9-23.4 19.3-31.2 32.8-7 12.2-8.1 25.1-6.3 38.5 2.4 17.5.5 34.8-5.6 51-3.1 8.4-7.5 16.9-14.8 23.2-10 8.6-18.4 19.5-32.6 21.7-3 .5-3 2.7-3.9 4.9-5.6 13.9-9.7 28.3-17.5 41.3-9.8 16.3-21.9 30.5-35.2 44.1-12.2 12.4-25.3 23.8-39.9 32.5-19 11.3-37.9 23.3-59 30.9-16.5 6-32.6 13.1-49.9 17-4.2.9-8.6 1.9-12.7 2.1-15.6.9-30.4 7.3-46.2 7-20.6-.4-41.3 1.2-61.9-.4-5.3-.4-10.7-.7-15.7-2.3-17.1-5.3-35.1-6.6-51.9-13.4-12.9-5.2-26.5-8.6-39.4-13.7-14.2-5.6-28.3-11.5-40.7-20.6-2.4-1.8-5.6-5.5-8.6-2.2-3.7 4 1.1 6.4 3.4 8.7 8.6 8.8 20 13.1 30.9 17.9 19.3 8.6 38.6 17.5 59.3 22.6 19 4.8 38.1 8.9 57.6 11.2 1.5.3 3.2.7 6.5 1.4zM112.5 1800.8c-3 .4-4.5 2.6-3.8 5.5.9 4 .5 8 .8 11.9 1.5 20.5 3 41 7.9 61.1 5.6 22.9 14.8 44.7 22.5 66.9 3.9 11.3 8.3 22.6 14.2 32.9 6.4 11.2 12.7 22.5 19 33.8 2.4 4.3 5.8 8.1 8.7 12.2 2 2.8 4.8 6 8.1 3.4 4-3 .2-5.8-2-8.1-3.4-3.6-6.2-7.5-8.8-11.9-8.9-15.6-16.2-31.9-23.1-48.5-6.3-15.3-11.9-30.9-16.9-46.7-4.7-14.9-7.9-30.2-12-45.2-4.9-18-8.2-36.1-9.6-54.7-.2-3.3-1.1-6.5-1.6-9.8 0-1.9-1.2-2.8-3.4-2.8zm1319.2-976.2c.6-4.2-1.3-9.3-1.8-14.6-.5-5.6-1.8-11.1-3.1-16.6-.5-2.1-1-4.9-4.4-4.3-3.5.6-3.9 3.3-3.7 6 .2 2.3 1.1 4.5 1.6 6.8 1.8 7.8 3.5 15.6 3.1 23.6-.1 1.5.1 3.4-1.9 4.1-1.9.7-3.2-.6-4.3-1.8-6.4-6.5-11.5-13.9-12.9-23.1-1.6-10.7-4.5-21.4-1.9-32.5.5-2.1.3-4-2-5-2.1-.8-3.9 0-5.6 1.2-2.4 1.8-2.8 4.4-2.7 7.1.1 7.3-.6 14.8.4 22 1.9 13.3 3.2 27 12.7 38 6.3 7.2 11.9 10.2 17.8 7.8 7.8-3.3 8.5-10.4 8.7-18.7zm-114.2 202.2c4-18.3 16.6-31.4 26.3-46.3 2.8-4.3 6.1-7.8 9.8-11.2 6.9-6.3 15-10.9 23.5-14.7 1.5-.7 2.9-1.6 2.9-3.6 0-2.3-2.2-2-3.4-2.9-6.8-4.8-12.9-3.1-19.2 1.3-13.9 9.6-23.5 23-32.8 36.6-5.2 7.6-9 16.2-13.2 24.4-4 8-3.1 10.3 6.1 16.4zm-35.6-331.9c.2-2-.7-5.2-2.4-8.1-6.3-10.9-11.8-22.3-19-32.6-8.9-12.7-19.5-24.3-30.7-35.2-3.1-3-6.7-5.4-10.3-7.7-3.4-2.3-7.5-2-9.8 1-2.1 2.8 1.9 4.5 3.6 5.9 15.2 13.1 27.4 28.6 38.9 44.8 8 11.3 17.5 21.6 24.2 33.9.8 1.4 1.7 4.1 4.4 2.8 1.4-.6 1.4-2.1 1.1-4.8z" class="modul_02_04_kriseplan_introduktion_svg__st1"/><path d="M1747.6 1174.7c4.2-12.5 13.4-21.3 23.2-29.1 6.7-5.4 10.7-10.8 9.1-19.2-1.9-10-4.9-19-15.7-23.6-26.1-11.2-50.4-1-67 16-4.3 4.4-8.4 9-15.7 12.1 2-7.7 5.6-12.7 9.6-17.5 5.1-6 9.4-12.5 5.8-20.8-4.6-10.4-11-18.8-23.8-19.9-12.5-1.1-22.6 3.9-32.4 10.6-10.4 7.2-18.3 17.3-28.3 25-2 1.6-3.6 4-4.8 6.3-10 18.7-21.6 36.7-23.9 58.6-.7 6.9-1.7 7.1-8.1 4-1.5-.7-3-1.5-4.4-2.4-12.8-8.6-21.7-5-34 4.4-1.1.8-1.9 1.8-2.9 2.7-10.9 10.2-11.1 17.2-3 29.4 4.9 7.4 11.2 13.2 17 19.5 3.6 3.9 7 8 10 12.4 8.5 12.5 4.4 25.7 2.1 38.5-2.9 16.7-12.7 29.8-24.6 41.3-10.5 10.1-20.3 21-32.9 28.7-8 4.9-16.5 8.6-25.5 10.9-1.9.5-3.9.9-6.3-.6 2.3-7.6 4.8-15.2 6.9-23 9.6-35.6 16-71.8 20.1-108.5 1.9-16.8 3.7-33.7 5.2-50.5 1.3-14.5 1.5-29.2-.5-43.8-.6-4.9-.3-10-.2-14.9.5-16.7-4.1-33-5.1-49.5-.9-14.6-4.1-28.8-5.3-43.3-.5-5.3-2.3-10.4-3.4-15.5-4-18.2-7.5-36.7-14.9-53.6-5.8-13.2-6.6-25.3-4.6-39.1 1.9-12.6.4-25.7.5-38.6 0-3.4-.8-6.6-1.4-9.8-1.1-6-.9-11.6 4-16.6 4.6-4.6 6.7-11.2 7-17.3.8-17.7-.7-34.8-12-50.1-6.4-8.7-13.2-16.5-21.9-22.8-5.4-3.9-9-9.2-12.2-15.4-9.5-18.5-17.9-37.9-33.4-52.7-4.8-4.6-7.8-10.3-4.9-17.9 2.5-6.5-.9-13.1-1.8-19.6-.3-2.3-2.3-4-4.5-5.1-1.6-.8-3.1-1.3-4.7-.4-1.8 1-1.8 2.7-1.3 4.3 1.2 4.6 1.5 9.1-1.3 13.8-3.2-.7-5.1-3-7-5.1-5.6-6.1-11.4-12-17.9-17.2-4.1-3.3-6.2-7.1-6.2-12.8-.1-22.3-1.6-44.5-1-66.8.5-18.2.3-36.5.4-54.7.1-30.1-.8-60.3-3-90.4-.7-9.5-.4-19.1-.1-28.6.7-19.9-.9-39.8-.7-59.7.3-28.3.7-56.5 1-84.8.1-7.5-.4-15.1-.3-22.6.1-21.2.1-42.6 5.8-63.2 2.6-9.4 6.1-18.9 14-26 5.9-5.3 10.7-11.8 16.5-17.3 15-14.3 32.1-25.3 51.7-32.4 7.1-2.6 13.5-6.8 20.3-10.1 17.1-8.4 35.5-13.2 53.5-18.8 8.2-2.6 16.4-5.1 24.4-8.4 10.2-4.2 21.2-5.6 31.9-7.8 26.9-5.6 53.8-11.8 81-15.5 23-3.2 46.1-6.4 69.4-7.4 11.9-.5 23.8-1.9 35.7-2.6 22.2-1.4 44.2-4.3 66.4-5.5 39.8-2.2 79.7-4.2 119.6-3.7 29.9.4 59.8.1 89.7 1.2 20.2.7 40.5 2.3 60.4 5.2 24.6 3.6 49.4 5.3 74 8.5 10.2 1.3 20.3 3.3 30.3 5.5 7.2 1.6 14.5 1.7 21.7 3 10.1 1.8 20.1 4.3 30 7 11.6 3.2 23.4 4.7 35.2 6.7 15.1 2.6 29 8.9 43.8 12.3 33.4 7.5 66.4 16.4 99 26.9 13.5 4.4 26.7 9.7 40.4 13.8 10.2 3 20.2 6.7 30.2 10 15.5 5.1 29.3 13.8 44.4 19.6 17.6 6.8 34.9 14.6 52.1 22.3 10 4.5 18.5 11.5 27.2 18.1 8.5 6.5 10.4 15.7 10.5 25.7.1 17.2-1.2 34.5-.6 51.6.9 28.6 1.7 57.2 1.2 85.7-.4 23.9.2 47.9-.2 71.8-.4 24.9.9 49.9-.6 74.8-1.4 25.3-.7 50.6-2 75.8-1.5 28.9-.9 57.8-1.2 86.6-.2 21.3-1.1 42.5-2.1 63.8-.8 16.9 0 33.9-1.5 50.9-2.3 25.8-2.4 51.7-3.9 77.6-2 34.9-1.2 69.9-.8 104.8.2 21-.2 42-1.9 62.9-1.4 16.6.1 33.3-1.8 49.8-2.7 23.8-1.6 47.7-3.2 71.5-.9 13.6-1.3 27.3-1 40.9.2 9.4-3 18.6-1.4 27.8 2.7 15.5.1 31.1.2 46.6.2 21.9 0 43.9-.8 65.9-.9 24.9-2.1 49.8-1.5 74.7.8 32.8-.1 65.6-1.2 98.4-.5 14.9.2 29.9.6 44.8.5 20.6-2.1 41.1-1.6 61.6.5 21-.5 41.9-.7 62.8-.1 14.6.2 29.6-2.4 43.7-2.7 14.7-2 29-2.7 43.5-.3 6 1.6 11.8 1.5 17.8-.1 25-.5 50-4 74.6-2.2 15.5-1.5 31.1-3.7 46.5-1.2 8.6-4.4 14.5-11.1 18.8-12 7.7-23.8 15.8-36.5 22.2-21.9 11-44.4 20.9-66.5 31.6-15.4 7.4-32 12.8-48 19.2-29.5 11.8-58.8 24.4-89.5 32.7-17.7 4.7-34.1 12.8-52 16.9-5.2 1.2-10.2 2.2-16.3 3-.8-9.6-2.2-18.8-2.4-28-.4-21.8.9-43.8-.5-65.5-2-30.6-1.2-61.1-2.1-91.7-.8-26.5-1.6-52.9-1.3-79.5.5-42.9 2.2-86-.6-128.8-1.7-27 1-53.7.6-80.5-.1-10-.6-19.9-1.2-29.8-.7-12.5-1-25.1.6-37.6.9-7 .4-14-.1-20.8-1.4-21.9-.8-43.8-.9-65.7-.2-50.6-.3-101.2-.7-151.8-.2-20.5 1.1-41 2-61.4.4-8.6.1-17.3.1-26 .2-27.6-.4-55.3.9-82.9 1.7-34.9 1.1-69.9 2-104.8.6-21.9.6-43.9 1.9-65.7 2.5-42.4 2.9-84.9 4.2-127.4.6-17.5-1-35 0-52.4 1.4-24.2.6-48.4 1.2-72.5.4-15.5.2-31.2.9-46.7 1-20.9.7-41.8 2.5-62.7 1.1-12.2.6-24.7-.1-36.9-.5-8.6-.9-17.1.5-25.6 1.8-10.8 1.3-21.9 1.6-32.8.7-23.9 2.5-47.7 2.3-71.6-.2-21.9 1.3-43.7 1.4-65.6.1-31.2 1.6-62.3 1.1-93.5-.3-15.9-.1-31.9-.3-47.9-.3-24.8-4.4-48.8-13.5-72-3-7.6-6.9-14.4-12-20.5-5-5.8-9.5-12-13.7-18.3-.9-1.4-1.8-2.9-3.1-3.8-1.7-1.1-3.8-1.6-5.5.2-1.3 1.5-.8 2.9.3 4.4 2.2 2.9 4.1 6.1 6.3 8.9 14.1 18 23.5 38.3 29.3 60.4 1.8 6.8.5 13.8 1.4 20.8 3.6 28.1 3.9 56.4 2.5 84.7-.7 14.3 1 28.6.2 42.9-1.5 25.2-3.5 50.4-3.4 75.6.1 30.5-.6 61.1-1.4 91.6-.6 24.8-.7 49.7-2.6 74.5-.4 4.8 1.4 9.1 1 13.8-2.3 29.8-1.2 59.7-3.6 89.6-1.2 15.1-1.1 30.4-.9 45.7.3 23.2.6 46.4.4 69.5-.4 36.6-.5 73.1-2.2 109.7-1 22.2-.8 44.5-3.2 66.7-1.4 12.8-.4 25.9-.4 38.9 0 16.9.2 33.8-1.1 50.8-1.1 14.6-.8 29.3-.7 43.9 0 6-.3 11.9-1.3 17.8-3.1 17.2-2.1 34.7-2.1 52.1 0 15.1-.2 30.3-.6 45.4-.6 22.9 0 45.9-.1 68.9 0 24.3.4 48.5-.7 72.8-.4 8.6.4 17.2.8 25.8 1.1 25.2-.1 50.4 0 75.6.1 42.2 1.2 84.5.9 126.7-.1 12.4 0 24.9-.5 37.3-.6 17.2-.7 34.4 1.1 51.6 1 9.5 1.2 19.4 1.3 29.2.2 29.2-1.1 58.4 0 87.6.7 18.8.3 37.7-.3 56.5-.8 22.9 1.5 45.8 0 68.7-1.2 18 .4 36 1.8 53.8 1.5 19.6 1.2 39.2 2.4 58.7.9 15.3.9 30.5 1.1 45.7.1 7.4-.2 7.5-7.5 8.7-20.3 3.2-40.8 5.2-61.2 7.9-25 3.2-50.2 4.5-75.3 6.7-44.8 4-89.6 3.9-134.5 3.8-28.6 0-57.2 0-85.8-.8-18.5-.5-37-2.5-55.5-3.3-23.5-1-46.9-2.9-70.4-4.2-19.9-1.1-39.9-1.8-59.5-4.8-25.2-3.8-50.7-5.8-75.8-10.1-10.8-1.8-21.7-2.6-32.5-4.3-17.7-2.8-34.8-8.5-52.3-11.8-19.5-3.7-39.1-7.6-58.2-12.9-16.6-4.6-33.1-9.4-48.9-16.5-12.6-5.7-26.3-9.2-38.7-15.6-8.8-4.6-17.8-9-26.5-13.7-6.9-3.7-11.6-10-17-15.3-4.7-4.6-2.9-11.3-3.4-17.1-.7-9.6-.4-19.3-.8-28.9-1.3-29.5-2-59.1-4.2-88.6-1.1-14.6-.7-29.2-1.5-43.8-1.1-17.5-1.9-35-1.3-52.5.6-19.9 0-39.7-.8-59.6-.3-7 .6-13.6 5.7-19.5 5-5.7 8.9-12.3 13.7-18.3 5.6-6.9 10.2-14.7 13.5-23.2 1.3-3.2 2.4-6.5 7.6-6.3 27 .9 53.6-3.5 80.1-7.6 32.2-5 61.7-17.6 91.3-30.3 17.3-7.4 31.7-18.8 47-29.1 13.1-8.8 23.3-20.6 34.9-30.9 18.1-16 29.3-36.8 43.4-55.6 3.6-4.8 5.4-10.6 7.3-16.3 2.3-6.9 6.8-11.6 13.1-15.6 20.3-12.7 34.6-30.2 40.8-53.9 4.1-15.7 4-31.5 3.7-47.5-.1-5.7-.2-11.3 0-17 .1-4.7 1.1-9.2 3.8-13.2 11.3-17.3 22.8-34.2 41.3-45 8.1-4.7 13.7-11.9 11.4-22.3-1.9-8.7-6.8-15.4-15.4-18.1-7.8-2.4-16.1-2.3-23.5.8-6.1 2.5-12.5 4.5-18.3 7.7-1.3-.5-1.7-1.1-2.2-1.6zm360-549.7c.5-18.2-.5-38-5.2-57.5-2.3-9.5-3.6-11.7-12.9-12.1-17.2-.8-34.1-4-51.1-6.5-29.8-4.3-59.7-8.3-89.9-9.5-4-.2-6.1-1.4-6.4-5.7-1.1-19.1-12.9-29.9-29.7-35.6-10.9-3.7-22.2-5.7-34-1.5-13.9 4.9-24.6 12.9-30.2 26.8-1.7 4.3-4.4 6-9.1 5.9-15.6-.3-31.1.1-46.7-1.7-12.1-1.4-24.5-1.4-36.7-3-4.8-.6-9.2 2.2-13.7 1.2-12.4-2.7-25.1-1.3-37.6-2.5-10.4-1-14 3.8-11.4 13.9 6.1 23.3 7.6 47.1 8.5 71 .6 17 .3 33.9-2 50.7-2.4 18.1-4.9 36.2-7.4 54.2-2.7 18.7-7.2 37.1-10.3 55.8-4.4 25.9-9.8 51.5-16 77-9.7 39.7-22.4 78.5-35.3 117.3-4.9 14.8-8.9 30-18.2 42.9-1.5 2.1-1.8 5-2.5 7.5-2 7.4-1.6 8.3 6.1 10.3 7.1 1.9 14.3 2.9 21.6 3.9 30.9 4.3 61.8 8.7 92.6 13.3 11.4 1.7 23.1 2.9 34.1 6.2 9.6 2.9 19.4 4.1 29.1 5.8 16 2.8 32.2 4.3 48.3 6.7 17.7 2.7 35.4 5.4 53.1 8.2 26.8 4.3 53.8 8 80.7 12 4.9.7 10.3.1 14.8 1.9 10.4 4.3 21.5 3.7 32.2 6.2 3.6.8 6-.3 7.6-4.3 2.9-6.8 3.9-14 5.7-21 5.9-23.1 12.2-46 18.1-69.1 1.5-5.8 3.3-11.4 4.5-17.3 3.6-18.2 7.5-36.4 10.8-54.7 3.3-18.5 8.6-36.6 12.2-55.2 6.1-31.6 10.2-63.5 14.5-95.4 3.5-25.6 7.4-51.2 8.7-77.1.9-22.2 3.5-44.6 3.1-69zm-66.3 1189.9c4.3.8 7.2-1.7 9.9-4.6 2.5-2.7 4.5-5.8 8-7.4 9.2-4.1 16.6-10.8 25.1-16 14.4-8.8 29.3-16.9 43.6-26 12.8-8.2 26.5-14 40.3-19.1 14.5-5.4 28.9-11.4 43.8-15.9 1.8-.5 3.6-1.5 4.3-3.8 2.1-8 6.8-15 8.3-23.3 2.8-15.3 7.3-30.4.2-45.9-2.3-5.1-2-11.1 1.4-16.3 1.2-1.9 2.3-4.1 3-6.3 3.5-10.2.5-16.1-9.8-19.8-.9-.3-1.8-.8-2.8-1.1-3.9-1.3-4.8-3.7-3.8-7.7 1.8-6.7 2.3-13.7 4.6-20.4 1.1-3.1 1.1-6.1.6-9.6-2.7-17.8-7.5-35-13.6-51.9-8.8-23.9-15-48.6-24.5-72.3-8.9-22.1-16-44.9-25.7-66.8-7.9-17.8-13.7-36.5-20.8-54.7-2.8-7.2-5.6-14.2-5-22-3.5-1.4-7.1-1.8-9.9-.2-6.9 3.9-14.1 7.3-20.4 12.2-5.4 4.2-11.4 7.6-16.4 11-5.4-5.2-10.1-9.9-15.1-14.3-13.7-12-28.7-12.6-41.5-2.3-15.8 12.6-21.8 28.7-17 48.6 1.9 8.1 1.7 8.4-5.6 12-10.4 5.1-20.9 10.1-31.4 14.9-10.6 4.8-12.5 8.9-7.6 19.3 2.5 5.4 6.2 10.3 8.2 15.9 6.7 18.4 14.9 36.3 20.5 55.1 3.2 10.8 7.8 21.2 12.3 31.5 6 13.6 13.2 26.8 18.7 40.6 5.8 14.5 12.3 28.7 20 42.3 4.3 7.5 8.5 15.1 12.2 22.9 8.1 17 12.7 34.4 3.2 52.6-2.3 4.3-2.2 8.6 1.5 11.8 6.8 5.8 7.6 13.6 7.9 21.6.6 14.3-1.6 28.4-4.1 42.5-4.1 23.3-9.4 46.2-21.6 66.9-1 1.6-2.3 3.5-1 6zm-336.7 110.3c8.6.1 12.2-1.4 12.3-5.9.1-9.1 3.8-17.3 5.7-26 6.9-31.8 13.4-63.7 21.5-95.2 4.6-17.9 5.7-36.8 15.1-53.3 1.3-2.3.6-4.6-2-5.8-12.9-5.9-25.5-12.5-38.7-17.6-20.7-8-41.8-15.3-62.8-22.5-15.1-5.1-29.2-12.5-44.6-17-15.3-4.4-30.2-10-45.3-15.1-4.6-1.6-10.8-.1-12.9 4.3-4.1 8.7-9.8 16.6-12.8 25.9-3.2 9.8-6.6 19.5-9.8 29.3-.9 2.8-1.7 4.7-5.3 4.6-7.9-.2-14.7 3.9-21.9 6.3-2.9 1-5.1 3-7.1 5.4-14.7 18.1-14.7 48.7 6.1 65.1 2.5 2 2.9 3.4 2.1 6.6-2.7 10.9-4.8 22-7 33.1-1.7 9 .6 12.8 9.2 15.9 3.4 1.2 6.8 2.5 10.3 3.6 37 11.8 74.1 23.1 110.5 36.4 24.1 8.8 49 14.3 73.6 21.3 1.7.3 3.4.5 3.8.6zm456.6-920h2.1c2.8.1 5 1.6 7.6 2.4 4.8 1.6 7.8.2 8.7-4.8 1.9-11.1 5.2-21.9 6.1-33.2 2-24.5 4.5-48.9 6.6-73.4 2.5-28.1 5-56.1 7.1-84.2.4-5.2.8-10.7-1.4-15.7-1.5-3.4-3.3-7.7-7.4-7.2-8.5 1-16.4-2.5-24.7-2.4-7.3.1-14.5-.5-21.8-1.2-8.9-.8-18.7-1.3-26.2 3.1-6.5 3.8-6.2 13.4-9 20.5-.4.9-.6 1.9-.7 2.9-1.4 13.9-3.5 27.7-3.9 41.6-.6 22.9-1.1 45.9.2 68.8.5 9.2 1.5 18.5 2.5 27.7 1.5 13 6.7 24.9 9.3 37.5 1.8 8.5 4.6 16.6 7.6 24.7 1.4 3.8 3.6 7.2 6.4 10 7.4 7.6 18.3 7.2 23.9-.9 1.5-2.1 2.6-4.7 3.2-7.2.9-3.2 1.9-6.3 3.8-9zm-275.6-627.6V373c-.6-15.9-2.9-31.6-6.7-47.1-3.4-13.7-8.5-26.2-16.8-37.7-4.5-6.2-9.3-7.7-15.9-6.9-1.6.2-3.2.7-4.9.9-11.5 1.6-22.7 4.3-34.3 5.5-5.2.5-7.9-.2-10.7-4.3-4.9-7.1-11.6-11.5-20.4-12.6-13.4-1.7-23.4 3.7-30.5 14.6-3.2 5-6.9 7.8-12.7 10-8.5 3.3-18.1 3.7-25.7 9.7-4.7 3.8-5.4 4.1-1.9 9.5 3.6 5.6 7.1 11.4 8.2 18 5.1 32.2 4.6 64.1-6.6 95.2-3.4 9.3-1.1 13.7 8.4 15.5 22.9 4.3 46.2 1.5 69.3 2.2 12.5.4 25.1.3 37.7-1.6 10.9-1.7 22.1.2 33.1.1 11.2-.1 16.3-4.9 20.1-13.7 1.1-2.4 2-4.9 2.9-7.4 5.5-14.8 5.7-30.5 7.4-45.3z" class="modul_02_04_kriseplan_introduktion_svg__st2"/><path d="M980.1 2004.1c-1.3.4-1.9-.5-1.9-1.3 0-1.4 1-2.2 2.1-3 1.1-.8 2.1 0 2.2.7.2 1.7-.7 3-2.4 3.6z" class="modul_02_04_kriseplan_introduktion_svg__st1"/><path d="M1749 1176.3c-.9.6-1.8.9-2.4-.2-.1-.2.7-.9 1-1.3.5.4.9 1 1.4 1.5z" class="modul_02_04_kriseplan_introduktion_svg__st2"/><path d="M112.5 1800.8c2.2.1 3.3.9 3.6 2.9.5 3.3 1.3 6.5 1.6 9.8 1.4 18.5 4.6 36.7 9.6 54.7 4.1 15 7.3 30.3 12 45.2 5 15.8 10.5 31.4 16.9 46.7 6.9 16.6 14.2 32.9 23.1 48.5 2.5 4.4 5.3 8.3 8.8 11.9 2.2 2.3 6 5 2 8.1-3.4 2.5-6.1-.6-8.1-3.4-2.9-4-6.3-7.8-8.7-12.2-6.2-11.3-12.5-22.6-19-33.8-5.9-10.3-10.3-21.6-14.2-32.9-7.7-22.2-17-44-22.5-66.9-4.9-20.1-6.4-40.6-7.9-61.1-.3-4 0-7.9-.8-11.9-.8-3.1.6-5.2 3.6-5.6zM1431.7 824.6c-.2 8.4-.9 15.4-8.7 18.7-5.9 2.5-11.6-.5-17.8-7.8-9.5-11-10.8-24.6-12.7-38-1-7.2-.3-14.6-.4-22 0-2.8.3-5.3 2.7-7.1 1.7-1.2 3.5-2.1 5.6-1.2 2.3.9 2.5 2.9 2 5-2.6 11 .3 21.7 1.9 32.5 1.4 9.3 6.5 16.6 12.9 23.1 1.1 1.1 2.3 2.5 4.3 1.8s1.9-2.6 1.9-4.1c.4-8-1.3-15.8-3.1-23.6-.5-2.3-1.4-4.5-1.6-6.8-.2-2.7.2-5.4 3.7-6 3.4-.6 3.9 2.3 4.4 4.3 1.3 5.5 2.5 11 3.1 16.6.5 5.2 2.4 10.4 1.8 14.6zM1317.5 1026.8c-9.2-6.2-10-8.5-6-16.4 4.2-8.3 8-16.8 13.2-24.4 9.2-13.6 18.9-27 32.8-36.6 6.4-4.4 12.4-6 19.2-1.3 1.2.9 3.4.5 3.4 2.9 0 2-1.4 2.9-2.9 3.6-8.5 3.8-16.6 8.4-23.5 14.7-3.7 3.3-7 6.9-9.8 11.2-9.8 14.9-22.4 28-26.4 46.3zM1281.9 694.9c.3 2.8.3 4.2-1.1 4.9-2.7 1.3-3.7-1.4-4.4-2.8-6.7-12.3-16.2-22.6-24.2-33.9-11.5-16.2-23.7-31.8-38.9-44.8-1.7-1.4-5.7-3.2-3.6-5.9 2.3-3 6.4-3.3 9.8-1 3.6 2.4 7.2 4.8 10.3 7.7 11.2 10.9 21.8 22.4 30.7 35.2 7.2 10.3 12.8 21.7 19 32.6 1.7 2.8 2.6 6 2.4 8zM2107.6 625c.4 24.4-2.2 46.9-3.3 69.4-1.3 26-5.2 51.5-8.7 77.1-4.3 31.8-8.4 63.7-14.5 95.4-3.6 18.6-8.9 36.7-12.2 55.2-3.3 18.3-7.1 36.5-10.8 54.7-1.2 5.9-3 11.6-4.5 17.3-5.9 23.1-12.2 46-18.1 69.1-1.8 7-2.9 14.2-5.7 21-1.7 4-4 5.1-7.6 4.3-10.6-2.5-21.8-2-32.2-6.2-4.4-1.8-9.8-1.1-14.8-1.9-26.9-4.1-53.8-7.8-80.7-12-17.7-2.8-35.4-5.5-53.1-8.2-16-2.4-32.3-3.9-48.3-6.7-9.7-1.7-19.5-3-29.1-5.8-11-3.3-22.7-4.5-34.1-6.2-30.8-4.6-61.7-9-92.6-13.3-7.2-1-14.5-2-21.6-3.9-7.7-2-8.1-2.9-6.1-10.3.7-2.6 1.1-5.5 2.5-7.5 9.3-13 13.3-28.2 18.2-42.9 12.9-38.8 25.5-77.6 35.3-117.3 6.2-25.4 11.6-51.1 16-77 3.2-18.6 7.6-37 10.3-55.8 2.6-18.1 5-36.2 7.4-54.2 2.3-16.8 2.6-33.8 2-50.7-.9-23.9-2.4-47.7-8.5-71-2.6-10.1 1-14.9 11.4-13.9 12.5 1.2 25.2-.2 37.6 2.5 4.5 1 8.9-1.8 13.7-1.2 12.2 1.5 24.5 1.6 36.7 3 15.6 1.8 31.1 1.4 46.7 1.7 4.7.1 7.4-1.6 9.1-5.9 5.6-13.9 16.2-21.9 30.2-26.8 11.8-4.2 23.1-2.2 34 1.5 16.7 5.7 28.5 16.5 29.7 35.6.3 4.3 2.4 5.5 6.4 5.7 30.2 1.2 60.1 5.2 89.9 9.5 17 2.5 33.9 5.7 51.1 6.5 9.3.4 10.6 2.6 12.9 12.1 4.9 19.1 5.8 38.9 5.4 57.1zm-484.1 385.2c9.5 3.5 18.9 5.3 28.3 7.1 19.8 3.8 39.7 7.3 59.5 11.1 35.4 6.7 71.2 11.8 106.8 17.5 5.2.8 10.7.6 15.8 2 18.6 5.2 37.8 6.7 56.8 9.5 8.2 1.2 16.5 1.3 24.7 3 15.3 3.1 30.6 5.8 45.9 8.4 18.6 3.2 37.4 5.3 55.8 9.8 3.6.9 4.7-.5 5.8-3.3 1.3-3.1.8-6.5 1.8-9.7 5.9-19 11.9-38 16.7-57.3 6.5-25.8 12.4-51.7 17.6-77.7 2.7-13.3 6.1-26.5 8.4-39.9 4.7-27.4 9-54.9 13.4-82.4 3.5-21.6 6.9-43.3 9.5-65 1.9-16.2 3-32.4 4.6-48.5 2.8-27.1 5.2-54.2 4.9-81.5-.1-13-1.2-25.9-4-38.6-1.3-5.9-3.3-9.9-10.8-10.4-10.8-.7-21.4-3.5-32.2-4.4-21.5-1.8-43.1-2.8-64.6-4.5-13.8-1.1-27.9-1.2-41.4-5.1-4.1-1.2-5.6.8-6.6 3.8-5.7 17.1-18.8 26.7-33.8 34.6-4.3 2.3-8.8 2.5-13.5 2.8-13.5.8-24.2-6.3-35.3-12-4.2-2.2-6.5-6.4-8.8-10.5-4.4-7.8-5.7-16.3-6.3-24.9-.3-4.6-2.3-6.6-6.8-6.5-4.7.1-9.3 0-14 .1-24.2.3-48.3-2.3-72.6-2.3-13.2 0-26.6.6-39.8-1.4-6.2-.9-7.9.7-6.4 7 3.8 16.5 6.4 33.3 7.1 50.2 1 24.5.9 49.2-1.1 73.6-1.8 21.8-4.7 43.6-8.7 65-5.1 27-8 54.4-16.2 80.8-4.8 15.5-6.1 31.8-11.6 47.3-2.3 6.5-4.7 13.1-6.1 20-3.6 17.9-7.5 35.7-14.3 52.7-1.5 3.7-3 7.4-4.1 11.1-6.2 21-11.3 42.4-22.6 61.4-1.3 1.9-2 4.2-1.8 7.1zm271-505.5c-19.1.4-28.7 8.1-38.1 24.2-4.4 7.5-6.5 16.7-4 25.9 3.9 14.4 25 29.1 39.9 27.7 21.6-2 40.8-27.4 37-48.9-3.1-17.9-16.4-29-34.8-28.9zM2041.3 1814.9c-1.3-2.5 0-4.4.9-5.9 12.2-20.7 17.5-43.6 21.6-66.9 2.5-14.1 4.7-28.2 4.1-42.5-.3-8-1.1-15.8-7.9-21.6-3.7-3.2-3.7-7.5-1.5-11.8 9.5-18.2 4.9-35.5-3.2-52.6-3.7-7.8-7.9-15.3-12.2-22.9-7.7-13.6-14.2-27.7-20-42.3-5.5-13.8-12.7-27-18.7-40.6-4.5-10.3-9.2-20.7-12.3-31.5-5.6-18.9-13.8-36.7-20.5-55.1-2-5.6-5.7-10.5-8.2-15.9-4.8-10.4-3-14.5 7.6-19.3 10.5-4.8 21-9.8 31.4-14.9 7.4-3.6 7.6-3.9 5.6-12-4.8-19.9 1.2-36 17-48.6 12.8-10.3 27.9-9.7 41.5 2.3 5 4.4 9.7 9.2 15.1 14.3 5.1-3.4 11-6.8 16.4-11 6.3-4.9 13.5-8.3 20.4-12.2 2.9-1.6 6.4-1.2 9.9.2-.6 7.8 2.2 14.8 5 22 7.1 18.2 12.9 36.9 20.8 54.7 9.7 21.9 16.8 44.6 25.7 66.8 9.5 23.7 15.8 48.4 24.5 72.3 6.2 16.9 10.9 34.1 13.6 51.9.5 3.4.5 6.5-.6 9.6-2.3 6.6-2.9 13.6-4.6 20.4-1.1 4-.1 6.4 3.8 7.7.9.3 1.9.8 2.8 1.1 10.3 3.7 13.3 9.6 9.8 19.8-.8 2.2-1.8 4.3-3 6.3-3.3 5.3-3.7 11.2-1.4 16.3 7.1 15.5 2.5 30.6-.2 45.9-1.5 8.2-6.1 15.3-8.3 23.3-.6 2.3-2.5 3.3-4.3 3.8-14.9 4.4-29.3 10.5-43.8 15.9-13.8 5.1-27.6 11-40.3 19.1-14.2 9.1-29.1 17.2-43.6 26-8.4 5.2-15.9 11.9-25.1 16-3.5 1.6-5.5 4.7-8 7.4-2.7 2.9-5.6 5.3-9.8 4.5zm23.2-29.6c.7-.1 1.4 0 1.9-.4 20-13 40.1-25.6 61.2-36.8 24.1-12.8 49.9-21.3 74.9-31.8 6.6-2.8 9.7-6 10.8-12.2 3-16.6 5.5-33.3.7-50.1-1.5-5.2-.7-10.6.4-15.8.7-3.2 1.7-6.4 2.5-9.6 1.2-4.5.1-7.3-4.9-9-8.3-2.8-9.1-4.5-8.6-13.2.2-2.6.9-5.2 1.5-7.8 1.6-7.1 3-14.2 3.2-21.6.6-18.4-4.9-35.4-10.6-52.4-6.5-19.2-14.3-37.8-20.2-57.2-3.7-12.1-6.8-24.5-12.2-35.8-8.8-18.6-14.3-38.5-21.9-57.5-7.8-19.6-16-39.2-22.3-60.2-15.2 6.6-28.6 14.8-40.6 25.5-1.3 1.1-2.1 2.6-2.1 4.3-.2 9-5.2 16.4-8.6 24.2-5.7 13.2-20.3 19.3-34 15-5.1-1.6-10.2-3.3-14.3-7-2.8-2.6-4.8-1.9-7.8-.1-10.7 6.7-22.4 11.4-32.8 18.8-8.1 5.7-8.6 5.1-5.6 14.7 6.6 20.8 16.6 40.5 22.1 61.7 3.3 12.7 11.4 23.2 16.1 35.2 2 4.9 2.8 10.1 5.4 14.9 8.8 16.2 15.5 33.5 24.3 49.8 8.3 15.4 15.2 31.8 23.3 47.4 6.9 13.4 9.4 25.8 4.2 39.9-1.9 5.2-1.2 10.3 2.9 14.8 2.4 2.6 4.4 5.8 4.6 9.8.6 17.5.6 34.9-3.7 52.2-4.2 16.7-6.7 33.8-12.2 50.1-.7.6-1.4 1.7-.4 2.1 1.6.5 2.4-.6 2.8-1.9zm-20.9-410.7c6.3.3 12.1-.8 15.7-6.5 2.5-3.9 4.7-8.1 6.2-12.5 8-23 4.5-32.1-20.6-39.4-4.7-1.4-8.3-.8-11.9 2.3-7.2 6.3-12.3 14-14.6 23.2-4.2 16.5 8.1 32.5 25.2 32.9z" class="modul_02_04_kriseplan_introduktion_svg__st3"/><path d="M1704.6 1925.2c-.4-.1-2.1-.2-3.7-.7-24.6-6.9-49.6-12.5-73.6-21.3-36.5-13.3-73.6-24.6-110.5-36.4-3.5-1.1-6.9-2.4-10.3-3.6-8.6-3.1-10.9-7-9.2-15.9 2.1-11.1 4.3-22.1 7-33.1.8-3.1.4-4.6-2.1-6.6-20.8-16.4-20.8-47-6.1-65.1 2-2.4 4.2-4.4 7.1-5.4 7.2-2.4 14-6.5 21.9-6.3 3.6.1 4.4-1.8 5.3-4.6 3.1-9.8 6.5-19.5 9.8-29.3 3.1-9.2 8.7-17.2 12.8-25.9 2.1-4.4 8.3-5.8 12.9-4.3 15.1 5.1 30 10.7 45.3 15.1 15.4 4.4 29.5 11.8 44.6 17 21.1 7.2 42.1 14.4 62.8 22.5 13.2 5.1 25.9 11.6 38.7 17.6 2.6 1.2 3.3 3.5 2 5.8-9.4 16.5-10.6 35.5-15.1 53.3-8.1 31.5-14.5 63.4-21.5 95.2-1.9 8.6-5.5 16.8-5.7 26-.2 4.5-3.9 6-12.4 6zM1516 1820.1c-5.6 6.7-4.5 15.5-7.3 23.2-3.9 10.8-3.2 11.3 8.3 13.7 17.5 3.7 34.4 9.9 51.6 14.6 9.8 2.7 19.3 6.9 29.2 9.5 18.9 5 37.7 10.1 56.3 16.1 15.4 5 31.1 9 46.8 13 4.7 1.2 6.3-.7 7.3-5.3 1.9-9 4.6-17.9 7-26.9.3-.9.6-1.7.8-2.6 2.6-18.1 9.1-35.2 13.3-52.9 5.6-23.5 11.3-47 15-70.9 1.3-8.7 1-9.7-7-12.2-8.2-2.6-16.8-4.1-24.9-6.9-15.6-5.5-30.8-11.8-46.4-17.4-20.9-7.5-42.4-13.2-62.8-22-5.4-2.3-11.1-4.2-16.5-6.7-6.6-3.1-13.6-5.3-20.5-7.5-4-1.2-7.2-.8-9.5 4.2-2.2 4.9-3 10.1-5.3 14.9-4.3 8.9-7.7 18.3-11 27.6-2.5 7-1.7 8.3 5.1 11.7 14.1 7 23.6 23.3 20.5 36.4-4 17.2-16.9 31.7-37.3 32.9-12.1.7-12.8 1.7-12.8 13.7l.1-.2zm-17.8-45c-.2 14.7 9.3 23.4 25.6 23.4 17.2 0 33.7-16.1 33.5-32.8-.1-12.4-14.2-23.7-29.1-24.6-18.6-1-29.5 12.8-30 34z" class="modul_02_04_kriseplan_introduktion_svg__st4"/><path d="M2161.2 1005.2c-1.9 2.8-2.9 5.8-3.7 9.1-.6 2.5-1.7 5.1-3.2 7.2-5.6 8.1-16.4 8.5-23.9.9-2.8-2.9-4.9-6.2-6.4-10-3-8.1-5.9-16.2-7.6-24.7-2.6-12.6-7.9-24.5-9.3-37.5-1-9.2-2-18.5-2.5-27.7-1.3-22.9-.8-45.9-.2-68.8.4-13.9 2.5-27.7 3.9-41.6.1-1 .3-2 .7-2.9 2.8-7 2.5-16.7 9-20.5 7.5-4.4 17.4-3.9 26.2-3.1 7.3.6 14.5 1.3 21.8 1.2 8.3-.2 16.1 3.4 24.7 2.4 4.1-.5 5.9 3.8 7.4 7.2 2.2 5 1.8 10.5 1.4 15.7-2.2 28.1-4.7 56.1-7.1 84.2-2.2 24.5-4.6 48.9-6.6 73.4-.9 11.3-4.2 22.1-6.1 33.2-.9 5-3.9 6.4-8.7 4.8-2.5-.8-4.8-2.3-7.6-2.4-.8-.1-1.5-.1-2.2-.1zm-45.6-91c-.8 24.3 4.2 47.5 8.5 70.6 1.8 9.9 4.9 20 11.8 28.1 4.2 5 8.8 5.3 12-.1 2.5-4.2 5.2-8.4 6.3-13.5 3.6-16.3 6.1-32.8 6.9-49.3 1.4-29.2 3.3-58.5-3.2-87.5-.6-2.6-.9-6.2 2-7 7.9-2 6.1-8.1 5.4-12.8-1.8-11.4-3.5-22.9-7-34.1-2.6-8.2-5.3-13.4-14.7-12.7-17.9 1.2-21.6-1-25.4 18.5-2.9 15.1-2.8 30.3-3.5 45.5-1 18.3-.2 36.6.9 54.3zm55.6 78.5c3.5-4.3 3.6-9.3 4.3-14.1 3.9-24.9 3.7-50.2 8.3-75 2.2-11.5 1-23.2 2.9-34.7 2.6-16.1 3.2-32.3 3.3-48.6 0-5.2 0-10.6-1.9-15.7-.9-2.5-2.5-4.3-5.2-3.4-2.6.9-1.4 3.4-.9 5.1 4 13.6 3.9 27.5 3.1 41.4-.4 6.5-2.8 12.5-9.9 14.7-5.7 1.8-6 5.5-5.9 10.8.7 35.5.7 71-4 106.2-.7 6.1.8 10 5.9 13.3zm-2.7-188.8c0 14.5 6.3 28 6.4 42.6 2.9-14.9 2-29.3-6.4-42.6zm-.7-4.4c-.3-.6-.6-1.1-.9-1.7-.3.5-.9 1-.9 1.5s.5 1.1.8 1.7c.4-.5.7-1 1-1.5z" class="modul_02_04_kriseplan_introduktion_svg__st5"/><path d="M1885.6 377.6c-1.7 14.8-1.9 30.5-7.6 45.2-1 2.5-1.9 5-2.9 7.4-3.8 8.8-9 13.6-20.1 13.7-11.1.1-22.2-1.8-33.1-.1-12.6 2-25.2 2-37.7 1.6-23.1-.7-46.3 2.1-69.3-2.2-9.5-1.8-11.8-6.2-8.4-15.5 11.2-31.1 11.7-63 6.6-95.2-1-6.6-4.5-12.4-8.2-18-3.5-5.4-2.8-5.7 1.9-9.5 7.6-6.1 17.2-6.5 25.7-9.7 5.7-2.2 9.4-4.9 12.7-10 7-10.9 17.1-16.3 30.5-14.6 8.8 1.1 15.6 5.5 20.4 12.6 2.8 4.1 5.6 4.9 10.7 4.3 11.6-1.2 22.8-3.9 34.3-5.5 1.6-.2 3.2-.7 4.9-.9 6.6-.8 11.4.7 15.9 6.9 8.4 11.5 13.4 24 16.8 37.7 3.8 15.5 6.2 31.2 6.7 47.1.3 1.4.2 2.8.2 4.7zM1738.9 307c-6.3 1.3-12.4 2.6-18.5 3.9-2.5.6-4.8 1.7-2.8 4.7 6.3 9.5 7.3 20.4 8.7 31.3 3.2 24.4 1.7 48.2-7.3 71.3-1.4 3.7-2 7.7-2.9 11.5-1 4.2 1.2 5.3 4.9 5.2 16.6-.2 33.3.4 49.9-.7 28.2-1.8 56.5-.7 84.7-1.2 7.5-.1 9.4-.8 11.8-7.9 6.1-18.1 9.6-36.8 9.7-55.7.1-17.2-2.7-34.4-8.2-51-2.9-8.7-8.4-15.8-13.4-23.2-2.5-3.7-6.1-5-11-5-14.1 0-27.5 4.8-41.3 5.9-4.7.4-6.1 3.4-6.8 7.1-2.4 11.2-10 18.4-19.2 24.2-3.1 1.9-6.4 3.6-10.4 2.6-11.9-2.9-23.3-6.4-26.6-20.5-.2-.6-.7-1.4-1.3-2.5zm48.4-12.3c.4-7.6-5.9-13.4-14.9-13.9-12-.7-23.5 11-21.1 21.6 1.6 7.2 10.3 15.3 18 16 8.4.8 10.9-6.3 14.5-11.6 2.4-3.6 2.2-8.2 3.5-12.1z" class="modul_02_04_kriseplan_introduktion_svg__st4"/><path d="M1623.5 1010.2c-.1-2.9.5-5.2 1.7-7.2 11.4-19.1 16.4-40.5 22.6-61.4 1.1-3.8 2.7-7.5 4.1-11.1 6.8-17 10.7-34.8 14.3-52.7 1.4-6.9 3.8-13.5 6.1-20 5.4-15.4 6.8-31.8 11.6-47.3 8.2-26.4 11.2-53.8 16.2-80.8 4-21.5 6.9-43.3 8.7-65 2.1-24.5 2.1-49.1 1.1-73.6-.7-16.9-3.2-33.6-7.1-50.2-1.5-6.3.2-7.9 6.4-7 13.2 2 26.6 1.4 39.8 1.4 24.2 0 48.4 2.6 72.6 2.3 4.7-.1 9.3.1 14-.1 4.5-.1 6.5 1.9 6.8 6.5.6 8.6 1.9 17.1 6.3 24.9 2.3 4.1 4.6 8.4 8.8 10.5 11.2 5.7 21.8 12.8 35.3 12 4.7-.3 9.2-.5 13.5-2.8 15-7.9 28.2-17.5 33.8-34.6 1-3 2.5-5 6.6-3.8 13.5 3.9 27.5 4 41.4 5.1 21.5 1.7 43.1 2.7 64.6 4.5 10.8.9 21.4 3.8 32.2 4.4 7.4.5 9.5 4.5 10.8 10.4 2.7 12.7 3.8 25.6 4 38.6.2 27.3-2.2 54.4-4.9 81.5-1.7 16.2-2.7 32.4-4.6 48.5-2.6 21.8-6 43.4-9.5 65-4.4 27.5-8.7 55-13.4 82.4-2.3 13.4-5.7 26.5-8.4 39.9-5.2 26-11.1 52-17.6 77.7-4.8 19.3-10.8 38.3-16.7 57.3-1 3.2-.5 6.6-1.8 9.7-1.1 2.8-2.2 4.2-5.8 3.3-18.4-4.5-37.2-6.6-55.8-9.8-15.3-2.7-30.7-5.3-45.9-8.4-8.2-1.7-16.5-1.8-24.7-3-19-2.7-38.2-4.3-56.8-9.5-5.1-1.4-10.5-1.1-15.8-2-35.6-5.7-71.4-10.7-106.8-17.5-19.8-3.8-39.7-7.3-59.5-11.1-9.3-1.7-18.7-3.5-28.2-7zm377.3-97.4c7.8-.4 13.8 3.4 17.7 11 1 2 2.3 4.4 5.3 3.1 2.1-1 2.4-2.9 2.1-5.1-2.3-14.7-10.7-22.7-25.1-20.1-5 .9-10.2 2.9-14.4 6.4-2.8 2.3-5.7 5.5-8.9 6.1-4 .8-4.9-4.7-7.9-6.6-.8-.5-1.6-1.2-2.4-1.8-7.6-6-9.3-6.2-17.7-.9-6.5 4.1-13.5 7.2-20.4 10.2-11.5 5.1-17 3.6-24.9-6.3-5-6.2-10.4-12.1-15.7-18-4.6-5.1-10.4-6.9-17.1-6.1-5.7.7-11 2.4-15.9 5.3-5.1 3.1-10.3 6.1-15.7 8.8-14.2 7.3-16.7 6.9-28.7-3.3-1.8-1.5-3.5-3.1-5.2-4.5-5.5-4.5-9.5-4.9-15.5-1.2-2.3 1.4-4.4 3-6.5 4.6-10.3 7.7-10.3 7.7-17.8-2.6-2.4-3.3-4.8-3-6.5.7-2.8 5.8.2 11.2 1.9 16.4 2.4 7.1 5.8 8.1 12 3.7 5.7-4 10.8-8.8 16.2-13.2 4.1-3.3 7.7-4.3 12 .3 3.2 3.4 6.6 6.5 9.8 9.9 3.6 3.7 7.8 6.6 13.3 4.8 5-1.6 10.5-2.7 14.6-6.2 7.9-6.7 17.4-9.4 27.2-11.4 13.7-2.7 17.5-1.4 24.4 10.9 5.1 9 12.8 14.1 21.7 18.1 4.6 2.1 8.9 2 13.4.3 5.9-2.3 11.8-4.8 16.9-8.5 8.5-6 15.4-5.8 23.2 1.9 6.1 6 11.2 5.2 18.9.4 2.5-1.6 5.2-3.1 7.5-4.9 2.2-1.8 4.6-2.4 8.2-2.2zm-155.4-94.1c-3-3.5-4.3-7.3-5.9-10.9-2-4.5-6.2-6.9-10-9.4-3.5-2.3-5.9 1.9-9 2.8-8.5 2.4-15.1 8.3-22.9 12-7.1 3.4-8.9 2.7-11.4-4.6-.7-2-1.6-4.2-3.6-4.3-2.6-.2-4 2-4.7 4.4-2.9 10.3 5.1 18.5 14.8 16.5 6.4-1.3 11.7-4.6 16.7-8.5 4.2-3.2 8.6-6.2 13.8-7.8 3.3-1 5.7-.6 7 3.2 1.5 4.8 4.1 9.1 7.1 13.1 5.2 7.3 8.8 7.6 15.3 1.7 4.1-3.8 8.3-7.5 13.2-10.4 9.2-5.3 12.6-5.2 20.6 1.3 4.1 3.4 8.1 6.8 12.4 10 9.7 7.2 13.5 7.2 23.3.5 5.8-3.9 11.3-8.1 17.2-11.8 5.4-3.4 8.9-2.7 13.4 1.6 2.9 2.8 4.9 6.3 6.8 9.8 3.8 7 7.6 9.5 14.1 6.5 12.3-5.7 25.2-5 38.1-5.7 6.5-.4 13-.7 14.5 8.2.3 1.9 2.1 3.4 4.5 2.7 2.2-.7 2.9-2.3 3-4.6.3-6.9-6.3-14.2-13.5-14.4-12.6-.2-25.3-.6-37.6 3.2-5.1 1.6-8.2.6-10.8-5.1-3-6.6-9-11.3-15.7-14.5-2.2-1-4.6-1.5-6.8-.6-11.4 4.4-23.4 7.4-32.1 17.1-4.9 5.5-6.7 5.3-12.8.9-6.4-4.7-12.6-9.7-19-14.5-5.9-4.5-11.6-5.3-18.2-.8-7.1 4.6-14.5 8.2-21.8 12.4zm-45.5-105.6c-3.5-1.8-3.5-5.4-5.8-7.4-1.5-1.3-3.2-2.7-5.3-1.6-2.4 1.3-2.9 3.5-2.1 6 1.8 5.6 5.7 9.6 10.3 13.2 2.8 2.2 5.2 2.2 7.8-.5 4.2-4.2 9-8 13-12.3 5.1-5.5 9-6.2 15.5 1.5 10.6 12.8 13.5 13.2 28.2 4.4 11.5-6.9 22.9-8.7 33.8 1.3 1 .9 2.3 1.3 3.4 2 8.5 5.1 8.4 5 13.9-2.8 2.5-3.5 4.6-7.2 8.3-9.9 3.5-2.6 6-2.2 8.4 1 3.8 5.1 6.9 10.4 9.1 16.5 2.9 8.2 6.8 9.5 14.6 6 1.5-.7 2.7-1.9 4.1-2.8 6.7-4.4 13.9-4.8 19.1.8 6.8 7.3 14.4 8.5 23.3 6.3 1.6-.4 3.2-.7 4.8-1.2 8.9-2.6 17.6-3 26.2.9 2.3 1 5.5 2.1 6.7-1.3 1-2.7-.5-5.3-3.1-6.7-6.8-3.8-13.7-6.8-21.8-4.5-2.5.7-5.3.8-7.8 1.7-8 2.8-14.6 1.7-20.5-4.9-5.2-5.8-11.8-6.4-19.2-4.1-3.6 1.2-6.3 3.5-9.6 5.1-5.4 2.7-9.6 2.7-11.9-3.8-1.4-4-3.7-7.8-5.8-11.6-4.7-8.4-11.2-10-18.8-4.4-4.3 3.1-8.5 6.5-12.3 10.2-3.1 3-5.7 2.5-8.6 0-1.2-1.1-2.4-2.3-3.7-3.3-7.7-5.7-15.9-7.6-25.2-3.7-5 2.1-9.1 5.3-13.4 8.5-4 3-7.8 3.3-11.3-.8-2.8-3.3-6.7-5.5-8.9-9.4-2.3-4.2-5.9-4.8-10.3-3.2-4.1 1.5-7.8 3.8-11.4 6.1-4.6 2.8-9.3 5.8-13.7 8.7zm-28.3 278.3c-2.9-2.5-3.2-4.9-4-7.1-.8-2.2-1.3-4.4-1.3-6.8 0-1.6.1-3.5-.6-4.9-.9-1.9-3-2.6-5.1-2.1-2 .5-2.2 2.1-2 3.9.6 4.6.6 9.4 1.9 13.8 4.4 14.9 8.6 16.1 20.5 6.2 1.5-1.3 3.2-2.5 4.4-4 3.5-4.4 8.5-6.3 13.4-8.4 5.8-2.5 8.2-1.2 10.9 4.6 2 4.2 3.7 8.6 6.1 12.5 6 9.7 9.5 10.6 19.6 5.5 1.5-.7 2.8-1.8 4.2-2.6 7.1-4.2 14.2-8.6 21.5-12.6 7.2-4 9.1-3.6 14.4 2.7 6.3 7.6 13.2 13.7 23.6 15.4 10.5 1.7 20.5 3.5 31-1.3 8.9-4 16.5-9.8 24.5-15.1 9-6.1 12.6-5.7 16.9 4.2 2.9 6.7 6.8 8.7 13.7 8.5 7.4-.2 8.6 1.4 8.9 8.7.1 3.4.1 6.7 1.9 9.7 1.5 2.6 3.9 3.1 5.7 1 4-4.8 6-10.6 4.2-16.6-1.8-5.9-6.7-11.8-12.5-11.2-9.9 1.1-14.8-2.9-18.2-11-.6-1.4-2-2.7-3.3-3.7-5.6-4.1-9.9-7.2-16.5-.5-2.5 2.6-5.6 4.7-8.6 6.7-6.9 4.5-13.4 9.9-21.3 12.5-15.8 5.2-34.2-.6-44.6-13.7-1-1.3-2-2.7-3.1-3.9-3-3.6-6.2-5.3-11.1-2.8-11.5 5.8-23.4 11.1-34.9 17-4.3 2.1-6.6 1.6-8.4-3-2.5-6.6-6.4-12.4-11-17.7-4-4.6-9.2-5.8-14.5-3.4-3.8 1.7-7.7 3.5-10.9 6.7-4.6 4.4-10 8.3-15.4 12.8zm61.3-351.9c-6.7-4.4-11.5-10.7-16-17.3-3.4-5.1-10.5-7.5-13.4-4.4-3.6 3.8-6.4 8.4-9.2 12.9-1.1 1.8-.9 4.1 1.1 5.3 2.1 1.3 4.7 1.3 6.3-.7 1.4-1.8 2-4.2 3.2-6.2 2.1-3.5 4.6-3.5 7-.4 1.8 2.4 3.3 5 4.9 7.5 2.4 3.6 4.3 7.5 7.9 10.2 5.1 3.9 8.4 3.8 13-.7 4.2-4.2 8.5-8.4 12.5-12.9 4.7-5.3 9.5-6.1 15.8-2.5 4.4 2.5 8.6 4.9 12.3 8.4 8.3 7.9 8.1 7.5 18.8 2 5.9-3 10.6-7.9 16.9-10.3 7.7-2.9 11.7-2.3 16.6 4.1 2.8 3.6 5.5 7.4 7 11.9 1.7 5 4.1 5.8 9.1 4 1.6-.5 3.2-1.2 4.6-2 11.4-6.9 22.6-7.2 33.2 1.3 5.3 4.3 10.3 5.2 16.2.9 2.5-1.8 6.2-2.2 9.4-3.1 8.1-2.1 8.3-2 12 5.6.6 1.2 1.2 2.4 1.9 3.5.7 1.3 1.9 1.8 3.3 1.6 1.5-.3 2.5-1.5 2.4-2.8-.7-6.2-.6-12.6-6.2-17.1-7.5-5.9-15-5.2-24.4 2.2-6.2 5-6.4 5.2-12-.1-5.7-5.4-11.9-7.6-19.9-6.4-4.6.7-9.2 1.6-13.6 2.9-9.6 2.9-9.3 2.7-14.8-5.6-5.4-8.3-16.6-16.4-26-10.9-6.9 4-14.8 6-21.2 10.9-3.5 2.7-7.1 3.1-10.6-.6-3.7-3.9-8.4-6.4-13.2-8.8-12.1-6.2-17.8-4-25.6 5.5-3.1 4.2-4.3 9.5-9.3 12.1zm-143.4 319.1c.8 7.6 1.3 13.9 2.1 20.1 1.1 7.8 4.4 10 11.9 8.5 5.4-1 10.7-1.2 15.3 2.4 4.4 3.5 4.3 7.6-.6 10.4-7.6 4.4-15.7 7.2-24.6 3.7-2.6-1-5.1-1.4-7.8-.8-1.9.5-4.1.8-4.1 3.4 0 1.9 1.5 2.9 3.1 3.5 2.5.9 5 1.6 7.5 2.4 10.5 3.3 20.5 3.9 30.1-3.1 5.7-4.2 8.1-9.3 7.9-16.1-.2-6.9-2.6-12.4-8.8-15.7-3.6-1.9-7.9-.7-11.8-.9-8.6-.5-9-.8-9.4-9-.1-2-.1-4 0-6 .1-6.5.3-6.7 6.5-6.8 2.7 0 5.3.2 7.8 1.3 2.8 1.2 6 .9 8.9.5 3.3-.4 4.4-2.5 2.9-5.8-1-2.3-2.5-3.8-5-4.4-7.7-1.9-15.5-3.4-23.5-3-4.2.2-6.8 2.7-7.6 6.7-.6 3.4-.7 6.7-.8 8.7zm48.5-168.1c-3 5.9-8.1 10.3-11.5 15.9-2.5 4.2-2 5.9 2.4 7 1.3.3 2.6.7 3.8 1.2 5.1 1.9 6 3.9 4 9-2.6 6.4-5.1 7.7-12.2 7.6-5-.1-8.8-2.8-12.9-4.8-2.4-1.2-4.4-1.3-6.2 1-1.6 2-.4 3.5.7 5.3 6.1 9.6 20.8 13.5 30.6 7.9 1.4-.8 2.9-1.9 3.6-3.3 3.8-7.5 7.7-15.6 4.4-23.7-3.8-9.4-4.6-17 3.1-25.1 4.3-4.6 2.3-7.7-4.4-9.3-6.7-1.6-13.7-2.5-20.2-4.6-4.1-1.3-6.9-.3-10 1.8-3.8 2.6-4 5 0 7 4.5 2.1 9.1 4 14.2 4 3.7-.1 7.2.3 10.6 3.1zm-18.5 115v11.4c0 2.8.9 5.1 3.4 6.7 2.6 1.6 5.4 1.1 4.7-1.8-2.8-11.6 8.9-21.6 3.2-33.5-.8-1.7.6-4.5 1.1-6.7.4-1.6 1.1-3.2 1.4-4.8.4-2.1 0-4.1-2.2-5-2.7-1.1-3.5 1.1-4.3 2.8-.9 2.1-1.6 4.4-2.2 6.6-1 3.5.7 7.8-1.9 10.5-3 3.2-7.7.7-11.4 1.9-.3.1-.7.1-1 .3-4.6 1.6-6.1-.6-6-4.9.1-3.3-.2-6.6.7-9.9.5-1.9.7-4 .4-5.9-.4-2.1-.5-5.2-3.2-5.5-2.7-.3-3.5 2.4-4.1 4.7-2.4 8.4-2.7 17.1-2.5 25.7.1 5.5 3.2 7.6 9 7.4 4.5-.2 9.1 0 14.9 0zm12.8-181.5c4.1-4.7 7.3-7.6 9.7-11 9.3-13.1 8.9-20.9 2.7-29.1-5.5-7.3-16-6.7-20.1 1.4-1.5 2.8-.1 5.4 3 5.8 1.7.2 3.2-.4 4.8-.9 7-2.4 8.2-1.5 7.9 5.5-.1 3.7-.8 6.9-3.6 10-5.8 6.3-9.6 14.4-16.5 19.9-1.6 1.3-2.3 3.3-1.7 5.4.7 2.5 2.9 2.3 4.9 2.4 9.3.4 18.6-.5 27.9.7 1.8.2 3.9-.7 5.8-1.3 1.4-.4 2-1.8 2.2-3.1.2-1.5-.6-2.5-2.1-2.9-2.2-.6-4.5-1.4-6.7-1.6-5.2-.6-10.5-.7-18.2-1.2zm7.9-86.4v3c.1 2 .1 4.2 2.8 4.5 2.4.3 3.5-1.4 4.2-3.4.2-.6.4-1.3.4-1.9 1.1-11.6 2.3-23.1 3.3-34.7.3-2.9-.9-5.3-4.1-5.7-4-.5-5.2 1.9-5.3 5.5-.3 11.1.8 22.5-1.3 32.7z" class="modul_02_04_kriseplan_introduktion_svg__st6"/><path d="M1894.5 504.7c18.4-.1 31.7 11 34.9 28.9 3.8 21.5-15.4 46.9-37 48.9-14.9 1.4-36-13.3-39.9-27.7-2.5-9.2-.4-18.4 4-25.9 9.3-16.1 18.9-23.8 38-24.2z" class="modul_02_04_kriseplan_introduktion_svg__st7"/><path d="M2062.3 1785c5.5-16.4 8.1-33.5 12.2-50.1 4.3-17.2 4.2-34.6 3.7-52.2-.1-3.9-2.2-7.2-4.6-9.8-4.2-4.5-4.8-9.6-2.9-14.8 5.1-14.1 2.7-26.5-4.2-39.9-8-15.6-15-32-23.3-47.4-8.8-16.4-15.5-33.6-24.3-49.8-2.6-4.8-3.5-10-5.4-14.9-4.8-12-12.9-22.5-16.1-35.2-5.5-21.2-15.5-40.8-22.1-61.7-3-9.6-2.5-9 5.6-14.7 10.4-7.3 22.1-12.1 32.8-18.8 3-1.8 4.9-2.5 7.8.1 4 3.6 9.2 5.3 14.3 7 13.7 4.3 28.3-1.8 34-15 3.4-7.8 8.4-15.2 8.6-24.2 0-1.8.8-3.2 2.1-4.3 12-10.7 25.4-18.9 40.6-25.5 6.3 21.1 14.4 40.7 22.3 60.2 7.6 19.1 13.1 38.9 21.9 57.5 5.4 11.3 8.5 23.7 12.2 35.8 5.9 19.4 13.8 38 20.2 57.2 5.7 17 11.2 34 10.6 52.4-.3 7.4-1.6 14.5-3.2 21.6-.6 2.6-1.3 5.2-1.5 7.8-.5 8.6.3 10.4 8.6 13.2 5 1.7 6.1 4.5 4.9 9-.8 3.2-1.8 6.4-2.5 9.6-1.1 5.2-1.9 10.6-.4 15.8 4.8 16.8 2.3 33.4-.7 50.1-1.1 6.2-4.2 9.4-10.8 12.2-25 10.5-50.8 18.9-74.9 31.8-21.1 11.2-41.3 23.8-61.2 36.8-.5.3-1.3.3-1.9.4-.9 0-1.7-.1-2.4-.2zm-.8-217.7c.8-.4 2-.8 3.1-1.5 13.7-9.4 29.7-14.6 43.9-23.3 11.7-7.2 24.8-12.3 36.9-19.3 6.6-3.8 12.9-8.1 20.2-10.7 3.6-1.3 4.8-4.1 3-8.1-1.7-3.9-4.1-3.5-7.1-1.8-4.1 2.2-8.6 3.8-12.4 6.4-24 16.1-50.6 27.6-74.9 43.1-4.8 3-9.8 5.6-14.6 8.5-1.5.9-2.1 2.5-1.5 4.3.4 1.3 1.6 1.9 3.4 2.4zm96.5-27.4c-.6-2.2-2-3.6-4.3-2.7-5.2 2.1-10.7 3.9-15.4 6.8-10.7 6.7-22.2 11.7-33.5 17.3-7.4 3.7-14.7 7.6-22 11.4-3.7 1.9-3.6 4.4-.7 7 2.3 2.1 4.1 3 7.6.9 9.3-5.6 19.2-10.2 29-15.1 10.3-5.2 20.6-10.2 30.9-15.3 4.2-2.2 7.5-5.3 8.4-10.3zm-97.6-6.8c2.1-.2 4.6-1.9 7.2-3.2 4.1-2.2 8.1-4.6 12.2-6.7 14.3-7.6 28.7-15.1 43-22.7 1.9-1 5-2.2 2.7-5.1-1.6-2.1-3.4-5.4-7.2-3.3-1.2.6-2.5.9-3.7 1.5-19.6 10.4-39.5 20.2-58.3 31.9-1.7 1.1-3.5 2.7-2.8 4.8.8 2.5 3.4 2.6 6.9 2.8zm39.7 172.3c1.5 1.5 2.8 2.1 4 1.4 4.6-2.6 9.6-4.3 13.9-7.5 11-8.4 22.6-16 35.7-21.2 10.4-4.2 20.5-9.2 30.7-14 3-1.4 6.9-2.8 4.8-7.1-2.1-4.2-5.8-1.9-8.6-.6-4.1 2-8.2 4.2-12 6.8-13.3 8.9-29.1 12.6-42.6 21.1-3.9 2.4-6.9 6.2-11.6 7.4-7.3 2.1-10.5 8.2-14.3 13.7zm-3-307.8c.3-2-2.5-4.2-4.8-3.5-4.2 1.4-7.5 4.2-11 6.7-10.6 7.3-21.4 14-33.5 18.7-8.3 3.2-16.4 7.1-24.4 11-3.2 1.6-7.1 3.6-4.3 8.3 2.8 4.8 5.3.9 8.1-.6 5.5-2.9 10.8-6.3 16.5-8.9 17.4-8.1 34.7-16.5 50-28.3 1.4-1 3-1.6 3.4-3.4zm12.8 327.2c2.9.5 3.8-1.5 5.4-2.6 5.1-3.6 9.7-8 15.5-10.6 11.7-5.3 23.2-11 34.2-17.7 4.7-2.9 10-4.9 15.1-7 2-.8 5.2-.1 4.2-3.7-.8-2.8-3.5-2.6-5.8-2.6-2.1 0-3.6 1.5-5.4 2.1-8.9 3.1-15.9 9.5-24.6 12.9-10.8 4.3-20.7 10.3-30.5 16.5-3.3 2.1-6.9 3.8-10.2 5.9-1.4.9-1.8 2.7-1.3 4.5.5 2 2.3 2.1 3.4 2.3zm60.1-104c-.5-3.2-2-3.7-5.4-2-8.9 4.5-18 8.5-26.9 12.9-5.7 2.8-11.2 5.9-16.7 8.9-3.1 1.7-6 3.3-3.5 7.6s5.4 2.6 8.4 1c13.2-6.9 26.4-13.9 39.7-20.8 3.1-1.5 4.4-3.8 4.4-7.6zm-144.1-196.6c1.1-.4 2.1-.5 3-.9l35.7-17.1c3.2-1.5 5.9-3.4 4.1-7.6-1.6-3.8-4.5-4.7-9-2.2-9.5 5.2-18.9 10.6-28.3 16.1-2.6 1.5-5 3.3-7.3 5.1-1.3 1-2.4 2.6-1.2 4.3.7.9 2 1.5 3 2.3zm93.2 167.9c1.1-.5 2.7-1 4-1.9 4.6-3.1 9.2-6.3 13.8-9.5 2.2-1.5 4.5-2.8 6.5-4.5 1.3-1.1 1.9-2.6 1.1-4.4-.8-1.7-2.1-3.1-3.8-2.4-9.2 3.7-17.5 8.8-23.5 17-.5.7-.8 1.9-.8 2.8 0 1.6.5 2.8 2.7 2.9zm-40.5-93c.6 2.5 1.8 5.1 4.2 4.6 2.4-.5 4.4-3 4.8-5.6.3-2.3-1.4-3.5-3.7-3.5-3 .1-4.8 1.7-5.3 4.5z" class="modul_02_04_kriseplan_introduktion_svg__st6"/><path d="M2043.6 1374.6c-17-.3-29.4-16.3-25.2-32.9 2.4-9.2 7.4-16.9 14.6-23.2 3.6-3.1 7.1-3.7 11.9-2.3 25 7.4 28.5 16.4 20.6 39.4-1.5 4.4-3.7 8.5-6.2 12.5-3.6 5.6-9.5 6.8-15.7 6.5z" class="modul_02_04_kriseplan_introduktion_svg__st7"/><path d="M2062.3 1785c.7.1 1.5.2 2.2.3-.4 1.2-1.2 2.4-2.6 1.8-.9-.4-.3-1.5.4-2.1z" class="modul_02_04_kriseplan_introduktion_svg__st8"/><path d="M1515.9 1820.4c.1-12 .8-13 12.8-13.7 20.5-1.2 33.3-15.6 37.3-32.9 3-13.1-6.4-29.3-20.5-36.4-6.8-3.4-7.6-4.7-5.1-11.7 3.3-9.3 6.7-18.7 11-27.6 2.3-4.8 3-10.1 5.3-14.9 2.3-5 5.5-5.5 9.5-4.2 6.9 2.1 13.9 4.4 20.5 7.5 5.4 2.5 11.1 4.4 16.5 6.7 20.4 8.8 41.9 14.5 62.8 22 15.5 5.6 30.8 11.9 46.4 17.4 8.1 2.8 16.7 4.3 24.9 6.9 8 2.5 8.4 3.6 7 12.2-3.7 23.9-9.4 47.3-15 70.9-4.2 17.7-10.7 34.8-13.3 52.9-3-1.4-5.8-2.6-9.4-2.4-7 .4-13.8-2.3-17.8-7.5-5.5-7-11.4-9.2-19.6-6.5-.7.2-1.3-.2-1.5-1.2 0-2.4-.5-5.2.1-7.7 3-12.1-.3-22.8-6-33.3-7.1-12.9-18.7-20.4-31.5-26.1-8.5-3.8-17.7-1.1-26.6-.5-2 .1-3.4 1.8-5 3-11.6 8.8-22 18.7-28.9 32.7-5.2-6.7-10.2-5.8-17-3.3-9.9 3.5-21.1 7.2-29.8-3.9-2.3-3-5.4-1.7-7.1 1.6zm136-92.1c-.1-2.3-.6-4.4-2.8-5-1.7-.5-3 1.2-3.8 2.6-.7 1.1-1 2.4-1.4 3.7-4.6 15.5-9.1 31-13.6 46.5-.3.9-.4 2-.4 2.9-.1 1.8.5 3.3 2.4 3.8 1.8.5 3.4.1 4.3-1.5.8-1.4 1.1-3.1 1.6-4.6 4.7-15.1 6.9-30.9 13-45.6.3-1 .5-2 .7-2.8zm-60.3-1.9c-2.3 3.2-2.4 5.6-1.9 7.7 3.3 13.1 6.8 26.2 10.2 39.3.7 2.6 2.1 4.3 4.9 3.6 3.6-.9 3-3.7 2.2-6.4-3.1-10.8-6.2-21.5-9.2-32.3-1.2-4.1-2.6-8-6.2-11.9zm105.9 51.4c-1-1.9-2.3-3.4-4.7-2.3-8.6 4.2-17.1 8.4-25.6 12.7-2.2 1.1-3.5 2.7-1.8 5.5 1.6 2.6 3.4 2.9 5.7 1.6 7.8-4.2 15.6-8.5 23.3-12.8 1.8-.9 3.2-2.4 3.1-4.7zm-10 58.8c6.7-2.2 14.4-4.8 22.3-7.2 2.4-.7 4.8-1.3 3.9-4.4-.8-2.7-3.4-2.9-5.7-2.6-8.2 1.2-15.9 4-23.6 6.7-2.1.7-2.8 2.7-2.5 4.8.2 2.8 2.4 2.8 5.6 2.7zm-114.2-59.6c-1.2.3-2.6.7-2.7 2.4-.3 4.4 6.3 10.5 10.4 9.8 1.4-.2 2.6-.8 2.7-2.4.2-3-7-9.7-10.4-9.8z" class="modul_02_04_kriseplan_introduktion_svg__st7"/><path d="M1715.2 1878.1c-2.4 9-5.1 17.8-7 26.9-1 4.5-2.5 6.5-7.3 5.3-15.7-4-31.4-8-46.8-13-18.6-6-37.4-11.2-56.3-16.1-10-2.6-19.4-6.8-29.2-9.5-17.2-4.7-34-11-51.6-14.6-11.5-2.4-12.2-3-8.3-13.7 2.8-7.7 1.6-16.5 7.3-23.2 7.5 15.2 14.2 16.3 27.7 14.5 5.5-.7 10.7-2.3 14.6-5.1 19.1 18.6 39.7 29.2 66.1 21 3.4-1.1 5.2.2 6.4 2.7 2.4 4.9 6.6 8.4 10.4 11.9 9 8.1 19.4 12.8 31.7 7.8 4.4-1.8 7.5-.1 11.1 1.6 9.9 4.7 20 8.9 31.2 3.5z" class="modul_02_04_kriseplan_introduktion_svg__st9"/><path d="M1715.2 1878.1c-11.2 5.5-21.3 1.2-31.2-3.6-3.6-1.7-6.7-3.4-11.1-1.6-12.3 5-22.7.3-31.7-7.8-3.8-3.5-8-7-10.4-11.9-1.2-2.5-2.9-3.8-6.4-2.7-26.4 8.2-46.9-2.4-66.1-21-3.8 2.8-9.1 4.3-14.6 5.1-13.5 1.8-20.3.7-27.7-14.5l-.1.3c1.8-3.3 4.8-4.6 7.1-1.7 8.8 11.1 19.9 7.4 29.8 3.9 6.8-2.4 11.8-3.3 17 3.3 6.9-14 17.3-23.9 28.9-32.7 1.6-1.2 3-2.9 5-3 8.9-.5 18.1-3.2 26.6.5 12.8 5.7 24.4 13.2 31.5 26.1 5.8 10.5 9.1 21.2 6 33.3-.6 2.5-.1 5.2-.1 7.7.3 1 .8 1.4 1.5 1.2 8.2-2.7 14-.5 19.6 6.5 4.1 5.1 10.8 7.9 17.8 7.5 3.6-.2 6.4 1.1 9.4 2.4-.2.9-.5 1.8-.8 2.7zm-55.6-38.2c-.6-8.7-1.5-17.4-8.3-23.8-5.8-5.5-12.2-10.3-19.2-14.1-8.8-4.9-17.7-5-26.4.7-3.3 2.2-6.8 4.2-10.1 6.4-5.1 3.4-9 7.6-11.5 13.4-4.8 11.2-2.5 17.5 9.2 19.9 10.9 2.3 22.1 4.3 33.1-1.2 6-3 8-2 11 4.1 2.1 4.3 4.9 7.9 8.3 11.1 4.9 4.7 7.8 4 10.6-2 2-4.6 3.4-9.4 3.3-14.5z" class="modul_02_04_kriseplan_introduktion_svg__st5"/><path d="M1498.2 1775.1c.4-21.2 11.4-35.1 30-33.9 14.9.9 29 12.2 29.1 24.6.2 16.7-16.3 32.8-33.5 32.8-16.3-.1-25.8-8.7-25.6-23.5zM2115.6 914.2c-1.1-17.7-1.9-36-1-54.2.8-15.2.6-30.4 3.5-45.5 3.8-19.4 7.5-17.2 25.4-18.5 9.5-.6 12.2 4.5 14.7 12.7 3.5 11.2 5.2 22.6 7 34.1.7 4.7 2.5 10.8-5.4 12.8-3 .8-2.6 4.4-2 7 6.6 29 4.6 58.3 3.2 87.5-.8 16.5-3.3 33-6.9 49.3-1.1 5.1-3.8 9.3-6.3 13.5-3.3 5.5-7.8 5.1-12 .1-6.9-8.2-10-18.2-11.8-28.1-4.1-23.3-9.2-46.4-8.4-70.7z" class="modul_02_04_kriseplan_introduktion_svg__st7"/><path d="M2171.2 992.7c-5.1-3.3-6.6-7.2-5.8-13.3 4.7-35.3 4.7-70.7 4-106.2-.1-5.2.2-9 5.9-10.8 7-2.2 9.5-8.2 9.9-14.7.9-13.9.9-27.8-3.1-41.4-.5-1.7-1.7-4.2.9-5.1 2.6-.9 4.2 1 5.2 3.4 2 5.1 2 10.5 1.9 15.7-.1 16.2-.7 32.5-3.3 48.6-1.9 11.5-.8 23.2-2.9 34.7-4.7 24.8-4.5 50.1-8.3 75-.8 4.8-.9 9.8-4.4 14.1z" style="fill:#f2f2f2"/><path d="M2168.5 803.9c8.4 13.4 9.3 27.7 6.4 42.6-.1-14.6-6.4-28.2-6.4-42.6zM2167.8 799.5c-.3.5-.7 1-1 1.5-.3-.6-.8-1.1-.8-1.7 0-.5.6-1 .9-1.5.3.6.6 1.1.9 1.7z" class="modul_02_04_kriseplan_introduktion_svg__st8"/><path d="M1738.9 307c.6 1.1 1.1 1.9 1.3 2.8 3.3 14.1 14.7 17.6 26.6 20.5 3.9 1 7.3-.7 10.4-2.6 9.2-5.8 16.8-12.9 19.2-24.2.8-3.7 2.1-6.7 6.8-7.1 13.9-1.1 27.2-5.9 41.3-5.9 5 0 8.5 1.2 11 5 5 7.4 10.5 14.5 13.4 23.2 5.5 16.6 8.3 33.7 8.2 51-.1 18.9-3.6 37.6-9.7 55.7-2.4 7.1-4.3 7.8-11.8 7.9-28.2.5-56.5-.6-84.7 1.2-16.6 1.1-33.3.5-49.9.7-3.6 0-5.9-1.1-4.9-5.2.9-3.9 1.5-7.9 2.9-11.5 9-23.1 10.5-46.9 7.3-71.3-1.4-10.9-2.5-21.8-8.7-31.3-2-3 .3-4.2 2.8-4.7 6.1-1.6 12.2-2.9 18.5-4.2z" class="modul_02_04_kriseplan_introduktion_svg__st6"/><path d="M1787.3 294.7c-1.3 3.9-1.1 8.5-3.6 12.1-3.6 5.3-6.1 12.4-14.5 11.6-7.7-.8-16.4-8.8-18-16-2.4-10.6 9.1-22.3 21.1-21.6 9.1.5 15.4 6.3 15 13.9z" class="modul_02_04_kriseplan_introduktion_svg__st9"/><path d="M2000.8 912.8c-3.5-.2-6 .4-8.3 2.1-2.4 1.8-5 3.3-7.5 4.9-7.7 4.8-12.8 5.6-18.9-.4-7.8-7.7-14.7-7.9-23.2-1.9-5.1 3.6-11 6.2-16.9 8.5-4.6 1.8-8.9 1.8-13.4-.3-9-4-16.7-9.2-21.7-18.1-6.9-12.3-10.8-13.6-24.4-10.9-9.9 2-19.3 4.6-27.2 11.4-4.1 3.5-9.5 4.6-14.6 6.2-5.5 1.8-9.8-1.2-13.3-4.8-3.2-3.3-6.7-6.5-9.8-9.9-4.3-4.6-7.9-3.6-12-.3-5.4 4.4-10.5 9.2-16.2 13.2-6.2 4.4-9.6 3.4-12-3.7-1.8-5.2-4.7-10.5-1.9-16.4 1.8-3.7 4.2-4 6.5-.7 7.5 10.3 7.5 10.3 17.8 2.6 2.1-1.6 4.2-3.3 6.5-4.6 6-3.7 10-3.3 15.5 1.2 1.8 1.5 3.5 3 5.2 4.5 12.1 10.3 14.5 10.6 28.7 3.3 5.3-2.7 10.5-5.7 15.7-8.8 5-3 10.3-4.7 15.9-5.3 6.7-.8 12.6 1 17.1 6.1 5.3 5.9 10.7 11.8 15.7 18 7.9 9.8 13.4 11.3 24.9 6.3 7-3.1 13.9-6.2 20.4-10.2 8.4-5.3 10.1-5 17.7.9.8.6 1.5 1.3 2.4 1.8 3 1.9 4 7.4 7.9 6.6 3.3-.6 6.1-3.8 8.9-6.1 4.2-3.5 9.4-5.5 14.4-6.4 14.5-2.6 22.8 5.4 25.1 20.1.3 2.2 0 4.1-2.1 5.1-3 1.4-4.2-1.1-5.3-3.1-3.8-7.5-9.9-11.3-17.6-10.9z" class="modul_02_04_kriseplan_introduktion_svg__st5"/><path d="M1845.4 818.7c7.3-4.1 14.7-7.8 21.5-12.4 6.6-4.5 12.4-3.7 18.2.8 6.3 4.8 12.5 9.9 19 14.5 6 4.4 7.9 4.5 12.8-.9 8.7-9.7 20.8-12.7 32.1-17.1 2.2-.8 4.6-.4 6.8.6 6.8 3.2 12.7 8 15.7 14.5 2.6 5.7 5.7 6.7 10.8 5.1 12.3-3.8 25-3.4 37.6-3.2 7.2.1 13.8 7.4 13.5 14.4-.1 2.3-.8 3.9-3 4.6-2.4.7-4.2-.8-4.5-2.7-1.5-8.8-8-8.5-14.5-8.2-12.8.8-25.8 0-38.1 5.7-6.5 3-10.3.5-14.1-6.5-1.9-3.5-3.9-7-6.8-9.8-4.5-4.3-8-5-13.4-1.6-5.9 3.7-11.5 7.9-17.2 11.8-9.8 6.7-13.6 6.7-23.3-.5-4.3-3.2-8.3-6.6-12.4-10-8-6.6-11.5-6.6-20.6-1.3-5 2.9-9.1 6.6-13.2 10.4-6.5 6-10 5.6-15.3-1.7-2.9-4.1-5.5-8.3-7.1-13.1-1.2-3.8-3.6-4.2-7-3.2-5.2 1.6-9.6 4.5-13.8 7.8-5 3.8-10.3 7.2-16.7 8.5-9.6 2-17.6-6.2-14.8-16.5.7-2.4 2.1-4.6 4.7-4.4 2 .1 2.9 2.3 3.6 4.3 2.5 7.3 4.3 8.1 11.4 4.6 7.8-3.8 14.4-9.6 22.9-12 3-.9 5.5-5.1 9-2.8 3.8 2.5 8 5 10 9.4 1.9 3.6 3.1 7.4 6.2 10.9z" class="modul_02_04_kriseplan_introduktion_svg__st3"/><path d="M1799.9 713.1c4.4-2.8 9.1-5.9 13.8-8.9 3.6-2.3 7.3-4.6 11.4-6.1 4.3-1.6 7.9-1 10.3 3.2 2.2 3.9 6.1 6.1 8.9 9.4 3.5 4.2 7.3 3.8 11.3.8 4.2-3.2 8.3-6.4 13.4-8.5 9.4-4 17.5-2.1 25.2 3.7 1.3 1 2.5 2.2 3.7 3.3 2.8 2.5 5.4 3.1 8.6 0 3.8-3.7 8-7 12.3-10.2 7.6-5.6 14.2-4 18.8 4.4 2.1 3.8 4.3 7.6 5.8 11.6 2.3 6.5 6.5 6.5 11.9 3.8 3.2-1.6 5.9-4 9.6-5.1 7.4-2.3 14-1.8 19.2 4.1 5.9 6.6 12.5 7.8 20.5 4.9 2.5-.9 5.2-1 7.8-1.7 8.1-2.3 15 .8 21.8 4.5 2.5 1.4 4.1 4 3.1 6.7-1.2 3.4-4.5 2.4-6.7 1.3-8.7-3.9-17.4-3.5-26.2-.9-1.6.5-3.2.8-4.8 1.2-8.9 2.2-16.4 1-23.3-6.3-5.2-5.6-12.3-5.1-19.1-.8-1.4.9-2.6 2.1-4.1 2.8-7.8 3.5-11.7 2.2-14.6-6-2.2-6.1-5.3-11.4-9.1-16.5-2.4-3.2-4.9-3.6-8.4-1-3.7 2.7-5.8 6.4-8.3 9.9-5.5 7.8-5.4 7.9-13.9 2.8-1.1-.7-2.5-1.1-3.4-2-10.9-10-22.3-8.2-33.8-1.3-14.6 8.8-17.5 8.4-28.2-4.4-6.4-7.7-10.4-7-15.5-1.5-4.1 4.4-8.8 8.1-13 12.3-2.7 2.7-5 2.7-7.8.5-4.5-3.5-8.5-7.5-10.3-13.2-.8-2.5-.3-4.7 2.1-6 2.1-1.1 3.9.2 5.3 1.6 2.1 2.1 2.2 5.8 5.7 7.6z" class="modul_02_04_kriseplan_introduktion_svg__st11"/><path d="M1771.6 991.4c5.4-4.5 10.9-8.3 15.5-13 3.2-3.3 7.1-5 10.9-6.7 5.3-2.4 10.5-1.2 14.5 3.4 4.6 5.3 8.5 11.1 11 17.7 1.8 4.7 4.1 5.2 8.4 3 11.6-5.8 23.4-11.1 34.9-17 4.9-2.5 8.1-.8 11.1 2.8 1.1 1.3 2 2.6 3.1 3.9 10.3 13.1 28.7 18.9 44.6 13.7 7.9-2.6 14.4-8 21.3-12.5 3-2 6.1-4.1 8.6-6.7 6.6-6.8 10.9-3.6 16.5.5 1.3 1 2.7 2.2 3.3 3.7 3.4 8.1 8.3 12.1 18.2 11 5.8-.6 10.6 5.3 12.5 11.2 1.9 6-.2 11.8-4.2 16.6-1.8 2.1-4.2 1.6-5.7-1-1.7-3-1.7-6.3-1.9-9.7-.3-7.4-1.5-9-8.9-8.7-6.9.2-10.8-1.9-13.7-8.5-4.3-9.8-7.9-10.2-16.9-4.2-8 5.4-15.5 11.1-24.5 15.1-10.5 4.8-20.5 3-31 1.3-10.3-1.7-17.2-7.8-23.6-15.4-5.3-6.3-7.2-6.6-14.4-2.7-7.3 4-14.3 8.4-21.5 12.6-1.4.8-2.8 1.9-4.2 2.6-10.1 5.1-13.7 4.2-19.6-5.5-2.4-3.9-4.1-8.3-6.1-12.5-2.8-5.8-5.2-7-10.9-4.6-4.9 2.1-9.9 4-13.4 8.4-1.2 1.5-2.9 2.8-4.4 4-11.9 9.9-16.1 8.7-20.5-6.2-1.3-4.4-1.3-9.2-1.9-13.8-.3-1.8 0-3.4 2-3.9 2.1-.5 4.1.2 5.1 2.1.7 1.4.6 3.2.6 4.9 0 2.4.5 4.6 1.3 6.8.7 2.3.9 4.8 3.9 7.3z" class="modul_02_04_kriseplan_introduktion_svg__st3"/><path d="M1832.9 639.5c5-2.6 6.2-8 9.4-11.8 7.8-9.5 13.6-11.7 25.6-5.5 4.8 2.5 9.5 4.9 13.2 8.8 3.5 3.7 7.1 3.2 10.6.6 6.4-4.9 14.4-6.9 21.2-10.9 9.3-5.5 20.6 2.6 26 10.9 5.5 8.4 5.1 8.5 14.8 5.6 4.5-1.3 9-2.2 13.6-2.9 7.9-1.2 14.2 1 19.9 6.4 5.6 5.2 5.8 5 12 .1 9.3-7.5 16.9-8.1 24.4-2.2 5.6 4.4 5.5 10.9 6.2 17.1.1 1.3-.9 2.5-2.4 2.8-1.4.2-2.6-.4-3.3-1.6-.7-1.1-1.3-2.3-1.9-3.5-3.7-7.6-3.9-7.7-12-5.6-3.2.8-6.8 1.2-9.4 3.1-6 4.3-10.9 3.3-16.2-.9-10.7-8.6-21.8-8.3-33.2-1.3-1.4.9-3 1.5-4.6 2-5.1 1.7-7.4 1-9.1-4-1.6-4.5-4.3-8.3-7-11.9-4.9-6.4-8.9-7-16.6-4.1-6.3 2.4-11 7.3-16.9 10.3-10.7 5.5-10.6 5.9-18.8-2-3.6-3.5-7.9-5.9-12.3-8.4-6.3-3.6-11.1-2.8-15.8 2.5-4 4.5-8.2 8.7-12.5 12.9-4.6 4.6-7.9 4.6-13 .7-3.6-2.7-5.5-6.6-7.9-10.2-1.6-2.5-3.1-5.1-4.9-7.5-2.4-3.2-4.9-3.1-7 .4-1.2 2-1.8 4.4-3.2 6.2-1.6 2-4.2 2-6.3.7-2-1.2-2.2-3.6-1.1-5.3 2.8-4.5 5.6-9.1 9.2-12.9 3-3.1 10-.7 13.4 4.4 4.4 6.3 9.1 12.6 15.9 17zM1689.5 958.6c.2-2 .2-5.4.8-8.6.8-4 3.4-6.5 7.6-6.7 8-.4 15.8 1.2 23.5 3 2.5.6 3.9 2.2 5 4.4 1.5 3.2.5 5.3-2.9 5.8-2.9.4-6 .7-8.9-.5-2.5-1.1-5.1-1.3-7.8-1.3-6.2.1-6.5.3-6.5 6.8v6c.3 8.2.8 8.6 9.4 9 4 .2 8.2-1 11.8.9 6.2 3.3 8.6 8.9 8.8 15.7.2 6.8-2.2 11.9-7.9 16.1-9.6 7.1-19.6 6.4-30.1 3.1-2.5-.8-5.1-1.5-7.5-2.4-1.6-.6-3.1-1.6-3.1-3.5 0-2.6 2.2-3 4.1-3.4 2.7-.7 5.2-.3 7.8.8 8.9 3.5 17 .7 24.6-3.7 4.9-2.8 5-6.9.6-10.4-4.6-3.6-9.9-3.5-15.3-2.4-7.5 1.5-10.8-.8-11.9-8.5-.9-6.3-1.3-12.6-2.1-20.2z" class="modul_02_04_kriseplan_introduktion_svg__st5"/><path d="M1738 790.5c-3.4-2.9-6.9-3.2-10.5-3.2-5.1 0-9.8-1.9-14.2-4-4-1.9-3.8-4.4 0-7 3.1-2.1 5.9-3.1 10-1.8 6.5 2.1 13.5 3.1 20.2 4.6 6.7 1.6 8.7 4.7 4.4 9.3-7.6 8.1-6.8 15.7-3.1 25.1 3.2 8.1-.6 16.3-4.4 23.7-.7 1.4-2.2 2.5-3.6 3.3-9.8 5.6-24.5 1.7-30.6-7.9-1.1-1.7-2.3-3.2-.7-5.3 1.8-2.3 3.8-2.1 6.2-1 4.1 2 8 4.7 12.9 4.8 7.1.1 9.6-1.3 12.2-7.6 2-5 1.2-7-4-9-1.2-.5-2.5-.9-3.8-1.2-4.4-1.1-4.9-2.8-2.4-7 3.3-5.5 8.4-9.9 11.4-15.8z" class="modul_02_04_kriseplan_introduktion_svg__st11"/><path d="M1719.5 905.5c-5.8 0-10.4-.1-15.1 0-5.7.2-8.9-2-9-7.4-.2-8.6.2-17.3 2.5-25.7.7-2.3 1.4-5 4.1-4.7 2.7.3 2.8 3.4 3.2 5.5.3 1.9.1 4-.4 5.9-.9 3.3-.6 6.6-.7 9.9-.1 4.2 1.4 6.5 6 4.9.3-.1.6-.2 1-.3 3.7-1.2 8.4 1.3 11.4-1.9 2.7-2.8.9-7.1 1.9-10.5.6-2.2 1.3-4.5 2.2-6.6.8-1.7 1.7-3.9 4.3-2.8 2.2.9 2.6 2.9 2.2 5-.3 1.6-1 3.2-1.4 4.8-.5 2.3-1.9 5.1-1.1 6.7 5.7 11.9-6 21.9-3.2 33.5.7 3-2.1 3.4-4.7 1.8-2.6-1.6-3.4-3.9-3.4-6.7.2-3.7.2-7.3.2-11.4z" class="modul_02_04_kriseplan_introduktion_svg__st3"/><path d="M1732.3 724c7.7.4 13 .6 18.2 1.1 2.3.2 4.5 1 6.7 1.6 1.4.4 2.3 1.5 2.1 2.9-.2 1.3-.8 2.7-2.2 3.1-1.9.6-3.9 1.5-5.8 1.3-9.3-1.3-18.6-.4-27.9-.7-2-.1-4.2.1-4.9-2.4-.6-2.1.1-4.2 1.7-5.4 6.9-5.5 10.7-13.5 16.5-19.9 2.8-3 3.4-6.3 3.6-10 .3-7-.9-7.9-7.9-5.5-1.6.6-3.1 1.1-4.8.9-3.2-.4-4.5-3-3-5.8 4.2-8.1 14.6-8.7 20.1-1.4 6.2 8.2 6.6 16-2.7 29.1-2.4 3.5-5.5 6.5-9.7 11.1zM1740.2 637.6c2.1-10.2 1-21.5 1.3-32.8.1-3.5 1.4-5.9 5.3-5.5 3.2.4 4.4 2.8 4.1 5.7-1 11.6-2.2 23.1-3.3 34.7-.1.7-.2 1.3-.4 1.9-.7 2-1.7 3.7-4.2 3.4-2.7-.3-2.7-2.5-2.8-4.5v-2.9z" class="modul_02_04_kriseplan_introduktion_svg__st11"/><path d="M2061.5 1567.3c-1.9-.5-3-1-3.5-2.4-.6-1.8 0-3.4 1.5-4.3 4.8-2.9 9.9-5.5 14.6-8.5 24.3-15.5 51-26.9 74.9-43.1 3.8-2.6 8.3-4.2 12.4-6.4 3.1-1.7 5.4-2.1 7.1 1.8 1.7 3.9.5 6.8-3 8.1-7.3 2.6-13.6 6.9-20.2 10.7-12.1 6.9-25.2 12-36.9 19.3-14.2 8.7-30.2 13.9-43.9 23.3-.9.7-2.2 1.1-3 1.5z" class="modul_02_04_kriseplan_introduktion_svg__st12"/><path d="M2158 1539.9c-.8 5-4.2 8.1-8.4 10.3-10.3 5.2-20.6 10.2-30.9 15.3-9.7 4.9-19.6 9.5-29 15.1-3.6 2.1-5.3 1.2-7.6-.9-2.9-2.6-3-5 .7-7 7.3-3.8 14.6-7.7 22-11.4 11.3-5.6 22.7-10.6 33.5-17.3 4.7-2.9 10.2-4.7 15.4-6.8 2.3-.9 3.6.4 4.3 2.7z" class="modul_02_04_kriseplan_introduktion_svg__st11"/><path d="M2060.4 1533.1c-3.4-.2-6.1-.3-6.9-2.9-.7-2.1 1.1-3.8 2.8-4.8 18.8-11.8 38.7-21.6 58.3-31.9 1.2-.6 2.5-.8 3.7-1.5 3.9-2.1 5.6 1.2 7.2 3.3 2.3 2.9-.8 4.1-2.7 5.1-14.3 7.6-28.7 15.1-43 22.7-4.1 2.2-8.1 4.6-12.2 6.7-2.6 1.5-5.2 3.2-7.2 3.3z" class="modul_02_04_kriseplan_introduktion_svg__st5"/><path d="M2100.1 1705.4c3.7-5.6 7-11.6 14.3-13.6 4.6-1.3 7.7-5 11.6-7.4 13.5-8.5 29.3-12.2 42.6-21.1 3.8-2.6 7.9-4.8 12-6.8 2.8-1.4 6.5-3.7 8.6.6 2.1 4.3-1.8 5.7-4.8 7.1-10.2 4.7-20.3 9.8-30.7 14-13.1 5.2-24.7 12.7-35.7 21.2-4.3 3.3-9.3 5-13.9 7.5-1.2.6-2.5 0-4-1.5z" class="modul_02_04_kriseplan_introduktion_svg__st12"/><path d="M2097.1 1397.6c-.4 1.8-2.1 2.3-3.3 3.3-15.3 11.8-32.6 20.2-50 28.3-5.7 2.7-11 6-16.5 8.9-2.8 1.5-5.3 5.3-8.1.6s1.1-6.7 4.3-8.3c8-3.9 16.1-7.7 24.4-11 12.1-4.7 22.9-11.4 33.5-18.7 3.5-2.4 6.8-5.3 11-6.7 2.2-.6 5.1 1.6 4.7 3.6zM2109.9 1724.8c-1.1-.3-2.8-.4-3.4-2.4-.5-1.8-.1-3.6 1.3-4.5 3.3-2.1 6.9-3.8 10.2-5.9 9.8-6.2 19.6-12.2 30.5-16.5 8.6-3.4 15.7-9.9 24.6-12.9 1.8-.6 3.3-2.1 5.4-2.1 2.3 0 5.1-.2 5.8 2.6 1 3.6-2.2 2.9-4.2 3.7-5.1 2.1-10.4 4.1-15.1 7-11 6.7-22.5 12.4-34.2 17.7-5.8 2.6-10.3 7-15.5 10.6-1.6 1.2-2.5 3.3-5.4 2.7z" class="modul_02_04_kriseplan_introduktion_svg__st13"/><path d="M2170 1620.8c0 3.7-1.3 6.1-4.4 7.6-13.3 6.9-26.5 13.8-39.7 20.8-3 1.6-6 3.3-8.4-1-2.5-4.4.3-6 3.5-7.6 5.6-3 11.1-6.1 16.7-8.9 8.9-4.4 18.1-8.4 26.9-12.9 3.4-1.7 4.9-1.1 5.4 2zM2025.9 1424.2c-1-.8-2.3-1.4-3-2.4-1.2-1.7-.1-3.3 1.2-4.3 2.3-1.8 4.8-3.6 7.3-5.1 9.4-5.4 18.8-10.9 28.3-16.1 4.5-2.5 7.3-1.6 9 2.2 1.8 4.2-.9 6-4.1 7.6l-35.7 17.1c-.9.4-1.8.6-3 1z" class="modul_02_04_kriseplan_introduktion_svg__st12"/><path d="M2119.1 1592.1c-2.2-.1-2.7-1.4-2.7-2.7 0-.9.3-2.1.8-2.8 6-8.2 14.3-13.3 23.5-17 1.7-.7 3 .7 3.8 2.4.9 1.8.3 3.3-1.1 4.4-2.1 1.6-4.3 3-6.5 4.5-4.6 3.2-9.1 6.4-13.8 9.5-1.4.8-3 1.3-4 1.7zM2078.6 1499.1c.6-2.8 2.4-4.4 5.4-4.5 2.3 0 4 1.2 3.7 3.5-.4 2.7-2.4 5.2-4.8 5.6-2.5.5-3.8-2.1-4.3-4.6z" class="modul_02_04_kriseplan_introduktion_svg__st13"/><path d="M1651.9 1728.3c-.2.8-.4 1.8-.8 2.7-6.1 14.7-8.3 30.5-13 45.6-.5 1.6-.8 3.2-1.6 4.6-.9 1.6-2.5 2.1-4.3 1.5-1.8-.6-2.5-2-2.4-3.8.1-1 .2-2 .4-2.9 4.5-15.5 9.1-31 13.6-46.5.4-1.3.8-2.6 1.4-3.7.8-1.4 2.1-3.1 3.8-2.6 2.3.7 2.8 2.9 2.9 5.1zM1591.6 1726.4c3.6 3.9 5.1 7.8 6.2 11.9 3 10.8 6.1 21.5 9.2 32.3.8 2.7 1.3 5.5-2.2 6.4-2.7.7-4.2-1-4.9-3.6-3.4-13.1-6.9-26.2-10.2-39.3-.6-2.1-.5-4.5 1.9-7.7z" class="modul_02_04_kriseplan_introduktion_svg__st12"/><path d="M1697.5 1777.8c.1 2.3-1.4 3.8-3.1 4.7-7.7 4.4-15.5 8.6-23.3 12.8-2.3 1.3-4.2.9-5.7-1.6-1.8-2.8-.5-4.4 1.8-5.5 8.5-4.3 17.1-8.5 25.6-12.7 2.4-1.1 3.7.4 4.7 2.3z" class="modul_02_04_kriseplan_introduktion_svg__st13"/><path d="M1687.5 1836.6c-3.2.1-5.4.1-5.7-2.6-.3-2.1.4-4.1 2.5-4.8 7.7-2.7 15.5-5.5 23.6-6.7 2.4-.4 4.9-.2 5.7 2.6.9 3-1.5 3.7-3.9 4.4-7.8 2.3-15.5 4.9-22.2 7.1z" class="modul_02_04_kriseplan_introduktion_svg__st12"/><path d="M1573.3 1777c3.4.1 10.6 6.8 10.4 9.8-.1 1.6-1.3 2.1-2.7 2.4-4.2.7-10.8-5.5-10.4-9.8.1-1.7 1.4-2.1 2.7-2.4z" class="modul_02_04_kriseplan_introduktion_svg__st13"/><path d="M1659.6 1839.9c.1 5.1-1.2 9.9-3.3 14.5-2.8 6-5.8 6.6-10.6 2-3.3-3.2-6.2-6.8-8.3-11.1-3-6.1-5-7.1-11-4.1-11 5.6-22.2 3.5-33.1 1.2-11.8-2.4-14-8.8-9.2-19.9 2.5-5.8 6.4-10 11.5-13.4 3.3-2.2 6.8-4.2 10.1-6.4 8.7-5.7 17.6-5.6 26.4-.7 7 3.9 13.4 8.7 19.2 14.1 6.7 6.4 7.7 15.1 8.3 23.8z" class="modul_02_04_kriseplan_introduktion_svg__st7"/></svg>