<svg viewBox="0 0 3327.3 2343.5" xmlns="http://www.w3.org/2000/svg"><path fill="#0C0C0C" d="M1137.7 1045.4c15.8 1.8 27.1 10.6 37.4 20.5 7 6.7 9.1 15.9 10 25.4 1.6 17.7-5.4 32.5-15.3 46.2-14.5 20.2-33.8 34.3-56.6 44-11.9 5.1-23.6 10.6-36.3 13.2-14.7 2.9-29.4 4.5-44.2-.1-14.5-4.5-19.7-8.6-26-21.7-22.8 12.2-45.3 25-68.5 36.3-14.6 7.1-28.9 14.8-43.8 21.3-6.2 2.7-12.5 4.5-18.8 6.5-19.7 6-39.2 12.5-59.4 16.3-15.2 2.9-30.8 4.2-46.1 6.8-28.9 5-58 4.4-87.1 3.8-15.5-.3-30.7-4.6-45.7-8.7-6.1-1.7-12-4-18.2-4.9-7.4-1.1-12.5-5.2-17.8-10-10.4-9.2-18.2-20-23.4-32.9-2.5-6.1-5.9-11.9-8.6-17.9-4-8.8-6.9-18-6.3-28.4-9.6 0-18.4 2.9-27.1 5.1-15.6 3.9-31.2 5.3-47.2 5.3-17.2 0-34.5 1.3-51.7 1.4-22.4.1-45.2.5-67-5.4-20-5.5-39.9-11.7-59.4-19.3-22.9-8.9-45.5-18.6-66.5-31.3-22.6-13.8-42.9-30.6-61.8-49.4-13-12.9-24.7-26.7-35.3-41.5-11-15.4-19.6-32-26.1-50-4.9-13.6-7.8-27.2-9.9-41.3-2.2-15.6-.2-30.8 2.7-46 5-25.9 17.1-48.4 31.8-69.9 1.5-2.2 2.7-4.6 4.1-6.9 6.6-10.3 6.6-10.1-4.4-14.3-13.9-5.4-27-12.1-39.5-20.4-11-7.4-22.1-14.7-32.1-23.4-3-2.6-6.3-5.1-8.5-8.3-10.5-15.3-22.5-29.6-31-46.2C22 676.1 14 651.6 7.3 626.6 1.8 606.2.6 585.4 0 564.7c-.4-13.1 2.2-26.3 3.7-39.4 1.7-15.3 6.9-29.8 13-43.6 8.2-18.5 18.4-35.9 31.3-51.8 12-14.7 24.6-28.7 39.2-40.7 12-9.9 24.6-19 38.3-26.6 22.7-12.6 46.6-22.1 71-30.5 17.6-6.1 36.1-8.9 54.4-11.9 4.1-.7 8.5.3 12.7.6.5-1.2 1-2 .4-3.1-15.1-26.3-15.2-54.4-10.1-83.1 4.8-26.4 14.9-50.5 31.1-72.2 6.5-8.7 12.8-17.7 19.3-26.5 14.6-19.7 33.8-34.2 53.2-48.9 18-13.7 38.2-23.4 58.1-33.8 23.9-12.4 49.1-21.2 74.5-30 16.7-5.8 34.4-6.8 51.2-12.1 13-4.1 26.8-4 39.9-7.6 12.9-3.6 26.5-1.1 39.7-2.4 27.5-2.6 54.9.3 82.2 2.3 16 1.2 32.2 3.3 48.1 6.9 6.4 1.4 13 2.2 19.6 2.7 10 .7 19.4 3.4 28.6 7.5 7.6 3.4 16.2 3.5 23.9 6.3 24.6 8.6 49.5 16.5 72.8 28.5 25.7 13.2 50.7 27 72.6 46.2 11 9.7 21.1 20.3 30.5 31.3 17.2 20 34.3 40.3 48.1 63 5.7 9.4 10.9 19.1 14.7 29.3 1.9 5.2 4.4 5.5 8.9 4.5 27.4-6.1 54.6-3.4 82 .6 13.8 2 27.2 5.4 40.7 8.2 13.3 2.7 25.6 9 38.2 14.2 26.6 11 49.4 27.8 70.7 46.8 17.2 15.3 32 32.6 46.8 50.2 18.5 21.8 32.3 46.3 43.3 72.2 13.2 31.2 25.2 63.2 29.8 97.1 2.6 18.7 4 37.5 1.3 56.5-1.5 10.4-1 21.2-1.7 31.8-1 15.8-6.1 30.5-10 45.5-7.2 27.7-19.1 53.4-31.5 79.2-10.7 22.1-26.3 40.2-40.8 59.1-12.9 16.8-29.5 30.5-45.4 44.7-20.6 18.4-44.7 31.5-69.3 43.8-19.9 9.9-40.3 18.7-60.4 28.3-9 4.3-18.8 6.3-28.2 9.4-4.5 1.5-4.9 3.4-2.9 7.2 6.3 12 7.4 25.3 9.2 38.4 1.4 10.2 2.8 20.5 1.9 30.8-.9 16.8-.6 34.1-6.9 51.8zM791.1 289.8l-4.8-.3c9.1-14.9 19.9-28.8 27.5-44.8-2.7-1.7-5-.9-7.2-.6-13.2 1.7-26.5 2.5-39.6 4.2-11.9 1.5-23.9 1.8-35.8 2.6-32.8 2.3-65.1.1-94.9-15.9-4.1-2.2-5.5-.8-7.9 2.3-6.2 7.9-10.6 16.9-15.8 25.4-12 19.6-24 39.1-36.2 58.6-4.2 6.8-8.6 13.4-13.4 19.8-2 2.7-4.9 6.3-9.1 3.4-4.9-3.3-.7-6.7 1-9.3 10.2-15.6 20.7-30.9 31.2-46.4 12.4-18.4 24.8-36.9 37.4-55.2 2.4-3.5 3.2-5.8-.7-9.1-5.7-4.8-7.4-11.6-7.4-18.9 0-2.9.8-5.9-1.1-8.6-1 .1-2 .1-3 .3-19.6 3.3-39 8.4-59 9.7-4.5.3-7.1 3.1-9.3 6.6l-20.1 30.9c-13.1 20-25.6 40.4-39.7 59.8-9.6 13.2-19.2 26.3-28.5 39.7-9.1 13.1-17.8 26.4-26.9 39.6-12.4 18-25.3 35.8-37.5 53.9-11.9 17.6-23.1 35.6-35.1 53.2-16.7 24.3-33.6 48.6-48.2 74.3-2.5 4.5-5.9 8-10.9 9.8-3.6 1.3-5.9-.5-5.9-4.3 0-2.5 1.5-4.3 2.6-6.4 5.4-10.3 13-19.2 19.6-28.7 18.2-26.2 37.4-51.8 55.7-77.9 22-31.3 43.5-63 65.3-94.4 14.8-21.3 30.1-42.2 44.6-63.7 18.2-27 35.3-54.8 55.6-80.3 1.6-2.1 2.8-4.5 4.1-6.8 1.3-2.4.2-4.2-2.2-3.9-19.6 2.1-39.3 1-58.9 1.3-3.4 0-5.8 1.4-7.3 4.2-5.6 10.7-14 19.4-20.7 29.3-21.1 30.7-40.6 62.5-62.2 92.9-13.8 19.5-26.6 39.7-40.2 59.4-12.3 17.8-25.1 35.2-37.5 52.9-6.7 9.5-12.6 19.6-19.5 28.9-5.1 6.9-10.1 9-11.8 6.1-3-5 1-8.8 3.5-12.4 21-30.8 43.8-60.3 65.7-90.3 12.4-16.9 22.9-35.1 35.5-51.8 27.1-36.2 50.7-74.8 76.9-111.5 1.6-2.3 3.3-4.7 3.5-8.4-18.9-.4-37-2-54.9-5.7-4.5-.9-6.6 1.7-9 4.7-5.7 7.3-11.6 14.5-17.5 21.8-2.3.9-3.7 2.5-4.1 5-.7 1-1.3 2-2 3-1.6-.9-1.8-2.5-1.9-4.1 6.4-11.5 15.4-21.2 22.6-32.6-16.8-5.7-33.3-9.2-47.5-18.2-3.4-2.2-5.1-.5-7.4 2.1-9.6 10.8-16.2 23.6-24.9 35-16.2 21.1-30.6 43.5-45.4 65.6-4.7 7.1-4 12.5-1 19.2 3.3 7.6 8.3 14.1 13.1 20.3-4.2 7.9-9.9 9-17.6 6.8-5.4-1.5-11.3-1.2-16.9 0-5 1-10.4 1.3-14 6.4-14.7 20.9-31.1 40.6-44.4 62.6-19.6 32.5-41.9 63.1-62.7 94.8-16.6 25.3-34.7 49.5-50 75.6-5 8.5-9.6 17.6-18.4 23.2-1.8 1.1-3.6 2.2-5.4.6-1.5-1.4-2.5-3.5-1.6-5.5 1.6-3.3 3.4-6.6 5.7-9.4 12-14.7 21.5-31.2 33-46.3 13.3-17.4 25.2-35.9 37.8-53.8 9.3-13.3 19.5-26.1 28-40 14.7-24.2 31.5-46.9 47.6-70.1 7.5-10.8 14.7-21.9 22.9-34.2-8.8 1.8-16.1 2.8-22.9 4.9-19 6-38.2 11.8-55.8 21-23.7 12.5-47 25.1-65.8 45.5-16.9 18.4-32.8 37.2-45.9 58.5-6.4 10.5-12 21.5-16.3 32.9-10.1 27.5-10 56.5-7.4 85.4 1.7 19.4 5.3 38.6 10.3 57.6 6.3 23.7 15.5 46 28.1 66.8 6.9 11.3 14 22.8 23.5 32.1 11.6 11.4 24.9 21 38.6 29.7 16 10.1 33.1 18.3 51.4 23.6 7.6 2.2 8.8 6.3 3.7 12.4-16.6 19.8-28.1 42.7-38.5 66.1-6.2 13.9-9.6 28.9-9.7 44.2-.1 15.2 2.5 30.1 7 45 4.8 15.7 10.9 31 19.7 44.3 19.2 29.2 41.5 55.7 69.9 77 19.2 14.4 38.7 27.9 59.9 38.9 27.3 14.1 56.5 22.7 86.1 30.2 17.1 4.3 34.8 5.2 52.4 6 10.6.5 21.3.4 31.9 1.3 20.3 1.8 40.6.4 60.7-1.3 19.8-1.6 39.2-6.6 58.5-11 8.4-1.9 14.6 5.1 11.6 12.4-2.3 5.5-1.9 10.8 0 16.5 4.2 12.7 10 24.6 16 36.5 6.6 13.1 16.3 22.6 30 27.8 23.8 9.1 48.8 12.9 74 14.6 19.8 1.3 39.7-.1 59.6-2.7 25.4-3.2 50.6-6.8 75.4-13.6 13.1-3.6 25.6-9.2 39-11.9 8.5-1.7 16.3-5 24.2-8.4 16.2-6.9 31.4-15.7 46.8-24.1 19.5-10.7 38.3-22.5 56.5-35.3 4.2-3 6.7-6.4 6.9-12.2.7-17.6 7.6-33.4 16.9-48.2 8.5-13.6 20.7-23.4 34-31.7 17.9-11.2 37.4-18.5 58.4-21.7 8.4-1.3 8.5-1.5 9.5-10.4-27 6-54.4 8.2-81.9 8.9-28.6.7-57.2 1.4-85.8-1-19.2-1.7-38.4-2.9-56.6-10.2-15.3-6.1-18.5-20.5-6.9-31.8 6-5.8 13.6-8.2 21.2-10.6 25.9-8.3 52.8-10.3 79.6-12.9 14.1-1.4 28.6-.9 42.8 0 12.5.7 25.3.9 37.4 5.1-1.8 6.6-7.2 3.8-10.8 3.5-23.8-2.4-47.7-2.4-71.5-.6-25.1 1.9-50.2 5.1-74.6 11.7-8.2 2.2-14.9 7-19.8 14-4.1 5.9-2.5 10.7 3.9 13.6 1.8.8 3.7 1.3 5.6 1.9 28.5 9 58.1 10.4 87.6 11.5 18.6.7 37.2-.1 55.7-1.3 22.2-1.4 44.4-2.4 66.1-7.8 14.2-3.5 14.3-3.2 14.3-17.4 0-1.3-.2-2.7 0-4 .8-5.3-1.6-7.8-6.7-8.9-12.3-2.7-24.5-5.6-36.8-8.4-1.6-.4-3.7 0-4-2-.4-2.6 3-2.1 3.8-3.9 15.2-.3 28.9 6.5 43.7 9.9 1.4-10 1.3-19.5.3-28.9-1.7-15.1-3.5-30.2-12.6-43.5-6-8.8-3.2-14.4 7.3-15.4 10.4-1 19.8-5.3 29.3-8.6 15-5.2 29.3-12.4 44.1-18.1 26.9-10.3 51.6-24.5 74.3-42.1 12.6-9.8 24.5-20.4 36.1-31.3 10.8-10.3 21.4-20.9 30.1-33.2 12-16.8 22.5-34.5 32.9-52.2 2.9-4.9 5.7-9.7 7.7-15 6.8-18 13.1-36.1 18.1-54.7 14.5-53.1 17.2-106.2 4.3-160.2-9.6-40.2-26.6-77-47.3-112.2-12.1-20.6-27.8-38.7-44.8-55.6-.2-.6-.6-.9-1.1-1.1-12-11-23.8-22.2-36.9-32-25.9-19.2-55.5-31-85.7-41.2-6.4-2.1-9.3-1-13.3 4.8-3.5 5.2-6.7 10.7-10.3 15.8-15.1 21.1-30.5 41.9-45.3 63.2-11.4 16.3-21.5 33.5-33 49.7-8.6 12.2-17.4 24.4-25.3 37.1-13.8 22.3-29.3 43.5-42.3 66.4-1.6 2.9-3.6 5.6-6.9 7-1.6.7-3.2 1.2-4.6-.1-1.3-1.1-1.9-2.7-1.4-4.5 1.4-4.5 3.9-8.4 6.7-12.2 7.3-9.9 15.4-19.3 21.5-30 7.7-13.6 17.4-25.9 26.2-38.7 11.8-17.3 25-33.7 36.4-51.2 21.2-32.6 44.6-63.7 67.6-95 3.3-4.4 5.9-9.4 9.1-14.6-9-1.7-17-3.5-25-4.7-13.4-2.1-26.8-4.5-40.6-4-4.6.2-7.4 1.8-9.6 5.5-15 24.8-31.8 48.3-48.1 72.2-15.7 23.1-31.3 46.2-46.9 69.3-1.5 2.2-2.8 4.5-5.3 5.7-1.9 1-3.7 1.8-5.4 0-1.7-1.8-2.7-3.8-.9-6.2 1.8-2.4 3.4-4.9 5.2-7.3 16.7-22.3 33.1-44.8 50.1-66.9 8.3-10.8 15.4-22.4 23.6-33.3 8.7-11.6 16.3-23.9 25-38-11.7 3.1-21.7 3.7-31 7.5-6.9 2.8-8.2 2.1-10.9-4.9-1.3-3.4-2.7-6.7-3.7-10.3-1.7-6.2-4.8-10.9-11.8-13.4-10-3.6-19.1-9.7-26.6-17.2-4.5-4.4-8.2-4.2-13.1-2.1-10.7 4.6-21 10.1-32.2 13.3-24.2 7-48.9 12.3-73.3 18.4-20 5-40.5 7.7-60.8 10.6-5.3.8-8.3 3-10.9 7.2-9.1 14.7-18.9 28.5-29 42.2zm-310.9-90.1c16.8 0 31.8.7 46.7-.2 21.3-1.3 21.3-1.8 33.7-19.3 1.7-2.4 3.1-5.1 4.8-7.5 1.3-1.7 2.2-4.1 5.8-3.9-2.3 6.8-5.9 12.6-9.7 18.3-1.2 1.9-3.4 3.8-2.1 6.2 1.3 2.5 4.1 1.9 6.3 1.5 9.2-1.6 18.5-2.2 27.7-3.6 10.8-1.6 21.7-3.4 31.3-9.4 1.9-1.2 4.4-2.2 6.5-.3 2.2 2.1.8 4.4-.1 6.4-1.2 2.7-2.7 5.3-3.9 8.1-2.8 6.4-3.1 12.9-.4 19.4 2.4 5.6 4.1 5.7 8 1 7.2-8.8 12.3-18.9 18.7-28.2 13.2-19.2 25.9-38.7 38.8-58 1.6-2.4 2.5-5.6 6.6-5.8 2 4-.8 6.8-2.7 9.7-17.6 26.6-35.2 53.2-52.7 79.9-8.3 12.7-8.3 12.7 5.8 18.1 15.4 5.8 31.2 8.6 47.7 9.5 19.3 1.1 38.6 1.9 57.7-.3 17.2-2 34.3-3.9 51.5-5 10-.6 17.7-3.9 23.7-13.2 12.2-19 25.9-37.1 39-55.5 1.4-2 1.8-5.2 7.2-4.6-12.6 24.3-31.4 44-43.1 67.8 2.7 2.1 5.2 1.3 7.3.9 10.2-1.6 20.3-3.5 30.4-5.3 44.4-7.9 87.2-20.9 128-40.1 6.2-2.9 8.1-2.4 12.6 3.1 6.4 7.7 14.6 12.9 24.9 18.6-2.3-10.2-6.8-17.1-11.2-23.9-14.7-23.1-33.6-42.8-52.3-62.5-18.5-19.4-40.3-34.5-63.6-47.4-14.8-8.2-30.5-14.7-46.1-21.3-17.3-7.6-35-13.1-53-17.7-15.6-4-31.4-7.5-47.1-11.4-5.8-1.4-11.5-3-17.4-4-13.5-2.3-27-3.1-40.5-4.5-14.9-1.6-29.8-2.7-44.7-3.2-25.9-.8-51.7-.1-77.4 3.5-20.1 2.8-39.8 7-59.6 11.2-14.9 3.2-29.2 8.7-43.6 13.6-24.8 8.3-50.1 14.8-73.2 28.5-22.9 13.6-45.2 27.9-65.5 45.1-3.6 3-7 6.5-8.6 11 6.9 3.2 14.4-1.2 20.7 3.4-15.8 18.5-18.8 30.6-9.8 39.6 9.7-10 14.7-24 27.1-33.2-.4 9-.4 9-3.4 13.4-4.6 6.5-9.3 13-13.8 19.6-3.9 5.9-3.9 6.1 2.2 9.7 10.4 6.2 22.1 9 33.5 12.3 13.9 4 14.1 3.8 21.7-7.8 5.3-8.1 11.2-15.8 17.1-23.4 1.3-1.7 2.2-4.2 6.4-3-4.4 14.8-18 24.2-22.8 39 18.9 4.3 37.2 5.7 55.9 4.7 3.8-.2 5.7-2.6 7.8-5.3 9.4-12.5 18.8-24.9 28.5-37.2 11.7-14.9 23.6-29.5 35.4-44.3 1.5-1.9 2.4-6.1 5.4-3.7 2.7 2.2-.8 4.6-2.3 6.6-14.3 19.2-28.8 38.2-43.2 57.4-6.2 8-12.6 16.1-18.6 26.9zm695.5 891.2c0-13.2-8.7-24.5-26.9-29.1-3.2-.8-6.4-1.9-9.5-2.9-19.7-6.1-38.9-2.8-57.2 4.9-11.5 4.8-22.3 11.6-33 18.3-9.4 5.9-16.5 14.2-21.7 24.2-2.1 4.2-1.9 9-4.5 13-3.9 5.9-5.3 12.9-6.7 19.6-2.2 11-1.2 21.6 6.1 31.1 9.3 12.1 22.3 16.8 36.5 16.8 23.2 0 45.1-6.2 65.1-18.5 14.3-8.8 26.1-20.2 37.1-32.8 9.8-11.3 15-23.9 14.7-44.6zM264.1 279.5c3.7-.3 4.3-2.6 5.3-4.1 7.8-11.2 15.4-22.5 23.2-33.6 13.7-19.6 27.4-39.2 41.4-58.6 3.2-4.5 3.7-7.5-.4-11.9-7-7.5-8.5-16.2-3.2-25.7 2-3.6 3.5-7.5 5.2-11.2-9.4-4.1-15.4-1.5-21.1 6-19.9 26.1-35.9 53.9-45.4 85.6-5.2 17.6-6.1 35-5 53.5z"/><path fill="#121010" d="M2094.2 2130.6c9.1-10 15.8-21.8 22.6-33.4 6.4-10.9 12.3-22 18.4-33 2.9-5.2 6.8-6.6 12.9-6.5 20.1.3 37 9.1 54.4 17.4 31.4 15.1 46.2 43.1 57.7 73.2 3.6 9.3 6.2 20.1 3.7 30.9-.6 2.6-1.2 5.1-2.8 7.3-24.3 31.9-51.3 60.9-84 84.5-17.2 12.4-35 24-53.9 33.3-13.1 6.4-26.8 11.6-40.6 16.2-14.5 4.8-28.8 10.2-43.6 14-16.7 4.2-33.7 7.4-50.8 8.9-13.9 1.2-26.3-2.8-34.3-15.7-1-1.7-2.1-2.9-2.1-5.2 0-25.4-4.2-50.1-9.7-74.9-4.7-21.5-11.8-42.2-18.8-62.9-9.1-27.1-20.4-53.4-36.6-77.2-6.1-9-10.4-19.3-18.4-27.9-11.2 10.2-22.1 20.4-34.3 29-14.1 10-28.6 19.2-45.5 24.3-26.1 7.9-51.7 6.7-77.2-2.5-10.6-3.8-20.9-8.3-31.4-14-1.6 7.3-.1 13.4 2.8 18.9 7.6 14.4 13.5 29.6 20.7 44.2 4.9 9.9 4.8 21.5-1.3 31.7-8.5 14-21.8 22.2-36.3 28.3-4.7 2-10.4 2.2-15.7 2.2-19.9.2-39.9 1-59.6-4.1-21-5.5-41.2-12.8-59.3-25.1-15.4-10.4-25.7-24.6-31.4-42.4-3.3-10.2-2.5-20.1-1.5-30.3 1.4-14.9 3.6-29.7 6.5-44.3 4.5-22.4 13.6-43 22.4-63.8 5.7-13.6 14.7-25.1 22.4-38.5-14-4.7-26-11.6-38.1-18.3-3.4-1.9-6-1.7-9.2.3-6.2 3.9-12.4 7.7-18.8 11.2-12.3 6.8-24.8 9.8-38.9 4.3-9-3.5-17.7-7.3-25.8-12.5-3.7-2.4-7.1-4.5-12-2.7-4.3 1.5-8.9 0-12.4-2.5-8.9-6.4-17.5-13.3-22-23.9-2.9-7-2.1-8.7 4.5-12.1 4.3-2.2 11.1-1.8 12.4-7 1.1-4.4-4.7-7.4-6.8-11.5-3.1-6.2-6.8-12.2-8.3-19.1-.9-4.1-.7-7.2 4.7-7.7 3.7-.4 6.7-2.7 9.6-6.2-4.9-4.3-9.9-8.3-14.6-12.8-14.4-13.4-25.9-29.3-38.6-44.2-16.9-19.8-29.9-42.2-42.6-64.9-12.8-22.9-25-46.2-34.9-70.5-8.8-21.4-18.3-42.8-23.5-65.5-4.3-18.7-7-37.8-10.5-56.7-4.2-22.6-4.1-45.6-5.4-68.4-1.1-19.5 1.2-39.1 1.1-58.7-.2-17.5 4.2-34.2 6.7-51.2 2.2-14.8 4.2-29.6 7.9-44.1 7.4-28.6 18.3-55.9 28.2-83.6 15.6-43.5 38.1-83.3 63.4-121.6 10-15.1 20.6-30.1 32.6-44 7.1-8.3 13.6-17.1 20.4-25.7 16.8-21.2 35.6-40.4 55.2-58.9 26.9-25.2 54.9-49.2 86-69.1 26-16.6 51.8-33.5 79.9-46.7 19-8.9 38.7-15.5 58.3-22.3 12.9-4.5 26-8.4 39.3-11.2 14.9-3.2 29.7-7.3 45.1-7.9 8.6-.3 16.4-4.2 25.2-4.8 44.5-3.2 88.8-3.9 133.2 1.1 12.9 1.5 25.6 3.8 38.4 6.1 23.5 4.1 46.9 8.9 69.7 16 7.3 2.3 14.4 5.1 21.5 7.8 32 12.1 63 26.1 93.3 42 19.7 10.3 39.4 20.5 58.4 32.1 13.1 8 25 17.6 37.6 26.2 20.9 14.1 41.3 29 60 46 17.8 16 35.4 32.4 51.1 50.4 16.3 18.8 33.7 37 46.3 58.4 15.5 26.2 31.9 51.8 45.2 79.4 16.8 34.9 28.3 71.5 39.8 108.1 5.3 17 7.6 35 9.7 52.8 1.3 10.9 3.6 21.6 4.4 32.5 1.7 23.5 3.7 46.7.6 70.4-1.8 14.1-2.9 28.3-5.1 42.4-3.8 23.9-9.1 47.5-15 71.1-5.7 22.6-15.2 43.9-24 65.3-7.2 17.4-14.7 34.9-24.6 51.1-5.5 9-9.7 18.9-15.3 27.9-5.9 9.6-12.1 19.2-19.4 27.6-11.6 13.3-21.1 28-32.2 41.6-17.8 21.7-37.9 40.9-58.7 59.6-4.7 4.2-9.7 8.2-14.2 12.6-20.6 20.1-44.7 35.7-68.4 51.5-16.7 11.2-33.8 22.1-51.4 32.1-13.8 7.8-27.4 16-41.9 22.5-3.5 1.6-4.3 3.2-3.2 6.8 7.6 24.3 4.6 49.1 3 73.8-1.2 18.1-8.2 34.8-11.8 52.3-.6 3.1-1.5 6.2-2.3 9.3.5.4 1.2.8 1.8 1.1zm-464.5-50.8c2.1 3.6 5.4 5.5 9.9 6-2.6-2.8-5.2-5.5-7.8-8.3 0-2 1.1-3.4 3-2.8 3.8 1.2 7.3 2.9 10.6 5.4 9.2 7.1 18.2 14.6 27.8 21 25.2 16.6 51.4 30.6 83.2 27.6 1.3-.1 2.7.2 4 .1 14.3-1 28.4-3.1 40.9-10.6 20.7-12.3 38.5-28.3 55-45.7.9-1 1.9-1.9 2.8-2.8 1.8-1.8 1.3-3.4-.1-5.2-4-5.1-8.3-9.1-15.8-8.5-6.6.5-13.2-.3-19.9-1.1-30-3.4-59.8-8.1-89.2-15.3-20.3-5-40.4-10.8-60.2-17.7-5-1.8-9.8-4.1-14.6-6.3-3.2-1.4-3.1-4.5-1.9-6.8 1.1-2.2 3.5-.9 5.3 0 8 4.3 16.7 6.4 25.2 9.1 8.6 2.7 17.4 4.2 26 6.5 18.5 5 37 10.5 55.9 14 8.4 1.6 17 1.1 25.5 2.7 15.7 2.8 31.6 6.3 47.5 4.7 11.1-1.1 18.5 2.9 24.6 11.2 1.8 2.4 3.5 4.9 5 7.4 4.9 7.9 9.5 16 14.7 23.6 11.2 16.2 20.9 33.3 29.3 50.9 15 31.5 26.8 64.4 34 98.7 5.3 25 10.3 50.2 10.3 75.9 0 20.4 9.3 22.5 22.5 22.9 1.3 0 2.7.2 4 0 13.1-2 26.4-3.2 39.3-6.2 24.9-5.8 48.9-14.4 72.5-24.4 33.5-14.2 63-34.4 91-56.9 19.7-15.9 36.2-35.2 53.1-54 10.7-12 13.5-25.5 7.9-40.6-.8-2.2-1.6-4.4-2.5-6.5-5.9-15-15.1-28.2-25.3-40.4-17.3-20.5-39.9-32.6-65.9-38.4-10.4-2.3-17.1 1.2-21.8 10.5-.9 1.8-1.5 3.7-2.3 5.5-9.6 22.5-22.6 42.8-38.4 61.4-3.6 4.3-7.9 8.1-12.2 11.8-2.5 2.1-5.6 2.1-8.4.1-2.6-1.8-2-4.3-1.5-7.1 1.1-6.3 4.2-11.9 6-17.9 8.9-30 13.7-60.9 18-91.8 3.1-21.8-.3-43.1-13-62.1-2.6-3.9-5.5-7.5-8.8-10.8-1-1-1.6-2.3-.7-3.5.9-1.1 2.4-1.2 3.7-.7 4.1 1.7 7.4 4.5 10.4 7.6 6.3 6.4 6.2 6.4 14.7 3 14.8-6 28.3-14.5 42.6-21.5 19.3-9.6 36.5-22.8 54.7-34.4 31.2-19.9 59.5-43.7 86.9-68.4 28.7-25.8 55.1-53.8 76.9-85.9 14.2-20.9 28.3-41.9 39.4-64.7 9.5-19.3 20-38.2 28.5-58 9.4-22 16-45 21.7-68.2 5.4-21.9 7.8-44.4 11.6-66.6 5.3-31.3 6-62.8 2.1-94.3-1.9-15.5-5.3-30.8-7-46.2-1.6-14.9-4.5-29.6-8.3-43.9-11.2-42.2-28.5-82.3-48.3-121-22.1-43.3-50.2-82.8-82.9-119-21-23.3-43.2-45.2-67.8-64.5-25.4-19.9-52.9-36.8-79.8-54.6-15-9.9-31.7-16.8-46.8-26.7-12.3-8-25.4-14.4-38.8-20.2-14.3-6.3-28.8-11.9-43-18.3-26.2-11.7-53.5-20-81.5-25.5-22.7-4.5-45.6-8.6-68.9-10.4-28.6-2.3-57.1-3.3-85.7-2.1-24 1-47.5 5.8-71.1 9.4-16.4 2.5-32.8 5.3-48.8 9.5-20.2 5.3-40.1 11.7-59.5 19.6-18.1 7.3-35.7 16.2-52.9 25.4-38.5 20.6-75.5 43.4-108.8 71.8-32.1 27.4-61.3 57.8-88.6 90-13.1 15.5-24.5 32.2-37.1 48.1-8.1 10.2-14 21.8-21.3 32.4-20.6 30-35.4 62.7-49.5 96-6.6 15.6-11.3 31.9-16.8 47.9-5.8 16.6-11.4 33.5-13.7 50.9-2.3 17.4-5.7 34.6-8.2 52-2.4 16.8-3.3 33.6-4.4 50.4-1.2 19.9-1.1 39.8 1.1 59.8 2.3 20.5 3.7 41 6.9 61.4 4.1 25.9 11.8 51.2 20.7 75.6 12.8 35.2 29.2 69.1 48.9 101.1 17.9 29.1 37.5 57 59.6 83.2 9 10.7 18.6 20.8 30.4 28.6 3.9 2.6 6.1 2.3 9.2-1.2 3.2-3.6 3.8-6.7 2-11.3-13.2-35.7-17.2-72.2-8.1-109.5.8-3.2.3-5.4-1.9-8.1-23.2-28-38.5-60.4-51.9-93.8-10.6-26.3-17.9-53.6-21.9-81.7-1.9-13.1-3.5-26.4-3.8-39.6-.3-19.3.2-38.6 2.1-57.8 2-19.8 3.4-39.9 8.3-59.2 8.3-32.5 22-63.3 33.7-94.6 1.5-4 4.4-6.3 9-6.6 1.3 3.9-.6 6.8-2 9.7-2.5 5.1-5.3 10-7.4 15.2-14 34.9-25.2 70.5-30.1 107.9-4.6 35.7-7.9 71.4-3.6 107.3 2.7 22.7 5.9 45.4 13.2 67.3 3.3 9.9 9.1 18.5 12.2 28.3 6.5 20 16 38.4 26.8 56.4 7.4 12.2 14.7 24.3 25.1 34.4 4.6 4.5 6.8 10.5 4.1 17.1-2.2 5.3-2.8 10.9-4.3 16.4-4.5 17.1-2.8 34.2-.4 51.2 1.8 12.8 5.6 25.2 11 37.1 1.4 3.2 2.8 6.9-.1 10.4-9.5 11.4-16.7 25.2-32.2 29.7-.1 2.6.5 4.3 1.4 6.2 2.9 6.6 8.5 11.1 12.8 16.5 5.8 7.2 5.5 10.2-2.3 15-3.9 2.4-8.3 4.1-12.4 6.3-1.8.9-3.4 1.9-3 4.5 1.2 8.1 16.5 20.2 24.7 18.1 6.1-1.5 9.8.1 14.1 4.1 15.6 14.3 39 17.5 57.9 8.4 1.5-.7 3-1.4 4.6-2.1 22.1-9.3 38.6-25.6 53.3-43.9 21.4-26.8 30.5-58.7 35.3-91.8 4.7-32.5 5.1-65.2 2.3-97.9-1.9-21.5-3.8-43-7.3-64.3-2.8-17.3-5.1-34.8-10.7-51.6-6.3-19-9.9-38.7-12.2-58.4-3.2-26.3-4.8-52.9-2.8-79.4 1.3-16.9.4-33.9 4.3-50.5 2.3-9.7 2.3-19.9 6.5-29.1 4.1-8.8 7.2-17.8 10.5-26.9 4.1-11.2 7.5-22.9 14.3-32.8 6.7-9.9 13.3-19.8 19.4-30.1 1-1.8 2.3-3.2 4.3-4 1.7-.6 3.4-.9 4.6.5 1.5 1.7-.2 2.9-1.1 4.2-3.7 5.5-9.2 9.4-12.5 15.4-12.4 22.5-23.3 45.5-29.5 70.6-9.3 37.6-13.5 75.8-12.3 114.5.5 17.7 2 35.4 5.4 52.5 5 25.7 10.1 51.4 16.6 76.9 8.3 32.6 10.9 66.1 14.8 99.4 5.6 48.2-2.8 94.6-17 140.3-6 19.4-18 35.4-29.5 51.7-5.8 8.2-13.2 14.7-20.4 21.9 17.4 12.2 35.8 21 55.6 26.9 4.4 1.3 5.9 3.7 5.4 6.8-.5 3.3-3.3 5.7-7.4 4.5-1.3-.4-2.7-.2-3.9-.6-5.6-2-9.3 0-12.7 4.7-9.9 13.4-18.3 27.6-25.1 42.9-9.4 21.1-14.4 43.5-19.4 65.8-3.5 15.9-5.3 32.1-2 48.4 2.5 12.3 7.8 23.4 16.8 32.2 12.5 12.2 27.5 20.8 43.4 27.9 18.2 8.1 37.5 10.9 57.2 12.1 17.2 1.1 33.1-3.1 48-10.7 13.7-7.1 22.7-16.7 17-38.9-3-11.8-9.6-21.9-15.4-32.2-6.3-11.3-10.2-23-10.5-35.9-.1-5.6-2.3-9.1-7.6-11.4-4.5-2-8.8-4.7-12.9-7.5-6.3-4.4-12.3-9-18.4-13.7-1.8-2.3-1.1-3.3 3-4.4z"/><path fill="#F1BD31" d="M3095.2 636.7c.1 33.4-8.1 64.7-22.4 95-14.5 30.7-37.9 52.1-64.9 71.1-22.7 16-48 25.4-74.5 32-17.4 4.3-35.3 7.1-53.2 4.2-21.4-3.4-41.5-10.9-60.6-21.5-22.8-12.7-39.2-31.2-52-53.5-13.4-23.3-21.8-48.2-24.4-75-.8-7.9-3.1-15.8-3-23.6.5-21.5 2.2-42.7 8-63.8 6.3-23 17.6-42.6 31.4-61.3 5-6.8 11.5-12.1 17.7-17.5 7.7-6.7 16.3-12.4 24.4-18.7 15-11.5 32.9-15.3 50.6-19.9 23.6-6.1 47.6-9 71.9-8.9 15.6 0 30.8 4 45.4 10 23 9.4 43.2 22.9 60.7 40.8 10.6 10.8 18.2 23.5 26.7 35.8 10.2 14.8 14.3 32 18.1 49.1 1.6 8.1.1 17.1.1 25.7zm-7.4-6.4c1-8-3.1-20.6-5.4-33.2-3.1-17.7-12.8-33.1-22.7-47.9-7.6-11.5-18-20.3-28.7-28.9-13.2-10.7-27.1-20.4-43.5-25.4-11.1-3.4-22.4-6.3-33.6-9-9.4-2.2-18.9-3.3-28.5-.4-5 1.5-10.5 2.2-15.7 2.1-20.3-.5-39.1 6.2-58 12.2-17.9 5.6-33.8 15.2-48.3 27.2-11 9.2-21.2 19.5-28.8 31.5-7.8 12.2-14.1 25.3-17.8 39.7-5.2 20.3-7.9 40.9-9.5 61.7-.5 6.5 2.2 12.5 2 18.7-.6 12.8 2.5 25.1 5.4 37.3 4.3 18.1 11.9 35.2 21.9 50.9 6 9.4 13.1 18.1 21.4 25.9 14.3 13.5 30.7 23.1 49 29.9 26 9.6 52.3 13.3 79.6 5.9 31.7-8.6 60.8-22.3 87.5-41.6 5.1-3.7 9.7-8.1 14.5-12 10.6-8.6 21.3-17.8 27.7-29.9 9.3-17.8 18.1-35.7 22.9-55.7 4.3-17.9 7.3-35.7 8.6-59z"/><path fill="#F1BF39" d="M1818.3 574.8c8.7.7 17.5 1 26.1 2 29 3.6 58 7.1 86.9 11.3 33.5 4.8 67.4 7.1 101 11.4 15.7 2 31.7 3.1 47.6 4.5 11.5 1 23 3 34.5 4.7 4.6.7 9.2.9 13.9 1.1 20.9.9 41.5 4.6 62.3 7.4 11.2 1.5 22.5 1.9 33.8 2.6 16.9 1 33.6 3.6 50.3 5.7 14.5 1.7 29 3.5 43.6 4.4 13.2.8 26.3 3.1 39.5 4.6 15.8 1.8 31.6 3.5 47.5 5.2 19.2 2 38.4 3.5 57.3 7.3 7.8 1.6 15.7 2.4 23.7 2.8 20.6.9 41 3.2 61 7.9 2.1.5 4.2 1 4.2 3.4 0 2.8-2.5 2.5-4.5 2.7-10.7 1.1-21.2-1.4-31.8-2.3-21.5-1.9-43-4.3-64.2-7.8-16.4-2.6-32.9-3.8-49.4-6-21.4-2.8-42.7-5.7-64.2-8.1-25.7-2.9-51.6-4.7-77.2-8.1-15.5-2.1-31-3.6-46.5-4.9-22.8-2-45.5-5.5-68.3-7.8-22.1-2.2-44.2-4.1-66.1-8.4-9.4-1.9-19.2-1.6-28.7-2.7-20.4-2.4-40.8-5.7-61.3-7.3-17.6-1.4-34.8-4.7-52.3-6.8-12.2-1.5-24.3-3.9-36.5-4.7-.3 0-.6-.2-1-.2-22.3-.3-43.9-7.2-66.2-7.5-5.3-.1-10.5-1.4-15.3-3.7 0-1 .2-1.8.3-2.7z"/><path fill="#F2C13E" d="M3072.7 1546c-3.8-5.8-4.1-12.1-5.1-18-2.1-13.4-4-26.9-6.1-40.3-1.2-7.5-2-15.2-2.8-22.7-2.2-18.5-6-36.6-8.6-55-3.8-27.3-5.5-54.8-11.1-81.9-4.5-21.8-7-43.9-10.6-65.9-2.5-15-5.3-30-7.8-45-1.9-11.4-3.2-23-5.1-34.4-4.1-24.8-5.9-50-11.1-74.7-2.7-12.9-4-26.2-5-39.5-.8-9.9-2.5-19.7-4-29.6-3.2-21-6.5-42-9.7-63-1.1-7.2-2.1-14.5-2.8-21.7-.3-2.6-.2-5.4.4-7.9.8-3.3 3.8-3.6 5.9-1 2.1 2.6 3.8 5.7 3.9 9.1 1.1 25.3 7.5 49.8 9.4 75 .8 10.9 3.5 21.6 4.4 32.4 1.3 15.5 5.5 30.7 5.4 46.4 0 8.4 2.1 16.4 3.3 24.6 5.3 36.1 8.9 72.5 15.2 108.5 4.1 23.5 8.2 47.1 10.9 70.9 1.9 17.5 5.5 34.8 8 52.2 5.8 41.7 11.3 83.4 17.1 125.1 2.3 16.7 5 33.4 7.5 50.1.1 1.8.9 3.8-1.6 6.3zM2333.5 192c8.5 3.1 12.7 9 17.8 13.2 19.9 16 40 31.7 60 47.6 12 9.5 23.8 19.2 35.4 29.1 18.5 15.6 37.8 30.2 56.8 45.3 17.1 13.6 33.8 27.8 51.3 40.9 20.3 15.1 38.6 32.6 58.3 48.4 14 11.2 27.5 23 41.9 33.7 16.5 12.3 31.7 26.3 47 40.1 1 .9 2.2 1.7 2.8 2.8.9 1.8 1.1 4.1-.2 5.7-1.6 2.1-3.5.7-5.2-.4-10.5-7-19.6-15.8-29.5-23.5-22.5-17.6-43-37.6-65.3-55.5-15-12.1-29.5-24.7-44.8-36.4-15.8-12.1-30.5-25.6-45.9-38.2-17.7-14.5-35.6-28.9-53.6-43.1-11.7-9.2-22.4-19.6-33.9-29.1-23.2-19.3-46.7-38.4-70.1-57.6-5.4-4.4-10.9-8.7-16.2-13.2-2.3-2.3-5-4.3-6.6-9.8z"/><path fill="#151414" d="M1197.7 1159.1c-.3-4.4 1.8-9.2 4-13.4 6.8-13.1 14.3-25.4 31.5-27 19.5-1.8 38.5 10.4 43.3 29 1.7 6.3 1.7 12.4-1.6 18.3-2.5 4.3-4.1 9.1-6.6 13.4-13.2 23.4-47.5 23.2-63.2 4.9-5.8-6.9-6.8-15.7-7.4-25.2zm37.4-29.4c-9.6-2.5-15.9 2.9-21.7 10-2.8 3.4-4.9 7.2-6.8 11-4.6 9.7-1.6 24.8 6.4 30 16.5 10.9 28 10.9 44.4.8 10.5-6.4 14-24.8 8.2-35.6-6.4-12.2-16.2-18-30.5-16.2z"/><path fill="#F2C13E" d="M2491.8 1060.5c1.3-4.5 4.2-7.6 7.8-10.6 25.4-21.4 51.9-41.3 77.9-61.9 20.5-16.3 40.9-32.8 62.2-48 6.4-4.6 11.7-10.9 19.2-14 1.2-.5 2.3-1.3 3.5-1.8 1.7-.7 3.3-.3 4.4 1.2 1.1 1.6.7 3.4-.5 4.6-2.6 2.5-5.4 5-8.4 7-27.1 17.9-53.3 37.1-78.7 57.2-16.9 13.4-35 25.3-50.7 40.2-5.5 5.3-12.7 8.4-18.5 13.4-4.5 3.9-9.5 7.2-13.4 11.7-1 1.1-2.4 2.5-4.8 1zm626.7-596.8c-2.9.1-3.7-1.5-2.9-3.8.8-2.6 3.1-4.3 5.1-5.9 8.6-7.3 17.4-14.3 26.2-21.5 19-15.6 38.7-30.3 58.2-45.2 19-14.5 37.5-29.7 56.2-44.6 2.9-2.3 5.8-4.5 8.8-6.6.8-.6 1.9-.4 2.7.4.8.8.7 1.8.3 2.7-1.4 3.2-4.2 5-6.8 7-15.1 11.5-30.7 22.4-44.4 35.4-17.6 16.7-37.9 30-56.5 45.6-13.2 11.1-26.8 21.8-40.1 32.8-2.1 1.9-4.1 3.5-6.8 3.7zm208.8 443.5c-.3.6-.6 1.6-.9 1.6-.9 0-2-.1-2.8-.6-9.3-5.7-18.6-11.6-27.9-17.3-24.3-14.9-48.5-29.8-73-44.5-13.6-8.2-26.3-18-40.4-25.5-.9-.5-1.7-1.1-2.4-1.8-2-2.2-4.9-4.5-2.4-7.6 2.4-3 4.9-.1 6.9 1.2 13.1 8.4 26.4 16.5 39 25.6 20.7 15.1 42.3 28.5 64.1 41.9 12.4 7.6 24 16.5 36.8 23.5 1.5.8 3 1.5 3 3.5zm-441-643.2c2.6 1.1 3 3.6 2.9 5.8-1.6 25.6 3.4 51 3.1 76.6 0 1 .1 2 0 3-.2 2.2.4 5.1-3 5.2-2.6 0-4.3-1.8-5-4.2-.5-1.9-.6-3.9-.6-5.9-.1-24.2-.1-48.3-.2-72.5-.1-3.1-.1-6 2.8-8z"/><path fill="#A9BBC0" d="M1074.4 981.8c-12.1-4.2-24.9-4.4-37.4-5.1-14.2-.8-28.6-1.3-42.8 0-26.8 2.6-53.8 4.5-79.6 12.9-7.5 2.4-15.1 4.8-21.2 10.6-11.7 11.3-8.4 25.8 6.9 31.8 18.2 7.2 37.4 8.5 56.6 10.2 28.6 2.5 57.2 1.8 85.8 1 27.5-.7 54.9-2.9 81.9-8.9-.9 8.9-1.1 9.1-9.5 10.4-21 3.2-40.5 10.5-58.4 21.7-13.3 8.3-25.5 18.1-34 31.7-9.2 14.8-16.1 30.6-16.9 48.2-.2 5.9-2.8 9.3-6.9 12.2-18.1 12.9-37 24.7-56.5 35.3-15.4 8.4-30.6 17.2-46.8 24.1-7.9 3.4-15.7 6.7-24.2 8.4-13.4 2.6-25.9 8.3-39 11.9-24.8 6.8-50 10.4-75.4 13.6-19.8 2.5-39.8 4-59.6 2.7-25.2-1.7-50.2-5.5-74-14.6-13.7-5.2-23.4-14.7-30-27.8-6-11.9-11.8-23.8-16-36.5-1.9-5.7-2.2-11 0-16.5 3-7.2-3.1-14.3-11.6-12.4-19.3 4.4-38.7 9.4-58.5 11-20.2 1.6-40.4 3-60.7 1.3-10.6-.9-21.2-.8-31.9-1.3-17.6-.8-35.3-1.7-52.4-6-29.6-7.5-58.8-16.1-86.1-30.2-21.3-11-40.8-24.5-59.9-38.9-28.4-21.3-50.7-47.8-69.9-77-8.8-13.4-15-28.6-19.7-44.3-4.5-14.8-7.1-29.7-7-45 .1-15.3 3.4-30.3 9.7-44.2 10.5-23.4 21.9-46.2 38.5-66.1 5.1-6.1 3.9-10.2-3.7-12.4-18.4-5.3-35.4-13.4-51.4-23.6-13.7-8.7-27-18.3-38.6-29.7-9.5-9.3-16.6-20.8-23.5-32.1-12.6-20.8-21.8-43.1-28.1-66.8-5-19-8.6-38.2-10.3-57.6C9.7 555 9.7 526 20 498.3c4.3-11.4 9.9-22.4 16.3-32.9 13.1-21.3 28.9-40.1 45.9-58.5 18.8-20.4 42.1-33.1 65.8-45.5 17.6-9.3 36.8-15.1 55.8-21 6.9-2.2 14.1-3.1 22.9-4.9-8.2 12.3-15.4 23.4-22.9 34.2-16.1 23.2-32.9 46-47.6 70.1-8.4 13.9-18.6 26.6-28 40-12.6 18-24.5 36.4-37.8 53.8-11.5 15.1-21 31.6-33 46.3-2.3 2.8-4.1 6.1-5.7 9.4-.9 1.9.1 4.1 1.6 5.5 1.8 1.6 3.6.6 5.4-.6 8.8-5.6 13.4-14.7 18.4-23.2 15.3-26.1 33.5-50.4 50-75.6 20.8-31.7 43.1-62.4 62.7-94.8 13.2-21.9 29.6-41.7 44.4-62.6 3.6-5.1 9-5.3 14-6.4 5.5-1.1 11.5-1.5 16.9 0 7.7 2.2 13.4 1.1 17.6-6.8-4.7-6.1-9.8-12.6-13.1-20.3-2.9-6.7-3.6-12.1 1-19.2 14.7-22.2 29.2-44.5 45.4-65.6 8.7-11.4 15.3-24.2 24.9-35 2.3-2.5 4-4.2 7.4-2.1 14.2 9.1 30.7 12.5 47.5 18.2-7.1 11.4-16.2 21.1-22.6 32.6-8.7 12-17.5 24-26.2 36-1.3 1.5-2.8 2.9-3.9 4.5-26.7 37.7-56.2 73.4-80.3 113-9.5 15.6-20.6 30.1-30.8 45.3-21.4 32.1-44.2 63.2-66.2 94.8-19.1 27.6-39.6 54.2-57.6 82.6-8 12.6-16.8 24.8-25.4 37-8.5 11.9-17.3 23.6-25.7 35.6-2.1 2.9-4.6 5.8-4.7 9.8-.1 2.2.7 4 2.7 4.9 1.7.8 3.3 0 4.5-1.2 3.2-3.4 6.9-6.5 9.3-10.4 19.4-31.4 40.2-61.9 60.8-92.5 6-8.8 11.1-18.2 17.2-26.9 19.4-27.8 38.5-55.8 58.2-83.3 21.2-29.7 41.3-60.3 61.8-90.5 20-29.4 39.6-59.1 60.6-87.8 8-11 17.1-21.3 23.7-33.3 8.9-10.5 17-21.7 24.1-33.5.7-1 1.3-2 2-3 2-1.1 3.7-2.5 4.1-5 5.8-7.2 11.8-14.4 17.5-21.8 2.4-3 4.5-5.6 9-4.7 17.9 3.6 36 5.3 54.9 5.7-.1 3.7-1.8 6.1-3.5 8.4-26.3 36.7-49.8 75.4-76.9 111.5-12.5 16.7-23.1 34.9-35.5 51.8-22 30.1-44.8 59.5-65.7 90.3-2.5 3.7-6.5 7.5-3.5 12.4 1.7 2.8 6.8.8 11.8-6.1 6.9-9.4 12.8-19.4 19.5-28.9 12.4-17.7 25.2-35.1 37.5-52.9 13.6-19.7 26.3-39.9 40.2-59.4 21.6-30.4 41.1-62.1 62.2-92.9 6.8-9.9 15.1-18.6 20.7-29.3 1.5-2.8 3.9-4.2 7.3-4.2 19.6-.3 39.3.8 58.9-1.3 2.5-.3 3.6 1.5 2.2 3.9-1.3 2.3-2.5 4.8-4.1 6.8-20.4 25.5-37.4 53.3-55.6 80.3-14.5 21.5-29.8 42.4-44.6 63.7-21.8 31.4-43.3 63.1-65.3 94.4-18.3 26.1-37.5 51.7-55.7 77.9-6.6 9.5-14.2 18.4-19.6 28.7-1.1 2.1-2.6 3.9-2.6 6.4 0 3.8 2.3 5.5 5.9 4.3 4.9-1.7 8.3-5.3 10.9-9.8 14.6-25.7 31.5-50 48.1-74.4 11.9-17.6 23.2-35.6 35.1-53.2 12.3-18.1 25.1-35.9 37.5-53.9 9.1-13.1 17.8-26.5 26.9-39.6 9.3-13.3 18.9-26.5 28.5-39.7 14.1-19.4 26.6-39.8 39.7-59.8l20.1-30.9c2.3-3.5 4.8-6.3 9.3-6.6 20-1.2 39.3-6.3 59-9.7 1-.2 2-.2 3-.3 1.9 2.7 1.1 5.8 1.1 8.6 0 7.3 1.8 14.1 7.4 18.9 3.9 3.3 3.1 5.7.7 9.1-12.5 18.3-24.9 36.8-37.4 55.2-10.4 15.4-21 30.8-31.2 46.4-1.7 2.5-5.9 5.9-1 9.3 4.2 2.8 7.1-.7 9.1-3.4 4.8-6.4 9.2-13 13.4-19.8 12.2-19.5 24.2-39 36.2-58.6 5.2-8.5 9.6-17.4 15.8-25.4 2.4-3.1 3.8-4.5 7.9-2.3 29.8 16.1 62.1 18.2 94.9 15.9 11.9-.8 23.8-1.1 35.8-2.6 13.1-1.7 26.4-2.5 39.6-4.2 2.2-.3 4.5-1.1 7.2.6-7.5 16-18.4 29.9-27.5 44.8-5.4 6.6-11.1 13.1-13.8 21.4-1.2.7-2.3 1.5-2.6 3l-.9 1.8c-1.6 1.4-2.7 3.1-.5 4.7 1.7 1.3 3-.3 3.8-1.6 1.1-1.6 1.8-3.3 2.7-5 .8-1.2 1.7-2.4 2.5-3.6 4.5-6.8 9-13.6 13.5-20.5 10-13.6 19.8-27.5 28.8-41.8 2.6-4.2 5.6-6.4 10.9-7.2 20.4-2.9 40.8-5.6 60.8-10.6 24.4-6.1 49.1-11.4 73.3-18.4 11.2-3.3 21.6-8.7 32.2-13.3 4.9-2.1 8.7-2.3 13.1 2.1 7.6 7.5 16.6 13.6 26.6 17.2 7 2.5 10.1 7.2 11.8 13.4 1 3.5 2.3 6.9 3.7 10.3 2.7 7 4 7.6 10.9 4.9 9.3-3.7 19.3-4.3 31-7.5-8.8 14.1-16.4 26.4-25 38-8.1 10.9-15.2 22.5-23.6 33.3-17 22.1-33.5 44.6-50.1 66.9-1.8 2.4-3.4 4.9-5.2 7.3-1.8 2.4-.8 4.4.9 6.2 1.7 1.8 3.5.9 5.4 0 2.6-1.3 3.8-3.5 5.3-5.7 15.6-23.1 31.2-46.3 46.9-69.3 16.3-23.9 33.1-47.5 48.1-72.2 2.2-3.7 5-5.3 9.6-5.5 13.8-.5 27.1 1.9 40.6 4 8.1 1.2 16 3 25 4.7-3.2 5.2-5.8 10.2-9.1 14.6-23 31.3-46.4 62.4-67.6 95-11.4 17.5-24.6 33.9-36.4 51.2-8.8 12.9-18.5 25.1-26.2 38.7-6 10.8-14.2 20.1-21.5 30-2.8 3.8-5.3 7.6-6.7 12.2-.5 1.8.1 3.3 1.4 4.5 1.4 1.2 3 .8 4.6.1 3.3-1.4 5.2-4.1 6.9-7 12.9-22.9 28.5-44.1 42.3-66.4 7.9-12.7 16.6-24.9 25.3-37.1 11.5-16.2 21.7-33.4 33-49.7 14.8-21.3 30.3-42.1 45.3-63.2 3.7-5.1 6.8-10.6 10.3-15.8 3.9-5.8 6.9-7 13.3-4.8 30.3 10.2 59.9 21.9 85.7 41.2 13.1 9.7 24.8 21 36.9 32-4.6 8-9.4 15.9-13.8 24.1-13.3 25-27.4 49.4-42.6 73.2-23.7 36.9-47.8 73.6-72.1 110.2-17.5 26.3-35.9 52-53.1 78.5-19.5 30.1-39.9 59.6-60.2 89.2-2 3-4.3 5.9-5.5 9.4-.7 2.2-2.7 4.7-.4 6.3 2.5 1.8 4.9-.7 6.9-2.2 1-.8 1.4-2.3 2.1-3.4 7.6-10.9 15.6-21.5 22.7-32.7 16.7-26 34.4-51.4 50.5-77.8 10.6-17.3 22.1-34 33.1-51 15.5-24 31-48.1 46.4-72.2 14.4-22.4 29.3-44.5 42.9-67.4 12.6-21.2 25.6-42.1 36.9-63.9 3.2-6.2 5.9-12.5 7.2-19.4 17 16.9 32.7 35 44.8 55.6 20.7 35.2 37.7 72.1 47.3 112.2 12.9 54 10.2 107.1-4.3 160.2-5.1 18.6-11.3 36.7-18.1 54.7-2 5.3-4.8 10.1-7.7 15-10.5 17.7-21 35.4-32.9 52.2-8.7 12.2-19.3 22.9-30.1 33.2-11.5 11-23.5 21.6-36.1 31.3-22.7 17.6-47.4 31.7-74.3 42.1-14.8 5.7-29.2 12.8-44.1 18.1-9.6 3.3-18.9 7.6-29.3 8.6-10.6 1-13.3 6.7-7.3 15.4 9 13.2 10.8 28.3 12.6 43.5 1.1 9.4 1.1 18.9-.3 28.9-14.9-3.4-28.5-10.3-43.7-9.9-3.8-2.4-8.4-1.8-12.8-1.8zM935.3 306.2c8.5-3.6 10.5-12.3 15.1-19 .7-1-.2-2.1-1-2.3-.8-.2-2.1.1-2.6.7-4.4 5.6-9.4 10.9-11.6 18-.6.7-1.3 1.4-1.9 2.1-12.8 19-25.7 37.9-38.1 57.2-11.8 18.5-24.3 36.5-36.4 54.8-2.8 4.2-5.4 8.4-8 12.6-1.9 3-4.1 3.6-7.5 1.9-6.2-3.1-12.6-6.1-19.1-8.6-23.1-8.6-47.3-13-71.4-18.1-10.8-2.3-22-2.9-34.1-4.5 6.5-9.5 12.3-17.9 18-26.4 10.7-16.1 21-32.4 30.7-49.1 1.1-1.9 3.6-4.3.7-5.9-2.6-1.4-3.7 1.9-4.9 3.7-2.6 3.8-4.9 7.9-7.5 11.8-13.6 20.1-27.5 40-40.8 60.3-3.1 4.7-6.2 6.5-11.9 6.7-20.6.5-41.2 1.9-61.5 5.8-7.9 1.5-15.9 2.7-25.2 4.3 7.2-13.2 14.3-24.4 21.4-35.6 6.8-10.9 15.1-21.2 18.5-34.8-3.1.2-4 1.4-5 2.8-5.2 8.1-10.4 16.2-15.6 24.4-8.4 13.1-15.2 27.3-24.1 40.1-3.6 5.1-7.6 9.5-13.7 11-24.4 6.2-46.5 17.9-68.2 30.1-43 24.2-80.2 55.4-109.6 95.4-5.3 7.2-10.2 14.8-15.2 22.3-8.4 12.4-15.2 25.8-20.9 39.5-5.8 13.9-11.3 28.2-14.8 43.2-2.3 10-4 20.1-6.3 30-2.4 10.7-3.9 21.6-5 32.5-1.1 11.7.6 23.2.9 34.9.5 18.9 4.4 36.8 10.8 54.4 3.9 10.6 7.5 21.2 12.2 31.5 5.3 11.6-7.2 20.5-7.6 31.6 0 .3-.1.7-.2 1-.3 5.2-3.5 5.8-7.7 4.7-1.3-.3-2.5-1-3.8-1.2-5-.6-7.5 1.3-8.2 6.4-.7 4.7.2 9.2 1.6 13.8 7.5 25.1 38 37.6 59.6 36.8 14.5-.5 29.2-3 41.9-11.3 3.1-2 6-2.7 8.9.4 2.6 2.7 4.5 5.1 2.6 9.5-8.7 20.3-13.6 41.5-16.1 63.6-1.8 15.9-.9 31.1 3 46.4.8 3 1.7 6.1 4.3 7.7 6.5 3.9 12.7 8.4 20.2 10.5 14 3.9 28.3 3.8 42.6 4.6 10.5.6 18.7-3.3 25.7-10.7 10-10.7 12.8-23 7.6-37.6 11.1-.8 21.3 2.7 31.5 1.1 10.6-1.7 20.3-5.6 28.7-12.2 23.2 32.1 38.4 67.5 50.6 104.2 2.7 8.2 4.2 16.7 6.4 25.1 2.4 9.1 4.8 10.7 14.2 9.5 6.9-.9 13.8-1.9 20.5-4.1 33.8-11.1 64.8-27.5 92.7-49.7 5.7-4.5 11.3-9.3 16.6-14.4 11.1-10.6 16.1-23.2 12.4-38.8-2.8-12-8.7-22.1-16.3-31.5-2.2-2.8-5.7-4.7-6.3-8.9 1.5-.7 2.9-1.5 4.5-2.2 30.5-13 58.3-30.5 83.8-51.5 20.1-16.6 36.9-36.5 51.9-57.8 13.4-19.1 25.8-38.7 34.8-60.4 14.7-35.3 22.8-72.2 25.8-110.2 1.2-15.2.7-30.7-1.7-45.8-2.6-16.1-6.8-31.8-10.5-47.7-5.1-21.6-14.2-41.7-24.9-60.7-9.6-17.2-18.9-34.9-33-49.7-10.4-10.8-20.8-21.4-31.8-31.5-14-12.8-29.9-23.3-46.9-31.9-4.6-2.3-4.9-4.8-1.9-8.5.8-1 1.4-2.3 2.1-3.4 21.3-33.3 44.2-65.5 64.5-99.4 3.8-6.3 7.5-12.6 11.1-18.9 1.3-2.3 1.7-4.5-1.7-5.3.4 1.1 1.1 1.5 2.1.7zm26.1-40.4c-3.9 3.2-6.4 7.4-9.3 11.3-.7 1-1.3 2.5-.1 3.6 1.7 1.5 3 .4 4-1 2.7-3.7 6.1-6.9 7.8-11.3 6.9-9.6 14.6-18.9 19-30.2-2.2-.9-3.1-.6-3.8.2-6.8 8.5-12 18.1-17.6 27.4zm-592.6 704c-1.2-.7-2.5-1.3-3.7-2-4-.4-7.9-1-11.9-1.3-21.3-1.4-42.5-.2-63.8.8-29.2 1.3-57.3 6.9-84.7 16.8-8.1 3-16 6.7-23.1 11.6-6.7 4.7-11 10.7-9.3 19.4 1.6 8.6 8.8 10.4 15.6 11.8 17.6 3.7 35.5 4.9 53.4 3.4 20.8-1.7 41.5-4.6 62.3-6.2 21.6-1.7 43-4 64.1-8.5 15.6-3.4 31-7.5 43.3-18.8 8.8-8.1 7.8-15.6-2.7-21-9.7-4.9-20.4-5.6-30.5-8.8-3.5-1.1-6.4.3-9 2.8zm493.9 172.8c-26.9-.4-51.1 3-75.1 8.7-7.4 1.8-13.6 5.4-19.1 10.3-8.6 7.7-6.9 18.9 3.4 24.5 4.5 2.4 9.2 3.5 14.3 3.9 36.8 3.3 73.6 4.2 110.5 1.8 14-.9 27.7-3.7 41.1-7.7 7.2-2.1 13.4-10.2 13.6-16.8.2-6.9-4.5-12.7-12.9-15.7-2.2-.8-4.4-1.4-6.7-1.9-23.4-5.9-47.4-5.9-69.1-7.1zM1209.6 282c-4.5 4.5-8.4 6.9-10.9 10.9-11 18.2-23.6 35.4-35.4 53-13.1 19.6-26.3 39.2-39.6 58.6-19 27.7-38.9 54.7-57.7 82.5-17.5 25.9-36.3 50.8-54.6 76.2-1 1.4-2.2 2.7-1.4 4.4 1 2.3 3.1 2.2 5.1 2.1 2.7-.2 5.2-1.3 6.9-3.5 2.9-3.7 6.1-7.1 8.4-11.1 15.1-26.2 33.1-50.5 49.7-75.8 17-25.8 34.8-51.1 52.1-76.7 11.7-17.4 23.1-34.9 34.4-52.5 12.5-19.6 26.2-38.4 39.3-57.6 1.8-2.4 3.5-4.9 3.7-10.5zm-727.7 822.3c-12-.4-23.9.8-35.8 1.6-21 1.5-41 7.9-60.5 15.3-4.5 1.7-9.2 4.6-8.5 9.8.7 5.8 6.7 5.5 11.2 6.4 13.1 2.6 26.5 1.8 39.6 1.5 18.2-.4 36.4-1.7 54.5-3.8 12.8-1.5 25.7-3.3 37.7-8.6 3.3-1.5 5.6-3.2 5.4-7.3-.1-3.9-.9-7.4-4.6-9.2-2.3-1.2-4.9-2.1-7.4-2.8-10.3-2.7-20.9-3.1-31.6-2.9z"/><path fill="#83979D" d="M480.2 199.7c6-10.8 12.4-18.9 18.5-27 14.4-19.1 28.8-38.2 43.2-57.4 1.4-1.9 5-4.4 2.3-6.6-3-2.4-3.9 1.8-5.4 3.7-11.8 14.8-23.7 29.4-35.4 44.3-9.7 12.3-19.1 24.7-28.5 37.2-2.1 2.8-3.9 5.1-7.8 5.3-18.6.9-37-.5-55.9-4.7 4.8-14.8 18.4-24.3 22.8-39-4.2-1.2-5.1 1.3-6.4 3-5.9 7.6-11.8 15.3-17.1 23.4-7.6 11.6-7.8 11.8-21.7 7.8-11.4-3.3-23.1-6.1-33.5-12.3-6.1-3.6-6.1-3.9-2.2-9.7 4.5-6.6 9.2-13.1 13.8-19.6 3-4.3 3-4.3 3.4-13.4-12.4 9.2-17.4 23.3-27.1 33.2-9-9-6-21.1 9.8-39.6-6.3-4.6-13.8-.1-20.7-3.4 1.6-4.4 5.1-7.9 8.6-11 20.4-17.2 42.6-31.5 65.5-45.1 23-13.7 48.3-20.2 73.2-28.5 14.4-4.8 28.6-10.3 43.6-13.6 19.8-4.3 39.5-8.4 59.6-11.2 25.8-3.6 51.6-4.3 77.4-3.5 14.9.4 29.8 1.6 44.7 3.2 13.5 1.4 27.1 2.3 40.5 4.5 5.9 1 11.6 2.6 17.4 4 15.7 3.9 31.5 7.4 47.1 11.4 18 4.6 35.7 10.2 52.9 17.4 15.6 6.6 31.2 13.1 46.1 21.3 23.3 13 45.1 28 63.6 47.4 18.8 19.7 37.7 39.4 52.3 62.5 4.3 6.8 8.9 13.7 11.2 23.9-10.3-5.6-18.5-10.9-24.9-18.6-4.6-5.5-6.4-6-12.6-3.1-40.8 19.3-83.6 32.2-128 40.1-10.1 1.8-20.2 3.7-30.4 5.3-2.1.3-4.5 1.2-7.3-.9 11.8-23.8 30.5-43.5 43.1-67.8-5.4-.6-5.8 2.6-7.2 4.6-13.1 18.4-26.8 36.5-39 55.5-6 9.3-13.7 12.6-23.7 13.2-17.2 1.1-34.4 3.1-51.5 5-19.1 2.2-38.4 1.4-57.7.3-16.5-1-32.3-3.7-47.7-9.5-14-5.3-14.1-5.4-5.8-18.1 17.5-26.7 35.1-53.3 52.7-79.9 1.9-2.9 4.7-5.6 2.7-9.7-4 .2-5 3.5-6.6 5.8-13 19.3-25.6 38.9-38.8 58-6.4 9.3-11.5 19.5-18.7 28.2-3.9 4.7-5.6 4.7-8-1-2.7-6.5-2.5-13 .4-19.4 1.2-2.7 2.7-5.3 3.9-8.1.9-2.1 2.3-4.4.1-6.4-2.1-2-4.6-.9-6.5.3-9.6 6.1-20.5 7.9-31.3 9.4-9.2 1.3-18.5 2-27.7 3.6-2.2.4-5 1-6.3-1.5-1.3-2.5.9-4.3 2.1-6.2 3.8-5.7 7.3-11.5 9.7-18.3-3.6-.2-4.5 2.2-5.8 3.9-1.8 2.4-3.1 5.1-4.8 7.5-12.4 17.5-12.4 18-33.7 19.3-14.7 1.3-29.7.6-46.5.6z"/><path fill="#FDFDFD" d="M1175.7 1090.9c.4 20.7-4.9 33.3-14.7 44.6-11 12.6-22.8 24-37.1 32.8-20 12.3-41.8 18.5-65.1 18.5-14.2 0-27.2-4.7-36.5-16.8-7.3-9.5-8.3-20.1-6.1-31.1 1.4-6.7 2.8-13.7 6.7-19.6 2.6-4 2.4-8.9 4.5-13 5.1-10 12.2-18.3 21.7-24.2 10.7-6.6 21.4-13.4 33-18.3 18.3-7.7 37.5-11 57.2-4.9 3.2 1 6.3 2.1 9.5 2.9 18.2 4.6 26.9 15.8 26.9 29.1z"/><path fill="#BCCFD3" d="M1074.4 981.8c4.4-.1 8.9-.6 13 1.9-.8 1.8-4.2 1.3-3.8 3.9.3 2 2.5 1.7 4 2 12.3 2.8 24.5 5.7 36.8 8.4 5.1 1.1 7.5 3.6 6.7 8.9-.2 1.3 0 2.7 0 4 0 14.3-.1 13.9-14.3 17.4-21.7 5.4-43.9 6.4-66.1 7.8-18.6 1.2-37.1 2-55.7 1.3-29.6-1.2-59.1-2.5-87.6-11.5-1.9-.6-3.8-1.1-5.6-1.9-6.4-2.9-7.9-7.7-3.9-13.6 4.9-7 11.6-11.8 19.8-14 24.4-6.6 49.5-9.9 74.6-11.7 23.8-1.8 47.6-1.8 71.5.6 3.4.4 8.8 3.1 10.6-3.5zm-55.4 11.8c-14.8-.4-33-.2-51.2 2.6-15.1 2.4-30.3 4.2-44.8 9.2-3.6 1.3-7.5 2.9-7.4 6.9 0 4.2 4 5.6 7.8 6.2 1.3.2 2.6.5 3.9.8 19.5 4 39.4 5.7 59.2 6.1 35.8.8 71.7 2 107.1-5.6 4.5-1 9.1-1.6 13.2-3.9 1.9-1.1 3.7-3.2 1.9-4.6-3.3-2.6-3.7-7.8-8.6-8.9-6.1-1.3-12.1-3.4-18.2-4.9-19.6-4.5-39.5-4-62.9-3.9z"/><path fill="#A9BBC0" d="M264.1 279.5c-1.1-18.5-.2-36 5.1-53.5 9.5-31.7 25.5-59.5 45.4-85.6 5.7-7.4 11.6-10 21.1-6-1.7 3.7-3.2 7.6-5.2 11.2-5.3 9.4-3.8 18.2 3.2 25.7 4.1 4.4 3.7 7.4.4 11.9-14 19.4-27.7 39-41.4 58.6-7.8 11.2-15.4 22.5-23.2 33.6-1.2 1.6-1.7 3.8-5.4 4.1z"/><path fill="#151414" d="M1311.1 322.8c-1.3 6.9-4 13.2-7.2 19.4-11.4 21.9-24.4 42.8-36.9 63.9-13.6 22.9-28.5 45-42.9 67.4-15.4 24.1-30.9 48.2-46.4 72.2-11 17-22.6 33.7-33.1 51-16.1 26.4-33.8 51.8-50.5 77.8-7.2 11.2-15.2 21.8-22.7 32.7-.8 1.1-1.1 2.6-2.1 3.4-2 1.6-4.4 4-6.9 2.2-2.3-1.6-.3-4.1.4-6.3 1.2-3.6 3.5-6.4 5.5-9.4 20.3-29.6 40.6-59.1 60.2-89.2 17.2-26.5 35.6-52.2 53.1-78.5 24.3-36.6 48.4-73.3 72.1-110.2 15.3-23.8 29.4-48.3 42.6-73.2 4.3-8.2 9.2-16.1 13.8-24.1.4 0 .8.4 1 .9z"/><path fill="#211C1C" d="M375.3 237.8c-7.1 11.9-15.2 23-24.1 33.5-1-1.4-2.5-1.6-4-1.6 8.7-12 17.5-24 26.2-36 .1 1.5.2 3.1 1.9 4.1z"/><path fill="#121111" d="M777.6 310.2c-.8 1.2-1.7 2.4-2.5 3.6-.9-1-1.7-2-2.6-3 2.7-8.3 8.4-14.8 13.8-21.4l4.8.3c-4.5 6.9-9 13.7-13.5 20.5z"/><path fill="#211C1C" d="M381.4 229.8c-.4 2.4-2.1 3.8-4.1 5 .3-2.5 1.8-4.1 4.1-5z"/><path fill="#FEFEFE" d="M1629.7 2079.8c-4.1 1.1-4.8 2.1-2.7 3.8 6 4.7 12.1 9.4 18.4 13.7 4.1 2.8 8.4 5.6 12.9 7.5 5.3 2.3 7.5 5.8 7.6 11.4.3 12.9 4.2 24.6 10.5 35.9 5.8 10.4 12.3 20.4 15.4 32.2 5.7 22.2-3.3 31.8-17 38.9-14.9 7.7-30.8 11.8-48 10.7-19.7-1.2-39-4-57.2-12.1-15.9-7.1-30.8-15.7-43.4-27.9-9-8.8-14.3-19.8-16.8-32.2-3.4-16.3-1.5-32.5 2-48.4 5-22.3 10-44.7 19.4-65.8 6.8-15.3 15.3-29.4 25.1-42.9 3.4-4.7 7.1-6.6 12.7-4.7 1.2.4 2.7.2 3.9.6 4.2 1.2 6.9-1.3 7.4-4.5.5-3-1.1-5.5-5.4-6.8-19.7-5.9-38.2-14.7-55.6-26.9 7.1-7.2 14.6-13.7 20.4-21.9 11.5-16.3 23.4-32.3 29.5-51.7 14.2-45.7 22.6-92.1 17-140.3-3.8-33.3-6.5-66.9-14.8-99.4-6.5-25.4-11.5-51.2-16.6-76.9-3.4-17.1-4.9-34.8-5.4-52.5-1.2-38.8 3.1-76.9 12.3-114.5 6.2-25.1 17.1-48.1 29.5-70.6 3.3-6 8.8-9.8 12.5-15.4.9-1.3 2.6-2.5 1.1-4.2-1.2-1.4-3-1.1-4.6-.5-2 .8-3.2 2.2-4.3 4-6.1 10.3-12.6 20.2-19.4 30.1-6.8 9.9-10.2 21.6-14.3 32.8-3.3 9-6.5 18.1-10.5 26.9-4.2 9.2-4.2 19.4-6.5 29.1-3.9 16.6-3 33.7-4.3 50.5-2.1 26.6-.4 53.1 2.8 79.4 2.4 19.7 5.9 39.4 12.2 58.4 5.6 16.8 7.8 34.3 10.7 51.6 3.5 21.3 5.4 42.8 7.3 64.3 2.9 32.8 2.5 65.5-2.3 97.9-4.8 33.1-13.9 64.9-35.3 91.8-14.6 18.3-31.1 34.6-53.3 43.9-1.5.6-3.1 1.3-4.6 2.1-18.9 9.1-42.3 5.9-57.9-8.4-4.3-4-8-5.6-14.1-4.1-8.2 2-23.5-10-24.7-18.1-.4-2.6 1.2-3.6 3-4.5 4.1-2.1 8.5-3.8 12.4-6.3 7.8-4.8 8.2-7.8 2.3-15-4.4-5.4-9.9-9.9-12.8-16.5-.8-1.9-1.5-3.6-1.4-6.2 15.4-4.5 22.6-18.3 32.2-29.7 2.9-3.5 1.5-7.2.1-10.4-5.4-11.9-9.2-24.3-11-37.1-2.4-17-4.2-34.2.4-51.2 1.4-5.5 2.1-11.1 4.3-16.4 2.8-6.7.6-12.6-4.1-17.1-10.4-10.1-17.7-22.2-25.1-34.4-10.9-17.9-20.3-36.4-26.8-56.4-3.2-9.7-8.9-18.4-12.2-28.3-7.3-22-10.5-44.6-13.2-67.3-4.3-35.9-1-71.6 3.6-107.3 4.9-37.4 16.1-73.1 30.1-107.9 2.1-5.2 5-10.2 7.4-15.2 1.4-2.9 3.3-5.8 2-9.7-4.5.3-7.5 2.6-9 6.6-11.7 31.4-25.4 62.1-33.7 94.6-4.9 19.3-6.3 39.3-8.3 59.2-1.9 19.2-2.4 38.5-2.1 57.8.2 13.2 1.9 26.5 3.8 39.6 4 28.1 11.3 55.4 21.9 81.7 13.5 33.3 28.7 65.8 51.9 93.8 2.2 2.7 2.7 4.9 1.9 8.1-9.1 37.4-5.1 73.8 8.1 109.5 1.7 4.7 1.1 7.7-2 11.3-3.1 3.5-5.3 3.8-9.2 1.2-11.8-7.8-21.3-18-30.4-28.6-22-26.2-41.7-54.1-59.6-83.2-19.7-32.1-36.1-65.9-48.9-101.1-8.9-24.4-16.6-49.7-20.7-75.6-3.2-20.3-4.6-40.9-6.9-61.4-2.2-19.9-2.3-39.9-1.1-59.8 1-16.8 2-33.7 4.4-50.4 2.4-17.4 5.9-34.6 8.2-52 2.3-17.5 7.9-34.3 13.7-50.9 5.5-16 10.2-32.2 16.8-47.9 14.1-33.2 28.9-66 49.5-96 7.3-10.6 13.2-22.2 21.3-32.4 12.6-15.9 23.9-32.6 37.1-48.1 27.3-32.2 56.4-62.5 88.6-90 33.3-28.4 70.4-51.3 108.8-71.8 17.3-9.2 34.8-18.1 52.9-25.4 19.4-7.8 39.3-14.3 59.5-19.6 16-4.2 32.5-6.9 48.8-9.5 23.6-3.7 47.1-8.4 71.1-9.4 28.6-1.2 57.1-.2 85.7 2.1 23.3 1.8 46.2 5.9 68.9 10.4 27.9 5.5 55.3 13.8 81.5 25.5 14.2 6.4 28.8 12 43 18.3 13.4 5.9 26.5 12.2 38.8 20.2 15 9.8 31.8 16.7 46.8 26.7 26.9 17.8 54.4 34.7 79.8 54.6 24.6 19.3 46.8 41.2 67.8 64.5 32.7 36.3 60.8 75.7 82.9 119 19.8 38.8 37 78.8 48.3 121 3.8 14.3 6.7 29 8.3 43.9 1.7 15.5 5.1 30.8 7 46.2 3.8 31.5 3.2 63-2.1 94.3-3.8 22.2-6.2 44.7-11.6 66.6-5.7 23.2-12.3 46.3-21.7 68.2-8.5 19.8-19 38.6-28.5 58-11.1 22.8-25.2 43.7-39.4 64.7-21.8 32.1-48.2 60.1-76.9 85.9-27.4 24.7-55.7 48.4-86.9 68.4-18.2 11.6-35.4 24.9-54.7 34.4-14.3 7.1-27.8 15.6-42.6 21.5-8.5 3.4-8.4 3.4-14.7-3-3-3.1-6.3-5.9-10.4-7.6-1.3-.5-2.8-.5-3.7.7-.9 1.2-.3 2.5.7 3.5 3.3 3.3 6.1 6.9 8.8 10.8 12.7 19 16.1 40.2 13 62.1-4.4 30.9-9.1 61.8-18 91.8-1.8 6-5 11.6-6 17.9-.5 2.8-1 5.3 1.5 7.1 2.7 2 5.9 2 8.4-.1 4.3-3.7 8.5-7.5 12.2-11.8 15.8-18.6 28.8-39 38.4-61.4.8-1.8 1.4-3.7 2.3-5.5 4.7-9.3 11.4-12.8 21.8-10.5 26 5.8 48.6 17.9 65.9 38.4 10.3 12.2 19.4 25.3 25.3 40.4.9 2.2 1.7 4.3 2.5 6.5 5.6 15.1 2.8 28.7-7.9 40.6-16.9 18.8-33.4 38.2-53.1 54-28 22.5-57.5 42.7-91 56.9-23.6 10-47.6 18.6-72.5 24.4-12.9 3-26.2 4.3-39.3 6.2-1.3.2-2.7.1-4 0-13.3-.4-22.5-2.5-22.5-22.9 0-25.7-5.1-50.9-10.3-75.9-7.2-34.3-19-67.1-34-98.7-8.4-17.7-18.1-34.7-29.3-50.9-5.3-7.6-9.8-15.8-14.7-23.6-1.6-2.5-3.3-5-5-7.4-6.1-8.3-13.5-12.3-24.6-11.2-16 1.6-31.8-1.9-47.5-4.7-8.5-1.5-17.1-1.1-25.5-2.7-18.9-3.6-37.3-9-55.9-14-8.6-2.3-17.5-3.8-26-6.5-8.6-2.7-17.3-4.8-25.2-9.1-1.7-.9-4.2-2.3-5.3 0-1.1 2.3-1.2 5.4 1.9 6.8 4.8 2.2 9.6 4.6 14.6 6.3 19.7 7 39.8 12.8 60.2 17.7 29.4 7.2 59.2 11.9 89.2 15.3 6.6.8 13.3 1.6 19.9 1.1 7.5-.6 11.8 3.4 15.8 8.5 1.4 1.8 1.9 3.4.1 5.2l-2.8 2.8c-16.5 17.4-34.3 33.4-55 45.7-12.5 7.4-26.7 9.6-40.9 10.6-1.3.1-2.7-.2-4-.1-31.8 3-58-10.9-83.2-27.6-9.7-6.4-18.6-13.9-27.8-21-3.2-2.5-6.8-4.2-10.6-5.4-1.9-.6-3 .8-3 2.8-1 1.4-1.7 2.1-2.4 2.9zm302.7-1160.3c-14.6-.1-29.3.2-43.6 3.1-21.9 4.5-42.3 13.2-62.9 21.5-3.4 1.4-5.9 4.3-8 7.3-1.1 1.6-2.1 3.7-.4 5.4 1.6 1.5 3-.3 4.3-1 6-3.5 11.9-7.4 18.6-9.6 28.7-9.4 57.6-17.6 88.3-18.2 24.7-.5 49 .7 73.1 6.9 37.7 9.8 72.4 25.8 103.4 49.5 2.4 1.8 4.8 3.6 7.3 5.1 1.5.9 3.4 1.1 4.5-.4 1.1-1.6.1-3.4-1.2-4.4-7.5-6-13.9-13.3-22.1-18.4-19.2-12-39.6-21.3-61-28.9-32.7-11.6-66.1-17-100.3-17.9zm57.8 1409.2c8.6 1.4 8.7 1.6 14.4-.9 23-9.7 44-22.3 63.5-38.4 26.1-21.7 51.2-44.1 73-70.2 10.2-12.2 20.2-24.7 32.2-35.3 14.1-12.5 29.6-19.9 48.9-13.4 2.5.8 4.7-.2 5.4-2.9.7-2.7-.7-4.5-3.2-5.4-.9-.3-1.9-.4-2.9-.5-19.1-1.6-36.2 2.8-50.3 16.6-7.8 7.7-14.7 16.3-22 24.4-13.9 15.3-28.2 30-42.2 45.2-20.4 22.1-44.2 40.2-69 56.9-11.8 8-24.7 14.3-38.3 18.8-3 .9-6.3 1.3-9.5 5.1zm-2.5-1243.7c.7-6.8-.5-13-1.6-19.2-1.2-6.5-1.9-13.1-3.4-19.6-1.3-5.9-4-11.2-7.6-16.1-5.4-7.3-11.7-6.8-16.4 1-2.5 4.1-3 8.7-3.4 13.3-1.1 14.1 1.1 27.8 4.7 41.3 2 7.2 5.9 13.4 11.8 18.1 6.2 4.9 12.4 2.9 14.5-4.6 1.5-4.7 2.5-9.7 1.4-14.2zm112 18c.7-12.8-2.2-25.3-9.1-36.7-2.9-4.8-6.9-8.9-11-12.7-1.6-1.5-4.3-2.7-6.4-.7-2.8 2.7.6 3.9 1.8 5.5 11.6 14.6 17.8 31.1 16.2 49.8-1 11.3-4.8 21.5-17.4 25-2.8.8-2.8 2.2-2.6 4.3.2 2.1 1.7 2.8 3.4 2.8 2.7 0 5.1-.8 7.6-2.1 13.9-7.5 19-19.4 17.5-35.2zm12.2-50.3c.2-6.6-.7-13.8-3.5-20.6-2.1-5.2-5.6-9-11.6-9.5-2.5-.2-4.4.7-5.7 3-3.8 7.4-.4 29.9 5.6 36 3 3 10.3 5.4 12.7 3.9 3.9-2.5 2.1-6.6 2.5-10 .1-.7 0-1.3 0-2.8zm-184.7 193.2c-.4 2.9-.8 4.8.9 5.7 1.9 1 3-.5 4-2 1.1-1.7 2.1-3.4 3.2-5 8.8-12.8 19.4-23.4 34.3-28.9 2.1-.8 4.2-2 6.1-3.2 1.7-1 3.4-2.2 2.1-4.7-1.2-2.3-3-2-5.1-1.5-20.3 4.8-35 16.5-44.1 35.3-.8 1.7-1.2 3.6-1.4 4.3zm10.1-255.6c.2-4.1-.3-5.8-2-6-3.2-.4-3.4 2.6-4.5 4.4-1.2 2-2.1 4.1-3 6.2-4.9 10.9-9.9 21.6-22.5 25.8-2 .7-3 2.6-2.1 4.9 1 2.4 2.9 2.4 5 1.6 11.6-4.2 29.1-20.7 29.1-36.9z"/><path fill="#83979D" d="M1629.7 2079.8c.7-.8 1.4-1.5 2-2.3 2.6 2.8 5.2 5.5 7.8 8.3-4.4-.5-7.7-2.4-9.8-6z"/><path fill="#FAD75A" d="M3087.8 630.3c-1.3 23.3-4.3 41-8.6 58.9-4.9 20-13.6 38-22.9 55.7-6.3 12.1-17.1 21.3-27.7 29.9-4.9 3.9-9.4 8.3-14.5 12-26.6 19.3-55.8 33-87.5 41.6-27.3 7.4-53.7 3.7-79.6-5.9-18.3-6.8-34.7-16.4-49-29.9-8.3-7.8-15.4-16.5-21.4-25.9-10-15.7-17.6-32.8-21.9-50.9-2.9-12.1-5.9-24.5-5.4-37.3.3-6.3-2.5-12.3-2-18.7 1.6-20.8 4.2-41.4 9.5-61.7 3.7-14.4 10-27.5 17.8-39.7 7.6-12 17.8-22.3 28.8-31.5 14.4-12 30.3-21.6 48.3-27.2 18.9-5.9 37.7-12.7 58-12.2 5.2.1 10.7-.6 15.7-2.1 9.7-2.9 19.1-1.8 28.5.4 11.3 2.6 22.6 5.6 33.6 9 16.4 5 30.3 14.7 43.5 25.4 10.6 8.6 21 17.4 28.7 28.9 9.9 14.9 19.6 30.2 22.7 47.9 2.3 12.7 6.4 25.3 5.4 33.3z"/><path fill="#FDFDFD" d="M1235.1 1129.7c14.3-1.8 24 4 30.6 16.2 5.8 10.8 2.2 29.2-8.2 35.6-16.5 10.1-27.9 10.1-44.4-.8-8-5.3-11-20.3-6.4-30 1.8-3.8 4-7.6 6.8-11 5.7-7.1 12-12.5 21.6-10z"/><path fill="#121111" d="M933.3 305.5c3.5.8 3 3 1.7 5.3-3.6 6.3-7.4 12.7-11.1 18.9-20.3 33.9-43.2 66.2-64.5 99.4-.7 1.1-1.3 2.4-2.1 3.4-3 3.7-2.7 6.1 1.9 8.5 17 8.7 32.9 19.1 46.9 31.9 11 10 21.4 20.7 31.7 31.5 14.1 14.9 23.3 32.5 33 49.7 10.6 19 19.7 39.1 24.9 60.7 3.8 15.9 8 31.6 10.5 47.7 2.4 15.1 2.9 30.6 1.7 45.8-3 37.9-11.1 74.9-25.8 110.2-9 21.6-21.4 41.3-34.8 60.4-15 21.3-31.8 41.2-51.9 57.8-25.5 21-53.3 38.5-83.8 51.5-1.5.6-3 1.4-4.5 2.2.6 4.2 4.1 6.1 6.3 8.9 7.6 9.4 13.5 19.6 16.3 31.5 3.6 15.5-1.4 28.1-12.4 38.8-5.3 5.1-10.9 9.8-16.6 14.4-27.9 22.1-58.9 38.6-92.7 49.7-6.7 2.2-13.6 3.2-20.5 4.1-9.4 1.2-11.8-.4-14.2-9.5-2.2-8.3-3.7-16.9-6.4-25.1-12.3-36.7-27.4-72.1-50.6-104.2-8.4 6.6-18 10.5-28.7 12.2-10.2 1.6-20.4-1.9-31.5-1.1 5.2 14.6 2.4 26.9-7.6 37.6-7 7.4-15.2 11.3-25.7 10.7-14.3-.8-28.6-.7-42.6-4.6-7.5-2.1-13.7-6.7-20.2-10.5-2.6-1.5-3.5-4.7-4.3-7.7-4-15.3-4.8-30.5-3-46.4 2.5-22.1 7.4-43.2 16.1-63.6 1.9-4.4 0-6.8-2.6-9.5-2.9-3.1-5.8-2.4-8.9-.4-12.7 8.3-27.4 10.7-41.9 11.3-21.6.8-52.1-11.7-59.6-36.8-1.4-4.6-2.3-9.1-1.6-13.8.7-5.1 3.2-7 8.2-6.4 1.3.1 2.5.8 3.8 1.2 4.2 1.1 7.3.5 7.7-4.7 0-.3.1-.7.2-1 .5-11.1 13-20 7.6-31.6-4.7-10.3-8.4-20.9-12.2-31.5-6.4-17.6-10.3-35.6-10.8-54.4-.3-11.6-2-23.2-.9-34.9 1-10.9 2.6-21.8 5-32.5 2.2-10 3.9-20 6.3-30 3.5-15 9-29.2 14.8-43.2 5.7-13.6 12.5-27.1 20.9-39.5 5-7.4 9.9-15 15.2-22.3 29.4-40 66.6-71.2 109.6-95.4 21.7-12.2 43.8-23.8 68.2-30.1 6.1-1.6 10.1-5.9 13.7-11 9-12.8 15.7-26.9 24.1-40.1 5.2-8.1 10.4-16.2 15.6-24.4.9-1.5 1.9-2.7 5-2.8-3.5 13.6-11.7 23.9-18.5 34.8-7 11.3-14.1 22.4-21.4 35.6 9.4-1.6 17.3-2.8 25.2-4.3 20.3-3.8 40.9-5.3 61.5-5.8 5.7-.1 8.8-2 11.9-6.7 13.4-20.3 27.2-40.2 40.8-60.3 2.6-3.9 4.9-7.9 7.5-11.8 1.2-1.8 2.3-5.1 4.9-3.7 3 1.6.4 4-.7 5.9-9.7 16.7-20 33-30.7 49.1-5.7 8.5-11.5 16.9-18 26.4 12.1 1.5 23.3 2.2 34.1 4.5 24 5.1 48.2 9.5 71.4 18.1 6.5 2.4 12.9 5.5 19.1 8.6 3.4 1.7 5.6 1.1 7.5-1.9 2.7-4.2 5.3-8.5 8-12.6 12.1-18.3 24.6-36.3 36.4-54.8 12.3-19.3 25.2-38.2 38.1-57.2.1 0 0-.2 0-.2zm-89.6 135.7c-14.8-7.1-29.1-13-44-17.6-25.5-7.9-52-10.1-78.2-13.5-5.4-.7-9 .7-12.3 5.7-21.3 32.1-43.1 63.9-64.7 95.7-1.9 2.7-3.9 5.4-6.1 7.8-1.7 1.8-4.1 2.2-6.3.5-2.5-2-1.3-4.1.1-6.1 4.9-6.7 10-13.3 14.8-20.1 11.5-16.3 22.1-33.2 34.3-49 6.5-8.4 12.5-17.2 18.6-25.9 1.7-2.4 3.9-4.6 3.4-8.5-9.2-.8-18.4 0-27.5.7-18.9 1.4-37 7.4-55.7 9.7-6.3.8-12.3 3-16.3 9.7-14.8 24.4-28 49.8-43.9 73.6-2.9 4.4-5.4 9.1-7.8 13.9-1.9 4-4.9 7.1-7.7 10.3-1.6 1.8-3.9 3-6.1 1.1-1.8-1.5-1.1-3.7-.4-5.6.4-1.2 1.2-2.4 1.9-3.5 10.6-16.1 21.3-32.2 31.7-48.4 9-14.1 17.6-28.5 26.8-43.6-4.2.2-6.9 1.4-9.6 2.6-10.5 4.9-21 9.8-31.7 14.5-18.9 8.3-37 18.5-53.8 30-22 15-41.5 33.3-59.4 53.1-32.9 36.6-54.1 79.6-68.3 126.1-10.9 35.7-12.9 72.4-7.7 109.5 2.6 19 8.3 36.8 17.9 53.3 1.4 2.4 3.2 4.5 5.1 7 2.6-3.5 4.4-6.3 6.5-8.8 7.7-9.3 12.9-18.2 10.8-31.9-3.7-24.8.5-49.7 5.5-74.2 4.2-20.8 8.9-41.4 17.5-61 9.3-21.5 21.4-41.2 35.5-59.8 2.2-3 4.9-5.5 8.4-6.9 1.7-.7 3.6-2.6 5.2 0 1.2 1.9-.8 2.9-1.9 3.9-5.1 4.3-9.2 9.6-12.7 15.3-12.7 20.7-24.2 41.8-32 65.1-6.9 20.6-12.3 41.3-14.5 62.9-2.3 23.2-3.6 46.4.2 69.6.8 4.8.2 8.8-5.1 11.5-4.7 2.4-7.8 7.2-10.7 11.6-9 13.4-14.2 28.4-18.9 43.7-.9 2.9 1.9 7.6-3.9 8.8-3.5.7-6.7 2.9-10.4 3.3-2.6.4-5.1-1.6-7.8-.4-1.5 2.5-1.5 5.5-.4 7.7 5.7 10.9 11.4 22 24.3 26.2 5.3 1.7 10.5 4 16.1 5.1 8 1.5 15.9 4.6 23.6-1.2 1.2-.9 3.2-.8 4.9-.9 19.7-1.2 34.7-11.9 48.8-24.3 9.3-8.3 15.2-19.2 21.4-29.9 12.2-21.1 19.2-44.1 19.9-68.1.7-24.5 3.6-48.3 11-71.5 10.6-33.2 30.2-61.2 51.9-87.9 1.6-2 3.3-3.4 5.9-1.5 2.5 1.8 2.9 3.9 1.7 6.9-1.6 4.2-5.5 6.5-7.8 10.3-10.7 17.5-22.8 34.1-32.8 52.2-8.4 15.3-14.4 31.2-18.6 48-3.6 14.2-4 29-4.3 43.5-.4 21.1-5.7 40.4-13.9 59.5-7.8 18.1-19.6 33-32.7 47.2-2.6 2.8-6.7 4.2-8.5 8.4 17.2 16.7 36 30.8 56.4 42.9 12.3 7.3 25.2 13.4 38.5 18.6 1.4.5 3.4 1.3 2.9 3.4-.6 2.4-2.7 2.8-4.8 2.1-7.9-2.6-16-4.7-23.6-8.1-20.9-9.5-41-20.4-58.9-34.9-5.4-4.4-6-4.2-9.1 2.4-.3.6-.5 1.2-.7 1.9-9.3 24.5-13.3 49.9-13.6 76.1-.1 7.1 2 13.8 3.2 20.6.7 4 3.1 6.6 6.6 8.2 19.5 9 40.2 11.4 61.3 8.7 11.1-1.4 17.9-11.2 17-22.2-.7-8.6-1.8-17.1-6.5-24.8-1.2-2-3.3-4.3-1.6-7.1 5.8-.3 5.9-.4 9.5 1.4 16.8 8.4 33.5 6.9 49.9-.7 3.8-1.7 8.6-3.5 9.7-8 1.5-5.8 5-3.8 7.2-1.8 4.2 3.7 8.1 7.8 11.4 12.5 11.3 16.1 19.3 34 27.7 51.6 11.6 24.3 20.4 49.8 23.9 76.7.6 4.9 2.7 4.8 6.6 4.3 8.3-1.2 16-4.1 23.9-6.8 20.8-7 40.6-16.2 59.1-28.2 12.6-8.2 23.3-18.7 35.3-27.5 7.8-5.7 11.5-13.1 14-22.1 1.9-6.7-.4-12.4-1.5-18.6-3-17.2-13.7-28.4-28.4-36.4-9.9-5.4-13-4.7-18.8 4.8-7.1 11.8-17.6 19.7-28.9 26.9-2.8 1.8-5.8 2.7-8.3.8-3-2.2 0-4.7.8-7 8.8-29.2 11.6-57.9-6.3-85.2-1-1.5-2.7-3.1-.8-5.1 6.6.2 9.7 4.4 12.4 9.7 10.6 21.1 11.7 43.2 8.3 66-.3 2-2.2 4-.1 6.5 7-3.9 11.1-10.5 15.8-16.4 8.2-10.3 14.8-13.2 27.4-9.4 4.6 1.4 8.4 1.3 12.4-.5 12-5.4 24.5-10 35.9-16.4 12.7-7.1 24.6-15.6 36.6-23.9 7.9-5.4 15.8-11 23.1-17.3 27.2-23.6 46.5-53.4 64.3-84.3 13-22.6 21.6-47 28.5-72.1 5.8-20.9 9.5-42.2 10.3-63.7 1.3-34.2-4.9-67.6-15.6-100-11.8-35.7-30.4-67.5-55.3-95.9-16.4-18.7-34.6-34.8-55.1-48.5-5.8-3.9-11.7-7.7-17.6-11.3-8-4.9-8.1-4.8-13.2 2.8-4 6.1-8.3 12-12.3 18.1-4.5 6.8-8.8 13.8-13.6 21.3 8.1 1.6 15.2 2.3 22 4.7 13 4.6 24.5 11.7 36 19 25.3 16.3 41.8 39.4 52.2 67.2 1.7 4.5 3.2 9.5 3 14.6-.1 1-.3 2.1-1.4 2.2-.9 0-1.9-.4-2.6-1-1.3-1.1-1.6-2.8-2-4.4-4.2-17.3-11.6-33-23.7-46.5-8.7-9.7-18.3-18-29.2-25.3-17.2-11.6-35.9-17.9-56-21.7-3.8-.7-5.5.5-7.2 3.3-3.8 6.2-7.7 12.4-11.7 18.5-21.6 32.6-43.3 65.2-65 97.8-2.2 3.3-4.9 6.3-8.2 8.7-1.5 1-3.2.8-4.7 0-2-1-1.4-2.6-1-4.3 1.1-4.6 3.3-8.8 6.2-12.4 15.4-19.7 29.3-40.3 43.7-60.7 10.2-14.4 20.7-28.5 30.3-43.3 1.3-2 4-3.9 1.9-7.1-5.3-.2-10.6-.6-15.9.6-2.1.5-5.2 2-5.9-1.2-.6-2.5 1.5-4.9 3.9-6.1 2.7-1.3 5.6-1.8 8.7-1.9 4.3-.1 8.6-.8 13-.7 4.2.1 6.8-1.6 9-4.9 9.9-14.4 20.7-28.3 30-44.6z"/><path fill="#BCCFD3" d="M365.2 967.8c1.2.7 2.5 1.3 3.7 2-1.6 3.7-1.8 6.4 3.6 6.2 8-.3 15.7 2.4 23.6 3.3 4.1.5 7.6 2.6 10.9 4.7 4.6 2.9 4.6 5.1.3 8.2-1.6 1.2-3.3 2.3-5.1 3.1-14.9 6.5-30.4 11.4-46.2 14.9-32.2 7.2-65 10.4-97.7 13-20.8 1.6-41.9 1.7-62.6-3-4.9-1.1-9.5-2.7-13.9-5.3-3.4-2-4-4.6-1.5-7.3 5-5.3 9.7-11.2 16.7-13.9 15.8-6.1 31.6-12 48.5-14.8 11.5-1.9 23.1-3.1 34.6-4.6 14.4-1.8 28.9-2.9 43.5-1.4 10.9 1.1 21.9 1.1 32.9 1.3 4.2 0 9.1.4 8.7-6.4zm-95.7 40.9c24.2-1.1 48.2-4.6 72.1-7.9 8.2-1.1 16.2-3.1 24.3-5 4.9-1.2 5.3-4.2 5.7-8.5.4-4.8-3.1-4.7-5.5-5.5-7.6-2.7-15.7-2.2-23.6-2.9-25.3-2.2-50.3-.4-75.2 4.1-9.4 1.7-18.7 4.4-28.3 5.3-7.3.6-14 4.1-20.3 7.8-4.8 2.9-4.4 6.2.5 8.6 3 1.5 6 2.7 9.5 2.8 13.6.2 27.2 1.8 40.8 1.2z"/><path fill="#121111" d="M347.2 269.7c1.5 0 3 .2 4 1.6-6.6 12-15.7 22.3-23.7 33.3-21 28.7-40.6 58.4-60.6 87.8-20.5 30.2-40.6 60.8-61.8 90.5-19.7 27.6-38.8 55.5-58.2 83.3-6.1 8.7-11.3 18.1-17.2 26.9-20.6 30.6-41.4 61-60.8 92.5-2.4 3.9-6.1 7-9.3 10.4-1.2 1.2-2.8 2-4.5 1.2-2-.9-2.7-2.7-2.7-4.9.1-4 2.6-6.8 4.7-9.8 8.4-11.9 17.3-23.6 25.7-35.6 8.7-12.2 17.4-24.4 25.4-37 18-28.4 38.5-55 57.6-82.6 22-31.7 44.8-62.8 66.2-94.8 10.1-15.2 21.3-29.7 30.8-45.3 24.1-39.6 53.6-75.3 80.3-113 1.3-1.6 2.7-3 4.1-4.5z"/><path fill="#121010" d="M365.2 967.8c.5 6.7-4.5 6.4-8.7 6.3-11-.2-22-.2-32.9-1.3-14.6-1.5-29.1-.4-43.5 1.4-11.5 1.4-23.1 2.7-34.6 4.6-16.9 2.8-32.7 8.7-48.5 14.8-7.1 2.7-11.7 8.6-16.7 13.9-2.6 2.7-1.9 5.3 1.5 7.3 4.4 2.5 9 4.1 13.9 5.3 20.7 4.8 41.8 4.7 62.6 3 32.8-2.6 65.5-5.8 97.7-13 15.9-3.5 31.3-8.5 46.2-14.9 1.8-.8 3.5-1.9 5.1-3.1 4.3-3.1 4.3-5.3-.3-8.2-3.3-2.1-6.8-4.2-10.9-4.7-7.9-.9-15.6-3.6-23.6-3.3-5.4.2-5.3-2.4-3.6-6.2 2.5-2.5 5.5-3.9 9-2.8 10.1 3.3 20.8 3.9 30.5 8.8 10.6 5.3 11.5 12.9 2.7 21-12.3 11.3-27.7 15.4-43.3 18.8-21.1 4.6-42.6 6.8-64.1 8.5-20.8 1.6-41.5 4.5-62.3 6.2-17.9 1.5-35.8.3-53.4-3.4-6.8-1.4-14-3.3-15.6-11.8-1.7-8.7 2.6-14.7 9.3-19.4 7.2-4.9 15-8.6 23.1-11.6 27.4-9.9 55.5-15.5 84.7-16.8 21.3-.9 42.5-2.2 63.8-.8 3.9.5 7.9 1 11.9 1.4zm497.5 174.8c21.7 1.2 45.7 1.2 69.1 7.1 2.3.6 4.5 1.2 6.7 1.9 8.5 3 13.2 8.7 12.9 15.7-.2 6.5-6.5 14.6-13.6 16.8-13.4 4-27.1 6.8-41.1 7.7-36.9 2.3-73.7 1.5-110.5-1.8-5-.5-9.7-1.5-14.3-3.9-10.3-5.5-12-16.8-3.4-24.5 5.5-4.9 11.6-8.5 19.1-10.3 24-5.8 48.3-9.2 75.1-8.7zm49 11c-1.3-1.1-2.9-1.4-4.6-1.7-18.2-2.9-36.5-2.6-54.8-2.2-16.5.3-33.2.1-49.1 6-10.1.5-19.6 3.6-28.2 8.6-7.5 4.4-7 12.5.7 16.4 4.1 2.1 8.7 2.9 13.4 3.5 31.4 3.9 62.9 4.6 94.4 2.3 14.9-1.1 29.6-3.2 44.1-6.9 4.2-1.1 8.4-2.2 11.8-5 2.7-2.2 6.3-3.9 5.3-8.7-.8-4-3.9-5.1-7-6.1-8.4-3-16.9-6.1-26-6.2z"/><path fill="#121111" d="M1209.6 282c-.2 5.6-2 8.1-3.6 10.5-13.1 19.2-26.8 38-39.3 57.6-11.3 17.6-22.7 35.2-34.4 52.5-17.3 25.6-35.1 50.9-52.1 76.7-16.6 25.2-34.6 49.6-49.7 75.8-2.3 4-5.6 7.4-8.4 11.1-1.7 2.2-4.2 3.3-6.9 3.5-2 .2-4.1.2-5.1-2.1-.8-1.8.4-3.1 1.4-4.4 18.3-25.3 37.2-50.3 54.6-76.2 18.8-27.8 38.7-54.9 57.7-82.5 13.4-19.4 26.5-39 39.6-58.6 11.8-17.6 24.4-34.8 35.4-53 2.4-4 6.3-6.4 10.8-10.9zm-727.7 822.3c10.6-.2 21.3.1 31.6 2.9 2.6.7 5.1 1.6 7.4 2.8 3.7 1.9 4.5 5.3 4.6 9.2.1 4.1-2.1 5.8-5.4 7.3-12 5.3-24.9 7.1-37.7 8.6-18.1 2.1-36.3 3.5-54.5 3.8-13.2.3-26.5 1.1-39.6-1.5-4.5-.9-10.4-.6-11.2-6.4-.7-5.2 4-8.1 8.5-9.8 19.6-7.4 39.5-13.8 60.5-15.3 11.9-.8 23.8-1.9 35.8-1.6zm-44.6 9.4c-14.7.7-45.8 10.5-53.6 17.3 7 1.2 13.2 2.6 19.8 2.7 19.3.2 38.4-1.3 57.6-2.4 12.2-.7 24.4-2.4 36.5-4 5.2-.7 10.3-2.4 15.4-3.7 2.5-.6 4.5-1.9 4.2-4.7-.2-2.9-2.7-3.4-5.1-3.7-3.6-.5-7-2-10.8-1.6-2.7-1.6-5.8-1.8-8.7-1.9-11.9-.2-23.9-.3-35.8.1-6.4.4-13.1-.3-19.5 1.9z"/><path fill="#211C1C" d="M961.4 265.8c5.6-9.3 10.8-18.9 17.7-27.3.7-.8 1.6-1.1 3.8-.2-4.4 11.3-12.1 20.5-19 30.2-.9-1-1.7-1.8-2.5-2.7z"/><path fill="#121111" d="M935.3 303.7c2.1-7.1 7.2-12.4 11.6-18 .5-.6 1.8-.9 2.6-.7.8.2 1.7 1.4 1 2.3-4.6 6.7-6.6 15.4-15.1 19-.1-.9-.1-1.8-.1-2.6zm26.1-37.9 2.4 2.7c-1.7 4.4-5.1 7.6-7.8 11.3-1 1.4-2.3 2.4-4 1-1.3-1.1-.7-2.6.1-3.6 2.8-4 5.4-8.3 9.3-11.4zm-186.3 48c-.9 1.7-1.7 3.4-2.7 5-.9 1.3-2.1 2.9-3.8 1.6-2.1-1.6-1.1-3.3.5-4.7 1.1-.2 1.7-.7.9-1.8.3-1.5 1.3-2.3 2.6-3 .8.9 1.7 1.9 2.5 2.9zm160.2-7.6c-1 .7-1.7.4-2-.7l.1.2c.6-.7 1.3-1.4 1.9-2.1v2.6z"/><path fill="#211C1C" d="M769.9 313.8c.8 1.1.2 1.6-.9 1.8.4-.6.7-1.2.9-1.8zm7.7-3.6z"/><path fill="#151414" d="M1019 993.6c23.4-.2 43.3-.6 62.9 4.1 6.1 1.5 12.1 3.5 18.2 4.9 5 1.1 5.3 6.3 8.6 8.9 1.8 1.4 0 3.5-1.9 4.6-4.1 2.3-8.7 2.9-13.2 3.9-35.4 7.6-71.3 6.4-107.1 5.6-19.8-.4-39.7-2.1-59.2-6.1-1.3-.3-2.6-.6-3.9-.8-3.8-.6-7.8-2-7.8-6.2 0-4 3.8-5.7 7.4-6.9 14.5-5 29.7-6.9 44.8-9.2 18.1-3 36.4-3.2 51.2-2.8zm2.4 25.8c5.6.1 11.3-.1 16.9.2 17.4 1 34.4-1.8 51.4-4.4 4.4-.7 9.2-1.5 12.7-5.3-3-3.2-6.3-3.4-9.5-4.2-16.5-3.9-33.4-4.7-50.2-5.7-23.9-1.4-47.7-.1-71.5 2-11.9 1.1-23.6 2.8-35.3 5.4-3.5.8-7.2 1.3-9.1 6.2 12.3 2.9 24.4 4 36.6 4.2 1.7 1.4 3.7 1.3 5.6 1.3 17.5.5 34.9 1.5 52.4.3z"/><path fill="#121111" d="M1932.4 919.5c34.3.9 67.6 6.3 100.2 17.9 21.4 7.6 41.8 16.9 61 28.9 8.2 5.2 14.6 12.4 22.1 18.4 1.3 1 2.3 2.8 1.2 4.4-1.1 1.5-3 1.3-4.5.4-2.5-1.6-5-3.3-7.3-5.1-31-23.7-65.7-39.6-103.4-49.5-24-6.3-48.3-7.5-73.1-6.9-30.7.6-59.5 8.8-88.3 18.2-6.7 2.2-12.5 6-18.6 9.6-1.3.7-2.7 2.5-4.3 1-1.8-1.7-.8-3.8.4-5.4 2.1-3 4.6-5.9 8-7.3 20.6-8.3 41-17 62.9-21.5 14.4-2.9 29-3.2 43.7-3.1z"/><path fill="#211C1C" d="M1990.2 2328.7c3.2-3.8 6.5-4.2 9.5-5.2 13.6-4.5 26.5-10.8 38.3-18.8 24.8-16.8 48.5-34.8 69-56.9 14-15.1 28.4-29.9 42.2-45.2 7.4-8.1 14.2-16.7 22-24.4 14-13.9 31.2-18.2 50.3-16.6 1 .1 2 .2 2.9.5 2.5.9 3.9 2.7 3.2 5.4-.7 2.8-2.8 3.8-5.4 2.9-19.3-6.5-34.8 1-48.9 13.4-12 10.6-22 23.1-32.2 35.3-21.8 26.1-46.9 48.6-73 70.2-19.4 16.1-40.4 28.8-63.5 38.4-5.7 2.5-5.8 2.4-14.4 1z"/><path fill="#121010" d="M1987.7 1085c1.1 4.5.1 9.5-1.3 14.2-2.2 7.5-8.4 9.5-14.5 4.6-5.9-4.7-9.8-10.9-11.8-18.1-3.7-13.5-5.8-27.2-4.7-41.3.4-4.7.9-9.2 3.4-13.3 4.8-7.8 11-8.3 16.4-1 3.6 4.8 6.3 10.2 7.6 16.1 1.4 6.5 2.2 13.1 3.4 19.6 1 6.2 2.2 12.4 1.5 19.2zm-7.9 8c2.6-19.5-.9-36.4-9.6-52.4-1.9-3.4-5-2.8-6.3 1.2-1.1 3.4-2.3 7.3-1.8 10.7 1.4 10.2 2.9 20.3 7 29.9 2 4.6 5.3 7.3 10.7 10.6z"/><path fill="#121111" d="M2099.7 1103c1.5 15.7-3.6 27.7-17.5 35.2-2.4 1.3-4.9 2.1-7.6 2.1-1.7 0-3.2-.8-3.4-2.8-.2-2.1-.1-3.5 2.6-4.3 12.6-3.5 16.4-13.7 17.4-25 1.6-18.7-4.5-35.2-16.2-49.8-1.2-1.6-4.6-2.8-1.8-5.5 2.1-2 4.8-.8 6.4.7 4.1 3.8 8.1 7.8 11 12.7 6.9 11.5 9.8 23.9 9.1 36.7z"/><path fill="#151414" d="M2111.9 1052.7c0 1.4.1 2.1 0 2.8-.4 3.4 1.4 7.6-2.5 10-2.5 1.6-9.8-.8-12.7-3.9-6-6.1-9.4-28.6-5.6-36 1.2-2.4 3.2-3.2 5.7-3 6 .5 9.5 4.4 11.6 9.5 2.8 6.9 3.7 14 3.5 20.6zm-14.4-22.2c-2.7 12.2-1.1 18.4 5.4 23.2.9-8.1.2-15.4-5.4-23.2zm-170.3 215.4c.2-.7.6-2.6 1.5-4.4 9.1-18.8 23.8-30.5 44.1-35.3 2.1-.5 3.9-.7 5.1 1.5 1.3 2.5-.4 3.7-2.1 4.7-2 1.2-4 2.4-6.1 3.2-14.9 5.6-25.6 16.1-34.3 28.9-1.1 1.6-2.1 3.4-3.2 5-.9 1.4-2.1 2.9-4 2-1.8-.8-1.3-2.7-1-5.6z"/><path fill="#211C1C" d="M1937.3 990.3c0 16.2-17.5 32.7-29.1 37-2 .7-4 .7-5-1.6-.9-2.2.1-4.2 2.1-4.9 12.6-4.2 17.7-14.9 22.5-25.8.9-2.1 1.9-4.3 3-6.2 1.1-1.8 1.3-4.8 4.5-4.4 1.7.1 2.1 1.8 2 5.9z"/><path fill="#FDFDFD" d="M843.7 441.2c-9.3 16.4-20.2 30.3-30 44.8-2.3 3.3-4.8 5.1-9 4.9-4.3-.1-8.6.6-13 .7-3.1.1-6 .6-8.7 1.9-2.4 1.2-4.5 3.6-3.9 6.1.8 3.2 3.8 1.6 5.9 1.2 5.3-1.1 10.6-.8 15.9-.6 2 3.1-.6 5-1.9 7.1-9.6 14.8-20.1 28.9-30.3 43.3-14.4 20.3-28.3 41-43.7 60.7-2.9 3.7-5 7.8-6.2 12.4-.4 1.6-1 3.3 1 4.3 1.5.8 3.2 1 4.7 0 3.3-2.3 5.9-5.3 8.2-8.7 21.7-32.6 43.4-65.2 65-97.8 4-6.1 7.9-12.3 11.7-18.5 1.7-2.8 3.4-4 7.2-3.3 20 3.8 38.8 10.1 56 21.7 10.9 7.3 20.4 15.6 29.2 25.3 12.1 13.4 19.4 29.1 23.7 46.5.4 1.7.7 3.3 2 4.4.7.6 1.7 1 2.6 1 1.1 0 1.4-1.2 1.4-2.2.3-5.1-1.3-10-3-14.6-10.4-27.8-26.9-50.9-52.2-67.2-11.5-7.4-23-14.5-36-19-6.8-2.4-14-3.1-22-4.7 4.8-7.5 9.1-14.5 13.6-21.3 4-6.1 8.3-12 12.3-18.1 5.1-7.7 5.1-7.8 13.2-2.8 5.9 3.7 11.8 7.5 17.6 11.3 20.6 13.7 38.7 29.9 55.1 48.5 25 28.4 43.6 60.2 55.3 95.9 10.7 32.4 16.9 65.8 15.6 100-.8 21.5-4.5 42.8-10.3 63.7-6.9 25.1-15.5 49.4-28.5 72.1-17.7 30.9-37.1 60.7-64.3 84.3-7.2 6.3-15.2 11.8-23.1 17.3-12 8.2-23.9 16.8-36.6 23.9-11.5 6.4-23.9 11.1-35.9 16.4-4 1.8-7.8 1.9-12.4.5-12.7-3.8-19.2-1-27.4 9.4-4.7 5.9-8.8 12.5-15.8 16.4-2.1-2.5-.2-4.5.1-6.5 3.4-22.8 2.3-44.9-8.3-66-2.7-5.4-5.8-9.5-12.4-9.7-1.9 2-.2 3.6.8 5.1 17.9 27.2 15.1 56 6.3 85.2-.7 2.3-3.8 4.8-.8 7 2.5 1.8 5.5 1 8.3-.8 11.3-7.2 21.8-15.1 28.9-26.9 5.7-9.5 8.8-10.1 18.8-4.8 14.7 8 25.4 19.2 28.4 36.4 1.1 6.1 3.4 11.9 1.5 18.6-2.5 9-6.3 16.4-14 22.1-12 8.8-22.7 19.3-35.3 27.5-18.5 12-38.2 21.2-59.1 28.2-7.9 2.7-15.6 5.6-23.9 6.8-3.9.5-5.9.6-6.6-4.3-3.5-26.9-12.3-52.4-23.9-76.7-8.4-17.6-16.4-35.5-27.7-51.6-3.3-4.7-7.2-8.8-11.4-12.5-2.2-2-5.7-4-7.2 1.8-1.2 4.5-6 6.3-9.7 8-16.5 7.5-33.2 9-49.9.7-3.7-1.8-3.7-1.7-9.5-1.4-1.7 2.8.4 5.1 1.6 7.1 4.6 7.7 5.8 16.2 6.5 24.8.9 11.1-6 20.8-17 22.2-21.1 2.7-41.7.3-61.3-8.7-3.5-1.6-5.9-4.2-6.6-8.2-1.2-6.8-3.3-13.5-3.2-20.6.4-26.1 4.3-51.6 13.6-76.1.2-.6.5-1.3.7-1.9 3.1-6.6 3.7-6.7 9.1-2.4 17.9 14.5 38.1 25.4 58.9 34.9 7.5 3.4 15.7 5.5 23.6 8.1 2.1.7 4.2.3 4.8-2.1.5-2.1-1.4-2.9-2.9-3.4-13.3-5.2-26.2-11.3-38.5-18.6-20.4-12.1-39.2-26.2-56.4-42.9 1.7-4.1 5.8-5.5 8.5-8.4 13.2-14.2 25-29.1 32.7-47.2 8.2-19.1 13.5-38.5 13.9-59.5.3-14.5.7-29.3 4.3-43.5 4.2-16.7 10.2-32.7 18.6-48 10-18.1 22-34.7 32.8-52.2 2.3-3.7 6.1-6 7.8-10.3 1.2-3 .8-5.1-1.7-6.9-2.6-1.8-4.3-.4-5.9 1.5-21.6 26.7-41.3 54.7-51.9 87.9-7.4 23.2-10.4 47-11 71.5-.7 24-7.6 47.1-19.9 68.1-6.2 10.6-12 21.6-21.4 29.9-14 12.4-29.1 23.1-48.8 24.3-1.7.1-3.7 0-4.9.9-7.7 5.8-15.6 2.7-23.6 1.2-5.6-1.1-10.8-3.3-16.1-5.1-12.9-4.2-18.6-15.3-24.3-26.2-1.1-2.1-1.1-5.2.4-7.7 2.7-1.1 5.2.8 7.8.4 3.7-.5 6.9-2.6 10.4-3.3 5.8-1.2 3.1-6 3.9-8.8 4.7-15.3 9.9-30.3 18.9-43.7 3-4.4 6-9.2 10.7-11.6 5.3-2.7 5.9-6.7 5.1-11.5-3.7-23.2-2.4-46.4-.2-69.6 2.1-21.6 7.6-42.3 14.5-62.9 7.8-23.3 19.3-44.4 32-65.1 3.5-5.7 7.5-10.9 12.7-15.3 1.1-.9 3.1-1.9 1.9-3.9-1.6-2.5-3.5-.6-5.2 0-3.5 1.4-6.1 3.9-8.4 6.9-14.1 18.6-26.2 38.4-35.5 59.8-8.5 19.6-13.2 40.3-17.5 61-5 24.5-9.2 49.4-5.5 74.2 2.1 13.7-3.2 22.6-10.8 31.9-2.1 2.5-3.9 5.3-6.5 8.8-1.8-2.5-3.7-4.6-5.1-7-9.7-16.5-15.3-34.4-17.9-53.3-5.2-37.1-3.2-73.8 7.7-109.5 14.2-46.5 35.4-89.5 68.3-126.1 17.9-19.9 37.5-38.2 59.4-53.1 16.9-11.5 34.9-21.7 53.8-30 10.6-4.7 21.2-9.6 31.7-14.5 2.7-1.3 5.3-2.4 9.6-2.6-9.3 15.1-17.8 29.4-26.8 43.6-10.4 16.3-21.1 32.3-31.7 48.4-.7 1.1-1.5 2.2-1.9 3.5-.7 1.9-1.4 4.1.4 5.6 2.2 1.9 4.5.7 6.1-1.1 2.8-3.2 5.8-6.3 7.7-10.3 2.3-4.8 4.8-9.5 7.8-13.9 15.9-23.8 29.1-49.1 43.9-73.6 4.1-6.7 10-8.9 16.3-9.7 18.7-2.3 36.8-8.3 55.7-9.7 9.2-.7 18.3-1.5 27.5-.7.4 3.9-1.8 6.1-3.4 8.5-6.1 8.7-12.1 17.5-18.6 25.9-12.3 15.8-22.8 32.7-34.3 49-4.8 6.8-9.9 13.4-14.8 20.1-1.4 1.9-2.7 4-.1 6.1 2.2 1.8 4.6 1.4 6.3-.5 2.3-2.4 4.3-5.1 6.1-7.8 21.7-31.8 43.4-63.6 64.7-95.7 3.3-5 6.9-6.5 12.3-5.7 26.3 3.4 52.7 5.7 78.2 13.5 14.9 4.3 29.3 10.3 44 17.4zm41.7 226.4c-.5-3.4-.4-6.1-1.2-8.6-1.8-4.9-1.6-10.6-5.5-14.7-1.1-1.1-2.4-2.5-4.2-1.1-1.1.9-1.3 2.3-.9 3.6.3.9 1 1.7 1.4 2.6 5.3 12.5 3.3 23.7-5.6 34-4.3 5-9.4 7.9-16.1 8.1-1.9 0-4.4 0-4.4 2.8 0 2.3 2.1 3 3.9 3.8 6.3 2.8 12.1 2.5 17.6-2.1 9.3-7.4 13.1-17.7 15-28.4zm-90.9 52.9c-.8-1.9-2-3.8-4-4.2-2.5-.6-5.3-1.1-7.8-.7-19.5 3.2-32.5 15.2-41.9 31.8-.7 1.3-.9 2.5.3 3.5 1.6 1.4 3 .6 4.2-.7.7-.7 1.1-1.6 1.7-2.5 8.5-14.3 22.4-19.8 37.6-23.1 2.6-.6 5.2-.8 7.8-1.3 1.4-.3 2.1-1.4 2.1-2.8zM811.2 588c-3.8 2.5-5.2 6.5-7.6 9.5-8.6 10.5-17.5 20.8-32.4 22.1-1.3.1-2.7.3-2.8 2.1 0 1.4.5 2.6 1.7 3.4 1.8 1.2 3.8 1 5.8.8 15.5-1.4 25.9-10.4 33.8-23 2.6-4.3 6.8-8.7 1.5-14.9zm12.3 48.1c-.3-3.6 1-7.5-3.1-9.1-4.5-1.8-7.7.9-10 4.3-4.3 6.1-6 13.1-5.6 20.6.1 2.6.1 5.3 3 6.8 3.5 1.8 5.6-.8 7.9-2.5 7.2-5.1 5.6-13.5 7.8-20.1zm83.7-34.5c.3-2.1.3-2.7.4-3.4.4-2.8.7-6-2.7-6.5-4.8-.7-3.9 4-4.2 6.3-1.4 11.9 3 22.2 10.2 31.4 1.5 2 3.4 4.1 6.3 4.6 1.4.2 2.8.1 3.7-.9.8-1 .8-2.5-.1-3.7-1.1-1.3-2.4-2.4-3.2-3.8-4.4-8.1-10.8-15.3-10.4-24zm-114.9 84.1c7.2-.1 17.7-5.4 24.3-12 1.5-1.5 3-2.9 1.4-5-1.4-1.9-3.6-1.8-5.3-.6-3.5 2.4-6.6 5.5-10.3 7.6-4.4 2.5-8.9 6.2-14.2 1.7-1.2-1.1-2.6-2.6-4.1-1-1.6 1.7-.6 3.7.6 5.4 1.8 2.7 4.4 4 7.6 3.9zm97-28.4c.1 3-.1 6.9 4.2 7.5 3.5.5 5-2.4 6.2-5.3 1.3-3.1 2.8-6.4 1.6-9.6-.9-2.5-1.8-6.3-5.2-6.7-3.8-.4-4.4 3.1-5.4 6-.9 2.6-1.2 5.2-1.4 8.1z"/><path fill="#151414" d="M269.5 1008.7c-13.6.6-27.2-1.1-40.8-1.3-3.4-.1-6.5-1.4-9.5-2.8-4.9-2.4-5.3-5.7-.5-8.6 6.3-3.7 13-7.2 20.3-7.8 9.7-.8 18.9-3.6 28.3-5.3 25-4.5 50-6.3 75.2-4.1 7.9.7 16 .2 23.6 2.9 2.4.8 5.9.7 5.5 5.5-.4 4.3-.8 7.4-5.7 8.5-8 1.9-16.1 3.8-24.3 5-23.9 3.5-47.9 6.9-72.1 8zM235.1 998c29.8 6.8 118.4-.9 130.5-11.7-45-2.9-88.4-2.8-130.5 11.7z"/><path fill="#BCCFD3" d="M911.7 1153.6c9.1.2 17.6 3.2 26.1 6.1 3.1 1.1 6.2 2.1 7 6.1 1 4.7-2.6 6.5-5.3 8.7-3.4 2.8-7.6 4-11.8 5-14.5 3.7-29.2 5.8-44.1 6.9-31.6 2.3-63 1.6-94.4-2.3-4.7-.6-9.3-1.3-13.4-3.5-7.7-4-8.2-12.1-.7-16.4 8.6-5 18.1-8.1 28.2-8.6.7.6 1.4 1.1 2.1 1.7-2.2.7-4.4 1.3-6.6 2.2-3 1.3-7 2.3-6.7 6.3.3 3.9 3.6 6.1 7.3 7.2 1.6.5 3.2.7 4.8 1 12.7 2.5 25.5 2.5 38.4 2.3 22.8-.3 45.6-.4 68.4-1.6 3.7-.2 7.5-.2 8.3-5 1.6-.9 2.1-2.3 2-4 1.3-4.1-.5-6.4-4.3-7.3-5.2-1.1-10.4-2-15.6-3 3-3 6.9-1 10.3-1.8z"/><path fill="#A9BBC0" d="M805.4 1157.3c-.7-.6-1.4-1.1-2.1-1.7 15.9-5.9 32.6-5.7 49.1-6 18.3-.3 36.6-.7 54.8 2.2 1.7.3 3.3.6 4.6 1.7-3.4.9-7.3-1.1-10.3 1.8-2-.1-4-.1-5.9-.3-30.3-3-60.3-3.4-90.2 2.3z"/><path fill="#BCCFD3" d="M501.4 1113.7c3.7-.3 7.2 1.1 10.8 1.6 2.4.3 4.8.8 5.1 3.7.2 2.8-1.7 4.1-4.2 4.7-5.1 1.2-10.2 3-15.4 3.7-12.1 1.6-24.3 3.3-36.5 4-19.2 1.1-38.4 2.6-57.6 2.4-6.6-.1-12.8-1.4-19.8-2.7 7.8-6.8 38.9-16.6 53.6-17.3 4.6 1.2 9.6-1.1 14 1.7-7.5 1.4-15.1 1.9-22.4 4.3-1.7.5-3.2 1.6-2.8 3.4.2.9 1.9 1.9 3.1 2.1 9.8 2 19.8 1.4 29.7 1 1.4-.1 2.6-1 2.4-2.5-.3-2.2-2.4-1.8-3.8-2.3.1-.4.1-.8 0-1.2 7.3-.7 14.6-.8 21.9.5 1.8.3 3.5-.4 3.5-2.4s-1.9-2.4-3.5-2.9c7.1-3.8 14.7-.7 21.9-1.8z"/><path fill="#83979D" d="M451.3 1115.4c-4.4-2.7-9.4-.4-14-1.7 6.4-2.2 13.1-1.5 19.7-1.7 11.9-.4 23.9-.3 35.8-.1 2.9 0 6 .3 8.7 1.9-7.3 1.1-14.9-2-22 1.6-9.4-.1-18.8 0-28.2 0z"/><path fill="#BCCFD3" d="M963.4 1017.9c-12.2-.3-24.3-1.3-36.6-4.2 1.9-4.9 5.6-5.4 9.1-6.2 11.6-2.6 23.3-4.4 35.3-5.4 23.8-2.1 47.6-3.4 71.5-2 16.8 1 33.7 1.8 50.2 5.7 3.2.8 6.6 1 9.5 4.2-3.5 3.8-8.3 4.6-12.7 5.3-17 2.6-34.1 5.4-51.4 4.4-5.6-.3-11.3-.2-16.9-.2l-2.1-3.9c.7-5.1-3.7-3-5.9-4.1-1.1-2.4-4.4-1.1-5.7-3.3 14.1-.1 28.2 2.5 43.4.9-3.4-4.4-7-4.8-10.6-5.3-13.2-2-26.4-1.7-39.6-1.1-7.6.3-15.1 1.9-22.6 3.1-2.6.4-6.2.9-6.3 3.7-.2 3.5 3.6 3.8 6.5 4.6 4.2 1.2 8.5 1.5 12.7 1.9-2.2 2.9-5.3 1.8-8.2 1.8-6.5.1-13 .1-19.6.1z"/><path fill="#83979D" d="M963.4 1017.9H983c2.8 0 6 1.1 8.2-1.8 2.7-.6 5.1.9 7.6 1 6.8.3 13.9 3.1 20.4-1.5l2.1 3.9c-17.4 1.1-34.9.2-52.3-.2-1.9-.1-3.9 0-5.6-1.4z"/><path fill="#FDFDFD" d="M1979.8 1093c-5.5-3.3-8.8-6.1-10.7-10.6-4.1-9.6-5.6-19.7-7-29.9-.5-3.4.7-7.3 1.8-10.7 1.3-4 4.4-4.6 6.3-1.2 8.7 16 12.2 33 9.6 52.4z"/><path fill="#BCCFD3" d="M2097.5 1030.5c5.6 7.8 6.3 15.1 5.4 23.2-6.5-4.8-8.1-11-5.4-23.2z"/><path fill="#151414" d="M885.4 667.6c-1.9 10.7-5.7 20.9-15 28.6-5.5 4.5-11.3 4.9-17.6 2.1-1.9-.8-4-1.5-3.9-3.8.1-2.8 2.6-2.7 4.4-2.8 6.7-.2 11.8-3 16.1-8.1 8.9-10.3 10.8-21.5 5.6-34-.4-.9-1.1-1.7-1.4-2.6-.4-1.3-.2-2.7.9-3.6 1.8-1.5 3.1-.1 4.2 1.1 4 4.1 3.8 9.8 5.5 14.7.8 2.3.8 5.1 1.2 8.4z"/><path fill="#211C1C" d="M794.5 720.5c0 1.4-.6 2.5-2.1 2.8-2.6.5-5.2.8-7.8 1.3-15.2 3.3-29.1 8.9-37.6 23.1-.5.9-1 1.8-1.7 2.5-1.2 1.3-2.6 2.1-4.2.7-1.2-1-1-2.2-.3-3.5 9.4-16.6 22.4-28.6 41.9-31.8 2.5-.4 5.3.1 7.8.7 2 .4 3.2 2.3 4 4.2z"/><path fill="#151414" d="M811.2 588c5.3 6.3 1.1 10.6-1.6 14.9-7.9 12.5-18.3 21.5-33.8 23-2 .2-4 .4-5.8-.8-1.2-.8-1.7-2-1.7-3.4 0-1.8 1.4-2 2.8-2.1 14.9-1.3 23.8-11.6 32.4-22.1 2.5-3.1 3.8-7 7.7-9.5zm12.3 48.1c-2.2 6.6-.6 15.1-7.8 20.1-2.3 1.6-4.4 4.2-7.9 2.5-2.9-1.5-2.9-4.3-3-6.8-.4-7.5 1.4-14.4 5.6-20.6 2.3-3.4 5.5-6 10-4.3 4 1.6 2.8 5.4 3.1 9.1zm-7.1-1c-3.3 5.5-5.6 9.7-4.5 16.1 4.8-4.7 6.6-9.1 4.5-16.1z"/><path fill="#121111" d="M907.2 601.6c-.4 8.7 6 15.9 10.4 24 .8 1.4 2.2 2.5 3.2 3.8 1 1.2 1 2.6.1 3.7-.8 1-2.3 1.1-3.7.9-2.9-.5-4.8-2.6-6.3-4.6-7.1-9.2-11.6-19.5-10.2-31.4.3-2.3-.6-7 4.2-6.3 3.4.5 3.2 3.7 2.7 6.5 0 .7-.1 1.3-.4 3.4z"/><path fill="#211C1C" d="M792.3 685.7c-3.2.1-5.8-1.2-7.7-3.8-1.2-1.7-2.3-3.6-.6-5.4 1.5-1.6 2.9-.1 4.1 1 5.3 4.5 9.9.8 14.2-1.7 3.7-2.1 6.8-5.2 10.3-7.6 1.8-1.2 3.9-1.3 5.3.6 1.6 2.1 0 3.5-1.4 5-6.5 6.6-17.1 11.8-24.2 11.9z"/><path fill="#151414" d="M889.3 657.3c.2-2.9.6-5.5 1.5-8 1-2.8 1.6-6.4 5.4-6 3.4.4 4.2 4.1 5.2 6.7 1.2 3.1-.3 6.5-1.6 9.6-1.2 2.9-2.8 5.8-6.2 5.3-4.4-.7-4.2-4.6-4.3-7.6z"/><path fill="#BCCFD3" d="M235.1 998c42.1-14.5 85.5-14.6 130.5-11.7-12.2 10.8-100.8 18.5-130.5 11.7z"/><path fill="#0C0C0C" d="M805.4 1157.3c29.9-5.7 60-5.3 90.1-2.2 2 .2 4 .2 5.9.3 5.2 1 10.4 1.9 15.6 3 3.9.9 5.7 3.2 4.3 7.3-7.5-1-15-2.3-22.5-2.8-28.2-2.1-56.3-4.9-84.4 1-4.3.9-5.3 1-10.2 4 1 .4 1.9 1.1 2.7 1.1 34.6 1.2 69.2 1.7 103.8-.6 3.1-.2 6-.2 8.7 1.3-.9 4.8-4.6 4.8-8.3 5-22.8 1.1-45.6 1.2-68.4 1.6-12.9.2-25.7.2-38.4-2.3-1.6-.3-3.3-.5-4.8-1-3.7-1.1-7-3.3-7.3-7.2-.3-3.9 3.7-5 6.7-6.3 2-.8 4.3-1.5 6.5-2.2z"/><path fill="#A9BBC0" d="M919.4 1169.8c-2.7-1.5-5.6-1.5-8.7-1.3-34.6 2.4-69.2 1.8-103.8.6-.9 0-1.7-.7-2.7-1.1 4.9-3 5.9-3.1 10.2-4 28.1-5.9 56.2-3.1 84.4-1 7.5.6 15 1.9 22.5 2.8.2 1.6-.4 3.1-1.9 4z"/><path fill="#0C0C0C" d="M451.3 1115.4h28.1c1.6.5 3.5.8 3.5 2.9 0 2-1.7 2.7-3.5 2.4-7.3-1.2-14.6-1.1-21.9-.5-2.3-.1-4.7-.9-7.2.8 2.7 1.9 5 .5 7.2.5 1.4.5 3.6.1 3.8 2.3.2 1.5-1 2.4-2.4 2.5-9.9.5-19.9 1.1-29.7-1-1.2-.2-2.8-1.2-3.1-2.1-.5-1.8 1.1-2.9 2.8-3.4 7.3-2.5 14.9-3.1 22.4-4.4z"/><path fill="#83979D" d="M457.5 1121.4c-2.2 0-4.5 1.4-7.2-.5 2.5-1.7 4.9-.9 7.2-.8.1.5.1.9 0 1.3z"/><path fill="#151414" d="M1019.2 1015.6c-6.5 4.6-13.6 1.8-20.4 1.5-2.5-.1-4.9-1.6-7.6-1-4.3-.5-8.5-.7-12.7-1.9-2.8-.8-6.6-1.1-6.5-4.6.1-2.8 3.7-3.3 6.3-3.7 7.5-1.2 15-2.8 22.6-3.1 13.2-.5 26.5-.9 39.6 1.1 3.6.6 7.2.9 10.6 5.3-15.2 1.6-29.3-1.1-43.4-.9h-14.1c7.2 4.7 13.6 3.2 19.8 3.3 2.1 1 6.5-1.2 5.8 4z"/><path fill="#83979D" d="M1013.4 1011.5c-6.1-.1-12.5 1.4-19.8-3.3h14.1c1.3 2.1 4.5.9 5.7 3.3z"/><path fill="#A9BBC0" d="M816.4 635.1c2 7 .2 11.4-4.5 16.1-1.1-6.4 1.2-10.6 4.5-16.1z"/></svg>