<svg viewBox="0 0 2409.8 3031.3" xmlns="http://www.w3.org/2000/svg"><path fill="#0A0B0B" d="M1638.8 122.6c2.7-2.5 5.4-4.9 8.1-7.4 17.4-15.8 34.7-31.7 52.3-47.4 5.8-5.2 13.4-7.2 20.8-9 9.8-2.3 19-5.9 27.8-10.5 24.5-12.8 49.3-14.4 76-7 20.6 5.7 40 13.3 59 23.1 10 5.1 20.1 9.8 29.5 16.1 18.8 12.5 33.6 28.7 43.8 49 1.3 2.6 3.1 5.2 5.2 7.3 10.4 10.7 17.2 24.3 28 34.8 1.8 1.8 3.6 4.3 4.1 6.8 1.4 6.4 5.9 10.6 10.4 14.3 14.9 12.1 24.1 28.1 31.3 45.2 3.9 9.2.9 19-.2 28.3-3.4 27.3-16.3 50.7-31.1 73.2-11.6 17.6-19.7 37.1-26.6 56.6-5.2 14.6-10.5 29.2-16.3 43.6-1.6 3.9-.2 5.3 3.3 6.3 16.8 5.1 33.6 10.1 50.2 15.7 12.8 4.3 25.4 9.4 38 14.3 16.3 6.4 32.7 12.5 48.8 19.5 13.6 6 27.1 12.5 40.5 18.9 13.2 6.3 27.2 10.2 40.8 15.6 15.4 6.1 30.5 12.8 44.9 21.1 5.2 3 10.7 5.3 16.1 7.8 12.3 5.8 24.1 12.4 35.5 19.8 11.6 7.6 24.4 13.6 35.5 21.8 18.1 13.5 35.2 28.3 47.8 47.5 3.8 5.8 9.1 10.5 12.2 16.9 2 4.2 3.2 8.4 3.6 13.2 1.1 16.5 4.3 32.7 7.8 48.8 4.8 22.3 9.7 44.6 12.2 67.4 2 19 3.4 38.2 6.5 57.1 5.4 33 5.6 65.9-1.6 98.8-3.2 14.5-6 29.2-10.5 43.3-7.4 23.4-18 45.3-32.2 65.6-19.8 28.3-38.5 57.3-55.8 87.2-3.3 5.8-8.4 10.1-11.7 15.9-2.1 3.7-7.3 4.2-11.5 5-8.4 1.6-16.9 2.8-25.6 4.2-1.2 3 1.7 4.7 3.1 6.5 26.2 34.5 49.5 70.6 65 111.3 1.8 4.6 4.4 9 5.9 13.7 4.3 12.8 1.1 24.9-3.8 36.8-10.5 25.5-26.6 47.3-45.1 67.5-13.7 14.9-27 30-40.6 45.1-1.7 1.9-3.7 3.7-4.6 7.1 7.8 3.8 15.5 8.5 23.7 11.4 18.7 6.5 35.2 16.9 51.2 28.1 9.4 6.6 18.8 13.4 26.2 22.3 4.1 5 7 10.2 7.1 17 .6 22.6-4.7 44-11.3 65.3-7.9 25.5-20.9 48.7-33.7 71.8-10.8 19.5-24.7 36.9-39.6 53.3-4.1 4.5-5.1 7.7-2.3 12.9 5.8 10.8 11.3 21.7 16.7 32.7 6.9 14 13.2 28.3 20.3 42.1 9.5 18.6 19.4 37 29.2 55.3 4.3 8 7.5 16.1 7.2 25.5-.6 23.2-.3 46.4-4.2 69.3-4.7 26.9-15.4 51.3-30.9 73.7-8.7 12.6-17.3 25.2-28.6 35.6-2.5 2.3-2.7 4.9-1.5 8.1 3.4 8.6 5.1 17.6 11 25.3 4.3 5.6 6.1 13.1 9 19.7 5.8 13.1 10.2 26.6 12.3 40.8 1.2 8.7-.7 17.1-2.9 25.5-5.8 22.6-15.8 43.5-26 64.3-2.9 5.9-3.8 7.5 2.4 12.4 16.9 13.3 25.1 32.2 30.2 52.4 6 23.8 9.6 48.1 12.1 72.4 1.3 12.8 1.2 25.8 4.3 38.5 3.7 15.2 10.1 28 27.2 32 6.1 1.4 12 3.9 18 5.7 12.1 3.6 19 10.8 22.1 23.8 4.9 20.6 8.4 41.5 13.5 62 2.7 10.9 2.7 22.2 3.5 33.4 1.1 15.2 2.8 30.4 5.1 45.4.7 4.6.9 9.2 1.3 13.8 2.4 25.9 1.3 51.8 1.8 77.7.3 15.6-.8 31.2-2 46.7-.6 8.3-3.3 15.5-11 20.9-11.6 8.2-23.6 14.8-37.3 18.3-4.8 1.2-6.2 3.5-6.3 8.3-.8 23.8 1 47.5 3.8 71.1 1.5 12.8 2.1 25.8 3.1 38.6 2.1 26.2 1.8 52.4 1.9 78.7.1 10.1-.2 9.6-9.3 13-14.6 5.5-29.5 7.9-44.9 5.9-12.4-1.6-24.7-3.8-35.8-10.6-4.4-2.6-6.2-5.4-6.4-10.1-.3-10.5-1-21.1-1.1-31.6-.3-24.2-.6-48.4-.6-72.6 0-26.5 1.4-53 3.7-79.4.5-5.6-.5-7.4-6.3-8-10.8-1.2-21.3-4.7-32.3-3.2-3.2 9.2.4 18 .5 26.8.1 16.8.5 33.6.9 50.4.1 6 .5 11.9 1 17.9 1.5 19.4-9.7 25.9-24 28-15.4 2.3-31 0-46.2-4.2-4.9-1.4-8.4-3.7-8.3-9.5 0-2.9-1.6-5.9-1.5-8.8.8-21.2-2.2-42.2-1-63.5.7-12.6.1-25.7.9-38.8-8.3-1.6-16.1-.6-24 .5-29 4.3-56.7 13-83.6 24.2-12.3 5.1-24 3.6-35.9 2-24-3.2-47.8-7.4-72.1-7.4-7 0-13.8-1.3-20.8-1.6-33.4-1.1-65.9 5.5-98.6 10.6-22.5 3.5-44.9 8.1-67 13.5-26 6.3-52.2 11.3-78.2 17-14.6 3.2-30.1 4-45.2 2.9-25.8-1.9-51.2-6.6-75.5-15.2-10.7-3.8-20.8-9.8-31.5-14-8-3.1-15.8-6.7-23.7-10.1-10.8-4.7-22.4-7.8-33.9-10.9-12.1-3.2-24.5-5.6-36.8-8.4-9.8-2.2-19.8-2-29.7-2-15.6 0-31.3 1.5-46.7 1.3-16.8-.2-32.7 3.3-49 4.8-8.7.8-16 5.7-24.7 7.1-18.2 2.9-33.7 13.1-49.8 21.4-9.5 4.9-18.7 10.3-26.4 17.7-3.5 3.3-6.9 2-10.2 1.1-4.5-1.2-8.6-3.4-12.9-5.2-14.6-5.9-30.1-7.4-45.4-9.8-11.1-1.7-21.9-5.1-33.4-3.9-13.6 1.4-26.7 3.1-38.6 10.9-7.4 4.9-15.7 8.7-23.9 12.2-4.7 2-9.7 2.4-15.4.7-11.1-3.3-22.5-6.1-32.4-12.3-11-6.8-21.4-14.5-31.9-21.9-1.9-1.3-3.7-2.6-5.6-3.9-10.1-6.7-20.2-5.4-31.3-2.1-27.2 8.3-54.7 16-81.5 25.5-.6.2-1.3.8-1.9.7-3.8-.7-8.5 2.4-11.2-1.3-2.3-3.3.8-6.9 2-10.3.6-1.6 1.5-3 2.1-4.5 7.4-20 8.5-14.6 4.5-37.2-25 1.9-50.1 2.5-75 .6-18-1.4-36.1-.6-54.1-2.8-2.3-.3-4.7-.2-7-.1-32.5 1.6-64.9-.6-97.4-1.1-26.5-.4-53.2-.5-79.7-1.9-19.1-1-38.4-1.6-57.4-4.8-2.3-.4-4.6-.2-7-.2-32.4-.3-64.8-2.1-97.2-3.8-20.2-1.1-40.5-.8-60.8-.7-5.6 0-11.1-1.5-16.8-.4-3.6.7-5.1 1.7-4.9 5.5 2 33.4 1.8 66.9 1.9 100.4.1 12.3-.8 13.9-12.5 14-7.9.1-15.6 1.8-23.5 2.1-6.5.2-12.5-1.3-18.7-2-6.1-.6-9-4.3-9.3-10.8-1.7-31.5-5-62.9-4.1-94.5.1-3.4 1.3-6.5 1.3-9.8.1-5.8-.9-7.5-6.2-7.9-7-.5-14-.5-21-.6-2.7 0-3.7.9-3.7 4.2.2 13.5-1.1 27.1-.2 40.6 1.6 25.9.8 51.9 2.2 77.7 1.1 19.2.4 38.4 2.8 57.6 1.1 8.7 0 17.7.3 26.6.1 4.1-1.7 6.2-5.2 7.4-2.8.9-5.7 2.2-8.6 2.3-16.6.5-33.2.4-49.5-3.7-13.8-3.5-16.4-7.5-17-21.4-.5-12.2-2.7-24.4-3.1-36.6-1.7-48.6-.7-97.2-.1-145.7v-3c.7-11.3.7-11.3-11-11.3-6 0-11.9-.1-17.8-1.9-11.1-3.4-17.5-10.3-20.2-22-6.3-27.3-8.5-54.9-10.1-82.8-1.4-23.9-1.3-47.8-.7-71.6.5-21.7 1.2-43.5 4.8-65.2 2-12 2.3-24.4 4.8-36.4 1.2-5.4 3.1-10.3 8.6-12.4 3.8-1.4 8.1-1.1 11.8.2 7.5 2.6 15.2 4.1 23.4 4.7.9-3.7-.6-7-1.3-10.5-5.7-28.3-11-56.8-8.3-85.9 1.4-14.9 4.6-29.1 15-41.2 10.4-12.1 17.4-26.6 24.1-41.1 2.9-6.4 3-7.6-3.5-9.6-17.8-5.7-27.8-19.2-37.5-33.8-10.1-15.2-20.9-30-28.9-46.5-9.9-20.6-20.5-40.8-29.1-62-6.1-15.1-4.8-30.5-1.2-45.7 3.2-13.5 7.4-26.8 11.4-40.1 6-20 13.2-39.6 21.5-58.8 1.4-3.2 2.4-6.1 1.3-9.5-7.4-23.2-10-47.3-12.7-71.2-1.8-15.8-1-31.9-.2-47.8.4-9.1 6.3-16.5 11.3-23.9 12.7-18.9 28.7-34.8 44.5-51 8.6-8.8 17.4-17.2 27.1-24.9 9.8-7.8 18.8-16.8 31.5-20-1.2-4.8-5.4-5.5-8.3-7.3-15-9.4-27.6-21.8-41.9-32.1-12.4-8.9-24-18.5-35-29.2-4.9-4.8-11.3-8.2-17.6-11.1-5.6-2.6-10.3-6.2-14.4-10.4-6.9-7.2-13.1-15-19.6-22.5-10-11.5-15-25.5-20.8-39.2-2.2-5.2-.5-10.6-.3-15.5 1-31.8 3.9-63.5 13.9-94 6.9-20.8 10.7-42.4 17.4-63.3 1.5-4.5 1.1-8.3-1.2-12.3-13.4-23.3-17.4-49.2-20.5-75.2-.9-7.8-2.9-15.5-2.8-23.5.1-9 1-17.9 2.4-26.7.6-3.5 1.8-7.1 3.6-10.3 13.7-24.7 26.6-50 44.9-71.6 11.7-13.9 21.7-29.4 35.2-41.7 9.2-8.4 14.6-19.6 23.6-28.2 16.2-15.2 32.3-30.6 49.1-45.2 11.2-9.7 22.3-19.7 35.8-27.4-6.4-7-14.1-10.4-21.3-11.8-27.4-5.3-49.2-20.6-70.9-36.7-4.9-3.6-9-7.8-12.6-12.7-11.2-15.4-21-31.6-27.4-49.5-2.8-7.7-3-15.9-3.2-24.2-.4-20.5 4.2-40.2 7.6-60.1 1.3-7.3 4.2-13.9 6.8-20.7 7-18.5 17.7-34.8 29.3-50.6 1.8-2.5 4.2-4.2 6.8-5.7 21.5-12.7 40.6-28.8 62.1-41.5 3.9-2.3 8-5.1 10.8-8.6 5.6-7 13.2-8.1 21.2-8.3 4.5-.1 9.1 0 14.3 0-.7-4.5-3.8-6.4-5.7-8.8-14.3-18.2-28.2-36.7-38.1-57.9-7.2-15.5-10.8-32-12.3-48.9-1.2-13.8-2.8-27.6-2.1-41.6.8-17.4 4.8-34.1 9-50.8 5-19.9 11.2-39.4 16.6-59.2 3-10.9 7.7-21.1 11.9-31.5 9.8-24.3 15.8-49.8 23.7-74.7 4.4-13.6 10.5-26.5 15.6-39.8 3.7-9.6 7.1-19.1 13.5-27.4 2.3-3.1 4.6-5.4 8.2-6.8 17.9-7 36.1-12.6 54.8-17.1 17-4.1 33.8-9.5 50.4-15.1 26.6-9 52.5-20.1 77-33.6 18.3-10 37-19.2 54.7-30.3 7.4-4.7 16.1-7.6 24-11.6 2.5-1.3 5.8-1.4 8.8-1.5 29.6-1.1 59.1.4 88.2 6.3 16.5 3.4 32.2 9.3 47.5 17.3 21 11 36.7 27.7 53.3 43.7 3.1 2.9 5.7 6.6 9.8 8.4.7.6 1.5 1.5 2.3.5.7-.9.1-1.8-1-2.1-9-19.2-6.1-39.7-5.9-59.7.3-26.6 5.5-52.4 14.2-77.5 2.2-6.3 5.8-11.1 10.9-15.9 19.8-18.7 44.4-30 67-44.2 16-10 34-16.1 50.2-25.7 3.4-2 6.5-4.7 9.9-6.8 14.5-8.9 30.4-15 46.5-19.7C943 16.8 957.3 12 971.6 7c6.2-2.1 12.8-2.6 18.7-5.9 4-2.2 9.2-1 13.8.1 35.8 8.3 71 18.3 104.4 34.4 23.8 11.5 47.3 23.4 70.9 35.3 22.5 11.3 44.5 23.5 67 34.8 9.7 4.9 19.3 10.1 28.3 16.3 10.1 7 22.1 10.4 32.6 16.9 10.7 6.7 20.9 14 31.5 20.8 4.5 2.9 6.4 8.3 11.5 11.6 7.8-13.3 17-25 23.8-38.2 2-3.9 3.7-7.9 4.4-12.1 2-12.4 8.5-23 13.3-34.2 4.9-11.4 14.9-18.6 23.4-26.9 8.7-8.5 18.4-16 27.5-24.2 4.1-3.7 8.7-5.8 13.8-7.3 20.8-6.2 42-8.2 63.8-7.5 15.7.5 31 2.1 46.2 5.8 8.6 2.1 16.2 5.6 23.2 10.8 8.3 6.1 17 11.8 24.6 18.6 10.9 9.7 20.9 20.2 24.2 35.5 1.2 5.6.2 10.5-1 15.6-1 4.2-2.3 8.3-1.2 12.7-.6 1.6-2.5 3.3-.3 4.7 1.3.8 2-1.1 2.8-2zM1048 559.3c7.7-9.3 18-26.9 18.9-32.8-9.7.5-19.2-.4-29.7-1 1.1 2 1.4 3 2.1 3.5 10.3 7.7 11.4 17.6 7.1 28.9-.3 1-1.9 2.1-.5 3.1 1.6 1.1 1.7-.7 2.1-1.7zm195.7 453.4c-.4-.4-1-1.2-1-1.2-1 .7-.7 1.5.1 2.2 9 13.8 20.8 25.7 27.1 42.3 7.5-7.8 14.8-13.9 21.4-22.4-14.9-2.1-26.7-7.5-36.9-16.5-2.9-2.6-6.5-4.3-10.7-4.4zm143-748.7c-.8-.7-1.2-2.7-2.5-1.7-.9.7-.5 2.4 1.1 2.9-1 4 1.5 7.1 3.1 10.2 2.7 5.3 5.4 10.7 6.3 16.6 1.8 12.1 6.4 23.3 10.4 34.7 3.4-.6 5.7-2.8 6.4-4.9 2.3-7 8-11.2 12.3-16.6 4.2-5.3 10.8-8.4 14.3-14.9-18.6-6.8-36.2-14.3-51.4-26.3zM1784 533.6c11-7.2 22.9-12.9 33.2-21.4 10.2-8.4 23.3-13.3 32.9-24-5.1-2.6-9.5-1.5-13.6-2.4-13-2.7-25.9-5.3-38.7-8.8-5.3-1.4-6-.6-6.5 5.2-.5 5.6.6 11.1-.5 16.8-2.2 10.7-4.7 21.4-7.8 31.9-.4 1.5-.4 2.5 1.2 2.9-.2-.9-.8-1.4-1.7-1.1-.2.1-.3.6-.2.8.3.9 1 .5 1.7.1zm217.3 1268c-1.6-.2-3.8.1-4.8-.8-6.4-5.5-14.5-3.7-21.8-5.4-5.9-1.4-10.3 1.1-12.6 6.9-2.3 5.7-6.1 9.9-11.6 13.2-7 4.3-6.8 4.8-12.7-1.1-9.7-9.7-19.9-18.6-31.1-26.4-15.5-10.9-31.8-20.4-47.7-30.7-3.7-2.4-7.5-5.9-12.9-3.8 2.7 11.3 10.5 19.8 16.1 29.4 1.8 3 3.1 5.7.2 7.7-3 2-5.5 0-7.2-3.1-10.4-19.3-21.8-38-29.1-58.8-1.8-5.1-4.8-9.4-8-13.7-2.7-3.6-5.7-4-9.4-1.6-4.2 2.7-8.4 5.4-12.6 8-1.7 1-3.6 2.3-5.2.1-5.5-7.8-14.3-11.8-21-18.2-16.7-15.8-34.9-29.7-53.6-43-6.5-4.6-9.7-10.4-10.5-18.2-.8-8.1-2.3-16.2-3.4-24.2-3.5-.3-5.4 1.7-7.7 3-19 11.2-39.1 15.3-61.1 10.8-15.4-3.2-29.7-9.1-43.9-15.3-26.1-11.4-53.2-12.5-80.9-10.2-14.6 1.3-28.9 1.6-42.2-7-7.3-4.7-15.1-8.7-24.3-10.1-27.8-4.2-55.9-5.1-83.9-8.4-17.1-2-34.2-3.7-51.3-5.3-2.9-.3-4.7-1.4-6.6-3.5-5.7-6-5.9-6-13.1-2.4-3.8 1.9-7.3 4.6-11 6.8-2.8 1.8-5.5 3.8-8.5 5.1-9.7 4.1-14.4 2.3-19.6-6.8-1.5-2.6-2.8-5.4-4.8-7.6-4.1-4.6-6.3-4.2-9.6 1.1-4 6.5-8.2 12.9-12.1 19.4-2.8 4.7-6.6 6-11.9 4.4-7.6-2.4-15.3-4.3-22.9-6.6-24.1-7.4-48.5-7.2-72.6-1.7-19.3 4.4-38.8 8.3-57.8 14.2-15.8 4.9-31.7 9.6-46.7 16.7-10 4.7-19.9 9.3-25.3 19.9-1.7 3.4-4.9 2.8-7.9 2.7-15.3-.5-30.8.2-45.6 3-19.4 3.6-36.5 14-50.8 27.8-4.8 4.7-8.6 6.7-15.4 5.5-6.3-1.2-12.8-4-19.5-1.1-10.3 4.4-20.8 8.6-31 13.2-6.9 3.2-8.1 5.7-6.3 13.5 7.7 32.9 12.4 66.3 18.3 99.5 4.8 27.1 7.4 54.4 11.6 81.5 2.2 14.4 3.2 28.9 4.9 43.4 2.8 24 6.6 47.9 8.4 72 1.4 19.8 4.1 39.5 5.4 59.4 1.5 24.1 4.9 48 6.6 72 2.5 34.3 4.1 68.7 6.3 103.1.4 6.7 0 13.3.5 20 2.1 26.1 3.8 52.3 4 78.5.1 11.9-.4 23.9.7 35.9 1.2 13 .7 26.2.8 39.2 0 11.5-.3 23.2-1.4 34.8-1.4 14.5-1.2 29.1-2 43.7-1.5 26.7-1.5 53.6-2.3 80.3-.3 8.6.6 17.5-.5 25.9-2.9 20.8-1 41.7-3.7 62.5-3.2 24.9-3 50.2-6.4 75.1-1.9 13.8-2 27.7-5.1 41.3-.9 3.8.4 8.2-.8 11.8-.9 2.7-2.5 7-6.6 6.5-4.7-.6-3.6-4.9-3.5-8 .1-3 .1-6.1 1-8.9 2.3-7 2.8-14.2 3.3-21.5 1.2-17.8 3.3-35.6 4.2-53.5.8-15.6 3.3-31 4.6-46.5 1.4-17.1 2.9-34.1 2.9-51.3 0-4.1-1.4-5.1-5.4-4.4-12.7 2.2-25.4 4.1-38.1 6.2-16.9 2.9-34.1 4.2-50.9 8-13.2 3-26.7 4.4-40 6.9-18.5 3.5-37 7.4-55.5 10.9-22.1 4.2-44.2 8.5-66.3 12.5-11.3 2.1-22.7 4-34 6.7-13.4 3.2-27.3 4.6-41 6.9-2.9.5-5.8 1.4-8.7 1.7-1.6.2-3.4-.7-3.8-2.6-.3-1.9.9-3.2 2.7-3.6 5.1-1.3 10.2-2.8 15.5-3.8 22.1-4.1 44.4-7.6 66.4-12.3 35.9-7.7 72.2-13.5 108.2-20.2 33.5-6.2 67.2-11.6 100.6-18.3 14-2.8 27.9-5.4 41.9-8.3 8.2-1.7 8.2-1.8 8.3-10 .1-6 .2-12 .7-18 1.1-14.6.8-15-13.9-12-26.9 5.3-54.1 8.5-81.1 13-8.9 1.5-18.2 3-25.9 9.1-23.3 18.9-51.1 25.7-80.1 29.1-7.6.9-15.5.8-22.6-2.2-4.8-2.1-8.7-2.2-13.2-.1-2.4 1.1-5.1 1.4-7.7 1.9-18.1 3.8-36.3 7.1-54.2 11.9-3.8 1-7.7 1.4-12.4-2.3 21.4-9.5 43.8-12.1 65.1-19.4-5-7.3-11-8.8-18.2-8-5.3.6-10.4 2-15.4 3.7-10.1 3.4-20.1 6.9-30.2 10-8.2 2.6-11.6 1.3-17.1-5.7-.8-1-1.5-2.2-2.3-3.2-7.6-8.8-10.9-9.1-17.9-2.8-4.3 3.9-9.3 7.1-15.3 5.6-13-3.2-25.3-7.8-34.3-18.7-3.4-4.1-7.2-7.8-10.9-11.7-1.9-2-3.9-3.9-6.9-2.1-5.8 3.5-12.6 3.9-18.8 6.2-19.2 7.1-38.7 13.2-59 16.5-7.8 1.3-15.5 3.8-23.5 3.8-22.6.1-44.9 3.9-67.4 5.4-17.8 1.1-34.5-2-51-6.4-33.6-8.9-63.9-25.5-94.1-42.3-6.8-3.8-7.9-7.9-6-14.3 1.6.3 3.5.1 4.8.9 18.9 11.8 39.2 21 58.6 31.7 27.5 15.1 56.5 22.4 87.9 21.1 8.9-.4 17.9-1.2 26.8-1.3 20.7-.2 40.9-4.1 61.3-6.8 23.8-3.2 45.9-12.8 68.6-19.9 9-2.8 16.3-7 18.8-17 .6-2.4 2.7-4.6 4.4-6.6 4-4.7 4.8-9.4.1-14-4.1-4-3.3-8.4-1-12.8 10.1-19.2 25-34.5 42.4-46.9 14.1-10 13.9-8.4 4.2-23.3-.7-1.1-1.8-2-2.6-3-12.2-14.8-28.3-24.1-45.5-31.5-11.5-5-21.9-10.6-26.4-23.5-1.7-4.9-5.2-9.3-7.9-13.8-11-18.2-22.2-36.3-33-54.6-4.9-8.3-10.5-16.1-16.8-23.4-4-4.7-8.7-7.3-14.6-7.3-6 .1-11.8-2.6-17.8-1.1-1.5.4-2.6-.2-3.4-1.3-1.2-1.7-.2-3.2.8-4.5.8-1 1.9-1.9 2.9-2.7 12.6-10 23-22 32.9-34.6 10.4-13.3 18.5-27.5 22.1-44.1 3.4-15.2 6.9-30.4 10.1-45.7 2.8-13.2 2.5-26.6-1.1-39.4-4.9-17.6-10.8-34.9-16.4-52.3-2.6-8.1-3.1-16.3-1.9-24.6.9-5.9 2.2-11.7 3.3-17.6 1.5-8.8.9-16.9-5.3-24.3-5.5-6.6-9.6-14.3-13.3-22.1-1.7-3.6-3-7.6-2-11.4 3.3-13.2 5.5-26.7 11.4-39.1 2.3-4.8 1.6-7.6-2.6-11-13.4-10.9-26.2-22.5-39.5-33.6-6.1-5.1-12.8-9.5-20.4-12.3-6.4-2.3-11.6-6.3-16.9-10.3-17.7-13.6-35.8-26.3-57.4-33.3-5.3-1.7-10.4-4.5-15.5-6.9-3.4-1.6-5.3-4.4-3.2-8 2-3.4 4.6-1.1 6.9 0 9.6 4.5 19.2 9.2 28.9 13.4 9.8 4.2 19.1 9 27.8 15.2 9.7 7 19.7 13.6 30.1 19.5 5.8 3.3 12 5.9 16.9 10.4 14.8 13.6 33 19.3 52.1 23.1 4.7.9 9.1.8 13.4-1.8 10.8-6.5 22.1-7 34.5-4.4 9.4 1.9 18 5 25.9 9.9 10.6 6.4 20.2 5.2 31 .2 13.8-6.4 27.9-12.9 42.6-16.5 19-4.6 33.3-15.9 45.1-29.5 16.7-19.3 30.2-41.3 40-65.2 6.6-16 10.4-32.8 15.6-49.3 2.1-6.7 3.4-13.5 4.3-20.4.6-4.9.5-10.2 2.4-14.6 2.2-5.2.9-9.2-1.7-13.1-7.4-10.8-12.7-22.6-17-34.9-4.1-11.9-9.1-23.4-10.7-36.1-2.1-16.2-1.6-32.4-1.7-48.5-.1-19.9.9-39.8 3.7-59.6 2.6-18.4 4.5-36.9 6-55.4 1-13.5 2-27.2-3.4-40.3-1.9-4.6-3.8-9.2-5.3-14-4.8-15.8-11.2-31.2-13.7-47.8-1.5-10-1.5-20.7-6.5-30-5.6-10.5-11-21.3-17.5-31.2-11.5-17.5-23-35-37.3-50.4-7.7-8.3-13.2-18.4-21.6-26-3.2-2.9-1.2-4.8 1.4-6.1 4.3-2.1 8.1.1 10.9 2.8 8.1 7.9 16.6 15.4 23.4 24.5 8.1 10.9 15.9 22.1 23.3 33.5 2.2 3.4 4.6 4.8 8.5 5.7 12.3 3 24.5 6.4 34.8 14.3 9 6.9 19.2 11.8 28.9 17.6 11.3 6.9 22.9 13.4 35.6 17.6 3.6 1.2 6.5 1.2 9.2-1.3 8.5-7.9 18.3-14.2 27.6-21 10.7-7.8 21.4-16.2 33.2-21.9 16.5-8 31.6-18.1 47.8-26.5 15.2-8 29.7-17.3 44.8-25.6 9-4.9 18.8-8.3 27.6-13.6 10.3-6.1 21.2-7.7 32.4-5.8 9.9 1.7 19.7 1.4 29.6 1.8 1.5-2.3 1.2-4.7 1.3-7 .4-12.7-2.1-25.1-3.6-37.6-2-17.4-6.3-34.3-5.5-52.2 1.3-26.4 10-49.8 22.9-72.2 5.9-10.2 11.6-20.5 17.6-30.9-10.2-3.5-20.3-4.1-29.5-8.1-9.3-4.1-17.9-8.8-22.5-18.5-4.4-9.3-9.6-18.2-13.3-27.8-3.8-9.7-9.1-19.1-7.3-30.4.6-4.1-1.2-8.3-3.1-12.3-6.8-14.8-15.8-28.4-23.3-42.9-1.8-3.5-4.4-5.5-8.5-6-4.3-.6-8.4-2.5-11.6-5.5-7.1-6.5-14.5-12.8-21.3-19.5-18.3-17.8-35.9-36.4-54-54.5-4.4-4.4-7.7-9-9-15.1.6-.7 1.3-1.4 1.9-2.1 3.3 1.5 7.1 2.4 9.5 5.2 8.4 9.9 18.8 17.8 27.9 27 14.5 14.6 28.4 29.8 43.9 43.4 11.5 10.1 24.6 14.2 38.7 15.9 13.3 1.5 26.7 4.5 40.1-.2 2.4-.8 3.8 1.4 3.3 3.6-.4 1.9-1.7 3.6-2.7 5.3-8.2 13-13.7 27.2-19.1 41.5-2.8 7.4-5.2 15.1-2 23.2 4.5 11.4 8.5 23.1 14.3 34 5 9.3 11.6 16.9 21.8 20.9 8.6 3.4 16.9 7.4 25.6 10.7 5 1.9 8.6 2.9 11.9-2.3 1.6-2.6 4.3-3.3 6.9-1.2 3.2 2.6 3.2 9.9-.1 12.8-5 4.5-9.5 9.5-12.5 15.4-7.2 14.3-16.2 27.5-23.6 41.6-3.5 6.7-8.7 12.8-9.3 20.6-.9 10.9-1.3 21.9-2.1 32.8-1.4 18.4 2.8 36.3 5.3 54.4 1.9 13.9 2.9 27.8 2.7 41.8-.1 4.7-1.7 6.4-6.6 6-12.2-1.1-24.6-1.2-36.7-2.9-5.3-.7-10.1-.3-14.4 1.9-10.7 5.3-22.4 8.3-32.6 14.8-5.3 3.4-10.7 6.7-16.3 9.7-28.8 15.1-57.5 30.2-84.7 48.1-7.5 4.9-14.8 10.1-22.6 14.4-15.9 8.6-30 19.6-43.8 31-14.8 12.3-26.8 27.5-41.1 40.4-4.9 4.4-8.5 10.3-9.1 17.3-.9 11.3-3.8 22.2-4.6 33.5-2.5 32.7-8.9 65-11.3 97.7-1.2 16.8-2.7 33.8-1.7 50.5 1.1 17.4-.1 34.9 4.9 52.3 3.9 13.8 8.2 27.2 15.4 39.3 8.7 14.5 16.7 29.5 28.7 41.8 9 9.3 14.9 21 24.8 29.7 7.6 6.7 13.9 9.9 22.5 3 .5-.4 1.3-.4 1.9-.6 22-8.3 44-16.5 65.9-25 4-1.5 9.2-2 10.1-8 .3-1.7 2.9-2.6 4.8-3.2 12.2-3.9 22.4-11.5 33.7-17.2 7.4-3.8 14.8-5.7 23-4.4l10.8 1.8c4.2.7 7.7-.4 11.1-3.2 7.2-5.9 14.7-11.4 22.1-17 4.5-3.4 9.5-6.5 15-7.4 13.1-2.3 26.1-5.1 39.5-5 6.6.1 13.2-.8 19.8-1.3 2.4-.2 4.5-1.1 6.2-2.9 8.9-9.2 19.7-15.3 31.9-19.4 10.1-3.4 19.7-8.1 29.8-11.2 23.8-7.1 47.8-13.7 71.8-20.2 14.4-3.9 29.2-5.7 44.1-5.3 5.1.1 7-1.7 7.9-6.5 1.5-7.5 3.6-15 4.5-22.4 3.3-29 6.3-58 6.4-87.2.1-22.9-6.1-44.1-17.6-63.5-8.5-14.2-17.2-28.3-27.7-41.3-7-8.7-13-18.2-19.1-27.7-5.6-8.6-10.8-17.5-17.5-25.4-10.5-12.4-22.9-22.9-33.7-34.8-6.6-7.2-14.2-10.4-23.7-10.5-10.4-.2-20-3.6-29.5-7.7-10.2-4.4-18.9-11.2-28.2-16.8-5.6-3.4-10.5-8.1-15.3-12.7-2.1-2-3.2-5.2-.5-8 2.6-2.7 5.1-2.5 7.8.1 1.7 1.6 3.5 3.1 5.3 4.6 8 6.4 16 12.7 25.3 17.3 19.2 9.5 39.5 13.2 60.7 13.1 15 0 29.9-.1 44.9 0 6.5 0 11.3-1.7 13.9-8.4 1.8-4.6 4.7-8.8 8.2-12.5 10.4-10.8 21.2-21.3 33-30.4 20-15.3 40.7-29.7 59-47.2 5.5-5.3 10.9-10.6 15.6-16.7 9.3-12.2 16.5-25.7 24.9-38.5 6.8-10.3 7-20.2-.5-30.1-8.7-11.4-16.6-23.3-26.5-33.7-4.7-4.9-8.4-10.2-11.7-16.1-7.9-13.9-16.9-27.1-28.5-38.2-11-10.6-23.4-18-39-20.2-16.1-2.2-32.2-4.5-48.2-6.5-15.7-1.9-31.7-2.7-47.6-1.6-9.7.7-18.8 4.1-28.4 4.7-2.3.1-4.9.9-6.1-1.7-1.6-3.4 1.3-4.7 3.5-6 9.2-5.5 18.7-10.2 29.7-10.8 4.5-.2 5.2-1.9 4.7-6.3-1.3-10.9-4.1-21.5-5.9-32.3-1.4-8.2-5.7-14.8-10.6-21.2-2-2.6-4.1-5.2-6.2-7.8-11.7-14.1-24-27.5-39.8-37.4-14.8-9.3-24.4-7.7-34.2 3.3-3.9 4.4-9.2 6.6-13.4 10.3-3.5 3-5.8 1.7-8.1-1.7-2.1-3.2-2-5.1 1.7-7 6.4-3.2 10.3-9.4 15.5-13.9 10.6-9.2 18-21.3 28.8-30.2 4-3.4 7.6-7.4 9.5-12.6 9.4-26 14.7-53 17.9-80.4 1.2-10.6 1.3-21.4-3.6-31.3-4.4-8.9-9.2-17.7-14.5-26.1-5.1-8.2-9.9-16.5-17.2-23.2-2.6-2.4-4.8-4.1-8.4-4.3-16.6-1-32.8-4.7-48.7-9.3-4.5-1.3-8.9-1.2-13.6-.8-10.6.8-21.1 3.1-31.8 2.4-8.7-.6-18.3-.5-23.2-8.8-5.6-9.5-12.3-7.5-19.9-4.4-1.5.6-3.2 1.1-4.6 1.9-3.4 1.9-7.4 3.2-10.3.8-3.5-2.9-.6-6.9.8-10 6.1-12.8 8.6-26.7 10.8-40.3 2.6-16 2.2-32.6-.4-48.8-3.9-24.2-9.3-48.1-14.7-72-5.4-24-18.5-42.9-35.9-59.4-2-1.9-5-3.4-3-6.1 2-2.8 4.8-.6 7 .8.6.4 1.2.7 1.6 1.1 12 11.5 23.8 23.1 32.2 37.7 3.8 6.6 6 14 10.2 20.5 11.4 17.5 25.8 32 42.8 44 19.9 14 40.7 26.2 63.6 34.5 3 1.1 7.2 1 5.7 6.1-1.3 4.6-3.9 5.7-9.4 4.1-2.8-.9-5.6-2.1-8.3-3.2-8.4-3.4-16.2-7.7-23.8-12.5-6.4-4-9.5-3.6-14 1.5-12.3 13.6-23.4 27.9-32 44.3-3.7 7.1-5.1 14.4-4.3 22.1.9 8.6 2.9 16.7 7.1 24.6 3.6 6.8 8.4 9.6 15.9 9.5 10.3-.3 20.7 0 31-.1 8.7 0 17.3.1 25.6 2.8 19.2 6.1 39 6.3 58.8 7.2 7.2.3 14.2-.5 20.1-4.5 13-9 24.2-19.8 30-35.1 1.7-4.5 1.4-8.5-2.1-11.9-10-9.9-19.2-21.1-34.9-21.9-2.4-.1-5-.4-5.7-3.1-.7-3 1.5-5 3.8-6.5 1.9-1.3 4-2.1 6.6-1.5 3.9.9 7.9 1.1 11.8 2 18.8 4.6 38.1 5.8 57.2 6.9 31.1 1.7 62.3 0 93.3-4.4 11.8-1.7 23.9-2.6 35-6.4 14.2-4.8 28.4-9.2 42.8-13.4 21.9-6.5 43.4-14.4 65.9-19.2 16.2-3.5 32.5-6.8 48.7-10.4 5.8-1.3 11.5-3.3 15.7-8.1 16.4-18.9 24.5-40.6 23.2-65.8-.9-16.2-.3-32.5-2.4-48.7-1.3-9.6-2.2-19-5.3-28.3-5.5-16.7-10.4-33.7-19.6-48.9-6.8-11.2-6.5-25.1-12.8-36.5-1.8-3.3-3.6-7.5.7-9.6 5-2.5 6.1 2.8 7.2 5.8 4.1 12 12.1 20.7 20.9 29.7 13.8 14.1 31.7 20.4 48.1 29.5 4.6 2.5 10.1 2.5 14.5-2.2 2.7-3 6.3-4.7 10.4-5.6 19.4-4.3 38.9-4.5 58.5-3.2 5.4.4 10.3 1.8 15.3 3.8 11.1 4.4 21.8 9.5 34 16-1.1-5-1.9-8.4-2.6-11.9-1.4-7.1-3-14.2-2.8-21.6.1-2.8.8-5.2 2.1-7.6.7-1.2 1.7-2.2 3.1-2.1 2 .2 2.6 1.8 2.8 3.5.2 1.3 0 2.7.2 4 1.8 11.1 3.1 22.3 5.5 33.2 4 18.1 15 33.1 23.9 49 3.4 6 8.3 11.3 13.4 16.1 7.9 7.5 16.5 14.3 24.9 21.3 6.9 5.7 13.6 11.7 21.6 15.9 13.5 7.1 28.3 10.5 42.8 14.9 11.7 3.5 23.2 7.8 34.8 11.9 2.5.9 4.8 2.3 6.9 4 8.7 7.2 18 13.9 24.1 23.5 9.3 14.6 22.6 21.4 39.3 23.8 15.7 2.2 31.3 5.6 47 8.4 4.3.8 8.2.7 12.5-1.3 8.7-4.1 17.8-7.3 26.7-11 3.1-1.3 6.3-2.1 9.7-2.1 1.9 0 4.1-.4 4.8 2.3.7 2.6-.1 4.6-2.6 5.7-3.6 1.6-7.2 3.4-10.9 4.7-12.2 4.4-24.4 9.5-34.5 17.3-17 13-35.4 23.4-53.4 34.8-11.8 7.4-24 14.1-34.9 22.9-10.3 8.3-21 16.1-32.1 23.4-9.1 6-18.4 11.9-27.1 18.6-7.6 5.9-15.1 12-23.6 16.6-33.1 18-57.9 43.7-74 78a569.7 569.7 0 0 0-18.8 45c-6.3 17.1-10.2 35-11.9 53.3-.5 5.6-.5 11.4 1.4 16.8 2.4 7.1 2.2 14.3.9 21.6-2.6 14.1-5.2 28.2 1.5 42 2.4 5.1 4.5 10.3 7.2 15.3 11.7 21.2 24.7 41.6 39.8 60.7 2.7 3.4 3.2 6.4 1.1 9.9-2.2 3.7-5.4 4.5-9.4 3.4-5.8-1.5-11.6-3-17.4-4-22.5-4.1-45-8-67.5-12-6.2-1.1-12.2-3.3-18.5-3.8-14.9-1.1-29.7-2.8-44.8-1.7-14.7 1.1-28.9 3-42.1 10.2-3.2 1.7-6.8 2.7-10.1 4.2-18.1 8.2-36 17-52.3 28.5-10.6 7.4-20.8 15.5-31.9 22.1-7.5 4.5-14.6 9.4-20.5 15.6-14.5 15.2-28.6 30.7-45.1 43.8-4.5 3.6-5.8 7.8-3.6 13.2 1 2.6 1.3 5-.5 7.5-13.5 18.9-24.1 39.7-37.9 58.5-2 2.7-4 5.6-6.6 7.4-8.7 5.7-15.6 13.4-23.5 20-17.9 14.9-36.1 29.4-53.7 44.7-20.5 17.8-31.8 39.2-25.7 67.8 3.2 15.2 4 30.9 5.1 46.4.5 6.6 2.1 12.4 6.1 17.5 6.9 8.6 13.1 17.7 18.5 27.2 11.3 19.8 24 39.1 26.4 62.5 1.5 14.5 3 29 1 43.6-.5 3.2.4 5.7 1.9 8.5 7.1 13.2 15.8 25.4 25.1 37 7.9 9.9 14.9 21 25.4 28 7.9 5.3 14.7 11.2 20.5 18.3 3 3.7 5.3 3.8 9.2 1.6 8.9-5.1 18.1-9.6 28.5-11.4 4.9-.8 8.5-.8 10.4 4.5 1.5 4 4.5 5.4 8.7 4.9 2-.2 4 0 6 .2 20.4 2.6 40.7 5.6 61.2 7.9 23.7 2.7 47.5 4.9 71.3 7.3 3.8.4 6.9 1.9 10.1 3.9 7.4 4.6 15.3 7.7 24.1 8.9 22 3.1 44.3 1.6 66.5 4.6 16.2 2.1 32.1 4.2 47.5 10 10.2 3.8 20.5 6.1 31.8.9 21.3-10 43.2-18.7 64.9-28 3.1-1.3 6.3-2.4 7.9-5.7 3.7-7.5 9.4-13.7 13.8-20.7 11.8-18.9 22.9-38.1 33.5-57.7 8.4-15.5 17.4-30.8 23.7-47.3 2.9-7.6 7.9-15 5.4-23.7-6-21-4.9-42.6-5.3-64.1-.1-3 .6-5.9 1.1-8.8 3.8-20.3 9.1-40.2 15.2-59.8 2.8-9 6.8-18.2 13.7-25 4.5-4.5 4-8.7 2.2-13.4-8.8-23-13.2-47.3-19.5-70.9-3.3-12.3-8.7-19.8-19.6-25-12.9-6.1-24.8-13.6-33.3-25.9-8.1-11.8-18.5-22-25.2-34.7-11-20.8-24.1-40.4-32-62.9-5.1-14.6-13.1-28.3-18.6-42.9-1.4-3.7-3.2-7.4-2.7-11.6.2-1.4.7-2.6 2.1-3.1 1.4-.5 2.7.2 3.5 1.3 1.1 1.6 2 3.4 2.9 5.2 8 14.9 13.9 30.9 22 45.8 8.3 15.5 15.4 31.6 23.6 47.2 7.8 14.9 16 29.8 27.9 42 4.2 4.3 9.1 7.9 12.7 12.6 4.8 6.3 11 10.7 17.7 14.2 13.7 7.3 27.9 13.7 41.8 20.7 7.3 3.7 14.7 7.6 22.7 10.1 15.7 4.8 31.8.5 47.5 3.4 12.8-4.5 26.8-4.8 38.8-12 8.5-5.1 17.6-9.3 26.7-13.3 7.9-3.4 15.5-3.3 23.2-.4 4.9 1.9 9.6 4.4 14.5 6.5 12.7 5.5 24.6 13.1 38.2 16.7 8.7 2.3 17.6 3.6 26 6.3 18.8 6.1 38.1 9.4 57.5 10.7 21.5 1.5 43.2 1.7 64.7-2.2 22.8-4.1 44.4-11.2 63.7-24.1 9.4-6.2 19.1-10 30.6-10.3 14.3-.3 24.6-8.2 32.4-20.1 19.6-30.1 39.5-59.9 59.1-90 3.4-5.3 6.6-10.8 9.2-16.6 12.9-29.3 23-59.5 28.5-91 4.5-25.6 4.9-51.3 1.4-77.2-3.2-24-6.9-48-10-72-2.6-20.4-5.8-40.7-10.1-60.8-3.1-14.6-7.4-28.9-9.1-43.8-.6-4.8-1.1-9.8-3-14.6-9-21.9-24.1-38.8-42.7-52.9-15.6-11.9-32.8-21.4-49-32.2-17.8-11.8-37.2-20.2-55.8-30.3-26.2-14.2-54.2-24.9-82.1-35.4-28.2-10.6-56.2-22.1-83.1-35.8-1.8-.9-3.7-1.5-5.6-2.1-11.4-3.5-22.7-7.3-34.1-10.4-20.1-5.6-40.3-11-60.5-16.1-9-2.2-10.7-4.5-6.6-13 11.7-24.6 24-48.8 33.9-74.3 8.4-21.6 18.7-42.6 31.9-62 4.6-6.8 9.1-14 10.7-22.4 1.9-10.1 3.8-20.2 4.7-30.5 1.2-13.5-2.6-24.9-11.3-34.9-11.7-13.6-23.7-26.9-33.2-42.2-4.7-7.6-10.2-14.6-16.4-21.1-5.8-6-10.7-12.7-15-19.9-10.5-17.5-22.9-33.8-39.5-45.6-13.4-9.6-28.1-17.6-43-24.9-17.9-8.7-37-14.6-56.4-19.4-16.8-4.3-32.9-1.7-48.5 5.3-12.1 5.4-23.9 11.6-36.8 14.9-12.3 3.1-22.5 9.9-30.9 19.1-9.4 10.3-19.1 20.4-30.6 28.4-3 2.1-5.8 4.5-8.3 7.1-13.7 14.5-26.9 29.4-40.9 43.6-14.9 15.2-26.5 32.3-34.6 51.9-1 2.4-1.7 5.2-5.4 5-2.5-7.4-1.5-13.7 2.7-20.7 10.6-18.1 24.7-33.7 36.8-50.7 8-11.3 12.5-23 14.9-36 .6-3.3-.1-6.8.9-9.9 2.9-8.8.3-16.3-4.7-23.4-9.1-13-21.2-22.8-33.8-32.1-8.6-6.3-17.8-12-28.4-13.9-30.3-5.5-60.7-5.6-91-.2-3.8.7-8.7.1-11.5 2.5-7.6 6.5-16.9 10.6-24.1 17.5-7.7 7.4-15.2 15-22.2 23-7.9 9-15 18.5-19.8 29.7-7 16.4-12.2 33.8-22.8 48.5-6.5 9-9.4 19.6-14.1 29.5-1.2 2.6-2.1 6.1-5.7 6.3-3.4.2-5.1-2.4-6.6-5.2-4.1-7.7-9.9-13.6-16.9-19-28.9-22.2-60.9-39.1-92.4-56.9-16.5-9.3-34.3-16-50.6-25.7-14.3-8.5-29-16.3-44-23.6-42.3-20.5-86.2-36.2-132.3-45.9-13.9-2.9-27-1.5-39.9 3.2-9 3.3-18.1 6.4-27.4 9-8.8 2.5-17.9 4.2-26.4 8.2-22.6 10.5-43.8 23.6-66.2 34.4-29.2 13.9-54.9 33.9-83 49.7-8.5 4.8-13.6 13.2-15.6 22.4-4.1 18.8-7.1 37.8-8.5 57-2.6 36.2 6.5 69.7 23.4 101.4 2.4 4.5 4.1 9.1 4.3 14.2 0 1.3-.2 2.8-1.5 3.4-1.6.8-3.3.6-4.5-.8-2.7-2.9-5.1-6.1-8.1-8.8-16.4-15-33.8-29.2-48.5-45.7-20.3-22.9-45.9-35.8-74-44.8-30.4-9.7-61.9-11.6-93.5-11-7.4.2-15.2.6-22 5-6.4 4.2-13.2 7.6-19.8 11.5-10.7 6.5-21.4 13.3-32.2 19.4-11.4 6.4-23.5 12.1-35.7 17.4-17.7 7.6-35.3 15.5-53.5 21.7-18.8 6.3-38.2 11-57.4 15.9-19.8 5.1-38.1 13.4-54.9 25.1-2.3 1.6-3.6 3.6-4.8 6.1-13 27.4-22.1 56.2-30.9 85-9.2 30.5-20.1 60.4-28.8 91.1-9.4 33.3-17.7 66.6-20.2 101.2-2.4 32.6 5.7 62.8 22.1 90.6 13.9 23.4 33 42.4 54.9 58.5 1.9 1.4 3.9 2.7 5.4 4.4 2.3 2.7 1.4 5.5-1.9 5.9-5.5.7-11.2 1.4-16.8-.7-8.1-3.2-16.7-3.8-25.4-4.3-6.6-.4-12.3 1.5-17.7 5.3-17.1 12-34.1 24.1-51.6 35.5-11 7.1-20.9 15.1-29 25.4-8.2 10.4-17.2 20.4-23 32.5-14 29.3-19.5 60.3-16.9 92.7 1.4 17.8 8.2 33.3 18.9 47.3 4.6 6.1 9.3 12.2 14.7 17.6 14.5 14.7 29.8 28.3 49.6 36 18.2 7.1 36.2 14.7 54.2 22.2 6.7 2.8 7.1 6.7 1.7 11.7-2.7 2.5-6 4-9.2 5.9-15.8 9.3-31.1 18.9-44.7 31.4-15 13.7-28.3 28.9-43.2 42.6-16.9 15.4-30.1 34.3-44.6 52-17.4 21.4-33.5 43.8-46.8 68.2-9.9 18.1-14.4 36.7-11.3 57.4 1.5 10.2 3.5 20.3 5.3 30.4 3.8 21.6 9.1 42.8 17.9 62.9 1.5 3.4 2.1 5.7.7 9-3.5 8.3-5.9 16.9-8 25.6-2.6 11-5.3 22-8.7 32.7-10.4 33.2-13.7 67.6-16 102-.2 2.7.4 5.3 1.4 7.8 9.6 23.8 22.4 45.1 43.2 61 14 10.7 27.6 21.8 41.2 32.9 29.1 23.8 59.1 46 93.1 62.5 1.7.8 4.2.9 4 3.6-.2 2.6-2.2 4.5-4.5 4.7-3.9.4-8 .1-11.9-.1-12.2-.6-23.5 1-33 10.1-8.4 8.1-17.1 15.7-25.2 24.1-15.8 16.1-31.7 32.1-45.6 50-6.1 7.9-13 16-14.7 25.7-3.3 19-4 38.3-1.2 57.5 2.9 19.4 6.3 38.6 10.6 57.8 1.2 5.3 1 10.6-.7 15.8-1.6 4.7-3.2 9.4-4.9 14.1-10.4 27.6-20.6 55.3-26.7 84.3-2.1 9.7-4.4 19.6-2.3 29.5 2.4 11.1 5.9 21.8 11.1 31.9 11.5 22.4 23.1 44.8 34.7 67.2 7.3 14.1 17 26.1 31.1 34.2 7.2 4.1 14.4 8.3 21.1 13.1 9.6 6.9 10.1 9.4 6.2 20.3-1.6 4.3-3.2 8.6-5.9 12.6-8.4 12.2-16.2 24.9-24.6 37.2-6.5 9.5-10.5 19.3-12.1 31-3.1 23.3-1 46.1 2.7 69 1.9 11.5 5.5 22.5 8.9 33.6 1 3.4 1.8 6.4-.9 9.2-1.3 0-2.9.4-3.9-.1-8.2-4-17.2-4.9-25.9-6.6-10.4-2-13.6.2-16.2 10.5-.3 1.3-.8 2.5-1 3.8-3.3 21.7-6.2 43.4-5.9 65.4.2 17.2-1.2 34.4-1.3 51.6-.2 29.8 2.9 59.1 7.3 88.4 1.8 12.1 4.9 23.9 8.8 35.6 2.9 8.5 8.4 11.3 16.7 12.2 18.5 2.1 37.1 1.9 55.6 2.9 19.9 1.1 39.8 1.8 59.7 2.9 21.2 1.1 42.3 3.3 63.5 3.5 11.3.1 22.5.2 33.8.4l43.8.6c11 .1 22.1-.1 33.1.4 12.3.5 24.5 1.8 36.7 2.6 12.4.8 24.8 1.2 37.3 1.4 14.8.3 29.5 2.1 44.3 2.5 20.3.5 40.5.4 60.7 2.3 18.8 1.8 37.7.1 56.6 2.2 12 1.3 24.3 2.6 36.5.4 2.5-.5 5.3.1 7.9.6 13.5 2.6 27.2.9 40.7 2.2 9.6.9 19.6-.9 29.4-.9 26.3-.1 52.6-.6 78.8-.1 13.6.3 27.2-1.1 41.1.5 3.7 17.7 1.4 35-4 52.2 15.2-4.3 28.8-9.3 42.3-14.8 12.2-5 24.1-10.9 36.9-14.4 7.4-2 14.2-3.3 21.9.4 8.2 3.9 15.3 9.1 22.4 14.6 9.2 7 18 14.5 28.5 19.8 21.2 10.7 41.6 14.1 62.8-.6 14.6-10.1 32.5-10.3 49.4-13.4 1.2-.2 2.6.3 3.9.4 23.2 2 45.8 7.3 67.3 16.3 9.2 3.8 16.5 2.4 24.1-2.6 17-11 34-22.1 53.3-28.7 12.8-4.4 25-10.2 38.6-12.4 11.1-1.8 22.3-3.3 33.4-4.6 17.2-2 34.5-3.1 51.8-1.9 6.4.5 12.9 1.6 19.5-.3 4-1.2 8.8-1 12.9 0 16.7 4.1 34 5 50.6 9.6 20.4 5.6 40.5 11.9 59.7 21.1 15.4 7.4 30.1 16.9 47.6 19.5 4.6.7 9.6.2 13.7 2 15.4 6.5 32 5.2 48 7.4 5.8.8 11.8-.1 17.8-1.2 19.4-3.6 38.9-6.8 58.3-10.8 15.8-3.3 31.7-6.5 47.7-9.3 4.9-.8 10-.8 14.7-2.2 19.6-6.2 40.1-8.6 60.2-11.9 20.8-3.5 41.9-5.7 63.1-7.2 33.7-2.4 66.8-1 99.5 8 22.6 6.2 44.9 3.7 65.9-6.4 21.7-10.5 44.4-16.9 68-20.6 19.5-3.1 39.1-3.4 58.7-2.1 9.9.6 19.9 1.7 29.8 1.4 8-.3 15.8.1 23.5 2.2 12.5 3.3 25.3 5 37.9 8 14.5 3.5 29.8 2.5 44.7 1.4 10.9-.8 21.5-3.7 31.8-7.3 13.8-4.8 25.9-13.1 38.5-20.2 3.9-2.2 9.6-4.3 9.4-11.4-.9-30.7 3.3-61.3.8-92.1-2.4-29-2.4-58.3-6.3-87.3-3.2-24-6.9-47.8-11.5-71.5-1.8-9.4-4.4-18.7-7.1-27.8-1.3-4.4-3.4-8.4-8.7-10-7.7-2.3-15.6-4.5-23.3-4.3-12.2.2-19.9-5.6-26.1-14.7-6-8.8-7.6-19.1-9-29.2-2.5-18.7-4.1-37.5-6.2-56.2-2.4-20.8-7.3-41-12.8-61.2-3.6-13.1-9-25.3-20.9-32.7-8.7-5.4-17.8-10.7-29.2-9.1-22.4 3.1-45 3.2-67.4 0-23-3.3-45.5-9.1-67.1-17.9-8-3.3-14.9-8.3-20.6-14.9-15.7-18.4-27.1-39.3-37.3-61-5.3-11.3-7.1-22.8-4.1-35.4 4.9-20.5 14-38.6 27.1-54.8 3-3.7 3.6-7 1.8-10.8-6.2-13.6-10.2-28-15.3-42-5.7-15.9-12.9-31.3-19.5-46.9-4-9.4-7.1-19.2-13-27.9-25.3-37.5-38.8-78.3-33.5-124.2 1-8.5 2-17.1 5.2-25.3 1.2-3.1 2.4-5.5 6.4-4.3.5 3.7.3 7.3-.5 10.9-3.2 14.9-4.1 29.8-4 45.1.3 24.6 9.3 46 21.3 66.5 9.4 16 19.8 31.4 25.6 49.3 4 12.5 12.1 22.7 21.8 31.6 1.7 1.6 3.4 3.2 4.8 5 10 13.3 21.2 25.6 34.5 35.8 2.5 1.9 3.8 4.3 5.4 6.8 2.6 4.1 1.8 6.3-2 8.8-18.9 12.3-31.9 29.6-43.1 48.9-11.7 20.3-15.3 41-5.7 62.8 6.3 14.3 13.4 28.2 20.8 41.9 2.6 4.8 5.4 9.6 9.8 13.6 8.9 7.9 19.4 12.4 30.2 16.5 36.7 14 74.8 16.5 113.4 13.9 7.5-.5 15.3-.8 21.2-8.4 15.4-19.6 28.9-39.9 31.5-65.4 2.1-20.4.5-40.3-8.4-59.4-6.7-14.5-14-28.7-20.8-43.1-1.9-4.1-3.6-8.2-1.6-12.4 2.3-4.8 4.6-10 8.3-13.5 11.1-10.4 19.1-23.1 27.5-35.4 14.8-21.8 22.5-46.3 26.3-72.4 1.7-11.9 1.8-23.8 2.7-35.7 1.3-17.6.5-35.5-7.8-51.6-7.8-15-16.4-29.6-23.5-45-11-24.2-26.4-46.1-36.3-70.9-1.1-2.8-2.8-5.3-4.2-7.9-1.7-3.2-3.8-4.9-7.9-4.4-4.9.7-9.9 1.2-14.8.7-36.3-3.9-72.6-6.8-108.6-13.4-11.4-2.1-21.4-5-28.1-15.4-5.6-8.6-6-8.3-14.9-2.6-1.1.7-2.4 1.3-3.3 2.2-14.9 13.8-29.6 27.7-40.1 45.4-7.4 12.5-15 25-22.4 37.5-2.3.7-4.1 1.9-6.6 2.2zM1110.8 527.1c-6.3-.4-12.7.1-19 .1-6.6 0-10.3 2.8-13.7 8-13.4 20.5-26.6 41.1-37.2 63.4-5.2 10.8-11 21.2-12.1 33.5-1.2 13.1-4.7 26.1.9 39.1 2 4.7 1.3 9.6.7 14.7-3.4 26.4-10.5 52.1-17.3 77.7-1.8 6.8-.2 11.2 3.6 16.3 9.1 12.3 17.8 24.9 26.6 37.3 3.3 4.7 5.5 9.7 7 15.3 3.3 12.8 7.4 25.5 10.9 38.3 1.6 6 4.7 11 9.1 15.1 14.5 13.6 29.2 27 43.8 40.6 4.1 3.8 8.6 6.2 14.2 6.5 12 .8 23.5 4 35.1 6.7 6.6 1.5 14.1 1.2 19.6 6.1 6.2 5.5 12.9 10.2 18.3 16.7 6.2 7.4 12.1 15 17.9 22.7 5.3 7.2 11.6 12.8 20.3 15.3 4.8 1.4 8.9 4.4 13.3 6.8 11.5 6.5 22.4 13.6 36.4 15.2 10.1 1.1 17.5-.3 22.7-9.2 1.2-2 3-3.6 4.1-5.6 3.4-6 8.6-10.3 14.4-13.6 26.1-14.6 49.7-33 75.6-48 24.7-14.3 50.4-23.6 78.9-23.5 11.9 0 21.5-3.7 30.7-10.7 17.5-13.2 34.5-27 51-41.4 6.9-6 10.2-12 10.9-21.2 1.4-19.2 4.5-38.3.7-57.6-.7-3.5-.5-7.4 0-11 2.4-19.8 6.4-39.3 12.4-58.4.7-2.3 1.7-4.2.3-6.5-11.8-18.6-20.4-38.8-31-58.1-1.8-3.3-4.3-5.8-7.8-7.4-5.3-2.5-8.8-6.4-11.1-12.1-2.1-5.3-4.2-10.5-5.3-16-1.3-6.7-4.4-12.4-7.8-18.1-7.6-12.7-18.2-22.8-27.4-34.2-6.3-7.8-14-13.6-23.2-16.6-13.4-4.3-24-12.7-34.3-21.5-10.9-9.3-21.9-18.3-34.7-24.9-6.5-3.4-12.7-7.3-19-11-2.5-1.5-4.5-3.4-2.8-6.4 1.4-2.6 3.4-1.9 6-1.1 4.8 1.5 9.4 3.1 13.4 6.4 8.2 6.8 17.6 11.9 26.3 18 4.4 3 9 5.8 12.9 9.3 8 7 16.9 12.7 26.7 16.9 4.9 2.1 9.5 1.9 14.5.1 7.7-2.9 15.8-4.9 23.4-8.2 10.9-4.6 23.1-6.4 32.8-13.9 10.2-7.8 21.1-14.8 30.8-23.5 5.9-5.3 11.4-11.2 18.5-15 3.9-2.1 6.9-5 9.6-8.4 19.1-23.4 26-51.1 28.4-80.3.4-4.8-1.6-8.9-5.8-12-6.1-4.6-11.7-9.8-17-15.4-11.4-11.9-19.3-26.2-27.1-40.5-1.9-3.5-3.3-7.5-6.9-9.6-4.6-2.8-8.1-6.9-12.6-9.7-7.8-5-14.3-12.3-23.3-15.1-12.4-3.8-25.1-6.6-38-7.7-15.5-1.4-30.7-.1-43.2 10.8-16.1 14-30 30.1-42.7 47.2-3.9 5.2-4.7 10.1-4 16.6 1.5 12.2 2.6 24.5 2.1 36.7-.8 18.4-5.7 35.8-15.6 51.8-9.9 16.1-21.1 29.4-41.4 32.8-17.6 2.9-35 7.4-52.5 11.3-14.6 3.3-29.3 5.9-43.3 11.2-14.6 5.5-29.5 10.1-44.4 14.9-16.2 5.2-33.2 6.5-49.7 9.9-17.8 3.4-35.7 2.7-53.6 4.1zM357 2258.7c12.4-1.3 20.4 3.1 26.1 12 1.1 1.7 2.5 3.1 3.6 4.8 18.1 25.8 33.2 53.5 48.1 81.2 5.8 10.8 11.8 20.6 25.1 23.1 3.5.7 6.7 2.8 9.9 4.5 19.8 10.6 40.8 20 50.1 42.9 1.9 4.8 4.6 4.5 8.6 2.5 6.2-3.1 12.1-6.8 18.7-9.3 28.2-10.5 57.5-15.4 87.4-17 7.3-.4 14.5-2.1 21.8-.6 9.5 1.9 19.2 1.6 28.8 1.6 7.7 0 15.4-.5 23 .1 30.7 2.6 60.1-3.9 89.2-12.1 19.5-5.5 37.9-13.9 56-23.1 6.3-3.2 9.1-6.9 9.8-13.2.2-2.3.3-4.7.3-7-.4-19.9-.9-39.9-1.4-59.8-.2-7-.4-14-.8-21-1.7-28.1-3.6-56.2-5-84.4-.6-12.5 0-25.3-1.5-37.4-3.4-27-3.8-54.2-7.4-81.1-1.9-14.5-.8-29.2-3.1-43.7-2.2-14-3.5-28.3-4.8-42.4-1.5-16.5-1.4-33.2-4.1-49.5-3.9-23.1-4.2-46.6-7.6-69.7-3.5-23.9-7.5-47.7-11.3-71.6-4.4-27.3-9.7-54.6-16.3-81.6-2-8.1-1.9-8.2-9.5-5.9-1.9.6-3.7 1.3-5.6 2-10.8 4.1-21.2 9.5-32 13.4-41.4 15.1-79.5 36.5-117 59.2-14.9 9-25.9 20.8-33.5 36.7-7.9 16.8-21 29.5-37.2 39-16.9 9.9-35.2 16.7-53.5 23.5-8.8 3.2-17.6 6.5-26.9 9.8 1.3 1.5 1.8 2.4 2.6 2.9 9.9 7.1 11.4 12 8.5 23.7-1.2 4.7-3.2 8.7-5.9 12.5-12.3 17.2-24.3 34.6-37.2 51.4-5.7 7.4-12.2 13.9-19 20.2-8.4 7.8-17 8.5-26.9 2.5-1.9-1.2-3.7-2.9-6.7-2.4-.8 3.7-1.4 7.6-2.4 11.4-2.8 10.2-2.9 20.3 0 30.4 4.9 17.2 9.9 34.4 13 52.1 2.1 12 3 24.1 1.9 36.4-2.1 22.9-7.9 44.9-15 66.6-6.4 19.5-13.3 38.9-29.3 53.6-3.8 3.3-8.3 6.6-11.6 12.8zm1597.7-715.5c13.4-.1 22.9-.8 32.5-1.6 13.7-1.2 26.3-6.8 40-7.7 4.8-.3 11.1-1.7 14.5-7.4 7.6-12.9 20-20 33.3-25.3 26.5-10.6 53-21.1 79.6-31.3 14.9-5.8 30.4-10.6 46-12.5 12-1.4 20-6.6 28.4-14.1 12.7-11.4 23.5-24.4 35.8-36.1 14.7-14.1 27.7-29.6 39.9-45.8 9.3-12.2 14.2-26.2 18-40.8.8-3 .4-5.9-.6-8.8-4.4-12.9-9.6-25.4-15.8-37.5-9.9-19.2-21.1-37.7-32.5-56-7.4-11.8-14.9-23.6-24.8-33.5-6.2-6.2-6.1-6.3-14.1-2.2-6.8 3.5-13.3 7.6-20.4 10.1-23.3 8.4-47.7 10.8-72.3 12.2-30.1 1.7-59.4-4.4-88.8-9.5-5.8-1-10.6-1.3-15.7 1.9-3.9 2.5-8.3 4.1-12.4 6.3-3.2 1.7-6 1.9-9.5.6-15.9-6.3-32.9-7.7-49.4-11.1-3.6-.7-7.2.2-10.8.9-15.7 2.9-30.8 7-44.9 14.9-9 5-18.2 9.6-27 14.8-18.1 10.8-33.5 25.1-50 37.8-11.3 8.6-21.3 18.6-26.7 32.7-5.2 13.6-13.1 26.3-16.7 40.5-7.2 28.6-5.6 57.2 2.1 85.5 7 25.7 16.3 50.6 28.1 74.5 3.2 6.4 5.6 13.9 11.2 18.5 9.8 8.1 21.4 13.4 33.8 16 17.8 3.7 35.6 7.4 53.6 10.3 13 1.8 26.1 3.3 35.6 3.7zm268.7 189.2h5.8c8.6.2 16.6-1.1 22.6-8.1 14.5-16.9 26.9-35.3 38.2-54.5 8.5-14.3 15.6-29.3 21.1-45 4.4-12.5 9.8-24.6 14-37.2 4.6-13.9 6.8-28.4 7.5-43 .3-6.7-1.1-12.9-5.4-18.6-7.5-10.1-17.2-17.5-28.1-23.4-20.7-11.2-42.4-20.5-63.6-30.6-15.1-7.2-30-7.7-45.3-2.4-18.8 6.5-38.1 11.7-55.6 21.5-2.6 1.4-5.4 2.6-8.3 3.5-12.8 3.7-25.1 8.5-37.1 14.4-10.5 5.1-21.1 9.8-31.6 14.8-2.7 1.3-5.3 2.6-6 6.1-1.9 9.2-3 18.2-1.3 27.7 3.8 21.4 11.9 41.3 18.9 61.7 3.8 11 7.2 22.1 10.6 33.2.7 2.4 1.2 5.7-2.4 6.6-3.3.9-4.5-1.3-5.7-4.1-4-9.2-6.3-18.9-9-28.4-5.1-17.9-14.4-34.2-19-52.3-.8-3.1-2.8-4.2-5.4-5.2-13.5-5.5-26.5-12.3-40.3-17.2-2.7-1-5.1-1-7.8-.9-30.5.9-61 .5-91.3-3.9-24.7-3.6-48.5-10.1-71.2-20.7-3.6-1.7-6.8-1.9-10.5-.9-14.3 3.9-27 11.2-39.1 19.3-8.4 5.6-16.9 11.9-22.2 21.1-5.1 8.9-9.4 18.2-15.4 26.6-2.4 3.4-3.8 7.1-4.5 11-3.2 17.3-6.1 34.6-2.5 52.2.5 2.4 1 4.1 3.1 5.7 16.6 12.1 32.8 24.9 48.3 38.4 6.9 6 12.9 7.5 21.3 2.5s15.2-2.3 19.4 6.4c3.9 8 7.1 16.4 10.4 24.7 3 7.6 3 7.9 11.3 7.8 7.5-.1 15.2 1 20.5 6.2 7.8 7.6 17 12.5 26.2 17.9 4.9 2.9 9.4 4.1 15 3.8 34.6-2 68.4-8 101-20.1 6-2.2 13-3.2 17.1-9.3 8.9-13.2 21.7-22.3 33.7-32.3 5.3-4.4 11.8-7.5 17.9-10.7 7-3.6 10.4-1.4 13.7 6.2 4.1 9.8 9.9 17.4 22.2 18.4 21.1 1.7 42 5.1 63.1 6.9 15.6 1.4 30.9 4.6 45.7 4.2zm-1677 848.4c11-6.2 22.9-9.5 34.3-13.9 6.2-2.4 12.7-3.5 19.4-3.9 3.6-.2 5.9.5 8.8 3 10.6 9 22.9 15.1 37 15.1 22.7.1 45-3 66-12.2 11.4-5 23.9-8.3 31.6-19.5.8-1.1 3-1.7 4.5-1.8 7.7-.4 15-3 22.4-4.1 28.2-4.2 55.7-11.6 83.9-16 5.7-.9 6.9-2.8 7.2-8 1.1-20.6-.3-41.2 1.5-61.8 1.3-14.2.2-28.5 1-42.7.6-9.9 1.6-19.8 1.2-29.8-.3-6.6-.8-6.9-7.1-4.3-6.1 2.5-12 5.6-18.2 8-27.1 10.5-54.7 19.8-83.4 25.3-17 3.3-34.7 5-51.4 1.9-24.8-4.7-49.5-1.6-74.2-2.1-22.6-.4-45.4 4.2-67.2 11.1-10.6 3.4-21.7 6.2-31.5 12-8.5 5.1-16.6 10.8-24.3 17.1-14.9 12.1-29.7 24.3-40.2 40.9-2.4 3.8-3.4 6.4-.4 10.6 6.1 8.6 5.6 11.3-.7 19.5-1 1.3-2.2 2.5-3.1 3.9-4.7 6.6-4.7 12.1.8 17.8 3.2 3.3 5.9 7.2 9.3 10.3 6.5 6.1 13.3 11.7 22.2 14.5 5.5 1.7 9.6 1.1 13.7-2.7 3-2.8 6.1-5.2 10.6-4.2 3.3.7 5.1-.6 5-4.1-.2-5.8 3.2-9.8 6.9-13.8 8.7-9.6 19.7-15.6 31.2-20.9 5.8-2.7 11.6-2.6 17.5-2.6 1.8 0 3.6.2 3.9 2.2.3 1.7-.7 3.2-2.2 4.2-1.1.7-2.3 1.2-3.5 1.8-10.3 5.3-20.7 10.5-31 15.9-9.9 5.2-11.9 10.3-7.8 20.9 1.7 3.7 2.6 8 6.3 12.4zm989.1-2029.6c1 23.5 3.9 42.8 7.7 62 2.8 13.6 10.2 23.3 23 29.4 9.1 4.4 18.9 6 28.1 9.8 5.1 2 10.2 2.6 15.5 3.3 7.1.9 12.1-1.8 15.1-8.1 3.2-6.7 7.9-12.2 13.2-17.3 14.3-13.7 31-23.6 49.3-31.2 5.8-2.4 11.7-4.6 16.9-8.5 15.9-12 31.9-23.8 47.9-35.7 4-3 7.7-6.3 12.1-8.7 3.9-2.2 6.2-5.8 7.7-10.1 3.5-9.7 7-19.5 8.7-29.6 1.3-7.7 2.6-15.7-.1-23.7-7.9-22.7-24.6-38.2-42.5-52.8-3.3-2.7-7.4-4.7-11.5-5.8-6.1-1.7-11.9-4.1-17.9-6-4.5-1.4-9-4.7-14.3-1.6-1.8 1-3.8-.8-5.5-1.7-3.8-2-7.7-4-11.5-6-3.5-1.8-6.7-1.7-10.4.1-9.8 4.8-19.5 10-28.5 16.2-3 2.1-5.9 4.3-6.8 8.2-2.1 9.2-7.1 17.2-11.7 25.2-7.9 13.9-16.3 27.4-32.1 34-2.4 1-4.5 2.7-6.2 4.9-8.5 11.2-19.2 20.2-30.8 28.1-10.6 7.1-18.6 15.3-15.4 25.6zm805.1 2270.7c-3.8-1.4-7.7-.9-11-.2-14.6 3.1-29.2 1.3-43.8 1.4-8.3.1-10.3 1.6-9.8 10 .1 1.6.9 3.3.8 4.9-2.5 24.3-1.6 48.7-2.4 73-.7 20 .5 40 .9 60 .2 9.3.2 18.6.7 27.9.7 13.1 4.9 17 17.7 19.9 16 3.7 31.6.6 47.3-1.8 1.9-.3 3.8-1.2 5.6-2 3.5-1.7 5.6-3.9 5.4-8.4-.6-11.6.2-23.4-1.1-34.9-4.2-37.6-4-75.6-7.7-113.2-1.1-12.3-1.7-24.5-2.6-36.6zM108 2910.6c0 11 .2 22 0 32.9-.2 12.4 1.7 24.5 3.5 36.6.5 3 1 5.9 4.2 7.4 4.5 2.2 8.8 4.7 13.9 5.1 11.6 1 23.2.7 34.8.5 3.5-.1 5.3-1.2 5.6-5.2.5-7.3 1.4-14.5 1.3-21.8-.5-33.5-.6-67-1.5-100.5-.7-24.5-2.6-49-3.7-73.6-.2-4.5-2.1-5.4-6-5.7-13.5-.9-27.1-.8-40.6-3-3.8-.6-6.4.2-6.2 5.1.3 9.9-1.6 19.7-2.3 29.6-2.2 30.9-3.1 61.8-3 92.6zm314-1042c-5 .2-8.8.2-11.8 2.7-5.6 4.7-11 9.7-14.8 16.1-8.8 15-13.7 31.3-18.3 48-2.8 10.1.1 18.5 5.2 26.3 6.3 9.4 14.4 17.4 22.8 25 7.6 6.9 11.8 6.7 19.8-.1 8.9-7.6 15.9-16.9 23.8-25.5 14.7-16.1 24.2-35.6 35.7-53.8 1.8-2.8 3.4-6.5.3-9.1-5.2-4.5-9.1-11-16.6-12-2.2-.3-3.4-1.3-5-2.6-12.3-9.9-27.5-12.2-41.1-15zm1797.9 1014.7h-.5v-5c.4-19.3-1.5-38.5-2.2-57.7-.3-7.3-1.1-7.7-8.3-8-8.6-.4-17.3-1.2-25.9-1.3-22.2-.1-20.7-5.6-22.8 21.8-1.5 19.2.2 38.6 0 57.8 0 7.6.8 15.3 1.9 22.8 1.4 9 7.9 14.6 16.9 14.7 11.3.1 22.5.7 33.5-3.2 7.1-2.5 7.4-1.9 7.5-9.2-.1-10.8-.1-21.8-.1-32.7zm-400.5-1627.5c4.1-.2 6.1-2.6 8.6-4.2 14.6-9.8 27-22.4 42.4-31.2 7.7-4.4 14.6-10.4 22.3-14.8 14.9-8.6 30.3-16.7 47.2-20.6 23.2-5.5 46.2-1.9 68.8 3.9 4.7 1.2 9.2 2.8 14.2 1.1-.6-3.6-3.6-3.5-5.4-4.1-15.6-4.6-30.5-11.2-44.8-18.6-9.1-4.8-16.7-4.4-25.4-.5-14.2 6.4-28.9 11.6-43.5 17-14.6 5.4-30 6.5-45 6.3-18.5-.3-36.5-6-53.7-13.2-2.3-.9-4.5-2.8-7.6-1.3 7.3 27 14.6 53.7 21.9 80.2zM267.2 2860.1c0-11.6.9-23.3-.2-34.9-1-10.5-.8-21.2-4.5-31.4-1.2-3.3-2.5-4.4-6.1-4.8-8.6-.9-17.2-.3-25.8-1.5-8.5-1.1-10.8 1.7-11.3 10.6v2c0 19.1-2.3 38.3-.7 57.5 1 11.2.8 22.5 1.4 33.7.5 9 3 12 11.1 11.6 9.9-.5 19.8.1 29.8-1.5 5.5-.8 6.4-2.9 6.3-7.6-.1-11.1 0-22.4 0-33.7zm1363.2-1242.3c19 4.7 35.3 1.3 51.6-2.4 8.6-2 15.7-6.7 22.1-12.8 1.8-1.7 4.1-4 7-2.6 3.1 1.4 2.3 4.4 2.2 7-.1 8.7 0 17.3-.1 26-.1 4.4.8 8.6 2.7 12.6.9 2 2.2 3.3 5.3 2.2 0-6 .2-12.3 0-18.5-.8-17.7 2.8-33.8 12.6-49.2 14.2-22.1 30.3-41.7 53.9-54.4 7.3-3.9 14.9-7.2 22.2-11.2 3.5-1.9 4.7-3.3 2.5-7.6-5.2-10.3-9.8-21-14.2-31.7-2.9-7.1-4.3-15-9.7-21.7-3.2 11-9.7 19.6-14.3 29.1-10 21-22.5 40.5-34.3 60.4-6.4 10.8-15.1 20.1-21.6 30.9-4.9 8.1-12.8 14.8-21.8 18.5-16.2 6.6-32.9 12.1-49.3 18.2-5.1 1.9-10 4.3-16.8 7.2zm-956.7-307c-7.6-3.4-15.2-6.5-22.6-10-12.2-5.8-24.3-12.1-34.8-20.6-7.6-6.1-15.3-9.3-24.3-10.7-.3.9-.6 1.2-.6 1.5.2.9.3 1.9.7 2.8 5.8 12.5 13.4 24.4 11.2 39.2-.1.6.1 1.3.3 2 4 12.9 5.5 26.6 10.9 39.1 3.1 7.3 3.8 15.8 10.1 23.3.5-4.3 1.3-7.2 1.1-10-.3-4.4 1.4-7.8 4.2-10.8 12.5-13.2 23.7-27.7 38-39 2.4-1.8 4.6-3.6 5.8-6.8zm844.6-387.3c32.7 6.5 64.8 13.5 99.2 15.2-15-20.6-25.1-42.1-35.2-64.9-21.8 16.8-42.4 33.6-64 49.7zm-890.8 841.2c20.4-12.2 41.1-23.3 61.9-34.9-12.8-14.4-25-28.1-37.7-42.4-8.4 26.5-14.7 52.3-24.2 77.3zm555.1-258.4c-3.4 19.3-4.8 36.9-9.1 54.1-.2.6 0 1.3-.1 2-.6 3.3.7 4.6 4.1 5.1 9.2 1.3 18 4.2 26.9 6.9 9.3 2.8 9.4 2.3 15.5-6.2 1-1.3 1.9-2.8 3.2-3.8 3.8-3 2.1-5.6-.3-8.3-7.5-8.5-15.1-16.8-21.6-26.1-5.6-7.7-11.7-14.9-18.6-23.7zm-117.9-257.7c16.2 24.7 39.4 40.2 54.2 64.7 1.9-6.9-.8-11.6-1.1-16.5-1-15.2-2.7-30.3-3.8-45.4-.3-3.8-2.2-4.5-5.2-4.1-5.9.8-11.8 1.5-17.8 1.4-8.2-.3-16.4-.1-26.3-.1zm948.3 510.8c-30.5 9.7-58.9 19-88.9 24.1 3 4.2 6.6 6 9.7 8.4 4.2 3.2 8 8.9 12.4 9.3 5.9.5 7-7.6 10.8-11.6 6.6-7.1 8.6-8.1 18-5.3 6.3 1.9 12.6 3.9 18.9 5.8 2.4.8 4.5.9 5.8-1.9 4-8.9 8.1-17.7 13.3-28.8zM848 510.5c11.1-14.4 21-27.4 31.3-40.7-14.2-10.8-29.9-18.6-43.3-30.4 7.8 22.6 8.4 46.1 12 71.1zm170.4 132c2.2-13.5 2-25.1 6.3-35.4 4.7-11.2 9-22.8 16.2-32.9 1.5-2.2 4.1-4.5 2.5-7.8-2.1.1-2.8 1.6-3.9 2.9-12.5 14.2-23.5 30.1-43 36.3 7.1 12 13.9 23.5 21.9 36.9zm19 189.6c1.1-6.4-1.4-10.2-4.7-13.6-7.4-7.6-13.6-16.2-20-24.6-2.6-3.4-4.2-7.6-8-9.9-4.3 3.8-6.8 9.1-11.3 12.7-3.2 2.6-2.9 4.7 1.2 6.5 10.2 4.4 18.7 11.3 27.3 18.1 4.6 3.7 9.6 6.8 15.5 10.8zm539.2-171.2c10.8 9.7 14.2 23.2 20.2 36.5 6.3-10.9 11.4-21.3 16.8-33.3-13.3 2.4-24.4-3-37-3.2zm-50.8-79c.7-.2 1.5-.3 2.2-.5-3.9-12.5-.6-25.6-3.4-39.2-8.9 4-18.1 4.4-26.1 8.8 9.5 10.7 18.4 20.8 27.3 30.9zm552.9 1497.3c4.1-2.8 7.4-4.9 10.4-7.3 5.3-4.3 5.4-5.5.2-9.7-3.8-3.1-7.6-6.2-11.1-9.7-4.4-4.5-9.1-8.7-15.4-14.6 4.3 15.4 11.1 27.4 15.9 41.3zM896.8 878.2c5.6-11.6 9.6-21.7 12.8-32.8-8.8-.8-16.5 1.6-25 1.7 4.1 10.5 7.8 19.9 12.2 31.1zm204.6 49.8c-8.4-7.4-16.2-14.4-24.1-21.3-.8.5-1.5.9-2.3 1.4 5 4.8-.2 12.6 5.3 16.3 5.1 3.4 12 3.2 18.1 4.2.6 0 1.2-.3 3-.6zm920.7 621.1c5.5 3 10.7 5.8 16.3 8.8 1.6-12.6 1.6-12.6-9-11.4-2.2.3-4.6-.6-7.3 2.6zM1642.9 392.7c-1.9 5.5-4.1 9.8-3.1 15.1 5.8-.9 9.3-5.5 14.4-7.6-2.9-4.1-6.8-5.1-11.3-7.5zm-808.3 178c14.4 1 11-4.4 5.9-14-3.2 4.2-4.4 8.9-5.9 14zM375.7 1875.4c1.4 3.6 4.3 5.6 7.6 7.1 2 .9 3-.6 3.7-2.2.8-1.7.8-3.5-1.6-3.6-3.1-.1-5.9-3.1-9.7-1.3zm669.2-1310.8.7-.7c-.4-.2-.9-.5-1.3-.6-.2 0-.4.4-.7.6.4.2.9.5 1.3.7z"/><path fill="#98B3B7" d="M761.8 744.8c1.3 6 4.6 10.7 9 15.1 18.1 18.1 35.7 36.6 54 54.5 6.9 6.7 14.3 12.9 21.3 19.5 3.2 2.9 7.3 4.9 11.6 5.5 4.1.5 6.7 2.6 8.5 6 7.5 14.5 16.5 28.1 23.3 42.9 1.9 4 3.7 8.3 3.1 12.3-1.8 11.3 3.5 20.7 7.3 30.4 3.8 9.5 8.9 18.5 13.3 27.8 4.6 9.7 13.2 14.4 22.5 18.5 9.2 4.1 19.3 4.7 29.5 8.1-5.9 10.5-11.7 20.7-17.6 30.9-12.9 22.4-21.7 45.8-22.9 72.2-.9 17.9 3.5 34.8 5.5 52.2 1.5 12.5 4 24.9 3.6 37.6-.1 2.3.3 4.7-1.3 7-9.8-.4-19.6-.2-29.6-1.8-11.1-1.9-22.1-.3-32.4 5.8-8.8 5.2-18.6 8.6-27.6 13.6-15.1 8.3-29.5 17.7-44.8 25.6-16.1 8.4-31.3 18.5-47.8 26.5-11.8 5.7-22.5 14.1-33.2 21.9-9.4 6.8-19.1 13.1-27.6 21-2.7 2.5-5.6 2.5-9.2 1.3-12.7-4.2-24.3-10.8-35.6-17.6-9.6-5.8-19.9-10.7-28.9-17.6-10.2-7.9-22.5-11.3-34.8-14.3-3.9-.9-6.3-2.3-8.5-5.7-7.5-11.4-15.3-22.5-23.3-33.5-6.7-9.1-15.3-16.6-23.4-24.5-2.8-2.7-6.6-4.9-10.9-2.8-2.6 1.3-4.6 3.2-1.4 6.1 8.4 7.7 13.9 17.8 21.6 26 14.3 15.4 25.8 32.9 37.3 50.4 6.5 9.9 11.9 20.7 17.5 31.2 5 9.3 5 19.9 6.5 30 2.5 16.6 8.8 32 13.7 47.8 1.5 4.8 3.4 9.4 5.3 14 5.4 13.1 4.4 26.8 3.4 40.3-1.4 18.5-3.3 37-6 55.4-2.8 19.8-3.8 39.7-3.7 59.6.1 16.2-.4 32.4 1.7 48.5 1.6 12.7 6.6 24.3 10.7 36.1 4.2 12.3 9.5 24.1 17 34.9 2.6 3.8 4 7.9 1.7 13.1-1.9 4.4-1.8 9.7-2.4 14.6-.9 6.9-2.2 13.7-4.3 20.4-5.1 16.4-9 33.3-15.6 49.3-9.8 23.9-23.2 45.9-40 65.2-11.8 13.6-26.2 24.9-45.1 29.5-14.7 3.6-28.8 10.1-42.6 16.5-10.8 5-20.4 6.2-31-.2-7.9-4.8-16.5-7.9-25.9-9.9-12.4-2.5-23.7-2.1-34.5 4.4-4.3 2.6-8.7 2.7-13.4 1.8-19.1-3.8-37.3-9.5-52.1-23.1-4.9-4.5-11.1-7.2-16.9-10.4-10.4-5.8-20.4-12.5-30.1-19.5-8.7-6.2-18.1-11-27.8-15.2-9.7-4.2-19.3-8.9-28.9-13.4-2.3-1.1-4.9-3.4-6.9 0-2.1 3.6-.2 6.4 3.2 8 5.1 2.4 10.1 5.2 15.5 6.9 21.5 7 39.7 19.7 57.4 33.3 5.3 4.1 10.5 8 16.9 10.3 7.6 2.8 14.3 7.2 20.4 12.3 13.3 11 26.1 22.6 39.5 33.6 4.2 3.4 4.8 6.3 2.6 11-5.9 12.4-8.1 25.9-11.4 39.1-1 3.9.3 7.8 2 11.4 3.6 7.8 7.7 15.5 13.3 22.1 6.2 7.4 6.8 15.5 5.3 24.3-1 5.9-2.4 11.7-3.3 17.6-1.2 8.3-.7 16.5 1.9 24.6 5.6 17.4 11.6 34.7 16.4 52.3 3.6 12.9 3.8 26.3 1.1 39.4-3.2 15.3-6.7 30.5-10.1 45.7-3.7 16.6-11.8 30.8-22.1 44.1-9.9 12.6-20.3 24.6-32.9 34.6-1 .8-2.1 1.7-2.9 2.7-1 1.3-2 2.8-.8 4.5.8 1.1 2 1.7 3.4 1.3 6-1.6 11.8 1.1 17.8 1.1 5.9-.1 10.6 2.6 14.6 7.3 6.3 7.3 11.9 15.1 16.8 23.4 10.8 18.3 22 36.4 33 54.6 2.8 4.5 6.2 8.9 7.9 13.8 4.5 13 14.9 18.6 26.4 23.5 17.2 7.4 33.3 16.7 45.5 31.5.8 1 1.9 1.9 2.6 3 9.7 14.9 9.9 13.3-4.2 23.3-17.5 12.3-32.3 27.6-42.4 46.9-2.3 4.4-3.1 8.7 1 12.8 4.7 4.6 3.9 9.3-.1 14-1.7 2-3.7 4.2-4.4 6.6-2.6 10-9.8 14.2-18.8 17-22.7 7.1-44.8 16.7-68.6 19.9-20.4 2.8-40.6 6.6-61.3 6.8-8.9.1-17.9.9-26.8 1.3-31.4 1.4-60.3-5.9-87.9-21.1-19.4-10.7-39.7-19.9-58.6-31.7-1.3-.8-3.2-.6-4.8-.9-6.9-3.5-13.7-6.9-20.6-10.4 2.7-2.9 1.9-5.8.9-9.2-3.4-11.1-7-22.1-8.9-33.6-3.7-22.9-5.9-45.7-2.7-69 1.6-11.7 5.6-21.6 12.1-31 8.4-12.3 16.2-25 24.6-37.2 2.7-4 4.3-8.2 5.9-12.6 3.9-10.8 3.4-13.3-6.2-20.3-6.7-4.9-13.9-9-21.1-13.1-14.1-8-23.8-20.1-31.1-34.2-11.6-22.4-23.2-44.8-34.7-67.2-5.2-10.1-8.8-20.8-11.1-31.9-2.1-10 .2-19.8 2.3-29.5 6.2-29 16.3-56.7 26.7-84.3 1.8-4.7 3.3-9.4 4.9-14.1 1.8-5.2 1.9-10.5.7-15.8-4.2-19.1-7.7-38.4-10.6-57.8-2.8-19.2-2.1-38.6 1.2-57.5 1.7-9.7 8.6-17.8 14.7-25.7 13.8-17.9 29.8-33.8 45.6-50 8.1-8.3 16.9-16 25.2-24.1 9.5-9.1 20.7-10.8 33-10.1 4 .2 8 .5 11.9.1 2.3-.2 4.2-2.2 4.5-4.7.3-2.7-2.2-2.8-4-3.6-34-16.4-64-38.7-93.1-62.5-13.6-11.1-27.2-22.3-41.2-32.9-20.8-15.9-33.6-37.3-43.2-61-1-2.5-1.6-5-1.4-7.8 2.4-34.5 5.7-68.8 16-102 3.4-10.8 6-21.8 8.7-32.7 2.1-8.7 4.5-17.4 8-25.6 1.4-3.3.8-5.6-.7-9-8.8-20.1-14.1-41.4-17.9-62.9-1.8-10.1-3.8-20.2-5.3-30.4-3.1-20.7 1.4-39.3 11.3-57.4 13.3-24.4 29.3-46.8 46.8-68.2 14.4-17.7 27.7-36.6 44.6-52 15-13.7 28.3-28.9 43.2-42.6 13.7-12.5 29-22.2 44.7-31.4 3.1-1.9 6.4-3.4 9.2-5.9 5.4-5 5-8.9-1.7-11.7-18-7.5-36-15.2-54.2-22.2-19.7-7.7-35-21.3-49.6-36-5.4-5.4-10-11.5-14.7-17.6-10.7-14-17.5-29.5-18.9-47.3-2.6-32.4 2.9-63.4 16.9-92.7 5.8-12 14.7-22 23-32.5 8.1-10.3 18.1-18.2 29-25.4 17.5-11.4 34.5-23.5 51.6-35.5 5.4-3.8 11.1-5.7 17.7-5.3 8.6.5 17.2 1.1 25.4 4.3 5.5 2.2 11.2 1.4 16.8.7 3.3-.4 4.2-3.2 1.9-5.9-1.5-1.7-3.5-3-5.4-4.4-21.9-16.1-41-35.1-54.9-58.5-16.5-27.8-24.6-57.9-22.1-90.6 2.6-34.6 10.8-67.9 20.2-101.2 8.7-30.7 19.5-60.6 28.8-91.1 8.7-28.8 17.9-57.6 30.9-85 1.2-2.5 2.5-4.5 4.8-6.1 16.8-11.7 35.1-20 54.9-25.1 19.2-5 38.6-9.6 57.4-15.9 18.2-6.1 35.8-14 53.5-21.7 12.2-5.3 24.3-11 35.7-17.4 10.8-6 21.4-12.9 32.2-19.4 6.5-3.9 13.4-7.4 19.8-11.5 6.8-4.5 14.6-4.9 22-5 31.6-.7 63.2 1.3 93.5 11 28.1 9 53.7 21.9 74 44.8 14.7 16.6 32.1 30.7 48.5 45.7 3 2.7 5.4 5.9 8.1 8.8 1.3 1.4 2.9 1.6 4.5.8 1.3-.7 1.6-2.1 1.5-3.4-.2-5.1-1.9-9.7-4.3-14.2-16.9-31.7-26.1-65.1-23.4-101.4 1.4-19.2 4.4-38.2 8.5-57 2-9.2 7.1-17.6 15.6-22.4 28.1-15.8 53.8-35.7 83-49.7 22.5-10.7 43.7-23.8 66.2-34.4 8.5-4 17.6-5.7 26.4-8.2 9.3-2.6 18.3-5.7 27.4-9 12.8-4.7 25.9-6.1 39.9-3.2 46.1 9.7 90 25.4 132.3 45.9 14.9 7.3 29.7 15.1 44 23.6 16.3 9.7 34.1 16.4 50.6 25.7 31.5 17.8 63.5 34.7 92.4 56.9 7 5.4 12.8 11.3 16.9 19 1.5 2.8 3.3 5.4 6.6 5.2 3.6-.2 4.4-3.7 5.7-6.3 4.7-9.8 7.6-20.4 14.1-29.5 10.6-14.7 15.8-32.1 22.8-48.5 4.8-11.2 11.9-20.7 19.8-29.7 7-8 14.5-15.6 22.2-23 7.2-6.9 16.5-11 24.1-17.5 2.8-2.4 7.6-1.8 11.5-2.5 30.3-5.4 60.7-5.3 91 .2 10.7 1.9 19.8 7.6 28.4 13.9 12.6 9.3 24.8 19.1 33.8 32.1 5 7.1 7.6 14.6 4.7 23.4-1 3.1-.4 6.6-.9 9.9-2.3 13.1-6.8 24.7-14.9 36-12.1 17-26.2 32.6-36.8 50.7-4.1 7-5.1 13.4-2.7 20.7 3.7.2 4.4-2.5 5.4-5 8-19.6 19.7-36.7 34.6-51.9 13.9-14.2 27.2-29.1 40.9-43.6 2.5-2.6 5.3-5 8.3-7.1 11.5-8 21.2-18.1 30.6-28.4 8.5-9.3 18.7-16 30.9-19.1 13-3.3 24.7-9.5 36.8-14.9 15.6-7 31.7-9.6 48.5-5.3 19.3 4.9 38.5 10.7 56.4 19.4 14.9 7.3 29.6 15.3 43 24.9 16.6 11.9 29 28.1 39.5 45.6 4.3 7.2 9.2 13.8 15 19.9 6.2 6.5 11.7 13.5 16.4 21.1 9.5 15.4 21.5 28.6 33.2 42.2 8.6 10 12.5 21.4 11.3 34.9-.9 10.3-2.8 20.4-4.7 30.5-1.6 8.3-6.1 15.6-10.7 22.4-13.2 19.4-23.5 40.3-31.9 62-9.9 25.4-22.2 49.7-33.9 74.3-4 8.5-2.3 10.7 6.6 13 20.3 5.1 40.4 10.5 60.5 16.1 11.5 3.2 22.8 6.9 34.1 10.4 1.9.6 3.8 1.2 5.6 2.1 26.9 13.7 54.9 25.2 83.1 35.8 28 10.5 55.9 21.2 82.1 35.4 18.6 10.1 38.1 18.5 55.8 30.3 16.3 10.8 33.4 20.3 49 32.2 18.6 14.1 33.7 31 42.7 52.9 1.9 4.7 2.5 9.8 3 14.6 1.7 14.9 6 29.2 9.1 43.8 4.3 20.1 7.5 40.4 10.1 60.8 3.1 24 6.7 48 10 72 3.5 25.8 3.2 51.5-1.4 77.2-5.6 31.6-15.6 61.8-28.5 91-2.5 5.8-5.7 11.3-9.2 16.6-19.6 30-39.6 59.9-59.1 90-7.7 11.9-18.1 19.7-32.4 20.1-11.5.3-21.3 4.1-30.6 10.3-19.4 12.9-40.9 20.1-63.7 24.1-21.5 3.8-43.2 3.6-64.7 2.2-19.4-1.3-38.7-4.6-57.5-10.7-8.4-2.7-17.4-4.1-26-6.3-13.6-3.5-25.4-11.2-38.2-16.7-4.9-2.1-9.6-4.6-14.5-6.5-7.7-2.9-15.4-3-23.2.4-9.1 4-18.2 8.2-26.7 13.3-12 7.2-26 7.5-38.8 12-15.7-2.9-31.8 1.4-47.5-3.4-8-2.5-15.4-6.4-22.7-10.1-13.9-7-28.1-13.4-41.8-20.7-6.8-3.6-12.9-8-17.7-14.2-3.6-4.7-8.5-8.3-12.7-12.6-11.9-12.3-20.1-27.1-27.9-42-8.2-15.6-15.3-31.7-23.6-47.2-8-15-14-30.9-22-45.8-.9-1.7-1.8-3.6-2.9-5.2-.8-1.1-2.1-1.8-3.5-1.3s-1.9 1.7-2.1 3.1c-.5 4.2 1.3 7.8 2.7 11.6 5.5 14.6 13.4 28.3 18.6 42.9 7.9 22.5 21 42.1 32 62.9 6.7 12.7 17.1 22.9 25.2 34.7 8.5 12.3 20.3 19.8 33.3 25.9 11 5.2 16.4 12.7 19.6 25 6.3 23.7 10.7 47.9 19.5 70.9 1.8 4.8 2.3 8.9-2.2 13.4-6.8 6.8-10.9 16-13.7 25-6 19.7-11.3 39.6-15.2 59.8-.6 3-1.2 5.8-1.1 8.8.4 21.5-.7 43 5.3 64.1 2.5 8.8-2.5 16.2-5.4 23.7-6.4 16.5-15.3 31.8-23.7 47.3-10.6 19.6-21.7 38.8-33.5 57.7-4.4 7-10.1 13.2-13.8 20.7-1.6 3.2-4.9 4.4-7.9 5.7-21.7 9.3-43.6 18-64.9 28-11.2 5.3-21.6 3-31.8-.9-15.4-5.8-31.3-7.8-47.5-10-22.1-2.9-44.4-1.4-66.5-4.6-8.8-1.2-16.7-4.3-24.1-8.9-3.2-2-6.3-3.5-10.1-3.9-23.8-2.4-47.5-4.6-71.3-7.3-20.4-2.3-40.8-5.3-61.2-7.9-2-.3-4-.4-6-.2-4.2.5-7.2-1-8.7-4.9-2-5.3-5.5-5.3-10.4-4.5-10.4 1.8-19.6 6.3-28.5 11.4-3.9 2.2-6.1 2.1-9.2-1.6-5.8-7.1-12.6-13-20.5-18.3-10.5-7-17.5-18.1-25.4-28-9.3-11.7-18-23.8-25.1-37-1.5-2.8-2.3-5.2-1.9-8.5 2-14.6.5-29.1-1-43.6-2.4-23.4-15.1-42.8-26.4-62.5-5.4-9.5-11.6-18.6-18.5-27.2-4.1-5.1-5.7-10.8-6.1-17.5-1.1-15.5-1.9-31.3-5.1-46.4-6.1-28.6 5.2-50 25.7-67.8 17.6-15.3 35.8-29.8 53.7-44.7 7.9-6.6 14.8-14.3 23.5-20 2.7-1.8 4.7-4.7 6.6-7.4 13.8-18.7 24.5-39.5 37.9-58.5 1.8-2.5 1.6-5 .5-7.5-2.2-5.3-1-9.6 3.6-13.2 16.5-13.1 30.6-28.6 45.1-43.8 5.9-6.2 12.9-11.2 20.5-15.6 11.1-6.6 21.3-14.6 31.9-22.1 16.3-11.5 34.2-20.2 52.3-28.5 3.3-1.5 6.9-2.5 10.1-4.2 13.2-7.1 27.4-9.1 42.1-10.2 15.1-1.2 29.9.6 44.8 1.7 6.2.5 12.3 2.6 18.5 3.8 22.5 4.1 45 7.9 67.5 12 5.9 1.1 11.7 2.5 17.4 4 4 1 7.2.3 9.4-3.4 2.1-3.6 1.6-6.5-1.1-9.9-15.1-19-28.1-39.4-39.8-60.7-2.7-4.9-4.8-10.2-7.2-15.3-6.6-13.8-4.1-27.9-1.5-42 1.3-7.3 1.6-14.5-.9-21.6-1.9-5.5-2-11.2-1.4-16.8 1.7-18.2 5.6-36.2 11.9-53.3 5.6-15.2 11.9-30.2 18.8-45 16.1-34.2 40.8-60 74-78 8.5-4.6 16-10.7 23.6-16.6 8.7-6.7 17.9-12.6 27.1-18.6 11-7.3 21.8-15.1 32.1-23.4 10.9-8.8 23.1-15.5 34.9-22.9 18-11.4 36.4-21.8 53.4-34.8 10.2-7.8 22.3-12.9 34.5-17.3 3.7-1.3 7.3-3.1 10.9-4.7 2.5-1.1 3.3-3 2.6-5.7-.7-2.8-2.9-2.3-4.8-2.3-3.4 0-6.5.7-9.7 2.1-8.9 3.8-18 6.9-26.7 11-4.3 2-8.2 2-12.5 1.3-15.7-2.8-31.2-6.2-47-8.4-16.7-2.3-30.1-9.2-39.3-23.8-6.1-9.7-15.4-16.4-24.1-23.5-2-1.7-4.4-3.1-6.9-4-11.5-4.1-23-8.4-34.8-11.9-14.5-4.3-29.3-7.8-42.8-14.9-8-4.2-14.7-10.2-21.6-15.9-8.4-7-17-13.8-24.9-21.3-5-4.8-10-10.1-13.4-16.1-8.9-15.8-19.9-30.8-23.9-49-2.4-10.9-3.8-22.1-5.5-33.2-.2-1.3-.1-2.7-.2-4-.2-1.7-.8-3.4-2.8-3.5-1.4-.1-2.4.9-3.1 2.1-1.3 2.3-2.1 4.8-2.1 7.6-.2 7.4 1.4 14.5 2.8 21.6.7 3.5 1.5 7 2.6 11.9-12.2-6.4-22.9-11.5-34-16-5-2-9.9-3.4-15.3-3.8-19.7-1.3-39.2-1-58.5 3.2-4.1.9-7.6 2.7-10.4 5.6-4.4 4.8-9.8 4.8-14.5 2.2-16.5-9-34.4-15.4-48.1-29.5-8.8-9-16.8-17.6-20.9-29.7-1-3.1-2.2-8.3-7.2-5.8-4.2 2.1-2.5 6.3-.7 9.6 6.3 11.5 6 25.3 12.8 36.5 9.3 15.2 14.1 32.2 19.6 48.9 3 9.2 4 18.7 5.3 28.3 2.1 16.2 1.6 32.5 2.4 48.7 1.4 25.2-6.7 47-23.2 65.8-4.2 4.8-9.8 6.8-15.7 8.1-16.2 3.6-32.5 6.9-48.7 10.4-22.4 4.8-43.9 12.7-65.9 19.2-14.3 4.2-28.6 8.6-42.8 13.4-11.1 3.8-23.3 4.7-35 6.4-31 4.4-62.2 6.1-93.3 4.4-19.1-1.1-38.4-2.3-57.2-6.9-3.9-.9-7.9-1.1-11.8-2-2.6-.6-4.7.3-6.6 1.5-2.2 1.5-4.5 3.4-3.8 6.5.6 2.7 3.3 3 5.7 3.1 15.7.8 24.9 12 34.9 21.9 3.5 3.4 3.8 7.4 2.1 11.9-5.8 15.3-16.9 26.1-30 35.1-5.9 4.1-12.9 4.9-20.1 4.5-19.8-.9-39.7-1.1-58.8-7.2-8.3-2.7-17-2.9-25.6-2.8-10.3 0-20.7-.2-31 .1-7.5.2-12.3-2.7-15.9-9.5-4.2-7.8-6.2-16-7.1-24.6-.8-7.7.6-15 4.3-22.1 8.6-16.3 19.8-30.7 32-44.3 4.5-5 7.6-5.5 14-1.5 7.6 4.8 15.5 9.1 23.8 12.5 2.8 1.1 5.5 2.4 8.3 3.2 5.4 1.6 8 .5 9.4-4.1 1.5-5.1-2.7-5-5.7-6.1-22.9-8.4-43.7-20.6-63.6-34.5-17-12-31.5-26.5-42.8-44-4.2-6.4-6.3-13.8-10.2-20.5-8.5-14.6-20.2-26.3-32.2-37.7-.5-.5-1.1-.8-1.6-1.1-2.3-1.4-5-3.6-7-.8s1 4.2 3 6.1c17.4 16.4 30.5 35.4 35.9 59.4 5.4 23.9 10.9 47.8 14.7 72 2.6 16.2 3 32.8.4 48.8-2.2 13.6-4.7 27.5-10.8 40.3-1.5 3.1-4.4 7.1-.8 10 2.9 2.3 6.9 1.1 10.3-.8 1.4-.8 3.1-1.2 4.6-1.9 7.6-3.1 14.3-5.1 19.9 4.4 4.9 8.4 14.5 8.3 23.2 8.8 10.7.7 21.2-1.6 31.8-2.4 4.8-.4 9.1-.5 13.6.8 15.9 4.6 32.1 8.3 48.7 9.3 3.6.2 5.8 1.9 8.4 4.3 7.3 6.7 12.1 15 17.2 23.2 5.2 8.5 10 17.2 14.5 26.1 4.9 9.9 4.9 20.7 3.6 31.3-3.2 27.4-8.5 54.4-17.9 80.4-1.9 5.2-5.5 9.3-9.5 12.6-10.8 9-18.2 21.1-28.8 30.2-5.2 4.5-9.1 10.7-15.5 13.9-3.7 1.9-3.8 3.9-1.7 7 2.2 3.4 4.5 4.7 8.1 1.7 4.3-3.7 9.6-5.9 13.4-10.3 9.8-11.1 19.4-12.6 34.2-3.3 15.8 9.9 28.1 23.3 39.8 37.4 2.1 2.6 4.2 5.1 6.2 7.8 4.9 6.4 9.2 13 10.6 21.2 1.8 10.8 4.6 21.4 5.9 32.3.5 4.3-.2 6-4.7 6.3-10.9.6-20.5 5.3-29.7 10.8-2.3 1.3-5.2 2.6-3.5 6 1.3 2.7 3.8 1.9 6.1 1.7 9.6-.6 18.7-4 28.4-4.7 16-1.1 32-.3 47.6 1.6 16.1 2 32.2 4.3 48.2 6.5 15.6 2.2 28.1 9.6 39 20.2 11.6 11.2 20.6 24.3 28.5 38.2 3.3 5.8 7 11.2 11.7 16.1 9.9 10.4 17.9 22.3 26.5 33.7 7.5 9.8 7.3 19.7.5 30.1-8.4 12.8-15.6 26.3-24.9 38.5-4.7 6.1-10 11.4-15.6 16.7-18.3 17.5-39 31.9-59 47.2-11.9 9.1-22.6 19.6-33 30.4-3.5 3.6-6.4 7.9-8.2 12.5-2.7 6.7-7.5 8.5-13.9 8.4-15-.1-29.9-.1-44.9 0-21.2.1-41.5-3.6-60.7-13.1-9.3-4.6-17.3-10.9-25.3-17.3-1.8-1.5-3.6-2.9-5.3-4.6-2.6-2.6-5.2-2.8-7.8-.1-2.7 2.8-1.6 6 .5 8 4.8 4.6 9.7 9.3 15.3 12.7 9.4 5.6 18 12.4 28.2 16.8 9.6 4.1 19.1 7.6 29.5 7.7 9.5.1 17.1 3.3 23.7 10.5 10.9 11.9 23.3 22.4 33.7 34.8 6.7 7.9 11.9 16.8 17.5 25.4 6.1 9.4 12.1 18.9 19.1 27.7 10.5 13 19.2 27.1 27.7 41.3 11.6 19.5 17.7 40.7 17.6 63.5-.1 29.2-3.1 58.2-6.4 87.2-.8 7.4-3 14.9-4.5 22.4-.9 4.8-2.8 6.6-7.9 6.5-14.9-.4-29.7 1.4-44.1 5.3-24 6.5-48 13.1-71.8 20.2-10.2 3-19.8 7.8-29.8 11.2-12.1 4.1-22.9 10.2-31.9 19.4-1.7 1.8-3.8 2.7-6.2 2.9-6.6.5-13.2 1.4-19.8 1.3-13.4-.1-26.4 2.7-39.5 5-5.5 1-10.5 4-15 7.4-7.4 5.6-14.9 11.2-22.1 17-3.4 2.8-6.9 3.8-11.1 3.2l-10.8-1.8c-8.2-1.3-15.6.6-23 4.4-11.2 5.7-21.5 13.3-33.7 17.2-1.9.6-4.5 1.4-4.8 3.2-.9 6-6.1 6.5-10.1 8-21.9 8.5-43.9 16.7-65.9 25-.6.2-1.4.2-1.9.6-8.6 6.9-14.9 3.8-22.5-3-9.9-8.8-15.8-20.5-24.8-29.7-11.9-12.3-20-27.3-28.7-41.8-7.3-12.1-11.5-25.5-15.4-39.3-5-17.4-3.8-34.9-4.9-52.3-1-16.7.5-33.7 1.7-50.5 2.4-32.8 8.9-65 11.3-97.7.8-11.3 3.7-22.3 4.6-33.5.5-7 4.2-12.9 9.1-17.3 14.3-12.9 26.3-28.1 41.1-40.4 13.8-11.4 27.9-22.4 43.8-31 7.8-4.2 15.2-9.4 22.6-14.4 27.2-17.9 55.9-33 84.7-48.1 5.6-2.9 10.9-6.3 16.3-9.7 10.2-6.5 21.9-9.5 32.6-14.8 4.3-2.1 9.1-2.6 14.4-1.9 12.1 1.7 24.5 1.8 36.7 2.9 4.9.5 6.5-1.2 6.6-6 .2-14-.8-27.9-2.7-41.8-2.5-18-6.7-35.9-5.3-54.4.8-10.9 1.2-21.9 2.1-32.8.7-7.9 5.9-14 9.3-20.6 7.4-14.2 16.4-27.4 23.6-41.6 3-5.9 7.5-11 12.5-15.4 3.3-2.9 3.3-10.2.1-12.8-2.6-2.1-5.3-1.4-6.9 1.2-3.3 5.3-6.8 4.2-11.9 2.3-8.7-3.3-17-7.3-25.6-10.7-10.2-4-16.8-11.7-21.8-20.9-5.8-10.9-9.8-22.5-14.3-34-3.2-8.2-.8-15.9 2-23.2 5.4-14.3 11-28.5 19.1-41.5 1.1-1.7 2.3-3.4 2.7-5.3.5-2.2-.9-4.4-3.3-3.6-13.4 4.7-26.9 1.7-40.1.2-14.2-1.6-27.2-5.8-38.7-15.9-15.6-13.6-29.4-28.8-43.9-43.4-9.1-9.2-19.5-17-27.9-27-2.4-2.8-6.2-3.8-9.5-5.2-3.7-10.9-6.7-22.1-9-33.4-1.8-9-4.5-17.7-.6-27.2 5.8-14.5 11.3-29.1 19.9-42.2 2.3-3.5 2.3-7.5 3.8-11.2.6-1.5.3-3.6-1.2-4.6-1.7-1.1-3 .3-4.3 1.4-8.3 7.1-16 14.9-24.6 21.8-22.1 17.8-45.6 33.3-71.6 44.7-24.9 10.9-50.6 19.6-76.6 27.5-25.1 7.6-49.8 16.4-76 19.7-1.3.2-2.7.5-3.7 1.2-14.1 9.5-29.2 17.1-44.6 24.1-11.1 5-21.5 11.6-33.4 15.3-12.7 4-25.7 6.5-38.7 8.9-11 2-21.8 4.4-33.3 2.9-8-1-15.5-3.6-23.2-5.2-14.2-2.9-28.2-6.8-42.2-10.5-2.3-.6-3.8-.9-5 1.3-1.2 2.3.1 4 1.9 5 2.9 1.6 5.9 3.1 9 4.2 12.1 4.3 24.4 7.5 35.7 14.5 20.8 12.9 33.5 30.5 38 54.5 2.4 12.7 5.3 25.2 8.2 37.8.7 3.2 1.9 6.5 3.7 9.2 4.8 7.2 11.9 6.7 15.2-1.2 3.4-7.9 6.5-16 9.3-24.1 7.4-21.4 17.7-41.5 28.6-61.2 3.2-5.9 7.4-10.9 12.2-15.7 17.8-18 38.8-32.3 58.5-47.9 4.4-3.5 9.7-5.9 15.3-6.9 12.7-2.2 25.3-4.7 37.8-8 18.5-4.9 37-9.7 55.4-15.3 23.5-7.1 46-17.2 68.6-26.5 3.8-1.6 7.1-1.8 11.4-1 11.5 2.3 20.4 9.4 30.2 14.7 2.8 1.5 4.2 4.1 4.7 7.2.5 3.6 1.9 7.2 1.8 10.8-.1 5.5 3.1 8.6 6.9 11.4 4.4 3 7.9 4.9 11.2 6.9zm-355.9 268.4c-.2 15.1-1.4 30.7-9.1 45.5-8.8 17-21.4 31.1-33.3 45.8-3.1 3.9-6.2 3.4-10.3 1.5-23.4-10.4-47.5-18.7-72.7-23.7-4.7-.9-7.1.2-8.3 4.3-1 3.6 1.5 6.5 6.5 6.7 4.4.2 8.7 1 12.7 2.1 15 4.2 30.7 6.6 44.8 13.2 14.4 6.8 30.2 8.3 45.1 13.9 33 12.3 65.8 24.6 97 41 3.8 2 7.8 3.7 11.8 5.3 1.7.7 3.2 0 4.3-1.6 1-1.4.2-2.5-.5-3.6-.9-1.4-1.9-2.8-3-4-9.2-10.1-17.5-21-25.7-31.8-4.2-5.6-8.2-11.3-12.7-16.6-6.6-7.9-13.6-15.4-20.4-23.2-1.1-1.2-1.9-2.7-2.5-4.2-4.6-12-6.8-25-14-36-.7-1-.9-2.6-.8-3.8 1.2-8.6-.9-17.3-.4-25.8 1.5-29.5-5.2-58.2-6.9-87.3-.1-2-.1-4-.7-5.9-.6-2.1-2.5-3-4.7-2.7-2.1.3-2.7 2-2.8 3.6-.1 3.3 0 6.7.3 10 2.3 25.4 5.3 50.8 6.3 77.3zM206.6 2313.7c17.7-.7 30.1-2.4 41.8-7.8 16.8-7.8 33.7-15.4 50.6-23.1 1.2-.5 2.5-1 3.6-1.6 2.1-1.2 3.9-2.7 2.8-5.6-1-2.8-3.4-3-5.7-2.9-2.7.1-5 1.1-7.3 2.6-10.1 6.2-20.2 12.7-31.8 16.2-3.8 1.2-7.5 2.6-11.1 4.3-20.8 10.2-42.8 10.8-65.1 8.3-7.2-.8-14-3.9-21.4-3.8-2 0-4.2-.8-5.1 1.5-1.1 2.8 1.2 4.1 3.3 5.3 3.2 1.9 6.4 3.4 10.1 4 13.3 2.1 26.8 2.2 35.3 2.6z"/><path fill="#CEF6FB" d="M105.1 2508.5c6.9 3.5 13.7 6.9 20.6 10.4-2 6.4-.8 10.6 6 14.3 30.2 16.8 60.5 33.4 94.1 42.3 16.5 4.4 33.2 7.5 51 6.4 22.5-1.4 44.8-5.2 67.4-5.4 7.9 0 15.7-2.6 23.5-3.8 20.3-3.3 39.8-9.4 59-16.5 6.2-2.3 13-2.7 18.8-6.2 3-1.8 5 .1 6.9 2.1 3.6 3.9 7.5 7.6 10.9 11.7 8.9 10.9 21.3 15.4 34.3 18.7 6.1 1.5 11-1.7 15.3-5.6 7-6.3 10.4-6 17.9 2.8.9 1 1.5 2.2 2.3 3.2 5.5 7 8.9 8.3 17.1 5.7 10.1-3.2 20.1-6.7 30.2-10 5-1.7 10.1-3.1 15.4-3.7 7.1-.8 13.1.6 18.2 8-21.3 7.3-43.7 9.9-65.1 19.4 4.7 3.7 8.6 3.4 12.4 2.3 17.9-4.8 36.1-8 54.2-11.9 2.6-.6 5.3-.9 7.7-1.9 4.5-2 8.4-1.9 13.2.1 7.1 3.1 15.1 3.1 22.6 2.2 29-3.3 56.8-10.2 80.1-29.1 7.6-6.2 16.9-7.6 25.9-9.1 27-4.5 54.2-7.7 81.1-13 14.7-2.9 15.1-2.6 13.9 12-.5 6-.6 12-.7 18-.2 8.2-.1 8.3-8.3 10-13.9 2.9-27.9 5.5-41.9 8.3-33.4 6.7-67.1 12.1-100.6 18.3-36.1 6.7-72.3 12.5-108.2 20.2-22 4.7-44.3 8.3-66.4 12.3-5.2 1-10.3 2.4-15.5 3.8-1.8.5-3 1.8-2.7 3.6.3 1.9 2.1 2.8 3.8 2.6 2.9-.3 5.8-1.3 8.7-1.7 13.7-2.3 27.6-3.7 41-6.9 11.3-2.7 22.7-4.7 34-6.7 22.1-4 44.2-8.3 66.3-12.5 18.5-3.5 37-7.5 55.5-10.9 13.3-2.5 26.8-4 40-6.9 16.8-3.8 34-5.1 50.9-8 12.7-2.2 25.4-4 38.1-6.2 4-.7 5.4.3 5.4 4.4 0 17.2-1.5 34.2-2.9 51.3-1.3 15.5-3.8 30.9-4.6 46.5-.9 17.9-3 35.7-4.2 53.5-.5 7.3-1 14.5-3.3 21.5-.9 2.8-.9 5.9-1 8.9-.1 3.2-1.1 7.5 3.5 8 4 .5 5.7-3.8 6.6-6.5 1.2-3.7-.1-8 .8-11.8 3.1-13.6 3.2-27.6 5.1-41.3 3.4-24.9 3.3-50.2 6.4-75.1 2.7-20.8.8-41.7 3.7-62.5 1.2-8.4.3-17.2.5-25.9.8-26.8.8-53.6 2.3-80.3.8-14.6.5-29.2 2-43.7 1.1-11.6 1.4-23.2 1.4-34.8 0-13.1.5-26.3-.8-39.2-1.2-12-.6-23.9-.7-35.9-.2-26.2-2-52.4-4-78.5-.5-6.6-.1-13.3-.5-20-2.2-34.4-3.8-68.7-6.3-103.1-1.7-24-5-48-6.6-72-1.3-19.8-4-39.5-5.4-59.4-1.7-24.1-5.6-48-8.4-72-1.7-14.5-2.6-29-4.9-43.4-4.2-27.1-6.8-54.4-11.6-81.5-5.9-33.2-10.5-66.6-18.3-99.5-1.8-7.7-.6-10.3 6.3-13.5 10.2-4.7 20.7-8.8 31-13.2 6.7-2.8 13.2-.1 19.5 1.1 6.7 1.3 10.5-.8 15.4-5.5 14.3-13.8 31.4-24.2 50.8-27.8 14.8-2.7 30.3-3.5 45.6-3 3 .1 6.2.7 7.9-2.7 5.3-10.6 15.3-15.2 25.3-19.9 15-7.1 30.9-11.8 46.7-16.7 19-5.9 38.5-9.8 57.8-14.2 24.2-5.5 48.6-5.7 72.6 1.7 7.6 2.3 15.3 4.2 22.9 6.6 5.2 1.6 9 .3 11.9-4.4 4-6.5 8.1-12.9 12.1-19.4 3.3-5.3 5.6-5.7 9.6-1.1 2 2.2 3.3 5 4.8 7.6 5.2 9.1 9.9 10.9 19.6 6.8 3-1.3 5.7-3.3 8.5-5.1 3.7-2.3 7.1-4.9 11-6.8 7.1-3.6 7.4-3.6 13.1 2.4 2 2.1 3.7 3.2 6.6 3.5 17.1 1.6 34.2 3.3 51.3 5.3 27.9 3.3 56 4.1 83.9 8.4 9.2 1.4 17.1 5.4 24.3 10.1 13.3 8.7 27.5 8.3 42.2 7 27.7-2.4 54.8-1.2 80.9 10.2 14.2 6.2 28.5 12.1 43.9 15.3 22 4.6 42 .4 61.1-10.8 2.2-1.3 4.2-3.3 7.7-3 1.2 8 2.6 16.1 3.4 24.2.8 7.8 4 13.5 10.5 18.2 18.7 13.3 36.9 27.2 53.6 43 6.8 6.4 15.5 10.4 21 18.2 1.6 2.3 3.5 1 5.2-.1 4.2-2.6 8.4-5.3 12.6-8 3.7-2.4 6.7-1.9 9.4 1.6 3.2 4.3 6.2 8.6 8 13.7 7.3 20.8 18.7 39.6 29.1 58.8 1.7 3.1 4.2 5.1 7.2 3.1 2.9-2 1.5-4.7-.2-7.7-5.6-9.6-13.4-18.1-16.1-29.4 5.5-2.1 9.2 1.4 12.9 3.8 15.8 10.3 32.2 19.8 47.7 30.7 11.2 7.9 21.5 16.8 31.1 26.4 5.9 5.9 5.6 5.4 12.7 1.1 5.4-3.3 9.3-7.4 11.6-13.2 2.3-5.8 6.7-8.3 12.6-6.9 7.3 1.7 15.4-.1 21.8 5.4 1.1.9 3.2.6 4.8.8-.1 3.4-2.6 6.3-1.8 9.8-3.9-1.2-5.1 1.2-6.4 4.3-3.2 8.1-4.2 16.7-5.2 25.3-5.4 45.8 8.2 86.6 33.5 124.2 5.9 8.7 8.9 18.5 13 27.9 6.7 15.6 13.8 31 19.5 46.9 5.1 14 9 28.4 15.3 42 1.8 3.8 1.2 7.1-1.8 10.8-13.1 16.2-22.2 34.4-27.1 54.8-3.1 12.7-1.2 24.2 4.1 35.4 10.2 21.7 21.6 42.6 37.3 61 5.7 6.7 12.6 11.7 20.6 14.9 21.6 8.8 44.1 14.6 67.1 17.9 22.4 3.2 45 3.1 67.4 0 11.4-1.6 20.5 3.7 29.2 9.1 11.9 7.4 17.3 19.6 20.9 32.7 5.5 20.1 10.5 40.4 12.8 61.2 2.1 18.7 3.7 37.6 6.2 56.2 1.4 10.1 3 20.5 9 29.2 6.2 9.1 13.9 14.9 26.1 14.7 7.7-.1 15.6 2 23.3 4.3 5.3 1.6 7.4 5.6 8.7 10 2.7 9.2 5.3 18.5 7.1 27.8 4.7 23.7 8.3 47.6 11.5 71.5 3.9 29 3.9 58.2 6.3 87.3 2.6 30.8-1.7 61.4-.8 92.1.2 7.1-5.5 9.2-9.4 11.4-12.6 7.1-24.7 15.5-38.5 20.2-10.3 3.6-20.9 6.4-31.8 7.3-14.9 1.1-30.2 2.1-44.7-1.4-12.6-3-25.4-4.7-37.9-8-7.7-2.1-15.5-2.4-23.5-2.2-9.9.4-19.9-.7-29.8-1.4-19.7-1.3-39.3-1-58.7 2.1-23.6 3.7-46.4 10.1-68 20.6-21 10.2-43.3 12.7-65.9 6.4-32.7-9-65.8-10.4-99.5-8-21.2 1.5-42.3 3.8-63.1 7.2-20.1 3.3-40.6 5.7-60.2 11.9-4.6 1.5-9.8 1.4-14.7 2.2-16 2.7-31.9 6-47.7 9.3-19.4 4-38.8 7.2-58.3 10.8-6 1.1-12 2-17.8 1.2-16-2.2-32.5-.9-48-7.4-4.1-1.7-9.1-1.3-13.7-2-17.5-2.5-32.2-12.1-47.6-19.5-19.2-9.2-39.3-15.5-59.7-21.1-16.6-4.6-33.9-5.5-50.6-9.6-4.1-1-8.9-1.2-12.9 0-6.6 1.9-13.1.8-19.5.3-17.4-1.3-34.7-.2-51.8 1.9-11.1 1.3-22.3 2.8-33.4 4.6-13.6 2.2-25.8 8-38.6 12.4-19.3 6.6-36.3 17.7-53.3 28.7-7.6 4.9-14.9 6.4-24.1 2.6-21.5-8.9-44-14.2-67.3-16.3-1.3-.1-2.7-.6-3.9-.4-16.9 3.1-34.8 3.3-49.4 13.4-21.2 14.7-41.6 11.3-62.8.6-10.5-5.3-19.3-12.8-28.5-19.8-7.1-5.4-14.2-10.6-22.4-14.6-7.7-3.7-14.5-2.4-21.9-.4-12.9 3.5-24.7 9.3-36.9 14.4-13.5 5.5-27.2 10.5-42.3 14.8 5.4-17.2 7.7-34.5 4-52.2-13.9-1.6-27.5-.2-41.1-.5-26.3-.5-52.5.1-78.8.1-9.8 0-19.8 1.8-29.4.9-13.6-1.3-27.3.5-40.7-2.2-2.6-.5-5.4-1.1-7.9-.6-12.2 2.2-24.5.9-36.5-.4-18.9-2.1-37.9-.4-56.6-2.2-20.3-1.9-40.5-1.8-60.7-2.3-14.8-.4-29.5-2.2-44.3-2.5-12.4-.2-24.9-.6-37.3-1.4-12.3-.8-24.5-2-36.7-2.6-11-.5-22.1-.3-33.1-.4l-43.8-.6c-11.3-.1-22.5-.3-33.8-.4-21.2-.1-42.4-2.3-63.5-3.5-19.9-1.1-39.8-1.8-59.7-2.9-18.5-1-37.1-.8-55.6-2.9-8.2-.9-13.8-3.7-16.7-12.2-3.9-11.7-7-23.5-8.8-35.6-4.3-29.3-7.5-58.6-7.3-88.4.1-17.2 1.5-34.4 1.3-51.6-.2-21.9 2.7-43.7 5.9-65.4.2-1.3.7-2.6 1-3.8 2.6-10.3 5.8-12.5 16.2-10.5 8.8 1.7 17.7 2.6 25.9 6.6 1.2 1.4 2.7 1 4 1z"/><path fill="#98B3B7" d="M1110.8 527.1c17.8-1.4 35.8-.7 53.4-4.3 16.5-3.4 33.5-4.7 49.7-9.9 14.9-4.7 29.7-9.3 44.4-14.9 14-5.3 28.8-7.9 43.3-11.2 17.5-3.9 34.8-8.4 52.5-11.3 20.2-3.3 31.4-16.7 41.4-32.8 9.9-16 14.7-33.4 15.6-51.8.5-12.2-.6-24.6-2.1-36.7-.8-6.4.1-11.4 4-16.6 12.8-17.1 26.6-33.2 42.7-47.2 12.6-10.9 27.7-12.1 43.2-10.8 12.9 1.1 25.6 3.9 38 7.7 9 2.8 15.6 10 23.3 15.1 4.4 2.9 8 7 12.6 9.7 3.6 2.1 5 6.1 6.9 9.6 7.8 14.3 15.6 28.6 27.1 40.5 5.3 5.5 10.9 10.8 17 15.4 4.1 3.1 6.2 7.2 5.8 12-2.4 29.3-9.3 56.9-28.4 80.3-2.7 3.4-5.7 6.3-9.6 8.4-7.1 3.8-12.6 9.7-18.5 15-9.7 8.7-20.5 15.7-30.8 23.5-9.8 7.5-21.9 9.3-32.8 13.9-7.6 3.2-15.7 5.3-23.4 8.2-5 1.9-9.6 2-14.5-.1-9.8-4.2-18.7-9.8-26.7-16.9-4-3.5-8.6-6.3-12.9-9.3-8.7-6.1-18.1-11.2-26.3-18-3.9-3.3-8.6-4.9-13.4-6.4-2.5-.8-4.6-1.4-6 1.1-1.6 3.1.3 5 2.8 6.4 6.3 3.7 12.5 7.6 19 11 12.8 6.7 23.8 15.7 34.7 24.9 10.3 8.8 20.9 17.2 34.3 21.5 9.2 2.9 16.9 8.8 23.2 16.6 9.2 11.3 19.8 21.5 27.4 34.2 3.4 5.8 6.5 11.5 7.8 18.1 1.1 5.5 3.2 10.8 5.3 16 2.3 5.7 5.8 9.6 11.1 12.1 3.5 1.6 6 4.1 7.8 7.4 10.6 19.2 19.2 39.5 31 58.1 1.5 2.3.5 4.2-.3 6.5-5.9 19.1-10 38.5-12.4 58.4-.4 3.6-.7 7.4 0 11 3.9 19.3.8 38.4-.7 57.6-.7 9.2-4 15.2-10.9 21.2-16.5 14.5-33.5 28.2-51 41.4-9.2 7-18.8 10.8-30.7 10.7-28.5-.1-54.1 9.1-78.9 23.5-25.9 15-49.5 33.4-75.6 48-5.8 3.2-11 7.5-14.4 13.6-1.1 2-3 3.6-4.1 5.6-5.3 9-12.6 10.4-22.7 9.2-13.9-1.6-24.8-8.7-36.4-15.2-4.3-2.4-8.4-5.3-13.3-6.8-8.7-2.6-15-8.2-20.3-15.3-5.7-7.8-11.7-15.3-17.9-22.7-5.4-6.5-12.1-11.2-18.3-16.7-5.5-4.9-13.1-4.5-19.6-6.1-11.6-2.7-23.1-5.9-35.1-6.7-5.6-.4-10.1-2.7-14.2-6.5-14.5-13.6-29.2-27-43.8-40.6-4.4-4.1-7.5-9.1-9.1-15.1-3.5-12.8-7.6-25.5-10.9-38.3-1.5-5.6-3.7-10.7-7-15.3-8.8-12.5-17.5-25-26.6-37.3-3.7-5.1-5.4-9.5-3.6-16.3 6.9-25.6 13.9-51.2 17.3-77.7.6-5.1 1.3-10-.7-14.7-5.6-13-2.1-26-.9-39.1 1.1-12.3 6.9-22.6 12.1-33.5 10.6-22.3 23.8-42.8 37.2-63.4 3.4-5.2 7.1-8 13.7-8 6.6.2 12.9-.4 19.2.1z"/><path fill="#FEFEFE" d="M357 2258.7c3.3-6.2 7.8-9.5 11.3-12.8 16-14.7 22.9-34.1 29.3-53.6 7.1-21.6 12.9-43.7 15-66.6 1.1-12.3.2-24.4-1.9-36.4-3.1-17.7-8-34.9-13-52.1-2.9-10.1-2.8-20.2 0-30.4 1-3.8 1.6-7.7 2.4-11.4 2.9-.4 4.8 1.2 6.7 2.4 9.9 6 18.5 5.3 26.9-2.5 6.8-6.3 13.3-12.8 19-20.2 12.9-16.8 24.9-34.2 37.2-51.4 2.7-3.8 4.7-7.8 5.9-12.5 3-11.8 1.4-16.6-8.5-23.7-.8-.5-1.3-1.4-2.6-2.9 9.3-3.4 18.1-6.6 26.9-9.8 18.3-6.7 36.6-13.5 53.5-23.5 16.1-9.5 29.2-22.2 37.2-39 7.6-16 18.5-27.7 33.5-36.7 37.5-22.7 75.6-44.1 117-59.2 10.8-3.9 21.2-9.3 32-13.4 1.9-.7 3.7-1.5 5.6-2 7.7-2.3 7.5-2.2 9.5 5.9 6.7 26.9 11.9 54.2 16.3 81.6 3.9 23.8 7.8 47.7 11.3 71.6 3.4 23.2 3.7 46.6 7.6 69.7 2.7 16.3 2.6 33 4.1 49.5 1.3 14.2 2.5 28.4 4.8 42.4 2.3 14.5 1.1 29.2 3.1 43.7 3.6 26.9 4 54.1 7.4 81.1 1.5 12.2.9 25 1.5 37.4 1.3 28.1 3.3 56.2 5 84.4.4 7 .7 14 .8 21 .5 19.9 1 39.9 1.4 59.8.1 2.3 0 4.7-.3 7-.7 6.3-3.5 10.1-9.8 13.2-18.1 9.2-36.5 17.6-56 23.1-29.1 8.3-58.5 14.7-89.2 12.1-7.6-.6-15.3-.1-23-.1-9.6 0-19.3.3-28.8-1.6-7.3-1.5-14.5.3-21.8.6-29.9 1.6-59.2 6.5-87.4 17-6.6 2.5-12.5 6.1-18.7 9.3-4 2-6.7 2.3-8.6-2.5-9.3-22.9-30.3-32.3-50.1-42.9-3.2-1.7-6.4-3.8-9.9-4.5-13.3-2.6-19.3-12.3-25.1-23.1-14.9-27.7-30-55.4-48.1-81.2-1.1-1.6-2.5-3.1-3.6-4.8-5.4-8.9-13.4-13.3-25.8-12zm238.3-212.2c-6.5-2.4-11.3-3.7-14.8-1.5-9.3 5.9-20.2 8.6-29 15.2-22.4 16.7-39.5 37.9-53.9 61.7-9.9 16.2-17.2 33.5-24.2 51.1-9.6 24.2-15.4 49.1-17.9 75-.9 8.9.1 17.8-1.3 26.8-1.1 7.5 1.7 15 3.5 22.4.4 1.5 1.8 1.9 3.1 1.9 1.5-.1 2.3-1.1 2.5-2.6.2-1.3.3-2.7.1-4-3.1-23.2-1-46.1 3.6-68.9 4.9-24.9 14.4-48.1 25.2-70.9 5.1-10.7 10.6-21.4 17.4-31.1 7.6-10.8 16.8-20.5 25.5-30.5 12.5-14.3 26.3-27.1 43.6-35.5 5-2.4 9.7-5.3 16.6-9.1zm61.8 106.6c-3.6 1.8-3.1 4.7-2.7 8.3 2.7 21.2 11.6 39.7 22.5 57.8 13.3 22.2 32.6 36.2 56.2 45 3.8 1.4 8.2 3.1 12.5 1.9 1.4-.4 3.3-1.1 3.3-3.2 0-1.5-1.1-2.5-2.2-3-1.2-.6-2.6-.6-3.8-1.2-13.7-6-26.8-13.7-37.4-23.7-18.1-17.1-32.7-37.2-40-61.6-1.6-5.4-3.7-10.6-4.4-16.3-.2-2.1-1.2-3.9-4-4zm50.7 162.4c-1.5-15.7-6.2-30.3-14.2-43.8-1.9-3.2-4.8-5.3-7.6-7.6-4-3.3-8.1-4.5-12.8-1.9-5 2.7-8 8.5-6.9 14.2.4 2.3.9 4.5 1 6.8.4 15.8 6.6 29.5 14.7 42.6 1.6 2.5 3.7 4.8 6 6.6 7.2 5.7 14.8 3.4 18.3-5 1.5-3.9 1.2-7.9 1.5-11.9zm-146 65.9c.1-14.2-10.4-35.6-21.9-45.1-6.5-5.4-13.3-2.8-16.8 4.8-3.5 7.5-1 14.4.4 21.3 2.4 11.4 6.8 22.1 16.4 29.7 9.3 7.3 20.2 5 21.9-4.7.3-2 0-4 0-6zm119.2-32.9c.6 2.5.6 3.6 1.1 4.3 1 1.3 2.2 2.5 3.5 3.4 13 9.4 27 8.1 40.4 2.3 13.2-5.7 21.7-17 28.4-29.5 2.2-4 1.5-7.5-2.1-9.4-3.7-2-5.3 1.9-6.4 4.3-5.6 12.3-15.5 20.5-26.5 27.6-5.5 3.5-10.9 5-16.8 1.7-6.4-3.6-13.7-3-21.6-4.7zm-169.7-65.3c0-10.8-.1-11.2-1.8-13.9-.8-1.2-1.7-2-3.2-1.9-1.5.1-2.3 1.1-2.5 2.6-.5 3.9-1.3 7.7-.9 11.8 2.6 26.9-4.9 50.3-24.6 69.2-2.4 2.3-2.2 4.8-.4 7 1.9 2.4 4.2 1.3 6.2 0 6.4-4 11-10 13.9-16.5 8.6-18.9 13-38.9 13.3-58.3zm68.2 56.5c-1.8 16.6 11.7 46.4 24.7 52.9 2.7 1.3 5.1 2.9 8.2 2.7 1.8-.1 3.2-.8 3.6-2.8.4-1.9-.2-3.1-2.1-3.9-7.7-3.1-14.4-8.2-17-15.8-5.9-16.7-12.8-33.7-3.9-51.8.9-1.9.5-3.9-1.5-5.3-1.8-1.2-3.1 0-4.5 1-2.6 1.8-3.7 4.6-5 7.3-2.4 5-2.1 10.4-2.5 15.7zm151 43.1c1.3-.2 2.7-.2 3.9-.7 14.2-5.4 26.3-13.9 35.9-25.6 1.8-2.2 2.5-5.4 3.3-8.2.5-1.7-.7-3.2-2.3-4.1-1.9-1.1-3.4.3-4 1.6-2.2 4.6-5.5 8.2-8.9 11.9-8.4 9-17.6 16.1-30.9 14.8-1.3-.1-2.7 0-3.9.5-1.7.7-2.9 2.6-1.7 3.9 2.3 2.6 4.2 6.2 8.6 5.9z"/><path fill="#98B3B7" d="M1954.7 1543.2c-9.5-.3-22.6-1.8-35.8-3.9-18-2.9-35.8-6.6-53.6-10.3-12.4-2.6-24.1-7.9-33.8-16-5.5-4.6-8-12.1-11.2-18.5-11.8-23.9-21.1-48.8-28.1-74.5-7.7-28.3-9.4-56.9-2.1-85.5 3.6-14.2 11.5-26.8 16.7-40.5 5.3-14 15.4-24 26.7-32.7 16.6-12.7 32-27 50-37.8 8.9-5.3 18.1-9.8 27-14.8 14.1-7.9 29.3-11.9 44.9-14.9 3.6-.7 7.2-1.7 10.8-.9 16.5 3.4 33.5 4.8 49.4 11.1 3.4 1.4 6.3 1.2 9.5-.6 4.1-2.2 8.5-3.8 12.4-6.3 5.1-3.3 9.9-3 15.7-1.9 29.4 5.1 58.7 11.2 88.8 9.5 24.6-1.4 49-3.8 72.3-12.2 7.1-2.6 13.7-6.7 20.4-10.1 8-4.1 7.9-4 14.1 2.2 10 10 17.5 21.7 24.8 33.5 11.4 18.3 22.6 36.8 32.5 56 6.3 12.1 11.5 24.6 15.8 37.5 1 2.9 1.3 5.8.6 8.8-3.7 14.6-8.7 28.5-18 40.8-12.3 16.2-25.2 31.8-39.9 45.8-12.2 11.7-23.1 24.8-35.8 36.1-8.4 7.5-16.4 12.7-28.4 14.1-15.6 1.9-31.1 6.7-46 12.5-26.6 10.3-53.1 20.8-79.6 31.3-13.4 5.4-25.7 12.4-33.3 25.3-3.4 5.7-9.7 7-14.5 7.4-13.7 1-26.4 6.6-40 7.7-9.4 1-18.9 1.7-32.3 1.8z"/><path fill="#98B2B6" d="M1999.5 1811.4c-.7-3.5 1.8-6.4 1.8-9.8 2.4-.4 4.2-1.5 5.5-3.7 7.4-12.5 15-25 22.4-37.5 10.5-17.7 25.2-31.6 40.1-45.4 1-.9 2.2-1.5 3.3-2.2 8.9-5.7 9.3-5.9 14.9 2.6 6.8 10.4 16.7 13.3 28.1 15.4 36 6.6 72.3 9.5 108.6 13.4 4.9.5 9.9 0 14.8-.7 4.1-.6 6.2 1.1 7.9 4.4 1.4 2.7 3.1 5.2 4.2 7.9 9.9 24.7 25.3 46.7 36.3 70.9 7.1 15.4 15.7 30 23.5 45 8.3 16.1 9.1 34 7.8 51.6-.9 11.9-1 23.8-2.7 35.7-3.8 26-11.5 50.5-26.3 72.4-8.4 12.3-16.3 25.1-27.5 35.4-3.7 3.5-6.1 8.7-8.3 13.5-2 4.2-.4 8.3 1.6 12.4 6.8 14.4 14.1 28.6 20.8 43.1 8.9 19.1 10.5 39 8.4 59.4-2.6 25.5-16.1 45.8-31.5 65.4-5.9 7.5-13.7 7.9-21.2 8.4-38.6 2.5-76.7.1-113.4-13.9-10.9-4.2-21.3-8.6-30.2-16.5-4.5-4-7.2-8.8-9.8-13.6-7.4-13.7-14.5-27.6-20.8-41.9-9.6-21.8-6-42.5 5.7-62.8 11.1-19.3 24.2-36.6 43.1-48.9 3.8-2.5 4.6-4.7 2-8.8-1.6-2.5-3-5-5.4-6.8-13.3-10.1-24.5-22.4-34.5-35.8-1.4-1.8-3.1-3.5-4.8-5-9.7-8.9-17.8-19.1-21.8-31.6-5.8-18-16.1-33.3-25.6-49.3-12-20.5-21-41.9-21.3-66.5-.2-15.3.7-30.2 4-45.1.6-3.8.8-7.4.3-11.1z"/><path fill="#97B2B6" d="M2223.4 1732.4c-14.8.4-30.1-2.8-45.6-4.2-21.1-1.8-42-5.2-63.1-6.9-12.3-1-18.1-8.7-22.2-18.4-3.2-7.7-6.7-9.9-13.7-6.2-6.2 3.2-12.6 6.3-17.9 10.7-12 9.9-24.8 19.1-33.7 32.3-4.1 6.1-11.1 7.1-17.1 9.3-32.6 12.1-66.4 18-101 20.1-5.6.3-10.1-.9-15-3.8-9.1-5.4-18.4-10.3-26.2-17.9-5.3-5.1-12.9-6.3-20.5-6.2-8.3.1-8.3-.1-11.3-7.8-3.3-8.3-6.5-16.7-10.4-24.7-4.2-8.8-11-11.4-19.4-6.4-8.4 5-14.4 3.4-21.3-2.5-15.5-13.5-31.7-26.3-48.3-38.4-2.2-1.6-2.7-3.3-3.1-5.7-3.6-17.6-.6-35 2.5-52.2.7-3.9 2-7.6 4.5-11 6-8.3 10.3-17.7 15.4-26.6 5.3-9.1 13.8-15.5 22.2-21.1 12-8.1 24.8-15.4 39.1-19.3 3.7-1 6.9-.8 10.5.9 22.7 10.5 46.5 17 71.2 20.7 30.3 4.4 60.8 4.9 91.3 3.9 2.6-.1 5.1-.1 7.8.9 13.8 4.9 26.8 11.7 40.3 17.2 2.6 1.1 4.6 2.2 5.4 5.2 4.6 18.1 13.9 34.4 19 52.3 2.7 9.6 5 19.2 9 28.4 1.2 2.7 2.4 5 5.7 4.1 3.6-1 3.1-4.3 2.4-6.6-3.3-11.1-6.8-22.2-10.6-33.2-7-20.3-15.1-40.3-18.9-61.7-1.7-9.4-.6-18.5 1.3-27.7.7-3.5 3.3-4.8 6-6.1 10.5-4.9 21.2-9.7 31.6-14.8 12-5.8 24.3-10.7 37.1-14.4 2.9-.8 5.7-2 8.3-3.5 17.5-9.8 36.9-14.9 55.6-21.5 15.3-5.3 30.3-4.8 45.3 2.4 21.3 10.1 42.9 19.4 63.6 30.6 10.9 5.9 20.6 13.3 28.1 23.4 4.3 5.7 5.7 11.9 5.4 18.6-.7 14.6-2.9 29.1-7.5 43-4.2 12.6-9.6 24.7-14 37.2-5.6 15.7-12.7 30.7-21.1 45-11.3 19.1-23.7 37.6-38.2 54.5-6 7-14 8.2-22.6 8.1h-5.9z"/><path fill="#FEFEFE" d="M546.4 2580.8c-3.7-4.3-4.6-8.7-6.1-12.6-4.1-10.5-2.1-15.7 7.8-20.9 10.3-5.4 20.7-10.6 31-15.9 1.2-.6 2.4-1.1 3.5-1.8 1.5-1 2.5-2.5 2.2-4.2-.4-2-2.2-2.2-3.9-2.2-6 0-11.7-.1-17.5 2.6-11.5 5.4-22.5 11.3-31.2 20.9-3.7 4.1-7.1 8-6.9 13.8.1 3.6-1.6 4.8-5 4.1-4.5-.9-7.7 1.4-10.6 4.2-4 3.8-8.2 4.4-13.7 2.7-8.9-2.8-15.7-8.4-22.2-14.5-3.4-3.1-6-7-9.3-10.3-5.5-5.7-5.4-11.1-.8-17.8 1-1.4 2.1-2.5 3.1-3.9 6.3-8.3 6.7-11 .7-19.5-3-4.2-2-6.9.4-10.6 10.5-16.6 25.3-28.7 40.2-40.9 7.7-6.3 15.8-12 24.3-17.1 9.8-5.8 20.9-8.6 31.5-12 21.7-7 44.5-11.5 67.2-11.1 24.6.5 49.3-2.6 74.2 2.1 16.6 3.1 34.3 1.4 51.4-1.9 28.7-5.5 56.2-14.8 83.4-25.3 6.2-2.4 12.1-5.4 18.2-8 6.3-2.6 6.8-2.2 7.1 4.3.4 10-.6 19.9-1.2 29.8-.8 14.2.2 28.6-1 42.7-1.8 20.6-.4 41.2-1.5 61.8-.3 5.2-1.5 7.1-7.2 8-28.1 4.4-55.7 11.8-83.9 16-7.5 1.1-14.7 3.7-22.4 4.1-1.6.1-3.8.7-4.5 1.8-7.7 11.2-20.2 14.6-31.6 19.5-21 9.1-43.3 12.3-66 12.2-14.1-.1-26.4-6.1-37-15.1-2.9-2.5-5.2-3.2-8.8-3-6.7.4-13.3 1.5-19.4 3.9-11.7 4.5-23.5 7.8-34.5 14.1z"/><path fill="#97B2B6" d="M1535.5 551.2c-3.2-10.3 4.8-18.5 15.3-25.7 11.6-7.9 22.2-16.9 30.8-28.1 1.7-2.2 3.9-3.9 6.2-4.9 15.8-6.6 24.3-20.1 32.1-34 4.6-8 9.6-16 11.7-25.2.9-3.9 3.7-6.2 6.8-8.2 9-6.2 18.7-11.4 28.5-16.2 3.7-1.8 6.9-1.9 10.4-.1 3.8 2 7.7 4 11.5 6 1.8.9 3.8 2.7 5.5 1.7 5.3-3.1 9.8.2 14.3 1.6 6 1.9 11.8 4.3 17.9 6 4.1 1.1 8.2 3.2 11.5 5.8 17.9 14.6 34.6 30.2 42.5 52.8 2.8 7.9 1.5 15.9.1 23.7-1.7 10.1-5.2 19.9-8.7 29.6-1.5 4.3-3.8 7.9-7.7 10.1-4.4 2.5-8.1 5.8-12.1 8.7-16 11.9-32 23.7-47.9 35.7-5.1 3.9-11 6.1-16.9 8.5-18.2 7.6-34.9 17.5-49.3 31.2-5.3 5.1-10 10.6-13.2 17.3-3 6.4-8 9-15.1 8.1-5.3-.7-10.5-1.2-15.5-3.3-9.2-3.7-19-5.4-28.1-9.8-12.7-6.2-20.2-15.9-23-29.4-3.8-19.1-6.6-38.4-7.6-61.9z"/><path fill="#E1DCAA" d="M2340.6 2821.9c.9 12.2 1.4 24.4 2.6 36.5 3.7 37.7 3.5 75.6 7.7 113.2 1.3 11.5.4 23.3 1.1 34.9.2 4.5-1.9 6.7-5.4 8.4-1.8.9-3.7 1.7-5.6 2-15.7 2.4-31.3 5.5-47.3 1.8-12.7-2.9-17-6.8-17.7-19.9-.5-9.3-.6-18.6-.7-27.9-.4-20-1.6-40-.9-60 .9-24.3-.1-48.7 2.4-73 .2-1.6-.6-3.2-.8-4.9-.6-8.4 1.5-10 9.8-10 14.6-.1 29.3 1.7 43.8-1.4 3.3-.7 7.2-1.1 11 .3zM108 2910.6c0-30.9.8-61.8 3-92.6.7-9.9 2.6-19.7 2.3-29.6-.2-4.9 2.5-5.7 6.2-5.1 13.5 2.1 27.1 2 40.6 3 3.9.3 5.8 1.2 6 5.7 1.1 24.5 3 49 3.7 73.6.9 33.5 1 67 1.5 100.5.1 7.3-.8 14.6-1.3 21.8-.3 4-2.2 5.2-5.6 5.2-11.6.2-23.2.5-34.8-.5-5.1-.4-9.5-2.9-13.9-5.1-3.2-1.5-3.7-4.4-4.2-7.4-1.8-12.1-3.8-24.2-3.5-36.6.1-10.9 0-21.9 0-32.9z"/><path fill="#070808" d="M761.8 744.8c-3.3-2.1-6.8-3.9-9.9-6.2-3.7-2.8-7-5.9-6.9-11.4.1-3.6-1.3-7.2-1.8-10.8-.5-3.2-1.9-5.7-4.7-7.2-9.9-5.3-18.7-12.4-30.2-14.7-4.3-.8-7.6-.6-11.4 1-22.7 9.4-45.1 19.4-68.6 26.5-18.3 5.5-36.9 10.4-55.4 15.3-12.5 3.3-25.1 5.8-37.8 8-5.7 1-10.9 3.4-15.3 6.9-19.8 15.7-40.7 29.9-58.5 47.9-4.7 4.8-8.9 9.8-12.2 15.7-11 19.7-21.2 39.8-28.6 61.2-2.8 8.1-6 16.2-9.3 24.1-3.3 7.8-10.4 8.4-15.2 1.2-1.8-2.7-3-6-3.7-9.2-2.9-12.6-5.9-25.1-8.2-37.8-4.5-23.9-17.2-41.6-38-54.5-11.3-7-23.6-10.2-35.7-14.5-3.1-1.1-6.1-2.6-9-4.2-1.8-1-3.1-2.7-1.9-5 1.1-2.2 2.7-1.9 5-1.3 14 3.7 28 7.5 42.2 10.5 7.8 1.6 15.2 4.2 23.2 5.2 11.6 1.5 22.3-.9 33.3-2.9 13-2.4 26-4.8 38.7-8.9 11.9-3.7 22.2-10.3 33.4-15.3 15.4-7 30.5-14.6 44.6-24.1 1-.7 2.4-1 3.7-1.2 26.2-3.2 51-12 76-19.7 26-7.9 51.7-16.5 76.6-27.5 26-11.4 49.5-26.9 71.6-44.7 8.6-6.9 16.3-14.7 24.6-21.8 1.3-1.1 2.7-2.5 4.3-1.4 1.4 1 1.8 3.1 1.2 4.6-1.5 3.7-1.6 7.7-3.8 11.2-8.5 13.2-14 27.7-19.9 42.2-3.9 9.6-1.2 18.2.6 27.2 2.3 11.3 5.3 22.4 9 33.4-.8.8-1.4 1.5-2 2.2zm-12.5-84.2c-9.2 6.9-18.4 13.8-27.8 20.9 6.2 3.9 11.7 7.4 17.3 10.8 2 1.2 4.1.9 4.4-1.8 1.1-10 5.9-18.9 7.6-28.7.5-.8 1.1-2 .2-2.6-1.1-.6-1.4.6-1.7 1.4zM407.4 887c11.1-35.5 24.7-69.8 49.2-101.1-15.1 4.4-26.9 11.4-39.8 15.2-12.8 3.7-26.3 3.2-40.7 6.5 19.8 23.8 24.9 51.4 31.3 79.4z"/><path fill="#97B2B6" d="M422 1868.6c13.6 2.8 28.8 5.1 41.1 15.2 1.6 1.3 2.8 2.3 5 2.6 7.5 1 11.4 7.5 16.6 12 3.1 2.6 1.4 6.3-.3 9.1-11.5 18.2-21 37.7-35.7 53.8-7.9 8.6-14.9 17.9-23.8 25.5-8 6.8-12.2 7-19.8.1-8.4-7.6-16.5-15.6-22.8-25-5.2-7.8-8-16.2-5.2-26.3 4.5-16.7 9.5-33 18.3-48 3.8-6.4 9.2-11.4 14.8-16.1 2.9-2.7 6.8-2.7 11.8-2.9z"/><path fill="#E0DAA9" d="M2219.9 2883.3c0 10.9.1 21.9 0 32.8-.1 7.3-.4 6.7-7.5 9.2-11 3.9-22.3 3.3-33.5 3.2-9-.1-15.5-5.7-16.9-14.7-1.1-7.5-2-15.2-1.9-22.8.1-19.3-1.6-38.6 0-57.8 2.2-27.3.6-21.9 22.8-21.8 8.6 0 17.3.9 25.9 1.3 7.2.3 8.1.7 8.3 8 .8 19.2 2.7 38.5 2.2 57.7v5c.2-.1.4-.1.6-.1zm-1952.7-23.2c0 11.3-.1 22.6.1 33.8.1 4.6-.8 6.7-6.3 7.6-9.9 1.5-19.9 1-29.8 1.5-8.2.4-10.6-2.6-11.1-11.6-.7-11.2-.4-22.5-1.4-33.7-1.6-19.2.7-38.3.7-57.5v-2c.5-8.9 2.8-11.7 11.3-10.6 8.6 1.2 17.2.5 25.8 1.5 3.6.4 4.8 1.5 6.1 4.8 3.7 10.2 3.4 20.9 4.5 31.4 1 11.5.1 23.2.1 34.8z"/><path fill="#FFF" d="M735.9 270.6c1.1.4 1.7 1.2 1 2.1-.8 1-1.6 0-2.3-.5.4-.5.8-1 1.3-1.6z"/><path fill="#F7F7F7" d="M1784 533.6c-.7.4-1.4.9-1.9-.1-.1-.2.1-.7.2-.8 1-.3 1.5.2 1.8 1.1 0 .1-.1-.2-.1-.2z"/><path fill="#F1F1F1" d="M1242.8 1013.8c-.8-.7-1.1-1.5-.1-2.2 0 0 .7.8 1 1.2-.3.3-.6.6-.9 1z"/><path fill="#0A0B0B" d="M405.9 1013.2c-1-26.5-4-51.9-6.3-77.3-.3-3.3-.4-6.6-.3-10 0-1.6.7-3.3 2.8-3.6 2.2-.3 4.1.6 4.7 2.7.6 1.9.6 3.9.7 5.9 1.7 29.1 8.4 57.8 6.9 87.3-.4 8.5 1.6 17.1.4 25.8-.2 1.2.1 2.8.8 3.8 7.3 11 9.4 24 14 36 .6 1.5 1.5 3 2.5 4.2 6.8 7.8 13.8 15.3 20.4 23.2 4.5 5.3 8.5 11.1 12.7 16.6 8.2 10.9 16.5 21.8 25.7 31.8 1.1 1.2 2.1 2.6 3 4 .7 1.1 1.5 2.2.5 3.6-1.1 1.6-2.6 2.3-4.3 1.6-4-1.6-8-3.3-11.8-5.3-31.2-16.4-64.1-28.7-97-41-14.8-5.5-30.6-7.1-45.1-13.9-14.2-6.7-29.8-9.1-44.8-13.2-4.1-1.1-8.4-1.9-12.7-2.1-4.9-.2-7.5-3.1-6.5-6.7 1.2-4.1 3.5-5.2 8.3-4.3 25.2 4.9 49.3 13.3 72.7 23.7 4.2 1.8 7.2 2.3 10.3-1.5 11.9-14.7 24.5-28.8 33.3-45.8 7.7-14.8 8.8-30.5 9.1-45.5zm55.4 132.1c1.5 2.1 3.4 3.5 6.7 3.6-.2-3.2-1.8-4.9-4.2-6-8.6-9.6-17-19.4-26-28.6-9.5-9.8-18.5-19.7-24.1-32.4-1.7-3.9-3.5-7.9-6.9-11.1-9.2 12.9-15.6 27.6-26.6 39.5 2.4 1.1 4.2 1.9 5.9 2.7 8.6 4 17.7 6.8 26.4 10.9 16.1 7.4 31.7 16.1 48.8 21.4zM206.6 2313.7c-8.5-.4-22-.5-35.4-2.7-3.7-.6-6.9-2.1-10.1-4-2-1.2-4.4-2.4-3.3-5.3.9-2.3 3.1-1.5 5.1-1.5 7.4 0 14.2 3 21.4 3.8 22.4 2.6 44.4 2 65.1-8.3 3.5-1.7 7.3-3.2 11.1-4.3 11.6-3.5 21.6-10 31.8-16.2 2.4-1.5 4.7-2.5 7.3-2.6 2.3-.1 4.7.1 5.7 2.9 1 2.9-.8 4.3-2.8 5.6-1.1.7-2.4 1.1-3.6 1.6-16.9 7.7-33.7 15.3-50.6 23.1-11.7 5.5-24 7.1-41.7 7.9z"/><path fill="#101010" d="M595.3 2046.5c-6.9 3.8-11.6 6.7-16.6 9.1-17.4 8.4-31.1 21.2-43.6 35.5-8.7 10-17.9 19.7-25.5 30.5-6.8 9.7-12.3 20.4-17.4 31.1-10.7 22.8-20.2 46-25.2 70.9-4.5 22.8-6.6 45.7-3.6 68.9.2 1.3.1 2.7-.1 4-.2 1.4-1 2.5-2.5 2.6-1.4 0-2.7-.4-3.1-1.9-1.8-7.4-4.6-15-3.5-22.4 1.3-9 .4-17.9 1.3-26.8 2.5-25.8 8.3-50.8 17.9-75 7-17.6 14.3-34.8 24.2-51.1 14.4-23.7 31.6-44.9 53.9-61.7 8.8-6.6 19.7-9.3 29-15.2 3.5-2.2 8.3-.9 14.8 1.5zm61.8 106.6c2.8.1 3.8 2 4 3.9.6 5.7 2.7 10.9 4.4 16.3 7.3 24.4 21.9 44.5 40 61.6 10.7 10.1 23.7 17.8 37.4 23.7 1.2.5 2.6.6 3.8 1.2 1.2.6 2.2 1.6 2.2 3 0 2.1-1.9 2.8-3.3 3.2-4.4 1.2-8.7-.4-12.5-1.9-23.6-8.8-42.9-22.8-56.2-45-10.8-18.1-19.8-36.6-22.5-57.8-.4-3.5-.9-6.4 2.7-8.2zm50.7 162.4c-.3 4 0 8-1.6 11.8-3.5 8.4-11.1 10.7-18.3 5-2.3-1.8-4.4-4.1-6-6.6-8.1-13-14.4-26.8-14.7-42.6-.1-2.3-.5-4.6-1-6.8-1.1-5.7 1.9-11.5 6.9-14.2 4.7-2.5 8.7-1.3 12.8 1.9 2.9 2.3 5.7 4.4 7.6 7.6 8.1 13.6 12.8 28.2 14.3 43.9zm-29.4-42.2c-1.7 1.7-2.7 3.9-2.3 6 2.6 13.5 4.4 27.4 12.8 39 1.5 2.1 3.4 4 5.9 5.2 2.5 1.2 3.8-.1 4.3-2.2.4-1.6.3-3.3.1-4.9-1.3-17-6.9-32-20.8-43.1zm-116.6 108.1c0 2 .3 4 0 5.9-1.7 9.7-12.6 12.1-21.9 4.7-9.6-7.6-14-18.2-16.4-29.7-1.4-6.9-3.9-13.8-.4-21.3 3.5-7.7 10.3-10.2 16.8-4.8 11.5 9.6 22 31 21.9 45.2zm-29.6-36.8c.4 6.4 1.2 12.2 2.8 17.9 2 6.9 6.8 12 11.1 17.5 1 1.3 3.2 2.7 5.2 1.7 1.5-.7 1.7-2.6 2-4.3.7-5.1-.5-10.4-2.6-14.5-3.9-7.8-7.3-16.8-18.5-18.3zm148.8 3.9c7.9 1.7 15.2 1.1 21.7 4.7 5.9 3.3 11.3 1.8 16.8-1.7 11.1-7.1 20.9-15.2 26.5-27.6 1.1-2.5 2.7-6.3 6.4-4.3 3.6 1.9 4.3 5.4 2.1 9.4-6.7 12.5-15.2 23.8-28.4 29.5-13.4 5.8-27.5 7.1-40.4-2.3-1.3-1-2.5-2.1-3.5-3.4-.6-.7-.6-1.8-1.2-4.3zm-169.7-65.3c-.3 19.5-4.8 39.4-13.3 58.3-2.9 6.5-7.5 12.5-13.9 16.5-2 1.2-4.3 2.4-6.2 0-1.8-2.3-2-4.7.4-7 19.8-18.9 27.3-42.3 24.6-69.2-.4-4.1.3-7.9.9-11.8.2-1.4 1-2.4 2.5-2.6 1.5-.1 2.4.7 3.2 1.9 1.7 2.6 1.9 3.1 1.8 13.9zm68.2 56.5c.4-5.3 0-10.7 2.5-15.6 1.3-2.7 2.4-5.5 5-7.3 1.3-.9 2.6-2.2 4.5-1 2 1.3 2.4 3.4 1.5 5.3-8.8 18-2 35 3.9 51.8 2.7 7.6 9.4 12.7 17 15.8 1.9.8 2.5 2 2.1 3.9-.4 2-1.8 2.7-3.6 2.8-3.1.2-5.5-1.4-8.2-2.7-13-6.6-26.4-36.4-24.7-53zm151 43.1c-4.4.3-6.3-3.3-8.6-5.8-1.2-1.4 0-3.2 1.7-3.9 1.2-.5 2.6-.6 3.9-.5 13.3 1.3 22.5-5.9 30.9-14.8 3.4-3.6 6.7-7.3 8.9-11.9.6-1.3 2.1-2.7 4-1.6 1.5.9 2.7 2.4 2.3 4.1-.8 2.8-1.5 6-3.3 8.2-9.6 11.7-21.7 20.2-35.9 25.6-1.2.4-2.6.4-3.9.6z"/><path fill="#F1F1F1" d="M678.4 2273.3c13.9 11.1 19.5 26 20.8 43.1.1 1.6.2 3.4-.1 4.9-.5 2.1-1.8 3.4-4.3 2.2-2.5-1.2-4.3-3-5.9-5.2-8.4-11.6-10.1-25.5-12.8-39-.4-2.1.6-4.3 2.3-6zm-146.2 71.3c11.3 1.5 14.6 10.5 18.5 18.2 2.1 4.1 3.3 9.4 2.6 14.5-.2 1.7-.5 3.6-2 4.3-2 1-4.2-.3-5.2-1.7-4.2-5.4-9-10.6-11.1-17.5-1.6-5.6-2.5-11.4-2.8-17.8z"/></svg>