<svg xmlns="http://www.w3.org/2000/svg" viewBox="0 0 1803.2 2205.9"><path fill="#FFF" d="M1721.3 1627.6l.1-.1.1-.1c-.4-1.2-1.2-2.7-2.2-2.4-.3 1.1.5 1.9 2 2.6z"/><path fill="#FFF" d="M1706.2 1623.7c-13.7-9-25.4-20.2-35.6-33.1-1.6-2-3.4-4.7-2.4-7.4 2.6-7.1.6-14.5 2.4-21.7 1.8-7.2-1.2-14.3-2.9-21.3-3.6-14.9-8.2-29.3-17.4-42-2.4-3.3-4.8-6.6-8.4-8.3-6.8-3.2-7.4-8.3-6.1-14.9 3.7-17.8 7.2-35.6 10.7-53.5 7.6-38.9 12.1-78 8.8-117.7-.7-7.9-3.3-15.6-3.7-23.5-1.2-25-9.5-48.5-15.4-72.4-4.9-19.9-13.9-38.7-23.5-56.9-11.5-21.8-24.6-42.5-40.3-61.5-6.4-7.7-12.8-15.2-19-23-6.6-8.3-15.1-14.8-24.1-20.5-1.8-1.1-3.7-1.7-3.4-4.1.4-2.6 2.6-2.6 4.6-2.9 4.1-.6 7.5.3 11.1 2.7 9 6 15.6 14.5 22.3 22.6 13.3 16.1 27.2 31.7 38.7 49.3 15.9 24.2 29.8 49.4 40.4 76.3 4.9 12.5 8.1 25.8 10.9 39.1 4.2 20 8.3 40.1 11 60.4 3.4 26.1 4.8 52 1.5 78.2-1.1 9.2-.8 18.5-2.1 27.8-1.4 10.5-3.1 21-4.9 31.4-2 11-2.6 22.4-5.6 33.2-3.1 11.1-3.6 20.4 7.3 27.3 11.9 17.8 21.7 36.4 23.2 58.4.6 9.1-1.4 17.9-3.2 26.6-.9 4.3-.1 7.2 2.1 10.9 6.9 11.9 15.7 22.1 25.3 32.3 3.9-2.4 5.4-6.2 7.1-9.6 13.5-27 26.1-54.3 34.7-83.3 4.7-15.9 9.1-31.8 13-47.9 4.4-18.3 9.6-36.5 13.1-55.1 3.6-19.2 7-38.4 9.5-57.8 2.6-20.4 4.7-40.8 4.4-61.5-.4-25.9-2.1-51.7-4.1-77.5-.1-.7.2-1.5-.1-2-3.7-6.9-3.7-14.3-4.2-21.9-.6-9.5-2.9-19-4.5-28.4-5.6-33.8-16.1-66.3-26.5-98.8-9.9-31.2-22.6-61.6-39-90.1-8.1-14-16.9-27.7-25.9-41.2-7-10.5-11.6-22.3-18.9-32.6-23.5-33.1-48-65.3-76.5-94.2-23.3-23.6-47.8-46.1-73.8-66.8-16.1-12.8-31.8-26-48.6-37.8-23.1-16.1-46.7-31.6-71.2-45.6-6.2-3.6-13.3-5.7-20-8.5-15.1-6.6-30.2-13.4-45.4-19.8-7.6-3.2-15.6-5.4-23.5-8.1-9.2-1.2-17.8-4.5-26.8-6.7-25.4-6.2-50.5-12.6-76.6-15.5-17.8-2-35.5-2.4-53.3-3.2-19.5-.9-39.1-.5-58.4 1.8-19 2.2-38.2 2.2-57.2 5.5-17.2 2.9-34.6 5.4-51.9 8.5-25.4 4.7-50.3 11.6-74.3 20.7-15 5.7-29.4 13.3-44.2 19.7-19.1 8.3-38.5 15.8-56.8 25.8-5.8 3.2-11.3 7.1-17.3 9.7-4.8 2-10.1 6.1-15.8 1.1-4.1 2.9-8 6.1-11.8 9.3 17.3 22.5 32.5 46.5 45.2 71.9 6.1 12.2 11.7 24.6 15.9 37.5 4 12.3 8.9 24.2 13.9 36.1 3 7.2 2.8 13.8-.9 13.8-6.8.1-4.9-6.3-6.6-10.2-6.6-16.3-12.5-32.9-21-48.4-11.7-21.5-21.7-43.8-34.8-64.6-6.7-10.6-14.5-20.3-22.3-30-8 5.5-14.6 12.5-24.2 14.1l.1.1c2.2 2.9-.8 4.1-2.6 5.2-8 4.7-15.2 10.6-23.4 15-4.3 2.3-8.3 5.4-11.8 9.1-6.2 6.5-12.7 12.5-20.3 17.5-14.8 9.7-25.5 23.9-38.7 35.5-3.5 3.1-6.8 6.4-10.4 9.4-19.8 16.1-34.3 36.8-50.3 56.3-14.9 18.2-30.3 36.2-43.6 55.7-6.7 9.9-13.8 19.6-19.2 30.2-6.6 13-14.7 25.2-21.1 38.3-12.4 24.9-23.2 50.5-34.1 76.1-12.5 29.5-19.8 60.3-28.1 90.9-7.3 27.1-14.9 54.2-20.8 81.6-3.4 16.1-5.7 32.6-7.1 49.1-1.8 21.4-2.8 42.9-2.4 64.4.4 20.4 3.1 40.7 5.7 61 2.6 20.4 6 40.5 10.8 60.4 6.4 26.7 14.6 52.9 26.9 77.7 5.7 11.6 9.9 23.8 15.6 35.4 10.1 20.6 23.3 39.4 35.1 59 16.9 28.2 38.6 52.9 60.7 77.2 18.5 20.4 38.9 39 60.5 55.7 25 19.4 50.2 38.7 78.8 53.5 18.2 9.4 35.7 20.4 54.4 28.9 21.3 9.7 42.9 18.5 65 26.3 19.7 7 39.9 11.5 60.1 16.3 12.2 2.9 24.1 6.1 36.7 6.4 5.5.1 10.3 2.5 13.3 8.7 5.1 10.7 10.4 21.6 17.9 30.8 9.4 11.5 18.4 23.2 30.9 32.1 7.5 5.3 14.1 12.7 20.5 19.8 1.9 2.1 4.8 4.6 2.9 7.5-2 3.1-5.4 4.7-9.6 3.9-9.4-1.9-18.5-5.1-27.3-8.7-6.8-2.8-13.4-5.9-19.1-10.6-3-2.4-6.1-3.4-10.1-1.5-10.6 5.3-21 10.6-29.4 19.6-8.2 8.8-11.7 19.4-13.7 30.4-3.4 18.4-3.8 37.1 2.7 54.9 3.4 9.4 5.6 19.9 15.2 26.1 1.9 1.2 3.7 2.9 5.8 3.6 17.2 5.8 33.9 13.5 52.1 15.9 23.8 3.1 47.7 6.3 71.9 2.6 11-1.7 22.4-1.2 33.4-3.7 18.4-4.2 36.6-8.8 54.2-15.8 3.9-1.5 5.1-3.3 5-7.1-.2-7.3-.5-14.7 0-22 1.1-15.6 3.9-30.9 11.8-44.7 2.1-3.7 4.3-8.1 7.7-10.2 5.2-3.2 4.8-7.1 4.4-11.9-1.5-20.5-2.8-41-4-61.5-.3-4.6-.5-9.3 1.6-14.1-8.7-2.4-16.9-.7-25-.2-13.5.9-27.1 2.1-40.6 3-2.3.2-4.7.6-6.8-.9-2-1.5-6-1.8-5.3-5 .8-3.7 4.3-1.4 6.7-1.6 15.8-.9 31.7-1.8 47.5-2.9 10.9-.8 21.8-1.5 32.5-3.1 8.5-1.3 17.2-1 25.4-4.1v-2c-1.5-1.7-3.6-1.9-5.5-1.6-15.2 2.2-30.5 1.6-45.7 2-13.3.3-26.5 2.1-39.8 1.2-19.2-1.2-38.4-.9-57.6-2.3-6.9-.5-13.8-.3-20.6-1.7-1.9-.4-3.8-1.1-5.7-1.6-3.3-1-7.1-2.2-5.2-6.6 1.5-3.6 4.3-.6 6.7-.2 3.3.5 6.6.1 10 .3 33.1 2.1 66.2 3 99.4 1 13.9-.8 27.9-.6 41.9-1.1 6.9-.3 13.8-1.2 20.8-1.8 2.7-.2 5.3-.3 8-.1 10 .8 11.4 3.2 6.9 12.3.6.4.7.9.3 1.5 3.7 1.2 8.6-2.4 11 1.1 1.8 2.6.8 7.1 1.6 10.6.9 4.2 2.1 8.3 3.5 12.4 5.5 16 8.8 32.6 15.1 48.4 6.2 15.4 12.4 30.8 26.4 41-3.4 6.6-9.3 6-14.1 4.3-10.9-4-22.2-6.5-32.9-11.1-8.3-3.6-17.4-3.3-26.2-1.8-4.9.8-9.6 2.6-14.3 4.1-1.2.4-2.8.9-3.4 1.9-6.1 8.9-14.1 16.2-17.7 27.3-7.3 22.6-9 45.2-3 68.1 3.9 14.6 11.3 25.8 27.3 31.2 14.8 5 29.9 6.7 45 9.3 15.4 2.6 31 4.1 46.5 3.1 22.3-1.6 44.6-2.5 66.8-6.2 25.6-4.2 50-11.7 74.9-18 22.2-5.6 41.6-17.1 58.9-31.8 4.9-4.2 8.1-10.4 12-15.8 1.4-1.9.8-3.9-.9-5.4-7.9-6.7-12.2-15.9-15.7-24.9-8.7-22.4-19.5-44-25.7-67.5-3.8-14.3-5.4-28.7-5.2-43.2.3-28.3 4-56.1 14.9-82.6 4.5-10.9 11.9-19.8 17.2-30.1.7-1.4 2.1-1.4 3.3-1.9 25.2-11.9 48.6-27.2 72.3-41.8 25.4-15.7 48.9-34.2 73.1-51.7 12.9-9.3 23.2-21.7 34.2-32.9-1.4-3.4-4.5-4.3-6.7-6.1-3.6-3-7.1-2-11-.5-10.4 4-21 4.1-32.1 1.7-25.2-5.5-43.9-20.3-61-38.7-22-23.6-37-50.9-48.5-80.6-10.3-26.4-15.4-54.1-19.6-81.9-4-26.2-5.7-52.7-8.9-78.9-4.9-40.9-9.7-82-21.2-121.9-2.5-8.6-5.7-16.9-8.9-25.2-3.4-8.8-7.5-17.3-11.1-26.1-5.2-12.7-12.8-24-20.9-34.9-8.7-11.7-16.2-24.3-27-34.3-15.6-14.4-31.2-29-53.7-31.8-2.2-.3-4.1-.9-4.4-3.2-.3-2.4 2-3.4 3.6-4.3 5-2.6 10.4-1.9 15.5-.5 11.4 3.1 21.3 9.1 30.3 16.5 20.8 17.1 36.4 38.7 51.4 60.7 20 29.4 32 62.3 39.6 96.9 1.6 7.1 3.9 14 5.5 21.1 5 21.7 5.7 43.9 8.2 65.9 2.2 19.4 4.6 38.7 6.8 58.1 1.6 14.4 2.9 28.8 4.8 43.1 2.5 18.7 6.8 37.1 12.2 55.1 5.5 18.1 12.9 35.4 21.3 52.3 12.6 25.2 28.3 47.9 51.8 64.4 5.4 3.8 10.4 8.1 16.3 11.3 13.1 7.1 27.1 10.2 40.8 4.4 13.7-5.8 25-5.6 36 5.2 3.9 3.9 9.6 5.6 15.1 7.3 16 4.8 33.3-6.7 34.8-23.2.2-2.7-.2-4.9-2.7-6.9-6.9-5.4-11.4-12.9-16.8-19.7-5.7-7.2-7.8-16.1-9.2-25-1.1-6.5 2.8-10 9.2-8.5 2.4.6 5 .9 6.9 3.4 2.6 3.4 6.6 5.4 10.2 7.8 7.5 5 11.6 6.1 18.7-4.8 4.8-7.3 6.8-15.8 7.6-24.5.2-2.5-.5-5.3 1.5-7.4l-.1.1c-1.5-.7-2.2-1.5-2-2.7-.1 0-.2.1-.3.1-4.5 3.3-8.5 1.6-12.5-.9zM830.1 794.1c-1.8-4 1.2-6.3 4-8 7.1-4.4 14.7-8.2 22.7-10 15.8-3.6 31.6-7.5 48-7 4.6.1 9.3.5 11.9-.7 20.8.4 39.4 3.1 57.6 8.3 8.7 2.5 15.8 8 23 13.3 1.4 1 3.7 2.4 2 4.8-1.5 2.2-3.7 3.1-6.1 2.1-3.1-1.2-6.1-2.6-8.9-4.3-13.7-8.3-28.6-11.7-44.6-11.3-12.3.3-24.9-1.5-36.9.4-20.4 3.1-41.5 4.6-59.8 15.9-3.6 2-11.3 0-12.9-3.5zm95.5 150.6c1.3-2.9 2.2-6 6.1-4.7 3.2 1 2.7 3.9 2.3 6.7-3 18.6 2.3 35.8 9.4 52.6 3.4 8 9.2 13.7 17.1 17.2.6.3 1.2.6 1.8.8 3.5 1.3 7.2 2.8 6.7 7.3-.4 3.4-5.5 4.1-11.3 1.6-16.3-7-26.6-19.4-31.6-36.1-2.3-8-2.8-16.3-2.8-24.7.2-7-.7-14 2.3-20.7zM901.8 1075c-.1 5.1-1.3 10-2.6 14.6-3.1 10.4-11.7 12.8-20 5.7-10-8.6-17.6-18.6-20-32.3-2.5-14.2-3.2-28.2.5-42.2 2.1-7.9 6.1-14.8 12.6-19.8 5.4-4.1 9.9-2.1 11.9 4.9.6 1 1.1 2 1.7 2.9 6.2 4 9 9.7 10.8 17 3.8 16.3 5.4 32.6 5.1 49.2zm-94.5-154.2c4.8-7.3 3.6-16.1 7.6-23.5 3.1-5.6 7.7-8.6 12.4-12 1.1-.8 3-1.6 3.6-.6 3.8 6.1 5.8.8 8.1-1.2 3.5-3 5.8-7.5 11.1-7.8 1.9-.1 4.1-1 5 1.6.6 1.6.2 3.2-1.3 4.4-1.8 1.5-3.3 3.2-5 4.8.8 1.1 1.5 2.3 2.3 3.4 3.1-2 6.1-4.1 9.3-5.9 2.5-1.3 5.6-1.5 7.2 1 1.6 2.5 0 5-2.3 6.7-4 3-7.9 6-11.9 9.1-1 .8-2 1.7-1.9 3.3 2.4 2.6 4.1-.1 5.9-1 2-1.1 3.7-1.6 5.2.4 1.3 1.7.2 3.1-.9 4.4-4.9 5.5-10.2 10.5-14.5 16.4-1.2 1.7-3.7 3.8-6 2.4-2.1-1.3-2.1-4-1.2-6.3.2-.6.4-1.3.5-1.9l-1.8-1.8c-6 3.7-9.1 10-13.7 15-1.6 1.8-2.8 5.1-6 3.9-3.2-1.2-1.3-4.6-1.7-6.9-.7-.5-1.4-.9-2-1.4-5.7.7-10.4-2.8-8-6.5zm-127.2 101.7c-4.2 3.5-9.1 5.5-14.6 5.2-1.3-.1-2.6-.5-3.3-1.8-1-1.8-.3-3.2 1-4.4 2.2-2 4.5-4 6.8-5.8 15-11.6 23.1-27.7 29.4-44.9 1.1-3 .6-6.5.9-9.8.2-3.2 1-6.1 5.1-5.8 4.1.3 2.4 4.1 3.4 6.2.2.5 0 1.3 0 2.2-2.5 13.3-4.5 26.8-12.8 38.8-4.9 7.1-9.3 14.4-15.9 20.1zm44.1 3.3c4.5-.7 8 .8 9.2 5.4 3.2 12.2 3.9 24.7 2.8 37.2-.9 9.8-4.8 14.3-10.6 14.8-5.9.5-13.1-5.4-15.7-12.9-1.8-5.1-2.1-10.4-2.3-15.6-.2-5.9.4-11.9.5-17.9 0-6.2 2.5-11.6 5.5-16.8 1.9-3.2 4.4-4.9 8.1-3.1 4 1.9 3 5.1 1.7 8.3.3.1.5.3.8.6zm13.4 90.9c-5.4 5.4-9.1 12.3-15.5 16.8-2.7 1.9-5.2 4.3-6.7 4.1-9.3-.3-14.5-5-20.1-8.1-3.8-2.1-4-8-5.7-12.3-.6-1.5-.2-3.2 1.5-4.3 1.9-1.2 3.1 0 4.2 1.2 2.4 2.7 4.6 5.7 7 8.3 4.8 5.2 8.6 6 14.8 2.4 5.8-3.3 10.5-8 14.5-13.4 1.9-2.6 4.5-6.2 7.7-3.4 3 2.5.7 6.2-1.7 8.7zm-.1-254.2c-14.1 15.3-28.7 30.4-39.2 48.6-8 13.8-15.3 27.8-20.2 43.1-.9 2.8-2.2 5.5-1.9 8.7.2 2.3.2 4.9-3.2 4.9-3.1 0-4.7-2.2-4.4-5.8 1.3-4.2 1.3-8.2 2.9-12 5.3-12.9 11.6-25.3 17.8-37.8 9.6-19.2 23-35.5 36.5-51.7 12.5-15 26.9-28.6 43.2-39.6 2.7-1.8 5.8-3.2 8.9-4.3 3.6-1.3 8.4 1.1 9.7 4.6.9 2.4-.6 3.4-2.5 4.5-17.8 9.9-33.9 22-47.6 36.8zm14.4 232.6c-5-19.9-1.3-38 9.5-55 3.3-5.2 7.6-9.2 12.8-12.3 2-1.2 4.5-1.5 6.3.9 1.8 2.4-.5 3.6-1.6 5-9.1 11-14.4 23.7-16.6 37.7-2.7 17.1 5.2 30.2 16.3 41.9 3.2 3.3 9.8 4.1 18.7 3.3.9 9 .6 9.9-7.4 9.2-13.6-1.2-33.5-12.7-38-30.7zm262.5 127.6c-1.5 3.2-3 4-5.9 1.3-2.7-2.6-4.6-5.7-6.6-8.7-9.1-13.5-22.1-15.8-35.8-12.7-19.7 4.5-36.1 14.4-48.4 30.7-1.6 2.1-3.4 4.1-5.3 6-7.5 7.5-11.4 7-16.3-2.7-3.9-7.7-7.1-15.7-10.6-23.6-7-15.7-16.8-19.6-33-13.6-12.3 4.5-22.8 11.7-32.9 20.1-9.9 8.3-19.9 16.4-28.5 26.1-2.4 2.7-4.4 5.8-6.9 8.4-1.3 1.4-3.3 2.8-5.3 1.4-2.3-1.5-2.2-4.2-1.1-6.3 1.7-3.2 3.8-6.2 6.1-9 9.9-12.5 20.9-23.9 32.9-34.4 16.1-14.1 34.9-18.9 55.5-16.3 13.3 1.7 19.8 12.1 25.5 23 3.2 6.1 4.8 13 9.9 18.4 6-4.2 10.1-9.9 15.2-14.4 10.2-8.9 21.8-15.2 34.1-20 12.8-5 26.3-4.2 39.2-.5 9.9 2.8 15.1 11.1 18.8 20.3 1 2 .5 4.3-.6 6.5z"/><path fill="#0B0B0B" d="M1721.3 1627.6l.1-.1c0-.1.1-.1.1-.2.1 0-.2.3-.2.3z"/><path fill="#0B0B0B" d="M1726.4 1628.2c-1.1-1.5-3.1-2.5-5-.7-2 2.2-1.3 4.9-1.5 7.4-.8 8.7-2.9 17.2-7.6 24.5-7.1 10.9-11.2 9.8-18.7 4.8-3.6-2.4-7.6-4.4-10.2-7.8-1.9-2.5-4.5-2.8-6.9-3.4-6.4-1.5-10.3 2-9.2 8.5 1.5 8.9 3.6 17.7 9.2 25 5.3 6.8 9.9 14.3 16.8 19.7 2.5 2 2.9 4.1 2.7 6.9-1.5 16.6-18.8 28-34.8 23.2-5.5-1.6-11.2-3.4-15.1-7.3-11-10.8-22.3-10.9-36-5.2-13.8 5.8-27.8 2.7-40.8-4.4-5.9-3.2-10.9-7.5-16.3-11.3-23.5-16.5-39.2-39.2-51.8-64.4-8.5-16.9-15.9-34.2-21.3-52.3-5.5-18.1-9.7-36.4-12.2-55.1-1.9-14.3-3.2-28.7-4.8-43.1-2.2-19.4-4.6-38.7-6.8-58.1-2.5-22-3.3-44.3-8.2-65.9-1.6-7.1-4-14-5.5-21.1-7.6-34.6-19.6-67.4-39.6-96.9-15-22-30.6-43.6-51.4-60.7-9-7.4-18.9-13.4-30.3-16.5-5.1-1.4-10.5-2.1-15.5.5-1.6.9-3.9 1.9-3.6 4.3.3 2.3 2.1 2.9 4.4 3.2 22.5 2.8 38.1 17.4 53.7 31.8 10.8 10 18.3 22.6 27 34.3 8.1 10.9 15.7 22.2 20.9 34.9 3.6 8.7 7.7 17.3 11.1 26.1 3.2 8.3 6.4 16.6 8.9 25.2 11.5 39.9 16.3 81 21.2 121.9 3.2 26.2 4.9 52.7 8.9 78.9 4.3 27.8 9.4 55.5 19.6 81.9 11.5 29.7 26.6 57 48.5 80.6 17.1 18.4 35.8 33.1 61 38.7 11.1 2.4 21.6 2.3 32.1-1.7 4-1.5 7.4-2.5 11 .5 2.2 1.8 5.3 2.7 6.7 6.1-11.1 11.3-21.3 23.6-34.2 32.9-24.2 17.5-47.6 36-73.1 51.7-23.7 14.6-47.1 29.8-72.3 41.8-1.2.6-2.6.6-3.3 1.9-5.3 10.3-12.7 19.2-17.2 30.1-10.9 26.6-14.6 54.3-14.9 82.6-.2 14.5 1.5 28.9 5.2 43.2 6.2 23.5 17 45.1 25.7 67.5 3.5 9 7.9 18.3 15.7 24.9 1.7 1.4 2.3 3.5.9 5.4-3.9 5.4-7.1 11.6-12 15.8-17.4 14.6-36.7 26.2-58.9 31.8-24.9 6.3-49.4 13.8-74.9 18-22.3 3.7-44.5 4.6-66.8 6.2-15.5 1.1-31.1-.4-46.5-3.1-15.1-2.6-30.2-4.3-45-9.3-16-5.5-23.4-16.6-27.3-31.2-6-22.9-4.3-45.5 3-68.1 3.6-11 11.6-18.4 17.7-27.3.7-1 2.2-1.5 3.4-1.9 4.7-1.5 9.4-3.3 14.3-4.1 8.8-1.5 17.9-1.8 26.2 1.8 10.7 4.6 22 7.1 32.9 11.1 4.8 1.8 10.7 2.3 14.1-4.3-14-10.3-20.3-25.6-26.4-41-6.3-15.7-9.6-32.4-15.1-48.4-1.4-4.1-2.6-8.2-3.5-12.4-.8-3.5.3-8-1.6-10.6-2.4-3.5-7.3.2-11-1.1-4.5 1.6-9 1.5-13.6.6-8.2 3.1-16.9 2.8-25.4 4.1-10.8 1.6-21.7 2.4-32.5 3.1-15.8 1.1-31.7 2-47.5 2.9-2.4.1-5.8-2.1-6.7 1.6-.7 3.3 3.3 3.5 5.3 5s4.5 1.1 6.8.9c13.5-.9 27-2.1 40.6-3 8.1-.5 16.3-2.2 25 .2-2 4.8-1.8 9.5-1.6 14.1 1.2 20.5 2.5 41 4 61.5.3 4.8.7 8.7-4.4 11.9-3.4 2.1-5.6 6.5-7.7 10.2-7.9 13.8-10.7 29.1-11.8 44.7-.5 7.3-.2 14.7 0 22 .1 3.8-1.1 5.6-5 7.1-17.6 7-35.8 11.6-54.2 15.8-11 2.5-22.4 2.1-33.4 3.7-24.2 3.7-48.1.6-71.9-2.6-18.2-2.4-34.9-10.1-52.1-15.9-2.1-.7-3.9-2.3-5.8-3.6-9.5-6.2-11.7-16.7-15.2-26.1-6.5-17.8-6.1-36.5-2.7-54.9 2-11 5.5-21.7 13.7-30.4 8.4-9 18.8-14.3 29.4-19.6 4-2 7-1 10.1 1.5 5.8 4.6 12.3 7.8 19.1 10.6 8.9 3.6 17.9 6.9 27.3 8.7 4.1.8 7.6-.8 9.6-3.9 1.9-3-1-5.4-2.9-7.5-6.4-7.1-13-14.5-20.5-19.8-12.6-8.9-21.5-20.6-30.9-32.1-7.6-9.2-12.8-20.1-17.9-30.8-3-6.3-7.8-8.6-13.3-8.7-12.6-.3-24.5-3.5-36.7-6.4-20.2-4.8-40.4-9.3-60.1-16.3-22.1-7.8-43.7-16.6-65-26.3-18.7-8.5-36.2-19.4-54.4-28.9-28.5-14.8-53.7-34.1-78.8-53.5-21.6-16.7-42-35.3-60.5-55.7-22.1-24.3-43.7-49-60.7-77.2-11.8-19.6-25.1-38.4-35.1-59-5.6-11.6-9.9-23.9-15.6-35.4-12.3-24.8-20.5-51-26.9-77.7-4.7-19.9-8.2-40-10.8-60.4-2.6-20.3-5.3-40.6-5.7-61-.4-21.4.7-42.9 2.4-64.4 1.4-16.5 3.6-33 7.1-49.1 5.9-27.4 13.5-54.5 20.8-81.6 8.2-30.6 15.6-61.4 28.1-90.9 10.8-25.6 21.7-51.2 34.1-76.1 6.5-13.1 14.5-25.3 21.1-38.3 5.4-10.6 12.5-20.3 19.2-30.2 13.3-19.6 28.6-37.5 43.6-55.7 15.9-19.5 30.5-40.2 50.3-56.3 3.6-2.9 6.9-6.3 10.4-9.4 13.1-11.6 23.9-25.8 38.7-35.5 7.6-5 14.1-11 20.3-17.5 3.5-3.7 7.5-6.8 11.8-9.1 8.2-4.5 15.4-10.3 23.4-15 1.8-1.1 4.9-2.3 2.6-5.2l-.1-.1c-.6.1-1.3.2-2 .3.7-.1 1.3-.1 2-.3-1.5-1.9-3.4-2.7-6.6-1.2-10.3 4.9-19.7 10.9-28.7 17.8-13.7 10.5-27.1 21.3-40.5 32.3-10.8 8.9-21.5 17.8-31.3 27.6-16.4 16.4-31.9 33.8-47.9 50.5-8.8 9.1-15.7 19.7-23.8 29.3-9.9 11.7-19.4 23.7-28 36.3-11 16.1-22.1 32.1-31.6 49.3-14.9 27-30.8 53.3-41.6 82.4-3 8.2-5.4 16.8-11.2 24.9-3.1-3.2-7.2-3.3-10.8-4.8-15.2-6.4-27.6-15.7-33.1-32.1-2.6-7.8-2.4-8.3 3.8-13.4 3.1-2.5 6.1-5.2 9.5-7.3 8.1-5 14.1-11.8 18.9-20 6.2-10.6 9.3-22.3 13.3-34.6 4.6 3.4 8.4 6.3 14.4 4.9 13.5-3.1 24.4-9.7 32.6-20.8 10.5-14.2 13.6-26.1.6-43.2-3.6-4.7-6.4-10-10.6-14.3-2.5-2.6-5.4-5.7-2.7-10.4 8.8-15.2-3.3-45.6-25.9-46.1-4.8-.1-6.1-2.2-6.2-6.8-.2-13.7-6.8-23.2-19.5-28.5-10.3-4.4-10.6-4.5-9.6-15.2 1-11.4-3.9-20.5-9.9-29.4-1.8-2.7-4.2-3.5-7.3-4.2-8.7-2-17.2-.3-25.6 1.1-2.3.4-4.6 1.5-6.3-.9-7.7-10.7-15.5-21.4-23.1-32.2-2.2-3.1-2.7-6.2 1-9.5 8.5-7.4 16.2-15.7 24.7-23.1 14.5-12.7 29.1-25.1 44.7-36.5 3.2-2.3 7.2-4.6 6.3-9.3-1.5-7.5-1.1-15.2-3.6-22.5-3-8.8-5.1-17.9-8.1-26.7-5.4-15.9-13.3-30.4-24.8-42.8-11.5-12.4-24.1-23.9-38-33.5-10.5-7.3-21.6-14.3-34.6-16.8-6.4-1.3-12.1-.2-16.6 4.4-8.6 8.7-17.5 17.2-25.1 26.7-8.7 11-19.6 19.6-28.8 30-2.6 2.9-5.4 4-8.5 1.3-4.4-3.9-8.4-2.1-12.7.2-13.2 7.2-23.5 17.1-29.9 31-1.9 4.1-3.5 7.8.1 11.8 2.1 2.4 1.6 4.6-1 6.7-6.9 5.7-13.7 11.6-20.3 17.6-11.2 10-23.3 18.6-35.4 27.4-6.2 4.5-9 10.2-6.9 18.1 1.6 5.7 2 11.7 3.4 17.5 5.2 21.4 13 41.9 25.4 60.2 12.9 18.9 30.4 33.3 48.3 47.1 7.1 5.5 15.4 9.2 23.8 12.3 8.8 3.3 15 1.5 20.9-5.4 10-11.5 19.7-23.3 30-34.6 4.1-4.5 7.9-9.6 13.6-13.1 5.8 8.7 11.3 16.8 16.7 24.8-7.5 7.9-15.5 14.7-21.6 22.9-22.8 30.9-25.9 66.1-19.2 102.5 1.3 7-.4 10.2-5.1 13.8-11.5 9-22.8 18.4-32.8 29-22.1 23.5-35.6 51.8-44.3 82.5-7.3 26-9.7 52.5-6.5 79.5 1.2 9.9 2.5 19.7 5.9 29.1 9.7 27.1 23.7 51.6 41.1 74.6 15.9 21 34.3 38.5 57 51.9 17.8 10.4 36.1 19.4 56.3 24.3 15.7 3.8 31.5 6.6 47.9 5.2 0 5.2.1 9.5 0 13.8-.5 13.2-2 26.4-1.5 39.6.9 23.1 2.4 46.2 5.4 69.2 4.2 32.5 11 64.3 20.7 95.5 6.8 21.9 15.1 43.2 24.2 64.2 7 16.1 14.3 32.2 23.7 47 21.1 33.4 42.3 66.8 68.7 96.5 17.3 19.3 35.3 38 54.7 54.9 20.5 17.8 42.4 34.1 64.8 49.6 26.8 18.4 54.1 35.9 83.2 50.6 15.3 7.7 30.5 15.8 46.7 21.6 21.2 7.5 42.6 14.5 64.4 20.1 20.2 5.2 40 12.1 61 13.4 4.6.3 6.6 3.2 8.7 7 5.8 10.8 12 21.3 19.9 30.8 4 4.8 9.8 8.8 11.4 15.5-6.3 3.2-12.9 1.5-18.8 4-29.7 12.8-48.2 34.1-50.9 67.2-1.5 17.3.4 34.6 4.3 51.3 3.4 14.5 11 27.5 25.1 34.3 15.4 7.4 31.4 13.9 48.2 17.6 15.2 3.3 30.5 5.6 46.1 7 18 1.6 35.7-.2 53.4-2 22.1-2.3 43.5-8.4 65.1-13 4.1-.9 7.6-4 12.3-3.3.3 1.2.6 2.2.7 3.1 2.3 22.6 15.6 38.3 36.7 45.6 11.1 3.8 22.6 4.8 34 6.8 15.7 2.8 31.5 4.9 47.4 4.4 13.6-.4 27.1.2 40.8-1.4 9.2-1.1 19-.8 28.2-2.3 21.8-3.5 43.3-8.7 64.4-15.1 24.3-7.4 48.5-15.4 70.6-28.5 12.5-7.4 23.7-16.1 30.2-29.5 3.7-7.6 6-15.3-1.9-22.3-3.5-3.1-5.7-7.3-7.9-11.4-5.9-11.4-11.5-22.8-14.6-35.6-3.1-13-8.9-25.4-12.8-38.4-3.6-12-6.6-24.4-6-37 .9-19.2 3.6-38.1 9-56.6 4.7-16 11-31.3 19.7-45.5 2.2-3.5 3.9-7.3 8.7-9 19.6-7.2 38.3-16.6 55.5-28.4 23.5-16.1 47.5-31.7 70.2-49 18.9-14.5 38.4-28.5 53.5-47.8 5.9 5.7 14 2.8 20.7 5.6 1.5.6 3.7-.6 5.5-1.8 10.2-6.5 18.7-14.6 25-25 6.6-11.1 6.3-19.1-2.3-28.6-5.6-6.2-10-13.2-14.7-20-1.3-1.9-3.1-3.6-.7-6.1 3.9 1.6 7.8 3.7 11.9 4.8 6.2 1.7 12.5 2 18.1-2.3 7.9-6.2 13-14 13.8-24.3.4-4.9-.5-9.9 1.1-14.8.5-3.2-1.8-5.5-3.3-7.6zm-566.2 342.5c.3-4.1 2.5-6.8 7-7 6.3-.2 12.6-.2 18.9-.5 3.9-.2 4 2.9 4.8 5.2 3.9 11.6 7.3 23.4 11.7 34.8 4.6 12 10.9 23.4 17.6 34.3 2 3.2 3.8 6.6 6.6 11.3-7.9-2.7-13.1-6.7-19.1-8.9-10.2-3.9-20.7-6-31.9-4.3-7.9 1.3-8.2.7-10.4-6.9-5.3-19-6.5-38.4-5.2-58zm-697.9-1018c-2.4 1.3-4.7 2-7.3 2.7-3.6 1-7.3 2.9-9.6-1.4-1.9-3.4-2.7-7.3-.5-11.3 7.3-13 16.9-22.9 32.6-25 1.6-.2 3.2-.8 6.5-1.7-4 15.4-7.9 28.9-21.7 36.7zm16.2-42.3c-16.6 1.3-26.8 11.7-37.6 23.7-1-6.8-2-12.5-2.7-18.2-.6-4.9-.3-10-1.5-14.8-2.5-10.4-3.6-8.9 7.6-14.8 9.6-5 13.6-4.2 20.6 4.1 5 6 10.1 11.9 13.6 20zM223.7 564.9l1.9 1.9-29.5 28.9c-.7-.6-1.3-1.3-2-1.9 7.2-12.5 16.8-22.4 29.6-28.9zm50.7 180.3c-13.8 13.5-25.3 28.9-36.9 44.4-1.2 1.6-2.3 3.3-3.5 4.9-2.7 3.7-5.7 4.3-10.3 2.6-16.9-6.4-30.3-17.7-42.5-30.6-20.4-21.6-34.7-46.9-42.4-75.7-2-7.3-4.6-15.3-3.5-22.4 1.1-7.4 9.7-11 15.4-15.7 27.4-23.1 54.2-46.7 79.2-72.4 14.1-14.5 28.5-28.7 42.4-43.4 5.1-5.5 9.1-12 16.3-17.1 3.4 16.1 7.9 31.1 13.1 45.8 3.8 10.7 8.8 20.6 15.9 29.5 11.4 14.5 24.4 27.3 40.6 36.4 6.9 3.9 14 7.4 21.1 11.1.6.3 1.2.6 1.8.8 2.5.8 4.7.3 5.8-2.3 1.2-2.7-.2-4.6-2.6-5.5-16.3-6.4-29.9-17.1-42.9-28.3-22.6-19.4-35.1-44.6-41.1-73.4-1.6-7.6.5-15.1.5-22.7 0-4.3 3.9-4.6 7.5-4.2 8.1 1 15.9 3.7 22.2 8.3 14.1 10.5 27.8 21.6 39.8 34.4 14 15 23.7 32.8 29.5 52.5 2.1 7.3 3.8 14.8 5.4 22.2 1.1 5 .7 8.7-4.6 12.4-9.2 6.4-17.5 14.3-25.5 22.3-12.5 12.3-27.7 21.9-38.8 35.8-1.2 1.4-2.9 2.8-5.3 2.8-3.3-1.8-3-7.6-7.9-7.9-9.3-.5-18.7-2.7-27.5 1.7-12.2 6.1-20.1 15.9-23.4 29.4-1.1 4.7.6 8.3 3.3 12 4.5 6.7 4.4 6.9-1.1 12.3zm9.8-16.8c-1.5-2.1-2.9-4.5-2.7-7.4.3-5.3 2.8-9.6 6.6-13 3.2-2.9 6.7-5.4 10.7-7.2 12.6-5.6 15.3-4.8 22.1 6.9 5.4 9.2 11.6 17.8 17.8 26.3 2.4 3.2 4.7 6.4 6.9 9.8 5.5 8.7 5.4 8.6-4.1 13.2-7.4 3.6-14.8 7.5-22 11.5-3.1 1.7-5.2 1.9-7.4-1.4-9.2-12.9-18.7-25.7-27.9-38.7zm105.1 536.1c-2.1 10.1-2.2 10.6-12.7 8.9-26.1-4.1-51.6-10.5-76.2-20.6-31.8-13-53.8-37.1-74-63.1-14.2-18.3-25.2-38.9-32.8-60.9-4-11.6-5.5-23.6-6.4-36-1.9-25.9 3.8-50.6 11.3-74.7 4.7-15.2 13.3-29.1 22.6-42.6 12.8-18.6 29.2-33.4 43.5-50.4 3.3-3.9 7.5-6.5 11.9-8.8 3.2-1.7 4.3-3.9 3.9-7.2-.4-3-.3-6-1.1-8.9-7.7-29.1-3.9-57.2 7.3-84.6 1.9-4.5 4.8-8.9 8.3-12.3 10.9-11 21.8-21.8 36.5-28.6 13-6 26.7-9.8 40.1-14.3 3.7-1.2 7.5-2.4 11.6-2.6 9.5-.5 14.6 3.7 14.9 13.3.2 5-1.5 9.8-2.9 14.5-.7 2.2-1.1 4.6-1.9 6.7-1.3 3.2-.6 4.7 3 5.6 14.8 3.8 24.5 13.6 31.4 26.8.3.6.8 1.2.9 1.8 1 9.6 5.4 13.2 15.8 14.2 10.5 1 15.9 11.1 19.3 20.9 1.2 3.4 1.4 7.1 2.2 11.3-8.3 1.8-15.7 3.4-23.1 5.1-2.6.6-5.2 1.3-7.6 2.5-8.5 4-10.9 9.6-9.3 19 3.8 22.1 2.9 44.2-1.9 66.1-2.7 12.2-9.4 22.7-15.9 33.1-3.8 6.1-10.4 9-16.8 11.7-9.5 4-12.1 9.6-10.3 19.7 4.1 23.2 15.4 41.3 35.8 53.6 4.8 2.9 10.2 4.5 15.7 6.9-2.5 8.3-4.7 16.6-7.5 24.6-5.5 15.6-9.2 31.7-12.7 47.9-3.8 17.5-8.9 34.7-13 52.1-3.5 14.7-7.7 29.4-8.8 44.6-.5 1.4-.7 3-1.1 4.7zM943.4 1986c1.2-1.7 2.7.4 3.8 1.3.7.6 1.2 1.4 1.8 2.1 2 .9 4.2 1.5 4.9 4 .7.3 1.8.5 1.2 1.5-.5.8-1.4.4-2.2-.1-2.9-.9-5.7-1.9-7.2-4.8-1.5-1-3.9-1.9-2.3-4zm-2.3-2.2c.2 0 .4.4.7.6-.4.2-.9.5-1.3.7l-.7-.7c.4-.2.8-.4 1.3-.6zm741.7-312.3c-.2-.4-.5-.9-.7-1.3l.7-.7c.2.4.5.9.6 1.3 0 .2-.4.4-.6.7z"/><path fill="#0B0B0B" d="M1721.3 1627.6l.3-.3c-.4-1.3-1.4-3-2.6-2.3-4.7 2.9-8.8 1.2-12.8-1.4-13.7-9-25.4-20.2-35.6-33.1-1.6-2-3.4-4.7-2.4-7.4 2.6-7.1.6-14.5 2.4-21.7 1.8-7.2-1.2-14.3-2.9-21.3-3.6-14.9-8.2-29.3-17.4-42-2.4-3.3-4.8-6.6-8.4-8.3-6.8-3.2-7.4-8.3-6.1-14.9 3.7-17.8 7.2-35.6 10.7-53.5 7.6-38.9 12.1-78 8.8-117.7-.7-7.9-3.3-15.6-3.7-23.5-1.2-25-9.5-48.5-15.4-72.4-4.9-19.9-13.9-38.7-23.5-56.9-11.5-21.8-24.6-42.5-40.3-61.5-6.4-7.7-12.8-15.2-19-23-6.6-8.3-15.1-14.8-24.1-20.5-1.8-1.1-3.7-1.7-3.4-4.1.4-2.6 2.6-2.6 4.6-2.9 4.1-.6 7.5.3 11.1 2.7 9 6 15.6 14.5 22.3 22.6 13.3 16.1 27.2 31.7 38.7 49.3 15.9 24.2 29.8 49.4 40.4 76.3 4.9 12.5 8.1 25.8 10.9 39.1 4.2 20 8.3 40.1 11 60.4 3.4 26.1 4.8 52 1.5 78.2-1.1 9.2-.8 18.5-2.1 27.8-1.4 10.5-3.1 21-4.9 31.4-2 11-2.6 22.4-5.6 33.2-3.1 11.1-3.6 20.4 7.3 27.3 11.9 17.8 21.7 36.4 23.2 58.4.6 9.1-1.4 17.9-3.2 26.6-.9 4.3-.1 7.2 2.1 10.9 6.9 11.9 15.7 22.1 25.3 32.3 3.9-2.4 5.4-6.2 7.1-9.6 13.5-27 26.1-54.3 34.7-83.3 4.7-15.9 9.1-31.8 13-47.9 4.4-18.3 9.6-36.5 13.1-55.1 3.6-19.2 7-38.4 9.5-57.8 2.6-20.4 4.7-40.8 4.4-61.5-.4-25.9-2.1-51.7-4.1-77.5-.1-.7.2-1.5-.1-2-3.7-6.9-3.7-14.3-4.2-21.9-.6-9.5-2.9-19-4.5-28.4-5.6-33.8-16.1-66.3-26.5-98.8-9.9-31.2-22.6-61.6-39-90.1-8.1-14-16.9-27.7-25.9-41.2-7-10.5-11.6-22.3-18.9-32.6-23.5-33.1-48-65.3-76.5-94.2-23.3-23.6-47.8-46.1-73.8-66.8-16.1-12.8-31.8-26-48.6-37.8-23.1-16.1-46.7-31.6-71.2-45.6-6.2-3.6-13.3-5.7-20-8.5-15.1-6.6-30.2-13.4-45.4-19.8-7.6-3.2-15.6-5.4-23.5-8.1 2.1-3.2 7.8-2.6 7.9-7.8 13.6 2.9 26.4 7.9 39.3 13.1 21.5 8.6 42.3 18.9 63 29.2 12.2 6.1 23.6 13.4 34.8 21.1 28.7 19.8 56.1 41.2 83.3 63 10.5 8.5 19 19.6 29.6 28 17.9 14.1 32.6 31.2 48.2 47.4 18 18.7 33.7 39.3 49.2 60.1 16.4 22.1 31.9 44.9 45.7 68.6 18.6 31.7 34.6 64.8 47.1 99.5 6.2 17.1 13 34 17.6 51.7 4.3 16.6 9.2 33.1 12.5 50 1.6 8.1 4.4 16 5.5 24.2 4.4 32.7 12 65 10.6 98.3-.3 7.9.9 15.8 1 23.7.4 24.2-2.7 48.2-5.3 72.1-4.7 44.2-13.7 87.5-27.9 129.7-5.7 16.9-10.5 34.1-15.5 51.2-4.6 15.7-12.5 30-18.9 44.9-4.2 9.8-9.3 19-15.5 27.7-1.8 2.9-1.1 4 1 5z"/><path fill="#0D0D08" d="M808.8 178.1c-20 3.1-38.5 10.8-57.8 14.8-7.4 1.6-14.8 3.1-22.5.7-8-2.4-13.5-10.9-10.9-19.1 4-13 12.4-23.4 21-33.5 9.1-10.7 19.4-20 31.3-27.5 3.4-2.2 4-3.6 2.6-7.8-8-23.4-10.1-47.8-10.3-72.3 0-4.2 1.3-8.2.2-12.7-1.3-5.3 1.6-7.7 7.3-8 8.9-.5 17.1 1.8 24.8 6.1 16.2 9 33 17 48.5 27.2 3.8 2.5 6.9 8.1 11.3 7.1 4-.9 7.3-5.4 10.8-8.4 10.4-8.8 20.5-17.9 32.1-25.3 7.6-4.8 13-12.2 21.2-16.3 11.9-6 16-4.2 15.5 9.2-.8 19.9-3.9 39.5-10.7 58.4-2.9 8.1-4.6 16.7-8.1 24.5-2.5 5.6-.1 8 3.8 10.2 6.6 3.8 12.7 8.3 19.1 12.3 16.4 10.2 29.3 23.8 40.8 39 7.4 9.7 3.3 18.5-8.9 20.2-8.2 1.1-16.6 1.3-24.8 1.6-13.6.5-27.1 3-40.7 2.4-3.6-.2-7.3.1-10.8-.7-8.6-1.8-9.4-.6-7.9 8 2.8 15.6 1.3 31.1 1.4 46.6.1 11.5-.8 23.1-4.6 34.3-3.3 9.8-7.3 11-14.7 3.6-6.4-6.3-12.3-13.1-16.9-20.9a5529.8 5529.8 0 0 1-36.1-61.9c-2-3.3-3.7-7.3-6-11.8zM924.5 9.6c-11.4 10.9-24.3 18-34.6 28-9.3 9-19.1 17.4-28 26.8-5.7 6-8.2 5.7-15.3.7-10.8-7.7-21.2-16-32.7-22.6-11.1-6.5-22.9-11.9-33.7-18.9-6.8-4.3-9.7-2.7-10 5-.1 2.3-.3 4.7 0 7 3.3 20.9 4.2 42.2 13.1 61.9 1.2 2.7 1.8 5.7 2.4 8.6 1.7 8.6.9 9.9-7.2 14.1-2 1-3.9 2.5-5.6 4.1-4.8 4.6-10.4 8.3-15.5 12.5-12.1 10.1-21.6 22.4-28.2 36.8-1.5 3.2-3 7.6-.6 10.4 2.9 3.4 7.5 1.5 11.1.2 21.6-7.5 43.6-13.6 65.7-19.5 7.8-2.1 11.1-.9 15 5.8 3.4 6.1 6.6 12.3 9 18.8 3.5 9.3 7.1 18.5 11 27.6 6.8 16.1 17.9 29.4 28 43.3 1.1 1.5 2.4 3.3 5 3.2 2.5-2.1 2-5.2 2.1-8.1.2-10.3.5-20.6.6-30.9 0-6.5 1.4-12.9.4-19.7-1-6.9-1.8-13.7-3.4-20.5-3.7-15.3 2.2-18.8 15-16.3 3.9.8 7.8 1.6 11.8 1.7 17.2.1 34.4.3 51.6-.1 6-.1 12.5.4 17.9-3.1.4-1.9-.3-3-1.1-4.1-8-10.6-16.1-21.1-27.5-28.4-12-7.6-21.8-18.4-35.2-23.9-5.9-2.4-5.7-6.2-3.3-11.1 5.6-11.7 8.6-24.3 12.1-36.8 3.7-13.1 5.4-26.6 10.6-39.3 1.2-3.2 1.8-7-.5-13.2zM424.2 361.5c5.1-19.5 7.5-39.7 16.7-58.1 2.8-5.6 4.9-11.6 7.7-17.2 1.7-3.4 1.7-5-2-7.9-11.9-9.2-24.7-16.6-37.8-23.7-3.6-2-6.4-4.3-6.5-7.9-.1-3.9 3.2-6.3 6.9-7.6 10.6-3.8 21.6-5.8 32.7-7.3 14.1-2 28.4-1.6 42.4-4.5 4-.8 5.9-2.6 6.8-5.9 4.2-14.3 10.7-27.7 17-41.2 2.9-6.2 8.3-9.4 13.7-12.5 3-1.7 6.3-.8 9 2 3.2 3.5 5.9 7.5 6.8 12 3.6 18.2 10.9 35.4 14.1 53.7.7 4.2 3.1 3.9 6.5 3.8 17.9-.5 35.8-.8 53.7 1.4 3 .4 5.9.4 8.3 2.7 3.7 3.5 4.1 6.4.8 11.4-7.3 11.2-16.3 20.8-26.9 28.9-7.7 6-8.4 6.2-5.7 15.6 5.3 18.5 7.4 37.6 11.1 56.4 1.2 6.3.3 12.6-.2 18.9-.5 5.9-4.4 7.5-8.6 3.8-10.8-9.4-23-16.8-35-24.4-9.9-6.3-18.5-14-27.3-21.6-15.6-13.6-20.8-14.4-36.6-1.6-16.5 13.3-34.2 24.5-52.1 35.7-1.9 1.2-4 2.5-6.2 3-5.9 1.7-9.9-2-9.3-7.9zm165.1 3.6c-.9-5.8-1.6-9-1.9-12.3-1.5-14.2-3.9-28.2-7.2-42-5.1-20.8-4.6-23.1 11.6-37.4 2.7-2.4 5.6-4.8 8.2-7.3 4.2-4.1 8.2-8.5 11.4-14-14.2-3.1-28.1-1.9-41.9-2.2-6-.1-12 .3-17.9-1.2-5.7-1.5-9.4-4.4-10.2-10.7-1.1-8.2-2.6-16.4-3.9-24.5-2.1-12.5-6.4-24-14.6-34.7-6.3 9.3-12.6 17.5-16.3 27.2-3.3 8.7-7.3 17.1-10.3 25.9-1.9 5.7-5.5 7.9-11.1 8.1-12.2.6-24.5 1-36.7 1.9-10.7.8-21.3 2.6-32.8 5 1.6 1.5 2.2 2.3 3 2.7 13.1 5.8 24.6 14.2 36.2 22.4 6 4.2 6.9 6.6 4.7 13.4-1.6 5-3.2 10.4-6.6 14.4-9 10.4-10.8 23.4-13.2 36-1.2 6.4-3.5 13.2-1.5 21.1 17.7-14.4 34.5-28.4 53.3-39.7 3.4-2.1 6.8-4.1 10.5-5.6 5.4-2.1 10.4-1.4 15.1 1.6 11.6 7.7 23 15.8 34.1 24.3 11.8 8.8 24 17.4 38 27.6z"/><path fill="#0E0E09" d="M1162.5 352.5c4.7 3.8 8.6 7.4 12.9 10.5 10.8 7.7 18.6 17.9 25.8 28.8 1.8 2.7 3.4 5.7 4.4 8.9 2.7 8.6-.5 12.8-9.4 11.2-20.8-3.8-42.1-4.2-63-7.7-2.2-.4-4.5-.1-7.2-.1-2.5 12.9-6.5 25.5-11.8 37.7-3 7-6.1 14-10.9 20-3.4 4.3-7.6 8.1-13.2 7-6.3-1.2-10.3-6-11.9-12.2-5.8-21.7-11.1-43.3-11.7-66-.3-10.5 1.5-8.7-9.2-12.5-11.2-3.9-22.5-7.5-33.6-11.7-6.8-2.6-13.3-6-18.4-11.7-6-6.8-5-12.6 3.7-16.3 10.6-4.6 21.2-9.3 32.3-12.9 5.3-1.7 10.9-2.4 16-5.3 3.3-1.9 5.2-3.6 4.8-7.6-1.3-16 1.5-31.8 2.1-47.7.3-7.2 1.9-14.4 3.6-21.5 1.6-6.9 5.2-7.8 10.4-2.9 11.4 10.9 19.3 24.3 27.2 37.8 3.7 6.3 7.3 12.6 10.7 19 2 3.7 5.5 3.3 7.7 2.2 14.8-7.8 31.3-7.7 47.1-10.9 7.6-1.5 15.8-2.6 22.8 3.3 5.3 4.5 7 8.5 3.4 14.5-5.5 9.1-11.4 17.9-17.9 26.3-5.3 6.6-9.9 13.9-16.7 19.8zM1074.8 249c-1 6.1-1.2 10.8-1.8 15.2-1.9 13.5-3.7 27-2.8 40.6.3 4.6 1.5 9.1 1.3 13.8-.3 8.4-.2 8.4-8.4 10.9-13.3 4-26.7 7.9-39.9 12.2-3.5 1.1-7.7 1.7-9.9 5.3 1.4 4.3 4.5 6.2 8.1 7.2 11.1 3.1 21.5 8.5 33.2 9.8 4.2.5 8.4 1.8 12.5 3 7.5 2.2 8.7 3.6 8.9 11 .2 5.3-.1 10.7.1 16 .8 19.6 2.3 39 9.2 57.7 1.3 3.5 3 6.2 6.6 6.6 3.9.4 4.2-3.7 5.5-6.1 8.8-16.6 10.7-35.4 16.3-53.1 2.6-8.1 1.8-8.3 10.5-7.7 2.3.2 4.6.4 6.9.9 21.4 4.3 43.2 5.6 65.2 11.1-.8-6.1-3.4-10-6.9-13.7-10.1-10.6-20.7-20.6-33-28.7-6.4-4.3-6.5-7.9-1.3-13.8 4.4-5 9-9.8 12.9-15.2 7.4-10 17-18.7 21-31-6.2-3.8-6.2-3.7-10.9-3.9-18.3-1-35.1 5.8-52.2 10.6-9.4 2.7-13.1 2.5-18.1-6-7.5-12.9-14.8-26-22.4-38.9-2.4-4.4-5-9.1-10.6-13.8z"/><path fill="#0D0D0D" d="M1315.8 619.4c-.1 5.2-5.8 4.6-7.9 7.8-9.2-1.2-17.8-4.5-26.8-6.7-25.4-6.2-50.5-12.6-76.6-15.5-17.8-2-35.5-2.4-53.3-3.2-19.5-.9-39.1-.5-58.4 1.8-19 2.2-38.2 2.2-57.2 5.5-17.2 2.9-34.6 5.4-51.9 8.5-25.4 4.7-50.3 11.6-74.3 20.7-15 5.7-29.4 13.3-44.2 19.7-19.1 8.3-38.5 15.8-56.8 25.8-5.8 3.2-11.3 7.1-17.3 9.7-5.1 2.2-10.7 6.6-16.8.2 3.9-7.5 11.3-11.4 17.7-16.4 7.7-6 17-8.9 25.5-13.1 14.2-7 28.5-13.9 43.1-20.2 29.5-12.7 59.3-24.2 90.6-31.6 22.5-5.3 45.3-9.1 68.1-13.4 24.4-4.6 49.1-6.4 73.7-8.6 22.4-2 45.1-1.8 67.7.4 12.2 1.2 24.4.4 36.7 1.9 25 3 49.8 6.6 74.1 13.2 14.8 4.2 30.3 6.4 44.3 13.5zM838.4 849.5c-4.9-11.9-9.9-23.8-13.9-36.1-4.2-12.9-9.8-25.3-15.9-37.5-12.7-25.5-27.9-49.4-45.2-71.9-.2.2-.4.4-.6.5.2-.2.4-.4.6-.5-2.9-3.8-5.9-7.6-9-11.3-11.3-13.8-21.6-28.6-35.4-40.2-9.2-7.7-17.5-16.3-25.8-24.9-3-3.1-6.4-5.8-9.7-8.5-8.9-7.5-19.4-12.8-28.7-19.7-14.4-10.7-30.5-18.4-46.5-26.3-5.3-2.6-10.5-5.8-16.1-7.6-22.6-7.2-44.8-15.8-68.8-19-16.8-2.2-33.6-2.5-50.3-4.6-9-.5-17.7 1.8-26.3 3.4-15.7 2.9-28.9 11-41.4 20.5-1.2.9-1.5 2.1-.9 3.5.5 1.3 1.4 2.4 2.8 2.5 2 .2 3.9-.6 5.6-1.8 8.8-6.3 19.2-8.6 29.1-12.2 11.7-4.2 24.1-4 36.3-4.1 18.2-.2 36.5-.6 54.3 4.2 8.6 2.3 17.2 4.8 25.8 7.2 20.8 6 40.8 14.1 59.7 24.3 40.1 21.6 74.1 51.1 104.8 84.6 9.2 10 17.6 20.6 26.1 31.3 1.3 1.7 2.6 3.3 4 4.9l.9-.6-.9.6c7.8 9.7 15.6 19.4 22.3 30 13.1 20.7 23.1 43.1 34.8 64.6 8.5 15.5 14.3 32.1 21 48.4 1.6 3.9-.3 10.3 6.6 10.2 3.5-.2 3.7-6.7.7-13.9zM779.9 542.6c-1-4.1 1.7-7.6 2.5-11.4 2.7-12.2.9-17.7-9.3-24.7-4.4-3-8.9-5.8-13.3-8.8-7.2-5-9.2-11.9-6.9-20.1 2.4-8.7 5.8-17 10.8-24.5 7.2-10.7 14.6-21.2 23.9-30.4 10.1-10 20.2-20.1 27.4-32.8 4.1-7.3 4.1-13.7-.6-20.4-9.4-13.1-23.1-19.5-38.1-23.7-6.4-1.8-12.7-3.8-18.9-6.3-11.2-4.5-16.4-13.9-13.1-25.3 4.4-15.2 10.4-29.7 19.1-43.1 8.8-13.6 18-26.9 27.9-39.8 4.1-5.3 8.9-9.7 15.2-12.4 2.3-1 3.7-.6 5.2 1 1.8 1.9 2.6 4 .8 6.2-1.5 1.8-3.1 3.5-4.8 5.1-12.8 11.2-23.9 24-32.6 38.5-7.6 12.6-12.2 26.5-15.7 40.7-1.5 6.2.6 12.4 5.4 17.1 4 4 8.9 7.5 14.1 8.9 9.4 2.4 17.9 6.9 27.1 9.8 9.6 3.1 17.2 9.7 20.3 20.1.6 1.9 1.1 3.9 2.1 5.6 2.5 4.6 1.3 8.5-.8 13.1-8.1 17.9-21.3 31.9-34.1 46.2-9.9 11.1-16.8 23.9-23.4 36.9-5.4 10.5-3.4 16.9 6.9 23.6 15 9.8 20.4 22.9 15.4 40.2-1.2 4.1-2 8.4-3.3 12.5-1.1 3.3-3 6.3-7.2 5-3.8-1.1-2.1-4.2-2-6.8z"/><path fill="#0F0F0F" d="M1003.7 495.6c.8-16.8 1.6-33 4.3-49 2-12.2 5.7-23.8 13.1-34 2.3-3.1 4.9-5.3 8.9-5.6 3.5-.2 5.1 1.6 3.8 4.7-.4.9-.9 1.8-1.5 2.5-12.1 11.7-13.7 27.3-16.1 42.6-1.4 8.5.5 17.3-1.9 25.7-.5 1.9.2 3.9.9 5.8 1 2.8 1.8 5.7 2.3 8.6.8 4.6 2.9 10.1 0 13.5-3.2 3.7-8.1-.6-12-1.6-21.5-5.7-43.5-7.9-65.4-10.9-12.3-1.7-26.6 9.2-26.6 22.5 0 11.6.8 23.1 3.3 34.5 2.5 11.6 1.8 23.8 6.4 35 .6 1.3 0 2.6-1.3 3.3-1.4.8-2.9.4-3.6-.6-1.6-2.1-3.1-4.4-4.1-6.8-8.4-21.3-12-43.3-10.1-66.2 1.5-17.8 17.5-30.9 32-31.5 7.6-.3 15.1-.4 22.7.8 14.6 2.5 29.3 4.4 44.9 6.7z"/><path fill="#0D0D0D" d="M907.8 1230.7c6-4.2 10.1-9.9 15.2-14.4 10.2-8.9 21.8-15.2 34.1-20 12.8-5 26.3-4.2 39.2-.5 9.9 2.8 15.1 11.1 18.8 20.3.9 2.2.4 4.5-.7 6.7-1.5 3.2-3 4-5.9 1.3-2.7-2.6-4.6-5.7-6.6-8.7-9.1-13.5-22.1-15.8-35.8-12.7-19.7 4.5-36.1 14.4-48.4 30.7-1.6 2.1-3.4 4.1-5.3 6-7.5 7.5-11.4 7-16.3-2.7-3.9-7.7-7.1-15.7-10.6-23.6-7-15.7-16.8-19.6-33-13.6-12.3 4.5-22.8 11.7-32.9 20.1-9.9 8.3-19.9 16.4-28.5 26.1-2.4 2.7-4.4 5.8-6.9 8.4-1.3 1.4-3.3 2.8-5.3 1.4-2.3-1.5-2.2-4.2-1.1-6.3 1.7-3.2 3.8-6.2 6.1-9 9.9-12.5 20.9-23.9 32.9-34.4 16.1-14.1 34.9-18.9 55.5-16.3 13.3 1.7 19.8 12.1 25.5 23 3.3 5.8 5 12.7 10 18.2z"/><path fill="#0F0F0F" d="M536.1 382.4c-12.9 6.2-15.8 19.1-19.4 30.8-3.3 10.8 7 21.1 19.7 19.7 12.2-1.4 24.5-1.4 36.7-2.3 9.1-.7 17.8 1.2 25.8 5.3 8.3 4.3 10.2 12.9 5.2 21.9-2.4 4.3-5.3 8.5-8.1 12.6-2.1 3.1-3.7 6.3-4.6 9.9-1.5 6.2 1 10.6 7.3 10.9 7.9.4 15.9-.1 23.9-.1 3.6 0 7.4 0 10.9.7 10.4 2 14.4 8.9 12.7 19.5-1.2 7.3-5.5 14.2-3.1 22.2.6 2-1.1 4.9-3.6 5.2-3.6.4-4.1-2.7-4.4-5.4-.7-6.7 1.1-13.2 2.8-19.6 2.8-10.4.9-12.8-9.8-14.6-8.2-1.4-16.3-1.4-24.6-.2-15 2.1-24.8-7.3-20.7-22.5 2.1-7.9 5.4-14.9 9.7-21.7 5.5-8.7 4.7-10.8-5.5-13.6-7.6-2.2-15.4-2.7-23.4-2.1-10.9.9-21.7 2.4-32.7 2.1-13.6-.4-24.7-12.1-24-26 .7-14.2 8.8-24.7 17.5-34.8 3.5-4 5.8-3.3 11.7 2.1z"/><path fill="#0D0D0D" d="M41.9 693.3c1-13.5.4-27.1 3.3-40.5.2-1 0-2.1.4-3 1.1-2.6 1.5-6.7 5.5-5.7 3.8.9 3 4.5 2.6 7.5-3.9 28.3-1.3 56.1 5.9 83.6 9.2 35.1 24.2 67.2 49 94.2 5.6 6.1 12.4 11 19.1 15.9 2.1 1.6 4.1 3.3 6.1 5 2 1.7 3.1 3.4.8 5.8-2.1 2.1-4.1 1.9-6.1.2-14.1-11.9-28.3-23.7-40.5-37.8-21.4-24.7-33-53.9-40.5-85.1-3.3-13.2-6.5-26.3-5.6-40.1zM916.7 768.3c20.8.4 39.4 3.1 57.6 8.3 8.7 2.5 15.8 8 23 13.3 1.4 1 3.7 2.4 2 4.8-1.5 2.2-3.7 3.1-6.1 2.1-3.1-1.2-6.1-2.6-8.9-4.3-13.7-8.3-28.6-11.7-44.6-11.3-12.3.3-24.9-1.5-36.9.4-20.4 3.1-41.5 4.6-59.8 15.9-3.6 2.2-11.3.2-12.8-3.3-1.8-4 1.2-6.3 4-8 7.1-4.4 14.7-8.2 22.7-10 15.8-3.6 31.6-7.5 48-7 4.6 0 9.2.4 11.8-.9zM1178.1 1943.5c-1.5-1.7-3.6-1.9-5.5-1.6-15.2 2.2-30.5 1.6-45.7 2-13.3.3-26.5 2.1-39.8 1.2-19.2-1.2-38.4-.9-57.6-2.3-6.9-.5-13.8-.3-20.6-1.7-1.9-.4-3.8-1.1-5.7-1.6-3.3-1-7.1-2.2-5.2-6.6 1.5-3.6 4.3-.6 6.7-.2 3.3.5 6.6.1 10 .3 33.1 2.1 66.2 3 99.4 1 13.9-.8 27.9-.6 41.9-1.1 6.9-.3 13.8-1.2 20.8-1.8 2.7-.2 5.3-.3 8-.1 10 .8 11.4 3.2 6.9 12.3-4.7.1-9.2.2-13.6.2z"/><path fill="#121212" d="M885.8 1008.9c6.2 4 9 9.7 10.8 17 4 16.2 5.6 32.5 5.2 49.1-.1 5.1-1.3 10-2.6 14.6-3.1 10.4-11.7 12.8-20 5.7-10-8.6-17.6-18.6-20-32.3-2.5-14.2-3.2-28.2.5-42.2 2.1-7.9 6.1-14.8 12.6-19.8 5.4-4.1 9.9-2.1 11.9 4.9-10.1 1.5-12.9 8.7-14.8 17.6-2.3 11-2.3 21.9-.7 32.6 1.7 11.4 4.6 22.8 13.8 31.2 5 4.6 6.4 4.3 9.1-1.8 4-8.9 2.7-18.3 2.5-27.5-.4-13.5-4.7-26-11.8-37.4-4.2-6.4-4.2-6.9 3.5-11.7z"/><path fill="#0F0F0F" d="M668.5 962c1.3-4.2 1.3-8.2 2.9-12 5.3-12.9 11.6-25.3 17.8-37.8 9.6-19.2 23-35.5 36.5-51.7 12.5-15 26.9-28.6 43.2-39.6 2.7-1.8 5.8-3.2 8.9-4.3 3.6-1.3 8.4 1.1 9.7 4.6.9 2.4-.6 3.4-2.5 4.5-17.7 9.8-33.8 21.9-47.5 36.8-14.1 15.3-28.7 30.4-39.2 48.6-8 13.8-15.3 27.8-20.2 43.1-.9 2.8-2.2 5.5-1.9 8.7.2 2.3.2 4.9-3.2 4.9-3.3 0-4.8-2.2-4.5-5.8z"/><path fill="#D1151E" d="M851.1 889.8c3.1-2 6.1-4.1 9.3-5.9 2.5-1.3 5.6-1.5 7.2 1 1.6 2.5 0 5-2.3 6.7-4 3-7.9 6-11.9 9.1-1 .8-2 1.7-1.9 3.3 2.4 2.6 4.1-.1 5.9-1 2-1.1 3.7-1.6 5.2.4 1.3 1.7.2 3.1-.9 4.4-4.9 5.5-10.2 10.5-14.5 16.4-1.2 1.7-3.7 3.8-6 2.4-2.1-1.3-2.1-4-1.2-6.3.2-.6.4-1.3.5-1.9.5-.8 1-1.6 1.5-2.5.8-.4 1.9-.6 2.5-1.2 1-1.1 2.5-2.4.9-3.9s-2.8-.1-3.7 1.2c-.5.8-.9 1.7-1.3 2.5-.6.7-1.1 1.4-1.7 2.1-6 3.7-9.1 10-13.7 15-1.6 1.8-2.8 5.1-6 3.9-3.2-1.2-1.3-4.6-1.7-6.9.3-.2.5-.5.4-.9 2.4-3.6 4.8-7.3 7.3-10.9 3.7-5.3 10.1-8.3 13-14.4 1.6-.9 4.2-1.5 2.9-3.9-1.2-2.2-2.5-.5-3.2 1-5.3 4.8-11 9.3-14.2 15.9-3.1 3-6.7 5.6-7.6 10.3-.5.4-.7 1-.5 1.6-5.8.9-10.5-2.6-8.1-6.4 4.8-7.3 3.6-16.1 7.6-23.5 3.1-5.6 7.7-8.6 12.4-12 1.1-.8 3-1.6 3.6-.6 3.8 6.1 5.8.8 8.1-1.2 3.5-3 5.8-7.5 11.1-7.8 1.9-.1 4.1-1 5 1.6.6 1.6.2 3.2-1.3 4.4-1.8 1.5-3.3 3.2-5 4.8-2 1.5-5.5 2.9-2.8 5.8 2.2 2.2 3.8-.8 5.1-2.6z"/><path fill="#0F0F0F" d="M3.9 755.2c4.7.3 5.4 4.2 5.4 7.2.1 6.1 1.4 12 3 17.6 6.7 23 14.4 45.7 29.5 64.7 8 10.1 16.1 20.5 29.5 24.3 1.9.5 4.2 1.5 3.8 3.8-.4 2.3-2.5 3.9-5 4.4-2.4.4-4.7-.2-6.6-1.7-13.4-10.7-27.8-20.3-37.8-34.7-11.4-16.4-17.4-34.9-21.6-54.1-1.8-8.1-2.8-16.3-3.9-24.5-.5-3.2-.2-6.2 3.7-7z"/><path fill="#0B0B0B" d="M797.3 1116.5c.9 9 .6 9.9-7.4 9.2-13.5-1.1-33.4-12.7-37.9-30.6-5-19.9-1.3-38 9.5-55 3.3-5.2 7.6-9.2 12.8-12.3 2-1.2 4.5-1.5 6.3.9 1.8 2.4-.5 3.6-1.6 5-9.1 11-14.4 23.7-16.6 37.7-2.7 17.1 5.2 30.2 16.3 41.9 3.1 3.3 9.7 4.1 18.6 3.2z"/><path fill="#F9F9F9" d="M885.8 1008.9c-7.7 4.8-7.6 5.3-3.6 11.7 7.1 11.4 11.4 23.9 11.8 37.4.2 9.2 1.5 18.6-2.5 27.5-2.7 6.1-4.1 6.4-9.1 1.8-9.2-8.4-12-19.8-13.8-31.2-1.6-10.7-1.6-21.7.7-32.6 1.9-8.9 4.6-16.1 14.8-17.6.5 1 1.1 2 1.7 3z"/><path fill="#0F0F0F" d="M724.2 1025.8c4.5-.7 8 .8 9.2 5.4 3.2 12.2 3.9 24.7 2.8 37.2-.9 9.8-4.8 14.3-10.6 14.8-5.9.5-13.1-5.4-15.7-12.9-1.8-5.1-2.1-10.4-2.3-15.6-.2-5.9.4-11.9.5-17.9 0-6.2 2.5-11.6 5.5-16.8 1.9-3.2 4.4-4.9 8.1-3.1 4 1.9 3 5.1 1.7 8.3-2.1.7-3.1 2.4-3.3 4.5-.8 9.9-1.9 19.8 1.7 29.3 1.3 3.4 1.7 7.5 6.5 9.9 1.6-6 1.2-11.4.7-16.9-.8-9-4.5-17.3-4.8-26.2zM923.3 965.4c.2-6.9-.8-13.9 2.3-20.6 1.3-2.9 2.2-6 6.1-4.7 3.2 1 2.7 3.9 2.3 6.7-3 18.6 2.3 35.8 9.4 52.6 3.4 8 9.2 13.7 17.1 17.2.6.3 1.2.6 1.8.8 3.5 1.3 7.2 2.8 6.7 7.3-.4 3.4-5.5 4.1-11.3 1.6-16.3-7-26.6-19.4-31.6-36.1-2.3-8.1-2.7-16.5-2.8-24.8zM708.8 963.6c-2.5 13.3-4.5 26.8-12.8 38.8-4.9 7.1-9.3 14.4-15.9 20.1-4.2 3.5-9.1 5.5-14.6 5.2-1.3-.1-2.6-.5-3.3-1.8-1-1.8-.3-3.2 1-4.4 2.2-2 4.5-4 6.8-5.8 15-11.6 23.1-27.7 29.4-44.9 1.1-3 .6-6.5.9-9.8.2-3.2 1-6.1 5.1-5.8 4.1.3 2.4 4.1 3.4 6.2.2.5 0 1.3 0 2.2z"/><path fill="#121212" d="M715.4 1137.6c-9.3-.3-14.5-5-20.1-8.1-3.8-2.1-4-8-5.7-12.3-.6-1.5-.2-3.2 1.5-4.3 1.9-1.2 3.1 0 4.2 1.2 2.4 2.7 4.6 5.7 7 8.3 4.8 5.2 8.6 6 14.8 2.4 5.8-3.3 10.5-8 14.5-13.4 1.9-2.6 4.5-6.2 7.7-3.4 2.9 2.5.7 6.2-1.8 8.7-5.4 5.4-9.1 12.3-15.5 16.8-2.6 1.8-5.1 4.3-6.6 4.1z"/><path fill="#FFF" d="M1178.1 1943.5c4.4 0 8.9-.1 13.3-.1.6.4.7.9.3 1.5-4.5 1.6-9 1.5-13.6.6v-2z"/><path fill="#FEFEFE" d="M465.6 872.7c-8.3 1.8-15.7 3.4-23.1 5.1-2.6.6-5.2 1.3-7.6 2.5-8.5 4-10.9 9.6-9.3 19 3.8 22.1 2.9 44.2-1.9 66.1-2.7 12.2-9.4 22.7-15.9 33.1-3.8 6.1-10.4 9-16.8 11.7-9.5 4-12.1 9.6-10.3 19.7 4.1 23.2 15.4 41.3 35.8 53.6 4.8 2.9 10.2 4.5 15.7 6.9-2.5 8.3-4.7 16.6-7.5 24.6-5.5 15.6-9.2 31.7-12.7 47.9-3.8 17.5-8.9 34.7-13 52.1-3.5 14.7-7.7 29.4-8.8 44.6-.1 1.7-.4 3.3-.7 4.9-2.1 10.1-2.2 10.6-12.7 8.9-26.1-4.1-51.6-10.5-76.2-20.6-31.8-13-53.8-37.1-74-63.1-14.2-18.3-25.2-38.9-32.8-60.9-4-11.6-5.5-23.6-6.4-36-1.9-25.9 3.8-50.6 11.3-74.7 4.7-15.2 13.3-29.1 22.6-42.6 12.8-18.6 29.2-33.4 43.5-50.4 3.3-3.9 7.5-6.5 11.9-8.8 3.2-1.7 4.3-3.9 3.9-7.2-.4-3-.3-6-1.1-8.9-7.7-29.1-3.9-57.2 7.3-84.6 1.9-4.5 4.8-8.9 8.3-12.3 10.9-11 21.8-21.8 36.5-28.6 13-6 26.7-9.8 40.1-14.3 3.7-1.2 7.5-2.4 11.6-2.6 9.5-.5 14.6 3.7 14.9 13.3.2 5-1.5 9.8-2.9 14.5-.7 2.2-1.1 4.6-1.9 6.7-1.3 3.2-.6 4.7 3 5.6 14.8 3.8 24.5 13.6 31.4 26.8.3.6.8 1.2.9 1.8 1 9.6 5.4 13.2 15.8 14.2 10.5 1 15.9 11.1 19.3 20.9.7 3.2 1 6.9 1.8 11.1zm-152.7 88.4c-3.2-4.5-4-9.9-7.7-13.8-5.9-6.2-11.5-12.7-15.6-20.4-1.4-2.6-3.3-5.2-6.5-5.6-4.1-.4-2.2 4-4 5.6-.5.4-1 .8-1.6 1.2-4.7 2.9-4.1 6.4-2.4 11 4.5 12.3 13.8 20.8 22.7 29.6 2.3 2.3 5.6 5.8 8.1 2.9 2.6-2.8 4.9-6.7 7-10.5z"/><path fill="#C5BD85" d="M330.8 697.7c-3.3-1.8-3-7.6-7.9-7.9-9.3-.5-18.7-2.7-27.5 1.7-12.2 6.1-20.1 15.9-23.4 29.4-1.1 4.7.6 8.3 3.3 12 4.7 6.7 4.6 6.9-.9 12.3-13.8 13.5-25.3 28.9-36.9 44.4-1.2 1.6-2.3 3.3-3.5 4.9-2.7 3.7-5.7 4.3-10.3 2.6-16.9-6.4-30.3-17.7-42.5-30.6-20.4-21.6-34.7-46.9-42.4-75.7-2-7.3-4.6-15.3-3.5-22.4 1.1-7.4 9.7-11 15.4-15.7 27.4-23.1 54.2-46.7 79.2-72.4 14.1-14.5 28.5-28.7 42.4-43.4 5.1-5.5 9.1-12 16.3-17.1 3.4 16.1 7.9 31.1 13.1 45.8 3.8 10.7 8.8 20.6 15.9 29.5 11.4 14.5 24.4 27.3 40.6 36.4 6.9 3.9 14 7.4 21.1 11.1.6.3 1.2.6 1.8.8 2.5.8 4.7.3 5.8-2.3 1.2-2.7-.2-4.6-2.6-5.5-16.3-6.4-29.9-17.1-42.9-28.3-22.6-19.4-35.1-44.6-41.1-73.4-1.6-7.6.5-15.1.5-22.7 0-4.3 3.9-4.6 7.5-4.2 8.1 1 15.9 3.7 22.2 8.3 14.1 10.5 27.8 21.6 39.8 34.4 14 15 23.7 32.8 29.5 52.5 2.1 7.3 3.8 14.8 5.4 22.2 1.1 5 .7 8.7-4.6 12.4-9.2 6.4-17.5 14.3-25.5 22.3-12.5 12.3-27.7 21.9-38.8 35.8-1.3 1.5-3.1 2.8-5.5 2.8z"/><path fill="#C3BB83" d="M281.5 721c.3-5.3 2.8-9.6 6.6-13 3.2-2.9 6.7-5.4 10.7-7.2 12.6-5.6 15.3-4.8 22.1 6.9 5.4 9.2 11.6 17.8 17.8 26.3 2.4 3.2 4.7 6.4 6.9 9.8 5.5 8.7 5.4 8.6-4.1 13.2-7.4 3.6-14.8 7.5-22 11.5-3.1 1.7-5.2 1.9-7.4-1.4-9.2-13-18.7-25.8-27.9-38.8-1.5-2-2.9-4.4-2.7-7.3zM478.5 910.4c-16.6 1.3-26.8 11.7-37.6 23.7-1-6.8-2-12.5-2.7-18.2-.6-4.9-.3-10-1.5-14.8-2.5-10.4-3.6-8.9 7.6-14.8 9.6-5 13.6-4.2 20.6 4.1 5 6 10.1 11.9 13.6 20zM483.9 916.2c-3.9 15.2-7.8 28.7-21.6 36.5-2.4 1.3-4.7 2-7.3 2.7-3.6 1-7.3 2.9-9.6-1.4-1.9-3.4-2.7-7.3-.5-11.3 7.3-13 16.9-22.9 32.6-25 1.6 0 3.1-.6 6.4-1.5zM194.1 593.7c7.1-12.5 16.8-22.3 29.6-28.9l1.9 1.9-29.5 28.9c-.7-.6-1.3-1.2-2-1.9z"/><path fill="#FFF" d="M1682.1 1670.2l.7-.7c.2.4.5.9.6 1.3 0 .2-.4.4-.6.7-.3-.5-.5-.9-.7-1.3z"/><path fill="#F2D92A" d="M924.5 9.6c2.2 6.2 1.7 10 .4 13.3-5.2 12.7-6.9 26.3-10.6 39.3-3.6 12.4-6.6 25-12.1 36.8-2.3 4.9-2.6 8.6 3.3 11.1 13.4 5.5 23.2 16.3 35.2 23.9 11.5 7.3 19.5 17.8 27.5 28.4.8 1 1.5 2.2 1.1 4.1-5.3 3.5-11.8 2.9-17.9 3.1-17.2.4-34.4.2-51.6.1-4 0-7.9-.9-11.8-1.7-12.8-2.5-18.7.9-15 16.3 1.6 6.8 2.4 13.7 3.4 20.5 1 6.8-.4 13.1-.4 19.7-.1 10.3-.4 20.6-.6 30.9-.1 2.9.4 6-2.1 8.1-2.6.1-3.9-1.7-5-3.2-10.1-14-21.2-27.2-28-43.3-3.8-9.1-7.5-18.3-11-27.6-2.5-6.6-5.6-12.8-9-18.8-3.8-6.8-7.2-8-15-5.8-22 6-44.1 12-65.7 19.5-3.7 1.3-8.2 3.2-11.1-.2-2.4-2.8-.9-7.2.6-10.4 6.6-14.4 16.1-26.7 28.2-36.8 5.1-4.2 10.6-7.9 15.5-12.5 1.7-1.6 3.6-3.1 5.6-4.1 8.1-4.2 8.9-5.5 7.2-14.1-.6-2.9-1.1-5.9-2.4-8.6-8.9-19.7-9.8-41.1-13.1-61.9-.4-2.3-.1-4.7 0-7 .3-7.8 3.3-9.4 10-5 10.9 7 22.6 12.4 33.7 18.9 11.4 6.6 21.9 14.9 32.7 22.6 7 5 9.6 5.3 15.3-.7 8.9-9.4 18.7-17.8 28-26.8 10.4-10.1 23.3-17.2 34.7-28.1z"/><path fill="#F1D829" d="M589.3 365.1c-14-10.2-26.2-18.8-38-27.8-11.1-8.5-22.4-16.6-34.1-24.3-4.7-3.1-9.7-3.8-15.1-1.6-3.8 1.5-7.1 3.5-10.5 5.6-18.8 11.3-35.6 25.3-53.3 39.7-2.1-7.8.2-14.6 1.5-21.1 2.4-12.6 4.1-25.6 13.2-36 3.5-4 5-9.3 6.6-14.4 2.2-6.7 1.3-9.2-4.7-13.4-11.6-8.2-23.1-16.6-36.2-22.4-.8-.4-1.4-1.2-3-2.7 11.4-2.5 22-4.3 32.8-5 12.2-.9 24.4-1.3 36.7-1.9 5.5-.3 9.1-2.4 11.1-8.1 3-8.8 6.9-17.2 10.3-25.9 3.7-9.7 10-17.8 16.3-27.2 8.2 10.7 12.6 22.2 14.6 34.7 1.4 8.2 2.9 16.3 3.9 24.5.8 6.3 4.5 9.2 10.2 10.7 5.9 1.5 11.9 1.1 17.9 1.2 13.8.3 27.7-.9 41.9 2.2-3.2 5.5-7.2 9.9-11.4 14-2.6 2.5-5.4 4.9-8.2 7.3-16.2 14.3-16.7 16.7-11.6 37.4 3.4 13.8 5.7 27.8 7.2 42 .3 3.5 1 6.7 1.9 12.5zM1074.8 249c5.6 4.7 8.2 9.4 10.8 14 7.5 12.9 14.9 26 22.4 38.9 4.9 8.5 8.6 8.6 18.1 6 17.1-4.8 33.9-11.6 52.2-10.6 4.7.3 4.7.2 10.9 3.9-4 12.4-13.5 21-21 31-4 5.3-8.5 10.2-12.9 15.2-5.2 5.9-5.1 9.5 1.3 13.8 12.3 8.1 22.9 18.1 33 28.7 3.5 3.7 6.1 7.6 6.9 13.7-22-5.5-43.9-6.8-65.2-11.1-2.3-.5-4.6-.7-6.9-.9-8.7-.6-7.9-.3-10.5 7.7-5.7 17.6-7.5 36.4-16.3 53.1-1.3 2.4-1.5 6.5-5.5 6.1-3.6-.4-5.3-3.1-6.6-6.6-6.9-18.6-8.5-38.1-9.2-57.7-.2-5.3.1-10.7-.1-16-.3-7.4-1.4-8.8-8.9-11-4.1-1.2-8.3-2.6-12.5-3-11.7-1.3-22.1-6.8-33.2-9.8-3.5-1-6.7-2.9-8.1-7.2 2.2-3.5 6.4-4.1 9.9-5.3 13.2-4.3 26.6-8.2 39.9-12.2 8.3-2.5 8.1-2.5 8.4-10.9.2-4.7-1-9.2-1.3-13.8-.9-13.7.9-27.2 2.8-40.6.4-4.7.6-9.3 1.6-15.4z"/><path fill="#F9F9F9" d="M838 902.2c-2.8 6.1-9.2 9.1-13 14.4-.5-.5-1-.9-1.6-1.4 3.3-6.6 9-11 14.2-15.9.2 1 .3 2 .4 2.9z"/><path fill="#F9F9F9" d="M815.9 925.5c.9-4.7 4.5-7.3 7.6-10.3.5.5 1 .9 1.6 1.4-2.4 3.6-4.8 7.3-7.3 10.9-.6-.6-1.3-1.3-1.9-2z"/><path fill="#FFF" d="M851.1 889.8c-1.3 1.8-2.9 4.8-5.1 2.4-2.6-2.9.9-4.3 2.8-5.8.8 1.2 1.5 2.3 2.3 3.4zM840.5 914.4c.4-.9.7-1.8 1.3-2.5.9-1.3 2.1-2.7 3.7-1.2 1.6 1.5.2 2.9-.9 3.9-.6.6-1.7.8-2.5 1.2-.5-.5-1.1-.9-1.6-1.4zM838 902.2c-.1-1-.2-1.9-.3-2.9.7-1.5 2-3.2 3.2-1 1.3 2.4-1.3 3.1-2.9 3.9z"/><path fill="#FFF" d="M838.8 916.5c.6-.7 1.1-1.4 1.7-2.1.5.5 1.1.9 1.6 1.4-.5.8-1 1.6-1.5 2.5l-1.8-1.8zM815.9 925.5c.6.7 1.2 1.4 1.9 2 .1.4 0 .7-.4.9-.7-.5-1.4-.9-2-1.4-.1-.5 0-1.1.5-1.5z"/><path fill="#F9F9F9" d="M724.2 1025.8c.4 8.9 4.1 17.2 4.8 26 .5 5.5.9 11-.7 16.9-4.7-2.4-5.2-6.4-6.5-9.9-3.6-9.6-2.5-19.5-1.7-29.3.2-2.1 1.1-3.8 3.3-4.5l.8.8z"/><path fill="#0F0F0F" d="M312.9 961.1c-2 3.8-4.4 7.6-7 10.6-2.5 2.9-5.8-.7-8.1-2.9-8.9-8.8-18.2-17.3-22.7-29.6-1.7-4.6-2.3-8.2 2.4-11 .6-.3 1.1-.8 1.6-1.2 1.8-1.5-.1-6 4-5.6 3.2.3 5.1 3 6.5 5.6 4.1 7.7 9.7 14.2 15.6 20.4 3.6 3.8 4.4 9.2 7.7 13.7zm-19-13.8c0-.9-.3-1.6-1.3-1.9-.2 0-.6.3-.6.6-.1 1 .4 1.6 1.2 1.9.1 1.6.5 3.1 2.2 3.8.9 2.3 2 4.5 4.3 5.7.4.4.7.9 1.1 1.3.1-.4.5-1 .3-1.3-.3-.7-.9-.6-1.5.1 1.2-3.3-.8-5.1-3.2-6.7-.4-1.3-.5-3.1-2.5-3.5zm-5.8-5.9c.8.7 1.8 1.5 2.7 2.4.2-.6.7-1.2.6-1.7-.2-1.4-1.4-2.1-2.5-2.7-.3.6-.5 1.1-.8 2z"/><path fill="#C3BB83" d="M299.8 957.5c-2.3-1.3-3.4-3.4-4.3-5.7.3-.3.7-.6 1-.8 2.4 1.6 4.4 3.4 3.2 6.7l.1-.2zM288.1 941.4c.3-.9.5-1.4.7-2 1.1.6 2.3 1.3 2.5 2.7.1.5-.4 1.1-.6 1.7-.8-.8-1.8-1.6-2.6-2.4zM295.5 951.7c-1.7-.7-2-2.2-2.2-3.8l.6-.7c1.9.4 2.1 2.1 2.6 3.6-.4.4-.7.6-1 .9z"/><path fill="#C3BB83" d="M293.3 948c-.8-.4-1.4-1-1.2-1.9 0-.2.5-.6.6-.6.9.2 1.2 1 1.3 1.9-.1-.1-.7.6-.7.6zM299.7 957.6c.6-.7 1.2-.8 1.5-.1.1.3-.2.9-.3 1.3-.4-.4-.7-.9-1.1-1.3l-.1.1z"/></svg>