<svg viewBox="0 0 3130.6 2329.5" xmlns="http://www.w3.org/2000/svg"><path fill="#0F0E0D" d="M957.8 2102.9c.5 5.9 2 11.3 3.4 16.6 5.3 20.2 12.6 39.8 17.6 60.1 8.6 34.4 18.1 68.6 27.6 102.7 3.5 12.3 5 25.3 11.6 36.7 1.2 2.1-.2 3.4-2.4 4.4-8.3 3.7-17 5.7-26 5.8-11.3.2-22.7.1-34 0-8.4-.1-11.2-2.2-13.6-10.1-4-13.3-8-26.6-11.7-40-1.3-4.7-2.8-7.4-8.6-6.3-9.6 1.7-19.2-.4-28.7-2.1-7.3-1.3-12-4.9-14.1-13.2-7.6-29.3-12.2-59-15.4-89.1-1.6-15.1-5.4-30.1-8.6-45-1.3-6.2-2.1-12.5-2.7-18.7-.4-3.9-1.7-5.1-5.5-4.9-22.6 1.2-45.1 2.1-67.7 3.5-13.9.9-27.8 1.3-41.7 1.6-8.9.2-9.4.7-10.1 9.6-.6 7.6-1.3 15.4-.6 23 1 11.6-.9 23.1-1.2 34.6-.2 7.9.1 15.8.2 23.7.2 15.9-2.8 31.8-1.2 47.7.5 4.7-1.3 9.6 2.9 14 2.6 2.8-.5 5.5-3.8 6.2-13.6 3.1-27.2 6.3-41.3 5.6-3.9-.2-7.8-.9-11.8-.8-7.8.1-9.2-1.5-8.7-9.7.7-11.6 1.6-23.2 3.3-34.7 1.6-10.2 2.4-20.4 2.3-30.7-.1-16.3 1.6-32.4 3.8-48.6 1.5-10.8-.1-21.9 1.5-32.8.3-2.3.5-5.5-2.9-4.9-3.3.6-8.5-2.9-9.8 3.4-.8 4.2-1.8 8.5-2 12.8-.7 19.6-6.1 38.5-8.5 57.9-3.6 29.9-10.4 59.3-15.6 88.9-2.9 16.3-6.1 32.5-9.4 48.7-1.5 7.2-3.3 9.1-10.5 9.5-15.6 1-31.3 2.1-46.6-2-5.1-1.4-10-3.5-14.8-5.7-3.4-1.5-3-4.6-2.3-7.7 4.1-18.1 8.6-36 12.1-54.2 4.9-25 9.7-50.2 13.5-75.4 2.3-15.1 6-29.9 8.9-44.8 1.8-9.4 3.9-18.7 6-29-7.9-1.2-15.4-1.3-22.9-.7-6.6.5-13.3 1.3-19.4-2.5-3.3-2.1-5.4-4.5-5.3-8.8 0-5.1 0-10.1 2.7-14.5 7.6-12.5 15.6-24.5 26.3-34.8 12.6-12.2 27.9-16 44.4-17.1 21.2-1.4 42.3-2.6 63.5-3.8 6.5-.4 13.1.8 20.8-1.6-8.9-5.8-17.7-9.2-26.5-12.2-8.2-2.8-15.4-7.5-23.7-10.1-4.8-1.6-9.2-3.2-14-2.4-24.9 4.1-50.2 4.3-75.3 6.7-21.3 2.1-42.5 1.3-63.7 1.3-19.3 0-38.6-.3-57.9-.8-4.2-.1-7-.4-7.4 5-.3 4.3-3.6 6.1-7.7 6.3-2.6.1-5.3 0-8.7 0 .7 16.3 1.4 32.2 2.2 48 .3 6.9.8 13.8 1.1 20.7.1 2.7 1.1 4.3 4.1 4.5 6.5.4 12.5 3.4 19.4 3.2 9-.3 11.2 2.5 12.4 11.9 1.2 9.3 1.5 18.6.9 27.9-.5 7.6-2.3 14.7-11.1 16.9-3.1.8-3.3 3-3.4 5.3-.1 7.3-.1 14.6-.1 21.9.2 18.3.7 36.6.5 54.9-.1 7 1.5 13.9 1.4 20.8 0 3.7.3 7.3.1 11-.6 14.2-.6 14.7-13.6 18-6.2 1.6-9 3.6-8.8 10.4.2 6.1-4 10.2-10 12-5.1 1.5-10.4 2.2-15.7 2.6-12.2.9-24.5 1-36.7 3.1-3.7.6-7.2-.2-10.4-2.4-3.8-2.6-1.6-5.9-1.2-9 .1-.7 0-1.3 0-2-.2-11.5-.9-12.2-12.3-12.1-22.2.3-44.4 2.8-66.7 1.8-20.2-.9-40.3 0-60.4.9-15.5.7-31.3-.5-46.6 1.4-17.1 2.2-34.3 2-51.5 3.6-3.1.3-4.6 1.1-5.8 4.1-2.6 6.5-8.1 9.2-14.6 10.5-13.3 2.7-26.5 2.1-39.7-.2-8.3-1.5-9.5-3.7-10.7-15-2.8-1.4-5.9-.6-8.8-.9-7.3-.8-9.2-2.3-9.6-9.9-1.1-23.2-1.8-46.4-.2-69.7.7-10.2.2-20.5-.5-30.7-.5-6.3.2-12.6-.2-18.9-.2-3.9-1.2-5.7-5.6-6.3-9.9-1.3-10.3-2.4-12.6-12.3-2.7-11.5-1.4-23.1-.6-34.6.3-4.8 4.5-7.8 11.8-8.4 8.5-.7 17.1-1 25.7-1.1 4.2 0 6-.9 5.6-5.6-1-13 .9-25.8 3.6-38.5 1.3-5.9 3.9-10.1 8.8-13.7 20-14.7 40.1-29.4 60.8-43.1 11.3-7.5 21.6-16.5 32.5-24.5 12-8.9 24.3-17.3 36.2-26.3 3.8-2.9 7.8-3.2 12.2-3.1 12.7.3 12.6.2 13.9-12 .4-3.9 1.1-7.9 2-11.7 1.4-5.8 3.7-7.7 9.9-7.8 9.3-.1 18.6.4 27.8 1.5 4 .5 6 2.5 6.9 6 1.6 6.4 3.1 12.8 1.9 19.5-1.1 6.5-.6 7.6 6.2 8.3 10.5 1 21.1 1.2 31.8-.2 5.5-.8 7.6-3.4 7.4-8.5-.3-6.4.7-12.5 3.3-18.5 1.9-4.4 4.8-7.5 9.5-7.5 9.3 0 18.7.2 28 1.1 7.5.7 8.6 2.7 8.9 10.4.3 6.6 1.3 13.2 1.4 19.8 0 3.9 2 4.3 4.9 4.6 12.2 1.2 24.3 3 36.6 2.9 4.1-.1 6.3 1.1 7.9 5.5 2.3 6 3.6 12 3.7 18.3.2 6.7 3.4 9.9 9.1 13.7 16.9 11 35.6 8.5 53.8 9.4 18.6.9 37.2.1 55.8.3 13.3.2 26.6.5 39.8-2 1.9-.4 4-.3 6-.1 18.4 1.4 36.2-3.8 54.5-4.6.4 0 .8-.9 1.3-1.5-1.6-2.7-4.3-3.9-6.8-5.4-20.5-11.7-40-24.8-59.2-38.5-12.7-9.1-24.9-18.8-35.7-30.2-8.9-9.4-19-17.6-28.1-26.8-17.4-17.4-33.9-35.5-47.5-56.2-4.2-6.4-8.9-12.3-14-18-10.6-12.1-17.8-26.5-25.5-40.4-4.3-7.8-11.3-13.7-14.3-22.4-4.2-11.9-9.6-23.3-14.3-35.1-12.4-31.6-21.8-64-28.4-97.3-6.2-31.2-10.9-62.8-12-94.6-.9-25-2.8-50.2-.3-75.2 1.5-14.8 3.8-29.5 5.8-44.3 3-22 6.1-44 11.6-65.5 12.5-49 29.3-96.5 50.5-142.4 6.7-14.4 14.9-28.1 22.8-41.9 3.9-6.9 7.2-14.1 11.5-20.9 12.6-19.5 25.3-38.9 40.2-56.7 20.5-24.7 41.9-48.8 66-70.1 10.2-9 19.6-18.8 30.4-27 26.6-20.4 54.4-38.8 84.4-53.7 12.4-6.2 24.5-13.1 36.7-19.8 15-8.2 31.5-12.5 47-19.2 18.9-8.2 38.4-15.8 58.2-20.3 28.1-6.4 55.6-15.2 84.1-19.7 20.9-3.3 41.7-7.1 62.9-8.8 45.8-3.7 91.5-1.9 137.1 2.4 31.6 3 62.7 10.4 93.6 17.9 35.8 8.8 70.3 21.4 105 33.6 15 5.3 29.3 12.6 43.7 19.3 15 7 29.3 15.3 43.5 23.9 31.3 19.1 59.9 41.6 87 66.3 23.7 21.5 44 46.1 65.2 69.8 10.3 11.5 19.1 23.8 27.4 36.7.7 1.1 1.3 2.4 2.2 3.3 16.4 17.3 25.5 39.4 37.9 59.3 13.6 21.7 23.2 45.4 34 68.5 1.8 3.9 3.1 8.1 4.4 12.2 6.5 20.5 14 40.8 19.2 61.7 6.1 25 13.5 49.9 14.7 75.8 1.1 24.5 4.4 48.8 4.6 73.4.2 28.5-1.2 57.1-6.2 85.1-5.5 30.9-10.4 62-18.5 92.5-4.3 16.3-7.4 33-12.5 49.1-5.3 17.1-13.5 33.1-20.3 49.6-2.5 6.1-4 12.9-7.4 18.5-9.9 16.4-17.5 34.1-26.8 50.9-8.1 14.5-16.6 28.6-26.2 42.2-19.7 27.7-41.9 53.1-67 76.1-17.7 16.3-36.2 31.2-58.3 41.3-5.2 2.4-6.1 4.9-4.8 10.7 4.3 17.8 2 35.7-.7 53.4-2.8 18.4-7.2 36.5-15.2 53.4-.7 1.5-1.2 3.1-1.6 4.7-.4 1.3-.3 2.7 1 3.5 1.6 1.1 3.2.8 4.4-.7 2.5-3.1 5.1-6.1 7.4-9.4 8.3-12 16-24.3 21.6-37.9 8-19.5 23.2-19.3 36.7-15.4 14 4 24.4 13.3 34.1 23.4 11.6 12 18.3 26.8 22.5 42.7 2.6 9.6 5.1 19.1 6.9 28.9 4.5 25.4-7 44.2-24.1 60.8-17.4 17-39.2 26.9-60.4 37.9-24.2 12.5-49.5 22.5-74.8 32.2-16.9 6.5-34.7 10.9-52.8 14.1-14.7 2.6-29.6 3.4-44.2 7.2-7.8 2-16.1 2.1-21.1-6.5-2.5-4.2-5.3-2.7-8.5-1.3-9.4 4.2-18.6 8.7-28 13-29.2 13.1-59.6 22.4-90.6 29.4-19.7 4.5-39.7 8.2-59.8 9.6-10.5.7-21.1-.8-31.6-1.7-3.3-.3-6.3-2.2-7.4-5.9-.7-2.5-2-4.9-1.8-7.7 2.1-24.7-5-48-10.7-71.6-3.7-15.5-7.1-31.1-12.2-46.1-8.8-25.7-18.1-51.4-34.5-73.7-2.3-3.2-4.1-6.9-6-10.4-4.8-8.7-4.8-8.7-14.7-7.1-.8.4-2.1.6-3.7.9zm195.8-658.5c16.9-3.7 33.8-7.1 51.3-5.6 3.4.3 5.8-.9 7.2-4.1 2.8-6.7 7.9-7 14-5.4 7.7 2 15.5 3.9 23.5 4 7.8 0 9.6-.8 11.6-8 4-14.4 6.1-29.3 6.7-44.2.7-17-1.7-33.8-4.6-50.5-1.5-8.7-4.8-12.2-13.8-13-15.3-1.3-30.6-.4-45.5 3.7-7.4 2-13.1 6.3-16 13.7-1.2 3.1-2.7 6.1-4.4 8.9-16 26-28.3 53.1-28.5 84.5 0 3.6.3 9-5.4 10.5-2.9-2.1-2.4-5.2-2.4-8.2.1-4.6-.1-9.3.3-13.9.4-5-2.2-6.3-6.6-6.2-6.2.1-7.4.7-7.3 6.4.1 11.7-1.5 22.9-6.8 33.4-.4.8-.6 1.9.8 2.6 8.5-2.8 17.2-5.7 25.9-8.6zm45.3 328.3c-.7 2.4-2.9 3.4-4.7 2.6-5.5-2.7-8.4.4-11.3 4.1-1.6 2.1-3.4 4-5.3 5.9-18.4 18.9-40.4 33.3-61.2 49.1-12.6 9.6-26.1 18.2-39.8 26.4-21 12.6-42.8 24-64.1 36-25 14.1-51.1 25.4-77.8 35.3-32.3 11.9-64.8 23.5-98.1 32.5-13.4 3.6-26.7 7.8-40.3 10.7-12 2.6-24.1 4.4-36.1 7.1-18.7 4.2-37.7 7.1-56.5 10.8-9.9 2-20.3 1.5-29.7 5-.1 2.4 1.3 2.6 2.4 3.1 9.7 4.2 19.7 8 29.1 12.9 17.1 9 35.3 15.3 53.7 20.5 19.6 5.5 39.7 9.8 59.9 13.2 38.3 6.4 76.8 10.8 115.6 11.5 3.7.1 7.3.3 11 .2 3.7-.1 5.4 1.9 6.3 5.1 0 4.6-2.3 6.7-6.9 6.3-3.6-.3-7.2-1.2-10.8-1.5-27.7-2.7-55.6-4.5-83.1-8.7-36.7-5.6-73.4-11.5-109-22.9-5.5-1.8-11.4-5.1-17.3-4-13.6 2.5-27.2 1.3-40.8 1.4-17.9.2-35.6 3.4-53.6 2.7-8.8-.4-17.9.7-26.7 2.8-3.8 1-8.3 1.6-11.1 4-14.2 12-28.2 24.3-36.3 41.7-4.4 9.4-3.3 11.6 7.4 12 10 .4 20.1 1 30 .1 33.1-2.8 66.3-2.5 99.5-3 17.6-.3 35.3.1 52.9-.9 19.3-1.2 38.5-1.8 57.9-1.7 11 0 22 .2 32.9-.7 23.5-1.9 47.1-.6 70.6-.9 17.2-.2 34.3.3 51.6-.6.5-4.8-3.3-11.3 5.3-11.7 5.5 6.5 13.5 10.3 18.4 17.8 9.8 15 18.9 30.4 27.9 45.9 12.5 21.6 18.6 45.4 26.6 68.5 3.2 9.4 5.4 19.4 6.3 29.2 2 22.8 8.5 45.2 6.8 68.3-.2 3 1.2 3.8 3.9 4.3 6 1.1 11.9-.8 17.8-.4 24.5 1.6 48.3-4.2 72-8.6 24.7-4.6 48.6-13.2 72-22.6 17.5-7.1 33.7-17 50.6-25.4 16.7-8.3 32.3-18.2 47-29.5 11.4-8.8 19.7-19.4 16.8-35.3-2.1-11.4-2-23.1-4.8-34.5-1.6-6.6-6.2-11.7-7.9-18.2-.7-2.7-1.9-5.2 1.1-7 3.2-1.9 5.3.5 6.6 2.7 3.1 5.1 5.9 10.4 8.3 15.9 7.6 16.7 8.6 34.5 8.9 52.6.2 11.3-3.7 18.8-12 25.5-9.5 7.7-19.2 15.2-29.6 21.7-7.1 4.4-14 8.9-20.9 13.5-1.3.8-3 1.7-2 3.9.7 1.5 2.1 1.6 3.4 1.6 2.7.1 5.3.3 8 .1 18.2-1.3 36.4-3.1 54.1-7.8 32.1-8.6 63.6-18.9 94.1-32.4 24.7-10.9 48.4-23.5 69.5-40.4 10.1-8.1 19.4-17.2 23.2-30.4 2.5-8.7 2.9-17.3 1.7-26.3-2.3-17.2-5-34.2-14-49.4-10.6-17.8-24.4-31.7-45.2-36.3-12.5-2.8-18.7-.1-21.2 9.8-.5 1.9-1.5 3.7-2.3 5.5-6.4 15.7-14 30.8-23.7 44.7-4.8 6.9-10.6 12.7-16.9 18.3-3.3 2.9-6.6 2.7-10.1.8-4.6-2.5-6-6-4.1-13 2.2-8.3 4.8-16.6 7.9-24.6 10.3-26.1 13.1-53.2 11.5-81-.6-10-2.9-19.6-3.9-29.4-.8-8.3-.8-8.6 6.4-12.1 12.8-6.2 25.9-11.9 37.8-19.9 22.9-15.2 41.9-34.8 60.2-54.8 13.1-14.3 24.2-30.7 35.3-46.7 10.9-15.8 21.2-32.1 30.9-48.6 9.6-16.3 16.5-34 24.1-51.3 15-34.4 28-69.5 36.7-106.1 3.6-14.8 8-29.5 10.4-44.5 3.1-19.3 7-38.4 9.4-57.8 2.5-20 5.8-40.2 4.6-60.4-1.1-18.8-1.3-37.7-3.5-56.5-2.3-20.1-5-40.1-8.4-59.9-4.7-27-11.7-53.7-21-79.5-10.5-29.3-22.9-57.9-36.4-86.1-10.4-21.7-25.9-40-37.9-60.6-4.5-7.7-9.6-15-14.8-22.2-15.5-21.6-33-41.5-51.2-60.9-9.9-10.6-18.9-22.2-29.9-31.8-13.8-12-26.7-25.2-41.3-35.9-17.9-13.1-36.2-25.8-55.6-36.9-15.2-8.7-30.3-17.7-46.2-25-24.3-11.2-49.7-19.9-75.1-28.5-29.6-10.1-59.9-17.2-90.4-23.8-22.6-4.9-45.8-7-68.7-10.8-34.3-5.7-68.8-3.8-103.3-3.4-8.6.1-17.3.5-25.8 1.5-19.4 2.1-38.8 5.2-58 9-16.9 3.4-34 6.1-50.5 10.8-15.3 4.3-30.8 7.6-46 12.5-15.7 5.1-31.6 9.5-47.1 15.4-21.1 8.1-40.8 19.1-61.7 27.7-10 4.1-20 9-29.3 14.5-8.8 5.3-17.4 11-26.3 16.1-17.8 10.3-34.8 21.9-50.6 35.1-7.1 5.9-13.1 13.3-20.3 18.8-28.6 21.8-49.5 50.9-73.2 77.3-11.4 12.7-19.8 28-29.7 42-20 28.2-36.2 58.6-50.1 90.2-10.2 23.2-17.2 47.5-26.1 71.1-7.2 19-11.3 38.8-15.1 58.7-2.8 14.6-6.1 29.2-8.2 43.9-2.8 19.3-5.8 38.6-6.7 58.2-1.6 35.1-4.3 70.3 3 105.1.2 1 .4 2 .4 2.9-.5 15.7 2.8 31.2 6.3 46.1 5 21.2 9.6 42.6 15.7 63.6 5.5 18.9 11.4 37.7 20.1 54.9 9.1 17.9 15.7 37.4 28.7 53.4 3.7 4.6 6.2 10.2 9.6 15.1 9.2 13.4 17.3 27.5 28.1 39.7 7.3 8.2 15.2 15.8 22.1 24.3 17.2 21.2 36.7 40.2 57.2 58.1 27.8 24.3 57.3 46.2 90.5 63 11.8 5.9 23.2 11 36.8 8.4 22.8-4.3 45.6-8.5 68.4-12.2 20-3.2 39.4-8.6 59.1-13.2 21.6-5 42.9-11.1 63.9-18.2 17.8-6 35.9-11.7 53.4-18.3 33.5-12.6 65.7-28.4 97.8-44.1 28.2-13.8 55.7-28.9 79.7-49.7 11.3-9.8 23.5-18.5 35.7-27 10.2-7.1 18.6-16.1 28.2-23.8 9.8-7.8 17.4-17.1 24.3-27.7 10.8-16.6 22.1-32.9 31.5-50.4 4.1-7.7 3.6-8.5-4.6-10.1-3.6-.7-7.1-2.2-10.7-2.5-7.8-.7-12.7-5.2-16.4-11.5-2.8-4.8-5.8-9.4-9.3-13.7-9 4.5-17.8 8.6-27.3 10-16 2.5-29.7 8.4-38.7 22.6-.2.3-.5.5-.7.7-11 11.6-23.5 21.6-36.4 30.9-17.2 12.4-35 24.2-55.3 31.2-20.2 6.9-40.7 11.7-62.2 13.2-18.7 1.3-37-.4-55.5-2.2-11.7-1.1-22.4-5.9-33.7-8.4-9.2-2-17.8-5.2-26.2-9.2-5.1-2.4-10-5.2-15.3-7.2-24.2-9.2-44.5-24.5-64.4-40.5-18.5-14.9-32.3-34.3-48.9-51-9-9.1-15.4-19.9-22.4-30.3-1.4-2.1-2.7-4.6-.2-6.1 2.4-1.4 5.8-1.9 8 1 1.4 1.8 2.3 4 3.3 6.1 2.6 5.4 5.9 10.3 9.5 15.2 10.7 14.1 23.6 26 35.6 38.9 16.7 18 36.4 31.8 57.5 44 20.2 11.7 42.1 19.7 63.7 28.3 12.4 4.9 25.4 7.9 38.5 9.5 21.8 2.6 43.6 1.8 65.6.3 20.1-1.4 38.3-7.9 55.8-16.4 34.3-16.6 62.9-40.6 86.2-70.8 3.6-4.6 7.5-6.8 13.2-7.7 25.4-4 48.3-13.6 68.1-30.4 11.5-9.8 16.7-23 20.6-36.6 1.4-4.9 3-7.5 7.3-9.1 2.2-.8 4.6-1.4 6.3-2.9 3.5-3 10.7-1 11.3-7.8.4-5-.6-9.8-2-14.6-1.3-4.9-3.6-9.4-7-13.1-4.5-4.9-3.7-9.3-.6-14.4 2.8-4.5 6.1-8.7 7-14.1.5-2.9.2-4.8-2.5-6.7-13-9.3-27.6-15.8-41.5-23.3-2.1-1.1-5.9.4-6.3-3.4-.4-3.9 3.6-4.4 5.8-6 1.8-1.4 4-2.2 6.5-2.3 13.2-.7 26.4-3.3 39.5.8 3.7 1.2 5.2-.5 5.2-4.6-.1-10.4-6.9-25.7-21.2-29.4-26.3-6.8-51.9-4.6-77.1 5.2-6.6 2.5-12.3 6.5-18.2 10.1-10.2 6.1-20.9 11.6-29.8 19.6-18.9 17.2-37.5 34.7-57.1 51.2-15.7 13.3-32.9 23.4-52.1 30.1-6.2 2.1-13 4.3-19.3 3.8-14.7-1.3-29.9-1.8-42.6-11.3-1-.8-2.5-.9-3.6-1.5-21.6-10.3-36.7-26.8-46-48.7-3-7-3.6-14.8-6.7-21.9-1.4-3.3-3.6-9 1.3-10.6 6.1-2 6.1 4.2 7.2 8.1 8 28.3 22.3 51.7 50.1 64.6.6.3 1.1.7 1.7 1 8.4 4.1 16.8 7.4 26.4 8 22.2 1.4 41.9-5.6 60.4-17 18.3-11.2 33.5-26.2 48.5-41.1 12.3-12.2 25.2-23.6 38.9-34.2 9.7-7.5 14.4-16.9 14.9-28.7.4-8.6.1-17.2.4-25.8.4-9.6 3.7-12.5 12.7-12.8 4.9-.1 10.8 2.8 14.5-.2 4-3.2 3.9-9.6 5.5-14.6.2-.6.5-1.3.6-1.9 4.5-16.2 13.6-30.2 20.3-45.4 5.7-12.7 14-21.8 28.4-25.5 13.2-3.4 26.3-8.1 39.8-7.2 22.8 1.6 29.1 4.2 33.5 25.5 2.6 12.5 1.9 25.1 2.4 37.6.7 18.6-1.5 37.2-6 55.3-4.9 19.7-9.7 24.8-33.2 17.9-4.9-1.4-9.9-2.7-15.2-2 .2 1.2.2 2.2.5 2.4 2.3 1.3 4.7 2.3 7 3.6 15.2 8.3 22.3 21.8 22.6 38.4.2 10.4-4.7 12.2-12.3 11.1-5.9-.9-11.9-1.8-17.8-.1-2.1-.3-4.2-.7-6.3.7 1.9 2.1 3.7 3.3 6.1 3.6 4.8 2.9 9.7 5.6 14.4 8.7 8.6 5.5 10.9 11.9 8.9 22.1-.7 3.7-2 7-3.4 10.3-1.9 4.7-2 8.9.8 13.2 5.3 8.1 7.6 17.3 9.8 27.3 8.2-4.7 16.9-4.6 25.4-4.5 16 .2 21 4.3 23.9 17.3 3 13.5 5.1 27.4 5 41.4-.2 19-4.4 37.5-8.2 56-1.6 8-3.8 10.2-11.6 11.2-8.2 1.1-16.5 2.2-24.6-.1-5.5-1.6-8.7.1-11.3 4.9-9 17.1-20.6 32.5-32.8 47.4-4.7 5.8-9.1 12.5-16.8 15.2-2.5-3.2-2.2-5.9 1-8.6 3-2.6 6.2-5.1 8.7-8.2 15.7-18.9 30.6-38.4 40.9-60.9 1.6-3.6 3-4.4 6.7-2.9 5.9 2.4 12.2 3.5 18.5 3.3 9.2-.3 11.5-2.5 13.2-11.3 1.3-6.8 2-13.8 3.3-20.6 3.8-20.3 2-40.4-1.6-60.5-1.6-9-5.1-12.2-14-12.8-9.3-.6-18.4-.7-27 4.8-6 3.8-12.8 6.8-20.2 7.5-4.7.5-7.4 3.4-9.1 8-6.4 18-14.7 34.9-30 47.3-1.3 1-2.2 2.5-3.3 3.8-1.2 1.4-1.1 2.9-.6 4.6 4.9 16.1 17.2 24.3 33.9 22.4 5.7-.6 6.2-.1 6.1 5.3-.1 2.8-1.3 5.1-2.1 7.6-2.1 6.6-6.3 12.2-9.3 18.4-6.2 12.8-13.4 25.1-22.3 36.3-7.5 9.4-7.5 9.4 1.5 16.9.4.3.8 1.4 1.3 2.2zm-837.4 504.5v-.4c20 0 39.9.1 59.9 0 8.7 0 8.7-.2 9.3-8.6 1.9-27.6-.4-55.1.7-82.7.4-9.5-.8-19.1-.2-28.7.6-9.8.6-10 10-12.8 3.4-1 4.8-2.6 5.1-6.1.8-10-1.4-19.9.7-29.9.4-1.9-1-3.4-2.8-3.3-7.5.4-14.4-3.1-21.7-2.9-11.9.4-23.7-.3-35.6.2-24.5 1.2-49.2 1.2-73.8.5-28.3-.8-56.4 1.7-84.6 3-31.1 1.4-62.3 2.7-93.5 3-28.6.3-57.2 1.3-85.8 2.6-10.9.5-21.8 2.3-32.8 2.1-4.6-.1-6.6 1.9-6.5 6.6.1 6.7.5 13.3 1.7 19.8 1.6 8.8 1.4 9 10.1 10.2 4 .5 5.6 1.9 5.6 6.3.5 39.9.9 79.7 3.3 119.5.3 4.4 1.7 5.8 5.9 5.7 15.9-.4 31.8 2 47.8 1.3 8.3-.4 16.6-1 24.9-1 30.6-.3 61.2-.2 91.8-2.1 33.9-2.1 67.9.3 101.8-1.9 19.4-1.4 39.1-.4 58.7-.4zm-135.8-352.5c-4.2 2.1-3.9 5-4 7.5 0 5.3-.9 10.6-1.5 15.9-.6 5.3-3 7.8-8.4 7.4-3-.2-6 .2-9-.2-7-.8-12.9 1.2-18.7 5.1-14.4 9.6-27.8 20.5-41.7 30.6-24.5 17.7-49.2 35.1-73.3 53.2-7.3 5.5-11.3 11.5-12.3 20.3-1.1 9.7-1.5 19.3-.3 28.9.4 3.5.8 7.8 5.9 7.9 6 .2 11.8 1.6 17.8 1.7 19.9.1 39.8-1.6 59.7-1.9 26.9-.4 53.8-.8 80.7-2 16.9-.8 33.8-3.1 50.7-3.4 42.9-.8 85.7-1.2 128.6-2.4 8-.2 8.7-.7 7.8-8.6-2.3-21.4-2.8-43-3.8-64.5-.4-8.5-.4-8.4-8-11.4-3-1.2-9-.9-6.9-6 1.6-3.9 5.9-.1 8.8.5 6.8 1.5 13.5 3.7 20.5 4 1.7.1 3.5-.2 4.1-2.1.7-2.3-.6-3.8-2.4-4.8-1.2-.6-2.6-.7-3.7-1.3-5.9-3.3-12.6-4.2-18.6-7-2.6-1.2-6.8-2.2-5-5.9 1.5-3 4.6.1 7.1.4.5.1 1.1-.4 2-.8-.5-6.1-1-12.3-1.4-18.5-.2-3.2-1.9-4.3-5-5-4.3-1-8.5-1.3-12.8-1.4-9.6-.1-19.3-.1-28.9-.2-7.5-.1-7.6-.2-7.5-8l.3-22c0-2 0-4-2.1-5.1-6.6-3.4-13.5.4-13.7 7.8-.2 6.3-.2 12.6-.2 19 0 2.6.8 6.1-2.8 6.4-4.7.4-2.9-4.1-3.7-6.6-.4-1.5.1-3.3.1-4.9.1-6 .2-12 .2-17.9 0-1.2.1-2.8-1.4-3.4-2-.9-3 .6-4.1 1.8-1.7 1.8-2 4.1-2.1 6.5-.2 6-.9 11.9-.6 17.9.3 5.5-1.6 6.5-7.1 5.8-11.6-1.4-23.3-1-34.9-.8-6 .1-12 .2-18-.3-4.1-.3-6-2.2-5.8-6.4.3-6.3-.6-12.9.8-18.9 1.2-5.3-1.1-6.5-4.9-7.6-9.4-2.7-13.2-.1-13.6 9.6-.2 5.3.1 10.6.1 16 0 1.4-.8 2.5-2.4 2.7-1.5.2-2.9-.7-3.2-1.8-.7-2.5-1-5.2-1.1-7.8-.4-5.6-.3-11.2-.3-18zm368.4 396.8c6-.1 11.9-1.2 17.7-2.3 3.8-.7 5.5-2.2 6.3-6.3 2.6-14.3 6.1-28.5 8.5-42.9 6.5-40.2 12.5-80.5 18.6-120.8 1.7-11.5 3-23 4.4-34.5.4-3.2.5-6-4-6.3-11.9-.8-23.9-1.4-35.9-.4-8.1.7-8.2 1.1-10.1 9.4-7.2 31.3-12.2 63-19.7 94.2-5.4 22.5-9.7 45.3-14.7 68-2.1 9.4-2.9 19-5.6 28.3-1.2 4.2 0 7.4 5.1 9.1 9.7 3 19.4 4.5 29.4 4.5zm328.8-220.1v-1.1c-6 0-12 .2-18-.1-4.6-.2-5.8 2-5.6 6 .1 1.6 0 3.2.5 4.9 6.6 22.9 12.3 46.1 17.5 69.4 7.5 33.4 15.4 66.7 23.4 100 2.6 11 4.9 22 8.9 32.7 2.8 7.4 6.8 11.8 15.8 11.7 11.4-.2 22.5-1.7 33.6-3.5 6.9-1.1 7.5-2.3 5-9.5-7.5-21.7-13.6-43.8-19.1-66-5.3-21.6-11.1-43.1-17.2-64.5-4.3-15-8.6-30-12.8-45-2.6-9.3-5-18.5-7.3-27.9-1.3-5.1-3.5-7.4-8.8-7.1-5.3.3-10.6 0-15.9 0zm-205.1 43c0-8.7-.1-17.3 0-26 .1-12.8 0-12.9-13.3-12.7-1.7 0-3.3-.2-5-.1-14.6.7-14.6.8-16.6 15.1-.4 3-1.2 5.9-1.4 8.8-2 28.8-4 57.5-5.7 86.3-.3 4.6-.5 9.2-1 13.8-.7 6.6-.9 13.3-1.1 19.9-.2 7.8 0 7.4 7.3 9.6 9.3 2.8 18.3 2 27.6.1 5.8-1.2 7.6-3.7 7.7-9.4.2-17 .7-34 1.3-50.9.2-6-1.6-11.8-.8-17.8 1.7-12 .9-24.4 1-36.7zm146.8-35.8c1.4 5.4.6 13.6 2.2 21.3 5.6 27.7 6.3 56 11.2 83.8 2.4 13.7 2.1 27.8 7.4 41 1 2.5 1.4 5.3 4.2 6.4 10.3 4 20.8 6.6 31.8 2.5 3.2-1.2 4.9-2.4 3.6-6.5-2.1-6.6-3.3-13.5-5-20.3-10.2-40.2-15.9-81.4-25.4-121.8-1-4.1-2.2-8-3.7-11.9-.7-2-2-4-4.2-3.4-5.9 1.8-11.8.4-17.7.5-3.7.1-5.3 2.2-4.4 8.4zm-475.4 175h-19.1c-9.7-.1-10.7 1-10.4 10.7.2 5.8 1 7.1 7.1 7 12.9-.2 25.8-.1 38.7-1.8 6.8-.9 10.2-7.5 7.1-13.5-.8-1.6-1.9-2.6-3.9-2.2-6.9 1.4-13.8-2-19.5-.2zm-293.7 4.6c-8.7 0-16.3-.5-23.8.2-6.2.6-12.4-1.3-18.6.3-4.1 1-4.3 3.9-4.4 6.6-.1 2.9 2.6 3.4 5.1 3.4 10.5.1 21.1.5 31.6.4 7.5-.1 7.5-.4 10.1-10.9zm1313.2-187.6c-.1 2 1.1 2 1.7 2.6.7-1 1.6-2 2-3.1.4-1.1-1.4-1.8-1.6-1.6-1.1.5-2.1 1.5-2.1 2.1z"/><path fill="#0E0C0C" d="M1976.4 1165.8c2.5 4 5.6 3.8 7.8 4.1 14.5 1.9 28.3 7.9 43.1 7.4 3.9-.1 6 1.5 7.1 5.4.9 3.1.4 5.1-2.4 6.6-14.2 7.9-28 16.7-43 22.9-19.9 8.1-40.2 15.1-60.2 22.9-33.1 12.9-67.3 22.2-101.8 30.9-24.1 6.1-48.4 11.5-72.7 16.8-22.1 4.8-44.4 7.7-67 8.3-3 .1-5.9-.2-8.8-1.1-3.8-1.1-4.4-3.6-4.5-6.7-.1-2.9 1.6-3.7 4.2-4.5 11.3-3.6 22.3-8.4 34.1-10.3 6.9-1.1 13.2-4.4 19.7-6.6 19.8-6.6 39.7-12.7 59.4-19.4 9.1-3.1 17.7-7.4 26.6-10.9 25.3-9.9 50-21.2 74.3-33.4 2.8-1.4 6.3-2.3 7.9-6-8.5-4-17.5-6.3-26.3-8.5-21.3-5.3-41.6-13.4-62.3-20.6-2.5-.9-4.8-2.5-7.5-2.3-2.4.2-4-.6-4.3-2.9-.3-2.4 1.6-3.7 3.4-4.4 5.9-2.1 11.9-4.5 18-5.6 32.1-6.1 62.3-18.3 93.1-28.8 24.3-8.2 46.9-19.9 70-30.7 12.9-6 26.3-11 38.5-18 22.8-12.9 45.2-26.5 67.2-40.8 17.7-11.6 35.3-23.3 52.2-36.1 13-9.9 26.4-19.2 37.4-31.3 8.3-9.2 17.5-17.7 24-28.5 1.7-2.7 3.9-5.3 7.1-6.9 6.1-3.1 9.7-8.8 14.6-13.8-10.9-7-21.1-13.4-31.3-20.1-30-19.7-59.7-39.8-86.8-63.4-15-13-30.6-25.4-44.9-39.3-22.8-22.2-44.9-45-65.6-69.2-29.2-34.2-55-70.8-73.2-112.1-6-13.6-10.2-28.1-15.3-42.1-10.4-28.6-14.3-58.4-17.6-88.4-1.8-16.1-1.7-32.4 1.3-48.6 2.3-12.3 4.4-24.9 5-37.4.6-11.8 3.5-23 6-34.3 4-18.4 9.4-36.5 14.6-54.6 3.7-13.1 8.5-25.8 15.5-37.6 4.8-8.3 7.3-17.7 11.9-26.2 10.1-18.7 21.6-36.4 34-53.5 12.3-16.9 25.8-33 41-47.4 21.9-20.8 44.2-41.4 69.7-57.7 25.8-16.4 52.9-30.3 81.8-40.8 16.2-5.9 32.8-10.4 49-16.1 13.1-4.6 27.2-5.6 40.8-8.8 28.8-6.8 58.3-8 87.6-11.1 22.4-2.4 44.9-3.9 67.3-4.1 26.5-.2 53.1-.1 79.4 4.4 6.9 1.2 13.9 1 20.8 1.9 41 5.1 80.8 15.5 120.4 26.3 17.4 4.8 34.9 9.5 52 15.8 20 7.4 39.1 16.6 58 26.1 21.6 10.9 43.2 21.9 64.4 33.6 14.7 8.2 29.1 17 42.9 26.8 16.2 11.4 32.6 22.6 49 33.9 18.2 12.5 33.9 27.9 49.7 43 9.4 8.9 19.8 16.6 28.8 26.1 12.3 13.1 23.3 27.4 35.6 40.4 15.3 16.2 29.2 33.7 40 53 14.4 25.7 30.3 50.6 42.1 77.6 4.2 9.7 9.1 19.2 9 30.3 0 1 .3 2 .8 2.9 9.3 18.3 10.1 39 16.1 58.3 2.3 7.3.3 15.2 1.8 22.8 5.4 26.3 3.3 52.8 1.5 79.3-.8 11.5-1.7 23.1-2.3 34.6-.7 13.1-4.4 26.1-7.3 39-2.2 9.7-5.5 19.1-7.4 28.9-1.7 8.9-6 16.9-9.5 25.1-10.1 23.9-22.5 46.7-35.9 68.8-12.2 20-26.8 38.7-43.8 55.2-7.9 7.6-16.9 14.3-24 22.1-10.5 11.4-22.8 20-35 28.8-17.2 12.4-34.6 24.4-54.2 33.1-29.5 13.2-58.5 28-90.7 33.7-13.7 2.4-26.4 8-40.1 10.1-21.6 3.4-43.1 7.1-65.1 7.8-16.2.5-32.2 3.3-48.5 3.4-19.9.2-39.9 1.2-59.8-1.6-5-.7-9.9 1-14.9.9-19-.5-37.9-.9-56.8-2.8-6.9-.7-13.9-1.2-20.8-1.6-20.6-1.1-40.8-4.8-61.3-6.7-17.6-1.6-34.8-5.2-52-8.8-10.4-2.2-21.1-2.8-31-6.7-3-1.2-4.9.1-7.1 1.9-16.8 13.9-33.3 28.4-51.3 40.8-14.4 9.9-29.4 18.9-44.2 28.1-22.2 13.8-45 26.7-68 39.1-14.9 8-30.4 14.9-45.3 22.8-19.1 10.1-39 18.3-58.7 27-6.4 2.8-13.2 4.6-19.3 7.9-4.8 2.6-8.8 6.2-14.3 8.3-13.7 5.1-27.6 9.4-41.7 13.3-13.5 3.6-26.9 8.4-41.7 10.6zm-258.5 111.3c-5.4 2.8-12.1.8-17.2 5.3 5.8-1.2 11.6-1.3 17.3-2 100.6-18.6 198.8-44.8 290.9-90.5-.7-3.1-3.2-2.8-4.9-3.2-10-2.6-20-4.7-29.9-7.5-11.8-3.4-23.5-7.3-35.2-11-1.6-.5-3.2-1-3.3-3.1 0-2.5 1.8-3.4 3.8-3.8 1.3-.3 2.6-.5 3.9-.6 9.9-1.3 19.5-4 29.2-5.9 22.8-4.5 44.7-12.2 66.6-19.9 18.8-6.6 37.3-14 55.4-22.3 16-7.3 32.4-13.7 48.2-21.4 21.5-10.4 42.7-21.1 63.5-33 24.2-13.8 48.9-26.8 72.1-42.4 25.7-17.2 50.6-35.3 71-59 4.2-4.9 9.3-6.5 16-4.3 10.1 3.2 20.3 6.2 30.7 8 18.3 3.1 36.7 5.3 55.1 7.9 23.6 3.3 47.2 6.6 71 8.6 32 2.7 64 2.8 96.1 3 26.1.2 52.2 1 78.3-2.5 22.3-3 44.9-4 67.1-8.5 28.3-5.8 56.8-10.8 84.2-20 31.7-10.7 62.9-23.3 91.3-41.7 18.5-12 35.8-25.3 51.9-40.1 16.6-15.3 31.6-32.2 45.8-49.7 13.6-16.7 26.9-33.7 35.7-53.7 2.4-5.5 4.5-11 7.6-16.2 5.9-10 11.4-20.2 15-31.3 9.1-27.8 15.7-56.1 19.1-85.2 1.5-12.4 2.5-24.9 3.1-37.4.9-21.6 1.6-43.2-1.8-64.6-3.5-22.5-6.5-45-13.2-67-8-26.1-18.2-51.2-28.6-76.3-5.6-13.6-13.9-25.7-22-37.8-12.2-18.2-23.3-37.1-36.7-54.4-11.5-14.9-26-27.2-37.1-42.5-8-11-17.7-20.6-28.3-29.3-8.4-7-15.9-15.2-24.3-22.2-11.7-9.8-23.4-19.5-35.7-28.6-12.8-9.5-26.7-17.3-39.6-26.7-16.6-12-34.6-22.2-52.6-32.1-19.1-10.5-38.5-20.6-58.2-30.2-29.8-14.6-60.7-26.2-92-36.7-27.7-9.3-56.5-14.3-85.1-19.8-20.4-3.9-41.1-7.6-62-8.6-13-.6-25.6-4.2-38.4-4.9-21.9-1.2-44-1.6-65.9 0-24.1 1.7-48.4 2.2-72.4 6.3-18.3 3.1-37 3.8-55.2 7.4-30 6-59.5 13.6-88.1 24.9-21 8.3-42.2 16.6-61.5 28.1-24.1 14.4-46.6 31.5-67.6 50.5-37.1 33.6-64.8 66.8-91.5 109.2-11.3 18-19.7 37.5-27.3 57.3-2.1 5.6-3.4 11.5-5.4 17.1-7.1 20-13.6 40-15.4 61.6-1.5 17.8-5.6 35.3-7.4 53.2-1.9 19.6-1.4 39.1.7 58.5 2.1 20.4 7.1 40.4 11.8 60.5 7.8 32.9 20.8 63.6 36.5 93.3 1.1 2 2.3 4.1 3.6 5.9 16.9 23.4 33.5 47 52.5 68.8 14.2 16.3 29.4 31.6 44.5 47 12.6 12.8 25.5 25.4 39 37.2 18.3 15.9 37.5 30.6 56.8 45.3 29 22 60 40.4 91.3 58.7 7.3 4.3 8.1 3.5 4.1 12.7-.9 2-2.7 3.8-4.3 5.4-12.1 12.3-24.4 24.4-36.5 36.8-15.6 16-33.4 29.2-51.2 42.6-9.8 7.4-19.4 15-29.6 21.8-22.3 14.9-45.3 28.8-68.3 42.6-15.4 9.2-30.5 19.4-46.8 26.3-28.4 12.1-55.6 26.7-85.1 36.2-23 7.4-45.6 16-69.1 21.9-7.9 2-16.1 2.5-23.7 4.5-.3 3.2 1.7 3.6 3 4.2 16.9 7.8 34.7 13.4 52.4 18.7 12 3.6 24 7.7 36.7 8.6 5.8.4 6.9 5 3.5 10.1-2.8 4.1-6.9 6-11.2 7.9-17.3 7.6-34.4 15.6-52 22.5-18.5 7.2-36.6 15.9-55.5 21.8-23.4 7.2-45.3 18.3-69.4 23.6-6.7 1.3-13.7 2.6-19.8 6.1z"/><path fill="#FEFEFE" d="M1223.7 1495.1c5.9-1.6 11.9-.7 17.8.1 7.7 1.1 12.5-.6 12.3-11.1-.3-16.6-7.4-30.1-22.6-38.4-2.3-1.3-4.7-2.3-7-3.6-.4-.2-.3-1.2-.5-2.4 5.3-.8 10.3.5 15.2 2 23.5 6.9 28.3 1.8 33.2-17.9 4.5-18.1 6.7-36.6 6-55.3-.5-12.5.2-25.1-2.4-37.6-4.5-21.3-10.7-23.9-33.5-25.5-13.5-.9-26.6 3.8-39.8 7.2-14.4 3.7-22.7 12.8-28.4 25.5-6.8 15.1-15.9 29.2-20.3 45.4-.2.6-.4 1.3-.6 1.9-1.6 5-1.5 11.5-5.5 14.6-3.7 3-9.6.1-14.5.2-9 .2-12.2 3.1-12.7 12.8-.4 8.6-.1 17.2-.4 25.8-.5 11.8-5.2 21.2-14.9 28.7-13.6 10.5-26.6 22-38.9 34.2-15.1 14.9-30.3 29.9-48.5 41.1-18.5 11.4-38.1 18.4-60.4 17-9.6-.6-18-4-26.4-8-.6-.3-1.1-.7-1.7-1-27.8-13-42.1-36.3-50.1-64.6-1.1-3.9-1.1-10.1-7.2-8.1-4.9 1.6-2.8 7.3-1.3 10.6 3.1 7.1 3.8 14.9 6.7 21.9 9.3 21.9 24.3 38.4 46 48.7 1.2.6 2.6.7 3.6 1.5 12.7 9.5 27.9 10 42.6 11.3 6.3.6 13.1-1.6 19.3-3.8 19.3-6.6 36.5-16.8 52.1-30.1 19.5-16.5 38.1-34 57.1-51.2 8.9-8 19.6-13.5 29.8-19.6 5.9-3.5 11.7-7.5 18.2-10.1 25.2-9.8 50.8-12 77.1-5.2 14.3 3.7 21.2 18.9 21.2 29.4 0 4.1-1.5 5.8-5.2 4.6-13.1-4.1-26.3-1.5-39.5-.8-2.5.1-4.7.9-6.5 2.3-2.2 1.7-6.2 2.2-5.8 6 .4 3.8 4.2 2.2 6.3 3.4 14 7.6 28.5 14.1 41.5 23.3 2.7 1.9 3 3.9 2.5 6.7-.9 5.5-4.3 9.7-7 14.1-3.1 5.1-3.9 9.5.6 14.4 3.3 3.7 5.6 8.2 7 13.1 1.3 4.8 2.4 9.7 2 14.6-.6 6.8-7.8 4.8-11.3 7.8-1.7 1.4-4.1 2.1-6.3 2.9-4.3 1.6-5.9 4.2-7.3 9.1-3.9 13.6-9.1 26.8-20.6 36.6-19.8 16.9-42.7 26.4-68.1 30.4-5.7.9-9.6 3.1-13.2 7.7-23.3 30.1-51.9 54.2-86.2 70.8-17.5 8.5-35.6 15-55.8 16.4-22 1.5-43.8 2.4-65.6-.3-13.1-1.6-26.1-4.6-38.5-9.5-21.6-8.5-43.5-16.5-63.7-28.3-21.1-12.2-40.8-26-57.5-44-12-12.9-24.9-24.8-35.6-38.9-3.6-4.8-6.9-9.8-9.5-15.2-1-2.1-1.9-4.3-3.3-6.1-2.2-2.9-5.6-2.4-8-1-2.5 1.5-1.2 4 .2 6.1 7.1 10.4 13.4 21.2 22.4 30.3 16.6 16.7 30.3 36.1 48.9 51 19.9 16 40.2 31.3 64.4 40.5 5.3 2 10.2 4.8 15.3 7.2 8.4 4 17.1 7.2 26.2 9.2 11.3 2.4 22 7.2 33.7 8.4 18.5 1.7 36.9 3.4 55.5 2.2 21.4-1.4 42-6.3 62.2-13.2 20.3-7 38.1-18.8 55.3-31.2 12.9-9.3 25.4-19.2 36.4-30.9.2-.2.5-.4.7-.7 9-14.3 22.7-20.1 38.7-22.6 9.5-1.5 18.4-5.5 27.3-10 3.5 4.2 6.5 8.9 9.3 13.7 3.7 6.3 8.7 10.8 16.4 11.5 3.6.3 7.1 1.8 10.7 2.5 8.2 1.6 8.7 2.4 4.6 10.1-9.4 17.5-20.7 33.8-31.5 50.4-6.9 10.7-14.6 19.9-24.3 27.7-9.6 7.7-18 16.7-28.2 23.8-12.2 8.5-24.5 17.3-35.7 27-24 20.9-51.5 36-79.7 49.7-32.2 15.7-64.4 31.5-97.8 44.1-17.6 6.6-35.6 12.3-53.4 18.3-21 7.1-42.4 13.2-63.9 18.2-19.7 4.5-39.1 10-59.1 13.2-22.9 3.7-45.7 7.9-68.4 12.2-13.6 2.6-25.1-2.5-36.8-8.4-33.2-16.7-62.7-38.7-90.5-63-20.5-17.9-40-36.9-57.2-58.1-6.9-8.5-14.8-16.1-22.1-24.3-10.8-12.2-18.9-26.3-28.1-39.7-3.4-4.9-5.9-10.5-9.6-15.1-13-16-19.6-35.4-28.7-53.4-8.7-17.2-14.6-36-20.1-54.9-6.1-21-10.7-42.4-15.7-63.6-3.5-14.9-6.7-30.4-6.3-46.1 0-1-.2-2-.4-2.9-7.3-34.9-4.6-70-3-105.1.9-19.6 3.9-38.9 6.7-58.2 2.1-14.7 5.4-29.3 8.2-43.9 3.8-19.9 8-39.7 15.1-58.7 8.9-23.6 15.9-48 26.1-71.1 13.9-31.6 30.1-62 50.1-90.2 9.9-14 18.3-29.3 29.7-42 23.7-26.4 44.5-55.5 73.2-77.3 7.3-5.5 13.2-12.9 20.3-18.8 15.8-13.2 32.8-24.8 50.6-35.1 8.9-5.1 17.5-10.9 26.3-16.1 9.3-5.6 19.3-10.4 29.3-14.5 20.9-8.6 40.6-19.6 61.7-27.7 15.4-5.9 31.4-10.3 47.1-15.4 15.1-5 30.7-8.2 46-12.5 16.5-4.7 33.6-7.4 50.5-10.8 19.2-3.8 38.5-6.9 58-9 8.6-.9 17.2-1.4 25.8-1.5 34.5-.4 69-2.3 103.3 3.4 22.9 3.8 46.1 5.9 68.7 10.8 30.4 6.6 60.8 13.7 90.4 23.8 25.4 8.7 50.8 17.3 75.1 28.5 15.9 7.3 31 16.3 46.2 25 19.3 11.1 37.6 23.8 55.6 36.9 14.7 10.8 27.6 23.9 41.3 35.9 11 9.6 19.9 21.2 29.9 31.8 18.1 19.3 35.7 39.3 51.2 60.9 5.2 7.2 10.3 14.5 14.8 22.2 12 20.6 27.5 38.9 37.9 60.6 13.5 28.1 25.9 56.7 36.4 86.1 9.3 25.8 16.3 52.5 21 79.5 3.4 19.8 6 39.9 8.4 59.9 2.2 18.8 2.4 37.7 3.5 56.5 1.2 20.2-2.1 40.3-4.6 60.4-2.4 19.4-6.3 38.5-9.4 57.8-2.4 15-6.9 29.7-10.4 44.5-8.8 36.6-21.7 71.7-36.7 106.1-7.6 17.3-14.5 35-24.1 51.3-9.7 16.6-20 32.8-30.9 48.6-11.1 16.1-22.1 32.4-35.3 46.7-18.3 20-37.3 39.6-60.2 54.8-11.9 7.9-25 13.6-37.8 19.9-7.2 3.5-7.2 3.8-6.4 12.1 1 9.9 3.3 19.5 3.9 29.4 1.6 27.8-1.2 54.9-11.5 81-3.1 8-5.7 16.3-7.9 24.6-1.9 7-.4 10.5 4.1 13 3.5 1.9 6.7 2.2 10.1-.8 6.3-5.5 12.1-11.4 16.9-18.3 9.7-14 17.3-29 23.7-44.7.8-1.8 1.8-3.6 2.3-5.5 2.5-10 8.7-12.6 21.2-9.8 20.8 4.6 34.7 18.6 45.2 36.3 9.1 15.3 11.7 32.3 14 49.4 1.2 9 .9 17.6-1.7 26.3-3.8 13.2-13.1 22.3-23.2 30.4-21.1 17-44.8 29.5-69.5 40.4-30.5 13.5-62 23.8-94.1 32.4-17.7 4.7-35.9 6.5-54.1 7.8-2.6.2-5.3 0-8-.1-1.3-.1-2.7-.2-3.4-1.6-1.1-2.2.7-3 2-3.9 6.9-4.6 13.9-9.1 20.9-13.5 10.4-6.5 20.1-14 29.6-21.7 8.3-6.7 12.2-14.2 12-25.5-.3-18.1-1.3-35.9-8.9-52.6-2.5-5.4-5.3-10.8-8.3-15.9-1.3-2.2-3.4-4.6-6.6-2.7-3 1.8-1.8 4.2-1.1 7 1.7 6.5 6.3 11.6 7.9 18.2 2.8 11.4 2.7 23.1 4.8 34.5 2.9 15.9-5.4 26.5-16.8 35.3-14.7 11.4-30.2 21.2-47 29.5-16.9 8.4-33.1 18.3-50.6 25.4-23.4 9.4-47.3 18-72 22.6-23.7 4.4-47.5 10.2-72 8.6-5.9-.4-11.8 1.4-17.8.4-2.7-.5-4.1-1.3-3.9-4.3 1.7-23.1-4.7-45.5-6.8-68.3-.9-9.9-3.1-19.8-6.3-29.2-7.9-23.2-14-47-26.6-68.5-9-15.5-18.2-30.9-27.9-45.9-4.9-7.5-12.9-11.3-18.4-17.8-4.1-4.9-7.2-10.5-12.3-14.5-.9-3.2-2.6-5.2-6.3-5.1-3.7.1-7.3-.1-11-.2-38.8-.7-77.3-5.1-115.6-11.5-20.2-3.4-40.3-7.7-59.9-13.2-18.4-5.2-36.5-11.5-53.7-20.5-9.4-4.9-19.3-8.6-29.1-12.9-1.2-.5-2.6-.6-2.4-3.1 9.4-3.5 19.8-3 29.7-5 18.8-3.7 37.8-6.5 56.5-10.8 12-2.7 24.1-4.5 36.1-7.1 13.6-3 26.9-7.1 40.3-10.7 33.3-9 65.8-20.6 98.1-32.5 26.7-9.9 52.8-21.2 77.8-35.3 21.3-12 43.1-23.4 64.1-36 13.6-8.2 27.1-16.8 39.8-26.4 20.8-15.9 42.9-30.2 61.2-49.1 1.9-1.9 3.7-3.8 5.3-5.9 2.9-3.8 5.8-6.8 11.3-4.1 1.8.9 3.9-.2 4.7-2.6 1.6-.6 3.1-1.4 4.1-2.8 7.7-2.7 12-9.4 16.8-15.2 12.2-14.9 23.8-30.3 32.8-47.4 2.5-4.8 5.8-6.5 11.3-4.9 8.1 2.3 16.4 1.3 24.6.1 7.8-1.1 10-3.3 11.6-11.2 3.7-18.5 7.9-37 8.2-56 .2-14-1.9-27.9-5-41.4-2.9-13-7.9-17.1-23.9-17.3-8.5-.1-17.2-.2-25.4 4.5-2.2-10-4.5-19.2-9.8-27.3-2.8-4.3-2.7-8.6-.8-13.2 1.4-3.3 2.7-6.7 3.4-10.3 1.9-10.2-.4-16.6-8.9-22.1-4.7-3-9.6-5.8-14.4-8.7.1-1.1.2-2.5.3-4zm5.1 591.3c-1.7-4.9-2.9-9-4.5-13-1.5-3.8-.2-5.4 3.5-6.3 6.4-1.6 12.8-3.5 19.2-5.5 5.7-1.8 11.3-3.9 16.8-6.2 2.4-1 5.2-2.6 4-5.9-1.4-4-4-1.6-6.5-.9-13.5 3.6-26.9 7.3-40.5 10.3-5.9 1.3-12.1 3.6-18.8 2 1.1-3.3 2.8-3.3 4.4-3.6 16-4 32.1-7.7 48.1-11.9 25.6-6.8 50.2-16.6 74.8-26.3 1.5-.6 3-1.4 4.4-2.4 2-1.4 3.4-3.4 2.5-5.9-1-2.9-3.7-2.4-5.9-1.9-2.9.7-5.8 1.6-8.5 2.8-8.9 3.7-18.1 6.6-27.1 9.8-28.8 10-58.5 16.6-88.1 23.4-5.1 1.2-6.6-.8-7.4-5-.4-1.9-.4-3.9-.8-5.8-1.8-9.6-5.8-18.3-10.8-26.6-2-3.5-4.6-2.9-7.6-1-2.9 1.9-3.3 3.9-1.4 6.6 2.6 3.9 5.3 7.7 6.5 12.3 5.8 23.2 6.7 46.6 2.2 70.1-4 20.8-8.9 41.4-17.4 60.9-1.6 3.5-3.6 7.8-.5 11.4 3.4 4 8.3 1.8 12.1.7 11.3-3.2 19.7-10.7 27-19.6 13-15.7 23.3-33 29.7-52.4 2.7-8.2 7.2-13.6 16.8-14.1 4-.2 7.7-.2 11.6.7 7.2 1.8 13.7 5.1 19.5 9.5 4.1 3.1 6.3.1 8.4-1.8 2.7-2.4.5-4.9-1.4-6.8-16.9-17.1-48.2-16.2-64.3 2.4zm169.3-907.8c-3-.4-5.3-.3-7.5.9-1.4.8-3.4 1.2-3.1 3.3.3 2 2.1 2.4 3.8 2.3 6.9-.6 13.1 2.2 19.4 4 11.7 3.4 24.4 5.9 34.4 12.4 15.8 10.3 33.1 18.2 47.9 30.1 6 4.8 11 10.5 16.5 15.7 14.1 13.6 25.8 29.5 38.3 44.5 4.4 5.4 10.1 9.8 13.6 15.8 8.3 14.4 18 28 24.9 43.1.8 1.8 1.7 3.6 2.9 5.2.8 1.1 2.2 1.6 3.6 1.3 1.5-.3 1.7-1.7 2.1-3 1.4-4.5.2-8.6-2-12.4-6.1-10.3-11.5-20.9-18-31-9.4-14.5-19.8-28.3-30.9-41.4-12.2-14.5-25.3-28.1-39.6-40.6-18-15.7-38.7-27-60-37.2-14.8-6.9-30.6-11.6-46.3-13zm136.3 284.5c.4 9.9-1.9 20.1-7.2 29.6-6.3 11.2-14.6 19.1-28.9 15.3-2.1-.6-3.2.4-3.9 2-.6 1.4-.1 2.6 1.1 3.5 1.1.8 2.1 1.7 3.2 2.4 6.8 4 13.6 4.2 20.8.5 13.4-6.9 25.4-15.2 28.1-31.2 1.8-10.3 2.7-20.9.3-31.4-3.3-14.2-9-27-20.8-36.3-1-.8-2-2.1-3.4-1.2-1.6 1.1-1.7 2.9-1 4.4.8 1.8 2.1 3.4 3 5.2 5.7 11.2 9.1 23.2 8.7 37.2zm-104.4-50.3c-.8 3.6.9 9.1 1.6 14.7.8 6.3 4.1 12 8.2 16.8 4.1 4.8 7 4.4 11.3-.2 4.3-4.6 5.7-10.3 7-16.2 2.9-12.9 4.5-25.9 2.5-39.2-.9-6.1-3.1-11.4-9-14.7-6.3-3.5-11.4-2.2-14.9 3.9-5.7 10.2-5.6 21.6-6.7 34.9zm-99.9 181.6c4-.8 6.1-3 7.7-5.5 5.8-9.2 14.5-15.4 23.2-21.4 11.4-8 23.8-9.5 36.9-4.9 2.5.9 5.1 1.5 7.7 1.9 1.8.3 3.2-1.1 3.8-2.6.6-1.3-.3-2.6-1.3-3.5-1.2-1.1-2.4-2.6-3.8-3.1-12.4-4.3-25-5.8-38.1-3.1-10.7 2.2-18.6 9.1-25.8 16.1-6.6 6.4-13.6 14-10.3 26.1zm94.5-98c-.7.2.7.1 1.8-.5 14.7-8.1 24.8-20.5 32.2-35.2 1.4-2.8-.6-5.2-3-6.6-2.8-1.6-4.2 1-5.6 2.6-1.1 1.2-1.5 2.9-2.4 4.3-5.7 8.1-13.4 13.7-22.2 17.9-6 2.9-12 3.1-17.7-1.2-1.6-1.2-3.7-1.8-5.4-.1-1 .9-1 2.5-.3 3.7 4.9 7.5 10.3 14.7 22.6 15.1zm149.1-79.7c-.6-7.2 0-14.7-6.3-20.2-3.9-3.4-5.3-3.6-8.9.4-3.7 4.1-5 9.4-5.8 14.6-1.3 7.6-1.3 15.3 3.5 22.1 1.9 2.7 4 5.9 7.8 5.4 3.6-.5 5.4-3.6 6.6-6.8 1.8-5 3.7-10 3.1-15.5z"/><path fill="#CDA93B" d="M361.5 2277.2c-19.6 0-39.4-1.1-58.9.2-33.9 2.2-67.9-.1-101.8 1.9-30.6 1.9-61.2 1.8-91.8 2.1-8.3.1-16.6.6-24.9 1-16 .8-31.8-1.7-47.8-1.3-4.2.1-5.6-1.3-5.9-5.7-2.4-39.8-2.8-79.7-3.3-119.5-.1-4.4-1.6-5.7-5.6-6.3-8.7-1.2-8.5-1.4-10.1-10.2-1.2-6.6-1.6-13.2-1.7-19.8-.1-4.7 1.9-6.7 6.5-6.6 11 .2 21.9-1.6 32.8-2.1 28.6-1.3 57.2-2.3 85.8-2.6 31.2-.3 62.3-1.6 93.5-3 28.2-1.2 56.3-3.7 84.6-3 24.6.7 49.2.7 73.8-.5 11.9-.6 23.8.2 35.6-.2 7.2-.2 14.2 3.3 21.7 2.9 1.8-.1 3.2 1.4 2.8 3.3-2.1 9.9.1 19.9-.7 29.9-.3 3.6-1.6 5.1-5.1 6.1-9.4 2.8-9.3 3-10 12.8-.6 9.6.5 19.2.2 28.7-1 27.6 1.2 55.2-.7 82.7-.6 8.4-.6 8.6-9.3 8.6-20 .1-39.9 0-59.9 0 .2.4.2.5.2.6zM122 2161.1v.4c-15.6 0-31.2-.1-46.8 0-11.6.1-13.2 1.8-12.8 13.4.5 17.2 1.2 34.4 1.4 51.6.1 7.3.1 14.5 1.9 21.7 2.4 9.8 4 11.7 13.6 12.2 12.2.6 24.5.7 36.8-.1 21.5-1.6 43.1-1.7 64.7-2.8 26.5-1.4 53.1-.7 79.7-1.9 18.9-.8 37.9-.4 56.8-.7 12.3-.2 24.6 0 36.8-1.5 6.7-.8 10.1-3.5 9.4-9.2-1.4-12 .8-24-.3-35.9-1.2-13.3-.7-26.6.2-39.8.5-7-3.3-11.3-10.4-10.9-18.5 1.1-37.1.6-55.6.4-22.6-.2-45.2 1.4-67.8 1.4-35.9 0-71.7 1.1-107.6 1.7z"/><path fill="#F3081D" d="M225.7 1924.7c0 6.8-.1 12.3 0 17.9.1 2.6.4 5.3 1.1 7.8.3 1.1 1.7 2 3.2 1.8 1.6-.2 2.4-1.4 2.4-2.7.1-5.3-.3-10.6-.1-16 .4-9.7 4.2-12.3 13.6-9.6 3.8 1.1 6.1 2.3 4.9 7.6-1.4 6-.5 12.6-.8 18.9-.2 4.2 1.7 6 5.8 6.4 6 .5 12 .4 18 .3 11.6-.2 23.3-.6 34.9.8 5.5.7 7.4-.3 7.1-5.8-.3-6 .4-12 .6-17.9.1-2.4.4-4.7 2.1-6.5 1.1-1.2 2.1-2.7 4.1-1.8 1.5.7 1.4 2.2 1.4 3.4 0 6-.1 12-.2 17.9 0 1.7-.5 3.4-.1 4.9.7 2.5-1.1 7 3.7 6.6 3.6-.3 2.8-3.8 2.8-6.4.1-6.3.1-12.6.2-19 .2-7.4 7.1-11.2 13.7-7.8 2.2 1.1 2.2 3.2 2.1 5.1l-.3 22c-.1 7.8-.1 7.9 7.5 8 9.6.1 19.3.1 28.9.2 4.3 0 8.6.3 12.8 1.4 3.1.7 4.8 1.8 5 5 .4 6.2.9 12.4 1.4 18.5-.9.4-1.5.9-2 .8-2.4-.4-5.6-3.5-7.1-.4-1.8 3.7 2.4 4.8 5 5.9 6 2.8 12.8 3.7 18.6 7 1.1.6 2.6.7 3.7 1.3 1.9 1 3.2 2.5 2.4 4.8-.6 1.9-2.4 2.2-4.1 2.1-7-.3-13.7-2.5-20.5-4-3-.7-7.3-4.4-8.8-.5-2.1 5.2 4 4.8 6.9 6 7.6 3.1 7.7 2.9 8 11.4.9 21.5 1.5 43.1 3.8 64.5.9 7.9.2 8.3-7.8 8.6-42.8 1.2-85.7 1.7-128.6 2.4-16.9.3-33.7 2.6-50.7 3.4-26.9 1.2-53.8 1.6-80.7 2-19.9.3-39.7 2-59.7 1.9-6.1 0-11.9-1.4-17.8-1.7-5-.2-5.4-4.5-5.9-7.9-1.2-9.6-.8-19.2.3-28.9 1-8.9 5.1-14.9 12.3-20.3 24.2-18.1 48.9-35.5 73.3-53.2 14-10.1 27.4-21 41.7-30.6 5.8-3.9 11.8-5.9 18.7-5.1 3 .3 6 0 9 .2 5.4.4 7.9-2.1 8.4-7.4.6-5.3 1.5-10.5 1.5-15.9.3-2.3 0-5.2 4.3-7.4zm-16.4 116.5c5.7.4 9.4.7 13 .8 11 .4 21.2-1.1 28.9-10.3 1.5-1.7 3.5-3.1 5.5-4.2 16.2-8.6 26.3-24.2 40.4-35.3 9-7.1 2.6-15.9-4.4-18.7-4.3-1.7-8.8-2.4-13.6-2.6-11.6-.5-23.3-.8-34.7-2.6-14.2-2.2-28.3-2-42.5-1.7-4.9.1-9 1.3-12.9 4.2-23.1 17.3-47.1 33.4-67.1 54.5-3.3 3.4-1.8 9.3 3.3 11.1 4 1.4 8.2 2.9 12.6 2.8 24.7-.7 49 4.4 71.5 2zm-51 20.6v-.7H88.5c-2.9 0-6-.8-8.7 1.3-1.1.9-1.8 2-1.7 3.4.1 1.4 1.2 2.5 2.6 2.6 2 .2 4 .2 6 .1 11.3-.1 22.6-.7 33.9-.4 27.6.8 55.1.8 82.6-.8 21.9-1.3 43.9-.5 65.9-.4 6.9 0 7.2.3 7 7.4-.1 5.2 1.1 9.9 3.7 14.3.9 1.5 2.2 2.5 4.1 1.7 1.4-.5 2-1.8 2-3.2 0-1.3-.6-2.6-.5-3.9.6-7.8-1.6-16.2 2.9-23.3 7.4-11.8 14-24.2 23.7-34.5 6.2-6.5 12.5-13 17.8-20.2 10.1-13.7 22.6-24.1 38.6-30 1.5-.6 2.9-1.6 4.2-2.6 1-.8 1.8-2 1.2-3.5-.6-1.5-2-2-3.3-1.5-9.3 4-19.7 4.5-27.5 12.9-12.9 13.8-25 28.4-38.4 41.7-9.5 9.5-14.3 22.2-23 32.3-2.5 3-4.5 5-8.8 5-38.1.7-76.3 1.5-114.5 2.3z"/><path fill="#CDA93B" d="M952.1 2064.6c5 4 8.2 9.7 12.3 14.5-8.6.4-4.8 6.8-5.3 11.7-17.2.9-34.4.4-51.6.6-23.5.3-47.1-1-70.6.9-10.9.9-21.9.7-32.9.7-19.3 0-38.6.6-57.9 1.7-17.6 1.1-35.2.7-52.9.9-33.2.5-66.4.2-99.5 3-9.9.8-20 .3-30-.1-10.7-.4-11.7-2.6-7.4-12 8.1-17.4 22.1-29.7 36.3-41.7 2.8-2.4 7.3-3.1 11.1-4 8.7-2.2 17.9-3.2 26.7-2.8 18 .7 35.7-2.5 53.6-2.7 13.6-.1 27.2 1.1 40.8-1.4 5.9-1.1 11.8 2.2 17.3 4 35.6 11.4 72.3 17.3 109 22.9 27.5 4.2 55.4 6.1 83.1 8.7 3.7.3 7.2 1.2 10.8 1.5 4.7.3 7.1-1.8 7.1-6.4zm-358 256.9c-10 0-19.7-1.5-29.3-4.6-5.1-1.7-6.3-4.9-5.1-9.1 2.7-9.3 3.5-18.9 5.6-28.3 5-22.6 9.3-45.4 14.7-68 7.5-31.2 12.5-62.9 19.7-94.2 1.9-8.3 2-8.8 10.1-9.4 11.9-1 23.9-.4 35.9.4 4.5.3 4.4 3.1 4 6.3-1.5 11.5-2.7 23-4.4 34.5-6.1 40.3-12.2 80.6-18.6 120.8-2.3 14.4-5.9 28.6-8.5 42.9-.7 4-2.5 5.5-6.3 6.3-5.9 1.2-11.8 2.3-17.8 2.4zm328.8-220.1c5.3 0 10.6.2 15.9-.1 5.3-.3 7.6 2 8.8 7.1 2.3 9.3 4.8 18.6 7.3 27.9 4.2 15 8.5 30 12.8 45 6.1 21.4 11.8 42.9 17.2 64.5 5.5 22.3 11.6 44.3 19.1 66 2.5 7.2 1.9 8.4-5 9.5-11.1 1.8-22.2 3.4-33.6 3.5-9 .1-13-4.3-15.8-11.7-4-10.6-6.2-21.7-8.9-32.7-8-33.3-15.9-66.6-23.4-100-5.2-23.3-10.9-46.4-17.5-69.4-.5-1.7-.4-3.2-.5-4.9-.2-4 1-6.2 5.6-6 6 .3 12 .1 18 .1v1.2z"/><path fill="#F5081E" d="M1149.7 1438.9c5.7-1.4 5.4-6.9 5.4-10.5.2-31.4 12.5-58.5 28.5-84.5 1.7-2.8 3.2-5.9 4.4-8.9 2.9-7.4 8.6-11.7 16-13.7 14.9-4.1 30.2-5 45.5-3.7 9 .8 12.2 4.2 13.8 13 3 16.7 5.3 33.5 4.6 50.5-.6 14.9-2.7 29.8-6.7 44.2-2 7.2-3.8 8-11.6 8-8.1 0-15.8-2-23.5-4-6.1-1.6-11.2-1.3-14 5.4-1.3 3.2-3.7 4.4-7.2 4.1-17.5-1.5-34.4 1.9-51.3 5.6-1.4-1.8-3.5-3-3.9-5.5zm53.3 331c-1 1.5-2.5 2.3-4.1 2.8-.5-.9-.9-1.9-1.6-2.5-9-7.5-9-7.5-1.5-16.9 8.9-11.2 16.1-23.5 22.3-36.3 3-6.2 7.2-11.7 9.3-18.4.8-2.5 2-4.9 2.1-7.6.2-5.4-.4-6-6.1-5.3-16.7 1.9-29-6.2-33.9-22.4-.5-1.7-.7-3.2.6-4.6 1.1-1.3 2-2.7 3.3-3.8 15.3-12.4 23.5-29.3 30-47.3 1.6-4.6 4.3-7.5 9.1-8 7.5-.7 14.2-3.7 20.2-7.5 8.6-5.4 17.7-5.4 27-4.8 8.8.6 12.3 3.8 14 12.8 3.6 20 5.4 40.2 1.6 60.5-1.3 6.8-2 13.8-3.3 20.6-1.6 8.8-4 11-13.2 11.3-6.3.2-12.6-.9-18.5-3.3-3.7-1.5-5.1-.7-6.7 2.9-10.4 22.5-25.3 42-40.9 60.9-2.5 3-5.7 5.6-8.7 8.2-3.2 2.7-3.6 5.5-1 8.7z"/><path fill="#CDA93B" d="M717.8 2144.4c0 12.3.7 24.6-1.1 36.9-.9 6 1 11.9.8 17.8-.6 17-1.1 34-1.3 50.9-.1 5.7-1.9 8.2-7.7 9.4-9.3 1.9-18.3 2.7-27.6-.1-7.3-2.2-7.5-1.8-7.3-9.6.2-6.7.3-13.3 1.1-19.9.5-4.6.8-9.2 1-13.8 1.7-28.8 3.7-57.6 5.7-86.3.2-3 1-5.9 1.4-8.8 2-14.4 2-14.4 16.6-15.1 1.6-.1 3.3.1 5 .1 13.3-.3 13.5-.1 13.3 12.7 0 8.5.1 17.2.1 25.8zm146.8-35.8c-1-6.1.7-8.2 4.4-8.3 5.9-.1 11.8 1.3 17.7-.5 2.2-.7 3.5 1.4 4.2 3.4 1.4 3.9 2.7 7.8 3.7 11.9 9.5 40.4 15.2 81.5 25.4 121.8 1.7 6.8 2.9 13.7 5 20.3 1.3 4.1-.4 5.2-3.6 6.5-11 4.1-21.5 1.5-31.8-2.5-2.8-1.1-3.2-3.9-4.2-6.4-5.3-13.2-5-27.3-7.4-41-4.9-27.8-5.6-56.1-11.2-83.8-1.5-7.9-.8-16-2.2-21.4zm-475.4 175c5.7-1.9 12.6 1.6 19.5.1 2-.4 3.1.6 3.9 2.2 3.1 6-.3 12.6-7.1 13.5-12.8 1.7-25.8 1.6-38.7 1.8-6.1.1-6.9-1.2-7.1-7-.3-9.7.7-10.8 10.4-10.7 6 .1 11.9.1 19.1.1z"/><path fill="#F6F6F6" d="M1149.7 1438.9c.4 2.5 2.5 3.7 3.9 5.5-8.7 2.9-17.4 5.7-26 8.6-1.4-.7-1.2-1.8-.8-2.6 5.3-10.5 6.9-21.7 6.8-33.4-.1-5.6 1.1-6.2 7.3-6.4 4.4-.1 7 1.1 6.6 6.2-.3 4.6-.2 9.3-.3 13.9.1 3-.4 6.1 2.5 8.2z"/><path fill="#CDA93B" d="M95.5 2288.2c-2.5 10.4-2.5 10.7-10.1 10.8-10.5.1-21.1-.2-31.6-.4-2.5 0-5.1-.4-5.1-3.4.1-2.7.3-5.6 4.4-6.6 6.3-1.6 12.4.3 18.6-.3 7.5-.6 15.1-.1 23.8-.1z"/><path fill="#FCC2C7" d="M1223.7 1495.1c-.1 1.4-.2 2.9-.2 4.3-2.4-.3-4.2-1.5-6.1-3.6 2.1-1.4 4.2-1 6.3-.7z"/><path fill="#EDEBD6" d="M1717.9 1277.1c6.2-3.5 13.2-4.8 19.8-6.2 24.1-5.2 46.1-16.3 69.4-23.6 18.9-5.9 37-14.5 55.5-21.8 17.6-6.9 34.7-14.9 52-22.5 4.3-1.9 8.4-3.7 11.2-7.9 3.4-5.1 2.3-9.7-3.5-10.1-12.8-.9-24.7-5-36.7-8.6-17.8-5.3-35.5-10.9-52.4-18.7-1.4-.6-3.3-1-3-4.2 7.6-2 15.8-2.5 23.7-4.5 23.5-5.9 46.1-14.5 69.1-21.9 29.5-9.5 56.8-24.1 85.1-36.2 16.4-7 31.5-17.1 46.8-26.3 23-13.8 46-27.7 68.3-42.6 10.2-6.8 19.8-14.5 29.6-21.8 17.8-13.4 35.6-26.6 51.2-42.6 12.1-12.4 24.4-24.5 36.5-36.8 1.6-1.6 3.4-3.4 4.3-5.4 3.9-9.2 3.1-8.4-4.1-12.7-31.2-18.3-62.3-36.7-91.3-58.7-19.3-14.7-38.5-29.4-56.8-45.3-13.5-11.8-26.4-24.4-39-37.2-15.1-15.4-30.3-30.7-44.5-47-19-21.8-35.7-45.4-52.5-68.8-1.4-1.9-2.6-3.9-3.6-5.9-15.7-29.7-28.7-60.4-36.5-93.3-4.8-20-9.7-40-11.8-60.5-2-19.4-2.6-38.9-.7-58.5 1.8-17.9 5.9-35.4 7.4-53.2 1.8-21.5 8.3-41.5 15.4-61.6 2-5.6 3.2-11.5 5.4-17.1 7.6-19.8 16-39.4 27.3-57.3 26.7-42.5 54.4-75.7 91.5-109.2 21-19 43.5-36.1 67.6-50.5 19.3-11.5 40.5-19.8 61.5-28.1 28.6-11.3 58.1-18.9 88.1-24.9 18.2-3.6 36.9-4.3 55.2-7.4 24-4.1 48.2-4.5 72.4-6.3 21.9-1.6 44-1.2 65.9 0 12.8.7 25.5 4.3 38.4 4.9 20.9 1 41.6 4.7 62 8.6 28.5 5.5 57.4 10.6 85.1 19.8 31.3 10.5 62.2 22.1 92 36.7 19.6 9.6 39 19.7 58.2 30.2 18 9.9 36 20.1 52.6 32.1 12.9 9.3 26.8 17.2 39.6 26.7 12.3 9.1 24.1 18.8 35.7 28.6 8.4 7 15.8 15.2 24.3 22.2 10.6 8.8 20.3 18.3 28.3 29.3 11.1 15.3 25.6 27.6 37.1 42.5 13.4 17.4 24.5 36.3 36.7 54.4 8.1 12.1 16.4 24.2 22 37.8 10.4 25.1 20.6 50.2 28.6 76.3 6.8 22 9.7 44.5 13.2 67 3.4 21.5 2.7 43.1 1.8 64.6-.5 12.5-1.6 24.9-3.1 37.4-3.4 29.1-10 57.4-19.1 85.2-3.6 11-9.1 21.3-15 31.3-3.1 5.2-5.2 10.8-7.6 16.2-8.8 20-22.1 37-35.7 53.7-14.2 17.5-29.2 34.4-45.8 49.7-16.1 14.9-33.5 28.2-51.9 40.1-28.4 18.4-59.6 30.9-91.3 41.7-27.3 9.2-55.9 14.2-84.2 20-22.2 4.5-44.8 5.4-67.1 8.5-26 3.5-52.1 2.7-78.3 2.5-32.1-.2-64.1-.3-96.1-3-23.8-2-47.4-5.3-71-8.6-18.4-2.6-36.8-4.7-55.1-7.9-10.4-1.8-20.7-4.8-30.7-8-6.7-2.1-11.8-.6-16 4.3-20.4 23.6-45.3 41.8-71 59-23.2 15.6-47.9 28.5-72.1 42.4-20.8 11.9-42 22.6-63.5 33-15.8 7.6-32.2 14-48.2 21.4-18.1 8.3-36.6 15.8-55.4 22.3-21.9 7.6-43.7 15.4-66.6 19.9-9.8 1.9-19.4 4.6-29.2 5.9-1.3.2-2.6.3-3.9.6-2.1.4-3.8 1.3-3.8 3.8 0 2.1 1.7 2.6 3.3 3.1 11.7 3.7 23.4 7.6 35.2 11 9.9 2.8 20 5 29.9 7.5 1.8.5 4.2.1 4.9 3.2-92.1 45.7-190.3 71.9-290.9 90.5 0-1-.1-2.1-.1-3.2zm454.1-757c-.5 20.3 3.2 40.3 4.4 60.5.7 13.2 1.8 26.5 5.6 39.4 6.6 23 11.1 46.5 18.3 69.4 7.6 24.1 14.2 48.5 27.3 70.4 6.1 10.2 13 20 19.1 30.2 9.2 15.4 20.6 29.4 33.5 41.4 11.2 10.4 24 19.5 37.4 27.7 36.4 22.6 76.2 35.7 117.7 43.8 19.6 3.8 39.8 4.8 60.1 4.1 21-.6 41.7-3.1 62.1-7.1 40.8-8 80.5-20 118.1-38.3 14.6-7.1 29.6-13.6 43.8-21.4 18.6-10.3 36.7-21.4 54-33.8 10.5-7.6 21.5-14.5 31.6-22.6 20.7-16.7 40.5-34.4 60.4-52.1 10.2-9.1 17.8-20.6 28.1-29.6 15.6-13.6 29-29.3 40.7-46.2 9.4-13.6 18.2-27.6 27.2-41.5 1.4-2.2 2.6-4.7 3.6-7.1 1.1-2.7 2.7-5.7 0-8.3-2.6-2.5-5.6-.4-8.5 0-.6.1-1.1.7-1.7 1-14.5 6.8-30 10.9-45.3 15-36 9.6-73.2 12.5-110.1 16-31 2.9-62.2 3.3-93.3 2.5-17.6-.5-35.3.5-52.9-.2-32.1-1.4-64.2-3.8-96.1-8-13.5-1.7-27.1-2.7-40.4-5.9-14.5-3.4-28.9-7.1-43.5-10-28.6-5.6-56.5-13.5-83.6-24-28.4-11-57.4-20.5-85.2-33.1-15-6.8-30.4-12.9-45-20.7-14.6-7.7-30.2-13.3-44.1-22.3-13-8.5-26.9-15.6-39.9-24.1-27.5-18-53.9-37.7-79.1-58.8-18.3-15.3-37.1-30.3-54-47.3-4.2-4.2-7.4-9.4-12.3-13-1.4-1.1-2.8-1.7-4.6-1.1-2 .8-1.5 2.7-1.8 4.2-.8 4.5 1.3 7.6 4.4 10.5 12.4 11.6 24.4 23.6 37.2 34.7 30.9 26.7 63 51.8 96.7 74.8 7.3 5 12 9.7 10.1 19.1-.7 3.7 0 7.8 0 11.8zm665.4-68.8c0 .4.1-.6 0-1.6-2.7-33.4-16.2-61.9-38.9-86.3-8.4-9-19.1-14.4-30.9-13.9-29.1 1.4-51.1 15.9-64.5 41.5-13.7 26.3-16.9 54.1-7.1 82.9 2.4 7 5.2 13.3 9.8 19.3 6.8 8.8 14.8 16.3 23.5 22.9 14.8 11.3 31.6 17.2 50.2 12.7 35.3-8.3 56.2-38.4 57.9-77.5zm-378.8-134.8c1.5 18.3-3.9 35.4-9.4 52.5-1.8 5.7-5.4 10.6-9.3 15.3-2.3 2.8-4.4 3.9-8.4 1.6-8.8-5.2-18-9.8-27.4-14.1-5-2.3-10.4-3.9-16-4.9-13.6-2.4-26.3.5-39.2 3.7-14.9 3.7-25.5 12.3-31.7 26.4-1.2 2.7-2.6 5.4-3.5 8.2-5.6 17.3-8.1 35.1-.4 52.1 9.5 21.3 24 39.3 44.1 51.5 26.7 16.2 56 22.9 87.3 20.8 17.7-1.2 32.8-7.6 45.1-20.2 7.3-7.5 12.3-16.3 13.5-27 .5-4-1.1-5.5-4.9-5.6-4.9-.1-6.9 1.8-6.8 8.6.1 8.3-3.1 14.6-9 20.2-5.4 5.1-11.8 8.5-18.4 11.5-10.1 4.6-20.7 3.1-31.3 3.6-20.1.9-38.7-4.2-56.9-11.5-13.5-5.5-24.5-15.1-34.3-25.2-19.7-20.4-26.8-44.5-15.5-72.1.6-1.5 1.1-3.1 1.7-4.7 7.9-19.3 26.5-30.6 46.3-29.1 20.7 1.5 39.2 8.7 56.3 20.2 1.9 1.3 3.5 2.6 4.7 4.8 2.8 5.3 4.3 5.2 7.9.6 26.7-34.1 32.6-72.4 23-113.8-.3-1.3-.6-2.6-1.1-3.8-1.3-2.8-3.6-4-6.5-3-3 1-2.4 3.5-1.7 5.8 2.5 9 2.6 18.3 1.8 27.6zm-166.4 20c1.1-21.2-3.2-34.5-7.6-47.7-2.2-6.5-6.9-12.1-10-18.3-6.4-12.7-16.4-21.6-28.9-27.8-10-5-22.4-1.9-30.2 6-14.4 14.5-24.2 31.6-28.8 51.5-4.1 17.8-7.7 35.6-5.5 54 .8 7.1 4.6 13.2 6.3 19.9 3.6 13.7 12.4 24 23.5 31.1 18.6 11.8 27.1 12.7 45.3 2.3 5-2.9 7.8-7.8 11.4-12.1 16.3-19.1 22.2-41.8 24.5-58.9z"/><path fill="#D69298" d="M1717.9 1277.1c.1 1.1.1 2.2.2 3.3-5.8.7-11.6.8-17.3 2 4.9-4.5 11.7-2.5 17.1-5.3z"/><path fill="#0F0E0D" d="M1228.8 2086.4c16.2-18.6 47.5-19.5 64.3-2.5 1.9 1.9 4.1 4.4 1.4 6.8-2.1 1.9-4.3 4.9-8.4 1.8-5.8-4.4-12.3-7.7-19.5-9.5-3.9-1-7.6-.9-11.6-.7-9.7.4-14.1 5.9-16.8 14.1-6.4 19.4-16.7 36.7-29.7 52.4-7.3 8.8-15.7 16.4-27 19.6-3.9 1.1-8.7 3.3-12.1-.7-3-3.5-1-7.8.5-11.4 8.6-19.5 13.5-40.1 17.4-60.9 4.5-23.4 3.7-46.9-2.2-70.1-1.2-4.6-3.8-8.5-6.5-12.3-1.9-2.7-1.4-4.8 1.4-6.6 3-1.9 5.5-2.5 7.6 1 4.9 8.3 8.9 17 10.8 26.6.4 1.9.5 3.9.8 5.8.7 4.1 2.3 6.2 7.4 5 29.6-6.8 59.3-13.4 88.1-23.4 9.1-3.2 18.3-6.1 27.1-9.8 2.8-1.2 5.6-2 8.5-2.8 2.2-.6 4.9-1 5.9 1.9.9 2.5-.5 4.5-2.5 5.9-1.4.9-2.8 1.8-4.4 2.4-24.6 9.7-49.2 19.5-74.8 26.3-16 4.2-32 8-48.1 11.9-1.6.4-3.3.4-4.4 3.6 6.7 1.5 12.9-.7 18.8-2 13.6-3 27-6.7 40.5-10.3 2.5-.7 5.1-3.1 6.5.9 1.1 3.3-1.6 4.9-4 5.9-5.5 2.3-11.1 4.4-16.8 6.2-6.3 2-12.7 3.9-19.2 5.5-3.8.9-5 2.5-3.5 6.3 1.6 4 2.8 8.2 4.5 13.1zm-39.7 61.7c12.5-9.8 22.3-19.3 28.8-31.9 1.7-3.4 2.2-6.6 1.2-10.4-2.2-9.4-6.6-18.1-10.1-27-.8-2-1.4-5.3-4.2-4.9-3.5.5-2.5 4.1-3 6.5-.2 1.3-.1 2.7-.1 4 .1 11.3-1.7 22.5-4.4 33.4-2.5 9.5-5.2 19-8.2 30.3z"/><path fill="#121212" d="M1398.1 1178.6c15.7 1.4 31.4 6.1 46.1 13.1 21.3 10.2 42 21.5 60 37.2 14.3 12.5 27.4 26.1 39.6 40.6 11.1 13.2 21.5 26.9 30.9 41.4 6.5 10.1 11.9 20.7 18 31 2.2 3.7 3.4 7.9 2 12.4-.4 1.3-.6 2.7-2.1 3-1.3.3-2.8-.2-3.6-1.3-1.1-1.6-2-3.4-2.9-5.2-6.9-15.2-16.5-28.8-24.9-43.1-3.5-6-9.2-10.4-13.6-15.8-12.5-15.1-24.1-30.9-38.3-44.5-5.5-5.3-10.5-10.9-16.5-15.7-14.8-11.9-32.1-19.8-47.9-30.1-9.9-6.5-22.6-9-34.4-12.4-6.3-1.8-12.5-4.6-19.4-4-1.7.1-3.6-.2-3.8-2.3-.3-2 1.7-2.5 3.1-3.3 2.4-1.3 4.7-1.4 7.7-1z"/><path fill="#0F0E0D" d="M1534.4 1463.1c.5-14-2.9-26-8.8-37.4-.9-1.8-2.2-3.3-3-5.2-.7-1.6-.6-3.4 1-4.4 1.4-1 2.4.4 3.4 1.2 11.8 9.3 17.5 22.1 20.8 36.3 2.4 10.5 1.5 21.1-.3 31.4-2.7 16.1-14.7 24.4-28.1 31.2-7.2 3.7-14 3.4-20.8-.5-1.1-.7-2.2-1.5-3.2-2.4-1.2-.9-1.7-2.1-1.1-3.5.7-1.6 1.8-2.6 3.9-2 14.3 3.8 22.6-4.1 28.9-15.3 5.3-9.3 7.7-19.6 7.3-29.4z"/><path fill="#121212" d="M1430 1412.8c1.1-13.3 1-24.7 6.8-34.9 3.5-6.1 8.6-7.4 14.9-3.9 5.9 3.3 8.1 8.6 9 14.7 2 13.2.3 26.2-2.5 39.2-1.3 5.9-2.7 11.6-7 16.2s-7.2 5-11.3.2c-4.1-4.8-7.4-10.5-8.2-16.8-.8-5.6-2.5-11.1-1.7-14.7zm22.3-.8c.7-8.8-1.4-16.9-3-25-.4-1.8-.6-4.3-3.2-4.3-2.3 0-3.2 1.9-4.2 3.7-3.1 6.2-2.2 13.1-3 19.6-1 8.2.5 16.6 3.2 24.5.6 1.7 1.1 4.2 3.6 4 2.2-.2 3.1-2.4 3.7-4.3 1.9-5.9 3.4-12.1 2.9-18.2zm-122.2 182.4c-3.3-12 3.7-19.7 10.3-26.1 7.2-7.1 15.1-13.9 25.8-16.1 13.1-2.7 25.7-1.2 38.1 3.1 1.5.5 2.6 2 3.8 3.1 1 .9 1.9 2.2 1.3 3.5-.7 1.5-2 2.9-3.8 2.6-2.6-.4-5.2-1-7.7-1.9-13.1-4.6-25.5-3.1-36.9 4.9-8.7 6.1-17.4 12.2-23.2 21.4-1.6 2.5-3.7 4.7-7.7 5.5z"/><path fill="#0F0E0D" d="M1424.6 1496.4c-12.3-.4-17.7-7.6-22.7-15.2-.8-1.2-.7-2.8.3-3.7 1.7-1.6 3.8-1.1 5.4.1 5.7 4.3 11.8 4.1 17.7 1.2 8.7-4.2 16.5-9.8 22.2-17.9.9-1.3 1.4-3.1 2.4-4.3 1.4-1.6 2.8-4.2 5.6-2.6 2.5 1.4 4.4 3.8 3 6.6-7.4 14.7-17.4 27.2-32.2 35.2-1 .8-2.4.8-1.7.6z"/><path fill="#121212" d="M1573.7 1416.7c.6 5.5-1.4 10.5-3.2 15.5-1.2 3.2-3 6.3-6.6 6.8-3.8.5-5.8-2.7-7.8-5.4-4.8-6.8-4.7-14.4-3.5-22.1.9-5.2 2.1-10.5 5.8-14.6 3.6-3.9 5-3.8 8.9-.4 6.4 5.5 5.8 13 6.4 20.2zm-9.1-8.3c-.9 3.8-1.7 7.5.1 11.5 2-4.1 1.9-7.8-.1-11.5z"/><path fill="#0F0C04" d="M122 2161.1c35.9-.6 71.7-1.7 107.6-1.6 22.6 0 45.1-1.7 67.8-1.4 18.5.2 37 .7 55.6-.4 7.1-.4 10.9 3.9 10.4 10.9-.9 13.3-1.5 26.5-.2 39.8 1.1 11.9-1 23.9.3 35.9.6 5.7-2.7 8.3-9.4 9.2-12.2 1.5-24.5 1.4-36.8 1.5-18.9.3-37.9-.1-56.8.7-26.6 1.2-53.2.4-79.7 1.9-21.6 1.2-43.2 1.3-64.7 2.8-12.2.9-24.5.7-36.8.1-9.7-.4-11.2-2.4-13.6-12.2-1.8-7.2-1.8-14.4-1.9-21.7-.2-17.2-.9-34.4-1.4-51.6-.3-11.6 1.3-13.3 12.8-13.4 15.6-.1 31.2 0 46.8 0v-.5zm205.9 84c5 0 10 .1 14.9 0 9.2-.2 10.4-1.4 10.8-10.3.6-12.3 1.2-24.5 1.8-36.8.4-8.6.6-17.3-1.3-25.8-1.1-4.6-3.1-6.9-8.9-6.6-23.5 1.3-47.1 1.5-70.7 1.5-21.2 0-42.5 1.1-63.7 1.6-20.6.5-41.2 1.9-61.7 1.7-23.6-.3-47.1 1.4-70.6.8-4.5-.1-6.3.7-6.2 6 .4 14.6.3 29.3-.5 43.9-.4 7.6-.8 15 .4 22.6.8 4.6 2.3 5.9 7.1 5.8 15.5-.2 31 .1 46.5.4 14.6.3 29.2-.5 43.8-1.2 13.9-.7 27.9-1.9 41.8-1.7 38.8.4 77.6 0 116.5-1.9z"/><path fill="#130102" d="M209.3 2041.2c-22.5 2.4-46.9-2.7-71.4-2-4.4.1-8.6-1.4-12.6-2.8-5.1-1.8-6.6-7.6-3.3-11.1 20-21.1 44-37.2 67.1-54.5 3.9-2.9 8-4.1 12.9-4.2 14.2-.2 28.3-.5 42.5 1.7 11.4 1.8 23.1 2.2 34.7 2.6 4.8.2 9.3.9 13.6 2.6 7 2.8 13.4 11.6 4.4 18.7-14.1 11.1-24.2 26.7-40.4 35.3-2 1.1-4.1 2.4-5.5 4.2-7.7 9.1-17.9 10.6-28.9 10.3-3.7-.1-7.4-.4-13.1-.8zm-43.7-10.7c6.1.9 10.8 2.1 15.6 2.3 6.9.4 13.9.2 20.8 0 1.7 0 4.7-.1 3.7-3-1.9-5.5 3.6-7.9 5.1-12.1-4.7-1.5-9.3 0-13.2-1.3-14.7-4.8-22.2 5.2-32 14.1zm104.9-27.2c-3.2-2.4-6.1-1.6-8.5-2.6-11.6-4.8-20.3.4-28.4 8.1-3.2 3-2.8 5.2 1.4 6.1 6.1 1.2 12.4 1.9 18.6 2.6 2 .2 4.3.1 5.6-1.4 3.8-4.3 8.8-7.2 11.3-12.8zm-76.9 5.5c9.1.6 17.9 5 26.2 2.6 6.3-1.8 11.9-7.4 16.5-13.8-16.5-3.6-31.4-4.8-42.7 11.2zm-22.9 6.5c-2.8-.1-5.3-.3-7.8-.4-3-.1-6 .2-9-.2-4.3-.6-7.9-1.3-11.5 2.7-2.8 3.1-7.1 4.8-9.2 8.8-1.5 2.9-.7 4.5 2.6 4.6 7 .2 14 .3 20.9.4 1.3 0 3.2 0 3.2-1.5.2-7.1 8.3-8.1 10.8-14.4zm121-33.6c-6.7-.9-12.6-1.8-18.5-2.4-3.3-.3-7.2-.3-9 2.8-2.3 4.1-7.4 5.6-9 10.2 21.3 7.4 28.3 5.5 36.5-10.6zm-34.1-1.6c-22-6.3-28.7-3.9-36.3 8.8 13 1.9 26.8 7.3 36.3-8.8zm-10.1 44c-5.6-3.8-11.5-2.6-16.9-3.8-10.1-2.2-16.9 2-20.4 12.4 13.3 2.5 26.2 3 37.3-8.6zm-49.7-28.6c-17-4.5-25.3-2-38.3 11.2 15 4.9 27.6 1.6 38.3-11.2zm-9.7-8.2c6 0 11.9.1 17.9 0 6.6-.1 11-3.4 13.4-9.8-5.2-1.9-9.9 1.9-13.9.9-8.3-2.1-12.6 2.8-17.4 8.9z"/><path fill="#130102" d="M158.3 2061.8c38.2-.8 76.4-1.6 114.6-2.2 4.3-.1 6.3-2.1 8.8-5 8.6-10.1 13.4-22.8 23-32.3 13.4-13.3 25.4-27.9 38.4-41.7 7.8-8.3 18.2-8.8 27.5-12.9 1.2-.5 2.6 0 3.3 1.5.6 1.5-.2 2.7-1.2 3.5-1.2 1.1-2.7 2.1-4.2 2.6-16.1 5.9-28.5 16.2-38.6 30-5.3 7.2-11.6 13.7-17.8 20.2-9.7 10.3-16.2 22.7-23.7 34.5-4.5 7.1-2.3 15.5-2.9 23.3-.1 1.3.5 2.6.5 3.9 0 1.4-.6 2.6-2 3.2-1.9.7-3.2-.2-4.1-1.7-2.6-4.4-3.8-9-3.7-14.3.1-7.1-.1-7.3-7-7.4-22 0-44-.8-65.9.4-27.6 1.6-55.1 1.6-82.6.8-11.3-.3-22.6.2-33.9.4-2 0-4 .1-6-.1-1.4-.2-2.4-1.2-2.6-2.6-.1-1.4.5-2.6 1.7-3.4 2.7-2 5.8-1.3 8.7-1.3h69.8c-.1.2-.1.4-.1.6z"/><path fill="#0F0B0B" d="M2172 520.1c0-4-.6-8.1.1-11.9 1.9-9.4-2.8-14.1-10.1-19.1-33.7-23-65.8-48.2-96.7-74.8-12.8-11.1-24.8-23.2-37.2-34.7-3.1-2.9-5.2-6-4.4-10.5.3-1.6-.2-3.4 1.8-4.2 1.7-.7 3.1 0 4.6 1.1 4.8 3.6 8.1 8.7 12.3 13 16.9 17 35.6 32 54 47.3 25.2 21.1 51.6 40.8 79.1 58.8 13 8.5 26.9 15.6 39.9 24.1 13.9 9 29.5 14.6 44.1 22.3 14.6 7.7 29.9 13.9 45 20.7 27.9 12.5 56.8 22.1 85.2 33.1 27.1 10.5 55 18.4 83.6 24 14.5 2.9 29 6.6 43.5 10 13.3 3.1 26.9 4.1 40.4 5.9 31.9 4.1 64 6.6 96.1 8 17.6.7 35.3-.2 52.9.2 31.2.8 62.3.5 93.3-2.5 36.9-3.5 74.1-6.3 110.1-16 15.3-4.1 30.8-8.2 45.3-15 .6-.3 1.1-.9 1.7-1 2.8-.4 5.8-2.6 8.5 0s1.2 5.6 0 8.3c-1 2.4-2.2 4.9-3.6 7.1-9 13.9-17.7 28-27.2 41.5-11.8 17-25.1 32.6-40.7 46.2-10.3 9-17.9 20.5-28.1 29.6-19.9 17.7-39.6 35.4-60.4 52.1-10.1 8.1-21.1 15-31.6 22.6-17.2 12.5-35.4 23.6-54 33.8-14.2 7.8-29.2 14.3-43.8 21.4-37.6 18.3-77.3 30.3-118.1 38.3-20.4 4-41.1 6.5-62.1 7.1-20.3.6-40.5-.3-60.1-4.1-41.5-8-81.3-21.2-117.7-43.8-13.3-8.3-26.1-17.3-37.4-27.7-13-12-24.3-26-33.5-41.4-6.1-10.2-13-20-19.1-30.2-13.1-21.9-19.7-46.4-27.3-70.4-7.2-22.8-11.7-46.4-18.3-69.4-3.7-12.9-4.8-26.2-5.6-39.4-1.3-20.1-5.1-40.1-4.5-60.4zm14-14.9c-2.1 21.5-1.6 42 .5 62.4 3.1 30.4 7.5 60.6 15.1 90.3 4.7 18.3 8.2 36.9 14.9 54.7 8.1 21.2 18.1 41.5 29.1 61.2 8.4 15.1 18.7 29.5 31 41.4 12.3 11.9 24.7 24.1 39.3 33.6 13.7 9 28 17 42.8 23.2 19.5 8.2 39.8 14.9 60.7 19.1 17.8 3.6 35.4 9.1 54 7.9 11.3-.7 22.6-1.8 33.8-1.7 10.4.1 20.5-2 30.6-3.5 20-3 39.4-8.9 58.9-13.9 21-5.4 40.9-13.6 61-21.6 20.7-8.3 39.7-19.9 59-30.8 28.3-15.9 55.9-33 81.2-53.7 35.2-29 69.4-59 99.5-93.5 16.8-19.3 33.8-38.5 48.5-59.5 1.6-2.3 3.4-4.6 3.5-7.9-1.7.1-2.8-.1-3.6.3-12.2 5.5-25.2 8.2-38.3 10.5-20.6 3.7-41.2 7.2-61.9 10.4-17.4 2.7-34.8 5.1-52.2 7.1-32.8 3.8-65.7 3.1-98.6 3.2-41.9 0-83.8-1-125.4-7.1-14.4-2.1-28.9-3.9-43.4-6-22.3-3.2-44.2-8.8-66.2-14-32.3-7.7-64-17.4-95.2-28.6-27.2-9.7-53.7-21.2-80.6-31.7-23.6-9.3-45.9-20.4-67.3-33.9-9.8-6.4-20-11.8-30.7-17.9z"/><path fill="#0F0E0D" d="M2837.4 451.3c-1.7 39.1-22.6 69.2-58 77.7-18.6 4.5-35.4-1.5-50.2-12.7-8.7-6.6-16.7-14.1-23.5-22.9-4.6-5.9-7.4-12.2-9.8-19.3-9.8-28.8-6.6-56.6 7.1-82.9 13.4-25.6 35.3-40.2 64.5-41.5 11.8-.5 22.6 4.9 30.9 13.9 22.7 24.4 36.2 52.9 38.9 86.3.2.8.1 1.8.1 1.4zm-129.2-28c5.7-4 10.7-8.7 16.9-12 12.2-6.5 27.5-4.8 37.8 4.3 6.2 5.5 10.8 12.3 15.7 19 15.2 21.2 20.5 44.6 17.8 70.2-.2 1.5-.6 3.2 1.3 5 4.8-2.4 9.2-5.1 12.9-9.7 7.3-9.3 10.8-20.4 15.4-31 3.5-8 4.5-16.1 3.4-24.3-2-14.5-5.6-28.5-13.3-41.3-5.2-8.6-12-15.8-17.6-24-4.8-7-11.5-11.5-18.3-16.3-8.9-6.2-17.6-5.2-26.2-1.2-17.4 8-30.8 20.4-39.5 37.7-3.6 7.1-7.6 14.1-7.2 22.4-1.2.9-1.5 2.7-.5 3.1 1.3.9 1.1-.9 1.4-1.9zm-2.7 30.5c-1.7 17.5 8.8 38.2 21.2 47.7 7.2 5.5 15.4 9.1 23.1 13.7 8.4 5 17.1 4.3 26 3.8 5.2-.3 7.7-2.5 7.7-8.1-.1-20.9 1-41.9-8.3-61.6-.3-.6-.6-1.2-.7-1.9-2.9-11.1-9.8-19.3-18.8-25.9-3.5-2.5-7.4-5.1-11.8-5.1-8.7.1-17.8.8-23.7 8.2-6.9 8.8-18.4 15.5-14.7 29.2z"/><path fill="#0F0B0B" d="M2458.6 316.5c.7-9.3.7-18.6-1.8-27.7-.6-2.3-1.2-4.8 1.7-5.8s5.2.3 6.5 3c.6 1.2.8 2.5 1.1 3.8 9.6 41.4 3.7 79.7-23 113.8-3.6 4.6-5.1 4.7-7.9-.6-1.2-2.2-2.8-3.5-4.7-4.8-17.1-11.5-35.6-18.8-56.3-20.2-19.8-1.4-38.4 9.9-46.3 29.1-.6 1.5-1.1 3.1-1.7 4.7-11.4 27.6-4.3 51.7 15.5 72.1 9.8 10.1 20.8 19.7 34.3 25.2 18.2 7.4 36.8 12.5 56.9 11.5 10.6-.5 21.2 1 31.3-3.6 6.6-3 13-6.4 18.4-11.5 5.9-5.6 9.1-11.9 9-20.2-.1-6.8 1.9-8.7 6.8-8.6 3.8.1 5.3 1.6 4.9 5.6-1.2 10.7-6.2 19.5-13.5 27-12.3 12.6-27.4 19-45.1 20.2-31.4 2.1-60.6-4.6-87.3-20.8-20.1-12.2-34.6-30.2-44.1-51.5-7.6-17.1-5.2-34.8.4-52.1.9-2.8 2.3-5.5 3.5-8.2 6.2-14 16.8-22.7 31.7-26.4 12.9-3.2 25.7-6.1 39.2-3.7 5.7 1 11 2.6 16 4.9 9.3 4.3 18.5 8.9 27.4 14.1 4 2.3 6.1 1.2 8.4-1.6 3.8-4.6 7.4-9.6 9.3-15.3 5.5-17 10.9-34.1 9.4-52.4z"/><path fill="#0E0C0C" d="M2292.2 336.5c-2.3 17.1-8.3 39.8-24.4 58.9-3.6 4.3-6.4 9.2-11.4 12.1-18.2 10.4-26.7 9.5-45.3-2.3-11.1-7.1-19.9-17.3-23.5-31.1-1.8-6.7-5.5-12.8-6.3-19.9-2.2-18.4 1.4-36.3 5.5-54 4.6-19.9 14.4-36.9 28.8-51.5 7.8-7.8 20.2-10.9 30.2-6 12.5 6.2 22.5 15.1 28.9 27.8 3.1 6.2 7.9 11.8 10 18.3 4.3 13.2 8.6 26.5 7.5 47.7zm-90-47.1c2.1.2 3.8-.6 5.6-1.6 16.9-9.5 37.5-4 45.2 15.5 7.4 18.9 13 38.1 14.2 58.5.3 5.6-.9 11.5 1.7 17.1 1-.5 1.8-.6 2.1-1.1 1.2-2 2.3-4 3.3-6.1 6.7-14.3 10-29.2 9.7-45.2-.4-19-4.4-36.2-18.5-49.7-8.3-7.9-16.2-16.6-27.9-20.2-4.8-1.5-8.7-1.4-13 1.7-10.8 7.8-17.8 18.3-23.4 30.1-.8.6-1.5 1.6-.6 2.3.9.7 1.3-.5 1.6-1.3zm55.4 83.3c.7-19.8-1.3-39-10.4-57-3.6-7-7.4-13.6-15.5-15.9-21.2-6.1-42.7 12.6-41.4 29.8.3 3.6-.2 7.3-.2 11 .3 23.3 6.8 43.7 26.8 58.1 5.9 4.3 12.3 6.8 19.1 7.1 7.1.3 13-3.8 18.6-8.2 4.4-3.5 2.6-7.8 2.9-11.9.3-4.3.1-8.7.1-13z"/><path fill="#F6F6F6" d="M1452.3 1412c.5 6.1-1 12.2-2.9 18.3-.6 1.9-1.4 4.1-3.7 4.3-2.5.2-3-2.3-3.6-4-2.7-7.9-4.3-16.3-3.2-24.5.8-6.5-.2-13.4 3-19.6.9-1.9 1.9-3.7 4.2-3.7 2.7 0 2.9 2.5 3.2 4.3 1.6 8.1 3.6 16.2 3 24.9z"/><path fill="#FCC2C7" d="M1564.6 1408.4c2 3.7 2.1 7.4.1 11.5-1.8-4-1-7.7-.1-11.5z"/><path fill="#CDA93B" d="M327.9 2245.1c-38.8 1.9-77.7 2.4-116.6 1.8-13.9-.2-27.9 1.1-41.8 1.7-14.6.7-29.2 1.5-43.8 1.2-15.5-.3-31-.7-46.5-.4-4.8.1-6.3-1.2-7.1-5.8-1.3-7.6-.9-15-.4-22.6.8-14.6.9-29.3.5-43.9-.1-5.3 1.7-6.1 6.2-6 23.5.7 47.1-1 70.6-.8 20.5.3 41.1-1.2 61.7-1.7 21.2-.5 42.5-1.5 63.7-1.6 23.6 0 47.2-.2 70.7-1.5 5.8-.3 7.8 2 8.9 6.6 2 8.5 1.7 17.2 1.3 25.8-.6 12.3-1.2 24.5-1.8 36.8-.4 8.9-1.6 10-10.8 10.3-4.9.2-9.9.1-14.8.1zM217 2223.7c5.6.5 11.1-3.4 15-10.4 3.2-5.8 3.2-11.7-.7-16.9-3.6-4.7-8.1-8.8-13.6-11.4-8.7-4.1-20.7-.9-25.9 6.7-5.4 8-4.2 16.2 3.6 24.1 5.2 5.3 11.6 7.6 21.6 7.9z"/><path fill="#F3081D" d="M165.6 2030.5c9.8-8.9 17.3-18.9 32-14 3.9 1.3 8.5-.2 13.2 1.3-1.5 4.2-7 6.6-5.1 12.1 1 2.9-2 2.9-3.7 3-6.9.2-13.9.3-20.8 0-4.8-.3-9.5-1.4-15.6-2.4zm104.9-27.2c-2.5 5.6-7.6 8.5-11.2 12.6-1.3 1.5-3.6 1.7-5.6 1.4-6.2-.7-12.5-1.4-18.6-2.6-4.2-.8-4.6-3-1.4-6.1 8-7.6 16.8-12.8 28.4-8.1 2.3 1.1 5.2.4 8.4 2.8zm-76.9 5.5c11.2-16 26.2-14.8 42.7-11.2-4.7 6.4-10.2 12-16.5 13.8-8.2 2.4-17-2-26.2-2.6zm-22.9 6.5c-2.5 6.3-10.6 7.3-10.8 14.4 0 1.6-1.9 1.6-3.2 1.5-7-.1-14-.2-20.9-.4-3.2-.1-4.1-1.7-2.6-4.6 2.1-4 6.4-5.7 9.2-8.8 3.6-4 7.2-3.3 11.5-2.7 2.9.4 6 .1 9 .2 2.4.1 4.9.2 7.8.4zm121-33.6c-8.2 16.1-15.2 18-36.5 10.6 1.5-4.7 6.6-6.1 9-10.2 1.8-3.1 5.7-3.2 9-2.8 5.9.6 11.7 1.5 18.5 2.4zm-34.1-1.6c-9.5 16.1-23.3 10.6-36.3 8.8 7.6-12.7 14.3-15.1 36.3-8.8zm-10.1 44c-11.1 11.6-24 11-37.4 8.6 3.5-10.3 10.3-14.6 20.4-12.4 5.5 1.3 11.4.1 17 3.8zm-49.7-28.6c-10.7 12.8-23.3 16.1-38.3 11.2 13-13.2 21.2-15.7 38.3-11.2zm-9.7-8.2c4.8-6 9.1-10.9 17.4-8.9 4 1 8.7-2.8 13.9-.9-2.4 6.4-6.7 9.7-13.4 9.8-6 .1-11.9 0-17.9 0z"/><path fill="#DDDBB3" d="M2186 505.2c10.8 6.2 20.9 11.6 30.7 17.7 21.4 13.5 43.6 24.7 67.3 33.9 26.9 10.5 53.4 22.1 80.6 31.7 31.2 11.1 62.9 20.8 95.2 28.6 22 5.3 43.9 10.8 66.2 14 14.4 2.1 28.9 3.9 43.4 6 41.6 6.1 83.5 7.2 125.4 7.1 32.9 0 65.8.6 98.6-3.2 17.5-2 34.9-4.4 52.2-7.1 20.7-3.2 41.3-6.7 61.9-10.4 13.1-2.3 26.1-5 38.3-10.5.8-.4 1.9-.2 3.6-.3-.1 3.4-1.8 5.6-3.5 7.9-14.7 21-31.7 40.2-48.5 59.5-30.1 34.5-64.2 64.5-99.5 93.5-25.2 20.8-52.9 37.8-81.2 53.7-19.3 10.8-38.3 22.5-59 30.8-20 8-40 16.2-61 21.6-19.5 5-38.9 10.9-58.9 13.9-10.2 1.5-20.2 3.6-30.6 3.5-11.3-.1-22.6 1-33.8 1.7-18.5 1.2-36.1-4.3-54-7.9-20.9-4.2-41.3-10.9-60.7-19.1-14.8-6.2-29.2-14.2-42.8-23.2-14.6-9.6-26.9-21.8-39.3-33.6-12.3-11.9-22.6-26.3-31-41.4-11-19.7-21-40-29.1-61.2-6.8-17.8-10.3-36.4-14.9-54.7-7.6-29.7-12-59.9-15.1-90.3-2.1-20.2-2.6-40.7-.5-62.2z"/><path fill="#FAFAFA" d="M2707.1 422.3c-.4-8.4 3.6-15.4 7.2-22.4 8.7-17.2 22.1-29.7 39.5-37.7 8.7-4 17.4-5 26.2 1.2 6.8 4.8 13.6 9.3 18.3 16.3 5.6 8.2 12.4 15.5 17.6 24 7.7 12.8 11.3 26.8 13.3 41.3 1.1 8.3.1 16.4-3.4 24.3-4.6 10.6-8 21.7-15.4 31-3.6 4.6-8.1 7.3-12.9 9.7-1.9-1.8-1.5-3.5-1.3-5 2.7-25.6-2.6-49-17.8-70.2-4.8-6.8-9.4-13.5-15.7-19-10.3-9.1-25.5-10.9-37.8-4.3-6.2 3.3-11.2 8-16.9 12-.2-.5-.6-.9-.9-1.2z"/><path fill="#97EAF6" d="M2705.5 453.8c-3.7-13.7 7.7-20.4 14.7-29.1 5.9-7.4 15-8.1 23.7-8.2 4.4 0 8.3 2.5 11.8 5.1 9 6.6 15.9 14.8 18.8 25.9.2.6.5 1.3.7 1.9 9.4 19.6 8.3 40.6 8.3 61.6 0 5.6-2.5 7.8-7.7 8.1-8.9.4-17.6 1.2-26-3.8-7.7-4.5-15.9-8.2-23.1-13.7-12.4-9.6-22.9-30.3-21.2-47.8z"/><path fill="#FAFAFA" d="M2708.2 423.3c-.2 1-.1 2.8-1.6 2.1-1-.5-.7-2.2.5-3.1.3.3.7.7 1.1 1z"/><path fill="#97EAF6" d="M2257.6 372.7c0 4.3.2 8.6-.1 12.9-.3 4.1 1.4 8.5-2.9 11.9-5.6 4.4-11.5 8.5-18.6 8.2-6.8-.3-13.2-2.9-19.1-7.1-19.9-14.4-26.5-34.8-26.8-58.1 0-3.7.4-7.3.2-11-1.3-17.3 20.2-35.9 41.4-29.8 8 2.3 11.9 8.9 15.5 15.9 9.1 18.1 11 37.4 10.4 57.1z"/><path fill="#F6F6F6" d="M2201.1 288.3c5.6-11.7 12.6-22.3 23.4-30 4.3-3.1 8.2-3.2 13-1.7 11.6 3.6 19.5 12.3 27.9 20.2 14.1 13.5 18.2 30.7 18.5 49.7.3 16-2.9 30.9-9.7 45.2-1 2.1-2.1 4.1-3.3 6.1-.3.5-1.1.6-2.1 1.1-2.6-5.5-1.4-11.5-1.7-17.1-1.1-20.4-6.8-39.7-14.2-58.5-7.6-19.5-28.2-25-45.2-15.5-1.8 1-3.5 1.8-5.6 1.6-.2-.4-.6-.8-1-1.1z"/><path fill="#F6F6F6" d="M2202.2 289.4c-.3.8-.7 2-1.8 1.2-.9-.7-.1-1.7.6-2.3.5.3.9.7 1.2 1.1z"/><path fill="#0F0C04" d="M217 2223.7c-10-.3-16.4-2.6-21.5-7.9-7.8-7.9-9-16.2-3.6-24.1 5.1-7.5 17.2-10.8 25.9-6.7 5.5 2.6 10 6.7 13.6 11.4 3.9 5.1 3.9 11 .7 16.9-4 7-9.6 10.9-15.1 10.4zm-2.1-8.6c3.7-.9 8.4-1.1 10-6.2 1.3-4-1.4-8-7-10.6-2.7-1.3-5.6-2.2-8.4-3.1-5.5-1.8-9.1.7-9.2 6-.1 7.4 6.8 14.2 14.6 13.9z"/><path fill="#CDA93B" d="M214.9 2215.1c-7.8.3-14.8-6.5-14.6-13.9.1-5.3 3.7-7.8 9.2-6 2.8.9 5.7 1.8 8.4 3.1 5.6 2.7 8.3 6.7 7 10.6-1.6 5-6.3 5.3-10 6.2z"/></svg>