<svg xmlns="http://www.w3.org/2000/svg" viewBox="0 0 3638 2477.9"><path fill="#C9F1F8" d="M170 2209.8c-.6-6.5-5.6-11.8-4.9-18.8.2-2.8-4.9-2.6-5.4-6.4-1.1-7.8 1.3-12.6 9.6-15.7 2.5-.9 5.7-.9 5.7-4.3 0-3.3-1.9-5.6-5.5-6-3-.3-3.9-2.4-3.7-4.9.3-4.8-.9-9.5 2.6-14.3 3.2-4.3 1.3-10.3 1-15.6 0-.8-.8-2.1-1.5-2.4-3.2-1.3-6.6-.6-9.9-.8-3.3-.1-6 .5-6.4 4.5-.3 2.4-2 3.3-4.3 3.2-2.5-.1-3.2-1.8-3.6-4-.6-3.6-1.9-7.1-1.9-10.7-.1-5.7-.2-10.5-7.6-11.7-3.4-.5-2.4-4.3-2.4-6.8-.2-5.9 1.3-12.3-6.3-15.1-.9-.3-1.5-2.1-1.8-3.3-1.2-5-3.8-8.6-9.5-9.6 2.6-3.5 5.5-2.2 7.9-2.5 6.1-.8 9.4-4.4 9.7-10.4.2-5.2-4.3-12.4-8.4-13.3-2.1-.4-3.9 0-5.5 1.5-4.3 3.9-9.5 1.8-14.3 2-3 .1-4.6-2.6-3.3-4.7 2-3.4 2.7-8.7 8-8.9 4.5-.2 5.9-2.5 5.4-6.4-.7-5.5 2-9.5 6.5-11.1 4.6-1.6 10-2 13.2 3.5.5.8 1.5 1.3 2.3 1.9 2.3 1.8 4 4.8 7.7 3.3 3.3-1.4 2.2-4.5 2.4-6.9.2-2.6.6-4.6 3-6.7 6.9-6.1 6.3-11.5-1.4-16-3.9-2.3-8.7-3-8.2-9.3.2-1.8-2.2-2.4-3.8-1.7-1.5.7-2.5 2.4-4 2.8-2.5.6-5.5 1.4-7-1.7-1.1-2.3-.4-4.3 2.1-5.8 5.1-3.2 2.7-10.7 8.1-14-6.4 2.5-11.2-3.3-17.4-2.3-5.8 1-11.9.2-19.6.2 3.9-4.5 6.8-7.6 9.4-11 2.1-2.8 4.9-3 8-3 5.7.1 11.3.2 17-.1 5.3-.2 8.4-6.1 4.5-8.3-6.1-3.5-3.9-8.5-5.1-14.1-2.1 3.2-4.2 5-7.6 4.6-3.2-.3-6.5.5-8.4-3.6-1.8-3.9-5.9-2-9-2.3-5.2-.5-11.7-10.2-10.2-15.2.9-3 3.4-2.7 5.6-2.9 8-.9 9.5-2.4 7.7-9.7-1.3-5.3-3.2-9.7 4.6-11.1 2-.4 1.9-3.3 1.6-5.3-.5-2.9-.5-6.4-2.2-8.6-7-9-5.7-19.4-5.5-29.6.1-6.8-1.3-12.2-5.7-18.1-4.1-5.4-9.7-11.4-8.5-20 1-7.1.5-7.3 7.4-7.6 2.7-.1 5.3-.1 8-.1 3.4 0 4.6-2.1 5-5 11.5-.7 22.8 2.2 34.3 2.2.5 0 1.1.7 1.6 1.1-.2 4.2-.3 8.2 5.8 8 2.9-.1 4 1.9 4 4.6 0 2 .1 4 .1 6-.1 3.8 1.7 5.4 5.5 5.2 3.5-.1 4.6-2.1 4.6-5.2v-14.9c9.4-.9 18.5 1.6 27.5 3.5 28.8 6 57.6 11.6 86.4 17.5 27.5 5.7 54.4 13.8 81.7 20.3 29.1 6.8 56.7 17.9 84.9 27.3 7.5 2.5 15 5.1 21.4 10.3 5.6 4.6 6.3 7.1 2.2 13.1-5 7.3-5.2 10-.4 16.9 4.9 7.1 10.3 14.1 17.2 19.3 13.5 10.1 25.1 22.2 39.5 31.5 22.4 14.5 45.8 26.8 69.8 38 21.7 10 44.6 16.7 67.5 23.3 6.9 2 14.4 3.3 20.3 7.8 13.5 10.4 27.3 20 42.8 27.2 2.2 1 4.5 2.2 5.2 5.4 1.4 5.8 4.3 11.2 5.3 17.1 2.4 13.9 9.6 24.6 20 33.5 6.5 5.6 13.1 11.2 20.6 15.6 1.9 1.1 4.4 1.8 4.4 5.3-4.2 1.8-8.9 1.7-13.5 1.5-17.3-.8-34.8.4-51.7 2.7-15.8 2.2-31.6 2.8-47.4 4.8-19.3 2.5-38.6 5.3-58.1 7-20.4 1.8-40.8 4.8-61.2 6.8-15.8 1.6-31.5 4.4-47.3 5.5-16.6 1.2-32.6 6-49.2 7-19.8 1.2-39.4 4.7-59.1 7.4-19 2.6-38 5.5-56.9 8.2.7-6.2 3-12.2 2.2-18.7-.2-2 .3-3.8 2.4-5 4.4-2.4 4.6-4.9-.6-6.2-3.5-.9-4-3-4-5.8 0-1.7-.1-3.3-.2-5-.1-1.5-1-2.5-2.5-2.7-1.4-.2-3 .6-2.8 2.1.6 5.4-3.6 7.2-6.8 9.8-2.4 2-3.1 4.6-4 7.6-1.5 5.2 0 11.6-5.2 15.5-4.2 3.2-4.9 7.6-4.4 12.4-3 2.2-6.6 1.7-10 1.9 0-3.3.3-6.7-.1-10-.4-3.2 2.1-8.8-3-9-4.6-.2-2.4 5.2-2.9 8.1-.9 5-3.3 6.2-7.5 3.5-7.7-4.8-12.4-11.2-12.7-20.8-.2-6-2.3-7-7.5-3.8-2.5 1.5-4.7 2.2-7.4 2.1-2.2-.1-4.9.7-6.2-1.9-1.3-2.7.3-4.9 1.3-7.4 2-5.1 7.8-3.7 11.8-6.9-4.2-2.6-7.9-1.7-11.3-1.7-10.8-.2-15.3-4.8-16.8-15.8-.8-5.6.9-13.3-8-14.8-2.6-6.4-8.2-5.7-13.4-5.3-2.6.2-3.6-3.4-6.9-1.5-8.5 5-9.4 4.3-9.6-5.7 0-1 .1-2 0-3-.3-2.8 1.1-6.5-2.9-7.5-4.3-1.1-4.7 2.4-5.5 5.4-.2.9-1.1 1.6-1.7 2.4-2.7 3.6-1.3 5.4 2.7 5.8 2.4.2 4.9.3 5.2 3.5.5 6.5-.8 13.3 4.1 18.9.6.7.3 2.9-.4 3.8-1.8 2.4-1.6 3.6 1.2 5 2 1 1 3.6 1.4 5.5 1.2 6-2.8 10.6-3.8 15.9-1.1 5.8-4.1 6.3-8.4 5.2-2.9-.7-5.7-1.8-8.8-1.5-2 .2-4.3.1-4.6 2.7-.2 2.7 2.1 3.4 4.1 3.1 7.4-1.3 11.3 4.4 16.4 7.7 3.1 2 3.4 4.8 2.5 7.8-.8 3-3.6 2.5-5.8 2.6-6.7.1-13.3 0-20 .1-2.4 0-4.6.1-5.6 3-1.3 4.3.3 8.6 4.5 11.1 4.6 2.8 4.8 7.7-.1 9.4-3.6 1.3-4.9 2.9-4.6 6.3-2 .6-3.7 1.9-5.8 1.2zm13.5-117.2c2.7-.1 5.6.1 5.8-3.7.2-3.8-2.5-4.1-5.3-4.3-2.6-.1-5.6.3-6.3-3.4-1.2-6.4-5.6-5.6-8.8-2.9-4.2 3.5-8.5 4.6-13.6 4.5-1.8 0-3.5 1-3.4 2.9.4 7.7-3 15.7 3.1 22.9 1.8 2.2 2.9 4.4 6.1 3.6 3.7-.8 4.4-3.6 4.5-6.8 0-3.3.2-6.7.1-10-.2-5.3 5.1-5.6 7.8-8.1 2.2-2 3.7 1.2 4.8 3.3 1 2.3 3.2 1.9 5.2 2zm-13.4-102.8c2.2-6.2.7-12.9 8.1-16.4 3-1.4 1.8-6.7.8-10.2-.9-3.4-4.2-2.4-6.7-2.6-2.3-.1-4.6.1-6.9 0-4.3-.2-5.8 2-5.8 6.1 0 5.5.5 11.1-2.1 18 5.8-1.1 9.7.5 12.6 5.1zm130.3 96c-7.3 1.1-9.3 9.2-16.7 9.8-3.6.3-1.9 5.6-2 8.7-.1 2.8 1.7 4.1 4.4 4.2 7.3 0 14.5 0 21.8-.1 1.3 0 2.6-.5 3-2 .5-2-.5-3.3-2.3-3.5-6.1-.8-6.8-5.3-7-10.2-.1-2.2.5-4.6-1.2-6.9zm-156.5-277.4c1.1-4.2-3.2-7.2-6.3-10.2-3.6-3.5-7.4-1.5-7.9 3.6-.3 2.9-.1 5.9-.4 8.8-.5 4.7 1.8 8.9 5.4 9.6 2.8.6 7.7-3 8.7-6.6.3-1.2.2-2.5.5-5.2zm152.2 255.3c-.7-.6-1.4-1.2-2-1.8.1 5.8-3 7.2-7.5 6.8-2.3-.2-4.6 0-6.8-1-2.1-1-4.1-.8-4.8 1.6-.5 2.1.7 4.5 2.7 4.6 5.4.5 6.2 3.8 6.4 8.1.1 1.4 1.4 2.3 2.8 2 .8-.2 2-.8 2.2-1.6 2.4-6.1 4.7-12.4 7-18.7zm7.5 58.4c-.2-1.5.4-3.8-1.9-4.7-2.5-1-3.5.9-4.2 2.8-.9 2.3-3 2.2-4.9 2.6-2.8.7-4.1 3.2-5.9 5-1 1-.9 2.4 0 3.6 1 1.3 2.8 1.3 3.5.5 2.4-2.8 5.5-3.3 8.8-3.3 4.2-.1 4.7-2.9 4.6-6.5zm-69.8-239.3c-4.2-3.1-8.5-1.4-11-4.9-1.3-1.8-3.8-1.4-4.7.9-.9 2.3-.6 4.9 2.4 5.4 4 .6 8.2 1.4 13.3-1.4z"/><path fill="#0C0C0C" d="M305.6 2186.4c3.4-.2 7 .3 10-1.9 9.1 1.3 17.3-2.6 25.9-4.1 19-2.8 37.9-5.6 56.9-8.2 19.7-2.7 39.3-6.2 59.1-7.4 16.6-1 32.6-5.8 49.2-7 15.8-1.2 31.5-4 47.3-5.5 20.4-2 40.8-5 61.2-6.8 19.5-1.7 38.8-4.6 58.1-7 15.7-2 31.6-2.6 47.4-4.8 16.9-2.4 34.3-3.5 51.7-2.7 4.6.2 9.2.3 13.5-1.5.1-3.5-2.5-4.2-4.4-5.3-7.6-4.3-14.1-9.9-20.6-15.6-10.4-8.9-17.6-19.6-20-33.5-1-5.8-3.9-11.3-5.3-17.1-.8-3.2-3-4.4-5.2-5.4-15.5-7.2-29.3-16.9-42.8-27.2-5.8-4.5-13.3-5.8-20.3-7.8-22.9-6.6-45.8-13.3-67.5-23.3-24.1-11.1-47.5-23.5-69.8-38-14.3-9.3-26-21.4-39.5-31.5-7-5.2-12.3-12.2-17.2-19.3-4.8-6.9-4.5-9.6.4-16.9 4.1-6 3.4-8.5-2.2-13.1-6.4-5.2-13.9-7.8-21.4-10.3-28.2-9.4-55.9-20.4-84.9-27.3-27.3-6.4-54.3-14.6-81.7-20.3-28.8-5.9-57.6-11.5-86.4-17.5-8.9-1.9-18.1-4.4-27.5-3.5-6.3-3.3-13.5-1.6-19.9-3.7-.5-.4-1.1-1.1-1.6-1.1-11.5 0-22.7-2.9-34.3-2.2-17.7-4.2-35.9-4.6-53.8-6.6-17.8-2-35.5-3.6-53.4-2-1.7.2-3.3-.1-4.7-1.2-2.2-1.8-3.1-3.5.1-5.3 3.1-1.7 6.4-1.8 9.7-1.6 11.3.5 22.5-.4 33.8-.9 11.3 1.2 22.6 3.5 34.1 2.6 10 1.2 19.9 2.4 29.9 3.6 102.7 10.3 201.8 37.8 301.9 62.6-1-3.3-3.2-4.7-5.4-6.3-29.3-21.2-59.2-41-91.5-57.5-34.3-17.4-70.6-28.6-107.4-38.7-5.4-1.5-11.1-2.4-16.2-4.5-21-8.5-43.3-11.1-65.4-14.9-5.5-3.1-11.6-2.4-17.6-2.4-3.3 0-6.7.3-9.2-2.6-1.1-1.2-3-2-2.4-3.9.5-1.6 1.8-2.7 3.7-2.8 1.7-.1 3.4-.3 5-.1 4.9.8 9.7.5 14.6-.5 4.1.7 8.1.7 12-.7 2.6.4 5.2 1.3 7.9.7 7.5 4.1 16 3.7 24 5.3 17.9 3.5 34.8 10.3 52.4 14.8 27.6 6.9 53.5 18.8 80.3 28 13.7 4.7 26.6 11.6 39.3 18.7 2.3 1.6 3.3 5.5 7.3 5 0-3.8-2.2-5.8-4.3-7.7-7.9-15.7-16-31.2-22.9-47.4-9.4-22.3-17.4-45.1-23.5-68.6-1.4-5.5-3.5-7.5-9.3-7.6-15.2-.2-30.4-.1-45.5-.9-13.9-.7-27.8-1-41.7-1-18.8 0-37.6 1-56.4 1.3-8.6.2-17.2-.7-25.8.3-14.3-.7-28.4 1.8-42.6 3.3-10.8 1.1-21.8 1.8-32.4 4.3-2.1.5-4.6.6-6.7-1-1.5-1.2-3.9-1.7-4.3-3.9-.5-2.7 2.4-2.7 3.7-4 2.8-2.6 6.4-3.9 9.9-4.3 19.7-2.3 39.4-4.6 59.4-5.3 24.2-.9 48.5-1.5 72.7-1.8 15.1-.2 30.1-2.3 45.4-.1 11.4 1.6 23.1-2.1 34.7-1 10.4 1 20.8-.9 30.6.7 2.5-2.3 1.6-4.5 1-6.1-6-14.6-6.8-30.3-9-45.7-2.5-17.3-4.2-34.8-6.9-52.1-2.4-15.2-1.5-30.4-2.1-45.6-.3-7.2-.5-14.3-.4-21.5.3-18.6 2.8-37.1 3.7-55.6 1-18.7 3.4-37.6 8-55.9 2.4-9.7 4.2-19.4 5.7-29.3 3.5-23.3 10.5-45.7 16.9-68.3 7.8-27.8 17.1-55.2 28.8-81.5 8.3-18.7 14.7-38.5 25.3-56 13.9-23 26.6-46.7 41.3-69.3 14.1-21.8 29.7-42.4 44.7-63.6 13-18.4 27.7-35.4 44.4-50.9 12.1-11.2 24.2-22.5 36.1-34 17.2-16.7 36.8-30.4 55-45.8 15.3-12.8 32.5-22.9 48.1-35.2 18.9-14.8 40.1-26 60.6-38.2 35.4-20.9 72.1-39.4 109.4-56.6 29-13.4 59.7-22.8 90.5-31.6 14.9-4.2 29.7-8.9 44.9-11.6 25-4.4 49.8-10.5 75.1-13.3 12.7-1.4 25.7-.6 38.3-4.6 5.1-1.6 11.1-.4 16.7-.5 36.3-1 72.6-1 108.9.2 11.9.4 23.6 2.8 35.5 3.7 15.8 1.2 31.8 2.2 47.2 6.2 14.7 3.8 30 5.1 44.3 10.6 3.6 1.4 7.2 1.1 10.8 1.9 20.3 4.8 40.5 10.6 59.2 19.6 10.6 5.1 21.8 8.9 32.1 14.6 10.4 5.8 21.8 9.7 32.2 15.4 29.9 16.3 60 32.3 87.4 53 17.4 13.2 35.4 25.7 52.1 39.7 9.9 8.3 19.4 17.2 28.2 26.6 16.5 17.7 32.9 35.6 48.3 54.2 14.3 17.4 28.1 35.5 38.6 55.5 11.5 22 25.5 42.5 35.2 65.6 4.4 10.6 9.4 21.2 13.8 31.8 4.2 9.9 6.5 20.7 9.9 31 3.7 11.4 8 22 15.8 31.6 17.2 21.2 31.7 44.4 43.1 69.1 11.3 24.4 20.1 49.8 22.9 76.8 2 18.7 2.7 37.5.3 56.3-.4 3-.5 5.8.5 8.8 4.8 14.6 5.4 29.9 7.1 45 1.3 11.2 2.8 22.3 3.6 33.5.7 9.5 1.3 19.2.8 28.7-.8 18.4-.2 36.8-4 55-2.7 12.9-4.4 26.1-5.4 39.2-.9 12.1-4.4 23.5-7.3 35-5.2 20.8-11.7 41.2-17.8 61.8-6.7 22.3-16.4 43.4-24.3 65.2-10.1 27.6-24.7 52.8-39 78.2-6 10.7-9.8 22.5-17.3 32.5-10 13.3-18.4 27.6-29 40.5-6.5 7.9-11.9 16.7-18.1 25-3.2 4.2-6.9 7.9-10.5 11.8-2.2 2.4-2 4.3 0 7 19.6 25.6 27.4 55.2 31.1 86.8 2.8 23.5 1.1 46.2-5 68.8-3.5 12.9-10.2 24.4-17.4 35.5-4.4 6.8-11.7 10.9-18.7 14.7-4.2 2.3-5.3 5.1-5.3 9.6.3 15.7-3.8 30.8-6.7 46.1-1.1 5.6-4.7 8.8-11.1 9.5-25.3 2.6-50.6 5.7-75.9 8.5-5.9.7-11.6 2.8-17.7 2.1-2.6-.3-2.8 1.6-3.4 3.7-3.9 13.1-4.6 26.7-7.1 40-4.2 22.4-7.2 45.1-12.3 67.3-3.7 16.1-6.2 32.4-9 48.7-4 23.2-12.2 28.5-31 31.5-8.2 1.3-16.3 1.2-24.7-.8-12.6-3.1-11.7-2.7-15.1 8.9-4.3 14.5-12.1 26.1-22.9 36.6-13.9 13.6-30.9 20.3-49.3 24-14.2 2.8-28.5 5.8-42.9 7.1-31.7 2.9-62.8.4-92.5-13.2-14.6-6.7-24.2-18.1-34.2-29.4-10.7-12-16.6-27.1-24.1-41.2-8.9-16.8-14.5-34.8-20.4-52.8-3.6-10.8-2.2-15 7.1-21.8 21.7-16 31.5-38.8 28.1-63.7-6.3 6.2-9.5 14-14.6 20.2-14.5 17.5-30.5 33.4-48.8 46.7-7.7 5.6-16.5 9.8-24.9 14.6-13.8 7.9-14.7 11.7-7.2 25.9 5.4 10.3 14.4 14.7 25.3 17.2 17.5 4 32.3 13.2 41 28.9 9 16.4 11.9 34.2 3.5 52.5-5.8 12.6-11.9 24.6-25 31.2-20.2 10.2-41 17.9-63.9 20-13.5 1.2-27.2 2.3-40.6 2.6-19.4.5-39-1.7-57.9-7.3-9.5-2.8-19.3-4.2-28.7-7.6-20.6-7.6-37.7-19.5-52.9-35.6-15.4-16.3-29-33.7-42.1-51.7-9.7-13.4-19.8-26.6-26.4-42-4-9.4-3.9-9.5 4.2-15.8 11-8.6 24.1-13.9 34.9-22.8 13.6-11.2 26.6-22.7 34.9-38.5-2.7-3.2-5.9-3.6-9.2-3.3-28.9 3-57.9 6.1-86.8 9.1-6 .6-12 .4-17.9 1.1-25.5 3.4-51 6.9-76.5 10.7-12.7 1.9-25.7 1.9-38.4 4.2-20.7 3.9-41.7 6.7-62.5 10.3-15 2.6-29.8 6-44.8 8.6-16.3 2.8-32.7 4.7-49.1 7.4-15.7 2.6-31.3 5.5-46.9 8.6-25.4 5.1-50.8 10-76.2 15-19.3 3.8-38.8 7.2-57.8 12.9-10.7 3.2-21.9 4.9-32.9 7-10.3 2-20.7 3.8-30.6 7.2-1.8.6-3.8.9-5.8 1.1-1.5.2-2.5-.9-2.9-2.2-.4-1.3-.1-2.7 1.2-3.4 1.4-.8 2.8-1.8 4.4-2.3 40.3-10.6 80.6-21.1 121.6-28.2 3.8-.7 7.6-2.1 11.3-3.1 21.9-5.1 44.1-9 66.1-13.6 30.1-6.3 60.6-10.7 91-15.3 28.8-4.4 57.3-10.3 86-15.4 11.7-2.1 23.4-4.1 35.2-5.7 19.7-2.7 39.5-4.4 59.1-7.5 31.7-5 63.5-9.9 95.4-13.3 13-1.4 26-3.7 40.9-5.9-5.3-4.1-3.4-7.7-1.7-11.5 3.1-6.8 4.6-14 3.4-22.4-6.9 5.3-14.4 5.4-21.6 5.9-10.8.6-22.4-9.9-21.6-19.5 1.2-14.8-2.3-28.7-6.6-42.7-2.2-7.1-6.8-10.7-13.7-10.9-11.2-.4-22.5-.5-33.7.1-14.5.8-29.1 2.3-43.6 3.6-16.5 1.5-33 2.5-49.4 4.7-19.7 2.7-39.5 4.8-59.2 6.3-29.4 2.3-58.4 7.6-87.9 9-23.1 1.2-46 5.2-69 7.8-17.4 1.9-34.7 4.9-52 7.6-25.4 4-50.9 7.7-76.4 11.5-8.2 2.5-16.9 2.2-24.9 5.3-12.8.4-25.5 2.2-38.1 4.2-19.7 4.2-39.5 7.4-59.4 10-9.3 1.2-18.6 3.8-28 5.7-22.9 4.6-46 8.4-68.7 14-23.1 5.7-46.6 9-69.8 14.3-7.1 1.6-14.1 3.7-20.8 6.3-3.9 1.5-7.9.7-11.7 1.6-2.1.5-3.2-1.6-3.5-4 9-5.1 19.4-5.8 29.1-8.6 15.2-4.4 30.7-8.1 46.2-11.1 15.5-3 31-6.1 46.4-9.4 12.2-2.7 24.8-4.1 36.7-8.2 2.2.7 3.8-.6 5.7-1.3 2.3-.2 4.6-.2 6.8-.7 13.2-2.7 26.3-5.6 39.6-7.8 28-5 55.9-9.5 83.7-13.9zm1423.9-1096.9c-2.3-8-3.5-16-6.4-23.7-6.7-17.3-14.8-34-23.4-50.3-10.1-19-18.6-38.9-30.5-56.9-25.4-38.3-54.8-73.2-87.7-105.4-19.8-19.3-40.9-36.9-63.6-52.5-21.3-14.6-43.5-27.9-66-40.7-12.1-6.9-23.5-15-36-21-18.9-9.1-38-18.1-57.8-25.5-20.5-7.6-41.2-14.3-62.3-19.8-22.6-5.9-45.4-11.6-68.7-14.7-10.8-1.4-21.7-4-32.5-3.7-11.6.3-22.9-.9-34.4-2.2-20-2.2-40.1-1.1-60.1-.9-8.3.1-16.6-1.4-24.7-.9-16.8 1.1-33.5 2.6-50.2 4.8-29.2 3.9-58.4 7.9-87.3 13.6-22.7 4.5-44.6 12.1-66.9 18.2-23.4 6.4-45.7 15.6-67.9 24.8-13.7 5.7-26.9 12.7-40.6 18.6-27.8 11.8-54.3 26-79.9 42-19.4 12.1-37.9 25.6-56.6 38.8-21.7 15.2-41.9 32.4-62.8 48.7-14.2 11.1-27 23.7-41.8 34.2-8.3 5.9-15.3 13.7-22.1 21.4-22 25-47.5 47.2-63.5 77.2-3.5 6.7-9.2 12-13.3 18.2-10.4 15.6-20.6 31.4-30 47.7-11.5 20-23 39.9-33.1 60.7-6.6 13.6-13 27.4-18.6 41.5-10.6 26.5-21.8 52.7-30 80.1-5.1 17.2-10.3 34.4-12.8 52-3 21.6-7.1 43.1-10.3 64.7-3.3 22.6-6.6 45.1-8 67.9-.9 13.9.4 27.8 1.2 41.7 1.5 25.1 2.3 50.2 6 75.2 2.6 17 6.6 33.8 9.7 50.6 6.9 38.7 19.6 75.6 34.1 111.8 7.5 18.7 17.7 36.4 28.5 53.5 7.4 11.7 15.2 22.7 28.4 29.6 13.1 6.8 25.1 16 34.7 28 5.8 7.3 13.4 12.5 22.7 15.2 13.9 4.1 25.1 13.4 37.8 19.8 3.6 1.8 5.1 5.6 5 10.2-.1 4.2-1 8.9-3.4 11.2-7.2 6.8-2.4 11.5 1.7 16.3 2.8 3.3 6 6.2 9.3 9 10.3 8.8 21.6 16.4 32.7 24.2 14.4 10.1 28.9 20.2 44.7 27.9 22.6 11.1 45.9 20.7 70.3 27.1 3.4.9 7.1 2.3 10.7 1.2.1-1.2.3-1.6.1-1.8-1.8-2.3-3.7-4.7-5.6-7-26.6-30.7-46.3-65.4-60.7-103.3-16.4-42.9-23.4-87.5-23.8-133.1-.2-29.7 2.6-59.2 9-88.5 3.6-16.5 7.3-32.9 13.2-48.7 10.7-28.2 21.1-56.4 35.6-83 6.4-11.7 13.2-23 20-34.4 3.5-5.9 8.2-9.4 16.3-5.7-5.2 8.2-10.4 16.1-15.3 24.2-11.3 18.4-18.9 38.6-28.1 58-8 16.8-13.3 34.6-19.3 52.2-4.6 13.4-9.1 27.2-11 41.2-3.4 25.6-6.7 51.3-7.4 77.2-.5 19.9.3 39.7 2.6 59.4 2.2 19.4 6.9 38.4 12.7 57.1 2.1 6.9 3 14.4 5.7 21.1 5.6 14.1 12.4 27.7 19.3 41.3 14 27.8 32.9 51.6 56.7 71.2 20.7 17.1 42.1 33.5 66.7 45 3.1 1.4 5.5 2.6 5 7-1.7 17.1 7.1 30.7 16.2 43.6 6 8.6 15.2 14.6 24.1 20.5 9.7 6.4 20.7 10.4 30.7 16.3 8 4.8 12.3 11.4 14.4 20.3 3.2 13 4.6 26.1 4.5 39.5 0 3.9.6 7.1 4.2 9.4 11 6.9 21.6 5.5 30.3-4.2 5.4-5.9 8.3-5.8 12.5 1 1.7 2.8 2.8 5.7 1.8 9.4-2.3 8.6-3.9 17.4-5.9 26.1-.5 2-1.5 4 .5 5.4 9.1 6.4 19.2 10.2 30.3 9.1 10.7-1.1 17.8-7.8 23.3-16.7 4.3-6.9 4.4-6.4 12.7-4.8 8.1 1.5 16.7 2.6 23.6-3.8 10.5-9.7 20.6-19.9 28-32.2 7.4-12.2 12.7-25.4 17-39.1 7.7-24.3 9.1-48.7 5.3-73.6-.7-4.4-2.7-7.6-7.3-9.7-9.1-4-17.7-8.9-26.5-13.4-23.6-12.3-45.3-27.6-65.5-44.9-15.9-13.6-31.5-27.7-43-45.4-16.9-26.1-29.3-54.2-35.4-84.9-3.6-17.9-7.8-35.7-8.2-54-.2-13.5.6-27.1 1.2-40.6.9-20.1 5.4-39.4 9.7-58.7 3.5-15.6 9.2-30.3 14.8-45.3 9.9-26.8 21.3-52.7 36.6-77.1 10.6-16.8 23.4-31.4 37.3-45.3 4.5-4.5 11.4-6.4 12.1-3.8 1.3 4.7-2.5 7.2-5.3 10-5.3 5.5-11 10.6-15.7 16.7-11.5 15-21.8 31-30.8 47.6-8.2 15.1-17.2 30-21.1 47-2.4 10.4-6.4 20.2-10.6 29.8-1.6 3.7-3 7.4-3.6 11.2-5.2 32.7-11.5 65.2-10.9 98.5.4 20.5 1.5 41.1 6.4 61.1 4.9 19.6 12.9 38.3 21.3 56.6 11.1 24.4 27.8 45 47.7 63.1 12.8 11.6 26.9 21.4 41 31.4 15.8 11.2 32 21.4 49.4 29.5 11.9 5.6 17.6 14.8 18.7 27.1 1.3 14.5.1 29-1.9 43.4-6.2 43.8-25.1 80.6-60.2 108.5-7 5.5-14 7.2-22.2 3.7-4.5-2-7.5-1.8-10.3 3.3-4.8 8.7-12 15.1-22.5 16.1-2.8.3-3.9 1.8-5.1 3.9-15.7 26.4-38.7 45.1-64.7 60.4-15 8.8-15.3 8.3-6.2 23.5.5.9 1.2 1.6 1.7 2.5 16.3 27.5 35.3 53 57.7 75.8 9.9 10.1 18.6 21.4 32.7 26.6 15.5 5.7 30.4 12.9 47.3 14.1 5.2.4 10.5 1.5 15.5 3 13.3 3.9 27.2 4 40.4 3.3 14.7-.8 29.5-1.1 44.3-4.1 17-3.4 33.3-7.8 48.2-16.7 12.7-7.6 22.9-17.2 25-32.8 1.6-12.1-.5-23.8-5.1-35.1-5.4-13-14.6-21.7-28.5-23.3-11.9-1.4-21.3-7-30.3-13.9-10.3-7.8-15.6-18.7-18.2-31.1-1.1-5.6.5-9.9 5.8-12.3 13.4-5.8 25.4-13.9 37.6-21.9 23.5-15.5 41.8-35.5 56.5-59.3 7.9-12.8 14.1-26.4 19.6-40.3 7.4-18.4 13.7-37.4 13-57.8-.1-2.6 0-5.2.6-7.9 1.8-7.9 1.7-15.8 1-23.8-1.4-15.3-1-30.9-5.3-45.9-.5-1.9-.9-4.3 1.4-5.2 2.4-.9 4.9.3 5.9 2.4 3 6.6 7.3 12.8 7.8 20.3 1 12.9 1.8 25.8 2.5 38.7.4 7.5.1 7.2 7.8 7.3 11.4 0 22.4-2.6 33.5-4.3 9.8-1.6 19.6-2.6 28.8-6.5 2.4-1 5-1.5 7.6-1.8 1.5-.1 3.5.3 4.2 2.1.7 2-.9 2.8-2.1 3.9-2.9 2.6-6.9 2.3-10.2 3.8-20.9 9.1-42.9 13.4-65.6 14.4-4.4.2-6.4 1-6.8 6-1.5 17.9-5.2 35.4-11.3 52.3-2.3 6.5-2.4 12.9-1.2 19.5 2.3 11.9 2.8 24 .4 35.7-2.9 14.4-8.9 27.8-17 40.1-4 6.1-8.6 11.9-14.1 16.7-3.2 2.8-9.1 3.8-9.5 7.8-.4 4.2 2.5 8.8 4 13.1.8 2.2 2 4.2 2.7 6.4 7.7 25.6 20 49.2 34.9 71.2 9.3 13.7 20.8 25.7 36.6 32.8 12.7 5.7 26.2 7 39.6 8.2 18.6 1.7 37.1 1.4 55.6-1.3 15-2.1 30.2-2.7 44.6-8.4 27-10.8 45.5-28.9 53.4-57.4 3.5-12.8.4-24.2-5.7-35.2-1.5-2.8-4.1-3.9-6.7-5.5-9.9-6-21.4-6.5-31.8-10.7-20-8.1-33.5-22.1-39.8-42.7-1-3.2-3.6-6.8-1.5-10.5 1.8-3.1 5.6-1.1 8.1-3 2.1-1.5 4.8-2.3 7.1-3.5 16.1-8.8 31-19.8 43.9-32.5 31.5-31.2 50.6-68.6 50.6-114.2 0-5-.1-10 .1-15 .5-12.3.2-24.4-3.4-36.3-3-10-1-13.2 9.2-17.3 11.7-4.8 23-10.1 33.8-16.9 8.9-5.6 16.8-12.9 25.6-18.3 16.7-10.3 32.3-21.8 47.1-34.6 18-15.6 36.7-30.5 53.8-47 16.5-15.8 30.2-34.3 44.6-52.1 18.2-22.5 34-46.6 50.2-70.4 8.7-12.8 14.9-27.2 21.8-41 13.5-26.9 28.2-53.1 38.9-81.4 5.7-15.2 9.9-30.8 15.5-46 3-8.2 4.5-17.1 7.1-25.7 3.8-13 7.5-26.1 10.6-39.3 2.7-11.9 4-24.1 7.1-35.9 1.6-6.3.9-12.6 2.2-18.7 4-19.6 4.2-39.5 5.3-59.3 1.2-21.2-.6-42.4-3.6-63.4-1.8-12.8-2.9-25.8-6.9-38.1-2.3-6.9-2.8-12.9-1.3-20 3.3-15.8 2.1-31.7.7-47.6-1.9-22.2-6.6-43.8-14.6-64.6-10-25.7-22.6-49.9-39.4-72.1-14.9-19.5-29.8-38.6-48.7-54.7-19.6-16.7-41.4-28.3-66.2-34.6-4.6-1.2-8.8-1.8-10.5-7.3-.5-1.5-4.4-1.9-2.7-5 1.6-2.9 4.3-2.7 7-1.7 2.2.8 4.4 1.7 6.4 2.7 9.4 4.9 19.1 9 29 12.7 7.4 2.8 14.4 6.3 21.1 10.9 11.6 8.2 22.8 16.2 34.3 24.6zm-74.6 806.8c-3.2 3.5-5.9 5.9-8.1 8.8-10.7 14-23.3 26.3-36 38.4-21.4 20.3-43.9 39.5-68.4 56.1-6.6 4.5-6.6 4.7-2.8 11.5 10 17.7 13.9 36.4 9.8 56.5-1.5 7.5-3.3 14.9-6.9 21.7-1.9 3.6-.6 5.5 2.1 7.5 7.3 5.3 18.6 4 25.1-3.1 6.1-6.7 9.9-14.9 13.8-23 1.5-3.2 2.6-8 6.9-7.3 3.6.6 4.9 4.8 6 8.5.7 2.3.8 4.6.7 6.9-.4 13.9-3.6 27.3-8.8 40.2 8.5 3.5 8.5 3.2 22 2.2 7.2-.5 12.5-3.4 16.6-9.3 2.3-3.3 4.7-6.4 6.2-10.1 2.3-5.7 6.8-9.2 12.4-10.4 6.3-1.3 10.3-5.4 15-9.2 11.9-9.6 15.8-23.7 20.1-37 6.3-19.6 8.1-39.9 5-60.7-3.2-21.4-7.2-42.3-16.6-61.9-3.9-8.7-8.9-16.8-14.1-26.3zm-197.4 274.4c7.7 1.4 15.1-1.1 22.5-1.9 16.5-1.9 33-3.2 49.5-4.7 24.1-2.2 48.1-4.8 72.1-8.1 7.8-1.1 15.8-1.2 23.6-3.3 5.7-1.6 9-4.5 10.2-10.4 1.7-8.1 3.5-16.2 4.1-24.5.1-1.7 1.5-4-1.7-4.9-2.6 3.3-5.5 6.6-8 10.1-5.9 8.3-13.9 11.7-24 11.5-6.8-.1-13-2.5-19.4-4.1-11.2-2.7-13-7.3-8.4-18.2 2.9-6.9 5.8-13.7 4.7-21.7-2.6 5.4-6.5 9.8-9.3 15-2.1 3.8-4.9 7.4-9.9 7.5-7.3.2-14.6.5-21.7-2.3-11.2-4.4-15.5-14.2-10.1-24.8 3.3-6.5 6.2-13.2 8.2-20.2 4.9-17.1.7-32.8-7.8-47.6-3.3-5.7-7.4-6-13-2.4-16.2 10.4-32.5 20.4-50.6 27.3-4 1.5-5.2 3.4-3.5 7.4 5.2 12.6 5.1 26 4.9 39.3-.1 4.3 0 8.7 0 13 0 23.2-3.6 46-12.4 68zm61.9 4.8c-18.7 1.9-37 3.6-55.3 5.6-8.6.9-15.9 4.2-20.1 12.4-1.8 3.6-5.1 5.9-7.7 8.8-7.1 8.1-13.6 16.4-13.2 28.7.8 24.2.3 48.5 0 72.7-.1 3.7 1 5.3 4 6.8 6.7 3.3 10.2 9 12.8 15.8 2.4 6.5 2.2 13.1 2 19.7-.1 3.8 1.3 5.3 5 7 12.3 5.8 23.8 2.4 35.8-.8 7.1-1.9 10.3-5.9 11.3-13 1.6-11.5 4.1-22.8 6-34.2 5.8-33.6 11.8-67.1 16.9-100.8 1.4-9.4 4.4-18.8 2.5-28.7zm-107 55.8c-4.4.9-7.1 3.1-9.5 5.2-10.9 9.4-23 16.7-36.3 22-4.4 1.8-4.9 6.5-4.1 9.1 4.3 12.5 8.3 25.4 23.6 29.7 6.4 1.8 12.7 3.6 19.2 4.9 6.6 1.3 6.6 1.1 7.2-5.4 1.5-16.9.5-33.9.7-50.8.1-4.5.6-9.2-.8-14.7zm171.5-144.4c.3.5.5 1 .8 1.5.3-.5.8-1 .8-1.5s-.5-1-.7-1.6c-.4.6-.7 1.1-.9 1.6z"/><path fill="#0D0D0B" d="M3421.7 1190c19.5 2.6 38 2.5 56.6 2.5 19.9 0 39.7 2 59.5 3.3 18.5 1.2 37.1.9 55.6 1.4 11.9.3 23.8.5 35.7 1.1 7.4.3 9.1 2.2 8.8 10.1-.6 15.9-1.5 31.8-2.2 47.7-.8 17.2-1.4 34.5-2.4 51.7-1.3 22.8-2.2 45.5-5 68.2-1.9 15.5-1.7 31.2-3 46.7-1 12.2-1.6 24.5-2.1 36.7-.3 6.9-2.7 13.7-1.7 20.7.9 6.2-2.2 9.4-7.2 11.1-11.2 3.8-22 8.7-33.1 12.8-11.5 4.2-23.6 2.2-35.5 1.7-1 0-1.9-.5-2.9-.7-4.6-.7-9.5-1.9-13.9-.4-5.1 1.8-4.3 7.6-5.6 11.9-3.3 10.5-10.5 14.9-21.3 15.9-19.9 1.9-39.6.8-59.2-3-.3-.1-.6-.2-1-.2-4.8-.9-10.4 1.4-14.3-2.4-3.8-3.8-1.2-9.6-3.1-14.3-.8-2.1-.9-4.5-1.1-6.8-.3-3.8-2.8-5.8-6-5.1-7.6 1.7-14.9-.7-22.4-.4-4.3.1-5.8 2-6.6 5.5-.2 1-.3 2-.3 3 .3 28.6-4.7 56.8-6.5 85.3-1.1 16.4-2.4 32.8-3.4 49.2-.6 9.6 2.7 18.9 1.5 28.6-2.5 20.7-4.4 41.5-6.4 62.2-1.2 12.2-2.7 24.4-3 36.6-.2 11.6-1.7 23.1-2.2 34.7-.1 3.3-.5 6.4.9 9.8 1.5 3.6-1.1 6.5-5.1 5.8-23.8-4-48-4-71.9-7.3-14.1-1.9-28.3-2.9-42.5-4.8-15.4-2-30.8-4.2-46.2-6.4-18-2.6-36.1-4.6-53.9-8.1-25-4.8-50.5-5.9-75.6-10.9-15.1-3-30.8-3.5-46.1-6.2-38.1-6.8-76.5-10.8-114.8-16-23.9-3.2-48.1-4.7-71.9-8.7-29-4.9-58.3-7.7-87.3-12.9-21.1-3.8-42.8-4.5-64.2-7.3-14.7-1.9-29.5-3.3-44.3-5.2-12.1-1.6-24.3-2.7-36.5-4.1-25-2.8-50-4.7-74.8-9.6-12.6-2.5-25.7-2.7-38.5-4.3-22.3-2.8-44.5-6.2-66.7-9.5-11.4-1.7-22.9-3.3-34.4-4.5-1.7-.2-3.3-.2-4.9-.6-11.1-2.7-11-3-11.4-14.5-.9-26.3.4-52.7-.9-79-1.3-26.9-.6-53.8-2-80.7-.8-14.9-2.2-29.8-.8-44.5 2-20.7-1.8-41.3.2-61.9.2-2.2-.6-4.5-1-6.9-3.4 0-3.1 2.9-4.2 4.7-5.6 9.9-11.3 19.9-24.6 20.7-4 .3-8 .3-12 .6-13.9.8-27.5 1-41.4-1.5-13.5-2.4-21.1-9.9-26.4-21.4-2.5-5.5-4.9-11-5.6-17-.4-3.4-1.5-4.4-4.8-4.7-12.2-1.1-24.3-2.6-36.5-3.9-7.5-.8-9.2-2-8.1-9.2 2.3-13.9 1.2-27.9 1.6-41.8.7-28.6 3.3-57.1 2.2-85.8-1.4-35.8-2.2-71.7-6.5-107.3-.7-5.6-2.5-10.9-1.7-16.7.6-4.9 2.6-6.9 7.7-6.9 21.6-.1 43.2.7 64.8 1.6 13.9.6 27.9 1.2 41.8 2.3 13.9 1 27.8 1.8 41.7 2.3 2 .1 4 0 6-.1 2.4 0 3.6-1.3 3.6-3.7 0-3 .4-6.1-.1-9-1.9-12.5-1.7-25-.1-37.6.6-5.3.8-10.7.1-16-2-15.2-.8-30.4-.8-45.6 0-11.5.5-23.1-.2-34.5-.7-10.9.2-21.7.5-32.5.4-13.7-.8-27.6 1.2-41.3.9-6-3.4-11-10.2-11.8-5-.6-8.3-2.4-9.4-7.2-.6-2.9-1.4-4.9-4.7-5.4-2.2-.3-3.5-2.1-3.9-4.1-1.1-4.9-3.6-7.1-8.9-7.5-3.8-.3-5.3-4-4-7.6 1.4-4 .5-6.4-3.6-7.5-5.1-1.5-5-8-8.9-10-3.7-1.9-8.3-2.1-11.9-4.6-3.2-2.3-4.8-5.6-5-9.3-.8-20.4-2.7-40.7-.3-61.2 1-8.5 1.2-17.3.6-25.9-.6-9.1 4.8-13.5 11.5-16.6 8.7-4 18.2-3.9 27.2-.7 7.8 2.7 10.9 9.6 11.1 17.2.5 28.9.5 57.8.8 86.7 0 3.9-.7 7.2-4 9.7-3.2 2.3-4.2 5.4-4.2 9.5 0 6.4 1 9.4 7 11.9 3.8 1.6 7.2 3.5 8.6 7.5 1.5 4.3 7 2.9 8.9 9.1 3.4-12.9 3.2-23.6 3.2-34.3.2-30.2-.7-60.5.6-90.7 1.3-30.6 1.6-61.1 1.7-91.7 0-6-1.2-12.1-.4-17.9.8-6-2.1-7.7-6.8-8.6-5.3-1-9.9-3.8-15-5.1-6.3-1.7-8.8-5.7-8.4-11.7.6-9.5.7-19.3-.3-28.5-1.6-14.6-.5-29.2-2.1-43.7-.7-6.2 2.1-10.7 3.2-16 2.1-9.9-.6-19.7.1-29.6.4-5.5 1.8-7.8 7.1-8.5 6.6-.9 13-2.7 19.6-3.5 3.8-.4 5.3-1.8 5.2-5.5-.5-12.7 1.2-25.4.3-38.2-.8-11.5 1.2-23.1 1.1-34.7-.3-24.6-1.5-49.2.3-73.6 1.9-25.6 1.5-51.1 2.7-76.6.9-19.5 1.8-39 1.2-58.5-.5-14.9 2.4-29.8 1.9-44.7-.2-7 .2-14 .4-21 .7-25 1.3-50 2.1-75 .2-6.9 3-13.5.8-20.6-.8-2.7 1.5-3.9 4.1-4.3 5.5-1 11.1-1 16.5-1 43.4-.1 86.8-2.8 130.2-3.6 15.5-.3 31 .5 46.4-.8 35.5-3 71 0 106.4-2.6 16.1-1.2 32.1 1.8 48.2-.6 8.4-1.2 17.1-.6 25.6-1.1 39.4-2.2 78.9-1.4 118.3-1.6 14.9-.1 29.7-1.3 44.5-3.3 8.1-1.1 16.2-.7 24.3 1.1 3.8.9 8 .4 12 .3 29.2-1.2 58.4.8 87.5-.9 31.6-1.9 63.1.6 94.6-2 15.5-1.3 31.1-.5 46.6-2.8 18.8-2.8 37.8-2.5 56.7-2.7 36.9-.4 73.8-1.9 110.7-3.4 16.5-.7 33-1 49.6-.6 11.8.2 23.6-2.5 35.4-3 15.8-.6 31.5-3.8 47.5-1.5 5.4.8 10.8-2.2 16.6-1.9 4.5.3 5.9 1.8 5.4 6-2 16.1-.7 32.2-2.4 48.4-1.8 17-3.5 34.1-4.7 51.3-1.3 17.8-2.5 35.6-4.4 53.4-1.4 13.2-2.1 26.5-3 39.7-1 15.5-3.3 30.9-4.9 46.4-.1.7-.4 1.3-.4 1.9.3 21.6-3.7 43-4.1 64.5-.3 16.9-3.9 33.5-4.9 50.4-2.1 33.5-6.7 66.8-9.4 100.3-1.8 22.5-3.1 45-4.4 67.5-1 18.1-3.2 36.1-4.8 54.1-1.9 21.1-2 42.4-3.2 63.7-1.5 24.7-4 49.4-4.9 74.2-.8 22.2-3.5 44.3-5.4 66.4-3 34.9-4.3 69.9-8.6 104.8-1.5 12.4-3.1 25-3.2 37.7-.1 10.2-2.3 20.4-3.7 30.5-2.3 17.2-3 34.4-4 51.6-1 18.2-2.4 36.3-3.6 54.5-.9 13.2-1.6 26.5-2.4 39.7-1.2 18.8-2.7 37.7-3.7 56.5-.6 8.4-.8 17.3-2.1 26.1zM2385.1 628.6c.1-5.2 4-4.5 7.2-4.3 20.6 1.6 41.1-.3 61.6-1.5 14.9-.9 29.6-3 44-7.2 3.8-1.1 7.7-2 9.2-6.6 4.8-14.7 6.7-29.9 5.5-45-1.2-14.2-7.5-27.4-14.3-39.9-1-1.8-2-3.6-4-4.1-8.3-2-15.7-6.6-24.5-7.8-13.4-1.8-26.9-3.8-40.2-6.2-22.6-4-45.3-5.2-68.1-6.9-1.7-.1-3.3-.1-5-.1-2.3 0-4.2 1.1-4.2 3.3.4 8.8-2.5 18 2 26.4 1.5 2.8 1.8 5.5-1.1 6.7-4.2 1.7-3.8 4.8-3.8 8.1v26c0 5.3-.3 10.6 5.8 13.6 2.3 1.1 3.2 4.2.6 5.7-6.1 3.6-4.7 9.8-5.2 14.8-1.1 11.7 1.4 14.3 12.9 16.9 5.2 1.2 10.2 2.7 15.4 3.9 2.6.6 3.8 2.5 5.2 4.3-.4 13.6-2.6 27-2.1 40.7 1.3 34.3-.7 68.5-1.9 102.8-.3 7.6.1 15.3-.7 22.9-2.7 24.9.2 49.9-1.8 74.8-.4 4.6 4.6 9.4 7.5 7.1 5.8-4.6 7.9 1.2 11.3 3.4 4.4-9.9 5.1-8.7 14.6-13.8 5.7-3 9-10.6 13.4-16.1.1-.1-.2-.6-.3-.9-2-4.8.6-8.8 3-12.1-1.8-2.6-3.8-2.7-5.8-3-13.1-2.1-15.4-4.8-16-18-.1-1.7 0-3.3-.2-5-3.3-22.6-1.3-45.1.7-67.6.6-7.2 2.4-8.1 9.7-8 24 .3 47.9.7 71.9.8 11.6.1 23.3-.8 34.9-.4 33.9 1.3 67.8.2 101.7.7 9.2.1 9.6-.1 11.8 9.3 5.7 24.8 7 49.9 6.6 75.3-.1 6.3-4.4 11-4.5 17 0 1.6-1.5 2.2-2.8 2.3-2.9.4-6 1.1-8.9.8-13.5-1.5-27.2-1.2-40.7-2.1-21.5-1.4-43.1-.5-64.6-2.5-21.1-1.9-42.4.2-63.5-2.3-2.6-.3-5.3-.4-8-.3-6.6.1-7.5.9-7.7 7.4-.2 4 .2 8.2-3.7 10.8-4 2.6-5.2 6.6-6.7 10.7-3.2 8.7-5.2 9.7-15 8.2-.2 4.3-.2 8.8-2.7 12.5-3.3 4.9-8.2 2.8-12.8 2.2-1.6-.2-2.1 1-2.6 2.3-1.8 5.9-5.9 7.2-11.7 6.2-4.6-.9-7.6 1.9-5.9 5.8 1.7 4.1 1 7.8.9 11.7-.3 9.2-1.1 18.4-1.2 27.6-.3 22.8-1.9 45.6-.9 68.4.5 9.9-1 20-.6 29.8.9 23.2.8 46.5 3.1 69.7.6 6.1.4 12.3.6 18.1 9.5 1.5 17.9 3.4 26.5 4.1 22.2 1.7 44.4 2.9 66.6 4.1 27.7 1.6 55.6.9 83.2 4.6 22.3 3 45 2.2 67.4 4.9 19.3 2.3 39 2.4 58.4 5.2 11.7 1.6 23.6 1.6 35.3 2.6 20.1 1.6 40.4 1.8 60.5 4.2 24.3 2.9 49 3.8 73.7 3.3 3-.1 6-.1 8.9.5 9.4 1.9 19 2.6 28.5 3.6 11.2 1.2 22.5.7 33.7 1.2 24.9 1 49.7 3.4 74.6 3.7 17.6.2 35.1 2.6 52.8 2.3 7.9-.1 15.9.4 23.9.6 16.3.2 32.4 3.2 48.6 3.6 26.9.5 53.7 2.6 80.6 4.2 40 2.3 80.1 4 120 7.6 15.7 1.4 31.6 1.7 47.3 3 11.3 1 22.5 1.3 33.8 1.8 4.6.2 6.8-1.2 6.7-6.1-.5-22.3 1.9-44.4 3.6-66.5 1.7-21.8 2.8-43.7 4.1-65.5.8-14.9 1.4-29.8 2-44.7.2-6.3.3-12.7 2.9-18.6 1.1-2.5 1-5.2 1.2-7.8 1.1-20.1 1.7-40.3 4.3-60.4 3.5-26.6 5-53.5 7.7-80.2 3.4-33.3 5.6-66.7 8.2-100 2.6-33.7 4.5-67.5 7.6-101.1 3.5-37.9 4.5-76.1 7.6-114.1 2.6-31.7 5-63.5 6.7-95.3 1-18.5 3-37.1 5.2-55.5 2.1-17.5 2.7-35 5.2-52.5 2.5-17 2-34.4 4.1-51.5 2.8-22.8 3.3-45.7 5.5-68.4 1.7-17.5 2.8-35 4.4-52.5 2.2-23 1.5-46.2 4-69.2 1.3-12.2 2-24.5 2.8-36.7.7-11.4 2.4-22.9.6-34.4-25.5 1.6-50.4 3.4-75.2 4.2-35.1 1.2-70.2 4.2-105.4 4.1-40.2-.1-80.2 3.6-120.4 3.7-21.8.1-43.7 1.7-65.6 2.7-32.2 1.5-64.5 2.3-96.7 2.3-27.6 0-55.2-.2-82.8-.2-29.6.1-59.1 0-88.7 1.6-32.4 1.7-64.8 1-97.2 2-37.2 1.1-74.3 2.3-111.5 3.8-28.5 1.1-57.1 2.6-85.6 2.4-36.9-.3-73.7 3.2-110.6 2.8-6.3-.1-12.8-.5-18.9.5-9.2 1.5-18.1 3.5-27.6 1.8-4.1-.7-8.5.7-12.8 1.1-1.9.2-3 1.4-3.4 3.1-.6 2.6-1.1 5.2-1.3 7.9-2.5 27.5-1.5 55.1-3.2 82.6-1.6 26.2.4 52.4-1.9 78.7-1.5 16.8-2 33.9-1.9 50.8.1 40.6-2.7 81.1-2.3 121.7 0 4.7-.1 9.3-.2 14-.8 22.6-.8 45.2.5 67.8.5 8.6.9 16.9-2.8 25.2 5.2 1.2 8.9 1.7 9.8-4.8.4-3.1 3.4-4.8 6.8-4.6 5.7.4 11.2-.6 16.9-.4 14.7.4 29 3.4 43.6 4.5 13.9 1 27.6 3.2 41 7.3 4.9 1.5 9.2 3.7 12.5 7.7 10.5 12.7 18.6 26.7 22.5 42.8 5.6 22.7 2.6 43.3-14.3 60.8-1.4 1.4-2.9 2.8-4.1 4.3-6 7.9-14.8 11.5-23.8 13-31.5 5.1-63.2 8.9-95.2 7.6-5.8-.6-11.4-.9-16.3-4.2zm1121.7 865.2c2.1 1.4 4.5 1.2 6.8 1 14.3-1 28.6-.5 42.9 0 9.6.3 10.1.1 10.5-9.6.6-13.9 2.9-27.7 2.3-41.8-.5-10.6.2-21.2.3-31.9.3-23.8 3.2-47.4 3.7-71.2.3-13.7-.3-27.4.7-40.9 1.9-25.9 1.6-51.8 1.9-77.8.1-4.5-1.8-6-5.6-6.4-9.5-.9-19-2.6-28.6-2.8-16.2-.4-32.4-1.2-48.6-1.7-19.3-.7-38.5-2.8-57.8-2.2-25 .9-49.8-.3-74.8-1.4-22.2-1-44.2-2.9-66.3-4.6-13.9-1-27.8-2.5-41.6-3.1-24.9-.9-49.7-3.2-74.5-5-21.9-1.6-43.8-2.2-65.6-3.6-22.2-1.4-44.4-2.2-66.6-3.5-36.4-2.2-73-1.4-109.4-4.8-14.8-1.4-29.6-2-44.4-2.9-16.5-1-33.1-.8-49.6-2.3-18.8-1.7-37.8-1.5-56.6-3-15.9-1.3-31.8-2.2-47.6-3.6-23.4-2-46.9-3.7-70.5-4.3-19.9-.5-39.6-4.1-59.6-3.5-10.9.3-21.9.9-32.9-.4-15.1-1.8-30.2-3.7-45.3-5.1-23.4-2.2-46.8-4.8-70.2-6.9-25.4-2.2-50.9-4.2-76.3-6-18.8-1.3-37.8-2.4-56.3-6-8.3-1.6-16.3.9-24.6-1.2-13.2-3.3-27-3.2-40.4-4.4-10.8-1-21.7-1.1-32.5-2.3-2-.2-4-.2-6-.1-7.1.5-7.8 1.6-6.9 8.5 1.6 12.8 3.7 25.6 4.5 38.5 1.2 20.5 1.6 41.1 2.1 61.7.5 19 0 37.9-1.4 56.8-1 13.3 0 26.5-1.6 39.8-1.2 10.2-.3 20.6-.2 30.9 0 2.2-.3 5.3 3.1 5.2 10.4-.4 20.4 2.6 30.5 3.9 6.2.8 7.5-1.8 7-8.4-1.5-19.8-3-39.7-2.3-59.5.2-7.6 1.6-15.2 1.2-22.8-.6-12.7.6-25.2 2.3-37.8 1.7-12.5 5.1-15.9 17.3-17.6 2.9-.4 5.9-.7 8.9-.8 11.7-.7 23 2.1 34.5 3.8 9.4 1.4 15.9 7 16.6 16.4 1.4 19.3 1.4 38.6.5 57.9-.6 12.6-.6 25.2-1 37.8-.3 9.7 1.5 19.8 1.5 29.8 0 11.1.3 11.4 11.6 11.6.7 0 1.4.1 2 0 12.7-2.6 25 .5 37.5 1.9 26 2.9 52 5.9 78 9 21.5 2.6 43.1 2 64.6 3.8 7.3.6 14.5 1 21.8 1.7 20.1 2 40.2 4.5 60.3 6.2 19.8 1.7 39.8 1.7 59.5 4.4 22.7 3.1 45.5 4.9 68.2 7.2 20.8 2.1 41.5 4.4 62.3 6.7 9.9 1.1 19.8 1.4 29.7 2.6 25 2.9 50 5.9 75 8.6 12.2 1.3 24.5 2.1 36.7 3.3 14.2 1.4 28.3 3.5 42.5 4.5 19.5 1.4 39 3.6 58.5 5.2 27.1 2.2 53.9 7.1 81 9.3 19.8 1.6 39.4 4.9 59.1 7.3 13.2 1.6 26.3 3.1 39.5 4.3 13.2 1.2 26.7.9 39.7 3 21.9 3.7 44.2 4.4 66.1 7.9 10.3 1.6 20.7 0 30.8 2.2 17.8 3.9 36.2 2.3 53.9 6.8.9.2 1.9-.3 2.8-.5 1.5-3.3.9-6.7.9-10-.2-19.7-.6-39.3-.6-59 0-10.6.4-21.3 1.2-31.9.9-13.2 1.8-26.4 3.2-39.6 1.2-10.9 2.6-21.6 5.3-32.3 1.7-6.3 5.4-9.3 11-9.7 17.3-1.2 34.6-2.1 51.7 1.8 6.9 1.6 11.5 5.3 13 13.2 1.9 10.5 1.1 21.2 2.5 31.7 1.6 12.3-1.2 24.5-1.1 36.8.1 4.3 1.4 8.7 1 12.8-1.9 18.2-1.5 36.5-1.3 54.8-.5 11.2-.8 22.4-1.4 33.6zm-129.3 15v-4.2c-.2-7.3-.6-7.9-8-8.2-7.6-.2-15.2-1.5-22.8-1.5-7.6 0-15.2-.9-22.7-2.6-12.9-2.9-26.1-4-39.3-5.1-31.3-2.5-62.5-6.2-93.6-10.1-22.4-2.8-44.8-4.5-67.2-8.2-20.2-3.3-40.8-3.5-61.1-6.5-24.3-3.6-48.7-4.8-73.1-7.4-7.9-.8-15.8-1.9-23.7-2.7-15.8-1.4-31.6-2.5-47.4-4.1-6.3-.6-12.5-1.3-18.8-2.1-12.2-1.5-24.5-1-36.7-2.2-18.1-1.8-36.1-4.1-54.2-6.1-15.2-1.7-30.7-1.9-45.4-5.4-12.2-2.8-24.4-1.7-36.5-3.7-9.2-1.5-19-1.6-28.5-2.4-21.4-1.9-42.7-5.2-64.2-7.1-12.9-1.1-26-.7-38.6-3.6-12.7-2.8-25.5-1.6-38.2-3-31.3-3.4-62.7-5.5-94.1-8.3-23.8-2.1-47.5-4.3-71.3-6.6-7.5-.7-7.9-.7-7.9 7.1.1 10.5.7 21 1 31.5.1 5.3.5 10.7 0 16-1.5 14.6-1.4 29.1-1.3 43.7.1 15.6 2 31.1 1.5 46.8-.4 14.9.2 29.8.5 44.7.4 14.9 1.2 29.9 1.3 44.8.1 14.5-.1 29 .6 43.6.2 4.4 1.7 6.2 6.2 7.1 20.5 4.1 40.9 8 61.7 10.5 35.8 4.4 71.5 10.1 107.3 15.3 4.6.7 9.2 1.9 13.8 1.9 14.4-.1 28.2 4 42.4 5.3 13.1 1.2 26.3 2.8 39.4 4.1 28.3 2.9 56.8 4.4 84.9 9.1 27.4 4.6 55.1 7.4 82.6 11.8 26.5 4.3 53.2 7 79.9 9.8 13.8 1.5 27.7 3.1 41.4 5.4 14.7 2.5 29.4 4.5 44.2 6.5 12.5 1.6 25 3.1 37.4 5 18 2.7 35.8 6.9 53.8 8.4 22.9 1.9 45.2 6.8 67.9 9.6 16.5 2 32.7 5.2 49 8 25.7 4.4 51.7 7.7 77.6 10.9 19.7 2.5 39.5 4.1 59.2 6.1 4.9.5 9.9 1 14.8 1.7 3.8.6 5.4-.7 5.7-4.7 1.2-14.9 3.6-29.7 3.8-44.6.3-21.5 2-42.9 3.3-64.3.8-13.9 2.3-27.7 3.4-41.6 1.7-20.8 2.6-41.7 3.4-62.6.7-16.9 2.2-33.7 3.3-50.6 1-11.9.4-24.3 3.3-35.2zm-791.3-678.6c13-.7 25.9 1.3 38.9.5 7.4-.4 7.7-1.2 8.7-8 2.3-15.6.9-31.1-.8-46.6-.9-7.9-1.9-15.8-3.5-23.6-1.5-7.4-2.4-7.5-10-7.6-13-.3-26 1.7-38.8.9-21.6-1.4-43.2-.6-64.9-1.3-19.2-.6-38.4.1-57.6-.3-12.9-.2-25.8-2-38.8-1.3-2.6.1-6.6-.5-6.4 2.9.5 9.3-2.3 18.4-1.5 27.7.9 10.9 1.3 21.8 1.9 32.8.3 5 .4 10 .8 14.9.5 5.6 5.3 4.7 8.9 6 3 1.1 4.3 0 5.3-2.6 1.3-3.2 4.4-6.3.2-9.7-1.8-1.5-3.4-3.2-4.8-5.1-8.8-11.3-7.5-27.5 2.8-36 3.9-3.3 16.3-5.1 17.4-2 2.2 6 6.4 4.5 10.3 4.5 9 .1 18 .5 26.9-.4 11.7-1.1 23.5-.8 35.1-.9 13.9-.2 27.8-.8 41.8.7 13.4 1.4 27.1 1.2 40.6.8 4.8-.1 7.8 1.1 9.3 5.3 2 5.3 3.6 10.7 3.2 16.5-.4 6.9-1.9 8.6-9.2 8.6-20.3.1-40.6 0-60.8-.3-14.9-.3-30-2.5-44.7-1.2-12.9 1.1-25.7.1-38.5.5-6.3.2-8.6 2.3-10.8 7.2-4.3 9.6-.5 16.4 9.6 14.9 10.4-1.6 20.4-.3 30.7.1 28.9 1.1 57.8 1.5 86.7 2.2 4 0 8-.1 12-.1zm991.3 663.3c11.2-1.7 20.5-6 29.8-10.2 4-1.8 5.6-5.7 5.8-9.8.6-11.9.6-23.8 1.4-35.6.7-10.6.5-21.3 1.5-31.8 1.9-19.5 5.1-38.8 5.5-58.4.2-12 4.5-23.5 3.7-35.5-1.2-17 .8-34 2.6-50.7 1.7-15.2-.8-30.7 3.4-45.7.8-2.8-.7-4.5-3.8-4.2-11.6 1.2-23.1 2.1-34.7 3.7-7.1 1-8.4 2.8-8.7 10.9-1.3 28.8-2.3 57.6-2.1 86.4.1 9 2.5 17.8 1.1 26.8-1.6 10.2-.5 20.4-1.1 30.6-1.4 25.1-1.8 50.4-2.7 75.5-.4 15.4-2.3 31-1.7 48zm-64 9.9c-4.9-2.9-10.1.9-14.9-1.3-4.5-2.1-8.9-3.4-14.1-.4-3.5 2-6.2-.6-6.1-4.9.2-7.5.7-15.1.9-22.6.3-17.6.5-35.3.7-52.9.1-8.9 1.6-17.9 1-26.6-1.1-14.8.2-29.5-.6-44.2-.5-9.1.5-18.2-.6-27.4-.7-5.8-3.5-7.2-8.4-7.1-6.7.2-13.3.4-20 .4-9.8.1-11.4 1.1-13.1 10.9-1.7 10.1-3.1 20.3-4.1 30.5-1.6 16.2-2.9 32.4-4 48.6-.9 13.9-2.5 27.9-1.7 41.7.7 12.3.5 24.6 1.1 36.8.4 8.6 1.3 17.2 2.4 25.7.4 3.5 1.2 7.5 6.2 7.7 10.2.4 20.3 3.5 30.7 1 1.9-.4 4.1-.8 5.9-.3 8.8 2.4 17.9.3 26.8 1.7 2.2.3 4.9.5 6.2-2.1 2.1-4.9 6.2-9.2 5.7-15.2zm-1195.9-258.1c-.9 5.8-1.6 11-1.6 16.3-.2 19.2.1 38.4 1.1 57.6 1.3 27.4 1 55 1.5 82.4.1 3.3-.3 6.7-3.6 6.9-4.3.3-3.7-4-3.6-6.7 1.2-21.3-4.2-42.3-3.8-63.5.3-17.5-1.4-35 .3-52.6 1.2-11.9 1.7-23.8 2.1-35.7.2-7-1.5-8.7-8.4-9.5-4.9-.6-9.9-.8-14.8-1.2-14-1.1-16.8 1.6-17 16.2-.3 12.9-3.4 25.7-.3 38.6.4 1.8 0 4-.3 5.9-1.6 9.9-1.8 19.9-.6 29.7 1 8 1.2 15.8.3 23.8-.6 5 .3 9.9.2 14.8-.2 8.9 2.6 17.3 3.2 26.1 1.1 14.4 4.1 23.5 24.6 26.7 15.7 2.5 31.1.5 46.6-.3 2.1-.1 3.7-1.2 5.3-2.5 5.9-4.9 8.6-11.7 11.1-18.5.5-1.4 1.1-3.9-.7-4.4-4.5-1-9.1-1.6-13.7-1.8-2.6-.2-3.7 2.4-5.2 4.1-2 2.3-3.1 7.3-7 5.5-3.4-1.5-1.5-6-1.6-9.1-.6-16.3.9-32.5.2-48.9-1.1-28-3.3-56.1-.5-84.2 1.1-10.9-.6-12.7-11.6-15.7h-2.2zm1285.9-40.1c-1.3-.1-2.6-.3-3.9-.4-22.3-.7-44.6-.7-66.8-2.3-17.9-1.3-35.8-2.8-53.6-3.3-39.5-.9-79-1.4-118.5-4.1-22.5-1.6-45-3.5-67.6-4-24.9-.5-49.6-3.2-74.5-4.6-28.2-1.5-56.3-4.6-84.5-5.5-27.2-.9-54.4-2.9-81.6-4.2-23.2-1.1-46.4-2.5-69.7-2.7-26.2-.3-52.4-1.3-78.5-3.7-23.5-2.2-47.1-2.7-70.6-4.1-26.2-1.7-52.3-3.8-78.4-5.4-10.6-.7-21.2.1-31.8-.9-27.4-2.6-54.9-4.6-82.4-5.5-6.6-.2-13.6.9-19.9-.7-16.6-4.2-33.7-3.7-50.5-4.7-21.6-1.2-43.1-2.5-64.6-4.4-21.1-1.8-42.2-4.3-63.4-5.7-10.4-.7-20.9-2-31.4.4 24.4 2.6 48.8 4.6 73.2 6.9 18.5 1.7 36.9 3.9 55.3 5.9 12.5 1.3 25 3.1 37.6 4 22.5 1.7 45.1-.3 67.7 1.8 18.1 1.7 36.4 2.6 54.7 3.2 20.5.7 41 3.4 61.4 5 15.9 1.2 31.7 2.7 47.7 2.9 15.9.3 31.8 2.3 47.7 3.1 28.8 1.4 57.7.7 86.5 3.9 24.4 2.7 49 3.5 73.6 3.9 19.6.3 39.1 2.2 58.7 2.7 7.7.2 15.3.2 23 .6 12.9.8 25.8 2.8 38.7 2.7 21.2-.2 42.3 2 63.3 3.3 13.2.8 26.5 1.7 39.7 2.6 29.1 2 58.2 4.8 87.3 6.6 7.3.4 14.8-.6 21.9.6 14.8 2.4 29.7 2.7 44.6 3.2 18.6.7 37.3-.1 55.9.5 25.9.8 51.7 2.4 77.6 3.5 11.6.5 23.4-.4 34.8 1.3 14.2 2.4 27.6-2 41.3-2.4zM2325.3 831.7c-.6-1.5-.6-2.3-1.1-2.6-9.1-6.7-11.9-17.1-7.2-26.9 3-6.2 6.2-7.6 11.6-3.8 4.6 3.2 10.2 3.5 14.8 7.5 1.5-19.4-.4-37.7-.1-56 .2-15.2-2.1-17.3-17.8-17.6h-4c-8 .3-8.3.9-10.3 9-2.5 10.2-1.2 20.5-1.5 30.8-.5 16.1-2.6 32.3-.3 48.5 1.5 10.2 4.4 12.4 15.9 11.1zm1162.5 490c0 20.9.1 41.7 0 62.6-.1 32.6-.3 65.1-.5 97.7 0 1.3-.1 2.7-.5 3.9-1.7 5 1 6.7 5.2 7.2 5.4.7 7.1-.7 7.2-6.5.2-11.3.2-22.5.3-33.8.1-22.3.3-44.5.4-66.8 0-1.6.5-3.3.6-4.9 1.1-16.2 1.4-32.4-.6-48.5-1.2-9.2-1.6-9.1-12.1-10.9zm-978.1-525.4c28.9-.4 57.7 1.5 86.5 2.6 5.2.2 6-1.1 5.6-6-.5-5.9-5.2-5.5-8.8-5.7-27.8-1.7-55.6-4.4-83.5-4.2-17.9.1-35.9-.4-53.7 2-6.3.8-6.4 1.5-4.8 7.4 1.3 4.8 4.8 3.8 7.9 3.9h50.8zm-107.9-300.5c16.7 2.2 33.4 4.3 50.1 6.6 11.8 1.6 23.4 4.4 34.8 7.6 11 3.2 18.3 9.9 21.9 20.7 2.8 8.5 5.8 16.9 8.7 25.3 2.6 7.4 2.9 15 1.5 22.6-.9 5.1-.5 9.9-.9 16.9 7.2-8.7 9.6-16.4 10.4-25.4 1.8-20.5-3.1-38.6-15.4-54.9-3.3-4.4-7.3-7.6-12.8-8.9-4.8-1.1-9.4-3.2-14.4-3.9-15.4-2.1-30.7-4.9-46.2-6.7-12.8-1.4-25.1-1.1-37.7.1zm43.2 301.1c-1.3-5.8-2.2-11.7-6.3-16.4-3.3-3.9-5-4.1-8.6-.3-6.1 6.6-6.4 17.2-.7 25.8 1.9 2.8 4.2 5.9 7.6 5.6 4.3-.3 5.4-4.5 6.5-7.9.8-2.2 1-4.5 1.5-6.8zm-120.1 5.5c-4.3 4.3-3.9 8.9-3 13.5.9 4.4 3.3 7 8.1 6.9 4.9 0 5.7-4 6.9-7.2 1.6-4.4-.8-7.6-4.7-8.1-3.4-.5-4.6-2.9-7.3-5.1zm81.1 335.5c-22.5-3.3-45-6.6-67.9-4.2 22.7.3 45 6.9 67.9 4.2zm-72.1-307.4c9.7-3.1 9.7-3.1 8.4-11.4-2.4 4.7-4.9 8.3-8.4 11.4zm106.3-5.9c.4-.8-.3-1.7-1-2.2-.7-.4-1.8-.6-2.6.3-1.8 1.9-3.7 3.8-2.8 6.7.4 1.3 1.9 2.6 2.8 2.1 2-1.1 2.9-3.3 3.4-5.6.1-.4.1-.7.2-1.3zm-33.2 56.5c2.6-.2 3.1-2.1 3.2-4.1.1-1.3 0-2.8-1.8-2.6-2.5.3-4.4 1.5-4.1 4.4 0 1.5 1.4 2 2.7 2.3zm15.3-15.5c1.4-.4 2.5-1.1 2.9-2.5.2-.9.8-1.9-.5-2.4-2.1-.8-3 .6-3.2 2.3-.1.8.5 1.8.8 2.6zm13.1-21.9c0 .2-.9-.5-1.8-.6-1.9-.2-2.8 1.3-2.9 2.9 0 .7.9 2 1.5 2.1 1.9 0 2.8-1.3 3.2-4.4zm-44.1 39.4c-1.3.3-1.8 1-1.9 1.9-.1 1.3-.2 2.6 1.1 3.4 1.1.7 2.1-.2 2-.8-.1-1.5-.8-3-1.2-4.5z"/><path fill="#C8F0F7" d="M336.6 2189.8c25.5-3.8 50.9-7.5 76.4-11.5 17.3-2.7 34.5-5.7 52-7.6 23-2.5 45.9-6.6 69-7.8 29.5-1.5 58.5-6.7 87.9-9 19.7-1.6 39.5-3.7 59.2-6.3 16.4-2.2 32.9-3.3 49.4-4.7 14.5-1.3 29-2.8 43.6-3.6 11.2-.6 22.5-.5 33.7-.1 6.9.2 11.5 3.8 13.7 10.9 4.3 13.9 7.7 27.9 6.6 42.7-.8 9.6 10.9 20.1 21.6 19.5 7.2-.4 14.6-.6 21.6-5.9 1.2 8.4-.3 15.6-3.4 22.4-1.7 3.8-3.6 7.3 1.7 11.5-15 2.2-27.9 4.5-40.9 5.9-32 3.4-63.7 8.3-95.4 13.3-19.6 3.1-39.4 4.9-59.1 7.5-11.8 1.6-23.5 3.6-35.2 5.7-28.7 5.1-57.2 11-86 15.4-30.4 4.6-60.9 9-91 15.3-22 4.6-44.2 8.5-66.1 13.6-4-3.3-4.6-7.7-4.3-12.5.1-2.2.4-5.2-2.9-5.3-2.6-.1-2.7 2.3-3 4.3-.2 1.3-.1 3.1-.9 3.7-3 2.3-3.7 7.6-8.9 7-2.7-.3-7.7-6.8-8.2-10.4-.1-.7 0-1.3-.1-2-.6-11.2-.6-11.2-11.6-11.3-5.4-.1-11 1.2-14.7-5.2-1.3-2.2-7.6.4-8.1-5.9-1.1 1.7-1.5 2.6-2.1 3.3-2.8 3.3-5.6 7.4-10.6 5.4s-2.2-6.9-2.9-10.5c-.2-1-.1-2 0-3 .5-6 3.5-7.5 8.4-4.2 1.3.9 1.6 3 4.2 3.3 2.4-3.5 4.7-7.3 7.5-10.8 2.9-3.7 6.4-2.9 7.8 1.6.3.9.2 2 .3 3 .3 1.9 1.5 2.9 3.4 2.9 1.8.1 3.9-.5 3.8-2.3-.4-9 7.7-9.1 12.7-11 4.8-1.8 8.1-3.9 10-8.4 1.2-2.8 2.1-5.6 5.5-6.6 1.5-.4 2.2-1.7 2.2-3-.3-6.4 2.8-10.1 8.3-13.3 5.4-3.2 4.9-9.3.1-13.7-4.3-3.8-5.9-9.3-8.3-14.2-1.9-3.9-5.8-4.9-7.4-1.5-3.1 6.9-8.5 6.3-14.2 6.1-1.3 0-2.7 0-4 .1-1.7.1-3.4.5-3.8 2.5-.3 2 1 3 2.8 3.3 1 .2 2 .2 3 .3 3.1.4 3.5 2.6 3.4 5.1 0 2.7-1.2 4.5-4.1 4.6-2.3.1-4.7.2-7 .2-7.8-.1-6.7-.4-9.1-8-1.9-6.9-2.2-14.6-6.5-20.8zm59.3 55.8c-1.1 9.1 1.5 17.3-4 24.3-1.2 1.5-.6 4.7 1.4 6.4 2.7 2.3 2.2 5.4 2.3 8.3.1 1.7 0 3.3.1 5 .1 2 .2 4.3 2.8 4.4 2.7.1 3-2.1 3.1-4.1.1-4.6 0-9.3.1-13.9.1-1.7-.6-4.3 3.4-4-1 6.9 3.5 9.3 9.6 9.7-.4 1.4-.4 2.2-.7 2.5-2.7 2.7-3.1 5.8-1.3 9 1 1.8 12.6 5.7 14.2 5.2 2.4-.7 2.4-2.7 2.8-4.7 1.3-6.7-4.7-11.3-5.1-17.5 0-.5-1.6-1.3-2.4-1.3-6.3.3-6.8-3.7-6.6-8.4.1-2.3-.1-5.8-3-5.3-8.7 1.5-10.9-4.2-13.1-10.5-.5-1.6-1.8-2.7-3.6-5.1zm11.1-16c.3 2.7.5 4.9.7 7.2.1 2.7.3 5.5 3.9 5.6 2.5.1 5.7 1 7.2-1.6s1.4-5.6-1-8.1c-2.8-2.9-5.6-5.5-10.8-3.1zm60.6 51c-.2-1.6 1-5.7-4.2-5.8-3.9 0-5.6 2.5-5.7 7.7 0 3.3.4 5.9 4.7 6.1 4.7.1 5.5-2.7 5.2-8z"/><path fill="#C7EEF5" d="M335.7 1773.1c-12.7-7-25.6-14-39.3-18.7-26.8-9.2-52.7-21-80.3-28-17.6-4.4-34.6-11.2-52.4-14.8-8-1.6-16.5-1.1-24-5.3-.2-2.3.8-5.8-1.2-6.4-6.1-1.7-7-5.7-6.8-11 .2-4.3-3.2-4.2-6.3-4.4-2.8-.2-6.4 1-7.3-3.2-.7-3.1-.2-6 3.5-7.1.1 0 12.2-7.8 12.3-7.8 3.7-.4 4-3.1 3.7-5.8-.4-4-8.3-8.9-12-7.5-2.2.9-3.6 4.8-6.6 2.3-2.7-2.2-6-4.5-5.2-8.9 8.6-1.1 17.2-.1 25.8-.3 18.8-.4 37.6-1.3 56.4-1.3 13.9 0 27.8.2 41.7 1 15.1.8 30.3.7 45.5.9 5.8.1 7.9 2.1 9.3 7.6 6 23.4 14.1 46.2 23.5 68.6 6.8 16.2 15 31.7 22.9 47.4-.8 1.3-1.9 2.1-3.2 2.7zM125.6 1718.8c22.1 3.8 44.3 6.4 65.4 14.9 5.1 2.1 10.8 3 16.2 4.5 36.8 10.1 73.1 21.3 107.4 38.7 32.3 16.4 62.3 36.3 91.5 57.5 2.2 1.6 4.4 3 5.4 6.3-100.1-24.8-199.2-52.3-301.9-62.6-1.4-5.6-4.7-11.6 3.3-15-.6-.9-.8-1.8-1.3-1.8-11.9-1.8-11.9-1.8-11.9-14.5 0-4.3-.1-8.7 0-13 .1-2.5-.8-6 2.8-6.6 3.7-.6 8.1-2.4 10.8 2 1.1 1.9 2.1 3.3 4.4 3.4.3 5-1.6 10.6 1 14.7 3.4 5.4 3.4 10.4 1.4 16.9 6.7-1.2 10.4 4.9 16.3 4.5 3.4-.2 6.6 0 8.6 3.6 1 1.8 3.1 2.5 5.3 1.8 7.7-2.5 9.9-12.7 4.3-18.7-2.5-2.7-5.6-4-8.7-4.3-4.3-.5-8.7-2.9-10.2-5.4-4.3-7.6-9.9-4.9-15.4-3.5-1.1-3.4 1-7.2-2.4-9.6.1-2.6-.1-5.3 3.5-6.1 3.8-1 4.3-4.2 4.2-7.7z"/><path fill="#C9F1F8" d="M273.5 2199.4c12.6-2 25.3-3.9 38.1-4.2-3.4 4.4-4.5 9.2-4.1 14.7.4 5.2.6 10.3-3.3 15-2.6 3.2 1.8 9.5-4.2 12.2-.7.3-.5 1.2.4 1.3 6.2.3 4.9 5.1 5.4 8.8.3 2.4 2 3.3 4.2 3.4 2.3.1 4.7.1 7 .5.8.1 1.7 1.1 2 1.9.5 1.4-.1 2.7-1.5 3.1-5.8 1.8-10.9 6.1-17.8 4.7-2.4-.5-5.6-1.2-7.3 1.6-1.4 2.3-2 3.6-3.1 0-1-3-3.6-4.3-6.3-3.5-3.9 1.1-6.7 1.3-8.7-3.1-.7-1.6-3.4-.9-3.9.9-.8 2.8-1.6 7.5 2.1 7.3 7.7-.3 6.8 7 10.4 10.1 1.2 1.1.6 3.8-1.3 3.9-5.4.4-8.5 6.7-14.3 5.5-3.4-1.9.7-8.9-5-8.2-4.4.6-2.1 5.5-2.6 8.5-.4 2.6-1.2 4.5-4.2 4.4-3.1-.1-3.8-2.2-3.8-4.7 0-2.7.1-5.3 0-8-.1-3.6.3-6.6 4.9-7.1 3.1-.4 3.2-3 3.1-5.4-.1-1.7-.4-3.4-2.3-3.9-2.5-.7-4 .3-5.8 2.4-3.3 4.1-4 3.6-5.8-1.5-2-5.4-4.3-10.7-6.7-15.9-1.1-2.3-2-4.5 0-6.3 2-1.8 4.5-1.5 6.3.5 2.3 2.5 4.4 2.8 6.6.1 2.1-2.4 4.9-1.7 7.5-1.7 2.2 0 4.9-.5 5.8 2.5.8 2.6 0 4.5-2.7 5.6-1.7.6-2.9 1.9-2.1 3.8.9 2.4 3.2 2 5.1 1.9 2.2 0 4.1-1 3.9-3.5-.2-2.6-1.2-5.1-1.6-7.7-.3-1.9-.6-4.3 1.2-5.6 2-1.5 3.6-.1 5.1 1.4.9.9 2.3 1.2 3.5 1.7 5 2 5 2 10-1.9v10.2c0 2-.1 4.1 2.3 5 1.6.6 3.3.7 4.6-.7 1.5-1.6 1.7-5.1.8-5.5-7.6-3-2.6-15-12.4-16.8-1.9-.3-5.6-4.9-5.2-8.9.8-6.9-1.8-12.8-4.3-18.8zm11.3 56.2c1-3.8 1.4-6.4-.9-11.3 0 4.8-.8 7.3.9 11.3zM97.7 2013.2c.7 8.5-4.6 14.6-8.6 21.2-1.8 3-9.6 3.2-12.6.9-.5-.4-.8-1.1-1-1.7-1.4-5-9.2-.4-9.8-6.4-.4-3.9 0-7.7-4.8-9.8-2-.9-1.1-4.2 1.3-4.3 6.1-.2 7.7-3 7.6-8.8-.1-5.6 3.7-7.6 8.5-4.4 3 2 5.7 3 9.1 2.8 11.9-.6 10.2 1.9 10.3 10.5zM112.6 2192.7c-2.8-.2-5.9.9-7.8-1.1-3-3.1-5-3-8.3-.1-2.4 2.1-5.9 2-6.7-2.3-.5-2.6-2-3.8-4.1-5.1-3-2-3-6-.9-7.8 2.2-1.9 4.3-5.7 9-3.7 7.2 3.2 7.5 2.9 9.9-4.2.7-2.2 1.7-3.4 4-3.6 1.6-.2 3.3-.4 4.8-1.1 1.6-.7 3.2-3.6 4.6-.7 1.3 2.7.2 5.3-3.4 5.6-2.7.2-5.6.1-5.8 3.9-.1 2-.3 4.1 1.7 5.4 2.4 1.6 10.1.8 11.8-1.8 2.2-3.4 7.2-4.7 7.3-9.9 0-1.5 2.4-3.1 3.9-4.3 1.9-1.5 4.2-1.2 4.7 1.2.6 2.9 1.3 7-.1 8.7-3 3.4-4.7 7.6-7.8 10.6-2.9 2.7-7.4 3.2-8.6 8.5-.9 3.1-5.5 1.3-8.2 1.8zM27.4 1880.7c3.2-.1 5 .6 6.5 4.3 2.7 6.7 5.6 13.4 8.3 20 .8 1.9 1.3 3.7 1.4 5.7.3 6.4-.6 7.6-5.8 7.9-6.5.4-7.8-.3-8-6.6-.2-4.6-.8-7.6-6.4-7.7-3.3 0-5.3-3.3-7.8-5.2 2.7-2.7 1.8-6.1 2.2-9.4.4-5.3 4.4-8.9 9.6-9zM99.7 1652.8c6.1-.8 10.2-.3 10.2 6.5 0 3.1 3 2.7 5.2 3.4 4.8 1.4 5.5 3.6 2.6 7.7-1.3 1.9-2.8 3.8-4.6 5.1-2.3 1.5-5.1 2-7-.8-3.8-5.5-8.6-8.6-15.5-8.1-2 .1-4.1-.3-4.6-2.7-.5-2.6-1-5.4 2.1-6.9 4.1-2 7.1-6.8 11.6-4.2zM255.7 2322.1c1.5 4.3-1.6 8-4.3 11.7-2.7 3.7-6.6 3.6-9.6.1-6.4-7.4-4.2-16.1-3.7-24.5.2-3.5 8.1-4.1 11.9-1.1 3.9 3.2 5.6 7.1 5.7 13.8zM85.7 1932.2c0 7-1.6 9.3-6 9.1-7.4-.4-12-4.4-12.1-10.4 0-7 3.5-11.9 8.7-12.1 5.9-.3 9.4 4.7 9.4 13.4z"/><path fill="#C7EEF5" d="M79.6 1774.4c-11.5.9-22.7-1.4-34.1-2.6-1.4-6.7 4.6-8.7 8.4-10.5 3.8-1.8 9-2.1 12.7 2.4 3.1 3.9 6.6 7.3 11.9 8 .5.1.8 1.8 1.1 2.7z"/><path fill="#C9F1F8" d="M93.4 1680.7c3.1-.2 6.3.2 6.3 4.9 0 1.7.1 3.7 1.8 4.3 4.5 1.7 5.3 5.3 3.4 8.7-2.2 3.7-6.6 2.1-10 1.7-3.2-.4-9.1-8.9-9.1-12.2-.2-6.6.7-7.5 7.6-7.4zM53.2 1788.6c3.5-.3 6.7.4 6.6 5.6 0 1.7.5 3.3 2.2 4 4.5 1.9 4.8 5.8 2.4 8.8-2.4 3-6.8 1.8-10.2 1.1-3.5-.8-8.6-9.1-8.5-12.7.1-6 .8-6.7 7.5-6.8zM88.8 1844.1c-6.4 4.4-14.3 4.3-19.4 10.1-.7.7-1.2.9-1.4 0-1.7-5.6-6.8-2.6-10.7-4.4 3.5-1.5 5.2-5.4 9.3-5.2 5.7.4 4.5-11.2 10.8-7.1 3.6 2.4 6.6 5.6 11.4 6.6zM89.5 1807.5c0 1.7.2 3.4 0 5-.6 3.7-6.4 6-8.1 3-2.1-3.9-5.8-7.3-5.7-12.2 0-2.7 1-4.7 4-4.6 3.4.2 7.6-1.8 9.5 2.9.7 1.8.4 3.9.5 5.9h-.2z"/><path fill="#C7EEF5" d="M131.6 1705.8c-3.9 1.4-8 1.4-12 .7.5-3.3-1.7-5.3-3.3-7.8-1.3-1.9-1.3-4.9.2-6.5 2.8-2.9 6.7-1.7 10.2-1.3 2.5.3 2.7 2.5 2.8 4.5.2 3.6-.5 7.3 2.1 10.4z"/><path fill="#C9F1F8" d="M352.1 2250.6c-9.2 0-10.8-1-10.4-5.7.2-1.8.6-3.5 2.5-3.8 4.2-.8 8.6-.8 12.8 0 2.4.5 2.6 2.7 2.6 4.7 0 2.1-.5 4.1-3 4.4-2 .3-4 .3-4.5.4zM103.6 1846.4c-.4 3 1.6 8-4.9 8.2-2.6.1-4.7-.8-4.8-3.7-.2-3-.1-5.9-.1-8.9-.1-3.7 1.6-5.4 5.4-5.3 3.5.1 4.5 2.2 4.5 5.2-.1 1.3-.1 2.6-.1 4.5z"/><path fill="#FDFDFD" d="M305.6 2186.4c-27.9 4.4-55.8 9-83.6 13.6-13.3 2.2-26.4 5.1-39.6 7.8-2.2.5-4.6.5-6.8.7-.2-3.4 1-5 4.6-6.3 4.9-1.7 4.7-6.6.1-9.4-4.2-2.6-5.8-6.9-4.5-11.1.9-2.9 3.2-3 5.6-3 6.7 0 13.3 0 20-.1 2.3 0 5 .4 5.8-2.6.9-3 .6-5.8-2.5-7.8-5.1-3.3-9-9-16.4-7.7-2 .3-4.3-.4-4.1-3.1.2-2.6 2.6-2.6 4.6-2.7 3.1-.2 5.9.8 8.8 1.5 4.3 1.1 7.3.6 8.4-5.2 1-5.3 5-9.9 3.8-15.9-.4-1.9.6-4.5-1.4-5.5-2.7-1.4-3-2.6-1.2-5 .7-.9 1-3.1.4-3.8-4.9-5.6-3.6-12.4-4.1-18.9-.3-3.1-2.8-3.2-5.2-3.5-4.1-.4-5.5-2.1-2.7-5.8.6-.8 1.5-1.5 1.7-2.4.8-3 1.2-6.4 5.5-5.4 4.1 1 2.6 4.7 2.9 7.5.1 1 0 2 0 3 .2 10 1.1 10.7 9.6 5.7 3.3-1.9 4.3 1.7 6.9 1.5 5.1-.5 10.8-1.2 13.4 5.3 8.9 1.5 7.3 9.2 8 14.8 1.5 11 5.9 15.6 16.8 15.8 3.4.1 7.1-.9 11.3 1.7-4.1 3.2-9.8 1.8-11.8 6.9-1 2.5-2.7 4.7-1.3 7.4 1.3 2.6 4 1.8 6.2 1.9 2.7.1 4.9-.6 7.4-2.1 5.2-3.2 7.3-2.1 7.5 3.8.3 9.6 5 16 12.7 20.8 4.2 2.6 6.6 1.4 7.5-3.5.5-3-1.7-8.3 2.9-8.1 5.1.2 2.6 5.7 3 9 .1 3.5-.2 6.9-.2 10.2zm-74.4-26.5c-2.3-3-1.2-6.2-1.9-9-.7-2.6-2.4-3.9-5-4.1-1.7-.1-3.3.3-4.2 2-2.1 4 .2 16.2 3.3 19.6 2.2 2.3 5.9 2.7 7.1 6.6.7 2.2 4 2 6.1.4 1.5-1.2 2.7-3.7 4.3-3.9 7.2-.7 6.9-5.6 6.7-10.8-.3-7.4-3.6-9.7-10.8-8-3.8.9-2.1 5.2-5.6 7.2zM341.6 2180.4c-8.6 1.4-16.8 5.4-25.9 4.1-.5-4.8.2-9.2 4.4-12.4 5.2-3.9 3.7-10.3 5.2-15.5.9-3 1.6-5.5 4-7.6 3.1-2.6 7.4-4.5 6.8-9.8-.2-1.4 1.4-2.2 2.8-2.1 1.4.2 2.3 1.2 2.5 2.7.1 1.7.2 3.3.2 5 0 2.9.5 5 4 5.8 5.2 1.3 5 3.8.6 6.2-2.1 1.2-2.7 3-2.4 5 .7 6.4-1.5 12.4-2.2 18.6zM183.5 2092.6c-1.9-.1-4.2.3-5.3-1.9-1.1-2.1-2.6-5.3-4.8-3.3-2.7 2.5-8 2.7-7.8 8.1.1 3.3 0 6.7-.1 10 0 3.2-.8 6-4.5 6.8-3.2.7-4.2-1.5-6.1-3.6-6.1-7.1-2.7-15.2-3.1-22.9-.1-1.9 1.6-3 3.4-2.9 5.1.1 9.5-1 13.6-4.5 3.2-2.7 7.6-3.5 8.8 2.9.7 3.7 3.6 3.3 6.3 3.4 2.9.1 5.5.5 5.3 4.3-.1 3.7-3 3.5-5.7 3.6z"/><path fill="#FFF" d="M170.1 1989.8c-2.8-4.6-6.8-6.2-12.6-5.2 2.7-6.8 2.2-12.4 2.1-18 0-4 1.5-6.2 5.8-6.1 2.3.1 4.6-.1 6.9 0 2.5.1 5.8-.8 6.7 2.6.9 3.5 2.1 8.8-.8 10.2-7.4 3.6-5.9 10.3-8.1 16.5z"/><path fill="#FDFDFD" d="M300.4 2085.8c1.7 2.3 1.1 4.6 1.2 6.9.3 4.8.9 9.3 7 10.2 1.8.3 2.9 1.5 2.3 3.5-.4 1.5-1.7 2-3 2-7.3.1-14.5.1-21.8.1-2.7 0-4.5-1.3-4.4-4.2.1-3.1-1.6-8.4 2-8.7 7.4-.6 9.4-8.7 16.7-9.8z"/><path fill="#FFF" d="M143.9 1808.4c-.2 2.7-.2 4-.5 5.3-1 3.6-5.9 7.2-8.7 6.6-3.6-.7-5.9-4.9-5.4-9.6.3-2.9.1-5.9.4-8.8.5-5.1 4.4-7.1 7.9-3.6 3.1 2.9 7.4 5.9 6.3 10.1z"/><path fill="#FDFDFD" d="M149.7 1792.8c6.5 2.1 13.7.3 19.9 3.7v14.9c0 3.1-1.1 5-4.6 5.2-3.8.2-5.5-1.5-5.5-5.2 0-2-.1-4-.1-6 0-2.7-1.1-4.7-4-4.6-6 .2-5.9-3.8-5.7-8zM296.1 2063.7c-2.3 6.3-4.6 12.6-7 18.9-.3.7-1.4 1.4-2.2 1.6-1.5.3-2.8-.6-2.8-2-.2-4.3-1-7.6-6.4-8.1-1.9-.2-3.2-2.6-2.7-4.6.6-2.4 2.7-2.6 4.8-1.6 2.2 1 4.5.8 6.8 1 4.6.4 7.6-1 7.5-6.8.7.4 1.4 1 2 1.6zM303.6 2122.1c.1 3.6-.4 6.4-4.5 6.4-3.4 0-6.4.4-8.8 3.3-.7.9-2.5.8-3.5-.5-.9-1.2-1-2.6 0-3.6 1.8-1.8 3.1-4.3 5.9-5 1.9-.4 4-.4 4.9-2.6.8-1.9 1.7-3.8 4.2-2.8 2.2 1 1.6 3.3 1.8 4.8z"/><path fill="#FFF" d="M233.8 1882.8c-5.1 2.8-9.3 2-13.3 1.4-3-.4-3.3-3.1-2.4-5.4.9-2.3 3.3-2.7 4.7-.9 2.5 3.5 6.8 1.7 11 4.9zM1729.5 1089.5c-11.5-8.4-22.7-16.4-34.1-24.2-6.7-4.6-13.7-8.1-21.1-10.9-9.9-3.7-19.6-7.8-29-12.7-2.1-1.1-4.2-1.9-6.4-2.7-2.7-1-5.4-1.2-7 1.7-1.7 3.1 2.2 3.5 2.7 5 1.8 5.5 6 6.1 10.5 7.3 24.8 6.2 46.5 17.9 66.2 34.6 18.9 16.1 33.9 35.1 48.7 54.7 16.8 22.1 29.4 46.3 39.4 72.1 8 20.8 12.7 42.3 14.6 64.6 1.4 15.9 2.5 31.9-.7 47.6-1.5 7-.9 13.1 1.3 20 4 12.3 5.1 25.3 6.9 38.1 2.9 21 4.8 42.2 3.6 63.4-1.1 19.8-1.3 39.7-5.3 59.3-1.2 6.2-.6 12.5-2.2 18.7-3 11.8-4.3 24-7.1 35.9-3.1 13.2-6.7 26.3-10.6 39.3-2.5 8.5-4 17.5-7.1 25.7-5.7 15.2-9.8 30.9-15.5 46-10.7 28.2-25.3 54.5-38.9 81.4-7 13.9-13.1 28.3-21.8 41-16.2 23.8-32 47.9-50.2 70.4-14.4 17.8-28.1 36.3-44.6 52.1-17.2 16.5-35.8 31.4-53.8 47-14.8 12.8-30.4 24.3-47.1 34.6-8.8 5.4-16.6 12.7-25.6 18.3-10.7 6.8-22.1 12.1-33.8 16.9-10.2 4.2-12.2 7.3-9.2 17.3 3.6 11.9 3.9 24.1 3.4 36.3-.2 5-.1 10-.1 15 .1 45.6-19 83-50.6 114.2-12.8 12.7-27.7 23.7-43.9 32.5-2.3 1.3-5 2-7.1 3.5-2.5 1.9-6.4-.1-8.1 3-2.1 3.7.5 7.2 1.5 10.5 6.3 20.6 19.8 34.6 39.8 42.7 10.4 4.2 22 4.7 31.8 10.7 2.6 1.6 5.2 2.7 6.7 5.5 6 11.1 9.2 22.4 5.7 35.2-7.9 28.5-26.4 46.7-53.4 57.4-14.4 5.7-29.6 6.3-44.6 8.4-18.5 2.6-37.1 3-55.6 1.3-13.5-1.2-26.9-2.5-39.6-8.2-15.8-7.1-27.3-19.1-36.6-32.8-14.8-22-27.1-45.5-34.9-71.2-.7-2.2-1.9-4.2-2.7-6.4-1.6-4.4-4.5-8.9-4-13.1.4-4 6.4-5.1 9.5-7.8 5.5-4.8 10.1-10.6 14.1-16.7 8.1-12.3 14.1-25.7 17-40.1 2.3-11.7 1.9-23.8-.4-35.7-1.3-6.7-1.2-13 1.2-19.5 6.1-16.9 9.7-34.4 11.3-52.3.4-4.9 2.4-5.8 6.8-6 22.6-1 44.6-5.3 65.6-14.4 3.3-1.4 7.2-1.2 10.2-3.8 1.3-1.1 2.9-2 2.1-3.9-.7-1.8-2.7-2.3-4.2-2.1-2.6.2-5.2.8-7.6 1.8-9.3 3.8-19.1 4.9-28.8 6.5-11.1 1.8-22.1 4.4-33.5 4.3-7.7 0-7.4.2-7.8-7.3-.6-12.9-1.5-25.8-2.5-38.7-.6-7.5-4.8-13.7-7.8-20.3-1-2.1-3.5-3.3-5.9-2.4-2.3.9-2 3.3-1.4 5.2 4.3 15 4 30.6 5.3 45.9.7 8 .8 16-1 23.8-.6 2.7-.7 5.3-.6 7.9.7 20.4-5.7 39.3-13 57.8-5.5 13.8-11.7 27.4-19.6 40.3-14.6 23.8-33 43.8-56.5 59.3-12.2 8-24.2 16.1-37.6 21.9-5.4 2.3-7 6.7-5.8 12.3 2.5 12.4 7.9 23.3 18.2 31.1 9 6.9 18.4 12.5 30.3 13.9 14 1.6 23.2 10.3 28.5 23.3 4.7 11.3 6.7 23 5.1 35.1-2.1 15.5-12.3 25.2-25 32.8-14.9 8.9-31.1 13.3-48.2 16.7-14.8 3-29.6 3.2-44.3 4.1-13.2.8-27.1.6-40.4-3.3-5-1.5-10.3-2.6-15.5-3-16.9-1.2-31.8-8.4-47.3-14.1-14.1-5.2-22.8-16.5-32.7-26.6-22.4-22.8-41.5-48.3-57.7-75.8-.5-.9-1.1-1.6-1.7-2.5-9.1-15.2-8.8-14.6 6.2-23.5 26-15.3 49-34 64.7-60.4 1.3-2.1 2.3-3.6 5.1-3.9 10.5-1 17.7-7.4 22.5-16.1 2.8-5 5.8-5.2 10.3-3.3 8.1 3.6 15.2 1.9 22.2-3.7 35.2-27.9 54-64.6 60.2-108.5 2-14.4 3.2-28.9 1.9-43.4-1.1-12.3-6.8-21.5-18.7-27.1-17.4-8.2-33.6-18.4-49.4-29.5-14.1-10-28.2-19.8-41-31.4-19.9-18-36.6-38.7-47.7-63.1-8.3-18.3-16.4-37-21.3-56.6-5-20-6-40.6-6.4-61.1-.6-33.3 5.6-65.9 10.9-98.5.6-3.8 2-7.6 3.6-11.2 4.3-9.7 8.2-19.4 10.6-29.8 3.9-17 13-31.9 21.1-47 9-16.6 19.2-32.5 30.8-47.6 4.7-6.1 10.3-11.2 15.7-16.7 2.8-2.8 6.6-5.3 5.3-10-.7-2.6-7.6-.7-12.1 3.8-13.9 13.9-26.7 28.5-37.3 45.3-15.3 24.3-26.6 50.2-36.6 77.1-5.5 14.9-11.3 29.7-14.8 45.3-4.3 19.4-8.8 38.6-9.7 58.7-.6 13.5-1.4 27.1-1.2 40.6.3 18.3 4.6 36.1 8.2 54 6.1 30.7 18.5 58.8 35.4 84.9 11.5 17.7 27.1 31.8 43 45.4 20.2 17.3 41.9 32.6 65.5 44.9 8.8 4.6 17.4 9.5 26.5 13.4 4.7 2 6.6 5.2 7.3 9.7 3.9 24.9 2.4 49.3-5.3 73.6-4.3 13.7-9.6 26.9-17 39.1-7.5 12.3-17.6 22.5-28 32.2-6.8 6.4-15.4 5.3-23.6 3.8-8.3-1.5-8.4-2.1-12.7 4.8-5.5 8.9-12.6 15.6-23.3 16.7-11.2 1.1-21.3-2.8-30.3-9.1-2-1.4-1-3.4-.5-5.4 2.1-8.7 3.7-17.5 5.9-26.1 1-3.7-.1-6.6-1.8-9.4-4.1-6.8-7.1-6.9-12.5-1-8.8 9.7-19.4 11.1-30.3 4.2-3.6-2.3-4.3-5.4-4.2-9.4.1-13.3-1.3-26.5-4.5-39.5-2.2-8.8-6.4-15.4-14.4-20.3-10-6-20.9-9.9-30.7-16.3-8.9-5.9-18.1-11.9-24.1-20.5-9.1-12.9-17.9-26.5-16.2-43.6.4-4.4-2-5.6-5-7-24.6-11.5-46-28-66.7-45-23.8-19.6-42.7-43.4-56.7-71.2-6.9-13.6-13.6-27.2-19.3-41.3-2.7-6.7-3.5-14.1-5.7-21.1-5.8-18.7-10.5-37.6-12.7-57.1-2.3-19.7-3.1-39.5-2.6-59.4.7-25.9 4-51.6 7.4-77.2 1.9-14 6.4-27.8 11-41.2 6-17.5 11.3-35.4 19.3-52.2 9.2-19.4 16.8-39.6 28.1-58 5-8.1 10.1-16 15.3-24.2-8.1-3.7-12.8-.1-16.3 5.7-6.8 11.4-13.6 22.7-20 34.4-14.5 26.6-25 54.8-35.6 83-6 15.8-9.6 32.1-13.2 48.7-6.4 29.3-9.3 58.8-9 88.5.4 45.6 7.4 90.2 23.8 133.1 14.5 37.9 34.2 72.6 60.7 103.3 2 2.3 3.8 4.6 5.6 7 .2.2 0 .6-.1 1.8-3.6 1.1-7.3-.3-10.7-1.2-24.4-6.5-47.7-16.1-70.3-27.1-15.7-7.7-30.3-17.8-44.7-27.9-11.1-7.8-22.4-15.4-32.7-24.2-3.3-2.8-6.6-5.7-9.3-9-4.1-4.9-8.9-9.6-1.7-16.3 2.4-2.3 3.3-7 3.4-11.2.1-4.5-1.4-8.4-5-10.2-12.7-6.4-24-15.7-37.8-19.8-9.3-2.7-16.8-7.9-22.7-15.2-9.6-11.9-21.6-21.1-34.7-28-13.3-6.9-21-17.9-28.4-29.6-10.8-17.1-21.1-34.8-28.5-53.5-14.5-36.2-27.2-73.1-34.1-111.8-3-16.9-7.1-33.6-9.7-50.6-3.7-24.9-4.5-50.1-6-75.2-.8-13.9-2-27.8-1.2-41.7 1.4-22.8 4.7-45.3 8-67.9 3.2-21.6 7.2-43 10.3-64.7 2.5-17.6 7.6-34.9 12.8-52 8.2-27.4 19.4-53.6 30-80.1 5.6-14.1 12-27.9 18.6-41.5 10.1-20.7 21.6-40.7 33.1-60.7 9.4-16.3 19.6-32.1 30-47.7 4.1-6.2 9.8-11.5 13.3-18.2 15.9-30.1 41.5-52.2 63.5-77.2 6.7-7.7 13.8-15.5 22.1-21.4 14.7-10.5 27.6-23.2 41.8-34.2 20.9-16.3 41.1-33.5 62.8-48.7 18.7-13.1 37.2-26.6 56.6-38.8 25.5-16 52.1-30.2 79.9-42 13.7-5.8 26.8-12.9 40.6-18.6 22.3-9.2 44.5-18.4 67.9-24.8 22.3-6.1 44.2-13.7 66.9-18.2 28.9-5.7 58.1-9.7 87.3-13.6 16.7-2.2 33.5-3.6 50.2-4.8 8.1-.6 16.4.9 24.7.9 20.1-.2 40.1-1.4 60.1.9 11.4 1.3 22.7 2.5 34.4 2.2 10.8-.3 21.7 2.2 32.5 3.7 23.3 3.1 46 8.7 68.7 14.7 21.1 5.5 41.8 12.3 62.3 19.8 19.8 7.3 38.8 16.3 57.8 25.5 12.5 6 23.9 14.1 36 21 22.5 12.8 44.7 26.1 66 40.7 22.7 15.6 43.8 33.1 63.6 52.5 32.9 32.2 62.3 67 87.7 105.4 11.9 18 20.4 37.9 30.5 56.9 8.7 16.4 16.8 33 23.4 50.3 2.7 7.3 3.9 15.3 6.2 23.3zm-483.2 1004.9c5.1-.5 10.7-.2 16.4-.9 27.2-3.5 54.3-7.8 80.9-14.6 12.8-3.3 25.8-6 38.2-10.5 4.3-1.6 8.5-3.7 12.6-5.9 2.2-1.2 3.5-3.1 2-5.8-1.2-2.2-2.6-3.9-5.5-2.6-1.2.5-2.5.8-3.8 1.1-18.9 3.3-36.8 10.5-55.5 14.3-15.8 3.3-31.4 8-47.4 10.5-18 2.8-35.9 6.3-54.2 6.7-2 0-3.4 1.1-3.6 2.7-.3 1.7 1 3 2.8 3.6 5.3 1.9 11 1.2 17.1 1.4zm426.1-732.2c-.2-3.6-.3-7.1.6-10.8 1.6-6.3-2.6-10.8-6.7-14.6-2.8-2.7-12-1-15.7 2.3-3.2 2.9-6.3 5.8-8.1 10-2.8 6.7-6.6 13.1-8.7 20-3.5 11.4-6.4 23.2-3.4 35.2 1.7 6.7 5.4 12.7 12.8 13.8 6.8 1 11.2-4.2 14.2-9.4 8.3-14.3 15.3-29.3 15-46.5zm39.2 116.1c7.3.6 13.4-1.5 18.9-5.7 8-6.2 14.6-13.4 18.6-22.9 3.6-8.5 5.2-17.5 7-26.6 2.8-14.6-.3-28.1-7.2-40.9-1.4-2.7-2.4-7.4-6.8-5.5-4.7 2.1-1.1 5.8-.1 8.5 8.9 23.2 4.6 44.9-7.9 65.4-4.1 6.7-10.1 12.3-17.7 15.6-6.3 2.8-11-.6-16.3-3.8-3.8-2.3-6.9 1.5-8.6 4.7-1.7 3.2 0 5.9 3.2 7.2 5.6 2.4 11.1 4.8 16.9 4zm-100-2.1c-7.3-1.2-14.1-3.3-21.2-2.1-25.2 4.2-47.3 14.2-64.5 33.7-4.4 4.9-8.8 10-11.6 16-1 2-1.6 4.6.9 6.3 1.8 1.2 4.2 1.4 5.6-.1 3.7-4.1 9.1-5.8 12.8-10.3 11.8-14.1 26.4-24.9 42.5-33.8 3.1-1.7 6.7-3.1 10.4-2.8 6.3.5 12.4-1.4 18.7-1.5 3-.1 4.8-1.6 6.4-5.4zm-24.6-137c13.5.6 24.5-5.4 34.2-13.7 8-6.8 15.5-14.4 22.1-22.6 6.1-7.5 8.3-17.1 9.8-26.6.4-2.5-1-3.5-3-4.3-2.6-1-3.4.4-4.3 2.4-4.8 10.2-11.2 19.3-18.4 28-12.6 15.2-27.7 26.3-47.6 29.8-2.6.5-5.3.7-7.8 1.2-1.4.3-2.4 1.3-2.5 2.7 0 1.6 1.1 2.2 2.6 2.2 5 .3 10 .6 14.9.9zm188.9 49.7c-.9 8.1 2.2 15.2 3.7 22.7.8 4.1 4 4.1 6.9 2.5 1.6-.9 2.8-2.8 3.8-4.5 4.9-8.3 8.3-17.3 11-26.5 1.7-5.6 2-11.7 2.3-17.6.2-4-1.1-7.6-5.4-9.7-4.1-1.9-6.9 0-10 2.1-2 1.4-3.6 2.9-4.8 4.9-4.6 8.3-8.1 16.8-7.5 26.1zm-475.6 874.2c-1.2-.1-1.5-.1-1.9-.1-6.1-.1-10.7 1.9-10.1 4.7 1 4.5 5.5 4.4 8.8 5.1 15.1 3.4 28.6-1.6 41.5-8.9 1.7-1 3.8-1.9 3.1-4.4-.7-2.7-2.1-4.7-5.2-5.4-2.6-.5-4.4.7-6.4 1.7-9.7 4.9-20.1 6.4-29.8 7.3z"/><path fill="#FDFDFD" d="M1654.9 1896.3c5.2 9.5 10.2 17.7 14.3 26.2 9.4 19.6 13.4 40.5 16.6 61.9 3.1 20.8 1.3 41.1-5 60.7-4.3 13.3-8.2 27.3-20.1 37-4.7 3.8-8.7 7.8-15 9.2-5.7 1.2-10.1 4.7-12.4 10.4-1.5 3.7-4 6.8-6.2 10.1-4.1 5.9-9.3 8.8-16.6 9.3-13.5 1-13.5 1.3-22-2.2 5.1-12.9 8.4-26.2 8.8-40.2.1-2.3-.1-4.5-.7-6.9-1.1-3.7-2.4-7.9-6-8.5-4.3-.7-5.4 4.1-6.9 7.3-3.9 8.1-7.7 16.3-13.8 23-6.5 7.2-17.8 8.4-25.1 3.1-2.7-2-4-3.9-2.1-7.5 3.6-6.7 5.4-14.2 6.9-21.7 4.1-20.1.1-38.8-9.8-56.5-3.8-6.8-3.9-7 2.8-11.5 24.5-16.6 47-35.8 68.4-56.1 12.6-12 25.3-24.3 36-38.4 2-2.8 4.7-5.2 7.9-8.7z"/><path fill="#C7EEF5" d="M1457.5 2170.7c8.8-22 12.4-44.8 12.5-68.1 0-4.3-.1-8.7 0-13 .2-13.3.3-26.7-4.9-39.3-1.6-4-.5-5.8 3.5-7.4 18-6.9 34.4-16.9 50.6-27.3 5.6-3.6 9.7-3.3 13 2.4 8.5 14.8 12.7 30.5 7.8 47.6-2 7-4.8 13.7-8.2 20.2-5.4 10.6-1.1 20.4 10.1 24.8 7.1 2.8 14.4 2.4 21.7 2.3 5-.1 7.8-3.7 9.9-7.5 2.8-5.2 6.7-9.6 9.3-15 1.1 8-1.8 14.9-4.7 21.7-4.6 10.9-2.8 15.5 8.4 18.2 6.4 1.6 12.6 4 19.4 4.1 10.1.2 18.1-3.2 24-11.5 2.5-3.5 5.3-6.7 8-10.1 3.3.9 1.9 3.2 1.7 4.9-.6 8.3-2.5 16.4-4.1 24.5-1.2 5.9-4.5 8.9-10.2 10.4-7.8 2.1-15.7 2.2-23.6 3.3-24 3.3-48 5.9-72.1 8.1-16.5 1.5-33.1 2.8-49.5 4.7-7.5.9-14.9 3.4-22.6 2z"/><path fill="#DEDEB5" d="M1519.4 2175.5c2 9.9-1 19.3-2.4 28.6-5.1 33.7-11.2 67.2-16.9 100.8-2 11.4-4.4 22.7-6 34.2-1 7.1-4.2 11.1-11.3 13-11.9 3.2-23.5 6.6-35.8.8-3.6-1.7-5-3.2-5-7 .1-6.6.4-13.2-2-19.7-2.6-6.8-6.1-12.6-12.8-15.8-3-1.5-4.1-3.1-4-6.8.3-24.2.8-48.5 0-72.7-.4-12.3 6.1-20.5 13.2-28.7 2.5-2.9 5.9-5.2 7.7-8.8 4.2-8.2 11.5-11.5 20.1-12.4 18.2-1.9 36.5-3.6 55.2-5.5z"/><path fill="#9B956F" d="M335.7 1773.1c1.3-.6 2.4-1.4 3-2.7 2.1 2 4.3 3.9 4.3 7.7-4.1.5-5-3.4-7.3-5z"/><path fill="#C7EEF5" d="M1583.9 2086.9c.3-.5.6-1 .8-1.5.3.5.7 1 .7 1.6 0 .5-.5 1-.8 1.5-.2-.6-.5-1.1-.7-1.6z"/><path fill="#C5BD90" d="M2385.1 628.6c4.9 3.4 10.5 3.6 16.1 3.8 32 1.3 63.7-2.5 95.2-7.6 9-1.5 17.8-5.1 23.8-13 1.2-1.6 2.7-2.9 4.1-4.3 16.8-17.4 19.9-38.1 14.3-60.8-4-16.1-12.1-30.1-22.5-42.8-3.3-4-7.6-6.2-12.5-7.7-13.4-4.1-27.1-6.3-41-7.3-14.6-1-28.9-4-43.6-4.5-5.7-.2-11.3.8-16.9.4-3.5-.2-6.4 1.5-6.8 4.6-.8 6.5-4.6 6-9.8 4.8 3.7-8.3 3.3-16.5 2.8-25.2-1.3-22.6-1.2-45.2-.5-67.8.2-4.7.3-9.3.2-14-.4-40.6 2.4-81.1 2.3-121.7-.1-16.9.4-34 1.9-50.8 2.4-26.3.4-52.5 1.9-78.7 1.7-27.5.6-55.1 3.2-82.6.2-2.6.7-5.3 1.3-7.9.4-1.7 1.5-2.9 3.4-3.1 4.3-.4 8.7-1.8 12.8-1.1 9.5 1.6 18.4-.3 27.6-1.8 6.2-1 12.6-.5 18.9-.5 36.9.4 73.7-3 110.6-2.8 28.6.2 57.1-1.2 85.6-2.4 37.2-1.5 74.3-2.7 111.5-3.8 32.4-1 64.9-.3 97.2-2 29.6-1.6 59.1-1.5 88.7-1.6 27.6-.1 55.2.2 82.8.2 32.2 0 64.5-.8 96.7-2.3 21.8-1 43.8-2.6 65.6-2.7 40.2-.1 80.2-3.8 120.4-3.7 35.1.1 70.2-2.9 105.4-4.1 24.8-.8 49.7-2.6 75.2-4.2 1.8 11.4.1 22.9-.6 34.4-.8 12.2-1.5 24.5-2.8 36.7-2.5 23-1.8 46.2-4 69.2-1.6 17.5-2.7 35.1-4.4 52.5-2.2 22.8-2.7 45.7-5.5 68.4-2.1 17.1-1.6 34.5-4.1 51.5-2.5 17.4-3.1 35-5.2 52.5-2.2 18.4-4.2 37-5.2 55.5-1.7 31.8-4.1 63.6-6.7 95.3-3.1 38-4.1 76.1-7.6 114.1-3.1 33.7-5 67.4-7.6 101.1-2.6 33.4-4.8 66.7-8.2 100-2.7 26.7-4.2 53.6-7.7 80.2-2.7 20.1-3.3 40.2-4.3 60.4-.1 2.7-.1 5.3-1.2 7.8-2.6 5.9-2.6 12.2-2.9 18.6-.5 14.9-1.1 29.8-2 44.7-1.2 21.9-2.4 43.7-4.1 65.5-1.7 22.2-4.1 44.3-3.6 66.5.1 4.8-2.2 6.3-6.7 6.1-11.3-.5-22.5-.8-33.8-1.8-15.7-1.4-31.6-1.6-47.3-3-39.9-3.7-80-5.3-120-7.6-26.8-1.5-53.6-3.7-80.6-4.2-16.2-.3-32.3-3.3-48.6-3.6-8-.1-15.9-.7-23.9-.6-17.6.3-35.1-2.1-52.8-2.3-24.9-.3-49.7-2.7-74.6-3.7-11.2-.5-22.5 0-33.7-1.2-9.5-1-19.1-1.7-28.5-3.6-2.9-.6-6-.5-8.9-.5-24.6.5-49.4-.4-73.7-3.3-20.2-2.4-40.4-2.6-60.5-4.2-11.7-.9-23.6-.9-35.3-2.6-19.4-2.7-39-2.9-58.4-5.2-22.5-2.7-45.1-1.8-67.4-4.9-27.6-3.7-55.5-3.1-83.2-4.6-22.2-1.3-44.4-2.4-66.6-4.1-8.5-.6-17-2.6-26.5-4.1-.2-5.8 0-12-.6-18.1-2.4-23.2-2.3-46.5-3.1-69.7-.4-9.8 1-19.9.6-29.8-1-22.8.6-45.6.9-68.4.1-9.2.9-18.4 1.2-27.6.1-3.9.8-7.6-.9-11.7-1.7-3.9 1.3-6.6 5.9-5.8 5.8 1.1 9.8-.3 11.7-6.2.4-1.4.9-2.5 2.6-2.3 4.5.6 9.4 2.7 12.8-2.2 2.5-3.7 2.5-8.2 2.7-12.5 9.8 1.6 11.8.6 15-8.2 1.5-4.1 2.7-8.1 6.7-10.7 3.9-2.5 3.5-6.7 3.7-10.8.3-6.5 1.2-7.3 7.7-7.4 2.7-.1 5.3 0 8 .3 21.1 2.5 42.4.4 63.5 2.3 21.5 2 43.1 1.1 64.6 2.5 13.6.9 27.2.5 40.7 2.1 2.9.3 5.9-.4 8.9-.8 1.3-.2 2.8-.7 2.8-2.3.1-6 4.4-10.8 4.5-17 .4-25.3-.9-50.5-6.6-75.3-2.1-9.4-2.6-9.1-11.8-9.3-33.9-.5-67.8.6-101.7-.7-11.6-.4-23.2.4-34.9.4-24-.1-47.9-.5-71.9-.8-7.3-.1-9 .9-9.7 8-2 22.5-4 45-.7 67.6.2 1.6.2 3.3.2 5 .5 13.2 2.9 15.9 16 18 2 .3 4 .4 5.8 3-2.4 3.4-4.9 7.3-3 12.1.1.3.4.8.3.9-4.4 5.5-7.7 13-13.4 16.1-9.6 5.1-10.2 3.9-14.6 13.8-3.4-2.2-5.5-8-11.3-3.4-2.8 2.2-7.9-2.5-7.5-7.1 2.1-24.9-.9-49.9 1.8-74.8.8-7.6.5-15.3.7-22.9 1.2-34.3 3.1-68.5 1.9-102.8-.5-13.7 1.7-27.1 2.1-40.7l.6-.1.6.4zm133.7 321.5c-5.3 0-10.7-.3-16 .1-11.9.7-23.8 1.6-35.4 4.7-12.9 3.4-23 10.4-26.6 24-2.4 9-2.1 18.2 5.7 24.8 7.1 6 15 7.3 24 3 6.5-3.1 13.8-4.5 21.3-4.3 9.6.2 19.1-.1 28.7.1 28.8.5 56.4 6.9 83.7 15.3 14.2 4.4 28.4 8.9 42.7 13.1 12.3 3.6 23.5 1.2 33.2-7.6 5.3-4.8 8.6-11 11.2-17.4 4.4-10.9.4-22-10.4-27.5-17.8-9-37.3-13.7-56.6-17.9-13.8-3-27.9-5.1-42.1-6.3-21.1-1.9-42.2-3.8-63.4-4.1zm19.4 135.4c.2-14.1-2.7-25.1-8-35.1-7.8-14.7-29.5-23.3-44.9-10.1-2.9 2.5-5 4.2-7.9 0-2-3-5.4-3.3-8.9-3.6-14.7-1.4-25.4 7.9-30.5 20.8-6.3 16.2-5.2 32.7 2.1 48.3 6.9 14.8 24.5 22.7 37.8 11.5 3.2-2.7 6.4-3.4 8.6 1.4.5 1.2 1.4 2.3 2.2 3.3 8.3 9.3 20.8 12.2 29.4 6.1 5-3.6 9.8-7.6 12.7-13.6 5-10 7.2-20.5 7.4-29z"/><path fill="#D1CAA3" d="M3506.8 1493.8c.6-11.2.9-22.4.8-33.6-.1-18.3-.6-36.5 1.3-54.8.4-4.1-.9-8.5-1-12.8-.2-12.3 2.7-24.5 1.1-36.8-1.4-10.5-.5-21.2-2.5-31.7-1.5-7.8-6.1-11.6-13-13.2-17.1-4-34.4-3.1-51.7-1.8-5.6.4-9.3 3.4-11 9.7-2.8 10.7-4.2 21.4-5.3 32.3-1.4 13.2-2.3 26.4-3.2 39.6-.7 10.6-1.2 21.3-1.2 31.9 0 19.7.4 39.3.6 59 0 3.3.6 6.7-.9 10-.9.2-2 .8-2.8.5-17.7-4.5-36.1-2.9-53.9-6.8-10.1-2.2-20.5-.6-30.8-2.2-21.9-3.4-44.2-4.2-66.1-7.9-13-2.2-26.5-1.9-39.7-3-13.2-1.2-26.4-2.7-39.5-4.3-19.7-2.4-39.2-5.7-59.1-7.3-27.1-2.2-53.9-7.1-81-9.3-19.5-1.6-39-3.7-58.5-5.2-14.2-1-28.3-3.1-42.5-4.5-12.2-1.2-24.5-2-36.7-3.3-25-2.7-50-5.6-75-8.6-9.9-1.2-19.8-1.5-29.7-2.6-20.8-2.3-41.5-4.6-62.3-6.7-22.7-2.3-45.5-4.1-68.2-7.2-19.7-2.7-39.7-2.6-59.5-4.4-20.1-1.7-40.2-4.2-60.3-6.2-7.2-.7-14.5-1.1-21.8-1.7-21.5-1.8-43.1-1.2-64.6-3.8-26-3.2-52-6.1-78-9-12.4-1.4-24.8-4.4-37.5-1.9-.6.1-1.3 0-2 0-11.3-.3-11.6-.6-11.6-11.6 0-10-1.8-20-1.5-29.8.4-12.6.4-25.2 1-37.8.9-19.3.9-38.6-.5-57.9-.7-9.3-7.2-15-16.6-16.4-11.5-1.7-22.8-4.5-34.5-3.8-3 .2-6 .4-8.9.8-12.2 1.7-15.6 5.1-17.3 17.6-1.7 12.5-2.9 25.1-2.3 37.8.4 7.6-.9 15.2-1.2 22.8-.7 19.9.8 39.7 2.3 59.5.5 6.7-.8 9.3-7 8.4-10.2-1.4-20.1-4.4-30.5-3.9-3.4.1-3.1-3-3.1-5.2-.1-10.3-1-20.7.2-30.9 1.6-13.3.6-26.6 1.6-39.8 1.5-18.9 2-37.9 1.4-56.8-.6-20.6-.9-41.2-2.1-61.7-.8-12.9-2.8-25.7-4.5-38.5-.9-6.9-.2-8 6.9-8.5 2-.1 4-.1 6 .1 10.8 1.2 21.8 1.3 32.5 2.3 13.5 1.2 27.3 1.1 40.4 4.4 8.3 2.1 16.3-.4 24.6 1.2 18.5 3.6 37.4 4.7 56.3 6 25.5 1.8 50.9 3.8 76.3 6 23.4 2 46.8 4.7 70.2 6.9 15.1 1.4 30.2 3.3 45.3 5.1 10.9 1.3 21.9.7 32.9.4 20-.6 39.7 3 59.6 3.5 23.6.6 47 2.3 70.5 4.3 15.9 1.4 31.8 2.3 47.6 3.6 18.8 1.5 37.8 1.3 56.6 3 16.5 1.5 33.1 1.3 49.6 2.3 14.8.9 29.6 1.5 44.4 2.9 36.4 3.4 72.9 2.6 109.4 4.8 22.2 1.3 44.4 2.1 66.6 3.5 21.8 1.4 43.8 2 65.6 3.6 24.8 1.8 49.6 4 74.5 5 13.9.5 27.8 2 41.6 3.1 22.1 1.7 44.2 3.5 66.3 4.6 24.9 1.1 49.8 2.3 74.8 1.4 19.3-.7 38.5 1.5 57.8 2.2 16.2.6 32.4 1.3 48.6 1.7 9.6.2 19.1 1.9 28.6 2.8 3.8.4 5.7 1.9 5.6 6.4-.4 25.9 0 51.9-1.9 77.8-1 13.6-.4 27.3-.7 40.9-.5 23.8-3.4 47.5-3.7 71.2-.1 10.6-.8 21.3-.3 31.9.6 14-1.7 27.8-2.3 41.8-.4 9.7-.9 10-10.5 9.6-14.3-.5-28.6-1-42.9 0-1.7.2-4.1.4-6.2-1z"/><path fill="#C5BD90" d="M3377.5 1508.8c-2.9 10.9-2.3 23.3-3.1 35.5-1.1 16.8-2.6 33.7-3.3 50.6-.8 20.9-1.8 41.7-3.4 62.6-1.1 13.9-2.6 27.7-3.4 41.6-1.2 21.4-3 42.8-3.3 64.3-.2 14.9-2.6 29.7-3.8 44.6-.3 4-1.9 5.2-5.7 4.7-4.9-.7-9.9-1.2-14.8-1.7-19.7-2-39.5-3.7-59.2-6.1-25.9-3.2-51.9-6.5-77.6-10.9-16.3-2.8-32.6-6-49-8-22.7-2.8-45-7.8-67.9-9.6-18-1.5-35.9-5.6-53.8-8.4-12.4-1.9-24.9-3.3-37.4-5-14.8-2-29.5-4-44.2-6.5-13.7-2.3-27.6-4-41.4-5.4-26.7-2.8-53.4-5.6-79.9-9.8-27.4-4.4-55.2-7.2-82.6-11.8-28.2-4.7-56.6-6.2-84.9-9.1-13.1-1.3-26.3-2.9-39.4-4.1-14.2-1.3-28-5.4-42.4-5.3-4.6 0-9.2-1.2-13.8-1.9-35.7-5.2-71.4-10.9-107.3-15.3-20.8-2.6-41.2-6.4-61.7-10.5-4.5-.9-6.1-2.6-6.2-7.1-.6-14.5-.5-29-.6-43.6-.1-14.9-1-29.9-1.3-44.8-.4-14.9-1-29.8-.5-44.7.5-15.7-1.4-31.2-1.5-46.8-.1-14.6-.3-29.2 1.3-43.7.6-5.3.2-10.6 0-16-.3-10.5-.9-21-1-31.5-.1-7.8.4-7.8 7.9-7.1 23.7 2.3 47.5 4.5 71.3 6.6 31.4 2.8 62.8 4.8 94.1 8.3 12.7 1.4 25.5.2 38.2 3 12.6 2.8 25.7 2.4 38.6 3.6 21.4 1.9 42.7 5.2 64.2 7.1 9.5.8 19.4.9 28.5 2.4 12.1 2 24.4.8 36.5 3.7 14.7 3.5 30.2 3.7 45.4 5.4 18.1 2 36.1 4.3 54.2 6.1 12.2 1.2 24.5.7 36.7 2.2 6.2.8 12.5 1.5 18.8 2.1 15.8 1.6 31.6 2.7 47.4 4.1 7.9.7 15.8 1.8 23.7 2.7 24.4 2.5 48.8 3.8 73.1 7.4 20.2 3 40.9 3.2 61.1 6.5 22.3 3.7 44.8 5.3 67.2 8.2 31.1 3.9 62.3 7.7 93.6 10.1 13.1 1 26.4 2.1 39.3 5.1 7.5 1.7 15.1 2.6 22.7 2.6 7.7 0 15.2 1.3 22.8 1.5 7.3.2 7.7.8 8 8.2-.2.7-.2 1.7-.2 3.9z"/><path fill="#EFDB6D" d="M2385.1 628.6l-.6-.1-.6.1c-1.4-1.8-2.6-3.7-5.2-4.3-5.2-1.2-10.2-2.7-15.4-3.9-11.5-2.7-14-5.2-12.9-16.9.5-5-.8-11.2 5.2-14.8 2.6-1.5 1.7-4.6-.6-5.7-6.1-2.9-5.8-8.2-5.8-13.6v-26c0-3.3-.4-6.4 3.8-8.1 3-1.2 2.7-3.9 1.1-6.7-4.6-8.4-1.6-17.6-2-26.4-.1-2.2 1.9-3.3 4.2-3.3 1.7 0 3.3 0 5 .1 22.8 1.7 45.5 2.9 68.1 6.9 13.3 2.4 26.8 4.3 40.2 6.2 8.8 1.2 16.1 5.8 24.5 7.8 2 .5 3 2.3 4 4.1 6.9 12.6 13.2 25.7 14.3 39.9 1.3 15.1-.7 30.4-5.5 45-1.5 4.6-5.4 5.5-9.2 6.6-14.4 4.2-29.1 6.3-44 7.2-20.5 1.3-41 3.1-61.6 1.5-3-.2-6.9-.8-7 4.4zm36.8-73.6c.2 12.6.8 23.8 7.3 33 4.8 6.8 9.7 14.1 19.5 15 9.1.8 16.4-3.6 20.2-10.4 9.4-16.5 12.5-39.3-.9-57.3-9.9-13.3-26.9-13.8-39.2-.8-5.9 6.4-7.8 13.7-6.9 20.5zM2586.2 830.2c-4 0-8 .1-12 0-28.9-.6-57.8-1-86.7-2.2-10.3-.4-20.3-1.6-30.7-.1-10.1 1.5-14-5.3-9.6-14.9 2.2-4.9 4.5-7 10.8-7.2 12.8-.4 25.6.6 38.5-.5 14.8-1.3 29.8.9 44.7 1.2 20.3.4 40.6.4 60.8.3 7.3 0 8.8-1.7 9.2-8.6.4-5.7-1.2-11.2-3.2-16.5-1.5-4.1-4.5-5.4-9.3-5.3-13.5.4-27.2.6-40.6-.8-14-1.5-27.9-.9-41.8-.7-11.7.2-23.4-.2-35.1.9-8.9.8-17.9.4-26.9.4-3.9 0-8.1 1.5-10.3-4.5-1.2-3.1-13.5-1.3-17.4 2-10.3 8.5-11.6 24.7-2.8 36 1.4 1.8 3 3.6 4.8 5.1 4.2 3.4 1.1 6.5-.2 9.7-1 2.5-2.2 3.6-5.3 2.6-3.6-1.2-8.5-.4-8.9-6-.4-5-.5-10-.8-14.9-.6-10.9-1-21.9-1.9-32.8-.8-9.3 2-18.4 1.5-27.7-.2-3.3 3.8-2.7 6.4-2.9 13-.7 25.9 1.1 38.8 1.3 19.2.3 38.4-.3 57.6.3 21.6.7 43.2-.1 64.9 1.3 12.8.8 25.8-1.2 38.8-.9 7.6.2 8.5.3 10 7.6 1.6 7.8 2.7 15.7 3.5 23.6 1.7 15.5 3 31 .8 46.6-1 6.8-1.4 7.6-8.7 8-13 .9-25.9-1.1-38.9-.4z"/><path fill="#AEA77D" d="M3577.5 1493.5c-.6-17 1.3-32.5 1.9-48.1.9-25.2 1.3-50.4 2.7-75.5.6-10.2-.6-20.4 1.1-30.6 1.4-8.9-1-17.8-1.1-26.8-.3-28.8.8-57.6 2.1-86.4.4-8.1 1.6-9.9 8.7-10.9 11.5-1.6 23.1-2.5 34.7-3.7 3.1-.3 4.6 1.4 3.8 4.2-4.2 15-1.7 30.4-3.4 45.7-1.8 16.7-3.8 33.7-2.6 50.7.8 12.1-3.4 23.5-3.7 35.5-.4 19.6-3.6 38.9-5.5 58.4-1 10.5-.8 21.2-1.5 31.8-.8 11.9-.8 23.8-1.4 35.6-.2 4.2-1.8 8-5.8 9.8-9.5 4.3-18.8 8.6-30 10.3z"/><path fill="#B2D1D2" d="M3513.5 1503.4c.5 6-3.6 10.3-6 15.2-1.2 2.6-3.9 2.5-6.2 2.1-8.9-1.4-18 .7-26.8-1.7-1.8-.5-4-.2-5.9.3-10.3 2.4-20.5-.7-30.7-1-5-.2-5.7-4.2-6.2-7.7-1.1-8.5-2-17.1-2.4-25.7-.6-12.3-.4-24.5-1.1-36.8-.8-13.8.8-27.8 1.7-41.7 1.1-16.2 2.4-32.4 4-48.6 1-10.2 2.4-20.4 4.1-30.5 1.7-9.9 3.2-10.8 13.1-10.9 6.7-.1 13.3-.3 20-.4 4.9-.1 7.7 1.3 8.4 7.1 1.1 9.2.1 18.3.6 27.4.8 14.7-.5 29.4.6 44.2.7 8.7-.8 17.7-1 26.6-.2 17.6-.4 35.3-.7 52.9-.1 7.5-.7 15.1-.9 22.6-.1 4.4 2.5 6.9 6.1 4.9 5.2-2.9 9.6-1.7 14.1.4 5.1 2.2 10.2-1.5 15.2 1.3zM2317.6 1245.3c1.2 0 1.6-.1 1.9 0 11 3.1 12.7 4.8 11.6 15.7-2.8 28.1-.6 56.2.5 84.2.6 16.3-.8 32.6-.2 48.9.1 3.1-1.8 7.6 1.6 9.1 4 1.7 5-3.2 7-5.5 1.5-1.8 2.6-4.3 5.2-4.1 4.6.3 9.2.8 13.7 1.8 1.8.4 1.2 3 .7 4.4-2.6 6.8-5.2 13.7-11.1 18.5-1.6 1.3-3.1 2.4-5.3 2.5-15.5.9-30.9 2.8-46.6.3-20.5-3.2-23.5-12.3-24.6-26.7-.7-8.8-3.4-17.1-3.2-26.1.1-4.8-.7-9.8-.2-14.8.9-7.9.7-15.8-.3-23.8-1.2-9.9-.9-19.9.6-29.7.3-2 .8-4.1.3-5.9-3.1-12.9 0-25.8.3-38.6.3-14.6 3.1-17.3 17-16.2 4.9.4 9.9.6 14.8 1.2 6.9.8 8.7 2.5 8.4 9.5-.4 11.9-.9 23.9-2.1 35.7-1.7 17.5 0 35-.3 52.6-.3 21.3 5 42.2 3.8 63.5-.2 2.7-.8 7 3.6 6.7 3.3-.2 3.7-3.6 3.6-6.9-.5-27.5-.1-55-1.5-82.4-.9-19.2-1.3-38.4-1.1-57.6.3-5.3 1-10.4 1.9-16.3z"/><path fill="#9B956F" d="M3603.5 1205.2c-13.7.4-27.1 4.7-41.2 2.5-11.4-1.8-23.2-.8-34.8-1.3-25.9-1.1-51.7-2.7-77.6-3.5-18.6-.6-37.3.2-55.9-.5-14.9-.5-29.8-.8-44.6-3.2-7.2-1.2-14.6-.2-21.9-.6-29.1-1.7-58.2-4.5-87.3-6.6-13.2-.9-26.5-1.8-39.7-2.6-21.1-1.3-42.1-3.5-63.3-3.3-12.9.1-25.8-1.9-38.7-2.7-7.6-.5-15.3-.5-23-.6-19.6-.5-39.1-2.4-58.7-2.7-24.5-.4-49.2-1.1-73.6-3.9-28.8-3.2-57.6-2.6-86.5-3.9-15.9-.8-31.8-2.8-47.7-3.1-16-.3-31.8-1.7-47.7-2.9-20.5-1.5-40.9-4.3-61.4-5-18.3-.6-36.6-1.5-54.7-3.2-22.6-2.1-45.2-.2-67.7-1.8-12.6-.9-25-2.7-37.6-4-18.4-2-36.9-4.1-55.3-5.9-24.4-2.3-48.8-4.3-73.2-6.9 10.5-2.4 21-1.1 31.4-.4 21.2 1.4 42.2 3.8 63.4 5.7 21.5 1.9 43 3.2 64.6 4.4 16.8.9 33.8.4 50.5 4.7 6.3 1.6 13.2.5 19.9.7 27.5.9 55 2.9 82.4 5.5 10.5 1 21.2.2 31.8.9 26.2 1.6 52.3 3.7 78.4 5.4 23.5 1.5 47.1 2 70.6 4.1 26.1 2.4 52.3 3.4 78.5 3.7 23.3.2 46.5 1.6 69.7 2.7 27.2 1.3 54.3 3.3 81.6 4.2 28.2.9 56.3 3.9 84.5 5.5 24.8 1.3 49.5 4.1 74.5 4.6 22.5.4 45.1 2.4 67.6 4 39.5 2.7 79 3.2 118.5 4.1 17.8.4 35.8 1.9 53.6 3.3 22.2 1.7 44.5 1.6 66.8 2.3 1.2 0 2.5.2 3.8.3z"/><path fill="#EFDB6D" d="M2325.3 831.7c-11.4 1.3-14.4-.9-15.8-11.1-2.3-16.2-.2-32.3.3-48.5.3-10.2-1-20.6 1.5-30.8 2-8.2 2.3-8.8 10.3-9h4c15.8.4 18 2.4 17.8 17.6-.3 18.3 1.6 36.5.1 56-4.6-4-10.2-4.3-14.8-7.5-5.5-3.8-8.7-2.4-11.6 3.8-4.7 9.8-1.9 20.1 7.2 26.9.3.4.4 1.2 1 2.6z"/><path fill="#B2D1D2" d="M3487.8 1321.7c10.5 1.7 10.9 1.7 12.1 11 2 16.1 1.8 32.3.6 48.5-.1 1.6-.6 3.3-.6 4.9-.2 22.3-.3 44.5-.4 66.8-.1 11.3-.1 22.6-.3 33.8-.1 5.7-1.8 7.1-7.2 6.5-4.2-.5-7-2.2-5.2-7.2.4-1.2.5-2.6.5-3.9.2-32.6.4-65.1.5-97.7.1-20.9 0-41.8 0-62.7z"/><path fill="#EFDB6D" d="M2509.7 796.3h-50.8c-3.1 0-6.5 1-7.9-3.9-1.6-5.9-1.5-6.6 4.8-7.4 17.8-2.4 35.8-1.8 53.7-2 27.9-.2 55.7 2.5 83.5 4.2 3.6.2 8.3-.2 8.8 5.7.4 4.9-.5 6.2-5.6 6-28.8-1.2-57.6-3-86.5-2.6zM2401.8 495.8c12.6-1.2 24.9-1.5 37.6-.1 15.5 1.7 30.8 4.6 46.2 6.7 5 .7 9.5 2.8 14.4 3.9 5.5 1.3 9.5 4.5 12.8 8.9 12.3 16.3 17.3 34.5 15.4 54.9-.8 8.9-3.1 16.7-10.4 25.4.5-7 0-11.8.9-16.9 1.4-7.6 1.1-15.2-1.5-22.6-2.9-8.4-5.9-16.8-8.7-25.3-3.6-10.8-10.9-17.5-21.9-20.7-11.5-3.3-23-6.1-34.8-7.6-16.6-2.3-33.3-4.4-50-6.6zM2445 796.9c-.5 2.3-.7 4.6-1.4 6.8-1.2 3.4-2.3 7.6-6.5 7.9-3.4.2-5.7-2.9-7.6-5.6-5.7-8.6-5.5-19.2.7-25.8 3.6-3.8 5.2-3.6 8.6.3 4 4.7 4.9 10.6 6.2 16.4zM2324.9 802.4c2.7 2.2 3.9 4.6 7.4 5.1 3.9.5 6.3 3.8 4.7 8.1-1.2 3.3-2 7.2-6.9 7.2-4.8 0-7.3-2.5-8.1-6.9-1-4.7-1.3-9.3 2.9-13.5z"/><path fill="#9B956F" d="M2406 1137.9c-22.9 2.6-45.2-3.9-67.9-4.2 22.9-2.3 45.4.9 67.9 4.2zM2333.9 830.5c3.5-3 6-6.7 8.4-11.4 1.2 8.3 1.2 8.3-8.4 11.4z"/><path fill="#AEA77D" d="M2440.2 824.6c-.1.6-.1.9-.2 1.2-.5 2.3-1.4 4.5-3.4 5.6-.9.5-2.4-.8-2.8-2.1-.9-2.9 1-4.8 2.8-6.7.8-.8 1.9-.7 2.6-.3.8.5 1.5 1.4 1 2.3zM2407 881.1c-1.3-.4-2.6-.8-2.8-2.3-.3-2.9 1.6-4.1 4.1-4.4 1.9-.2 1.9 1.2 1.8 2.6-.1 2.1-.5 4-3.1 4.1zM2422.3 865.6c-.3-.9-.9-1.8-.8-2.6.2-1.7 1.1-3.1 3.2-2.3 1.3.5.8 1.6.5 2.4-.4 1.4-1.5 2.1-2.9 2.5zM2435.4 843.7c-.4 3.1-1.3 4.5-3.1 4.3-.6 0-1.6-1.4-1.5-2.1.1-1.6.9-3.1 2.9-2.9.8.1 1.7.8 1.7.7zM2391.3 883.1c.4 1.5 1.1 2.9 1.2 4.5.1.6-.9 1.5-2 .8-1.3-.8-1.2-2.1-1.1-3.4.1-.9.6-1.6 1.9-1.9z"/><path fill="#FDFDFD" d="M395.9 2245.6c1.7 2.4 3 3.5 3.5 4.9 2.2 6.3 4.4 12 13.1 10.5 2.9-.5 3.1 3 3 5.3-.2 4.8.3 8.8 6.6 8.4.8 0 2.4.8 2.4 1.3.4 6.2 6.4 10.8 5.1 17.5-.4 2-.4 4-2.8 4.7-1.7.5-13.2-3.4-14.2-5.2-1.8-3.2-1.4-6.3 1.3-9 .4-.4.4-1.2.7-2.5-6.1-.3-10.5-2.7-9.6-9.7-4-.3-3.3 2.3-3.4 4-.2 4.6-.1 9.3-.1 13.9 0 2-.4 4.3-3.1 4.1-2.6-.1-2.7-2.4-2.8-4.4-.1-1.7 0-3.3-.1-5-.1-2.9.4-6-2.3-8.3-2-1.7-2.6-4.8-1.4-6.4 5.7-6.8 3.1-15 4.1-24.1zM407 2229.6c5.2-2.4 8 .2 10.8 3.1 2.4 2.5 2.5 5.6 1 8.1-1.5 2.6-4.7 1.7-7.2 1.6-3.6-.2-3.8-2.9-3.9-5.6-.2-2.3-.4-4.5-.7-7.2zM467.6 2280.6c.3 5.3-.4 8.1-5.2 8-4.3-.1-4.7-2.8-4.7-6.1 0-5.2 1.7-7.8 5.7-7.7 5.2.1 4 4.2 4.2 5.8z"/><path fill="#FFF" d="M117.7 1732.6c3.4 2.4 1.3 6.2 2.4 9.6 5.6-1.5 11.1-4.1 15.4 3.5 1.4 2.5 5.8 4.9 10.2 5.4 3.1.4 6.2 1.7 8.7 4.3 5.6 6 3.4 16.3-4.3 18.7-2.1.7-4.2 0-5.3-1.8-2-3.6-5.2-3.8-8.6-3.6-5.9.4-9.5-5.7-16.3-4.5 2-6.5 2-11.5-1.4-16.9-2.5-4.1-.6-9.7-.8-14.7-.1 0 0 0 0 0zM284.8 2255.6c-1.6-4-.9-6.5-.9-11.3 2.3 4.9 1.9 7.5.9 11.3z"/><path fill="#C9F1F8" d="M231.2 2159.9c3.5-2 1.8-6.3 5.8-7.2 7.1-1.7 10.5.6 10.8 8 .2 5.2.5 10-6.7 10.8-1.5.2-2.7 2.7-4.3 3.9-2.1 1.6-5.4 1.9-6.1-.4-1.3-3.9-4.9-4.2-7.1-6.6-3.1-3.4-5.5-15.5-3.3-19.6.9-1.7 2.5-2.1 4.2-2 2.6.2 4.3 1.5 5 4.1.5 2.8-.7 6 1.7 9z"/><path fill="#0D0D0B" d="M1246.3 2094.4c-6.1-.2-11.8.6-17.2-1.4-1.7-.6-3-1.9-2.8-3.6.3-1.6 1.6-2.7 3.6-2.7 18.3-.4 36.2-3.9 54.2-6.7 16-2.5 31.5-7.2 47.4-10.5 18.8-3.9 36.7-11 55.5-14.3 1.3-.2 2.6-.5 3.8-1.1 2.9-1.3 4.3.4 5.5 2.6 1.5 2.7.2 4.6-2 5.8-4.1 2.2-8.2 4.3-12.6 5.9-12.4 4.6-25.4 7.3-38.2 10.5-26.6 6.8-53.7 11.1-80.9 14.6-5.6.7-11.2.4-16.3.9z"/><path fill="#0C0C0C" d="M1672.4 1362.2c.3 17.3-6.7 32.2-15.1 46.6-3 5.1-7.4 10.4-14.2 9.4-7.3-1.1-11.1-7.1-12.8-13.8-3-12-.1-23.8 3.4-35.2 2.1-6.9 5.9-13.3 8.7-20 1.8-4.1 4.9-7.1 8.1-10 3.7-3.3 12.9-5 15.7-2.3 4.1 3.8 8.3 8.3 6.7 14.6-.8 3.6-.7 7.1-.5 10.7zm-28.2 41c3.7-1.7 6-4 7.2-7.2 3.9-10.5 7.8-21 10.3-32 .8-3.8.3-7.9.3-11.8 0-1.6.1-3.4-2.2-3.8-1.7-.2-3.4-.1-4.5 1.3-1 1.3-2.2 2.6-2.8 4-3.8 8.4-7.8 16.7-10.6 25.5-2.8 8.5-.7 16.1 2.3 24z"/><path fill="#0D0D0B" d="M1711.6 1478.3c-5.8.8-11.3-1.6-16.8-3.9-3.2-1.3-4.9-4-3.2-7.2 1.7-3.2 4.8-7 8.6-4.7 5.2 3.2 10 6.5 16.3 3.8 7.5-3.3 13.5-8.9 17.7-15.6 12.5-20.4 16.8-42.2 7.9-65.4-1-2.7-4.6-6.4.1-8.5 4.4-1.9 5.4 2.8 6.8 5.5 7 12.8 10 26.3 7.2 40.9-1.7 9-3.3 18-7 26.6-4 9.4-10.6 16.7-18.6 22.9-5.6 4.1-11.7 6.1-19 5.6zM1611.6 1476.2c-1.7 3.8-3.5 5.2-6.5 5.3-6.2.1-12.4 2-18.7 1.5-3.7-.3-7.3 1.1-10.4 2.8-16.1 8.8-30.7 19.7-42.5 33.8-3.8 4.5-9.1 6.2-12.8 10.3-1.4 1.5-3.7 1.3-5.6.1-2.5-1.7-1.8-4.2-.9-6.3 2.8-6.1 7.2-11.1 11.6-16 17.2-19.5 39.4-29.5 64.5-33.7 7.3-1.1 14.1 1 21.3 2.2z"/><path fill="#0C0C0C" d="M1587 1339.2c-5-.3-9.9-.6-14.9-.9-1.5-.1-2.7-.7-2.6-2.2 0-1.4 1.1-2.5 2.5-2.7 2.6-.5 5.2-.7 7.8-1.2 19.9-3.5 35-14.6 47.6-29.8 7.2-8.6 13.6-17.8 18.4-28 1-2 1.8-3.4 4.3-2.4 2.1.8 3.4 1.8 3 4.3-1.5 9.5-3.7 19.1-9.8 26.6-6.6 8.1-14.1 15.8-22.1 22.6-9.6 8.2-20.7 14.2-34.2 13.7z"/><path fill="#0D0D0B" d="M1775.9 1388.9c-.6-9.4 2.9-17.9 7.6-26 1.2-2.1 2.8-3.6 4.8-4.9 3.1-2.1 5.9-4.1 10-2.1 4.3 2 5.6 5.7 5.4 9.7-.3 5.9-.7 12-2.3 17.6-2.7 9.2-6.1 18.2-11 26.5-1 1.7-2.2 3.6-3.8 4.5-2.9 1.6-6.1 1.7-6.9-2.5-1.6-7.5-4.7-14.7-3.8-22.8zm10 7.5c7.1-7.2 9.7-14 8.6-22.2-.2-1.4-.2-3.5-2.5-3.4-1.5 0-2.2 1.3-2.5 2.6-1.9 6.8-4.4 13.6-3.6 23z"/><path fill="#0C0C0C" d="M1300.3 2263.1c9.7-.9 20.1-2.5 29.8-7.2 2.1-1 3.9-2.3 6.4-1.7 3.1.6 4.5 2.7 5.2 5.4.7 2.6-1.4 3.5-3.1 4.4-12.9 7.3-26.3 12.3-41.5 8.9-3.4-.7-7.8-.6-8.8-5.1-.6-2.8 3.9-4.8 10.1-4.7h1.9z"/><path fill="#0D0D0B" d="M2518.8 950.1c21.2.3 42.3 2.2 63.5 4 14.2 1.2 28.3 3.3 42.1 6.3 19.4 4.2 38.8 8.9 56.6 17.9 10.8 5.5 14.9 16.6 10.4 27.5-2.6 6.4-5.9 12.6-11.2 17.4-9.7 8.8-20.9 11.1-33.2 7.6-14.3-4.1-28.5-8.7-42.7-13.1-27.3-8.4-55-14.9-83.7-15.3-9.6-.2-19.1.1-28.7-.1-7.5-.2-14.8 1.2-21.3 4.3-9 4.3-17 3-24-3-7.8-6.6-8-15.8-5.7-24.8 3.6-13.6 13.7-20.6 26.6-24 11.6-3.1 23.5-3.9 35.4-4.7 5.2-.3 10.5 0 15.9 0zm140.3 72.4c5.1.9 9.4-1.1 13.3-4.6 5.4-4.9 8.2-10.8 9.9-17.9 1.5-6.4-.7-9.7-5-13.6-6.3-5.6-14.3-7.5-21.6-9-24.6-5.2-48.7-12.3-73.8-15.3-27-3.3-53.9-6.6-81-3.5-11.5 1.3-23 2.6-34 6.5-9.6 3.4-15.3 9.2-15.6 20-.3 10.5 6.6 16.7 16.8 14.1 15.7-4 31.5-7.5 47.9-7 11.3.3 22.6-.2 33.8 1.5 25.6 3.8 50.2 11.6 74.9 19.2 11.2 3.5 21.9 9.3 34.4 9.6zM2538.2 1085.5c-.2 8.5-2.4 19-7.3 29.1-2.9 6-7.7 10-12.7 13.6-8.6 6.1-21.1 3.2-29.4-6.1-.9-1-1.7-2.1-2.2-3.3-2.2-4.9-5.3-4.1-8.6-1.4-13.2 11.1-30.8 3.2-37.8-11.5-7.3-15.5-8.4-32.1-2.1-48.3 5-12.9 15.8-22.2 30.5-20.8 3.4.3 6.8.6 8.9 3.6 2.9 4.2 5 2.5 7.9 0 15.4-13.3 37-4.6 44.9 10.1 5.2 9.9 8.1 20.9 7.9 35zm-20.8-3.1c-10.1 1-19.9.9-29.7-.6-5.2-.8-8.3-3.5-7.9-9.4.5-7.6-2.7-14.3-5.7-20.9-4-8.6-9.2-9.4-16.3-3-5.3 4.8-6.7 11.4-7.6 17.9-1.2 9.2-1.4 18.4-1.8 27.7-.3 6.9 6 17.1 11.3 18.5 7.9 2.2 12.3-3.1 16.6-8.3.2-.3.4-.5.6-.8 6.2-11.1 15.5-15.6 28.1-13.3.6.1 1.3 0 2 0 2.3.1 4.8-.1 4.9 3.3.1 3.1-2.2 4-4.5 4.3-3.9.5-8 .4-11.9 1-4.3.6-7.7 5.6-6.6 9.3 3.2 10.6 16.7 15.9 26.6 10.8 8.4-4.3 11-11.9 11.9-20.4.5-4.6-.2-9.5.9-13.9 2.5-9.7-.4-18.5-3.7-27.1-2.7-7-8-11.9-15.2-14.9-13.1-5.3-24.2 8-22 18.2 3.4 15.5.5 14.2 16.7 12.6 7.4-.7 9 .1 13.3 9zM2421.9 555c-.9-6.8 1-14.1 7-20.4 12.3-13 29.3-12.5 39.2.8 13.4 18 10.3 40.8.9 57.3-3.8 6.7-11.1 11.2-20.2 10.4-9.8-.9-14.7-8.2-19.5-15-6.7-9.3-7.2-20.5-7.4-33.1zm6.6 2c.8 11.4 2.4 23.1 11.7 32.1 8.1 7.9 17.5 7.8 23.3-2 9.1-15.2 10.7-29.9.7-44.7-8-12-25.4-11.6-33.1.5-2.7 4.2-1.6 9-2.6 14.1z"/><path fill="#FDFDFD" d="M1644.2 1403.2c-2.9-7.9-5.1-15.5-2.4-23.8 2.8-8.8 6.8-17.2 10.6-25.5.7-1.5 1.8-2.8 2.8-4 1.2-1.4 2.9-1.6 4.5-1.3 2.2.3 2.2 2.1 2.2 3.8 0 3.9.5 8-.3 11.8-2.4 10.9-6.4 21.5-10.3 32-1.1 3-3.4 5.3-7.1 7z"/><path fill="#C7EEF5" d="M1785.9 1396.4c-.8-9.4 1.7-16.1 3.5-23 .3-1.3 1-2.5 2.5-2.6 2.3-.1 2.3 2.1 2.5 3.4 1.2 8.2-1.4 15-8.5 22.2z"/><path fill="#EFDB6D" d="M2659.1 1022.5c-12.5-.3-23.2-6.1-34.5-9.6-24.7-7.6-49.2-15.4-74.9-19.2-11.2-1.7-22.5-1.2-33.8-1.5-16.4-.4-32.2 3.1-47.9 7-10.1 2.6-17-3.6-16.8-14.1.3-10.8 6-16.6 15.6-20 11-4 22.6-5.2 34-6.5 27.2-3.1 54 .3 81 3.5 25.1 3 49.2 10.1 73.8 15.3 7.4 1.5 15.3 3.4 21.6 9 4.4 3.9 6.6 7.3 5 13.6-1.7 7.1-4.5 13-9.9 17.9-3.8 3.5-8.1 5.6-13.2 4.6zM2517.4 1082.4c-4.3-9-5.9-9.7-13.3-9-16.3 1.6-13.4 2.8-16.7-12.6-2.2-10.2 8.9-23.5 22-18.2 7.3 2.9 12.6 7.8 15.2 14.9 3.3 8.6 6.2 17.4 3.7 27.1-1.1 4.4-.5 9.3-.9 13.9-.8 8.6-3.5 16.1-11.9 20.4-9.9 5.1-23.4-.2-26.6-10.8-1.1-3.7 2.3-8.7 6.6-9.3 3.9-.5 8-.4 11.9-1 2.3-.3 4.6-1.1 4.5-4.3-.1-3.5-2.6-3.3-4.9-3.3-.7 0-1.3.1-2 0-12.6-2.3-21.9 2.2-28.1 13.3-.2.3-.4.5-.6.8-4.3 5.3-8.7 10.5-16.6 8.3-5.3-1.5-11.6-11.7-11.3-18.5.4-9.2.6-18.5 1.8-27.7.8-6.5 2.2-13.1 7.6-17.9 7.1-6.4 12.3-5.6 16.3 3 3.1 6.6 6.3 13.4 5.7 20.9-.4 5.9 2.7 8.6 7.9 9.4 9.8 1.5 19.6 1.7 29.7.6zm-60.1 2.5c-1.7 4.4-.1 8.9.1 13.4.1 3.8 1.9 7.1 5.9 8.2 3.5.9 7.9-2.5 9.5-7 .3-.9.5-1.9.7-2.9 2.2-11.2 1.6-22.2-2.2-32.9-1.6-4.5-4.3-5.3-8-2.3-1.8 1.5-2.7 3.6-3.6 5.8-2.3 5.7-2.9 11.5-2.4 17.7zM2428.5 557c1-5.1-.1-9.9 2.6-14.1 7.7-12 25.1-12.4 33.1-.5 10 14.8 8.4 29.4-.7 44.7-5.8 9.7-15.2 9.8-23.3 2-9.3-9.1-10.9-20.7-11.7-32.1zm19.5-12.6c-4.5.2-11.1 4.9-9.7 7.6 3.5 6.6 4.4 13.3 3.4 20.5-.1.5.5 1.3 1 1.6 3.1 2.5 4.8 5.2 3 9.4-.5 1.1.3 2.6 1.7 3.2 1.8.8 3.4.2 4.4-1.2 2.7-4.3 4.4-8.7 1.3-13.8-3.1-5.2-3.6-10.4 1.7-15.1 2.2-1.9 4.1-4.5 2-7.9-1.9-3.2-4.9-4.2-8.8-4.3z"/><path fill="#0D0D0B" d="M2457.3 1084.9c-.5-6.2.1-12 2.4-17.7.9-2.2 1.8-4.3 3.6-5.8 3.6-3 6.4-2.2 8 2.3 3.8 10.8 4.4 21.8 2.2 32.9-.2 1-.4 2-.7 2.9-1.6 4.5-6.1 8-9.5 7-4-1.1-5.8-4.5-5.9-8.2-.1-4.4-1.8-9-.1-13.4zm9.4 8.3c1.9-4.6 1.3-7.6-.2-11.5-1.5 3.9-1.7 6.9.2 11.5zM2448 544.4c3.9.1 6.9 1.2 8.9 4.3 2.1 3.4.2 6-2 7.9-5.3 4.6-4.8 9.9-1.7 15.1 3.1 5.2 1.4 9.5-1.3 13.8-.9 1.4-2.6 2-4.4 1.2-1.4-.6-2.2-2.2-1.7-3.2 1.8-4.1.1-6.9-3-9.4-.5-.4-1.1-1.1-1-1.6 1-7.2.1-13.8-3.4-20.5-1.5-2.7 5.1-7.4 9.6-7.6z"/><path fill="#AEA77D" d="M2466.7 1093.2c-1.9-4.5-1.7-7.6-.2-11.5 1.5 3.9 2 6.9.2 11.5z"/></svg>