<svg viewBox="0 0 3483.2 1322" xmlns="http://www.w3.org/2000/svg"><path fill="#FFF" d="M1817.7 722.9c-7.3-17.9-12.4-36.6-22.2-53.6-5.2-8.9-11.6-16.1-20.1-21.6-10.4-6.7-21.8-11.1-33.4-15.4-25.7-9.5-51.7-18-76.3-30.6-10.8-5.5-22.7-9.1-33-15.6-12.7-8-23.8-18.1-35.1-27.9-7-6-14.4-11.3-20.6-18.4-5.7-6.5-10.7-13.4-15.3-20.7-11.8-18.4-25-35.9-35-57.1-3.6 8.1-3.7 15.5-5.3 22.3-4.3 18.8-9.6 37.1-17.9 54.8-6 12.9-9.1 27-16.4 39.5-9.1 15.8-17.4 32-28.3 46.6-3.6 4.8-3.8 8.5-.8 13.3 8.6 13.9 18.6 26.6 30.1 38.1 5.4 5.4 11.4 10.2 17.1 15.2 14.3 12.8 31.7 20.2 48.7 28.5 9.3 4.5 19.7 5.9 30 6.2 11.6.3 23.3-.6 34.9-.5 22.8.2 45.7-2.2 68.4 2.5 4.8 1 9.8 1.5 13.5 5.3 3.8 1.4 7.6 2.8 11.8 2.5 6.6 2.9 4.5 9.8 5.9 14.6 3 10 8.6 18.4 13.8 27 1.2 2 3.3 3 5.9 3.2 21.4 1.7 42.7 2.8 64-.7 3.6-.6 7.1-1.6 10.6-2.6 16.7-4.8 13.5-3 12.4-18.9-.4-5.7-1.8-11.7-4.4-17.3-2-4.3.5-6.8 4.9-5.8-.1-2.2-.8-4.4-1.1-6.7h-.1c-4.7 1.7-5.3-2.7-6.7-6.2zm-41.8 51.1c-5.1 3.3-10.4 2.8-14.8-.9-5.1-4.3-9.7-9.1-14.3-13.9-2.2-2.2-2.7-5-1.6-8.3 1.7-5 3.1-10.2 4.2-15.4 1-4.5-1-6.2-5.5-5.1-1 .2-1.8.8-2.8 1.1-12.4 4.4-12.7 3.9-20.7-7.3-6.5-9-10.6-19.1-15.1-29.1-.4-.9-1-1.8-1-2.7-.2-2.7 1.2-4.6 3.6-5.4 2.3-.7 3.5 1.1 4.4 3l9.3 19.8c1.3 2.7 3.2 5.1 4.6 7.6 3.3 5.9 7.9 6.3 13.6 4.8 14.3-3.7 18.8-.2 19.2 14.6.1 2.3 0 4.7 0 7h-.2c-.2 3.6-.8 7.4-.4 10.9.8 6.5 4.2 8.3 10.4 6.1 14.5-5.1 24.6-22.3 23.9-37.8-.5-10.9-4.7-20.6-7.1-30.9-.7-3-2.8-5.2-5.5-6.8-2.5-1.5-3.4-4.1-3.8-6.6-.6-3.7 2.5-5.1 5-6.6 1.8-1.2 3.1 0 4 1.6 6.2 11.3 14.8 21.5 17.4 34.4 4.8 23.5-3.8 51-26.8 65.9z"/><path fill="#0D0B0A" d="M1486.6 211.4c.4.5.8 1 1.1 1.4-.2-.5-.6-1-1.1-1.4z"/><path fill="#0D0B0A" d="M3276.6 829.8c1.2-5.1 1.3-10.6 1.5-15.9.1-3.1-1.2-5.5-4.5-7-8.1-3.8-16.5-7.5-25.2-9.1-13.3-2.4-26.5-6.2-40.1-6.8-16.2-.7-32.5-4.1-48.7-1.9-7.3 1-11.7-1.3-16.4-5.8-6.5-6.2-12.6-13.1-20.1-17.8-19.6-12.2-38.3-26-60.7-33.5-14.5-4.8-28.6-10.9-43.5-14.5-12-3-24-7.5-37.3-5.9-4.1-17.3-12.6-32.8-20.2-48.6-5.6-11.6-13.3-21.9-24.6-29.5-9.4-6.4-19.5-11.3-29-17.5-4.3-2.8-8.8-2.4-13.4-1.1-15.5 4.3-23 16-27.9 30-2 5.7-2 11.1 2.2 16.5 6.1 7.8 10.5 16.8 17.5 24 13.2 13.5 25.4 28.1 41.3 38.8 2 1.3 3.5 3.4 5.4 5.3-10 6.3-17.7 14.2-26.2 21.1-.8-1.3-1.5-2-1.9-2.9-5.5-10.5-7.9-22.3-14.8-32.3-4-5.8-9-10.6-13.4-16.1-8.3-10.4-17.9-19.9-29.4-26.5-23.3-13.4-48.9-18.5-75.6-16.4-10.7.8-21.6 2.7-31.1 9.1-20 13.5-27.8 36.4-13.4 57.9 13.5 20.2 32.5 33.9 55.6 41.7 9 3.1 18.1 6.1 27.2 9 2.7.9 4.5 2.4 2.3 4.9-7.6 8.5-11.6 19.1-17.6 28.6-2.1 3.4-4 5.9-7.8 6.3-6.6.6-12.9 2.7-19.3 4.2-26.5 6.3-53.2 11.3-80 15.5-16.6 2.6-33.4 4.3-50.1 6.6-12.8 1.8-25.6 3.5-38.3 6-9.8 1.9-19.5 1.6-29.3.6-12.9-1.2-25.8-2.8-38.7-2.3-18.6.7-36-1.7-50.7-14.6-18.2-15.9-38.1-29.8-53-49.2-11.7-15.2-24.6-29.5-34.5-46.2-9.3-15.6-18.7-31.2-26.5-47.7-1.9-3.9-5-5.4-8.8-4.6-3.8.9-3 4.4-3 7.4-.1 18.3 2.8 36.2 7 54.1 7.8 33.8 24.1 62.8 46.6 88.8 16.2 18.7 33.9 35.3 56.5 46.6-1.4 6.7-4.2 12.5-8 18.1-3 4.4-6.4 6.2-11.5 5.7-6.6-.7-13.3-.2-19.7.3-25.7 1.9-51.1-.4-76.6-2-12.2-.7-24.3-3.1-36.5-3.2-7.7-.1-15.1-1.3-22.7-2.6-19.6-3.4-39.2-6.5-58.9-9.2-18.3-2.5-36.6-5-54.6-9.5-19.2-4.8-38.4-9.6-57.3-15.1-23.7-6.9-47.2-14.6-70.6-22.2-24.9-8.1-49.6-16.8-73.5-27.3-25.3-11.2-51-21.3-75.5-34.3-23.1-12.2-46.5-23.8-67.9-38.9-1.6-1.1-3.4-2.1-5.3-2.6-.2-.1-.4-.1-.6-.1.1 1 0 2.1-.3 3.1.3-1 .3-2.1.3-3.1-4.4-1-6.9 1.5-4.9 5.8 2.6 5.6 4 11.5 4.4 17.3 1.1 15.9 4.4 14.1-12.4 18.9-3.5 1-7 2-10.6 2.6-21.3 3.5-42.6 2.3-64 .7-2.5-.2-4.7-1.2-5.9-3.2-5.2-8.7-10.9-17-13.8-27-1.4-4.8.7-11.7-5.9-14.6-2.4 1.7-4.9 3.3-6.1 6.3-8 18.6-22.5 32.6-34.9 48-8.7 10.7-16.6 22.2-26.8 31.6-9.4 8.7-18.7 17.4-25.7 28.4-2.1 3.3-15.6 1.8-18.2-1.6-4.9-6.3-8.5-13.3-11.8-20.5-1.7-3.7.4-6.2 2.6-8.9 6.5-7.6 13.8-14.6 21.8-20.4 19-13.8 37.1-28.8 55.9-42.9 8.4-6.3 18.5-8.9 26.9-14.9 2.8-2 5.9-3.3 4.7-7.6-3.7-3.8-8.7-4.3-13.5-5.3-22.7-4.7-45.6-2.3-68.4-2.5-11.6-.1-23.3.9-34.9.5-10.3-.3-20.7-1.7-30-6.2-16.9-8.3-34.4-15.7-48.7-28.5-5.7-5.1-11.6-9.9-17.1-15.2-11.6-11.4-21.5-24.2-30.1-38.1-3-4.9-2.7-8.6.8-13.3 10.9-14.6 19.2-30.9 28.3-46.6 7.2-12.5 10.3-26.7 16.4-39.5 8.3-17.6 13.6-35.9 17.9-54.8 1.6-6.9 1.7-14.2 5.3-22.3 10.1 21.2 23.3 38.7 35 57.1 4.6 7.2 9.6 14.1 15.3 20.7 6.2 7.1 13.7 12.4 20.6 18.4 11.3 9.7 22.4 19.8 35.1 27.9 10.3 6.6 22.2 10.1 33 15.6 24.6 12.5 50.6 21.1 76.3 30.6 11.5 4.2 23 8.7 33.4 15.4 8.5 5.5 14.9 12.6 20.1 21.6 9.8 16.9 14.9 35.7 22.2 53.6 1.5 3.5 2 7.9 6.6 6.7h.1c-.1-.7-.2-1.5-.2-2.2 0 .7.1 1.5.2 2.2 4.6-1.3 2.8-5.8 2.4-9.4-1.8-17.1-7.9-32.7-15.1-48-4.3-9-10.9-16.1-18-22.3-14.8-12.9-32.4-21.2-50.6-28.4-16.4-6.4-33.9-9.1-49.8-17-15.7-7.7-31.9-14.4-47-23.5-10.4-6.2-18.7-14.8-28-22.2-10.2-8.1-19.8-16.8-27.6-27.3-9.4-12.8-20.1-24.6-27.3-39-6.4-12.7-13.8-24.9-19.9-37.7-4.1-8.6-6.9-17.8-9.9-26.8-4.9-14.5-3.4-29.5-2.7-44.3 1.4-28.7-1.5-57-6.3-85.3-1.7-10.2-5.1-19.9-7-29.9-4.5-23.6-12.1-46.2-20.3-68.6-4.6-12.6-9.5-25-14.5-37.5-11.3-28.4-25.9-54.2-49.2-74.7-14-12.2-27.7-24.5-44.5-33-21.1-10.7-41.9-21.5-66.3-22.3-1.3 0-2.7-.1-3.9-.6-13.4-5-27.3-5.5-41.3-5-12.6.4-24.5-.3-36.5-5.8-17.1-7.8-35.5-12.1-54.2-15.5-16.7-3-33.1-5.4-50-5.6-22.3-.3-44.6.3-66.8 2.3-12.8 1.2-25.8 1.7-38.2 6.3-1.8.7-3.8 1.6-5.7 1.6-20.8-.4-39.1 9.5-58.6 14.2-14.4 3.5-27.9 10.2-42.1 14.8-15.8 5.1-30.2 13.4-45.7 19.1-3.4 1.3-6.8 2.6-10 4.4-18.2 10.7-37.2 20.3-52.3 35.6-2.7 2.8-6 3.4-9.8 4-11.7 2.1-23.5.2-35.2 1.9-15.1 2.2-30.1 5.1-44.6 9.3-12.9 3.8-25.4 9.4-37.9 14.8-14.5 6.3-29.6 11.4-42 21.7-1.7 1.4-3.4 2.1-5.2.3-6.6-6.5-15.8-8.4-23.6-12.6-17.8-9.6-36.7-15.5-57.1-15-4.3.1-5.5-2.1-6.9-5.2-2.6-5.7-5.4-11.4-8.6-16.8-2.8-4.6-8-5.4-10.3-1.5-2.6 4.6-7.2 8.4-8.7 13-5.6 16.5-10.9 32.8-10.5 50.9.3 16.9 3.7 32.9 8.5 48.8 4.6 15.1 11.2 29.1 22.7 40.4 5 4.9 10.5 9.4 14.7 14.7 4.5 5.6 9.9 9.1 15.8 12.7 12.9 7.8 27.2 12.2 41 17.9 8.2 3.4 16.8 6.4 25.9 6.7 15.6.5 31.2 3.1 47.2-.1-.5 2.4-.8 4-1.1 5.6-8.9 42.6-17.1 85.2-13.9 129.1.3 3.6-1.2 5-4.2 5.4-10.5 1.7-20.9 3.9-31.4 4.7-7.1.5-15 .6-21.4-1.9-10.4-4.1-21.5-6.3-31.6-11.4-20.7-10.4-35.5-26.7-44.7-47.6-1.7-3.8-2.5-5.3-6.4-5.1-11.3.6-22.3 1.7-32.8 7-14.5 7.3-29.2 13.9-42.9 22.9-12 7.9-23.2 16.4-33.1 26.6-11.9 12.3-20.5 26.8-29.3 41.3-4.9 8.1-9.3 16.1-9.5 25.8-.2 13.8-1.6 27.6.2 41.6 3.8 30.7 20.6 53 43 72.1 6.9 5.9 15.5 8.3 24 11.5 15.6 5.8 30.6 5.2 45.3-.9 14.2-5.9 24.6-16.6 32-30 2.8-5.1 5.6-10.3 8.7-16 5.1 4.5 9.8 8.6 14.5 12.6 1.3 1.2 2.3 2.7 1.7 4.4-2 5.4-.9 11.4-2.9 16.6-3.6 9.6-3.3 19.6-2.7 29.4 1 16.6 6.6 30.8 19.2 43.2 17.1 17 34 22.8 56.2 14.8 1.3-.4 2.4-1.1 3.7-1.5 2.8-.7 5.3-.5 6.6 2.6 3.8 8.8 10 16.1 15.2 24 8.8 13.5 19.7 25 33.5 33.5 8.2 5.1 17.2 8.4 25.8 12.6 17 8.1 35 9.1 52.7 6.6 24.1-3.3 46.6-12 66.3-27 10.8 9.5 23.6 16.1 35.9 23.1 22.4 12.8 46.2 23 70.4 32.2 15 5.7 29.7 12.9 46.3 13 .6 0 1.3.1 1.9.3 22 7.7 45 11.4 68.1 12.5 23.5 1.1 47.1 1.8 70.6 0 7.6-.6 15.4-.7 22.5-2.8 7.9-2.3 15.9-3.6 23.7-5.5 18.3-4.5 36.7-9 53.8-17.5 14.8-7.4 29.9-14.3 44.8-21.7 19-9.4 38.4-18 54.5-32.2 3-2.6 6.5-4.6 9.6-7 20.1-15 42.3-27.4 58.2-47.5 1.8-2.3 4-4.4 6.3-6.4 9.8-8.5 18.5-18.1 27.6-27.4 5.6-5.8 10-12.8 17.1-18.1 12.9 16.5 27 30.9 42.4 44.3 19.3 16.8 41.1 29.5 65.2 37.3 26 8.4 53.1 10.8 80.5 8.7 9.7-.8 19.7-1.3 29.5 1.7-1.2 3.4-3.6 4.7-5.8 5.8-7.6 3.6-14.3 8.7-20.3 14.3-17.3 16.1-36.6 29.7-55.2 44.1-8.5 6.6-13.2 18.7-9.6 27.4 4.7 11.2 12 20.7 21.9 27.9 2.1 1.5 4.5 3.2 7.4 2.5 9.3-2.2 18.6-3.7 25.9-11.1 18-18.1 34.8-37.2 50.8-57.1 7.7-9.7 15.2-19.7 25-28.6.9 2.1 1.3 3.3 2 4.4 8 12.6 17.1 22.8 34 23.2 29.7.8 59-1.6 88-7.8 2.9-.6 4.6-1.8 6.5-3.8 4.9-5.3 3.3-11.6 3.4-17.7.1-5.2-3.3-10.1-1.9-15.5 4.4-.1 6.4 3.6 9.6 5.2 18.8 9.8 37.6 19.5 56.6 29 22.2 11.2 44.9 21.4 67.8 30.8 28.3 11.7 56.7 23.6 86.5 31.8 14.8 4.1 29.5 9.5 44.1 14.4 19.4 6.4 39.3 11.6 59.3 16.4 32.2 7.8 64.8 13.5 97.6 18.3 7.9 1.1 15.5 3.9 23.4 4.6 29.4 2.5 58.6 6.5 88.1 8.2 22.6 1.3 45.2.9 67.8 1.4 2.5.1 5.8-2.9 8.2 1.3-9.3 11.7-19.6 22.2-33.1 29.1-34.9 17.8-71.8 22.9-110.3 17.6-7.3-1-13.2-1.7-18.3 5.8-3.6 5.2-10.3 8.1-15.4 12.4-19.1 16.5-38.3 32.8-53.3 53.5-8.2 11.4-15 23.3-20.3 36.2-.9 2.3-1 4.6-.5 6.9 1.7 7.5 3.8 15.1 9.6 20.5 5.9 5.5 8.2 12.5 10.3 19.7 2 6.8 5.2 12.8 9.8 18.2 3.5 4.1 9 7.3 13 6.1 9.2-2.9 14.9.5 20.2 7 1.2 1.5 3.1 2.4 4.6 3.7 2.7 2.4 5.1 2.2 8 .1 7.7-5.3 14.3-11.7 20.5-18.7 7-7.9 7.8-16.5 2.6-24.7-4.2-6.6-4.8-14.1-7.7-20.9-1.4-3.2-.8-7.9 3.6-10.9 17.8-12 37.4-20.1 57.6-26.7 5.9-2 12.3-2.6 18.4-4 2.4-.6 4.7-.8 6.5 1.1 6.9 7.1 15.8 11.6 24.1 18.9-8.4 2.9-11.2 10.5-16.9 15.5-12.3 10.8-18.8 25.7-26.4 39.6-3.9 7.1-3.3 16-5 24-2.3 11 .6 16.4 12.3 19.5 10.1 2.7 20.4 2.1 30.5 3.6 7.9 1.2 13.5-2 18.9-5.9 5.2-3.7 7.7-9 5.1-15.8-1.1-2.8-1.5-5.8-2.5-8.6-3.3-9.1-1.9-17.9 2.8-25.8 5.9-9.9 12.9-19.2 21.3-27.3 2.1-2 3.7-2.8 6.9-1.7 9.2 3 19.1 4.7 28.5 2.7 14.8-3 29.8-4 44.1-10.8 13.1-6.3 27-10.7 38.4-20.3 1.2-.6 2.5-1.2 3.7-1.8 3.4-1.8 6.9-1.4 11.1-.5-2.7 3.3-6.3 1.7-9 2.8-.9 1.9-2.6 1.9-4.3 1.7.1 4.8 2 6 6.9 5.2 18.2-3 36.4-5.5 54.6-8 2.5-.3 5.2-1.4 7.4.7 0 1.7-1.1 2.6-2.4 2.8-3.1.4-5.6 2-8.1 3.4-1.1.6-1.9 1.8-1.4 3.3.5 1.4 1.7 2.1 3.1 2 1.3-.1 2.6-.6 3.8-1 22.6-5.7 45.3-11.5 67.9-17.2 11.9-2.9 23.6-6.4 35.1-10.4 3.1-1.7 6.3-3.1 10.1-2.7-1.2 1.4-2.2 3.1-4.5 2.9-12 5.1-24.4 9.4-37.1 12.4-.6.4-1.1.8-1.7 1.1-2.1 1.1-3 2.8-2.1 4.9 1.1 2.4 3.3 1.9 5 1.1 5.4-2.8 11.6-2.6 17.2-4.8 16.8-6.8 33.8-13.2 50.6-20.1 3.8-1.6 6.2-1.2 8.1 2.3 4 7.7 10.2 14 14.4 21.5 7.7 13.6 19.2 23.4 31 33 9.3 7.5 19.2 14.3 28.4 21.8 14 11.4 29.2 20.8 45.6 28 29.3 12.9 59.4 23.7 90.4 31.9 11.6 3.1 22.5 5.8 33.4-1.5 1-.7 2.6-.5 3.8-.9 17.8-5.2 33.7-13.4 45.1-28.9 3.9-5.3 7.8-10.7 11.8-15.9 5.6-7.4 4.9-9.8-3-15.3-3-2.1-6.4-3.6-9.4-5.6-3.9-2.6-9-3.5-12-7.9 1.3-1.1 1.9-2 2.7-2.3 15.6-6.7 23.8-20.6 33-33.6 1.8-2.5 2-5.1-1.3-6.6-10.8-5-21.5-10.4-32.8-14.2-3.4-1.2-6.9-1.2-10.7-.5-13.2 2.7-26.7 5.9-40.2 2.1-11.4-3.2-23.1-5.4-34.5-9.1-27.3-9-54.2-18.9-80.4-30.8-6.5-2.9-13.7-4.9-19.1-11.7 10.4-2.6 19.9-6.4 30.8-5.8-.4 2-.5 3.7-1.2 5.1-1.1 2.4-1.2 4.7.9 6.3 2.2 1.6 4.3.8 6.2-1 2.9-2.8 6.7-3.7 10.5-5 7.6-2.7 15.6-3 23.3-4.6 2-1.5 4.2-1.3 7.2-.3-1.9 3.2-4.9 3.7-7.9 4.4-1.8 2.3-5.1 3.1-6.1 6.4-.7 2.1-.8 3.9 1 5.4 1.6 1.3 3 .3 4.4-.7 3.6-2.4 7-5.9 10.9-6.7 10.1-2 19.4-6.5 29.7-7.7 12.8-1.5 25.5-3.5 38.2-5.1 3.8-.5 7.8-.8 11.5.3 1.1 2.7-1.4 3.8-1.8 5.7-.4 2-.2 4.4 1.6 5.3 1.1.6 3.2.5 4.6-.8 4.2-4.1 10.3-3.8 15.3-6.4 14.9-7.7 31.3-10.4 47.7-12.9 15.9-2.4 32.2-2.7 47.7-7.8 10.1-3.4 13.7-6.6 14.8-17 .4-3.6 0-7.1.4-10.7.7-6.7-2.7-9.8-9.6-9.4-5.1.3-9.8-1.6-14.7-1.8-6.4-.3-10.6-5.2-16.4-6.6-6.7-1.7-13.3-4.3-18.9-8.6-1.6.1-2.8-.6-3.7-1.9-.7-.3-1.3-.6-2-1-2.4-.2-4.2-1.3-5.6-3.2-.6-.2-1.1-.7-1.4-1.2-4.5-.6-7.4-3.8-12.8-7.5 10.4 2.8 18.5 4.9 26.7 7.1.4 0 .8.1 1.2.3 3.3-1.1 6 .8 8.9 1.6 21.5 3.8 42.9 8.7 64.7 11.2 10.2 1.2 20.2 3.3 30.4 3.8 12.2.5 24.5-.7 36.7-.4 9.2.2 17.4-3.4 26.1-5.1 1.1-.2 2.2-1.4 3-2.3 5-5.6 7.2-11.7 3.9-19.1-3.6-8.1-4.3-16.1-1.1-24.9 4.5-11.6 7.1-23 9.7-34.2zm-1788.9-617c2.9 3.8 2.9 4.4 2.2 9.9-3.5-2.8-.8-6.9-2.2-9.9-.3-.4-.7-.9-1.1-1.4.5.4.9.9 1.1 1.4zm-184.3 558.1c-1.2.3-1.6 0-1.3-.7.3-.5.8-1.1 1.3-1.3.5-.2 1.2.2 1.8.3-.7.7-1.4 1.3-1.8 1.7zm139.9-138.6c-12.2 15.6-25.4 30.6-39.2 44.9-26.8 27.9-58 50.3-89 73.1-12.4 9.1-26.6 14.6-39.5 22.6-13.2 8.2-27.9 13.5-41.1 21.7-2.8 1.7-6.2 2.4-9.3 3.6-13.1 4.7-25.9 10.4-39.3 13.8-12.3 3.2-24.8 6-37.1 8.8-15.1 3.4-30.2 3-45.2 5.1-7.2 1-14.6.7-21.8.6-23.9-.2-47.4-3.7-70.4-10.6-11.1-3.3-22.8-3.9-33.9-7.5-18.6-6-37-12.6-54.7-21.1-1.2-.6-2.4-1.1-3.7-1.5-16.3-5.8-31.3-13.8-45.7-23.4-9.5-6.4-18.1-14.4-30-17.1-3-.7-5.1-5-7.9-7.3-2.6-2.1-4.8-3.7-8.2.3-14.8 17.1-34.2 26.8-55.9 31.8-32.8 7.6-61.6-1.7-87-22.5-7.5-6.2-11.7-15.4-15.1-24.4-4.4-11.3-7.9-23-8.6-35.4-.2-2.8-1.5-5.7-2.9-8.4-3-5.8-3.8-5.5-10.2-3.4-12.1 4-22.8 12-36.2 12.7-19.8 1.1-31.3-3.8-40.9-20.1-6.4-10.8-8.1-22.1-5.5-34.5 2.2-10.4 4.4-20.8 9.1-30.4.7-1.5 1.4-3 2.3-4.4 4.9-7.4 4.6-7-2.4-13.6-9-8.3-18.4-16.3-25.1-26.8-2.4-3.7-4.2-3.6-7.8-.8-3.7 3-6.2 6.2-8.4 10.4-6.9 12.8-13.3 25.8-22.5 37.4-10.9 13.7-25.4 17.7-41.6 15.6-16.3-2.2-29.4-10.9-40.9-22.6-9.8-9.9-17.2-21-21.5-34.2-6.7-20.5-6.9-41.2-.1-61.6 6.7-20.2 17.3-37.9 32.2-53.6 11.4-12 25.2-20.3 38.1-30.1 16-12.2 35.2-16.3 52.9-24.3 3.7-1.7 4.9.5 5.9 3 4.1 9.6 11.1 17.3 17.1 25.6 11.8 16.4 27.7 27.3 46.2 34.4 11.4 4.4 22.5 9.8 34.8 11.2 12.5 1.4 25 2.7 37.7-.2 7.3-1.7 15.1-.3 22.2-4 2.2-1.2 3.6-1.6 3.8-4.6.3-3.2 1.6-6.4 1-9.8-3.8-20.9-1.4-41.8-.4-62.7 1.4-29.9 7-59.3 15.1-88.1 1.1-3.8 2.6-7.5 3.5-11.4 1.4-6.1-1.3-8.8-7.4-7.7-.3.1-.6.3-.9.4-14 6.8-29.2 5.7-44 5.9-12 .1-23.7-3-35.1-5.9-13.6-3.4-27.1-7.9-39.7-14.6-20.7-11-36.9-26-47.7-47.3-6.6-12.9-11.8-25.9-14.4-40.1-.7-3.7-1.2-7.3-.8-10.9 2-19 5.5-37.7 11.6-57 4.5 4.7 5.1 10.4 5.9 15 1.1 6 4.1 8.1 9.1 8.1 33.1-.1 60.3 15.7 86.9 32.8 3.8 2.4 5.9 2.7 9.6.9 15.1-7.5 30.5-14.4 45.5-22.2 13.1-6.8 27.1-10.6 40.9-15.4 24.6-8.6 50.1-11.3 76.1-13.1 22.8-1.6 43.9 4.7 65.8 8 14.2 2.1 27.3 8.2 40.5 13.5 24.4 9.8 46.8 23.7 69.1 37.5 1.4.9 2.7 2 4.1 2.8 1.7.9 3.7 2 5.1-.4 1-1.7 1.7-3.7-.1-5.5-3.8-3.6-7.2-7.8-11.5-10.6-15.1-10.2-31.2-19-47.5-27.1-9.7-4.8-19.2-9.9-29.2-14.1-14.1-5.9-28.5-11-43.6-13.1-5.8-.8-11.3-3.9-17.3-2-.8-3.9 1.7-4.9 3.4-6.2 10.5-7.5 20.9-15 33.1-20 7.6-3.1 14.8-7.4 21.9-11.8 20.4-12.8 43.4-19.1 66-26.5 22.1-7.2 44.5-13.2 67.1-18.6 9.7-2.3 19.5-3.2 29.3-4.4 29.5-3.5 58.8-2.1 88.3 1.9 15.8 2.2 31.2 5.3 46.6 9 3 .7 5.5 1.8 8.2 3.9-2.2 4-6.4 4.9-10 5.6-16.7 3.5-29.3 15-44.1 22.1-2.9 1.4-5 4.3-7.4 6.7-1.9 1.9-2.2 4.2-.4 6.2 1.9 2.3 3.7.3 5.1-.8 5.6-4.6 13.8-3.1 19-9.1 4.9-5.6 12.5-7.1 19.3-9.6 1.9-.7 3.8-1.8 5.7-1.8 15.8 0 29.6-8.5 45.2-9.8 19.3-1.6 38.4-2.1 57.6.7 4.9.7 9.9.9 14.8 1.6 24.4 3.1 46.8 12 68.3 23 21.4 11 39.3 27 55.3 45 20.6 23.2 29 51.8 35.7 81 2.8 12.3 4.9 24.8 5 37.5 0 1.3.4 2.6.6 3.9.3 2.2 1.6 3.7 3.8 3.9 3 .2 4.2-1.9 4.3-4.4.2-3.6.1-7.2.1-13.1 5 5.2 5.7 10.1 6.6 14.5 3.7 17.9 8.6 35.4 14.2 52.8 3.6 11.1 4.2 22.8 5.3 34.3 2.2 22.8 5.2 45.4 5.5 68.5.2 16.3-2.1 32.2-2.8 48.4-.6 14.2-3.7 28-6.1 42-3.7 22.2-12.6 42.5-20.7 62.9-12.3 30.8-27.3 60.4-47.7 86.6zm1561.9 462.5c1.2-.6 2.3-1.4 3.4-2.1 6.1-3.8 11.8-4.1 18.3.2 9.4 6.2 19.5 11.2 29.2 17 2.8 1.7 7.2 3.1 3.7 8.3-3.9 5.6-5.9 6.9-11.1 4.3-8.2-4.1-16.3-8.6-24.3-12.9-3.3 2.1-1.2 4.2-.2 6 1.1 2.1 3.3 3.4 5.4 4.2 7.2 2.7 13.4 7.1 19.9 11.2-2.4 4.1-5.5 7.6-9 10.6-7.6 6.6-12.8 7.3-21.4 1.9-2.7-1.7-5.7-2.9-7.8-5.8-2-2.9-5.9-4.1-9.2-5.5-1.2-.5-2.8-.3-3.6.9-1.1 1.6-.8 3.5.5 4.5 2.3 1.8 4.9 3.4 7.5 4.8 4.9 2.7 9.7 5.6 14.1 10.4-8.6 4.6-17.6 6.6-26.2 9.3-6.7 2.1-13.2-1.1-19.3-3.4-9.7-3.6-19.6-6.4-29.5-9.3-23.4-6.9-45.5-16.8-66.6-28.6-25.2-14.1-48.3-31.4-70.1-50.5-7.2-6.3-14.1-13-19.1-21.4-3.2-5.4-7.1-10.4-11.4-15.1-4.6-4.9-7.3-11-9.3-17.4-1.7-5.4-5.1-6.8-10.4-4.6-15.7 6.6-32.4 8.9-49 12.2-6.2 1.2-12.3 2.8-18.4 4-19.5 3.8-39.3 4.8-59.2 5.3-11.2.3-22.3-.1-33.4 0-10.1.1-20.2-.9-30.1-1.4-1.5-4.4 1.6-6 3.3-8.2 8-10.1 16.8-19.7 22.6-31.4 2.7-5.5 2.2-6.4-3.5-8.4-2.5-.9-3.9-.2-4.6 1.9-5.6 15.8-16.8 27.9-28.3 39.1-15.8 15.3-31 31.9-52.9 39.3-13.1 4.4-26.6 6.4-40.1 5.8-14.5-.7-29.1-1.8-43.1-7.1-6.7-2.5-11.6-7.5-18.1-10.2-9.2-3.8-17.8-8.8-26-14.4-1.4-.9-3.8-1.7-4-2.8-1.5-8.2-8-6.1-12.3-5.3-26.8 5.1-53.1 11.8-77.7 23.8-8 3.9-12.3 10.3-14.2 19-2.7 12.7 1.2 24.3 5.3 35.9 1.2 3.4 4 6.4 1.4 10.2-3.2 4.7-6.5 9.3-12.1 11.3-1.7.6-3.2-.4-4.5-1.5-2.2-2-4.4-4.1-6.5-6.1-2.5-2.3-4.8-2.3-8.1-1-9.9 4-12.4 3.3-18.8-5-4.6-6-9.3-12.1-9.9-20.2-.3-3.5-1.8-6.2-4.6-8.4-5-4.2-5.7-9.2-2.9-15.2 7.4-15.6 15.5-30.7 26.3-44.4 10.6-13.3 23.1-24.5 34.6-36.8 6.4-6.9 15.1-11.8 22.6-17.7 1.5-1.1 2.8-1.1 4.6-.6 13.6 3.9 27.5 2.9 41.5 2.7 12.5-.1 24.6-1 36.9-3.4 6.6-1.3 12.6-4.6 19-5.5 12.9-2 23.2-8.9 32.6-16.8 14.9-12.6 29.5-25.7 40.8-41.9 5-7.1 8.3-15.2 11.7-23.1 2.7-6.2 1.7-7.9-4.4-11.8-8.3-5.3-17.9-8.2-26.1-14-8.1-5.8-16.3-11.3-22-19.8-3.1-4.6-7.1-8.7-10.7-13-16.5-19.4-29.9-40.7-38.7-64.5-5.8-15.7-9.6-32.2-12.3-48.9.7-.2 1.3-.5 2-.7 9.7 14.2 19.3 28.4 29 42.5 9.2 13.4 18.1 27.1 29.2 39.1 5.6 6.1 10.3 13 15.5 19.5 11.5 14.1 26.4 24.2 41.3 34.1 4.8 3.2 11 5.4 16.7 5.9 12.2 1.1 24.4 3.1 36.5 3.3 13 .2 26.2-.6 39.2-.7 32.3-.1 64.2-5 96.3-7 11.5-.7 22.6-5.1 34.2-6.2 10.5-1 20.9-2.3 31.5-2.8-14.2 8.2-28.9 14.6-45.1 17.5-2.9.5-5.9 1.1-8.6 2.3-20.4 9.1-41.6 15.2-63.3 20.4-25.1 6-50.3 11-75.5 16.4-10.9 2.3-22.3 2.4-33.5 3.4-9.5.8-19 3.6-28.6 1.5-2.3-.5-4.1.3-4.5 2.7-.5 2.8 1.2 4.9 3.7 4.7 6.2-.3 12.1 1.5 18.5.5 16-2.7 32.3-2.9 48.3-5.4 10.5-1.6 21-3.1 30.9-7.2 7.1-2.9 14.8-4 22.2-5.1 17.3-2.5 34.2-7 51-11.5 11.1-2.9 21.4-8.4 32.2-12.5 6.2-2.4 12.5-4 18.9-5.8 20.5-5.7 39.9-14.5 59.9-21.8 5.8-2.1 11.7-4.2 19.1-6.9-2.1 5.3-3 9.6-5.4 12.8-2.1 2.9-2.7 5.9-3.5 9.1-4 16.1-6.8 32.2-5.6 48.9.9 12.4 6 23 11.9 33.5 1.1 2 2.6 3.9 3.6 5.9 4.9 10.3 12.7 17.6 22.9 22.7 4.1 2 8.3 3.7 12.2 6.4 4.4 3.1 10.2 1.1 15.4-.1 3.4-.7 8.1-3.5 9.9.5 1.9 4.2-3.5 5.5-6.2 7.5-4.6 3.3-9.2 6.6-13.9 9.7-5 3.2-6.8 3-9.6-1.9-2.3-3.9-4.6-8.9-9.3-5.3-3.8 2.8-.4 6.8 2.2 10.2 17.2 23.4 36.8 44.7 57.8 64.6 17.8 16.9 39.8 26.2 62.7 33.4 12.6 4 24.9 8.9 38.3 10.5 14.3 2.3 27-1.2 39.4-7.3zm-140.7-55c13.9 4.4 26.6 11.6 39.5 18.1 12.1 6.1 24.8 10.8 37.8 14.7 17 5.1 33.9 10.4 50.8 16.8-8.7 3.1-17 6.2-26.4 4.5-22.9-4.1-44.7-11.9-65.9-21.2-15.7-6.9-28.9-17.5-40.2-30.3-2.7-1.4-4.6-3.5-6-6.1-2.8-.6-4.6-2.4-6-5.4 3.6-.7 5.3 2.1 7.5 3.6 3.2 1.4 6.5 2.7 8.9 5.3zm399.7-221.5c-1.2 7.9-3.8 15.4-6.6 22.8-2.5-.5-3.4-3-5.4-4-4.2-2.2-9.5-4.1-13-.9-3.5 3.2-7.8 6.9-6.3 13.6 1.7 7.7-7.4 15.1-15.1 13-3.3-.9-4.8-3.5-3.6-7 .7-2.2 1.9-4.2 2.5-6.4 1.8-7.1-1.7-14.6-7.4-16.4-6.3-2-12.5 1.5-15.7 8.6-.9 2.1-2 4.2-2.8 6.3-1.1 2.6-3.1 5.5-5.5 5-3.1-.6-5.7-3.5-6.5-6.9-1-4.2-.8-8.5.8-12.6 1.9-7 6.1-11.7 13.5-12.9 2.3-.4 5.2-.4 5-3.6-.3-3.7-3.3-4.7-6.5-4.6-8 .4-13.7 5-18 11.1-8.3 11.8-5.8 32.5 4.6 42.2 3.7 3.5 12.3 2 17-3 1.8-1.9 2.3-4.7 4.9-6.3 1.3 7.7 3.9 14.2 12.8 15.7 10.9 1.9 20.5-.1 27.3-9.3 2.3-3.2 1.9-7.6 2.3-11.6.2-1.7.3-3.4 2.4-3.8 1.8-.3 3.3.6 4.3 2 2.3 3.3 4.3 6.5 1.7 10.9-1.9 3.2-1.6 6.6.7 10.2 3 4.7 4.3 10.3 5 16 1.4 10.7 0 12.9-10.2 16.8-7.9 3-16.3 3.5-24.5 3.5-34.6 0-68.8-4.2-102.7-11.7-28-6.2-54.8-15.8-81.9-25-12-4.1-22.9-10.6-35.1-14-10.5-2.9-20.9-6-30.6-11.3-3.5-1.9-5.7 0-6.5 3.6-1 4.2-2.7 8.4-2.8 12.6-.1 5.1-2.9 6.2-6.8 8-19.3 8.8-39 3.8-58.6 2.5-4.6-.3-9.1-1.7-13.7-2.4-4.7-.7-8.8.5-11 4.9-4.8 9.8-10.4 19.1-11.3 30.6-2.2 26.9 13.5 46.5 41 50.1 4.9.7 9.8 1.7 14.8 1.9 15 .7 28.7-4.4 42.1-10.3 3.6-1.6 7.5-3.4 10.2-6.1 7.3-7.4 15.8-6.8 24.8-5.2 25.3 4.4 50.9 3.9 76.5 3.7 13-.1 26-.7 38.9.1 10.4.6 20.1-3.1 30.5-2.4 1.6 9.3.6 11.1-8.3 13.5-13.1 3.5-26.6 4.6-39.9 6.4-13.5 1.7-27 3.5-40.6 4.3-19.1 1.1-38.3 2.4-57.5 2.1-10.5-.2-21 2.4-31.6 3-11.3.6-22.6.9-33.9.7-21.5-.3-43.1-1.3-64.6-1.8-5-.1-9.8-1.1-14.7-2-4.7 0-9.4-.6-13.9 0-13.3 1.7-22.2-4.8-31.4-13.4-16.3-15.3-20.4-35-22.6-55.5-.9-7.8 1.9-15.6 4.2-23.2 7.1-24.3 18.6-46.6 29.8-69.1 3-6 6.5-11.5 10.2-17 2.2-3.4 4.7-4.3 8.3-3.6 5.2 1 10.9 1.1 15.4 3.4 3 1.6 6-.2 8.9 2-11.8 15.8-20.9 33.3-29.7 50.9-7 14-13.2 28.1-14.5 44.1-1 12.2 0 23.7 5.8 34.7 5.4 10.2 10.9 20.3 17.2 30.1 2.9 4.4 5.7 6 10.4 4.2 6.5-6.3 5.8-13.5 2.4-20.9-1.9-4.2-3.9-8.5-6.5-12.3-5.8-8.4-7.9-18.1-9.8-27.8-1.3-6.5 1.3-12.5 3.5-18.2 5.6-14.2 11.6-28.3 18.5-41.9 6.3-12.4 13.8-24.2 21.1-36.1 1.7-2.7 4.2-4.9 7.2-6.7 3.7-2.2 3.1-5.3-.7-7.5-1.8-1.1-3.9-.5-5.7-1-21.2-5.5-43.3-6.4-64.4-12.3-14.4-4-27.5-11.2-41.3-16.9-13.1-5.4-23.1-14-32.1-24.3-10.7-12.2-9-26.6-1-37.6 8.6-11.7 19.5-20.3 36.1-18.5 9.9 1.1 20.1-.9 30.3.1 12.9 1.3 24.3 6.4 35.2 12.6 25.8 14.5 41.3 37.7 52.3 64.3 2.8 6.7 6.1 13.3 7.5 20.5.6 3.2 2.3 5.7 6.1 5.3 3.6-.4 7.9 1.9 9.7-4.1 1.2-4.1 4.7-7.1 8.4-9.6 9.6-6.5 19.2-13 28.8-19.6.8-.6 1.7-1 2.5-1.6 2.1-1.6 6.9.1 6.4-4.6-.4-4.4-2.5-8.6-6.4-10.5-16.4-7.8-26.8-22.1-38.9-34.6-7.9-8.1-15.3-16.7-22.9-25-1.6-1.7-3.6-3.2-4.6-5.2-2.3-4.7-8.8-8.6-4.3-14.8 6.3-8.8 15-10.9 23.5-6.4 20.5 10.7 34.8 27.4 44.7 47.8 5.9 12.1 12.6 24 15.9 37.3 2 8.4 8 11.7 16.4 9.8 8.1-1.8 16.1-.7 23.7 1.4 22.4 5.9 45.2 10.8 66.4 20.6 23.6 10.9 44.8 25.8 65 42 5.9 4.8 11.8 9.6 17.8 14.3 3.5 2.8 7.1 4 10-.8 1.2-1.9 2.7-2.6 4.8-2.9 17.2-2.9 34.3-2.5 51.4.9 5.5 1.1 11 2.3 16.6 3.3 7.4 1.3 14.4 3.7 20.7 8 .6-.1 1.2 0 1.7.3.7-.3 2-.5 1.5 1.4zM2912 926.8c22.9 1 43.3-5.1 60.2-21.3 3.3-3.2 6.8-6.2 10.8-9.8 5 7.9 1.9 14.7-1.2 20.8-3.8 7.5-10.2 12.5-17.9 16.5-12.8 6.7-25.9 12.1-40.3 14-18 2.4-33.6-2.9-46-16.3-7.3-7.8-9.2-17.6-6.8-28 .9-3.9 2.3-7.7 3.8-11.3 3.7-8.9 4.3-8.4 13.8-6.6 17.3 3.3 34.9 4.5 52.5 3.9 10.3-.4 20-3.5 30.5-5.9-.2 10.1-4.6 16.7-12.4 21-14.7 8.1-30.5 12.8-47.3 14.2-2.7.2-5.8-.5-5.8 3.4.1 3.9 2.5 5.3 6.1 5.4z"/><path fill="#4DD529" d="M194 827.9c-4.7 2.2-9.4 4.3-14.1 6.5-.1-11.3-.1-22.6-.4-33.9-.1-5.6 1.6-9.1 7-11.8 12.7-6.2 20.5-16.9 26.7-29.4 8.6-17.2 9.7-35.6 10.7-54.2.2-3.7-1.3-7.2-3.2-10.3-1.5-2.4-3.9-3.5-6.9-2-2.3 1.1-3.8 2.6-3.2 5.4 3.3 16.2-1.8 31.6-4.7 47.1-2.6 13.9-11.1 22.9-25 26.4-.4-.6-.9-1.1-1.1-1.7-.2-1.3-.3-2.6-.4-3.9-1.8-21-6.2-41.2-14.7-60.6-6.4-14.5-16.9-25.3-28-35.8-1-.9-2.1-1.7-3.2-2.3-3.3-1.7-6.8-1.1-9 1.5-2.4 2.8.5 4.9 2.3 6.6 6.2 6.1 11.6 12.8 15.4 20.7 3.8 8.1 9.4 15.4 12.1 24 5.5 18 8 36.4 5.4 55.2-1.1 8.2-.3 16.7-3.6 24.5-1 2.2-1.7 4.7-4.6 4.2-12.7-2-25.6-1.5-38-6.8-12-5.1-19.1-13.6-23.2-25.3-.8-2.3-1.1-5.1-4-4.6-3.1.5-3.6 3.4-3.1 6.3 1.2 6.3 3 12.2 7 17.4 8.4 11 18.2 20.3 31.1 25.7 13.6 5.8 27 12.5 42.4 8.3 1.4 6.1.3 11.2-1.8 16.2-2.8 1.4-5.8 1.1-8.8 1.3-1.9-2.8-2.6-7-8-3.6-4.1 2.7-9.4 3-14.4 3.4-6.9.6-13.9 1.3-20.8 2.1-7.9.9-15.7.7-23.6-1-13.4-2.8-26-8.1-38.8-12.6-8-2.8-14.2-8.4-18-16.3-1-2.1-2-4.2-3.4-6.1-12.6-17.9-17-37.5-14.3-59.3 1.4-11.6 4.3-22.8 6.2-34.2 4.4-25.8 16.2-47.7 35.6-65.1 11.9-10.6 22.7-22.6 36-31.4 20.7-13.7 41.2-26.8 66.4-32.6 27.5-6.3 53.3-3.2 79.3 5.2 21.6 7 39.9 19.5 55.6 35.5 13.5 13.8 22.4 30.5 24.7 50.1 1.2 10-.9 19.6-2.8 29.5-3.1 16.5-10.4 30.7-19.7 44.1-13.1 18.9-31 32.7-49.5 45.9-7.3 5.2-15 9.8-23.5 13-8 3.1-15.7 7.2-23.6 10.5-4.5 1.7-5.3 4.3-2.5 8.2z"/><path fill="#E4E5E6" d="M2154.3 1114.3c4.9-.2 6.6 5.1 10.7 6.4-2.4 4.6-.2 8.1 2.2 11.9 5.3 8.2 7.6 17.5 9.1 27 .7 4.2-1 7-5.2 8.3-7.4 2.4-14.5 1.7-21.4-1.5-10-4.5-20-9.2-28.4-16.3-3.7-3.2-6.2-2.5-8.8 1.5-3.2 4.8-5 10.2-6.2 15.7-2.2 10.8-5.9 21-9.8 31.3-3.6 9.4-10.5 15.1-19.8 18.2-18.4 6-37.4 6.6-56 3.3-16.2-2.8-30.6-10.2-40.2-24.9-7.7-11.7-15.3-23.3-21.2-36-1-2.3-1.7-5.6-5.5-4.4-4.4 1.5-9.4 3.6-11.3 7.2-6.1 11.4-16.1 19.3-24.5 28.6-6.8 7.5-16.1 9.5-25.6 7.2-7.3-1.8-12.8-6-14.6-14.5-3-13.8-3.3-27.4-2-41.3 1-10.5 5.3-20.1 7-30.4.3-1.9 1.8-3.6-.4-5.3-2.4-2-4.2-.9-6.2.5-.8.6-1.7 1-2.5 1.6-9.8 7.6-21.2 8.7-33 8.1-8.4-.4-8.8-1.5-11-9.9-6.4-24.6-1.4-48.1 7.2-71.1 2-5.3 2.9-5 9-2.9 11.5 4.1 21.2 10.8 30.2 18.7 4.1 3.7 7.1 2.9 11.2-.2 7.6-5.8 14.5-12.6 22.9-17.4 10.4-6 21.3-10.7 33-13.3 15.2-3.4 30.2-5.7 42.7 7.3 1.1 1.2 2.9 1.8 4 2.9 2.9 3.1 6.3 6 7.6 10.2 4.8 15.5 12.9 29.6 19.8 44.1 5.6 11.7 18.3 15.6 30.5 11.5 5.4-1.8 10.2-4.6 14.8-7.8 8-5.6 9.6-5.6 17.6.2 9.9 7.2 18.9 15.5 26.6 25 3.2 3.9 6.8 7.4 10.8 10.3 6.2 4.4 11 3.1 14.5-3.7 1.7-3.3 1.8-7.5 5-10.1 3.6 2 6.1 4.7 8.7 7.2 4.8 4.1 5.7 3.7 8.5-3.2zm-244.6-50.8c0 1.3-.1 2.7 0 4 .4 3.5 1.7 6.6 4.9 8.1 3.8 1.8 7.2.1 10-2.3 4-3.3 5.8-8 7.2-12.7 1.2-4-3.4-9.3-7.7-9.8-9-1.2-14.5 3.6-14.4 12.7zm42.5 27.1c.3-4.2-2.3-7.8-5.4-7.7-2.6.1-8.2 6-8.1 9 .2 4.6 4.5 4.3 7.4 5.1 3.8 1 5.7-1.4 6.1-6.4zm13.3-24.2c2.1-1.2 5.2-1.4 5.9-4.3.5-2.2-3.4-5.2-6.2-4.9-3.1.3-4.7 2.5-4.5 5.4.1 2.4 2.2 3.7 4.8 3.8z"/><path fill="#080B06" d="M161.8 841.2c2.1-5 3.2-10.1 1.8-16.2-15.4 4.1-28.9-2.5-42.4-8.3-12.9-5.5-22.7-14.8-31.1-25.7-4-5.2-5.8-11.1-7-17.4-.5-2.9.1-5.7 3.1-6.3 2.9-.5 3.2 2.4 4 4.6 4.1 11.7 11.2 20.2 23.2 25.3 12.4 5.3 25.3 4.8 38 6.8 3 .5 3.7-2 4.6-4.2 3.4-7.9 2.5-16.4 3.6-24.5 2.6-18.7.1-37.2-5.4-55.2-2.6-8.6-8.2-15.9-12.1-24-3.7-7.9-9.2-14.5-15.4-20.7-1.8-1.8-4.8-3.8-2.3-6.6 2.3-2.6 5.7-3.2 9-1.5 1.2.6 2.3 1.4 3.2 2.3 11.1 10.5 21.7 21.3 28 35.8 8.5 19.4 13 39.6 14.7 60.6.1 1.3.1 2.6.4 3.9.1.6.7 1.1 1.1 1.7 13.9-3.5 22.4-12.5 25-26.4 2.9-15.5 8-30.9 4.7-47.1-.6-2.8.9-4.3 3.2-5.4 3-1.4 5.4-.3 6.9 2 1.9 3.1 3.4 6.7 3.2 10.3-1 18.5-2.2 37-10.7 54.2-6.2 12.5-14.1 23.2-26.7 29.4-5.4 2.6-7.1 6.2-7 11.8.3 11.3.3 22.6.4 33.9-3.7 7.5-2.1 15.7-2.6 23.5-1.3 18.6 3.3 36 15.7 50.7 2 2.4 4.7 3 7.2 2.2 13.2-3.8 26.3-1.5 39.3.8 5.1.9 9.1 0 13-2.9 14.5-10.9 30.2-20.3 46.2-28.6 15.4-8 31.9-15.1 49.1-17.3 17.8-2.3 35.5.9 51.7 10.2 9.1 5.3 14 13.9 19.9 21.8 3.7 5 6.5 10.5 8.5 16.7 2.8 8.8 7.5 17 11.5 25.3 2.4 5.1 4.7 10.2 6.5 15.6 3.5 10.1 5.4 10.7 15.9 8.6 7.8-1.6 15.6-3.2 23.5-3.7 11.8-.7 23.8-2.1 35.3 2.8 1.5.6 3 1 4.2 2.2 8.4 8.3 15.7 24.4 9.6 38.9-7.1 17.3-15.9 33.5-27 48.2-7.9 10.5-18.2 19.1-27.6 28.4-3.5 3.4-8.4 2.5-12.4 1.8-18.6-3.2-36.8-8-54.8-13.5-12-3.7-23.7-8.4-36.1-10.6-3.8-.7-5.5.1-8.3 3-7.5 7.9-16 14.9-25.9 19.6-5.7 2.8-10.1 7.1-15.4 10.5-9.2 5.8-19 9.2-29.2 12.1-2.3.7-4.3 1.4-6.7.6-15.1-4.8-30.6-8.6-42.9-19.7-8.6-7.8-18.5-14.1-25.1-23.9-1.6-2.3-2.9-2.7-5.7-1.7-7.7 2.9-15.8 4.9-23.5 7.8-18.6 7.2-38 8.7-56.7 3.2-10.7-3.1-21.8-9.5-26-21.9-1.7-4.9-.9-9.6 1.4-14.4 4.9-10.3 14-16.7 21.5-24.5.7-.7 1.7-1.1 3.2-2-3.4-3.1-4.9-6.3-6.8-9.3-11.1-17.5-6.4-34.4 5.8-48.1 5.3-5.9 10.1-12.6 17.2-16.5 6.6-3.7 12.1-8.8 19.1-12.1-12.6-2.4-24.5-3.5-33.9 7.8-3.7 4.4-7.5 9.6-14.9 6.3-3.8-1.7-5.2-3.9-3.1-7.4.8-1.4 2.1-2.6 3.2-3.7 21.1-20.4 31.6-46.2 38-74.1.6-1.9.7-3.9.1-5.8zm46.2 84.9c-8.8-.2-16.1 1.9-23.6 3.4-21 4.2-34.3 18.8-45 35.3-8 12.4-7.5 25.5 8.6 35.8 5.5 3.5 5.7 5.1 1 9.7-2.6 2.5-5.5 4.8-8.3 7.1-5.7 4.6-12 8.4-16.9 14-4.8 5.5-5.2 7.1-1.5 13 1.8 2.8 4 4.9 7.1 6.7 21.6 12.7 42.5 5.2 63-2.5 9.6-3.6 18.3-9.3 27.5-14.1 5.8-3 8.4-2.2 10.6 3.9 1.9 5.4 4.4 10.4 8.1 14.7 9.6 11 21.3 18.9 34.8 24.3 18.3 7.4 35.7 5.6 52.3-5 12.3-7.8 23.4-17.2 34.7-26.3 4.7-3.8 9.1-4.4 14.7-3 11.3 2.8 21.9 7.6 32.8 11.6 16.5 6.1 33.9 9.1 51 13.1 6.6 1.6 12.8.7 18.8-3.7 4.9-3.5 9.2-7.7 13.3-11.9 15.4-15.8 24.3-34.7 25.5-56.8.8-15.7-1.9-18.9-17.3-22.5-1.6-.4-3.3-.7-4.9-.7-16.6.3-33.2.7-49.3 5.5-8.4 2.5-12.1.1-12.2-8.7-.3-27.9-13-51.1-27.6-73.6-.9-1.4-2.1-2.5-3.4-3.5-18.3-14.7-39.1-18.4-62-14.8-16.8 2.6-31.6 9.8-46.1 17.9-14.8 8.3-29.7 17.2-40 30.7-5.7 7.4-10 7.1-17.3 5.2-9.6-2.7-19.3-5.3-28.4-4.8z"/><path fill="#0D0C0C" d="M2154.3 1114.3c-2.8 6.9-3.7 7.4-8.2 3.1-2.6-2.5-5.1-5.2-8.7-7.2-3.2 2.6-3.3 6.8-5 10.1-3.5 6.8-8.3 8.1-14.5 3.7-4-2.9-7.6-6.4-10.8-10.3-7.8-9.5-16.7-17.8-26.6-25-8-5.8-9.6-5.9-17.6-.2-4.6 3.3-9.4 6-14.8 7.8-12.2 4.1-24.9.2-30.5-11.5-7-14.5-15.1-28.6-19.8-44.1-1.3-4.3-4.7-7.1-7.6-10.2-1.1-1.2-2.9-1.8-4-2.9-12.4-13-27.5-10.7-42.7-7.3-11.7 2.6-22.6 7.4-33 13.3-8.4 4.8-15.3 11.6-22.9 17.4-4.2 3.2-7.1 3.9-11.2.2-9-7.9-18.7-14.6-30.2-18.7-6.1-2.2-7-2.5-9 2.9-8.7 23.1-13.6 46.5-7.2 71.1 2.2 8.4 2.6 9.4 11 9.9 11.7.6 23.2-.6 33-8.1.8-.6 1.7-1 2.5-1.6 2-1.4 3.8-2.5 6.2-.5 2.1 1.8.7 3.5.4 5.3-1.8 10.3-6.1 19.9-7 30.4-1.3 13.9-1 27.6 2 41.3 1.8 8.5 7.3 12.7 14.6 14.5 9.6 2.3 18.8.3 25.6-7.2 8.4-9.3 18.4-17.1 24.5-28.6 1.9-3.6 7-5.7 11.3-7.2 3.7-1.2 4.4 2.1 5.5 4.4 5.9 12.7 13.5 24.4 21.2 36 9.6 14.7 24 22.1 40.2 24.9 18.6 3.3 37.7 2.7 56-3.3 9.3-3 16.2-8.8 19.8-18.2 3.9-10.2 7.6-20.5 9.8-31.3 1.1-5.5 3-10.8 6.2-15.7 2.6-4 5.1-4.6 8.8-1.5 8.5 7.2 18.4 11.8 28.4 16.3 6.9 3.1 14 3.9 21.4 1.5 4.1-1.3 5.9-4.1 5.2-8.3-1.6-9.5-3.8-18.8-9.1-27-2.5-3.8-4.6-7.3-2.2-11.9 3.3-1.5 5.5-.4 7.5 2.6 5.1 7.5 7.6 16.1 10.4 24.6 2.1 6.4 3.9 12.2 2.3 19.2-1.8 7.7-6.7 11.6-13.2 13.3-11 2.8-22.1 2.7-32.9-2.3-7.2-3.3-14.5-6.1-21.3-11.2-4 7.3-3.6 15.1-5.3 22.3-.3 1.1 0 2.4-.3 3.7-3.1 14.1-12.6 22.3-24.2 29.8-14.2 9.2-29.5 10.9-45.5 11.1-3.3.1-6.6-.1-9.9.1-21.6 1.4-39.3-8-55.7-20.3-11.7-8.8-22.9-18.2-30.5-31-2.5-4.1-4.6-2.7-6.9 0-5.1 6.1-10.1 12.3-15.3 18.3-19.1 22.2-49 7.9-57.2-10.7-6-13.6-5.1-27.9-4.1-42.2.4-5.9 1.7-11.8 1.2-18.5-9.5.8-18.4 3.3-27.6 2.4-9.8-1-18.6-3.1-25.4-11.5-3-3.7-4.4-7.3-4.5-11.4-.4-10.5-1-21.1 3.2-31.3 1.7-4.2 1.9-9 2.5-13.6 2.2-15.3 6.9-29.6 15.3-42.7 2.3-3.5 4.5-5 9.1-4.4 11.4 1.3 22.1 4.8 32.4 9.2 5.9 2.5 10 3.3 15.6-1.9 9.7-9 21.5-15.3 34.4-19.1 3.3-1 6.6-1 9.8-.9 11.9.4 23.7-1.2 35.6 1.8 18.7 4.7 33.2 14.4 41.7 32 4.4 9.3 9.6 18.2 12.8 28.1 2.2 6.6 7.5 10.8 11.6 16 2.5 3.2 5.8 3.2 8.9 1.6 3.2-1.7 6.2-3.9 8.9-6.3 15.9-13.7 31.1-8.5 41.3 2.5 9.7 10.5 20.9 19.3 31.3 29 .9.9 2 1.8 4.5 1.4.7-2.8 1.7-6.2 2.3-9.6.6-3.5 3.1-5.2 5.9-6.1 3.2-1.1 6.5.6 7.8 3.2 3 6.4 9.3 10.3 12.5 16.5z"/><path fill="#0F0D09" d="M3229.1 731.7c-9.4-4.9-16.2-10.6-23.3-16-8.8-6.7-14-15.8-17.4-26.2-2.6-8.2-5.7-16.2-4.9-25.2.9-9.1 4.9-12.2 13.7-9.9 3.4.9 6.8 2.8 11.2 1.4-2.5-8.2-4.2-16.5-5.6-24.9-1.1-6.7-.7-13.2 1.8-19.5 1.8-4.3 4-4.8 7.4-1.4 2.1 2.1 3.5 4.8 5.4 7.1 3.9 4.7 7.2 10.2 13.2 12.4 2.5-2.3 1.8-4.8 1.7-7-.9-14.4 3.5-27.4 10.7-39.6 1-1.7 1.5-3.6 3.7-4.5 3.3-1.3 5.9.1 6.1 3.7.2 4.3-.4 8.7.2 12.9 3.4 23.5 13.8 43.4 32.8 57.9 18.3 14 12.3 11.8 29.3-.9 17.3-12.9 35.4-21.6 57.4-20.9 2.7.1 5.3-.1 8 0 6.9.3 13-1.1 17.6-6.9 1-1.2 2.7-1.9 4.1-2.8 12.3-8.7 14.3-8.4 22.5 4.2 7.1-8 14.8-14.9 25.1-18.7 9.3-3.4 18.1-2.3 24.1 5.2 7.1 8.8 9.5 18.8 9.3 30.4-.5 25.2-15.2 43.1-29.4 61.6-12.5 16.3-27.4 29.5-46 38.6-3 1.5-5.8 2.9-9.2 3.6-11 2.2-21.9 4.9-33.3 4.3-3.1-.2-5.5 1-8.1 3-11.6 8.8-22.6 18.6-36.2 24.1-20.7 8.4-41.1 6.5-60.4-4.1-6.2-3.4-10.2-9.7-13-16.1-2.1-4.8-4.5-5.3-9.2-4.2-14.9 3.5-29.8 6.3-45.2 3.6-4.1-.7-8.4-1.2-11.9-3.4-2-1.3-5.2-2.7-4.7-5.9.5-3.6 3.7-4.9 6.7-4.9 6.5-.1 12.5-2.1 18.5-3.7 8.5-2.3 17.7-2.4 27.3-7.3zm-8.6 11c-6.8 1.4-13.7 2.8-20.5 4.1 7.9 1.3 15.6 1 22.9-1.8 6.1-1.8 12.9-.8 18.5-4.6 1-.2 2-.3 2.9-.7 5.6-3 8.1-.5 10.1 4.8 4.5 12.3 12.4 20.5 26 23.1 12.9 2.4 24.8 3.9 37.5-3.1 12.6-7 24.9-13.9 35.4-23.7 1.7-1.6 3-4.6 6.5-3.5 8.4 2.6 16.3-.4 24.4-2.2 18.5-4.1 33.9-13.3 46.9-26.6 18.8-19.2 30.1-42.7 36.6-68.7 1.7-6.8-1.1-12.5-5.2-17.5-3.6-4.4-7.2-4-11.4.3-3.3 3.3-6.4 6.8-9.6 10.1-4.2 4.4-9 8-14.3 10.7-5.2 2.6-7.9 1.4-10.1-3.9-1.2-2.9-1.5-6.3-3.9-8.9-1.6 1.3-3 3-4.8 3.7-5.7 2.3-5.5 5.8-2.7 10.2.7 1.1 1.7 2.4 1.7 3.6 0 11 8.2 12.1 16.1 13.6 2.3.4 4.6.5 6.9.5 3.3 0 6.2.9 6.7 4.5.5 3.5-1.7 5.3-5 6.3-5.7 1.7-11.3 3.8-16.9 5.7-2.9 1-5.4 2.2-5.7 5.9-1 11-7.8 19.5-12.6 28.9-3.4 6.7-4.4 7-11.7 5.6-1.4-.3-2.8-.3-3.1-1.7-.4-1.8.3-3.5 2-4.1 3.4-1.1 6.1-3.1 7.4-6.2 3.6-8.5 9.2-16.2 9.6-25.9.2-5.3 1.2-10.4 9.1-12.1-4.9-3.4-8.1-6.2-10-10.1-6.6-13.1-18.1-15.6-31.3-13.9-10.2 1.3-20.1 4.4-29.6 8.4-11.1 4.6-21.1 10.9-27.4 22-4.1 7.2-11.5 8-17.5 1.7-4.8-5-10-9.7-15.2-14.2-16.5-14.3-26.7-31.9-31.5-52.9-.4-1.8-.9-3.7-2.6-4.9-5 11.1-5.9 21.7-3 34 .4 1.7 2.7 3.5 0 5.2-2.3 1.4-4.6 2.8-7.3.7-1.6-1.2-3.2-2.3-4.9-3.4-6.9-4.5-11.9-11.1-18-17.3-1.4 4.2-.8 7.3 0 10.5 2.6 10.6 4.9 21.3 12.6 29.9 1.6 1.8 2.7 4.2 1.2 6.4-1.6 2.2-4.2 1.4-6.4.7-.9-.3-1.8-.9-2.8-1.2-7.3-1.9-14.5-4.2-21.8-8.2-2.4 16.1 4.1 28.8 13.1 39.8 7.5 9.3 17.7 16 28.2 21.9 4.1 2.3 8.3 4.7 6.5 10.7-6.7 4.9-14.5 5.9-22 7.8zM194 827.9c-2.9-3.9-2-6.5 2.5-8.4 7.9-3.4 15.6-7.5 23.6-10.5 8.5-3.2 16.2-7.8 23.5-13 18.5-13.2 36.4-27 49.5-45.9 9.3-13.4 16.5-27.7 19.7-44.1 1.9-9.9 4-19.5 2.8-29.5-2.3-19.6-11.2-36.3-24.7-50.1-15.7-16-34-28.5-55.6-35.5-25.9-8.4-51.8-11.5-79.3-5.2-25.1 5.7-45.7 18.9-66.4 32.6-13.4 8.8-24.1 20.8-36 31.4C34.2 667.1 22.4 689 18 714.8c-2 11.4-4.8 22.6-6.2 34.2-2.7 21.9 1.8 41.4 14.3 59.3 1.3 1.9 2.4 4 3.4 6.1 3.7 7.9 10 13.5 18 16.3 12.8 4.5 25.4 9.8 38.8 12.6 7.9 1.6 15.6 1.9 23.6 1 6.9-.8 13.9-1.5 20.8-2.1 5-.5 10.3-.8 14.4-3.4 5.3-3.4 6.1.8 8 3.6-1.7 3.8-3.6 6-8.6 6.4-9.2.6-18.2 3.8-27.4 4.4-16.6 1-33.4 1.3-49.7-3.3-8-2.2-15.7-5.2-23-9.2-10.9-5.8-18.3-15.1-25.2-25-13.8-19.3-17.7-41-19-64-1.8-31.7 9.4-59 26.2-84.7 21-32.1 50.7-54.3 83.9-72.3 6.4-3.5 12.7-7.2 19.1-10.8 2.9-1.7 5.9-2.9 9.2-3.8 25.2-6.4 50.5-11.9 76.5-6.7 12.7 2.5 26.2 3 37.3 11 .9.7 2.5.4 3.8.7 9.8 1.7 18.2 5.9 24.8 13.4.6.7 1.5 1.3 2.4 1.8 23.6 12 33.2 35.1 44.5 56.8 2.7 5.2 3 26.4 1.9 33.1-.7 3.9-1 7.9-1 11.8-.1 9.9-3.6 18.9-8 27.5-7.9 15.7-16.5 31-29.1 43.6-17.1 17.2-35.1 33.1-57.8 43.2-13.1 5.5-25.8 10.6-39.9 11.6zm404.6 361.8c3.5-1.7 6.8-5.1 10.8-7.5 10.2-6.1 20.3-5.3 30.5-1.3 7.4 2.9 14.3 6.9 20.6 11.8 3.8 2.9 6.5 6.5 9 10.5 3.8 6.2 3 11.8-.7 17.7-4 6.2-8.9 11.5-13.8 16.9-3.5 3.9-5.1 6.8-1 11.6 3.6 4.2 4 10.5 7.9 14.8 1.9 2.1.9 5.1.8 7.7-.3 11.9-12.3 25.9-23.8 28.5-11.2 2.5-21.2-1.5-31.3-5.2-7.6-2.8-7.6-3.1-12.8 3.4-4.9 6.2-11.1 11.3-16.2 17.3-4.2 5-9.1 6.5-15 5.7-22.8-3-44.1-9.4-60.9-26.3-1.9-1.9-3.6-3.9-5.2-6-9-12.4-6.2-24.9 4.4-35.5 3.7-3.7 8.1-6.7 11.3-11.1-.9-1-1.4-1.8-2.1-2.4-11.8-10.3-13.2-24.1-3.9-36.8 9.9-13.5 21.3-25.1 37.5-31.1 16.7-6.2 31.1-3.2 44 8.9 3 2.9 6.2 5.3 9.9 8.4zm-35.6-2c-9.4.8-18 3.8-26.7 7.3-8.6 3.5-15.4 8.9-21 16.2-4.7 6.1-4.7 9.5-.5 15.8 3.4 5.2 8.1 8.6 13.2 11.9 5.4 3.6 5 5.6-.5 9.1a82.12 82.12 0 0 0-19.9 17.7c-4.8 5.9-4.3 10.6-.1 17 11.5 17.1 28.3 24.2 48 26.1 7.8.8 14.3-1.9 20-7.2 5.9-5.5 10.5-12 15.9-17.8 5.4-5.9 7.6-6.5 14.7-3.1 5.1 2.4 9.9 5.5 15 8 9.7 4.7 21.8 2.8 26.1-4.7 5.4-9.5 6.9-20.4-1.8-29.4-6.9-7.1-7.1-8.9-1.4-17 1.9-2.7 4.4-5 6.4-7.6 2.9-3.6 6-7.2 8.5-11 2.6-3.9 2.9-7.9-.7-11.8-7.6-8.1-15.6-14.7-27-17.7-9.6-2.5-16.8-.2-24 5.5-4.1 3.3-6.4 10.2-11.8 9.9-5.1-.2-8.3-6.1-12.5-9.4-6-4.8-12.1-8.2-19.9-7.8zm92.2-14.8c-14.5-1.1-27.8-.7-40.8-4.5-8.2-2.4-14.7-5.2-16.3-14.9-1-6-2.1-5.7-8.4-4.4-9.7 1.9-19.2 4.4-29.4 2.2-15.4-3.4-24.7-19.6-19.4-34.8 3.7-10.8 13.5-14.9 22-20.2 4.7-3 10.1-4.9 15.4-6.9 3.4-1.3 6.3-3.2 4.8-9-2.5-9.3-.9-19.2-.4-28.8.4-7.5 6.2-12.4 12.1-16.2 10-6.5 21.5-8.6 33.2-8.8 4.6-.1 9.1-1.6 14.3 1.4 8.5 5 13 12.1 15.6 20.8 1.3 4.1 2.3 6 7.3 5.1 8.8-1.5 17.8-2 26.7-2.7 4.3-.3 8.6-.1 12.9.1 3.1.1 6.3 1.4 7.6 4.1 6.9 13.9 10.1 28.3 1.9 42.8-4.2 7.5-9.3 14.5-14 21.7-6.1 9.4-6.7 11.2 1 18.9 11.5 11.5 5.8 22.9-7.6 29.7-8.7 4.4-17.9 4.5-27.1 4.6-4.1 0-8.4-.8-11.4-.2zm4.2-8.8c10.4.5 20.5-.5 29.8-5.9 3-1.7 3.9-3.4 3.5-7.1-.6-5.9-2.3-10.7-6.8-14.9-2.8-2.6-6.2-7-2.2-10.3 9.8-8.2 13-19.7 17.1-30.8 3.1-8.4 4.6-17.3 4.8-26.3.1-2.2 0-4.2-2.8-4.2-13.2.1-26.6-1.5-38.9 5.4-6.4 3.6-9.5 2.4-11.6-4.9-1.3-4.5-1.5-9.2-2.9-13.6-1.8-5.6-3.5-11.8-10.3-13.5-9.8-2.5-19.8-2.6-29.5.5-11.4 3.7-16.7 11.6-17.9 23.4-1 10.1.1 19.9 3.1 29.3 1.7 5.2 0 7.3-4.2 9.2-9.3 4.3-18.4 9.2-28.1 12.5-4.2 1.4-7.8 3.5-10.7 7-1.1 1.3-1.8 2.6-1.4 4.5 1.6 8.7 12 15.5 21 13.7 8.5-1.7 16.9-3.5 25.5-4.7 9.6-1.3 14.5 2.9 15.8 12.5.2 1.3 1 2.6.9 3.9-.5 6.1 3.2 7.7 8.3 8.9 12.5 2.8 24.9 4.9 37.5 5.4zm123.6 4.7c-4-2.7-7.4-1.5-10.5-2-10.8-1.6-17.7-8.8-18.2-19.7-.1-3-.4-6-.3-9 .3-17.1 6.3-23.5 23.3-26.1 7.7-1.2 15.3-1.3 22.9-.6 6 .5 10.6-.8 13.5-6 5.4-9.7 14.7-11.5 24.4-12.3 9.3-.8 18.5.3 27.5 3.1 6.5 2 7.6 3.1 7.1 9.9-.4 4.9-1.6 9.8-2.4 14.7-.5 2.9.5 4.5 3.7 4.1 7.4-1.1 14.5.9 21.6 2.4 8.8 1.8 11.9 6.6 11.5 15.5-.2 6.4-2.1 12.5-3.6 18.6-3.1 12.5-13.6 20.6-26.8 21.2-2.6.1-5.3.3-7.9-.2-4.3-.7-6.3.5-7.6 5-6.7 23-25.6 29.7-46.2 30-14.3.2-28.8-3.7-39.3-15.7-2.5-2.9-3.4-5.2-2.5-9.6 2-8.4 4.2-16.4 9.8-23.3zm87.2 3.5c2 0 4-.3 5.9.1 6.5 1.3 10.7-2.2 14.7-6.3 5-5.2 4.9-12.3 6.4-18.6 2.1-8.6-2.7-14-11.4-12.5-6.6 1.2-13.3.6-19.9 1.4-5.6.7-7.3-1.2-6.2-7 1.3-6.5 1.9-13.1 3.2-19.6 1.1-5.4-1.4-6.5-5.4-7.1-7.6-1.2-15.4-1.1-22.8.4-8.3 1.6-15.9 5.5-16.9 15.6-.3 3.3-2.5 4.7-5.2 5.1-2.9.4-6.1.7-8.9 0-7-1.7-13.7-1.2-20.7.2-16.4 3.1-18.6 12.1-16.5 24 1.1 6.6 4 9.4 10.5 10.2 4.2.5 8.4.9 12.8.2 5.9-.9 8.4 2.2 8.1 8.2-.1 4.3-2.7 7.4-4.9 10.7-10.9 16.9-8.5 13.7 7.8 23.2 11.8 6.8 24.1 3.8 36.6-.4 8.8-3 12.9-7.7 14.7-16.4 2.3-11.3 2.7-11.2 14.8-11.1 1.3-.3 2.3-.3 3.3-.3zm-483-21.2c-1.7-3-4.6-4.2-6.9-6-10.7-8.3-12.3-18.5-3.7-28.8 12.2-14.4 26.4-26.1 45.9-28.8 10.7-1.5 20.7.8 26.8 11.1 2 3.3 4.2 3.5 7.4 2.7 8-2 15.7-5.2 24-6.4 12.1-1.7 15.8.8 17.7 12.5 1.3 7.5-1.1 14.4-3.4 21.4-2.5 7.5-2.1 8 5.9 9.4 2.6.5 5.3.6 7.8 1.5 7.2 2.5 9.5 7.7 7.7 15.4-3.7 16.3-12.9 28.9-25.6 39.1-3.8 3.1-8.7 4.4-13.9 4.5-13.3.3-26.6 0-39.2-4.8-6.5-2.5-11.2-1.5-16.3 3-5.2 4.6-10.8 8.6-17 12-8.4 4.7-14.9 1.1-21.8-2.7-1.1-.6-1.8-2.1-2.9-2.7-17.5-10.3-15.6-25.6-3.7-40 3.8-4.3 7.6-8.3 11.2-12.4zm104.7-5.1c-10.5 0-12-2.1-9.5-12.4.2-1 .8-1.8 1.1-2.8 2-5.9 4.2-11.8 6-17.9 1.5-5.1-1.2-10.5-4.8-9.8-6.7 1.4-13.7 1.4-19.9 5.3-11.4 7-12.1 6.7-21.2-2.2-1.2-1.2-2.3-2.4-3.6-3.5-4.7-3.9-10.1-6.5-16.3-6.6-14-.2-34.5 15.2-38.5 28.8-1.1 3.8-.6 7.2 1.5 10.5 3.1 4.8 7 8.7 12.1 11.5 7.8 4.4 7.7 6 1.1 12.3-3.8 3.6-7.5 7.3-10.9 11.2-7.7 8.6-5.6 21.7 4 28.1 3.8 2.5 7.5 3 11.1.6 5.2-3.5 11.1-6.4 15-11.4 5.8-7.5 12.5-8.6 21-5.1 8.3 3.4 17.1 5.5 26 6.4 14.9 1.5 36.1-13.6 40.3-31.2 1.6-6.9-.6-11-7.5-11.9-2.3-.1-4.6.1-7 .1z"/><path fill="#0D0C0C" d="M1790.7 1100.5c1 16.4-8.6 29.6-23.4 39.8-5.2 3.6-11 6.2-16.2 9.8-3.9 2.6-8.4 1.5-12.4 3-.9.3-3-.6-3.5-1.5-5.6-10.1-15.9-17.4-19-28.7-2.4-8.5-6.8-10.9-14.6-10.4-2 .1-4-.4-5.9-.6-11.4-1.2-12-1.9-8.9-12.5.7-2.3.6-4.6.8-6.9.8-14.4 6.3-26.6 17.1-36.5 4.8-4.4 8.9-9.6 14.7-13.2 5.8-3.6 11.6-4.7 18-2.9 7 2 14.2 3.7 20.8 6.6 9.3 4.1 16.5 11.3 21.6 20 5.7 9.6 11.4 19.6 10.9 34zm-16.6-2.2c-.4-6.4-.6-11.4-3.4-15.8-7.2-11.3-16.4-20.8-27.9-27.8-9.9-6-19.8-3.5-26.8 5.8-3.7 5-7.5 10.1-11.5 14.9-3.7 4.5-5.5 9.8-7.2 15.1-1 2.9 0 4.5 3.1 4.6 1.7 0 3.3.2 5 0 7.6-1 12 2.5 15.8 9.1 5.1 8.9 9.3 18.2 14 27.3 5.5 10.5 7.3 10.9 17.4 5 4.9-2.9 9.7-5.8 13.4-10.2 2.1-2.5 5.3-4.2 5.7-7.9.8-7.1 1.7-14.3 2.4-20.1z"/><path fill="#B5B884" d="M1712.5 736.6c-2.4 1.7-4.9 3.3-6.1 6.3-8 18.6-22.5 32.6-34.9 48-8.7 10.7-16.6 22.2-26.8 31.6-9.4 8.7-18.7 17.4-25.7 28.4-2.1 3.3-15.6 1.8-18.2-1.6-4.9-6.3-8.5-13.3-11.8-20.5-1.7-3.7.4-6.2 2.6-8.9 6.5-7.6 13.8-14.6 21.8-20.4 19-13.8 37.1-28.8 55.9-42.9 8.4-6.3 18.5-8.9 26.9-14.9 2.8-2 5.9-3.3 4.7-7.6 3.6 1.3 7.4 2.8 11.6 2.5zm-96 97c1.4-.7 2.6-1.2 3.6-1.9 2.5-1.7 4.5-3.8 6.5-6 10.2-11.3 19.6-23.3 31.6-33 8.6-7 15.9-15.8 23.7-23.8 2-2 3.7-4.5 2-7.1-1.9-2.9-5.3-2.7-8.1-1.4-3.6 1.6-7 3.7-10.1 6.2-13 10.7-25.3 22.2-38.4 32.8-6.3 5.1-14 9.1-18.4 16.4-1.4 2.3-5.8 3.7-3.2 7.4 2.9 4.1 6.7 7.3 10.8 10.4z"/><path fill="#121010" d="M1758.7 743.9c-.2 3.6-.8 7.4-.4 10.9.8 6.5 4.2 8.3 10.4 6.1 14.5-5.1 24.6-22.3 23.9-37.8-.5-10.9-4.7-20.6-7.1-30.9-.7-3-2.8-5.2-5.5-6.8-2.5-1.5-3.4-4.1-3.8-6.6-.6-3.7 2.5-5.1 5-6.6 1.8-1.2 3.1 0 4 1.6 6.2 11.3 14.8 21.5 17.4 34.4 4.8 23.5-3.7 51-26.8 65.9-5.1 3.3-10.4 2.8-14.8-.9-5.1-4.3-9.7-9.1-14.3-13.9-2.2-2.2-2.7-5-1.6-8.3 1.7-5 3.1-10.2 4.2-15.4 1-4.5-1-6.2-5.5-5.1-1 .2-1.8.8-2.8 1.1-12.4 4.4-12.7 3.9-20.7-7.3-6.5-9-10.6-19.1-15.1-29.1-.4-.9-1-1.8-1-2.7-.2-2.7 1.2-4.6 3.6-5.4 2.3-.7 3.5 1.1 4.4 3l9.3 19.8c1.3 2.7 3.2 5.1 4.6 7.6 3.3 5.9 7.9 6.3 13.6 4.8 14.3-3.7 18.8-.2 19.2 14.6.1 2.3 0 4.7 0 7h-.2z"/><path fill="#B5B884" d="M3079.6 898.8c-4.5-.6-7.4-3.8-12.8-7.5 10.4 2.8 18.5 4.9 26.7 7.1-3.2.9-6.1.4-9.1-1.1-1.8-.9-3.8-.8-4.8 1.5zm15.1-.1c3.3-1.1 6 .8 8.9 1.6-3.2.8-6.2.4-8.9-1.6zm-8.1 4.5c-2.4-.2-4.2-1.3-5.6-3.2 2.6-.2 4.4.8 5.6 3.2zM322 414.3c-.4 1-1.1 1.7-2 1.1-.6-.4-.8-1.5-1.2-2.2.6-.2 1.1-.7 1.7-.6.9 0 1.7.4 1.5 1.7zm2770.2 491.8c-1.6.1-2.8-.6-3.7-1.9 1.8-.4 3.1.1 3.7 1.9z"/><path fill="#FEFEFE" d="M537.8 111.4c4.5 4.7 5.1 10.4 5.9 15 1.1 6 4.1 8.1 9.1 8.1 33.1-.1 60.3 15.7 86.9 32.8 3.8 2.4 5.9 2.7 9.6.9 15.1-7.5 30.5-14.4 45.5-22.2 13.1-6.8 27.1-10.6 40.9-15.4 24.6-8.6 50.1-11.3 76.1-13.1 22.8-1.6 43.9 4.7 65.8 8 14.2 2.1 27.3 8.2 40.5 13.5 24.4 9.8 46.8 23.7 69.1 37.5 1.4.9 2.7 2 4.1 2.8 1.7.9 3.7 2 5.1-.4 1-1.7 1.7-3.7-.1-5.5-3.8-3.6-7.2-7.8-11.5-10.6-15.1-10.2-31.2-19-47.5-27.1-9.7-4.8-19.2-9.9-29.2-14.1-14.1-5.9-28.5-11-43.6-13.1-5.8-.8-11.3-3.9-17.3-2-.8-3.9 1.7-4.9 3.4-6.2 10.5-7.5 20.9-15 33.1-20 7.6-3.1 14.8-7.4 21.9-11.8 20.4-12.9 43.4-19.2 66-26.6 22.1-7.2 44.5-13.2 67.1-18.6 9.7-2.3 19.5-3.2 29.3-4.4 29.5-3.5 58.8-2.1 88.3 1.9 15.8 2.2 31.2 5.3 46.6 9 3 .7 5.5 1.8 8.2 3.9-2.2 4-6.4 4.9-10 5.6-16.7 3.5-29.3 15-44.1 22.1-2.9 1.4-5 4.3-7.4 6.7-1.9 1.9-2.2 4.2-.4 6.2 1.9 2.3 3.7.3 5.1-.8 5.6-4.6 13.8-3.1 19-9.1 4.9-5.6 12.5-7.1 19.3-9.6 1.9-.7 3.8-1.8 5.7-1.8 15.8 0 29.6-8.5 45.2-9.8 19.3-1.6 38.4-2.1 57.6.7 4.9.7 9.9.9 14.8 1.6 24.4 3.1 46.8 12 68.3 23 21.4 11 39.3 27 55.3 45 20.6 23.2 29 51.8 35.7 81 2.8 12.3 4.9 24.8 5 37.5 0 1.3.4 2.6.6 3.9.3 2.2 1.6 3.7 3.8 3.9 3 .2 4.2-1.9 4.3-4.4.2-3.6.1-7.2.1-13.1 5 5.2 5.7 10.1 6.6 14.5 3.7 17.9 8.6 35.4 14.2 52.8 3.6 11.1 4.2 22.8 5.3 34.3 2.2 22.8 5.2 45.4 5.5 68.5.2 16.3-2.1 32.2-2.8 48.4-.6 14.2-3.7 28-6.1 42-3.7 22.2-12.6 42.5-20.7 62.9-12.3 30.7-27.3 60.4-47.8 86.6-12.2 15.6-25.4 30.6-39.2 44.9-26.8 27.9-58 50.3-89 73.1-12.4 9.1-26.6 14.6-39.5 22.6-13.2 8.2-27.9 13.5-41.1 21.7-2.8 1.7-6.2 2.4-9.3 3.6-13.1 4.7-25.9 10.4-39.3 13.8-12.3 3.2-24.8 6-37.1 8.8-15.1 3.4-30.2 3-45.2 5.1-7.2 1-14.6.7-21.8.6-23.9-.2-47.4-3.7-70.4-10.6-11.1-3.3-22.8-3.9-33.9-7.5-18.6-6-37-12.6-54.7-21.1-1.2-.6-2.4-1.1-3.7-1.5-16.3-5.8-31.3-13.8-45.7-23.4-9.5-6.4-18.1-14.4-30-17.1-3-.7-5.1-5-7.9-7.3-2.6-2.1-4.8-3.7-8.2.3-14.8 17.1-34.2 26.8-55.9 31.8-32.8 7.6-61.6-1.7-87-22.5-7.5-6.2-11.7-15.4-15.1-24.4-4.4-11.3-7.9-23-8.6-35.4-.2-2.8-1.5-5.7-2.9-8.4-3-5.8-3.8-5.5-10.2-3.4-12.1 4-22.8 12-36.2 12.7-19.8 1.1-31.3-3.8-40.9-20.1-6.4-10.8-8.1-22.1-5.5-34.5 2.2-10.4 4.4-20.8 9.1-30.4.7-1.5 1.4-3 2.3-4.4 4.9-7.4 4.6-7-2.4-13.6-9-8.3-18.4-16.3-25.1-26.8-2.4-3.7-4.2-3.6-7.8-.8-3.7 3-6.2 6.2-8.4 10.4-6.9 12.8-13.3 25.8-22.5 37.4-10.9 13.7-25.4 17.7-41.6 15.6-16.3-2.2-29.4-10.9-40.9-22.6-9.8-9.9-17.2-21-21.5-34.2-6.7-20.5-6.9-41.2-.1-61.6 6.7-20.2 17.3-37.9 32.2-53.6 11.4-12 25.2-20.3 38.1-30.1 16-12.2 35.2-16.3 52.9-24.3 3.7-1.7 4.9.5 5.9 3 4.1 9.6 11.1 17.3 17.1 25.6 11.8 16.4 27.7 27.3 46.2 34.4 11.4 4.4 22.5 9.8 34.8 11.2 12.5 1.4 25 2.7 37.7-.2 7.3-1.7 15.1-.3 22.2-4 2.2-1.2 3.6-1.6 3.8-4.6.3-3.2 1.6-6.4 1-9.8-3.8-20.9-1.4-41.8-.4-62.7 1.4-29.9 7-59.3 15.1-88.1 1.1-3.8 2.6-7.5 3.5-11.4 1.4-6.1-1.3-8.8-7.4-7.7-.3.1-.6.3-.9.4-14 6.8-29.2 5.7-44 5.9-12 .1-23.7-3-35.1-5.9-13.6-3.4-27.1-7.9-39.7-14.6-20.7-11-36.9-26-47.7-47.3-6.6-12.9-11.8-25.9-14.4-40.1-.7-3.7-1.2-7.3-.8-10.9 2.1-18.9 5.7-37.6 11.7-56.9zm193.7 522.8c0-1.3-.5-2.9.1-3.7 1-1.5 2.1-.4 3.1.6 4.8 4.9 5.7 11.9 9.2 17.6 6.9 11.4 15 21.9 22.3 33 6.9 10.5 14.7 20.4 24.4 28.7 1.8 1.6 4 3.4 6.1 1.6 2.4-2.1 3-5.1.7-8-1.4-1.8-3.1-3.5-4.7-5.1-11.1-11.3-21.7-23.2-30.6-36.3-12.3-18.1-21.9-37.7-30.3-57.9-1.5-3.5-3-9.2-7.4-7.7-4.2 1.5-2.4 6.8-1 10.5 2.2 5.8 4.7 11.5 7.1 17.2-2.3.9-4.5 0-6.1 1.7-5.8 1.5-11.8 1.8-17.8 2-18.1.7-35.7-2-53.4-5.3-13.6-2.6-26.3-6.6-36.4-16.6-1-1-2.2-1.4-3.5-1.7-1.3-.3-2.4-.8-3.5.7-1.2 1.6-1.4 2.9-.2 4.4.8 1 1.8 1.9 2.7 2.9 11.5 11.2 26 17.3 41 21.3 17.5 4.7 35.7 7.3 54 6.7 3.5-.1 5.2 1.2 6.8 4.4 5.4 11 13.4 20.3 21.3 29.6 3.2 3.8 6.4 5.1 11.1 4.1 6.1-1.3 7-2.6 3.6-7.6-5.4-8-10.5-16-14.5-24.8.3-1.2-.3-1.9-1.4-2.3 0-1.5 0-3-1.5-4v-.8l-.7-.3c-.1-1.7-.3-3.3-.5-4.9zm46.1-350.7c15.8 1.5 31.6 2.9 47.3 4.3 21.2 1.9 41.8 6.3 61.7 14 10.8 4.2 21.3 9 32.1 13.4 2 .8 5.1 4.4 7.1-.7 1.6-3.9-.3-4.9-3.6-6.3-16.8-6.9-33.3-14.1-50.8-19.4-27.8-8.4-56.6-9.1-85.1-12.8-14.3-1.9-28.4.3-42.5 1.1-3.1.2-7.5-.8-7.4 4.2.1 4.5 4.1 4.5 7.5 4.6 1.3 0 2.6-.3 4-.4 9.9-.6 19.7-3 29.7-2zm630.5-99.1c5.3 5.7 8.9 9.5 12.5 13.3 2.3 2.4 4.5 4.9 6.8 7.2s4.8 2.1 7.1.2c2.9-2.4-.1-4.1-1.1-5.9-.7-1.4-2.1-2.5-3.3-3.7-11.5-12.4-23.8-24-33.6-37.9-2.4-3.4-6.4-5.6-8.2-9.8-1-2.4-3.2-3.4-5.8-2-3.2 1.7-2.6 4.2-1.1 6.8.5.9 1.2 1.6 1.6 2.5 5.7 10.9 10.3 22.2 12.3 34.4 2.3 13.8-2.9 24.3-14.6 31-2.6 1.5-5.5 2.6-8.4 3.2-4.7 1-4.8 3.5-3.5 7.3 1.6 4.8 4.8 5.1 8.6 3.4 18.9-8.2 29.5-16.8 30.4-40.5.4-2.3.3-4.6.3-9.5zm-227.9-6.8c1.1 5.2 1.9 11.9 4.1 18 5.5 15.7 14.6 29.5 25.1 42.3 7.3 8.9 14.6 18 25 23.8 3.3 1.9 6.6 2.9 10.4 2.5 1.8-.2 3.3-.6 3.8-2.5.5-1.8-.3-3.1-2.2-3.8-1.5-.6-2.9-1.5-4.4-2.1-11.1-4.7-19.2-13.3-25.8-22.5-8.4-11.8-13.6-25.6-18.3-39.3-4.6-13.3-6.2-26.9-1.6-40.7 1.2-3.7-1.4-4.8-4.4-4.5-5.6.6-7.9 5.1-9 9.5-1.6 6-1.8 12-2.7 19.3zm133.2-38.3c.1 7.7 1.2 15.3 5.2 22 2.9 4.8 6.6 7.7 13 7.1 6.4-.6 7.9-4.6 9.4-9.7 1.2-4.2 1.6-8.4 1.8-12.7.4-7.9-.4-15.8 1.3-23.7.6-3.1.5-6.6-1-9.8-1.7-3.5-5.7.5-7.8-2.3-.5-.7-1.7-1-2.6-1.3-4.7-1.9-8.2-.5-11.3 3.4-6.2 8-8 17.2-8 27zm118.7 24.3c-.4-9.2-3.3-16.1-7.4-22.5-2.3-3.6-5.5-3.8-6.9-.8-3.5 7.2-6.9 14.4-6.2 22.7.6 6.8 4.1 11.1 9.2 10.8 6.1-.3 11.3-5.7 11.3-10.2zM527.4 519.2c-.4 6.1 1.4 11.9 2.8 17.7.9 3.5 2.6 6.8 4.9 9.7.9 1.1 1.9 1.8 3.4 1.3 1.6-.5 1.4-2.1 1.9-3.2.6-1.3.6-2.6-.4-3.7-5.7-6.3-5-14-5.2-21.6-.1-3.3-.3-6.6-.6-9.9-.1-1.3-.6-2.7-2.2-2.8-1.9-.2-3.3.9-3.6 2.7-.6 3.1-.7 6.5-1 9.8z"/><path fill="#DDD8AC" d="M2367.3 713c9.7 14.2 19.3 28.4 29 42.5 9.2 13.4 18.1 27.1 29.2 39.1 5.6 6.1 10.3 13 15.5 19.5 11.5 14.1 26.4 24.2 41.3 34.1 4.8 3.2 11 5.4 16.7 5.9 12.2 1.1 24.4 3.1 36.5 3.3 13 .2 26.2-.6 39.2-.7 32.3-.1 64.2-5 96.3-7 11.5-.7 22.6-5.1 34.2-6.2 10.5-1 20.9-2.3 31.5-2.8-14.2 8.2-28.9 14.6-45.1 17.5-2.9.5-5.9 1.1-8.6 2.3-20.4 9.1-41.6 15.2-63.3 20.4-25.1 6-50.3 11-75.5 16.4-10.9 2.3-22.3 2.4-33.5 3.4-9.5.8-19 3.6-28.6 1.5-2.3-.5-4.1.3-4.5 2.7-.5 2.8 1.2 4.9 3.7 4.7 6.2-.3 12.1 1.5 18.5.5 16-2.7 32.3-2.9 48.3-5.4 10.5-1.6 21-3.1 30.9-7.2 7.1-2.9 14.8-4 22.2-5.1 17.3-2.5 34.2-7 51-11.5 11.1-2.9 21.4-8.4 32.2-12.5 6.2-2.4 12.5-4 18.9-5.8 20.5-5.7 39.9-14.5 59.9-21.8 5.8-2.1 11.7-4.2 19.1-6.9-2.1 5.3-3 9.6-5.4 12.8-2.1 2.9-2.7 5.9-3.5 9.1-4 16.1-6.8 32.2-5.6 48.9.9 12.4 6 23 11.9 33.5 1.1 2 2.6 3.9 3.6 5.9 4.9 10.3 12.7 17.6 22.9 22.7 4.1 2 8.3 3.7 12.2 6.4 4.4 3.1 10.2 1.1 15.4-.1 3.4-.7 8.1-3.5 9.9.5 1.9 4.2-3.5 5.5-6.2 7.5-4.6 3.3-9.2 6.6-13.9 9.7-5 3.2-6.8 3-9.6-1.9-2.3-3.9-4.6-8.9-9.3-5.3-3.8 2.8-.4 6.8 2.2 10.2 17.2 23.4 36.8 44.7 57.8 64.6 17.8 16.9 39.8 26.2 62.7 33.4 12.6 4 24.9 8.9 38.3 10.5 14.2 1.7 26.9-1.8 39.3-7.9 1.2-.6 2.3-1.4 3.4-2.1 6.1-3.8 11.8-4.1 18.3.2 9.4 6.2 19.5 11.2 29.2 17 2.8 1.7 7.2 3.1 3.7 8.3-3.9 5.6-5.9 6.9-11.1 4.3-8.2-4.1-16.3-8.6-24.3-12.9-3.3 2.1-1.2 4.2-.2 6 1.1 2.1 3.3 3.4 5.4 4.2 7.2 2.7 13.4 7.1 19.9 11.2-2.4 4.1-5.5 7.6-9 10.6-7.6 6.6-12.8 7.3-21.4 1.9-2.7-1.7-5.7-2.9-7.8-5.8-2-2.9-5.9-4.1-9.2-5.5-1.2-.5-2.8-.3-3.6.9-1.1 1.6-.8 3.5.5 4.5 2.3 1.8 4.9 3.4 7.5 4.8 4.9 2.7 9.7 5.6 14.1 10.4-8.6 4.6-17.6 6.6-26.2 9.3-6.7 2.1-13.2-1.1-19.3-3.4-9.7-3.6-19.6-6.4-29.5-9.3-23.4-6.9-45.5-16.8-66.6-28.6-25.2-14.1-48.3-31.4-70.1-50.5-7.2-6.3-14.1-13-19.1-21.4-3.2-5.4-7.1-10.4-11.4-15.1-4.6-4.9-7.3-11-9.3-17.4-1.7-5.4-5.1-6.8-10.4-4.6-15.7 6.6-32.4 8.9-49 12.2-6.2 1.2-12.3 2.8-18.4 4-19.5 3.8-39.3 4.8-59.2 5.3-11.2.3-22.3-.1-33.4 0-10.1.1-20.2-.9-30.1-1.4-1.5-4.4 1.6-6 3.3-8.2 8-10.1 16.8-19.7 22.6-31.4 2.7-5.5 2.2-6.4-3.5-8.4-2.5-.9-3.9-.2-4.6 1.9-5.6 15.8-16.8 27.9-28.3 39.1-15.8 15.3-31 31.9-52.9 39.3-13.1 4.4-26.6 6.4-40.1 5.8-14.5-.7-29.1-1.8-43.1-7.1-6.7-2.5-11.6-7.5-18.1-10.2-9.2-3.8-17.8-8.8-26-14.4-1.4-.9-3.8-1.7-4-2.8-1.5-8.2-8-6.1-12.3-5.3-26.8 5.1-53.1 11.8-77.7 23.8-8 3.9-12.3 10.3-14.2 19-2.7 12.7 1.2 24.3 5.3 35.9 1.2 3.4 4 6.4 1.4 10.2-3.2 4.7-6.5 9.3-12.1 11.3-1.7.6-3.2-.4-4.5-1.5-2.2-2-4.4-4.1-6.5-6.1-2.5-2.3-4.8-2.3-8.1-1-9.9 4-12.4 3.3-18.8-5-4.6-6-9.3-12.1-9.9-20.2-.3-3.5-1.8-6.2-4.6-8.4-5-4.2-5.7-9.2-2.9-15.2 7.4-15.6 15.5-30.7 26.3-44.4 10.6-13.3 23.1-24.5 34.6-36.8 6.4-6.9 15.1-11.8 22.6-17.7 1.5-1.1 2.8-1.1 4.6-.6 13.6 3.9 27.5 2.9 41.5 2.7 12.5-.1 24.6-1 36.9-3.4 6.6-1.3 12.6-4.6 19-5.5 12.9-2 23.2-8.9 32.6-16.8 14.9-12.6 29.5-25.7 40.8-41.9 5-7.1 8.3-15.2 11.7-23.1 2.7-6.2 1.7-7.9-4.4-11.8-8.3-5.3-17.9-8.2-26.1-14-8.1-5.8-16.3-11.3-22-19.8-3.1-4.6-7.1-8.7-10.7-13-16.5-19.4-29.9-40.7-38.7-64.5-5.8-15.7-9.6-32.2-12.3-48.9.8.4 1.5.2 2.1-.1z"/><path fill="#DBD7AB" d="M3179.5 833.4c1.9-7 6.1-11.7 13.5-12.9 2.3-.4 5.2-.4 5-3.6-.3-3.7-3.3-4.7-6.5-4.6-8 .4-13.7 5-18 11.1-8.3 11.8-5.8 32.5 4.6 42.2 3.7 3.5 12.3 2 17-3 1.8-1.9 2.3-4.7 4.9-6.3 1.3 7.7 3.9 14.2 12.8 15.7 10.9 1.9 20.5-.1 27.3-9.3 2.3-3.2 1.9-7.6 2.3-11.6.2-1.7.3-3.4 2.4-3.8 1.8-.3 3.3.6 4.3 2 2.3 3.3 4.3 6.5 1.7 10.9-1.9 3.2-1.6 6.6.7 10.2 3 4.7 4.3 10.3 5 16 1.4 10.7 0 12.9-10.2 16.8-7.9 3-16.3 3.5-24.5 3.5-34.6 0-68.8-4.2-102.7-11.7-28-6.2-54.8-15.8-81.9-25-12-4.1-22.9-10.6-35.1-14-10.5-2.9-20.9-6-30.6-11.3-3.5-1.9-5.7 0-6.5 3.6-1 4.2-2.7 8.4-2.8 12.6-.1 5.1-2.9 6.2-6.8 8-19.3 8.8-39 3.8-58.6 2.5-4.6-.3-9.1-1.7-13.7-2.4-4.7-.7-8.8.5-11 4.9-4.8 9.8-10.4 19.1-11.3 30.6-2.2 26.9 13.5 46.5 41 50.1 4.9.7 9.8 1.7 14.8 1.9 15 .7 28.7-4.4 42.1-10.3 3.6-1.6 7.5-3.4 10.2-6.1 7.3-7.4 15.8-6.8 24.8-5.2 25.3 4.4 50.9 3.9 76.5 3.7 13-.1 26-.7 38.9.1 10.4.6 20.1-3.1 30.5-2.4 1.6 9.3.6 11.1-8.3 13.5-13.1 3.5-26.6 4.6-39.9 6.4-13.5 1.7-27 3.5-40.6 4.3-19.1 1.1-38.3 2.4-57.5 2.1-10.5-.2-21 2.4-31.6 3-11.3.6-22.6.9-33.9.7-21.5-.3-43.1-1.3-64.6-1.8-5-.1-9.8-1.1-14.7-2 1.2-4-3.5-8-.1-12l-1.8-.6c6.5-6.3 5.8-13.5 2.4-20.9-1.9-4.2-3.9-8.5-6.5-12.3-5.8-8.4-7.9-18.1-9.8-27.8-1.3-6.5 1.3-12.5 3.5-18.2 5.6-14.2 11.6-28.3 18.5-41.9 6.3-12.4 13.8-24.2 21.1-36.1 1.7-2.7 4.2-4.9 7.2-6.7 3.7-2.2 3.1-5.3-.7-7.5-1.8-1.1-3.9-.5-5.7-1-21.2-5.5-43.3-6.4-64.4-12.3-14.4-4-27.5-11.2-41.3-16.9-13.1-5.4-23.1-14-32.1-24.3-10.7-12.2-9-26.6-1-37.6 8.6-11.7 19.5-20.3 36.1-18.5 9.9 1.1 20.1-.9 30.3.1 12.9 1.3 24.3 6.4 35.2 12.6 25.8 14.5 41.3 37.7 52.3 64.3 2.8 6.7 6.1 13.3 7.5 20.5.6 3.2 2.3 5.7 6.1 5.3 3.6-.4 7.9 1.9 9.7-4.1 1.2-4.1 4.7-7.1 8.4-9.6 9.6-6.5 19.2-13 28.8-19.6.8-.6 1.7-1 2.5-1.6 2.1-1.6 6.9.1 6.4-4.6-.4-4.4-2.5-8.6-6.4-10.5-16.4-7.8-26.8-22.1-38.9-34.6-7.9-8.1-15.3-16.7-22.9-25-1.6-1.7-3.6-3.2-4.6-5.2-2.3-4.7-8.8-8.6-4.3-14.8 6.3-8.8 15-10.9 23.5-6.4 20.5 10.7 34.8 27.4 44.7 47.8 5.9 12.1 12.6 24 15.9 37.3 2 8.4 8 11.7 16.4 9.8 8.1-1.8 16.1-.7 23.7 1.4 22.4 5.9 45.2 10.8 66.4 20.6 23.6 10.9 44.8 25.8 65 42 5.9 4.8 11.8 9.6 17.8 14.3 3.5 2.8 7.1 4 10-.8 1.2-1.9 2.7-2.6 4.8-2.9 17.2-2.9 34.3-2.5 51.4.9 5.5 1.1 11 2.3 16.6 3.3 7.4 1.3 14.4 3.7 20.7 8-1.3.4-3.1.3-3.7 1.2-5 6.4-12.9 8.7-18.3 13.9-3.9-3.8-7.1-7-10.4-10.2-7.2 3.1-4.3-3.5-5.2-6-3.7-.3-4.8 2.7-6.8 4.2-4 3-7.7 6.5-13.4 3.6-2.8-1.4-5.2.5-7.3 2.1-3.9 3-7.8 6-11.4 9.3-2.4 1.8-3.6.6-4.9-1.1zm-390.8-117.2c-3.3 0-6.6-.2-10 0-8 .5-11.7 5.8-9.9 13.6 1.2 5 4.7 7.8 8.6 10.4 13.5 9.1 29.2 12 44.5 16.3 8.1 2.3 16.3 2.3 24.5 2 8.5-.3 12.3-8.3 7.5-15.2-1.3-1.9-2.9-3.7-4.7-5-18.1-12.9-37.6-22.2-60.5-22.1zm251.3 58.9c-2.4-10.2-5.4-21-14-29.2-4.9-4.6-10.9-5.4-16.6-3.1-5.3 2.2-7.3 7.6-7.4 13.1-.2 10.3 11.6 27.8 21.1 31.7 8.9 3.7 17.2-2.1 16.9-12.5zm50.7 13.6c-1.2-8.2-5.6-14.7-10.9-20.8-2.2-2.6-4.9-3.5-8-2.6-3.5 1-5.3 3.7-5.8 7.4-.3 3 .5 5.8 1.4 8.7 2.3 7.1 8 9.9 14 13 2.1 1.1 3.8 3 6 1.2 1.9-1.7 3.8-3.8 3.3-6.9zm41.3 70.6c-.4-2.6-1.8-4.2-4.5-4.1-2.4.1-4.7 1-4.8 3.8-.1 2.8 1.5 5.1 4.5 5.3 3.3.2 4.2-2.4 4.8-5zm-27.4 10.4c-.4-2.4-1.4-4.3-3.7-4-2.3.3-4.3 2-4.3 4.6.1 2.5 1.4 4.5 4.3 4 2.6-.3 3.8-2.2 3.7-4.6zm27.4 17.9c2.6-.3 4.2-1.9 4.2-4.4 0-2.4-1.2-4.7-3.8-4.8-2.6-.1-4.1 2.1-4.3 4.4-.4 2.5 1.4 4.1 3.9 4.8z"/><path fill="#B5B884" d="m2846.3 949.6 1.8.6c-3.3 4 1.4 8 .1 12-4.7 0-9.4-.6-14 0-13.3 1.7-22.2-4.8-31.4-13.4-16.3-15.3-20.4-35-22.6-55.5-.9-7.8 1.9-15.6 4.2-23.2 7.1-24.3 18.6-46.6 29.8-69.1 3-6 6.5-11.5 10.2-17 2.2-3.4 4.7-4.3 8.3-3.6 5.2 1 10.9 1.1 15.4 3.4 3 1.6 6-.2 8.9 2-11.8 15.8-20.9 33.3-29.7 50.9-7 14-13.2 28.1-14.5 44.1-1 12.2 0 23.7 5.8 34.7 5.4 10.2 10.9 20.3 17.2 30.1 3 4.3 5.8 5.8 10.5 4z"/><path fill="#CE1A08" d="M2971.5 883c-.2 10.1-4.6 16.7-12.4 21-14.7 8.1-30.5 12.8-47.3 14.2-2.7.2-5.8-.5-5.8 3.4 0 3.7 2.4 5.1 5.9 5.2 22.9 1 43.3-5.1 60.2-21.3 3.3-3.2 6.8-6.2 10.8-9.8 5 7.9 1.9 14.7-1.2 20.8-3.8 7.5-10.2 12.5-17.9 16.5-12.8 6.7-25.9 12.1-40.3 14-18 2.4-33.6-2.9-46-16.3-7.3-7.8-9.2-17.6-6.8-28 .9-3.9 2.3-7.7 3.8-11.3 3.7-8.9 4.3-8.4 13.8-6.6 17.3 3.3 34.9 4.5 52.5 3.9 10.5-.2 20.2-3.4 30.7-5.7z"/><path fill="#B5B884" d="M3179.5 833.4c1.4 1.6 2.5 2.9 4.8.8 3.6-3.3 7.5-6.3 11.4-9.3 2.1-1.6 4.5-3.5 7.3-2.1 5.7 2.9 9.4-.6 13.4-3.6 2-1.5 3.1-4.5 6.8-4.2.9 2.5-2.1 9 5.2 6 3.3 3.2 6.5 6.4 10.4 10.2 5.4-5.2 13.3-7.4 18.3-13.9.7-.8 2.4-.8 3.7-1.2.6-.1 1.2 0 1.7.3.6.6 1.2 1.2 1.8 1.7-1.2 7.9-3.8 15.4-6.6 22.8-2.5-.5-3.4-3-5.4-4-4.2-2.2-9.5-4.1-13-.9-3.5 3.2-7.8 6.9-6.3 13.6 1.7 7.7-7.4 15.1-15.1 13-3.3-.9-4.8-3.5-3.6-7 .7-2.2 1.9-4.2 2.5-6.4 1.8-7.1-1.7-14.6-7.4-16.4-6.3-2-12.5 1.5-15.7 8.6-.9 2.1-2 4.2-2.8 6.3-1.1 2.6-3.1 5.5-5.5 5-3.1-.6-5.7-3.5-6.5-6.9-1.2-3.9-1-8.2.6-12.4zM1489.9 222.7c-4.1-3.3.4-8.3-3.3-11.3 4 5.1 4 5.1 3.3 11.3z"/><path fill="#35B214" d="M1303.4 770.9c-1.2.3-1.6 0-1.3-.7.3-.5.8-1.1 1.3-1.3.5-.2 1.2.2 1.8.3-.7.7-1.4 1.3-1.8 1.7z"/><path fill="#DBD7AB" d="M3264.2 818.3c-.6-.6-1.2-1.2-1.8-1.7 1 0 2.3-.2 1.8 1.7z"/><path fill="#0D0C0C" d="M1909.7 1063.5c-.1-9.1 5.4-13.8 14.5-12.8 4.4.5 8.9 5.8 7.7 9.8-1.4 4.7-3.2 9.5-7.2 12.7-2.9 2.4-6.3 4.1-10 2.3-3.3-1.5-4.6-4.6-4.9-8.1-.2-1.3-.1-2.6-.1-3.9z"/><path fill="#121010" d="M1952.2 1090.6c-.3 5-2.3 7.4-6.1 6.4-2.9-.8-7.2-.4-7.4-5.1-.1-3 5.5-9 8.1-9 3.1-.1 5.6 3.5 5.4 7.7zm13.3-24.2c-2.6-.1-4.7-1.4-4.9-3.9-.2-2.8 1.4-5 4.5-5.4 2.8-.3 6.7 2.7 6.2 4.9-.6 3.1-3.6 3.2-5.8 4.4z"/><path fill="#35B214" d="M208 926.1c9.1-.6 18.8 2.1 28.4 4.6 7.3 1.9 11.6 2.2 17.3-5.2 10.3-13.5 25.1-22.4 40-30.7 14.5-8.1 29.3-15.3 46.1-17.9 22.9-3.6 43.6.1 62 14.8 1.3 1 2.5 2.2 3.4 3.5 14.6 22.5 27.3 45.7 27.6 73.6.1 8.8 3.8 11.2 12.2 8.7 16.1-4.7 32.7-5.2 49.3-5.5 1.6 0 3.3.3 4.9.7 15.4 3.6 18.2 6.8 17.3 22.5-1.2 22.1-10.1 41-25.5 56.8-4.1 4.2-8.3 8.4-13.3 11.9-6.1 4.3-12.2 5.2-18.8 3.7-17.1-4-34.5-7-51-13.1-10.9-4-21.5-8.8-32.8-11.6-5.6-1.4-10-.7-14.7 3-11.3 9.1-22.4 18.5-34.7 26.3-16.5 10.6-33.9 12.3-52.3 5-13.5-5.4-25.2-13.3-34.8-24.3-3.8-4.3-6.2-9.3-8.1-14.7-2.2-6.1-4.8-6.9-10.6-3.9-9.1 4.7-17.9 10.5-27.5 14.1-20.5 7.7-41.4 15.3-63 2.5-3-1.8-5.3-3.9-7.1-6.7-3.8-5.9-3.3-7.4 1.5-13 4.9-5.6 11.2-9.4 16.9-14 2.8-2.3 5.7-4.5 8.3-7.1 4.8-4.6 4.6-6.2-1-9.7-16.1-10.3-16.5-23.4-8.6-35.8 10.7-16.6 23.9-31.1 45-35.3 7.5-1.3 14.8-3.4 23.6-3.2z"/><path fill="#EFED5E" d="M3242.2 734.9c1.9-6-2.3-8.4-6.5-10.7-10.5-5.9-20.6-12.6-28.2-21.9-9-11.1-15.5-23.7-13.1-39.8 7.3 4 14.5 6.3 21.8 8.2 1 .3 1.8.8 2.8 1.2 2.3.8 4.9 1.5 6.4-.7 1.5-2.1.4-4.6-1.2-6.4-7.6-8.5-10-19.2-12.6-29.9-.8-3.2-1.4-6.3 0-10.5 6.1 6.3 11.2 12.8 18 17.3 1.7 1.1 3.3 2.2 4.9 3.4 2.7 2.1 5 .7 7.3-.7 2.7-1.7.4-3.5 0-5.2-2.9-12.4-2-22.9 3-34 1.7 1.2 2.2 3 2.6 4.9 4.8 21 15 38.6 31.5 52.9 5.2 4.5 10.4 9.2 15.2 14.2 6 6.3 13.4 5.4 17.5-1.7 6.3-11.1 16.3-17.3 27.4-22 9.5-4 19.3-7.1 29.6-8.4 13.1-1.7 24.7.9 31.3 13.9 2 3.9 5.1 6.7 10 10.1-7.9 1.7-8.9 6.8-9.1 12.1-.4 9.7-6 17.4-9.6 25.9-1.3 3.1-4 5.1-7.4 6.2-1.7.5-2.5 2.3-2 4.1.4 1.4 1.7 1.5 3.1 1.7 7.3 1.3 8.4 1 11.7-5.6 4.8-9.4 11.6-17.9 12.6-28.9.3-3.7 2.8-4.9 5.7-5.9 5.6-1.9 11.2-4 16.9-5.7 3.3-1 5.5-2.8 5-6.3-.5-3.7-3.4-4.5-6.7-4.5-2.3 0-4.7-.1-6.9-.5-7.9-1.5-16.1-2.6-16.1-13.6 0-1.2-1-2.5-1.7-3.6-2.9-4.4-3-7.9 2.7-10.2 1.8-.7 3.1-2.4 4.8-3.7 2.3 2.6 2.7 6 3.9 8.9 2.2 5.3 4.9 6.5 10.1 3.9 5.4-2.7 10.2-6.3 14.3-10.7 3.2-3.4 6.4-6.8 9.6-10.1 4.2-4.3 7.8-4.6 11.4-.3 4.1 4.9 6.9 10.6 5.2 17.5-6.4 25.9-17.7 49.4-36.6 68.7-13 13.3-28.5 22.6-46.9 26.6-8.1 1.8-16 4.8-24.4 2.2-3.5-1.1-4.8 1.9-6.5 3.5-10.6 9.8-22.9 16.7-35.4 23.7-12.6 7-24.6 5.5-37.5 3.1-13.6-2.6-21.5-10.8-26-23.1-1.9-5.3-4.5-7.8-10.1-4.8-.9.5-1.9.5-2.9.7-.7-.6-3.3-.4-1.2-2.3 1.3-.9 2.4-1.7 2.3-3.2zm130-74.1c-3.3.8-5.8 2.7-7 6.2-1.3 3.7-3 7.5-.3 11.2 1.2 1.6 3.1 2.2 5.2.9 3.5-2 7.3-10.7 6.1-14.6-.6-2-1.7-3.4-4-3.7z"/><path fill="#B5B884" d="M3242.2 734.9c0 1.5-1 2.2-2 3.2-2.1 1.9.5 1.7 1.2 2.3-5.6 3.8-12.4 2.8-18.4 4.6-.8-.8-1.6-1.6-2.5-2.4 7.5-1.8 15.3-2.8 21.7-7.7z"/><path fill="#35B214" d="M3220.5 742.7c.8.8 1.7 1.6 2.5 2.4-7.4 2.8-15 3.1-23 1.8 6.8-1.5 13.7-2.8 20.5-4.2z"/><path fill="#E5DE23" d="M563 1187.7c7.8-.4 13.9 3 19.8 7.7 4.1 3.3 7.4 9.2 12.5 9.4 5.4.2 7.7-6.7 11.8-9.9 7.1-5.7 14.4-8 24-5.5 11.3 3 19.4 9.7 27 17.7 3.6 3.9 3.4 7.9.7 11.8-2.6 3.9-5.6 7.4-8.5 11-2.1 2.6-4.5 4.9-6.4 7.6-5.7 8-5.4 9.9 1.4 17 8.7 9 7.3 19.9 1.8 29.4-4.4 7.6-16.4 9.5-26.1 4.7-5.1-2.5-9.9-5.6-15-8-7.1-3.4-9.3-2.8-14.7 3.1-5.4 5.9-10 12.4-15.9 17.8-5.7 5.3-12.2 8-20 7.2-19.7-1.9-36.5-9-48-26.1-4.2-6.3-4.7-11 .1-17 5.6-7 12.3-12.9 19.9-17.7 5.5-3.5 5.9-5.5.5-9.1-5.1-3.3-9.8-6.7-13.2-11.9-4.2-6.3-4.1-9.6.5-15.8 5.6-7.3 12.4-12.7 21-16.2 8.8-3.4 17.4-6.4 26.8-7.2zm16.5 72.9c4.5-.3 9.3.9 13.3-2.6 7.3-6.3 8.5-17.9 2.6-25.7-1.2-1.6-2.5-3.1-3.7-4.6-3.6-4.7-8.4-6.4-14-5.4-10.6 1.9-17.4 8.8-22.3 17.9-2 3.7-.7 7.1 1.7 10.2 5.6 7.4 13.1 10.8 22.4 10.2zm79.9-96.5c-12.7-.5-25.1-2.6-37.4-5.3-5-1.1-8.7-2.8-8.3-8.9.1-1.3-.7-2.6-.9-3.9-1.3-9.6-6.3-13.8-15.8-12.5-8.6 1.2-17 3-25.5 4.7-9 1.8-19.4-5-21-13.7-.3-1.9.3-3.2 1.4-4.5 2.9-3.4 6.6-5.5 10.7-7 9.7-3.3 18.8-8.3 28.1-12.5 4.2-1.9 5.9-4 4.2-9.2-3-9.4-4.1-19.2-3.1-29.3 1.2-11.8 6.5-19.7 17.9-23.4 9.7-3.1 19.7-3 29.5-.5 6.8 1.7 8.5 7.9 10.3 13.5 1.4 4.4 1.6 9.2 2.9 13.6 2.1 7.3 5.1 8.5 11.6 4.9 12.3-7 25.7-5.3 38.9-5.4 2.7 0 2.8 2 2.8 4.2-.3 9-1.7 17.9-4.8 26.3-4.1 11-7.3 22.6-17.1 30.8-4 3.3-.7 7.7 2.2 10.3 4.5 4.1 6.2 8.9 6.8 14.9.3 3.7-.5 5.3-3.5 7.1-9.4 5.3-19.5 6.3-29.9 5.8zm-5.2-61.8c1.6-4.7-1.3-6.2-5.5-6.7-1.3-.2-2.6-.4-3.9-.7-10.1-2.5-20.8 2.4-25.8 11.2-1.4 2.6-1.2 4.8-1.2 7.5.1 9.4 14.9 15.6 24.4 9.4 7.3-4.7 12.5-11 12-20.7zm216 70h-3c-12.1-.1-12.5-.2-14.8 11.1-1.8 8.7-5.9 13.4-14.7 16.4-12.5 4.2-24.8 7.3-36.6.4-16.3-9.4-18.7-6.3-7.8-23.2 2.1-3.3 4.7-6.4 4.9-10.7.2-6-2.2-9.1-8.1-8.2-4.4.7-8.6.3-12.8-.2-6.5-.8-9.4-3.6-10.5-10.2-2-11.9.1-20.9 16.5-24 6.9-1.3 13.7-1.9 20.7-.2 2.8.7 6 .4 8.9 0 2.7-.4 4.9-1.7 5.2-5.1 1-10.1 8.6-13.9 16.9-15.6 7.4-1.5 15.2-1.5 22.8-.4 4 .6 6.4 1.7 5.4 7.1-1.3 6.5-1.9 13.1-3.2 19.6-1.1 5.7.6 7.6 6.2 7 6.6-.8 13.2-.2 19.9-1.4 8.7-1.5 13.5 3.9 11.4 12.5-1.6 6.3-1.4 13.4-6.4 18.6-4 4.2-8.3 7.7-14.7 6.3-2.1-.2-4.2.2-6.2.2zm-38.4-22.2c-.4-2.3-.3-5.1-2.9-6.8-1-.7-13.8 2.1-14.6 3.2-4.4 6.5-8.8 13-11 20.8-1.2 4.1.5 6.3 2.7 8.7 2.1 2.4 4.5 1.7 7.2.8 10.3-3.5 18-12.9 18.6-26.7zm-339.9-4.1c2.3 0 4.7-.2 7 0 6.9.8 9.1 5 7.5 11.9-4.2 17.6-25.4 32.7-40.3 31.2-8.9-.9-17.7-3-26-6.4-8.5-3.5-15.1-2.4-21 5.1-3.9 5-9.8 7.9-15 11.4-3.6 2.4-7.3 2-11.1-.6-9.7-6.4-11.8-19.5-4-28.1 3.5-3.9 7.1-7.6 10.9-11.2 6.7-6.3 6.7-7.9-1.1-12.3-5.1-2.9-9-6.7-12.1-11.5-2.1-3.3-2.7-6.7-1.5-10.5 4-13.6 24.5-29 38.5-28.8 6.2.1 11.5 2.8 16.3 6.6 1.3 1 2.4 2.3 3.6 3.5 9.1 8.9 9.8 9.2 21.2 2.2 6.2-3.8 13.2-3.9 19.9-5.3 3.7-.8 6.3 4.6 4.8 9.8-1.8 6-4 11.9-6 17.9-.3.9-.8 1.8-1.1 2.8-2.5 10.2-.9 12.3 9.5 12.3zm-66 19.1c.7-.2 2.7-.5 4.5-1.3 6.9-3.2 16.8-21.6 16.2-29.3-.3-3.5-2.3-5.6-5.6-5.9-3.7-.3-7.6.3-10.3 2.8-6 5.6-11.5 12-15.1 19.4-4.3 8.7-.4 14.3 10.3 14.3z"/><path fill="#E4E5E6" d="M1774.1 1098.3c-.7 5.8-1.6 12.9-2.4 20.1-.4 3.7-3.6 5.4-5.7 7.9-3.7 4.4-8.5 7.3-13.4 10.2-10.1 5.9-11.9 5.5-17.4-5-4.8-9-8.9-18.4-14-27.3-3.8-6.6-8.2-10-15.8-9.1-1.6.2-3.3.1-5 0-3.1-.1-4-1.6-3.1-4.6 1.8-5.3 3.5-10.6 7.2-15.1 4-4.8 7.7-9.9 11.5-14.9 7-9.4 16.9-11.9 26.8-5.8 11.5 7 20.7 16.5 27.9 27.8 2.8 4.4 3 9.4 3.4 15.8z"/><path fill="#080B06" d="M1616.5 833.6c-4.1-3.1-7.9-6.4-10.7-10.4-2.6-3.6 1.8-5.1 3.2-7.4 4.4-7.3 12.1-11.3 18.4-16.4 13.1-10.6 25.4-22.1 38.4-32.8 3.1-2.6 6.5-4.6 10.1-6.2 2.8-1.3 6.2-1.5 8.1 1.4 1.7 2.6-.1 5.1-2 7.1-7.8 8-15.1 16.8-23.7 23.8-12 9.7-21.4 21.7-31.6 33-2 2.2-4.1 4.4-6.5 6-1.1.8-2.3 1.2-3.7 1.9zm26.9-36.4c-9.9 5.7-18 12.7-25.4 20.7-.9 1-2 2.1-1.1 3.3 1.4 1.8 2.9.9 4.1-.4 7.6-7.9 15-15.8 22.4-23.6z"/><path fill="#0D0C0C" d="M732.9 640c1.5 1 1.5 2.5 1.5 4 .5.8.9 1.5 1.4 2.3 4 8.8 9.1 16.8 14.5 24.8 3.4 5 2.5 6.3-3.6 7.6-4.8 1-8-.3-11.1-4.1-7.8-9.4-15.9-18.6-21.3-29.6-1.5-3.2-3.2-4.5-6.8-4.4-18.3.6-36.5-2-54-6.7-15-4-29.5-10-41-21.3-.9-.9-1.9-1.9-2.7-2.9-1.2-1.5-1-2.8.2-4.4 1.1-1.4 2.2-.9 3.5-.7 1.3.3 2.5.6 3.5 1.7 10.1 10.1 22.7 14.1 36.4 16.6 17.7 3.3 35.3 6 53.4 5.3 6-.2 11.9-.5 17.8-2 1.8.5 5.1-1.2 4.2 3.2-.5 2.2 1.2 3.6 2.8 4.7.2 1.6.4 3.2.6 4.7.1.6.3.9.7 1.2z"/><path fill="#121010" d="M777.6 283.5c-10-1.1-19.8 1.3-29.6 2-1.3.1-2.6.5-4 .4-3.4-.1-7.3-.1-7.5-4.6-.1-5 4.2-4.1 7.4-4.2 14.2-.8 28.2-3 42.5-1.1 28.4 3.8 57.2 4.4 85.1 12.8 17.4 5.3 34 12.5 50.8 19.4 3.2 1.3 5.1 2.3 3.6 6.3-2 5.1-5.1 1.5-7.1.7-10.7-4.4-21.2-9.2-32.1-13.4-19.9-7.7-40.5-12.1-61.7-14-15.9-1.3-31.7-2.8-47.4-4.3zm630.5-99.1c0 4.9.1 7.2 0 9.5-1 23.8-11.6 32.3-30.4 40.5-3.9 1.7-7 1.4-8.6-3.4-1.2-3.8-1.2-6.3 3.5-7.3 2.9-.6 5.8-1.7 8.4-3.2 11.7-6.7 16.9-17.1 14.6-31-2-12.1-6.6-23.5-12.3-34.4-.5-.9-1.1-1.6-1.6-2.5-1.5-2.5-2.1-5 1.1-6.8 2.6-1.4 4.7-.4 5.8 2 1.8 4.1 5.8 6.3 8.2 9.8 9.8 13.9 22.1 25.5 33.6 37.9 1.1 1.2 2.5 2.3 3.3 3.7.9 1.8 3.9 3.5 1.1 5.9-2.3 1.9-4.9 2.1-7.1-.2-2.3-2.4-4.6-4.8-6.8-7.2-3.9-3.8-7.5-7.6-12.8-13.3zm-227.9-6.8c.9-7.3 1.2-13.3 2.6-19 1.1-4.4 3.4-8.9 9-9.5 3-.3 5.6.8 4.4 4.5-4.5 13.8-2.9 27.4 1.6 40.7 4.7 13.7 9.9 27.5 18.3 39.3 6.6 9.2 14.7 17.8 25.8 22.5 1.5.6 2.9 1.6 4.4 2.1 1.9.7 2.7 1.9 2.2 3.8-.5 1.8-2 2.3-3.8 2.5-3.8.4-7.1-.7-10.4-2.5-10.3-5.9-17.7-14.9-25-23.8-10.4-12.8-19.6-26.6-25.1-42.3-2.1-6.4-2.9-13.1-4-18.3zM731.5 634.2c-1.7-1.2-3.3-2.5-2.8-4.7.9-4.3-2.4-2.6-4.2-3.2 1.6-1.7 3.8-.7 6.1-1.7-2.4-5.7-4.9-11.4-7.1-17.2-1.4-3.6-3.2-9 1-10.5 4.4-1.5 6 4.1 7.4 7.7 8.4 20.2 18 39.8 30.3 57.9 8.9 13.1 19.4 25 30.6 36.3 1.6 1.7 3.3 3.3 4.7 5.1 2.2 2.8 1.7 5.9-.7 8-2.2 1.8-4.3 0-6.1-1.6-9.6-8.3-17.5-18.2-24.4-28.7-7.3-11.1-15.4-21.6-22.3-33-3.4-5.7-4.3-12.6-9.2-17.6-1-1-2.1-2.1-3.1-.6-.6.9-.2 2.5-.2 3.8zm581.9-494.9c.1-9.8 1.8-19 8.1-26.9 3.1-3.9 6.6-5.3 11.3-3.4.9.4 2.1.6 2.6 1.3 2.1 2.8 6-1.2 7.8 2.3 1.5 3.1 1.6 6.7 1 9.8-1.7 7.9-.9 15.8-1.3 23.7-.2 4.3-.6 8.5-1.8 12.7-1.5 5.1-3 9.1-9.4 9.7-6.3.6-10.1-2.4-13-7.1-4.2-6.9-5.2-14.4-5.3-22.1zm18.4-25.1c-6.8 4.3-6.6 10.5-7.2 15.8-.8 6.7-2.2 13.7.4 20.5.2.6.7 1.1 1.1 1.6 2.3 2.9 4.6 2.7 5.8-.7 4.5-12.1 5.9-24.3-.1-37.2zm100.3 49.4c0 4.5-5.2 9.9-11.3 10.2-5.1.3-8.6-4-9.2-10.8-.7-8.3 2.7-15.6 6.2-22.7 1.5-3 4.6-2.8 6.9.8 4.1 6.4 6.9 13.4 7.4 22.5zm-11.2-13.1c-4.2 5.6-.3 8.6 3.1 13.4.5-5.7.3-9.7-3.1-13.4zM527.4 519.2c.3-3.3.5-6.6 1-9.9.3-1.7 1.7-2.8 3.6-2.7 1.7.1 2.1 1.5 2.2 2.8.3 3.3.5 6.6.6 9.9.1 7.6-.6 15.4 5.2 21.6 1 1.1 1 2.4.4 3.7-.5 1.1-.3 2.7-1.9 3.2-1.5.5-2.6-.3-3.4-1.3-2.3-2.9-4-6.2-4.9-9.7-1.5-5.7-3.2-11.5-2.8-17.6zm208.3 127c-.5-.8-.9-1.5-1.4-2.3 1.1.5 1.7 1.1 1.4 2.3zm-2.8-6.2c-.4-.3-.6-.6-.7-1l.7.3v.7z"/><path fill="#0F0D09" d="M2788.7 716.2c22.9-.1 42.4 9.2 60.5 22 1.8 1.3 3.4 3.1 4.7 5 4.8 6.9 1 14.9-7.5 15.2-8.2.3-16.4.3-24.5-2-15.2-4.3-31-7.2-44.5-16.3-3.9-2.6-7.4-5.4-8.6-10.4-1.8-7.8 1.9-13 9.9-13.6 3.3-.1 6.7.1 10 .1zm50.6 28.3c-8.7-8.1-19.2-12.1-29.8-15.2-8.6-2.5-17.5-6.8-27.3.1 18.8 7.7 38 11.3 57.1 15.1z"/><path fill="#080B06" d="M3040 775.1c.3 10.4-8 16.2-16.8 12.6-9.5-3.9-21.4-21.4-21.1-31.7.1-5.6 2.1-11 7.4-13.1 5.7-2.3 11.7-1.6 16.6 3.1 8.5 8.1 11.5 18.9 13.9 29.1zm-15.3-.8c2.3-10.2 2-10.8-7.4-16.9-3.4 8.4-3.3 8.6 7.4 16.9z"/><path fill="#0F0D09" d="M3090.7 788.7c.5 3.1-1.3 5.2-3.3 6.8-2.2 1.8-3.9-.1-6-1.2-6-3-11.7-5.9-14-13-.9-2.9-1.7-5.7-1.4-8.7.4-3.6 2.2-6.3 5.8-7.4 3.1-.9 5.8 0 8 2.6 5.2 6.2 9.6 12.7 10.9 20.9z"/><path fill="#121010" d="M3132 859.3c-.6 2.6-1.5 5.2-4.8 5-3-.2-4.6-2.4-4.5-5.3.1-2.8 2.4-3.7 4.8-3.8 2.7-.1 4.1 1.4 4.5 4.1zm-27.4 10.4c.1 2.4-1 4.3-3.6 4.7-2.9.5-4.3-1.6-4.3-4-.1-2.6 1.9-4.3 4.3-4.6 2.2-.4 3.2 1.5 3.6 3.9zm27.4 17.9c-2.5-.7-4.2-2.3-3.9-4.8.3-2.3 1.7-4.5 4.3-4.4 2.6.1 3.8 2.4 3.8 4.8-.1 2.5-1.7 4.1-4.2 4.4zm240.2-226.8c2.3.3 3.4 1.7 4.1 3.8 1.2 3.9-2.6 12.6-6.1 14.6-2.2 1.2-4.1.7-5.2-.9-2.7-3.7-1.1-7.5.3-11.2 1.1-3.6 3.6-5.4 6.9-6.3z"/><path fill="#080B06" d="M579.5 1260.6c-9.3.6-16.8-2.8-22.5-10.2-2.3-3-3.6-6.4-1.7-10.2 4.9-9.1 11.7-16 22.3-17.9 5.6-1 10.5.7 14 5.4 1.2 1.6 2.5 3.1 3.7 4.6 5.9 7.8 4.7 19.3-2.6 25.7-3.8 3.5-8.6 2.3-13.2 2.6zm-5-24.2c-2.4-.3-4.5-.2-5.6 1.7-1.5 2.6.2 4.2 1.9 6 2.7 2.7 6.1 3.9 9.4 5.3 2.2.9 5.1 2.7 7.1-.4 2.2-3.5.6-6.6-2-8.8-3.1-2.5-7.4-2.6-10.8-3.8zm79.7-134.1c.4 9.7-4.7 16-12 20.7-9.5 6.1-24.3 0-24.4-9.4 0-2.7-.2-4.9 1.2-7.5 4.9-8.8 15.7-13.7 25.8-11.2 1.3.3 2.6.6 3.9.7 4.3.5 7.1 2 5.5 6.7zm-15 5.5c-.7-1.4-1.3-3.8-3.7-3.3-3.2.7-6.1 2.8-6.5 6.3-.2 1.9 1.7 3.3 3.9 3.4 2.9 0 6.4-3.3 6.3-6.4z"/><path fill="#0F0D09" d="M831.8 1150.1c-.6 13.8-8.3 23.2-18.6 26.7-2.7.9-5.1 1.6-7.2-.8-2.2-2.5-3.9-4.6-2.7-8.7 2.3-7.8 6.6-14.3 11-20.8.8-1.2 13.5-3.9 14.6-3.2 2.6 1.6 2.5 4.4 2.9 6.8zm-16.5 15.5c3.3-1.4 3-4.2 3.7-7.6-3.5 2.3-3.7 4.9-3.7 7.6zm-389.4-.5c-10.7 0-14.6-5.6-10.3-14.3 3.6-7.4 9.1-13.8 15.1-19.4 2.7-2.5 6.6-3.1 10.3-2.8 3.3.3 5.3 2.3 5.6 5.9.7 7.8-9.3 26.2-16.2 29.3-1.7.8-3.7 1.1-4.5 1.3zm7-23.6c-3.3 1.5-4.7 4.4-6 7.5-.4.9-.3 2.2.8 2.6.8.2 2 0 2.7-.5 2.8-2.2 3.9-5.2 3.9-8.7 1.4-.5 2.1-1.7 1-2.5-1.2-.9-1.9.5-2.4 1.6z"/><path fill="#B5B884" d="M1643.4 797.2c-7.4 7.9-14.9 15.8-22.3 23.6-1.2 1.3-2.7 2.2-4.1.4-.9-1.2.1-2.3 1.1-3.3 7.3-8 15.5-15 25.3-20.7z"/><path fill="#E4E5E6" d="M1331.8 114.2c6 12.9 4.6 25.1.2 37.1-1.3 3.5-3.5 3.6-5.8.7-.4-.5-.9-1-1.1-1.6-2.7-6.8-1.2-13.7-.4-20.5.5-5.2.4-11.4 7.1-15.7z"/><path fill="#B5B884" d="M1420.9 150.5c3.4 3.7 3.6 7.7 3.1 13.4-3.4-4.8-7.4-7.9-3.1-13.4z"/><path fill="#E4E5E6" d="M2839.3 744.5c-19-3.8-38.3-7.4-57.1-15.1 9.8-6.9 18.8-2.6 27.3-.1 10.6 3.1 21 7.1 29.8 15.2z"/><path fill="#B5B884" d="M3024.7 774.3c-10.7-8.3-10.8-8.5-7.4-16.9 9.4 6.1 9.6 6.7 7.4 16.9z"/><path fill="#E5DE23" d="M574.5 1236.4c3.4 1.2 7.6 1.2 10.7 3.8 2.6 2.2 4.3 5.3 2 8.8-2 3.1-4.9 1.4-7.1.4-3.3-1.4-6.8-2.7-9.4-5.3-1.7-1.7-3.4-3.4-1.9-6 1.2-1.9 3.3-1.9 5.7-1.7zm64.7-128.6c.1 3.1-3.5 6.5-6.3 6.4-2.3-.1-4.2-1.5-3.9-3.4.4-3.5 3.3-5.5 6.5-6.3 2.4-.5 3 1.8 3.7 3.3z"/><path fill="#35B214" d="M815.3 1165.6c0-2.7.2-5.4 3.7-7.6-.6 3.5-.4 6.2-3.7 7.6z"/><path fill="#E5DE23" d="M434.3 1142.3c0 3.5-1.1 6.5-3.9 8.7-.7.5-1.9.8-2.7.5-1.1-.3-1.1-1.7-.8-2.6 1.3-3.1 2.7-6 6-7.5.5.4.9.6 1.4.9z"/><path fill="#E5DE23" d="M432.9 1141.5c.4-1.1 1.2-2.5 2.3-1.7 1.1.8.5 2.1-1 2.5-.4-.3-.8-.5-1.3-.8z"/></svg>