<svg xmlns="http://www.w3.org/2000/svg" viewBox="0 0 3163.2 2520"><path fill="#0C0B0B" d="M1173.9 1458.8c8 .6 8.2-4.2 8.5-8.5 1.6-20.9.2-41.6-4.6-62.1-2.2-9.5-1.5-10.7 7.9-10.6 8.3 0 16.5-.7 24.8 1.7 3.9 1.1 6.8 3.8 10.4 5.2 3.3-4.1 2.7-8.4 2.8-12.6.3-17.6 1.3-35.3 1.2-52.8-.1-20.4.4-41-2.2-61.5-1.1-8.4-.7-17.2.1-25.7.5-4.9 1-9.8.9-14.8-.6-23.2-.8-46.4-2-69.5-.8-16.5-1.5-32.9-1.6-49.4-.1-7.2-2.1-14.4-2.2-21.7 0-4.1 1.2-5.9 5.5-6.4 15.2-1.8 30.1-2.4 45.5-.5 10.4 1.3 21.2.8 31.8.7 13.3-.2 26.7 0 40-.1 9.9-.1 19.7 2.9 29.9 1.1.9-2.1-.4-3.8-1.8-4.8-7-4.4-9.9-13.2-17.8-16.9-1.6-.7-2.2-3.9-2.9-6.1-8.9-29.3-6.2-57.8 7.5-84.9 9.4-18.7 22.8-34.8 37.8-49.4 10.5-10.3 22-19.1 35.7-24.9 13.5-5.8 27.7-7.7 41.9-5.4 12 1.9 18.6 12.2 24.3 22 4.5 7.7 7.4 16.3 10.9 24.5 10.6 24.9 24.1 47.9 40.9 69.1 2.7 3.4 6 6.2 8.4 9.8 1.9 2.9 4.9 4.2 8.6 3.9 12.1-1.1 23.8 1.2 35.3 4.9 2.8.9 4.8.9 6.5-2.3 10.6-20.3 25-38.2 38.5-56.6 10.8-14.7 20.8-30.3 33.8-43.1 19.2-18.9 35.8-40.1 55-58.9 20.4-20 42.1-38.5 62.7-58.3 10.5-10.1 22.9-18.1 34-27.6 22.5-19.2 47-35.7 71.2-52.3 17.9-12.3 37.1-22.9 56.3-33.4 19.5-10.8 39.4-20.6 59.7-29.6 26.3-11.6 51.8-25.2 79.3-33.9 32.1-10.1 63.8-21.5 96.4-29.8 14.7-3.7 29.6-7.7 44.6-9.1 22.7-2.2 44.9-8 67.8-9.1 23.2-1.1 46.3-3.3 69.5-3.8 16.4-.3 32.7 0 49.1-1.5 9.7-.9 19.8 1.1 29.6 2.2 16.8 1.9 33.6 3.5 50.2 6.2 25.5 4.1 50.7 9.3 75.6 16.2 18.1 5 36.6 9.4 53.9 16.8 32.8 14 65.8 27.6 97.3 44.5 9.9 5.3 19.5 11.2 29.1 17 11.9 7.2 24 14.2 35.4 22.2 16.8 11.8 35.1 21.3 51.7 33.4 16.6 12.1 32.1 25.6 48.1 38.4 13.3 10.6 24.9 23.1 38 33.8 21.1 17.3 39 37.6 56.8 57.9 19.6 22.4 36.4 47.2 53.7 71.4 9.8 13.8 17.8 28.5 26.5 42.9 2.7 4.4 2 9.5 4.2 14 8.2 17 16.3 34.2 23.4 51.7 8.5 21.1 18.3 41.9 23.2 64.4.7 3.2 2.3 6.2 3.4 9.3 9.1 26.3 15.2 53.4 20.9 80.6 3.1 14.5 6.5 29 8.2 43.8 1.7 14.5 3.5 28.9 5 43.4 1.6 16.1 3.6 32.2 4.2 48.3.5 12.5 1.9 24.9.9 37.6-1.5 18.7-2.4 37.6-2.5 56.4-.2 21.2.9 42.6-2.5 63.7-1.6 9.7-2.8 19.3-7 28.6-3.3 7.3-3.4 16.1-5.1 24.2-4.4 21.1-10.2 41.8-16.5 62.3-6.2 20.2-13.9 40.1-21.2 60-6.8 18.4-16 35.8-23 54-7.8 20.4-21 37.6-30.9 56.8-5.6 10.8-13.3 20.8-20.9 30.3-5 6.3-8.3 13.5-13 19.8-11.4 15-24.2 28.9-37.3 42.5-8.5 8.7-15.1 19.1-24.6 27-12.9 10.8-23.7 24-38 33.4-8.9 5.8-15.9 13.9-24.3 20.4-5.1 3.9-10.8 6.4-16.1 9.7-4.8 3-9.4 6.1-13.8 9.6-13.9 11.4-30.1 19.3-45 29.2-20.7 13.7-41.8 26.9-63.6 38.8-16.8 9.1-33.8 18-51.7 25.1-9.2 3.7-18.4 7.2-26.5 13.3-10.3 7.8-23.1 10.9-34.6 16.4-14 6.6-28.1 13-42.5 18.6-15.3 5.9-29.8 14.5-46.7 15.9-4.1.3-5.4 2.8-6.7 6.2-4.9 13.4-7.9 27.4-10.6 41.3-4 21.1-8 42.1-10.8 63.5-1.9 14.6-4.5 29.2-4.8 44-.4 18.8-2 37.7 0 56.4 3.2 29.9 3.7 60 9.4 89.6 2.4 12.3 5.3 24.6 8.2 36.8.7 2.9 2 5.6 3.3 8.3 4.9 10.2 2.7 16.8-6.1 23.8-10.9 8.6-23.9 11.2-36.7 14.3-20.2 4.9-40.6 8.9-60.9 13.3-1.6.3-3.3.5-4.9.6-23.5 1.6-47 2.8-70.4 4.7-22.6 1.9-45.1.9-67.7 1.4-22.1.6-44-1.5-66.1-3.2-10.5-.8-21.1-1.9-31.6-2.7-13.1-1-26.1-4-39-6.9-16.6-3.7-25-16.3-31.6-30.6-.6-1.2-.8-2.5-1.1-3.8-1.3-5.1-3.6-6.7-9.7-6.8-24.9-.3-49.6 3.3-74.5 1.7-13.5-.9-27-2.4-40.5-3.9-15.7-1.7-31.6-3.1-47.2-5.5-18.3-2.9-36.5-6.2-54.3-11.3-1.3-.4-2.6-.9-3.9-.9-12.3 0-16.6-8.1-20-18.2-9.4-27.2-11.6-54.9-7.9-83.3 2.9-22.2 7.1-43.9 17.1-64.1 5.4-10.9 12.1-21 23.7-27.1 8.6-4.6 17.8-5 26.2-3.1 11.5 2.7 23.3 5.4 33.9 11.2 12.7 7.1 25.3 14.4 37.1 23 8.1 5.9 16.5 11.9 28 14-4.9-8.2-10.1-15-15.2-21.7-11.3-14.7-23.5-28.6-33.2-44.6-12.3-20.3-20.4-42.2-26.7-64.9-6.5-23.6-8.6-47.6-8.6-71.9 0-3.7.3-7.3.7-11 .8-6.9.6-7.6-5.9-9.8-30.7-10.1-58.7-25.7-85.9-42.9-13.5-8.5-27.3-16.5-40.6-25.3-8.2-5.4-15.9-11.8-23.6-18-15.8-12.6-31.6-25.2-47.2-38.1-6.9-5.7-12.7-12.7-19.6-18.4-16.6-13.8-32.3-28.6-47.1-44.2-24.1-25.3-46.1-52.2-64.9-81.9-15.2-23.9-28.1-48.9-40.9-74.1-7.1-13.9-13.9-27.9-20.7-41.9-3.9-8-6.4-16.8-9-25.2-4.1-13.3-10.2-25.9-13.4-39.4-2.2-9.3-4.6-18.6-7.1-27.9-2.9-10.5-3.2-10.7-14.3-10.8-13-.1-26-.3-39-.2-10.8.1-21.5-2.8-32.4-.6-2.5.5-4.5-.5-5.5-3.1s-2.6-4.7-6-3.9c-4 1-8.8-.3-11.4 4.4-3.3 5.8-6.9 11.4-10 17.2-8.4 16-19.6 30-31.9 43.1-8.8 9.3-19.8 15.7-32.4 18.4-6.4 1.4-13-1.4-19.3-2.8-9.6-2.2-19.1-5.3-28.5-8.5-3.8-1.3-7-.9-10.5.7-5.1 2.3-10.6 3.9-15.6 6.5-13.2 6.8-26.4 4.1-39.7.8-17.8-4.4-31.5-14.9-42.8-29-1.6-2.1-3.6-3.8-5.4-5.7-.6.3-1.7.6-1.7.9-.6 18.6-1.7 37.1-1.6 55.7.1 16.4-.6 32.6-1.8 49-1.1 14.4-.2 29-.7 43.6-.9 24.9-2.5 49.8-2.2 74.7.3 27.3.4 54.6.5 81.8.1 8.9 0 8.9 8.2 12.2 8.9 3.5 18.4 5.1 27.5 7.8 24.5 7.1 48.4 15.7 72.2 24.8 3.7 1.4 7.3 3.2 10.7 5.2 6 3.5 9.8 7.9 9.8 15.8 0 8.2 1.6 16.4 2.9 24.6.9 5.4-1 10.5-1 15.8.2 15.9-1.2 31.9 1 47.8.6 4.8.4 9.8-.6 14.9-2.2 10.8-1.2 13 9.2 17.7 14.1 6.5 28.9 11.7 42.9 18.3 17.6 8.3 36.8 13.1 53.8 23.1 3.2 1.9 4.9 3.4 5.8 7.2 3.9 17.5 8.2 34.9 7.8 53-.4 20.3 1.5 40.6 1.3 60.8-.1 10.9-1.4 21.8-1.7 32.6-.1 4.5-1.6 6.6-6.2 7.1-31.9 3.5-63.3 10.6-95.4 12.2-21.9 1.1-43.6 4.1-65.5 4.6-12.8.3-25.5 3.3-38.5 4.3-9.3.7-18.5.5-27.8 1.4-17.5 1.7-35 2.6-52.5 4.2-13.4 1.3-27 .6-40.2 2.4-24.9 3.4-50 3.1-75 4.8-29.4 2-58.9 2.9-88.3 4.8-20.1 1.3-40.2 4.1-60.3 5-14 .6-27.8 2.1-41.7 3-26.1 1.6-52.3 2.8-78.4 5.1-13.2 1.1-26.3 2.2-39.3 4.3-4 .7-7.8-.7-11.7-.8-17.1-.3-34 4.7-51.1 2.6-23.7 5.1-48.1 1.7-72.1 5.4-16.6 2.6-33.8 2-50.6 3.5-17.2 1.6-34.5 1-51.6 3.3-23.3 3.1-46.8 1.6-70 4.7-16.4 2.2-32.9 1.3-49.1 3.5-17.1 2.3-34.2 1.7-51.3 1.9-5.5.1-10.6-1.4-15.5-2.9-36.4-11.3-72.4-23.8-107.7-38.1-23-9.3-45.7-19.1-68.6-28.5-17.1-7-34.4-13.7-51.6-20.5-13.8-5.5-26.8-12.9-41.5-16-3.2-.7-4.5-3-5.1-6.4-1.7-9.2-.7-18.4-.7-27.5.2-44 1.2-88 1.6-132 .2-18.3-.4-36.6-.4-54.9 0-17.3.1-34.6.4-51.9.1-7.4-.8-15.2 5.2-21.3.5-.5.6-1.9.4-2.7-4.3-15.1-2.2-30.7-3.1-46-1.2-20.6-.5-41.3-1-61.9-.4-19.8-1.6-39.7-1.6-59.5 0-21.6-.6-43.2.2-64.8.7-19.6.3-39.2.2-58.9-.2-31.9.4-63.8-1-95.7-.8-19.3-2.3-38.5-1.5-57.7 1.6-36.9-.8-73.8.2-110.8.8-28.5-.3-57.2-.3-85.7 0-19.3.6-38.6.6-57.9-.1-45.9.5-91.9-.9-137.7-1.5-49-.4-98-1.1-146.9-.6-36.2-1.3-72.4-2.7-108.6-.3-9.3 1-18.4.7-27.6-.7-22.2.4-44.5-1.9-66.6-.1-1 0-2 0-3 0-31.9-.6-63.9.2-95.8.4-16.8-.8-33.4-1.9-50.1-.7-9.5-.4-19.1-.7-28.6-.5-24-1.4-48-1.5-72-.1-19.4 1.3-38.9 1.1-58.3-.3-36.2-.8-72.3-2-108.5-2.7-60.5-1.7-120.1-2-179.7-.1-20.3-1.5-40.5-1.8-60.8-.4-23.2 1-46.5-.8-69.7C-.1 60.3.3 37.7 0 15.2-.1 5.2 5.1-.2 15.1 0c24.2.5 48.3 1.3 72.5 1.8 15.8.3 31.7-.1 47.5.5 23.1.9 46.2 1.5 69.3 3.1 22.8 1.5 45.7 1.5 68.6 2.9 21.5 1.3 43 1.7 64.5 2 31.2.4 62.3 1.1 93.4 2 15.1.5 30.2 2 45.4 2.7 16.2.7 32.4.3 48.6 1.4 22.2 1.4 44.5 1.1 66.7 2.1 15.8.8 31.7.6 47.5 2.8 6.9.9 14-.3 21 .5 21.5 2.6 43.1 1.4 64.6 2.5 33.6 1.7 67.2 1.1 100.7 2.4 20.4.8 41 1.6 61.3 1.9 29.1.4 58 2.2 86.9 3.9 18.9 1.1 37.8 1.5 56.8 2 16.9.4 33.7 2.4 50.5 3.3 10.9.6 21.8 0 32.6.6 13.2.7 26.4 1.8 39.6 3.3 6.8.7 7.7 2.3 7.4 9-.7 16.2-1.1 32.3.5 48.5 2.3 23.1.8 46.4 1.8 69.6.5 11.7 2 23.5 2.7 35.3.7 12.9.3 25.8.2 38.7-.1 15 .1 30-.9 45-1.1 17.7 1.3 35.3.5 53-.5 11.5.6 23.1.7 34.7.2 33.1-.7 66.3 1 99.3 1.3 23.9.5 47.7 2.3 71.6.6 7.8.1 16.3-.1 24.3-.2 9.9 1.2 20 .4 29.8-2.1 24.8 1.7 49.6-.1 74.3-1.1 15.9-1.8 31.8-.9 47.5 1.6 26.1-.1 52.3 2 78.3 2.6 31.9.9 63.8 1.9 95.6.3 10.3 1.5 20.5 1 30.8-.5 12-1.2 24.1-1.1 36.1.3 27-.4 54-1.1 81.1-.3 11.5.2 23-.8 34.5-1 10.6 1.5 21.2 1.3 31.8-.4 23.2.1 46.5-.4 69.7-.2 7.8.7 15.7.2 23.4-1.7 23.3-1.2 46.5-1.2 69.8 0 19.1 0 38.3 1.6 57.3.6 6.9.6 13.9.3 20.8-.8 22.3 1.9 44.5 1.4 66.8 0 13.5.2 26.8.2 40.5zm782.3 73.1c17.3-7.2 32.4-17.8 46.4-30 2.7-2.4 6.2-4.6 6.5-8.5.6-7.5 1.7-14.9 1.3-22.5-.5-9.3 0-18.5 1-27.8 1.7-14.8 3.5-29.8 2.4-44.7-1.3-16.2-.4-32.4 1-48.4 1.9-21.9 2.1-43.6 1.4-65.5-.1-2.7-.3-5.3-.2-8 .5-24.8 3.2-49.6 3.5-74.3.4-27.6 3.2-55.1 2.3-82.7-.2-4.6 1-9.2.2-13.9-.5-3-1.5-4.7-4.8-5.1-13.2-1.5-26.2-4.3-39.5-4.6-8.8-.2-9.2 0-9.3 8.2-.1 17.6-.8 35.1-1.5 52.7-.8 19.8-1.2 39.7-1.7 59.6-.6 21.6-.1 43.2-.6 64.8-.7 35-1.6 70-1.9 105.1-.3 33.9.1 67.8-.2 101.7-.1 12.9.5 25.9-4.5 38.3-2.6.5-4.5.6-6.6-2.3-4.3-5.9-1.1-11.5-.9-17.2.5-20.5.9-41 1.4-61.5.3-12.9-.5-25.8-.1-38.7.7-24.6.7-49.2 1.9-73.8 1.4-29.1.9-58.2 1.8-87.3.2-6.1-1.4-11.8-1-17.8 1.8-25.2 3.4-50.3 3.2-75.6 0-4.9-1.3-9.8-.6-14.8 1.8-12.9 1.2-25.8-.4-38.7-.5-4.1-1.6-5.6-5.9-6-17.5-1.7-34.9-3.9-52.4-5.8-5.6-.6-7.3.6-7.6 6.2-.4 6.6 0 13.3 0 20 0 11.9 2.1 23.6.8 35.5-2.2 19.8-1.7 39.8-2.6 59.7-1.3 29.5-.4 59-1.1 88.5-.4 16.4-.6 32.8-.9 49.2-.9 42.9-1.7 85.8-3.3 128.6-.6 17.2-1 34.5-2.8 51.6-1 9.8-1.6 19.8-.3 29.5 2.1.8 3.7.3 5.3-.1 8.9-2.4 17.7-5.6 26.6-8.1 14.7-4.5 29.8-8.3 43.7-15.5zm-682.1 450.4c-1.9-1.5-4.1-2.1-6.3-2.8-13.9-4.4-28.1-8.1-41.6-13.5-26.4-10.5-53.3-15.1-81.7-11.8-19.4 2.3-39.1 2.6-58.7 3.1-18.3.4-36.5 1.8-54.7 2.1-24.9.5-49.8 1-74.7 2-35.6 1.4-71.1 4-106.7 3.1-2.3-.1-4.7 0-7 .2-17.2 1.8-34.5 1.9-51.7 2.7-21.6 1.1-43.1 3.5-64.8 2.3-1-.1-2 0-3 .2-15.6 3.6-31.7 2.8-47.4 3.7-22.5 1.3-45.1 2.9-67.6 3.5-19.8.5-39.6 1.7-59.4 2.5-9.3.4-18.7-.1-27.9.8-35.7 3.4-71.6 3.9-107.4 5.1-17.6.6-35.1 2.9-52.7 3.1-18.2.2-36.4 2.1-54.6 3-19.2 1-38.5 1-57.7 2.6-33.7 2.7-67.5 5.1-101.3 5.5-12 .2-23.9 1.1-35.7 2.5-3.9.5-7.6 1.3-11.8.8-14.7-1.7-29.5.3-44.4 1 1.2 3 3.8 2.7 5.9 3.3 20.4 5.8 41 11.1 61.2 17.5 9.3 2.9 18.5 5.3 28.1 5.2 22.3-.2 44.5.2 66.7-2.1 9.5-1 19.1-1.8 28.6-2.1 26.8-.6 53.7-1.3 80.5-1.6 32.2-.5 64.4-.7 96.5-3.8 23.8-2.4 47.8-.7 71.7-1.9 27.5-1.4 55.2-1.3 82.8-1.9 23.9-.5 47.8-1.9 71.6-3.6 21.9-1.6 43.7-3.2 65.7-3.5 20.6-.3 41.2.4 61.8-1.3 16.5-1.3 33.1-.4 49.6-1 19.2-.8 38.3-3.3 57.6-3.5 4.6 0 9.3-.9 13.9-1.2 15.9-1 31.7-2.1 47.5-4.1 16.1-2 32.3-.1 48.6-2.1 27-3.3 54.4-2.3 81.5-4.1 22.1-1.5 44.3.6 66.3-2.8 17.5-2.7 35.1-1.7 52.7-3.1 26.7-2.1 53.5-1.8 80.3-2.5 1.8 2.2 3.8 2.6 6 .4-1.9-1.4-3.9-2.2-6.3-1.9zm276.1-906.4c-.1-2.3 1.2-4.2 3.3-4.5 8.8-1.4 16.9-5.6 25.6-7.2 18.3-3.3 35.7 1 52.6 6.9 20.5 7.2 28.8 20.6 26.2 40.3-.5 3.9-1.9 7.7-3 11.5-3.2 11.2-6.9 22.2-6.8 34 0 11.3-.3 22.6-.1 33.9.4 17.5 5.2 33.9 13.3 49.9 3.2-1.8 6.3-3 8.9-5.1 15-11.9 32.5-17.8 50.9-21.4 7.9-1.5 8.3-2 6-9.6-7.3-24.1-6-48.6-3.7-73.2.9-9.8 3.4-19.6.7-29.5-3.1-11.6-8-21.3-18.5-28.4-17.3-11.8-36.8-16.5-56.8-19.8-6.8-1.1-13.6-3.3-20.4.4-.5.3-1.3.1-2 .1-3.4-.1-5.7-1.7-6.5-5.1-1-3.8 1.3-5.3 4.4-6.5 1.6-.6 3.9.3 5-2.7-22.1-15.6-45-25.1-73.1-18.4-18 4.3-32.5 12.7-44.5 26.3-3 3.4-4.7 7.1-5.4 11.4 3.8 3.5 8.4 2.1 12.6 2.3 6.3.3 12.7-.8 18.7 1.9 5.6 2.5 11 5.1 10.9 12.5-1.7 5.8-2.4 11.7-2.3 17.7 1.2 48.1-.7 96.2-.6 144.2 0 17.7-.2 35.4-.7 53.1-1 35.8-.7 71.6-.9 107.4-.1 9.3-1.4 18.7-.6 27.8 1.5 17.8 1.2 35.7 2.2 53.5 1 17.8.7 35.8.2 53.7-.2 5.5 1.8 11.2-1 16.6-2.6 4.9-1.8 10.3-2.1 15.6-.3 4.5 1.5 6 6.1 6.9 9.3 1.8 18.6.1 27.8 1.4 20.3 2.9 40.9 2.1 61.3 3.8 12.8 1.1 25.8.1 38.5 1.1 19.5 1.6 39 2.9 58.5 2.8 8.8-.1 9.1-.5 9.1-8.9 0-2.7.3-5.3.3-8 .1-11.3 3.1-22.4 3.3-33.6.7-35.5.7-71 2.1-106.5 1-23.8-1.5-47.7-.9-71.4.4-16.2-.8-32.3.9-48.5.8-7.6.1-15.3.9-22.9 2.1-21.8 2.2-43.7 3.1-65.6.7-17.9.1-35.9.2-53.8 0-7.7.4-15.3.5-22.9.2-19.3.5-38.5-.7-57.7-.2-3.8-2.1-6-5.4-5.7-8.1.8-16.3-.6-24.2 1.3 0 3.6 1.9 5.7 3.2 7.9 6.9 10.7 7.7 22.6 6.6 34.6-1.7 18.8-3.9 37.6-3.2 56.6.4 11.4 2.7 22.3 7.8 32.6 1 2.1 2.2 4.1 3 6.3 1.3 3.4.2 5.8-3.5 6.8-7.3 2-14.6 4.2-22 6-16.7 4.2-31.6 11.9-45 22.6-1.8 1.5-3.7 2.7-5.7 3.9-3.2 1.9-5.6 1.4-7.5-1.6-5.8-9.2-11.6-18.3-14.1-29.4-2.5-11-3.8-22.2-5.7-33.3-1.8-10.5-1.8-21.1-.7-31.3 1.5-13.1 4.5-26.1 6.3-39.2 1.9-13.5-2.1-22.2-13.7-29.4-11.8-7.3-24.8-11.1-38.1-14.2-9.7-2.2-19.6-3.1-29.3 1.4-4 1.8-8.7 1.8-12.3-1.7zM70.4 10.6c-17.2-1.6-34.1-.2-51 1.1-9.8.8-10.9 1.2-10.8 11.1.1 8.6.8 17.2 1.3 25.8.3 5-1.5 10-1.2 14.9.9 16.8 2.2 33.5 2.3 50.4.1 14.9 1.5 29.9 1.3 44.8-.3 30 1.7 60.1.7 90.2-.6 17.2.2 34.5-.7 51.7-.5 9.8 2.4 19.2 1.4 28.8-1.2 12-.4 23.8 0 35.7 1.3 40.1 1.8 80.2 2.2 120.4.5 53.2-.3 106.4 1.9 159.6 1.7 40.4-.1 80.8 2.6 121.2.8 11.9.4 24-.3 35.9-1.9 29.2 2.1 58.3.8 87.6-1.2 27.2-.5 54.5.9 81.8.9 16.6 1.4 33.3.6 49.9-1.3 24.9.5 49.7.8 74.5.2 16.7-.2 33.5.8 50.3 1.5 25.2.5 50.5.5 75.8 0 13-.1 25.9 0 38.9.2 12.3.9 24.6.7 36.7-.3 11.5 1.3 23-.5 34.5-1.6 10.3 1.3 20.5 1.2 30.8-.1 21.6.1 43.2-1.3 64.8-1.6 25.6-.3 51.2-.7 76.8-.4 22.9.8 45.8 1.7 68.7 1.4 36.9.8 73.9.9 110.8.1 24 .1 47.9 0 71.9-.1 14.3-.9 28.6-.5 42.9.7 21.9 2.3 43.7 1.5 65.6-.3 9.2-.2 18.5-.1 27.8.1 27.9.8 55.7 1.1 83.6.1 11.2 6.2 17.9 17.3 17.7 16.2-.3 32.4-1 48.7-1.3 5.3-.1 10.6 1.1 15.8.9 17.2-.8 34.3-2.2 51.5-2.9 14.9-.6 29.7-1.4 44.6-1.1 13.5.2 27.1-1.8 40.6-3 15.2-1.3 30.6.3 45.7-2.4 6.5-1.2 13.2-1.3 19.8-1.6 19.2-.9 38.5 1 57.8-1.8 14.7-2.1 29.8-2 44.7-2.7 5.7-.3 11.4.5 17-.4 21-3.3 42.3-3.6 63.4-4.9 20.5-1.2 41.2-.6 61.7-2.1 18.2-1.4 36.6-1.4 54.8-2.5 25.8-1.6 51.6-4.6 77.4-5.3 21.9-.6 43.7-2.2 65.5-2.6 7.4-.2 14-2.8 21.3-2.9 15.8-.3 31.6-.2 47.4-.4 31.9-.4 63.8-3.6 95.8-3 6.6.1 13.3.7 19.7-.4 13.5-2.3 27.1-1.9 40.6-2.7 24.2-1.3 48.6-.3 72.9-1.1 23.1-.7 46.1-2.3 69.2-3.5 12.3-.6 24.5-1.2 36.8-1.9 2.9-.2 7 .2 6.3-4.3-2.4-14.3 2-28.5.6-42.8-1.1-11.6-.5-23.2-.9-34.8-1-28.1.5-56.2.4-84.2-.1-31.8.7-63.6 1.6-95.4.2-5.9-.1-11.8.3-17.8.9-15.9.6-32 .6-48 0-3.3-1-7-5-7.6-10.9-1.6-18-8.7-26-15.5-11.6-9.9-15.1-22-14.7-36.3.3-8.4 2.5-16.4 4.2-24.5 4.7-22.7 14.3-42.9 31.4-58.9 3.8-3.6 4.9-7.1 5-12.2.5-25.9-1.5-51.8-2.2-77.7-.4-15.9-.1-31.9-.8-47.8-.7-15.9.5-31.9.3-47.8-.2-22.9-2.4-45.8-1.4-68.7.4-9.9 2.1-19.9 1.8-29.8-.8-30.5 1.4-61.1-1.7-91.6-1.2-11.3 1.3-22.4 1.9-33.5 1.4-23.5-.2-47-.1-70.5.1-20.6 1-41.2 1.4-61.8.7-38.2-1.7-76.5-1.5-114.7.1-20.9-2.7-41.7-.5-62.5 1.9-18.2-1.4-36.3-.5-54.6 1.5-31.1 0-62.3-.8-93.4-.9-34.3-.3-68.6-.4-102.9 0-8.6 1.5-17.9-1-25.8-2.5-7.9-2.6-15.3-2.4-23.1 0-.3-.1-.7-.1-1-.4-29.3-1.2-58.5 1.1-87.7.6-7.6 1.5-15.4.5-22.9-2.6-19.9-1.5-39.9-1.7-59.9-.5-35.5-.3-71-1.4-106.5-.6-19.2-2.1-38.4-2.9-57.7-.1-2.3-.4-4.6-.5-6.9-1-18.5-2.2-37.1-2.7-55.6-.1-4-.6-5.4-4.4-5.6-9.6-.4-19.1-1.5-28.8-1.6-24.6-.2-49.1-2.5-73.7-3.5-24.5-1-49.1-.4-73.6-2.5-13.2-1.1-26.6.8-39.7-2.4-6.5-1.6-13.1-1.5-19.8-1.5-11 0-22.1.5-32.9-.7-25.4-2.9-51-1.9-76.4-3.1-28.4-1.3-57-.4-85.5-2-22.5-1.3-45-2.4-67.5-1.9-10.3.2-20.5-1.2-30.8-2.1-21.4-1.8-42.9.3-64.3-1.9-20.7-2.2-41.6-2.9-62.5-3.8-18.5-.8-37.1-.8-55.7-2-16.1-1.1-32.4-.7-48.6-.7-21 0-41.9-2.5-62.8-1.4-22.9 1.2-45.7-1.5-68.6-2.4-8.6-.3-17.4.5-25.9-.5-22.1-2.8-44.4-3.9-66.5-4.8-29.3-1.4-58.9-3.6-88.3-2.3zm1956.5 1300.3c7.9-3.9 15.6-1.9 22.9-.5 9.4 1.8 17.1 7.2 22.3 15.4 4.4 6.9 2 13.8.1 21-2.6 10.2-6.8 20-8.8 30.5-1 5.5.2 8.4 4.1 11.9 12.5 11 24.5 22.4 33.8 36.5 8.5 13 14.2 27.1 17 42.2 1.6 8.5 1.5 9.2 10.1 10 9.9.9 19.8 1.6 29.7 1.7 10.3.1 20.5-.1 30.8-1 24.1-2 48.1-2.8 71.6-9.9 24.3-7.4 49.1-12.4 72.7-22.6 19.4-8.4 39-16.4 57.8-26.3 19.9-10.5 40-20.5 58-34.3 18.2-13.9 36.2-28 52.1-44.6 12.8-13.4 25.6-26.8 33.5-43.9.8-1.7 2-2.2 4-1.5 4.7 1.5 6.3 4.5 4.5 10.2-2.2 7-5.8 13.5-10.4 19.2-14.9 18.4-32.3 34.3-50 49.9-15.2 13.5-32.8 23.7-48.5 36.5-3.8 3.1-7.2 7.2-12.2 8.5-5.7 1.4-10.2 4.7-14.7 8-5.1 3.7-10.6 6.9-16.2 9.6-10.5 4.9-21 9.8-31.8 14-15.8 6.1-31.2 12.9-48 16.8-19 4.4-37.8 9.8-56.5 15.2-13.1 3.7-26.4 6.1-39.7 8.5-13.4 2.5-26.9 4.1-41 1.8-10.7-1.7-22.2-1.2-33.3-1.3-9.1-.1-18.3-.8-27.2-4.2-3.8-1.5-5.4-2.8-5.3-6.9.4-15.9-5.5-29.9-13.7-43-9-14.5-20.3-27.2-34.3-37-9.9-6.9-12.1-15.4-9.5-26.8 3.1-13.2 4.5-26.8 11.6-38.8 1.3-2.3 1.6-4.4-.6-6.2-7.2-5.6-14.7-10.8-24.4-9.6-7.5.9-14 3.4-13.6 13.5.4 10.9-1.6 21.8-1.5 32.8.3 20.6-1.3 41.2-2.3 61.7-.9 18.5-.5 37-.3 55.5.1 11.8.3 12.2-8.6 21.2-1.9 1.9-3.8 3.8-5.8 5.5-21.1 18.2-45.5 30.7-71.1 41.1-11 4.5-22.5 7.9-33.7 11.9-16.2 5.8-32.7 9.8-49.5 13.2-3 .6-3.9 1.6-3.4 4.5 1.4 7.9 4.2 15.4 7.7 22.6 1.6 3.4 4.2 4.3 8.2 3.8 9.1-1.3 18.4-2.3 27.5-3.8 9.1-1.5 18.1 1.9 27-1.4 2.2-.8 5 1.5 5.5 3.5 1.5 6.7 6.5 11.4 8.9 17.6 6.7 17.4 16.1 33.5 25.5 49.5 3.2 5.4 7.2 8.7 13.8 9.8 31.3 5.3 62.3 12.1 94.1 13.6 4.3.2 8.6.3 12.9.8 20.4 2.1 40.8 4.7 61.3 5.1 29.2.6 58.4.7 87.6-1.4 27.5-2 54.6-6.3 81.7-11 30-5.2 59.3-13.6 88.5-22.4 7.3-2.2 14.1-5.7 21.6-7.4 12.3-2.7 24.4-6.4 36.3-10.2 20.5-6.5 40.6-14.1 60-23.5 33.1-16 66.2-31.7 95.5-54.5 13.9-10.8 27.8-21.6 40.1-34 23.9-24.1 51.2-45.4 66.8-76.8.8-1.7 1.9-2.7 3.9-2.2 4 1.1 7.6 8.3 5.4 11.6-8.2 12.4-14.9 26-25.6 36.7-6.8 6.9-12.9 14.3-19.4 21.5-12.5 13.9-27.4 25.2-41.7 37-12.5 10.3-25.2 20.4-39.2 28.8-8.2 4.9-16.7 9.5-24.9 14.6-27.3 16.8-56.8 28.9-86.4 40.6-39.1 15.4-79.6 26.8-120.3 37.2-9.6 2.5-19.5 3.8-29.1 6.5-27.1 7.7-54.5 13.7-82.8 15.4-24.5 1.5-48.9 4.1-73.5 3.4-8.6-.2-17.2.5-25.8.4-24.2-.3-48.5 1-72.6-2.5-4.6-.7-9.2-2-13.7-1.9-19.6.6-38.8-3.1-57.9-6.7-5.2-1-10.5-1.5-15.7-2.3-12.9-2.1-25.3-7.2-38.7-7.1-3 0-4.8-1.5-6.6-3.8-12.4-15.7-24.6-31.3-33.5-49.4-3.1-6.2-7.1-12-10.7-18-1.9-3.2-4.9-4.9-8.4-4.1-12.3 2.6-25.1 1.7-37.3 5-4.7 1.3-8 0-11.2-3.9-6.3-7.6-10.4-16.1-13.8-25.2-1.4-3.7-2.8-7.4-4.2-11.2-.6-1.7-1.7-2.8-3.7-2.5-17 2.3-34.1 4.4-51.1 6.9-13.4 1.9-26.8 5-40.4 4.7-16.6-.3-33.1-1.9-49.7-2.3-8.7-.2-17.3.6-25.9.4-23.9-.6-47.8-1.7-71.6-4.1-13.9-1.4-27.9 1.1-41.8-1.8-3.1-.6-4.5.9-5.8 3.9-1.5 3.4-.7 6.5-.1 9.7.9 4.9 2.8 9.6 3.4 14.5 1.6 15 6.8 28.9 11.4 43.1 5.8 18 14.3 34.8 21.9 52.1 11.3 25.9 24 50.9 39.4 74.6 4 6.1 7.8 12.3 11.5 18.6 10.6 18 22.6 35 35.2 51.6 10.2 13.4 22.6 24.8 34.6 36.6 6.6 6.5 13.3 12.9 19.5 19.7 8 8.6 18.1 14.7 26.5 22.7 19.9 19.1 41.4 36.1 63.4 52.7 21.4 16.2 43.5 31.2 67.7 42.8 4.1 2 8.3 4 12.2 6.5 21.3 13.6 43.9 24.3 68.3 31.1 9.4 2.6 10.6 4.8 8.8 14.7-.2 1-.2 2-.3 3-1.9 16.2-1.6 32.2-.2 48.5 2.2 26.3 7 51.5 19.1 75.5 11.2 22.1 24 42.6 41.3 60.6 10 10.4 19.5 21.9 22.8 36.8 1.8 7.9-1 11.3-9.3 12.2-8.2.9-15.2-2.4-21.3-6.7-12.7-9.1-25.3-18.3-38.4-26.7-10.5-6.8-20.4-15-33.4-17-12-1.9-24-2.8-34 6-7 6.2-12.7 13.3-16.9 21.9-7.2 14.8-11 30.4-13.1 46.6-1.5 12.1-3.9 24.3-3.7 36.5.3 19.6 3.7 38.9 12.1 56.9 1.3 2.8 2.2 4.4 5.7 5.4 24.3 6.9 49.3 9.9 74.2 13.1 18.4 2.4 37 3 55.5 3.9 30.3 1.4 60.5.6 90.7-2.1 1.6-.2 3.1-.5 4.6-1.3 6.3-3.1 10.4-1.3 12.2 5.3 4.1 15.6 13.6 27.9 24.6 39.2 1.7 1.7 3.6 2.7 6 3.1 10.8 1.8 21.5 4.7 32.3 5.5 34.4 2.5 68.8 4.1 103.1 6.2 14.9.9 29.8-1.3 44.7-1.1 18.9.2 37.7-2.1 56.5-2.7 24-.8 47.1-6.9 70.6-10.7 15.2-2.4 29.7-6.6 43.6-12.9 14.2-6.4 16-9.5 12.2-24.9-5.7-22.8-11.8-45.5-14.4-68.9-2-18.1-5.6-36-6.3-54.1-1.1-26.7-.9-53.5 1.7-80.1 1.3-13.2 2.1-26.4 4.4-39.4 3.8-21.5 8.5-42.9 13.3-64.2 3.3-14.5 6-29.1 12.6-42.8 3.4-7.1 8.3-10.3 15.6-12.2 11.2-2.8 22.7-5.3 33.3-9.9 26.7-11.6 54.2-21 80.9-33 39.1-17.6 75.7-39.6 113.3-59.9 14.6-7.9 27.9-17.9 41.7-27.1 29.5-19.5 58.7-39.4 86.1-61.9 21.6-17.7 42.5-36.2 61.4-56.6 25.2-27.3 50-55 69-87.3 8.1-13.7 16.2-27.4 24.3-41.2 9.8-16.7 15.6-35.1 23.2-52.8 3.5-8.2 6-16.8 9-25.3 4.3-12.2 7.3-24.8 11.5-36.9 4.4-12.8 8.7-25.7 12.3-38.8 5.8-21.4 10.3-43.2 13.6-65.1 2.1-13.7 5.5-27.1 7-41 1-9.3.4-18.7 1.9-27.8 2.6-16 2.5-32.1 2.9-48.1.5-21.5-.1-43.1-.1-64.6 0-22.6-5.7-44.6-5.8-67.2-6.1-15.7-3.3-32.7-7.5-48.9-4.7-18.2-6.6-37.1-11.7-55.3-6.6-23.3-14-46.3-22-69.1-9.6-27.6-21.4-54.3-31.8-81.6-7.5-19.4-21.5-35.1-30.7-53.6-.1-.3-.4-.5-.5-.8-14.1-25.4-32.2-48-50-70.7-17-21.7-35.6-42.2-56.1-60.7-19.4-17.6-39.7-34.1-59.5-51.1-18.4-15.8-37.9-30.2-57.8-44-15.8-10.9-32.9-19.9-48.6-30.9-10.1-7-20.6-13.2-31.5-18.9-22.7-11.9-46.5-21.3-69.4-32.5-30.7-15-62.5-26.9-95.4-35.9-10.3-2.8-20.8-3.7-31-6.5-13.3-3.7-27-6-40.9-6.9-12.5-.8-25.2-1.8-37.5-4.1-20.6-3.9-41.5-4.6-62.2-4.8-25.8-.2-51.7.4-77.5 3.1-16.5 1.7-32.6 5.3-49.1 6.9-15.7 1.6-31.2 5.3-46.7 8.5-15.9 3.2-31.8 6-47.4 10.3-27.9 7.7-55.9 14.7-82.4 26.6-.9.4-1.8.8-2.8 1.1-22 6.4-42.9 15.9-63.6 25.4-29.1 13.4-58.2 27.1-85.2 44.9-16.5 10.9-34.1 20.3-50.1 32.1-23.1 17.1-46.4 34.1-68.4 52.6-15.7 13.1-31.4 26.3-46.1 40.6-20.4 19.8-41.9 38.5-60.7 60.1-20.2 23.3-41.1 45.9-59.8 70.5-14.1 18.5-25.5 38.7-37.3 58.7-1.1 1.8-2 4 .5 5 9.4 3.8 15.6 11.7 23.4 18.4 7.6-10 14.5-19.6 21.4-29.2 13.8-19.2 25.8-39.5 39-59 8.9-13.3 18.4-25.9 29.3-37.7 14.7-15.7 33.2-24.3 53.2-29.4 11.4-2.9 23.3-3.3 35.1 1.6 24.6 10.2 41.6 27 47.7 53.2 7.3 31.8 5.4 64 1.4 96-1.4 11.5-3.6 22.8-6.4 34.8 18.4 2.2 36.4 4.2 54.4 6.4 9.2 1.1 18.4 2.2 27.5 3.3 11.2 1.3 22.3 2.8 33.5 4.1 15.1 1.7 30.2 3.1 45.3 4.8 7.8.9 10.4 4.3 10.4 12.5 0 3 0 6-.2 9-1.7 25-4.1 50-4.9 75-.6 18.5-1.8 37-2.4 55.6-.4 12.3-.4 24.6-.6 36.8-.5 10.6-3.7 21.4-1.2 33.4zM430 2225.7c-11.9.7-27.2.4-42.4 1.7-19.2 1.6-38.5.4-57.7 2.9-4.3.6-8.5 1.1-12.8 1.3-6.7.2-7.1.5-7 7.1.1 7.6.2 15.2.1 22.9-.4 24.2-.6 48.4 2 72.5 1.6 15.2-.1 30.5-.1 45.8 0 2-.7 4-3.4 3.9-2.1-.1-2.8-1.7-3.2-3.2-.4-1.2-.2-2.6-.4-3.9-1-6.6.7-13.1 1-19.6.6-16.3-1.6-32.5-2.1-48.8-.7-22.2.7-44.4.7-66.6 0-10.7 1.5-8.6-8.2-11.8-17.6-5.8-35.1-12.2-52.3-19.2-21.8-8.9-43.6-17.8-66.2-24.4-5.1-1.5-10-3.5-14.8-5.8-3.2-1.6-6.9-3.6-6.2-8.1 2-11.9.4-23.9 1-35.8 1.4-27.2.6-54.3-.1-81.5-.3-10.2-1.2-10.9-10.7-13.8-5.7-1.7-11.3-3.6-17.1-5.1-12.2-3-24.8-4.7-36.6-8.9-16.9-6.1-34.4-10.1-51.5-15.2-14.4-4.2-13.1-3.2-13.1 9.7-.1 23.5.9 47 1.1 70.4.2 24.5-.7 49.1-2 73.6-.6 10.3-1.8 20.5-1.6 30.8.6 23.5 1.3 47-.8 70.5-.6 6.5 1.1 12.1 8.4 15 8 3.1 15.4 7.9 23.5 10.9 28 10.3 55 23.1 82.4 35.1 22.1 9.7 44 20 66.7 28.3 26.5 9.6 53.2 18.7 80.3 26.5 12.1 3.5 24 7.8 36.9 6.8 22.7-1.8 45.5-2.5 68.2-5 24.3-2.7 48.9-3.4 73.4-5 2.7-.2 5.3 0 8-.3 17.4-1.6 34.9-3.5 52.3-4.8 17.9-1.4 35.8-1.9 53.7-2.9 15.5-.8 30.9-4 46.5-4 4.3 0 8.8.3 12.9-.5 16.7-3.3 33.6-3.9 50.4-4.8 32.5-1.6 65-1.2 97.5-3.7 30.4-2.4 61-2.1 91.4-5 24.1-2.3 48.3-3.7 72.4-5.8 10.2-.9 20.4-3.4 30.6-3.5 21-.2 41.7-4.5 62.7-3 4.6.3 9.3-.2 13.9-.6 26.4-2.2 52.7-5.2 79.2-6.4 23.9-1.1 47.6-3.3 71.5-4.6 7.2-.4 14.5-.3 21.8-1.4 15.4-2.2 31-4.2 46.5-4 29 .4 57.5-4.9 86.2-7 14.5-1.1 28.7-5.1 43.3-5.4 8.6-.1 10.4-2.1 9.7-11.2-1.2-14-1.2-27.9-1.2-41.9 0-9.3.2-18.6-.4-27.9-.9-14.8-2.5-29.6-3.5-44.4-1-14-3.2-16.2-16.7-14.2-18.7 2.7-37.6 3.3-56.4 5.2-12.6 1.3-25.2 2-37.7 3.1-18.8 1.6-37.6 3.3-56.4 4.9-12.9 1.1-25.9 1.2-38.7 3-21.1 3-42.3 2.8-63.4 4.9-18.5 1.8-37 1.7-55.5 3.7-5.9.6-11.6 2.6-17.6 2.5-24.6-.3-49.2-.1-73.8 1.6-18.4 1.3-37 .5-55.5 2-21.5 1.8-43.1 1.8-64.7 2.9-18.9.9-37.7 2.4-56.6 3.2-14.9.6-30-.1-44.9 1.1-29.1 2.2-58.2 3-87.3 4.7-27.1 1.6-54.3 2.4-81.4 4.7-6.6.6-13.3-.1-20 .4-14.2 1.1-28.4 2.5-42.6 3.8-8.9.8-17.7-1.8-26.7-.7-8.9 1.1-17.9 1.8-26.8 2-18.5.5-36.7.3-58.1.3zm861.9-231.7c-11.6-2-22.8-.6-34-.6-41.2.1-82.4 1.4-123.5 4.3-37.8 2.7-75.6 3-113.4 6-10.3.8-20.6.4-30.9 1-23.8 1.4-47.5 5.1-71.4 5.3-12 .1-23.5 4-35.5 4.1-11.6.1-23.2-1.2-34.7 1.6-1.2.3-2.8.4-3.9-.2-6.1-2.8-12.4-1.7-18.7-1.5-26.1.7-52.1 2.7-78.2 3.3-33.9.8-67.7 3-101.6 4.6-11.6.6-23.3-.8-34.8.4-19.2 1.9-38.5 2-57.7 3.1-26.2 1.5-52.6-.3-78.8 2.3-14.9 1.4-29.9.4-44.9 1.7-15.8 1.3-31.6 1.6-47.4 2.2-13.9.6-27.8.6-41.6 1.5-17.9 1.1-35.8 1-53.7 2.1-10.4.6-21-.2-31.6.6-19.9 1.3-39.9-.5-59.7 2-9.8 1.3-20.6-2-28.8 6.5-5.8-.9-4.8 3.3-4.5 6.3 2.8 25.8 1.7 51.8 1.8 77.7 0 11.9-.1 23.9-.1 35.8 0 3.3.6 5.3 5.2 4.6 29-4.4 58.3-2.6 87.5-4 24.5-1.2 49.1-.2 73.6-.6 20.8-.3 41.6-1.2 62.4-1.9 13.9-.4 27.9-1.4 41.8-1.7 15.2-.3 30.5 0 45.6-1.4 19.4-1.7 39-3.3 58.4-4.5 25.2-1.5 50.2-4.7 75.5-5.5 5.6-.2 11.2 1 16.7.2 14.4-1.9 29-2.3 43.4-2.7 22.8-.7 45.7-1.7 68.3-3.8 30.1-2.7 60.3-2.4 90.4-4.7 22.1-1.7 44.4-1.7 66.6-2.5 6.7-.2 13.3-.2 20-.5 23.4-1.2 46.8-2.7 70.2-3.7 20.2-.9 40.5-.3 60.5-2.4 22.7-2.3 45.5-3 68.1-6.3 8.1-1.2 16.5-.4 24.7-1.4 11.5-1.4 23-2.7 34.7-3.3 25.8-1.3 51.6-2.8 77.3-5 9-.8 18.1 0 26.8-1.9 10.5-2.3 9.7.1 10.2-11.1.7-15.2 2-30.5 1.8-45.8-.3-20-.9-40.2-2.1-60.2zm-62.5-914.2c.9 19.3 2 37.3 2.4 55.4.5 21.9.6 43.9.7 65.8 0 5.6 2.6 11.1.9 16.8-1.3 4.5-1 9.2-1 13.8.3 17.9-.1 35.8 1 53.7 1 16.6-1.5 33-1.1 49.6.4 12.9-.3 25.8-.8 38.8-.4 8.8-1.1 17.8-.8 26.5.9 20.7.8 41.4-1 62.1-.5 5.5 1.2 9 5.9 11.2 8.8 4 14.9 11.1 21.2 17.9 6.2 6.7 6.8 14.9 1.9 22.8-6.4 10.5-12 21.5-19.6 31.2-2.6 3.4-3.5 7-3.4 11.1.1 7.5.1 7.9 7.9 7.8 10.8-.1 21.6.8 32.5.8 25.5.2 51.1 1.1 76.5 2.6 15.9.9 31.8-.9 47.7 1.6 9.1 1.4 18.6.6 27.9.9 3.6.1 5.1-1 5.5-5 2-17.8 2.4-35.8 1.3-53.4-.9-15 .8-29.7.6-44.5-.2-19.5.8-39.1.6-58.6-.2-15.5.5-30.9.9-46.3.6-20.3.9-40.5 1.1-60.8.1-12.5-1-25-.8-37.6.6-31.3.6-62.6-.3-93.9-.4-13.2-.2-26.4.4-39.6.6-13.9.6-27.8-.9-41.7-.5-4.9-2.4-8-7.5-6.5-7 2.2-13.8.1-20.7 0-26.7-.6-53.4-1.4-80.2-1.9-17.6-.4-35.3-.9-52.9-.6-15 .3-30.2.2-45.9 0zM1398 2165.4c-2.2-1.9-2.8-2.7-3.7-3.1-18-7.7-36.1-15.1-54.1-22.9-15.8-6.9-33.1-9.7-48.4-18.1-2.4-1.3-5.2-.7-7.9-.7-19.9.1-39.6 2.2-59.4 3.7-28.7 2.2-57.5 3.2-86.1 7.2-20.3 2.8-41 3.4-61.5 4.2-19.6.7-39.2 1.6-58.8 2.4-28.8 1.2-57.4 4.7-86.2 5.2-24.8.4-49.7-.5-74.5 1.9-16.8 1.6-34 .1-50.8 1.7-24.8 2.4-49.6 4.8-74.4 5.4-30.5.8-61 1.7-91.4 3.9-21.5 1.5-43 3.1-64.5 3.4-22 .4-43.6 4.1-65.5 5.3-21.2 1.1-42.2 5-63.5 5-26.6-.1-53.3-.8-79.8 2-11.3 1.2-22.7-.5-33.9.9-18.9 2.4-37.8 1.3-56.7 1.2-25.3-.1-50.5.7-75.8.7-7.6 0-15.6.1-23.1 2.9.6 1.1.7 1.9 1.1 2.1 19.8 6.9 39.4 14 59.3 20.4 17.7 5.7 36.1 9.2 53.2 16.2 14.9 6.1 29.8 6.6 44.9 5.3 16.9-1.5 33.8-1.5 50.7-1.7 21.6-.3 43.3.1 64.9-.2 21.5-.3 43-2.3 64.5-3.1 23.9-.9 47.7-2.6 71.5-4.2 26.8-1.8 53.6-3.2 80.4-4 10.3-.3 20.7-.1 30.9-.7 17.6-1.1 35.1-3.5 52.6-3.7 35.9-.4 71.8-.4 107.7-3.6 8.2-.7 16.4-1.7 24.7-1.9 23.3-.5 46.5-1.5 69.7-2.5 25.9-1.1 51.8-2.6 77.7-3.4 16.9-.5 33.9.7 50.6-1.7 17.5-2.5 35-3 52.5-4.5 14.6-1.2 29.2.1 43.8-1.8 16.1-2.1 32.4-3.6 48.6-4.1 20.6-.6 41-4 61.6-5.1 19.8-1.1 39.5-4.7 59.2-5.4 16.2-.7 32.1-3.7 49.9-4.6zm355.9-610.2c-1.4 5.3.2 10.5.1 15.8-.1 7.1.6 7.4 7.4 6.4 22.3-3.3 44.5-6.5 66.8-10 11.7-1.9 23.6-2.9 35.1-6.2 4.1-1.2 6.7-2.8 6.7-8.1 0-13.9 2-27.8 1.9-41.8-.2-30.8 3.4-61.4 3.8-92.2.3-18.9-.1-37.8.2-56.8.1-8.9 1.6-17.9 1.8-26.8.5-20.5-.7-41.1 1.1-61.4 2.5-28.5.7-57.1 2.5-85.6.8-12.2 2.2-24.9-.7-37.3 3.8-20.5-1.2-41-.1-61.6.2-4.2-1.5-5.9-5.7-6.2-14.2-1.1-28.4-2.3-42.6-3.7-18.2-1.8-36.3-4-54.5-5.5-12.8-1.1-12.8-.7-14 12.1-.2 2.3-1.6 4.5-1 6.8 2.9 10.1.6 20.5.4 30.5-.5 18.5-.7 37.1-1.1 55.7-.1 7-1.2 13.8-1.3 20.8-.2 9.6 1.9 19 .7 28.5-2.4 18.6-3.1 37.4-3.3 56.1-.2 25.1-1.4 50.3.3 75.4.1 1-.4 2-.3 3 .7 13.3-1.2 26.5-1.8 39.8-1.1 22.5 1.2 45 .5 67.6-.8 28.4-2.7 56.6-2.9 84.7zm-310-14.7c0 7 .2 14.7 0 22.3-.3 8.8-.4 9.1 8.8 9 12.6-.2 25.1 1 37.6 1.3 12.9.3 25.9-.5 38.8 1.1 3.8.5 5.4-1.2 5.3-5.1-.2-14.3.8-28.6 1.1-42.8.7-29.6.1-59.1.2-88.7.1-24.6.2-49.2.6-73.8.6-37.3-1.6-74.5 1.4-111.8.9-11.7-2.3-23.2-1.1-34.8 2-21.1 1.3-42.3 1.5-63.3.2-24.5-.5-49-.3-73.5 0-5.5-2.1-6.2-6.9-6.9-14.2-1.8-28.6-.2-42.8-2-10.6-1.4-21 .7-31.5 1-9.1.2-10.7 2.3-10.7 11.6 0 5 .6 9.9.3 15-.7 12.2-1.8 24.6-.8 36.8 1.4 18.9.4 37.9 1 56.8.9 29.6.2 59.2.1 88.8-.2 57.9-.6 115.9-.5 173.8 0 28.1-.7 56.3-2.1 85.2zm-256.3-150.1c5.6 12.9 6.4 25.2 7.9 37.2 1.4 10.8 1 21.9.8 32.9-.1 7-2.3 8.7-9.3 7.7-3.4-.5-5.6.5-8.2 2.3-12.2 8.4-22.7 18.9-30 31.3-10.2 17.3-17.7 35.7-16 57.1.7 8 3.1 13.5 7.8 19.3 10.5 12.9 24.7 18.7 40.5 21.1 5.6.8 10 .1 10 8 0 2.7 3 6.3 5 9.3 9.2 13.9 23.2 21.3 36.8 29.7 11 6.7 21.2 5.9 32 1.2 5.4-2.4 10.8-5 15.5-8.9 6.8-5.5 14.8-7.2 23.1-4.4 5.6 1.9 11.1 3.9 16.4 6.7 16.3 8.7 32.1 8.4 44.8-8.2 11.7-15.2 24.3-29.8 32.8-47.3 3.2-6.6 3.4-6.8-4-7-23.3-.3-46.5-.1-69.7-1.8-28.1-2-56.3-2.1-84.5-4.7-6.4-.6-10.7-1.7-11.8-8.7-5.9 2-8.1 7.9-13 9.9-4 1.6-7.7 8.6-11.7 3.7-2.9-3.5 2.3-8.2 5.5-11.5 7-7.1 13.7-14.5 19.6-22.5 8.8-12.1 17.2-24.4 21.3-39 1.2-4.4.6-7.6-2.6-10.9-7.7-7.9-16-14.9-26.8-18.3-3.8-1.2-7.4-2.8-11.3-3.6-2.4-.5-5.2-2.5-4.2-5.7.8-2.6 3.3-2.6 5.9-2.3 3.2.5 6.4 1.8 9.9.5.3-4 .5-8 1-11.8 2.1-16.2.5-32.4 1.4-48.6.1-2.5-.6-4.5-3.4-5.3-9.9-2.5-19.3-6.8-31.5-7.4zm469.6-347.8c7.4 1.8 13.7 2.7 19.4 5 7.2 3 12.5.6 18.1-3.7 17.4-13.5 33.7-28 48.9-44 3-3.1 6.2-6.1 9.8-8.5 8.4-5.6 16.7-4 22.6 4.2 3.6 4.9 5.5 10.3 6.2 16.5 1.7 15-2.8 28.9-6.1 43.1-1.4 6.1-1.1 7.6 4.2 8 7.6.6 15.1 2.2 22.7 2.8 14.9 1.2 29.8 1.7 44.7 2.5 6.1.3 7.4-.4 8.6-6.7 1.4-7.8 2.6-15.7 3.4-23.6 1.9-18.5 2.2-37.1 2.6-55.7.4-21.4-1.7-42-12.5-61.6-8.8-16-21.6-24.4-38.2-29.1-5.8-1.6-11.2-1.2-16.5.6-12 4-23.6 9-34.2 15.9-30.5 19.8-50.7 48.3-67.6 79.7-7.1 13.1-14.8 25.8-22.8 38.3-3.5 5.6-8.3 10.3-13.3 16.3zm-233.7 29.1c.4-3.1-1-4.2-2-5.5-9.7-12.9-11.4-26.8-7.5-42.4 3-12 8.7-22.9 12.6-34.5 4-12 10.2-23.1 18.6-32.6 6.9-7.8 16.9-5.8 20.6 3.8 4.2 11.1 8.3 22.3 12.2 33.6 5 14.5 10.8 28.6 19.4 41.3 3.8 5.6 5.7 6.3 10.2 2.3 10.3-9.1 21.3-17 33.9-22.4 3-1.3 3.7-3.7 1.8-6.5-.9-1.4-1.9-2.7-3-4-11.9-14.4-21.7-30.2-31.4-46-9.9-16.2-16.7-33.9-24.8-51-2.7-5.6-6.3-10.2-11.2-13.7-5.4-3.9-16.2-5.1-19.4-.8-3.6 4.8-8.3 5.1-12.9 6.2-6.5 1.6-12.9 3.7-18.2 7.7-15.9 12.2-32.3 23.6-44.6 40.2-17.5 23.8-24.7 49.6-21.2 78.6.9 7.1 1.5 14.7 6.9 20.4 6.6 7 13.5 13.8 20.5 20.5 3.7 3.6 8 5.3 13.5 4.9 8.5-.4 17.1-.1 26-.1zm27.6-104c-3.2 4.3-6.8 7.9-9 12.2-9 17.5-14.5 36.1-15.6 55.9-.4 7.5 1.4 14.5 4 21.3 2.5 6.5 4.7 7.2 12 5.1 1.6-.5 3.3-.6 4.9-.7 11.9-.5 23.7-1 35.6-1.3 8.6-.3 10-2.6 7.5-10.9-2.3-7.4-7.1-13.5-10.6-20.2-8.2-15.6-14.6-31.8-20-48.5-1.6-4.5-2.9-9.5-8.8-12.9zm251.2 90.2c3.1 4.2 6.2 8.1 10.5 8 14.6 0 29.2 1.2 43.6-2.2 2.4-.6 2.7-1.8 3.7-3.6 6.2-11.2 7.7-23.9 11.3-35.9 1.3-4.2 1-9.3-.4-13.8-2.6-8.4-7.4-9.9-13.6-3.6-3.4 3.5-6.3 7.6-9.8 11.2-13.7 14.3-29.2 26.8-45.3 39.9z"/><path fill="#100E0C" d="M1206.4 892c-1.1-23 5.2-43.9 14.2-63.9 3.2-7.2 6.8-14.5 11.7-20.6 4.5-5.6 12-7.8 19-9.1 18.1-3.2 32.4 4.1 43.9 17.5 13.6 15.8 20.3 34.8 25.1 54.7 8.2 34.6 2.9 67.8-11.8 99.7-3.8 8.2-8.7 15.9-14.9 22.3-10.7 11-33.4 13.6-48.4 1.5-5.7-4.6-10.8-9.8-16-14.9-8.8-8.5-10.9-20.5-14.4-31.3-4.1-12.5-5.8-25.7-8.4-38.7-1.2-5.9-.8-11.9 0-17.2zm38.7-79.3c-5.1 1.7-8 5.7-10.6 10-12.4 20.3-17 42.8-18.2 66.2-.7 14.4 1.7 28.5 4.7 42.4 1.6 7.2 3 14.8 8.5 21.7.2-4.4 0-7.6-.5-10.9-2.4-16-6.1-31.8-4.3-48.3 1.8-16.8 2.1-33.7 7.8-49.9 3.6-10.4 9.8-19.5 13.9-29.6.9-.3 1.7-1 1.4-1.8-.9-1.8-1.8-.2-2.7.2zm71.1 94.6c1.3-19.5-3.6-37-10.6-57.9-4.7-13.9-12.7-25.2-24.6-34.1-11.3-8.4-18.9-7.6-27.6 4-11 14.8-16.2 31.9-19.5 49.6-3.7 20-3.4 40.1-.5 60.3 2.6 18.3 8.7 35.3 18.9 50.8 5.1 7.8 12.1 10.4 21.4 9 14.3-2.3 21.1-13.5 27.3-24.2 10.6-18.5 15.8-38.7 15.2-57.5z"/><path fill="#CFA46C" d="M70.4 10.6c29.4-1.2 59 1 88.5 2.2 22.2.9 44.4 2 66.5 4.8 8.5 1.1 17.3.2 25.9.5 22.9.9 45.6 3.6 68.6 2.4 21-1.1 41.9 1.4 62.8 1.4 16.2 0 32.5-.4 48.6.7 18.6 1.3 37.1 1.2 55.7 2 20.9.9 41.8 1.6 62.5 3.8 21.4 2.3 42.9.1 64.3 1.9 10.2.9 20.4 2.3 30.8 2.1 22.5-.5 45 .6 67.5 1.9 28.5 1.6 57 .7 85.5 2 25.5 1.2 51 .3 76.4 3.1 10.9 1.2 22 .8 32.9.7 6.7 0 13.3-.1 19.8 1.5 13.1 3.2 26.5 1.3 39.7 2.4 24.5 2.1 49.1 1.4 73.6 2.5 24.6 1 49.1 3.3 73.7 3.5 9.7.1 19.2 1.2 28.8 1.6 3.9.2 4.3 1.6 4.4 5.6.5 18.6 1.7 37.1 2.7 55.6.1 2.3.4 4.6.5 6.9.8 19.2 2.3 38.5 2.9 57.7 1.1 35.5.9 71 1.4 106.5.3 20-.9 39.9 1.7 59.9 1 7.5.1 15.3-.5 22.9-2.3 29.2-1.5 58.5-1.1 87.7 0 .3.1.7.1 1-.1 7.8-.1 15.2 2.4 23.1 2.5 7.9.9 17.1 1 25.8.1 34.3-.4 68.6.4 102.9.8 31.2 2.3 62.4.8 93.4-.9 18.3 2.4 36.4.5 54.6-2.2 20.8.6 41.7.5 62.5-.2 38.2 2.3 76.5 1.5 114.7-.4 20.6-1.3 41.2-1.4 61.8-.1 23.5 1.4 47 .1 70.5-.7 11.2-3.1 22.2-1.9 33.5 3.1 30.5.9 61.1 1.7 91.6.3 9.9-1.4 19.9-1.8 29.8-1 22.9 1.1 45.8 1.4 68.7.2 15.9-1 31.9-.3 47.8.7 16 .4 31.9.8 47.8.7 25.9 2.7 51.7 2.2 77.7-.1 5-1.2 8.6-5 12.2-17.1 16-26.7 36.2-31.4 58.9-1.7 8.1-3.9 16.1-4.2 24.5-.5 14.3 3 26.4 14.7 36.3 8 6.8 15.1 13.8 26 15.5 4 .6 5 4.3 5 7.6 0 16 .4 32-.6 48-.4 5.9-.1 11.9-.3 17.8-.8 31.8-1.6 63.6-1.6 95.4.1 28.1-1.4 56.1-.4 84.2.4 11.6-.2 23.2.9 34.8 1.3 14.3-3 28.4-.6 42.8.7 4.4-3.4 4.1-6.3 4.3-12.3.7-24.5 1.3-36.8 1.9-23.1 1.2-46.1 2.8-69.2 3.5-24.3.7-48.6-.2-72.9 1.1-13.5.7-27.1.4-40.6 2.7-6.4 1.1-13.1.5-19.7.4-32-.6-63.8 2.7-95.8 3-15.8.2-31.6 0-47.4.4-7.3.2-14 2.8-21.3 2.9-21.8.5-43.7 2.1-65.5 2.6-25.8.7-51.6 3.7-77.4 5.3-18.3 1.1-36.6 1.1-54.8 2.5-20.6 1.6-41.2.9-61.7 2.1-21.1 1.2-42.4 1.6-63.4 4.9-5.5.9-11.3.1-17 .4-14.9.7-30 .6-44.7 2.7-19.3 2.8-38.5.9-57.8 1.8-6.6.3-13.3.4-19.8 1.6-15.2 2.7-30.5 1-45.7 2.4-13.5 1.2-27.1 3.2-40.6 3-14.9-.3-29.8.5-44.6 1.1-17.2.7-34.3 2.1-51.5 2.9-5.2.2-10.5-1-15.8-.9-16.2.3-32.4 1-48.7 1.3-11.2.2-17.2-6.5-17.3-17.7-.2-27.9-.9-55.7-1.1-83.6 0-9.3-.2-18.6.1-27.8.8-21.9-.9-43.7-1.5-65.6-.4-14.3.4-28.6.5-42.9.1-24 .1-47.9 0-71.9-.1-36.9.4-73.9-.9-110.8-.9-22.9-2.1-45.8-1.7-68.7.5-25.6-.9-51.2.7-76.8 1.4-21.6 1.2-43.2 1.3-64.8 0-10.3-2.9-20.6-1.2-30.8 1.8-11.5.3-23.1.5-34.5.3-12.1-.5-24.5-.7-36.7-.2-13 0-25.9 0-38.9 0-25.3.9-50.6-.5-75.8-1-16.8-.6-33.6-.8-50.3-.3-24.8-2.2-49.6-.8-74.5.9-16.6.3-33.3-.6-49.9-1.4-27.3-2.2-54.6-.9-81.8 1.3-29.3-2.6-58.4-.8-87.6.8-11.9 1.1-24 .3-35.9-2.7-40.4-.9-80.9-2.6-121.2-2.2-53.2-1.4-106.4-1.9-159.6-.4-40.1-.9-80.3-2.2-120.4-.4-11.9-1.2-23.7 0-35.7 1-9.5-1.9-19-1.4-28.8.9-17.2.1-34.5.7-51.7 1-30.1-1-60.1-.6-90.2.2-14.9-1.2-29.9-1.3-44.8-.4-16.8-1.6-33.5-2.6-50.3-.3-4.9 1.5-9.8 1.2-14.9-.5-8.6-1.2-17.2-1.3-25.8-.1-9.9.9-10.3 10.8-11.1 16.9-1.4 33.8-2.8 51-1.1zm335.4 1126c-.1-2.4-.2-4.7-.3-7.1 1.1-6-3.3-9-7-12.1-21.1-17.6-45.2-28.8-72.2-33.6-9.1-1.6-17.8-5.4-27.3-5.5-21.6-.3-43.1.5-64 7.4-5.3 1.8-11.5 4.9-16.2 3.6-5-1.4-9.4-6.9-12.9-11.5-10.8-13.8-24.7-18.6-42-18.2-24.2.5-47.6 17.5-50.1 43.3-1.1 11.5-3.3 22.9-4.6 34.4-1.2 11.1-.7 22.3 2.8 32.4 9.5 27.3 27.7 45.6 57.5 50.2 3.5.5 6.8 2.3 10.7 1.3 14.1-3.5 26.3-9 35.4-21.7 12.3-17.1 19.9-35.1 18.8-56.3-.5-8.8-.4-8.8 8.1-11.7 1.6-.5 3.2-1 4.8-1.3 19.2-3.3 38.5-3.4 57.5.3 16.4 3.2 30.9 10.1 38.8 26.6 2.2 4.7 5.4 9.4 10 12.3 18.7 11.7 38 8.1 50.4-9.9 5-7.3 7.4-14.8 1.8-22.9zM396 614.8c0 28.6 2.2 57.1 4 85.6 1.3 20.5 2.3 41.1 6.9 61.3 2.2 9.8 3.4 11.1 13.3 10.8 23.9-.6 47.7-1.6 71.6-2.4 14.9-.5 30-1.5 44.8-1.2 20.5.4 41-.7 61.5-.7 23.9-.1 47.7-2.3 71.6-4 23.1-1.6 46.2-3.7 69.3-5.6 25.5-2.1 50.9-4.3 76.4-6.4 9.2-.8 18.2-3.6 27.6-3.7 2.4 0 4.5-1 6.3-2.6 2.5-2.3-.1-4.2-.2-6.3-.2-4.6-.4-9.3-.5-13.9-.3-45.3-.3-90.6-.9-135.8-.3-26 1.8-51.9.1-77.9-.3-4.3-.8-8.6-.7-12.8.3-10.6 1.6-21.2 1.4-31.8-.7-29.6.2-59.2 2-88.7.3-4.9-1.7-7.4-5.5-9.4-3-1.5-6.2-2.6-9.5-2.8-15.9-.8-31.8-1.8-47.8-2-20.6-.3-41.2.2-61.8.3-17.2.1-34.4-.8-51.7.4-15.4 1.1-31-.4-46.5-.6-36.2-.5-72.3-1.5-108.5-1.9-26.3-.3-52.5 1.8-78.8 1.1-9.2-.2-18.6.1-27.8 1.8-8.2 1.5-9.5 2.4-10.9 10.4-3 17.7-2.5 35.7-3.4 53.6-.4 7.3.4 14.7-.4 22-3.3 30.1-2.6 60.4-3.6 90.6-.7 24 1.6 48.3 1.7 72.6zm-173.7 702.6c-1.1-4.1.3-8.1-1.3-12-1.5-3.7-2.8-7.4-4.1-11.2-6.5-18.6-17.7-32.4-36.2-41.1-16-7.5-41.3 1.2-48.2 14.9-6.3 12.6-11.5 25.6-10 40 .6 5.6 2.2 11.1 3.2 16.6 4.1 21.1 16.1 36.1 35.4 45 13.2 6.1 26 6.6 38.4-3 16.4-12.5 22.3-29.5 22.8-49.2z"/><path fill="#FFF" d="M2026.9 1310.9c-2.5-12 .7-22.8.9-33.6.2-12.2.2-24.5.6-36.8.6-18.5 1.8-37 2.4-55.6.8-25 3.2-50 4.9-75 .2-3 .2-6 .2-9 0-8.2-2.6-11.5-10.4-12.5-15.1-1.8-30.2-3.2-45.3-4.8-11.2-1.2-22.3-2.7-33.5-4.1-9.2-1.1-18.4-2.2-27.5-3.3-18-2.1-36-4.2-54.4-6.4 2.8-12 5-23.4 6.4-34.8 3.9-32.1 5.9-64.2-1.4-96-6.1-26.2-23.1-43-47.7-53.2-11.8-4.9-23.7-4.5-35.1-1.6-20 5.2-38.5 13.7-53.2 29.4-11 11.7-20.4 24.4-29.3 37.7-13.2 19.6-25.2 39.8-39 59-6.9 9.6-13.8 19.2-21.4 29.2-7.8-6.7-14-14.6-23.4-18.4-2.5-1-1.5-3.2-.5-5 11.8-19.9 23.2-40.1 37.3-58.7 18.7-24.6 39.6-47.2 59.8-70.5 18.8-21.6 40.2-40.3 60.7-60.1 14.7-14.3 30.4-27.5 46.1-40.6 22.1-18.5 45.3-35.4 68.4-52.6 16-11.9 33.5-21.2 50.1-32.1 27-17.8 56.1-31.4 85.2-44.9 20.7-9.5 41.6-19 63.6-25.4 1-.3 1.9-.7 2.8-1.1 26.5-11.9 54.5-18.9 82.4-26.6 15.7-4.3 31.6-7 47.4-10.3 15.5-3.2 31-6.9 46.7-8.5 16.5-1.7 32.7-5.2 49.1-6.9 25.8-2.7 51.7-3.3 77.5-3.1 20.7.1 41.6.8 62.2 4.8 12.3 2.3 24.9 3.4 37.5 4.1 13.9.8 27.6 3.2 40.9 6.9 10.2 2.9 20.8 3.7 31 6.5 33 9.1 64.7 20.9 95.4 35.9 22.9 11.2 46.7 20.6 69.4 32.5 10.9 5.7 21.4 11.8 31.5 18.9 15.8 11 32.8 19.9 48.6 30.9 20 13.8 39.4 28.1 57.8 44 19.8 17.1 40.1 33.6 59.5 51.1 20.5 18.5 39.1 39 56.1 60.7 17.8 22.7 35.9 45.4 50 70.7.2.3.4.5.5.8 9.1 18.5 23.2 34.2 30.7 53.6 10.5 27.2 22.2 54 31.8 81.6 7.9 22.9 15.4 45.9 22 69.1 5.2 18.2 7 37.1 11.7 55.3 4.2 16.2 1.4 33.2 7.5 48.9.1 22.5 5.8 44.6 5.8 67.2 0 21.5.6 43.1.1 64.6-.4 16-.3 32.1-2.9 48.1-1.5 9.1-.9 18.5-1.9 27.8-1.5 13.9-4.9 27.3-7 41-3.3 21.9-7.8 43.7-13.6 65.1-3.6 13.1-7.8 25.9-12.3 38.8-4.2 12.1-7.2 24.7-11.5 36.9-3 8.4-5.5 17.1-9 25.3-7.6 17.7-13.4 36.1-23.2 52.8-8.1 13.7-16.3 27.4-24.3 41.2-19 32.3-43.8 60.1-69 87.3-18.9 20.4-39.8 38.9-61.4 56.6-27.4 22.5-56.6 42.4-86.1 61.9-13.8 9.1-27.1 19.1-41.7 27.1-37.5 20.4-74.1 42.4-113.3 59.9-26.6 12-54.1 21.4-80.9 33-10.5 4.6-22 7.1-33.3 9.9-7.2 1.8-12.2 5.1-15.6 12.2-6.6 13.7-9.3 28.3-12.6 42.8-4.8 21.3-9.4 42.7-13.3 64.2-2.3 13-3.2 26.3-4.4 39.4-2.6 26.7-2.8 53.4-1.7 80.1.8 18.1 4.3 36.1 6.3 54.1 2.6 23.5 8.8 46.1 14.4 68.9 3.8 15.4 2 18.5-12.2 24.9-13.9 6.3-28.5 10.5-43.6 12.9-23.5 3.7-46.6 9.9-70.6 10.7-18.8.6-37.6 3-56.5 2.7-14.9-.2-29.7 2-44.7 1.1-34.4-2-68.8-3.7-103.1-6.2-10.8-.8-21.5-3.6-32.3-5.5-2.4-.4-4.3-1.4-6-3.1-11-11.3-20.4-23.6-24.6-39.2-1.7-6.6-5.9-8.4-12.2-5.3-1.6.8-3 1.1-4.6 1.3-30.2 2.8-60.4 3.6-90.7 2.1-18.5-.9-37.1-1.5-55.5-3.9-24.9-3.2-49.9-6.2-74.2-13.1-3.6-1-4.4-2.6-5.7-5.4-8.4-18.1-11.9-37.3-12.1-56.9-.2-12.1 2.2-24.4 3.7-36.5 2-16.2 5.8-31.8 13.1-46.6 4.2-8.6 9.9-15.8 16.9-21.9 10-8.8 21.9-7.9 34-6 13 2 22.8 10.2 33.4 17 13.1 8.4 25.7 17.6 38.4 26.7 6 4.3 13.1 7.6 21.3 6.7 8.3-.9 11.1-4.3 9.3-12.2-3.3-14.9-12.8-26.4-22.8-36.8-17.3-18-30.2-38.4-41.3-60.6-12.1-24-17-49.1-19.1-75.5-1.3-16.3-1.6-32.4.2-48.5.1-1 .1-2 .3-3 1.9-10 .7-12.1-8.8-14.7-24.4-6.7-47-17.4-68.3-31.1-3.9-2.5-8-4.5-12.2-6.5-24.2-11.7-46.3-26.7-67.7-42.8-22-16.6-43.5-33.6-63.4-52.7-8.4-8-18.5-14.1-26.5-22.7-6.3-6.8-12.9-13.2-19.5-19.7-12-11.8-24.5-23.2-34.6-36.6-12.6-16.6-24.6-33.6-35.2-51.6-3.7-6.3-7.6-12.5-11.5-18.6-15.4-23.7-28.1-48.7-39.4-74.6-7.6-17.3-16-34.1-21.9-52.1-4.6-14.2-9.8-28.1-11.4-43.1-.5-4.9-2.4-9.6-3.4-14.5-.6-3.2-1.4-6.2.1-9.7 1.3-3 2.7-4.6 5.8-3.9 13.8 2.9 27.9.4 41.8 1.8 23.8 2.4 47.7 3.5 71.6 4.1 8.7.2 17.3-.6 25.9-.4 16.6.4 33.1 2 49.7 2.3 13.6.2 27-2.8 40.4-4.7 17-2.4 34-4.6 51.1-6.9 2-.3 3.1.8 3.7 2.5 1.4 3.7 2.8 7.4 4.2 11.2 3.3 9.1 7.5 17.6 13.8 25.2 3.2 3.9 6.6 5.2 11.2 3.9 12.2-3.3 25-2.4 37.3-5 3.5-.7 6.5.9 8.4 4.1 3.6 6 7.6 11.8 10.7 18 8.9 18 21.1 33.7 33.5 49.4 1.8 2.2 3.6 3.8 6.6 3.8 13.3-.1 25.7 5 38.7 7.1 5.2.8 10.5 1.4 15.7 2.3 19.1 3.6 38.3 7.2 57.9 6.7 4.6-.1 9.2 1.2 13.7 1.9 24.1 3.5 48.4 2.1 72.6 2.5 8.6.1 17.2-.6 25.8-.4 24.6.7 49-1.9 73.5-3.4 28.3-1.7 55.7-7.7 82.8-15.4 9.6-2.7 19.4-4 29.1-6.5 40.7-10.4 81.2-21.8 120.3-37.2 29.6-11.6 59.1-23.8 86.4-40.6 8.2-5 16.6-9.6 24.9-14.6 14-8.4 26.8-18.5 39.2-28.8 14.3-11.8 29.3-23 41.7-37 6.4-7.2 12.6-14.6 19.4-21.5 10.6-10.7 17.4-24.2 25.6-36.7 2.2-3.3-1.4-10.6-5.4-11.6-2-.5-3 .5-3.9 2.2-15.6 31.4-42.9 52.7-66.8 76.8-12.4 12.4-26.2 23.2-40.1 34-29.3 22.8-62.4 38.5-95.5 54.5-19.4 9.4-39.5 17.1-60 23.5-11.9 3.8-24 7.4-36.3 10.2-7.5 1.7-14.3 5.2-21.6 7.4-29.2 8.8-58.5 17.2-88.5 22.4-27.1 4.7-54.2 9-81.7 11-29.2 2.1-58.4 2-87.6 1.4-20.5-.4-40.9-3-61.3-5.1-4.3-.4-8.6-.6-12.9-.8-31.8-1.5-62.8-8.3-94.1-13.6-6.6-1.1-10.7-4.4-13.8-9.8-9.4-16.1-18.7-32.1-25.5-49.5-2.4-6.2-7.4-10.9-8.9-17.6-.4-2-3.3-4.3-5.5-3.5-8.9 3.3-17.9 0-27 1.4-9 1.5-18.3 2.5-27.5 3.8-4 .6-6.6-.4-8.2-3.8-3.4-7.2-6.2-14.6-7.7-22.6-.5-3 .4-3.9 3.4-4.5 16.7-3.4 33.3-7.5 49.5-13.2 11.2-4 22.6-7.5 33.7-11.9 25.6-10.4 50-22.9 71.1-41.1 2-1.7 3.9-3.6 5.8-5.5 8.9-9 8.7-9.3 8.6-21.2-.2-18.5-.6-37.1.3-55.5 1-20.6 2.6-41.1 2.3-61.7-.1-11 1.9-21.8 1.5-32.8-.4-10.1 6.1-12.6 13.6-13.5 9.7-1.2 17.2 3.9 24.4 9.6 2.2 1.7 2 3.9.6 6.2-7.1 12-8.5 25.6-11.6 38.8-2.6 11.4-.5 19.9 9.5 26.8 14 9.8 25.3 22.4 34.3 37 8.2 13.2 14.1 27.1 13.7 43-.1 4 1.6 5.4 5.3 6.9 8.8 3.4 18.1 4.1 27.2 4.2 11.1.1 22.6-.4 33.3 1.3 14.2 2.3 27.6.7 41-1.8 13.3-2.5 26.6-4.8 39.7-8.5 18.7-5.4 37.5-10.8 56.5-15.2 16.7-3.9 32.2-10.7 48-16.8 10.8-4.2 21.3-9 31.8-14 5.7-2.7 11.1-5.9 16.2-9.6 4.5-3.3 9.1-6.6 14.7-8 5-1.3 8.4-5.3 12.2-8.5 15.7-12.8 33.3-23 48.5-36.5 17.7-15.7 35.1-31.6 50-49.9 4.6-5.6 8.1-12.1 10.4-19.2 1.8-5.8.3-8.7-4.5-10.2-2-.6-3.2-.2-4 1.5-7.9 17.1-20.7 30.5-33.5 43.9-15.9 16.6-33.9 30.7-52.1 44.6-18 13.8-38.1 23.8-58 34.3-18.8 9.9-38.4 17.9-57.8 26.3-23.5 10.2-48.4 15.2-72.7 22.6-23.5 7.1-47.6 7.9-71.6 9.9-10.3.9-20.5 1.1-30.8 1-9.9-.1-19.8-.8-29.7-1.7-8.6-.8-8.5-1.5-10.1-10-2.8-15.2-8.5-29.3-17-42.2-9.2-14.1-21.3-25.5-33.8-36.5-4-3.5-5.2-6.4-4.1-11.9 2-10.5 6.1-20.2 8.8-30.5 1.9-7.2 4.3-14.1-.1-21-5.3-8.2-12.9-13.7-22.3-15.4-7.1-1.2-14.7-3.3-22.6.7zm107.6 795.6c-.4 7.1 5 7.7 9.2 8.9 14.4 3.8 29.3 4.6 44.1 6.2 14.5 1.6 29 3.9 44.2 2.6.7 10.1 1.8 19.3 0 28.8-1.6 8.8-2.7 17.6-3.3 26.5-2.5 38.2-1.5 76.3 6.4 113.9.9 4.5 0 6.3-4.6 6.1-8.4-.2-16.8 1.2-24.2 4.8-21.4 10.6-42.5 21.7-59.3 39.3-13.7 14.3-18.1 31.8-18.2 50.9 0 2.9.9 5.9 1.8 8.7.7 2.2 2 4.9 4.6 4.6 3.2-.4 3.9-3.4 3.5-6.1-1.3-8.5 1.2-16.6 3.9-24.3 3.1-9 6.7-18.2 13.2-25.4 5.3-5.8 12-10.5 17.8-15.9 16.9-15.6 38-20.5 59.7-23.7 3.7-.6 7.2.8 10.7 1.7 17.4 4.5 34 10.9 49.3 20.4.3.2.6.4.9.5 3.4 1.6 4.8-1.3 6.5-3.1 2.2-2.3 1.2-4.6-1.1-5.8-6.7-3.7-8.7-10.4-11.7-16.6-5.2-10.8-8.4-22.2-12.7-33.3-9.1-23.6-14.4-48.2-18.4-73-3.9-24.1-6.1-48.6-7.9-73-.3-3.6 0-7.2.3-10.8 1.5-19.2 4-21.7-19.4-23.6-7.9-.7-15.9-.1-23.9-.1-14.9-.1-29.7-2.7-44.5-3.3-23.6-.9-46.6-5.5-70-7.9-15.8-1.7-31.3-4.8-46.9-8.1-2.2-.5-4.7-.2-7 .1-1.3.1-2.4 1.3-2.4 2.7 0 .9.7 1.9 1.3 2.6 1.2 1.4 2.9 1.1 4.5 1.4 14.3 2.8 28.4 6.4 42.9 8 22.3 2.4 44.1 8.2 66.7 9.5 26.1 1.4 51.9 6.3 78.1 5.6 2-.1 4.5-.5 4.6 2.2 0 2.9-2.5 3-5 3.4-5.5 1-10.4-1.7-15.8-1.6-17 .4-33.8-1.3-50.7-2.1-8.9-.6-18-2.9-27.2-1.7zm181.9-1512.7c-11-.9-29.4 2.2-47.9 3.5-19.6 1.4-38.5 6-57.6 10.1-14.6 3.1-27.9 10.1-42.2 14.1-24.4 6.9-45 20.6-65.4 35-1.1.7-2 1.8-2.8 2.8-.9 1.2-.8 2.4.2 3.6.8.9 1.8 1 2.7.6 3.3-1.5 6.7-3 9.8-4.8 28.7-16.7 59.3-28.9 91.2-38.1 17.5-5 35.4-8.4 53.4-10.7 20.7-2.6 41.7-2.2 62.6-2.2 6.6 0 13.1-2.3 19.8-1.4 12.1 1.7 24.3 2.9 36.5 4 19.6 1.9 37.8 8.7 55.4 17 16.7 7.8 34 14.5 47.3 28.2 3.2 3.3 10.2 4 11.9 2.1 1.9-2.1.5-7.6-3.3-11.4-21.5-21.4-47.5-34.9-76.4-42.6-28.6-7.5-58-9.7-95.2-9.8zm-179.5 237.9c1.2-6.6-1.2-11-7.4-13.5-1.4-.6-2.6-2-3.7-3.2-15.8-16.4-18.6-35.8-12.3-57 4.5-15.2 14.6-26.4 27.3-35.6 3.5-2.5 3.4-5.1-.1-7.3-2.5-1.6-5.2-1.3-7.6-.2-3 1.4-6 3-8.4 5.2-16.7 15-27 33-27 56.3 0 24 11.9 40.5 30.4 53.7 2.7 2 5.6 3.2 8.8 1.6zm153-68.7c1.3-8.6-1.1-16.7-4-24.4-4.4-11.5-11-11.2-19-6.1-5.2 3.3-8.8 8.1-11.9 13.2-15.4 25-13 45.1-.5 66.3 4.7 7.9 10.1 8.2 16.7 1.7 14.2-14 17.8-31.8 18.7-50.7zm-88 168.6c19.9-1.3 37.2-5.9 54.6-9.3 4.7-.9 8.7-2.8 12.5-5.7 1.6-1.2 4-1.6 3.1-4.2-1-2.9-3.6-2.6-5.8-1.8-12.3 4.5-25.3 4.8-38.1 6.6-23.1 3.1-46.1 5.1-68.7-3.2-.9-.3-2-.4-2.9-.3-1.4.1-2.4.5-2.7 2.3-.6 4.8 2 8.9 6.8 10.4 14.2 4.4 28.9 3.3 41.2 5.2zm-133.7-191.2c.2 3.4.1 6.7 1.7 9.8 2.2 4.3 4.6 8.9 9.7 9 4.3.1 7.8-3.4 10.1-7.3 7.3-12.5 11-26.2 11.8-40.5.3-4.3-2.4-8.5-6.4-10.6-4.1-2.2-6.9 1.3-9.4 3.8-10.1 9.9-15.6 22-17.5 35.8z"/><path fill="#CCC8C2" d="M430 2225.7c21.4 0 39.6.2 57.7-.1 9-.1 17.9-.9 26.8-2 9-1.1 17.8 1.5 26.7.7 14.2-1.2 28.4-2.7 42.6-3.8 6.6-.5 13.3.1 20-.4 27.1-2.3 54.3-3.1 81.4-4.7 29.1-1.7 58.2-2.4 87.3-4.7 14.9-1.2 29.9-.4 44.9-1.1 18.9-.8 37.7-2.3 56.6-3.2 21.6-1.1 43.2-1.1 64.7-2.9 18.5-1.5 37.1-.8 55.5-2 24.6-1.7 49.2-1.9 73.8-1.6 6 .1 11.7-1.9 17.6-2.5 18.5-2 37.1-1.9 55.5-3.7 21.1-2.1 42.4-1.9 63.4-4.9 12.8-1.8 25.8-2 38.7-3 18.8-1.6 37.6-3.3 56.4-4.9 12.6-1.1 25.2-1.9 37.7-3.1 18.8-1.9 37.7-2.4 56.4-5.2 13.5-2 15.7.2 16.7 14.2 1.1 14.8 2.6 29.6 3.5 44.4.6 9.3.4 18.6.4 27.9.1 14 0 27.9 1.2 41.9.8 9.1-1.1 11.1-9.7 11.2-14.7.2-28.8 4.3-43.3 5.4-28.7 2.2-57.2 7.4-86.2 7-15.5-.2-31.1 1.8-46.5 4-7.3 1.1-14.6 1-21.8 1.4-23.8 1.3-47.6 3.4-71.5 4.6-26.4 1.2-52.8 4.2-79.2 6.4-4.6.4-9.3.9-13.9.6-21-1.5-41.8 2.8-62.7 3-10.2.1-20.4 2.6-30.6 3.5-24.1 2.1-48.3 3.5-72.4 5.8-30.4 2.9-61 2.6-91.4 5-32.5 2.5-65 2.1-97.5 3.7-16.8.8-33.8 1.5-50.4 4.8-4.2.8-8.6.5-12.9.5-15.6 0-31 3.1-46.5 4-17.9 1-35.8 1.5-53.7 2.9-17.5 1.3-34.9 3.2-52.3 4.8-2.6.2-5.3.1-8 .3-24.5 1.5-49.1 2.2-73.4 5-22.7 2.6-45.5 3.3-68.2 5-12.9 1-24.9-3.3-36.9-6.8-27.1-7.8-53.8-16.9-80.3-26.5-22.7-8.3-44.6-18.6-66.7-28.3-27.3-12-54.3-24.7-82.4-35.1-8.1-3-15.5-7.8-23.5-10.9-7.3-2.9-9-8.5-8.4-15 2.1-23.5 1.5-47 .8-70.5-.3-10.3 1-20.5 1.6-30.8 1.3-24.5 2.2-49.1 2-73.6-.2-23.5-1.2-46.9-1.1-70.4.1-12.9-1.3-13.9 13.1-9.7 17.2 5 34.6 9.1 51.5 15.2 11.7 4.2 24.4 5.9 36.6 8.9 5.8 1.4 11.4 3.3 17.1 5.1 9.6 2.9 10.5 3.6 10.7 13.8.7 27.2 1.5 54.3.1 81.5-.6 11.9 1.1 23.9-1 35.8-.8 4.6 3 6.6 6.2 8.1 4.7 2.3 9.7 4.3 14.8 5.8 22.6 6.6 44.4 15.5 66.2 24.4 17.2 7.1 34.6 13.4 52.3 19.2 9.7 3.2 8.2 1.1 8.2 11.8.1 22.2-1.4 44.4-.7 66.6.5 16.3 2.7 32.4 2.1 48.8-.2 6.6-2 13-1 19.6.2 1.3.1 2.6.4 3.9.5 1.6 1.2 3.2 3.2 3.2 2.7.1 3.4-1.9 3.4-3.9 0-15.3 1.7-30.6.1-45.8-2.6-24.2-2.4-48.3-2-72.5.1-7.6 0-15.2-.1-22.9-.1-6.7.3-6.9 7-7.1 4.3-.2 8.6-.7 12.8-1.3 19.2-2.5 38.5-1.3 57.7-2.9 15.6-1.5 30.8-1.2 42.8-1.9z"/><path fill="#CCC8C2" d="M1291.9 1994c1.2 20 1.8 40.2 2.1 60.4.2 15.3-1.1 30.6-1.8 45.8-.5 11.2.3 8.7-10.2 11.1-8.8 1.9-17.9 1.2-26.8 1.9-25.7 2.2-51.5 3.6-77.3 5-11.6.6-23.1 1.9-34.7 3.3-8.2 1-16.6.2-24.7 1.4-22.6 3.4-45.4 4-68.1 6.3-20 2.1-40.4 1.5-60.5 2.4-23.4 1.1-46.8 2.5-70.2 3.7-6.6.3-13.3.3-20 .5-22.2.7-44.5.8-66.6 2.5-30.1 2.3-60.3 2-90.4 4.7-22.6 2.1-45.5 3.1-68.3 3.8-14.4.4-29 .8-43.4 2.7-5.6.7-11.1-.4-16.7-.2-25.2.7-50.3 3.9-75.5 5.5-19.4 1.2-38.9 2.8-58.4 4.5-15.1 1.3-30.4 1.1-45.6 1.4-13.9.3-27.8 1.2-41.8 1.7-20.8.6-41.6 1.5-62.4 1.9-24.5.4-49.1-.6-73.6.6-29.2 1.4-58.5-.4-87.5 4-4.6.7-5.2-1.3-5.2-4.6 0-11.9.2-23.9.1-35.8-.1-25.9 1-51.8-1.8-77.7-.3-3-1.3-7.3 4.5-6.3 8.2-8.5 19-5.2 28.8-6.5 19.8-2.6 39.8-.7 59.7-2 10.6-.7 21.2.1 31.6-.6 17.9-1.1 35.8-1 53.7-2.1 13.9-.9 27.8-.9 41.6-1.5 15.8-.7 31.7-1 47.4-2.2 15-1.2 30-.2 44.9-1.7 26.3-2.6 52.6-.8 78.8-2.3 19.2-1.1 38.5-1.1 57.7-3.1 11.6-1.2 23.2.2 34.8-.4 33.8-1.6 67.6-3.8 101.6-4.6 26-.6 52.1-2.6 78.2-3.3 6.3-.2 12.6-1.3 18.7 1.5 1.1.5 2.7.5 3.9.2 11.5-2.8 23.1-1.4 34.7-1.6 12-.1 23.5-4 35.5-4.1 23.9-.3 47.5-3.9 71.4-5.3 10.3-.6 20.7-.2 30.9-1 37.8-3 75.6-3.3 113.4-6 41.1-2.9 82.3-4.2 123.5-4.3 11.2-.3 22.4-1.6 34 .4z"/><path fill="#F38ED3" d="M1229.4 1079.8c15.6.1 30.9.3 46.1 0 17.6-.3 35.3.2 52.9.6 26.7.6 53.4 1.3 80.2 1.9 6.9.2 13.7 2.2 20.7 0 5.1-1.6 7 1.6 7.5 6.5 1.4 13.9 1.5 27.8.9 41.7-.6 13.2-.8 26.3-.4 39.6.9 31.3.9 62.6.3 93.9-.2 12.6.9 25.1.8 37.6-.1 20.3-.5 40.6-1.1 60.8-.4 15.4-1.1 30.9-.9 46.3.2 19.5-.8 39.1-.6 58.6.2 14.8-1.6 29.5-.6 44.5 1.1 17.6.7 35.6-1.3 53.4-.5 4-1.9 5.1-5.5 5-9.3-.3-18.8.5-27.9-.9-15.9-2.5-31.8-.7-47.7-1.6-25.5-1.4-51-2.4-76.5-2.6-10.8-.1-21.6-1-32.5-.8-7.8.1-7.8-.3-7.9-7.8-.1-4.1.8-7.7 3.4-11.1 7.6-9.7 13.2-20.7 19.6-31.2 4.8-7.9 4.3-16-1.9-22.8-6.3-6.8-12.4-14-21.2-17.9-4.8-2.1-6.4-5.7-5.9-11.2 1.8-20.6 1.9-41.3 1-62.1-.4-8.8.4-17.7.8-26.5.5-12.9 1.2-25.9.8-38.8-.5-16.6 2-33 1.1-49.6-1.1-17.9-.6-35.8-1-53.7-.1-4.7-.4-9.3 1-13.8 1.7-5.7-.9-11.2-.9-16.8-.1-21.9-.2-43.9-.7-65.8-.6-18-1.7-36.1-2.6-55.4zM1550.2 1075.9c3.6 3.5 8.2 3.5 12.1 1.7 9.7-4.5 19.6-3.6 29.3-1.4 13.2 3.1 26.3 6.9 38.1 14.2 11.6 7.2 15.6 15.9 13.7 29.4-1.8 13.1-4.8 26.1-6.3 39.2-1.1 10.2-1.1 20.8.7 31.3 1.9 11.1 3.3 22.2 5.7 33.3 2.5 11.1 8.3 20.2 14.1 29.4 1.9 3.1 4.3 3.6 7.5 1.6 2-1.2 3.9-2.5 5.7-3.9 13.4-10.6 28.3-18.4 45-22.6 7.4-1.8 14.7-4 22-6 3.7-1 4.8-3.4 3.5-6.8-.8-2.2-2-4.2-3-6.3-5.1-10.3-7.4-21.2-7.8-32.6-.7-19 1.5-37.7 3.2-56.6 1.1-12 .3-23.9-6.6-34.6-1.4-2.1-3.2-4.3-3.2-7.9 7.9-1.9 16.2-.5 24.2-1.3 3.3-.3 5.2 1.9 5.4 5.7 1.1 19.2.9 38.5.7 57.7-.1 7.7-.5 15.3-.5 22.9-.1 17.9.5 35.9-.2 53.8-.9 21.9-.9 43.8-3.1 65.6-.7 7.6-.1 15.3-.9 22.9-1.7 16.1-.5 32.3-.9 48.5-.6 23.8 1.9 47.6.9 71.4-1.5 35.5-1.4 71-2.1 106.5-.2 11.2-3.3 22.3-3.3 33.6 0 2.7-.3 5.3-.3 8 0 8.4-.3 8.9-9.1 8.9-19.6.1-39-1.2-58.5-2.8-12.7-1-25.7-.1-38.5-1.1-20.4-1.7-41-.9-61.3-3.8-9.2-1.3-18.5.4-27.8-1.4-4.6-.9-6.4-2.4-6.1-6.9.3-5.3-.5-10.7 2.1-15.6 2.8-5.4.8-11.2 1-16.6.6-17.9.8-35.8-.2-53.7-1-17.8-.7-35.7-2.2-53.5-.8-9 .5-18.5.6-27.8.2-35.8-.1-71.6.9-107.4.5-17.7.8-35.4.7-53.1-.1-48.1 1.9-96.1.6-144.2-.2-6 .6-11.9 2.3-17.7h1.9z"/><path fill="#AFA89E" d="M1398 2165.4c-17.8.9-33.7 3.9-50 4.5-19.8.7-39.5 4.3-59.2 5.4-20.6 1.1-40.9 4.5-61.6 5.1-16.2.5-32.5 2-48.6 4.1-14.6 1.9-29.2.6-43.8 1.8-17.5 1.5-35.1 1.9-52.5 4.5-16.7 2.4-33.7 1.2-50.6 1.7-25.9.8-51.8 2.3-77.7 3.4-23.2 1-46.5 2-69.7 2.5-8.3.2-16.5 1.2-24.7 1.9-35.8 3.2-71.7 3.2-107.7 3.6-17.5.2-35.1 2.6-52.6 3.7-10.3.6-20.6.4-30.9.7-26.8.8-53.6 2.2-80.4 4-23.8 1.6-47.6 3.2-71.5 4.2-21.5.8-43 2.8-64.5 3.1-21.6.3-43.3 0-64.9.2-16.9.2-33.8.3-50.7 1.7-15.1 1.3-30 .8-44.9-5.3-17.1-7-35.5-10.6-53.2-16.2-19.9-6.4-39.6-13.5-59.3-20.4-.4-.1-.6-1-1.1-2.1 7.6-2.8 15.6-2.9 23.1-2.9 25.3-.1 50.5-.9 75.8-.7 18.9.1 37.8 1.1 56.7-1.2 11.2-1.4 22.6.3 33.9-.9 26.5-2.7 53.2-2 79.8-2 21.3.1 42.3-3.8 63.5-5 21.9-1.2 43.5-4.9 65.5-5.3 21.5-.4 43-1.9 64.5-3.4 30.5-2.2 60.9-3.1 91.4-3.9 24.9-.6 49.7-3 74.4-5.4 16.8-1.6 34-.1 50.8-1.7 24.8-2.4 49.7-1.4 74.5-1.9 28.9-.5 57.5-4 86.2-5.2 19.6-.8 39.2-1.8 58.8-2.4 20.5-.7 41.2-1.3 61.5-4.2 28.6-4 57.4-5 86.1-7.2 19.8-1.5 39.5-3.5 59.4-3.7 2.7 0 5.4-.7 7.9.7 15.2 8.4 32.5 11.3 48.4 18.1 18 7.8 36.1 15.3 54.1 22.9 1 .5 1.6 1.3 3.8 3.2z"/><path fill="#F38ED3" d="M1753.9 1555.2c.3-28.2 2.2-56.3 3-84.5.6-22.6-1.6-45-.5-67.6.6-13.3 2.5-26.5 1.8-39.8-.1-1 .4-2 .3-3-1.7-25.1-.5-50.3-.3-75.4.2-18.7.9-37.5 3.3-56.1 1.2-9.5-.9-19-.7-28.5.1-7 1.2-13.8 1.3-20.8.3-18.6.6-37.1 1.1-55.7.3-10 2.6-20.4-.4-30.5-.7-2.3.7-4.5 1-6.8 1.2-12.8 1.2-13.2 14-12.1 18.2 1.5 36.3 3.7 54.5 5.5 14.2 1.4 28.4 2.7 42.6 3.7 4.2.3 5.9 2 5.7 6.2-1.1 20.5 3.9 41 .1 61.6 2.9 12.4 1.4 25 .7 37.3-1.8 28.5 0 57.1-2.5 85.6-1.8 20.4-.6 41-1.1 61.4-.2 8.9-1.7 17.9-1.8 26.8-.3 18.9.1 37.8-.2 56.8-.4 30.8-3.9 61.4-3.8 92.2.1 14-1.9 27.8-1.9 41.8 0 5.3-2.6 6.9-6.7 8.1-11.5 3.3-23.4 4.3-35.1 6.2-22.2 3.5-44.5 6.7-66.8 10-6.8 1-7.5.6-7.4-6.4 0-5.4-1.6-10.7-.2-16z"/><path fill="#D346A7" d="M1443.9 1540.5c1.4-28.9 2.1-57.1 2.1-85.4 0-57.9.4-115.9.5-173.8.1-29.6.8-59.2-.1-88.8-.6-18.9.5-37.8-1-56.8-.9-12.2.2-24.5.8-36.8.3-5-.3-10-.3-15 0-9.3 1.7-11.4 10.7-11.6 10.5-.3 20.9-2.4 31.5-1 14.2 1.9 28.5.2 42.8 2 4.8.6 7 1.4 6.9 6.9-.2 24.5.5 49 .3 73.5-.2 21.1.5 42.3-1.5 63.3-1.1 11.6 2.1 23.1 1.1 34.8-2.9 37.2-.8 74.5-1.4 111.8-.4 24.6-.6 49.2-.6 73.8-.1 29.6.4 59.2-.2 88.7-.3 14.3-1.4 28.5-1.1 42.8.1 3.9-1.6 5.6-5.3 5.1-12.9-1.6-25.9-.8-38.8-1.1-12.6-.3-25.1-1.4-37.6-1.3-9.2.1-9-.2-8.8-9 .2-7.4 0-15.1 0-22.1z"/><path fill="#AEA79D" d="M1274.1 1984.1c-26.8.7-53.6.4-80.3 2.5-17.5 1.4-35.2.3-52.7 3.1-22 3.4-44.2 1.3-66.3 2.8-27.2 1.9-54.5.8-81.5 4.1-16.2 2-32.5.1-48.6 2.1-15.8 2-31.7 3.1-47.5 4.1-4.6.3-9.3 1.1-13.9 1.2-19.3.2-38.4 2.7-57.6 3.5-16.5.7-33.2-.3-49.6 1-20.6 1.7-41.2 1-61.8 1.3-21.9.3-43.8 1.9-65.7 3.5-23.8 1.7-47.7 3-71.6 3.6-27.6.6-55.3.5-82.8 1.9-23.9 1.2-47.8-.5-71.7 1.9-32.1 3.2-64.3 3.4-96.5 3.8-26.8.4-53.7 1-80.5 1.6-9.6.2-19.2 1.1-28.6 2.1-22.2 2.3-44.5 1.9-66.7 2.1-9.6.1-18.8-2.3-28.1-5.2-20.2-6.4-40.8-11.7-61.2-17.5-2.1-.6-4.7-.3-5.9-3.3 14.9-.7 29.7-2.8 44.4-1 4.2.5 7.9-.3 11.8-.8 11.9-1.4 23.8-2.4 35.7-2.5 33.9-.4 67.6-2.8 101.3-5.5 19.2-1.5 38.5-1.6 57.7-2.6 18.2-.9 36.4-2.9 54.6-3 17.7-.2 35.1-2.5 52.7-3.1 35.8-1.1 71.7-1.7 107.4-5.1 9.2-.9 18.6-.4 27.9-.8 19.8-.8 39.6-2 59.4-2.5 22.6-.6 45.1-2.3 67.6-3.5 15.8-.9 31.8-.1 47.4-3.7 1-.2 2-.2 3-.2 21.7 1.2 43.2-1.2 64.8-2.3 17.2-.9 34.5-.9 51.7-2.7 2.3-.2 4.7-.3 7-.2 35.6.9 71.2-1.7 106.7-3.1 24.9-1 49.8-1.5 74.7-2 18.3-.3 36.5-1.7 54.7-2.1 19.5-.4 39.2-.8 58.7-3.1 28.4-3.3 55.3 1.3 81.7 11.8 13.5 5.4 27.7 9.1 41.6 13.5 2.2.7 4.5 1.3 6.3 2.8.2.3.2.9.3 1.5z"/><path fill="#D346A7" d="M1956.2 1531.9c-13.9 7.2-29.1 11-44 15.3-8.9 2.6-17.6 5.7-26.6 8.1-1.6.4-3.2.9-5.3.1-1.3-9.7-.7-19.7.3-29.5 1.8-17.2 2.2-34.4 2.8-51.6 1.6-42.9 2.4-85.8 3.3-128.6l.9-49.2c.7-29.5-.3-59.1 1.1-88.5.9-19.9.5-39.8 2.6-59.7 1.3-11.9-.7-23.7-.8-35.5 0-6.7-.4-13.3 0-20 .3-5.6 2-6.8 7.6-6.2 17.5 1.9 34.9 4.1 52.4 5.8 4.3.4 5.3 2 5.9 6 1.6 12.9 2.2 25.8.4 38.7-.7 5 .6 9.8.6 14.8.2 25.2-1.3 50.4-3.2 75.6-.4 6 1.2 11.7 1 17.8-.9 29.1-.5 58.3-1.8 87.3-1.2 24.6-1.2 49.2-1.9 73.8-.4 12.9.5 25.8.1 38.7-.5 20.5-.9 41-1.4 61.5-.1 5.7-3.4 11.4.9 17.2 2.1 2.9 4 2.8 6.6 2.3-.3 1.8-.9 3.8-1.5 5.8z"/><path fill="#FCFCFC" d="M1187.6 1390.4c12.2.6 21.6 4.8 31.4 7.4 2.8.8 3.6 2.7 3.4 5.3-.8 16.2.7 32.5-1.4 48.6-.5 3.9-.7 7.8-1 11.8-3.6 1.2-6.8-.1-9.9-.5-2.5-.4-5-.3-5.9 2.3-1.1 3.3 1.8 5.3 4.2 5.7 4 .8 7.5 2.4 11.3 3.6 10.8 3.4 19.1 10.4 26.8 18.3 3.1 3.2 3.8 6.5 2.6 10.9-4.1 14.7-12.5 27-21.3 39-5.9 8.1-12.6 15.4-19.6 22.5-3.2 3.3-8.4 8-5.5 11.5 3.9 4.9 7.7-2.1 11.7-3.7 5-2 7.2-7.8 13-9.9 1.1 7 5.4 8.1 11.8 8.7 28.1 2.6 56.4 2.7 84.5 4.7 23.3 1.6 46.5 1.4 69.7 1.8 7.5.1 7.2.4 4 7-8.5 17.5-21.1 32.1-32.8 47.3-12.8 16.6-28.5 16.9-44.8 8.2-5.3-2.8-10.8-4.8-16.4-6.7-8.4-2.8-16.3-1.1-23.1 4.4-4.7 3.8-10.1 6.5-15.5 8.9-10.8 4.7-21 5.6-32-1.2-13.6-8.4-27.6-15.7-36.8-29.7-2-3-5-6.7-5-9.3 0-7.9-4.4-7.2-10-8-15.7-2.4-29.9-8.2-40.5-21.1-4.7-5.8-7.1-11.3-7.8-19.3-1.7-21.4 5.8-39.8 16-57.1 7.3-12.4 17.8-22.9 30-31.3 2.6-1.8 4.8-2.8 8.2-2.3 7.1 1 9.2-.6 9.3-7.7.2-11 .6-22.1-.8-32.9-1.4-12-2.2-24.3-7.8-37.2z"/><path fill="#F38ED3" d="M1956.2 1531.9c.6-2 1.2-3.9 1.7-5.9 5-12.3 4.4-25.4 4.5-38.3.3-33.9-.2-67.8.2-101.7.3-35 1.2-70.1 1.9-105.1.4-21.6 0-43.2.6-64.8.6-19.8 1-39.7 1.7-59.6.7-17.6 1.4-35.1 1.5-52.7 0-8.3.5-8.4 9.3-8.2 13.3.3 26.3 3.1 39.5 4.6 3.4.4 4.3 2.1 4.8 5.1.8 4.7-.3 9.3-.2 13.9 1 27.6-1.9 55.1-2.3 82.7-.4 24.8-3.1 49.5-3.5 74.3 0 2.7.1 5.3.2 8 .7 21.8.5 43.6-1.4 65.5-1.4 16-2.3 32.2-1 48.4 1.2 14.9-.7 29.9-2.4 44.7-1 9.3-1.5 18.5-1 27.8.4 7.6-.7 15-1.3 22.5-.3 3.9-3.8 6.2-6.5 8.5-13.9 12.5-29 23.1-46.3 30.3z"/><path fill="#D346A7" d="M1657.2 1042.6c5-6 9.8-10.7 13.3-16.2 8-12.5 15.7-25.3 22.8-38.3 16.9-31.4 37.1-59.9 67.6-79.7 10.6-6.9 22.2-11.9 34.2-15.9 5.3-1.8 10.8-2.2 16.5-.6 16.6 4.8 29.4 13.2 38.2 29.1 10.8 19.6 12.9 40.2 12.5 61.6-.4 18.6-.8 37.2-2.6 55.7-.8 7.9-2 15.8-3.4 23.6-1.2 6.3-2.5 7-8.6 6.7-14.9-.8-29.8-1.3-44.7-2.5-7.6-.6-15.1-2.2-22.7-2.8-5.4-.4-5.6-2-4.2-8 3.3-14.2 7.8-28.1 6.1-43.1-.7-6.2-2.7-11.6-6.2-16.5-6-8.2-14.3-9.8-22.6-4.2-3.5 2.4-6.8 5.4-9.8 8.5-15.1 15.9-31.5 30.5-48.9 44-5.6 4.3-10.8 6.7-18.1 3.7-5.6-2.4-12-3.3-19.4-5.1zM1550.2 1075.9l-.9.2h-.9c.1-7.4-5.2-10-10.9-12.5-6.1-2.7-12.4-1.6-18.7-1.9-4.2-.2-8.7 1.2-12.6-2.3.7-4.3 2.4-8 5.4-11.4 12-13.6 26.5-22 44.5-26.3 28.1-6.7 51 2.8 73.1 18.4-1.1 3-3.5 2.1-5 2.7-3.1 1.2-5.4 2.7-4.4 6.5.8 3.4 3.1 4.9 6.5 5.1.7 0 1.5.2 2-.1 6.7-3.7 13.6-1.5 20.4-.4 20 3.4 39.5 8.1 56.8 19.8 10.5 7.1 15.5 16.8 18.5 28.4 2.6 10 .2 19.7-.7 29.5-2.2 24.6-3.5 49.1 3.7 73.2 2.3 7.6 1.9 8.1-6 9.6-18.5 3.5-35.9 9.4-50.9 21.4-2.5 2-5.7 3.3-8.9 5.1-8.1-16-12.9-32.4-13.3-49.9-.3-11.3.1-22.6.1-33.9 0-11.8 3.7-22.9 6.8-34 1.1-3.8 2.5-7.6 3-11.5 2.6-19.7-5.7-33.1-26.2-40.3-16.9-5.9-34.3-10.3-52.6-6.9-8.8 1.6-16.8 5.8-25.6 7.2-1.9.1-3.2 1.9-3.2 4.3zM1423.5 1071.7c-8.9 0-17.5-.4-26.1.1-5.5.3-9.8-1.4-13.5-4.9-6.9-6.7-13.8-13.5-20.5-20.5-5.3-5.6-6-13.3-6.9-20.4-3.5-29 3.7-54.9 21.2-78.6 12.3-16.7 28.6-28.1 44.6-40.2 5.3-4 11.7-6.1 18.2-7.7 4.6-1.1 9.3-1.4 12.9-6.2 3.2-4.3 14-3.1 19.4.8 4.9 3.5 8.6 8.1 11.2 13.7 8.1 17.1 14.9 34.8 24.8 51 9.7 15.8 19.5 31.7 31.4 46 1.1 1.3 2 2.6 3 4 1.9 2.8 1.2 5.2-1.8 6.5-12.7 5.4-23.7 13.3-33.9 22.4-4.5 4-6.4 3.3-10.2-2.3-8.6-12.8-14.4-26.9-19.4-41.3-3.9-11.2-8-22.4-12.2-33.6-3.6-9.6-13.6-11.6-20.6-3.8-8.4 9.5-14.6 20.6-18.6 32.6-3.9 11.6-9.6 22.5-12.6 34.5-3.9 15.5-2.3 29.5 7.5 42.4 1 1.3 2.4 2.5 2.1 5.5z"/><path fill="#FCFCFC" d="M1702.3 1057.9c16.1-13.1 31.5-25.7 45.4-40 3.5-3.6 6.4-7.7 9.8-11.2 6.1-6.2 11-4.8 13.6 3.6 1.4 4.5 1.7 9.6.4 13.8-3.6 12-5.2 24.7-11.3 35.9-1 1.8-1.3 3.1-3.7 3.6-14.4 3.4-29.1 2.2-43.6 2.2-4.4.2-7.5-3.7-10.6-7.9z"/><path fill="#888680" d="M1274.1 1984.1c-.1-.6-.1-1.2-.1-1.8 2.4-.3 4.4.5 6.1 2.3-2.1 2.1-4.1 1.7-6-.5z"/><path fill="#E8D420" d="M1316.2 907.3c.6 18.8-4.6 39-15.1 57.4-6.1 10.7-13 21.9-27.3 24.2-9.2 1.5-16.2-1.2-21.4-9-10.2-15.5-16.3-32.5-18.9-50.8-2.9-20.1-3.2-40.3.5-60.3 3.3-17.6 8.4-34.8 19.5-49.6 8.7-11.6 16.2-12.5 27.6-4 11.9 8.9 19.9 20.2 24.6 34.1 6.9 21.1 11.9 38.6 10.5 58zm-8.3-11.1c0-6.8-2.1-17.8-4.4-23.3-7.3-17.6-23.8-17.2-37.7-12-2.1.8-3.9 2.5-4.8 4.9-6.3 17.2-9.9 34.4-1.8 52.1 1 2.1 1.6 4.2 3.6 5.9 12.6 10.5 34.8 6.3 40.3-7.4 2.6-6.4 5.1-13 4.8-20.2z"/><path fill="#E8D420" d="M1246.4 814.2c-4.1 10.1-10.3 19.2-13.9 29.6-5.6 16.2-5.9 33.1-7.8 49.9-1.8 16.5 1.9 32.3 4.3 48.3.5 3.3.7 6.5.5 10.9-5.5-6.9-7-14.5-8.5-21.7-3-13.9-5.4-28-4.7-42.4 1.2-23.4 5.7-45.9 18.2-66.2 2.6-4.3 5.5-8.3 10.6-10 .4.6.8 1.1 1.3 1.6z"/><path fill="#E8D420" d="M1245.1 812.7c.9-.4 1.8-2 2.7-.2.4.8-.5 1.5-1.4 1.8-.5-.6-.9-1.1-1.3-1.6zM405.6 1129.5c.1 2.4.2 4.7.3 7.1-2.5-2-5.1-3.8-6.6 1-1.7 5.4-2.9 10.9-5 16.1-4.3 10.9-11.9 14.2-23.1 11-9.1-2.6-16-7.9-21.1-15.7-3.1-4.7-5.9-9.5-10.2-13.3-13.9-12.2-30.9-16.5-48.6-17.9-36.9-3-71.8 5.8-105.7 19.2 1.9 11.9 2.9 12.5 13.7 8.7 3.7-1.3 7.5-2.7 11.3-3.9 3.9-1.3 7.4-4.4 11.5-3.5 2.8 8.8.3 16.7-1 24.9-2.4 15-10.1 26.4-21.8 35.6-13.7 10.9-31.9 11.6-46 1.5-2.2-1.5-4.4-3-6.4-4.7-20.2-16.5-29.4-38.1-28.1-63.8.5-9.8 2.8-19.8 5.8-29.2 4.1-13.2 11.7-24 26-27.9 17-4.6 32.9-3.8 46.1 9.8 3.2 3.3 6.3 6.6 9.5 10.1-1.6 2-3.4 2.6-5.1 3.5-8.9 4.6-17.2 10.1-23.9 17.6-2 2.3-5.1 4.9-2.6 7.6 3.1 3.3 5.9 0 8.3-2.3l.7-.7c12.2-12.4 27.5-19.2 43.7-24.2 13.4-4.2 27-6 41.1-6.5 15.9-.5 31.8-.7 47.1 2.9 30.2 7.2 59 18 83.3 38.1 3.1 2.2 4.8 1 6.8-1.1zm-273.7 7.9c-1 14.2 2.7 24.9 5.3 35.8.5 2.1 2.3 4 3.9 5.6 1.1 1.2 3 1.4 4.5.3 1.3-.9 1.1-2.3.5-3.5-7.4-16-10.4-32.4-6.2-49.9 3.8-15.8 4.5-33 21-42.5 1.3-.7 1.3-2.4.7-3.6-.7-1.4-2.1-.9-3.4-.7-5 .6-8.2 3.5-11 7.5-11.5 16.3-13.8 34.9-15.3 51z"/><path fill="#100E0C" d="M396 614.8c-.1-24.3-2.5-48.5-1.6-72.8 1.1-30.2.3-60.5 3.6-90.6.8-7.2 0-14.7.4-22 .9-17.9.4-35.9 3.4-53.6 1.4-8 2.7-8.8 10.9-10.4 9.2-1.7 18.6-2 27.8-1.8 26.3.6 52.5-1.4 78.8-1.1 36.2.3 72.3 1.3 108.5 1.9 15.5.2 31.1 1.7 46.5.6 17.3-1.2 34.5-.3 51.7-.4 20.6-.1 41.2-.6 61.8-.3 15.9.2 31.9 1.2 47.8 2 3.3.2 6.5 1.3 9.5 2.8 3.9 2 5.8 4.4 5.5 9.4-1.8 29.5-2.7 59.1-2 88.7.2 10.6-1 21.2-1.4 31.8-.1 4.3.4 8.6.7 12.8 1.7 26-.4 51.9-.1 77.9.6 45.3.6 90.6.9 135.8 0 4.6.3 9.3.5 13.9.1 2.1 2.7 4.1.2 6.3-1.8 1.6-3.9 2.6-6.3 2.6-9.3.1-18.3 2.9-27.6 3.7-25.5 2.2-50.9 4.3-76.4 6.4-23.1 1.9-46.2 4-69.3 5.6-23.8 1.7-47.7 4-71.6 4-20.5 0-41 1.1-61.5.7-14.9-.3-29.9.7-44.8 1.2-23.9.8-47.7 1.8-71.6 2.4-10 .3-11.1-1-13.3-10.8-4.6-20.2-5.7-40.8-6.9-61.3-1.8-28.3-4-56.8-4.1-85.4zm149.4 147.4c33.8-.4 67.6-1.7 101.4-3.7 28.5-1.7 56.8-5.4 85.3-6.7 21.5-1 42.9-4.2 64.4-5.7 12.3-.8 24.3-3.3 36.4-5 7.3-1.1 7.4-1.4 7.4-8.6 0-11.6-.6-23.3-.4-34.9.8-38.3 0-76.5 0-114.8 0-21.3-2.9-42.5-2.1-63.8.9-24.5-.7-49.1 1.6-73.5 1-10.6-2.2-21-.6-31.6 1.7-11.3.5-22.6.9-33.9.2-4.1-1.3-6-5.7-6.1-6.6-.1-13.2-1-19.8-1.2-35.5-1.3-71-.8-106.5-.6-43.9.3-87.8-.3-131.7-1.7-28.5-.9-57.1-.1-85.7-1.4-18.3-.8-36.9.8-55.3 1.1-6.3.1-12.5 1.2-18.7 1.9-2.8.3-5 1.3-5.4 4.7-1 7.2-3.8 14.5-3.1 21.6 1.3 13.7-1.2 27.1-.6 40.7.7 16.7-1.3 33.5-1.4 50.4 0 21.4-1.4 42.9-1.7 64.3-.1 4.4-2.5 8.2-1.8 12.7 2 12.6 1 25.4 1.4 38.2.5 15.6-.4 31.3.8 46.8 1.4 17.2 1.4 34.4 3 51.6 1.7 17.2 2.5 34.4 6.1 51.3 2.1 10 2.1 10.2 12.1 10.2 18.9 0 37.9-.7 56.8-1.7 21-1.4 42-.6 62.9-.6z"/><path fill="#090908" d="M405.6 1129.5c-2 2.1-3.7 3.4-6.6.9-24.4-20.1-53.2-30.9-83.3-38.1-15.4-3.7-31.2-3.5-47.1-2.9-14.1.5-27.7 2.3-41.1 6.5-16.3 5-31.6 11.8-43.7 24.2l-.7.7c-2.4 2.2-5.2 5.6-8.3 2.3-2.5-2.7.6-5.3 2.6-7.6 6.8-7.5 15-13 23.9-17.6 1.8-.9 3.5-1.5 5.1-3.5-3.3-3.5-6.4-6.8-9.5-10.1-13.2-13.5-29.1-14.4-46.1-9.8-14.3 3.9-21.9 14.7-26 27.9-2.9 9.4-5.2 19.4-5.8 29.2-1.3 25.7 7.8 47.4 28.1 63.8 2 1.7 4.3 3.1 6.4 4.7 14.1 10.1 32.3 9.4 46-1.5 11.6-9.2 19.3-20.6 21.8-35.6 1.3-8.1 3.8-16 1-24.9-4-.9-7.6 2.2-11.5 3.5-3.8 1.2-7.5 2.6-11.3 3.9-10.8 3.9-11.8 3.3-13.7-8.7 34-13.4 68.9-22.1 105.7-19.2 17.7 1.4 34.7 5.7 48.6 17.9 4.3 3.8 7.2 8.6 10.2 13.3 5.1 7.8 11.9 13.1 21.1 15.7 11.2 3.1 18.8-.1 23.1-11 2.1-5.2 3.3-10.8 5-16.1 1.5-4.8 4-3 6.6-1 5.6 8.1 3.2 15.6-1.8 23-12.4 18.1-31.7 21.7-50.4 9.9-4.6-2.9-7.7-7.6-10-12.3-7.9-16.4-22.4-23.3-38.8-26.6-19-3.7-38.3-3.6-57.5-.3-1.6.3-3.2.8-4.8 1.3-8.5 2.9-8.6 2.9-8.1 11.7 1.1 21.3-6.5 39.2-18.8 56.3-9.1 12.7-21.3 18.2-35.4 21.7-3.9 1-7.2-.8-10.7-1.3-29.7-4.6-48-23-57.5-50.2-3.5-10.1-4-21.3-2.8-32.4 1.3-11.5 3.5-23 4.6-34.4 2.5-25.8 25.9-42.8 50.1-43.3 17.2-.4 31.2 4.4 42 18.2 3.6 4.6 7.9 10.1 12.9 11.5 4.7 1.3 10.8-1.8 16.2-3.6 20.8-7 42.3-7.7 64-7.4 9.4.1 18.1 3.9 27.3 5.5 27 4.8 51.2 16 72.2 33.6 3.4 3.2 7.9 6.2 6.8 12.2zM222.3 1317.4c-.5 19.7-6.4 36.7-22.8 49.3-12.4 9.6-25.2 9.1-38.4 3-19.3-9-31.4-23.9-35.4-45-1.1-5.5-2.7-11-3.2-16.6-1.5-14.5 3.7-27.4 10-40 6.8-13.7 32.2-22.4 48.2-14.9 18.5 8.7 29.7 22.5 36.2 41.1 1.3 3.8 2.7 7.5 4.1 11.2 1.6 3.8.2 7.9 1.3 11.9zm-88.9-6.3c-.1 2-.5 3.9-.3 5.9 1.9 26.1 22.3 43.5 43 48.9 3.2.8 6.5.7 9.7-.8 9.6-4.4 17.2-10.9 22.6-20.1 16.8-28.8-2.8-72.9-33-84.6-3.1-1.2-6.7-2.8-10.6-1.1-9.2 3.9-17.6 8.5-23.1 17.7-6.2 10.7-7.5 22.3-8.3 34.1z"/><path fill="#0C0B0B" d="M2134.5 2106.5c9.2-1.1 18.3 1.1 27.4 1.6 16.9.9 33.8 2.5 50.7 2.1 5.3-.1 10.3 2.7 15.8 1.6 2.5-.5 5-.6 5-3.4 0-2.7-2.6-2.2-4.6-2.2-26.2.8-52.1-4.1-78.1-5.6-22.6-1.2-44.3-7.1-66.7-9.5-14.5-1.6-28.6-5.2-42.9-8-1.6-.3-3.4-.1-4.5-1.4-.6-.7-1.3-1.7-1.3-2.6 0-1.3 1.1-2.5 2.4-2.7 2.3-.3 4.7-.6 7-.1 15.5 3.3 31.1 6.4 46.9 8.1 23.3 2.5 46.4 7.1 70 7.9 14.9.5 29.6 3.1 44.5 3.3 8 .1 16-.5 23.9.1 23.4 1.9 20.9 4.4 19.4 23.6-.3 3.6-.6 7.2-.3 10.8 1.8 24.4 4 48.8 7.9 73 4 24.8 9.3 49.4 18.4 73 4.3 11.1 7.4 22.6 12.7 33.3 3 6.2 5.1 12.9 11.7 16.6 2.3 1.2 3.3 3.5 1.1 5.8-1.7 1.8-3.1 4.7-6.5 3.1-.3-.1-.6-.3-.9-.5-15.3-9.6-31.9-15.9-49.3-20.4-3.5-.9-7-2.3-10.7-1.7-21.7 3.3-42.8 8.2-59.7 23.7-5.9 5.4-12.5 10.1-17.8 15.9-6.5 7.2-10.1 16.4-13.2 25.4-2.7 7.8-5.2 15.8-3.9 24.3.4 2.7-.2 5.7-3.5 6.1-2.7.3-3.9-2.4-4.6-4.6-.9-2.8-1.8-5.8-1.8-8.7.1-19 4.6-36.5 18.2-50.9 16.8-17.6 37.9-28.7 59.3-39.3 7.4-3.7 15.8-5.1 24.2-4.8 4.6.1 5.5-1.7 4.6-6.1-8-37.6-8.9-75.7-6.4-113.9.6-8.9 1.7-17.8 3.3-26.5 1.8-9.5.7-18.8 0-28.8-15.2 1.3-29.7-1.1-44.2-2.6-14.8-1.6-29.7-2.4-44.1-6.2-4.5-1.1-9.8-1.7-9.4-8.8zm109.1 115.7c-1.9 25.4 2.5 50.1 3 74.9 0 2.6 1.2 4.4 3.8 5.2 8.3 2.5 16.7 5.1 26.2 8-12.5-29.9-26.3-57.7-33-88.1zM2316.4 593.8c37.2 0 66.6 2.3 95.2 9.9 29 7.7 55 21.3 76.4 42.6 3.7 3.7 5.1 9.2 3.3 11.4-1.6 1.8-8.7 1.1-11.9-2.1-13.3-13.6-30.6-20.4-47.3-28.2-17.6-8.3-35.8-15.1-55.4-17-12.2-1.2-24.4-2.3-36.5-4-6.7-.9-13.1 1.4-19.8 1.4-20.9 0-41.9-.4-62.6 2.2-18 2.3-35.9 5.6-53.4 10.7-31.9 9.1-62.4 21.4-91.2 38.1-3.1 1.8-6.5 3.3-9.8 4.8-.9.4-1.9.3-2.7-.6-1-1.2-1.1-2.5-.2-3.6.8-1.1 1.7-2.1 2.8-2.8 20.4-14.3 41-28.1 65.4-35 14.3-4 27.6-11 42.2-14.1 19.1-4.1 38-8.6 57.6-10.1 18.5-1.4 36.9-4.5 47.9-3.6zM2136.9 831.7c-3.2 1.6-6.1.4-8.9-1.6-18.5-13.2-30.4-29.7-30.4-53.7 0-23.4 10.3-41.3 27-56.3 2.4-2.2 5.5-3.7 8.4-5.2 2.4-1.2 5-1.4 7.6.2 3.5 2.2 3.6 4.8.1 7.3-12.7 9.1-22.8 20.4-27.3 35.6-6.3 21.1-3.4 40.5 12.3 57 1.1 1.2 2.3 2.7 3.7 3.2 6.3 2.5 8.7 6.9 7.5 13.5z"/><path fill="#100E0C" d="M2289.9 763c-.9 18.8-4.5 36.7-18.8 50.7-6.7 6.5-12.1 6.2-16.7-1.7-12.4-21.2-14.8-41.2.5-66.3 3.1-5.1 6.7-9.9 11.9-13.2 8-5 14.6-5.4 19 6.1 3 7.7 5.4 15.8 4.1 24.4zm-18.6-23.6c-10.4 12.1-15.2 25.9-17.3 40.8-.9 6.2-.5 12.6 2.5 18.5 4.1 8.3 7.4 9 14.1 2.6.7-.7 1.3-1.5 1.9-2.3 11.5-15.2 15.3-44.9-1.2-59.6zM2201.9 931.6c-12.4-2-27.1-.8-41.1-5.3-4.8-1.5-7.4-5.6-6.8-10.4.2-1.7 1.3-2.2 2.7-2.3 1-.1 2 0 2.9.3 22.6 8.3 45.7 6.3 68.7 3.2 12.8-1.7 25.8-2.1 38.1-6.6 2.2-.8 4.8-1.1 5.8 1.8.9 2.5-1.6 3-3.1 4.2-3.8 2.9-7.8 4.7-12.5 5.7-17.5 3.5-34.8 8.2-54.7 9.4zM2068.2 740.4c1.9-13.8 7.4-25.9 17.5-35.7 2.5-2.5 5.3-6 9.4-3.8 4 2.1 6.7 6.3 6.4 10.6-.9 14.3-4.6 28-11.8 40.5-2.2 3.8-5.7 7.4-10.1 7.3-5.1-.1-7.5-4.8-9.7-9-1.6-3.2-1.5-6.4-1.7-9.9zm23.8-25.2c-10.3 8.4-15.4 24.8-10.6 34.9 7.1-10.7 12.7-21.4 10.6-34.9z"/><path fill="#090908" d="M1307.9 896.2c.3 7.2-2.1 13.7-4.7 20.2-5.5 13.7-27.7 17.9-40.3 7.4-1.9-1.6-2.6-3.8-3.6-5.9-8.1-17.7-4.5-34.9 1.8-52.1.9-2.3 2.7-4.1 4.8-4.9 13.8-5.2 30.4-5.6 37.7 12 2.2 5.6 4.3 16.5 4.3 23.3zm-26.2 22.5c-6.4-15.9-8.5-31.8-2.2-48.1 1.3-3.4-.4-4.7-4.1-3.7-6.4 1.8-11 7.7-11.5 15.6-.4 7.2-.3 14.5-.1 21.7.5 11.1 5.2 14.9 17.9 14.5zm9.4-48c-3.5 8.1-5.6 16.6-5.9 25.4-.1 5-.7 10.5 2.6 15.1 1.5 2.1 3.1 3.3 5.7 3.1 2.6-.2 2.9-2.4 3.6-4.1 3.7-8.4 2.4-28.4-2.4-36.3-.8-1.4-1.7-2.8-3.6-3.2z"/><path fill="#100E0C" d="M131.9 1137.4c1.5-16.1 3.9-34.7 15.3-50.8 2.8-4 6-6.9 11-7.5 1.4-.2 2.7-.7 3.4.7.6 1.2.6 2.8-.7 3.6-16.5 9.5-17.2 26.7-21 42.5-4.2 17.5-1.2 33.9 6.2 49.9.6 1.2.9 2.6-.5 3.5-1.5 1.1-3.4.9-4.5-.3-1.6-1.6-3.4-3.6-3.9-5.6-2.7-11.1-6.4-21.8-5.3-36z"/><path fill="#BCBAB4" d="M545.4 762.2c-20.9 0-41.9-.8-62.8.2-18.9 1-37.8 1.7-56.8 1.7-10.1 0-10-.3-12.1-10.2-3.6-16.9-4.4-34.1-6.1-51.3-1.7-17.2-1.6-34.4-3-51.6-1.2-15.5-.3-31.2-.8-46.8-.4-12.7.5-25.5-1.4-38.2-.7-4.5 1.7-8.3 1.8-12.7.3-21.4 1.6-42.9 1.7-64.3 0-16.8 2.1-33.7 1.4-50.4-.6-13.6 1.9-27.1.6-40.7-.7-7 2.1-14.4 3.1-21.6.5-3.4 2.6-4.4 5.4-4.7 6.2-.7 12.5-1.8 18.7-1.9 18.5-.3 37-1.9 55.3-1.1 28.6 1.2 57.1.5 85.7 1.4 43.9 1.4 87.8 2 131.7 1.7 35.5-.2 71-.7 106.5.6 6.6.2 13.2 1.1 19.8 1.2 4.4.1 5.9 2 5.7 6.1-.4 11.3.9 22.7-.9 33.9-1.6 10.6 1.6 21 .6 31.6-2.3 24.5-.7 49-1.6 73.5-.8 21.3 2 42.5 2.1 63.8.1 38.3.8 76.5 0 114.8-.2 11.6.3 23.3.4 34.9 0 7.2-.1 7.5-7.4 8.6-12.1 1.8-24.1 4.2-36.4 5-21.5 1.5-42.9 4.7-64.4 5.7-28.5 1.4-56.8 5-85.3 6.7-33.9 2.4-67.7 3.7-101.5 4.1zM437.3 549c2.8 20.1 0 40.4.9 60.7.6 12.3 1.7 24.5 1.8 36.8.1 23.9.7 47.8 2.9 71.6.8 8 2.2 9.5 10.6 9.8 17.1.7 34.2 1.3 51.4 1.7 13.9.3 27.9 1.2 41.7-.3 20.9-2.3 41.8-1.1 62.7-2.7 16.3-1.3 32.8 1.1 49.3-.2 15.9-1.2 31.9-1.5 47.7-3.1 29.4-2.8 58.8-4.9 88.2-6.6 5.5-.3 9.9-3.6 14.6-5.6 2.3-1 1.4-5.5 1.6-8.4 1.9-20.2 1.9-40.5 1.9-60.7-.1-23.3-.1-46.5 0-69.8.1-15.3 1-30.6.6-45.8-.7-21.8-1.8-43.5-1.3-65.3.4-17.8-.9-35.6-1.9-53.4-.2-4.5-1.7-7.1-6.6-8.2-14.6-3.2-29.3-5.4-44.3-5.4-29.7 0-59.4-.4-89.1.1-22.6.4-45.1-.9-67.7.9-23.1 1.8-46.4.9-69.6 2.3-23.9 1.4-47.7 2.5-71.6 4.5-13 1-18.7 6.6-20.5 19.6-.4 2.6-.7 5.3-.6 8 .7 13.9-.6 27.7-1 41.6-.8 26 .9 51.9-1.7 77.9z"/><path fill="#E8D420" d="M133.4 1311.1c.8-11.9 2-23.4 8.4-34.1 5.5-9.2 13.9-13.8 23.1-17.7 3.8-1.6 7.4-.1 10.6 1.1 30.1 11.7 49.8 55.8 33 84.6-5.4 9.3-12.9 15.8-22.6 20.1-3.2 1.5-6.5 1.6-9.7.8-20.7-5.4-41.1-22.8-43-48.9-.3-1.9.1-3.9.2-5.9zm13.3 8.3c1 6.2 2.7 15 5.9 23.4 1.1 2.9 3.7 4.7 6.2 6.2 1.3.8 2.5 1 3.6-.1 1.3-1.3 1.8-2.8.6-4.4-2-2.6-3.9-5-5.2-8.3-6.6-17.5-3.7-34.5 1.8-51.6 1.8-5.5 4-10.5 9.2-13.7 1.3-.8 3.4-1.4 2.4-3.6s-3.3-2-5.2-1.5c-5.8 1.6-8.2 6.7-10.2 11.4-5.4 12.6-8.8 25.8-9.1 42.2zm41.8.7c-.1-4.9.5-12.2-.7-19.4-.3-2-1-4-3.1-4.6-2.7-.8-4.7.9-5.6 3-1.9 4.4-5.1 8.4-3.8 13.8 1.6 7.1 2.8 14.2 4.4 21.3.4 1.9 1.1 3.8 1.9 5.6.8 1.9 2.5 3.4 4.6 3.2 2.6-.3 2.5-2.7 2.5-4.7-.2-5.2-.2-10.5-.2-18.2z"/><path fill="#FCFCFC" d="M2271.3 739.4c16.4 14.8 12.7 44.4 1.2 59.6-.6.8-1.2 1.6-1.9 2.3-6.7 6.4-10 5.7-14.1-2.6-3-5.9-3.3-12.3-2.5-18.5 2.1-14.9 7-28.8 17.3-40.8zM2092 715.2c2.2 13.5-3.4 24.2-10.6 34.9-4.8-10.1.3-26.5 10.6-34.9z"/><path fill="#E8D420" d="M1281.7 918.7c-12.8.5-17.4-3.4-17.8-14.5-.2-7.2-.3-14.5.1-21.7.4-7.9 5-13.8 11.5-15.6 3.7-1.1 5.5.3 4.1 3.7-6.4 16.2-4.3 32.2 2.1 48.1zM1291.1 870.7c2 .4 2.9 1.8 3.7 3.2 4.7 7.9 6.1 27.9 2.4 36.3-.8 1.7-1 3.9-3.6 4.1-2.6.2-4.2-1-5.7-3.1-3.3-4.7-2.8-10.1-2.6-15.1.1-8.8 2.3-17.3 5.8-25.4z"/><path fill="#090908" d="M437.3 549c2.6-26 1-52 1.6-77.9.3-13.8 1.7-27.7 1-41.6-.1-2.6.2-5.3.6-8 1.8-13 7.5-18.5 20.5-19.6 23.8-1.9 47.7-3 71.6-4.5 23.2-1.4 46.5-.5 69.6-2.3 22.6-1.8 45.1-.5 67.7-.9 29.7-.6 59.4-.2 89.1-.1 15 0 29.7 2.2 44.3 5.4 5 1.1 6.4 3.7 6.6 8.2 1 17.8 2.3 35.6 1.9 53.4-.5 21.8.6 43.5 1.3 65.3.5 15.2-.5 30.5-.6 45.8-.1 23.3-.1 46.5 0 69.8.1 20.3 0 40.5-1.9 60.7-.3 2.9.7 7.4-1.6 8.4-4.8 2-9.1 5.3-14.6 5.6-29.4 1.7-58.8 3.7-88.2 6.6-15.8 1.5-31.8 1.8-47.7 3.1-16.5 1.3-32.9-1.1-49.3.2-20.9 1.7-41.8.5-62.7 2.7-13.7 1.5-27.8.6-41.7.3-17.1-.3-34.3-1-51.4-1.7-8.4-.3-9.8-1.8-10.6-9.8-2.3-23.8-2.8-47.7-2.9-71.6-.1-12.3-1.2-24.6-1.8-36.8-.9-20.2 2-40.5-.8-60.7zm9.1 63.1c0 9.5-.8 20.9.2 32.1 1.6 18.2 2.9 36.4 3.7 54.6.9 22 4.3 24.8 26.5 22.7 19-1.8 38-3 57.1-3.7 14.9-.5 29.7 3 44.6.4 1.8-.3 3.9.4 5.8.9 3.3.9 6.6.9 9.9.6 26.8-2.6 53.7-2.8 80.6-3.7 5.3-.2 10.7 0 15.9-.7 18.7-2.5 37.4-5.8 56.4-5.2 10.7.3 21.2-1.7 31.8-2.1 3.8-.2 5.4-2 5.3-5.6-.1-2 0-4 0-6 .9-26.9.2-53.8 1.2-80.8 1.3-34.5 2.7-69.1 2.6-103.7 0-5.4-1.7-10.7-1.1-15.8 2.2-21.3.7-42.6 1.2-63.8.2-8.1-.2-8.1-7.7-10.2-11.3-3.1-23.1-3.3-34.5-3.6-33.2-.8-66.5-.8-99.7-2.4-18.9-.9-37.9-.5-56.8-.9-27.2-.6-54.4 1.8-81.6 3.1-10.3.5-20.5 1.1-30.8 2.2-6.9.8-13.7 2.4-20.5 3.9-3.4.7-6.7 2-6.3 6.4.7 9.4-2.1 18.4-2 27.8.2 11 1 22.2-.7 32.9-2.6 16.2-1.1 32.4-2.7 48.6-1 9.9.2 20.4.6 30.6.6 13.1-.2 26.4 1 41.4zM528 407.4c13.2-.7 26.1 1.9 39.4 1.2 21.9-1.1 43.9-.3 65.8-.3 46.5.1 93-.6 139.4 1.6 5.3.2 10.7.2 15.8 1.3 8.1 1.7 10.6 5.2 10.1 13.4-.9 15.2-1.3 30.5-1.8 45.7-1.4 44.2.4 88.4-2.1 132.7-1.3 22.2-.3 44.6-.2 66.9.1 10.6 1.9 21.2 1.4 31.9-.1 2 .2 4.1 3 4.2 2.6.1 3.5-1.5 3.5-3.8.1-2.3.1-4.7.1-7-.2-22.2-.2-44.5-.2-66.7.1-28.2-.2-56.5 1.3-84.8 1-18.5-.7-37.3-.2-55.9.6-22.7-.7-45.1-2-67.6-.7-12.3-1.3-13-12.3-14.9-2-.3-3.9-1-5.9-1.1-24.6-.8-49.3-1.1-73.9 0-5.6.3-11.2 2.3-16.8 1.3-11.2-2-22.4-.7-33.5-.9-27.1-.4-54.3 1.7-81.5 1.1-16.4-.4-32.9-.5-49.4 1.7zm-43.9 2c-4.9.7-10.1-1.3-15.5 1.9 6.1 2 10.6-1.2 15.5-1.9z"/><path fill="#100E0C" d="M146.7 1319.4c.3-16.4 3.7-29.6 9.2-42.1 2-4.7 4.5-9.8 10.2-11.4 1.9-.5 4.2-.7 5.2 1.5 1 2.1-1.1 2.7-2.4 3.6-5.2 3.1-7.4 8.1-9.2 13.7-5.5 17-8.5 34-1.8 51.6 1.2 3.3 3.2 5.7 5.2 8.3 1.2 1.6.7 3.1-.6 4.4-1.1 1.1-2.3.9-3.6.1-2.6-1.6-5.1-3.3-6.2-6.2-3.3-8.5-5-17.3-6-23.5z"/><path fill="#090908" d="M188.5 1320.1v18.3c0 1.9.1 4.4-2.5 4.7-2.1.2-3.7-1.3-4.6-3.2-.8-1.8-1.5-3.7-1.9-5.6-1.5-7.1-2.7-14.2-4.4-21.3-1.2-5.4 2-9.4 3.8-13.8.9-2.1 2.9-3.8 5.6-3 2.1.6 2.8 2.6 3.1 4.6 1.3 7.1.8 14.4.9 19.3z"/><path fill="#543E21" d="M446.4 612.1c-1.2-15.1-.4-28.4-1-41.7-.4-10.1-1.6-20.6-.6-30.6 1.6-16.2.1-32.4 2.7-48.6 1.7-10.7.9-21.9.7-32.9-.2-9.3 2.6-18.4 2-27.8-.3-4.3 3-5.6 6.3-6.4 6.8-1.4 13.6-3.1 20.5-3.9 10.2-1.1 20.5-1.7 30.8-2.2 27.2-1.3 54.4-3.7 81.6-3.1 18.9.4 37.9 0 56.8.9 33.2 1.6 66.5 1.6 99.7 2.4 11.5.3 23.2.4 34.5 3.6 7.5 2.1 7.9 2.1 7.7 10.2-.6 21.3 1 42.6-1.2 63.8-.5 5.1 1.1 10.5 1.1 15.8 0 34.6-1.3 69.2-2.6 103.7-1 26.9-.3 53.9-1.2 80.8-.1 2-.1 4 0 6 .1 3.7-1.5 5.5-5.3 5.6-10.6.4-21.1 2.4-31.8 2.1-19-.5-37.6 2.7-56.4 5.2-5.3.7-10.6.5-15.9.7-26.9.9-53.8 1.1-80.6 3.7-3.3.3-6.6.3-9.9-.6-1.9-.5-4-1.2-5.8-.9-14.9 2.6-29.7-.9-44.6-.4-19.1.6-38.1 1.8-57.1 3.7-22.2 2.1-25.6-.7-26.5-22.7-.8-18.2-2-36.4-3.7-54.6-1-10.9-.2-22.3-.2-31.8z"/><path fill="#888680" d="M528 407.4c16.5-2.3 33-2.1 49.5-1.7 27.2.7 54.3-1.5 81.5-1.1 11.1.2 22.4-1.1 33.5.9 5.6 1 11.2-1 16.8-1.3 24.6-1.1 49.3-.7 73.9 0 2 .1 3.9.7 5.9 1.1 11 1.9 11.5 2.6 12.3 14.9 1.3 22.5 2.7 44.9 2 67.6-.5 18.5 1.2 37.3.2 55.9-1.5 28.3-1.2 56.5-1.3 84.8-.1 22.2 0 44.5.2 66.7 0 2.3 0 4.7-.1 7-.1 2.2-1 3.9-3.5 3.8-2.8-.1-3-2.2-3-4.2.4-10.7-1.4-21.3-1.4-31.9-.2-22.3-1.1-44.7.2-66.9 2.5-44.2.7-88.5 2.1-132.7.5-15.2.9-30.5 1.8-45.7.5-8.2-2-11.7-10.1-13.4-5.1-1.1-10.5-1.1-15.8-1.3-46.5-2.1-93-1.5-139.4-1.6-21.9 0-43.9-.8-65.8.3-13.4.7-26.4-1.9-39.5-1.2z"/><path fill="#AEA79D" d="M484.1 409.4c-4.9.7-9.3 3.9-15.5 1.9 5.4-3.3 10.6-1.2 15.5-1.9z"/></svg>