<svg viewBox="0 0 2163.6 2294.8" xmlns="http://www.w3.org/2000/svg"><path fill="#0D0C0C" d="M1329.5 876.9c8.1-15.2 11.3-32.2 14.5-49 3.3-16.8 4.3-34.2 8.3-50.8 5.3-22.2 12.7-43.7 25.3-63.3 11.8-18.4 22.7-37.4 35.7-55.1 15.7-21.4 31.8-42.5 50.3-61.6 3.6-3.7 6.2-8.5 9.3-12.8 9-12.3 19.6-23.3 29.6-34.7 10.9-12.4 21.1-25.5 31-38.7 9.2-12.2 20.3-22.7 30.1-34.4 11-13.2 22-26.4 33.3-39.3 20.5-23.5 39-48.7 60-71.7 13.2-14.5 24.4-30.5 36.4-45.9 9.2-11.8 19.1-22.9 28.3-34.8 10.1-13.1 20.6-25.9 30.9-38.8 12.5-15.8 24.4-32.2 37.7-47.4 26.4-30.2 50.3-62.4 77.3-92 20.4-22.4 38.1-46.9 59.3-68.5 9.7-9.9 19.6-19.9 31-27.6 12.3-8.4 26.8-11.6 42.3-9.9 36.8 4.1 67.4 20.3 94.2 45.2 14.9 13.8 29.2 28 42.6 43.2 13.6 15.5 22.5 33.3 26.4 53.6 1 5.4-.7 10.5-1.5 15.7-3.2 23.8-12.9 44.3-29.9 61.4-12.6 12.7-23 27.3-35 40.5-11.1 12.3-21.5 25.2-33.7 36.7-8.1 7.6-15 16.8-22.6 25.1-16.9 18.7-34 37.2-50.1 56.6-16.5 19.9-34.6 38.4-50.2 59.1-6.8 9-15.2 16.7-23 24.9-12.2 12.7-22.3 27.2-33.7 40.5-14.9 17.4-31.2 33.3-46.8 49.9-30.1 32.1-59.8 64.6-89 97.6-20.6 23.3-41.1 46.9-63 69-26.8 27.1-51.1 56.5-78.1 83.4-16.8 16.7-32.5 34.7-49.7 51.1-23.7 22.7-50.1 41.4-81.1 53.5-20.6 8.1-41.9 14.5-62 23.9-3.5 1.7-7.7 2.2-10.7 6.6 13.6 10.2 23.1 24.4 36 35.4 5 4.3 9.7 9.2 13.6 14.5 13.9 19.1 30.4 36 45 54.5 15.5 19.6 29.6 40.1 43.4 60.7 11.9 17.8 23.5 36.1 33.4 55.3 3 5.8 5.4 12.2 11.1 16.3 1.3.9 1.7 1.9 1.7 3.3.3 8.3 4.9 15 8.3 22.1 13 26.8 26.1 53.6 34.7 82.2 4.6 15.1 9 30.3 13.3 45.5 3.3 11.8 6.1 23.7 9.3 35.5 3.8 14.1 6.9 28.3 8.4 42.7 2 18.4 6.1 36.5 7.3 55.1.9 13.9.1 27.8.8 41.7.3 6.3 1.7 12.5 1.7 18.8 0 8.6-1.1 17.2-1.1 25.8-.2 27.1-3.4 54-7 80.7-2.1 15.7-6.4 31-10 46.5-3 12.9-5.7 25.9-9.9 38.4-6 17.7-10 36.2-19.8 52.6-1 1.7-2.3 3.8-1.1 5.6 1.7 2.7 4.3.7 6.3.1 14.2-4.3 26.5-12 37.3-22.1 7.1-6.7 10-7.4 19.1-4.1 18.5 6.6 35.8 15.6 52.4 25.9 23.8 14.9 44.3 33.4 59.2 57.6 3.1 5.1 6.4 10.1 10.1 14.9 13.1 16.8 21.2 36.1 25.7 56.6 2.6 11.5.5 23.6-2.8 35.1-6.7 23.7-20.6 42.8-37.9 59.8-4.9 4.8-10 9.5-15.8 13.4-2.8 1.9-5 4.3-3.8 8.4 4.7 16.6 1.1 33-1.3 49.4-3 20.9-15.3 36.5-29.3 51.5-15.9 17-35.6 26-57.6 30.8-12.8 2.8-26.2 1.9-39.4 1.8-4.1 0-8.3-2.8-12.2 1-.5.5-2 .1-2.9-.2-17.8-5.9-36.4-9.8-52.5-20-10.9-6.9-18.3-16.7-20.6-29.8-1.2-6.7.9-12.4 4.4-17.8 2.3-3.6 4.4-7.4 6.9-10.9 6.5-9.3 6.6-19.8 6.1-31.7-5.2 5-6.9 11.1-9.5 16.3-13.6 26.5-33.7 46.4-58.8 61.9-9.8 6.1-19.5 12.2-30.3 16.4-12.5 4.8-25.6 6.8-38.5 9.4-15.6 3.1-31.5 4.8-47.5 4-17.8-.9-35.5-2.7-53.1-6.3-16.8-3.5-33-8.8-49.1-14.1-11.2-3.7-21.4-10.5-31.5-16.9-5.2-3.2-9.1-2.6-13.8 0-25.8 13.7-52.4 25.5-79.8 35.6-23.9 8.8-48.6 15.3-73.1 22.1-8.7 2.4-14.4 5.7-19.3 14.6-10.8 19.9-26.7 35.7-46.1 48.1-19.8 12.7-40.9 21.4-63.6 27-14.7 3.6-29.3 8.2-44.3 9.6-21.1 2-42.2 4.4-63.5 1.2-4.6-.7-9.3 0-14-.4-15.5-1.2-30.7-4.2-46-6.7-8.2-1.3-16.2-3.1-24.3-4.6-4.9-.9-9.7-.6-14.6 1.1-23.8 8-47.9 14.1-72.6 18.8-32.8 6.2-65.9 10.2-99.1 13.8-17.8 1.9-35.6 3.8-53.5 3-32.8-1.6-65.3-5.7-97.4-12.1-9.7-1.9-19.2-4.8-29.1-5.6-11.4-1-21.7-5.7-31.7-10.9-7.7-3.9-16-6-23.4-10.7-14.6-9.2-20-20.1-14.3-39.3-12.2-1.1-24.3-2.4-36.4-3.1-29.6-1.7-57.5-9.9-83.6-23.2-15.7-8-28.5-20.5-34.6-38.2-1.3-3.7-1.4-7.3-.8-10.8.8-4.9-1.2-6.7-5.5-7.2-26.9-3.1-51.1-13.7-73.1-28.9-20.3-14-37-31.7-52-51.3-11.2-14.6-21.5-29.7-29-46.3-8-17.7-15.6-36-15.1-56.2.1-5.3-.8-10.5-1.3-15.7-2-23.6 4.1-46 9.8-68.3 10-39.8 28-76.3 48.7-111.5 2.7-4.6 4.9-9.5 8.2-13.6 3.3-4.1 3.7-8.1 2.8-13-3.4-19.2-6.8-38.5-8.7-57.9-.6-6.1-.7-12.3-1.1-18.5-2.6-33.5-2.4-67.1-1.9-100.6.2-9.9 1.1-19.8 2.9-29.6 1-5.3.5-10.6.4-15.9-.2-11.7.8-23.1 5.2-34.1 1.2-3 1-6.5 1.4-9.8 2.6-22.1 7.8-43.6 13.5-65 11.9-45.2 25.6-89.8 42.4-133.4 4.3-11.2 10.6-21.3 15.7-32 14.4-30.3 31.3-59.2 49.3-87.4 22.4-35 49.6-66.1 77.6-96.7 14.5-15.8 30.4-30.1 45.7-45.1 10.1-9.9 22.3-17.6 33.2-26.8 19.8-16.7 39.9-32.9 61.5-47.2 22.3-14.8 44.3-30.2 68.5-42.1 5.3-2.6 10.1-6.3 15.2-9.4 6.8-4.1 13.4-8.5 21.2-10.8 7.7-2.3 14.3-6.9 21.2-10.8 10.4-5.8 21.5-10.1 32-15.5 13.4-6.8 27.5-11.2 41.3-16.5 26-10 52.1-20.3 79.3-26.2 24.2-5.2 48.3-11.1 72.8-14.8 30.1-4.5 60.2-8.3 90.4-12.1 24.9-3.1 49.7-2.3 74.5-3.9 10.8-.7 21.6-.7 32.4-.9 10.6-.2 21.3.5 31.7 2.4 8 1.5 15.9.8 23.8 1.9 4.6.6 9.2-2.5 14.4-1.4 17.8 3.7 35.7 6.8 53.6 10 10.4 1.9 20.8 4 31.1 6 16.6 3.3 32.6 8.7 48.7 13.7 23.9 7.4 47.5 16 70 27.3 9.1 4.6 18.8 8 28 12.4 24.6 11.5 48.6 24.8 72.3 38.6zM302.3 1978.6c.2-.7 0-1.2-.6-1.5-3.1-8.3-8.2-15.4-13.4-22.4.1-.7-.1-1.3-.7-1.7-3-7.9-3.1-8-9.7-5.8-2.9 1-5.7 1.4-8.7 1.6-9 .6-18-.1-26.9.1-20.8.7-39.6-6.1-58.4-13.5-1.8-.7-3.6-1.8-5.1-3-16.5-13.5-32-27.9-41.6-47.5-2.6-5.3-2-10.3 2.5-14.3 1.3-1.1 2.7-2.1 4.5-1.5 1.9.7 2.1 2.6 2 4.2-.7 8.7 4.2 15.7 8.7 21.7 10.9 14.3 24.2 26.6 41.9 32.3 20.6 6.5 41.7 9.8 63.2 7.7 7-.7 14.4-1.4 21.5-5.2-3.3-8.7-5.3-17.7-5.8-26.9-1.3-22.6.1-44.6 13.9-63.9 7.1-9.9 13.6-19.9 25.8-25.1 11.4-4.8 22.4-7.3 34.5-4.6 2 .4 3.8.8 5.7-.3 6.2-3.6 13.4-4.1 20.1-5.2 9.1-1.5 18.4-.4 26 6.4 10.5 9.5 10.1 21.1 5.8 33-2.8 7.7-7 15-10.4 22.5-4.4 9.6-9.3 19.1-11.8 29.4-1.4 5.5-2.4 11.2 1.3 17.4 2.7-4.1 4.7-7.5 7.2-10.6 8.7-10.5 16.1-21.6 32.2-24 14.3-2.1 28.9 6.3 34.1 16.2 4.3 8.1 4.4 15.7-1.7 23-6.4 7.7-10.5 16.9-16 25.1-3.1 4.6-3.1 9 .7 13.6 3.4 4.1 6.5 8.5 7.9 13.8 4 15.5 6 31.2 5.2 47.1-1 19.8-9.1 37.2-18.5 54.1-6.4 7.6-13.8 14-21.9 19.7-2.1 1.5-4.9 2.1-6.1 4.8-10 1.9-10.1 1.9-10.1 11-.1 21.9.2 43.8-.1 65.7-.1 8.9.7 16.8 7.7 23.5 3.4 3.2 4.2 7.2.4 12.3-4.1 5.6-7.9 12.5-3 20.2 1.2 1.8.8 4.5 1.3 6.8 1.2 4.8-.8 7.5-5.5 8.9-.6-1.2-1.7-2.3-1.7-3.5-.4-6.3-1.9-12.2-4.4-18.1-1.9-4.6-1.2-10.2 3-13.8 5.2-4.4 4-8.3.2-12.6-4.6-5.3-6.2-11.6-6.1-18.5.4-16.9-2.1-33.8-1.5-50.7.3-7.6-.6-15.2-.9-23.1-4-.2-7.9-2.1-11.1 1.6-61.3 28-125.7 38.1-193.2 32.3 1.8 14.6 6.9 26.7 18.6 36.1 11.6 9.3 24.4 15.4 38.4 20.2 21.8 7.5 44.1 11.7 67 13.3 12.2.9 24.5 1.3 36.8 2 2.8.1 6 .9 7 3.1 1.3 2.9-2.2 4.2-4.2 5.7-1.6 1.2-2.8 2.8-4.3 4.1-8.1 7.2-8.6 10.2-2.8 19.4 1.6 2.5 3.6 4.6 6.2 6.3 9.3 5.9 19.1 10.6 30.2 12 10.8 5.2 22.5 7.8 34 10.7 26.6 7.6 53.8 11.5 81.4 13.3 12.6 4.8 25.7 3.5 38.7 3.4 3.9-.8 7.9-1.6 11.8-2.5l28.5.9c2.8.1 4.9-1.5 7.3-2.6 5 1 9.9.2 14.9 0 26.2-1.1 51.9-6.9 77.7-10.9 24.4-3.8 48.1-11.7 72-17.9 1.4-.4 4.2-.2 4.1-2.9-.7-1.7-2.2-1.5-3.3-2-8.3-3.5-17.5-1.7-25.8-4.7-14.3-5.2-28.7-10.4-41.7-18.4-7.9-4.9-16.3-6.7-25.5-7.3-12.9-.8-25.7-2.5-38.4-5-11.4-2.2-22.2-6.7-33.6-8.8-7.9-5.1-16.6-8.3-26.1-12.2.7 14.5 0 27.3 1.7 40.2 1.2 8.8.6 17.9.8 26.8 0 1.2 0 2.7-1.6 3.2-1.9.5-3.3-.7-4.1-2.1-.6-1.1-.9-2.5-.9-3.8.2-7.6-.7-15.2-1.3-22.8-1.1-13.8-1.7-27.6-2.5-41.5.6-2.6 1.5-5.8-2.1-6.6-4.4-1-7.4-4.4-11.6-5.4-3.2-2-5.3-5.9-9.6-6-.2.5-.5.8-.5 1.1 0 1-.1 2.1.3 2.9 4.9 9.8 4.4 19.6.1 29.5-1.6 3.7-1.3 7.6 1.3 11.3 2.1 2.9 3.4 6.4 5.1 9.6 1.3 6.5 2.5 13.1-.2 19.6-.6 2.1-1.9 3.8-4.1 3.4-1.6-.3-2.6-2-2.5-3.9 0-2.3.3-4.7.2-7-.2-5.6.2-11.4-3.6-16.2-6.8-8.6-6.6-18-2.1-27.2 2.4-4.9 2.2-8.7-1-12.8-3.7-4.8-4.9-10.2-3-16 .8-2.4.8-4.4-1.3-6.2-5.2-4.4-7.4-10.8-10.8-16.3.3-5.4-4-9.9-2.8-15.5.8-3.8-1.3-6.3-4.4-8-5.6-3.1-10.1-7.5-14.6-11.9-6-5.9-11-12.5-9-21.8 3.5-9.4 9.8-17.2 16.1-24.7 7.5-8.9 13.9-9.6 24.5-4.3 6.8 3.4 12.5 8.6 20 10.8 1.6.4 3.1.9 4.7 1.3 1 .3 2.2.3 2.5-.8.6-1.8-.8-2.2-2.2-2.5-8.8-7.8-16.6-16.3-18.2-28.6-1.4-11.1.7-21.2 10.6-28.1 4.8-3.3 9.9-5.4 15.5-1 3.6 2.8 8 4.7 11.4 7.6 14.8 12.7 32.1 20.9 50.3 27.3 8.7 3.1 17.5 3.2 26.3.4 3.4-1.1 5-2.6 4.9-7-.3-12.2-3-24.3-2.3-36.6.9-16.6 5.4-32 14.5-45.8 7.6-11.5 18.4-17.7 32.8-16 9 1.1 14 5.9 15.6 14.8.9 5.3 1.4 10.3.3 15.7-1.2 5.8-1 11.9-.9 17.9.1 8.1.9 9 8.6 10.6 2.3.5 4.6.6 6.9.9 5.8.8 10.5 3.2 14.5 7.7 4.7 5.3 8.2 11.1 10.3 17.9 3.1 9.8 5.1 19.8 7 29.9.8 4.4-3.9 9.9 1.4 12.9 3.9 2.2 8.8 2.5 13.3 3.5 20.4 4.6 41 8 62 4.1 10-1.8 20-3.9 29.4-8 14.6-6.4 21.9-19.6 26.2-33.3 6-19.1 7.3-39-.2-58.4-1-2.6-2.5-5.9.1-7.2 3.2-1.6 6.2 1 8.1 3.9.5.8.7 1.8 1 2.8 5.3 16.4 10.1 32.9 5.3 50.4-2.9 10.8-3.7 22.2-10.5 31.8-12.2 17-29.5 25-49.5 28.2-25.9 4.1-51.6 1-77.2-3-7.1-1.1-14.1-3.5-21.1-5.3-3.7-1-6.2-3.3-5.2-7.1 3.9-14.7.7-28.9-2.4-43.1-2.7-12.3-8.8-17.1-21.5-18-2-.1-4-.1-6-.3-9.2-1.3-11.7-4.1-12.9-13.4-1.4-11.3-.1-22.4 1.3-33.5.8-6.5-.9-8.3-7.3-8.7-12.2-.7-24.2 7.9-29.7 21.1-2.7 6.5-4.8 13.2-4.8 20.1.1 14.3-1.8 28.9 5.8 42.3 3.6 6.3 1.8 10.5-4.9 13.5-4.3 1.9-8.8 2.8-13.4 3.5-16.8 2.7-32.2-2.3-47.2-8.6-13.2-5.5-25.7-12.4-37.3-20.9-2.6-1.9-5.3-4.6-9-2.7-10 5.2-13.4 20-6.5 28.9 7.2 9.2 16 16.8 25.4 23.7v4.9c-5.5 3.4-11.1 4.6-17.9 3.2-12.9-2.6-24.6-7.8-35.4-15.1-4.6-3.1-7.8-2.2-11 1.9-4.4 5.5-7.3 11.8-10.8 17.8-1.2 2-.9 3.5.2 5.5 4 7.8 9.3 14.7 16.9 19 6.8 3.9 10.3 9 9.8 16.8-.1 1.6.1 3.4.6 4.9 2.3 7.9 4.7 15.4 12.1 20.9 9.6 7.1 20.1 12.7 30 19.2 25.1 16.3 52.6 25.5 81.8 30.9 10.3 1.9 20.6.8 30.8 1 4.8.1 8.7 1.1 13 3.6 23.8 14.1 48 27.4 75.8 32.9 8.6 1.7 17.4 3.9 25.7 6.9 16.7 5.9 33.8 8.7 51.1 10.7 15.4 1.8 30.8 2.2 46.4.9 19.1-1.7 38.3-2 57.2-6.2 17.8-3.9 35.4-7.9 51.9-16.2 8.2-4.1 16.5-8.4 24.9-12.2 18.3-8.2 32.3-21.2 43.6-37.2 17.7-24.9 29.1-52.5 35.9-82.2 2.2-9.7 2.2-19.6 4-29.3 5.3-28.8.4-56.8-7-84.2-5.7-21.3-13.8-42.1-24.7-61.6-2.2-4-.6-6.6 2.2-8.5 3.5-2.4 5.9-.4 7.8 3 4.2 7.5 8.1 15.1 11.8 22.8 12.6 26.3 20.9 53.8 22.9 82.8 2.5 35.8-1.7 70.7-13.9 104.7-2.1 5.8-6.2 10.9-6.8 17.3 27.5.3 120.1-36.8 148.2-56.6-1-2.7-3.5-3.9-5.5-5.6-5.3-4.8-5.4-5-.3-12.1 18.3 15.6 39.1 27.7 61.3 36.1 22.4 8.5 45 17 69.4 19.6 25.5 2.7 50.8 5.1 76.2-.4 7.1-1.5 14.3-1.9 21.3-4.2 14.2-4.8 27.3-11.4 39.9-19.8 19.3-12.9 36.1-28.3 48.5-47.8 9.1-14.2 15.6-30 21.6-45.7 1.8-4.7 3.3-9.6 8-12 3.3-1.7 2.6-8.4 7.2-6.8 3.9 1.4.9 6.6 2.2 10 5.3 13.4 4.3 27.6 3.1 41.4-1.1 12.7-2.7 25.4-10.8 36.6-5.9 8.1-4.5 16.5 1.1 23 15 17.7 35.1 25.7 57.4 28.4 18.5 2.3 37.1.4 55.4-3.5 37.3-7.9 59.4-32 69.9-67.4 3.8-12.7 4-26 1.8-39.4-1.1-6.8-2-13.8-3.5-20.5-.7-3.3.1-4.8 2.4-6.7 7-5.6 13.9-11.3 20.7-17 7.6-6.4 14-13.8 19.7-21.8 7.9-11 12.3-23.4 17.3-35.7 6.8-16.7 4.5-32.3-3.6-47.8-6.3-12-14-23.2-20.8-34.9-11.7-20.2-27.9-36.2-45.4-50.7-16.6-13.7-35.2-24.8-54-35.3-4.7-2.6-10.2-3.4-15.2-3.8-4.3-.4-6.5 5.1-9.5 8.1-13.4 13.4-29.9 21.5-47.9 26.5-3.4 1-7.3.9-10.9.7-7.9-.4-10.1-4.2-6-10.7 10.2-16.1 15.1-34.4 21.8-51.9 1.9-4.9 4.1-9.8 5.7-14.8 5.9-17.6 8.6-36 13.4-53.9 3-11.1 5.6-22.5 6.8-33.9 1.5-14.5 3.8-28.8 4.9-43.4 1.3-17.7 2.7-35.4 2.3-53-.5-27.2-1.1-54.4-5-81.4-.7-4.9 1.3-9.5.1-14.6-3.4-14.1-5.2-28.6-7.5-42.8-4.2-25.6-11.1-50.4-18.4-75.1-11.5-39-27.2-76.4-44.4-113.2a692.22 692.22 0 0 0-34.6-64.7c-14.6-24.2-31-47.1-47.9-69.6-8.2-10.8-16.2-21.9-25.4-31.8-8.6-9.2-15.7-19.7-24.5-28.7-10.6-10.9-20.5-22.5-30.5-34-8.1-9.4-17.5-17.1-26.9-24.9-3-2.4-5.6-2.9-8.9-.6-7.4 5-15.2 9.4-22.3 14.7-19.4 14.6-37.2 30.9-54.5 47.9-17.7 17.4-36.1 34.1-51.9 53.2-1.3 1.5-2.8 2.9-4.4 4-2.4 1.6-5.2 2.1-7.3-.2-2.1-2.3-.1-4.3 1.4-6.1 7.3-8.6 14.4-17.5 22.5-25.3 11.4-11 22.7-22.2 34-33.4 23.1-22.8 45.9-45.9 75.2-61.1 13.8-7.2 26.8-15.8 41.7-20.8 29.2-9.8 58.1-20.4 85.5-34.6 10.8-5.6 19.5-14.1 28.3-22.9-5.5-5-10.4-8.9-14.7-13.5-4.3-4.6-4.3-6.1-12.4-.9-9.8 6.3-18.6 13.7-30.4 17.7-18.8 6.4-36.6 10.3-56 3.3-10.6-3.8-18.3-10-24.2-19.3-8.7-13.8-9.7-29.1-10.1-44.9-.5-19.6 1.8-38.3 13-55.1 2.7-4 2.5-7.6-2.3-10.9-4.3-3-8.1-6.6-12.6-9.2-2.9 2.3-4.4 5.2-5.9 8.2-9.3 18.9-14.3 39.2-17.3 59.7-3.4 23.6-7 47-13.6 70-5.2 18-12.8 34.6-21.9 50.7-12.7 22.4-30.8 40.6-46.5 60.7-13.8 17.7-28.1 35-42.3 52.3-4.6 5.6-9.7 11-14.6 16.3-1.4 1.5-3.4 2.5-5.1.4-1.3-1.5-2.2-3.3-.2-5.2 1-.9 1.8-1.9 2.6-3 10.6-15.3 24.5-27.9 35.2-43.1 5.7-8.1 11.8-16 17.6-24.1 17.2-23.9 36.3-46.4 48.7-73.4 3.4-7.4 3.8-7.2-2.8-11.9-16-11.3-32.8-21.5-50.2-30.3-17.3-8.7-34.8-17.5-53.2-24.2-9.3-3.4-18.5-6.9-27.8-10.4-20.7-7.8-41.6-15.1-63.1-20.2s-42.8-11.4-64.9-14.1c-26.3-3.2-52.2-8.8-78.9-8.3-2.7.1-5.3 0-8-.3-26.2-2.8-52.5-2.3-78.6-1.2-24.7 1-49.4 2.4-73.9 5.7-13.3 1.8-26.7 3.2-39.8 6.1-16.1 3.6-32.4 6-48.7 9-19.9 3.7-39.5 8.2-58.6 14.3-26.1 8.4-51.8 18-77.6 27.5-28.6 10.6-55.8 24-82.6 38.2-12.5 6.7-24.4 14.5-36.8 21.4-44.9 25.3-87.1 54.5-126 88.2-30 26-59.1 53-86 82.4-15.4 16.9-31.5 33.4-44.4 52.2-16.4 24-34.2 47.1-46.2 74-4.7 10.6-11 21-16.8 31.4-11.3 19.9-19.4 41.2-27.1 62.6-7.7 21.5-15.5 42.9-21.4 65-6.6 24.6-13.7 49.1-17.3 74.4-2.7 19.3-6.1 38.5-8.4 57.8-2.8 23.6-5.5 47.1-6.1 70.9-.1 5.2.7 10.3.3 15.5-2.2 23.5-1.2 47.1-.9 70.7.2 15.2 2.8 30.4 3.9 45.6.7 10.3 3.9 20.1 5.2 30.2.5 4.2 1.5 8.8 3.9 12.1 2.9 4 1.8 6.6-.7 9.6-17.1 20.9-31.2 43.6-42.9 68-17 35.7-27.8 72.9-30 112.6-1.8 33 6.2 63.5 23 91.8 6.1 10.3 14 19.4 20.6 29.3 19.7 29.9 45.7 52.2 78.1 67.2 2.4 1.1 4.5 2.7 7.2 3.2 14.3 2.6 27.9 8.2 42.5 9.5 14.5 1.3 28.8 5.1 43.6 4.3 10.9-.5 21.8-1.1 32.7-1.7 20.4-1.3 39.9-5.8 59.2-11.5 24.4-7.2 47.5-18 72-25 18.9-5.4 35.1-17.2 42.8-36 13.1-31.8 13.8-63.7-3.9-94.5-4.2-7.2-5-14.2-.3-21.5 2.9-4.5 5.3-9.2 8.2-13.7 4.1-6.5 7.2-13.2 9.3-20.7 1.4-4.9-.6-7.8-3.4-10.5-6.7-6.6-27-7.4-33.3.3-10.1 12.5-20.3 25.1-20.9 42.6-.1 3 2.8 9-3.1 9.9-4.6.7-5.1-4.6-7-7.4-8-11.9-12.4-24.9-9.5-39.3 2.1-10.4 6.1-20.3 11.6-29.5 5-8.2 9.9-16.5 14.5-25 7.6-14.1 4-26.9-9.6-30.8-9.6-2.8-20.2-2.5-28.2 4.5-5 4.3-8.7 4.8-13.8 1.3-2.2-1.6-4.8-1.7-7.6-1.5-15.5 1.2-28.4 8.1-37.3 20.3-14.1 19.2-17.9 41.3-14.3 65 1.3 8.5 4.4 16.9 4.5 25.3.1 10 4.7 17.8 9.7 25.5 8 12.4 13.2 26.9 26.2 35.7 1 .7 1.2 2.4.5 3.7-.7 1.3-2 1.8-3.3 1.6-3.3-.5-6.4-1.6-9-3.9-2.7-2.4-5.4-4.9-8.2-7.3-1.4-2.1-2.5-4.6-5-5.8zM1940.2 171.5c-1.3 1.1-3 2.3-4.5 1-4.2-3.7-9.4-5.9-13.7-9.7-8.6-7.8-18.1-14.6-26.8-22.3-5.1-4.5-6.6-3.3-10.4 1.3l-25.5 30.6c-9.6 11.4-20.1 22-29.2 33.8-4.4 5.7-4.4 6.4.6 11.4 1.4 1.4 3.2 2.5 4.6 3.8 6.2 6 13.7 10.5 19.4 17.1 1.1 1.3 2.1 2.7 1.1 4.4-.9 1.6-2.4 2.2-4.1 2.3-2.4.1-4.7-.3-6.4-2.2-4.9-5.6-11.4-9.1-16.7-14.2-9.8-9.4-10.1-9.6-18.7 1-13.2 16.3-27.8 31.4-40.2 48.3-4.7 6.4-5.2 6.8.6 11.8 7.8 6.7 15.7 13.3 23.6 20 2.3 1.9 4.7 3.8 5.8 6.7.6 1.6 1 3.2-.2 4.7s-2.9 1.5-4.5 1c-2.8-1-5.3-2.4-7.7-4.4-9.4-8.1-19.2-15.9-29.5-24.5-1.6 2.1-2.6 3.4-3.6 4.8-17.3 22.7-35.2 44.9-53.7 66.6-3 3.5-2.2 5.5 1.1 8 9.8 7.5 19.3 15.1 28.9 22.8 2.1 1.7 4.5 3.7 3 6.7-1.7 3.3-5.1 2.6-8 2.3-2.1-.2-3.4-1.9-4.7-3.4-7.4-8.7-17.5-14.2-25.8-21.9-2.1-1.9-4.1-1.9-6.1.2-1.4 1.5-2.9 2.8-4.2 4.3-14.3 17.4-26.7 36.2-40.2 54.1-3.2 4.2-2.4 7 1.2 10.1 6.5 5.7 12.9 11.4 19.2 17.3 2.1 2 6.8 3.8 3.1 7.8-3.5 3.8-6.6.2-9.7-1.5-.8-.4-1.2-1.6-1.9-2.3-5.3-5-11.3-9.2-16.4-14.6-2.7-2.9-5.6-3.4-8.9.8-5.8 7.3-12.1 14.1-17.7 21.5-8.6 11.4-17.6 22.5-26.8 33.5-3 3.6-3.2 6 .4 9.1 5.8 5 11.3 10.3 16.9 15.5 1.6 1.5 4.4 2.7 2.5 5.5-1.8 2.7-4.6 2.6-7.1 1.1-2.6-1.5-5.3-3.1-7.2-5.2-3.4-3.8-7.9-6.1-11.4-9.7-2.8-2.9-4.5-2.5-7.1.6-10.3 12.6-21 24.8-31.4 37.3-3.8 4.6-7.5 9.3-10.8 14.3-4 6.1-3.7 6.7 1.7 11.6.7.7 1.6 1.2 2.3 1.9 5.5 5.8 12.2 10.2 18.4 15.2 2.6 2.1 2.7 4.4.7 6.9-1.9 2.5-4.1 1.7-6.1.2-2.9-2.2-5.7-4.6-8.6-6.8-6.4-4.7-11.5-11.2-19.1-14.8-7.7 7-12.8 16-19.7 23.7-12 13.3-22.9 27.5-33.6 41.8-2.3 3.1-2.4 5.1.4 7.5 1.8 1.5 3.3 3.3 5 4.9 5.9 5.4 11.5 11.1 18.1 15.6 2.4 1.6 4.3 3.9 2.6 6.7-1.8 2.9-4.8 1.4-7.3.7-1.2-.3-2.5-1.1-3.5-1.9-5-4.4-10.2-8.6-14.8-13.4-8.6-9-9.6-9.3-17.5.5-13.6 16.8-24.9 35.2-35.6 54-1.9 3.3-1.9 6.7 1.4 8.9 4.2 2.8 7 7 11.1 9.8 5.7 3.9 10.7 9 15.5 14 3 3.1 1.5 6.3-2.7 7.3-3.8.8-6-1.2-8.6-3.7-7.4-7.4-15.3-14.3-23.8-20.4-7 10.2-10.1 21-12.2 32.1-.9 4.6-3.7 8.4-3.6 13.4.2 11.9.4 23.8 4 35.3 3.8 12.2 11.3 22.6 21.9 28.6 15.1 8.6 31.7 7.8 48 1.3 14-5.5 26.2-14.1 38.7-21.5-3.3-3.6-6.3-7.2-9.6-10.4-3.6-3.5-7.4-6.7-11.2-10-3.4-2.9-3.7-6.7-1.2-9.7 2.7-3.1 5.3 0 7.6 1.8 1.8 1.5 3.5 3 5.2 4.6 5.2 4.6 10.4 9.2 15.6 13.9 3.6 3.2 6.9 2.9 10.5-.3 16.9-15 33.9-29.8 50.7-44.9 5.8-5.2 5.5-6.3-.5-11.6-4.7-4.2-9.6-8.1-14.3-12.4-3.8-3.5-5.2-7.5-.4-11.6 7.9 4.6 14.1 11.1 20.9 16.9 6.7 5.7 6.6 5.9 13.1.4 1-.9 2-1.7 2.9-2.7 15.3-17.5 31.6-34.1 47.7-50.9 6.5-6.7 6.4-8.4-1.2-13.9-6.5-4.7-12.9-9.5-18.6-15.1-1.8-1.7-3.1-3.7-1-6 1.8-2 4-3.9 6.9-2.5 1.8.8 3.3 2.2 4.9 3.4 6.6 5 13.3 9.9 19.7 15.1 3.4 2.8 5.7 2 8.3-1 7.8-9 15.7-18.1 23.8-26.9 6.9-7.6 15-14.1 20.9-22.6 4.1-5.9 4.4-5.8-1-10.2-7.5-6.1-14.1-13.1-22.3-18.4-2.2-1.4-3.9-3.6-5.5-5.7-1.5-2-.1-3.8 1.2-5.3s2.8-1.5 4.3-.1c8.6 8.4 19.7 13.5 28.5 21.7 5.3 4.9 5.6 4.7 11.3-.6 14.7-13.9 27.6-29.5 41.5-44.1 1.1-1.2 1.8-2.8 2.9-4.1 2.6-2.8 2.5-5.1-.7-7.4-4.5-3.4-9-6.9-13.3-10.6-4.8-4.1-10.5-7.1-14.6-12-2-2.5-2.9-5.5-.7-8.2 2.7-3.3 5.4-1.1 7.8.7 1.9 1.4 3.5 3.1 5.2 4.7 6.5 6.1 13.9 11.3 20.3 17.7 4.3 4.3 6.8 3.7 10.7-1.2 3.3-4.1 6.8-8.2 10.4-12.1 13.3-14.4 26.3-29.1 39.5-43.6 3-3.3 4-5.7-.5-8.8-8.5-5.8-14.9-14.2-24.4-18.8-1.7-.8-3.3-2.3-4.6-3.8-2.3-2.8-5-6.6-2-9.6 2.9-2.9 6.1.4 8.7 2.4 9.8 7.5 19.5 14.9 29.1 22.7 2.9 2.4 5.1 2.8 7.6 0 4.5-4.9 9.3-9.5 13.3-14.8 11.9-15.7 26.6-28.7 39.5-43.5 6.2-7.2 6.8-9.2-.4-14.8-8.9-7-17.8-13.9-26.8-20.7-3.1-2.3-6.6-4.8-3.6-8.8 2.7-3.5 6.6-1.9 9.9.2 1.1.7 2.1 1.6 3.1 2.5 7.5 7.1 16.4 12.4 23.2 20.4 6.1 7.1 7.3 6.8 14-.4 8.6-9.2 17.2-18.5 25.6-28 8.8-9.9 17.3-20.2 26.1-30.2 2.8-3.1 3.2-5.4-.7-8-3.9-2.6-7.4-5.6-11-8.6-6.2-5-13.2-9.1-18.4-15.3-1.8-2.1-3.5-4.4-1-7 2.5-2.6 4.6-.9 6.9.6 9.4 6.2 17.8 13.8 26.6 20.9 6.9 5.5 7.1 5.8 13.3-.8 7.3-7.7 14.2-15.8 21.3-23.8 4.9-5.4 9-11.7 15.1-15.8 9.6-6.5 14.3-16.8 21.6-25.3-4.3-4-7.9-7.5-11.7-10.7-10.1-8.6-20.5-17-30.5-25.7-3-2.6-8-4.7-4.5-10.3.9.2 2.1.2 2.8.7 15.9 13.4 31.9 26.7 47.5 40.3 6 5.2 5.7 6.8.6 13.2-10.7 13.6-23 25.8-34.5 38.7-7.7 8.7-15.3 17.4-23 26.1-3.1 3.5-3.4 6.2 1.3 8.5 3.1 1.6 6 3.8 9.9 6.2 19.7-24.3 41.2-47.2 61.9-70.8 20.6-23.5 42.3-45.8 63.1-70.6-8.1-.4-12.8-4-17.3-8-8.9-8-17.8-15.9-27.7-22.7-4.9-3.4-9.2-7.6-13.4-11.8-3.5-3.5-3.7-9-.9-10.6 3.6-2 5.2 1.8 7.1 3.5 17.7 15.8 38.2 28.2 54.9 47.2 9.4-14.5 18.9-27.7 22.1-44 1.4-6.8 2.3-13.7 1.2-20.7-2.1-14-6.5-27-15.3-38.3-5.1-6.5-7.7-14.6-13.7-20.5-15.9-16-31.7-32.2-50.2-45.4-9.5-6.8-18.8-14.1-29.8-17.5-16-4.8-32-10.5-49.2-8.7-7.1.7-14.8-1.4-21.3 2.6-14.1 8.4-27.9 17.3-34.9 34.3 10.7 4.7 18.2 13.9 27.3 21 6.8 5.2 13.7 10.4 20.3 15.9 2.4 2 4.4 4.4 1.4 7.5-2.8 3-5.1 1.4-7.7-.7-8.6-6.8-17.4-13.3-25.9-20.2-5.1-4.1-10.6-7.9-15.4-12.4-4.7-4.4-11.7-4.7-14.4-.8-3.1 4.5-7.5 7.5-10.7 11.6-13.3 16.8-28.3 32.1-42.7 48-5.7 6.4-11.6 12.6-17 19.3-12.5 15.4-24.8 31.1-37.2 46.7-2.4 3-6.1 5.1-7.3 9.4 4.5 3 7.3 7.7 12.4 10.4 10-11.7 19.9-22.7 29.3-34.2 11.8-14.5 24.8-28 36.2-42.8 2.5-3.2 4.7-2.8 7.6-.6 8.8 6.9 17.1 14.5 25.7 21.7 7.9 6.3 16.8 11.4 21.6 20.6zm-14.4 266c-5.3-.9-8.4-4.8-12.2-8-4.4-3.8-6.3-3.7-9.8 1.1-9.4 13-21.1 23.9-31.6 35.9-6.1 7-11 14.9-18.1 21-7.6 6.5-7.3 6.8.9 13.5 1 .8 1.6 2.1 2.6 3 6.3 5.4 6.7 5.4 12.7-.9 15.2-16.2 29.9-32.8 43.7-50.2 3.9-5 8.9-9 11.8-15.4zm-316.3 351.9c4.7-7.4 11.6-11.5 16.8-17.6 11-12.9 22.1-25.6 33.4-38.3 11.5-12.9 11.6-12.8-2.3-22.2-3.1-2.1-5.1-1.8-7.5 1.1-4.6 5.6-9.4 11.1-14.5 16.3-13.1 13.6-26.3 27.1-39.4 40.7-4.2 4.4-4.2 5.3.5 9.5 3.7 3.4 7.7 6.3 13 10.5zm-96.6-202.5c.2-1.5-.9-2.4-1.8-3.2-3.2-2.9-6.5-5.7-10-8.2-3.2-2.3-5.7-1.9-8.2 1.7-3.8 5.4-8 10.6-12.7 15.3-6.1 6.2-9.7 14.1-15.2 20.6-5.9 7.1-12.4 13.8-18.2 20.9-8.4 10.3-8.1 10.8 3.4 18.5 7.3 4.8 7.3 4.8 13.1-2.4 5.8-7.2 10.2-15.5 16.6-22.4 11.2-12.1 19.9-26.4 31.6-38.1.6-.7.9-1.8 1.4-2.7zm87.7 209.2c-3.5-4.2-8.7-7.1-12.9-11.1-3.4-3.2-6-2.2-8.1 1.1-2.5 4-4.9 7.7-8.7 10.7-10.2 7.9-19.8 16.4-28.9 25.5-5.5 5.5-11.6 10.7-19.9 13.8 5.3 4.6 10 8.7 14.8 12.7 6.8 5.8 6.8 5.8 13.5-.3 11.4-10.6 22.4-21.5 32.5-33.4 5.4-6.7 11.6-12.6 17.7-19zm196.9-214.8c9.3-8.3 17.6-17.8 26.5-26.6 8.6-8.5 16.3-18.2 24.7-27.1 9.9-10.4 9.8-10.5-1.1-19.8-6.2-5.3-6.6-5.4-11.7.5-14.9 17.2-30.4 33.9-46.1 50.5-1.8 1.9-3.1 4.3-4.8 6.4-2.3 2.6-1.7 4.5 1 6.5 3.8 2.9 7.4 6.2 11.5 9.6zm-409.8 137c5.4 2.7 8.9 6.8 13 10.1 5.3 4.2 5.9 4 9.4-2.2 3.4-6.1 6.6-12.3 10.3-18.2 9.3-14.8 18.9-29.4 30-43.2-4.3-3.5-8.2-6.5-12-9.8-4-3.4-6.8-2.8-9.7 1.6-4.7 6.8-10.2 13.1-14.7 20-8.9 13.5-17.3 27.4-26.3 41.7zm529-300c1.9 1.4 3.2 2.4 4.5 3.4l3.9 3c7.8 6 8.1 5.9 14.5-1.1 17.1-18.9 31.8-39.8 49.6-58 3.1-3.2 3.6-5.2-.2-7.8-1.4-.9-2.6-2.1-3.9-3.1-5.6-4.2-5.7-4.3-10.6.7-6 6.2-11.7 12.6-17.6 18.9-13.3 14.2-27.6 27.7-40.2 44zM1677 714c20.3-18.4 36.2-40.4 55.4-59.4-5.2-5.2-9.9-9.3-16.3-12.7-16.9 20.1-36.9 37.5-53.2 58.4 2.5 6.6 9 9.1 14.1 13.7zm-124.8-208.5c-12 14.3-23.9 28.8-36.2 42.8-13.4 15.2-13.5 15.4 1.8 28.3.7.6 1.8.9 3 1.4 1.2-1.4 2.4-2.9 3.7-4.3 12.1-13.2 20.8-28.9 32.3-42.6 11.8-14.1 16.1-12.4-4.6-25.6zm222.5 70.3c-2.8 4.8-7.7 7.8-11.3 12.1-9.8 11.6-19.1 23.6-29.7 34.5-15.2 15.5-10.2 11.7 1.8 22.8 2.3 2.1 3.8 1.7 5.8-.5 6.7-7.7 13.6-15.4 20.4-23 10-11.2 20.1-22.4 29.9-33.4-7.1-2.1-10-9.6-16.9-12.5zm-215.6-78.3c2.8 2.5 4.8 4.3 6.8 6 7.8 6.6 8.2 7 14.8-1.1 14.3-17.6 28.2-35.6 42.2-53.5.6-.8 1.1-1.7 1.4-2.6.3-.9.6-1.9.3-2.7-2.5-6.4-12.6-8.8-16.1-3.2-6.8 10.5-16.3 18.9-23.2 29.3-.9 1.3-2.3 2.4-3.4 3.6-7.4 7.8-14.8 15.7-22.8 24.2zM1812 214.3c-2.3-2.2-4.8-5.3-8-7.3s-5.1.9-7.2 3.2c-5.8 6.4-11.6 12.7-16.4 19.9-8.5 12.7-19.7 23.2-28.6 35.6-1.1 1.6-3.3 3-2.7 5 1.1 3.8 5.1 4.8 8 6.9 3 2.1 4.2-.3 5.6-1.9 6.4-7.6 12.7-15.3 19.1-22.9 9.3-11.1 18.6-22.3 28-33.3 1-1.5 2.2-2.5 2.2-5.2zm-122.9 149c1.7.2 3.1-1.1 4.2-2.9 8.8-13.7 20.5-25 30.3-37.9 5.6-7.3 10.8-14.8 17.9-20.9 3-2.6 5.2-6 7.5-9.2 1.8-2.4 1.4-4.8-.5-7.3-4.3-5.5-6.9-5.7-11.6.1-12 15-23.7 30.2-35.5 45.4-5.7 7.3-11.4 14.6-16.9 22.1-2.8 4-.2 10.3 4.6 10.6zm-57.4 72.4c2.1-1.6 4.3-2.6 5.7-4.4 14.8-18.2 29.6-36.4 44.3-54.7 2.9-3.6 2.1-5.5-2.5-9.9-3.9-3.7-5.9-.8-8.1 1.6-16 17.6-30.2 36.6-44.5 55.5-2.7 3.5-2.7 6.3.9 8.9 1.6 1.3 3.3 2.3 4.2 3z"/><path fill="#FFF" d="M307.2 1984.5c2.7 2.4 5.4 4.9 8.2 7.3 2.6 2.3 5.7 3.4 9 3.9 1.3.2 2.6-.3 3.3-1.6.7-1.3.6-3-.5-3.7-13-8.8-18.2-23.3-26.2-35.7-5-7.7-9.5-15.5-9.7-25.5-.1-8.5-3.2-16.8-4.5-25.3-3.6-23.6.2-45.7 14.3-65 8.9-12.1 21.8-19.1 37.3-20.3 2.8-.2 5.3-.1 7.6 1.5 5 3.5 8.8 3.1 13.8-1.3 8.1-7 18.6-7.3 28.2-4.5 13.6 3.9 17.2 16.7 9.6 30.8-4.6 8.5-9.5 16.7-14.5 25-5.5 9.2-9.5 19.1-11.6 29.5-3 14.4 1.5 27.4 9.5 39.3 1.9 2.8 2.4 8.2 7 7.4 6-.9 3-6.9 3.1-9.9.6-17.5 10.8-30.1 20.9-42.6 6.2-7.7 26.5-6.9 33.3-.3 2.8 2.8 4.7 5.6 3.4 10.5-2.1 7.5-5.2 14.3-9.3 20.7-2.8 4.5-5.3 9.2-8.2 13.7-4.7 7.3-3.9 14.2.3 21.5 17.8 30.8 17 62.7 3.9 94.5-7.7 18.8-23.9 30.6-42.8 36-24.5 7-47.6 17.8-72 25-19.4 5.7-38.8 10.3-59.2 11.5-10.9.7-21.8 1.2-32.7 1.7-14.8.7-29-3-43.6-4.3-14.6-1.3-28.2-6.9-42.5-9.5-2.7-.5-4.8-2.1-7.2-3.2-32.4-15-58.4-37.3-78.1-67.2-6.6-10-14.5-19-20.6-29.3-16.8-28.3-24.8-58.8-23-91.8 2.2-39.6 13-76.9 30-112.6 11.6-24.4 25.8-47.1 42.9-68 2.5-3 3.6-5.6.7-9.6-2.4-3.3-3.4-7.9-3.9-12.1-1.3-10.2-4.5-19.9-5.2-30.2-1.1-15.2-3.7-30.4-3.9-45.6-.2-23.5-1.2-47.1.9-70.7.5-5.2-.4-10.3-.3-15.5.6-23.8 3.4-47.3 6.1-70.9 2.3-19.4 5.7-38.6 8.4-57.8 3.6-25.3 10.7-49.8 17.3-74.4 5.9-22.1 13.7-43.5 21.4-65 7.7-21.4 15.8-42.7 27.1-62.6 5.9-10.3 12.1-20.7 16.8-31.4 12-27 29.8-50.1 46.2-74 12.9-18.8 29-35.3 44.4-52.2 26.8-29.4 55.9-56.4 86-82.4 38.9-33.7 81.1-62.9 126-88.2 12.3-6.9 24.3-14.8 36.8-21.4 26.8-14.2 54-27.6 82.6-38.2 25.7-9.5 51.5-19.1 77.6-27.5 19.1-6.2 38.8-10.7 58.6-14.3 16.2-3 32.5-5.4 48.7-9 13.1-2.9 26.5-4.3 39.8-6.1 24.5-3.4 49.3-4.7 73.9-5.7 26.2-1.1 52.5-1.7 78.6 1.2 2.6.3 5.3.3 8 .3 26.6-.5 52.6 5 78.9 8.3 22.1 2.7 43.4 9 64.9 14.1 21.5 5.1 42.4 12.4 63.1 20.2 9.2 3.5 18.5 7.1 27.8 10.4 18.4 6.6 35.8 15.5 53.2 24.2 17.4 8.7 34.2 19 50.2 30.3 6.6 4.7 6.2 4.5 2.8 11.9-12.4 27-31.6 49.6-48.7 73.4-5.8 8.1-11.9 16-17.6 24.1-10.7 15.2-24.7 27.8-35.2 43.1-.8 1.1-1.6 2.1-2.6 3-2 1.9-1.1 3.7.2 5.2 1.7 2.1 3.7 1.1 5.1-.4 5-5.4 10-10.7 14.6-16.3 14.2-17.3 28.5-34.6 42.3-52.3 15.7-20.1 33.9-38.3 46.5-60.7 9.1-16.1 16.7-32.8 21.9-50.7 6.6-23 10.2-46.4 13.6-70 3-20.6 8-40.8 17.3-59.7 1.5-3 2.9-5.9 5.9-8.2 4.5 2.6 8.3 6.2 12.6 9.2 4.8 3.3 5 6.9 2.3 10.9-11.2 16.8-13.5 35.5-13 55.1.4 15.7 1.3 31.1 10.1 44.9 5.9 9.3 13.6 15.5 24.2 19.3 19.4 7 37.2 3.1 56-3.3 11.7-4 20.5-11.4 30.4-17.7 8.1-5.2 8.1-3.7 12.4.9 4.3 4.6 9.2 8.5 14.7 13.5-8.9 8.8-17.5 17.3-28.3 22.9-27.4 14.2-56.3 24.8-85.5 34.6-14.9 5-27.9 13.6-41.7 20.8-29.3 15.2-52.1 38.3-75.2 61.1-11.3 11.2-22.6 22.3-34 33.4-8.2 7.9-15.2 16.7-22.5 25.3-1.5 1.8-3.5 3.8-1.4 6.1s4.9 1.8 7.3.2c1.6-1.1 3.1-2.5 4.4-4 15.9-19.2 34.3-35.8 51.9-53.2 17.3-17.1 35.1-33.4 54.5-47.9 7.1-5.3 15-9.7 22.3-14.7 3.3-2.3 6-1.8 8.9.6 9.4 7.8 18.8 15.5 26.9 24.9 10 11.5 19.9 23 30.5 34 8.8 9.1 15.9 19.5 24.5 28.7 9.2 9.9 17.2 20.9 25.4 31.8 16.9 22.5 33.3 45.4 47.9 69.6 12.7 21 24.2 42.5 34.6 64.7 17.2 36.8 33 74.2 44.4 113.2 7.3 24.7 14.2 49.5 18.4 75.1 2.3 14.3 4.1 28.7 7.5 42.8 1.2 5.1-.8 9.7-.1 14.6 3.8 27 4.5 54.2 5 81.4.3 17.6-1 35.3-2.3 53-1.1 14.5-3.4 28.9-4.9 43.4-1.2 11.4-3.9 22.8-6.8 33.9-4.8 17.9-7.4 36.3-13.4 53.9-1.7 5-3.8 9.8-5.7 14.8-6.7 17.5-11.6 35.8-21.8 51.9-4.1 6.5-1.8 10.2 6 10.7 3.6.2 7.5.2 10.9-.7 18-5 34.5-13.1 47.9-26.5 3-3 5.2-8.4 9.5-8.1 5 .4 10.5 1.2 15.2 3.8 18.8 10.5 37.4 21.6 54 35.3 17.5 14.5 33.7 30.5 45.4 50.7 6.8 11.7 14.5 22.9 20.8 34.9 8.1 15.5 10.4 31.1 3.6 47.8-5 12.3-9.5 24.8-17.3 35.7-5.8 8.1-12.2 15.5-19.7 21.8-6.9 5.7-13.8 11.4-20.7 17-2.3 1.8-3.1 3.3-2.4 6.7 1.5 6.8 2.4 13.7 3.5 20.5 2.2 13.4 2 26.7-1.8 39.4-10.5 35.4-32.6 59.5-69.9 67.4-18.3 3.9-36.8 5.7-55.4 3.5-22.2-2.7-42.3-10.7-57.4-28.4-5.6-6.6-7-14.9-1.1-23 8.1-11.1 9.7-23.9 10.8-36.6 1.2-13.8 2.1-28-3.1-41.4-1.3-3.4 1.6-8.6-2.2-10-4.5-1.6-3.9 5.1-7.2 6.8-4.7 2.5-6.2 7.3-8 12-6 15.8-12.6 31.5-21.6 45.7-12.4 19.5-29.2 34.9-48.5 47.8-12.5 8.4-25.6 15-39.9 19.8-7 2.3-14.2 2.7-21.3 4.2-25.4 5.5-50.7 3.2-76.2.4-24.4-2.6-47-11.1-69.4-19.6-22.2-8.4-42.9-20.5-61.3-36.1-5.1 7.1-5.1 7.3.3 12.1 1.9 1.7 4.5 2.9 5.5 5.6-28.1 19.8-120.7 56.9-148.2 56.6.6-6.4 4.7-11.5 6.8-17.3 12.2-34 16.4-68.9 13.9-104.7-2-29.1-10.3-56.5-22.9-82.8-3.7-7.7-7.6-15.3-11.8-22.8-1.9-3.5-4.3-5.4-7.8-3-2.8 1.9-4.4 4.5-2.2 8.5 10.9 19.4 19 40.2 24.7 61.6 7.4 27.4 12.2 55.4 7 84.2-1.8 9.6-1.8 19.6-4 29.3-6.8 29.7-18.2 57.4-35.9 82.2-11.4 16-25.3 29-43.6 37.2-8.4 3.8-16.7 8-24.9 12.2-16.5 8.3-34.1 12.3-51.9 16.2-18.9 4.1-38.1 4.5-57.2 6.2-15.6 1.4-31 .9-46.4-.9-17.3-2-34.5-4.8-51.1-10.7-8.3-2.9-17.1-5.2-25.7-6.9-27.8-5.5-51.9-18.8-75.8-32.9-4.3-2.5-8.3-3.5-13-3.6-10.3-.3-20.6.8-30.8-1-29.2-5.3-56.7-14.6-81.8-30.9-10-6.5-20.4-12.1-30-19.2-7.4-5.5-9.8-13-12.1-20.9-.5-1.6-.7-3.3-.6-4.9.5-7.8-3-12.9-9.8-16.8-7.6-4.3-12.9-11.2-16.9-19-1-2-1.3-3.4-.2-5.5 3.5-6 6.4-12.3 10.8-17.8 3.2-4.1 6.4-4.9 11-1.9 10.8 7.3 22.4 12.4 35.4 15.1 6.8 1.4 12.3.2 17.9-3.2 2.5-1.6 3.4-3.2 0-4.9-9.4-6.9-18.2-14.4-25.4-23.7-6.9-8.9-3.5-23.8 6.5-28.9 3.7-1.9 6.4.8 9 2.7 11.6 8.5 24.1 15.4 37.3 20.9 15 6.3 30.4 11.3 47.2 8.6 4.6-.7 9.2-1.6 13.4-3.5 6.7-3 8.5-7.2 4.9-13.5-7.7-13.4-5.8-28-5.8-42.3 0-6.9 2.1-13.7 4.8-20.1 5.5-13.2 17.5-21.8 29.7-21.1 6.4.4 8.1 2.2 7.3 8.7-1.3 11.2-2.6 22.3-1.3 33.5 1.1 9.3 3.7 12.2 12.9 13.4 2 .3 4 .2 6 .3 12.7.9 18.8 5.7 21.5 18 3.1 14.2 6.3 28.4 2.4 43.1-1 3.8 1.5 6.2 5.2 7.1 7 1.8 14 4.2 21.1 5.3 25.6 4 51.3 7.1 77.2 3 20-3.2 37.2-11.2 49.5-28.2 6.8-9.5 7.6-21 10.5-31.8 4.7-17.5 0-34-5.3-50.4-.3-.9-.5-2-1-2.8-1.9-2.9-4.8-5.5-8.1-3.9-2.6 1.3-1.1 4.6-.1 7.2 7.5 19.4 6.2 39.4.2 58.4-4.3 13.7-11.6 26.9-26.2 33.3-9.4 4.1-19.3 6.2-29.4 8-21 3.8-41.6.4-62-4.1-4.5-1-9.4-1.4-13.3-3.5-5.3-2.9-.5-8.4-1.4-12.9-1.9-10.1-4-20.1-7-29.9-2.1-6.8-5.6-12.6-10.3-17.9-4-4.5-8.7-6.9-14.5-7.7-2.3-.3-4.6-.4-6.9-.9-7.7-1.7-8.5-2.6-8.6-10.6-.1-6-.3-12.1.9-17.9 1.1-5.4.7-10.4-.3-15.7-1.6-8.9-6.6-13.7-15.6-14.8-14.4-1.7-25.2 4.5-32.8 16-9.1 13.8-13.6 29.3-14.5 45.8-.7 12.3 2 24.3 2.3 36.6.1 4.4-1.5 6-4.9 7-8.8 2.8-17.6 2.7-26.3-.4-18.2-6.4-35.4-14.6-50.3-27.3-3.4-3-7.8-4.8-11.4-7.6-5.6-4.4-10.7-2.3-15.5 1-9.9 6.8-12 17-10.6 28.1 1.6 12.3 9.4 20.8 18.2 28.6-.9 2.7-3.3 1.5-5 2-7.4-2.1-13.2-7.4-20-10.8-10.6-5.3-17-4.6-24.5 4.3-6.3 7.5-12.6 15.2-16.1 24.7-2.3-.1-4.7.3-6.9-.2-11-2.4-22.3-4.5-24.9-18.3 9.4-16.9 17.5-34.3 18.5-54.1.8-16-1.2-31.7-5.2-47.1-1.4-5.3-4.5-9.7-7.9-13.8-3.8-4.6-3.8-8.9-.7-13.6 5.5-8.3 9.6-17.5 16-25.1 6.1-7.3 5.9-15 1.7-23-5.2-9.8-19.9-18.3-34.1-16.2-16.1 2.4-23.4 13.4-32.2 24-2.5 3-4.4 6.5-7.2 10.6-3.7-6.1-2.7-11.8-1.3-17.4 2.5-10.3 7.5-19.8 11.8-29.4 3.4-7.5 7.6-14.8 10.4-22.5 4.3-11.9 4.7-23.5-5.8-33-7.5-6.8-16.8-7.9-26-6.4-6.7 1.1-13.9 1.5-20.1 5.2-1.9 1.1-3.7.7-5.7.3-12.1-2.7-23.1-.2-34.5 4.6-12.3 5.2-18.8 15.2-25.8 25.1-13.8 19.3-15.2 41.3-13.9 63.9.5 9.2 2.6 18.2 5.8 26.9-7 3.8-14.4 4.6-21.5 5.2-21.5 2.1-42.7-1.2-63.2-7.7-17.8-5.7-31-17.9-41.9-32.3-4.5-6-9.5-13-8.7-21.7.1-1.6-.1-3.5-2-4.2-1.8-.6-3.2.4-4.5 1.5-4.5 4-5.1 9-2.5 14.3 9.6 19.6 25 34 41.6 47.5 1.5 1.2 3.3 2.3 5.1 3 18.8 7.4 37.6 14.2 58.4 13.5 8.9-.3 17.9.5 26.9-.1 3-.2 5.9-.6 8.7-1.6 6.6-2.3 6.7-2.2 9.7 5.8-.6 0-1.2 0-1.9.1-2.4-1.2-5.5-4.5-5.8 1.7-.4 7.3 3.2 13.6 6.4 19.5 7.4 13.6 16.6 26.1 27.6 37.1 1.5 1.6 2.4 4.5 5.3 2.8 2.7-1.6 2.6-4.5 2.1-7.2-.4-2.1-2.5-3-3.6-4.5-3.9-5.3-10.5-8.1-13-14.6 1-1.1 1.8-2.2 2.6-3.4zm1245.7-98.2c-.4-.5-.8-1.1-1.3-1.6 7.9-11.8 15.7-23.6 23.6-35.4 1.5-2.2 3.3-4.2 3.1-7.1-.2-2.6-1.2-4.6-3.6-5.3-2.4-.7-3.4 1.2-4.4 3-9.4 18.2-24.6 31.9-36.9 47.9-1.8 2.4-4.3 3-7.1 2.8-5.9-.5-11.9-.7-17.2-3.9-2.1-1.3-4.2-2-6.5-2-4.5 0-6.1 2.5-3.7 6.5 2 3.4 4.6 6.4 8.7 7.8 7.6 2.6 15.3 4.4 23.3 4.5 12.9 0 25.3-.8 38-5.2 12.8-4.5 24.4-10.1 34.8-18.4 11.3-9 19.6-20.6 27.6-32.5 2-3 3.6-3.6 7.8-3 15.9 2.3 26.3 13.4 37.7 22.6 12.4 10.1 20.9 23.8 30.2 36.6 9.5 13.1 18.2 26.8 25.7 41.2 4 7.7 7.6 15.5 11.4 23.2 1.3 2.7 3.5 4.4 6.4 3.1 3.5-1.5 2-4.2.8-6.6-8-16.3-15.1-33.1-24.1-48.8-12-21.1-27-40.1-44.3-57.2-11.4-11.3-23.1-21.9-38.6-27.4-11.2-4-14.2-3.6-21.2 6.1-5.9 8.1-12.4 15.6-19.4 22.7-13.9 14.3-30.9 23.1-50.8 26.4zM530.3 1602.1c-6.9-10.7-16-10-24.9-8.6-16.2 2.5-30.9 9.5-45.4 16.9-29.6 15.1-53.8 36.2-74.4 61.9-11.7 14.6-20.1 31.1-24.7 49.4-2.8 10.9-6.6 21.6-5.3 33.2.3 2.9-.7 6.6 2.8 7.8 4.8 1.6 3.4-3.8 5.2-5.6 1.7-1.7 2.3-3.7 2.5-6.2 1.4-15.1 7.1-29 13.5-42.2 12.2-24.9 29.5-46.4 50.9-64 13.2-10.9 27.3-20.7 43.4-27.5 17.8-7.6 36-12.6 56.4-15.1zm50.7 376.7c1.4-.4 2.9-1.1 4.5-1.3 2.4-.2 5.2-.2 5.4-3.2.2-3.1-2.8-3.4-5-3.3-4.4.2-7.3-2.3-10.7-4.4-9-5.5-14.8-14.2-21.2-21.9-6.2-7.5-11.8-15.8-14-25.7-.4-2-.6-4.1-3.1-4.6-2.9-.6-3.9 1.8-5.2 3.7-1.6 2.3-2.5 4.6-1.3 7.4 6.6 16 14.4 31.5 28.4 42.5 6.2 5.1 13.4 9.5 22.2 10.8z"/><path fill="#E51106" d="M1995.7 219.4c-3.6 5.6 1.5 7.7 4.5 10.3 10.1 8.7 20.4 17.1 30.5 25.7 3.8 3.2 7.4 6.7 11.7 10.7-7.2 8.5-11.9 18.8-21.6 25.3-6.1 4.1-10.2 10.4-15.1 15.8-7.1 7.9-14 16.1-21.3 23.8-6.3 6.6-6.4 6.3-13.3.8-8.8-7.1-17.2-14.6-26.6-20.9-2.4-1.6-4.5-3.2-6.9-.6-2.5 2.6-.8 4.8 1 7 5.2 6.2 12.2 10.3 18.4 15.3 3.6 2.9 7.1 6 11 8.6 3.9 2.6 3.5 4.9.7 8-8.8 10-17.3 20.2-26.1 30.2-8.4 9.5-17 18.7-25.6 28-6.8 7.2-7.9 7.6-14 .4-6.8-8-15.7-13.3-23.2-20.4-1-.9-2-1.8-3.1-2.5-3.3-2.1-7.2-3.7-9.9-.2-3 4 .5 6.4 3.6 8.8 9 6.8 17.9 13.8 26.8 20.7 7.3 5.7 6.7 7.7.4 14.8-12.9 14.8-27.6 27.8-39.5 43.5-4 5.3-8.9 9.9-13.3 14.8-2.6 2.8-4.7 2.4-7.6 0-9.5-7.8-19.3-15.2-29.1-22.7-2.5-1.9-5.7-5.3-8.7-2.4-3.1 3.1-.3 6.8 2 9.6 1.2 1.5 2.8 3 4.6 3.8 9.4 4.6 15.9 13 24.4 18.8 4.4 3 3.4 5.5.5 8.8-13.2 14.5-26.2 29.2-39.5 43.6-3.6 3.9-7 8-10.4 12.1-3.9 4.9-6.4 5.5-10.7 1.2-6.4-6.4-13.7-11.5-20.3-17.7-1.7-1.6-3.3-3.3-5.2-4.7-2.4-1.8-5.1-3.9-7.8-.7-2.3 2.7-1.4 5.7.7 8.2 4 5 9.8 8 14.6 12 4.3 3.7 8.7 7.2 13.3 10.6 3.2 2.4 3.3 4.6.7 7.4-1.1 1.2-1.8 2.9-2.9 4.1-13.9 14.6-26.8 30.2-41.5 44.1-5.7 5.4-6 5.6-11.3.6-8.8-8.2-19.9-13.3-28.5-21.7-1.4-1.4-3-1.4-4.3.1-1.3 1.5-2.7 3.4-1.2 5.3 1.6 2.1 3.3 4.3 5.5 5.7 8.2 5.3 14.8 12.3 22.3 18.4 5.4 4.4 5.2 4.3 1 10.2-6 8.5-14 15-20.9 22.6-8.1 8.8-15.9 17.8-23.8 26.9-2.6 3-4.8 3.8-8.3 1-6.4-5.3-13.1-10.1-19.7-15.1-1.6-1.2-3.1-2.6-4.9-3.4-3-1.4-5.1.5-6.9 2.5-2.1 2.4-.8 4.3 1 6 5.7 5.6 12.1 10.4 18.6 15.1 7.6 5.5 7.7 7.2 1.2 13.9-16.1 16.8-32.3 33.4-47.7 50.9-.9 1-1.9 1.9-2.9 2.7-6.5 5.5-6.4 5.4-13.1-.4-6.8-5.8-13-12.3-20.9-16.9-4.7 4.2-3.4 8.1.4 11.6 4.6 4.3 9.5 8.2 14.3 12.4 6 5.3 6.2 6.4.5 11.6-16.8 15.1-33.8 29.9-50.7 44.9-3.5 3.1-6.9 3.4-10.5.3-5.2-4.6-10.4-9.3-15.6-13.9-1.7-1.5-3.4-3.1-5.2-4.6-2.3-1.8-4.9-4.9-7.6-1.8-2.5 3-2.2 6.8 1.2 9.7 3.8 3.3 7.6 6.5 11.2 10 3.3 3.2 6.3 6.8 9.6 10.4-12.5 7.4-24.6 16-38.7 21.5-16.4 6.5-32.9 7.3-48-1.3-10.6-6.1-18.2-16.4-21.9-28.6-3.5-11.5-3.8-23.4-4-35.3-.1-4.9 2.7-8.8 3.6-13.4 2.1-11.1 5.2-21.8 12.2-32.1 8.6 6.1 16.5 13 23.8 20.4 2.5 2.5 4.8 4.5 8.6 3.7 4.2-.9 5.7-4.2 2.7-7.3-4.8-5-9.8-10-15.5-14-4.2-2.9-6.9-7.1-11.1-9.8-3.3-2.2-3.3-5.6-1.4-8.9 10.7-18.7 22-37.2 35.6-54 7.9-9.8 8.9-9.5 17.5-.5 4.6 4.8 9.8 9 14.8 13.4 1 .9 2.2 1.6 3.5 1.9 2.5.7 5.5 2.2 7.3-.7 1.7-2.8-.2-5-2.6-6.7-6.6-4.5-12.2-10.2-18.1-15.6-1.7-1.6-3.2-3.4-5-4.9-2.8-2.4-2.7-4.4-.4-7.5 10.7-14.3 21.6-28.5 33.6-41.8 6.9-7.6 12-16.7 19.7-23.7 7.7 3.6 12.7 10.1 19.1 14.8 2.9 2.2 5.7 4.6 8.6 6.8 2 1.5 4.2 2.3 6.1-.2 2-2.5 1.9-4.8-.7-6.9-6.2-5-12.9-9.4-18.4-15.2-.7-.7-1.6-1.2-2.3-1.9-5.4-4.9-5.7-5.5-1.7-11.6 3.3-5 7-9.7 10.8-14.3 10.4-12.5 21.1-24.8 31.4-37.3 2.6-3.1 4.3-3.5 7.1-.6 3.5 3.6 8 5.9 11.4 9.7 1.9 2.2 4.7 3.7 7.2 5.2s5.3 1.5 7.1-1.1c1.9-2.8-.9-4-2.5-5.5-5.6-5.2-11.1-10.5-16.9-15.5-3.6-3.1-3.4-5.5-.4-9.1 9.2-11 18.1-22.1 26.8-33.5 5.6-7.4 11.9-14.3 17.7-21.5 3.3-4.2 6.2-3.7 8.9-.8 5 5.4 11 9.6 16.4 14.6.7.7 1.1 1.8 1.9 2.3 3 1.6 6.2 5.3 9.7 1.5 3.7-4-1-5.8-3.1-7.8-6.3-5.9-12.7-11.6-19.2-17.3-3.6-3.1-4.4-5.9-1.2-10.1 13.6-17.9 26-36.7 40.2-54.1 1.3-1.5 2.8-2.9 4.2-4.3 2-2.1 4-2.1 6.1-.2 8.3 7.6 18.4 13.2 25.8 21.9 1.3 1.5 2.6 3.2 4.7 3.4 2.9.3 6.4 1 8-2.3 1.5-3-.9-5-3-6.7-9.6-7.7-19.2-15.3-28.9-22.8-3.3-2.5-4.2-4.5-1.1-8 18.5-21.7 36.4-43.9 53.7-66.6 1-1.3 2-2.7 3.6-4.8 10.4 8.5 20.1 16.3 29.5 24.5 2.4 2 4.8 3.5 7.7 4.4 1.7.6 3.3.5 4.5-1 1.2-1.5.8-3.2.2-4.7-1.1-2.9-3.5-4.8-5.8-6.7-7.8-6.7-15.8-13.3-23.6-20-5.7-4.9-5.3-5.4-.6-11.8 12.5-16.9 27.1-32 40.2-48.3 8.5-10.6 8.9-10.4 18.7-1 5.3 5.1 11.8 8.6 16.7 14.2 1.6 1.9 4 2.3 6.4 2.2 1.8-.1 3.3-.7 4.1-2.3.9-1.8 0-3.1-1.1-4.4-5.7-6.6-13.2-11.1-19.4-17.1-1.4-1.4-3.2-2.4-4.6-3.8-5.1-5-5-5.7-.6-11.4 9.1-11.9 19.6-22.5 29.2-33.8l25.5-30.6c3.8-4.6 5.3-5.8 10.4-1.3 8.7 7.7 18.2 14.6 26.8 22.3 4.2 3.8 9.5 6 13.7 9.7 1.4 1.3 3.1.1 4.5-1 5.2 4.8 10.5 9.7 15.7 14.5-1.4 8 4.2 13.2 8.1 18.8-3.1 3.4-6.7 4.6-10 6-4.6 1.8-9.4 3.2-14.2 4.5-3.3.9-4.1 3.1-4 5.9.2 3.2 2.8 3.4 5 3.6 5.4.5 10.4-1.4 15.4-3.2 9.4-3.4 17.4-9.6 26.3-14 4.3 4 8.7 7.9 13 11.8zm-80 21.9c-11.1-.2-21.9 9.8-21.5 18.4.1 3.2 3.3 6.5.6 9.4-2.6 2.8-6.9 2-10.2 3.3-1.5.6-3.3.4-4.9.8-11.8 3.1-14.1 8-9.1 18.8 1.1 2.4 1.8 5.1 3.4 7.1 4.3 5.2 7.9 11.4 16.5 10.6 8.5-.8 13.1-5 15-13.1 1-4.2 3.7-8.2 3.7-12.3 0-6.9 3.7-10.4 8.9-13 5.1-2.5 8.4-6.6 10.9-11.2 4.4-8 .7-15.7-8.1-17.8-2.3-.5-4.6-.9-5.2-1zm-206.2 272.8c0 1.3.3 2.7 0 4-1.6 6.5-5.2 11.5-12 13.3-5.8 1.6-9.3-2.4-12.5-6.2-1.9-2.2-3.3-4.9-5-7.4-1.3-1.9-2.4-4-4.6-5.2-1.8-1-3.6-2-5.5-.3-1.6 1.4-2 3.2-1.1 5.4 2.5 5.9 5.4 11.5 10.1 15.9 10.5 9.8 20.4 10.2 30.1 1.5 10.8-9.6 12.2-27.2 2.9-36.5-8.9-9-8.9-9 .5-17.5.7-.7 1.5-1.3 2.2-2.1 2.8-3.1 6.6-3.1 8.8-.5 4.9 5.6 12 8.2 17 13.6 1.4 1.5 2.9 2.8 5.1 2.7 2.2-.1 4.1-.5 3.4-3.4-.8-3.1-.7-6.9-4.9-7.9-2-.5-3.5-1.4-4.8-3.1-4.4-6.1-11.5-8.9-17.2-13.3-3.8-2.9-7.2-2.4-10.3 1.6-2 2.6-4.8 4.6-7.1 7-3.9 4.1-7.9 8-11.4 12.4-4.9 6.1-3.9 9.1 3.5 11.3 1.3.4 2.6.5 3.8 1 6.2 2.3 9.2 7 9 13.7zm-121 84.2c13.9 6.1 21 18.2 31.5 27.6-4.6 2.2-8.1 3.3-11.8 3.3-4.4 0-8.5 1.6-12.4 3.3-4.3 1.8-5.1 4.3-1.8 7.3 2.8 2.6 3.8 5.2 3.8 8.7.1 9.2-4.6 15.6-14.3 19.4-8.8 3.4-14.2.6-21.2-6.5-2.7-2.8-4.6-6.5-6.2-10.1-1.2-2.7-1.4-6.8-5.4-5.4-3.7 1.3-3.3 5.4-2.7 8.7.2 1.3.9 2.5 1.6 3.6 4.2 6.4 8.7 12.8 15.7 16.2 8.3 4 18 5.7 25.8.8 9.4-5.8 16.5-14.6 15-27.2-.2-1.3-.2-2.6-.4-4-.5-4.3.9-6.8 5.8-7.2 4.6-.4 9.3-1.1 13.6-2.6 7.8-2.6 8.8-5.6 4.8-12.6-1-1.7-2.1-3.5-3.7-4.6-9.5-6.7-16.6-16.1-26.2-22.8-6.8-4.7-6.6-5.1-11.5 4.1zm183.2-178.9c9-5.6 16.7-13.9 29.1-11 1.8.4 3.3-.6 4-2.3 1-2.3-.2-4.1-2-4.9-5-2.1-10.2-2.7-15.6-1.5-14.4 3.3-26.3 11.4-36.2 21.6-6.7 6.9-11.5 15.5-7.9 27 4.2 13.3 18.1 21 29.8 13.8 6.4-3.9 11.8-9.4 14-17.3 2.2-7.7-.1-13.5-5.8-18.6-2.7-2.5-6.8-2.7-9.4-6.8zm-270.4 308.7c9.6-2.2 17-5 25.1-5.5 6.3-.4 12.1-3.3 17.7-6.3 10.5-5.6 12.8-14.5 8.2-26.1-6.3-15.9-17.7-15-29.2-11.3-3 1-4.2 3.4-3.2 6.4 1.1 3.1 3.4 4 6.3 2 3.1-2.1 6.5-.9 9.7-.5 5.6.8 9 4.5 10.4 9.5 1.3 4.9-1.2 9.1-5.2 12-3.3 2.3-6.9 3.9-10.8 4.9-10.6 2.8-21.3 5-32.1 6.9-3.4.6-8.4-.2-9.4 4-1.1 4.3 3 7.2 6.1 9.5 8.1 5.8 15.7 12.2 22.9 19.1 2.3 2.3 5 3.2 7.8 3.9 1.4.3 2.6-.3 3.4-1.5.7-1 .2-2-.4-2.8-1.5-1.8-2.9-3.6-4.7-5.1-7.1-5.9-13.2-12.9-22.6-19.1zm363-389.5c-2.5 4.1-6.4 4-9 5.9-8.5 6.2-16.9 10.6-26.4 1.2-2.2-2.2-4.9 0-4.8 3.4.1 2.3 1.4 3.5 3 4.7 4.1 3.1 2.6 5.4-1.3 7.2-7.3 3.4-12.7 9.6-19.6 13.7-2.5 1.5-3.8 3.9-1.1 6.6 2.2 2.1 4.5 2.4 7 .1 3.2-2.9 6.5-5.7 10.1-8.1 7.6-5.1 14.2-13 25.3-8.4 2.7 1.1 4.4-1.1 2.7-4.1-1.8-3.3-.3-4.7 2.6-6 4.8-2.3 9.5-4.9 14.1-7.5 7.4-4.3 8.4-7.5 3.4-14.3-5.3-7.3-11.8-13.5-18.6-19.4-2.2-1.9-5.2-3-7.9-4.2-2-.9-3.9-.7-5.1 1.5-1.1 2.2-.1 3.9 1.4 5.3 1 .9 2.2 1.5 3.4 2.1 9 5 14.1 13.5 20.8 20.3zm-185.4 221.2c-5.4-2.1-9.9-1.2-13.7 2.9-2.5 2.6-4.8 5.5-7.6 7.9-3.2 2.7-5 8-9.5 8-3.6 0-4.3-5.5-7.6-7.1-.3-.1-.6-.3-.8-.6-6.2-5.5-6.5-6.3-.6-12.6 4.7-5.1 10-9.6 14.9-14.4 2-2 3.4-4.3.6-6.8-2.4-2.2-4.3-.6-6.1.9-7.1 5.9-14.3 11.8-20.5 18.7-5.3 5.9-5.1 11.2.7 16.4 3.2 2.9 6.6 5.5 9.9 8.2 3.4 2.8 4.2 5.6 1.1 9.3-2.6 3-4.8 6.3-6.9 9.6-1.3 2-2.1 4.7 0 6.4 2.2 1.8 4.1 0 5.9-1.7 5.5-5.1 8.4-12.9 16.2-15.6.5-.2.7-1.1 1-1.7 3.2-6.8 8.6-11.4 14.2-16.1 3.5-3.1 8.1-5.8 8.8-11.7zm-205.3 209.9c-7 8-14 16-20.9 24-3.5 4-6.8 8.1-10 12.3-1.7 2.2-1 4.4 1.1 6.1 1.9 1.5 3.7.9 5.3-.6 1-.9 1.8-1.9 2.7-2.9 12.1-13.4 22-28.9 36.7-39.9 1-.8 2-1.8 2.7-2.9 1.2-1.8 1.1-3.8-.3-5.5-1.2-1.6-2.7-3-5-2.2-5.4 1.9-10.9 2.4-16.5 2.6-1.8.1-3.3 1.1-3.5 2.9-.4 2.6 1.2 3.4 3.5 3.6 1.3.3 2.7.3 4.2 2.5z"/><path fill="#FCFCFC" d="M1955.9 186c-5.2-4.8-10.5-9.7-15.7-14.5-4.8-9.2-13.7-14.3-21.3-20.5-8.7-7.1-16.9-14.8-25.7-21.7-2.8-2.2-5.1-2.5-7.6.6-11.5 14.8-24.4 28.3-36.2 42.8-9.4 11.5-19.3 22.6-29.3 34.2-5.1-2.7-7.9-7.4-12.4-10.4 1.2-4.3 4.9-6.4 7.3-9.4 12.3-15.6 24.6-31.2 37.2-46.7 5.4-6.7 11.3-12.9 17-19.3 14.3-15.9 29.3-31.2 42.7-48 3.2-4.1 7.6-7.1 10.7-11.6 2.7-3.9 9.7-3.5 14.4.8 4.9 4.5 10.3 8.3 15.4 12.4 8.5 6.9 17.4 13.4 25.9 20.2 2.6 2.1 4.8 3.6 7.7.7 3-3.1 1-5.5-1.4-7.5-6.6-5.5-13.5-10.6-20.3-15.9-9.2-7.1-16.6-16.3-27.3-21 7-17 20.8-25.9 34.9-34.3 6.5-3.9 14.2-1.8 21.3-2.6 17.3-1.8 33.3 3.9 49.2 8.7 11.1 3.4 20.4 10.7 29.8 17.5 18.5 13.2 34.3 29.4 50.2 45.4 5.9 6 8.6 14 13.7 20.5 8.8 11.3 13.2 24.3 15.3 38.3 1 7 .1 14-1.2 20.7-3.3 16.3-12.8 29.4-22.1 44-16.7-19-37.2-31.4-54.9-47.2-1.9-1.7-3.5-5.5-7.1-3.5-2.9 1.6-2.6 7.1.9 10.6 4.2 4.2 8.5 8.4 13.4 11.8 9.9 6.8 18.8 14.7 27.7 22.7 4.5 4 9.2 7.6 17.3 8-20.7 24.8-42.5 47.1-63.1 70.6-20.7 23.6-42.2 46.5-61.9 70.8-3.9-2.5-6.7-4.6-9.9-6.2-4.6-2.4-4.4-5.1-1.3-8.5 7.7-8.6 15.3-17.4 23-26.1 11.5-12.9 23.8-25.1 34.5-38.7 5.1-6.4 5.4-8-.6-13.2-15.6-13.7-31.6-27-47.5-40.3-.7-.6-1.8-.5-2.8-.7-4.3-3.9-8.7-7.9-13.1-11.8.2-2.9 2.7-4.3 4.2-6.4 6.2-8.3 11.4-17.1 7.2-28-3.9-10.2-9.3-11-16.7-8.4-10.6 3.7-18 10.2-21.5 21.1zm64.2-42.6c.1 7 3.3 12.7 8.2 14.9 5.6 2.5 9.4-1.3 13.2-4.2 9.9-7.6 16.7-17.6 22.6-28.5 2.9-5.4 2.1-9.5-1-13.7-3.2-4.4-7.6-4.3-12.4-3.1-3 .7-5.5 1.9-8.1 3.6-9.1 6-14.8 14.9-20.7 23.7-1.4 2.1-2.5 4.7-1.8 7.3zm17.5-59.2c-.1-3-2.5-4-4.7-4.1-4-.3-7.8.9-11.2 3.1-2.8 1.7-5.2 3.5-1.9 6.9 2.2 2.3-.1 3.4-1.2 4.8-6.2 7.3-12.5 14.5-18.5 22-1.6 2-3.8 3.8-4.3 6.6-.4 2.1-.4 4.2 1.7 5.2s3.9.1 4.9-1.9c2.1-4.2 5.4-7.5 8.5-10.9 8.4-9.3 16.5-18.9 24.8-28.2.8-1.3 1.8-2 1.9-3.5z"/><path fill="#8CCBEE" d="M437.7 2070.7c2.6 13.8 13.9 15.9 24.9 18.3 2.2.5 4.6.2 6.9.2-2 9.3 3 15.9 9 21.8 4.5 4.4 9 8.8 14.6 11.9 3.2 1.7 5.3 4.1 4.4 8-1.2 5.6 3 10.1 2.8 15.5-1.2 1.1-3.6 2.8-3.4 3.3 2.3 5.1-4 8.7-1.9 14.4 1.6 4.3-.9 10-.6 14.9.8 14.1-.1 28.3.4 42.4.3 10.7-.6 21.3.2 32 .7 9.7 0 19.4-.2 29.1 0 .3-1.1.6-1.6.9-27.5-1.8-54.8-5.7-81.4-13.3.9-1.8 3.6-1.5 3.3-5.1-.7-10.7-.2-21.5-.1-32.2.2-15.9.3-31.7.2-47.6-.1-20.3.2-40.5-.3-60.8-.2-9.9 2.6-20.7-5.2-29.3 1.1-2.7 4-3.3 6.1-4.8 8.1-5.6 15.5-12 21.9-19.6z"/><path fill="#8BC9ED" d="M377.8 2259.5c-11.1-1.4-20.8-6.2-30.2-12-2.6-1.7-4.6-3.7-6.2-6.3-5.8-9.2-5.3-12.3 2.8-19.4 1.5-1.3 2.7-2.9 4.3-4.1 2-1.6 5.4-2.8 4.2-5.7-1-2.3-4.2-3-7-3.1-12.3-.7-24.5-1.1-36.8-2-22.9-1.6-45.2-5.8-67-13.3-14-4.8-26.8-10.9-38.4-20.2-11.7-9.4-16.8-21.5-18.6-36.1 67.4 5.7 131.8-4.3 193.2-32.3 4.9 3.4-1.9 4.7-1.4 8.1 1.9 13.1.9 26.5.8 39.7-.1 13.8 0 27.7-.4 41.6-.4 13.8-.3 27.7.1 41.6.1 7.7-1.6 15.7.6 23.5z"/><path fill="#8AC9EC" d="M579.8 2204.8c11.4 2.1 22.2 6.6 33.6 8.8 12.7 2.5 25.5 4.2 38.4 5 9.2.6 17.6 2.4 25.5 7.3 13 8.1 27.4 13.2 41.7 18.4 8.3 3 17.5 1.2 25.8 4.7 1.2.5 2.6.3 3.3 2 .1 2.8-2.6 2.6-4.1 2.9-24 6.2-47.7 14.1-72 17.9-25.8 4-51.4 9.8-77.7 10.9-5 .2-9.9 1-14.9 0-.1-6.7 0-13.4-.4-20-.7-10.7 0-21.5-.2-32.2-.1-8.5-1-17.2 1-25.7z"/><path fill="#F6F9FA" d="M377.8 2259.5c-2.2-7.8-.5-15.8-.7-23.6-.4-13.8-.4-27.7-.1-41.6.4-13.9.3-27.8.4-41.6.1-13.2 1.1-26.6-.8-39.7-.5-3.4 6.4-4.7 1.4-8.1 3.2-3.7 7.1-1.8 11.1-1.6.4 7.9 1.2 15.6.9 23.1-.7 17 1.9 33.8 1.5 50.7-.2 6.8 1.4 13.2 6.1 18.5 3.7 4.3 5 8.2-.2 12.6-4.2 3.6-4.9 9.2-3 13.8 2.4 5.9 4 11.8 4.4 18.1.1 1.2 1.1 2.3 1.7 3.5 4.7-1.4 6.6-4.1 5.5-8.9-.6-2.2-.2-5-1.3-6.8-4.9-7.7-1.2-14.6 3-20.2 3.7-5 3-9.1-.4-12.3-7-6.6-7.8-14.6-7.7-23.5.3-21.9.1-43.8.1-65.7 0-9.1.1-9.1 10.1-11 7.8 8.7 5 19.4 5.2 29.3.4 20.3.2 40.5.3 60.8.1 15.8 0 31.7-.2 47.6-.1 10.7-.6 21.5.1 32.2.2 3.6-2.4 3.3-3.3 5.1-11.7-2.9-23.3-5.6-34.1-10.7z"/><path fill="#FCFCFC" d="M493.2 2283.5c.6-.3 1.6-.6 1.6-.9.2-9.7.9-19.5.2-29.1-.8-10.7.1-21.3-.2-32-.5-14.1.4-28.2-.4-42.4-.3-5 2.2-10.7.6-14.9-2.1-5.7 4.1-9.3 1.9-14.4-.2-.5 2.2-2.1 3.4-3.3 3.5 5.5 5.6 12 10.8 16.3 2.2 1.8 2.1 3.8 1.3 6.2-1.9 5.8-.7 11.2 3 16 3.2 4.2 3.4 7.9 1 12.8-4.5 9.2-4.7 18.6 2.1 27.2 3.8 4.8 3.4 10.6 3.6 16.2.1 2.3-.2 4.6-.2 7 0 1.8.9 3.6 2.5 3.9 2.2.4 3.6-1.3 4.1-3.4 2.6.8 3.4 2.3 3.2 5.2-.8 11-.8 22 .1 33-13 .1-26.1 1.4-38.6-3.4z"/><path fill="#F6F9FA" d="M579.8 2204.8c-2 8.5-1.1 17.2-.9 25.7.2 10.7-.5 21.5.2 32.2.4 6.6.3 13.3.4 20-2.4 1.1-4.5 2.7-7.3 2.6l-28.5-.9c.7-3.4-3.6-4.9-3.1-8.1 1.7-9.7.2-19.5.5-29.2.4-16.4.7-32.9-.1-49.3-.2-5.2 2.1-4.4 4.9-5 .8 13.8 1.3 27.7 2.5 41.5.6 7.6 1.5 15.1 1.3 22.8 0 1.3.2 2.7.9 3.8.8 1.4 2.2 2.6 4.1 2.1 1.6-.5 1.6-1.9 1.6-3.2-.2-9 .4-18-.8-26.8-1.7-12.9-1.1-25.7-1.7-40.2 9.3 3.8 18 6.9 26 12z"/><path fill="#F7F7F7" d="M1925.8 437.5c-2.9 6.4-7.9 10.5-11.8 15.4-13.8 17.4-28.4 34.1-43.7 50.2-6 6.3-6.4 6.3-12.7.9-1-.8-1.6-2.1-2.6-3-8.2-6.7-8.5-7-.9-13.5 7.1-6.1 12.1-14.1 18.1-21 10.5-12 22.2-22.9 31.6-35.9 3.5-4.8 5.4-4.9 9.8-1.1 3.7 3.2 6.9 7.1 12.2 8zm-316.3 351.9c-5.2-4.2-9.3-7.1-13-10.4-4.7-4.2-4.7-5.1-.5-9.5 13.1-13.6 26.3-27.1 39.4-40.7 5-5.3 9.8-10.7 14.5-16.3 2.4-2.9 4.4-3.2 7.5-1.1 13.8 9.3 13.8 9.3 2.3 22.2-11.3 12.6-22.5 25.4-33.4 38.3-5.2 6-12.2 10.1-16.8 17.5zm-96.6-202.5c-.5.9-.8 2-1.4 2.7-11.7 11.7-20.4 26-31.6 38.1-6.4 6.9-10.7 15.1-16.6 22.4-5.8 7.2-5.8 7.3-13.1 2.4-11.5-7.6-11.8-8.2-3.4-18.5 5.8-7.2 12.3-13.8 18.2-20.9 5.5-6.6 9.1-14.5 15.2-20.6 4.6-4.7 8.8-10 12.7-15.3 2.5-3.5 5-4 8.2-1.7 3.5 2.6 6.7 5.4 10 8.2.8.8 2 1.7 1.8 3.2zm87.7 209.2c-6.1 6.4-12.3 12.3-17.8 18.9-10 11.9-21 22.9-32.5 33.4-6.7 6.2-6.7 6.2-13.5.3-4.7-4-9.4-8.1-14.8-12.7 8.3-3.1 14.3-8.3 19.9-13.8 9.1-9.1 18.8-17.6 28.9-25.5 3.8-2.9 6.3-6.7 8.7-10.7 2.1-3.3 4.7-4.3 8.1-1.1 4.3 4.1 9.5 7 13 11.2zm196.9-214.8c-4-3.4-7.7-6.7-11.6-9.7-2.6-2-3.2-3.8-1-6.5 1.7-2 3-4.4 4.8-6.4 15.7-16.5 31.2-33.2 46.1-50.5 5.1-5.9 5.5-5.8 11.7-.5 10.9 9.3 11 9.4 1.1 19.8-8.4 8.9-16.1 18.6-24.7 27.1-8.8 8.9-17.1 18.4-26.4 26.7zm-409.8 137c9-14.3 17.4-28.2 26.3-41.7 4.5-6.9 10-13.2 14.7-20 2.9-4.3 5.8-5 9.7-1.6 3.8 3.2 7.7 6.2 12 9.8-11.1 13.8-20.7 28.4-30 43.2-3.7 5.9-6.9 12.1-10.3 18.2-3.4 6.2-4.1 6.4-9.4 2.2-4.1-3.4-7.6-7.4-13-10.1z"/><path fill="#F5F5F5" d="M1916.7 418.3c12.6-16.4 26.9-29.8 40.3-44.1 5.9-6.3 11.7-12.7 17.6-18.9 4.8-5 4.9-4.9 10.6-.7 1.3 1 2.5 2.2 3.9 3.1 3.8 2.5 3.3 4.6.2 7.8-17.9 18.2-32.6 39.1-49.6 58-6.4 7.1-6.7 7.1-14.5 1.1l-3.9-3c-1.4-.9-2.7-1.8-4.6-3.3zM1677 714c-5-4.6-11.5-7.1-14.1-13.7 16.3-20.9 36.3-38.4 53.2-58.4 6.4 3.4 11.1 7.6 16.3 12.7-19.3 19-35.2 41-55.4 59.4z"/><path fill="#F7F7F7" d="M1552.2 505.5c20.8 13.2 16.5 11.5 4.5 25.6-11.5 13.7-20.2 29.5-32.3 42.6-1.3 1.4-2.5 2.9-3.7 4.3-1.2-.6-2.3-.8-3-1.4-15.4-12.9-15.2-13.1-1.8-28.3 12.4-14 24.2-28.5 36.3-42.8zm222.5 70.3c6.8 2.8 9.7 10.4 16.9 12.5-9.8 11-19.9 22.2-29.9 33.4-6.8 7.6-13.7 15.3-20.4 23-1.9 2.2-3.5 2.5-5.8.5-12-11.1-17-7.3-1.8-22.8 10.6-10.8 19.9-22.9 29.7-34.5 3.7-4.2 8.6-7.2 11.3-12.1z"/><path fill="#F5F5F5" d="M1559.1 497.5c8-8.6 15.4-16.5 22.8-24.4 1.1-1.2 2.5-2.2 3.4-3.6 6.9-10.4 16.3-18.7 23.2-29.3 3.6-5.5 13.7-3.2 16.1 3.2.3.8 0 1.8-.3 2.7-.3.9-.8 1.8-1.4 2.6-14 17.9-27.9 35.9-42.2 53.5-6.6 8.1-7 7.8-14.8 1.1-2-1.5-4-3.3-6.8-5.8zM1812 214.3c0 2.7-1.2 3.8-2.3 5-9.4 11.1-18.7 22.2-28 33.3-6.4 7.6-12.6 15.3-19.1 22.9-1.4 1.6-2.6 4.1-5.6 1.9-2.9-2.1-6.9-3.1-8-6.9-.6-2 1.6-3.4 2.7-5 8.9-12.4 20.1-22.8 28.6-35.6 4.8-7.2 10.6-13.5 16.4-19.9 2.1-2.3 4.1-5.2 7.2-3.2 3.3 2.2 5.7 5.3 8.1 7.5zm-122.9 149c-4.8-.3-7.4-6.6-4.6-10.6 5.4-7.5 11.2-14.8 16.9-22.1 11.8-15.2 23.6-30.4 35.5-45.4 4.7-5.8 7.3-5.6 11.6-.1 1.9 2.4 2.3 4.8.5 7.3-2.4 3.2-4.6 6.7-7.5 9.2-7 6.1-12.3 13.6-17.9 20.9-9.8 12.9-21.5 24.2-30.3 37.9-1.1 1.8-2.5 3.1-4.2 2.9zm-57.4 72.4c-.9-.6-2.6-1.7-4.2-2.8-3.7-2.6-3.6-5.4-.9-8.9 14.3-18.9 28.5-37.9 44.5-55.5 2.2-2.4 4.2-5.4 8.1-1.6 4.5 4.4 5.4 6.2 2.5 9.9-14.7 18.3-29.4 36.5-44.3 54.7-1.4 1.5-3.6 2.6-5.7 4.2z"/><path fill="#8CCBEE" d="M545.8 2192.8c-2.7.5-5.1-.2-4.9 5 .8 16.4.4 32.9.1 49.3-.2 9.7 1.2 19.5-.5 29.2-.5 3.2 3.7 4.7 3.1 8.1-3.9.8-7.9 1.6-11.8 2.5-.9-11-.9-22-.1-33 .2-2.9-.6-4.4-3.2-5.2 2.7-6.5 1.6-13 .2-19.6 1.5-.7 3.3-1.3 3-3.3-1.4-10.3-.4-20.7-.4-31 0-4.5-2.5-9.5.7-14 4.2 1 7.3 4.4 11.6 5.4 3.7.8 2.9 4 2.2 6.6z"/><path fill="#F5F5F5" d="M532.1 2180.8c-3.2 4.4-.7 9.5-.7 14 0 10.3-1 20.7.4 31 .3 2-1.5 2.6-3 3.3-1.7-3.2-3-6.6-5.1-9.6-2.6-3.7-2.9-7.6-1.3-11.3 4.4-10 4.9-19.7-.1-29.5-.4-.8-.3-1.9-.3-2.9 0-.3.2-.6.5-1.1 4.4.2 6.4 4.1 9.6 6.1zm-243.8-226.1c5.2 7 10.2 14.2 13.4 22.4-.6.9-1.2 1.9-1.8 2.8-7-6.5-9.6-15.5-13-24 .4-.4.9-.8 1.4-1.2z"/><path fill="#FFF" d="M302.3 1978.6c2.5 1.2 3.6 3.7 4.9 5.9-.8 1.1-1.5 2.3-2.3 3.4-2.2-1.7-4.7-3.3-4.5-6.7.6-.8 1.2-1.7 1.9-2.6z"/><path fill="#0C0D0D" d="M530 2071c1.7-.5 4.1.7 5-2 1.4.3 2.7.7 2.2 2.5-.3 1.1-1.5 1.1-2.5.8-1.6-.4-3.2-.8-4.7-1.3zm25.9 4.8c3.4 1.6 2.5 3.2 0 4.9v-4.9z"/><path fill="#FFF" d="M299.8 1979.9c.6-.9 1.2-1.9 1.8-2.8.6.4.8.9.6 1.5-.6.9-1.3 1.8-1.9 2.7-.3-.4-.5-.9-.5-1.4z"/><path fill="#F5F5F5" d="M285.7 1953.1c.6-.1 1.2-.1 1.9-.1.6.4.9.9.7 1.7-.5.4-1 .9-1.5 1.3-.4-1-.7-2-1.1-2.9z"/><path fill="#0B0B0B" d="M1552.9 1886.3c19.9-3.3 36.9-12.2 50.9-26.6 6.9-7.1 13.5-14.6 19.4-22.7 7-9.7 10-10.1 21.2-6.1 15.5 5.5 27.2 16.1 38.6 27.4 17.3 17.2 32.4 36.1 44.3 57.2 8.9 15.8 16.1 32.5 24.1 48.8 1.2 2.4 2.7 5.1-.8 6.6-2.9 1.2-5.1-.4-6.4-3.1-3.9-7.7-7.5-15.5-11.4-23.2-7.5-14.5-16.2-28.1-25.7-41.2-9.3-12.8-17.8-26.5-30.2-36.6-11.4-9.3-21.7-20.3-37.7-22.6-4.2-.6-5.8 0-7.8 3-8 11.8-16.3 23.4-27.6 32.5-10.4 8.3-22 13.9-34.8 18.4-12.7 4.4-25.1 5.3-38 5.2-8 0-15.8-1.9-23.3-4.5-4-1.4-6.6-4.4-8.7-7.8-2.3-4-.8-6.5 3.7-6.5 2.4 0 4.5.8 6.5 2 5.2 3.2 11.3 3.4 17.2 3.9 2.8.2 5.2-.4 7.1-2.8 12.2-16 27.5-29.7 36.9-47.9 1-1.9 1.9-3.8 4.4-3 2.5.7 3.5 2.7 3.6 5.3.2 3-1.6 5-3.1 7.1-7.9 11.8-15.7 23.6-23.6 35.4-.9.3-1.6.8-1 1.7.5 1.1 1.4.6 2.2.1zM530.3 1602.1c-20.3 2.6-38.6 7.5-56.4 15-16.1 6.8-30.2 16.6-43.4 27.5-21.4 17.6-38.7 39.1-50.9 64-6.5 13.2-12.2 27.2-13.5 42.2-.2 2.5-.8 4.6-2.5 6.2-1.9 1.8-.5 7.2-5.2 5.6-3.5-1.2-2.5-4.9-2.8-7.8-1.3-11.6 2.6-22.3 5.3-33.2 4.6-18.3 13-34.8 24.7-49.4 20.6-25.7 44.8-46.8 74.4-61.9 14.6-7.4 29.2-14.3 45.4-16.9 8.8-1.3 18-2 24.9 8.7z"/><path fill="#0C0D0D" d="M581 1978.8c-8.7-1.3-15.9-5.7-22.3-10.7-13.9-11-21.7-26.4-28.4-42.5-1.2-2.8-.2-5.2 1.3-7.4 1.3-1.9 2.3-4.3 5.2-3.7 2.4.5 2.6 2.6 3.1 4.6 2.2 9.9 7.8 18.3 14 25.7 6.5 7.8 12.3 16.4 21.2 21.9 3.4 2.1 6.3 4.6 10.7 4.4 2.2-.1 5.2.2 5 3.3-.2 3-3 2.9-5.4 3.2-1.5.1-3.1.8-4.4 1.2z"/><path fill="#141414" d="M285.7 1953.1c.4 1 .7 1.9 1.1 2.9 3.4 8.5 6 17.4 13 24 0 .5.1 1 .5 1.4-.2 3.4 2.3 4.9 4.5 6.7 2.5 6.5 9.1 9.3 13 14.6 1.1 1.5 3.2 2.5 3.6 4.5.5 2.7.6 5.5-2.1 7.2-3 1.8-3.8-1.2-5.3-2.8-11-11.1-20.2-23.5-27.6-37.1-3.2-5.9-6.8-12.2-6.4-19.5.3-6.4 3.3-3.1 5.7-1.9z"/><path fill="#0E0100" d="M1915.7 241.3c.6.1 2.9.6 5.1 1.1 8.8 2.1 12.5 9.8 8.1 17.8-2.5 4.6-5.8 8.7-10.9 11.2-5.2 2.6-8.9 6.1-8.9 13 0 4.1-2.7 8.1-3.7 12.3-1.9 8.1-6.5 12.4-15 13.1-8.6.8-12.2-5.3-16.5-10.6-1.6-2-2.3-4.7-3.4-7.1-5-10.9-2.7-15.7 9.1-18.8 1.6-.4 3.4-.2 4.9-.8 3.4-1.4 7.7-.6 10.2-3.3 2.7-2.9-.5-6.2-.6-9.4-.3-8.7 10.5-18.8 21.6-18.5zm-24.3 38c-2.1-.3-5.3.6-8.5 1.6-1.7.5-3 1.3-3 3.4 0 3.4 5 10.9 8.2 11.9 3.2.9 6.7 1.5 9.2-1.6 2.8-3.4 5.1-7.3 3.7-11.9-1.2-4.4-5.2-3.1-9.6-3.4zm17.7-16c4.1-1.6 7.6-3.9 10-7.6 1-1.5 1.2-3.2 0-4.6-1.1-1.3-2.6-1.6-4.5-1.2-7.5 1.6-8.8 4.4-5.5 13.4z"/><path fill="#120100" d="M1709.5 514.1c.2-6.7-2.8-11.3-9-13.8-1.2-.5-2.6-.6-3.8-1-7.4-2.2-8.4-5.2-3.5-11.3 3.5-4.4 7.6-8.3 11.4-12.4 2.3-2.4 5-4.4 7.1-7 3.1-4 6.5-4.4 10.3-1.6 5.8 4.4 12.8 7.2 17.2 13.3 1.3 1.8 2.8 2.7 4.8 3.1 4.2 1 4.1 4.8 4.9 7.9.8 2.9-1.2 3.3-3.4 3.4-2.2.1-3.7-1.2-5.1-2.7-5-5.3-12.1-8-17-13.6-2.2-2.5-6-2.6-8.8.5-.7.7-1.4 1.4-2.2 2.1-9.4 8.4-9.4 8.4-.5 17.5 9.2 9.3 7.8 26.9-2.9 36.5-9.7 8.7-19.5 8.3-30.1-1.5-4.7-4.3-7.6-10-10.1-15.9-.9-2.2-.5-3.9 1.1-5.4 1.8-1.7 3.7-.7 5.5.3 2.1 1.2 3.3 3.2 4.6 5.2 1.6 2.5 3 5.2 5 7.4 3.2 3.8 6.7 7.7 12.5 6.2 6.7-1.8 10.3-6.8 12-13.3.2-1.2 0-2.6 0-3.9z"/><path fill="#0E0100" d="M1588.5 598.3c5-9.1 4.7-8.8 11.5-4.1 9.6 6.7 16.7 16.1 26.2 22.8 1.5 1.1 2.7 2.9 3.7 4.6 4 7 3.1 10-4.8 12.6-4.3 1.5-9 2.2-13.6 2.6-4.9.4-6.3 2.9-5.8 7.2.1 1.3.2 2.7.4 4 1.6 12.7-5.6 21.4-15 27.2-7.8 4.8-17.5 3.2-25.8-.8-7-3.4-11.5-9.8-15.7-16.2-.7-1.1-1.4-2.3-1.6-3.6-.6-3.4-1-7.4 2.7-8.7 3.9-1.4 4.1 2.7 5.4 5.4 1.6 3.6 3.5 7.4 6.2 10.1 7 7.1 12.5 9.9 21.2 6.5 9.7-3.8 14.4-10.2 14.3-19.4-.1-3.5-1-6.1-3.8-8.7-3.3-3.1-2.5-5.5 1.8-7.3 4-1.7 8-3.3 12.4-3.3 3.7 0 7.2-1.1 11.8-3.3-10.5-9.4-17.6-21.5-31.5-27.6zm183.2-178.9c2.6 4.2 6.7 4.4 9.4 6.8 5.7 5.2 8 10.9 5.8 18.6-2.2 7.9-7.6 13.4-14 17.3-11.7 7.2-25.7-.5-29.8-13.8-3.6-11.5 1.1-20.2 7.9-27 9.9-10.1 21.9-18.2 36.2-21.6 5.4-1.2 10.6-.6 15.6 1.5 1.9.8 3.1 2.6 2 4.9-.7 1.6-2.3 2.7-4 2.3-12.4-3-20.1 5.3-29.1 11zm-8.4 35.7c4.2.6 8-2.3 11.9-5.6 4.2-3.5 5.3-7.4 3.4-12.3-2.5-6.1-7.6-9.1-13.7-10.1-5.4-.8-7.2 3.7-9 7.7-1.3 3-2.8 6.1-3.4 9.3-1.1 6.2 3.3 11.1 10.8 11z"/><path fill="#0D0C0C" d="M1955.9 186c3.5-10.8 10.8-17.4 21.6-21.2 7.3-2.6 12.8-1.8 16.7 8.4 4.2 11-1.1 19.7-7.2 28-1.5 2.1-4 3.5-4.2 6.4-8.9 4.4-16.9 10.6-26.3 14-5 1.8-10 3.7-15.4 3.2-2.3-.2-4.9-.4-5-3.6-.2-2.9.7-5.1 4-5.9 4.8-1.3 9.6-2.7 14.2-4.5 3.3-1.3 6.9-2.6 10-6-4.1-5.6-9.7-10.8-8.4-18.8zm29.6-5.5c.1-4.2-2.5-7.9-5.5-7.8-6.8.2-13.9 6.9-14.6 13.7-.6 5.4 4.8 10.3 9.6 8.8 3.2-1 10.4-11.1 10.5-14.7z"/><path fill="#120100" d="M1501.3 728.1c9.4 6.2 15.5 13.3 22.6 19.2 1.8 1.5 3.2 3.3 4.7 5.1.6.7 1 1.7.4 2.8-.8 1.2-2 1.9-3.4 1.5-2.9-.7-5.5-1.6-7.8-3.9-7.1-6.9-14.8-13.3-22.9-19.1-3.1-2.3-7.2-5.1-6.1-9.5 1-4.3 6-3.4 9.4-4 10.8-1.9 21.5-4.1 32.1-6.9 3.9-1 7.6-2.6 10.8-4.9 4.1-2.9 6.6-7.1 5.2-12-1.3-5-4.8-8.7-10.4-9.5-3.2-.4-6.5-1.6-9.7.5-2.9 1.9-5.2 1.1-6.3-2-1-2.9.2-5.4 3.2-6.4 11.5-3.7 22.8-4.6 29.2 11.3 4.6 11.5 2.3 20.4-8.2 26.1-5.6 3-11.4 5.9-17.7 6.3-8.1.3-15.5 3.2-25.1 5.4zm363-389.5c-6.7-6.7-11.8-15.3-20.7-20.3-1.2-.6-2.4-1.2-3.4-2.1-1.5-1.4-2.5-3.1-1.4-5.3 1.2-2.2 3.1-2.4 5.1-1.5 2.7 1.2 5.7 2.3 7.9 4.2 6.8 5.8 13.3 12.1 18.6 19.4 5 6.8 4 10.1-3.4 14.3-4.6 2.6-9.3 5.2-14.1 7.5-2.9 1.4-4.4 2.8-2.6 6 1.7 3 0 5.2-2.7 4.1-11.1-4.6-17.7 3.3-25.3 8.4-3.6 2.4-6.9 5.2-10.1 8.1-2.5 2.3-4.8 2-7-.1-2.7-2.6-1.4-5.1 1.1-6.6 6.9-4.1 12.2-10.3 19.6-13.7 3.9-1.8 5.4-4.1 1.3-7.2-1.7-1.3-3-2.4-3-4.7-.1-3.4 2.6-5.6 4.8-3.4 9.5 9.3 17.9 5 26.4-1.2 2.6-2 6.4-1.8 8.9-5.9zm-185.4 221.2c-.6 5.9-5.3 8.6-8.9 11.6-5.6 4.7-11 9.3-14.2 16.1-.3.6-.5 1.5-1 1.7-7.8 2.8-10.7 10.5-16.2 15.6-1.8 1.7-3.7 3.6-5.9 1.7-2-1.7-1.3-4.4 0-6.4 2.1-3.3 4.4-6.6 6.9-9.6 3.2-3.7 2.3-6.5-1.1-9.3-3.3-2.7-6.7-5.4-9.9-8.2-5.8-5.2-6.1-10.5-.7-16.4 6.2-6.9 13.4-12.8 20.5-18.7 1.8-1.5 3.7-3.1 6.1-.9 2.8 2.6 1.3 4.9-.6 6.8-4.9 4.9-10.3 9.4-14.9 14.4-5.8 6.3-5.6 7.1.6 12.6.2.2.5.4.8.6 3.3 1.6 4 7.1 7.6 7.1 4.6 0 6.3-5.3 9.5-8 2.8-2.3 5.1-5.2 7.6-7.9 3.9-4 8.3-4.9 13.8-2.8z"/><path fill="#0E0100" d="M1473.6 769.7c-1.5-2.2-2.9-2.3-4.2-2.4-2.3-.2-3.9-1.1-3.5-3.6.3-1.8 1.8-2.8 3.5-2.9 5.6-.2 11.2-.7 16.5-2.6 2.3-.8 3.7.6 5 2.2 1.3 1.8 1.5 3.7.3 5.5-.7 1.1-1.7 2.1-2.7 2.9-14.7 11-24.6 26.5-36.7 39.9-.9 1-1.7 2-2.7 2.9-1.6 1.4-3.4 2.1-5.3.6-2.1-1.7-2.7-3.9-1.1-6.1 3.2-4.2 6.5-8.3 10-12.3 6.9-8.1 13.9-16 20.9-24.1z"/><path fill="#141414" d="M2020.1 143.4c-.7-2.6.4-5.2 1.8-7.4 5.8-8.8 11.6-17.7 20.7-23.7 2.5-1.7 5.1-2.9 8.1-3.6 4.8-1.2 9.3-1.3 12.4 3.1 3.1 4.2 3.9 8.3 1 13.7-5.9 10.9-12.7 20.9-22.6 28.5-3.8 2.9-7.5 6.8-13.2 4.2-4.9-2.1-8.1-7.8-8.2-14.8zm33.4-26.5c-5.2.7-8.4 3.6-11.6 6.4-5.4 4.7-8.1 11.2-10.6 17.6-.9 2.4-.8 5.5 1.4 7.3 2.3 1.8 4.4-.5 6.2-1.8 9.6-7.1 15.8-16 14.6-29.5zm-15.9-32.7c0 1.5-1.1 2.2-2 3.2-8.3 9.4-16.4 18.9-24.8 28.2-3.1 3.5-6.4 6.7-8.5 10.9-1 2.1-2.8 3-4.9 1.9-2.1-1-2.1-3.1-1.7-5.2.5-2.8 2.7-4.6 4.3-6.6 6.1-7.4 12.4-14.6 18.5-22 1.1-1.3 3.4-2.5 1.2-4.8-3.3-3.4-.8-5.1 1.9-6.9 3.4-2.2 7.2-3.3 11.2-3.1 2.2.4 4.6 1.4 4.8 4.4z"/><path fill="#FFF" d="M1552.9 1886.3c-.7.4-1.6.9-2.2.1-.6-.9.1-1.4 1-1.7.3.6.8 1.1 1.2 1.6z"/><path fill="#E51106" d="M1891.4 279.3c4.4.3 8.4-1 9.7 3.4 1.4 4.6-.9 8.5-3.7 11.9-2.5 3-6 2.5-9.2 1.6-3.2-.9-8.2-8.5-8.2-11.9 0-2.1 1.2-2.8 3-3.4 3.1-1 6.3-1.9 8.4-1.6zm17.7-16c-3.3-9-2.1-11.8 5.6-13.4 1.8-.4 3.4-.1 4.5 1.2 1.2 1.4 1 3.1 0 4.6-2.5 3.7-6 6-10.1 7.6zm-145.8 191.8c-7.5 0-11.9-4.8-10.7-10.9.6-3.2 2.1-6.3 3.4-9.3 1.7-4 3.6-8.5 9-7.7 6.1 1 11.2 4 13.7 10.1 1.9 4.8.8 8.8-3.4 12.3-4 3.2-7.8 6.1-12 5.5z"/><path fill="#F5F5F5" d="M1985.5 180.5c-.1 3.6-7.3 13.7-10.5 14.7-4.9 1.5-10.2-3.4-9.6-8.8.7-6.8 7.8-13.5 14.6-13.7 3-.1 5.6 3.7 5.5 7.8zm68-63.6c1.2 13.5-5 22.4-14.6 29.5-1.7 1.3-3.9 3.6-6.2 1.8-2.2-1.7-2.3-4.9-1.4-7.3 2.5-6.4 5.2-12.9 10.6-17.6 3.3-2.9 6.4-5.8 11.6-6.4z"/></svg>