<svg viewBox="0 0 3107 1720.5" xmlns="http://www.w3.org/2000/svg"><path fill="#0C0D0C" d="M614.5 740.3c.8 1.9 1 3.6-.5 5.5-13.4 18.5-23.4 39.2-36.8 58.4 2.1 2.5 6.3 2.4 7.5 5.9 1.1 3.3.3 6.5.1 9.8-.6 9.3-1 18.6-1.4 27.9-.7 17.9-.9 35.9-2.2 53.7-.9 12.2-1.8 24.5-1.8 36.7 0 8.3-.1 8.3 8.1 9.9 26.7 5.3 53.6 8 80.7 10 15.2 1.2 30.1 4.8 45.3 6.2 4.9.4 7.5 3.9 8.5 8.6 2.1 9.5 2 19.1 2.1 28.8.2 15.2.1 15.1 15.1 12.8 3.6-.5 7.4-.9 10.9-.4 23.6 3.1 47.4 4.7 70.5 11.3 22.3 6.3 44.6 12.3 66.2 20.8 30.3 11.9 58.1 28.8 87 43.5 8.1 4.2 16.1 9.1 23.3 15.2 8.1 6.8 18.6 10.2 26.6 17.3 4.5 4 8.1 8.8 13.4 11.9 1.5.8 2.4 2 4.3 1.1 9-4.3 16.7-10.6 25.9-14.4 3.2-1.3 1.2-4.1-.1-5.8-3.5-4.5-7.2-8.7-9.9-13.7-7.3-13.3-14.8-26.6-21.9-40.1-1.9-3.7-4.1-5-8.4-5.4-8.6-.8-17.2-.7-25.8-1.6-15.1-1.6-28.9-6.9-42.8-12-34.3-12.5-59.5-36.8-81.5-64.7-17.7-22.5-29.3-47.9-33.4-76.6-1.5-10.1-5.2-19.7-5.7-30.2-1.2-24.5 3.6-48.1 9-71.7 4-17.3 11-33.5 18.5-49.2 8.8-18.2 19.8-35.3 32-51.5 14-18.6 29.2-36.2 44.4-53.8 2.8-3.3 5.7-6.7 9.3-9 6-3.8 8.5-8.8 8.4-15.7-.2-6.7 1.8-13.2 3.7-19.5 6.2-19.9 11.9-39.9 18-59.8 9.8-31.9 24.5-61.5 39.1-91.3 8.5-17.3 19.6-33 28.6-49.9 9-16.8 19.4-32.5 30.2-47.9 20.1-28.8 39.8-58.1 64.2-83.6 25.9-27 50.8-54.9 78.6-80 15.5-14 30.9-28.4 47.7-40.5 29.6-21.4 59.9-42.1 93.2-58 17.5-8.4 35.8-15.5 52.4-25.7 11.4-7 24.8-9.1 37-14.4 20.7-9 42.3-15.5 64.3-20.5 12.9-2.9 25.8-5.6 38.6-8.7.3-.1.7 0 1-.1 22.8-7.9 46.8-8 70.3-11.8 19.6-3.1 39.3-5 59.3-4.9 8.6.1 17.3-1 25.8-2.3 8.6-1.3 17-1.2 25.6.1 7.5 1.1 15.3.3 22.9.4 19.9.2 39.8-.1 59.6 1 10.2.5 20.4 1.7 30.6 3 39.3 5.2 78.1 13.2 116.4 22.5 36.6 8.9 73 19 108 33.4 17.7 7.3 34.8 16.2 52.2 24.4 4.2 2 8.1 4.6 12.5 6.1 25.1 9.1 45.6 25.5 67.3 40.2 16.7 11.3 33.3 22.9 49.4 35 18.9 14.2 35.8 30.5 52.9 46.6s32.9 33.4 48.5 50.9c15.7 17.5 32.3 34.3 45.3 54.2 7.1 10.8 15.6 20.6 23.3 31 12.1 16.4 19.5 35.5 30.2 52.7 14.8 23.7 27 48.7 36.5 75 5.2 14.3 10.9 28.5 15.2 43.1 4.8 16.2 7.9 32.8 12.3 49.2 2.7 10.2 4.7 20.7 6.3 31 1.3 8.3 1.7 16.9 3.3 25.2 3.5 17.9 4.9 35.9 7 54 1.3 11.3.7 22.6 1.1 33.8.3 9.6 1.3 19.2 1.7 28.7 1 27.9-1.7 55.5-6.4 83-1.4 8.5-2.8 17-3.7 25.5-.8 7.1-2.5 14.4-4.7 21.1-5.2 16.4-9 33.2-13.4 49.7-8.1 30.5-19.3 59.5-32.3 88.2-7.8 17.2-15.5 34.4-24 51.1-8 15.6-16.5 31-26.8 45.3-2 2.8-4.8 5.5-4.4 10.5 9.6-4.7 19-8.7 27.6-13.7 9.7-5.7 20.9-7.6 30.3-13.9 20.3-13.6 42.1-24.6 62.2-38.9 29.3-20.9 56-44.6 84.3-66.6 15.6-12.1 33.7-18.9 51.7-26.1 9.7-3.9 20-4.5 30-6.3 17.4-3 34.8-2.4 52.3-.2 8.4 1.1 15.5 3.7 21.9 9.8 22 21.2 39.1 45.9 52 73.5.6 1.2 1.4 2.2 2.4 3.7 6-8 14.3-10.3 23.4-10.9 20.6-1.6 40.7 2.1 60.9 5.7 24.1 4.3 45.2 14.9 65 28.4 14.1 9.6 26.2 21.6 34.8 36.5 2.9 4.9 6.8 6.8 11.8 7.3 13.6 1.3 26.4 5.5 39.4 9.7 10.7 3.4 19.6 9.6 29.3 14.4 4.3 2.1 4.8 6.1 3.1 10.9-5.2 14.8-14.9 26.6-25.6 37.5-11.4 11.6-23.5 22.6-35.8 33.3-3.2 2.8-4.2 4.9-3.4 9.1 5 27.8 5.4 56 4.9 84.2-.3 15.6-2.6 31.1-5.2 46.5-1.5 9.1-2 18.4-4.7 27.3-3.1 10.5-8.6 19.1-17.7 25.4-14.7 10.1-14.1 10.3-14.7 28-.7 17.2-2.9 34.3-3.9 51.5-.7 11.6-2.6 23.1-2.7 34.7-.2 10.9-2.4 16.8-16.4 19.9-12.9 2.9-25.9 5.2-39.2 2.6-9.8-1.9-12.3-4.2-12.2-14.7.1-15.4-1-30.8-.3-46.3.5-11.5-1.2-23.2-1.9-34.7-4.1-1.8-7.5-.3-10.8 1-12.9 5.2-26.6 8.2-39.5 13.2-15.4 5.9-30.9 12-46 18.7-13 5.8-26.5 10.3-39.4 16.1-33.7 15.3-69 26.9-102.8 41.9-7.6 3.4-10.7 7.8-10.8 15.6 0 25.8-2.2 51.5-4 77.2-1.2 17.1-2.4 34.4-5.1 51.4-.6 3.5-1.2 5-4.6 6.1-12.4 4.3-25.2 5.8-38.1 6.2-8.3.2-16.2-2.9-24.2-5-7.4-2-8.9-8.5-9.1-14.9-.6-20.7-1.1-41.4-2.3-62.1-.4-7.1-1.1-14.3-.7-21.5.7-13.1-3.7-25.6-3.7-38.5 0-2.4-.9-3.7-3.4-3.9-3-.2-6-.7-9-.6-16.6.5-33.1-1.5-49.6-3s-33.1-2-49.7-3.1c-18.5-1.1-37-2.4-55.5-3.6-11.8-.7-23.6-1.7-35.3-1.6-6.5.1-12.4-2.1-18.6-2.8-26.6-2.9-53.4-4.1-80.1-7-11.3-1.2-23.1 0-34.6-1.2-13.5-1.3-27.1-1.3-40.7-3-4.7-.6-9.7 0-14.6.6-8.1 1.1-16.5-.5-24.8-.9-17.6-.9-35.1-1.5-52.7-2.7-11.5-.8-23-2.5-34.5-3.6-9.5-.9-19.2-1-28.6-2.5-7.8-1.2-15.3-3.6-23.3-3.8-15.1-.5-30.2-.8-45.2-3.1-5.5-.8-7.3 1.1-5.4 6 5.7 14.5 8.4 30.1 15.5 44.1 3.5 6.8 5.9 14.1 9.1 21 2.6 5.7-.6 9.7-3.6 13.6-5.2 6.9-10.6 13.6-16.4 20-14.3 15.9-30.6 29.5-47.3 42.7-3.4 2.7-6.3 5.8-9.5 8.6-22.7 19.6-49 32.7-76.8 43.3-14 5.3-28.2 9.6-42.8 12.9-25.5 5.8-51.2 5.6-75.4-3.3-24.9-9.1-45.7-24.5-60.6-47.8-17.5-27.4-22.5-56.5-16.6-87.6 3-15.9 12.5-29.3 23.1-41.4 5.9-6.6 11.1-14.1 18.8-19 7.2-4.6 14.3-9.5 22-14.7-4.2-5.6-8.1-9.5-16.3-9.8-21.4-.6-42.8-2.6-64.2-2.9-5.6-.1-11.3 0-17.1 0-1 2.6-2.5 5.3-2 8.3 3.1 19.3-2.8 37.4-7.1 55.7-3.5 14.8-8.2 29.4-12.4 44-4.1 14.3-10 27.7-17.6 40.8-9.5 16.5-22.3 29.1-37.4 39.9-9.9 7.1-21.4 10.4-33 13.1-20 4.6-40.5 6.4-60.9 7.3-17.5.7-35.5-1-51.8-7.6-21.7-8.7-42.7-19.4-58.2-38.1-4.8-5.8-7.3-12.5-9.7-19.4-1-2.9 1.4-5 2.8-7.1 4.3-6.3 10.3-12.6 11-19.8.8-8 4.1-14.5 7.9-20.6 7.4-12.2 11.3-25.4 14.8-38.9.5-1.9 1-3.9 1.1-5.9.5-12.4.5-11.8-9.7-11.9-14.4-.1-26.7-7.3-39.2-13.5-24-11.7-41.6-30.4-56.7-51.9-3.8-5.4-7-8.9-14.6-8.9-18.2.1-36.6-.3-54.7-2.4-19.4-2.3-38.9-3.3-58.4-4.7-21.5-1.5-43-3.3-64.6-3.4-16.5-.1-33.1-2.3-49.5-4.3-4.3-.5-8.6-.7-12.8-1-25.4-1.7-50.9-2.6-76.3-4.5-26.4-2-52.6-5.1-79-7.4-19.4-1.7-38.9-2.7-58.4-4.3-20.1-1.7-40.2-3.8-60.3-5.7-15.5-1.4-31.1-2.4-46.9-2.4-1.8 4.9-1.1 9.9-1.3 14.8-.7 17.1-1.1 34.2-2.2 51.3-.5 8.9-6.1 15-13.8 19.2-2.3 1.3-4.7 2.5-7.3 3.3-5.7 1.7-7 4.2-7.4 11-.9 16 .5 31.9-1 47.8-1.3 13.6.4 27.2-.8 40.8-.5 5-2.1 7.1-6.1 8.8-5.2 2.2-10.2 4.8-15.4 7-6 2.6-12 2.7-18.3.5-5.7-2-8.6-5.5-9.7-11.4-4.5-25.1-7.8-50.4-8.1-75.8-4.1-2.8-7.7-.5-10.7.9-15.6 7.4-32.3 11.8-48.4 17.7-22.3 8.2-44.8 16-67.2 23.9-23.4 8.2-46.9 16.2-70.3 24.6-8 2.9-15.5 6.9-23.4 10.1-3.4 1.4-4.1 4-4.2 7.1-.7 19.2-2.8 38.3-1.2 57.5.4 4.6-.1 9.3.1 13.9.4 12.5-6.5 20.5-19.2 21.5-6.3.5-12.6.4-18.5-3-2.3-1.3-4.8-3-7.3-3.1-8.7-.2-10.2-6.7-11-12.9-2.2-16.4-3.9-32.9-4.8-49.4-.5-8.6-2.4-17.1-2-25.7.2-3.9-2.3-5.4-5.5-5.8-22.1-2.8-43.7-8-65.1-13.5-21.2-5.4-42.5-9.8-63.9-13.9-20-3.8-39.9-9.3-60.8-9.9-1.3 8.2-.6 16.2-.6 24.1 0 17 .3 33.9.5 50.9.1 4.4-1.5 7.4-5.4 9.7-9.9 5.9-19.5 9-30.5 2.1-7.7-4.8-10.7-12-11.9-19.8-3.8-25.5-9.2-50.9-10.8-76.7-.2-3.8-1.6-5.4-5.2-5.7-3.6-.4-7.2-1.4-10.8-1.1-4.4.3-6.3-1.2-5.9-5.6 1.2-13.6.1-27.3-.5-40.9-1.2-24.2-.3-48.5-2.1-72.6-2.2-29.3-.6-58.5-1.7-87.7-.6-16-2.9-32.1-2.5-48.1.3-14.4-2.9-28.9.5-43.2 1.4-5.9-.3-11.8-.6-17.6-.6-10.5.6-20.8.6-31.2 0-10.5-1.1-21-1.2-31.6-.2-22.6 0-45.2-.1-67.8 0-8.4-.2-8.4-8.5-8.7-6.6-.3-14.9-9-15.4-16.9-.9-15.6-1.6-31.1-2-46.7-.2-8.1 4.7-14.2 12.7-16.5 26.7-7.6 53.8-14.2 81.1-18.9 19.3-3.3 38.3-7.3 57.4-11.4 5.6-1.2 11.3-.4 16.8-1.7 7.2-1.7 7.5-1.7 7.2-9.1-.4-9.6-.8-19.2-1.3-28.8-.7-15.9.1-31.9-.6-47.8-.3-7.4-.3-8-7.9-7.5-20.6 1.5-41.2.9-61.8 1.3-6.2.1-9.9-1.9-14.1-6.7-13.4-14.8-26-30.3-37.4-46.6C38.5 824 23.8 805.1 12.4 784c-.6-1.2-1.2-2.4-1.7-3.6-4-9.5-3.7-10 3.6-17.1C27 750.9 42.1 741.8 56 731.1c9.4-7.3 18.4-15.2 27.4-23.2 6-5.4 12.7-7.4 20.7-6.4 10.5 1.4 21 2.5 31.5 3.1 28.4 1.6 56.7 5.6 85.2 7 6.9.3 13.9.4 20.8 1.7 3 .6 6.9-1.4 8.5 3.1.5 1.3 1.9 1.1 2.5.6 5-4.3 12.1-3.1 17.4-6.8 5.2-3.6 11-3.9 17-1.6 4.3 1.7 8.6 2.7 13.5.9 10.3-3.9 20.9-1.6 31.4-.5 4 .4 8 .6 11.8-1.1 4.7-2.2 9 1 13.6 1 9.6-.1 19.1-.8 28.7-1.2 21.6-.9 43.2-.1 64.8-.4 13.5-.2 27-1.4 40.5-2 15.6-.7 31.2-1.3 46.8-1.8 2.8-.1 6-1.1 8.5 1.4.6 5.7-2.5 6.8-7.3 6.3-11.6-1.1-23.4-.9-34.9.7-20.5 2.9-41.2.3-61.6 2.8-4.2.5-8.4-1.7-12.8-1.2-7.7.9-15.4 1.1-23.3.4-7.5-.6-15.2-1.3-22.8.1-4 .7-57.6 1.6-61.4.7-3.6-.8-7-.6-10.7-.1-10.4 1.5-20.7 4.3-31.5.8-4.3-1.4-8.7.9-12.2 5.6 8.4 0 15.2 2.9 22.3 4.4 16.5 3.5 33.3 5.8 49.9 8.9 3 .6 8 .4 7.2 4.8-.8 4.7-5.7 2.5-8.4 1.9-25-5.2-50.1-9.6-75.2-14.1-9.2-1.7-9.5-2-12.9 6.9-9.1 23.9-17.9 47.9-26.7 71.9-2.1 5.6-4 11.3-5.9 16.9-1.4 4.2.1 6 4.7 6.2 6.6.3 13.3.8 19.8 2 14.8 2.6 29.9 1.3 44.6 4.5 8.1 1.7 16.2 3.5 24.6 3.6 4.8 0 7.1-1.5 8.8-6 9.1-24.2 20.1-47.7 27.9-72.4 1.6-5 3.9-9.9 6.2-14.7 1-2.1 2.8-4.1 5.5-3.2 3.3 1.2 3.1 3.8 2 6.5-.6 1.5-1.2 3.1-1.7 4.7-3.9 11.7-9.6 22.6-13.4 34.3-4.9 15.1-12.1 29.5-16.4 44.8-.7 2.5-2.6 4.9.6 7 4.1 2.6 9 1.3 10.9-3.3 4.5-11.1 8.2-22.5 13.3-33.2 8.2-17.4 15.9-35 22-53.4.7-2.2 1.8-4.3 2.9-6.3.6-1.1 1.9-2.1 3.3-1.5 1.6.6 3 1.8 2.9 3.6-.1 1.2-1 2.4-1.5 3.7-7.2 17.5-14.3 35-21.5 52.5-5 12.1-10.4 24-13.3 37.1 4.7 1.5 8.5-.2 12.4-.5 2-.2 2.3-1.7 2.9-3.4 4.1-11.1 7.9-22.4 12.7-33.2 7.3-16.4 15.3-32.4 22.9-48.7 1.4-3 2.6-6.1 4-9.1 1.3-2.7 3.4-4.3 6.4-3 3.5 1.5 1.2 4.1.4 5.9-5.3 11.4-9.6 23.2-14.7 34.7-8.1 18-15.9 36.2-23.5 54.4 1.7 1 3-.2 4.1-.1 9.4 1.3 12.6-4.5 15.5-12.1 11.5-29.3 27.4-56.6 39.7-85.5.9-2.1 2.3-4.1 3.7-5.9.5-.6 1.7-.9 2.6-.9 1.7 0 2.2 1.5 2.2 2.8-.1 1.6-.2 3.5-1 4.8-6.1 8.9-8.9 19.3-13.8 28.7-7.9 15.3-15.3 30.9-22.7 46.5-2.7 5.8-5.4 11.7-6 18.9 6.6-.4 13.2.6 18.3-1.6 4.1-1.7 3.5-8.6 5.5-13 12.9-27.6 25.5-55.4 38.2-83.1 1.2-2.7 2.3-6.5 6.1-4.7 4.2 1.9 1.1 5 0 7.5-10.9 24.1-23.4 47.6-32.6 72.4-2.3 6.2-6.7 11.5-7.5 18.3-.4.3-.8.7-1.2 1 .3.1.6.2.9.1.8-.3.8-.8.1-1.3 5.3 1.1 10.5-.1 16-.3 1.3-7.4 4.9-13.8 8.1-20.3 7.8-15.8 15.9-31.3 23.9-47 4.3-8.2 8.5-16.5 13.2-24.5 2.3-4 2.7-3.8 8.4-1.5-16.7 29.4-32.3 59.3-45.7 90.7H469c-4.8-5.8-1.7-9.8.9-14.1 13.9-22.6 26.3-46.1 38.3-69.8 1.9-3.8 4.4-7.4 6.8-11 1.2-1.8 3-2.5 5-.8 1.5 1.3 1.5 2.8.5 4.4-2.1 3.4-4.4 6.7-6.3 10.2-12.5 23.4-24.9 46.8-37.2 70.4-1.4 2.7-3.8 5.5-2 9.2 2.6 0 4.9.2 7.2 0 7-.6 11.4-3.6 14.9-10.6 12.2-24.2 25.5-47.9 38.5-71.8 2.8-5.2 6.2-10.2 9.5-15.2 1-1.5 2.6-2.5 4.2-1.5 1.5.9 1.7 2.9.9 4.5-1.3 2.7-2.9 5.2-4.4 7.8-2.9 4.9-6.3 9.4-8.6 14.6-5.9 13.1-13.8 25-20.3 37.7-5.1 9.9-10.2 19.9-15.7 30.8 2.8 0 4.2-.2 5.4 0 7.7 1.3 12.3-1.8 15.4-9 10.4-23.4 24.7-44.6 37.1-67 2.9-5.2 6.3-10.2 9.7-15.1.6-.9 1.7-2.2 3.3-1.4 1.8.9 2 2.4 1.5 4.2-1.2 4.7-5 7.8-7.2 11.9-8.9 17-17.8 34-26.5 51.2-3.4 6.7-8.1 12.9-9.3 20.9 7.6 2 13.2.1 17-6.6 11.3-19.8 22.7-39.6 34.1-59.4 2.7-4.6 5.6-9 8.6-13.4 2-2.8 4.2-.7 6.1.4 1.3.7 1.3 2.2.2 3.3-9.2 9.5-13.3 22.1-20 33.1-7.7 12.6-15.6 25.1-22.3 39.7 7.2-.7 9.4-5.6 12-9.9 12-19.5 24.3-38.8 37.1-57.7 2.4-3.7 5.9-6.1 11.1-5.8zm-366.8-18.5c-5-.1-9.9.1-14.9-.3-15.4-1.3-30.9-1.9-46.3-3.4-21.4-2.2-43-3.5-64.4-6.1-5.7-.7-11.4-1-17.1-1.5 0 2.6 1.1 3.8 2.1 5.2 12.8 17.8 25.7 35.5 38.1 53.5 11.5 16.7 23 33.2 35.8 49 6 7.5 12.1 10.5 21.1 9.2 1-.1 2-.1 3 0 3.6.2 5.4-1.4 6.3-4.9 3.7-14.1 10.5-27.2 14.7-41.2 3.7-12.3 8.4-24.4 13.5-36.3 3.2-7.5 7.3-14.8 8.1-23.2.9-1 .5.9.7-.4v-.6c-.7-.1-.9.3-.7 1zm1937.2 599.4c-2.1-4.7 1.8-5.7 4.6-7.2 29.7-16.5 57.1-36.4 83.8-57.1 27-20.9 52.1-43.9 75.4-69.1 17.6-19.1 34.4-38.5 49.9-59.3 22.8-30.3 41.9-62.8 57.9-97.1 7.9-16.8 14.3-34.3 21.3-51.4 7.1-17.5 13.9-35 18.5-53.4 8.4-33.7 18-67.2 22-101.9 2.6-22.7 5.5-45.3 5.7-68.2.2-21.6-3.3-43.1-2.6-64.6.5-18-.9-35.7-3.2-53.5-3.6-27.2-7.3-54.4-14.7-81-3.9-14-7-28.2-11.6-42.1-9.5-28.3-21.3-55.6-34.6-82.3-8.6-17.2-18.8-33.5-28.7-50.1-16.7-28-34.1-55.5-55.7-79.9-13.6-15.3-26.7-31.1-41-45.8-10.1-10.4-18.9-21.9-29.6-31.9-20.2-18.8-41.7-35.8-62.7-53.5-16-13.4-34.2-23.7-51.4-35.4-21.4-14.5-43.7-27.4-65.9-40.6-8.9-5.3-18.8-8.3-28.3-12.1-21.5-8.5-41.7-20.4-64.2-26.6-23.3-6.4-46.2-14.2-69.7-19.9-22.7-5.6-45.4-11.1-68.5-14.9-22.2-3.6-44.4-7-66.9-8.5-12.6-.9-25.2.7-37.7-2.2-4.5-1-9.2-1.4-13.8-1.4-22.4.1-44.8-.3-67.2 1.1-24.1 1.5-48.2 3-72.3 6-35.7 4.5-71.3 9.4-106 19.1-18.8 5.2-37.7 9.5-56.2 16.2-26.1 9.5-51.6 20.5-77.1 31.2-37.2 15.6-71 37.3-103.8 60.6-10.7 7.6-21.1 15.9-31.2 24.4-7.6 6.4-15.1 12.9-22.4 19.7-13.3 12.4-25.4 26-38.7 38.3-19.8 18.2-37 38.6-54.8 58.7-16.5 18.6-30.8 38.9-45.1 59-17.4 24.4-35 48.8-48.9 75.7-9.1 17.6-18.9 34.9-28.5 52.3-13.6 24.6-22.7 50.9-31.5 77.3-6 17.9-9.6 36.4-15.7 54.3-3.3 9.7-7.2 19.6-5.2 30.7.7 3.8-2.5 8.8-6.4 10.2-4.8 1.7-7.5 5.2-10.8 8.4-18.9 18.4-35.2 38.9-49.7 60.9-12.5 19.1-25.4 38-32.7 60-1.9 5.6-3.7 11.3-6.1 16.8-9 20.6-12.6 42.4-13.6 64.7-.6 13.7 2.2 27 4.7 40.4 4.2 23.1 13 44.5 24.7 64.6 8.2 14 19.2 26.4 31.1 37.4 17.6 16.3 37.7 28.7 61.2 35.5 22.5 6.6 45.1 9.9 68.4 10.1 21.1.2 41.1-5.4 60.8-11.6 19.1-6 36.4-15.9 52.7-27.4 5.5-3.9 9.6-9.2 13.8-14.3 1.4-1.7 2.3-3.4 1.1-6.2-2.5-6.1-.8-8.4 4.8-6.3 11.7 4.3 24 5.4 36 6.7 16.5 1.8 32.9-1.1 45.9-12.1 17.7-15 27.2-35.6 34.1-57.1 1.6-5.1 3.4-6.5 8-6.1 12.8 1.3 25.7 2.3 38.5 3.8 10.4 1.2 15.5 0 19.7-9.2 6.9-15 9.2-28.1-11.6-34.3-2.2-.7-4.4-1.4-6.6-2.2-9.6-3.4-19.5-3.7-29.5-3.3-4.7.2-4.6-2.5-4.1-5.8s3-4.4 5.7-4.5c5.6-.3 11.1-.5 16.7 1.4 12.5 4.2 25.1 8.4 38 11.2 8.3 1.8 17.1 1.5 25.4 4 9.1 2.8 11.7 1.8 14.8-7.3 2.5-7.2 4.5-14.6 5.8-22 1.5-9.1-1-16.8-8.8-22.9-4.7-3.6-9.8-5.4-15.1-7.3-7.1-2.5-7.1-2.5-4.3-9.4 4-9.6.7-18.4-7.7-24.2-7.3-5.1-15.9-6.5-23.9-9.3-6.5-2.3-13.2-5.5-19.9-5.8-17.1-.8-33.9-3.5-51.2-3.4-18.4.1-34.9 5.8-51.6 11.8-3.7 1.3-7.3 3.6-10.1 6.3-11.1 10.6-23.4 19.6-35.4 29.1-15.9 12.5-32 24.8-52.1 30.4-10.9 3-21.9 5.5-33.3 4.9-30.7-1.8-53-18.9-72.9-40.3-3.3-3.5-3.6-10.9-1.2-13.4 2.2-2.3 7.1-.1 11.6 4.4s8.2 9.5 13 13.7c12.2 10.8 27.3 16.1 41.9 22.3 4.3 1.8 8.9 3.5 13.4 3.1 13.8-1.2 27.7-3.9 39.6-11 19.9-11.8 39.1-24.8 55.6-41.6 15-15.3 33.9-23.9 55.1-27.4 11.4-1.9 22.8-3.8 35-3.4-1.1-3.7-1.8-6.6-2.8-9.3-1.6-4.4-3.7-8.5-4.9-13-2.2-7.7.7-11.3 8.4-11.6 11.3-.4 22.5.8 33.7 2.6 14.3 2.3 28.6 5.7 43 6.1 21.3.7 42.2 4.2 63.4 5.7 21.7 1.5 43.5 3.6 65.3 5.2 9.6.7 19.1 1.2 28.7 2.3 9.5 1.1 11.1 2.2 13 11.3 2 9.7 3.5 19.5 5.9 29.1 6.3 25 9.7 50.7 16.1 75.7 1.6 6.4 1.8 13.1 4.1 19.4 1.5 4.1.3 6.3-4.3 9-8.1 4.7-16.4 3.6-24.3 2.8-26-2.8-52.1-2.4-78.1-4.7-13.2-1.2-26.3-1.9-39.3-4.6-3.3-.7-6.4-.9-8.3 3.2-3.5 7.4-9.7 7.9-16.8 6-6.6-1.8-13.2-3.1-20.6-4.9 0 6.4.8 12.1-.3 17.6-3.2 15.5-12.3 28.2-30.2 26.6-10.9-1-21.9.5-32.8-2-2.9-.7-7.5-1.4-8.1 3.2-1.2 9.6-7.3 17-10.7 25.5-9.2 22.6-28.2 34.4-49.5 41.6-17.2 5.9-35.8 5-53.9 2.1-5.1-.8-8.4-.4-12.1 3.8-23.7 27.1-54 43.1-88.6 52-12.2 3.1-24.8 3.7-36.8 7.7-.8 2.1.4 3.9 1.1 5.7 3.5 9.4 8.6 17.8 14.3 26 19.5 28.4 37.9 57.7 62.8 82 23.5 23 48 44.6 74.3 64.3 23.1 17.3 46.2 34.4 71.1 49 5.1 3 7.1 8 4.7 12.8-8.4 16.7-10.9 35.4-18.3 52.5-2.6 6-4 12.7-4.4 19.3-1.6 21.6-.2 43 6.8 63.8 1.6 4.7 2.9 9.4 5.2 13.8 8.9 16.8 21.8 29.8 36.4 41.4 20.2 16.1 42.6 26.7 68.6 29 8.6.8 12.3 4.9 12.9 13.8.9 15.4-4 29.5-9.9 43.3-6.6 15.2-14.2 29.9-22.2 44.4-5.4 9.7-6.8 22.6 5.1 32.1 4.4 3.5 8.7 7.2 12.9 11 20 18.3 44.2 25.6 70.7 26.8 19.6.9 39-1.3 58.5-2.2 5.6-.3 11.5-.7 16.5-2.7 17.9-7.2 35.1-16.2 48-31.1 19.2-22.1 29.3-48.7 35.8-76.7 5-21.6 8.5-43.5 10.8-65.6.7-7.2-.5-12.4-5.4-17.8-22.5-24.4-38.4-52.3-43.4-85.6-.6-4.2-2.3-5.7-6.1-6.2-10.5-1.4-20.9-2.8-31.2-5.4-20.5-5.3-41.5-8.7-61.4-16.2-2.4-.9-5.1-1.3-7.5-2.4-1.9-.9-3.5-2.5-2.5-4.7s2.7-3.1 5.6-2.2c13.2 4.2 26.9 6.8 40.4 10 22.6 5.2 45.4 8.6 68.3 11.4 20.7 2.6 41.5 4.6 62.4 6.2 17.9 1.3 35.9 1.1 53.8 1.9 5.5.3 7.3-2.4 7.1-7-.3-8.5 1.6-16.3 4.7-24.1 1.1-2.6 3.2-5.4 2.2-8.4-.8-2.2-3.6-2.6-5.8-3.4-1.7-.6-1.9-2.6-2.6-4-4.5-8.9-6.3-18-3.7-27.9 1.2-4.7 2.5-9.8-4.7-12-3-.9-4.9-4.2-5-8-.4-11 .6-22 4.1-32.4 8.4-24.4 21.6-45.8 38.3-65.5 13.8-16.3 29.6-29.3 47.3-40.6 27-17.2 57.1-26.1 87.8-32.7 22.3-4.7 44.9-7.4 66.9-13.8 16.8-4.9 33.4-10.4 49.7-16.5 19-7 37-16.1 55.1-25 17-8.4 32.4-19 47.8-29.7 18.4-12.8 34-28.6 48.3-45.8 7-8.4 14.2-16.8 20.1-25.9 10.2-15.5 18.4-32.2 24.8-49.6 3.1-8.2 8.4-15.7 9.1-24.8.6-7.6 1.7-15.1 2.3-22.7.4-4.8 3.9-5.9 7.4-6 4.3-.1 2.7 3.6 2.9 6 .8 9.8-.8 19.5-3.8 28.5-7.6 22.8-14.8 45.7-28.7 66.2-11.7 17.4-23.9 34-37.9 49.7-18.2 20.4-40.3 35.4-62.9 50-22 14.2-44.8 26.9-69.2 36.7-17.2 6.9-34.6 13.2-52.4 18.4-22.3 6.6-45.6 7.6-68.3 11.7-5.6 1-10.8 3.4-16.4 4-18.3 2.1-35.3 8.8-52.1 15.8-24.3 10-44.8 25.6-63 44.3-22 22.6-37.5 48.8-43.6 80.1-1.3 6.8-3.5 14.4 2.3 19.8 5.4 5 4.6 10.5 3.9 16.4-.3 2.6-1.3 5.2-1.4 7.8-.6 11.6 2.9 18.4 11.8 21.2 9.5 2.9 19.4 4.4 29.3 5.2 1.6.1 3.8.4 4.6-1.1 3.6-7 11.2-12.5 8.7-22.1-.9-3.4-.2-7.1 1.5-10.6 2.4-5.1 3.7-10.6 6.1-15.8 6-13.3 12.2-26.5 21.9-37.7 2.7-3.2 6.4-4.8 9.5-2.1 3.1 2.7-.5 5.2-2.1 7.6-9.4 14.1-17.8 28.7-23.4 44.8-2.9 8.2-1.4 12.5 5.9 17.4 3.2 2.2 6.4 4.4 9.8 6.8 8.6-7.2 14.9-16.2 21.6-24.8 6-7.6 5.9-7.1 14.6-3.4 12.2 5.2 23.3 12.5 36 16.8 16.8 5.6 33.4 4.9 49.5-1.5 12.4-4.9 23.6-12.6 32.9-22.1 9.1-9.3 17.6-14.1 31.9-10.4 17.3 4.5 35.5 2 53.5.7 22.8-1.6 45.4-4.4 67.9-8.3 22.7-3.9 44.4-11 65.1-20.7 37.4-17.5 72-39.7 104.5-65.1 16.9-13.2 30.2-29.7 45.2-44.8 13.9-14 24.9-30.1 35.1-46.7 10.7-17.4 20.2-35.7 29.6-53.9 5.6-10.8 12.1-21.3 16.2-32.8 1.9-5.5 3.1-11.5 7.9-15.5 6.1 5.9 6.4 6.6 3.4 12.6-2.4 4.8-5.3 9.3-7.3 14.2-10.3 26-24.2 50-38.3 74-17.2 29.5-39.3 55.1-63.2 79.2-29.9 30.1-64.7 53.8-101.1 75.3-16 9.5-32.6 18.5-50.3 23.5-26 7.3-51.5 17-78.7 19.6-16.1 1.6-32.2 4.2-48.3 5.2-15.6.9-31.4.1-46.7-2.8-7.8-1.5-12.6.9-17.5 5.9-8.5 8.5-18 16.3-28.9 20.7-26.5 10.7-53.3 12.8-79.4-2.2-6.6-3.8-13.8-6.6-20.5-10.2-3.9-2.1-6.4-1.8-9.3 1.9-4.5 5.8-9.3 11.3-13.5 17.2-2 2.9-3.8 6.6-8 6.9-4.7.4-9.1 2.4-14-.9-2.9-1.9-6.4-4.7-10.6-4.5-2.2 4-4.7 7.5-6.4 11.4-3 6.9-8.7 8.7-15.3 8.8-4.3 0-8.5-.6-12.7-2.1-3.8-1.4-7.9-3.2-12.3-1.3-.3 1.4-.4 2.7-.8 4-7.3 20.7-9.2 41.8-5.9 63.7 1.3 8.5 2.5 16.9 4.2 25.3 5.2 26.3 20.6 45 43.1 58.6 1.3.8 3.4 1.1 3.1 3.3-.4 2.3-2.6 3.3-4.4 3.4-4.1.3-7.5-1.5-10.9-3.8-2.2-1.5-4.4-4.4-7.9-2.4-7 3.8-14.9 6.4-20.9 11.3-8.9 7.3-17.4 15.6-24.5 24.7-7.5 9.5-14.9 19.6-16.2 32.5-.5 4.3-.2 8.6-.6 12.9-2.9 27.1 6.1 50.8 20.6 73 8 12.3 18.3 21.7 31.9 27.8 12.1 5.4 24.2 10.2 37.4 12.8 11 2.2 21.5 2.1 32.5.9 26.1-2.7 50.2-12 73.9-22.3 17.2-7.5 34.6-15.2 49.4-27.2 15.4-12.6 30.9-25.1 45.8-38.3 13.4-11.9 25.1-25.5 35.2-40.5 2-3 2.1-5.1.4-8-10.3-17.2-16-36.2-21.8-55.2-7-22.9-7.3-46.4-5.6-69.8 1.2-17 6-33.2 16-47.5 4.2-6 9.5-9.8 16.3-12.4 9.1-3.5 18.6-4.6 27.9-6.9 19.6-4.9 39-10 58.5-15.2 11.8-3.1 23.6-6.5 35.3-9.7 2 .5 3.9-.1 5.8-.7 13.6-4 27.3-8.1 40.9-11.9 15.6-4.4 31.4-8.2 46.9-13 22.5-7 44.6-14.9 67-21.9 38.2-12 75.7-25.8 113.6-38.6 4.7-1.6 7.2-.8 9.8 3.5-2.3 1-4.1 1.8-5.9 2.6-20.4 8.8-42.1 13.8-62.8 22-11.9 4.7-23.8 9.6-36.4 12.8-5.1 1.3-10.3 3-14.8 5.5-12 6.7-25.1 10.3-38.1 14-29.9 8.4-59.5 18.1-89.3 26.8-20.4 5.9-40.8 11.5-61.2 17.3-11.1 3.2-22.4 5.9-33.7 8.2-11.6 2.4-22.9 5.7-34.4 8.6 22.5 1.8 44.6-1.9 66.7-3.4 30.1-2.1 59.6-8.3 89.1-14 22.1-4.3 44.1-9 65.9-14.2 16-3.8 31.8-8.5 47.9-12.1 15.2-3.4 30.6-6.7 45.1-12 13.5-4.9 27.4-7.7 41.2-11 28.9-6.9 58-13.1 87-19.6 27.7-6.3 55.4-12.7 83.5-17 29.8-4.5 59.8-7.4 90-6.1 3.3.1 7.8-.9 7.6 3.8-.2 5-5.2 3.2-8 2.9-18.7-2-37.2 1.2-55.7 2.6-25.1 1.9-49.7 7.6-74.3 13-18.7 4.1-37.7 7.4-56.4 11.6-21.9 5-43.8 10.4-65.7 15.1-6.8 1.5-13.7 2.4-20.4 4.1-16 4.2-31.8 9.2-47.9 12.9-21 4.9-41.6 10.9-62.5 16.1-20.5 5.1-41.2 9.9-62 13.8-15.2 2.9-30.7 5.1-45.8 8.4-26 5.6-52.1 10.1-78.6 11.7-25.8 1.6-51.6 5.4-77.6 3.9-4.6-.3-7.4 1.2-9.4 5.3-1.7 3.6-4.8 6.3-6.6 9.9-5.4 10.8-4.4 13 7.2 12.8 24.9-.3 49.8.5 74.7.5 26.1 0 52.3-.2 78.4 1.3 33.1 1.9 66.2-1.1 99.3-1 18.2 0 36.3-.5 54.4-2.3 3.4-.3 6.6-.1 9.7 1.5 1.5.8 3.4 1.4 2.8 3.4-.4 1.5-1.8 2.7-3.7 2.7h-7c-11 .2-22.1-.6-32.9.9-25.8 3.5-51.8 2.3-77.6 2.3-34.1.1-68.3.2-102.4-.7-18.4-.5-36.5 2.3-54.8 2.1-16.3-.2-32.6.3-48.9 1.3-4.3.3-5.5 1.6-5.8 5.8-.9 10.2-1.2 10.2 8.6 11.8 1.6.3 3.3.3 4.9.4 24.5 1.3 49 2.6 73.5 4 6.9.4 13.8 1 20.8 1.5 22.1 1.5 44.2 3.7 66.3 4.3 15.5.4 30.8 3.9 46.4 3.3 2.7-.1 5.3 1.5 4.9 5-.5 3.5-3.3 2.6-5.5 2.3-8.9-1.1-17.8-2.6-26.7-2.1-17.9.9-35.8.4-53.7-1.3-12.1-1.2-24.3-2-36.5-2.3-25.4-.6-50.9-1.4-76.3-.6-6.9.2-13.9 0-20.8-.9-5.5-.7-6.5.7-5.5 6.1.2 1.3.9 2.5 1.2 3.8 1.6 8.8 1.6 8.8 10.7 9 7.3.1 14.5.3 21.8 1.7 9.1 1.8 18.4 2.2 27.7 3.1 21.5 2.1 42.9 4.1 64.4 6.1 15.5 1.4 31.1 2.7 46.6 3.8 14.2 1 28.7.2 42.6 2.7 20.7 3.7 41.5 2.4 62.3 3.8 16.4 1.1 33.2-.3 49.4 2.2 27.3 4.1 54.7 5.7 82.1 8.4 27 2.7 54.2 4 81.3 6.3 14.5 1.2 29 1.3 43.4 2.9 12.2 1.3 24.5 2.1 36.7 2.9 21.2 1.4 42.5.9 63.8 2.3 12.6.8 25.3.7 37.8 2.4 5.7.8 8-.2 10-5.4 8.8-23.2 12.3-47.4 13.6-71.9.9-16.5.7-33 .5-49.5-.2-13.1 1.1-26.2.3-39.4-1.1-17.9-2.2-35.7-5.9-53.3-1.3-6.5-2.2-13-4.2-19.4-.6-2-.7-4.1 1.6-5.1 2.3-.9 3.8.8 5 2.3.8 1 1.1 2.3 1.5 3.6 3.2 11.8 7 23.4 8.2 35.8 1.1 10.5 1.5 21 2.6 31.4 2 19 .9 37.8.2 56.7-.6 16.2-3.3 32.3-3.7 48.5-.2 7.3-1.7 14.5-2.7 21.7-1.9 13.4-5.4 26.3-8.9 39.2 3.1 1.2 5.2-.5 7.1-1.3 15.1-6 30.3-11.7 45-18.6 36.1-16.8 72.9-31.7 109.9-46.4 12.3-4.9 25.1-8.7 37-14 23-10.2 47-17.8 69.9-28.4 23.7-10.9 48.6-19.1 73-28.4 6.8-2.6 12.1-6.6 14.4-13.8 7.8-24.1 11.6-48.8 12.4-74.1.2-6-1-11.7-.3-17.8 1.6-13.8 3.2-27.8.8-41.5-1.6-9.6 1-20-4.6-28.7-1.8-.7-2.8.3-3.9 1-10 6-19.8 12.1-29.9 17.9-6.7 3.9-12.8 7.8-11.6 17.1.3 2.5-.9 5.2-1.4 7.8-6.3 30.2-22 53.7-49.4 68.7-4 2.2-8.9 2.6-12.3 6.2-1.9 2.1-4.1.8-6.3-.5-8.3-5.4-16.8-10.6-25.2-16-16-10.1-32.7-18.8-49-28.3-20.2-11.7-41.5-20.9-62.8-29.7-28.1-11.6-57.2-20.1-87.8-23.9-19.5-2.4-38.9-6.9-58.5-8.2-32.9-2.1-65.8-1.4-98.1 6.5-3.6.9-8.5 2.3-9.9-1.5-1.7-4.7 3.8-4.9 6.9-6.3 1.8-.8 3.7-1.4 5.6-1.9 18.4-4.4 37-7.8 56-7.8 12.2 0 24.5-.2 36.7.2 16.9.5 33.8 1.6 50.6 3.6 11.9 1.4 23.4 4.5 35.2 6.5 26.6 4.5 52.2 11.6 76.2 24.1 15 7.8 29.7 16.2 44.8 23.8 16.2 8.1 29.8 20.6 45.9 29.1 7.3 3.9 14.5 8.1 20.9 13.4 5.9 4.9 12.4 5.7 19.4 3.7 10.9-3.1 19.2-10.4 26.3-18.7 6.4-7.5 11.4-16.2 16.7-24.6 2.3-3.6 3.7-7.7 3.7-12.2 0-7.3 1-14.7.4-21.9-.6-7.1 2.5-10.6 8.3-14 23.6-14 48.1-26.7 68.5-45.5 17.1-15.7 33.5-32.1 45.4-52.8-5-5-10.7-8.1-16.9-10.4-15.9-6-32.6-8.9-49.1-12.5-7-1.5-11.1-4.9-14.2-10.9-16.8-32.7-45.2-50.7-79.4-59.8-22.4-6-45.7-8.1-69.1-6.2-7.4.6-14.6 1.6-17.8 10-.8 2.1-2.7 3.7-4.2 5.5-2.9 3.4-5.7 3.5-7.6-.4-4.9-10.2-11.3-19.5-16.4-29.5-9.6-19.2-23.6-35.3-36.1-52.4-3.4-4.6-8.1-6.7-13.5-7.6-3.3-.6-6.5-1.1-9.8-1.6-23.3-4-46.2-2.7-69 3.4-18.8 5.1-35.5 14.4-51.6 25-4.4 2.9-8.8 5.9-13.1 9-21 14.8-37.8 34.4-58.6 49.4-6.2 4.5-12.1 9.3-18.3 13.7-16.9 11.8-33.8 23.5-51.2 34.4-25.9 16.3-54.2 28-81.6 41.5-6.8 3.3-12.5 7.5-17.2 13.1-5.1 6.1-10 12.4-15.1 18.5-13.2 15.8-27.2 30.9-42.2 45-15.2 14.4-32.3 26.6-48.2 40.1-29.4 25-60 48-95.8 63.4-2.8.8-5.4 3.5-9.1 2.1zm-1502-266.5c-4.2.7-7.2 1-10 1.7-21.8 5.4-43.5 11.3-65.5 16.3-17.4 4-34.7 8.2-52.1 12.2-18 4.1-35.6 10.3-53.7 14.6-19.6 4.7-39.1 10.1-59 13.6-15.6 2.8-31.5 3.4-46.8 8.6-4.9 1.6-10.3 2.2-15.5 3.4-3.5.9-7.2 1.5-10.9.8-1.6-.3-2.3-1.5-2.7-2.7-.4-1.3.4-2.5 1.5-3.4 1.7-1.3 3.6-1.5 5.6-1.9 16.5-3.6 33.1-7.1 49.5-11 15.1-3.6 30.1-8.1 45.3-11.5 26.2-5.9 52.3-12.3 78.5-18.2 21.2-4.7 42.1-11.5 63.3-16.7 12.2-3 24-7.6 36.3-10.3 21.1-4.6 41.8-10.3 62.5-16 4.5-1.3 5.1-3.8 5.1-7.1 0-15.9-.3-31.9-.4-47.8 0-3.2-1.6-4.1-4.4-3.7-2 .3-4.1.3-5.8 1.1-11 4.8-22.8 6.8-34.3 10.1-24.2 6.9-48.5 13.7-72.8 20.2-14.7 4-29.9 6.4-44.4 11.2-23.3 7.6-46.9 13.9-70.6 19.8-27 6.6-54.6 11.1-81 20-7.2 2.4-14.6 4.3-21.8 6.8-4.1 1.4-7.8 1.5-11.1-1.6-1.2-1.1-3-1.9-2.5-3.9.4-1.8 2-2.7 3.6-3.1 5.8-1.3 12.2-1.4 17.4-3.8 11-5.1 22.7-7.1 34.3-9.8 15.5-3.6 30.9-7.6 46.6-10.5 13-2.4 25.9-5.5 38.7-8.7 10.6-2.7 20.7-7 31.4-9.4 21.3-4.9 42.6-9.5 63.6-15.5 14.6-4.2 29.3-8.6 44.1-12.2 15.8-3.8 31.2-8.9 46.9-13.2-1.6-2.7-4-2.6-6.3-3-19-2.6-38.1-5.4-57.1-8-15.1-2.1-30.2-4.6-45.5-4.7-2 0-4.1-.9-4.9 1.8-2.1 7-8.5 8.1-14 9.6-16.1 4.1-32.2 8.4-48.5 11.1-37.4 6.1-73.6 17.1-110.3 25.9-20 4.8-39.8 10.3-59.7 15.4-4.8 1.2-10.4.6-14.5 2.9-5.4 3-10.2 2.6-15.9 2.4-27.8-.8-55.6-2.3-83.2-6.5-15.4-2.3-30.9-3.6-46.2-6.9-6.4-1.4-10.5-3.5-9.9-10.8.3-3.8-2.2-4.7-5.2-3.6-12.2 4.4-25.2 5.3-37.7 8.2-16 3.8-32.3 7-48.7 8.6-19.2 1.8-37.6 7.8-56.7 9.6-1.1.1-3.2.3-3.4 2.3 1.3 1.5 2.9 2 4.6 2.2 13.8 1.6 27.6 4.1 41.5 4.4 17.3.4 34.1 4.7 51.4 5 5.9.1 12 0 17.9 1.1 23.5 4.2 47.5 4.6 71.2 7.5 22 2.7 44.2 3.9 66.2 7.4 15 2.4 30.3 3.3 45.5 4.7 6 .5 12 .3 17.9.8 2.8.2 5.6 1.5 5.3 4.8-.3 3.1-3.5 2.7-5.7 2.5-9.3-.6-18.6-.8-27.8-2.2-24-3.7-48.2-4.5-72.2-7.1-15.8-1.7-31.7-3.4-47.4-5.3-13.5-1.6-27-4.1-40.5-4.3-22.7-.4-44.7-5.7-67.3-7.2-22.1-1.5-44.1-4.8-66.1-7.2-2.2-.2-4.5-1.3-7.1.9-.1 1.2-.2 2.8-.2 4.4 0 12.3.3 24.6 1.6 36.8 1.1 10.1.8 10.1 10.3 12.4l.9.3c12 2.8 13.7 4.7 13.4 16.7-.3 11.8-1.6 23.6-1.5 35.4.2 21.5 1.2 43 .1 64.5-1.3 24.9-.6 49.9 1.3 74.7.8 10-.3 19.9 0 29.9.4 14.8 2.4 29.7 1.2 44.4-1.4 18-.2 35.8 1.3 53.6 1.9 22.5 0 44.9.9 67.4.3 7-1.3 13.9-.7 20.7 1.5 15.2 1.7 30.4 2.9 45.6.3 4 1.6 5.7 5.9 6.2 6.2.8 12.3 2.6 18.5 3.9 21 4.2 42.1 7.5 62.8 13.1 22.7 6.1 46.2 8.4 69.1 14 19.9 4.9 40.4 7.6 60.4 12.1 25.8 5.8 51.4 12.6 77.9 15.4 9.4 1 9.8 1 10.1-8 .1-2.7 0-5.3 0-8l-.9-107.4c-.1-13.9-1.5-27.8-1.2-41.8.4-14.9.9-29.8.1-44.7-1.2-23.9-.2-47.8-1.8-71.7-1.5-22.6-1.2-45.3-.8-67.9.3-20.6-.2-41.2-.7-61.7-.5-20.4.9-40.7.9-61.1 0-5.4 2.2-8.5 7.7-9.9 1.8 7.4 0 14.3.1 21.3.1 34.6 0 69.3-.2 103.9-.1 13.5-1.6 27.1-.9 40.5 2.4 41.5.9 83.1 3.1 124.6 1.2 22.1 1.3 44.3.6 66.5-.6 20.3 1.6 40.6 1.5 60.9-.1 17.3-.1 34.5 0 51.8 0 3.2-.9 6.6 1.4 10.5 9.9-3.3 20-6.3 29.9-10 22.3-8.4 44.5-17.1 67.2-24 35.9-10.9 70.6-25 106-37.5 25.3-8.9 50.5-18.1 75.7-27.4 13.4-5 26.4-10.9 39.8-17.9-2.8-4.3-2.7-9-1.8-13.4 2.1-10.2 1.4-20.5 1.9-30.8.7-16.9 1.6-33.8 2.1-50.7.4-12.9 0-25.9.4-38.8 1.1-33.8 2-67.7 3.1-101.5 1.4-42.9.7-85.9 1-128.9 0-6 .3-11.9.7-17.9 1.2-17.1 1.9-33.7.3-51.2zm210.7 317c4.3-5.1 9.1-3.9 13.9-3.2 17 2.3 34.1 4.3 51 7 13.1 2.2 26.5 1.3 39.6 3.8 15 2.8 30.3 3.3 45.5 4.6 9.6.8 19.3.6 28.7 2.1 19.3 3.1 38.8 4.2 58.3 6.1 11.2 1.1 22.4 2.2 33.7 2.9 9.9.7 19.6 3 29.6 3.3 14.2.3 28.4 1.9 42.7 3 2.3.2 5 .8 5.3-2.6.2-2.6.3-5.6-3.2-6.4-2.9-.7-5.8-1.7-8.7-1.9-18.5-1.3-37-3.1-55.2-6.3-9.5-1.7-19.2-1.2-28.6-3.6-3.2-.8-4.6-1.7-4.2-5.1.4-3.2 2.3-3.4 4.9-3.3 14.6.4 29.1 1.4 43.7 2.8 15.5 1.5 31.1 2.1 46.7 3.2 3.3.2 4.5-.9 5-4.3 1.2-7.9 2-15.8 4.5-23.4 1.3-3.9 0-5.6-3.9-6-6.3-.6-12.5-1.7-18.8-2-15.3-.6-30.3-3.6-45.4-5.4-20-2.3-39.9-6.3-59.9-8.8-33.5-4.1-66.6-10.7-100-15.7-22.5-3.3-44.7-8.8-67.4-11.2-20.4-2.2-40.6-6.7-60.6-11.2-20-4.5-40.1-8.5-60.2-12.6-20.1-4.2-40.1-8.7-60.2-12.9-12.6-2.7-24.7-7.6-37.5-9.6-3.2-.5-6.3-1.9-9.5-2.8-2-.6-3.9-1.6-3.5-4 .5-2.8 3.2-2.3 4.9-1.9 13.2 3.6 26.9 4.7 39.9 8.2 21.4 5.8 43.1 10.3 64.9 14.1 13.3 2.3 26.5 5.5 39.8 8.4 14.8 3.2 30 4.3 44.7 8.3 7.9 2.2 16.1 3.7 24.3 4.7 23.3 2.8 46.3 7.7 69.5 11.2 32.1 4.9 64 10.7 96.2 14.6 6.5.8 12.9 2.7 19.5 3.4 11.8 1.4 23.7 2.5 35.4 4.9 28.3 5.7 57.3 6.4 85.7 11.4 4.4.8 5.8-1.4 6.9-4.8 3-9.5 5.6-19.1 10-28.1 1.5-3.1.2-4.8-2.6-6.3-6.4-3.5-13.5-6.3-18.8-11.1-14.8-13.3-32.3-23.1-47.4-36.2-23.6-20.4-47.8-40.1-69.1-63-14.7-15.7-30-31-42.7-48.5-2.1-2.9-3.6-3.6-7.3-2.3-15.5 5.6-29.2 14.2-41.7 24.5-6.3 5.2-10.7 12.6-16.6 18.3-7.4 7.1-12.2 15.6-15.8 24.9-2.7 6.8-5.1 13.7-7.7 20.5-1.2 3.1-2.2 6.3-3.8 9.2-1.2 2.3-3.2 1.8-4.8.1-1.6-1.6-1.9-3.6-1.3-5.6 2.2-7.6 4-15.2 7.3-22.6 9-20 22.6-36.6 37.3-52.5 3.2-3.5 3.3-6.1.7-9.4-1.4-1.8-2.8-3.7-4.4-5.4-10.2-11.1-22.6-19.4-34.8-28-22.7-15.9-47-28.4-72.7-38.6-16-6.3-32.1-12.6-48.1-18.8-15.5-6-31-11.5-47.2-15-16.5-3.5-33.2-6.3-49.8-9.4-14.5-2.7-29-2.3-44-.9.9 11.2-5.5 16.3-15 19-3.5 1-6.8 3-10.3 3.5-5.7.8-6.4 3.9-6.5 8.9-.3 19.1 1.4 38.2.3 57.3-1.1 20.5-.4 41.1-.9 61.6-.6 20.7-.9 41.3-.7 61.9.3 24.3-1.5 48.8-2.7 73.1-1.1 22.6.3 45.2-1.8 67.8-.5 5.3-.2 10.6-.7 15.9-.4 5.1 2.2 7.3 6.8 8 5.2.8 10.4 1.9 15.7 2.4 21.8 2.1 43.5 4.1 65.3 6.1 20.1 1.8 40.3 3.8 60.5 5.3 10.6.8 21.3-.1 31.8 1.2 18.4 2.3 37 2.7 55.5 4.5 20.3 2 40.7 4.6 61.2 4.4 17.6-.2 35.1 2.4 52.6 3.9 14.6 1.2 29.3 1.2 43.7 2.4 28.7 2.4 57.5 4 86.2 5.3 27.2 1.2 54.2 4.4 81.4 5.9 4.1.2 5.5-1.2 4.3-4.9-2.6-8.2-5.4-16.4-8.1-24.6-.6-1.9-1-3.7-3.6-3.9-5.9-.5-11.8-1.9-17.8-1.9-17.3-.1-34.4-3.2-51.6-4.5-29-2.2-57.9-6.7-86.9-9.3-26.4-2.4-52.7-5.7-79-8.7-30.6-3.5-61.4-5.9-92-9.3-7.7-.7-13.6-3.2-20.4-6.1zm-554.9-358.9c2.7 1.3 4.4-.1 6.3-.6 8.3-2.3 16.4-5.3 24.9-7.1 21.8-4.4 43.5-8.9 65-14.5 29.5-7.7 59.4-14.1 89-21.2 14.2-3.4 28.1-7.8 42.1-11.7 1.8-.5 2.5-1.3 2.6-3.4.6-16.9 1.6-33.7 2.3-50.6.5-13.3.1-26.7 1.4-39.9 1.2-12 1.3-23.9 1.6-35.9.1-5.2-2.4-6.4-6.8-5.8-19.7 2.5-39.3 6-58.9 8.7-11.6 1.6-23 3.1-34.6 3.2-4 0-8-.3-12 .2-31.9 3.8-63.7 8.7-95.8 12-7.9.8-15.9.9-23.6 3.3-3.5 1.1-5.1 3-4.7 6.4.8 6.7 0 13.3 0 19.9.1 36.9.1 73.8.6 110.8.2 8.9-1 17.8.6 26.2zM182.3 836.6c1.6 3.4 2 6.8 1.9 10.5-.2 11-2.2 21.9-2.3 32.8-.3 28.7-.1 57.3.2 86 .1 10.3.9 20.5 1.6 30.8.2 3.3.4 6.7 5 7.3 17.4 2.4 34.7 5.6 52.2 7.3 12.5 1.2 25 3 37.6 3.8 14.2.9 28.5 1.8 42.8 2.3 6.4.2 6.4-.3 6.4-6.9-.1-16-.7-32-.2-47.9 1.1-34.9-.7-69.8 1.7-104.6.6-7.8 0-8.3-8-9.4-16.4-2.3-32.9-4.1-49.4-6.3-21.1-2.8-42.4-2.5-63.5-5.6-8.2-1.4-17.1-2.3-26-.1zm1369.1 36.7c.5-8.6-1.5-16-3-23.4-6.9-33.7-13.9-67.4-20.7-101.2-.7-3.5-1.9-4.9-5.5-5.6-10.1-2-20.5-2-30.7-2.8-17.9-1.3-35.8-1.4-53.7-2.8-15.8-1.2-31.5-4.2-47.3-5.2-30.7-1.9-61.4-4.1-91.7-9.8-6.8-1.3-8.3.5-7.1 7.3 3.2 17.7 3.7 17.7 22 19.6 17.8 1.8 36 3.6 52.3 11 21 9.4 27.6 17.6 25.7 35.5-.7 6.4 1.6 8.1 6.7 10.7 17.8 9 26.2 19.9 18.5 42.9-1.5 4.4-3.5 8.6-3.1 13.9 20 4.6 40.5 5.5 61 6.5 14.9.7 29.7 2.4 44.5 3.3 10.7.6 21.3.1 32.1.1zM112 887.8c19.8.6 37.7.2 55.6-1.8 4-.5 5.9-1.9 5.9-6.2 0-11.3.3-22.6.5-33.9.1-4.6-.5-9.4 4.6-12.1 2.7-1.4 1.3-3.3.4-4.9-3.8-7.1-9.1-13.1-13.6-19.6-20.9-30.4-45-58.5-63.9-90.3-4.1-7-5-6.9-11.5-1.9-20.4 16-41.2 31.3-61.8 46.9-12.7 9.6-14.4 6.2-3.5 23.2 14.7 22.9 31.1 44.7 47.1 66.6 7.2 9.9 15.8 18.9 22.6 29.1 2.4 3.7 5 4.3 9 1.4 9.9-7.1 20.1-14.1 30.6-20.4 6.9-4.1 12.5-10 20-13 1.3-.5 2.7-.9 3.5.5.7 1.2.6 2.7-.6 3.6-2.8 2.3-5.8 4.5-8.7 6.7-11.5 8.5-24.4 14.9-36.2 26.1zm2554.2 675.8c0-3.8-.1-7.8 0-11.8.1-4-1.3-7.2-5.5-5.5-4.3 1.7-8.5.4-12.5.4-6.8 0-12.7 4.3-20 2.5-7.3-1.8-15-1.5-22.6-2.1-4.3-.4-6.2 1.5-5.3 5.9.9 4.2 1.1 8.5 1.1 12.9.1 16.2.2 32.5.7 48.7.5 16.5 2.5 33 .1 49.6-.6 4.1 1.1 8.5 1.6 12.7.4 3.3 2.8 4.3 5.5 4.9 14.5 3.1 28.9 2.4 43.4-.2 3.5-.6 4.9-2.1 5-5.9.5-12.9.6-25.9 2.4-38.6 3.6-24.4 3.3-49 6.1-73.5zm325.7-116.7c.6-7.9-.8-15.9.8-23.8.9-4.2-1.3-5.3-5.9-4.1-12.5 3.3-24.4 8.3-36.3 13.3-10.6 4.4-12 1.7-9.3 16.3.4 2.3.2 4.7.1 7-.9 19 1.9 37.8 2.2 56.7.1 5 .4 10 .5 14.9.1 4.3 1.8 7.1 6.5 6.8 9.6-.4 19.1-1.5 28.5-3.7 5-1.1 6-3.8 6.3-8.3.8-12.2.8-24.7 3.2-36.6 2.7-12.8 2.5-25.6 3.4-38.5zM647 1511.2c-10.3 3-19.6 6.2-28.6 10.3-10.3 4.7-10.3 4.7-9 16.5.1 1.3 0 2.7.1 4 .3 15.9.3 31.8 2.1 47.7 1.9 16.9 2.5 19.1 22.1 17.7.7 0 1.3-.1 2-.2 10.3-2.3 11.6-3.8 12.3-14.4.2-2.6.2-5.3.1-8-.1-19.2-.2-38.5-.4-57.7-.2-4.9 1.1-9.9-.7-15.9zm-284 103.9c-7.8 1.5-14.4 3.9-21.5 3-6.8-.9-13.5-3.4-20.9-2.3-1.5 6.1 1 11.9 1 17.7.2 18.2 2.4 36.2 5.4 54.2 1 5.9 4.1 8.5 8.7 10.8 3.1 1.5 6.4 1.7 9.7 2 13.7 1.3 16.4-1.3 16.5-14.8.1-13.3-.5-26.6.6-39.8.8-10 .8-19.8.5-30.8zm-296.4-54.7c-1.8 3.2-1.3 6.3-1.1 9.2 2.1 24.4 4.3 48.7 10 72.6 1.9 7.9 4.5 10.3 12.6 11.4 12.2 1.8 17.3-2.1 15.6-14.3-2.6-19.3-.6-38.7-1.7-58-.6-11.9-2.6-14.9-14.4-17.2-6.8-1.2-13.6-2.3-21-3.7zM1689 1436.3c-4.8-3.6-10.4-3.5-15.7-4.1-8.6-1-17.2-1.8-25.8-2.7-3.2-.3-6.3-1-5.4-5.3.8-3.6 3.6-4.5 7-3.8 1 .2 1.9.8 2.8.9 9.2.9 18.5 2.1 27.8 2.6 8.4.5 9.3-1.2 6.6-9.2-.8-2.3-1.9-2.8-4-3.5-3.9-1.2-7.9-1.2-11.8-1.1-18.6.3-37.1-1.7-55.6-3.6-11.5-1.2-23.1-1.9-34.7-2.9-3.3-.3-4.6.7-4.5 4.4.4 17.4 7.8 25 25.2 25.4h2c17.9.9 35.8 1.5 53.6 3.6 10.7 1.4 21.6 2.1 32.5-.7zm14.6 44.9c-.5-1.7-1-3.3-1.5-4.8-2.9-9.5-2.8-9.7-12.8-10.2-20.1-1-40.2-1.7-60.3-2.4-9.1-.3-18.3 0-28.6 0 3.9 4.8 7.3 8.1 10.9 11.3 2 1.7 3.8 2.3 6.1 2.4 21.8 1 43.6 3.1 65.4 2.5 6.8-.2 13.5 2.7 20.8 1.2zm-9.7-22.1c-1.2-8.3-1.2-8.4-7.7-8.9-13.2-1-26.4-1.2-39.5-2.8-19.3-2.4-38.7-.6-58.4-2.9 1.1 4.9 3.1 8 7.7 8.7 5.6.8 11.1 1.6 16.7 2.2 27 2.8 54.1 1.3 81.2 3.7z"/><path fill="#ABEBB1" d="M614.5 740.3c-5.2-.3-8.7 2.2-11.5 6.4-12.9 18.9-25.1 38.2-37.1 57.7-2.6 4.3-4.8 9.2-12 9.9 6.7-14.5 14.6-27.1 22.3-39.7 6.7-11 10.8-23.6 20-33.1 1.1-1.2 1.1-2.6-.2-3.3-1.9-1-4.2-3.2-6.1-.4-3 4.3-6 8.8-8.6 13.4-11.4 19.8-22.8 39.6-34.1 59.4-3.8 6.7-9.5 8.6-17 6.6 1.2-8 5.9-14.2 9.3-20.9 8.7-17.1 17.6-34.1 26.5-51.2 2.1-4.1 6-7.2 7.2-11.9.4-1.8.2-3.3-1.5-4.2-1.6-.8-2.7.5-3.3 1.4-3.4 5-6.8 9.9-9.7 15.1-12.4 22.3-26.7 43.6-37.1 67-3.2 7.1-7.7 10.3-15.4 9-1.3-.2-2.6 0-5.4 0 5.5-10.9 10.6-20.8 15.7-30.8 6.5-12.7 14.4-24.6 20.3-37.7 2.3-5.1 5.7-9.7 8.6-14.6 1.5-2.6 3.1-5.1 4.4-7.8.8-1.6.6-3.5-.9-4.5-1.6-1-3.3 0-4.2 1.5-3.2 5-6.6 9.9-9.5 15.2-13 23.8-26.3 47.5-38.5 71.8-3.5 6.9-7.9 10-14.9 10.6-2.3.2-4.6 0-7.2 0-1.7-3.7.6-6.5 2-9.2 12.3-23.5 24.7-46.9 37.2-70.4 1.9-3.5 4.2-6.8 6.3-10.2 1-1.6 1-3.1-.5-4.4-2-1.7-3.8-1.1-5 .8-2.4 3.6-4.9 7.1-6.8 11-11.9 23.7-24.4 47.1-38.3 69.8-2.7 4.3-5.7 8.3-.9 14.1h-18.9c13.4-31.4 29-61.3 45.7-90.7-5.7-2.3-6-2.5-8.4 1.5-4.6 8-8.9 16.3-13.2 24.5-8.1 15.6-16.2 31.2-23.9 47-3.2 6.5-6.8 12.9-8.1 20.3-5.5.2-10.7 1.4-16 .3l.2.2c.7-6.8 5.2-12.1 7.5-18.3 9.3-24.8 21.7-48.3 32.6-72.4 1.1-2.5 4.2-5.6 0-7.5-3.8-1.7-4.8 2-6.1 4.7-12.7 27.7-25.3 55.5-38.2 83.1-2.1 4.4-1.5 11.3-5.5 13-5.2 2.2-11.7 1.2-18.3 1.6.6-7.2 3.2-13.2 6-18.9 7.4-15.6 14.8-31.2 22.7-46.5 4.8-9.5 7.7-19.8 13.8-28.7.9-1.3 1-3.1 1-4.8.1-1.3-.5-2.8-2.2-2.8-.9 0-2.2.3-2.6.9-1.4 1.8-2.8 3.8-3.7 5.9-12.3 28.9-28.3 56.2-39.7 85.5-2.9 7.5-6.1 13.4-15.5 12.1-1.1-.2-2.4 1-4.1.1 7.6-18.2 15.4-36.3 23.5-54.4 5.1-11.5 9.4-23.3 14.7-34.7.8-1.7 3.1-4.4-.4-5.9-3-1.3-5.1.3-6.4 3-1.4 3-2.5 6.1-4 9.1-7.6 16.2-15.6 32.3-22.9 48.7-4.8 10.8-8.6 22.1-12.7 33.2-.6 1.7-.9 3.2-2.9 3.4-3.9.3-7.7 2-12.4.5 3-13.1 8.3-25 13.3-37.1 7.2-17.5 14.4-35 21.5-52.5.5-1.2 1.4-2.4 1.5-3.7.1-1.8-1.3-3-2.9-3.6-1.4-.5-2.6.4-3.3 1.5-1.1 2-2.2 4.1-2.9 6.3-6.1 18.3-13.8 35.9-22 53.4-5.1 10.8-8.8 22.2-13.3 33.2-1.9 4.6-6.8 5.9-10.9 3.3-3.3-2.1-1.3-4.5-.6-7 4.3-15.4 11.5-29.7 16.4-44.8 3.8-11.7 9.6-22.6 13.4-34.3.5-1.6 1.1-3.1 1.7-4.7 1.1-2.7 1.3-5.4-2-6.5-2.7-.9-4.5 1.1-5.5 3.2-2.3 4.8-4.6 9.6-6.2 14.7-7.8 24.7-18.7 48.2-27.9 72.4-1.7 4.5-4 6-8.8 6-8.4-.1-16.5-1.8-24.6-3.6-14.7-3.1-29.8-1.8-44.6-4.5-6.5-1.2-13.2-1.7-19.8-2-4.6-.2-6.1-2-4.7-6.2 1.9-5.7 3.8-11.3 5.9-16.9 8.9-24 17.6-48 26.7-71.9 3.4-8.9 3.7-8.6 12.9-6.9 25.1 4.6 50.2 8.9 75.2 14.1 2.7.6 7.6 2.8 8.4-1.9.8-4.4-4.2-4.3-7.2-4.8-16.6-3.1-33.3-5.3-49.9-8.9-7.1-1.5-13.9-4.4-22.3-4.4 3.6-4.7 8-7 12.2-5.6 10.7 3.5 21.1.7 31.5-.8 3.7-.5 7.1-.7 10.7.1 3.8.9 57.4 0 61.4-.7 7.6-1.4 15.3-.7 22.8-.1 7.9.6 15.6.4 23.3-.4 4.4-.5 8.6 1.8 12.8 1.2 20.5-2.5 41.1.1 61.6-2.8 11.4-1.6 23.2-1.8 34.9-.7 4.8.5 8-.7 7.3-6.3 15.2 1 29.9 4.7 44.8 7.3 6.8 1.1 13.5 3 20.3 4.6 10.5 2.5 12.2 6.1 8.4 16.3-.9 3-2.1 5.5-5.2 6.6z"/><path fill="#FEFEFE" d="M2119.6 1355.7c-11.8 3.2-23.5 6.6-35.3 9.7-19.5 5.2-39 10.4-58.5 15.2-9.3 2.3-18.8 3.4-27.9 6.9-6.8 2.6-12.1 6.4-16.3 12.4-10 14.3-14.8 30.6-16 47.5-1.7 23.4-1.4 46.9 5.6 69.8 5.8 19 11.5 38 21.8 55.2 1.7 2.9 1.6 5-.4 8-10.1 15-21.8 28.5-35.2 40.5-14.9 13.2-30.3 25.8-45.8 38.3-14.8 12-32.2 19.7-49.4 27.2-23.6 10.4-47.7 19.6-73.9 22.3-11 1.2-21.5 1.2-32.5-.9-13.2-2.6-25.3-7.3-37.4-12.8-13.5-6.1-23.8-15.5-31.9-27.8-14.5-22.2-23.4-45.9-20.6-73 .5-4.3.2-8.6.6-12.9 1.4-12.9 8.7-23 16.2-32.5 7.1-9.1 15.6-17.4 24.5-24.7 6-4.9 13.9-7.6 20.9-11.3 3.6-1.9 5.7.9 7.9 2.4 3.4 2.3 6.9 4.1 10.9 3.8 1.8-.1 4-1.1 4.4-3.4.4-2.2-1.8-2.5-3.1-3.3-22.5-13.6-37.9-32.3-43.1-58.6-1.7-8.4-2.9-16.8-4.2-25.3-3.4-21.9-1.4-42.9 5.9-63.7.4-1.2.5-2.6.8-4 4.3-1.9 8.4-.1 12.3 1.3 4.2 1.5 8.4 2.1 12.7 2.1 6.6 0 12.3-1.9 15.3-8.8 1.7-3.9 4.2-7.5 6.4-11.4 4.2-.2 7.7 2.6 10.6 4.5 5 3.4 9.4 1.3 14 .9 4.3-.3 6-4 8-6.9 4.2-6 9.1-11.5 13.5-17.2 2.9-3.7 5.4-4 9.3-1.9 6.7 3.6 13.9 6.4 20.5 10.2 26.1 15 52.9 12.9 79.4 2.2 11-4.4 20.4-12.2 28.9-20.7 5-5 9.7-7.4 17.5-5.9 15.3 2.9 31.1 3.8 46.7 2.8 16.2-1 32.2-3.6 48.3-5.2 27.2-2.6 52.7-12.3 78.7-19.6 17.7-5 34.3-14 50.3-23.5 36.3-21.5 71.2-45.1 101.1-75.3 23.9-24.1 46-49.8 63.2-79.2 14-24 28-48 38.3-74 1.9-4.9 4.9-9.4 7.3-14.2 3-6 2.7-6.7-3.4-12.6-4.8 4.1-5.9 10.1-7.9 15.5-4.1 11.6-10.6 22-16.2 32.8-9.4 18.2-18.9 36.5-29.6 53.9-10.2 16.6-21.2 32.7-35.1 46.7-15 15-28.3 31.6-45.2 44.8-32.6 25.4-67.1 47.6-104.5 65.1-20.8 9.7-42.4 16.7-65.1 20.7-22.5 3.9-45.1 6.7-67.9 8.3-17.9 1.2-36.2 3.7-53.5-.7-14.3-3.7-22.8 1.1-31.9 10.4-9.3 9.5-20.5 17.2-32.9 22.1-16.1 6.4-32.7 7.1-49.5 1.5-12.7-4.2-23.8-11.6-36-16.8-8.7-3.7-8.6-4.2-14.6 3.4-6.7 8.6-13 17.6-21.6 24.8-3.4-2.3-6.6-4.6-9.8-6.8-7.2-4.9-8.7-9.2-5.9-17.4 5.7-16 14-30.7 23.4-44.8 1.6-2.3 5.2-4.9 2.1-7.6-3.2-2.7-6.8-1.1-9.5 2.1-9.7 11.2-15.9 24.4-21.9 37.7-2.3 5.1-3.7 10.7-6.1 15.8-1.7 3.5-2.4 7.2-1.5 10.6 2.6 9.7-5 15.1-8.7 22.1-.8 1.6-3 1.3-4.6 1.1-9.9-.9-19.8-2.3-29.3-5.2-8.9-2.7-12.5-9.6-11.8-21.2.1-2.6 1.1-5.2 1.4-7.8.7-5.9 1.5-11.4-3.9-16.4-5.8-5.4-3.6-13-2.3-19.8 6.1-31.3 21.6-57.5 43.6-80.1 18.2-18.7 38.7-34.3 63-44.3 16.8-6.9 33.8-13.7 52.1-15.8 5.6-.6 10.8-3 16.4-4 22.7-4.2 46-5.2 68.3-11.7 17.8-5.2 35.2-11.5 52.4-18.4 24.4-9.8 47.2-22.5 69.2-36.7 22.6-14.6 44.7-29.5 62.9-50 14-15.7 26.2-32.3 37.9-49.7 13.9-20.5 21.1-43.3 28.7-66.2 3-9 4.6-18.7 3.8-28.5-.2-2.4 1.4-6.1-2.9-6-3.5.1-7.1 1.2-7.4 6-.6 7.6-1.7 15.1-2.3 22.7-.7 9.1-6.1 16.6-9.1 24.8-6.4 17.4-14.7 34.1-24.8 49.6-6 9.1-13.2 17.5-20.1 25.9-14.3 17.2-30 33-48.3 45.8-15.4 10.7-30.8 21.3-47.8 29.7-18.1 9-36.2 18-55.1 25-16.4 6-32.9 11.5-49.7 16.5-22 6.5-44.6 9.1-66.9 13.8-30.8 6.6-60.9 15.5-87.8 32.7-17.7 11.3-33.6 24.4-47.3 40.6-16.7 19.8-30 41.2-38.3 65.5-3.6 10.4-4.5 21.3-4.1 32.4.1 3.8 2 7.1 5 8 7.3 2.1 5.9 7.3 4.7 12-2.5 9.9-.8 19 3.7 27.9.7 1.5.9 3.4 2.6 4 2.2.8 5.1 1.2 5.8 3.4 1 2.9-1.2 5.7-2.2 8.4-3.1 7.8-5 15.7-4.7 24.1.2 4.6-1.6 7.2-7.1 7-17.9-.8-35.8-.6-53.8-1.9-20.9-1.6-41.6-3.6-62.4-6.2-22.9-2.8-45.7-6.2-68.3-11.4-13.5-3.1-27.2-5.8-40.4-10-3-1-4.7-.1-5.6 2.2-1 2.1.6 3.8 2.5 4.7 2.4 1.1 5.1 1.5 7.5 2.4 19.9 7.5 40.9 11 61.4 16.2 10.3 2.6 20.8 4.1 31.2 5.4 3.8.5 5.5 2 6.1 6.2 5 33.3 20.9 61.2 43.4 85.6 4.9 5.4 6.2 10.6 5.4 17.8-2.3 22.1-5.8 44-10.8 65.6-6.4 28-16.6 54.6-35.8 76.7-12.9 14.9-30 23.8-48 31.1-5.1 2-11 2.5-16.5 2.7-19.5.9-38.9 3.2-58.5 2.2-26.5-1.3-50.7-8.6-70.7-26.8-4.2-3.8-8.5-7.4-12.9-11-11.9-9.6-10.5-22.4-5.1-32.1 8-14.5 15.6-29.2 22.2-44.4 6-13.8 10.8-27.9 9.9-43.3-.5-8.9-4.2-13-12.9-13.8-26-2.3-48.4-12.9-68.6-29-14.6-11.7-27.6-24.7-36.4-41.4-2.4-4.5-3.7-9.2-5.2-13.8-7-20.8-8.4-42.2-6.8-63.8.5-6.5 1.9-13.3 4.4-19.3 7.4-17.1 9.8-35.8 18.3-52.5 2.4-4.8.4-9.8-4.7-12.8-24.9-14.6-48-31.7-71.1-49-26.4-19.7-50.9-41.3-74.3-64.3-24.9-24.4-43.3-53.6-62.8-82-5.6-8.2-10.8-16.7-14.3-26-.7-1.8-1.9-3.6-1.1-5.7 11.9-4 24.6-4.6 36.8-7.7 34.6-8.9 64.9-24.9 88.6-52 3.7-4.2 7.1-4.6 12.1-3.8 18.1 3 36.7 3.8 53.9-2.1 21.3-7.3 40.3-19 49.5-41.6 3.5-8.5 9.6-15.9 10.7-25.5.6-4.7 5.2-3.9 8.1-3.2 10.9 2.5 21.9 1 32.8 2 17.9 1.6 27.1-11.1 30.2-26.6 1.1-5.5.3-11.2.3-17.6 7.4 1.7 14.1 3 20.6 4.9 7.1 2 13.3 1.5 16.8-6 1.9-4.1 5.1-3.9 8.3-3.2 13 2.8 26.1 3.5 39.3 4.6 26 2.3 52.1 2 78.1 4.7 7.9.8 16.1 1.9 24.3-2.8 4.6-2.7 5.9-4.9 4.3-9-2.3-6.3-2.5-13-4.1-19.4-6.4-25-9.8-50.7-16.1-75.7-2.4-9.6-4-19.4-5.9-29.1-1.8-9.1-3.5-10.2-13-11.3-9.6-1.1-19.1-1.6-28.7-2.3-21.8-1.5-43.5-3.6-65.3-5.2-21.2-1.5-42.1-5-63.4-5.7-14.4-.5-28.7-3.8-43-6.1-11.2-1.8-22.3-3-33.7-2.6-7.8.3-10.6 3.9-8.4 11.6 1.3 4.4 3.4 8.6 4.9 13 1 2.8 1.7 5.6 2.8 9.3-12.3-.4-23.7 1.6-35 3.4-21.2 3.5-40.1 12.1-55.1 27.4-16.5 16.8-35.6 29.8-55.6 41.6-11.9 7.1-25.8 9.8-39.6 11-4.5.4-9.1-1.3-13.4-3.1-14.6-6.2-29.6-11.5-41.9-22.3-4.8-4.2-8.5-9.3-13-13.7-4.6-4.6-9.4-6.8-11.6-4.4-2.4 2.5-2.1 9.9 1.2 13.4 19.9 21.4 42.2 38.5 72.9 40.3 11.4.7 22.4-1.8 33.3-4.9 20-5.6 36.1-17.9 52.1-30.4 12-9.4 24.3-18.4 35.4-29.1 2.8-2.7 6.4-4.9 10.1-6.3 16.7-6 33.3-11.7 51.6-11.8 17.2-.1 34.1 2.6 51.2 3.4 6.7.3 13.4 3.4 19.9 5.8 8 2.9 16.6 4.3 23.9 9.3 8.4 5.8 11.6 14.6 7.7 24.2-2.9 6.9-2.8 6.8 4.3 9.4 5.3 1.9 10.5 3.6 15.1 7.3 7.8 6.1 10.3 13.8 8.8 22.9-1.3 7.5-3.3 14.9-5.8 22-3.2 9.1-5.7 10-14.8 7.3-8.3-2.5-17.1-2.1-25.4-4-12.9-2.8-25.5-7-38-11.2-5.6-1.9-11.1-1.7-16.7-1.4-2.7.1-5.2 1.2-5.7 4.5-.6 3.3-.6 6 4.1 5.8 10-.5 19.9-.1 29.5 3.3 2.2.8 4.4 1.5 6.6 2.2 20.8 6.2 18.4 19.3 11.6 34.3-4.2 9.2-9.3 10.5-19.7 9.2-12.8-1.5-25.7-2.6-38.5-3.8-4.6-.5-6.4 1-8 6.1-6.9 21.6-16.4 42.2-34.1 57.1-13 11-29.4 13.9-45.9 12.1-12.1-1.3-24.3-2.4-36-6.7-5.6-2.1-7.3.2-4.8 6.3 1.2 2.8.3 4.6-1.1 6.2-4.2 5.1-8.2 10.4-13.8 14.3-16.4 11.5-33.6 21.4-52.7 27.4-19.8 6.2-39.8 11.8-60.8 11.6-23.3-.2-46-3.5-68.4-10.1-23.5-6.9-43.6-19.2-61.2-35.5C898 987.4 887 975 878.8 961c-11.7-20.1-20.5-41.5-24.7-64.6-2.4-13.4-5.3-26.7-4.7-40.4 1-22.3 4.6-44.1 13.6-64.7 2.4-5.5 4.2-11.2 6.1-16.8 7.4-22 20.2-40.9 32.7-60 14.5-22 30.8-42.5 49.7-60.9 3.3-3.2 5.9-6.7 10.8-8.4 3.9-1.4 7.1-6.4 6.4-10.2-2-11.1 1.9-21 5.2-30.7 6.1-17.9 9.7-36.4 15.7-54.3 8.8-26.5 18-52.8 31.5-77.3 9.6-17.4 19.4-34.7 28.5-52.3 13.9-26.9 31.5-51.4 48.9-75.7 14.3-20.1 28.6-40.4 45.1-59 17.8-20 35-40.5 54.8-58.7 13.4-12.3 25.4-25.9 38.7-38.3 7.3-6.8 14.8-13.3 22.4-19.7 10.1-8.5 20.4-16.8 31.2-24.4 32.8-23.3 66.6-45.1 103.8-60.6 25.6-10.7 51-21.7 77.1-31.2 18.5-6.7 37.4-11 56.2-16.2 34.7-9.7 70.3-14.6 106-19.1 24-3 48.1-4.5 72.3-6 22.4-1.4 44.8-1 67.2-1.1 4.6 0 9.3.3 13.8 1.4 12.5 2.9 25.2 1.3 37.7 2.2 22.5 1.6 44.7 4.9 66.9 8.5 23.1 3.8 45.9 9.4 68.5 14.9 23.4 5.7 46.4 13.5 69.7 19.9 22.5 6.2 42.7 18.1 64.2 26.6 9.5 3.8 19.4 6.8 28.3 12.1 22.2 13.2 44.5 26.1 65.9 40.6 17.2 11.7 35.4 22 51.4 35.4 21 17.7 42.6 34.7 62.7 53.5 10.7 10 19.5 21.4 29.6 31.9 14.2 14.7 27.4 30.5 41 45.8 21.6 24.4 39 51.9 55.7 79.9 9.9 16.5 20.1 32.8 28.7 50.1 13.3 26.7 25.1 54 34.6 82.3 4.6 13.8 7.7 28.1 11.6 42.1 7.4 26.6 11.2 53.7 14.7 81 2.3 17.8 3.8 35.5 3.2 53.5-.7 21.5 2.8 43 2.6 64.6-.2 22.9-3.1 45.5-5.7 68.2-4 34.7-13.6 68.1-22 101.9-4.6 18.4-11.4 35.9-18.5 53.4-7 17.2-13.5 34.6-21.3 51.4-16.1 34.3-35.2 66.8-57.9 97.1-15.5 20.7-32.4 40.2-49.9 59.3-23.3 25.2-48.4 48.2-75.4 69.1-26.7 20.8-54.2 40.6-83.8 57.1-2.7 1.5-6.7 2.5-4.6 7.2-3 .9-5 3.1-6.7 5.5-1.2 1.7-2.5 3-4.8 3-12.1-.3-22.1 6.1-32.4 10.7-8 3.4-16.5 7-21.5 15.1zM1629.1 244.1c-11.7-1.6-23.4 1.6-34.8 4.3-32.3 7.6-62.9 19.8-91.8 36.2-5.8 3.3-11.8 6.2-17 10.2-11.8 9.1-23.3 18.7-34.7 28.3-14.3 12-27.5 25.3-38.8 40-8.2 10.7-15.7 22.2-22.9 33.7-7.4 11.9-11.1 25.5-17.1 38.1-1.1 2.3-.8 4.5 1.9 5.9 2.4 1.3 3.4-.5 5-1.8 3.9-3.2 5.3-7.7 6.4-12.1 3.9-15.4 11.4-28.8 21.8-40.7 5.7-6.5 10.9-13.3 16.5-19.9 6-7.1 12-14.2 18.3-21 13.3-14.5 29.2-26 45.1-37.3 19-13.7 39.8-24.4 62-32.5 11.2-4.1 22.2-8.6 33.8-11.6 20-5.2 40.1-8.4 60.8-7.9 4.9.1 6.1-2.2 4.1-6.7-1.1-2.4-3.1-3-5.3-4-4.4-2-8.7-.2-13.3-1.2zm20.9 312.3c1.4-12.6-2.1-26.2-8.4-39.3-1.6-3.3-3.4-6.5-6.1-9-5.4-5.1-16.7-6.4-19.7-1.5-3.4 5.6-7.5 11.2-7.8 18-.4 9.9-.8 19.9.1 29.8 1.2 12.8 5.6 24.4 16.7 32.5 7.5 5.4 15.3 4.8 20.8-2.6 3.3-4.4 4.6-9.5 4.5-14.9-.1-3.8-.1-7.4-.1-13zm-235.1 975c6.2.5 12-.3 18-1.3 8.5-1.4 16.2-5.7 24.9-6.1 1.9-.1 3.4-1.8 2.9-3.3-.7-2.1-.5-2.9 1.7-3.3 4.5-.8 8.4-3.8 13.2-3.9 10.5-.2 19.4-6.4 29.6-7.8 2.5-.4 4-2.8 3.3-5.2-.6-2-2.8-2.8-5-2.2-3.5.9-6.9 2.2-10.4 3-16.1 3.5-31.8 9-48.3 10.4-17.1 1.4-34.3 2.5-51.4 3.9-1.9.1-4.4 0-5 2.4-.6 2.4 1.3 3.7 3.3 4 2.6.4 4.3 1.8 4.8 4.3.9 4.2 4.4 4.7 7.5 5.2 3.7.3 7.4-.1 10.9-.1zm88.1-990.8c-3.4.6-7 1.6-8.5 4.6-5 9.9-12.1 19.2-11.2 31.3.3 5 .1 10 0 14.9-.2 9.8 2.1 19.1 6.7 27.6 7.3 13.4 17.2 24.2 31.1 31 3.5 1.7 9.9 1.2 10.5-1.2 1.1-4.2-3.1-4.2-5.4-5.7-.3-.2-.6-.3-.9-.5-13.9-10.1-26.2-21.2-28.2-39.9-1.8-17.3-.4-34.2 5.2-50.7.8-2.5 2.7-4.6 3.5-7.1.7-2.1-.8-3.6-2.8-4.3zm-45.2 26.2c-2.4-3.3-1.1-7.8-1.9-12-1.9-10.7-3.4-21.5-9.9-30.8-3.5-5-8.7-8.4-14-7.8-5.9.6-5.8 7.7-6.3 12.2-1.5 12.6-.9 25.2 2.5 37.4 1.7 5.9 4.3 11.8 9 16.4 4.9 4.7 8.6 4.9 13.8.5 4.9-4 5.1-9.7 6.8-15.9zm126 139.3c-3.6 0-7.3-.2-10.9.1-1.1.1-2.6 1.1-2.4 2.7.1.8.8 1.8 1.6 2.3 2 1.2 4 2.8 6.1 2.9 7.3.3 14.6 1.4 21.7 1.2 10.8-.2 21.5-2.3 32.3-3.7 6.9-.9 13.8-1.6 20.5-3.2 10.6-2.5 21.1-5.4 31.4-8.8 7.5-2.4 15-5.2 20.8-10.9 1.7-1.6 4.4-3.9 2.5-6.9-1.9-3-4.6-1.6-7.1-.6-1.8.7-3.7 1.4-5.5 2.3-13.5 7.3-28.4 10.9-42.8 15.3-22 6.6-45.1 8.5-68.2 7.3zm240.4 842.1c2 0 4 .1 6 0 3.7-.3 7.5-.5 7.9-5.6.3-4.5-1.4-6.1-7.5-6.5-10.8-.6-21.5-1.9-32-4.6-10.5-2.7-21.2-4.8-31.3-9.1-2.7-1.2-6.3-5.4-8.5-1.4-1.6 2.9 2.2 6.3 5.1 8.6.2.2.6.2.9.4 17.1 14.7 38.6 15.3 59.4 18.2z"/><path fill="#D5CEA4" d="M682.9 1054.7c1.6 17.5.9 34.1-.2 50.6-.4 6-.6 11.9-.7 17.9-.3 43 .4 86-1 128.9-1.1 33.8-2 67.7-3.1 101.5-.4 12.9 0 25.9-.4 38.8-.5 16.9-1.4 33.8-2.1 50.7-.4 10.3.2 20.6-1.9 30.8-.9 4.5-1 9.2 1.8 13.4-13.4 7.1-26.4 13-39.8 17.9-25.2 9.3-50.4 18.5-75.7 27.4-35.4 12.4-70.1 26.5-106 37.5-22.8 6.9-45 15.6-67.2 24-9.8 3.7-20 6.7-29.9 10-2.3-3.9-1.4-7.3-1.4-10.5-.1-17.3-.2-34.5 0-51.8.2-20.3-2.1-40.5-1.5-60.9.7-22.2.5-44.4-.6-66.5-2.2-41.5-.7-83.1-3.1-124.6-.8-13.4.8-27 .9-40.5.2-34.6.3-69.3.2-103.9 0-6.9 1.8-13.9-.1-21.3-5.5 1.3-7.7 4.5-7.7 9.9 0 20.4-1.4 40.7-.9 61.1.5 20.5 1 41.1.7 61.7-.4 22.6-.7 45.4.8 67.9 1.6 23.9.5 47.8 1.8 71.7.8 14.9.3 29.8-.1 44.7-.4 14 1.1 27.9 1.2 41.8l.9 107.4c0 2.7.1 5.3 0 8-.3 9-.7 9-10.1 8-26.4-2.7-52-9.6-77.9-15.4-20-4.5-40.5-7.2-60.4-12.1-22.9-5.7-46.3-7.9-69.1-14-20.7-5.6-41.8-8.9-62.8-13.1-6.2-1.2-12.3-3.1-18.5-3.9-4.3-.5-5.6-2.2-5.9-6.2-1.1-15.2-1.4-30.4-2.9-45.6-.6-6.8 1-13.7.7-20.7-.9-22.4 1-44.9-.9-67.4-1.5-17.8-2.8-35.6-1.3-53.6 1.2-14.7-.8-29.6-1.2-44.4-.3-10 .7-19.9 0-29.9-1.9-24.9-2.5-49.9-1.3-74.7 1.1-21.6.1-43-.1-64.5-.1-11.8 1.2-23.6 1.5-35.4.3-12-1.4-13.9-13.4-16.7l-.9-.3c-9.5-2.3-9.2-2.3-10.3-12.4-1.3-12.3-1.6-24.5-1.6-36.8 0-1.6.1-3.2.2-4.4 2.6-2.2 4.9-1.2 7.1-.9 22 2.5 44 5.8 66.1 7.2 22.5 1.5 44.6 6.8 67.3 7.2 13.5.2 27 2.7 40.5 4.3 15.8 1.9 31.6 3.6 47.4 5.3 24 2.6 48.2 3.4 72.2 7.1 9.2 1.4 18.5 1.6 27.8 2.2 2.2.1 5.3.6 5.7-2.5.4-3.2-2.5-4.6-5.3-4.8-6-.4-12-.2-17.9-.8-15.2-1.4-30.5-2.3-45.5-4.7-22-3.5-44.1-4.8-66.2-7.4-23.7-2.9-47.6-3.3-71.2-7.5-5.9-1.1-12-.9-17.9-1.1-17.3-.4-34.1-4.6-51.4-5-13.9-.3-27.7-2.9-41.5-4.4-1.7-.2-3.3-.7-4.6-2.2.2-2 2.3-2.2 3.4-2.3 19.1-1.8 37.5-7.8 56.7-9.6 16.4-1.5 32.7-4.8 48.7-8.6 12.5-3 25.5-3.8 37.7-8.2 3-1.1 5.5-.2 5.2 3.6-.6 7.4 3.5 9.5 9.9 10.8 15.3 3.3 30.8 4.5 46.2 6.9 27.5 4.2 55.3 5.7 83.2 6.5 5.6.2 10.5.6 15.9-2.4 4.1-2.3 9.7-1.7 14.5-2.9 19.9-5 39.7-10.6 59.7-15.4 36.7-8.8 72.9-19.8 110.3-25.9 16.3-2.6 32.5-6.9 48.5-11.1 5.5-1.4 12-2.6 14-9.6.8-2.7 2.9-1.8 4.9-1.8 15.3.1 30.4 2.7 45.5 4.7 19 2.6 38.1 5.4 57.1 8 2.3.3 4.7.3 6.3 3-15.7 4.3-31.1 9.4-46.9 13.2-14.8 3.6-29.4 8-44.1 12.2-21 6-42.4 10.6-63.6 15.5-10.7 2.5-20.8 6.8-31.4 9.4-12.8 3.2-25.7 6.3-38.7 8.7-15.6 2.9-31.1 6.9-46.6 10.5-11.6 2.7-23.3 4.6-34.3 9.8-5.2 2.5-11.6 2.5-17.4 3.8-1.6.4-3.2 1.3-3.6 3.1-.5 2 1.3 2.8 2.5 3.9 3.3 3.1 7 3 11.1 1.6 7.2-2.4 14.6-4.3 21.8-6.8 26.5-8.9 54-13.4 81-20 23.7-5.8 47.3-12.1 70.6-19.8 14.5-4.7 29.6-7.2 44.4-11.2 24.3-6.5 48.6-13.4 72.8-20.2 11.5-3.2 23.3-5.2 34.3-10.1 1.8-.8 3.9-.8 5.8-1.1 2.8-.4 4.4.5 4.4 3.7.1 15.9.4 31.9.4 47.8 0 3.3-.5 5.8-5.1 7.1-20.7 5.7-41.5 11.4-62.5 16-12.3 2.7-24.1 7.3-36.3 10.3-21.2 5.2-42 12-63.3 16.7-26.2 5.8-52.3 12.3-78.5 18.2-15.2 3.4-30.1 7.9-45.3 11.5-16.4 3.9-33 7.5-49.5 11-2 .4-3.9.6-5.6 1.9-1.1.9-1.9 2.1-1.5 3.4.3 1.2 1.1 2.4 2.7 2.7 3.7.7 7.3 0 10.9-.8 5.2-1.2 10.6-1.8 15.5-3.4 15.2-5.1 31.2-5.8 46.8-8.6 19.9-3.6 39.4-8.9 59-13.6 18.1-4.4 35.7-10.5 53.7-14.6 17.4-4 34.7-8.2 52.1-12.2 21.9-5.1 43.6-10.9 65.5-16.3 2.7-.1 5.7-.4 9.9-1.1zM329 1131.2c2.7.4 5.9.6 6.3-2.9.4-3.6-2.8-3.9-5.4-4.4-.7-.1-1.3-.2-2-.3-15-2.4-30.2-3.7-45.3-5.2-30-2.9-60.1-4.8-90-8.4-26.6-3.2-53.3-6.4-79.9-9.9-16.1-2.1-32.1-4.8-48.3-6.3-5.6-.5-11.2-.6-16.6-3-3.1-1.4-5 1.5-5.6 4.1-.6 2.5 1.7 3.1 3.8 3.4 3.3.6 6.5 1.5 9.8 1.9 16.8 2.1 33.6 3.9 50.3 6.1 21 2.8 42.1 4.9 63 8.1 21.3 3.2 42.8 4.7 64.2 7.3 31.8 3.9 63.9 5.1 95.7 9.5zm24.1-32.2c0 5.3.2 10.7-.1 16-.1 2.5-.2 5.5 2.2 5.9 3.8.6 2.6-3.8 4-5.7.3-.5.3-1.3.2-2-.4-16.5-.9-33-1.3-49.5 0-1.4-.6-2.8-2-3-1.9-.4-3.3 1.1-3.7 2.6-.5 2.2-.4 4.6-.3 6.9.4 9.5 1.8 19.1 1 28.8z"/><path fill="#D3F3F7" d="M2119.6 1355.7c4.9-8.1 13.5-11.7 21.4-15.2 10.3-4.6 20.3-11 32.4-10.7 2.2.1 3.6-1.2 4.8-3 1.7-2.5 3.8-4.6 6.7-5.5 3.7 1.4 6.3-1.3 9.2-2.6 35.7-15.4 66.4-38.4 95.8-63.4 15.9-13.6 33-25.7 48.2-40.1 15-14.1 28.9-29.2 42.2-45 5.1-6.1 10-12.4 15.1-18.5 4.7-5.7 10.4-9.8 17.2-13.1 27.4-13.5 55.6-25.1 81.6-41.5 17.4-11 34.3-22.7 51.2-34.4 6.2-4.4 12.1-9.2 18.3-13.7 20.8-15 37.6-34.6 58.6-49.4 4.3-3.1 8.7-6 13.1-9 16.1-10.6 32.8-19.9 51.6-25 22.7-6.1 45.7-7.4 69-3.4 3.3.6 6.5 1 9.8 1.6 5.4 1 10.1 3 13.5 7.6 12.5 17.1 26.5 33.2 36.1 52.4 5 10 11.5 19.3 16.4 29.5 1.8 3.8 4.7 3.8 7.6.4 1.5-1.8 3.4-3.4 4.2-5.5 3.2-8.4 10.3-9.4 17.8-10 23.4-1.9 46.7.3 69.1 6.2 34.2 9.1 62.6 27.1 79.4 59.8 3.1 6 7.2 9.3 14.2 10.9 16.5 3.6 33.2 6.5 49.1 12.5 6.2 2.4 11.9 5.4 16.9 10.4-11.9 20.7-28.3 37.1-45.4 52.8-20.4 18.8-45 31.4-68.5 45.5-5.8 3.5-8.9 6.9-8.3 14 .6 7.3-.4 14.6-.4 21.9 0 4.5-1.5 8.6-3.7 12.2-5.3 8.4-10.3 17.1-16.7 24.6-7 8.3-15.3 15.5-26.3 18.7-7.1 2-13.6 1.2-19.4-3.7-6.4-5.3-13.6-9.5-20.9-13.4-16.1-8.5-29.7-21-45.9-29.1-15.1-7.6-29.8-16-44.8-23.8-24-12.5-49.6-19.6-76.2-24.1-11.7-2-23.3-5.1-35.2-6.5-16.8-2-33.7-3.1-50.6-3.6-12.2-.4-24.5-.2-36.7-.2-19 0-37.6 3.4-56 7.8-1.9.5-3.8 1.1-5.6 1.9-3.1 1.3-8.6 1.6-6.9 6.3 1.4 3.8 6.3 2.4 9.9 1.5 32.3-7.9 65.2-8.6 98.1-6.5 19.7 1.3 39 5.8 58.5 8.2 30.6 3.8 59.8 12.3 87.8 23.9 21.3 8.8 42.6 18 62.8 29.7 16.3 9.4 33 18.2 49 28.3 8.4 5.3 16.9 10.5 25.2 16 2.1 1.4 4.3 2.6 6.3.5 3.4-3.6 8.3-4 12.3-6.2 27.4-15 43.2-38.4 49.4-68.7.5-2.6 1.7-5.3 1.4-7.8-1.2-9.3 4.9-13.3 11.6-17.1 10.1-5.8 20-11.9 29.9-17.9 1.1-.7 2.1-1.7 3.9-1 5.7 8.7 3 19.1 4.6 28.7 2.4 13.8.7 27.8-.8 41.5-.7 6 .5 11.8.3 17.8-.8 25.3-4.6 50-12.4 74.1-2.3 7.1-7.6 11.2-14.4 13.8-24.4 9.3-49.4 17.5-73 28.4-22.9 10.6-46.9 18.1-69.9 28.4-12 5.3-24.8 9.2-37 14-37 14.7-73.8 29.6-109.9 46.4-14.7 6.8-29.9 12.6-45 18.6-1.9.8-4 2.5-7.1 1.3 3.5-12.9 7-25.9 8.9-39.2 1-7.2 2.5-14.4 2.7-21.7.4-16.3 3.1-32.4 3.7-48.5.7-18.8 1.8-37.7-.2-56.7-1.1-10.4-1.5-20.9-2.6-31.4-1.2-12.3-5-24-8.2-35.8-.3-1.2-.7-2.6-1.5-3.6-1.2-1.6-2.7-3.3-5-2.3-2.4 1-2.3 3.1-1.6 5.1 2 6.3 2.9 12.9 4.2 19.4 3.7 17.6 4.8 35.4 5.9 53.3.8 13.2-.4 26.3-.3 39.4.2 16.5.4 33-.5 49.5-1.3 24.5-4.8 48.7-13.6 71.9-2 5.2-4.3 6.2-10 5.4-12.5-1.7-25.2-1.6-37.8-2.4-21.2-1.4-42.6-.8-63.8-2.3-12.2-.8-24.5-1.6-36.7-2.9-14.4-1.6-29-1.7-43.4-2.9-27.1-2.3-54.3-3.6-81.3-6.3-27.4-2.7-54.8-4.3-82.1-8.4-16.2-2.4-32.9-1.1-49.4-2.2-20.7-1.3-41.5-.1-62.3-3.8-13.9-2.5-28.4-1.7-42.6-2.7-15.6-1.1-31.1-2.4-46.6-3.8-21.5-1.9-42.9-4-64.4-6.1-9.2-.9-18.6-1.2-27.7-3.1-7.3-1.5-14.5-1.6-21.8-1.7-9.1-.2-9.1-.2-10.7-9-.2-1.3-.9-2.5-1.2-3.8-1-5.4-.1-6.8 5.5-6.1 6.9.9 13.9 1.1 20.8.9 25.4-.8 50.9-.1 76.3.6 12.2.3 24.4 1.1 36.5 2.3 17.9 1.8 35.8 2.3 53.7 1.3 9-.5 17.8 1.1 26.7 2.1 2.2.3 5 1.1 5.5-2.3.5-3.5-2.2-5.1-4.9-5-15.6.7-30.8-2.8-46.4-3.3-22.1-.6-44.2-2.8-66.3-4.3-6.9-.5-13.8-1.1-20.8-1.5-24.5-1.4-49-2.7-73.5-4-1.6-.1-3.3-.1-4.9-.4-9.7-1.6-9.4-1.6-8.6-11.8.4-4.2 1.6-5.5 5.8-5.8 16.3-1 32.6-1.5 48.9-1.3 18.3.2 36.4-2.6 54.8-2.1 34.1.9 68.3.8 102.4.7 25.8-.1 51.8 1.2 77.6-2.3 10.8-1.5 21.9-.7 32.9-.9h7c1.9 0 3.3-1.2 3.7-2.7.6-2-1.3-2.7-2.8-3.4-3.1-1.6-6.3-1.8-9.7-1.5-18.1 1.8-36.2 2.4-54.4 2.3-33.1-.1-66.2 3-99.3 1-26.1-1.5-52.3-1.3-78.4-1.3-24.9 0-49.8-.8-74.7-.5-11.7.2-12.6-2-7.2-12.8 1.8-3.6 4.9-6.3 6.6-9.9 1.9-4.2 4.7-5.6 9.4-5.3 26 1.5 51.7-2.4 77.6-3.9 26.4-1.6 52.6-6 78.6-11.7 15.1-3.3 30.6-5.5 45.8-8.4 20.8-3.9 41.4-8.7 62-13.8 20.9-5.2 41.5-11.3 62.5-16.1 16.1-3.7 31.9-8.7 47.9-12.9 6.7-1.7 13.6-2.7 20.4-4.1 22-4.7 43.8-10.1 65.7-15.1 18.7-4.2 37.7-7.5 56.4-11.6 24.6-5.4 49.2-11.1 74.3-13 18.5-1.4 37-4.6 55.7-2.6 2.8.3 7.8 2.1 8-2.9.1-4.6-4.3-3.6-7.6-3.8-30.2-1.3-60.2 1.6-90 6.1-28.1 4.2-55.8 10.7-83.5 17-29 6.5-58.1 12.8-87 19.6-13.8 3.3-27.7 6.1-41.2 11-14.6 5.3-29.9 8.6-45.1 12-16.1 3.6-31.9 8.3-47.9 12.1-21.8 5.2-43.8 9.9-65.9 14.2-29.5 5.8-59 12-89.1 14-22.2 1.5-44.2 5.2-66.7 3.4 11.4-2.9 22.8-6.2 34.4-8.6 11.4-2.3 22.6-5 33.7-8.2 20.4-5.8 40.9-11.4 61.2-17.3 29.8-8.7 59.4-18.4 89.3-26.8 12.9-3.6 26.1-7.2 38.1-14 4.6-2.6 9.7-4.2 14.8-5.5 12.5-3.2 24.4-8.1 36.4-12.8 20.7-8.1 42.4-13.2 62.8-22 1.8-.8 3.6-1.6 5.9-2.6-2.6-4.4-5-5.1-9.8-3.5-37.9 12.8-75.5 26.6-113.6 38.6-22.4 7.1-44.6 15-67 21.9-15.5 4.8-31.3 8.6-46.9 13-13.7 3.8-27.3 7.9-40.9 11.9-2.2.7-4 1.3-6.1.8z"/><path fill="#D3F2F6" d="M893.6 1371.7c6.8 2.9 12.7 5.4 19.8 6.2 30.6 3.4 61.4 5.8 92 9.3 26.3 3 52.6 6.3 79 8.7 29 2.6 57.9 7.1 86.9 9.3 17.2 1.3 34.3 4.3 51.6 4.5 5.9 0 11.8 1.4 17.8 1.9 2.7.2 3 2 3.6 3.9 2.7 8.2 5.5 16.4 8.1 24.6 1.2 3.8-.2 5.2-4.3 4.9-27.1-1.5-54.2-4.7-81.4-5.9-28.7-1.3-57.5-2.9-86.2-5.3-14.5-1.2-29.2-1.2-43.7-2.4-17.5-1.5-35-4.1-52.6-3.9-20.6.2-40.9-2.4-61.2-4.4-18.5-1.8-37-2.2-55.5-4.5-10.5-1.3-21.3-.4-31.8-1.2-20.2-1.5-40.3-3.4-60.5-5.3-21.8-2-43.6-4-65.3-6.1-5.3-.5-10.5-1.5-15.7-2.4-4.5-.7-7.2-2.9-6.8-8 .4-5.3.2-10.7.7-15.9 2.1-22.6.8-45.2 1.8-67.8 1.1-24.4 2.9-48.8 2.7-73.1-.2-20.7.1-41.3.7-61.9.6-20.5-.2-41.1.9-61.6 1-19.2-.6-38.2-.3-57.3.1-5 .8-8.1 6.5-8.9 3.5-.5 6.8-2.5 10.3-3.5 9.5-2.7 15.9-7.7 15-19 15-1.5 29.6-1.9 44 .9 16.6 3.1 33.3 5.9 49.8 9.4 16.2 3.5 31.7 9 47.2 15 16 6.2 32.1 12.5 48.1 18.8 25.7 10.2 50.1 22.7 72.7 38.6 12.2 8.6 24.6 16.9 34.8 28 1.6 1.7 3 3.6 4.4 5.4 2.6 3.3 2.5 5.9-.7 9.4-14.7 15.9-28.2 32.5-37.3 52.5-3.3 7.4-5.1 15-7.3 22.6-.6 1.9-.2 4 1.3 5.6 1.7 1.7 3.6 2.2 4.8-.1 1.5-2.9 2.6-6.1 3.8-9.2 2.6-6.8 5-13.7 7.7-20.5 3.6-9.3 8.4-17.8 15.8-24.9 5.9-5.7 10.3-13.1 16.6-18.3 12.5-10.3 26.3-18.9 41.7-24.5 3.6-1.3 5.2-.6 7.3 2.3 12.7 17.5 28 32.8 42.7 48.5 21.4 22.8 45.5 42.6 69.1 63 15.1 13.1 32.6 22.8 47.4 36.2 5.3 4.8 12.4 7.6 18.8 11.1 2.8 1.5 4.1 3.2 2.6 6.3-4.3 9-6.9 18.6-10 28.1-1.1 3.4-2.5 5.6-6.9 4.8-28.4-5-57.4-5.7-85.7-11.4-11.7-2.4-23.6-3.5-35.4-4.9-6.5-.8-12.9-2.6-19.5-3.4-32.2-3.9-64.1-9.7-96.2-14.6-23.2-3.5-46.2-8.4-69.5-11.2-8.2-1-16.4-2.5-24.3-4.7-14.7-4-29.9-5.1-44.7-8.3-13.2-2.9-26.4-6.1-39.8-8.4-21.8-3.8-43.5-8.3-64.9-14.1-13.1-3.5-26.8-4.6-39.9-8.2-1.7-.5-4.3-.9-4.9 1.9-.5 2.4 1.4 3.4 3.5 4 3.2.9 6.3 2.3 9.5 2.8 12.8 2 24.8 6.9 37.5 9.6 20.1 4.2 40.1 8.7 60.2 12.9 20.1 4.2 40.2 8.1 60.2 12.6s40.2 8.9 60.6 11.2c22.8 2.5 44.9 7.9 67.4 11.2 33.4 5 66.5 11.6 100 15.7 20 2.4 39.9 6.4 59.9 8.8 15.1 1.8 30.1 4.7 45.4 5.4 6.3.3 12.5 1.3 18.8 2 3.9.4 5.2 2.2 3.9 6-2.6 7.6-3.4 15.5-4.5 23.4-.5 3.4-1.6 4.6-5 4.3-15.6-1.1-31.2-1.7-46.7-3.2-14.5-1.4-29.1-2.4-43.7-2.8-2.6-.1-4.5.1-4.9 3.3-.5 3.5.9 4.3 4.2 5.1 9.4 2.4 19.1 1.9 28.6 3.6 18.3 3.3 36.7 5 55.2 6.3 2.9.2 5.8 1.1 8.7 1.9 3.4.9 3.4 3.8 3.2 6.4-.3 3.4-3 2.8-5.3 2.6-14.2-1.1-28.4-2.6-42.7-3-10-.2-19.7-2.6-29.6-3.3-11.2-.8-22.5-1.9-33.7-2.9-19.4-1.9-38.9-3-58.3-6.1-9.4-1.5-19.2-1.2-28.7-2.1-15.2-1.3-30.5-1.8-45.5-4.6-13.1-2.4-26.5-1.6-39.6-3.8-16.9-2.8-34-4.7-51-7-4.2-.8-9-1.9-13.3 3.1z"/><path fill="#1DDA2F" d="M338.7 1012.8c-1.7-8.4-.5-17.4-.6-26.2-.5-36.9-.5-73.8-.6-110.8 0-6.6.8-13.3 0-19.9-.4-3.4 1.2-5.3 4.7-6.4 7.7-2.4 15.8-2.5 23.6-3.3 32-3.3 63.8-8.2 95.8-12 3.9-.5 8-.2 12-.2 11.6-.1 23.1-1.6 34.6-3.2 19.7-2.8 39.2-6.3 58.9-8.7 4.4-.5 6.9.6 6.8 5.8-.3 12-.4 23.9-1.6 35.9-1.3 13.2-.9 26.6-1.4 39.9-.7 16.9-1.6 33.7-2.3 50.6-.1 2.2-.8 2.9-2.6 3.4-14 3.9-28 8.4-42.1 11.7-29.7 7.1-59.5 13.4-89 21.2-21.5 5.6-43.2 10.1-65 14.5-8.5 1.7-16.6 4.7-24.9 7.1-1.9.6-3.5 2-6.3.6z"/><path fill="#1DD92F" d="M182.3 836.6c8.9-2.2 17.7-1.3 26.1-.1 21.1 3.1 42.4 2.8 63.5 5.6 16.4 2.2 32.9 3.9 49.4 6.3 8 1.1 8.5 1.6 8 9.4-2.5 34.9-.6 69.8-1.7 104.6-.5 16 .1 31.9.2 47.9 0 6.7 0 7.2-6.4 6.9-14.3-.5-28.5-1.4-42.8-2.3-12.6-.8-25.1-2.6-37.6-3.8-17.5-1.6-34.8-4.9-52.2-7.3-4.6-.6-4.8-4-5-7.3-.6-10.3-1.5-20.5-1.6-30.8-.3-28.7-.5-57.3-.2-86 .1-10.9 2.1-21.8 2.3-32.8 0-3.6-.3-6.9-2-10.3z"/><path fill="#AEF0B4" d="M1551.4 873.3c-10.8 0-21.4.5-32-.1-14.9-.9-29.6-2.6-44.5-3.3-20.5-.9-41-1.9-61-6.5-.4-5.3 1.7-9.5 3.1-13.9 7.7-23.1-.7-33.9-18.5-42.9-5.1-2.6-7.4-4.3-6.7-10.7 1.9-17.9-4.6-26-25.7-35.5-16.4-7.3-34.5-9.1-52.3-11-18.2-1.9-18.8-2-22-19.6-1.2-6.8.3-8.6 7.1-7.3 30.3 5.6 61 7.9 91.7 9.8 15.8 1 31.5 4 47.3 5.2 17.9 1.4 35.8 1.4 53.7 2.8 10.2.8 20.5.8 30.7 2.8 3.6.7 4.8 2.2 5.5 5.6 6.8 33.8 13.8 67.5 20.7 101.2 1.5 7.5 3.5 14.8 2.9 23.4z"/><path fill="#1DD92F" d="M112 887.8c11.9-11.2 24.8-17.6 36.1-26.2 2.9-2.2 5.9-4.4 8.7-6.7 1.1-.9 1.3-2.4.6-3.6-.9-1.4-2.3-1-3.5-.5-7.6 3-13.2 8.9-20 13-10.5 6.3-20.6 13.2-30.6 20.4-4 2.9-6.6 2.3-9-1.4-6.8-10.3-15.3-19.2-22.6-29.1-16-22-32.4-43.8-47.1-66.6-10.9-17-9.2-13.5 3.5-23.2 20.6-15.6 41.5-31 61.8-46.9 6.4-5 7.3-5.1 11.5 1.9 18.9 31.8 43 60 63.9 90.3 4.5 6.5 9.8 12.5 13.6 19.6.9 1.7 2.3 3.5-.4 4.9-5.1 2.7-4.5 7.5-4.6 12.1-.2 11.3-.5 22.6-.5 33.9 0 4.3-1.9 5.8-5.9 6.2-17.8 2.1-35.7 2.5-55.5 1.9z"/><path fill="#1DD82E" d="M247.6 721.8c-.8 8.4-4.8 15.8-8 23.3-5.1 11.9-9.8 24-13.5 36.3-4.3 14-11 27-14.7 41.2-.9 3.5-2.8 5.1-6.3 4.9-1-.1-2-.1-3 0-8.9 1.2-15-1.7-21.1-9.2-12.7-15.8-24.3-32.3-35.8-49-12.4-18-25.4-35.7-38.1-53.5-1-1.4-2.1-2.6-2.1-5.2 5.7.5 11.4.8 17.1 1.5 21.4 2.6 42.9 3.9 64.4 6.1 15.4 1.6 30.9 2.2 46.3 3.4 5 .3 10 .1 14.8.2z"/><path fill="#E3DFC7" d="M2666.2 1563.6c-2.8 24.5-2.5 49.1-6 73.4-1.8 12.7-2 25.7-2.4 38.6-.1 3.8-1.5 5.3-5 5.9-14.5 2.6-28.9 3.3-43.4.2-2.7-.6-5.1-1.6-5.5-4.9-.5-4.3-2.2-8.6-1.6-12.7 2.4-16.6.4-33-.1-49.6-.5-16.2-.6-32.5-.7-48.7 0-4.3-.2-8.6-1.1-12.9-.9-4.3.9-6.2 5.3-5.9 7.5.6 15.3.3 22.6 2.1 7.2 1.8 13.1-2.5 20-2.5 4 0 8.2 1.3 12.5-.4 4.2-1.6 5.7 1.5 5.5 5.5-.3 4.1-.1 8.1-.1 11.9zm325.7-116.7c-1 12.8-.7 25.7-3.4 38.5-2.5 11.9-2.5 24.4-3.2 36.6-.3 4.5-1.3 7.1-6.3 8.3-9.4 2.2-18.9 3.3-28.5 3.7-4.8.2-6.4-2.5-6.5-6.8-.1-5-.4-10-.5-14.9-.3-18.9-3.1-37.7-2.2-56.7.1-2.3.3-4.7-.1-7-2.7-14.6-1.3-11.9 9.3-16.3 11.9-5 23.8-10 36.3-13.3 4.6-1.2 6.8-.2 5.9 4.1-1.5 7.9-.1 15.9-.8 23.8z"/><path fill="#D2CBA2" d="M647 1511.2c1.8 6 .6 11 .6 15.9.1 19.2.3 38.5.4 57.7 0 2.7 0 5.3-.1 8-.7 10.6-2 12.1-12.3 14.4-.6.1-1.3.2-2 .2-19.6 1.4-20.2-.8-22.1-17.7-1.8-15.8-1.8-31.8-2.1-47.7 0-1.3.1-2.7-.1-4-1.3-11.8-1.3-11.8 9-16.5 9.1-4.1 18.4-7.3 28.7-10.3zm-284 103.9c.3 11 .3 20.8-.5 30.8-1 13.2-.5 26.5-.6 39.8-.1 13.5-2.9 16.1-16.5 14.8-3.3-.3-6.6-.4-9.7-2-4.6-2.3-7.7-4.9-8.7-10.8-3-18-5.3-36-5.4-54.2-.1-5.9-2.5-11.6-1-17.7 7.5-1.1 14.1 1.5 20.9 2.3 7.1.9 13.7-1.5 21.5-3zm-296.4-54.7c7.5 1.3 14.3 2.5 21.1 3.8 11.8 2.3 13.8 5.3 14.4 17.2 1 19.3-1 38.6 1.7 58 1.7 12.2-3.4 16.1-15.6 14.3-8.1-1.2-10.7-3.6-12.6-11.4-5.7-23.9-7.9-48.3-10-72.6-.4-3-.8-6.1 1-9.3z"/><path fill="#CCEBEE" d="M1689 1436.3c-10.9 2.8-21.8 2.1-32.5.8-17.8-2.1-35.7-2.8-53.6-3.6h-2c-17.4-.3-24.8-8-25.2-25.4-.1-3.8 1.2-4.7 4.5-4.4 11.6 1 23.2 1.7 34.7 2.9 18.5 1.9 37 3.9 55.6 3.6 4-.1 7.9-.1 11.8 1.1 2.1.6 3.2 1.2 4 3.5 2.7 8 1.8 9.6-6.6 9.2-9.3-.5-18.5-1.7-27.8-2.6-1-.1-1.9-.7-2.8-.9-3.4-.7-6.2.2-7 3.8-.9 4.2 2.2 5 5.4 5.3 8.6.9 17.2 1.7 25.8 2.7 5.3.5 10.8.4 15.7 4zm14.6 44.9c-7.2 1.6-13.9-1.4-20.9-1.2-21.8.5-43.6-1.5-65.4-2.5-2.4-.1-4.1-.6-6.1-2.4-3.6-3.2-7-6.6-10.9-11.3 10.4 0 19.5-.2 28.6 0 20.1.6 40.2 1.4 60.3 2.4 10 .5 10 .7 12.8 10.2.5 1.5 1 3.1 1.6 4.8zm-9.7-22.1c-27.1-2.4-54.2-.8-81.2-3.6-5.6-.6-11.1-1.4-16.7-2.2-4.5-.7-6.6-3.7-7.7-8.7 19.7 2.3 39.1.5 58.4 2.9 13.1 1.6 26.3 1.8 39.5 2.8 6.5.3 6.5.5 7.7 8.8z"/><path fill="#ABEBB1" d="M425.5 829.7c.8.5.7 1-.1 1.3-.2.1-.6-.1-.9-.1.4-.3.8-.7 1.2-1 0-.1-.2-.2-.2-.2z"/><path fill="#1DD82E" d="M247.7 721.8c-.2-.8 0-1.1.7-1 0 0 .1.4 0 .6-.2 1.3.2-.5-.7.4-.1 0 0 0 0 0z"/><path fill="#0C0D0C" d="M1629.1 244.1c4.6 1 8.9-.8 13.1 1.1 2.2 1 4.2 1.5 5.3 4 2 4.5.8 6.8-4.1 6.7-20.7-.5-40.9 2.7-60.8 7.9-11.6 3-22.6 7.5-33.8 11.6-22.1 8.1-42.9 18.8-62 32.5-15.8 11.4-31.7 22.9-45.1 37.3-6.3 6.8-12.3 13.9-18.3 21-5.6 6.6-10.8 13.4-16.5 19.9-10.4 11.9-17.9 25.3-21.8 40.7-1.1 4.4-2.5 8.9-6.4 12.1-1.5 1.2-2.5 3.1-5 1.8-2.6-1.4-3-3.5-1.9-5.9 6-12.6 9.7-26.2 17.1-38.1 7.2-11.5 14.6-23.1 22.9-33.7 11.3-14.7 24.6-28 38.8-40 11.4-9.6 22.9-19.2 34.7-28.3 5.2-4 11.3-6.9 17-10.2 28.9-16.3 59.6-28.5 91.8-36.2 11.6-2.6 23.3-5.8 35-4.2zm20.9 312.3c0 5.6-.1 9.3 0 12.9.1 5.5-1.2 10.5-4.5 14.9-5.4 7.4-13.2 8-20.8 2.6-11.1-8.1-15.5-19.7-16.7-32.5-.9-9.9-.5-19.9-.1-29.8.3-6.8 4.4-12.4 7.8-18 2.9-4.9 14.3-3.6 19.7 1.5 2.7 2.6 4.5 5.7 6.1 9 6.5 13.1 9.9 26.7 8.5 39.4zm-10.6 1.7c-1.3-9.1-2.5-18.2-5.5-27-1.3-3.7-4-5.8-7.4-7.6-3.6-1.9-5.7-1.1-6.4 2.8-1.2 6.2-.9 12.5-.6 18.8.4 8.4 2.7 16.3 7.4 23.3 1.5 2.2 2.9 5.9 6.5 5.4 3.7-.5 3.9-4 4.6-6.9.7-2.9 1.8-5.7 1.4-8.8zm-224.5 973.3c-3.5 0-7.2.4-10.8-.1-3.1-.4-6.6-1-7.5-5.2-.5-2.5-2.2-3.9-4.8-4.3-2-.3-3.9-1.6-3.3-4 .6-2.4 3.1-2.2 5-2.4 17.1-1.3 34.3-2.5 51.4-3.9 16.5-1.3 32.2-6.9 48.3-10.4 3.5-.8 6.9-2 10.4-3 2.2-.6 4.4.2 5 2.2.7 2.4-.7 4.8-3.3 5.2-10.2 1.4-19.1 7.6-29.6 7.8-4.8.1-8.7 3.1-13.2 3.9-2.2.4-2.4 1.2-1.7 3.3.5 1.5-1.1 3.2-2.9 3.3-8.7.4-16.5 4.7-24.9 6.1-6.1 1.2-12 2.1-18.1 1.5zm88.1-990.8c2.1.7 3.6 2.2 2.8 4.4-.8 2.5-2.6 4.6-3.5 7.1-5.6 16.5-7.1 33.3-5.2 50.7 2 18.7 14.3 29.8 28.2 39.9.3.2.6.3.9.5 2.3 1.4 6.5 1.4 5.4 5.7-.7 2.5-7 2.9-10.5 1.2-13.9-6.8-23.8-17.6-31.1-31-4.7-8.6-7-17.8-6.7-27.6.1-5 .3-10 0-14.9-.8-12.1 6.2-21.4 11.2-31.3 1.5-3.1 5.1-4.1 8.5-4.7zm-45.2 26.2c-1.7 6.2-1.9 11.9-6.7 16-5.2 4.4-8.9 4.2-13.8-.5-4.7-4.6-7.4-10.4-9-16.4-3.4-12.2-4-24.9-2.5-37.4.5-4.6.4-11.6 6.3-12.2 5.3-.6 10.5 2.8 14 7.8 6.5 9.3 8.1 20.1 9.9 30.8.7 4.1-.6 8.6 1.8 11.9zm-11.1 4.2c.8-14-3-27-9.2-39.3-4.1 14.7.6 27.5 9.2 39.3z"/><path fill="#11110D" d="M1583.8 706.1c23.2 1.2 46.2-.7 68.3-7.4 14.4-4.4 29.3-8 42.8-15.3 1.7-.9 3.6-1.6 5.5-2.3 2.5-1 5.2-2.3 7.1.6 1.9 3-.8 5.3-2.5 6.9-5.8 5.7-13.4 8.4-20.8 10.9-10.3 3.4-20.9 6.3-31.4 8.8-6.7 1.6-13.6 2.3-20.5 3.2-10.7 1.4-21.5 3.5-32.3 3.7-7.2.2-14.5-.9-21.7-1.2-2.1-.1-4.2-1.8-6.1-2.9-.7-.4-1.5-1.4-1.6-2.3-.2-1.5 1.2-2.6 2.4-2.7 3.5-.2 7.1 0 10.8 0z"/><path fill="#0C0D0C" d="M1824.2 1548.2c-20.8-2.9-42.3-3.5-59.6-18.1-.2-.2-.6-.2-.9-.4-2.8-2.3-6.6-5.7-5.1-8.6 2.2-4 5.8.2 8.5 1.4 10.1 4.3 20.7 6.4 31.3 9.1 10.5 2.7 21.2 4 32 4.6 6.1.3 7.8 2 7.5 6.5-.3 5.1-4.1 5.3-7.9 5.6-1.8 0-3.8-.1-5.8-.1z"/><path fill="#11110D" d="M329 1131.2c-31.8-4.4-64-5.6-95.8-9.5-21.4-2.6-42.8-4.1-64.2-7.3-20.9-3.2-42-5.3-63-8.1-16.7-2.2-33.5-4-50.3-6.1-3.3-.4-6.5-1.3-9.8-1.9-2.1-.4-4.4-.9-3.8-3.4.6-2.6 2.5-5.5 5.6-4.1 5.4 2.4 11 2.5 16.6 3 16.2 1.5 32.2 4.2 48.3 6.3 26.6 3.5 53.2 6.7 79.9 9.9 29.9 3.7 60 5.5 90 8.4 15.1 1.5 30.3 2.8 45.3 5.2.7.1 1.3.2 2 .3 2.7.4 5.9.8 5.4 4.4-.3 3.5-3.5 3.3-6.2 2.9zm24.1-32.2c.8-9.7-.6-19.2-1-28.9-.1-2.3-.2-4.7.3-6.9.3-1.5 1.7-3 3.7-2.6 1.4.3 2 1.7 2 3 .5 16.5.9 33 1.3 49.5 0 .7.1 1.5-.2 2-1.4 2-.2 6.3-4 5.7-2.4-.4-2.3-3.5-2.2-5.9.2-5.3.1-10.6.1-15.9z"/><path fill="#F3F3F3" d="M1639.4 558.1c.4 3.1-.7 5.9-1.5 8.8-.7 2.9-.9 6.4-4.6 6.9-3.6.5-5-3.2-6.5-5.4-4.7-7-6.9-14.9-7.4-23.3-.3-6.3-.6-12.6.6-18.8.7-3.9 2.8-4.7 6.4-2.8 3.3 1.8 6.1 4 7.4 7.6 3.1 8.7 4.3 17.9 5.6 27zM1446.7 571c-8.6-11.8-13.2-24.5-9.2-39.3 6.2 12.3 10 25.2 9.2 39.3z"/></svg>