<svg xmlns="http://www.w3.org/2000/svg" viewBox="0 0 2466.6 2096"><path fill="#0C0C0C" d="M826.5 1931.2c12.9-7.8 21.9-20 33.3-29.5 8-6.6 20.5-7.2 29.5-1.6 25.2 15.7 40.2 38.8 47.9 67 6.4 23.5 8.3 47.5 8.2 71.7v3c0 10.7-3.2 17.1-15 21.4-24 8.9-48.3 16.4-73.4 20.7-32.7 5.6-65.4 10-98.7 11.2-19.5.7-39 1.2-58.5.7-16.2-.4-32.5-1.1-48.6-3.5-19.6-2.9-39.5-4.2-59-7.9-4.2-.8-8.5-1.8-12.5-3.2-8.1-2.9-9.7-7.5-4.7-14.4 10.4-14.2 18.9-29.5 26.9-45.1 1.6-3.2 3.8-6.2 4.5-10.5-9.8-3.2-19.6-.8-29 0-18.1 1.6-36.1 4.3-54 7.1-19.1 3-38.2 3.8-57.5 3.9-31.9.1-63.9.5-95.8.6-5.6 0-11.3-.5-17-.5-3.3 0-3.9-1.8-3.6-4.5.3-3 1.2-5.7 2.8-8.4 9.9-17.3 19-34.9 24.4-54.3.7-2.5 2.2-4.9 3.4-7.2 17.8-34.1 23.6-70.6 21.8-108.7-.5-10.8-5.6-20.5-7.4-30.9-3-17.1-12.8-30.9-21.8-45.1-4.2-6.7-9.3-12.9-14.2-19.1-9.6-12.1-24-17.5-36.4-25.6-3.3-2.2-6.6-4.5-10.1-6.2-6.6-3.3-12.1-8.6-19.9-10-4.3-.7-8-4.4-11.6-7.4-24.7-20.7-48.6-42.4-71.1-65.4-19.9-20.4-38.8-41.5-56.3-64.2-16.2-21.1-33-41.7-46.6-64.6-13.2-22.2-27.3-44-38.2-67.5-7.3-15.6-13.5-31.7-19.6-47.8-7.2-19.2-14.1-38.5-19.3-58.4-2.6-9.9-5.1-19.8-6.3-30-1.2-10.1-5-19.8-7.5-29.8-4.3-17.1-4.7-34.7-7.8-51.9-4-21.9-4-44.2-7.4-66.1-.4-2.6-.4-5.3-.3-8 .6-19.8.1-39.6 1.3-59.4 1.1-18.2 1.7-36.4 4.1-54.4.6-4.3 1.4-8.5 2.2-12.7 2-9.7 3.8-19.3 4.2-29.4.3-9.7 3.8-19.4 6.7-28.9 9-29.1 17.3-58.5 27.9-87.1 8.8-23.5 17.3-47.3 29.3-69.6 14.6-27.2 30-53.8 47.8-79 13.6-19.2 26.4-39.1 40.8-57.7 9.4-12.1 15.9-26.4 27.8-36.8 11.6-10 22-21.4 33.8-31 24.4-19.8 46.6-42.4 72.5-60.2 17.4-12 34.9-23.9 53.2-34.7 19.4-11.5 40.2-19.8 59.9-30.5 13-7.1 27.4-11.4 41-17.4 27.2-12.2 56-19.7 84.1-29.3 15.8-5.4 31.7-11.4 48.7-12.9 5.9-.5 10.8-4.9 16.9-5.2 12.3-.6 24.1-4.2 36.2-6.1 32.4-4.9 64.8-8.3 97.7-8.1 23.5.2 47.1-.8 70.6.9 20.7 1.5 41.7 1.8 62.1 5 22.2 3.4 44.6 5.7 66.4 12.2 14.2 4.2 29.4 5.3 43.3 10.1 20.9 7.3 42.8 11.6 63.3 20.1 26.6 11 53.7 21 78.2 36.6 10 6.4 21.3 10.8 31.6 16.8 17.2 10 34 20.6 49.6 33.1 2.1 1.7 4 3.5 7 3.3 12.1-.5 23.6 2.9 35 6.1 20.3 5.8 40.8 11.1 59.7 20.9 20.7 10.7 40 23.3 56.4 40 1.4 1.4 3 2.6 4.4 4 .8.7 1.6 1 3.1.7 1.5-8.3.8-16.9.2-25.2-1-13.9-1-27.7-.2-41.6.6-11-.6-22.2-.7-33.3-.2-18.9-.1-37.8.6-56.7.3-9.2-.3-18.5-.7-27.8-.5-13.2.1-26.4.9-39.7.7-11.1.4-22.4.6-33.5.4-33.5.8-67 0-100.6-.3-14 0-28-.1-41.9-.1-14.8-.8-29.6 0-44.4.1-2.3.3-4.8-.5-6.9-2.6-6.6-1.5-13.2-.4-19.7 1.4-8.3 8-13.6 16.4-14.4 21.1-2 42.1-4.1 63.1-7.3 11.8-1.8 23.7-2.7 35.6-3.2 14.3-.6 28.3-3.2 42.5-4.3 3.6-.3 7.2-1.4 10.8-1.1 13.4 1 26.5-2 39.7-3.2 9.8-.9 19.8-1.7 29.6-2.5 14.3-1.2 28.3-3.7 42.4-5.4 19-2.3 38-5.1 57.1-7 21-2.1 42.2-2.1 63-5 23.9-3.4 48.1-3.7 71.9-8.5 13.2-2.7 26.9-3.1 40.5-4.3 17.2-1.4 34.2-4.2 51.2-6.8 14.3-2.2 28.7-4.2 43.2-5.3 18.8-1.4 37.5-3.7 56.3-6 21-2.5 42-5 63-8 29.4-4.2 59.1-5.7 88.6-9.4 18.9-2.4 38.1-4.3 57.3-5.4 18.1-1.1 36-4.7 54.1-6.5 20.7-2.1 41.3-5.5 62.2-6.8 15.8-1 31.6-3.5 47.5-3.8 17-.3 33.6-4 50.4-4.5 10.9-.3 12.1 1.5 12.7 12.5.4 8-1.5 15.8-1.3 23.7.9 36.2 1 72.4 2.3 108.6.8 23.3-.6 46.5-1.2 69.7-.3 11.5 1 23 .5 34.6-.9 19.2-.3 38.5-1 57.8-.8 22-2.4 44-2.1 66.1.3 24.3-.7 48.6-.9 72.9-.1 10.6.9 21.2 1.5 31.8.8 13.1-.4 26.5-1.3 39.7-1.2 18.3-.7 36.5-.4 54.8.1 10.2-1.2 20.3-.9 30.5.6 20.6.7 41.1 1 61.7.4 21.9.9 43.8.1 65.8-.7 19.9-.1 39.9-.3 59.8-.3 25.5-1 51.1-1.3 76.6-.3 30.1-.1 60.3-.7 90.4-.3 13.9.6 27.7-.1 41.5-1.5 29.3-1.3 58.7-1.3 88 0 19.2-.5 38.4.2 57.6 1.1 31.3 1.8 62.7 1.2 94-.8 40.2-2 80.4-1 120.7.6 22.4-1.2 44.7-.5 67.1.6 19.2 0 38.5.9 57.8.7 14.3-.9 28.9-.9 43.4-.1 24.6.8 49.3-.8 73.8-1.6 23.5 3.1 46.9-.7 70.3 4.3 24.8.1 49.7 1.6 74.5.4 5.9-.2 12-.6 17.9-.6 8.6-4.5 12.1-13.5 11.9-11.7-.2-23.3-.4-35-2.5-19.2-3.5-38.8-4.6-58.1-7-18-2.2-36.1-3.3-54-6.8-11.5-2.2-23.6-2.5-35.3-4.9-17.7-3.6-35.9-3.5-53.7-7.1-18.7-3.9-38.1-4.6-57.2-6.4-7.3-.7-14.5-1.8-21.6-3.1-10.2-1.8-20.4-1-30.6-2.7-15.6-2.7-31.4-3.7-47.2-5.1-6.2-.6-12.6 1.1-18.6-1.2-14.7-5.6-30.5-3.5-45.5-7.4-4.5-1.2-9.6-.3-14.5-.4-18.6-.3-36.8-4.3-55.3-5.9l-36.6-3c-23.1-1.8-46.2-3.5-69.1-7-16.3-2.5-32.9-2.8-49.3-4.6-18.1-2-36.1-4.4-54.2-6.9-1.9-.3-3.8-1-5.8-.9-11 .5-21.8-1.1-32.7-2.6-21.9-3.1-43.8-5.1-65.9-6.4-21.4-1.2-42.6-5.4-64.1-7.2-8.1-.7-16.1-2.4-24.6-1.2-7.6 1.1-15.4-2.9-23.4-3.6-10.2-.8-20.3-2.9-30.5-3.4-16.2-.9-32.2-3-48.3-5.2-11.8-1.7-23.8-2-35.7-2.5-3.6-.1-4.9-1.1-6.2-4.5-3.1-7.8-5.1-15.6-5-24.1.4-16.8-.2-33.6.2-50.4.2-9-1.9-17.7-2.1-26.8-.2-10.9 1.5-21.7 1.3-32.6-.1-4.8-.3-9.6-1.9-15.6-7.8 7.1-11.8 15.6-17.3 22.8-21.6 28.4-45.3 54.7-70.9 79.5-19.5 18.9-39.9 36.9-60.9 54.1-17.4 14.3-35.9 27.2-54.9 39.4-14.5 9.2-28.9 18.5-43.6 27.3-7.3 4.4-15.1 8.1-22.9 11.8-19.8 9.2-39.1 19.8-59.8 26.9-28.1 9.7-56.4 18.6-85.7 24.2-15.9 3-31.9 5.6-47.8 8.7-6.9 1.3-13.9 1-20.8 1.4-6.9.4-7.1.4-7.4 7.5-.2 5.6-1.1 11.2-1.2 16.8-.6 20.2-8 38.1-17.2 55.5-8.5 16.2-19 31.1-28.6 46.7-.8.8-2.7 1.6-2 2.5.8.8 2.6.4 3.8-1zm1309-1308.7c-4.7.4-9.4.7-14 1.1-3.8-1.6-7.7-1.5-11.8-1.1-9.9.9-19.9 1.8-29.8 2.1-10.3.4-20.3 2.9-30.3 4.8-12.3 2.5-23.8 7.9-35.5 12.3-22.9 8.6-43.4 21.4-63.5 34.8-6.8 4.5-13.2 9.9-19.5 15.4-18.3 16.3-32.5 35.9-47 55.3-4.2 5.6-8 11.6-10 18.2-1.7 5.7-4.7 10.1-8.9 14-22.1 20.6-41.6 43.5-59.8 67.6-19.9 26.3-36 55-51.8 83.8-11.6 21.3-22.6 42.8-30.2 65.9-3 9.1-5.4 18.4-8.9 27.3-7.9 20.4-13.2 41.5-17 63-.4 2.2-2.2 4.3-.5 6.7 5 7.2 4.4 15.6 5.5 23.8 1.8 13.2.3 25.6-3.6 38.2-2.4 7.7-6.1 14.7-9.7 21.8-4.2 8.4-1.6 13.1 7.2 14.8 19.9 4 38.7 1.1 57.2-7.2 11.9-5.3 22.6-12.4 33.2-19.8 7-4.9 12-4.7 18.5.8 4.1 3.5 6.9 8.1 10 12.4 4.1 5.7 4 5.8 10.6 2.3 7.2-3.8 11.4-2.8 15.7 4.3 2.5 4.2 4.4 8.9 6.6 13.3 11.7 23.9 2.5 58.7-21.2 70.2-2.1 1-3.9 2.5-5.9 3.8-1.8 1.1-3.2 2.6-2.9 4.8.7 4.7-2.2 10 2.4 14.1 2.4 2.2 1.1 4.5-.9 5.9-9.8 6.9-17.3 16.5-27.5 23-21.5 13.7-41.7 29.4-64.4 41.3-7 3.7-7.3 4.5-5.4 11.7 2.3 8.6 4.8 17.2 7.5 25.7 8.8 26.8 19.4 52.7 33.6 77.3 8.6 15 18.4 29.2 28.4 43.2 8.6 12 16.8 24.4 25.8 36.1 13.7 17.7 30.3 32.5 46.8 47.5 8.3 7.6 16.9 15 24.5 23.3 2.6 2.8 8.8 6.9 4.9 11.1-2.2 2.3-7.3-2.4-10.6-5.2-20.3-17.2-39.1-35.9-57.2-55.5-23.7-25.7-45.1-53.1-63.5-82.7-9.4-15.2-17.5-31.2-25.5-47.2-11.3-22.5-20-46.1-25.9-70.6-1.1-4.7-2.2-5.3-7-2.5-20.4 11.9-42 21.1-63.8 30.2-37.3 15.7-75.3 29-115.2 36.6-30.4 5.8-60.9 8.7-91.7 9.3-10.3.2-20.6 1.2-30.9.1-2.5-.3-5.8-.8-6.8 2.6-2.7 8.5-9 14.7-13.2 22.2-2.9 5.2-4.9 10.6-4.9 17 0 5.6.1 11.3.3 16.9.6 21.4-2.1 42.8-.6 64.3 1.2 17.3 2.2 34.8.7 52.2-.5 5.8.3 11.8.6 17.7.3 4.2 1.5 6.9 6.8 7.8 9.8 1.6 19.7 2.5 29.5 2.9 21.6.9 42.9 4.1 64.3 6 20.1 1.8 40.1 4.7 60.2 6.8 15.8 1.6 31.7 2.5 47.5 4.1 17.1 1.8 34.1 4.5 51.3 5.4 9.9.5 20 .9 29.7 2.9 23.4 4.8 47.2 6.4 70.8 8.6 17.1 1.6 34.3 3.2 51.3 5.6 21.7 3 43.4 5.2 65.2 7.4 15.5 1.6 31 2.8 46.5 4.6 16.4 1.9 32.9 2.7 49.3 4.6 14.1 1.7 28.3 2.4 42.4 4.2 3.9.5 5.8-.4 7.9-3.4 4.7-6.8 10.5-12.5 17.9-16.6 1.4.2 2.8.5 4.2.7-4.5 7.5-11.4 13.5-16.4 23.1 21.4-.7 40.1 5.1 59.4 5.8 10.6.4 21.2 1 31.6 2.8 10.5 1.8 21.2.1 31.5 3 3.5-.8 6.9-1.3 10.6-.5 6.8 1.5 13.7 2.3 20.6 3.3 27.4 4.2 55.1 6.9 82.7 9.9 27 2.9 53.9 6.2 80.8 9.9 13.4 1.9 26.9 2.6 40.2 4.6 25.9 4 51.9 5.6 78 7.5 3.9.3 5.5-1 5.4-5-.2-29-.3-57.9-.3-86.9 0-19.3-1.9-38.4-1.6-57.7.2-14.5 2.1-29 1.4-43.6-.6-11.5.4-23.2-.5-34.6-.7-8.2-1.6-16.5-.5-24.6 2.4-17.2.6-34.5.9-51.7.5-23.3.4-46.6.6-69.9 1-.2 1.7-.6 1.4-1.7-.1-.4-.9-.6-1.4-.9-2-4.9 1.6-9 1.8-13.6.6-19.1.3-38.2 1.4-57.4.9-15.9.2-31.9.2-47.8 0-2 .1-4-.1-6-.5-3.5-3.2-3.7-5-1.9-6.6 6.6-14.1 12.2-19.9 19.5-7.3 9.4-16 17.7-24.5 25.8-8.5 8.1-15.8 17.4-24.8 24.9-4.9 4-7.7 10.5-12.4 13.7-10 7-16.1 17.3-25.1 25-8.9 7.6-15.4 17.7-25.5 24.2-2.1-1.6-.7-2.8.5-3.9 2-1.9 3.3-4.1 2.8-7 3.6-5.6 10.1-8.4 13.7-13.8 7.4-11.1 17.9-19.4 26.7-29.1 7.5-8.4 15.2-16.9 23.6-24.6 1.2-1.1 2.6-2.7 3.9-2.7 3.5-.2 4.1-2.6 5.2-5.1 3-6.5 7.7-12.2 13.7-15.1 3.4-1.7 4.8-3.8 5.1-6.2.7-6.2 4.4-10.6 8.9-13.5 7.6-4.8 12.8-12.1 19.5-17.8 1.5-1.3 2.5-3.3 4.7-3.5 6.3-.6 6.9-5.2 6.9-10.1 0-8.3-.1-16.6-.1-24.9 0-30.3.1-60.6.1-90.8 0-21.1-.2-42.3-.1-63.4.2-32.3-.4-64.6.5-97 .6-22.7-.1-45.5 0-68.2.2-37.2-.9-74.5 1.5-111.7 1.7-26-1.2-52 .3-78.1 1.3-22.5-.2-45.2-1.9-67.8-1.4-19.5.5-39.2-.3-58.7-.7-15 2.2-29.8 1.7-44.7-.8-26.5 2.1-53-.9-79.6-1.4-12.7.1-25.7.1-38.6 0-9.2-.9-18.5-.2-27.6 1.2-13.5 2.5-26.9 1.8-40.5-1.1-21.7 1.8-43.2 2-64.8.2-15.6 0-31.2 0-46.8 0-26.6 0-53.1.1-79.7 0-16.8.2-33.7.5-50.5 0-2.2 1.7-4.6-.8-6.3-2.2-1.4-5.6-.4-6.6.7-6 6.6-15.3 9.2-20.6 16.7-5.5 7.8-11.6 15-19.4 20.7-1.7 1.3-2.4 3.2-3 5.1-1.2 3.8-3.9 6.7-5.9 10-2.1 3.3-6.3 4.2-7.3 7-3.7 10.4-12.7 13.6-21.4 17.6-1.4-.1-2.8-.2-3.8-1.6 5-3.8 10-7.6 12.4-13.8.5-1.2 1.4-2.6 2.4-3.1 8.8-4.2 12.8-13.1 18.4-20.1 13.8-17.1 28.7-33 47.1-44.8 8.4-5.4 11-11 9.9-19.9-.3-2.6 0-5.3-.1-8 0-19.5-2.1-39.1 1.2-58.6.6-3.6-1.7-4.7-4.8-4.5-12.9.9-25.7 1.6-38.5 3.9-5 .9-9 2.9-10.1 8-.6 2.7-2 3.8-4.2 4.9-13.5 7.1-21.3 21.1-34 29.2-1.4.9-3.4 2.2-3.4 4.6 0 1.8-.9 3.2-2.4 4.1-12.1 6.8-18.3 20.2-30.9 26.7-2.6 1.4-6.7 4.4-6.5 9.2.1 1.7-1.3 3.3-3.1 3.4-4.3.3-5.9 3.8-8.4 6.3-6.2 6.4-11.1 13.9-18.1 19.5-4.4 3.5-9.3 6.3-12.2 11.5-.9 1.6-2.9 1.4-4.5 1.1l-2.6-2.6c0-3.6 2.4-5.5 5.4-6.2 2.6-.6 4.1-2.2 5.6-3.9 8-9.8 16.7-19 26.1-27.5 6.2-5.6 11.2-12.5 17.9-17.8 8.3-6.7 14.4-15.7 22.4-23 3.9-3.5 6.4-8.8 10.6-11.7 10.3-6.9 16.8-17.7 27.1-24.5 1.3-.9 2.1-2.5 3.1-3.8 2.1-2.7.8-4.9-1.9-4.6-5.3.7-10.4-.6-15.7.2-11.8 1.8-23.6 3.6-35.4 4.5-24.5 2-48.6 6.8-73.2 7.4-8.3.2-17.1 2-21.6 9.7-3.6 6.1-9 9.2-14.6 12.3-3.3 1.8-6.3 4.4-7.4 7.8-1.2 3.6-3.7 5.1-6.2 7.3-5.3 4.7-12.8 7.4-14.8 15.4-.2.8-1.2 1.8-2 2.1-11.6 5-16.8 17-26.5 24.2-8.3 6.2-13.3 16.2-22.8 21.4-2.2 1.2-4.1 3.4-5.7 5.5-8.1 10.5-18.4 18.9-27.4 28.4-13.2 14-27.9 26.7-40 41.5-11.4 13.9-27.8 20.9-40 33.4-12.4 3.4-16.8 13.3-20.9 24.1-3 7.8-5.8 16.4-14.5 20.4-1.5-2.3.6-3.4 1.5-5 3.5-6 6.8-12 5.2-19.4 3.9-6.6 4.1-15.6 12.5-19.3.5-.2.9-1.1.9-1.7 0-5.5 4.4-6.9 8.2-9 7.5-4.2 17.3-4.2 22.8-12.2.7-.9 2.3-1.6 3.6-1.7 6.1-.1 9.3-4.4 12.4-8.7 3.6-5 6.5-10.4 13-13 2.8-1.1 5.9-4 6.8-8.1 1.1-4.8 4.9-7.9 9.3-9.8 5.2-2.2 8.9-5.4 11.1-10.5 1.6-3.8 4.3-7.7 7.8-8.7 4.4-1.3 6.5-4.3 9-7.3 5.8-6.9 8.6-16.4 17.8-20.4 7.1-13.4 20.9-20.7 29.7-32.5 3-4 8.1-5.4 11-9.6 4.5-6.6 11.1-10.8 17.3-15.8 6.1-4.8 10.1-12.7 16.1-18.5.2-.2.5-.5.8-.6 7.2-2.3 8.7-9.4 14.6-15.8-24.5 2.6-46.9 5-69.2 7.4-8.2.9-16.4 2.6-24.6 3.1-28.8 1.8-57.2 7-85.9 9.8-23 2.2-45.9 4.9-68.7 8.7-19.3 3.1-38.8 4.6-58.2 6.6-27 2.7-53.8 6.5-80.8 9.3-19.8 2.1-39.4 5.2-59.3 6.1-10.9.5-21.9 1.5-32.7 2.7-23.3 2.7-46.9 3.4-70.1 7.6-10.8 1.9-21.9.7-32.5 3.6-9 2.4-18.3 2.9-27.4 4.5-16.4 2.8-33 1.1-49.5 3.2-22.3 2.9-44.9 3.8-67.2 6.6-8.5 1.1-17.3 1-25.7 2.7-17.8 3.6-36 4.5-54 7.1-14.4 2.1-28.9 3.1-43.2 6-4.6.9-6.3 2.2-6.1 6.8.6 14.1-1.4 28.1-.2 42.2 1.3 15.5.5 31.2.5 46.8-.1 17.9-.1 35.8-.6 53.8-.3 11.1-.4 22.1.3 33.2.3 5.3.7 10.6.6 15.9-.5 20-1.2 39.9-1.6 59.8-.4 17.9-.6 35.8-.7 53.6 0 4.3-1.8 8.2-1 12.8 2.4 13.5 1.2 27.1 1.4 40.7.4 22.9-.6 45.8.4 68.7.7 15.9 2.6 31.8 1.1 47.7-.3 3.3 1 5.4 3 7.9 11.9 14.3 23.9 28.7 33.5 44.5 9.6 15.9 18.2 32.4 25.3 49.7 1 2.4 1.4 5.4 4.1 6.6 5.1 2.1 8.3 6.6 12.4 10 18.4 15.5 25.7 35.7 24.1 59.4-.5 8-2.1 16.3-7.3 22.3-5.3 6.1-5.3 12.5-4.9 19.5 1.2 23.7-2 46.9-7.6 69.9-1.8 7.4-4.9 14.6-5.8 22-.9 7.6 6 13.7 8.7 20.8.1.2.5.3 1.4.9 3.2-3.2 7.9-3.6 12.2-5 12-3.8 13.6-5.8 13.6-18.4 0-10.4-3-20.2-6-30-1.6-5.2-1.4-10 2.4-14 18-18.4 44.2-11.7 52.9 6.7 5.8 12.3 7.7 25.3 5.4 38.8-1 6-2.3 12-3.7 18.7 12.4-1.9 23.2-5.8 33.3-11.6 12.4-7.1 24.2-15 35.1-24.2 3.2-2.7 5.6-3 8.5.1 2.7 2.9 5.8 5.6 8.2 8.8 2.4 3.2 4.7 3.2 7.6 1.3 2.5-1.6 5.1-3.1 7.7-4.7 5.3-3.3 9.9-7.7 15.9-10.2 4.8-2.1 8.2-1.2 10.8 3.3 7.8 13.3 11.7 27.4 8.2 42.9-5.2 22.6-16.6 41.7-32.6 58.2-4.9 1.3-7.3-2.2-9.7-5.4-3.6-4.8-7.6-9.3-13.2-11.9-6.4 5.2-13.7 9.6-18.5 16.6-6 8.8-12.3 17.2-18.5 25.8-4.9 6.9-10.7 9.8-18.7 11.3-11.9 2.2-24.6 1.4-35.4 8.5-2.1 1.4-3.9 0-5.2-1.5-1.1-1.2-1.8-3.3-.6-4.6 3.3-3.5 5.2-8.3 11.1-9.1 8.9-1.3 17.8-2.8 26.7-2.3 6.7.4 9.5-2.6 12.4-8.4 9.2-18.4 22.1-33.7 39.5-45.3 9.6-6.4 17.1-4.4 22 5.2 1.1 2.1 2.2 4.1 4.9 4.8 10.9-9.4 15.8-22.2 21.2-35.2 5.7-13.6 4.3-25.3-3.5-37.4-2.7-4.2-4.6-3.7-7.9-1.8-5.8 3.3-11.5 6.6-17.4 9.6-7.1 3.6-7.1 3.5-12.9-2.3-1.6-1.6-3.5-2.8-5.3-4.3-8.9 5.8-17.7 11.2-26.1 17.1-14.9 10.4-32.6 14.6-49 21.6-8.1 3.4-11.8-.7-10-9.6.4-1.9 1.2-3.8 2.1-5.6 1.4-2.7 1.9-5.6 2.4-8.6 1.7-11.2 1.4-22.5 1.2-33.8-.3-16.5-17.9-28.1-33.3-22-9.3 3.7-10.2 5.6-6.7 14.8 4.5 12 6.3 24.4 6.1 37.1-.2 11-8.4 21.3-18.8 24.1-3.5 1-6.9 2.2-10.4 3.3-3.7 1.2-5.4 2.9-3.5 7.3 2.4 5.7 4.1 11.8 5.3 17.9 2.8 15 4.8 30.1 6.5 45.2 2.3 20.8 3.5 41.6 3.6 62.5.1 6.6.9 13.2 1.7 19.8.8 6.1 1.8 6.8 7.7 5.3 14.5-3.5 28.6-8.1 42.3-13.9 16.5-7 31.8-16.3 45.7-27.6 19.6-16 38.6-32.6 51.8-54.6 2.5-4.2 5-3.4 8.2-1.7 2.2 2.2 2.7 4.7.7 7.1-5.7 6.9-9.6 15.2-16.5 21.2-10.3 8.9-19.5 18.9-30.1 27.5-19.5 16-39.2 31.7-61.9 43.1-13.7 6.8-27.8 12.3-42.2 17.2-5.3 1.8-7.4 5.3-7.3 10.5.2 12-.5 23.9-2.6 35.7-2.2 12-1.4 24.5-4.8 36.4-2.3 7.9-1.6 8.6 6.8 8.2 11.2-.4 22.4-1.5 33.6-1.9 20.3-.7 40.1-4.8 59.7-9.6 4.1-1 5.1-3 5.2-6.9.5-15.8 7.6-29.3 15.9-42.3 2.1-3.2 5.1-5.8 8.8-5.9 11.3-.4 19.3-7.1 26.5-14.3 11.2-11.1 21.9-22.7 16.8-40.9-1.3-4.5.8-7.9 5-10.9 8.7-6.1 18-5.9 27.5-3.9 4.7 1 5.9-.1 7.1-4.7 8.8-32.2 15.6-64.9 29.4-95.6 14.4-32.1 28.3-64.3 47.3-94.1 21.5-33.7 44.4-66.2 71.1-95.9 5.3-5.9 10.1-12.4 16.2-17.5 7.2-6.1 12.3-12.8 16.6-21.5 14.2-28.3 31.9-53.9 57.1-74.3 26.1-21.1 54.5-38 85.4-50.2 26.2-10.3 53.6-17.6 82.3-16.5 4.6.2 8.3-.9 11.8-4.2 2.8-2.7 6.5-4.6 9.5-7.1 23.7-19.9 52.4-31.2 79.9-44.1 28.7-13.5 59-23.4 89.2-33.1 15.2-4.9 30.9-7.1 46.6-8.8 5.9-.7 11.5.5 15.7 6.3-4.8 2-9 2.6-13.2 3.2-30 3.9-58.7 13.2-87.1 23.2-16.3 5.7-31.8 13.1-47.4 20.1-21.2 9.5-42.4 19-61.2 33-4 2.9-7.4 5.9-10.1 11.2 13.6 1 25.7 3.6 38.1 11.5-5 1.4-8.1 2.3-11.1 3.1-1.3-.8-.5-3.2-2.4-3.3-2.4-.1-1.1 2.3-2 3.3-3.9-.2-8.1 1.1-11.6-1.8.1-.7-1.3-2.2-4.2-1.8zm-1554.7 1179c4.5 1.1 8.9.9 13.4.1-3.9-1.7-8.1-1.5-12.2-1.6-1-1.7-2.7-1.8-4.3-2-10.1-1.7-20.2-3.5-30.3-5-17-2.5-33.2-8.4-49.8-12.4-7.8-2.7-15.6-5.7-23.5-8.1-18.6-5.6-37.2-11.4-54.9-19.7-3.1-1.4-5.8-3.3-8.3-5.4-1.4-1.2-2.3-2.6-1.3-4.3 1-1.9 2.7-1.3 4.4-.8 9.1 3.1 18.2 6.2 27.2 9.4 20.6 7.4 42 12.3 62.8 18.8 27 8.5 54.5 13 82.5 15.3 12.8 1.1 22 8.4 29.9 17 7.1 7.8 13.2 16.6 18.3 26 11.4 20.9 19.1 42.9 20.7 66.9 1.3 19.1-4 36.9-10.5 54.3-9.4 25.2-19.6 50-31.6 74.1-6.8 13.6-11.1 28.5-20.5 40.8-1.4 1.8-2.2 4.1-1.8 6.5 4.5 3.7 10.1 2.8 15.2 3.8 27.7 5 55.7 7.5 83.9 8.9 17.9.9 35.7-.4 53.5.3 11.6.4 23.3.4 34.8-1 23-2.6 45.9-6.4 68.8-9.5 12.8-1.7 25.4-4.9 37.6-8.8 12.2-3.9 23.6-10 35.5-15 5.7-2.4 8.8-6.2 9.7-12.6 1.8-11.9 1.8-23.8 2-35.8.3-18.2-4.5-35.5-11.7-51.9-6.6-15.1-18.4-26.6-31.7-36.3-4.1-3-8.8-4.3-13.8-5.3-5.4-1.1-9.2.4-13 4.7-10.3 11.6-21.3 22.7-33.7 32.1-11.1 8.4-22.8 16-36.3 20.3-4.1 1.3-7.5.4-9.5-3.1-1.8-3.1.8-5.7 3-7.7 8.2-7.4 15-16 21.9-24.4 12.4-15.1 25.6-29.6 32.5-48.4 6.6-18 13.3-36 14.6-55.2.8-11.1 1-22.3-4.2-32.8-2.6-5.3-4.3-11.1-6.6-16.6-.7-1.7-1.2-3.2.3-4.5 1.4-1.3 3-.8 4.7-.2 4.3 1.6 6.8 5.4 9 8.9 2.5 4 5.3 5.6 9.8 5.2 3-.3 6-.1 9-.4 27.3-2.7 54.4-7.6 81.1-13.7 37.4-8.5 74.4-19.1 109.7-34.4 12.8-5.5 25.6-11.1 37.4-18.6 19-12.1 37.7-24.7 56.7-36.9 24.7-15.8 47.4-34.2 69.3-53.5 20.3-18 38.9-37.9 58.1-57.2 7.1-7.1 14.2-14.1 20.5-21.8 22.9-27.6 45.6-55.3 62.4-87.3 2.4-4.6 5.8-8.7 6.1-14.9-27.1-.2-52.8-6.7-78.6-12.4-19.5-4.3-37.1-13.7-54.8-22.8-21.6-11-42.7-22.7-61.3-38.6-15-12.8-28.5-26.8-40.1-42.7-2.8-3.8-3.8-7.7-1.6-12.1.9-1.9 2-3.5 4.4-3.4 2.1 0 2.5 1.7 3.2 3.2 10 19.5 26.1 33.4 43.1 46.2 11.8 9 24.7 16.7 36.9 25.2 36.1 24.9 76.8 36.7 119.7 41.7 17.4 2.1 34.9 3.1 52.4 3.4 27.8.5 55.7 1.6 83.4-1.3 21-2.2 41.9-5.4 62.3-11.4 20.6-6.1 41.1-12.8 61.6-19.3 27.8-8.8 54.5-20.4 80-34.4 19.1-10.5 38-21.3 56.9-32.1 20.6-11.8 39.6-25.4 57.6-40.6 3-2.5 4-5.2 3.5-8.6-.3-2.3-1.1-4.5-1.5-6.8-1.3-6.8-.6-8.3 5.5-12.2 9-5.7 17.3-12.4 23.3-21.4 9.9-14.9 12.8-30.6 3.3-46.8-6.1-10.5-5.8-9.5-16.6-7.3-9.7 2-9.8 2.3-13.8-6.1-6.9-14.4-6.8-16.4-22.2-5.8-21.8 15.1-46.4 22.5-72.1 25.9-12.5 1.7-24.8-2.8-35.7-9.8-3.4-2.2-4.8-5.1-4.7-9.2.2-7.6 3.4-13.8 7.2-20.2 8.6-14.4 14.9-29.7 14.5-46.8-.4-18.7-12.1-28.7-31.8-26.9 0 4.2.1 8.4 0 12.7-.2 7.6 1.4 15.5-1.7 22.7-8.2 18.6-20.4 33.3-41.3 38.4-6.2 1.5-10.5 5.5-13.8 10.7-7 10.6-7.8 22.4-5.7 34.5.7 4-.6 5.6-3.9 6.6-20.5 6.4-41.6 11-63 11.9-33.1 1.5-66.3 1.3-99-5.9-13.2-2.9-26.4-6.1-39.4-9.7-18.7-5.2-35-15.7-51.6-25.4-6.6-3.8-12.9-8.4-18.3-13.7-22.3-22.2-40.6-47.2-52.1-76.9-1.5-3.8-2.4-7.5-2.1-11.6.1-1.4.8-2.5 2.3-2.8 1.5-.3 2.7.3 3.5 1.4.9 1.4 1.5 3 2.1 4.5 8.8 24.4 23.7 45.3 40.8 64.3 15.9 17.7 36 30.5 57.3 40.7 27 12.9 55.7 20.1 85.4 22 3.3-5.8 2.6-12.1 3.9-17.9 4.9-23.4 7.4-47.1 8.5-71 .9-18.9 0-37.8-1.1-56.7-1.9-33.1-4.8-66.1-12.2-98.5-3.6-15.6-10.6-30-14.7-45.3-.2-.6-.5-1.4-1-1.6-4.3-2.5-2.5-6.2-1.9-9.7 2.7-17.3 8-34.1 10.2-51.5 2-15.8 2.5-31.7 2.1-47.4-.2-7.9.1-14 5.8-19.7 6.9-7 9.9-16.1 8.6-25.5-2.8-20.5-13.2-36.5-31.4-46.8-2.7-1.5-5.1-2.9-6.5-5.7-2.5-5-5.2-10-7.4-15.2-9.4-21.7-21.9-41.6-34.4-61.5-4.8-7.6-11.3-13.9-17.1-20.7-17-19.7-34.8-37.9-58.7-49.8-23.2-11.6-46.5-22.3-72.1-27.2-8.9-1.7-18.1-2.8-26.6.1-5.7 2-9.8 1.2-13.6-2.1-13.5-11.8-28.3-21.9-43.5-31.4-24.8-15.5-49.7-30.5-77-41.4-17.2-6.8-33.7-15.2-50.9-22.1-24.9-10-51.1-15.9-76.7-23.9-11.6-3.7-23.3-7.9-35.3-9.3-17.4-1.9-34.1-7.6-51.6-8.8-12.2-.8-24.3-3.1-36.5-3.7-12.9-.6-26 .5-38.7-.9-18.9-2.1-37.8-1.3-56.8-1.7-18.6-.4-37 2.7-55.5 3.2-17.6.5-34.7 4.3-51.6 8.2-18 4.1-36.1 7.9-54 12.6-27.2 7.1-54.5 13.9-80.8 24.1-15.1 5.9-30.8 10.5-45.2 17.8-14.5 7.3-29.7 12.6-44.2 19.9-11.7 6-24 11.2-35.2 18-21.4 13.1-43.3 25.5-63.1 41.2-10.9 8.7-22.3 16.7-32.8 25.8-16.1 13.9-31.8 28.2-47.4 42.7-12.1 11.2-23 23.7-34.3 35.8-12.7 13.5-23.8 28.4-35.1 43.2-8.4 11.1-16.7 22.3-23.2 34.7-.8 1.5-1.3 3.1-2.4 4.3-14.2 17.3-23.1 37.9-34.9 56.7-12.2 19.5-20.4 41-28.1 62.4-13.1 36.6-26.1 73.4-35.2 111.4-1.4 5.8-2.6 11.6-3.7 17.5-3.3 17.5-7.3 34.9-8.5 52.8-1.1 15.8-2.1 31.7-4.1 47.5-2.1 16.6-2.6 33.2-1.4 49.7 1.3 17.5 2.5 35 3.2 52.5 1.1 29.4 8.2 57.8 13.3 86.4 4.1 23.3 9.8 46.5 18.2 69 7.8 21.1 14.3 42.6 23 63.4 7.9 18.9 15.5 38.2 26.9 55.3 9.6 14.3 17.5 29.7 26.5 44.3 9.7 15.6 21.3 29.5 31.9 44.3 7.3 10.2 16.4 18.9 24.1 28.8 12.9 16.5 26.1 32.8 41.3 47.2 30.7 29.2 63.9 55 100.3 76.8 7.4 4.4 15 8.5 22.4 13 10.4 6.3 18.3 15.4 25.7 25.4 12.1 16.2 23 32.5 31.6 51.1 13.2 28.4 13.7 57.8 10.8 87.4-2.3 24.3-7.7 48.3-17.7 70.9-5.8 13.1-12.2 25.6-20.6 37.3-5.4 7.5-10 15.9-13.4 26 15.3-1.1 29.4 1.6 43.7 1.2 16.8-.5 33.6-1.2 50.3-1.2 13.7 0 27.2-1.3 40.7-2.8 25-2.7 50-5 74.7-9.8 11.3-2.2 22.7-5.4 34.1-5.7 9.9-.3 14.2-4.5 17-13 4-12 8.7-23.6 12.7-35.6 5.6-16.6 8.7-33.5 7.6-51.4-1.1-18-10.9-32-17.2-48.1-8.1 6-15.3 11.8-22.9 17.1-12.5 8.8-25.8 16.2-39.9 22.2-3.4 1.4-6.2.8-8-1.7-2-2.7-.8-5.3 1.6-7.8 11.2-11.8 18.2-26 23.3-41.3 2.2-6.4 3.6-13.1 3.7-20.4-31.1-2.6-60.3-11.6-90-18.4-5.4-1.2-10.7-3.3-15.9-5.4-2.6-1.1-4.4-3.5-3-6.4 1.2-2.6 3.2-3.4 6.5-2.3 5.5 1.9 11.4 2.8 17.2 4.2 1.5 1.5 3.3 2 5.3 2.5 25.8 6.9 51.5 12.9 78 15.1zm.5 57.8c2.4 1.6 3.8.3 5-.5 11.1-7.4 19.3-18.1 28.7-27.3.9-.9 2-2.1 1-3.5-3.6-5.1-6-11.2-11.3-15-2.8-1.9-5.6-1.8-6.9 2.3-1.5 4.7-2.1 9.5-4.2 14.2-4.4 9.9-7.1 20.4-12.3 29.8z"/><path fill="#FFF" d="M497.7 1784c-5.7-1.3-11.6-2.2-17.2-4.2-3.3-1.2-5.3-.3-6.5 2.3-1.4 2.9.4 5.4 3 6.4 5.2 2.1 10.5 4.2 15.9 5.4 29.7 6.8 58.9 15.8 90 18.4-.1 7.3-1.6 14-3.7 20.4-5.1 15.2-12.1 29.5-23.3 41.3-2.4 2.6-3.5 5.1-1.6 7.8 1.8 2.5 4.6 3.1 8 1.7 14.1-6 27.4-13.4 39.9-22.2 7.5-5.3 14.8-11.1 22.9-17.1 6.3 16.1 16.1 30.2 17.2 48.1 1.1 17.9-2.1 34.8-7.6 51.4-4 12-8.8 23.6-12.7 35.6-2.8 8.5-7.1 12.7-17 13-11.4.3-22.8 3.6-34.1 5.7-24.7 4.7-49.7 7-74.7 9.8-13.5 1.5-27.1 2.8-40.7 2.8-16.8 0-33.6.8-50.3 1.2-14.3.4-28.4-2.3-43.7-1.2 3.4-10 8-18.5 13.4-26 8.4-11.7 14.8-24.3 20.6-37.3 10-22.6 15.4-46.6 17.7-70.9 2.8-29.6 2.4-59-10.8-87.4-8.6-18.5-19.6-34.9-31.6-51.1-7.4-10-15.3-19-25.7-25.4-7.3-4.5-15-8.5-22.4-13-36.3-21.8-69.6-47.6-100.3-76.8-15.2-14.5-28.4-30.7-41.3-47.2-7.7-9.9-16.8-18.6-24.1-28.8-10.5-14.8-22.2-28.7-31.9-44.3-9.1-14.6-17-30-26.5-44.3-11.4-17.1-19-36.3-26.9-55.3-8.7-20.8-15.2-42.3-23-63.4-8.3-22.5-14.1-45.7-18.2-69-5.1-28.6-12.2-57-13.3-86.4-.7-17.5-1.9-35-3.2-52.5-1.2-16.4-.7-33.1 1.4-49.7 2-15.8 3-31.6 4.1-47.5 1.3-17.9 5.2-35.3 8.5-52.8 1.1-5.8 2.3-11.7 3.7-17.5 9-38 22-74.7 35.2-111.4 7.7-21.5 15.9-43 28.1-62.4 11.8-18.8 20.7-39.4 34.9-56.7 1-1.2 1.6-2.9 2.4-4.3 6.5-12.4 14.8-23.7 23.2-34.7 11.2-14.8 22.4-29.7 35.1-43.2 11.3-12 22.2-24.5 34.3-35.8 15.6-14.5 31.3-28.8 47.4-42.7 10.5-9.1 21.9-17.1 32.8-25.8 19.7-15.7 41.7-28.1 63.1-41.2 11.2-6.9 23.5-12.1 35.2-18 14.5-7.3 29.7-12.6 44.2-19.9 14.4-7.3 30.1-11.9 45.2-17.8 26.3-10.2 53.5-16.9 80.8-24.1 17.9-4.7 36-8.4 54-12.6 16.9-3.9 34-7.7 51.6-8.2 18.5-.5 36.9-3.7 55.5-3.2 18.9.5 37.8-.4 56.8 1.7 12.7 1.4 25.8.3 38.7.9 12.3.6 24.3 2.9 36.5 3.7 17.5 1.2 34.2 6.8 51.6 8.8 12 1.3 23.7 5.6 35.3 9.3 25.5 8 51.8 14 76.7 23.9 17.2 6.9 33.7 15.2 50.9 22.1 27.3 10.9 52.2 25.9 77 41.4 15.2 9.5 30 19.5 43.5 31.4 3.8 3.4 7.9 4.1 13.6 2.1 8.5-2.9 17.8-1.8 26.6-.1 25.6 5 48.9 15.6 72.1 27.2 23.9 12 41.8 30.1 58.7 49.8 5.9 6.8 12.4 13.1 17.1 20.7 12.4 20 25 39.9 34.4 61.5 2.2 5.2 4.9 10.2 7.4 15.2 1.4 2.8 3.8 4.1 6.5 5.7 18.2 10.3 28.6 26.3 31.4 46.8 1.3 9.4-1.7 18.6-8.6 25.5-5.7 5.7-6 11.8-5.8 19.7.4 15.8-.1 31.6-2.1 47.4-2.2 17.4-7.5 34.2-10.2 51.5-.6 3.5-2.4 7.2 1.9 9.7.5.3.9 1 1 1.6 4.1 15.4 11.1 29.8 14.7 45.3 7.4 32.4 10.3 65.4 12.2 98.5 1.1 18.9 2 37.8 1.1 56.7-1.1 23.8-3.6 47.6-8.5 71-1.2 5.8-.5 12-3.9 17.9-29.7-1.9-58.4-9.2-85.4-22-21.3-10.2-41.5-23-57.3-40.7-17.1-19-31.9-39.9-40.8-64.3-.6-1.6-1.2-3.1-2.1-4.5-.7-1.1-2-1.7-3.5-1.4-1.5.3-2.2 1.4-2.3 2.8-.3 4 .6 7.8 2.1 11.6 11.5 29.6 29.8 54.6 52.1 76.9 5.4 5.3 11.7 9.9 18.3 13.7 16.6 9.6 32.9 20.1 51.6 25.4 13 3.6 26.2 6.8 39.4 9.7 32.7 7.3 65.9 7.4 99 5.9 21.4-1 42.4-5.6 63-11.9 3.3-1 4.6-2.6 3.9-6.6-2.1-12-1.3-23.8 5.7-34.5 3.4-5.2 7.7-9.1 13.8-10.7 20.9-5.2 33.1-19.8 41.3-38.4 3.2-7.1 1.5-15.1 1.7-22.7.1-4.3 0-8.5 0-12.7 19.7-1.9 31.3 8.1 31.8 26.9.4 17.2-5.9 32.5-14.5 46.8-3.8 6.4-7 12.6-7.2 20.2-.1 4.2 1.3 7.1 4.7 9.2 10.9 7 23.1 11.4 35.7 9.8 25.7-3.4 50.2-10.8 72.1-25.9 15.4-10.6 15.3-8.6 22.2 5.8 4 8.4 4.1 8.1 13.8 6.1 10.8-2.2 10.4-3.2 16.6 7.3 9.5 16.2 6.5 31.9-3.3 46.8-6 9-14.3 15.6-23.3 21.4-6.1 3.9-6.8 5.4-5.5 12.2.4 2.3 1.2 4.5 1.5 6.8.5 3.5-.5 6.1-3.5 8.6-18 15.2-37 28.8-57.6 40.6-18.9 10.8-37.8 21.6-56.9 32.1-25.5 14-52.3 25.5-80 34.4-20.5 6.5-40.9 13.2-61.6 19.3-20.4 6-41.3 9.2-62.3 11.4-27.7 3-55.6 1.8-83.4 1.3-17.5-.3-35-1.4-52.4-3.4-42.9-5.1-83.6-16.8-119.7-41.7-12.2-8.5-25.1-16.2-36.9-25.2-17-12.9-33.1-26.8-43.1-46.2-.8-1.5-1.1-3.2-3.2-3.2-2.4 0-3.5 1.6-4.4 3.4-2.2 4.4-1.2 8.2 1.6 12.1 11.5 16 25.1 29.9 40.1 42.7 18.6 15.9 39.6 27.5 61.3 38.6 17.7 9 35.3 18.5 54.8 22.8 25.8 5.7 51.5 12.2 78.6 12.4-.3 6.1-3.7 10.3-6.1 14.9-16.8 31.9-39.5 59.7-62.4 87.3-6.4 7.7-13.5 14.7-20.5 21.8-19.2 19.2-37.8 39.2-58.1 57.2-21.8 19.3-44.6 37.7-69.3 53.5-19 12.2-37.7 24.8-56.7 36.9-11.8 7.5-24.6 13.1-37.4 18.6-35.3 15.3-72.2 26-109.7 34.4-26.7 6-53.7 11-81.1 13.7-3 .3-6 .1-9 .4-4.5.4-7.3-1.2-9.8-5.2-2.2-3.5-4.6-7.3-9-8.9-1.6-.6-3.2-1-4.7.2-1.5 1.3-1 2.8-.3 4.5 2.3 5.5 4 11.3 6.6 16.6 5.2 10.5 5 21.7 4.2 32.8-1.3 19.3-8 37.3-14.6 55.2-6.9 18.8-20.1 33.3-32.5 48.4-6.9 8.5-13.7 17-21.9 24.4-2.2 2-4.8 4.6-3 7.7 2 3.4 5.5 4.4 9.5 3.1 13.5-4.3 25.2-11.9 36.3-20.3 12.4-9.4 23.4-20.5 33.7-32.1 3.8-4.3 7.6-5.8 13-4.7 4.9 1 9.7 2.3 13.8 5.3 13.4 9.7 25.1 21.2 31.7 36.3 7.2 16.4 12 33.6 11.7 51.9-.2 12-.2 23.9-2 35.8-.9 6.3-4 10.2-9.7 12.6-11.8 5-23.3 11-35.5 15-12.2 3.9-24.8 7.1-37.6 8.8-23 3.1-45.8 6.8-68.8 9.5-11.5 1.3-23.2 1.4-34.8 1-17.8-.6-35.6.7-53.5-.3-28.2-1.5-56.2-3.9-83.9-8.9-5.1-.9-10.7 0-15.2-3.8-.4-2.4.4-4.7 1.8-6.5 9.4-12.3 13.7-27.2 20.5-40.8 12-24.1 22.2-48.9 31.6-74.1 6.5-17.4 11.8-35.2 10.5-54.3-1.6-24-9.3-46-20.7-66.9-5.1-9.4-11.2-18.2-18.3-26-7.9-8.7-17.1-15.9-29.9-17-28-2.4-55.5-6.8-82.5-15.3-20.8-6.6-42.2-11.5-62.8-18.8-9-3.2-18.1-6.3-27.2-9.4-1.6-.6-3.3-1.1-4.4.8-.9 1.7 0 3.2 1.3 4.3 2.5 2.2 5.2 4 8.3 5.4 17.7 8.3 36.3 14.1 54.9 19.7 7.9 2.4 15.6 5.4 23.5 8.1-.1 1-.1 2.2-.1 3.3zm802.5-831.8c8.5-.4 17-5.3 24.4-11.2 26.7-21.5 45.5-48.9 56.6-81.3 1.8-5.2 3.9-7 8.6-7.5 3.3-.3 6.5-1.2 9.8-1.3 5.3-.1 8.9-4.1 13.6-5.6 1.1-.4 2.2-1.7 1.8-3.2-.4-1.4-1.6-2-3.1-2-1 0-2.1-.2-3 .2-12.8 5.7-26.6 4.4-40 5.8-30.4 3.1-59.2-2.1-85.9-17.8-16.1-9.5-28.4-22.6-38.4-38.1-1.4-2.2-1.9-5.4-5.1-5-3.3.5-2.9 4.2-3.5 6.5-2.6 9.9-2.9 20.2-4.4 30.3-.5 3.6-2.1 7.3-1.6 10.7 2.4 15 .7 30.4 5.6 45.2 6 17.9 11.7 36 22.9 51.5 9.8 13.4 23 21.7 41.7 22.8zM1418.7 760c-.6-8.2-.6-15.9-1.9-23.3-.9-5.4-1-11-4.4-16.1-4.8-7.1-11.1-7.9-16.3-1.1-3.8 4.9-4.2 11.1-5.2 16.9-2.4 14.3-1.9 28.3 6.1 41.2 2.6 4.2 5.1 7.7 10.9 6.5 6.1-1.3 8.1-3.7 9.7-10.8 1-4.7-.4-9.5 1.1-13.3zM388.9 1136.3c-.1-1.1-.7-1.9-1.9-1.7-.4.1-1 .8-1 1.3 0 1.1.5 2 1.8 1.6.4 0 .7-.7 1.1-1.2z"/><path fill="#D8E8E9" d="M2139.9 626.4c3.5 2.9 7.7 1.6 11.6 1.8 1.5 0 2.9.1 4.4.1 3.1-.9 6.1-1.7 11.1-3.1-12.4-7.9-24.5-10.5-38.1-11.5 2.7-5.3 6.1-8.3 10.1-11.2 18.8-14 40-23.5 61.2-33 15.7-7 31.2-14.5 47.4-20.1 28.4-9.9 57.1-19.2 87.1-23.2 4.2-.6 8.4-1.2 13.2-3.2-4.3-5.9-9.8-7-15.7-6.3-15.8 1.7-31.4 4-46.6 8.8-30.3 9.7-60.5 19.5-89.2 33.1-27.5 13-56.1 24.2-79.9 44.1-3 2.5-6.7 4.4-9.5 7.1-3.4 3.3-7.2 4.3-11.8 4.2-28.7-1.1-56.1 6.1-82.3 16.5-30.9 12.2-59.3 29.1-85.4 50.2-25.2 20.4-43 46-57.1 74.3-4.3 8.7-9.4 15.4-16.6 21.5-6 5.1-10.9 11.6-16.2 17.5-26.7 29.8-49.6 62.2-71.1 95.9-19.1 29.8-32.9 62-47.3 94.1-13.8 30.7-20.6 63.4-29.4 95.6-1.2 4.6-2.4 5.7-7.1 4.7-9.5-2-18.8-2.2-27.5 3.9-4.2 2.9-6.2 6.4-5 10.9 5.1 18.1-5.7 29.8-16.8 40.9-7.2 7.2-15.2 13.8-26.5 14.3-3.7.1-6.7 2.7-8.8 5.9-8.3 13-15.3 26.4-15.9 42.3-.1 3.9-1.1 5.8-5.2 6.9-19.7 4.8-39.4 8.8-59.7 9.6-11.2.4-22.4 1.5-33.6 1.9-8.4.3-9.1-.3-6.8-8.2 3.5-12 2.7-24.4 4.8-36.4 2.1-11.9 2.8-23.7 2.6-35.7-.1-5.1 2-8.7 7.3-10.5 14.4-4.9 28.6-10.4 42.2-17.2 22.8-11.4 42.4-27.1 61.9-43.1 10.6-8.6 19.8-18.6 30.1-27.5 6.9-6 10.8-14.3 16.5-21.2 2-2.4 1.5-4.9-.7-7.1.1-3.8 2.8-7.1 2.2-11.1 16-16.5 27.4-35.7 32.6-58.2 3.5-15.4-.4-29.6-8.2-42.9-2.6-4.5-6-5.3-10.8-3.3-5.9 2.5-10.5 6.9-15.9 10.2-2.5 1.6-5.1 3.1-7.7 4.7-3 1.9-5.3 1.9-7.6-1.3-2.4-3.2-5.5-5.8-8.2-8.8-2.8-3.1-5.3-2.8-8.5-.1-10.9 9.2-22.8 17.1-35.1 24.2-10.1 5.8-20.9 9.7-33.3 11.6 1.3-6.7 2.6-12.6 3.7-18.7 2.3-13.5.4-26.6-5.4-38.8-8.7-18.4-35-25.1-52.9-6.7-3.8 3.9-4 8.7-2.4 14 3 9.8 6 19.6 6 30 0 12.6-1.6 14.6-13.6 18.4-4.3 1.4-9.1 1.8-12.2 5-.9-.5-1.4-.6-1.4-.9-2.7-7.1-9.6-13.2-8.7-20.8.9-7.3 4-14.6 5.8-22 5.7-23 8.8-46.2 7.6-69.9-.3-7-.3-13.3 4.9-19.5 5.2-6 6.8-14.3 7.3-22.3 1.6-23.7-5.7-43.9-24.1-59.4-4-3.4-7.2-7.9-12.4-10-2.7-1.1-3.1-4.1-4.1-6.6-7-17.3-15.7-33.8-25.3-49.7-9.6-15.9-21.6-30.3-33.5-44.5-2.1-2.5-3.4-4.6-3-7.9 1.5-16-.4-31.8-1.1-47.7-1-22.9 0-45.8-.4-68.7-.3-13.6 1-27.3-1.4-40.7-.8-4.5 1-8.5 1-12.8.1-17.9.3-35.8.7-53.6.4-20 1.2-39.9 1.6-59.8.1-5.3-.2-10.6-.6-15.9-.7-11.1-.6-22.1-.3-33.2.6-17.9.6-35.8.6-53.8.1-15.6.8-31.3-.5-46.8-1.2-14.2.8-28.2.2-42.2-.2-4.6 1.5-5.9 6.1-6.8 14.3-2.9 28.8-3.8 43.2-6 18-2.7 36.1-3.5 54-7.1 8.4-1.7 17.1-1.6 25.7-2.7 22.4-2.8 44.9-3.7 67.2-6.6 16.5-2.1 33.1-.5 49.5-3.2 9.1-1.5 18.4-2 27.4-4.5 10.7-2.9 21.8-1.6 32.5-3.6 23.2-4.2 46.7-4.9 70.1-7.6 10.8-1.2 21.8-2.2 32.7-2.7 19.9-.9 39.5-4 59.3-6.1 27-2.8 53.8-6.6 80.8-9.3 19.4-2 38.9-3.4 58.2-6.6 22.8-3.7 45.7-6.5 68.7-8.7 28.7-2.8 57.1-8 85.9-9.8 8.2-.5 16.4-2.2 24.6-3.1 22.3-2.5 44.7-4.8 69.2-7.4-5.9 6.4-7.4 13.5-14.6 15.8-.3.1-.6.3-.8.6-5.9 5.7-10 13.6-16.1 18.5-6.2 4.9-12.8 9.2-17.3 15.8-2.9 4.2-8 5.5-11 9.6-8.9 11.8-22.6 19-29.7 32.5-9.2 3.9-12.1 13.4-17.8 20.4-2.5 3-4.6 5.9-9 7.3-3.5 1.1-6.1 4.9-7.8 8.7-2.2 5.1-6 8.3-11.1 10.5-4.3 1.8-8.2 5-9.3 9.8-.9 4.1-4 7-6.8 8.1-6.5 2.6-9.4 7.9-13 13-3.1 4.3-6.3 8.6-12.4 8.7-1.2 0-2.9.7-3.6 1.7-5.5 8-15.3 8-22.8 12.2-3.7 2.1-8.1 3.5-8.2 9 0 .6-.4 1.5-.9 1.7-8.4 3.7-8.5 12.7-12.5 19.3-2.3-.1-4.7 0-6.3-2.2-1.1-1.5-2.8-2-4.4-1-1.5 1-1.7 2.9-1.2 4.5.9 2.9.7 5.7.4 8.7-.6 7.6-.8 7.7-8.2 8.2-4 .3-7.8-4-11.3-.9-3.3 2.9 1.5 7.8-1.4 11.3-12.9 3.2-21.5 11.2-26.3 23.6-1.4 3.6-3.1 7.1-4.2 10.9-2.1 7.3-12.9 7.2-14.5 15.6-.1.6-2.3.8-3.5 1.2-2.4-3.7-6.3-5-9.9-6.9-2 3-1.1 5.7-1.4 8.3-2.1 16.6 0 14.2-16 14.7-.3-2.1-.9-4.1-3.6-3.5-2 .4-2.8 2.4-2.1 3.8 1.7 4.1-.3 8.4 1.1 12.4.9 2.6.5 4.7-2.5 5.3-3.3.7-5.2 4.3-8.9 4-.2-1.2.1-2.8-1.7-2.5-.6.1-1.6 1.3-1.6 2 0 2.1 1.7 2.2 3.4 2.4 1.6 2.3 3.6 4 4.4 7.2 1.5 6 4.9 11.2 11.6 12.9.2 5.7 6.1 3.8 8.9 6.4 5.4 4.9 6.1 4.4 2.9 10.7-1.8 3.6-3 6.9.7 9.7 3.7 2.8 11.2 2.9 12.8-.6 2.5-5.3 5.5-2.4 7.9-1.3 3.7 1.6 2.7 6.5 5.2 9.2 2.8 3 8.2-3.1 10 3.1-4.3 6.7-8.6 13.4-12.6 20.3-5.8 10.1-12.4 19.6-21.7 27-5.4 4.4-10.4 9.3-15.5 14-1.1 1.1-2.2 2.3-1.3 4.3 1.2 2.7 3.5 2.1 5.1 1.3 5.5-3 10.9-6.1 15.6-10.5 10.9-10.4 19.4-22.4 27.2-35.3 6.3-10.5 15.7-18.8 26.5-25.4 7.9-4.8 14.7-11.4 22.5-16.2 7.2-4.5 12.7-10.4 18.5-16.3 8-8.1 10.5-20.2 20.4-26.9 4.3-2.9 8.2-6.7 10.4-11.8.6-1.4 2.1-2.8 3.5-3.3 15.3-5.4 26.6-17 39-26.4 14-10.5 24.5-24.8 32.6-40.6 1.6-3 2.2-6.8 6-8.6 10.9-5.3 20.2-13.3 30.9-18.9 11.4-6 22.4-12.9 31.6-22.3 15.1-15.6 27-33.5 38.8-51.6 4.3-.2 7.7.8 8 6 .1 2.8 1.4 4.8 4 6-1 2.1-5 2.9-3.5 6 1.5 3.2 3.7.4 5.6-.1 4.4-2 11.2-.3 11.9-7.9 2.7 1.9 2.2 4.7 1.7 7.2-.8 3.8-6-1.5-6.9 3.7 5.3 3.2 15.3 2.5 13.1 13.2-5.7 4.3-6.6 8.1-3.5 12.8 3.4 5.2 7 .8 10.6.4.9-.1 1.6-1.1 2.4-1.7 6.1-5 7.7-5.1 10.6 1.2 2.5 5.4 5.6 7 11.4 6.3 2.3-.2 4.3-.2 6.3-1.5 4.6-2.9 9.7-3.8 15.1-2.2 1.8-6 3.2-11.7 7.8-16.5.7 1.6 1.2 2.4 1.3 3.2.3 2.9 2 4.1 4.7 3.8 2.5-.2 5.3-1.6 4.8-4-.9-5 3.3-8.4 3.2-13 1.2.3 2.8 1.5 3.7.3 8.3-11.5 21.7-17.2 31.5-27.1 8.6-4 17.6-7.3 21.4-17.6 1-2.7 5.3-3.7 7.3-7s4.7-6.2 5.9-10c.6-1.9 1.3-3.8 3-5.1 7.7-5.7 13.9-12.9 19.4-20.7 5.3-7.5 14.6-10 20.6-16.7 1-1.1 4.4-2.2 6.6-.7 2.5 1.6.8 4.1.8 6.3-.3 16.8-.4 33.7-.5 50.5-.1 26.6 0 53.1-.1 79.7 0 15.6.1 31.2 0 46.8-.2 21.6-3.1 43.1-2 64.8.7 13.6-.6 27-1.8 40.5-.8 9.1.2 18.4.2 27.6 0 12.9-1.5 25.9-.1 38.6 3 26.6.1 53.1.9 79.6.4 14.9-2.4 29.7-1.7 44.7.9 19.5-1.1 39.2.3 58.7 1.6 22.6 3.1 45.3 1.9 67.8-1.5 26.1 1.4 52.1-.3 78.1-2.4 37.2-1.3 74.5-1.5 111.7-.1 22.7.6 45.5 0 68.2-.9 32.3-.3 64.6-.5 97-.1 21.1.1 42.3.1 63.4 0 30.3-.1 60.6-.1 90.8 0 8.3.1 16.6.1 24.9 0 4.9-.6 9.4-6.9 10.1-2.2.2-3.2 2.2-4.7 3.5-6.7 5.6-11.9 12.9-19.5 17.8-4.5 2.9-8.2 7.3-8.9 13.5-.3 2.4-1.7 4.5-5.1 6.2-6.1 3-10.8 8.7-13.7 15.1-1.1 2.5-1.6 4.9-5.2 5.1-1.4.1-2.7 1.6-3.9 2.7-8.4 7.7-16 16.3-23.6 24.6-8.8 9.8-19.3 18-26.7 29.1-3.6 5.4-10.1 8.2-13.7 13.8-6.6 8.8-16.7 14.1-22.6 23.6-2.3 3.6-5.7 6.3-9.4 8.9-5.7 4-11.4 8.7-13.4 16.1-4.4 1.6-7.7 4.5-10.6 8.2-2.4 3-3 6.3-4.5 9.5-4.4 9.4-13.4 15.4-18.8 24.1-.7 1.1-3 2-4.4 1.9-7.1-.4-13.7 2.3-20.1 4.5-13.3 4.6-23.9 12.4-26 28.1-.9 6.8-1.6 13.8-4.2 20.3-2.3-1.2-5.3 1.7-7.3-1.1-1-1.3-1.4-3.3-3.5-2.4-2 .8-3.1 2.9-2.6 4.9 1.2 4.3.7 8.4 0 12.6-6.3 5.7-11.7 13.2-21.9 11.9-1.4-.2-3 1.2-4.5 1.9-23.7 10-35.9 28.7-40.4 53.2-3.8 3.2-5.4-2.3-8.7-2.8-1 7.4-1.3 14.1 1.7 20.6-4.3 7-12.2 9-19 11.2-7.1 2.3-11.9 6.6-16.7 11.4-9.3 9.3-18 19.3-27.6 28.4-4.9 4.7-11.1 8.5-13.4 15.5-7.3 4-13.2 9.8-17.9 16.6-2.1 3-3.9 3.9-7.9 3.4-14.1-1.8-28.4-2.6-42.4-4.2-16.4-1.9-32.9-2.8-49.3-4.6-15.4-1.8-31-3-46.5-4.6-21.8-2.2-43.5-4.4-65.2-7.4-17-2.4-34.2-4-51.3-5.6-23.6-2.2-47.4-3.8-70.8-8.6-9.7-2-19.8-2.4-29.7-2.9-17.2-.9-34.2-3.6-51.3-5.4-15.8-1.6-31.7-2.5-47.5-4.1-20.1-2.1-40.1-5-60.2-6.8-21.4-1.9-42.7-5.1-64.3-6-9.8-.4-19.7-1.3-29.5-2.9-5.3-.8-6.5-3.5-6.8-7.8-.4-5.9-1.1-11.9-.6-17.7 1.4-17.5.5-35-.7-52.2-1.5-21.6 1.2-42.9.6-64.3l-.3-16.9c0-6.4 1.9-11.7 4.9-17 4.2-7.5 10.6-13.7 13.2-22.2 1.1-3.4 4.3-2.8 6.8-2.6 10.3 1.1 20.6.2 30.9-.1 30.8-.6 61.3-3.5 91.7-9.3 39.9-7.6 77.9-20.9 115.2-36.6 21.7-9.1 43.4-18.3 63.8-30.2 4.7-2.8 5.8-2.2 7 2.5 5.9 24.6 14.6 48.1 25.9 70.6 8 16 16.1 32 25.5 47.2 18.4 29.6 39.8 57 63.5 82.7 18 19.6 36.9 38.2 57.2 55.5 3.2 2.8 8.4 7.5 10.6 5.2 3.9-4.2-2.3-8.3-4.9-11.1-7.6-8.3-16.2-15.7-24.5-23.3-16.4-15-33.1-29.9-46.8-47.5-9-11.7-17.3-24-25.8-36.1-10-14-19.8-28.3-28.4-43.2-14.1-24.5-24.7-50.5-33.6-77.3-2.8-8.5-5.3-17-7.5-25.7-1.9-7.3-1.6-8.1 5.4-11.7 22.7-11.9 42.9-27.6 64.4-41.3 10.1-6.5 17.6-16.1 27.5-23 1.9-1.3 3.3-3.7.9-5.9-4.6-4.1-1.7-9.4-2.4-14.1-.3-2.2 1.1-3.7 2.9-4.8 2-1.2 3.8-2.7 5.9-3.8 23.7-11.5 32.9-46.3 21.2-70.2-2.2-4.5-4.1-9.1-6.6-13.3-4.2-7.1-8.4-8.1-15.7-4.3-6.6 3.4-6.5 3.4-10.6-2.3-3.1-4.3-5.8-8.9-10-12.4-6.5-5.6-11.5-5.7-18.5-.8-10.6 7.3-21.3 14.5-33.2 19.8-18.5 8.2-37.3 11.2-57.2 7.2-8.9-1.8-11.5-6.5-7.2-14.8 3.6-7.1 7.3-14.1 9.7-21.8 3.9-12.5 5.3-25 3.6-38.2-1.1-8.2-.5-16.6-5.5-23.8-1.6-2.3.1-4.5.5-6.7 3.8-21.5 9.1-42.6 17-63 3.4-8.9 5.9-18.2 8.9-27.3 7.6-23.1 18.6-44.6 30.2-65.9 15.8-28.9 31.9-57.5 51.8-83.8 18.2-24 37.8-47 59.8-67.6 4.2-3.9 7.2-8.3 8.9-14 1.9-6.7 5.8-12.7 10-18.2 14.5-19.4 28.7-39.1 47-55.3 6.2-5.5 12.7-10.9 19.5-15.4 20.1-13.4 40.6-26.2 63.5-34.8 11.7-4.4 23.2-9.9 35.5-12.3 10-2 20-4.5 30.3-4.8 10-.3 19.9-1.2 29.8-2.1 4.1-.4 8-.4 11.8 1.1l-.1-.1c4.3 2.7 11 3.8 18.5 1.7zm-242.2-210c6.2-1.3 4.6-6.5 3.4-9.5-2.1-5.1-7.6-4.6-13.7-6.3 3 6.2 1.6 11.3 2.9 16 .7 2.5 2.4 5.2 5.5 4.7 2.5-.3 1.7-3.1 1.9-4.9zm38.3 482.2c0 2.7-.3 5.4.1 8 1 7.2.8 15 5.7 20.8 5.5 6.6 11.7 12.6 18.1 18.4 3.5 3.2 8.3 4.2 13 2.3 1.5-.6 3-1.6 2.8-3.6-.1-1.7-1.6-2-2.9-2.2-3.7-.7-6.9-2.1-9.5-4.9-11.4-12.1-15.8-26.8-15-42.8.8-16 8.3-29.8 17.1-42.7 1.3-2 5.4-2.9 2.7-6-2.4-2.7-5.5-1.2-8.1.5-1.1.7-2.1 1.6-2.9 2.6-12.7 14-21.5 29.9-21.1 49.6zm86.5 97.7c-9 .6-18.5 1.4-27.8 4.1-5 1.4-9.1 3.8-11.4 8.8-.7 1.6-1.8 3.2-.5 4.5 1.5 1.5 3.4 1.2 5.4-.1 5.6-3.6 11.6-6.6 18.3-7.3 17.6-1.9 34.3 1.8 50.2 9 12.1 5.4 21.5 14.3 30 24.3 1.6 1.9 4.2 4.3 6.7 1.1 1.8-2.3 3.5-5-.1-7.7-2.1-1.6-4.1-3.5-5.7-5.6-12.7-16.4-31.1-23.3-49.9-28.7-4.6-1.3-9.6-3.2-15.2-2.4zm35.7-157c.7-7.8-1.7-16.4-8.1-24-2.7-3.2-5.1-2.6-7.5-.4-3 2.7-5.5 6-6.6 9.8-3.3 11.5-5.4 23.2-3.1 35.2.7 3.6 1.6 7.2 3 10.5 1.5 3.4 3.9 6.7 8.1 6.5 4-.2 6.3-3.1 7.8-6.8 3.9-9.1 6.5-18.7 6.4-30.8zm15.7-66.4c.3 1.2.9 2.7 1.1 4.3 2.1 11.6 7.7 21.9 13.2 32 6 11.2 16.1 18 28.5 21.2 1.5.4 3.4.7 4.2-1.3.6-1.5-.5-2.5-1.4-3.5-1.2-1.2-2.3-2.5-3.8-3.2-8-4-13.7-10.6-18.1-18-9-15.1-18.2-30.4-12.1-49.3.6-1.8 1.1-4.1-1.6-4.9-2.7-.8-4.3.6-5.6 2.9-3.2 6.1-2.6 12.9-4.4 19.8zm-172.5 72.3c-.5 6.8.6 13.3 2.6 19.6.9 2.9 2.8 5.3 6.1 5.9 3.6.6 5.4-1.7 7.1-4.3 1.8-2.8 3.7-5.4 4.4-8.8 2.6-12.5 2.7-24.9-.3-37.3-.9-3.9-3.1-7.3-6.4-9.8-3.3-2.6-5.7-1.6-6.7 2.1-3 10.7-7.5 21.2-6.8 32.6zm-32.7-25.1c5.7.2 10.3-2.2 14.7-4 14.7-6.2 23.1-17.9 26.5-33.3.5-2.2.1-4.6-.3-6.9-.2-1.3-1.5-2.4-2.8-2.5-1.4-.1-2.5.8-2.7 2.3-.5 5.9-5.1 9.4-8.5 13.1-9 9.8-17.5 21-32.6 22.1-1.7.1-3.1 1.3-3.5 3-.4 1.9.7 3.2 2.2 4 2.4 1.3 4.8 2.3 7 2.2zm206.7 81.9c-3.7 1.6-7.1 3.4-10.8 4.7-11.6 4.2-19.7 1.6-26.7-8.3-1.3-1.9-2.3-4.1-3.7-5.8-2.1-2.5-4.8-1.9-6.2 1.1-.9 2-.8 3.9.1 5.8 2.5 5.4 4.9 10.9 9.3 15.1 4.8 4.6 10.9 6.8 17.4 5.2 6.1-1.5 11.9-3.7 17.3-7.3 4.1-2.9 4.8-5.8 3.3-10.5zM1884 922.1c1.5-.4 2.4-.7 3.3-1 11.7-3.7 19.9-11.2 25.1-22.2.1-.3.4-.6.4-.9.3-1.3.8-2.8-.9-3.4-1.2-.4-2.6-.5-3.8-.3-1.9.3-2.3 2.2-3 3.6-3.8 7.1-11.1 10.3-17.1 14.8-2.1 1.6-4.4 1.5-6.5 0-2.9-2-6.3-2.4-7.6.9-1.4 3.5 2.6 4.8 5.1 6.2 1.6 1.1 3.6 1.7 5 2.3zm42.1 740c-.7.4-1.9.9-2.9 1.7-1.6 1.4-.6 3 .2 4.4 2.3 3.9 6.1 5.9 9.7 8.1 5 3.1 9.9 6.6 15.3 9 3.4 1.6 6.2 7.2 11 3.2 1.7-1.5-2.2-8.2-7.2-10.2-7.9-3-13.9-8.5-20.3-13.6-1.7-1.2-3.1-2.5-5.8-2.6zm478.3-1143.7c5-.3 9.9-.5 14.9-1 1.1-.1 2.5-1.1 2.5-2.6s-.8-2.4-2.3-2.8c-1.3-.3-2.5-1.1-3.8-1.2-9.3-.5-18.5-.4-27.7 1.3-.8.2-2.1.9-2.2 1.5-.3 1.3.3 2.6 1.8 3 5.5 1.5 11.1 2 16.8 1.8zm-162.9-287.1c-1.3-7-2.7-11.8-.9-16.5.8-2.3.4-3.9-2.2-4.2-2.1-.2-4.1.4-4.3 2.9-.6 6.1-.9 12.3 7.4 17.8z"/><path fill="#D7E8E9" d="M2447.9 1390.6c-.2 23.3-.1 46.6-.6 69.9-.3 17.2 1.5 34.5-.9 51.7-1.1 8.1-.2 16.3.5 24.6.9 11.5-.1 23.1.5 34.6.7 14.6-1.2 29-1.4 43.6-.3 19.3 1.6 38.5 1.6 57.7 0 29 .1 57.9.3 86.9 0 3.9-1.6 5.2-5.4 5-26-1.9-52.1-3.5-78-7.5-13.3-2.1-26.9-2.8-40.2-4.6-26.9-3.7-53.8-7-80.8-9.9-27.6-3-55.2-5.7-82.7-9.9-6.9-1.1-13.8-1.8-20.6-3.3-3.8-.9-7.1-.3-10.6.5 0-2.7-2.7-5.2.6-8.1 2.3-2 3.8-5.5 4.8-8.5 1.6-5 3.1-8 8.7-3.3 1.8 1.5 7 .3 5.3-2.6-2.7-4.6 1.9-5 2.5-7.5.9-3.5 1.7-7.1 3.2-10.4 1.1-2.3 3.4-3.8 4.9-.1 2 4.9 5 1.6 7.4 1 3.1-.8 3.2-2.9 1.3-5.3-.6-.7-1.4-1.9 0-2.3 4.5-1.2 3.2-5.4 4.3-8.2 2.4-6.3 2.2-6.3 9.6-4.3 2.2.6 4.9 1 6.6-1 1.6-1.9-.3-3.4-1.2-5.2-1.3-2.6 1.4-3.1 3.1-3.8 4.9.3 8.9-1.8 12.7-4.7 7.9-6.1 14.9-13.1 21.5-20.6 5.6-6.2 9.8-13.4 9-22.4.3 0 .7 0 1-.1 8.1-2.2 8-2.3 10-10.1.2-.9 2.3-1.3 2.7-2.3 1.6-3.6 2.8-7.4 4.3-11 .7-1.7 1.2-4.6 3.9-2.6 1.8 1.4-1.2 2.6-1.2 4.1 0 .3.2.6.4.9 14.1-1.1 12.7-2.6 12.8-14 0-1.7 0-3.3-.1-5 7-1.4 9.9-8.5 15.8-11.7 2.7-1.5 6.7-2 8.4-5.6 4.1-8.7 11.1-15 17.8-21.6 2.9-2.9 5.6-6.4 6-10.9 5.9-4.1 8.2-12 15.8-14.3 1.4-.4 1.9-2.3 2.4-4.1 1.5-5.3 9.4-12.2 15.5-14.2 4 4.9 6.8-.9 10.3-1.3 3.1-.3 5-2 2.9-5.4-.8-1.2-1.6-2.1.2-2.9 5.1-2.4 2.1-6.9 2.8-10.4 3.3-1.7 6-3.4 7.7-7.5 3.1-7.3 8.8-12.6 17.1-14.3 12.1.5 11.9.4 13.4-11 .7-5.1 1.5-10.3 5.8-14.2.7 1 1.3 1.4 1.4 2 .9 6.3 5.6 3.5 8.4 2.9 3.1-.7 2.4-3.3.5-5.3-1.4-1.5-1.2-2.7.2-4.2 3-3.2 4.6-7.2 5.9-11.4.6-1.9 1.5-4.1 4-3.5 2.5.6 1.6 3.2 1.9 5.1-.7.5-2.9-.9-2 1.4.2.5 1.6-.6 2-1.4h2c4.4-.3 9.4.3 5.5-7.1-1.6-2.9 4.1-9.2 8.5-11z"/><path fill="#FCFDFD" d="M1883.7 372.4c3.7.3 5.6-3.4 8.9-4 3-.6 3.4-2.6 2.5-5.3-1.4-4 .7-8.3-1.1-12.4-.6-1.4.2-3.4 2.1-3.8 2.7-.5 3.3 1.5 3.6 3.5-1 .3-1.1.7-.4.8.1 0 .3-.5.4-.8 16-.5 13.9 1.9 16-14.7.3-2.6-.6-5.3 1.4-8.3 3.6 1.9 7.5 3.2 9.9 6.9-.6 3.6-5.2 3.5-7.6 8.3 5.4-2.5 9.5.4 13.3-2.8 7-6 13.9-11.5 18.1-20.5 4.2-9.1 10-17.9 20.2-22.3 8.2-3.6 16.1-7.8 23.9-12.1 2.5-1.4 6.7-1.8 6.1-6.3l.3.3c8.7-4.1 11.5-12.6 14.5-20.4 4.1-10.8 8.5-20.7 20.9-24.1 12.1-12.5 28.6-19.5 40-33.4 12.1-14.8 26.8-27.5 40-41.5 9-9.6 19.3-18 27.4-28.4 1.6-2.1 3.5-4.3 5.7-5.5 9.5-5.3 14.5-15.2 22.8-21.4 9.7-7.2 14.9-19.2 26.5-24.2.8-.4 1.8-1.3 2-2.1 2-8 9.5-10.7 14.8-15.4 2.5-2.2 5-3.7 6.2-7.3 1.1-3.3 4.1-5.9 7.4-7.8 5.6-3.2 11-6.2 14.6-12.3 4.6-7.7 13.4-9.4 21.6-9.7 24.6-.7 48.7-5.5 73.2-7.4 11.8-.9 23.6-2.8 35.4-4.5 5.3-.8 10.4.5 15.7-.2 2.7-.3 4.1 1.8 1.9 4.6-1 1.3-1.8 3-3.1 3.8-10.3 6.7-16.8 17.6-27.1 24.5-4.2 2.8-6.8 8.1-10.6 11.7-7.9 7.2-14.1 16.3-22.4 23-6.7 5.4-11.7 12.3-17.9 17.8-9.5 8.5-18.1 17.7-26.1 27.5-1.4 1.7-2.9 3.3-5.6 3.9-2.9.6-5.4 2.6-5.4 6.2-4.7 1.1-6.1 6.4-10.5 8-2.2.3-5-1.1-6.2 1.7-1.7 4.1-5.9 5.1-8.9 7.5-14.9 12-30.2 23.5-39.4 41.2-3.5 6.8-8.4 13.1-13.2 19.2-2.4 3-2.5 7.7-6.9 9.2-2.4-.6-5.2.1-6.7-3-2.5-5.3-4.6-2.1-5.7.7-2 4.8-3.7 9.7-6.5 14.1-1.3 1.9.4 3.8.2 5.6-1.9.7-3 3-5.5 2.5-3.2-.5-1.6-6.5-5.7-5.3-3.3 1-4.8 4.1-4.9 7.6 0 1-.1 1.9-.1 2.9-2 1-2.1 3.4-4.5 4.7-6.3 3.4-12.9 5.9-18.8 10.8-9.1 7.6-16.9 15.6-23 25.7-2.7 4.5-5.3 9.7-9.4 12.5-3.5 2.4-6.1 5.1-7.9 8.5-2.8 5-6.5 8.7-11.7 11.1-2.1 1-3.8 2.6-5.6 4.1-9.8 7.8-18.8 16.8-29.5 23.1-6.2 3.6-10.9 7.9-15 13.1-6.7 8.6-16.8 14.4-20.4 25.6-1 2.9-3.4 6.3-6 7.5-7.8 3.6-13.3 10.7-20.6 13.9-7.2 3.2-11.8 8.4-17.4 13-1.3 1-2.7 2.3-4.2 2.6-4.9 1-7.8 4.9-11.6 7.4-1.7-6.1-7.2-.1-10-3.1-2.5-2.7-1.5-7.6-5.2-9.2-2.4-1.1-5.5-4-7.9 1.3-1.6 3.5-9.1 3.4-12.8.6-3.6-2.8-2.5-6.1-.7-9.7 3.2-6.3 2.5-5.8-2.9-10.7-2.8-2.6-8.7-.7-8.9-6.4.7-.5 3 .9 2-1.5-.2-.5-1.6.5-2 1.4-6.7-1.7-10.1-6.9-11.6-12.9-.8-3.2-2.8-4.9-4.4-7.2v-2zm24 17.4c.4-.2.9-.4 1.3-.6-.7-3.1-1.2-6.3-2.2-9.3-.4-1.4-2.2-1.5-3.4-1-1.3.6-2 2.1-1.2 3.4 1.7 2.7 3.7 5.1 5.5 7.5zm10.5 23.8c.2-.6.8-1.2.6-1.6-.2-.4-1-.5-1.6-.8-.2.6-.8 1.2-.6 1.6.2.5 1.1.6 1.6.8z"/><path fill="#FDFDFD" d="M2431.8 1408.4c-.3-1.8.6-4.4-1.9-5.1-2.4-.6-3.4 1.6-4 3.5-1.3 4.1-2.9 8.1-5.9 11.4-1.4 1.5-1.6 2.7-.2 4.2 2 2 2.6 4.7-.5 5.3-2.8.6-7.5 3.4-8.4-2.9-.1-.5-.7-1-1.4-2-4.3 3.9-5.1 9.2-5.8 14.2-1.5 11.4-1.3 11.4-13.4 11 1.1-2.3 2.8-4.6.3-7.6-1.4.7-3 1.3-4.1 2.3-11.3 11.1-22.9 21.8-33.5 33.5-3.9 4.3-8.4 8.3-11.8 13.3-3.3 4.8-6.9 9.3-11.7 13.1-6.8 5.4-12 13-17.9 19.6-4.9 3-8.2 7.6-12 11.7-9.6 10.5-18.6 21.6-30.7 29.4-9.2 5.9-18 12.3-27 18.4-11.3 7.6-17.4 17.7-18.7 31.1-.6 6.2-1.6 12.2-5 17.7-2.1 3.4-5.9 4.8-8 8.4-3.4 5.8-8.6 10-15 12.7-3.7 1.5-5.7 4.1-4.4 8.4-1.7.8-4.4 1.2-3.1 3.8.8 1.8 2.8 3.3 1.2 5.2-1.7 2-4.3 1.6-6.6 1-7.4-1.9-7.1-1.9-9.6 4.3-1.1 2.8.2 7-4.3 8.2-1.4.4-.6 1.5 0 2.3 1.9 2.4 1.8 4.5-1.3 5.3-2.4.6-5.4 3.9-7.4-1-1.5-3.7-3.9-2.2-4.9.1-1.5 3.3-2.3 6.9-3.2 10.4-.6 2.5-5.2 2.8-2.5 7.5 1.7 2.9-3.5 4.1-5.3 2.6-5.5-4.7-7-1.7-8.7 3.3-1 3.1-2.4 6.5-4.8 8.5-3.3 2.9-.7 5.4-.6 8.1-10.3-3-21-1.2-31.5-3-10.4-1.8-21-2.4-31.6-2.8-19.4-.7-38.1-6.5-59.4-5.8 5-9.6 11.9-15.6 16.4-23.1 2.1-.6 4.1-1 6.1-2.6 7.8-6 10.5-16.7 20-21 4.4-2 7.1-5.4 9.1-9.8 1.3-2.9 3.6-5.5 6.7-7.2 3.7-2 8.7-3.8 10.2-7.1 2.4-5.4 6.5-5.5 10.8-7 9.7-3.3 18-8.3 19.6-19.8 2.7-5.4 6.9-10.6 7.6-16.3.8-6.8 3.2-11.7 7.9-16 1.3.9 2.9 2.9 3.8 2.6 2.7-.9 6.1-2 7.5-4.1 2.1-3.2-.9-5.2-3.7-6.6 2.1-4.6 5.5-8.6 10.2-9.6 9.2-2 15.9-8.3 24.2-11.9 11.6-5 22-11.8 24.5-25.8 2.7-3.6 4.8-7.2 5-12.1.2-4.3 1.9-8.9 5.5-12.1 10.9 1.4 13-.6 11.2-10.6-.1-.6-.1-1.3-.1-2 1.2-4.4 6.7-6.9 8.6-6.7 8.2.8 12-5.4 17.6-8.6 6.1-3.5 11.9-7.2 15.7-13.3 7.1-11.2 16.4-20.7 22.7-32.5 2.1-2.6 5.2-4.1 7.8-5.6 5.8-3.4 7-10.4 12-14 7.9-5.8 14.9-12.4 20.2-20.7 10-6.5 16.6-16.6 25.5-24.2 9-7.7 15.1-18.1 25.1-25 4.7-3.3 7.6-9.7 12.4-13.7 9-7.5 16.3-16.8 24.8-24.9 8.5-8.1 17.2-16.5 24.5-25.8 5.8-7.4 13.3-13 19.9-19.5 1.8-1.8 4.5-1.6 5 1.9.3 2 .1 4 .1 6 0 16 .7 31.9-.2 47.8-1.1 19.1-.8 38.3-1.4 57.4-.2 4.6-3.8 8.7-1.8 13.6v2.6c-4.4 1.8-10.1 8.1-8.7 10.7 3.9 7.3-1.1 6.7-5.5 7.1-1-.1-1.6-.1-2.2-.1z"/><path fill="#FCFCFC" d="M1643.7 1002.5c.6 3.9-2.1 7.2-2.2 11.1-3.2-1.6-5.6-2.5-8.2 1.7-13.2 22.1-32.2 38.6-51.8 54.6-14 11.4-29.2 20.6-45.7 27.6-13.7 5.8-27.8 10.4-42.3 13.9-5.9 1.4-6.9.8-7.7-5.3-.8-6.6-1.6-13.2-1.7-19.8-.2-20.9-1.3-41.7-3.6-62.5-1.7-15.2-3.7-30.3-6.5-45.2-1.1-6.1-2.9-12.2-5.3-17.9-1.8-4.5-.2-6.1 3.5-7.3 3.4-1.1 6.9-2.4 10.4-3.3 10.3-2.8 18.6-13.1 18.8-24.1.2-12.7-1.6-25.2-6.1-37.1-3.4-9.2-2.6-11.1 6.7-14.8 15.4-6 33 5.5 33.3 22 .2 11.3.4 22.6-1.2 33.8-.4 3-1 5.9-2.4 8.6-.9 1.8-1.8 3.6-2.1 5.6-1.8 8.9 1.9 13.1 10 9.6 16.4-6.9 34.1-11.1 49-21.6 8.4-5.9 17.2-11.3 26.1-17.1 1.8 1.4 3.7 2.7 5.3 4.3 5.8 5.7 5.8 5.9 12.9 2.3 5.9-3 11.7-6.3 17.4-9.6 3.3-1.9 5.2-2.4 7.9 1.8 7.8 12.1 9.2 23.8 3.5 37.4-5.4 13-10.3 25.8-21.2 35.2-2.7-.7-3.8-2.7-4.9-4.8-4.9-9.6-12.4-11.6-22-5.2-17.4 11.6-30.3 26.9-39.5 45.3-2.9 5.8-5.7 8.7-12.4 8.4-8.9-.5-17.8 1-26.7 2.3-5.9.8-7.8 5.6-11.1 9.1-1.2 1.3-.5 3.4.6 4.6 1.3 1.5 3.1 2.8 5.2 1.5 10.8-7 23.5-6.2 35.4-8.5 8-1.5 13.8-4.5 18.7-11.3 6.2-8.6 12.5-17.1 18.5-25.8 4.8-7 12-11.4 18.5-16.6 5.6 2.7 9.6 7.1 13.2 11.9 2.4 3.1 4.8 6.5 9.7 5.2z"/><path fill="#FCFDFD" d="M2334.5 207.1c.2 4.6-4.1 8-3.2 13 .5 2.5-2.3 3.8-4.8 4-2.8.3-4.4-.9-4.7-3.8-.1-.9-.6-1.7-1.3-3.2-4.6 4.8-6.1 10.6-7.8 16.5-5.5-1.5-10.6-.7-15.1 2.2-2.1 1.3-4 1.2-6.3 1.5-5.7.6-8.8-1-11.4-6.3-3-6.3-4.5-6.1-10.6-1.2-.8.6-1.5 1.6-2.4 1.7-3.5.5-7.1 4.9-10.6-.4-3.1-4.8-2.2-8.5 3.5-12.8.1.6.2 1.3.4 1.9.7 1.9 2.2 2.1 3.9 1.4.4-.2.8-1.1.7-1.5-.4-1.5-1.7-1.6-3-1.7h-1.9c2.2-10.7-7.8-10-13.1-13.2.8-5.2 6.1.2 6.9-3.7.5-2.5 1-5.3-1.7-7.2v-3c-.1-2-.1-4.2-2.7-4.6-.8-.1-2.3.5-2.5 1.1-.5 1.9-1.3 4.3-.5 5.7 1.1 2 3.9-1.3 5.7.7-.7 7.6-7.6 5.8-11.9 7.9-.1-2.1.3-4.5-2.1-5.8-2.6-1.2-3.9-3.2-4-6-.3-5.1-3.7-6.2-8-6 6.3-8.6 12.9-17.4 21.5-23.2 6.6-4.5 13-9 18.5-14.7 3.5-2.6 6.9-5.2 10.4-7.8 1.7.3 3.6.5 4.5-1.1 2.8-5.2 7.8-8.1 12.2-11.5 7.1-5.6 12-13.1 18.1-19.5 2.4-2.5 4.1-6.1 8.4-6.3 1.8-.1 3.2-1.7 3.1-3.4-.2-4.9 3.9-7.9 6.5-9.2 12.5-6.5 18.8-19.9 30.9-26.7 1.6-.9 2.4-2.3 2.4-4.1 0-2.4 2-3.7 3.4-4.6 12.7-8.2 20.4-22.1 34-29.2 2.2-1.1 3.6-2.2 4.2-4.9 1.1-5.1 5.1-7.1 10.1-8 12.7-2.3 25.6-2.9 38.5-3.9 3.1-.2 5.4.9 4.8 4.5-3.3 19.5-1.3 39.1-1.2 58.6 0 2.7-.3 5.4.1 8 1.1 8.9-1.5 14.5-9.9 19.9-18.4 11.7-33.3 27.6-47.1 44.8-5.6 7-9.6 15.8-18.4 20.1-1.1.5-2 1.9-2.4 3.1-2.4 6.2-7.4 10-12.4 13.8-2.6 0-5.5-.9-7.1 2-1.8 3.4-5.3 4.8-8 7.1-5.9 5.2-12.3 9.9-17.5 16-2.3 2-.4 2.2.9 3z"/><path fill="#262727" d="M2106 1620.5c-1.5 11.5-9.9 16.5-19.6 19.8-4.3 1.5-8.4 1.6-10.8 7-1.4 3.2-6.5 5.1-10.2 7.1-3.1 1.7-5.4 4.2-6.7 7.2-2 4.4-4.7 7.8-9.1 9.8-9.5 4.3-12.2 15.1-20 21-2 1.5-4 2-6.1 2.6-1.4-.2-2.8-.5-4.2-.7 2.3-7 8.5-10.9 13.4-15.5 9.6-9.1 18.3-19 27.6-28.4 4.9-4.9 9.6-9.2 16.7-11.4 6.8-2.2 14.6-4.1 19-11.2 4.3-.7 4.8-5.1 7.4-7.4.9 0 1.7 0 2.6.1zM2314.1 1394.6c-5.3 8.3-12.3 14.9-20.2 20.7-5 3.6-6.1 10.6-12 14-2.6 1.5-5.7 3.1-7.8 5.6-.7-.8-1.4-1.7-2.1-2.5 2-7.4 7.7-12.1 13.4-16.1 3.7-2.6 7.1-5.3 9.4-8.9 5.9-9.5 16-14.9 22.6-23.6.4 2.9-.8 5-2.8 7-1.2 1-2.6 2.2-.5 3.8z"/><path fill="#F2F2F2" d="M2001.2 278.8l-.3-.3c-3.1-.9-5.7.9-8.5 1.6-5.6 1.4-11 3.7-16.9 2.9 2.9-3.5-1.8-8.3 1.4-11.3 3.5-3.2 7.3 1.1 11.3.9 7.4-.5 7.6-.6 8.2-8.2.2-3 .5-5.8-.4-8.7-.5-1.6-.3-3.5 1.2-4.5 1.6-1 3.2-.5 4.4 1 1.6 2.2 4 2.1 6.3 2.2 1.6 7.3-1.7 13.4-5.2 19.4-.9 1.5-3 2.7-1.5 5z"/><path fill="#D3D3D3" d="M497.7 1784v-3.4c16.6 4 32.8 9.8 49.8 12.4 10.1 1.5 20.2 3.3 30.3 5 1.6.3 3.3.4 4.3 2l-1.2 1.5c-26.5-2.2-52.3-8.2-77.9-15-2-.5-3.9-1-5.3-2.5z"/><path fill="#262727" d="M2334.5 207.1c-1.2-.8-3.2-.9-1.2-3.3 5.2-6.1 11.5-10.8 17.5-16 2.7-2.3 6.1-3.7 8-7.1 1.6-2.9 4.6-2 7.1-2 .9 1.3 2.3 1.5 3.8 1.6-9.8 9.8-23.1 15.5-31.5 27.1-.9 1.2-2.5 0-3.7-.3z"/><path fill="#181919" d="M2139.9 626.4c-7.4 2.1-14.1 1-18.5-2.9 3.5.3 7.1.7 10.6 1 1.6.1 3.3.4 3.5-2 2.9-.4 4.3 1.1 4.4 3.9z"/><path fill="#262727" d="M2276.1 138.6c-3.5 2.6-6.9 5.2-10.4 7.8l-2.7-2.4c4.3-1.6 5.8-6.9 10.5-8 .9.9 1.8 1.7 2.6 2.6z"/><path fill="#D3D3D3" d="M582.1 1800c4.1.1 8.2-.1 12.2 1.6-4.5.8-8.9 1-13.4-.1.3-.5.7-1 1.2-1.5z"/><path fill="#B9C0C0" d="M2135.5 622.5c-.2 2.4-2 2.1-3.5 2-3.5-.3-7.1-.6-10.6-1l.1.1c4.6-.4 9.3-.7 14-1.1zM2155.9 628.3c-1.5 0-2.9-.1-4.4-.1.9-1-.4-3.4 2-3.3 1.8.2 1 2.6 2.4 3.4z"/><path fill="#D7E8E9" d="M2447.9 1390.6v-2.6c.5.3 1.2.5 1.4.9.3 1-.4 1.5-1.4 1.7z"/><path fill="#111" d="M1300.2 952.2c-18.7-1.2-31.9-9.5-41.6-22.9-11.1-15.5-16.9-33.5-22.9-51.5-4.9-14.7-3.2-30.2-5.6-45.2-.6-3.4 1.1-7.1 1.6-10.7 1.5-10.1 1.8-20.4 4.4-30.3.6-2.3.2-6 3.5-6.5 3.2-.5 3.7 2.7 5.1 5 10 15.4 22.2 28.6 38.4 38.1 26.7 15.7 55.5 20.9 85.9 17.8 13.4-1.4 27.2-.1 40-5.8.8-.4 2-.2 3-.2 1.4 0 2.7.6 3.1 2 .4 1.5-.8 2.9-1.8 3.2-4.7 1.6-8.3 5.5-13.6 5.6-3.3.1-6.5 1-9.8 1.3-4.7.5-6.9 2.3-8.6 7.5-11.1 32.4-29.9 59.8-56.6 81.3-7.5 6.1-16 10.9-24.5 11.3zM1238 826.1c.5 6 1 11.6 1.6 17.2 2.8 27 8.1 53.1 23.7 76.1 1.7 2.5 3.2 5.1 4.3 7.9 1 2.6 2.7 4.4 4.8 6.2 16 13.6 39.5 14.3 55.4-2.4 18.8-19.8 35.9-41.1 42.3-68.8 1.7-7.3 1.6-8.5-5.9-8-18.1 1.2-35.6-1.7-53.2-5.4-13.9-2.9-26-9.8-37.6-17.1-8.9-5.6-16.2-13.7-23.2-21.7-1.1-1.2-2.1-2.6-3.3-3.7-3.8-3.1-5.9-2.4-6.6 2.3-1.1 5.9-1.7 11.8-2.3 17.4z"/><path fill="#0C0C0C" d="M1418.7 760c-1.5 3.8-.1 8.6-1.1 13.2-1.6 7.2-3.6 9.5-9.7 10.8-5.8 1.3-8.4-2.3-10.9-6.5-7.9-12.9-8.5-26.9-6.1-41.2 1-5.8 1.3-11.9 5.2-16.9 5.2-6.8 11.6-6 16.3 1.1 3.4 5 3.5 10.7 4.4 16.1 1.3 7.5 1.3 15.2 1.9 23.4zm-16.6-23.5c-1.9 10-.7 19.7 2.5 29.8 3.7-7.2 3.7-7.2.6-27.9 1-2.9.1-5.1-2.6-6.7-1 1.6-.9 3.2-.5 4.8z"/><path fill="#B9C0C0" d="M388.9 1136.3c-.4.4-.7 1.2-1.1 1.3-1.3.3-1.8-.6-1.8-1.6 0-.5.6-1.2 1-1.3 1.2-.2 1.8.5 1.9 1.6z"/><path fill="#121313" d="M2263.1 144l2.7 2.4c-5.5 5.7-11.9 10.2-18.5 14.7-8.6 5.8-15.2 14.7-21.5 23.2-11.8 18.1-23.7 36-38.8 51.6-9.2 9.5-20.2 16.3-31.6 22.3-10.8 5.7-20.1 13.6-30.9 18.9-3.8 1.8-4.4 5.6-6 8.6-8.1 15.8-18.6 30.1-32.6 40.6-12.5 9.4-23.7 21.1-39 26.4-1.4.5-2.9 1.9-3.5 3.3-2.3 5.1-6.2 8.9-10.4 11.8-10 6.7-12.5 18.8-20.4 26.9-5.8 5.9-11.3 11.8-18.5 16.3-7.8 4.9-14.6 11.4-22.5 16.2-10.8 6.6-20.1 14.9-26.5 25.4-7.8 12.9-16.4 24.8-27.2 35.3-4.6 4.4-10 7.6-15.6 10.5-1.5.8-3.8 1.3-5.1-1.3-.9-2 .1-3.3 1.3-4.3 5.1-4.8 10.1-9.7 15.5-14 9.3-7.4 15.9-16.9 21.7-27 4-6.9 8.2-13.6 12.6-20.3 3.8-2.6 6.7-6.4 11.6-7.4 1.5-.3 2.9-1.6 4.2-2.6 5.6-4.5 10.3-9.8 17.4-13 7.2-3.3 12.8-10.4 20.6-13.9 2.6-1.2 5-4.6 6-7.5 3.7-11.2 13.7-17 20.4-25.6 4.1-5.2 8.9-9.5 15-13.1 10.7-6.3 19.7-15.3 29.5-23.1 1.8-1.5 3.6-3.1 5.6-4.1 5.2-2.4 8.9-6.1 11.7-11.1 1.8-3.3 4.4-6 7.9-8.5 4.1-2.8 6.7-8 9.4-12.5 6.1-10.1 13.9-18.1 23-25.7 5.9-4.9 12.5-7.4 18.8-10.8 2.4-1.3 2.5-3.7 4.5-4.7 4-.8 7.8-2.1 10.6-5.3 2.4.5 3.6-1.8 5.5-2.5 6.5-5.6 14.2-9.9 18.8-17.5 4.3-1.5 4.5-6.2 6.9-9.2 4.9-6 9.7-12.3 13.2-19.2 9.2-17.7 24.5-29.2 39.4-41.2 3-2.4 7.1-3.5 8.9-7.5.9-2.6 3.7-1.2 5.9-1.5z"/><path fill="#0C0C0C" d="M1936 898.6c-.4-19.7 8.4-35.6 21.1-49.8.9-1 1.9-1.9 2.9-2.6 2.6-1.7 5.7-3.1 8.1-.5 2.7 3.1-1.3 4.1-2.7 6-8.8 13-16.3 26.8-17.1 42.7-.8 16 3.6 30.7 15 42.8 2.6 2.8 5.9 4.2 9.5 4.9 1.2.2 2.7.5 2.9 2.2.2 2-1.4 3.1-2.8 3.6-4.7 1.8-9.5.9-13-2.3-6.4-5.8-12.6-11.8-18.1-18.4-4.8-5.8-4.7-13.6-5.7-20.8-.4-2.4-.1-5.1-.1-7.8z"/><path fill="#111" d="M2022.5 996.3c5.7-.8 10.6 1.1 15.1 2.4 18.9 5.4 37.2 12.3 49.9 28.7 1.6 2.1 3.6 4 5.7 5.6 3.6 2.7 1.9 5.4.1 7.7-2.5 3.1-5.1.7-6.7-1.1-8.5-10-17.9-18.8-30-24.3-16-7.1-32.6-10.9-50.2-9-6.7.7-12.7 3.8-18.3 7.3-2 1.3-3.8 1.6-5.4.1-1.3-1.3-.3-3 .5-4.5 2.3-4.9 6.4-7.3 11.4-8.8 9.4-2.7 18.9-3.5 27.9-4.1z"/><path fill="#121313" d="M2272 1432.4c.7.8 1.4 1.7 2.1 2.5-6.2 11.8-15.6 21.3-22.7 32.5-3.8 6-9.6 9.8-15.7 13.3-5.7 3.2-9.5 9.4-17.6 8.6-1.9-.2-7.4 2.2-8.6 6.7-6.4 1.8-8 7.9-11.1 12.6-3.6 3.3-5.2 7.8-5.5 12.1-.2 4.9-2.3 8.5-5 12.1-2.7-2.8-2.5 2.1-4.4 1.7-1.3-1.8.6-3.7-.2-5.6 2.6-6.5 3.3-13.5 4.2-20.3 2.1-15.7 12.7-23.5 26-28.1 6.3-2.2 12.9-4.9 20.1-4.5 1.5.1 3.7-.7 4.4-1.9 5.4-8.7 14.4-14.7 18.8-24.1 1.5-3.2 2.1-6.5 4.5-9.5 3-3.6 6.2-6.5 10.7-8.1z"/><path fill="#111" d="M2183.6 1534.4c1.8.4 1.6-4.5 4.4-1.7-2.5 14-12.9 20.8-24.5 25.8-8.3 3.6-15 10-24.2 11.9-4.6 1-8.1 5-10.2 9.6-3.9 1.4-6.4 4.1-7.6 8.1-4.7 4.3-7.1 9.2-7.9 16-.6 5.6-4.9 10.9-7.6 16.3-.8-.1-1.7-.1-2.5-.2l-.3-10.4c4.5-24.5 16.7-43.2 40.4-53.2 1.5-.6 3.1-2 4.5-1.9 10.2 1.2 15.6-6.2 21.9-11.9 6.7.8 10.1-3.8 13.6-8.4zM2058.2 839.3c.1 12.1-2.5 21.6-6.4 30.9-1.5 3.7-3.8 6.6-7.8 6.8-4.2.2-6.6-3.1-8.1-6.5-1.5-3.3-2.3-6.9-3-10.5-2.4-12.1-.2-23.7 3.1-35.2 1.1-3.8 3.6-7.1 6.6-9.8 2.4-2.2 4.8-2.9 7.5.4 6.4 7.5 8.8 16.2 8.1 23.9zm-14.5 28.1c9.4-12.7 10-24.5 2.4-36.9-5.9 11.8-8.7 23.4-2.4 36.9z"/><path fill="#0C0C0C" d="M2073.9 772.9c1.7-6.9 1.2-13.7 4.5-19.7 1.3-2.3 2.9-3.7 5.6-2.9 2.7.8 2.1 3.1 1.6 4.9-6.1 18.9 3.1 34.2 12.1 49.3 4.4 7.4 10.1 14 18.1 18 1.4.7 2.6 2 3.8 3.2.9.9 2 2 1.4 3.5-.8 2-2.7 1.6-4.2 1.3-12.4-3.2-22.5-10.1-28.5-21.2-5.5-10.1-11.1-20.4-13.2-32-.3-1.7-.8-3.3-1.2-4.4z"/><path fill="#121313" d="M1901.4 845.2c-.7-11.5 3.9-21.9 6.8-32.7 1-3.6 3.4-4.6 6.7-2.1 3.3 2.6 5.5 5.9 6.4 9.8 2.9 12.4 2.8 24.8.3 37.3-.7 3.4-2.5 6-4.4 8.8-1.7 2.6-3.5 5-7.1 4.3-3.3-.6-5.2-3-6.1-5.9-2.1-6.2-3.1-12.7-2.6-19.5zm10.9 12.6c2.4-11.5 6.9-23.1.3-34.4-3.1 11.4-7.9 22.9-.3 34.4z"/><path fill="#0C0C0C" d="M1975.5 283c5.9.7 11.4-1.5 16.9-2.9 2.8-.7 5.3-2.6 8.5-1.6.6 4.6-3.6 5-6.1 6.3-7.8 4.3-15.7 8.6-23.9 12.1-10.2 4.5-16 13.2-20.2 22.3-4.2 9-11.1 14.5-18.1 20.5-3.8 3.2-7.9.2-13.3 2.8 2.5-4.8 7.1-4.7 7.6-8.3 1.2-.4 3.4-.6 3.5-1.2 1.6-8.4 12.4-8.3 14.5-15.6 1.1-3.8 2.8-7.3 4.2-10.9 4.9-12.3 13.4-20.3 26.4-23.5zM1868.7 820.1c-2.2.1-4.6-.9-6.9-2.3-1.5-.8-2.6-2.2-2.2-4 .4-1.8 1.9-2.9 3.5-3 15.1-1.1 23.6-12.3 32.6-22.1 3.4-3.7 8-7.2 8.5-13.1.1-1.5 1.3-2.4 2.7-2.3 1.3.1 2.6 1.2 2.8 2.5.3 2.3.7 4.7.3 6.9-3.4 15.4-11.8 27.1-26.5 33.3-4.5 2-9.1 4.3-14.8 4.1zM2075.4 902c1.5 4.8.8 7.6-3.4 10.4-5.4 3.6-11.2 5.9-17.3 7.3-6.5 1.6-12.6-.6-17.4-5.2-4.3-4.2-6.8-9.7-9.3-15.1-.9-1.8-1-3.8-.1-5.8 1.4-3 4-3.7 6.2-1.1 1.5 1.8 2.4 3.9 3.7 5.8 7 9.9 15.1 12.5 26.7 8.3 3.8-1.2 7.3-3 10.9-4.6z"/><path fill="#111" d="M1884 922.1c-1.4-.6-3.4-1.2-5-2.2-2.4-1.5-6.5-2.7-5.1-6.2 1.3-3.3 4.7-2.9 7.6-.9 2.1 1.5 4.4 1.5 6.5 0 6.1-4.5 13.3-7.7 17.1-14.8.8-1.4 1.1-3.3 3-3.6 1.2-.2 2.6-.1 3.8.3 1.7.6 1.1 2.1.9 3.4-.1.3-.3.6-.4.9-5.2 11-13.4 18.5-25.1 22.2-.9.2-1.9.5-3.3.9z"/><path fill="#121313" d="M1926.1 1662.1c2.7.1 4.2 1.5 5.7 2.7 6.4 5 12.4 10.5 20.3 13.6 5 1.9 9 8.7 7.2 10.2-4.8 4-7.5-1.7-11-3.2-5.3-2.4-10.2-5.9-15.3-9-3.6-2.2-7.5-4.3-9.7-8.1-.8-1.4-1.8-3-.2-4.4 1-1 2.3-1.5 3-1.8z"/><path fill="#181919" d="M2404.4 518.4c-5.7.1-11.3-.3-16.7-1.8-1.5-.4-2.1-1.7-1.8-3 .1-.6 1.4-1.3 2.2-1.5 9.2-1.7 18.4-1.8 27.7-1.3 1.3.1 2.5.9 3.8 1.2 1.5.4 2.3 1.3 2.3 2.8 0 1.5-1.4 2.5-2.5 2.6-5.1.5-10.1.7-15 1z"/><path fill="#FCFCFC" d="M1897.7 416.4c-.3 1.8.5 4.6-1.9 5-3.1.5-4.8-2.2-5.5-4.7-1.3-4.7 0-9.8-2.9-16 6.1 1.6 11.6 1.2 13.7 6.3 1.2 2.9 2.8 8.1-3.4 9.4-.1-.2-.2-.5-.3-.7-.1-.1-.3-.1-.5-.1.3.2.6.5.8.8z"/><path fill="#F2F2F2" d="M2183.6 1534.4c-3.5 4.6-6.9 9.2-13.6 8.5.7-4.2 1.2-8.3 0-12.6-.5-2 .5-4.1 2.6-4.9 2.1-.9 2.6 1.1 3.5 2.4 2 2.7 5-.2 7.3 1.1.8 1.8-1.2 3.7.2 5.5z"/><path fill="#FCFCFC" d="M2103.1 1609.9l.3 10.4c-2.6 2.3-3.1 6.7-7.4 7.4-3-6.4-2.7-13.1-1.7-20.6 3.4.5 5 6.1 8.8 2.8zM2241.5 231.3c-8.3-5.5-8-11.6-7.4-17.8.2-2.5 2.2-3.1 4.3-2.9 2.6.3 3.1 1.9 2.2 4.2-1.8 4.7-.4 9.5.9 16.5z"/><path fill="#F2F2F2" d="M2237.7 196.4c2.3 1.4 1.9 3.7 2.1 5.8-1.9.5-4 3.3-5.6.1-1.4-3.1 2.6-3.8 3.5-5.9z"/><path fill="#FCFCFC" d="M1883.7 372.4v1.9c-1.6-.1-3.4-.2-3.4-2.4 0-.7 1-2 1.6-2 1.9-.3 1.7 1.3 1.8 2.5z"/><path fill="#181919" d="M2190.7 1660c-1.3-4.2.7-6.9 4.4-8.4 6.4-2.6 11.6-6.8 15-12.7 2.1-3.6 6-5 8-8.4 3.3-5.5 4.4-11.5 5-17.7 1.3-13.4 7.5-23.5 18.7-31.1 9-6.1 17.8-12.5 27-18.4 12.1-7.8 21.1-18.9 30.7-29.4 3.8-4.1 7.1-8.7 12-11.7h4.1c-.4 4.5-3.1 8-6 10.9-6.7 6.6-13.7 12.9-17.8 21.6-1.7 3.6-5.7 4.1-8.4 5.6-5.9 3.2-8.8 10.3-15.8 11.7-12.1 5.9-22.3 14.3-31.5 24.1-3.2 3.4-4.8 6.7-2.6 11.3.6 1.3.2 3.2.2 4.8.8 9-3.4 16.2-9 22.4-6.6 7.4-13.6 14.4-21.5 20.6-3.6 3-7.6 5.1-12.5 4.8z"/><path fill="#262727" d="M2315.8 1522.4h-4.1c5.9-6.6 11.1-14.1 17.9-19.6 4.8-3.9 8.4-8.3 11.7-13.1 3.4-5 7.9-8.9 11.8-13.3 10.6-11.7 22.2-22.5 33.5-33.5 1.1-1.1 2.8-1.6 4.1-2.3 2.4 3 .8 5.2-.3 7.6-8.2 1.7-14 7-17.1 14.3-1.7 4.1-4.4 5.8-7.7 7.5-2.3.7-3.8 2.4-5.5 4-4.8 4.5-6.5 11-10.6 15.9-6.2 2-14.1 8.9-15.5 14.2-.5 1.7-1 3.6-2.4 4.1-7.6 2.2-9.9 10.1-15.8 14.2z"/><path fill="#F2F2F2" d="M2233.8 1612.4c0-1.6.4-3.5-.2-4.8-2.2-4.6-.6-7.9 2.6-11.3 9.2-9.8 19.4-18.2 31.5-24.1 0 1.7.1 3.3.1 5 0 11.5 1.3 13-12.8 14-.1-.3-.4-.6-.4-.9 0-1.5 3-2.7 1.2-4.1-2.6-1.9-3.2 1-3.9 2.6-1.5 3.7-2.7 7.4-4.3 11-.4 1-2.5 1.4-2.7 2.3-2 7.8-1.9 7.9-10 10.1-.4.1-.7.1-1.1.2zM2349.4 1489.8c4.2-4.9 5.8-11.5 10.6-15.9 1.7-1.6 3.2-3.3 5.5-4-.7 3.5 2.3 8.1-2.8 10.4-1.8.8-.9 1.7-.2 2.9 2.1 3.3.2 5.1-2.9 5.4-3.3.3-6.1 6.1-10.2 1.2z"/><path fill="#FDFDFD" d="M2431.7 1408.4c-.4.9-1.8 1.9-2 1.4-.9-2.3 1.3-.9 2-1.4.1 0 0 0 0 0z"/><path fill="#D7E8E9" d="M2188.5 222.8c-4.6 7.6-12.3 11.9-18.8 17.5.3-1.9-1.4-3.7-.2-5.6 2.9-4.4 4.6-9.3 6.5-14.1 1.2-2.9 3.3-6.1 5.7-.7 1.6 3 4.4 2.3 6.8 2.9zM2164.3 242.7c-2.8 3.2-6.6 4.5-10.6 5.3 0-1 .1-1.9.1-2.9 0-3.6 1.6-6.6 4.9-7.6 4-1.3 2.4 4.7 5.6 5.2z"/><path fill="#D8E8E9" d="M1907.7 389.8c-1.8-2.5-3.8-4.9-5.5-7.5-.8-1.2-.1-2.7 1.2-3.4 1.2-.6 3-.5 3.4 1 1 3 1.5 6.2 2.2 9.3-.4.2-.8.4-1.3.6zM1918.2 413.6c-.6-.2-1.4-.4-1.6-.8-.2-.4.4-1.1.6-1.6.6.2 1.4.4 1.6.8.2.4-.3 1.1-.6 1.6zM1899.7 394.4c.4-.9 1.8-1.9 2-1.4 1.1 2.2-1.2.9-2 1.4.1 0 0 0 0 0zM1899.7 350.4c-.1.3-.4.8-.4.8-.7-.2-.5-.5.4-.8z"/><path fill="#D3D3D3" d="M2198.4 1508.5c3.2-4.7 4.7-10.8 11.1-12.6 0 .7 0 1.3.1 2 1.8 10-.4 12-11.2 10.6zM2121.4 1588.2c1.2-4 3.7-6.7 7.6-8.1 2.9 1.3 5.8 3.4 3.7 6.6-1.4 2.1-4.8 3.3-7.5 4.1-.8.3-2.5-1.7-3.8-2.6z"/><path fill="#D8E8E9" d="M2251.7 194.4c-1.8-2-4.7 1.3-5.7-.7-.8-1.4 0-3.9.5-5.7.2-.6 1.7-1.2 2.5-1.1 2.6.4 2.6 2.6 2.7 4.6.1.9 0 1.9 0 2.9zM2259.7 218.4h1.9c1.3.1 2.6.2 3 1.7.1.4-.3 1.4-.7 1.5-1.6.7-3.1.5-3.9-1.4-.1-.6-.1-1.2-.3-1.8.1 0 0 0 0 0z"/><path fill="#B9C0C0" d="M1238 826.1c.7-5.6 1.2-11.5 2.1-17.4.7-4.7 2.8-5.3 6.6-2.3 1.3 1 2.2 2.4 3.3 3.7 7.1 8 14.3 16.1 23.2 21.7 11.7 7.3 23.8 14.2 37.6 17.1 17.6 3.7 35.1 6.6 53.2 5.4 7.5-.5 7.6.8 5.9 8-6.4 27.7-23.5 49-42.3 68.8-15.9 16.8-39.4 16-55.4 2.4-2.1-1.8-3.7-3.5-4.8-6.2-1.1-2.8-2.6-5.4-4.3-7.9-15.6-23-20.9-49.2-23.7-76.1-.4-5.6-.9-11.2-1.4-17.2z"/><path fill="#D7E8E9" d="M1405.2 738.4c3.1 20.7 3.1 20.7-.6 27.9-3.1-10-4.4-19.7-2.5-29.8 1.1.7 2.1 1.3 3.1 1.9z"/><path fill="#B9C0C0" d="M1405.2 738.4c-1-.6-2.1-1.3-3.1-1.9-.4-1.6-.6-3.3.5-4.8 2.7 1.6 3.6 3.8 2.6 6.7z"/><path fill="#F2F2F2" d="M2043.7 867.4c-6.3-13.5-3.5-25.1 2.4-36.9 7.6 12.4 7 24.2-2.4 36.9zM1912.3 857.8c-7.5-11.5-2.8-23 .3-34.4 6.6 11.3 2.1 22.9-.3 34.4z"/><path fill="#D8E8E9" d="M1897.7 416.4c-.3-.3-.6-.5-.8-.8.2 0 .4 0 .5.1.2.2.2.5.3.7z"/></svg>