<svg viewBox="0 0 5187.4 2215.4" xmlns="http://www.w3.org/2000/svg"><path fill="#DDE8ED" d="M2867.7 401.3c-2.7 1-3.6 3.6-5.3 5.5-2 2.4-2.6 6.2-6.6 6.7-2.7-6.2-4-7-10-4.3-13.2 5.7-25.8 12.7-36.1 22.8-11.8 11.6-15 22.8-6.5 35.6 6.9 10.4 11 21.9 14.3 33.6 3.9 13.9 2.8 27.1-9.3 37.1-6.1 5-11.9 10.4-18.8 14.5-2.3 1.4-4.7 2.3-7.3 3-8.1 2.1-15.6-.3-23.2-2.3-10-2.6-19.9-5.1-30.4-4.4-10.2.7-14.5 5.4-12.9 15.3 1.8 11.2 2.1 22.4 3.3 33.6 1.9 17.6-.5 35.2-1.8 52.7-1.3 16.2-5.3 31.9-11.7 47-3.6 8.4-9.5 13.4-18.8 14.1-5.3.4-10.5 1.8-15.7 1.8-5.5 0-8.8 3-11.4 6.9-7.1 10.7-13.9 21.7-18.1 34.1-7.4 21.6-20.6 39.1-38.6 52.9-15.3 11.7-33.6 16.9-51.2 23.7-1.2.5-2.6.6-3.9.5-14.4-.8-29.3 3.1-43.1-4.4-1.7-.9-3.9-.9-5.8-1.4-9.4-2.8-19.2-4.7-28.1-9-4.4-2.1-10.4-3.8-11.8-7.8-1.2-3.5 2.1-8.7 3.5-13 1.4-4.1 3.2-5.1 8.1-3.3 21.5 8.2 43.4 13.8 66.7 6.7 17.4-5.3 34.5-11.1 45.7-26.3 12-16.1 25-31.8 27.4-53.2 1.2-10.8 3.8-21.5 4.6-32.4.8-10.5.4-21.2 1.3-31.6 1.5-17.7-.5-35.1-1.1-52.7-.2-4 .4-8.1-.4-11.9-3-14.6-5.1-29.3-9-43.7-1.2-4.5-3.9-7.6-6.9-10.6-1.5-1.6-3.8-1.7-5.6-.8-2.1 1.2-1.4 3.1-.6 5.1 1.4 3.6 3.4 7.2 3 11.4-1.1.1-2.1.3-3.1.3-14.7.2-28.6-4.1-42.7-7.5-15-3.7-28-10.6-37.1-23-9.5-12.9-15.1-26.9-9.6-43.7 4.2-12.8 10.1-24.6 18-35.3 6.4-8.7 12-17.9 14.3-28.3 3.3-15.2-3.9-27.1-15.5-36.3-13.1-10.4-23.9-22.8-32.7-36.7-5.7-8.9-8.5-19.2-6.4-30.4 3.6-18.7 11.4-35.3 23.7-49.7 5.4-6.3 11.3-12.2 17.2-18.1 6.8-6.8 13.6-13.7 23.1-16.7 3.7-1.2 5.4-3.7 4.3-7.7 9.3 1.2 16.8-2.1 22.7-9.4 2.1-2.6 4.5-4.9 8.2-5 14-7.8 28.2-15.1 43.6-19.7 3-.9 3.9-3.2 4-6.1 2.3 0 4.8.5 6.9-.2 13.8-4.6 28.1-3.7 42.3-3.8.5 3.1 1.3 6.5 5.4 5.3 8.5-2.6 17-1.4 25.5-1 2.4.1 4.6-.3 6.2-2.3l41.1 6c.4.9.6 2.2 1.3 2.5 9 3.4 18.1 6.7 27.2 9.9.8.3 1.9-.4 2.8-.6 8.2 2.3 16.1 5.5 24.5 7.2 6.3 1.3 10.4 6.7 15.8 9.9-.8 1.8-2.5 4-.9 5.5 4.7 4.3 9.2 9.2 15.2 11.8.8.4 2.3-.8 3.5-1.3.5 3.2 2.4 5.1 5.2 6.6 7 3.6 10.7 10 13.7 16.9-.2 1.9-1.3 4.5.5 5.6 5.6 3.4 6.8 9.4 9.6 14.5 1.4 2.5 2.1 5.6 5.4 6.7 8 5.8 12.4 13.5 12.4 23.5v9c-2.4 1.8-4.7 3.9-3.6 7.3 3.2 9.8 1.2 19.4-.8 29-.8 3.9-1.3 7.7 2.4 10.5 1.7 7-3.7 12.5-4 19.1-6 2.6-9.5 8.1-14.4 12.1-3.9 2.9-5 7.2-3.1 12.1zm-236.9 73.9c-1.3 3.5-2.7 7.2-.8 9.9 4.3 6.3 4.5 13.7 6.1 20.7 4.6 19.3 6.7 39 9.3 58.7 1.2 9.5 1.4 19.1 2.5 28.6 1.6 14.1 4.3 28.2 3.6 42.5-.4 8.3-.4 16.6-.5 24.9 0 1.9.1 4.3 2.5 4.8 1.8.4 2.5-1.6 3.7-2.6 5.9-4.8 3-11.3 2.9-16.7-.4-23.4-4.2-46.6-6.3-69.9-2.4-27.1-7.2-53.7-12.6-80.3-1.4-7.3-3.7-15-10.4-20.6zm38.7 40.8c0 8-.2 15.9.1 23.9.1 3.9.9 7.9 1.9 11.7.7 2.6 2.6 4.9 5.9 3.9 2.5-.8 3.5-2.8 2.9-5.5-.2-1-.6-1.9-.7-2.9-2.4-21.6 0-43.2 2.3-64.5 2.8-26.1 11.5-50.8 23.2-74.4.9-1.9 3.2-4.2.6-6.2s-4.2.7-5.9 2.1c-1.2 1-2.2 2.5-3 3.9-5.1 8.9-10.8 17.5-14 27.4-8.7 26.1-15.8 52.6-13.3 80.6zm-2.2-235.1c-.1 1.3-.3 2.6-.4 4-.2 3.3.9 6.3 4.5 6.6 4.3.3 4.3-3.2 4.2-6.3-.1-10.8 2.8-20.9 6.5-30.9 2.2-5.9 4.4-11.8 6.7-17.7.7-1.8.6-3.5-1-4.3-1-.5-2.6-.2-3.8.1-1.7.5-2.3 2.2-3.3 3.5-10.1 13.4-9.4 29.9-13.4 45zm73 56.8c-2.9 0-5.1-2.9-8.3-.6-9.9 7.2-14.5 17.7-18.2 28.7-.8 2.5.5 5.4 3.8 5.9 2.9.5 4.6-.5 5.9-3.7 2.8-7 7.4-13.2 11.3-19.7 1.9-3.1 5.3-5.7 5.5-10.6zm-130.8 59.2c-.2.7-.7 1.5-.5 2 3.6 12.3 7.2 24.6 11 36.9.5 1.7 2.1 3.7 4.5 2.7 2-.9 2.9-2.8 1.8-4.9-2.1-3.9-2.5-8.1-3.5-12.3-1.5-6.4-3.8-12.6-5.5-19-1.3-4.1-3.5-6.1-7.8-5.4zm157-92.9c10.1-6.9 14.2-18 22.6-25.4 1.3-1.2.4-3.1-1.7-3.5-2.8-.5-5 .6-7.2 2.4-6.1 5.1-10.8 11.5-14.6 18.4-1.3 2.2-1.4 5 .9 8.1zm-198.7-18.1c-2.9-.2-4.8 3.5-2.9 6.4 4.2 6.4 7.8 12.9 10.4 20.1.5 1.5 1.6 2.9 2.7 4.1.6.6 1.8 1 2.6.9 1.4-.2 2.3-1.4 2.3-2.8.1-1.3.1-2.7-.4-3.9-3.5-7.4-7.2-14.8-10.9-22.1-.7-1.5-2-2.5-3.8-2.7zm37 88.5c-1.4-9.3-4.1-17-7.4-24.6-.8-1.8-2.1-2.6-3.9-2.3-2.6.4-3 2.5-2.5 4.5 1.8 7.7 5.6 14.7 6.9 22.7.3 2 2.3 3.3 4.6 2.5 1.7-.6 2.3-2.1 2.3-2.8zm58.7-24.2c-.2-1 2.1-4.4-2.1-5-3.5-.5-4.6 2.3-5.1 4.8-1 4.4-2 9-.4 13.5.6 1.8 2.2 2.4 3.9 2.3 1.4-.1 2.1-1.3 2.2-2.7.2-4 2.1-7.7 1.5-12.9zm-3.1 73.4c2.8 0 3.3-1.9 3.2-4-.1-1.9.4-4.4-2.5-4.4-2.7 0-5.6.9-5.4 4.3.3 2.3 2.3 3.7 4.7 4.1z"/><path fill="#0D0D0C" d="M4722.4 1308.2c13.8-33.8 38.4-48.8 74.7-44.8.9-10.7-2.8-19.4-8.3-27.3-8.6-12.3-15.7-25.3-20.9-39.4-1.2-3.4-2.3-6.9-2.6-10.6-1.4-18.7 0-37.1 5.7-55.1 1.6-4.9 4-9.2 7-13.1 17.3-22.4 39.5-37.9 66.6-46.1 4.1-1.2 8.5-2 12.7-2 13 0 25.7-2.4 38.7-3.2 13.4-.8 26.2.2 39.2 2.9 7 1.5 12.9 4.9 19.1 8 10.9 5.4 22.4 9.7 32.9 16.1 9.2 5.5 17.9 11.6 25.4 19 7.8 7.7 16.7 14.2 24 22.4 20.9 23.6 34.4 50.9 40.2 81.9 3 16-2.1 30.3-10.4 43.5-5 7.8-11 15-17.6 21.6-3.6 3.6-5.8 8.2-6.9 13.1-3.3 15 8 26.8 23.1 23.4 15.1-3.4 30.1-3.9 45.4-2.7 17.6 1.4 32.3 9.7 44.9 20.9 9.2 8.1 14.5 19.7 19.1 31.1 6.3 15.7 10.6 32.1 12.5 48.9 2 18.6-2.8 36.2-8.8 53.5-6.1 17.3-14.7 33.4-26.5 47.5-9.1 10.8-20 19.7-33.6 23.9-14.2 4.4-28.7 7.7-43.1 11.6-2.6.7-5.1 1.5-7.5 2.6-10.1 4.5-11.8 7.6-10.1 18.6.5 3.3 1.2 6.5 2.4 9.6 4.1 11.3 1.1 21.4-4.5 31.4-13.5 23.7-31.9 42.6-56.1 54.8-24.6 12.4-51.2 19.1-79 14.7-20.9-3.3-37.3-15.2-49.1-32.9-6-9.1-12.3-18-16.7-28.1-2.2-4.9-5.7-9-9.7-12.5-6.3-5.5-14.2-3.4-16.8 4.9-3.4 10.8-4.6 22-4.1 33.2.3 7-.7 13.8-1.3 20.6-.5 5.1-3.1 9.2-6.2 13.3-14.9 19.4-35.2 24.3-58.2 22.3-7.1-.6-13.9-3.4-19.5-7.1-7.7-5-15.7-9.9-22.2-16.7-9.4-9.8-18.4-19.9-26.4-30.9-9.3-12.8-23.4-16.5-37.8-10.5-6.4 2.7-12.4 6.1-18.6 9.1-12.6 6.2-24.9 7.7-37.6-.8-6.6-4.4-13.6-7.9-18.3-14.5-24.4 32.6-46.8 65.9-75.1 94.4-6.8 6.8-14.1 13.1-21.3 19.5-2.8 2.4-3.6 4.3-2.3 8.4 8.1 25.8 13.6 52 10.4 79.3-1.3 10.8-3.2 21.6-5 32.4-.3 1.7-.5 3.5 1.1 4.4 2.4 1.5 3.4-.7 4.6-2.3 2.3-2.9 4.1-6 5.6-9.4 13.5-31.1 52.9-44.6 80-36.9 22.4 6.4 40.1 17.9 53.1 37.3 10.1 15 14.8 31.6 16.9 49 1.3 10.6-1.2 21.6-5.5 31-6.1 13.1-12.2 26.6-22.6 37.3-17.2 17.5-34 35.1-54.2 49.6-19.7 14.1-39.4 28.1-60.3 40.5-7.9 4.7-16 9.3-24.3 13.4-22.9 11.2-45.2 23.6-69.1 32.6-8.9 3.4-18.1 6.3-27.2 9.2-5.6 1.8-7.9.5-8.9-5.5-.9-5.5-1.3-11.2-2-16.8-.3-2.3-.5-4.6-1.2-6.8-.8-2.9-2.8-3.7-5.2-1.6-15.2 13.3-34.2 20.3-51.1 30.7-23.5 14.5-48.7 25.5-73.6 37.1-4.1 1.9-8.8 2.7-13.3 4-2.9.8-6 1.5-7.6 4.3-1.4 2.5-4 2.7-6 3-12.2 1.9-23.3 7.1-35 10.5-8.7 2.5-17.9 4.6-26.8 6.7-5.9 1.4-9.6-2.9-14.6-3.6-2.7-.4-2-3.8-2.2-6.1-.9-10.4-2.1-20.7-5-31-9.5-33.6-22.1-65.9-38.3-96.8-8-15.2-15.4-30.8-23.2-46.1-3.4-6.6-6.6-13.4-12.6-21-1.2 11.8-.7 21.5.2 31.3 1.8 18.5 1.6 37.1.1 55.7-.6 7.9-1 15.8.6 23.8 2 9.7-.4 12.6-10.4 13.5-4.9.5-9.7.6-14.8-.9-11.8-3.5-18-9.6-18.6-23.2-.8-18.6-.9-37.2-2.1-55.7-.7-10.8.2-21.6.1-32.4 0-14.6-2-29.1-1.4-43.8.1-4 .3-7.8 1-11.7 1.4-7.8.2-15.2-5.7-21.2-11-11.1-22.6-21.5-34.9-31.1-3.3-2.6-6.8-3.7-11-3.6-9.6.2-19.2.1-29.6.1 1.1 19.3-.2 39.1 1.3 58.9 1.3 17.2.6 34.6 1.2 51.9 1.2 38.5 2 76.9 4 115.4.9 16.6 1.8 33.2 2 49.8.1 11.3-2.3 15-13.5 19.3-15.9 6.1-31.4 3-46.2-4.1-4.1-2-6.2-5.3-5.7-11.3 1.3-15.6 1.5-31.3 1.1-46.9-.7-29.6-.5-59.1.4-88.7.2-6.8-2.3-12.9-2.1-19.6 1-30.8 1.5-61.6 2.2-93-5.2.9-6.1 6.2-9.7 8.2-3.4 1.9-6.5 4.5-9.7 6.8-1.3 1-2.5 2.7-4 2.9-8.4 1.4-7.8 7.3-7.6 13.5.9 25.9 2.1 51.8 3 77.7.5 16.8 1.3 33.7 2 50.5.3 6.6 1.2 13-.2 19.6-1.3 6.6-2.9 8.3-9.9 8.4-5.3.1-10.7.2-16 0-9.5-.4-20.6-11.2-20.6-20.7-.2-21.9.1-43.8.1-65.7 0-21.3-.2-42.5-.3-63.8 0-1.3.3-2.7-1.5-4.3-7.7 1.5-14.2 7-21.8 9.7-14.3 5.1-28.9 7.2-43.9 7.5-13.9.3-25.5-6.7-37.1-12.8-4.8-2.5-5.8-11.6-2.9-16.6 2.5-4.3 5.1-8.6 7.2-13.1 1.3-2.9 1.4-6.1-2.8-7-2.9-.7-5.8-1.2-8.3-3.1-2.3-1.7-4.9-3-7.3-4.4-2.1 1.6-2.8 3.5-2.8 5.4.1 18.8-5.5 36.6-8.5 54.9-3 18.6-5 37.4-7.7 56.1-3.6 25.2-7.2 50.5-11.3 75.6-1.4 8.5.3 17.2-2.8 25.5-2.7 7.3-4.4 13.6-14.8 14.1-10.1.4-20.1 3-30.3 1.4-8.7-1.4-12.2-5.7-11.4-14.4.9-9.2 2.4-18.4 3.9-27.5 3.9-24.5 8.2-48.9 11.9-73.5 4-26.1 9.3-52 12.9-78.2 2.7-19.9 7.1-39.6 10.7-59.5 1.5-8.4 2.8-16.9 4-25.4.5-3.2.5-5.4-4.3-6.6-9.7-2.3-19.6-3.3-29.3-5.2-9.7-2-19.5-3.6-27.4-10.4-7.2-6.2-7.1-9.3-.4-16.1 4.5-4.6 10.2-6.7 16-7.1 21.8-1.4 43.3-6.6 65.2-6.8 2.4 0 4.4-.8 5.9-2.5-1-2.5-3-3.1-4.7-4-27-14.9-49.4-35.6-71.4-56.7-15.1-14.4-30-29.1-44.2-44.4-15.1-16.3-28.3-34.1-40.8-52.5-18.5-27.2-34.8-55.8-47.9-85.9-12.9-29.6-26.9-58.7-34.8-90.4-2.7-11-7.1-21.9-9.3-33.2-3.5-17.8-5.6-35.9-7.4-54-3-31.1-6-62.2-4.6-93.4 1.2-26.5 3.5-52.9 5.1-79.3 1.3-20.1 6.2-39.3 9.5-58.8 2-11.7 5.6-23.1 8.9-34.6 5.7-19.4 12.9-38.2 20.8-56.8 11.7-27.6 26.9-53.2 43.6-77.9 22.8-33.8 47.6-66.3 75.8-95.9 6.8-7.2 13.7-14.5 21.9-20.4 14-10.1 24.8-23.8 38.6-34.2 25.1-19.1 50.6-37.5 77-54.7 20.8-13.6 43.1-24.5 65.8-34.7 27.8-12.4 56.5-22.7 85.7-30.8 29.6-8.1 59.3-16 89.7-21.1 16.4-2.7 32.7-4.4 49.2-6 9.5-.9 18.7-3.1 28.4-3.4 19.9-.5 39.9-.4 59.5 2.2 26.2 3.5 52.7 5.5 78.8 10.1 9.7 1.7 19.4 4 28.9 6.4 19.9 5 39.6 10.9 58.7 18.3 24.7 9.6 47.4 23.5 70.5 36.3 21.1 11.7 39 27.5 58.6 41.1 15.3 10.6 28.7 23.4 42.5 35.8 11.8 10.7 23.3 21.6 34.6 32.9 14.2 14.1 26.5 29.7 38.3 45.7 2.6 3.6 5.3 5.7 9.3 6.3 21.2 3.2 37.8 14.6 54 27.8 19 15.4 31.8 35.7 45.3 55.2 7.2 10.4 12.1 22.6 15.8 35.2 2.5 8.8 7 17.1 9.4 26.1 6.7 25.8 11.1 51.9 10.3 78.6-.3 9.4 1.8 18.1 5 27 7.8 21.8 13.2 44.3 16.6 67.3 1.5 10.5 2.2 21.1 3.1 31.6.3 4.3 1.7 6.3 5.3 8 17.4 8 34.8 16.1 52.1 24.3 2.6 1.2 5.2 2.7 8.7 4.5zm-255.9-394.6c-1.7-4.6-4.1-7.3-6.5-10-6.5-7.5-13-15.1-19.9-22.3-11.1-11.8-21.9-24-34-34.8-13.4-11.9-26.6-24.1-41.1-34.6-12.9-9.3-24.8-19.8-37.8-29.1-15.1-10.8-31.4-19.4-47.6-28.4-12.4-6.9-24.8-13.5-38.3-18.3-7.1-2.5-14.7-3.8-21.5-7-7.6-3.6-15.5-6.1-23.6-8.3-23.3-6.3-47-11.4-70.7-14.9-27.4-4-55.1-6.9-83.1-7-17.8-.1-35.8-.7-53.3 1.5-26.9 3.4-53.5 8.7-80.1 14-23.3 4.6-46.6 9.4-69.3 16.8-6.9 2.3-13.6 5.3-20.6 7.3-27.1 7.9-52.8 19.3-77.9 31.8-14 7-26.7 16.1-40.3 23.7-20.3 11.4-39 25.1-57.4 39-22.1 16.8-42.6 35.9-62.8 55.1-30.7 29.1-56.4 62.4-81.5 96.2-14.7 19.8-25.1 42.1-38.2 62.8-3 4.7-5.1 10-7.7 15-15.2 29.4-20.5 62.1-30.3 93.3-5.8 18.3-6.8 37.7-9.7 56.6-3.3 21.6-4.6 43.4-5.8 65.3-.4 7.6.8 15.3-.6 22.6-2.3 11.9-1.8 23.9-.6 35.6 2.5 24.3 4.7 48.8 9.5 72.9 3.3 16.8 5.9 33.8 9.7 50.5 2.4 10.4 7.2 20 9.8 30.2 7 27.9 20.9 52.9 31.9 79.1 8 19.2 18.3 37.5 29.1 55.5 14 23.4 30.6 44.8 47.5 66 10.4 13.1 22.9 24 34.8 35.5 14.3 13.8 29.2 27.1 44.8 39.3 15.6 12.2 32.4 22.9 48.8 33.9 4.3 2.9 8.9 5.8 15 6.5.1-11.9-2-23.2-1.9-34.7.3-24.3 4.2-47.5 16.3-68.8 2.3-4 2.6-7.5-.4-11-10.1-12.2-15.1-27.1-22.2-40.9-9-17.4-15.9-35.7-23.7-53.7-2-4.6-4.4-8.9-6.1-13.6-6.4-17.9-8.9-36.7-11.7-55.3-3.3-21.7-7.5-43.4-7.7-65.5-.1-15.6-3.1-31.1-2.1-46.8.9-13.1 1.5-26.2 1.3-39.4-.3-22 2.9-43.6 7.9-65 3.2-13.6 8.9-26.5 12.1-40 5.9-24.8 16.5-47.5 30.5-68.5 5.3-8 10.9-16.9 22.6-17.8 1.6 4 2.2 7.3-2.8 8.9-2 .6-3.3 1.9-4.6 3.6-10.8 14.4-20.3 29.4-26.7 46.3-2.7 7.1-4.2 14.7-7.1 21.7-13 31.3-18.8 64.2-21.3 97.6-1.4 18-1.8 36.1-1.1 54.2 1.3 31.8 2.2 63.5 6.9 95 2.3 15.1 3.6 30.4 8.5 44.8 7.9 23.2 17.2 45.8 25.6 68.8 6.4 17.6 16.4 33.2 25.6 49.2 3.6 6.3 8.2 12 12.9 17.6 5.8 6.9 5.6 7 1 14.5-3.8 6.2-7.7 12.4-10.6 19.1-8.9 20.5-12.2 41.7-9.1 63.9.3 2 .4 4 .3 6-.5 8.9 1.8 17.2 5.6 24.9 6.4 13 4.4 25.9 0 38.6-4 11.3-10.2 21.7-18.7 30.3-3.6 3.7-2.7 6.1.3 9.1 5.5 5.5 11.9 9.6 19.6 11.2 4.2.9 5.2 3.3 5.7 6.9 1 7.5-2.5 13.5-6.2 19.4-5.1 8.2-4.8 9.6 3.7 14 1.7.9 3.8 1.2 5.6 2 12.5 4.8 25.2 4 38.1 2.2 18.3-2.6 35.8-6.9 49.7-20.1 3.7-3.5 8.2-5.2 12.8-4.4 12.4 2.1 22.4-4.4 32.7-9 7.6-3.4 13.5-9.3 19-15.8 10.9-12.9 16.3-28.7 23-43.7 9.8-22.1 12-46.1 12.8-69.9.5-15.8-1.3-31.8-2.2-47.7-.5-8.3-.5-16.7-1.9-24.8-4.2-23.1-7.6-46.3-11.6-69.5-7.8-44.6-12.3-89.6-12.2-135.1.1-31.2 2.7-62.1 9.1-92.6 1-4.9 1.4-9.8 2.2-14.7 2.3-14.1 7.4-27.4 12.2-40.9 8-22.3 17.8-43.6 32.2-62.5 2.1-2.7 4.4-4.9 7.5-6.3 3-1.3 5.6.3 5 3.4-.6 2.9-1.5 5.9-3 8.4-6 9.9-11.1 20.3-16 30.8-7.7 16.9-16.2 33.4-20.7 51.5-3.2 12.8-6.9 25.5-7.9 38.9-1 14.9-6 29.2-6.6 44.2-.5 11.2-1.4 22.3-.5 33.6 1 13.7-.6 27.4-.1 41.2.9 24.6 2.3 49.1 5.3 73.5 3 24.2 8.1 48.2 12.2 72.4 1.1 6.5 2.5 13 3 19.6 1.6 19.2 3.3 38.3 4.2 57.5 1 19.9-.8 39.7-3.6 59.4-1.5 10.5-6.5 20.1-7.7 31.5 15.7 2.8 31.2 5.8 46.8 8.3 4 .6 8.2 1.1 11.4 3.2 10.9 7 22.3 13.2 32.5 21.2 18.8 14.6 33.9 32.8 49.7 50.3 12.4 13.6 20.7 30 31.1 45 15.1 22 25.3 46.7 36.8 70.5 10 20.8 19.6 42 25.3 64.7 4.5 17.7 10.9 34.9 10.1 53.6 0 .4.9.9 1.4 1.3 15.7-2.9 31.4-5.4 46.2-11.3 16-6.4 32.3-12 47.8-19.3 17.9-8.5 34.8-18.8 52.5-27.7 15.9-8.1 31.8-16.2 46-27.3 12.2-9.5 26-17.1 35.9-29.4 1-1.3 2.4-2.4 4.3-1.7 1.6.6 1.7 2 1.6 3.3-.4 11.3 2.5 22.3 2.3 33.7-.2 6.7.7 7.1 7.9 6.3 5.3-.6 10.5-1.9 15.2-4.3 19.1-9.8 38.9-18 58.2-27.6 43-21.4 83.7-46 118.7-79.3 8.1-7.7 17.1-14.6 23.8-23.9 10-13.8 18.3-28.3 23.5-44.5 1.6-4.9 2.3-9.8 1.7-14.7-2-16.4-6.8-31.6-17.9-44.5-4.8-5.5-9.9-10.7-14.9-15.9-11.7-12.2-26.8-18.2-42.8-18.3-24.1-.2-42.3 12.5-53.1 33.8-5.6 11.2-12.5 20.9-20.6 30.1-3.2 3.6-5.8 3.8-9.3.9-5.6-4.6-6-10.6-4.2-17 4-14.3 6.7-29.1 6.5-43.8-.3-23.1-2.2-46.3-9.1-68.7-1.7-5.5-4.6-10.3-6.7-15.5-2-5-1.8-8.3 2.7-12 23.9-19.7 44.5-42.7 65.1-65.7 13.8-15.4 24.3-33.1 35.9-50.1 2.9-4.2 3.4-8.2.3-12.7-3.8-5.5-6.4-11.6-8.5-18-4.4-13.3-8.4-26.9-6.3-40.9 3.3-22.3 11.5-42.7 26.8-59.8 11.9-13.2 25.8-22.9 43.6-25.8 3.8-.6 5.3-1.8 6.8-5.5 5.1-12.4 7.6-25.4 11.2-38.1 3.3-11.7 5.9-23.8 5.3-36.3-.2-3.6-.6-5.8-4.2-7.8-11.4-6.2-22.5-12.8-33.6-19.5-26.1-15.8-51.8-32.4-78.2-47.6-16.1-9.3-32.1-18.6-48.1-28.1-5.9-3.5-11.7-8-20.2-10.4 1.9 4.1 1.9 6.8 3.6 9.6 6 9.6 12.2 18.9 21.2 26.1 2.1 1.7 4.7 4 2.9 6.7-1.8 2.7-5.3 1.3-7.2-.1-7.1-5.3-15.1-9.8-20.1-17.6-2.1-3.3-4.3-6.7-7.6-9.3-.8.7-1.9 1.2-2.2 1.9-3.9 11.3-12.5 19.5-19.5 28.7-1.9 2.5-4.2 4.2-6.5 6-2.2 1.7-4.5 2.8-7 0-2.7-3.1-.4-4.9 1.6-6.6 6.9-5.6 10.7-13.2 14.5-21 5.2-10.5 7.6-21.9 10.8-33 4.3-14.6 6.4-29.7 6.9-45 .4-11.8-1.6-23.2-4.1-34.5-4.9-22.2-9.1-44.9-24.1-63.4-.8-1-1.5-2.2-1.8-3.4-.4-1.8-2.6-3.7-.4-5.3 2.3-1.6 4.2-.7 5.8 1.7 4.2 6.3 9.3 12 12.7 18.8 5.7 11.3 9.7 23.2 13.3 35.2 5.2 17.2 5.7 35.2 7.2 53 .2 2.9-.6 6 2.8 8.8 5.8-5.1 12.8-8.6 19.8-12.2 16-8.4 32.4-14.8 50.8-14.5 5.4.1 10.7.8 14.6 4.9 2.1 2.2 3.7 4.5-1.1 6.6-4.5 2-4.1 3.6.7 6 20.7 10.5 41.4 21 62.2 31.4 9.5 4.7 19.2 9.1 28.8 13.4 4.5 2 5.8 1.1 5.4-4.1-2.5-32.3-8.7-63.6-23.3-92.8-1.9-3.7-2.3-7.1-1.9-11.3 2.2-23.5 2-46.9-3.4-70.1-6.9-29.8-16.8-58.3-32.6-84.8-12.3-20.6-28.5-37.1-46.1-52.8-19.4-17.3-43.9-21.8-68.1-27.2-10.1-2.3-20.5-1.5-30.7-2.9-22.3-2.9-44.2-1.3-65.9 4-3.5.9-7.1 1.7-10.7 2.4-1.8.3-3.2-.5-3.8-2.4-.6-1.8-.1-3.2 1.1-4.5 1.2-1.4 3-1.2 4.5-1.8 5.6-2.3 11.9-1.8 17.4-3.6 13.1-4.3 26.6-4.5 40.1-5.2 15.7-.6 30.5 2.4 46.5 2zm10.6 322.3c2.9 5.2 8.3 6.2 12.2 9.1 12.4 9.4 26.4 16.5 39.4 25 17.1 11.2 35.4 20.7 53.3 30.6 27.9 15.4 53.7 34.3 81.6 49.6l8.7 4.8c2.7 1.5 4.1 3.8 2.5 6.6-1.8 3.1-4.2.8-6-.2-13-7.3-26.2-14.5-38.9-22.2-14.1-8.6-27.7-18-42.3-26-11.9-6.4-24.2-12.3-35.4-20.1-8.7-6-17.6-12.2-27.3-16.4-17.2-7.4-32.9-17.2-48.9-26.7-3.4-2-7-3.8-10.5-5.6-2.3-1.2-3.8-.3-4.5 2-3.6 12.1-.3 19.7 11.2 25.8.6.3 1.1.8 1.7 1.1 13.8 5.5 26.1 14 38.8 21.5 22.8 13.5 45 28 67.6 41.9 6.2 3.8 12.9 6.8 18.9 10.9 21 14.5 43.4 26.5 64.5 40.8 18.1 12.2 36.1 24.4 54.7 35.8 20 12.3 38.6 26.9 59 38.6 1.8 1 3.3 2 3.8 4.2.5 2 3.5 3.9.5 6-2.2 1.5-4.1.3-6.2-1.1-23-15.6-46.1-31.1-69.2-46.6-10.2-6.9-11.4-6.6-17.7 4.2-1 1.7-1.7 3.6-2.4 5.4-2.7 7.1-1.9 10.5 3.8 15.9 5.6 5.3 11.7 9.7 18.1 14 9.5 6.5 15.9 14.7 15.6 27.2-.4 13.1-11.5 21.7-23.5 16.8-8.3-3.3-16.6-7-23.5-13-12-10.2-26.1-15.8-41.5-17.8-15.2-2-29.1 2-40.3 12.9-13 12.7-22.7 27.9-28.7 44.9-3.4 9.5-6.7 19.7-5.2 30.2 2.9 20.1 7.2 39.6 21.3 55.7 8 9.2 17.4 15.8 28.8 19.8 4.3 1.5 8.1 1.6 12.5-.2 9.3-3.7 17.9-8.6 26.8-12.9 4.7-2.3 9.3-5.4 14.8-4.4 13.3 2.4 24.6 8.7 31.9 20.1 11.5 17.9 26 32.5 43.7 44.1 9.4 6.2 20.1 8.6 31 8.9 8.3.2 16-3.9 23.4-7.8 12.8-6.9 19.6-17.6 19.5-32.2 0-5-.5-10-1.1-14.9-1.6-14.3 2.6-26.9 10.9-38.3 7.5-10.3 18.8-11 27.8-2.2 5.9 5.7 9 13.1 12.6 20.1 6.9 13.6 14 27.3 24.5 38.5 7.9 8.4 17.2 16 29.4 16.9 11.2.8 22.5-.1 33.7-2.3 32.2-6.2 59.1-21.4 80.2-46.2 12.3-14.4 20-30.5 12.7-50.1-1.1-3.1-1.5-6.4-2-9.7-1.2-7.3 1.8-12.5 7.7-16.9 11.4-8.4 24.6-11.1 38.1-13 23.3-3.3 42.5-13.2 57.1-32.2 15.9-20.8 26.6-43.7 30.1-69.5 2.4-17.8 2.8-35.9-5.3-52.9-4.5-9.6-8.9-19.2-14.1-28.5-9-16.3-22.8-27.7-41.1-29.8-13.9-1.7-28.5-2.3-42.5 1.8-5.2 1.5-10.6 1.2-15.8.7-15.7-1.7-28.5-18.5-25.2-35.3 2.8-13.7 10-23.7 20.3-32 7.1-5.7 10.7-12.9 12.5-21.7 3.2-15.9-.1-30.8-5.5-45.6-4.8-13.2-12.3-25.1-19.7-36.8-7.7-12-16.8-23.1-28.1-32.1-17.4-13.9-36.2-25.8-56.1-35.8-12.8-6.5-26.4-11.3-40.7-12.2-35.8-2.4-69.9 4-101.6 21.7-9.5 5.3-17.8 11.9-23.5 20.9-17.3 27.5-17.2 56.3-4.2 85.3 5.3 11.8 13 22.4 20.7 32.8 3.9 5.3 5.4 11.3 6.8 17.3 1.6 7-3.2 16.5-9 18.4-7.9 2.5-16.2 4-24.4 2.8-3.8-.5-7.2-.2-10.7.8-14.6 4.1-23.1 14.9-29.6 27.6-2.8 5.5-.7 11 4.7 13.2 21.4 8.9 41 21.9 63.2 29 3.3 1.1 5.4 3.7 8.5 5 1.8.8 2 3.4 1 5.4-1.3 2.5-3.2 1.7-5 .7-7.6-4.2-15.8-7-23.5-10.9-21.3-10.7-42.9-20.8-64.6-30.6-13-5.8-25.7-12.4-38.7-18.3-26.3-11.9-52.6-23.6-79-35.4-19.9-8.9-39.7-18.3-59.9-26.5-8.9-3.6-16.9-9-25.8-12.5-4.4-1.7-8.5-2.4-13.5-1-10.6 3-20.1 8.1-29.9 13.1zm-595.7 802.5h.1v12c-.2 35.3-.3 70.5-.5 105.8 0 3 .1 6 .3 9 .1 2 .4 3.7 2.9 4.6 12.2 4.5 24.6 5.3 37.2 2.6 5.2-1.1 8.3-3.9 8.3-10.4-.1-10.3-1.6-20.5-2-30.7-1-26.9-2.8-53.7-3.8-80.5-1.6-40.8-2-81.6-3.1-122.5-.3-12.6-1.4-25.1-1.8-37.7-.1-3.7-1.5-5.6-5.3-5.5l-18 .3c-2.1 0-3.8.3-4.9 2.6-2.8 6-6.8 11.1-8.1 18-2.3 11.9-1.3 23.8-1.6 35.7-.4 18 .1 35.9.2 53.9.1 14.2.1 28.5.1 42.8zm-192.1-172.5c-13.1-1.4-25.6-2.5-37.9-4.2-5.5-.8-7.2 1.8-7.7 6.3-2.6 25.4-8.2 50.4-12.3 75.6-2.6 16.4-3.5 33-7.3 49.1-6.9 28.7-11.4 57.9-15 87.2-1.9 15.4-3.1 30.9-7 46-2.2 8.7.3 11.7 9.6 10.9 5.6-.5 11.2-1 16.8-1.1 8.3-.1 10.7-1.9 12.3-10 2.3-12 4.8-24.1 5.9-36.3 2.1-22.8 6.5-45.3 9.4-68 3.7-28.9 10.2-57.4 14.4-86.2 2.3-15.5 7.7-31.1 1.2-47.1-1.3-3.2.2-6.2 3.9-8 5.9-3 10.9-7.1 13.7-14.2zm147.5 114.9c1.5-9.9-1.2-21.4-1.4-33-.1-6.4-.6-6.7-6.9-6.5-3.6.1-7.3.3-10.9.5-6.8.3-7.6 1-7.9 7.4-.2 4.6-.1 9.3-.1 13.9-.3 38.7.2 77.5 1.4 116.2.4 12 0 12 11.4 15.8 2.2.7 4.4 1.5 6.7 1.8 8.4 1.3 11.4-1.4 11.8-10 .5-9-1.3-17.9-1.4-26.8-.3-25.8-.7-51.7-2.7-79.3zm183.2-42.3c-1.3 3.1-1.4 5.9-1.3 8.9.3 7.9.7 15.9.6 23.8-.4 32.9.5 65.7 1.3 98.5.1 6 .6 11.9.5 17.9-.1 5.5 2.7 8.8 7.3 10.7 3.3 1.4 6.5 3.2 10.3 3.4 7.5.4 7.8.1 9.6-7.5.8-3.3.7-6.6.7-9.9-.2-20.9-1.6-41.8-1.6-62.8 0-16.6-1.1-33.2-1.8-49.8-.1-2 .1-4-1.3-5.7-7.6-9.5-14-19.9-24.3-27.5zm637.5-545.3c-.4 12.8-2.2 23.7-5.4 34.4-3.7 12.4-7 24.9-10.6 37.3-1.3 4.5-.2 6.2 4.9 7.2 14.5 2.8 27.6 9 38.9 18.7 4 3.4 8.6 6.2 13.3 8.7 4.4 2.4 13.3.7 15.5-2.8 2.7-4.4 1.5-8.8-.9-13.2-2.2-3.9-5.4-6.6-8.6-9.5-8.6-7.7-19.1-13.2-26.3-22.5-3.5-4.5-4.4-8.9-3.7-14.5 1.2-9.2 5.2-17 11.5-24.7-9.4-6.3-18.3-12.3-28.6-19.1zm-980.7 428.4c-20.3 0-40.4 2.7-60.5 4.1-9.8.7-19.5 3.6-29.2 5.8-2.3.5-5.7 1.2-5.6 4.6.1 3.1 3 4.5 5.4 5.1 4.8 1.2 9.2 3.7 14.1 4.7 12.7 2.5 25.3 4.9 38.1 6.6 14.8 1.9 29.5 4.2 44.3 5.4 8.4.7 11.5-.8 12.5-9 .4-3.9 1.9-7.7 2.8-11.6 1.3-5.3-1.1-9.9-3.7-14.1-2.1-3.5-6.2-.9-9.3-1.5-2.9-.6-6-.1-8.9-.1zm219.4 52.6c5.3 2.6 9.3 1.4 13.3.1-3.8 0-7.4-2-13.3-.1zm589.3 1.8c1.1-2.3-.4-2.2-.9-2.8-.5.7-1.1 1.4-1.5 2.2-.5 1.2.8 1.5 1.3 2.1.6-.8 1.1-1.5 1.1-1.5zm55.5-657.8-.7-.7c-.2.4-.5.9-.6 1.3 0 .2.4.4.6.7.2-.5.4-.9.7-1.3z"/><path fill="#0C0C0B" d="M2549 219.6c1.1 4-.7 6.5-4.3 7.7-9.6 3.1-16.4 9.9-23.1 16.7-5.8 5.9-11.8 11.7-17.2 18.1-12.3 14.4-20.2 31-23.7 49.7-2.1 11.1.7 21.4 6.4 30.4 8.8 13.9 19.6 26.4 32.7 36.7 11.6 9.2 18.8 21.1 15.5 36.3-2.2 10.4-7.9 19.6-14.3 28.3-7.9 10.8-13.8 22.5-18 35.3-5.5 16.8.1 30.8 9.6 43.7 9.2 12.4 22.1 19.4 37.1 23 14.1 3.4 28 7.8 42.7 7.5 1 0 1.9-.2 3.1-.3.4-4.2-1.7-7.8-3-11.4-.8-2-1.5-4 .6-5.1 1.8-1 4-.8 5.6.8 3 3.1 5.7 6.1 6.9 10.6 3.8 14.4 6 29.1 9 43.7.8 3.8.2 7.9.4 11.9.7 17.5 2.6 34.9 1.1 52.7-.9 10.4-.5 21.1-1.3 31.6-.8 10.9-3.4 21.6-4.6 32.4-2.4 21.5-15.4 37.1-27.4 53.2-11.3 15.1-28.4 21-45.7 26.3-23.3 7.1-45.2 1.6-66.7-6.7-4.9-1.9-6.7-.9-8.1 3.3-1.5 4.4-4.8 9.5-3.5 13 1.4 4 7.5 5.7 11.8 7.8 8.9 4.3 18.7 6.2 28.1 9 1.9.6 4.1.5 5.8 1.4 13.8 7.5 28.6 3.7 43.1 4.4 1.3.1 2.7-.1 3.9-.5 17.5-6.9 35.9-12 51.2-23.7 18.1-13.8 31.3-31.3 38.6-52.9 4.2-12.4 11-23.3 18.1-34.1 2.6-3.9 5.9-6.9 11.4-6.9 5.2 0 10.5-1.3 15.7-1.8 9.3-.8 15.2-5.7 18.8-14.1 6.4-15.1 10.4-30.8 11.7-47 1.4-17.5 3.7-35 1.8-52.7-1.2-11.2-1.5-22.5-3.3-33.6-1.6-9.9 2.7-14.6 12.9-15.3 10.5-.7 20.4 1.8 30.4 4.4 7.6 2 15.2 4.4 23.2 2.3 2.6-.7 5-1.6 7.3-3 6.8-4.1 12.7-9.4 18.8-14.5 12.1-10 13.2-23.2 9.3-37.1-3.3-11.8-7.4-23.2-14.3-33.6-8.5-12.9-5.3-24.1 6.5-35.6 10.2-10 22.9-17 36.1-22.8 6.1-2.6 7.4-1.9 10 4.3-2.3 2.6-4.2 4.9-8.1 6.3-11.1 3.9-22.1 8.3-29.4 18.8-6.1 8.8-9.6 16.8-2.8 27.1 5.6 8.6 9.9 18.1 13.1 27.9 5.8 17.5 3 33.6-7.5 48.9-8.9 12.9-20.4 20.8-36 21.8-15.8 1-31.5-.1-46.8-5-2.2-.7-4.3-2.1-6.7-1.1-2.5 1-4.7 2-4.1 5.7 3.5 21.1 2.7 42.2 1.6 63.4-1.1 21.2-2.7 42.2-9.4 62.6-3.9 11.8-10.7 21-20.8 27.9-4 2.7-8.5 4.4-13.2 3.2-9.3-2.4-15.6 2.2-20.2 8.9-4.4 6.5-8.4 13.4-10.8 21.2-2 6.5-5.9 12.5-9.1 18.7-1.5 3-3.4 5.8-4.9 8.7-4.8 9.5-4.7 9.4 4.2 15.3 18 12 34 26.5 49.9 41.1 13 11.9 25.6 24.2 38.1 36.6 22.9 22.8 43.7 47.3 63.3 73 19.5 25.6 36.5 52.9 54.3 79.7 11.7 17.5 20.6 35.9 29 54.8 11.3 25.7 21.2 52.1 30.4 78.7 6.7 19.4 13.2 38.8 18.7 58.6 2.4 8.6 4.4 17.3 6.4 26 1.9 8.7 1.8 8.7 10.9 9.4 2.6.2 5.3.8 7.9.6 11.5-.9 25 10.5 29.2 24.4 1.1 3.7.4 7.2-.8 10.7-2.5 7.2-4.9 14.4-7 21.7-3.8 13.2 1 25.5 4.7 37.8 7.1 23.5 11.9 46.8 10.6 71.9-1 20.2-4.6 39.7-7.8 59.4-2.5 14.9-7.6 29.4-14.8 43-9.3 17.6-18.9 34.9-32.8 49.6-5.2 5.5-11.2 9.7-17.8 12.1-4.3 1.6-7.4 3.7-10.1 7-12.5 15.1-24.1 31-37.9 44.8-23.6 23.7-45.3 49.4-71.3 70.5-6.4 5.2-12.5 10.8-19 15.9-3.7 2.9-4.6 6.3-3.1 10.5.9 2.5 1.8 5 2.6 7.5 3.1 9.8 5.6 19.8 5.2 30.2-.6 15.8.8 31.7-1.9 47.5-1.8 10.6-4.8 20.7-8.8 30.5-4.5 11.1-6.7 22.8-11 33.9-1 2.6-1.7 5.8 0 9.1 4.7.2 8.6-1.7 11.8-5.4 10.3-11.8 19-24.7 24-39.7 1.8-5.3 2.9-10.9 3.7-16.4 1.8-11.5 12.9-22.5 24.8-23.3 16.2-1.1 31.9 1.2 47.1 7.5 9.3 3.9 16.1 10.4 21.7 18.1 8.3 11.2 15.3 23.7 19.4 36.8 9.6 31 7.4 61.5-9.5 90.1-4.2 7.1-8.7 14.1-13.1 21.2s-10.1 13-16.8 18.2c-5.7 4.5-10.6 10.1-15.8 15.2-9.5 9.4-21.1 16.1-32.2 23.2-24.8 16-50.3 31.1-77 43.7-21.3 10-43.3 18-65.5 25.7-3.7 1.3-7.2 3-10.9 4.5-7.5 3-9.8 2.3-13.5-4.8-1.4-2.6-2.1-5.6-3.7-7.1-1.9-1-2.8-.4-3.5.3-12.5 13.5-27.2 24.4-42 34.9-14 9.9-28.3 19.7-43.7 27.6-11.2 5.7-21 13.9-32.6 19.1-17.1 7.8-32.7 18.8-50.9 24.6-15.8 5-31.9 8.4-48.3 10.5-2.3.3-4.7 0-7 .2-4.9.5-8.9-2.5-13.3-3.9-7-2.3-1.6-8-2-12-1.6-16.5-2.3-32.9-5.9-49.2-6.5-29.8-14.3-59.2-24.8-87.8-4.3-11.8-11.8-22.2-16.7-33.9-8.4-20.2-17.9-39.9-29.6-58.5-3.8-6.1-7.9-11.9-13.2-18.6-2.2 5.9-1.7 10.6-1.3 14.9 1.2 13.2 1.7 26.3 1.8 39.5.1 19.6 2.1 39 3.2 58.5.9 15.9-2.4 26-24.5 26.9-9.5.4-16.1-5.9-17.5-15.6-2-14.1-.9-28.3-1.2-42.4-.3-18.2.2-36.4-1.9-54.5-.7-6.2-.1-12.5-.2-18.7-.2-16.3-.4-32.6-.7-48.9-.1-8.5-.5-8.6-8.8-10-16.9-2.8-33.9-5.9-50.7-8.9-2.7 3-1.8 6.5-1.5 9.6 2 22.8.6 45.7 2 68.4 1.4 23.1.5 46.3 2 69.3.8 12.9.3 25.9 2.2 38.6 1.9 12.4 2.2 24.8 4 37.1 2.2 14.6 2.1 39.2-.4 52.4-1 5.5-3.4 8.6-9.3 9.9-15.9 3.4-30.8 1.7-45.1-6.2-4.5-2.5-6.6-5.7-6.5-11.2.3-19 0-38 .1-57 0-8-1.4-16-1.1-23.9.8-22.2-1.2-44.3-1.1-66.5.1-23.2-.3-46.4-2.9-69.6-.9-7.6-.7-15.4 0-23 .9-9.6-.7-19-.5-28.5.1-4-1.2-6.1-5.7-6-9 .1-17.9-.3-26.9-.6-3.9-.1-4.9 1.4-4.6 5.5 1.2 17.1 1.3 34.3 1.3 51.5 0 25.8-1.1 51.5 1.1 77.3.8 9.3-.7 19.1-.8 28.7 0 2.3-.1 4.7.2 7 1 7.4.7 8.9-6 11-11.3 3.6-22.3 1.9-32.7-3.6-2.8-1.5-3.8-4.3-3.7-7.6.7-19.6-1.3-39.2-.2-58.9.6-11.2.1-22.5-1.5-33.8-.9-6.9-.7-14 0-20.9 2.2-19.2.1-38.5 1.4-57.8.3-3.9-1.9-4.5-4.8-4.4-6.3.3-12.6-1-18.9-1.2-13.3-.5-26.2-3.1-39.2-5.8-8.6-1.8-17.7-1.2-26.2-3.3-6.5-1.6-7 1.7-7 5.9-.2 26.7-8.5 52.2-10.7 78.6-1.6 19.4-4.4 38.8-6.8 58.1-3 23.9-6.1 47.7-9.1 71.6-1.6 12.5-2.7 24.9-4.9 37.3-1.2 6.5-2.8 10.1-9.1 10.7-17.2 1.6-34.4 2.3-49.6-8.8-3.2-2.4-4.2-4.2-4.1-7.9.4-17.3 3.1-34.3 6.3-51.2 3.2-17.2 4.7-34.7 7.9-51.9 5.9-31.5 9.9-63.4 15.5-95 2.9-16.3 5.1-32.7 7.9-49 1.4-7.9 1-7.9-7.5-10-7.2-1.8-14.7-2.3-21.4-7-5.4-3.8-8.9-8.7-12.7-13.5-2.1-2.6-1.2-5.4 1.4-6.8 4.9-2.6 9.6-5.4 15.1-7.2 21.5-6.8 43.5-10.9 65.6-15.1 4.1-.8 8.1-2 12.1-3-.4-3.4-2.5-4.4-4.5-5.4-22.2-11.5-42.2-26.1-62.2-41-16.4-12.3-32.3-25.3-48.2-38.1-9.1-7.3-16.6-16.3-24.9-24.4-16.7-16.6-31.8-34.7-45.3-54.1-16.3-23.5-30-48.5-41.1-74.8-4.6-10.8-8.5-22.2-11.9-33.6-.1-.3-.4-.6-.4-.9.5-14.2-8.5-21.4-19.1-28.6-16.4-11.1-29.2-26-39.8-42.7-5.2-8.1-11.7-15.2-16.6-23.6-9.1-15.6-15.1-32.4-20-49.7-3.7-13.4-8.3-26.6-12.3-39.9-3.4-11.1-5.2-22.5-5.6-34.2-.5-14.1-2.3-28.2-3.2-42.4-.4-6.9-.6-13.8.7-20.9 1.9-10.4 2.6-21 4.5-31.4 3.3-17.6 8-34.8 15.6-51 3.4-7.3 8-13.7 12.7-20.2 12.8-17.8 25.7-35.5 42.2-50.1 15.6-13.9 30-29.2 47.2-41.3 3.5-2.5 7-5.1 10.8-7 14.7-7.7 22-21.7 29.3-35.2 11.1-20.3 26.5-37.3 40.3-55.5 18-23.7 39.9-43.6 60.3-64.8 22.1-23 46.5-43.4 72.9-61.6 24.5-16.9 49.6-32.8 75.7-47.1 11.3-6.2 22.9-11.6 35.1-16.1 8-2.9 15.7-6.7 23.4-10.4 11.9-5.7 24.5-10.3 36.9-13.8 17.1-4.8 27.6-17.4 40.5-27.2 27-20.7 55.5-38.2 87.8-49.3 8.7-3 17.4-6.4 26.2-8.9 16.3-4.7 32.8-7.8 49.8-8.5 16.5-.7 33-1.9 49.5-3.2 6.1-.5 11.8 1 17.7 1.7 19.1 2 37.8 5.2 56 12.1 24.8 9.5 44.5 25.5 61.1 45.5 7.2 8.6 14.8 17.1 19.9 27.4.8 1.7 2.4 3.9 4 4.3 10.9 2.3 19.7 9.3 29.9 13.1 4.1 1.5 5.8.5 7.6-3.2 7.7-15.5 12.1-32 15.7-48.8 6-27.5 4.8-55.3 3.1-82.9-.9-14.5-2.2-29-4.8-43.4-1.1-5.9-3.7-7.6-9.4-7.5-20.9.4-40.8-5-59.6-13.5-22.3-10.1-36.5-28.2-43.7-51.5-2.3-7.5-1.1-15 1.5-22.3 5.1-14.5 11.9-28 19.9-41.1 4.9-7.9 8.7-16.2 11.1-25.4 2.2-8.3-.4-14.1-6.1-19.5-12.2-11.8-22.6-25.1-33.8-37.8-12.6-14.3-16.2-30.8-11-49.1 10.2-35.7 31.2-63.3 63.2-82.2 5.2-2.4 10-5.1 15.7-3.5zm-740.8 805.1c8.4-3.1 16.7-6.4 25.2-9.1 5.2-1.6 9 .4 9.6 4.4.7 4.7-3.8 4.1-6.1 4.9-18.4 6-35.2 15.4-52.1 24.4-19.7 10.5-36.2 25.7-53.2 40-24.4 20.5-46.5 43.6-61.8 72.1-2.5 4.7-4.9 9.4-7.6 13.9-6.3 10.3-10.1 21.4-13.4 32.9-3.3 11.3-3.3 22.8-4.8 34.3-2.8 22.2-2.6 44.3.2 66.5 2 15.8 5.7 31.2 9.2 46.6 6.6 28.6 16.1 56.2 31.9 80.9 19.7 30.8 44 57.2 77.3 74.2 11.8 6 23 13.5 35.6 17.7 12.2 4.1 24.1 9.1 36.3 13.1 3.7 1.2 6.7 3.4 8.6 7.4 7 15 14.2 30 22.7 44.3 13.4 22.3 29 43 47.7 61.2 6.8 6.6 18.3 8.8 25.8 5.2 3.5-1.7 4.3-3.8 2.1-7.1-2.6-3.9-5.4-7.6-7.6-11.7-4.4-8.5-10.2-16.5-9.1-26.9.7-6.8 6.4-10.5 12.6-7.6 2.4 1.1 4.6 2.7 6.6 4.4 10.8 9.5 22.7 17.4 34.7 25 11.5 7.2 23.5 13.7 38.2 7 7.6-3.5 11.3-9.9 16-15.8 3.2-4 2.4-6.6-.8-10.3-5.4-6.3-12.9-10.4-17.3-17.6-5.5-9.1-12.6-17.1-19-25.5-3.9-5-7.4-10.3-7.1-17.1.5-9.3 6.2-12.9 14.9-9.5 6.9 2.7 12.9 6.7 18.3 11.7 8.1 7.5 17.7 12.7 27.7 17.2 3.5 1.6 7 2 10.6 1.8 6-.4 13.5-8.1 11.6-13.4-3.1-8.9-5.7-18.2-13.4-25.1-10.4-9.3-20.3-19.3-30.1-29.2-8-8.1-14.7-17.3-19-27.7-9-21.8-5.6-41.5 11.8-58.2 5.1-4.9 8.4-11 10.4-17.8 4.5-15.6 1.3-30.4-5.8-44.3-3.6-7.1-9.9-12.5-17.7-15.3-4.9-1.8-6.4-.8-7.1 4.5-1.2 8.8-2.3 17.7-3.3 26.5-1.1 9.5-4.2 18.1-11.5 24.6-6.3 5.7-12.2 5.6-17.8-1-5.2-6.2-11.3-8.7-19.3-7.2-13.4 2.5-23.8 11.1-35.3 17.4-.5.3-.6 1.2-.9 1.7-7 10-11.6 10.8-21.3 3.4-4.5-3.4-9-6.8-13.2-10.6-17.4-15.7-32.5-32.4-36.9-57.2-3.8-21.7-2.3-43 4.4-62.8 11.6-34.6 34.1-62.4 63.2-84.7 9.7-7.4 18.7-15.6 30.5-19.8 3.5-1.3 7.1-1.8 10.7-2.2 2.9-.3 5.2.2 5.5 4 .2 3-.8 4.4-3.7 4.7-3.1.3-5.5 2.1-8.1 3.5-23.6 13.5-42.8 32.1-60.5 52.3-12.2 13.9-20.1 30.3-25.7 47.9-1.7 5.4-4.2 10.5-4.7 16.2-1.7 19.1.9 37.8 8.4 55.4 7.2 16.9 20.6 29.1 33.7 41.3 2.4 2.3 5.7 3 8.6-.2 6-6.5 13.8-10.5 21.7-13.6 17-6.6 34.2-9.7 50.3 3.6 7.2-5.5 8.9-13.2 9.2-21.2.3-7.3.3-14.6 1.6-21.8 1.5-8.5 6.9-13.5 14.8-15.7 7.9-2.1 15.3.3 21.2 5.7 18 16.3 23.8 37 22.9 60.8-.5 15.8-5.6 28.8-18.8 37.2-6.3 4.1-7.9 9.2-8.6 15.6-1 8.9 1.4 16.9 5.1 24.9 8.7 18.4 21.9 33 36.3 47.1 9.2 9 16.8 19.6 20.4 32.4 3.9 13.7-5.5 27-19.7 28-11.9.8-23.1-.5-32.6-8.9-4.7-4.2-10-7.8-14.8-11.8-3.2-2.7-6.4-5.1-10.5-6.3-1.5 3.4.4 5.1 1.9 6.8 6.9 8.1 13.8 16.1 20.8 24.1 5.6 6.5 10.3 14.3 17.1 19.3 5.4 4 6 8.1 5.8 13.3-.5 10-5.2 18.4-11.8 25.6-13 14.1-32.2 11.9-46.1 5.6-17-7.8-32.4-17.8-46.7-29.7-1.2-1-2.7-2-4.8.1.6 3.6 2.7 6.8 4.4 10.3 3.5 7.1 9.4 12.8 12 20.4 1.1 3.2 1.3 5.7-1.9 7.8-15.1 9.7-25.2 12-39.1 1.7-2.7-2-5.4-4-7.8-6.2-14.4-13.2-26.4-28.6-37.9-44.3-12.9-17.6-23.7-36.5-32.8-56.4-1.9-4.1-4.5-6.1-8.7-6.9-19.5-3.6-37.4-11.2-54.5-21-3.4-1.9-6.5-4.4-10.6-5-1.3 2.4-.1 4.6.5 6.7 4.1 14 8.9 27.6 14.5 41.1 9.9 24.3 25.1 45 40.5 65.8 7.5 10.1 15.7 19.7 23.1 29.8 9.4 12.8 20 23.8 32 33.9 5.3 4.5 10.7 8.8 15.8 13.6 11.3 10.7 22.7 21.2 36.2 29.4 15 9 29.3 19.2 43.2 29.8 16.4 12.5 34.6 22.2 52.3 32.5 13.1 7.6 27.7 12.5 41.6 18.6 30.5 13.5 61.7 25.3 93.7 35 28.8 8.7 57.6 17.2 86.8 24.4 9.6 2.4 19.6 4.3 29.4 4.4 9 .1 15.7 3.9 22.3 8.7 14.7 10.8 26.1 24.7 35.9 39.6 11.4 17.4 22.9 34.8 33 53.1 13.4 24.5 23.7 50.4 34.4 76 5.2 12.4 9.9 25.3 13.2 38.4 4 15.7 8 31.4 9.4 47.6 1.2 13.8 2.5 27.7 4 41.5.7 6.2 2.4 7.6 8.3 6.4 3.7-.8 7.3-.6 10.9-.6 10.4-.1 20.5-1.4 30.2-5.2 11.7-4.6 23.5-9 35-14.1 22.5-9.9 43-23.4 64.5-35.3 12.3-6.8 23.6-15.9 35.1-24.3 17.4-12.8 33.8-26.9 49.1-42.1 9.8-9.8 19.9-19.4 27.1-31.5 2.9-4.8 4.9-10.2 8.9-14.3.9-1 1.8-2 3.4-1.7 2.1.5 2.2 2.3 2.1 3.9-.3 5.7-2.1 11-5.4 15.8-5.4 8-11.7 15.3-17.7 22.8-5.8 7.1-5.8 9.6-1.5 17.5 1.7 3.2 3.8 4.4 7.2 3.3 8.8-2.7 17.9-4.5 26.3-8.4 11.7-5.4 23.6-10.5 35.3-15.9 12.3-5.7 24.7-11.3 36.7-17.7 24-12.8 46.5-28 67.5-45.4 18.8-15.6 36.1-32.3 45.9-55.2 5.6-13.1 11.4-26 11.8-40.8.4-17.9-3-35-9.3-51.4-4.5-11.7-10.9-23-20.7-31.1-12.5-10.3-27.4-14.5-43.6-12.8-7.3.8-12.6 4.1-15.3 11.9-4.4 13.2-9.3 26.3-14.9 39-6.5 14.7-16.1 27.3-30.6 35.2-10.1 5.5-20.4-.8-20.3-12 0-3 0-6.1.9-8.9 5.4-16 9.4-32.3 14.3-48.4 8.4-27.5 9.6-55.3-.5-83-2.2-6-5.6-11.2-8.3-16.9-5.4-11.4-5.2-14.2 4-22.2 9.8-8.5 19.7-16.9 30.2-24.4 9.8-7 18.8-14.7 27.8-22.5 28.4-24.7 51.7-54.2 76.2-82.6 5.9-6.8 10.2-13.8 5.2-23-1-.5-1.7.5-2.6.7-12.7 3.8-18.9.4-21.6-12.4-3.6-17.1-2.4-33 12.3-45.4 6.4-5.4 11.2-12.5 14.6-20.3-3.2-1.5-5.1.6-7.4.8-5.1.4-9-1.2-12.2-5.2-10.1-12.5-10.2-36.9 1.1-48.5 12.5-12.9 25.6-24.9 35.3-40.4 9.6-15.4 17.7-30.9 16.9-49.9-.3-7.3-1.3-14.5-1.4-21.8-.3-26.4-6.6-51.9-11.4-77.5-5.3-28.3-15.6-55.4-23.8-82.9-8.4-28.2-21.3-54.7-33.6-81.4-10.5-22.6-22.7-44.3-35.7-65.5-13.4-22-29.8-42.1-45.6-62.6-22.4-29-47.4-55.5-74.1-80.5-11.4-10.7-24.1-19.9-35.3-30.6-13.5-12.8-28.6-23.4-42.9-35.2-3.8-3.1-6-2.6-8.9 1.2-9.7 12.3-24 18.3-36.7 26.4-13.5 8.6-28.7 12-44.8 10.6-2.3-.2-4.6.2-6.9.5-10 1.1-20.1.4-29.4-2.4-14.8-4.5-30.4-7.2-43.2-17-2.4-1.8-5.1-3.3-6.6 1.7-1.1 3.7-3.8 3.5-7.2 1.7-3.9-2.2-4.7-4.9-4.1-9 1.5-10.6 4.5-20.7 9.3-30.2 3.3-6.5 7.4-12.6 14-16.5 3-1.7 5.1-.8 6.8 1.7 1.5 2.3 2.9 4.8-.3 6.9-1.6 1.1-3.8 1.7-3.5 4.5 1.7 1.9 4.2 2.8 6.7 3.1 9.6 1.1 18.6 4.5 28.2 5.7 20.2 2.6 38.8-.8 56.4-10.9 5.7-3.3 10.3-7.7 13.8-13.6-9.4-5.5-18.3-10.6-28.1-13.9-3.7-1.2-8.2-2-9.6-6.1-2.3-6.4-6.5-11.6-10.1-17-8.4-12.3-17-24.6-29.1-33.9-11.1-8.5-23.3-14.9-36-20.5-6.1-2.6-12-6-18.6-6.7-13.1-1.5-25.6-5.8-38.9-7.2-17.9-1.8-35.6-1.3-53.2-.6-16.4.6-32.9 3.8-48.8 7.9-25.7 6.6-50.7 15.7-73.3 29.8-13.5 8.4-27 16.8-39.7 26.5-23.1 17.6-44.9 36.4-61.3 60.7-1.3 2-2.7 3-4.8 2.4-3.2-1-2.2-3.8-1.5-5.8.9-2.5 2.5-4.7 3.7-7 2.2-4.2 5.5-8 7.2-13.9-5.7 1.6-10.5 2.7-15.1 4.2-13.9 4.5-26.8 11.2-40.2 17.1-11.9 5.2-23 11.7-34.2 18-17.6 9.9-34.6 20.7-51.4 31.8-18.5 12.3-37 24.4-53.5 39.6-6.4 5.9-12.8 11.8-19 17.9-15.2 14.7-31.5 28.4-46.5 43.4-9.5 9.4-16.5 20.7-24.8 30.9-15.3 18.7-29.6 38.2-42.1 58.9-.2.8-.9 2.1-.6 2.3.2 1.5 1.5.9 2.5.3zm1134.3 311.4c-.4 4.9-1 13.4-1.9 21.9-1.6 14-5.7 27.2-15.5 37.8-11.1 11.9-20.2 25.7-32.9 35.8-10.7 8.5-11.5 18.4-8.5 30 3 11.7 9.3 13.6 19.4 6.4 2.3-1.6 3.8-3.5 5.5-5.6 2.1-2.6 4.7-4.7 8.2-5.4 4.1-.7 6.9 1.6 5.8 5.5-1.8 6.3-2.7 13.1-7.1 18.5-8.1 10-14.6 21.4-23.9 30.5-8.2 8.1-9.4 18.9-9.4 29.4 0 8.9 4.2 10.9 12 6.9 15.2-7.9 17.6-4.7 16.8 10.3-.4 7.3 2.8 9.5 9.8 6.9 3.3-1.2 6.3-3 9.1-5.6 12.7-12.1 22.5-25.9 29.4-42.1 5.3-12.5 10.8-24.9 13.7-38.1 6-26.7 7.7-53.8 6.3-81.1-.8-16.1-3.4-32.1-9.1-47.6-7.9-21.4-9.9-43.1-1-65 4.7-11.5 2.8-15.1-8.7-19.3-2.8-1-5.7-1.7-8.6-2.1-10.8-1.6-16.1 3.6-14.7 14.3.1.7.2 1.3.3 2 3.2 17.3 4.1 34.8 5 55.7zm-765.6 804.1h-1.1c-.2 4.6-.5 9.3-.7 13.9-.2 5.1 1.4 8.7 6.9 10.5 8 2.6 15.8 4.6 24.3 4.4 15.9-.3 18.7-2.5 16.4-17.9-3-19.4-3.6-39-4.9-58.5-2.3-33.4-2.7-67-4.4-100.5-1.1-22.4.5-45-2.5-67.4-1.3-10.2-1.9-20.5-1.2-30.8.2-3.8-1.2-6.2-5.2-7.1-2.6-.6-5.2-1.9-7.8-1.3-6.5 1.5-13.2 1.5-19.8 1.6-3.2 0-3.8 1.8-3.9 4.4-.1 8.6-.7 17.2-.5 25.8 1 32.2.7 64.4 2.3 96.7 1.2 24.8.6 49.8.9 74.7 0 3.9 1.1 7.9 1.1 11.8.2 13.4.1 26.6.1 39.7zm-224.3-278.9c-8.2-.3-8.3-.1-9.6 6.6-3.3 16.9-6.8 33.7-9.9 50.6-4.7 25.8-8.7 51.6-13.7 77.3-4.4 22.5-8.3 45-10.1 67.8-1 12.6-3.5 24.9-5.1 37.4-1.4 10.8-3.8 11.4 9.9 14.5 5.8 1.3 11.5 3.1 17.3 4.4 11.1 2.5 19.3-2.9 21.1-13.8.2-1 .3-2 .4-3 1.4-31.2 6.5-62 9.8-93 2-18.4 4.3-36.8 6.5-55.2 2.1-16.8 4.3-33.5 5.6-50.4.8-10.6 1-21.2 3.9-31.5.7-2.6 1.5-6.3-3-7.2-8.1-1.6-16.3-3.2-23.1-4.5zm194.3 11.5c-16.9-4.7-32.9-11.1-49.2-16.4-29.1-9.4-56-24.2-83.6-37.1-4.6-2.2-8.3-4.1-13.9-2.1-5.2 1.9-11.1 1.5-16.7 2.3-17.7 2.6-35.7 3-53 7.6-7.7 2.1-15.5 3.8-23.1 6-4.4 1.3-5.1 4.4-1.4 6.9 4.5 3.1 8.7 6.6 14.8 7.5 23.5 3.5 46.9 8.1 70.4 11.7 22.5 3.5 45.1 7.8 67.8 9 20.8 1.1 41.5 3.9 62.3 3.5 1.6 0 3.4-.1 4.9.4 6.9 2.6 13.9 1.5 20.7.7zm-52.2 95.5c.7 32.3-.6 55.6.9 78.8.5 8.5 3.9 11.7 12.2 12.5 2 .2 4-.1 6 .1 4.8.3 6-1.7 5.9-6.5-.7-31.5-.6-63.1-1.6-94.6-.7-20.1-1.6-40.3-.5-60.5 1-18.9 1.5-13.5-15.6-16.3-3.2-.5-4.4.6-5.2 4-1.9 8.8-1.6 17.8-1.8 26.7-.7 21.7-.3 43.3-.3 55.8zm197.4-55c-.4 10-1.2 17.5-1 25.1.5 28.5 1.2 57 1.9 85.4.4 16.3.5 32.6 2 48.8.2 2.7 0 5.7 2.6 7.2 4.6 2.6 10 2.5 14.4.4 3.6-1.8 6.3-5 6-10.4-1.3-20.9-1.7-41.8-2.8-62.7-1.1-20.2-4.8-40.3-4-60.6.6-14.7-7.7-23.1-19.1-33.2zM1938 1622l-.7.7c.2.2.5.4.7.7.2-.3.4-.7.7-1-.3-.2-.5-.3-.7-.4zM1101 139c9.3-4 18.7-7.9 27.9-12.2 8.5-3.9 17.3-6.7 26.6-7.6 3.3-.3 6.6-.9 9.7-1.8 19-5.6 37.8-3.4 57.1-.8 20.9 2.9 39.3 11.2 57.5 20.4 13 6.6 22.3 17.8 32.5 27.8 2.7 2.7 4.6 6.3 9.4 6.6 3.5.2 4.9 4.3 6.7 7 8.7 13.1 14.3 27.6 18.7 42.6 5.2 17.5 8.8 35.3 10.8 53.4 2.7 23.9 3.3 47.6-.1 71.7-3.2 22.7-10.2 44-18.9 64.6-14.8 34.8-37.2 64-69.7 84.9-10.1 6.4-19.7 13.5-31 17.5-8.6 3-17.1 5.8-26.7 6.5-15.2 1.1-30.3 2.4-45.9 1.4 0 6.2-.3 11.8.1 17.3.5 6.4-.2 12.8-2.5 18.6-5 12.5-8.6 25.8-20.2 34.5-11.1 8.4-23.2 14.5-37.1 15.4-8.1.5-16.5-1.1-24.8-.9-13.6.2-27.2-.7-40.1-5.9-1.9-.8-4.2-2.1-7.8-.8-15.7 87.4-51 165.3-121.1 224.2 11.1 9.1 21.2 18.3 31.2 27.5 14.8 13.6 30.2 26.5 43.3 42 9 10.6 19.9 19.5 28.8 30.3 20.2 24.5 42 47.6 60.7 73.5 14.1 19.7 27.3 40 39.9 60.6 15 24.6 28.6 49.9 39.2 76.9 9 22.8 18.4 45.5 25.1 69.2 4.9 17.2 8 34.8 11.2 52.4 2.1 12.1 4.4 24.2 5.1 36.3 1.2 18.5 5.3 36.7 5.3 55.3 0 9-.6 18.4 2.6 27.2.7 2-.2 3.8-.6 5.8-3.1 15.3-3.5 30.9-4.9 46.4-2 21.8-6.1 43.2-10.5 64.6-3.5 17.4-10 33.6-16.1 50-4.2 11.2-10.8 21.3-16.1 31.9-10.3 20.5-23.5 39.1-37.4 57.1-19.7 25.4-40.2 50.3-63 73-13.4 13.3-27.6 25.7-41.4 38.5-6.8 6.2-6.5 6-1.7 14.4 9.2 16.1 18.9 32.1 26.7 48.9 8.1 17.4 10.4 36.3 7.1 55.5-1.5 8.8-3.7 17.5-5.3 26.2-.5 2.5-1.2 5.2.3 8.4 5-1.9 7.1-6.3 9.7-10.3 6.5-10.1 10.1-21.6 16-32 3.2-5.6 7-10.7 11.4-15 7.5-7.3 17-7.5 27-5.1 19.8 4.7 34.5 16.8 46.9 32 8.5 10.5 16.4 21.3 22.2 33.9 4.8 10.5 6.3 21 6 31.8-.7 30-14.7 55.5-31 79.3-8.5 12.3-20.6 22.4-32 32.5-19.1 16.9-39.4 32.5-61.2 45.9-13.6 8.3-26.2 18.1-40.1 25.8-13.8 7.7-28.1 14.6-42.8 20.5-10.9 4.4-15.5 2.4-20.4-7.9-10.3 5.3-18.8 13.3-29.1 18.5-26.4 13.3-53.5 25.4-81.7 33.9-31.8 9.5-64.5 16-98 12.6-9.4-.9-20.1 0-27.8-8.6-1.8-2-3.6-3.4-3.9-6.3-2.4-24.2-9.7-47.4-16.5-70.5-7.2-24.7-15.3-49.2-24.8-73.2-9-22.6-19.8-44-32.3-64.8-1.8-3.1-3.8-6.1-6.8-8.5-2.4 2.2-1.7 5.1-1.7 7.4.3 29.8.7 59.6-.4 89.5-.2 4.9.1 9.8-.1 14.8-.2 5.4-1.4 7.8-6.9 8.4-2.9.3-5.6 1.3-8.7 1.1-6.5-.4-13-.3-19.5.3s-8.3-1.6-8.5-8c-.6-33.1-1.6-66.1-1.7-99.2-.1-19 .5-37.9.5-56.9 0-5.3-2-7.2-6.6-7.9-3.6-.5-7.2-1.6-10.8-1.5-12.3.2-24.5-1.6-36.7-2.1-5.8-.2-6.9.6-7.1 6.4-.5 12.5-.1 25.2-1.3 37.6-1.9 18.6.4 37.3-2 55.7-2.7 20.5-3.1 41-4.1 61.5-1 20.8-1.7 41.6-4.8 62.2-.4 2.7.1 5.2.6 7.8 1.9 11.2-5.1 22.4-18.3 23.3-11.3.8-22.3-1.4-33.4-2.5-5.1-.5-7.2-3.3-7.1-8.7.3-17.1.6-34.2 3.1-51.1.2-1.3.2-2.7.1-4-1.7-16.9 1.8-33.6 2.3-50.4.5-19.6 3.6-39.1 2.4-58.7-.3-4.4 1.1-8.5 1.4-12.8 1.6-22.5 3.2-45 4.6-67.5.5-7.3.2-7-7.8-9.1-15.5-4.1-31.2-6-47.2-5.4-4 .1-7.7.1-7.4 5.4 1.1 16-2.3 31.7-1.9 47.6.5 19.6-1.9 39.1-2 58.7 0 11.1-1.1 22.5-2 33.8-.2 3.3-1.2 7.2.2 9.7 3.3 6-.8 7.4-4.5 8.1-9 1.8-17.8 3.8-27.3 1.1-14.4-4.1-16.7-9.8-15.7-22.3 1.4-18.5 4.2-36.8 3.3-55.5-.9-19.9.2-39.9.3-59.9 0-5.7.9-11.3 2-16.8.5-2.8 1.2-5.6.4-8.7-.8-3.6-2.2-4.8-5.9-5.2-7.3-.7-14.5-.8-21.8-1.4-11.2-.9-22.3-3.2-33.6-3-12.6.2-24.7-3.8-37.1-5.8-6.5-1.1-13.1-.1-19.5-1.6-2.8-.6-3.9 1.6-3.9 3.3.3 12-4.3 23.6-3.9 35.5.4 12.1-2.1 23.7-3.4 35.5-2.4 21.6-6.2 43-9 64.6-2.9 21.9-5.2 44-8.2 65.9-1.9 13.7-5.6 27.2-5.8 41.2-.1 5.9-4.3 9.5-10.4 10-14.2 1-27.8-1.4-40.4-8.2-5.9-3.2-8.4-7.7-7.8-14.7.8-10.3 2.6-20.3 4.4-30.5 4.6-25.4 8.6-50.8 13.6-76.1 4.5-22.7 6.9-45.7 11.2-68.5 3.7-19.8 6.2-39.8 10.4-59.6 1.1-5.2-.3-7.2-6.1-8-6-.8-11.6-3.4-17.3-4-8.6-.8-10.5-7.5-13.4-13.1-2-4 1-7.8 4.4-10.2 6-4.1 12.9-7.2 18.2-12.1 7.4-6.8 18.5-6.5 25.2-14.2 7.1-.1 13.7-3.8 20.8-3.4 2.3.1 4.6.7 7.1-.8-2.5-4.9-7.4-7.5-11.2-10.9-15.3-13.7-30.2-27.8-45-42-5.1-4.9-9.1-10.6-13.7-15.7-19.1-21.3-34.4-45.5-51.8-68.2-12.1-15.7-21-33.5-30.7-50.8-10.5-18.8-19.7-38-27.1-58.3-4.9-13.3-11.4-26.1-15.6-39.8-5.2-16.7-11.9-32.9-15.9-50.1-5.8-25.5-9.7-51.3-12.5-77.3-1.4-13.1-1.5-26.2-1.8-39.4-.4-17.8-1.1-35.7.4-53.4 3.5-41.2 8.3-82.3 20.2-122.1 9.7-32.6 19.6-65.1 32-96.9 9.2-23.6 22.1-45.1 32.9-67.7 7.3-15.4 18.2-28.3 27.9-42.1 20.4-29 45.9-53.3 70.2-78.7 9.4-9.9 20.6-17.7 31.1-26.3 37-30.6 77.9-55.3 120.2-77.6 22.3-11.7 45.9-20.4 69.1-29.9 7-2.9 14.5-5 22-6 12-1.6 22.4-6.4 31.5-13.7 14.2-11.4 30.8-18.3 47.1-25.3 19.1-8.2 38.4-16.4 58.7-21.4 14.3-3.5 28.8-6.2 43.5-7.2 10.6-.7 21-2.7 31.7-2.6 19.8.2 38.5 5.3 57.4 10.5 22 6 41.6 16.8 59.4 30.4 13.4 10.2 27.8 19.4 39.4 31.8 2.2 2.4 4.9 4.8 8.4 5 7 .4 13.7 2.1 20.3 4.4 2.4.8 3.5.3 4.8-1.7 21.6-34 35.9-70.6 41-110.9 1.8-14.4 4.8-28.7 5.5-43.4.6-14.6-1.2-29-2.2-43.5-.1-1.6-1.2-3-2-5.1-5.5 2.7-10.8 5.3-16.1 7.9-8.3 4.1-16.6 8.1-26 9.4-7.5 1-14.4 4.8-22 5.8-17.8 2.2-35.4 2.6-53.3.5-13.3-1.5-24.7-7.1-36.2-13-7.4-3.8-15.4-5.8-22.5-10.3-7.5-4.7-14.1-9.8-18.7-17.3-.9-1.4-1.6-3-2.8-4.1-17-17.5-19.8-40.4-23.2-62.9-.5-3.3.4-7.3 2.5-10.5 1.8-2.7 3.5-5.6 3.2-9-2.8-2.5-5.3-.2-7.7.2-21 3.4-41.4.5-61.8-4.3-8.4-2-16-5.9-23.9-9.1-8.3-3.3-13.1-11.1-19.2-17.1-13.1-13-21.1-29.1-28.5-46-7.7-17.4-11.4-35.5-12.8-53.8-1.1-14.6-1.7-29.5.6-44.4 2.2-14.1 5.6-27.9 8.7-41.7.8-3.5 1.2-7.2 5.9-8.2 2.4-.5 3.1-3.3 3.8-5.5 2.1-7.6 6.6-13.7 11.4-19.7 4.7-6 8.8-12.5 14-18.1 16.1-17.2 32.5-34 51.3-48.4 10.4-8 22.9-11.6 34.3-17.3 8.6-4.3 18.3-5.5 27.3-9 8.2-3.2 17-1.5 25.6-2.7 8.5-1.2 17.2-1.6 25.7-2 9.9-.5 20 .6 29.4 3.9 10.4 3.6 21.4 4.2 31.9 7.2 4.9 1.4 6.2-2.6 6.8-5.3 1.4-6 4.2-11.2 6.9-16.4 7.7-14.8 16.8-28.9 27.7-41.3 9.7-10.9 20.7-21.3 33.6-28.7 12.4-7.1 25.1-13.5 39-18.2 20.1-6.7 40.7-8.8 61.3-10.9 10-1 20.4 1.6 30.5 3.3 15.4 2.5 30.7 5.3 44.9 12 23.3 11 44.7 24.6 59.2 46.9 7.4 11.4 10.6 24.1 13.5 37 1.7 7.4 2.1 15.1 4.3 22.4 1.6 5-1.8 10.7 1.3 16.8zM727.8 761.4h.6c4.1 4.9 10.5 4 15.7 5.3 16.1 4.2 28.2 12.4 35.3 27.7.7 1.5 1.8 2.8 2.4 4.3 1.3 3.6 3.5 4.1 6.8 2.5 8.8-4 16.2-10.2 23.5-16.2 3.8-3.1 2.8-6-2.3-7.8-4.3-1.5-8.9-3.2-13.4-3.1-7.5.1-11.4-4.4-15.3-9.5-13.5-17.6-30.8-31-49.7-42.1-15.2-8.9-32.1-13.7-49-18.7-15.9-4.7-31.9-5.2-48-6.3-7.1-.5-14.4 1.5-21.6 2.4-12.4 1.6-25.2 1.9-37.3 5.1-16.5 4.4-33.5 7.4-49.5 13.8-15.1 6-30 12.6-44.1 20.6-18.5 10.5-34.9 24-51.7 36.9-13.8 10.5-26.8 21.7-36.8 36-3.2 4.6-7.1 8.7-15 9.5 6.7-21.2 23.5-34.2 37-50.8-4.9-.3-7.9.7-11 1.9-15.7 6.1-30.8 13.5-46.3 20-21.1 8.8-41.1 19.5-60.7 31.1-16 9.4-30.8 20.9-46.7 30.3-15 8.8-27.4 20.7-41.3 30.8-10.2 7.4-18.2 17.2-27.5 25.6-8.1 7.3-16.5 14.5-23.4 23.2-11.9 15.1-25.5 28.7-37 44.3-13.2 18-25.3 36.5-35.3 56.3-16.7 32.8-29.7 67.2-40.7 102.3-4.6 14.9-8.6 30-13.5 44.7-6.5 19.5-8.9 39.9-12.8 60-2 10.5-1.1 21.2-2.6 31.7-4.2 29.4-4.2 59-3.9 88.6.2 20 3.2 39.6 6.4 59.3 1.9 11.4 2.8 23.2 6.2 34.1 7.3 23.3 13.6 47.1 23.7 69.5 8.8 19.6 16.7 39.7 25.3 59.4 7.2 16.4 17.1 31.3 25.6 46.9 12.4 22.6 27.4 43.7 42.9 64.4 13.3 17.7 26.9 35.2 41.1 52.4 14.5 17.6 32.1 31.4 48.6 46.6 12 11.1 26 19.4 40.1 27.4 4.9 2.8 7.7 6 6.4 11.9-2.6.7-5.2.7-7.9 0-7.8-2.1-14.7-6.2-21.3-10.7-4.1-2.7-8-3.7-12.9-3.8-6.5-.1-12.5 1.9-18.6 3.1-13 2.5-26.2 4.1-38.4 9.8-5.7 2.6-11.6 5-16.6 8.9-4.8 3.7-4.6 7.6.3 11.1 3.3 2.4 7.2 3.2 11.2 3.8 10.8 1.6 21.5 3.4 32.3 5 15 2.2 30 4.8 45.1 6.4 22.1 2.4 44.4 3.7 66.5 6.2 24 2.7 48.2 2.9 72 6.9 2 .3 4.7.7 5.5-2.3-.5-.6-.9-1.3-1.5-1.5-16.5-5-32.7-10.7-49-16.2-7.7-2.6-14.3-6.6-20.9-10.9.1-2.9-1-6.9 4.5-4.6 8.2 3.5 16.4 6.9 24.6 10.3 11.4 4.6 23.3 7.5 34.9 11.4 19.2 6.5 38.9 10.7 58.6 14.9 21 4.4 42.3 7.2 63.5 10.6 17.2 2.8 34.2 3.2 51.5 3.4 11.5.2 23.5 1.4 33.5 7.7 12.4 7.8 23.9 16.9 33.3 28.3 13.3 16.2 24.4 33.9 33.8 52.6 9.8 19.5 20.1 38.8 27.4 59.4 7.2 20.2 12.5 41.1 18.4 61.7 5.7 19.8 9.2 40 12.2 60.3.5 3.6.4 7.7 2.2 10.6 2.4 3.8 7.3 1 11 2 1 .3 1.9.7 2.9.9 9.1 1.8 18.2 2.7 27.6 2.4 17.2-.6 33.7-7.4 51.1-6.5.3 0 .6-.3.9-.4 28.7-9.1 58.2-15.9 85-30.5 5.6-3 10.5-7 16.2-9.8 12.8-6.5 24.2-15 34-25.5 4.6-4.9 7.2-4.6 11.7 1.1 7.2 8.9 8.6 9.4 19.4 5.5 2.5-.9 4.8-2.2 7.4-3.1 14.9-5 27.8-13.7 41.4-21.4 13.3-7.5 25.8-16.1 38.3-24.7 14.3-9.9 26.8-21.8 39.9-33 9.6-8.2 19.6-16.3 26.8-26.8 12-17.6 21.9-36.3 27.9-56.9 3.5-12 4.7-24.2.8-36.3-7.5-23.1-21.5-41.8-40.4-56.6-4.6-3.6-10-6.5-15.8-7.8-11-2.5-21.1-1.8-28.5 8.6-2.3 3.2-4.7 6.2-6.4 9.9-6.7 14.4-14.8 28.2-24.1 41.1-1.4 1.9-2.6 4-4.4 5.4-4.5 3.4-10.6 8-14.9 5.6-4.3-2.4-3.7-9.7-2.2-15.5 3.9-15.1 4.3-30.8 6.3-46.1 1.4-10.5-2.4-20.2-4-30.3-4.3-26.7-18.8-47.8-36.4-67.2-5.8-6.4-5.9-10.4.6-16.6 4.9-4.6 10.7-7.8 15.7-12 22.2-18.6 41.3-40.5 61.5-61.1 20.9-21.2 39.3-44.8 55.3-70.1 9.4-14.9 19.7-29.1 27.5-44.9 7.1-14.3 11.3-29.6 16.2-44.8 8.6-27 12.8-54.5 14.8-82.6.6-8.6.2-17.3 1.6-25.8 1.8-11.1 3.1-22.3 3.2-33.6.2-17.3-2.2-34.4-3-51.6-1.1-23.6-5.2-46.7-10-69.6-4.6-21.3-10.7-42.4-18.1-63-5-13.7-10.6-27.2-15.4-40.9-10.3-29.8-24.4-57.7-42-83.8-2.4-3.6-6-7-6.8-10.9-1.5-7.6-6.1-13-10.1-19-6.4-9.7-15.4-17.4-21.9-27.1-14.7-22.1-31.4-42.7-50.1-61.6-22.4-22.7-42.6-47.4-66.6-68.6-7.7-6.8-15-14.1-22.6-20.9-7.2-6.5-16.7-9.6-23.6-16.3-2.7-2.6-4-2.9-7.2-.8-10.6 6.8-22.4 11.4-34.4 15-11.6 3.5-23.7 4.8-35.7 6.5-15.1 2.2-30.4 2.1-45.6 2.9-13.4.7-27-2.2-40.5-3.4-4.2-.4-6.7-2.7-8-6.4-1.7-4.8-2.7-9.7-1.2-14.7 2.7-9.3 6.8-18 13.3-25.4 2-2.3 4.1-6.5 7.9-4.6 4.6 2.2-1.4 5.7.2 8.9 4.9 1.1 9.6-.5 14.2-2.3 1.8-.7 3.5-1.6 3.3-4.2-.9-11.8-7.5-20.3-15.5-28-6.2-5.9-14.4-5.9-22.2-5.8-10.6.2-19.9 4.7-28.7 10.2-1.4.9-3.4 1.3-4.7.2-1.9-1.6-.9-3.7 0-5.5 1.1-2.2 3.5-2.8 5.4-4.1 7-4.8 15-6.5 23-8.4 1.7-.7 4.9-.4 3.3-4.1zm120.9-260.9c6.3.8 8.8 3.1 10.7 7.2 9 18.9 16.4 38.2 19.9 59.1 4 24 6.8 47.6 4.2 72.1-2.1 19.7-7.1 38.4-12.5 57.1-5.4 18.8-14 36.4-24.1 53.2-4.6 7.7-9.7 15-14.6 22.4-8.8 13.2-17.9 24.8-32.4 33.5-15.4 9.2-31.1 14.1-48.3 16.2-9.5 1.2-11 2.3-12.1 12.1-.3 3-.3 6-.6 9-.4 4.4.9 6.7 5.9 7 7.9.5 15.8 1.8 23.8 1.9 9.4.1 18.5-2.7 27.8-2.1 11.4.8 22.6-1 33.8-2.4 11.1-1.5 22.3-4.1 32.7-8.2 42.5-16.4 74.5-46.3 101.2-82.3 13.1-17.7 22.9-37 30.5-57.7 6.8-18.7 15.4-36.8 19.9-56.2 2.7-12 8.3-23.2 9-35.6.4-6.7 1.9-13.1 3.5-19.5 3.6-14.5 4.8-29.2 5-44.1 0-1.8-.1-3.2 1.4-4.4 1.7-1.4 3-.2 4.5.6 4.4 2.2 6.1 5.3 4.9 10.5-1.6 7.1-2.7 14.3-3.5 21.5-.5 5-5 10.2-.3 15.1 4.1 4.2 10.3 4.4 15.5 6.5 1.8.7 4 0 5.9.5 11.4 2.6 23.1 1.7 34.7 2.4 10.8.6 21.5-1.3 31-5.7 11-5.1 18.1-15.3 24.2-25.8 7.7-13.3 7-27.1 2.5-41.2-.8-2.5-2-4.7-.8-7.6 2.4-6.2 5.9-8.1 13.2-7.2 23.3 3 46.1 2.9 68.5-6.2 7.8-3.1 14.8-7.3 22.3-10.9 14.9-7 27-17.7 38.5-29.4 17-17.1 27.6-38.3 36.6-60 12.8-30.9 18.1-63.8 18.5-97.2.1-9.9-1.2-19.9-2.5-29.7-3.3-25.1-9-49.5-23.4-71-5.7-8.5-11.5-17-17.8-25.1-12.8-16.4-27.9-29.8-46.6-39.1-25.5-12.6-52.6-15.4-80.4-13.5-8.6.6-17.2 3.2-25.3 5.4-20.5 5.4-39.7 14.6-56.5 28.2-2.2 1.8-3.7 4.9-7.5 2.6-3.4-2.1-3.9-4.5-3.2-8.4 2.9-15.4 4.2-30.6 1.8-46.4-3.1-19.8-11.5-36.7-24.6-51.1-15.5-17-35.6-27.7-56.6-36.3-16-6.7-32.3-11.1-49.3-12.7-15.6-1.5-30.5 2.1-45.2 5.7-19.2 4.8-38.2 11.1-55.5 21.2-8.3 4.8-16.8 9.9-23.1 17.2-6.3 7.2-13.3 13.9-18.8 21.7-9.1 13-19 25.3-22.6 41.6-2.2 9.9-3.3 20.1-6 30.3-1.6-.5-2.8-.9-4-1.4-19.3-6.7-37.7-16.3-58.2-19.5-10.8-1.7-21.6-4.7-32.6-2.5-8.8 1.8-17.7 2.5-26.6 3.7-26.7 3.6-50.2 13.8-70.7 31.3-15 12.8-28.3 27-41.2 41.9-15.9 18.4-26.5 39.8-33.1 62.8-2.8 9.7-4 20.1-5.6 30.2-4.1 26.7-.6 52.3 8.7 77.2 10.2 27.4 26.5 50.2 52.1 65.6 6.8 4.1 13.7 8.3 21.2 10.6 21.4 6.7 42.6 3 63.7-2.2 4.3-1.1 9.1-6.2 12.7-1.9 2.7 3.2-1.7 7.9-3.4 11.7-5.9 12.6-8.4 25.5-6.5 39.5 1 7.3 4.3 13.3 7.2 19.5 5.6 12.1 13.3 22.6 23.4 31.9 10.7 9.9 23.2 16.2 35.8 22.7 21.7 11.2 44.4 12.4 67.8 8.6 19.9-3.2 38.2-11.1 55.4-20.9 18-10.2 16.6-8 8.5-26.5-3.9-8.7-7.9-17.3-12.4-27.1zM513.5 1942.9c0-11.3-.1-22.6.1-33.9.1-4.5-1.5-6.7-6.1-7.2-7.6-.7-15.1-1.8-22.7-2.6-8.9-.9-8.7-.9-9.1 8.3-.7 16.9-1.3 33.9-2.7 50.7-2.7 34.4-5.4 68.7-7.3 103.2-1.4 26.1-2.6 52.3-3.7 78.5-.2 4.8 2.1 8 7.3 8.7 8.3 1.1 16.5 1.2 24.8-.6 10.3-2.3 11.3-3.3 11.4-13.9.1-10.3-.7-20.7.3-30.9 2.4-25.5 4.1-51 4.9-76.5.7-28 3.1-55.8 2.8-83.8zm-286.7-58.2c.2-1.7.4-3.3.5-5 .4-5.9.6-7.9-7.1-9-5.2-.7-10.5-.4-15.7-2.3-5.6-2-7.7-.1-8.9 5.9-1.7 8.8-2.8 17.7-4.9 26.4-4.8 20.7-8.5 41.6-11.1 62.6-2.9 23.4-7.8 46.3-11.5 69.5-2.8 17.3-6.5 34.5-8.5 51.9-.8 6.9-2.7 13.7-2.5 20.7.2 7.3 1.4 9.4 8.3 11.4 6.1 1.8 12.3 2.6 18.7 2.8 10.5.4 11.7-.4 13.3-10.6.2-1 0-2 .1-3 .9-8.2 2.1-16.4 2.8-24.7 1.8-20.8 5.1-41.4 8.9-62 3.3-17.5 4.8-35.4 7.4-53.1 4-26.9 9-54 10.2-81.5zm167.8 16.5h.3v-4c-.2-7.7-.2-7.8-7.7-8-4.7-.1-9.3-.2-13.8-1.4-4.9-1.3-6.7 1.3-7.3 5.4-.3 1.6-.3 3.3-.4 5-.1 21.6-.3 43.2-1.9 64.7-.9 12.1.1 24.5-1.4 36.5-1.4 11.2-.3 22.5-2.3 33.7-.7 3.8-1 10.1 5 11.6 5.7 1.4 11.8 2 17.7 2.3 3.9.2 6.1-1.5 6.5-6.6 1.2-18.2 1.6-36.5 2.1-54.7.5-28.2 2-56.4 3.2-84.5zm201.3 15.5c-1.6 8.9-.9 16.2-1 23.4-.1 11.6-1.1 23.2-.5 34.8.5 8.6.1 17.2-.4 25.7-1 17-.7 33.9-.3 50.9.1 2.6 1.4 5.1 1.2 7.8-.9 11.4 1.4 14 12.6 13.7 3-.1 5.9-.8 8.8-1.2 1.9-.3 2.8-1.5 3-3.4.2-2.3.5-4.6.4-6.9-.3-37.2-1-74.5-.7-111.7.1-10.5-3.1-17.9-11.1-23.9-3.5-2.8-7.2-5.6-12-9.2z"/><path fill="#0F1010" d="M1054.6 879.5c1.1.4 2.4.8 3.5 1.4 18.3 9.6 34.5 22 49.5 36.2 18.3 17.2 32.9 37.2 45.1 58.9 12.1 21.6 23.3 43.6 32.2 66.8 6.2 16.4 13 32.5 17.1 49.6 2.3 9.6 4.6 19.3 6.8 28.9.5 2.1 1.4 4.9-1.9 5.7-3.5.8-4.6-1.4-5.3-4.3-1.5-6.1-3-12.2-4.8-18.2-9.8-33.1-21.8-65.3-39.9-94.9-6-9.9-11-20.4-16.7-30.5-10.4-18.3-22.9-35-37.8-49.8-5.7-5.7-9.1-13.1-15-18.3-9.1-8.1-18.7-15.6-29.3-21.8-2.2-1.3-4.9-2.1-6.3-4.7-.7-1.3-1-2.6 0-3.6.5-.7 1.6-.9 2.8-1.4zm172.2 113.9c.1 1.5-.5 3.2-2.1 3.8-2.4.9-4.5 0-5.6-2.5-2.9-6.7-5.5-13.5-8.6-20.1-12.2-26.1-24.2-52.4-43.3-74.5-1.5-1.8-2.9-3.7-4.1-5.6-1.3-2-2.6-4.4-.4-6.3 2.4-2.1 5-.8 7 1.2 3.3 3.3 6.8 6.4 9.9 9.9 12.2 14 22.8 29.4 30.3 46.3 6.1 13.8 11.7 28 15.7 42.8.2 1.5.7 3.1 1.2 5zm1400.7-813.9c0 2.9-1 5.2-4 6.1-15.4 4.6-29.7 11.8-43.6 19.7-1.6-3.3-.1-5.4 2.4-7.6 5.8-5.2 12.5-8.5 19.4-11.7 7.1-3.3 14.3-6.6 22.3-7.6 1.5-.3 2.5 0 3.5 1.1zm261.8 178.2c-3.6-2.9-3.2-6.6-2.4-10.5 2-9.6 4-19.2.8-29-1.1-3.4 1.2-5.5 3.6-7.3 4.1-.3 5.3 2.9 5.4 5.7.6 12.6.9 25.2-3.1 37.5-.8 2.4-2.4 3-4.3 3.6zm-175.5-180.3c-1.7 1.9-3.8 2.4-6.2 2.3-8.5-.3-17-1.5-25.5 1-4.1 1.2-4.8-2.3-5.4-5.3.8-1.3 1-3.5 3-3.5 9.2 0 18.4-1.8 27.6-.3 3.6.6 6.6 1.4 6.5 5.8zm153.9 223.9c-1.9-4.9-.8-9.1 3.3-12.4 4.8-4 8.4-9.5 14.4-12.1 2.2 1.1 4.6 2.9 3.3 5.2-4.3 7.7-9 15.2-17.1 19.6-1 .6-2.6-.2-3.9-.3zm11.1-122.9c-3.2-1-4-4.1-5.4-6.7-2.8-5.1-4-11.1-9.6-14.5-1.8-1.1-.7-3.7-.5-5.6 6.5-1.5 10.8 1.6 13.4 7.2 2 4.4 3.6 9 5.3 13.6 1 3-.2 5-3.2 6zm-92.6-83.2c-.9.2-2 .9-2.8.6-9.1-3.2-18.2-6.5-27.2-9.9-.7-.2-.9-1.6-1.3-2.5.8-.6 1.5-1.7 2.3-1.7 10.8 0 20.5 3.4 29.1 9.8 1.2.9 0 2.4-.1 3.7zm58.2 33c-1.2.5-2.7 1.7-3.5 1.3-6.1-2.6-10.5-7.4-15.2-11.8-1.6-1.5.1-3.7.9-5.5 8 1.1 11.3 9 17.8 12.3.4.3 0 2.4 0 3.7zm-213.6 247c6.6 5.5 8.9 13.3 10.4 20.7 5.5 26.5 10.2 53.2 12.6 80.3 2.1 23.3 5.9 46.5 6.3 69.9.1 5.4 3 11.9-2.9 16.7-1.2 1-1.9 3-3.7 2.6-2.4-.5-2.6-2.9-2.5-4.8 0-8.3.1-16.6.5-24.9.6-14.3-2-28.4-3.6-42.5-1.1-9.5-1.3-19.1-2.5-28.6-2.5-19.6-4.7-39.4-9.3-58.7-1.7-7-1.8-14.3-6.1-20.7-1.8-2.8-.4-6.5.8-10z"/><path fill="#0D0D0C" d="M2669.5 516c-2.5-28 4.6-54.5 13.3-80.7 3.3-9.8 8.9-18.5 14-27.4.8-1.4 1.8-2.9 3-3.9 1.6-1.4 3.3-4 5.9-2.1 2.6 2 .4 4.3-.6 6.2-11.7 23.6-20.5 48.3-23.2 74.4-2.3 21.3-4.7 42.9-2.3 64.5.1 1 .5 1.9.7 2.9.6 2.7-.4 4.7-2.9 5.5-3.3 1.1-5.2-1.2-5.9-3.9-1-3.8-1.8-7.8-1.9-11.7-.3-7.9-.1-15.8-.1-23.8z"/><path fill="#0F1010" d="M2667.3 280.9c4-15.1 3.3-31.6 13.3-45 1-1.3 1.6-3 3.3-3.5 1.2-.4 2.8-.6 3.8-.1 1.7.8 1.7 2.5 1 4.3-2.3 5.9-4.5 11.8-6.7 17.7-3.7 10-6.6 20.1-6.5 30.9 0 3.1 0 6.6-4.2 6.3-3.5-.3-4.6-3.3-4.5-6.6.2-1.4.4-2.7.5-4zm73 56.8c-.3 4.9-3.7 7.5-5.6 10.8-3.8 6.5-8.4 12.6-11.3 19.7-1.3 3.2-3 4.2-5.9 3.7-3.3-.6-4.6-3.4-3.8-5.9 3.7-11 8.4-21.5 18.2-28.7 3.4-2.6 5.5.4 8.4.4zm-130.8 59.2c4.3-.8 6.6 1.3 7.7 5.3 1.8 6.3 4 12.6 5.5 19 1 4.2 1.4 8.4 3.5 12.3 1.1 2.2.2 4-1.8 4.9-2.4 1.1-3.9-.9-4.5-2.7-3.8-12.2-7.4-24.6-11-36.9-.1-.4.4-1.1.6-1.9zm157-92.9c-2.3-3.2-2.2-5.9-.9-8.1 3.8-6.9 8.5-13.2 14.6-18.4 2.2-1.8 4.4-2.9 7.2-2.4 2.1.4 3 2.3 1.7 3.5-8.4 7.4-12.5 18.6-22.6 25.4zm-198.7-18.1c1.8.2 3.1 1.2 3.8 2.7 3.7 7.3 7.4 14.7 10.9 22.1.5 1.1.5 2.6.4 3.9-.1 1.4-.9 2.6-2.3 2.8-.8.1-2-.3-2.6-.9-1.1-1.2-2.2-2.6-2.7-4.1-2.6-7.2-6.2-13.7-10.4-20.1-1.8-3 0-6.6 2.9-6.4zm37 88.5c0 .7-.6 2.2-2.3 2.8-2.3.8-4.2-.5-4.6-2.5-1.2-7.9-5.1-15-6.9-22.7-.5-2-.1-4.1 2.5-4.5 1.8-.3 3.1.5 3.9 2.3 3.3 7.6 6 15.3 7.4 24.6zm58.7-24.2c.6 5.2-1.3 8.9-1.6 12.8-.1 1.4-.8 2.6-2.2 2.7-1.7.2-3.3-.5-3.9-2.3-1.6-4.5-.6-9.1.4-13.5.6-2.5 1.7-5.3 5.1-4.8 4.3.7 2 4.1 2.2 5.1zm-3.1 73.4c-2.4-.3-4.5-1.7-4.6-4.1-.2-3.4 2.7-4.3 5.4-4.3 2.8 0 2.4 2.5 2.5 4.4 0 2.1-.4 3.9-3.3 4z"/><path fill="#FEFEFE" d="M4466.5 913.6c-16 .4-30.8-2.6-45.8-1.8-13.5.7-27 .8-40.1 5.2-5.6 1.8-11.8 1.4-17.4 3.6-1.5.6-3.3.4-4.5 1.8-1.2 1.3-1.7 2.8-1.1 4.5.6 1.9 2 2.7 3.8 2.4 3.6-.6 7.1-1.5 10.7-2.4 21.7-5.3 43.7-6.9 65.9-4 10.2 1.3 20.5.6 30.7 2.9 24.2 5.4 48.6 9.9 68.1 27.2 17.6 15.7 33.8 32.2 46.1 52.8 15.8 26.6 25.7 55.1 32.6 84.8 5.3 23.1 5.6 46.6 3.4 70.1-.4 4.2 0 7.6 1.9 11.3 14.6 29.2 20.8 60.6 23.3 92.8.4 5.2-.9 6.2-5.4 4.1-9.7-4.3-19.3-8.7-28.8-13.4-20.8-10.3-41.5-20.9-62.2-31.4-4.8-2.4-5.2-4-.7-6 4.8-2.1 3.2-4.4 1.1-6.6-3.9-4.1-9.2-4.8-14.6-4.9-18.4-.3-34.8 6.1-50.8 14.5-7 3.6-14 7.1-19.8 12.2-3.4-2.7-2.6-5.9-2.8-8.8-1.5-17.8-2-35.8-7.2-53-3.7-12-7.6-23.9-13.3-35.2-3.5-6.8-8.5-12.5-12.7-18.8-1.6-2.4-3.5-3.3-5.8-1.7-2.2 1.6 0 3.6.4 5.3.3 1.2 1 2.4 1.8 3.4 15 18.5 19.2 41.2 24.1 63.4 2.5 11.2 4.5 22.7 4.1 34.5-.5 15.3-2.6 30.4-6.9 45-3.2 11.1-5.6 22.5-10.8 33-3.9 7.8-7.6 15.4-14.5 21-2 1.6-4.3 3.5-1.6 6.6 2.5 2.8 4.7 1.7 7 0 2.3-1.8 4.6-3.6 6.5-6 7-9.2 15.5-17.4 19.5-28.7.3-.8 1.4-1.3 2.2-1.9 3.2 2.6 5.4 6 7.6 9.3 5 7.8 13 12.3 20.1 17.6 1.9 1.4 5.4 2.8 7.2.1 1.7-2.7-.9-5-2.9-6.7-8.9-7.2-15.2-16.4-21.2-26.1-1.7-2.7-1.7-5.5-3.6-9.6 8.5 2.4 14.2 6.8 20.2 10.4 16 9.5 32 18.8 48.1 28.1 26.5 15.2 52.2 31.7 78.2 47.6 11.1 6.7 22.2 13.3 33.6 19.5 3.6 2 4 4.2 4.2 7.8.6 12.5-2 24.6-5.3 36.3-3.6 12.7-6.1 25.8-11.2 38.1-1.5 3.7-3 4.8-6.8 5.5-17.8 3-31.7 12.6-43.6 25.8-15.4 17.1-23.6 37.5-26.8 59.8-2 13.9 1.9 27.6 6.3 40.9 2.1 6.3 4.8 12.5 8.5 18 3.1 4.6 2.6 8.5-.3 12.7-11.6 16.9-22.1 34.7-35.9 50.1-20.6 23-41.2 46-65.1 65.7-4.5 3.7-4.7 7-2.7 12 2.1 5.2 5 10 6.7 15.5 7 22.4 8.8 45.5 9.1 68.7.2 14.7-2.5 29.4-6.5 43.8-1.8 6.4-1.4 12.3 4.2 17 3.5 2.9 6.1 2.7 9.3-.9 8.1-9.2 15-19 20.6-30.1 10.7-21.3 29-34 53.1-33.8 16 .1 31 6.1 42.8 18.3 5.1 5.2 10.2 10.4 14.9 15.9 11.1 12.8 15.9 28.1 17.9 44.5.6 4.9-.1 9.8-1.7 14.7-5.2 16.3-13.5 30.8-23.5 44.5-6.7 9.3-15.7 16.1-23.8 23.9-35 33.3-75.7 57.9-118.7 79.3-19.2 9.6-39.1 17.8-58.2 27.6-4.7 2.4-9.9 3.7-15.2 4.3-7.2.8-8.1.4-7.9-6.3.3-11.3-2.7-22.4-2.3-33.7 0-1.2-.1-2.7-1.6-3.3-1.9-.7-3.3.4-4.3 1.7-10 12.3-23.8 19.8-35.9 29.4-14.1 11.1-30 19.2-46 27.3-17.6 9-34.6 19.3-52.5 27.7-15.5 7.4-31.8 13-47.8 19.3-14.9 5.9-30.6 8.5-46.2 11.3-.4-.4-1.4-.9-1.4-1.3.8-18.7-5.7-35.9-10.1-53.6-5.8-22.7-15.3-43.9-25.3-64.7-11.5-23.8-21.7-48.5-36.8-70.5-10.3-15-18.7-31.5-31.1-45-15.9-17.4-31-35.7-49.7-50.3-10.3-8-21.7-14.2-32.5-21.2-3.2-2.1-7.4-2.6-11.4-3.2-15.6-2.5-31.1-5.5-46.8-8.3 1.2-11.5 6.2-21 7.7-31.5 2.8-19.7 4.6-39.5 3.6-59.4-.9-19.2-2.6-38.4-4.2-57.5-.6-6.6-1.9-13.1-3-19.6-4.1-24.1-9.2-48.1-12.2-72.4-3-24.3-4.4-48.9-5.3-73.5-.5-13.8 1.2-27.5.1-41.2-.9-11.3.1-22.4.5-33.6.6-15 5.6-29.3 6.6-44.2.9-13.3 4.7-26 7.9-38.9 4.5-18.1 13-34.7 20.7-51.5 4.8-10.5 9.9-20.9 16-30.8 1.5-2.5 2.5-5.5 3-8.4.6-3.1-2-4.7-5-3.4-3.1 1.4-5.5 3.6-7.5 6.3-14.4 19-24.2 40.2-32.2 62.5-4.8 13.4-9.8 26.7-12.2 40.9-.8 4.9-1.2 9.9-2.2 14.7-6.4 30.6-9 61.4-9.1 92.6-.1 45.5 4.4 90.5 12.2 135.1 4 23.1 7.5 46.3 11.6 69.5 1.5 8.1 1.5 16.5 1.9 24.8.9 15.9 2.8 31.8 2.2 47.7-.8 23.8-3 47.8-12.8 69.9-6.6 15-12.1 30.7-23 43.7-5.5 6.5-11.4 12.4-19 15.8-10.3 4.6-20.3 11.1-32.7 9-4.6-.8-9.1.9-12.8 4.4-13.9 13.3-31.4 17.5-49.7 20.1-12.9 1.9-25.6 2.7-38.1-2.2-1.9-.7-3.9-1.1-5.6-2-8.5-4.4-8.8-5.9-3.7-14 3.7-5.9 7.2-11.9 6.2-19.4-.5-3.6-1.5-6-5.7-6.9-7.6-1.6-14-5.7-19.6-11.2-3-3-4-5.5-.3-9.1 8.6-8.6 14.7-19 18.7-30.3 4.5-12.6 6.5-25.6 0-38.6-3.9-7.8-6.2-16.1-5.6-24.9.1-2 0-4-.3-6-3.1-22.2.2-43.4 9.1-63.9 2.9-6.8 6.8-12.9 10.6-19.1 4.5-7.5 4.8-7.6-1-14.5-4.7-5.6-9.3-11.3-12.9-17.6-9.2-16-19.2-31.6-25.6-49.2-8.4-23-17.7-45.7-25.6-68.8-4.9-14.4-6.3-29.7-8.5-44.8-4.7-31.5-5.7-63.3-6.9-95-.7-18.1-.2-36.2 1.1-54.2 2.5-33.5 8.3-66.4 21.3-97.6 2.9-7 4.4-14.6 7.1-21.7 6.4-16.8 15.9-31.9 26.7-46.3 1.3-1.7 2.6-3 4.6-3.6 5-1.6 4.4-4.9 2.8-8.9-11.7.8-17.2 9.7-22.6 17.8-14 21-24.6 43.7-30.5 68.5-3.2 13.5-8.9 26.4-12.1 40-5.1 21.4-8.3 43-7.9 65 .2 13.1-.4 26.3-1.3 39.4-1 15.7 1.9 31.2 2.1 46.8.2 22.1 4.4 43.8 7.7 65.5 2.8 18.5 5.3 37.3 11.7 55.3 1.7 4.7 4.1 9 6.1 13.6 7.8 17.9 14.7 36.3 23.7 53.7 7.1 13.8 12.1 28.7 22.2 40.9 2.9 3.5 2.6 7.1.4 11-12.1 21.4-16 44.5-16.3 68.8-.1 11.5 1.9 22.9 1.9 34.7-6.1-.7-10.7-3.6-15-6.5-16.5-11-33.2-21.7-48.8-33.9-15.7-12.2-30.6-25.5-44.8-39.3-11.9-11.5-24.4-22.4-34.8-35.5-16.9-21.3-33.5-42.6-47.5-66-10.8-18-21.1-36.3-29.1-55.5-10.9-26.2-24.9-51.3-31.9-79.1-2.6-10.2-7.4-19.8-9.8-30.2-3.8-16.7-6.4-33.7-9.7-50.5-4.7-24.1-6.9-48.5-9.5-72.9-1.2-11.7-1.7-23.7.6-35.6 1.4-7.3.2-15 .6-22.6 1.2-21.8 2.6-43.6 5.8-65.3 2.9-18.9 3.9-38.3 9.7-56.6 9.8-31.2 15.1-63.9 30.3-93.3 2.6-5 4.7-10.3 7.7-15 13.1-20.7 23.6-43.1 38.2-62.8 25.1-33.8 50.8-67 81.5-96.2 20.2-19.2 40.7-38.2 62.8-55.1 18.3-14 37.1-27.6 57.4-39 13.5-7.6 26.3-16.7 40.3-23.7 25.2-12.5 50.8-24 77.9-31.8 7-2 13.7-5 20.6-7.3 22.7-7.4 46-12.2 69.3-16.8 26.6-5.2 53.3-10.5 80.1-14 17.6-2.2 35.5-1.6 53.3-1.5 28 .1 55.7 3 83.1 7 23.7 3.4 47.4 8.5 70.7 14.9 8.1 2.2 16 4.7 23.6 8.3 6.8 3.3 14.4 4.5 21.5 7 13.5 4.8 26 11.4 38.3 18.3 16.1 8.9 32.4 17.6 47.6 28.4 13 9.3 24.9 19.8 37.8 29.1 14.6 10.5 27.8 22.7 41.1 34.6 12.1 10.8 22.8 23 34 34.8 6.8 7.2 13.3 14.8 19.9 22.3 1.7 2.5 4.1 5.2 5.8 9.8zm-153 976.2c-3-9.7-5.6-19.1-7-28.9-.5-3.7-.2-6.1 3.1-7.1 6.2-1.8 11-6.1 16.6-9 5.9-3 11.2-7.2 16-11.8 1.5-1.4 2-3.6.5-5.4-1.4-1.7-3.2-2.3-5.2-.8-.8.6-1.9.7-2.7 1.2-16 9.9-33.4 17-50.4 24.8-6.6 3-13.7 4.8-20 8.5-1.6 1-4.1.9-4.9-1.7-.7-2.3 1.5-2.6 2.8-3.4 2.6-1.5 5.2-3 8-4.1 18.7-7.8 36.7-16.8 54.7-26 27.2-13.9 53.5-29.4 80.1-44.4 1.4-.8 2.8-1.8 4.1-2.8 2.4-1.9 3.5-4.4 1-6.7-1.7-1.6-3.6-3.4-6.7-.7-8 7.1-17.6 11.8-26.8 17.1-21.5 12.5-44 23.4-66.5 33.6-20.1 9.1-40.1 18.6-61.1 25.8-3 1-5.9 2.8-8.8 4.3-2.1 1.1-3.4 2.7-1.3 5.6 6.4 8.7 9.5 18.9 10.2 29.4 1 15.8 3 31.7-.3 47.5-2.7 12.6-2.3 25.7-7.3 37.9-1.1 2.7-1.9 5.7-2.4 8.6-.5 3.5-1.7 7.5 1.9 10.1 3.7 2.7 7.8 3.2 12.3 1.3 3.8-1.6 6.9-4.1 9.3-7.3 4.9-6.6 9.5-13.5 14.2-20.3 10.3-14.8 15.3-32.2 23.4-48 6.2-12.1 14.3-21.5 28-22.7 10.1-.9 20.5 1.6 29.6 6.7 20.5 11.4 33.2 29.4 40.6 51.1 4.1 11.9 7.1 24.2 7.9 36.8.2 3.2.5 5.2 4.3 4.8 3.3-.4 4.3-2.2 4.3-5.4 0-4-.8-7.9-1.3-11.8-2.9-22.3-8.9-43-23.3-61.2-8.4-10.5-18.4-18.5-30.2-23.5-10.1-4.3-21-8-32.8-6.2-4.9.6-9 3.7-13.9 4.1zm270.6-759.2c.4-6.9-3.5-12-5.1-18-1.1-4-6.4-7.8-10.2-7.5-3.8.3-6.2 4.1-4.7 7.8 1.6 4 3.6 7.8 5.5 11.6 4.3 8.8 7.2 17.9 5.9 27.8-1.4 10.2-4.1 20-12.4 27.2-6.4 5.5-13.2 9.9-22.1 9.4-2.1-.1-4 .2-4 3.1 0 2.3.9 4.5 2.9 4.6 7.8.5 16.1 2.6 22.9-3.2 8.1-6.9 15.5-14.2 18.8-25 1.7-5.6 3-11.2 4.1-17.3 7.4 10.3 11.8 10 18-.5 4.9-8.4 4.1-17.9 5.5-27 .3-2-1.2-4.5-2.5-6.3-3-4.3-7.1-4.7-11.1-1.3-2.3 1.9-4.1 4.2-5.3 7.1-1.3 2.7-1.9 5.7-6.2 7.5zm-65.1-38.2c0-5 0-10-1.6-14.7-1-2.8-2.3-5.5-6.2-5-7.5.9-14 3.2-18 10.5-3.3 6.1-6.5 12.3-9.4 18.6-5.4 11.7-5.9 23.4-1 35.5 2.1 5.1 4.8 9.1 10.2 9.4 5.4.3 10.3-1.5 13.3-6.9 8.3-14.7 12.2-30.6 12.7-47.4zm-34.1-48.2c12.1-2.7 21.8-10.4 30.1-20 2.7-3.2 4.5-7.3 6.4-11.1.8-1.6 0-3.2-1.7-4.1-1.3-.8-2.5-.8-3.6.1-1 .8-2.2 1.6-3 2.6-8.3 10.6-17.9 19.2-31.5 22.5-2.8.7-6.3 2.6-5.8 6 .7 4.3 5.2 2.9 9.1 4zm-77.2 985.6c-.4-1.5-.1-3.6-2.6-4.4-1.1-.4-2.2-.1-2.6.7-3.5 5.9-6.9 11.8-10.1 17.8-.9 1.8.2 3.8 1.8 5 1.1.8 2.9.9 3.6-.1 4.3-5.6 9.9-10.6 9.9-19z"/><path fill="#DDE8EE" d="M4477.1 1235.9c9.7-5 19.3-10.1 29.9-13 4.9-1.3 9-.7 13.5 1 8.9 3.5 16.9 8.9 25.8 12.5 20.2 8.2 40 17.6 59.9 26.5 26.3 11.8 52.7 23.5 79 35.4 13 5.9 25.7 12.5 38.7 18.3 21.8 9.8 43.3 19.9 64.6 30.6 7.7 3.9 15.9 6.7 23.5 10.9 1.8 1 3.8 1.8 5-.7 1-2 .8-4.6-1-5.4-3.1-1.3-5.2-4-8.5-5-22.2-7.1-41.8-20.1-63.2-29-5.4-2.2-7.5-7.7-4.7-13.2 6.4-12.7 15-23.5 29.6-27.6 3.5-1 6.9-1.3 10.7-.8 8.2 1.2 16.5-.3 24.4-2.8 5.8-1.8 10.6-11.4 9-18.4-1.3-6-2.9-12-6.8-17.3-7.7-10.4-15.4-21-20.7-32.8-13-29-13.1-57.8 4.2-85.3 5.7-9 14-15.6 23.5-20.9 31.7-17.7 65.8-24.1 101.6-21.7 14.3 1 27.9 5.8 40.7 12.2 19.9 10 38.6 21.8 56.1 35.8 11.3 9.1 20.4 20.1 28.1 32.1 7.5 11.7 14.9 23.6 19.7 36.8 5.4 14.8 8.7 29.7 5.5 45.6-1.8 8.9-5.4 16-12.5 21.7-10.3 8.3-17.5 18.2-20.3 32-3.4 16.8 9.4 33.7 25.2 35.3 5.2.5 10.6.9 15.8-.7 14-4.2 28.6-3.5 42.5-1.8 18.3 2.2 32.2 13.5 41.1 29.8 5.1 9.3 9.5 18.9 14.1 28.5 8 17 7.7 35.1 5.3 52.9-3.5 25.8-14.2 48.7-30.1 69.5-14.6 19-33.8 28.9-57.1 32.2-13.5 1.9-26.7 4.6-38.1 13-6 4.4-8.9 9.6-7.7 16.9.5 3.3.9 6.6 2 9.7 7.3 19.7-.3 35.7-12.7 50.1-21.2 24.9-48 40.1-80.2 46.2-11.3 2.2-22.5 3.1-33.7 2.3-12.2-.9-21.5-8.5-29.4-16.9-10.5-11.2-17.6-24.8-24.5-38.5-3.6-7.1-6.7-14.4-12.6-20.1-9-8.8-20.3-8.1-27.8 2.2-8.3 11.4-12.5 24-10.9 38.3.6 5 1 9.9 1.1 14.9.1 14.7-6.7 25.3-19.5 32.2-7.4 4-15.1 8.1-23.4 7.8-10.8-.3-21.6-2.8-31-8.9-17.7-11.6-32.3-26.2-43.7-44.1-7.3-11.4-18.7-17.6-31.9-20.1-5.5-1-10.2 2.1-14.8 4.4-8.9 4.4-17.6 9.2-26.8 12.9-4.4 1.8-8.2 1.7-12.5.2-11.4-4-20.8-10.6-28.8-19.8-14-16.1-18.4-35.6-21.3-55.7-1.5-10.5 1.8-20.7 5.2-30.2 6-17 15.7-32.2 28.7-44.9 11.2-10.9 25-14.9 40.3-12.9 15.4 2 29.5 7.6 41.5 17.8 6.9 5.9 15.2 9.6 23.5 13 12 4.8 23.1-3.8 23.5-16.8.4-12.5-6.1-20.7-15.6-27.2-6.3-4.3-12.5-8.7-18.1-14-5.6-5.3-6.5-8.8-3.8-15.9.7-1.9 1.4-3.7 2.4-5.4 6.2-10.8 7.4-11.1 17.7-4.2 23.1 15.5 46.2 30.9 69.2 46.6 2.1 1.5 4 2.6 6.2 1.1 3.1-2.1 0-4-.5-6-.5-2.2-2-3.2-3.8-4.2-20.4-11.7-39-26.3-59-38.6-18.6-11.4-36.7-23.6-54.7-35.8-21.1-14.3-43.6-26.3-64.5-40.8-6-4.1-12.7-7.1-18.9-10.9-22.5-13.9-44.8-28.4-67.6-41.9-12.7-7.5-24.9-16-38.8-21.5-.6-.2-1.1-.7-1.7-1.1-11.5-6.1-14.8-13.7-11.2-25.8.7-2.3 2.2-3.2 4.5-2 3.5 1.8 7.1 3.6 10.5 5.6 16 9.5 31.7 19.3 48.9 26.7 9.7 4.2 18.6 10.3 27.3 16.4 11.2 7.8 23.5 13.7 35.4 20.1 14.6 7.9 28.2 17.4 42.3 26 12.7 7.8 25.9 14.9 38.9 22.2 1.8 1 4.2 3.3 6 .2 1.6-2.8.1-5.1-2.5-6.6l-8.7-4.8c-27.9-15.3-53.7-34.2-81.6-49.6-17.9-9.9-36.2-19.4-53.3-30.6-13-8.5-27-15.6-39.4-25-3.9-3-9.2-4-12.2-9.2zm77.3 22.3c-2.9.4-3.5 2.1-3.6 4.3-.1 3.8 2.9 5.1 5.5 6.4 14.4 7.6 28.6 15.4 42.7 23.5 25.3 14.6 51.1 28.1 76.5 42.5 23.6 13.4 47.8 25.8 71.7 38.6 26 13.9 51.6 28.6 77.9 41.8 5.3 2.7 10.6 5.4 15.9 8 1.5.7 3.6 1.1 4.5-.6 1-1.8.8-3.9-1.2-5.3-1.1-.7-2.5-.9-3.6-1.5-17.7-9-35.2-18.4-52.5-28.2-15.8-9-32.2-17.1-48.4-25.4-19.9-10.3-39-22-58.5-33-19.3-10.9-39.4-20.3-58.4-31.8-21.5-13-43.6-25-65.5-37.5-1.1-.5-2.2-1.3-3-1.8zm280.7 244.9c-1.3-1.5-1.1-4.8-4-5.6-7.3-2-12.3-7.4-18-11.7-1.5-1.2-3.1-2.9-5-.9-1.6 1.6-1.3 3.6.3 5.2 6.7 7 15.5 10.8 23.8 15.4 1 .6 2.5 0 2.9-2.4zm33.5-126.4c1-.2 2-.5 2.9-.7 1.6-.4 3.6-.4 3.9-2.3.4-2.5-1.9-3.6-3.7-3.5-4.4.2-7.2-2.7-10.6-4.5-1.1-.6-2.6-.8-3.6.4-.9 1.1-.7 2.6 0 3.6 2.7 4.1 6.5 6.2 11.1 7zm30.5 169.7c1.7 2.4 3 5.1 6.6 4.3 1.2-.2 2.3-1.8 1.4-3.1-2-2.5-4.6-3.1-8-1.2z"/><path fill="#C6A759" d="M3881.4 2038.4v-42.9c-.1-18-.6-35.9-.2-53.9.3-11.9-.7-23.8 1.6-35.7 1.3-6.9 5.3-12 8.1-18 1-2.3 2.8-2.5 4.9-2.6 6-.1 12-.1 18-.3 3.8-.1 5.2 1.7 5.3 5.5.5 12.6 1.5 25.1 1.8 37.7 1.1 40.8 1.5 81.7 3.1 122.5 1 26.9 2.8 53.7 3.8 80.5.4 10.2 1.9 20.4 2 30.7 0 6.5-3.1 9.3-8.3 10.4-12.6 2.7-25 1.9-37.2-2.6-2.5-.9-2.8-2.6-2.9-4.6-.2-3-.3-6-.3-9 .1-35.3.3-70.5.5-105.8v-12l-.2.1z"/><path fill="#C5A559" d="M3689.3 1865.9c-2.8 7.1-7.8 11.3-13.8 14.3-3.7 1.9-5.2 4.8-3.9 8 6.5 15.9 1 31.6-1.2 47.1-4.2 28.8-10.7 57.3-14.4 86.2-2.9 22.7-7.3 45.2-9.4 68-1.1 12.2-3.6 24.2-5.9 36.3-1.5 8-3.9 9.8-12.3 10-5.6.1-11.2.6-16.8 1.1-9.3.8-11.8-2.2-9.6-10.9 3.9-15.1 5-30.6 7-46 3.6-29.3 8.1-58.4 15-87.2 3.9-16.2 4.7-32.8 7.3-49.1 4.1-25.2 9.7-50.1 12.3-75.6.5-4.5 2.1-7.1 7.7-6.3 12.4 1.6 24.9 2.7 38 4.1z"/><path fill="#C3A458" d="M3836.8 1980.8c2 27.6 2.4 53.5 2.7 79.4.1 8.9 1.9 17.8 1.4 26.8-.5 8.6-3.4 11.3-11.8 10-2.3-.4-4.5-1.1-6.7-1.8-11.4-3.8-11.1-3.8-11.4-15.8-1.1-38.7-1.7-77.5-1.4-116.2 0-4.6-.1-9.3.1-13.9.3-6.4 1.1-7 7.9-7.4 3.6-.2 7.3-.4 10.9-.5 6.4-.2 6.8.1 6.9 6.5.3 11.5 2.9 23 1.4 32.9zm183.2-42.3c10.3 7.6 16.8 18 24.3 27.6 1.3 1.7 1.2 3.7 1.3 5.7.6 16.6 1.8 33.2 1.8 49.8-.1 20.9 1.4 41.8 1.6 62.8 0 3.3.1 6.6-.7 9.9-1.8 7.6-2.1 8-9.6 7.5-3.8-.2-7-2-10.3-3.4-4.6-1.9-7.4-5.2-7.3-10.7.1-6-.4-11.9-.5-17.9-.7-32.8-1.6-65.7-1.3-98.5.1-7.9-.3-15.9-.6-23.8-.2-3-.1-5.9 1.3-9zm-343.2-116.9c3 0 6-.4 8.9.1 3.1.6 7.1-1.9 9.3 1.5 2.6 4.2 5 8.7 3.7 14.1-.9 3.9-2.3 7.7-2.8 11.6-.9 8.2-4 9.7-12.5 9-14.8-1.2-29.5-3.5-44.3-5.4-12.8-1.7-25.5-4.1-38.1-6.6-5-1-9.3-3.5-14.1-4.7-2.5-.6-5.3-2.1-5.4-5.1-.1-3.4 3.3-4.1 5.6-4.6 9.7-2.2 19.4-5.1 29.2-5.8 20.1-1.4 40.2-4.1 60.5-4.1z"/><path fill="#DDE8ED" d="M3896.2 1874.2c5.8-2 9.5.1 13.3.1-4 1.3-8 2.5-13.3-.1z"/><path fill="#FEFEFE" d="M4541 1218.2c-.2.4-.5.9-.7 1.3-.2-.2-.7-.5-.6-.7.1-.5.4-.9.6-1.3l.7.7zm-2735.5-195.6c12.5-20.7 26.7-40.2 42.1-58.9 8.4-10.2 15.4-21.4 24.8-30.9 15.1-15 31.3-28.6 46.5-43.4 6.3-6.1 12.6-12 19-17.9 16.5-15.2 35-27.3 53.5-39.6 16.8-11.2 33.8-22 51.4-31.8 11.2-6.3 22.3-12.8 34.2-18 13.3-5.8 26.3-12.6 40.2-17.1 4.6-1.5 9.4-2.6 15.1-4.2-1.7 5.9-5 9.7-7.2 13.9-1.2 2.4-2.8 4.5-3.7 7-.7 2-1.7 4.8 1.5 5.8 2.1.7 3.5-.4 4.8-2.4 16.4-24.2 38.2-43 61.3-60.7 12.7-9.7 26.2-18.1 39.7-26.5 22.6-14.2 47.6-23.2 73.3-29.8 15.9-4.1 32.4-7.3 48.8-7.9 17.6-.7 35.4-1.2 53.2.6 13.3 1.3 25.8 5.7 38.9 7.2 6.6.8 12.5 4.1 18.6 6.7 12.7 5.5 24.9 11.9 36 20.5 12.1 9.3 20.7 21.5 29.1 33.9 3.7 5.4 7.9 10.6 10.1 17 1.5 4.1 6 4.9 9.6 6.1 9.8 3.3 18.7 8.4 28.1 13.9-3.5 5.9-8.2 10.3-13.8 13.6-17.5 10.1-36.2 13.5-56.4 10.9-9.6-1.3-18.6-4.6-28.2-5.7-2.5-.3-5-1.2-6.7-3.1-.2-2.9 1.9-3.5 3.5-4.5 3.2-2.1 1.8-4.6.3-6.9-1.6-2.5-3.8-3.5-6.8-1.7-6.6 3.9-10.7 9.9-14 16.5-4.8 9.5-7.8 19.7-9.3 30.2-.6 4.1.3 6.8 4.1 9 3.3 1.9 6.1 2 7.2-1.7 1.5-4.9 4.3-3.4 6.6-1.7 12.8 9.7 28.4 12.5 43.2 17 9.3 2.8 19.4 3.5 29.4 2.4 2.3-.2 4.6-.7 6.9-.5 16.1 1.4 31.3-2 44.8-10.6 12.7-8.1 27.1-14.1 36.7-26.4 2.9-3.7 5.2-4.2 8.9-1.2 14.3 11.7 29.5 22.3 42.9 35.2 11.3 10.7 23.9 19.9 35.3 30.6 26.7 25 51.7 51.6 74.1 80.5 15.8 20.4 32.2 40.5 45.6 62.6 12.9 21.2 25.2 42.9 35.7 65.5 12.3 26.7 25.2 53.2 33.6 81.4 8.2 27.6 18.4 54.6 23.8 82.9 4.8 25.6 11.1 51.1 11.4 77.5.1 7.3 1.1 14.5 1.4 21.8.8 18.9-7.3 34.4-16.9 49.9-9.6 15.5-22.8 27.5-35.3 40.4-11.3 11.7-11.2 36-1.1 48.5 3.2 4 7.1 5.6 12.2 5.2 2.3-.2 4.2-2.4 7.4-.8-3.5 7.8-8.2 14.9-14.6 20.3-14.7 12.4-15.9 28.3-12.3 45.4 2.7 12.8 8.9 16.1 21.6 12.4.9-.3 1.6-1.2 2.6-.7 5 9.1.7 16.1-5.2 23-24.4 28.4-47.8 57.9-76.2 82.6-9 7.8-18 15.6-27.8 22.5-10.5 7.5-20.4 15.9-30.2 24.4-9.3 8-9.4 10.8-4 22.2 2.7 5.7 6.1 10.9 8.3 16.9 10.1 27.6 8.9 55.5.5 83-4.9 16.1-8.9 32.5-14.3 48.4-.9 2.8-.9 5.9-.9 8.9-.1 11.2 10.3 17.5 20.3 12 14.5-7.9 24.1-20.5 30.6-35.2 5.6-12.7 10.5-25.8 14.9-39 2.6-7.8 7.9-11.2 15.3-11.9 16.2-1.7 31.1 2.4 43.6 12.8 9.8 8.1 16.2 19.4 20.7 31.1 6.3 16.4 9.7 33.5 9.3 51.4-.3 14.8-6.2 27.7-11.8 40.8-9.8 22.9-27.1 39.6-45.9 55.2-21 17.5-43.5 32.6-67.5 45.4-12 6.4-24.4 12-36.7 17.7-11.7 5.5-23.6 10.6-35.3 15.9-8.4 3.9-17.5 5.7-26.3 8.4-3.4 1-5.5-.1-7.2-3.3-4.2-7.9-4.2-10.4 1.5-17.5 6.1-7.5 12.3-14.8 17.7-22.8 3.3-4.8 5-10.1 5.4-15.8.1-1.6 0-3.4-2.1-3.9-1.5-.3-2.4.7-3.4 1.7-4 4.1-6 9.6-8.9 14.3-7.3 12.2-17.3 21.8-27.1 31.5-15.3 15.2-31.7 29.3-49.1 42.1-11.5 8.4-22.8 17.5-35.1 24.3-21.4 11.8-42 25.4-64.5 35.3-11.5 5.1-23.3 9.5-35 14.1-9.7 3.8-19.9 5.1-30.2 5.2-3.6 0-7.2-.2-10.9.6-5.9 1.2-7.6-.2-8.3-6.4-1.5-13.8-2.8-27.7-4-41.5-1.4-16.2-5.5-31.9-9.4-47.6-3.3-13.1-8-26-13.2-38.4-10.7-25.6-21-51.5-34.4-76-10.1-18.3-21.6-35.7-33-53.1-9.8-14.9-21.3-28.9-35.9-39.6-6.6-4.9-13.3-8.6-22.3-8.7-9.8-.1-19.8-2.1-29.4-4.4-29.2-7.2-58-15.7-86.8-24.4-32-9.7-63.2-21.5-93.7-35-13.9-6.2-28.5-11-41.6-18.6-17.7-10.3-35.9-20-52.3-32.5-13.9-10.6-28.3-20.7-43.2-29.8-13.5-8.2-25-18.6-36.2-29.4-5.1-4.8-10.5-9.1-15.8-13.6-12-10.1-22.6-21.2-32-33.9-7.4-10.1-15.6-19.7-23.1-29.8-15.4-20.7-30.6-41.5-40.5-65.8-5.5-13.5-10.3-27.2-14.5-41.1-.6-2.1-1.8-4.3-.5-6.7 4.1.6 7.2 3.1 10.6 5 17.1 9.9 35 17.5 54.5 21 4.3.8 6.8 2.8 8.7 6.9 9.1 19.8 19.8 38.8 32.8 56.4 11.5 15.7 23.5 31.1 37.9 44.3 2.4 2.2 5.1 4.2 7.8 6.2 13.9 10.3 24 8.1 39.1-1.7 3.2-2.1 3-4.6 1.9-7.8-2.6-7.7-8.5-13.3-12-20.4-1.7-3.5-3.9-6.7-4.4-10.3 2.1-2.1 3.6-1.1 4.8-.1 14.3 12 29.7 22 46.7 29.7 13.9 6.3 33.1 8.5 46.1-5.6 6.6-7.2 11.4-15.5 11.8-25.6.2-5.2-.4-9.3-5.8-13.3-6.8-5-11.5-12.7-17.1-19.3-6.9-8-13.9-16-20.8-24.1-1.4-1.7-3.3-3.4-1.9-6.8 4.1 1.2 7.3 3.6 10.5 6.3 4.8 4.1 10.1 7.7 14.8 11.8 9.5 8.4 20.7 9.7 32.6 8.9 14.2-1 23.6-14.3 19.7-28-3.6-12.8-11.3-23.4-20.4-32.4-14.4-14.1-27.6-28.6-36.3-47.1-3.8-8-6.2-16.1-5.1-24.9.7-6.3 2.2-11.5 8.6-15.6 13.2-8.5 18.3-21.4 18.8-37.2.8-23.8-5-44.5-22.9-60.8-5.9-5.3-13.3-7.8-21.2-5.7-7.8 2.1-13.3 7.2-14.8 15.7-1.3 7.2-1.3 14.5-1.6 21.8-.3 8.1-2 15.7-9.2 21.2-16-13.3-33.2-10.3-50.3-3.6-7.9 3.1-15.7 7.1-21.7 13.6-2.9 3.2-6.1 2.4-8.6.2-13.1-12.2-26.5-24.4-33.7-41.3-7.5-17.7-10.1-36.3-8.4-55.4.5-5.7 3-10.9 4.7-16.2 5.5-17.6 13.5-34 25.7-47.9 17.7-20.2 36.9-38.8 60.5-52.3 2.6-1.5 5-3.2 8.1-3.5 2.9-.3 3.9-1.7 3.7-4.7-.3-3.8-2.6-4.3-5.5-4-3.6.4-7.1.9-10.7 2.2-11.8 4.2-20.9 12.4-30.5 19.8-29.1 22.3-51.6 50-63.2 84.7-6.6 19.8-8.2 41.2-4.4 62.8 4.4 24.8 19.5 41.4 36.9 57.2 4.2 3.8 8.7 7.2 13.2 10.6 9.7 7.3 14.3 6.6 21.3-3.4.4-.5.5-1.5.9-1.7 11.5-6.4 21.8-14.9 35.3-17.4 8-1.5 14 1.1 19.3 7.2 5.6 6.6 11.5 6.6 17.8 1 7.4-6.6 10.4-15.1 11.5-24.6 1-8.8 2.1-17.7 3.3-26.5.7-5.3 2.2-6.3 7.1-4.5 7.8 2.9 14.1 8.2 17.7 15.3 7.1 13.9 10.3 28.7 5.8 44.3-2 6.8-5.2 12.9-10.4 17.8-17.4 16.7-20.8 36.4-11.8 58.2 4.3 10.5 11 19.7 19 27.7 9.8 9.9 19.7 19.9 30.1 29.2 7.7 6.9 10.2 16.2 13.4 25.1 1.8 5.2-5.6 13-11.6 13.4-3.6.2-7.1-.2-10.6-1.8-10.1-4.5-19.6-9.7-27.7-17.2-5.4-5-11.4-9-18.3-11.7-8.7-3.4-14.5.2-14.9 9.5-.3 6.8 3.3 12.1 7.1 17.1 6.5 8.4 13.5 16.4 19 25.5 4.4 7.2 11.9 11.3 17.3 17.6 3.2 3.7 4 6.3.8 10.3-4.7 5.9-8.4 12.3-16 15.8-14.7 6.7-26.7.2-38.2-7-12-7.6-24-15.5-34.7-25-2-1.7-4.2-3.3-6.6-4.4-6.2-2.9-11.9.8-12.6 7.6-1 10.4 4.7 18.5 9.1 26.9 2.1 4.1 5 7.8 7.6 11.7 2.2 3.3 1.4 5.4-2.1 7.1-7.5 3.6-19 1.4-25.8-5.2-18.7-18.2-34.2-38.9-47.7-61.2-8.6-14.3-15.7-29.2-22.7-44.3-1.9-4-4.8-6.2-8.6-7.4-12.2-4-24.1-9-36.3-13.1-12.5-4.2-23.8-11.7-35.6-17.7-33.3-17-57.6-43.4-77.3-74.2-15.8-24.7-25.3-52.3-31.9-80.9-3.6-15.5-7.2-30.8-9.2-46.6-2.9-22.2-3-44.4-.2-66.5 1.4-11.4 1.5-23 4.8-34.3 3.4-11.5 7.1-22.7 13.4-32.9 2.8-4.5 5.1-9.3 7.6-13.9 15.3-28.5 37.4-51.5 61.8-72.1 16.9-14.2 33.5-29.5 53.2-40 16.9-9 33.7-18.4 52.1-24.4 2.4-.8 6.8-.2 6.1-4.9-.6-4-4.5-6-9.6-4.4-8.5 2.7-16.8 6-25.2 9.1-.1-1.2-1-1.9-1.9-2.6zm779.8 831.8c3.3-1.7 6.2-3.3 9.2-4.8 11-5.5 22-10.9 32.9-16.5 5-2.6 9.8-5.7 13.6-10 1-1.2 2.4-2.6 1.4-4.4-1.2-2.2-3.4-1.6-5.3-1.3-.6.1-1.3.4-1.8.7-11.2 6.6-23.2 11.4-35 16.8-22.3 10.4-45 19.5-68.7 25.9-4.7 1.2-5.7 3.4-4.2 6.8 4.3 9.5 5.6 19.7 6.9 29.8 1.8 13.9 1.6 27.7-.5 41.6-2.4 16.1-5.7 31.9-11.1 47.3-1.4 4-1.2 7.1 2 9.9 2.9 2.6 6.1 3.7 10.1 2.4 4-1.3 7-3.5 9.5-6.8 6.3-8.3 10.1-17.8 13.4-27.6 5.2-15.7 10.1-31.5 20.7-44.9 4.1-5.2 8.8-7.5 15.3-7.6 4.5-.1 8.3 1.3 12.2 3.4 3.8 2.1 5.3.8 5.8-3.5.6-5.1-1-8.5-6.4-9.3-5.9-.9-7.4-4.5-8.5-10.1-2.6-12.4-6.1-24.9-11.5-37.8zM2285 779.9c4.8-1.8 9.4-2.2 9.1-8.7-.1-1.3 1.5-2.8 2.4-4.2 8-12.3 19.5-20.7 32.4-26.9 5.6-2.7 12-4.5 19.8-2.2-6.1 6.9-8.7 14.3-11.5 21.7-1.3 3.4-2.2 7-1.7 10.7.5 3.2 2.1 5.8 5.6 5.7 3.5-.1 4-2.6 3.9-5.6-.3-7 2.8-13.1 6.4-18.5 2.7-4 5.2-9.6 12-8.6 1.9.3 4.3-.2 5-2.4 1-3-1.1-5.1-3.1-6.8-8.3-7.3-29.7-9.5-39.8-4.1-2 1.1-3.6 2.7-6 3.3-20.8 5.1-28.1 22.2-34.6 39.8-.5 1.9.1 4 .1 6.8zm390.6 1003.4c.2-1.7-1.2-2.2-3.1-2.3-2.5-.2-4.2 1.1-6.2 2.5-4.8 3.5-9.6 7.2-14.8 9.8-17.4 8.7-34.1 19-52.2 26.5-4.3 1.8-8.7 3-12.9 5-10.8 5-21.3 10.6-32.7 14.4-6 2-11.9 4-18 5.4-4.2 1-7.3 3.6-6.4 7.3 1.2 5 5.6 1.8 8.3 1 7.8-2.6 15.5-5.6 23.2-8.6 29.7-11.4 58.3-25.3 86.6-39.7 8.5-4.3 16.7-9.5 24.2-15.5 1.9-1.3 4-2.5 4-5.8zM2453.9 725.6c-4.5-.8-9.3 0-14.2 1.3-10.9 2.8-19.4 9.8-28.9 15-1.1.6-1.7 2-.8 3.4 1 1.5 2.6 2.7 4.1 2.2 2.2-.6 4.2-2 6.1-3.2 13-8.5 26.8-10.3 41.5-5.1 2.2.8 4.4 1.7 6.7 2 17.6 2.1 27.1 17.2 28.7 32.9.1 1.3-.2 2.7.3 3.9.8 2.3 2.1 3.4 4.2 1.1 1.6-1.7 4-3.3 3.8-5.7-1-10.7 0-21.8-8.2-30.8-11.7-12.6-26.4-16.9-43.3-17zm-62.7 178.5c3.3 1.8 6.4-.4 9.5-1 3.7-.7 4.6-3.5 4.2-6.8-.4-3.1-2.4-4.5-5.4-4.6-3 0-6-.2-9-.2-17.7-.2-31.9 7.9-42.3 21.3-7.9 10.2-11 23.2-15.6 35.2-1.1 2.8-1.4 5.5 1.5 6.8 2.6 1.1 4.1-1.4 5.1-3.5 3.7-7.8 8.6-14.8 13.5-21.9 7.1-10.4 17-17.5 28-23.1 3-1.7 6.6-2.9 10.5-2.2zm311.4 1101.6c-.7-12.6-3.8-24.8-7.6-36.7-7.1-22-20.3-39-41.2-49.8-3.6-1.9-6.4 0-9.5.1-2 .1-1.6 2.6-.6 3.9.8 1 2.2 1.4 3.3 2.1 22.1 13.8 35.8 33.6 42.1 58.9 1.9 7.9 1.5 16.4 6.1 23.6 1.1 1.7 1.8 3.8 4.2 3.2 2.6-.7 3.7-2.8 3.2-5.3zm-221-1303.2c-2.2-5.4-6.6-7.9-11.5-8.9-12-2.4-29.2 8.6-32.8 20.5-.2.6-.3 1.3-.3 2-.1 1.7.1 3.5 1.5 4.5 1.6 1 3.2 0 4.4-1.2 3.1-3 5.8-6.5 9.2-9 6.7-5.1 13.1-11.6 23-6.6 1.4.7 3.8.5 6.5-1.3z"/><path fill="#FCFCFC" d="M2942.5 1336.1c-.9-21-1.8-38.4-5-55.7-.1-.7-.3-1.3-.3-2-1.3-10.6 4-15.8 14.7-14.3 2.9.4 5.8 1.2 8.6 2.1 11.5 4.1 13.4 7.8 8.7 19.3-8.9 21.9-6.9 43.6 1 65 5.7 15.4 8.3 31.4 9.1 47.6 1.4 27.2-.3 54.4-6.3 81.1-3 13.2-8.5 25.6-13.7 38.1-6.8 16.2-16.6 30-29.4 42.1-2.8 2.7-5.9 4.4-9.1 5.6-7 2.6-10.2.4-9.8-6.9.9-15-1.6-18.2-16.8-10.3-7.8 4.1-12 2.1-12-6.9 0-10.6 1.2-21.3 9.4-29.4 9.2-9.2 15.7-20.5 23.9-30.5 4.3-5.3 5.3-12.1 7.1-18.5 1.1-3.9-1.7-6.3-5.8-5.5-3.4.6-6 2.8-8.2 5.4-1.7 2.1-3.2 4-5.5 5.6-10.2 7.2-16.4 5.2-19.4-6.4-3-11.6-2.2-21.5 8.5-30 12.7-10.1 21.8-24 32.9-35.8 9.9-10.6 13.9-23.8 15.5-37.8 1-8.4 1.5-16.9 1.9-21.9z"/><path fill="#C5A559" d="M2176.9 2140.2c0-13.2.1-26.3-.1-39.5 0-3.9-1.1-7.9-1.1-11.8-.3-24.9.4-49.8-.9-74.7-1.6-32.2-1.2-64.4-2.3-96.7-.3-8.6.3-17.2.5-25.8 0-2.7.7-4.4 3.9-4.4 6.6-.1 13.2-.1 19.8-1.6 2.6-.6 5.2.7 7.8 1.3 4.1.9 5.5 3.4 5.2 7.1-.6 10.3-.1 20.6 1.2 30.8 2.9 22.4 1.3 44.9 2.5 67.4 1.7 33.5 2.1 67 4.4 100.5 1.3 19.5 1.9 39 4.9 58.5 2.3 15.3-.5 17.6-16.4 17.9-8.5.2-16.4-1.8-24.3-4.4-5.6-1.8-7.1-5.4-6.9-10.5.2-4.7.5-9.3.7-13.9.3-.2.7-.2 1.1-.2zm-224.3-278.9c6.8 1.3 15 2.9 23.1 4.5 4.4.9 3.7 4.6 3 7.2-2.9 10.3-3.1 21-3.9 31.5-1.4 16.9-3.5 33.6-5.6 50.4-2.3 18.4-4.6 36.8-6.5 55.2-3.3 31-8.5 61.8-9.8 93 0 1-.2 2-.4 3-1.8 10.9-9.9 16.4-21.1 13.8-5.8-1.3-11.5-3.1-17.3-4.4-13.7-3-11.3-3.7-9.9-14.5 1.6-12.5 4-24.8 5.1-37.4 1.9-22.8 5.8-45.3 10.1-67.8 5-25.7 9-51.6 13.7-77.3 3.1-16.9 6.6-33.7 9.9-50.6 1.3-6.7 1.4-6.9 9.6-6.6z"/><path fill="#C3A458" d="M2146.9 1872.8c-6.8.8-13.8 1.9-20.6-.5-1.5-.5-3.3-.5-4.9-.4-20.9.4-41.6-2.5-62.3-3.5-22.7-1.2-45.3-5.5-67.8-9-23.5-3.6-46.9-8.2-70.4-11.7-6.1-.9-10.3-4.4-14.8-7.5-3.7-2.6-3-5.6 1.4-6.9 7.6-2.2 15.4-4 23.1-6 17.4-4.7 35.4-5.1 53-7.6 5.6-.8 11.5-.4 16.7-2.3 5.5-2 9.2-.1 13.9 2.1 27.7 12.8 54.5 27.7 83.6 37.1 16.2 5.1 32.2 11.5 49.1 16.2z"/><path fill="#C5A559" d="M2094.7 1968.3c0-12.6-.4-34.2.2-55.7.3-8.9-.1-17.8 1.8-26.7.7-3.5 2-4.5 5.2-4 17.1 2.7 16.6-2.7 15.6 16.3-1.1 20.2-.2 40.4.5 60.5 1 31.5 1 63.1 1.6 94.6.1 4.8-1.1 6.8-5.9 6.5-2-.1-4 .1-6-.1-8.3-.8-11.7-4.1-12.2-12.5-1.4-23.3-.1-46.6-.8-78.9z"/><path fill="#C3A458" d="M2292.1 1913.3c11.4 10.1 19.6 18.5 19 33.2-.9 20.2 2.9 40.4 4 60.6 1.1 20.9 1.6 41.8 2.8 62.7.3 5.4-2.4 8.6-6 10.4-4.4 2.2-9.8 2.2-14.4-.4-2.6-1.5-2.4-4.5-2.6-7.2-1.5-16.2-1.6-32.5-2-48.8-.7-28.5-1.4-57-1.9-85.4 0-7.6.7-15.1 1.1-25.1z"/><path fill="#FEFEFE" d="M1808.2 1024.7c-1.1.7-2.3 1.3-3.3.3-.3-.3.4-1.5.6-2.3.9.6 1.8 1.3 2.7 2zM1938 1622c.2.1.4.2.7.3-.2.3-.4.7-.7 1-.2-.2-.5-.4-.7-.7.2-.2.4-.4.7-.6zM279.1 1833.4c1.3-5.8-1.5-9.1-6.4-11.9-14.1-8-28.1-16.3-40.1-27.4-16.5-15.2-34.1-29-48.6-46.6-14.2-17.1-27.8-34.6-41.1-52.4-15.5-20.6-30.5-41.8-42.9-64.4-8.6-15.6-18.4-30.5-25.6-46.9-8.6-19.7-16.5-39.8-25.3-59.4-10.1-22.4-16.4-46.1-23.7-69.5-3.4-11-4.4-22.7-6.2-34.1-3.2-19.6-6.2-39.3-6.4-59.3-.3-29.6-.3-59.1 3.9-88.6 1.5-10.4.6-21.2 2.6-31.7 3.9-20.1 6.3-40.4 12.8-60 4.9-14.8 8.9-29.9 13.5-44.7 11-35.1 24-69.5 40.7-102.3 10-19.8 22.1-38.3 35.3-56.3 11.4-15.6 25.1-29.2 37-44.3 6.8-8.7 15.2-15.8 23.4-23.2 9.3-8.4 17.3-18.2 27.5-25.6 13.9-10.1 26.4-22 41.3-30.8 16-9.4 30.8-20.9 46.7-30.3 19.6-11.6 39.6-22.3 60.7-31.1 15.5-6.5 30.6-13.9 46.3-20 3.1-1.2 6-2.1 11-1.9-13.5 16.7-30.3 29.6-37 50.8 7.8-.8 11.8-4.9 15-9.5 10.1-14.3 23.1-25.5 36.8-36 16.8-12.9 33.2-26.4 51.7-36.9 14.1-8 29-14.6 44.1-20.6 16-6.4 33-9.4 49.5-13.8 12-3.2 24.8-3.5 37.3-5.1 7.2-.9 14.5-2.9 21.6-2.4 16.1 1.2 32.1 1.6 48 6.3 16.9 5 33.8 9.8 49 18.7 18.9 11.1 36.2 24.5 49.7 42.1 3.9 5.1 7.8 9.5 15.3 9.5 4.5 0 9.1 1.6 13.4 3.1 5.1 1.8 6.1 4.7 2.3 7.8-7.3 6.1-14.7 12.2-23.5 16.2-3.3 1.5-5.5 1-6.8-2.5-.6-1.5-1.7-2.8-2.4-4.3-7-15.3-19.2-23.5-35.3-27.7-5.2-1.4-11.6-.4-15.7-5.3.8-.5 1.9-.8 2.3-1.5 4.6-6.9 4.8-7.1 11.3-3.7 1.8 1 3.5 1.6 5.5 1.8 3.6.3 4.7-1.3 4.1-4.8-.5-2.5-2-4-4-5.3-6.5-4.2-17.6-2.7-22.8 3.1-4.7 5.2-4.4 6.3 2.9 10.4 1.6 3.8-1.6 3.4-3.5 3.9-8 2-16 3.7-23 8.4-1.9 1.3-4.3 2-5.4 4.1-.9 1.7-1.9 3.9 0 5.5 1.3 1.2 3.3.7 4.7-.2 8.8-5.5 18.1-10 28.7-10.2 7.8-.2 16-.2 22.2 5.8 8.1 7.7 14.7 16.2 15.5 28 .2 2.7-1.5 3.6-3.3 4.2-4.6 1.8-9.3 3.4-14.2 2.3-1.6-3.2 4.4-6.7-.2-8.9-3.8-1.9-5.9 2.3-7.9 4.6-6.5 7.3-10.5 16.1-13.3 25.4-1.5 5-.5 9.9 1.2 14.7 1.3 3.7 3.9 6.1 8 6.4 13.5 1.2 27.1 4.1 40.5 3.4 15.2-.8 30.5-.7 45.6-2.9 12-1.8 24.1-3.1 35.7-6.5 12-3.6 23.8-8.2 34.4-15 3.2-2 4.4-1.8 7.2.8 6.9 6.6 16.3 9.8 23.6 16.3 7.7 6.9 14.9 14.1 22.6 20.9 23.9 21.2 44.2 45.9 66.6 68.6 18.6 18.9 35.3 39.5 50.1 61.6 6.5 9.7 15.5 17.4 21.9 27.1 4 6 8.6 11.4 10.1 19 .8 3.9 4.4 7.3 6.8 10.9 17.7 26.1 31.8 53.9 42 83.8 4.7 13.8 10.4 27.2 15.4 40.9 7.5 20.6 13.6 41.7 18.1 63 4.9 22.9 8.9 46 10 69.6.8 17.2 3.2 34.3 3 51.6-.1 11.3-1.4 22.4-3.2 33.6-1.4 8.5-1 17.2-1.6 25.8-2 28.1-6.1 55.7-14.8 82.6-4.9 15.2-9.1 30.5-16.2 44.8-7.8 15.8-18.2 30.1-27.5 44.9-15.9 25.3-34.4 48.9-55.3 70.1-20.2 20.6-39.3 42.5-61.5 61.1-5.1 4.2-10.9 7.4-15.7 12-6.5 6.1-6.4 10.2-.6 16.6 17.7 19.3 32.2 40.5 36.4 67.2 1.6 10.1 5.4 19.8 4 30.3-2.1 15.4-2.5 31-6.3 46.1-1.5 5.8-2 13.1 2.2 15.5 4.3 2.4 10.4-2.2 14.9-5.6 1.8-1.3 3-3.5 4.4-5.4 9.4-12.9 17.4-26.7 24.1-41.1 1.7-3.7 4.1-6.7 6.4-9.9 7.4-10.4 17.5-11.1 28.5-8.6 5.8 1.3 11.2 4.2 15.8 7.8 19 14.9 32.9 33.6 40.4 56.6 3.9 12.1 2.7 24.3-.8 36.3-6 20.6-15.9 39.3-27.9 56.9-7.2 10.5-17.2 18.6-26.8 26.8-13.1 11.2-25.7 23.1-39.9 33-12.5 8.7-25 17.2-38.3 24.7-13.5 7.7-26.4 16.5-41.4 21.4-2.5.8-4.9 2.2-7.4 3.1-10.8 3.9-12.2 3.5-19.4-5.5-4.6-5.7-7.1-6-11.7-1.1-9.9 10.5-21.2 19-34 25.5-5.6 2.9-10.6 6.8-16.2 9.8-26.8 14.6-56.3 21.4-85 30.5-.3.1-.6.4-.9.4-17.4-.8-33.8 5.9-51.1 6.5-9.4.4-18.5-.6-27.6-2.4-1-.2-1.9-.6-2.9-.9-3.7-1-8.6 1.8-11-2-1.8-2.9-1.6-7-2.2-10.6-3-20.3-6.5-40.5-12.2-60.3-5.9-20.7-11.3-41.5-18.4-61.7-7.3-20.5-17.5-39.9-27.4-59.4-9.5-18.7-20.5-36.4-33.8-52.6-9.4-11.4-20.9-20.5-33.3-28.3-10-6.3-22-7.6-33.5-7.7-17.2-.2-34.3-.7-51.5-3.4-21.2-3.4-42.5-6.1-63.5-10.6-19.7-4.2-39.4-8.5-58.6-14.9-11.6-3.9-23.6-6.7-34.9-11.4-8.2-3.3-16.4-6.8-24.6-10.3-5.5-2.3-4.4 1.7-4.5 4.6-5.3-2.8-11.4-1.7-17.1-3.7-9.5-3.2-18.5-8.6-28.4-11.9zm201.1-159c4.9 5.3 6.9 12 9 18.6 1.5 4.7 2.8 9.6 4.7 14.1 1.3 2.9 1.9 7.8 5 8 5.2.3 10.2 3.5 15.4 1.4 21.8-9 40.8-22.2 55.4-40.9 5-6.4 8.1-14.7 7.1-23.3-.9-8.2-1.7-16.7-4.4-24.3-6-16.8-10-34.3-19.7-49.7-13.5-21.5-29-41-51.1-54.5-3.7-2.2-7.7-3.4-11.3-6-8.6-6.2-18.6-10.3-28.6-13.7-13.4-4.5-27.6-6.8-41.3-10.5-11.9-3.2-24.3-1.8-36.4-4.4-12.3-2.6-24.8-5.1-36.5-9.1-19.3-6.6-38.1-15.4-53.9-29.1-10.1-8.8-17.4-19.3-20.4-32.3-3.7-16.2-1.7-32.2 3.6-47.8 5.4-16 12.4-31.1 21.8-45.4 12.2-18.7 26.4-34.7 45.5-46.4 1.5-.9 3-1.7 2.5-3.7-.4-1.8-2.2-2.5-3.6-3.2-2.2-1-4.4-.1-6.7.3-9 1.6-15.7 7.4-21.7 13.3-20.5 20.3-36.3 44-46.8 71-4.4 11.3-9.2 22.7-9.1 35.5.1 13.3 1.7 26.3 5.4 39.2 2.4 8.3 6.8 15.3 12.7 21 13.9 13.5 29.5 24.8 47.6 32.2 8.5 3.5 17.3 6.4 25.8 9.9 12.2 5 24.8 7.7 37.6 8.4 23.3 1.2 46 4.5 68 12.3 20 7.1 39.3 15.6 55.5 29.9 6.7 5.9 14.1 11.5 19.1 18.9 16.8 24.6 29.3 51.2 34.4 80.7 1.7 9.7 2.6 19.8-7.3 26.9-2.9 2.1-4.8 5.5-7.4 8.1-10.1 10.2-20.5 19.9-35.2 22.8-7.4 1.5-10.8.2-13.3-6.9-4-11.8-11.1-21.8-17.2-32.4-4.6-8-10.6-15.3-17.7-21.4-2.1-1.8-4.8-4-8-1.5-2.6 2-2.2 4.7-1.3 7.3 1.1 3.5 2 7.1 3.7 10.3 5.9 11.6 4.4 24 3.8 36.2-.3 6.7-4.6 10.2-10.7 11.4-6.9 1.4-7.6-4.5-9.1-8.2-3.6-9-7.5-17.8-13.2-25.6-15.1-20.3-20.6-18.3-38.5-12.3-15.9 5.3-32.1 7.3-48.7 3.1-18.4-4.7-32.9-15.2-45.1-29.4-4.3-5-8.2-10.3-12.6-15.2-2.4-2.7-5.4-4.7-9.5-4.8-10.6-.2-20.9-3-31.3-5-12.8-2.4-24.2-8.7-36.7-12-28.8-7.8-53.7-22.3-75.6-42.3-25.9-23.5-44.3-52.7-60.4-83.3-5.8-11-8.9-23.4-11.1-35.7-2.9-15.9-7.9-31.8-8.3-47.8-.5-21.3 1.3-42.8 8.6-63.5 8-22.5 17.2-44.4 29.4-65 6.9-11.7 14.5-22.8 22.2-34 10.7-15.7 23.2-29.7 36.7-42.8 12.1-11.8 24.7-23.2 39.7-31.4 1.5-.8 2.9-1.9 2.4-3.8-.6-2.3-2.5-2.9-4.6-3.1-2.1-.2-3.7.9-5.6 1.6-12.9 4.7-22.7 13.8-32.1 22.9-16.7 16.1-32.6 32.9-46.2 51.9-11 15.4-21.6 31.1-30.9 47.5-11.9 21.2-18.7 44.4-25.2 67.7-4.2 15.3-5.1 30.9-5 46.2.1 13.7 1.8 27.6 4.4 41.4 5 27 13.2 52.5 26.3 76.5 7.3 13.5 17.7 24.8 26 37.5 13.8 20.8 33.4 35.2 53.4 48.2 20.4 13.2 42.2 24.5 65.4 33 16 5.8 31.8 11.1 48.8 12.1 4.6.3 7.4 2 9.6 5.8 3.7 6.4 8.4 11.9 14.6 16.1 13.8 9.2 28.6 16.7 44.8 20.7 18.3 4.5 36.7 8.2 55.1.1 3.6-1.6 7.8-1.5 11.7-2.4 7.4-1.8 12.8 1.1 17.4 6.7 6.4 7.9 10.2 17.3 12.5 26.8 2.1 8.6 7.5 11.8 14.5 14.3 4.3 1.5 8.5-.2 12.7-.4 10.6-.4 15.6-8.2 15.8-17.9.2-7.6.6-15.3.9-22.9 1.3-1.1 2-1.8 2.8-2.5zm383.9 185.7c1.1-2.4 3.6-2.8 5.6-3.9 15.4-8.5 31.6-15.3 46.7-24.4 3.2-1.9 6.1-4.1 8.7-6.6 1.8-1.8 4.3-3.7 2.2-6.8-2-2.9-4.9-1.6-7.3-.9-2.5.7-5 1.9-7.3 3.1-26.3 14.4-54.7 23.6-82.8 33.7-5.3 1.9-8.3 5.1-6.7 10.3 1.5 4.8 1.7 9.7 3 14.5 2.3 8.3 4.4 16.6 4.7 25.3.7 21.6-.1 43.1-5.8 64.2-.6 2.1-1.5 4.2-.8 6.8 1.3 5 2.7 6 7.6 4.1 7-2.8 11.9-8.3 17-13.5 12.9-13.4 26.7-25.9 42.6-35.7 11.1-6.8 23.8-9.7 36.3-12.2 13.6-2.6 27.5-.5 39.8 5.1 14.7 6.7 26 18.2 33.7 32.8 5 9.6 6.2 20.1 7.3 30.6 2.2 20.5-.7 40.5-9.5 59.1-7.4 15.6-14.8 31.4-30.2 43.8 6.1.7 10.3 1.8 13.3-1.4 10.6-11.4 21.9-22.4 27.8-37.3 5.8-14.6 8.1-29.9 9.2-45.5.9-13.4.6-26.6-2.5-39.6-5.8-24.2-22.6-39-43.5-50.1-4.7-2.5-9.7-4.6-14.8-5.7-22.2-4.6-44.1-4.4-65.2 5.3-3.4 1.6-5 .3-5.7-2.7-4.3-19.1-15-35.2-23.4-52.4zm-35.9-9c1.5-.6 2.8-1 3.9-1.7 10.4-6.4 22.2-9.7 33.2-14.8 13.5-6.3 27.5-11.4 41-17.5 16.5-7.5 33.3-14.6 48.5-24.7 3.3-2.2 6.4-4.6 9.1-7.6 2.1-2.3 1.5-4-.5-5.9-1.8-1.7-3.1-1.5-5.1-.1-5.8 4.4-11.7 8.7-17.8 12.6-14.2 9.1-30.5 13.9-45.6 21.6-20.7 10.6-42.9 18.2-65.5 24.4-2.5.7-5.1 1.4-7.5 2.5-1.9.9-3.4 2.9-2.1 4.8 1.9 3.2 5.5 4.5 8.4 6.4zM609.6 952.4v4.4c.1 1.5.9 2.5 2.3 2.9 1.8.5 3.4.1 4.3-1.6.6-1.2 1.2-2.5 1.3-3.7.5-7.9 4.6-14.5 7.7-21.4 2.6-5.7 5-11.9 9.9-16 14.1-11.8 29.5-21.2 48.8-21.7 2.8-.1 7.2.8 7-3.2-.2-3.9-4.4-4.3-7.9-4.2-1 0-2 0-3 .1-6.2 1.1-12.4 2.3-18.6 3.4-33.1 5.9-47.7 33.7-51.8 61zm13.3-158.8c-6.8 3.9-8.9 9.1-11 14.3-.9 2.3-.6 4.5 2 5.9 2.8 1.5 4.3 0 5.6-2.1.4-.6.6-1.2 1-1.7 5-5.9 9-12.9 17.9-14 2.3-.3 4.3-1.8 4.6-4.6.3-2.1.5-3.9-2.2-4.7-5.7-1.7-11.2-3.9-16.9-5.2-14.9-3.4-32 5.9-37.6 20.1-2.1 5.2-.9 8.7 5.2 13.5 2.5-6.4 1.8-14.4 9-18.2 6.4-3.3 12.7-7 22.4-3.3z"/><path fill="#DDE8EE" d="M848.7 500.5c4.5 9.9 8.6 18.4 12.3 27.1 8 18.5 9.4 16.3-8.5 26.5-17.2 9.8-35.6 17.7-55.4 20.9-23.4 3.8-46 2.6-67.8-8.6-12.7-6.6-25.1-12.8-35.8-22.7-10-9.3-17.7-19.8-23.4-31.9-2.9-6.2-6.2-12.2-7.2-19.5-1.9-14.1.5-27 6.5-39.5 1.8-3.8 6.1-8.5 3.4-11.7-3.6-4.3-8.4.8-12.7 1.9-21.1 5.2-42.3 8.9-63.7 2.2-7.5-2.4-14.4-6.5-21.2-10.6-25.5-15.4-41.8-38.2-52.1-65.6-9.3-24.9-12.8-50.6-8.7-77.2 1.6-10.2 2.8-20.6 5.6-30.2 6.7-23 17.2-44.4 33.1-62.8 12.8-14.9 26.2-29.1 41.2-41.9 20.5-17.5 44-27.6 70.7-31.3 8.8-1.2 17.8-1.9 26.6-3.7 11-2.2 21.8.8 32.6 2.5 20.5 3.2 38.9 12.8 58.2 19.5 1.2.4 2.5.8 4 1.4 2.7-10.2 3.8-20.3 6-30.3 3.6-16.3 13.5-28.7 22.6-41.6 5.5-7.8 12.6-14.4 18.8-21.7 6.3-7.3 14.8-12.3 23.1-17.2 17.3-10.1 36.2-16.4 55.5-21.2 14.7-3.6 29.6-7.2 45.2-5.7 17 1.6 33.3 6 48.9 12.4 21 8.6 41.1 19.3 56.6 36.3 13.1 14.4 21.5 31.3 24.6 51.1 2.5 15.8 1.1 31.1-1.8 46.4-.7 3.8-.2 6.3 3.2 8.4 3.8 2.4 5.3-.8 7.5-2.6 16.8-13.5 36-22.8 56.5-28.2 8.2-2.1 16.7-4.8 25.3-5.4 27.8-1.9 55 .9 80.4 13.5 18.7 9.3 33.8 22.7 46.6 39.1 6.4 8.1 12.1 16.6 17.8 25.1 14.5 21.5 20.2 45.9 23.4 71 1.3 9.9 2.6 19.8 2.5 29.7-.4 33.5-5.7 66.3-18.5 97.2-9 21.7-19.6 42.8-36.6 60-11.5 11.6-23.7 22.3-38.5 29.4-7.5 3.5-14.5 7.7-22.3 10.9-22.4 9-45.2 9.2-68.5 6.2-7.3-.9-10.8 1-13.2 7.2-1.1 2.9 0 5.1.8 7.6 4.4 14 5.2 27.9-2.5 41.2-6.1 10.5-13.2 20.6-24.2 25.8-9.5 4.4-20.2 6.4-31 5.7-11.6-.7-23.2.2-34.7-2.4-1.9-.4-4.2.2-5.9-.5-5.2-2.1-11.4-2.3-15.5-6.5-4.7-4.8-.2-10.1.3-15.1.8-7.2 1.8-14.5 3.5-21.5 1.2-5.2-.4-8.3-4.9-10.5-1.5-.7-2.8-1.9-4.5-.6-1.5 1.2-1.3 2.7-1.4 4.4-.2 14.9-1.4 29.6-5 44.1-1.6 6.5-3.1 12.8-3.5 19.5-.7 12.4-6.2 23.7-9 35.6-4.4 19.5-13 37.6-19.9 56.2-7.6 20.7-17.4 40.1-30.5 57.7-26.7 36-58.7 65.9-101.2 82.3-10.4 4-21.6 6.7-32.7 8.2-11.1 1.5-22.4 3.2-33.8 2.4-9.3-.6-18.4 2.2-27.8 2.1-8-.1-15.9-1.4-23.8-1.9-5-.3-6.3-2.6-5.9-7 .3-3 .3-6 .6-9 1.1-9.8 2.5-11 12.1-12.1 17.2-2.1 32.8-7 48.3-16.2 14.5-8.7 23.6-20.3 32.4-33.5 4.9-7.4 10-14.7 14.6-22.4 10.1-16.9 18.8-34.4 24.1-53.2 5.3-18.7 10.4-37.4 12.5-57.1 2.6-24.6-.2-48.1-4.2-72.1-3.5-20.9-10.9-40.2-19.9-59.1-1.4-3.8-3.9-6.1-10.2-6.9zm68.2 122.2c-5.1 1.1-5.6 4.4-6.1 7.8-1.8 12.1-2.7 24.5-5.9 36.3-7.4 26.8-15.2 53.3-30.8 77.1-9.7 14.9-19.5 29.2-33.8 40-8.7 6.6-17 13.9-26.2 19.5-16.3 9.9-32.2 21.1-52.5 22-5.4.2-10.7 3.2-15.9 5.2-2.1.8-3.1 2.5-2.3 4.8.7 2 2.3 2.1 4.1 2 2.6-.2 5.1-1 7.8-1 12.7-.3 25.5-1.1 37.9-3.9 5.2-1.2 10.3-2.3 15.6-3.1 18.2-2.9 35.7-7.9 50.3-19.7 9-7.3 18.6-13.8 26.3-22.7 15.7-18.2 29.3-37.5 38.8-59.8 6.8-16 9.3-33 13.3-49.7 8.4-35.1 11.1-71.2 18.2-106.6.6-2.9.2-6 0-9-.1-1.5-1.3-2.2-2.7-2.3-1.5-.1-2.7.5-3.3 1.8-.5 1.2-.4 2.6-.6 3.9-3 19.9-6.8 39.8-9.5 59.8-2.3 17.4-5.6 34.6-8.5 51.9-3.2 19.4-8.1 38.5-17.8 55.5-13.1 23-27.4 44.9-49.3 61.6-17.4 13.3-36.5 20.9-57 26.7-.4.1-1.1-.5-3-1.5 5.9-3.5 10.9-7 16.4-9.5 9.8-4.5 18.4-10.4 26.1-18 9.4-9.4 17.3-20.1 26-30.1 15.6-18 25.1-38.6 31.7-61.1 3.4-11.8 5.7-23.8 9.3-35.5 4-13.9 6.4-27.6 3.4-42.4zM790.2 337.2c-2.5.5-6.1-.9-6.5 2.6-.4 2.8 2.2 4.7 5 5.3 1.9.4 3.9.5 5.9.8 4 .4 7.7 1.3 11.3 3.2 11.6 6.1 21.6 13.9 31.1 22.9 15.5 14.9 25.9 33.3 37.3 51.1 5.7 9 9.7 18.9 14.3 28.4 8.3 17 16 34.3 18.7 53.2 1.4 9.8 4.3 19.4 4.1 29.5-.1 2.7.7 4.7 3.3 5.4 3 .8 3.6-1.6 4.8-3.7 2-3.3 2.6-6.1 1.7-10.1-4.1-18.4-8-36.8-14.2-54.7-9.1-26.3-18.1-52.3-35.4-74.9-11.3-14.7-22.2-29.6-37.1-40.9-13-9.9-28.1-15.6-44.3-18.1zm164.6-19.9c.8 14.9-1.6 29.1-1.6 43.3 0 11 .6 22-.7 32.9-1.6 13.9-2.2 27.8-3 41.6-1.6 29.1-.5 58.4-3.9 87.5-.4 3.1 1.2 5.5 4 6 3 .6 3.1-2.7 4.3-4.5 1.3-2.1 1.5-4.4 1.6-6.7.1-5.3.2-10.6 0-16-.6-14.5.7-29 .5-43.5-.3-16.8 2.2-33.7 2.9-50.6 1.2-26.8 1.5-53.6 2.9-80.3.5-10.6 1.2-21.2 1.7-31.8.1-2.1-.2-4.3-2.5-4.9-2.8-.7-4.1 1.7-5.2 3.6-.6 1-.4 2.6-.4 3.9.1 6.8.3 13.5-.6 19.5zm48.4 216.6c2.3-2.7 4-4.5 4.6-7.3 4.8-19.3 12.2-37.7 21.2-55.5 11.2-22.2 26.5-40.5 47.3-53.8 8.6-5.5 16.4-12.4 26.2-16 1.3-.5 2.3-2 1.9-3.2-.4-1.7-2.1-2.7-3.9-2.3-3.5.7-7 1.3-10.4 2.9-24.1 11.2-42.9 28.2-57.5 50.3-6.2 9.5-10.3 20-16.1 29.7-8.2 13.7-13.8 28.5-16.1 44.5-.4 3.9-.3 7 2.8 10.7zm-1.6 54.6c0-1.9.1-2.9 0-3.9-.5-3-.8-6.7-4.8-6.3-2.9.3-3.2 3.3-3.6 6.1-.9 6.2-2.6 12.3-4 18.4-8.9 39.3-16.2 79.1-34.4 115.7-.8 1.6-1.6 3.2.4 4.2 1.6.8 3.4.3 4.2-1.5 3.1-6.6 8.1-12.1 10.9-19 10.5-25.5 18.4-51.8 24.1-78.8 2.6-11.7 4.9-23.8 7.2-34.9zm-32-373.6c0-2 .5-4.4-1.5-6.2-1.4-1.2-2.4-3.4-4.8-2.8-1.9.5-1.9 2.5-2.6 3.9-1.7 3.2.2 6.6-.4 9.7-1.5 6.8-.2 13.8-2.3 20.6-1.1 3.7 2.7 9.3 5.6 9.1 4-.3 3.5-4.1 4.5-6.7.2-.6.8-1.3.6-1.8-2.7-8.6.2-17 .9-25.8zm190.9 158.5c-9.5-1.1-17.7.6-25.9 3.4-2.9 1-5.4 2.5-6.9 5.3-.7 1.3-.8 2.6 0 3.7.9 1.1 2.1 1.1 3.5.7 8.3-2.6 16.1-6.9 25.2-7 2.7-.1 3.6-2.5 4.1-6.1zm-426.9-51.7c-2.9.4-6.4 1.2-6 5.6.3 4.5 3.5 5.8 7.7 5.9 4.1.1 6.3-1.8 6.6-5.7.2-3.2-3.3-5.8-8.3-5.8zm239.5-161.6c.5-5.1-1.3-8.1-4.9-8.5-3.3-.3-5.9.8-6.5 4.4-.7 3.7 3.1 9.4 6.7 9.6 4.1.4 4.4-2.8 4.7-5.5zm234.2 211.7c2.8.3 5.6-.6 8.2-2.3 2.3-1.5 2.7-3.7 1.7-6.1-.9-2.2-2.9-2.5-5-2.3-3.1.3-5.4 2.2-7.9 3.9-1.4.9-2.5 2.4-2 4.2.6 2.3 2.5 2.9 5 2.6zm-520.4-46c-.3-2.9-2.3-3.8-4.7-4-2.5-.2-5 .8-5.2 3.3-.3 3.2 2.6 4.3 5.2 4.6 2.8.4 4.1-1.4 4.7-3.9z"/><path fill="#C5A559" d="M513.5 1942.9c.3 27.9-2.1 55.8-2.9 83.6-.7 25.5-2.4 51-4.9 76.5-1 10.2-.2 20.6-.3 30.9-.1 10.7-1.1 11.7-11.4 13.9-8.2 1.8-16.5 1.7-24.8.6-5.1-.7-7.5-3.9-7.3-8.7 1.1-26.2 2.3-52.3 3.7-78.5 1.8-34.4 4.5-68.8 7.3-103.2 1.3-16.8 2-33.8 2.7-50.7.4-9.2.3-9.2 9.1-8.3 7.6.8 15.1 1.9 22.7 2.6 4.6.4 6.2 2.7 6.1 7.2-.2 11.5 0 22.8 0 34.1zm-286.7-58.2c-1.2 27.5-6.1 54.6-10.2 81.7-2.6 17.7-4.2 35.5-7.4 53.1-3.8 20.6-7.2 41.1-8.9 62-.7 8.2-1.8 16.4-2.8 24.7-.1 1 0 2-.1 3-1.6 10.2-2.7 11-13.3 10.6-6.3-.2-12.6-1.1-18.7-2.8-6.9-2-8.2-4.1-8.3-11.4-.2-7 1.7-13.8 2.5-20.7 2.1-17.4 5.8-34.6 8.5-51.9 3.7-23.2 8.6-46.2 11.5-69.5 2.6-21 6.3-41.9 11.1-62.6 2-8.7 3.2-17.6 4.9-26.4 1.2-6 3.3-7.9 8.9-5.9 5.2 1.9 10.5 1.5 15.7 2.3 7.7 1.1 7.5 3.1 7.1 9-.1 1.5-.3 3.1-.5 4.8zm52.3-51.3c9.9 3.2 18.9 8.6 28.8 12.2 5.7 2 11.8.9 17.1 3.7 6.6 4.3 13.2 8.3 20.9 10.9 16.3 5.5 32.5 11.2 49 16.2.5.2.9.9 1.5 1.5-.8 3-3.5 2.6-5.5 2.3-23.9-4-48.1-4.1-72-6.9-22.1-2.5-44.4-3.8-66.5-6.2-15.1-1.6-30.1-4.2-45.1-6.4-10.8-1.6-21.5-3.4-32.3-5-4-.6-7.9-1.4-11.2-3.8-4.9-3.5-5.2-7.4-.3-11.1 5-3.9 10.8-6.3 16.6-8.9 12.2-5.6 25.5-7.2 38.4-9.8 6.1-1.2 12.1-3.2 18.6-3.1 4.9.1 8.9 1 12.9 3.8 6.6 4.5 13.5 8.5 21.3 10.7 2.5.6 5.1.6 7.8-.1z"/><path fill="#C3A458" d="M394.6 1901.2c-1.2 28.2-2.7 56.3-3.4 84.5-.4 18.3-.9 36.5-2.1 54.7-.3 5.1-2.6 6.7-6.5 6.6-5.9-.3-11.9-.9-17.7-2.3-6-1.5-5.7-7.8-5-11.6 2-11.2.9-22.5 2.3-33.7 1.5-12 .5-24.4 1.4-36.5 1.6-21.6 1.8-43.1 1.9-64.7 0-1.7.1-3.3.4-5 .7-4.1 2.4-6.7 7.3-5.4 4.5 1.2 9.2 1.3 13.8 1.4 7.5.2 7.5.3 7.7 8v4h-.1zm201.3 15.5c4.8 3.6 8.4 6.4 12.1 9.1 8 6 11.2 13.4 11.1 23.9-.4 37.2.4 74.5.7 111.7 0 2.3-.3 4.6-.4 6.9-.1 1.9-1 3.1-3 3.4-2.9.4-5.9 1.2-8.8 1.2-11.2.3-13.5-2.3-12.6-13.7.2-2.8-1.1-5.2-1.2-7.8-.4-17-.7-33.9.3-50.9.5-8.6.9-17.1.4-25.7-.6-11.5.4-23.2.5-34.8 0-7.1-.7-14.4.9-23.3z"/><path fill="#0F1010" d="M727.8 761.4c-7.2-4.2-7.5-5.2-2.9-10.4 5.2-5.8 16.2-7.3 22.8-3.1 2 1.3 3.6 2.8 4 5.3.6 3.4-.5 5-4.1 4.8-2-.1-3.6-.8-5.5-1.8-6.5-3.5-6.7-3.2-11.3 3.7-.5.7-1.5 1-2.3 1.5h-.7z"/><path fill="#0D0D0C" d="M4313.5 1889.8c4.9-.3 9-3.4 14-4.2 11.8-1.8 22.7 1.9 32.8 6.2 11.7 5 21.8 13 30.2 23.5 14.4 18.2 20.4 38.9 23.3 61.2.5 3.9 1.3 7.8 1.3 11.8 0 3.2-.9 5-4.3 5.4-3.8.4-4-1.6-4.3-4.8-.8-12.6-3.9-25-7.9-36.8-7.4-21.7-20.1-39.7-40.6-51.1-9.1-5.1-19.5-7.5-29.6-6.7-13.7 1.2-21.8 10.6-28 22.7-8.1 15.9-13.2 33.2-23.4 48-4.7 6.8-9.2 13.7-14.2 20.3-2.4 3.2-5.5 5.7-9.3 7.3-4.4 1.9-8.5 1.4-12.3-1.3-3.6-2.6-2.4-6.6-1.9-10.1.4-2.9 1.2-5.9 2.4-8.6 5-12.2 4.6-25.3 7.3-37.9 3.4-15.8 1.3-31.7.3-47.5-.6-10.5-3.8-20.7-10.2-29.4-2.1-2.8-.9-4.5 1.3-5.6 2.9-1.5 5.8-3.3 8.8-4.3 20.9-7.2 41-16.7 61.1-25.8 22.6-10.2 45-21.1 66.5-33.6 9.2-5.3 18.8-10 26.8-17.1 3-2.7 4.9-.9 6.7.7 2.6 2.3 1.5 4.8-1 6.7-1.3 1-2.7 2-4.1 2.8-26.6 15-52.9 30.5-80.1 44.4-18 9.2-36.1 18.2-54.7 26-2.8 1.2-5.4 2.6-8 4.1-1.3.7-3.5 1.1-2.8 3.4.8 2.6 3.2 2.7 4.9 1.7 6.3-3.7 13.4-5.5 20-8.5 17-7.8 34.4-14.9 50.4-24.8.8-.5 1.9-.6 2.7-1.2 2.1-1.5 3.9-.9 5.2.8 1.5 1.8 1 4-.5 5.4-4.8 4.6-10.1 8.8-16 11.8-5.6 2.9-10.4 7.2-16.6 9-3.3 1-3.6 3.5-3.1 7.1 1.2 9.9 3.9 19.3 6.9 29zm-57.3 85.8c2.5-.2 4.3-1.2 5.5-3.7 2.9-6.3 5.9-12.5 9.2-18.6 9-16.6 18.1-33.1 27.4-49.5 1.3-2.4 1.4-4.3.7-6.6-3.2-9.4-6.5-18.8-9.8-28.2-1-3-2.5-4.3-5.9-2.6-5.1 2.5-10.3 4.6-15.6 6.7-3.4 1.3-3.9 3-3.6 6.8 1.9 23.1 3.7 46.3-4.3 69-2.4 6.8-3.9 14-5.8 21.1-.5 2.6-.7 4.7 2.2 5.6zm327.9-845c4.3-1.8 4.9-4.9 6-7.5 1.2-2.8 3-5.2 5.3-7.1 4-3.3 8.2-2.9 11.1 1.3 1.3 1.8 2.8 4.4 2.5 6.3-1.4 9.1-.6 18.6-5.5 27-6.1 10.5-10.6 10.8-18 .5-1.1 6.1-2.4 11.7-4.1 17.3-3.3 10.8-10.7 18.1-18.8 25-6.8 5.8-15.1 3.7-22.9 3.2-2-.1-2.9-2.4-2.9-4.6 0-2.9 2-3.2 4-3.1 8.9.4 15.7-3.9 22.1-9.4 8.4-7.2 11-17 12.4-27.2 1.3-9.9-1.6-19-5.9-27.8-1.9-3.9-3.8-7.7-5.5-11.6-1.5-3.7.9-7.5 4.7-7.8 3.7-.3 9.1 3.5 10.2 7.5 1.8 6 5.7 11.1 5.3 18zm14.6-2.6c-5.8 6.5-6.2 9.3-1.8 14.8.1-5.4 4.1-9.5 1.8-14.8z"/><path fill="#0F1010" d="M4519 1092.4c-.5 16.8-4.5 32.7-12.7 47.5-3 5.4-7.9 7.2-13.3 6.9-5.4-.3-8.1-4.3-10.2-9.4-4.9-12.1-4.4-23.8 1-35.5 2.9-6.3 6.1-12.5 9.4-18.6 4-7.4 10.4-9.6 18-10.5 3.9-.5 5.2 2.2 6.2 5 1.7 4.6 1.6 9.6 1.6 14.6zm-23.2 42.1c.7-.3 1.6-.4 1.9-.9 8.5-14.2 11.8-29.7 11.8-46 0-1.2 0-2.8-1.7-3.2-2-.6-3.2.7-4.1 2-6.6 10.4-12.2 21.1-12.7 33.8-.2 5.4.1 10.6 4.8 14.3zm-10.9-90.3c-3.9-1.1-8.4.3-9.1-4.1-.5-3.4 3-5.3 5.8-6 13.6-3.3 23.2-11.9 31.5-22.5.8-1 1.9-1.8 3-2.6 1.2-.9 2.3-.9 3.6-.1 1.7 1 2.5 2.6 1.7 4.1-1.9 3.8-3.7 7.9-6.4 11.1-8.3 9.7-18.1 17.4-30.1 20.1zm-77.2 985.6c-.1 8.3-5.7 13.3-9.9 19-.7 1-2.5.9-3.6.1-1.6-1.2-2.8-3.2-1.8-5 3.2-6.1 6.6-11.9 10.1-17.8.4-.7 1.5-1 2.6-.7 2.5.8 2.3 3 2.6 4.4zm146.7-771.6c.8.5 1.9 1.2 3 1.9 21.8 12.5 43.9 24.5 65.5 37.5 19 11.5 39.1 20.9 58.4 31.8 19.5 11 38.6 22.7 58.5 33 16.2 8.4 32.5 16.5 48.4 25.4 17.3 9.8 34.8 19.2 52.5 28.2 1.2.6 2.6.8 3.6 1.5 2 1.3 2.2 3.5 1.2 5.3-.9 1.6-3 1.3-4.5.6-5.3-2.6-10.6-5.3-15.9-8-26.3-13.3-51.9-28-77.9-41.8-24-12.8-48.1-25.2-71.7-38.6-25.4-14.4-51.2-27.9-76.5-42.5-14.1-8.1-28.3-15.9-42.7-23.5-2.5-1.3-5.5-2.6-5.5-6.4 0-2.3.7-3.9 3.6-4.4zm280.7 244.9c-.4 2.5-1.9 3-3 2.4-8.3-4.6-17.1-8.4-23.8-15.4-1.6-1.7-1.8-3.6-.3-5.2 1.9-2 3.5-.3 5 .9 5.7 4.4 10.7 9.7 18 11.7 3.1.8 2.8 4.1 4.1 5.6zm33.5-126.4c-4.6-.7-8.5-2.9-11.1-7-.7-1.1-.9-2.5 0-3.6 1-1.2 2.5-1 3.6-.4 3.4 1.8 6.2 4.7 10.6 4.5 1.8-.1 4.1 1 3.7 3.5-.3 1.9-2.3 1.9-3.9 2.3-.9.2-1.8.4-2.9.7zm30.5 169.7c3.5-1.9 6.1-1.4 8 1.2.9 1.3-.2 2.9-1.4 3.1-3.6.8-5-1.9-6.6-4.3z"/><path fill="#0C0C0B" d="M2585.3 1854.4c5.4 12.9 8.9 25.4 11.4 38 1.1 5.6 2.6 9.2 8.5 10.1 5.3.8 7 4.2 6.4 9.3-.5 4.2-2 5.5-5.8 3.5-3.9-2.1-7.7-3.5-12.2-3.4-6.4.1-11.1 2.4-15.3 7.6-10.6 13.3-15.5 29.1-20.7 44.9-3.2 9.8-7.1 19.3-13.4 27.6-2.5 3.3-5.6 5.5-9.5 6.8-4 1.3-7.2.2-10.1-2.4-3.1-2.8-3.4-5.8-2-9.9 5.4-15.3 8.8-31.2 11.1-47.3 2-13.9 2.3-27.7.5-41.6-1.3-10.2-2.6-20.3-6.9-29.8-1.5-3.4-.5-5.6 4.2-6.8 23.7-6.3 46.4-15.5 68.7-25.9 11.7-5.5 23.8-10.2 35-16.8.6-.3 1.2-.6 1.8-.7 1.9-.4 4.1-.9 5.3 1.3 1 1.8-.4 3.2-1.4 4.4-3.8 4.3-8.5 7.4-13.6 10-10.9 5.6-21.9 11-32.9 16.5-2.9 1.3-5.8 2.9-9.1 4.6zm-47.3 125.3c6.8-7 10.6-15.4 13.5-24.1 3.7-11 6.6-22.2 10.3-33.2 2.5-7.4 6.7-14 15.2-15.5 4.7-.9 5.2-4.1 4.3-7.4-2.9-10.9-6.1-21.7-10.3-32.1-1.5-3.8-4-5-7.8-3.5-5.2 2.1-10.4 4.4-15.6 6.4-3.6 1.4-3.7 3.4-2.9 7 2.3 9.9 3.1 20 3.8 30.3 1.5 21.6-1.9 42-9 62.2-.9 2.8-3.5 5.7-1.5 9.9z"/><path fill="#0D0D0C" d="M2285 779.9c0-2.8-.5-4.9.1-6.7 6.4-17.6 13.8-34.7 34.6-39.8 2.4-.6 4-2.3 6-3.3 10-5.4 31.5-3.2 39.8 4.1 1.9 1.7 4.1 3.8 3.1 6.8-.8 2.2-3.1 2.7-5 2.4-6.8-1-9.4 4.6-12 8.6-3.6 5.4-6.7 11.5-6.4 18.5.1 3-.4 5.6-3.9 5.6-3.6.1-5.2-2.5-5.6-5.7-.5-3.7.4-7.3 1.7-10.7 2.8-7.4 5.4-14.8 11.5-21.7-7.8-2.3-14.2-.5-19.8 2.2-12.9 6.2-24.4 14.5-32.4 26.9-.9 1.4-2.5 2.8-2.4 4.2.1 6.4-4.6 6.8-9.3 8.6z"/><path fill="#0F1010" d="M2675.6 1783.3c-.1 3.3-2.2 4.5-4 6-7.5 6-15.7 11.2-24.2 15.5-28.4 14.3-56.9 28.3-86.6 39.7-7.7 3-15.4 6-23.2 8.6-2.6.9-7 4.1-8.3-1-.9-3.6 2.2-6.3 6.4-7.3 6.1-1.5 12.1-3.4 18-5.4 11.3-3.9 21.9-9.4 32.7-14.4 4.2-2 8.6-3.2 12.9-5 18.1-7.5 34.7-17.8 52.2-26.5 5.3-2.6 10.1-6.3 14.8-9.8 2-1.4 3.7-2.7 6.2-2.5 2 0 3.3.4 3.1 2.1zM2453.9 725.6c17 .1 31.6 4.4 43.3 17 8.2 9 7.2 20.1 8.2 30.8.2 2.4-2.2 4-3.8 5.7-2.1 2.2-3.5 1.1-4.2-1.1-.4-1.2-.1-2.6-.3-3.9-1.6-15.7-11.2-30.7-28.7-32.9-2.3-.3-4.5-1.2-6.7-2-14.7-5.2-28.5-3.3-41.5 5.1-1.9 1.3-3.9 2.6-6.1 3.2-1.6.5-3.2-.7-4.1-2.2-.9-1.4-.3-2.8.8-3.4 9.5-5.2 18-12.3 28.9-15 4.9-1.3 9.6-2.1 14.2-1.3zm-62.7 178.5c-3.8-.7-7.5.6-10.6 2.1-11 5.6-20.9 12.7-28 23.1-4.8 7.1-9.7 14.1-13.5 21.9-1 2.1-2.4 4.6-5.1 3.5-3-1.2-2.6-4-1.5-6.8 4.7-12 7.7-25 15.6-35.2 10.5-13.4 24.6-21.4 42.3-21.3 3 0 6 .2 9 .2 3.1 0 5.1 1.5 5.4 4.6.4 3.3-.5 6.1-4.2 6.8-3 .7-6.1 2.9-9.4 1.1zm311.4 1101.6c.4 2.5-.6 4.6-3.2 5.2-2.4.6-3.1-1.5-4.2-3.2-4.6-7.2-4.2-15.8-6.1-23.6-6.2-25.3-19.9-45-42.1-58.9-1.1-.7-2.5-1.1-3.3-2.1-1.1-1.3-1.5-3.8.6-3.9 3.1-.1 5.9-2 9.5-.1 20.8 10.8 34.1 27.9 41.2 49.8 3.8 11.9 6.9 24.1 7.6 36.8z"/><path fill="#0D0D0C" d="M2481.6 702.5c-2.6 1.8-5 1.9-6.5 1.2-9.8-4.9-16.2 1.6-23 6.6-3.4 2.6-6.2 6-9.2 9-1.2 1.2-2.8 2.2-4.4 1.2-1.5-.9-1.6-2.8-1.5-4.5 0-.7.1-1.3.3-2 3.6-11.9 20.9-22.9 32.8-20.5 4.9 1.1 9.2 3.6 11.5 9z"/><path fill="#0C0C0B" d="M477.9 1676.5c-.3 7.6-.7 15.3-.9 22.9-.2 9.8-5.1 17.5-15.8 17.9-4.2.2-8.5 1.9-12.7.4-7-2.5-12.4-5.7-14.5-14.3-2.3-9.5-6.1-18.9-12.5-26.8-4.6-5.7-10-8.5-17.4-6.7-3.9.9-8.1.9-11.7 2.4-18.5 8-36.9 4.4-55.1-.1-16.2-4-30.9-11.4-44.8-20.7-6.2-4.1-10.9-9.7-14.6-16.1-2.2-3.8-5-5.5-9.6-5.8-17-1-32.9-6.3-48.8-12.1-23.2-8.4-45-19.7-65.4-33-20.1-13-39.7-27.4-53.4-48.2-8.4-12.7-18.7-24-26-37.5-13.1-24.1-21.3-49.6-26.3-76.5-2.5-13.8-4.3-27.7-4.4-41.4-.1-15.3.8-30.9 5-46.2 6.5-23.3 13.3-46.5 25.2-67.7 9.3-16.5 19.8-32.1 30.9-47.5 13.6-19 29.5-35.8 46.2-51.9 9.4-9.1 19.3-18.2 32.1-22.9 1.9-.7 3.5-1.8 5.6-1.6 2.1.2 4 .8 4.6 3.1.5 2-1 3-2.4 3.8-15 8.2-27.6 19.6-39.7 31.4-13.5 13.1-25.9 27.2-36.7 42.8-7.7 11.2-15.3 22.3-22.2 34-12.3 20.6-21.4 42.5-29.4 65-7.4 20.7-9.1 42.2-8.6 63.5.3 16 5.4 31.8 8.3 47.8 2.2 12.4 5.3 24.7 11.1 35.7 16.1 30.6 34.5 59.7 60.4 83.3 21.9 19.9 46.9 34.5 75.6 42.3 12.4 3.4 23.8 9.6 36.7 12 10.4 2 20.6 4.8 31.3 5 4.1.1 7 2.1 9.5 4.8 4.4 4.9 8.3 10.2 12.6 15.2 12.2 14.1 26.7 24.7 45.1 29.4 16.6 4.2 32.8 2.2 48.7-3.1 17.9-6 23.4-8 38.5 12.3 5.7 7.7 9.6 16.6 13.2 25.6 1.5 3.8 2.2 9.6 9.1 8.2 6-1.2 10.3-4.6 10.7-11.4.6-12.2 2.1-24.6-3.8-36.2-1.6-3.2-2.6-6.8-3.7-10.3-.8-2.6-1.3-5.2 1.3-7.3 3.2-2.5 5.9-.3 8 1.5 7.1 6.1 13.1 13.5 17.7 21.4 6.1 10.5 13.2 20.6 17.2 32.4 2.4 7.1 5.8 8.3 13.3 6.9 14.7-2.9 25.2-12.6 35.2-22.8 2.6-2.6 4.5-6 7.4-8.1 9.9-7.1 9-17.2 7.3-26.9-5.1-29.5-17.6-56.2-34.4-80.7-5.1-7.4-12.4-12.9-19.1-18.9-16.2-14.3-35.5-22.7-55.5-29.9-22-7.9-44.8-11.1-68-12.3-12.8-.7-25.4-3.3-37.6-8.4-8.4-3.5-17.2-6.4-25.8-9.9-18.1-7.4-33.6-18.8-47.6-32.2-5.9-5.7-10.3-12.7-12.7-21-3.7-12.9-5.3-25.8-5.4-39.2-.1-12.7 4.7-24.1 9.1-35.5 10.5-26.9 26.3-50.6 46.8-71 6-5.9 12.6-11.7 21.7-13.3 2.3-.4 4.5-1.3 6.7-.3 1.4.6 3.2 1.3 3.6 3.2.4 2-1.1 2.8-2.5 3.7-19 11.7-33.3 27.7-45.5 46.4-9.4 14.4-16.4 29.4-21.8 45.4-5.3 15.6-7.3 31.7-3.6 47.8 3 13 10.3 23.5 20.4 32.3 15.8 13.7 34.6 22.5 53.9 29.1 11.7 4 24.2 6.5 36.5 9.1 12.1 2.5 24.4 1.1 36.4 4.4 13.7 3.7 27.8 6.1 41.3 10.5 10 3.3 20 7.4 28.6 13.7 3.6 2.6 7.6 3.8 11.3 6 22.1 13.5 37.6 32.9 51.1 54.5 9.7 15.4 13.8 32.9 19.7 49.7 2.7 7.7 3.5 16.2 4.4 24.3 1 8.6-2.1 16.9-7.1 23.3-14.6 18.6-33.5 31.9-55.4 40.9-5.2 2.1-10.2-1.1-15.4-1.4-3.2-.2-3.8-5.1-5-8-2-4.5-3.2-9.4-4.7-14.1-2.1-6.6-4.1-13.3-9-18.6-.8-.5-1.9-1.5-2.2-1.3-1.8 1.3-1.3 2.6-.6 3.8zm386.2 183.6c8.4 17.2 19.2 33.3 23.2 52.4.6 3.1 2.3 4.3 5.7 2.7 21.1-9.7 43-9.9 65.2-5.3 5.1 1.1 10.2 3.2 14.8 5.7 20.9 11.1 37.8 25.9 43.5 50.1 3.1 13 3.4 26.3 2.5 39.6-1.1 15.6-3.4 30.9-9.2 45.5-5.9 14.8-17.3 25.8-27.8 37.3-3 3.2-7.2 2.1-13.3 1.4 15.4-12.4 22.9-28.2 30.2-43.8 8.8-18.6 11.7-38.6 9.5-59.1-1.1-10.5-2.3-21-7.3-30.6-7.7-14.6-19-26-33.7-32.8-12.3-5.6-26.2-7.7-39.8-5.1-12.5 2.4-25.1 5.3-36.3 12.2-16 9.8-29.7 22.3-42.6 35.7-5.1 5.3-10 10.7-17 13.5-4.8 2-6.2.9-7.6-4.1-.7-2.6.3-4.7.8-6.8 5.7-21.1 6.5-42.6 5.8-64.2-.3-8.6-2.4-17-4.7-25.3-1.3-4.8-1.6-9.7-3-14.5-1.5-5.1 1.4-8.4 6.7-10.3 28.1-10 56.5-19.2 82.8-33.7 2.3-1.3 4.8-2.5 7.3-3.1 2.4-.7 5.3-2 7.3.9 2.1 3.1-.3 5-2.2 6.8-2.6 2.5-5.5 4.7-8.7 6.6-15.1 9-31.3 15.9-46.7 24.4-1.8 1.1-4.3 1.5-5.4 3.9zm-20.7 94.1c1.5-.6 2.1-.8 2.6-1.1 9.8-6.9 16.2-17.5 26.3-24 3-1.9 1.9-4.6 1-7.1-2.8-7.8-5.2-15.7-8.5-23.3-4.3-10.1-10.1-19.3-16.9-27.9-1.4-1.8-2.5-4.4-5.4-3-2.9 1.4-2.8 3.8-2 6.8.9 3.1.9 6.6 1.3 9.8 2 16.4 4.3 32.8 2 49.4-.8 6.5-1.6 13.1-.4 20.4z"/><path fill="#0F1010" d="M828.2 1851.1c-2.9-1.9-6.5-3.2-8.4-6.3-1.2-2 .2-4 2.1-4.8 2.4-1.1 5-1.8 7.5-2.5 22.5-6.3 44.8-13.8 65.5-24.4 15-7.7 31.3-12.5 45.6-21.6 6.1-3.9 12-8.2 17.8-12.6 2-1.5 3.3-1.6 5.1.1 2 1.9 2.6 3.6.5 5.9-2.7 3-5.8 5.4-9.1 7.6-15.2 10.1-32 17.2-48.5 24.7-13.5 6.1-27.5 11.3-41 17.5-11 5.1-22.8 8.4-33.2 14.8-1.2.7-2.5 1-3.9 1.6zM609.6 952.4c4.1-27.3 18.8-55.1 51.8-61.1 6.2-1.1 12.4-2.3 18.6-3.4 1-.2 2-.1 3-.1 3.5-.1 7.7.4 7.9 4.2.2 4-4.2 3.2-7 3.2-19.3.5-34.7 9.8-48.8 21.7-4.9 4.1-7.3 10.3-9.9 16-3.1 6.9-7.2 13.5-7.7 21.4-.1 1.3-.7 2.6-1.3 3.7-.9 1.7-2.5 2.1-4.3 1.6-1.4-.4-2.2-1.4-2.3-2.9-.1-1.2 0-2.6 0-4.3zm13.3-158.8c-9.7-3.7-16 0-22.5 3.4-7.2 3.7-6.4 11.8-9 18.2-6-4.7-7.2-8.2-5.2-13.5 5.6-14.2 22.7-23.5 37.6-20.1 5.7 1.3 11.3 3.6 16.9 5.2 2.7.8 2.5 2.6 2.2 4.7-.4 2.7-2.3 4.3-4.6 4.6-8.9 1.1-12.9 8.1-17.9 14-.4.5-.6 1.2-1 1.7-1.4 2.1-2.8 3.6-5.6 2.1-2.6-1.4-3-3.6-2-5.9 2.2-5.3 4.4-10.5 11.1-14.4zm294-170.9c3 14.8.6 28.5-3.6 42.2-3.6 11.7-5.9 23.7-9.3 35.5-6.5 22.5-16.1 43.1-31.7 61.1-8.7 10-16.6 20.7-26 30.1-7.6 7.6-16.2 13.5-26.1 18-5.5 2.5-10.5 6.1-16.4 9.5 1.9 1 2.5 1.6 3 1.5 20.4-5.8 39.6-13.4 57-26.7 21.9-16.7 36.2-38.6 49.3-61.6 9.7-17 14.6-36.1 17.8-55.5 2.8-17.3 6.2-34.5 8.5-51.9 2.6-20 6.5-39.8 9.5-59.8.2-1.3.2-2.7.6-3.9.5-1.3 1.8-1.9 3.3-1.8 1.5.1 2.7.8 2.7 2.3.2 3 .5 6.1 0 9-7 35.4-9.8 71.5-18.2 106.6-4 16.6-6.5 33.6-13.3 49.7-9.5 22.3-23.2 41.6-38.8 59.8-7.6 8.9-17.3 15.4-26.3 22.7-14.5 11.8-32.1 16.8-50.3 19.7-5.2.8-10.4 1.9-15.6 3.1-12.4 2.9-25.2 3.6-37.9 3.9-2.7.1-5.2.9-7.8 1-1.7.1-3.4.1-4.1-2-.8-2.3.2-4 2.3-4.8 5.3-1.9 10.6-4.9 15.9-5.2 20.3-.9 36.2-12.1 52.5-22 9.3-5.6 17.5-12.9 26.2-19.5 14.3-10.8 24.1-25.2 33.8-40 15.5-23.8 23.4-50.3 30.8-77.1 3.2-11.7 4.1-24.1 5.9-36.3.7-3.2 1.2-6.5 6.3-7.6z"/><path fill="#0D0D0C" d="M790.2 337.2c16.2 2.5 31.3 8.2 44.4 18.2 14.9 11.3 25.8 26.1 37.1 40.9 17.3 22.6 26.4 48.6 35.4 74.9 6.2 17.9 10.1 36.3 14.2 54.7.9 4 .3 6.8-1.7 10.1-1.3 2.1-1.9 4.4-4.8 3.7-2.6-.7-3.4-2.7-3.3-5.4.2-10-2.7-19.6-4.1-29.5-2.7-18.9-10.4-36.2-18.7-53.2-4.6-9.5-8.6-19.4-14.3-28.4-11.4-17.8-21.8-36.2-37.3-51.1-9.4-9-19.5-16.9-31.1-22.9-3.6-1.9-7.4-2.8-11.3-3.2-2-.2-4-.3-5.9-.8-2.8-.6-5.4-2.5-5-5.3.3-3.6 3.9-2.2 6.4-2.7z"/><path fill="#0F1010" d="M954.8 317.3c.9-6 .7-12.7.6-19.3 0-1.3-.2-2.9.4-3.9 1.1-1.9 2.4-4.4 5.2-3.6 2.3.6 2.6 2.8 2.5 4.9-.5 10.6-1.1 21.2-1.7 31.8-1.4 26.8-1.7 53.5-2.9 80.3-.7 16.9-3.2 33.7-2.9 50.6.2 14.5-1.1 29-.5 43.5.2 5.3.2 10.6 0 16-.1 2.3-.3 4.6-1.6 6.7-1.2 1.8-1.3 5.1-4.3 4.5-2.8-.6-4.4-2.9-4-6 3.3-29.1 2.2-58.4 3.9-87.5.8-13.8 1.5-27.8 3-41.6 1.2-10.9.7-21.9.7-32.9 0-14.5 2.4-28.6 1.6-43.5zm48.4 216.6c-3.1-3.7-3.2-6.9-2.7-10.7 2.4-16 8-30.8 16.1-44.5 5.8-9.7 9.8-20.3 16.1-29.7 14.6-22.1 33.4-39.1 57.5-50.3 3.4-1.6 6.9-2.2 10.4-2.9 1.8-.4 3.5.7 3.9 2.3.3 1.2-.6 2.7-1.9 3.2-9.8 3.6-17.6 10.5-26.2 16-20.8 13.3-36.2 31.6-47.3 53.8-9 17.8-16.4 36.2-21.2 55.5-.7 2.8-2.3 4.7-4.7 7.3zm-1.6 54.6c-2.3 11.1-4.6 23.1-7.1 35.1-5.8 27-13.7 53.2-24.1 78.8-2.8 6.9-7.8 12.4-10.9 19-.8 1.8-2.6 2.3-4.2 1.5-2-1-1.2-2.7-.4-4.2 18.1-36.6 25.5-76.4 34.4-115.7 1.4-6.1 3.1-12.2 4-18.4.4-2.9.7-5.9 3.6-6.1 4-.4 4.3 3.3 4.8 6.3 0 .8-.1 1.8-.1 3.7zm-32-373.6c-.7 8.7-3.6 17.1-.9 25.7.2.5-.4 1.2-.6 1.8-1 2.6-.5 6.4-4.5 6.7-2.9.2-6.7-5.4-5.6-9.1 2-6.8.8-13.8 2.3-20.6.7-3.1-1.2-6.5.4-9.7.7-1.4.7-3.4 2.6-3.9 2.4-.6 3.4 1.6 4.8 2.8 2 1.9 1.5 4.3 1.5 6.3zm190.9 158.5c-.5 3.5-1.4 6-4 6-9.1.1-16.9 4.4-25.2 7-1.5.5-2.7.4-3.5-.7-.8-1.1-.7-2.5 0-3.7 1.5-2.8 4-4.3 6.9-5.3 8-2.7 16.3-4.3 25.8-3.3zm-426.9-51.7c5 0 8.5 2.5 8.2 5.9-.3 3.9-2.5 5.8-6.6 5.7-4.2-.1-7.3-1.4-7.7-5.9-.2-4.5 3.2-5.2 6.1-5.7zm239.5-161.6c-.4 2.6-.7 5.8-4.8 5.5-3.6-.3-7.4-5.9-6.7-9.6.7-3.6 3.3-4.7 6.5-4.4 3.8.4 5.5 3.4 5 8.5z"/><path fill="#0D0D0C" d="M1207.3 371.8c-2.5.3-4.3-.3-4.9-2.6-.5-1.8.6-3.2 2-4.2 2.4-1.6 4.8-3.6 7.9-3.9 2.1-.2 4.1.1 5 2.3 1 2.4.6 4.5-1.7 6.1-2.7 1.7-5.5 2.6-8.3 2.3z"/><path fill="#0F1010" d="M686.9 325.8c-.6 2.5-1.9 4.3-4.7 3.9-2.7-.4-5.5-1.4-5.2-4.6.2-2.5 2.7-3.5 5.2-3.3 2.5.2 4.5 1.1 4.7 4z"/><path fill="#DDE8ED" d="M4598.7 1128c2.3 5.3-1.7 9.5-1.8 14.8-4.5-5.5-4-8.3 1.8-14.8z"/><path fill="#F7F7F7" d="M4495.8 1134.5c-4.6-3.7-5-8.9-4.8-14.3.5-12.7 6.1-23.4 12.7-33.8.9-1.3 2.1-2.6 4.1-2 1.7.5 1.7 2 1.7 3.2.1 16.3-3.3 31.8-11.8 46-.3.5-1.2.6-1.9.9z"/><path fill="#FEFEFE" d="M477.9 1676.5c-.7-1.2-1.2-2.5.1-3.4.3-.2 1.4.8 2.2 1.3-.8.7-1.5 1.4-2.3 2.1z"/></svg>