<svg xmlns="http://www.w3.org/2000/svg" viewBox="0 0 2921.1 2212.5"><path fill="#090909" d="M2047.9 621.3c2.9-28.1-16.1-47.2-41.4-48.9-10.1-.7-19.8 1.7-29.6 2.7-11.2 1.1-21.7-1.1-30.3-8.9-6.4-5.8-6.7-10.9-2.6-18.7 2.2-4.1 6.5-6.5 7.7-11.4 1.4-5.6 1.1-8.1-4-10.4-4-1.7-8.2-3-12.5-.8-6.5 3.3-13.5 5.8-19.4 9.9-14.9 10.5-31.7 16.4-48.8 21.6-13.9 4.2-26.2-1.4-36.8-10.1-4.9-4-5.9-10.3-4.1-16.5 1.2-4.1 3.2-8 4.7-12 2.1-5.8 1.4-8.1-4.7-9.7-12.3-3.2-24.9-3.7-37.4-.5-16.8 4.3-31.7 13.2-47.2 20.7-11.7 5.6-23.3 11.1-37 9.6-16.9-1.9-28.5-18.8-20-34.8 3.3-6.2 7.4-11.8 13.5-15.7 8.4-5.3 16.9-10.4 26.2-13.9 2.5-.9 4.7-2.6 7.2-3.5 5.2-1.9 5-5 2.9-9.2-11-22.1-18.6-45.3-23.6-69.4-4.9-24-5-48.2.9-71.9 5.1-20.7 14.9-39.4 29.2-55.9 20.5-23.7 44.4-42.8 71.8-57.4 18.4-9.8 37.3-19 57.5-23.9 17.3-4.2 34.9-8.1 52.9-8.3 13.5-.2 27-2 40.6-.3 13.1 1.7 26.2 2 39.1 5.6 7.8 2.2 16.2 2.8 24 5.4 24.5 8.1 49 16.4 71.8 28.9 1.9 1.1 3.8 2.8 6.6 2.6 8.4-16.3 16.7-33.1 29.4-46.6 14.3-15.2 27.8-31.2 44.9-43.7 15.5-11.3 29.2-24.9 44.9-36.1 24.7-17.6 51.1-31.9 78.8-43.9 42.7-18.5 87-31.6 132.7-40 11.1-2 22.2-5 33.3-5.1 23.5-.3 47.1-2.2 70.4 2.1 6.7 1.2 13.2.5 19.8 1 21.9 1.8 42.6 8.7 63.6 14.8 17.3 5.1 32.9 13.8 49.5 20.1 9.9 3.8 18.5 10.2 27.2 16.4 15.1 10.7 30.4 21.1 43.8 33.9 15 14.4 29.6 29.3 43.2 45.3 14.8 17.5 28.8 35.6 42.5 54 15.8 21.1 28.4 44 40 67.5 10.5 21.2 17.3 43.7 24 66.2 2 6.7 4.8 13.2 6.3 19.9 4.4 19.3 8.6 38.6 12.1 58.1 3 16.4 3.1 33 5.6 49.2 3.2 20.7-.2 40.8-1.4 61.2-1 17.3-6.2 33.8-9.8 50.6-1.5 7.2-4.5 13.9-7 20.7-7.3 19.5-15.2 38.7-24.3 57.5-1.6 3.3-1.5 5.7 1.3 7.7 12.6 9.1 19.5 22.6 26.8 35.5 8.4 15 14.6 31 16.9 48.5 4.3 32.2-2.4 62.2-15.6 91.3-7.2 16-18.4 28.6-30.9 41-16.4 16.3-35.5 27.9-56.3 36.7-22.7 9.6-46.6 14.7-71.4 15.6-6.3.2-12.7.7-19 .4-4.9-.3-6.6 2.2-7 6.3-1 9.6-3.2 18.9-6.5 28-5.7 15.9-11.5 31.6-19.8 46.3-12.5 22.1-27.3 42.4-45.4 60.1-13.4 13.2-26.9 26.6-43.6 35.5-23.5 12.5-46.2 26.7-72.3 34.2-10.4 3-20.8 6.8-31.1 10-18.9 5.8-38.3 11-58.5 9.4-12.2-1-24.5.9-36.7-1.4-8.8-1.7-17.9-2.2-26.4-4.8-28.5-8.5-56.5-18.2-82.6-33.1-21.9-12.5-43.8-25-62.1-42.6-3.6-3.4-6.5-2.5-9.2.6-14.2 15.7-33.2 24.1-51.5 33.2-23.2 11.5-47.8 18.8-73.7 22.4-18.3 2.5-36.5 1.7-54.7 1.6-1.3 0-2.7-.1-4-.4-34.3-7.6-68.2-17-98.8-34.5-13.1-7.5-25.6-16.4-37.1-26.6-10-8.9-18.7-18.6-27.5-28.5-4.1-4.6-7.2-9.5-9.6-15-1.3-3-2.8-4.7-6.8-3.8-13.7 3-27.6 3.5-41.4 1.4-13.9-2.2-27-7-38-16-13.1-10.7-25.7-22-33.2-37.8-8.8-18.5-12.2-36.8-2.1-56.2 4.6-8.7 8.2-17.8 14.6-25.5 5.8-7 13.8-11.5 20.3-18.7-7.5-5.8-15.2-11.4-22.8-16.9-13.7-9.9-24.2-22.7-36-34.3-5.4-5.4-10.1-11.5-15.2-17.1-6.3-6.9-12.1-13.9-16.4-22.4-3.7-7.4-9.2-13.8-13.2-21-10.4-19-13.3-38.7-3.9-59.1 4.8-10.3 13.9-13.9 24.2-14.9 7.2-.7 14.6.4 21.4 3.6 7.9 3.7 16.3 4.5 24.8 5.6 1.8-3.7.3-6.8-.5-9.9-1.7-6.7-.6-13.2 1.2-19.6 1.2-4.3 4.2-8.1 8-9.8 12.9-5.9 25.8-9.1 40-2.4 11.7 5.5 21.1 13.7 31.2 21.1 7.2 5.3 14.4 10.7 22.2 15.2 4.1 2.4 8.4 4 12.9 4.7 8.3 1.3 14-1.9 17.1-9.7 1.8-4.6 3.2-9.4 4.7-14.2 4.7-14.7 18.6-24.6 34.2-25.6 13.1-.9 24.9 2.7 36.4 8.3 13.4 6.5 26.6 13.2 39.6 20.4 7.5 4.2 16 5.9 24.4 7.5 6 1.2 10.8-1.1 13.7-6 6.8-11.4 16.4-19.7 29.2-27.2-10.6-3.8-19.8-7-29-10.4-17.7-6.6-36.5-8.9-54.4-14.6-14.9-4.7-30.6-5-45.6-8.9-13.4-3.5-27.2-5.3-40.8-7.7-14.6-2.5-29.6-4.2-44.6-3.5-11.1.5-22.3-.9-33.4.7-6.8 1-13.5-1.1-20.5-.9-24.3.8-48.2 4.8-71.9 9-31.2 5.4-62.1 12.8-92.3 23.1-17.8 6-35.9 11.5-53.6 17.7-22.5 7.9-44.1 17.8-65.6 28.2-15.8 7.7-32 14.3-47.3 22.9-21.1 11.9-41.9 24.2-62 37.7-16.9 11.4-33.1 23.8-48.6 37.1-13.1 11.2-25.2 23.6-38 34.9-26.3 23.1-49 49.4-71.4 76-5.1 6.1-9.6 12.7-14.3 19.1-1.2 1.6-2.3 3.3-3.6 4.7-1.4 1.6-3.2 2.5-5.2.8-1.8-1.5-1.9-3.4-1.4-5.4.2-.9 1.1-1.6 1.7-2.4 12.8-15.7 25.1-31.7 38.7-46.8 14.2-15.8 28.6-31.5 43.5-46.7 13.4-13.8 27.4-27 43.1-38.4 8.8-6.4 16.5-14.3 25.3-20.8 15.9-11.9 32.7-22.6 49.2-33.7 22.8-15.5 47.5-27.1 71.7-39.7 17.6-9.1 35.3-18.3 53.8-25.3 28.1-10.6 56.2-21.3 85-30.4 25.3-8 50.8-14.8 76.8-19.7 26.9-5.1 54-8.7 81.6-9.8 13.9-.5 27.7-1 41.6-1.3 20.9-.4 41.6 2.4 62.3 4.9 14.1 1.7 28.3 2.9 42.1 5.9 22.9 5 45.9 9.5 68.6 15.7 15.5 4.8 31.2 8.6 47.5 12.9zm113 43.3c-3.8-3.1-7.2-3.1-10.4-3.3-12.9-.9-25.8-2.3-38.9-2.1-7.2.1-8.8-1.5-9.5-8.6-.6-6.7.1-13.3 1.1-19.9 1.5-10.2 7-17.1 16.8-20.4 12.4-4.1 25.1-6.6 38.2-5.6 8.2.7 15-.3 21.3-7.3 9.3-10.5 21.9-14.6 36.2-13.3 8 .7 15.9 1.5 23.5 4 5.6 1.8 10.8 2.3 16.6.5 4.6-1.4 9.6-2.1 14.8-1.5 23.9 2.8 46.7 9.8 69.4 17.6 12.9 4.4 25.8 9.1 38.9 12.5 10.7 2.8 20.7 6.9 30.9 10.7 8.4 3.2 16.4 7.2 25.4 8.6 1.9.3 3.8 1.3 5.5 2.2 18.6 9.5 38.3 16.9 56.8 26.5 12 6.3 24.8 11.3 36.7 17.8 16.9 9.2 33.5 19 50.1 28.8 14 8.2 28.6 15.7 41.7 25.3 18.5 13.5 38.5 25 55.3 40.8 10.9 10.2 24.1 18.1 34.4 28.7 27.2 27.8 58.6 51.2 84 80.7 1.9 2.2 4.1 3.8 7 2.7 9.6-3.7 19.7-6.6 28.5-11.7 9.7-5.6 18.8-12.3 27.1-20.2 12.4-11.8 23.5-24.3 31.2-39.8 7.1-14.2 10.2-29.4 14.3-44.5 5.5-20.2 1.8-39.6-4.1-58.7-7.2-23.6-21.1-43.5-38.2-61.2-7.5-7.7-7.5-8.1-2.9-17.9 4.8-10.2 10.2-20.2 14.5-30.6 6.2-15.1 12-30.3 17.3-45.7 5.1-14.8 9.9-29.9 10.7-45.6 2.2-45.7-.1-91.1-10-135.9-2.9-13-4.8-26.2-8.8-38.9-10.4-33.4-22.9-65.9-38.4-97.3-14.5-29.5-31.8-56.8-53-81.7-17.3-20.3-36.9-38.2-56.2-56.5-18.7-17.8-38.6-33.5-60.9-46.4-22.5-13-46.5-23-71-31.3-10.3-3.5-20.9-6.6-31.7-8.6-22.7-4.2-45.7-3.7-68.7-4.3-27.4-.6-54.4 3.3-81.4 7.2-22.5 3.2-44.3 8.8-65.5 16.8-14.6 5.5-29 11.6-43.5 17.3-23.6 9.3-46.3 19.8-67.7 33.4-20 12.7-38.6 27.1-56 43.1-8.8 8-18.7 15.1-26.8 23.8-14.3 15.3-27 32-38.8 49.4-6 9-10 18.7-11.9 29.4-.9 4.9-2.5 5.6-6.2 2.7-20.2-15.9-43.2-26.3-67.5-33.3-28.7-8.3-57.8-14.8-88-16.1-22.4-.9-44.4-.6-66.3 4.4-18.9 4.3-37.3 10.1-54.6 18.6-31.6 15.5-59.8 35.9-82.9 62.7-11.4 13.2-20 28.5-25 45.1-6.4 21.3-7.1 43.2-3.2 65.2 2.2 12.2 5 24.1 8.6 35.9 4.7 15.3 10.4 30.2 19.8 43.4 5.6 7.9 4 13.2-5.2 16.6-6.5 2.5-13.2 4.7-19.8 6.9-9.1 2.9-16.8 8.1-23.9 14.1-6.1 5.2-8 14.7-4.8 21 2.8 5.6 11.7 9.7 18.7 8.9 11.6-1.3 21.5-7.1 31.2-12.7 10.9-6.3 21.8-12.5 33.3-17.6 17.7-7.9 35.1-8.8 53-1.3 9.9 4.2 13.3 10 10.5 20.4-1.1 4.2-3.2 8-4.5 12.2-2.3 7.3-.4 11.5 6.6 14.4 5.2 2.2 10.7 4 16.5 3.1 10.5-1.7 20.7-4.5 30-10.2 10.2-6.2 19.4-14.1 30.6-18.8 8.9-3.7 17.7-4.3 27.2-1.9 12.6 3.2 18.2 18.2 7.9 28-3.9 3.6-5.1 7.9-3.2 12.7 1.9 5 6 8.1 11.5 8.2 6 .2 12.1 1.4 17.9-.3 9.2-2.6 18.6-1.7 27.8-1.4 8.6.3 16.6 3.4 24.2 8.1 17.1 10.5 21.7 28 26.1 45.3 1.9 7.3 5.3 11.1 12 12.6 5.6 1.2 10.9 3.1 16 5.5 2.6 1.2 4.2 3.1 5.2 5.7.9 2.5.2 4.6-1.5 6.5-1.6 1.9-3.4 1.3-5.4.5-2.4-1-5.1-1.6-7.5-2.8-8.9-4.4-16.7-2.4-24 3.7-6 5-10.4 11.3-14.7 17.5-7.4 10.6-16.9 13.7-29.4 11.3-14.3-2.7-26.7-10-40.2-14.6-15.9-5.4-29.6-16.4-47.4-17.1-10.5-.4-21.1 3.2-25.7 12.6-3.8 7.7-7.1 15.7-10.7 23.6-5.5 12.2-11.2 14.7-24.3 11.8-7.6-1.7-14.6-4.7-21.2-8.5-14.9-8.8-29.6-17.8-44.4-26.9-6.9-4.2-13.8-8-22.2-7.9-7.5.1-14.3 2.3-17.4 9.4-2.9 6.7.1 13 4.8 18.2.4.5 1.1.8 1.5 1.3 4.2 4.9 4 7.8-1.5 11.3-10.2 6.7-21 10.1-32.9 4.5-4.2-2-8.5-3.7-12.8-5.6-5.5-2.4-10.9-4.9-16.9-5.8-7.1-1-15.7 2.3-18.2 8.8-3.7 9.6-6.2 19.5-3.5 30.1 5.5 21.6 18.9 38.6 31.3 56.3 7.7 10.9 17.6 20 27 29.3 13.2 12.9 25.6 26.6 42.4 35.8 11.4 6.2 22 9.7 34.7 6.4 6.2-1.6 11.9.8 16.9 4.2 3 2 2.5 4.4-1 5.7-1.8.7-3.7 2.1-5.7 1.2-11.6-5.2-21.9.8-30.4 6.2-14.6 9.2-26.7 21.6-34.8 37.7-10.1 20.1-11.7 39.4 1.6 58.3 20.5 29.1 48.2 43.9 84.3 41.9 18.5-1 32.4-10.4 42.1-25.1 9.4-14.3 15.5-30.2 14.3-48-.3-5.3-.1-10.7 0-16 .2-8.8-1.1-17.2-4.6-25.4-.8-1.8-1.5-3.8-1.7-5.7-.3-3.3 2.2-4.9 5.2-3.4 3.2 1.6 4.9 4.5 6 7.7 1.2 3.4 2.4 6.9 3.2 10.5 2.8 11.6 7.8 23.2 6.5 35.1-2.7 25-10 48.2-31.9 63.9-1.1.8-2 1.7-3 2.6-2.7 2.2-3.6 5-1.6 7.9 3.7 5.5 6.2 11.7 11 16.6 15.9 16.6 32.6 32.1 51.7 45.1 14.7 10 30.7 17.5 47.5 22.8 17.1 5.4 34.7 9 52.3 12.5 21.5 4.2 43 4.7 64.5.5 14.6-2.9 29.2-6.6 43-12.5 10.1-4.3 20.6-8.1 29.4-14.7 16.4-12.4 32.3-25.6 42.9-43.9 2-3.5 4.6-3.6 6.8.2 4.9 8.1 11.8 14.4 18.3 21 8.4 8.5 17.2 17.1 27.4 23 15.4 8.9 30.9 17.9 47.6 24.7 27 11 54.3 19.4 83.3 23.1 18.9 2.4 37.6 2.6 56.5 1.4 4.3-.3 8.5-.9 12.8-1.8 20.9-4.1 41-11 61-18.3 18.5-6.7 35.9-15.5 53.3-24.6 23-12 41.8-29.4 60.2-47.4 5.5-5.4 10.6-11.1 15.7-16.8 4.5-5.1 4.1-5.8 0-11.4-13.4-18.1-26.1-36.7-41.5-53.3-9.5-10.2-18.5-20.8-28.4-30.8-11.7-11.8-25.1-21.7-37.5-32.7-10.9-9.7-21.7-19.5-33.1-28.7-10.1-8.2-21.5-14.6-31.2-23.3-12.1-10.8-26.6-17.6-40.2-25.8-22.2-13.3-47-20.1-71.7-26.9-9.6-2.7-18.9-2.3-27.1 5.2-5.8 5.3-12.9 9.3-19.2 14.1-7.5 5.7-15.7 8.2-25.2 7.2-5.7-.6-10.9-3-16.3-4.6-4.2-1.2-8.7-2.8-12.6-.5-9.7 5.8-19.6 11.4-25.6 21.7-4 6.9-8.6 13.5-11.1 21.1-1 2.9-2.4 5.4-5.6 6.5-11.3 3.8-28.9-4-33.4-15.1-2.9-7.1-4.8-14.9-4.4-22.3 1.4-21 11.5-38.7 25.3-54 6.2-6.8 13.7-12.6 20.4-19 10.6-10 13.2-19.5-2.8-28.3-2.7-1.5-5.4-2.4-8.3-3.3-16.6-5.2-33.4-4.7-50.4-3.4-14.3 1.1-28.4 2.9-42.6 5.2-11.4 1.9-17.9-2.6-20.4-13.8-2.6-11.8-3.2-20.6 11-28.6 8.7-4.6 17.8-8.4 28-12.2zm-6.9-50.8c-4.4.2-9.7.2-15 .7-18.2 1.7-26.5 11.2-26.4 29.6 0 3.8 2 4.1 4.9 4.3 12.5 1 25 2.1 37.4 3.4 7.2.8 14.3 2.6 20.8 6.1 2.8 1.4 5.2 3.6 4.8 6.9-.4 3.5-2.8 5.8-6.3 6.7-1 .2-1.9.8-2.9.8-10.5.6-19.7 5-29.1 9.4-4.5 2.1-7.3 5.2-10.3 8.9-2.8 3.5-4.3 7-2.2 10.9 2 3.8 6 5.1 10.3 4.9 1.7-.1 3.3-.1 5-.4 23.9-4.2 48-6.2 72.1-4 11.4 1.1 22.9 2.5 33.7 7.5 6.2 2.8 11.9 6.2 15 12.4 7.9 15.6 5.3 27.6-9.5 38.2-14.2 10.2-26.2 22.2-35.9 36.6-6.7 9.9-11.4 20.1-9.5 32.5 1.1 6.8 3.3 12.8 8.4 17.5 6 5.4 9.9 4.4 13.6-2.9 6.2-12.1 12.3-24.2 22.9-33.3 13-11.2 26.5-18.6 44.2-11.1 3.4 1.4 7.2 2.9 11.2 3 9.9.3 18.1-2.9 25-10 7.2-7.4 14.7-14.3 23.7-19.6 5.2-3 10.2-3.6 16.2-2.1 20 5.1 38.9 13 57.5 21.7 22.9 10.6 43.8 24.8 64.2 39.5 7.8 5.6 15.2 11.7 23.4 16.8 5.9 3.7 11.8 7.5 17 12.1 17.1 15.1 35.1 29.2 52.2 44.2 15 13.2 30.2 26.1 43.4 41 14.4 16.3 30 31.7 41.6 50.3 3 4.8 4.5 4.5 7.4-1 6-11.1 11.3-22.4 15.5-34.3 5.2-15 11-29.9 13-45.8.9-7.3 1.9-9 9.1-8.8 17.4.5 34.3-3 51.5-4.5 4.6-.4 10.7.1 12.4-4.1 1.7-4.3-3.5-8-6.4-11.5-13-16-28.6-29.4-42.5-44.6-4.9-5.4-9.7-11-15.2-15.8-22.8-20.4-47.3-38.7-71.4-57.4-25-19.3-52.1-35.3-79.5-51-34.5-19.8-69.7-38.4-105.6-55.4-21-9.9-43-17.2-64.4-26-18-7.4-36.4-13.8-55.1-19.4-20.2-6.1-40.5-11.6-61.1-16.4-13.5-3.1-27.5-5.3-40.8 1.8-2.2 1.2-4.2 1-6.6.4-7.1-1.6-14.3-2.9-21.5-3.9-11.5-1.5-23.4-1.5-31.7 7.4-6.5 7-13 9.5-21.9 7.7-1.6-.3-3.7.1-6.6.1z"/><path fill="#0B0B0B" d="M1203 897.1c7.6-27.4 14.1-53.5 14.7-81 .4-16.5 2.1-33.1 1.5-49.7-.9-26.2-6.1-51.9-10.6-77.6-1.2-6.8-2.6-13.6-4-20.4-2.9-13.9-9.7-25.9-19.4-36.4-1.8-1.9-6-3.5-2.9-6.9 2.5-2.7 5.7-.9 8 1.3 3.3 3.2 6.4 6.6 8.9 10.7 11.3 18.7 17.1 39.4 22.3 60.4 5 20 6.4 40.5 8.3 60.9 2 21.5 1.9 43.1-.5 64.4-2.9 25.3-7.6 50.4-17.3 74.2-2.1 5.2-1.3 8.1 3 11.7 8.8 7.5 17.5 15.2 25.3 23.9 8.6 9.5 15 20.2 21.1 31.2 8 14.5 16.6 28.7 21.5 44.7 6.3 20.9 13.7 41.6 12.4 63.9-.1 2.1-.1 3.9 1.6 5.4 8.3 7.3 11.8 17.6 16 27.2 10.8 25.2 22.5 50.1 29.8 76.6 7.7 27.9 19.7 54.8 21.7 84 1.2 17.5 5.2 34.8 2.9 52.5-1.2 9.3 1.7 18.5 1.7 27.7.1 20.2-1.8 40.4-3.6 60.5-2.2 25-6.3 49.8-10.6 74.5-5.6 31.6-19.4 60.4-30.6 90-11.4 30-31.2 55.4-47.1 82.9-11.3 19.7-27.2 35.7-41.2 53.3-5.6 7-12.6 12.5-18.6 19.1-20.1 22.2-45.1 38.8-65.7 60.2-4.1 4.3-9.4 7.2-14.3 10.6-12.8 8.8-25.9 17-38.1 26.9-12.1 9.8-26.9 15.5-40.7 22.9-20.8 11-41.8 21.6-62.8 32.2-6 3-12.8 3.6-18.9 5.9-8.7 3.2-17.1 7.3-26 10-3.4 1-5.5 3-5.3 7.2.6 10.8-3 20.8-5.7 31.1-5.2 19.6-10.9 38.9-21 56.6-.7 1.2-1 2.6.4 3.4.7.4 2 .2 2.6-.3 6.1-4.6 12.3-9 18.1-13.9 9.4-8 24.6-9.8 35-3.4 11.1 6.8 18.3 17.2 23.9 28.6 5.6 11.4 7.6 23.7 9.1 36.3 2 16.4-.5 32.3-2 48.4-1.5 16.7-12.5 24-25.8 29.1-24.6 9.3-50.4 14.1-76.2 17.5-26.8 3.6-53.7 8.1-81.1 7.2-6.3-.2-11.9-3.6-18.5-2.2-3.7.7-4.7 1.7-5.6 5.1-.9 3.7-.7 7.3-1 10.9-.8 8.7-3.8 15.9-12.7 19.6-6.1 2.5-11.2 6.7-16.4 10.9-9.7 7.9-21.9 9.2-33.5 11.1-13.4 2.3-26.7 5-39.9 8-13.7 3.1-27.7 2.6-41.5 4-5.9.6-11.8 1.3-17.6 2-10.2 1.2-20.5.9-30.8.6-6.7-.2-13.3-.5-19.9.1-11.4 1-22.4-2-33.7-2.8-13.5-1.1-26.8-4.2-40-7.1-19.4-4.3-38.2-10.7-56.9-17.1-7.1-2.4-13.2-7.5-20.4-10.3-4.4-1.7-4.7-8.2-.9-12.9 5.6-7 10-14.9 14.9-22.3 15.9-23.6 25.1-49.4 26.9-77.8 1-16-1.2-31.8-5-47.3-3.4-13.5-6.9-26.9-12.8-39.6-2.6-5.6-5.5-10.3-11.7-12.5-17.5-6.1-28.7-18.8-35-35.7-2.6-7.1-7-10.3-13.7-12.5-20.8-6.7-41.1-14.2-60.1-25.6-29.9-17.9-59.5-36.2-86.7-58-30.1-24.1-59.8-48.4-85.9-77-24.2-26.6-46.4-54.7-66.6-84.4-11.9-17.6-23-35.8-33.1-54.3-12.7-23.5-23.4-48.3-31.5-74-5.9-18.6-11.4-37.4-16.8-56.2-4.5-15.9-7-32.3-9.3-48.7-2.5-17.7-3.9-35.5-5.6-53.3-2-21-1.7-42.1.1-63.2.6-7.5.6-15.1 1.1-22.6 1.4-24.5 6.3-48.5 9.6-72.8 2.7-20.1 7.5-39.7 11.2-59.5 1.1-5.9 3.7-11.3 5.3-17 7.4-25.1 16.2-49.7 26.3-73.9 10.4-25.1 21.4-49.9 35.7-73.1 15.5-25.1 33.5-48.3 51.1-71.9 23.2-31 52.1-56.2 80.2-82.3 22-20.5 46.8-37.1 71.6-53.7 13.1-8.8 27.5-15.8 41.7-23 4.2-2.1 7.9-4.8 11.9-7.2 21.8-13.1 46.3-19.8 70.1-27.3 17.8-5.6 35.8-12 54.7-14 5.5-.6 10.9-2.8 16.3-4.4 25.8-7.5 52.4-11.7 78.9-14.8 26.4-3 52.8-6.9 79.6-7.3 21.5-.4 43-.8 64.3 1.3 28.5 2.9 57 5.8 85.1 13 34.5 8.9 67.2 22.4 100.5 34.4 24.7 8.9 48.4 20 71.7 32 24.8 12.8 47.6 28.6 70.7 44.3 13 8.8 23.5 20.2 34.9 30.6 3.9 3.5 7 5 11.9 5 13-.2 25.9.5 38.5 4.1 16.5 4.8 32.6 10.8 47.9 18.8 10.2 5.1 21 10.1 30.6 18.3zM448.4 1874c1.1.1 1.3-.6 1.4-1.5.7-.5 1.5-1.3.8-2.1-.8-.8-1.5.1-2.1.7-1.4.4-2.9.7-3.5 2.4 0 .8-1.3 1.6.1 2.3 2 1.3 2.2-1.1 3.3-1.8zm752-967.1c-2.2-1.2-3.6-2-5.1-2.8-27.3-16.4-55-31.2-87.7-35.4-24.1-3.1-47.4-1-71 2.7-11.9 1.8-22.6 7.1-32.7 13.6-1.8 1.2-3.5 2.2-5.3.7-2.1-1.8-1.5-4.2-.7-6.5.9-2.3 3-3.6 4.9-4.8 12.5-7.7 26.1-12.5 40.3-16.1 6.3-1.6 13-.8 19.3-3.4-8.6-10.2-19.8-16.3-29.7-23.8-15.9-12-32.1-23.3-49.2-33.6-33.4-20-68.8-35.7-104.8-50.3-22.7-9.2-46.4-15.9-69.9-22.7-25.3-7.3-51-13.5-77.5-15.5-20.1-1.5-40.2-5.4-60.4-4.3-18.8 1-37.7 2.4-56.5 3.5-4.3.2-8.8-.4-13 .4-28.4 5.8-57.7 6.3-85.9 13.6-19.8 5.1-40.6 6.9-60 13-31.5 10-63.5 18.8-93.3 33.7-5 2.5-10.5 4.2-15.5 6.8-25.3 13-48.6 29.2-72.3 44.9-16.3 10.9-30.8 24.2-45.5 37.2-8.2 7.2-15.6 15.4-23.8 22.4-17.5 14.9-32 32.5-47.8 49-9.9 10.3-17 22.9-26 33.9-21.9 26.6-38.3 56.8-53.9 87.2-11.8 22.9-23 46.5-29 71.7-2.6 10.7-7.5 20.4-10.1 31-2.5 10.3-4 20.8-6.1 31.1-3.9 19.4-9.1 38.6-11.7 58.4-2.1 16.1-4.2 32.1-5.1 48.3-.4 8.3-.4 16.5-1.6 24.8-1.3 9.5-1.8 19.2-1.7 28.8.4 24.5 2.6 48.9 5.1 73.3.8 7.9.6 16 2.4 23.7 5.2 21.9 10.4 43.8 16.4 65.5 4.8 17.5 8.9 35.3 17.4 51.6 4.8 9.1 8.8 18.6 13 27.9 13.1 29.2 30.8 55.7 48.1 82.4 14 21.5 32.2 40 48.6 59.7 21.1 25.4 45.7 48 70.8 69.6 18.8 16.2 39.3 30.3 59 45.3 15.7 11.9 32.8 21.6 50.3 30 22.2 10.7 43.9 23.1 68.3 28.9 3.7.9 6.3 1 9-1.3 6.2-5.5 12.6-10.9 18.5-16.7 2.4-2.3 7.6-4.5 5-8.4-2.5-3.7-7-.4-9.9 1.1-8 4.1-14.5 1.1-21-3.2-7.2-4.7-9.5-12.5-12.2-19.9-2.3-6.3-1.4-8.5 4.3-12.6 12.5-9 22.7-20.2 33.2-31.3 4.7-4.9 7.2-10.1 3-16.7-1.3-2.1-1.4-5.1-2.1-7.6-5.7-20.9-1.3-41.5 3.3-61.8 3.7-16.2 9.5-31.8 20-45.1 1.8-2.3 1.9-4.4.6-7.2-10.5-23-19.6-46.4-24.8-71.2-3-14.3-7.4-28.3-9-42.8-2.3-21.4-3.1-43-3.8-64.6-.4-13.6.2-27.2.9-40.8 1.3-25.2 4.2-50.1 8.6-75 3-16.9 5.3-33.9 9.8-50.5 7.3-27.6 16.6-54.4 28.7-80.3 7.6-16.2 15.7-32.1 27.9-45.6 2.8-3.1 5.4-5.3 9.6-5 1.3 3.8-.4 6.1-2.3 8.6-21.9 30.2-34.4 64.9-44.8 100.1-9.1 31-14.7 62.9-19.4 95-5.3 36.2-5.7 72.5-5.4 108.9.2 20.6 3.1 40.9 5.9 61.2 4.3 31.7 12 62.4 27.5 90.7 3 5.5 5.6 11.3 8.3 16.9 1.7 3.7.6 7.2-3.1 8-5.3 1.2-7.3 5.4-10 9-6.8 9-9.5 19.8-12.1 30.3-5.4 21.8-7.7 43.9.2 65.6 2 5.4 1.5 9.6-1.3 14-6.2 9.9-13.3 19-21.8 27-5.1 4.8-10.4 9.2-15.3 14.2-5.2 5.3-5.3 9.3-.3 14.7 4.3 4.6 9.5 6.7 16.1 4.8 9.4-2.7 17.4-8.1 25-13.9 2.1-1.6 4-3.4 6.5-4.3 2.2-.9 4.6-1.6 6.5.5 1.7 1.8 1.9 3.9 1.2 6.5-1.9 7.6-5.9 14.3-11.2 19.7-12.8 13-24.2 27.4-38.3 39.1-3 2.5-3.8 4.8-2.4 8.6 4.2 11.5 11.8 19.8 22.3 25.7 4.3 2.4 8.8 3.1 14.1 1.5 5.5-1.7 10.7-3.8 15.2-6.9 7-4.9 12.4-4 18.4 1.6 6.1 5.6 12.4 11.2 21.5 11.6 3.3.2 6.6.5 9.9.7 2.9.2 6-.5 5.8 4.4-.2 4.7-2.1 6.6-6.7 6.4-5.6-.2-11.2.3-16.8-1.7-8-2.8-16.8-3.4-23.7-9.4-4-3.4-7.3.4-10.4 2.9-3.7 3-.4 5.3.8 7.6 5 9.3 9.3 18.8 10.9 29.6 1.5 9.8 2.8 19.6 4.4 29.4 3.1 19.5 3.6 38.9 0 58.4-1.3 7.1-1.9 14.3-4.6 21.3-5.9 15.2-13.4 29.5-21.7 43.5-4.2 7-8.1 14.2-12 21.1 5.7 3.7 11 6.1 16.7 8.1 6.5 2.4 13.6 3.3 19.8 6.4 8.7 4.4 17.9 6.9 27.2 9.2 14.2 3.6 28.7 4.7 43.1 6.9 12.2 1.8 24.3 3.6 36.6 3.1 22.1-1 44.2-1.2 66.3-3.5 27.1-2.9 53.8-6.8 80-14.2 13.7-3.9 26.9-9.1 39-16.6 2.4-1.5 4.1-3.4 5.5-6.4 3.7-8 3.1-16.2 3.5-24.5.9-18.8-1.4-37.1-8.7-54.6-1.4-3.4-2.9-6.7-3.9-10.2-.5-1.7-.8-4.3 1.5-5.3 2.2-.9 3.7.8 4.7 2.6.9 1.4 1.6 2.9 2.2 4.5 6.3 14.6 12.4 29.3 14.2 45.4.4 3.7 1.3 8.3 5.9 7.7 9.2-1.2 18.4-.3 27.6-.5 11.3-.2 22.6-1.7 33.8-2.1 18.6-.6 37.1-.8 55.5-4.4 18.4-3.7 37.5-4.8 54.9-12.8 1.5-.7 3.2-.7 4.8-1 8-1.4 14.1-4.5 16.7-13.2 3.6-11.9 4.3-24.1 4.6-36.3.5-24.7-9-45.8-24.6-64.3-7.9-9.4-16.7-10.9-26.7-5.7-3.1 1.6-5.3 4.1-7.5 6.5-12.2 13.9-26.9 24.6-42.3 34.5-7.1 4.6-12.2 5.4-14.3 2-3.5-5.4-.2-9.8 2.8-14.5 10.4-16.1 22.3-31.2 30.5-48.8 9.6-20.7 16-42 15.4-65.1-.1-4.9-1.2-7.5-6.6-7-2.7.2-5.7.8-8.6-1.5 2.1-3.4 5-4.6 8.4-5.4 4.5-1.1 9-2.5 13.3-4 18.7-6.7 36.4-15.8 54.6-23.5 23.6-9.9 45.1-23.5 68-34.7 16.4-8 31.3-18.6 46.9-28.1 32.8-20 61.6-44.9 89.3-71.1 14.4-13.6 27.8-28.4 40.1-44 9.9-12.5 19.8-25 29.2-37.8 15.6-21.1 26-45.4 38.8-68.1 10.6-18.8 17.5-39.8 24.3-60.5 5.7-17.2 9.3-35 12.6-52.8 2.5-13 6.2-25.9 7.1-39 1.5-21.4 3.3-42.8 3.9-64.3.7-27.6-.2-55-2.9-82.4-4-41-13.5-80.8-28.8-119.1-10.1-25.2-20.6-50.3-34.9-73.5-1-1.6-2.1-3.3-2-5.5.5-9.3-1.7-18.3-2.8-27.5-1.4-11.5-3.7-22.9-7.1-33.9-5.9-18.7-15.5-35.7-25.2-52.6-10.2-17.8-23.5-33.4-37.7-48.2-4-4.2-6.3-3.5-7.8 2.6-3.1 12-10.8 21.9-15.2 33.3-.7 1.7-2 2.4-4 1.9-2.4-.6-3.3-2-2.8-4.4.6-3.3 2.4-6.1 4.1-9 6.1-10.9 11.2-22.1 13.4-34.6zM918.9 1994.7l-.7-.7c-.2.4-.5.9-.6 1.3 0 .2.4.4.6.7.3-.4.5-.8.7-1.3z"/><path fill="#0B0B0A" d="M1167.3 451.8c-.3 12.3-1.6 24.4-8.6 35.1-4.9 7.6-11.2 13.9-18.4 19.2-6.5 4.8-12.7 9.6-15.9 17.4-2.6 6.2-9.1 8-14.5 9.5-14.4 4-27.9 10.4-42.4 14.1-15.3 4-30.5 7.8-46.6 5.5-4.2-.6-6.7-2.1-9.8-5.3-13.6-14.6-19.1-32.3-22.2-51.3-1.8-10.4-5.4-20.5-6-31.2-.1-1.4-.6-2.5-1.7-3.4-4.3-3.5-2.4-7.1.1-10.4 5.9-8 11.8-16.1 18.1-23.7 9-11 18.8-21.4 27.6-32.7 6.3-8.1 13.9-10.3 23.6-8.8 29.8 4.6 59.3 10.5 88.4 18.3 2.6.7 5 1.8 7.6 2.3 12 2.2 16.9 10.7 18.4 21.6 1.1 7.9 2.7 15.8 2.3 23.8zm-115.5-56.3c-6.6.9-11.4-.9-15.8 3.6-14.9 15.3-26.5 33.1-40.5 49.1-3.5 4-4.5 8.3-2.9 13.8 3.1 10.8 5.9 21.8 7.6 32.9 1.5 9.7 5.7 18.3 8.9 27.3 2.4 6.6 6.4 12.3 11.8 17 4.4 3.8 9.1 5.1 14.7 4.1 26.3-4.9 51-14.5 75.1-25.6 2.9-1.3 6.6-3.5 7.6-6.1 2.9-8 9.8-11.5 15.7-16.1 6.8-5.4 13.1-11.3 18.6-17.9 2.6-3.1 4.6-6.4 4.8-10.7.6-14.8-1.9-29.1-7.2-42.9-1.7-4.3-4.6-6.6-9.1-8.3-9-3.5-18.6-5.1-27.6-8.4-20.5-7.7-42.3-8-61.7-11.8z"/><path fill="#0B0B0B" d="M247.7 2071.8c-12.3-.7-24.5 1.3-36.6 2.4-17.1 1.6-32-2.9-46-12.3-7.7-5.1-15.8-9.5-22.1-16.6-5.2-5.8-9.1-12-12.8-18.7-3.3-6-2.3-10.8 2.1-15.2 6.8-6.8 14.1-13.1 20.6-20.1 12.6-13.7 30-20.5 44.4-31.4.3-.2.6-.2.9-.3 4.6-2.2 7.3-8 13.7-7 10.6 1.6 21.2 4 28.9 11.8 6.8 6.7 14.1 11 23.1 14.4 17.4 6.6 29.5 19.9 37.1 36.9 2.7 6 2.3 12.7.1 18.2-6.3 16.1-16.8 29.2-32 38-4.5 2.6-9-.1-13.5.6-2.6.2-5.3-.5-7.9-.7zm-10.7-8.1c6 0 12-.3 18 .1 7.9.5 14.4-2.5 20.1-7.3 7.5-6.3 12.7-14.4 16.7-23.4 1.3-2.9 1.6-6 .7-8.8-5.6-17.6-16.2-31.2-33.7-38-6.3-2.5-12.1-5.1-17.1-9.7-7-6.4-15.3-10.2-24.4-12.7-5.4-1.5-9.4-.3-14 2.1-23.4 12.1-40.8 31.9-61.4 47.5-3.7 2.8-3.8 6.3-1.8 10.6 6 12.8 14.6 22.9 27.7 28.7 7.3 3.3 14.5 6.7 21.8 9.8 5.9 2.5 12 3.6 18.5 2.6 9.5-1.4 19.2-1.5 28.9-1.5z"/><path fill="#0B0B0A" d="M1688.7 1082.8c.9-18 12.2-35.4 33.2-46.7 4.4-2.3 9.1-4.1 13.5-6.3 10.8-5.6 22.2-3.7 32.8-.6 10.1 2.9 19.7 7.9 27.7 15.2 9.8 9 16 19.7 17.8 33.4 1.7 12.8 1.2 25.5-2.8 37.2-13.4 39-49.9 60.5-91.5 33.9-22.5-14.4-30.2-35.4-30.7-66.1zm60.6-43.3c-6-.5-14.7 1.4-23.1 4.8-14.6 5.9-28.8 25-28.5 39.4.3 14.2 4.2 27.6 11.6 39.8 8.6 14.4 22.6 20.9 38.2 24.9 17.4 4.4 31.8-1 42.8-14.2 14.7-17.7 19.2-38.4 13.4-60.9-1.4-5.6-4.2-10.3-7.9-14.8-11.5-13.7-26.4-18.5-46.5-19z"/><path fill="#090909" d="M1590.9 1122.4c-15.6-.1-29.4-4.8-40.5-15.9-10.9-10.8-13.4-25-10.4-38.8 4.2-19.1 15.8-34.1 32.9-44.3 19.7-11.8 43.3-5.5 57.6 12.1 17.7 21.9 13.7 55.6-7.8 72.8-4.1 3.3-7.8 7.2-12.7 9.6-8.6 4.4-9.3 4.6-19.1 4.5zm42.3-53.3c-.5-3.1-1.4-6.7-1.8-10.3-2.8-25.2-26.7-32.3-45.6-30.2-1 .1-1.8.8-2.8 1.1-10.1 3.3-16.4 10.9-22.3 19.1-10.7 14.8-11.8 30.6-4.9 47.2 2.6 6.3 7.3 9.7 13.8 11.8 18.3 6.1 47-5.4 58-20.4 3.9-5.2 5.2-11.4 5.6-18.3z"/><path fill="#0B0B0B" d="M1077.8 598.3h-3.3c-2.8.1-5.6.2-5.9-3.6-.3-3.6 2.2-3.8 5-4.6 27.5-7.9 52.9-20.5 75.9-37.3 21.8-15.9 40.8-34.7 52.4-59.9 2-4.3 2.7-8.8 4.7-13 .8-1.6 1.8-3.1 3.5-2.8 1.6.3 2.6 1.9 2.6 3.7-.2 6.3-.8 12.6-3.1 18.4-11.2 28-29.7 49.8-54.2 67.7-17.6 12.9-37.5 18.6-57.4 25.5-6.6 2.5-12.7 7.1-20.2 5.9z"/><path fill="#0B0B0A" d="M1479.1 1178.4c-17.8-.1-33.3-14.9-37.5-29.2-6.5-22.3 14.4-42.5 31.1-44 4.2-.4 7.9.1 11.3 2.1 6 3.5 11.8 7.3 17.7 11 .6.3 1.3.7 1.5 1.3 4.7 12.3 10.4 24.5 4.5 38-5.9 13.4-17.2 18.7-28.6 20.8zm-2.3-58.1c-5.9 0-14.3 1.9-18.3 4-6 3.3-9.9 10.3-8.7 16.5 2.2 10.8 7.6 19.5 17.3 25.3 7.5 4.5 14.4 3.3 21.3-1.3 2.8-1.9 4.7-4.6 6.9-7.1 7.3-8.2 6-17.3 1.8-26-3.9-7.9-11-11.9-20.3-11.4z"/><path fill="#0F0F0F" d="M1282.6 910.5c-2-.1-4 .3-5.7-1.2-1.9-1.7-5.4-2.1-4.9-5.5.3-2.5 2.8-3.4 4.9-4.5 21.1-11.2 43.3-20 65.2-29.4 19.7-8.5 39.5-16.8 59.3-25.2 4.9-2.1 9.7-4.2 14.6-6.3 2.5-1.1 4.6-.4 6 1.8 1.9 2.9-.5 4.3-2.4 5.4-3.7 2.2-7.4 4.3-11.4 6-19.4 8.4-38.2 18.3-57.5 27-20.9 9.3-40.3 21.5-61.4 30.2-2.3 1-4.4 1.7-6.7 1.7z"/><path fill="#141414" d="M1214.9 567c.1 2.3-.7 3.8-1.8 5.1-13.5 15.6-28.5 29.1-47.2 38.6-13 6.6-26.6 11.8-39.1 19.2-1.1.7-2.3 1.4-3.6 1.7-2.7.6-5.7.8-6.9-2.1-1.4-3.4 1.4-4.3 3.9-5.5 10.5-4.9 21-9.9 31.4-15 17.3-8.5 33.2-18.9 47.2-32.2 3.5-3.3 5.4-7.5 8.2-11.2 1.4-1.8 3.2-2.2 5.3-1.7 2.1.5 2.6 1.9 2.6 3.1z"/><path fill="#0B0B0A" d="M1419.5 1089.5c1.5 10.6-5.1 15.9-13.7 20.2-8.9 4.4-16.8.5-22.9-4.5-5.7-4.7-4.8-12.7-2.7-19.5 1.8-5.7 5.6-10.5 9.7-14.8 6.3-6.5 12.9-3.3 20-1.1 6.7 2.1 8.2 7.1 9.5 12.5.6 2.2.1 4.6.1 7.2zm-28.4.6c-.1 7.1 3.5 11.9 9.1 11.9 5.3 0 11.2-6.7 11.5-13 .3-5.4-4.7-12.4-9-12.6-5.1-.4-11.5 7.2-11.6 13.7z"/><path fill="#141414" d="M1061.9 722.4c2.8.5 3.6 2.9 4.3 5 3.8 10.6 9.4 20.4 12.6 31.2 4.9 16.5 11.8 32.2 18.5 47.9 1.5 3.7 3.1 7.3 4.4 11.1 1.3 3.7-.5 8-3.8 8.5-3.5.6-5.5-1.5-6.5-4.7-2-6.3-4.4-12.5-6-18.9-6.2-25.1-16.7-48.7-26-72.6-1.5-4-.5-7.8 2.5-7.5z"/><path fill="#0F0F0F" d="M1153.2 823.4c.7 3.5-1.1 5.3-3.7 6.5-3.2 1.4-5.1-.6-6.5-2.9-1-1.7-1.7-3.6-2-5.6-4-24.7-7.8-49.4-11.7-74.1-.2-1-.1-2-.2-3-.3-2.6.5-4.9 3.3-5 2.5-.1 2.8 2.4 3.2 4.3 2.6 13.3 5 26.6 7.8 39.8 2.6 12.3 4.8 24.6 9.5 36.4.3 1.1.2 2.6.3 3.6zM1362 937.6c2.7 0 5.3-.1 8 0 1.9.1 4.4-.6 4.8 2.1.4 2.6-1.3 4.5-3.8 5.1-5.1 1.2-10.3 2.2-15.6 2.9-12.4 1.7-24.8 3.2-37.2 4.9-1.3.2-2.5.7-3.8.2-3.3-1.1-8.5-1-8.8-4.7-.4-5 5-4.1 8.3-4.5 16-2.2 32-4.3 48-6.4 0 .2 0 .3.1.4z"/><path fill="#666" d="M2160.9 664.6c-10.2 3.8-19.3 7.6-28 12.5-14.2 8-13.6 16.8-11 28.6 2.5 11.2 9 15.7 20.4 13.8 14.1-2.3 28.3-4.1 42.6-5.2 17-1.3 33.9-1.8 50.4 3.4 2.9.9 5.7 1.8 8.3 3.3 16 8.8 13.4 18.3 2.8 28.3-6.7 6.4-14.3 12.2-20.4 19-13.8 15.2-23.9 32.9-25.3 54-.5 7.4 1.4 15.2 4.4 22.3 4.6 11.1 22.2 18.9 33.4 15.1 3.2-1.1 4.7-3.6 5.6-6.5 2.6-7.7 7.2-14.2 11.1-21.1 5.9-10.3 15.9-15.9 25.6-21.7 3.9-2.3 8.4-.7 12.6.5 5.4 1.5 10.5 4 16.3 4.6 9.5 1 17.7-1.5 25.2-7.2 6.3-4.8 13.4-8.8 19.2-14.1 8.2-7.5 17.5-7.9 27.1-5.2 24.7 6.8 49.5 13.6 71.7 26.9 13.6 8.2 28.2 15 40.2 25.8 9.7 8.6 21 15.1 31.2 23.3 11.4 9.2 22.2 19 33.1 28.7 12.4 11 25.8 20.9 37.5 32.7 9.8 9.9 18.9 20.5 28.4 30.8 15.4 16.6 28 35.3 41.5 53.3 4.1 5.5 4.5 6.2 0 11.4-5.1 5.7-10.2 11.5-15.7 16.8-18.3 18-37.2 35.3-60.2 47.4-17.3 9.1-34.7 17.9-53.3 24.6-20 7.3-40.1 14.1-61 18.3-4.3.8-8.5 1.5-12.8 1.8-18.9 1.2-37.6 1.1-56.5-1.4-29-3.7-56.3-12.1-83.3-23.1-16.7-6.8-32.2-15.7-47.6-24.7-10.2-5.9-19-14.5-27.4-23-6.5-6.6-13.5-12.9-18.3-21-2.2-3.7-4.8-3.7-6.8-.2-10.6 18.3-26.4 31.4-42.9 43.9-8.7 6.6-19.3 10.4-29.4 14.7-13.8 5.9-28.4 9.6-43 12.5-21.4 4.2-42.9 3.7-64.5-.5-17.6-3.5-35.3-7.1-52.3-12.5-16.7-5.3-32.7-12.8-47.5-22.8-19.1-13-35.8-28.5-51.7-45.1-4.7-4.9-7.3-11.1-11-16.6-1.9-2.9-1.1-5.7 1.6-7.9 1-.8 2-1.8 3-2.6 21.8-15.7 29.2-39 31.9-63.9 1.3-11.9-3.7-23.5-6.5-35.1-.9-3.6-2-7-3.2-10.5-1.1-3.2-2.8-6.1-6-7.7-3-1.5-5.5.1-5.2 3.4.2 1.9.9 3.9 1.7 5.7 3.5 8.1 4.7 16.6 4.6 25.4-.1 5.3-.3 10.7 0 16 1.1 17.8-4.9 33.8-14.3 48-9.7 14.7-23.6 24.1-42.1 25.1-36 2-63.8-12.8-84.3-41.9-13.4-18.9-11.7-38.3-1.6-58.3 8.1-16.1 20.2-28.4 34.8-37.7 8.5-5.4 18.8-11.4 30.4-6.2 2 .9 3.9-.6 5.7-1.2 3.5-1.3 3.9-3.7 1-5.7-5.1-3.4-10.7-5.9-16.9-4.2-12.7 3.3-23.3-.2-34.7-6.4-16.8-9.1-29.2-22.8-42.4-35.8-9.4-9.3-19.3-18.3-27-29.3-12.4-17.6-25.8-34.7-31.3-56.3-2.7-10.6-.2-20.5 3.5-30.1 2.5-6.5 11.1-9.8 18.2-8.8 6.1.9 11.4 3.4 16.9 5.8 4.3 1.9 8.6 3.6 12.8 5.6 12 5.7 22.7 2.3 32.9-4.5 5.4-3.6 5.7-6.4 1.5-11.3-.4-.5-1.1-.8-1.5-1.3-4.8-5.3-7.7-11.5-4.8-18.2 3.1-7.1 9.9-9.3 17.4-9.4 8.4-.1 15.3 3.6 22.2 7.9 14.7 9.1 29.5 18.1 44.4 26.9 6.6 3.9 13.6 6.8 21.2 8.5 13.2 3 18.8.5 24.3-11.8 3.5-7.9 6.9-15.9 10.7-23.6 4.7-9.4 15.2-13 25.7-12.6 17.9.7 31.6 11.7 47.4 17.1 13.5 4.6 25.9 11.9 40.2 14.6 12.6 2.3 22.1-.7 29.4-11.3 4.3-6.3 8.7-12.5 14.7-17.5 7.3-6.1 15-8.2 24-3.7 2.4 1.2 5 1.8 7.5 2.8 2 .8 3.8 1.4 5.4-.5 1.6-1.9 2.3-4 1.5-6.5-.9-2.6-2.6-4.5-5.2-5.7-5.2-2.4-10.4-4.3-16-5.5-6.7-1.5-10.1-5.2-12-12.6-4.4-17.3-9-34.8-26.1-45.3-7.6-4.7-15.6-7.8-24.2-8.1-9.2-.3-18.6-1.2-27.8 1.4-5.8 1.6-11.9.4-17.9.3-5.5-.2-9.6-3.2-11.5-8.2-1.8-4.7-.6-9 3.2-12.7 10.3-9.8 4.8-24.8-7.9-28-9.5-2.4-18.3-1.8-27.2 1.9-11.2 4.7-20.4 12.6-30.6 18.8-9.3 5.7-19.5 8.5-30 10.2-5.8.9-11.2-.9-16.5-3.1-7-2.9-8.9-7.1-6.6-14.4 1.3-4.1 3.4-8 4.5-12.2 2.8-10.4-.6-16.3-10.5-20.4-17.9-7.5-35.3-6.6-53 1.3-11.6 5.1-22.4 11.4-33.3 17.6-9.8 5.6-19.6 11.4-31.2 12.7-7 .8-15.8-3.3-18.7-8.9-3.2-6.3-1.3-15.8 4.8-21 7.1-6.1 14.8-11.2 23.9-14.1 6.7-2.1 13.3-4.4 19.8-6.9 9.2-3.4 10.8-8.7 5.2-16.6-9.4-13.2-15-28.1-19.8-43.4-3.6-11.7-6.5-23.7-8.6-35.9-3.9-22-3.2-43.9 3.2-65.2 5-16.7 13.7-31.9 25-45.1 23.1-26.8 51.3-47.3 82.9-62.7 17.3-8.5 35.8-14.2 54.6-18.6 21.9-5 43.9-5.4 66.3-4.4 30.3 1.3 59.3 7.8 88 16.1 24.3 7 47.4 17.5 67.5 33.3 3.7 2.9 5.4 2.3 6.2-2.7 1.9-10.6 5.8-20.4 11.9-29.4 11.7-17.4 24.5-34 38.8-49.4 8.1-8.7 17.9-15.8 26.8-23.8 17.5-15.9 36-30.4 56-43.1 21.4-13.6 44.1-24.1 67.7-33.4 14.5-5.7 28.9-11.8 43.5-17.3 21.3-8 43-13.6 65.5-16.8 27-3.9 54-7.8 81.4-7.2 22.9.5 45.9.1 68.7 4.3 10.8 2 21.4 5.1 31.7 8.6 24.6 8.3 48.5 18.3 71 31.3 22.3 12.9 42.2 28.6 60.9 46.4 19.3 18.3 38.9 36.3 56.2 56.5 21.2 24.9 38.5 52.3 53 81.7 15.5 31.5 28 64 38.4 97.3 4 12.7 5.9 25.9 8.8 38.9 10 44.8 12.3 90.2 10 135.9-.8 15.6-5.6 30.8-10.7 45.6-5.3 15.4-11.1 30.7-17.3 45.7-4.3 10.4-9.7 20.4-14.5 30.6-4.6 9.8-4.6 10.2 2.9 17.9 17.1 17.7 31 37.5 38.2 61.2 5.8 19.1 9.5 38.4 4.1 58.7-4.1 15.1-7.2 30.3-14.3 44.5-7.7 15.5-18.8 28-31.2 39.8-8.3 7.9-17.4 14.5-27.1 20.2-8.8 5.1-18.9 8.1-28.5 11.7-2.8 1.1-5.1-.6-7-2.7-25.5-29.5-56.9-52.9-84-80.7-10.4-10.6-23.6-18.5-34.4-28.7-16.8-15.9-36.8-27.3-55.3-40.8-13.1-9.6-27.7-17.1-41.7-25.3-16.6-9.7-33.2-19.6-50.1-28.8-11.9-6.5-24.7-11.5-36.7-17.8-18.6-9.7-38.2-17-56.8-26.5-1.8-.9-3.6-1.9-5.5-2.2-9-1.4-17.1-5.4-25.4-8.6-10.2-3.9-20.2-7.9-30.9-10.7-13.1-3.4-26-8.1-38.9-12.5-22.6-7.8-45.4-14.8-69.4-17.6-5.2-.6-10.1 0-14.8 1.5-5.8 1.8-11 1.4-16.6-.5-7.6-2.5-15.6-3.3-23.5-4-14.3-1.3-26.8 2.8-36.2 13.3-6.2 7-13 8-21.3 7.3-13.1-1.1-25.8 1.5-38.2 5.6-9.8 3.2-15.3 10.2-16.8 20.4-1 6.6-1.7 13.2-1.1 19.9.7 7 2.3 8.7 9.5 8.6 13-.1 25.9 1.2 38.9 2.1 3.2-.1 6.6-.1 10.4 3zm450-362.3c-5.3-1.8-9.4-3.1-13.4-4.5-2.6-.9-5.3-1.9-7.7-.1-10 7.5-17.6 2.6-25-4.3-1.7-1.6-3.7-2.8-5.3-4.5-2.9-3.1-6.4-4.2-10.4-5.3-15.6-3.9-30.7 0-45.3 3.7-18.6 4.8-33.8 16.2-46.3 31.2-6.4 7.7-6.5 14-2.3 22.6 4.2 8.4 9.8 15.8 14.7 23.6 3.5 5.7-1.2 8.3-3.9 11.8-2.9 3.7-5.6 3.6-9.3 1.3-7.6-4.8-15.3-9.5-23.2-13.8-8-4.3-16.4-6.8-25.7-4.1-15.1 4.4-29.5 10.3-43.2 17.8-8.2 4.5-17.4 8.9-20.8 19.1-1.1 3.5-3.6 2.9-6.4 2.5-18.4-2.9-36.3-.2-54.1 4.3-7.2 1.8-11.7 6.2-13.8 13-2.9 9.2-7.4 17.8-11 26.7-1.6 4-3.2 8.1-3.1 12.5.1 4.5-.7 8.7-2.6 12.6-2.3 4.5-.6 7.4 2.4 10.6 4.2 4.4 9.5 7.3 14.4 10.6 16.6 11.3 35.7 17.4 54.4 23.9 4.4 1.5 9.2 1 13.8-.1 11-2.8 21.4-7.2 31.6-12.1 9.9-4.7 18.3-11.2 20.7-22.7 1.3-6.2 5.4-6.8 10.5-6.4 5.9.6 11.9 1.1 17.8 1.9 4.9.6 9.1-1 10.6-5.5 2.9-9.1 10.6-12.3 18-15.8 3.9-1.9 6.6-6.4 11.7-6.6.6 4.4-2.5 6-4.5 7.9-12 10.9-20.2 24.5-28.4 38.3-1.7 2.9-2.4 6.2-3.7 9.2-2.2 4.9-.6 8.2 3.1 11.4 6.5 5.7 12.7 11.7 19.3 17.4 18 15.4 40 21.8 62.3 27.4 7.1 1.8 14.6 1.1 21.5-2.2 3.6-1.7 7.3-3.1 11.1-4.5.8-.3 2-.2 2.8.2 1.4.8 1 2.3.5 3.5-.4.9-1 1.8-1.6 2.5-9.5 11.8-11 26-11.7 40.4-.2 5.1 1.1 10 4.5 13.9 4.6 5.3 9.9 9.8 16 13.4 11.6 6.7 24.3 10.7 37.1 14.4 10.4 3 20.9 4.7 30.2-3.5 2.5-2.2 5.6-1.9 8.6-1.9 8.6-.1 17.3-.1 25.9-.2 7.6-.1 12.9-1.4 16.2-10.4 7.3-19.7 8.2-19.3 25.9-10.9.2.1.3.5.9 1.2-10.9 6.6-17.9 16.5-22.3 28.2-5.2 13.9-4.9 27.4 4.7 39.5 9 11.4 20.9 18 35.2 20.8 10.4 2 21.1 2.5 31.5 4.6 27.7 5.6 49.4-5.3 66.7-26.1 9.1-10.9 8.8-24.6 9.2-37.8.2-7.2-3.8-11.7-9.7-15-5.2-2.9-10.4-5.7-16.1-7.9-11-4.2-21.8-9.2-33.5-14.3 3.9-4.5 8.8-5.7 11.5-9.7 4.2-6.4 9.5-12 14.8-17.5 2.8-2.9 5.5-6.1 6.4-10 1.2-5.6 4.8-6.5 9.6-6.2 9.7.6 19.1-1.9 28.6-3.5 12.7-2 20.8-9.7 26.2-20.7 5.6-11.4 9-23.6 11.1-35.9 1.9-10.6-1-20.5-12.2-25.7-2.4-1.1-4.7-2.5-6.9-3.9-5.3-3.3-5.5-4.6-1.3-8.8.9-1 1.9-1.8 2.9-2.7 7.9-7.1 9.1-20.5 2.9-29.8-7.7-11.4-17.6-19.9-28.8-27-5.6-3.5-6.9-7.4-5.7-13.2.8-3.9 1.3-7.8 1.9-11.8 1.5-10.9-3.6-18.4-12.1-24.3-3.6-2.5-7.4-4.5-11.4-6.1-6.5-2.6-12.8-5.7-19.7-7-3.7-.7-6.3-2.4-6.9-6.2-1.2-7.2-6.5-10.5-12.2-13.4-1.5-.7-3.7-.7-4.3-2.3-2.8-7.5-9.2-7.7-15.6-7.9-4.9-.1-7.8-2.3-9.7-7-2.3-5.9-4.8-11.7-6.2-17.9-2.5-11.3-9.8-18.5-19.1-24.4-5.7-3.6-11.9-6-18.2-8-6.7-2.1-13.7-2.2-20.2 1.8-13 8.1-26.8 14.7-39.8 22.8-8.5 5.4-14.7 11.4-15.1 22.9z"/><path fill="#FEFEFE" d="M2154 613.8c2.9 0 5-.3 6.9.1 8.9 1.8 15.4-.7 21.9-7.7 8.3-8.9 20.2-8.9 31.7-7.4 7.2 1 14.4 2.3 21.5 3.9 2.4.5 4.4.7 6.6-.4 13.3-7 27.3-4.9 40.8-1.8 20.5 4.7 40.9 10.3 61.1 16.4 18.6 5.6 37 12 55.1 19.4 21.4 8.8 43.5 16 64.4 26 35.9 17.1 71.1 35.7 105.6 55.4 27.4 15.7 54.5 31.7 79.5 51 24.2 18.6 48.7 37 71.4 57.4 5.4 4.9 10.2 10.4 15.2 15.8 13.8 15.2 29.5 28.6 42.5 44.6 2.8 3.5 8.1 7.2 6.4 11.5-1.6 4.2-7.7 3.7-12.4 4.1-17.2 1.4-34.1 5-51.5 4.5-7.1-.2-8.2 1.5-9.1 8.8-2 15.9-7.8 30.8-13 45.8-4.2 11.9-9.6 23.2-15.5 34.3-2.9 5.5-4.4 5.7-7.4 1-11.6-18.6-27.3-34-41.6-50.3-13.1-14.9-28.4-27.9-43.4-41-17.2-15.1-35.1-29.1-52.2-44.2-5.2-4.6-11.1-8.4-17-12.1-8.2-5.1-15.6-11.2-23.4-16.8-20.4-14.7-41.3-28.9-64.2-39.5-18.6-8.6-37.5-16.6-57.5-21.7-5.9-1.5-11-.9-16.2 2.1-9 5.2-16.6 12.1-23.7 19.6-6.8 7.1-15.1 10.3-25 10-4.1-.1-7.9-1.6-11.2-3-17.8-7.5-31.3-.1-44.2 11.1-10.6 9.1-16.7 21.2-22.9 33.3-3.7 7.3-7.7 8.3-13.6 2.9-5.2-4.7-7.4-10.7-8.4-17.5-1.9-12.4 2.8-22.6 9.5-32.5 9.8-14.4 21.7-26.5 35.9-36.6 14.8-10.6 17.3-22.6 9.5-38.2-3.1-6.2-8.9-9.5-15-12.4-10.7-4.9-22.3-6.4-33.7-7.5-24.1-2.3-48.2-.2-72.1 4-1.6.3-3.3.3-5 .4-4.3.2-8.2-1.1-10.3-4.9-2.1-3.8-.6-7.3 2.2-10.9 3-3.7 5.8-6.8 10.3-8.9 9.4-4.4 18.6-8.8 29.1-9.4 1-.1 1.9-.6 2.9-.8 3.5-.9 5.9-3.1 6.3-6.7.4-3.4-2-5.5-4.8-6.9-6.5-3.4-13.5-5.3-20.8-6.1-12.4-1.4-24.9-2.4-37.4-3.4-3-.2-4.9-.5-4.9-4.3-.1-18.4 8.1-27.9 26.4-29.6 5-.7 10.3-.7 14.7-.9zM1200.4 906.9c-2.2 12.6-7.2 23.7-13.3 34.4-1.6 2.9-3.5 5.7-4.1 9-.4 2.3.4 3.7 2.8 4.4 2 .5 3.3-.1 4-1.9 4.4-11.4 12-21.3 15.2-33.3 1.6-6 3.8-6.7 7.8-2.6 14.2 14.8 27.5 30.4 37.7 48.2 9.7 16.9 19.3 33.9 25.2 52.6 3.5 11 5.8 22.4 7.1 33.9 1.1 9.1 3.3 18.2 2.8 27.5-.1 2.2 1 3.9 2 5.5 14.4 23.2 24.8 48.3 34.9 73.5 15.3 38.3 24.7 78.1 28.8 119.1 2.7 27.4 3.6 54.8 2.9 82.4-.5 21.5-2.3 42.9-3.9 64.3-.9 13.1-4.6 26-7.1 39-3.4 17.8-6.9 35.6-12.6 52.8-6.8 20.7-13.7 41.7-24.3 60.5-12.8 22.7-23.2 47-38.8 68.1-9.5 12.8-19.4 25.3-29.2 37.8-12.3 15.6-25.7 30.4-40.1 44-27.7 26.2-56.5 51.1-89.3 71.1-15.6 9.5-30.5 20-46.9 28.1-22.8 11.2-44.4 24.9-68 34.7-18.3 7.6-35.9 16.8-54.6 23.5-4.4 1.6-8.8 2.9-13.3 4-3.3.8-6.2 1.9-8.4 5.4 2.8 2.3 5.9 1.7 8.6 1.5 5.5-.5 6.5 2.1 6.6 7 .6 23.1-5.8 44.4-15.4 65.1-8.2 17.6-20.1 32.7-30.5 48.8-3 4.6-6.2 9-2.8 14.5 2.2 3.4 7.2 2.6 14.3-2 15.4-9.9 30.1-20.6 42.3-34.5 2.1-2.4 4.4-4.9 7.5-6.5 9.9-5.2 18.7-3.7 26.7 5.7 15.6 18.5 25.1 39.6 24.6 64.3-.3 12.2-1 24.4-4.6 36.3-2.6 8.7-8.8 11.8-16.7 13.2-1.6.3-3.4.3-4.8 1-17.5 8-36.5 9.1-54.9 12.8-18.3 3.6-36.9 3.8-55.5 4.4-11.3.4-22.5 1.8-33.8 2.1-9.2.2-18.4-.8-27.6.5-4.6.6-5.5-4-5.9-7.7-1.8-16-7.9-30.8-14.2-45.4-.7-1.5-1.4-3-2.2-4.5-1.1-1.7-2.5-3.5-4.7-2.6-2.3 1-2 3.5-1.5 5.3 1 3.5 2.5 6.8 3.9 10.2 7.3 17.5 9.6 35.8 8.7 54.6-.4 8.3.2 16.5-3.5 24.5-1.4 3-3 4.9-5.5 6.4-12.2 7.5-25.3 12.7-39 16.6-26.2 7.4-52.9 11.3-80 14.2-22.1 2.4-44.2 2.6-66.3 3.5-12.3.5-24.4-1.2-36.6-3.1-14.4-2.2-28.9-3.3-43.1-6.9-9.3-2.4-18.5-4.9-27.2-9.2-6.2-3.1-13.2-4.1-19.8-6.4-5.7-2.1-11.1-4.4-16.7-8.1 3.9-7 7.8-14.1 12-21.1 8.4-13.9 15.9-28.2 21.7-43.5 2.7-7 3.3-14.1 4.6-21.3 3.6-19.5 3.2-38.9 0-58.4-1.6-9.8-2.9-19.6-4.4-29.4-1.6-10.8-5.9-20.2-10.9-29.6-1.2-2.3-4.5-4.6-.8-7.6 3.1-2.5 6.5-6.3 10.4-2.9 7 6 15.7 6.6 23.7 9.4 5.6 2 11.1 1.5 16.8 1.7 4.6.2 6.5-1.7 6.7-6.4.2-4.9-3-4.2-5.8-4.4-3.3-.2-6.6-.6-9.9-.7-9-.4-15.4-6-21.5-11.6s-11.5-6.5-18.4-1.6c-4.5 3.2-9.7 5.2-15.2 6.9-5.3 1.7-9.8.9-14.1-1.5-10.5-5.8-18.1-14.2-22.3-25.7-1.4-3.8-.6-6.1 2.4-8.6 14.1-11.7 25.4-26.1 38.3-39.1 5.4-5.4 9.3-12.1 11.2-19.7.6-2.5.5-4.6-1.2-6.5-1.9-2-4.3-1.3-6.5-.5-2.4 1-4.4 2.8-6.5 4.3-7.7 5.7-15.6 11.1-25 13.9-6.6 1.9-11.9-.2-16.1-4.8-5-5.4-4.9-9.4.3-14.7 4.9-5 10.2-9.4 15.3-14.2 8.5-8 15.7-17.1 21.8-27 2.8-4.4 3.3-8.6 1.3-14-7.9-21.7-5.6-43.9-.2-65.6 2.6-10.5 5.3-21.3 12.1-30.3 2.8-3.6 4.7-7.8 10-9 3.7-.8 4.8-4.4 3.1-8-2.7-5.7-5.2-11.4-8.3-16.9-15.5-28.3-23.2-59-27.5-90.7-2.7-20.3-5.7-40.6-5.9-61.2-.3-36.4.2-72.7 5.4-108.9 4.7-32.1 10.3-64 19.4-95 10.4-35.3 22.8-69.9 44.8-100.1 1.8-2.5 3.6-4.8 2.3-8.6-4.2-.4-6.8 1.9-9.6 5-12.2 13.4-20.3 29.4-27.9 45.6-12.1 25.9-21.3 52.8-28.7 80.3-4.4 16.6-6.8 33.6-9.8 50.5-4.4 24.9-7.3 49.8-8.6 75-.7 13.6-1.3 27.2-.9 40.8.7 21.5 1.4 43.2 3.8 64.6 1.6 14.4 6 28.5 9 42.8 5.2 24.8 14.3 48.3 24.8 71.2 1.3 2.8 1.2 4.9-.6 7.2-10.5 13.4-16.3 28.9-20 45.1-4.6 20.3-8.9 40.8-3.3 61.8.7 2.6.8 5.5 2.1 7.6 4.2 6.7 1.7 11.8-3 16.7-10.4 11.1-20.7 22.4-33.2 31.3-5.7 4.1-6.5 6.3-4.3 12.6 2.7 7.4 5 15.2 12.2 19.9 6.5 4.3 13 7.3 21 3.2 2.9-1.5 7.4-4.8 9.9-1.1 2.6 3.9-2.6 6.1-5 8.4-5.9 5.8-12.3 11.2-18.5 16.7-2.7 2.4-5.3 2.2-9 1.3-24.4-5.8-46.1-18.2-68.3-28.9-17.5-8.4-34.6-18.1-50.3-30-19.7-15-40.2-29.1-59-45.3-25.2-21.6-49.7-44.2-70.8-69.6-16.4-19.7-34.6-38.1-48.6-59.7-17.3-26.7-35-53.2-48.1-82.4-4.2-9.4-8.3-18.8-13-27.9-8.5-16.3-12.6-34.1-17.4-51.6-6-21.7-11.2-43.6-16.4-65.5-1.8-7.7-1.6-15.8-2.4-23.7-2.5-24.4-4.6-48.8-5.1-73.3-.2-9.6.3-19.3 1.7-28.8 1.2-8.3 1.2-16.6 1.6-24.8.8-16.2 3-32.2 5.1-48.3 2.6-19.8 7.8-38.9 11.7-58.4 2.1-10.4 3.7-20.8 6.1-31.1 2.5-10.7 7.5-20.4 10.1-31 6.1-25.3 17.3-48.9 29-71.7 15.6-30.4 32-60.6 53.9-87.2 9.1-11 16.1-23.6 26-33.9 15.8-16.5 30.3-34.1 47.8-49 8.2-7 15.6-15.2 23.8-22.4 14.7-12.9 29.2-26.3 45.5-37.2 23.6-15.7 46.9-32 72.3-44.9 5-2.6 10.4-4.3 15.5-6.8 29.8-14.8 61.8-23.7 93.3-33.7 19.4-6.1 40.2-7.9 60-13 28.3-7.3 57.5-7.8 85.9-13.6 4.2-.9 8.6-.2 13-.4 18.8-1 37.7-2.4 56.5-3.5 20.2-1.1 40.3 2.8 60.4 4.3 26.5 2 52.2 8.1 77.5 15.5 23.5 6.8 47.1 13.5 69.9 22.7 36 14.6 71.4 30.2 104.8 50.3 17.1 10.3 33.3 21.6 49.2 33.6 10 7.5 21.1 13.6 29.7 23.8-6.3 2.6-13.1 1.8-19.3 3.4-14.2 3.6-27.8 8.4-40.3 16.1-2 1.2-4.1 2.5-4.9 4.8-.8 2.2-1.4 4.7.7 6.5 1.8 1.6 3.5.5 5.3-.7 10.1-6.4 20.7-11.7 32.7-13.6 23.5-3.6 46.8-5.8 71-2.7 32.7 4.2 60.3 19 87.7 35.4 1.3 1 2.8 1.8 5 3zm-430 388c-9.7 1.3-11.4 2.1-16.7 7.1-22.7 21.4-40 46.6-54.9 74-10.7 19.7-19.2 40.1-25.8 61.3-8.7 28.2-15.7 56.8-20 86.1-2.7 18.1-4.9 36.2-5.3 54.3-.8 38.1-1 76.3 2.9 114.3 1.4 13.4.5 27.1 1.5 40.6s.6 26.9-1.4 40.2c-.8 5.6-1 11.3-2.1 16.7-2.1 9.6-1.8 19.5-4.7 29.1-3.3 10.8-7.9 20.8-12.4 31-8.1 18.3-18.5 35.3-30.4 51.1-11.7 15.6-26.6 28.6-42.5 39.9-1.9 1.3-4 2.3-5 4.5-1.2 2.7-.8 5 1.5 7.2 2.5 2.3 4.1.5 6-.9 8.4-6.5 16.8-13 25.2-19.4 14.7-11.3 25.8-25.6 35.5-41.3 9.9-16.2 18.5-33 23.9-51.2 7.9-27.1 12.4-54.6 14.5-82.9 2.1-27.7.9-55.1.5-82.7-.5-29-3-57.9-1.6-87 .6-11.9-.9-24.2 1.3-35.8 3.7-19.5 5.3-39.3 9.1-58.8 5.4-27.3 11.7-54.3 22.6-80 5.5-12.8 12.3-25 18.7-37.4 7-13.7 15.8-26.1 24.9-38.2 10.3-13.9 22.1-26.8 34.7-41.8zm-23.6 631.5c19 1.1 37.7-3.1 56.5-4.3 13.2-.9 26.2-3.7 39.3-5.7 1-.1 2-.3 2.9-.7 1.8-.8 2.1-2.4 2-4.1-.1-1.9-1.1-3.2-3.1-3.2s-3.9.4-5.9.5c-14 1.2-28 2.2-42 3.4-27.3 2.4-54.5 4.8-81.8 7.3-6.5.6-6.7.9-7.2 8-1 15.2-4 30.2-8.3 44.8-5.3 18.2-13 35.5-20.8 52.7-8 17.8-18.2 34.6-31.9 48.9-2.1 2.2-3.8 4.7-5 7.4-1.7 3.9-.9 7 3.7 8.7 2.9 1 5.6 1.8 8.7 1.5 8.1-.9 15.6-3.6 22.3-7.7 17.9-10.9 31.8-26 43.6-43 3-4.4 5.4-5.8 10.4-2.9 5.7 3.3 12.2 5 16.6 10.6 1.8 2.3 5.9 3 8.1.8 2.1-2.1 0-4.5-1.9-6.7-2.2-2.6-6.1-5.6-4.9-9.2 3.7-11 1.4-22.2 2.3-33.3 1.1-13.8 1.6-27.9-.6-41.8-1.2-7.2-.9-7.1 7.1-8.7 4.6-.9 9.3-1.2 13.7-2.2 6.5-1.5 13.9-2.5 17.4-9.8 1.5-3.1-.2-5.9-3.2-4.9-4.9 1.6-9.9 1.6-14.8 2.2-14.2 1.5-28.4 2.6-42.7 2.8-4.6.1-6.6-1.1-6.6-6.1 0-5.7 3.1-5.4 7.1-5.3 6.4.1 12.7 0 19 0zm267.7-654.7c-7.9-.7-15.2 2-22.2 6.3-6.6 4-11.9 9.5-18.1 13.8-14.8 10.3-25.1 24.5-36.4 38-1.5 1.8-2.7 3.6-3 6.1-.4 3.5 1.8 4.6 4.5 5.4 3.3 1 4.4-.9 4.3-3.6-.2-3 1.7-4.9 3.3-7 15.4-20.4 33.6-37.4 57.8-47 10.5-4.2 19.2-2.6 26 5.4 5.1 5.8 8.2 12.8 11 19.9 5 12.5 13.7 14.1 22.5 4.2 11.3-12.8 25.2-21.4 41.2-26.8 11-3.7 18.3-1.1 24.2 9 1.3 2.3 2.6 4.6 4.3 6.7 1.3 1.6 3.3 2.4 5.3 1.1 2-1.3 2.2-3.2 1.3-5.2-8.1-18.5-18.7-26.2-37.9-23.6-13.2 1.8-25.2 8.1-34.9 17.8-4 4-7.8 8.1-11.2 12.7-3.4 4.7-4.8 4.3-7.4-1.1-2-4.2-3.4-8.6-5.6-12.7-6.3-11.2-14-20.5-29-19.4zm246.4-116.8c-6 1.1-10.1 1.3-11.8-4.9-1.3-4.9-4.8-8.7-7.6-12.8-2.3-3.4-5.7-4.3-9.6-3.8-3.5.4-4 2.6-2 4.7 2.8 2.9 5.6 5.7 7.1 9.4 4.5 10.9 6.4 21.8 4.6 33.7-2.7 18.3-11.7 31.2-28.8 38.3-2.2.9-5.7.8-4.3 4.7 1.3 3.5 3.1 6.9 7.9 5.7 17.7-4.4 33.8-24.1 35.1-42.8.5-7.8 1.5-15.5 2.3-23.4 16.1.2 31.8-3.8 47.5.2 2.1.5 4.5-.4 4.9-2.4.5-2.3-.8-4.8-3.3-5.4-2.2-.6-4.6-.3-6.9-.5-6.8-.4-13.8 1-20.7-1-.5-3.6 1.8-5.9 2.7-8.6 1.7-5 1.6-9.6-.9-14.4-4.6-8.7-7.9-9.4-15.1-2.9-1.8 1.6-3 3.3-3.4 5.8-1.1 6.7-2.5 13.5 2.3 20.4zm-83.4-28c0-5.1.2-8.5-.1-11.8-.2-1.8-1.9-2.8-3.6-2.8-2.1-.1-2.8 1.5-2.9 3.3-.2 8.7-2.4 17-5 25.2-.7 2.2-.9 4.6-2.6 6.4-1.6 1.7-3.2 3.8-5.8 3-2.2-.7-2.5-3-2.6-4.9-.9-13.3.1-26.4 5.6-38.7 1.1-2.4 2.8-4.6 5.2-5.9 2-1 5-1.7 3.4-4.8-1.3-2.5-3.8-3.2-6.7-2.8-4.7.8-8.1 3.3-10.1 7.3-6.4 12.6-10.2 25.8-8.7 40.1.3 2.9 1 5.9 1.9 8.7 2.4 7.1 8 10.6 15 11.3 6.1.7 8.6-4.9 10.5-8.9 3.8-8.1 8.3-16.6 6.5-24.7zm-53.2 87.6c9 0 16.8-3.2 23.7-8.7 11.2-8.8 17.4-21.5 25.5-32.6 1-1.4 2.1-3.2.9-4.5-1.8-1.9-4.7-1.7-6.5-.5-1.8 1.2-2.7 3.7-4 5.6-7.1 11.7-17.1 20.2-29.3 26.1-8.5 4.1-17 5.5-24.5-2.4-.9-1-2.1-1.6-3.2-2.4-1.4-1-2.8-2-4.4-.7-1.7 1.4-.4 3 0 4.5 2.8 9.8 11 15.7 21.8 15.6zm-35.5-112c4.2 0 7.6-2.2 11.1-4 12.7-6.4 21.9-16.8 31.2-27 10.7-11.8 20-24.7 27.3-38.9 1.2-2.2 2.2-4.8-.5-5.9-2.2-.9-5.3-1.2-6.8 2-.1.3-.2.6-.3 1-3.4 11.9-12.8 19.9-19.2 29.8-5.1 7.9-12 14.1-18.8 20.2-8 7.1-17.1 12.5-28.3 13.1-1.8.1-4.2-1-4.8 1.9-.5 2.1.7 3.9 1.9 5.4 1.9 2.1 4.4 2.5 7.2 2.4zm165.9-29c.1 6.5 2.6 12.3 4.2 18.3 2.3 9.1 8.9 14.4 16.4 18.9 3 1.8 6.9 2.4 9.2 0 3.1-3.2-.8-5.9-2.5-8.4-.7-1-2.2-1.5-3.1-2.4-6.8-8.1-13.5-16.1-15.9-26.8-.7-3.1-.3-7.4-4.9-7.2-5.2.2-2.5 5-3.4 7.6z"/><path fill="#928A86" d="M449.8 1872.6c-.1.8-.3 1.6-1.4 1.5-1.1-.1-2.3-.3-3.4-.4.6-1.7 2.1-2 3.5-2.4l1.3 1.3z"/><path fill="#928A86" d="M448.5 1871.2c.6-.6 1.3-1.6 2.1-.7.8.8 0 1.5-.8 2.1-.5-.5-.9-.9-1.3-1.4z"/><path fill="#FEFEFE" d="M445 1873.7c1.1.1 2.3.3 3.4.4-1.1.7-1.3 3-3.4 1.9-1.3-.8-.1-1.6 0-2.3z"/><path fill="#FFF" d="M918.9 1994.7c-.2.4-.5.9-.7 1.3-.2-.2-.7-.5-.6-.7.1-.5.4-.9.6-1.3l.7.7z"/><path fill="#938B87" d="M1051.8 395.5c19.4 3.8 41.2 4.1 61.7 11.6 9 3.3 18.6 4.9 27.6 8.4 4.5 1.7 7.4 4 9.1 8.3 5.4 13.8 7.9 28.1 7.2 42.9-.2 4.3-2.2 7.6-4.8 10.7-5.5 6.6-11.8 12.6-18.6 17.9-5.9 4.6-12.8 8.2-15.7 16.1-1 2.6-4.6 4.8-7.6 6.1-24.1 11.1-48.8 20.7-75.1 25.6-5.7 1.1-10.4-.3-14.7-4.1-5.4-4.7-9.4-10.4-11.8-17-3.2-9-7.4-17.6-8.9-27.3-1.7-11.1-4.5-22.1-7.6-32.9-1.6-5.5-.6-9.8 2.9-13.8 14-15.9 25.6-33.8 40.5-49.1 4.4-4.3 9.2-2.5 15.8-3.4zM237 2063.7c-9.7 0-19.3.2-28.9 1.6-6.5 1-12.6-.1-18.5-2.6-7.3-3.1-14.5-6.6-21.8-9.8-13.1-5.9-21.7-15.9-27.7-28.7-2-4.3-1.9-7.8 1.8-10.6 20.6-15.6 38-35.4 61.4-47.5 4.7-2.4 8.6-3.7 14-2.1 9.1 2.6 17.4 6.4 24.4 12.7 5 4.6 10.7 7.2 17.1 9.7 17.5 6.8 28.1 20.4 33.7 38 .9 2.8.6 5.9-.7 8.8-4 9-9.2 17.1-16.7 23.4-5.7 4.8-12.2 7.8-20.1 7.3-6-.6-12-.2-18-.2z"/><path fill="#656565" d="M1749.3 1039.5c20.1.5 35 5.3 46.3 19 3.7 4.5 6.5 9.2 7.9 14.8 5.8 22.5 1.4 43.2-13.4 60.9-11 13.2-25.4 18.6-42.8 14.2-15.6-4-29.5-10.5-38.2-24.9-7.3-12.2-11.3-25.6-11.6-39.8-.3-14.4 13.9-33.5 28.5-39.4 8.6-3.4 17.3-5.3 23.3-4.8zM1633.2 1069.1c-.4 6.9-1.7 13.1-5.6 18.4-11 15-39.7 26.5-58 20.4-6.5-2.2-11.2-5.5-13.8-11.8-6.9-16.6-5.8-32.4 4.9-47.2 5.9-8.2 12.3-15.8 22.3-19.1.9-.3 1.8-1 2.8-1.1 18.9-2.2 42.8 4.9 45.6 30.2.4 3.5 1.2 7.1 1.8 10.2zM1476.8 1120.3c9.3-.5 16.4 3.5 20.3 11.5 4.2 8.7 5.5 17.8-1.8 26-2.2 2.5-4.1 5.2-6.9 7.1-6.9 4.6-13.7 5.8-21.3 1.3-9.7-5.8-15.1-14.5-17.3-25.3-1.3-6.2 2.6-13.3 8.7-16.5 4-2.2 12.4-4 18.3-4.1zM1391.1 1090.1c.1-6.6 6.5-14.1 11.6-13.8 4.3.3 9.3 7.3 9 12.6-.3 6.3-6.2 13-11.5 13-5.6.1-9.2-4.7-9.1-11.8z"/><path fill="#060606" d="M2610.9 302.3c.5-11.5 6.6-17.4 15.1-22.7 13-8.1 26.8-14.8 39.8-22.8 6.5-4 13.6-3.9 20.2-1.8 6.3 2 12.5 4.5 18.2 8 9.3 5.8 16.6 13.1 19.1 24.4 1.4 6.2 3.9 12 6.2 17.9 1.8 4.7 4.7 6.8 9.7 7 6.3.2 12.8.4 15.6 7.9.6 1.6 2.8 1.5 4.3 2.3 5.7 2.9 11 6.2 12.2 13.4.6 3.8 3.3 5.4 6.9 6.2 6.9 1.3 13.3 4.4 19.7 7 4 1.6 7.8 3.6 11.4 6.1 8.6 5.9 13.7 13.4 12.1 24.3-.5 3.9-1.1 7.9-1.9 11.8-1.2 5.8.1 9.7 5.7 13.2 11.3 7 21.2 15.5 28.8 27 6.2 9.3 5 22.7-2.9 29.8-1 .9-2 1.8-2.9 2.7-4.2 4.3-4 5.6 1.3 8.8 2.3 1.4 4.5 2.8 6.9 3.9 11.3 5.2 14.1 15.2 12.2 25.7-2.2 12.3-5.6 24.6-11.1 35.9-5.4 11-13.5 18.7-26.2 20.7-9.5 1.5-18.9 4.1-28.6 3.5-4.8-.3-8.4.6-9.6 6.2-.9 3.9-3.6 7.1-6.4 10-5.3 5.5-10.6 11.1-14.8 17.5-2.6 4-7.5 5.2-11.5 9.7 11.7 5 22.4 10 33.5 14.3 5.6 2.2 10.8 5 16.1 7.9 5.9 3.3 10 7.8 9.7 15-.4 13.3-.1 26.9-9.2 37.8-17.3 20.9-39.1 31.7-66.7 26.1-10.5-2.1-21.1-2.6-31.5-4.6-14.3-2.7-26.2-9.4-35.2-20.8-9.6-12.1-9.8-25.7-4.7-39.5 4.4-11.7 11.4-21.6 22.3-28.2-.5-.8-.6-1.1-.9-1.2-17.7-8.5-18.6-8.8-25.9 10.9-3.4 9-8.7 10.3-16.2 10.4-8.6.1-17.3.1-25.9.2-3 0-6.1-.3-8.6 1.9-9.3 8.2-19.8 6.5-30.2 3.5-12.7-3.7-25.4-7.7-37.1-14.4-6.1-3.5-11.4-8.1-16-13.4-3.4-3.9-4.7-8.8-4.5-13.9.6-14.4 2.2-28.5 11.7-40.4.6-.8 1.2-1.6 1.6-2.5.5-1.2.9-2.7-.5-3.5-.7-.4-2-.5-2.8-.2-3.7 1.4-7.5 2.8-11.1 4.5-6.9 3.4-14.4 4-21.5 2.2-22.3-5.5-44.3-12-62.3-27.4-6.6-5.6-12.8-11.7-19.3-17.4-3.6-3.2-5.3-6.5-3.1-11.4 1.3-3 2-6.2 3.7-9.2 8.1-13.8 16.4-27.4 28.4-38.3 2-1.9 5.1-3.4 4.5-7.9-5.1.2-7.7 4.7-11.7 6.6-7.4 3.5-15.1 6.7-18 15.8-1.4 4.5-5.7 6.1-10.6 5.5-5.9-.7-11.9-1.3-17.8-1.9-5-.5-9.1.1-10.5 6.4-2.5 11.5-10.9 17.9-20.7 22.7-10.2 4.9-20.6 9.3-31.6 12.1-4.6 1.2-9.4 1.7-13.8.1-18.8-6.5-37.8-12.6-54.4-23.9-4.9-3.3-10.2-6.2-14.4-10.6-3-3.2-4.7-6.1-2.4-10.6 2-3.8 2.7-8.1 2.6-12.6-.1-4.4 1.4-8.5 3.1-12.5 3.6-8.9 8.1-17.5 11-26.7 2.1-6.8 6.6-11.2 13.8-13 17.8-4.4 35.7-7.2 54.1-4.3 2.8.5 5.3 1 6.4-2.5 3.4-10.2 12.5-14.6 20.8-19.1 13.7-7.5 28.1-13.4 43.2-17.8 9.4-2.7 17.7-.2 25.7 4.1 7.9 4.3 15.6 8.9 23.2 13.8 3.7 2.4 6.4 2.4 9.3-1.3 2.8-3.6 7.5-6.1 3.9-11.8-4.9-7.9-10.5-15.2-14.7-23.6-4.2-8.5-4.1-14.9 2.3-22.6 12.5-15.1 27.7-26.5 46.3-31.2 14.5-3.7 29.7-7.6 45.3-3.7 4 1 7.5 2.2 10.4 5.3 1.6 1.7 3.6 2.9 5.3 4.5 7.4 6.9 15.1 11.8 25 4.3 2.3-1.8 5.1-.8 7.7.1 4 1.1 8.1 2.5 13.4 4.3zm-41.6 71.8l-.2-.2c-.9 4.7 3.3 6.7 5.1 10 .9 1.6.9 3.2-.7 4.4-1.2 1-2.5.6-3.6-.4-1.5-1.3-2.9-2.8-4.3-4.2-5.8-6-12.4-11.1-19.4-15.6-6.4-4.2-13.5-8.3-21.3-7.3-20.4 2.6-38.5 10.6-51.8 26.9-4.4 5.4-8 11.4-12.9 16.4-3 3.1-3 6.1-1.6 10 4.5 12.7 15.4 20.4 28.8 19.5 4.5-.3 8.9-.9 12.9 1.3-.9 4.5-3.7 5.5-6.9 5.3-4.9-.2-9.1 1.7-13.2 4.1-18.9 11-32.5 27.2-43.5 45.6-2.5 4.1-2.1 8.7-.4 13.5 3.6 9.4 10 16.2 18 22.1 14.7 10.9 31.7 16.6 49.3 20.2 8.4 1.7 17.5 1.7 25-3.9 7.3-5.4 14.8-7 23.4-4 5 1.8 8.6-.3 12.4-3.8 11.1-10.1 23.4-18.4 37.7-23.5 4.4-1.6 8.8-3.3 13.6-2.2 7.4 1.6 15 2.8 22.1 5.5 6.8 2.5 11.7 1.2 17.4-2.8 15.3-10.8 31.8-19.2 50.3-23.1 5.3-1.1 8.8-3.8 11.7-8.2 9-13.8 20.3-25.3 34.6-33.9 9-5.5 18.7-8.7 29-10 10.2-1.3 19.5.8 27.5 8.6 6.2 5.9 13.8 10.4 20.9 15.3 1.8 1.3 3.9 2.7 6.5 2.2 7.1-1.6 14.2-14.9 11.4-21.8-4.2-10.3-11.9-17.4-21.3-22.9-7.2-4.1-14.8-7.5-23.1-9-1.8-.3-3.3-1.2-3.5-3-.3-1.9 1.2-2.8 2.8-3.5 10.1-4.5 10.7-14 10.4-22.8-.3-8.8-7.4-12.4-15.2-15-8.8-3-18-4.3-26.9-6.7-7.9-2.1-10.8-6.7-10.6-13.1.2-7.3-2.9-11.1-8.9-13.7-1.5-.7-3.5-1.4-4.1-2.7-2.7-5.2-7.5-5.8-12.4-6.9-9-2.2-14.2-8.1-15.7-17.2-.4-2.6-1.1-5.2-1.3-7.9-1.3-17.6-23.7-30.3-34.5-31.8-2-.3-3.9.5-5.8 1-17.3 4-31.8 13-44.8 24.8-5.4 4.8-10.3 9.1-7.8 17.7 1.3 4.7-2.1 6.7-7.4 5.4-5.2-1.3-10.2-3.2-15.4-4-7.9-1.2-15.9-2.1-22.9 3.6-2.5 2-4.1 3.9-2.6 7.6 1.8 4.2 3.1 8.8 3.9 13.3 2.6 14.3 1.5 22.6-13.1 29.6-1.2.6-2.4 1.1-3.5 1.9-2.3 1.7-2.9 3.9-.6 5.8 1.9 1.5 3.3 4.3 6.5 3.5zm45.2 145.2c-4.8-1.2-10.6 4.4-17.4 6.7-8.8 3.1-17.1 7-24.4 13.1-16.9 14.1-24.6 33.5-31.6 53.3-3.1 8.8-1.5 11.3 5.8 16.9 10.7 8.2 22.7 14.1 35.4 17.9 13 3.9 26.1 3.5 37.7-5.2 1.7-1.3 3.5-2 5.6-1.4 5.9 1.7 11.8.3 17.7.4 8.6.1 12.4-4.9 15.7-11.3 3.8-7.5 5.7-15.6 7.7-23.6 1-3.9.8-8.5 6.5-8.1 6.5.4 4.6 5.7 4.3 9.1-.5 5.7 1.8 8.7 7.1 10.2 6.4 1.8 12.8 3.4 19 5.7 7.8 2.9 15.5 2.7 23.4.5 5.1-1.4 10.4-3.4 15.5-3.2 7.5.3 12.7-3.1 17.6-7.8 5.3-5.1 10.2-10.6 15.6-15.4 9.1-8 12.9-18.2 13.6-29.9.3-4.1-.5-7.9-4.3-10.5-5.7-3.9-11.3-8.1-17-12.1-11.5-8.1-25-12.4-37.3-19-5.9-3.1-11.7-4.5-18.2-3.6-2.9.4-6 .9-8.9.5-8-1.1-14.3 2.7-20.3 6.9-6.8 4.8-13.2 10.1-19.1 16-2.8 2.8-3.4 4.7-1.5 8.5 1.4 2.7 5.6 6.9.7 9.4-4.1 2.1-5.9-2.9-8.2-5.5-10.1-10.9-22.3-17.5-40.7-18.5zm-293.8-107.5c-8.8-.5-17.1 1.8-25.7 3-9.7 1.4-14.6 7.4-17.7 15.4-4 10.5-7.5 21.2-10.9 32-2.7 8.4-.9 12.5 5.5 18.3 8.7 7.7 19.6 10.8 29.8 15.4 11.3 5.1 22.8 6.1 34.7 1.4 10.5-4.1 21.3-7.5 31.9-11.2 1.6-.6 3.2-1.2 4-2.7 3.6-6.7 8.4-12.8 10.8-20.1 2.9-8.8 3.2-17-6.2-22.5-.6-.3-1.1-.8-1.5-1.3-1.5-1.8-3.3-3.8-1.6-6.2 1.6-2.2 4.3-2.2 6.4-1 8.2 4.5 16.2 9.7 17.1 20.1.4 4.4 2.1 5.7 6 6 2.3.2 4.6 1.3 6.8 1.2 5.9-.2 12.6.3 15.8-6 2.7-5.3 7.1-7.7 12.2-9.4 6.2-2 10.8-6.3 15.2-10.9 2.8-2.9 3.3-5.6.3-8.6-1.4-1.4-2.9-2.7-4.2-4.3-5.2-6.3-5.3-7.9-.6-14.9 2.3-3.3 4.7-6.4 7.1-9.6 1.7-2.2 1.4-4.2-.6-6.2-10.6-10.6-23.5-17.2-37.8-21.1-2.4-.7-5.4-.4-7.9.2-16.4 4.4-31.6 11.9-46.8 19.4-7.2 3.6-7.4 10.5-8.9 16.7-1.3 5.4 4.5 5.8 6.9 8.6.4.5.8 1 1.3 1.5 1.7 1.5 4.3 2.8 1.9 5.5-1.7 1.8-3.6.7-5.3-.4-11.5-7.7-24.8-7.7-38-8.3zm438.9 285.8c16.3 1.9 28.2-7 38.8-18 5.9-6.1 8.5-14.3 10.4-22.3 2.3-10.1-3.4-19.7-14.4-25.8-7.8-4.4-16.3-7-24.8-9.7-6-1.9-12.3-2.2-17.9-5.5-8.1-4.8-16.6-5.8-25.7-2.3-16.9 6.5-32.8 13.8-42.6 30.6-10.8 18.5-.8 37.5 19.7 43 12.9 3.5 26.4 5.4 39.5 8.4 5.5 1.2 11 2.3 17 1.6zm51.1-147.5c6.5-1.1 13-2.9 19.6-3.2 9.3-.4 15.3-5.9 18.5-13.1 4.9-11.1 9.1-22.8 10.2-35.2.5-6.2-1.7-10.9-7.3-14.2-5.7-3.4-11.1-7.3-17.4-9.7-3.5-1.3-6.3-3.5-9.1-6-7.3-6.3-15.2-12-22.1-18.6-7.5-7.2-15.4-7.6-24.8-4.8-17.8 5.4-30.9 17.7-44.5 29.3-2.9 2.5-4.8 6.3-6.7 9.8-2.8 5.3-2.4 5.7 3 7.7 21.6 8.1 42 18.1 58.5 34.7 4.5 4.5 9 9.3 8.4 16.2-.4 4.9 2.3 5.1 5.7 5.7 2.7.6 5.2 1.3 8 1.4zm-235.2-208.6c-1.5-14.6-8.3-27.6-19-38.6-3.4-3.5-6-8.4-11.6-8.8-15.1-1-29.9-.7-43.5 7.5-4.8 2.9-9.7 5.9-14.9 8.1-6.6 2.8-11.4 8-17.3 11.7-3.4 2.1-4.1 6-3.5 9.8 1.6 9.9 4.1 19.4 9.4 28.2 2 3.3 4.1 4 7.2 1.9 3.3-2.2 6.5-4.5 10.7-5.1 11.5-1.7 22.9-3.8 34.4-5.4 7.9-1.1 15 .7 21.2 6.3 6.1 5.6 6.3 5.4 13.6 1.1 2.6-1.5 5.3-2.9 7.7-4.6 3.7-2.8 5.7-6.5 5.6-12.1zm-111 100.2c-.4-.6-.7-1.3-1-1.4-1.1-.1-1.8.7-1.8 1.8 0 .4.5.9.8 1.4.6-.7 1.3-1.3 2-1.8z"/><path fill="#0F0F0F" d="M770.4 1294.9c-12.6 15-24.4 27.9-34.9 41.9-9.1 12.1-17.9 24.5-24.9 38.2-6.3 12.4-13.2 24.6-18.7 37.4-10.9 25.7-17.2 52.7-22.6 80-3.8 19.5-5.4 39.3-9.1 58.8-2.2 11.6-.7 23.8-1.3 35.8-1.4 29 1.1 58 1.6 87 .5 27.5 1.6 55-.5 82.7-2.1 28.3-6.6 55.8-14.5 82.9-5.3 18.3-13.9 35.1-23.9 51.2-9.6 15.7-20.8 30-35.5 41.3-8.4 6.5-16.8 12.9-25.2 19.4-1.9 1.4-3.4 3.2-6 .9-2.4-2.1-2.8-4.4-1.5-7.2 1-2.2 3.1-3.2 5-4.5 16-11.4 30.8-24.3 42.5-39.9 11.9-15.8 22.3-32.8 30.4-51.1 4.5-10.2 9.2-20.3 12.4-31 2.9-9.6 2.7-19.5 4.7-29.1 1.2-5.4 1.3-11.1 2.1-16.7 1.9-13.3 2.4-26.7 1.4-40.2-1-13.5-.1-27.2-1.5-40.6-3.9-38.1-3.7-76.2-2.9-114.3.4-18.1 2.6-36.3 5.3-54.3 4.4-29.3 11.3-57.9 20-86.1 6.6-21.2 15.1-41.6 25.8-61.3 14.8-27.4 32.2-52.6 54.9-74 5.4-5.1 7.2-5.9 16.9-7.2z"/><path fill="#0B0B0B" d="M746.8 1926.4c-6.3 0-12.6.2-18.9-.1-4-.1-7.1-.4-7.1 5.3 0 5 2 6.2 6.6 6.1 14.3-.2 28.5-1.3 42.7-2.8 4.9-.5 9.9-.5 14.8-2.2 3-1 4.7 1.8 3.2 4.9-3.4 7.3-10.9 8.4-17.4 9.8-4.4 1-9.1 1.3-13.7 2.2-8 1.6-8.3 1.5-7.1 8.7 2.3 13.9 1.8 28 .6 41.8-.9 11.1 1.4 22.4-2.3 33.3-1.2 3.6 2.6 6.6 4.9 9.2 1.9 2.2 3.9 4.6 1.9 6.7-2.2 2.2-6.2 1.5-8.1-.8-4.4-5.6-10.9-7.3-16.6-10.6-5-2.9-7.3-1.5-10.4 2.9-11.8 17-25.8 32.1-43.6 43-6.8 4.1-14.3 6.9-22.3 7.7-3.1.3-5.8-.5-8.7-1.5-4.6-1.6-5.4-4.8-3.7-8.7 1.2-2.7 2.8-5.2 5-7.4 13.6-14.3 23.9-31.1 31.9-48.9 7.8-17.2 15.5-34.5 20.8-52.7 4.3-14.6 7.3-29.5 8.3-44.8.5-7 .7-7.4 7.2-8 27.3-2.4 54.5-4.9 81.8-7.3 14-1.2 28-2.3 42-3.4 2-.2 3.9-.5 5.9-.5 2 0 3 1.3 3.1 3.2.1 1.7-.2 3.4-2 4.1-.9.4-1.9.5-2.9.7-13.1 2-26.1 4.9-39.3 5.7-18.9 1.3-37.5 5.5-56.6 4.4zm-78.6 145c17.7-9.8 32.1-23.7 45.7-38.2 4.1-4.4 7.9-7.9 13.9-8.2 5.7-.3 7.1-3.5 7.1-8.5 0-13 .5-25.9.6-38.9 0-6.6-.7-13.2-1.9-19.8-.7-3.6-1.3-6.5-6-6.1-3.8.3-8.4-1-8.9 5.2-.2 1.9-1.4 3.8-1.6 5.7-3 22.4-13.7 42.1-22.4 62.5-2.1 4.9-4.9 9.4-7.4 14.1-5.7 10.9-13.5 20.4-20.5 30.4-.9.2-2.1.9-1.7 1.7.8 1.8 2 .7 3.1.1z"/><path fill="#0D0D0D" d="M1014.5 1271.7c15-1 22.7 8.2 28.9 19.4 2.2 4 3.7 8.5 5.6 12.7 2.6 5.5 4 5.8 7.4 1.1 3.4-4.6 7.1-8.8 11.2-12.7 9.8-9.7 21.7-16 34.9-17.8 19.2-2.6 29.8 5 37.9 23.6.9 2.1.7 4-1.3 5.2-2 1.3-4 .5-5.3-1.1-1.7-2-2.9-4.4-4.3-6.7-5.9-10.1-13.2-12.8-24.2-9-16 5.4-29.9 14-41.2 26.8-8.7 9.9-17.5 8.4-22.5-4.2-2.9-7.2-6-14.1-11-19.9-6.9-7.9-15.5-9.5-26-5.4-24.2 9.6-42.4 26.6-57.8 47-1.6 2.1-3.4 4-3.3 7 .1 2.7-1 4.6-4.3 3.6-2.7-.8-4.9-1.9-4.5-5.4.3-2.5 1.5-4.3 3-6.1 11.3-13.5 21.6-27.7 36.4-38 6.2-4.3 11.5-9.8 18.1-13.8 7.1-4.3 14.4-7 22.3-6.3zM1260.9 1154.9c-4.8-6.9-3.4-13.6-2.1-20.4.5-2.5 1.7-4.2 3.4-5.8 7.2-6.5 10.4-5.8 15.1 2.9 2.5 4.8 2.6 9.4.9 14.4-.9 2.7-3.2 5.1-2.7 8.6 6.8 2 13.8.6 20.7 1 2.3.1 4.7-.1 6.9.5 2.5.7 3.8 3.1 3.3 5.4-.4 2-2.8 3-4.9 2.4-15.7-4-31.4.1-47.5-.2-.8 7.9-1.7 15.7-2.3 23.4-1.3 18.7-17.3 38.4-35.1 42.8-4.8 1.2-6.6-2.1-7.9-5.7-1.5-3.9 2-3.8 4.3-4.7 17.1-7.1 26-20 28.8-38.3 1.8-12-.2-22.9-4.6-33.7-1.6-3.8-4.4-6.5-7.1-9.4-2-2.1-1.5-4.4 2-4.7 3.9-.4 7.3.4 9.6 3.8 2.8 4.1 6.3 7.9 7.6 12.8 1.5 6.2 5.6 6 11.6 4.9zm10.5-17.4c-.4-1.1-.2-2.9-2.1-2.6-2.7.4-3.7 2.3-3.7 4.9 0 1.7.6 3.9 2.3 3.8 3.5-.3 2.8-3.7 3.5-6.1zm2.1 17.2c.2.4.5.9.7 1.3.2-.2.7-.5.6-.7-.1-.5-.4-.9-.6-1.3-.2.3-.4.5-.7.7z"/><path fill="#0F0F0F" d="M1177.5 1126.9c1.8 8-2.7 16.5-6.6 24.9-1.9 4-4.4 9.6-10.5 8.9-7-.8-12.6-4.2-15-11.3-.9-2.8-1.6-5.8-1.9-8.7-1.5-14.3 2.3-27.6 8.7-40.1 2-4 5.4-6.6 10.1-7.3 3-.5 5.4.3 6.7 2.8 1.6 3.1-1.3 3.7-3.4 4.8-2.5 1.3-4.2 3.5-5.2 5.9-5.6 12.3-6.6 25.4-5.6 38.7.1 2 .4 4.3 2.6 4.9 2.7.8 4.2-1.3 5.8-3 1.7-1.8 1.9-4.2 2.6-6.4 2.6-8.2 4.8-16.5 5-25.2 0-1.8.8-3.4 2.9-3.3 1.7.1 3.5 1.1 3.6 2.8.4 3.1.2 6.5.2 11.6zM1124.3 1214.5c-10.8.1-19-5.7-21.6-15.4-.4-1.5-1.7-3.1 0-4.5 1.6-1.3 3-.4 4.4.7 1.1.8 2.3 1.4 3.2 2.4 7.5 8 16 6.5 24.5 2.4 12.2-5.9 22.2-14.4 29.3-26.1 1.2-2 2.2-4.4 4-5.6 1.8-1.3 4.7-1.4 6.5.5 1.3 1.3.2 3.1-.9 4.5-8.2 11.1-14.4 23.8-25.5 32.6-7.1 5.3-14.9 8.4-23.9 8.5z"/><path fill="#141414" d="M1088.8 1102.5c-2.8.2-5.3-.3-7.2-2.6-1.2-1.6-2.4-3.3-1.9-5.4.7-2.9 3-1.8 4.8-1.9 11.2-.5 20.3-6 28.3-13.1 6.9-6.1 13.7-12.3 18.8-20.2 6.4-9.9 15.8-17.9 19.2-29.8.1-.3.2-.7.3-1 1.5-3.3 4.7-3 6.8-2 2.7 1.2 1.6 3.7.5 5.9-7.4 14.2-16.6 27.1-27.3 38.9-9.3 10.3-18.5 20.6-31.2 27-3.5 2-6.9 4.2-11.1 4.2zM1254.7 1073.5c.9-2.6-1.8-7.4 3.4-7.7 4.5-.3 4.2 4.1 4.9 7.2 2.4 10.7 9.1 18.7 15.9 26.8.8 1 2.4 1.4 3.1 2.4 1.7 2.5 5.6 5.2 2.5 8.4-2.3 2.4-6.3 1.8-9.2 0-7.5-4.5-14-9.8-16.4-18.9-1.5-5.9-4-11.7-4.2-18.2z"/><path fill="#928A86" d="M2569.3 374.1c-3.2.8-4.6-2-6.5-3.6-2.3-1.9-1.6-4.1.6-5.8 1.1-.8 2.3-1.3 3.5-1.9 14.5-7 15.7-15.2 13.1-29.6-.8-4.5-2.1-9.1-3.9-13.3-1.6-3.7.1-5.6 2.6-7.6 6.9-5.6 15-4.8 22.9-3.6 5.2.8 10.3 2.7 15.4 4 5.4 1.3 8.8-.7 7.4-5.4-2.4-8.6 2.5-12.9 7.8-17.7 13-11.7 27.5-20.8 44.8-24.8 1.9-.5 3.8-1.2 5.8-1 10.8 1.4 33.2 14.1 34.5 31.8.2 2.6.8 5.2 1.3 7.9 1.5 9.2 6.7 15 15.7 17.2 4.8 1.2 9.7 1.7 12.4 6.9.7 1.3 2.6 2 4.1 2.7 6 2.6 9.2 6.3 8.9 13.7-.2 6.4 2.7 11 10.6 13.1 8.9 2.4 18.1 3.7 26.9 6.7 7.8 2.6 14.9 6.2 15.2 15 .3 8.8-.2 18.3-10.4 22.8-1.6.7-3.1 1.6-2.8 3.5.3 1.8 1.8 2.7 3.5 3 8.3 1.5 15.8 4.8 23.1 9 9.4 5.4 17.1 12.6 21.3 22.9 2.8 6.9-4.3 20.2-11.4 21.8-2.5.6-4.6-.9-6.5-2.2-7.1-4.9-14.7-9.4-20.9-15.3-8-7.7-17.3-9.9-27.5-8.6-10.2 1.3-19.9 4.6-29 10-14.3 8.6-25.6 20.1-34.6 33.9-2.9 4.4-6.4 7.1-11.7 8.2-18.5 3.9-35 12.3-50.3 23.1-5.6 4-10.6 5.3-17.4 2.8-7.1-2.7-14.7-3.8-22.1-5.5-4.8-1.1-9.2.7-13.6 2.2-14.3 5.1-26.6 13.4-37.7 23.5-3.8 3.5-7.4 5.6-12.4 3.8-8.6-3.1-16.1-1.4-23.4 4-7.5 5.6-16.5 5.6-25 3.9-17.6-3.6-34.5-9.3-49.3-20.2-7.9-5.9-14.4-12.7-18-22.1-1.8-4.7-2.1-9.3.4-13.5 11-18.5 24.6-34.6 43.5-45.6 4-2.3 8.2-4.3 13.2-4.1 3.1.1 5.9-.8 6.9-5.3-4.1-2.2-8.5-1.6-12.9-1.3-13.4.8-24.3-6.8-28.8-19.5-1.4-3.9-1.5-6.8 1.6-10 4.9-5 8.6-11 12.9-16.4 13.2-16.3 31.3-24.4 51.8-26.9 7.8-1 14.8 3.1 21.3 7.3 7 4.6 13.5 9.7 19.4 15.6 1.4 1.4 2.8 2.9 4.3 4.2 1 .9 2.3 1.4 3.6.4 1.5-1.2 1.5-2.8.7-4.4-1.7-3.3-6-5.4-5.1-10 6.1.3 11.8-1.5 17-4.5 8.5-4.9 17-4.7 25.8-1 4.9 2.1 9.6 4.6 14.5 6.5 14.8 6 21 17.1 20.5 32.7-.1 3.9-.8 7.9 1.4 11.7 1.3 2.1.9 5.8 4.5 5.6 3.1-.2 5-2.5 6.6-5.4 2.7-5 .8-9.9 0-14.5-1.8-10.2-5.2-20.2-13.6-26.9-11.7-9.3-24.6-16.8-39.6-19.8-4.3-.9-8.8-1.5-12.8-.1-6.8 2.4-13.5 5.5-20 8.7-2.6 1.4-5 3.6-4.1 7.3zm-11.1 79.4c18.1-24.9 43.2-28.8 68-13.5 9.6 5.9 15.2 15.8 23.5 22.8 1.8 1.5 1.6 4.3 1.7 6.6.3 5.8-1.1 11.2-4.5 16-1 1.5-1.7 3.1.2 4.2 1.5.9 3.5 1 4.6-.4 1.9-2.3 3.6-4.8 5-7.4 1.5-2.9 2.6-6.1 3.9-9.2 3.1-7.6 3.1-9.2-3.5-14.5-7-5.7-13.3-12-19.6-18.4-6.7-6.6-14.2-11.7-23.9-13.7-7.2-1.5-14.7-1.1-21.6-3-12.8-3.6-22.7.6-31.8 9-3.2 2.9-6.7 5.6-9.3 9-4 5.1-8.3 5.8-13.7 2.9-5.3-2.9-11.2-4.1-17.1-5-2.2-.3-4.1-.7-4.8 1.8-.6 2.6 1.6 3.3 3.4 4 1.6.6 3.3.8 4.7 1.6 12.7 6.6 27.8 10.1 33.7 25.6.6 1.6 1.9 2.8 3.8 2.5 1.9-.3 2.5-2.1 3-3.6 3-7.3-.2-12.8-5.7-17.3zm126.6-67.3c7.7.3 14.9-2.2 21.8-5.5 3.2-1.5 6.1-3.9 6.1-7.3-.2-11.2-.3-22.5-7.7-32.2-11-14.5-26.3-20.5-43.5-23-5-.7-9.6.5-12.7 4.1-4.6 5.2-9.6 10.1-13 16.3-.6 1.2-1.6 2.2-2 3.4-.6 2-.2 4 1.7 5.3 2.2 1.6 3.5 0 4.9-1.6 4.4-4.9 9.1-9.7 13.3-14.8 3.4-4.1 6.9-5.7 11.9-2.9 4.6 2.6 9.3 5.1 14.3 7 10 4 15.7 11.8 19.8 21.2 5.9 13.4 2.9 18.8-11.8 19.8-6.9.5-14 1-20.8-1.1-3.5-1.1-6.9-1.4-7.6 3.4-.7 4.8 2.9 5.2 6.4 5.6 6.3.8 12.5 1.5 18.9 2.3zm72.8 33.9c0-12.7-.5-13.4-11.4-17.6-8.1-3.1-16.6-4.6-25.1-6.1-5.1-.9-10.4 0-14.4 2.9-11.7 8.3-23.9 15.9-33.2 27.1-1.3 1.5-2.3 3.3-3.2 5-1.3 2.5-.1 4.8 1.7 6.1 2.3 1.6 3.5-.8 4.7-2.2 4.4-5.5 8.8-10.8 14.2-15.4 13.1-11.3 27.8-16.4 45.1-11.7 11.9 3.3 15.3 8.7 12.5 20.5-.2.6-.5 1.2-.7 1.9-.7 2.4-1.2 4.8 2.1 5.5 2.6.6 4.3-.6 5.4-3.2 1.7-4.4 2.8-8.9 2.3-12.8z"/><path fill="#938B87" d="M2614.5 519.3c18.4 1 30.6 7.7 40.7 18.6 2.3 2.6 4.1 7.6 8.2 5.5 4.9-2.5.7-6.8-.7-9.4-1.9-3.7-1.3-5.7 1.5-8.5 5.9-6 12.3-11.3 19.1-16 5.9-4.2 12.3-7.9 20.3-6.9 2.9.4 6-.1 8.9-.5 6.5-.9 12.3.4 18.2 3.6 12.3 6.6 25.7 10.9 37.3 19 5.7 4 11.3 8.2 17 12.1 3.9 2.6 4.6 6.5 4.3 10.5-.7 11.6-4.5 21.9-13.6 29.9-5.5 4.8-10.4 10.3-15.6 15.4-4.9 4.7-10.1 8.1-17.6 7.8-5.1-.2-10.4 1.8-15.5 3.2-7.9 2.2-15.5 2.4-23.4-.5-6.2-2.3-12.6-4-19-5.7-5.3-1.5-7.5-4.5-7.1-10.2.3-3.5 2.2-8.7-4.3-9.1-5.8-.4-5.5 4.2-6.5 8.1-2 8-3.9 16.1-7.7 23.6-3.3 6.5-7 11.4-15.7 11.3-5.9-.1-11.8 1.3-17.7-.4-2-.6-3.8.1-5.6 1.4-11.6 8.7-24.7 9.1-37.7 5.2-12.7-3.8-24.7-9.8-35.4-17.9-7.3-5.6-8.9-8.1-5.8-16.9 7-19.8 14.7-39.2 31.6-53.3 7.3-6.1 15.6-10 24.4-13.1 6.8-2.5 12.7-8 17.4-6.8z"/><path fill="#928A86" d="M2320.7 411.8c13.2.6 26.5.7 38.1 8.5 1.7 1.2 3.7 2.3 5.3.4 2.5-2.7-.2-4-1.9-5.5-.5-.4-.9-1-1.3-1.5-2.4-2.8-8.1-3.2-6.9-8.6 1.5-6.3 1.7-13.2 8.9-16.7 15.2-7.6 30.4-15 46.8-19.4 2.5-.7 5.4-.9 7.9-.2 14.3 4 27.1 10.6 37.8 21.1 2 2 2.3 3.9.6 6.2-2.4 3.2-4.9 6.3-7.1 9.6-4.8 7-4.7 8.5.6 14.9 1.3 1.5 2.8 2.9 4.2 4.3 3 3 2.5 5.7-.3 8.6-4.4 4.6-8.9 8.8-15.2 10.9-5.1 1.7-9.5 4.1-12.2 9.4-3.2 6.3-9.9 5.8-15.8 6-2.3.1-4.5-1-6.8-1.2-3.9-.3-5.6-1.6-6-6-.9-10.5-8.9-15.6-17.1-20.1-2.1-1.2-4.8-1.2-6.4 1-1.7 2.4.1 4.4 1.6 6.2.4.5.9 1 1.5 1.3 9.4 5.5 9.1 13.7 6.2 22.5-2.4 7.3-7.2 13.4-10.8 20.1-.8 1.5-2.4 2.2-4 2.7-10.7 3.6-21.4 7.1-31.9 11.2-11.9 4.7-23.3 3.7-34.7-1.4-10.2-4.6-21.1-7.8-29.8-15.4-6.5-5.7-8.2-9.9-5.5-18.3 3.4-10.7 6.9-21.5 10.9-32 3.1-8 8-14 17.7-15.4 8.5-1.4 16.8-3.8 25.6-3.2zM2759.6 697.6c-6 .7-11.5-.4-17-1.6-13.1-3-26.6-4.9-39.5-8.4-20.5-5.5-30.5-24.5-19.7-43 9.8-16.8 25.7-24.1 42.6-30.6 9.1-3.5 17.6-2.5 25.7 2.3 5.6 3.3 12 3.6 17.9 5.5 8.5 2.7 17 5.3 24.8 9.7 11 6.1 16.7 15.7 14.4 25.8-1.8 8.1-4.5 16.3-10.4 22.3-10.6 10.9-22.5 19.8-38.8 18zM2810.7 550.1c-2.7-.1-5.3-.7-7.9-1.2-3.4-.6-6.1-.8-5.7-5.7.6-6.9-4-11.7-8.4-16.2-16.5-16.6-36.9-26.6-58.5-34.7-5.4-2-5.8-2.5-3-7.7 1.8-3.5 3.8-7.4 6.7-9.8 13.6-11.6 26.8-23.8 44.5-29.3 9.3-2.9 17.3-2.4 24.8 4.8 6.9 6.7 14.8 12.3 22.1 18.6 2.8 2.4 5.7 4.6 9.1 6 6.3 2.4 11.7 6.3 17.4 9.7 5.5 3.3 7.8 7.9 7.3 14.2-1 12.4-5.3 24.1-10.2 35.2-3.2 7.2-9.2 12.7-18.5 13.1-6.7.1-13.2 1.9-19.7 3zM2575.5 341.5c.1 5.6-1.9 9.3-5.6 12-2.4 1.7-5.1 3.1-7.7 4.6-7.3 4.3-7.5 4.5-13.6-1.1s-13.3-7.5-21.2-6.3c-11.5 1.6-22.9 3.8-34.4 5.4-4.2.6-7.4 2.9-10.7 5.1-3.2 2.1-5.2 1.4-7.2-1.9-5.3-8.7-7.8-18.3-9.4-28.2-.6-3.8.1-7.7 3.5-9.8 5.9-3.7 10.7-8.9 17.3-11.7 5.2-2.2 10-5.1 14.9-8.1 13.5-8.2 28.4-8.5 43.5-7.5 5.6.4 8.3 5.3 11.6 8.8 10.6 11.1 17.5 24.1 19 38.7z"/><path fill="#666" d="M2464.5 441.7l-2.1 1.8c-.3-.5-.8-.9-.8-1.4.1-1 .7-1.9 1.8-1.8.4 0 .7.8 1.1 1.4z"/><path fill="#F7F7F7" d="M1271.4 1137.5c-.7 2.3 0 5.8-3.4 6-1.6.1-2.3-2.1-2.3-3.8 0-2.5 1-4.5 3.7-4.9 1.8-.2 1.5 1.6 2 2.7z"/><path fill="#FEFEFE" d="M1273.5 1154.7l.7-.7c.2.4.5.9.6 1.3 0 .2-.4.4-.6.7-.2-.4-.5-.8-.7-1.3z"/><path fill="#090909" d="M2558.2 453.5c5.5 4.5 8.7 9.9 5.9 17.3-.6 1.5-1.1 3.3-3 3.6-1.9.3-3.2-.9-3.8-2.5-5.9-15.5-21-19-33.7-25.6-1.5-.8-3.2-1-4.7-1.6-1.9-.7-4.1-1.4-3.4-4 .6-2.6 2.6-2.2 4.8-1.8 5.9 1 11.8 2.2 17.1 5 5.5 2.9 9.8 2.2 13.7-2.9 2.6-3.4 6.2-6 9.3-9 9.1-8.4 18.9-12.5 31.8-9 6.9 1.9 14.4 1.5 21.6 3 9.6 2 17.2 7.1 23.9 13.7 6.4 6.3 12.6 12.7 19.6 18.4 6.5 5.3 6.6 6.9 3.5 14.5-1.3 3.1-2.3 6.2-3.9 9.2-1.4 2.6-3.1 5.1-5 7.4-1.1 1.4-3.1 1.3-4.6.4-1.9-1.1-1.3-2.8-.2-4.2 3.4-4.8 4.7-10.2 4.5-16-.1-2.3.2-5.1-1.7-6.6-8.4-7.1-14-16.9-23.5-22.8-25-15.3-50-11.4-68.2 13.5zM2684.8 386.2c-6.4-.7-12.6-1.5-18.9-2.2-3.5-.4-7.1-.8-6.4-5.6.7-4.7 4-4.5 7.6-3.4 6.8 2.1 13.9 1.6 20.8 1.1 14.7-1.1 17.7-6.4 11.8-19.8-4.1-9.4-9.8-17.2-19.8-21.2-4.9-1.9-9.6-4.5-14.3-7-5-2.8-8.5-1.2-11.9 2.9-4.2 5.1-8.9 9.8-13.3 14.8-1.4 1.6-2.7 3.2-4.9 1.6-1.8-1.3-2.3-3.3-1.7-5.3.4-1.2 1.4-2.2 2-3.4 3.3-6.2 8.4-11.1 13-16.3 3.1-3.6 7.8-4.8 12.7-4.1 17.2 2.5 32.5 8.5 43.5 23 7.4 9.7 7.4 21 7.7 32.2.1 3.5-2.9 5.8-6.1 7.3-6.9 3.2-14 5.7-21.8 5.4zM2569.3 374.1c-1-3.7 1.4-5.8 4.1-7.1 6.5-3.2 13.1-6.3 20-8.7 4-1.4 8.5-.7 12.8.1 15 3 27.8 10.5 39.6 19.8 8.4 6.7 11.9 16.6 13.6 26.9.8 4.7 2.7 9.6 0 14.5-1.5 2.9-3.4 5.2-6.6 5.4-3.6.2-3.2-3.5-4.5-5.6-2.3-3.7-1.6-7.8-1.4-11.7.5-15.5-5.7-26.7-20.5-32.7-4.9-2-9.6-4.5-14.5-6.5-8.7-3.7-17.2-4-25.8 1-5.2 3-10.8 4.8-17 4.5.1-.1.2.1.2.1zM2757.6 420.1c.5 4-.6 8.4-2.4 12.8-1.1 2.6-2.7 3.8-5.4 3.2-3.3-.7-2.8-3.1-2.1-5.5.2-.6.6-1.2.7-1.9 2.8-11.8-.6-17.3-12.5-20.5-17.3-4.7-32 .4-45.1 11.7-5.3 4.6-9.8 9.9-14.2 15.4-1.2 1.5-2.4 3.9-4.7 2.2-1.9-1.3-3-3.6-1.7-6.1.9-1.8 1.9-3.5 3.2-5 9.3-11.2 21.5-18.8 33.2-27.1 4-2.9 9.3-3.7 14.4-2.9 8.5 1.5 17 3 25.1 6.1 11 4.2 11.5 4.9 11.5 17.6z"/></svg>