<svg viewBox="0 0 2988.4 1782.8" xmlns="http://www.w3.org/2000/svg"><path fill="#FFF" d="M105.6 425.7c16.9-6.8 34.1-12.8 51.3-19.1 33.2-12.2 66.8-23.4 99.4-37 22.8-9.5 45.4-19.8 68.2-29.4 6.4-2.7 12.7-6 19.3-7.8 19.5-5.2 32.4-18.8 44.1-33.9 8.6-11 13.2-23.8 15.9-37.2 1.4-6.6 1.6-13.8-2-20.4-3.3-6-3.9-6.1-10-3.8-27.4 10-53.7 22.6-80.4 34.1-18.3 7.9-37.3 13.7-55.8 21.1-19.7 7.9-39.7 15.1-59.2 23.3-27.8 11.6-56.3 21.2-84.1 32.6-26.6 10.9-54.2 19.6-79.9 32.7-3.2 1.6-5.1.6-6.7-1.7-5.9 5.6-8.4 13-8.4 22 .9-1.3 2.8-1.9 4.3-2.6 5.5-2.3 11.1-4.2 16.7-6.4 25.1-9.6 49.2-21.6 74.6-30.4 17.8-6.2 35.8-11.9 53.4-18.4 18.6-6.9 36.9-14.6 55.4-21.7 31.6-12 62.6-25.6 93.7-38.7 18.3-7.7 36.8-14.9 54.9-23 2.2-1 4.4-1.9 5.7 1.3-.4 1.3-1.3 2.2-2.3 3-3.2 2.5-7.1 3.5-10.8 5.1-21.3 9.1-42.5 18.7-63.9 27.5-30.5 12.6-60.9 25.4-92 36.6-10.5 3.8-20.4 9.2-31.1 12.8-11.6 3.9-22.8 8.9-34.5 12.3-22.4 6.5-43.3 16.6-64.9 25-14.8 5.7-29 12.7-44.1 17.5-2.8.9-4.7 3.6-7.8 4.2-2.6.5-5.6 2.2-7.2-.5-4.5 6.6-5.4 11.6-5.7 20.4 0 1 .4 1.9.6 1.9 0-1.3.8-2.4 2.3-3.1 8.7-3.9 17.7-7.4 26.2-11.8 25.3-13.1 52.4-22.2 78.6-33.2 25-10.5 50.7-19.3 75.9-29.3 21.5-8.5 42.8-17.7 64.3-26.2 13.8-5.5 27.8-10.7 41.4-16.7 19.7-8.7 40.2-15.3 59.3-25.3 1.8-.9 3.6-1.7 5.6-1.6 2 .1 2.9 1.3 3.1 3.3 0 2-1.4 2.6-3.1 3.2-29.3 10.3-57.2 24-86.3 35.1-20.6 7.8-40.8 17.1-61.3 25.5-28.6 11.7-57.5 22.9-86.4 34-34 13-67.4 27.4-100.1 43.3-4.8 2.3-9.8 4-14.7 6-1 .4-2.8 0-3.6-.4-2.8 3.6-2.1 8.4-2.3 12.4.9-.8 2.1-1.4 3.4-1.9 12.5-5.2 24.9-10.7 37.5-15.6 23.4-9.2 46-20.3 70-28.3 11.6-3.8 23.1-8 34.6-12.3 13-4.8 25.9-10.1 39-14.8 38-13.6 74.9-30 112.6-44.4 14.7-5.7 29.9-10.4 43.9-17.9 1.8-.9 3.6-1.8 5.5-2.4 2.1-.6 3 .7 3.2 2.7-.1 1.8-1 2.5-2.7 3.5-10.8 5.9-22.6 9.1-33.9 13.7-21.4 8.6-42.8 17.4-64.2 26-22.6 9.1-45.5 17.6-68.1 26.7-26.7 10.7-54 19.8-80.8 30.3-31.7 12.5-62.6 26.8-94 40-2.5 1.1-5.3 2.5-6.7-.6v-.1c-5.7 4.6-5.7 11-6.4 17.8 5.9-3.7 12.8-4.8 19.2-7.3 27.3-10.4 54.9-20.8 82.3-31.7z"/><path fill="#4BE308" d="M653.3 709.4c-12.8-21.7-23.7-44.6-35.3-67-1.7-3.4-3.2-4.3-6.8-2.3-9.8 5.6-19.7 10.9-30.2 15.4-14.1 6-28.7 11.2-43.5 13.8-14.2 2.6-28.9 3.9-43.6 3.6-18.2-.4-26.9-12-33.7-26.4-.7-1.5-.9-3.2-1.7-4.6-3.1-5.1-2.4-8.9 2.2-13 4.1-3.7 7-8.8 10.4-13.3-.1-1.4-.2-2.8-.4-4.3-16.7-6.2-28.6-17.7-35.8-33.9-1.3-3-2-6.4-3.6-9.3-3-5.6-3.8-11.4-1.4-17.3 4.9-12 4.9-23.5-2.7-34.5-2-3-3.3-6.5-4.5-10-.8-2.4-2.1-5.3-.2-7.7 2-2.5 3.5-4.3.1-7.1-1.8-1.4-.8-4.1 1.3-4.8 6-2.2 3.7-5.4 2-9.3-4.9-11.3-11.9-21.5-17.6-32.4-9-17-16.3-34.9-27-51-8.5-12.8-14-27.1-22-40.2-1.7-2.8-5.4-6.6-.2-9.2 4.5-2.2 6.3 1.9 7.9 5.3 8.4 18.4 19.2 35.7 28 53.8 11.4 23.2 24.5 45.6 35.9 68.8 1.2 2.4 2.7 4.6 3.9 6.9 1.7 3.3 4.6 3.8 7.7 3 10.6-2.8 21.1-5.6 30.6-11.5 3.4-2.1 4.7-4.7 5.9-8.4 5.8-17.9 9.7-36.6 19.6-53 1.2-2 1.1-3.4-.1-5.4-27.7-46.9-51.8-95.8-77.7-143.8-1.3-2.3-2.2-4.8-3.4-7.2-2.4-5.2-1.8-9.6 3.5-12.8-5.3-8.9-13.6-12-23.5-11.7 12.8 10.9 16.3 23.7 11 40-5.9 18.2-14.2 35-27.9 48.6-9.2 9.2-20.1 15.5-32.5 19.6-16.7 5.5-32.9 12.5-49 19.5-19.7 8.6-38.8 18.7-59 26.3-16.5 6.2-33.3 11.2-49.8 17.3-13 4.9-25.6 10.7-38.6 15.6-39.1 14.8-78 30.2-116.9 45.4-4.6 1.8-9.3 3.6-13.9 5.6-5 2.1-5.6 3.4-2.6 8.2 8.5 13.9 16.9 27.9 25.7 41.6 12.6 19.5 24.6 39.5 36.4 59.5 29.2 49.2 55.9 99.8 82.4 150.5C175.3 750.4 189 774 202 798c8.9 16.4 17.1 33.1 26 49.4 10.8 19.8 22 39.4 33 59.2 2.7 4.9 5.3 10 7.8 15 1.7 3.5 3.5 4.7 7.8 3.3 25-7.9 50.1-15.5 75.2-23.1 25.7-7.8 51.4-15.6 77.1-23.3 35.6-10.6 71.7-19.9 106.8-32 24.7-8.6 50.3-15 74-26.6 13.2-6.5 23.4-16 31-28.3 8.1-13 14.5-27 17.2-42 2.4-13.4 3.3-26.8-4.6-40.2zm-230.5-391c4.8 1.7 9 4.1 12.3 8.1 8.4 10 11.7 22.1 13.2 29.3 2 20.8-13.2 25.2-23 19.9-16.8-9.1-24.2-23.9-24.6-42.6-.2-13.3 11.7-18.4 22.1-14.7zm.7 324.7c3.8-2.5 8.1-3.8 7.8-9.8-.1-2 4.9-1.9 5.2.6.8 7.8 7.1 11.7 11.5 16.8 9.6 11 13.7 24.2 15.7 38.1.5 3.8-.7 7.8-1.4 11.7-.4 2.5-2.1 3.8-4.8 4.4-3.9.9-8.3.7-10.5 5.7-.9 2-4.4.6-4.1-1.6 1.9-10.8-5.9-16.9-11.2-24.3-6.9-9.7-10.4-20.7-11.5-32 .1-3.9.4-7.7 3.3-9.6zm-34.6 7.9c2.9-1.8 4.7.6 6.9 2.1 3.7 2.6 5.2 6.8 7.7 10.3 8.7 11.8 17.1 23.7 25.5 35.7 2.1 3 3.6 6.3 5.3 9.6.7 1.3.3 2.8-.9 3.5-1.2.7-2.8.6-3.6-.5-1.4-1.8-2.6-3.8-3.8-5.8-6.7-11.6-15-21.9-22.9-32.6-.7-1-1.9-1.7-4.6-4.2.3 13.4 3.2 24.1 7.1 34.7 1.4 3.7 2.6 7.5 3.9 11.3.5 1.4.1 2.6-1.2 3.4-1.5.8-2.4-.3-3.5-1.1-2.1-1.5-2.4-3.9-3-6.1-4.6-18-9.2-36-13.9-53.9-.4-2.3-1.5-4.8 1-6.4zm-39.5 24.7c4.1-4.3 8.7-8.1 14.1-10.6 3-1.4 5.5.8 7.8 3.1 5.8 5.7 9.1 13.2 12.7 20.1 4.8 9 8.1 18.9 11.8 28.5.8 2.1.6 4.6.9 7.6.3 1.9-.5 3.7-2.8 5.1-5.6 3.4-12 3.5-18 5.1-1 .3-2.1-.3-2.1-1.4 0-.9.3-2.1.9-2.7 2.6-2.8 6.3-3.3 9.8-4.3 6.6-2 7-2.7 4.8-9.1-1.4-4.4-3.1-8.8-4.9-13-2.7-6.5-3-6.4-9.3-2.7-.3.2-.5.4-.8.6-1.6.9-3.2 3.5-5 1.4-2.1-2.3-.9-4.9 1.3-6.9s6.1-2.8 6.5-5.8c.5-3.7-2.8-6.4-4.4-9.6-.9-1.8-2-3.4-3.2-5-2.3-3.2-4.8-4.2-8.3-1.4-2.6 2-5.6 3.5-8.4 5.2-1 .6-1.9.1-2.7-.5-1.4-1.2-1.7-2.7-.7-3.7zm-20.6 6.7c8.4-2.2 11.7-2.3 14.8 3.2 3.8 6.6 7.1 13.5 9.8 20.6 3.3 8.6 5.9 17.5 8.7 26.3.5 1.6.7 3.2 1.1 4.8.5 1.8.2 3.4-1.7 4-2.1.6-2.9-1-3.4-2.6-1.9-5.6-3.9-11.3-5.5-17-2.3-8.3-5.5-16.3-9.5-23.8-5.6-10.4-7-10.8-17.8-6.2-.6.2-1.3.2-2.6.4-1.5-6.2 1-8.4 6.1-9.7zm-31.9 16.4c3.3-4 7.5-5.2 12.4-4.4 2.4.4 4.9 1.1 4.4 4.1-.4 2.5-2.2 4.2-4.9 4.1-2.2-.1-4.6-2.1-6 .9-1.4 3.1 0 5.9 1.9 8.3 3.8 4.7 8.5 8.2 14.4 10.1 12.2 4 16.7 13.2 17.5 25.1.4 6.2-2.6 10.9-7.2 11.4-5.7.6-7.3-3.4-8.4-8.2 3.4-2.2 5.7 1.9 8.3 0 .9-12.4-1.7-17.4-12.6-21.4-9-3.2-15.3-9.2-20.1-17-2.6-4.1-3.2-8.7.3-13zm-24.7 88.9c-4.5 3.6-11.9 3.8-16.7.2-5.1-3.8-7.9-8.8-7.8-15.3.1-7.4 1-14.5 6.1-21.4-11.1-4.4-20-10.6-28.3-17.7-1.8-1.5-3.5-3-5.1-4.6-2.5-2.4-3.5-5.3-.4-7.6 3-2.2 4.7-.5 6.8 2.6 7.1 10.3 17 16.8 30.8 19.3-1.3-7-5.3-11-8-15.7-1.3-2.3-3.7-4-3.7-6.9 0-1.5-.2-3.5 2-4 1.5-.4 2.7.4 3.4 1.5 2.3 3.6 4.5 7.4 6.6 11.1 8 13.8 12.5 29 18 43.9 2.7 7.1 1.7 10.3-3.7 14.6zm15.4-13.6c-1.1-1.8-.3-3.1 1.3-4.1 3.2-1.9 6.7-3 10.2-3.7 4-.7 4.6-2.8 3.6-6.4-1.8-6.4-1.9-14.8-6.9-18.2-5.4-3.7-10.5 4.1-16.1 6-.6.2-1.2.1-2.3.2-1.8-5 1.5-6.7 4.1-8.5 2.7-1.9 5.5-3.7 8.5-5.2 2-1 2.3-2.6 1.5-4-3.8-6.6-6.1-14-10.7-20.2-2.4-3.2-5.1-5.2-9-1.7-1.2 1.1-2.9 1.7-4.4 2.2-1.3.4-2.7 0-3.5-1.2-.9-1.3-.4-2.4.8-3.4 2.6-2.1 5-4.5 7.8-6.2 4.7-2.9 7.7-2.2 11 2.4 3.7 5.1 7.3 10.2 9.5 16.3 5.5 14.9 14.2 28.6 16.3 44.7.9 7 0 8.7-6.7 10.7-3.8 1.1-8 .2-11.8 1.8-1.3.6-2.4-.2-3.2-1.5zm65.4 95.5c-7.2 3.4-13.9 8.1-22.4 7.2-1.6-.2-3.6.1-3.9-2.1-.3-2.4 1.3-4.1 3.3-4.2 5.9-.3 10.8-3 16-5.1 4.3-1.7 5.6-4.1 3.9-8.4-2.6-6.5-5-13-7.6-20-5.9 2.1-10.7 4.5-15.1 7.4-1.7 1.1-3.3 2.2-5.4 2.5-1.9.2-3.3-.2-4.1-1.9-1.2-2.5.5-3.5 2.4-4.5 4.7-2.4 9.3-5.2 14.1-7.3 3.8-1.7 5.3-4.1 3.6-7.8-3.5-7.2-6.2-14.7-10.3-21.6-1.9-3.2-4.2-4-7.5-2.9-7.5 2.6-15.5 4-21.5 9.8-1.4 1.3-3.3 3.1-5.1 1.1-2.1-2.2-.3-4.3 1.4-6 4.6-4.4 9.8-7.9 16-9.7 17.5-5.1 17.7-4.8 25.6 11.6 8.1 16.8 14 34.4 20.6 51.8 1.8 5.2.9 7.8-4 10.1zm60.5-31.4c-4.3-.1-8.1-2.1-10.9-4.5-9.2-7.9-20.5-12.1-30.5-18.7-3.3-2.2-6.6-4.3-10.7-7.1-1.2 4.9.8 7.8 2.1 10.7 4.6 9.5 6.8 20.2 13.2 28.9.8 1.1 1.3 2.3 1.6 3.6.5 2 .5 4.1-2 4.8-1.9.6-3.1-.4-3.9-2.2-2.8-6.4-5.8-12.7-8.5-19.1-4-9.5-7.9-19-11.7-28.5-1.7-4.3-4.8-7.8-7.7-11.9 3.9-3.7 7.1-1.5 9.8.7 10.6 8.6 22.8 14.8 34.3 21.9 5.3 3.3 11.1 5.5 15.7 9.3 3.3-2 2.2-3.9 1.5-5.7-6.6-16.3-14.8-31.8-23.7-47-.2-.3-.4-.5-.6-.8-2-2.4-1.3-4.3 1.1-5.7 2.2-1.2 4-.1 5 1.8 3.9 7.7 7.9 15.3 11.4 23.2 5.4 12.1 10.9 24.1 17.1 35.8.6 1.2 1.5 2.2 2.1 3.4 2.7 5.4 1.4 7.2-4.7 7.1zm29.1-7.9c-1.6.2-2.5-.9-3-2.1-1.9-4.2-3.8-8.5-5.6-12.8-7.6-18.4-16.4-36.3-27.5-52.9-1.7-2.5-2.8-4.7 1.1-6.1 2.9-.2 4.4 1.6 5.5 3.7 10.9 20.9 22.2 41.5 30.8 63.5.4.9.7 1.9.7 2.9.1 1.6.3 3.5-2 3.8zm75.1-25.5c-3.5-.3-6.1-2.3-8.8-4.3-10.4-8-22.2-14-32.7-23-2.7 5.4-1.8 9.7-1.8 13.9l.3 26.9c0 1.9.3 4.2-1.8 5.3-2.5 1.3-4.5-.1-6.4-1.5-1.9-1.4-3-3.5-4-5.6-5.9-11.9-12.2-23.6-17.7-35.7-3.9-8.5-9.7-15.9-13.9-24.2-.6-1.2-1.8-2.1-2.2-3.3-.6-2-3.1-4.4-.4-6.2 2.8-1.9 5.2 0 6.4 2.6 7.5 15.5 17.7 29.6 24.3 45.6 2 4.9 4.7 9.4 9.6 15.4v-37.1c0-2.7.1-5.6 3-6.8 2.6-1.1 4.2 1 6 2.5 8.5 7 16.8 14.1 26.5 19.4 1.7.9 3.4 2 5.4 3.1.3-1.3.9-2.4.6-3.1-8.5-18-15.6-36.7-28.4-52.3-1.9-2.3-5.2-4.8-1.9-7.4 3.2-2.6 5.5 1.2 7.1 3.3 3.4 4.5 6.5 9.2 9.2 14.2 8.8 16.4 17 33 23.9 50.3.5 1.2.7 2.6 1.1 3.8.9 3.2-.1 4.5-3.4 4.2zm93.3 8.7c-2.3.9-3.5-1.3-4.5-3-3.7-6.3-7.4-12.6-10.9-19-10.9-20.1-23.2-39.5-34.7-59.2-7-12-12.2-25-20.2-36.5-1.3-1.9-2.4-4.1-2.3-6.5.1-1.5.9-2.4 2.4-2.7 1.4-.1 2.7.3 3.5 1.5 3.2 5.4 7.8 9.8 10.4 15.7 8.4 19.3 19.3 37.2 30.2 55.1 9 14.7 16 30.6 25.7 44.9.9 1.3 1.4 3 1.8 4.6.4 1.8 1 4.2-1.4 5.1z"/><path fill="#0C0C0C" d="M2978.5 714.7c-4.3-.5-8.7-.3-12.9-.8-4.7-.6-5.7-2.3-3.8-6.8 3-7.4 5.4-14.9 7.5-22.5 1.5-5.5 0-7.4-4.8-8.4-2.2-.5-4.3-.9-6.8-.5-5.5.7-11.1 1.4-16.7-.6 1.3-6.2 2.5-11.9 5.7-17.2 2.9-4.9 2.3-4.3-3.2-7.3-5.4-3-10.3.3-15.4-.5-23.2-3.5-46.2-8.7-68.8-14.8-17.8-4.8-35.6-9.8-53.4-14.8-21.3-6-42.2-13.5-63.1-20.9-22.4-8-44.6-16.9-67.2-24.5-20.4-6.9-41-13-60-23.4-4.6-2.5-9.7-4.1-14.7-6-4.2-1.6-5.6-.5-5.9 4.4-.6 8.8-2.1 17.7-3.9 26.3-4.5 21.7-11.6 42.8-18.1 64-8.2 26.9-16.6 53.7-26.8 79.9-4.1 10.5-8.1 21-12.4 31.4-2.7 6.5-3.1 6.7-9.2 2.7-6.7-4.3-13-9.2-20.3-12.5-7.9-3.5-14.9-8.8-23.5-10.4-3.6-.7-7.3-1.8-10.8 2.2-11.8 13.8-25 26.2-39.2 37.6-10.7 8.6-22.1 16.2-36.2 17.3-11.2.9-22.2 1.3-33.6.4-29.3-2.4-57.8-7.4-84.6-20.1-10.5-5-13.3-7.4-11.5-18.6 3.1-18.2.4-36.5 1.4-54.7 1.1-19.5-.2-39.1-1.8-58.5-.8-10.6-1.4-21.2-2.7-31.7-3.1-24.6-6.6-49.1-11.5-73.4-5.1-25.1-11.9-49.6-20.4-73.7-9-25.3-19.5-50-31.2-74.2-14.8-31-32.6-59.9-54.3-86.4-10-12.2-20.2-23.8-25.1-39.8-4-13.1-12.4-24.6-20.8-36-22.6-30.9-49.3-57.2-82.2-76.7-22.1-13-46-22.1-71.4-26.5-3-.5-5.8-1-8.3-2.8-23.3-16.8-48.9-29.3-75-40.7-17-7.4-34.3-14-51.5-20.8-10.5-4.1-21-8.6-31.9-11.4-29.7-7.7-59.2-16.4-89.3-22.7-25.9-5.4-51.7-11.2-78-14.1-23.3-2.6-46.8-4.8-70.2-5.9-23.8-1.2-47.6.6-71.4.9-14.8.2-29.4 2.1-44 3.4-18.1 1.5-36.2 3.3-54.2 5.6-10.1 1.3-20 4.6-30.2 5.7-25.5 2.6-50.4 7.6-75 14.4-17.2 4.7-34.7 8.1-51.6 13.7-34.3 11.4-67.3 25.5-99.2 42.5-20 10.6-38.1 23.7-55.4 38.1-2.6 2.2-4.7 4.1-8.7 3.7-17.8-1.8-35.7-2.8-53.5-4.8-10.1-1.1-20.3-1.3-30.3-.5-11.2 1-22.4 2-33.5 3.3-16.2 1.8-32.1 4.4-47.8 8.5-19.1 5.1-38.4 9.4-56.9 16.4-21.7 8.1-43.7 15.4-64.2 26.5-16.6 9-32.2 19.6-48.3 29.3-26.7 16.1-49.4 36.8-70.6 59.2-13.5 14.3-25.8 29.6-35.7 46.6-8.1 14-14.9 28.9-21.8 43.6-1.3 2.8-2.5 4-5.6 4.4-15.8 2.1-30.9 6.5-45.3 13.7-11.7 5.8-23.9 10.7-32.5 20.5-2.5-1-3-2.7-3.7-4.2-12.4-25.3-26-50-39.8-74.5-13.6-24.3-27.5-48.4-38.7-73.9-.4-.8-1.3-1.4-2-2.1-5.3 3.1-5.9 7.6-3.5 12.8 1.1 2.4 2.1 4.9 3.4 7.2 25.9 47.9 49.9 96.8 77.7 143.8 1.2 2 1.3 3.4.1 5.4-9.9 16.4-13.8 35.1-19.6 53-1.2 3.8-2.5 6.3-5.9 8.4-9.5 5.9-20 8.7-30.6 11.5-3.1.8-5.9.3-7.7-3-1.2-2.3-2.8-4.5-3.9-6.9-11.4-23.2-24.5-45.5-35.9-68.8-8.9-18.1-19.6-35.4-28-53.8-1.6-3.4-3.4-7.5-7.9-5.3-5.2 2.6-1.5 6.3.2 9.2 8 13 13.5 27.4 22 40.2 10.7 16.1 18 34 27 51 5.7 10.9 12.7 21.1 17.6 32.4 1.7 4 4 7.1-2 9.3-2.1.8-3.1 3.4-1.3 4.8 3.4 2.8 2 4.5-.1 7.1-1.9 2.3-.6 5.2.2 7.7 1.2 3.4 2.4 7 4.5 10 7.6 11.1 7.6 22.5 2.7 34.5-2.4 5.9-1.6 11.6 1.4 17.3 1.6 2.9 2.2 6.2 3.6 9.3 7.2 16.2 19.1 27.7 35.8 33.9 1 .2 2 .3 2.9.7 1.1.5 2.9.5 2.7 2.1-.3 1.8-2.1.8-3.3 1.1-.6.1-1.3.3-1.9.4-3.4 4.5-6.3 9.6-10.4 13.3-4.6 4.2-5.3 8-2.2 13 .8 1.4 1 3.1 1.7 4.6 6.8 14.4 15.5 26 33.7 26.4 14.7.3 29.5-1.1 43.6-3.6 14.8-2.7 29.4-7.8 43.5-13.8 10.4-4.5 20.4-9.8 30.2-15.4 3.6-2.1 5.1-1.1 6.8 2.3 11.5 22.5 22.4 45.3 35.3 67 7.9 13.3 7 26.7 4.6 40.2-2.7 15-9.1 29-17.2 42-7.7 12.3-17.9 21.8-31 28.3-23.7 11.6-49.3 18.1-74 26.6-35.1 12.2-71.2 21.4-106.8 32-25.7 7.7-51.4 15.5-77.1 23.3-25.1 7.6-50.2 15.1-75.2 23.1-4.3 1.4-6.1.1-7.8-3.3-2.5-5.1-5-10.1-7.8-15-11-19.7-22.2-39.3-33-59.2-8.9-16.3-17.1-33.1-26-49.4-13-24-26.7-47.6-39.3-71.7-26.5-50.7-53.2-101.3-82.4-150.5-11.8-20-23.8-39.9-36.4-59.5-8.9-13.7-17.3-27.6-25.7-41.6-2.9-4.8-2.4-6.1 2.6-8.2 4.6-1.9 9.2-3.8 13.9-5.6 39-15.2 77.8-30.6 116.9-45.4 13-4.9 25.6-10.8 38.6-15.6 16.5-6.2 33.3-11.2 49.8-17.3 20.2-7.6 39.3-17.7 59-26.3 16-7 32.3-14 49-19.5 12.5-4.1 23.3-10.4 32.5-19.6 13.7-13.6 22-30.4 27.9-48.6 5.3-16.3 1.8-29.1-11-40-2.2 0-3.8-1.8-6.5-.8-9 3.3-18.1 6-27.1 9.4-8.4 3.1-16.1 7.5-24.2 11.1-16.6 7.4-34.6 11.2-50.8 19.9-4.8 2.6-9.8 5.9-15.5 6.3-5.8.4-10.9 2.3-16.1 4.6-14.9 6.4-29.8 12.9-45 18.5-24.5 9-48.4 19.4-73 28.1-26.5 9.3-52.1 21.2-78.2 31.8-5.8 2.4-11.7 5-17.8 6.1-6.9 1.3-8.9 8.5-14.8 10.7-1.2.5-5.2 1.6-2.9 4.9.6-.6 1.2-1.1 1.8-1.7-.6.5-1.2 1.1-1.8 1.7 1.6 2.3 3.5 3.3 6.7 1.7 25.7-13.1 53.3-21.7 79.9-32.7 27.8-11.4 56.3-21 84.1-32.6 19.5-8.2 39.5-15.4 59.2-23.3 18.5-7.4 37.5-13.2 55.8-21.1 26.7-11.5 53-24.1 80.4-34.1 6.2-2.3 6.8-2.2 10 3.8 3.6 6.5 3.4 13.8 2 20.4-2.7 13.3-7.3 26.2-15.9 37.2-11.8 15.1-24.6 28.7-44.1 33.9-6.7 1.8-12.9 5.1-19.3 7.8-22.8 9.6-45.3 19.9-68.2 29.4-32.6 13.6-66.2 24.7-99.4 37-17.1 6.3-34.3 12.4-51.3 19.1-27.4 11-54.9 21.4-82.5 31.9-6.4 2.4-13.3 3.6-19.2 7.3-.2 2-.6 4-1.5 5.7.9-1.8 1.3-3.7 1.5-5.7-.4.2-.8.5-1.1.7-3.8 2.7-3.8 5.9.6 6.8 3.1.6 3.7 2.2 4.7 4.1 9 15.5 18.8 30.6 28 45.9 21.7 36.1 43 72.5 63.8 109.1 11.9 21 24.1 41.8 34.6 63.7 10.3 21.4 23.1 41.6 35.2 62.1 9.3 15.7 15.9 32.7 24.9 48.5 9.8 17.3 19.6 34.6 28.7 52.3 12.1 23.6 25.9 46.2 38.9 69.3 4.3 7.5 7.4 9.6 15.1 7.2 13.6-4.1 27.5-7.3 41.2-11 10.8-2.9 21.3-7 31.9-10.7 17.8-6.1 36.4-9.7 54.3-15.8 11.5-3.9 22.7-9.2 34.7-11.6 12-2.4 23.6-6.2 35.3-9.9 7.3-2.3 14.3-5.7 21.7-7 8.8-1.5 17.5-3.7 25.8-6.6 20.3-7.1 40.4-14.5 60.8-21 10.7-3.4 20.9-8.4 31.7-11.4 9.5-2.7 17.2-8 22.5-15.6 11.8-16.9 22.5-34.4 27.5-54.8 5.1-20.7 5-40.6-5.9-59.7-4.4-7.7-8.4-15.8-12-24-5.7-13.2-13.6-25.1-20.1-37.8-2.1-4.1-2.9-6.8 2.1-9.5 10.8-6 19.6-14.5 28.1-23.5 15.7-16.7 30.9-33.7 42.2-53.8 3.7-6.6 7.3-13.4 11.6-19.7 9.1-13.5 19.7-25.8 31.4-37.2 13.6-13.2 27.9-25.4 44-35.5 1.6-1 3.3-2.6 5.6.2-3.8 10.5-7.6 21.4-11.6 32.2-6 16.1-11.4 32.6-15.2 49.3-5.3 23.2-10.5 46.5-16.5 69.5-5.8 22.2-8.9 44.8-11.7 67.3-3 24-6 48.1-4.8 72.5.5 9.8-1.9 19.7-1 29.5 2 22.7.8 45.6 3.8 68.3 1.3 9.5.7 19.4 2.6 28.7 4.6 22.7 7.4 45.6 13 68.2 8.4 34.2 16.2 68.4 31.7 100.3 2.3 4.7 4.7 9.5 6.2 14.5 8.4 27.9 25.9 51.3 37.6 77.6 4.8 10.7 11.2 20.6 18.2 30.2 12.5 17.1 24.1 34.8 36.9 51.7 8.6 11.4 18.5 21.7 27.7 32.6 16.1 19.1 34.3 36.1 53.9 51.3 12.5 9.7 25.5 19 38.9 27.7 6.5 4.2 6.6 5 1 10-16.1 14.3-32.6 28.3-52.3 37.3-21.3 9.7-42.3 20.6-65.4 25.7-12.8 2.8-25.4 7.4-39.1 4.5-6.9-1.5-11.9 2.7-15.8 8.1-5.9 8.2-9.3 17.5-13.3 26.7-11 25.6-19.3 52.2-27.3 78.8-3.5 11.7-6.5 23.5-8.9 35.5-4.8 23.7-8.4 47.5-10.7 71.6-2.1 22 0 43.6 1.4 65.4.3 4.3 2.2 8 7.1 9.8 14 5.2 28.1 10.3 42.8 12.6 16.6 2.7 33.4 4.9 49.9 7.8 19.9 3.5 40.2 3.5 59.9 8.5 1.3.3 2.7.1 4 0 15.2-.8 30.4.2 45.6-1 15.5-1.2 31-3.2 46.4-4.8 6.5-.7 12.8-3.5 19-5.6 4.4-1.5 2.4-6.8 5.4-10 3.7-3.8 5.7-9.7 5.6-15.6-.1-19.3-5.6-36.1-23.1-46.8-7.4-4.5-14-10-20.7-15.4-12.8-10.4-18.3-23.6-17.7-39.9.6-16.8 10.6-28 22.2-38.1 1.9-1.6 4.4-2.6 7.3-2.8 24.8-1.5 49.1-6.1 73.5-10.6 16.7-3.1 32.7-8.6 48.4-14.7 21-8.2 41.7-17.1 61-29 16.1-9.9 31.4-21 47.1-31.6 3.2-2.2 5.9-5.3 8.7-8.1 10.6-10.9 22.1-21.2 30.7-34 2-2.9 4.5-4.1 7.6-3 8.2 2.8 16.7 3.5 25.1 5.1 13 2.5 25.9 5.5 39 6.4 16.9 1.1 33.2 5.9 50.1 6.7 4.4.2 7 2.8 8.3 7.2 3.6 12.4 6.7 25 8.4 37.8 1.9 14.1 4 28.2 5 42.3 1.1 14.9 1.3 29.7-.2 44.7-2.2 21.6-8.2 42.3-13.5 63.1-5.5 21.8-12.5 43.3-22 63.9-6.2 13.7-13.9 26.4-21.2 39.4-2.6 4.5-1.5 7.6.5 10.9 2.1 3.5 5.5 5.4 9.7 6.4 18.6 4.4 37 9.5 56.1 12.3 22.3 3.3 44.6 6.5 67 8.9 13.5 1.4 27.2 1.8 40.7 3.1 20.7 2 41.4 2.7 62.1 3.4 17.9.6 35.8-.9 53.8-1.4 31.9-.8 63.4-5 94.9-9.2 12.4-1.7 24.6-5 35.9-11.1 6.4-3.5 10.9-7.5 11.8-15.7 3.2-27.8.4-55-8.2-81.4-5.6-17.4-14.7-33.4-27.2-47-9.2-10.1-20.2-18.1-32.9-23.5-4.3-1.8-7.4-.9-11.1 1.3-22.7 13.9-47.2 23.9-72.6 31.7-1 .3-2.2 1.4-3.1.1-1-1.4.5-2 1.2-2.8 2.9-4.4 5.7-9 8.7-13.3 8.4-11.9 18.1-23.1 24.9-35.8 10.2-18.9 20.4-38.1 24.1-59.7.9-4.9 1.4-9.8 2.7-14.6 4.5-16.8 5.8-34 6-51.2.2-15.1.2-30.4-4.7-45.1-1.5-4.6-.4-6.4 4.9-8 18-5.4 36.3-9.7 53.8-16.8 38.7-15.6 77.3-31.3 114.1-51.5 30.3-16.6 58.5-36.5 87-55.8 14.7-9.9 26.4-23.2 40-34.3 6.9-5.7 14.3-11.2 19.8-18.2 11.5-14.6 24.3-28 36.5-42 22.8-26 44.2-53.2 62.9-82.2 16.3-25.3 33.1-50.5 45.9-78 2.7-5.8 6.3-7.6 12.4-6.9 11.2 1.3 22.5 1.8 33.8 2.4 17.7.8 35.3.1 52.9-.7 19.8-.9 39.4-5.2 59.3-5.7 4.6-.1 8.9-4 13.7-1-2.3 4.6-6.6 7.5-10.2 10.6-13.2 11.4-23.3 26.5-40.4 33.1-1.9.7-3.4 2.5-3 4.7.4 2.5 2.4 2.6 4.6 2.7 25.6 1.2 50.2 8.2 75.2 12.8 16.2 3 32.1 7.5 47.8 12.6 22.9 7.4 45.5 15.6 67.8 24.6 12.9 5.2 26 10 38.2 16.6 16.3 8.9 32.4 18.1 48.8 26.7 27.4 14.4 54.3 29.2 77.4 50.2.4.3 1.1.3 1.9.4 6-5.3 12-10.8 18.3-16.4 2.5 3.9 4.3 7.1 7.2 9.5 2.8 2.4 4.6 3.1 8.2 0 6.1-5.3 11.2-11.4 16.4-17.4 12.1-13.6 25.2-26.4 36.4-40.9 13.1-17.1 27.3-33.3 40.2-50.5 16-21.2 31.7-42.5 47-64.2 24.6-35.2 47.2-71.4 67.1-109.4 20.9-40 43.3-79.2 59.7-121.4 5.5-14.2 12.3-28 16.5-42.7 1.8-6.4 4.4-12.5 5-19.2 1.2-8.6-1.4-12.3-9.3-13.3zm-808.8 307.9c-10.3 19.2-22.3 37.5-34.1 55.8-7 10.9-12.7 22.6-20.6 32.9-9.6 12.5-18.9 25.2-28.2 37.9-15 20.2-33 37.8-49.4 56.8-13.2 15.1-28.5 28.5-43.9 41.7-24.2 20.6-50.4 38-77.5 54-22.8 13.5-46.3 26.1-70.6 36.7-20.6 9-41 18.6-62.1 26.1-23 8.2-46.2 15.9-70.4 20.3-6.6 1.2-8.1 4.7-6.2 11.1 5.8 19.5 8.8 39.3 8.1 59.8-.7 21.4-5 42.1-10.8 62.4-3.9 13.5-8.5 27.1-15.8 39.5-15.3 25.8-33.7 49.3-53.3 71.9-2.8 3.2-5.9 6.2-9.3 8.9-3.3 2.7-6.7 5.4-4.1 9.8 2.3 3.9 6.6 2.3 10 1.5 5.1-1.3 10.2-2.9 15.2-4.7 18.6-6.7 37.9-11.5 54.6-23.3 10.2-7.2 22.5-11.4 32.8-18.8 2.4-1.7 5-1.6 7.5-.5 3.9 1.8 8.1 3.4 11.5 5.9 23.6 17.1 38.6 40.7 44.8 68.6 3.4 15.1 6.5 31.1 2.8 47.2-1.6 6.7-.7 13.8-2 20.7-1 5.1-3 8-8.5 9.5-26.5 7.5-53.6 11.5-80.9 14.6-41 4.6-82.2 3.9-123.2 2.7-24.7-.7-49.5-2.6-74-7-12-2.1-24.3-3.1-36.4-3.7-10-.5-19.5-3.5-29.5-4.5-16.5-1.6-32.6-5.1-48.5-9.9-2.9-.9-5.7-1.6-8.4-4.6 7.3-11.7 14.9-22.6 21.1-34.3 6.6-12.6 11.2-26.2 16.4-39.5 7.4-19.2 13.5-38.8 18.8-58.5 3.9-14.5 7-29.6 6.8-45-.1-5.9 1.5-11.8 1.8-17.8 1.2-20.7-1.9-41-6.1-61.1-2-9.4-2.1-19-5.1-28.3-2.1-6.6-4.3-13.2-6.5-19.8-2.3-6.7-6.7-9.7-13.1-10-12.6-.6-24.8-3.9-37.4-5-22.1-2.1-43.9-6.5-65.6-11-9.1-1.9-18-3.9-26.9-6.6-3-.9-7-1.9-7.9 3-2.2 11.1-10.9 18-16.9 26.6-9.3 13.3-22.8 22.4-35.8 31.3-25.4 17.5-51.5 34.1-80.4 45.4-19.7 7.7-39.8 14-60.4 19.2-21.7 5.5-43.9 5.5-65.7 9.4-19.9 3.6-40 21.3-43.9 41-3.4 16.9.4 32.1 11.5 45.5 9.9 12 20.1 23.4 33.9 31.6 12.8 7.6 16.2 20.7 15.1 35-.3 3.6-.3 7.3-.8 10.9-1.1 8.4-3.6 10.9-11.8 12.1-28.6 3.9-57.4 5.9-86.3 3.9-16.1-1.1-32.2-2.8-48.4-3.8-8.8-.6-17.4-3.5-26.4-4.3-26.1-2.6-51.4-9-76.7-15.6-13.5-3.5-17.6-9.9-15.4-24 .8-5 1.2-9.9 1-14.8-1.1-23.7 3.9-46.9 7.3-70.1 2.4-16.7 6.3-33 10.3-49.4 7.3-30.4 17.7-59.7 30.5-88.1 4.1-9 7.1-18.5 12.4-27 1.2-1.9 1.7-4.7 4.9-3.9 13.7 3.5 27-.7 40.3-2.8 30.8-4.9 59.4-15.7 86.1-32.1 20-12.3 36.8-28.1 52.5-45.3 1.3-1.5 2.4-3.2 3.3-5 4.4-8.2 4-8.6-3.8-13.6-21-13.3-41.2-27.5-60-44-18.3-16.1-35.1-33.3-51.3-51.2-12-13.2-23.6-26.9-33.1-42.2-9.6-15.5-20.4-30.4-30.6-45.5-6.7-9.9-12.3-20.3-17.5-31.1-8.2-17.4-17-34.5-25.4-51.8-18.4-37.7-31.4-77.3-40.8-118-6.9-30-11.5-60.4-14.8-91.1-2-19.1-1-38.2-2.3-57.3-.4-6-1-11.9-1.5-17.8-1.5-17 3.4-33.7 1.6-50.6 6.3-35.2 6.6-71 13.9-106.2 8.6-41.6 19.9-82.4 33.4-122.6 4.3-12.9 8.6-25.7 14.1-38.1 2.7-6.2 6.3-10 13-12.4 12.1-4.4 23.3-11 36-14 21.7-5.2 43.6-8.4 65.9-8 16.3.3 32.6-1 48.9.7 26.3 2.8 52.7 4.9 77.8 14.3 6.8 2.5 13.1 6.4 19.8 9.4 2.3 1.1 5.1 3.2 7 .1 1.6-2.6 1.4-5.7-.6-8.5-1.4-2-3.2-3.1-5.4-4.1-15.9-6.8-32.2-11.8-49-15.7-20.4-4.7-41.2-5.7-61.9-7.5-19.8-1.7-39.8-1.7-59.7.2-9.1.9-18.2 1.9-27.4 2.5-19 1.3-36 8.7-52.5 17-19.9 9.9-39.6 20.3-57.2 34-16.6 12.8-31.8 26.8-44.7 43.6-13.6 17.7-25.5 36.4-37.2 55.3-12.8 20.8-29.3 38.3-48.6 53.2-9.5 7.3-19 14.2-29.5 20.1-6.4 3.6-13.8 4.6-19.9 8.5-17.1 11-36.6 14.8-56.1 19-4.2.9-8.7.9-12.7 2.4-10.2 3.9-19.5-1.8-29.3-2.2-2.4-.1-3.3-3-4.9-4.6-2.6-2.7-4.6-5.6-6.5-8.8-5.2-9-5.3-9 2.2-16.9 5.9-6.1 6.2-7.3 5-16.6 1.8-1.1 3.8-1 5.8-.5 2.1.5 4.4.5 4.8-2 .4-2.8-.8-5.9-3.7-6.3-19.3-2.6-30.3-16.2-41.5-30-9.2-11.4-10.1-23.5-3.6-35.9 2.6-5 2-8.1-.9-12.5-6.3-9.7-9.8-20.8-13.2-32.8 8.3-1.6 16.9-3.5 25.6-4.7 9-1.2 17.2-4.8 25.4-8.2 6.5-2.7 10.6-7.7 11.6-15 2.1-14.6 6.5-28.5 14-41.2 4.7-8 10-15.6 15.1-23.3 1.7-2.6 4.4-4.1 7.1-5.4 12.8-6.2 25.6-12.5 39.2-16.4 6.9-2 14.5-2.8 21.6-2.3 8 .5 11.9-4.1 14.7-9.7 3.5-7.1 5.6-15 11.2-20.9 3.5-20.4 18-34.9 28-51.7 9.7-16.4 23.1-29.8 37.1-42.7 13.2-12.2 26.7-24 42-33.5 12.7-7.9 26-14.7 38.7-22.4 31.5-18.9 65.7-31.1 101.2-40.1 13.1-3.3 25.9-7.9 39.1-10.6 23.9-4.9 47.9-9.5 72.7-9.6 16.2 0 32.2 1.9 48.4 2.4 21.3.6 42.2 3.8 62.8 8.6 33.6 7.8 66.1 18.9 97.8 32.4 3.6 1.5 6.6 4.3 10.3 5.9 2.4 1 4.1-.3 5.4-1.3 1.9-1.5.2-3.6-.8-5.2-1.2-2-3.2-3.3-5.3-4.4-17.5-10-35.6-18.5-55-24.6-18-5.7-36.3-9.8-54.4-15.3-.9-.3-1.7-.9-3.1-1.7 1.6-3.5 4.2-5.9 7.2-7.8 30.6-20 62.2-38.2 95.6-52.9 13.4-5.9 27.9-9.9 41.9-14.7 19.4-6.6 38.6-13.8 58.6-18.6 22.8-5.5 45.5-11.1 68.8-14.7 16.6-2.6 33.6-1.8 50-6.7 3.7-1.1 7.9-.4 11.9-.6 26.8-1.4 53.5-4.1 80.3-5.1 9.9-.4 19.8-.7 29.7-.7 4.2 0 8.6-.8 12.3 2.5 1.6 1.4 3.9 1.1 5.8.7 13.8-2.8 27.6.4 41.4 0 5.1-.2 9.7 2 14.7 2.3 14.2 1 28.6 1.5 42.5 4.2 19.8 3.9 39.7 7.2 59.2 12.7 14.3 4.1 28.9 6.9 43.1 11.3 23 7.1 46 14.1 68.5 23 29.3 11.6 57.9 24.7 86.1 38.7 4.9 2.5 10.1 4.5 14.5 9.7-20.2.4-39.2 2.2-58 6.1-6.1 1.2-12.5 1.5-18 5-2.7 1.7-5.6 3.8-3.6 7 1.8 2.9 4.8 5.5 9.1 3.5 1.2-.6 2.4-1.1 3.6-1.7 13.4-6.5 27.7-9 42.4-9 15.6-.1 31.2-.9 46.8 1.2 14.2 1.9 27.9 5 41.3 10 10.5 3.9 20.9 7.7 30.8 13.4 19.4 11.1 37 24.3 53.2 39.7 10.1 9.6 20 19.3 27.6 31 9.6 14.6 20.2 28.9 23.3 46.8.4 2.4 1.2 4.4 3.2 5.9 14.5 11.5 23.6 27.5 35.3 41.5 11.8 14.1 20.6 30.1 30.8 45.1 2.2 3.2 3.3 7.2 5.1 10.7 10.2 20.1 20 40.3 28.4 61.2 5.7 14.1 10 28.8 14.8 43.2 6 17.9 10.9 36.2 14.6 54.7 4.1 20.4 7.2 41 9.2 61.8 2.8 29.1 4.9 58.2 4.7 87.5-.2 23.2.3 46.5-.9 69.7-1.4 29.4-2.8 59-9.8 87.7-8 32.8-18.3 65-32 95.9-4.6 10.3-8.4 21-13.5 31-9.9 19.2-18.9 38.8-29.1 57.7zm803-273.7c-6.2 16.8-13 33.2-21.8 48.9-5.8 10.3-10.6 21.3-14.9 32.4-5 12.8-12.3 24.3-18.8 36.2-4.9 9.1-9.1 18.4-13.2 27.9-3.3 7.6-7.2 14.8-11.7 21.9-6.7 10.6-12.8 21.5-18.8 32.5-15.5 28.3-32.9 55.3-51.4 81.6-9.9 14-19.9 28.1-30.7 41.6-12.1 15.2-23.3 31.3-36.2 45.9-19.5 22.1-38 45.2-60.1 64.8-3.1-1.4-3.9-4.6-5.7-6.9-4.8-6.1-5.3-6.4-10.6-1.1-4.9 4.9-9.4 10.3-13.9 15.3-101.5-74.2-210.4-126.7-334.9-138.5-2.1-3.9 0-5.2 1.4-6.3 14.5-11.3 26.3-25.3 38.7-38.7 25.4-27.6 49.8-56.1 73.9-84.8 7.3-8.7 13.3-18.2 19.1-27.8 3.7-6.3 3.3-7.2-4.4-9.2l-.1.1h-.2c.2 6.7-5.8 10-8.9 14.4-20.8 29.9-44.4 57.7-69.3 84.4-4.6 5-9.9 7.7-16.2 8.5-17.4 2.3-34.7 5.4-52.2 6.9-29.8 2.5-59.7 2.3-89.6 1.3-7.9-.3-15.7-1.5-24.6-2.3 14.8-35.4 29.3-70.5 41-106.5 11.7-35.9 18.1-73.1 24.3-110.2 3.9-1.6 6.2 1.7 9.1 2.7 32.4 11.6 65.7 18.2 100 19.1 27 .7 50.7-8.4 70.6-26.8 9.5-8.8 20.3-16 28.6-26.2 5.6-6.8 8.3-6.4 16.4-2.4 8.9 4.4 17.8 8.8 26.3 14.2 10.7 6.8 22.5 11.2 34.7 14.2 6.6 1.6 13.7 1.2 20.6 2.1 9.1 1.1 12 5.9 8.2 14.3-7.2 16-21 23.4-37.5 25.8-10.2 1.5-20.5.1-30.7-1.7-6.7-1.2-8.3-1.2-9.7 5.2-1.5 6.9-4.4 13.3-7.5 19.4-10.7 21.4-27.8 35.2-51.6 39.9-4.8.9-7.2 4.1-10.8 6.6 3.1 3.5 6.1 3.9 9.9 2.1 6-2.7 12.3-4.6 19-4.8v-.2c.1 0 .2.1.3.1 5.4-4.3 11.6-7.2 17.2-11.1 13.9-9.7 25.4-21.3 32.3-36.9 2-4.6 4.3-6 9.5-5.8 12.2.5 24.6 1.2 36.7-2.3 14.8-4.2 34.7-18.5 36-39.1.6-9.6-1.3-13.9-9.8-18.5-9.5-5.1-19.7-7.8-30.4-8.6-7-.6-7.6-1.6-5.2-8 4.2-11.2 8.8-22.2 12.4-33.6 11-34.6 23.8-68.7 32.1-104.1 4.6-19.6 9.7-39.2 13.5-59 6.4.1 11.5 3.3 17 5.5 26.1 10.4 52 21.4 78.6 30.6 13.9 4.8 28 9.6 41.1 16.9 9.9 5.5 21.4 6.5 32.1 10.1 34.6 11.4 69.6 21.6 105.4 28.9 16.2 3.3 32.5 6.6 48.8 9.4 4.7.8 6.7 1.9 4.7 6.8-1.1 2.7-1.4 5.8-2.4 8.6-11.5 31.8-21.1 64.2-32.7 95.9-13.7 37.4-29 74.2-45.8 110.3-20.3 43.5-39.8 87.3-62.5 129.6-20.3 37.7-41.7 74.6-64.7 110.7-3.4 5.3-8.3 9.5-10.5 15.6.4.1.6.4.8.8 5.9-1.8 9.1-6.5 12.2-11.2 20.6-31 40-62.7 57.4-95.6 9-17 18-34 27.4-50.8 10.6-18.8 17.5-39.3 27.3-58.5 15-29.2 27.5-59.7 40.5-89.8 10.5-24.3 19.7-49.2 28.7-74.2 7.7-21.2 14.1-42.8 22-63.9 1.7-4.7 4.1-6.6 9.3-6.4 6.3.2 12.4 1.7 18.8 2-1.7 9.7-5.5 18.2-8.9 26.8-6.6 17-12.1 34.4-17.4 51.9-5.6 18.3-13 36.1-21.9 53.1-14.2 27.1-25.9 55.4-39.3 82.8-3.9 8-8.8 15.7-11.7 24.2.9 1.1 1.8 2.3 2.7 3.4 6.6-9.9 11.7-20.7 16.9-31.3 14.6-29.8 29.1-59.7 43-89.8 8.4-18.3 15.7-37.1 21-56.7 2.2-8.2 5.1-16.1 8.5-24 1.9-4.4 4.3-5.2 8.4-4.3 6.8 1.5 13.5 2.8 20.9 4.3-1.2 6.6-3.7 13-6.1 19.4z"/><path fill="#0C0C0C" d="M2458.4 884.5h.2l.1-.1c-.1 0-.2-.1-.3-.1v.2z"/><path fill="#191919" d="M17.2 401.2c-.5.7-.7 1.7-.2 2.9.1.3.3.6.4.8.3-.5.7-1 1-1.5-.5-.7-.9-1.4-1.2-2.2z"/><path fill="#191919" d="M370.3 260c-18.1 8.1-36.6 15.3-54.9 23-31.1 13.1-62.1 26.7-93.7 38.7-18.6 7-36.8 14.8-55.4 21.7-17.7 6.5-35.6 12.2-53.4 18.4-25.4 8.9-49.5 20.8-74.6 30.4-5.6 2.1-11.2 4.1-16.7 6.4-1.5.6-3.4 1.3-4.3 2.6.3.8.7 1.6 1.2 2.3-.3.5-.7 1-1 1.5 1.6 2.6 4.6 1 7.2.5 3.1-.6 5-3.3 7.8-4.2 15.1-4.7 29.4-11.7 44.1-17.5 21.6-8.4 42.5-18.5 64.9-25 11.7-3.4 22.9-8.4 34.5-12.3 10.7-3.6 20.7-9.1 31.1-12.8 31.1-11.3 61.5-24 92-36.6 21.4-8.9 42.6-18.4 63.9-27.5 3.7-1.6 7.5-2.6 10.8-5.1 1.1-.8 2-1.7 2.3-3-1.4-3.4-3.6-2.5-5.8-1.5zM12.2 427.3c0 .6.1 1.2.5 1.8.3.6.8 1.1 1.4 1.3.1-.3.2-.6.3-1-1.6.1-1.2-1.9-2.2-2.1z"/><path fill="#191919" d="M365.9 280.3c-2.1-.1-3.8.7-5.6 1.6-19.1 10-39.6 16.6-59.3 25.3-13.6 6-27.6 11.2-41.4 16.7-21.5 8.5-42.8 17.7-64.3 26.2-25.2 9.9-50.9 18.8-75.9 29.3-26.2 11-53.3 20-78.6 33.2-8.5 4.4-17.5 7.8-26.2 11.8-1.5.7-2.3 1.8-2.3 3.1.9.2.5 2.2 2.2 2.2-.1.3-.2.7-.3 1 .9.4 1.9.4 3 0 4.9-1.9 10-3.7 14.7-6C64.6 408.8 98 394.4 132 381.4c28.9-11.1 57.8-22.3 86.4-34 20.5-8.4 40.7-17.7 61.3-25.5 29.1-11 57-24.8 86.3-35.1 1.7-.6 3.1-1.1 3.1-3.2-.3-2-1.2-3.2-3.2-3.3zM11.2 442.4c-1.2 1.1-1.8 2.5-.9 4.5.4-.2.7-.3 1.1-.5-.2-1.3-.3-2.6-.2-4z"/><path fill="#191919" d="M357.6 304.9c-1.9.5-3.7 1.4-5.5 2.4-14 7.4-29.2 12.2-43.9 17.9-37.7 14.5-74.6 30.8-112.6 44.4-13.1 4.7-25.9 10-39 14.8-11.5 4.3-23 8.4-34.6 12.3-23.9 7.9-46.6 19.1-70 28.3-12.6 5-25 10.4-37.5 15.6-1.2.5-2.5 1.1-3.4 1.9-.1 1.3 0 2.7.2 4.1-.4.1-.8.3-1.1.5v.1c1.4 3.1 4.2 1.7 6.7.6 31.4-13.1 62.2-27.5 94-40 26.8-10.5 54.1-19.6 80.8-30.3 22.6-9.1 45.5-17.7 68.1-26.7 21.4-8.6 42.8-17.3 64.2-26 11.3-4.6 23.1-7.8 33.9-13.7 1.7-.9 2.6-1.7 2.7-3.5 0-2-.9-3.3-3-2.7z"/><path fill="#071601" d="M476.3 777.5c-2.7 5.4-1.8 9.7-1.8 13.9l.3 26.9c0 1.9.3 4.2-1.8 5.3-2.5 1.3-4.5-.1-6.4-1.5-1.9-1.4-3-3.5-4-5.6-5.9-11.9-12.2-23.6-17.7-35.7-3.9-8.5-9.7-15.9-13.9-24.2-.6-1.2-1.8-2.1-2.2-3.3-.6-2-3.1-4.4-.4-6.2 2.8-1.9 5.2 0 6.4 2.6 7.5 15.5 17.7 29.6 24.3 45.6 2 4.9 4.7 9.4 9.6 15.4v-37.1c0-2.7.1-5.6 3-6.8 2.6-1.1 4.2 1 6 2.5 8.5 7 16.8 14.1 26.5 19.4 1.7.9 3.4 2 5.4 3.1.3-1.3.9-2.4.6-3.1-8.5-18-15.6-36.7-28.4-52.3-1.9-2.3-5.2-4.8-1.9-7.4 3.2-2.6 5.5 1.2 7.1 3.3 3.4 4.5 6.5 9.2 9.2 14.2 8.8 16.4 17 33 23.9 50.3.5 1.2.7 2.6 1.1 3.8.9 3.1-.2 4.4-3.4 4.1-3.5-.3-6.1-2.3-8.8-4.3-10.5-7.9-22.2-13.9-32.7-22.9zm-114.8 30.4c-1.2 4.9.8 7.8 2.1 10.7 4.6 9.5 6.8 20.2 13.2 28.9.8 1.1 1.3 2.3 1.6 3.6.5 2 .5 4.1-2 4.8-1.9.6-3.1-.4-3.9-2.2-2.8-6.4-5.8-12.7-8.5-19.1-4-9.5-7.9-19-11.7-28.5-1.7-4.3-4.8-7.8-7.7-11.9 3.9-3.7 7.1-1.5 9.8.7 10.6 8.6 22.8 14.8 34.3 21.9 5.3 3.3 11.1 5.5 15.7 9.3 3.3-2 2.2-3.9 1.5-5.7-6.6-16.3-14.8-31.8-23.7-47-.2-.3-.4-.5-.6-.8-2-2.4-1.3-4.3 1.1-5.7 2.2-1.2 4-.1 5 1.8 3.9 7.7 7.9 15.3 11.4 23.2 5.4 12.1 10.9 24.1 17.1 35.8.6 1.2 1.5 2.2 2.1 3.4 2.6 5.2 1.3 7-4.8 6.9-4.3-.1-8.1-2.1-10.9-4.5-9.2-7.9-20.5-12.1-30.5-18.7-3.2-1.9-6.5-4.1-10.6-6.9zm46.4 19.2c-.2-.2-.5-.6-.7-.6-.2 0-.4.4-.6.6.3.2.7.4 1 .6.1-.1.2-.3.3-.6z"/><path fill="#071401" d="M420.3 652.7c0-3.9.3-7.6 3.2-9.5 3.8-2.5 8.1-3.8 7.8-9.8-.1-2 4.9-1.9 5.2.6.8 7.8 7.1 11.7 11.5 16.8 9.6 11 13.7 24.2 15.7 38.1.5 3.8-.7 7.8-1.4 11.7-.4 2.5-2.1 3.8-4.8 4.4-3.9.9-8.3.7-10.5 5.7-.9 2-4.4.6-4.1-1.6 1.9-10.8-5.9-16.9-11.2-24.3-6.8-9.8-10.3-20.8-11.4-32.1zm23.9 4.4-2.1.6c1.6 11.4 3.2 22.8 4.9 34.1.4 3 3.3 4.1 5.4 5.5 3.4 2.3 5.9 1.1 5.6-3.2-.8-13.7-4.9-26.4-13.8-37zm-5.8 25.4c.7-12.3-2.2-22.2-4.6-32.1-.4-1.6-1.4-3.2-3.4-3-2.3.2-3.5 1.7-3.5 4 0 3.3-.2 6.6.7 9.9 2 7 4.8 13.6 10.8 21.2zm-184.5 68.7c-11.1-4.4-20-10.6-28.3-17.7-1.8-1.5-3.5-3-5.1-4.6-2.5-2.4-3.5-5.3-.4-7.6 3-2.2 4.7-.5 6.8 2.6 7.1 10.3 17 16.8 30.8 19.3-1.3-7-5.3-11-8-15.7-1.3-2.3-3.7-4-3.7-6.9 0-1.5-.2-3.5 2-4 1.5-.4 2.7.4 3.4 1.5 2.3 3.6 4.5 7.4 6.6 11.1 8 13.8 12.5 29 18 43.9 2.6 7.1 1.7 10.4-3.8 14.7-4.5 3.6-11.9 3.8-16.7.2-5.1-3.8-7.9-8.8-7.8-15.3.2-7.4 1-14.6 6.2-21.5zm7.8 1.4c-5.5 4.7-6.9 10.7-7.7 17-.6 4.7 2.7 11 6.8 13 5.2 2.5 11-1.2 9.7-6.8-1.9-8-3.2-16.3-8.8-23.2z"/><path fill="#0B0F09" d="M448.3 355.7c2 20.8-13.2 25.2-23 19.9-16.8-9.1-24.2-23.9-24.6-42.6-.2-13.3 11.7-18.4 22.1-14.7 4.8 1.7 9 4.1 12.3 8.1 8.4 10.1 11.7 22.2 13.2 29.3zm-17.2 15c10.8-.1 11.8-1.6 9.2-9.8-3.9-12.1-9.4-23.2-18.5-32.3-2.6-2.6-5-5.5-9.3-4.2-4.2 1.3-5.1 5.3-5.5 8.7-1.2 8.4 1.1 16.5 5.7 23.5 4.8 7.4 11.7 12.1 18.4 14.1z"/><path fill="#071401" d="M342.2 837c-5.9 2.1-10.7 4.5-15.1 7.4-1.7 1.1-3.3 2.2-5.4 2.5-1.9.2-3.3-.2-4.1-1.9-1.2-2.5.5-3.5 2.4-4.5 4.7-2.4 9.3-5.2 14.1-7.3 3.8-1.7 5.3-4.1 3.6-7.8-3.5-7.2-6.2-14.7-10.3-21.6-1.9-3.2-4.2-4-7.5-2.9-7.5 2.6-15.5 4-21.5 9.8-1.4 1.3-3.3 3.1-5.1 1.1-2.1-2.2-.3-4.3 1.4-6 4.6-4.4 9.8-7.9 16-9.7 17.5-5.1 17.7-4.8 25.6 11.6 8.1 16.8 14 34.4 20.6 51.8 2 5.3 1.1 7.9-3.8 10.2-7.2 3.4-13.9 8.1-22.4 7.2-1.6-.2-3.6.1-3.9-2.1-.3-2.4 1.3-4.1 3.3-4.2 5.9-.3 10.8-3 16-5.1 4.3-1.7 5.6-4.1 3.9-8.4-2.8-6.6-5.2-13.1-7.8-20.1zm198.6-150.5c1.4-.1 2.7.3 3.5 1.5 3.2 5.4 7.8 9.8 10.4 15.7 8.4 19.3 19.3 37.2 30.2 55.1 9 14.7 16 30.6 25.7 44.9.9 1.3 1.4 3 1.8 4.6.4 1.9 1 4.3-1.3 5.2-2.3.9-3.5-1.3-4.5-3-3.7-6.3-7.4-12.6-10.9-19-10.9-20.1-23.2-39.5-34.7-59.2-7-12-12.2-25-20.2-36.5-1.3-1.9-2.4-4.1-2.3-6.5 0-1.6.8-2.5 2.3-2.8zm-263.3 61.4c-1.8-5 1.5-6.7 4.1-8.5 2.7-1.9 5.5-3.7 8.5-5.2 2-1 2.3-2.6 1.5-4-3.8-6.6-6.1-14-10.7-20.2-2.4-3.2-5.1-5.2-9-1.7-1.2 1.1-2.9 1.7-4.4 2.2-1.3.4-2.7 0-3.5-1.2-.9-1.3-.4-2.4.8-3.4 2.6-2.1 5-4.5 7.8-6.2 4.7-2.9 7.7-2.2 11 2.4 3.7 5.1 7.3 10.2 9.5 16.3 5.5 14.9 14.2 28.6 16.3 44.7.9 7 0 8.7-6.7 10.7-3.8 1.1-8 .2-11.8 1.8-1.5.6-2.5-.2-3.3-1.4-1.1-1.8-.3-3.1 1.3-4.1 3.2-1.9 6.7-3 10.2-3.7 4-.7 4.6-2.8 3.6-6.4-1.8-6.4-1.9-14.8-6.9-18.2-5.4-3.7-10.5 4.1-16.1 6-.4.2-1.1.1-2.2.1z"/><path fill="#071601" d="M398.5 669.1c.3 13.4 3.2 24.1 7.1 34.7 1.4 3.7 2.6 7.5 3.9 11.3.5 1.4.1 2.6-1.2 3.4-1.5.8-2.4-.3-3.5-1.1-2.1-1.5-2.4-3.9-3-6.1-4.6-18-9.2-36-13.9-53.9-.6-2.3-1.6-4.7.8-6.3 2.9-1.8 4.7.6 6.9 2.1 3.7 2.6 5.2 6.8 7.7 10.3 8.7 11.8 17.1 23.7 25.5 35.7 2.1 3 3.6 6.3 5.3 9.6.7 1.3.3 2.8-.9 3.5-1.2.7-2.8.6-3.6-.5-1.4-1.8-2.6-3.8-3.8-5.8-6.7-11.6-15-21.9-22.9-32.6-.6-1.1-1.7-1.9-4.4-4.3zm-.9-3.8-.4.6.5.1-.1-.7zm-1 59c.3 1.9-.5 3.7-2.8 5.1-5.6 3.4-12 3.5-18 5.1-1 .3-2.1-.3-2.1-1.4 0-.9.3-2.1.9-2.7 2.6-2.8 6.3-3.3 9.8-4.3 6.6-2 7-2.7 4.8-9.1-1.4-4.4-3.1-8.8-4.9-13-2.7-6.5-3-6.4-9.3-2.7-.3.2-.5.4-.8.6-1.6.9-3.2 3.5-5 1.4-2.1-2.3-.9-4.9 1.3-6.9s6.1-2.8 6.5-5.8c.5-3.7-2.8-6.4-4.4-9.6-.9-1.8-2-3.4-3.2-5-2.3-3.2-4.8-4.2-8.3-1.4-2.6 2-5.6 3.5-8.4 5.2-1 .6-1.9.1-2.7-.5-1.2-1-1.5-2.5-.6-3.5 4.1-4.3 8.7-8.1 14.1-10.6 3-1.4 5.5.8 7.8 3.1 5.8 5.7 9.1 13.2 12.7 20.1 4.8 9 8.1 18.9 11.8 28.5.7 1.9.5 4.4.8 7.4z"/><path fill="#071401" d="M321 750.2c3.4-2.2 5.7 1.9 8.3 0 .9-12.4-1.7-17.4-12.6-21.4-9-3.2-15.3-9.2-20.1-17-2.5-4.1-3.2-8.7.4-13 3.3-4 7.5-5.2 12.4-4.4 2.4.4 4.9 1.1 4.4 4.1-.4 2.5-2.2 4.2-4.9 4.1-2.2-.1-4.6-2.1-6 .9-1.4 3.1 0 5.9 1.9 8.3 3.8 4.7 8.5 8.2 14.4 10.1 12.2 4 16.7 13.2 17.5 25.1.4 6.2-2.6 10.9-7.2 11.4-5.7.5-7.3-3.4-8.5-8.2z"/><path fill="#071601" d="M407.6 756.4c2.9-.2 4.4 1.6 5.5 3.7 10.9 20.9 22.2 41.5 30.8 63.5.4.9.7 1.9.7 2.9 0 1.6.3 3.5-2 3.8-1.6.2-2.5-.9-3-2.1-1.9-4.2-3.8-8.5-5.6-12.8-7.6-18.4-16.4-36.3-27.5-52.9-1.7-2.5-2.8-4.7 1.1-6.1zm-84.9-64.3c-1.5-6.2 1-8.4 6.1-9.7 8.4-2.2 11.7-2.3 14.8 3.2 3.8 6.6 7.1 13.5 9.8 20.6 3.3 8.6 5.9 17.5 8.7 26.3.5 1.6.7 3.2 1.1 4.8.5 1.8.2 3.4-1.7 4-2.1.6-2.9-1-3.4-2.6-1.9-5.6-3.9-11.3-5.5-17-2.3-8.3-5.5-16.3-9.5-23.8-5.6-10.4-7-10.8-17.8-6.2-.5.3-1.2.2-2.6.4z"/><path fill="#FFF" d="M470.7 611.4c1 .2 2 .3 2.9.7 1.1.5 2.9.5 2.7 2.1-.3 1.8-2.1.8-3.3 1.1-.6.1-1.3.3-1.9.4-.1-1.5-.3-2.9-.4-4.3z"/><path fill="#FFF" d="M1389.3 1742c7.3-11.7 14.9-22.6 21.1-34.3 6.6-12.6 11.2-26.2 16.4-39.5 7.4-19.2 13.5-38.8 18.8-58.5 3.9-14.5 7-29.6 6.8-45-.1-5.9 1.5-11.8 1.8-17.8 1.2-20.7-1.9-41-6.1-61.1-2-9.4-2.1-19-5.1-28.3-2.1-6.6-4.3-13.2-6.5-19.8-2.3-6.7-6.7-9.7-13.1-10-12.6-.6-24.8-3.9-37.4-5-22.1-2.1-43.9-6.5-65.6-11-9.1-1.9-18-3.9-26.9-6.6-3-.9-7-1.9-7.9 3-2.2 11.1-10.9 18-16.9 26.6-9.3 13.3-22.8 22.4-35.8 31.3-25.4 17.5-51.5 34.1-80.4 45.4-19.7 7.7-39.8 14-60.4 19.2-21.7 5.5-43.9 5.5-65.7 9.4-19.9 3.6-40 21.3-43.9 41-3.4 16.9.4 32.1 11.5 45.5 9.9 12 20.1 23.4 33.9 31.6 12.8 7.6 16.2 20.7 15.1 35-.3 3.6-.3 7.3-.8 10.9-1.1 8.4-3.6 10.9-11.8 12.1-28.6 3.9-57.4 5.9-86.3 3.9-16.1-1.1-32.2-2.8-48.4-3.8-8.8-.6-17.4-3.5-26.4-4.3-26.1-2.6-51.4-9-76.7-15.6-13.5-3.5-17.6-9.9-15.4-24 .8-5 1.2-9.9 1-14.8-1.1-23.7 3.9-46.9 7.3-70.1 2.4-16.7 6.3-33 10.3-49.4 7.3-30.4 17.7-59.7 30.5-88.1 4.1-9 7.1-18.5 12.4-27 1.2-1.9 1.7-4.7 4.9-3.9 13.7 3.5 27-.7 40.3-2.8 30.8-4.9 59.4-15.7 86.1-32.1 20-12.3 36.8-28.1 52.5-45.3 1.3-1.5 2.4-3.2 3.3-5 4.4-8.2 4-8.6-3.8-13.6-21-13.3-41.2-27.5-60-44-18.3-16.1-35.1-33.3-51.3-51.2-12-13.2-23.6-26.9-33.1-42.2-9.6-15.5-20.4-30.4-30.6-45.5-6.7-9.9-12.3-20.3-17.5-31.1-8.2-17.4-17-34.5-25.4-51.8-18.4-37.7-31.4-77.3-40.8-118-6.9-30-11.5-60.4-14.8-91.1-2-19.1-1-38.2-2.3-57.3-.4-6-1-11.9-1.5-17.8-1.5-17 3.4-33.7 1.6-50.6 6.3-35.2 6.6-71 13.9-106.2 8.6-41.6 19.9-82.4 33.4-122.6 4.3-12.9 8.6-25.7 14.1-38.1 2.7-6.2 6.3-10 13-12.4 12.1-4.4 23.3-11 36-14 21.7-5.2 43.6-8.4 65.9-8 16.3.3 32.6-1 48.9.7 26.3 2.8 52.7 4.9 77.8 14.3 6.8 2.5 13.1 6.4 19.8 9.4 2.3 1.1 5.1 3.2 7 .1 1.6-2.6 1.4-5.7-.6-8.5-1.4-2-3.2-3.1-5.4-4.1-15.9-6.8-32.2-11.8-49-15.7-20.4-4.7-41.2-5.7-61.9-7.5-19.8-1.7-39.8-1.7-59.7.2-9.1.9-18.2 1.9-27.4 2.5-19 1.3-36 8.7-52.5 17-19.9 9.9-39.6 20.3-57.2 34-16.6 12.8-31.8 26.8-44.7 43.6-13.6 17.7-25.5 36.4-37.2 55.3-12.8 20.8-29.3 38.3-48.6 53.2-9.5 7.3-19 14.2-29.5 20.1-6.4 3.6-13.8 4.6-19.9 8.5-17.1 11-36.6 14.8-56.1 19-4.2.9-8.7.9-12.7 2.4-10.2 3.9-19.5-1.8-29.3-2.2-2.4-.1-3.3-3-4.9-4.6-2.6-2.7-4.6-5.6-6.5-8.8-5.2-9-5.3-9 2.2-16.9 5.9-6.1 6.2-7.3 5-16.6 1.8-1.1 3.8-1 5.8-.5 2.1.5 4.4.5 4.8-2 .4-2.8-.8-5.9-3.7-6.3-19.3-2.6-30.3-16.2-41.5-30-9.2-11.4-10.1-23.5-3.6-35.9 2.6-5 2-8.1-.9-12.5-6.3-9.7-9.8-20.8-13.2-32.8 8.3-1.6 16.9-3.5 25.6-4.7 9-1.2 17.2-4.8 25.4-8.2 6.5-2.7 10.6-7.7 11.6-15 2.1-14.6 6.5-28.5 14-41.2 4.7-8 10-15.6 15.1-23.3 1.7-2.6 4.4-4.1 7.1-5.4 12.8-6.2 25.6-12.5 39.2-16.4 6.9-2 14.5-2.8 21.6-2.3 8 .5 11.9-4.1 14.7-9.7 3.5-7.1 5.6-15 11.2-20.9 3.5-20.4 18-34.9 28-51.7 9.7-16.4 23.1-29.8 37.1-42.7 13.2-12.2 26.7-24 42-33.5 12.7-7.9 26-14.7 38.7-22.4 31.5-18.9 65.7-31.1 101.2-40.1 13.1-3.3 25.9-7.9 39.1-10.6 23.9-4.9 47.9-9.5 72.7-9.6 16.2 0 32.2 1.9 48.4 2.4 21.3.6 42.2 3.8 62.8 8.6 33.6 7.8 66.1 18.9 97.8 32.4 3.6 1.5 6.6 4.3 10.3 5.9 2.4 1 4.1-.3 5.4-1.3 1.9-1.5.2-3.6-.8-5.2-1.2-2-3.2-3.3-5.3-4.4-17.5-10-35.6-18.5-55-24.6-18-5.7-36.3-9.8-54.4-15.3-.9-.3-1.7-.9-3.1-1.7 1.6-3.5 4.2-5.9 7.2-7.8 30.6-20 62.2-38.2 95.6-52.9 13.4-5.9 27.9-9.9 41.9-14.7 19.4-6.6 38.6-13.8 58.6-18.6 22.8-5.5 45.5-11.1 68.8-14.7 16.6-2.6 33.6-1.8 50-6.7 3.7-1.1 7.9-.4 11.9-.6 26.8-1.4 53.5-4.1 80.3-5.1 9.9-.4 19.8-.7 29.7-.7 4.2 0 8.6-.8 12.3 2.5 1.6 1.4 3.9 1.1 5.8.7 13.8-2.8 27.6.4 41.4 0 5.1-.2 9.7 2 14.7 2.3 14.2 1 28.6 1.5 42.5 4.2 19.8 3.9 39.7 7.2 59.2 12.7 14.3 4.1 28.9 6.9 43.1 11.3 23 7.1 46 14.1 68.5 23 29.3 11.6 57.9 24.7 86.1 38.7 4.9 2.5 10.1 4.5 14.5 9.7-20.2.4-39.2 2.2-58 6.1-6.1 1.2-12.5 1.5-18 5-2.7 1.7-5.6 3.8-3.6 7 1.8 2.9 4.8 5.5 9.1 3.5 1.2-.6 2.4-1.1 3.6-1.7 13.4-6.5 27.7-9 42.4-9 15.6-.1 31.2-.9 46.8 1.2 14.2 1.9 27.9 5 41.3 10 10.5 3.9 20.9 7.7 30.8 13.4 19.4 11.1 37 24.3 53.2 39.7 10.1 9.6 20 19.3 27.6 31 9.6 14.6 20.2 28.9 23.3 46.8.4 2.4 1.2 4.4 3.2 5.9 14.5 11.5 23.6 27.5 35.3 41.5 11.8 14.1 20.6 30.1 30.8 45.1 2.2 3.2 3.3 7.2 5.1 10.7 10.2 20.1 20 40.3 28.4 61.2 5.7 14.1 10 28.8 14.8 43.2 6 17.9 10.9 36.2 14.6 54.7 4.1 20.4 7.2 41 9.2 61.8 2.8 29.1 4.9 58.2 4.7 87.5-.2 23.2.3 46.5-.9 69.7-1.4 29.4-2.8 59-9.8 87.7-8 32.8-18.3 65-32 95.9-4.6 10.3-8.4 21-13.5 31-9.7 19.2-18.8 38.7-29 57.6-10.3 19.2-22.3 37.5-34.1 55.8-7 10.9-12.7 22.6-20.6 32.9-9.6 12.5-18.9 25.2-28.2 37.9-15 20.2-33 37.8-49.4 56.8-13.2 15.1-28.5 28.5-43.9 41.7-24.2 20.6-50.4 38-77.5 54-22.8 13.5-46.3 26.1-70.6 36.7-20.6 9-41 18.6-62.1 26.1-23 8.2-46.2 15.9-70.4 20.3-6.6 1.2-8.1 4.7-6.2 11.1 5.8 19.5 8.8 39.3 8.1 59.8-.7 21.4-5 42.1-10.8 62.4-3.9 13.5-8.5 27.1-15.8 39.5-15.3 25.8-33.7 49.3-53.3 71.9-2.8 3.2-5.9 6.2-9.3 8.9-3.3 2.7-6.7 5.4-4.1 9.8 2.3 3.9 6.6 2.3 10 1.5 5.1-1.3 10.2-2.9 15.2-4.7 18.6-6.7 37.9-11.5 54.6-23.3 10.2-7.2 22.5-11.4 32.8-18.8 2.4-1.7 5-1.6 7.5-.5 3.9 1.8 8.1 3.4 11.5 5.9 23.6 17.1 38.6 40.7 44.8 68.6 3.4 15.1 6.5 31.1 2.8 47.2-1.6 6.7-.7 13.8-2 20.7-1 5.1-3 8-8.5 9.5-26.5 7.5-53.6 11.5-80.9 14.6-41 4.6-82.2 3.9-123.2 2.7-24.7-.7-49.5-2.6-74-7-12-2.1-24.3-3.1-36.4-3.7-10-.5-19.5-3.5-29.5-4.5-16.5-1.6-32.6-5.1-48.5-9.9-3-.8-5.9-1.5-8.5-4.5zm660.2-1247.2c-5.5-8.2-5.5-8.5-12.6-8-25.5 1.7-50.2-3.9-74.6-9.7-24.4-5.9-48.1-14.7-71.8-22.9-15.9-5.5-31-13.1-46.2-20.4-23.6-11.4-47-23-68.8-37.6-3.8-2.6-7.7-5.2-11.5-7.8-3.2-2.1-6.9-.9-6.9 2.1.1 8.3-2 16.5-.6 24.8 2.6 15.3 6 30.4 11.4 45.1 3.3 9 7.1 17.4 12.7 25.6 10.9 16 24.7 28.3 40.9 38.3 11.3 7 24.3 9.5 37 9.6 21.3.1 41.6-6.5 61.7-13.1 10.3-3.4 19-9.5 28.5-14 5.7-2.7 11-5.7 15.6-10.3 4.7-4.6 10.5-9.6 17.6-7.2 8.6 3 17.6 3.1 26.3 4.5 13.2 2.2 26.5 1.1 41.3 1zM1293 1397.3c1.5 3.2 4.7 3.5 7.4 4.5 7.6 2.7 15.6 2.6 23.4 4.2 22 4.4 44.1 7.9 66.3 10.8 15.1 2 30.1 4.3 45.3 5.1 17.5.9 34.8 3.5 52.5 2.7 9.1-.4 18.5-.1 27.7 1.2 9.5 1.4 19.2.7 28.9.9 1.8 0 3.3-.6 3.7-2.6.4-2.1-.1-4.1-2.2-5-1.5-.7-3.2-.7-4.8-1.1-8.5-1.9-17.2-.9-25.7-1.6-32.5-2.5-65-5.2-97.5-8-15.8-1.4-31.8-2.4-47.4-5-22.1-3.6-44.5-6-66.5-10.5-4.6-.7-8.7-.3-11.1 4.4zm671.2-1079c.7-11.1-2.2-21.6-5.4-32-.7-2.2-1.7-3.1-4-3.6-9.1-2.1-14.2.5-18.8 10.2-8.8 18.5-10.2 38.1-7.2 58 .9 5.7 2.8 11.5 7.2 16s9.2 4.9 13.9.8c4.1-3.6 6.4-8.4 8.3-13.4 4.3-11.6 5.4-23.8 6-36zm114.8 72c-.7-17-5.9-30.7-16-42.4-1.3-1.5-2.8-2.8-4.4-4-2.7-2.1-5.2-.8-7 1.3-1.8 2.2.4 3.7 1.8 4.8 5.9 4.6 8.1 11 9.4 18 .8 4.5 2.7 9 2.9 13.5.5 15.8-1.6 31-13.8 42.8-4.9 4.8-9.3 10.4-17.1 10.9-2.1.1-4.6 1.6-4.5 4.5.1 2.4 2.4 3 4.2 3.6 5.7 1.9 10.9 1.5 15.8-2.6 5.1-4.3 9-9.7 13.8-14.3 10.7-10.3 13.7-23.6 14.9-36.1zm27.4-49c.2-3.7.3-5.7.4-7.7.2-8.5-3.8-16.6-8.6-17.4-4.6-.8-11.6 4.5-14.3 12.1-5.1 14.6-7.2 29.6-2.4 44.7 1.2 3.9 1.2 9 6.9 9.8 3.3.4 10.1-4.9 11.9-9.1.5-1.2 1-2.5 1.3-3.8 1.9-10.1 5.2-19.9 4.8-28.6z"/><path fill="#F5A1F6" d="M2712.8 1136.9c5.9-1.8 9.1-6.5 12.2-11.2 20.6-31 40-62.7 57.4-95.6 9-17 18-34 27.4-50.8 10.6-18.8 17.5-39.3 27.3-58.5 15-29.2 27.5-59.7 40.5-89.8 10.5-24.3 19.7-49.2 28.7-74.2 7.7-21.2 14.1-42.8 22-63.9 1.7-4.7 4.1-6.6 9.3-6.4 6.3.2 12.4 1.7 18.8 2-1.7 9.7-5.5 18.2-8.9 26.8-6.6 17-12.1 34.4-17.4 51.9-5.6 18.3-13 36.1-21.9 53.1-14.2 27.1-25.9 55.4-39.3 82.8-3.9 8-8.8 15.7-11.7 24.2-.5.8-1.2 1.6-1.4 2.5-1 3.8-5.7 6.5-3.5 11.3 6.3-.8 6.1-6.2 7.6-10.5 6.6-9.9 11.7-20.7 16.9-31.3 14.6-29.8 29.1-59.7 43-89.8 8.4-18.3 15.7-37.1 21-56.7 2.2-8.2 5.1-16.1 8.5-24 1.9-4.4 4.3-5.2 8.4-4.3 6.8 1.5 13.5 2.8 20.9 4.3-.8 7-3.4 13.4-5.8 19.8-6.2 16.8-13 33.2-21.8 48.9-5.8 10.3-10.6 21.3-14.9 32.4-5 12.8-12.3 24.3-18.8 36.2-4.9 9.1-9.1 18.4-13.2 27.9-3.3 7.6-7.2 14.8-11.7 21.9-6.7 10.6-12.8 21.5-18.8 32.5-15.5 28.3-32.9 55.3-51.4 81.6-9.9 14-19.9 28.1-30.7 41.6-12.1 15.2-23.3 31.3-36.2 45.9-19.5 22.1-38 45.2-60.1 64.8-3.1-1.4-3.9-4.6-5.7-6.9-4.8-6.1-5.3-6.4-10.6-1.1-4.9 4.9-9.4 10.3-13.9 15.3-101.5-74.2-210.4-126.7-334.9-138.5-2.1-3.9 0-5.2 1.4-6.3 14.5-11.3 26.3-25.3 38.7-38.7 25.4-27.6 49.8-56.1 73.9-84.8 7.3-8.7 13.3-18.2 19.1-27.8 3.8-6.4 3.3-7.2-4.8-9.3l.2.2c5.4-4.4 11.7-7.2 17.4-11.2 13.9-9.7 25.4-21.3 32.3-36.9 2-4.6 4.3-6 9.5-5.8 12.2.5 24.6 1.2 36.7-2.3 14.8-4.2 34.7-18.5 36-39.1.6-9.6-1.3-13.9-9.8-18.5-9.5-5.1-19.7-7.8-30.4-8.6-7-.6-7.6-1.6-5.2-8 4.2-11.2 8.8-22.2 12.4-33.6 11-34.6 23.8-68.7 32.1-104.1 4.6-19.6 9.7-39.2 13.5-59 6.4.1 11.5 3.3 17 5.5 26.1 10.4 52 21.4 78.6 30.6 13.9 4.8 28 9.6 41.1 16.9 9.9 5.5 21.4 6.5 32.1 10.1 34.6 11.4 69.6 21.6 105.4 28.9 16.2 3.3 32.5 6.6 48.8 9.4 4.7.8 6.7 1.9 4.7 6.8-1.1 2.7-1.4 5.8-2.4 8.6-11.5 31.8-21.1 64.2-32.7 95.9-13.7 37.4-29 74.2-45.8 110.3-20.3 43.5-39.8 87.3-62.5 129.6-20.3 37.7-41.7 74.6-64.7 110.7-3.4 5.3-8.3 9.5-10.5 15.6-2.6 1.7-4.4 3.9-5.1 8.5 3.5-2.7 5.4-4.6 5.7-7.8zm106.6-139.3c-1.7 2.6-3.5 5.2-3.2 8.5-10 8.8-13 22.1-20.9 32.2-4 5.1-7.7 10.7-10 17-3.3 3-5.4 6.7-6.5 12.2 5.4-4.3 5.4-4.3 7.8-10.8 2.8-.9 4-3.4 5.5-5.5 9.7-13.6 18.6-27.8 26.2-42.8.9-1.1 2.2-2.1 2.3-3.7 2-1.3 1.9-3.4 2.2-5.4 2.4-1.9 3.6-4.6 4.7-7.3.4-1-.1-2-.9-2.5-1.2-.8-2.6-.8-3.3.5-.6 1.1-.7 2.5-1.1 3.7-1.6.9-2.2 2.4-2.8 3.9zm-64.7-166.4c2.3 9.4 2.7 16.9 2.2 24.3-.8 13.7 0 27.2 1.9 40.7.4 3 .3 7.3 4.5 7.9 3.5.5 4.9-2.9 6.6-5.3 1.3-1.9 2.7-3.8 3.7-5.9 5.8-12.6 13.3-24.4 17.5-37.8 2.8-8.9 7.4-16.8 12.5-24.5 2.9-4.3 4.6-9.5 6.5-14.5.9-2.5-.4-4.7-3-5.4-2.5-.7-3.9 1.2-4.4 3.1-.8 3.2-1.7 6.4-3.3 9.3-7.2 12.7-12.5 26.2-17.9 39.8-3.7 9.2-7.7 18.8-16 28.3-.4-10-3.3-17.6-2-26 1.4-8.9 1.1-17.7-.1-26.7-1.1-8.5-1-17.2.2-25.8.3-2.2 2-4.7-1-6-2.8-1.2-4 1.5-5.3 3.4-.6.8-1.2 1.6-1.6 2.5-11.7 23.8-21.5 48.5-31.4 73.1-1 2.6-2.9 5.4-.4 8.3 5.1-2.7 5.1-2.7 6.9-7.2 2.7-6.8 5.1-13.6 8-20.3 4.8-11.3 8.3-23.1 15.9-35.3zm-47.8 9.4c-2.5 14.5-7.9 26.7-12.1 39.2-.8 2.4-3.2 5.3.4 6.8 3.5 1.5 5.2-1.6 6.4-4.5.5-1.2.7-2.6 1.2-3.8 4.3-11.9 8.2-23.8 11.8-35.9 4.6-15.3 8.1-30.6 7.7-46.6-.1-2.5 1.1-5.7-2.1-7.1-3.4-1.4-6.5-.2-9 2.5-1.1 1.2-2.1 2.5-3.2 3.8-16.7 20.3-30.4 42.6-42.7 65.8-1.1 2.1-3 4.4-1.6 7.2 6.8-.7 7-.6 8.4-5.8 2-7.5 6.1-13.8 9.8-20.4 2.6-4.7 5.7-5.8 10.6-3.5 4.2 1.8 8.9 2.2 14.4 2.3zm-93.6-181.5c-1.3-3.7-.5-6.3.3-8.8 2.7-7.5 5.5-14.9 8-22.4 1.1-3.4 1.8-7 2.4-10.6.1-.7-.6-2-1.3-2.4-1.5-.9-2.4.3-3 1.5-2.2 3.8-2.3 8.3-3.8 12.3-9.2 25.2-18.4 50.4-27.8 75.5-1 2.8-2 5.3 1.6 6.4 2.8.9 3.8-1.1 4.7-3.7 3.4-10 7-20 10.8-29.9 1.1-2.9 1-6.6 4.7-8.4 4.3-2.2 8.4-4.9 13.3-7.8 3.1 12.1 3.5 23.6 3.4 35.1 0 3.3-.4 6.6 1 9.8 1 2.2 2.2 3.1 4.5 2.6 2-.5 2.5-2 2.4-3.8-.2-2.9-.6-5.9-.9-8.8-1.6-12.4.8-25.1-3.6-37.2-1.1-3 1.4-4 3.3-5.3 7.2-4.8 14.3-9.6 21.5-14.4 1.3-.9 3.2-1.2 3.6-3.1.4-1.6.9-3.4-.4-4.7-1.4-1.5-3-.6-4.4.4-3.3 2.3-6.5 4.6-9.8 6.9-10 7-20.2 13.8-30.5 20.8zm50.6 20.2c6.2 12.4 10.2 23.9 12.2 36 .8 4.9 1.4 9.9 2.2 14.8.6 3.1 3 3.1 5.4 2.6 2.4-.6 2.7-1.8 2.1-4.3-3.5-15.4-5.5-31.2-11.3-46 9.8-2.5 16.5-5.5 21.1-9.3 5.6-4.7 7-13.3 3.4-20.7-2.6-5.4-9.3-8.4-16-7.4-2.6.4-4.8 2.7-7.6 1.4-3.9-1.8-5.4.7-6.6 3.6-8.5 20.5-17.8 40.7-25 61.7-1 2.9-3.8 7 .9 8.3 4.2 1.1 4.4-3.7 5.6-6.7 4.3-10.9 5.6-22.7 13.6-34zm138.9 42.4c5-9.4 11.4-17.5 15.6-26.9 1.3-3 4.3-3 6.9-2.9 9.3.2 18.5.6 27.8 1.1 1.3.1 2.6.6 3.2-1.1.6-1.8-.2-3.3-1.7-4.3-2-1.4-4.5-1.3-6.8-1.1-6.1.5-11.9-.3-17.7-1.7-3.5-.8-7.3-.4-10.9-.7-3.2-.3-4.5 1.1-5.5 4.2-1.6 5-3.1 10.2-6.4 14.5-11.3 15.3-18 33.1-26.1 50.2-2.3 4.8-4.1 9.8-4.8 15.1-.7 6.1 2.2 10.5 8.2 11.3 9.2 1.2 18.4 1.2 27.2-2.2 1.8-.7 4.3-.7 3.7-3.5-.5-2.1-2.6-1.6-4.1-1.6-6.3.2-12.6.8-18.9.7-8.4-.1-10-2.3-7.6-10.3 2.3-7.6 5.6-14.8 8.7-22.1 4-9.1 5.4-10.4 15.1-9.4 2.3.2 4.5 1.2 6.8 1.3 5.6.2 11.3 1 19-2.4-11.8-3.1-21.5-5.6-31.7-8.2zm-157.7 354.5c.1-2.4-1.2-3-2.3-3.7-10.6-6.9-22.5-10.9-33.9-16.2-12.9-6-26.7-10-39.7-15.6-20.1-8.7-40.2-17.2-60.6-25.1-17-6.6-35.3-8.9-52.4-15.3-1.6-.6-3.7-.5-4.6 1-1.3 2.1.5 3.6 1.8 5.1 1.4 1.7 3.5 1.6 5.4 2.1 9.3 2.4 18.6 4.6 27.7 7.5 26 8.4 51.9 17.1 76.8 28.6 11.3 5.2 23.8 8.1 35.2 13.1 12.4 5.5 25 10.4 36.8 17.3 2.9 1.7 6 2.4 9.8 1.2zm94.1-344c-11.2 5-11.8 6.4-8.3 14 2.1 4.5 4.7 8.8 7.8 12.7 4.5 5.6 6.9 5.6 13.8 4.1 11.5-2.6 15.5-12 19.5-20.9 4.5-10.1 5-20.6-1.7-30.3-3.4-4.9-6.5-10-7.7-16-2.2-10.9 2.8-18 13.5-19.6 6.6-1 10.1 1.4 10.5 7.8.2 2.6-.4 5.3-.5 7.9 0 1.3.2 2.7 2 2.9 1.6.2 2.6-.7 3.1-1.9 1.7-3.8 1.3-7.9.8-11.7-.8-6.8-4.2-10.9-10.4-11.3-12.8-1-23.9 3.2-26.3 16.4-1.3 7.4.1 13.8 3.1 20.1 1.6 3.3 3.6 6.3 5.3 9.6 6.4 12.7 3.8 27.3-6.5 37.1-7.1 6.7-9.8 6.4-16-1-4.5-5.6-7.3-11.1-2-19.9zm-90.9 36.2c.1-6.5-3.1-11.6-9.4-14.5-7.8-3.6-15.7-4.7-24-1-2.9 1.3-4.6 2.3-5.2 6.1-2.7 17.1-8.7 33.2-15.4 49.1-4.7 11.3-8.9 22.8-13.2 34.3-.8 2.1-1.6 5 1.6 5.6 2.4.5 4.4-1.1 5.1-3.7.2-.6 0-1.4.2-2 4.1-11.1 8.4-22.2 12.4-33.4.9-2.5 1.6-5.2 4.6-6 6.7-1.8 12.7-5.3 19.5-7.1 15.4-3.8 22.2-11.9 23.8-27.4zm47 233.7c-.8-4.6-4.3-5.5-7.2-6.7-12.8-5.5-25.5-11.3-38.5-16.2-30-11.4-58.5-26.5-89.4-35.8-14.6-4.4-28.8-9.8-43.5-13.8-2.3-.6-4.1-.6-5 1.5-.9 2.3 1.1 3.8 2.8 4.5 5.3 2 10.7 3.5 16 5.2 22 7.1 44.3 13.3 65.5 22.7 10.2 4.5 20.5 9.1 30.9 13 17 6.4 33.7 13.6 50.5 20.5 5.5 2.4 10.9 6.2 17.9 5.1zm22-37.9c-.4-6.2-5.2-7.6-9.4-9.5-28.3-12.9-57.5-23.8-86.5-35.1-19.8-7.7-39.7-14.9-59.2-23.3-7.7-3.4-15.9-4.5-23.6-7.3-2.9-1.1-5.6 0-6 3.3-.3 2.7 1.7 4 4.4 4.2 13.1.7 25 6.1 36.7 11 22.6 9.4 45.7 17.4 68.6 25.8 21 7.7 41.6 16.5 61.9 26 4.1 1.7 6.8 6.9 13.1 4.9zm-237.9 10.7c-.5 5.1 3.1 6.1 6.7 6.8 20.8 4.2 40.5 11.9 60.9 17.6 19.1 5.3 37.6 12.5 55.6 20.6 7.2 3.2 14.7 5.8 22.1 8.6 2.1.8 4 .3 4.8-2 .7-2.1-1.2-2.8-2.6-3.6-1.5-.8-3.1-1.1-4.6-1.8-19.8-8.4-40-15.7-60.3-22.8-24.4-8.5-48.9-16.2-73.9-22.9-2.8-.7-5.7-1.7-8.7-.5zm175.9-118.3c-6.9-.9-12.2 2-17.7 1.8-6-.3-8.4-2.5-6.9-7.9 2.4-8.9 4.9-17.7 9.6-25.8 8.5-14.9 16.4-30.1 24.6-45.2 1-1.8.6-3.3-.6-4.4-1.4-1.3-3.1-.9-4.2.7-1.5 2.2-3.1 4.3-4.4 6.6-8.3 15.4-17 30.7-24.6 46.5-3.7 7.6-7.7 15.5-8.4 24.3-.8 10.1.6 11.7 10.6 11.8 3.6 0 7.3-.1 10.9-.7 4-.9 8.4-1.7 11.1-7.7zm44.8-118.5c0 2.1-.3 4 1.6 4.7 2.4.8 3.4-1.2 4.4-2.9.2-.3.3-.6.3-.9 4-17.6 12.7-33.1 21.1-48.8 3.4-6.4 7.3-12.6 9.3-19.7.5-1.6 1.1-3.1 1.3-4.7.1-1.3-.5-2.5-1.9-3.1-1.4-.6-2.7-.3-3.6.7-.9.9-1.6 2.2-2 3.4-6 15.8-14.5 30.4-21.2 45.9-3.7 8.2-7.8 16.6-9.3 25.4zm140.1 228.7c6.6-6.3 9.1-14.6 12.8-22.2.4-.9.7-1.9-.4-2.6-1.3-.8-2.6-.5-3.3.8-4.4 7.4-9.4 14.7-9.1 24zm-9 15.3c3.7-.2 3.2-3.5 4.3-5.6.8-1.6-.4-2.9-1.4-2.8-3.1.3-3.8 3.1-4.6 5.6-.5 1.6.7 2.1 1.7 2.8zm-4.2 7.9c2 .3 3.3-1.2 3.5-3.6.1-1.3-.1-2.7-1.5-2.8-2.6-.3-2.7 2.2-3.5 3.8-.7 1.5.7 2 1.5 2.6z"/><path fill="#FDFDFD" d="M2458.4 884.3c.3 6.8-5.8 10.1-8.9 14.6-20.8 29.9-44.4 57.7-69.3 84.4-4.6 5-9.9 7.7-16.2 8.5-17.4 2.3-34.7 5.4-52.2 6.9-29.8 2.5-59.7 2.3-89.6 1.3-7.9-.3-15.7-1.5-24.6-2.3 14.8-35.4 29.3-70.5 41-106.5 11.7-35.9 18.1-73.1 24.3-110.2 3.9-1.6 6.2 1.7 9.1 2.7 32.4 11.6 65.7 18.2 100 19.1 27 .7 50.7-8.4 70.6-26.8 9.5-8.8 20.3-16 28.6-26.2 5.6-6.8 8.3-6.4 16.4-2.4 8.9 4.4 17.8 8.8 26.3 14.2 10.7 6.8 22.5 11.2 34.7 14.2 6.6 1.6 13.7 1.2 20.6 2.1 9.1 1.1 12 5.9 8.2 14.3-7.2 16-21 23.4-37.5 25.8-10.2 1.5-20.5.1-30.7-1.7-6.7-1.2-8.3-1.2-9.7 5.2-1.5 6.9-4.4 13.3-7.5 19.4-10.7 21.4-27.8 35.2-51.6 39.9-4.8.9-7.2 4.1-10.8 6.6 3.1 3.5 6.1 3.9 9.9 2.1 6.1-2.7 12.4-4.6 19.2-4.8-.1-.2-.3-.4-.3-.4z"/><path fill="#FFF" d="M1661.3 1626.2c-1 .3-2.2 1.4-3.1.1-1-1.4.5-2 1.2-2.8.6.9 1.3 1.8 1.9 2.7z"/><path fill="#4BE308" d="M407.9 827.1c-.1.2-.2.4-.3.7-.3-.2-.7-.4-1-.6.2-.2.4-.6.6-.6.3-.1.5.3.7.5zm36.3-170c8.9 10.6 12.9 23.3 13.8 37 .3 4.3-2.2 5.6-5.6 3.2-2.1-1.4-4.9-2.5-5.4-5.5-1.7-11.4-3.3-22.8-4.9-34.1l2.1-.6zm-5.8 25.4c-6.1-7.5-8.8-14.1-10.8-21.2-.9-3.3-.8-6.6-.7-9.9 0-2.3 1.3-3.8 3.5-4 2-.2 3 1.4 3.4 3 2.4 9.9 5.3 19.8 4.6 32.1zm-176.7 70.1c5.6 6.9 6.9 15.2 8.7 23.1 1.3 5.6-4.5 9.3-9.7 6.8-4.1-1.9-7.5-8.3-6.8-13 .9-6.2 2.3-12.3 7.8-16.9z"/><path fill="#F6F6F6" d="M431.1 370.7c-6.7-1.9-13.7-6.7-18.4-14.1-4.5-7.1-6.8-15.1-5.7-23.5.5-3.3 1.3-7.4 5.5-8.7 4.3-1.3 6.7 1.6 9.3 4.2 9.1 9.1 14.6 20.2 18.5 32.3 2.6 8.2 1.6 9.6-9.2 9.8z"/><path fill="#4BE308" d="m397.6 665.3.2.7-.6-.1z"/><path fill="#0C0C0C" d="M2049.5 494.8c-14.8.1-28.1 1.2-41.2-1-8.8-1.5-17.7-1.6-26.3-4.5-7.1-2.4-12.9 2.5-17.6 7.2-4.6 4.6-9.9 7.6-15.6 10.3-9.6 4.5-18.2 10.6-28.5 14-20.2 6.6-40.5 13.2-61.7 13.1-12.7-.1-25.7-2.6-37-9.6-16.2-10-30-22.3-40.9-38.3-5.6-8.2-9.4-16.5-12.7-25.6-5.4-14.7-8.8-29.7-11.4-45.1-1.4-8.3.7-16.5.6-24.8 0-3.1 3.6-4.3 6.9-2.1 3.8 2.6 7.7 5.2 11.5 7.8 21.8 14.6 45.2 26.2 68.8 37.6 15.2 7.3 30.3 14.9 46.2 20.4 23.7 8.2 47.4 17.1 71.8 22.9 24.3 5.8 49.1 11.4 74.6 9.7 7-.5 7-.2 12.5 8zm-96-11.1c-66.2-18.1-127-43.3-184.9-78.6-2 16.6.1 31.4 5.9 44.9 9 21.2 22.3 40 40 55.1 18.6 16 39.8 23.6 64.4 17.6 11.3-2.7 22-7.5 32.5-12.4 14.3-6.7 28-14.8 42.1-26.6z"/><path fill="#0E0E0E" d="M1293 1397.3c2.4-4.7 6.5-5.2 11-4.2 22 4.6 44.3 6.9 66.5 10.5 15.6 2.6 31.6 3.6 47.4 5 32.5 2.8 65 5.5 97.5 8 8.6.7 17.2-.4 25.7 1.6 1.6.4 3.4.4 4.8 1.1 2.1.9 2.6 2.9 2.2 5-.4 2-1.9 2.6-3.7 2.6-9.6-.2-19.4.5-28.9-.9-9.3-1.4-18.6-1.7-27.7-1.2-17.7.8-35-1.8-52.5-2.7-15.1-.8-30.2-3.2-45.3-5.1-22.2-2.9-44.3-6.4-66.3-10.8-7.8-1.6-15.8-1.5-23.4-4.2-2.7-1.2-5.8-1.4-7.3-4.7zm671.2-1079c-.6 12.2-1.7 24.4-6 36-1.9 5-4.1 9.8-8.3 13.4-4.7 4.1-9.4 3.8-13.9-.8-4.4-4.5-6.3-10.3-7.2-16-3.1-19.9-1.7-39.5 7.2-58 4.6-9.7 9.7-12.3 18.8-10.2 2.2.5 3.3 1.4 4 3.6 3.2 10.5 6.1 20.9 5.4 32zm-12.1-23.6c-3.2.5-3.9 1.7-4.4 2.9-6.7 14.6-10.1 30-8.8 46.1.4 4.6 2.4 8.7 6.7 12.1 8.4-20 11.4-39.9 6.5-61.1zm126.9 95.6c-1.2 12.5-4.1 25.7-14.9 36.2-4.7 4.6-8.7 9.9-13.8 14.3-4.9 4.1-10.1 4.6-15.8 2.6-1.8-.6-4.1-1.2-4.2-3.6-.1-2.9 2.4-4.4 4.5-4.5 7.8-.5 12.2-6.1 17.1-10.9 12.2-11.8 14.3-27 13.8-42.8-.1-4.5-2.1-9-2.9-13.5-1.2-7-3.5-13.4-9.4-18-1.4-1.1-3.6-2.7-1.8-4.8 1.8-2.1 4.3-3.4 7-1.3 1.6 1.2 3.1 2.5 4.4 4 10 11.6 15.2 25.3 16 42.3z"/><path fill="#0C0C0C" d="M2106.4 341.3c.4 8.7-2.9 18.5-4.8 28.6-.3 1.3-.8 2.5-1.3 3.8-1.8 4.2-8.6 9.5-11.9 9.1-5.7-.7-5.7-5.9-6.9-9.8-4.8-15.2-2.7-30.1 2.4-44.7 2.7-7.5 9.6-12.8 14.3-12.1 4.8.8 8.8 8.9 8.6 17.4-.1 2-.2 4-.4 7.7zm-10.2-11.6c-5.1 9.5-7.1 19.4-4.4 29.9 6.5-9.3 7.7-19.3 4.4-29.9z"/><path fill="#170F17" d="M2754.7 831.2c-7.6 12.3-11.1 24-15.9 35.2-2.9 6.7-5.3 13.5-8 20.3-1.8 4.5-1.8 4.5-6.9 7.2-2.5-2.9-.6-5.7.4-8.3 9.9-24.6 19.7-49.2 31.4-73.1.4-.9 1-1.7 1.6-2.5 1.3-1.9 2.4-4.6 5.3-3.4 3 1.2 1.3 3.8 1 6-1.1 8.6-1.3 17.3-.2 25.8 1.2 9 1.5 17.9.1 26.7-1.3 8.4 1.5 16 2 26 8.3-9.5 12.4-19 16-28.3 5.4-13.6 10.7-27.1 17.9-39.8 1.6-2.9 2.5-6.1 3.3-9.3.5-1.9 1.9-3.8 4.4-3.1 2.6.8 3.9 3 3 5.4-1.8 5-3.6 10.1-6.5 14.5-5.2 7.7-9.7 15.6-12.5 24.5-4.2 13.3-11.7 25.2-17.5 37.8-1 2.1-2.3 4-3.7 5.9-1.7 2.4-3 5.8-6.6 5.3-4.3-.6-4.1-4.9-4.5-7.9-1.9-13.5-2.7-27-1.9-40.7.4-7.4.1-14.9-2.2-24.2zm-47.8 9.4c-5.6-.1-10.3-.5-14.4-2.4-4.9-2.3-8-1.1-10.6 3.5-3.7 6.6-7.8 13-9.8 20.4-1.4 5.2-1.6 5.2-8.4 5.8-1.5-2.8.5-5.1 1.6-7.2 12.3-23.2 25.9-45.5 42.7-65.8 1.1-1.3 2-2.6 3.2-3.8 2.5-2.6 5.6-3.8 9-2.5 3.2 1.3 2 4.6 2.1 7.1.3 16-3.2 31.4-7.7 46.6-3.6 12.1-7.5 24-11.8 35.9-.4 1.2-.7 2.6-1.2 3.8-1.1 2.9-2.8 6-6.4 4.5-3.5-1.5-1.2-4.4-.4-6.8 4.2-12.4 9.7-24.6 12.1-39.1zm-16.8-12c4.8 3.2 9.5 3.6 13.8 5.1 3.9 1.4 6-.5 7-4.5 1.9-8 3.8-16.1 3.7-24.4 0-2 1.5-4.7-2.2-6-7.2 9.7-15.6 18.5-22.3 29.8zm-76.8-169.5c10.4-7 20.5-13.9 30.6-20.7 3.3-2.2 6.5-4.6 9.8-6.9 1.4-1 2.9-1.9 4.4-.4 1.3 1.3.8 3.1.4 4.7-.5 1.9-2.3 2.2-3.6 3.1-7.2 4.8-14.3 9.6-21.5 14.4-1.9 1.3-4.4 2.3-3.3 5.3 4.4 12.1 2 24.9 3.6 37.2.4 2.9.7 5.9.9 8.8.2 1.8-.3 3.3-2.4 3.8-2.3.5-3.6-.4-4.5-2.6-1.4-3.3-1-6.6-1-9.8.1-11.5-.3-23-3.4-35.1-4.9 2.9-9 5.7-13.3 7.8-3.7 1.8-3.6 5.4-4.7 8.4-3.8 9.9-7.4 19.9-10.8 29.9-.9 2.6-1.9 4.5-4.7 3.7-3.6-1.1-2.6-3.6-1.6-6.4 9.4-25.1 18.6-50.3 27.8-75.5 1.5-4 1.6-8.5 3.8-12.3.7-1.2 1.6-2.4 3-1.5.7.4 1.4 1.7 1.3 2.4-.6 3.6-1.3 7.2-2.4 10.6-2.5 7.5-5.3 14.9-8 22.4-1 2.5-1.7 5-.4 8.7zm50.6 20.2c-8.1 11.4-9.3 23.2-13.5 33.8-1.2 3-1.3 7.8-5.6 6.7-4.7-1.2-1.9-5.4-.9-8.3 7.1-21.1 16.5-41.2 25-61.7 1.2-2.9 2.7-5.4 6.6-3.6 2.8 1.3 5.1-1 7.6-1.4 6.7-1 13.3 2 16 7.4 3.6 7.3 2.2 16-3.4 20.7-4.6 3.9-11.3 6.9-21.1 9.3 5.8 14.9 7.8 30.6 11.3 46 .6 2.5.3 3.8-2.1 4.3-2.4.6-4.9.6-5.4-2.6-.9-4.9-1.4-9.9-2.2-14.8-2.1-12-6.1-23.4-12.3-35.8zm12.8-4.3c6.1.3 11-2.4 15.4-6 3.4-2.7 3.6-8 1.5-12.7-1.9-4-5.1-4.6-9-4.2-8.1 1-17.1 10.2-17.3 17.9 0 1.9 1.2 3.2 2.7 3.7 2.1.9 4.4 1 6.7 1.3z"/><path fill="#181018" d="M2802.8 721.7c10.2 2.6 19.9 5.1 31.8 8.2-7.7 3.4-13.4 2.6-19 2.4-2.3-.1-4.5-1-6.8-1.3-9.6-1-11.1.3-15.1 9.4-3.2 7.3-6.4 14.6-8.7 22.1-2.5 8-.8 10.3 7.6 10.3 6.3 0 12.6-.6 18.9-.7 1.5 0 3.7-.5 4.1 1.6.6 2.8-1.9 2.8-3.7 3.5-8.9 3.4-18 3.4-27.2 2.2-6-.8-8.9-5.2-8.2-11.3.6-5.3 2.5-10.3 4.8-15.1 8-17 14.7-34.8 26.1-50.2 3.2-4.3 4.7-9.5 6.4-14.5 1-3.1 2.3-4.5 5.5-4.2 3.6.3 7.4-.1 10.9.7 5.9 1.4 11.7 2.2 17.7 1.7 2.2-.2 4.7-.4 6.8 1.1 1.4 1 2.3 2.4 1.7 4.3-.6 1.7-1.8 1.2-3.2 1.1-9.3-.5-18.5-.9-27.8-1.1-2.6-.1-5.6 0-6.9 2.9-4.3 9.4-10.7 17.5-15.7 26.9zm-157.7 354.5c-3.7 1.2-6.9.4-9.8-1.3-11.7-6.8-24.4-11.8-36.8-17.3-11.4-5.1-23.8-7.9-35.2-13.1-24.9-11.5-50.8-20.2-76.8-28.6-9.1-2.9-18.4-5.1-27.7-7.5-1.9-.5-4-.4-5.4-2.1-1.3-1.5-3.1-3.1-1.8-5.1.9-1.4 3-1.6 4.6-1 17.1 6.4 35.3 8.8 52.4 15.3 20.4 7.9 40.5 16.4 60.6 25.1 13 5.7 26.8 9.6 39.7 15.6 11.4 5.3 23.3 9.3 33.9 16.2 1.1.9 2.3 1.4 2.3 3.8z"/><path fill="#170F17" d="M2739.2 732.2c-5.2 8.8-2.4 14.3 2.1 19.8 6.2 7.4 8.9 7.7 16 1 10.3-9.8 12.9-24.4 6.5-37.1-1.6-3.3-3.7-6.3-5.3-9.6-3-6.4-4.5-12.7-3.1-20.1 2.4-13.2 13.5-17.4 26.3-16.4 6.3.5 9.7 4.6 10.4 11.3.4 3.9.9 8-.8 11.7-.5 1.2-1.6 2.1-3.1 1.9-1.8-.2-2-1.6-2-2.9 0-2.6.6-5.3.5-7.9-.4-6.4-3.9-8.9-10.5-7.8-10.7 1.6-15.7 8.7-13.5 19.6 1.2 5.9 4.3 11.1 7.7 16 6.7 9.8 6.2 20.3 1.7 30.3-4 8.9-8 18.3-19.5 20.9-6.9 1.6-9.3 1.5-13.8-4.1-3.1-3.9-5.7-8.2-7.8-12.7-3.7-7.5-3.1-8.9 8.2-13.9zm-90.9 36.2c-1.5 15.5-8.3 23.6-23.5 27.5-6.8 1.8-12.8 5.3-19.5 7.1-3 .8-3.6 3.4-4.6 6-4.1 11.2-8.3 22.3-12.4 33.4-.2.6-.1 1.3-.2 2-.7 2.6-2.7 4.2-5.1 3.7-3.2-.7-2.5-3.5-1.6-5.6 4.3-11.5 8.5-23 13.2-34.3 6.7-15.9 12.7-32 15.4-49.1.6-3.8 2.3-4.8 5.2-6.1 8.2-3.7 16.2-2.6 24 1 6 2.8 9.2 7.9 9.1 14.4zm-41.5 26.5c6.5-2.3 12.1-4.1 17.9-5.4 8.6-1.9 14.5-7.6 15.8-16.9.9-6.3-.6-9.4-6.1-12.1-5.8-2.8-11.7-4.5-17.8-.6-1.4.9-2.3 2.4-2.4 4.2-.6 10.3-5.8 19.4-7.4 30.8z"/><path fill="#181018" d="M2695.3 1002.1c-7 1.1-12.4-2.7-17.9-5-16.8-7-33.4-14.2-50.5-20.5-10.5-3.9-20.7-8.5-30.9-13-21.2-9.4-43.5-15.6-65.5-22.7-5.3-1.7-10.8-3.3-16-5.2-1.7-.6-3.7-2.2-2.8-4.5.9-2.2 2.7-2.2 5-1.5 14.7 4 29 9.4 43.5 13.8 30.9 9.3 59.4 24.4 89.4 35.8 13 4.9 25.7 10.7 38.5 16.2 2.9 1.1 6.4 2 7.2 6.6zm22-37.9c-6.3 2.1-9-3.2-13-5-20.3-9.4-40.9-18.3-61.9-26-23-8.4-46-16.4-68.6-25.8-11.8-4.9-23.6-10.4-36.7-11-2.7-.1-4.7-1.5-4.4-4.2.4-3.3 3.1-4.3 6-3.3 7.8 2.8 15.9 4 23.6 7.3 19.4 8.4 39.4 15.6 59.2 23.3 29 11.3 58.1 22.2 86.5 35.1 4.1 1.9 8.9 3.3 9.3 9.6zm-237.9 10.7c3-1.2 5.8-.2 8.7.6 24.9 6.6 49.5 14.4 73.9 22.9 20.3 7.1 40.5 14.3 60.3 22.8 1.5.7 3.2 1 4.6 1.8 1.4.7 3.3 1.4 2.6 3.6-.8 2.3-2.7 2.8-4.8 2-7.4-2.8-14.9-5.4-22.1-8.6-18.1-8.1-36.6-15.2-55.6-20.6-20.3-5.7-40.1-13.4-60.9-17.6-3.5-.8-7.2-1.8-6.7-6.9zm175.9-118.3c-2.7 6-7 6.8-11.1 7.6-3.6.7-7.3.8-10.9.7-10-.1-11.4-1.7-10.6-11.8.7-8.8 4.7-16.6 8.4-24.3 7.7-15.8 16.3-31 24.6-46.5 1.3-2.3 2.9-4.5 4.4-6.6 1.1-1.6 2.8-2 4.2-.7 1.2 1.1 1.6 2.6.6 4.4-8.2 15-16.1 30.3-24.6 45.2-4.7 8.2-7.2 17-9.6 25.8-1.5 5.4.8 7.7 6.9 7.9 5.5.2 10.8-2.7 17.7-1.7zm44.8-118.5c1.5-8.8 5.6-17.2 9.2-25.7 6.7-15.4 15.2-30.1 21.2-45.9.5-1.2 1.1-2.5 2-3.4.9-1 2.3-1.3 3.6-.7 1.4.6 2 1.8 1.9 3.1-.2 1.6-.8 3.2-1.3 4.7-2.1 7.1-5.9 13.3-9.3 19.7-8.3 15.7-17.1 31.3-21.1 48.8-.1.3-.2.7-.3.9-1 1.7-2 3.8-4.4 2.9-1.8-.3-1.5-2.3-1.5-4.4z"/><path fill="#191919" d="M2785.3 1055.3c2.3-6.3 6-11.9 10-17 7.9-10.2 10.9-23.4 20.9-32.2l2.1 2.4c-7.5 15-16.5 29.1-26.2 42.8-1.5 2-2.7 4.6-5.5 5.5-.4-.6-.8-1.1-1.3-1.5z"/><path fill="#0C0C0C" d="M2840.2 966.8c-.3-9.3 4.7-16.5 9.1-24 .7-1.2 2-1.6 3.3-.8 1.1.7.8 1.7.4 2.6-3.7 7.6-6.2 15.9-12.8 22.2zm19.7-35.9c-1.5 4.2-1.3 9.7-7.6 10.5-2.2-4.8 2.6-7.5 3.5-11.3.2-.9.9-1.7 1.4-2.5.9 1 1.8 2.2 2.7 3.3z"/><path fill="#191919" d="M2786.6 1056.7c-2.4 6.5-2.4 6.5-7.8 10.8 1.1-5.5 3.2-9.1 6.5-12.2.5.4.9.9 1.3 1.4zm-73.8 80.2c-.3 3.2-2.2 5.1-5.8 7.7.7-4.6 2.5-6.7 5.1-8.5.3.2.5.4.7.8z"/><path fill="#0C0C0C" d="M2831.2 982.1c-1-.7-2.2-1.2-1.7-2.9.8-2.5 1.4-5.3 4.6-5.6.9-.1 2.1 1.2 1.4 2.8-1.1 2.3-.6 5.5-4.3 5.7zm-9.1 11.6c.3-1.2.4-2.6 1.1-3.7.7-1.3 2.1-1.3 3.3-.5.9.6 1.3 1.5.9 2.5-1 2.8-2.2 5.4-4.7 7.3-.2-1.8-.4-3.7-.6-5.6zm-3.8 14.8-2.1-2.4c-.3-3.3 1.6-5.9 3.2-8.5l1.2 7.2c-.1 1.6-1.4 2.5-2.3 3.7z"/><path fill="#191919" d="m2820.6 1004.8-1.2-7.2c.6-1.5 1.2-3 2.7-3.9.2 1.9.4 3.7.7 5.6-.3 2-.3 4.1-2.2 5.5z"/><path fill="#0C0C0C" d="M2827 990c-.9-.6-2.3-1.1-1.5-2.6.8-1.6.9-4.1 3.5-3.8 1.4.1 1.6 1.6 1.5 2.8-.2 2.4-1.5 3.8-3.5 3.6z"/><path fill="#B5B2B5" d="M1953.5 483.7c-14.1 11.8-27.7 19.9-42.2 26.6-10.5 4.9-21.2 9.7-32.5 12.4-24.7 6-45.8-1.6-64.4-17.6-17.6-15.2-31-33.9-40-55.1-5.8-13.5-7.9-28.4-5.9-44.9 57.9 35.2 118.8 60.4 185 78.6z"/><path fill="#F6F6F6" d="M1952.1 294.7c5 21.1 2 41.1-6.5 61.1-4.2-3.4-6.3-7.6-6.7-12.1-1.3-16.1 2.1-31.5 8.8-46.1.5-1.1 1.2-2.3 4.4-2.9zm144.1 35c3.3 10.6 2.1 20.6-4.4 29.9-2.7-10.5-.8-20.4 4.4-29.9z"/><path fill="#F09DF0" d="M2690.1 828.6c6.7-11.3 15.1-20.1 22.3-29.7 3.6 1.3 2.1 4 2.2 6 .2 8.3-1.8 16.3-3.7 24.4-1 4-3 5.9-7 4.5-4.2-1.6-9-2-13.8-5.2zM2676.7 675c-2.3-.4-4.6-.5-6.7-1.2-1.5-.5-2.7-1.8-2.7-3.7.2-7.7 9.1-16.9 17.3-17.9 3.9-.5 7.2.1 9 4.2 2.2 4.7 1.9 10-1.5 12.7-4.4 3.6-9.3 6.3-15.4 5.9zm-69.9 119.9c1.5-11.4 6.8-20.6 7.4-30.8.1-1.8 1.1-3.3 2.4-4.2 6-3.9 12-2.2 17.8.6 5.6 2.7 7 5.8 6.1 12.1-1.3 9.3-7.2 15-15.8 16.9-5.7 1.4-11.3 3.2-17.9 5.4z"/></svg>