<svg viewBox="0 0 2893.6 1672.7" xmlns="http://www.w3.org/2000/svg"><path fill="#0C0B0B" d="M2600.5 1111.3c-5.9 2.6-10.4 2.9-15.6-.4-15.6-10.1-31.5-19.8-47.4-29.4-21.9-13.1-45.2-23.6-68.1-34.7-31.4-15.2-63.4-28.7-96.6-39.7-6.6-2.2-13.1-4.4-19.9-5.7-8-1.5-8.7-2.7-8-10.7 2.4-27.2 11.1-52.2 24.5-76 7.2-12.8 15-24.9 24.2-36.3 15.7-19.5 33.6-36.5 53.5-51.8 14.6-11.3 30.7-19.7 47.6-26.3 8.8-3.5 17.9-6.7 27.7-6.9 5.9-.1 11.1 1.9 16.4 3.6 33.3 10.3 66.7 20.1 98.7 34.1 22.2 9.7 44 20 66.1 29.8 26.6 11.8 52.4 25.2 77.4 40 15.5 9.2 29.1 20.7 41.1 34.2 11.9 13.4 24.4 26.2 33.3 42.1 16.2 29.1 29.5 59.4 34.9 92.5 5.1 31.9 4.2 63.5-2.4 95.4-3 14.7-8.3 28.5-11.8 43-1.6 6.8-5.7 13.3-9.6 19.4-11.3 17.9-21.8 36.3-35.3 52.8-18 22.2-37 43.4-58.5 62.4-6.5 5.7-14.2 9.5-21.3 14.3-18.3 12.4-38 22.6-58.3 31.5-13.1 5.7-27 9-40.5 13.4-25.5 8.2-51.4 14.6-77.1 21.9-14.9 4.2-30.3 6.2-45.5 9-18.9 3.4-37.7 7.2-56.9 8.5-26.7 1.8-53.1 5.9-80 5.9-38.4 0-75.6-5.5-112-18.1-35.5-12.3-66-31.9-92.9-58-11.2-10.9-21.9-22.2-31.9-34.2-2.1-2.5-4.1-5.2-7.4-6.3-2.8 1.5-1.5 4.2-2 6.3-1.3 5.4-3.2 10.2-10.1 10.3-5.1.1-6.6 3.1-6.5 7.9.4 18.8-2.8 37.4-2 56.3.1 3.2-.5 6.5-3.6 7.6-9.5 3.3-17.1 10.1-26.3 14.1-9.3 4-18.2 1.6-27.2.5-4.6-.6-9.2-1.4-13.5-3-3.4-1.3-9 .2-10.1-3-1.7-4.9-4.4-9.5-4.9-15-1-12.2.8-24.6-2.7-37.1-7.9.1-15.3 3.6-23.1 5-15.7 2.8-30.6 8.2-45.8 12.8-10.8 3.2-21.7 5.9-32.6 8.4-25.2 5.7-49.8 13.5-74.7 20.4-23.9 6.6-47.7 13.7-72 18.5-14.9 3-29.8 6.2-44.6 9.8-7.1 1.7-7.8 2.8-8.1 10-.2 6.3.1 12.7-.2 19-.6 14.6-1.4 29.2-2.1 43.7-.1 2.3 0 4.7-.5 6.9-2 8.5-4.8 16.2-14.5 19.3-7.5 2.4-14.9 5.6-21.8 9.5-4.5 2.6-8.7 2.8-13.1 1.6-13.1-3.5-26.6-5.3-39.6-9.1-4.7-1.4-6.7-3.4-7.2-7.9-.9-8.2-2.4-16.4-3.1-24.6-1.5-17.8-2.8-35.7-4-53.6-.2-3.6-1.1-5.4-5-5.7-28.7-2.3-57-8.1-85.7-10.7-13.5-1.2-26.9-3.4-40.2-6.1-8.9-1.9-17.8-1.8-26.6-2.6-16.6-1.5-32.4-6.8-48.9-8.8-14.1-1.7-28.1-4.1-42.2-5.8-15.4-1.9-30.8-3.3-46.1-6.9-11.9-2.8-24.2-3.7-36.3-5-21.8-2.2-43.3-6.3-64.6-10.7-12-2.5-24.2-3.5-36.4-5.1-28.2-3.6-56.4-6.9-84.4-12-1-.2-2-.2-3-.3-6.9-.8-8.3.6-5.2 6.7 5.5 11 5.7 23.1 7.4 34.8.9 5.9-1.1 12.5-3 18.4-2.9 9-5.9 18.2-10.7 26.3-3.8 6.4-9.8 11.8-15.6 16.7-12.9 10.9-25.5 22.2-39.4 31.8-3.5 2.4-7 5-10.9 6.9-21 10.5-41.6 22.1-63.1 31.6-15.7 6.9-32.7 10.8-49.5 14.4-18.4 3.9-37 7.7-55.8 9.2-10 .8-20.2 1.7-29.5-4.2-5.5-3.5-6.3-5.1-3.1-11.4 1.3-2.6 1.1-5.2.9-7.8-1.4-21.5-2.3-43-5.7-64.2-1.5-9.1-3.4-18.3-6.3-27.1-.8-2.4-1-5.3-3.9-7.2-4.6 1.7-7.8 5.6-11.9 8.3-13.8 9.1-26.4 20.2-41.9 26.5-2.5 1-2.3 2.9-2.1 4.9.8 8.2.8 16.6 2.8 24.5 3.8 15.5 4.8 31.4 7.2 47.1 2 13.1 3.2 26.3 5.5 39.3 1.4 7.6-3.1 13.8-3.1 20.9 0 1-1.3 2.3-2.3 3.1-12.6 10.1-27 13.6-42.8 12-4.4-.4-4.5-4.3-5-7.5-1.2-7.8-2.5-15.7-3.3-23.6-2.5-24.4-4.6-48.7-7.1-73.1-.7-6.5-1-13.1-4-19.8-18.2 8-37.6 9.6-55.9 15.3-10.3 3.2-21.8 1.8-32.7.5-6-.7-10.4-6-10.5-12.7-.7-24-5.2-47.3-9.8-70.7-4.7-24.1-11.4-47.5-21.3-70-1-2.4-3-4.4-4.2-6.7-2.3-4.3-5.5-6.1-10.5-5.6-7.2.6-14.6-.7-21 .6 0 12.9-.1 25.4 0 37.8.2 36.5.5 73.1.7 109.6.1 11.6.2 23.1 3.9 34.3 1 2.9-.1 5.2-2.9 6.6-.9.4-1.7 1.1-2.6 1.4-11.5 3-23.1 3.9-34.1-.9-7.3-3.2-11.6-9.5-12.4-17.8-1.3-13.6-.6-27.3-.5-40.9.2-37.2.7-74.4-.4-111.6-.1-4.6-.7-9.2-1.2-13.8-.2-1.6-.2-3.6-2.3-3.9-5.3-.8-10.6-.7-15.9-.1-2.1.2-1.9 2.2-2.3 3.8-2.2 7.8-1.4 15.9-1.8 23.8-1 21.6-2.8 43.1-2.3 64.7.3 13.3-2.3 26.5-2.2 39.7.1 20.3-1.9 40.4-1.8 60.7.2 23-.1 46 .1 69 .1 9.2-3 18.1-1 27.5.6 2.9-1.8 5.4-5.2 6.4-7.7 2.1-15.1 4.5-23.4 2.5-8.3-2-16.6-3.2-24.4-7.5-4-2.2-4.2-4.2-4.2-7.6-.4-25.6 1.4-51 3.8-76.5 1.2-11.9 1.4-23.9 1.1-35.9-.1-4.4 1.1-8.5 1.2-12.8.6-19.1 2.1-38.2 2.4-57.2.4-23.2 2.3-46.3 3.7-69.5.7-10.6-1.2-21.3 1-31.8.6-2.9-1.6-3.4-3.4-3.5-21.9-1.9-42.8-8.8-64.4-12-34.7-5.1-68.7-13.7-103-20.8-1-.2-1.9-.7-2.8-.8-15.6-1.4-15.1-4.1-15.7 12-.4 12.5-2.4 25-3.9 37.5-1.7 15.1-3.4 30.2-5.3 45.3-1.9 14.8-4.9 29.4-6 44.2-2.5 32.4-7.4 64.4-13.2 96.3-1.3 7.2-2.1 14.4-3 21.7-.6 5.1-3.1 7.8-8.3 8.1-11.6.7-23.2 1.2-34.6-1.6-9.3-2.3-12.4-5.6-11.5-15.2 2-21.4 3.6-42.9 8.3-64 1-4.5 2-9.1 2.2-13.6 1-24.8 4.3-49.4 7.5-74 1.8-13.4 3.3-26.9 6-40.2 4.4-22 6-44.5 10.1-66.5.7-3.4-1.5-4.1-3.9-4.4-6.4-.9-11.8-4.1-17.4-7-3.3-1.7-4.2-4-5.2-7.6-2.5-9.9.1-19.2 1.9-28.5 1.1-5.7 4.4-7.6 11.2-7.7 10-.1 20 .4 29.9.5 24.6.3 49.1-.3 73.5-3.5 6.4-.8 13.1-.2 19.7.2 10.1.7 20.4-1.1 30.6-2 3.5-.3 7-1 11.9-1.7-2.6-3.6-5.5-5-8.1-6.4-20-10.6-39-23-57.1-36.2-18.1-13.1-37-25.6-52.4-42.3-8.5-9.2-18.4-17.2-28.1-25.3-13.6-11.4-24.6-25.3-35.8-38.8-39-47.5-72.1-98.9-99-154-11.2-22.9-19.8-47-26-71.8-4.4-17.6-10.3-34.9-14.2-52.7-5.7-25.9-8.5-52.2-11.6-78.6-3.3-28.6-2.4-57.2-.9-85.7 1.4-27 2.1-54.2 8.3-81 2.3-9.9 2.3-20.3 4.9-30.4C18.3 547 21 532 25.4 517.4c1.8-5.9.6-11.7 2.4-17.5 7-21.9 16-43.1 25.9-63.6 14.9-31 31.6-61.2 49.2-90.8 14.9-25 30.9-49.3 48.9-72.4 14.6-18.6 29.9-36.5 45.8-53.9 22-24.2 46.5-45.3 72.2-65.4 22.2-17.4 46.4-32.1 67.8-50.6 2.7-2.3 6.3-3.3 9.4-5.2 19.6-11.8 39.6-22.9 60.1-33 13.9-6.8 28.7-12 42.9-18.3 29-12.8 59.9-18.7 90.3-26.5C563 14.6 585.9 9 609.1 6 630 3.4 651 .5 672.3 1.2c10.7.4 21.5-1.6 32.3-1.2 22.2.8 44.4 1.1 66.6 4.3 14.4 2.1 28.6 5 43.1 6.2 9.1.8 17 5.3 25.8 7 33.1 6.1 65.4 15.9 97.5 26 14.8 4.6 29.2 10.6 43.9 15.7 38.8 13.3 74.4 33.1 109.5 53.8 37.8 22.3 72.3 49.2 103.8 79.8 6.2 6.1 12.2 10.6 21.1 12.9 16.4 4.3 30.7 13.8 44.9 22.8 14.8 9.4 28.5 20.6 41.1 32.9 3.9 3.7 6.8 8 10.2 12 18 20.8 30.2 44.9 41.8 69.6 9.4 20.2 16.7 41 21.3 62.7 1.6 7.7 4.2 14.2 9.3 20.1 14.7 17.1 18.8 37.9 18.3 59.5-.4 17.4-7.1 25.4-23.7 29.8-4.4 1.2-6.2 2.3-6.2 6.9.2 14.2-3.5 27.6-9 40.5-2.4 5.7-2.4 10.4.3 15.9 7.8 15.8 11.3 33.2 16.5 49.9 5.7 18.4 7.1 37.7 9.7 56.7 3.2 23 3.4 46.2 5.8 69.2.3 3-.6 5.9-.8 8.8-.6 6.3 1.8 8 7.9 7 9-1.4 16.7-6.4 25.4-8.4 13.8-3.3 27.8-7.2 40.3-13.3 14.3-6.9 27.9-5.5 42.1-3.4 1.6.2 3.3.8 5.2-.4-1.4-6.8-5.1-12.7-8.6-18.6-11.4-19.5-23.2-38.6-34-58.4-4.6-8.4-4.7-8.4 2.3-14.9 6.5-6.1 14.8-8.6 22.9-11.4 2.6-.9 4.2.6 6.6 2.5 6.2 5 9.7 11.5 12.8 18.4 7.1 15.7 17.8 29.4 25.5 44.7 7.8 15.4 17.2 29.9 26.4 44.5 1.2 2 2.3 3.8 2.9 6.2 1.2 5.5 5.2 7.9 10.8 6.9 28-4.8 55.6-11.6 83.4-17.4 31.8-6.7 62.2-17.3 92.8-27.9 19.6-6.8 38.5-15.2 57.9-22.7 18.8-7.2 36.3-17.2 54.4-25.7 25.2-11.8 49.4-25.6 75.5-35.3 3.5-1.3 6.6-2.2 9.3-5.1 3.2-3.6 8.1-2.3 12.3-2.4 15.6-.7 30.9 2.3 45.7 6 19.5 4.8 39.1 10.2 57.6 18.6 41.6 18.9 83.6 37 122.2 62 18.7 12.1 37.8 23.4 55.3 37.1 11.5 9 23 17.9 33.1 28.4 9.9 10.3 14.6 23.5 19.3 36.6 5.4 15.1 8.1 30.8 9.2 46.6.7 10.1-.5 20.3-1.1 30.4-1.4 24.1-3.7 48.2-7.8 72.1-3.4 19.7-9.6 38.6-16.6 57.2-10.8 28.5-21.4 57-31.6 85.7-7.4 20.7-12.6 42-15.7 63.5-2.9 20.2-4.3 40.8-1.7 61.5 1.7 13.5 3.5 26.7 6.8 39.9 1.3 5.3 3 8.4 8.8 10.4 24.2 8.2 48.9 13.4 74.3 15.9 14.4 1.4 28.3-1.1 42.4-2 31.1-1.9 60.5-11 89.4-21.4 20.8-7.5 41.1-16.7 59.4-29.6 3.8-2.7 8.7-1.9 12.8-4.7 10.2-6.9 20-14.2 29.7-21.9 5.4-4.3 10.3-9.4 15.8-13.6 23.2-17.8 38.1-42 52.1-67 10.4-18.7 17-38.8 23.4-59 2.5-8 2.9-16.3 3.7-24.5 2.7-27.3.5-54.3-6.7-80.9-4-14.6-12.8-26-22.5-37-4.2-4.7-8.9-9-12.7-14-3.1-4.1-5-2.9-7.8 0-16.9 16.9-28.1 36.5-31.7 60.6-1.8 12-4.1 24.1-3.3 36 .8 12.3.7 25.1 6.9 36.8 2.4 4.6 2.9 10.2 4.6 15.1 4.8 12.9 11.6 25 17.7 38.6zM530.7 1327.6c-1.5-.7-2.9-1.6-4.4-2.1-20.2-6.1-40.4-12.3-60.7-18-16.5-4.6-32.6-10.4-48.6-16.5-4.1-1.5-7.5-2.9-6.3-8.2 6.1-1.1 10.7 3 16 4.7 16.1 5.1 32.4 9.3 48.4 14.4 18.2 5.8 37 9.6 55.3 15.2 16.4 5 33.5 7.7 50.1 11.9 23.2 5.9 47.1 6.7 70.7 10.3 14.4 2.2 28.9 3.6 43.4 4.8 14.5 1.2 29.2 3.2 43.6 2.2 11.1-.8 22.2-.3 33.2-.6 23.1-.5 46.2-.8 69.3-2.2 19.2-1.1 38.3-3.1 56.9-8 1-.3 2-.4 3-.5 1.3-.1 2.8-.1 3.4 1.3.8 1.8 0 3.5-1.5 4.3-3.3 1.6-6.6 3.1-10.1 4-5.1 1.3-10.4 2-15.6 3-4.8-.9-9.1 1.3-13.7 1.7-11.9 1-23.7 2.8-35.6 3.2-17.1.6-34.2 2.3-51.4 1.2-7.5-.5-15.8-2.5-23 3 5.4 0 10.3 2.4 15.6 2.2 17.8-.7 35.6 2.4 53.5.3 16.4-1.9 33-1.2 48.6-8.1 1.1-.5 2.6-.1 4-.1 1.6 6.5 1.5 6.9-4.8 8.5-19.9 5.1-40.3 7-60.7 9.3-5.1.6-10.3.1-16.1 2.1 4 5 7.4 9.4 11 13.7 1.9 2.3 3.8 4.6 4.5 7.6.6 2.6 1.4 5.8-2 6.8-3.1.9-7 3.4-9.6-1.4-.9-1.8-1.6-3.7-2.8-5.3-8.6-11.8-16.9-23.9-34.4-22.5-10.4.8-10.4.2-9 10.4.1 1 0 2 .1 3 2.7 24.3 5 48.7 8.2 73 1.3 9.4.8 19.1 4.1 29.7 19.6-15.3 41.5-26.4 52.9-49.2 1.3-2.6 3.3-5.4 6.7-5.2 3.6.2 4.7 3.4 5.8 6.1 6.4 16.3 13 32.5 14.6 50.3.5 5.6.8 11.3 2 16.7 3.8 17.9 5 36 5.6 54.2.3 8.8 3.9 12.5 12.9 12.2 5.3-.2 10.5-1.7 15.7-2.1 18.3-1.3 36.1-4.3 53.6-9.7 12.3-3.8 25.1-6.3 36.7-12 30.7-15 60.9-30.7 87-53.2 16-13.8 33.1-26.6 41.4-47.2 1.4-3.4 2.5-6.7 2.8-10.4 1.7-24.6-5.1-46.6-20-66.1-14.3-18.7-34-26.5-56.9-27.6-4.4-.2-6.2 1.3-7.3 5.8-5.2 20-13.9 38.6-25.8 55.6-6.1 8.7-12.4 17.3-21.3 23.6-1.8 1.3-3.5 2.2-5.4.8-1.5-1.1-1.5-2.8-.8-4.5 6.6-15 9.2-31 12.2-46.9 3.5-18.8 6.9-37.6 5.3-56.9-.4-5.1 2-8.3 6.9-9.3 5.3-1.1 9.8-3.9 14.8-5.7 38.1-13.3 72.5-33.9 107.4-53.7 20.9-11.8 40-26.1 58.2-41.8 15.1-13 30.3-26 44.3-40.1 22.5-22.6 42.9-47.1 62.7-72.2 15.7-19.9 28.7-41.3 39.2-64.2 4.7-10.2 8.4-20.9 13.9-30.8 1.6-2.9 4.1-6.4 1.5-10.7-3 .8-6.1 1.5-9.2 2.4-30.6 9.2-62.2 12.3-93.9 14.3-17.5 1.1-35-.4-52.6-3-30.9-4.5-61.2-11-90.4-22.5-6.6-2.6-12-7-18.4-9.7-24.8-10.7-47.8-24.3-68-42.5-4.4-4-8.7-8.2-12.8-12.5-1.3-1.4-2.8-3.5-1.1-5.3 1.5-1.6 3.8-.7 5.7-.3.9.2 1.7 1 2.4 1.6 7.9 7.1 16.7 13 25.4 19.2 11.6 8.3 23.2 17 36.2 22.6 23.6 10.2 46.3 22.7 72 27.8 20.3 4.1 40.2 10.3 61.2 10.7 8.9.2 17.8.3 26.8 1.5 8.5 1.1 17.3.6 25.9-.1 15.1-1.2 30.1-3.7 44.9-7.1 18-4.2 35.9-8.8 53.3-15.4 18.2-6.9 34.6-16.9 50.8-26.9 14.5-9 30.6-15.8 42.6-28.6 3.3-3.4 6.2-3 9.7-.8 8.2 5 16.9 9 25.8 12.6 20.7 8.3 41.2 8.6 61.5-1 10.1-4.7 19.6-4.4 29.3 1.4 7.3 4.3 7.5 4 13.4-1.8 2.4-2.3 4.7-4.8 7.1-7.1 3.8-3.6 8.5-5.8 13.4-3.4 4 1.9 6.2.4 8.8-1.9 6-5.3 11.8-10.6 18.7-14.9 5.2-3.3 7.4-9 5.1-14.7-6.8-17.1-15.8-32.9-31-44.2-1.6-1.2-3.4-1.9-4.7-3.6-1.6-2.1-1.9-4.3-1.1-6.6.9-2.5 3.4-1.7 5.2-1.6 10.8.7 20.6 4.2 30.1 9.3 6 3.3 11.4 7.5 17.7 9.6 4.5-4.3 6.6-9.2 8.4-14.2 4.3-11.8 1.5-20.1-9.9-25.5-9.3-4.5-17.6-10.4-26.2-16-12.3-7.9-25.2-14.8-39.1-19.4-16.2-5.4-32-12.2-48.9-15.3-17.3-3.2-34-5.4-51.7.9-27.4 9.8-55.6 17.3-83.5 25.7-1.9.6-3.9.9-5.9.9-7.4-.2-14.4 1.7-21.5 3.2-14.6 3.1-29.6 4.2-44.3 4.3-12 0-24.4-1.5-36.6-2.8-28.5-3.1-56.3-9.5-82.9-19.3-32.1-11.8-61.7-28.7-88.4-50.7-12.9-10.7-22.3-24.3-34.1-35.9-4.1-4-4.9-10.6-6.6-16.3-.4-1.2 0-2.7 1.5-3.3 1.5-.6 2.5.4 3.4 1.4.6.8 1.1 1.6 1.7 2.4 8 11.9 18 21.9 28.3 31.8 14.7 14.1 31 25.8 48.3 36.5 15.3 9.4 31.5 16.8 48.2 23.1 18.9 7 38.6 10.7 58.2 15 37.1 8.2 73.9 7.2 110.8-.2 8.3-1.7 7.9 0 7.9-9.4.1-14.1 1.2-28.1.5-42.3-1.4-25.8-1.5-51.6-6.4-77.1-4.6-23.7-7.9-47.7-19.7-69.3-3.7-6.8-3.5-14.4-.4-20.7 7.1-14.2 9.6-29.4 11.5-44.8 1.1-9.4 1.4-10.1 10.3-11.3 11-1.5 23.7-15.7 21.4-30.3-2.8-18-10.5-33.4-24-45.7-2-1.8-3-3.8-3.5-6.7-4.2-25-13.3-48.6-22.9-71.8-10.1-24.6-24.9-46.9-42.5-66.9-14.8-16.9-30.6-33.2-51.1-43.4-14.8-7.3-30-14.3-46.9-15-2.8-.1-4-1.2-5.5-3.2-7.3-9.8-15.9-18.6-25.1-26.5-20.8-17.9-41.3-36.2-64.7-50.9-15.1-9.5-29.2-20.7-45.3-28.7-33.8-16.9-69-30.3-104.2-43.9-26.5-10.2-53.4-19.5-80.9-26.1-31.1-7.5-62.2-15.4-94.1-19.6-21.3-2.8-42.5-6.9-64.1-6.8-13.6.1-27.3-.1-40.9.6-7.2.3-14.4-.6-21.4.1-26.6 2.9-53 6.4-79.3 11.3-13.7 2.5-27.2 5.7-40.6 9.2-22.6 6-45.6 10.8-67.5 19.2-13.9 5.3-28.2 9.3-41.7 15.7-28.5 13.6-55 30.4-81.9 46.8-20.1 12.3-38.9 26.4-57.9 40.4-18.2 13.4-35 28.5-51.9 43.3-9.4 8.2-16.7 18.6-26 26.7-14.1 12.2-25.1 27.1-37.6 40.8-19.9 21.9-34.3 47.9-50.8 72.3-11.1 16.4-19.7 34.4-29 52-16.5 31.1-31.6 62.8-43.8 95.8-6.2 17.7-12.9 35-15.6 53.3-4.2 28.4-11.9 56-13.6 85-1.3 21.8-3.5 43.5-4.5 65.4-.9 19-2.5 38.2-.1 56.9 3.6 27.9 6.3 56.1 13.4 83.6 3.9 15.3 7.2 30.8 11.5 46 9.3 32.6 22 63.9 36.7 94.4 9.2 19.1 19.7 37.5 31.7 55.2 10.4 15.4 20.8 30.7 31.8 45.6 14.6 19.6 29.8 38.9 48 55.5 21.2 19.4 39.6 41.9 63.4 58.5 5.7 4 11.3 7.9 16.8 12.2 11.1 8.8 22.3 17.7 34.4 25 7.9 4.8 15.6 9.9 23.7 14.3 10.2 5.5 19.2 12.9 30.3 17.2 6.1 2.4 11.5 7.3 14.7 13.6-.9 3.5-3.7 4.9-6.7 4.6-6.7-.7-13.2 1.2-19.8 1.4-21.2.5-42.5 1.5-63.7 2.5-17.9.9-35.7 2.6-53.7 2.1-10.3-.3-20.7 0-31 0 1.4 1.9 3.1 2.9 5 3.3 24.7 4.6 49.6 8.2 74.3 13.3 21.4 4.4 42.8 8.3 64.3 12.3 12 2.2 24.1 4.3 36.2 6.4 14.3 2.5 28.8 4.2 43 7.6 24.1 5.8 48.7 5.2 73.2 6.2 6.2.3 12.4-1.6 18.7-.9 6.6.7 13.1.3 19.6-.9 3.1-.5 6.2 2.8 10.8-.1-4.6-1.8-7.8-1.3-11-1.2zm2049-231.1c.7.4 1.5 1 2.2.2.6-.7.2-1.5-.4-2.2-2.8-8.5-5.3-17.1-8.5-25.4-5.5-14.3-8.4-29.3-11.1-44.3-3.1-17.6-1.7-35.4 2.7-52.2 7.6-28.9 26.3-50.8 51.3-66.3 29.2-18.1 61.3-28.3 96.3-27.5 1.9 0 4.7 1.6 6-1.8-14-7.6-28.7-13.5-43.2-19.9-21.9-9.5-44.1-18.3-66.4-26.7-25.4-9.6-51.7-16.7-77.3-25.9-5.1-1.8-10.3-1.9-15.7-.6-20.3 5-37.8 16-54.8 27.4-18.8 12.6-34.7 28.9-50.5 45-12.9 13.1-23.7 27.7-31.6 44.4-4.8 10.2-10.2 20.2-14.1 30.8-4.5 12.1-8.9 24.3-11 37.1-.7 4.1-.1 5.7 4.6 6.4 9.1 1.3 18.3 3.2 27.2 5.7 30.3 8.5 59.4 20.5 87.6 34.2 22.3 10.8 43.7 23.6 65.2 36 14.1 8 27.7 17 41.5 25.6zM2278 818.9c-3.5.1-6.6-.8-9.2-3-14.6-12.4-32.6-17.7-50.4-22.3-18.9-5-38.7-4.7-58.2-5.9-12-.7-23.4 3.9-35.2 5.3-5.2.6-10.3 2.4-15.5 3.7-2.7.7-4.8 1.6-3.5 5.5 2.7 8.3 1.7 16.9 1.2 25.5-1.1 21.6-2.1 43.1-8.8 63.9-1.7 5.2 1.3 5.3 4.8 6 26 5 52.2 9.4 77.9 16.2 8.1 2.1 12.2 7.3 13.9 15 2.5 11.5 2 23.1-.6 34.5-1.3 5.5-3.7 10.4-11 10.8-4.6.3-9 2.1-13.6 3-8.8 1.7-9.3 1.7-8.9 10.6 1 24.3-1.8 48.4-2.4 72.6-.4 15.2-2.8 30.4-3.6 45.6-.8 16.2-1.1 32.5-1.5 48.7-.7 27.5-1.7 55-2.7 82.5-.8 20.3-2.1 40.5-2.5 60.8-.2 7.7 2.3 13.6 6.7 19.1 12.6 15.4 25.2 30.8 39.8 44.6 23 21.6 47.2 41 76 54.5 12.7 6 25.8 10.1 39.3 13.2 4.8 1.1 9.5 3.5 14.6 2.3 7.9 3.9 16.7 2.9 25.1 4.9 18.2 4.3 37 3 55.5 2.3 14.5-.5 28.9-2.6 43.3-4.9 21.6-3.5 43.4-4.2 65.1-7.8 30.7-5.1 61.4-10.4 91.6-18.2 31.1-8 61.1-18.9 90.8-31.4 24.1-10.1 46.2-23.1 65.9-40 15.1-12.9 29.3-27 43.6-41 12.7-12.4 23.3-26.4 33-40.9 13.7-20.3 25-42 32.6-65.5 4.9-15.1 11.4-29.8 11.7-46 .4-19.7 1.7-39.5 0-59.2-1.2-13.9-2.5-27.8-6.8-41.1-9.1-27.9-22.4-53.9-39.8-77.5-12.2-16.6-25.1-32.6-42.4-44.5-11.8-8.2-25-13.7-37.1-21.2-11.8-7.3-24.9-10.2-38.6-11.8-23.2-2.8-44.9 2.6-66.2 10.6-8.5 3.2-17.4 6-24.8 12 1.2 1.8 2 3.3 3.1 4.5 15.9 16.4 25.5 36.8 31.7 58 7 23.7 10.3 48.4 7.2 73.5-3 23.6-6.6 47-17 68.8-3.1 6.6-4.7 14-8.4 20.1-9 14.7-17.3 29.7-27.5 43.8-14 19.3-30.4 36.3-49.1 50.5-16.5 12.5-34.4 23.4-52.8 33.6-31.7 17.5-65.5 28.6-100.1 37.7-14.1 3.7-28.5 5.4-42.9 7.8-16.8 2.8-33.8 3.5-50.6 2.1-11.1-.9-22.3-1.3-33.4-4.4-11.2-3.1-22.5-6.8-34.5-7.6-.1 1.4-.4 2.4-.3 3.3.2 1.6.5 3.3.9 4.9 11.1 40.7 30.2 77 59.9 107.4 3.4 3.4 4.2 6.5 2 10.5-6.8-.3-11.4-4.2-15.7-8.9-28.6-31.5-44.4-69.8-57.6-109.2-4.7-14-8.5-28.5-11.6-43.1-2.5-11.7-4.1-23.7-3.6-35.4.9-26.1 2.8-52 7.9-77.8 4.2-21.2 10-41.8 16.4-62.3 10.1-32.5 24-63.6 33.2-96.5 7.4-26.6 11.2-53.7 14.3-80.9 2-17.7 2.6-35.8 2.1-53.7-.2-9.4 1.8-19.3-3.6-28.1-.4-2.3-.9-4.6-1.3-6.8-1.5-8.8-8.2-15.2-10.8-23.4-2.5-7.6-7.8-13-13.6-17.9-17.8-14.8-36-29.3-56.3-40.7-12.4-7-25-13.8-36.9-21.5-15.6-10.1-31.4-19.9-48.3-27.7-23.7-11.1-47.1-22.7-71.7-32.1-21.1-8.1-42.9-13.7-64.6-19.4-13.9-3.6-27.8-.8-41.6 4-19.9 7-38 17.2-56.5 26.8-14.7 7.6-28.3 17.2-43.7 23.5-14.7 6-28.8 13.5-43.6 19.2-19 7.4-38.3 14.3-57.3 21.6-30.4 11.7-62 18.9-93.2 27.3-17.4 4.7-35 8.5-53.3 12.9 3.3 3.3 6.6 4.8 9.9 6.1 13.5 5.3 25.1 13.3 35.3 23.8 2.6 2.7 4.4 5.6 6.1 8.8 5.4 10.3 4.2 21 2 31.9-1.1 5.3-3.1 10.2-6.4 14.4-2.7 3.4-5.7 5.2-10.3 2.8-4.1-2.1-8.9-2.6-12.5-5.7-1.3-1.1-2.9-1.7-4.2 0-.4 1.5.3 2.5 1.1 3.6 4.7 6.9 8.8 14.2 10.4 22.4 1.3 6.5 3.2 14.3-.7 19.3-9.4 11.9-20.5 22.6-35.1 28.5-3.2 1.3-6.6 2.1-9.5-.3-3.5-2.9-5.9-1.5-8.3 1.4-1.3 1.5-2.6 3-4 4.5-3.6 4.1-8.4 6.8-13.4 8.4-3.4 1.1-6.6-2.6-9.9-3.9-.3-.1-.6-.4-.9-.5-8-3.3-15.3-4.4-23.5.8-12.6 8-26.9 11.4-41.9 9.7-17.3-1.9-34.1-5.5-48.7-15.7-1.4-1-3-2.2-4.5-.9-6.7 5.7-14.9 9.5-21.4 16.6 5.1 2.2 9.7 2 14.2 2.4 11.2.9 22.5 1.8 33.6 3.2 10.2 1.3 20.2 3.5 30.4 5 13.4 2 26.9 3.8 40.5 4.8 5.4.4 10.3.6 15.5-.8 17.2-4.8 34.5-9.4 51.7-14 25.6-6.8 51.4-12.9 76.8-20.5 29.8-9 59.9-16.7 89.9-25.1 20.1-5.6 40.5-10 60.7-15.3 17.9-4.7 35.8-9.7 53.6-15.2 20.3-6.2 40.6-12.3 60.6-19.4 11.3-4 22.1-9.3 33.4-12.9 24.4-7.8 47.2-19.1 70.1-30.3 16.1-7.9 31.7-16.7 48.6-22.8 10.2-3.7 20.4-7.6 31.5-8.5 14.5-1.2 28.9-3.5 43.3-4 21.2-.7 42.2 1.1 62.7 8.3 16.3 5.8 29.5 16.2 43.7 25.3 2.5 1.4 5.3 3.8 3.2 7.9zM988.5 1381.2c3.5-.9 4.4-3.9 5.6-6.6 4.4-10.1 7.9-20.4 9.9-31.2 1.3-7.2 2.3-8.3 9.4-8.6 8.5-.3 17-.7 25.7.2 23.1 2.4 40.1 14.3 53.9 31.8 2.7 3.4 5.5 5.3 9.7 6 11.7 2.1 23.6 3.5 35.3 5.5 24.7 4.2 49.8 6.5 74.7 10.1 21.6 3.1 43.1 7.2 64.8 10.1 16.8 2.3 33.2 6.4 49.9 9 13.4 2.1 26.9 3.5 40.2 6 22.5 4.2 45.2 6.6 67.8 9.5 31.2 4.1 62.2 9.4 93.5 13.2 18.7 2.3 37.5 4.3 56.1 7 22 3.2 44 6.2 66 9 8.5 1.1 16.7 4.4 25.6 3.2 5-.7 7.5-2.1 7.9-7.9 1.6-22.2 1.9-44.4 1.9-66.7 0-28.9.2-57.9.5-86.8.1-13.6 1.3-27.2 1.6-40.8.3-20.9-.2-41.8 1.7-62.7.9-9.9 1.1-20 .7-29.9-.6-15.6 0-31.1.3-46.7.3-15.2-.1-30.4-.1-45.7 0-3.1-1-4.9-4.4-5.3-17.8-1.9-35.6-4.4-53.4-5.8-14.9-1.2-29.6-3.8-44.4-5.2-12.5-1.2-24.8-4.2-37.5-4.5-11.6-.2-23.4-1.2-34.7-3.1-33.7-5.6-67.7-7.8-101.5-12.8-21.6-3.2-43.4-5.1-65.1-7.9-11.4-1.5-11.9-1.5-17 9-6.6 13.5-13.6 26.6-22.4 38.8-9.9 13.7-18.7 28.3-29.3 41.4-14.2 17.5-29.5 34.1-44.6 50.8-15.2 16.7-31.9 32-48.8 46.9-23.7 20.8-49.6 38.6-76.4 55.2-24.6 15.3-50.5 28-76.3 41.2-10.6 5.4-21.9 9.6-33 14-5 2-7.4 4.9-7 10.5.8 14.1-2.7 27.7-5.9 41.3-.8 2.7-3.1 5.5-.9 8.5zm1159.9-399.9c-20.6 3.6-40.6 8.2-61 10.8-23.3 3-45.8 10.8-69 14.6-15.4 2.5-30.5 6.6-45.7 9.7-14.9 3-29.9 5.6-44.9 8.2-26.4 4.6-52.7 10.2-79.1 14.8-25.8 4.5-51.4 9.7-77 15.1-20.5 4.3-41.2 6.7-61.7 10.4-8.3 1.5-8.7.8-8.8 9.5-.3 28.3-.8 56.6-.6 84.9.1 16.9-1.3 33.7-2.4 50.5-1.6 25.8-2 51.6-2.8 77.4-1 36.9-.5 73.8-.5 110.7 0 8.6 1.8 17 .5 25.7-1 7.2-.2 14.6-.2 22 0 3.7 1.2 5.7 5.4 4.5 1.9-.6 4-.4 5.9-.9 16.7-4.4 33.7-7 50.5-10.8 22.3-4.9 44.3-11.3 66.5-16.7 27.7-6.7 55.3-14 83-20.9 9.3-2.3 19-3.5 27.9-6.8 29.9-11.1 61.2-17.4 91.8-26.1 34.7-9.9 69.1-21.3 104.2-29.8 4-1 4.6-2.7 4.6-6 0-11.6.6-23.2 1.1-34.9 1.2-31.9 1.7-63.7 4.1-95.6 1.9-25.2 3.1-50.4 4-75.6.6-18.9.4-37.9 2-56.8 1.5-18.9 2.4-37.8 2.4-56.7-.1-10.5 1.8-20.8-.2-31.2zm25.2-59.3c-2.3-.6-3.5-.9-4.7-1.2-15.1-4-30.8-4.8-46.1-7.7-24.4-4.5-49-8.5-73.3-13.8-25.3-5.5-50.6-10.8-75.8-16.5-14.6-3.3-28.9-7.4-43.5-10.5-5-1-9.1-1.7-14-.1-26.2 8.5-52.7 16.1-79.5 22.5-22.9 5.5-45.2 12.7-67.9 18.6-16.6 4.3-33.2 9.1-49.8 13.8-38.6 10.9-77.1 21.8-115.7 32.6-18.8 5.3-37.6 10.6-56.8 14.4-6.5 1.3-13 1.5-19.7.1-25.3-5.4-51-8.2-76.7-10.6-13.2-1.3-26.4-2.7-39.6-3.9-5.6-.5-11.1-.4-16.3 3-5.8 3.8-12.3 6.6-18.4 10-1.6.9-4.2 1-3.3 4.3 7.2.4 14.4.6 21.6 1.3 15.8 1.5 31.7 2.6 47.4 5.1 9.5 1.5 19.2 1.2 28.7 3.1 16.3 3.3 33 2.6 49.4 5 14.4 2 29 2.8 43.5 4.5 15.1 1.7 30.2 4.4 45.3 5.5 25.8 1.8 51.3 5.4 76.9 9 7.4 1.1 15 2.9 22.6 1.2 12.7-2.8 25.6-3.5 38.3-5.9 22.4-4.3 45.2-7 67.6-11.2 22.8-4.3 45.5-8.9 68.3-13.3 50.1-9.6 100.1-19.7 149.8-30.9 26.5-5.9 53.4-10.2 79.7-17 2.5-.6 5.1-2.2 7.5-2.1 12.8 1 25-2.7 37.4-4.3 5.6-.9 11.1-2 17.1-5zm-458.9 133.2c22.1-4.1 43.3-7.7 64.4-12.1 33.1-6.9 66.2-13.4 99.4-19.6 32.9-6.2 65.5-13.4 98.1-20.5 27.8-6 55.9-10.4 83.8-15.7 21.5-4 42.8-9 64.3-13.1 18.9-3.6 37.5-8.4 56.5-11.3 4.4-.7 7-2.6 6.2-7.1-1.1-6.3.1-12.6-.5-18.9-.8-7.8-2.6-9.2-10.4-7-11.8 3.4-23.9 5.2-35.9 7.6-18.5 3.7-37.2 7-55.7 10.8-27.2 5.6-54.5 11.1-81.6 17.5-12.3 2.9-24.7 4.7-37 7.3-23 4.9-45.7 10.5-68.9 14.3-18.3 3-36.5 6.4-54.7 9.9-13.6 2.6-27.3 5.3-40.8 8.4-15.6 3.5-31.5 4.3-47.2 7-12 2.1-23.8 5.8-36.1 6.2-5.1.1-6.4 3.2-5.6 7.3 2.1 9.2 1.1 18.6 1.7 29zM729.6 1594c1.1 11.2 2 22.4 3.2 33.5.7 7.1 4.4 10.1 11.3 8.8 5.2-.9 10.1-2.7 14.7-5.7 12.5-8.1 12.8-8.8 10.5-23.4-3.6-22.6-7.3-45.2-10.2-67.9-4.5-35.2-8.4-70.4-12.6-105.6-1.9-15.8-3.4-31.6-5.1-47.4-.9-8.4-2.3-17-1.3-25.6.7-6.2.2-7.2-6.2-7.1-15.3.1-30.5-1.2-45.8-1.9-23.9-1.2-47.5-4.5-71.1-8.1-16.7-2.6-33.3-5.8-50.4-4.9-13.6.7-27.3.7-41 .7-22 0-44-.4-65.9-.6-2.9 0-6.1-.9-8.3 2.1-1.4 1.9-5.5 21-4.3 22.1 4.2 4.1 8.8-.9 13.2.3.3.1.7 0 1 0 12.8.5 25.5 1 38.4.3 12.6-.7 25.2-.1 37.8-.3 22.5-.4 45-.8 67.6-1.7 28.2-1.1 56.5-.6 84.6-4.2 12.8-1.7 16.3 2 17.3 14.7 1.1 14.2 1.9 28.4 3.9 42.6 1.6 10.8 2.8 21.7 4.1 32.6 1.9 15.8 3.7 31.6 5.4 47.4.5 4.7 3.8 9 3.6 13.3-.9 17.2 2 34.2 2.7 51.3.6 11.7 2.2 23.2 2.9 34.7zm-136.2-220.9c4.2 12 8.5 23.1 11.2 34.8 3.9 16.8 6.8 33.7 9.8 50.7 2.6 14.3 5.8 28.5 7 43.1.7 7.9 1.2 15.8 1.6 23.7.1 3 .6 4.8 4.6 4.2 12.4-1.8 25.1-2.4 37.3-5.1 14.5-3.2 28.5-8.5 42.6-13.4 3.7-1.3 4.8-3.2 4.5-6.5-1.1-11.8-1.5-23.8-3.7-35.5-3.3-18.2-4-36.7-6.8-54.9-2.1-14.4-4.5-28.7-6.7-43.1-.4-2.9-1.7-3.3-4.8-3-13.5 1.5-27.1 2.7-40.7 2.7-13.2 0-26.4-.2-39.5.1-5 .3-10.4-.2-16.4 2.2zm1098.4-319.8c13.6.1 13.6.1 14.5-13.7.2-3.3.3-6.7 0-10-.7-8.1-2.1-9.5-10.4-10.1-11.6-.9-23.2-2-34.7-3.3-15.5-1.7-30.9-2.8-46.4-3.8-10.2-.7-20.7-.4-30.7-2.1-21.2-3.7-42.6-5.8-63.9-8.7-24.3-3.3-48.8-5.3-73.3-6.5-24.8-1.3-49.1-7.3-73.9-9.4-17.2-1.4-17.1-2.3-23.9 13.5-1 2.4-1.5 5.2-2.6 7.5-2.3 4.8.2 6 4.2 6.2 5.6.3 11.5-.5 16.9.9 16.8 4.4 34.1 4.6 51.1 6.9 15.1 2 30.2 4.2 45.2 6.4 13.1 2 26.2 4.3 39.3 6.1 19.4 2.7 38.8 5.5 58.2 7.3 15.8 1.5 31.6 4 47.5 5 12.2.7 24.5 1.1 36.7 2.5 15.4 1.9 30.8 3.6 46.2 5.3zM459 1594.2h.4c0-19.6-.7-39.3.2-58.9.7-15.5 1.8-31.1 2.4-46.6.9-21.9 1.9-43.8 2.7-65.6.3-8-.5-16 .7-23.8 1.1-7 .4-13.9.9-20.9.3-3.4-1.3-4.8-4.6-4.8-8-.1-15.9-.3-23.9-.7-2.7-.1-3.4 1.4-3.7 3.6-.3 2.6-1.3 5.3-1 7.9 1.5 14.2-4.4 28.3-1.2 42.5-3.8 26.6-3.3 53.5-4.5 80.2-1.2 26.2-4 52.3-4.5 78.5-.1 7 .2 14.1-.9 20.9-2.3 15.2-1.6 30.4-1.8 45.6-.1 5.5 2.5 8.3 7.5 8.6 6.3.4 12.5 1.6 18.8 2.1 11.4 1 12.3 0 12.4-11.6.1-19.1.1-38.1.1-57zM193.3 1326c-2.8 21.6-5.5 42.3-8.2 62.9-1.8 13.1-3.1 26.4-5.7 39.4-3.6 18.2-6 36.6-8.3 55-2.1 16.7-3.5 33.6-5.6 50.4-1.9 15.1-4.3 30.2-6.4 45.3-1.4 9.9-.3 10.4 9.7 11.8 6.6.9 13.3.4 19.9.9 6.9.5 7.1.7 7.7-5.9 1.9-20.8 5.7-41.3 7-62.2 1.3-21.8 4.8-43.4 7.7-65.1 5.3-39.7 10.7-79.5 14.4-119.4.5-4.8-.1-6.8-4.6-7.6-8.8-1.8-17.5-3.5-27.6-5.5zm251 12.1c-2.4-2-5.3-2.4-8.3-2.9-12.7-2.3-25.4-4.5-38.1-7.1-17.5-3.5-35-6.5-52.6-9.5-6.9-1.2-13.9-.5-20.7-2.3-16.7-4.4-34-5.5-50.8-9.2-16.4-3.6-33.2-6-49.7-9.4-16.5-3.4-33.3-5.6-50-8.3-1.9-.3-4.5-1.2-5.3 1.1-1.7 5.3-4 10.9-2.8 16.4 1 4.8 6.7 3.3 10.1 5 1.7.9 3.8 1.1 5.7 1.5 13.9 2.5 27.9 4.6 41.8 7.5 33.1 6.8 66 14.3 99.1 21 36.7 7.4 73.3 15.1 110.3 20.8 5.5.9 6.5-1.5 7.3-5.1 1.6-6.4 2.7-12.9 4-19.5zm1642.3-534.5c-15.9 3.2-28.5 11.4-41.8 17.7-21.2 10.1-42 21-64.4 28.6-10.1 3.4-19.8 7.9-31.6 12.6 27.8 6.7 53.5 12.8 79.2 19 14.8 3.5 29.5 7 44.3 10.7 3.9 1 5.7.8 7.1-3.8 4.4-14.9 10.1-29.4 9.2-45.4-.2-3.3.4-6.6 1-9.9 2-10.1-.5-19.6-3-29.5zM537 1402c0-3.5.4-7.9-.1-12.2-.7-5.2 1.7-11.8-1.7-15.4-3.6-3.9-10.1-.1-15.2-.8-2-.3-4 .1-6 0-3.3-.2-4.5 1.4-5.1 4.6-.9 5.4.3 10.6.3 15.9l-2.1 120.4c-.1 5.3-.3 10.6-.7 15.9-1.2 17 2.5 21.7 19.4 24.6 2.9.5 6 .2 8.9.5 4.2.4 5.8-1.1 5.7-5.6-.4-12.6-.7-25.2-1.1-37.8-1.3-36.4-1.6-72.9-2.3-110.1zm1151.3 103.2c0-11.3-.1-22.6.1-33.9.1-4.2-1.2-6.1-5.6-5.8-10 .8-19.8-1.3-29.8-2.2-7.7-.8-7.7-.6-7.9 7.1-.6 21.9 3 43.7 3.4 65.6.1 4.2 1.8 6.7 6.3 7.4 9.8 1.6 19.5 3.8 29.3 5.5 4.6.8 6.9-.8 6.1-5.1-2.3-12.8-.3-25.7-1.9-38.6zm-125.8-746c-.4-5.4-2.9-8.5-5-11.6-12.4-17.7-22.8-36.5-32.8-55.6-6.8-12.9-12.7-26.2-21.8-37.8-3.3-4.3-6.2-5.4-10.7-3-1.2.6-2.4 1-3.6 1.7-7.3 4.2-7.7 5.3-3.6 12.4 4.4 7.8 9.1 15.3 13.3 23.2 9.6 18.2 19.8 36 29.2 54.3 1.8 3.5 3.2 6 7.1 6.9 9.2 2.3 18.2 5 27.9 9.5zm165.8 696.2c-7.7 1.5-14.8 2.7-21.9 4.4-9.4 2.3-9.9 2.8-9.9 12.7 0 15.9.2 31.9.6 47.8.2 8.9 1.1 17.7 1.8 27.6 7.6-2.2 14.1-5.4 20.8-7.9 5.7-2.1 7.5-5.6 7.3-11.3-.3-12.5.4-25 1.1-37.6.7-11.5.2-23.1.2-35.7zm392-103.2c-8.5 1-15.9 5.1-24.1 6.7-4 .8-5.3 3.2-5.2 7.1.2 10.7 0 21.3 0 32 0 6.7-.2 13.3.1 20 .2 5 1.5 5.8 6.1 4.2 5.3-1.8 10.7-3.6 16-5.6 3.8-1.5 7.1-3.4 7.1-8.5v-55.9zm-35 73.4c-1.2-16.1-.9-31.4-.9-46.7v-11c0-3.5-1.4-4.8-5-3.8-6.4 1.9-12.7 3.9-19.2 5.1-5.2.9-7.6 3.2-7.6 8.4l.3 35.8c0 4.3 2.5 7 6.5 7.6 8 1.4 15.9 4.4 25.9 4.6zm-460.8-570.1c.7-.5.6-.9 0-1.5-.8-.8-1.6-.8-2.3-.4-1 .6-.8 1.4.1 1.9.6.3 1.5 1.1 2.2 0z"/><path fill="#101010" d="M1481.2 570.8c21.2-.8 38.5 7.2 52.1 23.4 5.5 6.5 12.4 12 16 20.1 1 2.3 3.5 5 .4 7-2.9 1.9-5.5.5-7.2-2.8-4.1-7.7-10.7-13.4-16.2-19.9-13-15.4-30-20.4-49.7-17.8-8.8 1.2-17.8 1.5-25.1 7.9-2.5 2.2-4.2.1-4.5-2.8-.4-3.5 1.7-5.4 4.1-7.3 6.8-5.5 15-6.6 23.1-7.7 2.3-.4 4.7-.1 7-.1zm26.3-12.6c4.3-7.4 6.5-8.7 13.2-7 16.7 4.3 30.2 13 39.1 28.1 1 1.7 2 3.4 2.7 5.3.8 2 .4 4-1.5 5.3-2.3 1.6-3.6-.3-4.9-1.7-1.3-1.5-2.4-3.2-3.6-4.8-9.4-13-21.9-20.6-37.9-22.6-1.6-.2-3.3-.6-4.8-1.1-.8-.2-1.5-.9-2.3-1.5z"/><path fill="#FFF" d="M371.5 1271c-3.2-6.4-8.6-11.3-14.7-13.6-11-4.3-20.1-11.6-30.3-17.2-8.1-4.4-15.9-9.5-23.7-14.3-12.1-7.4-23.3-16.2-34.4-25-5.4-4.3-11.1-8.3-16.8-12.2-23.8-16.6-42.2-39.1-63.4-58.5-18.2-16.6-33.4-35.9-48-55.5-11-14.8-21.4-30.2-31.8-45.6-11.9-17.7-22.5-36-31.7-55.2C62 943.4 49.3 912.1 40 879.5c-4.3-15.2-7.6-30.7-11.5-46-7.1-27.5-9.8-55.7-13.4-83.6-2.4-18.7-.8-37.9.1-56.9 1-21.8 3.2-43.6 4.5-65.4 1.7-28.9 9.4-56.6 13.6-85 2.7-18.3 9.4-35.6 15.8-52.9 12.2-33 27.3-64.7 43.8-95.8 9.3-17.6 17.9-35.6 29-52 16.5-24.4 30.9-50.4 50.8-72.3 12.4-13.6 23.5-28.5 37.6-40.8 9.3-8.1 16.7-18.5 26-26.7 16.9-14.9 33.7-30 51.9-43.3 19-13.9 37.8-28.1 57.9-40.4 26.8-16.4 53.4-33.2 81.9-46.8 13.4-6.4 27.8-10.4 41.7-15.7 21.9-8.4 44.9-13.2 67.5-19.2 13.4-3.5 26.9-6.7 40.6-9.2 26.3-4.9 52.8-8.4 79.3-11.3 7-.8 14.2.2 21.4-.1 13.6-.7 27.3-.5 40.9-.6 21.6-.1 42.8 4 64.1 6.8 31.9 4.2 62.9 12 94.1 19.6 27.6 6.7 54.5 15.9 80.9 26.1 35.1 13.6 70.4 27 104.2 43.9 16.1 8 30.1 19.2 45.3 28.7 23.4 14.6 43.9 32.9 64.7 50.9 9.2 7.9 17.8 16.7 25.1 26.5 1.5 2 2.7 3.1 5.5 3.2 17 .7 32.1 7.6 46.9 15 20.6 10.2 36.3 26.5 51.1 43.4 17.6 20 32.3 42.3 42.5 66.9 9.5 23.2 18.7 46.8 22.9 71.8.5 2.9 1.5 4.9 3.5 6.7 13.5 12.3 21.2 27.7 24 45.7 2.3 14.6-10.5 28.8-21.4 30.3-8.9 1.3-9.2 1.9-10.3 11.3-1.9 15.5-4.4 30.6-11.5 44.8-3.2 6.4-3.3 13.9.4 20.7 11.8 21.6 15.1 45.7 19.7 69.3 4.9 25.5 5 51.3 6.4 77.1.8 14.2-.4 28.2-.5 42.3-.1 9.4.4 7.7-7.9 9.4-36.9 7.4-73.8 8.4-110.8.2-19.6-4.3-39.3-8-58.2-15-16.7-6.2-32.9-13.6-48.2-23.1-17.3-10.7-33.6-22.4-48.3-36.5-10.3-9.9-20.3-19.9-28.3-31.8-.6-.8-1.1-1.7-1.7-2.4-.9-1-1.8-2-3.4-1.4-1.5.6-1.9 2.2-1.5 3.3 1.7 5.6 2.6 12.3 6.6 16.3 11.8 11.6 21.1 25.3 34.1 35.9 26.7 22 56.4 38.9 88.4 50.7 26.6 9.8 54.5 16.2 82.9 19.3 12.2 1.3 24.5 2.8 36.6 2.8 14.7 0 29.7-1.1 44.3-4.3 7.1-1.5 14.2-3.4 21.5-3.2 1.9 0 4-.3 5.9-.9 27.9-8.4 56.1-15.9 83.5-25.7 17.7-6.3 34.4-4.1 51.7-.9 16.9 3.1 32.7 9.9 48.9 15.3 13.9 4.6 26.8 11.4 39.1 19.4 8.6 5.6 16.9 11.5 26.2 16 11.3 5.4 14.1 13.7 9.9 25.5-1.8 5-3.9 9.9-8.4 14.2-6.3-2.1-11.8-6.4-17.7-9.6-9.4-5.1-19.3-8.6-30.1-9.3-1.8-.1-4.3-.9-5.2 1.6-.8 2.2-.5 4.5 1.1 6.6 1.3 1.7 3.1 2.4 4.7 3.6 15.2 11.3 24.2 27.1 31 44.2 2.3 5.8.1 11.5-5.1 14.7-6.8 4.3-12.7 9.6-18.7 14.9-2.6 2.3-4.8 3.8-8.8 1.9-4.9-2.4-9.6-.2-13.4 3.4-2.4 2.3-4.7 4.7-7.1 7.1-5.9 5.7-6.1 6.1-13.4 1.8-9.7-5.8-19.2-6.1-29.3-1.4-20.3 9.6-40.8 9.3-61.5 1-9-3.6-17.6-7.6-25.8-12.6-3.5-2.1-6.4-2.6-9.7.8-12 12.7-28.1 19.6-42.6 28.6-16.3 10-32.7 20.1-50.8 26.9-17.4 6.6-35.2 11.2-53.3 15.4-14.8 3.5-29.8 5.9-44.9 7.1-8.6.7-17.4 1.2-25.9.1-8.9-1.2-17.9-1.3-26.8-1.5-21-.4-40.9-6.6-61.2-10.7-25.6-5.2-48.4-17.6-72-27.8-13-5.6-24.6-14.3-36.2-22.6-8.6-6.1-17.5-12-25.4-19.2-.7-.6-1.5-1.4-2.4-1.6-1.9-.4-4.2-1.3-5.7.3-1.7 1.8-.2 4 1.1 5.3 4.1 4.3 8.4 8.5 12.8 12.5 20.2 18.1 43.2 31.7 68 42.5 6.4 2.8 11.8 7.2 18.4 9.7 29.2 11.4 59.4 18 90.4 22.5 17.5 2.6 35 4.1 52.6 3 31.7-2 63.3-5.1 93.9-14.3 3.1-.9 6.2-1.6 9.2-2.4 2.5 4.3.1 7.8-1.5 10.7-5.5 9.9-9.2 20.6-13.9 30.8-10.5 22.9-23.5 44.3-39.2 64.2-19.8 25-40.2 49.6-62.7 72.2-14.1 14.1-29.3 27.1-44.3 40.1-18.1 15.7-37.2 29.9-58.2 41.8-34.9 19.7-69.3 40.4-107.4 53.7-5 1.7-9.6 4.5-14.8 5.7-4.9 1-7.3 4.3-6.9 9.3 1.6 19.3-1.8 38.1-5.3 56.9-3 15.9-5.5 32-12.2 46.9-.7 1.7-.7 3.4.8 4.5 1.9 1.4 3.5.5 5.4-.8 8.8-6.3 15.2-14.8 21.3-23.6 11.9-17 20.6-35.5 25.8-55.6 1.2-4.5 2.9-6.1 7.3-5.8 22.9 1.2 42.6 8.9 56.9 27.6 14.9 19.5 21.7 41.5 20 66.1-.3 3.7-1.4 6.9-2.8 10.4-8.3 20.7-25.5 33.4-41.4 47.2-26.1 22.5-56.3 38.3-87 53.2-11.6 5.7-24.4 8.1-36.7 12-17.5 5.4-35.3 8.4-53.6 9.7-5.1.4-10.4 1.9-15.7 2.1-9.1.3-12.7-3.4-12.9-12.2-.6-18.2-1.8-36.3-5.6-54.2-1.2-5.5-1.4-11.2-2-16.7-1.6-17.8-8.2-34-14.6-50.3-1.1-2.8-2.2-6-5.8-6.1-3.4-.2-5.4 2.6-6.7 5.2-11.4 22.8-33.4 33.9-52.9 49.2-3.3-10.7-2.8-20.3-4.1-29.7-3.2-24.3-5.5-48.6-8.2-73-.1-1 .1-2-.1-3-1.4-10.2-1.4-9.6 9-10.4 17.5-1.4 25.8 10.7 34.4 22.5 1.2 1.6 1.9 3.5 2.8 5.3 2.5 4.8 6.4 2.3 9.6 1.4 3.4-1 2.6-4.2 2-6.8-.7-3-2.6-5.3-4.5-7.6-3.5-4.3-7-8.7-11-13.7 5.8-2 11.1-1.5 16.1-2.1 20.3-2.3 40.8-4.2 60.7-9.3 6.3-1.6 6.4-2 4.8-8.5.7-1.1 1.3-2.2 2-3.3 5.2-1 10.5-1.7 15.6-3 3.5-.9 6.9-2.4 10.1-4 1.5-.7 2.3-2.5 1.5-4.3-.6-1.4-2-1.5-3.4-1.3-1 .1-2 .2-3 .5-18.7 4.9-37.7 6.9-56.9 8-23.1 1.3-46.2 1.6-69.3 2.2-11 .3-22.1-.2-33.2.6-14.4 1-29.1-1-43.6-2.2-14.5-1.2-29-2.6-43.4-4.8-23.5-3.6-47.4-4.4-70.7-10.3-16.7-4.2-33.7-7-50.1-11.9-18.3-5.6-37.1-9.3-55.3-15.2-16-5.1-32.4-9.3-48.4-14.4-5.3-1.7-9.9-5.7-16-4.7-.8-.5-1.7-1.4-2.5-1.3-9.7.9-18.2-2-26.5-6.7-3.4-2.2-7-3-10.4-4.3zm941-929c-4.6 5.2-3.6 11.8-6.8 16.8-14.3 22.7-28.4 45.5-54 57.6-1.5.7-3.5 1.2-2.9 3.3.6 2 2.7 3.3 4.6 2.9 5.1-1.1 10.3-2 14.7-5.4 6.4-4.8 12.1-10.3 18.3-15.2 14.2-11.4 24.3-26 30.6-43.2 2.4-6.5.9-11.8-4.5-16.8zm16.1 82.4c-.1-7.5-1.6-14-4.5-19.2-2.6-4.6-4.9-5.2-9.7-3-2.5 1.2-4.3 2.9-5.9 5.1-7.2 9.8-9.4 21.1-9.4 32.8 0 6.7 2.9 12.9 7.8 17.8 4.3 4.4 7.7 4.5 11.9.2 1.4-1.4 2.5-3.2 3.2-5 3.5-9.1 6-18.7 6.6-28.7zm-103.4-181.6c-2.5-.2-4.2.9-5.5 2.4-1.7 1.9-.5 3.6.7 5.3.8 1.1 1.4 2.2 2.3 3.2 12 12.9 21.2 27.7 29.9 42.9 1.5 2.6 3 5.2 4.7 7.6.9 1.3 2.2 2.6 4.1 1.5 1.7-1 1.9-2.7 1.4-4.4-.3-1.3-1.2-2.4-1.5-3.6-3.7-15.9-13.6-28.5-22.1-41.9-2.7-4.2-5.7-8.1-10-10.9-1.3-1-2.5-2.1-4-2.1zm1.4 283.9c-6.8 1.7-12.9 4.5-18.3 9.2-9.2 8-12.6 19.2-16.7 29.9-1.2 3.2.8 5.4 3.3 6.3 3.4 1.3 3.2-2 4-4 6.1-15.4 16.8-25.6 33.2-29.8 2.8-.7 7.8.5 7.9-4.3 0-3.9-4.3-4.6-7.3-5.8-2-.7-4-1-6.1-1.5z"/><path fill="#CDBA97" d="M988.5 1381.2c-2.2-3 .1-5.8.7-8.5 3.3-13.6 6.7-27.2 5.9-41.3-.3-5.6 2-8.5 7-10.5 11.1-4.4 22.3-8.6 33-14 25.7-13.1 51.6-25.9 76.3-41.2 26.8-16.6 52.7-34.5 76.4-55.2 16.9-14.9 33.6-30.2 48.8-46.9 15.2-16.7 30.5-33.3 44.6-50.8 10.6-13.1 19.4-27.7 29.3-41.4 8.8-12.2 15.9-25.3 22.4-38.8 5.1-10.4 5.7-10.5 17-9 21.7 2.8 43.5 4.7 65.1 7.9 33.7 5 67.8 7.2 101.5 12.8 11.3 1.9 23.1 2.9 34.7 3.1 12.7.2 25 3.3 37.5 4.5 14.8 1.4 29.5 4 44.4 5.2 17.8 1.4 35.6 3.9 53.4 5.8 3.5.4 4.4 2.2 4.4 5.3 0 15.2.4 30.5.1 45.7-.3 15.6-.9 31.1-.3 46.7.4 10 .2 20-.7 29.9-1.8 20.9-1.3 41.8-1.7 62.7-.2 13.6-1.5 27.2-1.6 40.8-.2 28.9-.5 57.9-.5 86.8 0 22.3-.3 44.5-1.9 66.7-.4 5.7-2.9 7.2-7.9 7.9-8.9 1.2-17.1-2.1-25.6-3.2-22-2.7-44-5.7-66-9-18.7-2.7-37.4-4.7-56.1-7-31.3-3.8-62.3-9.1-93.5-13.2-22.6-3-45.3-5.3-67.8-9.5-13.3-2.5-26.8-3.9-40.2-6-16.7-2.6-33.1-6.7-49.9-9-21.7-3-43.2-7-64.8-10.1-24.9-3.5-49.9-5.8-74.7-10.1-11.8-2-23.6-3.4-35.3-5.5-4.2-.8-7-2.6-9.7-6-13.8-17.5-30.8-29.4-53.9-31.8-8.7-.9-17.1-.5-25.7-.2-7.2.3-8.1 1.3-9.4 8.6-2 10.8-5.6 21.1-9.9 31.2-1 2.7-1.9 5.7-5.4 6.6zm1159.9-399.9c2 10.5 0 20.7.1 30.9 0 18.9-.9 37.9-2.4 56.7-1.5 18.9-1.3 37.9-2 56.8-.8 25.2-2.1 50.4-4 75.6-2.3 31.8-2.8 63.7-4.1 95.6-.5 11.6-1.1 23.2-1.1 34.9 0 3.3-.6 5-4.6 6-35.1 8.5-69.4 19.9-104.2 29.8-30.6 8.7-61.9 15-91.8 26.1-8.9 3.3-18.6 4.5-27.9 6.8-27.7 7-55.3 14.2-83 20.9-22.2 5.4-44.1 11.7-66.5 16.7-16.8 3.7-33.9 6.3-50.5 10.8-1.9.5-4 .4-5.9.9-4.2 1.3-5.4-.8-5.4-4.5 0-7.3-.8-14.8.2-22 1.3-8.7-.5-17.2-.5-25.7 0-36.9-.5-73.8.5-110.7.7-25.8 1.1-51.6 2.8-77.4 1.1-16.8 2.5-33.6 2.4-50.5-.2-28.3.3-56.6.6-84.9.1-8.6.5-8 8.8-9.5 20.5-3.7 41.2-6.1 61.7-10.4 25.6-5.4 51.2-10.5 77-15.1 26.4-4.6 52.7-10.3 79.1-14.8 15-2.6 30.1-5.2 44.9-8.2 15.2-3.1 30.3-7.2 45.7-9.7 23.3-3.8 45.7-11.6 69-14.6 20.6-2.3 40.5-6.9 61.1-10.5z"/><path fill="#EEF5F6" d="M2315.3 1424.6c2.2-4 1.4-7.1-2-10.5-29.7-30.3-48.8-66.6-59.9-107.4-.4-1.6-.7-3.2-.9-4.9-.1-.9.2-1.9.3-3.3 12 .8 23.4 4.5 34.5 7.6 11.1 3.1 22.3 3.4 33.4 4.4 16.8 1.4 33.8.7 50.6-2.1 14.3-2.4 28.8-4.1 42.9-7.8 34.7-9.1 68.4-20.2 100.1-37.7 18.4-10.2 36.2-21 52.8-33.6 18.7-14.2 35.1-31.2 49.1-50.5 10.2-14 18.5-29.1 27.5-43.8 3.8-6.1 5.3-13.6 8.4-20.1 10.3-21.8 14-45.2 17-68.8 3.2-25.1-.2-49.8-7.2-73.5-6.3-21.2-15.8-41.6-31.7-58-1.1-1.2-1.9-2.7-3.1-4.5 7.4-6.1 16.3-8.8 24.8-12 21.3-8 43-13.4 66.2-10.6 13.7 1.6 26.8 4.5 38.6 11.8 12.1 7.5 25.3 13 37.1 21.2 17.3 11.9 30.2 28 42.4 44.5 17.3 23.6 30.7 49.6 39.8 77.5 4.3 13.3 5.6 27.2 6.8 41.1 1.7 19.7.4 39.5 0 59.2-.3 16.1-6.8 30.9-11.7 46-7.6 23.5-18.9 45.2-32.6 65.5-9.8 14.5-20.4 28.5-33 40.9-14.3 13.9-28.4 28-43.6 41-19.7 16.9-41.8 29.9-65.9 40-29.6 12.5-59.7 23.3-90.8 31.4-30.2 7.8-60.8 13.1-91.6 18.2-21.6 3.6-43.5 4.3-65.1 7.8-14.4 2.3-28.8 4.4-43.3 4.9-18.5.6-37.2 2-55.5-2.3-8.3-2-17.2-1-25.1-4.9-.7-5.5-5.4-5.6-9.3-6.7zm288.7-73.9c1.1-2.6 3-3.9 4.7-5.6 5.8-6 5.2-7.7-2.8-10-14.4-4.2-27.5-11.3-40.9-17.7-2.5-1.2-4.7-2.6-4.1-6 1-5.1-2.5-6.8-6.2-8.9-9.2-5.3-19-9.4-29-12.8-2.6-.9-6.1-5.6-8.1-.5-1.5 3.8 3.2 5.1 6.2 6.3 3.4 1.4 6.8 2.6 10.2 3.8 5.1 1.7 9.6 4.5 14.1 7.2 1.9 1.1 3.5 1.9 2.8 4.4-1.1 3.8 1.1 5.1 4.2 6.5 4.5 2.1 8.6 4.9 13 7.2 11.3 5.9 22.7 11.7 34.3 16.3.1 3-1.9 4.1-2.7 5.9-2.3 5.2-1.7 8 3.4 10.7 10.6 5.6 22.1 8.9 33.7 11.8 2.5.6 6.8 1.7 7.7-2.1 1-4.7-3.4-3.7-6.1-3.8-3-.1-6-.9-8.6-1.6-8.9-2.2-18.5-3.1-25.8-11.1zm210.5-151.8c1.5 0 2.8.1 4.1 0 2.5-.3 4.9-1.2 4.2-4.2-.6-2.9-2.8-1.5-4.7-1.4-8.9.3-17.8-.8-26.5-2.4-2.9-.5-6.2-1.1-4.9-5.6 1.6-5.7-2.4-7.3-6.5-7.6-12.3-1.2-23.8-5.9-35.9-7.9-4.5-.7-8.6-1.8-8.9-7.5-.2-2.9-2.7-3.7-4.8-4.4-3.8-1.3-7.7-2.2-11.5-3.1-12.5-2.8-25.5-3.6-36.7-11.2-3.7-2.5-8.7-3.2-13.5-1.6-1.3.4-2.3 1.4-2.6 2.8-.2 1.1.5 2.4 1.3 2.3 7.3-.5 12.9 4.5 19.5 6 11.3 2.6 22.5 5.3 33.8 8 2.9.7 6.8 1.1 7.4 4.1 1.9 8.3 8.9 8.4 14.7 9.5 10.2 1.8 19.9 5.3 29.8 7.9 1.7.4 4.5.3 3.9 3.3-1.5 7.1 3.9 7.7 8.3 8.5 9.9 1.9 19.8 3.1 29.5 4.5zm-103.6 116.6c-9.7.8-18.9-.9-27.8-4.5-6.5-2.6-7.3-4.8-5.3-11.7 1.6-5.6.8-6.8-5.6-8.8-9.8-3-19.6-6-29.2-9.4-2.4-.8-6.1-1.1-5.6-5.5 1.3-9.4 1.2-9.4-7.2-12.5-12.7-4.6-25.5-9.2-38.3-13.8-.9-.3-1.9-1-2.8-.8-2 .3-4.1 1-4.4 3.3-.3 1.9 1.3 2.8 3 3.3 2.2.6 4.5 1.2 6.7 1.9 10.8 3.3 21.8 5.8 31.8 11.3 2.3 1.3 4.3 1.9 3.2 5.8-2 6.9-1.3 7 5.5 9.7 10.1 4.1 20.6 7 31.1 10.1 3.5 1.1 5.5 2.6 4.5 7.1-2.1 8.6-1.7 8.7 6.4 12.4 9.8 4.5 20.3 5.9 30.7 7.9 3.4.7 7.3 1.1 10.7-1.1 1.4-.9 2.7-2.1 2.3-4-.5-2.4-2.1-1.7-3.8-1.4-1.9.4-3.9.5-5.9.7zm-193 52.8c1-3.2 3.4-3.3 4.9-4.4 6.1-4.5 5.7-8-1.3-11.2-5.7-2.7-11.6-5-16.9-8.5-2.8-1.9-5.8-3.3-4.2-7.8 1.2-3.4-1-5.7-3.8-7.3l-23.4-13.2c-1.9-1.1-3.8-1.7-5.2.4-2 2.8.1 4.5 2.2 5.4 5.2 2.2 10.3 4.7 14.8 8.1 1.8 1.3 4.5 2.5 3.7 5.3-1.2 4.3 2.2 5.9 4.5 8.1 6.8 6.3 15.4 10.1 23.3 14.8-7.7 10.4-6.8 14.6 4 20.4 13 6.9 27 10.8 41.2 14.1 2 .5 4.1.6 4.9-1.9.8-2.5-1.1-3.6-3-4.3-1.8-.7-3.8-1.3-5.7-1.7-4.8-1.1-9.7-2.1-14.5-3.3-9.4-2.4-18.4-6-25.5-13zm199.2-123.2c-.1-.4-.3-.8-.2-1 .3-.6.6-1.2 1-1.7 4.2-7.4 4.2-7.9-3.8-9.9-9.6-2.4-18.6-6.8-28.7-8-4.8-.6-11.5-1.9-11.2-10 .1-2.9-3.1-4.1-5.5-5.2-9.7-4.4-20.4-5.7-30.3-9.5-1.8-.7-3.2.1-3.8 2-.6 1.9.2 3.3 1.9 4 1.5.6 3.1 1 4.7 1.5 7 2.1 14 4.1 20.9 6.4 2.4.8 5.2 1.5 4.6 5.3-.7 4.3 2.2 5.5 5.8 6.5 11.5 3 22.9 6.7 34 11 3.6 1.4 5.2 2.2 3.2 6-1.9 3.6-.7 6.3 3.1 8 16.1 7.1 32.8 12.3 50 16 2.4.5 4.6.3 6.6-1.1 1.2-.8 1.9-2 1.7-3.3-.2-1.5-1.4-2.2-2.8-2.3-3.6-.4-7.3-.3-10.9-1-14-2.8-28.9-3.3-40.3-13.7zM2299 1350.5c6.9-4.7 7.2-6.1 1.9-10.1-4.2-3.2-9-5.6-12.8-9.4-1.2-1.2-2.8-1.9-4.2 0-.9 1.2-1.2 2.7-.1 3.6 4.2 3.5 6.9 7 5.2 13.1-.6 2.3 2.7 4.4 4.7 6.1 4.5 3.9 9.4 7.3 13.9 11.2 1.9 1.7 5.4 2.7 5.1 5.7-.5 6.1 3.9 7.7 7.8 10.1 4.8 3 9.4 6.3 14.1 9.3 2.9 1.8 4.5 3.3 2.4 7.1-2.2 3.9.5 7 3.6 9.3 9.1 6.7 19.4 11.4 29.4 16.7 2.1 1.1 4.9 1.2 6.1-1.4 1.3-2.8-.6-4.2-3.1-5-2.2-.7-4.3-1.8-6.5-2.4-7.8-2.1-14.2-6.7-20.7-11.3-1.7-1.2-2.7-2.4-1.6-4.9 3.2-7.1 3-7.7-2.8-11.4-5-3.2-10.2-6.3-15.2-9.5-1.6-1-4.4-1.7-4.4-3.7-.1-8.4-7.2-10.3-12.3-14.2-3.4-2.8-7.5-4.5-10.5-8.9zm158.6 28.7c-6.5 7.3-7.1 10.5-2.3 13 10.9 5.7 22.1 10.7 33.1 16 1.9.9 3.2.1 4.1-1.4 1-1.8.3-3.4-1.4-4.1-3-1.3-6.2-2.3-9.3-3.4-7.8-2.9-15.2-6.5-22.6-11.3 1.6-1.1 2.4-1.8 3.2-2.2 2.6-1.2 6.4-1.2 6.4-5.2 0-4.1-3.5-4.7-6.7-6-7.6-3.1-15-6.8-22.4-10.3-2.1-1-4.4-2.3-3.3-5.2 2-5.3-1.6-7-5.2-9.1-9.3-5.6-18.5-11.5-27.8-17.2-1.7-1.1-3.3-4.3-5.7-1.4-2.2 2.7-.2 5 1.9 6.8 1.5 1.3 3.3 2.2 5.1 3.2 4.1 2.2 8.4 4.1 12.3 6.5 3.6 2.2 9.7 5.3 9 8.2-2.2 9.3 4.9 9.4 9.6 12 7 3.4 14.1 7 22 11.1zm359.8-258.3h7c2.1 0 4.2-.6 4.3-3.1.1-2.8-2.2-2.9-4.2-2.8-1.7.1-3.3.3-5 .3-10.6.2-21.2-1.2-31.6-2.8-4.8-.7-9-2.1-7-8.9 1.2-4-1.2-6.3-5.4-6.3-5.9.1-11.8-.1-17.7.4-12.8 1.1-25.6 2.5-37.1-5.3-2-1.3-4.4-1.4-6.5-2.1-7.4-2.5-15.2-1.2-22.7-2.6-3.2-.6-8.5-1.9-8.6 3.5 0 4.8 4.6 2.8 7.8 3 9.2.6 19.3-1.3 27.2 3.8 7.3 4.8 14.7 5.4 22.6 5.4 9 0 18-.1 26.9.1 4 .1 8.6.5 6.3 6.9-.8 2.3.3 4.1 2.6 4.3 13.7 1.8 27.1 6.2 41.1 6.2zm-27.2-75.3h19.5c2.4 0 5.1-.3 4.4-3.7-.6-3-2.8-1.5-4.7-1.2-15.3 1.9-30.4-.5-45.5-1.7-2.8-.2-7-.8-6.9-4.2.3-8.1-5.4-7.1-10-7.3-9.6-.4-19.3.7-28.6-2.2-9.9-3.1-19.8-5-30.2-3.8-1.6.2-3.4-.6-3.7 1.7-.3 1.7.3 3.2 1.8 4.4 1.8 1.4 3.6.9 5.6.6 6.6-1.2 13.1-1.7 19.2 2.4 1.2.9 3.2 1 4.8 1 7-.4 13.8 1.6 20.7 2.1 4.9.3 10 .2 12.5 6 .9 2 3.4 1.7 5.3 2.1 12 2.4 24.1 4.2 35.8 3.8zm-358.1 365.7c-.2-2.2-1.9-3.2-3.6-4.3-8.2-5.6-16.4-11.1-24.6-16.8-5.5-3.8-11.7-7.9-14-13.7-2.4-5.9-6.5-8.9-10.9-12-7-4.9-14.4-9.3-20.2-15.9-2.5-2.9-6.3-4.9-9.7-7-1.5-.9-3.4-2.8-5.2-.6-2 2.4-.3 4.6 1.5 6 3.4 2.6 7.8 4.1 10.7 7.1 10.8 11 26.4 16.7 34.1 31 .1.3.6.3.8.5 10.8 8.7 21.6 17.5 32.5 26.2 1.3 1 2.7 2.2 4.2 2.5 2.4.7 3.8-.8 4.4-3zm266.5-440.6c-3-.1-5.5-.1-8.1-1.1-2.5-.9-4.6.8-4.9 3.5-.3 2.3 1.4 3.5 3.7 3.8 1.3.1 2.7.1 4 .1 7.3.1 14.6-.6 21.3 3.5 1.5.9 3.9.5 5.9.5 10.9-.3 21.8.4 32.6 1.8 6 .8 11.9.1 17.6-1.8 2.3-.7 4.1-2.9 3.3-5.3-1-3-3.3-1.9-5.7-1.2-13.9 4.2-28.1 2.3-42.3 2.7-2.3.1-4.6-.6-6.6-1.9-6.6-4-13.8-4.8-20.8-4.6zm-17.7-46.6c-3 0-6.1-.7-8.7 1.2-1.2.9-3.3 1.4-2.5 3.6.8 2 2.4 1.5 4.2 1.1 7.9-1.4 15.1-.3 21 5.8 1.5 1.5 3.6 1.6 5.6 1.8 13.5 1 27 .3 40.5-.4 1.7-.1 3.4-.1 4.9-.6 1.1-.4 2.1-1.6 2-3.1-.1-1.8-1.6-1.9-2.9-1.9-7-.5-13.8 1-20.7 1.9-9.7 1.3-19.1 2.6-27.6-5.1-3.9-3.7-10.2-4.3-15.8-4.3z"/><path fill="#EDF4F5" d="M2278 818.9c2.1-4.1-.8-6.5-3.5-8.2-14.1-9.1-27.4-19.5-43.7-25.3-20.4-7.3-41.4-9-62.7-8.3-14.5.5-28.9 2.8-43.3 4-11 .9-21.3 4.9-31.5 8.5-16.8 6.1-32.5 14.9-48.6 22.8-22.9 11.2-45.8 22.5-70.1 30.3-11.4 3.7-22.2 8.9-33.4 12.9-20 7.2-40.3 13.2-60.6 19.4-17.7 5.4-35.6 10.4-53.6 15.2-20.2 5.3-40.6 9.7-60.7 15.3-29.9 8.4-60.1 16.1-89.9 25.1-25.4 7.6-51.2 13.7-76.8 20.5-17.3 4.6-34.5 9.2-51.7 14-5.2 1.4-10.1 1.2-15.5.8-13.6-1-27-2.7-40.5-4.8-10.1-1.5-20.2-3.7-30.4-5-11.2-1.4-22.4-2.3-33.6-3.2-4.5-.4-9.1-.2-14.2-2.4 6.5-7 14.7-10.9 21.4-16.6 1.5-1.3 3.1 0 4.5.9 14.6 10.2 31.4 13.8 48.7 15.7 15 1.7 29.3-1.7 41.9-9.7 8.3-5.2 15.6-4.1 23.5-.8.3.1.6.4.9.5 3.4 1.3 6.6 5 9.9 3.9 4.9-1.6 9.7-4.3 13.4-8.4 1.3-1.5 2.7-2.9 4-4.5 2.4-2.9 4.8-4.3 8.3-1.4 2.9 2.4 6.3 1.6 9.5.3 14.6-5.9 25.6-16.6 35.1-28.5 4-5 2-12.8.7-19.3-1.6-8.3-5.7-15.5-10.4-22.4-.7-1.1-1.5-2.1-1.1-3.6 1.4-1.7 2.9-1.1 4.2 0 3.7 3.1 8.5 3.6 12.5 5.7 4.6 2.4 7.6.6 10.3-2.8 3.3-4.2 5.3-9.1 6.4-14.4 2.2-10.8 3.4-21.5-2-31.9-1.7-3.2-3.5-6.1-6.1-8.8-10.1-10.5-21.7-18.4-35.3-23.8-3.3-1.3-6.6-2.7-9.9-6.1 18.3-4.4 35.9-8.3 53.3-12.9 31.3-8.4 62.8-15.6 93.2-27.3 19-7.3 38.3-14.3 57.3-21.6 14.8-5.7 28.9-13.2 43.6-19.2 15.4-6.3 29-15.9 43.7-23.5 18.5-9.6 36.6-19.8 56.5-26.8 13.9-4.9 27.7-7.7 41.6-4 21.7 5.7 43.4 11.3 64.6 19.4 24.5 9.4 47.9 21 71.7 32.1 16.8 7.8 32.6 17.6 48.3 27.7 11.9 7.7 24.5 14.6 36.9 21.5 20.4 11.5 38.5 25.9 56.3 40.7 5.8 4.8 11.1 10.3 13.6 17.9 2.7 8.2 9.3 14.6 10.8 23.4.4 2.3.8 4.6 1.3 6.8-1.3 2.1-2.8 2.5-4.8.9-4.5-3.7-9.3-7.2-14-10.7zm-360 22.7c2.5-.6 6.9 1.5 7-2.9.1-4.2-4.2-3.1-7-3.4-.7-.1-1.4.1-2 0-9-2-18.4-2.1-27-6.2-2.5-1.2-5.2-2-3.5-5.6 1.8-3.8-.5-4.5-3.4-5.2-7.8-1.6-15.5-3.2-23.2-5.1-4.4-1.1-9.3-1.8-11.4-6.9-1.4-3.4-4.8-3.3-7.6-3.9-11.2-2.7-22.4-5.6-33.9-7.1-2.7-.4-5.4-.7-7.3-2.7-5.2-5.5-12-6.4-19-7.3-6.5-.8-14-.9-19.2-4.2-10-6.2-21.3-6.4-31.8-9.6-1.6-.5-3.4-.2-4 1.9-.7 2.6 1 3.6 3.1 4.1 6.4 1.5 13.8 1.6 19.1 4.9 8.3 5.3 17.3 5.7 26.3 7.4 5.8 1.1 12.6 1.1 16.9 5 3.3 3.1 6.5 3.9 10.3 4.7 12.6 2.6 25.2 5.4 37.8 8.1 1.7.4 3.9.6 4.1 2.2.8 5.8 5.7 5.9 9.6 7 6.3 1.9 12.8 3.3 19.2 5.1 3.7 1 8.2 1.4 7.3 7.3-.3 1.7.8 3.1 2.7 3.6 12.2 3.4 24.1 7.4 36.9 8.8zm60.7-22.5c1 .1 2 .4 3 .4 1.9 0 4.4.5 4.9-2.1.5-3.2-2.3-2.4-4.1-2.6-8.2-1.3-16.3-2.7-24.5-3.6-3.8-.4-6.8-2.4-10.1-4.1-2.9-1.5-.7-4.2-1.1-6.3-.4-2.2-1.4-3.6-3.7-3.9-2-.3-3.9-.8-5.8-1.3-11.9-3.2-25.1-2.9-34.6-12.9-1.5-1.5-3.7-1.3-5.7-1.6-8.5-1.3-17-2.5-25.5-3.6-3.3-.4-8.1 0-9-3.1-2.5-8.7-10.1-8.3-16-9-10.8-1.2-20.6-4.3-29.9-9.7-4.3-2.5-9-3.9-13.9-5.2-2.7-.7-5.3-2.1-6.3 1.7-1 3.6 2.3 3.1 4.3 3.8 4.1 1.4 9.2 1.9 11.9 4.7 8.4 8.7 19.4 8.5 29.9 10.4 2.3.4 4.7.5 6.9 1.2 2.1.7 4.5.9 5.7 3.5 2.8 6.2 8.7 6.5 14.3 7.3 7.2 1 14.5 1.7 21.7 2.8 2.9.4 6.8.7 8.3 2.6 4.3 5.6 10.7 6.2 16.5 8.1 5.7 1.8 11.5 3.1 17.3 4.5 3.6.8 7.1 1.1 6.1 6.6-.5 3.1 2.9 4.3 5.4 4.9 11.3 2.2 22.4 5.4 34 6.5zm-48.8-114.5c5.7 1.3 9.8 2.2 14 3.1 9.8 2.2 19.5 5.7 27.4 11.4 5.9 4.2 11.9 6.6 18.5 8.7 5.7 1.8 11.4 3.7 17.1 5.5 2.9.9 6.1 1.8 7.9 4.1 5.5 6.8 13.1 8.4 20.9 10.1 6.8 1.5 13.6 2.9 20.4 4.5 3.3.8 6.4 1.7 4.7 6.5-1.1 3.2 1.3 4.2 4.1 5.5 10.5 4.8 21.6 6 32.9 7 2.9.3 7.6 2.9 8.1-2.1.4-3.9-4.5-2.7-7.1-3.1-8.5-1.2-17.1-2-25.5-4.2-2.1-.6-4.5-.9-4.5-4.2.1-8.2-.1-8.2-7.4-10-9.3-2.2-18.7-4.3-28-6.5-3.9-.9-8.4-1.9-10.6-4.9-5.2-7.4-13.4-8-20.7-10.8-8.2-3-18.7-1.3-23.9-11.1-.2-.4-1.2-.5-1.8-.7-10.6-3.9-21.1-7.9-31.7-11.5-4.6-1.5-9.4-2.6-14.8 2.7zm-257.1 91.3c4.2 3 8.6 4.2 12.9 5.7 6.9 2.3 13.8 5.6 20.7 6.6 14.4 2.2 28 6.8 41.7 11.2 8.1 2.6 17.5 1.8 24.9 6.2 7.6 4.5 15.7 6.9 24 9.1 3.4.9 7.1 1 6.5 6.6-.3 2.8 3.3 3.6 6 4.2 11 2.5 21.9 5.1 32.9 7.3 3.2.7 6.6.5 9.9.5 1.5 0 2.5-1 2.3-2.5-.1-.9-.7-1.8-1.9-1.9-1.3-.1-2.7-.2-4-.4-11-2.1-22.2-3.4-32.8-7.1-2.3-.8-5.3-1.4-4.9-4 1-6.3-3.7-5.9-7.2-7.1-6.9-2.4-14.9-2.1-20.8-6.4-8-5.8-17-7.2-26-8.6-6.3-1-12.2-2.4-17.8-5.6-4.5-2.6-9.7-4.6-15-4.6-7.8.1-14.9-2.7-22.2-4.9-7-2.1-13.8-4.6-20.7-6.8-2.9-1-5.9-1.9-8.5 2.5zm440.5-70.2c-1.1 5.2 1 8.1 5.6 9.2 3.6.8 6.9 2 10.3 3.3 7.7 3.1 15.7 5.3 23.5 8 2.3.8 4.1.2 4.9-1.9.7-1.8-.7-3.3-2.2-3.9-3.1-1.2-6.3-2-9.4-3-7.5-2.4-15.5-3.2-22.6-6.9-2.4-1.3-4.4-2.2-2.4-6 3.4-6.6 2.6-7.3-4.5-9-14.2-3.5-29.6-4.3-40.1-16.9-1.5-1.8-4.7-2.4-7.2-3.1-8.3-2.3-16.6-4.8-25-6.2-6.1-1.1-11-3.6-16-7.1-8.3-5.7-18.1-8-27.5-11.3-2.4-.9-4.9-.2-5.6 2.5-.6 2.5 1.8 3.1 3.7 3.7 6.6 2.2 14.4 2.9 19.5 7 9.7 7.7 21.2 8.5 32 12 5.7 1.8 11.4 3.4 17.1 5.2 1.9.6 4.5 1.3 5.2 2.7 3.2 6.8 9.8 7.3 15.7 9.3 6.9 2.3 14 4.2 20.9 6.4 2.9.8 7.1 1.4 4.1 6zm-111.9 46.2c-2.6-1.4-5.3-2.5-8.4-2.5-7.1-.2-13.6-2.6-20.3-4.4-3.2-.9-6.7-1.4-5.8-6.3.4-2.3-1.4-3.5-3.7-3.8-9.5-1.5-18.5-5.1-27.8-7.3-4.3-1-8.9-1.9-11.9-4.7-4.7-4.5-10.4-5.4-16.1-7-5.1-1.5-10.2-2.7-15.3-4-5.5-1.4-10.9-2.7-16.4-4-2.4-.6-3.9.9-4.6 2.8-1.2 3 1.6 3.2 3.3 3.6 2.2.7 4.6.9 6.8 1.2 10.5 1.5 21.1 4 30.4 8.4 7.9 3.8 15.9 5.9 24 8.3 6.7 2 13.1 4.8 19.6 7.1 1.6.6 3.5 1.2 3.5 3 0 6.1 4.4 6.4 8.8 7.3 5.9 1.1 11.6 2.9 17.5 3.8 4.4.7 7.8 1.6 7.4 7.1-.2 2.3 1.5 3.9 3.4 4.4 11.2 3.1 22.1 7.3 34 6.6 2.8-.2 6.3-.4 6.4-3.4.1-3.9-3.8-2.9-6.2-2.8-10.7.4-21.2-.3-31-5.3-.9-3.1 3.3-4.8 2.4-8.1zm-229.7 97.7h3c2.6-.2 6 .3 5.7-3.6-.3-3.2-3.5-2.7-5.6-2.5-8.3.8-15.4-3.3-23.2-4.9-1.2-.2-3-1-3.3-1.9-2.5-8.6-10.1-8.1-16.6-9.9-5.7-1.6-11.3-3.4-16.4-6.9-6.3-4.3-14.1-5.7-21.2-8.5-1.4-.6-2.8-.5-3.4.9-.7 1.5-.7 3.6.7 4.6 1.6 1.1 3.7 1.4 5.6 2.1 3.8 1.3 8.1 1.7 11.2 3.9 8.4 5.8 17.6 8.8 27.4 10.9 2.3.5 4.6 1 5.5 3.7.6 2 1.9 3.4 3.9 4.2 9 3.3 18.3 5.7 26.7 7.9zm-68.3 14.3c2.5-.4 3.6-.3 4.5-.7 1.6-.7 4.4-.1 4.2-3-.2-1.9-1.9-2.5-3.6-2.9-4.2-.8-8.4-1.7-12.7-2.4-3.7-.6-8.7-1.5-9.6-4.4-2.6-8.2-8.7-8.9-15.4-9.7-3.9-.5-10.1-4.8-11.2 0-1.5 6.3 6.4 4.6 10.3 6 3 1.1 7.1.4 8.8 3.7 5.5 11.2 18.3 7.2 24.7 13.4z"/><path fill="#D8EAEA" d="M2278 818.9c4.7 3.6 9.5 7.1 14.1 10.7 2 1.6 3.6 1.2 4.8-.9 5.4 8.8 3.4 18.6 3.6 28.1.4 17.9-.2 36-2.1 53.7-3.1 27.1-6.9 54.3-14.3 80.9-9.2 32.9-23.1 64-33.2 96.5-6.4 20.5-12.2 41.1-16.4 62.3-5.1 25.8-7 51.8-7.9 77.8-.4 11.8 1.2 23.7 3.6 35.4 3.1 14.6 6.9 29.1 11.6 43.1 13.2 39.4 29.1 77.7 57.6 109.2 4.3 4.8 8.9 8.7 15.7 8.9 3.9 1.2 8.6 1.2 9.4 6.7-5.2 1.2-9.9-1.2-14.6-2.3-13.5-3.1-26.5-7.2-39.3-13.2-28.9-13.5-53.1-32.9-76-54.5-14.6-13.8-27.2-29.1-39.8-44.6-4.5-5.5-6.9-11.4-6.7-19.1.4-20.3 1.7-40.5 2.5-60.8 1.1-27.5 2-55 2.7-82.5.4-16.2.7-32.5 1.5-48.7.7-15.2 3.1-30.4 3.6-45.6.7-24.2 3.5-48.4 2.4-72.6-.4-9 .1-8.9 8.9-10.6 4.5-.9 9-2.7 13.6-3 7.2-.4 9.7-5.3 11-10.8 2.6-11.4 3-22.9.6-34.5-1.6-7.7-5.8-12.8-13.9-15-25.7-6.8-51.9-11.2-77.9-16.2-3.5-.7-6.5-.8-4.8-6 6.8-20.7 7.8-42.3 8.8-63.9.4-8.6 1.4-17.2-1.2-25.5-1.3-3.9.8-4.8 3.5-5.5 5.1-1.4 10.2-3.1 15.5-3.7 11.8-1.4 23.2-6 35.2-5.3 19.5 1.1 39.2.9 58.2 5.9 17.9 4.7 35.8 9.9 50.4 22.3 2.8 2.5 5.9 3.4 9.3 3.3zm301.7 277.6c-13.8-8.6-27.4-17.5-41.5-25.6-21.5-12.4-42.9-25.1-65.2-36-28.2-13.7-57.3-25.7-87.6-34.2-8.9-2.5-18-4.4-27.2-5.7-4.7-.7-5.3-2.3-4.6-6.4 2.1-12.9 6.5-25.1 11-37.1 3.9-10.5 9.3-20.5 14.1-30.8 7.8-16.7 18.7-31.3 31.6-44.4 15.9-16.1 31.7-32.4 50.5-45 17-11.4 34.5-22.4 54.8-27.4 5.4-1.3 10.6-1.3 15.7.6 25.6 9.2 51.8 16.3 77.3 25.9 22.3 8.4 44.5 17.2 66.4 26.7 14.5 6.3 29.2 12.2 43.2 19.9-1.4 3.3-4.1 1.8-6 1.8-34.9-.7-67.1 9.4-96.3 27.5-25 15.4-43.7 37.4-51.3 66.3-4.5 16.9-5.8 34.6-2.7 52.2 2.6 15 5.5 30 11.1 44.3 3.2 8.3 5.7 16.9 8.5 25.4-.6.6-1.2 1.3-1.8 2z"/><path fill="#CCB995" d="M2173.6 922c-6 3-11.5 4.1-17 4.8-12.4 1.6-24.6 5.3-37.4 4.3-2.4-.2-5 1.4-7.5 2.1-26.3 6.8-53.2 11-79.7 17-49.8 11.1-99.7 21.3-149.8 30.9-22.8 4.4-45.5 9-68.3 13.3-22.4 4.2-45.2 6.9-67.6 11.2-12.7 2.4-25.7 3.2-38.3 5.9-7.6 1.7-15.2-.2-22.6-1.2-25.6-3.6-51.1-7.2-76.9-9-15.2-1.1-30.2-3.8-45.3-5.5-14.5-1.6-29.1-2.4-43.5-4.5-16.4-2.3-33.1-1.6-49.4-5-9.5-1.9-19.1-1.6-28.7-3.1-15.7-2.4-31.6-3.6-47.4-5.1-7.2-.7-14.5-.9-21.6-1.3-.9-3.3 1.7-3.4 3.3-4.3 6.1-3.3 12.6-6.2 18.4-10 5.2-3.4 10.7-3.5 16.3-3 13.2 1.2 26.4 2.7 39.6 3.9 25.7 2.5 51.4 5.2 76.7 10.6 6.8 1.4 13.2 1.2 19.7-.1 19.2-3.8 38-9.2 56.8-14.4 38.6-10.8 77.2-21.7 115.7-32.6 16.6-4.7 33.2-9.4 49.8-13.8 22.7-5.9 45-13.2 67.9-18.6 26.8-6.4 53.3-14 79.5-22.5 5-1.6 9.1-.9 14 .1 14.6 3 29 7.2 43.5 10.5 25.2 5.6 50.5 11 75.8 16.5 24.3 5.3 48.8 9.2 73.3 13.8 15.3 2.8 31 3.6 46.1 7.7 1.1.5 2.3.8 4.6 1.4z"/><path fill="#CAB894" d="M1714.7 1055.2c-.7-10.4.3-19.8-1.5-29-.8-4.1.5-7.2 5.6-7.3 12.3-.3 24.1-4 36.1-6.2 15.7-2.8 31.6-3.5 47.2-7 13.5-3.1 27.2-5.8 40.8-8.4 18.2-3.5 36.4-6.9 54.7-9.9 23.2-3.8 46-9.4 68.9-14.3 12.3-2.6 24.7-4.4 37-7.3 27.1-6.4 54.3-11.9 81.6-17.5 18.5-3.8 37.1-7.1 55.7-10.8 12-2.4 24.1-4.3 35.9-7.6 7.8-2.2 9.6-.8 10.4 7 .6 6.3-.5 12.6.5 18.9.8 4.5-1.8 6.4-6.2 7.1-19 2.9-37.6 7.7-56.5 11.3-21.5 4.1-42.8 9-64.3 13.1-27.9 5.2-56.1 9.6-83.8 15.7-32.7 7.1-65.3 14.4-98.1 20.5-33.2 6.2-66.4 12.7-99.4 19.6-21.3 4.4-42.5 8-64.6 12.1z"/><path fill="#D6C4A5" d="M729.6 1594c-.7-11.6-2.4-23-2.9-34.7-.7-17.1-3.7-34.1-2.7-51.3.2-4.3-3.1-8.6-3.6-13.3-1.6-15.8-3.5-31.6-5.4-47.4-1.3-10.9-2.5-21.7-4.1-32.6-2-14.1-2.8-28.4-3.9-42.6-1-12.7-4.5-16.3-17.3-14.7-28.1 3.6-56.4 3.1-84.6 4.2-22.5.9-45 1.2-67.6 1.7-12.6.2-25.2-.4-37.8.3-12.8.7-25.6.2-38.4-.3-.3 0-.7.1-1 0-4.4-1.2-9 3.8-13.2-.3-1.2-1.2 2.9-20.2 4.3-22.1 2.2-3 5.4-2.1 8.3-2.1 22 .2 44 .5 65.9.6 13.7 0 27.3 0 41-.7 17.1-.9 33.6 2.3 50.4 4.9 23.6 3.6 47.2 6.9 71.1 8.1 15.3.7 30.5 2 45.8 1.9 6.4 0 6.9 1 6.2 7.1-1 8.6.3 17.2 1.3 25.6 1.7 15.8 3.2 31.7 5.1 47.4 4.2 35.2 8.1 70.4 12.6 105.6 2.9 22.7 6.6 45.3 10.2 67.9 2.3 14.7 2.1 15.3-10.5 23.4-4.6 3-9.5 4.7-14.7 5.7-6.9 1.2-10.5-1.7-11.3-8.8-1.1-11.1-2.1-22.3-3.2-33.5z"/><path fill="#FDFDFD" d="M593.4 1373.1c5.9-2.4 11.4-1.9 16.5-2 13.2-.3 26.4-.1 39.5-.1 13.6 0 27.2-1.2 40.7-2.7 3-.3 4.3.1 4.8 3 2.2 14.4 4.5 28.7 6.7 43.1 2.7 18.2 3.4 36.7 6.8 54.9 2.1 11.7 2.6 23.6 3.7 35.5.3 3.3-.8 5.2-4.5 6.5-14.1 4.8-28.1 10.2-42.6 13.4-12.2 2.7-24.9 3.2-37.3 5.1-4 .6-4.4-1.3-4.6-4.2-.4-7.9-.9-15.8-1.6-23.7-1.3-14.6-4.5-28.8-7-43.1-3-16.9-5.9-33.9-9.8-50.7-2.8-11.9-7.1-23-11.3-35z"/><path fill="#CAB894" d="m1691.8 1053.3-46.2-5.1c-12.2-1.4-24.5-1.7-36.7-2.5-15.9-1-31.6-3.5-47.5-5-19.5-1.8-38.9-4.6-58.2-7.3-13.1-1.8-26.2-4.2-39.3-6.1-15.1-2.2-30.1-4.4-45.2-6.4-17-2.3-34.3-2.5-51.1-6.9-5.3-1.4-11.2-.6-16.9-.9-4-.2-6.5-1.4-4.2-6.2 1.2-2.4 1.6-5.1 2.6-7.5 6.8-15.8 6.7-15 23.9-13.5 24.8 2.1 49.1 8.1 73.9 9.4 24.5 1.3 49 3.2 73.3 6.5 21.3 2.9 42.7 4.9 63.9 8.7 10.1 1.8 20.5 1.4 30.7 2.1 15.5 1 31 2.1 46.4 3.8 11.5 1.3 23.1 2.5 34.7 3.3 8.3.6 9.7 1.9 10.4 10.1.3 3.3.2 6.7 0 10-.9 13.6-.9 13.6-14.5 13.5z"/><path fill="#D7C5A5" d="M459 1594.2v56.9c0 11.6-.9 12.6-12.4 11.6-6.3-.6-12.4-1.8-18.8-2.1-5-.3-7.5-3.1-7.5-8.6.2-15.2-.5-30.4 1.8-45.6 1.1-6.9.8-13.9.9-20.9.5-26.2 3.3-52.3 4.5-78.5 1.2-26.7.7-53.6 4.5-80.2-3.2-14.3 2.7-28.3 1.2-42.5-.3-2.6.7-5.2 1-7.9.3-2.2 1-3.7 3.7-3.6 7.9.3 15.9.5 23.9.7 3.3.1 4.9 1.4 4.6 4.8-.5 6.9.1 13.8-.9 20.9-1.2 7.8-.4 15.9-.7 23.8-.8 21.9-1.8 43.8-2.7 65.6-.7 15.5-1.7 31.1-2.4 46.6-.9 19.6-.2 39.2-.2 58.9-.2.1-.4.1-.5.1z"/><path fill="#D6C4A5" d="M193.3 1326c10.1 2 18.8 3.7 27.6 5.3 4.6.8 5.1 2.8 4.6 7.6-3.8 39.9-9.2 79.7-14.4 119.4-2.9 21.7-6.4 43.3-7.7 65.1-1.3 20.9-5.1 41.4-7 62.2-.6 6.6-.8 6.4-7.7 5.9-6.6-.5-13.4 0-19.9-.9-10-1.4-11.1-1.9-9.7-11.8 2.1-15.1 4.5-30.1 6.4-45.3 2.1-16.8 3.5-33.6 5.6-50.4 2.4-18.4 4.7-36.8 8.3-55 2.6-13 4-26.2 5.7-39.4 2.7-20.4 5.4-41.1 8.2-62.7zm178.2-55c3.4 1.2 7 2.1 10.1 3.8 8.3 4.6 16.9 7.6 26.5 6.7.8-.1 1.7.9 2.5 1.3-1.3 5.3 2.2 6.7 6.3 8.2 16 6.1 32.1 11.8 48.6 16.5 20.3 5.7 40.5 11.9 60.7 18 1.5.5 2.9 1.4 4.4 2.1v1.2c-6.5 1.2-13 1.6-19.6.9-6.3-.7-12.6 1.1-18.7.9-24.5-1.1-49-.5-73.2-6.2-14.1-3.4-28.6-5.1-43-7.6-12.1-2.1-24.1-4.2-36.2-6.4-21.4-4-42.9-7.8-64.3-12.3-24.6-5.1-49.5-8.7-74.3-13.3-1.8-.3-3.5-1.4-5-3.3 10.3 0 20.7-.2 31 0 18 .5 35.8-1.2 53.7-2.1 21.2-1.1 42.4-2 63.7-2.5 6.6-.2 13.1-2.1 19.8-1.4 3.3.4 6.1-1 7-4.5zm72.8 67.1c-1.3 6.7-2.5 13.1-3.9 19.6-.8 3.6-1.8 6-7.3 5.1-37-5.8-73.6-13.4-110.3-20.8-33.1-6.7-66-14.2-99.1-21-13.8-2.9-27.8-5-41.8-7.5-1.9-.3-4-.6-5.7-1.5-3.4-1.7-9.1-.2-10.1-5-1.2-5.5 1.1-11.1 2.8-16.4.8-2.3 3.4-1.4 5.3-1.1 16.7 2.7 33.4 4.9 50 8.3 16.5 3.4 33.2 5.8 49.7 9.4 16.8 3.7 34.1 4.8 50.8 9.2 6.7 1.8 13.8 1.1 20.7 2.3 17.6 3 35.1 6 52.6 9.5 12.7 2.5 25.4 4.8 38.1 7.1 2.9.4 5.8.8 8.2 2.8zM537 1402c.7 37.2 1.1 73.7 2.4 110.1.5 12.6.8 25.2 1.1 37.8.1 4.5-1.5 6-5.7 5.6-3-.3-6 0-8.9-.5-17-2.8-20.6-7.5-19.4-24.6.4-5.3.6-10.6.7-15.9.7-40.1 1.3-80.3 2.1-120.4.1-5.3-1.2-10.5-.3-15.9.6-3.2 1.7-4.8 5.1-4.6 2 .1 4-.2 6 0 5.2.7 11.6-3.1 15.2.8 3.4 3.7 1 10.2 1.7 15.4.4 4.3 0 8.7 0 12.2z"/><path fill="#CAB894" d="M1688.3 1505.2c1.5 12.9-.4 25.8 1.8 38.6.8 4.3-1.4 5.9-6.1 5.1-9.8-1.7-19.5-3.9-29.3-5.5-4.5-.8-6.2-3.2-6.3-7.4-.4-21.9-4-43.6-3.4-65.6.2-7.7.2-7.9 7.9-7.1 9.9 1 19.7 3 29.8 2.2 4.5-.3 5.7 1.5 5.6 5.8-.1 11.3 0 22.6 0 33.9z"/><path fill="#E30B24" d="M1562.5 759.2c-9.7-4.4-18.8-7.2-27.9-9.4-4-1-5.3-3.4-7.1-6.9-9.4-18.3-19.6-36.1-29.2-54.3-4.2-7.9-8.9-15.5-13.3-23.2-4-7.1-3.6-8.1 3.6-12.4 1.1-.7 2.4-1.1 3.6-1.7 4.5-2.4 7.4-1.3 10.7 3 9.1 11.6 15 24.9 21.8 37.8 10 19 20.4 37.9 32.8 55.6 2.1 3 4.6 6.1 5 11.5z"/><path fill="#CAB894" d="M1728.3 1455.4c0 12.6.5 24.2-.1 35.7-.7 12.5-1.4 25-1.1 37.6.1 5.7-1.6 9.2-7.3 11.3-6.7 2.5-13.2 5.7-20.8 7.9-.7-9.9-1.5-18.7-1.8-27.6-.4-15.9-.7-31.8-.6-47.8 0-9.9.5-10.4 9.9-12.7 7-1.7 14.2-2.9 21.8-4.4zm392-103.2c0 18.8-.1 37.3 0 55.9 0 5-3.2 7-7.1 8.5-5.3 2-10.6 3.8-16 5.6-4.6 1.5-5.9.8-6.1-4.2-.3-6.6-.1-13.3-.1-20 0-10.7.1-21.3 0-32-.1-3.9 1.2-6.3 5.2-7.1 8.2-1.6 15.6-5.7 24.1-6.7zm-35 73.4c-9.9-.2-17.8-3.2-26-4.5-4-.6-6.4-3.3-6.5-7.6l-.3-35.8c-.1-5.2 2.4-7.5 7.6-8.4 6.5-1.2 12.9-3.2 19.2-5.1 3.6-1 5 .3 5 3.8v11c.1 15.2-.2 30.5 1 46.6z"/><path fill="#D8EAEA" d="M876.7 1347.7c-.7 1.1-1.3 2.2-2 3.3-1.3 0-2.8-.4-4 .1-15.5 6.9-32.2 6.1-48.6 8.1-18 2.1-35.7-1-53.5-.3-5.3.2-10.3-2.2-15.6-2.2 7.2-5.4 15.5-3.4 23-3 17.2 1.1 34.3-.5 51.4-1.2 11.9-.4 23.7-2.3 35.6-3.2 4.6-.3 9-2.6 13.7-1.6z"/><path fill="#CAB894" d="M530.7 1328.8c-.1-.4-.1-.8 0-1.2 3.2-.1 6.4-.6 10.8 1.1-4.6 2.9-7.7-.4-10.8.1z"/><path fill="#EDF4F5" d="M1624.5 855.5c-.7 1.2-1.6.4-2.2 0-.9-.5-1.1-1.3-.1-1.9.7-.4 1.6-.4 2.3.4.6.6.7.9 0 1.5z"/><path fill="#D8EAEA" d="M2581.5 1094.5c.7.6 1 1.4.4 2.2-.7.8-1.5.2-2.2-.2.6-.7 1.2-1.4 1.8-2z"/><path fill="#101010" d="M1312.5 342c5.4 5 6.9 10.3 4.5 16.9-6.3 17.2-16.4 31.8-30.6 43.2-6.2 5-11.9 10.5-18.3 15.2-4.5 3.3-9.6 4.3-14.7 5.4-2 .4-4.1-.8-4.6-2.9-.6-2.1 1.4-2.6 2.9-3.3 25.6-12.1 39.7-34.9 54-57.6 3.2-5.1 2.2-11.7 6.8-16.9zm16.1 82.4c-.6 10-3.1 19.6-6.6 28.9-.7 1.8-1.8 3.6-3.2 5-4.2 4.3-7.5 4.2-11.9-.2-4.8-4.9-7.8-11.1-7.8-17.8 0-11.7 2.2-23 9.4-32.8 1.6-2.2 3.4-4 5.9-5.1 4.8-2.2 7.2-1.6 9.7 3 2.9 5 4.4 11.6 4.5 19zm-12.2-12.1c-8 11-9.3 23.1-3.9 38.2 5.3-13 8-25 3.9-38.2zm-91.2-169.5c1.5 0 2.7 1.1 4.1 2 4.3 2.8 7.3 6.7 10 10.9 8.5 13.4 18.4 26 22.1 41.9.3 1.3 1.2 2.4 1.5 3.6.4 1.7.2 3.3-1.4 4.4-1.9 1.1-3.2-.2-4.1-1.5-1.7-2.4-3.2-5-4.7-7.6-8.7-15.2-17.9-30-29.9-42.9-.9-1-1.5-2.1-2.3-3.2-1.2-1.6-2.4-3.4-.7-5.3 1.3-1.4 2.9-2.4 5.4-2.3zm1.4 283.9c2.1.5 4.2.7 5.9 1.5 3 1.3 7.3 1.9 7.3 5.8 0 4.8-5.1 3.5-7.9 4.3-16.3 4.2-27.1 14.4-33.2 29.8-.8 2-.6 5.3-4 4-2.5-.9-4.5-3.1-3.3-6.3 4.1-10.8 7.5-21.9 16.7-29.9 5.6-4.7 11.7-7.5 18.5-9.2z"/><path fill="#EA243B" d="M2604 1350.7c7.2 8 16.9 8.9 25.7 11.1 2.7.7 5.7 1.4 8.6 1.6 2.7.1 7.1-.8 6.1 3.8-.8 3.9-5.1 2.8-7.7 2.1-11.6-2.9-23.1-6.2-33.7-11.8-5.2-2.7-5.8-5.5-3.4-10.7.8-1.8 2.9-2.8 2.7-5.9-11.6-4.6-23-10.3-34.3-16.3-4.4-2.3-8.5-5.2-13-7.2-3.1-1.4-5.3-2.7-4.2-6.5.7-2.5-.9-3.3-2.8-4.4-4.6-2.7-9.1-5.5-14.1-7.2-3.4-1.2-6.9-2.4-10.2-3.8-3-1.2-7.7-2.5-6.2-6.3 2-5.1 5.5-.4 8.1.5 10 3.4 19.8 7.5 29 12.8 3.6 2.1 7.1 3.8 6.2 8.9-.7 3.4 1.6 4.8 4.1 6 13.4 6.4 26.5 13.5 40.9 17.7 8 2.3 8.6 4.1 2.8 10-1.5 1.7-3.5 3-4.6 5.6zm210.5-151.8c-9.7-1.4-19.6-2.6-29.3-4.4-4.4-.8-9.8-1.5-8.3-8.5.6-3-2.2-2.9-3.9-3.3-9.9-2.6-19.6-6.1-29.8-7.9-5.8-1-12.8-1.2-14.7-9.5-.7-3-4.6-3.4-7.4-4.1-11.2-2.7-22.5-5.4-33.8-8-6.6-1.6-12.2-6.5-19.5-6-.8.1-1.5-1.2-1.3-2.3.3-1.4 1.3-2.4 2.6-2.8 4.7-1.6 9.8-.9 13.5 1.6 11.2 7.6 24.2 8.4 36.7 11.2 3.9.9 7.8 1.8 11.5 3.1 2.1.7 4.7 1.5 4.8 4.4.3 5.7 4.4 6.7 8.9 7.5 12.1 2 23.6 6.7 35.9 7.9 4.1.4 8.1 2 6.5 7.6-1.3 4.5 2 5.1 4.9 5.6 8.8 1.6 17.6 2.7 26.5 2.4 1.9-.1 4.2-1.5 4.7 1.4.6 3-1.8 4-4.2 4.2-1.5.1-2.9-.1-4.3-.1zm-103.6 116.6c2-.2 4-.3 5.9-.7 1.7-.3 3.3-1 3.8 1.4.4 1.9-.9 3.1-2.3 4-3.3 2.2-7.3 1.8-10.7 1.1-10.4-2.1-20.9-3.5-30.7-7.9-8.1-3.7-8.5-3.8-6.4-12.4 1.1-4.5-.9-6-4.5-7.1-10.4-3.1-20.9-6-31.1-10.1-6.9-2.8-7.5-2.8-5.5-9.7 1.1-4-.9-4.6-3.2-5.8-10-5.5-21-8-31.8-11.3-2.2-.7-4.4-1.3-6.7-1.9-1.8-.4-3.3-1.3-3-3.3.3-2.3 2.4-3.1 4.4-3.3.9-.1 1.8.5 2.8.8 12.8 4.6 25.5 9.1 38.3 13.8 8.4 3.1 8.4 3.1 7.2 12.5-.6 4.4 3.1 4.6 5.6 5.5 9.7 3.3 19.5 6.3 29.2 9.4 6.4 2 7.2 3.2 5.6 8.8-2 6.8-1.2 9 5.3 11.7 8.9 3.6 18.2 5.4 27.8 4.5zm-193 52.8c7 7 16 10.6 25.6 13 4.8 1.2 9.7 2.2 14.5 3.3 1.9.5 3.8 1 5.7 1.7 1.9.7 3.8 1.8 3 4.3-.8 2.5-2.9 2.3-4.9 1.9-14.2-3.3-28.3-7.2-41.2-14.1-10.8-5.8-11.7-10.1-4-20.4-7.9-4.7-16.5-8.5-23.3-14.8-2.3-2.1-5.6-3.7-4.5-8.1.8-2.8-1.9-4-3.7-5.3-4.5-3.4-9.6-5.9-14.8-8.1-2.1-.9-4.3-2.6-2.2-5.4 1.5-2.1 3.3-1.5 5.2-.4l23.4 13.2c2.8 1.6 5 3.9 3.8 7.3-1.6 4.5 1.4 5.9 4.2 7.8 5.3 3.5 11.1 5.9 16.9 8.5 7 3.3 7.4 6.8 1.3 11.2-1.6 1.2-3.9 1.2-5 4.4zm199.2-123.2c11.5 10.4 26.4 10.9 40.4 13.7 3.6.7 7.2.7 10.9 1 1.4.1 2.6.9 2.8 2.3.1 1.3-.5 2.5-1.7 3.3-2.1 1.4-4.2 1.6-6.6 1.1-17.2-3.7-33.9-8.9-50-16-3.8-1.7-4.9-4.4-3.1-8 2-3.8.4-4.6-3.2-6-11.2-4.3-22.5-8-34-11-3.6-.9-6.5-2.1-5.8-6.5.6-3.8-2.3-4.5-4.6-5.3-6.9-2.3-13.9-4.3-20.9-6.4-1.6-.5-3.2-.9-4.7-1.5-1.7-.7-2.5-2.1-1.9-4 .6-1.9 2-2.7 3.8-2 9.9 3.7 20.6 5 30.3 9.5 2.4 1.1 5.6 2.2 5.5 5.2-.3 8.1 6.5 9.4 11.2 10 10.1 1.2 19 5.6 28.7 8 8 2 8 2.5 3.8 9.9-.3.6-.7 1.1-1 1.7-.2.2 0 .6.1 1zM2299 1350.5c3 4.4 7.1 6.1 10.5 8.7 5.1 3.9 12.2 5.8 12.3 14.2 0 2 2.7 2.7 4.4 3.7 5 3.2 10.2 6.3 15.2 9.5 5.8 3.7 6.1 4.3 2.8 11.4-1.1 2.5-.1 3.7 1.6 4.9 6.4 4.6 12.9 9.2 20.7 11.3 2.2.6 4.3 1.8 6.5 2.4 2.6.8 4.5 2.2 3.1 5-1.2 2.6-4 2.5-6.1 1.4-9.9-5.3-20.3-9.9-29.4-16.7-3.1-2.3-5.8-5.3-3.6-9.3 2.1-3.8.5-5.3-2.4-7.1-4.8-3-9.3-6.3-14.1-9.3-3.9-2.4-8.4-4-7.8-10.1.2-3-3.2-4-5.1-5.7-4.5-3.9-9.4-7.4-13.9-11.2-2-1.7-5.3-3.8-4.7-6.1 1.7-6.1-1-9.7-5.2-13.1-1.1-.9-.8-2.4.1-3.6 1.4-1.9 3-1.2 4.2 0 3.8 3.8 8.6 6.2 12.8 9.4 5.3 4.2 5 5.5-1.9 10.3zm158.6 28.7c-7.9-4.1-15-7.7-21.9-11.5-4.7-2.6-11.8-2.7-9.6-12 .7-2.9-5.4-6-9-8.2-3.9-2.4-8.2-4.3-12.3-6.5-1.7-.9-3.5-1.9-5.1-3.2-2.1-1.8-4.1-4.1-1.9-6.8 2.4-2.9 3.9.4 5.7 1.4 9.3 5.7 18.5 11.6 27.8 17.2 3.6 2.2 7.1 3.9 5.2 9.1-1.1 2.9 1.2 4.2 3.3 5.2 7.4 3.5 14.8 7.2 22.4 10.3 3.2 1.3 6.7 1.9 6.7 6 0 3.9-3.8 3.9-6.4 5.2-.9.4-1.6 1.1-3.2 2.2 7.4 4.8 14.8 8.4 22.6 11.3 3.1 1.2 6.2 2.1 9.3 3.4 1.7.7 2.5 2.3 1.4 4.1-.9 1.5-2.3 2.3-4.1 1.4-11.1-5.3-22.3-10.3-33.1-16-4.9-2.1-4.3-5.3 2.2-12.6zm359.8-258.3c-14 0-27.4-4.4-41.2-6-2.3-.3-3.4-2-2.6-4.3 2.2-6.3-2.3-6.7-6.3-6.9-9-.3-17.9-.1-26.9-.1-8 0-15.3-.6-22.6-5.4-7.9-5.1-18-3.2-27.2-3.8-3.1-.2-7.8 1.8-7.8-3 0-5.4 5.4-4.1 8.6-3.5 7.5 1.4 15.3.2 22.7 2.6 2.1.7 4.6.7 6.5 2.1 11.5 7.8 24.3 6.4 37.1 5.3 5.9-.5 11.8-.4 17.7-.4 4.2 0 6.6 2.4 5.4 6.3-2 6.8 2.2 8.1 7 8.9 10.5 1.6 21 3 31.6 2.8 1.7 0 3.3-.2 5-.3 2.1-.1 4.3 0 4.2 2.8-.1 2.5-2.2 3-4.3 3.1-2.2-.1-4.6-.2-6.9-.2zm-27.2-75.3c-11.7.4-23.8-1.4-35.8-3.9-1.9-.4-4.4-.1-5.3-2.1-2.5-5.8-7.6-5.7-12.5-6-6.9-.5-13.7-2.5-20.7-2.1-1.6.1-3.5-.1-4.8-1-6-4.1-12.6-3.6-19.2-2.4-2 .4-3.8.9-5.6-.6-1.4-1.2-2-2.7-1.8-4.4.3-2.3 2.1-1.5 3.7-1.7 10.4-1.2 20.3.7 30.2 3.8 9.3 2.9 19 1.8 28.6 2.2 4.6.2 10.3-.7 10 7.3-.1 3.4 4.1 4 6.9 4.2 15.2 1.2 30.3 3.6 45.5 1.7 1.9-.2 4.1-1.8 4.7 1.2.7 3.4-2 3.7-4.4 3.7-6.3.1-12.6.1-19.5.1zm-358.1 365.7c-.7 2.2-2 3.7-4.3 3.2-1.5-.4-3-1.5-4.2-2.5-10.9-8.7-21.7-17.5-32.5-26.2-.3-.2-.7-.3-.8-.5-7.8-14.3-23.3-20.1-34.1-31-3-3-7.3-4.5-10.7-7.1-1.8-1.4-3.4-3.5-1.5-6 1.8-2.3 3.8-.3 5.2.6 3.4 2.1 7.1 4 9.7 7 5.8 6.6 13.1 11 20.2 15.9 4.5 3.1 8.5 6.1 10.9 12 2.4 5.8 8.6 9.9 14 13.7 8.2 5.7 16.4 11.2 24.6 16.8 1.6.9 3.3 1.9 3.5 4.1zm266.5-440.6c7-.3 14.2.5 20.7 4.6 2 1.3 4.3 1.9 6.6 1.9 14.1-.4 28.4 1.6 42.3-2.7 2.4-.7 4.8-1.8 5.7 1.2.8 2.4-1 4.6-3.3 5.3-5.7 1.8-11.6 2.6-17.6 1.8-10.8-1.4-21.7-2.2-32.6-1.8-2 .1-4.4.4-5.9-.5-6.7-4.1-14-3.4-21.3-3.5-1.3 0-2.7.1-4-.1-2.2-.2-3.9-1.5-3.7-3.8.3-2.6 2.4-4.4 4.9-3.5 2.6 1 5.2 1 8.2 1.1zm-17.7-46.6c5.6 0 11.9.5 15.9 4.1 8.5 7.7 17.9 6.4 27.6 5.1 6.9-.9 13.7-2.4 20.7-1.9 1.2.1 2.8.1 2.9 1.9.1 1.5-.9 2.7-2 3.1-1.5.6-3.3.6-4.9.6-13.5.7-27 1.4-40.5.4-2-.1-4.1-.2-5.6-1.8-5.9-6-13.1-7.2-21-5.8-1.7.3-3.4.9-4.2-1.1-.8-2.1 1.3-2.7 2.5-3.6 2.5-1.7 5.6-.9 8.6-1zM1918 841.6c-12.8-1.4-24.7-5.4-36.8-8.8-1.9-.5-3-1.9-2.7-3.6.9-5.9-3.6-6.3-7.3-7.3-6.4-1.8-12.8-3.1-19.2-5.1-3.9-1.2-8.8-1.2-9.6-7-.2-1.6-2.5-1.8-4.1-2.2-12.6-2.7-25.2-5.5-37.8-8.1-3.9-.8-7-1.6-10.3-4.7-4.2-3.9-11.1-3.9-16.9-5-9-1.7-17.9-2.2-26.3-7.4-5.3-3.4-12.7-3.4-19.1-4.9-2.1-.5-3.8-1.5-3.1-4.1.6-2 2.4-2.4 4-1.9 10.6 3.3 21.8 3.4 31.8 9.6 5.2 3.3 12.7 3.4 19.2 4.2 7 .9 13.8 1.8 19 7.3 1.9 2 4.7 2.4 7.3 2.7 11.5 1.5 22.7 4.4 33.9 7.1 2.8.7 6.2.6 7.6 3.9 2.1 5.1 6.9 5.8 11.4 6.9 7.7 1.9 15.5 3.5 23.2 5.1 3 .6 5.2 1.4 3.4 5.2-1.7 3.6 1 4.4 3.5 5.6 8.5 4.1 18 4.3 27 6.2.6.1 1.3 0 2 0 2.8.2 7.1-.9 7 3.4-.2 4.4-4.7 2.3-7.1 2.9zm60.7-22.5c-11.5-1.1-22.7-4.2-34-6.6-2.6-.5-6-1.8-5.4-4.9.9-5.5-2.5-5.8-6.1-6.6-5.8-1.4-11.6-2.7-17.3-4.5-5.8-1.9-12.2-2.5-16.5-8.1-1.5-1.9-5.4-2.2-8.3-2.6-7.2-1.1-14.5-1.8-21.7-2.8-5.5-.8-11.5-1.1-14.3-7.3-1.2-2.6-3.6-2.8-5.7-3.5-2.2-.7-4.6-.8-6.9-1.2-10.5-1.9-21.5-1.6-29.9-10.4-2.7-2.8-7.8-3.3-11.9-4.7-2-.7-5.3-.2-4.3-3.8 1-3.8 3.6-2.4 6.3-1.7 4.8 1.3 9.6 2.7 13.9 5.2 9.3 5.4 19.1 8.5 29.9 9.7 5.8.7 13.5.2 16 9 .9 3.1 5.7 2.7 9 3.1l25.5 3.6c1.9.3 4.2 0 5.7 1.6 9.5 9.9 22.7 9.6 34.6 12.9 1.9.5 3.9 1 5.8 1.3 2.3.4 3.4 1.7 3.7 3.9.4 2.1-1.9 4.8 1.1 6.3 3.2 1.6 6.2 3.6 10.1 4.1 8.2 1 16.3 2.4 24.5 3.6 1.7.3 4.6-.5 4.1 2.6-.4 2.6-3 2.1-4.9 2.1-1.1.1-2.1-.2-3-.3zm-48.8-114.5c5.4-5.3 10.2-4.2 14.5-2.7 10.7 3.6 21.2 7.6 31.7 11.5.6.2 1.6.3 1.8.7 5.1 9.8 15.7 8.1 23.9 11.1 7.4 2.7 15.5 3.4 20.7 10.8 2.2 3.1 6.7 4 10.6 4.9 9.3 2.2 18.7 4.3 28 6.5 7.4 1.7 7.5 1.8 7.4 10 0 3.3 2.3 3.6 4.5 4.2 8.3 2.2 16.9 3 25.5 4.2 2.7.4 7.5-.8 7.1 3.1-.5 5-5.2 2.3-8.1 2.1-11.2-1-22.4-2.2-32.9-7-2.7-1.3-5.2-2.3-4.1-5.5 1.7-4.8-1.4-5.8-4.7-6.5-6.8-1.6-13.6-3.1-20.4-4.5-7.8-1.7-15.4-3.4-20.9-10.1-1.8-2.2-5-3.2-7.9-4.1-5.7-1.7-11.4-3.7-17.1-5.5-6.6-2-12.6-4.5-18.5-8.7-7.9-5.6-17.6-9.1-27.4-11.4-3.9-.9-8-1.9-13.7-3.1zm-257.1 91.3c2.7-4.4 5.6-3.5 8.5-2.5 6.9 2.3 13.8 4.7 20.7 6.8 7.3 2.2 14.4 5 22.2 4.9 5.3 0 10.5 2 15 4.6 5.6 3.2 11.5 4.6 17.8 5.6 9.1 1.4 18.1 2.9 26 8.6 5.9 4.2 13.9 4 20.8 6.4 3.5 1.2 8.2.9 7.2 7.1-.4 2.6 2.6 3.1 4.9 4 10.7 3.7 21.8 5 32.8 7.1 1.3.2 2.6.3 4 .4 1.2.1 1.8 1 1.9 1.9.2 1.5-.8 2.5-2.3 2.5-3.3 0-6.7.2-9.9-.5-11-2.3-22-4.9-32.9-7.3-2.7-.6-6.3-1.4-6-4.2.6-5.6-3.1-5.7-6.5-6.6-8.3-2.2-16.4-4.6-24-9.1-7.4-4.4-16.8-3.6-24.9-6.2-13.7-4.5-27.2-9.1-41.7-11.2-6.9-1-13.8-4.3-20.7-6.6-4.3-1.5-8.7-2.7-12.9-5.7zm440.5-70.2c3-4.6-1.1-5.1-4.1-6.1-6.9-2.2-14-4-20.9-6.4-5.8-2-12.5-2.5-15.7-9.3-.7-1.4-3.3-2.1-5.2-2.7-5.7-1.8-11.4-3.4-17.1-5.2-10.8-3.5-22.4-4.3-32-12-5.1-4.1-12.9-4.8-19.5-7-1.9-.6-4.3-1.2-3.7-3.7.7-2.7 3.2-3.3 5.6-2.5 9.4 3.3 19.2 5.6 27.5 11.3 5 3.5 9.9 6 16 7.1 8.5 1.5 16.7 4 25 6.2 2.5.7 5.7 1.3 7.2 3.1 10.5 12.6 25.9 13.3 40.1 16.9 7.1 1.7 7.9 2.4 4.5 9-2 3.8 0 4.7 2.4 6 7.1 3.7 15.1 4.5 22.6 6.9 3.1 1 6.4 1.8 9.4 3 1.5.6 2.9 2.1 2.2 3.9-.8 2.1-2.6 2.7-4.9 1.9-7.8-2.7-15.8-4.9-23.5-8-3.4-1.4-6.8-2.5-10.3-3.3-4.6-1-6.8-3.9-5.6-9.1zm-111.9 46.2c.9 3.3-3.3 5.1-2.3 8.3 9.8 5 20.3 5.7 31 5.3 2.4-.1 6.3-1.1 6.2 2.8-.1 3-3.5 3.2-6.4 3.4-11.9.7-22.9-3.5-34-6.6-2-.5-3.6-2.2-3.4-4.4.4-5.5-3-6.4-7.4-7.1-5.9-1-11.6-2.7-17.5-3.8-4.4-.8-8.8-1.1-8.8-7.3 0-1.8-1.9-2.5-3.5-3-6.6-2.3-13-5.1-19.6-7.1-8.1-2.4-16.1-4.5-24-8.3-9.2-4.4-19.9-6.9-30.4-8.4-2.3-.3-4.6-.5-6.8-1.2-1.6-.5-4.5-.6-3.3-3.6.8-1.9 2.2-3.4 4.6-2.8 5.5 1.3 10.9 2.6 16.4 4 5.1 1.3 10.3 2.5 15.3 4 5.6 1.6 11.4 2.5 16.1 7 3 2.9 7.6 3.7 11.9 4.7 9.3 2.2 18.3 5.8 27.8 7.3 2.2.3 4.1 1.6 3.7 3.8-.9 4.9 2.6 5.4 5.8 6.3 6.7 1.8 13.3 4.2 20.3 4.4 3-.2 5.7.9 8.3 2.3zm-229.7 97.7c-8.4-2.2-17.7-4.6-26.7-8.1-2.1-.8-3.3-2.2-3.9-4.2-.9-2.7-3.2-3.2-5.5-3.7-9.8-2.1-19-5.1-27.4-10.9-3.1-2.2-7.5-2.6-11.2-3.9-1.9-.6-4-1-5.6-2.1-1.4-1-1.4-3-.7-4.6.6-1.4 2-1.4 3.4-.9 7.1 2.8 14.9 4.2 21.2 8.5 5.1 3.5 10.7 5.3 16.4 6.9 6.5 1.9 14.1 1.3 16.6 9.9.3.9 2.1 1.7 3.3 1.9 7.7 1.6 14.9 5.7 23.2 4.9 2.2-.2 5.3-.7 5.6 2.5.3 3.9-3.1 3.5-5.7 3.6-.7.2-1.4.2-3 .2zm-68.3 14.3c-6.4-6.2-19.3-2.2-24.8-13.4-1.6-3.3-5.8-2.6-8.8-3.7-3.8-1.4-11.8.3-10.3-6 1.1-4.8 7.3-.5 11.2 0 6.7.8 12.8 1.5 15.4 9.7.9 2.9 5.9 3.8 9.6 4.4 4.2.7 8.4 1.6 12.7 2.4 1.7.3 3.4 1 3.6 2.9.3 2.9-2.6 2.3-4.2 3-.8.4-1.8.3-4.4.7z"/><path fill="#D8EAEA" d="M1316.4 412.3c4.1 13.2 1.4 25.2-3.9 38.2-5.5-15.1-4.1-27.2 3.9-38.2z"/></svg>