<svg xmlns="http://www.w3.org/2000/svg" viewBox="0 0 2041.3 1727.4"><path fill="#FEFEFE" d="M1562.7 860.5c2.8-3.4 6.7-5.4 10-8 3.9-3.1 6.3-6.6 5.3-11.9-1.6-8.9-3.9-17.6-7.6-25.8-1.7-3.7-5.5-4.2-8.6-1.3-3.5 3.3-6.4 7.2-11.4 8.6-2.3.6-.6 2.5-.1 3.4 5.2 9.8 6.9 20.4 7.7 31.2.2 2.4-1 4.5-.7 6.9 0 .4 0 .9-.2 1.3.4.3 1.8.5 2.6 0 0-1.7 1.8-3 3-4.4z"/><path d="M2033.3 1106c-11.9-6-24-11.6-36.1-17.1-18.6-8.5-37.2-16.9-55.8-25.3-.8-.4-2-.9-2.2-1.6-.4-1.3 1.1-2.4 1.9-2.6 2.9-.8 4.8-2.7 7-4.4 4.5-3.3 8.1-9.9 6.8-15.2-2.1-8.5-3-17.4-6.9-25.4-3.1-6.3-5.3-13-9.5-18.7-2.7-3.6-6.4-6.3-9-9.8-5.3-7.3-12.7-10.5-21.2-11.9-5-.8-8.8-2.8-10.5-8.3-4.3-14-12.2-26.4-19.1-39.2-3.2-5.8-8.6-10.1-11.9-16-2.6-4.8-5.9-9-9.7-12.9-3.3-3.3-5.9-7.2-9.2-10.5-4.2-4.1-8.7-7.7-14.8-9.2-7.9-1.9-15.1-.3-22.4 2.1-15.1 4.9-31.2 7.2-44 18-8.6 7.2-8.2 12.2-3.3 21.1 3 5.4 8 9.2 11.5 14.2 5.2 7.3 10.8 8.5 19.5 6.1 2.9-.8 5.9-1.4 8.9 1.3 8.8 7.7 14.5 17 16.6 28.5.3 1.7-.7 1.7-2 1.9-2.4.4-4.5-.9-6.7-1.1-7.5-.7-14.6 1-20.9 4.6-4.3 2.4-9.3 4-12.7 7.6-7.1 7.6-13 16-11.4 27.4-2.5-.2-3.9-1.2-4.6-3.4-1.9-6-6.8-8.2-12.1-10.2-.9-.3-1.9-.5-2.7-1.1-8.7-5.8-18.4-9.1-28.5-11.3-7-1.5-13.9-2.3-21.2-.9-4.8 1-8.3 3.1-11.2 6.6-6 7.4-7.9 16.3-9.2 25.6-2.1-.4-3.4-1.6-4.9-2.5-7.9-5-16.4-8.9-26-7.2-3.8.7-4-.6-3.8-3.2.3-3.5-1.1-6.6-3.4-8.8-11-10.7-25.7-10.8-37.6-2.4-3.5 2.5-4.5 1.2-6.5-.8-11-10.7-22.5-20.5-37.1-26.4-11.7-4.7-23.4-7.2-35.3-2.4-6.7 2.6-12.2 7.3-16.5 13.5-4.7 6.9-4.3 14.8-5.4 22.3-.4 3-1.5 3-3.7 3-5.7-.1-11.3.5-17 .4-7-.2-14.3.9-21.5 1.5-6.6.5-13.1.3-19.7.9-8 .8-16.2-.3-24.3.7-8.3 1.1-16.6 0-25.5.5 1.8-3.5 4.2-6.2 4.3-8.9.1-8.4 6.8-11.3 12.3-13.8 7.9-3.6 12.9-9.2 13.7-17.2 1-9.7 0-19.5-3-29.2-1.7-5.5-5-10.7-4.2-17.2 2 2.1 4.3 3.8 5.6 6 4.1 6.7 12.3 10 14.5 18.2.3 1.2 2 2.4 3.7 3.1 4.2 1.6 8.5 1 12.5.4 7.1-1.1 13-5.1 18.7-9.4 7.5-5.6 10.9-13 9.3-22-1.4-7.6-5.2-14.4-9.9-20.5-4.5-6-4.4-8.6.7-13.5 5.6-5.4 11.4-10.8 16.5-16.8 6.5-7.7 14.3-14 20.2-22.4.6 1.2 1.2 2 1.3 3.1.5 4.6 5.2 3 7.8 4.8 1.6 1.2 3.2-2.4 3.4-3.7 1.2-6.8 3.5-13.4 5.1-20.1.5-2.3 1-4.8 3.2-4.7 2.1.1 2.7 2.8 2.9 5 .8 7.6-.1 14.9-3 22-1.3 3 .5 6.3 3.2 5.6 3-.8 5.8-1.7 6.9-5.5 2-7 3.3-14.1 4.3-21.3 2.9.6 5.8 1.3 6.5 4.8 2.3 10.4 6.1 20.5 5.1 31.5-.2 2.6 1.6 4.9 4.2 5.2 1.4.2 2.5-1.1 2.9-2.4h-.9.9c.2-.5.2-.9.2-1.3-.3-2.4.9-4.5.7-6.9-.8-10.9-2.5-21.5-7.7-31.2-.5-.9-2.2-2.8.1-3.4 5-1.4 7.9-5.3 11.4-8.6 3.1-2.9 6.9-2.4 8.6 1.3 3.7 8.2 6 16.9 7.6 25.8 1 5.3-1.3 8.8-5.3 11.9-3.4 2.6-7.2 4.6-10 8-1.2 1.4-3.1 2.7-2.9 4.5h1.5-1.5c0 .4.2.9.5 1.3 1.7 2.6 5.5 1.9 7.2 1 9.2-4.8 18.2-10.4 25.2-18.2 1.7-1.9 4.8-2.7 5.3-5.9 1.2-7-2.3-9.9-9.8-7.5-.8-10-7.2-17.3-12.3-25.2-2.6-4.1-3.4-6.4.5-10.2 3-2.9 5-3.6 7.2-.2 4 6.2 7.7 12.7 11.2 19.2 2 3.7 3.1 7.8 6 10.9 1.7 1.8 4.2 2.7 5.4.4 1.7-3.3 4.8-4.8 7.4-7 4.4-3.7 8.6-8.2 15.4-4.1 1.3.8 3.3 1.3 4.9 1.7 4.1 1 7.7 1.2 10.5-3.4 4.9-8 10.8-15.3 17-22.3 2.6-2.9 5.4-5.8 6.8-9.8.8.7 1.5 1.3 2.2 2.1 10 10.3 21.3 9.9 31.1 4.4 5.2-2.9 10.1-6.6 14.9-10.3 8.1-6.1 14.8-13.2 19.8-22 1.1-1.9 1.7-4.4 3.6-5.7 4.6-3.2 6.6-8.6 10.7-12.2 3.9 4.1 8.7 7.3 14.6 5.3 4.5-1.5 8.6-4.3 12.5-7.1 12.7-9 19.2-22.5 25.1-36.3 5.2-12 7.4-24.2 3.2-37.1-2.3-7.1-3.5-14.4-6-21.5-2.9-8.3-5.3-16.8-10.9-23.9-1.3-1.7-.5-2.7.2-3.7 3.5-4.8 3.5-9.3.9-14.7-3.2-6.4-6.8-12.4-10.5-18.4-3.8-6.2-8.6-11.9-13.6-17.3-6.6-7-14.6-11.5-24.5-12.7-7-.9-18 3.4-21.1 9.8-3.2 6.5-4.4 13.4-4.6 20.5 0 1.2.1 2.5-1.1 3.1-1.2.6-1.6-.8-2.3-1.4-7.7-6.1-15-12.8-23.3-18-12.7-8-24.9-16.8-38.3-24-7.6-4.1-15.5-6.6-23.6-9-5.1-1.5-12.3 1.7-15.5 5.9-7.6 10-15.2 20-23.2 29.6-7.3 8.7-14.8 17.2-20.7 26.8-7.3 11.9-17.1 22-24.7 33.6-1.1 1.7-2.9 2.7-4.9 2.9-10.8.9-20.6 6.5-31.6 6.7-7.5.1-15 1.3-22.5 1-5.4-.2-10.8-.8-16.2-1.4-5-.5-6.4-2.7-6-6.8.5-6 .2-12.2-1.3-17.7-4.1-14.6-2.3-29.8-7.1-44.5-2.5-7.7-3.6-16.2-6.9-23.9-2.7-6.4-3.8-13.4-7.5-19.6-3.2-5.4-2.4-12.4-2.3-18.8.1-9.1-.1-18.1-.4-27.2-.4-14-4.7-27.4-5.8-41.3-.4-5.7-3.5-11.1-4.7-16.6-2.9-13.7-8.8-26.3-14.1-39.1-4.3-10.3-9.6-20.2-14.9-30.1-7.5-14.1-16.3-27.1-26.4-39.4-5.2-6.4-10.6-12.6-15.2-19.4-2.1-3.1-4.1-6.3-7-8.7-7-5.9-14.3-11.6-21.3-17.5-4.5-3.8-10.3-6.2-13.9-10.4-5.3-6.2-12-10.1-18.6-13.7-8.9-4.8-17.7-10-27.5-13.3-8.5-2.9-16.7-7-25.6-9.1-2.5-.6-5.1.1-7.1-3-6.3-9.4-13.1-18.5-20.1-27.4-6.3-8.1-14.2-14.9-21.5-22-10.9-10.6-22.5-20.6-34.5-30-7.7-6-14.4-13.3-22.5-18.7-15.5-10.4-30.3-21.9-46.8-30.8-9.7-5.2-18.3-12.7-27.9-18.2-8.1-4.6-17.3-7.2-25.2-12-13.7-8.4-28.6-14.1-43.5-19.7-10-3.8-19.7-8.6-30-11.7-2-.6-4 0-5.7-.9-9.5-4.7-20-5.7-30-8.5-14.9-4.2-30.3-6.3-45.4-10.3-6.9-1.8-14.3-1.4-21-3.3-16.8-4.6-34.2-3.7-51.2-5.4-16.3-1.6-32.9-2-49.4-1.5-8.4.3-16.9-1.1-25.2-.5-10.8.7-21.7.6-32.5 1.6-7.6.7-15.2 0-22.9 1.5-6.8 1.4-14.1 2.3-21.2 2.6-6.5.2-12.9 1-19.3 1.7-10.6 1.2-21.1 3.6-31.7 4.9-13.2 1.7-25.9 5.6-38.6 9-9 2.4-18.1 4.9-27 8.2-8.8 3.3-18.3 4.7-27.1 8.1-8.1 3.1-16.1 6.5-24.5 8.8-4.8 1.4-8.1 5.5-12.9 6.1-6.1.8-11.2 4.3-16.9 6-7.8 2.4-15.1 6.6-22.6 10.1-6.8 3.1-13.7 6-20.3 9.6-12 6.8-23.9 13.9-35.9 20.6-7.4 4.1-15.2 7.5-22.3 11.9-14.5 9.1-29 18.1-42.9 28.1-9.6 6.9-19.5 13.2-29.2 19.9-11.7 8.1-23.1 16.6-33.9 25.9-9.8 8.4-20.8 15.7-28.1 26.8-1.6 2.5-4 4.8-6.5 6.3-8 4.6-13 12.1-19.1 18.5-5.9 6.3-10.9 13.4-17 19.5-8.2 8.1-16 16.7-23.3 25.5-8.1 9.9-15.4 20.8-22.5 31.6-4.7 7.1-9.1 14.4-14.1 21.3-1.3 1.8-1.5 5.3-2 5.4-4.1 1-5.3 4.9-6.4 7.5-5.1 11.6-12.3 22.1-18.1 33.2-4.8 9.2-9.7 18.5-15 27.4-2.9 4.9-4 10.8-8.4 15.1-2.3 2.3-3.8 5.6-5.1 8.6-4.8 11.8-9.9 23.4-14.4 35.3-5.9 15.7-11.7 31.4-18 47-3.8 9.5-5.4 19.8-9.7 29.2-1.7 3.8-3.1 7.8-4 11.8-1.9 9.1-3.4 18.4-5.2 27.6-.7 3.6-2 7.1-2.9 10.7-1.5 6.6-.9 13.5-2.3 19.9-3.5 15.9-4.1 32-5.4 48-1 12.1-2.8 24.1-3.1 36.3-.5 17.7-.9 35.3-2 53-.5 8.9.3 17.9.5 26.8.2 10.5 2.9 20.6 3.6 30.9.9 13.3 3.9 26.4 3.6 39.8-.2 8.8 2.4 17.1 3.9 25.5 2.4 13.7 4.5 27.6 10.4 40.4 2.4 5.2 2.9 10.8 4.8 16.1 4.5 11.8 9.2 23.5 13.5 35.4 6.2 16.9 15.4 32.2 23.4 48.1 6.5 12.7 13 25.5 20.9 37.5 7.9 12 16.2 23.7 24.3 35.6 8.3 12.2 18.9 22.7 28.1 34.2 10.5 13.1 21.4 26.1 33.3 38 9.3 9.4 19.5 18 29.4 26.8 7.4 6.6 15.5 12.5 22.3 19.6 11.3 11.8 24.3 21.4 37.2 31.1 10.3 7.7 20.6 15.3 31.7 22 10.9 6.7 20.7 15.2 31.8 21.8 10 6 20.3 11.6 30.5 17.1 2.5 1.3 5.9 1.1 7.6 2.4 4.1 3.1 8.7 4.9 13.1 7.2 9.5 4.9 19.3 9.2 29.5 12.6 9.4 3.1 17 8.3 23.4 16 5.7 6.9 11.1 13.9 15.9 21.5 4.2 6.6 9.6 12.3 12.8 19.5 1.8 4.1 3.5 8.3 5.4 12.3 9.8 19.8 14.3 40.8 14.7 62.7.2 8.8 2.6 17.7.9 26.2-3.1 15.1-3 30.6-6.6 45.6-2.6 11-4.6 22-7.6 32.9-2.5 9.3-5 18.6-7.6 27.9-1.1 3.7-1.9 7.4-3.7 10.9-1.5 2.9.8 6.1-1.8 9.9-3.5 5.3-5.8 11.9-7.6 18.4-2 7.4-4.9 14.5-6.9 21.9-2 7.2 0 13.4 7.9 15.1 4.7 1 9.8 1.4 14 3.6 5.6 2.8 11.5 4 17.3 5.3 8.8 2 17.9 3 26.5 5.5 13.4 3.9 27.3 5.1 40.8 8.5 7.8 2 15.8 3.1 23.7 4.7 9.5 2 19.3 3.1 28.8 3.9 8.7.7 17.8-.1 26.7-.1 11.8 0 23.6.8 35.5-.3 15.5-1.4 31-2.9 46.5-3.9 12.3-.8 24-4 35.7-6.7 10.5-2.4 20.1-8 29-14.4 8.5-6.1 15.4-13.6 20.7-22.5 4.1-7 8.1-14.2 11.9-21.4.5-.9.8-2.1 1.8-1.9 5.2 1.1 10.5.4 15.6 1 7.3.9 14.3-.8 21.6-.1 5.1.5 10.7-.4 16.1-1.1 9.1-1.2 18.4-1.8 27.6-1.9 10.8-.2 21.2-3.1 31.9-4.2 9.2-.9 18.3-2.6 27.4-4.1 6.4-1 12.9-1.7 19.1-3.5 10.4-3.2 21.2-5.1 31.3-9.3 4.7-2 10-2.9 13.6-6.7 1.8-1.9 3.8-3.2 6.1-4.3 4-1.9 7.2-4.5 9.8-8.2 2.7-3.9 3.8-8.3 5.4-12.7 5.6-15.1 7.1-30.8 7.8-46.7.5-10-1.6-19.9-3.1-29.7-1.7-10.8-5.2-21.1-10.7-30.7-3.4-5.9-8.5-9.9-12.5-15.1-7.2-9.5-16.3-15.9-27.7-18.4-5-1.1-10.4-.1-15.5-1.6-.9-.3-1.5.5-2.1 1.1-12.1 11.3-23.9 22.9-38.3 31.3-3.7 2.2-6.5 5.9-11 6.7-.3 1-.9 1.1-1.8.7.3-.5.6-.9.9-1.4 6.1-7.8 12.1-15.7 18.3-23.4 4.5-5.6 6.4-12.6 10.5-18.3 2.2-3 6.3-5.8 6.6-9 .4-5.3 3.8-8.8 5.5-13.2 3.8-9.6 9.5-18.5 11-29.1.2-1.6.6-3.3 3.2-3.5 14.6-.9 28.1-6.8 42.2-9.8 11.3-2.4 21.8-7.3 32.8-10.5 10.8-3.2 20.8-8.3 31.4-12 10.2-3.6 19.6-9.1 29.3-14 15.2-7.6 30.3-15.3 44.4-24.7 15.5-10.2 30.8-20.7 45.8-31.6 10.2-7.4 20.2-15.2 30.4-22.6 3.4-2.5 7.3-4.4 10.2-7.2 4.9-4.6 10.5-8.2 16.5-13.7-1 5.6.3 9.6.1 14-.6 15-.9 30 0 45 .6 10.4.6 20.8.8 31.3.1 7.5.1 14.9 0 22.4 0 2.1 1.1 4.3.7 6.1-1.9 7.6-1.7 15.3-1.5 22.9.4 14.2 1.2 28.5.9 42.7-.1 5.9-1.4 11.8-1 17.8 1 13.5 1 27 1 40.5 0 2.2 0 4.3-.1 6.5-.4 9.4.6 18.8-.6 28.2-.7 5.3-.1 11.3 4.7 15.4 6.1 5.1 12 10.3 19 14.5 9.7 5.8 18.9 12.5 28 19.4 9.6 7.3 20 13.7 29.7 21 5.4 4.1 10.9 8.5 16.6 11.7 10.2 5.7 19.4 12.6 28.9 19.1 10.9 7.4 21.8 14.9 32 23.4 9.3 7.8 20.2 13.2 30.1 20.2 17 12.1 34.7 23.2 52 35 8.9 6.1 17.8 12 27.2 17.4 10.5 6 20.5 12.8 30.7 19.4 4.9 3.1 10.7 5.5 14.2 9.8 3.7 4.5 7.7 4.6 12.5 4.6 7.8.1 15.7.2 23.5.4 8.3.2 16.7-.4 24.8.1 7.9.5 15.1-2.5 22.9-1.7 3.9.4 8.3.6 11.9-.1 10.5-2.2 21.2-1.6 31.7-2.5 11.5-1 23.2-.1 34.7.7 2.7.2 5.6 1.7 8.1.8 8.7-3.2 17.7-.7 26.6-1.5 9.3-.9 19-1.4 28.6-1.3 7.5 0 15.1-.7 22.7-.9 14.8-.5 29.6-1.9 44.5-2.8 3.6-.2 7.4.4 10.8-.4 6.9-1.7 13.9-1.5 20.8-2.3 10.2-1.2 20.5-.9 30.7-.9 15 0 29.4-4 44.3-4.6 10.2-.4 20.3-3.2 30.5-4.7 9.5-1.5 19.2-2.2 28.5-4.3 3.3-.7 7.5.7 10-2.7 2.3-3.2 3.9-6.6 3.7-10.8-.3-5.4-.5-10.8-.5-16.1 0-8.2 2.4-16.5 1.2-24.5-.8-5.2-.2-10.3-.2-15.2.1-9.9 1.1-20 1.3-30 .5-18.3 0-36.6.2-54.9.1-12 .5-24 1-36.1.1-2.4-1.6-4.7-.9-6.7 2.3-7.1 1.4-14.5 1.2-21.4-.6-20.6-1.5-41.1-1.4-61.7.1-11.4-.4-22.9-.2-34.3.5-25.1.2-50.2.1-75.4 0-3.9-.6-7.8-.6-11.7.1-12.8 1.2-25.7 1.5-38.5.3-13.1.2-26.2-.6-39.2-.5-7.2.8-14.2 1.4-21.3 1.1-13.4.5-27 1.2-40.5.7-13.6-.5-27.4.4-41 .2-7.3-3.5-10.4-8.3-12.8zm-253.2-109.6c1.9-5.3 5.4-8.9 10.9-11.4 8-3.7 16.1-4.5 24.7-4.4 4.1.1 8.2-1.4 12.5-.1 2.2.7 4.5-1.7 3.6-4-2.5-7-3.1-14.6-6.9-21-4.9-8.2-9.4-16.8-16.4-23.7-2.3-2.3-10.9-3.4-14.2-1.8-5.1 2.4-8.2 1.8-11.2-2.8-3.6-5.4-7.2-10.8-10.5-16.4-1.9-3.3-2.1-5.4 2.7-7.5 6.8-3.1 12.9-7.9 20-10.2 11.7-3.7 24.1-8.9 35.9-1.9 7.1 4.3 13.9 9.8 18.9 17 7.4 10.8 15.5 21.2 22.2 32.4 5.5 9.1 9.9 18.9 13.3 28.8 2.5 7.3 8.5 9.9 14.1 10.9 7.3 1.2 12.3 5.4 18.1 8.8 6.5 3.9 11 10 14.2 16.5 3 6.3 4.9 13.2 6 20.2 1.1 7.6.1 15-2.7 22.1-2.3 5.7-7.8 6.5-12.7 7.6-2 .5-4.2.4-6.2 1.1-11.9 4.5-16.6-5.2-22.1-11.9-6.4-7.7-9.4-17.3-12.1-26.9-.8-2.8-3.4-5.3-1.1-8.6.7-1.1-.7-1.5-1.8-1.6-2-.1-3.1.8-3.1 2.9-.1 5.1 1.8 9.8 2.9 14.7 1.7 7.5 6 13.8 9.3 20.6 1.5 3 4.5 5.3 6.8 7.9-.3.3-.5.7-.8 1-9.2-4.6-18.9-9-22.4-19.8-3.7-11.5-4.2-23.3 1.8-34.2 2.2-4 5.5-7.9 9.9-10.1 3.2-1.6 3.1-4.5 1.9-6.5-1.2-2.2-4-3.6-6.8-1.6-10.8 7.7-19 17-19.9 31.2-.5 9.2.4 17.9 5.4 25.8.8 1.3 2.4 2.9 1.5 4.4-1.2 2.2-2.8-.3-4.3-.2-6.9.5-12.5-3.8-18.9-5.2-1.8-.4-1.7-2.2-1.6-3.8.3-14.3-9.8-22.9-21.9-25.2-7.9-1.5-14.1.1-20.3 5-2.5 2-2.5 5.4-5.5 7-.9.5-1 3.4-3.4 3.1-3-.4-6.4-1.3-7.3-4.1-2.5-7.7-5.4-15.7-2.5-24.1zm-268.1 32.3c2 2.4 4.7 3.2 6.2.1s5-1.6 6.8-3.9c1.4-1.9 2.4-2.7.6-5.1-4.3-5.9-8.7-11.9-9.7-19.7-1.4-11.8 5.7-24.4 16.7-29.6 5.1-2.4 10.4-1.2 15.3-.5 9.3 1.2 16.6 6.9 24.1 12.3 8.1 5.9 13.9 14.2 21.9 20.1 3.1 2.3 5.5 1.9 7.6-.9 1.4-1.9 3.2-3.4 4.7-5.2 3.6-4.4 12-5.1 16.9-1.6 1.5 1.1 3.3 1 4.7 2.3 6.6 6 6.7 10.1.2 17.1-4 4.3-4.4 9.2-1.1 14.1 1.7 2.5 4.2 3.2 6.6 1.3 2.7-2.2 5.2-4.8 7.6-7.4 7.5-8.5 21.9-8.8 27.6 1 1.8 3.1 6.8 2.6 8.7 6.4.3.6 3.6-.5 4.4-2.6 1-2.7 2.3-5.3 2.9-8 1.6-7.2 5.4-13.4 8.7-19.7 3-5.7 9.7-5.3 15.4-4.7 13.3 1.5 25.5 6.1 36.8 13.2 3.4 2.1 7 3.9 10.6 5.8 2.7 1.5 3.2 3 2 5.5-1 2.1-.2 3.6 1.4 5.2 4.7 5 10.8 7 17.1 8.5 5 1.2 9.8 2.9 14.7 4.4 5.6 1.7 7.2 1.1 9.6-4.3 1.7-3.8 3-7.8 5.8-11 5.4-6.1 14.6-4.3 19.4 2 3.7 4.9 3.6 10.4 2.7 14.2-1 4.4-4.2 9.8-9.9 11.7-3.7 1.3-4.2 3.6-1 5.9 2.2 1.6 4.6 3.3 7.2 4 5 1.3 8.2 5.1 12 8 4.1 3.1.5 6.5-.5 9.6-.5 1.4-2 2.5-1.8 4.4.3 3.4 2.5 4.7 5.7 3.2 5-2.3 7.6-6.1 7.4-11.7-.1-2.6-.1-3.3 3.5-2.8 8.5 1.1 16.5 4.5 25 5.6 2.7.4 5.1 2.5 8 3.1 1.3.3 2.2 1.3.9 3-2.2 2.8-4.2 5.4-7.8 6.9-14.1 5.9-29.1 8.1-44 10.5-5.3.8-11.2 1.1-16.9.7-2.9-.2-6.4.5-9.6 1-8.3 1.2-16.7.5-25 .7-3.1.1-6.2.7-9.3.6-2.3 0-5.3 1.1-6.3-2.6-.3-1.1-1.5-1.2-2.6-1-7.1 1.3-14.2 1.9-21.4 2-8.5.1-17.1.6-25.6.1-4.6-.2-9.2.2-13.9-.1-12.1-.9-24.3-1.1-36.3-2.2-8.8-.8-17.4-3.5-26.3-4.2-11.2-.9-22-4.7-33.2-5.8-8.1-.8-15.9-3.7-23.9-5.2-9.8-1.8-19.3-4.8-28.9-7.5-10.9-3-21.8-5.7-32.1-10.5-13.3-6.2-26.6-12.4-39.8-18.9-3-1.5-6.1-2.8-9.1-4.3s-4.7-3.2-4.2-6.1c.6-3.4 4-4.3 6.9-5.3.9-.3 2 0 3.4 0 2.8-.8 4.2.7 5.6 3.6 2.8 6.1 4.8 5.9 9.9 2.3 3.5-2.5 5.5-6.3 9.1-8.6 2.9-1.8 5.4-2.4 7.9.6zm67.4-241.4c-6.7 6.8-13.5 13.5-20.5 20-2.2 2-4.3 4.1-6.8 5.7-3 2-6 3.5-10.1 1.9-6.2-2.4-12.9-3.2-19.1-5.7-3-1.2-6.1-.3-8.4 2.5-6.6 8-13.1 16-19.9 23.7-2.6 2.9-5.7 5.3-8.3 8.3-6.8 7.8-14.1 15.2-21.5 22.5-1.9 1.8-2.6 4.3-4.6 6.1-5.3 4.6-5.8 4.6-10.1-1-2.3-3-4.3-6.4-7.4-8.8-1.5-1.2-1.3-2.3.2-3.7 14-12.9 24.8-28.9 39-41.8 5.2-4.7 9.4-10.6 13.4-16.4 2.8-4.1 5.2-8.2 1.2-14-2.1-3.1-3.2-7.6-5.1-11.4-1.6-3-.2-5.8 3-7.6 16.7-9.3 30.8-21.7 42.2-37.1 1.5-2 1.1-5.4 4.4-5.9 2.7-.4 4.5 1.9 6.5 3.2 12.1 7.4 24 15.1 36.1 22.5 2.8 1.7 2.9 2.8 1 5.3-5.7 7.4-12.1 14.2-18 21.3-5.1 6.2-11.1 11.2-16.4 17-3.1 3.4-7.5 1.6-11.4.8-1.1-.2-2.2-1.2-3.2-1.1-9.5.6-16.3-4.6-23.1-10.2-.6-.5-1.1-1.4-1.9-1.6-1.8-.5-3.9-1-5.2.3-1.1 1.2.2 2.9 1.1 4 1.7 2.3 3.4 4.9 5.8 6.2 6.7 3.7 12.1 9.9 20.5 10.6 2.6.2 5.2.1 7.5.5 10 .6 16.4-4.9 22.1-11.7 6-7.2 12.2-14.2 18.6-21.1 3.3-3.6 6-7.9 10.2-10.8 1.9-1.3 3.6-2.2 5.2-.4 1.5 1.7 3.5 2.8 1.4 6.4-5.1 8.5-11.8 14.8-18.4 21.5zm-58.6-70.2c-1-1.6.5-1.4.6-2 3.7 1.5 7.4 2.4 10.4 4.3 2.3 1.5-.7 3.1-1.4 4.2-2.7 4.3-4.2 4.1-6.7-.5-1-2-1.7-4.1-2.9-6zm106.3 76.5c-3.1 3.6-6 7.7-8.6 11.7-3.3 5-9.2 6.9-11.8 12.2-.1.3-.9.3-.8.3-1.7.2-1.7-.8-2.1-1.4-5.3-7.5-9.3-16-16.1-22.5-1.5-1.4-.8-3.2.6-4.8 5.2-6.1 10.3-12.2 15.4-18.4 1.3-1.6 2.7-1.6 4-.6 6.6 5.4 13.5 10.3 19.5 16.4 2.4 2.4 2.7 3.9-.1 7.1zm112.9-51.5c-8.5 14.7-20.1 26.8-33.4 37.1-4.3 3.3-9 8.3-15.3 7.4-7.8-1.2-15.3-3.7-19.5-11.5-.5-1-.9-1.5-.1-2.6 5.1-6.8 10.2-13.7 15.5-21 5.9 9.1 10.3 11.7 17.1 8.9 4.2-1.8 8.3-4.8 11.5-8.1 8-8.4 16.1-16.7 20.4-27.9.2-.6 1.1-1.3 1.8-1.5 1.2-.3 1.2 1.1 1.4 1.7.8 3.4 2.5 6.3 3.7 9.5 1.3 3.4-1.8 5.6-3.1 8zm-42.3 4.5c2.3-4.7 5.6-8.8 8.9-12.8 2-2.5 2.5-5.9 5.1-8.1 3-2.6 3.8-9.1 7.8-8.3 3.2.6 7.3 2.3 10.3 5.1-6.1 12.2-16.3 20.9-26 29.9-1.9 1.8-3.9-.5-5.6-1.6-2-1.3-1.3-2.7-.5-4.2zM1544.9 648c4.6-4.5 7.9-10.5 11.4-16.1 3.2-5 7.1-9.7 10.8-14.4 2.9-3.7 5.8-7.6 8.6-11.4 5.1-7 10.5-13.8 16.1-20.3 5-5.8 8.9-12.3 13.5-18.4 5.1-6.7 10.5-13.3 15.9-19.7 3.7-4.5 9.9-1.8 14.5-.4 6.1 1.9 11.7 5.3 17.5 8.1 8.3 4 14.9 10.4 22.8 15 16.9 9.9 31 23.5 45.4 36.6 5.3 4.8 10.2 10.3 15.3 15.4 4.3 4.3 7.4 10.6 14.3 12.1 2 .5 3.9.3 5.9.4 1.4-6.8-4.8-8.9-8.1-12.6-7-7.7-14.7-14.9-19.6-24.1-4-7.5-5.1-16.2-3.9-24.7.9-5.9 10-10.1 16.5-8.3 9.6 2.6 17.9 7.5 24.2 15.4 5.3 6.7 9.7 14 13.6 21.6 1.3 2.5 1.6 6.3-1.4 9.1-4 3.7-4.8 9-1.8 13.2 6.8 9.6 12 20.1 17.2 30.6 6.6 13.5 6.3 27.6 1.1 41.7-4.4 11.7-11.5 21.5-20.3 30.4-2 2.1-3.5 4.7-5.8 6.6-5 4.2-10.6 3.1-13.9-2.6-2.3-4-4.8-8-6.9-12.1-1.7-3.3-4.7-5.2-7.8-6-5.2-1.3-7.7-5.5-11.1-8.8-1.6-1.5.4-1.8.8-2.6 6.8-10.4 13.5-20.8 21.3-30.5 3.8-4.8 7.1-10 10.9-14.8 1.8-2.2 1.3-5 1.8-7.4.5-2.6-2.7-1.9-4.6-2-1.8 1.8-3.6 2.9-3.7 6.4 0 3.8-4.9 6-7.1 9.5-5.7 8.9-12 17.5-18.4 25.9-7.7 10.2-15 20.8-23.7 30s-15.3 19.9-23.4 29.5c-7.4 8.7-13.8 18.1-20.8 27.1-8.2 10.7-16.2 21.6-23.1 33.3-1.3 2.2-3.2 1.4-4.7.9-1.4-.5-3.6-.9-3.3-3.1.3-2 2.1-2.4 3.7-2.4 4.3.1 6.4-2.9 7.5-6.1 1-2.8 0-6.4-2.4-8.4-5.6-4.7-9.6-10.8-15.2-15.5-10.4-8.7-20.9-17.3-32-25.2-8.3-5.9-17.3-10.8-25.3-17.3-7.8-6.4-17.3-10.8-26.5-15.4-3.1-1.5-6.3-3.2-9-5.2-4.1-2.9-8.9-3.1-13.2-4.9-3.4-1.5-6.4 1-8.6 3.4-2 2.1.1 4.4.2 6.6.3 5.6 6 7.8 6.8 12.7.1.7.8 1.6 1.5 1.9 5.9 2.5 2.3 4.7 0 7.2-5.7-7.4-11.3-14.4-15-22.8-2.1-4.7-1.5-8.3 1.2-13 4-7.1 8.9-13.5 13.9-19.8 9-11.5 16-24.1 26.4-34.3zM1241 1204.7c-4.8 5.1-10.2 10.1-16.2 14.3-5 3.6-9.8 7.9-14.1 12.6-3.4 3.8-7.5 6.5-11.7 9.1-2.7 1.6-4.7 4-7.2 5.9-9 6.7-17.2 14.4-26.3 20.9-8.6 6.2-17.7 11.5-26.8 16.9-6.1 3.6-12.1 7.5-18.3 10.9-11.9 6.4-23.4 13.6-35.8 19-8 3.5-15.8 7.4-24 10.5-16.4 6.3-32.8 12.5-49.5 18.2-6.2 2.1-12.7 3.6-19 5.2-9.5 2.4-19.2 4.6-28.6 4-6.1-.3-8.8 3.6-13.3 4.9-2.1.6-2.9 2.4-2.8 4 .8 13.7-5.4 25.3-10.2 37.5-5.5 13.8-14.1 25.1-23 36.6-5 6.5-9.9 13.2-15.4 19.2-4.5 4.9-9.8 9.2-15 13.5-4.2 3.4-4.1 8.2-3.5 12.4.6 3.8 4.9 4.2 8.2 4.5 5.5.6 10.7-.9 15.4-3.4 6-3.1 11.8-6.8 17.7-9.7 6.7-3.3 12.5-7.2 18-11.8 8.8-7.5 17.1-15.7 25.4-23.8 1.9-1.9 4.6-3.2 6.2-2.8 7.4 1.6 14.9 2.8 21.2 8.2 6.7 5.8 12.6 12.3 17.5 19.4 3.7 5.4 5.1 12.4 7.4 18.7 4.4 12.1 4.8 24.8 5.8 37.4 1.4 18-1.5 35.5-9.4 51.7-3.6 7.3-9.5 12.7-18.1 15.7-9.3 3.2-18.5 6.6-27.9 9.8-7.4 2.5-15.1 3.3-22.6 4.8-7 1.4-14.2 1.7-21.1 3.2-5.8 1.2-11.7.9-17.5 1.8-15.8 2.3-31.7 3.3-47.7 3.4-12.2.1-24.5.2-36.7.9-5.6.3-11-.4-16.5-.2-5.3.2-6.8-2.1-5.7-7.2 1-4.7 1.3-9.3-.5-14.1-1.1-3-3.1-2.9-5-2.4-1.7.5-2 2.7-1.4 4.1 2.8 5.7 0 11.1-.8 16.5-1.2 8.1-3.9 16-7.7 23-3.6 6.5-8.4 12.6-14.2 17.5-2.8 2.4-5.1 5.4-7.7 8-8.6 8.9-19.9 12-31.1 14.4-14.6 3.1-29.3 6.2-44.2 7.6-10.7 1-21.1 4.4-31.9 3.5-7.3-.6-14.6-.2-21.7-.3-5.9-.1-12.2-.7-18.5 1.1-3.7 1.1-8.4-.4-12.7-.1-9.9.6-19.7-2-29.6-3-6.7-.7-14-1.1-20.3-3.6-7.3-2.9-15-1.7-22.5-3.4-11.1-2.6-22.2-5.1-33.4-7.3-11.4-2.2-23-4.1-34.2-7.1-5.3-1.4-10.4-3.1-15.4-5.5-3.5-1.7-3.6-4-2-6.7 6.7-11.2 10.8-23.5 15.5-35.5 6.5-16.6 10.7-33.8 14.6-51.1 3-13.7 4.7-27.7 8.3-41.2 3.5-13.3 5.8-26.9 6.1-40.3.4-15.9.6-32-2.1-47.9-2.1-12.6-5.5-24.6-11-36.2-2.1-4.4-3.2-9.3-5.1-13.8-3.2-7.8-8.7-14.2-13.4-21.1-2-2.9-2.8-6.1-4.5-9-3.1-5.1-7.6-8.9-10.9-13.8-2.2-3.3-4.4-6.7-6.4-10.2-2.2-3.6-5-6-9-7.7-12.4-5.2-25.5-8.7-37.6-14.9-7.3-3.7-15.6-5.7-22.6-10.1-5.3-3.3-11.1-5.8-16.6-8.6-9.9-5.1-18.4-12.1-27.3-18.4-12.5-8.8-26.1-15.9-37.9-25.8-8.7-7.3-18.5-13.1-27.5-20.2-10.5-8.3-21.3-16.3-31.3-25.3-7.3-6.6-15.5-12.2-22.6-18.9-11.4-10.6-23.1-21-33.2-33-4.3-5.1-9.2-9.7-13.6-14.7-10.4-11.9-20.8-23.7-30-36.6-7.2-10.1-15.6-19.3-22.3-29.8-7.9-12.4-16.3-24.6-22.9-37.9-6.9-13.9-16.3-26.5-22.3-40.8-8.7-20.9-17.8-41.7-23.5-63.8-3.1-11.8-5.3-23.8-8.9-35.5-2.5-8.1-3-16.4-4.8-24.5-1.6-6.9-3.1-13.8-4.3-20.8-.6-3.4-.8-6.8-1.3-10.1-2.4-16.4-3.1-33-3.7-49.7-.4-10.6.9-21 .6-31.5-.4-12-.4-24 0-35.9.3-9.8.8-19.5 2.2-29.3 1.1-8 1.2-16.4 2.1-24.5 1.1-10.3 1.4-20.8 3.9-30.9 1.9-7.7 1.4-15.7 3.6-23.4 2-7.1 3.2-14.4 4.9-21.6 1.6-7 3.3-14.1 4.5-21.3 1.3-7.5 4.1-14.7 6.6-22 3.2-9.4 5.8-19 8.9-28.4 2.7-8.3 6.3-16.5 9.6-24.8 6.2-15.9 14-31.1 20.3-47 2.5-6.5 6.8-12.3 10.1-18.4 4.4-8.2 8.3-16.5 13.1-24.4 6.1-9.9 11.3-20.3 16.9-30.5 6-11 12.2-22 20-31.9 8.1-10.3 14.9-21.5 22.4-32.1 5.8-8.2 13.2-15.3 19.6-23.1 9.9-11.9 21.3-22.5 31-34.4 8.3-10.2 19.8-16.5 28.1-26.5 6.4-7.8 14.4-13.8 21.9-20.4 14.6-13 29.4-25.4 45.7-36 8.8-5.8 15.9-13.7 25.4-18.7 10.8-5.7 20.2-13.6 31.2-19.1 13.4-6.7 26.7-13.8 39.8-20.9 12.4-6.7 25-13.3 37.5-19.5 11.2-5.6 22.1-12.7 35-15.2 6-1.2 11.3-5.1 17.3-6.7 10-2.8 19.1-8.3 29.4-10 3.8-.6 6.5-3.2 10-4.5 8.4-3 17-5.5 25.6-7.7 11.4-2.9 22.6-6.1 34.2-8.3 7-1.3 14.1-2.2 21-3.7 16.3-3.7 32.8-5.8 49.3-8.1 12.1-1.7 24.2-2.2 36.3-2.8 10.2-.5 20.4-.6 30.6-1.1 5.5-.2 11.1-.8 16.6-.9 2.4-.1 4.8.8 7.2.9 8.9.2 17.7-.1 26.6.6 6.3.5 12.9.7 19.4.5 9.5-.3 18.9 1.5 28.3 2.5 13.4 1.3 26.5 4.4 39.9 5.7 11.9 1.2 23.6 4.6 35.5 6.9 9.2 1.8 18.3 4 27.3 6.1 10.1 2.3 20.2 5 30.2 8 15.6 4.8 30.5 11.2 45.5 17.6 8.2 3.5 16.7 6.6 24.5 10.8 11.7 6.3 23 13.3 34.4 20.2 9.5 5.7 19.9 9.6 29 16 6.1 4.4 11.9 9.2 17.9 13.8 6.5 5 12.9 10.4 19.8 15 7.7 5.1 14 11.9 20.9 18.2 6.2 5.7 12.3 11.5 18.6 17.1 4.8 4.2 8.9 9.1 13.5 13.3 5.4 5.1 10 10.8 14.8 16.4 5.1 5.8 11.2 10.9 14.8 18.4-7 0-13.8.1-20.6 0-5.4-.1-10.7.8-15.5 3.2-3.5 1.7-7.4 1.6-10.9 3.6-3 1.7-4.4 3.8-3.4 6.5 1.2 3.3 4.1 3.3 6.9 1.6 3.9-2.3 8.2-2.6 12.6-3.1 7.2-.9 14.5-.9 21.7-.4 7.9.5 16 1 23.8 3.9 4.5 1.7 9.6 2.3 14.4 3.6 12.5 3.4 24.8 7.2 36.2 13.5 8.4 4.6 17.2 8.6 24.9 14.5 9.9 7.5 19.3 15.5 28 24.3 2 2 4.5 3.5 6.5 5.5 9.6 9.9 19.2 20.1 27 31.4 7.9 11.4 17 22.4 21.8 35.8 1.2 3.5 3.7 6.3 5.3 9.6 8.4 18 16.2 36.3 21.1 55.5 3.7 14.5 6.5 29.2 8.9 44.1 1.8 11.4 2 22.8 3.1 34.1.6 6.5-.3 13.6-2.2 20.1-1.5 5.2 2.5 8.5 4.4 12.4 3 6.6 5.5 13.3 7.5 20.2.9 3.2 2.1 6.4 2.9 9.6 3 11.2 4.6 22.7 6.1 34.2 3.4 25.6 3.5 51.4 2.8 77.1-.3 11.5-2.5 23-4 34.4-1.5 11.4-3 22.7-4.8 34.1-1.1 7.1-3.1 14.1-4.2 21.2-1 6.4-1.9 12.7-3.7 19-.5 1.7-.9 4.4 1.6 5.2 2.8.8 4.3-1.8 5.2-3.7 2-4.3 3-9 4.8-13.5 2.3-5.9 3.6-12.2 5.3-18.4 3.1-11.3 4.9-22.7 6.2-34.4 1-8.5 3-16.8 3.9-25.3 1.3-12 2.4-24.1 1.9-36.2-.1-3.4.6-4.9 4.2-4.4 5.9.9 11.9.8 17.9 1.7 8.6 1.3 17.3-.8 26-1.1 5.8-.2 11-3.3 17.9-3.7-6.8 8.9-10.8 18.2-17.9 25.4-4.3 4.4-6.8 9.9-9.6 15.1-1.5 2.8-3.8 5-4.7 8.3-2.8 10.2 2.9 17.7 7.1 25.7 2.7 5 5.9 9.8 9.9 13.9 1.4 1.5.9 1.7-.5 3.1-5.5 5.7-12.2 10-18.5 14.5-2.1 1.5-4.5 2.3-6.6 4.1-4.8 4.1-6.1 7.6-2.6 12.9 2.6 4 3.4 8.6 5.9 12.6 2.1 3.4-1.5 6.5-3.7 8.8-7.7 8.6-15.9 16.8-23.7 25.3-8.2 8.9-17.5 16.8-24.1 27-2.1 3.2-3.2 3.4-7.2 1.3-10.6-5.5-18.4-15.7-30.7-18.1-8.5-1.7-15.4-7-23.7-9.1-12-3.1-24-6-36.5-6.9-5.9-.4-12.1-1.2-17.9-1.3-5.4-.1-11.2 1.3-16.9 1.7-7.7.5-15.4 1.8-23.1 2.9-6.7 1-13.3 2.1-19.8 4.1-6.7 2.1-13.8 2.8-20.6 4.7-10.7 2.9-21.6 5.3-32.6 7.1-11.5 1.9-22.6 5.2-34.3 6.2-13.3 1.1-26.5 3.1-39.7 4.9-7.1 1-14.1.9-21.2.9-10.9 0-21.9 1.8-32.8 0-14.2-2.3-28.7-.6-42.7-3.3-5.1-1-10.6-3.2-15.7-4.1-6-1.1-11.9-2.9-18-3.8-6.2-.9-12.3-3.5-18.1-5.9-10.4-4.4-20.9-8.9-31-14-5.2-2.6-9.5-6.9-14.4-10.1-14.1-9.3-25.1-21.8-35.7-34.6-3.5-4.2-6.8-8.5-10.6-12.4-6.9-7.1-12.4-15.1-17.7-23.3-2.3-3.6-4.7-7.4-5.4-12.1-.5-3.3-3-6.2-3.6-9.8-.6-3-3.5-1.8-4.9-1.4-2.3.6-2.9 3.1-2.1 5.2 2.3 6 4.2 12.2 6.6 18.3 4.2 10.5 10.9 19.3 17.4 28.4 7.8 11 16.7 20.9 25.6 30.9 9.7 10.9 21.4 19.4 34.1 26.9 18.3 10.8 37.9 17.4 58.1 23.3 9.3 2.7 18.9 4.1 28.2 6.3 13.2 3.2 26.6 5.2 39.9 5.1 17-.2 33.9 1.9 50.9.2 8.4-.8 16.7-2.2 25-3.5 4.5-.7 9.3.5 14-.2 11.8-1.9 23.7-3.3 35.5-5.6 9.2-1.7 18.4-4.1 27.7-5.4 3.6-.5 6.4-2.9 9.9-3.5 9.2-1.8 18.3-3.7 27.5-5.5 1.6-.3 3.2-.6 4.7-1 12.2-3.6 24.5-6.1 37.3-5.9 4.5 0 8.8-.7 13-1.8 4.6-1.1 9.2.6 13.7 1.1 3.9.4 7.8.2 11.7.5 12.7.7 25 4 36.9 7.6 16.5 5.1 31.9 13.3 45.8 24.2 16.1 12.6 27.4 29 38.7 45.5 5.1 7.5 5.4 14.3-1.9 21.6-5 5-10.4 8.3-16.9 10.2-2.1.6-3.9 0-5.8-1.7-4.8-4.4-7.4-10.3-11.5-15.1-9.1-10.6-19.1-20.3-30.8-27.9-4.3-2.8-9.3-2.2-14.1-1.1-2 .4-2.5 5.1-.5 6.8 8.5 7.3 14 16.9 19.6 26.3 3.7 6.2 5.5 13.7 5.8 21.2.2 4.5 1 9.1.5 13.5-1 9.1-8.2 13.6-15.3 17.4-6.4 3.4-12.5 7.6-20.3 8.1-2.5.2-5.3 3.3-7.2 5.7-5.4 7-10.1 14.7-15.8 21.5-4.4 5.3-9.6 10-15 14.3-2.6 2.1-5.8 1.8-6.5-2.9-1.7-11.5-8.2-21-13.5-31-1.8-3.4-6.6-3.6-10.2-1.5-6 3.4-12.9 4.7-19.5 6.5-11.3 2.9-22.8 4.9-34.4 5.9-9.9.8-19.9.5-29.9-.8-.6-.1-1-1.3-2-.2-5.8 7-14.4 9.4-22 13.4-12.4 6.7-25 13.1-38.7 17-8 2.3-15.9 4.7-23.9 7.1-11 3.2-22.2 5.1-33.4 7.3-9.3 1.9-19 2.8-28.6 3.6-9.8.8-19.7-.5-29.2 1.2-7.9 1.4-15.1-1-22.8-.6-7.8.4-15.8-.3-23.7-.8-16.2-1-32-4.1-47.9-7.5-11-2.3-22-4.9-32.9-7.5-10.6-2.5-20.9-5.9-31.3-9.1-2.7-.8-5.3-2.2-7.8-3.5-8.9-4.3-18-8-26.8-12.6-14.7-7.7-28.6-16.6-42.6-25.2-7.8-4.8-14.3-11.7-20.5-18.7-2-2.3-4.7-3.9-6.9-6-7-6.4-12.6-14.1-19.9-20.3-11.7-10-20.3-22.6-29.3-35-5.9-8.1-11.6-16.3-16.8-24.8-1.4-2.3-3.4-2.8-5.7-1.8-2.8 1.2-1.6 4-1 5.5 1.8 4.4 4 8.7 6.5 12.7 1.6 2.7 2 5.7 3.4 8.4 4.2 8.2 11.2 14.1 16.6 21.3 3.1 4.1 6.2 8.1 9.3 12.1 3.5 4.6 7.3 9.4 11.7 12.8 10 7.9 17.4 18.3 27.1 26.5 10.6 9 20.8 18.2 32.6 25.6 9.1 5.7 18 11.8 27.9 16 8.5 3.6 16.9 7.3 25.2 11.3 13.8 6.6 28.6 10.3 42.6 16 6.5 2.6 13.1 3 19.5 4.8 10.7 3.1 22.1 2.8 32.6 6.5 2.3.8 4.9 1.1 7.2 1.1 12.3 0 24.2 3 36.4 3.3 5.2.1 10.4 2 15.5 1.8 18.4-.7 36.8-2.3 55.2-3 6.9-.3 13.7-.7 20.5-1.6 10.3-1.4 20.2-4.1 30.2-6.5 10.6-2.5 21.3-4.7 31.7-8.2 12.8-4.4 24.5-11.1 37-16.1 7.2-2.8 13.8-6.3 19.3-12.1 2.5-2.6 6.8-2 10-1.2 6.6 1.6 13.4.3 20.1 1.5 3.4.6 4 2.3 4.5 4.4 2.8 11.2 9.6 19.2 20.3 22.4 7.5 2.2 15.6 1.7 23.5-.6 9.4-2.8 17.4-8.5 27.1-11.9-1 4.4 1.9 8 6.5 8.1 7.2.1 13.4-2.8 19.2-6.9 8.7-6.3 15.6-14.3 22.3-22.5 1.6-2 2.3-4.9 3.1-7.4.3-1.2 1-2 1.4-3 1-2.5 3.1-2.6 4.8-1.9 1.9.8.9 2.6.2 4.2-4 8.9-8 17.8-11.8 26.7-7.6 18.1-17.5 34.9-27.5 51.6-5.1 8.4-11.2 16.1-16.5 24.5-5.3 8.4-12.7 15.7-16.6 24.4-4.2 9.1-10.9 15.9-16.3 23.8-6.7 9.7-15.4 18.1-23.2 27.1-8.6 8.1-17.2 16.2-25.3 24.7zm44.3-180.6c9-2.7 17.7-6 24.4-13.1.5-.5 1.6-1.6 3.1-.9 3 1.5 4.9 9.8 2.3 11.9-7.8 6.3-16.8 10.4-26.6 12.7-3.2.8-6.5 1.3-9.1 1-8.9 0-18.7-6.7-20.7-13.8-1-3.5 0-5.3 3.8-6.3 5.3-1.5 8.4-1 10.2 5 1.3 4.7 6 5.4 12.6 3.5zm-4.7-11.3c5.5-2.8 11.3-4.5 17.4-5.2.1-.1.1-.4.2-.4 1.3-.1 2.4-2.4 3.5-1.1 1.2 1.6-.7 1.4-1.6 1.6-.4.1-.8.4-1.2.6-4.8 4.5-10.2 7.7-16.9 8.3-.9.1-2.4.8-2.8-1-.4-1.3.4-2.2 1.4-2.8zm751 140c-.6 8.9-.3 17.9-.6 26.8-.4 14-.7 28-1.4 42-.3 7.6.1 15.1.4 22.6.1 3.1-1.1 6.1-1.1 9.2 0 6.4-.4 12.8-.9 19.2-.7 7.2-.8 14.6-.6 21.7.5 15 .4 30 .6 44.9.2 14 0 28 0 42.1 0 23.5.3 47-.1 70.5-.2 10.3.9 20.7 0 31-.6 7.7-1.5 15.6-.6 23.2 1.1 9-1.2 17.7.2 26.7.6 4.1-.7 9.1-.4 13.7 1.3 18.3-.8 36.6-.2 55 .3 8.5.2 17 0 25.5-.2 8.8-.6 17.6-1 26.4-.2 6.4 1.2 12.8 1.2 19.3 0 5.8-1.3 11.5-1.3 17.3 0 4.4-4.4 4.5-7.3 4.9-15.9 2.2-31.8 4.6-47.6 7.6-4.2.8-8.5 1.4-12.6 1.4-9-.2-17.4 2.7-26.5 2.7-7.2 0-14.7 2.1-22.2 2.7-.9.1-1.7-.1-2.6-.1-12.4-.4-24.7.7-37 1.6-5.4.4-10.4 2.4-16.2 1.5-9.4-1.4-18.9 1.4-28.5 1.9-4.4.2-8.8.6-13.2.7-11.3.4-22.7-.8-34 1-10.7 1.7-21.4 1.7-32.1.9-5.2-.4-10.1 1.6-15.3 1.1-13.6-1.3-27.2-1.2-40.8-.9-7.7.1-15.5 0-23 1.2-12.7 2-25.5 1.4-38.1 3.3-11.7 1.7-23.4-.6-35.1-.5h-16.5c-1.1 0-2.8.6-3.3-.6-3.3-7.4-11.5-7.2-17.1-11.2-14.5-10.5-30.7-18.5-44.9-29.4-5-3.8-11-6.4-16-10.1-7.3-5.3-14.8-10.2-22.1-15.3-12.6-8.9-24.8-18.3-37.8-26.5-12.6-8-24.9-16.5-37.1-25.1-7.2-5.1-14.2-10.7-21.6-15.4-13.4-8.6-25.1-19.5-38.7-27.8-10.8-6.7-20.9-14.5-32-20.8-1.8-1-3.1-3.6-5.3-4.7-12.2-6.8-22.6-16.4-34.9-23.1-6.6-3.6-7.6-10.2-7.5-16.5.3-19.2-.4-38.5-.1-57.7.2-10.7 1.7-21.5 1.4-32.1-.3-9.8-.2-19.7-1.1-29.5-1.2-13.1-.5-26.4-.3-39.7.1-8.5 1.1-17.1.9-25.6-.8-21.7.4-43.4.2-65.1-.2-14.9 2.9-29.6 1.9-44.5-.1-1.3.4-2.2 1.2-3.1 7-7.7 14-15.2 20.3-23.6 5.8-7.7 13.3-14.3 18.6-22.4 7.7-11.7 16.4-22.6 24.4-34 9.6-13.8 18.4-28.1 27.7-42.1 2.2-3.3 4-7 5.5-10.7 2.9-6.7 5.3-7.9 11.4-4.6 4.8 2.6 10.2 3.8 15.2 5.9 10.6 4.5 21.7 7.9 31.8 13.8 2.6 1.5 6 2.1 9.2 2.8 5.2 1.1 9.6 4.3 14.6 6.2 18.2 7.1 36.4 14.2 54.8 20.8 12.1 4.4 24 9.1 36.2 13.2 7.1 2.4 14.4 5.2 21.2 9 1.4.8 3.5.4 5.3.5.9 0 2.2.5 2.4-1 .2-1.2-.1-2.1-1.2-3.3-2.9-3.1-6.9-4.1-10.2-5.3-16.6-5.6-32.7-12.5-49.1-18.5-12.4-4.5-24.5-9.5-36.9-14-8.1-3-16.4-5.7-24-9.4-8.4-4.1-17.3-7-25.8-10.9-12.5-5.7-24.4-12.9-38-15.9-2.6-.6-4.5-3-7.5-3.2-1.6-.1-.6-1.8-.2-2.7 2-4.7 4.1-9.4 6.9-13.7 3.2-4.9 4.2-10.7 6.8-15.9 1.2-2.4 2.3-3.2 5-3.3 18.5-.7 36.9-2 55.5-2.1 12.6-.1 25.2-2 38-2.1 5 0 10.3 0 15.2-1 5.2-1 6.6 2.7 9.1 5.5 1 1.2-.1 2.1-.8 2.3-6.6 1.9-14 6.2-19.9 4.8-9.5-2.3-14.5 3.4-20.8 7.2-4.3 2.6-4.3 10.5-1.6 14.7 4.5 7.1 11.8 10.1 18.7 13.8 15.7 8.5 31.7 16.4 48.6 22.3 1.8.6 3.8 2.3 5.5-.2 1.2-1.7 2.5-.4 3.4-.1 16.3 4.5 32.3 10 48.9 13.1 16.3 3 32.5 6.4 48.9 8.5 9 1.2 18.3 2.6 27.3 4 9.1 1.4 18.4 1.7 27.4 3.4 10.8 2 21.8 2 32.7 3.2 7.6.9 15.5 2.8 23.2-1.1 1.7-.8 4.3-.3 6.5-.3 12.6.2 25.4 1.2 37.9-.2 14.1-1.6 28.3-1.6 42.4-3.9 7-1.1 14.4-1.8 21.3-3.2 5.4-1.1 10.9-3.6 16.5-4.9 7.1-1.7 13.3-4.7 19.1-9.1 3-2.2 3.6-5.4 3.4-8.5-.2-3.6-2.3-7-5.8-8-9.8-3-19.7-5.9-29.7-8.6-9-2.4-18.6-4.7-26.4-10.7-1-.7-2.9-1.4-.1-3.1 2.3-1.4 4.1-2.1 6.8-1.2 6.8 2.3 13.8 4 21.1 3.5 1-.1 2.2.3 2.9-.2 4.8-2.9 7.9-1.1 11.9 2.5 7.3 6.7 16.2 10.6 26.4 10.7 14.8.3 28.2 5 41.6 11.1 9.8 4.5 19.3 9.9 29.8 13.2 9.2 2.9 17.7 8.4 26.5 12.6 5 2.4 10.1 4.7 15.1 7.1-10.9 1.4-21.6 2.3-32.4 3.2-14.2 1.2-28.5 1-42.6 2.1-11.3.9-22.5.3-33.7.8-14.1.6-28.1 2.1-42.1 3.6-12.7 1.3-25.4 3.4-38.2 3.5-8.8.1-17.5-.5-26.5 1.2-7.2 1.3-15.2.9-22.8 1.3-12 .6-24 1.1-36 2-4.5.4-9.3-.1-13.9-.3-11.1-.4-22.1 1.2-33 1.2-9 0-17.8 2.3-27 .9-6.1-.9-12.9.3-19.4.4-9.4.1-18.8-.3-28.2.1-7.3.4-14.4 1.9-21.7 2.8-2 .2-3.1 1-3.1 3.1s1.1 2.7 3 3.1c4.7 1 9.4 1.2 14.2 1.1 8.5-.1 16.8-.9 25.3-1.3 18.8-.9 37.6-.8 56.5-1 12.2-.2 24.4-.7 36.5-2 11.9-1.3 23.8-1.8 35.6-2 12-.2 23.8-2.4 35.8-2.6 15.4-.2 30.9-.9 46.3-1.6 6.8-.3 13.7-.7 20.6-1.3 6.2-.6 12.8-.1 19-.7 9.7-.9 19.4-1.3 29.1-2.1 13.2-1.1 26.4-3 39.8-2.7 18.4.4 36.7-1.7 55-2.2 5.2-.1 10.8.7 16.1-1.6 4.2-1.8 5.1 2.1 5.2 4.6.9 9.8 1 19.6.3 29.4zM1689.5 484.8c-14.9.5-24.9-6.7-34.9-14.8-8.7-6.9-10.7-16.4-11.2-26.2-.3-5.5 3.5-10.9 5.3-16.3 2-6.1 6-10.5 10.7-14.5 7-6 23.9-7.8 32.1-3.5 2.4 1.3 4.9 2.5 7.5 3.1 5.8 1.2 8.9 5.6 12.4 9.7 5.1 6.1 7.4 13 9.2 20.8 2.1 9 1.1 16.5-3.3 24.2-6.6 11.2-15.2 18.6-27.8 17.5zm-.5-9.2c3.3-.3 6.7.6 10.2-.8 10.8-4.3 14.4-18.8 12.5-27.8-2.4-11.1-9.4-19.5-18.4-26.2-4.9-3.6-9.9-4.7-16.2-3.3-7.8 1.6-12.8 6.9-17.2 11.9-3.2 3.6-6.9 8.6-6.7 14.5.5 11.8 7.6 20.3 16.2 26.5 5 3.7 12 7.3 19.6 5.2z"/><path d="M1598.6 875.7c.5-6.9 2.4-13.6 2.8-20.5.2-2.9.1-6 1.3-9 1-2.5 2.8-5.1 4.7-5 2.8.2 3.9 4.2 3.4 6.1-1.6 5.8 2.5 10.3 2.6 15.7.1 5.2.7 10.5 1.4 15.7 1.3 9.9.5 20 3.4 29.7 1.8 6 2.6 12.3 3.8 18.5.2 1.1.2 2.1.8 3.3 3 5.5 1.4 11.2.4 16.8-.4 2.4-.8 5-2.2 7.3-2.5 3.9-6.3 2.5-9.8 2.8-7.8.6-17-4.8-20.4-11.8-2.3-4.8 0-9.4.5-13.9 1.1-11.5 3.1-22.9 4-34.4.5-6.1.6-12.6 3.4-18.4.5-1.1.4-1.9-.1-2.9zm7.9 12.7c-2.4 3.7-2.9 7.4-3.5 11-1.7 10-3.1 20.1-5 30.1-2 10.3.6 15.7 9.6 18.5 4.1 1.3 5.9-.4 7.6-4.1 1.4-3-.1-5.2-.4-7.5-1.2-8.8-.9-17.7-3.7-26.4-2.2-6.8-3-14.1-4.6-21.6zM1743.9 512.9c1.3 8.7-2.2 16.4-6.3 23.8-3 5.3-15.5 9.2-22.3 6.6-7-2.7-14.5-5.6-18-13-3.5-7.2-6.8-14.5-2.4-23 2.7-5.1 5.3-9.9 9.3-14.1 6.5-6.9 14.6-8.1 22.8-5.1 5.9 2.1 11.5 5.8 14.9 11.5 2.3 3.9 2.6 8.6 2 13.3zm-8.9 1.1v-2.5c0-7.3-5.1-13.4-12.3-14.7-.9-.2-1.9-.1-2.8.5-4 2.4-8.3 4-11.8 7.4-2.9 2.8-7.3 11.7-6 15 2.2 5.4 4.3 10.7 10.6 13.5 5.4 2.4 13.2 1.7 17.4-2.4 5-4.8 4.9-10.7 4.9-16.8zM1721.1 400.2c-.2-4.8 7.4-13.8 12.2-14.4.9-.1 1.8-.1 2.9 1 3.9 3.8 6.7 8.6 10.2 12.7 1.3 1.6.3 3.2.1 4.1-1.2 3.8-3.5 7.2-6.3 10.1-2.5 2.7-5.9 3.9-9.2 1.1-4.7-4-9.7-7.6-9.9-14.6zm14.7 7.3c1.3-1.5 2.9-3.1 4.2-5 .5-.8-4.9-7.8-6-7.7-3 .1-2.7 3.2-3.8 4.9-.9 1.4 3.6 7.6 5.6 7.8z"/><path fill="#FEFEFE" d="M1319.8 1030.6c-1 4.4 1.9 8 6.5 8.1 7.2.1 13.4-2.8 19.2-6.9 8.7-6.3 15.6-14.3 22.3-22.5 1.6-2 2.3-4.9 3.1-7.4.3-1.2 1-2 1.4-3 1-2.5 3.1-2.6 4.8-1.9 1.9.8.9 2.6.2 4.2-4 8.9-8 17.8-11.8 26.7-7.6 18.1-17.5 34.9-27.5 51.6-5.1 8.4-11.2 16.1-16.5 24.5-5.3 8.4-12.7 15.7-16.6 24.4-4.2 9.1-10.9 15.9-16.3 23.8-6.7 9.7-15.4 18.1-23.2 27.1-7.7 8.9-16.3 16.9-24.4 25.5-4.8 5.1-10.2 10.1-16.2 14.3-5 3.6-9.8 7.9-14.1 12.6-3.4 3.8-7.5 6.5-11.7 9.1-2.7 1.6-4.7 4-7.2 5.9-9 6.7-17.2 14.4-26.3 20.9-8.6 6.2-17.7 11.5-26.8 16.9-6.1 3.6-12.1 7.5-18.3 10.9-11.9 6.4-23.4 13.6-35.8 19-8 3.5-15.8 7.4-24 10.5-16.4 6.3-32.8 12.5-49.5 18.2-6.2 2.1-12.7 3.6-19 5.2-9.5 2.4-19.2 4.6-28.6 4-6.1-.3-8.8 3.6-13.3 4.9-2.1.6-2.9 2.4-2.8 4 .8 13.7-5.4 25.3-10.2 37.5-5.5 13.8-14.1 25.1-23 36.6-5 6.5-9.9 13.2-15.4 19.2-4.5 4.9-9.8 9.2-15 13.5-4.2 3.4-4.1 8.2-3.5 12.4.6 3.8 4.9 4.2 8.2 4.5 5.5.6 10.7-.9 15.4-3.4 6-3.1 11.8-6.8 17.7-9.7 6.7-3.3 12.5-7.2 18-11.8 8.8-7.5 17.1-15.7 25.4-23.8 1.9-1.9 4.6-3.2 6.2-2.8 7.4 1.6 14.9 2.8 21.2 8.2 6.7 5.8 12.6 12.3 17.5 19.4 3.7 5.4 5.1 12.4 7.4 18.7 4.4 12.1 4.8 24.8 5.8 37.4 1.4 18-1.5 35.5-9.4 51.7-3.6 7.3-9.5 12.7-18.1 15.7-9.3 3.2-18.5 6.6-27.9 9.8-7.4 2.5-15.1 3.3-22.6 4.8-7 1.4-14.2 1.7-21.1 3.2-5.8 1.2-11.7.9-17.5 1.8-15.8 2.3-31.7 3.3-47.7 3.4-12.2.1-24.5.2-36.7.9-5.6.3-11-.4-16.5-.2-5.3.2-6.8-2.1-5.7-7.2 1-4.7 1.3-9.3-.5-14.1-1.1-3-3.1-2.9-5-2.4-1.7.5-2 2.7-1.4 4.1 2.8 5.7 0 11.1-.8 16.5-1.2 8.1-3.9 16-7.7 23-3.6 6.5-8.4 12.6-14.2 17.5-2.8 2.4-5.1 5.4-7.7 8-8.6 8.9-19.9 12-31.1 14.4-14.6 3.1-29.3 6.2-44.2 7.6-10.7 1-21.1 4.4-31.9 3.5-7.3-.6-14.6-.2-21.7-.3-5.9-.1-12.2-.7-18.5 1.1-3.7 1.1-8.4-.4-12.7-.1-9.9.6-19.7-2-29.6-3-6.7-.7-14-1.1-20.3-3.6-7.3-2.9-15-1.7-22.5-3.4-11.1-2.6-22.2-5.1-33.4-7.3-11.4-2.2-23-4.1-34.2-7.1-5.3-1.4-10.4-3.1-15.3-5.5-3.5-1.7-3.6-4-2-6.7 6.7-11.2 10.8-23.5 15.5-35.5 6.5-16.6 10.7-33.8 14.6-51.1 3-13.7 4.7-27.7 8.3-41.2 3.5-13.3 5.8-26.9 6.1-40.3.4-15.9.6-32-2.1-47.9-2.1-12.6-5.5-24.6-11-36.2-2.1-4.4-3.2-9.3-5.1-13.8-3.2-7.8-8.7-14.2-13.4-21.1-2-2.9-2.8-6.1-4.5-9-3.1-5.1-7.6-8.9-10.9-13.8-2.2-3.3-4.4-6.7-6.4-10.2-2.2-3.6-5-6-9-7.7-12.4-5.2-25.5-8.7-37.6-14.9-7.3-3.7-15.6-5.7-22.6-10.1-5.3-3.3-11.1-5.8-16.6-8.6-9.9-5.1-18.4-12.1-27.3-18.4-12.5-8.8-26.1-15.9-37.9-25.8-8.7-7.3-18.5-13.1-27.5-20.2-10.5-8.3-21.3-16.3-31.3-25.3-7.3-6.6-15.5-12.2-22.6-18.9-11.4-10.6-23.1-21-33.2-33-4.3-5.1-9.2-9.7-13.6-14.7-10.4-11.9-20.8-23.7-30-36.6-7.2-10.1-15.6-19.3-22.3-29.8-7.9-12.4-16.3-24.6-22.9-37.9-6.9-13.9-16.3-26.5-22.3-40.8-8.7-20.9-17.8-41.7-23.5-63.8-3.1-11.8-5.3-23.8-8.9-35.5-2.5-8.1-3-16.4-4.8-24.5-1.6-6.9-3.1-13.8-4.3-20.8-.6-3.4-.8-6.8-1.3-10.1-2.4-16.4-3.1-33-3.7-49.7-.4-10.6.9-21 .6-31.5-.4-12-.4-24 0-35.9.3-9.8.8-19.5 2.2-29.3 1.1-8 1.2-16.4 2.1-24.5 1.1-10.3 1.4-20.8 3.9-30.9 1.9-7.7 1.4-15.7 3.6-23.4 2-7.1 3.2-14.4 4.9-21.6 1.6-7 3.3-14.1 4.5-21.3 1.3-7.5 4.1-14.7 6.6-22 3.2-9.4 5.8-19 8.9-28.4 2.7-8.3 6.3-16.5 9.6-24.8 6.3-15.9 14-31.1 20.3-47 2.5-6.5 6.8-12.3 10.1-18.4 4.4-8.2 8.3-16.5 13.1-24.4 6.1-9.9 11.3-20.3 16.9-30.5 6-11 12.2-22 20-31.9 8.1-10.3 14.9-21.5 22.4-32.1 5.8-8.2 13.2-15.3 19.6-23.1 9.9-11.9 21.3-22.5 31-34.4 8.3-10.2 19.8-16.5 28.1-26.5 6.4-7.8 14.4-13.8 21.9-20.4 14.6-13 29.4-25.4 45.7-36 8.8-5.8 15.9-13.7 25.4-18.7 10.8-5.7 20.3-13.6 31.2-19.1 13.4-6.7 26.7-13.8 39.8-20.9 12.4-6.7 25-13.3 37.5-19.5 11.2-5.6 22.1-12.7 35-15.2 6-1.2 11.3-5.1 17.3-6.7 10-2.8 19.1-8.3 29.4-10 3.8-.6 6.5-3.2 10-4.5 8.4-3 17-5.5 25.6-7.7 11.4-2.9 22.6-6.1 34.2-8.3 7-1.3 14.1-2.2 21-3.7 16.3-3.7 32.8-5.8 49.3-8.1 12.1-1.7 24.2-2.2 36.3-2.8 10.2-.5 20.4-.6 30.6-1.1 5.5-.2 11.1-.8 16.6-.9 2.4-.1 4.8.8 7.2.9 8.9.2 17.7-.1 26.6.6 6.3.5 12.9.7 19.4.5 9.5-.3 18.9 1.5 28.3 2.5 13.4 1.3 26.5 4.4 39.9 5.7 11.9 1.2 23.6 4.6 35.5 6.9 9.2 1.8 18.3 4 27.3 6.1 10.1 2.3 20.2 5 30.2 8 15.6 4.8 30.5 11.2 45.5 17.6 8.2 3.5 16.7 6.6 24.5 10.8 11.7 6.3 23 13.3 34.4 20.2 9.5 5.7 19.9 9.6 29 16 6.1 4.4 11.9 9.2 17.9 13.8 6.5 5 12.9 10.4 19.8 15 7.7 5.1 14 11.9 20.9 18.2 6.2 5.7 12.3 11.5 18.6 17.1 4.8 4.2 8.9 9.1 13.5 13.4 5.4 5.1 10 10.8 14.8 16.4 5.1 5.8 11.2 10.9 14.8 18.4-7 0-13.8.1-20.6 0-5.4-.1-10.7.8-15.5 3.2-3.5 1.7-7.4 1.6-10.9 3.6-3 1.7-4.4 3.8-3.4 6.5 1.2 3.3 4.1 3.3 6.9 1.6 3.9-2.3 8.2-2.6 12.6-3.1 7.2-.9 14.5-.9 21.7-.4 7.9.5 16 1 23.8 3.9 4.5 1.7 9.6 2.3 14.4 3.6 12.5 3.4 24.8 7.2 36.2 13.5 8.4 4.6 17.2 8.6 24.9 14.5 9.9 7.5 19.3 15.5 28 24.3 2 2 4.5 3.5 6.5 5.5 9.6 9.9 19.2 20.1 27 31.4 7.9 11.4 17 22.4 21.8 35.8 1.2 3.5 3.7 6.3 5.3 9.6 8.4 18 16.2 36.3 21.1 55.5 3.7 14.5 6.5 29.2 8.9 44.1 1.8 11.4 2 22.8 3.1 34.1.6 6.5-.3 13.6-2.2 20.1-1.5 5.2 2.5 8.5 4.4 12.4 3 6.6 5.5 13.3 7.5 20.2.9 3.2 2.1 6.4 2.9 9.6 3 11.2 4.6 22.7 6.1 34.2 3.4 25.6 3.5 51.4 2.8 77.1-.3 11.5-2.5 23-4 34.4-1.5 11.4-3 22.7-4.8 34.1-1.1 7.1-3.1 14.1-4.2 21.2-1 6.4-1.9 12.7-3.7 19-.5 1.7-.9 4.4 1.6 5.2 2.8.8 4.3-1.8 5.2-3.7 2-4.3 3-9 4.8-13.5 2.3-5.9 3.6-12.2 5.3-18.4 3.1-11.3 4.9-22.7 6.2-34.4 1-8.5 3-16.8 3.9-25.3 1.3-12 2.4-24.1 1.9-36.2-.1-3.4.6-4.9 4.2-4.4 5.9.9 11.9.8 17.9 1.7 8.6 1.3 17.3-.8 26-1.1 5.8-.2 11-3.3 17.9-3.7-6.8 8.9-10.8 18.2-17.9 25.4-4.3 4.4-6.8 9.9-9.6 15.1-1.5 2.8-3.8 5-4.7 8.3-2.8 10.2 2.9 17.7 7.1 25.7 2.7 5 5.9 9.8 9.9 13.9 1.4 1.5.9 1.7-.5 3.1-5.5 5.7-12.2 10-18.5 14.5-2.1 1.5-4.5 2.3-6.6 4.1-4.8 4.1-6.1 7.6-2.6 12.9 2.6 4 3.4 8.6 5.9 12.6 2.1 3.4-1.5 6.5-3.7 8.8-7.7 8.6-15.9 16.8-23.7 25.3-8.2 8.9-17.5 16.8-24.1 27-2.1 3.2-3.2 3.4-7.2 1.3-10.6-5.5-18.4-15.7-30.7-18.1-8.5-1.7-15.4-7-23.7-9.1-12-3.1-24-6-36.5-6.9-5.9-.4-12.1-1.2-17.9-1.3-5.4-.1-11.2 1.3-16.9 1.7-7.7.5-15.4 1.8-23.1 2.9-6.7 1-13.3 2.1-19.8 4.1-6.7 2.1-13.8 2.8-20.6 4.7-10.7 2.9-21.6 5.3-32.6 7.1-11.5 1.9-22.6 5.2-34.3 6.2-13.3 1.1-26.5 3.1-39.7 4.9-7.1 1-14.1.9-21.2.9-10.9 0-21.9 1.8-32.8 0-14.2-2.3-28.7-.6-42.7-3.3-5.1-1-10.6-3.2-15.7-4.1-6-1.1-11.9-2.9-18-3.8-6.2-.9-12.3-3.5-18.1-5.9-10.4-4.4-20.9-8.9-31-14-5.2-2.6-9.5-6.9-14.4-10.1-14.1-9.3-25.1-21.8-35.7-34.6-3.5-4.2-6.8-8.5-10.6-12.4-6.9-7.1-12.4-15.1-17.7-23.3-2.3-3.6-4.7-7.4-5.4-12.1-.5-3.3-3-6.2-3.6-9.8-.6-3-3.5-1.8-4.9-1.4-2.3.6-2.9 3.1-2.1 5.2 2.3 6 4.2 12.2 6.6 18.3 4.2 10.5 10.9 19.3 17.4 28.4 7.8 11 16.7 20.9 25.6 30.9 9.7 10.9 21.4 19.4 34.1 26.9 18.3 10.8 37.9 17.4 58.1 23.3 9.3 2.7 18.9 4.1 28.2 6.3 13.2 3.2 26.6 5.2 39.9 5.1 17-.2 33.9 1.9 50.9.2 8.4-.8 16.7-2.2 25-3.5 4.5-.7 9.3.5 14-.2 11.8-1.9 23.7-3.3 35.5-5.6 9.2-1.7 18.4-4.1 27.7-5.4 3.6-.5 6.4-2.9 9.9-3.5 9.2-1.8 18.3-3.7 27.5-5.5 1.6-.3 3.2-.6 4.7-1 12.2-3.6 24.5-6.1 37.3-5.9 4.5 0 8.8-.7 13-1.8 4.6-1.1 9.2.6 13.7 1.1 3.9.4 7.8.2 11.7.5 12.7.7 25 4 36.9 7.6 16.5 5.1 31.9 13.3 45.8 24.2 16.1 12.6 27.4 29 38.7 45.5 5.1 7.5 5.4 14.3-1.9 21.6-5 5-10.4 8.3-16.9 10.2-2.1.6-3.9 0-5.8-1.7-4.8-4.4-7.4-10.3-11.5-15.1-9.1-10.6-19.1-20.3-30.8-27.9-4.3-2.8-9.3-2.2-14.1-1.1-2 .4-2.5 5.1-.5 6.8 8.5 7.3 14 16.9 19.6 26.3 3.7 6.2 5.5 13.7 5.8 21.2.2 4.5 1 9.1.5 13.5-1 9.1-8.2 13.6-15.3 17.4-6.4 3.4-12.5 7.6-20.3 8.1-2.5.2-5.3 3.3-7.2 5.7-5.4 7-10.1 14.7-15.8 21.5-4.4 5.3-9.6 10-15 14.3-2.6 2.1-5.8 1.8-6.5-2.9-1.7-11.5-8.2-21-13.5-31-1.8-3.4-6.6-3.6-10.2-1.5-6 3.4-12.9 4.7-19.5 6.5-11.3 2.9-22.8 4.9-34.4 5.9-9.9.8-19.9.5-29.9-.8-.6-.1-1-1.3-2-.2-5.8 7-14.4 9.4-22 13.4-12.4 6.7-25 13.1-38.7 17-8 2.3-15.9 4.7-23.9 7.1-11 3.2-22.2 5.1-33.4 7.3-9.3 1.9-19 2.8-28.6 3.6-9.8.8-19.7-.5-29.2 1.2-7.9 1.4-15.1-1-22.8-.6-7.8.4-15.8-.3-23.7-.8-16.2-1-32-4.1-47.9-7.5-11-2.3-22-4.9-32.9-7.5-10.6-2.5-20.9-5.9-31.3-9.1-2.7-.8-5.3-2.2-7.8-3.5-8.9-4.3-18-8-26.8-12.6-14.7-7.7-28.6-16.6-42.6-25.2-7.8-4.8-14.3-11.7-20.5-18.7-2-2.3-4.7-3.9-6.9-6-7-6.4-12.6-14.1-19.9-20.3-11.7-10-20.3-22.6-29.3-35-5.9-8.1-11.6-16.3-16.8-24.8-1.4-2.3-3.4-2.8-5.7-1.8-2.8 1.2-1.6 4-1 5.5 1.8 4.4 4 8.7 6.5 12.7 1.6 2.7 2 5.7 3.4 8.4 4.2 8.2 11.2 14.1 16.6 21.3 3.1 4.1 6.2 8.1 9.3 12.1 3.5 4.6 7.3 9.4 11.7 12.8 10 7.9 17.4 18.3 27.1 26.5 10.6 9 20.8 18.2 32.6 25.6 9.1 5.7 18 11.8 27.9 16 8.5 3.6 16.9 7.3 25.2 11.3 13.8 6.6 28.6 10.3 42.6 16 6.5 2.6 13.1 3 19.5 4.8 10.7 3.1 22.1 2.8 32.6 6.5 2.3.8 4.9 1.1 7.2 1.1 12.3 0 24.2 3 36.4 3.3 5.2.1 10.4 2 15.5 1.8 18.4-.7 36.8-2.3 55.2-3 6.9-.3 13.7-.7 20.5-1.6 10.3-1.4 20.2-4.1 30.2-6.5 10.6-2.5 21.3-4.7 31.7-8.2 12.8-4.4 24.5-11.1 37-16.1 7.2-2.8 13.8-6.3 19.3-12.1 2.5-2.6 6.8-2 10-1.2 6.6 1.6 13.4.3 20.1 1.5 3.4.6 4 2.3 4.5 4.4 2.8 11.2 9.6 19.2 20.3 22.4 7.5 2.2 15.6 1.7 23.5-.6 8.5-3.6 16.5-9.4 26.1-12.8zM745 1393.9c0-.1 0-.1 0 0-6-.1-12-.1-18-.1-1.1 0-2.9.9-2.9-1.5 0-1.5-.5-3.3 1.2-4 1.1-.5 2.6-.4 3.9-.4 9.7 0 19.4.7 28.9-.2 11.6-1.2 23.3-1.9 35-3.4 10.4-1.4 21-2.8 31.6-3.1 6.6-.2 12.8-2.3 19.1-3.2 12.7-1.7 25.3-3.4 37.4-7.7 1.4-.5 3.4-.3 2.9-2.9-.4-2.2-1.7-2.4-3.5-2.6-3-.4-5.9-.1-8.8.8-3.8 1.1-7.6 3-11.5 3.2-7.7.4-15.2 2.1-22.6 3.7-12.4 2.5-24.9 2.9-37.2 4.6-7.1 1-14.4-.3-21.2 1.2-12 2.7-23.9 1.2-35.9 1.4-9.5.2-19-1.8-28.6-1-4.6.4-5.9 2.2-5.7 6.2.6 10-1.6 19.7-3.7 29.4-2.5 11.5-7.6 22.1-12.5 32.7-4.3 9.4-9.2 18.6-15.2 27.2-5.9 8.4-11.6 17.1-17.9 25.2-3.8 4.8-7 10-12 14-2.9 2.3-7.9 4.4-6.8 10.2.4 2 2 2.9 2.2 4.8 1.1 12.5 13.7 19.1 25.4 15.8 7.9-2.2 15-6.2 22.6-9.1 14.9-5.7 28.2-14.8 43.5-19.9 9.2-3.1 16.6-2.4 24.2 2.1 2.9 1.7 4.9 5 7.5 7.2 5.1 4.2 8.6 9.3 9.8 15.9.5 2.5 1.2 5 2 7.4.9 3 3.4 1.9 5.4 2 1.7.1 3.3-1.4 3.1-2.6-1.2-8.9-3.4-17.7-8.3-25.3-2.4-3.7-5.7-7.1-9.3-10-5.9-4.8-12.1-9.8-20-8.7-3.9.5-8 0-11.8 1.5-1.1.4-5.2 1.9-3.9-2.4 2.7-8.7 4.6-17.6 6-26.7 1.6-11 3.7-21.9 3.8-33 0-3.3-.8-6.5-1-9.7-.5-6.4.7-12.9-.5-19.4-.4-2.3-1.8-6.9 4.3-7 2.9 0 6.3 0 9.2-.8 11.7-3.4 24-3.3 35.8-6 4.1-.9 8.8-.6 12-4.3 1.6-1.8 1.9-5.2.2-5.2-2.5-.1-5.4-.7-7.8 0-10.8 3.1-22 1.7-32.9 3.5-5.8.9-11.7.2-17.5.2zm519.1-911.5c.6 7.6-1.3 15.4 1.9 22.9 1.8 4.2 5 7.8 8.8 8.1 4 .2 8.4-1.5 11.5-5.7 6.8-9.3 6.8-20.3 8.9-30.7 1.4-7 .6-14.1 1.1-21.2.4-5.7-.5-11.1-3.2-16-1.8-3.2-5-6.3-8.6-5.6-4.3.8-9.4 1.8-11.6 6.6-1.8 3.7-3.1 7.6-4.7 11.5-4.1 9.5-4.9 19.7-4.1 30.1zm104.8 31.8c1.6 5.9-1.9 11-4.3 16.5-2.3 5.4-5 10.6-9.8 14-4.8 3.4-10.2 5.1-16.3 3.2-2-.6-4.3-.3-6.5 0-2.6.4-4.3 2.3-4.9 4.8-.4 1.6.4 3.4 1.9 4.1 3.7 1.6 7.5 2.7 11.8 2.2 7.4-.9 13.9-3.9 20.1-7.6 7.5-4.5 13-11 17.2-18.8 3.2-5.9 3.8-12.1 2.9-18.4-1.1-7.6 1.4-15.4-2-22.8-1.2-2.6-3-5.1-3.6-7.8-1.1-5.8-5.4-9.4-8.3-14-1.5-2.3-4.1-1.2-6-.2-1.9 1-1 2.6-.2 4.2 6.4 12.5 9.2 25.9 8 40.6zm46.1-33.6c0-2.6.1-4.8 0-6.9-.3-7.5-4.8-11.7-11.8-11.9-6.5-.2-8.5 5.7-9.2 11.9-.8 7.1.7 14.1 1.1 21.2.2 3.1 1.2 6.2 2.9 9 2 3.3 5.2 3.2 8.2 2.8 2.3-.3 4-1.2 5-4.2 2.5-7.4 4.2-14.7 3.8-21.9zm-201.2 136.9c2.7-.6 5.4-1.2 8.1-1.7 1.5-.3 2.9-1.7 2.8-2.4-.1-1.2-1.3-3-2.4-3.3-3.4-1-6.9-2.3-10.4-2-5.9.4-11.8 2-17.7 2.8-9.9 1.3-18.8 5.1-27.5 9.8-4.4 2.4-5.6 8.7-2.7 12.7 1.1 1.5 10.1 2.8 11.2 1.4 3.4-4.3 8.3-6.6 12.8-9.2 8-4.7 16.4-8.2 25.8-8.1z"/><path fill="#A1D9F9" d="M2014.6 1109.8c-10.9 1.4-21.6 2.3-32.4 3.2-14.2 1.2-28.5 1-42.6 2.1-11.3.9-22.5.3-33.7.8-14.1.6-28.1 2.1-42.1 3.6-12.7 1.3-25.4 3.4-38.2 3.5-8.8.1-17.5-.5-26.5 1.2-7.2 1.3-15.2.9-22.8 1.3-12 .6-24 1.1-36 2-4.5.4-9.3-.1-13.9-.3-11.1-.4-22.1 1.2-33 1.2-9 0-17.8 2.3-27 .9-6.1-.9-12.9.3-19.4.4-9.4.1-18.8-.3-28.2.1-7.3.4-14.4 1.9-21.7 2.8-2 .2-3.1 1-3.1 3.1s1.1 2.7 3 3.1c4.7 1 9.4 1.2 14.2 1.1 8.5-.1 16.8-.9 25.3-1.3 18.8-.9 37.6-.8 56.5-1 12.2-.2 24.4-.7 36.5-2 11.9-1.3 23.8-1.8 35.6-2 12-.2 23.8-2.4 35.8-2.6 15.4-.2 30.9-.9 46.3-1.6 6.8-.3 13.7-.7 20.6-1.3 6.2-.6 12.8-.1 19-.7 9.7-.9 19.4-1.3 29.1-2.1 13.2-1.1 26.4-3 39.8-2.7 18.4.4 36.7-1.7 55-2.2 5.2-.1 10.8.7 16.1-1.6 4.2-1.8 5.1 2.1 5.2 4.6.4 9.8.5 19.5-.2 29.3-.6 8.9-.3 17.9-.6 26.8-.4 14-.7 28-1.4 42-.3 7.6.1 15.1.4 22.6.1 3.1-1.1 6.1-1.1 9.2 0 6.4-.4 12.8-.9 19.2-.7 7.2-.8 14.6-.6 21.7.5 15 .4 30 .6 44.9.2 14 0 28 0 42.1 0 23.5.3 47-.1 70.5-.2 10.3.9 20.7 0 31-.6 7.7-1.5 15.6-.6 23.2 1.1 9-1.2 17.7.2 26.7.6 4.1-.7 9.1-.4 13.7 1.3 18.3-.8 36.6-.2 55 .3 8.5.2 17 0 25.5-.2 8.8-.6 17.6-1 26.4-.2 6.4 1.2 12.8 1.2 19.3 0 5.8-1.3 11.5-1.3 17.3 0 4.4-4.4 4.5-7.3 4.9-15.9 2.2-31.8 4.6-47.6 7.6-4.2.8-8.5 1.4-12.6 1.4-9-.2-17.4 2.7-26.5 2.7-7.2 0-14.7 2.1-22.2 2.7-.9.1-1.7-.1-2.6-.1-12.4-.4-24.7.7-37 1.6-5.4.4-10.4 2.4-16.2 1.5-9.4-1.4-18.9 1.4-28.5 1.9-4.4.2-8.8.6-13.2.7-11.3.4-22.7-.8-34 1-10.7 1.7-21.4 1.7-32.1.9-5.2-.4-10.1 1.6-15.3 1.1-13.6-1.3-27.2-1.2-40.8-.9-7.7.1-15.5 0-23 1.2-12.7 2-25.5 1.4-38.1 3.3-11.7 1.7-23.4-.6-35.1-.5h-16.5c-1.1 0-2.8.6-3.3-.6-3.3-7.4-11.5-7.2-17.1-11.2-14.5-10.5-30.7-18.5-44.9-29.4-5-3.8-11-6.4-16-10.1-7.3-5.3-14.8-10.2-22.1-15.3-12.6-8.9-24.8-18.3-37.8-26.5-12.6-8-24.9-16.5-37.1-25.1-7.2-5.1-14.2-10.7-21.6-15.4-13.4-8.6-25.1-19.5-38.7-27.8-10.8-6.7-20.9-14.5-32-20.8-1.8-1-3.1-3.6-5.3-4.7-12.2-6.8-22.6-16.4-34.9-23.1-6.6-3.6-7.6-10.2-7.5-16.5.3-19.2-.4-38.5-.1-57.7.2-10.7 1.7-21.5 1.4-32.1-.3-9.8-.2-19.7-1.1-29.5-1.2-13.1-.5-26.4-.3-39.7.1-8.5 1.1-17.1.9-25.6-.8-21.7.4-43.4.2-65.1-.2-14.9 2.9-29.6 1.9-44.5-.1-1.3.4-2.2 1.2-3.1 7-7.7 14-15.2 20.3-23.6 5.8-7.7 13.3-14.3 18.6-22.4 7.7-11.7 16.4-22.6 24.4-34 9.6-13.8 18.4-28.1 27.7-42.1 2.2-3.3 4-7 5.5-10.7 2.9-6.7 5.3-7.9 11.4-4.6 4.8 2.6 10.2 3.8 15.2 5.9 10.6 4.5 21.7 7.9 31.8 13.8 2.6 1.5 6 2.1 9.2 2.8 5.2 1.1 9.6 4.3 14.6 6.2 18.2 7.1 36.4 14.2 54.8 20.8 12.1 4.4 24 9.1 36.2 13.2 7.1 2.4 14.4 5.2 21.2 9 1.4.8 3.5.4 5.3.5.9 0 2.2.5 2.4-1 .2-1.2-.1-2.1-1.2-3.3-2.9-3.1-6.9-4.1-10.2-5.3-16.6-5.6-32.7-12.5-49.1-18.5-12.4-4.5-24.5-9.5-36.9-14-8.1-3-16.4-5.7-24-9.4-8.4-4.1-17.3-7-25.8-10.9-12.5-5.7-24.4-12.9-38-15.9-2.6-.6-4.5-3-7.5-3.2-1.6-.1-.6-1.8-.2-2.7 2-4.7 4.1-9.4 6.9-13.7 3.2-4.9 4.2-10.7 6.8-15.9 1.2-2.4 2.3-3.2 5-3.3 18.5-.7 36.9-2 55.5-2.1 12.6-.1 25.2-2 38-2.1 5 0 10.3 0 15.2-1 5.2-1 6.6 2.7 9.1 5.5 1 1.2-.1 2.1-.8 2.3-6.6 1.9-14 6.2-19.9 4.8-9.5-2.3-14.5 3.4-20.8 7.2-4.3 2.6-4.3 10.5-1.6 14.7 4.5 7.1 11.8 10.1 18.7 13.8 15.7 8.5 31.7 16.4 48.6 22.3 1.8.6 3.8 2.3 5.5-.2 1.2-1.7 2.5-.4 3.4-.1 16.3 4.5 32.3 10 48.9 13.1 16.3 3 32.5 6.4 48.9 8.5 9 1.2 18.3 2.6 27.3 4 9.1 1.4 18.4 1.7 27.4 3.4 10.8 2 21.8 2 32.7 3.2 7.6.9 15.5 2.8 23.2-1.1 1.7-.8 4.3-.3 6.5-.3 12.6.2 25.4 1.2 37.9-.2 14.1-1.6 28.3-1.6 42.4-3.9 7-1.1 14.4-1.8 21.3-3.2 5.4-1.1 10.9-3.6 16.5-4.9 7.1-1.7 13.3-4.7 19.1-9.1 3-2.2 3.6-5.4 3.4-8.5-.2-3.6-2.3-7-5.8-8-9.8-3-19.7-5.9-29.7-8.6-9-2.4-18.6-4.7-26.4-10.7-1-.7-2.9-1.4-.1-3.1 2.3-1.4 4.1-2.1 6.8-1.2 6.8 2.3 13.8 4 21.1 3.5 1-.1 2.2.3 2.9-.2 4.8-2.9 7.9-1.1 11.9 2.5 7.3 6.7 16.2 10.6 26.4 10.7 14.8.3 28.2 5 41.6 11.1 9.8 4.5 19.3 9.9 29.8 13.2 9.2 2.9 17.7 8.4 26.5 12.6 5.5 2.6 10.6 4.8 15.6 7.2zM1860 1211.9c2.9-2.2 3.4-5.7 5.1-8.5 6.5-10.7 5.4-21.7-.7-31.3-11-17.5-28.6-22.4-48.3-22-7.5.2-11.9 5.8-16.8 10.1-8.5 7.4-16.1 15.9-15.2 28.3.4 5.6 2.8 11 3.4 16.5 1 9.1 9.2 10.3 14.8 14.5 1.3.9 2.4-.3 3.7-.6-2.2 10.5-4.4 21-6.8 31.4-3.5 15.6-6.6 31.3-9.9 47-3.3 15.4-8.4 30.2-12 45.5-2.8 11.7-6.9 23.1-9.4 34.9-5.2 24.5-10.6 49-15.5 73.6-1.1 5.4-3.5 10.3-4.5 15.7-2.1 11.4-2.5 23-4.8 34.3-1.8 9.1-3.9 18.1-4.9 27.2-1.5 13.3-3.7 26.5-5.4 39.7-2.1 16.2-7.6 31.9-6.7 48.5.2 3.1-1.7 6-.4 9.3 2.3 6 5.4 11.3 10 15.7 4.8 4.5 10 4.7 12.7-2.4.9-2.3 2-4.5 2.7-6.9 3.7-11.8 6.8-23.8 11.6-35.2.5-1.1.3-3.2 2-2.9 1.6.2 1.3 2.1 1.3 3.4.1 10.8 0 21.6.9 32.4.9 11.7-.1 23.5-1.8 35.2-.3 2.3.2 4.4 1.4 6.6 3.7 6.8 9.7 11.1 15.3 16 10.4 9.2 22.8 11 35.9 10.5 2.5-.1 4.2-1.9 5.5-4.5 4.1-8.9.9-17.9.7-26.8-.2-9.9-1.9-19.7-2.8-29.6-.3-3.5 0-7 0-10.5.4-.1.9-.2 1.3-.3 1.7 2.5 3.7 4.8 4.9 7.8 2.4 6.2 6.4 11.6 9.8 17.3.8 1.3 2 2.9 4 2.5 2-.4 2.8-2.3 2.8-3.7.1-8.4 2-16.7 2.2-25.1.3-9.7 9.2-16.6 18.7-14.7 7.5 1.6 13 5.1 15.6 12.8 1.3 3.8 7.1 6.7 10.4 5.4 3.8-1.4 4.4-4.8 4.4-8.6-.2-9.7.3-19.5-.4-29.2-.7-10.8-1.3-21.7-2.4-32.5-1.7-16.3-5-32.5-5.2-49-.1-4.8-3.1-9.6-2.7-13.9.8-10.5-5.4-20.7-.7-31.2.1-.3-.1-1-.4-1.4-3.4-4.7-2.8-10.3-3.3-15.6-.6-6.7-1.2-13.3-1.9-20-.7-7.3-1.8-14.6-2-22-.2-6.9 0-13.8-.9-20.7-1.1-9.2-2.8-18.3-2.3-27.6.4-6.6-.9-13.2-1.7-19.7-1.1-8.8-1.8-17.7-2.5-26.5-.5-5.4-.6-10.8-1.1-16.2-1-10.3-1.6-20.6-2.1-30.9-.3-5.7.3-11.7-1.1-17-3.2-11.5-2.8-23.4-4.5-35.1zm-281-69.4v-7c0-1.9-1.4-2.9-2.9-3.6-1-.4-2.2 0-2.6 1-1 2.5-2.8 4.7-2.8 7.7-.2 16.1-.5 32.3-.7 48.4 0 3.7.7 7.4.6 11-.3 9-1.7 18-1.6 27.1.1 4.8 0 9.7 0 14.5 0 2-.9 3.9-.7 5.7.6 9.2-1.7 18.2-.8 27.6.8 7.8.3 16-.1 24.1-.3 8-.7 16-1.6 24-1.1 9.3-2.3 18.8-1.6 28 .7 8.3-.4 16.5-.1 24.7.5 16.4-2.3 32.5-3.2 48.8-.5 8.1 1.7 16.1 1.3 24.3-.1 1.9-.5 3.9 0 6 1.4 5.4 1.2 11.3.5 16.7-1.9 13.8-.6 27.7-1.2 41.5-.5 11.3.6 22.8 1.3 34.2.8 13.6.3 27.3.1 41 0 2.7 1.7 5.2 1 7.7-2.5 8.9-1.6 18.2-1.3 27 .4 11-1.3 21.9 0 33 1.5 12.7.4 25.7.3 38.5 0 2.4.9 4.5 1.3 6.7.5 2.7 3.9 3.7 5.8 3.5 2.1-.2 2.6-3.6 2.4-5.6-.3-2.6-.8-5.3 0-7.8 1.6-5.1.3-10.3-.1-15.2-.7-8.1-1.3-16.4-1.6-24.4-.3-9.6-.1-19.4.1-29.2.3-14.2.1-28.6-1.2-42.7-.4-4.5-.7-9.1-.1-13.2.7-5-1.5-9.7-.5-14.5.6-2.8 1.4-5.5.9-8.3-2-10.3-.4-20.7-1.7-31.1-.5-4.5.7-9.4.7-14.2.1-10.9.7-21.9.7-32.8-.1-16.8 3-33.4 1.5-50.2-.6-7.5 1.3-15.2.5-22.8-.5-5.2-.8-10.4-.6-15.6.1-5 1.5-10-.1-14.9-.7-2.2-.5-4.4.1-6.5 2-7.2 1.6-14.9 1.2-22-.4-6.9.3-13.9.2-20.8-.2-12.3 1-24.7 1.7-37 .4-6.4-.3-13.1 1.1-19.2 1.7-7.1-.1-13.9.2-20.8.2-4.5.2-9.3.2-14-.1-7.6 1.8-15.2 2.2-22.9.5-10.4-.2-20.8 1-31.3 1-8.3.8-16.7.2-25.1z"/><path fill="#BBA15B" d="M1759.1 646.8c-1.8 1.8-3.6 2.9-3.7 6.4 0 3.8-4.9 6-7.1 9.5-5.7 8.9-12 17.5-18.4 25.9-7.7 10.2-15 20.8-23.7 30s-15.3 19.9-23.4 29.5c-7.4 8.7-13.8 18.1-20.8 27.1-8.2 10.7-16.2 21.6-23.1 33.3-1.3 2.2-3.2 1.4-4.7.9-1.4-.5-3.6-.9-3.3-3.1.3-2 2.1-2.4 3.7-2.4 4.3.1 6.4-2.9 7.5-6.1 1-2.8 0-6.4-2.4-8.4-5.6-4.7-9.6-10.8-15.2-15.5-10.4-8.7-20.9-17.3-32-25.2-8.3-5.9-17.3-10.8-25.3-17.3-7.8-6.4-17.3-10.8-26.5-15.4-3.1-1.5-6.3-3.2-9-5.2-4.1-2.9-8.9-3.1-13.2-4.9-3.4-1.5-6.4 1-8.6 3.4-2 2.1.1 4.4.2 6.6.3 5.6 6 7.8 6.8 12.7.1.7.8 1.6 1.5 1.9 5.9 2.5 2.3 4.7 0 7.2-5.7-7.4-11.3-14.4-15-22.8-2.1-4.7-1.5-8.3 1.2-13 4-7.1 8.9-13.5 13.9-19.8 8.9-11.3 15.9-23.9 26.4-34.1 4.6-4.5 7.9-10.5 11.4-16.1 3.2-5 7.1-9.7 10.8-14.4 2.9-3.7 5.8-7.6 8.6-11.4 5.1-7 10.5-13.8 16.1-20.3 5-5.8 8.9-12.3 13.5-18.4 5.1-6.7 10.5-13.3 15.9-19.7 3.7-4.5 9.9-1.8 14.5-.4 6.1 1.9 11.7 5.3 17.5 8.1 8.3 4 14.9 10.4 22.8 15 16.9 9.9 31 23.5 45.4 36.6 5.3 4.8 10.2 10.3 15.3 15.4 4.3 4.3 7.4 10.6 14.3 12.1 2 .5 3.9.3 5.9.4 3 3.4 1.8 7.8 2.2 11.9z"/><path fill="#E6F5FD" d="M1479.5 1030.8c2.8-.8 4.2.7 5.6 3.6 2.8 6.1 4.8 5.9 9.9 2.3 3.5-2.5 5.5-6.3 9.1-8.6 3-1.9 5.5-2.5 8 .6 2 2.4 4.7 3.2 6.2.1s5-1.6 6.8-3.9c1.4-1.9 2.4-2.7.6-5.1-4.3-5.9-8.7-11.9-9.7-19.7-1.4-11.8 5.7-24.4 16.7-29.6 5.1-2.4 10.4-1.2 15.3-.5 9.3 1.2 16.6 6.9 24.1 12.3 8.1 5.9 13.9 14.2 21.9 20.1 3.1 2.3 5.5 1.9 7.6-.9 1.4-1.9 3.2-3.4 4.7-5.2 3.6-4.4 12-5.1 16.9-1.6 1.5 1.1 3.3 1 4.7 2.3 6.6 6 6.7 10.1.2 17.1-4 4.3-4.4 9.2-1.1 14.1 1.7 2.5 4.2 3.2 6.6 1.3 2.7-2.2 5.2-4.8 7.6-7.4 7.5-8.5 21.9-8.8 27.6 1 1.8 3.1 6.8 2.6 8.7 6.4.3.6 3.6-.5 4.4-2.6 1-2.7 2.3-5.3 2.9-8 1.6-7.2 5.4-13.4 8.7-19.7 3-5.7 9.7-5.3 15.4-4.7 13.3 1.5 25.5 6.1 36.8 13.2 3.4 2.1 7 3.9 10.6 5.8 2.7 1.5 3.2 3 2 5.5-1 2.1-.2 3.6 1.4 5.2 4.7 5 10.8 7 17.1 8.5 5 1.2 9.8 2.9 14.7 4.4 5.6 1.7 7.2 1.1 9.6-4.3 1.7-3.8 3-7.8 5.8-11 5.4-6.1 14.6-4.3 19.4 2 3.7 4.9 3.6 10.4 2.7 14.2-1 4.4-4.2 9.8-9.9 11.7-3.7 1.3-4.2 3.6-1 5.9 2.2 1.6 4.6 3.3 7.2 4 5 1.3 8.2 5.1 12 8 4.1 3.1.5 6.5-.5 9.6-.5 1.4-2 2.5-1.8 4.4.3 3.4 2.5 4.7 5.7 3.2 5-2.3 7.6-6.1 7.4-11.7-.1-2.6-.1-3.3 3.5-2.8 8.5 1.1 16.5 4.5 25 5.6 2.7.4 5.1 2.5 8 3.1 1.3.3 2.2 1.3.9 3-2.2 2.8-4.2 5.4-7.8 6.9-14.1 5.9-29.1 8.1-44 10.5-5.3.8-11.2 1.1-16.9.7-2.9-.2-6.4.5-9.6 1-8.3 1.2-16.7.5-25 .7-3.1.1-6.2.7-9.3.6-2.3 0-5.3 1.1-6.3-2.6-.3-1.1-1.5-1.2-2.6-1-7.1 1.3-14.2 1.9-21.4 2-8.5.1-17.1.6-25.6.1-4.6-.2-9.2.2-13.9-.1-12.1-.9-24.3-1.1-36.3-2.2-8.8-.8-17.4-3.5-26.3-4.2-11.2-.9-22-4.7-33.2-5.8-8.1-.8-15.9-3.7-23.9-5.2-9.8-1.8-19.3-4.8-28.9-7.5-10.9-3-21.8-5.7-32.1-10.5-13.3-6.2-26.6-12.4-39.8-18.9-3-1.5-6.1-2.8-9.1-4.3s-4.7-3.2-4.2-6.1c.6-3.4 4-4.3 6.9-5.3.8-.3 1.9 0 3.3 0zm309.5 50.4c0 5.3 8.7 10.8 15.3 10.9 7.3.2 10.3-3.9 12.8-9.6 1.5-3.5.4-5.8-2.5-7.4-6.7-3.8-13.5-1.3-20.3-.3-4 .5-5.5 2.6-5.3 6.4zm-270.1-22.4c7.1.8 11.6-6.7 8.5-13.2-2.6-5.5-7.7-6.9-12.7-7.6-5.1-.7-8.7 3.4-11.3 7.2-1.3 1.9-1.9 5.6.3 7.4 4.4 3.5 9.3 6.3 15.2 6.2zm255.8-6c-6.1.1-8.9 2-7.6 4.8 1.7 3.6 4.5 6.7 8.7 7.1 4.5.5 5.7-3.6 7.1-6.8.7-1.6.1-3.2-2-3.7-2.3-.6-4.6-1.1-6.2-1.4zm-247.8-16c.6 2.6 1.9 6.3 4.9 6.3 2.8 0 6.2-2.2 6.1-6.2-.1-2.1-1.1-5.9-3.1-4.8-2.5 1.5-7.6-1.2-7.9 4.7zm226.2 3.2c.7 3-4.3-.7-3 2.7.8 2.1.4 5.5 3.1 5.9 1.9.3 1.9-3.1 3.7-4.2-1.1-1.6-1.5-3.7-3.8-4.4zm-191.1-8c.2-1.4-.2-3.2-2-3-1.8.2-3.1 1.7-3 3.9 0 1.8.7 3 2.6 2.9 2.2-.1 2.5-1.7 2.4-3.8zm174.3 0c3-1.2 4.5-2.9 3.5-5.8-.3-.9-1.3-1.9-2.3-1.2-2.6 1.8-1.3 4.3-1.2 7z"/><path fill="#CCD8DF" d="M1894.3 1054.9c-9.2-4.6-18.9-9-22.4-19.8-3.7-11.5-4.2-23.3 1.8-34.2 2.2-4 5.5-7.9 9.9-10.1 3.2-1.6 3.1-4.5 1.9-6.5-1.2-2.2-4-3.6-6.8-1.6-10.8 7.7-19 17-19.9 31.2-.5 9.2.4 17.9 5.4 25.8.8 1.3 2.4 2.9 1.5 4.4-1.2 2.2-2.8-.3-4.3-.2-6.9.5-12.5-3.8-18.9-5.2-1.8-.4-1.7-2.2-1.6-3.8.3-14.3-9.8-22.9-21.9-25.2-7.9-1.5-14.1.1-20.3 5-2.5 2-2.5 5.4-5.5 7-.9.5-1 3.4-3.4 3.1-3-.4-6.4-1.3-7.3-4.1-2.5-7.8-5.4-15.8-2.5-24.2 1.9-5.3 5.4-8.9 10.9-11.4 8-3.7 16.1-4.5 24.7-4.4 4.1.1 8.2-1.4 12.5-.1 2.2.7 4.5-1.7 3.6-4-2.5-7-3.1-14.6-6.9-21-4.9-8.2-9.4-16.8-16.4-23.7-2.3-2.3-10.9-3.4-14.2-1.8-5.1 2.4-8.2 1.8-11.2-2.8-3.6-5.4-7.2-10.8-10.5-16.4-1.9-3.3-2.1-5.4 2.7-7.5 6.8-3.1 12.9-7.9 20-10.2 11.7-3.7 24.1-8.9 35.9-1.9 7.1 4.3 13.9 9.8 18.9 17 7.4 10.8 15.5 21.2 22.2 32.4 5.5 9.1 9.9 18.9 13.3 28.8 2.5 7.3 8.5 9.9 14.1 10.9 7.3 1.2 12.3 5.4 18.1 8.8 6.5 3.9 11 10 14.2 16.5 3 6.3 4.9 13.2 6 20.2 1.1 7.6.1 15-2.7 22.1-2.3 5.7-7.8 6.5-12.7 7.6-2 .5-4.2.4-6.2 1.1-11.9 4.5-16.6-5.2-22.1-11.9-6.4-7.7-9.4-17.3-12.1-26.9-.8-2.8-3.4-5.3-1.1-8.6.7-1.1-.7-1.5-1.8-1.6-2-.1-3.1.8-3.1 2.9-.1 5.1 1.8 9.8 2.9 14.7 1.7 7.5 6 13.8 9.3 20.6 1.5 3 4.5 5.3 6.8 7.9-.3.4-.5.7-.8 1.1zm6.8-33c-.5 7.1 1.3 13 8.9 15.9 4 1.5 6.6.8 8-3.4 2.4-6.9.4-13.4-2-19.8-.8-2.3-4.1-1.5-4.9-4.2-1-3.2-3.5-2.9-5.7-1.4-4.6 3.1-4.6 8-4.3 12.9z"/><path fill="#E40611" d="M1596.3 759.7c-1.6-1.8-3.4-.9-5.2.4-4.2 2.9-6.8 7.1-10.2 10.8-6.4 6.9-12.5 14-18.6 21.1-5.7 6.9-12.1 12.3-22.1 11.7-2.2-.4-4.9-.3-7.5-.5-8.5-.7-13.8-6.9-20.5-10.6-2.4-1.3-4.1-4-5.8-6.2-.8-1.1-2.2-2.8-1.1-4 1.3-1.3 3.5-.8 5.2-.3.7.2 1.2 1.1 1.9 1.6 6.7 5.5 13.6 10.8 23.1 10.2 1-.1 2.1.9 3.2 1.1 3.9.8 8.3 2.6 11.4-.8 5.3-5.8 11.4-10.9 16.4-17 5.9-7.2 12.3-14 18-21.3 1.9-2.5 1.8-3.6-1-5.3-12.1-7.4-24-15.1-36.1-22.5-2-1.2-3.8-3.5-6.5-3.2-3.3.4-2.9 3.9-4.4 5.9-11.4 15.4-25.5 27.7-42.2 37.1-3.2 1.8-4.5 4.6-3 7.6 2 3.8 3 8.3 5.1 11.4 4 5.8 1.6 9.9-1.2 14-4 5.8-8.2 11.7-13.4 16.4-14.2 12.9-24.9 28.9-39 41.8-1.6 1.4-1.7 2.6-.2 3.7 3.1 2.5 5 5.8 7.4 8.8 4.3 5.5 4.8 5.5 10.1 1 2.1-1.8 2.7-4.2 4.6-6.1 7.4-7.3 14.7-14.7 21.5-22.5 2.6-3 5.7-5.4 8.3-8.3 6.8-7.7 13.3-15.8 19.9-23.7 2.3-2.8 5.5-3.7 8.4-2.5 6.2 2.5 13 3.3 19.1 5.7 4.1 1.6 7.1.1 10.1-1.9 2.5-1.6 4.6-3.7 6.8-5.7 7-6.5 13.8-13.2 20.5-20 6.6-6.7 13.3-13 18.3-21.3 2.2-3.8.2-4.9-1.3-6.6z"/><path fill="#FEFEFE" d="M1759.1 646.8c-.4-4.1.8-8.5-2.2-12.1 1.4-6.8-4.8-8.9-8.1-12.6-7-7.7-14.7-14.9-19.6-24.1-4-7.5-5.1-16.2-3.9-24.7.9-5.9 10-10.1 16.5-8.3 9.6 2.6 17.9 7.5 24.2 15.4 5.3 6.7 9.7 14 13.6 21.6 1.3 2.5 1.6 6.3-1.4 9.1-4 3.7-4.8 9-1.8 13.2 6.8 9.6 12 20.1 17.2 30.6 6.6 13.5 6.3 27.6 1.1 41.7-4.4 11.7-11.5 21.5-20.3 30.4-2 2.1-3.5 4.7-5.8 6.6-5 4.2-10.6 3.1-13.9-2.6-2.3-4-4.8-8-6.9-12.1-1.7-3.3-4.7-5.2-7.8-6-5.2-1.3-7.7-5.5-11.1-8.8-1.6-1.5.4-1.8.8-2.6 6.8-10.4 13.5-20.8 21.3-30.5 3.8-4.8 7.1-10 10.9-14.8 1.8-2.2 1.3-5 1.8-7.4.5-2.6-2.7-1.9-4.6-2z"/><path fill="#BBA15B" d="M1687.3 751.5c5.9 9.1 10.3 11.7 17.1 8.9 4.2-1.8 8.3-4.8 11.5-8.1 8-8.4 16.1-16.7 20.4-27.9.2-.6 1.1-1.3 1.8-1.5 1.2-.3 1.2 1.1 1.4 1.7.8 3.4 2.5 6.3 3.7 9.5 1.3 3.4-1.7 5.6-3.1 8-8.5 14.7-20.1 26.8-33.4 37.1-4.3 3.3-9 8.3-15.3 7.4-7.8-1.2-15.3-3.7-19.5-11.5-.5-1-.9-1.5-.1-2.6 5-6.8 10.1-13.7 15.5-21z"/><path fill="#FEFEFE" d="M1605.9 817.7c-1.7.2-1.7-.8-2.1-1.4-5.3-7.5-9.3-16-16.1-22.5-1.5-1.4-.8-3.2.6-4.8 5.2-6.1 10.3-12.2 15.4-18.4 1.3-1.6 2.7-1.6 4-.6 6.6 5.4 13.5 10.3 19.5 16.4 2.5 2.5 2.8 4 0 7.2-3.1 3.6-6 7.7-8.6 11.7-3.3 5-9.2 6.9-11.8 12.2-.2.2-1 .2-.9.2z"/><path fill="#E40611" d="M1279.4 1035.8c-8.9 0-18.7-6.7-20.7-13.8-1-3.5 0-5.3 3.8-6.3 5.3-1.5 8.4-1 10.2 5 1.4 4.6 6.1 5.4 12.6 3.4 9-2.7 17.7-6 24.4-13.1.5-.5 1.6-1.6 3.1-.9 3 1.5 4.9 9.8 2.3 11.9-7.8 6.3-16.8 10.4-26.6 12.7-3.2.8-6.4 1.4-9.1 1.1z"/><path fill="#FEFEFE" d="M1729.7 722.4c-6.1 12.2-16.3 20.9-26 29.9-1.9 1.8-3.9-.5-5.6-1.6-1.8-1.2-1.2-2.6-.4-4.2 2.3-4.7 5.6-8.8 8.9-12.8 2-2.5 2.5-5.9 5.1-8.1 3-2.6 3.8-9.1 7.8-8.3 3.1.7 7.2 2.4 10.2 5.1zM1298.8 1008.4c-4.8 4.5-10.2 7.7-16.9 8.3-.9.1-2.4.8-2.8-1-.3-1.4.5-2.3 1.5-2.9 5.5-2.8 11.3-4.5 17.4-5.2.2.3.5.6.8.8z"/><path fill="#BBA15B" d="M1521.4 715.1c3.7 1.5 7.4 2.4 10.4 4.3 2.3 1.5-.7 3.1-1.4 4.2-2.7 4.3-4.2 4.1-6.7-.5-1-2-1.8-4.1-3-6-.9-1.6.6-1.4.7-2z"/><path fill="#FEFEFE" d="M1297.9 1007.7c.1-.1.1-.4.2-.4 1.3-.1 2.4-2.4 3.5-1.1 1.3 1.6-.7 1.4-1.6 1.6-.4.1-.8.4-1.2.6-.3-.2-.6-.5-.9-.7zM914.1 1461.8c-.3 1-.9 1.1-1.8.7.3-.5.6-.9.9-1.4.3.3.6.5.9.7zM1689 475.6c-7.6 2-14.5-1.6-19.7-5.3-8.6-6.2-15.8-14.6-16.2-26.5-.2-5.9 3.5-10.9 6.7-14.5 4.5-5 9.5-10.3 17.2-11.9 6.4-1.3 11.4-.3 16.2 3.3 9 6.7 16 15.1 18.4 26.2 1.9 9-1.7 23.5-12.5 27.8-3.5 1.5-6.8.6-10.1.9zM1606.5 888.4c1.6 7.6 2.4 14.8 4.6 21.6 2.8 8.7 2.5 17.6 3.7 26.4.3 2.3 1.7 4.5.4 7.5-1.7 3.7-3.5 5.4-7.6 4.1-9-2.8-11.6-8.3-9.6-18.5 1.9-10 3.3-20.1 5-30.1.7-3.6 1.2-7.3 3.5-11zM1735 514c0 6.1.1 12-4.9 16.9-4.2 4.1-12 4.8-17.4 2.4-6.2-2.8-8.4-8.1-10.6-13.5-1.3-3.3 3-12.3 6-15 3.5-3.3 7.9-5 11.8-7.4 1-.6 1.9-.7 2.8-.5 7.2 1.3 12.3 7.4 12.3 14.7v2.4zM1735.8 407.5c-1.9-.2-6.4-6.5-5.6-7.8 1-1.7.7-4.8 3.8-4.9 1.1 0 6.5 6.9 6 7.7-1.3 1.9-2.9 3.5-4.2 5z"/><path d="M745 1393.9c5.8 0 11.8.8 17.5-.2 10.9-1.8 22.1-.4 32.9-3.5 2.4-.7 5.3-.1 7.8 0 1.7 0 1.4 3.4-.2 5.2-3.2 3.7-7.9 3.3-12 4.3-11.8 2.7-24.1 2.6-35.8 6-2.9.8-6.3.8-9.2.8-6.2 0-4.8 4.7-4.3 7 1.3 6.5.1 12.9.5 19.4.2 3.2 1.1 6.4 1 9.7-.1 11.2-2.2 22-3.8 33-1.3 9.1-3.3 17.9-6 26.7-1.3 4.3 2.8 2.8 3.9 2.4 3.9-1.5 8-.9 11.8-1.5 7.9-1 14.1 4 20 8.7 3.6 2.9 6.9 6.3 9.3 10 4.8 7.6 7.1 16.4 8.3 25.3.2 1.2-1.4 2.7-3.1 2.6-2-.1-4.5 1-5.4-2-.7-2.5-1.5-4.9-2-7.4-1.2-6.6-4.6-11.7-9.8-15.9-2.7-2.2-4.6-5.5-7.5-7.2-7.6-4.5-15-5.2-24.2-2.1-15.3 5.1-28.6 14.2-43.5 19.9-7.6 2.9-14.7 6.8-22.6 9.1-11.8 3.3-24.3-3.3-25.4-15.8-.2-1.9-1.8-2.8-2.2-4.8-1.1-5.9 3.9-8 6.8-10.2 5-4 8.3-9.3 12-14 6.4-8.1 12-16.8 17.9-25.2 6.1-8.6 10.9-17.8 15.2-27.2 4.9-10.6 10-21.2 12.5-32.7 2.1-9.7 4.3-19.4 3.7-29.4-.2-4 1.1-5.8 5.7-6.2 9.7-.9 19.1 1.1 28.6 1 11.9-.2 23.9 1.3 35.9-1.4 6.8-1.5 14.1-.2 21.2-1.2 12.4-1.7 24.9-2 37.2-4.6 7.4-1.5 14.9-3.3 22.6-3.7 3.9-.2 7.6-2 11.5-3.2 2.9-.9 5.8-1.1 8.8-.8 1.8.2 3.1.4 3.5 2.6.5 2.6-1.5 2.4-2.9 2.9-12.1 4.3-24.7 6-37.4 7.7-6.4.8-12.5 3-19.1 3.2-10.6.3-21.2 1.7-31.6 3.1-11.6 1.5-23.3 2.3-35 3.4-9.6.9-19.3.2-28.9.2-1.3 0-2.8-.1-3.9.4-1.6.8-1.1 2.6-1.2 4 0 2.4 1.8 1.5 2.9 1.5 6 0 12 0 18 .1 0-.1 0-.1 0 0zm-20.2 34.9c0-5.9.8-11.9-.8-17.7-.3-1.2 1-3.1-1.6-3.3-2.6-.2-2.9 1.8-3.3 3.3-5.1 20-10.9 39.7-23.1 56.7-5.2 7.3-8.5 15.8-13.6 23.2-7.5 10.8-17.3 19.7-24.7 30.6-1.9 2.8-1.7 5.5 1.2 5.9 3 .5 6.3.8 9.5.8 8.2-.1 15.5-3.6 23.3-4.7 7.5-1.1 14.1-4 20.6-7.6 3-1.7 4.3-3.6 4.7-6.6.2-1.3.2-2.5.6-3.8 3.9-13.5 7-27.2 7.2-41.4.1-11.9 0-23.6 0-35.4zM1264.1 482.4c-.8-10.4.1-20.5 4-30.3 1.5-3.8 2.9-7.8 4.7-11.5 2.3-4.8 7.4-5.7 11.6-6.6 3.6-.7 6.8 2.4 8.6 5.6 2.8 4.9 3.6 10.3 3.2 16-.5 7.1.3 14.2-1.1 21.2-2.1 10.5-2.1 21.5-8.9 30.7-3.1 4.2-7.5 5.9-11.5 5.7-3.8-.2-7-3.9-8.8-8.1-3.1-7.3-1.3-15.1-1.8-22.7zm20.2-36.4c-3.1 4.1-5 8.6-5.9 13.8-1.9 10.7-4.1 21.4-3.3 32.4.2 2.5-1.8 6.7 1.8 7.2 2.9.4 2.5-3.8 3.2-6.1 4.1-13.7 5.8-27.8 6.9-42 .2-2.4-.4-4.2-2.7-5.3zM1368.9 514.2c1.2-14.7-1.6-28.1-7.9-40.7-.8-1.6-1.7-3.2.2-4.2s4.5-2.1 6 .2c2.9 4.5 7.2 8.2 8.3 14 .5 2.7 2.4 5.2 3.6 7.8 3.4 7.3.9 15.2 2 22.8.9 6.4.3 12.5-2.9 18.4-4.2 7.8-9.7 14.3-17.2 18.8-6.2 3.7-12.7 6.8-20.1 7.6-4.3.5-8.1-.6-11.8-2.2-1.5-.7-2.3-2.4-1.9-4.1.6-2.5 2.4-4.3 4.9-4.8 2.1-.3 4.5-.6 6.5 0 6.1 1.9 11.6.2 16.3-3.2 4.8-3.4 7.5-8.6 9.8-14 2.3-5.4 5.8-10.5 4.2-16.4zM1415 480.6c.4 7.3-1.4 14.6-3.8 21.9-1 3-2.7 4-5 4.2-3.1.4-6.3.4-8.2-2.8-1.7-2.8-2.8-5.9-2.9-9-.3-7.1-1.9-14.1-1.1-21.2.7-6.3 2.7-12.1 9.2-11.9 7 .2 11.5 4.5 11.8 11.9.1 2.1 0 4.2 0 6.9zm-9.7-6.4c.6 3.7-1.8 7-1.4 10.7.4 3.4.1 6.9.1 10.3h1.2c1.3-6.9 5.2-13.8.1-21zM1213.8 617.5c-9.4-.1-17.8 3.4-25.7 8-4.5 2.6-9.4 4.9-12.8 9.2-1.2 1.5-10.1.1-11.2-1.4-2.9-4-1.7-10.4 2.7-12.7 8.6-4.7 17.6-8.4 27.5-9.8 5.9-.8 11.8-2.4 17.7-2.8 3.4-.2 7 1 10.4 2 1.1.3 2.3 2.1 2.4 3.3.1.8-1.3 2.2-2.8 2.4-2.8.6-5.5 1.2-8.2 1.8z"/><path fill="#62BEF3" d="M1860 1211.9c1.7 11.7 1.3 23.6 4.4 35.2 1.4 5.3.8 11.3 1.1 17 .5 10.3 1.1 20.6 2.1 30.9.5 5.4.7 10.8 1.1 16.2.8 8.8 1.4 17.7 2.5 26.5.8 6.6 2.1 13.1 1.7 19.7-.5 9.3 1.1 18.5 2.3 27.6.9 6.9.7 13.8.9 20.7.2 7.3 1.3 14.7 2 22 .6 6.7 1.3 13.3 1.9 20 .4 5.3-.2 10.9 3.3 15.6.3.4.6 1 .4 1.4-4.7 10.5 1.5 20.7.7 31.2-.3 4.4 2.7 9.1 2.7 13.9.2 16.5 3.5 32.7 5.2 49 1.1 10.8 1.6 21.7 2.4 32.5.7 9.7.2 19.5.4 29.2.1 3.8-.6 7.2-4.4 8.6-3.4 1.3-9.1-1.6-10.4-5.4-2.6-7.6-8.1-11.2-15.6-12.8-9.4-2-18.4 5-18.7 14.7-.3 8.4-2.2 16.7-2.2 25.1 0 1.5-.9 3.4-2.8 3.7-2 .4-3.2-1.2-4-2.5-3.4-5.7-7.4-11.1-9.8-17.3-1.2-3-3.2-5.2-4.9-7.8-.4.1-.9.2-1.3.3 0 3.5-.3 7 0 10.5.9 9.9 2.6 19.7 2.8 29.6.2 8.9 3.4 17.9-.7 26.8-1.2 2.6-3 4.4-5.5 4.5-13.1.6-25.5-1.3-35.9-10.5-5.6-4.9-11.6-9.2-15.3-16-1.2-2.2-1.7-4.3-1.4-6.6 1.6-11.7 2.7-23.5 1.8-35.2-.8-10.8-.8-21.6-.9-32.4 0-1.3.2-3.2-1.3-3.4-1.8-.3-1.5 1.8-2 2.9-4.8 11.4-7.9 23.4-11.6 35.2-.8 2.4-1.8 4.6-2.7 6.9-2.7 7.1-7.9 7-12.7 2.4-4.7-4.4-7.7-9.8-10-15.7-1.3-3.3.5-6.2.4-9.3-.8-16.6 4.7-32.3 6.7-48.5 1.7-13.3 3.9-26.4 5.4-39.7 1-9.1 3.2-18.2 4.9-27.2 2.2-11.4 2.7-22.9 4.8-34.3 1-5.4 3.5-10.3 4.5-15.7 4.9-24.6 10.2-49.1 15.5-73.6 2.5-11.8 6.6-23.2 9.4-34.9 3.6-15.3 8.8-30.1 12-45.5 3.3-15.7 6.4-31.4 9.9-47 2.4-10.5 4.5-21 6.8-31.4 1.5-2.2 2.5-4.4 1.8-7.1 3.9-4.9 4.6-11.1 6-16.8 2-8.1 5.4-14.2 14.1-16.9 4.5-1.4 7.9-2.4 12.1.5 3.5 2.5 8.2 3.4 10.2 7.8 2.2 4.8 4.4 9.6 6.6 14.3 1.2 3.7 2.3 7.4 3.3 11.1zm-23.4 423.9c2.1-6.7 1.6-13.1 4.3-18.9 2.9-6 5.6-12.8 12.8-13.7 9.6-1.3 19.6-1.6 28.1 4.8 1 .8 2.3 1.9 3.5 1.3 1.4-.7.7-2.4.7-3.6.1-11.3-.6-22.4-1.7-33.7-1.1-12-2.2-24-3.7-35.9-1.7-13.8-.9-27.7-3.5-41.4-1.5-7.7-2.1-15.6-3.2-23.4-.3-1.9-1-2.9-3.4-1.7-13 6.3-23.2 15.6-30.5 28-2.1 3.5-3.7 7.3-6 10.7-1.9 2.8-2.9 6.6-6.8 7.3-3.9.7-11.6-2.6-14.6-7.2-4.5-6.8-5.7-14.6-7.7-22.1-1.8-6.5-5.2-12.3-9-17.6-6.5-9-16.4-12.1-26.8-13.9-3.2-.6-10.1 2.7-9.9 5.1.3 4.9-1.5 9.4-2.2 14.1-1.3 8.8-4.6 17.2-5.1 26.3-.5 9.5-4.3 18.6-3.8 28.2.1 1.7-1.3 4.8 3 3.5 1.5-.5 2.3 1.6 1.7 3.2-.6 1.5-1.1 3.4-2.3 4.3-6.3 5.1-7.2 12.8-8 19.6-1.6 13.9-7.3 27-7.4 41.1 0 4.6-3 8.9-1.9 13.6 1.2 5.3-.7 11 2.8 16 .7 1 0 3.3 1.9 3.5 1.5.1 1.7-1.8 2.2-2.8 4.6-8.8 7-18.3 10.1-27.6 2.2-6.6 3.2-13.6 7.3-19.7 1.8-2.6 3.2-5.4 6.3-5.3 4.4.1 7.7 2.9 9.1 7 3.3 9.6 3.2 19.7 3.6 29.7.2 6.6.2 13.3 0 20-.2 7.6-.1 15.4-.9 22.9-1 8.9 1.1 15.5 7.7 21 2.4 2 5.6 3 7.8 5.1 4.9 4.4 10.8 5.3 16.8 6.2 4.5.7 6.9-2.1 6.9-5.9.3-16 .4-32-1.6-48-.7-5.6-.5-11.3 0-17 .4-4.8 4.8-6.8 8.6-3.9 2.6 2 5.4 4 7.4 6.9 2.9 4.2 4.8 8.6 7.4 13.9zm-68.3-187c9.6-.6 17.2 3.7 24.4 8.9 7.5 5.3 12.7 12.5 15.6 21.1 2 5.9 4.7 11.6 5 18.3.2 3.5 3 7.6 6.4 9.9 3 2 6 1.9 8.3-1.7 2.3-3.6 4.1-7.5 6.4-11 8.8-13.8 20.1-25.1 35.5-31.5 1.2-.5 3.6-1 2.8-2.8-1.2-2.5-.3-4.8-.6-7.2-2-16.3-3.2-32.7-4.9-49.1-1.5-15.2-2.5-30.5-4.2-45.8-.3-2.8-1.4-3.2-3.7-3.2-4 .1-8-.2-11.7 1.7-1.4.7-2.7.3-3.4-1.1-.7-1.4.6-2.1 1.5-2.8 1-.8 2.1-1 3.5-1.2 3.8-.4 7.4-1.8 11.3-2.1 2.2-.2 2.5-2.2 2.2-4.2-1-9.3-2.9-18.7-2.7-28 .3-14-1.9-27.9-2.3-41.8-.1-2.1-.8-3.3-3.7-2.4-3.3 1-5 3.6-7.3 5.6-6.2 5.3-9.9 12-11 20.2-.4 3.4-1 7-3.9 9.6-6.1 5.4-10.6 4.6-17.3-2.3-4-4.1-7.9-8.3-12.8-11.3-3-1.8-4.6-1-6 2.3-1.3 3.2-.4 6.6-1.5 9.7-1.6 4.6-3.6 9.2-4.3 14-1.6 10.9-5 21.3-6.6 32.3-1.8 12.4-5.6 24.6-8.4 36.9-.5 2.1-1.3 4.4 1.9 5.6 1.8.7 3 3 .5 4.2-7.6 3.7-8.2 11.5-9.1 17.9-1.1 8.3-4.3 16-5.2 24.3-.5 7-1.2 7 5.3 7zm42.2-212.9c-1.1 3.5-2.8 7-3.4 10.6-1.8 11.3-4.3 22.4-7.7 33.3-1.4 4.5-.5 6.5 4 7.9 3.4 1.1 6.2 3.3 8.1 6.2 2.1 3.3 4.9 5.7 7.6 8.3 2 2 4.5 3.2 7.2 2.1 2.4-1 3.2-3.4 3.7-6 1-5.3 2-10.5 5-15.3 4.5-7.4 10.6-13 17.9-17.3 2.7-1.6 3.7-3.6 3.3-7.2-.4-4.9-1.2-9.8-1.3-14.8 0-9.2-.6-18.4-1.8-27.5-.7-5.1-.4-9.7-7.1-10.4-1.7-.2-2.6-1.6-1.9-3.4.6-1.5 1-2.9 3.5-1.9 3.3 1.3 4-1.5 3-3.5-1.7-3.2-3-6.8-5.4-9.6-3.7-4.3-9.9-6-15.1-4.6-7.5 2-9.2 8.2-11.2 14.2-3 8.7-3.6 18-6.7 26.6-.7 1.8-1.6 4.6 1.1 6.2 4.4 2.7 4.7 7.4 5.6 11.8.1.7.1 1.7-.9 2-.9.2-1.5.1-2-.9-1.1-2.5-3.6-4-5.5-6.8z"/><path d="M1579 1142.5c.5 8.4.8 16.9-.1 25.2-1.1 10.4-.5 20.9-1 31.3-.3 7.7-2.3 15.3-2.2 22.9.1 4.6 0 9.5-.2 14-.3 6.9 1.4 13.8-.2 20.8-1.5 6.1-.8 12.8-1.1 19.2-.7 12.3-1.9 24.7-1.7 37 .1 6.8-.6 13.8-.2 20.8.4 7 .8 14.7-1.2 22-.6 2-.8 4.3-.1 6.5 1.6 5 .2 9.9.1 14.9-.1 5.2.1 10.4.6 15.6.8 7.7-1.1 15.3-.5 22.8 1.5 16.9-1.6 33.5-1.5 50.2 0 10.9-.6 21.9-.7 32.8 0 4.7-1.3 9.6-.7 14.2 1.2 10.3-.3 20.8 1.7 31.1.5 2.8-.3 5.5-.9 8.3-1 4.8 1.2 9.4.5 14.5-.6 4.1-.3 8.7.1 13.2 1.3 14.2 1.5 28.5 1.2 42.7-.2 9.7-.4 19.6-.1 29.2.3 8 .9 16.3 1.6 24.4.4 5 1.7 10.1.1 15.2-.8 2.5-.3 5.1 0 7.8.2 2-.2 5.4-2.4 5.6-1.9.2-5.3-.9-5.8-3.5-.4-2.2-1.3-4.3-1.3-6.7.2-12.8 1.2-25.8-.3-38.5-1.3-11.1.4-22 0-33-.3-8.7-1.2-18.1 1.3-27 .7-2.5-1-5-1-7.7.2-13.7.7-27.4-.1-41-.7-11.4-1.8-23-1.3-34.2.6-13.8-.7-27.7 1.2-41.5.7-5.4 1-11.2-.5-16.7-.6-2.1-.1-4.2 0-6 .4-8.2-1.7-16.2-1.3-24.3.9-16.3 3.6-32.4 3.2-48.8-.2-8.2.8-16.4.1-24.7-.7-9.3.5-18.7 1.6-28 .9-7.9 1.2-16 1.6-24 .3-8 .9-16.3.1-24.1-1-9.4 1.4-18.4.8-27.6-.1-1.8.8-3.7.7-5.7-.1-4.8 0-9.7 0-14.5-.1-9.1 1.3-18 1.6-27.1.1-3.7-.6-7.4-.6-11 .2-16.1.5-32.3.7-48.4 0-3 1.8-5.1 2.8-7.7.4-1 1.6-1.4 2.6-1 1.5.7 2.9 1.7 2.9 3.6-.1 2.2-.1 4.5-.1 6.9zM1807.8 1211.8c.6 2.7-.4 5-1.8 7.1-1.2.3-2.4 1.5-3.7.6-5.6-4.1-13.8-5.3-14.8-14.5-.6-5.6-3-11-3.4-16.5-.9-12.4 6.7-20.9 15.2-28.3 4.9-4.3 9.3-9.9 16.8-10.1 19.7-.5 37.2 4.5 48.3 22 6.1 9.7 7.2 20.7.7 31.3-1.7 2.8-2.3 6.4-5.1 8.5-1.1-3.7-2.1-7.4-3.2-11.2 5.3-16.1 1.1-29.7-13.8-37.7-9.5-5.1-20.2-5.7-30.6-.4-4.5 2.3-7.5 5.9-10.1 9.6-5.1 7.1-8.1 14.7-4.7 24.1 2.2 6.3 5.4 11.3 10.2 15.5zM1789 1081.2c-.2-3.8 1.3-5.9 5.4-6.5 6.8-.9 13.6-3.5 20.3.3 2.9 1.7 4 3.9 2.5 7.4-2.5 5.8-5.5 9.8-12.8 9.6-6.7 0-15.4-5.5-15.4-10.8zM1518.9 1058.8c-6 .1-10.9-2.7-15.2-6.2-2.2-1.7-1.6-5.5-.3-7.4 2.6-3.8 6.2-7.9 11.3-7.2 4.9.7 10.1 2.1 12.7 7.6 3.1 6.4-1.4 14-8.5 13.2zM1774.7 1052.8c1.5.3 3.9.9 6.2 1.4 2.1.5 2.7 2.1 2 3.7-1.4 3.2-2.6 7.2-7.1 6.8-4.2-.4-7-3.6-8.7-7.1-1.3-2.9 1.5-4.8 7.6-4.8zM1526.9 1036.8c.3-6 5.4-3.3 7.9-4.7 2-1.1 3.1 2.6 3.1 4.8.1 4-3.3 6.2-6.1 6.2-3 0-4.3-3.6-4.9-6.3zM1753.1 1040c2.3.8 2.7 2.8 3.7 4.4-1.7 1-1.8 4.5-3.7 4.2-2.7-.4-2.3-3.8-3.1-5.9-1.2-3.4 3.9.3 3.1-2.7zM1562 1032c.1 2.1-.2 3.7-2.4 3.7-1.8.1-2.5-1.1-2.6-2.9 0-2.2 1.3-3.7 3-3.9 1.8-.1 2.2 1.7 2 3.1zM1736.3 1032c0-2.7-1.4-5.2 1.2-7 1-.7 2 .3 2.3 1.2.9 2.9-.5 4.5-3.5 5.8zM1901.1 1021.9c-.3-4.9-.3-9.8 4.4-12.9 2.2-1.5 4.7-1.9 5.7 1.4.8 2.6 4 1.9 4.9 4.2 2.3 6.5 4.4 13 2 19.8-1.4 4.2-4 4.9-8 3.4-7.7-2.9-9.5-8.7-9-15.9zm6-2.6c1.1 3 2.1 6 3.5 9.8 1.1-4.8-1-7.4-3.5-9.8z"/><path fill="#FEFEFE" d="M1284.3 446c2.3 1.2 2.9 2.9 2.8 5.3-1.1 14.2-2.8 28.3-6.9 42-.7 2.3-.3 6.6-3.2 6.1-3.6-.5-1.6-4.7-1.8-7.2-.9-11 1.4-21.6 3.3-32.4.8-5.3 2.7-9.7 5.8-13.8zM1405.3 474.2c5.1 7.2 1.2 14-.1 21h-1.2c0-3.4.3-6.9-.1-10.3-.3-3.7 2-6.9 1.4-10.7zM1836.6 1635.8c-2.5-5.3-4.5-9.8-7.3-13.9-2-3-4.8-4.9-7.4-6.9-3.8-3-8.2-1-8.6 3.9-.5 5.6-.7 11.4 0 17 2.1 16 1.9 32 1.6 48-.1 3.8-2.5 6.6-6.9 5.9-6-.9-12-1.8-16.8-6.2-2.3-2.1-5.4-3.1-7.8-5.1-6.6-5.4-8.7-12-7.7-21 .8-7.4.7-15.3.9-22.9.2-6.7.2-13.4 0-20-.3-9.9-.2-20.1-3.6-29.7-1.4-4.1-4.7-6.8-9.1-7-3.2-.1-4.5 2.6-6.3 5.3-4.1 6.1-5.1 13.1-7.3 19.7-3.1 9.3-5.5 18.9-10.1 27.6-.6 1.1-.7 3-2.2 2.8-1.9-.2-1.2-2.5-1.9-3.5-3.5-4.9-1.6-10.7-2.8-16-1.1-4.7 1.9-9 1.9-13.6.1-14.1 5.8-27.2 7.4-41.1.8-6.8 1.7-14.5 8-19.6 1.2-1 1.7-2.8 2.3-4.3.7-1.7-.1-3.7-1.7-3.2-4.3 1.3-2.9-1.7-3-3.5-.5-9.7 3.3-18.8 3.8-28.2.5-9 3.8-17.5 5.1-26.3.7-4.7 2.5-9.2 2.2-14.1-.1-2.4 6.7-5.7 9.9-5.1 10.4 1.8 20.3 4.9 26.8 13.9 3.8 5.4 7.3 11.2 9 17.6 2.1 7.5 3.3 15.2 7.7 22.1 3 4.6 10.7 7.9 14.6 7.2 3.9-.7 4.9-4.6 6.8-7.3 2.3-3.4 3.9-7.2 6-10.7 7.3-12.5 17.5-21.7 30.5-28 2.4-1.2 3.1-.2 3.4 1.7 1.1 7.8 1.7 15.7 3.2 23.4 2.6 13.7 1.8 27.6 3.5 41.4 1.5 11.9 2.6 23.9 3.7 35.9 1 11.2 1.8 22.4 1.7 33.7 0 1.2.7 3-.7 3.6-1.2.6-2.5-.6-3.5-1.3-8.6-6.3-18.5-6-28.1-4.8-7.2 1-9.9 7.7-12.8 13.7-2.9 5.8-2.4 12.3-4.4 18.9zm31.5-117c-3.7-.3-5.3 2.5-7.8 3.7-2 1-2.2 2.5-1.8 3.9.7 2 2.7 1.7 4.2.9 2.8-1.4 5.5-3 8.9-2.7.6.1 1.6-.7 1.9-1.3.6-1.1-.3-2-1.1-2.4-1.4-.9-3.1-1.5-4.3-2.1zm-20.7 22.9c2.3-2.9 6.6-3.7 8.7-7.2.6-1 1.4-2.1.5-3.1-.8-1-2.3-.9-3.2-.4-2.8 1.3-5.5 2.7-8 4.5-1 .7-1.8 2.3-.6 3.9.7.8.9 2 2.6 2.3zm-25.9 34.1c-1.5-.5-3.1-1.2-3.4 1.2-.2 1.9 1.2 2.2 2.6 2.9 3.8 2 6.9-.6 10.3-1.3.7-.1.9-.8.9-1.5-.1-1.1-1-1-1.7-1.4-3-1.3-5.9-.3-8.7.1zM1802 1558c-.2.2-.6.4-.8.7-1.2 2 2.4 9.8 4.7 9.8 1.3 0 3-.5 3.1-2.5.1-1.4-5.3-8-7-8zm-8-12.5c.6-.4 1.2-.8 1.7-1.2.8-3.6.4-6.9-3.6-8.6-1.1-.5-2.5-1.8-3.5-.4-1 1.3-.5 2.7.6 4 1.6 2 3.1 4.2 4.8 6.2zm47.8 8.2c-.1-1.1-1-1.8-2.3-1.9-1.3-.1-6.4 6.1-6.4 7.7 0 1.4 1.3 1.6 2 1.7 1.7.3 6.8-5.4 6.7-7.5zm-73.1-27.9c-1.8.1-4.1-.5-4.5 1.9-.5 2.7 2.4 1.1 3.4 2.1.6.5 1.4.7 2.1 1.2 1.5 1.1 3.5 1.5 4.4-.1 1.1-1.8-.7-3.2-2-4.4-1-1-2.2-.6-3.4-.7z"/><path fill="#FEFEFE" d="M1768.3 1448.8c-6.6 0-5.8.1-5.1-6.9.9-8.3 4.1-16 5.2-24.3.8-6.4 1.4-14.2 9.1-17.9 2.5-1.2 1.3-3.5-.5-4.2-3.2-1.3-2.3-3.6-1.9-5.6 2.8-12.3 6.6-24.4 8.4-36.9 1.6-10.9 4.9-21.4 6.6-32.3.7-4.8 2.7-9.4 4.3-14 1.1-3.2.2-6.5 1.5-9.7 1.3-3.3 3-4.1 6-2.3 5 3 8.8 7.2 12.8 11.3 6.7 6.9 11.2 7.8 17.3 2.3 2.9-2.6 3.5-6.1 3.9-9.6 1.1-8.2 4.8-14.9 11-20.2 2.3-1.9 3.9-4.5 7.3-5.6 3-.9 3.7.2 3.7 2.4.4 13.9 2.6 27.8 2.3 41.8-.2 9.3 1.7 18.6 2.7 28 .2 2-.1 4.1-2.2 4.2-3.9.3-7.5 1.6-11.3 2.1-1.4.2-2.5.4-3.5 1.2-.9.7-2.1 1.5-1.5 2.8.7 1.4 2 1.8 3.4 1.1 3.7-1.9 7.7-1.6 11.7-1.7 2.3 0 3.4.4 3.7 3.2 1.7 15.2 2.6 30.6 4.2 45.8 1.6 16.4 2.9 32.8 4.9 49.1.3 2.4-.6 4.7.6 7.2.8 1.8-1.6 2.3-2.8 2.8-15.5 6.4-26.7 17.7-35.5 31.5-2.3 3.5-4 7.4-6.4 11-2.3 3.6-5.3 3.8-8.3 1.7-3.4-2.3-6.2-6.5-6.4-9.9-.3-6.6-3-12.3-5-18.3-2.9-8.6-8.2-15.8-15.6-21.1-7.3-5.3-14.9-9.7-24.6-9zm41.5-46.9c-.5 4.5 2.3 7 5.2 9.1 1.9 1.5 4.4 1.5 6.3-.1 1.6-1.3 0-3.3-.8-3.8-3.4-1.9-6-5.6-10.7-5.2zm-16.9-7.2c-1.8.5-3.9.7-4.6 2.9-.3 1 .7 1.9 1.7 2 3 .2 5.3 1.9 7.7 3.4 1.3.8 2.4.9 3.6-.2 1.2-1.2.1-2.1-.3-3.1-1.6-3.2-4.6-4.3-8.1-5zm23.1-18.1c-.7 2.6 1.1 3.8 2.9 3.4 4.2-.8.9-5 2.8-7.3.9-1-.4-2.1-1.8-2-3.5.5-3.4 3.4-3.9 5.9zm18.9-14c.3-2.8-1.1-3-2.4-2.8-2.5.5-4.8 1.6-5.8 4.1-.5 1.3 1.5 2.9 2.2 2.5 2.1-1.2 5.1-1.7 6-3.8zm-12.9 26.5c0-1.4-.2-3.1-1.8-3-1.6.1-2 1.9-2.1 3.4-.1 1.3.3 2.2 1.9 2.2 1.9.1 2.1-1.2 2-2.6z"/><path fill="#FEFEFE" d="M1810.5 1235.9c1.9 2.7 4.4 4.2 5.6 6.7.5 1 1.1 1.1 2 .9 1-.3 1.1-1.3.9-2-.9-4.4-1.2-9.1-5.6-11.8-2.6-1.6-1.7-4.4-1.1-6.2 3.1-8.7 3.7-18 6.7-26.6 2.1-6 3.7-12.2 11.2-14.2 5.2-1.4 11.3.3 15.1 4.6 2.5 2.9 3.7 6.4 5.4 9.6 1.1 2 .3 4.8-3 3.5-2.5-1-3 .4-3.5 1.9-.6 1.7.3 3.2 1.9 3.4 6.7.7 6.4 5.3 7.1 10.4 1.2 9.2 1.7 18.3 1.8 27.5 0 5 .8 9.9 1.3 14.8.3 3.6-.6 5.6-3.3 7.2-7.4 4.3-13.4 9.9-17.9 17.3-2.9 4.8-3.9 10-5 15.3-.5 2.6-1.3 5-3.7 6-2.7 1.1-5.2-.1-7.2-2.1-2.7-2.6-5.5-5-7.6-8.3-1.8-2.9-4.7-5.1-8.1-6.2-4.5-1.5-5.5-3.4-4-7.9 3.4-10.9 5.9-22 7.7-33.3.5-3.5 2.1-6.9 3.3-10.5zm15.2 1.2c1.9-1.4 3.7-2.7 4.6-5 .7-1.9 3.2-3.9.6-5.7-2.8-2-3.5.7-4.3 2.8-.3.6-1.6.9-1.8 1.5-.5 1.7-.8 3.5-.9 5.2-.1.3 1 .7 1.8 1.2zm6.3-23.5c.2 1.4-.3 3.7 2 3 2.8-.9 3.8-4 4.9-6.5.4-1.1-.9-2.5-2.1-2-2.6.8-5.1 2-4.8 5.5z"/><path fill="#12C416" d="M1807.8 1211.8c-4.9-4.2-8-9.2-10.3-15.5-3.3-9.4-.3-17 4.7-24.1 2.6-3.7 5.6-7.3 10.1-9.6 10.4-5.3 21.1-4.7 30.6.4 14.9 8 19.1 21.6 13.8 37.7-2.2-4.8-4.4-9.6-6.6-14.3-2-4.5-6.7-5.4-10.2-7.8-4.2-2.9-7.7-1.9-12.1-.5-8.7 2.7-12 8.8-14.1 16.9-1.3 5.7-2 11.9-5.9 16.8z"/><path fill="#FEFEFE" d="M1907.1 1019.3c2.4 2.4 4.6 5 3.5 9.8-1.4-3.8-2.4-6.8-3.5-9.8z"/><path fill="#62BEF3" d="M1868.1 1518.8c1.2.5 2.9 1.2 4.4 2.1.8.5 1.7 1.4 1.1 2.4-.4.6-1.3 1.3-1.9 1.3-3.4-.3-6.1 1.3-8.9 2.7-1.5.7-3.5 1.1-4.2-.9-.5-1.4-.3-2.9 1.8-3.9 2.4-1.2 4-3.9 7.7-3.7zM1847.4 1541.7c-1.7-.3-1.9-1.5-2.6-2.4-1.2-1.7-.3-3.2.6-3.9 2.5-1.8 5.2-3.2 8-4.5.9-.4 2.4-.5 3.2.4.9 1 .1 2.2-.5 3.1-2.1 3.6-6.4 4.3-8.7 7.3zM1821.5 1575.8c2.8-.4 5.7-1.4 8.7-.1.7.3 1.6.3 1.7 1.4.1.7-.1 1.4-.9 1.5-3.4.7-6.4 3.3-10.3 1.3-1.4-.7-2.8-1.1-2.6-2.9.3-2.4 1.9-1.7 3.4-1.2zM1802 1558c1.7 0 7.1 6.5 7 8-.1 2-1.8 2.5-3.1 2.5-2.3 0-6-7.8-4.7-9.8.2-.3.6-.5.8-.7zM1794 1545.5c-1.6-2.1-3.2-4.2-4.9-6.2-1.1-1.3-1.6-2.7-.6-4 1.1-1.4 2.4-.1 3.5.4 4.1 1.7 4.5 4.9 3.6 8.6-.5.4-1.1.8-1.6 1.2zM1841.8 1553.7c0 2.1-5.1 7.8-6.6 7.5-.8-.2-2-.3-2-1.7 0-1.6 5-7.7 6.4-7.7 1.3.1 2.1.8 2.2 1.9zM1768.8 1525.8c1.1.1 2.4-.3 3.3.7 1.3 1.2 3.1 2.6 2 4.4-.9 1.6-2.9 1.2-4.4.1-.7-.5-1.5-.7-2.1-1.2-1-.9-3.9.7-3.4-2.1.5-2.4 2.8-1.8 4.6-1.9zM1809.8 1401.9c4.7-.4 7.3 3.3 10.7 5.2.8.4 2.4 2.4.8 3.8-1.9 1.6-4.4 1.6-6.3.1-2.9-2.2-5.7-4.6-5.2-9.1zM1792.9 1394.7c3.4.7 6.5 1.7 8.1 5.1.4.9 1.5 1.9.3 3.1-1.2 1.1-2.3 1-3.6.2-2.4-1.5-4.7-3.2-7.7-3.4-1-.1-2.1-1-1.7-2 .7-2.2 2.8-2.5 4.6-3zM1816 1376.6c.4-2.5.3-5.4 3.9-5.8 1.4-.2 2.7 1 1.8 2-1.9 2.2 1.4 6.5-2.8 7.3-1.8.3-3.5-.9-2.9-3.5zM1834.9 1362.6c-.9 2.1-3.8 2.6-6 3.9-.7.4-2.7-1.2-2.2-2.5 1-2.4 3.3-3.6 5.8-4.1 1.3-.3 2.7-.1 2.4 2.7zM1822 1389.1c.1 1.4-.1 2.7-2 2.6-1.6 0-2-.9-1.9-2.2.2-1.5.5-3.3 2.1-3.4 1.6-.1 1.8 1.6 1.8 3zM1825.7 1237.1c-.9-.5-1.9-.9-1.9-1.2.2-1.8.4-3.6.9-5.2.2-.6 1.6-.8 1.8-1.5.8-2.1 1.5-4.7 4.3-2.8 2.6 1.8.1 3.8-.6 5.7-.8 2.3-2.6 3.6-4.5 5zM1832 1213.6c-.3-3.5 2.2-4.6 4.7-5.5 1.2-.4 2.5 1 2.1 2-1 2.6-2 5.6-4.9 6.5-2.1.7-1.7-1.7-1.9-3z"/></svg>