<?xml version="1.0" encoding="utf-8"?>
<!-- Generator: Adobe Illustrator 19.0.0, SVG Export Plug-In . SVG Version: 6.00 Build 0)  -->
<svg version="1.1" id="Layer_1" xmlns="http://www.w3.org/2000/svg" xmlns:xlink="http://www.w3.org/1999/xlink" x="0px" y="0px"
	 viewBox="0 0 2635.8 2173.4" style="enable-background:new 0 0 2635.8 2173.4;" xml:space="preserve">
<style type="text/css">
	.st0{fill:#0C0C0C;}
	.st1{fill:#FFFFFF;}
	.st2{fill:#FEFEFE;}
	.st3{fill:#0E0E0E;}
	.st4{fill:#0D0D0D;}
	.st5{fill:#101010;}
	.st6{fill:#FCFCFC;}
	.st7{fill:#FBFBFB;}
	.st8{fill:#D7D7D7;}
	.st9{fill:#F9F9F9;}
	.st10{fill:#F2F2F2;}
	.st11{fill:#111111;}
	.st12{fill:#131313;}
	.st13{fill:#191919;}
</style>
<g>
	<path class="st0" d="M981.6,2001.2c4.9-0.9,8.6-4.1,11.9-7c10.4-9.3,22.4-16.7,31.8-27.2c6.8-7.6,16.1-10.1,25.5-12.4
		c6.9-1.6,12.8,0.4,18.9,3.8c19.8,11.2,29.7,29.4,36.9,49.8c6.1,17.3,9.4,35.3,12.1,53.2c2.7,17.4,2.4,35.2,0.9,52.8
		c-0.2,2.5-1.6,4.1-3.3,5.8c-8.9,9.1-18.7,16.8-30.5,21.9c-14.9,6.4-29.7,13.3-45.6,17.2c-9.3,2.3-18.7,4.4-28.1,5.9
		c-28.7,4.7-57.6,8.6-86.8,8.3c-22.9-0.3-45.7-0.7-68.5-1.5c-26.4-0.9-52-6.6-78-9.5c-11.3-1.3-22.7-4.2-32-12.1
		c-4.6-3.9-6.3-8.1-4.2-13c7.6-17.7,11.3-36.7,18.3-54.6c5.6-14.3,7.8-29.4,9.3-44.7c1.2-12.5,2.3-25.1,3-37.7
		c1.5-29.3-2.7-57.6-16.3-83.9c-0.9-1.8-1.8-3.6-2.7-5.3c-8.3-16.7-4.1-14.1-23.1-15.1c-20.4-1.1-40.1-5.1-60.1-8.1
		c-24.2-3.6-48.4-7.6-72.5-12.1c-20.9-3.9-41.2-10-61.4-16.5c-11.4-3.7-22.2-8.6-33.1-13.5c-9.3-4.2-19.7-5.9-28.3-12
		c-3.4-2.4-6-0.2-8.3,2.8c-6.3,8.6-12.5,17.2-19.3,25.3c-10,12-21.1,23-31.4,34.6c-15,16.7-33,28.8-51.2,40.8
		c-14.7,9.7-31.4,15.3-49.2,17.6c-14.7,1.9-29.6,2.7-44.6,4.4c1.8,17.2,10.5,28.5,26.1,34.6c4.3,1.7,8.4,4.2,12.8,5.4
		c15.4,4.3,19.9,22.9,18.8,34.8c-1.6,17.6-10.8,30.9-25.6,40.4c-1.1,0.7-2.4,1.2-3.7,1.5c-15.3,3.8-30.8,6.9-46.5,8.7
		c-32.4,3.8-64.9,5-97.4,3.7c-15.5-0.6-31.4,0-46.2-5.9c-10.7-4.2-20.9-8.9-28.3-18.8c-14-18.7-23.9-38.9-26.2-62.4
		c-0.1-1.3-0.5-2.6-1-3.9c-5.6-17-5.9-34.8-5.8-52.2c0-19.8,1.2-39.7,6.6-59.1c3.8-13.8,5-28.1,8.2-42c4.6-20.5,10.4-40.4,19.6-59.4
		c3.5-7.2,9.3-11.9,15.2-16.8c2.8-2.3,5.6-0.9,8.5-0.1c10.3,2.7,20.6,5.2,31.4,4.7c26.5-1.1,51-7.7,71.5-25.5
		c9.7-8.5,20.8-15.6,27.7-26.9c0.7-1.1,1.7-2.1,2.3-3.2c5.4-9.5,5.3-9.5-3.5-16.4c-3.4-2.6-6.6-5.5-9.7-8.6
		c-11-11.1-23.2-20.8-34.8-31.1c-4.2-3.7-6.5-9.2-10.5-13.3c-22.4-22.7-43.3-46.8-60.6-73.5c-7-10.8-17-19.6-21.1-32.4
		c-1-3.2-4.6-5.6-6.8-8.5c-6-8-10.5-16.7-14.6-25.9c-8.7-19.6-18.8-38.6-27.5-58.2c-5-11.4-8.6-23.5-12.2-35.5
		c-7-23.5-15.3-46.8-19.2-71.1c-1.8-11.2-6.7-21.5-8-32.7c-2.5-23.1-7.4-45.9-7.8-69.2c-0.1-7.6-1-15.2-2-22.8
		c-1.9-15.2-1.5-30.5-1.1-45.7c0.6-24.3-0.4-48.7,1.7-73c0.7-8.5,2.8-16.9,4.1-25.4c2.2-13.8,4.2-27.6,6.4-41.4
		c2.6-16.7,8.1-32.8,12.2-49.2c4-16.1,8.3-32.1,12.8-48.1c3.4-12.2,8.6-23.7,13.7-35.3c2.1-4.9,4.3-9.7,6.3-14.6
		c10-24.6,21.3-48.5,35.6-71c5.7-8.9,11.1-18,15.3-27.9c4-9.5,10.5-17.6,16.3-26.2c6.9-10.2,14.5-19.8,21.4-30
		c3.9-5.9,8.1-11.1,13.9-15.4c5-3.6,7.6-9.9,11-15c12.3-18.9,28.3-34.3,44.5-49.5c19.6-18.4,39.2-36.7,59.7-54.1
		c17.5-14.9,36.3-27.8,55.1-40.9c11.1-7.7,22.3-15.6,33.7-22.8c6.1-3.9,13.1-6.4,19.6-9.8c11.7-6.3,23.2-12.7,34.8-19.2
		c15.4-8.6,32.8-12.5,48.7-19.9c24.9-11.5,51.4-17.8,77.8-24c25-5.9,50.4-10.1,75.8-14.4c24.6-4.1,49.3-6.2,74.1-8.4
		c16.8-1.5,33.8-3.2,50.6-3.1c16.6,0.1,33.2,1.4,49.7,1.4c42.8,0.1,84.5,7.3,126,17c12.3,2.9,24.8,4.7,37.1,7.4
		c7.1,1.5,14.1,4,20.9,6.4c37.4,13.6,75.6,25.4,110.8,44.1c18.4,9.8,36.8,19.8,54.2,31.5c13.9,9.2,26.7,19.5,39.7,29.8
		c5,3.9,10.4,4.4,16.5,5c18.5,2,36.7,5.5,54.2,12.1c12.1,4.6,24,9.6,36,14.3c10.5,4,17.9,12.5,26.9,18.6c6.3,4.2,12,9.1,20.3,11.6
		c1.1-15,0.9-29.2,0.2-43.3c-0.7-13.6,0-27.2-1.4-40.9c-0.9-8.5,1.2-17.2,1-25.8c-1-44.5-0.8-89.1-2.3-133.6
		c-1-31.3-0.5-62.5-1.8-93.8c-0.8-18.6,0.5-37,0.8-55.5c0.2-15.8,0.4-31.8,1.6-47.6c1-12.9,4.4-25.4,10-37.2
		c13-27.7,34.5-46.8,60.6-62.1c22.8-13.4,46.6-24,71.2-33c14.9-5.5,29.4-11.8,44.8-16.1c5.1-1.4,10.2-2.9,15.4-3.9
		c21.8-4.3,43.5-9.2,65.2-13.4c12.4-2.4,24.9-3.9,37.4-5.8c1.6-0.2,3.4,0.1,5-0.4c21.7-7.2,44.4-7.1,66.7-9.3
		c19.1-1.9,38.4-2,57.6-3.2c21.8-1.4,43.6-3.2,65.5-4.6c10.3-0.6,20.7-1.1,31-0.7c25.7,0.8,51.2-2,76.8-2.6
		c16.3-0.4,32.4,1,48.6,1.4c9.2,0.3,18.3,0.8,27.6,0.1c9.1-0.7,18.5,0.8,27.7,1.8c15.8,1.8,31.7,3.1,47.6,4
		c18.8,1.1,37.5,3.6,56.2,6.9c23.4,4.1,46.8,8.2,70.6,10.4c29.8,2.8,58.6,10.7,87.4,18.3c5.8,1.5,11.8,1.8,17.6,3
		c16.6,3.4,32.3,9.6,48.3,15c5.7,1.9,11.4,3.7,17.2,5.2c25.7,6.5,50.6,15.5,75.7,24.1c20.1,6.9,40.5,13,60.4,20.2
		c10.3,3.7,20.2,8.2,29.9,13.5c8.7,4.7,17.9,8.5,26.8,12.8c5.4,2.6,10.8,5.2,15.9,8.2c4,2.3,8.1,4.4,12.3,6.3
		c15,6.9,20.8,19.7,21.4,35.5c0.6,18.5,1.2,36.9,1.4,55.4c0.1,6.3-1,12.6-1.2,18.8c-0.3,11,2.2,21.8,1.3,32.8
		c-2.8,32.6-1.7,65.2-1,97.8c0.6,27.9,1.9,55.9,0.4,83.7c-1.2,20.9-0.5,41.8-2.4,62.7c-1.3,13.5,0.1,27.2-0.3,40.8
		c-1.7,56.5-2.2,113.1-2.9,169.6c-0.2,16.8-1,33.7-2.3,50.6c-1.1,14.4-0.7,29.1-1.7,43.6c-2.6,35.3-0.5,70.5-1.4,105.8
		c-0.8,32.2-2.2,64.5-2.9,96.7c-0.4,20.5-1.4,41.2-1.7,61.7c-0.4,26.2-3.1,52.3-2.4,78.5c0.3,9.9,1.2,19.9,0.6,29.8
		c-2,32.5-1,65.1-2.8,97.6c-2.1,38.9-0.5,77.9-0.4,116.8c0,18.2-1.3,36.4-1.8,54.7c-0.4,14.6,1.4,29.2,1.2,43.8
		c-0.4,24.9-1,49.9-2.7,74.8c-0.8,12.3,0,24.5-0.7,36.7c-1.4,27-2.7,54-3.7,81c-0.5,13.6-0.4,27.3-0.6,40.9
		c-0.2,13.3,1,26.8-0.8,39.9c-3,20.7-2.7,41.7-5.4,62.4c-1.2,9.2-1,18.5-3.7,27.5c-0.6,1.9-0.5,4.1-2.3,5.2
		c-8.4,5.1-15.3,12.1-23.9,17.3c-23.4,14-47.9,25.7-72.4,37.5c-25.7,12.4-51.8,23.6-79,32.6c-22.9,7.6-45.2,17.1-67.8,25.6
		c-13.4,5-27.1,8.7-41.1,11.6c-11.1,2.3-21.8,5.9-32.7,8.6c-16.8,4.2-33.7,6.9-50.7,9.5c-23.9,3.7-47.8,7.1-72,8.2
		c-9.6,0.5-19.1,2.2-28.6,3.2c-13.6,1.5-27.2-0.4-40.9,0.6c-41.5,2.9-83.1,1.9-124.7,2.1c-19.3,0.1-38.7,0.6-57.9-0.9
		c-16.9-1.4-33.9-1.2-50.8-2.8c-16.9-1.7-33.8-2.6-50.8-2.7c-16.4-0.1-32.4-2.1-48.5-4.5c-9.5-1.4-19.1-2.1-28.7-2.9
		c-17.2-1.4-34.4-2.8-51.6-3.9c-12.7-0.8-24.9-4-37.3-6.1c-18.6-3.1-37.5-5.1-56.1-8.4c-17-3-34-5.6-50.7-10.2
		c-19.8-5.4-39.9-10.1-59.2-16.8c-15.3-5.3-31.5-8.4-46.2-15.3c-20-9.5-40.6-18-58.7-31.3c-14.1-10.5-19.2-24.8-19.5-41.6
		c-0.4-18.6-1.8-37.1-3.7-55.6c-0.9-8.9-0.4-18-0.5-26.9c-0.6-34.2-3-68.4-4.3-102.6c-0.9-23.2-1.1-46.5-3.5-69.7
		c-0.1-1.2,0.2-2.7-1.8-4.1c-6.8,4.4-10.6,12-16.1,17.8c-18.3,19.2-36,38.9-55.9,56.6c-13,11.5-27.3,21.2-40.2,32.5
		c-18.3,16.1-39.7,27.8-59,42.4c-8.9,6.8-19.7,11-29.8,16.1c-12.4,6.3-24.7,12.4-36.7,19.5c-14.8,8.7-30.7,15.8-46.9,21.6
		c-2.8,1-5.6,2.2-8.4,3.1c-2.9,1-3.6,2.7-3.9,5.9c-2.4,24.8-4.2,49.7-13.4,73.2c-2.4,6.2-4.9,12.3-9.7,17.1c-3.8,3.8-5.2,9-8.1,13.4
		c-6.7,10.3-14.2,20-20.6,30.5C980.9,1997.7,980.2,1998.9,981.6,2001.2z M1749,1176.3c5.8-3.3,12.2-5.2,18.3-7.7
		c7.4-3,15.7-3.2,23.5-0.8c8.7,2.7,13.5,9.4,15.4,18.1c2.3,10.4-3.3,17.6-11.4,22.3c-18.5,10.8-30,27.7-41.3,45
		c-2.7,4.1-3.6,8.6-3.8,13.2c-0.2,5.7-0.1,11.3,0,17c0.3,16,0.4,31.8-3.7,47.5c-6.3,23.7-20.5,41.2-40.8,53.9
		c-6.3,3.9-10.8,8.7-13.1,15.6c-1.9,5.7-3.7,11.5-7.3,16.3c-14.1,18.8-25.2,39.6-43.4,55.6c-11.6,10.3-21.8,22.1-34.9,30.9
		c-15.3,10.3-29.7,21.6-47,29.1c-29.6,12.7-59.1,25.3-91.3,30.3c-26.6,4.1-53.1,8.6-80.1,7.6c-5.2-0.2-6.4,3.1-7.6,6.3
		c-3.3,8.4-7.9,16.3-13.5,23.2c-4.8,6-8.7,12.6-13.7,18.3c-5.1,5.8-6,12.5-5.7,19.5c0.8,19.9,1.4,39.7,0.8,59.6
		c-0.6,17.5,0.2,35,1.3,52.5c0.9,14.6,0.4,29.2,1.5,43.8c2.2,29.5,3,59,4.2,88.6c0.4,9.6,0.1,19.3,0.8,28.9
		c0.4,5.8-1.3,12.5,3.4,17.1c5.4,5.3,10.1,11.6,17,15.3c8.8,4.7,17.7,9.1,26.5,13.7c12.4,6.5,26.1,9.9,38.7,15.6
		c15.9,7.2,32.4,11.9,48.9,16.5c19.1,5.4,38.6,9.3,58.2,12.9c17.6,3.3,34.6,8.9,52.3,11.8c10.8,1.7,21.7,2.5,32.5,4.3
		c25.1,4.3,50.6,6.3,75.8,10.1c19.6,2.9,39.7,3.7,59.5,4.8c23.5,1.3,46.9,3.2,70.4,4.2c18.5,0.8,37,2.8,55.5,3.3
		c28.6,0.7,57.2,0.7,85.8,0.8c44.9,0,89.7,0.2,134.5-3.8c25.1-2.2,50.3-3.5,75.3-6.7c20.4-2.6,40.9-4.6,61.2-7.9
		c7.4-1.2,7.6-1.3,7.5-8.7c-0.1-15.2-0.2-30.5-1.1-45.7c-1.2-19.5-0.8-39.1-2.4-58.7c-1.4-17.8-3.1-35.8-1.8-53.8
		c1.6-22.9-0.7-45.8,0-68.7c0.7-18.8,1.1-37.7,0.3-56.5c-1.1-29.2,0.1-58.4,0-87.6c-0.1-9.8-0.3-19.7-1.3-29.2
		c-1.8-17.3-1.7-34.5-1.1-51.6c0.5-12.4,0.4-24.9,0.5-37.3c0.3-42.2-0.9-84.5-0.9-126.7c0-25.2,1.2-50.4,0-75.6
		c-0.4-8.6-1.2-17.2-0.8-25.8c1.1-24.3,0.7-48.5,0.7-72.8c0-23-0.5-45.9,0.1-68.9c0.4-15.1,0.6-30.3,0.6-45.4
		c0-17.4-1-34.9,2.1-52.1c1.1-5.9,1.4-11.8,1.3-17.8c0-14.6-0.4-29.3,0.7-43.9c1.3-16.9,1.2-33.8,1.1-50.8c0-13-1-26.1,0.4-38.9
		c2.4-22.2,2.2-44.5,3.2-66.7c1.7-36.5,1.8-73.1,2.2-109.7c0.3-23.2-0.1-46.4-0.4-69.5c-0.2-15.3-0.3-30.5,0.9-45.7
		c2.3-29.8,1.3-59.8,3.6-89.6c0.4-4.7-1.4-9-1-13.8c1.9-24.8,2-49.7,2.6-74.5c0.7-30.5,1.4-61,1.4-91.6c0-25.2,2-50.4,3.4-75.6
		c0.8-14.3-0.9-28.6-0.2-42.9c1.4-28.3,1.1-56.6-2.5-84.7c-0.9-7,0.3-14-1.4-20.8c-5.8-22.1-15.2-42.3-29.3-60.4
		c-2.2-2.9-4.1-6-6.3-8.9c-1.1-1.5-1.6-3-0.3-4.4c1.7-1.8,3.8-1.3,5.5-0.2c1.3,0.9,2.2,2.4,3.1,3.8c4.2,6.3,8.8,12.5,13.7,18.3
		c5.2,6.1,9.1,13,12,20.5c9.1,23.2,13.2,47.2,13.5,72c0.2,16,0,32,0.3,47.9c0.6,31.2-0.9,62.4-1.1,93.5c-0.1,21.8-1.6,43.7-1.4,65.6
		c0.2,23.9-1.6,47.7-2.3,71.6c-0.3,10.9,0.2,22-1.6,32.8c-1.4,8.6-1,17-0.5,25.6c0.7,12.3,1.2,24.7,0.1,36.9
		c-1.9,20.9-1.5,41.8-2.5,62.7c-0.7,15.5-0.5,31.2-0.9,46.7c-0.6,24.2,0.2,48.4-1.2,72.5c-1,17.4,0.6,34.9,0,52.4
		c-1.4,42.5-1.7,84.9-4.2,127.4c-1.3,21.8-1.4,43.8-1.9,65.7c-0.9,34.9-0.3,69.9-2,104.8c-1.3,27.6-0.7,55.3-0.9,82.9
		c-0.1,8.7,0.2,17.3-0.1,26c-0.9,20.5-2.2,40.9-2,61.4c0.5,50.6,0.5,101.2,0.7,151.8c0.1,21.9-0.5,43.8,0.9,65.7
		c0.4,6.8,1,13.8,0.1,20.8c-1.6,12.5-1.4,25.1-0.6,37.6c0.6,9.9,1.1,19.8,1.2,29.8c0.4,26.8-2.3,53.6-0.6,80.5
		c2.7,42.9,1,85.9,0.6,128.8c-0.3,26.5,0.6,53,1.3,79.5c0.9,30.5,0.1,61.1,2.1,91.7c1.4,21.8,0.1,43.7,0.5,65.5
		c0.2,9.2,1.5,18.4,2.4,28c6-0.9,11.1-1.8,16.3-3c17.8-4.1,34.3-12.2,52-16.9c30.8-8.3,60-20.9,89.5-32.7c16-6.4,32.6-11.7,48-19.2
		c22.1-10.7,44.5-20.6,66.5-31.6c12.7-6.3,24.5-14.5,36.5-22.2c6.7-4.3,9.9-10.3,11.1-18.8c2.2-15.5,1.5-31,3.7-46.5
		c3.5-24.6,3.9-49.7,4-74.6c0-6.1-1.8-11.8-1.5-17.8c0.6-14.5,0-28.9,2.7-43.5c2.6-14.1,2.3-29.1,2.4-43.7
		c0.2-20.9,1.1-41.8,0.7-62.8c-0.5-20.5,2.1-41,1.6-61.6c-0.4-14.9-1.1-29.9-0.6-44.8c1.2-32.8,2-65.6,1.2-98.4
		c-0.6-24.9,0.6-49.8,1.5-74.7c0.8-22,0.9-44,0.8-65.9c-0.1-15.5,2.5-31.1-0.2-46.6c-1.6-9.3,1.6-18.4,1.4-27.8
		c-0.3-13.6,0-27.3,1-40.9c1.7-23.8,0.5-47.7,3.2-71.5c1.9-16.4,0.5-33.1,1.8-49.8c1.7-20.8,2.1-41.9,1.9-62.9
		c-0.3-34.9-1.2-69.9,0.8-104.8c1.5-25.9,1.7-51.8,3.9-77.6c1.5-17,0.7-33.9,1.5-50.9c1-21.2,1.9-42.5,2.1-63.8
		c0.3-28.9-0.3-57.7,1.2-86.6c1.3-25.2,0.5-50.5,2-75.8c1.4-24.9,0.1-49.9,0.6-74.8c0.4-23.9-0.3-47.9,0.2-71.8
		c0.5-28.6-0.3-57.1-1.2-85.7c-0.5-17.2,0.8-34.4,0.6-51.6c-0.1-10-2-19.2-10.5-25.7c-8.6-6.7-17.2-13.6-27.2-18.1
		c-17.3-7.7-34.5-15.5-52.1-22.3c-15.1-5.9-28.9-14.5-44.4-19.6c-10.1-3.3-20-7-30.2-10c-13.6-4.1-26.9-9.4-40.4-13.8
		c-32.5-10.6-65.6-19.4-99-26.9c-14.8-3.4-28.7-9.7-43.8-12.3c-11.7-2-23.6-3.5-35.2-6.7c-9.9-2.7-19.9-5.3-30-7
		c-7.2-1.3-14.5-1.4-21.7-3c-10-2.2-20.2-4.1-30.3-5.5c-24.6-3.2-49.4-4.9-74-8.5c-20-2.9-40.2-4.4-60.4-5.2
		c-29.9-1-59.8-0.8-89.7-1.2c-39.9-0.6-79.8,1.5-119.6,3.7c-22.2,1.2-44.2,4.1-66.4,5.5c-11.9,0.8-23.8,2.1-35.7,2.6
		c-23.3,1-46.4,4.3-69.4,7.4c-27.2,3.7-54.1,10-81,15.5c-10.7,2.2-21.7,3.6-31.9,7.8c-8,3.3-16.2,5.8-24.4,8.4
		c-18,5.6-36.4,10.4-53.5,18.8c-6.8,3.3-13.2,7.6-20.3,10.1c-19.6,7.1-36.7,18.2-51.7,32.4c-5.8,5.5-10.6,12-16.5,17.3
		c-7.9,7.1-11.4,16.6-14,26c-5.7,20.6-5.7,41.9-5.8,63.2c-0.1,7.5,0.4,15.1,0.3,22.6c-0.3,28.3-0.8,56.5-1,84.8
		c-0.2,19.9,1.4,39.8,0.7,59.7c-0.3,9.5-0.6,19.1,0.1,28.6c2.2,30.1,3.1,60.2,3,90.4c-0.1,18.2,0.1,36.4-0.4,54.7
		c-0.6,22.2,0.9,44.5,1,66.8c0,5.7,2.1,9.5,6.2,12.8c6.5,5.2,12.3,11.1,17.9,17.2c1.9,2.1,3.8,4.4,7,5.1c2.8-4.7,2.5-9.2,1.3-13.8
		c-0.4-1.6-0.4-3.4,1.3-4.3c1.6-0.9,3.2-0.3,4.7,0.4c2.2,1.1,4.2,2.7,4.5,5.1c0.9,6.5,4.3,13.1,1.8,19.6c-2.9,7.6,0.1,13.3,4.9,17.9
		c15.5,14.9,23.9,34.2,33.4,52.7c3.2,6.2,6.7,11.5,12.2,15.4c8.7,6.3,15.4,14.1,21.9,22.8c11.4,15.3,12.8,32.4,12,50.1
		c-0.3,6.1-2.4,12.7-7,17.3c-5,5-5.1,10.6-4,16.6c0.6,3.3,1.4,6.4,1.4,9.8c-0.1,12.9,1.4,26-0.5,38.6c-2,13.8-1.3,25.9,4.6,39.1
		c7.4,16.9,11,35.4,14.9,53.6c1.1,5.2,3,10.2,3.4,15.5c1.3,14.5,4.4,28.8,5.3,43.3c1,16.6,5.5,32.8,5.1,49.5c-0.1,5-0.5,10,0.2,14.9
		c1.9,14.6,1.7,29.4,0.5,43.8c-1.5,16.8-3.3,33.7-5.2,50.5c-4,36.7-10.5,72.9-20.1,108.5c-2.1,7.8-4.6,15.4-6.9,23
		c2.3,1.4,4.3,1.1,6.3,0.6c9.1-2.3,17.5-6,25.5-10.9c12.7-7.7,22.5-18.6,32.9-28.7c11.9-11.5,21.7-24.6,24.6-41.3
		c2.2-12.8,6.4-26-2.1-38.5c-3-4.4-6.3-8.5-10-12.4c-5.9-6.3-12.2-12.1-17-19.5c-8.1-12.2-7.9-19.2,3-29.4c1-0.9,1.9-1.9,2.9-2.7
		c12.3-9.5,21.3-13.1,34-4.4c1.4,0.9,2.9,1.7,4.4,2.4c6.4,3.1,7.3,2.9,8.1-4c2.3-21.9,13.9-39.9,23.9-58.6c1.2-2.3,2.8-4.8,4.8-6.3
		c10-7.7,17.9-17.7,28.3-25c9.7-6.8,19.9-11.7,32.4-10.6c12.8,1.1,19.2,9.5,23.8,19.9c3.6,8.2-0.7,14.7-5.8,20.8
		c-4,4.8-7.5,9.8-9.6,17.5c7.4-3.1,11.4-7.7,15.7-12.1c16.7-16.9,40.9-27.1,67-16c10.8,4.6,13.8,13.6,15.7,23.6
		c1.6,8.4-2.4,13.9-9.1,19.2c-9.8,7.8-19,16.6-23.2,29.1c-0.4,0.5-1.1,1.1-1,1.3C1747.2,1177.2,1748.1,1176.9,1749,1176.3z
		 M1361.1,1568.1c-3.3-0.7-4.9-1.2-6.6-1.4c-19.5-2.3-38.6-6.4-57.6-11.2c-20.7-5.2-40-14-59.3-22.6c-10.9-4.8-22.2-9.2-30.9-17.9
		c-2.3-2.3-7.1-4.7-3.4-8.7c3-3.3,6.2,0.4,8.6,2.2c12.4,9.2,26.5,15,40.7,20.6c13,5.1,26.6,8.6,39.4,13.7c16.8,6.8,34.8,8,51.9,13.4
		c5,1.6,10.4,1.9,15.7,2.3c20.6,1.5,41.3,0,61.9,0.4c15.8,0.3,30.5-6.1,46.2-7c4.2-0.2,8.5-1.2,12.7-2.1c17.3-3.8,33.3-11,49.9-17
		c21.1-7.6,40-19.6,59-30.9c14.7-8.7,27.7-20.1,39.9-32.5c13.4-13.5,25.5-27.8,35.2-44.1c7.8-12.9,11.9-27.4,17.5-41.3
		c0.9-2.2,0.9-4.4,3.9-4.9c14.2-2.2,22.6-13.1,32.6-21.7c7.4-6.3,11.8-14.9,14.8-23.2c6-16.3,8-33.5,5.6-51
		c-1.8-13.4-0.7-26.3,6.3-38.5c7.8-13.5,17.8-24.9,31.2-32.8c6.4-3.8,11.6-8.6,16.8-13.7c1.2-1.2,2.4-2.1,2.4-4
		c0.1-7.2-3-13-8.5-17.2c-4.7-3.7-10.2-2.7-15,0.2c-8.8,5.3-19.3,7.4-27.3,14.3c-2.8,2.4-7.4,2.6-10.3,0.2c-2.3-1.9-3.8-4.9-3.5-8.8
		c0.8-13.1,8-22.8,16-32.2c6.1-7.1,14.7-11.2,21-18.2c3.9-4.3,4.2-7.8,0.8-12.3c-4.6-6.1-10.6-10.5-18-11.2
		c-14.7-1.4-28.2,1.5-39.6,12.2c-12.7,11.8-25.6,23.2-36.4,36.8c-1.6,2-3.2,3.5-5.8,3.1c-2.9-0.5-3.1-3.1-3.7-5.3
		c-1.6-5.9-1.4-11.8-0.3-17.8c2.4-12.4,8.8-22.7,16.8-32.3c5.1-6.1,4.3-10.6-2.6-13.9c-10.6-5.2-21.3-6.7-31.7,1.2
		c-10.2,7.6-19.5,16.2-28.1,25.4c-10.3,11.1-18.2,24-21.3,39c-2.9,14.3-5.6,28.7-4.3,43.5c0.1,1,0.1,2,0,3c-0.2,2-0.4,4.1-2.8,4.8
		c-2.1,0.6-3.9,0.2-5.3-1.7c-0.8-1.1-1.4-2.3-2.3-3.2c-6.7-6.3-12.4-13.8-21.4-17.4c-8.9-3.5-14-2-19.6,6.1
		c-4.8,6.9-4.4,11.6,1.7,18.6c1.3,1.5,2.8,2.8,4.2,4.2c5.7,5.6,11.5,11.1,17,16.8c5.5,5.6,8.8,12.4,10.4,20.1
		c3.6,17.7,0.6,34.3-8.6,49.8c-5.1,8.7-11.9,16-17.7,24.1c-18.3,25.1-42.6,41.2-72.3,49.7c-14.6,4.2-29.6,4.7-44.3,1.6
		c-12.6-2.6-24.6-7.6-36.4-12.7c-25.4-11-45-28.9-59.4-52.3c-5-8.1-9-17-13-25.7c-2.5-5.5-4.1-11.4-0.8-17.3c1.3-2.3,2.6-4.9,6.1-4
		c3.2,0.8,2.3,3.4,2.5,5.6c1.6,12.7,5.7,24.5,12.7,35.2c7.9,12,19.1,21.1,29.5,30.9c19.5,18.5,43.6,25.9,69.6,27.9
		c12.6,1,10.9,2.5,16.2-10.8c0.6-1.5,1.1-3.1,1.5-4.7c4.2-18.1,8.7-36.1,14.3-53.9c4.1-13.1,5.4-26.6,7.4-40.1
		c3.8-24.6,7.6-49.3,7.7-74.2c0-28.8-0.9-57.7-1.5-86.5c-0.1-6.6,0.2-13.2-1.1-19.8c-5.8-29.9-10.1-60.1-19.7-89.1
		c-3-9.1-5.4-18.4-9.1-27.4c-3.2-7.7-5.5-15.7-3.8-24.2c4.7-24.5,2.3-49-0.4-73.4c-0.5-4.1,0-6.7,2.8-9.7
		c8.8-9.1,10.8-20.1,8.6-32.3c-2.1-11.4-6.9-21.6-13.1-31c-4.2-6.5-8.6-13.9-16.6-16.6c-5.9-2-8.8-6.1-11.6-11.3
		c-10.1-19-19.7-38.4-34.8-54.3c-3.5-3.7-5.3-4-8.3-0.1c-7.4,9.6-18.5,13.7-28.5,19.6c-2.3,1.4-5,1.9-7.7,1.8
		c-1.4-0.1-2.7-0.2-3.2-1.7c-0.7-1.9,0.2-3.2,1.8-4c4.4-2.3,8.8-4.7,13.2-6.9c8.1-4,13.7-10.1,16.9-18.7c1.5-4,1.4-6.8-1.7-9.8
		c-4.8-4.6-9.8-9.1-13.9-14.3c-12.1-14.9-27.4-26.3-43.5-35.9c-17.6-10.4-35.1-21.1-54-29.3c-19.7-8.6-40-14.6-61.5-15.2
		c-8.5-0.2-16.9,2.5-21.2-7.9c-0.2-0.5-1.1-0.8-1.6-1.1c-16.9-12.2-33.5-25-50.9-36.4c-22.4-14.7-46.4-26.8-71-37.5
		c-29.8-13-60.6-23.3-91.6-32.8c-17.7-5.4-35.8-9.7-54.2-12.9c-16.3-2.8-32.5-6.2-49-8.3c-21.7-2.7-43.5-5.6-65.3-6.5
		c-15.3-0.6-30.5,0.2-45.8,0.8c-18.3,0.8-36.6,1.4-54.8,3.1c-15.2,1.4-30.4,2-45.6,3.5c-17.8,1.8-35.6,3.8-53.3,6.6
		c-11.5,1.8-22.8,4.6-34.1,7.2c-11.6,2.7-23.7,4.3-34.6,8.8c-18.4,7.6-37.8,12.1-56.2,19.8c-13.1,5.5-27.3,9.1-39.2,16.4
		c-16.2,9.9-33.2,18.3-50.1,26.6c-17,8.3-33.1,18.3-48.6,28.8c-19.7,13.4-37.7,29.3-56.2,44.5c-13.3,11-25.9,22.9-39.2,33.8
		c-15.8,12.9-28.3,28.9-41.6,44.1c-12.8,14.8-23.5,31.4-36.4,46.2c-16.3,18.7-29,39.7-41.2,60.9c-8.9,15.4-17.9,31-26.5,46.6
		c-17.7,32.1-30.7,66.2-43.2,100.5c-10.2,28-18,56.9-22.1,86.6c-2.4,17.7-6.7,35.2-7.9,53c-1.3,18.8-4.2,37.6-2.6,56.6
		c0.6,7.7-2.6,14.9-2.1,22.7c1.2,19.2-0.6,38.4,2.1,57.6c2.2,15.7,2.7,31.7,4.2,47.5c0.9,9.9,3.9,19.5,5.2,29.3
		c4.6,35.7,14.7,70.1,25,104.3c7.2,24.1,16.7,47.5,27.8,70.3c2.3,4.8,3.7,10.1,7.5,14c5.3,5.4,8.4,12.1,11.3,18.7
		c7.5,17.1,17,32.9,28.1,47.9c9.2,12.6,17.9,25.6,27.7,37.7c18.3,22.8,38,44.3,58.2,65.4c1.4,1.4,2.6,2.9,4.2,4.1
		c10,7.7,19.8,15.5,29.6,23.4c3.6,2.9,7.1,5.9,11.1,8.3c8.8,5.3,9,9,2.9,17.6c-13,18.2-28.2,34.3-45.4,48.5
		c-14.8,12.3-32,20.8-50.3,25.3c-19.1,4.6-39,4.6-58-2.4c-4.8-1.8-7.9-0.9-9.8,3.3c-4.7,9.9-10.5,19.3-13.4,29.9
		c-5.9,21.8-11.4,43.5-14.8,66c-5.3,35-8.1,69.7-3,105c2.9,20.3,8.2,39.7,18,57.6c7.4,13.6,19.3,23.2,34.7,26.4
		c19.1,4,38.4,7.6,58.2,7.1c19.9-0.5,39.8,0,59.7-2c10.3-1,20.3-3.8,30.5-4.6c12.8-0.9,24.8-4.9,36.7-8.8
		c11.5-3.8,15.9-13.7,17.5-24.6c1.6-10.6-3.4-18.7-12.3-24.4c-5.8-3.8-12.1-6.8-18.2-10.1c-10.4-5.7-22-10.3-28.3-21.3
		c-5-8.6-9.3-17.6-13.5-26.7c-3.7-8,0.5-14.4,9.3-13.4c13.6,1.6,27.2,0.6,40.8,0.8c13.6,0.1,27.2,0,39.9-6
		c15.4-7.3,28.9-17.7,43-26.9c11.2-7.3,19.3-18,28.1-27.9c6.6-7.5,11.6-16.2,17.9-23.8c7.5-9.1,15.7-17.7,22.2-27.6
		c6-9,5.9-9.3-3.9-14.1c-10.2-5-19.5-11.3-28.3-18.5c-2.3-1.9-3.8-4.4-2-6.9c2.1-3.1,5-1.1,6.9,0.5c7.3,5.9,15.7,9.6,24.1,13.7
		c25.9,12.7,51.2,26.6,79,35.1c14.6,4.5,29.3,8.4,43.7,13.6c12.6,4.5,25.9,5.4,38.5,9.7c15.5,5.3,31.5,7.5,47.6,9.9
		c15.4,2.2,30.6,5.6,46.3,6.8c12.9,1,25.6,3.7,38.6,3.2c4.4-0.2,8.6,1,12.9,1.4c1.7,0.2,3.6,0,4.4,1.8c2.6,5.8,7.8,9.7,10.8,15.4
		c6.8,13.1,11.2,26.9,14.5,41.1c3.2,13.9,6.1,28,6.2,42.3c0.1,15.9,0,31.8-1.9,47.6c-2.1,17.8-4.8,35.5-10.1,52.7
		c-5.2,17.1-10.7,34.1-19,50.1c-4.4,8.5-3.3,9.6,5.9,12.4c23.3,7.2,47.4,9.8,71.4,12.2c17.1,1.8,34.4,2.4,51.7,2.6
		c30.3,0.3,60.4,0.6,90.5-3.8c23-3.3,45.7-7.8,68.3-13.3c11.8-2.9,22.1-9.1,33.5-12.7c21-6.6,27.8-15.2,29.8-37.1
		c0.4-4.3,0.4-8.6,0.3-13c-0.6-18-4.4-35.5-7.7-53.1c-4.2-22.1-12.2-41.7-30.7-56.3c-14.7-11.6-21.2-10.7-34.7-1.1
		c-12.9,9.1-23.6,21.3-35.2,32.1c-7.1,6.6-14.2,13-22.4,17.8c-7,4.2-14.4,8.5-23.3,6.7c-8.7-1.7-10.8-7.4-5.1-14.3
		c5.3-6.4,10.6-12.8,15.9-19.2c5.7-6.9,12.3-13.3,16.7-21c5.7-9.8,11.7-19.3,17.4-29.1c7.7-13.2,15.1-26.5,18-41.8
		c2-10.5,3.3-21,2.8-31.7c-0.3-6.9,1.7-13.1,4.1-19.3c1.2-3.1,3.3-5.1,6.8-6.5c25.9-10.3,50.5-23.4,75.4-36
		c13-6.6,25.4-14.2,37.8-21.9c18.1-11.2,35.6-23.2,52.8-35.7c21.5-15.6,41.6-33,60.7-51.5c5.2-5.1,9.5-11,15.1-15.6
		c9.6-7.8,18-16.9,25.5-26.5c15.3-19.6,32.1-38,46.5-58.4C1351.4,1590.8,1355.7,1579.9,1361.1,1568.1z M980.1,2004.1
		c1.7-0.6,2.6-1.9,2.5-3.6c-0.1-0.7-1-1.5-2.2-0.7c-1.1,0.7-2.2,1.6-2.1,3C978.2,2003.6,978.8,2004.5,980.1,2004.1z"/>
	<path class="st1" d="M1361.1,1568.1c-5.4,11.8-9.7,22.7-16.7,32.6c-14.4,20.4-31.2,38.8-46.5,58.4c-7.5,9.6-15.9,18.7-25.5,26.5
		c-5.6,4.5-9.9,10.5-15.1,15.6c-19.1,18.5-39.2,35.8-60.7,51.5c-17.2,12.5-34.7,24.4-52.8,35.7c-12.4,7.7-24.8,15.3-37.8,21.9
		c-24.9,12.6-49.5,25.7-75.4,36c-3.5,1.4-5.6,3.4-6.8,6.5c-2.4,6.2-4.4,12.4-4.1,19.3c0.4,10.6-0.9,21.2-2.8,31.7
		c-2.9,15.3-10.3,28.6-18,41.8c-5.7,9.8-11.8,19.3-17.4,29.1c-4.4,7.7-11,14.1-16.7,21c-5.3,6.4-10.6,12.8-15.9,19.2
		c-5.7,6.9-3.6,12.5,5.1,14.3c8.9,1.8,16.3-2.6,23.3-6.7c8.2-4.9,15.3-11.2,22.4-17.8c11.6-10.8,22.3-23.1,35.2-32.1
		c13.5-9.5,20-10.5,34.7,1.1c18.5,14.6,26.6,34.2,30.7,56.3c3.3,17.6,7.1,35.1,7.7,53.1c0.1,4.3,0.1,8.7-0.3,13
		c-2,21.9-8.8,30.5-29.8,37.1c-11.4,3.6-21.7,9.8-33.5,12.7c-22.6,5.5-45.3,9.9-68.3,13.3c-30.1,4.4-60.2,4.2-90.5,3.8
		c-17.3-0.2-34.6-0.8-51.7-2.6c-24-2.5-48.1-5.1-71.4-12.2c-9.2-2.8-10.3-3.9-5.9-12.4c8.3-16,13.8-33,19-50.1
		c5.2-17.2,8-34.9,10.1-52.7c1.9-15.8,2-31.7,1.9-47.6c-0.1-14.3-3-28.4-6.2-42.3c-3.3-14.2-7.7-28-14.5-41.1
		c-3-5.7-8.2-9.6-10.8-15.4c-0.8-1.7-2.7-1.6-4.4-1.8c-4.3-0.4-8.5-1.6-12.9-1.4c-13,0.4-25.8-2.2-38.6-3.2
		c-15.7-1.2-30.8-4.6-46.3-6.8c-16-2.3-32.1-4.6-47.6-9.9c-12.5-4.3-25.9-5.2-38.5-9.7c-14.3-5.1-29.1-9.1-43.7-13.6
		c-27.7-8.6-53.1-22.4-79-35.1c-8.4-4.1-16.8-7.8-24.1-13.7c-1.9-1.6-4.8-3.6-6.9-0.5c-1.8,2.6-0.2,5.1,2,6.9
		c8.8,7.1,18,13.5,28.3,18.5c9.8,4.8,9.8,5.1,3.9,14.1c-6.6,9.9-14.8,18.4-22.2,27.6c-6.3,7.6-11.3,16.3-17.9,23.8
		c-8.8,10-16.9,20.6-28.1,27.9c-14.1,9.3-27.6,19.7-43,26.9c-12.7,6-26.4,6.1-39.9,6c-13.6-0.1-27.2,0.8-40.8-0.8
		c-8.8-1-13,5.4-9.3,13.4c4.2,9.1,8.5,18.1,13.5,26.7c6.3,11,17.9,15.6,28.3,21.3c6.1,3.3,12.4,6.3,18.2,10.1
		c8.8,5.7,13.9,13.8,12.3,24.4c-1.7,10.9-6,20.8-17.5,24.6c-11.9,3.9-23.9,7.9-36.7,8.8c-10.2,0.8-20.2,3.6-30.5,4.6
		c-19.9,1.9-39.8,1.4-59.7,2c-19.8,0.5-39-3.1-58.2-7.1c-15.4-3.2-27.3-12.8-34.7-26.4c-9.8-17.9-15.1-37.3-18-57.6
		c-5.1-35.2-2.2-70,3-105c3.4-22.4,8.9-44.2,14.8-66c2.9-10.6,8.7-20,13.4-29.9c2-4.2,5.1-5,9.8-3.3c19,7,38.9,7,58,2.4
		c18.3-4.4,35.5-13,50.3-25.3c17.2-14.2,32.4-30.3,45.4-48.5c6.1-8.6,5.9-12.3-2.9-17.6c-4.1-2.4-7.5-5.4-11.1-8.3
		c-9.8-7.9-19.7-15.7-29.6-23.4c-1.6-1.2-2.9-2.7-4.2-4.1c-20.2-21.1-39.9-42.7-58.2-65.4c-9.8-12.1-18.4-25.2-27.7-37.7
		c-11-15-20.5-30.8-28.1-47.9c-2.9-6.5-6-13.3-11.3-18.7c-3.8-3.9-5.2-9.2-7.5-14c-11-22.7-20.6-46.2-27.8-70.3
		c-10.2-34.2-20.4-68.6-25-104.3c-1.3-9.8-4.3-19.4-5.2-29.3c-1.4-15.8-1.9-31.8-4.2-47.5c-2.7-19.2-0.9-38.5-2.1-57.6
		c-0.5-7.8,2.7-15,2.1-22.7c-1.5-18.9,1.3-37.8,2.6-56.6c1.2-17.8,5.5-35.3,7.9-53c4.1-29.7,11.9-58.6,22.1-86.6
		c12.5-34.2,25.4-68.3,43.2-100.5c8.6-15.7,17.6-31.2,26.5-46.6c12.3-21.2,25-42.2,41.2-60.9c12.9-14.8,23.5-31.4,36.4-46.2
		c13.2-15.2,25.8-31.2,41.6-44.1c13.4-10.9,25.9-22.9,39.2-33.8c18.4-15.2,36.4-31.1,56.2-44.5c15.5-10.5,31.6-20.5,48.6-28.8
		c17-8.3,33.9-16.7,50.1-26.6c12-7.3,26.1-10.9,39.2-16.4c18.3-7.7,37.7-12.3,56.2-19.8c10.9-4.5,23-6.1,34.6-8.8
		c11.3-2.6,22.6-5.4,34.1-7.2c17.7-2.9,35.5-4.8,53.3-6.6c15.2-1.6,30.4-2.2,45.6-3.5c18.2-1.7,36.5-2.3,54.8-3.1
		c15.3-0.6,30.6-1.4,45.8-0.8c21.9,0.9,43.6,3.8,65.3,6.5c16.5,2.1,32.7,5.4,49,8.3c18.4,3.2,36.4,7.5,54.2,12.9
		c31,9.5,61.9,19.8,91.6,32.8c24.6,10.7,48.6,22.8,71,37.5c17.4,11.5,34,24.2,50.9,36.4c0.5,0.4,1.4,0.6,1.6,1.1
		c4.2,10.4,12.7,7.7,21.2,7.9c21.5,0.5,41.8,6.6,61.5,15.2c18.9,8.2,36.4,18.9,54,29.3c16.1,9.5,31.4,20.9,43.5,35.9
		c4.2,5.1,9.1,9.7,13.9,14.3c3.1,3,3.2,5.9,1.7,9.8c-3.2,8.6-8.8,14.7-16.9,18.7c-4.5,2.2-8.8,4.6-13.2,6.9c-1.7,0.9-2.5,2.2-1.8,4
		c0.5,1.5,1.9,1.7,3.2,1.7c2.7,0.1,5.4-0.4,7.7-1.8c10-5.9,21.1-10,28.5-19.6c3-3.9,4.8-3.6,8.3,0.1c15.2,15.9,24.8,35.2,34.8,54.3
		c2.8,5.2,5.7,9.3,11.6,11.3c8.1,2.8,12.4,10.2,16.6,16.6c6.1,9.4,11,19.7,13.1,31c2.2,12.2,0.2,23.2-8.6,32.3
		c-2.9,3-3.3,5.6-2.8,9.7c2.7,24.4,5.1,48.9,0.4,73.4c-1.6,8.5,0.6,16.5,3.8,24.2c3.7,8.9,6.1,18.2,9.1,27.4
		c9.6,29.1,13.9,59.3,19.7,89.1c1.3,6.7,0.9,13.2,1.1,19.8c0.6,28.8,1.5,57.7,1.5,86.5c0,25-3.9,49.6-7.7,74.2
		c-2,13.4-3.3,27-7.4,40.1c-5.6,17.7-10.1,35.8-14.3,53.9c-0.4,1.6-0.9,3.2-1.5,4.7c-5.4,13.3-3.6,11.7-16.2,10.8
		c-26-2-50.2-9.5-69.6-27.9c-10.3-9.8-21.5-18.8-29.5-30.9c-7-10.7-11.1-22.5-12.7-35.2c-0.3-2.3,0.6-4.8-2.5-5.6
		c-3.5-0.9-4.8,1.7-6.1,4c-3.3,5.9-1.7,11.8,0.8,17.3c4,8.7,8,17.5,13,25.7c14.4,23.4,34,41.3,59.4,52.3
		c11.8,5.1,23.8,10.1,36.4,12.7c14.7,3.1,29.7,2.5,44.3-1.6c29.7-8.4,54-24.6,72.3-49.7c5.9-8.1,12.6-15.4,17.7-24.1
		c9.1-15.6,12.2-32.1,8.6-49.8c-1.6-7.7-4.9-14.5-10.4-20.1c-5.6-5.7-11.3-11.2-17-16.8c-1.4-1.4-2.9-2.7-4.2-4.2
		c-6.1-7-6.5-11.6-1.7-18.6c5.6-8.1,10.7-9.6,19.6-6.1c9,3.5,14.7,11.1,21.4,17.4c1,0.9,1.6,2.1,2.3,3.2c1.3,1.9,3.2,2.3,5.3,1.7
		c2.3-0.7,2.6-2.8,2.8-4.8c0.1-1,0-2,0-3c-1.3-14.8,1.4-29.2,4.3-43.5c3.1-15,10.9-27.8,21.3-39c8.6-9.3,17.9-17.8,28.1-25.4
		c10.5-7.9,21.1-6.3,31.7-1.2c6.8,3.3,7.7,7.9,2.6,13.9c-8,9.6-14.4,19.8-16.8,32.3c-1.2,6-1.4,11.8,0.3,17.8
		c0.6,2.2,0.8,4.8,3.7,5.3c2.6,0.5,4.2-1.1,5.8-3.1c10.8-13.6,23.8-25,36.4-36.8c11.4-10.6,24.9-13.6,39.6-12.2
		c7.4,0.7,13.4,5.1,18,11.2c3.3,4.5,3.1,8-0.8,12.3c-6.3,7-15,11.1-21,18.2c-8,9.3-15.2,19.1-16,32.2c-0.3,3.9,1.2,6.9,3.5,8.8
		c2.9,2.3,7.5,2.2,10.3-0.2c8.1-6.9,18.5-9,27.3-14.3c4.8-2.9,10.3-3.9,15-0.2c5.4,4.2,8.6,10,8.5,17.2c0,1.9-1.2,2.9-2.4,4
		c-5.2,5.1-10.4,10-16.8,13.7c-13.4,7.9-23.4,19.3-31.2,32.8c-7,12.2-8.1,25.1-6.3,38.5c2.4,17.5,0.5,34.8-5.6,51
		c-3.1,8.4-7.5,16.9-14.8,23.2c-10,8.6-18.4,19.5-32.6,21.7c-3,0.5-3,2.7-3.9,4.9c-5.6,13.9-9.7,28.3-17.5,41.3
		c-9.8,16.3-21.9,30.5-35.2,44.1c-12.2,12.4-25.3,23.8-39.9,32.5c-19,11.3-37.9,23.3-59,30.9c-16.5,6-32.6,13.1-49.9,17
		c-4.2,0.9-8.6,1.9-12.7,2.1c-15.6,0.9-30.4,7.3-46.2,7c-20.6-0.4-41.3,1.2-61.9-0.4c-5.3-0.4-10.7-0.7-15.7-2.3
		c-17.1-5.3-35.1-6.6-51.9-13.4c-12.9-5.2-26.5-8.6-39.4-13.7c-14.2-5.6-28.3-11.5-40.7-20.6c-2.4-1.8-5.6-5.5-8.6-2.2
		c-3.7,4,1.1,6.4,3.4,8.7c8.6,8.8,20,13.1,30.9,17.9c19.3,8.6,38.6,17.5,59.3,22.6c19,4.8,38.1,8.9,57.6,11.2
		C1356.1,1567,1357.8,1567.4,1361.1,1568.1z M112.5,1800.8c-3,0.4-4.5,2.6-3.8,5.5c0.9,4,0.5,8,0.8,11.9c1.5,20.5,3,41,7.9,61.1
		c5.6,22.9,14.8,44.7,22.5,66.9c3.9,11.3,8.3,22.6,14.2,32.9c6.4,11.2,12.7,22.5,19,33.8c2.4,4.3,5.8,8.1,8.7,12.2
		c2,2.8,4.8,6,8.1,3.4c4-3,0.2-5.8-2-8.1c-3.4-3.6-6.2-7.5-8.8-11.9c-8.9-15.6-16.2-31.9-23.1-48.5c-6.3-15.3-11.9-30.9-16.9-46.7
		c-4.7-14.9-7.9-30.2-12-45.2c-4.9-18-8.2-36.1-9.6-54.7c-0.2-3.3-1.1-6.5-1.6-9.8C115.9,1801.7,114.7,1800.8,112.5,1800.8z
		 M1431.7,824.6c0.6-4.2-1.3-9.3-1.8-14.6c-0.5-5.6-1.8-11.1-3.1-16.6c-0.5-2.1-1-4.9-4.4-4.3c-3.5,0.6-3.9,3.3-3.7,6
		c0.2,2.3,1.1,4.5,1.6,6.8c1.8,7.8,3.5,15.6,3.1,23.6c-0.1,1.5,0.1,3.4-1.9,4.1c-1.9,0.7-3.2-0.6-4.3-1.8
		c-6.4-6.5-11.5-13.9-12.9-23.1c-1.6-10.7-4.5-21.4-1.9-32.5c0.5-2.1,0.3-4-2-5c-2.1-0.8-3.9,0-5.6,1.2c-2.4,1.8-2.8,4.4-2.7,7.1
		c0.1,7.3-0.6,14.8,0.4,22c1.9,13.3,3.2,27,12.7,38c6.3,7.2,11.9,10.2,17.8,7.8C1430.8,840,1431.5,832.9,1431.7,824.6z
		 M1317.5,1026.8c4-18.3,16.6-31.4,26.3-46.3c2.8-4.3,6.1-7.8,9.8-11.2c6.9-6.3,15-10.9,23.5-14.7c1.5-0.7,2.9-1.6,2.9-3.6
		c0-2.3-2.2-2-3.4-2.9c-6.8-4.8-12.9-3.1-19.2,1.3c-13.9,9.6-23.5,23-32.8,36.6c-5.2,7.6-9,16.2-13.2,24.4
		C1307.4,1018.4,1308.3,1020.7,1317.5,1026.8z M1281.9,694.9c0.2-2-0.7-5.2-2.4-8.1c-6.3-10.9-11.8-22.3-19-32.6
		c-8.9-12.7-19.5-24.3-30.7-35.2c-3.1-3-6.7-5.4-10.3-7.7c-3.4-2.3-7.5-2-9.8,1c-2.1,2.8,1.9,4.5,3.6,5.9
		c15.2,13.1,27.4,28.6,38.9,44.8c8,11.3,17.5,21.6,24.2,33.9c0.8,1.4,1.7,4.1,4.4,2.8C1282.2,699.1,1282.2,697.6,1281.9,694.9z"/>
	<path class="st2" d="M1747.6,1174.7c4.2-12.5,13.4-21.3,23.2-29.1c6.7-5.4,10.7-10.8,9.1-19.2c-1.9-10-4.9-19-15.7-23.6
		c-26.1-11.2-50.4-1-67,16c-4.3,4.4-8.4,9-15.7,12.1c2-7.7,5.6-12.7,9.6-17.5c5.1-6,9.4-12.5,5.8-20.8c-4.6-10.4-11-18.8-23.8-19.9
		c-12.5-1.1-22.6,3.9-32.4,10.6c-10.4,7.2-18.3,17.3-28.3,25c-2,1.6-3.6,4-4.8,6.3c-10,18.7-21.6,36.7-23.9,58.6
		c-0.7,6.9-1.7,7.1-8.1,4c-1.5-0.7-3-1.5-4.4-2.4c-12.8-8.6-21.7-5-34,4.4c-1.1,0.8-1.9,1.8-2.9,2.7c-10.9,10.2-11.1,17.2-3,29.4
		c4.9,7.4,11.2,13.2,17,19.5c3.6,3.9,7,8,10,12.4c8.5,12.5,4.4,25.7,2.1,38.5c-2.9,16.7-12.7,29.8-24.6,41.3
		c-10.5,10.1-20.3,21-32.9,28.7c-8,4.9-16.5,8.6-25.5,10.9c-1.9,0.5-3.9,0.9-6.3-0.6c2.3-7.6,4.8-15.2,6.9-23
		c9.6-35.6,16-71.8,20.1-108.5c1.9-16.8,3.7-33.7,5.2-50.5c1.3-14.5,1.5-29.2-0.5-43.8c-0.6-4.9-0.3-10-0.2-14.9
		c0.5-16.7-4.1-33-5.1-49.5c-0.9-14.6-4.1-28.8-5.3-43.3c-0.5-5.3-2.3-10.4-3.4-15.5c-4-18.2-7.5-36.7-14.9-53.6
		c-5.8-13.2-6.6-25.3-4.6-39.1c1.9-12.6,0.4-25.7,0.5-38.6c0-3.4-0.8-6.6-1.4-9.8c-1.1-6-0.9-11.6,4-16.6c4.6-4.6,6.7-11.2,7-17.3
		c0.8-17.7-0.7-34.8-12-50.1c-6.4-8.7-13.2-16.5-21.9-22.8c-5.4-3.9-9-9.2-12.2-15.4c-9.5-18.5-17.9-37.9-33.4-52.7
		c-4.8-4.6-7.8-10.3-4.9-17.9c2.5-6.5-0.9-13.1-1.8-19.6c-0.3-2.3-2.3-4-4.5-5.1c-1.6-0.8-3.1-1.3-4.7-0.4c-1.8,1-1.8,2.7-1.3,4.3
		c1.2,4.6,1.5,9.1-1.3,13.8c-3.2-0.7-5.1-3-7-5.1c-5.6-6.1-11.4-12-17.9-17.2c-4.1-3.3-6.2-7.1-6.2-12.8c-0.1-22.3-1.6-44.5-1-66.8
		c0.5-18.2,0.3-36.5,0.4-54.7c0.1-30.1-0.8-60.3-3-90.4c-0.7-9.5-0.4-19.1-0.1-28.6c0.7-19.9-0.9-39.8-0.7-59.7
		c0.3-28.3,0.7-56.5,1-84.8c0.1-7.5-0.4-15.1-0.3-22.6c0.1-21.2,0.1-42.6,5.8-63.2c2.6-9.4,6.1-18.9,14-26
		c5.9-5.3,10.7-11.8,16.5-17.3c15-14.3,32.1-25.3,51.7-32.4c7.1-2.6,13.5-6.8,20.3-10.1c17.1-8.4,35.5-13.2,53.5-18.8
		c8.2-2.6,16.4-5.1,24.4-8.4c10.2-4.2,21.2-5.6,31.9-7.8c26.9-5.6,53.8-11.8,81-15.5c23-3.2,46.1-6.4,69.4-7.4
		c11.9-0.5,23.8-1.9,35.7-2.6c22.2-1.4,44.2-4.3,66.4-5.5c39.8-2.2,79.7-4.2,119.6-3.7c29.9,0.4,59.8,0.1,89.7,1.2
		c20.2,0.7,40.5,2.3,60.4,5.2c24.6,3.6,49.4,5.3,74,8.5c10.2,1.3,20.3,3.3,30.3,5.5c7.2,1.6,14.5,1.7,21.7,3c10.1,1.8,20.1,4.3,30,7
		c11.6,3.2,23.4,4.7,35.2,6.7c15.1,2.6,29,8.9,43.8,12.3c33.4,7.5,66.4,16.4,99,26.9c13.5,4.4,26.7,9.7,40.4,13.8
		c10.2,3,20.2,6.7,30.2,10c15.5,5.1,29.3,13.8,44.4,19.6c17.6,6.8,34.9,14.6,52.1,22.3c10,4.5,18.5,11.5,27.2,18.1
		c8.5,6.5,10.4,15.7,10.5,25.7c0.1,17.2-1.2,34.5-0.6,51.6c0.9,28.6,1.7,57.2,1.2,85.7c-0.4,23.9,0.2,47.9-0.2,71.8
		c-0.4,24.9,0.9,49.9-0.6,74.8c-1.4,25.3-0.7,50.6-2,75.8c-1.5,28.9-0.9,57.8-1.2,86.6c-0.2,21.3-1.1,42.5-2.1,63.8
		c-0.8,16.9,0,33.9-1.5,50.9c-2.3,25.8-2.4,51.7-3.9,77.6c-2,34.9-1.2,69.9-0.8,104.8c0.2,21-0.2,42-1.9,62.9
		c-1.4,16.6,0.1,33.3-1.8,49.8c-2.7,23.8-1.6,47.7-3.2,71.5c-0.9,13.6-1.3,27.3-1,40.9c0.2,9.4-3,18.6-1.4,27.8
		c2.7,15.5,0.1,31.1,0.2,46.6c0.2,21.9,0,43.9-0.8,65.9c-0.9,24.9-2.1,49.8-1.5,74.7c0.8,32.8-0.1,65.6-1.2,98.4
		c-0.5,14.9,0.2,29.9,0.6,44.8c0.5,20.6-2.1,41.1-1.6,61.6c0.5,21-0.5,41.9-0.7,62.8c-0.1,14.6,0.2,29.6-2.4,43.7
		c-2.7,14.7-2,29-2.7,43.5c-0.3,6,1.6,11.8,1.5,17.8c-0.1,25-0.5,50-4,74.6c-2.2,15.5-1.5,31.1-3.7,46.5
		c-1.2,8.6-4.4,14.5-11.1,18.8c-12,7.7-23.8,15.8-36.5,22.2c-21.9,11-44.4,20.9-66.5,31.6c-15.4,7.4-32,12.8-48,19.2
		c-29.5,11.8-58.8,24.4-89.5,32.7c-17.7,4.7-34.1,12.8-52,16.9c-5.2,1.2-10.2,2.2-16.3,3c-0.8-9.6-2.2-18.8-2.4-28
		c-0.4-21.8,0.9-43.8-0.5-65.5c-2-30.6-1.2-61.1-2.1-91.7c-0.8-26.5-1.6-52.9-1.3-79.5c0.5-42.9,2.2-86-0.6-128.8
		c-1.7-27,1-53.7,0.6-80.5c-0.1-10-0.6-19.9-1.2-29.8c-0.7-12.5-1-25.1,0.6-37.6c0.9-7,0.4-14-0.1-20.8c-1.4-21.9-0.8-43.8-0.9-65.7
		c-0.2-50.6-0.3-101.2-0.7-151.8c-0.2-20.5,1.1-41,2-61.4c0.4-8.6,0.1-17.3,0.1-26c0.2-27.6-0.4-55.3,0.9-82.9
		c1.7-34.9,1.1-69.9,2-104.8c0.6-21.9,0.6-43.9,1.9-65.7c2.5-42.4,2.9-84.9,4.2-127.4c0.6-17.5-1-35,0-52.4
		c1.4-24.2,0.6-48.4,1.2-72.5c0.4-15.5,0.2-31.2,0.9-46.7c1-20.9,0.7-41.8,2.5-62.7c1.1-12.2,0.6-24.7-0.1-36.9
		c-0.5-8.6-0.9-17.1,0.5-25.6c1.8-10.8,1.3-21.9,1.6-32.8c0.7-23.9,2.5-47.7,2.3-71.6c-0.2-21.9,1.3-43.7,1.4-65.6
		c0.1-31.2,1.6-62.3,1.1-93.5c-0.3-15.9-0.1-31.9-0.3-47.9c-0.3-24.8-4.4-48.8-13.5-72c-3-7.6-6.9-14.4-12-20.5
		c-5-5.8-9.5-12-13.7-18.3c-0.9-1.4-1.8-2.9-3.1-3.8c-1.7-1.1-3.8-1.6-5.5,0.2c-1.3,1.5-0.8,2.9,0.3,4.4c2.2,2.9,4.1,6.1,6.3,8.9
		c14.1,18,23.5,38.3,29.3,60.4c1.8,6.8,0.5,13.8,1.4,20.8c3.6,28.1,3.9,56.4,2.5,84.7c-0.7,14.3,1,28.6,0.2,42.9
		c-1.5,25.2-3.5,50.4-3.4,75.6c0.1,30.5-0.6,61.1-1.4,91.6c-0.6,24.8-0.7,49.7-2.6,74.5c-0.4,4.8,1.4,9.1,1,13.8
		c-2.3,29.8-1.2,59.7-3.6,89.6c-1.2,15.1-1.1,30.4-0.9,45.7c0.3,23.2,0.6,46.4,0.4,69.5c-0.4,36.6-0.5,73.1-2.2,109.7
		c-1,22.2-0.8,44.5-3.2,66.7c-1.4,12.8-0.4,25.9-0.4,38.9c0,16.9,0.2,33.8-1.1,50.8c-1.1,14.6-0.8,29.3-0.7,43.9
		c0,6-0.3,11.9-1.3,17.8c-3.1,17.2-2.1,34.7-2.1,52.1c0,15.1-0.2,30.3-0.6,45.4c-0.6,22.9,0,45.9-0.1,68.9c0,24.3,0.4,48.5-0.7,72.8
		c-0.4,8.6,0.4,17.2,0.8,25.8c1.1,25.2-0.1,50.4,0,75.6c0.1,42.2,1.2,84.5,0.9,126.7c-0.1,12.4,0,24.9-0.5,37.3
		c-0.6,17.2-0.7,34.4,1.1,51.6c1,9.5,1.2,19.4,1.3,29.2c0.2,29.2-1.1,58.4,0,87.6c0.7,18.8,0.3,37.7-0.3,56.5
		c-0.8,22.9,1.5,45.8,0,68.7c-1.2,18,0.4,36,1.8,53.8c1.5,19.6,1.2,39.2,2.4,58.7c0.9,15.3,0.9,30.5,1.1,45.7
		c0.1,7.4-0.2,7.5-7.5,8.7c-20.3,3.2-40.8,5.2-61.2,7.9c-25,3.2-50.2,4.5-75.3,6.7c-44.8,4-89.6,3.9-134.5,3.8
		c-28.6,0-57.2,0-85.8-0.8c-18.5-0.5-37-2.5-55.5-3.3c-23.5-1-46.9-2.9-70.4-4.2c-19.9-1.1-39.9-1.8-59.5-4.8
		c-25.2-3.8-50.7-5.8-75.8-10.1c-10.8-1.8-21.7-2.6-32.5-4.3c-17.7-2.8-34.8-8.5-52.3-11.8c-19.5-3.7-39.1-7.6-58.2-12.9
		c-16.6-4.6-33.1-9.4-48.9-16.5c-12.6-5.7-26.3-9.2-38.7-15.6c-8.8-4.6-17.8-9-26.5-13.7c-6.9-3.7-11.6-10-17-15.3
		c-4.7-4.6-2.9-11.3-3.4-17.1c-0.7-9.6-0.4-19.3-0.8-28.9c-1.3-29.5-2-59.1-4.2-88.6c-1.1-14.6-0.7-29.2-1.5-43.8
		c-1.1-17.5-1.9-35-1.3-52.5c0.6-19.9,0-39.7-0.8-59.6c-0.3-7,0.6-13.6,5.7-19.5c5-5.7,8.9-12.3,13.7-18.3
		c5.6-6.9,10.2-14.7,13.5-23.2c1.3-3.2,2.4-6.5,7.6-6.3c27,0.9,53.6-3.5,80.1-7.6c32.2-5,61.7-17.6,91.3-30.3
		c17.3-7.4,31.7-18.8,47-29.1c13.1-8.8,23.3-20.6,34.9-30.9c18.1-16,29.3-36.8,43.4-55.6c3.6-4.8,5.4-10.6,7.3-16.3
		c2.3-6.9,6.8-11.6,13.1-15.6c20.3-12.7,34.6-30.2,40.8-53.9c4.1-15.7,4-31.5,3.7-47.5c-0.1-5.7-0.2-11.3,0-17
		c0.1-4.7,1.1-9.2,3.8-13.2c11.3-17.3,22.8-34.2,41.3-45c8.1-4.7,13.7-11.9,11.4-22.3c-1.9-8.7-6.8-15.4-15.4-18.1
		c-7.8-2.4-16.1-2.3-23.5,0.8c-6.1,2.5-12.5,4.5-18.3,7.7C1748.5,1175.8,1748.1,1175.2,1747.6,1174.7z M2107.6,625
		c0.5-18.2-0.5-38-5.2-57.5c-2.3-9.5-3.6-11.7-12.9-12.1c-17.2-0.8-34.1-4-51.1-6.5c-29.8-4.3-59.7-8.3-89.9-9.5
		c-4-0.2-6.1-1.4-6.4-5.7c-1.1-19.1-12.9-29.9-29.7-35.6c-10.9-3.7-22.2-5.7-34-1.5c-13.9,4.9-24.6,12.9-30.2,26.8
		c-1.7,4.3-4.4,6-9.1,5.9c-15.6-0.3-31.1,0.1-46.7-1.7c-12.1-1.4-24.5-1.4-36.7-3c-4.8-0.6-9.2,2.2-13.7,1.2
		c-12.4-2.7-25.1-1.3-37.6-2.5c-10.4-1-14,3.8-11.4,13.9c6.1,23.3,7.6,47.1,8.5,71c0.6,17,0.3,33.9-2,50.7
		c-2.4,18.1-4.9,36.2-7.4,54.2c-2.7,18.7-7.2,37.1-10.3,55.8c-4.4,25.9-9.8,51.5-16,77c-9.7,39.7-22.4,78.5-35.3,117.3
		c-4.9,14.8-8.9,30-18.2,42.9c-1.5,2.1-1.8,5-2.5,7.5c-2,7.4-1.6,8.3,6.1,10.3c7.1,1.9,14.3,2.9,21.6,3.9
		c30.9,4.3,61.8,8.7,92.6,13.3c11.4,1.7,23.1,2.9,34.1,6.2c9.6,2.9,19.4,4.1,29.1,5.8c16,2.8,32.2,4.3,48.3,6.7
		c17.7,2.7,35.4,5.4,53.1,8.2c26.8,4.3,53.8,8,80.7,12c4.9,0.7,10.3,0.1,14.8,1.9c10.4,4.3,21.5,3.7,32.2,6.2c3.6,0.8,6-0.3,7.6-4.3
		c2.9-6.8,3.9-14,5.7-21c5.9-23.1,12.2-46,18.1-69.1c1.5-5.8,3.3-11.4,4.5-17.3c3.6-18.2,7.5-36.4,10.8-54.7
		c3.3-18.5,8.6-36.6,12.2-55.2c6.1-31.6,10.2-63.5,14.5-95.4c3.5-25.6,7.4-51.2,8.7-77.1C2105.4,671.8,2108,649.4,2107.6,625z
		 M2041.3,1814.9c4.3,0.8,7.2-1.7,9.9-4.6c2.5-2.7,4.5-5.8,8-7.4c9.2-4.1,16.6-10.8,25.1-16c14.4-8.8,29.3-16.9,43.6-26
		c12.8-8.2,26.5-14,40.3-19.1c14.5-5.4,28.9-11.4,43.8-15.9c1.8-0.5,3.6-1.5,4.3-3.8c2.1-8,6.8-15,8.3-23.3
		c2.8-15.3,7.3-30.4,0.2-45.9c-2.3-5.1-2-11.1,1.4-16.3c1.2-1.9,2.3-4.1,3-6.3c3.5-10.2,0.5-16.1-9.8-19.8c-0.9-0.3-1.8-0.8-2.8-1.1
		c-3.9-1.3-4.8-3.7-3.8-7.7c1.8-6.7,2.3-13.7,4.6-20.4c1.1-3.1,1.1-6.1,0.6-9.6c-2.7-17.8-7.5-35-13.6-51.9
		c-8.8-23.9-15-48.6-24.5-72.3c-8.9-22.1-16-44.9-25.7-66.8c-7.9-17.8-13.7-36.5-20.8-54.7c-2.8-7.2-5.6-14.2-5-22
		c-3.5-1.4-7.1-1.8-9.9-0.2c-6.9,3.9-14.1,7.3-20.4,12.2c-5.4,4.2-11.4,7.6-16.4,11c-5.4-5.2-10.1-9.9-15.1-14.3
		c-13.7-12-28.7-12.6-41.5-2.3c-15.8,12.6-21.8,28.7-17,48.6c1.9,8.1,1.7,8.4-5.6,12c-10.4,5.1-20.9,10.1-31.4,14.9
		c-10.6,4.8-12.5,8.9-7.6,19.3c2.5,5.4,6.2,10.3,8.2,15.9c6.7,18.4,14.9,36.3,20.5,55.1c3.2,10.8,7.8,21.2,12.3,31.5
		c6,13.6,13.2,26.8,18.7,40.6c5.8,14.5,12.3,28.7,20,42.3c4.3,7.5,8.5,15.1,12.2,22.9c8.1,17,12.7,34.4,3.2,52.6
		c-2.3,4.3-2.2,8.6,1.5,11.8c6.8,5.8,7.6,13.6,7.9,21.6c0.6,14.3-1.6,28.4-4.1,42.5c-4.1,23.3-9.4,46.2-21.6,66.9
		C2041.3,1810.5,2040,1812.4,2041.3,1814.9z M1704.6,1925.2c8.6,0.1,12.2-1.4,12.3-5.9c0.1-9.1,3.8-17.3,5.7-26
		c6.9-31.8,13.4-63.7,21.5-95.2c4.6-17.9,5.7-36.8,15.1-53.3c1.3-2.3,0.6-4.6-2-5.8c-12.9-5.9-25.5-12.5-38.7-17.6
		c-20.7-8-41.8-15.3-62.8-22.5c-15.1-5.1-29.2-12.5-44.6-17c-15.3-4.4-30.2-10-45.3-15.1c-4.6-1.6-10.8-0.1-12.9,4.3
		c-4.1,8.7-9.8,16.6-12.8,25.9c-3.2,9.8-6.6,19.5-9.8,29.3c-0.9,2.8-1.7,4.7-5.3,4.6c-7.9-0.2-14.7,3.9-21.9,6.3
		c-2.9,1-5.1,3-7.1,5.4c-14.7,18.1-14.7,48.7,6.1,65.1c2.5,2,2.9,3.4,2.1,6.6c-2.7,10.9-4.8,22-7,33.1c-1.7,9,0.6,12.8,9.2,15.9
		c3.4,1.2,6.8,2.5,10.3,3.6c37,11.8,74.1,23.1,110.5,36.4c24.1,8.8,49,14.3,73.6,21.3C1702.5,1924.9,1704.2,1925.1,1704.6,1925.2z
		 M2161.2,1005.2c0.7,0,1.4,0,2.1,0c2.8,0.1,5,1.6,7.6,2.4c4.8,1.6,7.8,0.2,8.7-4.8c1.9-11.1,5.2-21.9,6.1-33.2
		c2-24.5,4.5-48.9,6.6-73.4c2.5-28.1,5-56.1,7.1-84.2c0.4-5.2,0.8-10.7-1.4-15.7c-1.5-3.4-3.3-7.7-7.4-7.2c-8.5,1-16.4-2.5-24.7-2.4
		c-7.3,0.1-14.5-0.5-21.8-1.2c-8.9-0.8-18.7-1.3-26.2,3.1c-6.5,3.8-6.2,13.4-9,20.5c-0.4,0.9-0.6,1.9-0.7,2.9
		c-1.4,13.9-3.5,27.7-3.9,41.6c-0.6,22.9-1.1,45.9,0.2,68.8c0.5,9.2,1.5,18.5,2.5,27.7c1.5,13,6.7,24.9,9.3,37.5
		c1.8,8.5,4.6,16.6,7.6,24.7c1.4,3.8,3.6,7.2,6.4,10c7.4,7.6,18.3,7.2,23.9-0.9c1.5-2.1,2.6-4.7,3.2-7.2
		C2158.3,1011,2159.3,1007.9,2161.2,1005.2z M1885.6,377.6c0-2,0-3.3,0-4.6c-0.6-15.9-2.9-31.6-6.7-47.1
		c-3.4-13.7-8.5-26.2-16.8-37.7c-4.5-6.2-9.3-7.7-15.9-6.9c-1.6,0.2-3.2,0.7-4.9,0.9c-11.5,1.6-22.7,4.3-34.3,5.5
		c-5.2,0.5-7.9-0.2-10.7-4.3c-4.9-7.1-11.6-11.5-20.4-12.6c-13.4-1.7-23.4,3.7-30.5,14.6c-3.2,5-6.9,7.8-12.7,10
		c-8.5,3.3-18.1,3.7-25.7,9.7c-4.7,3.8-5.4,4.1-1.9,9.5c3.6,5.6,7.1,11.4,8.2,18c5.1,32.2,4.6,64.1-6.6,95.2
		c-3.4,9.3-1.1,13.7,8.4,15.5c22.9,4.3,46.2,1.5,69.3,2.2c12.5,0.4,25.1,0.3,37.7-1.6c10.9-1.7,22.1,0.2,33.1,0.1
		c11.2-0.1,16.3-4.9,20.1-13.7c1.1-2.4,2-4.9,2.9-7.4C1883.7,408.1,1883.9,392.4,1885.6,377.6z"/>
	<path class="st1" d="M980.1,2004.1c-1.3,0.4-1.9-0.5-1.9-1.3c0-1.4,1-2.2,2.1-3c1.1-0.8,2.1,0,2.2,0.7
		C982.7,2002.2,981.8,2003.5,980.1,2004.1z"/>
	<path class="st2" d="M1749,1176.3c-0.9,0.6-1.8,0.9-2.4-0.2c-0.1-0.2,0.7-0.9,1-1.3C1748.1,1175.2,1748.5,1175.8,1749,1176.3z"/>
	<path class="st3" d="M112.5,1800.8c2.2,0.1,3.3,0.9,3.6,2.9c0.5,3.3,1.3,6.5,1.6,9.8c1.4,18.5,4.6,36.7,9.6,54.7
		c4.1,15,7.3,30.3,12,45.2c5,15.8,10.5,31.4,16.9,46.7c6.9,16.6,14.2,32.9,23.1,48.5c2.5,4.4,5.3,8.3,8.8,11.9c2.2,2.3,6,5,2,8.1
		c-3.4,2.5-6.1-0.6-8.1-3.4c-2.9-4-6.3-7.8-8.7-12.2c-6.2-11.3-12.5-22.6-19-33.8c-5.9-10.3-10.3-21.6-14.2-32.9
		c-7.7-22.2-17-44-22.5-66.9c-4.9-20.1-6.4-40.6-7.9-61.1c-0.3-4,0-7.9-0.8-11.9C108.1,1803.3,109.5,1801.2,112.5,1800.8z"/>
	<path class="st3" d="M1431.7,824.6c-0.2,8.4-0.9,15.4-8.7,18.7c-5.9,2.5-11.6-0.5-17.8-7.8c-9.5-11-10.8-24.6-12.7-38
		c-1-7.2-0.3-14.6-0.4-22c0-2.8,0.3-5.3,2.7-7.1c1.7-1.2,3.5-2.1,5.6-1.2c2.3,0.9,2.5,2.9,2,5c-2.6,11,0.3,21.7,1.9,32.5
		c1.4,9.3,6.5,16.6,12.9,23.1c1.1,1.1,2.3,2.5,4.3,1.8c2-0.7,1.9-2.6,1.9-4.1c0.4-8-1.3-15.8-3.1-23.6c-0.5-2.3-1.4-4.5-1.6-6.8
		c-0.2-2.7,0.2-5.4,3.7-6c3.4-0.6,3.9,2.3,4.4,4.3c1.3,5.5,2.5,11,3.1,16.6C1430.4,815.2,1432.3,820.4,1431.7,824.6z"/>
	<path class="st3" d="M1317.5,1026.8c-9.2-6.2-10-8.5-6-16.4c4.2-8.3,8-16.8,13.2-24.4c9.2-13.6,18.9-27,32.8-36.6
		c6.4-4.4,12.4-6,19.2-1.3c1.2,0.9,3.4,0.5,3.4,2.9c0,2-1.4,2.9-2.9,3.6c-8.5,3.8-16.6,8.4-23.5,14.7c-3.7,3.3-7,6.9-9.8,11.2
		C1334.1,995.4,1321.5,1008.5,1317.5,1026.8z"/>
	<path class="st3" d="M1281.9,694.9c0.3,2.8,0.3,4.2-1.1,4.9c-2.7,1.3-3.7-1.4-4.4-2.8c-6.7-12.3-16.2-22.6-24.2-33.9
		c-11.5-16.2-23.7-31.8-38.9-44.8c-1.7-1.4-5.7-3.2-3.6-5.9c2.3-3,6.4-3.3,9.8-1c3.6,2.4,7.2,4.8,10.3,7.7
		c11.2,10.9,21.8,22.4,30.7,35.2c7.2,10.3,12.8,21.7,19,32.6C1281.2,689.7,1282.1,692.9,1281.9,694.9z"/>
	<path class="st3" d="M2107.6,625c0.4,24.4-2.2,46.9-3.3,69.4c-1.3,26-5.2,51.5-8.7,77.1c-4.3,31.8-8.4,63.7-14.5,95.4
		c-3.6,18.6-8.9,36.7-12.2,55.2c-3.3,18.3-7.1,36.5-10.8,54.7c-1.2,5.9-3,11.6-4.5,17.3c-5.9,23.1-12.2,46-18.1,69.1
		c-1.8,7-2.9,14.2-5.7,21c-1.7,4-4,5.1-7.6,4.3c-10.6-2.5-21.8-2-32.2-6.2c-4.4-1.8-9.8-1.1-14.8-1.9c-26.9-4.1-53.8-7.8-80.7-12
		c-17.7-2.8-35.4-5.5-53.1-8.2c-16-2.4-32.3-3.9-48.3-6.7c-9.7-1.7-19.5-3-29.1-5.8c-11-3.3-22.7-4.5-34.1-6.2
		c-30.8-4.6-61.7-9-92.6-13.3c-7.2-1-14.5-2-21.6-3.9c-7.7-2-8.1-2.9-6.1-10.3c0.7-2.6,1.1-5.5,2.5-7.5c9.3-13,13.3-28.2,18.2-42.9
		c12.9-38.8,25.5-77.6,35.3-117.3c6.2-25.4,11.6-51.1,16-77c3.2-18.6,7.6-37,10.3-55.8c2.6-18.1,5-36.2,7.4-54.2
		c2.3-16.8,2.6-33.8,2-50.7c-0.9-23.9-2.4-47.7-8.5-71c-2.6-10.1,1-14.9,11.4-13.9c12.5,1.2,25.2-0.2,37.6,2.5
		c4.5,1,8.9-1.8,13.7-1.2c12.2,1.5,24.5,1.6,36.7,3c15.6,1.8,31.1,1.4,46.7,1.7c4.7,0.1,7.4-1.6,9.1-5.9
		c5.6-13.9,16.2-21.9,30.2-26.8c11.8-4.2,23.1-2.2,34,1.5c16.7,5.7,28.5,16.5,29.7,35.6c0.3,4.3,2.4,5.5,6.4,5.7
		c30.2,1.2,60.1,5.2,89.9,9.5c17,2.5,33.9,5.7,51.1,6.5c9.3,0.4,10.6,2.6,12.9,12.1C2107.1,587,2108,606.8,2107.6,625z
		 M1623.5,1010.2c9.5,3.5,18.9,5.3,28.3,7.1c19.8,3.8,39.7,7.3,59.5,11.1c35.4,6.7,71.2,11.8,106.8,17.5c5.2,0.8,10.7,0.6,15.8,2
		c18.6,5.2,37.8,6.7,56.8,9.5c8.2,1.2,16.5,1.3,24.7,3c15.3,3.1,30.6,5.8,45.9,8.4c18.6,3.2,37.4,5.3,55.8,9.8
		c3.6,0.9,4.7-0.5,5.8-3.3c1.3-3.1,0.8-6.5,1.8-9.7c5.9-19,11.9-38,16.7-57.3c6.5-25.8,12.4-51.7,17.6-77.7
		c2.7-13.3,6.1-26.5,8.4-39.9c4.7-27.4,9-54.9,13.4-82.4c3.5-21.6,6.9-43.3,9.5-65c1.9-16.2,3-32.4,4.6-48.5
		c2.8-27.1,5.2-54.2,4.9-81.5c-0.1-13-1.2-25.9-4-38.6c-1.3-5.9-3.3-9.9-10.8-10.4c-10.8-0.7-21.4-3.5-32.2-4.4
		c-21.5-1.8-43.1-2.8-64.6-4.5c-13.8-1.1-27.9-1.2-41.4-5.1c-4.1-1.2-5.6,0.8-6.6,3.8c-5.7,17.1-18.8,26.7-33.8,34.6
		c-4.3,2.3-8.8,2.5-13.5,2.8c-13.5,0.8-24.2-6.3-35.3-12c-4.2-2.2-6.5-6.4-8.8-10.5c-4.4-7.8-5.7-16.3-6.3-24.9
		c-0.3-4.6-2.3-6.6-6.8-6.5c-4.7,0.1-9.3,0-14,0.1c-24.2,0.3-48.3-2.3-72.6-2.3c-13.2,0-26.6,0.6-39.8-1.4c-6.2-0.9-7.9,0.7-6.4,7
		c3.8,16.5,6.4,33.3,7.1,50.2c1,24.5,0.9,49.2-1.1,73.6c-1.8,21.8-4.7,43.6-8.7,65c-5.1,27-8,54.4-16.2,80.8
		c-4.8,15.5-6.1,31.8-11.6,47.3c-2.3,6.5-4.7,13.1-6.1,20c-3.6,17.9-7.5,35.7-14.3,52.7c-1.5,3.7-3,7.4-4.1,11.1
		c-6.2,21-11.3,42.4-22.6,61.4C1624,1005,1623.3,1007.3,1623.5,1010.2z M1894.5,504.7c-19.1,0.4-28.7,8.1-38.1,24.2
		c-4.4,7.5-6.5,16.7-4,25.9c3.9,14.4,25,29.1,39.9,27.7c21.6-2,40.8-27.4,37-48.9C1926.2,515.7,1912.9,504.6,1894.5,504.7z"/>
	<path class="st3" d="M2041.3,1814.9c-1.3-2.5,0-4.4,0.9-5.9c12.2-20.7,17.5-43.6,21.6-66.9c2.5-14.1,4.7-28.2,4.1-42.5
		c-0.3-8-1.1-15.8-7.9-21.6c-3.7-3.2-3.7-7.5-1.5-11.8c9.5-18.2,4.9-35.5-3.2-52.6c-3.7-7.8-7.9-15.3-12.2-22.9
		c-7.7-13.6-14.2-27.7-20-42.3c-5.5-13.8-12.7-27-18.7-40.6c-4.5-10.3-9.2-20.7-12.3-31.5c-5.6-18.9-13.8-36.7-20.5-55.1
		c-2-5.6-5.7-10.5-8.2-15.9c-4.8-10.4-3-14.5,7.6-19.3c10.5-4.8,21-9.8,31.4-14.9c7.4-3.6,7.6-3.9,5.6-12c-4.8-19.9,1.2-36,17-48.6
		c12.8-10.3,27.9-9.7,41.5,2.3c5,4.4,9.7,9.2,15.1,14.3c5.1-3.4,11-6.8,16.4-11c6.3-4.9,13.5-8.3,20.4-12.2c2.9-1.6,6.4-1.2,9.9,0.2
		c-0.6,7.8,2.2,14.8,5,22c7.1,18.2,12.9,36.9,20.8,54.7c9.7,21.9,16.8,44.6,25.7,66.8c9.5,23.7,15.8,48.4,24.5,72.3
		c6.2,16.9,10.9,34.1,13.6,51.9c0.5,3.4,0.5,6.5-0.6,9.6c-2.3,6.6-2.9,13.6-4.6,20.4c-1.1,4-0.1,6.4,3.8,7.7
		c0.9,0.3,1.9,0.8,2.8,1.1c10.3,3.7,13.3,9.6,9.8,19.8c-0.8,2.2-1.8,4.3-3,6.3c-3.3,5.3-3.7,11.2-1.4,16.3
		c7.1,15.5,2.5,30.6-0.2,45.9c-1.5,8.2-6.1,15.3-8.3,23.3c-0.6,2.3-2.5,3.3-4.3,3.8c-14.9,4.4-29.3,10.5-43.8,15.9
		c-13.8,5.1-27.6,11-40.3,19.1c-14.2,9.1-29.1,17.2-43.6,26c-8.4,5.2-15.9,11.9-25.1,16c-3.5,1.6-5.5,4.7-8,7.4
		C2048.4,1813.3,2045.5,1815.7,2041.3,1814.9z M2064.5,1785.3c0.7-0.1,1.4,0,1.9-0.4c20-13,40.1-25.6,61.2-36.8
		c24.1-12.8,49.9-21.3,74.9-31.8c6.6-2.8,9.7-6,10.8-12.2c3-16.6,5.5-33.3,0.7-50.1c-1.5-5.2-0.7-10.6,0.4-15.8
		c0.7-3.2,1.7-6.4,2.5-9.6c1.2-4.5,0.1-7.3-4.9-9c-8.3-2.8-9.1-4.5-8.6-13.2c0.2-2.6,0.9-5.2,1.5-7.8c1.6-7.1,3-14.2,3.2-21.6
		c0.6-18.4-4.9-35.4-10.6-52.4c-6.5-19.2-14.3-37.8-20.2-57.2c-3.7-12.1-6.8-24.5-12.2-35.8c-8.8-18.6-14.3-38.5-21.9-57.5
		c-7.8-19.6-16-39.2-22.3-60.2c-15.2,6.6-28.6,14.8-40.6,25.5c-1.3,1.1-2.1,2.6-2.1,4.3c-0.2,9-5.2,16.4-8.6,24.2
		c-5.7,13.2-20.3,19.3-34,15c-5.1-1.6-10.2-3.3-14.3-7c-2.8-2.6-4.8-1.9-7.8-0.1c-10.7,6.7-22.4,11.4-32.8,18.8
		c-8.1,5.7-8.6,5.1-5.6,14.7c6.6,20.8,16.6,40.5,22.1,61.7c3.3,12.7,11.4,23.2,16.1,35.2c2,4.9,2.8,10.1,5.4,14.9
		c8.8,16.2,15.5,33.5,24.3,49.8c8.3,15.4,15.2,31.8,23.3,47.4c6.9,13.4,9.4,25.8,4.2,39.9c-1.9,5.2-1.2,10.3,2.9,14.8
		c2.4,2.6,4.4,5.8,4.6,9.8c0.6,17.5,0.6,34.9-3.7,52.2c-4.2,16.7-6.7,33.8-12.2,50.1c-0.7,0.6-1.4,1.7-0.4,2.1
		C2063.3,1787.7,2064.1,1786.6,2064.5,1785.3z M2043.6,1374.6c6.3,0.3,12.1-0.8,15.7-6.5c2.5-3.9,4.7-8.1,6.2-12.5
		c8-23,4.5-32.1-20.6-39.4c-4.7-1.4-8.3-0.8-11.9,2.3c-7.2,6.3-12.3,14-14.6,23.2C2014.2,1358.2,2026.5,1374.2,2043.6,1374.6z"/>
	<path class="st4" d="M1704.6,1925.2c-0.4-0.1-2.1-0.2-3.7-0.7c-24.6-6.9-49.6-12.5-73.6-21.3c-36.5-13.3-73.6-24.6-110.5-36.4
		c-3.5-1.1-6.9-2.4-10.3-3.6c-8.6-3.1-10.9-7-9.2-15.9c2.1-11.1,4.3-22.1,7-33.1c0.8-3.1,0.4-4.6-2.1-6.6
		c-20.8-16.4-20.8-47-6.1-65.1c2-2.4,4.2-4.4,7.1-5.4c7.2-2.4,14-6.5,21.9-6.3c3.6,0.1,4.4-1.8,5.3-4.6c3.1-9.8,6.5-19.5,9.8-29.3
		c3.1-9.2,8.7-17.2,12.8-25.9c2.1-4.4,8.3-5.8,12.9-4.3c15.1,5.1,30,10.7,45.3,15.1c15.4,4.4,29.5,11.8,44.6,17
		c21.1,7.2,42.1,14.4,62.8,22.5c13.2,5.1,25.9,11.6,38.7,17.6c2.6,1.2,3.3,3.5,2,5.8c-9.4,16.5-10.6,35.5-15.1,53.3
		c-8.1,31.5-14.5,63.4-21.5,95.2c-1.9,8.6-5.5,16.8-5.7,26C1716.8,1923.7,1713.1,1925.2,1704.6,1925.2z M1516,1820.1
		c-5.6,6.7-4.5,15.5-7.3,23.2c-3.9,10.8-3.2,11.3,8.3,13.7c17.5,3.7,34.4,9.9,51.6,14.6c9.8,2.7,19.3,6.9,29.2,9.5
		c18.9,5,37.7,10.1,56.3,16.1c15.4,5,31.1,9,46.8,13c4.7,1.2,6.3-0.7,7.3-5.3c1.9-9,4.6-17.9,7-26.9c0.3-0.9,0.6-1.7,0.8-2.6
		c2.6-18.1,9.1-35.2,13.3-52.9c5.6-23.5,11.3-47,15-70.9c1.3-8.7,1-9.7-7-12.2c-8.2-2.6-16.8-4.1-24.9-6.9
		c-15.6-5.5-30.8-11.8-46.4-17.4c-20.9-7.5-42.4-13.2-62.8-22c-5.4-2.3-11.1-4.2-16.5-6.7c-6.6-3.1-13.6-5.3-20.5-7.5
		c-4-1.2-7.2-0.8-9.5,4.2c-2.2,4.9-3,10.1-5.3,14.9c-4.3,8.9-7.7,18.3-11,27.6c-2.5,7-1.7,8.3,5.1,11.7c14.1,7,23.6,23.3,20.5,36.4
		c-4,17.2-16.9,31.7-37.3,32.9c-12.1,0.7-12.8,1.7-12.8,13.7L1516,1820.1z M1498.2,1775.1c-0.2,14.7,9.3,23.4,25.6,23.4
		c17.2,0,33.7-16.1,33.5-32.8c-0.1-12.4-14.2-23.7-29.1-24.6C1509.6,1740.1,1498.7,1753.9,1498.2,1775.1z"/>
	<path class="st5" d="M2161.2,1005.2c-1.9,2.8-2.9,5.8-3.7,9.1c-0.6,2.5-1.7,5.1-3.2,7.2c-5.6,8.1-16.4,8.5-23.9,0.9
		c-2.8-2.9-4.9-6.2-6.4-10c-3-8.1-5.9-16.2-7.6-24.7c-2.6-12.6-7.9-24.5-9.3-37.5c-1-9.2-2-18.5-2.5-27.7
		c-1.3-22.9-0.8-45.9-0.2-68.8c0.4-13.9,2.5-27.7,3.9-41.6c0.1-1,0.3-2,0.7-2.9c2.8-7,2.5-16.7,9-20.5c7.5-4.4,17.4-3.9,26.2-3.1
		c7.3,0.6,14.5,1.3,21.8,1.2c8.3-0.2,16.1,3.4,24.7,2.4c4.1-0.5,5.9,3.8,7.4,7.2c2.2,5,1.8,10.5,1.4,15.7
		c-2.2,28.1-4.7,56.1-7.1,84.2c-2.2,24.5-4.6,48.9-6.6,73.4c-0.9,11.3-4.2,22.1-6.1,33.2c-0.9,5-3.9,6.4-8.7,4.8
		c-2.5-0.8-4.8-2.3-7.6-2.4C2162.6,1005.2,2161.9,1005.2,2161.2,1005.2z M2115.6,914.2c-0.8,24.3,4.2,47.5,8.5,70.6
		c1.8,9.9,4.9,20,11.8,28.1c4.2,5,8.8,5.3,12-0.1c2.5-4.2,5.2-8.4,6.3-13.5c3.6-16.3,6.1-32.8,6.9-49.3c1.4-29.2,3.3-58.5-3.2-87.5
		c-0.6-2.6-0.9-6.2,2-7c7.9-2,6.1-8.1,5.4-12.8c-1.8-11.4-3.5-22.9-7-34.1c-2.6-8.2-5.3-13.4-14.7-12.7c-17.9,1.2-21.6-1-25.4,18.5
		c-2.9,15.1-2.8,30.3-3.5,45.5C2113.7,878.2,2114.5,896.5,2115.6,914.2z M2171.2,992.7c3.5-4.3,3.6-9.3,4.3-14.1
		c3.9-24.9,3.7-50.2,8.3-75c2.2-11.5,1-23.2,2.9-34.7c2.6-16.1,3.2-32.3,3.3-48.6c0-5.2,0-10.6-1.9-15.7c-0.9-2.5-2.5-4.3-5.2-3.4
		c-2.6,0.9-1.4,3.4-0.9,5.1c4,13.6,3.9,27.5,3.1,41.4c-0.4,6.5-2.8,12.5-9.9,14.7c-5.7,1.8-6,5.5-5.9,10.8c0.7,35.5,0.7,71-4,106.2
		C2164.6,985.5,2166.1,989.4,2171.2,992.7z M2168.5,803.9c0,14.5,6.3,28,6.4,42.6C2177.8,831.6,2176.9,817.2,2168.5,803.9z
		 M2167.8,799.5c-0.3-0.6-0.6-1.1-0.9-1.7c-0.3,0.5-0.9,1-0.9,1.5c0,0.5,0.5,1.1,0.8,1.7C2167.2,800.5,2167.5,800,2167.8,799.5z"/>
	<path class="st4" d="M1885.6,377.6c-1.7,14.8-1.9,30.5-7.6,45.2c-1,2.5-1.9,5-2.9,7.4c-3.8,8.8-9,13.6-20.1,13.7
		c-11.1,0.1-22.2-1.8-33.1-0.1c-12.6,2-25.2,2-37.7,1.6c-23.1-0.7-46.3,2.1-69.3-2.2c-9.5-1.8-11.8-6.2-8.4-15.5
		c11.2-31.1,11.7-63,6.6-95.2c-1-6.6-4.5-12.4-8.2-18c-3.5-5.4-2.8-5.7,1.9-9.5c7.6-6.1,17.2-6.5,25.7-9.7c5.7-2.2,9.4-4.9,12.7-10
		c7-10.9,17.1-16.3,30.5-14.6c8.8,1.1,15.6,5.5,20.4,12.6c2.8,4.1,5.6,4.9,10.7,4.3c11.6-1.2,22.8-3.9,34.3-5.5
		c1.6-0.2,3.2-0.7,4.9-0.9c6.6-0.8,11.4,0.7,15.9,6.9c8.4,11.5,13.4,24,16.8,37.7c3.8,15.5,6.2,31.2,6.7,47.1
		C1885.7,374.3,1885.6,375.7,1885.6,377.6z M1738.9,307c-6.3,1.3-12.4,2.6-18.5,3.9c-2.5,0.6-4.8,1.7-2.8,4.7
		c6.3,9.5,7.3,20.4,8.7,31.3c3.2,24.4,1.7,48.2-7.3,71.3c-1.4,3.7-2,7.7-2.9,11.5c-1,4.2,1.2,5.3,4.9,5.2
		c16.6-0.2,33.3,0.4,49.9-0.7c28.2-1.8,56.5-0.7,84.7-1.2c7.5-0.1,9.4-0.8,11.8-7.9c6.1-18.1,9.6-36.8,9.7-55.7
		c0.1-17.2-2.7-34.4-8.2-51c-2.9-8.7-8.4-15.8-13.4-23.2c-2.5-3.7-6.1-5-11-5c-14.1,0-27.5,4.8-41.3,5.9c-4.7,0.4-6.1,3.4-6.8,7.1
		c-2.4,11.2-10,18.4-19.2,24.2c-3.1,1.9-6.4,3.6-10.4,2.6c-11.9-2.9-23.3-6.4-26.6-20.5C1740,308.9,1739.5,308.1,1738.9,307z
		 M1787.3,294.7c0.4-7.6-5.9-13.4-14.9-13.9c-12-0.7-23.5,11-21.1,21.6c1.6,7.2,10.3,15.3,18,16c8.4,0.8,10.9-6.3,14.5-11.6
		C1786.2,303.2,1786,298.6,1787.3,294.7z"/>
	<path class="st6" d="M1623.5,1010.2c-0.1-2.9,0.5-5.2,1.7-7.2c11.4-19.1,16.4-40.5,22.6-61.4c1.1-3.8,2.7-7.5,4.1-11.1
		c6.8-17,10.7-34.8,14.3-52.7c1.4-6.9,3.8-13.5,6.1-20c5.4-15.4,6.8-31.8,11.6-47.3c8.2-26.4,11.2-53.8,16.2-80.8
		c4-21.5,6.9-43.3,8.7-65c2.1-24.5,2.1-49.1,1.1-73.6c-0.7-16.9-3.2-33.6-7.1-50.2c-1.5-6.3,0.2-7.9,6.4-7c13.2,2,26.6,1.4,39.8,1.4
		c24.2,0,48.4,2.6,72.6,2.3c4.7-0.1,9.3,0.1,14-0.1c4.5-0.1,6.5,1.9,6.8,6.5c0.6,8.6,1.9,17.1,6.3,24.9c2.3,4.1,4.6,8.4,8.8,10.5
		c11.2,5.7,21.8,12.8,35.3,12c4.7-0.3,9.2-0.5,13.5-2.8c15-7.9,28.2-17.5,33.8-34.6c1-3,2.5-5,6.6-3.8c13.5,3.9,27.5,4,41.4,5.1
		c21.5,1.7,43.1,2.7,64.6,4.5c10.8,0.9,21.4,3.8,32.2,4.4c7.4,0.5,9.5,4.5,10.8,10.4c2.7,12.7,3.8,25.6,4,38.6
		c0.2,27.3-2.2,54.4-4.9,81.5c-1.7,16.2-2.7,32.4-4.6,48.5c-2.6,21.8-6,43.4-9.5,65c-4.4,27.5-8.7,55-13.4,82.4
		c-2.3,13.4-5.7,26.5-8.4,39.9c-5.2,26-11.1,52-17.6,77.7c-4.8,19.3-10.8,38.3-16.7,57.3c-1,3.2-0.5,6.6-1.8,9.7
		c-1.1,2.8-2.2,4.2-5.8,3.3c-18.4-4.5-37.2-6.6-55.8-9.8c-15.3-2.7-30.7-5.3-45.9-8.4c-8.2-1.7-16.5-1.8-24.7-3
		c-19-2.7-38.2-4.3-56.8-9.5c-5.1-1.4-10.5-1.1-15.8-2c-35.6-5.7-71.4-10.7-106.8-17.5c-19.8-3.8-39.7-7.3-59.5-11.1
		C1642.4,1015.5,1633,1013.7,1623.5,1010.2z M2000.8,912.8c7.8-0.4,13.8,3.4,17.7,11c1,2,2.3,4.4,5.3,3.1c2.1-1,2.4-2.9,2.1-5.1
		c-2.3-14.7-10.7-22.7-25.1-20.1c-5,0.9-10.2,2.9-14.4,6.4c-2.8,2.3-5.7,5.5-8.9,6.1c-4,0.8-4.9-4.7-7.9-6.6
		c-0.8-0.5-1.6-1.2-2.4-1.8c-7.6-6-9.3-6.2-17.7-0.9c-6.5,4.1-13.5,7.2-20.4,10.2c-11.5,5.1-17,3.6-24.9-6.3
		c-5-6.2-10.4-12.1-15.7-18c-4.6-5.1-10.4-6.9-17.1-6.1c-5.7,0.7-11,2.4-15.9,5.3c-5.1,3.1-10.3,6.1-15.7,8.8
		c-14.2,7.3-16.7,6.9-28.7-3.3c-1.8-1.5-3.5-3.1-5.2-4.5c-5.5-4.5-9.5-4.9-15.5-1.2c-2.3,1.4-4.4,3-6.5,4.6
		c-10.3,7.7-10.3,7.7-17.8-2.6c-2.4-3.3-4.8-3-6.5,0.7c-2.8,5.8,0.2,11.2,1.9,16.4c2.4,7.1,5.8,8.1,12,3.7c5.7-4,10.8-8.8,16.2-13.2
		c4.1-3.3,7.7-4.3,12,0.3c3.2,3.4,6.6,6.5,9.8,9.9c3.6,3.7,7.8,6.6,13.3,4.8c5-1.6,10.5-2.7,14.6-6.2c7.9-6.7,17.4-9.4,27.2-11.4
		c13.7-2.7,17.5-1.4,24.4,10.9c5.1,9,12.8,14.1,21.7,18.1c4.6,2.1,8.9,2,13.4,0.3c5.9-2.3,11.8-4.8,16.9-8.5
		c8.5-6,15.4-5.8,23.2,1.9c6.1,6,11.2,5.2,18.9,0.4c2.5-1.6,5.2-3.1,7.5-4.9C1994.8,913.2,1997.2,912.6,2000.8,912.8z M1845.4,818.7
		c-3-3.5-4.3-7.3-5.9-10.9c-2-4.5-6.2-6.9-10-9.4c-3.5-2.3-5.9,1.9-9,2.8c-8.5,2.4-15.1,8.3-22.9,12c-7.1,3.4-8.9,2.7-11.4-4.6
		c-0.7-2-1.6-4.2-3.6-4.3c-2.6-0.2-4,2-4.7,4.4c-2.9,10.3,5.1,18.5,14.8,16.5c6.4-1.3,11.7-4.6,16.7-8.5c4.2-3.2,8.6-6.2,13.8-7.8
		c3.3-1,5.7-0.6,7,3.2c1.5,4.8,4.1,9.1,7.1,13.1c5.2,7.3,8.8,7.6,15.3,1.7c4.1-3.8,8.3-7.5,13.2-10.4c9.2-5.3,12.6-5.2,20.6,1.3
		c4.1,3.4,8.1,6.8,12.4,10c9.7,7.2,13.5,7.2,23.3,0.5c5.8-3.9,11.3-8.1,17.2-11.8c5.4-3.4,8.9-2.7,13.4,1.6c2.9,2.8,4.9,6.3,6.8,9.8
		c3.8,7,7.6,9.5,14.1,6.5c12.3-5.7,25.2-5,38.1-5.7c6.5-0.4,13-0.7,14.5,8.2c0.3,1.9,2.1,3.4,4.5,2.7c2.2-0.7,2.9-2.3,3-4.6
		c0.3-6.9-6.3-14.2-13.5-14.4c-12.6-0.2-25.3-0.6-37.6,3.2c-5.1,1.6-8.2,0.6-10.8-5.1c-3-6.6-9-11.3-15.7-14.5
		c-2.2-1-4.6-1.5-6.8-0.6c-11.4,4.4-23.4,7.4-32.1,17.1c-4.9,5.5-6.7,5.3-12.8,0.9c-6.4-4.7-12.6-9.7-19-14.5
		c-5.9-4.5-11.6-5.3-18.2-0.8C1860.1,810.9,1852.7,814.5,1845.4,818.7z M1799.9,713.1c-3.5-1.8-3.5-5.4-5.8-7.4
		c-1.5-1.3-3.2-2.7-5.3-1.6c-2.4,1.3-2.9,3.5-2.1,6c1.8,5.6,5.7,9.6,10.3,13.2c2.8,2.2,5.2,2.2,7.8-0.5c4.2-4.2,9-8,13-12.3
		c5.1-5.5,9-6.2,15.5,1.5c10.6,12.8,13.5,13.2,28.2,4.4c11.5-6.9,22.9-8.7,33.8,1.3c1,0.9,2.3,1.3,3.4,2c8.5,5.1,8.4,5,13.9-2.8
		c2.5-3.5,4.6-7.2,8.3-9.9c3.5-2.6,6-2.2,8.4,1c3.8,5.1,6.9,10.4,9.1,16.5c2.9,8.2,6.8,9.5,14.6,6c1.5-0.7,2.7-1.9,4.1-2.8
		c6.7-4.4,13.9-4.8,19.1,0.8c6.8,7.3,14.4,8.5,23.3,6.3c1.6-0.4,3.2-0.7,4.8-1.2c8.9-2.6,17.6-3,26.2,0.9c2.3,1,5.5,2.1,6.7-1.3
		c1-2.7-0.5-5.3-3.1-6.7c-6.8-3.8-13.7-6.8-21.8-4.5c-2.5,0.7-5.3,0.8-7.8,1.7c-8,2.8-14.6,1.7-20.5-4.9c-5.2-5.8-11.8-6.4-19.2-4.1
		c-3.6,1.2-6.3,3.5-9.6,5.1c-5.4,2.7-9.6,2.7-11.9-3.8c-1.4-4-3.7-7.8-5.8-11.6c-4.7-8.4-11.2-10-18.8-4.4
		c-4.3,3.1-8.5,6.5-12.3,10.2c-3.1,3-5.7,2.5-8.6,0c-1.2-1.1-2.4-2.3-3.7-3.3c-7.7-5.7-15.9-7.6-25.2-3.7c-5,2.1-9.1,5.3-13.4,8.5
		c-4,3-7.8,3.3-11.3-0.8c-2.8-3.3-6.7-5.5-8.9-9.4c-2.3-4.2-5.9-4.8-10.3-3.2c-4.1,1.5-7.8,3.8-11.4,6.1
		C1809,707.2,1804.3,710.2,1799.9,713.1z M1771.6,991.4c-2.9-2.5-3.2-4.9-4-7.1c-0.8-2.2-1.3-4.4-1.3-6.8c0-1.6,0.1-3.5-0.6-4.9
		c-0.9-1.9-3-2.6-5.1-2.1c-2,0.5-2.2,2.1-2,3.9c0.6,4.6,0.6,9.4,1.9,13.8c4.4,14.9,8.6,16.1,20.5,6.2c1.5-1.3,3.2-2.5,4.4-4
		c3.5-4.4,8.5-6.3,13.4-8.4c5.8-2.5,8.2-1.2,10.9,4.6c2,4.2,3.7,8.6,6.1,12.5c6,9.7,9.5,10.6,19.6,5.5c1.5-0.7,2.8-1.8,4.2-2.6
		c7.1-4.2,14.2-8.6,21.5-12.6c7.2-4,9.1-3.6,14.4,2.7c6.3,7.6,13.2,13.7,23.6,15.4c10.5,1.7,20.5,3.5,31-1.3
		c8.9-4,16.5-9.8,24.5-15.1c9-6.1,12.6-5.7,16.9,4.2c2.9,6.7,6.8,8.7,13.7,8.5c7.4-0.2,8.6,1.4,8.9,8.7c0.1,3.4,0.1,6.7,1.9,9.7
		c1.5,2.6,3.9,3.1,5.7,1c4-4.8,6-10.6,4.2-16.6c-1.8-5.9-6.7-11.8-12.5-11.2c-9.9,1.1-14.8-2.9-18.2-11c-0.6-1.4-2-2.7-3.3-3.7
		c-5.6-4.1-9.9-7.2-16.5-0.5c-2.5,2.6-5.6,4.7-8.6,6.7c-6.9,4.5-13.4,9.9-21.3,12.5c-15.8,5.2-34.2-0.6-44.6-13.7
		c-1-1.3-2-2.7-3.1-3.9c-3-3.6-6.2-5.3-11.1-2.8c-11.5,5.8-23.4,11.1-34.9,17c-4.3,2.1-6.6,1.6-8.4-3c-2.5-6.6-6.4-12.4-11-17.7
		c-4-4.6-9.2-5.8-14.5-3.4c-3.8,1.7-7.7,3.5-10.9,6.7C1782.4,983,1777,986.9,1771.6,991.4z M1832.9,639.5
		c-6.7-4.4-11.5-10.7-16-17.3c-3.4-5.1-10.5-7.5-13.4-4.4c-3.6,3.8-6.4,8.4-9.2,12.9c-1.1,1.8-0.9,4.1,1.1,5.3
		c2.1,1.3,4.7,1.3,6.3-0.7c1.4-1.8,2-4.2,3.2-6.2c2.1-3.5,4.6-3.5,7-0.4c1.8,2.4,3.3,5,4.9,7.5c2.4,3.6,4.3,7.5,7.9,10.2
		c5.1,3.9,8.4,3.8,13-0.7c4.2-4.2,8.5-8.4,12.5-12.9c4.7-5.3,9.5-6.1,15.8-2.5c4.4,2.5,8.6,4.9,12.3,8.4c8.3,7.9,8.1,7.5,18.8,2
		c5.9-3,10.6-7.9,16.9-10.3c7.7-2.9,11.7-2.3,16.6,4.1c2.8,3.6,5.5,7.4,7,11.9c1.7,5,4.1,5.8,9.1,4c1.6-0.5,3.2-1.2,4.6-2
		c11.4-6.9,22.6-7.2,33.2,1.3c5.3,4.3,10.3,5.2,16.2,0.9c2.5-1.8,6.2-2.2,9.4-3.1c8.1-2.1,8.3-2,12,5.6c0.6,1.2,1.2,2.4,1.9,3.5
		c0.7,1.3,1.9,1.8,3.3,1.6c1.5-0.3,2.5-1.5,2.4-2.8c-0.7-6.2-0.6-12.6-6.2-17.1c-7.5-5.9-15-5.2-24.4,2.2c-6.2,5-6.4,5.2-12-0.1
		c-5.7-5.4-11.9-7.6-19.9-6.4c-4.6,0.7-9.2,1.6-13.6,2.9c-9.6,2.9-9.3,2.7-14.8-5.6c-5.4-8.3-16.6-16.4-26-10.9
		c-6.9,4-14.8,6-21.2,10.9c-3.5,2.7-7.1,3.1-10.6-0.6c-3.7-3.9-8.4-6.4-13.2-8.8c-12.1-6.2-17.8-4-25.6,5.5
		C1839.1,631.6,1837.9,636.9,1832.9,639.5z M1689.5,958.6c0.8,7.6,1.3,13.9,2.1,20.1c1.1,7.8,4.4,10,11.9,8.5
		c5.4-1,10.7-1.2,15.3,2.4c4.4,3.5,4.3,7.6-0.6,10.4c-7.6,4.4-15.7,7.2-24.6,3.7c-2.6-1-5.1-1.4-7.8-0.8c-1.9,0.5-4.1,0.8-4.1,3.4
		c0,1.9,1.5,2.9,3.1,3.5c2.5,0.9,5,1.6,7.5,2.4c10.5,3.3,20.5,3.9,30.1-3.1c5.7-4.2,8.1-9.3,7.9-16.1c-0.2-6.9-2.6-12.4-8.8-15.7
		c-3.6-1.9-7.9-0.7-11.8-0.9c-8.6-0.5-9-0.8-9.4-9c-0.1-2-0.1-4,0-6c0.1-6.5,0.3-6.7,6.5-6.8c2.7,0,5.3,0.2,7.8,1.3
		c2.8,1.2,6,0.9,8.9,0.5c3.3-0.4,4.4-2.5,2.9-5.8c-1-2.3-2.5-3.8-5-4.4c-7.7-1.9-15.5-3.4-23.5-3c-4.2,0.2-6.8,2.7-7.6,6.7
		C1689.7,953.3,1689.6,956.6,1689.5,958.6z M1738,790.5c-3,5.9-8.1,10.3-11.5,15.9c-2.5,4.2-2,5.9,2.4,7c1.3,0.3,2.6,0.7,3.8,1.2
		c5.1,1.9,6,3.9,4,9c-2.6,6.4-5.1,7.7-12.2,7.6c-5-0.1-8.8-2.8-12.9-4.8c-2.4-1.2-4.4-1.3-6.2,1c-1.6,2-0.4,3.5,0.7,5.3
		c6.1,9.6,20.8,13.5,30.6,7.9c1.4-0.8,2.9-1.9,3.6-3.3c3.8-7.5,7.7-15.6,4.4-23.7c-3.8-9.4-4.6-17,3.1-25.1c4.3-4.6,2.3-7.7-4.4-9.3
		c-6.7-1.6-13.7-2.5-20.2-4.6c-4.1-1.3-6.9-0.3-10,1.8c-3.8,2.6-4,5,0,7c4.5,2.1,9.1,4,14.2,4C1731.1,787.3,1734.6,787.7,1738,790.5
		z M1719.5,905.5c0,4.2,0,7.8,0,11.4c0,2.8,0.9,5.1,3.4,6.7c2.6,1.6,5.4,1.1,4.7-1.8c-2.8-11.6,8.9-21.6,3.2-33.5
		c-0.8-1.7,0.6-4.5,1.1-6.7c0.4-1.6,1.1-3.2,1.4-4.8c0.4-2.1,0-4.1-2.2-5c-2.7-1.1-3.5,1.1-4.3,2.8c-0.9,2.1-1.6,4.4-2.2,6.6
		c-1,3.5,0.7,7.8-1.9,10.5c-3,3.2-7.7,0.7-11.4,1.9c-0.3,0.1-0.7,0.1-1,0.3c-4.6,1.6-6.1-0.6-6-4.9c0.1-3.3-0.2-6.6,0.7-9.9
		c0.5-1.9,0.7-4,0.4-5.9c-0.4-2.1-0.5-5.2-3.2-5.5c-2.7-0.3-3.5,2.4-4.1,4.7c-2.4,8.4-2.7,17.1-2.5,25.7c0.1,5.5,3.2,7.6,9,7.4
		C1709.1,905.3,1713.7,905.5,1719.5,905.5z M1732.3,724c4.1-4.7,7.3-7.6,9.7-11c9.3-13.1,8.9-20.9,2.7-29.1
		c-5.5-7.3-16-6.7-20.1,1.4c-1.5,2.8-0.1,5.4,3,5.8c1.7,0.2,3.2-0.4,4.8-0.9c7-2.4,8.2-1.5,7.9,5.5c-0.1,3.7-0.8,6.9-3.6,10
		c-5.8,6.3-9.6,14.4-16.5,19.9c-1.6,1.3-2.3,3.3-1.7,5.4c0.7,2.5,2.9,2.3,4.9,2.4c9.3,0.4,18.6-0.5,27.9,0.7
		c1.8,0.2,3.9-0.7,5.8-1.3c1.4-0.4,2-1.8,2.2-3.1c0.2-1.5-0.6-2.5-2.1-2.9c-2.2-0.6-4.5-1.4-6.7-1.6
		C1745.3,724.6,1740,724.5,1732.3,724z M1740.2,637.6c0,1.7,0,2.4,0,3c0.1,2,0.1,4.2,2.8,4.5c2.4,0.3,3.5-1.4,4.2-3.4
		c0.2-0.6,0.4-1.3,0.4-1.9c1.1-11.6,2.3-23.1,3.3-34.7c0.3-2.9-0.9-5.3-4.1-5.7c-4-0.5-5.2,1.9-5.3,5.5
		C1741.2,616,1742.3,627.4,1740.2,637.6z"/>
	<path class="st7" d="M1894.5,504.7c18.4-0.1,31.7,11,34.9,28.9c3.8,21.5-15.4,46.9-37,48.9c-14.9,1.4-36-13.3-39.9-27.7
		c-2.5-9.2-0.4-18.4,4-25.9C1865.8,512.8,1875.4,505.1,1894.5,504.7z"/>
	<path class="st6" d="M2062.3,1785c5.5-16.4,8.1-33.5,12.2-50.1c4.3-17.2,4.2-34.6,3.7-52.2c-0.1-3.9-2.2-7.2-4.6-9.8
		c-4.2-4.5-4.8-9.6-2.9-14.8c5.1-14.1,2.7-26.5-4.2-39.9c-8-15.6-15-32-23.3-47.4c-8.8-16.4-15.5-33.6-24.3-49.8
		c-2.6-4.8-3.5-10-5.4-14.9c-4.8-12-12.9-22.5-16.1-35.2c-5.5-21.2-15.5-40.8-22.1-61.7c-3-9.6-2.5-9,5.6-14.7
		c10.4-7.3,22.1-12.1,32.8-18.8c3-1.8,4.9-2.5,7.8,0.1c4,3.6,9.2,5.3,14.3,7c13.7,4.3,28.3-1.8,34-15c3.4-7.8,8.4-15.2,8.6-24.2
		c0-1.8,0.8-3.2,2.1-4.3c12-10.7,25.4-18.9,40.6-25.5c6.3,21.1,14.4,40.7,22.3,60.2c7.6,19.1,13.1,38.9,21.9,57.5
		c5.4,11.3,8.5,23.7,12.2,35.8c5.9,19.4,13.8,38,20.2,57.2c5.7,17,11.2,34,10.6,52.4c-0.3,7.4-1.6,14.5-3.2,21.6
		c-0.6,2.6-1.3,5.2-1.5,7.8c-0.5,8.6,0.3,10.4,8.6,13.2c5,1.7,6.1,4.5,4.9,9c-0.8,3.2-1.8,6.4-2.5,9.6c-1.1,5.2-1.9,10.6-0.4,15.8
		c4.8,16.8,2.3,33.4-0.7,50.1c-1.1,6.2-4.2,9.4-10.8,12.2c-25,10.5-50.8,18.9-74.9,31.8c-21.1,11.2-41.3,23.8-61.2,36.8
		c-0.5,0.3-1.3,0.3-1.9,0.4C2063.8,1785.2,2063,1785.1,2062.3,1785z M2061.5,1567.3c0.8-0.4,2-0.8,3.1-1.5
		c13.7-9.4,29.7-14.6,43.9-23.3c11.7-7.2,24.8-12.3,36.9-19.3c6.6-3.8,12.9-8.1,20.2-10.7c3.6-1.3,4.8-4.1,3-8.1
		c-1.7-3.9-4.1-3.5-7.1-1.8c-4.1,2.2-8.6,3.8-12.4,6.4c-24,16.1-50.6,27.6-74.9,43.1c-4.8,3-9.8,5.6-14.6,8.5
		c-1.5,0.9-2.1,2.5-1.5,4.3C2058.5,1566.2,2059.7,1566.8,2061.5,1567.3z M2158,1539.9c-0.6-2.2-2-3.6-4.3-2.7
		c-5.2,2.1-10.7,3.9-15.4,6.8c-10.7,6.7-22.2,11.7-33.5,17.3c-7.4,3.7-14.7,7.6-22,11.4c-3.7,1.9-3.6,4.4-0.7,7
		c2.3,2.1,4.1,3,7.6,0.9c9.3-5.6,19.2-10.2,29-15.1c10.3-5.2,20.6-10.2,30.9-15.3C2153.8,1548,2157.1,1544.9,2158,1539.9z
		 M2060.4,1533.1c2.1-0.2,4.6-1.9,7.2-3.2c4.1-2.2,8.1-4.6,12.2-6.7c14.3-7.6,28.7-15.1,43-22.7c1.9-1,5-2.2,2.7-5.1
		c-1.6-2.1-3.4-5.4-7.2-3.3c-1.2,0.6-2.5,0.9-3.7,1.5c-19.6,10.4-39.5,20.2-58.3,31.9c-1.7,1.1-3.5,2.7-2.8,4.8
		C2054.3,1532.8,2056.9,1532.9,2060.4,1533.1z M2100.1,1705.4c1.5,1.5,2.8,2.1,4,1.4c4.6-2.6,9.6-4.3,13.9-7.5
		c11-8.4,22.6-16,35.7-21.2c10.4-4.2,20.5-9.2,30.7-14c3-1.4,6.9-2.8,4.8-7.1c-2.1-4.2-5.8-1.9-8.6-0.6c-4.1,2-8.2,4.2-12,6.8
		c-13.3,8.9-29.1,12.6-42.6,21.1c-3.9,2.4-6.9,6.2-11.6,7.4C2107.1,1693.8,2103.9,1699.9,2100.1,1705.4z M2097.1,1397.6
		c0.3-2-2.5-4.2-4.8-3.5c-4.2,1.4-7.5,4.2-11,6.7c-10.6,7.3-21.4,14-33.5,18.7c-8.3,3.2-16.4,7.1-24.4,11c-3.2,1.6-7.1,3.6-4.3,8.3
		c2.8,4.8,5.3,0.9,8.1-0.6c5.5-2.9,10.8-6.3,16.5-8.9c17.4-8.1,34.7-16.5,50-28.3C2095.1,1400,2096.7,1399.4,2097.1,1397.6z
		 M2109.9,1724.8c2.9,0.5,3.8-1.5,5.4-2.6c5.1-3.6,9.7-8,15.5-10.6c11.7-5.3,23.2-11,34.2-17.7c4.7-2.9,10-4.9,15.1-7
		c2-0.8,5.2-0.1,4.2-3.7c-0.8-2.8-3.5-2.6-5.8-2.6c-2.1,0-3.6,1.5-5.4,2.1c-8.9,3.1-15.9,9.5-24.6,12.9
		c-10.8,4.3-20.7,10.3-30.5,16.5c-3.3,2.1-6.9,3.8-10.2,5.9c-1.4,0.9-1.8,2.7-1.3,4.5C2107,1724.5,2108.8,1724.6,2109.9,1724.8z
		 M2170,1620.8c-0.5-3.2-2-3.7-5.4-2c-8.9,4.5-18,8.5-26.9,12.9c-5.7,2.8-11.2,5.9-16.7,8.9c-3.1,1.7-6,3.3-3.5,7.6
		c2.5,4.3,5.4,2.6,8.4,1c13.2-6.9,26.4-13.9,39.7-20.8C2168.7,1626.9,2170,1624.6,2170,1620.8z M2025.9,1424.2
		c1.1-0.4,2.1-0.5,3-0.9c11.9-5.7,23.8-11.4,35.7-17.1c3.2-1.5,5.9-3.4,4.1-7.6c-1.6-3.8-4.5-4.7-9-2.2
		c-9.5,5.2-18.9,10.6-28.3,16.1c-2.6,1.5-5,3.3-7.3,5.1c-1.3,1-2.4,2.6-1.2,4.3C2023.6,1422.8,2024.9,1423.4,2025.9,1424.2z
		 M2119.1,1592.1c1.1-0.5,2.7-1,4-1.9c4.6-3.1,9.2-6.3,13.8-9.5c2.2-1.5,4.5-2.8,6.5-4.5c1.3-1.1,1.9-2.6,1.1-4.4
		c-0.8-1.7-2.1-3.1-3.8-2.4c-9.2,3.7-17.5,8.8-23.5,17c-0.5,0.7-0.8,1.9-0.8,2.8C2116.4,1590.8,2116.9,1592,2119.1,1592.1z
		 M2078.6,1499.1c0.6,2.5,1.8,5.1,4.2,4.6c2.4-0.5,4.4-3,4.8-5.6c0.3-2.3-1.4-3.5-3.7-3.5
		C2080.9,1494.7,2079.1,1496.3,2078.6,1499.1z"/>
	<path class="st7" d="M2043.6,1374.6c-17-0.3-29.4-16.3-25.2-32.9c2.4-9.2,7.4-16.9,14.6-23.2c3.6-3.1,7.1-3.7,11.9-2.3
		c25,7.4,28.5,16.4,20.6,39.4c-1.5,4.4-3.7,8.5-6.2,12.5C2055.7,1373.7,2049.8,1374.9,2043.6,1374.6z"/>
	<path class="st8" d="M2062.3,1785c0.7,0.1,1.5,0.2,2.2,0.3c-0.4,1.2-1.2,2.4-2.6,1.8C2061,1786.7,2061.6,1785.6,2062.3,1785z"/>
	<path class="st7" d="M1515.9,1820.4c0.1-12,0.8-13,12.8-13.7c20.5-1.2,33.3-15.6,37.3-32.9c3-13.1-6.4-29.3-20.5-36.4
		c-6.8-3.4-7.6-4.7-5.1-11.7c3.3-9.3,6.7-18.7,11-27.6c2.3-4.8,3-10.1,5.3-14.9c2.3-5,5.5-5.5,9.5-4.2c6.9,2.1,13.9,4.4,20.5,7.5
		c5.4,2.5,11.1,4.4,16.5,6.7c20.4,8.8,41.9,14.5,62.8,22c15.5,5.6,30.8,11.9,46.4,17.4c8.1,2.8,16.7,4.3,24.9,6.9
		c8,2.5,8.4,3.6,7,12.2c-3.7,23.9-9.4,47.3-15,70.9c-4.2,17.7-10.7,34.8-13.3,52.9c-3-1.4-5.8-2.6-9.4-2.4c-7,0.4-13.8-2.3-17.8-7.5
		c-5.5-7-11.4-9.2-19.6-6.5c-0.7,0.2-1.3-0.2-1.5-1.2c0-2.4-0.5-5.2,0.1-7.7c3-12.1-0.3-22.8-6-33.3c-7.1-12.9-18.7-20.4-31.5-26.1
		c-8.5-3.8-17.7-1.1-26.6-0.5c-2,0.1-3.4,1.8-5,3c-11.6,8.8-22,18.7-28.9,32.7c-5.2-6.7-10.2-5.8-17-3.3c-9.9,3.5-21.1,7.2-29.8-3.9
		C1520.7,1815.8,1517.6,1817.1,1515.9,1820.4z M1651.9,1728.3c-0.1-2.3-0.6-4.4-2.8-5c-1.7-0.5-3,1.2-3.8,2.6
		c-0.7,1.1-1,2.4-1.4,3.7c-4.6,15.5-9.1,31-13.6,46.5c-0.3,0.9-0.4,2-0.4,2.9c-0.1,1.8,0.5,3.3,2.4,3.8c1.8,0.5,3.4,0.1,4.3-1.5
		c0.8-1.4,1.1-3.1,1.6-4.6c4.7-15.1,6.9-30.9,13-45.6C1651.5,1730.1,1651.7,1729.1,1651.9,1728.3z M1591.6,1726.4
		c-2.3,3.2-2.4,5.6-1.9,7.7c3.3,13.1,6.8,26.2,10.2,39.3c0.7,2.6,2.1,4.3,4.9,3.6c3.6-0.9,3-3.7,2.2-6.4
		c-3.1-10.8-6.2-21.5-9.2-32.3C1596.6,1734.2,1595.2,1730.3,1591.6,1726.4z M1697.5,1777.8c-1-1.9-2.3-3.4-4.7-2.3
		c-8.6,4.2-17.1,8.4-25.6,12.7c-2.2,1.1-3.5,2.7-1.8,5.5c1.6,2.6,3.4,2.9,5.7,1.6c7.8-4.2,15.6-8.5,23.3-12.8
		C1696.2,1781.6,1697.6,1780.1,1697.5,1777.8z M1687.5,1836.6c6.7-2.2,14.4-4.8,22.3-7.2c2.4-0.7,4.8-1.3,3.9-4.4
		c-0.8-2.7-3.4-2.9-5.7-2.6c-8.2,1.2-15.9,4-23.6,6.7c-2.1,0.7-2.8,2.7-2.5,4.8C1682.1,1836.7,1684.3,1836.7,1687.5,1836.6z
		 M1573.3,1777c-1.2,0.3-2.6,0.7-2.7,2.4c-0.3,4.4,6.3,10.5,10.4,9.8c1.4-0.2,2.6-0.8,2.7-2.4
		C1583.9,1783.8,1576.7,1777.1,1573.3,1777z"/>
	<path class="st9" d="M1715.2,1878.1c-2.4,9-5.1,17.8-7,26.9c-1,4.5-2.5,6.5-7.3,5.3c-15.7-4-31.4-8-46.8-13
		c-18.6-6-37.4-11.2-56.3-16.1c-10-2.6-19.4-6.8-29.2-9.5c-17.2-4.7-34-11-51.6-14.6c-11.5-2.4-12.2-3-8.3-13.7
		c2.8-7.7,1.6-16.5,7.3-23.2c7.5,15.2,14.2,16.3,27.7,14.5c5.5-0.7,10.7-2.3,14.6-5.1c19.1,18.6,39.7,29.2,66.1,21
		c3.4-1.1,5.2,0.2,6.4,2.7c2.4,4.9,6.6,8.4,10.4,11.9c9,8.1,19.4,12.8,31.7,7.8c4.4-1.8,7.5-0.1,11.1,1.6
		C1693.9,1879.3,1704,1883.5,1715.2,1878.1z"/>
	<path class="st5" d="M1715.2,1878.1c-11.2,5.5-21.3,1.2-31.2-3.6c-3.6-1.7-6.7-3.4-11.1-1.6c-12.3,5-22.7,0.3-31.7-7.8
		c-3.8-3.5-8-7-10.4-11.9c-1.2-2.5-2.9-3.8-6.4-2.7c-26.4,8.2-46.9-2.4-66.1-21c-3.8,2.8-9.1,4.3-14.6,5.1
		c-13.5,1.8-20.3,0.7-27.7-14.5c0,0-0.1,0.3-0.1,0.3c1.8-3.3,4.8-4.6,7.1-1.7c8.8,11.1,19.9,7.4,29.8,3.9c6.8-2.4,11.8-3.3,17,3.3
		c6.9-14,17.3-23.9,28.9-32.7c1.6-1.2,3-2.9,5-3c8.9-0.5,18.1-3.2,26.6,0.5c12.8,5.7,24.4,13.2,31.5,26.1c5.8,10.5,9.1,21.2,6,33.3
		c-0.6,2.5-0.1,5.2-0.1,7.7c0.3,1,0.8,1.4,1.5,1.2c8.2-2.7,14-0.5,19.6,6.5c4.1,5.1,10.8,7.9,17.8,7.5c3.6-0.2,6.4,1.1,9.4,2.4
		C1715.8,1876.3,1715.5,1877.2,1715.2,1878.1z M1659.6,1839.9c-0.6-8.7-1.5-17.4-8.3-23.8c-5.8-5.5-12.2-10.3-19.2-14.1
		c-8.8-4.9-17.7-5-26.4,0.7c-3.3,2.2-6.8,4.2-10.1,6.4c-5.1,3.4-9,7.6-11.5,13.4c-4.8,11.2-2.5,17.5,9.2,19.9
		c10.9,2.3,22.1,4.3,33.1-1.2c6-3,8-2,11,4.1c2.1,4.3,4.9,7.9,8.3,11.1c4.9,4.7,7.8,4,10.6-2
		C1658.3,1849.8,1659.7,1845,1659.6,1839.9z"/>
	<path class="st7" d="M1498.2,1775.1c0.4-21.2,11.4-35.1,30-33.9c14.9,0.9,29,12.2,29.1,24.6c0.2,16.7-16.3,32.8-33.5,32.8
		C1507.5,1798.5,1498,1789.9,1498.2,1775.1z"/>
	<path class="st7" d="M2115.6,914.2c-1.1-17.7-1.9-36-1-54.2c0.8-15.2,0.6-30.4,3.5-45.5c3.8-19.4,7.5-17.2,25.4-18.5
		c9.5-0.6,12.2,4.5,14.7,12.7c3.5,11.2,5.2,22.6,7,34.1c0.7,4.7,2.5,10.8-5.4,12.8c-3,0.8-2.6,4.4-2,7c6.6,29,4.6,58.3,3.2,87.5
		c-0.8,16.5-3.3,33-6.9,49.3c-1.1,5.1-3.8,9.3-6.3,13.5c-3.3,5.5-7.8,5.1-12,0.1c-6.9-8.2-10-18.2-11.8-28.1
		C2119.9,961.6,2114.8,938.5,2115.6,914.2z"/>
	<path class="st10" d="M2171.2,992.7c-5.1-3.3-6.6-7.2-5.8-13.3c4.7-35.3,4.7-70.7,4-106.2c-0.1-5.2,0.2-9,5.9-10.8
		c7-2.2,9.5-8.2,9.9-14.7c0.9-13.9,0.9-27.8-3.1-41.4c-0.5-1.7-1.7-4.2,0.9-5.1c2.6-0.9,4.2,1,5.2,3.4c2,5.1,2,10.5,1.9,15.7
		c-0.1,16.2-0.7,32.5-3.3,48.6c-1.9,11.5-0.8,23.2-2.9,34.7c-4.7,24.8-4.5,50.1-8.3,75C2174.8,983.4,2174.7,988.4,2171.2,992.7z"/>
	<path class="st8" d="M2168.5,803.9c8.4,13.4,9.3,27.7,6.4,42.6C2174.8,831.9,2168.5,818.3,2168.5,803.9z"/>
	<path class="st8" d="M2167.8,799.5c-0.3,0.5-0.7,1-1,1.5c-0.3-0.6-0.8-1.1-0.8-1.7c0-0.5,0.6-1,0.9-1.5
		C2167.2,798.4,2167.5,798.9,2167.8,799.5z"/>
	<path class="st6" d="M1738.9,307c0.6,1.1,1.1,1.9,1.3,2.8c3.3,14.1,14.7,17.6,26.6,20.5c3.9,1,7.3-0.7,10.4-2.6
		c9.2-5.8,16.8-12.9,19.2-24.2c0.8-3.7,2.1-6.7,6.8-7.1c13.9-1.1,27.2-5.9,41.3-5.9c5,0,8.5,1.2,11,5c5,7.4,10.5,14.5,13.4,23.2
		c5.5,16.6,8.3,33.7,8.2,51c-0.1,18.9-3.6,37.6-9.7,55.7c-2.4,7.1-4.3,7.8-11.8,7.9c-28.2,0.5-56.5-0.6-84.7,1.2
		c-16.6,1.1-33.3,0.5-49.9,0.7c-3.6,0-5.9-1.1-4.9-5.2c0.9-3.9,1.5-7.9,2.9-11.5c9-23.1,10.5-46.9,7.3-71.3
		c-1.4-10.9-2.5-21.8-8.7-31.3c-2-3,0.3-4.2,2.8-4.7C1726.5,309.6,1732.6,308.3,1738.9,307z"/>
	<path class="st9" d="M1787.3,294.7c-1.3,3.9-1.1,8.5-3.6,12.1c-3.6,5.3-6.1,12.4-14.5,11.6c-7.7-0.8-16.4-8.8-18-16
		c-2.4-10.6,9.1-22.3,21.1-21.6C1781.4,281.3,1787.7,287.1,1787.3,294.7z"/>
	<path class="st5" d="M2000.8,912.8c-3.5-0.2-6,0.4-8.3,2.1c-2.4,1.8-5,3.3-7.5,4.9c-7.7,4.8-12.8,5.6-18.9-0.4
		c-7.8-7.7-14.7-7.9-23.2-1.9c-5.1,3.6-11,6.2-16.9,8.5c-4.6,1.8-8.9,1.8-13.4-0.3c-9-4-16.7-9.2-21.7-18.1
		c-6.9-12.3-10.8-13.6-24.4-10.9c-9.9,2-19.3,4.6-27.2,11.4c-4.1,3.5-9.5,4.6-14.6,6.2c-5.5,1.8-9.8-1.2-13.3-4.8
		c-3.2-3.3-6.7-6.5-9.8-9.9c-4.3-4.6-7.9-3.6-12-0.3c-5.4,4.4-10.5,9.2-16.2,13.2c-6.2,4.4-9.6,3.4-12-3.7
		c-1.8-5.2-4.7-10.5-1.9-16.4c1.8-3.7,4.2-4,6.5-0.7c7.5,10.3,7.5,10.3,17.8,2.6c2.1-1.6,4.2-3.3,6.5-4.6c6-3.7,10-3.3,15.5,1.2
		c1.8,1.5,3.5,3,5.2,4.5c12.1,10.3,14.5,10.6,28.7,3.3c5.3-2.7,10.5-5.7,15.7-8.8c5-3,10.3-4.7,15.9-5.3c6.7-0.8,12.6,1,17.1,6.1
		c5.3,5.9,10.7,11.8,15.7,18c7.9,9.8,13.4,11.3,24.9,6.3c7-3.1,13.9-6.2,20.4-10.2c8.4-5.3,10.1-5,17.7,0.9c0.8,0.6,1.5,1.3,2.4,1.8
		c3,1.9,4,7.4,7.9,6.6c3.3-0.6,6.1-3.8,8.9-6.1c4.2-3.5,9.4-5.5,14.4-6.4c14.5-2.6,22.8,5.4,25.1,20.1c0.3,2.2,0,4.1-2.1,5.1
		c-3,1.4-4.2-1.1-5.3-3.1C2014.6,916.2,2008.5,912.4,2000.8,912.8z"/>
	<path class="st3" d="M1845.4,818.7c7.3-4.1,14.7-7.8,21.5-12.4c6.6-4.5,12.4-3.7,18.2,0.8c6.3,4.8,12.5,9.9,19,14.5
		c6,4.4,7.9,4.5,12.8-0.9c8.7-9.7,20.8-12.7,32.1-17.1c2.2-0.8,4.6-0.4,6.8,0.6c6.8,3.2,12.7,8,15.7,14.5c2.6,5.7,5.7,6.7,10.8,5.1
		c12.3-3.8,25-3.4,37.6-3.2c7.2,0.1,13.8,7.4,13.5,14.4c-0.1,2.3-0.8,3.9-3,4.6c-2.4,0.7-4.2-0.8-4.5-2.7c-1.5-8.8-8-8.5-14.5-8.2
		c-12.8,0.8-25.8,0-38.1,5.7c-6.5,3-10.3,0.5-14.1-6.5c-1.9-3.5-3.9-7-6.8-9.8c-4.5-4.3-8-5-13.4-1.6c-5.9,3.7-11.5,7.9-17.2,11.8
		c-9.8,6.7-13.6,6.7-23.3-0.5c-4.3-3.2-8.3-6.6-12.4-10c-8-6.6-11.5-6.6-20.6-1.3c-5,2.9-9.1,6.6-13.2,10.4c-6.5,6-10,5.6-15.3-1.7
		c-2.9-4.1-5.5-8.3-7.1-13.1c-1.2-3.8-3.6-4.2-7-3.2c-5.2,1.6-9.6,4.5-13.8,7.8c-5,3.8-10.3,7.2-16.7,8.5c-9.6,2-17.6-6.2-14.8-16.5
		c0.7-2.4,2.1-4.6,4.7-4.4c2,0.1,2.9,2.3,3.6,4.3c2.5,7.3,4.3,8.1,11.4,4.6c7.8-3.8,14.4-9.6,22.9-12c3-0.9,5.5-5.1,9-2.8
		c3.8,2.5,8,5,10,9.4C1841.1,811.4,1842.3,815.2,1845.4,818.7z"/>
	<path class="st11" d="M1799.9,713.1c4.4-2.8,9.1-5.9,13.8-8.9c3.6-2.3,7.3-4.6,11.4-6.1c4.3-1.6,7.9-1,10.3,3.2
		c2.2,3.9,6.1,6.1,8.9,9.4c3.5,4.2,7.3,3.8,11.3,0.8c4.2-3.2,8.3-6.4,13.4-8.5c9.4-4,17.5-2.1,25.2,3.7c1.3,1,2.5,2.2,3.7,3.3
		c2.8,2.5,5.4,3.1,8.6,0c3.8-3.7,8-7,12.3-10.2c7.6-5.6,14.2-4,18.8,4.4c2.1,3.8,4.3,7.6,5.8,11.6c2.3,6.5,6.5,6.5,11.9,3.8
		c3.2-1.6,5.9-4,9.6-5.1c7.4-2.3,14-1.8,19.2,4.1c5.9,6.6,12.5,7.8,20.5,4.9c2.5-0.9,5.2-1,7.8-1.7c8.1-2.3,15,0.8,21.8,4.5
		c2.5,1.4,4.1,4,3.1,6.7c-1.2,3.4-4.5,2.4-6.7,1.3c-8.7-3.9-17.4-3.5-26.2-0.9c-1.6,0.5-3.2,0.8-4.8,1.2c-8.9,2.2-16.4,1-23.3-6.3
		c-5.2-5.6-12.3-5.1-19.1-0.8c-1.4,0.9-2.6,2.1-4.1,2.8c-7.8,3.5-11.7,2.2-14.6-6c-2.2-6.1-5.3-11.4-9.1-16.5
		c-2.4-3.2-4.9-3.6-8.4-1c-3.7,2.7-5.8,6.4-8.3,9.9c-5.5,7.8-5.4,7.9-13.9,2.8c-1.1-0.7-2.5-1.1-3.4-2c-10.9-10-22.3-8.2-33.8-1.3
		c-14.6,8.8-17.5,8.4-28.2-4.4c-6.4-7.7-10.4-7-15.5-1.5c-4.1,4.4-8.8,8.1-13,12.3c-2.7,2.7-5,2.7-7.8,0.5
		c-4.5-3.5-8.5-7.5-10.3-13.2c-0.8-2.5-0.3-4.7,2.1-6c2.1-1.1,3.9,0.2,5.3,1.6C1796.3,707.6,1796.4,711.3,1799.9,713.1z"/>
	<path class="st3" d="M1771.6,991.4c5.4-4.5,10.9-8.3,15.5-13c3.2-3.3,7.1-5,10.9-6.7c5.3-2.4,10.5-1.2,14.5,3.4
		c4.6,5.3,8.5,11.1,11,17.7c1.8,4.7,4.1,5.2,8.4,3c11.6-5.8,23.4-11.1,34.9-17c4.9-2.5,8.1-0.8,11.1,2.8c1.1,1.3,2,2.6,3.1,3.9
		c10.3,13.1,28.7,18.9,44.6,13.7c7.9-2.6,14.4-8,21.3-12.5c3-2,6.1-4.1,8.6-6.7c6.6-6.8,10.9-3.6,16.5,0.5c1.3,1,2.7,2.2,3.3,3.7
		c3.4,8.1,8.3,12.1,18.2,11c5.8-0.6,10.6,5.3,12.5,11.2c1.9,6-0.2,11.8-4.2,16.6c-1.8,2.1-4.2,1.6-5.7-1c-1.7-3-1.7-6.3-1.9-9.7
		c-0.3-7.4-1.5-9-8.9-8.7c-6.9,0.2-10.8-1.9-13.7-8.5c-4.3-9.8-7.9-10.2-16.9-4.2c-8,5.4-15.5,11.1-24.5,15.1
		c-10.5,4.8-20.5,3-31,1.3c-10.3-1.7-17.2-7.8-23.6-15.4c-5.3-6.3-7.2-6.6-14.4-2.7c-7.3,4-14.3,8.4-21.5,12.6
		c-1.4,0.8-2.8,1.9-4.2,2.6c-10.1,5.1-13.7,4.2-19.6-5.5c-2.4-3.9-4.1-8.3-6.1-12.5c-2.8-5.8-5.2-7-10.9-4.6
		c-4.9,2.1-9.9,4-13.4,8.4c-1.2,1.5-2.9,2.8-4.4,4c-11.9,9.9-16.1,8.7-20.5-6.2c-1.3-4.4-1.3-9.2-1.9-13.8c-0.3-1.8,0-3.4,2-3.9
		c2.1-0.5,4.1,0.2,5.1,2.1c0.7,1.4,0.6,3.2,0.6,4.9c0,2.4,0.5,4.6,1.3,6.8C1768.4,986.4,1768.6,988.9,1771.6,991.4z"/>
	<path class="st5" d="M1832.9,639.5c5-2.6,6.2-8,9.4-11.8c7.8-9.5,13.6-11.7,25.6-5.5c4.8,2.5,9.5,4.9,13.2,8.8
		c3.5,3.7,7.1,3.2,10.6,0.6c6.4-4.9,14.4-6.9,21.2-10.9c9.3-5.5,20.6,2.6,26,10.9c5.5,8.4,5.1,8.5,14.8,5.6c4.5-1.3,9-2.2,13.6-2.9
		c7.9-1.2,14.2,1,19.9,6.4c5.6,5.2,5.8,5,12,0.1c9.3-7.5,16.9-8.1,24.4-2.2c5.6,4.4,5.5,10.9,6.2,17.1c0.1,1.3-0.9,2.5-2.4,2.8
		c-1.4,0.2-2.6-0.4-3.3-1.6c-0.7-1.1-1.3-2.3-1.9-3.5c-3.7-7.6-3.9-7.7-12-5.6c-3.2,0.8-6.8,1.2-9.4,3.1c-6,4.3-10.9,3.3-16.2-0.9
		c-10.7-8.6-21.8-8.3-33.2-1.3c-1.4,0.9-3,1.5-4.6,2c-5.1,1.7-7.4,1-9.1-4c-1.6-4.5-4.3-8.3-7-11.9c-4.9-6.4-8.9-7-16.6-4.1
		c-6.3,2.4-11,7.3-16.9,10.3c-10.7,5.5-10.6,5.9-18.8-2c-3.6-3.5-7.9-5.9-12.3-8.4c-6.3-3.6-11.1-2.8-15.8,2.5
		c-4,4.5-8.2,8.7-12.5,12.9c-4.6,4.6-7.9,4.6-13,0.7c-3.6-2.7-5.5-6.6-7.9-10.2c-1.6-2.5-3.1-5.1-4.9-7.5c-2.4-3.2-4.9-3.1-7,0.4
		c-1.2,2-1.8,4.4-3.2,6.2c-1.6,2-4.2,2-6.3,0.7c-2-1.2-2.2-3.6-1.1-5.3c2.8-4.5,5.6-9.1,9.2-12.9c3-3.1,10-0.7,13.4,4.4
		C1821.4,628.8,1826.1,635.1,1832.9,639.5z"/>
	<path class="st5" d="M1689.5,958.6c0.2-2,0.2-5.4,0.8-8.6c0.8-4,3.4-6.5,7.6-6.7c8-0.4,15.8,1.2,23.5,3c2.5,0.6,3.9,2.2,5,4.4
		c1.5,3.2,0.5,5.3-2.9,5.8c-2.9,0.4-6,0.7-8.9-0.5c-2.5-1.1-5.1-1.3-7.8-1.3c-6.2,0.1-6.5,0.3-6.5,6.8c0,2,0,4,0,6
		c0.3,8.2,0.8,8.6,9.4,9c4,0.2,8.2-1,11.8,0.9c6.2,3.3,8.6,8.9,8.8,15.7c0.2,6.8-2.2,11.9-7.9,16.1c-9.6,7.1-19.6,6.4-30.1,3.1
		c-2.5-0.8-5.1-1.5-7.5-2.4c-1.6-0.6-3.1-1.6-3.1-3.5c0-2.6,2.2-3,4.1-3.4c2.7-0.7,5.2-0.3,7.8,0.8c8.9,3.5,17,0.7,24.6-3.7
		c4.9-2.8,5-6.9,0.6-10.4c-4.6-3.6-9.9-3.5-15.3-2.4c-7.5,1.5-10.8-0.8-11.9-8.5C1690.7,972.5,1690.3,966.2,1689.5,958.6z"/>
	<path class="st11" d="M1738,790.5c-3.4-2.9-6.9-3.2-10.5-3.2c-5.1,0-9.8-1.9-14.2-4c-4-1.9-3.8-4.4,0-7c3.1-2.1,5.9-3.1,10-1.8
		c6.5,2.1,13.5,3.1,20.2,4.6c6.7,1.6,8.7,4.7,4.4,9.3c-7.6,8.1-6.8,15.7-3.1,25.1c3.2,8.1-0.6,16.3-4.4,23.7
		c-0.7,1.4-2.2,2.5-3.6,3.3c-9.8,5.6-24.5,1.7-30.6-7.9c-1.1-1.7-2.3-3.2-0.7-5.3c1.8-2.3,3.8-2.1,6.2-1c4.1,2,8,4.7,12.9,4.8
		c7.1,0.1,9.6-1.3,12.2-7.6c2-5,1.2-7-4-9c-1.2-0.5-2.5-0.9-3.8-1.2c-4.4-1.1-4.9-2.8-2.4-7C1729.9,800.8,1735,796.4,1738,790.5z"/>
	<path class="st3" d="M1719.5,905.5c-5.8,0-10.4-0.1-15.1,0c-5.7,0.2-8.9-2-9-7.4c-0.2-8.6,0.2-17.3,2.5-25.7c0.7-2.3,1.4-5,4.1-4.7
		c2.7,0.3,2.8,3.4,3.2,5.5c0.3,1.9,0.1,4-0.4,5.9c-0.9,3.3-0.6,6.6-0.7,9.9c-0.1,4.2,1.4,6.5,6,4.9c0.3-0.1,0.6-0.2,1-0.3
		c3.7-1.2,8.4,1.3,11.4-1.9c2.7-2.8,0.9-7.1,1.9-10.5c0.6-2.2,1.3-4.5,2.2-6.6c0.8-1.7,1.7-3.9,4.3-2.8c2.2,0.9,2.6,2.9,2.2,5
		c-0.3,1.6-1,3.2-1.4,4.8c-0.5,2.3-1.9,5.1-1.1,6.7c5.7,11.9-6,21.9-3.2,33.5c0.7,3-2.1,3.4-4.7,1.8c-2.6-1.6-3.4-3.9-3.4-6.7
		C1719.5,913.2,1719.5,909.6,1719.5,905.5z"/>
	<path class="st11" d="M1732.3,724c7.7,0.4,13,0.6,18.2,1.1c2.3,0.2,4.5,1,6.7,1.6c1.4,0.4,2.3,1.5,2.1,2.9
		c-0.2,1.3-0.8,2.7-2.2,3.1c-1.9,0.6-3.9,1.5-5.8,1.3c-9.3-1.3-18.6-0.4-27.9-0.7c-2-0.1-4.2,0.1-4.9-2.4c-0.6-2.1,0.1-4.2,1.7-5.4
		c6.9-5.5,10.7-13.5,16.5-19.9c2.8-3,3.4-6.3,3.6-10c0.3-7-0.9-7.9-7.9-5.5c-1.6,0.6-3.1,1.1-4.8,0.9c-3.2-0.4-4.5-3-3-5.8
		c4.2-8.1,14.6-8.7,20.1-1.4c6.2,8.2,6.6,16-2.7,29.1C1739.6,716.4,1736.5,719.4,1732.3,724z"/>
	<path class="st11" d="M1740.2,637.6c2.1-10.2,1-21.5,1.3-32.8c0.1-3.5,1.4-5.9,5.3-5.5c3.2,0.4,4.4,2.8,4.1,5.7
		c-1,11.6-2.2,23.1-3.3,34.7c-0.1,0.7-0.2,1.3-0.4,1.9c-0.7,2-1.7,3.7-4.2,3.4c-2.7-0.3-2.7-2.5-2.8-4.5
		C1740.2,639.9,1740.2,639.3,1740.2,637.6z"/>
	<path class="st12" d="M2061.5,1567.3c-1.9-0.5-3-1-3.5-2.4c-0.6-1.8,0-3.4,1.5-4.3c4.8-2.9,9.9-5.5,14.6-8.5
		c24.3-15.5,51-26.9,74.9-43.1c3.8-2.6,8.3-4.2,12.4-6.4c3.1-1.7,5.4-2.1,7.1,1.8c1.7,3.9,0.5,6.8-3,8.1
		c-7.3,2.6-13.6,6.9-20.2,10.7c-12.1,6.9-25.2,12-36.9,19.3c-14.2,8.7-30.2,13.9-43.9,23.3
		C2063.6,1566.5,2062.3,1566.9,2061.5,1567.3z"/>
	<path class="st11" d="M2158,1539.9c-0.8,5-4.2,8.1-8.4,10.3c-10.3,5.2-20.6,10.2-30.9,15.3c-9.7,4.9-19.6,9.5-29,15.1
		c-3.6,2.1-5.3,1.2-7.6-0.9c-2.9-2.6-3-5,0.7-7c7.3-3.8,14.6-7.7,22-11.4c11.3-5.6,22.7-10.6,33.5-17.3c4.7-2.9,10.2-4.7,15.4-6.8
		C2156,1536.3,2157.3,1537.6,2158,1539.9z"/>
	<path class="st5" d="M2060.4,1533.1c-3.4-0.2-6.1-0.3-6.9-2.9c-0.7-2.1,1.1-3.8,2.8-4.8c18.8-11.8,38.7-21.6,58.3-31.9
		c1.2-0.6,2.5-0.8,3.7-1.5c3.9-2.1,5.6,1.2,7.2,3.3c2.3,2.9-0.8,4.1-2.7,5.1c-14.3,7.6-28.7,15.1-43,22.7c-4.1,2.2-8.1,4.6-12.2,6.7
		C2065,1531.3,2062.4,1533,2060.4,1533.1z"/>
	<path class="st12" d="M2100.1,1705.4c3.7-5.6,7-11.6,14.3-13.6c4.6-1.3,7.7-5,11.6-7.4c13.5-8.5,29.3-12.2,42.6-21.1
		c3.8-2.6,7.9-4.8,12-6.8c2.8-1.4,6.5-3.7,8.6,0.6c2.1,4.3-1.8,5.7-4.8,7.1c-10.2,4.7-20.3,9.8-30.7,14
		c-13.1,5.2-24.7,12.7-35.7,21.2c-4.3,3.3-9.3,5-13.9,7.5C2102.9,1707.5,2101.6,1706.9,2100.1,1705.4z"/>
	<path class="st13" d="M2097.1,1397.6c-0.4,1.8-2.1,2.3-3.3,3.3c-15.3,11.8-32.6,20.2-50,28.3c-5.7,2.7-11,6-16.5,8.9
		c-2.8,1.5-5.3,5.3-8.1,0.6c-2.8-4.7,1.1-6.7,4.3-8.3c8-3.9,16.1-7.7,24.4-11c12.1-4.7,22.9-11.4,33.5-18.7c3.5-2.4,6.8-5.3,11-6.7
		C2094.6,1393.4,2097.5,1395.6,2097.1,1397.6z"/>
	<path class="st13" d="M2109.9,1724.8c-1.1-0.3-2.8-0.4-3.4-2.4c-0.5-1.8-0.1-3.6,1.3-4.5c3.3-2.1,6.9-3.8,10.2-5.9
		c9.8-6.2,19.6-12.2,30.5-16.5c8.6-3.4,15.7-9.9,24.6-12.9c1.8-0.6,3.3-2.1,5.4-2.1c2.3,0,5.1-0.2,5.8,2.6c1,3.6-2.2,2.9-4.2,3.7
		c-5.1,2.1-10.4,4.1-15.1,7c-11,6.7-22.5,12.4-34.2,17.7c-5.8,2.6-10.3,7-15.5,10.6C2113.7,1723.3,2112.8,1725.4,2109.9,1724.8z"/>
	<path class="st12" d="M2170,1620.8c0,3.7-1.3,6.1-4.4,7.6c-13.3,6.9-26.5,13.8-39.7,20.8c-3,1.6-6,3.3-8.4-1
		c-2.5-4.4,0.3-6,3.5-7.6c5.6-3,11.1-6.1,16.7-8.9c8.9-4.4,18.1-8.4,26.9-12.9C2168,1617.1,2169.5,1617.7,2170,1620.8z"/>
	<path class="st12" d="M2025.9,1424.2c-1-0.8-2.3-1.4-3-2.4c-1.2-1.7-0.1-3.3,1.2-4.3c2.3-1.8,4.8-3.6,7.3-5.1
		c9.4-5.4,18.8-10.9,28.3-16.1c4.5-2.5,7.3-1.6,9,2.2c1.8,4.2-0.9,6-4.1,7.6c-11.9,5.7-23.8,11.4-35.7,17.1
		C2028,1423.6,2027.1,1423.8,2025.9,1424.2z"/>
	<path class="st13" d="M2119.1,1592.1c-2.2-0.1-2.7-1.4-2.7-2.7c0-0.9,0.3-2.1,0.8-2.8c6-8.2,14.3-13.3,23.5-17
		c1.7-0.7,3,0.7,3.8,2.4c0.9,1.8,0.3,3.3-1.1,4.4c-2.1,1.6-4.3,3-6.5,4.5c-4.6,3.2-9.1,6.4-13.8,9.5
		C2121.7,1591.2,2120.1,1591.7,2119.1,1592.1z"/>
	<path class="st13" d="M2078.6,1499.1c0.6-2.8,2.4-4.4,5.4-4.5c2.3,0,4,1.2,3.7,3.5c-0.4,2.7-2.4,5.2-4.8,5.6
		C2080.4,1504.2,2079.1,1501.6,2078.6,1499.1z"/>
	<path class="st12" d="M1651.9,1728.3c-0.2,0.8-0.4,1.8-0.8,2.7c-6.1,14.7-8.3,30.5-13,45.6c-0.5,1.6-0.8,3.2-1.6,4.6
		c-0.9,1.6-2.5,2.1-4.3,1.5c-1.8-0.6-2.5-2-2.4-3.8c0.1-1,0.2-2,0.4-2.9c4.5-15.5,9.1-31,13.6-46.5c0.4-1.3,0.8-2.6,1.4-3.7
		c0.8-1.4,2.1-3.1,3.8-2.6C1651.3,1723.9,1651.8,1726.1,1651.9,1728.3z"/>
	<path class="st12" d="M1591.6,1726.4c3.6,3.9,5.1,7.8,6.2,11.9c3,10.8,6.1,21.5,9.2,32.3c0.8,2.7,1.3,5.5-2.2,6.4
		c-2.7,0.7-4.2-1-4.9-3.6c-3.4-13.1-6.9-26.2-10.2-39.3C1589.1,1732,1589.2,1729.6,1591.6,1726.4z"/>
	<path class="st13" d="M1697.5,1777.8c0.1,2.3-1.4,3.8-3.1,4.7c-7.7,4.4-15.5,8.6-23.3,12.8c-2.3,1.3-4.2,0.9-5.7-1.6
		c-1.8-2.8-0.5-4.4,1.8-5.5c8.5-4.3,17.1-8.5,25.6-12.7C1695.2,1774.4,1696.5,1775.9,1697.5,1777.8z"/>
	<path class="st12" d="M1687.5,1836.6c-3.2,0.1-5.4,0.1-5.7-2.6c-0.3-2.1,0.4-4.1,2.5-4.8c7.7-2.7,15.5-5.5,23.6-6.7
		c2.4-0.4,4.9-0.2,5.7,2.6c0.9,3-1.5,3.7-3.9,4.4C1701.9,1831.8,1694.2,1834.4,1687.5,1836.6z"/>
	<path class="st13" d="M1573.3,1777c3.4,0.1,10.6,6.8,10.4,9.8c-0.1,1.6-1.3,2.1-2.7,2.4c-4.2,0.7-10.8-5.5-10.4-9.8
		C1570.7,1777.7,1572,1777.3,1573.3,1777z"/>
	<path class="st7" d="M1659.6,1839.9c0.1,5.1-1.2,9.9-3.3,14.5c-2.8,6-5.8,6.6-10.6,2c-3.3-3.2-6.2-6.8-8.3-11.1
		c-3-6.1-5-7.1-11-4.1c-11,5.6-22.2,3.5-33.1,1.2c-11.8-2.4-14-8.8-9.2-19.9c2.5-5.8,6.4-10,11.5-13.4c3.3-2.2,6.8-4.2,10.1-6.4
		c8.7-5.7,17.6-5.6,26.4-0.7c7,3.9,13.4,8.7,19.2,14.1C1658,1822.5,1659,1831.2,1659.6,1839.9z"/>
</g>
</svg>
