<?xml version="1.0" encoding="UTF-8" standalone="no"?>
<svg
   xmlns:dc="http://purl.org/dc/elements/1.1/"
   xmlns:cc="http://creativecommons.org/ns#"
   xmlns:rdf="http://www.w3.org/1999/02/22-rdf-syntax-ns#"
   xmlns:svg="http://www.w3.org/2000/svg"
   xmlns="http://www.w3.org/2000/svg"
   xmlns:sodipodi="http://sodipodi.sourceforge.net/DTD/sodipodi-0.dtd"
   xmlns:inkscape="http://www.inkscape.org/namespaces/inkscape"
   viewBox="0 0 266.03608 266"
   version="1.1"
   id="svg1889"
   sodipodi:docname="sos-logo-only.svg"
   width="266.03607"
   height="266"
   inkscape:version="1.0.2 (394de47547, 2021-03-26)">
  <metadata
     id="metadata1895">
    <rdf:RDF>
      <cc:Work
         rdf:about="">
        <dc:format>image/svg+xml</dc:format>
        <dc:type
           rdf:resource="http://purl.org/dc/dcmitype/StillImage" />
        <dc:title></dc:title>
      </cc:Work>
    </rdf:RDF>
  </metadata>
  <defs
     id="defs1893" />
  <sodipodi:namedview
     pagecolor="#ffffff"
     bordercolor="#666666"
     borderopacity="1"
     objecttolerance="10"
     gridtolerance="10"
     guidetolerance="10"
     inkscape:pageopacity="0"
     inkscape:pageshadow="2"
     inkscape:window-width="1920"
     inkscape:window-height="1016"
     id="namedview1891"
     showgrid="false"
     fit-margin-top="5"
     fit-margin-left="5"
     fit-margin-bottom="5"
     fit-margin-right="5"
     inkscape:zoom="1.2724635"
     inkscape:cx="400.22072"
     inkscape:cy="140.90443"
     inkscape:window-x="1920"
     inkscape:window-y="27"
     inkscape:window-maximized="1"
     inkscape:current-layer="svg1889" />
  <g
     fill="#ff4c4c"
     id="g1883"
     transform="translate(5.1079276,5)">
    <path
       d="m 128,77.5 c -13.8,0 -25.5,4.9 -35,14.8 -9.5,9.8 -14.3,21.8 -14.3,35.8 0,14 4.8,26 14.3,35.8 9.5,9.8 21.2,14.8 35,14.8 13.8,0 25.5,-4.9 35,-14.8 9.5,-9.8 14.3,-21.8 14.3,-35.8 0,-14 -4.8,-26 -14.3,-35.8 -9.5,-9.9 -21.2,-14.8 -35,-14.8 z m 76.5,-22.1 c 0.1,0 0.2,0.2 0.3,0.2 h 0.3 c -0.1,0 -0.3,-0.1 -0.4,-0.2 0.1,0.1 0.3,0.2 0.4,0.2 -0.2,0.1 -0.4,0.1 -0.6,-0.2 z m 0.2,0 -0.3,-0.3 c 0.1,0.2 0.2,0.3 0.3,0.3 z"
       id="path1879" />
    <path
       d="m 232.3,83.6 c -2.4,-1.2 -4.8,-2.2 -7.6,-3.2 -7,-2.4 -14,-3.6 -20.8,-3.6 -4.8,0 -9,0.7 -12.6,2.1 -2,-2.5 -4.1,-4.9 -6.5,-7.3 -3.4,-3.3 -7,-6.2 -10.8,-8.8 8.5,-5.1 18.6,-7.7 30.4,-7.7 -0.5,-0.6 -1,-1.5 -1.5,-2 C 167.6,17.8 147.8,0 127.9,0 c -19.8,0 -39.6,17.6 -75,53 -0.8,0.8 -1.6,1.5 -2.4,2.3 7.5,0.4 15,1.7 22.4,4.2 3,1 5.9,2.2 8.6,3.5 -3.7,2.6 -7.3,5.4 -10.6,8.7 -2.6,2.5 -4.9,5.2 -7.1,8 -6.2,-1.9 -12.3,-2.9 -18.4,-2.9 -6.8,0 -12.5,1.4 -16.8,4.2 -4.4,2.8 -6.6,7 -6.6,12.7 0,5.7 2.2,10 6.6,13 3.5,2.4 10.3,5 20.3,7.7 -0.7,4.4 -1.1,8.9 -1.1,13.6 0,3.9 0.3,7.7 0.8,11.4 l -1.2,-0.3 c -10.2,-2.5 -18,-4.7 -23.3,-6.8 -5.3,-2.1 -10,-4.8 -14.2,-8.1 -3.2,-2.4 -5.7,-5.3 -7.7,-8.8 -6.2,17.2 0.1,32.2 18.8,54 9.6,5.4 19.5,8.2 29.6,8.2 4.9,0 9.1,-0.8 12.8,-2.1 2.3,3 4.8,5.9 7.6,8.7 3,3 6.2,5.5 9.5,7.9 -8.3,5 -18.5,7.5 -30.5,7.5 h -0.5 l 3.4,3.4 c 35.3,35.4 55.2,53 75,53 19.8,0 39.6,-17.7 75,-53 l 3.5,-3.5 c -11.3,-0.2 -21.9,-2.6 -31.8,-6.9 3.6,-2.5 7,-5.3 10.2,-8.4 2.9,-2.9 5.5,-5.9 7.9,-9 5.4,1.6 10.8,2.5 16.3,2.5 7.6,0 13.6,-1.6 18,-4.9 4.4,-3.3 6.7,-7.6 6.7,-13 0,-5.4 -2.1,-9.6 -6.3,-12.6 -4,-2.8 -10.8,-5.4 -20.3,-7.8 0.5,-3.7 0.8,-7.5 0.8,-11.4 0,-4.7 -0.4,-9.3 -1.1,-13.7 2.5,0.7 5.3,1.4 8.2,2.1 14.3,3.5 25.1,8.3 32.3,14.6 2.7,2.4 5,5.2 6.7,8.4 5.8,-17.5 -1.5,-32.9 -21.7,-55.8 z m -52.1,95.9 c -14.1,13.8 -31.5,20.6 -52.2,20.6 -20.7,0 -38.2,-6.9 -52.2,-20.6 C 61.7,165.7 54.7,148.6 54.7,128 c 0,-20.6 7,-37.7 21.1,-51.5 14.1,-13.8 31.5,-20.6 52.2,-20.6 20.7,0 38.2,6.9 52.2,20.6 14.1,13.8 21.1,30.9 21.1,51.5 0.1,20.6 -7,37.7 -21.1,51.5 z"
       id="path1881" />
  </g>
</svg>
