<svg width="266.036" height="266" xmlns="http://www.w3.org/2000/svg"><g fill="#ff4c4c"><path d="M133.108 82.5c-13.8 0-25.5 4.9-35 14.8-9.5 9.8-14.3 21.8-14.3 35.8 0 14 4.8 26 14.3 35.8 9.5 9.8 21.2 14.8 35 14.8s25.5-4.9 35-14.8c9.5-9.8 14.3-21.8 14.3-35.8 0-14-4.8-26-14.3-35.8-9.5-9.9-21.2-14.8-35-14.8zm76.5-22.1c.1 0 .2.2.3.2h.3c-.1 0-.3-.1-.4-.2.1.1.3.2.4.2-.2.1-.4.1-.6-.2zm.2 0-.3-.3c.1.2.2.3.3.3z"/><path d="M237.408 88.6c-2.4-1.2-4.8-2.2-7.6-3.2-7-2.4-14-3.6-20.8-3.6-4.8 0-9 .7-12.6 2.1-2-2.5-4.1-4.9-6.5-7.3-3.4-3.3-7-6.2-10.8-8.8 8.5-5.1 18.6-7.7 30.4-7.7-.5-.6-1-1.5-1.5-2-35.3-35.3-55.1-53.1-75-53.1-19.8 0-39.6 17.6-75 53-.8.8-1.6 1.5-2.4 2.3 7.5.4 15 1.7 22.4 4.2 3 1 5.9 2.2 8.6 3.5-3.7 2.6-7.3 5.4-10.6 8.7-2.6 2.5-4.9 5.2-7.1 8-6.2-1.9-12.3-2.9-18.4-2.9-6.8 0-12.5 1.4-16.8 4.2-4.4 2.8-6.6 7-6.6 12.7 0 5.7 2.2 10 6.6 13 3.5 2.4 10.3 5 20.3 7.7-.7 4.4-1.1 8.9-1.1 13.6 0 3.9.3 7.7.8 11.4l-1.2-.3c-10.2-2.5-18-4.7-23.3-6.8-5.3-2.1-10-4.8-14.2-8.1-3.2-2.4-5.7-5.3-7.7-8.8-6.2 17.2.1 32.2 18.8 54 9.6 5.4 19.5 8.2 29.6 8.2 4.9 0 9.1-.8 12.8-2.1 2.3 3 4.8 5.9 7.6 8.7 3 3 6.2 5.5 9.5 7.9-8.3 5-18.5 7.5-30.5 7.5h-.5l3.4 3.4c35.3 35.4 55.2 53 75 53 19.8 0 39.6-17.7 75-53l3.5-3.5c-11.3-.2-21.9-2.6-31.8-6.9 3.6-2.5 7-5.3 10.2-8.4 2.9-2.9 5.5-5.9 7.9-9 5.4 1.6 10.8 2.5 16.3 2.5 7.6 0 13.6-1.6 18-4.9 4.4-3.3 6.7-7.6 6.7-13s-2.1-9.6-6.3-12.6c-4-2.8-10.8-5.4-20.3-7.8.5-3.7.8-7.5.8-11.4 0-4.7-.4-9.3-1.1-13.7 2.5.7 5.3 1.4 8.2 2.1 14.3 3.5 25.1 8.3 32.3 14.6 2.7 2.4 5 5.2 6.7 8.4 5.8-17.5-1.5-32.9-21.7-55.8zm-52.1 95.9c-14.1 13.8-31.5 20.6-52.2 20.6-20.7 0-38.2-6.9-52.2-20.6-14.1-13.8-21.1-30.9-21.1-51.5s7-37.7 21.1-51.5c14.1-13.8 31.5-20.6 52.2-20.6 20.7 0 38.2 6.9 52.2 20.6 14.1 13.8 21.1 30.9 21.1 51.5.1 20.6-7 37.7-21.1 51.5z"/></g></svg>