<svg xmlns="http://www.w3.org/2000/svg" viewBox="0 0 731.3 256"><g fill="#FF4C4C"><path d="M128 77.5c-13.8 0-25.5 4.9-35 14.8-9.5 9.8-14.3 21.8-14.3 35.8 0 14 4.8 26 14.3 35.8 9.5 9.8 21.2 14.8 35 14.8s25.5-4.9 35-14.8c9.5-9.8 14.3-21.8 14.3-35.8 0-14-4.8-26-14.3-35.8-9.5-9.9-21.2-14.8-35-14.8zM204.5 55.4c.1 0 .2.2.3.2h.3c-.1 0-.3-.1-.4-.2.1.1.3.2.4.2-.2.1-.4.1-.6-.2zM204.7 55.4l-.3-.3c.1.2.2.3.3.3z"/><path d="M232.3 83.6c-2.4-1.2-4.8-2.2-7.6-3.2-7-2.4-14-3.6-20.8-3.6-4.8 0-9 .7-12.6 2.1-2-2.5-4.1-4.9-6.5-7.3-3.4-3.3-7-6.2-10.8-8.8 8.5-5.1 18.6-7.7 30.4-7.7-.5-.6-1-1.5-1.5-2C167.6 17.8 147.8 0 127.9 0c-19.8 0-39.6 17.6-75 53-.8.8-1.6 1.5-2.4 2.3 7.5.4 15 1.7 22.4 4.2 3 1 5.9 2.2 8.6 3.5-3.7 2.6-7.3 5.4-10.6 8.7-2.6 2.5-4.9 5.2-7.1 8-6.2-1.9-12.3-2.9-18.4-2.9-6.8 0-12.5 1.4-16.8 4.2-4.4 2.8-6.6 7-6.6 12.7 0 5.7 2.2 10 6.6 13 3.5 2.4 10.3 5 20.3 7.7-.7 4.4-1.1 8.9-1.1 13.6 0 3.9.3 7.7.8 11.4l-1.2-.3c-10.2-2.5-18-4.7-23.3-6.8-5.3-2.1-10-4.8-14.2-8.1-3.2-2.4-5.7-5.3-7.7-8.8-6.2 17.2.1 32.2 18.8 54 9.6 5.4 19.5 8.2 29.6 8.2 4.9 0 9.1-.8 12.8-2.1 2.3 3 4.8 5.9 7.6 8.7 3 3 6.2 5.5 9.5 7.9-8.3 5-18.5 7.5-30.5 7.5h-.5l3.4 3.4c35.3 35.4 55.2 53 75 53 19.8 0 39.6-17.7 75-53l3.5-3.5c-11.3-.2-21.9-2.6-31.8-6.9 3.6-2.5 7-5.3 10.2-8.4 2.9-2.9 5.5-5.9 7.9-9 5.4 1.6 10.8 2.5 16.3 2.5 7.6 0 13.6-1.6 18-4.9 4.4-3.3 6.7-7.6 6.7-13s-2.1-9.6-6.3-12.6c-4-2.8-10.8-5.4-20.3-7.8.5-3.7.8-7.5.8-11.4 0-4.7-.4-9.3-1.1-13.7 2.5.7 5.3 1.4 8.2 2.1 14.3 3.5 25.1 8.3 32.3 14.6 2.7 2.4 5 5.2 6.7 8.4 5.8-17.5-1.5-32.9-21.7-55.8zm-52.1 95.9c-14.1 13.8-31.5 20.6-52.2 20.6s-38.2-6.9-52.2-20.6c-14.1-13.8-21.1-30.9-21.1-51.5s7-37.7 21.1-51.5c14.1-13.8 31.5-20.6 52.2-20.6s38.2 6.9 52.2 20.6c14.1 13.8 21.1 30.9 21.1 51.5.1 20.6-7 37.7-21.1 51.5z"/></g><g fill="#1E1E1E"><path d="M331.3 66.3c0 1.1.3 2.1.9 2.9s1.4 1.5 2.4 2.1 2.2 1.1 3.4 1.5c1.3.4 2.6.8 4 1.3 1.5.5 2.9 1 4.3 1.5s2.6 1.2 3.6 2 1.9 1.8 2.5 3c.6 1.2.9 2.6.9 4.3 0 1.5-.4 2.8-1.1 4.2-.7 1.3-1.7 2.4-3 3.3-1.3.9-2.8 1.6-4.5 2.1-1.7.5-3.6.7-5.6.7-1.4 0-2.8-.1-4.1-.4-1.3-.3-2.5-.6-3.6-1.1-1.1-.4-2.1-1-3-1.6s-1.7-1.2-2.4-2c-.1-.1-.2-.3-.3-.5-.1-.2-.1-.4-.1-.6 0-.2 0-.5.1-.8.1-.3.2-.5.4-.7.2-.2.3-.4.5-.5.2-.1.4-.2.6-.2.3 0 .6.1 1 .3.3.2.6.5 1 .7L331 89c.7.4 1.4.7 2.2 1.1.8.3 1.7.6 2.7.7 1 .2 2.1.3 3.2.3 1.3 0 2.5-.1 3.6-.4s2.1-.7 2.9-1.2 1.4-1.2 1.9-2 .7-1.6.7-2.5c0-1.2-.3-2.3-.9-3.2s-1.4-1.6-2.4-2.2-2.1-1.1-3.4-1.5-2.6-.8-3.9-1.3c-1.5-.5-2.9-1-4.2-1.6-1.4-.6-2.6-1.3-3.6-2.1s-1.9-1.8-2.5-3c-.6-1.2-.9-2.5-.9-4s.4-2.8 1.1-4.1c.7-1.3 1.7-2.3 2.9-3.2 1.2-.9 2.6-1.5 4.2-2 1.6-.4 3.2-.7 4.9-.7 2.6 0 5 .4 7 1.2 2.1.8 3.9 2.1 5.5 3.8.1.2.2.3.3.5s.1.4.1.6c0 .2 0 .4-.1.6l-.3.6c-.2.2-.3.3-.6.5s-.5.2-.8.2c-.5 0-1.1-.3-1.7-.9l-1.8-1.2c-.6-.4-1.3-.7-2-1-.7-.3-1.5-.5-2.4-.7-.8-.2-1.8-.3-2.7-.3s-2 .1-3 .3c-1 .2-2 .6-2.8 1.1s-1.5 1.1-2 1.8-.9 2.3-.9 3.1zM383.6 80.8c0 .4-.1.8-.4 1.1-.3.3-.7.5-1.3.5H363c.1 1.7.3 3.1.7 4.3.4 1.2 1.1 2.2 1.9 3 .9.8 1.8 1.4 2.8 1.8 1 .4 2.1.6 3.4.6 1.3 0 2.6-.2 3.9-.7 1.3-.5 2.6-1.1 3.9-2l.6-.3c.2-.1.4-.1.5-.1.4 0 .7.1 1 .4s.4.6.4.9c0 .2 0 .4-.1.6s-.2.4-.4.6c-.7.7-1.5 1.3-2.3 1.8-.8.5-1.7.9-2.5 1.2s-1.7.5-2.6.7-1.7.2-2.6.2c-1.8 0-3.5-.3-5-.9-1.6-.6-2.9-1.5-4.1-2.7s-2.1-2.6-2.8-4.3c-.7-1.7-1-3.6-1-5.7 0-1.8.3-3.5.8-5.2.5-1.6 1.3-3.1 2.4-4.3s2.4-2.3 3.9-3c1.6-.7 3.4-1.1 5.4-1.1 2.1 0 4 .3 5.5 1 1.6.7 2.8 1.5 3.8 2.7s1.8 2.5 2.3 4.1c.5 1.2.8 3 .8 4.8zm-4.1-1.3c-.1-1.2-.3-2.4-.7-3.4s-.9-1.9-1.6-2.6-1.5-1.3-2.5-1.7c-1-.4-2.1-.6-3.5-.6-1.1 0-2.2.2-3.1.7s-1.8 1-2.5 1.8-1.2 1.6-1.7 2.6-.7 2.1-.8 3.2h16.4zM390.2 59.2c0-.7.2-1.2.7-1.6.4-.4.9-.5 1.5-.5.3 0 .5 0 .8.1.2.1.5.2.7.4.2.2.4.4.5.7s.2.6.2.9v33.3c0 .7-.2 1.2-.7 1.6-.5.4-.9.5-1.5.5s-1-.2-1.4-.5c-.4-.3-.6-.9-.6-1.6V59.2zM415.9 91.5c-.5 1.1-1 1.9-1.5 2.4s-1.3.8-2.2.8-1.7-.2-2.2-.8c-.5-.5-1-1.3-1.5-2.4L400 71.2c-.1-.3-.2-.5-.2-.8 0-.3.1-.5.2-.8s.3-.4.5-.6c.2-.2.4-.3.7-.4s.5-.1.8-.1c.4 0 .8.1 1.1.3.3.2.6.6.8 1l8.3 19.9 8-19.9c.2-.5.4-.8.8-1s.7-.3 1.1-.3c.3 0 .5 0 .8.1s.5.2.7.4.4.4.5.6.2.5.2.8c0 .3-.1.5-.2.8l-8.2 20.3zM447.9 77.7c0-1.1-.2-2-.5-2.9s-.8-1.5-1.3-2-1.2-.9-1.9-1.2-1.5-.4-2.3-.4c-1.1 0-2.1.2-3.1.5s-1.8.8-2.5 1.5-1.3 1.5-1.7 2.6c-.4 1-.6 2.2-.6 3.7v13.2c0 .7-.2 1.2-.7 1.5-.4.3-.9.5-1.5.5s-1-.2-1.4-.5-.6-.8-.6-1.5V59c0-.6.2-1.1.7-1.4.4-.3.9-.5 1.5-.5s1 .2 1.4.5c.4.3.6.8.6 1.5V73c.4-.8.8-1.5 1.5-2.1s1.3-1.1 2.1-1.6 1.6-.7 2.5-.9 1.8-.3 2.7-.3c1.3 0 2.5.2 3.6.6s2.1 1 3 1.8 1.5 1.8 2 3.1.8 2.8.8 4.6v14.7c0 .7-.2 1.2-.7 1.5-.4.3-.9.5-1.5.5s-1-.2-1.4-.5-.6-.8-.6-1.5V77.7zM464.6 95.5c0 1.6-.1 3-.2 4.2s-.4 2.1-.9 2.8c-.5.7-1.2 1.2-2.1 1.5-.9.3-2.2.5-3.9.5h-.4s-.3 0-.5-.1c-.2 0-.3-.1-.4-.1s-.2-.1-.2-.1c-.4 0-.7-.2-.9-.5-.2-.3-.3-.6-.3-.9 0-.4.1-.7.4-1 .2-.3.6-.5 1.1-.5.9 0 1.6 0 2.2-.1s.9-.3 1.2-.6.4-.8.5-1.4.1-1.5.1-2.6v-26c0-.7.2-1.2.7-1.6.4-.4.9-.5 1.5-.5.3 0 .5 0 .8.1s.5.2.7.4.4.4.5.7.2.6.2.9v24.9zm.7-36.1c0 .7-.3 1.2-.8 1.7s-1.2.7-2.1.7-1.6-.2-2.1-.7c-.5-.5-.8-1.1-.8-1.7 0-.6.3-1.2.8-1.7s1.2-.7 2.1-.7 1.6.2 2.1.7c.6.5.8 1.1.8 1.7zM488.2 76.5c0-1-.1-1.8-.4-2.5-.3-.7-.7-1.2-1.2-1.6s-1.2-.7-1.9-.9-1.6-.3-2.5-.3-1.7.1-2.4.2-1.4.3-2 .5c-.6.2-1.2.4-1.7.7s-1 .6-1.6.9c-.3.2-.6.3-.9.3-.4 0-.8-.2-1.1-.5s-.4-.7-.4-1.1.2-.8.5-1.1c1.1-1.1 2.4-1.9 4.1-2.5 1.7-.6 3.5-.9 5.6-.9 2.1 0 3.9.4 5.4 1.1 1.4.8 2.5 2 3.2 3.6 1-1.4 2.2-2.6 3.6-3.4 1.5-.9 3.2-1.3 5.1-1.3 1.9 0 3.5.3 4.9 1s2.5 1.6 3.4 2.8 1.6 2.5 2 4.1c.4 1.6.7 3.3.7 5.1 0 .4-.1.8-.4 1.1s-.7.5-1.3.5h-16.5c0 1.3.2 2.6.5 3.7.3 1.2.7 2.2 1.4 3s1.4 1.5 2.4 2 2.2.8 3.6.8c.7 0 1.3-.1 2-.2s1.3-.4 1.9-.6 1.2-.5 1.7-.8 1-.6 1.4-.9l.6-.3c.2-.1.4-.1.5-.1.4 0 .7.1.9.4.2.3.4.6.4.9 0 .4-.2.9-.5 1.3-.4.5-1 1-1.6 1.5s-1.4.9-2.3 1.2c-.9.3-1.8.6-2.8.8-1 .2-2.1.3-3.2.3s-2.1-.1-3-.4c-.9-.3-1.8-.7-2.5-1.2s-1.4-1.2-2-1.9c-.6-.7-1.1-1.5-1.5-2.4-.5 1.1-1.2 2-2 2.8s-1.7 1.4-2.6 1.8c-.9.5-1.9.8-2.9 1s-2 .3-3 .3c-1.3 0-2.5-.2-3.7-.5-1.1-.4-2.1-.9-2.9-1.6s-1.5-1.5-1.9-2.5c-.5-1-.7-2.1-.7-3.4 0-1.6.4-3 1.1-4.1.7-1.1 1.7-2 3-2.7s2.8-1.2 4.6-1.5 3.8-.5 6-.5h1.5s1 0 1.5.1v-2.1zm0 5.2c-.8 0-1.7.1-2.6.1-1 0-1.9 0-2.9.1s-2 .2-2.9.4c-.9.2-1.8.5-2.5.9s-1.3.9-1.8 1.6-.7 1.5-.7 2.5c0 .8.1 1.5.4 2.2s.7 1.1 1.2 1.5 1.1.7 1.8.9c.7.2 1.4.3 2.2.3 1 0 2-.2 2.9-.5.9-.3 1.7-.8 2.4-1.5s1.2-1.5 1.6-2.5c.4-1 .6-2.2.7-3.5v-2.5zm18.4-2.3c-.1-1.2-.3-2.3-.6-3.4-.3-1-.7-1.9-1.3-2.7s-1.3-1.3-2.1-1.8c-.8-.4-1.8-.6-2.9-.6s-2.1.2-2.9.7-1.6 1.1-2.1 1.8-1 1.7-1.4 2.7-.5 2.1-.6 3.2h13.9zM517.6 59.2c0-.7.2-1.2.7-1.6.4-.4.9-.5 1.5-.5.3 0 .5 0 .8.1.2.1.5.2.7.4.2.2.4.4.5.7s.2.6.2.9v33.3c0 .7-.2 1.2-.7 1.6-.5.4-.9.5-1.5.5s-1-.2-1.4-.5c-.4-.3-.6-.9-.6-1.6V59.2zM533.9 72.9c.5-.8 1-1.6 1.7-2.2.7-.6 1.4-1.1 2.2-1.6.8-.4 1.7-.7 2.6-.9s1.9-.3 2.9-.3c1.9 0 3.6.4 4.9 1.2 1.4.8 2.5 1.8 3.4 3.1s1.5 2.8 2 4.4.6 3.3.6 5.1c0 1.8-.2 3.5-.7 5.1s-1.1 3.1-2 4.3-2.1 2.2-3.5 3c-1.4.7-3 1.1-4.9 1.1-.9 0-1.8-.1-2.7-.3-.9-.2-1.7-.5-2.6-.9s-1.6-.9-2.3-1.5c-.7-.6-1.3-1.3-1.8-2.1v12.4c0 .7-.2 1.1-.7 1.5-.4.3-.9.5-1.5.5s-1-.2-1.5-.5c-.4-.3-.7-.8-.7-1.5V70.5c0-.7.2-1.1.6-1.5.4-.3.9-.5 1.4-.5.9 0 1.6.4 1.9 1.1.7.7.8 1.8.7 3.3zm0 8.8c0 1.3.2 2.6.5 3.8.3 1.2.8 2.3 1.4 3.3.7 1 1.5 1.7 2.6 2.3s2.3.9 3.8.9c1 0 1.9-.1 2.6-.4.8-.3 1.4-.7 2-1.2.6-.5 1-1.1 1.4-1.8s.7-1.4.9-2.2c.2-.8.4-1.6.5-2.5.1-.9.1-1.7.1-2.4 0-1.2-.1-2.4-.3-3.6s-.6-2.3-1.2-3.3-1.3-1.8-2.3-2.4-2.2-1-3.7-1c-1.7 0-3 .3-4.1.8s-1.9 1.3-2.6 2.2-1.1 2-1.3 3.3-.3 2.7-.3 4.2zM326 128c0-2.7.4-5.2 1.2-7.6.8-2.4 1.9-4.5 3.4-6.2s3.3-3.1 5.5-4c2.2-.9 4.7-1.4 7.6-1.4s5.4.5 7.6 1.4c2.2.9 4 2.3 5.5 4s2.6 3.8 3.4 6.2 1.2 5 1.2 7.6-.4 5.2-1.2 7.6-1.9 4.5-3.4 6.2c-1.5 1.7-3.3 3-5.5 4s-4.7 1.4-7.6 1.4-5.4-.5-7.6-1.4-4.1-2.3-5.5-4c-1.5-1.7-2.6-3.8-3.4-6.2-.8-2.4-1.2-4.9-1.2-7.6zm5 0c0 1.8.2 3.7.7 5.6s1.2 3.6 2.2 5c1 1.5 2.3 2.6 3.9 3.5 1.6.9 3.5 1.3 5.8 1.3 2.2 0 4.1-.4 5.7-1.3 1.6-.9 2.9-2 3.9-3.5 1-1.4 1.8-3.1 2.3-5s.7-3.8.7-5.6c0-1.8-.2-3.7-.7-5.6s-1.2-3.6-2.3-5c-1-1.5-2.3-2.6-3.9-3.5-1.6-.9-3.5-1.3-5.7-1.3s-4.2.4-5.8 1.3c-1.6.9-2.9 2-3.9 3.5s-1.8 3.1-2.2 5-.7 3.8-.7 5.6zM368.8 122.5c0-.6.2-1.1.7-1.4.4-.3.9-.5 1.5-.5.9 0 1.6.4 1.9 1.1.3.7.4 1.8.2 3.3.4-.8.8-1.5 1.5-2s1.3-1.1 2.1-1.5 1.6-.8 2.5-1c.9-.2 1.8-.4 2.7-.4 1.3 0 2.5.2 3.6.6s2.1 1 3 1.8 1.5 1.9 2 3.2c.5 1.3.8 2.8.8 4.6v14.5c0 .7-.2 1.2-.7 1.5-.4.3-.9.5-1.5.5s-1-.2-1.4-.5-.6-.8-.6-1.5V130c0-1.1-.2-2.1-.5-2.9s-.8-1.5-1.3-2c-.6-.6-1.2-1-1.9-1.2s-1.5-.4-2.3-.4c-1.1 0-2.1.2-3.1.5s-1.8.8-2.5 1.5-1.3 1.5-1.7 2.5c-.4 1.1-.6 2.3-.6 3.7v13.2c0 .7-.2 1.2-.7 1.5-.4.3-.9.5-1.5.5s-1-.2-1.4-.5-.6-.8-.6-1.5v-22.4zM399.4 111.2c0-.7.2-1.2.7-1.6.4-.4.9-.5 1.5-.5.3 0 .5 0 .8.1s.5.2.7.4.4.4.5.7.2.6.2.9v33.3c0 .7-.2 1.2-.7 1.6-.5.4-.9.5-1.5.5s-1-.2-1.4-.5c-.4-.3-.6-.9-.6-1.6v-33.3zM416.8 111.4c0 .7-.3 1.2-.8 1.7s-1.2.7-2.1.7c-.9 0-1.6-.2-2.1-.7-.5-.5-.8-1.1-.8-1.7s.2-1.2.8-1.7c.5-.5 1.2-.7 2.1-.7.9 0 1.6.2 2.1.7.6.5.8 1.1.8 1.7zm-4.9 11.2c0-.7.2-1.2.7-1.6.4-.4.9-.5 1.5-.5.3 0 .5 0 .8.1s.5.2.7.4.4.4.5.7.2.6.2.9v21.9c0 .7-.2 1.2-.7 1.6-.5.4-.9.5-1.5.5s-1-.2-1.4-.5c-.4-.3-.6-.9-.6-1.6v-21.9zM424.3 122.5c0-.6.2-1.1.7-1.4.4-.3.9-.5 1.5-.5.9 0 1.6.4 1.9 1.1.3.7.4 1.8.2 3.3.4-.8.8-1.5 1.5-2s1.3-1.1 2.1-1.5 1.6-.8 2.5-1c.9-.2 1.8-.4 2.7-.4 1.3 0 2.5.2 3.6.6s2.1 1 3 1.8 1.5 1.9 2 3.2c.5 1.3.8 2.8.8 4.6v14.5c0 .7-.2 1.2-.7 1.5-.4.3-.9.5-1.5.5s-1-.2-1.4-.5-.6-.8-.6-1.5V130c0-1.1-.2-2.1-.5-2.9s-.8-1.5-1.3-2c-.6-.6-1.2-1-1.9-1.2s-1.5-.4-2.3-.4c-1.1 0-2.1.2-3.1.5s-1.8.8-2.5 1.5-1.3 1.5-1.7 2.5c-.4 1.1-.6 2.3-.6 3.7v13.2c0 .7-.2 1.2-.7 1.5-.4.3-.9.5-1.5.5s-1-.2-1.4-.5-.6-.8-.6-1.5v-22.4zM478.2 132.8c0 .4-.1.8-.4 1.1-.3.3-.7.5-1.3.5h-18.9c.1 1.7.3 3.1.7 4.3.4 1.2 1.1 2.2 1.9 3 .9.8 1.8 1.4 2.8 1.8 1 .4 2.1.6 3.4.6 1.3 0 2.6-.2 3.9-.7 1.3-.5 2.6-1.1 3.9-2l.6-.3c.2-.1.4-.1.5-.1.4 0 .7.1 1 .4s.4.6.4.9c0 .2 0 .4-.1.6s-.2.4-.4.6c-.7.7-1.5 1.3-2.3 1.8-.8.5-1.7.9-2.5 1.2s-1.7.5-2.6.7-1.7.2-2.6.2c-1.8 0-3.5-.3-5-.9-1.6-.6-2.9-1.5-4.1-2.7s-2.1-2.6-2.8-4.3c-.7-1.7-1-3.6-1-5.7 0-1.8.3-3.5.8-5.2.5-1.6 1.3-3.1 2.4-4.3s2.4-2.3 3.9-3c1.6-.7 3.4-1.1 5.4-1.1 2.1 0 4 .3 5.5 1 1.6.7 2.8 1.5 3.8 2.7s1.8 2.5 2.3 4.1c.5 1.2.8 3 .8 4.8zm-4.1-1.3c-.1-1.2-.3-2.4-.7-3.4s-.9-1.9-1.6-2.6-1.5-1.3-2.5-1.7c-1-.4-2.1-.6-3.5-.6-1.1 0-2.2.2-3.1.7s-1.8 1-2.5 1.8-1.2 1.6-1.7 2.6-.7 2.1-.8 3.2h16.4zM536.3 129.7c0-1.1-.2-2.1-.5-3s-.8-1.5-1.3-2c-.6-.5-1.2-.9-1.9-1.2s-1.5-.4-2.3-.4c-1 0-1.9.1-2.9.4-.9.3-1.8.8-2.5 1.4s-1.3 1.5-1.8 2.5-.7 2.3-.7 3.8v13.3c0 .7-.2 1.2-.7 1.5-.4.3-.9.5-1.5.5s-1-.2-1.4-.5-.6-.8-.6-1.5v-14.9c0-1.1-.2-2.1-.5-3s-.8-1.5-1.3-2c-.6-.5-1.2-.9-1.9-1.2-.7-.2-1.5-.4-2.3-.4-1.1 0-2.1.2-3.1.5s-1.8.8-2.5 1.5-1.3 1.5-1.7 2.6c-.4 1-.6 2.2-.6 3.7v13.2c0 .7-.2 1.2-.7 1.5-.4.3-.9.5-1.5.5-.5 0-1-.2-1.4-.5-.4-.3-.6-.8-.6-1.5v-22.2c0-.6.2-1.1.7-1.4.4-.3.9-.5 1.5-.5.3 0 .5 0 .8.1.2.1.5.2.7.3s.4.3.5.6c.1.2.2.5.2.8v2.5c.4-.8.8-1.5 1.4-2.1.6-.6 1.3-1.1 2.1-1.5.8-.4 1.6-.7 2.5-.9s1.8-.3 2.7-.3c.9 0 1.9.1 2.8.3s1.7.5 2.5 1c.8.4 1.4 1 2 1.7s1.1 1.6 1.4 2.6c.7-1.1 1.3-2 2.1-2.7.7-.7 1.5-1.3 2.3-1.7s1.6-.7 2.5-.9 1.7-.3 2.6-.3c1.2 0 2.4.2 3.6.6s2.1 1 3 1.8c.9.8 1.5 1.8 2 3.1s.8 2.8.8 4.6v14.7c0 .7-.2 1.2-.7 1.5-.4.3-.9.5-1.5.5s-1-.2-1.4-.5c-.4-.3-.6-.8-.6-1.5v-15zM546.8 133.6c0-1.6.3-3.3.8-4.9.5-1.7 1.3-3.1 2.4-4.4 1.1-1.3 2.4-2.3 4.1-3.1 1.6-.8 3.6-1.2 5.8-1.2s4.1.4 5.8 1.2c1.6.8 3 1.8 4.1 3.1 1.1 1.3 1.9 2.8 2.4 4.4.5 1.7.8 3.3.8 4.9 0 1.7-.3 3.3-.8 5s-1.3 3.1-2.4 4.4c-1.1 1.3-2.4 2.3-4.1 3.1-1.6.8-3.6 1.2-5.8 1.2s-4.1-.4-5.8-1.2c-1.6-.8-3-1.8-4.1-3.1-1.1-1.3-1.9-2.8-2.4-4.4s-.8-3.4-.8-5zm4.5 0c0 1.1.2 2.3.5 3.6s.8 2.4 1.5 3.4 1.6 1.8 2.7 2.5c1.1.6 2.4 1 3.9 1s2.8-.3 3.9-1c1.1-.6 2-1.5 2.6-2.5.7-1 1.2-2.1 1.5-3.4s.5-2.4.5-3.6c0-1.1-.2-2.3-.5-3.5s-.8-2.4-1.5-3.4-1.6-1.8-2.6-2.5c-1.1-.6-2.4-1-3.9-1s-2.8.3-3.9 1c-1.1.6-2 1.5-2.7 2.5-.7 1-1.2 2.1-1.5 3.4s-.5 2.4-.5 3.5zM602.2 144.7c0 .7-.2 1.2-.6 1.5-.4.3-.9.5-1.4.5-.3 0-.5 0-.8-.1-.2-.1-.5-.2-.7-.4-.2-.2-.4-.4-.5-.6-.1-.2-.2-.5-.2-.8v-1.2V142.4c-1.2 1.8-2.6 3-4.2 3.8-1.6.8-3.3 1.1-5.3 1.1-1.9 0-3.6-.4-4.9-1.2s-2.5-1.8-3.4-3.1-1.5-2.8-2-4.4-.6-3.3-.6-5c0-1.8.2-3.5.6-5.1s1.1-3.1 2-4.3 2-2.2 3.4-3c1.4-.7 3.1-1.1 5-1.1.9 0 1.8.1 2.7.3s1.8.5 2.6.9 1.6.9 2.3 1.5 1.3 1.3 1.8 2.1V111c0-.7.2-1.1.6-1.5.4-.3.9-.5 1.4-.5s1 .2 1.5.5c.4.3.7.8.7 1.4v33.8zm-12.4-21.5c-1.5 0-2.7.3-3.7.9s-1.8 1.3-2.4 2.3c-.6 1-1 2-1.3 3.2s-.4 2.4-.4 3.6c0 .7 0 1.5.1 2.4s.2 1.7.5 2.5c.2.8.5 1.5.9 2.2s.8 1.3 1.4 1.9 1.2 1 1.9 1.3 1.6.5 2.6.5c1.7 0 3-.3 4.1-.9s2-1.4 2.6-2.3 1.1-2.1 1.4-3.5.4-2.7.4-4.2c0-1.3-.1-2.5-.4-3.7-.3-1.2-.7-2.2-1.4-3.2-.6-.9-1.5-1.7-2.5-2.2-1.1-.5-2.3-.8-3.8-.8zM331.3 170.3c0 1.1.3 2.1.9 2.9s1.4 1.5 2.4 2.1 2.2 1.1 3.4 1.5c1.3.4 2.6.8 4 1.3 1.5.5 2.9 1 4.3 1.5s2.6 1.2 3.6 2 1.9 1.8 2.5 3c.6 1.2.9 2.6.9 4.3 0 1.5-.4 2.8-1.1 4.2-.7 1.3-1.7 2.4-3 3.3-1.3.9-2.8 1.6-4.5 2.1-1.7.5-3.6.7-5.6.7-1.4 0-2.8-.1-4.1-.4-1.3-.3-2.5-.6-3.6-1.1-1.1-.4-2.1-1-3-1.6s-1.7-1.2-2.4-2c-.1-.1-.2-.3-.3-.5-.1-.2-.1-.4-.1-.6 0-.2 0-.5.1-.8.1-.3.2-.5.4-.7.2-.2.3-.4.5-.5.2-.1.4-.2.6-.2.3 0 .6.1 1 .3.3.2.6.5 1 .7l1.8 1.2c.7.4 1.4.7 2.2 1.1.8.3 1.7.6 2.7.7 1 .2 2.1.3 3.2.3 1.3 0 2.5-.1 3.6-.4s2.1-.7 2.9-1.2 1.4-1.2 1.9-2 .7-1.6.7-2.5c0-1.2-.3-2.3-.9-3.2s-1.4-1.6-2.4-2.2-2.1-1.1-3.4-1.5-2.6-.8-3.9-1.3c-1.5-.5-2.9-1-4.2-1.6-1.4-.6-2.6-1.3-3.6-2.1s-1.9-1.8-2.5-3c-.6-1.2-.9-2.5-.9-4s.4-2.8 1.1-4.1c.7-1.3 1.7-2.3 2.9-3.2s2.6-1.5 4.2-2 3.2-.7 4.9-.7c2.6 0 5 .4 7 1.2 2.1.8 3.9 2.1 5.5 3.8.1.2.2.3.3.5s.1.4.1.6c0 .2 0 .4-.1.6l-.3.6c-.2.2-.3.3-.6.5s-.5.2-.8.2c-.5 0-1.1-.3-1.7-.9l-1.8-1.2c-.6-.4-1.3-.7-2-1-.7-.3-1.5-.5-2.4-.7s-1.8-.3-2.7-.3-2 .1-3 .3c-1 .2-2 .6-2.8 1.1s-1.5 1.1-2 1.8-.9 2.3-.9 3.1zM383.6 184.8c0 .4-.1.8-.4 1.1-.3.3-.7.5-1.3.5H363c.1 1.7.3 3.1.7 4.3.4 1.2 1.1 2.2 1.9 3 .9.8 1.8 1.4 2.8 1.8 1 .4 2.1.6 3.4.6 1.3 0 2.6-.2 3.9-.7 1.3-.5 2.6-1.1 3.9-2l.6-.3c.2-.1.4-.1.5-.1.4 0 .7.1 1 .4s.4.6.4.9c0 .2 0 .4-.1.6s-.2.4-.4.6c-.7.7-1.5 1.3-2.3 1.8-.8.5-1.7.9-2.5 1.2s-1.7.5-2.6.7-1.7.2-2.6.2c-1.8 0-3.5-.3-5-.9-1.6-.6-2.9-1.5-4.1-2.7s-2.1-2.6-2.8-4.3c-.7-1.7-1-3.6-1-5.7 0-1.8.3-3.5.8-5.2.5-1.6 1.3-3.1 2.4-4.3s2.4-2.3 3.9-3c1.6-.7 3.4-1.1 5.4-1.1 2.1 0 4 .3 5.5 1 1.6.7 2.8 1.5 3.8 2.7s1.8 2.5 2.3 4.1c.5 1.2.8 3 .8 4.8zm-4.1-1.3c-.1-1.2-.3-2.4-.7-3.4s-.9-1.9-1.6-2.6-1.5-1.3-2.5-1.7c-1-.4-2.1-.6-3.5-.6-1.1 0-2.2.2-3.1.7s-1.8 1-2.5 1.8-1.2 1.6-1.7 2.6-.7 2.1-.8 3.2h16.4zM390.2 163.2c0-.7.2-1.2.7-1.6.4-.4.9-.5 1.5-.5.3 0 .5 0 .8.1s.5.2.7.4.4.4.5.7.2.6.2.9v33.3c0 .7-.2 1.2-.7 1.6-.5.4-.9.5-1.5.5s-1-.2-1.4-.5c-.4-.3-.6-.9-.6-1.6v-33.3zM415.9 195.5c-.5 1.1-1 1.9-1.5 2.4s-1.3.8-2.2.8-1.7-.2-2.2-.8c-.5-.5-1-1.3-1.5-2.4l-8.5-20.3c-.1-.3-.2-.5-.2-.8 0-.3.1-.5.2-.8s.3-.4.5-.6c.2-.2.4-.3.7-.4s.5-.1.8-.1c.4 0 .8.1 1.1.3.3.2.6.6.8 1l8.3 19.9 8-19.9c.2-.5.4-.8.8-1s.7-.3 1.1-.3c.3 0 .5 0 .8.1s.5.2.7.4.4.4.5.6.2.5.2.8c0 .3-.1.5-.2.8l-8.2 20.3zM465.9 181.7c0-1.1-.2-2.1-.5-3s-.8-1.5-1.3-2c-.6-.5-1.2-.9-1.9-1.2s-1.5-.4-2.3-.4c-1 0-1.9.1-2.9.4-.9.3-1.8.8-2.5 1.4s-1.3 1.5-1.8 2.5-.7 2.3-.7 3.8v13.3c0 .7-.2 1.2-.7 1.5-.4.3-.9.5-1.5.5s-1-.2-1.4-.5-.6-.8-.6-1.5v-14.9c0-1.1-.2-2.1-.5-3s-.8-1.5-1.3-2c-.6-.5-1.2-.9-1.9-1.2-.7-.2-1.5-.4-2.3-.4-1.1 0-2.1.2-3.1.5s-1.8.8-2.5 1.5-1.3 1.5-1.7 2.6c-.4 1-.6 2.2-.6 3.7v13.2c0 .7-.2 1.2-.7 1.5-.4.3-.9.5-1.5.5-.5 0-1-.2-1.4-.5-.4-.3-.6-.8-.6-1.5v-22.2c0-.6.2-1.1.7-1.4.4-.3.9-.5 1.5-.5.3 0 .5 0 .8.1.2.1.5.2.7.3s.4.3.5.6c.1.2.2.5.2.8v2.5c.4-.8.8-1.5 1.4-2.1.6-.6 1.3-1.1 2.1-1.5.8-.4 1.6-.7 2.5-.9s1.8-.3 2.7-.3c.9 0 1.9.1 2.8.3s1.7.5 2.5 1c.8.4 1.4 1 2 1.7s1.1 1.6 1.4 2.6c.7-1.1 1.3-2 2.1-2.7.7-.7 1.5-1.3 2.3-1.7s1.6-.7 2.5-.9 1.7-.3 2.6-.3c1.2 0 2.4.2 3.6.6s2.1 1 3 1.8c.9.8 1.5 1.8 2 3.1s.8 2.8.8 4.6v14.7c0 .7-.2 1.2-.7 1.5-.4.3-.9.5-1.5.5s-1-.2-1.4-.5c-.4-.3-.6-.8-.6-1.5v-15zM476.4 185.6c0-1.6.3-3.3.8-4.9.5-1.7 1.3-3.1 2.4-4.4 1.1-1.3 2.4-2.3 4.1-3.1 1.6-.8 3.6-1.2 5.8-1.2s4.1.4 5.8 1.2c1.6.8 3 1.8 4.1 3.1 1.1 1.3 1.9 2.8 2.4 4.4.5 1.7.8 3.3.8 4.9 0 1.7-.3 3.3-.8 5s-1.3 3.1-2.4 4.4c-1.1 1.3-2.4 2.3-4.1 3.1-1.6.8-3.6 1.2-5.8 1.2s-4.1-.4-5.8-1.2c-1.6-.8-3-1.8-4.1-3.1-1.1-1.3-1.9-2.8-2.4-4.4s-.8-3.4-.8-5zm4.5 0c0 1.1.2 2.3.5 3.6s.8 2.4 1.5 3.4 1.6 1.8 2.7 2.5c1.1.6 2.4 1 3.9 1s2.8-.3 3.9-1c1.1-.6 2-1.5 2.6-2.5.7-1 1.2-2.1 1.5-3.4s.5-2.4.5-3.6c0-1.1-.2-2.3-.5-3.5s-.8-2.4-1.5-3.4-1.6-1.8-2.6-2.5c-1.1-.6-2.4-1-3.9-1s-2.8.3-3.9 1c-1.1.6-2 1.5-2.7 2.5-.7 1-1.2 2.1-1.5 3.4s-.5 2.4-.5 3.5zM508.9 174.5c0-.6.2-1.1.6-1.5s1-.5 1.6-.5c.6 0 1.1.2 1.5.5s.5.8.5 1.5v2.3c.3-.8.6-1.4 1-2.1s.9-1.1 1.5-1.6 1.3-.7 2-1c.8-.2 1.7-.3 2.7-.3.7 0 1.2.2 1.6.6.4.4.5.8.5 1.3 0 .4-.2.8-.5 1.2-.4.4-.9.6-1.6.6-1.1 0-2.2.2-3 .6s-1.6.9-2.2 1.6c-.6.7-1.1 1.6-1.4 2.6-.3 1-.5 2.1-.5 3.4v12.9c0 .7-.2 1.1-.7 1.5-.4.3-.9.5-1.5.5-.3 0-.5 0-.8-.1-.2-.1-.5-.2-.7-.4s-.3-.4-.5-.6-.2-.5-.2-.9v-22.1zM550.4 196.7c0 .7-.2 1.2-.6 1.5-.4.3-.9.5-1.4.5-.3 0-.5 0-.8-.1-.2-.1-.5-.2-.7-.4-.2-.2-.4-.4-.5-.6-.1-.2-.2-.5-.2-.8v-1.2V194.4c-1.2 1.8-2.6 3-4.2 3.8-1.6.8-3.3 1.1-5.3 1.1-1.9 0-3.6-.4-4.9-1.2s-2.5-1.8-3.4-3.1-1.5-2.8-2-4.4-.6-3.3-.6-5c0-1.8.2-3.5.6-5.1s1.1-3.1 2-4.3 2-2.2 3.4-3c1.4-.7 3.1-1.1 5-1.1.9 0 1.8.1 2.7.3s1.8.5 2.6.9 1.6.9 2.3 1.5 1.3 1.3 1.8 2.1V163c0-.7.2-1.1.6-1.5.4-.3.9-.5 1.4-.5s1 .2 1.5.5c.4.3.7.8.7 1.4v33.8zM538 175.2c-1.5 0-2.7.3-3.7.9s-1.8 1.3-2.4 2.3c-.6 1-1 2-1.3 3.2s-.4 2.4-.4 3.6c0 .7 0 1.5.1 2.4s.2 1.7.5 2.5c.2.8.5 1.5.9 2.2s.8 1.3 1.4 1.9 1.2 1 1.9 1.3 1.6.5 2.6.5c1.7 0 3-.3 4.1-.9s2-1.4 2.6-2.3 1.1-2.1 1.4-3.5.4-2.7.4-4.2c0-1.3-.1-2.5-.4-3.7-.3-1.2-.7-2.2-1.4-3.2-.6-.9-1.5-1.7-2.5-2.2-1.1-.5-2.3-.8-3.8-.8zM561.5 179c0 .6.1 1.1.4 1.5.3.4.7.8 1.2 1.1.5.3 1.2.5 1.9.7.7.2 1.6.4 2.5.6.9.2 1.9.5 2.9.7s2.1.6 3.3 1c1.5.5 2.7 1.3 3.5 2.3.9 1.1 1.3 2.4 1.3 3.8s-.3 2.7-1 3.8c-.6 1.1-1.5 1.9-2.6 2.6s-2.3 1.2-3.7 1.5-2.8.5-4.3.5c-1.2 0-2.5-.1-3.7-.4s-2.3-.6-3.2-.9-1.7-.8-2.3-1.3-.9-1-.9-1.5c0-.4.2-.8.5-1 .3-.3.7-.4 1.3-.4.3 0 .7.1 1.2.4.5.3 1.2.5 2 .8.8.3 1.6.5 2.6.8 1 .2 2.1.4 3.3.4.8 0 1.6-.1 2.4-.2s1.5-.4 2.1-.8 1.1-.9 1.5-1.5c.4-.6.6-1.3.6-2.1 0-1-.3-1.8-1-2.4-.7-.6-1.5-1-2.6-1.4-.9-.3-1.9-.6-3-.8s-2.1-.4-3.1-.7c-1-.2-2-.5-2.9-.8s-1.7-.7-2.4-1.3c-.7-.5-1.2-1.2-1.6-1.9-.4-.8-.6-1.7-.6-2.9 0-1.3.3-2.5.9-3.4s1.4-1.7 2.3-2.2c1-.6 2.1-1 3.3-1.2 1.2-.2 2.5-.4 3.8-.4 1.6 0 3 .1 4.2.4 1.2.3 2.2.6 2.9 1 .8.4 1.3.8 1.7 1.3.4.4.6.9.6 1.2 0 .4-.2.7-.5 1-.3.3-.7.4-1.2.4-.2 0-.4 0-.6-.1-.2-.1-.4-.1-.6-.3-.4-.3-.8-.5-1.3-.7-.4-.2-.9-.4-1.5-.5-.5-.1-1.1-.2-1.8-.3-.6-.1-1.4-.1-2.2-.1-.8 0-1.5.1-2.3.2-.7.1-1.3.3-1.9.6-.6.3-1 .7-1.3 1.2.1.4-.1 1-.1 1.7zM587.3 172.5l.3-7.4c0-.6.3-1 .7-1.3s.9-.5 1.4-.5c.4 0 .8.1 1.2.4.3.3.5.7.5 1.3v7.5h4.7c.6 0 1 .2 1.3.5s.4.7.4 1.1-.1.8-.4 1.1-.7.5-1.3.5h-4.7v12.2c0 1.6 0 2.9.1 3.9s.2 1.8.4 2.5c.2.6.5 1.1 1 1.3.4.3 1.1.4 1.8.4.5 0 .9 0 1.5-.1.5-.1.9-.1 1.3-.1.5 0 .9.2 1.1.5.3.3.4.6.4.9 0 .5-.2.8-.5 1.1s-.7.5-1.3.6-1.1.3-1.6.3-1.1.1-1.5.1c-1.2 0-2.2-.2-3.1-.5-.9-.3-1.6-.8-2.1-1.5s-1-1.6-1.3-2.8-.4-2.6-.4-4.2v-14.6H584c-.6 0-1-.2-1.3-.5-.3-.3-.4-.7-.4-1.1s.1-.8.4-1.1c.3-.3.7-.5 1.3-.5h3.3zM620.1 180.5c0-1-.1-1.8-.4-2.5-.3-.7-.7-1.2-1.2-1.6s-1.2-.7-1.9-.9-1.6-.3-2.5-.3-1.7 0-2.4.1-1.4.3-2 .5-1.2.5-1.7.7-1 .5-1.6.9c-.3.2-.6.3-.9.3-.4 0-.8-.1-1.1-.4s-.4-.7-.4-1.1.2-.8.5-1.1c1.1-1.1 2.5-1.8 4.1-2.4s3.5-.8 5.6-.8c1.5 0 2.9.2 4.1.5 1.2.3 2.3.9 3.1 1.6.9.7 1.5 1.7 2 2.8s.7 2.5.7 4.1v15.9c0 .6-.2 1.1-.6 1.4-.4.3-.9.5-1.4.5-.5 0-.9-.1-1.4-.4-.4-.3-.6-.7-.6-1.4v-2.4c-.4.8-.9 1.5-1.5 2.1-.6.6-1.3 1.1-2.1 1.5-.8.4-1.6.7-2.5.9-.9.2-1.8.3-2.7.3-1.3 0-2.4-.2-3.5-.5s-2-.9-2.8-1.5-1.4-1.5-1.9-2.5-.7-2.1-.7-3.3c0-1.6.4-3 1.1-4.1.7-1.1 1.7-2 3-2.7s2.8-1.2 4.6-1.5 3.8-.4 6-.4h1.5s1 0 1.5.1v-2.4zm0 5.4h-2.6c-1 0-1.9 0-2.9.1s-2 .2-2.9.3-1.8.5-2.5.8-1.3.9-1.8 1.6c-.4.7-.7 1.5-.7 2.5 0 .8.1 1.5.4 2.1s.7 1 1.2 1.4 1.1.7 1.8.9 1.4.3 2.2.3c1 0 2-.2 2.9-.5s1.7-.8 2.4-1.4 1.2-1.4 1.6-2.4.6-2.1.7-3.5v-2.2zM632.2 174.5c0-.6.2-1.1.7-1.4.4-.3.9-.5 1.5-.5.9 0 1.6.4 1.9 1.1.3.7.4 1.8.2 3.3.4-.8.8-1.5 1.5-2s1.3-1.1 2.1-1.5 1.6-.8 2.5-1c.9-.2 1.8-.4 2.7-.4 1.3 0 2.5.2 3.6.6s2.1 1 3 1.8 1.5 1.9 2 3.2c.5 1.3.8 2.8.8 4.6v14.5c0 .7-.2 1.2-.7 1.5-.4.3-.9.5-1.5.5s-1-.2-1.4-.5-.6-.8-.6-1.5V182c0-1.1-.2-2.1-.5-2.9s-.8-1.5-1.3-2c-.6-.6-1.2-1-1.9-1.2s-1.5-.4-2.3-.4c-1.1 0-2.1.2-3.1.5s-1.8.8-2.5 1.5-1.3 1.5-1.7 2.5c-.4 1.1-.6 2.3-.6 3.7v13.2c0 .7-.2 1.2-.7 1.5-.4.3-.9.5-1.5.5s-1-.2-1.4-.5-.6-.8-.6-1.5v-22.4zM667.2 184.6v11.9c0 .7-.2 1.2-.7 1.6-.4.4-.9.5-1.5.5-.5 0-1-.2-1.4-.5-.4-.3-.6-.9-.6-1.6v-33.3c0-.7.2-1.2.7-1.6.4-.4.9-.5 1.5-.5.3 0 .5 0 .8.1s.5.2.7.4.4.4.5.7.2.6.2.9v19.9l11.9-10c.4-.4.9-.6 1.3-.6s.9.2 1.3.5.6.7.6 1.2c0 .2 0 .4-.1.6-.1.2-.2.4-.4.6l-10.2 8.5 11.5 11.9c.2.2.3.4.3.5.1.2.1.4.1.5 0 .2-.1.5-.2.7-.1.2-.3.4-.5.6s-.4.3-.7.4-.5.1-.7.1c-.5 0-.9-.2-1.4-.7l-13-13.3zM711.3 184.8c0 .4-.1.8-.4 1.1-.3.3-.7.5-1.3.5h-18.9c.1 1.7.3 3.1.7 4.3.4 1.2 1.1 2.2 1.9 3 .9.8 1.8 1.4 2.8 1.8 1 .4 2.1.6 3.4.6 1.3 0 2.6-.2 3.9-.7 1.3-.5 2.6-1.1 3.9-2l.6-.3c.2-.1.4-.1.5-.1.4 0 .7.1 1 .4s.4.6.4.9c0 .2 0 .4-.1.6s-.2.4-.4.6c-.7.7-1.5 1.3-2.3 1.8-.8.5-1.7.9-2.5 1.2s-1.7.5-2.6.7-1.7.2-2.6.2c-1.8 0-3.5-.3-5-.9-1.6-.6-2.9-1.5-4.1-2.7s-2.1-2.6-2.8-4.3c-.7-1.7-1-3.6-1-5.7 0-1.8.3-3.5.8-5.2.5-1.6 1.3-3.1 2.4-4.3s2.4-2.3 3.9-3c1.6-.7 3.4-1.1 5.4-1.1 2.1 0 4 .3 5.5 1 1.6.7 2.8 1.5 3.8 2.7s1.8 2.5 2.3 4.1c.4 1.2.7 3 .8 4.8zm-4.2-1.3c-.1-1.2-.3-2.4-.7-3.4s-.9-1.9-1.6-2.6-1.5-1.3-2.5-1.7c-1-.4-2.1-.6-3.5-.6-1.1 0-2.2.2-3.1.7s-1.8 1-2.5 1.8-1.2 1.6-1.7 2.6-.7 2.1-.8 3.2h16.4zM717.7 174.5c0-.6.2-1.1.6-1.5s1-.5 1.6-.5c.6 0 1.1.2 1.5.5s.5.8.5 1.5v2.3c.3-.8.6-1.4 1-2.1s.9-1.1 1.5-1.6 1.3-.7 2-1c.8-.2 1.7-.3 2.7-.3.7 0 1.2.2 1.6.6.4.4.5.8.5 1.3 0 .4-.2.8-.5 1.2-.4.4-.9.6-1.6.6-1.1 0-2.2.2-3 .6s-1.6.9-2.2 1.6c-.6.7-1.1 1.6-1.4 2.6-.3 1-.5 2.1-.5 3.4v12.9c0 .7-.2 1.1-.7 1.5-.4.3-.9.5-1.5.5-.3 0-.5 0-.8-.1-.2-.1-.5-.2-.7-.4s-.3-.4-.5-.6-.2-.5-.2-.9v-22.1z"/></g></svg>
