<?xml version="1.0" encoding="UTF-8" standalone="no"?>
<svg
   xmlns:dc="http://purl.org/dc/elements/1.1/"
   xmlns:cc="http://creativecommons.org/ns#"
   xmlns:rdf="http://www.w3.org/1999/02/22-rdf-syntax-ns#"
   xmlns:svg="http://www.w3.org/2000/svg"
   xmlns="http://www.w3.org/2000/svg"
   viewBox="0 0 579.89276 524.37659"
   height="524.37659"
   width="579.89276"
   id="svg2"
   version="1.1">
  <metadata
     id="metadata8">
    <rdf:RDF>
      <cc:Work
         rdf:about="">
        <dc:format>image/svg+xml</dc:format>
        <dc:type
           rdf:resource="http://purl.org/dc/dcmitype/StillImage" />
        <dc:title></dc:title>
      </cc:Work>
    </rdf:RDF>
  </metadata>
  <defs
     id="defs6" />
  <path
     id="path817"
     d="m 335.8672,523.31711 c -11.1341,-1.8269 -22.8499,-6.3823 -32.3286,-12.57 -7.5021,-4.8975 -16.7041,-13.2014 -19.8919,-17.9507 -1.8706,-2.7868 -1.2734,-3.0363 -10.2596,4.2871 -7.4651,6.0837 -25.3414,14.9651 -36.4349,18.1016 -31.4571,8.8941 -63.079,3.7671 -89.5251,-14.515 -13.9624,-9.6522 -24.7834,-23.9719 -24.8864,-32.9326 l -0.042,-3.6774 -8,-1.2084 c -23.1128,-3.491 -47.4458,-16.6132 -61.0983,-32.9488 -27.6205,-33.0489 -21.7202,-86.2162 14.3473,-129.2826 3.5302,-4.2153 8.5844,-9.4904 11.2316,-11.7225 l 4.8129,-4.0583 -6.6478,-6.7776 c -12.5129,-12.7569 -18.1622,-27.7769 -18.1241,-48.1875 0.054,-28.8676 12.9244,-59.5782 37.1269,-88.59 14.2904,-17.1301 28.0625,-28.1634 45.8515,-36.7336 21.1741,-10.201004 24.6433,-11.183804 39.5,-11.190204 14.4462,-0.01 19.8007,1.4163 30.1862,8.019804 l 5.1862,3.2975 2.6034,-4.4425 c 14.3449,-24.477604 47.2984,-42.785204 77.0242,-42.791304 13.3916,0 25.6952,3.6442 36.0638,10.6899 l 3.7996,2.5819 1.954,-3.2131 c 9.0921,-14.9508 29.5432,-28.6139 51.563,-34.4488 12.9976,-3.4441 32.5272,-3.6274 44.6196,-0.4187 16.2275,4.3058 36.4744,16.3542 51.371,30.5695 18.2133,17.3801 33.0679,43.705504 33.1171,58.690404 0.011,3.3531 0.4902,3.92 6.7148,7.9456 23.7166,15.3378 41.982,43.6627 48.9726,75.9436 5.8269,26.9076 6.7816,49.1842 2.8268,65.9616 -6.2297,26.4281 -25.7856,51.6835 -48.7887,63.0079 l -6.3869,3.1442 2.9681,11.1932 c 3.8978,14.6992 4.8915,36.7154 2.2481,49.8079 -6.4629,32.0108 -27.6653,52.9335 -53.6988,52.9907 -7.6712,0.017 -17.1249,-2.1328 -18.3914,-4.182 -1.1255,-1.8211 -2.3177,-0.8614 -3.511,2.8265 -0.6673,2.0625 -3.1082,7.8305 -5.4242,12.8179 -17.6233,37.9515 -49.2271,59.3384 -90.0175,60.9167 -7.7789,0.301 -15.0361,-0.034 -20.6312,-0.9519 z m 32.6312,-8.4263 c 33.3916,-6.928 56.0178,-26.4239 78.2383,-67.4137 3.6352,-6.706 7.8658,-15.3427 9.4012,-19.1927 1.6578,-4.157 2.8056,-6.0523 2.8261,-4.6666 0.032,2.1616 -3.1994,16.0063 -4.5685,19.5741 -1.5545,4.0511 14.6237,5.1001 25.675,1.6649 29.6379,-9.2127 45.3392,-42.9475 40.9759,-88.0379 -0.6635,-6.856 -1.8392,-14.281 -2.6126,-16.5 -0.7735,-2.219 -1.4128,-5.8375 -1.4208,-8.0411 -0.01,-2.2036 -0.4569,-5.5488 -0.9975,-7.4338 -1.4972,-5.2205 -0.4582,-4.7997 1.5544,0.6296 0.9809,2.646 1.9026,4.9724 2.0484,5.1699 0.8158,1.1056 22.3801,-16.4871 22.3801,-18.2583 0,-0.6746 1.3559,-2.5257 3.0131,-4.1134 8.4712,-8.1159 18.1656,-25.8424 22.1785,-40.5542 3.2657,-11.9726 3.2674,-37.2795 0,-53.6302 -4.1659,-20.8693 -13.3155,-43.5082 -23.4816,-58.1007 -6.0109,-8.6281 -14.6965,-18.1758 -19.9381,-21.917 l -4.5039,-3.2147 -0.5285,5.8281 c -0.4842,5.34 -4.1824,15.9951 -5.1988,14.9787 -0.2374,-0.2374 0.03,-2.4444 0.5954,-4.9045 0.5649,-2.4601 0.7402,-7.6229 0.3896,-11.4729 -2.2808,-25.0412 -13.624,-47.582904 -34.5081,-68.575904 -14.9767,-15.0547 -25.3791,-21.2376 -43.7877,-26.0261 -9.0689,-2.359 -26.1429,-2.8228 -36.2333,-0.9842 -18.9341,3.4499 -38.1052,12.5032 -52.805,24.9361 -8.4541,7.1505 -8.4559,7.0306 0.2449,16.2796 7.3953,7.8612 9.9192,11.8566 5.1826,8.2039 -1.3076,-1.0084 -5.5497,-4.6077 -9.427,-7.9985 -8.5376,-7.4664 -14.046,-10.7878 -23.1318,-13.9475 -24.5788,-8.5477 -59.4578,0.9262 -82.1214,22.3058 -8.6088,8.1211 -13.4091,15.315504 -17.0063,25.487704 -4.802,13.5795 -7.2282,13.875 -6.725,0.8191 l 0.289,-7.5 -5.5,-1.8842 c -3.8958,-1.3347 -9.4522,-2.0265 -19.0498,-2.3718 -16.3309,-0.5877 -24.6687,1.1463 -40.3825,8.3981 -16.306,7.5251 -31.38,20.0605 -45.5245,37.8579 -36.1938,45.5409 -44.4851,98.7277 -19.6645,126.1429 l 4.3487,4.8033 3.9542,-2.6168 c 4.7522,-3.1448 15.8636,-8.8294 17.2585,-8.8294 2.3499,0 -0.6483,3.3524 -7.2958,8.1577 -3.9294,2.8404 -8.0443,5.9844 -9.1443,6.9866 -1.1,1.0022 -4.6402,4.1922 -7.8672,7.0889 -11.204,10.0574 -23.3157,26.1039 -30.4773,40.3788 -5.6264,11.2149 -6.9671,14.6957 -9.6995,25.1816 -9.7894,37.5676 3.163,71.4776 34.0505,89.1457 17.4031,9.9548 34.568,14.4215 53.3981,13.8951 13.1235,-0.3668 13.6299,0.5732 1.2519,2.3237 l -7.9642,1.1263 1.5166,5.1078 c 4.6304,15.5943 22.0023,30.4808 43.7911,37.5258 31.7025,10.2503 64.5543,4.6891 100.1905,-16.9607 6.8658,-4.1711 21.9112,-15.5675 24.212,-18.3399 0.7383,-0.8896 1.7679,-1.6174 2.288,-1.6174 1.1657,0 -1.7611,4.1687 -8.2447,11.7429 -2.7104,3.1664 -4.932,6.3782 -4.9369,7.1374 0,0.7591 3.0286,4.3634 6.7411,8.0094 9.2439,9.0784 21.5323,15.4117 36.25,18.6829 8.7829,1.9521 30.0227,1.7076 40.5,-0.4662 z m -185.8691,-13.9618 c -2.0454,-2.2601 -1.1971,-5.0035 1.7294,-5.5926 6.805,-1.3697 7.6397,-1.3006 7.6397,0.6321 0,2.2099 -4.257,6.8159 -6.2996,6.8159 -0.7647,0 -2.146,-0.8349 -3.0695,-1.8554 z m -27.1767,-7.2186 c -0.8807,-1.425 3.0492,-5.5301 8.1882,-8.5532 4.2866,-2.5216 11.3576,-4.0479 11.3576,-2.4517 0,1.3975 -8.6344,8.6775 -12.4257,10.4766 -3.9337,1.8667 -6.1894,2.034 -7.1201,0.5283 z m -15.3499,-11.8404 c -3.6045,-2.2823 4.2239,-6.973 9.4488,-5.6616 3.4879,0.8754 3.0364,2.2346 -1.5133,4.5557 -4.357,2.2228 -5.8443,2.4301 -7.9355,1.1059 z M 100.9277,91.476806 c -5.7537,-1.6266 -13.3607,-6.0425 -15.3832,-8.93 -4.01,-5.7251 -0.7629,-17.2517 7.3219,-25.9918 11.598,-12.538 21.8436,-13.9079 32.7941,-4.3848 6.2533,5.4381 8.646,11.1559 8.1728,19.5302 -0.4659,8.2456 -3.765,13.7866 -10.5895,17.7861 -5.2691,3.0879 -15.2764,3.9804 -22.3161,1.9903 z m 17.0863,-8.544 c 7.4038,-3.9344 10.1099,-13.1255 6.4463,-21.8939 -2.4725,-5.9174 -4.2089,-7.2545 -9.4211,-7.2545 -10.7068,0 -23.7379,14.1152 -22.8496,24.7507 0.2803,3.3552 0.6782,3.8073 4.3088,4.8961 6.4053,1.9208 17.4443,1.6651 21.5156,-0.4984 z M 10.9828,38.921906 C 5.8395,36.172706 0.0021,27.301306 0,22.230706 0,13.534406 9.1009,1.6062064 16.8519,0.15210637 23.7218,-1.1366936 32.8138,5.8971064 37.6202,16.219006 c 2.7188,5.8388 3.0042,10.4542 0.8982,14.5268 -4.431,8.5686 -18.8124,12.8389 -27.5356,8.1761 z m 16.3567,-7.6166 c 2.3583,-1.1268 4.4475,-3.1067 5.4117,-5.1286 1.5157,-3.1787 1.4612,-3.5153 -1.5666,-9.6656 C 27.0395,8.0911064 25.0708,6.3606064 20.5924,7.2008064 16.2446,8.0164064 9.6516,15.169306 8.285,20.553306 c -1.1309,4.4555 0.2163,9.3701 3.2134,11.7222 2.5829,2.027 10.5953,1.5363 15.8411,-0.9702 z"
     style="fill:#000000" />
  <g
     id="text818"
     style="font-style:normal;font-weight:normal;font-size:40px;line-height:1.25;font-family:sans-serif;letter-spacing:0px;word-spacing:0px;fill:#000000;fill-opacity:1;stroke:none"
     aria-label="Jeg tjekker altid,
hvor toiletterne er">
    <path
       id="path822"
       style=""
       d="m 137.24185,233.02814 h 3.94531 v 27.1289 q 0,5.27344 -2.01171,7.65625 -1.99219,2.38282 -6.42579,2.38282 h -1.5039 v -3.32032 h 1.23047 q 2.61718,0 3.6914,-1.46484 1.07422,-1.46484 1.07422,-5.25391 z" />
    <path
       id="path824"
       style=""
       d="m 167.59341,250.35236 v 1.75781 h -16.52343 q 0.23437,3.71094 2.22656,5.66406 2.01172,1.93359 5.58594,1.93359 2.07031,0 4.0039,-0.50781 1.95313,-0.50781 3.86719,-1.52344 v 3.39844 q -1.93359,0.82031 -3.96484,1.25 -2.03125,0.42969 -4.1211,0.42969 -5.23437,0 -8.30078,-3.04688 -3.04687,-3.04687 -3.04687,-8.24218 0,-5.3711 2.89062,-8.51563 2.91016,-3.16406 7.83203,-3.16406 4.41407,0 6.97266,2.85156 2.57812,2.83203 2.57812,7.71485 z m -3.59375,-1.05469 q -0.0391,-2.94922 -1.66015,-4.70703 -1.60156,-1.75782 -4.25781,-1.75782 -3.00782,0 -4.82422,1.69922 -1.79688,1.69922 -2.07032,4.78516 z" />
    <path
       id="path826"
       style=""
       d="m 187.88638,250.99689 q 0,-3.90625 -1.62109,-6.05469 -1.60156,-2.14844 -4.51172,-2.14844 -2.89062,0 -4.51172,2.14844 -1.60156,2.14844 -1.60156,6.05469 0,3.88672 1.60156,6.03515 1.6211,2.14844 4.51172,2.14844 2.91016,0 4.51172,-2.14844 1.62109,-2.14843 1.62109,-6.03515 z m 3.59375,8.47656 q 0,5.58594 -2.48047,8.30078 -2.48046,2.73438 -7.59765,2.73438 -1.89453,0 -3.57422,-0.29297 -1.67969,-0.27344 -3.26172,-0.85938 v -3.49609 q 1.58203,0.85937 3.125,1.26953 1.54297,0.41016 3.14453,0.41016 3.53516,0 5.29297,-1.85547 1.75781,-1.83594 1.75781,-5.56641 v -1.77734 q -1.11328,1.93359 -2.85156,2.89062 -1.73828,0.95703 -4.16016,0.95703 -4.02343,0 -6.48437,-3.0664 -2.46094,-3.06641 -2.46094,-8.125 0,-5.07813 2.46094,-8.14453 2.46094,-3.06641 6.48437,-3.06641 2.42188,0 4.16016,0.95703 1.73828,0.95703 2.85156,2.89063 v -3.32032 h 3.59375 z" />
    <path
       id="path828"
       style=""
       d="m 215.15201,234.10236 v 6.21093 h 7.40234 v 2.79297 h -7.40234 v 11.875 q 0,2.67578 0.72265,3.4375 0.74219,0.76172 2.98829,0.76172 h 3.6914 v 3.00781 h -3.6914 q -4.16016,0 -5.74219,-1.54297 -1.58203,-1.5625 -1.58203,-5.66406 v -11.875 h -2.63672 v -2.79297 h 2.63672 v -6.21093 z" />
    <path
       id="path830"
       style=""
       d="m 227.28091,240.31329 h 3.59375 v 22.26563 q 0,4.17969 -1.60156,6.05469 -1.58203,1.875 -5.11719,1.875 h -1.36718 v -3.04688 h 0.95703 q 2.05078,0 2.79297,-0.95703 0.74218,-0.9375 0.74218,-3.92578 z m 0,-8.51562 h 3.59375 v 4.55078 h -3.59375 z" />
    <path
       id="path832"
       style=""
       d="m 257.10513,250.35236 v 1.75781 H 240.5817 q 0.23437,3.71094 2.22656,5.66406 2.01172,1.93359 5.58594,1.93359 2.07031,0 4.0039,-0.50781 1.95313,-0.50781 3.86719,-1.52344 v 3.39844 q -1.93359,0.82031 -3.96484,1.25 -2.03125,0.42969 -4.1211,0.42969 -5.23437,0 -8.30078,-3.04688 -3.04687,-3.04687 -3.04687,-8.24218 0,-5.3711 2.89062,-8.51563 2.91016,-3.16406 7.83203,-3.16406 4.41406,0 6.97266,2.85156 2.57812,2.83203 2.57812,7.71485 z m -3.59375,-1.05469 q -0.0391,-2.94922 -1.66015,-4.70703 -1.60157,-1.75782 -4.25782,-1.75782 -3.00781,0 -4.82421,1.69922 -1.79688,1.69922 -2.07032,4.78516 z" />
    <path
       id="path834"
       style=""
       d="m 262.86685,231.79767 h 3.61328 v 17.94922 l 10.72266,-9.4336 h 4.58984 l -11.60156,10.23438 12.08984,11.64062 h -4.6875 L 266.48013,251.5047 v 10.68359 h -3.61328 z" />
    <path
       id="path836"
       style=""
       d="m 286.03091,231.79767 h 3.61329 v 17.94922 l 10.72265,-9.4336 h 4.58985 l -11.60157,10.23438 12.08985,11.64062 h -4.6875 L 289.6442,251.5047 v 10.68359 h -3.61329 z" />
    <path
       id="path838"
       style=""
       d="m 326.61685,250.35236 v 1.75781 h -16.52344 q 0.23438,3.71094 2.22657,5.66406 2.01172,1.93359 5.58593,1.93359 2.07032,0 4.00391,-0.50781 1.95313,-0.50781 3.86719,-1.52344 v 3.39844 q -1.9336,0.82031 -3.96485,1.25 -2.03125,0.42969 -4.12109,0.42969 -5.23437,0 -8.30078,-3.04688 -3.04688,-3.04687 -3.04688,-8.24218 0,-5.3711 2.89063,-8.51563 2.91016,-3.16406 7.83203,-3.16406 4.41406,0 6.97266,2.85156 2.57812,2.83203 2.57812,7.71485 z m -3.59375,-1.05469 q -0.0391,-2.94922 -1.66015,-4.70703 -1.60157,-1.75782 -4.25782,-1.75782 -3.00781,0 -4.82422,1.69922 -1.79687,1.69922 -2.07031,4.78516 z" />
    <path
       id="path840"
       style=""
       d="m 345.19107,243.67267 q -0.60547,-0.35156 -1.32812,-0.50781 -0.70313,-0.17579 -1.5625,-0.17579 -3.04688,0 -4.6875,1.99219 -1.6211,1.97266 -1.6211,5.6836 v 11.52343 h -3.61328 v -21.875 h 3.61328 v 3.39844 q 1.13281,-1.99219 2.94922,-2.94922 1.81641,-0.97656 4.41406,-0.97656 0.3711,0 0.82032,0.0586 0.44921,0.0391 0.99609,0.13672 z" />
    <path
       id="path842"
       style=""
       d="m 371.61685,251.1922 q -4.35547,0 -6.03515,0.99609 -1.67969,0.9961 -1.67969,3.39844 0,1.91406 1.25,3.04688 1.26953,1.11328 3.4375,1.11328 2.98828,0 4.78515,-2.10938 1.81641,-2.1289 1.81641,-5.64453 v -0.80078 z m 7.16797,-1.48438 v 12.48047 h -3.59375 v -3.32031 q -1.23047,1.99219 -3.06641,2.94922 -1.83593,0.9375 -4.49218,0.9375 -3.35938,0 -5.35157,-1.875 -1.97265,-1.89453 -1.97265,-5.05859 0,-3.69141 2.46094,-5.56641 2.48046,-1.875 7.38281,-1.875 h 5.03906 v -0.35156 q 0,-2.48047 -1.64062,-3.82813 -1.6211,-1.36719 -4.57032,-1.36719 -1.875,0 -3.65234,0.44922 -1.77734,0.44922 -3.41797,1.34766 v -3.32031 q 1.97266,-0.76172 3.82813,-1.13282 1.85546,-0.39062 3.61328,-0.39062 4.74609,0 7.08984,2.46094 2.34375,2.46093 2.34375,7.46093 z" />
    <path
       id="path844"
       style=""
       d="m 386.18716,231.79767 h 3.59375 v 30.39062 h -3.59375 z" />
    <path
       id="path846"
       style=""
       d="m 400.85513,234.10236 v 6.21093 h 7.40235 v 2.79297 h -7.40235 v 11.875 q 0,2.67578 0.72266,3.4375 0.74219,0.76172 2.98828,0.76172 h 3.69141 v 3.00781 h -3.69141 q -4.16016,0 -5.74219,-1.54297 -1.58203,-1.5625 -1.58203,-5.66406 v -11.875 h -2.63672 v -2.79297 h 2.63672 v -6.21093 z" />
    <path
       id="path848"
       style=""
       d="m 412.98404,240.31329 h 3.59375 v 21.875 h -3.59375 z m 0,-8.51562 h 3.59375 v 4.55078 h -3.59375 z" />
    <path
       id="path850"
       style=""
       d="m 438.49185,243.63361 v -11.83594 h 3.59375 v 30.39062 h -3.59375 v -3.28125 q -1.13281,1.95313 -2.87109,2.91016 -1.71875,0.9375 -4.14063,0.9375 -3.96484,0 -6.46484,-3.16406 -2.48047,-3.16407 -2.48047,-8.32032 0,-5.15625 2.48047,-8.32031 2.5,-3.16406 6.46484,-3.16406 2.42188,0 4.14063,0.95703 1.73828,0.9375 2.87109,2.89063 z m -12.24609,7.63671 q 0,3.96485 1.62109,6.23047 1.64063,2.2461 4.49219,2.2461 2.85156,0 4.49219,-2.2461 1.64062,-2.26562 1.64062,-6.23047 0,-3.96484 -1.64062,-6.21093 -1.64063,-2.26563 -4.49219,-2.26563 -2.85156,0 -4.49219,2.26563 -1.62109,2.24609 -1.62109,6.21093 z" />
    <path
       id="path852"
       style=""
       d="m 450.40591,257.22736 h 4.1211 v 3.35937 l -3.20313,6.25 h -2.51953 l 1.60156,-6.25 z" />
    <path
       id="path854"
       style=""
       d="m 155.2692,298.98517 v 13.20312 h -3.59375 v -13.08593 q 0,-3.10547 -1.21094,-4.64844 -1.21094,-1.54297 -3.63281,-1.54297 -2.91016,0 -4.58985,1.85547 -1.67969,1.85547 -1.67969,5.05859 v 12.36328 h -3.61328 v -30.39062 h 3.61328 v 11.91406 q 1.28907,-1.97266 3.02735,-2.94922 1.75781,-0.97656 4.04297,-0.97656 3.76953,0 5.70312,2.34375 1.9336,2.32422 1.9336,6.85547 z" />
    <path
       id="path856"
       style=""
       d="m 159.85904,290.31329 h 3.80859 l 6.83594,18.35938 6.83594,-18.35938 h 3.80859 l -8.20312,21.875 h -4.88282 z" />
    <path
       id="path858"
       style=""
       d="m 194.5856,292.83282 q -2.89062,0 -4.57031,2.26563 -1.67969,2.24609 -1.67969,6.17187 0,3.92579 1.66016,6.19141 1.67969,2.24609 4.58984,2.24609 2.8711,0 4.55078,-2.26562 1.67969,-2.26563 1.67969,-6.17188 0,-3.88671 -1.67969,-6.15234 -1.67968,-2.28516 -4.55078,-2.28516 z m 0,-3.04687 q 4.6875,0 7.36328,3.04687 2.67578,3.04688 2.67578,8.4375 0,5.3711 -2.67578,8.4375 -2.67578,3.04688 -7.36328,3.04688 -4.70703,0 -7.38281,-3.04688 -2.65625,-3.0664 -2.65625,-8.4375 0,-5.39062 2.65625,-8.4375 2.67578,-3.04687 7.38281,-3.04687 z" />
    <path
       id="path860"
       style=""
       d="m 223.25748,293.67267 q -0.60547,-0.35156 -1.32813,-0.50781 -0.70312,-0.17579 -1.5625,-0.17579 -3.04687,0 -4.6875,1.99219 -1.62109,1.97266 -1.62109,5.6836 v 11.52343 h -3.61328 v -21.875 h 3.61328 v 3.39844 q 1.13281,-1.99219 2.94922,-2.94922 1.8164,-0.97656 4.41406,-0.97656 0.37109,0 0.82031,0.0586 0.44922,0.0391 0.9961,0.13672 z" />
    <path
       id="path862"
       style=""
       d="m 243.29654,284.10236 v 6.21093 h 7.40234 v 2.79297 h -7.40234 v 11.875 q 0,2.67578 0.72266,3.4375 0.74218,0.76172 2.98828,0.76172 h 3.6914 v 3.00781 h -3.6914 q -4.16016,0 -5.74219,-1.54297 -1.58203,-1.5625 -1.58203,-5.66406 v -11.875 h -2.63672 v -2.79297 h 2.63672 v -6.21093 z" />
    <path
       id="path864"
       style=""
       d="m 263.90201,292.83282 q -2.89063,0 -4.57031,2.26563 -1.67969,2.24609 -1.67969,6.17187 0,3.92579 1.66015,6.19141 1.67969,2.24609 4.58985,2.24609 2.87109,0 4.55078,-2.26562 1.67969,-2.26563 1.67969,-6.17188 0,-3.88671 -1.67969,-6.15234 -1.67969,-2.28516 -4.55078,-2.28516 z m 0,-3.04687 q 4.6875,0 7.36328,3.04687 2.67578,3.04688 2.67578,8.4375 0,5.3711 -2.67578,8.4375 -2.67578,3.04688 -7.36328,3.04688 -4.70703,0 -7.38281,-3.04688 -2.65625,-3.0664 -2.65625,-8.4375 0,-5.39062 2.65625,-8.4375 2.67578,-3.04687 7.38281,-3.04687 z" />
    <path
       id="path866"
       style=""
       d="m 279.8981,290.31329 h 3.59375 v 21.875 h -3.59375 z m 0,-8.51562 h 3.59375 v 4.55078 h -3.59375 z" />
    <path
       id="path868"
       style=""
       d="m 291.01138,281.79767 h 3.59375 v 30.39062 h -3.59375 z" />
    <path
       id="path870"
       style=""
       d="m 320.8356,300.35236 v 1.75781 h -16.52344 q 0.23438,3.71094 2.22657,5.66406 2.01172,1.93359 5.58593,1.93359 2.07032,0 4.00391,-0.50781 1.95313,-0.50781 3.86719,-1.52344 v 3.39844 q -1.9336,0.82031 -3.96485,1.25 -2.03125,0.42969 -4.12109,0.42969 -5.23437,0 -8.30078,-3.04688 -3.04688,-3.04687 -3.04688,-8.24218 0,-5.3711 2.89063,-8.51563 2.91016,-3.16406 7.83203,-3.16406 4.41406,0 6.97266,2.85156 2.57812,2.83203 2.57812,7.71485 z m -3.59375,-1.05469 q -0.0391,-2.94922 -1.66015,-4.70703 -1.60157,-1.75782 -4.25782,-1.75782 -3.00781,0 -4.82422,1.69922 -1.79687,1.69922 -2.07031,4.78516 z" />
    <path
       id="path872"
       style=""
       d="m 330.28873,284.10236 v 6.21093 h 7.40234 v 2.79297 h -7.40234 v 11.875 q 0,2.67578 0.72265,3.4375 0.74219,0.76172 2.98828,0.76172 h 3.69141 v 3.00781 h -3.69141 q -4.16015,0 -5.74218,-1.54297 -1.58203,-1.5625 -1.58203,-5.66406 v -11.875 h -2.63672 v -2.79297 h 2.63672 v -6.21093 z" />
    <path
       id="path874"
       style=""
       d="m 345.97232,284.10236 v 6.21093 h 7.40234 v 2.79297 h -7.40234 v 11.875 q 0,2.67578 0.72266,3.4375 0.74218,0.76172 2.98828,0.76172 h 3.6914 v 3.00781 h -3.6914 q -4.16016,0 -5.74219,-1.54297 -1.58203,-1.5625 -1.58203,-5.66406 v -11.875 h -2.63672 v -2.79297 h 2.63672 v -6.21093 z" />
    <path
       id="path876"
       style=""
       d="m 376.81216,300.35236 v 1.75781 h -16.52343 q 0.23437,3.71094 2.22656,5.66406 2.01172,1.93359 5.58594,1.93359 2.07031,0 4.0039,-0.50781 1.95313,-0.50781 3.86719,-1.52344 v 3.39844 q -1.93359,0.82031 -3.96484,1.25 -2.03125,0.42969 -4.1211,0.42969 -5.23437,0 -8.30078,-3.04688 -3.04687,-3.04687 -3.04687,-8.24218 0,-5.3711 2.89062,-8.51563 2.91016,-3.16406 7.83203,-3.16406 4.41407,0 6.97266,2.85156 2.57812,2.83203 2.57812,7.71485 z m -3.59375,-1.05469 q -0.0391,-2.94922 -1.66015,-4.70703 -1.60156,-1.75782 -4.25781,-1.75782 -3.00782,0 -4.82422,1.69922 -1.79688,1.69922 -2.07032,4.78516 z" />
    <path
       id="path878"
       style=""
       d="m 395.38638,293.67267 q -0.60547,-0.35156 -1.32812,-0.50781 -0.70313,-0.17579 -1.5625,-0.17579 -3.04688,0 -4.6875,1.99219 -1.6211,1.97266 -1.6211,5.6836 v 11.52343 h -3.61328 v -21.875 h 3.61328 v 3.39844 q 1.13282,-1.99219 2.94922,-2.94922 1.81641,-0.97656 4.41407,-0.97656 0.37109,0 0.82031,0.0586 0.44922,0.0391 0.99609,0.13672 z" />
    <path
       id="path880"
       style=""
       d="m 416.63638,298.98517 v 13.20312 h -3.59375 v -13.08593 q 0,-3.10547 -1.21093,-4.64844 -1.21094,-1.54297 -3.63282,-1.54297 -2.91015,0 -4.58984,1.85547 -1.67969,1.85547 -1.67969,5.05859 v 12.36328 h -3.61328 v -21.875 h 3.61328 v 3.39844 q 1.28906,-1.97266 3.02735,-2.94922 1.75781,-0.97656 4.04296,-0.97656 3.76954,0 5.70313,2.34375 1.93359,2.32422 1.93359,6.85547 z" />
    <path
       id="path882"
       style=""
       d="m 442.51529,300.35236 v 1.75781 h -16.52344 q 0.23438,3.71094 2.22656,5.66406 2.01172,1.93359 5.58594,1.93359 2.07031,0 4.00391,-0.50781 1.95312,-0.50781 3.86719,-1.52344 v 3.39844 q -1.9336,0.82031 -3.96485,1.25 -2.03125,0.42969 -4.12109,0.42969 -5.23438,0 -8.30078,-3.04688 -3.04688,-3.04687 -3.04688,-8.24218 0,-5.3711 2.89063,-8.51563 2.91015,-3.16406 7.83203,-3.16406 4.41406,0 6.97265,2.85156 2.57813,2.83203 2.57813,7.71485 z m -3.59375,-1.05469 q -0.0391,-2.94922 -1.66016,-4.70703 -1.60156,-1.75782 -4.25781,-1.75782 -3.00781,0 -4.82422,1.69922 -1.79687,1.69922 -2.07031,4.78516 z" />
    <path
       id="path884"
       style=""
       d="m 479.83951,300.35236 v 1.75781 h -16.52344 q 0.23438,3.71094 2.22656,5.66406 2.01172,1.93359 5.58594,1.93359 2.07031,0 4.00391,-0.50781 1.95312,-0.50781 3.86718,-1.52344 v 3.39844 q -1.93359,0.82031 -3.96484,1.25 -2.03125,0.42969 -4.12109,0.42969 -5.23438,0 -8.30078,-3.04688 -3.04688,-3.04687 -3.04688,-8.24218 0,-5.3711 2.89063,-8.51563 2.91015,-3.16406 7.83203,-3.16406 4.41406,0 6.97265,2.85156 2.57813,2.83203 2.57813,7.71485 z m -3.59375,-1.05469 q -0.0391,-2.94922 -1.66016,-4.70703 -1.60156,-1.75782 -4.25781,-1.75782 -3.00781,0 -4.82422,1.69922 -1.79687,1.69922 -2.07031,4.78516 z" />
    <path
       id="path886"
       style=""
       d="m 498.41373,293.67267 q -0.60547,-0.35156 -1.32813,-0.50781 -0.70312,-0.17579 -1.5625,-0.17579 -3.04687,0 -4.6875,1.99219 -1.62109,1.97266 -1.62109,5.6836 v 11.52343 h -3.61328 v -21.875 h 3.61328 v 3.39844 q 1.13281,-1.99219 2.94922,-2.94922 1.8164,-0.97656 4.41406,-0.97656 0.37109,0 0.82031,0.0586 0.44922,0.0391 0.9961,0.13672 z" />
  </g>
</svg>
