<?xml version="1.0" encoding="UTF-8" standalone="no"?>
<svg
   xmlns:dc="http://purl.org/dc/elements/1.1/"
   xmlns:cc="http://creativecommons.org/ns#"
   xmlns:rdf="http://www.w3.org/1999/02/22-rdf-syntax-ns#"
   xmlns:svg="http://www.w3.org/2000/svg"
   xmlns="http://www.w3.org/2000/svg"
   viewBox="0 0 491.46451 482.73682"
   height="482.73682"
   width="491.46451"
   id="svg2"
   version="1.1">
  <metadata
     id="metadata8">
    <rdf:RDF>
      <cc:Work
         rdf:about="">
        <dc:format>image/svg+xml</dc:format>
        <dc:type
           rdf:resource="http://purl.org/dc/dcmitype/StillImage" />
        <dc:title></dc:title>
      </cc:Work>
    </rdf:RDF>
  </metadata>
  <defs
     id="defs6" />
  <path
     id="path817"
     d="M 9.6649063,480.13915 C 5.1700063,476.94097 -0.02709368,467.10791 1.0631614e-4,461.85299 0.01210632,459.61395 1.1170063,456.71637 3.0453063,453.87032 c 5.345,-7.88907 6.0841,-8.28298 14.7945997,-7.88499 7.1794,0.32802 7.9437,0.58053 10.8945,3.59942 4.0887,4.1829 5.2475,6.42093 5.2475,10.13464 0,3.73497 -6.8023,18.11747 -8.9347,18.89121 -0.8609,0.31236 -2.6385,1.39134 -3.9502,2.39772 -3.3367,2.5601 -7.0043,2.28126 -11.4320997,-0.86917 z M 23.353606,473.5881 c 1.3604,-1.7875 3.1706,-5.275 4.0226,-7.75 2.9822,-8.6627 -1.6586,-14 -12.173,-14 -5.3144997,0 -6.3301997,0.70921 -7.9564997,5.5557 -1.2628,3.76352 0.7521,10.47616 4.4856997,14.9443 4.5262,5.41649 8.1533,5.80663 11.6212,1.25 z M 334.98191,452.88186 c -5.225,-0.9495 -11.75,-2.8584 -14.5,-4.242 -2.75,-1.38361 -6.125,-2.78717 -7.5,-3.11903 -2.8689,-0.69241 -19.0472,-14.72973 -20.4028,-17.70274 -0.4966,-1.089 -1.5453,-1.97999 -2.3305,-1.97999 -0.7852,0 -2.1156,-1.75152 -2.9565,-3.89228 l -1.5289,-3.89227 -5.5565,3.89227 c -3.056,2.14076 -6.4943,3.89715 -7.6406,3.9031 -1.1463,0.006 -4.3342,0.71569 -7.0842,1.57718 -6.6228,2.07474 -20.3948,2.09459 -28.1443,0.0406 -3.3794,-0.89571 -7.2044,-1.63296 -8.5,-1.63833 -1.2957,-0.005 -4.7758,-1.13635 -7.7337,-2.51328 -5.3111,-2.47241 -7.3075,-3.8947 -17.1622,-12.22695 -2.7646,-2.3375 -5.349,-4.25307 -5.7432,-4.25683 -0.3941,-0.004 -1.8374,-1.69126 -3.2073,-3.75 -1.3699,-2.05874 -2.9984,-4.06998 -3.6188,-4.46941 -0.6204,-0.39943 -2.3856,-3.21193 -3.9228,-6.25 -1.5371,-3.03807 -3.1894,-5.52376 -3.6717,-5.52376 -0.8089,0 -6.6469,3.78327 -7.796,5.0521 -0.275,0.30366 -2.075,1.28253 -4,2.17527 -11.3064,5.24349 -25.0354,5.00862 -37.5,-0.64153 -4.4,-1.9945 -8.675,-4.04734 -9.5,-4.56187 -0.825,-0.51453 -4.65,-2.49477 -8.5,-4.40052 -3.85,-1.90576 -9.6773,-5.86317 -12.9496,-8.79423 -13.496604,-12.08929 -17.851804,-16.50599 -19.553004,-19.82922 -0.9855,-1.925 -3.0514,-4.85 -4.5909,-6.5 -3.4384,-3.68516 -10.4065,-13.51856 -10.4065,-14.68569 0,-0.46975 -1.0374,-2.53265 -2.3054,-4.58422 -3.6693,-5.9369 -12.5863,-27.67401 -13.2953,-32.41022 -0.3557,-2.37595 -1.2661,-6.77695 -2.023,-9.78001 -1.9748,-7.83452 -1.7086,-24.84369 0.5448,-34.80663 2.0821,-9.20583 7.4222,-19.06212 14.7343,-27.19484 l 4.3542,-4.84293 -7.1006,-7.34775 c -14.3051,-14.80291 -25.2834,-35.91461 -31.9016,-61.34775 -2.8969,-11.13236 -2.1493,-31.49235 1.52,-41.39789 4.3316,-11.693222 5.4729,-14.085192 8.8011,-18.445372 2.0193,-2.64546 3.6715,-5.36219 3.6715,-6.03717 0,-3.34154 19.9867,-17.894629 32.5423,-23.695349 4.6291,-2.138666 12.1384,-4.62068 16.6872,-5.515588 7.958204,-1.565662 8.274304,-1.732852 8.372404,-4.427491 0.2601,-7.146852 9.673,-20.807308 20.0012,-29.026636 11.956,-9.51468 27.6058,-16.0941017 43.1373,-18.1355277 19.3583,-2.54441 45.9237,5.2325267 63.1398,18.4839447 2.9591,2.277662 5.8799,4.941276 6.4906,5.919141 1.1275,1.805443 3.6292,2.461385 3.6292,0.951572 0,-1.187127 14.0104,-16.173636 15.1202,-16.173636 0.5104,0 3.1406,-1.52201 5.8449,-3.382245 20.7754,-14.2909177 47.2911,-15.2431337 74.5426,-2.6769267 3.3042,1.5236387 6.6218,3.5102597 7.3724,4.4147127 0.7506,0.904452 1.9122,1.644459 2.5812,1.644459 2.2216,0 19.5387,16.086534 19.5387,18.15027 0,0.410677 1.1076,1.941757 2.4612,3.402399 1.3537,1.460642 3.4127,4.621121 4.5756,7.023286 1.1628,2.402165 3.1127,5.842779 4.333,7.645809 1.2203,1.80303 3.2538,6.920482 4.519,11.372117 1.2651,4.451634 2.6093,8.594012 2.9871,9.205283 0.4705,0.761298 2.2895,0.318272 5.7744,-1.406381 5.7295,-2.835486 15.6524,-3.438067 22.0185,-1.33709 10.6212,3.505317 21.9381,12.002497 24.4319,18.344507 0.6704,1.70489 2.1772,4.4498 3.3484,6.0998 2.7395,3.85932 4.8991,9.254492 7.2051,18.000002 2.5045,9.49822 2.6246,36.15587 0.2028,45 -0.9037,3.3 -1.949,8.2943 -2.323,11.09844 -0.6705,5.02699 -0.6354,5.11692 2.5012,6.41613 3.2023,1.32644 15.0312,10.46027 20.3027,15.67701 3.2258,3.19224 6.865,8.38083 11.0143,15.70373 1.5687,2.76853 3.4576,5.49967 4.1976,6.06919 0.7399,0.56953 3.0525,6.2105 5.139,12.5355 l 3.7938,11.5 -0.069,22 c -0.059,18.88985 -0.3571,23.06028 -2.1098,29.5 -1.1226,4.125 -2.5974,10.425 -3.2772,14 -0.6798,3.575 -1.913,8.075 -2.7403,10 -2.5859,6.01651 -6.5008,14.39319 -7.9452,17 -0.7618,1.375 -2.6886,5.2 -4.2818,8.5 -1.5931,3.3 -3.8094,6.9 -4.9249,8 -10.1911,10.04935 -12.1344,12.08108 -12.1344,12.68709 0,0.98657 -11.6247,9.81291 -12.924,9.81291 -0.5918,0 -1.0837,1.4625 -1.0931,3.25 -0.01,1.7875 -0.9442,6.625 -2.0771,10.75 -1.133,4.125 -2.3118,8.625 -2.6196,10 -0.3078,1.375 -1.8481,4.43506 -3.4229,6.80013 -1.5748,2.36507 -2.8633,4.88283 -2.8633,5.59501 0,0.71219 -0.9578,2.15213 -2.1284,3.19987 -1.1706,1.04775 -4.0961,4.82999 -6.5011,8.40499 -5.2489,7.80216 -7.8871,11 -9.075,11 -0.8143,0 -5.0555,3.63666 -12.9169,11.07567 -4.3639,4.12947 -11.5682,8.88444 -13.4937,8.90613 -0.8884,0.01 -2.6884,0.8416 -4,1.84798 -3.2268,2.47575 -4.8123,2.98779 -16.2042,5.23315 -11.6447,2.2952 -16.9639,2.29176 -29.6807,-0.0192 z m 31,-6.63552 c 10.1894,-1.04812 25.0942,-8.68649 32.8904,-16.85563 1.8648,-1.95394 3.7525,-3.55261 4.195,-3.55261 1.1757,0 9.8641,-9.30653 9.8914,-10.59501 0.013,-0.60226 0.9232,-1.9095 2.0232,-2.90499 1.1,-0.99549 2,-2.42935 2,-3.18637 0,-0.75702 0.6579,-1.62885 1.4619,-1.9374 0.8041,-0.30854 1.7668,-1.52141 2.1394,-2.69526 0.3725,-1.17384 2.1961,-4.34215 4.0524,-7.04068 1.8562,-2.69853 3.6556,-6.08404 3.9985,-7.52336 0.343,-1.43931 0.9706,-3.06693 1.3947,-3.61693 3.8617,-5.00763 8.2117,-32.45078 6.1027,-38.50066 -0.6372,-1.82801 -0.958,-3.52432 -0.7127,-3.76958 0.9347,-0.93472 3.7362,7.52663 4.3851,13.24446 l 0.678,5.97422 6.5,-6.59635 c 8.8173,-8.948 12.4373,-13.44711 15.5478,-19.32365 1.4474,-2.73435 3.4227,-6.10935 4.3898,-7.5 0.967,-1.39064 2.0145,-3.42844 2.3278,-4.52844 0.3132,-1.1 1.7789,-5.15 3.2571,-9 3.1076,-8.09434 3.5436,-9.54644 6.9056,-23 7.3518,-29.42009 5.6585,-52.63335 -5.544,-76 -3.4887,-7.27704 -4.4026,-8.76037 -8.8841,-14.42031 -1.925,-2.43116 -4.1755,-5.80616 -5.001,-7.5 -0.8256,-1.69383 -2.4838,-3.51125 -3.6848,-4.03871 -1.201,-0.52746 -2.6534,-1.98996 -3.2275,-3.25 -0.5741,-1.26004 -1.616,-2.29961 -2.3153,-2.31016 -0.6993,-0.0106 -3.0665,-1.58556 -5.2605,-3.5 -2.194,-1.91445 -4.2957,-3.48082 -4.6705,-3.48082 -0.3748,0 -0.9769,1.34484 -1.3379,2.98853 -0.361,1.6437 -1.0195,3.21294 -1.4633,3.48722 -1.0859,0.67117 -0.022,-12.66893 1.1268,-14.12145 1.1891,-1.50413 3.7896,-21.19278 3.8145,-28.88053 0.048,-14.72512 -6.2413,-42.02519 -11.1986,-48.612682 -5.3214,-7.07124 -12.366,-14.01754 -16.6681,-16.43544 -6.1986,-3.483813 -17.546,-5.436805 -24.3855,-4.196979 -2.8756,0.521265 -5.3226,1.039874 -5.4379,1.152464 -0.1153,0.11259 0.6722,3.037987 1.75,6.500882 1.0778,3.462893 1.9474,7.718583 1.9325,9.457073 -0.024,2.78293 -0.3654,2.38364 -2.8566,-3.33909 -1.5562,-3.575 -3.7246,-8.3 -4.8185,-10.5 -1.094,-2.2 -3.7224,-7.6 -5.8409,-12 -2.1186,-4.4 -5.338,-9.688796 -7.1544,-11.752881 -1.8164,-2.064084 -3.3025,-4.35684 -3.3025,-5.095012 0,-0.738173 -0.9,-2.156621 -2,-3.152107 -1.1,-0.995486 -2,-2.310457 -2,-2.922157 0,-1.603497 -12.7964,-14.421207 -16.1057,-16.132508 -1.5372,-0.79491 -3.1548,-2.063428 -3.5946,-2.818929 -1.0574,-1.816317 -10.6057,-7.626406 -12.5332,-7.626406 -0.8317,0 -3.5304,-0.892706 -5.997,-1.983792 -10.3854,-4.5939887 -30.7542,-6.4507867 -42.9703,-3.9171307 -5.0321,1.043671 -13.3775,4.1921317 -20.5893,7.7677187 -3.8864,1.926824 -13.0544,10.436954 -15.5863,14.467766 -1.6253,2.587519 -1.643,2.986573 -0.2021,4.578741 0.8682,0.959298 1.5785,2.201501 1.5785,2.76045 0,0.55895 0.8828,1.815202 1.9618,2.791673 1.7867,1.616931 6.0382,8.782423 6.0382,10.176773 0,0.319336 -2.3891,-1.832021 -5.3092,-4.780794 -6.238,-6.29938 -12.7898,-11.861405 -13.9721,-11.861405 -0.4598,0 -2.4971,-1.292698 -4.5273,-2.872663 -3.9264,-3.05556 -7.6676,-5.165983 -12.9414,-7.300285 -1.7875,-0.723401 -3.25,-1.620526 -3.25,-1.993611 0,-0.373085 -1.6875,-1.221881 -3.75,-1.886212 -2.0625,-0.664331 -4.2,-1.552444 -4.75,-1.973584 -3.0492,-2.3348 -22.3899,-5.902548 -32,-5.902985 -20.3747,-9.26e-4 -44.3145,7.938804 -51.3208,17.020714 -5.7156,7.408936 -12.1792,17.941034 -12.1792,19.845436 0,1.20707 -0.4658,3.065089 -1.0352,4.128931 -0.8592,1.605504 -0.7032,1.934259 0.9182,1.934259 2.5034,0 5.117,1.00057 5.117,1.958968 0,0.409745 -3.9375,1.021028 -8.75,1.358407 -4.8125,0.33738 -11.450004,1.460067 -14.750004,2.49486 -8.8393,2.771784 -28.2193,13.044306 -29.7997,15.795598 -0.4398,0.765692 -1.4329,1.392167 -2.2069,1.392167 -2.9108,0 -12.2141,13.32209 -16.76,24.000002 -4.0156,9.43232 -4.537,11.56768 -5.127,21 -1.0349,16.54273 0.3965,27.55638 5.3286,41 5.2235,14.23763 8.1759,21 9.1685,21 0.419,0 1.0777,1.0125 1.4639,2.25 0.3862,1.2375 0.9816,2.475 1.3231,2.75 1.9034,1.53279 8.188,10.69278 9.9483,14.5 0.5086,1.1 3.5655,4.29601 6.793,7.10225 3.2275,2.80624 8.9337,8.09374 12.6804,11.75 3.7468,3.65626 7.4068,6.64775 8.1334,6.64775 0.7266,0 1.5565,0.9 1.8441,2 0.2877,1.1 0.3849,2 0.216,2 -1.2813,0 -11.0829,-5.20286 -14.0155,-7.43969 l -3.6352,-2.7727 -2.5374,2.35619 c -4.1168,3.82298 -8.7629,11.88947 -10.8605,18.8562 -2.5875,8.59367 -2.736,37.23396 -0.2289,44.14664 0.8684,2.39435 1.81,5.98542 2.0925,7.98016 0.2825,1.99474 1.4509,5.56676 2.5964,7.93783 1.1456,2.37106 2.0874,4.78901 2.0929,5.3732 0.021,2.17806 16.828,31.18566 19.8822,34.31435 4.2405,4.34396 12.095904,14.02732 12.155104,14.98369 0.062,0.99877 9.8728,8.8358 16.357,13.06599 2.8026,1.82842 9.3707,5.4335 14.5957,8.01127 l 9.5,4.68687 h 17 c 13.2626,0 17.6595,-0.33549 20,-1.52601 2.9418,-1.4964 2.9933,-1.65486 2.6538,-8.16694 -0.1904,-3.65252 0.081,-7.40362 0.6023,-8.33578 0.8385,-1.49832 1.1819,-1.36301 2.961,1.16695 1.1068,1.57398 2.7335,5.73507 3.6149,9.24686 0.8814,3.5118 2.238,7.1118 3.0147,8 0.7767,0.88821 2.187,3.14322 3.134,5.01115 1.9322,3.81099 13.2801,15.10377 15.1776,15.10377 0.6755,0 1.8163,0.78945 2.535,1.75433 3.6023,4.83632 19.6951,12.43942 31.4962,14.88052 13.0286,2.69501 25.368,0.58952 36.3105,-6.1957 1.925,-1.19366 6.65,-5.18433 10.5,-8.86815 11.8877,-11.37456 14.7785,-11.33469 3.9888,0.055 -3.6881,3.89324 -6.2864,7.45896 -5.9928,8.22414 1.1268,2.93642 5.1798,7.11552 8.4792,8.74312 1.9114,0.94287 4.0878,2.3269 4.8366,3.07564 4.354,4.35405 18.9119,12.73725 26.6882,15.36847 5.5062,1.8631 21.0424,3.86334 26.5,3.41179 2.475,-0.20478 7.425,-0.67321 11,-1.04094 z M 88.440006,438.95819 c -2.2231,-1.00979 -4.7776,-2.9124 -5.6767,-4.22803 -0.8992,-1.31563 -3.2897,-4.15573 -5.3122,-6.31132 -4.2454,-4.52466 -6.4692,-10.04045 -6.4692,-16.04579 0,-3.51197 0.5616,-4.72467 3.3729,-7.28287 5.9047,-5.37314 9.3183,-6.59698 18.6271,-6.67805 7.242504,-0.0631 9.054804,0.27091 12.250004,2.25753 2.0625,1.28236 3.75,2.98398 3.75,3.78138 0,0.79741 0.6436,1.69679 1.4301,1.99862 2.0618,0.79118 3.5699,5.86827 3.5699,12.01825 0,4.36267 -0.6176,6.28878 -3.3991,10.60077 -4.2607,6.60506 -10.879204,11.77719 -15.032704,11.74746 -1.6875,-0.0121 -4.8871,-0.84816 -7.1101,-1.85795 z M 104.15761,428.3381 c 5.1089,-7.41002 2.9953,-18.57691 -4.205704,-22.22069 -3.15,-1.5939 -11.6344,-1.62885 -17.4556,-0.0719 -4.2539,1.13775 -4.5144,1.40774 -4.5144,4.67964 0,9.98036 11.0197,22.35389 19.459,21.84955 3.374604,-0.20167 4.366004,-0.82701 6.716704,-4.23659 z"
     style="fill:#000000" />
  <g
     id="text818"
     style="font-style:normal;font-weight:normal;font-size:40px;line-height:1.25;font-family:sans-serif;letter-spacing:0px;word-spacing:0px;fill:#000000;fill-opacity:1;stroke:none"
     aria-label="Jeg har min 
egen mad med">
    <path
       id="path826"
       style=""
       d="m 122.52922,155.62169 h 3.94531 v 27.12891 q 0,5.27343 -2.01172,7.65625 -1.99218,2.38281 -6.42578,2.38281 h -1.5039 v -3.32031 h 1.23047 q 2.61718,0 3.6914,-1.46485 1.07422,-1.46484 1.07422,-5.2539 z" />
    <path
       id="path828"
       style=""
       d="m 152.88078,172.94591 v 1.75781 h -16.52343 q 0.23437,3.71094 2.22656,5.66406 2.01172,1.9336 5.58594,1.9336 2.07031,0 4.0039,-0.50782 1.95313,-0.50781 3.86719,-1.52343 v 3.39843 q -1.93359,0.82032 -3.96484,1.25 -2.03125,0.42969 -4.1211,0.42969 -5.23437,0 -8.30078,-3.04687 -3.04687,-3.04688 -3.04687,-8.24219 0,-5.37109 2.89062,-8.51563 2.91016,-3.16406 7.83203,-3.16406 4.41406,0 6.97266,2.85156 2.57812,2.83204 2.57812,7.71485 z m -3.59375,-1.05469 q -0.0391,-2.94922 -1.66015,-4.70703 -1.60157,-1.75781 -4.25782,-1.75781 -3.00781,0 -4.82421,1.69922 -1.79688,1.69921 -2.07032,4.78515 z" />
    <path
       id="path830"
       style=""
       d="m 173.17375,173.59044 q 0,-3.90625 -1.62109,-6.05469 -1.60156,-2.14844 -4.51172,-2.14844 -2.89063,0 -4.51172,2.14844 -1.60156,2.14844 -1.60156,6.05469 0,3.88672 1.60156,6.03516 1.62109,2.14843 4.51172,2.14843 2.91016,0 4.51172,-2.14843 1.62109,-2.14844 1.62109,-6.03516 z m 3.59375,8.47656 q 0,5.58594 -2.48047,8.30078 -2.48047,2.73438 -7.59765,2.73438 -1.89453,0 -3.57422,-0.29297 -1.67969,-0.27344 -3.26172,-0.85938 v -3.49609 q 1.58203,0.85938 3.125,1.26953 1.54297,0.41016 3.14453,0.41016 3.53516,0 5.29297,-1.85547 1.75781,-1.83594 1.75781,-5.56641 v -1.77734 q -1.11328,1.93359 -2.85156,2.89062 -1.73828,0.95704 -4.16016,0.95704 -4.02343,0 -6.48437,-3.06641 -2.46094,-3.06641 -2.46094,-8.125 0,-5.07813 2.46094,-8.14453 2.46094,-3.06641 6.48437,-3.06641 2.42188,0 4.16016,0.95703 1.73828,0.95703 2.85156,2.89063 v -3.32031 h 3.59375 z" />
    <path
       id="path832"
       style=""
       d="m 215.06828,171.57872 v 13.20313 h -3.59375 v -13.08594 q 0,-3.10547 -1.21093,-4.64844 -1.21094,-1.54297 -3.63282,-1.54297 -2.91015,0 -4.58984,1.85547 -1.67969,1.85547 -1.67969,5.05859 v 12.36329 h -3.61328 v -30.39063 h 3.61328 v 11.91406 q 1.28906,-1.97265 3.02735,-2.94922 1.75781,-0.97656 4.04296,-0.97656 3.76954,0 5.70313,2.34375 1.93359,2.32422 1.93359,6.85547 z" />
    <path
       id="path834"
       style=""
       d="m 232.17766,173.78575 q -4.35547,0 -6.03516,0.9961 -1.67969,0.99609 -1.67969,3.39843 0,1.91407 1.25,3.04688 1.26954,1.11328 3.4375,1.11328 2.98829,0 4.78516,-2.10938 1.81641,-2.1289 1.81641,-5.64453 v -0.80078 z m 7.16797,-1.48437 v 12.48047 h -3.59375 v -3.32032 q -1.23047,1.99219 -3.06641,2.94922 -1.83594,0.9375 -4.49219,0.9375 -3.35937,0 -5.35156,-1.875 -1.97266,-1.89453 -1.97266,-5.05859 0,-3.69141 2.46094,-5.56641 2.48047,-1.875 7.38281,-1.875 h 5.03907 v -0.35156 q 0,-2.48047 -1.64063,-3.82813 -1.62109,-1.36718 -4.57031,-1.36718 -1.875,0 -3.65234,0.44922 -1.77735,0.44921 -3.41797,1.34765 v -3.32031 q 1.97265,-0.76172 3.82812,-1.13281 1.85547,-0.39063 3.61328,-0.39063 4.7461,0 7.08985,2.46094 2.34375,2.46094 2.34375,7.46094 z" />
    <path
       id="path836"
       style=""
       d="m 259.42375,166.26622 q -0.60547,-0.35156 -1.32812,-0.50781 -0.70313,-0.17578 -1.5625,-0.17578 -3.04688,0 -4.6875,1.99218 -1.6211,1.97266 -1.6211,5.6836 v 11.52344 h -3.61328 v -21.875 h 3.61328 v 3.39843 q 1.13282,-1.99218 2.94922,-2.94922 1.81641,-0.97656 4.41406,-0.97656 0.3711,0 0.82032,0.0586 0.44922,0.0391 0.99609,0.13671 z" />
    <path
       id="path838"
       style=""
       d="m 292.93938,167.10606 q 1.34765,-2.42187 3.22265,-3.57421 1.875,-1.15235 4.41407,-1.15235 3.41796,0 5.27343,2.40235 1.85547,2.38281 1.85547,6.79687 v 13.20313 h -3.61328 v -13.08594 q 0,-3.14453 -1.11328,-4.66797 -1.11328,-1.52344 -3.39844,-1.52344 -2.79297,0 -4.41406,1.85547 -1.62109,1.85547 -1.62109,5.05859 v 12.36329 h -3.61329 v -13.08594 q 0,-3.16406 -1.11328,-4.66797 -1.11328,-1.52344 -3.4375,-1.52344 -2.7539,0 -4.375,1.875 -1.62109,1.85547 -1.62109,5.03906 v 12.36329 h -3.61328 v -21.875 h 3.61328 v 3.39843 q 1.23047,-2.01172 2.94922,-2.96875 1.71875,-0.95703 4.08203,-0.95703 2.38281,0 4.04297,1.21094 1.67969,1.21094 2.48047,3.51562 z" />
    <path
       id="path840"
       style=""
       d="m 314.87297,162.90685 h 3.59375 v 21.875 h -3.59375 z m 0,-8.51563 h 3.59375 v 4.55078 h -3.59375 z" />
    <path
       id="path842"
       style=""
       d="m 344.16985,171.57872 v 13.20313 h -3.59375 v -13.08594 q 0,-3.10547 -1.21094,-4.64844 -1.21094,-1.54297 -3.63281,-1.54297 -2.91016,0 -4.58985,1.85547 -1.67969,1.85547 -1.67969,5.05859 v 12.36329 h -3.61328 v -21.875 h 3.61328 v 3.39843 q 1.28907,-1.97265 3.02735,-2.94922 1.75781,-0.97656 4.04297,-0.97656 3.76953,0 5.70312,2.34375 1.9336,2.32422 1.9336,6.85547 z" />
    <path
       id="path844"
       style=""
       d="m 141.08391,222.94591 v 1.75781 h -16.52344 q 0.23438,3.71094 2.22656,5.66406 2.01172,1.9336 5.58594,1.9336 2.07031,0 4.00391,-0.50782 1.95312,-0.50781 3.86718,-1.52343 v 3.39843 q -1.93359,0.82032 -3.96484,1.25 -2.03125,0.42969 -4.12109,0.42969 -5.23438,0 -8.30078,-3.04687 -3.04688,-3.04688 -3.04688,-8.24219 0,-5.37109 2.89063,-8.51563 2.91015,-3.16406 7.83203,-3.16406 4.41406,0 6.97265,2.85156 2.57813,2.83204 2.57813,7.71485 z m -3.59375,-1.05469 q -0.0391,-2.94922 -1.66016,-4.70703 -1.60156,-1.75781 -4.25781,-1.75781 -3.00781,0 -4.82422,1.69922 -1.79687,1.69921 -2.07031,4.78515 z" />
    <path
       id="path846"
       style=""
       d="m 161.37688,223.59044 q 0,-3.90625 -1.6211,-6.05469 -1.60156,-2.14844 -4.51172,-2.14844 -2.89062,0 -4.51171,2.14844 -1.60157,2.14844 -1.60157,6.05469 0,3.88672 1.60157,6.03516 1.62109,2.14843 4.51171,2.14843 2.91016,0 4.51172,-2.14843 1.6211,-2.14844 1.6211,-6.03516 z m 3.59375,8.47656 q 0,5.58594 -2.48047,8.30078 -2.48047,2.73438 -7.59766,2.73438 -1.89453,0 -3.57422,-0.29297 -1.67968,-0.27344 -3.26172,-0.85938 v -3.49609 q 1.58204,0.85938 3.125,1.26953 1.54297,0.41016 3.14454,0.41016 3.53515,0 5.29296,-1.85547 1.75782,-1.83594 1.75782,-5.56641 v -1.77734 q -1.11328,1.93359 -2.85157,2.89062 -1.73828,0.95704 -4.16015,0.95704 -4.02344,0 -6.48438,-3.06641 -2.46093,-3.06641 -2.46093,-8.125 0,-5.07813 2.46093,-8.14453 2.46094,-3.06641 6.48438,-3.06641 2.42187,0 4.16015,0.95703 1.73829,0.95703 2.85157,2.89063 v -3.32031 h 3.59375 z" />
    <path
       id="path848"
       style=""
       d="m 191.08391,222.94591 v 1.75781 h -16.52344 q 0.23438,3.71094 2.22656,5.66406 2.01172,1.9336 5.58594,1.9336 2.07031,0 4.00391,-0.50782 1.95312,-0.50781 3.86718,-1.52343 v 3.39843 q -1.93359,0.82032 -3.96484,1.25 -2.03125,0.42969 -4.12109,0.42969 -5.23438,0 -8.30078,-3.04687 -3.04688,-3.04688 -3.04688,-8.24219 0,-5.37109 2.89063,-8.51563 2.91015,-3.16406 7.83203,-3.16406 4.41406,0 6.97265,2.85156 2.57813,2.83204 2.57813,7.71485 z m -3.59375,-1.05469 q -0.0391,-2.94922 -1.66016,-4.70703 -1.60156,-1.75781 -4.25781,-1.75781 -3.00781,0 -4.82422,1.69922 -1.79687,1.69921 -2.07031,4.78515 z" />
    <path
       id="path850"
       style=""
       d="m 215.16594,221.57872 v 13.20313 h -3.59375 v -13.08594 q 0,-3.10547 -1.21094,-4.64844 -1.21094,-1.54297 -3.63281,-1.54297 -2.91016,0 -4.58984,1.85547 -1.67969,1.85547 -1.67969,5.05859 v 12.36329 h -3.61328 v -21.875 h 3.61328 v 3.39843 q 1.28906,-1.97265 3.02734,-2.94922 1.75781,-0.97656 4.04297,-0.97656 3.76953,0 5.70313,2.34375 1.93359,2.32422 1.93359,6.85547 z" />
    <path
       id="path852"
       style=""
       d="m 252.08,217.10606 q 1.34766,-2.42187 3.22266,-3.57421 1.875,-1.15235 4.41406,-1.15235 3.41797,0 5.27344,2.40235 1.85547,2.38281 1.85547,6.79687 v 13.20313 h -3.61328 v -13.08594 q 0,-3.14453 -1.11329,-4.66797 -1.11328,-1.52344 -3.39843,-1.52344 -2.79297,0 -4.41407,1.85547 -1.62109,1.85547 -1.62109,5.05859 v 12.36329 h -3.61328 v -13.08594 q 0,-3.16406 -1.11328,-4.66797 -1.11328,-1.52344 -3.4375,-1.52344 -2.75391,0 -4.375,1.875 -1.6211,1.85547 -1.6211,5.03906 v 12.36329 h -3.61328 v -21.875 h 3.61328 v 3.39843 q 1.23047,-2.01172 2.94922,-2.96875 1.71875,-0.95703 4.08203,-0.95703 2.38282,0 4.04297,1.21094 1.67969,1.21094 2.48047,3.51562 z" />
    <path
       id="path854"
       style=""
       d="m 283.955,223.78575 q -4.35547,0 -6.03515,0.9961 -1.67969,0.99609 -1.67969,3.39843 0,1.91407 1.25,3.04688 1.26953,1.11328 3.4375,1.11328 2.98828,0 4.78515,-2.10938 1.81641,-2.1289 1.81641,-5.64453 v -0.80078 z m 7.16797,-1.48437 v 12.48047 h -3.59375 v -3.32032 q -1.23047,1.99219 -3.06641,2.94922 -1.83593,0.9375 -4.49218,0.9375 -3.35938,0 -5.35157,-1.875 -1.97265,-1.89453 -1.97265,-5.05859 0,-3.69141 2.46094,-5.56641 2.48046,-1.875 7.38281,-1.875 h 5.03906 v -0.35156 q 0,-2.48047 -1.64062,-3.82813 -1.6211,-1.36718 -4.57032,-1.36718 -1.875,0 -3.65234,0.44922 -1.77734,0.44921 -3.41797,1.34765 v -3.32031 q 1.97266,-0.76172 3.82813,-1.13281 1.85546,-0.39063 3.61328,-0.39063 4.74609,0 7.08984,2.46094 2.34375,2.46094 2.34375,7.46094 z" />
    <path
       id="path856"
       style=""
       d="m 312.91985,216.22716 v -11.83594 h 3.59375 v 30.39063 h -3.59375 v -3.28125 q -1.13282,1.95312 -2.8711,2.91015 -1.71875,0.9375 -4.14062,0.9375 -3.96485,0 -6.46485,-3.16406 -2.48047,-3.16406 -2.48047,-8.32031 0,-5.15625 2.48047,-8.32032 2.5,-3.16406 6.46485,-3.16406 2.42187,0 4.14062,0.95703 1.73828,0.9375 2.8711,2.89063 z m -12.2461,7.63672 q 0,3.96484 1.6211,6.23047 1.64062,2.24609 4.49218,2.24609 2.85157,0 4.49219,-2.24609 1.64063,-2.26563 1.64063,-6.23047 0,-3.96485 -1.64063,-6.21094 -1.64062,-2.26563 -4.49219,-2.26563 -2.85156,0 -4.49218,2.26563 -1.6211,2.24609 -1.6211,6.21094 z" />
    <path
       id="path858"
       style=""
       d="m 353.66203,217.10606 q 1.34766,-2.42187 3.22266,-3.57421 1.875,-1.15235 4.41406,-1.15235 3.41797,0 5.27344,2.40235 1.85547,2.38281 1.85547,6.79687 v 13.20313 h -3.61328 v -13.08594 q 0,-3.14453 -1.11328,-4.66797 -1.11329,-1.52344 -3.39844,-1.52344 -2.79297,0 -4.41406,1.85547 -1.6211,1.85547 -1.6211,5.05859 v 12.36329 h -3.61328 v -13.08594 q 0,-3.16406 -1.11328,-4.66797 -1.11328,-1.52344 -3.4375,-1.52344 -2.75391,0 -4.375,1.875 -1.62109,1.85547 -1.62109,5.03906 v 12.36329 h -3.61329 v -21.875 h 3.61329 v 3.39843 q 1.23046,-2.01172 2.94921,-2.96875 1.71875,-0.95703 4.08204,-0.95703 2.38281,0 4.04296,1.21094 1.67969,1.21094 2.48047,3.51562 z" />
    <path
       id="path860"
       style=""
       d="m 394.30656,222.94591 v 1.75781 h -16.52343 q 0.23437,3.71094 2.22656,5.66406 2.01172,1.9336 5.58594,1.9336 2.07031,0 4.0039,-0.50782 1.95313,-0.50781 3.86719,-1.52343 v 3.39843 q -1.93359,0.82032 -3.96484,1.25 -2.03125,0.42969 -4.1211,0.42969 -5.23437,0 -8.30078,-3.04687 -3.04687,-3.04688 -3.04687,-8.24219 0,-5.37109 2.89062,-8.51563 2.91016,-3.16406 7.83203,-3.16406 4.41407,0 6.97266,2.85156 2.57812,2.83204 2.57812,7.71485 z m -3.59375,-1.05469 q -0.0391,-2.94922 -1.66015,-4.70703 -1.60156,-1.75781 -4.25781,-1.75781 -3.00782,0 -4.82422,1.69922 -1.79688,1.69921 -2.07032,4.78515 z" />
    <path
       id="path862"
       style=""
       d="m 414.59953,216.22716 v -11.83594 h 3.59375 v 30.39063 h -3.59375 v -3.28125 q -1.13281,1.95312 -2.87109,2.91015 -1.71875,0.9375 -4.14063,0.9375 -3.96484,0 -6.46484,-3.16406 -2.48047,-3.16406 -2.48047,-8.32031 0,-5.15625 2.48047,-8.32032 2.5,-3.16406 6.46484,-3.16406 2.42188,0 4.14063,0.95703 1.73828,0.9375 2.87109,2.89063 z m -12.24609,7.63672 q 0,3.96484 1.62109,6.23047 1.64063,2.24609 4.49219,2.24609 2.85156,0 4.49219,-2.24609 1.64062,-2.26563 1.64062,-6.23047 0,-3.96485 -1.64062,-6.21094 -1.64063,-2.26563 -4.49219,-2.26563 -2.85156,0 -4.49219,2.26563 -1.62109,2.24609 -1.62109,6.21094 z" />
  </g>
</svg>
