<?xml version="1.0" encoding="UTF-8" standalone="no"?>
<svg
   xmlns:dc="http://purl.org/dc/elements/1.1/"
   xmlns:cc="http://creativecommons.org/ns#"
   xmlns:rdf="http://www.w3.org/1999/02/22-rdf-syntax-ns#"
   xmlns:svg="http://www.w3.org/2000/svg"
   xmlns="http://www.w3.org/2000/svg"
   viewBox="0 0 625.72961 645.58295"
   height="645.58295"
   width="625.72961"
   id="svg2"
   version="1.1">
  <metadata
     id="metadata8">
    <rdf:RDF>
      <cc:Work
         rdf:about="">
        <dc:format>image/svg+xml</dc:format>
        <dc:type
           rdf:resource="http://purl.org/dc/dcmitype/StillImage" />
        <dc:title></dc:title>
      </cc:Work>
    </rdf:RDF>
  </metadata>
  <defs
     id="defs6" />
  <path
     id="path817"
     d="m 540.64862,644.183 c -10.04961,-3.69054 -15.21985,-13.31054 -13.11597,-24.40424 2.76707,-14.5907 15.34142,-28.9524 25.3492,-28.9524 8.22126,0 16.72272,8.10909 20.73859,19.78142 2.65485,7.71643 2.4522,13.72415 -0.67457,19.99877 -5.87852,11.79665 -20.45665,17.92471 -32.29725,13.57645 z m 17.54281,-8.89494 c 7.62139,-3.7288 10.84372,-8.76983 10.79811,-16.89261 -0.0278,-4.95789 -0.65863,-7.23261 -3.44521,-12.42395 -4.44416,-8.27935 -6.75434,-9.84113 -12.16092,-8.22128 -9.3682,2.80678 -18.85753,17.27016 -18.859,28.74435 -4.3e-4,3.39252 0.29156,6.93006 0.64887,7.8612 1.9215,5.00735 13.7129,5.48493 23.01815,0.93229 z M 441.663,629.73894 c -8.63809,-1.67598 -22.51717,-13.46719 -25.11416,-21.33616 -3.42205,-10.36893 1.50278,-25.88703 11.3363,-35.72055 10.66202,-10.66202 21.53729,-13.16155 32.52127,-7.47456 7.09685,3.67442 14.08287,10.32465 17.69518,16.84462 2.59081,4.67624 2.92067,6.23757 2.91003,13.77407 -0.01,6.98211 -0.43137,9.29049 -2.36043,12.92663 -5.21471,9.82934 -16.74319,19.08571 -25.62757,20.57672 -2.2,0.36921 -4.675,0.80269 -5.5,0.96329 -0.825,0.1606 -3.46228,-0.0887 -5.86062,-0.55406 z m 13.38819,-8.98481 c 12.71564,-6.54095 21.27885,-18.47103 20.14287,-28.0626 -1.49321,-12.60776 -12.37461,-23.80053 -23.17044,-23.83344 -16.78985,-0.0512 -34.16146,25.47388 -28.11388,41.30926 2.24015,5.86573 5.5409,8.74819 12.92484,11.28689 8.56236,2.94385 11.34029,2.83709 18.21661,-0.70011 z M 226.02362,580.76928 c -23.01558,-3.10596 -45.66557,-14.31448 -62.52893,-30.94292 -9.00601,-8.88055 -16.4072,-19.52104 -18.05774,-25.96111 l -1.18725,-4.63239 -9.8158,-1.17384 c -46.566737,-5.56877 -85.054099,-30.5236 -90.961296,-58.97842 -0.700962,-3.37651 -0.99657,-10.36822 -0.728034,-17.21947 0.375635,-9.58373 0.995642,-13.14164 3.665557,-21.03477 1.767398,-5.225 4.781919,-12.14654 6.698937,-15.3812 1.917017,-3.23467 3.357027,-5.98038 3.200022,-6.1016 -0.157004,-0.12121 -2.976436,-1.43465 -6.265403,-2.91874 -9.928523,-4.48009 -24.647968,-14.94804 -32.203367,-22.90191 -7.783298,-8.19379 -13.0872804,-17.6842 -16.0378774,-28.69655 -2.62028603,-9.77955 -2.34045403,-33.21681 0.557982,-46.73367 3.560868,-16.60612 9.8974124,-32.38557 18.0828414,-45.03041 l 4.054948,-6.26408 -4.042631,-3.65228 C 11.573996,235.12194 7.9878676,223.91816 8.8303436,206.82636 c 0.650563,-13.19835 3.8786514,-24.68795 11.0978194,-39.5 9.210355,-18.8975 22.139212,-34.72117 38.467366,-47.08033 17.206694,-13.02414 34.005214,-19.22985 54.128091,-19.99599 l 11.5,-0.437854 5.41923,-7.69265 c 12.46909,-17.69999 30.71596,-33.47624 49.58077,-42.86754 15.93167,-7.93113 27.33012,-10.66811 44.5,-10.68528 20.28822,-0.0203 35.8432,4.01208 56.79583,14.72339 l 10.29582,5.26339 2.88775,-4.19719 c 8.02082,-11.65788 30.33215,-28.88205 50.5206,-39.00152 24.52474,-12.2930402 41.60961,-16.12800018 67.85018,-15.23002018 17.65561,0.60419 25.61403,2.00039998 41.5295,7.28582998 25.81145,8.5718402 50.13959,24.6954802 61.52111,40.7735402 5.39894,7.62678 7.33998,11.37767 10.16466,19.64222 l 2.22158,6.5 4.1422,-0.32148 c 23.59547,-1.83125 50.52696,16.72113 64.34152,44.323144 9.10034,18.18282 10.58537,35.14837 4.414,50.42713 l -2.5046,6.20077 5.51968,7.68522 c 21.12181,29.40855 28.47733,69.6503 17.33504,94.83929 -6.5207,14.74112 -23.36462,29.8898 -36.17722,32.53621 -4.51064,0.93165 -5.75828,1.56911 -5.40302,2.76055 0.25406,0.85204 1.42143,6.27417 2.59416,12.04917 1.88661,9.2905 2.07592,12.8038 1.64345,30.5 -0.51304,20.99296 -1.45673,27.28123 -6.30303,42 -12.68034,38.51169 -41.39234,62.47785 -78.28711,65.34694 l -8.3979,0.65306 -3.61629,9 c -13.79081,34.32172 -36.89478,56.52966 -68.79959,66.13139 -12.12395,3.64869 -29.39822,3.93665 -39.78832,0.66328 -7.95167,-2.50516 -17.25456,-7.84215 -24.3714,-13.98167 l -4.85351,-4.187 -5.56465,8.187 c -10.75507,15.8234 -30.84263,32.94555 -47.2452,40.27065 -9.27872,4.14372 -22.01788,8.25213 -30.88298,9.95984 -10.08084,1.94191 -29.82385,2.64885 -39.08226,1.39943 z m 34,-8.44199 c 34.5074,-7.09052 62.24373,-25.73083 85.23443,-57.28211 3.49427,-4.79535 8.2258,-11.59188 10.51453,-15.1034 2.28873,-3.51152 4.31931,-5.91061 4.51241,-5.33131 0.1931,0.5793 -1.87513,6.04234 -4.59607,12.14009 l -4.94716,11.08682 5.64093,4.51374 c 10.93786,8.75223 21.87983,12.47964 36.60103,12.46823 25.08989,-0.0194 51.48409,-13.64001 69.88286,-36.06263 6.7454,-8.22063 25.65704,-35.0111 25.65704,-36.34608 0,-0.32136 -1.0776,-0.58428 -2.39466,-0.58428 -3.37971,0 -14.59229,-3.62962 -17.77703,-5.75459 -2.60833,-1.74037 -2.28202,-1.77463 13.75682,-1.44458 19.63037,0.40396 27.68397,-1.17846 41.91487,-8.23567 30.62552,-15.18744 47.50383,-46.48344 51.62546,-95.72468 0.94149,-11.24805 0.85192,-15.34181 -0.58655,-26.80788 -0.93375,-7.44293 -2.11965,-14.32626 -2.63534,-15.29628 -1.02645,-1.93079 0.044,-2.58046 7.59643,-4.61061 10.70218,-2.8768 26.66657,-16.10446 32.24674,-26.71878 6.56228,-12.48243 8.089,-30.58463 4.19221,-49.70652 -3.15527,-15.48319 -12.33133,-38.18865 -18.84572,-46.63231 l -1.87624,-2.43189 -2.68917,2.93189 c -1.47904,1.61255 -2.39748,2.36321 -2.04097,1.66814 1.63055,-3.17902 4.55929,-15.8353 5.41465,-23.39897 2.23939,-19.80193 -3.5313,-39.18081 -17.00717,-57.11275 C 567.85003,87.157786 550.19923,77.909156 532.26488,77.843716 l -4.75873,-0.01736 0.63581,5.40976 c 0.3497,2.97537 0.2924,7.58787 -0.12733,10.25 l -0.76315,4.84024 -1.22557,-5 c -0.67407,-2.75 -2.87796,-9.5 -4.89753,-15 -10.81757,-29.45998 -22.62421,-43.53056 -46.10476,-54.94541 -20.39689,-9.91576 -37.8007,-14.3599102 -59.5,-15.1936302 -18.03949,-0.6931 -30.51355,1.04599 -46.97143,6.5486202 -18.55549,6.20395 -37.92599,16.77461 -53.82685,29.3738 -7.51947,5.95812 -18.20172,16.31894 -18.20172,17.65402 0,0.36789 2.5875,2.49617 5.75,4.72953 3.1625,2.23335 7.73803,5.72447 10.16784,7.75803 4.17275,3.49228 4.25596,3.65888 1.5,3.00312 -4.73171,-1.12586 -8.50659,-2.87717 -15.67462,-7.27207 -36.85148,-22.59455 -69.81619,-28.47254 -101.17944,-18.04145 -21.91659,7.28923 -43.42817,23.22224 -58.74759,43.51267 -2.32831,3.08382 -4.32188,6.210554 -4.43015,6.948284 -0.10828,0.73773 -1.99076,3.49754 -4.18329,6.13291 -2.19253,2.63537 -4.90765,6.59158 -6.0336,8.79158 -1.12596,2.2 -4.56654,6.7 -7.64575,10 l -5.59857,6 0.64224,-3.5 c 0.35323,-1.925 2.37882,-7.75382 4.50132,-12.95293 2.12249,-5.19911 3.6975,-9.61452 3.50001,-9.81201 -0.97954,-0.97953 -18.17966,2.27394 -26.431067,4.99955 -25.31723,8.3628 -49.457589,30.24027 -63.362755,57.42319 -14.342371,28.0376 -15.658509,55.74402 -3.412723,71.8422 1.475782,1.94005 1.71049,1.81654 7.829768,-4.12015 5.999424,-5.82042 13.802997,-11.71857 14.535356,-10.98621 0.187366,0.18737 -1.950376,4.11295 -4.750539,8.72351 -2.800163,4.61057 -5.627883,9.28285 -6.283821,10.38285 -0.655939,1.1 -1.752563,2.35843 -2.436943,2.79652 -1.95417,1.25089 -8.637919,11.51492 -12.504961,19.20348 -15.4882894,30.79424 -18.2528354,68.59047 -6.739036,92.13457 5.712533,11.68132 21.089605,25.43651 37.772232,33.78824 l 5.283907,2.64525 7.958795,-8.03403 c 4.37734,-4.41872 8.43864,-8.03403 9.02511,-8.03403 1.2102,0 0.99658,0.41791 -4.08922,8 -9.89963,14.75873 -16.214503,29.76583 -21.039625,50 -4.183823,17.54488 -2.754827,24.34482 8.115631,38.61859 10.017274,13.15347 20.580044,20.70218 39.704614,28.37498 27.566507,11.05973 64.697167,15.42704 80.756877,9.49864 1.8619,-0.68732 1.85347,-0.6285 -0.12206,0.85184 -2.88302,2.16034 -9.20324,3.46272 -20.73927,4.27362 -9.23723,0.64931 -9.64922,0.77622 -9.02926,2.78134 1.47525,4.77134 5.55354,11.49574 10.81625,17.8341 14.00273,16.86478 34.84765,29.0217 56.07434,32.70301 3.3,0.57231 7.125,1.24118 8.5,1.48637 5.05568,0.90153 27.73532,-0.32608 35.5,-1.92156 z"
     style="fill:#000000" />
  <g
     id="text818"
     style="font-style:normal;font-weight:normal;font-size:40px;line-height:1.25;font-family:sans-serif;letter-spacing:0px;word-spacing:0px;fill:#000000;fill-opacity:1;stroke:none"
     aria-label="Jeg tager hjem, 
hvis maven er bøvlet">
    <path
       id="path822"
       style="font-style:normal;font-variant:normal;font-weight:normal;font-stretch:normal;font-size:45.33333206px;font-family:sans-serif;-inkscape-font-specification:'sans-serif, Normal';font-variant-ligatures:normal;font-variant-caps:normal;font-variant-numeric:normal;font-feature-settings:normal;text-align:start;writing-mode:lr-tb;text-anchor:start"
       d="m 77.952827,229.54231 h 4.471354 v 30.74609 q 0,5.97656 -2.279947,8.67708 -2.257813,2.70053 -7.282552,2.70053 h -1.704427 v -3.76303 h 1.394531 q 2.966146,0 4.183593,-1.66015 1.217448,-1.66016 1.217448,-5.95443 z" />
    <path
       id="path824"
       style="font-style:normal;font-variant:normal;font-weight:normal;font-stretch:normal;font-size:45.33333206px;font-family:sans-serif;-inkscape-font-specification:'sans-serif, Normal';font-variant-ligatures:normal;font-variant-caps:normal;font-variant-numeric:normal;font-feature-settings:normal;text-align:start;writing-mode:lr-tb;text-anchor:start"
       d="m 112.35126,249.17642 v 1.99219 H 93.624702 q 0.265625,4.20573 2.523437,6.41927 2.279948,2.19141 6.330731,2.19141 2.34635,0 4.53776,-0.57552 2.21354,-0.57552 4.38281,-1.72657 v 3.85157 q -2.19141,0.92968 -4.49349,1.41666 -2.30208,0.48698 -4.67057,0.48698 -5.932293,0 -9.407553,-3.45312 -3.453125,-3.45313 -3.453125,-9.34115 0,-6.08724 3.276041,-9.65104 3.298177,-3.58594 8.876307,-3.58594 5.0026,0 7.90234,3.23177 2.92187,3.20964 2.92187,8.74349 z m -4.07291,-1.19531 q -0.0443,-3.34245 -1.88151,-5.33464 -1.81511,-1.99218 -4.82552,-1.99218 -3.408858,0 -5.467452,1.92578 -2.036458,1.92578 -2.346354,5.42318 z" />
    <path
       id="path826"
       style="font-style:normal;font-variant:normal;font-weight:normal;font-stretch:normal;font-size:45.33333206px;font-family:sans-serif;-inkscape-font-specification:'sans-serif, Normal';font-variant-ligatures:normal;font-variant-caps:normal;font-variant-numeric:normal;font-feature-settings:normal;text-align:start;writing-mode:lr-tb;text-anchor:start"
       d="m 135.34996,249.90689 q 0,-4.42708 -1.83724,-6.86198 -1.8151,-2.43489 -5.11328,-2.43489 -3.27604,0 -5.11328,2.43489 -1.81511,2.4349 -1.81511,6.86198 0,4.40495 1.81511,6.83984 1.83724,2.4349 5.11328,2.4349 3.29818,0 5.11328,-2.4349 1.83724,-2.43489 1.83724,-6.83984 z m 4.07292,9.60677 q 0,6.33073 -2.8112,9.40755 -2.8112,3.09896 -8.61068,3.09896 -2.14713,0 -4.05078,-0.33203 -1.90365,-0.3099 -3.69661,-0.97396 v -3.96224 q 1.79296,0.97396 3.54166,1.4388 1.7487,0.46485 3.5638,0.46485 4.00651,0 5.9987,-2.10287 1.99219,-2.08073 1.99219,-6.30859 v -2.01432 q -1.26172,2.1914 -3.23177,3.27604 -1.97005,1.08463 -4.71484,1.08463 -4.5599,0 -7.34896,-3.47526 -2.78907,-3.47526 -2.78907,-9.20833 0,-5.75521 2.78907,-9.23047 2.78906,-3.47526 7.34896,-3.47526 2.74479,0 4.71484,1.08464 1.97005,1.08463 3.23177,3.27604 v -3.76302 h 4.07292 z" />
    <path
       id="path828"
       style="font-style:normal;font-variant:normal;font-weight:normal;font-stretch:normal;font-size:45.33333206px;font-family:sans-serif;-inkscape-font-specification:'sans-serif, Normal';font-variant-ligatures:normal;font-variant-caps:normal;font-variant-numeric:normal;font-feature-settings:normal;text-align:start;writing-mode:lr-tb;text-anchor:start"
       d="m 166.251,230.75976 v 7.03906 h 8.38932 v 3.16536 H 166.251 v 13.45834 q 0,3.03255 0.81901,3.89583 0.84115,0.86328 3.38672,0.86328 h 4.18359 v 3.40885 h -4.18359 q -4.71485,0 -6.50781,-1.74869 -1.79297,-1.77084 -1.79297,-6.41927 v -13.45834 h -2.98828 v -3.16536 h 2.98828 v -7.03906 z" />
    <path
       id="path830"
       style="font-style:normal;font-variant:normal;font-weight:normal;font-stretch:normal;font-size:45.33333206px;font-family:sans-serif;-inkscape-font-specification:'sans-serif, Normal';font-variant-ligatures:normal;font-variant-caps:normal;font-variant-numeric:normal;font-feature-settings:normal;text-align:start;writing-mode:lr-tb;text-anchor:start"
       d="m 191.26402,250.12825 q -4.9362,0 -6.83984,1.1289 -1.90365,1.12891 -1.90365,3.85156 0,2.16927 1.41667,3.45313 1.4388,1.26172 3.89583,1.26172 3.38672,0 5.42318,-2.39063 2.05859,-2.41276 2.05859,-6.39713 v -0.90755 z m 8.1237,-1.6823 v 14.14453 h -4.07292 v -3.76302 q -1.39453,2.25782 -3.47526,3.34245 -2.08073,1.0625 -5.09114,1.0625 -3.80729,0 -6.06511,-2.125 -2.23567,-2.14713 -2.23567,-5.73307 0,-4.18359 2.78906,-6.30859 2.8112,-2.125 8.36719,-2.125 h 5.71093 v -0.39844 q 0,-2.8112 -1.85937,-4.33854 -1.83724,-1.54948 -5.17969,-1.54948 -2.125,0 -4.13932,0.50911 -2.01432,0.50912 -3.8737,1.52735 v -3.76303 q 2.23568,-0.86328 4.33854,-1.28385 2.10287,-0.44271 4.09505,-0.44271 5.37891,0 8.03516,2.78906 2.65625,2.78907 2.65625,8.45573 z" />
    <path
       id="path832"
       style="font-style:normal;font-variant:normal;font-weight:normal;font-stretch:normal;font-size:45.33333206px;font-family:sans-serif;-inkscape-font-specification:'sans-serif, Normal';font-variant-ligatures:normal;font-variant-caps:normal;font-variant-numeric:normal;font-feature-settings:normal;text-align:start;writing-mode:lr-tb;text-anchor:start"
       d="m 224.09084,249.90689 q 0,-4.42708 -1.83724,-6.86198 -1.8151,-2.43489 -5.11328,-2.43489 -3.27604,0 -5.11328,2.43489 -1.8151,2.4349 -1.8151,6.86198 0,4.40495 1.8151,6.83984 1.83724,2.4349 5.11328,2.4349 3.29818,0 5.11328,-2.4349 1.83724,-2.43489 1.83724,-6.83984 z m 4.07292,9.60677 q 0,6.33073 -2.8112,9.40755 -2.8112,3.09896 -8.61068,3.09896 -2.14713,0 -4.05078,-0.33203 -1.90364,-0.3099 -3.69661,-0.97396 v -3.96224 q 1.79297,0.97396 3.54167,1.4388 1.74869,0.46485 3.5638,0.46485 4.00651,0 5.9987,-2.10287 1.99218,-2.08073 1.99218,-6.30859 v -2.01432 q -1.26172,2.1914 -3.23177,3.27604 -1.97005,1.08463 -4.71484,1.08463 -4.5599,0 -7.34896,-3.47526 -2.78906,-3.47526 -2.78906,-9.20833 0,-5.75521 2.78906,-9.23047 2.78906,-3.47526 7.34896,-3.47526 2.74479,0 4.71484,1.08464 1.97005,1.08463 3.23177,3.27604 v -3.76302 h 4.07292 z" />
    <path
       id="path834"
       style="font-style:normal;font-variant:normal;font-weight:normal;font-stretch:normal;font-size:45.33333206px;font-family:sans-serif;-inkscape-font-specification:'sans-serif, Normal';font-variant-ligatures:normal;font-variant-caps:normal;font-variant-numeric:normal;font-feature-settings:normal;text-align:start;writing-mode:lr-tb;text-anchor:start"
       d="m 257.75882,249.17642 v 1.99219 h -18.72657 q 0.26563,4.20573 2.52344,6.41927 2.27995,2.19141 6.33073,2.19141 2.34635,0 4.53776,-0.57552 2.21354,-0.57552 4.38281,-1.72657 v 3.85157 q -2.1914,0.92968 -4.49349,1.41666 -2.30208,0.48698 -4.67057,0.48698 -5.93229,0 -9.40755,-3.45312 -3.45313,-3.45313 -3.45313,-9.34115 0,-6.08724 3.27605,-9.65104 3.29817,-3.58594 8.8763,-3.58594 5.0026,0 7.90234,3.23177 2.92188,3.20964 2.92188,8.74349 z m -4.07292,-1.19531 q -0.0443,-3.34245 -1.88151,-5.33464 -1.8151,-1.99218 -4.82552,-1.99218 -3.40886,0 -5.46745,1.92578 -2.03646,1.92578 -2.34635,5.42318 z" />
    <path
       id="path836"
       style="font-style:normal;font-variant:normal;font-weight:normal;font-stretch:normal;font-size:45.33333206px;font-family:sans-serif;-inkscape-font-specification:'sans-serif, Normal';font-variant-ligatures:normal;font-variant-caps:normal;font-variant-numeric:normal;font-feature-settings:normal;text-align:start;writing-mode:lr-tb;text-anchor:start"
       d="m 278.8096,241.60611 q -0.6862,-0.39844 -1.50521,-0.57552 -0.79688,-0.19922 -1.77083,-0.19922 -3.45313,0 -5.3125,2.25781 -1.83724,2.23568 -1.83724,6.44141 v 13.05989 h -4.09506 v -24.79166 h 4.09506 v 3.85156 q 1.28385,-2.25781 3.34244,-3.34245 2.0586,-1.10677 5.00261,-1.10677 0.42057,0 0.92969,0.0664 0.50911,0.0443 1.1289,0.15495 z" />
    <path
       id="path838"
       style="font-style:normal;font-variant:normal;font-weight:normal;font-stretch:normal;font-size:45.33333206px;font-family:sans-serif;-inkscape-font-specification:'sans-serif, Normal';font-variant-ligatures:normal;font-variant-caps:normal;font-variant-numeric:normal;font-feature-settings:normal;text-align:start;writing-mode:lr-tb;text-anchor:start"
       d="m 318.09996,247.62694 v 14.96354 h -4.07292 v -14.83072 q 0,-3.51954 -1.3724,-5.26823 -1.37239,-1.7487 -4.11718,-1.7487 -3.29818,0 -5.20183,2.10286 -1.90364,2.10287 -1.90364,5.73308 v 14.01171 h -4.09505 v -34.4427 h 4.09505 v 13.5026 q 1.46094,-2.23568 3.43099,-3.34245 1.99219,-1.10677 4.58203,-1.10677 4.27213,0 6.46354,2.65625 2.19141,2.63412 2.19141,7.76953 z" />
    <path
       id="path840"
       style="font-style:normal;font-variant:normal;font-weight:normal;font-stretch:normal;font-size:45.33333206px;font-family:sans-serif;-inkscape-font-specification:'sans-serif, Normal';font-variant-ligatures:normal;font-variant-caps:normal;font-variant-numeric:normal;font-feature-settings:normal;text-align:start;writing-mode:lr-tb;text-anchor:start"
       d="m 326.22365,237.79882 h 4.07292 v 25.23437 q 0,4.73698 -1.81511,6.86198 -1.79297,2.125 -5.79948,2.125 h -1.54948 v -3.45312 h 1.08464 q 2.32422,0 3.16536,-1.08464 0.84115,-1.0625 0.84115,-4.44922 z m 0,-9.65104 h 4.07292 v 5.15755 h -4.07292 z" />
    <path
       id="path842"
       style="font-style:normal;font-variant:normal;font-weight:normal;font-stretch:normal;font-size:45.33333206px;font-family:sans-serif;-inkscape-font-specification:'sans-serif, Normal';font-variant-ligatures:normal;font-variant-caps:normal;font-variant-numeric:normal;font-feature-settings:normal;text-align:start;writing-mode:lr-tb;text-anchor:start"
       d="m 360.02444,249.17642 v 1.99219 h -18.72656 q 0.26562,4.20573 2.52344,6.41927 2.27994,2.19141 6.33073,2.19141 2.34635,0 4.53776,-0.57552 2.21354,-0.57552 4.38281,-1.72657 v 3.85157 q -2.19141,0.92968 -4.49349,1.41666 -2.30208,0.48698 -4.67057,0.48698 -5.9323,0 -9.40756,-3.45312 -3.45312,-3.45313 -3.45312,-9.34115 0,-6.08724 3.27604,-9.65104 3.29818,-3.58594 8.8763,-3.58594 5.00261,0 7.90235,3.23177 2.92187,3.20964 2.92187,8.74349 z m -4.07292,-1.19531 q -0.0443,-3.34245 -1.88151,-5.33464 -1.8151,-1.99218 -4.82552,-1.99218 -3.40885,0 -5.46744,1.92578 -2.03646,1.92578 -2.34636,5.42318 z" />
    <path
       id="path844"
       style="font-style:normal;font-variant:normal;font-weight:normal;font-stretch:normal;font-size:45.33333206px;font-family:sans-serif;-inkscape-font-specification:'sans-serif, Normal';font-variant-ligatures:normal;font-variant-caps:normal;font-variant-numeric:normal;font-feature-settings:normal;text-align:start;writing-mode:lr-tb;text-anchor:start"
       d="m 386.01142,242.55793 q 1.52734,-2.74479 3.65234,-4.05078 2.125,-1.30599 5.00261,-1.30599 3.8737,0 5.97656,2.72266 2.10287,2.70052 2.10287,7.70312 v 14.96354 h -4.09506 v -14.83072 q 0,-3.56381 -1.26172,-5.29037 -1.26171,-1.72656 -3.85156,-1.72656 -3.16536,0 -5.0026,2.10286 -1.83724,2.10287 -1.83724,5.73308 v 14.01171 h -4.09505 v -14.83072 q 0,-3.58594 -1.26172,-5.29037 -1.26172,-1.72656 -3.89584,-1.72656 -3.12109,0 -4.95833,2.125 -1.83724,2.10286 -1.83724,5.71094 v 14.01171 h -4.09505 v -24.79166 h 4.09505 v 3.85156 q 1.39453,-2.27995 3.34245,-3.36458 1.94792,-1.08464 4.6263,-1.08464 2.70052,0 4.58203,1.3724 1.90365,1.37239 2.8112,3.98437 z" />
    <path
       id="path846"
       style="font-style:normal;font-variant:normal;font-weight:normal;font-stretch:normal;font-size:45.33333206px;font-family:sans-serif;-inkscape-font-specification:'sans-serif, Normal';font-variant-ligatures:normal;font-variant-caps:normal;font-variant-numeric:normal;font-feature-settings:normal;text-align:start;writing-mode:lr-tb;text-anchor:start"
       d="m 411.90986,256.96809 h 4.67057 v 3.80729 l -3.63021,7.08333 h -2.85547 l 1.81511,-7.08333 z" />
    <path
       id="path848"
       style="font-style:normal;font-variant:normal;font-weight:normal;font-stretch:normal;font-size:45.33333206px;font-family:sans-serif;-inkscape-font-specification:'sans-serif, Normal';font-variant-ligatures:normal;font-variant-caps:normal;font-variant-numeric:normal;font-feature-settings:normal;text-align:start;writing-mode:lr-tb;text-anchor:start"
       d="m 98.383816,304.29361 v 14.96354 H 94.3109 v -14.83073 q 0,-3.51953 -1.372396,-5.26823 -1.372396,-1.7487 -4.117187,-1.7487 -3.298177,0 -5.201823,2.10287 -1.903646,2.10286 -1.903646,5.73307 v 14.01172 h -4.095052 v -34.44271 h 4.095052 v 13.50261 q 1.460938,-2.23568 3.43099,-3.34245 1.992187,-1.10677 4.582031,-1.10677 4.272135,0 6.463541,2.65625 2.191406,2.63411 2.191406,7.76953 z" />
    <path
       id="path850"
       style="font-style:normal;font-variant:normal;font-weight:normal;font-stretch:normal;font-size:45.33333206px;font-family:sans-serif;-inkscape-font-specification:'sans-serif, Normal';font-variant-ligatures:normal;font-variant-caps:normal;font-variant-numeric:normal;font-feature-settings:normal;text-align:start;writing-mode:lr-tb;text-anchor:start"
       d="m 103.58564,294.46548 h 4.3164 l 7.7474,20.80729 7.7474,-20.80729 h 4.3164 l -9.29687,24.79167 h -5.53386 z" />
    <path
       id="path852"
       style="font-style:normal;font-variant:normal;font-weight:normal;font-stretch:normal;font-size:45.33333206px;font-family:sans-serif;-inkscape-font-specification:'sans-serif, Normal';font-variant-ligatures:normal;font-variant-caps:normal;font-variant-numeric:normal;font-feature-settings:normal;text-align:start;writing-mode:lr-tb;text-anchor:start"
       d="m 133.33564,294.46548 h 4.07292 v 24.79167 h -4.07292 z m 0,-9.65104 h 4.07292 v 5.15755 h -4.07292 z" />
    <path
       id="path854"
       style="font-style:normal;font-variant:normal;font-weight:normal;font-stretch:normal;font-size:45.33333206px;font-family:sans-serif;-inkscape-font-specification:'sans-serif, Normal';font-variant-ligatures:normal;font-variant-caps:normal;font-variant-numeric:normal;font-feature-settings:normal;text-align:start;writing-mode:lr-tb;text-anchor:start"
       d="m 161.73538,295.19595 v 3.85156 q -1.72657,-0.88541 -3.58594,-1.32812 -1.85938,-0.44271 -3.85156,-0.44271 -3.03256,0 -4.5599,0.92969 -1.50521,0.92969 -1.50521,2.78906 0,1.41667 1.08464,2.23568 1.08463,0.79687 4.36067,1.52734 l 1.39454,0.3099 q 4.33854,0.92969 6.15364,2.63411 1.83724,1.68229 1.83724,4.71485 0,3.45312 -2.74479,5.46744 -2.72266,2.01433 -7.50391,2.01433 -1.99218,0 -4.16145,-0.39844 -2.14714,-0.3763 -4.53776,-1.15104 v -4.20573 q 2.25781,1.17318 4.44921,1.77083 2.19141,0.57552 4.33855,0.57552 2.8776,0 4.42708,-0.97396 1.54948,-0.99609 1.54948,-2.78906 0,-1.66015 -1.12891,-2.54557 -1.10677,-0.88542 -4.89193,-1.70443 l -1.41666,-0.33203 q -3.78516,-0.79687 -5.46745,-2.43489 -1.68229,-1.66016 -1.68229,-4.53777 0,-3.49739 2.47917,-5.40104 2.47916,-1.90364 7.03906,-1.90364 2.25781,0 4.25,0.33203 1.99218,0.33203 3.67448,0.99609 z" />
    <path
       id="path856"
       style="font-style:normal;font-variant:normal;font-weight:normal;font-stretch:normal;font-size:45.33333206px;font-family:sans-serif;-inkscape-font-specification:'sans-serif, Normal';font-variant-ligatures:normal;font-variant-caps:normal;font-variant-numeric:normal;font-feature-settings:normal;text-align:start;writing-mode:lr-tb;text-anchor:start"
       d="m 203.26142,299.2246 q 1.52734,-2.74479 3.65234,-4.05078 2.125,-1.30599 5.00261,-1.30599 3.8737,0 5.97656,2.72265 2.10287,2.70052 2.10287,7.70313 v 14.96354 h -4.09506 v -14.83073 q 0,-3.5638 -1.26172,-5.29036 -1.26171,-1.72657 -3.85156,-1.72657 -3.16536,0 -5.0026,2.10287 -1.83724,2.10286 -1.83724,5.73307 v 14.01172 h -4.09505 v -14.83073 q 0,-3.58594 -1.26172,-5.29036 -1.26172,-1.72657 -3.89584,-1.72657 -3.12109,0 -4.95833,2.125 -1.83724,2.10287 -1.83724,5.71094 v 14.01172 h -4.09505 v -24.79167 h 4.09505 v 3.85157 q 1.39453,-2.27995 3.34245,-3.36459 1.94792,-1.08463 4.6263,-1.08463 2.70052,0 4.58203,1.37239 1.90365,1.3724 2.8112,3.98438 z" />
    <path
       id="path858"
       style="font-style:normal;font-variant:normal;font-weight:normal;font-stretch:normal;font-size:45.33333206px;font-family:sans-serif;-inkscape-font-specification:'sans-serif, Normal';font-variant-ligatures:normal;font-variant-caps:normal;font-variant-numeric:normal;font-feature-settings:normal;text-align:start;writing-mode:lr-tb;text-anchor:start"
       d="m 239.38642,306.79491 q -4.9362,0 -6.83984,1.12891 -1.90365,1.1289 -1.90365,3.85156 0,2.16927 1.41667,3.45312 1.4388,1.26172 3.89583,1.26172 3.38672,0 5.42318,-2.39062 2.05859,-2.41276 2.05859,-6.39714 v -0.90755 z m 8.1237,-1.68229 v 14.14453 h -4.07292 v -3.76302 q -1.39453,2.25781 -3.47526,3.34245 -2.08073,1.0625 -5.09114,1.0625 -3.8073,0 -6.06511,-2.125 -2.23568,-2.14714 -2.23568,-5.73308 0,-4.18359 2.78907,-6.30859 2.8112,-2.125 8.36718,-2.125 h 5.71094 v -0.39844 q 0,-2.81119 -1.85937,-4.33854 -1.83724,-1.54948 -5.17969,-1.54948 -2.125,0 -4.13932,0.50912 -2.01433,0.50911 -3.8737,1.52734 v -3.76302 q 2.23568,-0.86328 4.33854,-1.28385 2.10287,-0.44271 4.09505,-0.44271 5.37891,0 8.03516,2.78906 2.65625,2.78906 2.65625,8.45573 z" />
    <path
       id="path860"
       style="font-style:normal;font-variant:normal;font-weight:normal;font-stretch:normal;font-size:45.33333206px;font-family:sans-serif;-inkscape-font-specification:'sans-serif, Normal';font-variant-ligatures:normal;font-variant-caps:normal;font-variant-numeric:normal;font-feature-settings:normal;text-align:start;writing-mode:lr-tb;text-anchor:start"
       d="m 252.97756,294.46548 h 4.3164 l 7.7474,20.80729 7.74739,-20.80729 h 4.31641 l -9.29687,24.79167 h -5.53386 z" />
    <path
       id="path862"
       style="font-style:normal;font-variant:normal;font-weight:normal;font-stretch:normal;font-size:45.33333206px;font-family:sans-serif;-inkscape-font-specification:'sans-serif, Normal';font-variant-ligatures:normal;font-variant-caps:normal;font-variant-numeric:normal;font-feature-settings:normal;text-align:start;writing-mode:lr-tb;text-anchor:start"
       d="m 303.93329,305.84309 v 1.99219 h -18.72657 q 0.26563,4.20572 2.52344,6.41927 2.27995,2.1914 6.33073,2.1914 2.34635,0 4.53776,-0.57552 2.21354,-0.57552 4.38281,-1.72656 v 3.85156 q -2.1914,0.92969 -4.49349,1.41667 -2.30208,0.48698 -4.67057,0.48698 -5.93229,0 -9.40755,-3.45313 -3.45313,-3.45312 -3.45313,-9.34114 0,-6.08724 3.27605,-9.65105 3.29817,-3.58593 8.8763,-3.58593 5.0026,0 7.90234,3.23177 2.92188,3.20963 2.92188,8.74349 z m -4.07292,-1.19531 q -0.0443,-3.34245 -1.88151,-5.33464 -1.81511,-1.99219 -4.82552,-1.99219 -3.40886,0 -5.46745,1.92578 -2.03646,1.92578 -2.34635,5.42318 z" />
    <path
       id="path864"
       style="font-style:normal;font-variant:normal;font-weight:normal;font-stretch:normal;font-size:45.33333206px;font-family:sans-serif;-inkscape-font-specification:'sans-serif, Normal';font-variant-ligatures:normal;font-variant-caps:normal;font-variant-numeric:normal;font-feature-settings:normal;text-align:start;writing-mode:lr-tb;text-anchor:start"
       d="m 331.22625,304.29361 v 14.96354 h -4.07291 v -14.83073 q 0,-3.51953 -1.3724,-5.26823 -1.37239,-1.7487 -4.11719,-1.7487 -3.29817,0 -5.20182,2.10287 -1.90364,2.10286 -1.90364,5.73307 v 14.01172 h -4.09506 v -24.79167 h 4.09506 v 3.85157 q 1.46093,-2.23568 3.43099,-3.34245 1.99218,-1.10677 4.58203,-1.10677 4.27213,0 6.46354,2.65625 2.1914,2.63411 2.1914,7.76953 z" />
    <path
       id="path866"
       style="font-style:normal;font-variant:normal;font-weight:normal;font-stretch:normal;font-size:45.33333206px;font-family:sans-serif;-inkscape-font-specification:'sans-serif, Normal';font-variant-ligatures:normal;font-variant-caps:normal;font-variant-numeric:normal;font-feature-settings:normal;text-align:start;writing-mode:lr-tb;text-anchor:start"
       d="m 374.96585,305.84309 v 1.99219 h -18.72656 q 0.26562,4.20572 2.52343,6.41927 2.27995,2.1914 6.33073,2.1914 2.34636,0 4.53776,-0.57552 2.21354,-0.57552 4.38281,-1.72656 v 3.85156 q -2.1914,0.92969 -4.49348,1.41667 -2.30209,0.48698 -4.67058,0.48698 -5.93229,0 -9.40755,-3.45313 -3.45312,-3.45312 -3.45312,-9.34114 0,-6.08724 3.27604,-9.65105 3.29817,-3.58593 8.8763,-3.58593 5.0026,0 7.90234,3.23177 2.92188,3.20963 2.92188,8.74349 z m -4.07292,-1.19531 q -0.0443,-3.34245 -1.88151,-5.33464 -1.8151,-1.99219 -4.82552,-1.99219 -3.40885,0 -5.46745,1.92578 -2.03646,1.92578 -2.34635,5.42318 z" />
    <path
       id="path868"
       style="font-style:normal;font-variant:normal;font-weight:normal;font-stretch:normal;font-size:45.33333206px;font-family:sans-serif;-inkscape-font-specification:'sans-serif, Normal';font-variant-ligatures:normal;font-variant-caps:normal;font-variant-numeric:normal;font-feature-settings:normal;text-align:start;writing-mode:lr-tb;text-anchor:start"
       d="m 396.01663,298.27278 q -0.6862,-0.39844 -1.50521,-0.57553 -0.79687,-0.19921 -1.77083,-0.19921 -3.45313,0 -5.3125,2.25781 -1.83724,2.23568 -1.83724,6.4414 v 13.0599 h -4.09505 v -24.79167 h 4.09505 v 3.85157 q 1.28385,-2.25782 3.34245,-3.34245 2.05859,-1.10677 5.0026,-1.10677 0.42057,0 0.92969,0.0664 0.50911,0.0443 1.1289,0.15495 z" />
    <path
       id="path870"
       style="font-style:normal;font-variant:normal;font-weight:normal;font-stretch:normal;font-size:45.33333206px;font-family:sans-serif;-inkscape-font-specification:'sans-serif, Normal';font-variant-ligatures:normal;font-variant-caps:normal;font-variant-numeric:normal;font-feature-settings:normal;text-align:start;writing-mode:lr-tb;text-anchor:start"
       d="m 432.49578,306.88345 q 0,-4.49349 -1.85938,-7.03906 -1.83724,-2.56771 -5.06901,-2.56771 -3.23177,0 -5.09115,2.56771 -1.83724,2.54557 -1.83724,7.03906 0,4.49349 1.83724,7.0612 1.85938,2.54557 5.09115,2.54557 3.23177,0 5.06901,-2.54557 1.85938,-2.56771 1.85938,-7.0612 z M 418.639,298.2285 q 1.28386,-2.21354 3.23178,-3.27604 1.97005,-1.08463 4.6927,-1.08463 4.51563,0 7.32683,3.58593 2.83333,3.58594 2.83333,9.42969 0,5.84375 -2.83333,9.42969 -2.8112,3.58594 -7.32683,3.58594 -2.72265,0 -4.6927,-1.0625 -1.94792,-1.08464 -3.23178,-3.29818 v 3.71875 h -4.09505 v -34.44271 h 4.09505 z" />
    <path
       id="path872"
       style="font-style:normal;font-variant:normal;font-weight:normal;font-stretch:normal;font-size:45.33333206px;font-family:sans-serif;-inkscape-font-specification:'sans-serif, Normal';font-variant-ligatures:normal;font-variant-caps:normal;font-variant-numeric:normal;font-feature-settings:normal;text-align:start;writing-mode:lr-tb;text-anchor:start"
       d="m 459.23538,301.52668 -10.77995,13.10417 q 0.90755,0.92969 2.03646,1.37239 1.15104,0.44271 2.58984,0.44271 3.25391,0 5.15756,-2.56771 1.90364,-2.5677 1.90364,-6.99479 0,-1.7487 -0.22135,-3.03255 -0.22136,-1.30599 -0.6862,-2.32422 z m -1.57162,-2.39062 q -0.92968,-0.90756 -2.08072,-1.35026 -1.12891,-0.46485 -2.50131,-0.46485 -3.34244,0 -5.22395,2.61198 -1.85938,2.58985 -1.85938,7.26042 0,1.59375 0.19922,2.8112 0.22135,1.21744 0.66406,2.23567 z m -13.56901,16.44661 q -1.19531,-1.70443 -1.79296,-3.8737 -0.59766,-2.1914 -0.59766,-4.82552 0,-6.10937 3.01042,-9.5625 3.03255,-3.45312 8.36718,-3.45312 2.0586,0 3.80729,0.57552 1.77084,0.55338 3.25391,1.70443 l 3.07682,-3.71875 2.10287,1.74869 -3.23177,3.96224 q 1.17317,1.70443 1.77083,3.89584 0.59766,2.1914 0.59766,4.84765 0,6.08724 -3.03255,9.5625 -3.03256,3.45313 -8.34506,3.45313 -2.125,0 -3.91797,-0.57552 -1.77083,-0.57552 -3.16536,-1.70443 l -3.07682,3.71875 -2.125,-1.72656 z" />
    <path
       id="path874"
       style="font-style:normal;font-variant:normal;font-weight:normal;font-stretch:normal;font-size:45.33333206px;font-family:sans-serif;-inkscape-font-specification:'sans-serif, Normal';font-variant-ligatures:normal;font-variant-caps:normal;font-variant-numeric:normal;font-feature-settings:normal;text-align:start;writing-mode:lr-tb;text-anchor:start"
       d="m 468.28874,294.46548 h 4.31641 l 7.7474,20.80729 7.74739,-20.80729 h 4.31641 l -9.29688,24.79167 h -5.53385 z" />
    <path
       id="path876"
       style="font-style:normal;font-variant:normal;font-weight:normal;font-stretch:normal;font-size:45.33333206px;font-family:sans-serif;-inkscape-font-specification:'sans-serif, Normal';font-variant-ligatures:normal;font-variant-caps:normal;font-variant-numeric:normal;font-feature-settings:normal;text-align:start;writing-mode:lr-tb;text-anchor:start"
       d="m 498.03874,284.81444 h 4.07292 v 34.44271 h -4.07292 z" />
    <path
       id="path878"
       style="font-style:normal;font-variant:normal;font-weight:normal;font-stretch:normal;font-size:45.33333206px;font-family:sans-serif;-inkscape-font-specification:'sans-serif, Normal';font-variant-ligatures:normal;font-variant-caps:normal;font-variant-numeric:normal;font-feature-settings:normal;text-align:start;writing-mode:lr-tb;text-anchor:start"
       d="m 531.83954,305.84309 v 1.99219 h -18.72657 q 0.26563,4.20572 2.52344,6.41927 2.27995,2.1914 6.33073,2.1914 2.34635,0 4.53776,-0.57552 2.21354,-0.57552 4.38281,-1.72656 v 3.85156 q -2.1914,0.92969 -4.49349,1.41667 -2.30208,0.48698 -4.67057,0.48698 -5.93229,0 -9.40755,-3.45313 -3.45313,-3.45312 -3.45313,-9.34114 0,-6.08724 3.27605,-9.65105 3.29817,-3.58593 8.8763,-3.58593 5.0026,0 7.90234,3.23177 2.92188,3.20963 2.92188,8.74349 z m -4.07292,-1.19531 q -0.0443,-3.34245 -1.88151,-5.33464 -1.81511,-1.99219 -4.82552,-1.99219 -3.40886,0 -5.46745,1.92578 -2.03646,1.92578 -2.34635,5.42318 z" />
    <path
       id="path880"
       style="font-style:normal;font-variant:normal;font-weight:normal;font-stretch:normal;font-size:45.33333206px;font-family:sans-serif;-inkscape-font-specification:'sans-serif, Normal';font-variant-ligatures:normal;font-variant-caps:normal;font-variant-numeric:normal;font-feature-settings:normal;text-align:start;writing-mode:lr-tb;text-anchor:start"
       d="m 542.55308,287.42642 v 7.03906 h 8.38932 v 3.16537 h -8.38932 v 13.45833 q 0,3.03255 0.81901,3.89583 0.84114,0.86329 3.38672,0.86329 h 4.18359 v 3.40885 h -4.18359 q -4.71485,0 -6.50782,-1.7487 -1.79296,-1.77083 -1.79296,-6.41927 v -13.45833 h -2.98829 v -3.16537 h 2.98829 v -7.03906 z" />
  </g>
</svg>
