<svg xmlns="http://www.w3.org/2000/svg" width="2510.524" height="2510.524" viewBox="0 0 2510.524 2510.524">
  <g id="Group_1195" data-name="Group 1195" transform="translate(198.967 -204.819)">
    <path id="Path_1407" data-name="Path 1407" d="M867.465,0H978.927c479.088,0,867.465,852.013,867.465,852.013s-388.378,852.013-867.465,852.013H867.465C388.377,1704.025,0,1322.566,0,852.013S388.377,0,867.465,0Z" transform="translate(2311.558 1409.747) rotate(135)" fill="#fff"/>
    <g id="Group_950" data-name="Group 950" transform="translate(8638 -2453)">
      <rect id="Rectangle_409" data-name="Rectangle 409" width="424" height="35" transform="translate(-8267.5 4055.5) rotate(90)" fill="#ada699"/>
      <path id="Path_1408" data-name="Path 1408" d="M96.412,0H1291L1144.724,111.776H-20.458Z" transform="translate(-7123 4583) rotate(180)" fill="rgba(173,166,153,0.47)"/>
      <path id="Path_1392" data-name="Path 1392" d="M-976.144,187.328" transform="translate(-7102.906 3565.235)" fill="none" stroke="#323f51" stroke-width="1"/>
      <path id="Path_1390" data-name="Path 1390" d="M-882.9,262.108c-1.169,93.671-2.331,156.731-3.5,250.409a493.833,493.833,0,0,1-96.189,1.8" transform="translate(-7142.656 4026.806)" fill="none" stroke="#323f51" stroke-linecap="round" stroke-linejoin="round" stroke-width="10"/>
      <path id="Path_1387" data-name="Path 1387" d="M-938.817,262.451c-4.374,89.852-4.5,150.2-.38,240.059a229.483,229.483,0,0,1,96.7,1.37" transform="translate(-6889.151 4038.778)" fill="none" stroke="#323f51" stroke-linecap="round" stroke-linejoin="round" stroke-width="10"/>
      <path id="Path_1388" data-name="Path 1388" d="M-769.576,158.091C-844.09,199.4-889.261,278.58-921.272,357.54a1090.8,1090.8,0,0,0-77.62,473.284c1.865,30.991,5.3,62.765,19.552,90.35,18.089,35.016,51.756,59.495,87.044,77.053,66.976,33.323,142.487,45.932,217.187,49.948,63.5,3.414,128.729.638,187.988-22.442S-374.974,956.548-356.476,895.7c10.952-36.012,9.425-74.471,7.8-112.076q-2.4-55.525-4.806-111.05c-4.289-99.115-8.9-199.98-42.2-293.436S-495.936,199.038-589.75,166.769c-29.867-10.278-66.266-34.535-97.43-29.4-67.686,11.146-35.546,4.024-82.4,20.721" transform="translate(-7255.238 3252.522)" fill="#7ec8d6" stroke="#323f51" stroke-miterlimit="10" stroke-width="10"/>
      <path id="Path_1393" data-name="Path 1393" d="M32.4,68.721c-5.592,3.46-8.016,6.94-10.721,12.974a13.509,13.509,0,0,0-1.428,5.813A18.879,18.879,0,0,0,21.7,93.221a97.168,97.168,0,0,0,4.214,11.144c1.79,3.55,4.375,6.879,7.905,8.7,4.164,2.152,13.477,1.307,17.892-.05,6.185-1.891,7.282-.292,11.576-5.109,2.162-2.414,4.154-6.718,5.411-9.715s1.7-9.685,1.056-12.914c-1-4.978-9.333-15.81-16.273-18.817-9.1-3.932-11.858-.644-21.362,1.438" transform="translate(-8260.057 3348.128)" fill="#fff" stroke="#323f51" stroke-width="5"/>
      <path id="Path_1394" data-name="Path 1394" d="M32.4,68.721c-5.592,3.46-8.016,6.94-10.721,12.974a13.509,13.509,0,0,0-1.428,5.813A18.879,18.879,0,0,0,21.7,93.221a97.168,97.168,0,0,0,4.214,11.144c1.79,3.55,4.375,6.879,7.905,8.7,4.164,2.152,13.477,1.307,17.892-.05,6.185-1.891,7.282-.292,11.576-5.109,2.162-2.414,4.154-6.718,5.411-9.715s1.7-9.685,1.056-12.914c-1-4.978-9.333-15.81-16.273-18.817-9.1-3.932-11.858-.644-21.362,1.438" transform="translate(-8260.057 3348.128)" fill="none" stroke="#323f51" stroke-linecap="round" stroke-miterlimit="10" stroke-width="5"/>
      <path id="Path_1395" data-name="Path 1395" d="M35.672,59.265c-11.747,7.171-16.736,14.553-22.2,27.417-1.649,3.9-2.967,8.1-2.736,12.471.231,4.234,1.891,8.338,3.4,12.391,3.047,8.157,5.6,16.5,9.615,24.279s9.715,15.076,17.339,19.2c9,4.878,28.865,3.55,38.188.865,13.125-3.762,15.529-.241,24.46-10.4,4.476-5.1,8.488-14.292,11.023-20.688s3.088-20.809,1.549-27.819c-2.394-10.792-20.779-34.608-35.764-41.467-19.642-8.981-25.345-2.032-45.53,1.951" transform="translate(-8346.422 3225.902)" fill="#fff" stroke="#323f51" stroke-width="10"/>
      <path id="Path_1396" data-name="Path 1396" d="M35.672,59.265c-11.747,7.171-16.736,14.553-22.2,27.417-1.649,3.9-2.967,8.1-2.736,12.471.231,4.234,1.891,8.338,3.4,12.391,3.047,8.157,5.6,16.5,9.615,24.279s9.715,15.076,17.339,19.2c9,4.878,28.865,3.55,38.188.865,13.125-3.762,15.529-.241,24.46-10.4,4.476-5.1,8.488-14.292,11.023-20.688s3.088-20.809,1.549-27.819c-2.394-10.792-20.779-34.608-35.764-41.467-19.642-8.981-25.345-2.032-45.53,1.951" transform="translate(-8346.422 3225.902)" fill="none" stroke="#323f51" stroke-linecap="round" stroke-miterlimit="10" stroke-width="10"/>
      <path id="Path_1397" data-name="Path 1397" d="M19.126,301.966c12.039,110.159,88.023,195.456,197.528,214.073C284.17,527.515,373.7,531.276,438.571,506.4c65.9-25.254,104.6-83.869,127.759-147.945,21.251-58.776,50.83-131.6,23.384-192.731C553.688,85.49,470.926,20.74,384.724,3.009,327.316-8.8,170.6,26.855,103.387,82.754,15.314,156.023,35.781,197.7,8.948,301.242" transform="translate(-8362.411 2769.631)" fill="#fff" stroke="#323f51" stroke-width="10"/>
      <path id="Path_1398" data-name="Path 1398" d="M19.126,301.966c12.039,110.159,88.023,195.456,197.528,214.073C284.17,527.515,373.7,531.276,438.571,506.4c65.9-25.254,104.6-83.869,127.759-147.945,21.251-58.776,50.83-131.6,23.384-192.731C553.688,85.49,470.926,20.74,384.724,3.009,327.316-8.8,170.6,26.855,103.387,82.754,15.314,156.023,35.781,197.7,8.948,301.242" transform="translate(-8362.411 2769.631)" fill="none" stroke="#323f51" stroke-linecap="round" stroke-miterlimit="10" stroke-width="10"/>
      <path id="Path_1402" data-name="Path 1402" d="M477.689,124.343c16.711,3.5,29.235,12.385,41.669,23.79" transform="translate(-8351.11 3447.258)" fill="none" stroke="#353f4f" stroke-linecap="round" stroke-miterlimit="10" stroke-width="5"/>
      <path id="Path_1403" data-name="Path 1403" d="M507.97,124.343c-16.711,3.5-29.221,12.385-41.67,23.79" transform="translate(-8482.925 3447.258)" fill="none" stroke="#353f4f" stroke-linecap="round" stroke-miterlimit="10" stroke-width="5"/>
      <rect id="Rectangle_406" data-name="Rectangle 406" width="501" height="35" transform="translate(-7167.5 4079.5) rotate(90)" fill="#c7bdaa"/>
      <rect id="Rectangle_408" data-name="Rectangle 408" width="251" height="35" transform="translate(-8380.5 4329.5) rotate(90)" fill="#c7bdaa"/>
      <rect id="Rectangle_407" data-name="Rectangle 407" width="424" height="35" transform="translate(-7105.5 4055.5) rotate(90)" fill="#ada699"/>
      <path id="Path_1406" data-name="Path 1406" d="M109.273,24.844H1309.742L1248,300H0Z" transform="translate(-8416 4030)" fill="#c7bdaa"/>
      <path id="Path_1391" data-name="Path 1391" d="M-774.151,191.7c52.681,32.986,87.28,71.967,115.059,127.575,14.223,28.467,24.343,62.543,11.354,91.591-9.023,20.176-27.844,34.37-47.661,44.146-73.359,36.213-162.311,21.84-239.241,49.669" transform="translate(-6846.724 3592.239)" fill="none" stroke="#323f51" stroke-linecap="round" stroke-linejoin="round" stroke-width="10"/>
      <path id="Path_1389" data-name="Path 1389" d="M-898.661,192.036c-65.211,15.349-115.676,79-115.74,146-.014,15.866,2.6,31.989,9.784,46.14,13.346,26.272,40.315,42.346,66.107,56.612C-846.66,491.561-689.384,178-592.536,218.441" transform="translate(-7339.045 3594.296)" fill="none" stroke="#323f51" stroke-linecap="round" stroke-linejoin="round" stroke-width="10"/>
      <g id="Group_949" data-name="Group 949" transform="translate(-7318.93 4129.085) rotate(50)">
        <g id="Group_704" data-name="Group 704" transform="translate(-381.034 345.751)">
          <path id="Path_1099" data-name="Path 1099" d="M-187.764,528.352a4.382,4.382,0,0,0-.173-1.393,53.282,53.282,0,0,1-.946-12.065c.067-1.223.029-2.451.01-3.675a7.289,7.289,0,0,0-.146-1.965,25.009,25.009,0,0,1-.627-7.012c-.018-1.222-.19-2.442-.283-3.662-.13-1.688-.292-3.373-.364-5.063-.216-5.07.505-10.175-.613-15.21a1.1,1.1,0,0,1-.013-.282,54.037,54.037,0,0,0-.545-8.734,32.523,32.523,0,0,0-.616-5.034,6.933,6.933,0,0,1-.166-1.964,26.112,26.112,0,0,0-.665-7.575,4.3,4.3,0,0,1-.086-.842c-.294-3.75-.475-7.513-.914-11.246a77.309,77.309,0,0,1-.433-9.028,11.6,11.6,0,0,0-.158-2.814,24.56,24.56,0,0,1-.494-6.179c0-2.829.017-5.657,0-8.485-.005-.845-.094-1.69-.164-2.533-.156-1.873-.406-3.741-.469-5.617-.094-2.819.15-5.648-.564-8.434a9.257,9.257,0,0,1-.1-2.253c0-1.979.026-3.96.027-5.938a6.261,6.261,0,0,0-.094-1.965,17.618,17.618,0,0,1-.474-5.885c0-1.028,0-2.056,0-3.2a12.582,12.582,0,0,0-6.475-1.926c-9.593.068-19.188.012-28.78.131-3.411.041-6.823.378-10.222.706a67.316,67.316,0,0,1-8.783.749,19.627,19.627,0,0,0-3.392.35c-3.194.458-6.381.966-9.576,1.412q-9.587,1.34-19.18,2.632c-2.351.317-4.7.71-7.066.838a33.272,33.272,0,0,0-5.9.829,27.78,27.78,0,0,1-5.569,1.092,46.667,46.667,0,0,0-7.031.982,17.545,17.545,0,0,1-1.957.352c-3.122.193-6.251.3-9.37.529a16.365,16.365,0,0,0-3.913.661,10.832,10.832,0,0,1-3.339.541c-5.224.068-10.447.15-15.671.2a14.234,14.234,0,0,0-5.294.857c-.07.691-.135,1.242-.18,1.793-.274,3.326.836,6.515.981,9.8.062,1.4.334,2.793.4,4.2a56.854,56.854,0,0,0,.182,5.927,102.922,102.922,0,0,1,1.186,16.9,12.639,12.639,0,0,0,.141,2.533,44.916,44.916,0,0,1,.59,9.294,24.553,24.553,0,0,0,.134,3.664c.516,3.733,1.153,7.449,1.68,11.18a68.562,68.562,0,0,1,.813,7.3,37.2,37.2,0,0,0,.713,6.732c1.047,4.795,1.386,9.681,2,14.527.5,3.917.743,7.864,1.142,11.794.123,1.215.406,2.414.564,3.626a34.9,34.9,0,0,1,.435,4.2c.048,5.467.007,10.935.018,16.4a14.256,14.256,0,0,0,.176,2.812,84.851,84.851,0,0,1,1.081,10.334c.294,3.652.075,7.347.023,11.022a16.35,16.35,0,0,1-.384,2.771,23.763,23.763,0,0,0-.058,6.838c.957.068,1.787.174,2.617.18,3.61.019,7.223.111,10.828-.025a23.384,23.384,0,0,1,6.995,1.042,109.735,109.735,0,0,1,11.559,3.958,18.516,18.516,0,0,0,6.9,1.376c3.63-.031,7.175.609,10.76.851,3.377.228,6.716,1.086,10.117,1.43,1.694.171,3.371.463,5.087.476a16.367,16.367,0,0,1,3.675.3,19.166,19.166,0,0,0,4.52.423c1.9,0,3.8.022,5.7,0a13.389,13.389,0,0,0,2.264-.158c2.511-.462,5.012-.973,7.515-1.48,3.334-.677,6.741-1.065,9.9-2.441a2.216,2.216,0,0,1,.824-.2,10.708,10.708,0,0,0,4.546-1.521c2.449-1.2,4.57-2.959,7.184-3.912a35.076,35.076,0,0,0,4.769-2.5,6.491,6.491,0,0,0,1.615-1.1,30.588,30.588,0,0,1,6.573-4.808,21.233,21.233,0,0,0,3.582-2.751q1.54-1.469,3.022-3a9.594,9.594,0,0,1,3.418-2.475,4.76,4.76,0,0,0,1.593-1.131c1.658-1.674,3.274-3.39,4.891-5.1a1.184,1.184,0,0,1,2.066.292,3.635,3.635,0,0,1,.21.523,49.411,49.411,0,0,1,1.48,5.139,7.674,7.674,0,0,0,3.185,4.823,3.722,3.722,0,0,0,1.243.347,5.921,5.921,0,0,0,.22-1c.045-2.355.055-4.712.1-7.067C-187.7,533.027-188.155,530.695-187.764,528.352Z" transform="translate(352.271 -376.339)" fill="#fff6d5"/>
          <path id="Path_1100" data-name="Path 1100" d="M-193.511,436.468c.466.153.91.24,1.241-.263.565-.851,1.142-1.7,1.973-2.929a10.9,10.9,0,0,1-.135,1.908,9.093,9.093,0,0,1-.705,1.532c-1.992,4-2.111,4.646-1.717,9.45.555.333.87,0,1.107-.428.4-.732.748-1.5,1.173-2.216.127-.213.438-.318.907-.64a20.3,20.3,0,0,1-2.274,6.65,2.074,2.074,0,0,0-.157,2.048,3.539,3.539,0,0,0,.77-.616,8.553,8.553,0,0,1,2.184-2.8c.746.309.529.838.384,1.2-.693,1.742-1.4,3.486-2.2,5.18a6.917,6.917,0,0,0-.417,4.791c1.376-.746.966-2.271,1.764-3.157.783-.869,1.122-2.082,2.2-2.834a15.1,15.1,0,0,1-.242,1.617c-.35,1.355-.687,2.719-1.142,4.04-.425,1.234-.821,2.565-2.629,2.812.18.908.335,1.688.489,2.464.359-.058.582-.026.672-.12.7-.726.986-1.807,2.165-2.484a4.733,4.733,0,0,1-.105,1.21c-.683,1.643-1.37,3.288-2.138,4.893a1.671,1.671,0,0,0,.169,2.08c1.113-.18,1.218-1.292,1.86-1.95.8.289.822.939.593,1.553a47.181,47.181,0,0,1-2.015,4.918,4.049,4.049,0,0,0,.116,3.944c1.17.016.949-1.716,2.316-1.462a5.33,5.33,0,0,1-1.637,3.71,1.52,1.52,0,0,0-.482,1.778l1.383-.13c-.054,2.58-1.685,4.786-1.526,7.351.149,2.405-.329,4.865.7,7.4a15.117,15.117,0,0,0,3.4-4.128c.407,1.808-.424,2.857-.953,3.958-.549,1.147-.593,1.125-2.322,2.05v3.169a2.328,2.328,0,0,0,1.854-1.863,7.929,7.929,0,0,1,2.911-3.892,28.375,28.375,0,0,0-1.236,4.266c-.186,1.525-1.37,2.4-1.869,3.659H-188.5c-.057.184-.185.372-.15.526a31.9,31.9,0,0,1,.584,8.107c-.047,1.586-.008,3.174-.008,4.668.659.351.8-.057.97-.346.283-.487.514-1,.794-1.492.352-.612.974-.822,1.36-.488a1.2,1.2,0,0,1,.18,1.537c-.736,1.194-1.5,2.37-2.213,3.579a3.336,3.336,0,0,0-.365,2.832c1.153-.147.793-1.585,1.874-1.706.366.864-.125,1.627-.372,2.368-.384,1.154-.941,2.249-1.407,3.377a4.089,4.089,0,0,0-.3,3.194,3.358,3.358,0,0,0,.8-.586c.586-.823,1.117-1.685,1.966-2.987a5.655,5.655,0,0,1-.775,3.11,27.3,27.3,0,0,1-1.147,2.568c-.794,1.52-.818,1.508-.76,2.443,1.1-.27,1.359-1.813,2.665-1.744.074.1.2.2.178.244-1,2.183-2.011,4.359-3.125,6.757.491.03.936.19,1.111.041.5-.419.859-.989,1.32-1.455a6.585,6.585,0,0,1,1.071-.671c-.759,1.755-1.313,3.214-2.007,4.6-1.085,2.175-2.251,4.31-3.421,6.443a.777.777,0,0,1-.712.236c-.269-.174-.621-.553-.584-.795a10.89,10.89,0,0,1,.593-1.841c-.914.183-.914.183-1.82,1.19.239.774.853,1.675.638,2.294a10.556,10.556,0,0,1-2.028,3.312c-.661.763-1.356.07-2.006-.55a13.485,13.485,0,0,0-2,2.932,4.784,4.784,0,0,1-.79,1.142,1.161,1.161,0,0,1-1.022.212,1.785,1.785,0,0,1-.787-1.018c-.148-.583.644-1.149.076-1.937-1.447.589-2.917,1.037-3.512,2.8a18.4,18.4,0,0,1-1.454,2.716c-.465.857-.893.927-1.768.264-.221-.168-.421-.365-.692-.6-.389.444-.74.882-1.131,1.281-.466.474-.974.948-1.724.672s-.866-.9-.761-1.615a3.33,3.33,0,0,0-.157-.85c-.614,1.072-1.1,1.955-1.624,2.818a5.763,5.763,0,0,1-.708.878c-.722.784-1.489.931-1.923.386-.382-.48-.263-1,.425-1.706.261-.269.568-.5.836-.76.2-.195.361-.42.558-.653-1.594-.121-1.738-.091-3.886.8a16.778,16.778,0,0,1-.807,2.029A4.246,4.246,0,0,1-219.53,564a1.068,1.068,0,0,1-1.536-.088,1.859,1.859,0,0,1-.247-1.258c.034-.337.332-.649.619-1.162-.89-.093-1.482.03-1.884.794a13.035,13.035,0,0,1-1.143,1.912c-.614.8-1.44.546-1.829-.52a8.5,8.5,0,0,1-.218-.9,6.072,6.072,0,0,0-5.532,2.612c-4.678-.956-9.31-.314-13.915-.5-2.889,1.062-5.808.081-8.712.124-4.071.059-8.142.072-12.213.1a12.842,12.842,0,0,1-4.495-.453,2.257,2.257,0,0,0-.838-.129,56.337,56.337,0,0,1-9.871-.75c-2.248-.284-4.475-.733-6.715-1.084-.93-.145-1.871-.219-2.807-.335-1.307-.159-2.612-.34-3.921-.482-.845-.092-1.693-.172-2.542-.194-1.886-.044-3.793.135-5.6-.605-5.2-.23-9.862-2.442-14.718-3.936a25.152,25.152,0,0,0-7.465-1.362c-4.26.01-8.521.021-12.782.012-3.365-.008-3.547-.194-3.564-3.474-.007-1.5.006-3,.014-4.5a5.046,5.046,0,0,1,.041-1.4c1.061-3.5.459-7.076.551-10.616a20.764,20.764,0,0,0-.535-6.974,7.517,7.517,0,0,1-.118-2.236,14.977,14.977,0,0,0-.418-3.9,12.5,12.5,0,0,1-.281-3.063c-.03-4.971-.018-9.943-.029-14.914a47.042,47.042,0,0,0-.622-6.7c-.3-2.084.121-4.273.224-6.415a1.061,1.061,0,0,0-.012-.281c-1.1-4.769-.874-9.693-1.753-14.5-.81-4.425-1.359-8.9-1.99-13.353-.131-.926-.118-1.871-.172-2.807a11.452,11.452,0,0,0-.153-2.241c-1.176-4.4-.966-8.936-1.377-13.409-.524-5.691-.477-11.434-1.66-17.063a15.216,15.216,0,0,1-.116-1.681c-.131-1.394-.3-2.785-.416-4.179-.071-.839-.105-1.683-.114-2.526a68.209,68.209,0,0,0-.546-10.941,44.069,44.069,0,0,1-.154-5.616,38.424,38.424,0,0,0-1.788-10.765,7.093,7.093,0,0,1-.409-2.741,2.636,2.636,0,0,1,2.1-2.666,21.366,21.366,0,0,1,4.742-.719c6.247.032,12.493.17,18.738.353a20.975,20.975,0,0,0,6.181-.647c1.368-.372,2.747-.7,4.124-1.04a5.6,5.6,0,0,1,1.384-.281c2.65.042,5.268-.364,7.892-.52a73.835,73.835,0,0,0,12.045-1.695,8.1,8.1,0,0,1,1.678-.278,33.96,33.96,0,0,0,7.824-1.249,7.108,7.108,0,0,1,1.115-.194c6.886-.562,13.69-1.744,20.529-2.657,3.468-.464,6.915-1.083,10.388-1.515,1.966-.245,3.966-.207,5.944-.381,2.544-.223,5.076-.578,7.621-.787,2.354-.2,4.718-.381,7.079-.388,9.563-.028,19.125.058,28.688,0a15.81,15.81,0,0,1,7.489,2.248,1.817,1.817,0,0,1,.976,1.6c.1.992.173,1.986.309,3.55a20.5,20.5,0,0,1,1.595-2.5c.448-.506,1.013-.4,1.416.364a15.852,15.852,0,0,1-2.427,5.366l1.6.147c-.351,1.826-2.216,3.311-1.4,5.408,1.383-.456.6-1.673,1.066-2.578l1.65-.46a7.442,7.442,0,0,1,.674,2.1,4.534,4.534,0,0,1-1.119,3.121c-1.141,1.222-1.4,2.831-2.115,4.23-.353.687-.11,1.258.54,1.841l1.745-2.849a4.17,4.17,0,0,1-.406,3.481c-.439.983-1.434,1.755-1.309,3.109.907-.06,1.015-.783,1.365-1.24.325-.424.643-.851.937-1.241.678.273.517.623.372.963-.812,1.9-1.635,3.789-2.438,5.689-.238.566-.616,1.155.074,1.936.493-.657.925-1.223,1.347-1.8q.754-1.022,1.492-2.054a9.993,9.993,0,0,1,1.38-1.687,9.165,9.165,0,0,1-1.176,3.341c-.712,1.427-1.417,2.86-2.044,4.324a7.313,7.313,0,0,0-.585,4.18,13.632,13.632,0,0,0,3.267-5.039,2.625,2.625,0,0,1,.193,2.9c-.778,1.979-1.284,4.117-3.045,5.59a1.068,1.068,0,0,0-.069,1.763c1.632-1.558,2.427-3.749,4.036-5.286.883.774.27,1.378.146,1.941-.254,1.146-1.142,2.227-.257,3.453q-.37,1.2-.741,2.4c-.21.673-.825,1.26-.27,2.081.144.214-.049.717-.189,1.043-.738,1.716-1.527,3.411-2.253,5.132a6.778,6.778,0,0,0-.259,1.4c1.182.021,1.185-1.39,2.173-1.489-.435,1.5-.816,2.916-1.272,4.308-.107.324-.465.566-.687.853.02.18.009.353.026.523.007.061.083.115.127.173.065-.127.213-.3.174-.374C-193.19,436.663-193.372,436.577-193.511,436.468Zm-156.484-46.54c-.07.687-.135,1.236-.18,1.785-.273,3.31.834,6.484.978,9.757.062,1.394.333,2.78.4,4.175a56.5,56.5,0,0,0,.181,5.9,102.254,102.254,0,0,1,1.183,16.819,12.56,12.56,0,0,0,.141,2.521,44.624,44.624,0,0,1,.588,9.25,24.409,24.409,0,0,0,.133,3.647c.515,3.715,1.149,7.414,1.675,11.127a68.117,68.117,0,0,1,.811,7.261,36.951,36.951,0,0,0,.711,6.7c1.043,4.772,1.382,9.634,1.994,14.458.494,3.9.741,7.826,1.138,11.738.122,1.209.4,2.4.562,3.609a34.65,34.65,0,0,1,.434,4.176c.048,5.44.007,10.882.018,16.323a14.163,14.163,0,0,0,.175,2.8,84.309,84.309,0,0,1,1.078,10.284c.293,3.635.074,7.313.023,10.97a16.261,16.261,0,0,1-.383,2.758,23.6,23.6,0,0,0-.058,6.805c.954.068,1.781.174,2.609.179,3.6.019,7.2.111,10.8-.025a23.349,23.349,0,0,1,6.973,1.037,109.417,109.417,0,0,1,11.524,3.939,18.5,18.5,0,0,0,6.882,1.369c3.619-.031,7.153.606,10.727.846,3.367.226,6.7,1.08,10.087,1.423,1.689.17,3.361.461,5.072.473a16.33,16.33,0,0,1,3.664.3,19.136,19.136,0,0,0,4.506.421c1.894,0,3.788.022,5.682,0a13.357,13.357,0,0,0,2.257-.157c2.5-.46,5-.969,7.492-1.474,3.324-.674,6.72-1.059,9.872-2.43a2.209,2.209,0,0,1,.822-.2,10.691,10.691,0,0,0,4.532-1.514c2.442-1.192,4.556-2.945,7.162-3.893a35,35,0,0,0,4.754-2.49,6.485,6.485,0,0,0,1.61-1.1,30.493,30.493,0,0,1,6.553-4.785,21.167,21.167,0,0,0,3.571-2.738q1.535-1.462,3.013-2.985a9.565,9.565,0,0,1,3.408-2.463,4.746,4.746,0,0,0,1.588-1.126c1.653-1.666,3.264-3.374,4.877-5.079a1.181,1.181,0,0,1,2.06.291,3.608,3.608,0,0,1,.21.52,49.135,49.135,0,0,1,1.475,5.114,7.637,7.637,0,0,0,3.176,4.8,3.718,3.718,0,0,0,1.24.346,5.881,5.881,0,0,0,.22-.992c.044-2.344.055-4.69.1-7.034.05-2.325-.4-4.646-.014-6.978A4.353,4.353,0,0,0-190.06,525,52.937,52.937,0,0,1-191,513c.067-1.217.029-2.44.01-3.658a7.242,7.242,0,0,0-.145-1.956,24.843,24.843,0,0,1-.625-6.978c-.018-1.216-.19-2.43-.282-3.645-.129-1.68-.291-3.357-.363-5.039-.215-5.046.5-10.127-.612-15.137a1.09,1.09,0,0,1-.013-.281,53.68,53.68,0,0,0-.544-8.692,32.306,32.306,0,0,0-.614-5.01,6.887,6.887,0,0,1-.165-1.954,25.944,25.944,0,0,0-.663-7.538,4.277,4.277,0,0,1-.086-.838c-.293-3.732-.474-7.477-.911-11.192a76.8,76.8,0,0,1-.431-8.985,11.525,11.525,0,0,0-.157-2.8,24.4,24.4,0,0,1-.493-6.15c0-2.815.017-5.629,0-8.444-.005-.841-.093-1.682-.164-2.521-.155-1.864-.405-3.723-.468-5.59-.094-2.805.15-5.621-.562-8.394a9.2,9.2,0,0,1-.1-2.242c0-1.97.025-3.941.027-5.91a6.221,6.221,0,0,0-.094-1.956,17.5,17.5,0,0,1-.472-5.857c0-1.023,0-2.046,0-3.184a12.562,12.562,0,0,0-6.455-1.917c-9.564.067-19.13.012-28.693.13-3.4.041-6.8.376-10.191.7a67.233,67.233,0,0,1-8.756.745,19.59,19.59,0,0,0-3.382.348c-3.184.456-6.362.962-9.547,1.405q-9.558,1.333-19.123,2.619c-2.344.316-4.688.706-7.045.834a33.222,33.222,0,0,0-5.885.825,27.733,27.733,0,0,1-5.552,1.087,46.609,46.609,0,0,0-7.009.977,17.539,17.539,0,0,1-1.951.351c-3.113.192-6.232.3-9.342.527a16.334,16.334,0,0,0-3.9.658,10.815,10.815,0,0,1-3.328.538c-5.208.067-10.416.15-15.624.2A14.212,14.212,0,0,0-349.995,389.928Zm109.556,172.138c2.459,0,4.254.044,6.046-.019a12.787,12.787,0,0,0,2.513-.422q9.095-2.207,18.178-4.455a3.673,3.673,0,0,0,1.584-.559c1.582-1.479,3.59-1.963,5.58-2.428a13.78,13.78,0,0,0,6.273-3.08,8.7,8.7,0,0,1,1.651-1.078c2.7-1.484,4.622-3.8,6.753-6.046a14.341,14.341,0,0,1-4.509-4.754c-1.041-1.878-.866-4.122-1.836-6.21a44.776,44.776,0,0,0-3.806,3.57c-.555.5-1.073,1.212-1.732,1.4a9.15,9.15,0,0,0-3.841,2.786c-1.2,1.194-2.428,2.373-3.558,3.635-1.575,1.759-3.889,2.678-5.281,4.636a.74.74,0,0,1-.5.235c-1.167.079-1.8.944-2.538,1.656a9.285,9.285,0,0,1-2.959,2.091,33.141,33.141,0,0,0-4.358,2.585,4.083,4.083,0,0,1-.967.561,16.394,16.394,0,0,0-3.731,1.968c-2.456,1.379-4.884,2.9-7.838,3.081C-239.525,561.231-239.718,561.508-240.438,562.066Zm46.554-133.826.574.148c.412-.708.838-1.407,1.225-2.128.057-.107-.073-.313-.142-.57-.65.3-1.282.592-2,.925C-194.1,427.218-193.992,427.729-193.884,428.239ZM-206.878,558.3c.028-.074.056-.147.084-.222-.067-.017-.166-.067-.193-.042a.272.272,0,0,0-.061.2C-207.046,558.265-206.937,558.282-206.878,558.3Z" transform="translate(353.304 -374.84)" fill-rule="evenodd"/>
          <path id="Path_1101" data-name="Path 1101" d="M-99.859,550.526c-.213,1.161-.407,2.325-.66,3.479-.037.168-.418.44-.527.405-.284-.091-.658-.291-.727-.51a2.362,2.362,0,0,1,.544-2.555c.336-.338.643-.7.964-1.047Z" transform="translate(266.458 -436.239)" fill-rule="evenodd"/>
          <path id="Path_1102" data-name="Path 1102" d="M-98.571,583.535c-.923-1.572-.526-2.531,1.283-3.646C-97.706,581.076-98.078,582.135-98.571,583.535Z" transform="translate(265.359 -446.639)" fill-rule="evenodd"/>
          <path id="Path_1103" data-name="Path 1103" d="M-180.574,642.988c.682-.456.863-.683,1.061-.694,2.794-.149,5.091-1.393,7.414-2.522a16.456,16.456,0,0,1,3.529-1.611,4.043,4.043,0,0,0,.915-.459,32.72,32.72,0,0,1,4.122-2.116,8.885,8.885,0,0,0,2.8-1.712,4.008,4.008,0,0,1,2.4-1.356.748.748,0,0,0,.474-.193c1.317-1.6,3.5-2.356,5-3.8,1.069-1.033,2.226-2,3.365-2.976a8.712,8.712,0,0,1,3.633-2.282,5.034,5.034,0,0,0,1.638-1.147,40.568,40.568,0,0,1,3.6-2.924c.917,1.709.752,3.547,1.737,5.085a12.663,12.663,0,0,0,4.265,3.893c-2.015,1.842-3.832,3.735-6.388,4.95a8.464,8.464,0,0,0-1.561.883,13.928,13.928,0,0,1-5.933,2.522,11.781,11.781,0,0,0-5.277,1.988,3.832,3.832,0,0,1-1.5.457q-8.593,1.837-17.194,3.648a13.809,13.809,0,0,1-2.377.346C-176.551,643.024-178.248,642.988-180.574,642.988Z" transform="translate(296.497 -455.16)" fill="#d6d0c0" fill-rule="evenodd"/>
          <g id="Group_703" data-name="Group 703" transform="translate(20.378 54.045)">
            <path id="Path_1107" data-name="Path 1107" d="M-133.089,500.673c-.154.431-.069.76-.379.951a9.72,9.72,0,0,1-4.826.965c-3.933.053-7.868.126-11.8.194-2.12.036-4.2.242-6.29.382-5.32.355-10.588,1.251-16.054.8a14.049,14.049,0,0,0-4.8.284,3.6,3.6,0,0,1-.936.132c-4.428-.077-8.736.451-13.1.706a93.047,93.047,0,0,0-10.661.743,44.74,44.74,0,0,1-6.342.261c-2.3.049-4.6.1-6.883.058a22.752,22.752,0,0,1-4.238-.382,13.141,13.141,0,0,0-5.648-.023,43.592,43.592,0,0,1-11.089.765c-1.126-.064-2.306.053-3.436,0a14.885,14.885,0,0,0-7.184,1.18,13.953,13.953,0,0,1-5.923.878c-2.533.025-3.848-.671-4.684-1.632-.155-.178.341-.489.623-.846a10.041,10.041,0,0,1,1.429.429,8.227,8.227,0,0,0,6.192.419,38.309,38.309,0,0,1,11.3-1.266,53.25,53.25,0,0,0,11.524-1.025,25.564,25.564,0,0,1,6.761-.41,134.363,134.363,0,0,0,20.476-.31c1.271-.131,2.613-.094,3.922-.116,2.767-.043,5.574.129,8.218-.506a4.1,4.1,0,0,1,.968-.063c6.6.18,12.9-1.013,19.441-1.209,3.536-.106,7.041-.649,10.562-.987.644-.063,1.3-.124,1.95-.132C-147.146,500.825-140.294,500.753-133.089,500.673Z" transform="translate(258.922 -469.108)" fill-rule="evenodd"/>
            <path id="Path_1108" data-name="Path 1108" d="M-123.731,601.019a30.074,30.074,0,0,1-3.115.378,107.7,107.7,0,0,0-14.644.873c-1.08.155-2.284.091-3.423.164a21.829,21.829,0,0,0-2.873.281,63.886,63.886,0,0,1-15.889.964c-1.6-.072-3.259.044-4.888.1-4.418.16-8.831.391-13.249.492a98.182,98.182,0,0,0-19.644,2.035,52.631,52.631,0,0,1-15.833.8,32.283,32.283,0,0,0-7.278-.043c-2.911.257-5.858.409-8.77.663-2.093.183-4.15.469-6.232.69-1.587.17-3.185.39-4.785.43A7.787,7.787,0,0,1-247,608.38c-.518-.193-.922-.648-.826-.956.139-.438,1.2-.587,1.958-.421a17.688,17.688,0,0,0,6.683-.13c1.4-.221,2.895-.312,4.359-.42,3.578-.264,7.154-.547,10.748-.737a53.688,53.688,0,0,1,6.359-.055,53.482,53.482,0,0,0,16.287-1.081,65.8,65.8,0,0,1,7.528-1.111c9.226-1.107,18.666-.744,27.946-1.419a35.115,35.115,0,0,1,4.387.1c4.269.233,8.485.3,12.48-.747a5.684,5.684,0,0,1,.907-.19c6.777-.64,13.51-1.489,20.466-1.3a16.138,16.138,0,0,1,2.8.31C-124.466,600.309-124.258,600.645-123.731,601.019Z" transform="translate(255.273 -515.732)" fill-rule="evenodd"/>
            <path id="Path_1110" data-name="Path 1110" d="M-139.829,441.765c-2.09.245-3.867.483-5.668.659-2.792.272-5.714.207-8.346.916a14.916,14.916,0,0,1-2.977.22c-4.38.146-8.76.3-13.142.395a40.938,40.938,0,0,1-4.992-.16,17.722,17.722,0,0,0-6.815.393,52.58,52.58,0,0,1-14.071,1.549,35.293,35.293,0,0,0-8.389.731,15.253,15.253,0,0,1-2.975.233q-10.106.327-20.215.619a36.618,36.618,0,0,1-7.389-.422,47.124,47.124,0,0,0-14.821.217c-1.94.284-3.858.607-5.824.836a12.49,12.49,0,0,1-2.968.025c-.638-.09-1.377-.487-1.441-.784s.5-.779,1.081-.919a11.216,11.216,0,0,1,2.914-.221,78.083,78.083,0,0,0,8.028-.248,73.4,73.4,0,0,1,13.506.036,41.073,41.073,0,0,0,6.983.179c5.551-.232,11.112-.4,16.668-.6a39.679,39.679,0,0,0,7.417-.664,24.43,24.43,0,0,1,3.973-.291c1.849-.085,3.7-.138,5.557-.193a30.748,30.748,0,0,0,8.155-1.127,29.505,29.505,0,0,1,11.614-1.036,24.592,24.592,0,0,0,3.508.091c6.2-.3,12.418-.249,18.61-.911a92.011,92.011,0,0,1,10.55-.01A6.073,6.073,0,0,1-139.829,441.765Z" transform="translate(259.868 -441.118)" fill-rule="evenodd"/>
            <path id="Path_1111" data-name="Path 1111" d="M-236.6,552.582c-.573.4-1.081.807-1.712,1.171a3.624,3.624,0,0,1-1.509.583c-3.277.14-6.22,1.092-9.585.965-2.287-.085-3.079-.424-3.5-1.5a3.891,3.891,0,0,1-.28-.9c-.018-.139.169-.287.353-.57a6.111,6.111,0,0,1,1.547.305c1.249.893,2.986,1.063,5.119.852,1.133-.112,2.316-.11,3.426-.253a9.378,9.378,0,0,0,2.6-.584c3.162-1.595,7.148-1.6,11.021-1.267a47.644,47.644,0,0,0,5.806.207l6.429-.22c3.131-.107,6.321-.065,9.376-.369a70.994,70.994,0,0,0,8.318-1.442,26.822,26.822,0,0,1,9.116-.343,61.077,61.077,0,0,0,10.244.307c4.437-.226,8.9-.3,13.346-.465,2.772-.106,5.58-.033,8.186-.776a17.338,17.338,0,0,1,3.4-.23,34.364,34.364,0,0,0,7.234-.665,11.776,11.776,0,0,1,2.431-.16c1.975-.045,3.844-.283,5.773-.511,2.831-.335,5.864-.262,8.815-.319a1.3,1.3,0,0,1,.8.473c.076.094-.2.287-.407.392a2.161,2.161,0,0,1-.833.236c-3.949.121-7.755.64-11.612,1.026a32.339,32.339,0,0,0-4.78.551,14.519,14.519,0,0,1-2.874.287,52.784,52.784,0,0,0-8.752.714,15.829,15.829,0,0,1-2.448.132c-7.087.232-14.177.438-21.261.7a25.871,25.871,0,0,1-6.727-.383c-4.559-1.064-8.76-.192-12.593.871a24.721,24.721,0,0,1-6.023.881c-5.275.174-10.548.38-15.825.5-2.114.048-4.234-.116-6.355-.155C-232.121,552.589-233.922,552.6-236.6,552.582Z" transform="translate(257.315 -490.599)" fill-rule="evenodd"/>
          </g>
        </g>
      </g>
      <g id="Ellipse_128" data-name="Ellipse 128" transform="translate(-8187 3015)" fill="#323f51" stroke="#707070" stroke-width="1">
        <circle cx="35" cy="35" r="35" stroke="none"/>
        <circle cx="35" cy="35" r="34.5" fill="none"/>
      </g>
      <g id="Ellipse_129" data-name="Ellipse 129" transform="translate(-8093 3015)" fill="#323f51" stroke="#707070" stroke-width="1">
        <circle cx="35" cy="35" r="35" stroke="none"/>
        <circle cx="35" cy="35" r="34.5" fill="none"/>
      </g>
      <g id="Ellipse_130" data-name="Ellipse 130" transform="translate(-7999 3015)" fill="#323f51" stroke="#707070" stroke-width="1">
        <circle cx="35" cy="35" r="35" stroke="none"/>
        <circle cx="35" cy="35" r="34.5" fill="none"/>
      </g>
    </g>
    <path id="Path_493" data-name="Path 493" d="M1030.968,552.212a67.321,67.321,0,0,1-19.542-12.88c-2.886-2.658-4.184-5.641-1.314-8.848,2.75-3.071,5.56-1.629,8.146.7,20.2,18.2,42.467,19.155,66.176,7.834,1.181-.564,2.391-1.068,3.553-1.663,2.926-1.494,5.732-1.591,7.447,1.575,1.777,3.288.72,6.117-2.6,7.84C1072.956,557.057,1052.513,561,1030.968,552.212Z" transform="matrix(-0.883, 0.469, -0.469, -0.883, 1939.015, 1274.284)" fill="#323f51"/>
    <path id="Path_494" data-name="Path 494" d="M1032.884,500.6c13.752-.157,22.828,8.617,22.583,21.834-.246,13.317-8.378,22.067-20.927,22.533-13.493.5-24.837-9.8-24.7-22.439C1009.974,509.433,1019.089,500.764,1032.884,500.6Z" transform="translate(-360.543 673.146)" fill="#323f51"/>
    <path id="Path_495" data-name="Path 495" d="M1023.323,504.123c5.884-.069,9.77,3.692,9.67,9.349-.107,5.7-3.59,9.449-8.957,9.644-5.784.221-10.64-4.2-10.577-9.606C1013.515,507.9,1017.415,504.192,1023.323,504.123Z" transform="translate(-341.344 691.815)" fill="#e4e4e4" opacity="0.9"/>
    <path id="Path_496" data-name="Path 496" d="M1059.3,500.4c12.51-.032,22.365,10.394,22.258,23.532-.107,13.657-9.065,22.538-22.639,22.455-14.037-.082-21.91-8.311-21.816-22.791C1037.2,510.1,1046.447,500.429,1059.3,500.4Z" transform="translate(-280.977 672.623)" fill="#323f51"/>
    <path id="Path_497" data-name="Path 497" d="M1050.147,504.123c5.922-.07,9.831,3.712,9.725,9.4-.109,5.732-3.606,9.5-9.009,9.7-5.809.222-10.691-4.219-10.635-9.66C1040.286,507.923,1044.207,504.192,1050.147,504.123Z" transform="translate(-264.308 692.491)" fill="#e4e4e4"/>
  </g>
</svg>
