<svg width="1536.436" height="372.23" xmlns="http://www.w3.org/2000/svg"><g data-name="Group 1347"><path fill="#fff" d="M719.313 33.473c431.22-15.108 880.422 7.363 802.58 176.702s-144.54 86.138-892.441 140.268C198.233 365.551 7.808 371.034 4.89 191.578S288.093 48.581 719.313 33.473Z" data-name="Path 717"/><path fill="#323f51" d="M126.815 199.195v15.68h-2.499v-34.667h8.845q6 0 8.967 2.315a8.1 8.1 0 0 1 2.965 6.8 9.314 9.314 0 0 1-.686 3.626 8.5 8.5 0 0 1-1.971 2.877 10.521 10.521 0 0 1-3.1 2.033 13.794 13.794 0 0 1-4.092 1.041 3.969 3.969 0 0 1 1.053.98l11.931 14.995h-2.181a1.439 1.439 0 0 1-.674-.147 1.767 1.767 0 0 1-.551-.49l-11.098-14.063a2.461 2.461 0 0 0-.894-.759 3.736 3.736 0 0 0-1.482-.22Zm0-1.862h6.027a14.27 14.27 0 0 0 4.128-.551 8.888 8.888 0 0 0 3.087-1.58 6.823 6.823 0 0 0 1.923-2.474 7.744 7.744 0 0 0 .661-3.258 6.37 6.37 0 0 0-2.425-5.488q-2.425-1.788-7.056-1.788h-6.345Zm58.261-17.125v2.082h-18.252v14.014h15.19v2.034h-15.19v14.455h18.252v2.082H164.3v-34.667Zm34.741 4.214a.691.691 0 0 1-.637.417 1.41 1.41 0 0 1-.821-.453 10.709 10.709 0 0 0-1.36-1 10.75 10.75 0 0 0-2.144-1.017 9.394 9.394 0 0 0-3.173-.465 9.4 9.4 0 0 0-3.32.539 6.928 6.928 0 0 0-2.4 1.47 6.256 6.256 0 0 0-1.47 2.156 6.716 6.716 0 0 0-.5 2.573 5.258 5.258 0 0 0 .747 2.915 6.735 6.735 0 0 0 1.972 1.96 12.764 12.764 0 0 0 2.779 1.358q1.556.551 3.2 1.09t3.2 1.188a11.528 11.528 0 0 1 2.781 1.629 7.477 7.477 0 0 1 1.972 2.413 7.654 7.654 0 0 1 .747 3.565 11.231 11.231 0 0 1-.747 4.1 9.576 9.576 0 0 1-2.168 3.344 10.18 10.18 0 0 1-3.485 2.242 12.621 12.621 0 0 1-4.7.821 13.293 13.293 0 0 1-5.9-1.213 13.913 13.913 0 0 1-4.337-3.32l.683-1.078a.862.862 0 0 1 .686-.367.981.981 0 0 1 .563.294q.343.294.833.723t1.176.931a9.742 9.742 0 0 0 1.593.931 11.267 11.267 0 0 0 2.082.723 11.044 11.044 0 0 0 2.667.294 10.139 10.139 0 0 0 3.675-.625 8.041 8.041 0 0 0 2.732-1.7 7.218 7.218 0 0 0 1.7-2.56 8.525 8.525 0 0 0 .588-3.173 5.594 5.594 0 0 0-.747-3.026 6.439 6.439 0 0 0-1.972-1.985 12.72 12.72 0 0 0-2.776-1.341q-1.556-.539-3.2-1.053t-3.2-1.147a11.02 11.02 0 0 1-2.781-1.629 7.457 7.457 0 0 1-1.972-2.475 8.208 8.208 0 0 1-.747-3.712 8.783 8.783 0 0 1 .661-3.356 8.348 8.348 0 0 1 1.939-2.856 9.508 9.508 0 0 1 3.148-1.985 11.472 11.472 0 0 1 4.275-.747 12.935 12.935 0 0 1 4.839.858 11.6 11.6 0 0 1 3.908 2.621Zm35.4 0a.691.691 0 0 1-.637.417 1.41 1.41 0 0 1-.821-.453 10.708 10.708 0 0 0-1.36-1 10.75 10.75 0 0 0-2.144-1.017 9.394 9.394 0 0 0-3.173-.465 9.4 9.4 0 0 0-3.32.539 6.928 6.928 0 0 0-2.4 1.47 6.256 6.256 0 0 0-1.47 2.156 6.716 6.716 0 0 0-.5 2.573 5.258 5.258 0 0 0 .747 2.915 6.735 6.735 0 0 0 1.972 1.96 12.764 12.764 0 0 0 2.782 1.358q1.556.551 3.2 1.09t3.2 1.188a11.528 11.528 0 0 1 2.781 1.629 7.477 7.477 0 0 1 1.972 2.413 7.654 7.654 0 0 1 .747 3.565 11.231 11.231 0 0 1-.747 4.1 9.576 9.576 0 0 1-2.168 3.344 10.18 10.18 0 0 1-3.479 2.242 12.621 12.621 0 0 1-4.7.821 13.293 13.293 0 0 1-5.9-1.213 13.913 13.913 0 0 1-4.337-3.32l.686-1.078a.862.862 0 0 1 .686-.367.981.981 0 0 1 .563.294q.343.294.833.723t1.176.931a9.742 9.742 0 0 0 1.593.931 11.267 11.267 0 0 0 2.082.723 11.044 11.044 0 0 0 2.671.294 10.139 10.139 0 0 0 3.675-.625 8.042 8.042 0 0 0 2.732-1.7 7.218 7.218 0 0 0 1.7-2.56 8.525 8.525 0 0 0 .577-3.176 5.6 5.6 0 0 0-.747-3.026 6.439 6.439 0 0 0-1.972-1.985 12.721 12.721 0 0 0-2.781-1.338q-1.556-.539-3.2-1.053t-3.2-1.147a11.02 11.02 0 0 1-2.781-1.629 7.457 7.457 0 0 1-1.972-2.475 8.208 8.208 0 0 1-.747-3.712 8.783 8.783 0 0 1 .661-3.356 8.348 8.348 0 0 1 1.936-2.854 9.508 9.508 0 0 1 3.148-1.985 11.472 11.472 0 0 1 4.275-.747 12.935 12.935 0 0 1 4.839.858 11.6 11.6 0 0 1 3.908 2.621Zm49.563 13.108a21.027 21.027 0 0 1-1.2 7.289 16.148 16.148 0 0 1-3.381 5.586 14.952 14.952 0 0 1-5.219 3.577 17.4 17.4 0 0 1-6.734 1.26 17.272 17.272 0 0 1-6.689-1.262 14.952 14.952 0 0 1-5.221-3.576 16.3 16.3 0 0 1-3.393-5.586 20.835 20.835 0 0 1-1.213-7.289 20.76 20.76 0 0 1 1.213-7.264 16.3 16.3 0 0 1 3.393-5.59 15.092 15.092 0 0 1 5.218-3.589 17.127 17.127 0 0 1 6.689-1.274 17.4 17.4 0 0 1 6.737 1.262 14.874 14.874 0 0 1 5.219 3.589 16.279 16.279 0 0 1 3.381 5.6 20.951 20.951 0 0 1 1.203 7.266Zm-2.6 0a19.78 19.78 0 0 0-1-6.517 14.03 14.03 0 0 0-2.83-4.9 12.135 12.135 0 0 0-4.4-3.075 14.779 14.779 0 0 0-5.704-1.063 14.555 14.555 0 0 0-5.647 1.066 12.393 12.393 0 0 0-4.41 3.075 13.972 13.972 0 0 0-2.867 4.9 19.562 19.562 0 0 0-1.017 6.517 19.534 19.534 0 0 0 1.017 6.529 13.99 13.99 0 0 0 2.867 4.888 12.26 12.26 0 0 0 4.41 3.063 14.7 14.7 0 0 0 5.647 1.053 14.93 14.93 0 0 0 5.708-1.053 12.007 12.007 0 0 0 4.4-3.062 14.047 14.047 0 0 0 2.83-4.888 19.752 19.752 0 0 0 1.002-6.534Zm33.375 15.557a10.974 10.974 0 0 0 4.471-.87 9.585 9.585 0 0 0 3.344-2.413 10.621 10.621 0 0 0 2.095-3.638 13.769 13.769 0 0 0 .723-4.52v-21.438h2.5v21.437a15.512 15.512 0 0 1-.906 5.353 12.8 12.8 0 0 1-2.609 4.336 12.038 12.038 0 0 1-4.141 2.9 13.671 13.671 0 0 1-5.477 1.058 13.671 13.671 0 0 1-5.476-1.054 12.038 12.038 0 0 1-4.141-2.9 12.8 12.8 0 0 1-2.609-4.336 15.512 15.512 0 0 1-.907-5.353v-21.441h2.524v21.413a13.769 13.769 0 0 0 .723 4.52 10.728 10.728 0 0 0 2.083 3.634 9.6 9.6 0 0 0 3.332 2.426 10.842 10.842 0 0 0 4.471.886Zm36.162-13.892v15.68h-2.5v-34.667h8.844q6 0 8.967 2.315a8.1 8.1 0 0 1 2.965 6.8 9.314 9.314 0 0 1-.686 3.626 8.5 8.5 0 0 1-1.972 2.879 10.521 10.521 0 0 1-3.1 2.033 13.794 13.794 0 0 1-4.091 1.041 3.969 3.969 0 0 1 1.053.98l11.933 14.993h-2.18a1.44 1.44 0 0 1-.674-.147 1.767 1.767 0 0 1-.551-.49l-11.099-14.063a2.462 2.462 0 0 0-.894-.759 3.736 3.736 0 0 0-1.482-.22Zm0-1.862h6.027a14.27 14.27 0 0 0 4.128-.551 8.887 8.887 0 0 0 3.087-1.58 6.823 6.823 0 0 0 1.923-2.474 7.744 7.744 0 0 0 .661-3.258 6.37 6.37 0 0 0-2.426-5.488q-2.425-1.788-7.056-1.788h-6.345Zm61.619 11.711a.567.567 0 0 1 .417.172l.98 1.054a16.174 16.174 0 0 1-2.352 2.07 14.64 14.64 0 0 1-2.781 1.568 16.322 16.322 0 0 1-3.307 1 20.479 20.479 0 0 1-3.957.359 16.869 16.869 0 0 1-6.6-1.262 14.663 14.663 0 0 1-5.145-3.577 16.431 16.431 0 0 1-3.344-5.6 21.131 21.131 0 0 1-1.2-7.3 20.144 20.144 0 0 1 1.237-7.2 16.4 16.4 0 0 1 3.479-5.6 15.511 15.511 0 0 1 5.366-3.626 17.947 17.947 0 0 1 6.9-1.286 19.586 19.586 0 0 1 3.454.282 15.847 15.847 0 0 1 2.928.808 13.753 13.753 0 0 1 2.56 1.311 19.71 19.71 0 0 1 2.352 1.813l-.759 1.1a.684.684 0 0 1-.613.294 1.039 1.039 0 0 1-.564-.257q-.343-.257-.87-.637t-1.274-.833a10.327 10.327 0 0 0-1.776-.833 15.052 15.052 0 0 0-2.376-.637 16.433 16.433 0 0 0-3.062-.257 15.1 15.1 0 0 0-5.807 1.09 13.012 13.012 0 0 0-4.557 3.111 14.213 14.213 0 0 0-2.977 4.9 18.489 18.489 0 0 0-1.066 6.456 19.1 19.1 0 0 0 1.053 6.566 14.183 14.183 0 0 0 2.915 4.888 12.641 12.641 0 0 0 4.4 3.063 14.051 14.051 0 0 0 5.5 1.066 20.18 20.18 0 0 0 3.32-.245 13.018 13.018 0 0 0 2.683-.735 12.093 12.093 0 0 0 2.279-1.2 17.227 17.227 0 0 0 2.082-1.666 1.7 1.7 0 0 1 .233-.159.521.521 0 0 1 .249-.061Zm39.86-28.836v2.082h-18.253v14.014h15.193v2.034h-15.19v14.455h18.25v2.082H452.42v-34.667Zm15.778 34.667v-35.7h13.132a24.968 24.968 0 0 1 6.3.686 12 12 0 0 1 4.238 1.936 7.335 7.335 0 0 1 2.389 3.038 10.265 10.265 0 0 1 .747 3.993 7.828 7.828 0 0 1-.344 2.319 6.815 6.815 0 0 1-1.078 2.095 8.049 8.049 0 0 1-1.887 1.776 12.161 12.161 0 0 1-2.768 1.384 9.83 9.83 0 0 1 5.219 2.781 7.2 7.2 0 0 1 1.69 4.937 10.208 10.208 0 0 1-.882 4.238 9.706 9.706 0 0 1-2.587 3.417 12.255 12.255 0 0 1-4.2 2.278 18.272 18.272 0 0 1-5.707.822Zm8.281-15.141v8.893h5.831a7.312 7.312 0 0 0 2.683-.417 4.24 4.24 0 0 0 1.629-1.078 3.616 3.616 0 0 0 .808-1.494 6.579 6.579 0 0 0 .221-1.691 5.642 5.642 0 0 0-.257-1.764 2.917 2.917 0 0 0-.882-1.323 4.31 4.31 0 0 0-1.654-.833 9.637 9.637 0 0 0-2.6-.294Zm0-5.537h4.312a14.209 14.209 0 0 0 2.475-.2 5.145 5.145 0 0 0 1.874-.686 3.149 3.149 0 0 0 1.176-1.347 5.054 5.054 0 0 0 .4-2.156 6.065 6.065 0 0 0-.319-2.119 3.036 3.036 0 0 0-.98-1.36 4.114 4.114 0 0 0-1.678-.735 11.523 11.523 0 0 0-2.413-.22h-4.851Zm41.944 7.472v13.206h-8.281v-35.7h11.618a23.831 23.831 0 0 1 6.6.8 12.4 12.4 0 0 1 4.459 2.217 8.392 8.392 0 0 1 2.511 3.356 11.12 11.12 0 0 1 .784 4.214 11.313 11.313 0 0 1-.466 3.283 9.941 9.941 0 0 1-1.384 2.854 10.712 10.712 0 0 1-2.254 2.34 11.969 11.969 0 0 1-3.075 1.69 7.784 7.784 0 0 1 1.556 1.029 6.123 6.123 0 0 1 1.262 1.494l7.593 12.423h-7.5a3.181 3.181 0 0 1-2.986-1.568l-5.929-10.363a2.5 2.5 0 0 0-.919-.98 3.074 3.074 0 0 0-1.482-.294Zm0-5.708h3.337a8.52 8.52 0 0 0 2.879-.429 5.2 5.2 0 0 0 1.948-1.188 4.525 4.525 0 0 0 1.1-1.776 6.817 6.817 0 0 0 .343-2.193 4.6 4.6 0 0 0-1.531-3.675 7.128 7.128 0 0 0-4.739-1.325h-3.332Zm68.11 1.054a19.185 19.185 0 0 1-1.335 7.2 17.361 17.361 0 0 1-3.761 5.794 17.246 17.246 0 0 1-5.843 3.866 19.871 19.871 0 0 1-7.583 1.4 21.35 21.35 0 0 1-4.361-.429 19.537 19.537 0 0 1-3.9-1.237l-1.39 1.928a4.424 4.424 0 0 1-.956.992 5.226 5.226 0 0 1-1.127.649 5.735 5.735 0 0 1-1.213.355 6.975 6.975 0 0 1-1.213.11h-3.234l4.875-6.762a17.056 17.056 0 0 1-4.471-6.052 19.014 19.014 0 0 1-1.58-7.815 19.185 19.185 0 0 1 1.335-7.2 17.134 17.134 0 0 1 3.773-5.782 17.444 17.444 0 0 1 5.868-3.847 19.964 19.964 0 0 1 7.6-1.4 20.866 20.866 0 0 1 4.839.539 18.487 18.487 0 0 1 4.251 1.568l1-1.4a11.331 11.331 0 0 1 .723-.907 3.373 3.373 0 0 1 .7-.6 2.507 2.507 0 0 1 .833-.331 5.559 5.559 0 0 1 1.127-.1h4.214l-4.508 6.247a17.174 17.174 0 0 1 3.957 5.88 19.147 19.147 0 0 1 1.38 7.334Zm-28.616 0a12.934 12.934 0 0 0 2.058 7.619l12.911-17.91a9.352 9.352 0 0 0-2.254-.821 11.675 11.675 0 0 0-2.622-.282 10.994 10.994 0 0 0-4.275.784 8.484 8.484 0 0 0-3.16 2.254 10.092 10.092 0 0 0-1.972 3.589 15.434 15.434 0 0 0-.686 4.767Zm20.139 0a16.258 16.258 0 0 0-.396-3.675 11.95 11.95 0 0 0-1.127-3.038l-12.54 17.419a10.9 10.9 0 0 0 4.018.686 10.987 10.987 0 0 0 4.239-.772 8.385 8.385 0 0 0 3.148-2.242 10.092 10.092 0 0 0 1.972-3.589 15.521 15.521 0 0 0 .69-4.789Zm30.527-3.381h1.323a3 3 0 0 0 2.646-1.152l8.036-11.662a3.446 3.446 0 0 1 1.507-1.3 5.517 5.517 0 0 1 2.07-.343h7.2l-10.581 14.432a7.076 7.076 0 0 1-1.176 1.3 7.409 7.409 0 0 1-1.25.858 6.306 6.306 0 0 1 1.7.943 6.228 6.228 0 0 1 1.409 1.6l10.783 16.565h-7.4a6.437 6.437 0 0 1-1.213-.1 3.108 3.108 0 0 1-.87-.294 2.5 2.5 0 0 1-.637-.478 4.747 4.747 0 0 1-.515-.649l-8.085-12.422a2.435 2.435 0 0 0-1.115-.968 4.834 4.834 0 0 0-1.825-.282h-2.009v15.193h-8.281v-35.7h8.281Z" data-name="PLANCHE D’AMBIANCE"/><path fill="#e79e17" d="M917.283 139.287v11.588h-7.267v-31.326h10.191a20.913 20.913 0 0 1 5.794.7 10.878 10.878 0 0 1 3.913 1.946 7.364 7.364 0 0 1 2.2 2.945 9.758 9.758 0 0 1 .688 3.7 9.927 9.927 0 0 1-.408 2.881 8.724 8.724 0 0 1-1.215 2.5 9.4 9.4 0 0 1-1.974 2.054 10.5 10.5 0 0 1-2.7 1.483 6.831 6.831 0 0 1 1.365.9 5.373 5.373 0 0 1 1.109 1.317l6.665 10.9h-6.579a2.791 2.791 0 0 1-2.623-1.376l-5.206-9.094a2.19 2.19 0 0 0-.806-.86 2.7 2.7 0 0 0-1.3-.258Zm0-5.01h2.924a7.477 7.477 0 0 0 2.526-.376 4.565 4.565 0 0 0 1.709-1.043 3.971 3.971 0 0 0 .968-1.559 5.983 5.983 0 0 0 .3-1.924 4.035 4.035 0 0 0-1.344-3.225 6.255 6.255 0 0 0-4.16-1.161h-2.923Zm50.1-14.728v5.59h-12.862v7.31h9.847v5.375h-9.847v7.461h12.857v5.59h-20.167v-31.326Zm30.186 6.364a2.729 2.729 0 0 1-.677.774 1.515 1.515 0 0 1-.914.258 2.235 2.235 0 0 1-1.064-.312q-.57-.312-1.29-.7a10.705 10.705 0 0 0-1.645-.7 6.58 6.58 0 0 0-2.107-.312 4.534 4.534 0 0 0-3.042.871 2.963 2.963 0 0 0-1 2.354 2.169 2.169 0 0 0 .6 1.569 5.19 5.19 0 0 0 1.58 1.075 16.939 16.939 0 0 0 2.236.828q1.258.376 2.569.838a22.977 22.977 0 0 1 2.569 1.086 8.568 8.568 0 0 1 2.236 1.591 7.426 7.426 0 0 1 1.58 2.354 8.371 8.371 0 0 1 .6 3.343 10.894 10.894 0 0 1-.753 4.064 9.514 9.514 0 0 1-2.182 3.3 10.129 10.129 0 0 1-3.529 2.219 13.192 13.192 0 0 1-4.762.806 15.264 15.264 0 0 1-2.978-.3 17.684 17.684 0 0 1-2.935-.849 17.018 17.018 0 0 1-2.666-1.3 11.328 11.328 0 0 1-2.172-1.677l2.15-3.4a1.75 1.75 0 0 1 .667-.624 1.888 1.888 0 0 1 .924-.237 2.447 2.447 0 0 1 1.3.409q.656.408 1.483.9a12.073 12.073 0 0 0 1.9.9 7.134 7.134 0 0 0 2.537.408 4.83 4.83 0 0 0 3.075-.871 3.315 3.315 0 0 0 1.1-2.763 2.611 2.611 0 0 0-.6-1.785 4.651 4.651 0 0 0-1.58-1.139 14.56 14.56 0 0 0-2.225-.8q-1.247-.344-2.559-.763a18.718 18.718 0 0 1-2.559-1.019 8.075 8.075 0 0 1-2.225-1.612 7.546 7.546 0 0 1-1.58-2.494 9.9 9.9 0 0 1-.6-3.687 8.749 8.749 0 0 1 .71-3.44 8.88 8.88 0 0 1 2.086-2.988 10.254 10.254 0 0 1 3.375-2.1 12.467 12.467 0 0 1 4.579-.785 17.173 17.173 0 0 1 2.806.226 14.749 14.749 0 0 1 2.591.667 14.227 14.227 0 0 1 2.29 1.053 10.557 10.557 0 0 1 1.9 1.387Zm31.906 0a2.729 2.729 0 0 1-.677.774 1.515 1.515 0 0 1-.914.258 2.235 2.235 0 0 1-1.064-.312q-.57-.312-1.29-.7a10.705 10.705 0 0 0-1.645-.7 6.58 6.58 0 0 0-2.107-.312 4.534 4.534 0 0 0-3.042.871 2.963 2.963 0 0 0-1 2.354 2.169 2.169 0 0 0 .6 1.569 5.19 5.19 0 0 0 1.58 1.075 16.939 16.939 0 0 0 2.236.828q1.258.376 2.569.838a22.977 22.977 0 0 1 2.569 1.086 8.568 8.568 0 0 1 2.236 1.591 7.425 7.425 0 0 1 1.58 2.354 8.371 8.371 0 0 1 .6 3.343 10.894 10.894 0 0 1-.753 4.064 9.514 9.514 0 0 1-2.182 3.3 10.129 10.129 0 0 1-3.526 2.214 13.192 13.192 0 0 1-4.762.806 15.264 15.264 0 0 1-2.978-.3 17.684 17.684 0 0 1-2.935-.849 17.018 17.018 0 0 1-2.666-1.3 11.328 11.328 0 0 1-2.168-1.674l2.15-3.4a1.75 1.75 0 0 1 .667-.624 1.888 1.888 0 0 1 .924-.237 2.447 2.447 0 0 1 1.3.409q.656.408 1.483.9a12.073 12.073 0 0 0 1.9.9 7.134 7.134 0 0 0 2.537.408 4.83 4.83 0 0 0 3.075-.871 3.315 3.315 0 0 0 1.1-2.763 2.611 2.611 0 0 0-.6-1.785 4.651 4.651 0 0 0-1.58-1.139 14.56 14.56 0 0 0-2.225-.8q-1.247-.344-2.559-.763a18.718 18.718 0 0 1-2.559-1.032 8.075 8.075 0 0 1-2.225-1.612 7.546 7.546 0 0 1-1.58-2.494 9.9 9.9 0 0 1-.6-3.687 8.749 8.749 0 0 1 .71-3.44 8.88 8.88 0 0 1 2.086-2.988 10.254 10.254 0 0 1 3.375-2.1 12.467 12.467 0 0 1 4.579-.785 17.173 17.173 0 0 1 2.806.226 14.749 14.749 0 0 1 2.591.667 14.227 14.227 0 0 1 2.29 1.053 10.557 10.557 0 0 1 1.9 1.387Zm45.361 9.289a16.836 16.836 0 0 1-1.172 6.321 15.235 15.235 0 0 1-3.3 5.085 15.134 15.134 0 0 1-5.128 3.385 17.438 17.438 0 0 1-6.655 1.226 17.519 17.519 0 0 1-6.665-1.226 15.227 15.227 0 0 1-5.149-3.386 15.152 15.152 0 0 1-3.311-5.085 16.835 16.835 0 0 1-1.172-6.321 16.835 16.835 0 0 1 1.172-6.321 15.036 15.036 0 0 1 3.311-5.074 15.308 15.308 0 0 1 5.149-3.376 17.519 17.519 0 0 1 6.665-1.226 17.3 17.3 0 0 1 6.654 1.236 15.348 15.348 0 0 1 5.128 3.386 15.117 15.117 0 0 1 3.3 5.074 16.777 16.777 0 0 1 1.173 6.302Zm-7.439 0a13.544 13.544 0 0 0-.6-4.182 8.856 8.856 0 0 0-1.731-3.15 7.464 7.464 0 0 0-2.763-1.978 9.508 9.508 0 0 0-3.719-.688 9.648 9.648 0 0 0-3.752.688 7.445 7.445 0 0 0-2.774 1.978 8.857 8.857 0 0 0-1.731 3.15 13.544 13.544 0 0 0-.6 4.182 13.62 13.62 0 0 0 .6 4.2 8.857 8.857 0 0 0 1.731 3.15 7.341 7.341 0 0 0 2.774 1.967 9.783 9.783 0 0 0 3.752.677 9.641 9.641 0 0 0 3.719-.677 7.359 7.359 0 0 0 2.763-1.967 8.856 8.856 0 0 0 1.731-3.15 13.62 13.62 0 0 0 .599-4.2Zm32.55 9.933a6.684 6.684 0 0 0 2.612-.484 5.283 5.283 0 0 0 1.946-1.387 6.129 6.129 0 0 0 1.215-2.2 9.624 9.624 0 0 0 .419-2.956v-18.559h7.267v18.555a14.491 14.491 0 0 1-.935 5.289 11.864 11.864 0 0 1-2.677 4.149 12.079 12.079 0 0 1-4.235 2.709 15.413 15.413 0 0 1-5.612.968 15.476 15.476 0 0 1-5.633-.968 12.079 12.079 0 0 1-4.236-2.709 11.739 11.739 0 0 1-2.666-4.149 14.641 14.641 0 0 1-.924-5.289v-18.555h7.267v18.533a9.624 9.624 0 0 0 .419 2.956 6.24 6.24 0 0 0 1.215 2.215 5.228 5.228 0 0 0 1.946 1.4 6.684 6.684 0 0 0 2.612.482Zm34.056-5.848v11.588h-7.267v-31.326h10.191a20.913 20.913 0 0 1 5.794.7 10.879 10.879 0 0 1 3.913 1.946 7.364 7.364 0 0 1 2.2 2.945 9.758 9.758 0 0 1 .688 3.7 9.928 9.928 0 0 1-.408 2.881 8.724 8.724 0 0 1-1.215 2.5 9.4 9.4 0 0 1-1.978 2.053 10.5 10.5 0 0 1-2.7 1.483 6.831 6.831 0 0 1 1.365.9 5.373 5.373 0 0 1 1.107 1.312l6.671 10.906h-6.579a2.791 2.791 0 0 1-2.623-1.376l-5.2-9.094a2.19 2.19 0 0 0-.806-.86 2.7 2.7 0 0 0-1.3-.258Zm0-5.01h2.924a7.477 7.477 0 0 0 2.526-.376 4.565 4.565 0 0 0 1.709-1.043 3.971 3.971 0 0 0 .967-1.559 5.983 5.983 0 0 0 .3-1.924 4.035 4.035 0 0 0-1.344-3.225 6.255 6.255 0 0 0-4.16-1.161h-2.924Zm49.9 8.492a1.461 1.461 0 0 1 .516.1 1.4 1.4 0 0 1 .495.333l2.881 3.031a11.96 11.96 0 0 1-4.741 3.73 16.589 16.589 0 0 1-6.74 1.258 16.057 16.057 0 0 1-6.4-1.215 13.842 13.842 0 0 1-4.795-3.354 14.77 14.77 0 0 1-3.016-5.077 18.736 18.736 0 0 1-1.053-6.375 16.807 16.807 0 0 1 1.2-6.439 15.019 15.019 0 0 1 3.365-5.063 15.177 15.177 0 0 1 5.171-3.311 18.022 18.022 0 0 1 6.65-1.182 16.922 16.922 0 0 1 3.322.312 16.235 16.235 0 0 1 2.913.86 13.706 13.706 0 0 1 2.494 1.312 12.021 12.021 0 0 1 2.021 1.688l-2.45 3.289a3.12 3.12 0 0 1-.559.548 1.455 1.455 0 0 1-.9.247 1.613 1.613 0 0 1-.731-.172 8.079 8.079 0 0 1-.731-.419q-.387-.247-.849-.537a6.517 6.517 0 0 0-1.1-.538 9.062 9.062 0 0 0-1.483-.419 10.123 10.123 0 0 0-1.989-.172 9.094 9.094 0 0 0-3.612.7 7.919 7.919 0 0 0-2.806 2 9.273 9.273 0 0 0-1.828 3.15 12.356 12.356 0 0 0-.656 4.15 12.9 12.9 0 0 0 .656 4.278 9.4 9.4 0 0 0 1.785 3.15 7.572 7.572 0 0 0 2.63 1.943 7.874 7.874 0 0 0 3.225.667 15.437 15.437 0 0 0 1.806-.1 7.453 7.453 0 0 0 1.516-.333 7.01 7.01 0 0 0 1.333-.613 8.9 8.9 0 0 0 1.279-.935 2.542 2.542 0 0 1 .559-.355 1.465 1.465 0 0 1 .624-.137Zm35.97-23.22v5.59h-12.856v7.31h9.847v5.375h-9.847v7.461h12.857v5.59h-20.167v-31.326Zm19.995 19.737v11.589h-7.267v-31.326h10.191a20.913 20.913 0 0 1 5.794.7 10.878 10.878 0 0 1 3.913 1.946 7.365 7.365 0 0 1 2.2 2.945 9.759 9.759 0 0 1 .688 3.7 9.927 9.927 0 0 1-.409 2.881 8.723 8.723 0 0 1-1.215 2.5 9.4 9.4 0 0 1-1.978 2.053 10.5 10.5 0 0 1-2.7 1.483 6.83 6.83 0 0 1 1.365.9 5.374 5.374 0 0 1 1.107 1.312l6.673 10.906h-6.579a2.791 2.791 0 0 1-2.623-1.376l-5.2-9.094a2.191 2.191 0 0 0-.806-.86 2.7 2.7 0 0 0-1.3-.258Zm0-5.01h2.924a7.477 7.477 0 0 0 2.526-.376 4.565 4.565 0 0 0 1.709-1.043 3.971 3.971 0 0 0 .967-1.559 5.983 5.983 0 0 0 .3-1.924 4.035 4.035 0 0 0-1.344-3.225 6.255 6.255 0 0 0-4.16-1.161h-2.924Z" data-name="PLANCHE D’AMBIANCE"/><path fill="#903" d="M911.596 252.875v-26.226h9.648a18.344 18.344 0 0 1 4.626.5 8.813 8.813 0 0 1 3.114 1.426 5.389 5.389 0 0 1 1.752 2.232 7.542 7.542 0 0 1 .549 2.934 5.751 5.751 0 0 1-.252 1.7 5.007 5.007 0 0 1-.792 1.539 5.914 5.914 0 0 1-1.386 1.3 8.935 8.935 0 0 1-2.034 1.017 7.222 7.222 0 0 1 3.834 2.043 5.292 5.292 0 0 1 1.245 3.635 7.5 7.5 0 0 1-.648 3.114 7.131 7.131 0 0 1-1.9 2.511 9 9 0 0 1-3.086 1.675 13.425 13.425 0 0 1-4.194.6Zm6.084-11.124v6.534h4.284a5.372 5.372 0 0 0 1.972-.31 3.115 3.115 0 0 0 1.2-.792 2.657 2.657 0 0 0 .594-1.1 4.834 4.834 0 0 0 .162-1.242 4.145 4.145 0 0 0-.189-1.3 2.143 2.143 0 0 0-.648-.972 3.166 3.166 0 0 0-1.215-.612 7.08 7.08 0 0 0-1.908-.216Zm0-4.068h3.168a10.439 10.439 0 0 0 1.818-.144 3.78 3.78 0 0 0 1.377-.5 2.314 2.314 0 0 0 .864-.99 3.713 3.713 0 0 0 .3-1.584 4.456 4.456 0 0 0-.234-1.557 2.231 2.231 0 0 0-.72-1 3.023 3.023 0 0 0-1.233-.54 8.466 8.466 0 0 0-1.773-.162h-3.567Zm41.616-11.034v4.68h-10.76v6.12h8.24v4.5h-8.24v6.246h10.76v4.68h-16.884v-26.226Zm16.74 21.366h9.72v4.86h-15.8v-26.226h6.08Zm44.208 4.86h-4.716a2.18 2.18 0 0 1-1.3-.369 1.906 1.906 0 0 1-.711-.945l-1.548-4.572h-9.977l-1.548 4.572a2.027 2.027 0 0 1-.7.909 2.022 2.022 0 0 1-1.28.405h-4.752l10.152-26.226h6.228Zm-16.848-10.026h7.164l-2.412-7.182-.549-1.611q-.315-.927-.621-2.007-.288 1.1-.594 2.034t-.576 1.62Zm40.788-10.874a2.285 2.285 0 0 1-.567.648 1.269 1.269 0 0 1-.765.216 1.871 1.871 0 0 1-.891-.261q-.477-.261-1.08-.585a8.963 8.963 0 0 0-1.377-.585 5.509 5.509 0 0 0-1.764-.261 3.8 3.8 0 0 0-2.547.729 2.48 2.48 0 0 0-.837 1.971 1.816 1.816 0 0 0 .5 1.314 4.345 4.345 0 0 0 1.323.9 14.181 14.181 0 0 0 1.872.693q1.053.315 2.151.7a19.238 19.238 0 0 1 2.151.909 7.173 7.173 0 0 1 1.872 1.332 6.217 6.217 0 0 1 1.323 1.971 7.008 7.008 0 0 1 .5 2.8 9.12 9.12 0 0 1-.63 3.4 7.965 7.965 0 0 1-1.827 2.763 8.48 8.48 0 0 1-2.952 1.854 11.044 11.044 0 0 1-3.987.675 12.779 12.779 0 0 1-2.493-.252 14.805 14.805 0 0 1-2.457-.711 14.248 14.248 0 0 1-2.232-1.089 9.484 9.484 0 0 1-1.818-1.4l1.8-2.844a1.465 1.465 0 0 1 .558-.522 1.581 1.581 0 0 1 .774-.2 2.049 2.049 0 0 1 1.089.342q.549.342 1.242.756a10.108 10.108 0 0 0 1.593.756 5.973 5.973 0 0 0 2.124.342 4.044 4.044 0 0 0 2.574-.729 2.776 2.776 0 0 0 .918-2.313 2.186 2.186 0 0 0-.5-1.494 3.894 3.894 0 0 0-1.323-.954 12.19 12.19 0 0 0-1.863-.666q-1.044-.288-2.142-.639a15.671 15.671 0 0 1-2.142-.864 6.76 6.76 0 0 1-1.863-1.35 6.317 6.317 0 0 1-1.323-2.088 8.291 8.291 0 0 1-.5-3.087 7.325 7.325 0 0 1 .594-2.88 7.434 7.434 0 0 1 1.746-2.5 8.585 8.585 0 0 1 2.826-1.755 10.437 10.437 0 0 1 3.834-.657 14.377 14.377 0 0 1 2.349.189 12.348 12.348 0 0 1 2.169.558 11.91 11.91 0 0 1 1.917.882 8.838 8.838 0 0 1 1.593 1.161Zm31.14-5.328v4.828h-7.38v21.4h-6.084v-21.4h-7.38v-4.824Zm12.924 0a5.164 5.164 0 0 1 .666.036 1.7 1.7 0 0 1 .486.135 1.622 1.622 0 0 1 .414.279 4.73 4.73 0 0 1 .45.486l12.456 15.752q-.072-.756-.108-1.467t-.036-1.341v-13.878h5.36v26.226h-3.168a2.919 2.919 0 0 1-1.188-.216 2.542 2.542 0 0 1-.936-.792l-12.362-15.624q.054.684.09 1.341t.036 1.233v14.058h-5.364v-26.226Zm37.872 26.228H1120v-26.226h6.12Zm15.264-26.226a5.164 5.164 0 0 1 .666.036 1.7 1.7 0 0 1 .486.135 1.622 1.622 0 0 1 .414.279 4.73 4.73 0 0 1 .45.486l12.456 15.75q-.072-.756-.108-1.467t-.036-1.341v-13.878h5.364v26.226h-3.168a2.919 2.919 0 0 1-1.188-.216 2.542 2.542 0 0 1-.936-.792l-12.366-15.624q.054.684.09 1.341t.036 1.233v14.058h-5.364v-26.226Zm43.56 21.834a10.352 10.352 0 0 0 2.232-.216 10.926 10.926 0 0 0 1.836-.576v-3.978h-2.592a1.259 1.259 0 0 1-.9-.306 1.019 1.019 0 0 1-.324-.774v-3.348h9.324v11.07a13.743 13.743 0 0 1-2.1 1.269 13.545 13.545 0 0 1-2.322.873 17.287 17.287 0 0 1-2.628.5 26.038 26.038 0 0 1-3 .162 13.75 13.75 0 0 1-5.328-1.017 12.948 12.948 0 0 1-4.239-2.808 12.924 12.924 0 0 1-2.808-4.248 13.817 13.817 0 0 1-1.017-5.337 14.53 14.53 0 0 1 .972-5.391 12.142 12.142 0 0 1 2.781-4.239 12.617 12.617 0 0 1 4.374-2.772 15.811 15.811 0 0 1 5.733-.99 16.7 16.7 0 0 1 3.078.27 15.144 15.144 0 0 1 2.655.738 12.218 12.218 0 0 1 2.223 1.116 11.974 11.974 0 0 1 1.8 1.4l-1.758 2.694a1.96 1.96 0 0 1-.6.594 1.432 1.432 0 0 1-.765.216 2.107 2.107 0 0 1-1.116-.36q-.72-.432-1.359-.747a8.292 8.292 0 0 0-1.305-.513 8.552 8.552 0 0 0-1.4-.288 13.777 13.777 0 0 0-1.656-.09 7.554 7.554 0 0 0-3.078.6 6.6 6.6 0 0 0-2.331 1.7 7.693 7.693 0 0 0-1.485 2.637 10.63 10.63 0 0 0-.522 3.429 11.037 11.037 0 0 0 .576 3.708 7.967 7.967 0 0 0 1.593 2.736 6.764 6.764 0 0 0 2.412 1.7 7.811 7.811 0 0 0 3.044.586Zm37.368-21.834v4.68h-10.764v6.12h8.244v4.5h-8.244v6.246h10.764v4.68h-16.884v-26.226Zm16.74 16.526v9.7h-6.084v-26.226h8.532a17.509 17.509 0 0 1 4.851.585 9.108 9.108 0 0 1 3.276 1.629 6.166 6.166 0 0 1 1.845 2.466 8.17 8.17 0 0 1 .576 3.1 8.311 8.311 0 0 1-.342 2.412 7.3 7.3 0 0 1-1.017 2.1 7.871 7.871 0 0 1-1.656 1.719 8.794 8.794 0 0 1-2.259 1.242 5.719 5.719 0 0 1 1.143.756 4.5 4.5 0 0 1 .927 1.1l5.58 9.117h-5.508a2.337 2.337 0 0 1-2.2-1.152l-4.356-7.614a1.834 1.834 0 0 0-.675-.72 2.259 2.259 0 0 0-1.089-.216Zm0-4.194h2.448a6.26 6.26 0 0 0 2.115-.315 3.822 3.822 0 0 0 1.431-.873 3.325 3.325 0 0 0 .81-1.305 5.009 5.009 0 0 0 .252-1.613 3.378 3.378 0 0 0-1.125-2.7 5.237 5.237 0 0 0-3.483-.972h-2.448Z" data-name="PLANCHE D’AMBIANCE"/><path fill="#323f51" d="M727.17 201.854h71.435v17.427H727.17Zm0-28.81h71.435v17.506H727.17Z" data-name="PLANCHE D’AMBIANCE"/><path fill="none" stroke="#323f51" stroke-width="3" d="M854.34 188.776h464.609" data-name="Path 1809"/><path fill="none" stroke="#323f51" stroke-width="5" d="M111.425 264.069s305.908-23.936 486.623-9.385c24.174 1.945 46.382 4.996 65.392 9.384" data-name="Path 731"/></g></svg>