<svg width="2510.524" height="2510.524" xmlns="http://www.w3.org/2000/svg"><g data-name="Group 953"><path fill="#fff" d="m1897.135 1818.318-78.816 78.816C1479.553 2235.9 602.465 1908.06 602.465 1908.06s-327.84-877.089 10.926-1215.854l78.815-78.816c338.767-338.766 883.124-343.657 1215.855-10.926s327.84 877.088-10.926 1215.854Z" data-name="Path 1407"/><g data-name="Group 950"><path fill="#ada699" d="M702.467 1439.681v424h-35v-424z" data-name="Rectangle 409"/><path fill="rgba(173,166,153,0.47)" d="M1750.555 1967.181H555.967l146.276-111.776h1165.182Z" data-name="Path 1408"/><path fill="none" stroke="#323f51" stroke-linecap="round" stroke-linejoin="round" stroke-width="10" d="M944.411 1673.095c-1.169 93.671-2.331 156.731-3.5 250.409a493.833 493.833 0 0 1-96.189 1.8" data-name="Path 1390"/><path fill="none" stroke="#323f51" stroke-linecap="round" stroke-linejoin="round" stroke-width="10" d="M1141.999 1685.41c-4.374 89.852-4.5 150.2-.38 240.059a229.483 229.483 0 0 1 96.7 1.37" data-name="Path 1387"/><path fill="#7ec8d6" stroke="#323f51" stroke-miterlimit="10" stroke-width="10" d="M945.153 794.794c-74.514 41.309-119.685 120.489-151.696 199.449a1090.8 1090.8 0 0 0-77.62 473.284c1.865 30.991 5.3 62.765 19.552 90.35 18.089 35.016 51.756 59.495 87.044 77.053 66.976 33.323 142.487 45.932 217.187 49.948 63.5 3.414 128.729.638 187.988-22.442s112.147-69.185 130.645-130.033c10.952-36.012 9.425-74.471 7.8-112.076q-2.4-55.525-4.806-111.05c-4.289-99.115-8.9-199.98-42.2-293.436s-100.254-180.1-194.068-212.369c-29.867-10.278-66.266-34.535-97.43-29.4-67.686 11.146-35.546 4.024-82.4 20.721" data-name="Path 1388"/><path fill="#fff" stroke="#323f51" stroke-width="5" d="M742.31 801.03c-5.592 3.46-8.016 6.94-10.721 12.974a13.509 13.509 0 0 0-1.428 5.813 18.879 18.879 0 0 0 1.449 5.713 97.168 97.168 0 0 0 4.214 11.144c1.79 3.55 4.375 6.879 7.905 8.7 4.164 2.152 13.477 1.307 17.892-.05 6.185-1.891 7.282-.292 11.576-5.109 2.162-2.414 4.154-6.718 5.411-9.715s1.7-9.685 1.056-12.914c-1-4.978-9.333-15.81-16.273-18.817-9.1-3.932-11.858-.644-21.362 1.438" data-name="Path 1393"/><path fill="none" stroke="#323f51" stroke-linecap="round" stroke-miterlimit="10" stroke-width="5" d="M742.31 801.03c-5.592 3.46-8.016 6.94-10.721 12.974a13.509 13.509 0 0 0-1.428 5.813 18.879 18.879 0 0 0 1.449 5.713 97.168 97.168 0 0 0 4.214 11.144c1.79 3.55 4.375 6.879 7.905 8.7 4.164 2.152 13.477 1.307 17.892-.05 6.185-1.891 7.282-.292 11.576-5.109 2.162-2.414 4.154-6.718 5.411-9.715s1.7-9.685 1.056-12.914c-1-4.978-9.333-15.81-16.273-18.817-9.1-3.932-11.858-.644-21.362 1.438" data-name="Path 1394"/><path fill="#fff" stroke="#323f51" stroke-width="10" d="M659.217 669.348c-11.747 7.171-16.736 14.553-22.2 27.417-1.649 3.9-2.967 8.1-2.736 12.471.231 4.234 1.891 8.338 3.4 12.391 3.047 8.157 5.6 16.5 9.615 24.279s9.715 15.076 17.339 19.2c9 4.878 28.865 3.55 38.188.865 13.125-3.762 15.529-.241 24.46-10.4 4.476-5.1 8.488-14.292 11.023-20.688s3.088-20.809 1.549-27.819c-2.394-10.792-20.779-34.608-35.764-41.467-19.642-8.981-25.345-2.032-45.53 1.951" data-name="Path 1395"/><path fill="none" stroke="#323f51" stroke-linecap="round" stroke-miterlimit="10" stroke-width="10" d="M659.217 669.348c-11.747 7.171-16.736 14.553-22.2 27.417-1.649 3.9-2.967 8.1-2.736 12.471.231 4.234 1.891 8.338 3.4 12.391 3.047 8.157 5.6 16.5 9.615 24.279s9.715 15.076 17.339 19.2c9 4.878 28.865 3.55 38.188.865 13.125-3.762 15.529-.241 24.46-10.4 4.476-5.1 8.488-14.292 11.023-20.688s3.088-20.809 1.549-27.819c-2.394-10.792-20.779-34.608-35.764-41.467-19.642-8.981-25.345-2.032-45.53 1.951" data-name="Path 1396"/><path fill="#fff" stroke="#323f51" stroke-width="10" d="M626.682 455.778c12.039 110.159 88.023 195.456 197.528 214.073 67.516 11.476 157.046 15.237 221.917-9.639 65.9-25.254 104.6-83.869 127.759-147.945 21.251-58.776 50.83-131.6 23.384-192.731-36.026-80.234-118.788-144.984-204.99-162.715-57.408-11.809-214.124 23.846-281.337 79.745-88.073 73.269-67.606 114.946-94.439 218.488" data-name="Path 1397"/><path fill="none" stroke="#323f51" stroke-linecap="round" stroke-miterlimit="10" stroke-width="10" d="M626.682 455.778c12.039 110.159 88.023 195.456 197.528 214.073 67.516 11.476 157.046 15.237 221.917-9.639 65.9-25.254 104.6-83.869 127.759-147.945 21.251-58.776 50.83-131.6 23.384-192.731-36.026-80.234-118.788-144.984-204.99-162.715-57.408-11.809-214.124 23.846-281.337 79.745-88.073 73.269-67.606 114.946-94.439 218.488" data-name="Path 1398"/><path fill="none" stroke="#353f4f" stroke-linecap="round" stroke-miterlimit="10" stroke-width="5" d="M1096.546 955.782c16.711 3.5 29.235 12.385 41.669 23.79" data-name="Path 1402"/><path fill="none" stroke="#353f4f" stroke-linecap="round" stroke-miterlimit="10" stroke-width="5" d="M995.012 955.782c-16.711 3.5-29.221 12.385-41.67 23.79" data-name="Path 1403"/><path fill="#c7bdaa" d="M1802.467 1463.681v501h-35v-501z" data-name="Rectangle 406"/><path fill="#c7bdaa" d="M589.467 1713.681v251h-35v-251z" data-name="Rectangle 408"/><path fill="#ada699" d="M1864.467 1439.681v424h-35v-424z" data-name="Rectangle 407"/><path fill="#c7bdaa" d="M663.24 1439.025h1200.469l-61.742 275.156h-1248Z" data-name="Path 1406"/><path fill="none" stroke="#323f51" stroke-linecap="round" stroke-linejoin="round" stroke-width="10" d="M1349.092 1168.12c52.681 32.986 87.28 71.967 115.059 127.575 14.223 28.467 24.343 62.543 11.354 91.591-9.023 20.176-27.844 34.37-47.661 44.146-73.359 36.213-162.311 21.84-239.241 49.669" data-name="Path 1391"/><path fill="none" stroke="#323f51" stroke-linecap="round" stroke-linejoin="round" stroke-width="10" d="M732.261 1170.513c-65.211 15.349-115.676 79-115.74 146-.014 15.866 2.6 31.989 9.784 46.14 13.346 26.272 40.315 42.346 66.107 56.612 91.85 50.773 249.126-262.788 345.974-222.347" data-name="Path 1389"/><g data-name="Group 949"><g data-name="Group 704"><path fill="#fff6d5" d="M1130.547 1667.353a4.382 4.382 0 0 0 .956-1.028 53.282 53.282 0 0 1 8.634-8.48c.98-.734 1.896-1.553 2.822-2.354a7.289 7.289 0 0 0 1.411-1.375 25.009 25.009 0 0 1 4.968-4.988c.925-.799 1.749-1.715 2.624-2.57 1.21-1.185 2.396-2.392 3.644-3.534 3.745-3.424 8.12-6.153 11.258-10.246a1.1 1.1 0 0 1 .208-.191 54.037 54.037 0 0 0 6.34-6.032 32.523 32.523 0 0 0 3.46-3.707 6.933 6.933 0 0 1 1.398-1.39 26.112 26.112 0 0 0 5.375-5.379 4.3 4.3 0 0 1 .59-.607c2.684-2.635 5.45-5.193 8.027-7.929a77.309 77.309 0 0 1 6.638-6.134 11.6 11.6 0 0 0 2.054-1.93 24.56 24.56 0 0 1 4.416-4.35c2.167-1.819 4.344-3.624 6.5-5.455.644-.547 1.234-1.158 1.835-1.753 1.334-1.324 2.605-2.716 4.001-3.97 2.1-1.884 4.423-3.516 6.098-5.854a9.257 9.257 0 0 1 1.662-1.524c1.516-1.272 3.05-2.526 4.566-3.797a6.261 6.261 0 0 0 1.445-1.335 17.618 17.618 0 0 1 4.204-4.146l2.45-2.056a12.582 12.582 0 0 0-2.686-6.199c-6.218-7.305-12.343-14.69-18.6-21.962-2.224-2.587-4.675-4.984-7.111-7.377a67.316 67.316 0 0 1-6.22-6.247 19.627 19.627 0 0 0-2.448-2.373c-2.404-2.152-4.841-4.267-7.237-6.428q-7.189-6.483-14.345-13c-1.754-1.598-3.565-3.145-5.184-4.875a33.272 33.272 0 0 0-4.427-3.987 27.78 27.78 0 0 1-4.416-3.564 46.667 46.667 0 0 0-5.272-4.755 17.545 17.545 0 0 1-1.528-1.273c-2.154-2.267-4.247-4.596-6.428-6.838a16.365 16.365 0 0 0-3.021-2.572 10.832 10.832 0 0 1-2.561-2.21c-3.41-3.958-6.83-7.907-10.226-11.876a14.234 14.234 0 0 0-4.06-3.505c-.574.39-1.038.695-1.489 1.015-2.724 1.928-4.453 4.828-6.877 7.05-1.032.948-1.924 2.052-2.96 3.006a56.854 56.854 0 0 0-4.423 3.95 102.922 102.922 0 0 1-12.184 11.771 12.639 12.639 0 0 0-1.85 1.737 44.916 44.916 0 0 1-6.74 6.426 24.553 24.553 0 0 0-2.72 2.457c-2.529 2.795-4.966 5.672-7.485 8.474a68.562 68.562 0 0 1-5.07 5.315 37.2 37.2 0 0 0-4.699 4.873c-3 3.885-6.525 7.285-9.842 10.87-2.68 2.901-5.547 5.624-8.301 8.456-.852.875-1.588 1.863-2.415 2.763a34.9 34.9 0 0 1-2.938 3.033c-4.157 3.55-8.372 7.034-12.551 10.555a14.256 14.256 0 0 0-2.041 1.943 84.851 84.851 0 0 1-7.222 7.47c-2.608 2.573-5.58 4.78-8.428 7.103a16.35 16.35 0 0 1-2.37 1.487 23.763 23.763 0 0 0-5.275 4.35c.563.777 1.015 1.481 1.544 2.121 2.306 2.778 4.558 5.605 6.98 8.279a23.384 23.384 0 0 1 3.697 6.028 109.735 109.735 0 0 1 4.398 11.399 18.516 18.516 0 0 0 3.381 6.17c2.357 2.76 4.146 5.888 6.265 8.79 1.996 2.733 3.485 5.843 5.407 8.669.958 1.408 1.813 2.88 2.906 4.203a16.367 16.367 0 0 1 2.132 3.008 19.166 19.166 0 0 0 2.581 3.734c1.222 1.456 2.426 2.925 3.664 4.367a13.389 13.389 0 0 0 1.577 1.632c1.968 1.627 3.967 3.214 5.964 4.806 2.662 2.119 5.149 4.48 8.233 6.015a2.216 2.216 0 0 1 .683.502 10.708 10.708 0 0 0 4.088 2.505c2.493 1.105 5.204 1.599 7.614 2.989a35.076 35.076 0 0 0 4.98 2.046 6.491 6.491 0 0 0 1.881.53 30.588 30.588 0 0 1 7.909 1.945 21.233 21.233 0 0 0 4.41.976q2.115.235 4.24.386a9.594 9.594 0 0 1 4.093 1.028 4.76 4.76 0 0 0 1.89.493c2.349.194 4.702.329 7.051.469a1.184 1.184 0 0 1 1.104 1.77 3.635 3.635 0 0 1-.265.497 49.411 49.411 0 0 1-2.986 4.437 7.674 7.674 0 0 0-1.647 5.54 3.722 3.722 0 0 0 .533 1.175 5.921 5.921 0 0 0 .908-.474c1.833-1.48 3.645-2.987 5.478-4.466 1.833-1.464 3.327-3.311 5.373-4.518Z" data-name="Path 1099"/><path fill-rule="evenodd" d="M1196.756 1605.644c.182.455.4.851.999.781 1.015-.114 2.036-.218 3.512-.371a10.9 10.9 0 0 1-1.549 1.123 9.093 9.093 0 0 1-1.626.445c-4.345 1.045-4.916 1.369-8.343 4.759.101.639.559.666 1.04.573.817-.164 1.63-.392 2.45-.526.246-.04.526.131 1.074.283a20.3 20.3 0 0 1-6.556 2.533 2.074 2.074 0 0 0-1.67 1.196 3.539 3.539 0 0 0 .967.194 8.553 8.553 0 0 1 3.549-.127c.243.77-.302.944-.672 1.066-1.78.588-3.57 1.168-5.383 1.644a6.917 6.917 0 0 0-3.938 2.76c1.456.575 2.36-.72 3.552-.678 1.17.041 2.317-.479 3.586-.136a15.1 15.1 0 0 1-1.395.854c-1.263.603-2.524 1.221-3.829 1.722-1.218.467-2.492 1.02-3.844-.207l-1.573 1.959c.275.238.394.429.524.437 1.006.07 2.018-.406 3.295.062a4.733 4.733 0 0 1-.995.698c-1.697.532-3.4 1.064-5.122 1.507a1.671 1.671 0 0 0-1.485 1.466c.853.737 1.773.103 2.69.172.292.798-.192 1.233-.81 1.452a47.181 47.181 0 0 1-5.062 1.618 4.049 4.049 0 0 0-2.947 2.624c.74.907 1.925-.376 2.61.834a5.33 5.33 0 0 1-3.895 1.131 1.52 1.52 0 0 0-1.672.774l.989.976c-2.012 1.617-4.75 1.785-6.613 3.556-1.746 1.66-3.938 2.875-5.218 5.293a15.117 15.117 0 0 0 5.347-.05c-1.123 1.475-2.46 1.512-3.644 1.815-1.232.317-1.243.269-3.063-.461l-2.428 2.037a2.328 2.328 0 0 0 2.62.223 7.929 7.929 0 0 1 4.852-.272 28.375 28.375 0 0 0-4.063 1.795c-1.287.838-2.719.493-4.004.92l-.912-1.087c-.178.075-.404.098-.5.224a31.9 31.9 0 0 1-5.834 5.658c-1.246.983-2.437 2.034-3.581 2.994.154.73.557.577.888.521.555-.096 1.097-.249 1.653-.35.695-.125 1.256.217 1.248.727a1.2 1.2 0 0 1-1.061 1.126c-1.388.204-2.78.375-4.164.606a3.336 3.336 0 0 0-2.405 1.54c.854.789 1.724-.411 2.512.34-.427.835-1.327.95-2.053 1.236-1.131.448-2.328.725-3.492 1.093a4.089 4.089 0 0 0-2.64 1.824 3.358 3.358 0 0 0 .964.236c1.007-.08 2.009-.228 3.552-.414a5.655 5.655 0 0 1-2.88 1.405 27.3 27.3 0 0 1-2.705.772c-1.675.369-1.681.343-2.36.988.914.67 2.262-.124 3.049.92-.03.122-.025.283-.073.294-2.315.637-4.631 1.261-7.184 1.95.292.395.456.839.682.877.643.113 1.31.022 1.963.076a6.585 6.585 0 0 1 1.203.389c-1.832.547-3.306 1.06-4.814 1.42-2.364.566-4.749 1.045-7.135 1.52a.777.777 0 0 1-.638-.394c-.04-.318.024-.83.234-.958a10.89 10.89 0 0 1 1.791-.73c-.728-.582-.728-.582-2.081-.628-.44.68-.735 1.73-1.348 1.963a10.556 10.556 0 0 1-3.84.575c-1.01-.016-.926-.994-.869-1.89a13.485 13.485 0 0 0-3.531.353 4.784 4.784 0 0 1-1.383.128 1.161 1.161 0 0 1-.82-.646 1.785 1.785 0 0 1 .275-1.257c.351-.489 1.294-.246 1.533-1.187-1.382-.73-2.67-1.568-4.403-.89a18.4 18.4 0 0 1-3.015.631c-.955.195-1.284-.088-1.339-1.184-.013-.278.01-.558.015-.916-.59-.013-1.151 0-1.708-.043-.663-.053-1.352-.137-1.623-.889s.133-1.242.748-1.621a3.33 3.33 0 0 0 .55-.667c-1.216.22-2.205.414-3.203.568a5.763 5.763 0 0 1-1.127.022c-1.065-.05-1.67-.543-1.532-1.225.122-.601.597-.845 1.58-.771.374.027.748.113 1.12.152.278.027.553.006.859.007-.932-1.299-1.048-1.39-3.111-2.462a16.778 16.778 0 0 1-2.073.686 4.246 4.246 0 0 1-1.66-.022 1.068 1.068 0 0 1-.92-1.233 1.859 1.859 0 0 1 .806-.998c.28-.19.71-.163 1.288-.273-.501-.741-.976-1.116-1.82-.933a13.035 13.035 0 0 1-2.199.354c-1.007.044-1.344-.752-.777-1.736a8.5 8.5 0 0 1 .55-.745 6.072 6.072 0 0 0-5.558-2.559c-2.274-4.198-5.743-7.334-8.561-10.98-2.67-1.531-3.795-4.398-5.695-6.595-2.662-3.08-5.289-6.19-7.927-9.291a12.842 12.842 0 0 1-2.542-3.735 2.257 2.257 0 0 0-.44-.725 56.337 56.337 0 0 1-5.77-8.043c-1.228-1.905-2.316-3.9-3.486-5.841-.487-.806-1.035-1.574-1.548-2.366-.718-1.103-1.419-2.22-2.151-3.313a30.918 30.918 0 0 0-1.486-2.072c-1.178-1.473-2.541-2.82-3.136-4.679-3.166-4.131-4.468-9.124-6.445-13.805a25.152 25.152 0 0 0-3.755-6.594c-2.746-3.257-5.494-6.514-8.226-9.783-2.156-2.583-2.13-2.842.37-4.964 1.145-.97 2.303-1.923 3.457-2.882a5.046 5.046 0 0 1 1.099-.868c3.363-1.437 5.715-4.197 8.486-6.402a20.764 20.764 0 0 0 4.999-4.892 7.517 7.517 0 0 1 1.637-1.528 14.977 14.977 0 0 0 2.719-2.827 12.5 12.5 0 0 1 2.166-2.184c3.788-3.219 7.605-6.405 11.406-9.609a47.042 47.042 0 0 0 4.732-4.783c1.404-1.57 3.351-2.654 5.058-3.952a1.061 1.061 0 0 0 .208-.19c2.946-3.908 6.864-6.9 9.98-10.663 2.87-3.465 5.945-6.762 8.95-10.108.626-.695 1.358-1.293 2.04-1.936a11.452 11.452 0 0 0 1.619-1.558c2.614-3.729 6.224-6.483 9.387-9.673 4.022-4.06 8.452-7.716 12.004-12.24a15.216 15.216 0 0 1 1.213-1.17c.983-.996 1.94-2.02 2.934-3.004a34.321 34.321 0 0 1 1.861-1.711 68.209 68.209 0 0 0 8.03-7.451 44.069 44.069 0 0 1 4.204-3.728 38.424 38.424 0 0 0 7.097-8.29 7.093 7.093 0 0 1 1.837-2.075 2.636 2.636 0 0 1 3.392-.105 21.366 21.366 0 0 1 3.599 3.17c3.99 4.807 7.9 9.68 11.774 14.582a20.975 20.975 0 0 0 4.469 4.319c1.164.809 2.302 1.654 3.447 2.49a5.6 5.6 0 0 1 1.105.88c1.671 2.057 3.665 3.802 5.471 5.711a73.835 73.835 0 0 0 9.041 8.138 8.1 8.1 0 0 1 1.292 1.107 33.96 33.96 0 0 0 5.986 5.19 7.108 7.108 0 0 1 .865.73c4.857 4.914 10.136 9.366 15.231 14.018 2.585 2.358 5.275 4.601 7.838 6.984 1.451 1.348 2.708 2.905 4.113 4.308 1.806 1.806 3.705 3.517 5.501 5.333 1.666 1.674 3.325 3.369 4.848 5.173 6.168 7.308 12.249 14.688 18.44 21.976a15.81 15.81 0 0 1 3.092 7.182 1.817 1.817 0 0 1-.599 1.776c-.695.715-1.41 1.41-2.52 2.519a20.5 20.5 0 0 1 2.94-.385c.676.018.957.519.631 1.318a15.852 15.852 0 0 1-5.67 1.59l.915 1.32c-1.624.905-3.96.431-5.042 2.404 1.238.767 1.667-.615 2.66-.84l1.413.968a7.442 7.442 0 0 1-1.176 1.866 4.534 4.534 0 0 1-3.11 1.15c-1.67-.09-3.068.746-4.6 1.098-.753.171-1.034.724-1.063 1.597l3.304-.494a4.17 4.17 0 0 1-2.927 1.926c-1.035.296-2.266.03-3.223.996.629.656 1.252.274 1.827.248.534-.023 1.065-.054 1.553-.08.227.695-.145.797-.499.904-1.977.6-3.953 1.183-5.925 1.79-.586.181-1.28.27-1.435 1.3.82-.044 1.531-.077 2.245-.124q1.267-.08 2.532-.178a9.993 9.993 0 0 1 2.18-.027 9.165 9.165 0 0 1-3.316 1.247c-1.55.371-3.102.753-4.626 1.213a7.313 7.313 0 0 0-3.578 2.239 13.632 13.632 0 0 0 5.96-.736 2.625 2.625 0 0 1-2.098 2.012c-2.016.676-3.979 1.662-6.24 1.26a1.068 1.068 0 0 0-1.394 1.08c2.243.25 4.432-.55 6.644-.306-.026 1.174-.882 1.093-1.393 1.36-1.042.542-2.44.557-2.81 2.023l-2.316.975c-.65.271-1.495.178-1.767 1.13-.072.248-.581.424-.92.526-1.79.538-3.595 1.023-5.38 1.573a6.778 6.778 0 0 0-1.24.702c.744.919 1.827.014 2.538.707-1.429.631-2.758 1.25-4.118 1.795-.317.126-.732.007-1.095.022-.125.13-.264.234-.384.356-.042.044-.034.137-.05.208.139-.031.366-.03.398-.107.053-.147.001-.342-.004-.518Zm-64.935-149.79c-.57.389-1.033.692-1.483 1.01-2.71 1.919-4.43 4.807-6.845 7.021-1.028.944-1.916 2.042-2.942 2.99a56.5 56.5 0 0 0-4.403 3.931 102.254 102.254 0 0 1-12.124 11.717 12.56 12.56 0 0 0-1.84 1.729 44.624 44.624 0 0 1-6.708 6.396 24.409 24.409 0 0 0-2.708 2.446c-2.515 2.783-4.941 5.646-7.447 8.436a68.117 68.117 0 0 1-5.041 5.288 36.951 36.951 0 0 0-4.676 4.852c-2.985 3.866-6.492 7.25-9.794 10.82-2.67 2.886-5.518 5.599-8.26 8.417-.848.87-1.581 1.85-2.403 2.75a34.65 34.65 0 0 1-2.92 3.017c-4.137 3.534-8.332 7-12.493 10.506a14.163 14.163 0 0 0-2.032 1.934 84.309 84.309 0 0 1-7.185 7.437c-2.597 2.56-5.555 4.757-8.39 7.069a16.261 16.261 0 0 1-2.358 1.479 23.6 23.6 0 0 0-5.25 4.33c.56.774 1.011 1.476 1.54 2.113 2.3 2.77 4.543 5.587 6.96 8.258a23.349 23.349 0 0 1 3.689 6.008 109.417 109.417 0 0 1 4.39 11.36 18.5 18.5 0 0 0 3.375 6.151c2.35 2.753 4.133 5.87 6.247 8.762 1.99 2.724 3.479 5.826 5.393 8.641.956 1.404 1.808 2.871 2.898 4.19a16.33 16.33 0 0 1 2.126 3 19.136 19.136 0 0 0 2.574 3.722c1.217 1.45 2.418 2.916 3.652 4.353a13.357 13.357 0 0 0 1.57 1.628c1.96 1.619 3.957 3.207 5.946 4.791 2.653 2.113 5.13 4.467 8.207 6a2.209 2.209 0 0 1 .681.502 10.691 10.691 0 0 0 4.073 2.498c2.483 1.105 5.185 1.597 7.586 2.984a35 35 0 0 0 4.964 2.042 6.485 6.485 0 0 0 1.877.526 30.493 30.493 0 0 1 7.878 1.944 21.167 21.167 0 0 0 4.393.976q2.106.236 4.223.389a9.565 9.565 0 0 1 4.077 1.028 4.746 4.746 0 0 0 1.884.492c2.338.196 4.682.332 7.025.472a1.181 1.181 0 0 1 1.101 1.765 3.608 3.608 0 0 1-.263.495 49.135 49.135 0 0 1-2.97 4.417 7.637 7.637 0 0 0-1.635 5.518 3.718 3.718 0 0 0 .532 1.172 5.881 5.881 0 0 0 .902-.469c1.823-1.473 3.628-2.972 5.452-4.444 1.813-1.457 3.302-3.293 5.337-4.496a4.353 4.353 0 0 0 .951-1.022 52.937 52.937 0 0 1 8.589-8.434c.975-.73 1.888-1.546 2.808-2.344a7.242 7.242 0 0 0 1.406-1.368 24.843 24.843 0 0 1 4.943-4.964c.92-.795 1.74-1.708 2.611-2.56 1.204-1.178 2.385-2.38 3.627-3.516 3.727-3.408 8.08-6.127 11.202-10.199a1.09 1.09 0 0 1 .207-.19 53.68 53.68 0 0 0 6.309-6.004 32.306 32.306 0 0 0 3.443-3.691 6.887 6.887 0 0 1 1.39-1.382 25.944 25.944 0 0 0 5.35-5.354 4.277 4.277 0 0 1 .586-.604c2.67-2.623 5.423-5.17 7.988-7.892a76.8 76.8 0 0 1 6.606-6.106 11.525 11.525 0 0 0 2.044-1.92 24.4 24.4 0 0 1 4.394-4.33c2.156-1.81 4.323-3.606 6.468-5.428.641-.545 1.23-1.153 1.826-1.746 1.329-1.317 2.592-2.704 3.982-3.952 2.088-1.875 4.402-3.498 6.069-5.826a9.2 9.2 0 0 1 1.653-1.518c1.509-1.266 3.035-2.514 4.544-3.778a6.221 6.221 0 0 0 1.438-1.33 17.5 17.5 0 0 1 4.184-4.126l2.439-2.046a12.562 12.562 0 0 0-2.68-6.177c-6.2-7.284-12.307-14.647-18.544-21.897-2.217-2.578-4.659-4.967-7.087-7.357a67.233 67.233 0 0 1-6.199-6.228 19.59 19.59 0 0 0-2.44-2.367c-2.396-2.146-4.827-4.256-7.213-6.41q-7.165-6.466-14.299-12.966c-1.748-1.593-3.554-3.138-5.167-4.861a33.222 33.222 0 0 0-4.415-3.978 27.733 27.733 0 0 1-4.401-3.554 46.609 46.609 0 0 0-5.254-4.742 17.539 17.539 0 0 1-1.523-1.268c-2.148-2.262-4.236-4.582-6.408-6.818a16.334 16.334 0 0 0-3.011-2.565 10.815 10.815 0 0 1-2.552-2.203c-3.399-3.947-6.81-7.883-10.196-11.84a14.212 14.212 0 0 0-4.05-3.501Zm-61.444 194.574c1.58 1.883 2.7 3.287 3.901 4.619a12.787 12.787 0 0 0 1.939 1.654q7.536 5.548 15.097 11.061a3.673 3.673 0 0 0 1.446.854c2.15.262 3.812 1.489 5.447 2.714a13.78 13.78 0 0 0 6.392 2.826 8.7 8.7 0 0 1 1.887.572c2.872 1.114 5.882 1.098 8.972 1.286a14.341 14.341 0 0 1 .743-6.51c.77-2.004 2.601-3.312 3.577-5.398a44.776 44.776 0 0 0-5.18-.62c-.74-.104-1.619-.043-2.187-.427a9.15 9.15 0 0 0-4.603-1.152c-1.686-.152-3.378-.335-5.071-.389-2.36-.076-4.552-1.258-6.946-1.065a.74.74 0 0 1-.502-.232c-.81-.844-1.88-.773-2.9-.88a9.285 9.285 0 0 1-3.503-.923 33.141 33.141 0 0 0-4.782-1.677 4.083 4.083 0 0 1-1.051-.38 16.394 16.394 0 0 0-3.906-1.593c-2.635-.995-5.361-1.877-7.398-4.024-.145-.153-.48-.123-1.371-.316Zm132.441-50.36.256.535c.807-.14 1.616-.262 2.417-.43.119-.024.193-.256.346-.474l-1.994-.938-1.023 1.308Zm-107.983 73.648.224-.078c-.03-.062-.056-.17-.092-.175a.272.272 0 0 0-.193.082c-.02.02.037.114.06.171Z" data-name="Path 1100"/><path fill-rule="evenodd" d="M1160.791 1644.706c-1.026.583-2.042 1.183-3.089 1.73-.153.08-.606-.037-.649-.143-.113-.276-.2-.69-.077-.884a2.362 2.362 0 0 1 2.307-1.226c.475.04.95.043 1.422.065Z" data-name="Path 1101"/><path fill-rule="evenodd" d="M1143.593 1659.384c.611-1.718 1.601-2.03 3.618-1.361l-3.618 1.36Z" data-name="Path 1102"/><path fill="#d6d0c0" fill-rule="evenodd" d="M1071.882 1653.157c.787.23 1.078.222 1.213.367 1.91 2.044 4.34 3.004 6.698 4.058a16.456 16.456 0 0 1 3.502 1.668 4.043 4.043 0 0 0 .94.406 32.72 32.72 0 0 1 4.27 1.797 8.885 8.885 0 0 0 3.112 1.045 4.008 4.008 0 0 1 2.581.967.748.748 0 0 0 .453.239c2.072-.02 4.055 1.167 6.125 1.387 1.478.155 2.963.42 4.443.665a8.712 8.712 0 0 1 4.083 1.316 5.034 5.034 0 0 0 1.931.518 40.568 40.568 0 0 1 4.554.878c-.72 1.801-2.233 2.856-2.778 4.6a12.663 12.663 0 0 0-.241 5.769c-2.706-.36-5.324-.535-7.898-1.712a8.464 8.464 0 0 0-1.68-.628 13.928 13.928 0 0 1-5.746-2.924 11.781 11.781 0 0 0-4.914-2.764 3.832 3.832 0 0 1-1.315-.856q-6.93-5.401-13.846-10.826a13.809 13.809 0 0 1-1.793-1.599c-1.136-1.266-2.2-2.589-3.694-4.37Z" data-name="Path 1103"/><g fill-rule="evenodd" data-name="Group 703"><path d="M1169.654 1610.655c-.43.159-.627.435-.972.32a9.72 9.72 0 0 1-3.841-3.076c-2.57-2.979-5.154-5.946-7.734-8.915-1.39-1.6-2.885-3.061-4.336-4.573-3.691-3.847-7.764-7.306-10.932-11.783a14.049 14.049 0 0 0-3.303-3.495 3.6 3.6 0 0 1-.703-.632c-2.787-3.442-5.96-6.402-8.96-9.581a93.047 93.047 0 0 0-7.423-7.69 44.74 44.74 0 0 1-4.276-4.69c-1.516-1.73-3.034-3.46-4.47-5.235a22.752 22.752 0 0 1-2.43-3.493 13.141 13.141 0 0 0-3.613-4.34 43.592 43.592 0 0 1-7.714-8.004c-.675-.904-1.523-1.732-2.209-2.632a14.885 14.885 0 0 0-5.522-4.745 13.953 13.953 0 0 1-4.48-3.973c-1.647-1.924-1.959-3.379-1.76-4.637.037-.233.594-.053 1.048-.066a10.041 10.041 0 0 1 .59 1.37 8.227 8.227 0 0 0 3.66 5.013 38.309 38.309 0 0 1 8.233 7.842 53.25 53.25 0 0 0 8.192 8.17 25.564 25.564 0 0 1 4.66 4.915 134.363 134.363 0 0 0 13.4 15.486c.917.89 1.751 1.941 2.61 2.93 1.811 2.092 3.484 4.353 5.67 5.97a4.1 4.1 0 0 1 .67.701c4.105 5.172 9.068 9.231 13.423 14.116 2.354 2.64 5.023 4.976 7.545 7.456.462.453.93.916 1.354 1.41 4.47 5.19 8.93 10.393 13.623 15.86Z" data-name="Path 1107"/><path d="M1132.17 1649.56a30.074 30.074 0 0 1-2.292-2.143 107.7 107.7 0 0 0-10.081-10.657c-.813-.728-1.538-1.691-2.326-2.517a21.829 21.829 0 0 0-2.062-2.02 63.886 63.886 0 0 1-10.952-11.552c-.973-1.272-2.129-2.468-3.219-3.68-2.962-3.282-5.975-6.514-8.893-9.833a98.182 98.182 0 0 0-14.186-13.74 52.631 52.631 0 0 1-10.79-11.615 32.283 32.283 0 0 0-4.645-5.603c-2.068-2.065-4.079-4.225-6.145-6.292-1.486-1.486-3.027-2.878-4.534-4.33-1.15-1.107-2.346-2.19-3.406-3.39a7.787 7.787 0 0 1-1.343-2.326c-.186-.521-.097-1.123.201-1.247.425-.175 1.221.542 1.581 1.229a17.688 17.688 0 0 0 4.395 5.036c1.07.93 2.1 2.017 3.124 3.069 2.502 2.571 5.018 5.129 7.473 7.76a53.688 53.688 0 0 1 4.13 4.836 53.482 53.482 0 0 0 11.297 11.781 65.8 65.8 0 0 1 5.69 5.053c6.778 6.356 12.568 13.82 19.05 20.496a35.115 35.115 0 0 1 2.744 3.425c2.565 3.42 5.224 6.692 8.594 9.08a5.684 5.684 0 0 1 .729.572c4.846 4.78 9.824 9.393 14.15 14.843a16.138 16.138 0 0 1 1.563 2.344c.225.401.101.777.153 1.42Z" data-name="Path 1108"/><path d="M1189.614 1586.342c-1.53-1.443-2.855-2.651-4.148-3.918-2.003-1.964-3.831-4.244-6.066-5.804a14.916 14.916 0 0 1-2.082-2.14c-2.928-3.261-5.861-6.517-8.75-9.813a40.938 40.938 0 0 1-3.087-3.927 17.722 17.722 0 0 0-4.681-4.968 52.58 52.58 0 0 1-10.232-9.783 35.293 35.293 0 0 0-5.952-5.957 15.253 15.253 0 0 1-2.09-2.129q-6.747-7.531-13.469-15.088a36.618 36.618 0 0 1-4.426-5.931 47.124 47.124 0 0 0-9.693-11.214c-1.465-1.304-2.945-2.566-4.384-3.924a12.49 12.49 0 0 1-1.927-2.258c-.341-.546-.512-1.368-.326-1.608s.918-.117 1.399.238a11.216 11.216 0 0 1 2.042 2.09 78.083 78.083 0 0 0 5.35 5.99 73.4 73.4 0 0 1 8.655 10.37 41.073 41.073 0 0 0 4.351 5.464c3.746 4.103 7.45 8.255 11.174 12.383a39.679 39.679 0 0 0 5.276 5.255 24.43 24.43 0 0 1 2.777 2.856c1.253 1.362 2.484 2.746 3.72 4.133a30.748 30.748 0 0 0 6.105 5.523 29.505 29.505 0 0 1 8.259 8.23 24.592 24.592 0 0 0 2.185 2.746c4.215 4.557 8.173 9.353 12.66 13.67a92.011 92.011 0 0 1 6.789 8.076 6.073 6.073 0 0 1 .571 1.438Z" data-name="Path 1110"/><path d="M1078.784 1549.682c-.675-.182-1.313-.31-1.998-.559a3.624 3.624 0 0 1-1.416-.781c-2.214-2.42-4.835-4.063-6.9-6.722-1.405-1.807-1.655-2.632-1.101-3.646a3.891 3.891 0 0 1 .51-.793c.094-.103.328-.055.663-.096a6.111 6.111 0 0 1 .76 1.381c.12 1.531 1.106 2.971 2.638 4.47.814.795 1.573 1.703 2.396 2.461a9.378 9.378 0 0 0 2.119 1.617c3.254 1.397 5.82 4.447 8.055 7.628a47.644 47.644 0 0 0 3.573 4.58l4.301 4.784c2.095 2.33 4.113 4.8 6.31 6.945a70.994 70.994 0 0 0 6.45 5.445 26.822 26.822 0 0 1 6.123 6.763 61.077 61.077 0 0 0 6.35 8.045c3.025 3.254 5.95 6.625 8.935 9.925 1.863 2.055 3.612 4.253 5.856 5.772a17.338 17.338 0 0 1 2.362 2.456 34.364 34.364 0 0 0 5.16 5.114 11.776 11.776 0 0 1 1.684 1.76c1.304 1.484 2.688 2.763 4.102 4.094 2.077 1.953 3.97 4.323 5.911 6.547a1.3 1.3 0 0 1 .152.917c-.023.119-.348.032-.562-.06a2.161 2.161 0 0 1-.716-.486c-2.631-2.947-5.475-5.53-8.25-8.236a32.339 32.339 0 0 0-3.495-3.307 14.519 14.519 0 0 1-2.067-2.017 52.784 52.784 0 0 0-6.173-6.246 15.829 15.829 0 0 1-1.674-1.79c-4.734-5.28-9.449-10.579-14.203-15.837a25.871 25.871 0 0 1-4.03-5.4c-2.116-4.176-5.484-6.834-8.762-9.087a24.721 24.721 0 0 1-4.547-4.047c-3.524-3.93-7.071-7.836-10.555-11.801-1.396-1.589-2.633-3.318-3.966-4.968-1.121-1.39-2.288-2.762-3.995-4.825Z" data-name="Path 1111"/></g></g></g><g fill="#323f51" stroke="#707070" data-name="Ellipse 128" transform="translate(782.967 399.181)"><circle cx="35" cy="35" r="35" stroke="none"/><circle cx="35" cy="35" r="34.5" fill="none"/></g><g fill="#323f51" stroke="#707070" data-name="Ellipse 129" transform="translate(876.967 399.181)"><circle cx="35" cy="35" r="35" stroke="none"/><circle cx="35" cy="35" r="34.5" fill="none"/></g><g fill="#323f51" stroke="#707070" data-name="Ellipse 130" transform="translate(970.967 399.181)"><circle cx="35" cy="35" r="35" stroke="none"/><circle cx="35" cy="35" r="34.5" fill="none"/></g></g><g data-name="Group 296"><path fill="#323f51" d="M1101.65 1107.386a67.31 67.31 0 0 1 23.296 2.208c3.795.993 6.34 3.018 5.31 7.196-.988 4.002-4.145 4.046-7.521 3.203-26.373-6.597-46.482 3.003-62.108 24.119-.778 1.052-1.61 2.064-2.357 3.134-1.883 2.692-4.315 4.094-7.314 2.102-3.112-2.07-3.505-5.063-1.382-8.142 12.728-18.406 28.93-31.475 52.076-33.82Z" data-name="Path 493"/><path fill="#323f51" d="M1004.308 1010.927c13.752-.157 22.828 8.617 22.583 21.834-.246 13.317-8.378 22.067-20.927 22.533-13.493.5-24.837-9.8-24.7-22.439.134-13.095 9.249-21.764 23.044-21.928Z" data-name="Path 494"/><path fill="#e4e4e4" d="M1013.946 1033.119c5.884-.069 9.77 3.692 9.67 9.349-.107 5.7-3.59 9.449-8.957 9.644-5.784.221-10.64-4.2-10.577-9.606.056-5.61 3.956-9.318 9.864-9.387Z" data-name="Path 495" opacity=".9"/><path fill="#323f51" d="M1110.29 1010.204c12.51-.032 22.365 10.394 22.258 23.532-.107 13.657-9.065 22.538-22.639 22.455-14.037-.082-21.91-8.311-21.816-22.791.097-13.496 9.344-23.167 22.197-23.196Z" data-name="Path 496"/><path fill="#e4e4e4" d="M1117.807 1033.795c5.922-.07 9.831 3.712 9.725 9.4-.109 5.732-3.606 9.5-9.009 9.7-5.809.222-10.691-4.219-10.635-9.66.058-5.64 3.979-9.371 9.919-9.44Z" data-name="Path 497"/></g></g></svg>