<svg viewBox="1360.234 -1327.413 1579.852 1788.296" xmlns="http://www.w3.org/2000/svg"><defs><clipPath id="KilderTilVærdi_svg__a"><path d="M0 0h1166v1094H0z"/></clipPath><clipPath id="KilderTilVærdi_svg__b"><path d="M0 0h545v513H0z"/></clipPath><clipPath id="KilderTilVærdi_svg__c"><path d="M0 0h1557v1263H0z"/></clipPath><clipPath id="KilderTilVærdi_svg__h"><path d="M0 0h1166v1094H0z"/></clipPath><clipPath id="KilderTilVærdi_svg__i"><path d="M0 0h545v513H0z"/></clipPath><clipPath id="KilderTilVærdi_svg__j"><path fill="none" d="M0 0h282.758v204.873H0z" data-name="Rectangle 381"/></clipPath><clipPath id="KilderTilVærdi_svg__k"><path fill="none" d="M45.744 207.346c-3.23 1.412-5.035 6.486-4.864 12.034s-.342 9.645-1.281 12.374a7.249 7.249 0 0 0 4.1.172 85.1 85.1 0 0 0 1.093-15.243c1.116 7.023.263 13.98-.239 18.06a2.037 2.037 0 0 0 2.731.085s.33-11.32.427-16.216c.494 7.916.512 15.533.512 15.533s1.621.6 1.963-.682c-.085-5.292 0-9.9 0-9.9s.682 7.6 1.023 8.962c1.537.6 3.841.341 4.438-.511-.768-1.793-3.157-16.729-3.242-19.2 1.962 9.729 2.987 16.131 3.84 17.411 1.451.683 3.584-1.451 3.584-1.451s-1.28-.427-1.706-3.669-3.455-16.732-6.914-17.838a9 9 0 0 0-2.741-.442 6.829 6.829 0 0 0-2.721.528" data-name="Path 1356" transform="translate(-39.599 -206.818)"/></clipPath><clipPath id="KilderTilVærdi_svg__m"><path fill="none" d="M85.126 84.625c2.085 11.462 6.486 36.692 10.98 56.645 70.9 1.762 130.085-25.157 130.085-25.157L208.43 49.835h-.53c-54.983 0-102.856 16.092-122.773 34.79" data-name="Path 1366" transform="translate(-85.126 -49.835)"/></clipPath><clipPath id="KilderTilVærdi_svg__o"><path fill="none" d="M0 0h123.597v61.052H0z" data-name="Rectangle 379"/></clipPath><clipPath id="KilderTilVærdi_svg__p"><path fill="none" d="M0 0h219.217v247.122H0z" data-name="Rectangle 448"/></clipPath><filter id="KilderTilVærdi_svg__d" width="641.27" height="152.85" x="190" y="556.779" filterUnits="userSpaceOnUse"><feOffset dy="3"/><feGaussianBlur result="blur" stdDeviation="3"/><feFlood flood-opacity=".161"/><feComposite in2="blur" operator="in"/><feComposite in="SourceGraphic"/></filter><filter id="KilderTilVærdi_svg__e" width="137.455" height="541.215" x="653.348" y="624.203" filterUnits="userSpaceOnUse"><feOffset dy="3"/><feGaussianBlur result="blur-2" stdDeviation="3"/><feFlood flood-opacity=".161"/><feComposite in2="blur-2" operator="in"/><feComposite in="SourceGraphic"/></filter><filter id="KilderTilVærdi_svg__f" width="77.867" height="541.215" x="713.213" y="100.988" filterUnits="userSpaceOnUse"><feOffset dy="3"/><feGaussianBlur result="blur-3" stdDeviation="3"/><feFlood flood-opacity=".161"/><feComposite in2="blur-3" operator="in"/><feComposite in="SourceGraphic"/></filter><filter id="KilderTilVærdi_svg__g" width="541.215" height="77.867" x="712.744" y="624.205" filterUnits="userSpaceOnUse"><feOffset dy="3"/><feGaussianBlur result="blur-4" stdDeviation="3"/><feFlood flood-opacity=".161"/><feComposite in2="blur-4" operator="in"/><feComposite in="SourceGraphic"/></filter><linearGradient id="KilderTilVærdi_svg__l" x1="-1.123" x2="-1.091" y1=".935" y2=".935" gradientUnits="objectBoundingBox"><stop offset="0" stop-color="#fd9c00"/><stop offset=".552" stop-color="#fdc600"/><stop offset="1" stop-color="#fde400"/></linearGradient><linearGradient id="KilderTilVærdi_svg__n" x1="-.392" x2="-.387" y1="1.418" y2="1.418" gradientUnits="objectBoundingBox"><stop offset="0" stop-color="#012d46"/><stop offset="1" stop-color="#071d2e"/></linearGradient></defs><g data-name="Group 1216"><g data-name="Group 1209"><path fill="none" stroke="#323f51" stroke-linecap="round" stroke-linejoin="round" d="M-982.584 262.108c.825 67.193 1.644 112.427 2.469 179.625a342.6 342.6 0 0 0 67.853 1.291" data-name="Path 1765" style="stroke-width:6px" transform="matrix(.49244 0 0 .45846 3176.809 216.108)"/><path stroke-miterlimit="10" d="M-703.112 152.034c52.563 29.635 84.427 86.43 107.008 143.07a794.338 794.338 0 0 1 54.754 339.5c-1.316 22.231-3.739 45.023-13.792 64.81-12.76 25.118-36.509 42.677-61.4 55.272-47.245 23.9-100.512 32.948-153.207 35.829-44.8 2.449-90.807.458-132.609-16.1s-79.11-49.628-92.159-93.272c-7.726-25.833-6.649-53.42-5.5-80.395q1.693-39.83 3.39-79.659c3.025-71.1 6.279-143.451 29.77-210.49s70.717-129.194 136.894-152.342c21.068-7.373 46.745-24.773 68.729-21.089 47.747 8 25.075 2.886 58.123 14.864" data-name="Path 1767" style="stroke-width:6px;stroke:#353f4f;fill:#7ec8d6" transform="matrix(.49244 0 0 .45846 3038.931 -22.268)"/><path fill="none" stroke="#323f51" stroke-linecap="round" stroke-linejoin="round" d="M-837.913 192.036c37.6 11.01 66.69 56.671 66.727 104.73.008 11.381-1.5 22.947-5.641 33.1-7.695 18.846-23.243 30.376-38.112 40.609-52.954 36.421-143.627-188.5-199.462-159.5" data-name="Path 1771" style="stroke-width:6px" transform="matrix(.49244 0 0 .45846 3176.16 77.362)"/><path fill="none" stroke="#353f4f" stroke-linecap="round" stroke-miterlimit="10" stroke-width="5" d="M466.3 124.343c11.788 2.507 20.613 8.884 29.395 17.065" data-name="Path 1769" transform="matrix(.49244 0 0 .45846 2447.142 46.33)"/><path fill="#323f51" d="M2684.22 161.414a22.183 23.828 90 0 0 4.503-6.414c.562-1.176.572-2.246-.781-2.85-1.297-.576-2 .222-2.51 1.26-3.992 8.112-10.985 11.263-20.108 10.883-.455-.02-.91-.016-1.363-.047-1.139-.076-2.05.255-2.168 1.435-.122 1.224.6 1.945 1.898 2.04 7.756.558 14.83-.875 20.53-6.307Z" data-name="Path 1772"/><path fill="#323f51" d="M2672.145 118.511c-4.777-.052-7.928 2.834-7.845 7.18.086 4.38 2.91 7.257 7.27 7.41 4.687.167 8.627-3.223 8.581-7.38-.048-4.306-3.214-7.156-8.006-7.21Z" data-name="Path 1773"/><path fill="#fff" d="M2668.75 120.758c-2.044-.023-3.395 1.214-3.36 3.074.038 1.875 1.248 3.108 3.111 3.172 1.966.11 3.636-1.326 3.675-3.16-.02-1.843-1.374-3.063-3.427-3.086Z" data-name="Path 1774" opacity=".9"/><path fill="none" stroke="#323f51" stroke-linecap="round" stroke-linejoin="round" d="M-874.248 262.451c3.086 64.453 3.177 107.743.268 172.2a159.254 159.254 0 0 0-68.217.983" data-name="Path 1766" style="stroke-width:6px" transform="matrix(.49244 0 0 .45846 3054.827 220.001)"/><path fill="none" stroke="#353f4f" stroke-linecap="round" stroke-miterlimit="10" stroke-width="5" d="M507.083 124.343c-11.788 2.507-20.623 8.884-29.394 17.065" data-name="Path 1768" transform="matrix(.49244 0 0 .45846 2384.493 32.518)"/><path fill="none" stroke="#323f51" stroke-linecap="round" stroke-linejoin="round" d="M-841.237 191.7c-37.162 23.662-61.569 51.624-81.164 91.513-10.033 20.42-17.172 44.864-8.01 65.7 6.365 14.473 19.641 24.655 33.621 31.667 51.748 25.977 114.5 15.666 168.764 35.629" data-name="Path 1770" style="stroke-width:6px" transform="matrix(.49244 0 0 .45846 2964.2 81.991)"/><path fill="#323f51" d="M2635.328 118.274c-4.346-.01-7.77 3.418-7.732 7.738.038 4.493 3.15 7.412 7.864 7.385 4.875-.027 7.611-2.733 7.578-7.495-.03-4.438-3.244-7.62-7.71-7.628Z" data-name="Path 1775"/><path fill="#fff" d="M2632.306 120.002c-2.057-.023-3.415 1.22-3.378 3.091.038 1.886 1.253 3.125 3.13 3.19 1.976.108 3.652-1.334 3.693-3.177-.02-1.854-1.38-3.081-3.445-3.104Z" data-name="Path 1776"/></g></g><g data-name="Group 1348"><path fill="#fff" d="M-1718.687 1348.567c255.472-134.084 1018.598 35.021 1097.266 20.024 172.202-32.831 156.122 365.28 120.636 450.915-145.848 351.965 129.425 546.067-525.818 658.435-196.684 103.901-572.214-10.521-685.292-93.363-275.128-201.566-155.838-597.093-151.59-728.261 1.638-50.528 81.781-274.675 144.798-307.75Z" data-name="Path 729" transform="matrix(.78329 -.01951 .02723 1.09312 2817.984 -2681.498)"/></g><g data-name="Group 840" transform="translate(1829.891 -1800.976)"><rect width="957.724" height="1203.674" x="-375.24" y="620.37" rx="183.059" ry="183.059" style="stroke-width:4px;stroke-dasharray:8px;stroke:#557591;fill:transparent"/><g data-name="Group 840"><path fill="#557591" d="M-234.481 813.07c-3.498-10.473-14.604-16.727-24.806-13.967-10.201 2.76-15.636 13.486-12.138 23.96 3.498 10.474 14.603 16.726 24.805 13.967 10.202-2.76 15.636-13.487 12.139-23.96Z" data-name="Path 1178"/><text x="773.944" y="599.378" style="font-size:36;font-family:Roboto;white-space:pre" transform="translate(-969.463 229.482)">Gode venskaber</text><text x="779.414" y="696.471" style="font-size:36;font-family:Roboto;white-space:pre" transform="translate(-969.463 229.482)">Samvær med dem, man holder af</text><text x="785.395" y="787.177" style="font-size:36;font-family:Roboto;white-space:pre" transform="translate(-969.463 229.482)">Lære nyt</text><text x="784.355" y="878.695" style="font-size:36;font-family:Roboto;white-space:pre" transform="translate(-969.463 229.482)">Udvikle sig selv</text><text x="782.92" y="967.721" style="font-size:36;font-family:Roboto;white-space:pre" transform="translate(-969.463 229.482)">Være i naturen</text><text x="786.643" y="1062.396" style="font-size:36;font-family:Roboto;white-space:pre" transform="translate(-969.463 229.482)">Føle nærvær</text><text x="780.649" y="1160.581" style="font-size:36;font-family:Roboto;white-space:pre" transform="translate(-969.463 229.482)">Bruge kroppen</text><text x="781.257" y="1256.456" style="font-size:36;font-family:Roboto;white-space:pre" transform="translate(-969.463 229.482)">Tage ansvar</text><text x="781.901" y="1353.613" style="font-size:36;font-family:Roboto;white-space:pre" transform="translate(-969.463 229.482)">Være engageret i samfundet</text><text x="780.955" y="1431.985" style="font-size:36;font-family:Roboto;white-space:pre" transform="translate(-969.463 229.482)">Spise sundt</text><text x="785.279" y="1523.295" style="font-size:36;font-family:Roboto;white-space:pre" transform="translate(-969.463 229.482)">Harmoni med sig selv</text><path fill="#557591" d="M-233.665 903.453c-3.498-10.473-14.604-16.728-24.806-13.967-10.201 2.76-15.636 13.486-12.138 23.96 3.498 10.474 14.603 16.726 24.805 13.967 10.203-2.76 15.637-13.487 12.139-23.96ZM-230.43 998.689c-3.497-10.473-14.603-16.728-24.805-13.967-10.201 2.76-15.636 13.486-12.138 23.96 3.498 10.474 14.603 16.726 24.806 13.966 10.202-2.759 15.636-13.486 12.138-23.96ZM-232.772 1090.429c-3.498-10.473-14.604-16.728-24.806-13.967-10.201 2.76-15.636 13.486-12.138 23.96 3.498 10.473 14.604 16.726 24.806 13.966 10.202-2.759 15.636-13.486 12.138-23.96ZM-231.39 1177.766c-3.497-10.473-14.603-16.728-24.805-13.967-10.201 2.76-15.636 13.486-12.138 23.96 3.498 10.474 14.604 16.726 24.806 13.967 10.202-2.76 15.636-13.487 12.138-23.96ZM-229.324 1271.14c-3.498-10.473-14.604-16.727-24.806-13.967-10.201 2.76-15.636 13.486-12.138 23.96 3.498 10.474 14.604 16.726 24.806 13.967 10.202-2.76 15.636-13.487 12.138-23.96ZM-227.465 1369.699c-3.498-10.473-14.604-16.728-24.806-13.967-10.201 2.76-15.636 13.486-12.138 23.96 3.498 10.474 14.604 16.726 24.806 13.966 10.202-2.759 15.636-13.486 12.138-23.96ZM-226.103 1463.815c-3.498-10.473-14.604-16.728-24.805-13.967-10.202 2.76-15.637 13.486-12.139 23.96 3.498 10.473 14.604 16.726 24.806 13.966 10.202-2.759 15.636-13.486 12.138-23.96ZM-223.957 1560.484c-3.498-10.473-14.604-16.728-24.806-13.967-10.201 2.76-15.636 13.486-12.138 23.96 3.498 10.474 14.604 16.726 24.806 13.967 10.202-2.76 15.636-13.487 12.138-23.96ZM-225.506 1639.57c-3.498-10.472-14.604-16.727-24.805-13.966-10.202 2.76-15.637 13.486-12.139 23.96 3.498 10.473 14.604 16.726 24.806 13.966 10.202-2.759 15.636-13.486 12.138-23.96ZM-221.692 1728.532c-3.498-10.473-14.604-16.728-24.805-13.967-10.202 2.76-15.637 13.486-12.139 23.96 3.498 10.473 14.604 16.726 24.806 13.966 10.202-2.759 15.636-13.486 12.138-23.96Z" data-name="Path 1178"/></g><path d="M691.094 1833.985c15.217-.396 27.94-12.699 28.413-27.481.474-14.782-11.477-26.443-26.698-26.046-15.219.396-27.939 12.699-28.413 27.48-.474 14.782 11.479 26.443 26.698 26.047Z" data-name="Path 1179" style="stroke-dasharray:10px;stroke:#557591;fill:transparent;stroke-width:4px" transform="rotate(-107 691.952 1807.221)"/><path d="M604.361 1796.153c15.217-.396 27.94-12.699 28.413-27.481.474-14.782-11.477-26.443-26.698-26.046-15.219.396-27.939 12.699-28.413 27.48-.474 14.782 11.479 26.443 26.698 26.047Z" data-name="Path 1179" style="stroke-dasharray:10px;stroke:#557591;fill:transparent;stroke-width:4px" transform="rotate(-107 605.219 1769.39)"/></g><g clip-path="url(#KilderTilVærdi_svg__c)" transform="matrix(.34343 0 0 .36343 2027.255 -1359.146)"><path fill="#8c1b35" d="M423 339.418 716.992 631.41 1035 317.418l-136-92-252-36L423 301.41Z" data-name="Path 1970"/><path fill="#7ec8d6" d="m1006.696 343.117-297.7 276.285 314 318.008 92-136 36-252-111.992-224Z" data-name="Path 1971"/><path fill="#e79e17" d="M1011.557 931.283 721.012 627.332 403.004 941.324l136 92 252 36 224-111.992Z" data-name="Path 1972"/><path fill="#009cb2" d="M422.031 935.061 729 652.973 415.008 334.961l-92 136-36 252 111.992 224Z" data-name="Path 1973"/><g data-name="Group 1497"><path fill="#353f4f" d="M1044.725 309.5c-179.737-179.737-471.148-179.737-650.887 0s-179.738 471.148 0 650.886 471.149 179.737 650.887 0 179.738-471.147 0-650.886Zm-609.7 609.7c-156.994-156.994-156.994-411.529 0-568.522s411.529-156.994 568.523 0 156.992 411.528 0 568.522-411.534 156.999-568.526.005Z" data-name="Path 1953"/><path d="M1020.882 333.343c-166.57-166.569-436.631-166.569-603.2 0s-166.569 436.633 0 603.2 436.631 166.57 603.2 0 166.569-436.63 0-603.2ZM435.02 919.205c-156.992-156.994-156.992-411.528 0-568.522s411.529-156.994 568.522 0 156.993 411.528 0 568.522-411.528 156.995-568.522 0Z" data-name="Path 1954" opacity=".31"/><path fill="#11171c" d="M1003.542 350.682c-156.992-156.994-411.528-156.994-568.522 0s-156.994 411.53 0 568.522 411.529 156.994 568.522 0 156.993-411.527 0-568.522Zm-549 549c-146.214-146.213-146.214-383.27 0-529.484s383.27-146.213 529.484 0 146.212 383.272 0 529.485-383.274 146.216-529.486-.001Z" data-name="Path 1955" opacity=".08"/><g fill="none" stroke="#2a4b72" stroke-miterlimit="10" stroke-width=".536" data-name="Group 1494"><path d="m790.866 369.64-9.641 35.652" data-name="Line 124"/><path d="m647.424 366.367 9.477 35.696" data-name="Line 125"/><path d="m520.81 436.656 26.054 26.175" data-name="Line 126"/><path d="m444.555 561.489 35.652 9.641" data-name="Line 127"/><path d="m441.195 712.108 35.696-9.476" data-name="Line 128"/><path d="m513.025 837.188 26.175-26.055" data-name="Line 129"/><path d="m643.663 913.979 9.641-35.652" data-name="Line 130"/><path d="m792.075 911.242-9.477-35.696" data-name="Line 131"/><path d="m917.278 834.959-26.054-26.175" data-name="Line 132"/><path d="m987.906 708.424-35.652-9.641" data-name="Line 133"/><path d="m985.713 564.858-35.695 9.476" data-name="Line 134"/></g><g data-name="Group 1495"><path fill="#252c37" d="M1032.07 947.733 678.406 674.814l-272.919-353.66 353.666 272.915Z" data-name="Path 1956"/><path fill="#353f4f" d="M718.778 634.442 405.487 321.154l313.291 241.76Z" data-name="Path 1957"/><path fill="#353f4f" d="m718.779 634.442 313.292 313.292L718.779 705.97Z" data-name="Path 1958"/><path fill="#252c37" d="m790.306 634.442 241.765-313.288-313.292 241.76v71.528h71.528" data-name="Path 1959"/><path fill="#252c37" d="M647.253 634.443 405.487 947.734 718.778 705.97v-71.528h-71.525" data-name="Path 1960"/><path fill="#353f4f" d="M718.778 634.442 405.487 947.734l241.766-313.292Z" data-name="Path 1961"/><path fill="#353f4f" d="m718.779 634.442 313.292-313.288-241.764 313.288Z" data-name="Path 1962"/></g><g data-name="Group 1496"><g filter="url(#KilderTilVærdi_svg__d)" transform="translate(-.001 -.001)"><path fill="#029cb2" d="M822.272 633.208 722.059 697.63 199 628.99l523.371-66.21Z" data-name="Path 1963"/></g><path fill="#0191a6" d="m722.213 630.204-523.216-1.214 463.625-58.652Z" data-name="Path 1964"/><path fill="#353f4f" d="m722.214 630.204 523.214 1.215-463.625 58.652Z" data-name="Path 1965"/><path fill="#6a0c21" d="m782.08 570.616-58.652-463.627-60.8 463.348 59.589 59.866 59.866-59.589" data-name="Path 1966"/><path fill="#75b9c7" d="m781.332 690.071 463.627-58.652-463.348-60.8-59.866 59.589 59.589 59.866" data-name="Path 1974"/><g filter="url(#KilderTilVærdi_svg__e)" transform="translate(-.001 -.001)"><path fill="#e79e17" d="M662.348 689.791 721 1153.42l60.8-463.348-59.589-59.866-59.866 59.589" data-name="Path 1967"/></g><path fill="#d69317" d="m722.213 630.204-1.215 523.218-58.652-463.625Z" data-name="Path 1968"/><g filter="url(#KilderTilVærdi_svg__f)" transform="translate(-.001 -.001)"><path fill="#9f1a39" d="m722.213 630.205 1.215-523.215 58.651 463.626Z" data-name="Path 1969"/></g><g filter="url(#KilderTilVærdi_svg__g)" transform="translate(-.001 -.001)"><path fill="#7ec8d6" d="m721.745 630.203 523.215 1.215-463.626 58.651Z" data-name="Path 1975"/></g></g><g fill="#fff" data-name="Group 1201"><path d="M719.476 528.989a103.94 103.94 0 1 1-103.94 103.94 103.941 103.941 0 0 1 103.94-103.94Z" data-name="Nuance A4 5a"/><path stroke="#394151" stroke-linecap="round" stroke-linejoin="round" stroke-width="6" d="M744.256 608.034c.112 11.305 36.543 10.956 36.433-.353" data-name="Path 200"/><path stroke="#394151" stroke-linecap="round" stroke-linejoin="round" stroke-width="6" d="M685.666 608.034c.112 11.305 36.542 10.956 36.432-.353" data-name="Path 201"/><path stroke="#394151" stroke-linecap="round" stroke-linejoin="round" stroke-width="6" d="M694.134 660.477c13.813 10.887 29.157 8.4 41.728-.4" data-name="Path 202"/></g></g></g><g data-name="Group 742"><g data-name="Group 681"><g data-name="Group 322"><g data-name="Group 256"><g fill="none" stroke="#323f51" stroke-width="7" data-name="Group 658"><path stroke-linecap="round" stroke-linejoin="round" d="M86.908 0C62.714 4.1 5.443 1.188.5 2.748c-9.755 17.266 126.41 4.675 131.988 46.181" data-name="Path 419" transform="scale(.45697 .40887) rotate(-3 1615.357 -87073.25)"/><path stroke-linecap="round" stroke-linejoin="round" d="M42.818 0c23.52 4.58 79.194 1.328 84 3.071C136.3 22.366-4.793 9.92.126 47.369" data-name="Path 1048" transform="scale(.45697 .40887) rotate(-3 1638.56 -88268.18)"/><path stroke-miterlimit="10" d="M.124 244.809c-.412 7.463.072 15.247 3.55 21.864 4.8 9.134 14.414 14.554 23.672 19.107 23.441 11.532 48.971 20.946 75.035 19.191s52.625-17.112 60.759-41.936c3.563-10.87 3.419-22.554 3.238-33.992l-1.514-96.656c-.646-41.087-1.471-92.59-37.08-120.462-24.622-19.273-46.243-14.96-61.228 11.31C50.431 51.5 47.371 88 38.968 118.954 27.711 160.406 2.518 201.558.124 244.809Z" data-name="Path 421" transform="matrix(.45634 -.0214 .02392 .4083 2082.342 -138.11)"/><path stroke-linecap="round" stroke-linejoin="round" d="M28.979 86.839C17.448 76.93 9.877 65.221 3.8 48.519.684 39.968-1.531 29.734 1.312 21.006a25.73 25.73 0 0 1 10.43-13.26C27.8-3.131 29.849 8.362 46.687 0" data-name="Path 422" transform="matrix(.06368 -.40505 .4527 .05697 2052.427 -55.093)"/><path stroke-linecap="round" stroke-linejoin="round" d="M23.145 0C10.1 4.724.012 24.325 0 44.952A46.012 46.012 0 0 0 1.957 59.16c2.669 8.09 8.061 13.04 13.218 17.43 18.367 15.635 19.538-9.347 38.9 3.105" data-name="Path 423" transform="scale(.45697 .40887) rotate(-84 2294.627 -2690.21)"/></g></g><path fill="#323f51" d="M2120.376-112.309a6.299 7.04-90 0 1 2.218.264c.352.09.563.256.389.57-.168.303-.475.293-.787.215-2.44-.61-4.56.041-6.45 1.592-.095.076-.194.151-.286.23-.23.197-.491.295-.746.13-.265-.171-.25-.4.01-.628 1.56-1.353 3.366-2.287 5.652-2.373Z" data-name="Path 498"/><path fill="#323f51" d="M2145.416-112.396a6.3 7.04 90 0 1 1.7 1.302c.24.247.316.49-.022.668-.324.172-.576.014-.79-.204-1.675-1.702-3.85-2.188-6.38-1.81-.126.019-.254.034-.379.054-.314.054-.592.008-.706-.254-.117-.273.035-.458.392-.521 2.133-.375 4.216-.278 6.185.765Z" data-name="Path 499"/></g><path fill="none" stroke="#323f51" stroke-linecap="round" stroke-miterlimit="10" stroke-width="5" d="M12.55 5.478A9.855 9.855 0 0 0 8.1.5 2.839 2.839 0 0 0 6.412.011a2.065 2.065 0 0 0-1.638 1.521 4.036 4.036 0 0 0 .147 2.33 7.905 7.905 0 0 0 3.722 4.48c-2.36.076-8.045.978-8.6 3.89-.762 4 8.458 7.406 10.326 3.287" data-name="Path 604" transform="matrix(.39574 -.20444 .22849 .35409 2126.59 -86.985)"/><path fill="none" stroke="#323f51" stroke-linecap="round" stroke-miterlimit="10" stroke-width="5" d="M3.039 0C2.268 1.348 1.464 2.682.673 4.017A4.519 4.519 0 0 0 .828 9c1.634 2.258 6.881 4.025 8.59 4.5 5.114 1.43 5.269-3.665 6.636-6.05" data-name="Path 605" transform="matrix(.39574 -.20444 .22849 .35409 2134.774 -99.685)"/><path fill="none" stroke="#323f51" stroke-linecap="round" stroke-miterlimit="10" stroke-width="5" d="M3.039 0C2.267 1.349 1.464 2.682.673 4.017A4.515 4.515 0 0 0 .83 9c1.634 2.258 6.879 4.025 8.588 4.5 5.114 1.43 5.271-3.665 6.636-6.05" data-name="Path 606" transform="matrix(.39574 -.20444 .22849 .35409 2119.645 -99.638)"/><path fill="#6c85a0" d="m2101.81-74.581 1.265-.942c-3.427 1.043-6.166.582-7.958-2.01-2.476-3.584.75-8.998 7.22-7.833l-3.058-1.163a5.437 4.865 0 0 1 6.272-3.78 5.418 4.848 0 0 1 4.59 5.178l-3.014.134.013 1.545c1.095-.067 2.123-.124 3.15-.195 3.096-.215 6.194-.44 9.29-.652.684-.047 1.393-.046.918-1.049l-8.349.185c-.587-1.58-.88-3.155-1.72-4.447-1.455-2.238-3.92-3.027-6.725-2.634-2.898.405-4.777 2.008-5.53 4.529-.262.872-.565 1.307-1.639 1.526a6.95 6.218 0 0 0-5.21 7.264 7.029 6.29 0 0 0 7.7 5.074c.751-.075 1.327-.204 1.914.542 2.28 2.893 6.116 3.626 9.558 1.957 2.962-1.438 4.254-4.826 3.036-7.953-.064-.166-.1-.338-.185-.627 2.278-.729 4.535-1.423 6.763-2.19.412-.141.698-.579 1.04-.88l-.343-.386-12.885 3.482.58 1.463c1.042-.295 1.979-.557 2.904-.817 1.298 2.323.28 4.95-2.398 6.336a5.418 4.847 0 0 1-7.2-1.657Z" data-name="Path 611"/></g></g><g data-name="Group 743"><g fill="#323f51" stroke="#323f51" stroke-miterlimit="10" stroke-width="3" data-name="Group 83"><path d="M3400.461 5298.431c-5.085-6.525-14.64-8.838-21.587-12.481-2.668-1.4-5.449-2.674-8.1-4.138 2.529-.493 2.477-4.571-.27-4.36-1.889.148-3.774.183-5.66.239a59.575 59.575 0 0 1-6.839-7.67c2.764-.278 2.774-4.638-.055-4.419-1.165.09-2.329.09-3.492.145a264.424 264.424 0 0 1-6.573-7.547c.1-.007.2 0 .3-.014 2.826-.219 2.851-4.656 0-4.436-1.265.1-2.527.1-3.79.162q-2.955-3.708-5.726-7.569c.063 0 .127 0 .19-.008 2.828-.219 2.851-4.656 0-4.435-1.048.08-2.094.078-3.141.131-1-1.491-2.015-2.956-2.969-4.5-.543-.875-1.091-1.926-1.646-3.032.107-.009.215-.005.323-.015 2.829-.216 2.851-4.656 0-4.436-.815.064-1.631.057-2.447.1-2.426-4.975-5.275-10.206-9.346-11.962a8.569 8.569 0 0 0-1.776-.507 77.71 77.71 0 0 0-2.448-6.574 5.4 5.4 0 0 0-1.669-2.723c-2.769-1.951-8.511-1.4-11.554-.733-8.923 1.944-10.4 9.913-10.86 17.838a15.728 15.728 0 0 1-7.532.38c-6.536-1.451-14.842-7.215-18.348-12.722-3.186-5-1.208-13-6.375-16.527a7.618 7.618 0 0 0-1.723-.854c4.307-5.986 1.906-15.47-6.7-16.363-3.39-.348-6.6 1.823-6.5 5.509.059 2.187 1.713 3.678 2.719 5.438a7.342 7.342 0 0 1-1.337 8.891c-.016.014-.018.032-.034.047-10.775 8.83-28.921 19.253-26.359 35.612-10.113 4.284-9.655 20.716-3.66 28.165 10.974 13.63 28.673 20.646 44.11 27.675 7.917 3.6 15.906 7.242 23.229 11.978 9.518 6.155 17 14.512 25.779 21.571 13.672 10.993 24.875 12.051 41.83 12.249 9.8.114 19.623.132 29.407-.588 6.832-.5 12.864-.674 18.175-5.394 9.46-8.41 10.318-22.028 2.454-32.123Zm.839 15.662c-11.982 7.407-30.622 6.146-44.138 4.783a66.626 66.626 0 0 1-18.224-4.569c2.859-8.672 10.651-14.4 18.224-13.5 3.617.431 9.97 2.492 13.612 1.911 6.089-.976 13.16-3.408 16.286-8.646a29.186 29.186 0 0 1 6.076 3.76 23.649 23.649 0 0 1 8.164 16.261Zm-74.88-79.611c-3.1.039-7.909-.728-11.012-.925-2.85-.181-3.849.858-1.009 1.042 4.013.254 8.016.239 12.021.1 1.492 2.6 5.018 9.331 6.328 11.641-2.913.024-7.416.188-10.332 0-2.85-.181-3.424-.067-.584.114 3.844.246 7.682.239 11.52.117 1.707 2.542 3.449 5.059 5.291 7.514-.322 0 4.044 1.75 3.432 1.968a51.58 51.58 0 0 1-10.971 1.645c-2.85-.181-2.785.427.054.609 3.643.231 7.28.241 10.917.144 2 2.526 7.76 9.25 9.848 11.707-2.424-.009-8.572-1.357-11-1.512-2.852-.184-2.839 1.331 0 1.512 3.669.235 7.334.242 11 .141 2.19 2.5 7.557 7.372 9.776 9.825-1.689-.038-6.529.108-8.22 0-2.851-.182-2.84 1.707 0 1.887 3.281.21 6.557.248 9.831.19a38.361 38.361 0 0 0 3.923 2.581c-14.424 8.521-27.815-9.947-36.009-19.728-10.447-12.47-18.856-26.289-26.653-40.564 2.908-1.284 5.812-2.257 8.127-2.018 4.622.474 10.83 7.89 13.721 12.009Zm-25.866-23.374c1.909-.531 10.325-1.137 12.142-.12 1.174.659-.157 4.543.534 6.677-4.058.615-8.3 2.508-11.336 3.7-1.954.769-3.971 1.706-6.03 2.554.348-5.076-.995-11.229 4.69-12.812Zm-41.211-.12c1.466 4.077 5.376 5.924 8.68 8.711 7.736 6.53 16.961 12.988 26.673 9.435 1.6-.583 3.65-1.646 5.858-2.754 1.029 1.889 2.135 3.688 3.2 5.539-10.74 4.3-20.428 5.671-31.729 1.639-.417-.149.672 1.642 0 1.374-12.811-5.091-21.156-18.5-23.91-32.1.583-.459 1.15-.914 1.673-1.36 6.206-5.245 7.983 5.152 9.554 9.516Zm-7.265-26.56a5.843 5.843 0 0 1 .468 10.07 2.235 2.235 0 0 0-.318.336 10.149 10.149 0 0 0-.8-5.437c-.57-1.2-1.63-2.136-2.175-3.327-1.085-2.37 1.039-2.576 2.825-1.642Zm-7.816 21.3c6.9 29.362 32.7 37.644 60.307 26.193 8.845 14.952 20.095 32.745 31.514 46.07 8.781 10.247 23.548 17.462 35.486 9.132.608.312 1.2.619 1.829.939 2.745 1.4 6.191 2.717 9.583 4.158-3.6 5.746-8.812 8.9-15.863 8.592-4.39-.192-8.549-1.524-12.983-1.063-7.258.753-16.516 5.515-19.27 12.752a114.972 114.972 0 0 1-23.989-15.716c-.284-.234-.547-.483-.827-.717a2.242 2.242 0 0 0 .791-.974c4.313-10.5-.493-23.051-8.923-30.093-9.965-8.326-21.77-8.866-33.894-6.155a2.109 2.109 0 0 0-.9.437c-14.06-8.818-28.782-16.743-43.489-24.35-2.656-12.922 10.661-21.948 20.628-29.208Zm62.5 87.492c-11.364-10.191-20.962-21.853-33.931-30.359-.176-.117-.361-.223-.54-.339 8.827-1.541 17.164-.968 24.946 4.469 8.138 5.679 13.032 16.641 9.528 26.225Zm86.37 35.872c-7.016 5.553-14.057 4.687-22.631 4.961-.371.012-1.073-.03-1.728 0-12.85.584-30.032 2.241-42.356-2.039-14.683-5.1-23.729-20.261-35.81-29.283-12.363-9.23-26.9-14.7-40.726-21.275-7.669-3.644-15.2-7.61-21.939-12.814-3.75-2.9-8.819-6.719-11.067-10.948-2.631-4.95-1.631-16.511 4.68-18.848 18.241 9.416 37.145 19.023 53.782 31.08.322.233-.528-3.327 0-2.935 16.246 12.057 29.722 32.348 47.074 43.717 12.941 8.479 26.138 12.359 41.575 13.069 11.509.531 25.733 1 36.607-4.218-.817 2.584-4.982 7.568-7.458 9.529Z" data-name="Path 187" transform="matrix(.76856 0 0 .62255 -330.122 -3684.238)"/><path d="M3231.3 5242.669c-4.065-1.712-10.31-6.232-10.536-11.32-.095-2.137-3.307-2.15-3.211 0 .3 6.792 7.383 12.213 12.892 14.536 1.92.806 2.755-2.417.855-3.216Z" data-name="Path 188" transform="matrix(.76856 0 0 .62255 -326.884 -3672.7)"/><path d="M3235.7 5245.468c-2.853 0-2.859 4.436 0 4.436s2.859-4.436 0-4.436Z" data-name="Path 189" transform="matrix(.76856 0 0 .62255 -324.91 -3671.782)"/></g><g data-name="Group 696"><path fill="#903" d="M2260.466-225.83s18.65 56.75 24.991 56.322 45.31-41.17 45.31-41.17-6.403-15.278-32.696-21.226-37.605 6.074-37.605 6.074Z" data-name="Path 1090"/><path fill="#7ec8d6" d="M2275.755-111.818s9.82-46.661 6.59-53.315-25.796-58.64-25.796-58.64-22.629 13.22-30.964 36.355c-7.694 21.357 1.62 50.318 11.877 58.486 21.412 17.05 38.293 17.114 38.293 17.114Z" data-name="Path 1092"/><path fill="#e79e17" d="M2333.523-204.733s-46.39 34.795-47.801 42.295-6.878 50.902-6.878 50.902 16.733 6.9 36.486-5.822c18.234-11.744 28.779-53.18 25.74-66.682-6.344-28.189-7.547-20.693-7.547-20.693Z" data-name="Path 1093"/><g stroke="#323f51" data-name="Group 694"><g fill="none" stroke-width="5" data-name="Group 693"><g data-name="Group 540"><path d="M143.473 424.418c-8.091 65.965-32.835 171.134-219.507 149.966s-184.917-201.71-128.545-275.949S-36.558 157.862 89.2 245.82c64.947 45.423 59.278 137.807 54.273 178.598Z" data-name="Path 793" transform="matrix(.29666 .0524 -.05713 .3234 2318.099 -296.802)"/><path d="M-234.148 365.472c5.652-26.334 16.227-49.877 29.364-67.18C-145.347 220.014-32.221 159.183 91 245.364c46.375 32.434 65.349 94.667 54.885 179.97-4.15 33.848-12.809 76.768-43.181 108.494-36.058 37.665-95.926 52.049-177.94 42.748-93.209-10.57-132.7-59.361-149.411-98.433-15.822-36.981-17.091-77.336-9.501-112.671Zm377.128 59.51c10.328-84.166-8.225-145.448-53.658-177.222C-32.2 162.766-143.8 222.814-202.457 300.059c-29.52 38.875-46.387 114.1-19.506 176.935 16.409 38.359 55.238 86.269 147.054 96.68 174.535 19.79 208.12-69.076 217.888-148.693Z" data-name="Path 794" transform="matrix(.29666 .0524 -.05713 .3234 2317.857 -297.092)"/></g><path d="M-193.461 236.61a1.468 1.468 0 0 1 .669-.942c21.085-12.821 43.178-21.375 65.666-25.421 33.823-6.084 68.023-1.912 101.758 12.4q2.87 1.218 5.76 2.545a1.472 1.472 0 0 1 .718 1.938 1.463 1.463 0 0 1-1.938.718c-35.034-16.093-70.624-21.049-105.782-14.727-22.13 3.982-43.887 12.41-64.663 25.043a1.461 1.461 0 0 1-2.008-.489 1.446 1.446 0 0 1-.18-1.065Z" data-name="Path 795" transform="matrix(.29666 .0524 -.05713 .3234 2336.726 -291.751)"/><path d="M-219.715 329.257a1.468 1.468 0 0 1 .487-.806 1.464 1.464 0 0 1 2.059.17 144.91 144.91 0 0 0 45.038 35.323 1.482 1.482 0 0 1 .635 1.967 1.461 1.461 0 0 1-1.964.633 147.861 147.861 0 0 1-45.94-36.033 1.462 1.462 0 0 1-.315-1.254Z" data-name="Path 796" transform="matrix(.29666 .0524 -.05713 .3234 2315.677 -237.8)"/><path d="M-136.8 355.52a1.456 1.456 0 0 1 1.2-1.137 189.722 189.722 0 0 0 24.7-5.483 1.457 1.457 0 0 1 1.814.986 1.453 1.453 0 0 1-.986 1.816 192.479 192.479 0 0 1-25.073 5.567 1.462 1.462 0 0 1-1.667-1.22 1.49 1.49 0 0 1 .012-.529Z" data-name="Path 797" transform="matrix(.29666 .0524 -.05713 .3234 2349.258 -221.951)"/><path d="M-109.382 357.191a1.468 1.468 0 0 1 .574-.879 116.776 116.776 0 0 0 14.384-12.242 117.324 117.324 0 0 0 11.619-13.622 1.462 1.462 0 0 1 2.042-.319 1.466 1.466 0 0 1 .319 2.04 119.675 119.675 0 0 1-11.913 13.96 119.148 119.148 0 0 1-14.743 12.557 1.46 1.46 0 0 1-2.037-.333 1.456 1.456 0 0 1-.245-1.162Z" data-name="Path 798" transform="matrix(.29666 .0524 -.05713 .3234 2362.477 -228.7)"/><path d="M-107.186 224.966a1.509 1.509 0 0 1 .231-.531 1.465 1.465 0 0 1 2.035-.36c31.954 22.351 50.05 59.159 53.789 109.4a1.462 1.462 0 0 1-1.349 1.565 1.459 1.459 0 0 1-1.563-1.349c-3.671-49.325-21.353-85.4-52.553-107.223a1.465 1.465 0 0 1-.59-1.502Z" data-name="Path 799" transform="matrix(.29666 .0524 -.05713 .3234 2372.1 -277.718)"/><path d="M-231.294 296.664c2.933-12.057 9.063-25.158 18.215-38.943 2.994-4.508 6.361-9.155 10.01-13.812l2.3 1.8c-3.6 4.6-6.923 9.182-9.876 13.629-8.963 13.5-14.956 26.29-17.809 38.015Z" data-name="Path 800" transform="matrix(.29666 .0524 -.05713 .3234 2317.663 -277.722)"/><path d="M-213.364 249.475a287.609 287.609 0 0 1 22.719-21.991l1.877 2.24c-.1.085-22.456 21.743-22.456 21.743Z" data-name="Path 801" transform="matrix(.29666 .0524 -.05713 .3234 2326.637 -283.993)"/></g><path fill="#fff" stroke-linecap="round" stroke-linejoin="round" stroke-width="7" d="M3180.873 156.411v42.042c0 1.734 0 1.715 1.68 1.706 2.974-.014 5.952-.036 8.925.024.893.017 1.18-.243 1.27-1.134.313-3.136.205-6.285.353-9.426.339-7.232.434-14.474.655-21.71q.359-11.822.764-23.645c.252-7.751.471-15.5.783-23.254.087-2.152.172-4.3.214-6.457.042-2.218.9-3.238 3.085-3.7 1.6-.342 2.96.363 4.3 1.051.563.29.468.971.48 1.525.052 2.714.109 5.427.208 8.141.2 5.427.186 10.863.371 16.29.326 9.692.541 19.384.79 29.077.163 6.374.412 12.748.5 19.125.062 4.392.308 8.781.452 13.173.021.662.149 1.008.956.99 3.19-.068 6.381-.056 9.57-.073 1.789-.009 1.8-.009 1.8-1.8v-83.832c0-2.107.543-2.915 2.392-3.556a4.1 4.1 0 0 1 4.329 1.279 1.8 1.8 0 0 1 .394 1.067q.646 8.956 1.308 17.909c.476 6.311.989 12.621 1.458 18.932.395 5.326.734 10.654 1.129 15.979.469 6.313.985 12.622 1.455 18.934.317 4.294.493 8.6.9 12.887a26.839 26.839 0 0 1-2.266 13.349 27.573 27.573 0 0 1-9.382 11.8 22.978 22.978 0 0 0-9.732 14.412 38.61 38.61 0 0 0-.323 10.053c.2 3.834.146 7.668.356 11.5.268 4.9.2 9.824.366 14.735q.464 13.954.8 27.911c.144 5.858.344 11.716.511 17.573q.4 13.826.782 27.654.237 8.852.51 17.7.421 13.761.782 27.524c.165 6.032.374 12.061.511 18.093.184 8.055.582 16.107.7 24.163a15.6 15.6 0 0 1-14.189 15.723 15.439 15.439 0 0 1-16.578-13.131c-.572-3.872-.133-7.835-.023-11.756.086-3.1.294-6.195.385-9.3.219-7.624.38-15.253.6-22.879q.485-16.669 1.021-33.339.378-12.211.766-24.421.4-12.792.783-25.585.391-12.662.787-25.323c.259-8.356.486-16.712.783-25.068.2-5.728.523-11.453.479-17.186a21.263 21.263 0 0 0-9.144-17.93c-6.631-4.805-11.1-10.984-12.725-19.094-.791-3.945-.287-7.9-.057-11.853.185-3.179.457-6.355.684-9.532q.62-8.7 1.232-17.4c.294-4.253.555-8.509.847-12.763.4-5.842.821-11.684 1.222-17.527q.432-6.316.841-12.633c.2-3.051.445-6.1.577-9.155a3.329 3.329 0 0 1 2.55-3.285 3.655 3.655 0 0 1 5.024 3.5l-.001 41.926Z" data-name="Path 1085" transform="matrix(.29666 .0524 -.05713 .3234 1277.047 -441.879)"/><path fill="#fff" stroke-linecap="round" stroke-linejoin="round" stroke-width="7" d="M3402.159 162.8q0 23.025.005 46.05c.009 7.11-.023 14.221.139 21.328.243 10.553.659 21.1.968 31.655.222 7.583.386 15.167.587 22.75.149 5.642.32 11.283.478 16.926.18 6.375.3 12.753.552 19.126.222 5.684.37 11.37.5 17.058.209 9.3.518 18.607.782 27.912.168 5.9.3 11.8.511 17.7.332 9.3.568 18.607.8 27.911.137 5.425.405 10.847.478 16.276.031 2.239.21 4.477.229 6.716a15.639 15.639 0 0 1-16.221 15.949c-7.46-.195-14.208-6.553-14.7-13.977-.347-5.252.173-10.5.284-15.749.2-9.219.532-18.437.811-27.654q.238-7.817.483-15.633l1.067-34.37.5-16.279c.261-8.486.44-16.974.824-25.455.156-3.443-.026-6.9.4-10.329.137-1.1-.235-1.536-1.413-1.506-2.974.073-5.953-.024-8.927.047-1.2.03-1.571-.377-1.523-1.557.345-8.438.474-16.884.971-25.316.219-3.744.363-7.489.549-11.233.309-6.282.709-12.556 1.242-18.824.474-5.576.851-11.163 1.395-16.733q.93-9.511 2.1-19 1.284-10.514 3.038-20.964c2.653-15.735 5.9-31.332 11.125-46.451a100.487 100.487 0 0 1 6.94-16.132 12.559 12.559 0 0 1 .884-1.428 2.081 2.081 0 0 1 2.43-.731 2.025 2.025 0 0 1 1.555 1.994c.281 6.509.123 13.02.123 19.53 0 3.662.024 7.322.026 10.984q.014 9.709.008 19.409Z" data-name="Path 1086" transform="matrix(.29666 .0524 -.05713 .3234 1365.7 -427.849)"/></g></g><g data-name="Group 989"><g data-name="Group 987"><path d="m133.811 32-.059-.091L31.8 99.877c-.837 50.251 68.423 155.311 100.872 151.432l101.978-67.927-.059-.091c-18.313.726-85.5-79.012-100.774-151.286" data-name="Path 1478" style="fill:#eaeaea" transform="matrix(-.8048 0 0 .8163 2392.278 -746.305)"/><path fill="none" stroke="#216898" stroke-linecap="round" stroke-linejoin="round" d="M137.324 132.354c-17.135-18.29-37.386-46.47-52.419-77.277" data-name="Path 1479" transform="matrix(-.8048 0 0 .8163 2337.776 -722.198)"/><path fill="none" stroke="#216898" stroke-linecap="round" stroke-linejoin="round" d="M100.28 41.722 31.8 87.373c-.842 50.251 68.42 155.311 100.867 151.434" data-name="Path 1480" transform="matrix(-.8048 0 0 .8163 2392.277 -736.098)"/><path fill="#c0dcef" d="m2275.785-660.357 55.597 37.566q.599-1.13 1.18-2.273-27.8-18.78-55.6-37.566-.582 1.143-1.181 2.273" data-name="Path 1481"/><path fill="#c0dcef" d="m2272.83-655.049 55.6 37.566q.644-1.103 1.27-2.22l-55.602-37.566q-.626 1.115-1.27 2.22" data-name="Path 1482"/><path fill="#c0dcef" d="m2269.667-649.871 55.601 37.567q.687-1.075 1.357-2.165-27.8-18.78-55.601-37.566-.67 1.089-1.357 2.165" data-name="Path 1483"/><path fill="#c0dcef" d="m2266.301-644.825 55.601 37.568q.731-1.048 1.441-2.108l-55.601-37.565q-.712 1.061-1.441 2.108" data-name="Path 1484"/><path fill="#c0dcef" d="m2262.732-639.924 55.601 37.57q.772-1.017 1.53-2.046l-55.602-37.566q-.753 1.031-1.53 2.046" data-name="Path 1485"/><path fill="#c0dcef" d="m2258.968-635.17 55.602 37.566q.813-.98 1.61-1.983-27.798-18.784-55.602-37.566-.793 1-1.61 1.984" data-name="Path 1486"/><path fill="#c0dcef" d="M2269.636-620.688q20.488 13.84 40.973 27.684.852-.952 1.69-1.917l-40.978-27.684q-.834.964-1.69 1.917" data-name="Path 1487"/><path fill="#c0dcef" d="m2246.538-621.86 55.602 37.565q.93-.88 1.845-1.777l-55.601-37.565q-.915.897-1.846 1.777" data-name="Path 1488"/><path fill="#c0dcef" d="m2242.031-617.764 55.602 37.566q.966-.844 1.92-1.703l-55.601-37.566q-.953.858-1.92 1.703" data-name="Path 1489"/><path fill="#c0dcef" d="m2266.595-594.085 26.353 17.804q1.003-.805 1.99-1.627l-26.35-17.804q-.988.822-1.993 1.627" data-name="Path 1490"/><path fill="#216898" d="m2322.098-671.546-4.881-3.295q-.42 1.52-.873 3.03l1.085.735q-1.353 4.53-2.984 8.948l-2.53-1.714q1.626-4.416 2.982-8.945c.365.245.725.49 1.086.734q.45-1.509.873-3.032l-4.88-3.297q-.423 1.521-.872 3.033l1.265.854q-1.449 4.832-3.203 9.536.574 1.858 1.127 3.709l3.541 2.393q1.47-.482 2.92-.973 1.76-4.704 3.208-9.537l1.265.854q.453-1.51.873-3.033" data-name="Path 1491"/><path fill="#216898" d="M2309.55-660.1c-1.302 1.306-.332 2.311-.33 2.311s1.154-.144.33-2.311" data-name="Path 1492"/><path fill="#216898" d="M2307.345-656.878c.805-1.772 1.871-.914 1.875-.91s.145 1.324-1.875.91" data-name="Path 1493"/><path fill="#216898" d="M2308.617-661.283c-1.54.98-.708 2.122-.707 2.122s1.207.088.707-2.122" data-name="Path 1494"/><path fill="#216898" d="M2305.849-658.661c1.107-1.527 2.062-.5 2.064-.5s-.068 1.28-2.064.5" data-name="Path 1495"/><path fill="#216898" d="M2307.852-662.585c-1.732.626-1.061 1.868-1.058 1.87s1.218.318 1.058-1.87" data-name="Path 1496"/><path fill="#216898" d="M2304.606-660.64c1.368-1.236 2.185-.077 2.188-.077s-.275 1.2-2.188.076" data-name="Path 1497"/><path fill="#216898" d="M2307.272-663.966c-1.87.25-1.379 1.561-1.377 1.561s1.197.537 1.377-1.561" data-name="Path 1498"/><path fill="#216898" d="M2303.646-662.758c1.595-.905 2.246.352 2.249.352s-.47 1.083-2.249-.352" data-name="Path 1499"/><path fill="#216898" d="M2306.89-665.39c-1.951-.131-1.651 1.208-1.65 1.208s1.143.741 1.65-1.207" data-name="Path 1500"/><path fill="#216898" d="M2302.998-664.955c1.771-.548 2.242.772 2.243.772s-.651.933-2.243-.772" data-name="Path 1501"/><path fill="#216898" d="M2306.72-666.806c-1.98-.513-1.872.816-1.875.816s1.053.925 1.876-.816" data-name="Path 1502"/><path fill="#216898" d="M2302.67-667.162c1.89-.173 2.174 1.171 2.174 1.171s-.805.758-2.173-1.171" data-name="Path 1503"/><path fill="#216898" d="M2306.764-668.178c-1.953-.88-2.047.397-2.047.397s.938 1.08 2.047-.397" data-name="Path 1504"/><path fill="#216898" d="M2302.67-669.319c1.961.21 2.047 1.538 2.047 1.538s-.94.557-2.046-1.538" data-name="Path 1505"/><path fill="#216898" d="M2307.02-669.463c-1.872-1.225-2.16-.035-2.16-.035s.796 1.207 2.16.035" data-name="Path 1506"/><path fill="#216898" d="M2302.994-671.36c1.976.589 1.866 1.86 1.866 1.86s-1.046.34-1.866-1.86" data-name="Path 1507"/><path fill="#216898" d="M2306.155-673.058c-1.624.722-.892 1.966-.89 1.966s1.196.268.89-1.966" data-name="Path 1508"/><path fill="#216898" d="M2313.552-657.397c-.09 2.123-1.304 1.653-1.302 1.655s-.544-1.29 1.302-1.655" data-name="Path 1509"/><path fill="#216898" d="M2312.682-653.272c.74-1.818-.434-2.473-.432-2.472s-.947.59.432 2.472" data-name="Path 1510"/><path fill="#216898" d="M2314.833-657.085c.264 2.204-.958 1.954-.956 1.954s-.724-1.217.956-1.954" data-name="Path 1511"/><path fill="#216898" d="M2314.694-652.686c.395-2.009-.82-2.449-.817-2.449s-.798.788.817 2.45" data-name="Path 1512"/><path fill="#216898" d="M2316.089-657.02c.611 2.204-.58 2.194-.578 2.196s-.885-1.103.578-2.196" data-name="Path 1513"/><path fill="#216898" d="M2316.69-652.475c.036-2.137-1.183-2.35-1.18-2.35s-.62.965 1.18 2.35" data-name="Path 1514"/><path fill="#216898" d="M2317.284-657.203c.94 2.148-.182 2.367-.18 2.367s-1.013-.957.18-2.367" data-name="Path 1515"/><path fill="#216898" d="M2318.604-652.653c-.322-2.204-1.503-2.18-1.5-2.18s-.426 1.114 1.5 2.18" data-name="Path 1516"/><path fill="#216898" d="M2318.373-657.63c1.236 2.022.223 2.475.223 2.473s-1.11-.78-.223-2.473" data-name="Path 1517"/><path fill="#216898" d="M2320.373-653.215c-.673-2.198-1.78-1.943-1.778-1.943s-.21 1.23 1.778 1.943" data-name="Path 1518"/><path fill="#216898" d="M2319.324-658.291c1.492 1.832.622 2.503.62 2.5s-1.173-.579-.62-2.5" data-name="Path 1519"/><path fill="#216898" d="M2321.937-654.147c-1.005-2.128-1.99-1.642-1.992-1.643s.007 1.306 1.992 1.643" data-name="Path 1520"/><path fill="#216898" d="M2320.105-659.165c1.703 1.588.998 2.453.998 2.453s-1.193-.358-.998-2.453" data-name="Path 1521"/><path fill="#216898" d="M2323.242-655.421c-1.298-1.991-2.138-1.29-2.138-1.29s.225 1.344 2.138 1.29" data-name="Path 1522"/><path fill="#216898" d="M2320.692-660.227c1.851 1.29 1.34 2.33 1.338 2.33s-1.177-.125-1.338-2.33" data-name="Path 1523"/><path fill="#216898" d="M2324.244-657.003c-1.546-1.79-2.214-.898-2.214-.898s.438 1.343 2.214.898" data-name="Path 1524"/><path fill="#216898" d="M2323.24-661.517c.627 2.243-.54 2.204-.54 2.204s-.878-1.135.54-2.204" data-name="Path 1525"/><path fill="none" stroke="#216898" stroke-linecap="round" stroke-linejoin="round" stroke-width=".5" d="M96.49 117.061a45.714 45.714 0 0 0 2.882-11.413A28.329 28.329 0 0 0 98.3 93.98a61.461 61.461 0 0 0 2.355 14.523 2.881 2.881 0 0 0 1.276 2.047 4.067 4.067 0 0 0 1.017-2.27 17.5 17.5 0 0 0 .28-4.29c-.437 1.836-.514 4.434-.127 4.416a4.1 4.1 0 0 0 1.388-1.738c.466.5 1.317.182 1.813-.282a3.8 3.8 0 0 0 1.033-1.784c.328.246.7-.2.86-.576.428.473.714.312.974.143a.849.849 0 0 0 .307-.753 19.224 19.224 0 0 0-2.926-9.236 4.636 4.636 0 0 0-1.454-1.715 2.912 2.912 0 0 0-.412 2.3 46.038 46.038 0 0 0 2.812 11.527 7.227 7.227 0 0 0 .933 1.829 1.4 1.4 0 0 0 .937.632c.61.048 1.092-.523 1.349-1.078 1.269-2.723.607-6.827 2.37-7.7" data-name="Path 1526" transform="matrix(-.8048 0 0 .8163 2325.889 -683.288)"/><path fill="#c0dcef" d="M2296.236-557.484c-2.387-1.614-6.724.735-9.689 5.24s-3.429 9.47-1.038 11.086l-82.06-55.476c-2.386-1.614-1.921-6.575 1.046-11.085s7.3-6.857 9.689-5.24l82.052 55.475" data-name="Path 1527"/><path fill="none" stroke="#216898" stroke-linecap="round" stroke-linejoin="round" d="M51.716 0 0 34.469" data-name="Line 59" transform="matrix(-.8048 0 0 .8163 2296.237 -585.622)"/><path fill="none" stroke="#216898" stroke-linecap="round" stroke-linejoin="round" d="m92.6 153.027 64.5-42.987c2.964-1.977 2.384-8.055-1.3-13.579s-9.072-8.4-12.039-6.42" data-name="Path 1528" transform="matrix(-.8048 0 0 .8163 2329.88 -686.46)"/><path fill="none" stroke="#216898" stroke-linecap="round" stroke-linejoin="round" d="M76.582 128.2a3.57 3.57 0 0 1-.45.357" data-name="Path 1529" transform="matrix(-.8048 0 0 .8163 2346.777 -646.1)"/><path fill="none" stroke="#216898" stroke-linecap="round" stroke-linejoin="round" d="M70.271 119.914c2.966-1.977 8.356.9 12.039 6.42 3.481 5.223 4.19 10.942 1.747 13.222" data-name="Path 1530" transform="matrix(-.8048 0 0 .8163 2352.79 -655.371)"/></g><g data-name="Group 988"><g data-name="Group 927"><g clip-path="url(#KilderTilVærdi_svg__j)" data-name="Group 926" transform="matrix(.8421 -.04626 .04547 .82783 2082.73 -757.848)"><path fill="#012d46" d="M41.051 86.029h1.674v76.458h-1.674z" data-name="Rectangle 375"/><g data-name="Group 916"><g clip-path="url(#KilderTilVærdi_svg__k)" data-name="Group 915" transform="translate(33.682 175.916)"><path fill="url(#KilderTilVærdi_svg__l)" d="M0 0h26.985v33.315H0z" data-name="Rectangle 376" transform="rotate(-14.76 3.72 28.642)"/></g></g><g data-name="Group 918"><g clip-path="url(#KilderTilVærdi_svg__j)" data-name="Group 917"><path fill="#dd7e17" d="M48.269 180.219c-.916-2.015-1.936-3.521-3-3.861a7.861 7.861 0 0 0-5.462.086c-2.7 1.181-4.4 4.921-4.786 9.355 3.477-3.266 7.812-5.723 13.245-5.58" data-name="Path 1357"/><path fill="none" stroke="#922e02" stroke-miterlimit="10" stroke-width="1.125" d="M39.827 176.443c-3.23 1.413-5.036 6.487-4.865 12.034s-.341 9.645-1.281 12.375a7.251 7.251 0 0 0 4.1.171 85.087 85.087 0 0 0 1.093-15.242c1.115 7.022.262 13.979-.24 18.06a2.039 2.039 0 0 0 2.732.085s.33-11.32.426-16.216c.5 7.916.512 15.533.512 15.533s1.62.6 1.963-.682c-.085-5.292 0-9.9 0-9.9s.683 7.6 1.023 8.962c1.538.6 3.842.341 4.439-.512-.768-1.792-3.158-16.728-3.243-19.2 1.962 9.729 2.986 16.131 3.841 17.411 1.45.682 3.584-1.451 3.584-1.451s-1.281-.427-1.707-3.67-3.455-16.731-6.914-17.838a7.868 7.868 0 0 0-5.463.08Z" data-name="Path 1358"/><path fill="#012d46" d="M45.523 178.178h-6.954a1.007 1.007 0 0 1-1.007-1.008v-16.483a1.007 1.007 0 0 1 1.007-1.008h6.954a1.008 1.008 0 0 1 1.008 1.008v16.483a1.008 1.008 0 0 1-1.008 1.008" data-name="Path 1359"/><path fill="#005078" d="M82.568 37.675 1.39 110.736l2.627 2.628 158.1-35.1 119.531-74.22-.8-2.942Z" data-name="Path 1360"/><path fill="#014163" d="m82.568 37.675 2.628 2.628-81.178 73.061-2.627-2.628Z" data-name="Path 1361"/><path fill="none" stroke="#020c14" stroke-miterlimit="10" stroke-width="2.25" d="M82.568 37.675 1.39 110.736l2.627 2.628 158.1-35.1 119.531-74.22-.8-2.942Z" data-name="Path 1362"/><path fill="#012d46" d="m85.194 40.304-81.176 73.06L164.751 80.89l116.9-76.848Z" data-name="Path 1363"/><path fill="#0b2538" d="m73.954 50.422-69.936 62.94 160.734-32.47 61.236-40.257c-50.06 18.674-131.628 26.89-152.034 9.787" data-name="Path 1364"/><path fill="none" stroke="#020c14" stroke-linecap="round" stroke-linejoin="round" stroke-width="2.25" d="m85.194 40.304-81.176 73.06L164.751 80.89l116.9-76.848Z" data-name="Path 1365"/></g></g><g data-name="Group 920"><g clip-path="url(#KilderTilVærdi_svg__m)" data-name="Group 919" transform="translate(72.407 42.389)"><path fill="url(#KilderTilVærdi_svg__n)" d="M0 0h160.188v126.132H0z" data-name="Rectangle 378" transform="rotate(-14.76 11.96 91.791)"/></g></g><g data-name="Group 925"><g clip-path="url(#KilderTilVærdi_svg__j)" data-name="Group 924"><path fill="none" stroke="#020c14" stroke-miterlimit="10" stroke-width="2.25" d="m195.711 42.389 17.761 66.277s-59.184 26.918-130.085 25.157c-4.494-19.952-8.9-45.184-10.98-56.645 19.982-18.757 68.098-34.894 123.304-34.789Z" data-name="Path 1367"/><path fill="#005078" d="m196.047 49.913 15.453 57.363s-25.931 11.263-46.624 14.93c22.264-23.836 31.17-72.294 31.17-72.294" data-name="Path 1368"/><path fill="#005078" d="m189.048 22.78 86.8-16.477-47.957 31.19s20.3-23.539-38.838-14.712" data-name="Path 1369"/><path fill="#005078" d="m79.462 105.859 5.49 26.963s24.073.547 42.949-2.735c-17.508.274-37.751 0-40.761-2.189-2.735-7.66-7.677-22.039-7.677-22.039" data-name="Path 1370"/><path fill="#005078" d="M84.841 125.527s37.96 4.405 66.482-3.356c-19.295 6.712-55.158 7.341-64.185 5.728-1.878.145-2.3-2.372-2.3-2.372" data-name="Path 1371"/><g data-name="Group 923" opacity=".54"><g data-name="Group 922"><g clip-path="url(#KilderTilVærdi_svg__o)" data-name="Group 921" transform="translate(72.407 42.389)"><path fill="#06111e" d="m123.597 1.097-.293-1.1C68.098-.103 19.983 16.029.004 34.786c1.081 5.94 2.784 15.579 4.8 26.263 27.395-44.62 84.324-59.279 118.8-59.954" data-name="Path 1372"/></g></g></g></g></g></g></g></g></g><g data-name="Group 1094"><g clip-path="url(#KilderTilVærdi_svg__p)" data-name="Group 1093" transform="matrix(.4686 0 0 .49764 1952.014 -569.694)"><path fill="#f3d643" d="M164 246.443c-.164 3.21-147.358-.487-162.483-114.461C-14.909 8.218 106.445-19.52 163.658 11.901c50.89 27.961 78.405 102.773 31.328 165.109-21.589 28.586-59.624 37.48-56.819 43.8 3.88 8.738 26.035 21.645 25.83 25.629" data-name="Path 1621"/><path d="M77.866 101.511a5.181 5.181 0 1 1-5.286-5.074 5.176 5.176 0 0 1 5.286 5.074" data-name="Path 1622"/><path d="M157.301 99.885a5.183 5.183 0 1 1-5.282-5.074 5.176 5.176 0 0 1 5.282 5.074" data-name="Path 1623"/><path d="M88.683 112.127s.1.279.272.677c.2.443.5 1.09.885 1.919a33.9 33.9 0 0 0 4 6.312 31.469 31.469 0 0 0 3.337 3.459 23.982 23.982 0 0 0 4.311 2.879 20.707 20.707 0 0 0 5.174 1.823 24.725 24.725 0 0 0 5.632.58c1.09-.056 2.321-.033 3.288-.153l2.615-.461c.885-.3 1.789-.528 2.667-.8l2.462-1.131a24.019 24.019 0 0 0 4.206-3.004 27.055 27.055 0 0 0 3.221-3.56 32.468 32.468 0 0 0 3.773-6.447c.74-1.681 1.064-2.667 1.045-2.608a1.963 1.963 0 0 1 3.869.67l-.108.926a22.694 22.694 0 0 1-.439 2.429 32.024 32.024 0 0 1-3.184 8.228 26.985 26.985 0 0 1-3.545 4.929 26.43 26.43 0 0 1-5.312 4.467c-1.049.61-2.165 1.149-3.281 1.726a81.603 81.603 0 0 1-3.578 1.254c-1.287.279-2.626.506-3.954.729-1.246.156-2.273.141-3.422.219a28.884 28.884 0 0 1-7.652-.859 23.953 23.953 0 0 1-6.9-2.8 25.007 25.007 0 0 1-5.442-4.281c-.755-.792-1.41-1.622-2.072-2.4l-1.626-2.422a31.551 31.551 0 0 1-3.422-8.135 21.694 21.694 0 0 1-.517-2.422 98.71 98.71 0 0 1-.123-.893 1.968 1.968 0 0 1 3.805-.923Z" data-name="Path 1624"/><path fill="#ce4a70" d="M71.014 120.418a15.349 15.349 0 1 0-15.034 15.656 15.35 15.35 0 0 0 15.034-15.656" data-name="Path 1625"/><path fill="#ce4a70" d="M181.889 120.421a15.349 15.349 0 1 0-15.031 15.66 15.348 15.348 0 0 0 15.032-15.66" data-name="Path 1626"/></g></g></g><text x="1593.38" y="-1081.46" style="fill:#557591;font-family:&quot;Roboto Slab&quot;;font-size:56px;font-weight:700;white-space:pre">Kilder til værdi</text></svg>