<svg width="527.464" height="702.478" xmlns="http://www.w3.org/2000/svg"><g stroke="#323f51" data-name="Group 692"><path fill="none" stroke-linecap="round" stroke-linejoin="round" stroke-width="8" d="M200.911 545.298c-.7 56.252-1.4 94.121-2.1 150.377a296.56 296.56 0 0 1-57.764 1.081" data-name="Path 817"/><path fill="none" stroke-linecap="round" stroke-linejoin="round" stroke-width="8" d="M319.564 552.694c-2.627 53.958-2.7 90.2-.228 144.162a137.812 137.812 0 0 1 58.074.823" data-name="Path 818"/><path fill="none" stroke-linecap="round" stroke-linejoin="round" stroke-width="8" d="M443.93 242.047c31.636 19.809 52.414 43.218 69.1 76.612 8.541 17.1 14.619 37.559 6.819 55-5.419 12.116-16.721 20.64-28.622 26.511-44.054 21.747-97.472 13.115-143.671 29.827" data-name="Path 819"/><g fill="none" stroke-linecap="round" stroke-linejoin="round" stroke-width="5" data-name="Group 551"><path d="M248.683 160.671c-.151-15.381-49.71-14.903-49.559.481" data-name="Path 200"/><path d="M328.376 160.671c-.151-15.381-49.707-14.903-49.557.481" data-name="Path 201"/><path d="M264.157 215.33c-18.79-14.811-39.663-11.425-56.762.55" data-name="Path 202"/></g><path fill="#7ed6ad" stroke-linejoin="round" stroke-width="4" d="M67.067 336.03h154.84v61.021H63.071Z" data-name="Path 1073"/><path fill="#7ed6ad" stroke-linejoin="round" stroke-width="4" d="M67.068 458.674h154.84v61.021l-102.785-1.521-32.992-24.154Z" data-name="Path 1079"/><path fill="#7ed6ad" stroke-linejoin="round" stroke-width="4" d="M144.195 274.708h154.84v61.021h-154.84Z" data-name="Path 1074"/><path fill="none" stroke-linejoin="round" stroke-width="4" d="M122.284 519.996h134.4v33.511l-12.9-1.622-19.615-2.267-22.586-2.96-26.762-6.275Z" data-name="Path 1082"/><path fill="#7ed6ad" stroke-linejoin="round" stroke-width="4" d="m144.195 399.115 154.84-1.767v61.021h-154.84Z" data-name="Path 1077"/><path fill="#efdc74" stroke-linejoin="round" stroke-width="4" d="M223.423 336.03h153.369v41.52l-17.223 2.5-10.182 17-19.945-7.52-19.912 7.52h-87.578Z" data-name="Path 1075"/><path fill="#cc5858" stroke-linejoin="round" stroke-width="4" d="M224.472 458.674h152.32v41.52l-37.707 1.454s-.285 2.022-20.973 6.534c-1.2.262-8.508-10.9-10.027-10.578-21.328 4.452-51.752 22.092-51.752 22.092h-34.381Z" data-name="Path 1080"/><path fill="#cc5858" stroke-linejoin="round" stroke-width="4" d="M299.712 397.352H407.15l3.3 17.547 16.174 15.3-9.775 10.131s-.285 2.022-20.973 6.534c-1.2.262-7.381 11.514-7.381 11.514h-88.779Z" data-name="Path 1081"/><path fill="#7ed6ad" stroke-linejoin="round" stroke-width="4" d="M301.215 274.708h147.744l2.438 42.7v18.322H301.215Z" data-name="Path 1076"/><path fill="none" stroke-linecap="round" stroke-linejoin="round" stroke-width="8" d="M73.501 243.484c-39.161 9.217-69.467 47.444-69.505 87.677-.009 9.528 1.56 19.21 5.875 27.708 8.015 15.777 24.211 25.43 39.7 34a1728.016 1728.016 0 0 0 170.143 82.25" data-name="Path 815"/><path fill="none" stroke-miterlimit="10" stroke-width="10" d="M201.353 17.855c-44.748 24.81-71.874 72.357-91.1 119.775A655.051 655.051 0 0 0 63.64 421.85c1.12 18.611 3.183 37.692 11.742 54.258 10.863 21.028 31.081 35.728 52.272 46.272 40.221 20.011 85.567 27.583 130.427 30 38.136 2.05 77.305.383 112.892-13.477s67.347-41.547 78.456-78.085c6.577-21.626 5.66-44.722 4.682-67.3q-1.441-33.344-2.886-66.688c-2.576-59.521-5.345-120.094-25.344-176.216s-60.2-108.158-116.54-127.536c-17.936-6.172-39.795-20.739-58.509-17.655-40.647 6.693-21.346 2.416-49.481 12.443" data-name="Path 814"/></g></svg>