<svg width="371.239" height="362.019" xmlns="http://www.w3.org/2000/svg"><g data-name="Group 777"><path fill="#fff" d="m124.751 59.69 16.026-6.804c68.898-29.25 177.713 71.79 177.713 71.79s-2.89 148.457-71.788 177.707l-16.025 6.804a135.528 135.528 0 1 1-105.922-249.5Z" data-name="Path 1116"/><g data-name="Group 725"><path fill="#903" d="M139.163 127.706s39.697 65.247 48.087 63.19 50.076-61.53 50.076-61.53-12.54-17.232-49.325-18.198-48.838 16.538-48.838 16.538Z" data-name="Path 1090"/><path fill="#7ec8d6" d="M189.185 264.135s1.079-59.715-4.973-67.113-49.767-65.844-49.767-65.844-26.91 21.708-32.09 52.151c-4.786 28.11 15.2 61.45 31.065 69.013 33.12 15.79 55.765 11.793 55.765 11.793Z" data-name="Path 1092"/><path fill="#e79e17" d="M242.558 136.006s-53.172 53.956-53.121 63.513 3.963 64.217 3.963 64.217 24.218 4.441 47.4-15.96c21.4-18.83 24.807-72.3 17.233-88.16-15.806-33.112-15.475-23.61-15.475-23.61Z" data-name="Path 1093"/><g stroke="#323f51" data-name="Group 694"><g fill="none" stroke-width="2" data-name="Group 693"><g data-name="Group 540"><path d="M260.085 200.085c-2.853 27.185-12.274 70.611-89.192 63.247S93.4 181.709 116.05 150.772s68.087-59.015 120.436-23.746c27.033 18.216 25.364 56.251 23.6 73.059Z" data-name="Path 793"/><path d="M103.97 178.257c2.135-10.87 6.315-20.629 11.593-27.838 23.88-32.622 69.965-58.445 121.256-23.889 19.304 13.005 27.554 38.462 23.863 73.617-1.464 13.95-4.716 31.662-16.979 44.926-14.558 15.749-39.074 22.094-72.869 18.857-38.407-3.677-54.996-23.459-62.15-39.407-6.77-15.095-7.58-31.681-4.714-46.266Zm155.517 21.764c3.643-34.686-4.426-59.755-23.337-72.495-50.584-34.08-96.05-8.585-119.616 23.602-11.86 16.199-18.257 47.254-6.752 72.902 7.024 15.657 23.335 35.08 61.168 38.704 71.917 6.886 85.091-29.9 88.536-62.712Z" data-name="Path 794"/></g><path d="M146.455 126.981a.6.6 0 0 1 .269-.391 78.867 78.867 0 0 1 26.818-10.926c13.865-2.742 27.96-1.274 41.936 4.369q1.19.48 2.386 1.005a.606.606 0 0 1 .314.795.6.6 0 0 1-.794.314c-14.523-6.367-29.195-8.149-43.607-5.297a77.678 77.678 0 0 0-26.416 10.763.6.6 0 0 1-.83-.186.594.594 0 0 1-.076-.446Z" data-name="Path 795"/><path d="M122.08 236.654a.6.6 0 0 1 .194-.335.6.6 0 0 1 .848.055 59.6 59.6 0 0 0 18.775 14.203.61.61 0 0 1 .275.804.6.6 0 0 1-.804.274 60.816 60.816 0 0 1-19.145-14.483.6.6 0 0 1-.143-.518Z" data-name="Path 796"/><path d="M205.488 258.234a.6.6 0 0 1 .487-.476 78.031 78.031 0 0 0 10.115-2.432.6.6 0 0 1 .753.392.6.6 0 0 1-.392.754 79.176 79.176 0 0 1-10.27 2.47.6.6 0 0 1-.695-.489.612.612 0 0 1 .002-.219Z" data-name="Path 797"/><path d="M232.748 247.24a.6.6 0 0 1 .23-.364 48.03 48.03 0 0 0 5.827-5.138 48.255 48.255 0 0 0 4.68-5.682.6.6 0 0 1 .838-.146.6.6 0 0 1 .146.837 49.222 49.222 0 0 1-4.8 5.826 49.007 49.007 0 0 1-5.972 5.27.6.6 0 0 1-.84-.123.6.6 0 0 1-.109-.48Z" data-name="Path 798"/><path d="M232.904 130.285a.621.621 0 0 1 .096-.22.6.6 0 0 1 .835-.162c13.301 8.962 21.007 23.969 22.905 44.607a.6.6 0 0 1-.544.654.6.6 0 0 1-.653-.544c-1.863-20.258-9.394-34.966-22.381-43.716a.6.6 0 0 1-.258-.619Z" data-name="Path 799"/><path d="M109.408 173.791a51.806 51.806 0 0 1 7.213-16.145 90.021 90.021 0 0 1 4.017-5.752l.958.724a89.228 89.228 0 0 0-3.964 5.676 50.625 50.625 0 0 0-7.05 15.762Z" data-name="Path 800"/><path d="M126.848 144.385a118.3 118.3 0 0 1 9.185-9.206l.788.907c-.04.036-9.079 9.103-9.079 9.103Z" data-name="Path 801"/></g><path fill="#fff" stroke-linecap="round" stroke-linejoin="round" stroke-width="3" d="m74.157 140.971.302 17.29c.013.713.013.705.703.688 1.223-.028 2.448-.058 3.671-.054.367 0 .483-.109.514-.477.106-1.292.039-2.586.077-3.878.087-2.976.075-5.956.114-8.933q.063-4.865.144-9.729c.045-3.19.082-6.38.155-9.568.021-.885.04-1.772.042-2.657a1.364 1.364 0 0 1 1.242-1.545 2.6 2.6 0 0 1 1.775.401c.233.115.199.397.21.624.041 1.115.083 2.23.144 3.346.122 2.23.155 4.465.27 6.696.203 3.983.362 7.967.534 11.951.112 2.62.26 5.24.343 7.862.056 1.805.189 3.609.28 5.413.013.272.07.413.4.4 1.312-.05 2.624-.068 3.935-.098.736-.013.738-.013.725-.755l-.602-34.475c-.015-.867.202-1.203.958-1.48a1.685 1.685 0 0 1 1.79.495.739.739 0 0 1 .17.436q.33 3.68.666 7.356c.245 2.596.497 5.183.736 7.775.2 2.188.376 4.376.58 6.563.238 2.596.49 5.184.735 7.775.162 1.764.262 3.534.464 5.293a11.039 11.039 0 0 1-.836 5.506 11.337 11.337 0 0 1-3.778 4.923 9.451 9.451 0 0 0-3.896 5.997 15.883 15.883 0 0 0-.061 4.137c.111 1.575.115 3.152.229 4.727.145 2.013.153 4.038.255 6.056q.291 5.735.53 11.473c.103 2.407.227 4.815.337 7.223q.262 5.683.52 11.366.164 3.64.337 7.277.272 5.656.519 11.313c.111 2.48.24 4.958.34 7.437.133 3.312.354 6.62.459 9.932a6.414 6.414 0 0 1-5.722 6.568 6.35 6.35 0 0 1-6.912-5.28 27.852 27.852 0 0 1-.094-4.834c.014-1.276.077-2.55.091-3.826.036-3.137.048-6.274.084-9.412q.08-6.859.18-13.718.068-5.024.14-10.049.073-5.263.139-10.527.069-5.21.142-10.419c.046-3.438.08-6.876.142-10.314.043-2.357.133-4.714.076-7.071a8.745 8.745 0 0 0-3.889-7.307 12.492 12.492 0 0 1-5.369-7.761 18.945 18.945 0 0 1-.108-4.874c.053-1.309.142-2.617.213-3.924q.192-3.582.38-7.163c.091-1.75.168-3.503.258-5.254.123-2.403.253-4.811.374-7.217q.133-2.602.255-5.205c.061-1.256.14-2.512.171-3.769a1.369 1.369 0 0 1 1.026-1.369 1.5 1.5 0 0 1 2.09 1.405l.301 17.238Z" data-name="Path 1085"/><path fill="#fff" stroke-linecap="round" stroke-linejoin="round" stroke-width="3" d="m287.68 137.861.33 18.938c.051 2.923.093 5.848.21 8.77.176 4.338.423 8.673.628 13.01.145 3.117.266 6.235.404 9.352.101 2.32.212 4.638.321 6.956.12 2.62.217 5.242.365 7.862.132 2.336.233 4.673.322 7.011.153 3.825.346 7.648.522 11.473.112 2.425.208 4.852.337 7.277.204 3.823.368 7.648.532 11.473.096 2.23.244 4.457.316 6.69.03.92.119 1.838.143 2.76a6.375 6.375 0 0 1-12.701 1.032c-.181-2.157-.005-4.319.004-6.48.015-3.792.086-7.585.135-11.377l.088-6.433.192-14.142q.042-3.35.09-6.703c.046-3.491.06-6.983.156-10.474.04-1.417-.06-2.837.092-4.25.048-.455-.11-.63-.592-.61-1.222.052-2.448.034-3.67.084-.494.02-.65-.144-.639-.629.082-3.472.074-6.946.218-10.417.064-1.542.096-3.083.146-4.624.082-2.585.202-5.168.376-7.75.16-2.297.27-4.596.453-6.89q.315-3.918.726-7.828.452-4.334 1.1-8.644a118.438 118.438 0 0 1 4.24-19.182 41.36 41.36 0 0 1 2.738-6.683 5.175 5.175 0 0 1 .354-.594.855.855 0 0 1 .994-.317.832.832 0 0 1 .654.809c.162 2.674.145 5.353.192 8.03.026 1.505.062 3.01.088 4.517q.066 3.993.136 7.983Z" data-name="Path 1086"/></g></g></g></svg>