<svg xmlns="http://www.w3.org/2000/svg" width="333.971" height="328.421" viewBox="0 0 333.971 328.421">
  <g id="Group_781" data-name="Group 781" transform="translate(-234.847 -2520.187)">
    <path id="Path_1120" data-name="Path 1120" d="M127.276,0H143.63c70.293,0,147.6,106.639,127.469,178.217S213.923,266.5,143.63,266.5H127.276C56.984,266.5,0,206.839,0,133.248S56.984,0,127.276,0Z" transform="matrix(-0.966, 0.259, -0.259, -0.966, 568.818, 2777.602)" fill="#fff"/>
    <g id="Group_726" data-name="Group 726" transform="translate(265.412 2611.496)">
      <path id="Path_760" data-name="Path 760" d="M248.079,237.656H117.418A10.173,10.173,0,0,1,107.256,227.5a35.289,35.289,0,0,1,13.772-27.986l4.665-3.369c15.423-11.151,20.816-16.526,57.054-14.682s45.63,6.4,61.061,17.556a35.185,35.185,0,0,1,14.434,28.48A10.173,10.173,0,0,1,248.079,237.656ZM124.334,203.876a29.791,29.791,0,0,0-11.6,23.623,4.69,4.69,0,0,0,4.686,4.682H248.079a4.69,4.69,0,0,0,4.686-4.682c0-9.548-4.22-20.13-11.837-25.638-14.517-10.5-40.4-15.729-62.65-15.729s-38.86,6.828-53.378,17.325Z" transform="translate(-52.106 -181.105)" fill="#323f51"/>
      <path id="Path_761" data-name="Path 761" d="M142.343,212.928a2.738,2.738,0,0,1-2.68-2.19l-2.357-11.478a2.738,2.738,0,0,1,5.364-1.1l2.357,11.478a2.741,2.741,0,0,1-2.13,3.235A2.942,2.942,0,0,1,142.343,212.928Z" transform="translate(37.525 -144.962)" fill="#323f51"/>
      <path id="Path_762" data-name="Path 762" d="M131.166,213.915a2.74,2.74,0,0,1-2.74-2.74V198.728a2.738,2.738,0,0,1,5.476,0v12.447A2.736,2.736,0,0,1,131.166,213.915Z" transform="translate(11.157 -144.913)" fill="#323f51"/>
      <path id="Path_763" data-name="Path 763" d="M120.366,212.882a2.91,2.91,0,0,1-.487-.044,2.74,2.74,0,0,1-2.214-3.175l2.042-11.41a2.737,2.737,0,1,1,5.388.961l-2.038,11.411A2.74,2.74,0,0,1,120.366,212.882Z" transform="translate(-21.125 -144.916)" fill="#323f51"/>
      <path id="Path_764" data-name="Path 764" d="M242.416,230.547l-118.557-.036c-8.156,0-16.6-4.616-16.6-12.768V216.8a10.174,10.174,0,0,1,10.162-10.162H248.079A10.174,10.174,0,0,1,258.241,216.8v.941c0,7.793-7.1,12.217-14.789,12.768C243.131,230.534,242.775,230.547,242.416,230.547Zm-125-20.41c-2.584,0-4.686,4.081-4.686,6.665v.941a9.323,9.323,0,0,0,9.313,9.313H243.452a9.326,9.326,0,0,0,9.313-9.313V216.8c0-2.585-54.781-5.659-54.781-5.659Z" transform="translate(-52.106 -113.093)" fill="#323f51"/>
      <path id="Path_765" data-name="Path 765" d="M144.14,196.962a2.73,2.73,0,0,1-1.934-.8l-3.043-3.043a2.738,2.738,0,0,1,3.873-3.873l3.043,3.043a2.738,2.738,0,0,1-1.938,4.674Z" transform="translate(40.845 -167.471)" fill="#323f51"/>
      <path id="Path_766" data-name="Path 766" d="M145.094,201.512a2.732,2.732,0,0,1-1.938-.8l-3.043-3.047a2.738,2.738,0,0,1,3.877-3.869l3.043,3.043a2.74,2.74,0,0,1-1.938,4.674Z" transform="translate(43.696 -153.883)" fill="#323f51"/>
      <path id="Path_767" data-name="Path 767" d="M138.947,195.317a2.737,2.737,0,0,1-1.938-.806l-3.043-3.043a2.74,2.74,0,0,1,3.877-3.873l3.043,3.047a2.742,2.742,0,0,1-1.938,4.674Z" transform="translate(25.327 -172.399)" fill="#323f51"/>
      <path id="Path_768" data-name="Path 768" d="M139.712,200.568a2.723,2.723,0,0,1-1.934-.8l-3.043-3.043a2.737,2.737,0,0,1,3.869-3.873l3.043,3.043a2.738,2.738,0,0,1-1.934,4.674Z" transform="translate(27.605 -156.695)" fill="#323f51"/>
      <path id="Path_769" data-name="Path 769" d="M135.2,199.23h-4.3a2.738,2.738,0,1,1,0-5.476h4.3a2.738,2.738,0,0,1,0,5.476Z" transform="translate(10.362 -151.6)" fill="#323f51"/>
      <path id="Path_770" data-name="Path 770" d="M134.1,198.53a2.724,2.724,0,0,1-1.934-.8l-3.043-3.043a2.736,2.736,0,1,1,3.869-3.869l3.043,3.039a2.738,2.738,0,0,1-1.934,4.674Z" transform="translate(10.837 -162.773)" fill="#323f51"/>
      <path id="Path_771" data-name="Path 771" d="M116.08,196.581a2.74,2.74,0,0,1-1.938-4.674l3.043-3.043a2.738,2.738,0,1,1,3.873,3.873l-3.043,3.039A2.734,2.734,0,0,1,116.08,196.581Z" transform="translate(-33.925 -168.61)" fill="#323f51"/>
      <path id="Path_772" data-name="Path 772" d="M123.047,198.53a2.733,2.733,0,0,1-1.938-.8l-3.043-3.043a2.737,2.737,0,1,1,3.873-3.869l3.043,3.039a2.738,2.738,0,0,1-1.934,4.674Z" transform="translate(-22.199 -162.773)" fill="#323f51"/>
      <path id="Path_773" data-name="Path 773" d="M118.9,201.512a2.738,2.738,0,0,1-1.934-4.674l3.043-3.043a2.737,2.737,0,1,1,3.873,3.869l-3.047,3.047A2.717,2.717,0,0,1,118.9,201.512Z" transform="translate(-25.48 -153.883)" fill="#323f51"/>
      <path id="Path_774" data-name="Path 774" d="M123.129,194.93a2.736,2.736,0,0,1-1.934-4.67l3.043-3.043a2.737,2.737,0,0,1,3.873,3.869l-3.043,3.043A2.733,2.733,0,0,1,123.129,194.93Z" transform="translate(-12.848 -173.54)" fill="#323f51"/>
      <path id="Path_775" data-name="Path 775" d="M126.173,200.187a2.74,2.74,0,0,1-1.938-4.674l3.043-3.043a2.738,2.738,0,0,1,3.873,3.873l-3.043,3.039A2.718,2.718,0,0,1,126.173,200.187Z" transform="translate(-3.764 -157.834)" fill="#323f51"/>
      <path id="Path_776" data-name="Path 776" d="M129.333,194.808a2.736,2.736,0,0,1-1.982-4.622l2.967-3.119a2.738,2.738,0,1,1,3.964,3.777l-2.967,3.115A2.719,2.719,0,0,1,129.333,194.808Z" transform="translate(5.687 -174.115)" fill="#323f51"/>
      <path id="Path_777" data-name="Path 777" d="M113.326,201.331a2.738,2.738,0,0,1-1.934-4.674l3.043-3.043a2.737,2.737,0,0,1,3.869,3.873l-3.043,3.043A2.723,2.723,0,0,1,113.326,201.331Z" transform="translate(-42.151 -154.415)" fill="#323f51"/>
      <path id="Path_778" data-name="Path 778" d="M139.719,226.456a39.942,39.942,0,0,1-9.58-1.36,33.9,33.9,0,0,0-17.64.5,4.788,4.788,0,0,1-5.9-6.086l7.147-21.744a2.744,2.744,0,0,1,4-1.5,4.558,4.558,0,0,0,2.369.658H250.774a4.644,4.644,0,0,0,2.584-.782,2.735,2.735,0,0,1,4.124,1.444l6.772,21.146a4.775,4.775,0,0,1-6.078,5.99c-4.594-1.555-14.306-3.761-27.679-1.017-11.3,2.325-16.6.618-21.262-.889-4-1.284-7.155-2.3-14.214-.3-10.17,2.891-15.842,1.4-21.333-.052a40.3,40.3,0,0,0-13.173-1.747,21.575,21.575,0,0,0-9.951,2.82A21.741,21.741,0,0,1,139.719,226.456Zm-17.3-7.777a37.2,37.2,0,0,1,9.045,1.1c9.584,2.4,12.707.838,16.651-1.137a26.836,26.836,0,0,1,12.168-3.394,45.805,45.805,0,0,1,14.8,1.926c5.217,1.372,9.715,2.557,18.438.076,8.659-2.465,13.1-1.029,17.393.355,4.224,1.364,8.583,2.764,18.482.734,13.488-2.768,23.7-.893,29.234.782l-5.448-17.014a10.137,10.137,0,0,1-2.409.291H120.113a10.1,10.1,0,0,1-2.05-.211L112.208,220A40.829,40.829,0,0,1,122.418,218.678Z" transform="translate(-54.781 -145.843)" fill="#323f51"/>
      <path id="Path_779" data-name="Path 779" d="M250.136,244.132l-131.6-1.652c-1.516,0-3.717.428-3.717-1.087V224.705a34.331,34.331,0,0,0-3.9.893c-1.723.5-4.658.391-5.9-.893s0-5.193,0-5.193l7.147-21.744a2.744,2.744,0,0,1,4-1.5,4.57,4.57,0,0,0,2.369.654H249.2a4.666,4.666,0,0,0,2.588-.782,2.734,2.734,0,0,1,4.12,1.448l6.772,21.146a4.775,4.775,0,0,1-6.078,5.99c-.9-.3-2.158-.686-3.725-1.053v17.724A2.737,2.737,0,0,1,250.136,244.132Zm-128.185-5.476c9.579-1.615,78.273-2.758,109.413,0S247.4,220.342,247.4,220.342a2.736,2.736,0,0,1,3.175-2.7,50.8,50.8,0,0,1,6.481,1.48l-5.448-17.01a10.135,10.135,0,0,1-2.409.287H118.538a10.1,10.1,0,0,1-2.05-.211L110.633,220a42.233,42.233,0,0,1,6.68-1.141,2.689,2.689,0,0,1,2.094.706,2.742,2.742,0,0,1,.889,2.022S112.371,240.271,121.951,238.656Z" transform="translate(-53.206 -145.844)" fill="#323f51"/>
      <path id="Path_780" data-name="Path 780" d="M113.144,212.927a2.816,2.816,0,0,1-.626-.072,2.742,2.742,0,0,1-2.042-3.29l2.684-11.478a2.738,2.738,0,1,1,5.332,1.248l-2.684,11.478A2.74,2.74,0,0,1,113.144,212.927Z" transform="translate(-42.699 -144.962)" fill="#323f51"/>
      <path id="Path_781" data-name="Path 781" d="M113.2,193.538h-5.476a2.738,2.738,0,0,1,0-5.476H113.2a2.738,2.738,0,1,1,0,5.476Z" transform="translate(-58.883 -168.61)" fill="#323f51"/>
      <path id="Path_782" data-name="Path 782" d="M111.86,193.538h-8.292a2.738,2.738,0,1,1,0-5.476h8.292a2.738,2.738,0,1,1,0,5.476Z" transform="translate(-71.315 -168.61)" fill="#323f51"/>
      <path id="Path_783" data-name="Path 783" d="M105.588,193.538h-5.476a2.738,2.738,0,0,1,0-5.476h5.476a2.738,2.738,0,0,1,0,5.476Z" transform="translate(-81.63 -168.61)" fill="#323f51"/>
      <path id="Path_784" data-name="Path 784" d="M109.252,200.3h-5.476a2.738,2.738,0,0,1,0-5.476h5.476a2.738,2.738,0,1,1,0,5.476Z" transform="translate(-70.681 -148.4)" fill="#323f51"/>
      <path id="Path_785" data-name="Path 785" d="M107.912,200.3H99.62a2.738,2.738,0,1,1,0-5.476h8.292a2.738,2.738,0,1,1,0,5.476Z" transform="translate(-83.112 -148.4)" fill="#323f51"/>
      <path id="Path_786" data-name="Path 786" d="M101.64,200.3H96.164a2.738,2.738,0,0,1,0-5.476h5.476a2.738,2.738,0,0,1,0,5.476Z" transform="translate(-93.428 -148.4)" fill="#323f51"/>
      <path id="Path_787" data-name="Path 787" d="M110.617,207.063h-5.476a2.738,2.738,0,1,1,0-5.476h5.476a2.738,2.738,0,0,1,0,5.476Z" transform="translate(-66.614 -128.193)" fill="#323f51"/>
      <path id="Path_788" data-name="Path 788" d="M109.277,207.063h-8.3a2.738,2.738,0,1,1,0-5.476h8.3a2.738,2.738,0,0,1,0,5.476Z" transform="translate(-79.045 -128.193)" fill="#323f51"/>
      <path id="Path_789" data-name="Path 789" d="M103,207.063H97.529a2.738,2.738,0,1,1,0-5.476H103a2.738,2.738,0,0,1,0,5.476Z" transform="translate(-89.361 -128.193)" fill="#323f51"/>
      <path id="Path_790" data-name="Path 790" d="M109.252,214.676h-5.476a2.738,2.738,0,0,1,0-5.476h5.476a2.738,2.738,0,1,1,0,5.476Z" transform="translate(-70.681 -105.443)" fill="#323f51"/>
      <path id="Path_791" data-name="Path 791" d="M107.912,214.676H99.62a2.738,2.738,0,1,1,0-5.476h8.292a2.738,2.738,0,1,1,0,5.476Z" transform="translate(-83.112 -105.443)" fill="#323f51"/>
      <path id="Path_792" data-name="Path 792" d="M101.64,214.676H96.164a2.738,2.738,0,0,1,0-5.476h5.476a2.738,2.738,0,0,1,0,5.476Z" transform="translate(-93.428 -105.443)" fill="#323f51"/>
    </g>
    <g id="Group_733" data-name="Group 733" transform="translate(530.705 2678.85) rotate(90)">
      <g id="Group_80" data-name="Group 80" transform="translate(0 0)">
        <path id="Path_294" data-name="Path 294" d="M13.258,8.065,122.762.039c6.6-.484,11.392,3.682,10.705,9.3S126.874,19.915,120.275,20.4l-109.5,8.027c-6.6.484-11.392-3.682-10.705-9.3S6.659,8.549,13.258,8.065Z" transform="translate(74.67 140.056) rotate(-124)" fill="#903"/>
        <path id="Path_295" data-name="Path 295" d="M13.005.039,145.321,8.126c7.974.487,15.116,5.437,15.951,11.056s-4.951,9.779-12.925,9.291L16.031,20.386C8.057,19.9.916,14.949.08,9.33S5.031-.449,13.005.039Z" transform="matrix(-0.384, 0.923, -0.923, -0.384, 94.914, 10.955)" fill="#903"/>
      </g>
    </g>
  </g>
</svg>
