<svg xmlns="http://www.w3.org/2000/svg" width="553.755" height="575.737" viewBox="0 0 553.755 575.737">
  <g id="Group_705" data-name="Group 705" transform="matrix(0.883, 0.469, -0.469, 0.883, 696.449, -165.098)">
    <g id="Group_704" data-name="Group 704" transform="translate(-353.304 374.84)">
      <path id="Path_1099" data-name="Path 1099" d="M21.634,726.292a10.238,10.238,0,0,0-.4-3.232c-1.593-9.261-2.695-18.555-2.179-27.988.155-2.837.066-5.687.024-8.526a17.029,17.029,0,0,0-.335-4.558c-1.6-5.344-1.362-10.8-1.442-16.266-.041-2.835-.438-5.664-.652-8.5-.3-3.915-.673-7.825-.837-11.745-.5-11.761,1.163-23.605-1.412-35.283a2.566,2.566,0,0,1-.03-.655,126.31,126.31,0,0,0-1.255-20.262c-.486-3.887-.326-7.84-1.418-11.678a16.2,16.2,0,0,1-.382-4.555c.06-5.91.11-11.808-1.531-17.572a10.058,10.058,0,0,1-.2-1.952c-.677-8.7-1.094-17.428-2.1-26.087a180.692,180.692,0,0,1-1-20.944,27.118,27.118,0,0,0-.364-6.527c-1.2-4.742-1.145-9.528-1.138-14.335.011-6.562.039-13.122,0-19.682-.012-1.96-.216-3.92-.379-5.875-.359-4.344-.935-8.679-1.08-13.03-.217-6.539.346-13.1-1.3-19.565A21.645,21.645,0,0,1,2,422.251c0-4.591.059-9.186.063-13.775,0-1.527.253-3.175-.217-4.558-1.522-4.49-1.1-9.074-1.091-13.652,0-2.385,0-4.769,0-7.422-4.757-2.732-9.457-4.51-14.905-4.469-22.084.157-44.173.029-66.255.3-7.852.1-15.708.877-23.531,1.637-6.734.653-13.391,1.972-20.219,1.737a44.851,44.851,0,0,0-7.81.812c-7.352,1.062-14.69,2.242-22.045,3.276q-22.071,3.107-44.155,6.1c-5.412.736-10.826,1.646-16.266,1.945a76.045,76.045,0,0,0-13.59,1.922c-4.246,1.014-8.528,2.426-12.82,2.533-5.539.142-10.823,1.317-16.185,2.278a40.178,40.178,0,0,1-4.505.818c-7.188.448-14.389.7-21.571,1.228a37.4,37.4,0,0,0-9.008,1.533,24.767,24.767,0,0,1-7.686,1.254c-12.027.157-24.05.349-36.077.468a32.541,32.541,0,0,0-12.188,1.987c-.161,1.6-.311,2.882-.415,4.16-.631,7.715,1.925,15.114,2.259,22.742.143,3.25.77,6.48.929,9.732.226,4.582-.281,9.254.418,13.748a240.555,240.555,0,0,1,2.731,39.2,29.548,29.548,0,0,0,.324,5.877c1.388,7.137,1.453,14.335,1.358,21.561a57.447,57.447,0,0,0,.308,8.5c1.189,8.661,2.654,17.28,3.867,25.936a160.238,160.238,0,0,1,1.872,16.924,86.919,86.919,0,0,0,1.642,15.618c2.41,11.123,3.191,22.457,4.6,33.7,1.141,9.088,1.711,18.243,2.628,27.361.282,2.818.934,5.6,1.3,8.411a81.558,81.558,0,0,1,1,9.733c.11,12.681.017,25.366.042,38.047a33.316,33.316,0,0,0,.4,6.524c1.613,7.914,1.85,15.983,2.488,23.972.676,8.472.172,17.045.053,25.57a38.239,38.239,0,0,1-.884,6.429c-.978,5.181-.671,10.332-.134,15.862,2.2.159,4.113.4,6.025.417,8.31.044,16.629.258,24.927-.059,5.583-.213,10.946,1.012,16.1,2.417a251.176,251.176,0,0,1,26.609,9.183,42.346,42.346,0,0,0,15.892,3.191c8.356-.072,16.517,1.412,24.77,1.974,7.775.528,15.461,2.518,23.291,3.316,3.9.4,7.76,1.074,11.711,1.1a37.37,37.37,0,0,1,8.46.7,43.806,43.806,0,0,0,10.4.981c4.374.006,8.747.051,13.119.01a30.606,30.606,0,0,0,5.211-.367c5.78-1.073,11.538-2.257,17.3-3.434,7.675-1.571,15.518-2.47,22.8-5.664a5.066,5.066,0,0,1,1.9-.471c3.875-.053,7.138-1.889,10.465-3.529,5.638-2.778,10.521-6.865,16.538-9.075,3.852-1.415,7.358-3.789,10.978-5.8a14.953,14.953,0,0,0,3.718-2.556C-46.7,775.484-41.241,772.3-35.924,769a48.94,48.94,0,0,0,8.246-6.382q3.544-3.408,6.957-6.959a22.1,22.1,0,0,1,7.868-5.741A10.962,10.962,0,0,0-9.185,747.3c3.817-3.884,7.536-7.864,11.26-11.839,1.6-1.7,3.757-1.435,4.756.677a8.466,8.466,0,0,1,.484,1.213c1.172,3.965,2.674,7.874,3.407,11.921.887,4.892,3.618,8.323,7.333,11.188.708.545,1.842.534,2.862.806a13.826,13.826,0,0,0,.507-2.312c.1-5.463.127-10.931.241-16.395C21.78,737.137,20.733,731.727,21.634,726.292Z" transform="translate(355.708 -373.042)" fill="#fff6d5"/>
      <path id="Path_1100" data-name="Path 1100" d="M15.671,518.49c1.076.358,2.1.558,2.867-.613,1.3-1.984,2.636-3.952,4.557-6.827a25.631,25.631,0,0,1-.311,4.446,21.3,21.3,0,0,1-1.628,3.571c-4.6,9.315-4.873,10.83-3.965,22.027,1.282.777,2.008.009,2.556-1,.928-1.706,1.728-3.49,2.708-5.165.293-.5,1.011-.742,2.094-1.491-1.261,5.744-2.39,10.919-5.251,15.5a4.875,4.875,0,0,0-.362,4.774,8.187,8.187,0,0,0,1.777-1.435c1.551-2.3,2.628-4.981,5.042-6.52,1.722.72,1.222,1.952.887,2.8-1.6,4.06-3.221,8.125-5.07,12.073a16.262,16.262,0,0,0-.963,11.168c3.178-1.74,2.232-5.294,4.072-7.358,1.808-2.026,2.591-4.852,5.083-6.606a35.492,35.492,0,0,1-.56,3.769c-.809,3.158-1.586,6.337-2.637,9.417-.982,2.877-1.9,5.979-6.07,6.556.415,2.115.774,3.935,1.13,5.744.83-.134,1.343-.06,1.551-.279,1.613-1.691,2.277-4.211,5-5.789a11.137,11.137,0,0,1-.243,2.822c-1.577,3.831-3.162,7.663-4.937,11.405-.837,1.767-1.018,3.254.389,4.848,2.571-.419,2.812-3.012,4.294-4.545,1.838.673,1.9,2.188,1.368,3.62A110.606,110.606,0,0,1,24.4,606.874c-1.681,3.33-1.2,6.219.269,9.193,2.7.036,2.191-4,5.349-3.407-.318,3.319-1.218,6.366-3.78,8.648a3.563,3.563,0,0,0-1.113,4.145l3.193-.3c-.125,6.014-3.89,11.156-3.525,17.135.344,5.607-.76,11.34,1.605,17.252,3.253-2.464,5.3-5.688,7.853-9.623.94,4.214-.979,6.66-2.2,9.225-1.267,2.672-1.368,2.622-5.361,4.778V671.3c2.639-.557,3.657-2.254,4.282-4.342,1.034-3.467,3.156-6.127,6.722-9.072-1.175,3.935-2.484,6.883-2.853,9.943-.428,3.555-3.164,5.59-4.317,8.529H27.251c-.131.428-.427.868-.347,1.225a75.049,75.049,0,0,1,1.349,18.9c-.109,3.7-.02,7.4-.02,10.88,1.522.818,1.851-.133,2.241-.807.653-1.135,1.186-2.342,1.833-3.478.812-1.426,2.248-1.916,3.14-1.138a2.812,2.812,0,0,1,.415,3.583c-1.7,2.784-3.469,5.524-5.109,8.342a7.84,7.84,0,0,0-.843,6.6c2.663-.343,1.832-3.694,4.327-3.977.845,2.013-.288,3.792-.859,5.519-.886,2.689-2.173,5.243-3.248,7.871-.919,2.238-1.725,4.508-.687,7.444a7.758,7.758,0,0,0,1.854-1.367c1.353-1.919,2.58-3.927,4.54-6.963.284,3.571-1.041,5.349-1.789,7.25a63.925,63.925,0,0,1-2.649,5.985c-1.833,3.544-1.889,3.516-1.755,5.694,2.532-.629,3.138-4.226,6.154-4.066.172.228.453.472.41.569-2.308,5.088-4.644,10.162-7.215,15.75,1.133.069,2.161.444,2.566.1,1.145-.978,1.983-2.305,3.048-3.392a15.17,15.17,0,0,1,2.473-1.563c-1.752,4.09-3.033,7.491-4.634,10.734-2.5,5.071-5.2,10.047-7.9,15.017a1.783,1.783,0,0,1-1.645.549c-.62-.406-1.433-1.29-1.349-1.853a25.544,25.544,0,0,1,1.368-4.293c-2.111.427-2.111.427-4.2,2.773.552,1.8,1.97,3.9,1.473,5.347a24.648,24.648,0,0,1-4.683,7.719c-1.525,1.779-3.132.163-4.632-1.281-2.081,1.928-3.161,4.522-4.626,6.833a11.147,11.147,0,0,1-1.824,2.661,2.662,2.662,0,0,1-2.36.493A4.155,4.155,0,0,1,.25,797.649c-.341-1.358,1.486-2.678.177-4.514-3.34,1.373-6.735,2.417-8.11,6.523-.751,2.233-2.222,4.226-3.357,6.331-1.074,2-2.063,2.161-4.081.616-.51-.391-.972-.851-1.6-1.4-.9,1.035-1.708,2.057-2.612,2.984-1.076,1.106-2.248,2.209-3.982,1.566-1.765-.653-2-2.091-1.758-3.766A7.832,7.832,0,0,0-25.435,804c-1.418,2.5-2.545,4.558-3.751,6.568a13.424,13.424,0,0,1-1.634,2.047c-1.667,1.829-3.439,2.171-4.44.9-.881-1.12-.607-2.327.981-3.976.6-.628,1.313-1.156,1.93-1.771.453-.454.834-.979,1.288-1.522-3.681-.282-4.013-.213-8.973,1.866a39.3,39.3,0,0,1-1.863,4.73,9.872,9.872,0,0,1-2.512,2.912,2.45,2.45,0,0,1-3.547-.205,4.368,4.368,0,0,1-.57-2.932c.078-.786.766-1.512,1.43-2.71-2.055-.216-3.422.071-4.35,1.851a30.438,30.438,0,0,1-2.639,4.457c-1.417,1.859-3.325,1.272-4.223-1.212a19.959,19.959,0,0,1-.5-2.093c-5.391-.177-9.7,1.69-12.774,6.09-10.8-2.229-21.5-.733-32.13-1.174-6.67,2.476-13.412.19-20.117.288-9.4.139-18.8.167-28.2.241-3.5.029-7,.154-10.379-1.056a5.165,5.165,0,0,0-1.936-.3c-7.672.383-15.231-.781-22.792-1.747-5.19-.662-10.332-1.709-15.5-2.527-2.149-.338-4.321-.511-6.482-.78-3.018-.371-6.031-.792-9.053-1.124-1.951-.214-3.909-.4-5.869-.451-4.354-.1-8.759.315-12.935-1.411-12.01-.536-22.771-5.691-33.984-9.175-5.617-1.746-11.292-3.187-17.238-3.175-9.837.023-19.675.05-29.514.029-7.77-.018-8.191-.451-8.231-8.1-.017-3.5.015-7,.033-10.494a11.879,11.879,0,0,1,.094-3.267c2.449-8.152,1.059-16.494,1.273-24.746.142-5.432.45-10.9-1.234-16.256-.505-1.608-.276-3.469-.272-5.213a35.222,35.222,0,0,0-.966-9.083,29.4,29.4,0,0,1-.649-7.14c-.069-11.588-.042-23.177-.068-34.763a110.665,110.665,0,0,0-1.436-15.613c-.7-4.858.281-9.96.516-14.952a2.5,2.5,0,0,0-.029-.655c-2.551-11.117-2.017-22.594-4.048-33.793-1.871-10.314-3.138-20.737-4.6-31.125-.3-2.158-.272-4.36-.4-6.542a26.946,26.946,0,0,0-.355-5.224c-2.714-10.257-2.23-20.829-3.181-31.255-1.21-13.265-1.1-26.652-3.834-39.774a35.762,35.762,0,0,1-.269-3.918c-.3-3.248-.685-6.491-.961-9.741-.164-1.957-.243-3.923-.264-5.887-.086-8.516.183-17.016-1.26-25.5-.724-4.258-.18-8.724-.355-13.09a90.343,90.343,0,0,0-4.128-25.093,16.673,16.673,0,0,1-.944-6.39c.2-3.233,1.782-5.516,4.846-6.215a48.9,48.9,0,0,1,10.949-1.675c14.424.074,28.848.4,43.268.824a48,48,0,0,0,14.272-1.509c3.158-.866,6.343-1.633,9.522-2.423a12.823,12.823,0,0,1,3.2-.655c6.12.1,12.164-.848,18.223-1.212a169.016,169.016,0,0,0,27.813-3.95,18.531,18.531,0,0,1,3.875-.649c6.179-.051,12.125-1.438,18.066-2.911a16.278,16.278,0,0,1,2.574-.453c15.9-1.31,31.611-4.065,47.4-6.194,8.007-1.082,15.968-2.524,23.987-3.532,4.538-.57,9.158-.483,13.724-.889,5.874-.519,11.722-1.347,17.6-1.835,5.436-.456,10.894-.887,16.346-.9,22.081-.065,44.161.136,66.243.009,6.418-.036,11.859,2.388,17.292,5.24a4.242,4.242,0,0,1,2.254,3.721c.22,2.311.4,4.629.714,8.276,1.676-2.722,2.471-4.463,3.683-5.839,1.034-1.18,2.34-.929,3.27.848a37.119,37.119,0,0,1-5.605,12.508c1.412.131,2.382.222,3.7.343-.81,4.256-5.116,7.718-3.236,12.606,3.193-1.064,1.388-3.9,2.462-6.008l3.81-1.073c.6,1.78,1.556,3.339,1.556,4.9a10.628,10.628,0,0,1-2.585,7.275c-2.634,2.849-3.224,6.6-4.884,9.86-.815,1.6-.253,2.933,1.246,4.291,1.325-2.185,2.606-4.294,4.029-6.642.868,3.291.608,4.608-.938,8.114-1.014,2.292-3.312,4.092-3.022,7.247,2.094-.139,2.345-1.824,3.152-2.889.75-.988,1.485-1.984,2.164-2.892,1.566.637,1.193,1.451.859,2.244-1.875,4.421-3.775,8.831-5.629,13.261-.551,1.32-1.421,2.693.172,4.513,1.138-1.531,2.136-2.85,3.111-4.187q1.74-2.383,3.445-4.789a23.267,23.267,0,0,1,3.187-3.933c-.232,2.856-1.486,5.306-2.716,7.788-1.645,3.325-3.271,6.666-4.72,10.079a17.191,17.191,0,0,0-1.35,9.744c3.146-2.965,5.367-6.485,7.544-11.746,1.859,2.146,1.3,4.569.445,6.769-1.8,4.614-2.965,9.6-7.031,13.03-1.234,1.043-1.746,2.413-.158,4.108,3.767-3.632,5.605-8.739,9.318-12.321,2.038,1.8.625,3.212.336,4.525-.585,2.672-2.636,5.192-.593,8.048q-.853,2.8-1.711,5.589c-.484,1.568-1.906,2.938-.623,4.851.333.5-.113,1.67-.438,2.431-1.7,4-3.526,7.951-5.2,11.963a15.922,15.922,0,0,0-.6,3.253c2.729.048,2.735-3.241,5.018-3.472-1,3.493-1.885,6.8-2.936,10.043-.246.754-1.073,1.32-1.587,1.989.045.419.02.822.06,1.219.017.143.192.269.293.4.149-.3.492-.7.4-.871C16.412,518.946,15.991,518.745,15.671,518.49ZM-345.662,410.009c-.161,1.6-.311,2.882-.415,4.16-.631,7.715,1.925,15.114,2.259,22.742.143,3.25.77,6.48.929,9.732.226,4.582-.281,9.254.418,13.748a240.555,240.555,0,0,1,2.731,39.2,29.548,29.548,0,0,0,.324,5.877c1.388,7.137,1.453,14.335,1.358,21.561a57.447,57.447,0,0,0,.308,8.5c1.189,8.661,2.654,17.28,3.867,25.936a160.235,160.235,0,0,1,1.872,16.924,86.919,86.919,0,0,0,1.642,15.618c2.41,11.123,3.191,22.457,4.6,33.7,1.141,9.088,1.711,18.243,2.628,27.361.282,2.818.934,5.6,1.3,8.411a81.556,81.556,0,0,1,1,9.733c.11,12.682.017,25.366.042,38.047a33.315,33.315,0,0,0,.4,6.524c1.613,7.914,1.85,15.983,2.488,23.972.676,8.472.172,17.045.053,25.57a38.24,38.24,0,0,1-.884,6.429c-.978,5.181-.671,10.332-.134,15.862,2.2.158,4.113.4,6.025.416,8.31.044,16.629.258,24.927-.059,5.583-.213,10.946,1.012,16.1,2.417A251.15,251.15,0,0,1-245.2,801.58a42.348,42.348,0,0,0,15.892,3.191c8.356-.073,16.517,1.412,24.77,1.974,7.775.528,15.461,2.518,23.291,3.316,3.9.4,7.76,1.074,11.711,1.1a37.356,37.356,0,0,1,8.46.7,43.805,43.805,0,0,0,10.4.981c4.374.006,8.747.051,13.119.01a30.605,30.605,0,0,0,5.211-.367c5.78-1.073,11.538-2.257,17.3-3.434,7.675-1.571,15.518-2.47,22.8-5.664a5.066,5.066,0,0,1,1.9-.471c3.875-.053,7.138-1.889,10.465-3.529,5.638-2.778,10.521-6.865,16.538-9.075,3.852-1.415,7.358-3.789,10.978-5.8a14.956,14.956,0,0,0,3.718-2.556c4.353-4.674,9.815-7.856,15.132-11.155a48.941,48.941,0,0,0,8.246-6.382q3.544-3.408,6.957-6.958a22.1,22.1,0,0,1,7.868-5.741A10.961,10.961,0,0,0-6.781,749.1c3.817-3.884,7.536-7.864,11.26-11.84,1.6-1.7,3.757-1.435,4.756.677a8.464,8.464,0,0,1,.484,1.213c1.172,3.965,2.674,7.875,3.407,11.921.887,4.891,3.618,8.323,7.333,11.188.708.545,1.842.534,2.862.806a13.825,13.825,0,0,0,.507-2.311c.1-5.463.127-10.931.241-16.395.115-5.42-.932-10.83-.032-16.265a10.237,10.237,0,0,0-.4-3.232c-1.593-9.261-2.695-18.555-2.179-27.988.155-2.837.066-5.687.024-8.526a17.03,17.03,0,0,0-.335-4.558c-1.6-5.344-1.362-10.8-1.442-16.266-.041-2.835-.438-5.664-.652-8.5-.3-3.915-.673-7.825-.837-11.745-.5-11.761,1.163-23.605-1.412-35.283a2.565,2.565,0,0,1-.03-.655,126.312,126.312,0,0,0-1.255-20.262c-.486-3.887-.326-7.84-1.418-11.678a16.2,16.2,0,0,1-.382-4.555c.06-5.91.11-11.808-1.531-17.572a10.057,10.057,0,0,1-.2-1.952c-.677-8.7-1.094-17.428-2.1-26.087a180.693,180.693,0,0,1-1-20.944,27.118,27.118,0,0,0-.364-6.527c-1.2-4.742-1.145-9.528-1.138-14.335.011-6.562.039-13.122,0-19.682-.012-1.96-.216-3.92-.379-5.875-.359-4.344-.935-8.679-1.08-13.03-.217-6.539.346-13.1-1.3-19.565A21.645,21.645,0,0,1,4.4,424.05c0-4.591.059-9.186.063-13.775,0-1.527.253-3.175-.217-4.558-1.522-4.49-1.1-9.074-1.091-13.652,0-2.385,0-4.769,0-7.422-4.757-2.732-9.457-4.51-14.905-4.469-22.084.157-44.173.029-66.255.3-7.852.1-15.708.877-23.531,1.637-6.734.653-13.391,1.972-20.219,1.737a44.851,44.851,0,0,0-7.81.812c-7.352,1.062-14.69,2.242-22.045,3.276q-22.071,3.107-44.155,6.1c-5.412.736-10.826,1.646-16.266,1.945a76.045,76.045,0,0,0-13.59,1.922c-4.246,1.014-8.528,2.426-12.82,2.533-5.539.142-10.823,1.317-16.185,2.278a40.179,40.179,0,0,1-4.505.818c-7.188.448-14.389.7-21.571,1.228a37.4,37.4,0,0,0-9.008,1.533,24.767,24.767,0,0,1-7.686,1.254c-12.027.157-24.05.349-36.077.468A32.541,32.541,0,0,0-345.662,410.009ZM-92.688,811.25c5.678,0,9.822.1,13.959-.045a29.292,29.292,0,0,0,5.8-.984q21-5.144,41.975-10.385c1.261-.315,2.793-.487,3.657-1.3,3.653-3.448,8.289-4.576,12.884-5.66a31.7,31.7,0,0,0,14.485-7.18,20.1,20.1,0,0,1,3.811-2.514c6.239-3.46,10.673-8.849,15.594-14.092A33.3,33.3,0,0,1,9.069,758.005c-2.4-4.377-2-9.608-4.24-14.474-3.511,2.577-5.919,5.7-8.789,8.323-1.281,1.171-2.477,2.826-4,3.265-3.844,1.109-6.257,3.887-8.869,6.5-2.782,2.782-5.607,5.531-8.215,8.472-3.638,4.1-8.979,6.243-12.194,10.806a1.7,1.7,0,0,1-1.157.548c-2.695.186-4.16,2.2-5.86,3.861a21.445,21.445,0,0,1-6.832,4.875c-3.57,1.491-6.728,3.973-10.064,6.025a9.4,9.4,0,0,1-2.233,1.307c-3.245.869-5.779,2.978-8.615,4.587-5.67,3.215-11.278,6.756-18.1,7.181C-90.58,809.3-91.024,809.95-92.688,811.25ZM14.81,499.31c.441.116.883.229,1.325.346.952-1.649,1.936-3.28,2.829-4.959.131-.249-.167-.729-.327-1.328-1.5.7-2.96,1.379-4.617,2.156C14.312,496.929,14.559,498.121,14.81,499.31Zm-30,303.166c.065-.172.13-.343.195-.518-.154-.039-.383-.157-.447-.1a.638.638,0,0,0-.14.477C-15.582,802.391-15.332,802.431-15.194,802.476Z" transform="translate(353.304 -374.84)" fill-rule="evenodd"/>
      <path id="Path_1101" data-name="Path 1101" d="M-96.878,550.948c-.521,3.3-.994,6.618-1.611,9.9-.091.478-1.021,1.252-1.287,1.153-.694-.26-1.607-.828-1.774-1.452a7.549,7.549,0,0,1,1.328-7.274c.819-.963,1.569-1.986,2.354-2.981C-97.541,550.515-97.209,550.733-96.878,550.948Z" transform="translate(481.206 -285.567)" fill-rule="evenodd"/>
      <path id="Path_1102" data-name="Path 1102" d="M-97.879,590.268c-2.253-4.475-1.284-7.2,3.132-10.379C-95.768,583.267-96.676,586.282-97.879,590.268Z" transform="translate(482.67 -270.511)" fill-rule="evenodd"/>
      <path id="Path_1103" data-name="Path 1103" d="M-180.574,686.918c1.664-1.3,2.108-1.945,2.589-1.975,6.821-.424,12.43-3.965,18.1-7.18,2.837-1.608,5.37-3.718,8.615-4.587a9.392,9.392,0,0,0,2.233-1.307c3.336-2.052,6.494-4.534,10.064-6.025a21.445,21.445,0,0,0,6.832-4.875c1.7-1.661,3.165-3.675,5.86-3.861a1.7,1.7,0,0,0,1.157-.548c3.215-4.562,8.556-6.707,12.194-10.806,2.609-2.941,5.433-5.69,8.215-8.472,2.612-2.609,5.024-5.386,8.869-6.5,1.522-.439,2.719-2.094,4-3.265,2.87-2.618,5.278-5.745,8.789-8.323,2.239,4.866,1.836,10.1,4.24,14.474a33.3,33.3,0,0,0,10.411,11.082C-73.327,650-77.761,655.389-84,658.848a20.1,20.1,0,0,0-3.811,2.514,31.7,31.7,0,0,1-14.485,7.181c-4.594,1.083-9.231,2.212-12.884,5.659-.865.815-2.4.987-3.657,1.3q-20.978,5.228-41.975,10.385a29.283,29.283,0,0,1-5.8.984C-170.752,687.021-174.9,686.918-180.574,686.918Z" transform="translate(441.19 -250.509)" fill="#d6d0c0" fill-rule="evenodd"/>
      <g id="Group_703" data-name="Group 703" transform="translate(62.593 82.983)">
        <path id="Path_1104" data-name="Path 1104" d="M-260.059,469.578c-.346-1.384-1.141-2.707-1.221-4.1a70.462,70.462,0,0,0-1.741-13.288c-1.282-5.092-1.385-10.461-2.02-15.7-.483-3.983-3.594-6.771-8.04-6.648-10.219.285-20.437.788-30.653,1.233a10.613,10.613,0,0,0-7.991,3.678c.029,2.548.069,4.771.075,7,.017,4.7-.478,9.472.149,14.088.661,4.873,1.379,9.687,1.058,14.632a64.771,64.771,0,0,0,.069,6.759,8.527,8.527,0,0,0,3.3,6.737c10.417.163,21.04-1.2,31.68-1.732,4.923-.247,9.819-1.542,14.77-2.366C-258.668,476.342-259.216,472.957-260.059,469.578Zm-6.382,6.56c-5.522.917-29.257,1.845-36.926,1.467-1.919-6.589-.362-13.643-1.955-20.426-1.527-6.514-1.418-13.382-2.034-20.138,3.927-1.983,7.846-.874,11.6-1.2,4.078-.349,8.185-.428,12.276-.454,3.81-.021,7.681-.849,11.4.113a6.612,6.612,0,0,1,.938,1.771q2.7,18.4,5.275,36.81C-265.79,474.628-266.179,475.242-266.441,476.138Z" transform="translate(311.819 -429.839)" fill-rule="evenodd"/>
        <path id="Path_1105" data-name="Path 1105" d="M-258.944,487.748c1.361,2.523,1.177,5.444,1.4,8.22.684,8.7,1.15,17.415,1.7,26.123.042.655.092,1.307.1,1.963.023,5.37-1.7,7.779-7.067,9.884a12.038,12.038,0,0,1-3.179,1.12c-10.212.777-20.429,1.595-30.648,2.094-3.912.192-4.876-1.527-6.115-5.373-2.171-6.752-1.961-13.682-2.066-20.639-.039-2.6-.708-5.162-.9-7.758-.249-3.451-.581-6.853,1.973-10.028,1.079-1.343,2.075-2.352,3.706-2.577,3.156-.437,6.329-.768,9.5-1.074a36.855,36.855,0,0,0,9.355-1.694C-276.62,486.341-263.62,486.485-258.944,487.748Zm-4.181,3.929c-5.51.379-10.687-.1-15.336,1.266-5.616,1.651-11.188,1.871-16.819,2.4a33.085,33.085,0,0,0-4.062.444,2.722,2.722,0,0,0-2.351,2.834,12.891,12.891,0,0,0,.338,3.241c1.968,6.954,2.523,14.118,2.917,21.312a14.509,14.509,0,0,0,2.455,7,6.614,6.614,0,0,0,1.631.422q12.262-.713,24.52-1.479a10.862,10.862,0,0,0,7.543-3.525C-262.558,514.651-262.831,503.546-263.125,491.677Z" transform="translate(314.834 -400.868)" fill-rule="evenodd"/>
        <path id="Path_1106" data-name="Path 1106" d="M-251.55,583.638a45.187,45.187,0,0,1-14.969,3.414c-6.083.3-12.273.075-18.177,2.287a2.613,2.613,0,0,1-.674.084c-10.965,1-10.967.807-11.284-8.922q-.471-14.385-1.086-28.758c-.063-1.494-.368-2.971-.575-4.582.7-1.016,1.45-2.123,2.152-3.149.552-.146,1.1-.474,1.381-.335a8.849,8.849,0,0,0,5.23.675c4.744-.558,9.515-.8,14.26-1.331a56.524,56.524,0,0,0,8.009-1.471,39.522,39.522,0,0,1,11.041-1.067,25.484,25.484,0,0,1,2.657,9.932c.3,6.969.668,13.932,1.02,20.9.184,3.678.071,7.4,1.48,10.9C-250.964,582.527-251.338,583.031-251.55,583.638Zm-10.145-37.486c-9.579,3.911-19.628,2.643-29.233,3.614-.38.783-.741,1.178-.727,1.547q.554,14.989,1.2,29.966a7.781,7.781,0,0,0,.662,1.943c9.463,1.221,18.926-.1,28.379-.7a6.06,6.06,0,0,0,1.967-.5c2-.855,3.558-2.075,3.369-4.433-.294-3.672-.511-7.357-.961-11.007-.51-4.084-1.391-8.116-1.821-12.206A16.925,16.925,0,0,0-261.695,546.151Z" transform="translate(318.691 -373.549)" fill-rule="evenodd"/>
        <path id="Path_1107" data-name="Path 1107" d="M-85.287,500.673c-.213,1.227-.1,2.164-.525,2.708-1.667,2.127-4.08,2.671-6.683,2.746-5.445.149-10.894.358-16.34.551a86.367,86.367,0,0,0-8.709,1.086c-7.366,1.011-14.66,3.561-22.228,2.269a9.843,9.843,0,0,0-6.645.807,2.683,2.683,0,0,1-1.3.376c-6.13-.219-12.1,1.282-18.137,2.011-4.932.6-9.875.358-14.761,2.115-2.672.964-5.836.611-8.781.742-3.178.14-6.367.287-9.53.166a16.04,16.04,0,0,1-5.868-1.088,9.183,9.183,0,0,0-7.82-.065,30.415,30.415,0,0,1-15.354,2.179c-1.559-.181-3.193.151-4.757-.008a11.817,11.817,0,0,0-9.946,3.36c-2.375,2.358-5.2,2.441-8.2,2.5-3.506.071-5.328-1.91-6.485-4.647-.214-.505.472-1.391.863-2.41a9.753,9.753,0,0,1,1.978,1.222,6.313,6.313,0,0,0,8.573,1.193c4.926-3.093,10.126-3.614,15.645-3.6,5.444.008,10.847-.584,15.956-2.917a17.767,17.767,0,0,1,9.361-1.168c9.453.957,18.893,1.127,28.35-.883a31.388,31.388,0,0,1,5.43-.329c3.831-.124,7.718.368,11.378-1.439a2.851,2.851,0,0,1,1.34-.18c9.143.511,17.861-2.885,26.917-3.443,4.9-.3,9.748-1.847,14.623-2.811a15.822,15.822,0,0,1,2.7-.374C-104.749,501.106-95.262,500.9-85.287,500.673Z" transform="translate(339.513 -393.799)" fill-rule="evenodd"/>
        <path id="Path_1108" data-name="Path 1108" d="M-76.211,603.125a21.627,21.627,0,0,1-4.308,1.076c-6.83.088-13.6.518-20.251,2.485-1.494.441-3.158.26-4.733.468a15.415,15.415,0,0,0-3.973.8c-7.123,3.033-14.46,3.448-21.973,2.745a41.234,41.234,0,0,0-6.759.291c-6.109.456-12.212,1.113-18.321,1.4-9.374.439-18.533,1.714-27.166,5.794-6.023,2.846-15.778,3.973-21.9,2.265a21.919,21.919,0,0,0-10.065-.122c-4.025.732-8.1,1.165-12.128,1.888-2.894.522-5.739,1.335-8.618,1.963a41.4,41.4,0,0,1-6.618,1.224,6.128,6.128,0,0,1-3.656-1.32,3.362,3.362,0,0,1-1.142-2.722,1.882,1.882,0,0,1,2.708-1.2c3.152,1.412,6.132.635,9.241-.37a37.988,37.988,0,0,1,6.028-1.195c4.947-.751,9.893-1.556,14.863-2.1a36.17,36.17,0,0,1,8.793-.155c7.8,1.1,15.31.511,22.523-3.076,3.3-1.642,6.858-2.29,10.411-3.164,12.758-3.15,25.813-2.117,38.647-4.039a23.739,23.739,0,0,1,6.067.275c5.9.664,11.734.857,17.259-2.127a4.664,4.664,0,0,1,1.254-.542c9.371-1.821,18.684-4.24,28.3-3.713a11.551,11.551,0,0,1,3.869.883C-77.227,601.1-76.94,602.06-76.211,603.125Z" transform="translate(344.374 -343.323)" fill-rule="evenodd"/>
        <path id="Path_1109" data-name="Path 1109" d="M-290.93,598.277c4.268-.566,7.867-1.094,11.474-1.5a89.781,89.781,0,0,0,9.984-1.927c4.819-1.1,9.893-1.094,14.862-1.338,1.875-.091,2.981,1.2,3.23,3.5.377,3.46.536,6.945.75,10.421a63.914,63.914,0,0,0,1.506,9.585c.99,4.611.863,9.492.973,14.269.045,1.892-1.4,3.221-3.516,3.445-3.841.4-7.7.567-11.554.842a47.073,47.073,0,0,0-11.413,1.785,49.192,49.192,0,0,1-9.386,1.521,4.361,4.361,0,0,1-4.492-3.891c-.406-2.793-.735-5.6-1.031-8.4-.683-6.486-1.394-12.965-1.951-19.464A28.805,28.805,0,0,1-290.93,598.277Zm36.748,31.474c.729-4.329.942-7.926-.267-11.087-1.53-4-1.421-8.069-1.711-12.167-.178-2.55.4-5.246-1.287-7.947-3.256.223-6.874-.25-9.94.839-5.328,1.894-10.688,1.791-16.082,2.2-1.539.115-3.073.367-4.721.569.056,1.358-.281,2.642.208,3.442,2.381,3.9,2.367,8.265,2.548,12.592.208,5.006,1.8,9.676,2.827,14.723,2.316-.16,4.46.13,6.269-.516,4.4-1.568,8.9-1.709,13.416-2.049C-260.22,630.149-257.516,629.977-254.181,629.751Z" transform="translate(322.102 -346.564)" fill-rule="evenodd"/>
        <path id="Path_1110" data-name="Path 1110" d="M-98.171,442.96c-2.815.7-5.208,1.376-7.635,1.877-3.761.775-7.7.588-11.242,2.609-1.094.625-2.655.531-4.01.628-5.9.415-11.8.859-17.7,1.124a26.322,26.322,0,0,1-6.725-.454c-3.239-.7-6.287-.655-9.18,1.12-5.863,3.6-12.306,4.283-18.954,4.409-3.823.069-7.7.131-11.3,2.081a10.118,10.118,0,0,1-4.007.662c-9.075.62-18.151,1.227-27.231,1.762a23.943,23.943,0,0,1-9.954-1.2c-6.545-2.4-13.308-1.436-19.965.619-2.613.807-5.2,1.728-7.846,2.381a8.062,8.062,0,0,1-4,.072,3.188,3.188,0,0,1-1.942-2.232,3.258,3.258,0,0,1,1.456-2.616,7.47,7.47,0,0,1,3.926-.629c3.65.356,7.194-.279,10.814-.706,6.046-.7,12.178-1.56,18.193.1a26.431,26.431,0,0,0,9.406.51c7.478-.659,14.969-1.126,22.453-1.708,3.384-.263,6.753-.32,9.991-1.889,1.551-.751,3.549-.656,5.352-.828,2.491-.241,4.988-.394,7.485-.549a21.836,21.836,0,0,0,10.986-3.208,20.225,20.225,0,0,1,15.645-2.948,15.8,15.8,0,0,0,4.726.26c8.347-.855,16.728-.709,25.069-2.592,4.526-1.028,9.465-.149,14.211-.029C-99.612,441.6-99.112,442.281-98.171,442.96Z" transform="translate(338.252 -424.101)" fill-rule="evenodd"/>
        <path id="Path_1111" data-name="Path 1111" d="M-230.351,564c-.789,1.133-1.488,2.3-2.357,3.334-.563.673-1.344,1.595-2.078,1.66-4.511.4-8.562,3.108-13.194,2.746-3.147-.243-4.238-1.207-4.818-4.256a20.576,20.576,0,0,1-.385-2.569,6.163,6.163,0,0,1,.486-1.622c.76.291,1.786.361,2.129.869,1.719,2.542,4.11,3.025,7.046,2.426,1.56-.318,3.188-.312,4.716-.72a7.891,7.891,0,0,0,3.585-1.663c4.353-4.54,9.839-4.555,15.171-3.608a32,32,0,0,0,7.992.588q4.427-.315,8.849-.628c4.309-.3,8.7-.186,12.906-1.05a54.328,54.328,0,0,0,11.45-4.1,18.4,18.4,0,0,1,12.549-.978,41.075,41.075,0,0,0,14.1.874c6.108-.644,12.248-.843,18.371-1.323,3.816-.3,7.681-.094,11.268-2.209,1.243-.735,3.1-.51,4.682-.655,3.374-.306,6.788-.158,9.958-1.894a8.079,8.079,0,0,1,3.347-.454,41.548,41.548,0,0,0,7.947-1.456c3.9-.952,8.072-.747,12.134-.908.379-.017.893.815,1.1,1.346.1.269-.27.818-.56,1.117a2.033,2.033,0,0,1-1.147.673c-5.436.344-10.675,1.823-15.984,2.921-2.212.457-4.463.45-6.58,1.569a10.219,10.219,0,0,1-3.956.816c-4.08.275-8.152.4-12.048,2.032a10.746,10.746,0,0,1-3.369.377c-9.756.659-19.515,1.248-29.266,1.99-3.223.243-6.384.3-9.26-1.091-6.275-3.028-12.058-.546-17.335,2.48a18.363,18.363,0,0,1-8.291,2.508c-7.26.495-14.519,1.082-21.783,1.415-2.91.136-5.829-.33-8.748-.441C-224.191,564.02-226.67,564.041-230.351,564Z" transform="translate(341.653 -370.533)" fill-rule="evenodd"/>
      </g>
    </g>
    <path id="Path_1112" data-name="Path 1112" d="M-302.053,451.1c-2.837.288-4.771.591-6.713.649a2.433,2.433,0,0,1-2.17-3.262c.572-2.173,2.315-3.076,4.084-3.93,3.476-1.673,6.7-1.4,9.635,1.311a14.415,14.415,0,0,1,4.522,7.751,37.207,37.207,0,0,0,4.472,11.447c2.636-.006,2.974-2.484,4.4-3.642a15.971,15.971,0,0,0,3.511-3.847c5.471-8.817,13.009-15.784,20.28-23,3.09-3.069,6-6.319,9.021-9.463,2.413-2.518,4.824-5.041,7.306-7.487.952-.938,2.137-1.578,3.514-.735,1.192.733,1.411,2.189.483,4.066a36.9,36.9,0,0,1-3.147,5.724c-2.983,4.016-6.07,7.969-9.332,11.761-2.413,2.806-5.1,5.385-7.784,7.941a108.893,108.893,0,0,0-12.663,14.937,119.141,119.141,0,0,1-11.011,12.838c-3.372,3.455-7.259,2.874-9.747-1.285a60.025,60.025,0,0,1-7.141-17.439A41,41,0,0,0-302.053,451.1Z" transform="translate(21.507 21.196)" fill="#009cb2" fill-rule="evenodd"/>
    <path id="Path_1113" data-name="Path 1113" d="M-296.321,504.123c-2.837.287-4.771.591-6.713.646a2.428,2.428,0,0,1-2.168-3.259c.57-2.173,2.313-3.078,4.083-3.93,3.476-1.675,6.7-1.4,9.635,1.313a14.394,14.394,0,0,1,4.522,7.749,37.222,37.222,0,0,0,4.472,11.447c2.636,0,2.974-2.484,4.4-3.641a16.1,16.1,0,0,0,3.513-3.849c5.469-8.817,13.007-15.784,20.277-23,3.092-3.072,6.005-6.319,9.023-9.466,2.413-2.517,4.824-5.041,7.306-7.487.952-.938,2.136-1.577,3.514-.733,1.192.732,1.411,2.189.483,4.066a37.007,37.007,0,0,1-3.147,5.723c-2.984,4.016-6.07,7.97-9.332,11.763-2.414,2.8-5.1,5.383-7.784,7.939A109.27,109.27,0,0,0-266.9,514.339a119.028,119.028,0,0,1-11.011,12.841c-3.372,3.454-7.259,2.873-9.747-1.289a59.927,59.927,0,0,1-7.14-17.436A41.293,41.293,0,0,0-296.321,504.123Z" transform="translate(24.423 48.172)" fill="#009cb2" fill-rule="evenodd"/>
  </g>
</svg>
