<svg width="553.755" height="575.737" xmlns="http://www.w3.org/2000/svg"><g data-name="Group 705"><g data-name="Group 704"><path fill="#fff6d5" d="M376.2 489.08a10.236 10.236 0 0 0 1.163-3.042c2.937-8.925 6.323-17.648 11.202-25.736 1.468-2.432 2.726-4.99 4.02-7.517a17.026 17.026 0 0 0 1.842-4.182c1.094-5.469 3.863-10.175 6.356-15.039 1.293-2.522 2.27-5.206 3.41-7.811 1.572-3.598 3.076-7.225 4.77-10.763 5.074-10.62 12.097-20.298 15.3-31.818a2.566 2.566 0 0 1 .281-.592 126.288 126.288 0 0 0 8.395-18.48c1.394-3.66 3.39-7.076 4.225-10.977a16.197 16.197 0 0 1 1.799-4.2c2.825-5.191 5.635-10.376 6.89-16.235a10.056 10.056 0 0 1 .738-1.817c3.483-8 7.208-15.902 10.38-24.02a180.66 180.66 0 0 1 8.94-18.963 27.113 27.113 0 0 0 2.74-5.934c1.165-4.75 3.458-8.95 5.718-13.191 3.088-5.79 6.19-11.569 9.231-17.38.909-1.736 1.648-3.562 2.421-5.365 1.72-4.004 3.245-8.102 5.157-12.012 2.876-5.876 6.45-11.405 8.028-17.885a21.641 21.641 0 0 1 2.253-4.718c2.153-4.054 4.36-8.084 6.516-12.134.716-1.348 1.712-2.685 1.946-4.127.762-4.678 3.284-8.528 5.44-12.566l3.48-6.554c-2.919-4.643-6.235-8.417-11.065-10.936-19.574-10.219-39.018-20.692-58.644-30.809-6.98-3.594-14.281-6.592-21.545-9.59-6.253-2.582-12.75-4.54-18.668-7.95a44.843 44.843 0 0 0-7.277-2.945c-6.99-2.51-14.023-4.91-21.003-7.447q-20.945-7.607-41.85-15.322c-5.123-1.888-10.33-3.624-15.274-5.911a76.032 76.032 0 0 0-12.902-4.677c-4.225-1.096-8.668-1.857-12.508-3.776-4.957-2.472-10.174-3.913-15.36-5.58a40.171 40.171 0 0 1-4.361-1.39c-6.557-2.975-13.034-6.13-19.623-9.032a37.393 37.393 0 0 0-8.673-2.871 24.763 24.763 0 0 1-7.375-2.498c-10.694-5.502-21.4-10.971-32.076-16.507a32.535 32.535 0 0 0-11.694-3.961c-.892 1.337-1.626 2.399-2.317 3.478-4.176 6.517-5.389 14.249-8.671 21.141-1.398 2.937-2.36 6.083-3.744 9.03-1.95 4.151-4.589 8.039-6.08 12.335a240.513 240.513 0 0 1-15.972 35.894 29.543 29.543 0 0 0-2.47 5.341c-2.122 6.953-5.44 13.34-8.914 19.676a57.437 57.437 0 0 0-3.714 7.65c-3.012 8.205-5.761 16.503-8.75 24.715a160.21 160.21 0 0 1-6.284 15.822 86.904 86.904 0 0 0-5.875 14.56c-3.089 10.952-7.715 21.327-11.743 31.915-3.255 8.56-7.046 16.91-10.512 25.392-1.073 2.62-1.802 5.383-2.797 8.037a81.544 81.544 0 0 1-3.682 9.063c-5.85 11.249-11.882 22.406-17.807 33.615a33.31 33.31 0 0 0-2.706 5.949c-2.288 7.744-5.863 14.98-9.046 22.334-3.377 7.798-7.843 15.131-11.946 22.603a38.232 38.232 0 0 1-3.796 5.262c-3.293 4.116-5.438 8.809-7.557 13.943 1.868 1.173 3.444 2.283 5.124 3.194 7.317 3.937 14.563 8.027 22.038 11.639 5.03 2.43 9.191 6.027 13.083 9.685a251.132 251.132 0 0 1 19.19 20.588 42.339 42.339 0 0 0 12.535 10.271c7.412 3.856 13.922 8.994 20.946 13.36 6.618 4.113 12.471 9.475 19.011 13.852 3.256 2.182 6.348 4.588 9.825 6.464a37.363 37.363 0 0 1 7.142 4.586 43.798 43.798 0 0 0 8.723 5.743c3.86 2.057 7.7 4.148 11.58 6.162a30.6 30.6 0 0 0 4.773 2.12c5.607 1.763 11.246 3.418 16.886 5.081 7.514 2.213 14.861 5.097 22.789 5.692a5.065 5.065 0 0 1 1.899.476c3.446 1.77 7.188 1.68 10.895 1.791 6.282.192 12.51-1.127 18.86-.256 4.064.557 8.274.105 12.413.027a14.95 14.95 0 0 0 4.482-.513c6.036-2.07 12.35-2.321 18.593-2.741a48.931 48.931 0 0 0 10.274-1.768q4.728-1.347 9.407-2.882a22.096 22.096 0 0 1 9.64-1.38 10.96 10.96 0 0 0 4.466-.59c5.192-1.64 10.343-3.41 15.495-5.174 2.21-.75 3.99.495 3.883 2.829a8.465 8.465 0 0 1-.142 1.298c-.825 4.05-1.332 8.207-2.583 12.124-1.51 4.736-.708 9.046 1.228 13.318.37.813 1.376 1.336 2.15 2.054a13.824 13.824 0 0 0 1.531-1.804c2.65-4.777 5.24-9.592 7.902-14.363 2.645-4.734 4.258-10.002 7.602-14.379Z" data-name="Path 1099"/><path fill-rule="evenodd" d="M467.115 300.078c.782.821 1.592 1.478 2.819.804 2.078-1.142 4.18-2.254 7.225-3.891a25.627 25.627 0 0 1-2.36 3.78 21.296 21.296 0 0 1-3.112 2.39c-8.43 6.067-9.382 7.277-13.831 17.59.767 1.287 1.768.95 2.726.315 1.62-1.07 3.162-2.27 4.813-3.29.493-.304 1.24-.181 2.548-.335-3.807 4.48-7.231 8.52-11.906 11.224a4.874 4.874 0 0 0-2.558 4.046 8.186 8.186 0 0 0 2.242-.434c2.448-1.303 4.656-3.166 7.51-3.392 1.182 1.443.163 2.296-.53 2.888-3.317 2.835-6.655 5.664-10.14 8.283a16.26 16.26 0 0 0-6.088 9.41c3.623-.047 4.454-3.629 7.047-4.588 2.547-.941 4.563-3.07 7.586-3.45a35.486 35.486 0 0 1-2.262 3.066c-2.195 2.41-4.372 4.852-6.745 7.079-2.216 2.08-4.482 4.388-8.434 2.942-.626 2.062-1.162 3.837-1.696 5.602.795.27 1.214.577 1.5.48 2.217-.736 3.985-2.65 7.13-2.766a11.135 11.135 0 0 1-1.538 2.378c-3.19 2.643-6.386 5.283-9.708 7.755-1.568 1.168-2.425 2.396-1.93 4.463 2.466.836 3.895-1.34 5.923-2 1.307 1.457.651 2.824-.49 3.839a110.587 110.587 0 0 1-9.486 7.95c-3.046 2.151-3.976 4.928-4.074 8.243 2.368 1.298 3.811-2.504 6.321-.5-1.837 2.782-4.06 5.05-7.393 5.864a3.562 3.562 0 0 0-2.927 3.138l2.96 1.232c-2.93 5.252-8.667 8.027-11.149 13.477-2.326 5.113-5.99 9.657-6.674 15.986 4.028-.65 7.348-2.536 11.448-4.814-1.147 4.162-3.988 5.422-6.27 7.114-2.371 1.765-2.437 1.674-6.974 1.705l-3.461 6.517c2.591.745 4.286-.276 5.817-1.826 2.539-2.577 5.66-3.93 10.19-4.858-2.883 2.923-5.421 4.913-7.182 7.441-2.045 2.939-5.416 3.452-7.812 5.507l-2.89-1.535c-.317.316-.784.566-.881.919a75.036 75.036 0 0 1-7.673 17.321c-1.832 3.216-3.488 6.525-5.12 9.598.96 1.436 1.696.75 2.357.338 1.109-.696 2.145-1.511 3.25-2.211 1.385-.878 2.883-.638 3.306.468a2.812 2.812 0 0 1-1.314 3.358c-2.807 1.661-5.654 3.25-8.424 4.97a7.839 7.839 0 0 0-3.84 5.432c2.513.946 3.35-2.402 5.686-1.482-.198 2.174-2.032 3.213-3.347 4.47-2.043 1.96-4.377 3.61-6.559 5.427-1.861 1.545-3.637 3.172-4.098 6.251a7.757 7.757 0 0 0 2.278-.337c2.095-1.06 4.12-2.258 7.275-4.02-1.424 3.287-3.428 4.235-4.98 5.563a63.914 63.914 0 0 1-5.146 4.043c-3.28 2.27-3.317 2.218-4.22 4.204 2.53.632 4.753-2.26 7.34-.704.046.282.18.63.096.695-4.424 3.41-8.867 6.795-13.758 10.523.968.593 1.7 1.406 2.22 1.292 1.469-.326 2.831-1.105 4.281-1.566a15.167 15.167 0 0 1 2.917-.22c-3.465 2.79-6.191 5.192-9.126 7.305-4.586 3.305-9.304 6.433-14.019 9.555a1.783 1.783 0 0 1-1.71-.287c-.357-.65-.66-1.811-.322-2.269a25.54 25.54 0 0 1 3.222-3.149c-2.065-.613-2.065-.613-5.01.479-.356 1.848-.09 4.368-1.207 5.412a24.644 24.644 0 0 1-7.755 4.62c-2.18.855-2.842-1.325-3.49-3.304-2.741.727-4.911 2.51-7.289 3.864a11.145 11.145 0 0 1-2.858 1.494 2.662 2.662 0 0 1-2.315-.671 4.154 4.154 0 0 1-.495-2.945c.336-1.359 2.568-1.667 2.274-3.903-3.593-.354-7.08-1.024-10.22 1.957-1.711 1.62-3.945 2.69-5.934 4.016-1.887 1.262-2.835.94-3.893-1.37-.267-.585-.459-1.208-.756-1.987-1.28.492-2.473 1.015-3.706 1.41-1.469.472-3.02.896-4.25-.485-1.252-1.404-.786-2.784.214-4.15a7.83 7.83 0 0 0 .613-1.926c-2.425 1.542-4.385 2.831-6.393 4.04a13.422 13.422 0 0 1-2.402 1.041c-2.33.834-4.055.305-4.343-1.287-.253-1.402.555-2.34 2.73-3.05.825-.274 1.702-.406 2.536-.66.613-.188 1.195-.473 1.85-.74-3.117-1.975-3.443-2.07-8.798-2.56a39.293 39.293 0 0 1-3.863 3.303 9.87 9.87 0 0 1-3.584 1.393 2.45 2.45 0 0 1-3.036-1.845 4.367 4.367 0 0 1 .872-2.856c.438-.657 1.386-.976 2.534-1.722-1.713-1.155-3.055-1.542-4.71-.406a30.433 30.433 0 0 1-4.42 2.698c-2.123.977-3.532-.436-3.16-3.05a19.956 19.956 0 0 1 .54-2.083c-4.677-2.685-9.358-3.057-14.136-.614-8.49-7.033-18.64-10.73-27.82-16.106-7.05-.941-11.932-6.122-17.898-9.18-8.366-4.286-16.68-8.67-25.014-13.013-3.104-1.616-6.253-3.147-8.67-5.8a5.164 5.164 0 0 0-1.568-1.173c-6.954-3.26-13.083-7.833-19.306-12.232-4.273-3.019-8.322-6.355-12.502-9.501-1.739-1.306-3.575-2.478-5.357-3.729-2.491-1.743-4.954-3.528-7.467-5.238-1.622-1.104-3.264-2.187-4.97-3.151-3.799-2.13-7.883-3.83-10.76-7.312-10.354-6.106-17.438-15.705-25.705-24.04-4.141-4.177-8.477-8.11-13.733-10.889-8.696-4.593-17.396-9.183-26.074-13.816-6.853-3.66-7.021-4.24-3.47-11.013 1.627-3.098 3.297-6.174 4.952-9.25a11.877 11.877 0 0 1 1.615-2.841c5.986-6.05 8.67-14.068 12.73-21.254 2.673-4.73 5.51-9.413 6.534-14.933.309-1.656 1.384-3.192 2.205-4.73a35.216 35.216 0 0 0 3.407-8.474 29.395 29.395 0 0 1 2.776-6.609c5.373-10.264 10.833-20.485 16.243-30.727a110.646 110.646 0 0 0 6.055-14.46c1.66-4.618 4.92-8.663 7.468-12.96a2.5 2.5 0 0 0 .282-.593c2.96-11.012 8.815-20.896 12.274-31.737 3.185-9.985 6.955-19.783 10.536-29.641.747-2.046 1.805-3.978 2.715-5.964a26.941 26.941 0 0 0 2.137-4.78c2.414-10.33 7.8-19.437 11.85-29.09 5.152-12.28 11.528-24.05 15.268-36.918a35.756 35.756 0 0 1 1.6-3.586c1.258-3.009 2.44-6.053 3.72-9.052a80.864 80.864 0 0 1 2.528-5.322c3.918-7.56 8.142-14.94 10.847-23.107 1.357-4.1 3.932-7.788 5.825-11.725a90.327 90.327 0 0 0 8.124-24.094 16.67 16.67 0 0 1 2.163-6.085c1.693-2.76 4.16-4.035 7.194-3.215a48.891 48.891 0 0 1 10.454 3.656c12.701 6.83 25.285 13.883 37.819 21.02a47.992 47.992 0 0 0 13.31 5.362c3.195.716 6.367 1.533 9.544 2.326a12.82 12.82 0 0 1 3.133.922c5.357 2.96 11.138 4.957 16.66 7.477a168.986 168.986 0 0 0 26.41 9.556 18.528 18.528 0 0 1 3.727 1.245c5.48 2.853 11.38 4.416 17.317 5.902a16.275 16.275 0 0 1 2.486.807c14.654 6.3 29.819 11.237 44.759 16.762 7.577 2.8 15.283 5.26 22.837 8.13 4.274 1.626 8.313 3.87 12.535 5.652 5.43 2.297 10.982 4.309 16.401 6.634 5.014 2.147 10.036 4.327 14.856 6.872 19.528 10.299 38.93 20.832 58.488 31.076 5.684 2.978 9.352 7.67 12.812 12.737a4.241 4.241 0 0 1 .245 4.343c-.89 2.143-1.818 4.275-3.251 7.642 2.756-1.617 4.275-2.782 5.99-3.428 1.467-.557 2.502.277 2.49 2.282a37.113 37.113 0 0 1-10.815 8.416c1.185.778 1.999 1.313 3.106 2.038-2.711 3.378-8.137 4.416-8.77 9.613 3.319.558 3.055-2.792 4.992-4.15l3.867.84c-.305 1.853-.192 3.678-.924 5.056a10.626 10.626 0 0 1-5.694 5.211c-3.662 1.28-5.942 4.316-8.937 6.416-1.47 1.03-1.6 2.471-.912 4.374 2.194-1.308 4.315-2.57 6.672-3.976-.777 3.313-1.624 4.354-4.633 6.725-1.97 1.548-4.844 2.06-6.068 4.982 1.914.86 2.926-.511 4.138-1.073 1.126-.52 2.242-1.055 3.268-1.539 1.084 1.297.373 1.841-.294 2.385-3.73 3.024-7.475 6.027-11.19 9.07-1.106.906-2.518 1.71-1.965 4.065 1.723-.818 3.223-1.515 4.71-2.238q2.655-1.288 5.289-2.613a23.263 23.263 0 0 1 4.659-1.978c-1.545 2.413-3.801 3.988-6.051 5.603-3.012 2.164-6.015 4.352-8.895 6.686a17.188 17.188 0 0 0-5.762 7.97c4.168-1.142 7.78-3.209 12.17-6.833.635 2.767-.995 4.644-2.782 6.186-3.753 3.23-7.12 7.086-12.319 8.208-1.579.342-2.673 1.311-2.066 3.553 5.03-1.44 9.048-5.088 14.006-6.51.956 2.546-.954 3.13-1.825 4.154-1.77 2.085-4.763 3.348-4.298 6.828q-2.067 2.072-4.133 4.133c-1.162 1.157-3.06 1.7-2.825 3.99.06.599-.883 1.422-1.527 1.942-3.377 2.735-6.842 5.367-10.202 8.125a15.92 15.92 0 0 0-2.055 2.59c2.387 1.323 3.935-1.579 6.059-.712-2.521 2.616-4.854 5.12-7.303 7.491-.57.55-1.566.663-2.334 1.012-.157.391-.368.735-.519 1.105-.052.134.044.327.071.49.273-.195.763-.387.762-.581-.003-.367-.28-.742-.443-1.118ZM198.935 34.824c-.892 1.338-1.626 2.4-2.317 3.48-4.176 6.516-5.389 14.248-8.672 21.14-1.398 2.937-2.359 6.083-3.744 9.029-1.949 4.152-4.588 8.04-6.078 12.335a240.513 240.513 0 0 1-15.974 35.895 29.543 29.543 0 0 0-2.47 5.341c-2.121 6.953-5.44 13.34-8.913 19.675a57.437 57.437 0 0 0-3.714 7.65c-3.012 8.206-5.761 16.503-8.75 24.715a160.207 160.207 0 0 1-6.284 15.822 86.904 86.904 0 0 0-5.875 14.561c-3.089 10.952-7.715 21.326-11.744 31.915-3.254 8.56-7.045 16.91-10.511 25.392-1.073 2.62-1.802 5.383-2.797 8.037a81.542 81.542 0 0 1-3.682 9.063c-5.85 11.25-11.882 22.406-17.807 33.615a33.31 33.31 0 0 0-2.707 5.948c-2.287 7.745-5.862 14.98-9.046 22.334-3.376 7.798-7.842 15.132-11.945 22.604a38.233 38.233 0 0 1-3.796 5.262c-3.293 4.116-5.438 8.808-7.557 13.943 1.868 1.171 3.444 2.282 5.125 3.193 7.317 3.936 14.562 8.027 22.038 11.639 5.03 2.43 9.19 6.027 13.082 9.685a251.106 251.106 0 0 1 19.2 20.601 42.34 42.34 0 0 0 12.535 10.271c7.413 3.855 13.923 8.994 20.947 13.36 6.617 4.113 12.47 9.475 19.01 13.852 3.256 2.182 6.349 4.588 9.825 6.464a37.35 37.35 0 0 1 7.142 4.586 43.797 43.797 0 0 0 8.723 5.743c3.86 2.057 7.7 4.148 11.58 6.162a30.6 30.6 0 0 0 4.773 2.12c5.607 1.763 11.247 3.418 16.886 5.081 7.514 2.213 14.861 5.097 22.79 5.692a5.065 5.065 0 0 1 1.898.476c3.446 1.77 7.189 1.68 10.896 1.792 6.28.19 12.51-1.128 18.859-.257 4.065.557 8.274.105 12.414.027a14.953 14.953 0 0 0 4.481-.513c6.036-2.086 12.351-2.334 18.594-2.753a48.932 48.932 0 0 0 10.274-1.768q4.728-1.347 9.406-2.881a22.096 22.096 0 0 1 9.64-1.38 10.96 10.96 0 0 0 4.463-.595c5.192-1.64 10.343-3.41 15.496-5.174 2.21-.75 3.99.495 3.882 2.829a8.463 8.463 0 0 1-.141 1.298c-.825 4.05-1.333 8.207-2.583 12.124-1.51 4.735-.709 9.046 1.228 13.318.37.813 1.376 1.335 2.149 2.054a13.823 13.823 0 0 0 1.531-1.803c2.65-4.777 5.24-9.592 7.903-14.364 2.643-4.732 4.256-10 7.6-14.377a10.235 10.235 0 0 0 1.162-3.041c2.937-8.925 6.323-17.648 11.203-25.735 1.467-2.433 2.725-4.991 4.02-7.518a17.027 17.027 0 0 0 1.841-4.181c1.094-5.47 3.863-10.176 6.356-15.04 1.293-2.522 2.27-5.206 3.41-7.811 1.572-3.598 3.076-7.225 4.77-10.763 5.074-10.62 12.098-20.298 15.3-31.817a2.565 2.565 0 0 1 .282-.593 126.29 126.29 0 0 0 8.394-18.48c1.394-3.66 3.39-7.075 4.225-10.977a16.197 16.197 0 0 1 1.8-4.2c2.824-5.191 5.634-10.376 6.888-16.235a10.055 10.055 0 0 1 .74-1.817c3.482-8 7.207-15.902 10.38-24.02a180.661 180.661 0 0 1 8.94-18.963 27.113 27.113 0 0 0 2.74-5.934c1.164-4.75 3.457-8.95 5.718-13.191 3.087-5.79 6.188-11.569 9.23-17.38.91-1.736 1.648-3.562 2.421-5.365 1.72-4.004 3.245-8.102 5.158-12.012 2.875-5.875 6.45-11.405 8.028-17.885a21.641 21.641 0 0 1 2.25-4.722c2.154-4.054 4.361-8.084 6.517-12.134.716-1.348 1.712-2.685 1.946-4.127.762-4.678 3.284-8.528 5.44-12.566l3.48-6.554c-2.919-4.643-6.235-8.417-11.065-10.936-19.574-10.219-39.018-20.692-58.644-30.809-6.98-3.594-14.281-6.592-21.545-9.59-6.253-2.582-12.75-4.54-18.668-7.95a44.843 44.843 0 0 0-7.277-2.945c-6.99-2.51-14.023-4.91-21.003-7.447q-20.945-7.607-41.85-15.322c-5.123-1.888-10.33-3.624-15.274-5.911a76.032 76.032 0 0 0-12.902-4.677c-4.225-1.096-8.668-1.857-12.508-3.776-4.957-2.472-10.174-3.913-15.36-5.58a40.172 40.172 0 0 1-4.361-1.39c-6.557-2.975-13.034-6.13-19.623-9.032a37.393 37.393 0 0 0-8.673-2.871 24.763 24.763 0 0 1-7.375-2.498c-10.694-5.502-21.4-10.971-32.076-16.507a32.535 32.535 0 0 0-11.698-3.956Zm35.194 472.941c5.014 2.663 8.626 4.695 12.347 6.507a29.287 29.287 0 0 0 5.583 1.851q20.956 5.307 41.935 10.517c1.26.313 2.694.88 3.838.567 4.843-1.331 9.466-.153 14.031 1.045a31.694 31.694 0 0 0 16.158.453 20.096 20.096 0 0 1 4.544-.432c7.132-.13 13.575-2.808 20.379-5.13a33.294 33.294 0 0 1-3.991-14.67c-.067-4.99 2.74-9.421 3.044-14.768-4.309.629-7.9 2.257-11.664 3.227-1.68.433-3.513 1.333-5.063 1.007-3.915-.824-7.348.498-10.88 1.58-3.762 1.152-7.545 2.254-11.228 3.628-5.135 1.914-10.856 1.301-15.835 3.822a1.7 1.7 0 0 1-1.278-.058c-2.467-1.1-4.706-.009-6.986.66a21.441 21.441 0 0 1-8.319 1.101c-3.851-.358-7.804.353-11.712.6a9.398 9.398 0 0 1-2.585.107c-3.273-.755-6.5-.08-9.758.01-6.514.18-13.127.676-19.35-2.148-.434-.21-1.13.157-3.21.524ZM475.35 282.74c.336.309.673.616 1.009.927 1.614-1.01 3.247-1.989 4.823-3.052.233-.159.195-.722.334-1.326-1.652-.086-3.26-.171-5.088-.262-.4 1.377-.741 2.545-1.077 3.713ZM306.676 536.364c.138-.121.276-.242.415-.366-.118-.106-.264-.318-.348-.298a.638.638 0 0 0-.347.356c-.026.05.176.202.276.306Z" data-name="Path 1100"/><path fill-rule="evenodd" d="M423.58 414.767c-2.008 2.67-3.982 5.378-6.066 7.987-.305.379-1.489.626-1.677.414-.491-.555-1.03-1.485-.886-2.114a7.548 7.548 0 0 1 4.584-5.8c1.175-.466 2.317-1.018 3.477-1.528.185.348.376.696.568 1.041Z" data-name="Path 1101"/><path fill-rule="evenodd" d="M398.486 462.999c.11-5.009 2.243-6.96 7.633-7.696-2.485 2.504-4.701 4.74-7.633 7.696Z" data-name="Path 1102"/><path fill="#d6d0c0" fill-rule="evenodd" d="M234.13 507.764c2.079-.367 2.773-.729 3.212-.53 6.222 2.825 12.835 2.33 19.35 2.15 3.259-.09 6.485-.765 9.758-.01a9.39 9.39 0 0 0 2.585-.107c3.908-.248 7.86-.958 11.712-.6a21.441 21.441 0 0 0 8.32-1.1c2.28-.67 4.517-1.761 6.984-.662a1.7 1.7 0 0 0 1.279.06c4.978-2.521 10.7-1.91 15.835-3.824 3.683-1.373 7.466-2.476 11.227-3.628 3.53-1.078 6.963-2.4 10.88-1.58 1.55.327 3.383-.573 5.064-1.006 3.762-.966 7.354-2.598 11.664-3.228-.305 5.347-3.116 9.78-3.045 14.77a33.294 33.294 0 0 0 3.996 14.668c-6.808 2.327-13.25 5.006-20.382 5.135a20.096 20.096 0 0 0-4.544.432 31.694 31.694 0 0 1-16.158-.453c-4.564-1.198-9.188-2.376-14.03-1.045-1.147.314-2.583-.254-3.84-.567q-20.975-5.223-41.934-10.517a29.278 29.278 0 0 1-5.583-1.851c-3.726-1.81-7.34-3.846-12.35-6.507Z" data-name="Path 1103"/><g fill-rule="evenodd" data-name="Group 703"><path d="M252.099 162.181c.343-1.384.262-2.925.844-4.193a70.45 70.45 0 0 0 4.695-12.55c1.256-5.097 3.683-9.886 5.58-14.81 1.441-3.744.002-7.664-3.982-9.641-9.157-4.541-18.415-8.89-27.644-13.287a10.611 10.611 0 0 0-8.781-.5c-1.17 2.263-2.177 4.245-3.217 6.216-2.19 4.158-4.865 8.14-6.476 12.51-1.702 4.612-3.325 9.2-5.928 13.415a64.76 64.76 0 0 0-3.11 6.001 8.526 8.526 0 0 0-.245 7.496c9.122 5.03 19.141 8.809 28.786 13.329 4.463 2.09 9.393 3.244 14.151 4.838 3.383-2.199 4.486-5.445 5.327-8.824Zm-8.712 2.8c-5.306-1.78-26.7-12.093-33.294-16.023 1.396-6.718 6.079-12.217 7.854-18.953 1.706-6.468 5.024-12.482 7.648-18.736 4.398.09 7.338 2.908 10.806 4.38 3.764 1.605 7.428 3.461 11.053 5.357 3.374 1.768 7.18 2.853 10.013 5.447a6.61 6.61 0 0 1-.003 2.003q-6.245 17.514-12.606 34.977c-.188.52-.82.88-1.471 1.548Z" data-name="Path 1104"/><path d="M233.636 205.744c.019 2.866-1.514 5.359-2.619 7.915-3.476 8.002-7.152 15.916-10.75 23.863-.27.599-.532 1.198-.833 1.78-2.498 4.753-5.149 6.072-10.875 5.414a12.036 12.036 0 0 1-3.333-.502c-9.381-4.103-18.787-8.173-28.044-12.525-3.544-1.665-3.59-3.635-2.88-7.612 1.25-6.98 4.686-13.001 7.856-19.194 1.185-2.314 1.796-4.89 2.844-7.272 1.398-3.164 2.7-6.324 6.445-7.93 1.583-.68 2.935-1.103 4.481-.537 2.992 1.095 5.949 2.29 8.892 3.507a36.849 36.849 0 0 0 9.055 2.892c4.813.668 16.225 6.892 19.761 10.2Zm-5.534 1.508c-5.043-2.25-9.39-5.1-14.136-6.075-5.733-1.176-10.756-3.595-15.976-5.768a33.08 33.08 0 0 0-3.795-1.514 2.722 2.722 0 0 0-3.405 1.4 12.889 12.889 0 0 0-1.222 3.02c-1.524 7.064-4.394 13.65-7.42 20.187a14.506 14.506 0 0 0-1.115 7.333 6.613 6.613 0 0 0 1.242 1.137q11.162 5.121 22.345 10.194a10.86 10.86 0 0 0 8.314.425l15.168-30.339Z" data-name="Path 1105"/><path d="M185.786 319.814a45.18 45.18 0 0 1-14.819-4.006c-5.512-2.588-10.872-5.69-17.123-6.506a2.613 2.613 0 0 1-.634-.241c-10.151-4.26-10.063-4.431-5.78-13.17q6.331-12.924 12.529-25.903c.645-1.35 1.068-2.796 1.641-4.316 1.095-.569 2.276-1.195 3.377-1.771.556.13 1.194.097 1.377.352a8.847 8.847 0 0 0 4.301 3.048c4.451 1.733 8.777 3.757 13.216 5.513a56.514 56.514 0 0 0 7.762 2.457 39.515 39.515 0 0 1 10.25 4.237 25.48 25.48 0 0 1-2.312 10.016c-3.004 6.294-5.945 12.615-8.902 18.933-1.562 3.334-3.408 6.567-3.805 10.319-.04.332-.606.601-1.078 1.038Zm8.623-37.858c-10.293-1.04-18.571-6.872-27.508-10.52-.703.514-1.207.693-1.367 1.026q-6.541 13.495-12.995 27.023a7.78 7.78 0 0 0-.327 2.026c7.784 5.516 16.76 8.788 25.387 12.691a6.059 6.059 0 0 0 1.972.481c2.167.183 4.115-.163 5.054-2.334 1.462-3.38 2.999-6.736 4.313-10.17 1.466-3.845 2.579-7.819 4.117-11.632a16.922 16.922 0 0 0 1.354-8.592Z" data-name="Path 1106"/><path d="M399.39 316.418c-.764.984-1.103 1.864-1.734 2.145-2.47 1.096-4.855.445-7.189-.71-4.878-2.422-9.787-4.793-14.686-7.177a86.352 86.352 0 0 0-8.2-3.125c-6.978-2.562-14.615-3.731-20.691-8.422a9.841 9.841 0 0 0-6.246-2.404 2.683 2.683 0 0 1-1.325-.277c-5.31-3.069-11.285-4.543-16.958-6.73-4.636-1.784-8.887-4.316-14.026-5.056-2.811-.402-5.44-2.198-8.101-3.463-2.872-1.367-5.757-2.733-8.493-4.323a16.037 16.037 0 0 1-4.671-3.713 9.181 9.181 0 0 0-6.875-3.725 30.41 30.41 0 0 1-14.58-5.277c-1.291-.89-2.89-1.364-4.196-2.238a11.815 11.815 0 0 0-10.358-1.698c-3.203.968-5.737-.283-8.413-1.638-3.13-1.582-3.809-4.186-3.547-7.145.048-.546 1.07-1.007 1.892-1.723a9.751 9.751 0 0 1 1.174 2.007 6.312 6.312 0 0 0 7.01 5.074c5.8-.421 10.636 1.558 15.503 4.158 4.803 2.56 9.852 4.572 15.457 4.908a17.764 17.764 0 0 1 8.814 3.359c7.898 5.278 16.154 9.856 25.447 12.516a31.383 31.383 0 0 1 4.95 2.257c3.44 1.687 6.641 3.944 10.72 4.065a2.85 2.85 0 0 1 1.268.47c7.834 4.74 17.125 5.83 25.383 9.584 4.467 2.033 9.474 2.94 14.23 4.376a15.82 15.82 0 0 1 2.56.936c8.493 4.244 16.966 8.511 25.88 12.989Z" data-name="Path 1107"/><path d="M339.973 457.99a21.623 21.623 0 0 1-4.309-1.07c-6.072-3.126-12.251-5.921-19.047-7.304-1.526-.311-2.91-1.251-4.398-1.806a15.412 15.412 0 0 0-3.884-1.157c-7.712-.663-14.385-3.738-20.69-7.882a41.227 41.227 0 0 0-6.104-2.913c-5.608-2.462-11.305-4.745-16.834-7.356-8.483-4.01-17.169-7.179-26.705-7.625-6.653-.312-15.795-3.892-20.4-8.271a21.915 21.915 0 0 0-8.83-4.828c-3.898-1.242-7.699-2.77-11.595-4.021-2.8-.897-5.693-1.513-8.53-2.309a41.393 41.393 0 0 1-6.418-2.023 6.127 6.127 0 0 1-2.609-2.88 3.361 3.361 0 0 1 .268-2.94 1.882 1.882 0 0 1 2.954.211c2.121 2.725 5.117 3.437 8.334 4.008a37.981 37.981 0 0 1 5.883 1.772c4.72 1.657 9.465 3.265 14.109 5.116a36.164 36.164 0 0 1 7.837 3.987c6.371 4.63 13.279 7.632 21.33 7.847 3.684.098 7.13 1.195 10.677 2.09 12.743 3.201 23.786 10.236 36.02 14.558a23.735 23.735 0 0 1 5.228 3.088c4.898 3.354 9.959 6.26 16.237 6.217a4.663 4.663 0 0 1 1.361.11c9.129 2.786 18.487 5.018 26.73 9.993a11.549 11.549 0 0 1 3.003 2.595c.435.528.238 1.51.382 2.793Z" data-name="Path 1108"/><path d="M134.504 339.698c4.034 1.502 7.46 2.724 10.835 4.057a89.765 89.765 0 0 0 9.72 2.981c4.77 1.29 9.248 3.674 13.75 5.79 1.698.798 2.07 2.457 1.21 4.604-1.29 3.232-2.783 6.384-4.225 9.554a63.903 63.903 0 0 0-3.165 9.17c-1.289 4.536-3.69 8.786-5.833 13.056-.848 1.691-2.747 2.187-4.72 1.393-3.58-1.449-7.066-3.111-10.598-4.676a47.065 47.065 0 0 0-10.914-3.776 49.183 49.183 0 0 1-9.002-3.06 4.36 4.36 0 0 1-2.141-5.542c.951-2.656 1.977-5.29 3.03-7.9 2.438-6.048 4.849-12.102 7.405-18.102a28.8 28.8 0 0 1 4.648-7.549Zm17.687 45.027c2.674-3.48 4.549-6.557 4.964-9.915.525-4.25 2.53-7.792 4.195-11.546 1.04-2.335 2.814-4.445 2.591-7.62-2.98-1.331-5.952-3.446-9.17-3.922-5.593-.826-10.278-3.431-15.233-5.6-1.412-.62-2.885-1.117-4.435-1.712-.588 1.226-1.487 2.202-1.43 3.137.273 4.56-1.787 8.408-3.656 12.314-2.165 4.518-2.95 9.388-4.41 14.326 2.12.945 3.878 2.207 5.778 2.485 4.62.679 8.66 2.665 12.808 4.483 2.48 1.09 4.948 2.206 7.999 3.57Z" data-name="Path 1109"/><path d="M428.179 232.067c-2.814-.702-5.244-1.228-7.622-1.924-3.685-1.08-7.075-3.092-11.15-2.968-1.26.038-2.594-.777-3.836-1.327-5.404-2.4-10.822-4.775-16.156-7.308a26.317 26.317 0 0 1-5.725-3.555c-2.532-2.138-5.245-3.527-8.632-3.317-6.865.43-12.874-1.99-18.804-4.996-3.408-1.732-6.86-3.496-10.954-3.462a10.116 10.116 0 0 1-3.848-1.295c-8.304-3.709-16.603-7.43-24.872-11.215a23.939 23.939 0 0 1-8.226-5.728c-4.654-5.19-11.078-7.51-17.92-8.818-2.685-.512-5.402-.912-8.044-1.577a8.06 8.06 0 0 1-3.566-1.812 3.187 3.187 0 0 1-.668-2.882 3.257 3.257 0 0 1 2.512-1.627 7.469 7.469 0 0 1 3.762 1.286c3.056 2.026 6.483 3.128 9.88 4.448 5.667 2.218 11.485 4.334 16.018 8.621a26.426 26.426 0 0 0 8.066 4.862c6.912 2.925 13.746 6.026 20.627 9.022 3.111 1.355 6.113 2.885 9.708 3.018 1.722.064 3.441 1.085 5.114 1.779 2.313.955 4.59 1.991 6.867 3.026a21.832 21.832 0 0 0 11.205 2.32 20.221 20.221 0 0 1 15.197 4.734 15.797 15.797 0 0 0 4.051 2.446c7.772 3.16 15.104 7.22 23.352 9.468 4.478 1.215 8.427 4.308 12.562 6.64.467.264.59 1.1 1.102 2.14Z" data-name="Path 1110"/><path d="M232.576 325.848c-1.228.63-2.393 1.333-3.645 1.839-.813.33-1.935.778-2.613.49-4.171-1.762-9.018-1.27-12.939-3.762-2.664-1.69-3.176-3.054-2.258-6.018a20.572 20.572 0 0 1 .865-2.449 6.162 6.162 0 0 1 1.19-1.204c.535.613 1.408 1.156 1.472 1.766.326 3.05 2.21 4.598 5.084 5.446 1.527.451 2.961 1.22 4.502 1.576a7.89 7.89 0 0 0 3.945.213c5.973-1.967 10.825.593 15.089 3.93a31.994 31.994 0 0 0 6.78 4.267q4.058 1.798 8.109 3.596c3.946 1.756 7.77 3.916 11.888 5.125a54.318 54.318 0 0 0 12.034 1.75 18.397 18.397 0 0 1 11.54 5.022 41.068 41.068 0 0 0 12.04 7.385c5.695 2.296 11.21 5 16.842 7.448 3.51 1.524 6.826 3.519 10.985 3.334 1.443-.066 2.977 1.003 4.442 1.617 3.122 1.312 6.068 3.044 9.68 2.998a8.078 8.078 0 0 1 3.17 1.169 41.54 41.54 0 0 0 7.7 2.441c3.89.989 7.477 3.127 11.14 4.89.342.162.406 1.138.34 1.704-.038.284-.623.596-1.019.724a2.033 2.033 0 0 1-1.328.056c-4.962-2.246-10.281-3.397-15.484-4.917-2.168-.634-4.152-1.696-6.546-1.7a10.217 10.217 0 0 1-3.876-1.136c-3.732-1.67-7.386-3.47-11.591-3.856a10.744 10.744 0 0 1-3.152-1.247c-8.924-3.994-17.817-8.05-26.775-11.969-2.96-1.297-5.778-2.729-7.665-5.306-4.12-5.617-10.391-6.137-16.47-5.94a18.36 18.36 0 0 1-8.497-1.674c-6.643-2.968-13.328-5.854-19.898-8.967-2.634-1.245-4.993-3.025-7.518-4.492-2.133-1.242-4.332-2.386-7.563-4.149Z" data-name="Path 1111"/></g></g><path fill="#009cb2" fill-rule="evenodd" d="M227.22 120.363c-2.64-1.076-4.49-1.715-6.232-2.575a2.433 2.433 0 0 1-.386-3.898c1.524-1.65 3.487-1.63 5.45-1.555 3.853.153 6.572 1.906 7.892 5.677a14.412 14.412 0 0 1 .358 8.964 37.2 37.2 0 0 0-1.42 12.206c2.33 1.23 3.79-.799 5.593-1.153a15.968 15.968 0 0 0 4.905-1.75c8.966-5.22 18.89-7.836 28.694-10.798 4.168-1.26 8.261-2.765 12.404-4.125 3.311-1.091 6.623-2.188 9.962-3.184 1.28-.382 2.627-.391 3.448.999.709 1.206.219 2.595-1.48 3.817a36.894 36.894 0 0 1-5.464 3.578c-4.518 2.147-9.097 4.19-13.756 6.008-3.447 1.346-7.029 2.363-10.598 3.362a108.874 108.874 0 0 0-18.187 7.25 119.12 119.12 0 0 1-15.743 6.172c-4.598 1.469-7.758-.867-8.004-5.706a60.014 60.014 0 0 1 1.873-18.748 40.993 40.993 0 0 0 .691-4.54Z" data-name="Path 1112"/><path fill="#009cb2" fill-rule="evenodd" d="M197.337 195.058c-2.64-1.077-4.49-1.715-6.23-2.578a2.428 2.428 0 0 1-.387-3.894c1.523-1.652 3.486-1.633 5.449-1.555 3.855.15 6.572 1.906 7.892 5.678a14.391 14.391 0 0 1 .358 8.963 37.215 37.215 0 0 0-1.42 12.205c2.328 1.236 3.791-.799 5.593-1.151a16.097 16.097 0 0 0 4.907-1.751c8.965-5.22 18.888-7.837 28.692-10.8 4.171-1.262 8.266-2.763 12.407-4.126 3.311-1.091 6.624-2.189 9.962-3.185 1.281-.381 2.626-.39 3.447 1.001.71 1.206.22 2.595-1.48 3.817a37 37 0 0 1-5.463 3.577c-4.519 2.147-9.098 4.191-13.757 6.01-3.445 1.34-7.028 2.362-10.597 3.36a109.25 109.25 0 0 0-18.186 7.249 119.007 119.007 0 0 1-15.745 6.174c-4.597 1.468-7.757-.868-8.002-5.71a59.917 59.917 0 0 1 1.873-18.744 41.286 41.286 0 0 0 .687-4.54Z" data-name="Path 1113"/></g></svg>