<svg width="598.243" height="443.372" xmlns="http://www.w3.org/2000/svg"><g data-name="Group 696"><path fill="#903" d="M228.867 60.044s64.435 174.198 85.419 173.186 148.133-123.603 148.133-123.603-21.926-46.963-109.29-66.363-124.262 16.78-124.262 16.78Z" data-name="Path 1090"/><path fill="#7ec8d6" d="M284.867 408.962s30.329-142.044 19.32-162.518-88.198-180.303-88.198-180.303-74.327 39.31-100.842 109.574c-24.48 64.865 7.728 153.752 42.085 179.178 71.722 53.083 127.635 54.07 127.635 54.07Z" data-name="Path 1092"/><path fill="#e79e17" d="M471.826 127.911S319.82 231.996 315.495 254.836 295.11 409.971 295.11 409.971s55.746 21.857 120.568-16.066c59.84-35.01 92.816-161.06 82.114-202.44-22.337-86.39-25.966-63.554-25.966-63.554Z" data-name="Path 1093"/><g stroke="#323f51" data-name="Group 694"><g fill="none" stroke-width="5" data-name="Group 693"><g data-name="Group 540"><path stroke-width="5.001250000000001" d="M483.88 289.019c-19.448 63.567-62.12 162.853-242.308 109.522S94.526 167.681 162.97 104.364s189.96-109.228 298.527-.708c56.07 56.043 34.41 146.054 22.383 185.363Z" data-name="Path 793"/><path stroke-width="5.001250000000001" d="M121.365 164.354c10.15-24.955 24.662-46.305 40.613-61.063 72.166-66.761 194.18-106.996 300.557-.667 40.036 40.016 47.896 104.617 22.747 186.82-9.978 32.618-25.975 73.388-61.412 99.353-42.07 30.826-103.543 34.577-182.709 11.145-89.971-26.63-120.38-81.56-130.042-122.954-9.15-39.179-3.378-79.15 10.246-112.634Zm361.117 124.238c24.818-81.107 17.206-144.698-22.017-183.9-104.91-104.864-225.285-65.135-296.502.745-35.842 33.155-65.545 104.317-50 170.887 9.488 40.638 39.398 94.586 128.025 120.817 168.474 49.862 217.018-31.827 240.493-108.55Z" data-name="Path 794"/></g><path stroke-width="5.001250000000001" d="M246.611 61.702a1.468 1.468 0 0 1 .823-.812c23-8.96 46.25-13.541 69.104-13.614 34.375-.107 67.336 9.953 98.074 29.92q2.615 1.7 5.231 3.51a1.472 1.472 0 0 1 .37 2.033 1.463 1.463 0 0 1-2.034.37c-31.708-21.947-65.902-33.022-101.632-32.912-22.491.072-45.388 4.588-68.05 13.416a1.461 1.461 0 0 1-1.894-.83 1.446 1.446 0 0 1 .008-1.081Z" data-name="Path 795"/><path stroke-width="5.001250000000001" d="M137.452 312.17a1.468 1.468 0 0 1 .62-.709 1.464 1.464 0 0 1 1.999.526 144.946 144.946 0 0 0 38.216 42.63 1.482 1.482 0 0 1 .283 2.047 1.461 1.461 0 0 1-2.044.282 147.898 147.898 0 0 1-38.982-43.486 1.462 1.462 0 0 1-.092-1.29Z" data-name="Path 796"/><path stroke-width="5.001250000000001" d="M326.52 402.45a1.456 1.456 0 0 1 1.38-.91 189.77 189.77 0 0 0 25.284-1.104 1.457 1.457 0 0 1 1.615 1.287 1.453 1.453 0 0 1-1.287 1.617 192.527 192.527 0 0 1-25.665 1.121 1.462 1.462 0 0 1-1.43-1.492 1.49 1.49 0 0 1 .104-.519Z" data-name="Path 797"/><path stroke-width="5.001250000000001" d="M396.702 388.879a1.468 1.468 0 0 1 .719-.766 116.805 116.805 0 0 0 16.298-9.556 117.353 117.353 0 0 0 13.815-11.396 1.462 1.462 0 0 1 2.067.041 1.466 1.466 0 0 1-.04 2.065 119.705 119.705 0 0 1-14.164 11.678 119.178 119.178 0 0 1-16.707 9.803 1.46 1.46 0 0 1-1.948-.682 1.456 1.456 0 0 1-.04-1.187Z" data-name="Path 798"/><path stroke-width="5.001250000000001" d="M451.44 109.768a1.51 1.51 0 0 1 .32-.483 1.465 1.465 0 0 1 2.066 0c27.586 27.575 39.006 66.98 33.947 117.118a1.462 1.462 0 0 1-1.601 1.306 1.46 1.46 0 0 1-1.305-1.6c4.967-49.224-6.173-87.835-33.108-114.76a1.465 1.465 0 0 1-.32-1.581Z" data-name="Path 799"/><path stroke-width="5.001250000000001" d="M136.418 156.223c4.986-11.366 13.304-23.204 24.717-35.19 3.734-3.919 7.859-7.91 12.264-11.862l1.952 2.173c-4.347 3.904-8.417 7.84-12.1 11.706-11.177 11.738-19.306 23.293-24.156 34.346Z" data-name="Path 800"/><path stroke-width="5.001250000000001" d="M191.719 94.132a287.681 287.681 0 0 1 26.204-17.708l1.46 2.533c-.114.066-25.903 17.51-25.903 17.51Z" data-name="Path 801"/></g><path fill="#fff" stroke-linecap="round" stroke-linejoin="round" stroke-width="7.00175" d="m67.529 61.493-7.315 41.411c-.302 1.708-.299 1.69 1.358 1.973 2.932.504 5.869 1 8.787 1.576.876.173 1.204-.034 1.448-.896.854-3.034 1.295-6.155 1.988-9.223 1.592-7.064 2.946-14.181 4.422-21.27q2.411-11.582 4.867-23.157c1.597-7.591 3.161-15.186 4.818-22.77.46-2.104.917-4.205 1.334-6.322.427-2.178 1.45-3.033 3.683-3.108 1.635-.059 2.852.873 4.052 1.783.504.384.292 1.038.208 1.586a470.629 470.629 0 0 0-1.212 8.055c-.747 5.38-1.707 10.733-2.47 16.11-1.364 9.604-2.839 19.188-4.28 28.779-.949 6.306-1.813 12.628-2.836 18.925-.703 4.337-1.224 8.703-1.846 13.054-.095.656-.03 1.019.769 1.141 3.154.488 6.295 1.055 9.44 1.594 1.763.302 1.774.304 2.085-1.46l14.587-82.575c.367-2.075 1.042-2.777 2.975-3.086a4.101 4.101 0 0 1 4.041 2.013 1.8 1.8 0 0 1 .203 1.12q-.922 8.933-1.828 17.867c-.63 6.3-1.222 12.604-1.858 18.902-.538 5.315-1.13 10.622-1.668 15.936-.637 6.3-1.226 12.604-1.862 18.903-.434 4.285-1.01 8.557-1.355 12.85a26.846 26.846 0 0 1-4.555 12.755 27.58 27.58 0 0 1-11.295 9.99 22.984 22.984 0 0 0-12.093 12.503 38.62 38.62 0 0 0-2.068 9.846c-.47 3.811-1.19 7.578-1.65 11.39-.589 4.872-1.512 9.71-2.203 14.577q-1.971 13.825-4.069 27.631c-.877 5.796-1.7 11.6-2.554 17.399q-2.012 13.688-4.042 27.375-1.307 8.76-2.577 17.523-1.98 13.628-4.02 27.247c-.886 5.97-1.73 11.946-2.644 17.911-1.22 7.966-2.23 15.967-3.515 23.922a15.604 15.604 0 0 1-16.712 13.019 15.443 15.443 0 0 1-14.044-15.819c.11-3.913 1.232-7.74 2.022-11.584.625-3.038 1.368-6.05 1.998-9.093 1.542-7.472 3.028-14.958 4.572-22.432q3.378-16.334 6.807-32.66 2.497-11.963 5.003-23.922 2.62-12.53 5.223-25.065 2.589-12.404 5.182-24.806c1.709-8.186 3.386-16.377 5.133-24.556 1.193-5.607 2.508-11.19 3.462-16.845a21.268 21.268 0 0 0-5.887-19.252c-5.695-5.887-9.022-12.75-9.212-21.022-.093-4.023 1.092-7.831 2.006-11.685.736-3.1 1.556-6.18 2.333-9.27q2.124-8.462 4.24-16.925c1.03-4.138 2.028-8.284 3.056-12.424 1.41-5.685 2.842-11.366 4.253-17.051q1.525-6.146 3.027-12.298c.728-2.97 1.5-5.93 2.161-8.917a3.33 3.33 0 0 1 3.084-2.792 3.656 3.656 0 0 1 4.34 4.322l-7.297 41.297Z" data-name="Path 1085"/><path fill="#fff" stroke-linecap="round" stroke-linejoin="round" stroke-width="7.00175" d="M578.665 153.31q-4.006 22.68-8.008 45.36c-1.228 7.005-2.497 14.003-3.574 21.032-1.597 10.437-3.022 20.898-4.554 31.348-1.101 7.508-2.26 15.007-3.38 22.511-.836 5.584-1.649 11.17-2.475 16.756-.932 6.31-1.923 12.614-2.784 18.935-.77 5.637-1.614 11.264-2.476 16.889-1.412 9.197-2.727 18.418-4.086 27.63-.861 5.84-1.758 11.675-2.577 17.523-1.29 9.218-2.678 18.426-4.068 27.631-.81 5.368-1.489 10.755-2.361 16.115-.36 2.211-.572 4.447-.943 6.655a15.643 15.643 0 0 1-18.753 12.888c-7.314-1.49-12.855-8.927-12.048-16.325.572-5.234 1.998-10.313 3.02-15.464 1.802-9.046 3.732-18.068 5.611-27.098q1.595-7.658 3.196-15.314l7.031-33.67 3.325-15.947c1.734-8.313 3.387-16.643 5.241-24.93.753-3.364 1.175-6.8 2.191-10.104.327-1.06.036-1.554-1.13-1.73-2.941-.445-5.859-1.059-8.8-1.506-1.188-.18-1.482-.645-1.23-1.8 1.808-8.25 3.405-16.547 5.362-24.766.867-3.65 1.66-7.314 2.495-10.97a528.738 528.738 0 0 1 4.499-18.325c1.437-5.41 2.78-10.847 4.285-16.24q2.571-9.206 5.375-18.349 3.094-10.133 6.64-20.12c5.351-15.038 11.263-29.836 19.04-43.82a100.512 100.512 0 0 1 9.643-14.682 12.562 12.562 0 0 1 1.12-1.252 2.082 2.082 0 0 1 2.52-.298 2.026 2.026 0 0 1 1.185 2.235c-.856 6.46-2.144 12.846-3.277 19.258-.637 3.608-1.25 7.217-1.886 10.824q-1.675 9.566-3.369 19.12Z" data-name="Path 1086"/></g></g></svg>