<svg width="398" height="75.136" xmlns="http://www.w3.org/2000/svg"><g data-name="Group 710" transform="translate(-19011 14004.136)"><rect width="378" height="70" fill="#fff" data-name="Rectangle 331" rx="35" transform="translate(19011 -13999)"/><g data-name="Group 707"><path fill="#076572" d="M19308.355-13941.627a127.8 127.8 0 0 0-17.1.69 107.368 107.368 0 0 0-16.352 3.336c-2.151.615-4.485 1.474-4.668 2.75-.114.8.671 1.546 1.5 2.218a13.691 13.691 0 0 0 4.469 2.536c3.333 1.095 7.57.975 11.5.811 9.868-.411 19.751-.864 29.472-1.841a81.8 81.8 0 0 0 10.293-1.541c1.775-.415 3.637-1.045 4.02-2.039.55-1.427-2-2.674-4.127-3.317-4.259-1.287-5.216-1.79-9.953-2.368a104.769 104.769 0 0 0-10.9-1.257" data-name="Path 468"/><path fill="#009cb2" d="M19321.683-13958.059a86.4 86.4 0 0 0-15.787.872 76.3 76.3 0 0 0-15.1 4.22c-1.986.778-4.142 1.865-4.31 3.478a3.988 3.988 0 0 0 1.383 2.806c1.108 1.233 3.99 2.343 5.726 3.124 3.077 1.385 5.39 1.321 9.016 1.114 9.112-.52 18.237-1.093 27.212-2.328a56.773 56.773 0 0 0 9.5-1.95c1.639-.524 3.359-1.321 3.712-2.579.508-1.805-1.846-3.382-3.811-4.2-3.932-1.628-4.816-2.264-9.19-3a71.967 71.967 0 0 0-10.069-1.59" data-name="Path 469"/><path fill="#7ec8d6" d="M19330.856-13957.469a118.744 118.744 0 0 0 17.1-.742 100.687 100.687 0 0 0 16.35-3.593c2.151-.662 4.486-1.587 4.668-2.961.114-.857-.671-1.665-1.5-2.388a13.484 13.484 0 0 0-4.466-2.735c-3.333-1.179-7.571-1.05-11.5-.874-9.868.443-19.751.93-29.472 1.982a76.365 76.365 0 0 0-10.292 1.66c-1.775.446-3.637 1.125-4.02 2.2-.55 1.537 2 2.879 4.127 3.572 4.259 1.386 5.216 1.927 9.953 2.55a97.621 97.621 0 0 0 10.906 1.35" data-name="Path 470"/><path fill="rgba(50,63,81,0.14)" d="M19354.862-13970.435a118.744 118.744 0 0 0 17.1-.742 100.687 100.687 0 0 0 16.35-3.593c2.151-.662 4.486-1.587 4.668-2.961.114-.857-.671-1.665-1.5-2.388a13.484 13.484 0 0 0-4.466-2.735c-3.333-1.179-7.571-1.05-11.5-.874-9.868.443-19.751.93-29.472 1.982a76.365 76.365 0 0 0-10.292 1.66c-1.775.446-3.637 1.125-4.02 2.2-.55 1.537 2 2.879 4.127 3.572 4.259 1.386 5.216 1.927 9.953 2.55a97.621 97.621 0 0 0 10.906 1.35" data-name="Path 471"/><path fill="rgba(50,63,81,0.14)" d="M19385.865-14001.446a118.798 118.798 0 0 0-17.117-.457 100.733 100.733 0 0 0-16.568 2.442c-2.193.51-4.588 1.27-4.866 2.628-.174.847.955 3.654 1.73 4.434 1.124 1.132 2.036.301 3.865 1.096 3.244 1.41 9.377.72 13.313.819 9.879.248 17.877 1.313 27.652.943a76.4 76.4 0 0 0 10.387-.936c1.803-.32 3.709-.868 4.166-1.914.657-1.496-1.794-3.013-3.868-3.854-4.154-1.681-5.07-2.288-9.755-3.242a97.665 97.665 0 0 0-10.787-2.11" data-name="Path 472"/></g><text fill="#009cb2" font-family="FiraSans-MediumItalic, Fira Sans" font-size="40" font-style="italic" font-weight="500" transform="translate(19058.066 -13992.757)"><tspan x="0" y="43">Måltrappen</tspan></text></g></svg>