<svg width="194" height="194" xmlns="http://www.w3.org/2000/svg"><g data-name="Group 720"><path fill="#6c85a0" stroke="rgba(0,0,0,0)" stroke-miterlimit="10" d="M79.481 124.133a5.659 5.659 0 0 1 1.04-7.064l26.4-21.889-29.544-17.609a5.46 5.46 0 0 1-1.886-6.834 4.149 4.149 0 0 1 5.945-2.167l35.878 21.383a5.461 5.461 0 0 1 1.886 6.834 4.789 4.789 0 0 1-1.815 2.125l-31.9 26.446a3.867 3.867 0 0 1-2.48.926 4.151 4.151 0 0 1-3.524-2.151Z" data-name="Union 10"/><g fill="none" stroke="#6c85a0" stroke-width="6" data-name="Ellipse 28"><circle cx="97" cy="97" r="97" stroke="none"/><circle cx="97" cy="97" r="94"/></g></g></svg>