<svg xmlns="http://www.w3.org/2000/svg" width="194" height="194" viewBox="0 0 194 194">
  <g id="Group_720" data-name="Group 720" transform="translate(-2289 -1083)">
    <path id="Union_10" data-name="Union 10" d="M-6144.473-2915.456a5.659,5.659,0,0,1,1.04-7.064l26.4-21.889-29.544-17.609a5.46,5.46,0,0,1-1.886-6.834,4.149,4.149,0,0,1,5.945-2.167l35.878,21.383a5.461,5.461,0,0,1,1.886,6.834,4.789,4.789,0,0,1-1.815,2.125l-31.9,26.446a3.867,3.867,0,0,1-2.48.926A4.151,4.151,0,0,1-6144.473-2915.456Z" transform="translate(8512.954 4122.589)" fill="#6c85a0" stroke="rgba(0,0,0,0)" stroke-miterlimit="10" stroke-width="1"/>
    <g id="Ellipse_28" data-name="Ellipse 28" transform="translate(2289 1083)" fill="none" stroke="#6c85a0" stroke-width="6">
      <circle cx="97" cy="97" r="97" stroke="none"/>
      <circle cx="97" cy="97" r="94" fill="none"/>
    </g>
  </g>
</svg>
