<svg xmlns="http://www.w3.org/2000/svg" width="79" height="79" viewBox="0 0 79 79">
  <g id="Group_589" data-name="Group 589" transform="translate(-2289 -1083)">
    <path id="Union_10" data-name="Union 10" d="M1.824,22.842a2.3,2.3,0,0,1,.423-2.875L12.992,11.06.969,3.894A2.22,2.22,0,0,1,.2,1.114,1.688,1.688,0,0,1,2.621.232l14.6,8.7a2.221,2.221,0,0,1,.768,2.781,1.949,1.949,0,0,1-.736.863L4.269,23.339a1.573,1.573,0,0,1-1.009.377A1.688,1.688,0,0,1,1.824,22.842Z" transform="translate(2319.518 1110.67)" fill="#323f51" stroke="rgba(0,0,0,0)" stroke-miterlimit="10" stroke-width="1"/>
    <g id="Ellipse_28" data-name="Ellipse 28" transform="translate(2289 1083)" fill="none" stroke="#323f51" stroke-width="6">
      <circle cx="39.5" cy="39.5" r="39.5" stroke="none"/>
      <circle cx="39.5" cy="39.5" r="36.5" fill="none"/>
    </g>
  </g>
</svg>
