<svg width="84.318" height="84.318" xmlns="http://www.w3.org/2000/svg"><g data-name="Group 590"><path fill="#323f51" stroke="rgba(0,0,0,0)" stroke-miterlimit="10" stroke-width="1.00045" d="M49.332 30.614a2.301 2.301 0 0 1-.624 2.84L37.361 41.59l11.497 7.993a2.221 2.221 0 0 1 .573 2.828 1.689 1.689 0 0 1-2.478.711l-13.961-9.705a2.222 2.222 0 0 1-.572-2.829 1.95 1.95 0 0 1 .795-.81l13.711-9.832a1.574 1.574 0 0 1 1.034-.306 1.689 1.689 0 0 1 1.372.973Z" data-name="Union 10"/><g fill="none" stroke="#323f51" stroke-width="6" data-name="Ellipse 28" transform="matrix(-.998 -.07 .07 -.998 78.073 83.289)"><circle cx="39.5" cy="39.5" r="39.5" stroke="none"/><circle cx="39.5" cy="39.5" r="36.5"/></g></g></svg>