<svg width="79" height="79" xmlns="http://www.w3.org/2000/svg"><g data-name="Group 589"><path fill="#323f51" stroke="rgba(0,0,0,0)" stroke-miterlimit="10" d="M32.342 50.512a2.3 2.3 0 0 1 .423-2.875L43.51 38.73l-12.023-7.166a2.22 2.22 0 0 1-.769-2.78 1.688 1.688 0 0 1 2.421-.882l14.6 8.7a2.221 2.221 0 0 1 .768 2.781 1.949 1.949 0 0 1-.736.863L34.787 51.009a1.573 1.573 0 0 1-1.009.377 1.688 1.688 0 0 1-1.436-.874Z" data-name="Union 10"/><g fill="none" stroke="#323f51" stroke-width="6" data-name="Ellipse 28"><circle cx="39.5" cy="39.5" r="39.5" stroke="none"/><circle cx="39.5" cy="39.5" r="36.5"/></g></g></svg>