<svg id="Group_365" data-name="Group 365" xmlns="http://www.w3.org/2000/svg" width="33.059" height="48.084" viewBox="0 0 33.059 48.084">
  <path id="Path_89" data-name="Path 89" d="M17.44,4200.521H2.162v-7.514a9.016,9.016,0,0,1,18.032,0v.623H23.2v-.623a12.022,12.022,0,0,0-24.043,0v7.514a4.513,4.513,0,0,0-4.508,4.508v19.536a4.512,4.512,0,0,0,4.508,4.5H23.2a4.512,4.512,0,0,0,4.508-4.5v-19.536a4.514,4.514,0,0,0-4.033-4.482H17.44Zm5.759,3a1.5,1.5,0,0,1,1.5,1.5v19.536a1.5,1.5,0,0,1-1.5,1.5H-.844a1.5,1.5,0,0,1-1.5-1.5v-19.536a1.5,1.5,0,0,1,1.5-1.5Z" transform="translate(5.352 -4180.986)" fill="rgba(255,255,255,0.71)"/>
  <path id="Path_90" data-name="Path 90" d="M14.022,4225.46a1.5,1.5,0,0,0,1.5-1.5v-7.513a1.5,1.5,0,1,0-3.005,0v7.513A1.5,1.5,0,0,0,14.022,4225.46Z" transform="translate(2.508 -4186.39)" fill="rgba(255,255,255,0.71)"/>
</svg>
