<svg xmlns="http://www.w3.org/2000/svg" width="314.061" height="307.537" viewBox="0 0 314.061 307.537">
  <g id="Group_585" data-name="Group 585" transform="translate(-361.074 -2333)">
    <path id="Path_207" data-name="Path 207" d="M145.192,0h18.656C244.035,0,309.04,145.192,309.04,145.192s-65,145.192-145.192,145.192H145.192A145.192,145.192,0,1,1,145.192,0Z" transform="matrix(1, -0.017, 0.017, 1, 361.074, 2350.198)" fill="#fff"/>
    <path id="Path_882" data-name="Path 882" d="M470.313,333.916l-43.529,38.176-25.472,55.351" transform="translate(5.396 2168.892)" fill="none" stroke="#323f51" stroke-miterlimit="10" stroke-width="3"/>
    <line id="Line_36" data-name="Line 36" x2="25.51" y2="4.278" transform="translate(381.155 2592.351)" fill="none" stroke="#485c74" stroke-linecap="round" stroke-width="5.539"/>
    <path id="Path_883" data-name="Path 883" d="M434.8,317.826l53.628-8.235,44.741,46.823" transform="translate(59.913 2132.712)" fill="none" stroke="#323f51" stroke-miterlimit="10" stroke-width="3"/>
    <path id="Path_884" data-name="Path 884" d="M415.468,403.166c-.922,4.04-1.382,8.344-.1,12.284,1.772,5.44,6.521,9.3,11.155,12.654,11.739,8.492,24.817,16.021,39.229,17.493s30.364-4.44,37.126-17.255c2.962-5.605,3.975-12.007,4.943-18.277q4.1-26.492,8.193-52.976c3.481-22.522,7.84-50.751-9.025-69.313-11.661-12.832-23.882-12.494-34.524.467-11.454,13.947-16.532,33.611-24.016,49.748-10.021,21.614-27.635,41.755-32.981,65.173" transform="translate(24.419 2089.191)" fill="#c2c4c6"/>
    <path id="Path_885" data-name="Path 885" d="M441.53,299.8a6.355,6.355,0,0,0-2.867-3.2,1.835,1.835,0,0,0-1.086-.316,1.33,1.33,0,0,0-1.054.981,2.593,2.593,0,0,0,.095,1.5,5.08,5.08,0,0,0,2.395,2.884c-1.519.049-5.179.63-5.535,2.5-.489,2.578,5.445,4.768,6.647,2.115" transform="translate(51.48 2114.908)" fill="none" stroke="#323f51" stroke-linecap="round" stroke-miterlimit="10" stroke-width="2"/>
    <path id="Path_886" data-name="Path 886" d="M439.033,338.886l24.4,44.587,47.831,22.239" transform="translate(59.488 2176.019)" fill="none" stroke="#323f51" stroke-miterlimit="10" stroke-width="3"/>
    <path id="Path_905" data-name="Path 905" d="M0,23.41,2.784,11.339,4.049,5.853,5.4,0" transform="translate(565.288 2577.501)" fill="none" stroke="#485c74" stroke-linecap="round" stroke-width="5.539"/>
    <path id="Path_887" data-name="Path 887" d="M408.7,311.574l54.379,16.067,62.664-17.106" transform="translate(-26.245 2143.805)" fill="none" stroke="#323f51" stroke-miterlimit="10" stroke-width="3"/>
    <path id="Path_888" data-name="Path 888" d="M444.29,293.767c-.455.8-.927,1.582-1.392,2.368a2.663,2.663,0,0,0,.09,2.938c.964,1.331,4.055,2.373,5.063,2.653,3.013.842,3.106-2.159,3.911-3.566" transform="translate(64.46 2111.318)" fill="none" stroke="#323f51" stroke-linecap="round" stroke-miterlimit="10" stroke-width="2"/>
    <path id="Path_889" data-name="Path 889" d="M437.337,289.784c-.455.793-.927,1.58-1.395,2.366a2.659,2.659,0,0,0,.092,2.938c.961,1.331,4.053,2.373,5.06,2.653,3.013.842,3.106-2.159,3.911-3.563" transform="translate(54.486 2105.606)" fill="none" stroke="#323f51" stroke-linecap="round" stroke-miterlimit="10" stroke-width="2"/>
    <path id="Path_890" data-name="Path 890" d="M437.638,302.584c-6.3-7.312-13.823-12.457-22.135-16.972" transform="translate(25.746 2099.624)" fill="none" stroke="#4d5c70" stroke-linecap="round" stroke-miterlimit="10" stroke-width="3"/>
    <path id="Path_891" data-name="Path 891" d="M447.6,312.827A251.562,251.562,0,0,0,410.25,285.7" transform="translate(18.212 2099.755)" fill="none" stroke="#4d5c70" stroke-linecap="round" stroke-miterlimit="10" stroke-width="3"/>
    <path id="Path_892" data-name="Path 892" d="M432.728,302.136a6.8,6.8,0,0,1-1.993,1.692,8.669,8.669,0,0,1-6.494.526,6.878,6.878,0,0,1-3.67-2.388,3.943,3.943,0,0,1-.441-4.664,5.315,5.315,0,0,1,2.561-2.215,8.666,8.666,0,0,1,9.424,1.706.623.623,0,0,0,.1.056l8.02-16.984-21.29-5.294-.231.489c-2.845,6.024-5.715,12.034-8.516,18.077a5.873,5.873,0,0,1-4.364,3.447,8.305,8.305,0,0,1-7.721-1.879,4.122,4.122,0,0,1-1.443-4.381,4.968,4.968,0,0,1,2.989-3.159,8.662,8.662,0,0,1,9.359,1.677c.036.036.085.066.153.119l11.712-24.81c.82.2,1.618.4,2.415.594l13.1,3.264q5.33,1.325,10.661,2.648a1.378,1.378,0,0,0,.246.019c.124.063.316.092.139.3a.725.725,0,0,0-.073.151Z" transform="translate(-1.51 2068.849)" fill="#e79e17"/>
  </g>
</svg>
