<svg width="404.564" height="404.564" xmlns="http://www.w3.org/2000/svg"><g data-name="Group 689"><path fill="#fff" d="m306.571 293.98-12.591 12.591c-54.121 54.121-195.986 0-195.986 0s-54.122-141.866-.001-195.986l12.591-12.592A138.583 138.583 0 1 1 306.571 293.98Z" data-name="Path 474"/><path fill="none" stroke="#323f51" stroke-linecap="round" stroke-linejoin="round" stroke-width="3" d="M292.77 186.86c.736 3.873 11.745 51.889 7.472 68.52-1.991 6.6-10.575 5.95-13.425 5.157" data-name="Path 386"/><path fill="none" stroke="#323f51" stroke-linecap="round" stroke-linejoin="round" stroke-width="3" d="M250.732 165.153a54.056 54.056 0 0 0-6.114 19.744c-1.383 10.759.564 24.26 4.016 37.324 2.093 7.921 4.009 15.77 6.926 23.803 1.495 4.114 3.759 9.625 5.595 11.262a15.519 15.519 0 0 0 4.45 3.316 22.768 22.768 0 0 0 2.756.766c1.271.313 6.185.402 6.458-.002" data-name="Path 526"/><path fill="none" stroke="#323f51" stroke-linecap="round" stroke-linejoin="round" stroke-width="3" d="M161.754 204.811c-31.08 15.188-54.69 24.053-87.272 36.326 8.709 5.972 16.253 6.559 21.795 20.309" data-name="Path 387"/><path fill="none" stroke="#323f51" stroke-linecap="round" stroke-linejoin="round" stroke-width="3" d="M152.835 190.95c-35.464 5.736-57.965 11.873-88.45 28.274 9.76-5.237 20.593 26.676 16.697 17.65" data-name="Path 388"/><path fill="#e79e17" d="M163.676 135.487c-4.388 2.122-8.675 4.862-11.35 8.939-3.692 5.626-3.743 12.827-3.414 19.545.835 17.017 3.536 34.56 12.778 48.873s26.401 24.61 43.134 21.4c7.327-1.404 13.944-5.179 20.415-8.9l54.658-31.428c23.235-13.358 52.354-30.114 56.996-59.244 3.205-20.135-6.092-31.105-25.814-31.348-21.223-.261-43.012 9.534-63.332 14.524-27.202 6.69-58.645 5.33-84.07 17.639Z" data-name="Path 391"/><path fill="#323f51" d="M242.184 234.27a15.137 15.137 0 0 1 .31-3.914c.127-.603.375-.933.871-.525a1.394 1.394 0 0 1 .374 1.48c-.844 4.206.271 8.219 2.78 12.091.125.193.245.393.372.58a1.3 1.3 0 0 1 .239 1.384c-.255.425-.616.329-.981-.209a21.214 21.214 0 0 1-3.965-10.886Z" data-name="Path 623"/><path fill="#323f51" d="M307.78 218.787a14.326 14.326 0 0 1-.293 3.704c-.12.57-.356.883-.83.496a1.319 1.319 0 0 1-.349-1.4c.799-3.981-.256-7.778-2.63-11.438-.118-.182-.23-.371-.351-.55a1.228 1.228 0 0 1-.226-1.308c.241-.402.583-.312.929.197a20.074 20.074 0 0 1 3.75 10.299Z" data-name="Path 654"/><path fill="#323f51" d="M238.745 236.39a11.139 11.139 0 0 1 .3-3.002c.109-.463.312-.723.71-.413a1.01 1.01 0 0 1 .278 1.127 11.51 11.51 0 0 0 2.074 9.208c.098.146.195.296.292.44a.943.943 0 0 1 .173 1.054c-.212.33-.5.258-.786-.146a15.255 15.255 0 0 1-3.04-8.267Z" data-name="Path 624"/><path fill="#323f51" d="M311.034 216.783a10.541 10.541 0 0 1-.284 2.837c-.104.439-.297.68-.672.39a.956.956 0 0 1-.264-1.069 10.892 10.892 0 0 0-1.964-8.715c-.093-.138-.181-.282-.276-.416a.892.892 0 0 1-.163-.996c.199-.31.47-.248.744.139a14.435 14.435 0 0 1 2.88 7.83Z" data-name="Path 653"/><path fill="#323f51" d="M313.865 159.201a8.827 8.827 0 0 1-.709 2.719c-.176.424-.439.653-.85.386-.394-.263-.333-.638-.177-1.018 1.226-2.933.644-5.684-1.229-8.3-.093-.131-.18-.265-.276-.394-.24-.32-.336-.66-.068-.951s.596-.243.872.12a10.6 10.6 0 0 1 2.437 7.438Z" data-name="Path 524"/><g fill="#323f51" data-name="Group 443" transform="translate(296.809 159.686)"><rect width="1" height="10" data-name="Rectangle 251" rx=".5" transform="translate(5.755 -.218)"/><rect width="1.602" height="9.081" data-name="Rectangle 252" rx=".801" transform="rotate(-45 3.479 1.441)"/></g><path fill="none" stroke="#323f51" stroke-linecap="round" stroke-linejoin="round" stroke-width="3" d="M283.16 179.588a3.948 3.948 0 0 1 1.59 1.821 9.965 9.965 0 0 1 .837 2.579 10.166 10.166 0 0 0 .377 1.618 6.158 6.158 0 0 0 .541 1.092 6.982 6.982 0 0 0 1.33 1.611" data-name="Path 551"/></g></svg>