<svg xmlns="http://www.w3.org/2000/svg" width="404.564" height="404.564" viewBox="0 0 404.564 404.564">
  <g id="Group_689" data-name="Group 689" transform="translate(-283.436 -2737.532)">
    <path id="Path_474" data-name="Path 474" d="M138.583,0H156.39c76.538,0,138.583,138.583,138.583,138.583S232.928,277.167,156.39,277.167H138.583A138.583,138.583,0,1,1,138.583,0Z" transform="translate(688 2933.519) rotate(135)" fill="#fff"/>
    <path id="Path_386" data-name="Path 386" d="M71.948,23.6c-3.935-.223-53.188-1.157-68.292-9.327C-2.265,10.745.442,2.573,1.9,0" transform="translate(570.713 2999.913) rotate(-104)" fill="none" stroke="#323f51" stroke-linecap="round" stroke-linejoin="round" stroke-width="3"/>
    <path id="Path_526" data-name="Path 526" d="M21.781,0A54.056,54.056,0,0,0,9.572,16.678C4.761,26.4,2.207,39.8,1.217,53.276c-.6,8.171-1.343,16.215-1.2,24.761.074,4.377.42,10.324,1.623,12.47a15.519,15.519,0,0,0,3.128,4.584,22.768,22.768,0,0,0,2.357,1.622c1.1.709,5.717,2.393,6.107,2.1" transform="translate(513.574 2909.776) rotate(-19)" fill="none" stroke="#323f51" stroke-linecap="round" stroke-linejoin="round" stroke-width="3"/>
    <path id="Path_387" data-name="Path 387" d="M0,0C2.439,34.506,1.814,59.718.988,94.525c8.8-5.837,12.17-12.612,26.995-12.6" transform="translate(445.19 2942.343) rotate(68)" fill="none" stroke="#323f51" stroke-linecap="round" stroke-linejoin="round" stroke-width="3"/>
    <path id="Path_388" data-name="Path 388" d="M8.6,0C.633,35.03-2.106,58.191,1.681,92.6c-1.2-11.01,32.447-9.1,22.62-8.869" transform="translate(433.049 2920.509) rotate(68)" fill="none" stroke="#323f51" stroke-linecap="round" stroke-linejoin="round" stroke-width="3"/>
    <path id="Path_391" data-name="Path 391" d="M.081,159.6c-.271,4.865.047,9.941,2.315,14.254,3.129,5.955,9.4,9.489,15.433,12.457,15.282,7.516,31.927,13.656,48.919,12.512s34.309-11.156,39.612-27.34c2.323-7.086,2.229-14.7,2.111-22.161l-.989-63.015c-.419-26.786-.957-60.364-24.175-78.538C67.257-4.79,53.162-1.978,43.392,15.146,32.879,33.574,30.884,57.37,25.4,77.553,18.067,104.577,1.641,131.407.081,159.6Z" transform="matrix(0.485, 0.875, -0.875, 0.485, 586.723, 2795.542)" fill="#e79e17"/>
    <path id="Path_623" data-name="Path 623" d="M4.2,2.628A15.137,15.137,0,0,1,.547,1.186C.007.889-.236.555.3.2A1.394,1.394,0,0,1,1.824.275C5.6,2.312,9.763,2.419,14.2,1.152c.221-.063.447-.119.664-.186a1.3,1.3,0,0,1,1.392.176c.332.368.135.685-.486.877A21.214,21.214,0,0,1,4.2,2.628Z" transform="translate(526.905 2967.018) rotate(73)" fill="#323f51"/>
    <path id="Path_654" data-name="Path 654" d="M3.974,2.487A14.326,14.326,0,0,1,.517,1.123C.007.841-.223.525.285.185A1.319,1.319,0,0,1,1.726.26C5.3,2.188,9.239,2.289,13.433,1.09c.209-.06.423-.113.629-.176a1.228,1.228,0,0,1,1.317.167c.314.348.128.648-.46.83A20.074,20.074,0,0,1,3.974,2.487Z" transform="translate(590 2960.846) rotate(-107)" fill="#323f51"/>
    <path id="Path_624" data-name="Path 624" d="M3.2,2.122A11.139,11.139,0,0,1,.416.958c-.411-.24-.6-.51-.187-.8A1.01,1.01,0,0,1,1.388.222,11.51,11.51,0,0,0,10.8.93c.168-.051.34-.1.506-.15a.943.943,0,0,1,1.059.142c.253.3.1.553-.37.709A15.255,15.255,0,0,1,3.2,2.122Z" transform="translate(523.275 2970.242) rotate(73)" fill="#323f51"/>
    <path id="Path_653" data-name="Path 653" d="M3.024,2.008A10.541,10.541,0,0,1,.394.907C.005.679-.17.424.217.15a.956.956,0,0,1,1.1.06,10.892,10.892,0,0,0,8.909.67c.159-.048.322-.091.478-.142a.892.892,0,0,1,1,.135c.239.281.1.523-.35.671A14.435,14.435,0,0,1,3.024,2.008Z" transform="translate(593.434 2957.794) rotate(-107)" fill="#323f51"/>
    <path id="Path_524" data-name="Path 524" d="M2.835,2.446A8.827,8.827,0,0,1,.369,1.1C0,.827-.159.516.2.182.55-.137.9.013,1.231.256c2.549,1.9,5.359,2,8.351.816.149-.059.3-.111.448-.173.369-.156.723-.166.94.164s.091.637-.328.817A10.6,10.6,0,0,1,2.835,2.446Z" transform="translate(595.614 2900.076) rotate(-104)" fill="#323f51"/>
    <g id="Group_443" data-name="Group 443" transform="translate(580.245 2897.218)">
      <rect id="Rectangle_251" data-name="Rectangle 251" width="1" height="10" rx="0.5" transform="translate(5.755 -0.218)" fill="#323f51"/>
      <rect id="Rectangle_252" data-name="Rectangle 252" width="1.602" height="9.081" rx="0.801" transform="translate(0 2.882) rotate(-45)" fill="#323f51"/>
    </g>
    <path id="Path_551" data-name="Path 551" d="M0,.673A3.948,3.948,0,0,1,2.323,0a9.965,9.965,0,0,1,2.69.332A10.166,10.166,0,0,0,6.639.674,6.158,6.158,0,0,0,7.858.645,6.982,6.982,0,0,0,9.88.12" transform="translate(567.205 2916.836) rotate(65)" fill="none" stroke="#323f51" stroke-linecap="round" stroke-linejoin="round" stroke-width="3"/>
  </g>
</svg>
