<svg xmlns="http://www.w3.org/2000/svg" xmlns:xlink="http://www.w3.org/1999/xlink" width="1166" height="1094" viewBox="0 0 1166 1094">
  <defs>
    <clipPath id="clip-Balance">
      <rect width="1166" height="1094"/>
    </clipPath>
  </defs>
  <g id="Balance" clip-path="url(#clip-Balance)">
    <path id="Path_485" data-name="Path 485" d="M612,0h0c299.338,0,542,242.662,542,542s-92.156,445.531-612,542h0C242.662,1084,0,542,0,542S312.662,0,612,0Z" transform="translate(4 3)" fill="#fff"/>
    <path id="Path_489" data-name="Path 489" d="M1148.528,548.719c-42.03-.864-82.866-.121-124.022,9.59-41.459,9.783-81.3,25.952-118.617,46.4-15.6,8.551-32.537,20.508-33.86,38.248-.825,11.074,4.864,21.509,10.865,30.851,8.7,13.558,18.78,26.731,32.413,35.318,24.175,15.227,54.916,13.561,83.4,11.286,71.584-5.721,143.271-12.016,213.786-25.6,25.482-4.909,50.974-10.829,74.661-21.437,12.873-5.767,26.385-14.529,29.163-28.361,3.99-19.849-14.5-37.188-29.936-46.137-30.894-17.907-37.834-24.893-72.2-32.941-14.6-3.419-41.286-14.05-79.1-17.483" transform="translate(-229.722 -283.794)" fill="#840729"/>
    <path id="Path_486" data-name="Path 486" d="M1032.61,652.472c39.669-3.159,78.286-4.646,117.629,2.8,39.63,7.5,78.035,21.473,114.255,39.852,15.142,7.687,31.705,18.7,33.792,36.341,1.3,11.008-3.586,21.74-8.815,31.4-7.589,14.008-16.488,27.712-28.964,37.029-22.125,16.524-51.249,16.537-78.266,15.82-67.9-1.8-135.934-4.172-203.195-13.884-24.309-3.511-48.673-8.029-71.551-17.326-12.433-5.053-25.61-13.065-28.886-26.721-4.7-19.6,11.947-37.922,26.115-47.7,28.348-19.566,34.574-26.92,66.661-36.833,13.633-4.212,38.349-16.28,73.914-21.773" transform="translate(-216.503 -54.577)" fill="#840729"/>
    <path id="Path_490" data-name="Path 490" d="M849.633,633.624c40.726-6.914,80.532-12.2,121.981-9.476a479.055,479.055,0,0,1,89.187,14.689c21.786,5.672,56.549,11.038,71.851,28.4A66.8,66.8,0,0,1,1145.4,689.46a47.292,47.292,0,0,1,2.125,22.343c-1.262,8.2-6.624,15.344-12.932,21-31.187,27.973-73.318,30.366-113.805,33.414-70.433,5.3-141.058,10.109-211.618,8.182-25.5-.7-51.164-2.3-75.762-8.384-13.372-3.309-27.807-9.222-32.566-21.258-6.826-17.277,8.567-35.575,22.246-45.88,27.367-20.618,33.074-27.917,65.279-40.175,13.685-5.209,38.046-18.666,74.3-27.279" transform="translate(-620.173 -114.381)" fill="#557591"/>
    <path id="Path_491" data-name="Path 491" d="M838.8,532.749c30.1-1.695,59.375-2.106,88.995,4.489,29.838,6.64,58.6,18.314,85.611,33.394,11.292,6.308,23.589,15.243,24.772,29.078.737,8.635-3.2,16.932-7.377,24.384-6.06,10.807-13.1,21.349-22.757,28.394-17.124,12.492-39.174,11.934-59.614,10.845-51.369-2.735-102.823-5.917-153.53-14.823-18.323-3.221-36.67-7.23-53.781-14.946-9.3-4.2-19.1-10.719-21.274-21.463a36.061,36.061,0,0,1,14.982-37.01c21.9-14.744,23.853-20.485,48.367-27.611,10.415-3.029,38.186-11.661,65.237-15.263" transform="translate(-575.116 -321.685)" fill="#557591"/>
    <path id="Path_492" data-name="Path 492" d="M900.641,576.481c-26.545-2.859-52.354-4.221-78.442,2.406-26.284,6.679-51.6,19.139-75.365,35.549-9.936,6.862-20.746,16.7-21.743,32.475-.619,9.848-.039,19.735,3.667,28.377,5.375,12.537,8.7,25.088,17.242,33.433,15.135,14.8,40.409,14.269,58.423,13.649,45.28-1.552,90.631-3.615,135.3-12.244,16.146-3.116,32.305-7.136,47.366-15.436,8.186-4.509,16.8-11.664,18.682-23.875,2.7-17.532-3.658-34-13.33-42.756-19.357-17.525-21.095-24.143-42.73-33.039-9.193-3.778-33.707-14.494-57.566-19.439" transform="translate(-562.086 -225.795)" fill="#557591"/>
    <path id="Path_487" data-name="Path 487" d="M1087.934,606.814c-26.271-4.756-51.914-7.967-78.413-3.227-26.7,4.776-52.843,15.39-77.719,30.053-10.4,6.132-21.89,15.168-24.015,30.832-1.327,9.78-1.454,19.683,1.62,28.566,4.466,12.893,6.885,25.649,14.8,34.584,14.037,15.846,39.285,17.131,57.3,17.805,45.273,1.7,90.657,2.892,135.832-2.51,16.329-1.953,32.736-4.8,48.354-12,8.486-3.912,17.594-10.428,20.348-22.477,3.948-17.29-1.213-34.173-10.233-43.6-18.05-18.868-19.308-25.593-40.253-36.015-8.9-4.43-32.579-16.876-56.021-23.52" transform="translate(-150.742 -164.458)" fill="#840729"/>
    <text id="ENERGI" transform="matrix(0.998, 0.058, -0.058, 0.998, 195.153, 258.063)" fill="#fff" font-size="20" font-family="Lato-Black, Lato" font-weight="800" letter-spacing="0.5em"><tspan x="56.248" y="20">ENERGI</tspan></text>
    <text id="NETVÆRK" transform="matrix(0.998, -0.059, 0.059, 0.998, 183.396, 422.989)" fill="#fff" font-size="20" font-family="Lato-Black, Lato" font-weight="800" letter-spacing="0.5em"><tspan x="38.089" y="20">NETVÆRK</tspan></text>
    <text id="STRESS" transform="translate(777.123 500.212) rotate(0.752)" fill="#fff" font-size="20" font-family="Lato-Black, Lato" font-weight="800" letter-spacing="0.5em"><tspan x="57.279" y="20">STRESS</tspan></text>
    <text id="OPMÆRKSOMHED" transform="translate(84.089 594.87) rotate(-3.649)" fill="#fff" font-size="20" font-family="Lato-Black, Lato" font-weight="800" letter-spacing="0.5em"><tspan x="75.867" y="20">OPMÆRKSOMHED</tspan></text>
    <text id="BELASTNINGER" transform="translate(642.643 352.69) rotate(-2.877)" fill="#fff" font-size="20" font-family="Lato-Black, Lato" font-weight="800" letter-spacing="0.5em"><tspan x="92.326" y="20">BELASTNINGER</tspan></text>
    <path id="Path_488" data-name="Path 488" d="M1354.61,792.108c-6.732,1.721-30.337-9.9-36.6-10.953-50.1-8.45-67.326-11.95-117.31-21.068-30.985-5.649-92.877-13.946-127.086-20.163,11.123,12.456,25.764,37,33.787,48.361,16.645,23.563,48.154,32.135,77.324,27.18,9.92-1.685,21.59-1.467,26.112,10.109,5.552,14.207,6.793,29.583-1.816,42.975-2.859,4.447-11.009,7.719-16.759,7.752-86.126.482-172.255.349-258.381.277a24.543,24.543,0,0,1-8.955-1.4c-11.6-4.672-16.775-22.086-12.511-42.235,2.53-11.954,9.975-18.135,22.454-17.717a24.883,24.883,0,0,1,3.948.029c31.725,6.363,59.477,7.1,77.515-18.356,9.287-13.1,34-42.926,46.723-56.969-20.289-3.811-58.423-14.766-76.623-18.1-71.085-13-143.049-19.382-214.1-32.564-4.886-.906-6.394,2.008-11.075,0V681.35c5.614-1.917,11.647-6.272,16.775-5.382,76.242,13.216,152.37,27.09,228.514,40.875q163.921,29.681,327.8,59.62c6.992,1.284,13.519,5.1,20.263,7.732Zm-162.345,37.177c-27.443-21.373-235.221-1.352-258.381-3.711s-4.847,42.975-4.847,42.975,258.8,11.3,267.377-4.423,0-3.672,0-3.672S1219.708,850.657,1192.266,829.284Zm-75.655-14.762-53.553-58.4-53.257,58.4Z" transform="translate(-479.868 4.111)" fill="#27303e"/>
    <text id="BEKYMRINGER" transform="matrix(1, -0.006, 0.006, 1, 652.139, 677.626)" fill="#fff" font-size="20" font-family="Lato-Black, Lato" font-weight="800" letter-spacing="0.5em"><tspan x="98.771" y="20">BEKYMRINGER</tspan></text>
  </g>
</svg>
