<svg width="515" height="537" xmlns="http://www.w3.org/2000/svg"><defs><clipPath id="min_kost_svg__a"><path d="M0 0h515v537H0z"/></clipPath></defs><g clip-path="url(#min_kost_svg__a)" data-name="Illustration - Min fysiske energi - Min kost"><path fill="#fff" d="m376.36 481.142-28.814 15.304C223.698 562.227 4.193 391.308 4.193 391.308s-18.71-277.571 105.139-343.353l28.815-15.305c123.848-65.782 277.571-18.709 343.352 105.14s18.71 277.57-105.139 343.352Z" data-name="Path 482"/><g data-name="Group 251"><path fill="#6daab5" d="M422.012 332.915a4.813 4.813 0 0 1-.546-1.6c.236-5.8-.5-11.562-.732-17.341-.04-.989-.266-2.084.711-2.845 6.508 4.439 12.793 9.214 19.636 13.151 5.058 2.909 10.232 5.576 15.964 6.934 4.3 1.019 5.226.3 5.507-4.2.412-6.576-.777-12.961-2.392-19.276-5.339-20.877-13.758-40.6-22.493-60.219-4.465-10.025-9.6-19.694-15-29.232a10.01 10.01 0 0 1-.578-1.576c.335-1.631 1.883-1.774 3-2.426 3.866-2.253 8.146-3.791 11.621-6.722a1.743 1.743 0 0 1 1.237 1.06c15.74 30.951 30.672 62.244 39.377 96.065 2.37 9.209 3.636 18.613 1.782 28.116-2.288 11.742-12.009 18.064-23.894 15.827-10.091-1.9-18.832-6.772-27.385-12.1q-2.903-1.817-5.815-3.616Z" data-name="Path 307"/><path fill="#6daab5" d="M217.797 297.513c1.07 3.744-.6 7.283-1.044 10.87-.965 7.832-2.142 15.631-2.525 23.526a33.091 33.091 0 0 1-.667 3.993c-3.559 3.695-7 7.515-10.711 11.049-3.6 3.431-7.81 6.039-12.854 6.732-7.829 1.075-14.048-2.15-18.061-9.084-4.887-8.446-6.12-17.866-6.994-27.295-1.482-15.96-1.011-31.963.029-47.921 1.013-15.573 2.206-31.145 4.639-46.583a7.707 7.707 0 0 1 .59-1.532c3.143.472 6.33.754 9.414 1.476 2.536.593 5.474-.382 7.605 1.845a503.694 503.694 0 0 0-5.454 59.506c-.523 14.645-.24 29.172 2.294 43.612.531 3.022.851 7.324 3.375 8.167 2.686.9 5.147-2.714 7.2-4.925 9-9.688 15.727-20.98 22.423-32.282.236-.393.494-.769.741-1.154Z" data-name="Path 308"/><path fill="#6daab5" d="m278.788 444.945 17.265 2.782-.026 69.03-17.37.044q.037-32.164.077-64.33c.003-2.509.035-5.017.054-7.526Z" data-name="Path 309"/><path fill="#6daab5" d="M342.238 449.802a115.5 115.5 0 0 0 17.5-2.1l.014 69.1-17.9.058q.07-26.183.151-52.368c.018-4.898.152-9.798.235-14.69Z" data-name="Path 310"/><path fill="#4c5d71" d="m341.849 516.859 17.9-.058c7.532.033 15.066.036 22.6.11 5.642.055 9.485 3.514 9.562 8.491.08 5.112-3.812 8.738-9.624 8.761q-19.521.078-39.043.012c-5.327-.01-9.1-3.114-9.578-7.771-.498-4.808 2.69-8.528 8.183-9.545Z" data-name="Path 311"/><path fill="#4c5d71" d="m278.655 516.801 17.37-.044c6.03.8 8.822 3.589 8.82 8.812 0 4.979-3.232 8.54-8.2 8.575q-20.569.142-41.139.008c-5.2-.03-8.422-3.516-8.4-8.7.022-5.135 3.291-8.465 8.583-8.533 7.656-.102 15.312-.085 22.966-.118Z" data-name="Path 312"/><path fill="#4c5d71" d="M436.715 207.563c-3.475 2.931-7.755 4.469-11.621 6.722-1.119.652-2.666.8-3 2.426-4.129-7.372-9.124-14.177-13.894-21.127-2.189-3.191-2.729-6.51-.792-9.953 1.889-3.354 4.961-4.5 8.676-4.2a7.38 7.38 0 0 1 5.745 3.3c5.064 7.539 10.746 14.683 14.886 22.832Z" data-name="Path 313"/><path fill="#4c5d71" d="M187.218 224.59c-2.131-2.227-5.069-1.252-7.605-1.845-3.084-.722-6.271-1-9.414-1.476a130.562 130.562 0 0 1 4.784-20.6 8.258 8.258 0 0 1 10.3-5.656c4.887 1.387 7.388 5.691 6.232 10.971-.8 3.659-1.821 7.27-2.676 10.918-.601 2.55-1.086 5.124-1.621 7.688Z" data-name="Path 314"/><path fill="#7abdcd" d="M422.008 332.916a4.813 4.813 0 0 1-.546-1.6c.236-5.8-.5-11.562-.732-17.341-.04-.989-.266-2.084.711-2.845a6.212 6.212 0 0 1-.831-2.555c-1.135-5.393-.562-10.891-1.087-16.338-1.579-16.33-3.824-32.51-8.414-48.294-6.481-22.283-17.105-42.15-33.955-58.44-8.135-7.866-17.6-13.626-27.742-18.425a11.82 11.82 0 0 1-5.48-2.072 61.431 61.431 0 0 1-12.669-5.378l-5.93-2.135c-5.952-2.031-11.86-.972-17.865-.059-7.5 1.141-14.792 2.914-21.391 6.639-16.368 9.243-27.395 23.545-36.224 39.658-12.353 22.548-20.388 46.748-26.73 71.577-1.885 7.379-2.629 15.025-5.33 22.2 1.07 3.744-.6 7.283-1.044 10.87-.965 7.832-2.142 15.631-2.525 23.526a33.357 33.357 0 0 1-.667 3.993c.147 5.6-.574 11.186-.524 16.761.119 13.222.052 26.475 1.907 39.619 1.725 12.215 6.926 22.523 16.476 30.59 9.6 8.111 20.737 13.233 32.463 17.27 4.935 1.7 9.934 3.207 14.9 4.8l17.265 2.782c15.329 2.2 30.744 2.408 46.185 2.075a115.485 115.485 0 0 0 17.5-2.1 86.737 86.737 0 0 0 29.847-10.537c21.628-12.669 33.778-31.046 33.921-56.686.092-15.872-1.563-31.684-1.489-47.555Zm-134.135-100c.03-2.855 2.017-4.744 5.024-4.78s4.976 1.878 4.922 4.759c-.054 2.9-1.826 4.81-4.56 4.911a5.055 5.055 0 0 1-5.382-4.886Zm42.169 4.911c-3.043-.018-4.749-1.8-4.729-4.94a4.772 4.772 0 0 1 4.811-5.028 4.9 4.9 0 0 1 4.825 5.1 4.6 4.6 0 0 1-4.903 4.873Z" data-name="Path 315"/><path fill="#516075" d="M295.845 277.004a29.353 29.353 0 0 1-8.518-5.614c-1.258-1.159-1.823-2.459-.573-3.857 1.2-1.339 2.423-.71 3.551.306 8.807 7.935 18.511 8.349 28.846 3.415.515-.246 1.042-.466 1.549-.725 1.276-.651 2.5-.693 3.246.687a2.3 2.3 0 0 1-1.134 3.417c-8.667 4.482-17.58 6.203-26.967 2.371Z" data-name="Path 316"/><path fill="#516075" d="M287.924 223.141c5.994-.069 9.951 3.756 9.844 9.518-.107 5.8-3.652 9.619-9.122 9.822-5.882.22-10.827-4.273-10.769-9.781.065-5.71 4.034-9.488 10.047-9.559Z" data-name="Path 317"/><path fill="#83baca" d="M292.126 232.814a3.852 3.852 0 0 1 4.215 4.075 3.932 3.932 0 0 1-3.9 4.2 4.322 4.322 0 0 1-4.61-4.188 4 4 0 0 1 4.295-4.087Z" data-name="Path 318" opacity=".9"/><path fill="#516075" d="M334.121 222.827a9.855 9.855 0 0 1 9.7 10.258c-.047 5.953-3.951 9.824-9.868 9.788-6.118-.036-9.551-3.623-9.509-9.935.044-5.884 4.075-10.1 9.677-10.111Z" data-name="Path 319"/><path fill="#83baca" d="M337.399 233.108a3.87 3.87 0 0 1 4.239 4.1 3.952 3.952 0 0 1-3.927 4.227 4.35 4.35 0 0 1-4.636-4.211 4.027 4.027 0 0 1 4.324-4.116Z" data-name="Path 320"/></g><g fill="#516075" stroke="#516075" data-name="Group 249"><path d="M124.381 130.218a19.608 19.608 0 0 0-11.409 3.506c.137-.306.31-.59.428-.907a21.057 21.057 0 0 0-2.88-19.42 1.241 1.241 0 0 0-.25-.219 1.084 1.084 0 0 0-1.503-.61 25.13 25.13 0 0 0-14.786 23.41 36.851 36.851 0 0 0-17.4-11.923 1.012 1.012 0 0 0-1.075.228 1.08 1.08 0 0 0-.084.094 1.108 1.108 0 0 0-.15.22 1.126 1.126 0 0 0-.11.16c-1.172 2.801-1.065 6.34-.86 9.3a1.164 1.164 0 0 0 .626.989 1.23 1.23 0 0 0 .75.226 21.668 21.668 0 0 1 18.672 9.457c-7.998 1.343-16.088-1.215-23.923 2.621-7.558 3.7-11.828 11.265-12.665 19.485-2.164 21.195 15.145 39.772 32.032 50.056 8.845 5.385 14.368 2.562 21.947-3.22 5.493-4.196 10.112-4.457 16.667-5.02 3.636-.311 7.696-.73 10.973-2.472 7.86-4.172 9.743-16.12 10.358-24.052.903-11.68.71-23.288-3.472-34.378-3.47-9.194-11.575-17.208-21.886-17.53Zm-15.61-14.772c3.373 4.832 4.382 12.016 1.82 17.41-2.363 4.978-7.543 8.166-12.354 10.64a1.226 1.226 0 0 0-.069-.336c-4.394-10.24.625-22.788 10.603-27.715Zm-31.954 17.278a18.735 18.735 0 0 1 .363-5.736c5.89 2.147 12.2 6.625 15.8 12.158a24.347 24.347 0 0 0-16.163-6.422Zm66.102 65.89c-5.529 10.418-17.39 5.448-26.38 8.966-4.3 1.684-7.356 5.29-11.16 7.756-6.8 4.413-13.031.548-18.668-3.786-9.513-7.322-18.826-15.599-23.551-26.91-4.73-11.338-4.685-27.602 7.339-34.4 8.617-4.871 17.775-1.15 26.748-3.5a1.187 1.187 0 0 0 .542-.133 28.3 28.3 0 0 0 6.942-3.895 32.441 32.441 0 0 0 3.03-2.3c4.568-3.57 9.067-7.202 14.965-7.584 16.02-1.044 23.16 16.87 24.575 29.989 1.214 11.243 1.027 25.601-4.382 35.797Z" data-name="Path 304"/><path d="M75.711 156.482c-7.102 6.253-7.69 18.122-3.403 26.052.792 1.464 2.927-.008 2.14-1.464-3.536-6.54-3.221-17.208 2.729-22.449 1.233-1.086-.213-3.241-1.466-2.14Z" data-name="Path 305"/><path d="M75.682 187.039a1.3 1.3 0 0 0 .844 2.45 1.3 1.3 0 0 0-.844-2.45Z" data-name="Path 306"/></g><g data-name="Group 250"><path fill="none" stroke="#516075" stroke-miterlimit="10" stroke-width="3" d="M303.335 52.656c-4.189 27.088-8.375 53.7-12.352 80.349-.631 4.224-2.161 5.764-6.637 5.531-8.4-.438-16.837-.13-25.259-.187-1.5-.011-3.339.508-4.136-1.449-.713-1.751.384-3 1.4-4.256a22.5 22.5 0 0 0 5.181-13.535c.073-2 1.206-3.157 2.249-4.531 4.711-6.2 4.715-13.236-.245-19.191a8.789 8.789 0 0 1-2.074-5.074c-1.183-10.87-6.14-19.706-15.342-25.653-4.434-2.865-3.14-7.241-4.136-11.008-.336-1.269 1.315-.971 2.123-.971 19.538-.031 39.07-.025 59.228-.025Z" data-name="Path 346"/><path fill="none" stroke="#516075" stroke-miterlimit="10" stroke-width="2" d="M209.658 90.626c-11.91 0-23.822-.138-35.728.076-4.019.075-4.409-1.047-3.279-4.642 4-12.73 12.975-20.267 26.243-21.194a182.866 182.866 0 0 1 27.13 0c12.7 1 22.148 9.242 25.584 21.422.954 3.379.422 4.462-3.27 4.407-12.224-.183-24.454-.069-36.68-.069Zm-1.665-17.643a2.484 2.484 0 0 0-2.517-2.437 2.357 2.357 0 0 0-2.635 2.622 2.3 2.3 0 0 0 2.425 2.364 2.732 2.732 0 0 0 2.727-2.549Zm-9.009 11.209a2.482 2.482 0 0 0-2.735-2.509 2.314 2.314 0 0 0-2.332 2.452 2.642 2.642 0 0 0 2.767 2.591c1.457.023 2.092-1.135 2.3-2.534Zm29.661-3.19c-1.5-.055-2.484.548-2.441 2.163a2.532 2.532 0 0 0 2.721 2.67 2.35 2.35 0 0 0 2.2-2.624c.008-1.615-1.001-2.19-2.478-2.207Zm-38.261-7.666c-.245-1.372-.986-2.507-2.427-2.288a2.8 2.8 0 0 0-2.62 2.783 2.34 2.34 0 0 0 2.521 2.251c1.626-.007 2.484-1.087 2.526-2.746Zm30.717-4.994c-1.267.369-2.469.984-2.328 2.475a2.7 2.7 0 0 0 2.737 2.635c1.659-.046 2.389-1.407 2.234-2.958-.147-1.444-1.276-2.023-2.644-2.151Zm-5.473 14.836a2.576 2.576 0 0 0-2.626-2.368 2.291 2.291 0 0 0-2.547 2.681 2.4 2.4 0 0 0 2.463 2.395c1.566-.102 2.357-1.327 2.708-2.707Z" data-name="Path 347"/><path fill="#516075" d="M210.296 114.471c-11.761 0-23.522.071-35.283-.029-6.662-.057-10.416-3.012-10.949-8.233-.463-4.541 1.6-7.7 5.613-9.514 4.264-1.926 8.16-.845 10.995 2.76 5.607 7.125 5.728 7.22 11.245.22a9.4 9.4 0 0 1 8.135-3.759c14.939.05 29.879-.027 44.818.01 7.149.017 11.34 3.568 11.281 9.366-.059 5.76-4.229 9.114-11.528 9.141-11.442.04-22.886.01-34.327.01Z" data-name="Path 348"/><path fill="none" stroke="#516075" stroke-miterlimit="10" stroke-width="2" d="M210.042 119.784c12.09 0 24.181.134 36.267-.073 4.134-.071 4.52 1.357 3.234 4.764a19.662 19.662 0 0 1-18.293 12.942q-21 .221-42 0a20.215 20.215 0 0 1-18.689-13.794c-1-2.949-.558-3.929 2.731-3.893 12.252.138 24.5.06 36.75.054Z" data-name="Path 349"/><path fill="#516075" d="M285.235 39.278c7.5 0 14.479.019 21.462-.01 2.513-.011 5.1.134 5.4 3.279.334 3.436-2.2 3.939-4.913 3.979-5.217.078-10.433.26-15.65.271q-25.728.052-51.457 0c-1.558 0-3.281.449-4.6-.69-1.139-.986-2.769-1.848-2.29-3.811.451-1.842 1.418-3.127 3.593-3.106 3.8.034 7.6-.019 11.4-.04 8.883-.05 17.768-.166 26.65-.111a3.4 3.4 0 0 0 3.677-2.978c2.668-12.281 11.016-18.918 22.265-22.79a29.165 29.165 0 0 0 3.826-1.894c2.322-1.206 4.992-2.635 6.484.613 1.43 3.107-1.252 4.436-3.608 5.619-2.97 1.494-5.764 3.509-8.887 4.5-8.203 2.625-10.85 9.326-13.352 17.169Z" data-name="Path 350"/><path fill="#516075" d="M207.992 72.982a2.732 2.732 0 0 1-2.727 2.549 2.3 2.3 0 0 1-2.425-2.364 2.357 2.357 0 0 1 2.635-2.622 2.484 2.484 0 0 1 2.517 2.437Z" data-name="Path 351"/><path fill="#516075" d="M198.986 84.191c-.21 1.4-.845 2.557-2.3 2.534a2.642 2.642 0 0 1-2.767-2.591 2.314 2.314 0 0 1 2.332-2.452 2.482 2.482 0 0 1 2.735 2.509Z" data-name="Path 352"/><path fill="#516075" d="M228.653 81.004c1.472.017 2.481.592 2.479 2.207a2.35 2.35 0 0 1-2.2 2.625 2.532 2.532 0 0 1-2.721-2.67c-.048-1.616.938-2.22 2.442-2.162Z" data-name="Path 353"/><path fill="#516075" d="M190.381 73.334c-.038 1.661-.9 2.741-2.525 2.748a2.34 2.34 0 0 1-2.521-2.251 2.8 2.8 0 0 1 2.62-2.783c1.442-.22 2.183.915 2.426 2.286Z" data-name="Path 354"/><path fill="#516075" d="M221.106 68.34c1.363.13 2.492.709 2.637 2.154.155 1.552-.575 2.913-2.234 2.958a2.7 2.7 0 0 1-2.737-2.635c-.141-1.491 1.061-2.106 2.334-2.477Z" data-name="Path 355"/><path fill="#516075" d="M215.626 83.178c-.352 1.38-1.141 2.6-2.71 2.708a2.4 2.4 0 0 1-2.463-2.395A2.291 2.291 0 0 1 213 80.81a2.576 2.576 0 0 1 2.626 2.368Z" data-name="Path 356"/></g></g></svg>