<svg xmlns="http://www.w3.org/2000/svg" width="593.352" height="754.519" viewBox="0 0 593.352 754.519">
  <g id="Group_788" data-name="Group 788" transform="translate(-1991.391 -715.243)">
    <g id="Group_668" data-name="Group 668" transform="translate(-70.363 169.322)">
      <path id="Path_187" data-name="Path 187" d="M3422.612,5323.9c-5.68-7.921-16.353-10.729-24.114-15.151-2.981-1.7-6.086-3.247-9.048-5.023,2.825-.6,2.767-5.549-.3-5.292-2.11.18-4.216.221-6.323.29a70.734,70.734,0,0,1-7.639-9.311c3.087-.337,3.1-5.631-.062-5.365-1.3.11-2.6.11-3.9.175-2.525-3.027-4.962-6.082-7.342-9.162.111-.009.222-.005.333-.016,3.157-.266,3.185-5.653,0-5.385-1.412.12-2.823.123-4.233.2q-3.3-4.5-6.4-9.188c.071-.005.142,0,.213-.01,3.159-.266,3.184-5.652,0-5.383-1.171.1-2.339.094-3.509.159-1.113-1.81-2.25-3.588-3.317-5.465-.607-1.063-1.219-2.338-1.838-3.68.12-.011.241-.007.361-.019,3.161-.262,3.185-5.651,0-5.384-.91.078-1.822.069-2.733.126-2.71-6.039-5.893-12.39-10.44-14.522a8.986,8.986,0,0,0-1.983-.615c-.79-2.687-1.736-5.42-2.735-7.98-.493-1.266-.765-2.46-1.865-3.306-3.094-2.367-9.507-1.7-12.906-.889-9.967,2.36-11.618,12.034-12.131,21.654h0a16.215,16.215,0,0,1-8.413.462c-7.3-1.762-16.579-8.759-20.495-15.444-3.559-6.072-1.349-15.786-7.122-20.063a8.262,8.262,0,0,0-1.924-1.036c4.811-7.267,2.129-18.779-7.486-19.864A6.376,6.376,0,0,0,3248,5186.1c.066,2.654,1.913,4.465,3.037,6.6a9.489,9.489,0,0,1-1.494,10.793c-.018.017-.02.039-.037.057-12.036,10.72-32.306,23.373-29.445,43.231-11.3,5.2-10.784,25.148-4.088,34.191,12.258,16.546,32.029,25.063,49.273,33.6,8.843,4.376,17.768,8.792,25.948,14.541,10.631,7.471,18.991,17.618,28.8,26.186,15.272,13.346,27.787,14.63,46.726,14.87,10.952.138,21.919.161,32.849-.714,7.632-.611,14.37-.818,20.3-6.548C3430.438,5352.692,3431.4,5336.161,3422.612,5323.9Zm.937,19.013c-13.385,8.992-34.206,7.46-49.3,5.806a69.673,69.673,0,0,1-20.356-5.547c3.193-10.527,11.9-17.478,20.356-16.385,4.04.523,11.137,3.024,15.2,2.319,6.8-1.184,14.7-4.137,18.192-10.5a32.318,32.318,0,0,1,6.787,4.564A29.652,29.652,0,0,1,3423.549,5342.918Zm-83.644-96.645c-3.458.047-8.835-.882-12.3-1.122-3.183-.219-4.3,1.042-1.127,1.264a124.71,124.71,0,0,0,13.428.116c1.666,3.158,5.6,11.327,7.068,14.131-3.253.03-8.283.229-11.541,0-3.183-.219-3.825-.081-.653.139a123.667,123.667,0,0,0,12.868.142c1.907,3.085,3.853,6.142,5.909,9.121-.359,0,4.518,2.125,3.834,2.389-2.115.758-9.826,2.165-12.255,2-3.184-.22-3.11.518.061.74,4.069.281,8.133.292,12.195.174,2.233,3.067,8.668,11.229,11,14.212-2.708-.012-9.575-1.647-12.285-1.836-3.186-.223-3.172,1.617,0,1.836,4.1.285,8.192.293,12.285.171,2.447,3.034,8.442,8.948,10.921,11.926-1.887-.046-7.293.131-9.182,0-3.185-.221-3.173,2.072,0,2.291,3.665.254,7.324.3,10.981.23a42.671,42.671,0,0,0,4.382,3.133c-16.112,10.344-31.071-12.076-40.223-23.949-11.669-15.138-21.062-31.913-29.773-49.243,3.249-1.559,6.492-2.741,9.079-2.449C3329.74,5232.27,3336.675,5241.272,3339.905,5246.273Zm-28.893-28.375c2.133-.645,11.534-1.38,13.563-.145,1.311.8-.175,5.515.6,8.105-4.533.746-9.273,3.044-12.663,4.5-2.182.934-4.436,2.071-6.736,3.1C3306.162,5227.289,3304.662,5219.82,3311.012,5217.9Zm-46.034-.145c1.638,4.949,6,7.191,9.7,10.575,8.642,7.926,18.947,15.767,29.795,11.453a69.742,69.742,0,0,0,6.544-3.343c1.15,2.292,2.385,4.477,3.57,6.723-12,5.215-22.819,6.885-35.443,1.99-.465-.181.751,1.994,0,1.667-14.311-6.181-23.632-22.453-26.708-38.961.651-.558,1.285-1.11,1.869-1.651C3261.237,5199.834,3263.222,5212.456,3264.978,5217.753Zm-8.115-32.243c4.518,2.573,4.59,9.108.522,12.225a2.628,2.628,0,0,0-.356.409,13.279,13.279,0,0,0-.9-6.6c-.636-1.46-1.821-2.593-2.43-4.039C3252.5,5184.628,3254.867,5184.376,3256.863,5185.51Zm-8.73,25.854c7.712,35.645,36.527,45.7,67.364,31.8,9.88,18.151,22.447,39.75,35.2,55.927,9.809,12.44,26.3,21.2,39.639,11.086.68.379,1.341.751,2.043,1.14,3.066,1.7,6.916,3.3,10.7,5.048-4.023,6.976-9.844,10.806-17.719,10.431-4.9-.234-9.549-1.851-14.5-1.291-8.107.915-18.449,6.694-21.525,15.479-9.547-4.874-18.366-11.525-26.8-19.078-.318-.283-.611-.585-.924-.871a2.688,2.688,0,0,0,.884-1.182c4.817-12.745-.551-27.983-9.967-36.531-11.131-10.107-24.318-10.763-37.861-7.472a2.277,2.277,0,0,0-1.008.531c-15.705-10.705-32.15-20.326-48.579-29.56C3222.123,5231.135,3237,5220.178,3248.132,5211.364Zm69.818,106.211c-12.694-12.371-23.415-26.529-37.9-36.854-.2-.142-.4-.27-.6-.411,9.86-1.871,19.173-1.175,27.865,5.425C3316.4,5292.633,3321.864,5305.94,3317.95,5317.575Zm96.478,43.547c-7.837,6.741-15.7,5.69-25.28,6.022-.415.014-1.2-.036-1.93,0-14.354.709-33.547,2.721-47.313-2.475-16.4-6.191-26.506-24.6-40-35.549-13.81-11.205-30.048-17.846-45.492-25.826-8.567-4.423-16.978-9.238-24.506-15.556-4.189-3.515-9.851-8.156-12.362-13.29-2.939-6.009-1.822-20.043,5.228-22.881,20.376,11.431,41.492,23.094,60.077,37.729.36.283-.59-4.039,0-3.562,18.147,14.637,33.2,39.269,52.583,53.07,14.456,10.294,29.2,15,46.441,15.866,12.856.645,28.744,1.209,40.891-5.12C3421.847,5352.69,3417.194,5358.741,3414.428,5361.122Z" transform="translate(-1128.008 -4310.849)" fill="#323f51" stroke="#323f51" stroke-miterlimit="10" stroke-width="3"/>
      <path id="Path_188" data-name="Path 188" d="M3241.595,5252.45c-7.107-3.008-18.027-10.948-18.421-19.885-.166-3.754-5.782-3.777-5.614,0,.526,11.932,12.909,21.454,22.542,25.533C3243.449,5259.516,3244.906,5253.854,3241.595,5252.45Z" transform="translate(-1115.88 -4281.89)" fill="#323f51" stroke="#323f51" stroke-miterlimit="10" stroke-width="3"/>
      <path id="Path_189" data-name="Path 189" d="M3237.3,5245.468c-4.988,0-5,7.792,0,7.792S3242.3,5245.468,3237.3,5245.468Z" transform="translate(-1101.401 -4273.774)" fill="#323f51" stroke="#323f51" stroke-miterlimit="10" stroke-width="3"/>
    </g>
    <g id="Group_671" data-name="Group 671" transform="translate(2514.037 715.243) rotate(90)">
      <path id="Path_990" data-name="Path 990" d="M32.249,18.434H9.21A9.217,9.217,0,0,1,9.21,0H32.249a9.217,9.217,0,1,1,0,18.434Z" transform="translate(211.974 48.391)" fill="#6c85a0"/>
      <path id="Path_991" data-name="Path 991" d="M45.138,18.434H9.223A9.217,9.217,0,1,1,9.223,0H45.138a9.217,9.217,0,0,1,0,18.434Z" transform="translate(132.952 48.391)" fill="#6c85a0"/>
      <path id="Path_992" data-name="Path 992" d="M32.262,18.434H9.223A9.217,9.217,0,1,1,9.223,0H32.262a9.217,9.217,0,1,1,0,18.434Z" transform="translate(66.803 48.391)" fill="#6c85a0"/>
      <path id="Path_993" data-name="Path 993" d="M126.726,246.542a9.349,9.349,0,0,1-4-.9,9.226,9.226,0,0,1-5.222-8.31V198.169H9.21a9.217,9.217,0,0,1,0-18.434H126.726a9.208,9.208,0,0,1,9.21,9.21v29.228L254.807,123.28,135.936,28.373V57.615a9.208,9.208,0,0,1-9.21,9.21H9.21a9.217,9.217,0,0,1,0-18.434H117.5V9.228a9.22,9.22,0,0,1,14.97-7.21L275.335,116.084a9.207,9.207,0,0,1,0,14.392L132.472,244.528A9.113,9.113,0,0,1,126.726,246.542Z" transform="translate(235.015 0)" fill="#6c85a0"/>
      <path id="Path_994" data-name="Path 994" d="M32.262,18.433H9.223A9.217,9.217,0,1,1,9.223,0H32.262a9.217,9.217,0,1,1,0,18.433Z" transform="translate(66.803 179.735)" fill="#6c85a0"/>
      <path id="Path_995" data-name="Path 995" d="M45.138,18.433H9.223A9.217,9.217,0,1,1,9.223,0H45.138a9.217,9.217,0,0,1,0,18.433Z" transform="translate(132.952 179.735)" fill="#6c85a0"/>
      <path id="Path_996" data-name="Path 996" d="M32.249,18.433H9.21A9.217,9.217,0,0,1,9.21,0H32.249a9.217,9.217,0,1,1,0,18.433Z" transform="translate(211.974 179.735)" fill="#6c85a0"/>
      <path id="Path_997" data-name="Path 997" d="M32.262,18.433H9.211A9.217,9.217,0,0,1,9.211,0H32.262a9.217,9.217,0,0,1,0,18.433Z" transform="translate(179.718 114.056)" fill="#6c85a0"/>
      <path id="Path_998" data-name="Path 998" d="M55.287,18.433H9.21A9.217,9.217,0,0,1,9.21,0H55.287a9.217,9.217,0,1,1,0,18.433Z" transform="translate(78.337 114.056)" fill="#6c85a0"/>
      <path id="Path_999" data-name="Path 999" d="M32.249,18.433H9.21A9.217,9.217,0,0,1,9.21,0H32.249a9.217,9.217,0,1,1,0,18.433Z" transform="translate(0 114.056)" fill="#6c85a0"/>
    </g>
    <path id="Path_1070" data-name="Path 1070" d="M1354.61,792.108c-6.732,1.721-30.337-9.9-36.6-10.953-50.1-8.45-67.326-11.95-117.31-21.068-30.985-5.649-92.877-13.946-127.086-20.163,11.123,12.456,25.764,37,33.787,48.361,16.645,23.563,48.154,32.135,77.324,27.18,9.92-1.685,21.59-1.467,26.112,10.109,5.552,14.207,6.793,29.583-1.816,42.975-2.859,4.447-11.009,7.719-16.759,7.752-86.126.482-172.255.349-258.381.277a24.543,24.543,0,0,1-8.955-1.4c-11.6-4.672-16.775-22.086-12.511-42.235,2.53-11.954,9.975-18.135,22.454-17.717a24.883,24.883,0,0,1,3.948.029c31.725,6.363,59.477,7.1,77.515-18.356,9.287-13.1,34-42.926,46.723-56.969-20.289-3.811-58.423-14.766-76.623-18.1-71.085-13-143.049-19.382-214.1-32.564-4.886-.906-6.394,2.008-11.075,0V681.35c5.614-1.917,11.647-6.272,16.775-5.382,76.242,13.216,152.37,27.09,228.514,40.875q163.921,29.681,327.8,59.62c6.992,1.284,13.519,5.1,20.263,7.732Zm-162.345,37.177c-27.443-21.373-235.221-1.352-258.381-3.711s-4.847,42.975-4.847,42.975,258.8,11.3,267.377-4.423,0-3.672,0-3.672S1219.708,850.657,1192.266,829.284Zm-75.655-14.762-53.553-58.4-53.257,58.4Z" transform="translate(1230.133 593.111)" fill="#27303e"/>
  </g>
</svg>
