<svg width="593.352" height="754.519" xmlns="http://www.w3.org/2000/svg"><g data-name="Group 788"><g fill="#323f51" stroke="#323f51" stroke-miterlimit="10" stroke-width="3" data-name="Group 668"><path d="M232.85 467.13c-5.68-7.921-16.353-10.729-24.114-15.151-2.981-1.7-6.086-3.247-9.048-5.023 2.825-.6 2.767-5.549-.3-5.292-2.11.18-4.216.221-6.323.29a70.734 70.734 0 0 1-7.639-9.311c3.087-.337 3.1-5.631-.062-5.365-1.3.11-2.6.11-3.9.175a314.111 314.111 0 0 1-7.342-9.162c.111-.009.222-.005.333-.016 3.157-.266 3.185-5.653 0-5.385-1.412.12-2.823.123-4.233.2q-3.3-4.5-6.4-9.188c.071-.005.142 0 .213-.01 3.159-.266 3.184-5.652 0-5.383-1.171.1-2.339.094-3.509.159-1.113-1.81-2.25-3.588-3.317-5.465-.607-1.063-1.219-2.338-1.838-3.68.12-.011.241-.007.361-.019 3.161-.262 3.185-5.651 0-5.384-.91.078-1.822.069-2.733.126-2.71-6.039-5.893-12.39-10.44-14.522a8.986 8.986 0 0 0-1.983-.615 99.338 99.338 0 0 0-2.735-7.98c-.493-1.266-.765-2.46-1.865-3.306-3.094-2.367-9.507-1.7-12.906-.889-9.967 2.36-11.618 12.034-12.131 21.654a16.215 16.215 0 0 1-8.413.462c-7.3-1.762-16.579-8.759-20.495-15.444-3.559-6.072-1.349-15.786-7.122-20.063a8.262 8.262 0 0 0-1.924-1.036c4.811-7.267 2.129-18.779-7.486-19.864a6.376 6.376 0 0 0-7.261 6.687c.066 2.654 1.913 4.465 3.037 6.6a9.489 9.489 0 0 1-1.494 10.793c-.018.017-.02.039-.037.057-12.036 10.72-32.306 23.373-29.445 43.231-11.3 5.2-10.784 25.148-4.088 34.191 12.258 16.546 32.029 25.063 49.273 33.6 8.843 4.376 17.768 8.792 25.948 14.541 10.631 7.471 18.991 17.618 28.8 26.186 15.272 13.346 27.787 14.63 46.726 14.87 10.952.138 21.919.161 32.849-.714 7.632-.611 14.37-.818 20.3-6.548 10.569-10.215 11.531-26.746 2.743-39.007Zm.937 19.013c-13.385 8.992-34.206 7.46-49.3 5.806a69.673 69.673 0 0 1-20.356-5.547c3.193-10.527 11.9-17.478 20.356-16.385 4.04.523 11.137 3.024 15.2 2.319 6.8-1.184 14.7-4.137 18.192-10.5a32.318 32.318 0 0 1 6.787 4.564 29.652 29.652 0 0 1 9.121 19.748Zm-83.644-96.645c-3.458.047-8.835-.882-12.3-1.122-3.183-.219-4.3 1.042-1.127 1.264a124.71 124.71 0 0 0 13.428.116c1.666 3.158 5.6 11.327 7.068 14.131-3.253.03-8.283.229-11.541 0-3.183-.219-3.825-.081-.653.139a123.667 123.667 0 0 0 12.868.142c1.907 3.085 3.853 6.142 5.909 9.121-.359 0 4.518 2.125 3.834 2.389-2.115.758-9.826 2.165-12.255 2-3.184-.22-3.11.518.061.74 4.069.281 8.133.292 12.195.174 2.233 3.067 8.668 11.229 11 14.212-2.708-.012-9.575-1.647-12.285-1.836-3.186-.223-3.172 1.617 0 1.836 4.1.285 8.192.293 12.285.171 2.447 3.034 8.442 8.948 10.921 11.926-1.887-.046-7.293.131-9.182 0-3.185-.221-3.173 2.072 0 2.291 3.665.254 7.324.3 10.981.23a42.671 42.671 0 0 0 4.382 3.133c-16.112 10.344-31.071-12.076-40.223-23.949-11.669-15.138-21.062-31.913-29.773-49.243 3.249-1.559 6.492-2.741 9.079-2.449 5.163.586 12.098 9.588 15.328 14.589Zm-28.893-28.375c2.133-.645 11.534-1.38 13.563-.145 1.311.8-.175 5.515.6 8.105-4.533.746-9.273 3.044-12.663 4.5-2.182.934-4.436 2.071-6.736 3.1.386-6.164-1.114-13.633 5.236-15.553Zm-46.034-.145c1.638 4.949 6 7.191 9.7 10.575 8.642 7.926 18.947 15.767 29.795 11.453a69.742 69.742 0 0 0 6.544-3.343c1.15 2.292 2.385 4.477 3.57 6.723-12 5.215-22.819 6.885-35.443 1.99-.465-.181.751 1.994 0 1.667-14.311-6.181-23.632-22.453-26.708-38.961a65.55 65.55 0 0 0 1.869-1.651c6.932-6.367 8.917 6.255 10.673 11.552Zm-8.115-32.243c4.518 2.573 4.59 9.108.522 12.225a2.628 2.628 0 0 0-.356.409 13.279 13.279 0 0 0-.9-6.6c-.636-1.46-1.821-2.593-2.43-4.039-1.199-2.872 1.168-3.124 3.164-1.99Zm-8.73 25.854c7.712 35.645 36.527 45.7 67.364 31.8 9.88 18.151 22.447 39.75 35.2 55.927 9.809 12.44 26.3 21.2 39.639 11.086.68.379 1.341.751 2.043 1.14 3.066 1.7 6.916 3.3 10.7 5.048-4.023 6.976-9.844 10.806-17.719 10.431-4.9-.234-9.549-1.851-14.5-1.291-8.107.915-18.449 6.694-21.525 15.479-9.547-4.874-18.366-11.525-26.8-19.078-.318-.283-.611-.585-.924-.871a2.688 2.688 0 0 0 .884-1.182c4.817-12.745-.551-27.983-9.967-36.531-11.131-10.107-24.318-10.763-37.861-7.472a2.277 2.277 0 0 0-1.008.531c-15.705-10.705-32.15-20.326-48.579-29.56-2.957-15.681 11.92-26.638 23.052-35.452ZM128.189 460.8c-12.694-12.371-23.415-26.529-37.9-36.854-.2-.142-.4-.27-.6-.411 9.86-1.871 19.173-1.175 27.865 5.425 9.084 6.903 14.548 20.21 10.634 31.845Zm96.478 43.547c-7.837 6.741-15.7 5.69-25.28 6.022-.415.014-1.2-.036-1.93 0-14.354.709-33.547 2.721-47.313-2.475-16.4-6.191-26.506-24.6-40-35.549-13.81-11.205-30.048-17.846-45.492-25.826-8.567-4.423-16.978-9.238-24.506-15.556-4.189-3.515-9.851-8.156-12.362-13.29-2.939-6.009-1.822-20.043 5.228-22.881 20.376 11.431 41.492 23.094 60.077 37.729.36.283-.59-4.039 0-3.562 18.147 14.637 33.2 39.269 52.583 53.07 14.456 10.294 29.2 15 46.441 15.866 12.856.645 28.744 1.209 40.891-5.12-.919 3.145-5.572 9.196-8.338 11.577Z" data-name="Path 187"/><path d="M63.961 424.639c-7.107-3.008-18.027-10.948-18.421-19.885-.166-3.754-5.782-3.777-5.614 0 .526 11.932 12.909 21.454 22.542 25.533 3.347 1.418 4.804-4.244 1.493-5.648Z" data-name="Path 188"/><path d="M74.145 425.773c-4.988 0-5 7.792 0 7.792s5-7.792 0-7.792Z" data-name="Path 189"/></g><g fill="#6c85a0" data-name="Group 671"><path d="M455.821 244.223v-23.039a9.217 9.217 0 0 1 18.434 0v23.039a9.217 9.217 0 1 1-18.434 0Z" data-name="Path 990"/><path d="M455.821 178.09v-35.915a9.217 9.217 0 1 1 18.434 0v35.915a9.217 9.217 0 0 1-18.434 0Z" data-name="Path 991"/><path d="M455.821 99.065V76.026a9.217 9.217 0 1 1 18.434 0v23.039a9.217 9.217 0 1 1-18.434 0Z" data-name="Path 992"/><path d="M276.104 361.741a9.349 9.349 0 0 1 .9-4 9.226 9.226 0 0 1 8.31-5.222h39.163V244.225a9.217 9.217 0 0 1 18.434 0v117.516a9.208 9.208 0 0 1-9.21 9.21h-29.228l94.893 118.871 94.907-118.871h-29.242a9.208 9.208 0 0 1-9.21-9.21V244.225a9.217 9.217 0 0 1 18.434 0v108.29h39.163a9.22 9.22 0 0 1 7.21 14.97L406.562 510.35a9.207 9.207 0 0 1-14.392 0L278.118 367.487a9.113 9.113 0 0 1-2.014-5.746Z" data-name="Path 993"/><path d="M324.478 99.065V76.026a9.217 9.217 0 1 1 18.433 0v23.039a9.217 9.217 0 1 1-18.433 0Z" data-name="Path 994"/><path d="M324.478 178.09v-35.915a9.217 9.217 0 1 1 18.433 0v35.915a9.217 9.217 0 0 1-18.433 0Z" data-name="Path 995"/><path d="M324.478 244.223v-23.039a9.217 9.217 0 0 1 18.433 0v23.039a9.217 9.217 0 1 1-18.433 0Z" data-name="Path 996"/><path d="M390.157 211.98v-23.051a9.217 9.217 0 0 1 18.433 0v23.051a9.217 9.217 0 0 1-18.433 0Z" data-name="Path 997"/><path d="M390.157 133.624V87.547a9.217 9.217 0 0 1 18.433 0v46.077a9.217 9.217 0 1 1-18.433 0Z" data-name="Path 998"/><path d="M390.157 32.249V9.21a9.217 9.217 0 0 1 18.433 0v23.039a9.217 9.217 0 1 1-18.433 0Z" data-name="Path 999"/></g><path fill="#27303e" d="M593.352 669.976c-6.732 1.721-30.337-9.9-36.6-10.953-50.1-8.45-67.326-11.95-117.31-21.068-30.985-5.649-92.877-13.946-127.086-20.163 11.123 12.456 25.764 37 33.787 48.361 16.645 23.563 48.154 32.135 77.324 27.18 9.92-1.685 21.59-1.467 26.112 10.109 5.552 14.207 6.793 29.583-1.816 42.975-2.859 4.447-11.009 7.719-16.759 7.752-86.126.482-172.255.349-258.381.277a24.543 24.543 0 0 1-8.955-1.4c-11.6-4.672-16.775-22.086-12.511-42.235 2.53-11.954 9.975-18.135 22.454-17.717a24.883 24.883 0 0 1 3.948.029c31.725 6.363 59.477 7.1 77.515-18.356 9.287-13.1 34-42.926 46.723-56.969-20.289-3.811-58.423-14.766-76.623-18.1-71.085-13-143.049-19.382-214.1-32.564-4.886-.906-6.394 2.008-11.075 0v-7.916c5.614-1.917 11.647-6.272 16.775-5.382 76.242 13.216 152.37 27.09 228.514 40.875q163.921 29.681 327.8 59.62c6.992 1.284 13.519 5.1 20.263 7.732Zm-162.345 37.177c-27.443-21.373-235.221-1.352-258.381-3.711s-4.847 42.975-4.847 42.975 258.8 11.3 267.377-4.423 0-3.672 0-3.672 23.294-9.797-4.148-31.17Zm-75.655-14.762-53.553-58.4-53.257 58.4Z" data-name="Path 1070"/></g></svg>