<svg xmlns="http://www.w3.org/2000/svg" width="459.779" height="452.332" viewBox="0 0 459.779 452.332">
  <g id="Group_743" data-name="Group 743" transform="translate(-303.848 -3269.246)">
    <path id="Path_917" data-name="Path 917" d="M175.222,0h22.515c96.772,0,203.205,146.81,175.487,245.352S294.509,366.886,197.736,366.886H175.222C78.45,366.886,0,284.756,0,183.443S78.449,0,175.222,0Z" transform="matrix(-0.966, 0.259, -0.259, -0.966, 763.627, 3623.823)" fill="#fff"/>
    <g id="Group_83" data-name="Group 83" transform="translate(381.01 3450.715)">
      <path id="Path_187" data-name="Path 187" d="M3400.461,5298.431c-5.085-6.525-14.64-8.838-21.587-12.481-2.668-1.4-5.449-2.674-8.1-4.138,2.529-.493,2.477-4.571-.27-4.36-1.889.148-3.774.183-5.66.239a59.575,59.575,0,0,1-6.839-7.67c2.764-.278,2.774-4.638-.055-4.419-1.165.09-2.329.09-3.492.145-2.261-2.494-4.442-5.01-6.573-7.547.1-.007.2,0,.3-.014,2.826-.219,2.851-4.656,0-4.436-1.265.1-2.527.1-3.79.162q-2.955-3.708-5.726-7.569c.063,0,.127,0,.19-.008,2.828-.219,2.851-4.656,0-4.435-1.048.08-2.094.078-3.141.131-1-1.491-2.015-2.956-2.969-4.5-.543-.875-1.091-1.926-1.646-3.032.107-.009.215-.005.323-.015,2.829-.216,2.851-4.656,0-4.436-.815.064-1.631.057-2.447.1-2.426-4.975-5.275-10.206-9.346-11.962a8.569,8.569,0,0,0-1.776-.507c-.707-2.213-1.554-4.464-2.448-6.574a5.4,5.4,0,0,0-1.669-2.723c-2.769-1.951-8.511-1.4-11.554-.733-8.923,1.944-10.4,9.913-10.86,17.838h0a15.728,15.728,0,0,1-7.532.38c-6.536-1.451-14.842-7.215-18.348-12.722-3.186-5-1.208-13-6.375-16.527a7.618,7.618,0,0,0-1.723-.854c4.307-5.986,1.906-15.47-6.7-16.363-3.39-.348-6.6,1.823-6.5,5.509.059,2.187,1.713,3.678,2.719,5.438a7.342,7.342,0,0,1-1.337,8.891c-.016.014-.018.032-.034.047-10.775,8.83-28.921,19.253-26.359,35.612-10.113,4.284-9.655,20.716-3.66,28.165,10.974,13.63,28.673,20.646,44.11,27.675,7.917,3.6,15.906,7.242,23.229,11.978,9.518,6.155,17,14.512,25.779,21.571,13.672,10.993,24.875,12.051,41.83,12.249,9.8.114,19.623.132,29.407-.588,6.832-.5,12.864-.674,18.175-5.394C3407.467,5322.144,3408.325,5308.526,3400.461,5298.431Zm.839,15.662c-11.982,7.407-30.622,6.146-44.138,4.783a66.626,66.626,0,0,1-18.224-4.569c2.859-8.672,10.651-14.4,18.224-13.5,3.617.431,9.97,2.492,13.612,1.911,6.089-.976,13.16-3.408,16.286-8.646a29.186,29.186,0,0,1,6.076,3.76A23.649,23.649,0,0,1,3401.3,5314.093Zm-74.88-79.611c-3.1.039-7.909-.728-11.012-.925-2.85-.181-3.849.858-1.009,1.042,4.013.254,8.016.239,12.021.1,1.492,2.6,5.018,9.331,6.328,11.641-2.913.024-7.416.188-10.332,0-2.85-.181-3.424-.067-.584.114,3.844.246,7.682.239,11.52.117,1.707,2.542,3.449,5.059,5.291,7.514-.322,0,4.044,1.75,3.432,1.968a51.58,51.58,0,0,1-10.971,1.645c-2.85-.181-2.785.427.054.609,3.643.231,7.28.241,10.917.144,2,2.526,7.76,9.25,9.848,11.707-2.424-.009-8.572-1.357-11-1.512-2.852-.184-2.839,1.331,0,1.512,3.669.235,7.334.242,11,.141,2.19,2.5,7.557,7.372,9.776,9.825-1.689-.038-6.529.108-8.22,0-2.851-.182-2.84,1.707,0,1.887,3.281.21,6.557.248,9.831.19a38.361,38.361,0,0,0,3.923,2.581c-14.424,8.521-27.815-9.947-36.009-19.728-10.447-12.47-18.856-26.289-26.653-40.564,2.908-1.284,5.812-2.257,8.127-2.018C3317.32,5222.946,3323.528,5230.362,3326.419,5234.481Zm-25.866-23.374c1.909-.531,10.325-1.137,12.142-.12,1.174.659-.157,4.543.534,6.677-4.058.615-8.3,2.508-11.336,3.7-1.954.769-3.971,1.706-6.03,2.554C3296.212,5218.843,3294.869,5212.69,3300.554,5211.107Zm-41.211-.12c1.466,4.077,5.376,5.924,8.68,8.711,7.736,6.53,16.961,12.988,26.673,9.435,1.6-.583,3.65-1.646,5.858-2.754,1.029,1.889,2.135,3.688,3.2,5.539-10.74,4.3-20.428,5.671-31.729,1.639-.417-.149.672,1.642,0,1.374-12.811-5.091-21.156-18.5-23.91-32.1.583-.459,1.15-.914,1.673-1.36C3255.994,5196.227,3257.771,5206.624,3259.342,5210.988Zm-7.265-26.56a5.843,5.843,0,0,1,.468,10.07,2.235,2.235,0,0,0-.318.336,10.149,10.149,0,0,0-.8-5.437c-.57-1.2-1.63-2.136-2.175-3.327C3248.168,5183.7,3250.292,5183.494,3252.078,5184.428Zm-7.816,21.3c6.9,29.362,32.7,37.644,60.307,26.193,8.845,14.952,20.095,32.745,31.514,46.07,8.781,10.247,23.548,17.462,35.486,9.132.608.312,1.2.619,1.829.939,2.745,1.4,6.191,2.717,9.583,4.158-3.6,5.746-8.812,8.9-15.863,8.592-4.39-.192-8.549-1.524-12.983-1.063-7.258.753-16.516,5.515-19.27,12.752a114.972,114.972,0,0,1-23.989-15.716c-.284-.234-.547-.483-.827-.717a2.242,2.242,0,0,0,.791-.974c4.313-10.5-.493-23.051-8.923-30.093-9.965-8.326-21.77-8.866-33.894-6.155a2.109,2.109,0,0,0-.9.437c-14.06-8.818-28.782-16.743-43.489-24.35C3220.978,5222.011,3234.295,5212.985,3244.262,5205.725Zm62.5,87.492c-11.364-10.191-20.962-21.853-33.931-30.359-.176-.117-.361-.223-.54-.339,8.827-1.541,17.164-.968,24.946,4.469C3305.375,5272.67,3310.269,5283.632,3306.765,5293.216Zm86.37,35.872c-7.016,5.553-14.057,4.687-22.631,4.961-.371.012-1.073-.03-1.728,0-12.85.584-30.032,2.241-42.356-2.039-14.683-5.1-23.729-20.261-35.81-29.283-12.363-9.23-26.9-14.7-40.726-21.275-7.669-3.644-15.2-7.61-21.939-12.814-3.75-2.9-8.819-6.719-11.067-10.948-2.631-4.95-1.631-16.511,4.68-18.848,18.241,9.416,37.145,19.023,53.782,31.08.322.233-.528-3.327,0-2.935,16.246,12.057,29.722,32.348,47.074,43.717,12.941,8.479,26.138,12.359,41.575,13.069,11.509.531,25.733,1,36.607-4.218C3399.776,5322.143,3395.611,5327.127,3393.135,5329.088Z" transform="translate(-3211.199 -5179.368)" fill="#323f51" stroke="#323f51" stroke-miterlimit="10" stroke-width="3"/>
      <path id="Path_188" data-name="Path 188" d="M3231.3,5242.669c-4.065-1.712-10.31-6.232-10.536-11.32-.095-2.137-3.307-2.15-3.211,0,.3,6.792,7.383,12.213,12.892,14.536C3232.365,5246.691,3233.2,5243.468,3231.3,5242.669Z" transform="translate(-3206.985 -5160.835)" fill="#323f51" stroke="#323f51" stroke-miterlimit="10" stroke-width="3"/>
      <path id="Path_189" data-name="Path 189" d="M3235.7,5245.468c-2.853,0-2.859,4.436,0,4.436S3238.559,5245.468,3235.7,5245.468Z" transform="translate(-3204.416 -5159.36)" fill="#323f51" stroke="#323f51" stroke-miterlimit="10" stroke-width="3"/>
    </g>
    <g id="Group_615" data-name="Group 615" transform="translate(1636.689 23548.477) rotate(-90)">
      <path id="Path_990" data-name="Path 990" d="M426.465,208.292h-12.4a4.96,4.96,0,0,1,0-9.92h12.4a4.96,4.96,0,1,1,0,9.92Z" transform="translate(19707.691 -1266.577)" fill="#6c85a0"/>
      <path id="Path_991" data-name="Path 991" d="M427.515,208.292H408.188a4.96,4.96,0,1,1,0-9.92h19.327a4.96,4.96,0,0,1,0,9.92Z" transform="translate(19671.053 -1266.577)" fill="#6c85a0"/>
      <path id="Path_992" data-name="Path 992" d="M415.659,208.292h-12.4a4.96,4.96,0,1,1,0-9.92h12.4a4.96,4.96,0,1,1,0,9.92Z" transform="translate(19640.383 -1266.577)" fill="#6c85a0"/>
      <path id="Path_993" data-name="Path 993" d="M479.022,327.44a5.031,5.031,0,0,1-2.153-.484,4.965,4.965,0,0,1-2.81-4.472V301.409H415.783a4.96,4.96,0,0,1,0-9.92h63.239a4.955,4.955,0,0,1,4.956,4.956v15.729l63.969-51.065-63.969-51.072v15.736a4.955,4.955,0,0,1-4.956,4.956H415.783a4.96,4.96,0,0,1,0-9.92h58.275V199.734a4.961,4.961,0,0,1,8.056-3.88l76.879,61.382a4.954,4.954,0,0,1,0,7.745l-76.879,61.375A4.9,4.9,0,0,1,479.022,327.44Z" transform="translate(19718.373 -1289.013)" fill="#6c85a0"/>
      <path id="Path_994" data-name="Path 994" d="M415.659,218.075h-12.4a4.96,4.96,0,1,1,0-9.92h12.4a4.96,4.96,0,1,1,0,9.92Z" transform="translate(19640.383 -1205.679)" fill="#6c85a0"/>
      <path id="Path_995" data-name="Path 995" d="M427.515,218.075H408.188a4.96,4.96,0,1,1,0-9.92h19.327a4.96,4.96,0,0,1,0,9.92Z" transform="translate(19671.053 -1205.679)" fill="#6c85a0"/>
      <path id="Path_996" data-name="Path 996" d="M426.465,218.075h-12.4a4.96,4.96,0,0,1,0-9.92h12.4a4.96,4.96,0,1,1,0,9.92Z" transform="translate(19707.691 -1205.679)" fill="#6c85a0"/>
      <path id="Path_997" data-name="Path 997" d="M424.069,213.183h-12.4a4.96,4.96,0,0,1,0-9.92h12.4a4.96,4.96,0,0,1,0,9.92Z" transform="translate(19692.736 -1236.131)" fill="#6c85a0"/>
      <path id="Path_998" data-name="Path 998" d="M428.909,213.183h-24.8a4.96,4.96,0,0,1,0-9.92h24.8a4.96,4.96,0,1,1,0,9.92Z" transform="translate(19645.73 -1236.131)" fill="#6c85a0"/>
      <path id="Path_999" data-name="Path 999" d="M410.676,213.183h-12.4a4.96,4.96,0,0,1,0-9.92h12.4a4.96,4.96,0,1,1,0,9.92Z" transform="translate(19609.41 -1236.131)" fill="#6c85a0"/>
    </g>
  </g>
</svg>
