<svg width="463.154" height="918.428" xmlns="http://www.w3.org/2000/svg"><g data-name="Group 644" transform="translate(1.705 1.095)"><path fill="none" stroke="#707070" stroke-width="3" d="M305.008 36.597S275.085.405 232.802.405s-75.7 26.162-85.313 40.049H116.77v31.738H85.028v31.742l-84.869-.682s1.516 35.867 27.8 58.451 20.944 61.09 22.845 88.138 8.437 45.878 36.212 47.695v26.614l-86.857-.158s9.356 43.215 29.736 60.872 22.613 50.938 21.39 86.373 13.907 47.732 39.7 47.04v30.058H0s2.045 30.484 23.836 50.7 26.247 51.792 28.481 87.113S64.782 739.8 88.803 739.8l1.123 28.776 23.065.3-1.24 25.136 235.151 1.073v-28.527l21.854 1.288 6.4-29.318s23.063 7.372 31.191-19.5-6.388-70.3 11.963-95.576l33.2-45.733s5.19-21.456 7.967-31.375h-88.763v-29.752s26.91 2.676 31.889-11.961.48-73.22 10.429-91.842 46.643-62.844 46.444-88.634c0 0-88.763 3.968-88.763 0V298.36s32.966.71 35.161-21.468-4.2-73.577 11.285-94.8 45.493-36.492 42.318-78.153h-88.763V70.212h-29.758V38.47Z" data-name="Path 1001"/><path fill="none" d="M144.545 785.273h168.669v132.06H144.545z" data-name="Rectangle 321"/><g fill="none" stroke="#000" stroke-miterlimit="10" stroke-width="1.109" data-name="Group 625"><path d="M117.364 69.791q.6-12.2 1.19-24.406" data-name="Path 1002"/><path d="M343.53 67.758V39.285" data-name="Path 1003"/><path d="M116.174 41.144c73.394-1.635 227.358-1.859 227.358-1.859" data-name="Path 1004"/></g><path fill="none" stroke="#000" stroke-miterlimit="10" stroke-width="1.2" d="M147.211 40.146a104.783 104.783 0 0 1 165.282.435" data-name="Path 1005"/><g fill="none" stroke="#000" stroke-miterlimit="10" stroke-width="1.389" data-name="Group 627"><g data-name="Group 626"><path d="M87.405 77.632q1.125 345.441 2.246 690.882" data-name="Path 1006"/><path d="M370.704 77.632q1.125 345.441 2.246 690.882" data-name="Path 1007"/><path d="m86.758 73.011 279.717-4.418" data-name="Path 1008"/></g><path d="M89.646 768.513c92.441-2.26 187.025 1.593 279.464-.669" data-name="Path 1009"/></g><g fill="none" stroke="#000" stroke-miterlimit="10" stroke-width="1.046" data-name="Group 628"><path d="m112.712 768.841-.704 25.152" data-name="Line 45"/><path d="M112.009 793.993c75.388-.246 160.3 1.335 235.686 1.089" data-name="Path 1010"/><path d="M347.695 795.082v-28.943" data-name="Path 1011"/></g><g data-name="Group 631"><g data-name="Group 629"><path fill="none" stroke="#000" stroke-miterlimit="10" stroke-width="1.085" d="M144.544 795.109v117.918" data-name="Line 46"/></g><g data-name="Group 630"><path fill="none" stroke="#000" stroke-miterlimit="10" stroke-width="1.085" d="M315.159 795.109v117.918" data-name="Line 47"/></g></g><path fill="none" stroke="#000" stroke-miterlimit="10" stroke-width="4.432" d="M320.563 266.431a108.812 108.812 0 1 0-181.423 0Z" data-name="Path 1012"/><circle cx="91.192" cy="91.192" r="91.192" fill="#cc5858" stroke="#000" stroke-miterlimit="10" stroke-width="4.432" data-name="Ellipse 100" transform="translate(138.66 115.152)"/><path fill="none" stroke="#000" stroke-miterlimit="10" stroke-width="4.432" d="M320.563 487.169a108.812 108.812 0 1 0-181.423 0Z" data-name="Path 1013"/><circle cx="91.192" cy="91.192" r="91.192" fill="#efdc74" stroke="#000" stroke-miterlimit="10" stroke-width="4.432" data-name="Ellipse 101" transform="translate(138.66 335.889)"/><path fill="none" stroke="#000" stroke-miterlimit="10" stroke-width="4.432" d="M320.563 707.904a108.812 108.812 0 1 0-181.423 0Z" data-name="Path 1014"/><circle cx="91.192" cy="91.192" r="91.192" fill="#7ed6ad" stroke="#000" stroke-miterlimit="10" stroke-width="4.432" data-name="Ellipse 102" transform="translate(138.66 556.625)"/><g fill="none" stroke="#000" stroke-miterlimit="10" stroke-width="1.2" data-name="Group 634"><g data-name="Group 632"><path d="M107.952 88.982c-4.613 2.355-6.186 9.148-3.083 13.292s10.06 4.551 13.627.8 2.805-10.677-1.49-13.572-10.993-1-13.143 3.708" data-name="Path 1015"/><path d="m107.186 102.671 9.737-12.931" data-name="Path 1016"/></g><g data-name="Group 633"><path d="M343.636 88.982c-4.61 2.355-6.184 9.148-3.081 13.292s10.06 4.551 13.628.8 2.8-10.677-1.49-13.572-10.993-1-13.143 3.708" data-name="Path 1017"/><path d="M342.872 102.671q4.868-6.467 9.737-12.931" data-name="Path 1018"/></g></g><g fill="none" stroke="#000" stroke-miterlimit="10" stroke-width="1.2" data-name="Group 637"><g data-name="Group 635"><path d="M107.952 731.76c-4.613 2.357-6.186 9.15-3.083 13.294s10.06 4.551 13.627.8 2.805-10.677-1.49-13.572-10.993-1-13.143 3.708" data-name="Path 1019"/><path d="m107.186 745.451 9.737-12.931" data-name="Path 1020"/></g><g data-name="Group 636"><path d="M343.636 731.76c-4.61 2.357-6.184 9.15-3.081 13.294s10.06 4.551 13.628.8 2.8-10.677-1.49-13.572-10.993-1-13.143 3.708" data-name="Path 1021"/><path d="M342.872 745.451q4.868-6.467 9.737-12.931" data-name="Path 1022"/></g></g><g fill="none" stroke="#000" stroke-miterlimit="10" stroke-width="1.2" data-name="Group 638"><path d="m372.693 104.054 86.5-.8" data-name="Path 1024"/><path d="M375.194 296.388c12.8 4.853 26.888-6.452 31.032-19.5s1.615-27.116.913-40.785c-2.016-39.287 9.733-58.687 36.18-87.809 6.458-7.11 15.873-28.431 15.873-45.046" data-name="Path 1025"/></g><g fill="none" stroke="#000" stroke-miterlimit="10" stroke-width="1.2" data-name="Group 639"><path d="m372.693 324.79 86.5-.8" data-name="Path 1026"/><path d="M375.194 517.126c12.8 4.851 26.888-6.454 31.032-19.5s1.615-27.116.913-40.783c-2.016-39.287 9.733-58.689 36.18-87.809 6.458-7.112 15.873-28.431 15.873-45.048" data-name="Path 1027"/></g><g fill="none" stroke="#000" stroke-miterlimit="10" stroke-width="1.2" data-name="Group 640"><path d="m372.693 546.192 86.5-.8" data-name="Path 1028"/><path d="M375.194 738.528c12.8 4.851 26.888-6.454 31.032-19.5s1.615-27.116.913-40.783c-2.016-39.287 9.733-58.689 36.18-87.809 6.458-7.112 15.873-28.431 15.873-45.048" data-name="Path 1029"/></g><g fill="none" stroke="#000" stroke-miterlimit="10" stroke-width="1.2" data-name="Group 641"><path d="m87.013 104.054-86.5-.8" data-name="Path 1030"/><path d="M84.513 296.388c-12.8 4.853-26.888-6.452-31.032-19.5s-1.615-27.116-.912-40.785c2.015-39.287-9.733-58.687-36.18-87.809C9.931 141.184.516 119.863.516 103.248" data-name="Path 1031"/></g><g fill="none" stroke="#000" stroke-miterlimit="10" stroke-width="1.2" data-name="Group 642"><path d="m87.013 324.79-86.5-.8" data-name="Path 1032"/><path d="M84.513 517.126c-12.8 4.851-26.888-6.454-31.032-19.5s-1.615-27.116-.912-40.783c2.015-39.287-9.733-58.689-36.18-87.809C9.931 361.922.516 340.603.516 323.986" data-name="Path 1033"/></g><g fill="none" stroke="#000" stroke-miterlimit="10" stroke-width="1.2" data-name="Group 643"><path d="m87.013 546.192-86.5-.8" data-name="Path 1034"/><path d="M84.513 738.528c-12.8 4.851-26.888-6.454-31.032-19.5s-1.615-27.116-.912-40.783c2.015-39.287-9.733-58.689-36.18-87.809C9.931 583.324.516 562.005.516 545.388" data-name="Path 1035"/></g><path fill="none" stroke="#000" stroke-miterlimit="10" stroke-width="1.2" d="M184.152 370.783c-18.327 14.637-27.931 39.462-24.227 62.623" data-name="Path 1036"/><path fill="none" stroke="#000" stroke-miterlimit="10" stroke-width="1.2" d="m164.383 451.119 1.19-1.19" data-name="Path 1037"/><path fill="none" stroke="#000" stroke-miterlimit="10" stroke-width="1.2" d="M184.152 154.539c-18.327 14.637-27.931 39.462-24.227 62.624" data-name="Path 1038"/><path fill="none" stroke="#000" stroke-miterlimit="10" stroke-width="1.2" d="m164.383 234.875 1.19-1.19" data-name="Path 1039"/><path fill="none" stroke="#000" stroke-miterlimit="10" stroke-width="1.2" d="M276.352 475.031a63.218 63.218 0 0 0 25.073-54.97" data-name="Path 1040"/><path fill="none" stroke="#000" stroke-miterlimit="10" stroke-width="1.2" d="M184.152 598.931c-18.327 14.637-27.931 39.462-24.227 62.623" data-name="Path 1042"/><path fill="none" stroke="#000" stroke-miterlimit="10" stroke-width="1.2" d="m164.383 679.266 1.19-1.19" data-name="Path 1043"/><path fill="none" stroke="#000" stroke-miterlimit="10" stroke-width="1.2" d="M276.352 703.179a63.218 63.218 0 0 0 25.073-54.97" data-name="Path 1044"/><path fill="none" stroke="#000" stroke-miterlimit="10" stroke-width="1.2" d="M276.352 254.82a63.218 63.218 0 0 0 25.073-54.97" data-name="Path 1046"/></g></svg>