<svg width="582.761" height="573.764" xmlns="http://www.w3.org/2000/svg"><g data-name="Group 665"><path fill="#fff" d="m170.807 125.054 21.947-14.257c94.334-61.278 280.55 57.993 280.55 57.993s33.272 218.62-61.062 279.898l-21.947 14.256c-94.334 61.278-219.941 35.314-280.551-57.992s-33.27-218.62 61.063-279.898Z" data-name="Path 475"/><g fill="#6c85a0" data-name="Group 613"><path d="M430.558 334.191v-13.412a5.366 5.366 0 0 1 10.731 0v13.412a5.366 5.366 0 1 1-10.731 0Z" data-name="Path 990"/><path d="M430.558 295.689v-20.906a5.366 5.366 0 1 1 10.731 0v20.906a5.366 5.366 0 0 1-10.731 0Z" data-name="Path 991"/><path d="M430.558 249.686v-13.412a5.366 5.366 0 1 1 10.731 0v13.412a5.366 5.366 0 1 1-10.731 0Z" data-name="Path 992"/><path d="M325.931 402.604a5.443 5.443 0 0 1 .524-2.329 5.371 5.371 0 0 1 4.838-3.04h22.8v-63.042a5.366 5.366 0 0 1 10.731 0v68.411a5.361 5.361 0 0 1-5.362 5.362h-17.015l55.243 69.2 55.251-69.2h-17.023a5.36 5.36 0 0 1-5.362-5.362v-68.411a5.366 5.366 0 0 1 10.731 0v63.043h22.8a5.367 5.367 0 0 1 4.2 8.715l-66.4 83.169a5.36 5.36 0 0 1-8.379 0l-66.4-83.169a5.306 5.306 0 0 1-1.177-3.347Z" data-name="Path 993"/><path d="M354.092 249.686v-13.412a5.366 5.366 0 1 1 10.731 0v13.412a5.366 5.366 0 1 1-10.731 0Z" data-name="Path 994"/><path d="M354.092 295.689v-20.906a5.366 5.366 0 1 1 10.731 0v20.906a5.366 5.366 0 0 1-10.731 0Z" data-name="Path 995"/><path d="M354.092 334.191v-13.412a5.366 5.366 0 0 1 10.731 0v13.412a5.366 5.366 0 1 1-10.731 0Z" data-name="Path 996"/><path d="M392.328 315.421v-13.42a5.366 5.366 0 0 1 10.731 0v13.42a5.366 5.366 0 0 1-10.731 0Z" data-name="Path 997"/><path d="M392.328 269.806v-26.824a5.366 5.366 0 0 1 10.731 0v26.824a5.366 5.366 0 1 1-10.731 0Z" data-name="Path 998"/><path d="M392.328 210.793v-13.416a5.366 5.366 0 0 1 10.731 0v13.416a5.366 5.366 0 1 1-10.731 0Z" data-name="Path 999"/></g><g fill="#323f51" stroke="#323f51" stroke-miterlimit="10" stroke-width="3" data-name="Group 616"><path d="M134.657 347.456c5.062-6.525 14.572-8.838 21.488-12.481 2.656-1.4 5.424-2.674 8.063-4.138-2.517-.493-2.466-4.571.269-4.36 1.88.148 3.756.183 5.634.239a59.483 59.483 0 0 0 6.807-7.67c-2.751-.278-2.761-4.638.055-4.419 1.16.09 2.318.09 3.476.145 2.25-2.494 4.421-5.01 6.542-7.547-.1-.007-.2 0-.3-.014-2.813-.219-2.838-4.656 0-4.436 1.259.1 2.516.1 3.772.162q2.941-3.708 5.7-7.569c-.063 0-.126 0-.19-.008-2.815-.219-2.837-4.656 0-4.435 1.043.08 2.085.078 3.127.131.992-1.491 2.005-2.956 2.956-4.5.541-.875 1.086-1.926 1.638-3.032-.107-.009-.214-.005-.322-.015-2.816-.216-2.838-4.656 0-4.436.812.064 1.623.057 2.435.1 2.415-4.975 5.251-10.206 9.3-11.962a8.5 8.5 0 0 1 1.768-.507 76.623 76.623 0 0 1 2.437-6.574 5.4 5.4 0 0 1 1.662-2.723c2.756-1.951 8.471-1.4 11.5-.733 8.882 1.944 10.353 9.913 10.81 17.838a15.586 15.586 0 0 0 7.5.38c6.506-1.451 14.773-7.215 18.263-12.722 3.171-5 1.2-13 6.346-16.527a7.57 7.57 0 0 1 1.715-.854c-4.287-5.986-1.9-15.47 6.67-16.363 3.374-.348 6.569 1.823 6.474 5.509-.058 2.187-1.705 3.678-2.706 5.438a7.367 7.367 0 0 0 1.331 8.891c.016.014.018.032.033.047 10.725 8.83 28.788 19.253 26.238 35.612 10.066 4.284 9.61 20.716 3.643 28.165-10.923 13.63-28.541 20.646-43.907 27.675-7.88 3.6-15.833 7.242-23.122 11.978-9.474 6.155-16.923 14.512-25.66 21.571-13.609 10.993-24.761 12.051-41.637 12.249-9.759.114-19.532.132-29.271-.588-6.8-.5-12.8-.674-18.091-5.394-9.416-8.41-10.27-22.028-2.446-32.123Zm-.835 15.662c11.927 7.407 30.48 6.146 43.934 4.783a66.072 66.072 0 0 0 18.14-4.569c-2.846-8.672-10.6-14.4-18.14-13.5-3.6.431-9.924 2.492-13.549 1.911-6.061-.976-13.1-3.408-16.21-8.646a29.023 29.023 0 0 0-6.048 3.76 23.687 23.687 0 0 0-8.124 16.261Zm74.535-79.611c3.081.039 7.873-.728 10.961-.925 2.836-.181 3.831.858 1 1.042-3.994.254-7.979.239-11.966.1-1.485 2.6-4.994 9.331-6.3 11.641 2.9.024 7.381.188 10.284 0 2.836-.181 3.408-.067.582.114-3.826.246-7.646.239-11.466.117-1.7 2.542-3.433 5.059-5.266 7.514.32 0-4.026 1.75-3.416 1.968a51.122 51.122 0 0 0 10.921 1.645c2.837-.181 2.772.427-.054.609-3.626.231-7.247.241-10.867.144-1.99 2.526-7.724 9.25-9.8 11.707 2.413-.009 8.532-1.357 10.947-1.512 2.839-.184 2.826 1.331 0 1.512-3.652.235-7.3.242-10.947.141-2.18 2.5-7.522 7.372-9.731 9.825 1.681-.038 6.5.108 8.182 0 2.838-.182 2.827 1.707 0 1.887-3.266.21-6.526.248-9.785.19a38.2 38.2 0 0 1-3.9 2.581c14.357 8.521 27.687-9.947 35.843-19.728 10.4-12.47 18.769-26.289 26.53-40.564-2.895-1.284-5.785-2.257-8.09-2.018-4.602.474-10.781 7.89-13.662 12.009Zm25.746-23.374c-1.9-.531-10.278-1.137-12.086-.12-1.169.659.156 4.543-.531 6.677 4.039.615 8.263 2.508 11.284 3.7 1.945.769 3.952 1.706 6 2.554-.342-5.076.995-11.229-4.664-12.812Zm41.021-.12c-1.459 4.077-5.351 5.924-8.64 8.711-7.7 6.53-16.883 12.988-26.55 9.435a64.385 64.385 0 0 1-5.831-2.754c-1.025 1.889-2.125 3.688-3.181 5.539 10.691 4.3 20.334 5.671 31.583 1.639.415-.149-.669 1.642 0 1.374 12.752-5.091 21.058-18.5 23.8-32.1a56.583 56.583 0 0 1-1.666-1.36c-6.182-5.245-7.947 5.152-9.512 9.516Zm7.231-26.56a5.857 5.857 0 0 0-.466 10.07 2.236 2.236 0 0 1 .317.336 10.192 10.192 0 0 1 .8-5.437c.567-1.2 1.623-2.136 2.165-3.327 1.079-2.37-1.035-2.576-2.814-1.642Zm7.78 21.3c-6.872 29.362-32.55 37.644-60.028 26.193-8.8 14.952-20 32.745-31.368 46.07-8.74 10.247-23.44 17.462-35.322 9.132l-1.82.939c-2.732 1.4-6.162 2.717-9.539 4.158 3.585 5.746 8.772 8.9 15.79 8.592 4.369-.192 8.509-1.524 12.923-1.063 7.224.753 16.439 5.515 19.181 12.752a114.392 114.392 0 0 0 23.878-15.716c.283-.234.544-.483.823-.717a2.241 2.241 0 0 1-.787-.974c-4.292-10.5.491-23.051 8.882-30.093 9.919-8.326 21.669-8.866 33.738-6.155a2.1 2.1 0 0 1 .9.437c13.995-8.818 28.649-16.743 43.288-24.35 2.64-12.922-10.617-21.948-20.536-29.208Zm-62.215 87.492c11.312-10.191 20.865-21.853 33.775-30.359.175-.117.359-.223.537-.339-8.786-1.541-17.085-.968-24.831 4.469-8.095 5.679-12.965 16.641-9.478 26.225Zm-85.971 35.872c6.984 5.553 13.992 4.687 22.527 4.961.369.012 1.068-.03 1.72 0 12.791.584 29.893 2.241 42.16-2.039 14.615-5.1 23.619-20.261 35.644-29.283 12.306-9.23 26.776-14.7 40.538-21.275 7.634-3.644 15.129-7.61 21.838-12.814 3.733-2.9 8.778-6.719 11.016-10.948 2.619-4.95 1.624-16.511-4.658-18.848-18.156 9.416-36.974 19.023-53.534 31.08-.32.233.526-3.327 0-2.935-16.171 12.057-29.585 32.348-46.857 43.717-12.882 8.479-26.017 12.359-41.383 13.069-11.456.531-25.614 1-36.438-4.218.819 2.584 4.966 7.568 7.435 9.529Z" data-name="Path 187"/><path d="M298.84 310.227c4.046-1.712 10.262-6.232 10.487-11.32.094-2.137 3.291-2.15 3.2 0-.3 6.792-7.349 12.213-12.833 14.536-1.909.806-2.738-2.417-.854-3.216Z" data-name="Path 188"/><path d="M291.909 314.501c2.84 0 2.846 4.436 0 4.436s-2.847-4.436 0-4.436Z" data-name="Path 189"/></g></g></svg>