<svg xmlns="http://www.w3.org/2000/svg" width="624.723" height="624.723" viewBox="0 0 624.723 624.723">
  <g id="Group_742" data-name="Group 742" transform="translate(-210.723 -1957.815)">
    <path id="Path_474" data-name="Path 474" d="M214,0h27.5c118.188,0,214,214,214,214s-95.811,214-214,214H214C95.81,428,0,332.187,0,214S95.81,0,214,0Z" transform="translate(835.446 2260.455) rotate(135)" fill="#fff"/>
    <g id="Group_681" data-name="Group 681" transform="translate(360.729 2101.486) rotate(-3)">
      <g id="Group_322" data-name="Group 322" transform="translate(0 0)">
        <g id="Group_256" data-name="Group 256" transform="translate(0 0)">
          <g id="Group_658" data-name="Group 658" transform="translate(0 0)">
            <path id="Path_419" data-name="Path 419" d="M86.908,0C62.714,4.1,5.443,1.188.5,2.748-9.255,20.014,126.91,7.423,132.488,48.929" transform="translate(62.569 302.71)" fill="none" stroke="#323f51" stroke-linecap="round" stroke-linejoin="round" stroke-width="7"/>
            <path id="Path_1048" data-name="Path 1048" d="M42.818,0c23.52,4.58,79.194,1.328,84,3.071C136.3,22.366-4.793,9.92.126,47.369" transform="translate(125.075 305.562)" fill="none" stroke="#323f51" stroke-linecap="round" stroke-linejoin="round" stroke-width="7"/>
            <path id="Path_421" data-name="Path 421" d="M.124,244.809c-.412,7.463.072,15.247,3.55,21.864,4.8,9.134,14.414,14.554,23.672,19.107,23.441,11.532,48.971,20.946,75.035,19.191s52.625-17.112,60.759-41.936c3.563-10.87,3.419-22.554,3.238-33.992l-1.514-96.656c-.646-41.087-1.471-92.59-37.08-120.462C103.162-7.348,81.541-3.035,66.556,23.235,50.431,51.5,47.371,88,38.968,118.954,27.711,160.406,2.518,201.558.124,244.809Z" transform="translate(76.001 0)" fill="none" stroke="#323f51" stroke-miterlimit="10" stroke-width="7"/>
            <path id="Path_422" data-name="Path 422" d="M28.979,86.839C17.448,76.93,9.877,65.221,3.8,48.519.684,39.968-1.531,29.734,1.312,21.006a25.73,25.73,0,0,1,10.43-13.26C27.8-3.131,29.849,8.362,46.687,0" transform="matrix(0.191, -0.982, 0.982, 0.191, 0, 199.338)" fill="none" stroke="#323f51" stroke-linecap="round" stroke-linejoin="round" stroke-width="7"/>
            <path id="Path_423" data-name="Path 423" d="M23.145,0C10.1,4.724.012,24.325,0,44.952A46.012,46.012,0,0,0,1.957,59.16c2.669,8.09,8.061,13.04,13.218,17.43,18.367,15.635,19.538-9.347,38.9,3.105" transform="translate(238.128 219.625) rotate(-81)" fill="none" stroke="#323f51" stroke-linecap="round" stroke-linejoin="round" stroke-width="7"/>
          </g>
        </g>
        <path id="Path_498" data-name="Path 498" d="M4.948,4.268a15.406,15.406,0,0,1-4.3-2.341C.008,1.444-.278.9.354.318.96-.24,1.579.022,2.148.446,6.6,3.755,11.5,3.928,16.724,1.87c.26-.1.527-.194.783-.3.645-.271,1.263-.289,1.64.286.391.6.159,1.112-.573,1.425C14.2,5.149,9.693,5.866,4.948,4.268Z" transform="matrix(-0.951, 0.309, -0.309, -0.951, 161.839, 69.905)" fill="#323f51"/>
        <path id="Path_499" data-name="Path 499" d="M4.948,4.268a15.406,15.406,0,0,1-4.3-2.341C.008,1.444-.278.9.354.318.96-.24,1.579.022,2.148.446,6.6,3.755,11.5,3.928,16.724,1.87c.26-.1.527-.194.783-.3.645-.271,1.263-.289,1.64.286.391.6.159,1.112-.573,1.425C14.2,5.149,9.693,5.866,4.948,4.268Z" transform="matrix(-0.966, -0.259, 0.259, -0.966, 214.221, 75.433)" fill="#323f51"/>
      </g>
      <path id="Path_604" data-name="Path 604" d="M12.55,5.478A9.855,9.855,0,0,0,8.1.5,2.839,2.839,0,0,0,6.412.011,2.065,2.065,0,0,0,4.774,1.532a4.036,4.036,0,0,0,.147,2.33,7.905,7.905,0,0,0,3.722,4.48c-2.36.076-8.045.978-8.6,3.89-.762,4,8.458,7.406,10.326,3.287" transform="matrix(0.891, -0.454, 0.454, 0.891, 166.153, 129.939)" fill="none" stroke="#323f51" stroke-linecap="round" stroke-miterlimit="10" stroke-width="5"/>
      <path id="Path_605" data-name="Path 605" d="M3.039,0C2.268,1.348,1.464,2.682.673,4.017A4.519,4.519,0,0,0,.828,9c1.634,2.258,6.881,4.025,8.59,4.5,5.114,1.43,5.269-3.665,6.636-6.05" transform="matrix(0.891, -0.454, 0.454, 0.891, 185.664, 99.856)" fill="none" stroke="#323f51" stroke-linecap="round" stroke-miterlimit="10" stroke-width="5"/>
      <path id="Path_606" data-name="Path 606" d="M3.039,0C2.267,1.349,1.464,2.682.673,4.017A4.515,4.515,0,0,0,.83,9c1.634,2.258,6.879,4.025,8.588,4.5,5.114,1.43,5.271-3.665,6.636-6.05" transform="matrix(0.891, -0.454, 0.454, 0.891, 152.595, 98.238)" fill="none" stroke="#323f51" stroke-linecap="round" stroke-miterlimit="10" stroke-width="5"/>
      <path id="Path_611" data-name="Path 611" d="M23.69,43.676l2.689-2.4C18.971,44.087,12.94,43.17,8.8,36.97c-5.721-8.574.874-22.056,15.129-19.7l-6.791-2.612a11.9,11.9,0,0,1,13.4-9.718A11.859,11.859,0,0,1,41.016,17.249l-6.579.558.159,3.777c2.39-.248,4.633-.466,6.874-.718,6.755-.76,13.511-1.544,20.267-2.3,1.492-.167,3.042-.218,1.917-2.634L45.408,17.018C43.99,13.2,43.214,9.373,41.267,6.277,37.894.916,32.436-.824,26.332.349,20.027,1.56,16.054,5.622,14.621,11.843c-.5,2.152-1.124,3.239-3.455,3.856A15.212,15.212,0,0,0,.387,33.854,15.385,15.385,0,0,0,17.661,45.673c1.637-.241,2.885-.6,4.234,1.179,5.232,6.9,13.687,8.4,21.074,4.058,6.356-3.741,8.895-12.123,5.965-19.676-.154-.4-.249-.818-.459-1.518,4.922-1.955,9.8-3.823,14.608-5.867.89-.378,1.477-1.47,2.2-2.232L64.5,20.7c-9.193,3.13-18.388,6.259-27.89,9.493l1.392,3.533c2.256-.8,4.283-1.513,6.284-2.219,3.038,5.58,1.034,12.081-4.707,15.674A11.858,11.858,0,0,1,23.69,43.676Z" transform="matrix(0.996, 0.087, -0.087, 0.996, 90.616, 111.833)" fill="#6c85a0"/>
    </g>
  </g>
</svg>
