<svg xmlns="http://www.w3.org/2000/svg" width="627.96" height="688.715" viewBox="0 0 627.96 688.715">
  <g id="Group_789" data-name="Group 789" transform="translate(-1946.391 -544.047)">
    <g id="Group_683" data-name="Group 683" transform="translate(265.215 -0.678)">
      <path id="Path_187" data-name="Path 187" d="M3217.345,5323.9c5.865-7.921,16.884-10.729,24.9-15.151,3.078-1.7,6.284-3.247,9.342-5.023-2.917-.6-2.857-5.549.311-5.292,2.178.18,4.353.221,6.528.29a71.259,71.259,0,0,0,7.887-9.311c-3.187-.337-3.2-5.631.063-5.365,1.344.11,2.686.11,4.028.175,2.607-3.027,5.123-6.082,7.581-9.162-.115-.009-.229-.005-.344-.016-3.26-.266-3.288-5.653,0-5.385,1.458.12,2.915.123,4.371.2q3.408-4.5,6.6-9.188c-.073-.005-.146,0-.22-.01-3.261-.266-3.288-5.652,0-5.383,1.209.1,2.415.094,3.623.159,1.149-1.81,2.323-3.588,3.425-5.465.626-1.063,1.258-2.338,1.9-3.68-.124-.011-.249-.007-.373-.019-3.263-.262-3.288-5.651,0-5.384.94.078,1.881.069,2.822.126,2.8-6.039,6.084-12.39,10.779-14.522a9.5,9.5,0,0,1,2.048-.615c.815-2.687,1.793-5.42,2.824-7.98.51-1.266.79-2.46,1.925-3.306,3.194-2.367,9.816-1.7,13.325-.889,10.291,2.36,12,12.034,12.524,21.654h0a17.263,17.263,0,0,0,8.687.462c7.538-1.762,17.117-8.759,21.16-15.444,3.674-6.072,1.393-15.786,7.353-20.063a8.618,8.618,0,0,1,1.987-1.036c-4.967-7.267-2.2-18.779,7.729-19.864,3.909-.422,7.611,2.213,7.5,6.688-.068,2.654-1.976,4.465-3.136,6.6a9.26,9.26,0,0,0,1.543,10.793c.019.017.02.039.039.057,12.427,10.72,33.356,23.373,30.4,43.231,11.663,5.2,11.135,25.148,4.221,34.191-12.656,16.546-33.069,25.063-50.873,33.6-9.13,4.376-18.345,8.792-26.791,14.541-10.977,7.471-19.608,17.618-29.731,26.186-15.768,13.346-28.689,14.63-48.243,14.87-11.308.138-22.631.161-33.916-.714-7.879-.611-14.837-.818-20.961-6.548C3209.265,5352.692,3208.275,5336.161,3217.345,5323.9Zm-.968,19.013c13.82,8.992,35.316,7.46,50.9,5.806a73.771,73.771,0,0,0,21.018-5.547c-3.3-10.527-12.284-17.478-21.018-16.385-4.171.523-11.5,3.024-15.7,2.319-7.023-1.184-15.177-4.137-18.782-10.5a33.457,33.457,0,0,0-7.007,4.564A29.266,29.266,0,0,0,3216.377,5342.918Zm86.36-96.645c3.57.047,9.122-.882,12.7-1.122,3.286-.219,4.438,1.042,1.164,1.264a132.934,132.934,0,0,1-13.864.116c-1.72,3.158-5.787,11.327-7.3,14.131,3.359.03,8.552.229,11.916,0,3.286-.219,3.949-.081.674.139a131.824,131.824,0,0,1-13.286.142c-1.969,3.085-3.978,6.142-6.1,9.121.371,0-4.664,2.125-3.958,2.389,2.183.758,10.145,2.165,12.653,2,3.287-.22,3.211.518-.063.74-4.2.281-8.4.292-12.591.174-2.306,3.067-8.95,11.229-11.358,14.212,2.8-.012,9.886-1.647,12.684-1.836,3.289-.223,3.275,1.617,0,1.836-4.231.285-8.458.293-12.684.171-2.526,3.034-8.716,8.948-11.275,11.926,1.948-.046,7.53.131,9.481,0,3.288-.221,3.276,2.072,0,2.291-3.784.254-7.562.3-11.338.23a44.044,44.044,0,0,1-4.524,3.133c16.635,10.344,32.08-12.076,41.529-23.949,12.049-15.138,21.747-31.913,30.74-49.243-3.354-1.559-6.7-2.741-9.374-2.449C3313.232,5232.27,3306.073,5241.272,3302.738,5246.273Zm29.832-28.375c-2.2-.645-11.908-1.38-14-.145-1.354.8.181,5.515-.615,8.105,4.68.746,9.574,3.044,13.074,4.5,2.253.934,4.58,2.071,6.954,3.1C3337.576,5227.289,3339.125,5219.82,3332.569,5217.9Zm47.529-.145c-1.691,4.949-6.2,7.191-10.011,10.575-8.922,7.926-19.562,15.767-30.762,11.453a72.926,72.926,0,0,1-6.756-3.343c-1.187,2.292-2.462,4.477-3.686,6.723,12.387,5.215,23.56,6.885,36.594,1.99.48-.181-.775,1.994,0,1.667,14.776-6.181,24.4-22.453,27.576-38.961-.672-.558-1.326-1.11-1.93-1.651C3383.96,5199.834,3381.911,5212.456,3380.1,5217.753Zm8.379-32.243c-4.665,2.573-4.739,9.108-.54,12.225a2.649,2.649,0,0,1,.367.409,12.9,12.9,0,0,1,.926-6.6c.657-1.46,1.88-2.593,2.509-4.039C3392.986,5184.628,3390.537,5184.376,3388.477,5185.51Zm9.014,25.854c-7.962,35.645-37.714,45.7-69.552,31.8-10.2,18.151-23.176,39.75-36.345,55.927-10.127,12.44-27.159,21.2-40.926,11.086-.7.379-1.385.751-2.109,1.14-3.165,1.7-7.14,3.3-11.052,5.048,4.154,6.976,10.163,10.806,18.295,10.431,5.063-.234,9.859-1.851,14.974-1.291,8.37.915,19.048,6.694,22.224,15.479,9.857-4.874,18.962-11.525,27.667-19.078.328-.283.631-.585.954-.871a2.7,2.7,0,0,1-.912-1.182c-4.973-12.745.569-27.983,10.291-36.531,11.492-10.107,25.107-10.763,39.09-7.472a2.377,2.377,0,0,1,1.041.531c16.215-10.705,33.194-20.326,50.156-29.56C3424.344,5231.135,3408.986,5220.178,3397.491,5211.364Zm-72.085,106.211c13.106-12.371,24.176-26.529,39.133-36.854.2-.142.416-.27.622-.411-10.18-1.871-19.8-1.175-28.77,5.425C3327.008,5292.633,3321.365,5305.94,3325.405,5317.575Zm-99.611,43.547c8.092,6.741,16.212,5.69,26.1,6.022.428.014,1.237-.036,1.993,0,14.82.709,34.636,2.721,48.849-2.475,16.934-6.191,27.367-24.6,41.3-35.549,14.258-11.205,31.024-17.846,46.969-25.826,8.845-4.423,17.53-9.238,25.3-15.556,4.325-3.515,10.171-8.156,12.763-13.29,3.035-6.009,1.882-20.043-5.4-22.881-21.037,11.431-42.84,23.094-62.028,37.729-.371.283.609-4.039,0-3.562-18.737,14.637-34.279,39.269-54.291,53.07-14.926,10.294-30.146,15-47.949,15.866-13.274.645-29.678,1.209-42.219-5.12C3218.134,5352.69,3222.938,5358.741,3225.794,5361.122Z" transform="translate(-1128.008 -4310.849)" fill="#323f51" stroke="#323f51" stroke-miterlimit="10" stroke-width="3"/>
      <path id="Path_188" data-name="Path 188" d="M3219.425,5252.45c7.107-3.008,18.027-10.948,18.421-19.885.166-3.754,5.782-3.777,5.614,0-.526,11.932-12.909,21.454-22.542,25.533C3217.57,5259.516,3216.114,5253.854,3219.425,5252.45Z" transform="translate(-954.334 -4281.89)" fill="#323f51" stroke="#323f51" stroke-miterlimit="10" stroke-width="3"/>
      <path id="Path_189" data-name="Path 189" d="M3237.3,5245.468c4.988,0,5,7.792,0,7.792S3232.3,5245.468,3237.3,5245.468Z" transform="translate(-984.046 -4273.774)" fill="#323f51" stroke="#323f51" stroke-miterlimit="10" stroke-width="3"/>
    </g>
    <g id="Group_682" data-name="Group 682" transform="translate(2131.656 995.057) rotate(-90)">
      <path id="Path_990" data-name="Path 990" d="M28.307,16.181H8.084A8.09,8.09,0,0,1,8.084,0H28.307a8.09,8.09,0,1,1,0,16.181Z" transform="translate(186.064 42.476)" fill="#6c85a0"/>
      <path id="Path_991" data-name="Path 991" d="M39.621,16.181H8.1A8.09,8.09,0,1,1,8.1,0H39.621a8.09,8.09,0,0,1,0,16.181Z" transform="translate(116.701 42.476)" fill="#6c85a0"/>
      <path id="Path_992" data-name="Path 992" d="M28.318,16.181H8.1A8.09,8.09,0,1,1,8.1,0H28.318a8.09,8.09,0,1,1,0,16.181Z" transform="translate(58.638 42.476)" fill="#6c85a0"/>
      <path id="Path_993" data-name="Path 993" d="M111.236,216.407a8.206,8.206,0,0,1-3.512-.79,8.1,8.1,0,0,1-4.584-7.295V173.947H8.084a8.09,8.09,0,0,1,0-16.18H111.236a8.083,8.083,0,0,1,8.084,8.084v25.655l104.342-83.295L119.32,24.905V50.572a8.082,8.082,0,0,1-8.084,8.084H8.084a8.09,8.09,0,0,1,0-16.18H103.14V8.1a8.093,8.093,0,0,1,13.14-6.328l125.4,100.123a8.081,8.081,0,0,1,0,12.633L116.28,214.639A8,8,0,0,1,111.236,216.407Z" transform="translate(206.289 0)" fill="#6c85a0"/>
      <path id="Path_994" data-name="Path 994" d="M28.318,16.18H8.1A8.09,8.09,0,1,1,8.1,0H28.318a8.09,8.09,0,1,1,0,16.18Z" transform="translate(58.638 157.766)" fill="#6c85a0"/>
      <path id="Path_995" data-name="Path 995" d="M39.621,16.18H8.1A8.09,8.09,0,1,1,8.1,0H39.621a8.09,8.09,0,0,1,0,16.18Z" transform="translate(116.701 157.766)" fill="#6c85a0"/>
      <path id="Path_996" data-name="Path 996" d="M28.307,16.18H8.084A8.09,8.09,0,0,1,8.084,0H28.307a8.09,8.09,0,1,1,0,16.18Z" transform="translate(186.064 157.766)" fill="#6c85a0"/>
      <path id="Path_997" data-name="Path 997" d="M28.319,16.18H8.085A8.09,8.09,0,0,1,8.085,0H28.319a8.09,8.09,0,0,1,0,16.18Z" transform="translate(157.751 100.115)" fill="#6c85a0"/>
      <path id="Path_998" data-name="Path 998" d="M48.529,16.18H8.084A8.09,8.09,0,0,1,8.084,0H48.529a8.09,8.09,0,1,1,0,16.18Z" transform="translate(68.762 100.115)" fill="#6c85a0"/>
      <path id="Path_999" data-name="Path 999" d="M28.307,16.18H8.084A8.09,8.09,0,0,1,8.084,0H28.307a8.09,8.09,0,1,1,0,16.18Z" transform="translate(0 100.115)" fill="#6c85a0"/>
    </g>
    <path id="Path_1071" data-name="Path 1071" d="M1354.61,792.108c-6.732,1.721-30.337-9.9-36.6-10.953-50.1-8.45-67.326-11.95-117.31-21.068-30.985-5.649-92.877-13.946-127.086-20.163,11.123,12.456,25.764,37,33.787,48.361,16.645,23.563,48.154,32.135,77.324,27.18,9.92-1.685,21.59-1.467,26.112,10.109,5.552,14.207,6.793,29.583-1.816,42.975-2.859,4.447-11.009,7.719-16.759,7.752-86.126.482-172.255.349-258.381.277a24.543,24.543,0,0,1-8.955-1.4c-11.6-4.672-16.775-22.086-12.511-42.235,2.53-11.954,9.975-18.135,22.454-17.717a24.883,24.883,0,0,1,3.948.029c31.725,6.363,59.477,7.1,77.515-18.356,9.287-13.1,34-42.926,46.723-56.969-20.289-3.811-58.423-14.766-76.623-18.1-71.085-13-143.049-19.382-214.1-32.564-4.886-.906-6.394,2.008-11.075,0V681.35c5.614-1.917,11.647-6.272,16.775-5.382,76.242,13.216,152.37,27.09,228.514,40.875q163.921,29.681,327.8,59.62c6.992,1.284,13.519,5.1,20.263,7.732Zm-162.345,37.177c-27.443-21.373-235.221-1.352-258.381-3.711s-4.847,42.975-4.847,42.975,258.8,11.3,267.377-4.423,0-3.672,0-3.672S1219.708,850.657,1192.266,829.284Zm-75.655-14.762-53.553-58.4-53.257,58.4Z" transform="translate(1185.133 356.111)" fill="#27303e"/>
  </g>
</svg>
