<svg xmlns="http://www.w3.org/2000/svg" width="527.464" height="702.478" viewBox="0 0 527.464 702.478">
  <g id="Group_692" data-name="Group 692" transform="translate(16735.001 -3056.867)">
    <path id="Path_816" data-name="Path 816" d="M-976.144,187.328" transform="translate(-15590.074 3092.745)" fill="none" stroke="#323f51" stroke-width="1"/>
    <path id="Path_817" data-name="Path 817" d="M-922.718,262.108c-.7,56.252-1.4,94.121-2.1,150.377a296.56,296.56,0,0,1-57.764,1.081" transform="translate(-15611.372 3340.057)" fill="none" stroke="#323f51" stroke-linecap="round" stroke-linejoin="round" stroke-width="8"/>
    <path id="Path_818" data-name="Path 818" d="M-940.167,262.451c-2.627,53.958-2.7,90.2-.228,144.162a137.812,137.812,0,0,1,58.074.823" transform="translate(-15475.27 3347.11)" fill="none" stroke="#323f51" stroke-linecap="round" stroke-linejoin="round" stroke-width="8"/>
    <path id="Path_819" data-name="Path 819" d="M-838.261,191.7c31.636,19.809,52.414,43.218,69.1,76.612,8.541,17.1,14.619,37.559,6.819,55-5.419,12.116-16.721,20.64-28.622,26.511-44.054,21.747-97.472,13.115-143.671,29.827" transform="translate(-15452.81 3107.214)" fill="none" stroke="#323f51" stroke-linecap="round" stroke-linejoin="round" stroke-width="8"/>
    <g id="Group_551" data-name="Group 551" transform="translate(-16535.877 3206.239)">
      <path id="Path_200" data-name="Path 200" d="M0,.481C.151,15.862,49.71,15.384,49.559,0" transform="translate(49.559 11.78) rotate(180)" fill="none" stroke="#323f51" stroke-linecap="round" stroke-linejoin="round" stroke-width="5"/>
      <path id="Path_201" data-name="Path 201" d="M0,.481C.151,15.862,49.707,15.384,49.557,0" transform="translate(129.252 11.78) rotate(180)" fill="none" stroke="#323f51" stroke-linecap="round" stroke-linejoin="round" stroke-width="5"/>
      <path id="Path_202" data-name="Path 202" d="M0,.55C18.79,15.361,39.663,11.975,56.762,0" transform="translate(65.033 66.508) rotate(-180)" fill="none" stroke="#323f51" stroke-linecap="round" stroke-linejoin="round" stroke-width="5"/>
    </g>
    <path id="Path_1073" data-name="Path 1073" d="M-16633.566,3585.5h154.84v61.021h-158.836Z" transform="translate(-34.368 -192.603)" fill="#7ed6ad" stroke="#323f51" stroke-linejoin="round" stroke-width="4"/>
    <path id="Path_1079" data-name="Path 1079" d="M-16631.24,3585.5h154.84v61.021l-102.785-1.521-32.992-24.154Z" transform="translate(-36.693 -69.959)" fill="#7ed6ad" stroke="#323f51" stroke-linejoin="round" stroke-width="4"/>
    <path id="Path_1074" data-name="Path 1074" d="M-16631.24,3585.5h154.84v61.021h-154.84Z" transform="translate(40.434 -253.925)" fill="#7ed6ad" stroke="#323f51" stroke-linejoin="round" stroke-width="4"/>
    <path id="Path_1082" data-name="Path 1082" d="M-16598.9,3585.5h134.4v33.511l-12.9-1.622-19.615-2.267-22.586-2.96-26.762-6.275Z" transform="translate(-13.817 -8.637)" fill="none" stroke="#323f51" stroke-linejoin="round" stroke-width="4"/>
    <path id="Path_1077" data-name="Path 1077" d="M-16631.24,3587.263l154.84-1.767v61.021h-154.84Z" transform="translate(40.434 -131.281)" fill="#7ed6ad" stroke="#323f51" stroke-linejoin="round" stroke-width="4"/>
    <path id="Path_1075" data-name="Path 1075" d="M-16629.77,3585.5h153.369v41.52l-17.223,2.5-10.182,17-19.945-7.52-19.912,7.52h-87.578Z" transform="translate(118.192 -192.603)" fill="#efdc74" stroke="#323f51" stroke-linejoin="round" stroke-width="4"/>
    <path id="Path_1080" data-name="Path 1080" d="M-16628.721,3585.5h152.32v41.52l-37.707,1.454s-.285,2.022-20.973,6.534c-1.2.262-8.508-10.9-10.027-10.578-21.328,4.452-51.752,22.092-51.752,22.092h-34.381Z" transform="translate(118.192 -69.959)" fill="#cc5858" stroke="#323f51" stroke-linejoin="round" stroke-width="4"/>
    <path id="Path_1081" data-name="Path 1081" d="M-16631.24,3585.5h107.438l3.3,17.547,16.174,15.3-9.775,10.131s-.285,2.022-20.973,6.534c-1.2.262-7.381,11.514-7.381,11.514h-88.779Z" transform="translate(195.951 -131.281)" fill="#cc5858" stroke="#323f51" stroke-linejoin="round" stroke-width="4"/>
    <path id="Path_1076" data-name="Path 1076" d="M-16631.24,3585.5h147.744l2.438,42.7v18.322h-150.182Z" transform="translate(197.454 -253.925)" fill="#7ed6ad" stroke="#323f51" stroke-linejoin="round" stroke-width="4"/>
    <path id="Path_815" data-name="Path 815" d="M-944.9,192.036c-39.161,9.217-69.467,47.444-69.505,87.677-.009,9.528,1.56,19.21,5.875,27.708,8.015,15.777,24.211,25.43,39.7,34a1728.016,1728.016,0,0,0,170.143,82.25" transform="translate(-15716.6 3108.315)" fill="none" stroke="#323f51" stroke-linecap="round" stroke-linejoin="round" stroke-width="8"/>
    <path id="Path_814" data-name="Path 814" d="M-861.953,149.532c-44.748,24.81-71.874,72.357-91.1,119.775a655.051,655.051,0,0,0-46.613,284.22c1.12,18.611,3.183,37.692,11.742,54.258,10.863,21.028,31.081,35.728,52.272,46.272,40.221,20.011,85.567,27.583,130.427,30,38.136,2.05,77.305.383,112.892-13.477s67.347-41.547,78.456-78.085c6.577-21.626,5.66-44.722,4.682-67.3q-1.441-33.344-2.886-66.688c-2.576-59.521-5.345-120.094-25.344-176.216s-60.2-108.158-116.54-127.536c-17.936-6.172-39.795-20.739-58.509-17.655-40.647,6.693-21.346,2.416-49.481,12.443" transform="translate(-15671.695 2925.19)" fill="none" stroke="#323f51" stroke-miterlimit="10" stroke-width="10"/>
  </g>
</svg>
