<svg xmlns="http://www.w3.org/2000/svg" width="399.071" height="399.071" viewBox="0 0 399.071 399.071">
  <g id="Group_779" data-name="Group 779" transform="translate(-195.379 -1884.809)">
    <path id="Path_1121" data-name="Path 1121" d="M136.7,0h17.565c75.5,0,136.7,136.7,136.7,136.7s-61.2,136.7-136.7,136.7H136.7A136.7,136.7,0,1,1,136.7,0Z" transform="translate(594.45 2078.135) rotate(135)" fill="#fff"/>
    <g id="Group_734" data-name="Group 734" transform="translate(-1823.556 322.525) rotate(1)">
      <g id="Group_545" data-name="Group 545" transform="translate(2179.089 1648.682)">
        <g id="Group_542" data-name="Group 542" transform="translate(14.971 82.358)">
          <path id="Path_806" data-name="Path 806" d="M2247.5,1766.3l-19.364,65.785a3.38,3.38,0,0,1-6.488,0l-19.364-65.785" transform="translate(-2202.285 -1766.297)" fill="#fff6d5" stroke="#323f51" stroke-linecap="round" stroke-linejoin="round" stroke-width="5"/>
        </g>
        <g id="Group_544" data-name="Group 544" transform="translate(0 0)">
          <g id="Group_543" data-name="Group 543">
            <path id="Path_807" data-name="Path 807" d="M2248.284,1704.974a36.163,36.163,0,0,0,4.715-17.907c0-19.764-7.847-37.039-27.579-37.519l-6.345-.867s-9.729,1.861-10.03,1.861c-22.027,3.965-29.956,16.46-29.956,36.525a30.213,30.213,0,0,0,4.521,16.3c-2.788,2.774-3.073,8.224-3.073,12.467a34.215,34.215,0,0,0,46.538,11.232,15.313,15.313,0,0,0,21.209-22.088Z" transform="translate(-2179.089 -1648.682)" fill="none" stroke="#323f51" stroke-linecap="round" stroke-linejoin="round" stroke-width="5"/>
          </g>
        </g>
      </g>
      <line id="Line_28" data-name="Line 28" y1="8.773" x2="18.256" transform="translate(2196.643 1731.04)" fill="none" stroke="#323f51" stroke-linecap="round" stroke-linejoin="round" stroke-width="5"/>
      <line id="Line_29" data-name="Line 29" y1="8.773" x2="18.256" transform="translate(2200.947 1741.633)" fill="none" stroke="#323f51" stroke-linecap="round" stroke-linejoin="round" stroke-width="5"/>
      <line id="Line_30" data-name="Line 30" y1="8.773" x2="18.256" transform="translate(2205.251 1752.227)" fill="none" stroke="#323f51" stroke-linecap="round" stroke-linejoin="round" stroke-width="5"/>
      <line id="Line_31" data-name="Line 31" y1="8.773" x2="18.256" transform="translate(2208.103 1762.82)" fill="none" stroke="#323f51" stroke-linecap="round" stroke-linejoin="round" stroke-width="5"/>
      <line id="Line_32" data-name="Line 32" y1="7.608" x2="15.831" transform="translate(2210.075 1776.46)" fill="none" stroke="#323f51" stroke-linecap="round" stroke-linejoin="round" stroke-width="5"/>
      <line id="Line_33" data-name="Line 33" x2="18.105" y2="61.249" transform="translate(2203.76 1728.942)" fill="none" stroke="#323f51" stroke-linecap="round" stroke-linejoin="round" stroke-width="5"/>
    </g>
    <g id="Group_736" data-name="Group 736" transform="translate(-1743.642 342.378) rotate(1)">
      <g id="Group_545-2" data-name="Group 545" transform="translate(2179.089 1648.682)">
        <g id="Group_542-2" data-name="Group 542" transform="translate(14.971 82.358)">
          <path id="Path_806-2" data-name="Path 806" d="M2247.5,1766.3l-19.364,65.785a3.38,3.38,0,0,1-6.488,0l-19.364-65.785" transform="translate(-2202.285 -1766.297)" fill="#fff6d5" stroke="#323f51" stroke-linecap="round" stroke-linejoin="round" stroke-width="5"/>
        </g>
        <g id="Group_544-2" data-name="Group 544" transform="translate(0 0)">
          <g id="Group_543-2" data-name="Group 543">
            <path id="Path_807-2" data-name="Path 807" d="M2248.284,1704.974a36.163,36.163,0,0,0,4.715-17.907c0-19.764-7.847-37.039-27.579-37.519l-6.345-.867s-9.729,1.861-10.03,1.861c-22.027,3.965-29.956,16.46-29.956,36.525a30.213,30.213,0,0,0,4.521,16.3c-2.788,2.774-3.073,8.224-3.073,12.467a34.215,34.215,0,0,0,46.538,11.232,15.313,15.313,0,0,0,21.209-22.088Z" transform="translate(-2179.089 -1648.682)" fill="none" stroke="#323f51" stroke-linecap="round" stroke-linejoin="round" stroke-width="5"/>
          </g>
        </g>
      </g>
      <line id="Line_28-2" data-name="Line 28" y1="8.773" x2="18.256" transform="translate(2196.643 1731.04)" fill="none" stroke="#323f51" stroke-linecap="round" stroke-linejoin="round" stroke-width="5"/>
      <line id="Line_29-2" data-name="Line 29" y1="8.773" x2="18.256" transform="translate(2200.947 1741.633)" fill="none" stroke="#323f51" stroke-linecap="round" stroke-linejoin="round" stroke-width="5"/>
      <line id="Line_30-2" data-name="Line 30" y1="8.773" x2="18.256" transform="translate(2205.251 1752.227)" fill="none" stroke="#323f51" stroke-linecap="round" stroke-linejoin="round" stroke-width="5"/>
      <line id="Line_31-2" data-name="Line 31" y1="8.773" x2="18.256" transform="translate(2208.103 1762.82)" fill="none" stroke="#323f51" stroke-linecap="round" stroke-linejoin="round" stroke-width="5"/>
      <line id="Line_32-2" data-name="Line 32" y1="7.608" x2="15.831" transform="translate(2210.075 1776.46)" fill="none" stroke="#323f51" stroke-linecap="round" stroke-linejoin="round" stroke-width="5"/>
      <line id="Line_33-2" data-name="Line 33" x2="18.105" y2="61.249" transform="translate(2203.76 1728.942)" fill="none" stroke="#323f51" stroke-linecap="round" stroke-linejoin="round" stroke-width="5"/>
    </g>
    <g id="Group_735" data-name="Group 735" transform="translate(409.64 2047.721) rotate(90)">
      <g id="Group_80" data-name="Group 80" transform="translate(0 0)">
        <path id="Path_294" data-name="Path 294" d="M10.048,6.112,93.038.029c5-.367,8.634,2.79,8.113,7.051s-5,8.012-10,8.379L8.163,21.543c-5,.367-8.634-2.79-8.113-7.051S5.047,6.479,10.048,6.112Z" transform="translate(56.591 106.144) rotate(-124)" fill="#903"/>
        <path id="Path_295" data-name="Path 295" d="M9.856.029,110.135,6.158c6.043.369,11.456,4.121,12.089,8.379s-3.752,7.411-9.8,7.042L12.15,15.45C6.107,15.081.694,11.33.061,7.071S3.813-.34,9.856.029Z" transform="matrix(-0.384, 0.923, -0.923, -0.384, 71.933, 8.303)" fill="#903"/>
      </g>
    </g>
  </g>
</svg>
