<svg width="371.239" height="362.019" xmlns="http://www.w3.org/2000/svg"><g data-name="Group 778"><path fill="#fff" d="m124.751 59.69 16.026-6.804c68.898-29.25 177.713 71.79 177.713 71.79s-2.89 148.457-71.788 177.707l-16.025 6.804a135.528 135.528 0 1 1-105.922-249.5Z" data-name="Path 1117"/><g fill="#323f51" stroke="#323f51" stroke-width="2" data-name="Group 82"><path d="M224.94 138.597c-6.9-2.619-13.411-2.179-19.822-.657.38-.406.807-.759 1.166-1.2a34.995 34.995 0 0 0 5.988-32.069 2.148 2.148 0 0 0-.274-.479 1.8 1.8 0 0 0-2.032-1.768 41.75 41.75 0 0 0-35.909 28.771c-3.752-11.19-12.089-21.609-20.889-28.145a1.677 1.677 0 0 0-1.812-.225 1.941 1.941 0 0 0-.181.1 2.14 2.14 0 0 0-.356.266 2.364 2.364 0 0 0-.26.194c-3.356 3.766-5.1 9.385-6.383 14.149a1.933 1.933 0 0 0 .451 1.892 2.041 2.041 0 0 0 1.053.757 36.009 36.009 0 0 1 24.22 24.958c-13.295-2.216-24.618-10.609-39.007-8.822-13.875 1.724-24.677 11.3-30.439 23.76-14.866 32.128 2.277 70.682 23.247 95.975 10.981 13.246 21.188 11.8 36.229 6.813 10.9-3.617 18.3-1.529 28.9 1.132 5.879 1.474 12.483 3.013 18.576 2.052 14.605-2.3 24.026-20.058 29.283-32.188 7.74-17.861 13.716-36.206 13.146-55.89-.473-16.314-8.869-33.293-24.895-39.376Zm-16.537-31.654c2.686 9.415.385 21.252-6.558 28.338-6.409 6.542-16.269 8.747-25.166 10.034a1.962 1.962 0 0 0 .072-.568c-1.358-18.461 13.31-35.467 31.652-37.804Zm-59.551 9.864a31.152 31.152 0 0 1 3.676-8.821c8.092 6.56 15.584 17.012 18.246 27.649a40.454 40.454 0 0 0-21.919-18.828Zm68.211 139.278c-14.323 13.377-30.271-.848-46.3-.181-7.667.316-14.416 4.329-21.725 6.147-13.074 3.257-20.781-6.187-27.284-16.045-10.99-16.653-21.151-34.7-22.446-55.029-1.3-20.369 7.572-45.9 30.143-50.076 16.171-2.99 28.547 7.812 43.917 8.974a2 2 0 0 0 .927.083 46.946 46.946 0 0 0 13.01-2.365 53.058 53.058 0 0 0 6.006-1.973c9.108-3.14 18.142-6.414 27.613-3.828 25.733 7.027 27.26 39.035 22.39 60.411-4.179 18.333-12.238 40.795-26.251 53.882Z" data-name="Path 183"/><path d="M134.261 153.534c-14.537 5.986-21.888 24.309-19.436 39.091.451 2.727 4.6 1.57 4.152-1.145-2.02-12.188 4.246-28.779 16.431-33.794 2.528-1.042 1.418-5.213-1.147-4.152Z" data-name="Path 184"/><path d="M117.684 201.526c-2.771 0-2.774 4.306 0 4.306s2.777-4.306 0-4.306Z" data-name="Path 185"/></g></g></svg>