<svg xmlns="http://www.w3.org/2000/svg" width="371.239" height="362.019" viewBox="0 0 371.239 362.019">
  <g id="Group_777" data-name="Group 777" transform="translate(-214.055 -1291.619)">
    <path id="Path_1116" data-name="Path 1116" d="M135.452,0h17.4c74.808,0,135.452,135.452,135.452,135.452S227.664,270.9,152.856,270.9h-17.4a135.452,135.452,0,1,1,0-270.9Z" transform="matrix(0.921, -0.391, 0.391, 0.921, 214.055, 1404.27)" fill="#fff"/>
    <g id="Group_725" data-name="Group 725" transform="translate(-1048.803 -1039.668) rotate(-1)">
      <path id="Path_1090" data-name="Path 1090" d="M10982.691-12772.162s38.552,65.93,46.977,64.019,51.142-60.646,51.142-60.646-12.237-17.448-49-19.056S10982.691-12772.162,10982.691-12772.162Z" transform="translate(-9623.799 15255.249)" fill="#903"/>
      <path id="Path_1092" data-name="Path 1092" d="M0,18.726S29.836,70.464,38.834,73.688s76.573,30.8,76.573,30.8,11.884-32.468.642-61.23C105.671,16.7,71.365-1.582,53.872.108,17.351,3.636,0,18.726,0,18.726Z" transform="matrix(-0.848, -0.53, 0.53, -0.848, 1396.601, 2636.248)" fill="#7ec8d6"/>
      <path id="Path_1093" data-name="Path 1093" d="M.992,6.56S33.508,74.979,42.506,78.2s61.7,18.239,61.7,18.239,12.456-21.238,1.215-50C95.044,19.889,45.965-1.6,28.471.093-8.05,3.621.992,6.56.992,6.56Z" transform="translate(1468.006 2490.117) rotate(71)" fill="#e79e17"/>
      <g id="Group_694" data-name="Group 694" transform="translate(1288.175 2466.331)">
        <g id="Group_693" data-name="Group 693" transform="translate(32.796 0)">
          <g id="Group_540" data-name="Group 540" transform="translate(0)">
            <path id="Path_793" data-name="Path 793" d="M-81.09,294.574c-3.328,27.132-13.505,70.387-90.283,61.681s-76.056-82.963-52.87-113.5,69.107-57.817,120.832-21.64C-76.7,239.8-79.032,277.8-81.09,294.574Z" transform="translate(238.652 -203.34)" fill="none" stroke="#323f51" stroke-width="2"/>
            <path id="Path_794" data-name="Path 794" d="M-236.8,270.025c2.325-10.831,6.674-20.515,12.077-27.631,24.446-32.2,70.975-57.215,121.655-21.769,19.074,13.34,26.878,38.937,22.574,74.022h0c-1.707,13.922-5.268,31.575-17.76,44.623-14.831,15.492-39.454,21.408-73.187,17.582-38.337-4.347-54.578-24.415-61.453-40.486C-239.4,301.156-239.92,284.558-236.8,270.025ZM-81.686,294.5c4.248-34.617-3.383-59.823-22.069-72.891-49.981-34.958-95.885-10.26-120.009,21.511-12.142,15.989-19.079,46.928-8.023,72.773,6.749,15.777,22.719,35.482,60.483,39.765,71.786,8.14,85.6-28.411,89.617-61.157Z" transform="translate(238.651 -203.34)" fill="none" stroke="#323f51" stroke-width="2"/>
          </g>
          <path id="Path_795" data-name="Path 795" d="M-193.48,219.495a.6.6,0,0,1,.275-.387A78.867,78.867,0,0,1-166.2,208.652c13.911-2.5,27.978-.786,41.853,5.1q1.181.5,2.369,1.047a.606.606,0,0,1,.3.8.6.6,0,0,1-.8.3c-14.409-6.619-29.048-8.657-43.508-6.057a77.678,77.678,0,0,0-26.6,10.3.6.6,0,0,1-.826-.2A.594.594,0,0,1-193.48,219.495Z" transform="translate(238.705 -203.336)" fill="none" stroke="#323f51" stroke-width="2"/>
          <path id="Path_796" data-name="Path 796" d="M-219.734,328.579a.6.6,0,0,1,.2-.331.6.6,0,0,1,.847.07,59.6,59.6,0,0,0,18.524,14.528.61.61,0,0,1,.261.809.6.6,0,0,1-.808.26A60.816,60.816,0,0,1-219.6,329.1.6.6,0,0,1-219.734,328.579Z" transform="translate(238.673 -203.19)" fill="none" stroke="#323f51" stroke-width="2"/>
          <path id="Path_797" data-name="Path 797" d="M-136.815,351.588a.6.6,0,0,1,.495-.468,78.031,78.031,0,0,0,10.156-2.255.6.6,0,0,1,.746.405.6.6,0,0,1-.405.747,79.176,79.176,0,0,1-10.312,2.29.6.6,0,0,1-.686-.5A.612.612,0,0,1-136.815,351.588Z" transform="translate(238.773 -203.166)" fill="none" stroke="#323f51" stroke-width="2"/>
          <path id="Path_798" data-name="Path 798" d="M-109.4,341.095a.6.6,0,0,1,.236-.361,48.03,48.03,0,0,0,5.916-5.035,48.255,48.255,0,0,0,4.779-5.6.6.6,0,0,1,.84-.131.6.6,0,0,1,.131.839,49.222,49.222,0,0,1-4.9,5.742,49.007,49.007,0,0,1-6.064,5.164.6.6,0,0,1-.838-.137A.6.6,0,0,1-109.4,341.095Z" transform="translate(238.806 -203.189)" fill="none" stroke="#323f51" stroke-width="2"/>
          <path id="Path_799" data-name="Path 799" d="M-107.205,224.287a.621.621,0,0,1,.1-.218.6.6,0,0,1,.837-.148c13.143,9.193,20.586,24.332,22.123,45a.6.6,0,0,1-.555.644.6.6,0,0,1-.643-.555c-1.51-20.287-8.783-35.125-21.615-44.1A.6.6,0,0,1-107.205,224.287Z" transform="translate(238.808 -203.316)" fill="none" stroke="#323f51" stroke-width="2"/>
          <path id="Path_800" data-name="Path 800" d="M-231.294,265.607A51.806,51.806,0,0,1-223.8,249.59c1.231-1.854,2.616-3.765,4.117-5.681l.945.741c-1.481,1.891-2.847,3.777-4.062,5.606a50.625,50.625,0,0,0-7.325,15.636Z" transform="translate(238.66 -203.292)" fill="none" stroke="#323f51" stroke-width="2"/>
          <path id="Path_801" data-name="Path 801" d="M-213.364,236.529a118.3,118.3,0,0,1,9.344-9.045l.772.921c-.041.035-9.236,8.943-9.236,8.943Z" transform="translate(238.681 -203.311)" fill="none" stroke="#323f51" stroke-width="2"/>
        </g>
        <path id="Path_1085" data-name="Path 1085" d="M3173.014,129.533v17.292c0,.713,0,.705.691.7,1.223-.006,2.448-.015,3.671.01.367.007.485-.1.522-.467.129-1.29.084-2.585.145-3.877.139-2.974.179-5.953.27-8.929q.148-4.863.314-9.725c.1-3.188.193-6.377.322-9.564.036-.885.071-1.771.088-2.656a1.364,1.364,0,0,1,1.269-1.523,2.6,2.6,0,0,1,1.767.432c.231.119.192.4.2.627.021,1.116.044,2.232.085,3.348.083,2.232.077,4.468.153,6.7.134,3.986.223,7.972.325,11.959.067,2.622.169,5.243.206,7.866.025,1.806.126,3.612.186,5.418.008.272.062.414.393.407,1.312-.028,2.624-.023,3.936-.03.736,0,.738,0,.738-.742q0-17.24,0-34.48c0-.867.223-1.2.983-1.463a1.685,1.685,0,0,1,1.781.526.739.739,0,0,1,.162.439q.266,3.684.538,7.366c.2,2.6.407,5.191.6,7.787.163,2.191.3,4.382.465,6.572.193,2.6.4,5.192.6,7.787.131,1.766.2,3.538.372,5.3a11.039,11.039,0,0,1-.932,5.49A11.337,11.337,0,0,1,3189,156.96a9.451,9.451,0,0,0-4,5.928,15.883,15.883,0,0,0-.133,4.135c.084,1.577.06,3.154.146,4.73.11,2.016.083,4.041.15,6.06q.191,5.739.33,11.48c.06,2.409.142,4.819.21,7.228q.163,5.687.322,11.374.1,3.641.21,7.281.173,5.66.321,11.321c.068,2.481.154,4.961.21,7.442.076,3.313.239,6.625.286,9.938a6.414,6.414,0,0,1-5.836,6.467,6.35,6.35,0,0,1-6.818-5.4,27.852,27.852,0,0,1-.01-4.835c.036-1.275.121-2.548.158-3.823.09-3.136.157-6.273.248-9.41q.2-6.856.42-13.712.155-5.022.315-10.045.164-5.261.322-10.523.16-5.208.324-10.415c.106-3.437.2-6.874.322-10.31.084-2.356.215-4.711.2-7.069a8.745,8.745,0,0,0-3.761-7.374,12.492,12.492,0,0,1-5.233-7.853,18.945,18.945,0,0,1-.023-4.875c.076-1.308.188-2.614.281-3.92q.255-3.578.506-7.155c.121-1.749.229-3.5.349-5.249.165-2.4.337-4.806.5-7.209q.178-2.6.346-5.2c.083-1.255.183-2.509.237-3.765a1.369,1.369,0,0,1,1.049-1.351,1.5,1.5,0,0,1,2.066,1.441Q3173.014,120.912,3173.014,129.533Z" transform="translate(-3167.524 -100.648)" fill="#fff" stroke="#323f51" stroke-linecap="round" stroke-linejoin="round" stroke-width="3"/>
        <path id="Path_1086" data-name="Path 1086" d="M3383.1,132.168q0,9.47,0,18.94c0,2.924-.009,5.849.057,8.772.1,4.341.271,8.68.4,13.02.091,3.119.158,6.238.241,9.357.061,2.321.131,4.641.2,6.961.074,2.622.125,5.245.227,7.867.092,2.338.152,4.676.2,7.016.086,3.827.213,7.653.322,11.48.069,2.427.123,4.855.21,7.282.137,3.826.234,7.653.331,11.48.057,2.231.167,4.461.2,6.694.013.921.086,1.841.094,2.762a6.375,6.375,0,0,1-12.717.811c-.143-2.16.071-4.318.117-6.478.082-3.792.219-7.583.334-11.374q.1-3.215.2-6.43.22-7.068.439-14.137.1-3.348.207-6.7c.107-3.49.181-6.981.339-10.47.064-1.416-.011-2.837.166-4.248.056-.454-.1-.632-.581-.619-1.223.03-2.449-.01-3.672.019-.494.012-.646-.155-.627-.64.142-3.47.195-6.944.4-10.412.09-1.54.149-3.08.226-4.62.127-2.584.292-5.164.511-7.742.2-2.294.35-4.591.574-6.882q.383-3.912.862-7.814.528-4.325,1.25-8.623a118.438,118.438,0,0,1,4.575-19.105,41.36,41.36,0,0,1,2.854-6.635,5.175,5.175,0,0,1,.364-.587.855.855,0,0,1,1-.3.832.832,0,0,1,.64.82c.115,2.677.051,5.355.051,8.032,0,1.506.01,3.012.01,4.518Q3383.1,128.177,3383.1,132.168Z" transform="translate(-3164.066 -102.666)" fill="#fff" stroke="#323f51" stroke-linecap="round" stroke-linejoin="round" stroke-width="3"/>
      </g>
    </g>
  </g>
</svg>
