<svg width="399.071" height="399.071" xmlns="http://www.w3.org/2000/svg"><g data-name="Group 779"><path fill="#fff" d="m302.41 289.987-12.42 12.42c-53.387 53.387-193.324 0-193.324 0s-53.386-139.936 0-193.322l12.42-12.42A136.7 136.7 0 1 1 302.41 289.987Z" data-name="Path 1121"/><g data-name="Group 734"><g data-name="Group 545"><g data-name="Group 542"><path fill="#fff6d5" stroke="#323f51" stroke-linecap="round" stroke-linejoin="round" stroke-width="5" d="m189.788 207.576-20.51 65.437a3.38 3.38 0 0 1-6.486-.113l-18.213-66.113" data-name="Path 806"/></g><g data-name="Group 544"><g data-name="Group 543"><path fill="none" stroke="#323f51" stroke-linecap="round" stroke-linejoin="round" stroke-width="5" d="M199.25 181.668a36.163 36.163 0 0 0 5.027-17.822c.345-19.76-7.199-37.17-26.92-37.994l-6.328-.978s-9.76 1.691-10.061 1.686c-22.093 3.58-30.24 15.934-30.59 35.996a30.213 30.213 0 0 0 4.237 16.377c-2.836 2.725-3.216 8.169-3.29 12.411a34.215 34.215 0 0 0 46.334 12.043 15.313 15.313 0 0 0 21.592-21.715Z" data-name="Path 807"/></g></g></g><path fill="none" stroke="#323f51" stroke-linecap="round" stroke-linejoin="round" stroke-width="5" d="m147.01 215.6 18.406-8.452" data-name="Line 28"/><path fill="none" stroke="#323f51" stroke-linecap="round" stroke-linejoin="round" stroke-width="5" d="m151.128 226.267 18.406-8.453" data-name="Line 29"/><path fill="none" stroke="#323f51" stroke-linecap="round" stroke-linejoin="round" stroke-width="5" d="m155.246 236.935 18.407-8.453" data-name="Line 30"/><path fill="none" stroke="#323f51" stroke-linecap="round" stroke-linejoin="round" stroke-width="5" d="m157.913 247.576 18.406-8.453" data-name="Line 31"/><path fill="none" stroke="#323f51" stroke-linecap="round" stroke-linejoin="round" stroke-width="5" d="m159.667 260.083 15.961-7.33" data-name="Line 32"/><path fill="none" stroke="#323f51" stroke-linecap="round" stroke-linejoin="round" stroke-width="5" d="m154.315 204.856 17.033 61.555" data-name="Line 33"/></g><g data-name="Group 736"><g data-name="Group 545"><g data-name="Group 542"><path fill="#fff6d5" stroke="#323f51" stroke-linecap="round" stroke-linejoin="round" stroke-width="5" d="m269.702 227.43-20.51 65.436a3.38 3.38 0 0 1-6.486-.113l-18.213-66.113" data-name="Path 806"/></g><g data-name="Group 544"><g data-name="Group 543"><path fill="none" stroke="#323f51" stroke-linecap="round" stroke-linejoin="round" stroke-width="5" d="M279.165 201.521a36.163 36.163 0 0 0 5.026-17.822c.345-19.76-7.199-37.17-26.92-37.994l-6.328-.978s-9.76 1.691-10.061 1.686c-22.093 3.58-30.24 15.934-30.59 35.996a30.213 30.213 0 0 0 4.237 16.377c-2.836 2.725-3.216 8.169-3.29 12.411a34.215 34.215 0 0 0 46.334 12.043 15.313 15.313 0 0 0 21.592-21.715Z" data-name="Path 807"/></g></g></g><path fill="none" stroke="#323f51" stroke-linecap="round" stroke-linejoin="round" stroke-width="5" d="M226.924 235.454 245.33 227" data-name="Line 28"/><path fill="none" stroke="#323f51" stroke-linecap="round" stroke-linejoin="round" stroke-width="5" d="m231.042 246.12 18.406-8.453" data-name="Line 29"/><path fill="none" stroke="#323f51" stroke-linecap="round" stroke-linejoin="round" stroke-width="5" d="m235.16 256.788 18.407-8.453" data-name="Line 30"/><path fill="none" stroke="#323f51" stroke-linecap="round" stroke-linejoin="round" stroke-width="5" d="m237.827 267.429 18.406-8.453" data-name="Line 31"/><path fill="none" stroke="#323f51" stroke-linecap="round" stroke-linejoin="round" stroke-width="5" d="m239.581 279.936 15.961-7.33" data-name="Line 32"/><path fill="none" stroke="#323f51" stroke-linecap="round" stroke-linejoin="round" stroke-width="5" d="m234.23 224.709 17.032 61.555" data-name="Line 33"/></g><g data-name="Group 735"><g fill="#903" data-name="Group 80"><path d="m119.865 218.951 65.4-51.45c3.94-3.1 8.718-2.515 10.67 1.309s.334 9.438-3.606 12.538l-65.398 51.45c-3.94 3.1-8.718 2.515-10.669-1.309s-.338-9.437 3.603-12.538Z" data-name="Path 294"/><path d="m196.872 231.034-90.204-44.165c-5.436-2.66-8.991-8.202-7.94-12.376s6.308-5.4 11.749-2.736l90.2 44.162c5.435 2.661 8.991 8.202 7.94 12.376s-6.309 5.4-11.745 2.739Z" data-name="Path 295"/></g></g></g></svg>