<svg width="371.239" height="362.019" xmlns="http://www.w3.org/2000/svg"><g data-name="Group 780"><path fill="#fff" d="m124.751 59.69 16.026-6.804c68.898-29.25 177.713 71.79 177.713 71.79s-2.89 148.457-71.788 177.707l-16.025 6.804a135.528 135.528 0 1 1-105.922-249.5Z" data-name="Path 1119"/><g stroke="#323f51" stroke-linecap="round" stroke-linejoin="round" stroke-width="5" data-name="Group 732"><g data-name="Group 731" transform="translate(72.243 113.381)"><g fill="none" data-name="Group 548"><path d="M24.849 21.462c-1.284.242 1.16 9.281 0 10.193A67.524 67.524 0 0 0 9.934 49.149 71.047 71.047 0 0 0 .002 85.508c0 23.839 9.832 35.254 27.484 46.155a8.2 8.2 0 0 0 4.309 1.256 7.666 7.666 0 0 0 1.531-.158.379.379 0 0 0 .147-.028" data-name="Path 810"/><path d="M29.859 114.383c-.08-.057-.159-.125-.239-.182-12.076-9.319-23.324-14.538-23.324-30.157 0-13.41 9.379-35.2 18.71-44.443" data-name="Path 811"/></g><path fill="none" d="M134.946 0h16.2a5.777 5.777 0 0 1 4.78 9.021s-8.726 12.781-13.672 40.821-13.869 71.339-13.869 71.339c0 17.957-6.8 32.513-24.758 32.513H63.866a32.514 32.514 0 0 1-32.514-32.513L24.008 7.956A7.473 7.473 0 0 1 31.465 0a299.494 299.494 0 0 0 61.1 6.644c2.915 0 12.589-2.936 16.641-3.577C120.967 1.203 129.518 0 134.946 0Z" data-name="Path 812"/><path fill="none" d="m29.364 60.676 3.869 60.5a32.288 32.288 0 0 0 32.057 32.513h39.206c17.706 0 25.754-14.557 25.754-32.513l10.051-60.5s-40.507 8.3-69.241 2.67-41.696-2.67-41.696-2.67Z" data-name="Path 813"/><rect width="24.271" height="24.271" fill="#fff" data-name="Rectangle 305" rx="4.64" transform="rotate(-10.717 650.538 -215.904)"/><rect width="24.271" height="24.271" fill="#fff" data-name="Rectangle 306" rx="4.64" transform="rotate(9.38 -426.108 482.495)"/><rect width="24.271" height="24.271" fill="#fff" data-name="Rectangle 307" rx="4.64" transform="rotate(21.45 -245.07 310.737)"/></g><g data-name="Group 730"><path fill="none" d="M264.895 267.139h-29.043a10.068 10.068 0 0 1-10.058-9.62s-3.788-67.4.955-71.69 44.3-4.551 48.205-1.278 0 72.968 0 72.968a10.069 10.069 0 0 1-10.059 9.62Z" data-name="Path 808"/><path fill="#7ec8d6" d="m229.989 217.844 1.575 35.264a7.679 7.679 0 0 0 7.671 7.336h22.148a7.679 7.679 0 0 0 7.671-7.336l1.575-35.264s-1.864 4.731-12.025 4.731c-.4 0-5.314.016-5.782 0-9.959-.341-22.833-4.731-22.833-4.731Z" data-name="Path 809"/></g></g></g></svg>