<svg width="333.971" height="328.421" xmlns="http://www.w3.org/2000/svg"><g data-name="Group 781"><path fill="#fff" d="m211.022 290.38-15.798 4.235c-67.903 18.206-170.2-64.785-169.293-139.143s32.367-100.09 100.27-118.296l15.798-4.236c67.902-18.205 138.4 24.669 157.46 95.757s-20.535 143.477-88.437 161.682Z" data-name="Path 1120"/><g fill="#323f51" data-name="Group 726"><path d="M226.538 147.86H95.877a10.173 10.173 0 0 1-10.162-10.156 35.289 35.289 0 0 1 13.772-27.986l4.665-3.369c15.423-11.151 20.816-16.526 57.054-14.682s45.63 6.4 61.061 17.556a35.185 35.185 0 0 1 14.434 28.48 10.173 10.173 0 0 1-10.163 10.157Zm-123.745-33.78a29.791 29.791 0 0 0-11.6 23.623 4.69 4.69 0 0 0 4.686 4.682h130.659a4.69 4.69 0 0 0 4.686-4.682c0-9.548-4.22-20.13-11.837-25.638-14.517-10.5-40.4-15.729-62.65-15.729s-38.86 6.828-53.378 17.325Z" data-name="Path 760"/><path d="M210.433 159.275a2.738 2.738 0 0 1-2.68-2.19l-2.357-11.478a2.738 2.738 0 0 1 5.364-1.1l2.357 11.478a2.741 2.741 0 0 1-2.13 3.235 2.942 2.942 0 0 1-.554.055Z" data-name="Path 761"/><path d="M172.888 160.311a2.74 2.74 0 0 1-2.74-2.74v-12.447a2.738 2.738 0 0 1 5.476 0v12.447a2.736 2.736 0 0 1-2.736 2.74Z" data-name="Path 762"/><path d="M129.806 159.275a2.91 2.91 0 0 1-.487-.044 2.74 2.74 0 0 1-2.214-3.175l2.042-11.41a2.737 2.737 0 1 1 5.388.961l-2.038 11.411a2.74 2.74 0 0 1-2.691 2.257Z" data-name="Path 763"/><path d="m220.875 208.763-118.557-.036c-8.156 0-16.6-4.616-16.6-12.768v-.943a10.174 10.174 0 0 1 10.162-10.162h130.658a10.174 10.174 0 0 1 10.162 10.162v.941c0 7.793-7.1 12.217-14.789 12.768-.321.025-.677.038-1.036.038Zm-125-20.41c-2.584 0-4.686 4.081-4.686 6.665v.941a9.323 9.323 0 0 0 9.313 9.313h121.409a9.326 9.326 0 0 0 9.313-9.313v-.943c0-2.585-54.781-5.659-54.781-5.659Z" data-name="Path 764"/><path d="M215.55 120.8a2.73 2.73 0 0 1-1.934-.8l-3.043-3.043a2.739 2.739 0 0 1 3.873-3.873l3.043 3.043a2.738 2.738 0 0 1-1.938 4.674Z" data-name="Path 765"/><path d="M219.355 138.938a2.732 2.732 0 0 1-1.938-.8l-3.043-3.047a2.739 2.739 0 0 1 3.877-3.869l3.043 3.043a2.74 2.74 0 0 1-1.938 4.674Z" data-name="Path 766"/><path d="M194.839 114.227a2.737 2.737 0 0 1-1.938-.806l-3.043-3.043a2.74 2.74 0 0 1 3.877-3.873l3.043 3.047a2.742 2.742 0 0 1-1.938 4.674Z" data-name="Path 767"/><path d="M197.882 135.182a2.723 2.723 0 0 1-1.934-.8l-3.043-3.043a2.737 2.737 0 0 1 3.869-3.873l3.043 3.043a2.738 2.738 0 0 1-1.934 4.674Z" data-name="Path 768"/><path d="M176.127 138.939h-4.3a2.738 2.738 0 1 1 0-5.476h4.3a2.738 2.738 0 0 1 0 5.476Z" data-name="Path 769"/><path d="M175.502 127.066a2.724 2.724 0 0 1-1.934-.8l-3.043-3.043a2.736 2.736 0 1 1 3.869-3.869l3.043 3.039a2.738 2.738 0 0 1-1.934 4.674Z" data-name="Path 770"/><path d="M112.72 119.28a2.74 2.74 0 0 1-1.938-4.674l3.043-3.043a2.739 2.739 0 1 1 3.873 3.873l-3.043 3.039a2.734 2.734 0 0 1-1.935.805Z" data-name="Path 771"/><path d="M131.413 127.066a2.733 2.733 0 0 1-1.938-.8l-3.043-3.043a2.737 2.737 0 1 1 3.873-3.869l3.043 3.039a2.738 2.738 0 0 1-1.934 4.674Z" data-name="Path 772"/><path d="M123.985 138.938a2.738 2.738 0 0 1-1.934-4.674l3.043-3.043a2.737 2.737 0 1 1 3.873 3.869l-3.047 3.047a2.717 2.717 0 0 1-1.935.801Z" data-name="Path 773"/><path d="M140.846 112.699a2.736 2.736 0 0 1-1.934-4.67l3.043-3.043a2.737 2.737 0 0 1 3.873 3.869l-3.043 3.043a2.733 2.733 0 0 1-1.939.801Z" data-name="Path 774"/><path d="M152.974 133.662a2.74 2.74 0 0 1-1.938-4.674l3.043-3.043a2.739 2.739 0 0 1 3.873 3.873l-3.043 3.039a2.718 2.718 0 0 1-1.935.805Z" data-name="Path 775"/><path d="M165.585 112.002a2.736 2.736 0 0 1-1.982-4.622l2.967-3.119a2.738 2.738 0 1 1 3.964 3.777l-2.967 3.115a2.719 2.719 0 0 1-1.982.849Z" data-name="Path 776"/><path d="M101.74 138.225a2.738 2.738 0 0 1-1.934-4.674l3.043-3.043a2.737 2.737 0 0 1 3.869 3.873l-3.043 3.043a2.723 2.723 0 0 1-1.935.801Z" data-name="Path 777"/><path d="M115.503 171.922a39.942 39.942 0 0 1-9.58-1.36 33.9 33.9 0 0 0-17.64.5 4.788 4.788 0 0 1-5.9-6.086l7.147-21.744a2.744 2.744 0 0 1 4-1.5 4.558 4.558 0 0 0 2.369.658h130.659a4.644 4.644 0 0 0 2.584-.782 2.735 2.735 0 0 1 4.124 1.444l6.772 21.146a4.775 4.775 0 0 1-6.078 5.99c-4.594-1.555-14.306-3.761-27.679-1.017-11.3 2.325-16.6.618-21.262-.889-4-1.284-7.155-2.3-14.214-.3-10.17 2.891-15.842 1.4-21.333-.052a40.3 40.3 0 0 0-13.173-1.747 21.575 21.575 0 0 0-9.951 2.82 21.741 21.741 0 0 1-10.845 2.919Zm-17.3-7.777a37.2 37.2 0 0 1 9.045 1.1c9.584 2.4 12.707.838 16.651-1.137a26.836 26.836 0 0 1 12.168-3.394 45.805 45.805 0 0 1 14.8 1.926c5.217 1.372 9.715 2.557 18.438.076 8.659-2.465 13.1-1.029 17.393.355 4.224 1.364 8.583 2.764 18.482.734 13.488-2.768 23.7-.893 29.234.782l-5.448-17.014a10.137 10.137 0 0 1-2.409.291H95.897a10.1 10.1 0 0 1-2.05-.211l-5.855 17.813a40.829 40.829 0 0 1 10.21-1.322Z" data-name="Path 778"/><path d="m227.495 189.597-131.6-1.652c-1.516 0-3.717.428-3.717-1.087V170.17a34.331 34.331 0 0 0-3.9.893c-1.723.5-4.658.391-5.9-.893s0-5.193 0-5.193l7.147-21.744a2.744 2.744 0 0 1 4-1.5 4.57 4.57 0 0 0 2.369.654h130.665a4.666 4.666 0 0 0 2.588-.782 2.734 2.734 0 0 1 4.12 1.448l6.772 21.146a4.775 4.775 0 0 1-6.078 5.99c-.9-.3-2.158-.686-3.725-1.053v17.724a2.737 2.737 0 0 1-2.741 2.737ZM99.31 184.121c9.579-1.615 78.273-2.758 109.413 0s16.036-18.314 16.036-18.314a2.736 2.736 0 0 1 3.175-2.7 50.8 50.8 0 0 1 6.481 1.48l-5.448-17.01a10.135 10.135 0 0 1-2.409.287H95.897a10.1 10.1 0 0 1-2.05-.211l-5.855 17.812a42.233 42.233 0 0 1 6.68-1.141 2.689 2.689 0 0 1 2.094.706 2.742 2.742 0 0 1 .889 2.022s-7.925 18.684 1.655 17.069Z" data-name="Path 779"/><path d="M101.01 159.274a2.816 2.816 0 0 1-.626-.072 2.742 2.742 0 0 1-2.042-3.29l2.684-11.478a2.738 2.738 0 1 1 5.332 1.248l-2.684 11.478a2.74 2.74 0 0 1-2.664 2.114Z" data-name="Path 780"/><path d="M84.882 116.237h-5.476a2.738 2.738 0 0 1 0-5.476h5.476a2.738 2.738 0 1 1 0 5.476Z" data-name="Path 781"/><path d="M71.11 116.237h-8.292a2.738 2.738 0 1 1 0-5.476h8.292a2.738 2.738 0 1 1 0 5.476Z" data-name="Path 782"/><path d="M54.523 116.237h-5.476a2.738 2.738 0 0 1 0-5.476h5.476a2.738 2.738 0 0 1 0 5.476Z" data-name="Path 783"/><path d="M69.136 143.209H63.66a2.738 2.738 0 0 1 0-5.476h5.476a2.738 2.738 0 1 1 0 5.476Z" data-name="Path 784"/><path d="M55.365 143.209h-8.292a2.738 2.738 0 1 1 0-5.476h8.292a2.738 2.738 0 1 1 0 5.476Z" data-name="Path 785"/><path d="M38.777 143.209h-5.476a2.738 2.738 0 0 1 0-5.476h5.476a2.738 2.738 0 0 1 0 5.476Z" data-name="Path 786"/><path d="M74.568 170.179h-5.476a2.738 2.738 0 1 1 0-5.476h5.476a2.738 2.738 0 0 1 0 5.476Z" data-name="Path 787"/><path d="M60.797 170.179h-8.3a2.738 2.738 0 1 1 0-5.476h8.3a2.738 2.738 0 0 1 0 5.476Z" data-name="Path 788"/><path d="M44.204 170.179h-5.471a2.738 2.738 0 1 1 0-5.476h5.471a2.738 2.738 0 0 1 0 5.476Z" data-name="Path 789"/><path d="M69.136 200.542H63.66a2.738 2.738 0 0 1 0-5.476h5.476a2.738 2.738 0 1 1 0 5.476Z" data-name="Path 790"/><path d="M55.365 200.542h-8.292a2.738 2.738 0 1 1 0-5.476h8.292a2.738 2.738 0 1 1 0 5.476Z" data-name="Path 791"/><path d="M38.777 200.542h-5.476a2.738 2.738 0 0 1 0-5.476h5.476a2.738 2.738 0 0 1 0 5.476Z" data-name="Path 792"/></g><g data-name="Group 733"><g fill="#903" data-name="Group 80"><path d="m171.303 232.605 86.295-67.887c5.201-4.092 11.503-3.318 14.075 1.724s.449 12.454-4.751 16.546l-86.29 67.887c-5.202 4.092-11.504 3.318-14.076-1.724s-.453-12.454 4.747-16.546Z" data-name="Path 294"/><path d="m272.914 248.547-119.022-58.274c-7.173-3.511-11.864-10.822-10.477-16.33s8.325-7.124 15.497-3.612l119.023 58.274c7.173 3.51 11.863 10.822 10.477 16.33s-8.325 7.125-15.498 3.612Z" data-name="Path 295"/></g></g></g></svg>