<svg xmlns="http://www.w3.org/2000/svg" width="598.243" height="443.372" viewBox="0 0 598.243 443.372">
  <g id="Group_696" data-name="Group 696" transform="matrix(0.985, 0.174, -0.174, 0.985, -773.111, -2663.482)">
    <path id="Path_1090" data-name="Path 1090" d="M10982.691-12749.563s93.732,160.293,114.215,155.647,124.342-147.45,124.342-147.45-29.754-42.422-119.139-46.328S10982.691-12749.563,10982.691-12749.563Z" transform="translate(-9522.581 15256.636)" fill="#903"/>
    <path id="Path_1092" data-name="Path 1092" d="M0,45.528S72.54,171.32,94.419,179.158s186.173,74.881,186.173,74.881,28.893-78.939,1.561-148.869C256.921,40.613,173.512-3.847,130.979.263,42.186,8.84,0,45.528,0,45.528Z" transform="matrix(-0.848, -0.53, 0.53, -0.848, 1551.794, 2879.454)" fill="#7ec8d6"/>
    <path id="Path_1093" data-name="Path 1093" d="M2.412,15.948S81.469,182.3,103.348,190.135,253.36,234.479,253.36,234.479s30.285-51.637,2.954-121.567C231.082,48.355,111.756-3.883,69.223.227-19.571,8.8,2.412,15.948,2.412,15.948Z" transform="translate(1725.402 2524.162) rotate(71)" fill="#e79e17"/>
    <g id="Group_694" data-name="Group 694" transform="translate(1288.175 2466.331)">
      <g id="Group_693" data-name="Group 693" transform="translate(79.737)">
        <g id="Group_540" data-name="Group 540" transform="translate(0 0)">
          <path id="Path_793" data-name="Path 793" d="M143.473,424.418c-8.091,65.965-32.835,171.134-219.507,149.966s-184.917-201.71-128.545-275.949S-36.558,157.862,89.2,245.82C154.147,291.243,148.478,383.627,143.473,424.418Z" transform="translate(239.609 -202.599)" fill="none" stroke="#323f51" stroke-width="5"/>
          <path id="Path_794" data-name="Path 794" d="M-234.148,365.472c5.652-26.334,16.227-49.877,29.364-67.18C-145.347,220.014-32.221,159.183,91,245.364c46.375,32.434,65.349,94.667,54.885,179.97h0c-4.15,33.848-12.809,76.768-43.181,108.494-36.058,37.665-95.926,52.049-177.94,42.748-93.209-10.57-132.7-59.361-149.411-98.433C-240.469,441.162-241.738,400.807-234.148,365.472Zm377.128,59.51c10.328-84.166-8.225-145.448-53.658-177.222C-32.2,162.766-143.8,222.814-202.457,300.059c-29.52,38.875-46.387,114.1-19.506,176.935,16.409,38.359,55.238,86.269,147.054,96.68,174.535,19.79,208.12-69.076,217.888-148.693Z" transform="translate(238.651 -203.34)" fill="none" stroke="#323f51" stroke-width="5"/>
        </g>
        <path id="Path_795" data-name="Path 795" d="M-193.461,236.61a1.468,1.468,0,0,1,.669-.942c21.085-12.821,43.178-21.375,65.666-25.421,33.823-6.084,68.023-1.912,101.758,12.4q2.87,1.218,5.76,2.545a1.472,1.472,0,0,1,.718,1.938,1.463,1.463,0,0,1-1.938.718c-35.034-16.093-70.624-21.049-105.782-14.727-22.13,3.982-43.887,12.41-64.663,25.043a1.461,1.461,0,0,1-2.008-.489A1.446,1.446,0,0,1-193.461,236.61Z" transform="translate(303.417 -197.322)" fill="none" stroke="#323f51" stroke-width="5"/>
        <path id="Path_796" data-name="Path 796" d="M-219.715,329.257a1.468,1.468,0,0,1,.487-.806,1.464,1.464,0,0,1,2.059.17,144.91,144.91,0,0,0,45.038,35.323,1.482,1.482,0,0,1,.635,1.967,1.461,1.461,0,0,1-1.964.633A147.861,147.861,0,0,1-219.4,330.511,1.462,1.462,0,0,1-219.715,329.257Z" transform="translate(265.763 -24.397)" fill="none" stroke="#323f51" stroke-width="5"/>
        <path id="Path_797" data-name="Path 797" d="M-136.8,355.52a1.456,1.456,0,0,1,1.2-1.137A189.722,189.722,0,0,0-110.9,348.9a1.457,1.457,0,0,1,1.814.986,1.453,1.453,0,0,1-.986,1.816,192.479,192.479,0,0,1-25.073,5.567,1.462,1.462,0,0,1-1.667-1.22A1.49,1.49,0,0,1-136.8,355.52Z" transform="translate(384.688 5.34)" fill="none" stroke="#323f51" stroke-width="5"/>
        <path id="Path_798" data-name="Path 798" d="M-109.382,357.191a1.468,1.468,0,0,1,.574-.879A116.776,116.776,0,0,0-94.424,344.07a117.324,117.324,0,0,0,11.619-13.622,1.462,1.462,0,0,1,2.042-.319,1.466,1.466,0,0,1,.319,2.04,119.675,119.675,0,0,1-11.913,13.96A119.148,119.148,0,0,1-107.1,358.686a1.46,1.46,0,0,1-2.037-.333A1.456,1.456,0,0,1-109.382,357.191Z" transform="translate(424.004 -21.898)" fill="none" stroke="#323f51" stroke-width="5"/>
        <path id="Path_799" data-name="Path 799" d="M-107.186,224.966a1.509,1.509,0,0,1,.231-.531,1.465,1.465,0,0,1,2.035-.36c31.954,22.351,50.05,59.159,53.789,109.4a1.462,1.462,0,0,1-1.349,1.565,1.459,1.459,0,0,1-1.563-1.349c-3.671-49.325-21.353-85.4-52.553-107.223A1.465,1.465,0,0,1-107.186,224.966Z" transform="translate(427.156 -173.979)" fill="none" stroke="#323f51" stroke-width="5"/>
        <path id="Path_800" data-name="Path 800" d="M-231.294,296.664c2.933-12.057,9.063-25.158,18.215-38.943,2.994-4.508,6.361-9.155,10.01-13.812l2.3,1.8c-3.6,4.6-6.923,9.182-9.876,13.629-8.963,13.5-14.956,26.29-17.809,38.015Z" transform="translate(249.202 -145.155)" fill="none" stroke="#323f51" stroke-width="5"/>
        <path id="Path_801" data-name="Path 801" d="M-213.364,249.475a287.609,287.609,0,0,1,22.719-21.991l1.877,2.24c-.1.085-22.456,21.743-22.456,21.743Z" transform="translate(274.918 -168.713)" fill="none" stroke="#323f51" stroke-width="5"/>
      </g>
      <path id="Path_1085" data-name="Path 1085" d="M3180.873,156.411v42.042c0,1.734,0,1.715,1.68,1.706,2.974-.014,5.952-.036,8.925.024.893.017,1.18-.243,1.27-1.134.313-3.136.205-6.285.353-9.426.339-7.232.434-14.474.655-21.71q.359-11.822.764-23.645c.252-7.751.471-15.5.783-23.254.087-2.152.172-4.3.214-6.457.042-2.218.9-3.238,3.085-3.7,1.6-.342,2.96.363,4.3,1.051.563.29.468.971.48,1.525.052,2.714.109,5.427.208,8.141.2,5.427.186,10.863.371,16.29.326,9.692.541,19.384.79,29.077.163,6.374.412,12.748.5,19.125.062,4.392.308,8.781.452,13.173.021.662.149,1.008.956.99,3.19-.068,6.381-.056,9.57-.073,1.789-.009,1.8-.009,1.8-1.8q0-41.917,0-83.832c0-2.107.543-2.915,2.392-3.556a4.1,4.1,0,0,1,4.329,1.279,1.8,1.8,0,0,1,.394,1.067q.646,8.956,1.308,17.909c.476,6.311.989,12.621,1.458,18.932.395,5.326.734,10.654,1.129,15.979.469,6.313.985,12.622,1.455,18.934.317,4.294.493,8.6.9,12.887a26.839,26.839,0,0,1-2.266,13.349,27.573,27.573,0,0,1-9.382,11.8,22.978,22.978,0,0,0-9.732,14.412,38.61,38.61,0,0,0-.323,10.053c.2,3.834.146,7.668.356,11.5.268,4.9.2,9.824.366,14.735q.464,13.954.8,27.911c.144,5.858.344,11.716.511,17.573q.4,13.826.782,27.654.237,8.852.51,17.7.421,13.761.782,27.524c.165,6.032.374,12.061.511,18.093.184,8.055.582,16.107.7,24.163a15.6,15.6,0,0,1-14.189,15.723,15.439,15.439,0,0,1-16.578-13.131c-.572-3.872-.133-7.835-.023-11.756.086-3.1.294-6.195.385-9.3.219-7.624.38-15.253.6-22.879q.485-16.669,1.021-33.339.378-12.211.766-24.421.4-12.792.783-25.585.391-12.662.787-25.323c.259-8.356.486-16.712.783-25.068.2-5.728.523-11.453.479-17.186a21.263,21.263,0,0,0-9.144-17.93c-6.631-4.805-11.1-10.984-12.725-19.094-.791-3.945-.287-7.9-.057-11.853.185-3.179.457-6.355.684-9.532q.62-8.7,1.232-17.4c.294-4.253.555-8.509.847-12.763.4-5.842.821-11.684,1.222-17.527q.432-6.316.841-12.633c.2-3.051.445-6.1.577-9.155a3.329,3.329,0,0,1,2.55-3.285,3.655,3.655,0,0,1,5.024,3.5Q3180.873,135.453,3180.873,156.411Z" transform="translate(-3167.524 -86.184)" fill="#fff" stroke="#323f51" stroke-linecap="round" stroke-linejoin="round" stroke-width="7"/>
      <path id="Path_1086" data-name="Path 1086" d="M3402.159,162.8q0,23.025.005,46.05c.009,7.11-.023,14.221.139,21.328.243,10.553.659,21.1.968,31.655.222,7.583.386,15.167.587,22.75.149,5.642.32,11.283.478,16.926.18,6.375.3,12.753.552,19.126.222,5.684.37,11.37.5,17.058.209,9.3.518,18.607.782,27.912.168,5.9.3,11.8.511,17.7.332,9.3.568,18.607.8,27.911.137,5.425.405,10.847.478,16.276.031,2.239.21,4.477.229,6.716a15.639,15.639,0,0,1-16.221,15.949c-7.46-.195-14.208-6.553-14.7-13.977-.347-5.252.173-10.5.284-15.749.2-9.219.532-18.437.811-27.654q.238-7.817.483-15.633.534-17.185,1.067-34.37.25-8.141.5-16.279c.261-8.486.44-16.974.824-25.455.156-3.443-.026-6.9.4-10.329.137-1.1-.235-1.536-1.413-1.506-2.974.073-5.953-.024-8.927.047-1.2.03-1.571-.377-1.523-1.557.345-8.438.474-16.884.971-25.316.219-3.744.363-7.489.549-11.233.309-6.282.709-12.556,1.242-18.824.474-5.576.851-11.163,1.395-16.733q.93-9.511,2.1-19,1.284-10.514,3.038-20.964c2.653-15.735,5.9-31.332,11.125-46.451a100.487,100.487,0,0,1,6.94-16.132,12.559,12.559,0,0,1,.884-1.428,2.081,2.081,0,0,1,2.43-.731,2.025,2.025,0,0,1,1.555,1.994c.281,6.509.123,13.02.123,19.53,0,3.662.024,7.322.026,10.984Q3402.165,153.1,3402.159,162.8Z" transform="translate(-2869.625 -91.072)" fill="#fff" stroke="#323f51" stroke-linecap="round" stroke-linejoin="round" stroke-width="7"/>
    </g>
  </g>
</svg>
