<svg xmlns="http://www.w3.org/2000/svg" width="398" height="75.136" viewBox="0 0 398 75.136">
  <g id="Group_710" data-name="Group 710" transform="translate(-19011 14004.136)">
    <rect id="Rectangle_331" data-name="Rectangle 331" width="378" height="70" rx="35" transform="translate(19011 -13999)" fill="#fff"/>
    <g id="Group_707" data-name="Group 707" transform="translate(18799 -15791.136)">
      <path id="Path_468" data-name="Path 468" d="M910.077,548.47a127.8,127.8,0,0,0-17.1.69,107.368,107.368,0,0,0-16.352,3.336c-2.151.615-4.485,1.474-4.668,2.75-.114.8.671,1.546,1.5,2.218A13.691,13.691,0,0,0,877.926,560c3.333,1.095,7.57.975,11.5.811,9.868-.411,19.751-.864,29.472-1.841a81.8,81.8,0,0,0,10.293-1.541c1.775-.415,3.637-1.045,4.02-2.039.55-1.427-2-2.674-4.127-3.317-4.259-1.287-5.216-1.79-9.953-2.368a104.769,104.769,0,0,0-10.9-1.257" transform="translate(-400.722 1301.039)" fill="#076572"/>
      <path id="Path_469" data-name="Path 469" d="M907.154,548.475a86.4,86.4,0,0,0-15.787.872,76.3,76.3,0,0,0-15.1,4.22c-1.986.778-4.142,1.865-4.31,3.478a3.988,3.988,0,0,0,1.383,2.806c1.108,1.233,3.99,2.343,5.726,3.124,3.077,1.385,5.39,1.321,9.016,1.114,9.112-.52,18.237-1.093,27.212-2.328a56.773,56.773,0,0,0,9.5-1.95c1.639-.524,3.359-1.321,3.712-2.579.508-1.805-1.846-3.382-3.811-4.2-3.932-1.628-4.816-2.264-9.19-3a71.967,71.967,0,0,0-10.069-1.59" transform="translate(-384.471 1284.602)" fill="#009cb2"/>
      <path id="Path_470" data-name="Path 470" d="M38.129.021a118.744,118.744,0,0,0-17.1.742A100.687,100.687,0,0,0,4.679,4.356C2.528,5.018.193,5.943.011,7.317c-.114.857.671,1.665,1.5,2.388A13.484,13.484,0,0,0,5.977,12.44c3.333,1.179,7.571,1.05,11.5.874,9.868-.443,19.751-.93,29.472-1.982a76.365,76.365,0,0,0,10.292-1.66c1.775-.446,3.637-1.125,4.02-2.2.55-1.537-2-2.879-4.127-3.572-4.259-1.386-5.216-1.927-9.953-2.55A97.621,97.621,0,0,0,36.275,0" transform="translate(569.985 1833.688) rotate(180)" fill="#7ec8d6"/>
      <path id="Path_471" data-name="Path 471" d="M38.129.021a118.744,118.744,0,0,0-17.1.742A100.687,100.687,0,0,0,4.679,4.356C2.528,5.018.193,5.943.011,7.317c-.114.857.671,1.665,1.5,2.388A13.484,13.484,0,0,0,5.977,12.44c3.333,1.179,7.571,1.05,11.5.874,9.868-.443,19.751-.93,29.472-1.982a76.365,76.365,0,0,0,10.292-1.66c1.775-.446,3.637-1.125,4.02-2.2.55-1.537-2-2.879-4.127-3.572-4.259-1.386-5.216-1.927-9.953-2.55A97.621,97.621,0,0,0,36.275,0" transform="translate(593.991 1820.722) rotate(180)" fill="rgba(50,63,81,0.14)"/>
      <path id="Path_472" data-name="Path 472" d="M38.124.021a118.744,118.744,0,0,0-17.1.742A100.687,100.687,0,0,0,4.675,4.356C2.524,5.018.189,5.943.007,7.317c-.114.857,1.208,3.577,2.035,4.3,1.2,1.05,2.051.158,3.931.823,3.333,1.179,9.4.061,13.331-.115,9.868-.443,17.917.059,27.638-.993a76.365,76.365,0,0,0,10.292-1.66c1.775-.446,3.637-1.125,4.02-2.2.55-1.537-2-2.879-4.127-3.572-4.259-1.386-5.216-1.927-9.953-2.55A97.621,97.621,0,0,0,36.271,0" transform="matrix(0.998, 0.07, -0.07, 0.998, 548.819, 1787)" fill="rgba(50,63,81,0.14)"/>
    </g>
    <text id="Måltrappen" transform="translate(19058.066 -13992.757)" fill="#009cb2" font-size="40" font-family="FiraSans-MediumItalic, Fira Sans" font-weight="500" font-style="italic"><tspan x="0" y="43">Måltrappen</tspan></text>
  </g>
</svg>
