<svg xmlns="http://www.w3.org/2000/svg" width="321" height="87.609" viewBox="0 0 321 87.609">
  <g id="Group_709" data-name="Group 709" transform="translate(-18752 14184.531)">
    <rect id="Rectangle_332" data-name="Rectangle 332" width="321" height="70" rx="35" transform="translate(18752 -14172)" fill="#fff"/>
    <g id="Group_708" data-name="Group 708" transform="translate(18969.154 -14184.531)">
      <path id="Path_442" data-name="Path 442" d="M17.54,0h0c12.1,0,21.91,9.071,21.91,20.261S35.725,36.915,14.71,40.521h0C2.609,40.521,0,16.633,0,16.633S5.439,0,17.54,0Z" transform="translate(35.509 15.451) rotate(31)" fill="#e79e17"/>
      <rect id="Rectangle_157" data-name="Rectangle 157" width="23.826" height="3.665" rx="1.833" transform="matrix(0.799, 0.602, -0.602, 0.799, 5.916, 10.623)" fill="#e79e17"/>
      <rect id="Rectangle_160" data-name="Rectangle 160" width="26.88" height="4.887" rx="2.444" transform="matrix(0.799, 0.602, -0.602, 0.799, 60.291, 56.436)" fill="#e79e17"/>
      <rect id="Rectangle_161" data-name="Rectangle 161" width="21.382" height="3.665" rx="1.833" transform="matrix(0.259, 0.966, -0.966, 0.259, 48.928, 66.007)" fill="#e79e17"/>
      <rect id="Rectangle_162" data-name="Rectangle 162" width="21.382" height="3.665" rx="1.833" transform="matrix(-0.225, 0.974, -0.974, -0.225, 57.17, 0.825)" fill="#e79e17"/>
      <rect id="Rectangle_158" data-name="Rectangle 158" width="26.88" height="3.665" rx="1.833" transform="matrix(0.819, -0.574, 0.574, 0.819, 0, 73.481)" fill="#e79e17"/>
      <rect id="Rectangle_159" data-name="Rectangle 159" width="26.269" height="3.665" rx="1.833" transform="matrix(0.819, -0.574, 0.574, 0.819, 59.915, 30.565)" fill="#e79e17"/>
    </g>
    <text id="Hver_dag" data-name="Hver dag" transform="translate(18785.066 -14164.757)" fill="#e79e17" font-size="40" font-family="FiraSans-MediumItalic, Fira Sans" font-weight="500" font-style="italic"><tspan x="0" y="43">Hver dag</tspan></text>
  </g>
</svg>
