<svg viewBox="190.526 -379.131 986.911 1213.698" xmlns="http://www.w3.org/2000/svg"><g data-name="Group 1216"><g data-name="Group 1209"><path fill="none" stroke="#323f51" stroke-linecap="round" stroke-linejoin="round" stroke-width="10" d="M606.86 586.324c.825 67.193 1.644 112.427 2.47 179.625a342.6 342.6 0 0 0 67.852 1.29" data-name="Path 1765"/><path fill="#7ec8d6" stroke="#323f51" stroke-miterlimit="10" stroke-width="10" d="M606.341-43.705c52.563 29.635 84.427 86.43 107.008 143.07a794.338 794.338 0 0 1 54.754 339.5c-1.316 22.23-3.739 45.023-13.792 64.81-12.76 25.118-36.509 42.677-61.4 55.272-47.245 23.9-100.512 32.948-153.207 35.829-44.8 2.449-90.807.458-132.609-16.1s-79.11-49.628-92.159-93.272c-7.726-25.833-6.649-53.42-5.5-80.395q1.693-39.83 3.39-79.66c3.025-71.1 6.28-143.45 29.77-210.49S413.313-14.333 479.49-37.481c21.068-7.373 46.745-24.773 68.73-21.09 47.746 8 25.074 2.887 58.122 14.865" data-name="Path 1767"/><path fill="none" stroke="#323f51" stroke-linecap="round" stroke-linejoin="round" stroke-width="10" d="M750.215 213.614c37.6 11.01 66.69 56.67 66.727 104.73.008 11.38-1.5 22.947-5.64 33.1-7.696 18.846-23.244 30.376-38.113 40.609-52.954 36.42-143.627-188.5-199.462-159.5" data-name="Path 1771"/><path fill="none" stroke="#353f4f" stroke-linecap="round" stroke-miterlimit="10" stroke-width="5" d="M573.992 78.232c11.788 2.507 20.613 8.884 29.395 17.065" data-name="Path 1769"/><path fill="#323f51" d="M589.134 204.914a48.387 48.387 0 0 0 9.143-13.991c1.142-2.565 1.162-4.899-1.586-6.214-2.635-1.258-4.062.483-5.1 2.749-8.103 17.693-22.306 24.566-40.832 23.736-.923-.043-1.848-.035-2.767-.101-2.313-.166-4.162.556-4.403 3.129-.248 2.67 1.22 4.243 3.854 4.45 15.752 1.217 30.118-1.909 41.69-13.758Z" data-name="Path 1772"/><path fill="#323f51" d="M564.611 111.333c-9.7-.113-16.1 6.18-15.93 15.662.173 9.553 5.91 15.829 14.762 16.164 9.518.362 17.52-7.031 17.427-16.1-.098-9.391-6.528-15.608-16.259-15.726Z" data-name="Path 1773"/><path fill="#fff" d="M557.812 127.25c-4.15-.05-6.892 2.649-6.82 6.707.075 4.089 2.532 6.778 6.317 6.918a7.043 7.043 0 0 0 7.461-6.891c-.038-4.021-2.79-6.683-6.958-6.733Z" data-name="Path 1774" opacity=".9"/><path fill="none" stroke="#323f51" stroke-linecap="round" stroke-linejoin="round" stroke-width="10" d="M467.484 595.158c3.086 64.453 3.177 107.743.268 172.2a159.254 159.254 0 0 0-68.217.983" data-name="Path 1766"/><path fill="none" stroke="#353f4f" stroke-linecap="round" stroke-miterlimit="10" stroke-width="5" d="M487.553 48.104c-11.788 2.507-20.623 8.884-29.394 17.065" data-name="Path 1768"/><path fill="none" stroke="#323f51" stroke-linecap="round" stroke-linejoin="round" stroke-width="10" d="M316.458 223.374c-37.162 23.662-61.569 51.624-81.164 91.513-10.033 20.42-17.172 44.864-8.01 65.7 6.365 14.473 19.641 24.655 33.621 31.667 51.748 25.977 114.5 15.666 168.764 35.629" data-name="Path 1770"/><path fill="#323f51" d="M489.845 110.815c-8.825-.023-15.777 7.456-15.7 16.88.076 9.8 6.395 16.167 15.97 16.108 9.9-.06 15.455-5.961 15.388-16.348-.063-9.682-6.587-16.62-15.658-16.64Z" data-name="Path 1775"/><path fill="#fff" d="M484.55 127.736c-4.179-.05-6.936 2.663-6.86 6.743.076 4.112 2.543 6.816 6.354 6.957a7.088 7.088 0 0 0 7.5-6.93c-.039-4.043-2.804-6.72-6.995-6.77Z" data-name="Path 1776"/></g></g><g fill="none" stroke="#323f51" stroke-width="10.005" transform="translate(-1443.693 -8802.316)"><ellipse cx="-8044.59" cy="4064.536" stroke-miterlimit="10" data-name="Ellipse 61" rx="22.971" ry="24.562" style="stroke-width:7.305;stroke-miterlimit:8.5;stroke-dasharray:none" transform="rotate(-76.992)"/><ellipse cx="-8025.763" cy="4126.055" stroke-miterlimit="10" data-name="Ellipse 62" rx="22.971" ry="24.562" style="stroke-width:7.305;stroke-miterlimit:8.5;stroke-dasharray:none" transform="rotate(-76.992)"/><ellipse cx="-7964.693" cy="4138.907" stroke-miterlimit="10" data-name="Ellipse 63" rx="22.971" ry="24.562" style="stroke-width:7.305;stroke-miterlimit:8.5;stroke-dasharray:none" transform="rotate(-76.992)"/><path d="M2255.811 8535.36c18.32-79.299 86.717-99.574 185.413-76.774 98.695 22.8 163.844 105.566 145.524 184.866-18.319 79.3-105.66 111.745-204.353 88.945-98.693-22.799-144.903-117.737-126.583-197.036z" data-name="Path 683" style="stroke-width:7.305;stroke-miterlimit:8.5;stroke-dasharray:none"/></g><g style="display:inline"><g transform="matrix(1.00495 .02781 0 1.03828 4849.192 8376.185)"><path fill="#fff" d="M-3946.328-8156.072c5.215 88.672 110.598 84.947 132.118 61.425 38.853-42.466 16.527-93.152 16.527-93.152-39.196-98.827-149.834-37.008-148.645 31.727z" data-name="Path 1346" style="display:inline;fill:#61758f;fill-opacity:1;stroke:#323f51;stroke-width:1.25802;stroke-miterlimit:4;stroke-dasharray:none;stroke-opacity:1"/><path d="m-3828.238-8149.314 36.413 14.131" style="display:inline;fill:none;stroke:#323f51;stroke-width:2.22003;stroke-linecap:round;stroke-linejoin:miter;stroke-miterlimit:4;stroke-dasharray:none;stroke-opacity:1"/><path d="m-3802.328-8188.042 8.242 3.315" style="display:inline;fill:none;stroke:#323f51;stroke-width:2.22003;stroke-linecap:round;stroke-linejoin:round;stroke-miterlimit:4;stroke-dasharray:none;stroke-opacity:1"/><path d="m-3831.207-8139.523 36.787 15.798M-3824.01-8158.967l35.746 11.276M-3816.97-8168.45l26.665 8.774M-3806.039-8178.02l14.076 6.097" style="display:inline;fill:none;stroke:#323f51;stroke-width:2.22003;stroke-linecap:round;stroke-linejoin:miter;stroke-miterlimit:4;stroke-dasharray:none;stroke-opacity:1"/><path d="M-3934.46-8112.866c3.444 6.171 22.172 25.072 28.343 28.114 11.4 5.618 22.46 7.27 25.467 7.586 9.238.968 15.588 2.177 28.915 1.606 8.084-.346 25.669-2.624 32.167-6.202 4.912-2.704 9.14-4.214 14.436-10.75 5.067-6.254 7.203-11.009 9.487-17.058 2.718-7.201 4.003-11.415 5.848-19.17 1.501-6.308 1.985-11.428 2.078-13.695.84-17.241-.586-21.72-2.44-31.126-.688-3.486-1.99-13.493-7.449-22.011-9.033-14.097-14.893-18.645-14.893-18.645 3.258 4.52 9.714 13.56 14.51 24.87 5.287 10.64 6.548 17.682 6.758 28.132.067 2.412 0 0 .057 8.808.033 5.112-.947 11.335-1.292 15.666-.51 6.424-3.692 11.176-6.911 19.767-4.315 11.514-3.81 8.223-8.408 14.822-2.153 3.091-4.794 7.838-14.98 14.025-12.134 7.371-22.365 7.659-35.725 8.128-13.408.47-27.364-3.067-37.619-6.104-13.722-4.064-16.028-7.242-27.042-16.212-13.86-11.288-19.22-31.23-19.22-31.23s4.163 13.962 7.912 20.68z" style="fill:#323f51;fill-opacity:1;stroke:#323f51;stroke-width:1.25802;stroke-miterlimit:4;stroke-dasharray:none;stroke-opacity:1;paint-order:fill markers stroke"/><path d="m-3834.787-8104.25 24.648 14.124M-3836.043-8090.104l13.307 8.445M-3833.052-8128.617l33.787 16.573M-3831.7-8115.147l24.013 11.894" style="display:inline;fill:none;stroke:#323f51;stroke-width:2.22003;stroke-linecap:round;stroke-linejoin:miter;stroke-miterlimit:4;stroke-dasharray:none;stroke-opacity:1"/><rect width="18.336" height="83.63" x="-3861.812" y="-8203.136" rx="10.29" ry="10.888" style="display:inline;fill:#fefdfc;fill-opacity:.992366;stroke:#323f51;stroke-width:.488408;stroke-miterlimit:4;stroke-dasharray:none;stroke-opacity:1"/><rect width="18.336" height="83.63" x="-3896.129" y="-8203.042" rx="10.29" ry="10.888" style="fill:#fefdfc;fill-opacity:.992366;stroke:#323f51;stroke-width:.488408;stroke-miterlimit:4;stroke-dasharray:none;stroke-opacity:1"/></g></g></svg>