<svg width="69.287" height="63.033" xmlns="http://www.w3.org/2000/svg"><path fill="#029cb2" d="M19.639 49.27c4.816 2.287 9.658 4.135 15.432 3.874 5.82-.26 12.092-2.113 18.499-5.104a15.08 15.08 0 0 0 7.793-7.372 23.413 23.413 0 0 0 1.829-7.834c.349-3.637.494-7.254-.234-9.961-1.29-4.8-5.045-5.929-8.596-6.802-8.926-2.191-17.922-4.253-27.513-4.532a29.178 29.178 0 0 0-10.866 1.37 10.967 10.967 0 0 0-6.251 5.266 16.554 16.554 0 0 0-1.14 12.399c1.805 5.767 1.914 7.764 5.114 11.37 1.365 1.534 3.408 5.37 7.474 8.056" data-name="Path 1847"/></svg>