<svg xmlns="http://www.w3.org/2000/svg" width="859.873" height="1164.449" viewBox="0 0 859.873 1164.449">
  <g id="Group_1388" data-name="Group 1388" transform="translate(-2880.136 -1152.07)">
    <path id="Path_1762" data-name="Path 1762" d="M-976.144,187.328" transform="translate(4464.534 1333.098)" fill="none" stroke="#323f51" stroke-width="1"/>
    <path id="Path_1759" data-name="Path 1759" d="M-982.584,262.108c1.169,93.671,2.331,156.731,3.5,250.409a493.833,493.833,0,0,0,96.189,1.8" transform="translate(4417.66 1794.668)" fill="none" stroke="#323f51" stroke-linecap="round" stroke-linejoin="round" stroke-width="10"/>
    <path id="Path_1752" data-name="Path 1752" d="M-845.872,262.451c4.374,89.852,4.5,150.2.38,240.059a229.483,229.483,0,0,0-96.7,1.37" transform="translate(4080.219 1806.641)" fill="none" stroke="#323f51" stroke-linecap="round" stroke-linejoin="round" stroke-width="10"/>
    <path id="Path_1750" data-name="Path 1750" d="M-573.652,158.091C-498.231,199.4-452.511,278.58-420.111,357.54a1079.031,1079.031,0,0,1,78.564,473.284c-1.888,30.991-5.365,62.765-19.79,90.35-18.309,35.016-52.385,59.495-88.1,77.053-67.79,33.323-144.22,45.932-219.828,49.948-64.277,3.414-130.3.638-190.274-22.442S-973.053,956.548-991.776,895.7c-11.085-36.012-9.54-74.471-7.891-112.076q2.429-55.525,4.864-111.05c4.341-99.115,9.009-199.98,42.715-293.436S-850.62,199.038-755.665,166.769c30.23-10.278,67.072-34.535,98.615-29.4,68.509,11.146,35.978,4.024,83.4,20.721" transform="translate(4007.299 1020.387)" fill="#7ec8d6" stroke="#323f51" stroke-miterlimit="10" stroke-width="10"/>
    <path id="Path_1760" data-name="Path 1760" d="M519.358,124.343c-16.711,3.5-29.235,12.385-41.669,23.79" transform="translate(2744.073 1182.121)" fill="none" stroke="#353f4f" stroke-linecap="round" stroke-miterlimit="10" stroke-width="5"/>
    <path id="Path_1761" data-name="Path 1761" d="M466.3,124.343c16.711,3.5,29.221,12.385,41.67,23.79" transform="translate(2921.296 1224.121)" fill="none" stroke="#353f4f" stroke-linecap="round" stroke-miterlimit="10" stroke-width="5"/>
    <path id="Path_1751" data-name="Path 1751" d="M-802.231,191.7c-52.681,32.986-87.28,71.967-115.059,127.575-14.223,28.467-24.343,62.543-11.354,91.591,9.023,20.176,27.844,34.37,47.661,44.146,73.359,36.213,162.311,21.84,239.241,49.669" transform="translate(3819.806 1359.102)" fill="none" stroke="#323f51" stroke-linecap="round" stroke-linejoin="round" stroke-width="10"/>
    <path id="Path_1754" data-name="Path 1754" d="M-764.21,192.036c53.3,15.349,94.54,79,94.593,146,.012,15.866-2.123,31.989-8,46.14-10.908,26.272-32.949,42.346-54.029,56.612C-806.71,491.561-935.249,178-1014.4,218.441" transform="translate(4404.627 1345.16)" fill="none" stroke="#323f51" stroke-linecap="round" stroke-linejoin="round" stroke-width="10"/>
    <path id="Path_1753" data-name="Path 1753" d="M82.646,50.359a67.321,67.321,0,0,1,4.31,23c.092,3.922-1.152,6.928-5.452,7.092-4.119.155-5.034-2.868-5.153-6.347-.94-27.178-15.721-43.854-40.335-53.045-1.226-.458-2.429-.978-3.664-1.4-3.107-1.067-5.127-3.018-4.04-6.45,1.131-3.562,3.9-4.767,7.447-3.574C56.963,16.79,74,28.756,82.646,50.359Z" transform="matrix(-0.921, 0.391, -0.391, -0.921, 3365.18, 1539.127)" fill="#323f51"/>
    <path id="Path_1755" data-name="Path 1755" d="M1032.423,500.6c-13.752-.157-22.828,8.617-22.583,21.834.246,13.317,8.378,22.067,20.927,22.533,13.493.5,24.837-9.8,24.7-22.439C1055.333,509.433,1046.218,500.764,1032.423,500.6Z" transform="translate(2341.542 894.008)" fill="#323f51"/>
    <path id="Path_1756" data-name="Path 1756" d="M1023.13,504.123c-5.884-.069-9.77,3.692-9.67,9.349.107,5.7,3.59,9.449,8.957,9.644,5.784.221,10.64-4.2,10.577-9.606C1032.937,507.9,1029.038,504.192,1023.13,504.123Z" transform="translate(2341.083 912.68)" fill="#fff" opacity="0.9"/>
    <path id="Path_1757" data-name="Path 1757" d="M1059.361,500.4c-12.51-.032-22.365,10.394-22.258,23.532.107,13.657,9.065,22.538,22.639,22.455,14.037-.082,21.91-8.311,21.816-22.791C1081.463,510.1,1072.214,500.429,1059.361,500.4Z" transform="translate(2207.562 893.486)" fill="#323f51"/>
    <path id="Path_1758" data-name="Path 1758" d="M1049.955,504.123c-5.922-.07-9.831,3.712-9.725,9.4.109,5.732,3.606,9.5,9.009,9.7,5.809.222,10.691-4.219,10.635-9.66C1059.816,507.923,1055.9,504.192,1049.955,504.123Z" transform="translate(2209.394 913.354)" fill="#fff"/>
  </g>
</svg>
