<?xml version="1.0" encoding="UTF-8" standalone="no"?>
<!-- Created with Inkscape (http://www.inkscape.org/) -->

<svg
   xmlns:dc="http://purl.org/dc/elements/1.1/"
   xmlns:cc="http://creativecommons.org/ns#"
   xmlns:rdf="http://www.w3.org/1999/02/22-rdf-syntax-ns#"
   xmlns:svg="http://www.w3.org/2000/svg"
   xmlns="http://www.w3.org/2000/svg"
   xmlns:sodipodi="http://sodipodi.sourceforge.net/DTD/sodipodi-0.dtd"
   xmlns:inkscape="http://www.inkscape.org/namespaces/inkscape"
   version="1.1"
   id="svg2"
   width="454"
   height="161"
   viewBox="0 0 454 161"
   sodipodi:docname="du_ikke_din_mave.svg"
   inkscape:version="0.92.5 (2060ec1f9f, 2020-04-08)">
  <metadata
     id="metadata8">
    <rdf:RDF>
      <cc:Work
         rdf:about="">
        <dc:format>image/svg+xml</dc:format>
        <dc:type
           rdf:resource="http://purl.org/dc/dcmitype/StillImage" />
        <dc:title></dc:title>
      </cc:Work>
    </rdf:RDF>
  </metadata>
  <defs
     id="defs6" />
  <sodipodi:namedview
     pagecolor="#ffffff"
     bordercolor="#666666"
     borderopacity="1"
     objecttolerance="10"
     gridtolerance="10"
     guidetolerance="10"
     inkscape:pageopacity="0"
     inkscape:pageshadow="2"
     inkscape:window-width="1920"
     inkscape:window-height="1080"
     id="namedview4"
     showgrid="false"
     inkscape:zoom="1.1276328"
     inkscape:cx="133.33823"
     inkscape:cy="104.66158"
     inkscape:window-x="3840"
     inkscape:window-y="0"
     inkscape:window-maximized="0"
     inkscape:current-layer="svg2" />
  <path
     style="fill:#000000"
     d="M 48.896894,103.75 C 48.433594,93.639716 48.657498,87.421251 49.5,87 c 0.554818,-0.277409 1.138169,1.169431 1.310365,3.25 0.170701,2.0625 0.55956,3.75 0.864131,3.75 0.30457,0 2.28395,-1.9125 4.398621,-4.25 3.174875,-3.50942 3.852004,-3.89491 3.88587,-2.212226 0.02256,1.120776 -1.290699,3.595776 -2.918346,5.5 -1.627648,1.904224 -2.977648,3.763561 -3,4.131859 -0.02235,0.368299 2.204066,1.415206 4.947597,2.32646 4.923827,1.635437 6.794249,3.054757 5.599766,4.249237 -0.336747,0.33675 -3.008859,-0.14319 -5.938028,-1.06653 C 51.887351,100.54707 52,100.53316 52,103.5 c 0,3.18832 -2.957539,3.42659 -3.103106,0.25 z M 119,105.27111 c -1.59466,-0.60703 -2.9594,-2.24403 -2.98469,-3.58013 -0.008,-0.44496 0.48281,-0.50116 1.09162,-0.12489 0.7696,0.47563 0.89776,-0.26826 0.42055,-2.440985 C 117.12683,97.300974 117.24492,96 117.81114,96 c 0.53353,0 1.15392,-1.575 1.37865,-3.5 0.45735,-3.91747 -1.22635,-4.681874 -4.26177,-1.934857 -2.17372,1.967185 -3.54092,0.190619 -1.45703,-1.893277 3.15608,-3.156075 14.70707,-3.256187 15.90369,-0.137837 0.29797,0.776498 -0.55558,2.715937 -1.89678,4.309863 l -2.43854,2.898048 4.19523,0.5627 c 4.84526,0.649886 7.19283,3.028199 5.7149,5.78975 -1.57137,2.93612 -11.42555,4.89882 -15.94949,3.17672 z m 13.08293,-2.82236 c 1.69318,-1.04644 0.93797,-3.209885 -1.33293,-3.818464 -1.2375,-0.331637 -3.9375,-0.609121 -6,-0.616631 -3.26581,-0.01189 -3.75,0.287621 -3.75,2.319675 0,1.28334 0.3375,2.6763 0.75,3.09548 0.77127,0.78375 8.69507,0.0322 10.33293,-0.98006 z m -6.94371,-10.377767 c 1.82349,-1.489993 2.09159,-2.202983 1.178,-3.132783 -1.71233,-1.742703 -3.97503,-0.508563 -4.54627,2.479655 -0.58949,3.083713 0.20509,3.237787 3.36827,0.653128 z M 31.25,103.96884 c -2.516184,-1.01138 -2.80687,-2.01197 -1.084798,-3.73404 0.886936,-0.886938 1.433791,-0.797887 2.289884,0.37289 0.759356,1.03848 2.366035,1.43321 4.946273,1.2152 L 41.22295,101.5 35.361475,97.483258 C 30.869457,94.404976 29.5,92.887354 29.5,90.987619 c 0,-5.317032 12.310397,-5.926213 13.324698,-0.659374 0.330494,1.716117 0.180617,1.725864 -2.804168,0.182371 -3.292669,-1.702705 -8.585285,-1.72226 -8.431405,-0.03115 0.04902,0.538705 2.724262,2.826934 5.944985,5.084953 3.220722,2.258019 6.055036,4.703021 6.298474,5.433331 1.082795,3.24839 -7.090996,5.17844 -12.582584,2.97109 z m 46.733232,-1.51294 c -0.531997,-1.39926 -1.244642,-3.64926 -1.583657,-5.000003 -0.668038,-2.661677 -0.804768,-2.722009 -4.141896,-1.827619 -1.551954,0.415942 -2.564432,1.7972 -3.288544,4.486342 -1.343778,4.99042 -3.305517,5.19537 -2.377458,0.24839 l 0.682304,-3.636991 -3.636991,0.682304 c -4.969785,0.932337 -4.731036,-1.036639 0.289626,-2.388563 3.067218,-0.825916 4.325691,-1.87396 5.75,-4.788544 2.161923,-4.423973 4.299961,-4.767074 6.114475,-0.981216 0.724923,1.5125 1.968486,2.75 2.763475,2.75 1.647035,0 1.985967,2.653156 0.406202,3.179744 -0.673399,0.224466 -0.497388,1.882162 0.5,4.70906 C 81.286,105.06206 81.279753,105 79.975249,105 c -0.563613,0 -1.460021,-1.14485 -1.992017,-2.5441 z M 74.770833,91.8125 C 74.152759,89.958277 72,89.65074 72,91.416667 72,92.2875 72.7125,93 73.583333,93 c 0.870834,0 1.405209,-0.534375 1.1875,-1.1875 z M 85.75,104.42881 C 84.855142,103.51946 84.739051,89.843598 85.606989,87.581787 87.098732,83.694366 88.112683,86.524252 87.817066,93.75 L 87.5,101.5 l 3,-0.10781 c 1.65,-0.0593 4.4625,-0.45304 6.25,-0.875 4.05341,-0.956842 4.50272,1.05603 0.569518,2.55143 -3.81962,1.45222 -10.684707,2.25932 -11.569518,1.36019 z m 57.28518,-1.36307 C 142.46583,102.0019 142,99.526899 142,97.565741 142,94.666667 141.62607,94 140,94 c -1.1,0 -2,-0.45 -2,-1 0,-0.55 0.9,-1 2,-1 1.1,0 2,-0.45 2,-1 0,-0.55 -0.675,-1 -1.5,-1 -3.36203,0 -1.17153,-1.732323 3.57629,-2.828252 C 151.15237,85.538392 155,85.654012 155,87.5 c 0,1.154229 -1.28704,1.5 -5.58333,1.5 -4.03382,0 -5.46167,0.346907 -5.14493,1.25 0.28757,0.819925 2.03654,1.146754 5.08333,0.949918 3.65792,-0.236317 4.64493,0.0293 4.64493,1.25 C 154,93.620386 152.89795,94 149.5,94 H 145 v 4 c 0,3.0825 0.40141,4.03634 1.75,4.15844 3.46118,0.31338 5.67425,-0.23241 7.44675,-1.8365 1.6804,-1.520735 1.80325,-1.496034 1.80325,0.36256 0,4.10296 -10.96551,6.11699 -12.96482,2.38124 z m 18.21482,0.9031 c -1.2375,-0.49742 -2.25,-1.34233 -2.25,-1.8776 0,-1.62039 2.10117,-2.39007 3.28713,-1.20411 1.23766,1.23766 7.72319,1.54349 7.6949,0.36287 -0.01,-0.4125 -2.28059,-2.229662 -5.04602,-4.038138 -5.47532,-3.580637 -6.80001,-5.618577 -5.24972,-8.076309 2.20058,-3.488641 11.58254,-3.204518 12.96287,0.392567 0.91561,2.386036 -0.0239,2.630528 -3.48097,0.905898 -3.31252,-1.652503 -7.73116,-1.626007 -7.57906,0.04545 0.049,0.538705 2.72426,2.826934 5.94498,5.084953 3.22072,2.258019 6.05504,4.703019 6.29847,5.433329 1.0828,3.2484 -7.09099,5.17844 -12.58258,2.9711 z m 24.75136,-6.21884 0.001,-7.25 -5.6178,0.3493 c -4.37753,0.272184 -5.51902,0.05141 -5.17039,-1 0.29639,-0.89387 3.12031,-1.590582 8.36643,-2.064146 4.35547,-0.393166 8.96794,-0.973377 10.24993,-1.289358 1.85462,-0.457119 2.26162,-0.208884 1.99181,1.214846 -0.22649,1.195185 -1.41556,1.893412 -3.5809,2.102716 -3.01049,0.290999 -3.2426,0.576425 -3.25282,4 C 188.97295,99.187903 187.87157,105 186.86916,105 c -0.47804,0 -0.86855,-3.2625 -0.8678,-7.25 z m 16.03382,5.31574 C 201.46583,102.0019 201,99.526899 201,97.565741 201,94.666667 200.62607,94 199,94 c -1.1,0 -2,-0.45 -2,-1 0,-0.55 0.9,-1 2,-1 1.1,0 2,-0.45 2,-1 0,-0.55 -0.675,-1 -1.5,-1 -3.36203,0 -1.17153,-1.732323 3.57629,-2.828252 C 210.06354,85.558897 214,85.658354 214,87.44774 c 0,1.041432 -1.47341,1.53257 -5.25,1.75 -3.07806,0.177214 -5.04315,0.715963 -4.75,1.30226 0.275,0.55 2.45061,0.860957 4.83468,0.691016 3.71248,-0.264631 4.28524,-0.05224 3.99022,1.479685 -0.2781,1.44406 -1.16139,1.729684 -4.58468,1.482515 L 204,93.847062 v 4.076469 c 0,3.155329 0.39544,4.112269 1.75,4.234909 3.46118,0.31338 5.67425,-0.23241 7.44675,-1.8365 1.6804,-1.520735 1.80325,-1.496034 1.80325,0.36256 0,4.10296 -10.96551,6.11699 -12.96482,2.38124 z m 71.16178,0.67158 c -0.57636,-0.69447 -1.19396,-3.0392 -1.37245,-5.210507 C 271.5595,95.30277 271.04166,94.450566 269,93.878524 l -2.5,-0.700463 2.25,-0.705662 C 271.28431,91.677569 271.7932,90 269.5,90 c -3.64998,0 -0.99141,-1.826034 4.16678,-2.861948 C 281.36346,85.592338 284,85.684689 284,87.5 c 0,1.133333 -1.22222,1.5 -5,1.5 -3.93415,0 -5,0.343958 -5,1.613544 0,1.350221 0.74868,1.501272 4.58766,0.925582 4.07868,-0.611637 4.54911,-0.487809 4.24021,1.116141 -0.28151,1.461784 -1.15199,1.746011 -4.58765,1.497949 L 274,93.847062 v 3.541285 c 0,5.100693 2.81042,6.409223 8.12164,3.781433 3.49452,-1.728953 3.94835,-1.771734 3.67384,-0.34632 -0.66722,3.46458 -10.29366,5.69105 -12.59852,2.91386 z m 30.55304,0.22376 c -2.21205,-1.34045 -2.29843,-6.54994 -0.19576,-11.805043 1.72904,-4.321299 5.09604,-6.490881 7.75981,-5.000162 2.21837,1.24146 4.68595,6.106487 4.68595,9.238701 0,5.341984 -7.88438,10.211954 -12.25,7.566504 z m 7.94424,-4.402689 c 2.66885,-2.32247 2.73257,-2.573825 1.30576,-5.151217 -1.66036,-2.999284 -4.55239,-5.188121 -5.54429,-4.196214 -1.6545,1.654493 -3.21226,8.375414 -2.32535,10.03262 1.28817,2.40697 3.24531,2.20267 6.56388,-0.685189 z m 10.84044,-3.04545 c -2.09895,-4.710571 -3.49113,-8.889828 -3.09372,-9.287236 0.94986,-0.949859 3.03629,1.983244 5.26299,7.398697 0.98783,2.402456 2.05663,4.369788 2.37511,4.37185 0.56946,0.0037 4.17837,-7.659224 5.37527,-11.413469 0.38964,-1.222148 0.95856,-1.569894 1.56926,-0.959191 0.61071,0.610704 -0.16375,3.66229 -2.13618,8.417218 -4.72059,11.37992 -4.92374,11.4119 -9.35273,1.472131 z m 19.5005,6.552799 C 341.46583,102.0019 341,99.526899 341,97.565741 341,94.666667 340.62607,94 339,94 c -1.1,0 -2,-0.45 -2,-1 0,-0.55 1.0125,-1.014312 2.25,-1.031803 2.18629,-0.0309 2.19543,-0.07309 0.323,-1.489668 -2.35773,-1.783733 -2.23107,-1.900283 3.61982,-3.330998 C 349.83408,85.52355 354,85.659418 354,87.5 c 0,1.154229 -1.28704,1.5 -5.58333,1.5 -4.03382,0 -5.46167,0.346907 -5.14493,1.25 0.28757,0.819925 2.03654,1.146754 5.08333,0.949918 3.65792,-0.236317 4.64493,0.0293 4.64493,1.25 C 353,93.620386 351.89795,94 348.5,94 H 344 v 4 c 0,3.0825 0.40141,4.03634 1.75,4.15844 3.46118,0.31338 5.67425,-0.23241 7.44675,-1.8365 1.6804,-1.520735 1.80325,-1.496034 1.80325,0.36256 0,4.10296 -10.96551,6.11699 -12.96482,2.38124 z M 369,103.59117 c -1.925,-0.72658 -4.2875,-1.65497 -5.25,-2.0631 -1.24851,-0.5294 -1.75,-0.28154 -1.75,0.86494 0,2.43171 -1.88241,1.9237 -2.53707,-0.68468 -0.31634,-1.26042 -0.43742,-4.968973 -0.26905,-8.241238 0.28144,-5.469933 0.54336,-6.062898 3.24892,-7.355305 2.53439,-1.210639 3.2977,-1.207477 5.5,0.02278 3.90358,2.180641 3.91715,6.259701 0.0329,9.888149 l -3.16367,2.95531 2.844,1.106034 c 1.56419,0.60832 3.85649,1.50213 5.09399,1.98624 2.39363,0.93639 3.09464,2.95936 1,2.88581 -0.6875,-0.0241 -2.825,-0.63837 -4.75,-1.36494 z m -1.43686,-10.047194 c 1.741,-2.657096 1.37284,-3.972688 -1.54939,-5.536616 -2.7044,-1.447353 -4.81413,0.992666 -4.24008,4.9039 0.56503,3.849783 3.47331,4.167622 5.78947,0.632716 z M 389,104 c 0,-0.55 0.9,-1 2,-1 1.75392,0 2,-0.66667 2,-5.418213 0,-6.671432 -0.68152,-8.641229 -2.71921,-7.859295 -1.04572,0.40128 -1.39551,0.135427 -1.06988,-0.813142 0.71459,-2.081635 9.80128,-1.786607 13.18115,0.427967 C 411.25899,95.147152 405.7275,105 393.59887,105 391.06949,105 389,104.55 389,104 Z m 13.75,-4.248444 C 403.9875,98.596455 405,97.133255 405,96.5 c 0,-1.636755 -4.00949,-5.18094 -7.25,-6.408637 L 395,89.049502 v 7.083657 7.083661 l 2.75,-0.68254 c 1.5125,-0.3754 3.7625,-1.62762 5,-2.782724 z m 15.97973,3.502294 c -2.41295,-2.66629 -2.19944,-8.386989 0.43817,-11.740171 2.59458,-3.29848 8.20955,-5.846044 10.96055,-4.97291 2.98788,0.948315 1.62689,3.002699 -1.75903,2.655214 -1.87319,-0.19224 -3.95637,0.477868 -5.66589,1.82258 -4.45968,3.507987 -3.43211,4.22035 4.95422,3.434487 7.25225,-0.679592 7.61509,-0.617921 6.8522,1.16468 -0.44304,1.035249 -1.28242,3.291352 -1.86528,5.01356 -0.70606,2.08624 -1.74141,3.15819 -3.10221,3.21187 -1.12335,0.0443 -3.62658,0.35989 -5.56273,0.70129 -2.7263,0.48072 -3.91041,0.18963 -5.25,-1.2906 z m 9.3186,-2.0919 C 431.16299,98.639848 429.76492,97 424.5,97 c -4.92917,0 -6.09184,1.02562 -4.51106,3.97933 1.35404,2.53005 5.05682,2.61395 8.05939,0.18262 z M 219,95.583333 c 0,-8.266089 1.5396,-12.017006 2.18912,-5.333333 l 0.31583,3.25 1.80619,-3.313779 c 2.24125,-4.111988 3.84292,-3.688483 5.27176,1.393929 l 1.102,3.91985 1.59161,-3.072833 c 1.66772,-3.219766 4.45459,-6.0294 5.22067,-5.263318 1.21866,1.218657 3.46445,15.274521 2.58157,16.157401 -0.98637,0.98637 -1.31261,0.11052 -2.83304,-7.605811 -0.41014,-2.081509 -1.19571,-3.81598 -1.74571,-3.854381 -0.55,-0.0384 -1.84143,2.220377 -2.86985,5.019505 -1.02842,2.799128 -2.23992,4.860607 -2.69223,4.581067 -0.4523,-0.27953 -1.12529,-2.528292 -1.49553,-4.997235 -0.37024,-2.468943 -1.04866,-4.721058 -1.5076,-5.0047 -1.17449,-0.725873 -2.92892,2.894982 -3.75914,7.758264 -0.3873,2.268681 -1.26025,4.310241 -1.93991,4.536791 C 219.31874,104.06042 219,101.95273 219,95.583333 Z M 243.78064,96.75 c -0.24478,-3.9875 -0.24742,-7.8125 -0.006,-8.5 0.85523,-2.434081 2.22527,-1.204771 2.22896,2 l 0.004,3.25 2.02617,-3.323362 c 2.50196,-4.103733 3.98096,-3.72914 5.45695,1.382107 l 1.13813,3.941255 2.20596,-4.25 c 3.24761,-6.256849 4.64044,-5.498855 6.43133,3.5 0.84829,4.2625 1.32937,8.09484 1.06907,8.51631 -1.00858,1.63304 -2.17583,-0.47295 -2.80744,-5.065251 -0.98096,-7.132478 -2.06831,-8.292587 -3.8806,-4.140265 -0.82558,1.891563 -1.74477,4.226706 -2.04266,5.189206 -0.90981,2.93965 -2.47668,1.95645 -3.1873,-2 -1.16317,-6.476014 -2.09994,-7.212698 -3.85568,-3.032119 C 247.70264,96.262716 247,98.588412 247,99.386094 247,101.48397 245.91256,104 245.00586,104 c -0.42909,0 -0.98044,-3.2625 -1.22522,-7.25 z m 166.86121,3.5 C 409.46697,93.141998 409.86476,87 411.5,87 c 1.21569,0 1.5,1.611111 1.5,8.5 0,8.77953 -1.26946,11.33659 -2.35815,4.75 z M 154,68.25 c 0,-1.604167 -0.31622,-3.232889 -0.70272,-3.619382 C 152.2543,63.587634 152.09482,47.059429 153.12162,46.424834 154.19872,45.759153 156,50.22752 156,53.5651 c 0,3.425765 0.99147,3.008375 4.99536,-2.102956 C 164.49334,46.996645 167,45.734699 167,48.43918 c 0,0.79155 -1.82906,3.552492 -4.06457,6.135428 -2.23552,2.582936 -3.69802,5.02999 -3.25,5.437899 0.44801,0.407908 3.20916,1.51879 6.13588,2.468626 4.79202,1.555197 7.30126,3.729628 5.90971,5.121177 -0.43039,0.430389 -9.25645,-1.753406 -13.41167,-3.318392 -0.72275,-0.272212 -1.3045,0.817093 -1.5,2.808695 C 156.40753,71.28799 154,72.276318 154,68.25 Z m 21,0.03333 c 0,-1.585833 -0.51496,-3.398297 -1.14437,-4.027698 -0.85915,-0.859154 -0.85678,-1.843617 0.01,-3.95 0.81632,-1.984857 0.85855,-3.827616 0.14437,-6.299033 -1.38953,-4.808402 -1.26655,-6.693992 0.48029,-7.364317 1.01089,-0.387916 1.65381,0.22061 2,1.893011 0.2806,1.355587 0.76544,3.67609 1.07742,5.156673 l 0.56724,2.691969 4.01057,-4.691969 C 184.35085,49.111386 186.5706,47 187.07781,47 c 2.08134,0 0.67781,3.661106 -3.13869,8.187248 l -4.06088,4.815962 2.36991,0.901037 c 1.30345,0.495571 4.25585,1.466078 6.56088,2.156683 2.94972,0.883757 4.19097,1.801111 4.19097,3.097358 0,2.199771 -0.57378,2.25018 -5.62427,0.494113 -8.66805,-3.013897 -9.2164,-2.984221 -9.56214,0.517495 C 177.40708,71.287125 175,72.23969 175,68.283333 Z M 30.75,68.932735 C 28.350088,67.517314 28.535031,65.717649 31,66.5 c 1.892592,0.600685 2,0.1797 2,-7.838993 0,-7.981438 -0.116201,-8.443381 -2,-7.950756 -1.347754,0.352445 -2,0.03068 -2,-0.986631 0,-4.560887 12.417412,-2.938538 18.093766,2.36397 4.145148,3.872148 4.114321,9.718085 -0.06981,13.2388 -1.636825,1.377297 -4.336825,2.767299 -6,3.088893 C 33.638962,69.843257 32.399664,69.905675 30.75,68.932735 Z M 45.643396,62.865287 C 48.564768,60.1208 48.622081,58.044849 45.858378,55.078361 44.043417,53.13023 38.294843,50 36.532119,50 36.239453,50 36,53.658879 36,58.130842 v 8.130843 l 3.643396,-0.591242 c 2.003868,-0.325183 4.703868,-1.587503 6,-2.805156 z m 10.441601,5.737129 C 54.458014,66.642021 55.04436,47.813173 56.75,47.247728 57.692312,46.935337 58,49.210321 58,56.489991 c 0,8.399489 0.212646,9.614565 1.633392,9.333333 C 62.33118,65.289307 65,59.044337 65,53.265602 65,49.475379 65.383627,48 66.369158,48 c 2.462743,0 3.57784,13.389217 1.556138,18.6849 -0.983995,2.577493 -1.182635,2.668178 -2.353437,1.074408 -1.205279,-1.640704 -1.382215,-1.626344 -3.080283,0.25 -2.104609,2.325567 -4.764405,2.571805 -6.406579,0.593108 z M 236.25,69.335459 C 234.05674,68.454425 234.76161,65.789564 237,66.5 c 1.89459,0.601321 2,0.1797 2,-8 0,-8.306173 -0.0796,-8.609508 -2.09192,-7.970826 -1.66584,0.528717 -2.02058,0.287842 -1.74168,-1.182612 0.92573,-4.880745 17.01559,-0.632078 19.67016,5.194077 2.69383,5.912309 0.54158,10.443996 -6.08489,12.812072 -4.98773,1.782447 -10.73226,2.693522 -12.50167,1.982748 z m 12.77002,-4.845809 c 3.81493,-1.972781 5.38272,-4.868611 4.0172,-7.420107 -1.25667,-2.348107 -5.72487,-5.563699 -8.78722,-6.32382 C 242.0593,50.201957 242,50.3956 242,58.09362 242,65.397186 242.15627,66 244.04966,66 c 1.12731,0 3.36397,-0.679658 4.97036,-1.51035 z M 278.7633,64 c -3.20915,-3.3 -6.01907,-6 -6.24427,-6 -0.2252,0 -0.5466,2.102324 -0.71424,4.671831 -0.53774,8.242406 -2.45667,6.138396 -3.18356,-3.490611 -0.91462,-12.115773 0.613,-15.664042 3.84511,-8.93122 1.8607,3.876041 11.2569,14.75 12.74548,14.75 0.7038,0 0.8129,-2.981608 0.33339,-9.111259 -0.57733,-7.379984 -0.45933,-9.028266 0.62101,-8.674489 1.91183,0.626062 3.52838,16.965847 2.00851,20.301599 C 287.55221,68.882133 286.49281,70 285.8205,70 c -0.6723,0 -3.84804,-2.7 -7.0572,-6 z m 75.28782,1.776283 c -2.48598,-8.297463 -2.62962,-8.491761 -5.92045,-8.008768 -2.62152,0.384757 -3.26513,1.121217 -4.66618,5.339401 -2.10207,6.328747 -3.9302,6.484351 -2.99606,0.255015 0.67501,-4.501265 0.62674,-4.619651 -1.63645,-4.013655 -1.28259,0.343428 -2.88102,0.630559 -3.55208,0.638069 -0.75286,0.0084 -1.13581,1.258236 -1,3.263655 0.42962,6.343873 -1.80294,3.733792 -3.28769,-3.843632 -1.69841,-8.667812 -2.58186,-8.630993 -5.95229,0.248069 -0.99566,2.62296 -2.25466,4.917142 -2.79778,5.098183 -1.00227,0.33409 -2.2036,-2.866698 -2.22849,-5.93752 -0.008,-0.926696 -0.49529,-2.951696 -1.08397,-4.5 -1.02388,-2.692955 -1.11995,-2.728321 -2.21421,-0.8151 -0.62915,1.1 -1.86593,4.925 -2.7484,8.5 -0.88248,3.575 -2.02358,6.5 -2.53579,6.5 -0.5122,0 -1.05952,-4.6125 -1.21626,-10.25 -0.24111,-8.672041 -0.0487,-10.25 1.25,-10.25 1.09259,0 1.55849,1.080778 1.61655,3.75 l 0.0816,3.75 1.34721,-3.068457 c 1.4471,-3.295937 4.18594,-6.068576 5.09582,-5.158695 0.30682,0.306817 1.10509,2.703014 1.77393,5.324881 l 1.21608,4.767032 2.6754,-4.56522 c 2.5654,-4.377528 5.17096,-6.510528 6.1056,-4.998251 0.24268,0.392668 0.7662,2.510515 1.16336,4.706326 0.98751,5.459607 0.92846,5.414502 5.55204,4.240913 3.48895,-0.885589 4.37463,-1.672692 5.90837,-5.250766 2.80236,-6.537645 5.48488,-6.610496 7.91645,-0.214992 C 352.57192,53.004252 353.69248,54 354.97525,54 c 2.35736,0 2.45111,0.344426 0.80932,2.973352 -0.95391,1.52745 -0.95391,2.669443 0,5.307429 1.42607,3.943721 1.55116,6.393695 0.36391,7.127455 -0.46834,0.289449 -1.41215,-1.34493 -2.09736,-3.631953 z m -4.2278,-12.443417 C 349.33677,50.824097 347,50.479622 347,52.916667 347,54.145004 347.64569,55 348.57332,55 c 0.93124,0 1.44138,-0.68037 1.25,-1.667134 z M 90.2,67.8 c -3.240891,-3.240891 0.04329,-15.325105 4.607798,-16.954498 4.236283,-1.512227 9.209792,5.963946 7.773772,11.685517 C 101.43607,67.095038 93.059634,70.659634 90.2,67.8 Z m 7.577494,-3.356704 c 2.803506,-1.963653 2.868826,-5.796976 0.145187,-8.520615 -2.76637,-2.76637 -4.556904,-1.875574 -6.015481,2.99272 -0.957618,3.196246 -0.943984,4.335351 0.06646,5.552867 1.609211,1.93898 3.008491,1.932959 5.80383,-0.02497 z m 9.682816,2.136469 c -2.05643,-3.138498 -1.46021,-8.800564 1.24695,-11.841809 2.42618,-2.725605 7.99327,-4.967778 10.42119,-4.197187 2.98788,0.948315 1.62689,3.002699 -1.75903,2.655214 -1.87319,-0.19224 -3.95637,0.477868 -5.66589,1.82258 -4.44025,3.492702 -3.42883,4.220043 4.79647,3.449269 6.4257,-0.602137 7.5,-0.479572 7.5,0.855663 0,0.857159 -0.41538,1.815189 -0.92306,2.128956 -0.50769,0.313766 -1.20765,1.866166 -1.55547,3.449777 -0.45495,2.071413 -1.24814,2.899243 -2.82693,2.950397 -1.207,0.03911 -3.84244,0.357875 -5.85653,0.708372 -3.20085,0.557017 -3.87805,0.307526 -5.3777,-1.981232 z m 8.93763,-0.715215 c 2.95425,-1.34605 4.12659,-3.726039 2.19961,-4.465492 -2.30041,-0.88275 -9.91859,0.02931 -10.31447,1.234871 C 107.81642,64.054997 110.67726,67 112.52438,67 c 0.75983,0 2.50293,-0.510952 3.87356,-1.13545 z m 83.78847,1.860059 c -0.58217,-0.701465 -1.19977,-3.513965 -1.37245,-6.25 -0.27034,-4.28342 -0.62658,-5.019008 -2.56396,-5.29416 C 193.46625,55.785093 193.24732,53 196,53 c 1.1,0 2,-0.45 2,-1 0,-0.55 -0.675,-1 -1.5,-1 -0.825,0 -1.5,-0.428848 -1.5,-0.952996 0,-1.244314 6.0066,-2.915901 13.35283,-3.71598 5.35157,-0.58284 5.82204,-0.477551 5.49331,1.229386 -0.22912,1.189711 -1.26386,1.903736 -2.85283,1.968604 C 201.73917,49.906802 201,50.05259 201,51.5 c 0,1.166667 1.33333,1.5 6,1.5 4.66667,0 6,0.333333 6,1.5 0,1.650741 -0.51274,1.76474 -6.80802,1.51364 l -4.30802,-0.171833 0.30802,4.829096 c 0.29925,4.691542 0.40496,4.838348 3.71123,5.153882 2.30814,0.220277 4.34454,-0.371167 6.32861,-1.838056 1.60897,-1.189563 3.21161,-1.876633 3.56142,-1.526822 0.96467,0.964665 -1.19049,3.886285 -3.8914,5.275351 -3.14589,1.617922 -10.36929,1.611356 -11.71543,-0.01065 z m 165.67153,-8.47575 C 361.63469,50.074312 360.9307,47 363.05305,47 c 0.48751,0 2.48343,3.456586 4.43537,7.681302 1.95194,4.224716 3.90152,7.262216 4.3324,6.75 0.81245,-0.9658 4.6103,-9.613446 5.56934,-12.681302 C 378.02837,46.708455 380,46.385034 380,48.321888 c 0,2.221418 -7.51732,20.017217 -8.60947,20.381269 -0.56293,0.187644 -3.0526,-4.06679 -5.53259,-9.454298 z m 23.71349,8.179712 C 388.56798,66.425121 388,64.075758 388,60.928571 388,56.338095 387.8285,56 385.5,56 c -1.55556,0 -2.5,-0.566667 -2.5,-1.5 0,-0.833333 0.88889,-1.5 2,-1.5 1.1,0 2,-0.45 2,-1 0,-0.55 -0.675,-1 -1.5,-1 C 384.675,51 384,50.586069 384,50.080154 384,49.060292 396.39126,46 400.52073,46 c 1.88871,0 2.53515,0.455631 2.30259,1.622952 -0.23284,1.168772 -1.72256,1.734567 -5.32332,2.021795 -6.1556,0.491024 -7.80948,1.045482 -7.00437,2.34819 C 390.83795,52.546822 393.56648,53 396.55902,53 400.72878,53 402,53.350457 402,54.5 c 0,1.647796 -0.51693,1.763988 -6.75,1.517208 L 391,55.848943 v 4.46854 c 0,3.152233 0.46595,4.647341 1.58179,5.075528 2.84106,1.090219 5.85972,0.635174 9.16821,-1.382051 3.22021,-1.963402 3.25,-1.963603 3.25,-0.02194 0,4.211302 -11.98497,6.883158 -15.42857,3.439553 z M 144,57.5 c 0,-8.666667 0.2619,-10.5 1.5,-10.5 1.2381,0 1.5,1.833333 1.5,10.5 0,8.666667 -0.2619,10.5 -1.5,10.5 -1.2381,0 -1.5,-1.833333 -1.5,-10.5 z m 116.64098,8.290892 c -1.03658,-3.86965 -0.71725,-17.62572 0.42555,-18.332011 1.86397,-1.151995 2.17855,0.231823 2.30747,10.15028 0.0829,6.375843 -0.25832,9.827686 -0.99668,10.083562 -0.61747,0.213983 -1.39882,-0.641841 -1.73634,-1.901831 z"
     id="path817"
     inkscape:connector-curvature="0" />
</svg>
