<?xml version="1.0" encoding="UTF-8" standalone="no"?>
<svg
   xmlns:dc="http://purl.org/dc/elements/1.1/"
   xmlns:cc="http://creativecommons.org/ns#"
   xmlns:rdf="http://www.w3.org/1999/02/22-rdf-syntax-ns#"
   xmlns:svg="http://www.w3.org/2000/svg"
   xmlns="http://www.w3.org/2000/svg"
   viewBox="0 0 454 161"
   height="161"
   width="454"
   id="svg2"
   version="1.1">
  <metadata
     id="metadata8">
    <rdf:RDF>
      <cc:Work
         rdf:about="">
        <dc:format>image/svg+xml</dc:format>
        <dc:type
           rdf:resource="http://purl.org/dc/dcmitype/StillImage" />
        <dc:title></dc:title>
      </cc:Work>
    </rdf:RDF>
  </metadata>
  <defs
     id="defs6" />
  <g
     transform="translate(2.4751445,4.3895085)"
     id="g850">
    <g
       id="g840"
       transform="matrix(1.0674675,0,0,1.0888229,15.009291,-11.539752)">
      <ellipse
         ry="45.14917"
         rx="86.535912"
         cy="80.5"
         cx="289.70718"
         id="path819-7"
         style="fill:#ffffff;fill-opacity:1;stroke:#000000;stroke-width:10;stroke-linecap:square;stroke-linejoin:miter;stroke-miterlimit:4;stroke-dasharray:none;stroke-opacity:1" />
      <ellipse
         ry="45.14917"
         rx="86.535912"
         cy="80.5"
         cx="102.83978"
         id="path819"
         style="fill:#ffffff;fill-opacity:1;stroke:#000000;stroke-width:10;stroke-linecap:square;stroke-linejoin:miter;stroke-miterlimit:4;stroke-dasharray:none;stroke-opacity:1" />
    </g>
    <g
       id="g843">
      <path
         id="path817"
         d="m 87.305971,92.336033 c -0.36517,-0.59084 -0.91819,-3.537693 -1.22893,-6.548553 l -0.565,-5.474291 h -3.93342 c -3.173,0 -3.86975,-0.330629 -3.60406,-1.71024 0.19542,-1.014755 1.66918,-1.984262 3.62407,-2.384079 3.94702,-0.807253 3.75427,-0.608912 4.52457,-4.655681 0.47157,-2.477352 0.26798,-3.25 -0.85636,-3.25 -0.81125,0 -1.475,0.476558 -1.475,1.059017 0,0.582459 -0.45,0.780902 -1,0.440983 -2.06912,-1.278786 -0.93133,-4.571263 2.25,-6.51096 3.36724,-2.053046 9.71383,-2.551378 17.051309,-1.338865 3.14336,0.519437 3.74916,0.99352 3.5,2.738994 -0.27268,1.910291 -1.0376,2.138579 -8.051309,2.402895 l -7.75,0.292065 v 4.059427 4.059427 l 7,-0.702983 c 6.458919,-0.648644 6.999999,-0.556003 6.999999,1.198509 0,3.201621 -2.1319,4.301491 -8.337679,4.301491 h -5.93768 l 0.63253,5.381832 c 0.47156,4.012194 0.27476,5.678752 -0.77329,6.548562 -0.98752,0.81956 -1.60337,0.84707 -2.06975,0.0925 z m 204.143869,-0.69819 c -0.36189,-0.36189 -0.66413,-2.270487 -0.67164,-4.241321 -0.0257,-6.753292 -0.83233,-8.083333 -4.90209,-8.083333 -3.2679,0 -3.81858,0.376376 -4.89138,3.343132 -1.37489,3.802214 -4.44881,5.548021 -11.14619,6.330383 -3.67445,0.429235 -5.07425,0.113892 -7.29669,-1.643774 -2.44609,-1.934546 -2.75,-2.82996 -2.75,-8.102321 v -5.92742 h -3.06955 c -2.61125,0 -3.02184,-0.335935 -2.75,-2.25 0.20536,-1.445957 1.12359,-2.364192 2.56955,-2.569551 2.78553,-0.395608 2.99017,-2.180449 0.25,-2.180449 -1.1,0 -2,-0.644305 -2,-1.431789 0,-2.228581 23.18386,-6.697764 24.41458,-4.706429 1.56974,2.539897 -0.69896,3.88983 -7.33524,4.364654 -3.74367,0.267858 -7.32537,0.807583 -7.95932,1.199388 -2.49204,1.540167 0.32319,2.574176 7.00855,2.574176 6.6982,0 6.9963,0.100243 6.69098,2.25 -0.29396,2.06979 -0.84016,2.25 -6.81955,2.25 h -6.5 l -0.29816,4.587588 c -0.35425,5.450675 1.11628,7.112412 6.29402,7.112412 4.35722,0 10.42975,-3.838898 11.78473,-7.45 0.38064,-1.014448 1.6906,-1.75 3.1166,-1.75 3.13528,0 5.60281,-2.453711 5.60281,-5.571429 0,-2.475018 -1.3751,-3.248697 -2.51008,-1.412259 -0.92098,1.490173 -2.48992,0.173211 -2.48992,-2.090027 0,-4.606058 9.44399,-7.07056 20.25,-5.284437 3.10369,0.513008 3.75,1.028161 3.75,2.988994 0,2.294781 -0.25115,2.369158 -8,2.369158 h -8 v 4.101491 4.101492 l 7,-0.702983 c 6.45892,-0.648644 7,-0.556003 7,1.198509 0,3.201621 -2.1319,4.301491 -8.33768,4.301491 h -5.93768 l 0.63253,5.381832 c 0.45911,3.906337 0.26601,5.686012 -0.70433,6.491322 -0.73527,0.61022 -1.63295,0.8134 -1.99485,0.4515 z m -176.658,-2.013294 c -3.74914,-1.430511 -5,-3.629069 -5,-8.788209 0,-11.060254 5.46536,-19.523151 12.60812,-19.523151 2.41141,0 3.62277,0.528471 4.01136,1.75 0.30618,0.9625 1.47842,3.495451 2.60498,5.628781 2.6263,4.973371 2.65012,10.971488 0.0574,14.450092 -3.35549,4.501974 -10.71621,7.842981 -14.28184,6.482487 z m 3.99004,-12.949675 c 3.55201,-7.83376 3.70887,-9.361685 0.96108,-9.361685 -3.46939,0 -7.86461,12.753175 -5.28445,15.333333 1.0859,1.085906 1.18604,0.947587 4.32337,-5.971648 z m 6.18123,4.983327 c 1.885,-1.705899 2.55154,-7.780265 0.96155,-8.762928 -0.47695,-0.294772 -1.77508,1.92867 -2.88474,4.940983 -2.07269,5.626597 -1.44634,6.87133 1.92319,3.821945 z m 26.73477,6.214246 c -1.97668,-0.740588 -5.01418,-2.080945 -6.75,-2.978571 -3.13911,-1.623298 -3.15603,-1.618507 -3.15603,0.893633 0,1.859013 -0.52791,2.52568 -2,2.52568 -1.1,0 -2,-0.192438 -2,-0.427641 0,-0.235202 -0.48701,-3.929119 -1.08225,-8.208704 -1.50103,-10.79202 -0.6067,-15.956023 3.09484,-17.870165 1.58845,-0.82142 4.69291,-1.49349 6.89879,-1.49349 5.28072,0 8.08862,2.896348 8.08862,8.343398 0,3.326469 -0.64525,4.580082 -4,7.771383 -2.2,2.09281 -4,3.959246 -4,4.147636 0,0.188391 3.38636,1.634835 7.52524,3.214321 4.13889,1.579486 7.36673,3.355874 7.17299,3.947528 -0.52308,1.597396 -5.6985,1.668743 -9.7922,0.134992 z m -3.54089,-13.631838 c 5.19287,-4.084715 1.84556,-12.435397 -4.14542,-10.341757 -2.11904,0.740529 -2.79121,1.694824 -3.0434,4.320765 -0.75154,7.825432 1.98309,10.115819 7.18882,6.020992 z m 179.29285,14.397237 c -0.36189,-0.361895 -0.65799,-5.37269 -0.65799,-11.1351 V 67.025637 l -8,0.667175 -8,0.667174 v -2.523398 c 0,-2.375156 0.30842,-2.524453 5.25,-2.541336 2.8875,-0.0099 9.49032,-0.663328 14.67293,-1.452141 5.18261,-0.788812 9.79511,-1.204183 10.25,-0.923046 0.45489,0.281137 0.82707,1.3846 0.82707,2.452141 0,1.520359 -0.7043,1.943942 -3.25,1.954638 -7.71347,0.03241 -7.75,0.08652 -7.75,11.480532 0,7.363987 -0.37889,10.575371 -1.34201,11.374692 -0.7381,0.612573 -1.6381,0.817673 -2,0.455778 z m 26.34201,-0.01864 c -2.86441,-1.023713 -4,-3.719936 -4,-9.497149 0,-5.739895 -0.0344,-5.80887 -2.89301,-5.80887 -2.90573,0 -4.18774,-1.42389 -3.37635,-3.75 0.23982,-0.6875 1.52353,-1.25 2.85269,-1.25 1.32917,0 2.41667,-0.45 2.41667,-1 0,-0.55 -0.9,-1 -2,-1 -1.1,0 -2,-0.638931 -2,-1.419846 0,-1.468469 8.37719,-3.741155 18.75,-5.086771 5.15903,-0.669257 5.25,-0.636112 5.25,1.912779 0,2.383181 -0.34516,2.594732 -4.25,2.604844 -6.81847,0.01766 -11.75,1.117214 -11.75,2.619836 0,1.038293 1.82923,1.369158 7.56955,1.369158 7.27792,0 7.55724,0.08669 7.25,2.25 -0.30121,2.120856 -0.70698,2.229782 -7.06955,1.897749 l -6.75,-0.35225 v 5.543233 c 0,3.048779 0.49193,5.847261 1.09317,6.218849 2.57603,1.592077 9.11708,0.519429 12.48162,-2.046825 l 3.42521,-2.612539 v 2.395904 c 0,3.062383 -2.45213,5.220559 -7.5,6.600913 -4.24975,1.162106 -7.05834,1.28361 -9.5,0.410985 z m 39,-0.983831 c -0.825,-0.312068 -3.67447,-1.637224 -6.33216,-2.944792 -2.65769,-1.307568 -5.02019,-2.377396 -5.25,-2.377396 -0.22981,0 -0.41784,1.125 -0.41784,2.5 0,1.769424 -0.54283,2.5 -1.85754,2.5 -1.53891,0 -1.96775,-1.054374 -2.5,-6.146691 -0.35335,-3.38068 -0.64246,-8.787295 -0.64246,-12.014699 0,-5.547174 0.17769,-5.976349 3.25,-7.84957 4.1187,-2.511219 10.85792,-2.634975 13.0171,-0.23904 4.11217,4.563063 2.46537,12.204673 -3.37345,15.653749 -1.69071,0.998731 -2.69421,2.195692 -2.22999,2.659914 0.46423,0.464222 3.93172,2.102307 7.70555,3.640189 3.77384,1.537881 6.9221,3.246148 6.99615,3.796148 0.14926,1.108615 -6.00824,1.713803 -8.36536,0.822188 z m -6.61464,-13.451908 c 3.25997,-1.485343 5.16545,-5.972561 3.69944,-8.711828 -1.39775,-2.611726 -4.46562,-3.560193 -7.04703,-2.178667 -2.19492,1.174685 -2.34424,1.688018 -2.04205,7.020215 0.3066,5.41014 0.96785,5.884983 5.38964,3.87028 z"
         style="fill:#000000" />
    </g>
  </g>
</svg>
