<svg xmlns="http://www.w3.org/2000/svg" width="159.748" height="159.748" viewBox="0 0 159.748 159.748">
  <g id="Group_1181" data-name="Group 1181" transform="translate(-1947.074 -2935.008)">
    <g id="Group_1176" data-name="Group 1176" transform="translate(1947.074 2935.008)">
      <circle id="Nuance_A4_5d" data-name="Nuance A4 5d" cx="79.874" cy="79.874" r="79.874" transform="translate(0 0)" fill="#323f51"/>
    </g>
    <g id="Group_1177" data-name="Group 1177" transform="translate(2051.436 2994.497) rotate(90)">
      <g id="Group_80" data-name="Group 80" transform="translate(0.296 -1.146)">
        <path id="Path_294" data-name="Path 294" d="M4.444,3.838l36.7-3.82c2.212-.23,3.818,1.752,3.588,4.427s-2.21,5.031-4.422,5.261l-36.7,3.82C1.4,13.756-.208,11.774.022,9.1S2.232,4.068,4.444,3.838Z" transform="matrix(-0.381, -0.925, 0.925, -0.381, 35.356, 46.538)" fill="#fff"/>
        <path id="Path_295" data-name="Path 295" d="M3.609.018l36.72,3.848c2.213.232,4.195,2.587,4.427,5.261s-1.374,4.653-3.587,4.421L4.449,9.7C2.236,9.469.254,7.113.022,4.44S1.4-.213,3.609.018Z" transform="matrix(-0.384, 0.923, -0.923, -0.384, 29.731, 5.409)" fill="#fff"/>
      </g>
    </g>
  </g>
</svg>
