<svg xmlns="http://www.w3.org/2000/svg" xmlns:xlink="http://www.w3.org/1999/xlink" width="242.065" height="244.073" viewBox="0 0 242.065 244.073">
  <defs>
    <clipPath id="clip-path">
      <rect id="Rectangle_449" data-name="Rectangle 449" width="242.065" height="244.073" fill="none"/>
    </clipPath>
  </defs>
  <g id="Group_1096" data-name="Group 1096" transform="translate(0 0)">
    <g id="Group_1095" data-name="Group 1095" transform="translate(0 0)" clip-path="url(#clip-path)">
      <path id="Path_1627" data-name="Path 1627" d="M178.5,243.819c4.171-2.386-5.334-29.979-5.334-29.979s73.948-29.32,68.618-107.257S145.863-27.322,65.254,13.984s-78.391,137.979-37.3,180.289c44.637,45.968,116.577,32.889,116.577,32.889s29.315,19.324,33.977,16.657" transform="translate(-0.001 0.003)" fill="#f297bc"/>
      <path id="Path_1628" data-name="Path 1628" d="M30.561,33.189S23.228,18.2,14.568,25.528,25.5,55.184,33.224,54.839c7.329-.332,24.317-26.312,14.989-32.978-9.954-7.11-17.652,11.327-17.652,11.327" transform="translate(39.686 64.737)" fill="#ab003d"/>
      <path id="Path_1629" data-name="Path 1629" d="M52.332,31.419S45,16.43,36.339,23.759,47.275,53.414,54.995,53.07c7.329-.332,23.99-24.649,14.658-31.31-9.95-7.11-17.32,9.66-17.32,9.66" transform="translate(109.351 64.008)" fill="#ab003d"/>
      <path id="Path_1630" data-name="Path 1630" d="M25.8,28.584c.008.059.433.722,1.34,2.1a36.387,36.387,0,0,0,4.154,5.082A26.312,26.312,0,0,0,38.3,40.949a21.222,21.222,0,0,0,9.328,2.142l.63.025.311.013.16.008h.08l.038,0c.067,0-.533.042-.269.021H48.6l1.478-.147c.479-.059,1.021-.088,1.441-.16l.97-.269A16.214,16.214,0,0,0,56.662,41a24.748,24.748,0,0,0,3.7-2.537,38.141,38.141,0,0,0,3-2.995,37.675,37.675,0,0,0,3.931-5.33c.8-1.365,1.264-2.142,1.264-2.142l.155-.26a2.211,2.211,0,0,1,4.066,1.592s-.059.286-.176.815a20.667,20.667,0,0,1-.58,2.121,34.079,34.079,0,0,1-3.272,7.123A30.09,30.09,0,0,1,65.507,43.7a25.7,25.7,0,0,1-4.758,4.04,22.381,22.381,0,0,1-6.363,2.873l-1.882.462c-.55.1-1,.13-1.5.2l-1.474.181-.391.029h-.323l-.433,0-.861-.008a26.056,26.056,0,0,1-6.846-.92,23.919,23.919,0,0,1-6.207-2.621,26.651,26.651,0,0,1-8.417-7.917,30.89,30.89,0,0,1-3.6-7.031,20.1,20.1,0,0,1-.651-2.129c-.118-.517-.181-.785-.181-.785l-.151-.664a2.2,2.2,0,0,1,4.292-.991c.013.055.025.118.034.172" transform="translate(68.52 85.255)"/>
    </g>
  </g>
</svg>
