<svg width="229.531" height="241.419" xmlns="http://www.w3.org/2000/svg"><defs><clipPath id="Ikon_skam_svg__a"><path fill="none" d="M0 0h229.531v241.419H0z" data-name="Rectangle 482"/></clipPath></defs><g data-name="Group 1140"><g clip-path="url(#Ikon_skam_svg__a)" data-name="Group 1139" transform="translate(0 .001)"><path fill="#508984" d="M24.857 199.79s-15.505 28.108-13.264 31.764 31.943-9.3 31.943-9.3 30.3 27.976 87.937 16.329c77.866-15.73 125.3-97.509 81.055-179.084-41.4-76.344-130.579-72.315-178.39-26.8s-40.126 119.75-9.281 167.091" data-name="Path 1667"/><path d="M55.732 112.693a37.526 37.526 0 0 1 3.713-1.014 71.159 71.159 0 0 1 8.254-1.377c3.027-.3 6.063-.52 8.362-.52 2.291-.017 3.838.116 3.838.116a5.333 5.333 0 0 1 1.2 10.381s-1.476.482-3.713.994-5.243.994-8.254 1.4a70.41 70.41 0 0 1-8.358.541 36.914 36.914 0 0 1-3.842-.137 5.353 5.353 0 0 1-1.2-10.379" data-name="Path 1668"/><path d="M143.645 106.347s1.493-.432 3.751-.823a71.812 71.812 0 0 1 8.321-.965c3.04-.137 6.079-.212 8.375-.1 2.291.1 3.83.308 3.83.308a5.333 5.333 0 0 1 .672 10.43s-1.493.412-3.755.8c-2.258.412-5.285.728-8.316.985a73.236 73.236 0 0 1-8.37.121 38.313 38.313 0 0 1-3.834-.333 5.354 5.354 0 0 1-.674-10.429" data-name="Path 1669"/><path d="M83.33 136.719s3.651-1.148 9.41-2.512c2.865-.64 6.229-1.351 9.847-2.021 1.788-.366 3.784-.549 5.742-.794 2.071-.212 3.759-.532 6.2-.649 3.875.021 7.572-.158 11.352.033 3.734.2 7.3.416 10.188.686 5.8.57 9.68 1.185 9.68 1.185a5.236 5.236 0 0 1-.79 10.408h-.062s-3.763.021-9.443-.042c-2.853-.1-6 .029-9.443-.05-3.406-.108-7.372.162-11.161.229-1.734.183-3.468.362-5.173.541-1.784.225-3.5.279-5.252.57-3.46.557-6.728.861-9.506 1.31-5.535.823-9.373 1.314-9.373 1.314a5.244 5.244 0 0 1-2.241-10.2Z" data-name="Path 1670"/></g></g></svg>