<svg xmlns="http://www.w3.org/2000/svg" xmlns:xlink="http://www.w3.org/1999/xlink" width="248.072" height="238.484" viewBox="0 0 248.072 238.484">
  <defs>
    <clipPath id="clip-path">
      <rect id="Rectangle_481" data-name="Rectangle 481" width="248.072" height="238.484" fill="none"/>
    </clipPath>
  </defs>
  <g id="Group_1138" data-name="Group 1138" transform="translate(0 0)">
    <g id="Group_1137" data-name="Group 1137" transform="translate(0 0)" clip-path="url(#clip-path)">
      <path id="Path_1661" data-name="Path 1661" d="M131.148.242c-96.239-5.7-147.2,90.632-126.632,153.05S140.484,282,214.889,200.942c0,0,29.511,15.231,32.875,10.362s-21.693-35.5-21.693-35.5,30.889-46.282,16.735-94.167C226.792,27.483,179.965,3.129,131.148.242" transform="translate(0.001 -0.001)" fill="#8fc0d4"/>
      <path id="Path_1662" data-name="Path 1662" d="M34.151,20.486c-.072.059-1.387,1.468-2.1,2.184a28.873,28.873,0,0,1-5.584,4.472,22.748,22.748,0,0,1-3.238,1.693c-.513.275-1.081.392-1.576.617a12.831,12.831,0,0,1-1.473.464c-1.833.608-7.953.689-7.85,5.728.1,5.332,9.984,5.8,17.753,2.126,9.336-4.431,12.191-11,12.209-14.861.023-3.652-2.531-4.7-4.774-4.539-1.36.086-3.288,2.067-3.364,2.117" transform="translate(43.182 64.298)" fill="#002640"/>
      <path id="Path_1663" data-name="Path 1663" d="M43.625,20.887c.077.05,1.482,1.365,2.252,2.031a28.617,28.617,0,0,0,5.881,4.067A23.441,23.441,0,0,0,55.1,28.453c.536.239,1.108.32,1.617.5a15.355,15.355,0,0,0,1.5.369c1.878.464,8,.126,8.246,5.152.261,5.337-9.574,6.494-17.563,3.364-9.624-3.774-12.929-10.124-13.231-13.974-.257-3.648,2.211-4.868,4.458-4.864,1.365-.009,3.423,1.837,3.5,1.882" transform="translate(124.88 66.581)" fill="#002640"/>
      <path id="Path_1664" data-name="Path 1664" d="M17.167,62.433a33.38,33.38,0,0,1,1.405-4.792,51.368,51.368,0,0,1,5.967-11.574,43.384,43.384,0,0,1,13.736-12.88,43.1,43.1,0,0,1,21.049-5.71l2.716.063c.869.036,1.95.167,2.909.252a42.575,42.575,0,0,1,5.58,1.081,37.331,37.331,0,0,1,10.025,4.409,44.907,44.907,0,0,1,13.371,13.2A56.973,56.973,0,0,1,99.8,58.024c.563,1.446.883,2.635,1.121,3.445.221.851.342,1.306.342,1.306a2.372,2.372,0,0,1-4.431,1.63l-.09-.194s-.167-.342-.477-.986c-.356-.667-.874-1.644-1.531-2.891a61.376,61.376,0,0,0-6.557-9.574A43.515,43.515,0,0,0,76.229,40.573a31.394,31.394,0,0,0-7.953-3.139,33.707,33.707,0,0,0-4.305-.77c-.721-.045-1.315-.14-2.135-.167l-2.36-.023a37.924,37.924,0,0,0-17.068,4.152,42.05,42.05,0,0,0-12.164,9.84,55.514,55.514,0,0,0-6.58,9.453c-1.351,2.477-1.95,3.882-1.95,3.882a2.39,2.39,0,0,1-4.548-1.369" transform="translate(60.009 96.262)"/>
      <path id="Path_1665" data-name="Path 1665" d="M27.693,32.267a6.33,6.33,0,1,0-7.881,4.247,6.334,6.334,0,0,0,7.881-4.247" transform="translate(53.598 84.5)"/>
      <path id="Path_1666" data-name="Path 1666" d="M48.713,33.179a6.328,6.328,0,1,0-7.872,4.251,6.322,6.322,0,0,0,7.872-4.251" transform="translate(127.25 87.7)"/>
    </g>
  </g>
</svg>
