<svg width="242.065" height="244.073" xmlns="http://www.w3.org/2000/svg"><defs><clipPath id="Ikon_kaerlighed_og_glaede_svg__a"><path fill="none" d="M0 0h242.065v244.073H0z" data-name="Rectangle 449"/></clipPath></defs><g data-name="Group 1096"><g clip-path="url(#Ikon_kaerlighed_og_glaede_svg__a)" data-name="Group 1095"><path fill="#f297bc" d="M178.499 243.822c4.171-2.386-5.334-29.979-5.334-29.979s73.948-29.32 68.618-107.257-95.921-133.905-176.53-92.599-78.391 137.979-37.3 180.289c44.637 45.968 116.577 32.889 116.577 32.889s29.315 19.324 33.977 16.657" data-name="Path 1627"/><path fill="#ab003d" d="M70.247 97.926s-7.333-14.989-15.993-7.661 10.932 29.656 18.656 29.311c7.329-.332 24.317-26.312 14.989-32.978-9.954-7.11-17.652 11.327-17.652 11.327" data-name="Path 1628"/><path fill="#ab003d" d="M161.683 95.427s-7.332-14.989-15.993-7.66 10.936 29.655 18.656 29.311c7.329-.332 23.99-24.649 14.658-31.31-9.95-7.11-17.32 9.66-17.32 9.66" data-name="Path 1629"/><path d="M94.32 113.839c.008.059.433.722 1.34 2.1a36.387 36.387 0 0 0 4.154 5.082 26.312 26.312 0 0 0 7.006 5.183 21.222 21.222 0 0 0 9.328 2.142l.63.025.311.013.16.008h.118c.067 0-.533.042-.269.021h.022l1.478-.147c.479-.059 1.021-.088 1.441-.16l.97-.269a16.214 16.214 0 0 0 4.173-1.582 24.748 24.748 0 0 0 3.7-2.537 38.141 38.141 0 0 0 3-2.995 37.675 37.675 0 0 0 3.931-5.33c.8-1.365 1.264-2.142 1.264-2.142l.155-.26a2.211 2.211 0 0 1 4.066 1.592s-.059.286-.176.815a20.667 20.667 0 0 1-.58 2.121 34.079 34.079 0 0 1-3.272 7.123 30.09 30.09 0 0 1-3.243 4.313 25.7 25.7 0 0 1-4.758 4.04 22.381 22.381 0 0 1-6.363 2.873l-1.882.462c-.55.1-1 .13-1.5.2l-1.474.181-.391.029h-.756l-.861-.008a26.056 26.056 0 0 1-6.846-.92 23.919 23.919 0 0 1-6.207-2.621 26.651 26.651 0 0 1-8.417-7.917 30.89 30.89 0 0 1-3.6-7.031 20.1 20.1 0 0 1-.651-2.129c-.118-.517-.181-.785-.181-.785l-.151-.664a2.202 2.202 0 0 1 4.292-.991c.013.055.025.118.034.172" data-name="Path 1630"/></g></g></svg>