<svg width="233.57" height="250.237" xmlns="http://www.w3.org/2000/svg"><defs><clipPath id="Ikon_frygt_og_angst_svg__a"><path fill="none" d="M0 0h233.57v250.237H0z" data-name="Rectangle 448"/></clipPath></defs><g data-name="Group 1150"><g data-name="Group 1103"><g clip-path="url(#Ikon_frygt_og_angst_svg__a)" data-name="Group 1093"><path fill="#6c85a0" d="M58.835 249.549c.174 3.251 157.007-.493 173.121-115.9C249.455 8.322 120.156-19.766 59.199 12.051 4.974 40.365-24.343 116.119 25.817 179.241c23 28.947 63.528 37.953 60.54 44.356-4.134 8.848-27.739 21.918-27.521 25.952" data-name="Path 1621"/><path d="M131.363 141.102Z" data-name="Path 1652"/></g></g><g data-name="Group 1105"><g data-name="Group 1106"><path d="M85.194 103.845a6.957 6.957 0 0 1-1 2.183c-.149-.058 1.357-4.053.087-6.043 0 .022-.035.046-.093.076.072-.011.076 0-.2.076-.941-.293.037-.327.262-.208a2.174 2.174 0 0 0-.763-.7 2.828 2.828 0 0 0-.173.343 11.279 11.279 0 0 0-.564-1.894 2.021 2.021 0 0 1 .824.338c-.059-.208-.111-.62-.059-.41a.5.5 0 0 0 .076.136c-.39-.861-.973-1.907-.93-1.851 1.361.423-3.039-3.26-5.334-.518.111-.167.223-.338.338-.5-.054-.067-.215.2-.438.622a4.242 4.242 0 0 0-.4.637c.1-.16.208-.312.31-.47-.841 1.641-2.406 5.129-2.857 3.706-.093.355-.345 1.574-.574 3.017-.059-.084-.132-.147-.21-.1s.017.381.154.466a29.841 29.841 0 0 0-.332 3.308 8.523 8.523 0 0 0-.134 3.486c-.212 1.064.973 2.868 2.222 4.263.074-.022.269.23.269.23 1.108 1.242 2.25 2.076 2.28 1.53a3.974 3.974 0 0 0-.136-1.463 5.192 5.192 0 0 0 1.337-.032 40.375 40.375 0 0 0-.5 1.8c-5.7 5.922 1.092-.763 1.7-2.09a.207.207 0 0 0 .026.145c.21-.232.264-.314.173-.236a.211.211 0 0 0-.167.024c.035-.017.069-.03.1-.045a4.152 4.152 0 0 0 .631-.358 6.579 6.579 0 0 0-1.259 2c.342.574 3.423-3.067 3.076-3.318a.778.778 0 0 0-.873.55c.007-.041.032-.1.045-.15a3.7 3.7 0 0 0 .291-.421c.492-.173.887-1.346 1.129-3.011q.214-.493.425-.993c.019-.468.169-.661.264-.616.778-1.849 1.374-3.472.96-3.492m-5.727-8.824c-.108.071-.219-.015-.347-.249.085-.045.516.182.347.249m-2.05 19.194a2.935 2.935 0 0 1-.228-.243c.113.026.225.052.336.071-.026.048-.061.1-.108.173m-.178-6.91a6.192 6.192 0 0 1 .056-1.546 13.281 13.281 0 0 1 .366-1.561c.071-.243.167-.481.262-.717.017.045.033.091.052.137a25.866 25.866 0 0 0-.735 3.687m1.723 2.076a12.474 12.474 0 0 1 .271-2.766c.032.089.061.173.095.258-.15.954-.269 1.84-.366 2.508m-.63-12.392a6.745 6.745 0 0 0 .366-1.2 1.3 1.3 0 0 1 1.238.007 5.035 5.035 0 0 0-1.6 1.2m3.373-.949c-.032-.024-.063-.056-.1-.08.108-.173.4-.243.1.08m1.047 8.17a2.15 2.15 0 0 1 .037-.188 2.54 2.54 0 0 1 .007.429c-.015-.082-.032-.16-.045-.241m1.853-1.986c-.275-1.662.431-.238 0 0m-.589-1.524c-.247.024.154-.425.221-.46.472.249.4.4-.221.46" data-name="Path 1646"/><path d="M160.042 105.68a1.036 1.036 0 0 0-.21.433 24.64 24.64 0 0 0-.225-1.537c.251-1.188.366-2.04.13-2.029a7.431 7.431 0 0 1-.288 1.216 30.536 30.536 0 0 0-.243-1.069 7.8 7.8 0 0 0-.464-3.414c-.045.074-.195.137-.481.182a.41.41 0 0 1-.063-.117 1.219 1.219 0 0 1 .234-.369 1.009 1.009 0 0 1 .223.124 3.425 3.425 0 0 0-.184-.369c-.017.032-.045.052-.277.139a2.029 2.029 0 0 1-.186-.058 5.08 5.08 0 0 1-.085-.223 1.24 1.24 0 0 1 .446 0 2.138 2.138 0 0 0-.633-.518q-.287-.769-.581-1.509a1.369 1.369 0 0 1 .39.162 2.638 2.638 0 0 1-.136-.408c-.511-.832-1.153-1.754-1.056-1.636 1.435.347-3.394-3.165-5.6-.65.147-.217.275-.444.438-.652-.065-.084-.243.219-.49.7a3.3 3.3 0 0 0-.429.67c.113-.2.256-.381.382-.576-.854 1.719-2.426 5.471-2.835 3.921a17.241 17.241 0 0 0-.084 4.136 3.463 3.463 0 0 0-.128.453 10.99 10.99 0 0 0 1.175 7.654 2.324 2.324 0 0 0 .267.31c.735 2.629 1.754 4.311 2.98 3.24-1.394 1.76.594-.355-.015.99.176-.386.3-.683.4-.939a3.841 3.841 0 0 0 3.4.518c.019.5.045 1.054.095 1.706.015-.046.332-1.153.511-1.94a5.228 5.228 0 0 0 .551-.293 5.916 5.916 0 0 0-.158 1.22c.282.213.98-1.116 1.474-2.317a6.156 6.156 0 0 0 1.637-3.73 18.43 18.43 0 0 0-.1-2.963.11.11 0 0 0 .118.098c.878.162.329-.817.1-.559m-9.865 6.964.136.26c-.1-.024-.769-.187-.136-.26m.152-14.872a.276.276 0 0 1-.089-.15.3.3 0 0 1 .195.011c-.035.046-.074.093-.106.139m2.713-4.077c-.124.039-.23-.069-.323-.317.093-.028.514.291.323.317m-1.792.977c.2-.878-.2 1.647 0 0m.369 1.608a16.663 16.663 0 0 0 .542-1.92c.323-.23.915-.052 1.565.321a7.847 7.847 0 0 0-2.107 1.6m3.1 14.024a3.2 3.2 0 0 1-.226-.7 3.234 3.234 0 0 0 .687.815c-.128.215-.278.225-.46-.113m4.272-9.329c-.425-1.667.434-.31 0 0" data-name="Path 1647"/><path d="M94.82 75.1a2.071 2.071 0 0 0-1.457-.815c.058-.176.115-.36.175-.568a5.482 5.482 0 0 0-.882.557 5.059 5.059 0 0 0-.763.113c.091-.334 1.1-.228.718-.854-.485-.756-1.47.171-2.055.167-.939-.009.585.7.5.666a.864.864 0 0 1-.048.269 13.514 13.514 0 0 0-1.361.551c.015-.113.022-.219-.007-.225a1.4 1.4 0 0 0-.1.277 36.694 36.694 0 0 0-5.575 3.5c-.147-.275-.4-.494-.731-.1a1.211 1.211 0 0 0-.026.661q-.337.253-.663.511c-.34-.15-.665-.325-.665-.325.4.75-1.916.7-2.473.518-.093-.046-.115-.065-.111-.085a4.274 4.274 0 0 1-.967.817.452.452 0 0 0-.078-.149c-.05-.052-.074.08-.061.234-1.463.887-3.42 1.316-4.411 2.139.007.048.013.085.02.149l-.121.033v-.1a1.481 1.481 0 0 0-.453 1.628c-1.058-2.718.273 1.121-.52-.557.557 1.184.692 2.322 1.4 2.575-.193-.069.377-.418 1.235-.841a28.467 28.467 0 0 1-3.058 2.6c4.547 2.857 26.628-7.829 22.527-13.346m-21.108 9.917c-.02.288-.1.212-.223-.234 0 0 .366-.188.223.234m2.057-2.257c.271 1.762-.589-.967 0 0m-.15 1.624c.024.065.234.85 0 0m-.193-1.446c.416 1.212.007.286-.015.2-.028-.156-.024-.223.015-.2m-.416.071c.16-.488 1.09 1.964.069.124.024.041-.069-.124-.069-.124m.351 1.389c-.026.082.069.412-.1.052Zm.191 1.279a.338.338 0 0 1-.21-.243c.048-.009.321-.028.574-.078l-.364.321m.429-1.7c-.267-.492.019-.325.123-.124Zm.306.828c-.022.115-.082-.306.015-.245Zm.332-.871c-.039-.429 0-.451.11-.072.1.355 0 .232-.11.072m.613-.7a.567.567 0 0 1 .143.379c-.1-.041-.147-.167-.143-.379m.622-.581c.046.228-.147-.11 0 0m.47.095.048.338c-.024.252-.173-.4-.048-.338m.343.215a1.159 1.159 0 0 1-.277-.65 1.358 1.358 0 0 1 .277.65m.264-.217c-.033-.061-.063-.128-.111-.225 0 0 .173.162.111.225" data-name="Path 1648"/><path d="M135.946 75.025c-.006-.065.108-.013.3.11-.108.254-.032.681.327 1.368a26.124 26.124 0 0 0 11.891 11.026c2.738 1.331 18.283 3.431 10.114-2.315-.143-.1-.3-.186-.453-.28a.5.5 0 0 0 .084-.123c.329-.863-1.972-1.623-2.011-1.513a.619.619 0 0 0 0 .553c-.241-.117-.47-.245-.718-.356.024-.006.032-.011-.048-.095a.979.979 0 0 1-.436-.1 49.387 49.387 0 0 0-2.421-.945c-.277-.184-.464-.277-.507-.184-1.3-.466-2.61-.926-3.876-1.452.236-.277.444-.748-.226-.867-.147-.026-.475.215-.767.44-.226-.1-.444-.219-.661-.329-.054-.425-.076-.893-.091-.869-.431.722-1.636-1.342-1.78-1.953-.015-.123 0-.152.017-.16a4.149 4.149 0 0 1-1.231-.492.445.445 0 0 0 .093-.139c.026-.071-.11-.032-.243.05-1.537-.941-2.878-2.64-4.108-3.254-.043.028-.076.054-.137.091l-.089-.108a.918.918 0 0 0 .1-.043 1.448 1.448 0 0 0-1.7.239c1.972-2.174-.884.731.262-.744-.824 1.064-1.782 1.652-1.682 2.445m3.542.713-.169-.072c.325-.462.3-.115.169.072m.837-.774c-1.459 1 .615-.977 0 0m-.312-.265c-.908.9-.256.123-.189.072.126-.1.186-.121.189-.072m-.26-.377c.52-.074-1.357 1.957 0 0m-1.207.847.1.067a.682.682 0 0 0-.169.084c-.022-.035.011-.078.071-.15m-1.177-1.56s.343.275-.108.314c-.271.1-.236-.006.108-.314" data-name="Path 1650"/><path d="M138.956 145.843a1.419 1.419 0 0 0-.232 1.489c-.215-.462-1.173-3.908-2.256-7.224-.442-.221-.631-.728-.562-1.53.037.056.072.111.11.165-1.04-3.032-2.1-5.571-2.679-5.013a10.817 10.817 0 0 1 1.671 3.342c-.55.13-2.12-2.694-4.212-4.74-.451-.18-1.288-.626-1.368-1.144a5.96 5.96 0 0 0-.485-.286.643.643 0 0 1-.2.407c-.158.2-.438-.483-.429-.566a1.572 1.572 0 0 1 .308-.02 4.826 4.826 0 0 0-.564-.225c.015.048.006.1-.084.3a2.352 2.352 0 0 1-.537.121c-.069-.039-.126-.084-.193-.123a1 1 0 0 1 .451-.39 3.418 3.418 0 0 0-1.3-.084c-.427-.171-.9-.4-1.411-.6a9.852 9.852 0 0 0 1.433-.152 13.582 13.582 0 0 0-4.974-1.346 5.727 5.727 0 0 1 1.569-.123 35.634 35.634 0 0 0-10.013.115c.457-.132.915-.262 1.372-.392-.1-.743-9.953 4.517-8.3 2.128a17.408 17.408 0 0 0-3.797 3.064c.069-.16.08-.3-.058-.291-.16.009-.481.611-.314.683a45.729 45.729 0 0 0-4.721 6.914 16.8 16.8 0 0 0-.826 2.133.561.561 0 0 1 .1-.054c.228.46-.058.564-.247.5a65.36 65.36 0 0 0-.548 1.745c.08.011.15.238-.035.379-.052-.011-.048-.041-.052-.08a35.829 35.829 0 0 0-.977 4.17c.061.041 0 .5 0 .5-.007-.019-.03-.061-.054-.108-.247 1.84-.1 3.145.923 2.842-1.957 1.173.527.167-.511 1.34q.674-.774 1.272-1.6a.759.759 0 0 0 .21.977 18.292 18.292 0 0 1 .427-2.337c.1.622.213 1.277.332 1.836-.035.215-.074.429-.106.648-1.261.2-1.808.538-.16 1.129.241.494.037.7-.613.616.015-.061 1.123 1.036.936.928.377.219 10.851.776 11.239.245.13-.178-1.688-.494-.323-.678.191.009.379.015.577.02-.473.874 7.636.141 2.8.353.241-.106.466-.18.692-.265 2.207.039 4.489.048 6.745.028-.284.046-.54.134-.54.321.009.984 1.071-.074 1.277-.327 2.243-.024 4.443-.078 6.485-.167.022.284.232.156.39-.019 1.78-.082 3.427-.191 4.881-.327a.512.512 0 0 1 .106.234 1.557 1.557 0 0 1 .056-.249q1.167-.111 2.135-.247c-.821.975.31 1.034 3.418.165 0 0-.184-.035-.46-.082a7.241 7.241 0 0 0 1.225-2.6c.275 1.283.576 2.456.618 2.61-.082-.867-.34-2.291-.431-3.542a2.961 2.961 0 0 0 .017-.633c-.011-.095-.028-.186-.039-.282a5.239 5.239 0 0 1 .054-.605.391.391 0 0 1-.134.017c-.009-.078-.024-.156-.035-.234l.165-.189a.377.377 0 0 1 .065.119 1.059 1.059 0 0 1 .291-.533 16.256 16.256 0 0 0 .472 3.9c.319.13.7-7.073-.043-7.081m-43.348 5.831c.011-.046.011-1.279.245-.516.191.278.11.446-.245.516m.49-7.7a.216.216 0 0 1-.054-.3c.913.3.1.338.054.3m.377 2.009.063-.334c.019.16.262.247-.063.334m.451-1.032a.516.516 0 0 1-.15-.065c.072-.2.15-.24.21-.215-.022.093-.035.188-.059.28m.137-1.571c-.477.147-.093-.473.119-.5a4.41 4.41 0 0 0-.119.5m4.069-7.5-.006.382c-.139.414-.247-.212.006-.382m-.163 19.215c.032.134-.121.509 0 0m-.423-.093c-.091.045-.13.293-.191-.006Zm-.414-18.26c.046.23-.269.178 0 0m-2.6 17.885c-.167.137-.239.078-.23-.16l.095.032c.071.022.173.045.262.067a.569.569 0 0 1-.126.061m.509-13.1a1.2 1.2 0 0 1-.119.061c-.139-.464-.069-.59.156-.386a.266.266 0 0 1 .067.11c-.033.074-.072.143-.1.215m.624-1.353c-.238.078-1.1.017 0 0m.2-1.093c.171-.076.251-.013.243.178-.171.182-.254.126-.243-.178m1.043 16.6a11.646 11.646 0 0 0 1.58.238c-.486.113-1.606.186-1.58-.238m1.547-20.58c.29-.011.4.143.4.423-.3.085-.438-.054-.4-.423m.34 20.522c-.108.072.05-.234.169-.161Zm28.8-22.421c.085-.368.479.379-.009.032.054.039.026-.082.009-.032m-6.251-4.238c.191.078.555-.007.735.332-.221-.046-1.1-.485-.735-.332m-8.165-.46h-.139a.155.155 0 0 1-.078-.108.549.549 0 0 1 .217.1m-13.6 6.258a.893.893 0 0 1-.195-.175l.306-.074a1.282 1.282 0 0 1 .006.136c-.039.041-.076.072-.117.113m.323 20.436c.05 0 .1 0 .154.007-.05.106-.1.072-.154-.007m27.145-13.211c.743 0 .795-.115.278-.514a20.48 20.48 0 0 1-2.066.2c-.117-.017-.668-.074-.793-.065a.876.876 0 0 0 .373.091c-.512.028-1.021.043-1.454.041a7.217 7.217 0 0 0 1.2-.4h-1.629a5.006 5.006 0 0 1-.568.1.4.4 0 0 0 .05-.1h-.332c-.035.03-.054.039-.082.149l-.241.024a.991.991 0 0 0-.252-.173.882.882 0 0 0-.163.011.6.6 0 0 0-.013.2c-.373.032-.778.056-1.2.078a1.529 1.529 0 0 0-.529.028c-1.333.054-2.71.067-3.527.017.583.13 1.168.262 1.766.336 0 0-1.745-.076-3.795-.16.186-.059-.574-.221-1.264-.059a1.117 1.117 0 0 1 .119.015 38.364 38.364 0 0 0-5.183-.009 1 1 0 0 1 .991.321c-.089.444-4.94-.408-4.907-.468a9.692 9.692 0 0 1 2.761-.11.641.641 0 0 0-.319-.2 4.088 4.088 0 0 0-.527.022c.132.024.022.024-.3-.022-1 0-2 0-2.954-.059.162-.247.332-.457.5-.692a4.508 4.508 0 0 0-.7.377 14.77 14.77 0 0 1 1.325-2.564s.1-.1.087-.13c1.292-2.1 3.2-4.478 4.474-3.36.824-2.723 8.651-1.764 10.335-1.157-1.894.113 5.083 3.2 4.851 3.466q-.632-.387-1.249-.8a31.092 31.092 0 0 1 6.138 5.6c-.4.006-.8-.006-1.2-.03m4.346 12.91-.058-.16c.037-.006.065-.013.1-.019a.967.967 0 0 1-.043.178m.47-.033c-.059-.045-.132-.11-.221-.182.433-.078.826-.156 1.164-.245a2.374 2.374 0 0 0 .076.342c-.665-.085-1.277-.123-1.019.085m.03-15.685c.137.121-.293-.613-.3-.557a21.69 21.69 0 0 0-3.215-4.521c2.928 1.153 5.855 8.61 5.854 9.9 0 .193-.152.277-.332.33a29.56 29.56 0 0 0-2.009-5.155m2.816 8.6a11.04 11.04 0 0 0-.072-.353 1.18 1.18 0 0 0-.009-.33 5.384 5.384 0 0 1-.223-.845.328.328 0 0 0 .117.006l-.019-.149a.177.177 0 0 0-.132 0c-.084-.382-.195-.756-.3-1.134.15.019.28.041.286.082.019.1.078.529.145 1.054.084.039.117.126.019.149.037.271.072.555.106.839.072.006.163.082.28.239a.215.215 0 0 1-.239.111c.013.115.024.223.041.332" data-name="Path 1651"/></g></g></g></svg>