<svg xmlns="http://www.w3.org/2000/svg" width="330.719" height="332.764" viewBox="0 0 330.719 332.764">
  <g id="Group_1411" data-name="Group 1411" transform="translate(-1264.311 -3746.25)">
    <path id="Path_1636" data-name="Path 1636" d="M64.087,215.115s-.817,26.148,3.286,27.642c3.093,1.128,18.085-21.17,18.085-21.17s49.283,15.387,99.717-18.234C229.9,173.54,260.34,68.918,173.594,19,110.208-17.474,51.675,1.976,17.659,48.4-7.611,82.875-16.064,157.086,64.087,215.115" transform="translate(1382.674 4079.014) rotate(-119)" fill="#afaf62"/>
    <rect id="Rectangle_451" data-name="Rectangle 451" width="228.937" height="242.798" transform="matrix(-0.777, -0.629, 0.629, -0.777, 1442.229, 4079.014)" fill="none"/>
    <g id="Group_1105" data-name="Group 1105" transform="translate(1377.033 3882.278)">
      <g id="Group_1106" data-name="Group 1106" transform="translate(0 0)">
        <path id="Path_1648" data-name="Path 1648" d="M38.619,23.033a2.071,2.071,0,0,0-1.457-.815c.058-.176.115-.36.175-.568a5.482,5.482,0,0,0-.882.557,5.059,5.059,0,0,0-.763.113c.091-.334,1.1-.228.718-.854-.485-.756-1.47.171-2.055.167-.939-.009.585.7.5.666a.864.864,0,0,1-.048.269,13.514,13.514,0,0,0-1.361.551c.015-.113.022-.219-.007-.225a1.4,1.4,0,0,0-.1.277,36.694,36.694,0,0,0-5.575,3.5c-.147-.275-.4-.494-.731-.1a1.211,1.211,0,0,0-.026.661q-.337.253-.663.511c-.34-.15-.665-.325-.665-.325.4.75-1.916.7-2.473.518-.093-.046-.115-.065-.111-.085a4.274,4.274,0,0,1-.967.817.452.452,0,0,0-.078-.149c-.05-.052-.074.08-.061.234-1.463.887-3.42,1.316-4.411,2.139.007.048.013.085.02.149l-.121.033s0-.056,0-.1a1.481,1.481,0,0,0-.453,1.628c-1.058-2.718.273,1.121-.52-.557.557,1.184.692,2.322,1.4,2.575-.193-.069.377-.418,1.235-.841a28.467,28.467,0,0,1-3.058,2.6c4.547,2.857,26.628-7.829,22.527-13.346M17.5,32.95c-.02.288-.1.212-.223-.234,0,0,.366-.188.223.234m2.057-2.257c.271,1.762-.589-.967,0,0m-.15,1.624c.024.065.234.85,0,0m-.193-1.446c.416,1.212.007.286-.015.2-.028-.156-.024-.223.015-.2m-.416.071c.16-.488,1.09,1.964.069.124.024.041-.069-.124-.069-.124m.351,1.389c-.026.082.069.412-.1.052Zm.191,1.279a.338.338,0,0,1-.21-.243c.048-.009.321-.028.574-.078l-.364.321m.429-1.7c-.267-.492.019-.325.123-.124Zm.306.828c-.022.115-.082-.306.015-.245Zm.332-.871c-.039-.429,0-.451.11-.072.1.355,0,.232-.11.072m.613-.7a.567.567,0,0,1,.143.379c-.1-.041-.147-.167-.143-.379m.622-.581c.046.228-.147-.11,0,0m.47.095.048.338c-.024.252-.173-.4-.048-.338m.343.215a1.159,1.159,0,0,1-.277-.65,1.358,1.358,0,0,1,.277.65m.264-.217c-.033-.061-.063-.128-.111-.225,0,0,.173.162.111.225" transform="translate(-21.092 6.814)"/>
        <path id="Path_1865" data-name="Path 1865" d="M38.619,23.033a2.071,2.071,0,0,0-1.457-.815c.058-.176.115-.36.175-.568a5.482,5.482,0,0,0-.882.557,5.059,5.059,0,0,0-.763.113c.091-.334,1.1-.228.718-.854-.485-.756-1.47.171-2.055.167-.939-.009.585.7.5.666a.864.864,0,0,1-.048.269,13.514,13.514,0,0,0-1.361.551c.015-.113.022-.219-.007-.225a1.4,1.4,0,0,0-.1.277,36.694,36.694,0,0,0-5.575,3.5c-.147-.275-.4-.494-.731-.1a1.211,1.211,0,0,0-.026.661q-.337.253-.663.511c-.34-.15-.665-.325-.665-.325.4.75-1.916.7-2.473.518-.093-.046-.115-.065-.111-.085a4.274,4.274,0,0,1-.967.817.452.452,0,0,0-.078-.149c-.05-.052-.074.08-.061.234-1.463.887-3.42,1.316-4.411,2.139.007.048.013.085.02.149l-.121.033s0-.056,0-.1a1.481,1.481,0,0,0-.453,1.628c-1.058-2.718.273,1.121-.52-.557.557,1.184.692,2.322,1.4,2.575-.193-.069.377-.418,1.235-.841a28.467,28.467,0,0,1-3.058,2.6c4.547,2.857,26.628-7.829,22.527-13.346M17.5,32.95c-.02.288-.1.212-.223-.234,0,0,.366-.188.223.234m2.057-2.257c.271,1.762-.589-.967,0,0m-.15,1.624c.024.065.234.85,0,0m-.193-1.446c.416,1.212.007.286-.015.2-.028-.156-.024-.223.015-.2m-.416.071c.16-.488,1.09,1.964.069.124.024.041-.069-.124-.069-.124m.351,1.389c-.026.082.069.412-.1.052Zm.191,1.279a.338.338,0,0,1-.21-.243c.048-.009.321-.028.574-.078l-.364.321m.429-1.7c-.267-.492.019-.325.123-.124Zm.306.828c-.022.115-.082-.306.015-.245Zm.332-.871c-.039-.429,0-.451.11-.072.1.355,0,.232-.11.072m.613-.7a.567.567,0,0,1,.143.379c-.1-.041-.147-.167-.143-.379m.622-.581c.046.228-.147-.11,0,0m.47.095.048.338c-.024.252-.173-.4-.048-.338m.343.215a1.159,1.159,0,0,1-.277-.65,1.358,1.358,0,0,1,.277.65m.264-.217c-.033-.061-.063-.128-.111-.225,0,0,.173.162.111.225" transform="translate(5.327 68.017) rotate(-138)"/>
      </g>
    </g>
    <g id="Group_1408" data-name="Group 1408" transform="translate(1456.461 3882.278)">
      <g id="Group_1106-2" data-name="Group 1106" transform="translate(-9.713 14.449)">
        <path id="Path_1648-2" data-name="Path 1648" d="M16.559,35.551A1.873,1.873,0,0,0,17.9,36.4c-.053.183-.106.375-.161.591a5.008,5.008,0,0,0,.814-.579,4.185,4.185,0,0,0,.7-.118c-.084.348-1.02.238-.664.888.448.786,1.358-.178,1.9-.174.868.01-.54-.724-.466-.693a1,1,0,0,1,.045-.28,11.716,11.716,0,0,0,1.257-.574c-.014.118-.021.228.007.234a1.579,1.579,0,0,0,.089-.288,33.561,33.561,0,0,0,5.149-3.637c.135.286.374.514.676.1a1.412,1.412,0,0,0,.024-.688c.207-.176.412-.353.612-.531.314.156.614.338.614.338-.374-.78,1.77-.732,2.284-.539.086.048.106.068.1.089a4.11,4.11,0,0,1,.893-.85.493.493,0,0,0,.072.155c.046.054.069-.083.057-.243,1.351-.923,3.158-1.369,4.074-2.225-.007-.05-.012-.089-.019-.155l.111-.035s0,.058,0,.1a1.665,1.665,0,0,0,.418-1.694c.977,2.828-.252-1.167.48.579-.514-1.232-.64-2.416-1.293-2.679.178.071-.348.435-1.14.875a27.3,27.3,0,0,1,2.824-2.706c-4.2-2.973-24.594,8.145-20.806,13.885m19.5-10.318c.019-.3.089-.22.206.243,0,0-.338.2-.206-.243m-1.9,2.349c-.25-1.833.544,1.006,0,0m.139-1.69c-.022-.068-.216-.885,0,0m.178,1.5c-.384-1.261-.007-.3.014-.211.026.162.022.232-.014.211m.384-.073c-.147.508-1.007-2.044-.063-.129-.022-.042.063.129.063.129m-.324-1.445c.024-.085-.063-.429.089-.054Zm-.177-1.331c.079.025.146.1.194.253-.045.01-.3.029-.53.081l.336-.334m-.4,1.767c.247.512-.017.338-.113.129Zm-.283-.861c.021-.12.075.319-.014.255Zm-.307.906c.036.446,0,.469-.1.075-.093-.369,0-.241.1-.075m-.566.724a.635.635,0,0,1-.132-.394c.089.042.135.174.132.394m-.574.6c-.043-.238.135.114,0,0m-.434-.1-.045-.352c.022-.263.159.413.045.352m-.317-.224a1.285,1.285,0,0,1,.255.676,1.51,1.51,0,0,1-.255-.676m-.243.226c.031.064.058.133.1.234,0,0-.159-.168-.1-.234" transform="translate(-15.996 -21.169)"/>
        <path id="Path_1865-2" data-name="Path 1865" d="M21.328,2.159a2.33,2.33,0,0,0-1.47-.89C19.9,1.1,19.95.92,20,.718a4.555,4.555,0,0,0-.828.5,4.671,4.671,0,0,0-.738.068c.069-.325,1.065-.161.652-.8-.517-.775-1.425.083-2,.046-.917-.064.611.722.531.688a.818.818,0,0,1-.031.263,11.608,11.608,0,0,0-1.3.466c.008-.111.009-.215-.02-.222a1.252,1.252,0,0,0-.078.268,30.469,30.469,0,0,0-5.238,3.13c-.159-.28-.424-.511-.72-.14a1.2,1.2,0,0,0,.013.652c-.209.154-.415.31-.617.466-.34-.168-.667-.36-.667-.36.439.765-1.829.584-2.383.368-.093-.051-.116-.071-.114-.091a3.511,3.511,0,0,1-.9.751.519.519,0,0,0-.085-.151c-.052-.054-.068.075-.046.228-1.376.792-3.261,1.1-4.181,1.857.01.048.018.085.029.148l-.116.026s0-.055,0-.1A1.364,1.364,0,0,0,.82,10.36c-1.191-2.747.331,1.124-.54-.581.612,1.2.811,2.335,1.516,2.626-.192-.079.344-.391,1.156-.759A23.364,23.364,0,0,1,.119,14.038c4.6,3.087,25.531-6.189,21.209-11.879M1.295,10.732c0,.283-.082.2-.231-.244,0,0,.346-.164.231.244M3.171,8.621c.367,1.757-.63-.99,0,0m-.052,1.6c.027.066.278.854,0,0m-.272-1.44c.476,1.222.024.283,0,.2-.036-.156-.036-.222,0-.2m-.4.046c.127-.473,1.178,2,.074.127.026.042-.074-.127-.074-.127m.423,1.393c-.021.079.091.411-.091.046Zm.261,1.275a.391.391,0,0,1-.219-.252c.047-.006.312-.009.555-.044l-.336.3m.32-1.654c-.289-.5,0-.32.112-.116Zm.347.836c-.015.112-.1-.307,0-.241Zm.274-.841c-.063-.426-.026-.446.1-.065.118.356.012.229-.1.065m.557-.652a.632.632,0,0,1,.161.383c-.1-.046-.153-.174-.161-.383M5.2,8.641c.059.228-.149-.117,0,0m.464.121L5.73,9.1c-.009.248-.192-.4-.067-.337m.348.233A1.31,1.31,0,0,1,5.7,8.336a1.534,1.534,0,0,1,.308.658m.245-.2c-.036-.062-.069-.13-.122-.228,0,0,.178.17.122.228" transform="translate(9.697 3.487) rotate(42)"/>
      </g>
    </g>
    <g id="Group_1404" data-name="Group 1404" transform="matrix(0.996, 0.087, -0.087, 0.996, 321.395, -105.091)">
      <path id="Path_1654" data-name="Path 1654" d="M37.066,9.688a1.216,1.216,0,0,0,.218-.986,11.3,11.3,0,0,0-1.345-1.426A13.93,13.93,0,0,0,26.055.595c-.066-.026-.134-.049-.194-.075,3.413-.764,1.666-.566-.436-.161-1.1-.4-1.723-.537-.123.024-.086.018-.17.035-.258.049a25.65,25.65,0,0,0-10.085.841,2.547,2.547,0,0,0-1.983.62q-.9.313-1.784.678a.409.409,0,0,0-.057-.247c-.236-.4-.379.125-.374.442-.924.4-1.826.849-2.695,1.331a.277.277,0,0,1,.123-.134.543.543,0,0,0-.222.191,24.865,24.865,0,0,0-7.187,5.9c-1.9,2.363-.136,6.932,3.233,6.39,4.157-.671,7.8-7.435,12.644-8.8A14.29,14.29,0,0,1,29.391,9.9c.528.381,9.706,8.707,8.441,2.464a18.1,18.1,0,0,0-.766-2.676" transform="matrix(-0.985, 0.174, -0.174, -0.985, 1456.883, 3955.162)"/>
      <path id="Path_1867" data-name="Path 1867" d="M37.066,9.688a1.216,1.216,0,0,0,.218-.986,11.3,11.3,0,0,0-1.345-1.426A13.93,13.93,0,0,0,26.055.595c-.066-.026-.134-.049-.194-.075,3.413-.764,1.666-.566-.436-.161-1.1-.4-1.723-.537-.123.024-.086.018-.17.035-.258.049a25.65,25.65,0,0,0-10.085.841,2.547,2.547,0,0,0-1.983.62q-.9.313-1.784.678a.409.409,0,0,0-.057-.247c-.236-.4-.379.125-.374.442-.924.4-1.826.849-2.695,1.331a.277.277,0,0,1,.123-.134.543.543,0,0,0-.222.191,24.865,24.865,0,0,0-7.187,5.9c-1.9,2.363-.136,6.932,3.233,6.39,4.157-.671,7.8-7.435,12.644-8.8A14.29,14.29,0,0,1,29.391,9.9c.528.381,9.706,8.707,8.441,2.464a18.1,18.1,0,0,0-.766-2.676" transform="matrix(-0.985, 0.174, -0.174, -0.985, 1511.019, 3942.891)"/>
      <path id="Path_1654-2" data-name="Path 1654" d="M64.859,65.912a1.216,1.216,0,0,0,.218-.986A11.3,11.3,0,0,0,63.731,63.5a13.93,13.93,0,0,0-9.884-6.681c-.066-.026-.134-.049-.194-.075,3.413-.764,1.666-.566-.436-.161-1.1-.4-1.723-.537-.123.024-.086.018-.17.035-.258.049A25.65,25.65,0,0,0,42.75,57.5a2.547,2.547,0,0,0-1.983.62q-.9.313-1.784.678a.409.409,0,0,0-.057-.247c-.236-.4-.379.125-.374.442-.924.4-1.826.849-2.695,1.331a.277.277,0,0,1,.123-.134.543.543,0,0,0-.222.191,24.865,24.865,0,0,0-7.187,5.9c-1.9,2.363-.136,6.932,3.233,6.39,4.157-.671,7.8-7.435,12.644-8.8a14.29,14.29,0,0,1,12.734,2.262c.528.381,9.706,8.707,8.441,2.464a18.1,18.1,0,0,0-.766-2.676" transform="matrix(0.998, 0.07, -0.07, 0.998, 1365.227, 3882.349)"/>
      <path id="Path_1866" data-name="Path 1866" d="M64.859,65.912a1.216,1.216,0,0,0,.218-.986A11.3,11.3,0,0,0,63.731,63.5a13.93,13.93,0,0,0-9.884-6.681c-.066-.026-.134-.049-.194-.075,3.413-.764,1.666-.566-.436-.161-1.1-.4-1.723-.537-.123.024-.086.018-.17.035-.258.049A25.65,25.65,0,0,0,42.75,57.5a2.547,2.547,0,0,0-1.983.62q-.9.313-1.784.678a.409.409,0,0,0-.057-.247c-.236-.4-.379.125-.374.442-.924.4-1.826.849-2.695,1.331a.277.277,0,0,1,.123-.134.543.543,0,0,0-.222.191,24.865,24.865,0,0,0-7.187,5.9c-1.9,2.363-.136,6.932,3.233,6.39,4.157-.671,7.8-7.435,12.644-8.8a14.29,14.29,0,0,1,12.734,2.262c.528.381,9.706,8.707,8.441,2.464a18.1,18.1,0,0,0-.766-2.676" transform="matrix(0.996, -0.087, 0.087, 0.996, 1411.176, 3880.333)"/>
    </g>
  </g>
</svg>
