<svg width="228.937" height="242.798" xmlns="http://www.w3.org/2000/svg"><defs><clipPath id="Ikon_vrede_og_raseri_svg__a"><path fill="none" d="M0 0h228.937v242.798H0z" data-name="Rectangle 451"/></clipPath></defs><g data-name="Group 1100"><g clip-path="url(#Ikon_vrede_og_raseri_svg__a)" data-name="Group 1099"><path fill="#d65050" d="M64.087 215.115s-.817 26.148 3.286 27.642c3.093 1.128 18.085-21.17 18.085-21.17s49.283 15.387 99.717-18.234C229.9 173.54 260.34 68.918 173.594 19 110.208-17.474 51.675 1.976 17.659 48.4c-25.27 34.475-33.723 108.686 46.428 166.715" data-name="Path 1636"/><path d="M82.389 143.14s.085-.334.25-.954a27.345 27.345 0 0 1 .87-2.6 42 42 0 0 1 4.506-8.614 35.24 35.24 0 0 1 10.084-9.894c1.107-.733 2.348-1.3 3.556-1.969 1.24-.592 2.585-1.007 3.9-1.506 1.353-.387 2.75-.66 4.136-.979 1.4-.213 2.823-.314 4.24-.419l.532-.04h.402l.121.008.234.012.942.052 1.881.109a34.315 34.315 0 0 1 4.357.717 29.129 29.129 0 0 1 7.772 3.27 45.994 45.994 0 0 1 3.222 2.336c.926.89 1.893 1.711 2.7 2.605a33.42 33.42 0 0 1 4.011 5.392 39.531 39.531 0 0 1 3.886 8.976 26.051 26.051 0 0 1 .644 2.658c.117.66.181 1.011.181 1.011a2.121 2.121 0 0 1-4.035 1.216l-.084-.21s-.109-.258-.314-.733c-.234-.5-.584-1.228-1.027-2.163a41.288 41.288 0 0 0-4.53-7.16 35.019 35.019 0 0 0-3.7-4.007c-.7-.648-1.5-1.2-2.251-1.824q-1.238-.773-2.517-1.579a23.722 23.722 0 0 0-5.692-2.074 22.652 22.652 0 0 0-3.012-.471l-1.878-.069-.942-.04-.238-.008H114.451c-.262 0 .318 0 .246.008h-.044l-.411.044c-1.083.137-2.187.141-3.258.29-1.055.242-2.122.415-3.153.685-1.007.354-2.005.709-2.992 1.055-.934.471-1.917.83-2.8 1.357a35.626 35.626 0 0 0-8.908 7.317 48.314 48.314 0 0 0-5.114 6.834c-.532.89-.946 1.591-1.228 2.066l-.4.729-.064.129a2.129 2.129 0 0 1-3.93-1.558" data-name="Path 1637"/><path d="M88.204 110.779a7.825 7.825 0 1 1-7.776-7.869 7.829 7.829 0 0 1 7.776 7.869" data-name="Path 1638"/><path d="M70.871 93.757a26.913 26.913 0 0 1 4.4 1.152 55.318 55.318 0 0 1 8.863 3.987 58.757 58.757 0 0 1 8.09 5.4 28.932 28.932 0 0 1 3.337 3.061 2.251 2.251 0 0 1-.185 3.181 2.286 2.286 0 0 1-1.86.54 28.836 28.836 0 0 1-4.377-1.188 58.529 58.529 0 0 1-8.884-3.955 55.4 55.4 0 0 1-8.11-5.36 27.53 27.53 0 0 1-3.318-3.1 2.267 2.267 0 0 1 2.044-3.718" data-name="Path 1639"/><path d="M159.214 111.222a7.825 7.825 0 1 1-7.772-7.869 7.826 7.826 0 0 1 7.772 7.869" data-name="Path 1640"/><path d="M162.415 98.066a27.075 27.075 0 0 1-3.36 3.056 54.7 54.7 0 0 1-8.171 5.255 58.147 58.147 0 0 1-8.936 3.842 29.289 29.289 0 0 1-4.393 1.132 2.251 2.251 0 0 1-2.565-1.889 2.28 2.28 0 0 1 .568-1.856 29.08 29.08 0 0 1 3.379-3.02 58.342 58.342 0 0 1 8.151-5.292 55.183 55.183 0 0 1 8.916-3.878 27.32 27.32 0 0 1 4.41-1.1 2.263 2.263 0 0 1 2 3.745" data-name="Path 1641"/></g></g></svg>