<svg xmlns="http://www.w3.org/2000/svg" xmlns:xlink="http://www.w3.org/1999/xlink" width="162.447" height="162.447" viewBox="0 0 162.447 162.447">
  <defs>
    <filter id="Nuance_A4_5d" x="0" y="0" width="162.447" height="162.447" filterUnits="userSpaceOnUse">
      <feOffset dx="5" dy="6" input="SourceAlpha"/>
      <feGaussianBlur stdDeviation="5" result="blur"/>
      <feFlood flood-opacity="0.384"/>
      <feComposite operator="in" in2="blur"/>
      <feComposite in="SourceGraphic"/>
    </filter>
    <clipPath id="clip-path">
      <rect width="54.357" height="45.981" fill="none"/>
    </clipPath>
  </defs>
  <g id="Group_1401" data-name="Group 1401" transform="translate(-2726.074 -1482.059)">
    <g id="Group_207" data-name="Group 207" transform="translate(2736.074 1491.059)">
      <g transform="matrix(1, 0, 0, 1, -10, -9)" filter="url(#Nuance_A4_5d)">
        <circle id="Nuance_A4_5d-2" data-name="Nuance A4 5d" cx="66.224" cy="66.224" r="66.224" transform="translate(10 9)" fill="#323f51"/>
      </g>
    </g>
    <g id="Repeat_Grid_2" data-name="Repeat Grid 2" transform="translate(2773.593 1542.086)" clip-path="url(#clip-path)">
      <g transform="translate(-2773.593 -1542.086)">
        <g id="Group_399" data-name="Group 399" transform="matrix(-0.07, 0.998, -0.998, -0.07, 2827.949, 1545.68)">
          <path id="Path_617" data-name="Path 617" d="M3.376.012,37.077,2.9a4.777,4.777,0,0,1,3.992,4.436c.174,2.276-1.332,3.98-3.363,3.807L4.006,8.255A4.777,4.777,0,0,1,.014,3.819h0C-.16,1.543,1.345-.162,3.376.012Z" transform="translate(5.132 0) rotate(27.403)" fill="#fff"/>
          <path id="Path_618" data-name="Path 618" d="M4.144,3.522,38.438.018A3.078,3.078,0,0,1,41.8,3.651h0a4.954,4.954,0,0,1-4.124,4.4L3.38,11.552A3.078,3.078,0,0,1,.02,7.919,4.954,4.954,0,0,1,4.144,3.522Z" transform="matrix(-0.817, 0.576, -0.576, -0.817, 42.491, 27.424)" fill="#fff"/>
        </g>
      </g>
    </g>
  </g>
</svg>
