<svg width="162.447" height="162.447" xmlns="http://www.w3.org/2000/svg"><defs><clipPath id="icon_arrow_down_blue_svg__b"><path fill="none" d="M0 0h54.357v45.981H0z"/></clipPath><filter id="icon_arrow_down_blue_svg__a" width="162.447" height="162.447" x="0" y="0" filterUnits="userSpaceOnUse"><feOffset dx="5" dy="6"/><feGaussianBlur result="blur" stdDeviation="5"/><feFlood flood-opacity=".384"/><feComposite in2="blur" operator="in"/><feComposite in="SourceGraphic"/></filter></defs><g data-name="Group 1401"><g data-name="Group 207" filter="url(#icon_arrow_down_blue_svg__a)"><circle cx="66.224" cy="66.224" r="66.224" fill="#323f51" data-name="Nuance A4 5d" transform="translate(10 9)"/></g><g clip-path="url(#icon_arrow_down_blue_svg__b)" data-name="Repeat Grid 2" transform="translate(47.519 60.027)"><g fill="#fff" data-name="Group 399"><path d="M52.226 11.592 32.186 38.86a4.78 4.78 0 0 1-5.869 1.095c-2.034-1.038-2.704-3.213-1.497-4.857L44.86 7.831a4.78 4.78 0 0 1 5.869-1.095c2.034 1.038 2.705 3.213 1.497 4.856Z" data-name="Path 617"/><path d="m24.881 38.711-20.75-27.53a3.078 3.078 0 0 1 1.367-4.758 4.954 4.954 0 0 1 5.9 1.25l20.75 27.535a3.078 3.078 0 0 1-1.37 4.756 4.954 4.954 0 0 1-5.897-1.253Z" data-name="Path 618"/></g></g></g></svg>