<svg width="1390.186" height="1063.182" xmlns="http://www.w3.org/2000/svg"><g data-name="Group 1344"><path fill="#323f51" d="M695.093 4.353c330.351-42.182 695.093 228.494 695.093 540.093s-338.87 452.52-719.329 510.51S0 856.045 0 544.446 364.742 46.535 695.093 4.353Z" data-name="Path 678"/><path fill="#e79e17" d="M695.092 307.181c233.393-25.411 491.083 137.647 491.083 325.358s-239.411 272.6-508.206 307.537S204.01 820.25 204.01 632.539 461.7 332.592 695.092 307.181Z" data-name="Path 679"/><path fill="#009cb2" d="M694.761 535.437c153.124-13.357 322.19 72.353 322.19 171.021S859.878 849.751 683.526 868.113 372.57 805.128 372.57 706.458s169.066-157.664 322.191-171.021Z" data-name="Path 680"/><path fill="#fff" d="M349.656 219.636a21.092 21.092 0 0 1-1.3 7.535 17.256 17.256 0 0 1-3.672 5.9 16.411 16.411 0 0 1-5.7 3.838 19.219 19.219 0 0 1-7.356 1.367 19.123 19.123 0 0 1-7.344-1.364 16.439 16.439 0 0 1-5.686-3.837 17.256 17.256 0 0 1-3.672-5.9 21.092 21.092 0 0 1-1.3-7.535 21.092 21.092 0 0 1 1.3-7.535 17.394 17.394 0 0 1 3.672-5.916 16.5 16.5 0 0 1 5.687-3.863 18.967 18.967 0 0 1 7.344-1.377 19.062 19.062 0 0 1 7.357 1.377 16.473 16.473 0 0 1 5.7 3.863 17.394 17.394 0 0 1 3.672 5.916 21.092 21.092 0 0 1 1.298 7.531Zm-5.074 0a18.571 18.571 0 0 0-.918-6.043 12.783 12.783 0 0 0-2.6-4.526 11.287 11.287 0 0 0-4.08-2.843 13.851 13.851 0 0 0-5.355-.995 13.781 13.781 0 0 0-5.329.995 11.408 11.408 0 0 0-4.093 2.843 12.679 12.679 0 0 0-2.615 4.527 18.571 18.571 0 0 0-.918 6.043 18.455 18.455 0 0 0 .918 6.031 12.7 12.7 0 0 0 2.614 4.513 11.273 11.273 0 0 0 4.093 2.831 13.938 13.938 0 0 0 5.329.982 14.009 14.009 0 0 0 5.351-.983 11.154 11.154 0 0 0 4.08-2.831 12.8 12.8 0 0 0 2.6-4.513 18.455 18.455 0 0 0 .92-6.031Zm16.473-18.284h3.953a1.646 1.646 0 0 1 1.071.332 2.039 2.039 0 0 1 .612.841l10.327 25.781a18.085 18.085 0 0 1 .65 1.887q.293 1.02.574 2.116.229-1.1.5-2.116a14.878 14.878 0 0 1 .625-1.887l10.273-25.78a2.136 2.136 0 0 1 .612-.8 1.593 1.593 0 0 1 1.071-.37h3.978l-14.891 36.538h-4.463Zm71.629 0v4.029H415.14v12.138h14.2v3.875h-14.2v12.47h17.544v4.03h-22.516v-36.542Zm22.746 21.293v15.249h-4.921v-36.542h10.327a22.566 22.566 0 0 1 5.992.7 11.437 11.437 0 0 1 4.169 2.027 8.117 8.117 0 0 1 2.435 3.2 10.7 10.7 0 0 1 .79 4.195 10.516 10.516 0 0 1-.612 3.621 9.564 9.564 0 0 1-1.772 3.022 10.6 10.6 0 0 1-2.831 2.282 14.012 14.012 0 0 1-3.787 1.428 5.224 5.224 0 0 1 1.632 1.556l10.661 14.511h-4.386a2.163 2.163 0 0 1-1.989-1.046l-9.485-13.054a2.763 2.763 0 0 0-.943-.88 3.4 3.4 0 0 0-1.53-.268Zm0-3.6h5.176a12.6 12.6 0 0 0 3.812-.523 7.757 7.757 0 0 0 2.754-1.479 6.134 6.134 0 0 0 1.67-2.282 7.452 7.452 0 0 0 .561-2.932 5.824 5.824 0 0 0-2.155-4.922q-2.155-1.658-6.413-1.657h-5.406Zm37.613 18.849v-36.542h11.654a22.28 22.28 0 0 1 5.8.663 11.235 11.235 0 0 1 4 1.887 7.444 7.444 0 0 1 2.321 3 10.122 10.122 0 0 1 .756 3.992 8.1 8.1 0 0 1-.421 2.6 7.581 7.581 0 0 1-1.275 2.32 9.014 9.014 0 0 1-2.142 1.913 11.933 11.933 0 0 1-3.022 1.377 11.267 11.267 0 0 1 6.043 2.881 7.55 7.55 0 0 1 2.04 5.508 10.264 10.264 0 0 1-.854 4.233 9.069 9.069 0 0 1-2.5 3.289 11.658 11.658 0 0 1-4.029 2.129 18.087 18.087 0 0 1-5.443.75Zm4.947-16.652v12.725h7.9a12.019 12.019 0 0 0 3.634-.484 6.775 6.775 0 0 0 2.5-1.364 5.289 5.289 0 0 0 1.441-2.091 7.464 7.464 0 0 0 .459-2.665 5.485 5.485 0 0 0-2-4.475q-2-1.645-6.056-1.645Zm0-3.519h6.528a12.673 12.673 0 0 0 3.621-.459 7.329 7.329 0 0 0 2.54-1.27 4.985 4.985 0 0 0 1.492-1.976 6.519 6.519 0 0 0 .485-2.537 5.6 5.6 0 0 0-1.938-4.717q-1.938-1.5-6.018-1.5h-6.706Zm60.767-16.371v4.029h-17.544v12.138h14.2v3.875h-14.2v12.47h17.544v4.03H536.24v-36.542Zm22.261 32.386h15.81v4.156h-20.757v-36.542h4.947Zm61.532 4.156h-3.825a1.646 1.646 0 0 1-1.071-.331 2.039 2.039 0 0 1-.612-.841l-3.417-8.828h-16.4l-3.417 8.823a1.992 1.992 0 0 1-.612.816 1.629 1.629 0 0 1-1.068.361h-3.825l14.611-36.542h5.023Zm-23.945-13.566h13.642l-5.737-14.867a27.785 27.785 0 0 1-1.1-3.442q-.281 1.046-.548 1.925t-.523 1.543Zm57.474-17.264a1.977 1.977 0 0 1-.484.574 1.076 1.076 0 0 1-.663.191 1.766 1.766 0 0 1-1.007-.433 16.048 16.048 0 0 0-1.453-.956 11.8 11.8 0 0 0-2.116-.956 9.107 9.107 0 0 0-3-.433 8.86 8.86 0 0 0-2.933.446 6.235 6.235 0 0 0-2.129 1.211 4.972 4.972 0 0 0-1.288 1.8 5.706 5.706 0 0 0-.434 2.231 4.123 4.123 0 0 0 .752 2.537 6.481 6.481 0 0 0 1.995 1.718 15.237 15.237 0 0 0 2.805 1.237q1.568.523 3.213 1.084t3.213 1.262a11.3 11.3 0 0 1 2.8 1.772 8.079 8.079 0 0 1 1.989 2.627 8.742 8.742 0 0 1 .752 3.825 12.337 12.337 0 0 1-.816 4.5 10.376 10.376 0 0 1-2.384 3.659 11.154 11.154 0 0 1-3.851 2.448 14.163 14.163 0 0 1-5.189.893 15.846 15.846 0 0 1-6.459-1.287 15.163 15.163 0 0 1-4.985-3.481l1.428-2.346a1.877 1.877 0 0 1 .5-.472 1.165 1.165 0 0 1 .65-.191 2.029 2.029 0 0 1 1.224.574 20.4 20.4 0 0 0 1.721 1.262 13.147 13.147 0 0 0 2.5 1.262 9.862 9.862 0 0 0 3.583.574 9.42 9.42 0 0 0 3.136-.485 6.661 6.661 0 0 0 2.33-1.363 5.91 5.91 0 0 0 1.466-2.1 7.03 7.03 0 0 0 .51-2.728 4.579 4.579 0 0 0-.752-2.716 6.236 6.236 0 0 0-1.976-1.772 13.815 13.815 0 0 0-2.792-1.211l-3.213-1.02a32.4 32.4 0 0 1-3.213-1.211 10.442 10.442 0 0 1-2.792-1.785 8.2 8.2 0 0 1-1.976-2.741 9.763 9.763 0 0 1-.752-4.067 9.679 9.679 0 0 1 .752-3.749 9.662 9.662 0 0 1 2.18-3.213 10.567 10.567 0 0 1 3.532-2.244 12.937 12.937 0 0 1 4.832-.841 15.468 15.468 0 0 1 5.585.969 12.86 12.86 0 0 1 4.409 2.8Zm43.4-5.712v4.157h-11.8v32.385h-4.947v-32.385h-11.86v-4.157Zm17.952 0a2.219 2.219 0 0 1 .982.166 2.54 2.54 0 0 1 .727.676l21.169 27.54q-.076-.663-.1-1.288t-.026-1.211v-25.883h4.335v36.542h-2.5a2.126 2.126 0 0 1-.982-.2 2.479 2.479 0 0 1-.778-.688l-21.14-27.519q.051.638.076 1.249t.026 1.122v26.036h-4.335v-36.542Zm52.075 36.542h-4.947v-36.542h4.947Zm22.542-36.542a2.219 2.219 0 0 1 .982.166 2.54 2.54 0 0 1 .727.676l21.165 27.54q-.076-.663-.1-1.288t-.026-1.211v-25.883h4.335v36.542h-2.5a2.126 2.126 0 0 1-.982-.2 2.479 2.479 0 0 1-.778-.688l-21.14-27.519q.051.638.076 1.249t.026 1.122v26.036h-4.335v-36.542Zm62.501 32.942a24.211 24.211 0 0 0 2.716-.14 17.262 17.262 0 0 0 2.333-.421 15.891 15.891 0 0 0 2.065-.676q.969-.4 1.938-.905v-8.058h-5.661a1.078 1.078 0 0 1-.778-.28.916.916 0 0 1-.293-.689v-2.805h11.22v14.03a20.271 20.271 0 0 1-2.869 1.734 19.54 19.54 0 0 1-3.187 1.237 23.079 23.079 0 0 1-3.634.74 34.023 34.023 0 0 1-4.207.242 18.985 18.985 0 0 1-7.293-1.365 16.793 16.793 0 0 1-5.712-3.825 17.365 17.365 0 0 1-3.736-5.9 20.727 20.727 0 0 1-1.339-7.574 21.235 21.235 0 0 1 1.313-7.624 16.774 16.774 0 0 1 3.748-5.9 16.751 16.751 0 0 1 5.891-3.812 21.094 21.094 0 0 1 7.739-1.352 23.9 23.9 0 0 1 4.029.319 18.834 18.834 0 0 1 3.455.918 16.1 16.1 0 0 1 2.945 1.454 18 18 0 0 1 2.524 1.925l-1.4 2.244a1.29 1.29 0 0 1-1.122.688 1.807 1.807 0 0 1-.893-.281q-.637-.357-1.428-.867a12.231 12.231 0 0 0-1.925-.982 15.5 15.5 0 0 0-2.677-.8 17.626 17.626 0 0 0-3.659-.332 14.818 14.818 0 0 0-5.584 1.007 11.813 11.813 0 0 0-4.259 2.882 12.753 12.753 0 0 0-2.7 4.539 17.834 17.834 0 0 0-.943 5.98 18.12 18.12 0 0 0 .982 6.184 13.058 13.058 0 0 0 2.767 4.6 11.941 11.941 0 0 0 4.233 2.882 14.236 14.236 0 0 0 5.401.983Zm50.056-27.23a1.977 1.977 0 0 1-.484.574 1.076 1.076 0 0 1-.663.191 1.766 1.766 0 0 1-1.007-.433 16.057 16.057 0 0 0-1.453-.956 11.8 11.8 0 0 0-2.117-.956 9.107 9.107 0 0 0-3-.433 8.86 8.86 0 0 0-2.932.446 6.235 6.235 0 0 0-2.129 1.211 4.972 4.972 0 0 0-1.288 1.8 5.706 5.706 0 0 0-.433 2.231 4.124 4.124 0 0 0 .752 2.537 6.481 6.481 0 0 0 1.989 1.721 15.239 15.239 0 0 0 2.8 1.237q1.568.523 3.213 1.084t3.213 1.262a11.3 11.3 0 0 1 2.8 1.772 8.079 8.079 0 0 1 1.989 2.627 8.741 8.741 0 0 1 .752 3.825 12.336 12.336 0 0 1-.816 4.5 10.376 10.376 0 0 1-2.384 3.659 11.153 11.153 0 0 1-3.838 2.447 14.163 14.163 0 0 1-5.19.892 15.846 15.846 0 0 1-6.464-1.288 15.163 15.163 0 0 1-4.985-3.481l1.428-2.346a1.878 1.878 0 0 1 .5-.472 1.165 1.165 0 0 1 .65-.191 2.029 2.029 0 0 1 1.224.574 20.386 20.386 0 0 0 1.721 1.262 13.146 13.146 0 0 0 2.5 1.262 9.862 9.862 0 0 0 3.583.574 9.421 9.421 0 0 0 3.137-.485 6.662 6.662 0 0 0 2.333-1.364 5.911 5.911 0 0 0 1.466-2.1 7.029 7.029 0 0 0 .51-2.728 4.578 4.578 0 0 0-.752-2.716 6.236 6.236 0 0 0-1.976-1.772 13.814 13.814 0 0 0-2.792-1.211l-3.213-1.02a32.4 32.4 0 0 1-3.213-1.211 10.442 10.442 0 0 1-2.792-1.785 8.2 8.2 0 0 1-1.976-2.741 9.763 9.763 0 0 1-.752-4.067 9.678 9.678 0 0 1 .752-3.749 9.663 9.663 0 0 1 2.18-3.213 10.566 10.566 0 0 1 3.532-2.244 12.937 12.937 0 0 1 4.832-.841 15.468 15.468 0 0 1 5.584.969 12.86 12.86 0 0 1 4.411 2.805Zm44.319-6.324v3.111a4.015 4.015 0 0 1-.217 1.3 4.942 4.942 0 0 1-.6 1.2l-17.441 24.913h17.7v6.63h-28.665v-3.315a3.441 3.441 0 0 1 .2-1.16 4.075 4.075 0 0 1 .561-1.058l17.493-24.99h-16.826v-6.63Zm49.776 18.564a19.967 19.967 0 0 1-1.39 7.5 18.068 18.068 0 0 1-3.914 6.031 17.95 17.95 0 0 1-6.082 4.016 20.682 20.682 0 0 1-7.892 1.451 20.779 20.779 0 0 1-7.9-1.454 18.06 18.06 0 0 1-6.107-4.016 17.971 17.971 0 0 1-3.927-6.031 19.967 19.967 0 0 1-1.39-7.5 19.967 19.967 0 0 1 1.39-7.5 17.833 17.833 0 0 1 3.927-6.018 18.157 18.157 0 0 1 6.107-4 20.779 20.779 0 0 1 7.9-1.453 20.524 20.524 0 0 1 7.892 1.466 18.2 18.2 0 0 1 6.082 4.016 17.928 17.928 0 0 1 3.914 6.018 19.9 19.9 0 0 1 1.39 7.475Zm-8.823 0a16.063 16.063 0 0 0-.714-4.96 10.5 10.5 0 0 0-2.053-3.736 8.853 8.853 0 0 0-3.277-2.346 11.277 11.277 0 0 0-4.411-.816 11.443 11.443 0 0 0-4.45.816 8.831 8.831 0 0 0-3.289 2.346 10.5 10.5 0 0 0-2.053 3.736 16.063 16.063 0 0 0-.714 4.96 16.154 16.154 0 0 0 .714 4.985 10.5 10.5 0 0 0 2.049 3.737 8.707 8.707 0 0 0 3.289 2.333 11.6 11.6 0 0 0 4.45.8 11.435 11.435 0 0 0 4.411-.8 8.728 8.728 0 0 0 3.277-2.333 10.5 10.5 0 0 0 2.053-3.736 16.154 16.154 0 0 0 .72-4.985Zm27.693-18.564a7.315 7.315 0 0 1 .943.051 2.409 2.409 0 0 1 .689.191 2.3 2.3 0 0 1 .586.4 6.7 6.7 0 0 1 .638.689l17.646 22.313q-.1-1.071-.153-2.078t-.051-1.9v-19.66h7.6v37.148h-4.489a4.135 4.135 0 0 1-1.683-.306 3.6 3.6 0 0 1-1.326-1.122l-17.518-22.134q.076.969.127 1.9t.051 1.747v19.915h-7.6v-37.153Zm68.136 0v6.63h-15.249v8.67h11.679v6.375h-11.679v8.849h15.249v6.63h-23.919v-37.153ZM437.525 687.273a1.9 1.9 0 0 1-.465.551 1.034 1.034 0 0 1-.637.184 1.7 1.7 0 0 1-.968-.417 15.424 15.424 0 0 0-1.4-.919 11.333 11.333 0 0 0-2.033-.919 8.75 8.75 0 0 0-2.879-.416 8.512 8.512 0 0 0-2.817.429 5.99 5.99 0 0 0-2.047 1.164 4.777 4.777 0 0 0-1.237 1.727 5.482 5.482 0 0 0-.416 2.144 3.962 3.962 0 0 0 .723 2.438 6.227 6.227 0 0 0 1.914 1.655 14.64 14.64 0 0 0 2.695 1.188q1.507.5 3.087 1.041t3.087 1.213a10.858 10.858 0 0 1 2.695 1.7 7.763 7.763 0 0 1 1.911 2.524 8.4 8.4 0 0 1 .723 3.675 11.852 11.852 0 0 1-.782 4.326 9.969 9.969 0 0 1-2.291 3.516 10.716 10.716 0 0 1-3.7 2.352 13.608 13.608 0 0 1-4.986.858 15.224 15.224 0 0 1-6.212-1.238 14.568 14.568 0 0 1-4.79-3.344l1.372-2.255a1.8 1.8 0 0 1 .478-.456 1.12 1.12 0 0 1 .629-.181 1.949 1.949 0 0 1 1.176.551 19.6 19.6 0 0 0 1.649 1.214 12.632 12.632 0 0 0 2.401 1.216 9.475 9.475 0 0 0 3.442.551 9.051 9.051 0 0 0 3.013-.466 6.4 6.4 0 0 0 2.242-1.311 5.679 5.679 0 0 0 1.41-2.024 6.754 6.754 0 0 0 .49-2.622 4.4 4.4 0 0 0-.723-2.609 5.991 5.991 0 0 0-1.9-1.7 13.273 13.273 0 0 0-2.683-1.164l-3.087-.98a31.129 31.129 0 0 1-3.087-1.164 10.033 10.033 0 0 1-2.683-1.715 7.88 7.88 0 0 1-1.9-2.634 9.381 9.381 0 0 1-.723-3.908 9.3 9.3 0 0 1 .723-3.6 9.283 9.283 0 0 1 2.095-3.087 10.152 10.152 0 0 1 3.393-2.156 12.43 12.43 0 0 1 4.643-.808 14.861 14.861 0 0 1 5.365.931 12.356 12.356 0 0 1 4.244 2.691Zm23.422 29.621h-4.753v-35.108h4.753Zm24.426-19.722h1.788a3.884 3.884 0 0 0 1.482-.233 2.892 2.892 0 0 0 1.041-.8l11.687-13.23a3.694 3.694 0 0 1 1.041-.87 2.816 2.816 0 0 1 1.286-.257h4.042l-13.375 15.12a11.671 11.671 0 0 1-.968.955 4.308 4.308 0 0 1-.968.637 3.439 3.439 0 0 1 1.2.662 9.956 9.956 0 0 1 1.078 1.1l13.966 16.638h-4.116a3.551 3.551 0 0 1-.784-.073 2.288 2.288 0 0 1-.551-.2 1.773 1.773 0 0 1-.429-.319q-.2-.2-.392-.417l-12.128-13.936q-.269-.294-.5-.5a2.285 2.285 0 0 0-.539-.355 2.5 2.5 0 0 0-.71-.208 6.774 6.774 0 0 0-.992-.061h-2.159v16.069h-4.728v-35.108h4.729Zm43.169 0h1.789a3.884 3.884 0 0 0 1.482-.233 2.892 2.892 0 0 0 1.041-.8l11.686-13.23a3.694 3.694 0 0 1 1.041-.87 2.816 2.816 0 0 1 1.286-.257h4.042l-13.375 15.12a11.673 11.673 0 0 1-.968.955 4.308 4.308 0 0 1-.968.637 3.439 3.439 0 0 1 1.2.662 9.956 9.956 0 0 1 1.078 1.1l13.966 16.638h-4.116a3.551 3.551 0 0 1-.784-.073 2.288 2.288 0 0 1-.551-.2 1.772 1.772 0 0 1-.429-.319q-.2-.2-.392-.417l-12.128-13.936q-.269-.294-.5-.5a2.285 2.285 0 0 0-.539-.355 2.5 2.5 0 0 0-.71-.208 6.774 6.774 0 0 0-.992-.061h-2.156v16.069h-4.729v-35.108h4.729Zm59.584-15.386v3.871h-16.855v11.662h13.646v3.724h-13.646v11.98h16.856v3.871h-21.634v-35.108Zm21.853 20.457v14.651h-4.729v-35.108h9.929a21.681 21.681 0 0 1 5.757.674 10.988 10.988 0 0 1 4.006 1.948 7.8 7.8 0 0 1 2.337 3.074 10.276 10.276 0 0 1 .759 4.03 10.1 10.1 0 0 1-.588 3.479 9.188 9.188 0 0 1-1.7 2.9 10.187 10.187 0 0 1-2.719 2.193 13.463 13.463 0 0 1-3.638 1.372 5.019 5.019 0 0 1 1.568 1.494l10.237 13.944h-4.219a2.078 2.078 0 0 1-1.911-1l-9.109-12.548a2.654 2.654 0 0 0-.907-.845 3.269 3.269 0 0 0-1.47-.257Zm0-3.455h4.973a12.108 12.108 0 0 0 3.663-.5 7.453 7.453 0 0 0 2.646-1.421 5.894 5.894 0 0 0 1.6-2.193 7.16 7.16 0 0 0 .539-2.817 5.6 5.6 0 0 0-2.07-4.729q-2.07-1.592-6.162-1.592h-5.189Zm64.608 18.106h-4.778V700.92h-18.913v15.974h-4.777v-35.108h4.777v15.655h18.914v-15.655h4.778Zm40.009-35.108v3.871H697.74v11.662h13.647v3.724H697.74v11.98h16.856v3.871h-21.634v-35.108Zm47.064 17.566a19.771 19.771 0 0 1-1.249 7.178 15.92 15.92 0 0 1-3.532 5.538 15.729 15.729 0 0 1-5.464 3.565 19 19 0 0 1-7.052 1.261h-13.132v-35.108h13.132a19 19 0 0 1 7.056 1.262 15.644 15.644 0 0 1 5.46 3.576 16.048 16.048 0 0 1 3.528 5.549 19.771 19.771 0 0 1 1.253 7.179Zm-4.875 0a17.622 17.622 0 0 0-.882-5.782 12.186 12.186 0 0 0-2.5-4.312 10.658 10.658 0 0 0-3.92-2.7 13.547 13.547 0 0 0-5.121-.931h-8.354v27.42h8.354a13.547 13.547 0 0 0 5.121-.931 10.727 10.727 0 0 0 3.92-2.683 12.059 12.059 0 0 0 2.5-4.3 17.622 17.622 0 0 0 .881-5.781Zm39.127-12.079a1.9 1.9 0 0 1-.466.551 1.034 1.034 0 0 1-.637.184 1.7 1.7 0 0 1-.968-.417 15.423 15.423 0 0 0-1.4-.919 11.334 11.334 0 0 0-2.033-.919 8.75 8.75 0 0 0-2.879-.416 8.512 8.512 0 0 0-2.818.429 5.99 5.99 0 0 0-2.046 1.164 4.778 4.778 0 0 0-1.237 1.727 5.482 5.482 0 0 0-.417 2.144 3.962 3.962 0 0 0 .723 2.438 6.227 6.227 0 0 0 1.915 1.655 14.64 14.64 0 0 0 2.695 1.188q1.507.5 3.087 1.041t3.087 1.213a10.858 10.858 0 0 1 2.7 1.7 7.763 7.763 0 0 1 1.911 2.524 8.4 8.4 0 0 1 .723 3.675 11.852 11.852 0 0 1-.784 4.324 9.969 9.969 0 0 1-2.291 3.516 10.716 10.716 0 0 1-3.7 2.352 13.608 13.608 0 0 1-4.986.858 15.224 15.224 0 0 1-6.212-1.236 14.568 14.568 0 0 1-4.79-3.344l1.372-2.254a1.8 1.8 0 0 1 .478-.453 1.12 1.12 0 0 1 .625-.184 1.949 1.949 0 0 1 1.176.551 19.6 19.6 0 0 0 1.654 1.213 12.632 12.632 0 0 0 2.4 1.213 9.475 9.475 0 0 0 3.442.551 9.051 9.051 0 0 0 3.013-.466 6.4 6.4 0 0 0 2.242-1.311 5.679 5.679 0 0 0 1.409-2.021 6.754 6.754 0 0 0 .49-2.622 4.4 4.4 0 0 0-.723-2.609 5.991 5.991 0 0 0-1.9-1.7 13.274 13.274 0 0 0-2.683-1.164l-3.087-.98a31.128 31.128 0 0 1-3.087-1.164 10.033 10.033 0 0 1-2.683-1.715 7.88 7.88 0 0 1-1.9-2.634 9.38 9.38 0 0 1-.723-3.908 9.3 9.3 0 0 1 .723-3.6 9.283 9.283 0 0 1 2.095-3.087 10.152 10.152 0 0 1 3.393-2.156 12.43 12.43 0 0 1 4.643-.808 14.861 14.861 0 0 1 5.366.931 12.356 12.356 0 0 1 4.238 2.695Zm42.58-6.079v2.989a3.857 3.857 0 0 1-.208 1.25 4.749 4.749 0 0 1-.576 1.152l-16.758 23.939h17v6.37h-27.535v-3.185a3.307 3.307 0 0 1 .2-1.115 3.916 3.916 0 0 1 .539-1.017l16.807-24.01h-16.17v-6.373Zm47.824 17.84a19.185 19.185 0 0 1-1.335 7.2 17.361 17.361 0 0 1-3.761 5.794 17.246 17.246 0 0 1-5.841 3.866 19.871 19.871 0 0 1-7.583 1.4 19.964 19.964 0 0 1-7.6-1.4 17.351 17.351 0 0 1-5.868-3.859 17.267 17.267 0 0 1-3.773-5.794 19.185 19.185 0 0 1-1.335-7.2 19.185 19.185 0 0 1 1.335-7.2 17.134 17.134 0 0 1 3.773-5.782 17.444 17.444 0 0 1 5.868-3.847 19.964 19.964 0 0 1 7.6-1.4 19.719 19.719 0 0 1 7.583 1.402 17.489 17.489 0 0 1 5.843 3.859 17.227 17.227 0 0 1 3.761 5.782 19.118 19.118 0 0 1 1.333 7.179Zm-8.477 0a15.434 15.434 0 0 0-.686-4.765 10.092 10.092 0 0 0-1.972-3.589 8.505 8.505 0 0 0-3.148-2.254 10.835 10.835 0 0 0-4.239-.784 10.994 10.994 0 0 0-4.275.784 8.484 8.484 0 0 0-3.16 2.254 10.092 10.092 0 0 0-1.972 3.589 15.434 15.434 0 0 0-.686 4.765 15.521 15.521 0 0 0 .686 4.79 10.092 10.092 0 0 0 1.972 3.589 8.365 8.365 0 0 0 3.16 2.242 11.148 11.148 0 0 0 4.275.772 10.987 10.987 0 0 0 4.239-.772 8.385 8.385 0 0 0 3.146-2.242 10.092 10.092 0 0 0 1.972-3.589 15.521 15.521 0 0 0 .688-4.79Zm26.607-17.84a7.028 7.028 0 0 1 .906.049 2.314 2.314 0 0 1 .661.184 2.207 2.207 0 0 1 .564.38 6.44 6.44 0 0 1 .613.661l16.954 21.438q-.1-1.029-.147-2t-.049-1.825v-18.887h7.3v35.7h-4.312a3.974 3.974 0 0 1-1.617-.294 3.46 3.46 0 0 1-1.274-1.078l-16.831-21.266q.074.931.122 1.825t.049 1.678v19.135h-7.3v-35.7Zm65.464 0v6.37h-14.651v8.33h11.22v6.125h-11.22v8.5h14.651v6.375h-22.981v-35.7ZM426.285 480.894a10.4 10.4 0 0 0 4.134-.78 8.67 8.67 0 0 0 3.081-2.184 9.552 9.552 0 0 0 1.924-3.354 13.257 13.257 0 0 0 .663-4.29v-22.65h5.018v22.646a16.993 16.993 0 0 1-1.026 5.98 13.894 13.894 0 0 1-2.938 4.771 13.434 13.434 0 0 1-4.668 3.161 16 16 0 0 1-6.188 1.142 16 16 0 0 1-6.188-1.142 13.569 13.569 0 0 1-4.68-3.159 13.793 13.793 0 0 1-2.951-4.773 16.993 16.993 0 0 1-1.027-5.98v-22.646h5.018v22.62a13.257 13.257 0 0 0 .663 4.29 9.552 9.552 0 0 0 1.924 3.354 8.783 8.783 0 0 0 3.094 2.2 10.348 10.348 0 0 0 4.147.794Zm66.17-14.612a20.981 20.981 0 0 1-1.326 7.612 16.9 16.9 0 0 1-3.744 5.876 16.692 16.692 0 0 1-5.8 3.783 20.166 20.166 0 0 1-7.486 1.341h-13.936v-37.258h13.936a20.166 20.166 0 0 1 7.488 1.339 16.6 16.6 0 0 1 5.8 3.8 17.031 17.031 0 0 1 3.744 5.889 20.981 20.981 0 0 1 1.324 7.614Zm-5.174 0a18.7 18.7 0 0 0-.936-6.136 12.932 12.932 0 0 0-2.652-4.576 11.311 11.311 0 0 0-4.16-2.86 14.377 14.377 0 0 0-5.434-.988h-8.866v29.09h8.866a14.377 14.377 0 0 0 5.434-.988 11.384 11.384 0 0 0 4.16-2.847 12.8 12.8 0 0 0 2.652-4.563 18.7 18.7 0 0 0 .934-6.136Zm16.77-18.642h4.03a1.678 1.678 0 0 1 1.092.338 2.079 2.079 0 0 1 .624.858l10.53 26.286a18.438 18.438 0 0 1 .663 1.924q.3 1.04.585 2.158.234-1.118.507-2.158a15.169 15.169 0 0 1 .637-1.924l10.478-26.286a2.178 2.178 0 0 1 .624-.819 1.624 1.624 0 0 1 1.092-.377h4.056l-15.184 37.254h-4.55Zm56.056 37.254h-5.044v-37.258h5.044Zm25.922-20.93h1.9a4.122 4.122 0 0 0 1.573-.247 3.069 3.069 0 0 0 1.1-.845l12.4-14.04a3.92 3.92 0 0 1 1.105-.923 2.988 2.988 0 0 1 1.365-.273h4.29l-14.2 16.042a12.387 12.387 0 0 1-1.027 1.014 4.572 4.572 0 0 1-1.027.676 3.649 3.649 0 0 1 1.274.7 10.566 10.566 0 0 1 1.144 1.17l14.829 17.656h-4.368a3.768 3.768 0 0 1-.832-.078 2.428 2.428 0 0 1-.585-.208 1.881 1.881 0 0 1-.455-.338q-.208-.208-.416-.442l-12.87-14.794q-.286-.312-.533-.533a2.426 2.426 0 0 0-.572-.377 2.657 2.657 0 0 0-.754-.221 7.188 7.188 0 0 0-1.053-.065h-2.288v17.056h-5.018v-37.258h5.018Zm45.318 16.692h16.12v4.238h-21.164v-37.258h5.044Zm38.064 4.238h-5.044v-37.258h5.044Zm22.984-37.258a2.263 2.263 0 0 1 1 .169 2.589 2.589 0 0 1 .741.689l21.58 28.08q-.078-.676-.1-1.313t-.026-1.235v-26.39h4.42v37.258h-2.551a2.167 2.167 0 0 1-1-.208 2.527 2.527 0 0 1-.793-.7l-21.555-28.056q.052.65.078 1.274t.026 1.144v26.546h-4.42v-37.258Zm63.726 33.592a24.686 24.686 0 0 0 2.769-.143 17.6 17.6 0 0 0 2.379-.429 16.2 16.2 0 0 0 2.106-.689q.988-.4 1.976-.923v-8.216h-5.772a1.1 1.1 0 0 1-.793-.286.934.934 0 0 1-.3-.7v-2.86h11.44v14.3a20.671 20.671 0 0 1-2.925 1.768 19.923 19.923 0 0 1-3.25 1.261 23.533 23.533 0 0 1-3.705.754 34.69 34.69 0 0 1-4.29.247 19.357 19.357 0 0 1-7.436-1.391 17.123 17.123 0 0 1-5.824-3.9 17.706 17.706 0 0 1-3.809-6.019 21.134 21.134 0 0 1-1.365-7.722 21.652 21.652 0 0 1 1.339-7.774 17.1 17.1 0 0 1 3.822-6.019 17.08 17.08 0 0 1 6.006-3.887 21.508 21.508 0 0 1 7.891-1.378 24.371 24.371 0 0 1 4.108.325 19.2 19.2 0 0 1 3.523.936 16.412 16.412 0 0 1 3 1.482 18.349 18.349 0 0 1 2.574 1.963l-1.43 2.288a1.315 1.315 0 0 1-1.144.7 1.842 1.842 0 0 1-.91-.286q-.65-.364-1.456-.884a12.469 12.469 0 0 0-1.963-1 15.8 15.8 0 0 0-2.73-.819 17.972 17.972 0 0 0-3.731-.338 15.109 15.109 0 0 0-5.694 1.027 12.044 12.044 0 0 0-4.342 2.938 13 13 0 0 0-2.756 4.628 18.183 18.183 0 0 0-.962 6.1 18.475 18.475 0 0 0 1 6.305 13.314 13.314 0 0 0 2.821 4.693 12.175 12.175 0 0 0 4.321 2.934 14.515 14.515 0 0 0 5.512 1.014Zm51.038-27.768a2.016 2.016 0 0 1-.494.585 1.1 1.1 0 0 1-.676.195 1.8 1.8 0 0 1-1.027-.442 16.373 16.373 0 0 0-1.482-.975 12.026 12.026 0 0 0-2.158-.975 9.286 9.286 0 0 0-3.055-.442 9.033 9.033 0 0 0-2.99.455 6.357 6.357 0 0 0-2.171 1.235 5.07 5.07 0 0 0-1.313 1.833 5.818 5.818 0 0 0-.442 2.275 4.2 4.2 0 0 0 .767 2.587 6.608 6.608 0 0 0 2.028 1.755 15.536 15.536 0 0 0 2.86 1.261q1.6.533 3.276 1.1t3.276 1.287a11.523 11.523 0 0 1 2.86 1.807 8.238 8.238 0 0 1 2.028 2.678 8.913 8.913 0 0 1 .767 3.9 12.578 12.578 0 0 1-.832 4.589 10.579 10.579 0 0 1-2.431 3.731 11.372 11.372 0 0 1-3.926 2.5 14.441 14.441 0 0 1-5.291.91 16.156 16.156 0 0 1-6.591-1.315 15.461 15.461 0 0 1-5.083-3.549l1.456-2.392a1.914 1.914 0 0 1 .507-.481 1.188 1.188 0 0 1 .663-.195 2.069 2.069 0 0 1 1.248.585 20.8 20.8 0 0 0 1.755 1.287 13.405 13.405 0 0 0 2.548 1.287 10.056 10.056 0 0 0 3.653.585 9.605 9.605 0 0 0 3.2-.494 6.792 6.792 0 0 0 2.379-1.391 6.027 6.027 0 0 0 1.493-2.142 7.168 7.168 0 0 0 .52-2.782 4.668 4.668 0 0 0-.767-2.769 6.358 6.358 0 0 0-2.015-1.807 14.085 14.085 0 0 0-2.847-1.235l-3.276-1.04a33.035 33.035 0 0 1-3.276-1.235 10.647 10.647 0 0 1-2.847-1.82 8.363 8.363 0 0 1-2.015-2.8 9.955 9.955 0 0 1-.767-4.147 9.869 9.869 0 0 1 .767-3.822 9.851 9.851 0 0 1 2.223-3.276 10.774 10.774 0 0 1 3.6-2.288 13.191 13.191 0 0 1 4.927-.858 15.771 15.771 0 0 1 5.694.988 13.112 13.112 0 0 1 4.5 2.86Zm45.188-6.448v3.172a4.093 4.093 0 0 1-.221 1.326 5.039 5.039 0 0 1-.611 1.222l-17.784 25.402h18.048v6.76h-29.228v-3.38a3.509 3.509 0 0 1 .208-1.183 4.155 4.155 0 0 1 .572-1.079l17.836-25.48h-17.16v-6.76Zm50.752 18.928a20.359 20.359 0 0 1-1.42 7.644 18.423 18.423 0 0 1-3.991 6.149 18.3 18.3 0 0 1-6.2 4.1 21.087 21.087 0 0 1-8.045 1.477 21.186 21.186 0 0 1-8.06-1.482 18.414 18.414 0 0 1-6.227-4.1 18.324 18.324 0 0 1-4-6.149 20.359 20.359 0 0 1-1.417-7.644 20.359 20.359 0 0 1 1.417-7.644 18.183 18.183 0 0 1 4-6.136 18.512 18.512 0 0 1 6.227-4.082 21.186 21.186 0 0 1 8.06-1.482 20.926 20.926 0 0 1 8.047 1.495 18.56 18.56 0 0 1 6.2 4.1 18.281 18.281 0 0 1 3.991 6.136 20.289 20.289 0 0 1 1.418 7.618Zm-9 0a16.379 16.379 0 0 0-.728-5.057 10.71 10.71 0 0 0-2.092-3.809 9.027 9.027 0 0 0-3.341-2.392 11.5 11.5 0 0 0-4.5-.832 11.667 11.667 0 0 0-4.537.832 9 9 0 0 0-3.354 2.392 10.71 10.71 0 0 0-2.093 3.809 16.378 16.378 0 0 0-.728 5.057 16.471 16.471 0 0 0 .728 5.083 10.71 10.71 0 0 0 2.093 3.809 8.877 8.877 0 0 0 3.354 2.379 11.83 11.83 0 0 0 4.537.819 11.659 11.659 0 0 0 4.5-.819 8.9 8.9 0 0 0 3.341-2.379 10.71 10.71 0 0 0 2.093-3.809 16.472 16.472 0 0 0 .731-5.083Zm28.24-18.928a7.459 7.459 0 0 1 .962.052 2.456 2.456 0 0 1 .7.2 2.341 2.341 0 0 1 .6.4 6.834 6.834 0 0 1 .65.7l17.992 22.75q-.1-1.092-.156-2.119t-.052-1.937v-20.046h7.744v37.882h-4.576a4.217 4.217 0 0 1-1.716-.312 3.672 3.672 0 0 1-1.352-1.144l-17.856-22.568q.078.988.13 1.937t.052 1.781v20.306h-7.748v-37.882Zm69.472 0v6.76h-15.548v8.84h11.908v6.5h-11.908v9.022h15.548v6.76h-24.388v-37.882Z" data-name="PLANCHE D’AMBIANCE"/></g></svg>