<?xml version="1.0" encoding="UTF-8" standalone="no"?>
<svg
   xmlns:dc="http://purl.org/dc/elements/1.1/"
   xmlns:cc="http://creativecommons.org/ns#"
   xmlns:rdf="http://www.w3.org/1999/02/22-rdf-syntax-ns#"
   xmlns:svg="http://www.w3.org/2000/svg"
   xmlns="http://www.w3.org/2000/svg"
   xmlns:sodipodi="http://sodipodi.sourceforge.net/DTD/sodipodi-0.dtd"
   xmlns:inkscape="http://www.inkscape.org/namespaces/inkscape"
   viewBox="0 0 465.65573 212.86957"
   height="212.86957"
   width="465.65573"
   id="svg2"
   version="1.1"
   sodipodi:docname="tanker.svg"
   inkscape:version="0.92.5 (2060ec1f9f, 2020-04-08)">
  <sodipodi:namedview
     pagecolor="#ffffff"
     bordercolor="#666666"
     borderopacity="1"
     objecttolerance="10"
     gridtolerance="10"
     guidetolerance="10"
     inkscape:pageopacity="0"
     inkscape:pageshadow="2"
     inkscape:window-width="1920"
     inkscape:window-height="1080"
     id="namedview12"
     showgrid="false"
     fit-margin-top="0"
     fit-margin-left="0"
     fit-margin-right="0"
     fit-margin-bottom="0"
     inkscape:zoom="1.430303"
     inkscape:cx="292.18651"
     inkscape:cy="151.57795"
     inkscape:window-x="3840"
     inkscape:window-y="0"
     inkscape:window-maximized="0"
     inkscape:current-layer="svg2" />
  <metadata
     id="metadata8">
    <rdf:RDF>
      <cc:Work
         rdf:about="">
        <dc:format>image/svg+xml</dc:format>
        <dc:type
           rdf:resource="http://purl.org/dc/dcmitype/StillImage" />
        <dc:title></dc:title>
      </cc:Work>
    </rdf:RDF>
  </metadata>
  <defs
     id="defs6" />
  <g
     id="g889"
     transform="translate(13.165574,-29.182207)">
    <path
       style="fill:#ff4545;fill-opacity:1"
       d="m 197,235.84674 c -33.58561,-1.07025 -59.86784,-5.19891 -71.89619,-11.29414 -5.32683,-2.6993 -9.75896,-7.33041 -10.7342,-11.2161 -1.08154,-4.30918 0.62627,-17.2799 3.1623,-24.01751 10.20287,-27.10652 42.24339,-71.34316 66.42273,-91.706332 26.4181,-22.248597 37.31219,-22.049222 64.3692,1.178037 19.92724,17.106665 45.79552,51.395445 59.58567,78.981665 5.64127,11.28495 9.92834,29.48777 8.25795,35.06304 -0.64164,2.14159 -2.02554,4.98576 -3.07535,6.32037 C 303.65383,231.1546 257.58909,237.77749 197,235.84674 Z m 57.73358,-3.35831 c 25.24632,-2.27607 40.04933,-5.39251 50.47826,-10.62707 7.95042,-3.99053 10.74384,-10.14171 8.37781,-18.4481 -0.76974,-2.70229 -1.68683,-6.99713 -2.03799,-9.54409 C 310.68969,187.61724 300.91561,168.17433 291.25781,153.5 271.2243,123.06051 244.14641,94.736481 227.56821,86.879355 219.49396,83.05262 214.65332,82.460017 208.5,84.544978 c -24.03306,8.143249 -69.60557,61.022162 -86.63712,100.527192 -6.20252,14.38687 -7.0887,27.7035 -2.2031,33.10581 4.37699,4.8399 16.0016,8.67769 35.85479,11.83723 25.34803,4.03402 69.65582,5.13848 99.21901,2.47322 z m -67.27804,-4.55408 C 155.08116,226.16843 130.12393,220.8512 123.60308,214.33036 121.50194,212.22921 121,210.77523 121,206.78995 c 0,-23.25211 41.7773,-84.79365 74.01301,-109.027474 13.83448,-10.400343 20.28199,-11.870009 30.13946,-6.870088 28.04378,14.224412 75.99174,76.594602 83.34445,108.413562 2.67482,11.57533 0.48219,15.88986 -10.16521,20.00245 -19.07105,7.36626 -66.42734,11.05049 -110.87617,8.62595 z M 260,224.39528 c 22.16632,-2.26898 37.83663,-6.00657 44.20982,-10.54468 C 306.65757,212.10764 307,211.21868 307,206.60706 307,188.42667 281.99931,146.72971 253.16979,116.82727 236.74758,99.793893 225.78662,91.813299 216.81464,90.357347 197.35897,87.200126 139.42784,153.7482 125.5681,195.17632 c -3.51597,10.5096 -3.41887,14.93002 0.39854,18.14215 13.05768,10.98732 80.47654,16.55896 134.03336,11.07681 z"
       id="path825"
       inkscape:connector-curvature="0" />
    <g
       id="text829"
       style="font-style:normal;font-weight:normal;font-size:40px;line-height:1.25;font-family:sans-serif;letter-spacing:0px;word-spacing:0px;fill:#000000;fill-opacity:1;stroke:none"
       aria-label="Følelser">
      <path
         id="path835"
         style="font-style:normal;font-variant:normal;font-weight:normal;font-stretch:normal;font-size:40px;font-family:'Alegreya Sans';-inkscape-font-specification:'Alegreya Sans, Normal';font-variant-ligatures:normal;font-variant-caps:normal;font-variant-numeric:normal;font-feature-settings:normal;text-align:start;writing-mode:lr-tb;text-anchor:start"
         d="m 160.566,34.382207 -0.08,8.92 4.32,0.08 4.16,-0.12 0.24,0.32 -0.28,2.44 -4.44,-0.12 -4.04,0.04 -0.04,3.32 0.16,8 h -3.24 l 0.2,-7.72 -0.2,-17.92 h 13.64 l 0.24,0.32 -0.28,2.56 -5.88,-0.2 z"
         inkscape:connector-curvature="0" />
      <path
         id="path837"
         style="font-style:normal;font-variant:normal;font-weight:normal;font-stretch:normal;font-size:40px;font-family:'Alegreya Sans';-inkscape-font-specification:'Alegreya Sans, Normal';font-variant-ligatures:normal;font-variant-caps:normal;font-variant-numeric:normal;font-feature-settings:normal;text-align:start;writing-mode:lr-tb;text-anchor:start"
         d="m 184.48588,40.182207 q 2.92,2.44 2.92,7.68 0,4.64 -2.16,7.2 -2.16,2.52 -6.16,2.52 -1.68,0 -3.04,-0.48 l -2.4,4.8 -1.76,-0.8 -0.12,-0.32 2.4,-4.76 q -1.44,-1.16 -2.2,-3.08 -0.76,-1.96 -0.76,-4.6 0,-4.64 2.16,-7.16 2.2,-2.56 6.2,-2.56 1.76,0 3.04,0.52 l 1.96,-3.92 1.68,0.76 0.16,0.36 z m -10.28,7.44 q 0,3.76 1.28,5.72 l 6,-12 q -0.88,-0.48 -2.12,-0.48 -2.52,0 -3.84,1.72 -1.32,1.72 -1.32,5.04 z m 5.08,7.68 q 2.52,0 3.84,-1.68 1.32,-1.68 1.32,-5.04 0,-3.76 -1.28,-5.72 l -6,12 q 0.96,0.44 2.12,0.44 z"
         inkscape:connector-curvature="0" />
      <path
         id="path839"
         style="font-style:normal;font-variant:normal;font-weight:normal;font-stretch:normal;font-size:40px;font-family:'Alegreya Sans';-inkscape-font-specification:'Alegreya Sans, Normal';font-variant-ligatures:normal;font-variant-caps:normal;font-variant-numeric:normal;font-feature-settings:normal;text-align:start;writing-mode:lr-tb;text-anchor:start"
         d="m 195.48585,49.222207 0.2,8.04 h -3.16 l 0.24,-7.8 -0.2,-20 3.16,-0.28 z"
         inkscape:connector-curvature="0" />
      <path
         id="path841"
         style="font-style:normal;font-variant:normal;font-weight:normal;font-stretch:normal;font-size:40px;font-family:'Alegreya Sans';-inkscape-font-specification:'Alegreya Sans, Normal';font-variant-ligatures:normal;font-variant-caps:normal;font-variant-numeric:normal;font-feature-settings:normal;text-align:start;writing-mode:lr-tb;text-anchor:start"
         d="m 203.68584,47.982207 v 0.08 q 0,3.36 1.52,5.16 1.52,1.8 4.32,1.8 1.4,0 2.8,-0.44 1.4,-0.48 2.56,-1.32 l 0.32,0.24 -0.48,2.72 q -2.8,1.36 -5.6,1.36 -3.92,0 -6.16,-2.48 -2.24,-2.52 -2.24,-6.88 0,-4.4 2.24,-7 2.24,-2.6 6.04,-2.6 3.2,0 4.96,1.84 1.76,1.8 1.76,5.04 0,1.08 -0.16,2.04 l -0.4,0.4 z m 5.32,-7.12 q -2,0 -3.36,1.32 -1.32,1.28 -1.76,3.64 l 8.84,-0.16 0.08,-0.56 q 0,-2.04 -1,-3.12 -0.96,-1.12 -2.8,-1.12 z"
         inkscape:connector-curvature="0" />
      <path
         id="path843"
         style="font-style:normal;font-variant:normal;font-weight:normal;font-stretch:normal;font-size:40px;font-family:'Alegreya Sans';-inkscape-font-specification:'Alegreya Sans, Normal';font-variant-ligatures:normal;font-variant-caps:normal;font-variant-numeric:normal;font-feature-settings:normal;text-align:start;writing-mode:lr-tb;text-anchor:start"
         d="m 223.80578,49.222207 0.2,8.04 h -3.16 l 0.24,-7.8 -0.2,-20 3.16,-0.28 z"
         inkscape:connector-curvature="0" />
      <path
         id="path845"
         style="font-style:normal;font-variant:normal;font-weight:normal;font-stretch:normal;font-size:40px;font-family:'Alegreya Sans';-inkscape-font-specification:'Alegreya Sans, Normal';font-variant-ligatures:normal;font-variant-caps:normal;font-variant-numeric:normal;font-feature-settings:normal;text-align:start;writing-mode:lr-tb;text-anchor:start"
         d="m 235.56577,38.662207 q 2.28,0 4.4,0.88 l -0.44,2.6 -0.48,0.12 q -2,-1.32 -3.84,-1.32 -1.36,0 -2.2,0.76 -0.84,0.76 -0.84,1.84 0,1.08 0.84,1.76 0.88,0.64 2.68,1.48 1.56,0.72 2.48,1.32 0.96,0.56 1.64,1.52 0.68,0.96 0.68,2.36 0,1.48 -0.76,2.76 -0.76,1.28 -2.24,2.08 -1.48,0.76 -3.52,0.76 -2.8,0 -5.32,-1.32 l 0.4,-2.72 0.36,-0.24 q 1.12,0.96 2.4,1.48 1.32,0.52 2.48,0.52 1.48,0 2.4,-0.8 0.92,-0.84 0.92,-1.96 0,-1.08 -0.88,-1.72 -0.84,-0.68 -2.64,-1.52 -1.56,-0.72 -2.52,-1.28 -0.96,-0.6 -1.64,-1.6 -0.68,-1 -0.68,-2.48 0,-2.32 1.68,-3.8 1.72,-1.48 4.64,-1.48 z"
         inkscape:connector-curvature="0" />
      <path
         id="path847"
         style="font-style:normal;font-variant:normal;font-weight:normal;font-stretch:normal;font-size:40px;font-family:'Alegreya Sans';-inkscape-font-specification:'Alegreya Sans, Normal';font-variant-ligatures:normal;font-variant-caps:normal;font-variant-numeric:normal;font-feature-settings:normal;text-align:start;writing-mode:lr-tb;text-anchor:start"
         d="m 246.80573,47.982207 v 0.08 q 0,3.36 1.52,5.16 1.52,1.8 4.32,1.8 1.4,0 2.8,-0.44 1.4,-0.48 2.56,-1.32 l 0.32,0.24 -0.48,2.72 q -2.8,1.36 -5.6,1.36 -3.92,0 -6.16,-2.48 -2.24,-2.52 -2.24,-6.88 0,-4.4 2.24,-7 2.24,-2.6 6.04,-2.6 3.2,0 4.96,1.84 1.76,1.8 1.76,5.04 0,1.08 -0.16,2.04 l -0.4,0.4 z m 5.32,-7.12 q -2,0 -3.36,1.32 -1.32,1.28 -1.76,3.64 l 8.84,-0.16 0.08,-0.56 q 0,-2.04 -1,-3.12 -0.96,-1.12 -2.8,-1.12 z"
         inkscape:connector-curvature="0" />
      <path
         id="path849"
         style="font-style:normal;font-variant:normal;font-weight:normal;font-stretch:normal;font-size:40px;font-family:'Alegreya Sans';-inkscape-font-specification:'Alegreya Sans, Normal';font-variant-ligatures:normal;font-variant-caps:normal;font-variant-numeric:normal;font-feature-settings:normal;text-align:start;writing-mode:lr-tb;text-anchor:start"
         d="m 272.20567,38.902207 q 0.48,0 1.04,0.08 v 3.08 l -0.36,0.12 q -0.68,-0.2 -1.48,-0.2 -1.32,0 -2.44,1.08 -1.08,1.04 -2.16,3.36 l -0.04,2.8 0.2,8.04 h -3.16 l 0.2,-7.76 -0.16,-10.36 3,-0.28 -0.04,3.76 h 0.24 q 1.12,-2 2.48,-2.84 1.36,-0.88 2.68,-0.88 z"
         inkscape:connector-curvature="0" />
    </g>
    <g
       id="text833"
       style="font-style:normal;font-weight:normal;font-size:40px;line-height:1.25;font-family:sans-serif;letter-spacing:0px;word-spacing:0px;fill:#000000;fill-opacity:1;stroke:none"
       aria-label="Adfærd">
      <path
         id="path852"
         style="font-style:normal;font-variant:normal;font-weight:normal;font-stretch:normal;font-size:40px;font-family:'Alegreya Sans';-inkscape-font-specification:'Alegreya Sans, Normal';font-variant-ligatures:normal;font-variant-caps:normal;font-variant-numeric:normal;font-feature-settings:normal;text-align:start;writing-mode:lr-tb;text-anchor:start"
         d="m 360.01039,241.73177 h -3.28 l -0.6,-2.56 -1.44,-4.4 -5.76,-0.12 -5.2,0.12 -1.56,4.24 -0.64,2.72 h -3.2 l 9.4,-25.64 h 3.72 z m -6.2,-9.68 -4.16,-12.64 h -0.28 l -4.64,12.64 4.48,0.08 z"
         inkscape:connector-curvature="0" />
      <path
         id="path854"
         style="font-style:normal;font-variant:normal;font-weight:normal;font-stretch:normal;font-size:40px;font-family:'Alegreya Sans';-inkscape-font-specification:'Alegreya Sans, Normal';font-variant-ligatures:normal;font-variant-caps:normal;font-variant-numeric:normal;font-feature-settings:normal;text-align:start;writing-mode:lr-tb;text-anchor:start"
         d="m 377.09029,233.69177 0.12,4.12 q 0.04,0.84 0.28,1.2 0.24,0.32 0.88,0.32 0.64,0 1.36,-0.24 l 0.32,0.28 -0.32,1.8 q -1.08,0.68 -2.24,0.8 -1.24,-0.12 -1.96,-0.84 -0.68,-0.72 -0.84,-1.96 h -0.28 q -1.2,1.04 -2.16,1.68 -0.96,0.6 -2.2,1.08 -3.96,0 -6.08,-2.4 -2.12,-2.44 -2.12,-6.92 0,-4.52 2.36,-7 2.36,-2.52 6.52,-2.52 1.88,0 3.52,0.4 l -0.04,-9.56 3.16,-0.28 z m -6.72,-8.36 q -2.56,0 -4.04,1.76 -1.48,1.72 -1.48,5 0,3.4 1.32,5.28 1.36,1.88 3.72,1.88 1.12,0 2.16,-0.56 1.08,-0.56 2.24,-1.88 l 0.08,-2.88 -0.12,-7.6 q -2.12,-1 -3.88,-1 z"
         inkscape:connector-curvature="0" />
      <path
         id="path856"
         style="font-style:normal;font-variant:normal;font-weight:normal;font-stretch:normal;font-size:40px;font-family:'Alegreya Sans';-inkscape-font-specification:'Alegreya Sans, Normal';font-variant-ligatures:normal;font-variant-caps:normal;font-variant-numeric:normal;font-feature-settings:normal;text-align:start;writing-mode:lr-tb;text-anchor:start"
         d="m 391.77027,213.57177 q 1.44,0 3.12,0.36 l -0.24,2.48 -0.24,0.2 q -1.44,-0.72 -2.92,-0.72 -1.56,0 -2.4,1 -0.84,0.96 -0.88,2.88 l -0.04,3.68 h 4.8 l 0.12,0.24 -0.2,1.88 h -4.76 l -0.08,8.12 0.2,8.04 h -3.16 l 0.24,-7.8 -0.08,-8.36 h -2.76 l -0.16,-0.24 0.2,-1.88 h 2.72 l -0.04,-3.2 q -0.04,-3.24 1.68,-4.96 1.72,-1.72 4.88,-1.72 z"
         inkscape:connector-curvature="0" />
      <path
         id="path858"
         style="font-style:normal;font-variant:normal;font-weight:normal;font-stretch:normal;font-size:40px;font-family:'Alegreya Sans';-inkscape-font-specification:'Alegreya Sans, Normal';font-variant-ligatures:normal;font-variant-caps:normal;font-variant-numeric:normal;font-feature-settings:normal;text-align:start;writing-mode:lr-tb;text-anchor:start"
         d="m 412.21024,223.13177 q 2.92,0 4.68,1.96 1.76,1.92 1.64,5.56 l -0.36,0.44 -11.32,1.92 q 0.16,3.24 1.52,4.96 1.36,1.68 3.88,1.68 1.28,0 2.6,-0.48 1.36,-0.48 2.52,-1.36 l 0.32,0.16 -0.36,2.6 q -1.16,0.68 -2.6,1.08 -1.4,0.4 -2.72,0.4 -2.24,0 -3.92,-1 -1.64,-1.04 -2.6,-2.96 -2.2,2.8 -5.44,3.92 -2.72,0 -4.32,-1.32 -1.56,-1.36 -1.56,-3.72 0,-1.8 0.96,-2.92 0.96,-1.16 2.76,-1.44 l 6.4,-1.08 v -2.92 q 0,-1.56 -0.8,-2.4 -0.8,-0.84 -2.28,-0.84 -2.44,0 -5.56,2.64 l -0.32,-0.16 -0.48,-2.28 q 3.32,-2.48 6.72,-2.48 1.88,0 3.08,0.8 1.2,0.76 1.72,2.08 1.04,-1.4 2.56,-2.12 1.52,-0.72 3.28,-0.72 z m -0.44,2.16 q -1.36,0 -2.52,0.76 -1.12,0.76 -1.76,2.04 -0.64,1.24 -0.64,2.76 v 0.24 l 8.8,-1.68 q -0.12,-1.96 -1.16,-3.04 -1.04,-1.08 -2.72,-1.08 z m -11.92,14.04 q 1.12,0 2.16,-0.64 1.04,-0.68 2.6,-2.36 -0.28,-1.96 -0.32,-2.88 l -5.24,1.04 q -1.08,0.2 -1.56,0.76 -0.48,0.52 -0.48,1.4 0,1.28 0.8,2 0.8,0.68 2.04,0.68 z"
         inkscape:connector-curvature="0" />
      <path
         id="path860"
         style="font-style:normal;font-variant:normal;font-weight:normal;font-stretch:normal;font-size:40px;font-family:'Alegreya Sans';-inkscape-font-specification:'Alegreya Sans, Normal';font-variant-ligatures:normal;font-variant-caps:normal;font-variant-numeric:normal;font-feature-settings:normal;text-align:start;writing-mode:lr-tb;text-anchor:start"
         d="m 431.33022,223.37177 q 0.48,0 1.04,0.08 v 3.08 l -0.36,0.12 q -0.68,-0.2 -1.48,-0.2 -1.32,0 -2.44,1.08 -1.08,1.04 -2.16,3.36 l -0.04,2.8 0.2,8.04 h -3.16 l 0.2,-7.76 -0.16,-10.36 3,-0.28 -0.04,3.76 h 0.24 q 1.12,-2 2.48,-2.84 1.36,-0.88 2.68,-0.88 z"
         inkscape:connector-curvature="0" />
      <path
         id="path862"
         style="font-style:normal;font-variant:normal;font-weight:normal;font-stretch:normal;font-size:40px;font-family:'Alegreya Sans';-inkscape-font-specification:'Alegreya Sans, Normal';font-variant-ligatures:normal;font-variant-caps:normal;font-variant-numeric:normal;font-feature-settings:normal;text-align:start;writing-mode:lr-tb;text-anchor:start"
         d="m 449.53017,233.69177 0.12,4.12 q 0.04,0.84 0.28,1.2 0.24,0.32 0.88,0.32 0.64,0 1.36,-0.24 l 0.32,0.28 -0.32,1.8 q -1.08,0.68 -2.24,0.8 -1.24,-0.12 -1.96,-0.84 -0.68,-0.72 -0.84,-1.96 h -0.28 q -1.2,1.04 -2.16,1.68 -0.96,0.6 -2.2,1.08 -3.96,0 -6.08,-2.4 -2.12,-2.44 -2.12,-6.92 0,-4.52 2.36,-7 2.36,-2.52 6.52,-2.52 1.88,0 3.52,0.4 l -0.04,-9.56 3.16,-0.28 z m -6.72,-8.36 q -2.56,0 -4.04,1.76 -1.48,1.72 -1.48,5 0,3.4 1.32,5.28 1.36,1.88 3.72,1.88 1.12,0 2.16,-0.56 1.08,-0.56 2.24,-1.88 l 0.08,-2.88 -0.12,-7.6 q -2.12,-1 -3.88,-1 z"
         inkscape:connector-curvature="0" />
    </g>
    <g
       id="text837"
       style="font-style:normal;font-weight:normal;font-size:40px;line-height:1.25;font-family:sans-serif;letter-spacing:0px;word-spacing:0px;fill:#000000;fill-opacity:1;stroke:none"
       aria-label="Tanker">
      <path
         id="path822"
         style="font-style:normal;font-variant:normal;font-weight:normal;font-stretch:normal;font-size:40px;font-family:'Alegreya Sans';-inkscape-font-specification:'Alegreya Sans, Normal';font-variant-ligatures:normal;font-variant-caps:normal;font-variant-numeric:normal;font-feature-settings:normal;text-align:start;writing-mode:lr-tb;text-anchor:start"
         d="m 4.7144258,216.37177 -0.24,2.48 -4.47999999,-0.24 H -2.6055742 l -0.12,15.08 0.12,8 h -3.24 l 0.24,-7.72 -0.2,-15.36 h -2.6 l -4.5599998,0.24 -0.2,-0.32 0.24,-2.48 H 4.4744258 Z"
         inkscape:connector-curvature="0" />
      <path
         id="path824"
         style="font-style:normal;font-variant:normal;font-weight:normal;font-stretch:normal;font-size:40px;font-family:'Alegreya Sans';-inkscape-font-specification:'Alegreya Sans, Normal';font-variant-ligatures:normal;font-variant-caps:normal;font-variant-numeric:normal;font-feature-settings:normal;text-align:start;writing-mode:lr-tb;text-anchor:start"
         d="m 12.154341,223.05177 q 2.6,0 4.08,1.28 1.52,1.28 1.52,3.52 0,0.68 -0.24,4.92 -0.24,4.24 -0.24,4.96 0,0.88 0.28,1.24 0.28,0.32 0.96,0.32 0.6,0 1.36,-0.24 l 0.32,0.28 -0.32,1.8 q -1.16,0.68 -2.28,0.8 -1.24,-0.12 -2,-0.88 -0.72,-0.76 -0.76,-2.08 h -0.28 q -2.16,2.2 -4.28,3 -2.68,0 -4.2,-1.32 -1.48,-1.36 -1.48,-3.68 0,-1.76 0.92,-2.8 0.96,-1.04 2.8,-1.48 l 6.48,-1.52 0.04,-2.6 q 0,-1.56 -0.84,-2.4 -0.8,-0.84 -2.32,-0.84 -1.36,0 -2.72,0.64 -1.36,0.64 -2.92,2 l -0.32,-0.16 -0.4,-2.28 q 3.32,-2.48 6.84,-2.48 z m -3.2,11.56 q -0.8,0.24 -1.16,0.68 -0.36,0.4 -0.36,1.24 0,1.32 0.72,2.08 0.76,0.72 2,0.72 2.2,0 4.48,-2.84 l 0.12,-3.28 z"
         inkscape:connector-curvature="0" />
      <path
         id="path826"
         style="font-style:normal;font-variant:normal;font-weight:normal;font-stretch:normal;font-size:40px;font-family:'Alegreya Sans';-inkscape-font-specification:'Alegreya Sans, Normal';font-variant-ligatures:normal;font-variant-caps:normal;font-variant-numeric:normal;font-feature-settings:normal;text-align:start;writing-mode:lr-tb;text-anchor:start"
         d="m 35.754328,229.25177 q 0.04,-1.64 -0.76,-2.56 -0.8,-0.92 -2.36,-0.92 -2.52,0 -5.44,2.84 v 5.04 l 0.16,8.04 h -3.16 l 0.2,-7.76 -0.16,-10.36 3,-0.28 v 2.68 h 0.24 q 2.48,-2.2 5.08,-2.84 3,0 4.56,1.4 1.6,1.4 1.56,4 l -0.08,5.2 0.16,7.96 h -3.2 z"
         inkscape:connector-curvature="0" />
      <path
         id="path828"
         style="font-style:normal;font-variant:normal;font-weight:normal;font-stretch:normal;font-size:40px;font-family:'Alegreya Sans';-inkscape-font-specification:'Alegreya Sans, Normal';font-variant-ligatures:normal;font-variant-caps:normal;font-variant-numeric:normal;font-feature-settings:normal;text-align:start;writing-mode:lr-tb;text-anchor:start"
         d="m 47.954281,233.65177 0.2,8.04 h -3.16 l 0.24,-7.8 -0.2,-20 3.16,-0.28 z m 3.92,-1.88 q 2.76,3.72 7.68,9.36 v 0.36 q -0.76,0.24 -1.68,0.36 -0.88,0.16 -1.16,0.2 l -0.4,-0.16 q -4.52,-5.36 -7.6,-9.84 v -0.28 l 5.72,-6.76 1.04,-1.64 h 3.6 z"
         inkscape:connector-curvature="0" />
      <path
         id="path830"
         style="font-style:normal;font-variant:normal;font-weight:normal;font-stretch:normal;font-size:40px;font-family:'Alegreya Sans';-inkscape-font-specification:'Alegreya Sans, Normal';font-variant-ligatures:normal;font-variant-caps:normal;font-variant-numeric:normal;font-feature-settings:normal;text-align:start;writing-mode:lr-tb;text-anchor:start"
         d="m 63.874226,232.41177 v 0.08 q 0,3.36 1.52,5.16 1.52,1.8 4.32,1.8 1.4,0 2.8,-0.44 1.4,-0.48 2.56,-1.32 l 0.32,0.24 -0.48,2.72 q -2.8,1.36 -5.6,1.36 -3.92,0 -6.16,-2.48 -2.24,-2.52 -2.24,-6.88 0,-4.4 2.24,-7 2.24,-2.6 6.04,-2.6 3.2,0 4.96,1.84 1.76,1.8 1.76,5.04 0,1.08 -0.16,2.04 l -0.4,0.4 z m 5.32,-7.12 q -2,0 -3.36,1.32 -1.32,1.28 -1.76,3.64 l 8.84,-0.16 0.08,-0.56 q 0,-2.04 -1,-3.12 -0.96,-1.12 -2.8,-1.12 z"
         inkscape:connector-curvature="0" />
      <path
         id="path832"
         style="font-style:normal;font-variant:normal;font-weight:normal;font-stretch:normal;font-size:40px;font-family:'Alegreya Sans';-inkscape-font-specification:'Alegreya Sans, Normal';font-variant-ligatures:normal;font-variant-caps:normal;font-variant-numeric:normal;font-feature-settings:normal;text-align:start;writing-mode:lr-tb;text-anchor:start"
         d="m 89.274168,223.33177 q 0.48,0 1.04,0.08 v 3.08 l -0.36,0.12 q -0.68,-0.2 -1.48,-0.2 -1.32,0 -2.44,1.08 -1.08,1.04 -2.16,3.36 l -0.04,2.8 0.2,8.04 h -3.16 l 0.2,-7.76 -0.16,-10.36 3,-0.28 -0.04,3.76 h 0.24 q 1.12,-2 2.48,-2.84 1.36,-0.88 2.68,-0.88 z"
         inkscape:connector-curvature="0" />
    </g>
  </g>
</svg>
