<svg width="168.286" height="224.977" xmlns="http://www.w3.org/2000/svg"><g fill="none" stroke="#e79e17" data-name="Group 179"><path stroke-linecap="round" stroke-linejoin="round" stroke-width="1.829" d="M-963.4 262.108c-.225 18.025-.448 30.16-.673 48.187a95.03 95.03 0 0 1-18.51.346" data-name="Path 357" style="stroke:#353f4f;stroke-opacity:1" transform="translate(1027.413 -86.876)"/><path stroke-linecap="round" stroke-linejoin="round" stroke-width="1.829" d="M-941.547 262.451a462.642 462.642 0 0 0-.073 47.628 42.863 42.863 0 0 1 18.609.272" data-name="Path 358" style="stroke:#353f4f;stroke-opacity:1" transform="translate(1042.768 -86.746)"/><path stroke-miterlimit="10" stroke-width="4.269" d="M-956.324 140.788c-14.339 7.95-23.031 23.186-29.191 38.381a209.9 209.9 0 0 0-14.937 91.076c.359 5.964 1.02 12.078 3.762 17.386 3.481 6.738 9.96 11.449 16.75 14.828 12.888 6.412 27.419 8.839 41.794 9.612 12.22.657 24.772.123 36.175-4.319s21.581-13.313 25.14-25.022c2.108-6.93 1.814-14.331 1.5-21.567l-.925-21.37c-.825-19.073-1.713-38.483-8.121-56.467s-19.291-34.658-37.344-40.868c-5.747-1.978-12.752-6.646-18.749-5.657-13.025 2.145-6.84.774-15.856 3.987" data-name="Path 359" style="stroke:#353f4f;stroke-opacity:1" transform="translate(1020.478 -134.57)"/><path stroke-linecap="round" stroke-linejoin="round" stroke-width="1.829" d="M-992.129 192.036c-12.549 2.954-22.26 15.2-22.272 28.1a19.55 19.55 0 0 0 1.883 8.879c2.568 5.056 7.758 8.149 12.721 10.894a553.723 553.723 0 0 0 54.521 26.356" data-name="Path 360" style="stroke:#353f4f;stroke-opacity:1" transform="translate(1015.316 -113.518)"/><path stroke-linecap="round" stroke-linejoin="round" stroke-width="1.829" d="M-903.756 191.7a57.486 57.486 0 0 1 22.141 24.55c2.737 5.478 4.684 12.035 2.185 17.625-1.736 3.883-5.358 6.614-9.172 8.5-14.117 6.969-31.234 4.2-46.038 9.558" data-name="Path 361" style="stroke:#353f4f;stroke-opacity:1" transform="translate(1045.642 -113.644)"/><path stroke-linecap="round" stroke-linejoin="round" stroke-width="1.829" d="M-948.544 168.386c0 1.267-.026 2.533-.046 3.8a3.677 3.677 0 0 0 2.128 3.462c2.07.932 6.494.058 7.9-.3 4.194-1.059 2.241-4.727 2.241-6.966" data-name="Path 362" style="stroke:#353f4f;stroke-opacity:1" transform="translate(1040.338 -122.509)"/><path stroke-linecap="round" stroke-linejoin="round" stroke-width="1.829" d="M-968.089 168.386c0 1.267-.026 2.533-.044 3.8a3.673 3.673 0 0 0 2.127 3.462c2.07.932 6.494.058 7.9-.3 4.194-1.059 2.241-4.727 2.241-6.966" data-name="Path 363" style="stroke:#353f4f;stroke-opacity:1" transform="translate(1032.907 -122.509)"/><path stroke-linecap="round" stroke-linejoin="round" stroke-width="1.829" d="M-946.9 188.881c-6.745-5.318-14.24-4.1-20.377.2" data-name="Path 365" style="stroke:#353f4f;stroke-opacity:1" transform="translate(1033.231 -116.058)"/></g></svg>