<svg width="1190.07" height="1314.459" xmlns="http://www.w3.org/2000/svg"><defs><clipPath id="Illustration_undersøg_svg__a"><path fill="none" d="M0 0h243.014v124.265H0z" data-name="Rectangle 485"/></clipPath><clipPath id="Illustration_undersøg_svg__b"><path fill="none" d="M0 0h511.868v25.936H0z" data-name="Rectangle 486"/></clipPath><clipPath id="Illustration_undersøg_svg__c"><path fill="none" d="M0 0h38.492v37.672H0z" data-name="Rectangle 488"/></clipPath></defs><g data-name="Group 1217"><g data-name="Group 1208"><path fill="#fff" d="m408.774 1148.262-40.209-21.356C195.757 1035.12 153.981 775.61 252.296 590.509c2.064-3.885 34.672-200.04 36.822-203.798 101.959-178.161 303.526-90.07 472.708-.21l40.209 21.357c172.812 91.788 224.867 331.945 116.273 536.399s-336.722 295.793-509.534 204.005Z" data-name="Path 1683"/><path fill="none" stroke="#323f51" stroke-linecap="round" stroke-linejoin="round" stroke-width="4" d="M658.7 748.314c-5.322 113.6-17.068 195.675-33.159 309 49.54.376 64.333-2.546 112.661-10.875" data-name="Path 1684"/><path fill="none" stroke="#323f51" stroke-linecap="round" stroke-linejoin="round" stroke-width="4" d="M586.725 756.3c-26.202 115.169-35.21 191.308-22.76 304.429a406.744 406.744 0 0 0-93.94-8.441" data-name="Path 1685"/><path fill="#7ec8d6" d="M461.617 701.412c4.973 13.594 11.785 27.072 23.032 36.184 15.524 12.581 36.774 14.873 56.728 15.9 50.52 2.593 103.139-.177 148.168-23.226s80.539-70.68 76.032-121.065c-1.972-22.062-11.168-42.738-20.225-62.953l-76.6-170.8c-32.565-72.6-73.41-163.6-158.074-185.962-58.538-15.458-93.706 8.742-100.281 66.935-7.08 62.607 15.388 129.881 24.098 191.387 11.67 82.349-1.684 174.827 27.122 253.6" data-name="Path 1686"/><path fill="none" stroke="#323f51" stroke-miterlimit="10" stroke-width="4.503" d="M461.617 701.412c4.973 13.594 11.785 27.072 23.032 36.184 15.524 12.581 36.774 14.873 56.728 15.9 50.52 2.593 103.139-.177 148.168-23.226s80.539-70.68 76.032-121.065c-1.972-22.062-11.168-42.738-20.225-62.953l-76.6-170.8c-32.565-72.6-73.41-163.6-158.074-185.962-58.538-15.458-93.706 8.742-100.281 66.935-7.08 62.607 15.388 129.881 24.098 191.387 11.67 82.348-1.684 174.826 27.122 253.6Z" data-name="Path 1687"/><path fill="none" stroke="#323f51" stroke-linecap="round" stroke-linejoin="round" stroke-width="4" d="M444.988 629.196c-27.588 6.955-50.954 8.916-77.095 6.843-13.382-1.064-27.093-3.9-31.568-11.2-3.105-5.071-1.131-11.457 2.511-17.408 13.5-22.027 28.23-18.4 45.457-39.972" data-name="Path 1688"/><path fill="#323f51" d="M586.776 301.75a29.865 29.865 0 0 1 8.9 3.293c1.352.75 2.05 1.71 1.01 3-1.021 1.24-2.269.91-3.483.255-9.448-5.107-18.893-4.075-28.33 1.318-.476.271-.954.52-1.418.8-1.16.7-2.34.906-3.223-.092-.915-1.037-.612-2.089.7-2.891 7.872-4.8 16.3-7.429 25.841-5.682" data-name="Path 1689"/><path fill="#323f51" d="M577.166 349.995a15.59 15.59 0 0 1 20.359 8.467l.151.381c3.651 8.683.393 16.747-8.222 20.39-8.917 3.769-16.146.7-20.028-8.5-3.623-8.577-.4-17.222 7.739-20.737" data-name="Path 1690"/><path fill="#fff" d="M588.354 362.892a6.123 6.123 0 0 1 8.317 2.41 7.166 7.166 0 0 1-2.294 9.321 6.246 6.246 0 0 1-.37.175 6.882 6.882 0 0 1-9.257-3c-.038-.076-.076-.151-.11-.227a6.372 6.372 0 0 1 3.131-8.449c.191-.086.386-.165.584-.233" data-name="Path 1691"/><g data-name="Group 1154" opacity=".41"><g data-name="Group 1153"><g clip-path="url(#Illustration_undersøg_svg__a)" data-name="Group 1152" transform="translate(383.688 252.733)"><path fill="#333" d="M242.106 10.304c8.131 18.918-39.273 57.46-105.877 86.085S9.039 132.88.908 113.961s39.272-57.46 105.877-86.085 127.19-36.493 135.321-17.573" data-name="Path 1692"/></g></g></g><g data-name="Group 1157" opacity=".17"><g data-name="Group 1156"><g clip-path="url(#Illustration_undersøg_svg__b)" data-name="Group 1155" transform="translate(327.436 1046.307)"><path d="M511.866 12.968c0 7.163-114.585 12.969-255.931 12.969S-.001 20.131-.001 12.968 114.583.002 255.935.002s255.931 5.807 255.931 12.966" data-name="Path 1693"/></g></g></g><path fill="#333" d="M685.93 214.777c8.13 18.92-63.745 67.977-160.54 109.575s-181.849 59.983-189.979 41.065 63.743-67.977 160.538-109.575 181.85-59.983 189.981-41.065" data-name="Path 1694"/><path fill="#333" d="M377.821 307.138c3.712 19.8 7.679 33.3 9.251 33.023 39.985-7.165 96.78-29.222 121.232-39.178l.06.141s2.154-.925 5.927-2.6c3.811-1.583 5.966-2.507 5.966-2.507l-.062-.144c24.051-10.887 79.14-36.913 111.855-60.993 1.281-.942-5.7-12.983-17.393-29.163-26.443 19.689-66.4 42.06-112.815 62.011-47.085 20.231-91.4 33.923-124.021 39.41" data-name="Path 1695"/><path fill="#fcfdff" d="M487.202 235.484c-44.223 19-85.664 31.438-114.721 35.5a487.076 487.076 0 0 0 5.342 36.151c32.621-5.484 76.936-19.178 124.023-39.414 46.418-19.95 86.372-42.32 112.815-62.009-6.374-8.822-14.15-18.875-22.75-29.031-22.946 18.286-60.485 39.8-104.708 58.8" data-name="Path 1696"/><path fill="#333" d="M576.601 159.53c-6.595-6.991-13.438-13.716-20.329-19.78-17.608-15.494-35.522-26.673-50.382-26.941-48.718-.88-37.749 46.769-45.812 51.981l-2.551 1.646-2.951.717c-9.328 2.263-36.352-38.487-69.242-2.534-10.031 10.966-14.25 31.658-15.127 55.1-.346 9.269-.168 18.97.378 28.67a427.608 427.608 0 0 0 1.9 22.606c29.057-4.064 70.5-16.5 114.721-35.5s81.762-40.516 104.708-58.8a430.93 430.93 0 0 0-15.31-17.157" data-name="Path 1697"/><path fill="#323f51" d="M563.193 435.274c5.284-1.917 11.406 1.6 13.674 7.847s-.178 12.872-5.461 14.791-11.406-1.6-13.674-7.848.178-12.871 5.461-14.789" data-name="Path 1704"/><path fill="#8fc6d4" d="M490.673 506.994a115.7 115.7 0 1 0-151.981-60.62 115.829 115.829 0 0 0 151.981 60.62" data-name="Path 1705"/><path fill="none" stroke="#323f51" stroke-miterlimit="10" stroke-width="4.503" d="M490.673 506.994a115.7 115.7 0 1 0-151.981-60.62 115.829 115.829 0 0 0 151.981 60.62Z" data-name="Path 1706"/><path fill="#333" d="m362.021 650.762 48.543-132.727a122.528 122.528 0 1 0-24.637-10.258l-48.95 133.827Zm-17.284-206.987a109.116 109.116 0 1 1 143.334 57.166 109.117 109.117 0 0 1-143.334-57.166" data-name="Path 1707"/><path fill="#8fc6d4" d="M392.271 564.345a22.367 22.367 0 1 0-13.55 28.581 22.365 22.365 0 0 0 13.55-28.581" data-name="Path 1708"/><path fill="#fff" d="M364.681 429.118c-5.128-16.712-5.444-33.177-.939-48.939 3.376-11.809 8.349-18.778 8.4-18.846l-6.417-4.67c-.231.318-5.718 7.928-9.507 20.966-3.47 11.941-6.134 30.971.875 53.818Z" data-name="Path 1709"/><path fill="#fff" d="m372.681 456.734 4.527-6.519c-1.48-1.095-6.046-8-9.375-13.758l-6.87 3.973c2.372 4.1 8.266 13.9 11.719 16.3" data-name="Path 1710"/><path fill="#323f51" d="M432.782 361.526c24.475-10.852 47.446-2.15 57.175 21.693 9.8 24.006 1.979 45.909-20.107 56.386-23.756 11.25-51.967 1.563-61.433-21.145-9.826-23.53-.172-46.045 24.364-56.934" data-name="Path 1711"/><g data-name="Group 1160" opacity=".9" style="isolation:isolate"><g data-name="Group 1159"><g clip-path="url(#Illustration_undersøg_svg__c)" data-name="Group 1158" transform="translate(455.017 391.68)"><path fill="#fff" d="M12.068 2.129a17.2 17.2 0 0 1 24.476 9.285 17.557 17.557 0 0 1-7.578 23.646q-.508.261-1.031.488a19.3 19.3 0 0 1-25.976-8.387 18.668 18.668 0 0 1-.324-.668 17.881 17.881 0 0 1 8.8-23.71q.8-.367 1.634-.655" data-name="Path 1712"/></g></g></g><path fill="none" d="M322.677 0h867.393v1106.387H322.677z" data-name="Rectangle 489"/><path fill="none" d="M322.677 0h867.393v1106.387H322.677z" data-name="Rectangle 490"/><path fill="none" stroke="#323f51" stroke-linecap="round" stroke-linejoin="round" stroke-width="5" d="M696.774 435.923c23.461 20.635 38.869 45.02 51.239 79.806 6.334 17.808 10.841 39.124 5.057 57.3-4.018 12.621-12.4 21.5-21.225 27.616-32.669 22.654-72.282 13.662-106.541 31.071" data-name="Path 1763"/></g></g></svg>