<svg xmlns="http://www.w3.org/2000/svg" xmlns:xlink="http://www.w3.org/1999/xlink" width="1190.07" height="1314.459" viewBox="0 0 1190.07 1314.459">
  <defs>
    <clipPath id="clip-path">
      <rect id="Rectangle_485" data-name="Rectangle 485" width="243.014" height="124.265" fill="none"/>
    </clipPath>
    <clipPath id="clip-path-2">
      <rect id="Rectangle_486" data-name="Rectangle 486" width="511.868" height="25.936" fill="none"/>
    </clipPath>
    <clipPath id="clip-path-3">
      <rect id="Rectangle_488" data-name="Rectangle 488" width="38.492" height="37.672" fill="none"/>
    </clipPath>
  </defs>
  <g id="Group_1217" data-name="Group 1217" transform="translate(-1613.628 -6066.242)">
    <g id="Group_1208" data-name="Group 1208" transform="translate(21434 26138)">
      <path id="Path_1683" data-name="Path 1683" d="M354.364,0H399.9C595.606,0,754.26,209.628,754.26,419.255c0,4.4,63.225,192.964,63.089,197.292C810.875,821.754,591.5,838.51,399.9,838.51H354.364C158.654,838.51,0,650.8,0,419.255S158.654,0,354.364,0Z" transform="matrix(-0.883, -0.469, 0.469, -0.883, -19098.695, -18757.299)" fill="#fff"/>
      <path id="Path_1684" data-name="Path 1684" d="M233.478,494.949c-5.322,113.6-17.068,195.675-33.159,309,49.54.376,64.333-2.546,112.661-10.875" transform="translate(-19395.15 -19818.393)" fill="none" stroke="#323f51" stroke-linecap="round" stroke-linejoin="round" stroke-width="4"/>
      <path id="Path_1685" data-name="Path 1685" d="M214.16,500.231C187.958,615.4,178.95,691.539,191.4,804.66a406.744,406.744,0,0,0-93.94-8.441" transform="translate(-19447.807 -19815.689)" fill="none" stroke="#323f51" stroke-linecap="round" stroke-linejoin="round" stroke-width="4"/>
      <path id="Path_1686" data-name="Path 1686" d="M109.7,638.8c4.973,13.594,11.785,27.072,23.032,36.184,15.524,12.581,36.774,14.873,56.728,15.9,50.52,2.593,103.139-.177,148.168-23.226s80.539-70.68,76.032-121.065c-1.972-22.062-11.168-42.738-20.225-62.953l-76.6-170.8c-32.565-72.6-73.41-163.6-158.074-185.962-58.538-15.458-93.706,8.742-100.281,66.935C51.4,256.42,73.868,323.694,82.578,385.2c11.67,82.349-1.684,174.827,27.122,253.6" transform="translate(-19468.455 -20009.146)" fill="#7ec8d6"/>
      <path id="Path_1687" data-name="Path 1687" d="M109.7,638.8c4.973,13.594,11.785,27.072,23.032,36.184,15.524,12.581,36.774,14.873,56.728,15.9,50.52,2.593,103.139-.177,148.168-23.226s80.539-70.68,76.032-121.065c-1.972-22.062-11.168-42.738-20.225-62.953l-76.6-170.8c-32.565-72.6-73.41-163.6-158.074-185.962-58.538-15.458-93.706,8.742-100.281,66.935C51.4,256.42,73.868,323.694,82.578,385.2,94.248,467.548,80.894,560.026,109.7,638.8Z" transform="translate(-19468.455 -20009.146)" fill="none" stroke="#323f51" stroke-miterlimit="10" stroke-width="4.503"/>
      <path id="Path_1688" data-name="Path 1688" d="M118.212,437.065c-27.588,6.955-50.954,8.916-77.095,6.843-13.382-1.064-27.093-3.9-31.568-11.2-3.105-5.071-1.131-11.457,2.511-17.408,13.5-22.027,28.23-18.4,45.457-39.972" transform="translate(-19493.596 -19879.627)" fill="none" stroke="#323f51" stroke-linecap="round" stroke-linejoin="round" stroke-width="4"/>
      <path id="Path_1689" data-name="Path 1689" d="M183.845,199.767a29.865,29.865,0,0,1,8.9,3.293c1.352.75,2.05,1.71,1.01,3-1.021,1.24-2.269.91-3.483.255-9.448-5.107-18.893-4.075-28.33,1.318-.476.271-.954.52-1.418.8-1.16.7-2.34.906-3.223-.092-.915-1.037-.612-2.089.7-2.891,7.872-4.8,16.3-7.429,25.841-5.682" transform="translate(-19417.441 -19969.775)" fill="#323f51"/>
      <path id="Path_1690" data-name="Path 1690" d="M171.444,231.895a15.59,15.59,0,0,1,20.359,8.467c.051.127.1.254.151.381,3.651,8.683.393,16.747-8.222,20.39-8.917,3.769-16.146.7-20.028-8.5-3.623-8.577-.4-17.222,7.739-20.737" transform="translate(-19414.65 -19953.658)" fill="#323f51"/>
      <path id="Path_1691" data-name="Path 1691" d="M177.179,240.28a6.123,6.123,0,0,1,8.317,2.41,7.166,7.166,0,0,1-2.294,9.321c-.121.062-.245.121-.37.175a6.882,6.882,0,0,1-9.257-3c-.038-.076-.076-.151-.11-.227a6.372,6.372,0,0,1,3.131-8.449c.191-.086.386-.165.584-.233" transform="translate(-19409.197 -19949.146)" fill="#fff"/>
      <g id="Group_1154" data-name="Group 1154" transform="translate(-19436.684 -19819.025)" opacity="0.41">
        <g id="Group_1153" data-name="Group 1153">
          <g id="Group_1152" data-name="Group 1152" clip-path="url(#clip-path)">
            <path id="Path_1692" data-name="Path 1692" d="M282.459,177.466c8.131,18.918-39.273,57.46-105.877,86.085S49.392,300.042,41.261,281.123s39.272-57.46,105.877-86.085,127.19-36.493,135.321-17.573" transform="translate(-40.353 -167.162)" fill="#333"/>
          </g>
        </g>
      </g>
      <g id="Group_1157" data-name="Group 1157" transform="translate(-19492.936 -19025.451)" opacity="0.17">
        <g id="Group_1156" data-name="Group 1156">
          <g id="Group_1155" data-name="Group 1155" clip-path="url(#clip-path-2)">
            <path id="Path_1693" data-name="Path 1693" d="M515.015,705.015c0,7.163-114.585,12.969-255.931,12.969S3.148,712.178,3.148,705.015s114.584-12.966,255.936-12.966,255.931,5.807,255.931,12.966" transform="translate(-3.149 -692.047)"/>
          </g>
        </g>
      </g>
      <path id="Path_1694" data-name="Path 1694" d="M359.154,144.578c8.13,18.92-63.745,67.977-160.54,109.575S16.765,314.136,8.635,295.218s63.743-67.977,160.538-109.575,181.85-59.983,189.981-41.065" transform="translate(-19493.596 -20001.559)" fill="#333"/>
      <path id="Path_1695" data-name="Path 1695" d="M36.474,237.487c3.712,19.8,7.679,33.3,9.251,33.023,39.985-7.165,96.78-29.222,121.232-39.178l.06.141s2.154-.925,5.927-2.6c3.811-1.583,5.966-2.507,5.966-2.507l-.062-.144c24.051-10.887,79.14-36.913,111.855-60.993,1.281-.942-5.7-12.983-17.393-29.163-26.443,19.689-66.4,42.06-112.815,62.011C113.41,218.308,69.095,232,36.474,237.487" transform="translate(-19479.025 -20002.107)" fill="#333"/>
      <path id="Path_1696" data-name="Path 1696" d="M147.662,175.664c-44.223,19-85.664,31.438-114.721,35.5,1.433,13.093,3.352,25.528,5.342,36.151,32.621-5.484,76.936-19.178,124.023-39.414,46.418-19.95,86.372-42.32,112.815-62.009-6.374-8.822-14.15-18.875-22.75-29.031-22.946,18.286-60.485,39.8-104.708,58.8" transform="translate(-19480.832 -20011.938)" fill="#fcfdff"/>
      <path id="Path_1697" data-name="Path 1697" d="M237.891,121.338c-6.595-6.991-13.438-13.716-20.329-19.78C199.954,86.064,182.04,74.885,167.18,74.617c-48.718-.88-37.749,46.769-45.812,51.981l-2.551,1.646-2.951.717c-9.328,2.263-36.352-38.487-69.242-2.534-10.031,10.966-14.25,31.658-15.127,55.1-.346,9.269-.168,18.97.378,28.67.429,7.606,1.086,15.21,1.9,22.606,29.057-4.064,70.5-16.5,114.721-35.5s81.762-40.516,104.708-58.8c-4.874-5.754-10.01-11.54-15.31-17.157" transform="translate(-19481.662 -20033.566)" fill="#333"/>
      <path id="Path_1704" data-name="Path 1704" d="M161.217,288.077c5.284-1.917,11.406,1.6,13.674,7.847s-.178,12.872-5.461,14.791-11.406-1.6-13.674-7.848.178-12.871,5.461-14.789" transform="translate(-19418.396 -19924.561)" fill="#323f51"/>
      <path id="Path_1705" data-name="Path 1705" d="M165.756,410.5A115.7,115.7,0,1,0,13.775,349.88,115.829,115.829,0,0,0,165.756,410.5" transform="translate(-19495.455 -19975.264)" fill="#8fc6d4"/>
      <path id="Path_1706" data-name="Path 1706" d="M165.756,410.5A115.7,115.7,0,1,0,13.775,349.88,115.829,115.829,0,0,0,165.756,410.5Z" transform="translate(-19495.455 -19975.264)" fill="none" stroke="#323f51" stroke-miterlimit="10" stroke-width="4.503"/>
      <path id="Path_1707" data-name="Path 1707" d="M39.344,556.508,87.887,423.781A122.528,122.528,0,1,0,63.25,413.523L14.3,547.35ZM22.06,349.521a109.116,109.116,0,1,1,143.334,57.166A109.117,109.117,0,0,1,22.06,349.521" transform="translate(-19497.695 -19977.504)" fill="#333"/>
      <path id="Path_1708" data-name="Path 1708" d="M60.739,378.3a22.367,22.367,0,1,0-13.55,28.581A22.365,22.365,0,0,0,60.739,378.3" transform="translate(-19488.84 -19885.713)" fill="#8fc6d4"/>
      <path id="Path_1709" data-name="Path 1709" d="M31.84,308.358c-5.128-16.712-5.444-33.177-.939-48.939,3.376-11.809,8.349-18.778,8.4-18.846l-6.417-4.67c-.231.318-5.718,7.928-9.507,20.966-3.47,11.941-6.134,30.971.875,53.818Z" transform="translate(-19487.531 -19950.998)" fill="#fff"/>
      <path id="Path_1710" data-name="Path 1710" d="M37.041,308.958l4.527-6.519c-1.48-1.095-6.046-8-9.375-13.758l-6.87,3.973c2.372,4.1,8.266,13.9,11.719,16.3" transform="translate(-19484.732 -19923.982)" fill="#fff"/>
      <path id="Path_1711" data-name="Path 1711" d="M82.359,240.682c24.475-10.852,47.446-2.15,57.175,21.693,9.8,24.006,1.979,45.909-20.107,56.386-23.756,11.25-51.967,1.563-61.433-21.145-9.826-23.53-.172-46.045,24.364-56.934" transform="translate(-19469.949 -19950.914)" fill="#323f51"/>
      <g id="Group_1160" data-name="Group 1160" transform="translate(-19365.355 -19680.078)" opacity="0.9" style="isolation: isolate">
        <g id="Group_1159" data-name="Group 1159">
          <g id="Group_1158" data-name="Group 1158" clip-path="url(#clip-path-3)">
            <path id="Path_1712" data-name="Path 1712" d="M99.6,261.193a17.2,17.2,0,0,1,24.476,9.285,17.557,17.557,0,0,1-7.578,23.646q-.508.261-1.031.488a19.3,19.3,0,0,1-25.976-8.387c-.112-.221-.221-.443-.324-.668a17.881,17.881,0,0,1,8.8-23.71q.8-.367,1.634-.655" transform="translate(-87.532 -259.064)" fill="#fff"/>
          </g>
        </g>
      </g>
      <rect id="Rectangle_489" data-name="Rectangle 489" width="867.393" height="1106.387" transform="translate(-19497.695 -20071.758)" fill="none"/>
      <rect id="Rectangle_490" data-name="Rectangle 490" width="867.393" height="1106.387" transform="translate(-19497.695 -20071.758)" fill="none"/>
      <path id="Path_1763" data-name="Path 1763" d="M-863.168,191.7c23.461,20.635,38.869,45.02,51.239,79.806,6.334,17.808,10.841,39.124,5.057,57.3-4.018,12.621-12.4,21.5-21.225,27.616-32.669,22.654-72.282,13.662-106.541,31.071" transform="translate(-18260.43 -19827.535)" fill="none" stroke="#323f51" stroke-linecap="round" stroke-linejoin="round" stroke-width="5"/>
    </g>
  </g>
</svg>
