<svg width="852.996" height="822.288" xmlns="http://www.w3.org/2000/svg"><defs><clipPath id="Illustration_symptom_hovedpine_svg__a"><path fill="none" d="M0 0h379.422v22.807H0z" data-name="Rectangle 486"/></clipPath></defs><g data-name="Group 1218"><g data-name="Group 775"><path fill="#fff" d="m546.426 721.093-38.492 11.055C342.49 779.664 4.954 545.095 102.732 452.84s79.114-314.986 244.56-362.503l38.491-11.055C551.227 31.765 721.31 136.92 765.673 314.15s-53.802 359.426-219.247 406.943Z" data-name="Path 917"/></g><g stroke-width="6" data-name="Group 1200"><path fill="none" stroke="#353f4f" stroke-linecap="round" stroke-linejoin="round" d="M330.724 456.431c10.628 41.481 2.4 64.137-2.583 106.667a828.423 828.423 0 0 0-1.794 175.914 151.541 151.541 0 0 0-50.453-.694" data-name="Path 368"/><path fill="none" stroke="#353f4f" stroke-linecap="round" stroke-linejoin="round" d="M406.022 456.11c2.423 103.407-15.856 185.528-13.216 288.931q27.957-2.555 56.04-3.3" data-name="Path 369"/><path fill="none" stroke="#930031" stroke-linecap="round" d="m355.4 42.051-14.339 40.316h23.988l-13.731 39.404" data-name="Path 370"/><path fill="none" stroke="#930031" stroke-linecap="round" d="m280.608 48.152.135 42.791 22.576-8.11.4 41.726" data-name="Path 371"/><path fill="none" stroke="#930031" stroke-linecap="round" d="m438.156 50.981-29.469 31.023 21.923 9.738-28.548 30.437" data-name="Path 372"/><path fill="#7ec8d6" stroke="#353f4f" stroke-miterlimit="10" d="M239.141 319.756c8.695 34.078 27.58 64.692 48.754 92.771 16.935 22.448 37.71 44.987 65.359 50.093 24.507 4.521 49.578-5.873 69.78-20.467 49.478-35.733 77.743-100 67.4-160.145-11.576-67.315-81.421-133.715-153.057-128.175-74.778 5.778-114.525 102.094-98.236 165.923Z" data-name="Path 373"/><g fill="none" stroke="#353f4f" stroke-linecap="round" stroke-linejoin="round" data-name="Group 180"><path d="M390.513 256.72a77.055 77.055 0 0 0 28.282-10.424" data-name="Path 374"/><path d="M392.424 266.733a65.6 65.6 0 0 0 20.68.88" data-name="Path 375"/></g><g fill="none" stroke="#353f4f" stroke-linecap="round" stroke-linejoin="round" data-name="Group 181"><path d="M332.639 256.72a77.062 77.062 0 0 1-28.278-10.424" data-name="Path 376"/><path d="M330.732 266.733a65.624 65.624 0 0 1-20.684.88" data-name="Path 377"/></g><path fill="none" stroke="#353f4f" stroke-linecap="round" stroke-linejoin="round" d="M445.205 356.694s-88.458-73.877-162.334 0" data-name="Path 378"/><path fill="none" stroke="#353f4f" stroke-linecap="round" stroke-linejoin="round" d="m483.457 353.544 28.746-11.114c10.1-3.905 20.45-7.962 28.473-15.236s13.316-18.6 10.433-29.037c-1.578-5.717-5.362-10.533-9.176-15.071a333.593 333.593 0 0 0-124.438-92.024" data-name="Path 379"/><path fill="none" stroke="#353f4f" stroke-linecap="round" stroke-linejoin="round" d="M259.383 365.744c-18.608-2.731-37.376-5.5-55-12.054s-34.263-17.277-44.623-32.972c-4.408-6.684-7.65-14.33-8.062-22.331-.477-9.154 2.8-18.2 7.7-25.946 13.569-21.404 38.08-32.782 61.252-43.044q33.146-14.674 66.287-29.349" data-name="Path 380"/></g><g data-name="Group 1213" opacity=".17"><g clip-path="url(#Illustration_symptom_hovedpine_svg__a)" data-name="Group 1155" transform="translate(185.045 733.961)"><path d="M379.42 11.402c0 6.3-84.936 11.4-189.709 11.4S-.001 17.701-.001 11.402 84.934.002 189.711.002s189.709 5.107 189.709 11.4" data-name="Path 1693"/></g></g></g></svg>