<svg width="343" height="85.244" xmlns="http://www.w3.org/2000/svg"><defs><filter id="Knap_notesbog_svg__a" width="71.312" height="69.182" x="237.684" y="0" filterUnits="userSpaceOnUse"><feOffset dy="3"/><feGaussianBlur result="blur" stdDeviation="3"/><feFlood flood-opacity=".161"/><feComposite in2="blur" operator="in"/><feComposite in="SourceGraphic"/></filter><filter id="Knap_notesbog_svg__b" width="71.312" height="69.182" x="252.68" y="10.83" filterUnits="userSpaceOnUse"><feOffset dy="3"/><feGaussianBlur result="blur-2" stdDeviation="3"/><feFlood flood-opacity=".416"/><feComposite in2="blur-2" operator="in"/><feComposite in="SourceGraphic"/></filter></defs><g data-name="Group 1212"><g data-name="Group 1210" transform="translate(-18752.158 14187.244)"><rect width="343" height="70" fill="#fff6d5" data-name="Rectangle 332" rx="35" transform="translate(18752.158 -14172)"/><text fill="#323f51" font-family="FiraSans-MediumItalic, Fira Sans" font-size="40" font-style="italic" font-weight="500" transform="translate(18797.066 -14165.757)"><tspan x="0" y="43">Notesbog</tspan></text></g><g data-name="Group 1211"><g filter="url(#Knap_notesbog_svg__a)" transform="translate(-.002)"><g fill="#faf7d3" data-name="Path 700"><path d="M298.492 55.682H248.18V7.5h50.312v48.182Z"/><path fill="#323f51" d="M249.68 9v45.182h47.312V9H249.68m-3-3h53.312v51.182H246.68V6Z"/></g></g><g filter="url(#Knap_notesbog_svg__b)" transform="translate(-.002)"><g fill="#faf7d3" data-name="Path 701"><path d="M313.492 66.512H263.18V18.33h50.312v48.182Z"/><path fill="#323f51" d="M264.68 19.83v45.182h47.312V19.83H264.68m-3-3h53.312v51.182H261.68V16.83Z"/></g></g><path fill="none" stroke="#707070" d="M270.995 30.003h36.956" data-name="Line 48"/><path fill="none" stroke="#707070" d="M270.995 41.675h29.176" data-name="Line 49"/><path fill="none" stroke="#707070" d="M270.995 53.344h22.9" data-name="Path 1146"/></g></g></svg>