<svg width="153.355" height="258.252" xmlns="http://www.w3.org/2000/svg"><g fill="none" stroke="#353f4f" data-name="Group 1190"><path stroke-linecap="round" stroke-linejoin="round" stroke-width="2.99937" d="M34.183 97.95c-7.432 4.415-12.57 8.17-18.083 14.789-6.909 8.299-10.01 19.186-10.643 29.912s12.577 17.72 14.224 28.338" data-name="Path 1734"/><g data-name="Group 1074"><path stroke-linecap="round" stroke-linejoin="round" stroke-width="3" d="M90.436 168.267c2.283 32.3 1.7 55.9.926 88.486 14.022-1.548 18.107-2.865 31.5-6.832" data-name="Path 418"/><path stroke-linecap="round" stroke-linejoin="round" stroke-width="3" d="M48.537 166.19c-34.085 29.6-12.061 40.307-8.516 72.517-8.478-1.808-15.514 11.544-24.713 11.763" data-name="Path 419"/><path stroke-miterlimit="10" stroke-width="4.503" d="M24.439 137.243c-.227 4.115.04 8.407 1.958 12.056 2.646 5.036 7.947 8.025 13.052 10.535 12.925 6.358 27 11.549 41.373 10.582s29.016-9.435 33.5-23.123c1.964-5.993 1.885-12.436 1.785-18.743l-.835-53.294c-.356-22.655-.811-51.053-20.445-66.421-13.576-10.626-25.5-8.249-33.76 6.236-8.891 15.583-10.578 35.709-15.211 52.778-6.206 22.856-20.097 45.546-21.417 69.394Z" data-name="Path 421"/><path stroke-linecap="round" stroke-linejoin="round" stroke-width="3" d="M116.302 104.553c8.495-.325 18.077 7.693 21.974 18.379a37.822 37.822 0 0 1 1.288 21.594c-2.578 10.099-18.37 22.349-20.55 25.718" data-name="Path 423"/><path stroke-linecap="round" stroke-linejoin="round" stroke-width="3" d="M88.951 55.252a20.57 20.57 0 0 0 7.538-2.777" data-name="Path 612"/><path stroke-linecap="round" stroke-linejoin="round" stroke-width="3" d="M89.46 57.92a17.468 17.468 0 0 0 5.511.234" data-name="Path 613"/><g stroke-linecap="round" stroke-linejoin="round" stroke-width="3" data-name="Group 325"><path d="M73.527 55.252a20.554 20.554 0 0 1-7.536-2.777" data-name="Path 614"/><path d="M73.018 57.92a17.466 17.466 0 0 1-5.511.234" data-name="Path 615"/></g><path stroke-linecap="round" stroke-linejoin="round" stroke-width="2.99937" d="M71.203 74.74a6.223 6.223 0 0 1 4.625-2.723 13.158 13.158 0 0 1 5.687.652 14.27 14.27 0 0 0 3.478.87 7.808 7.808 0 0 0 2.524-.32 10.376 10.376 0 0 0 4.038-2.17" data-name="Path 551"/></g><path stroke-linecap="round" stroke-width="2.1492149" d="m150.377 105.607-5.9 2.198 2.27 2.704-5.742 2.182" data-name="Path 1616"/><path stroke-linecap="round" stroke-width="2.149" d="M12.817 185.318 18 188.89l.914-3.41 5.08 3.453" data-name="Path 1619"/><path stroke-linecap="round" stroke-width="2.149" d="m142.963 96.262-4.864 3.998 3.026 1.818-4.719 3.932" data-name="Path 1617"/><path stroke-linecap="round" stroke-width="2.149" d="m9.406 196.74 6.064 1.69-.246-3.521 5.927 1.61" data-name="Path 1618"/></g></svg>