<svg width="110.949" height="258.252" xmlns="http://www.w3.org/2000/svg"><g fill="none" stroke="#353f4f" data-name="Group 1071"><path stroke-linecap="round" stroke-linejoin="round" stroke-width="3" d="M76.663 168.267c2.283 32.3 1.7 55.9.926 88.486 14.022-1.548 18.107-2.865 31.5-6.832" data-name="Path 418"/><path stroke-linecap="round" stroke-linejoin="round" stroke-width="3" d="M34.764 166.19c-7.46 32.794-10.026 54.474-6.481 86.684a115.791 115.791 0 0 0-26.749-2.4" data-name="Path 419"/><path stroke-miterlimit="10" stroke-width="4.503" d="M10.666 137.243c-.227 4.115.04 8.407 1.958 12.056 2.646 5.036 7.947 8.025 13.052 10.535 12.925 6.358 27 11.549 41.373 10.582s29.016-9.435 33.5-23.123c1.964-5.993 1.885-12.436 1.785-18.743l-.835-53.294c-.356-22.655-.811-51.053-20.445-66.421-13.576-10.626-25.5-8.249-33.76 6.236-8.891 15.583-10.578 35.709-15.211 52.778-6.206 22.856-20.097 45.546-21.417 69.394Z" data-name="Path 421"/><path stroke-linecap="round" stroke-linejoin="round" stroke-width="3" d="M23.012 90.98a49.942 49.942 0 0 0-1.383 28.743c1.182 5.164 3.493 10.59 8.275 12.86 3.321 1.574 7.278 1.32 10.897.4 13.396-3.413 10.542-9.289 23.511-14.153" data-name="Path 422"/><path stroke-linecap="round" stroke-linejoin="round" stroke-width="3.0018" d="M103.106 121.704c.18 8.505-8.007 17.953-18.765 21.668a22.76 22.76 0 0 1-7.807 1.405c-4.76-.112-13.97-4.27-17.303-6.51" data-name="Path 423"/><path stroke-linecap="round" stroke-linejoin="round" stroke-width="3" d="M75.178 55.252a20.57 20.57 0 0 0 7.538-2.777" data-name="Path 612"/><path stroke-linecap="round" stroke-linejoin="round" stroke-width="3" d="M75.687 57.92a17.468 17.468 0 0 0 5.511.234" data-name="Path 613"/><g stroke-linecap="round" stroke-linejoin="round" stroke-width="3" data-name="Group 325"><path d="M59.754 55.252a20.554 20.554 0 0 1-7.536-2.777" data-name="Path 614"/><path d="M59.245 57.92a17.466 17.466 0 0 1-5.511.234" data-name="Path 615"/></g><path stroke-linecap="round" stroke-linejoin="round" stroke-width="2.99937" d="M57.43 74.74a6.223 6.223 0 0 1 4.625-2.723 13.158 13.158 0 0 1 5.687.652 14.27 14.27 0 0 0 3.478.87 7.808 7.808 0 0 0 2.524-.32 10.376 10.376 0 0 0 4.038-2.17" data-name="Path 551"/></g></svg>