<svg width="143.593" height="275.372" xmlns="http://www.w3.org/2000/svg"><g fill="none" stroke="#353f4f" data-name="Group 1191" transform="translate(-216.204 9353.521)"><path stroke-linecap="round" stroke-linejoin="round" stroke-width="3" d="M247.866-9239.258c-13.439-5.547-15.586-17.386-22.79-27.006-3.687-4.925-6.354-10.85-3.153-16 2.223-3.574 6.942-6.142 11.929-7.945 18.457-6.67 20.947-.007 40.338-5.226" data-name="Path 1606"/><path stroke-width="4.499055" d="M240.962-9201.392c.117 3.633.681 7.383 2.646 10.442 2.712 4.22 7.597 6.438 12.274 8.253 11.842 4.594 24.61 8.074 37.16 6.12s24.768-10.516 27.657-22.883c1.266-5.417.702-11.07.13-16.603l-4.822-46.757c-2.052-19.88-4.63-44.79-23.06-56.784-12.742-8.294-23.032-5.29-29.18 8.069-6.615 14.374-6.552 32.185-9.314 47.535-3.698 20.555-14.162 41.555-13.49 62.608Z" data-name="Path 1607"/><g stroke-linecap="round" stroke-linejoin="round" stroke-width="3" data-name="Group 1066"><path stroke-width="2.99937" d="M278.976-9280.333a15.068 15.068 0 0 0-8.416 6.13" data-name="Path 547"/><path stroke-width="2.99937" d="M270.079-9281.146a19.696 19.696 0 0 1 8.805 8.207" data-name="Path 548"/></g><g stroke-linecap="round" stroke-linejoin="round" stroke-width="3" data-name="Group 1067"><path stroke-width="2.99937" d="M301.468-9279.358a15.068 15.068 0 0 0-8.416 6.13" data-name="Path 549"/><path stroke-width="2.99937" d="M292.57-9280.17a19.696 19.696 0 0 1 8.806 8.204" data-name="Path 550"/></g><ellipse cx="17.334" cy="68.502" stroke-miterlimit="10" stroke-width="2" data-name="Ellipse 131" rx="17.334" ry="68.502" transform="rotate(-77.98 -5647.008 -4793.49)"/><ellipse cx="68.502" cy="17.334" stroke-miterlimit="10" stroke-width="2" data-name="Ellipse 132" rx="68.502" ry="17.334" transform="rotate(-5.13 -101141.558 -6769.176)"/><path stroke-linecap="round" stroke-linejoin="round" stroke-width="2.99937" d="M268.428-9250.471a8.482 8.482 0 0 1 6.593-4.634 16.097 16.097 0 0 1 8.215 1.29 18.215 18.215 0 0 0 5.036 1.617 9.28 9.28 0 0 0 3.63-.496 13.725 13.725 0 0 0 5.765-3.681" data-name="Path 1610"/><path stroke-linecap="round" stroke-linejoin="round" stroke-width="3" d="M298.342-9177.961c.834 35.769.004 61.878-1.117 97.925 8.983-1.556 11.618-2.968 20.244-7.208" data-name="Path 1611"/><path stroke-linecap="round" stroke-linejoin="round" stroke-width="3" d="M264.597-9179.876c-5.403 36.525-7.46 60.697-5.828 96.692a43.651 43.651 0 0 0-17.034-2.976" data-name="Path 1608"/><path stroke-linecap="round" stroke-linejoin="round" stroke-width="2.99937" d="M318.312-9241.57c7.832 3.08 13.368 5.903 19.748 11.483 7.998 6.997 12.809 17.193 15.243 27.652s2.686 21.294 2.928 32.034" data-name="Path 1612"/></g></svg>