<svg width="176.675" height="225.376" xmlns="http://www.w3.org/2000/svg"><g data-name="Group 1070"><g fill="none" stroke="#323f51" data-name="Group 836"><path stroke-linecap="round" stroke-linejoin="round" stroke-width="3" d="M69.207 174.216c-.227 18.221-.453 30.488-.681 48.71a96.064 96.064 0 0 1-18.711.35" data-name="Path 1167"/><path stroke-linecap="round" stroke-linejoin="round" stroke-width="3" d="M107.642 176.612a439.985 439.985 0 0 0-.074 46.7 44.64 44.64 0 0 1 18.811.267" data-name="Path 1168"/><path stroke-miterlimit="10" stroke-width="4.5" d="M69.349 3.367c-14.495 8.036-23.281 23.438-29.508 38.8a212.186 212.186 0 0 0-15.1 92.064c.363 6.029 1.031 12.209 3.8 17.575 3.519 6.811 10.068 11.573 16.932 14.989 13.028 6.482 27.717 8.935 42.248 9.716 12.353.664 25.041.124 36.568-4.366s21.815-13.458 25.413-25.293c2.13-7.005 1.833-14.486 1.517-21.8l-.935-21.6c-.834-19.28-1.731-38.9-8.209-57.08s-19.5-35.035-37.75-41.312C98.55 3.073 72.892.922 69.48 3.324c-.025.009-2.846 1.716-2.9 1.736" data-name="Path 1163"/><path stroke-linecap="round" stroke-linejoin="round" stroke-width="3.0000599999999995" d="M23.773 95.048c-10.096 8.24-14.62 24.908-8.922 36.63a19.762 19.762 0 0 0 5.64 7.24c4.576 3.456 10.658 3.97 16.384 4.267 20.388 1.054 23.66-2.768 45.744-9.644" data-name="Path 1165"/><path stroke-linecap="round" stroke-linejoin="round" stroke-width="2.99961" d="M148.892 87.427c13.066 5.761 22.672 20.797 20.036 33.258a17.486 17.486 0 0 1-3.878 8.142c-3.838 4.295-10.127 6.076-16.099 7.579-21.263 5.346-25.83 2.376-51.184.47" data-name="Path 1605"/></g><path fill="#323f51" d="M73.42 60.11a9.3 9.3 0 0 1-2.91-.542c-.459-.158-.72-.418-.465-.87.244-.434.647-.4 1.056-.263 3.174 1.072 6.022.252 8.635-1.901.13-.108.266-.21.393-.32.32-.277.672-.403.995-.142s.303.608-.063.926a11.174 11.174 0 0 1-7.64 3.111Z" data-name="Path 574"/><path fill="#323f51" d="M100.487 59.266a9.305 9.305 0 0 1-2.438-1.68c-.356-.331-.488-.675-.071-.985.4-.297.754-.101 1.072.19 2.464 2.272 5.4 2.683 8.666 1.78.163-.045.329-.083.49-.133.404-.122.777-.094.967.277s.029.679-.435.82a11.18 11.18 0 0 1-8.25-.27Z" data-name="Path 573"/><path fill="#323f51" d="M78.416 58.438c3.253-.037 5.4 2.038 5.342 5.165-.058 3.15-1.982 5.22-4.95 5.33a5.485 5.485 0 0 1-5.844-5.308c.033-3.099 2.189-5.149 5.452-5.187Z" data-name="Path 570"/><path fill="#e4e4e4" d="M79.945 60.537a1.857 1.857 0 0 1 2.033 1.965 1.9 1.9 0 0 1-1.883 2.027 2.084 2.084 0 0 1-2.223-2.019 1.931 1.931 0 0 1 2.073-1.973Z" data-name="Path 569" opacity=".9"/><path fill="#323f51" d="M100.056 58.282a5.238 5.238 0 0 1 5.157 5.452 4.918 4.918 0 0 1-5.245 5.2c-3.252-.019-5.077-1.926-5.055-5.281a5.1 5.1 0 0 1 5.143-5.371Z" data-name="Path 571"/><path fill="#e4e4e4" d="M101.517 60.537a1.857 1.857 0 0 1 2.033 1.965 1.9 1.9 0 0 1-1.883 2.027 2.084 2.084 0 0 1-2.223-2.019 1.931 1.931 0 0 1 2.073-1.973Z" data-name="Path 1262" opacity=".9"/><path fill="#323f51" d="M100.084 76.057a12.85 12.85 0 0 1 4.107.513c.651.186 1.048.528.742 1.193-.29.635-.856.621-1.432.46-4.532-1.24-8.41.162-11.812 3.45-.17.164-.348.321-.513.488-.414.42-.89.628-1.37.288-.498-.353-.482-.837-.012-1.317 2.803-2.868 6.079-4.857 10.29-5.075Z" data-name="Path 1411"/></g></svg>