<svg xmlns="http://www.w3.org/2000/svg" xmlns:xlink="http://www.w3.org/1999/xlink" width="160.237" height="253.005" viewBox="0 0 160.237 253.005">
  <defs>
    <clipPath id="clip-path">
      <rect id="Rectangle_374" data-name="Rectangle 374" width="35.569" height="27.465" fill="#323f51"/>
    </clipPath>
  </defs>
  <g id="Group_1189" data-name="Group 1189" transform="translate(376.668 8914.758)">
    <path id="Path_1614" data-name="Path 1614" d="M0,0A43.819,43.819,0,0,1,7.409,13.161c2.919,7.668,4.469,18.246,5.069,28.879s.327,21.452.052,32.174" transform="matrix(0.999, 0.052, -0.052, 0.999, -233.528, -8790.556)" fill="none" stroke="#353f4f" stroke-linecap="round" stroke-linejoin="round" stroke-width="3"/>
    <path id="Path_1615" data-name="Path 1615" d="M17.427,0A42.827,42.827,0,0,0,7.369,13.161C3.406,20.829,1.3,31.407.487,42.04S.044,63.492.417,74.214" transform="matrix(0.996, -0.087, 0.087, 0.996, -375.049, -8793.052)" fill="none" stroke="#353f4f" stroke-linecap="round" stroke-linejoin="round" stroke-width="3"/>
    <g id="Group_1072" data-name="Group 1072" transform="translate(-252 -8914.758)">
      <g id="Group_900" data-name="Group 900" transform="translate(0 0)" clip-path="url(#clip-path)">
        <path id="Path_1341" data-name="Path 1341" d="M9.415,18.347c1.779-.832,7.024-3.289,6.673-5.909a3.463,3.463,0,0,1,.376-.319c-.741-.076-.292-.636.094-.085a7.859,7.859,0,0,1-.392-1.658C13.535,10.529.979,8,1.828,10.444c-.62-1.016-.89-.153-1-.056a5.085,5.085,0,0,0,.573.624c-1.477.822-2.258,1.866.117,2.18,2.654.351,5.444.631,8.205.819A14.6,14.6,0,0,1,6.5,16.2c-.132.062-.258.123-.389.185.476-.471.865-.962.132-.7a4.181,4.181,0,0,0-.649.954C3.11,17.9,1.335,19.4,1.909,20.56c.063.874.91,1.106,1.753,1.208l-.068.032c-.019.01.046-.022.068-.032.022.016-.013.019-.068.032-.1.048.16.156.229.17.081-.09.1-.142.087-.175l.194.019a14.83,14.83,0,0,0,1.869.351c.617.078,2.271.346,4.134.5.059.219.129.377.214.276-.028.034-.01-.09.021-.255.556.041,1.126.069,1.693.082-.206.122-.587.216-.451.3a1.213,1.213,0,0,0,.589-.3c.062,0,.125.006.188.006.112.141.417.147.959-.015,2.248-.091,4.117-.609,4.117-2.114,0-1.938-4.192-2.279-8.02-2.3M7.326,9.839a1.032,1.032,0,0,1-.123.17H6.99c-.016-.244.156-.7.336-.169m-.862.084c.044-.122.1-.166.157-.132-.01.091-.019.15-.028.213H6.463c0-.037,0-.079,0-.079M6.1,10l-.12,0c-.025-.056-.059-.147-.09-.236,0,0-.016-.034-.044-.113.117-.072.214.166.254.352m-3.872.537s.1-.013.189-.016a.207.207,0,0,1-.189.016" transform="translate(0 4.389)" fill="#323f51"/>
        <path id="Path_1342" data-name="Path 1342" d="M30.09,13.773c-.007-1.594-5.945-1.86-10.132-1.9.189-.189.379-.389.568-.609a2.2,2.2,0,0,0,.386-.169,1.675,1.675,0,0,1-.094-.182c.028-.034.054-.063.081-.1a1.9,1.9,0,0,1,.048.242A10.871,10.871,0,0,1,22.018,9.8a.227.227,0,0,0,.087.088c.056.025.076-.107.054-.235,2.048-2.121,5.5-5.265,4.556-6.341.053-.022.1-.037.153-.06.3.057.323-.079.28-.236.135-.025.21-.047.2-.072a3.838,3.838,0,0,0-.429-.581c.053-.455-.68-.691-.871-1.009a.99.99,0,0,1,.142.351,4.939,4.939,0,0,0-.515-.31c.308-.2-.1-.258-.344-.156A6.768,6.768,0,0,0,24.278.9c.129-.825-.208-.269-.172-.041A25.462,25.462,0,0,0,18.574.609a1.347,1.347,0,0,0-.157.015,2.273,2.273,0,0,1-.6-.511c-.046-.079-.037-.1-.009-.113a4.642,4.642,0,0,1-.818.3.465.465,0,0,0,0-.164c-.018-.06-.078.057-.106.192-1.36.346-3.3.417-3.121.021-.363.791-.622.489-.558,1.572-.276-2.3.034.913-.247-.529.016.088.076.363.139.675-1.379.533-2.066,1.06-.465,1.286.159.021.439.038.806.05-.028.1-.037.185.018.235a2.309,2.309,0,0,0,.022-.233c1.511.047,4.5.018,7.319-.057a.306.306,0,0,0-.181.314c-.029,1.069.369-.11.429-.32l.976-.028c.069.1.144.144.22.109s.137-.084.207-.123c.282-.009.558-.019.827-.029a.488.488,0,0,0-.115.317c-.046.476.229-.185.229-.322l.5-.019c-.26.239-.323.363-.3.42A36.176,36.176,0,0,0,19.493,7.33a.146.146,0,0,0-.069-.081c-.132-.063-.214.142-.141.294a55.148,55.148,0,0,0-4.332,4.945.6.6,0,0,0-.056.694.708.708,0,0,0-.119.369,5.476,5.476,0,0,0,2.1.837c.938.4.743.232.443.029.241.068.495.131.758.189.075,1.053,1.59.712,2.42.42.4.051.807.1,1.217.134a.339.339,0,0,0-.1.279c.032.4.313-.025.382-.254.73.062,1.465.1,2.182.113-.106.07-.2.138-.253.117.092.038.257-.04.4-.116.681.01,1.342,0,1.957-.041,2.188-.138,3.811-.6,3.807-1.486m-5.4-8.9-.075.106a.289.289,0,0,1,.075-.106m1.288-1.7a.233.233,0,0,1-.019.144ZM24.085,5.9c.028-.05.057-.1.085-.148.2.151.053.2-.085.148m.5.669c-.561-1.135.806.417,0,0m.332-.37c-.711-.721-.07-.226-.032-.173.073.1.085.161.032.173m.433-.348c.05.37-1.509-.753,0,0M15.009,1a2.812,2.812,0,0,1-.079.455C14.849,1.3,14.892.374,15.009,1m-.238.041c.006.254.006.393,0,.46a1.281,1.281,0,0,1-.048-.313c.007-.125.023-.175.046-.147M13.761.831l-.082,0c.019-.084.138-.637.082,0m.746.153c.113-.248.2.21.22.533-.037.01-.072.022-.109.031-.031-.126-.068-.31-.112-.564m9.379,2.259.333-.015c-.06.04-.123.085-.186.128a.288.288,0,0,0-.147-.113m-4.905,11.55.336.057c-.277.032-.374-.015-.336-.057" transform="translate(5.479 0)" fill="#323f51"/>
        <path id="Path_1343" data-name="Path 1343" d="M13.674,9.882a1.646,1.646,0,0,0,1.477.169s-1.875-.78-1.477-.169" transform="translate(6.375 4.517)" fill="#323f51"/>
      </g>
    </g>
    <g id="Group_836" data-name="Group 836" transform="translate(-382.413 -8884.871)">
      <path id="Path_1164" data-name="Path 1164" d="M-976.144,187.328" transform="translate(1032.805 -119.701)" fill="none" stroke="#323f51" stroke-width="4.5"/>
      <path id="Path_1167" data-name="Path 1167" d="M-963.192,262.108c-.227,18.221-.453,30.488-.681,48.71a96.064,96.064,0,0,1-18.711.35" transform="translate(1030.26 -90.149)" fill="none" stroke="#323f51" stroke-linecap="round" stroke-linejoin="round" stroke-width="3"/>
      <path id="Path_1168" data-name="Path 1168" d="M-941.539,262.451a439.985,439.985,0,0,0-.074,46.7,44.64,44.64,0,0,1,18.811.267" transform="translate(1047.042 -88.096)" fill="none" stroke="#323f51" stroke-linecap="round" stroke-linejoin="round" stroke-width="3"/>
      <path id="Path_1163" data-name="Path 1163" d="M-955.841,155.773c-14.495,8.036-23.281,23.438-29.508,38.8a212.186,212.186,0,0,0-15.1,92.064c.363,6.029,1.031,12.209,3.8,17.575,3.519,6.811,10.068,11.573,16.932,14.989,13.028,6.482,27.717,8.935,42.248,9.716,12.353.664,25.041.124,36.568-4.366s21.815-13.458,25.413-25.293c2.13-7.005,1.833-14.486,1.517-21.8q-.467-10.8-.935-21.6c-.834-19.28-1.731-38.9-8.209-57.08s-19.5-35.035-37.75-41.312c-5.775-1.987-31.433-4.138-34.845-1.736-.025.009-2.846,1.716-2.9,1.736" transform="translate(1023.051 -154.663)" fill="none" stroke="#323f51" stroke-miterlimit="10" stroke-width="4.5"/>
    </g>
    <path id="Path_574" data-name="Path 574" d="M4.1,3.539A12.772,12.772,0,0,1,.534,1.6C.007,1.2-.23.747.294.264.8-.2,1.309.018,1.781.37,5.47,3.113,9.535,3.256,13.864,1.55c.216-.085.437-.161.649-.251.534-.225,1.047-.24,1.36.237.324.5.132.922-.475,1.182A15.34,15.34,0,0,1,4.1,3.539Z" transform="matrix(0.951, -0.309, 0.309, 0.951, -319.128, -8820.65)" fill="#323f51"/>
    <path id="Path_573" data-name="Path 573" d="M4.812,4.151A14.982,14.982,0,0,1,.626,1.874C.008,1.4-.27.877.345.31.934-.233,1.535.022,2.089.434c4.327,3.218,9.1,3.386,14.174,1.385.253-.1.512-.189.761-.294.627-.264,1.228-.281,1.595.278.38.581.154,1.082-.557,1.386C13.805,5.008,9.426,5.7,4.812,4.151Z" transform="matrix(0.995, 0.105, -0.105, 0.995, -289.568, -8824.629)" fill="#323f51"/>
    <path id="Path_1613" data-name="Path 1613" d="M1015.287,500.6c3.253-.037,5.4,2.038,5.342,5.165-.058,3.15-1.982,5.22-4.95,5.33a5.485,5.485,0,0,1-5.844-5.308C1009.868,502.688,1012.024,500.638,1015.287,500.6Z" transform="translate(-1310.423 -9310.291)" fill="#323f51"/>
  </g>
</svg>
