<svg xmlns="http://www.w3.org/2000/svg" width="153.355" height="258.252" viewBox="0 0 153.355 258.252">
  <g id="Group_1190" data-name="Group 1190" transform="translate(-785.122 8903.516)">
    <path id="Path_1734" data-name="Path 1734" d="M33.45,0c-7.79,3.751-13.236,7.045-19.305,13.161C6.538,20.829,2.5,31.407.936,42.04S11.926,60.791,12.643,71.514" transform="matrix(0.996, -0.087, 0.087, 0.996, 785.989, -8802.655)" fill="none" stroke="#353f4f" stroke-linecap="round" stroke-linejoin="round" stroke-width="3"/>
    <g id="Group_1074" data-name="Group 1074" transform="translate(-1162 430)">
      <path id="Path_418" data-name="Path 418" d="M91.914,333.355c2.283,32.3,1.7,55.9.926,88.486,14.022-1.548,18.107-2.865,31.5-6.832" transform="translate(1945.644 -9498.604)" fill="none" stroke="#353f4f" stroke-linecap="round" stroke-linejoin="round" stroke-width="3"/>
      <path id="Path_419" data-name="Path 419" d="M81.508,332.149c-34.085,29.6-12.061,40.307-8.516,72.517-8.478-1.808-15.514,11.544-24.713,11.763" transform="translate(1914.151 -9499.475)" fill="none" stroke="#353f4f" stroke-linecap="round" stroke-linejoin="round" stroke-width="3"/>
      <path id="Path_421" data-name="Path 421" d="M53.611,371.919c-.227,4.115.04,8.407,1.958,12.056,2.646,5.036,7.947,8.025,13.052,10.535,12.925,6.358,27,11.549,41.373,10.582s29.016-9.435,33.5-23.123c1.964-5.993,1.885-12.436,1.785-18.743l-.835-53.294c-.356-22.655-.811-51.053-20.445-66.421-13.576-10.626-25.5-8.249-33.76,6.236-8.891,15.583-10.578,35.709-15.211,52.778C68.822,325.381,54.931,348.071,53.611,371.919Z" transform="translate(1917.95 -9568.192)" fill="none" stroke="#353f4f" stroke-miterlimit="10" stroke-width="4.503"/>
      <path id="Path_423" data-name="Path 423" d="M19.2,0c8.094,2.6,14.356,13.412,14.363,24.786a37.822,37.822,0,0,1-6.175,20.732C21.511,54.126,2.481,60.236-.719,62.657" transform="translate(2045.382 -9222.396) rotate(-20)" fill="none" stroke="#353f4f" stroke-linecap="round" stroke-linejoin="round" stroke-width="3"/>
      <path id="Path_612" data-name="Path 612" d="M56.569,54.627a20.57,20.57,0,0,0,7.538-2.777" transform="translate(1979.504 -9332.891)" fill="none" stroke="#353f4f" stroke-linecap="round" stroke-linejoin="round" stroke-width="3"/>
      <path id="Path_613" data-name="Path 613" d="M56.932,55.73a17.468,17.468,0,0,0,5.511.234" transform="translate(1979.65 -9331.326)" fill="none" stroke="#353f4f" stroke-linecap="round" stroke-linejoin="round" stroke-width="3"/>
      <g id="Group_325" data-name="Group 325" transform="translate(2013.113 -9281.041)">
        <path id="Path_614" data-name="Path 614" d="M47.745,54.627a20.554,20.554,0,0,1-7.536-2.777" transform="translate(-40.209 -51.85)" fill="none" stroke="#353f4f" stroke-linecap="round" stroke-linejoin="round" stroke-width="3"/>
        <path id="Path_615" data-name="Path 615" d="M46.8,55.73a17.466,17.466,0,0,1-5.511.234" transform="translate(-39.773 -50.285)" fill="none" stroke="#353f4f" stroke-linecap="round" stroke-linejoin="round" stroke-width="3"/>
      </g>
      <path id="Path_551" data-name="Path 551" d="M0,2.321A6.224,6.224,0,0,1,4.845.011a13.161,13.161,0,0,1,5.61,1.144,14.273,14.273,0,0,0,3.39,1.17,7.81,7.81,0,0,0,2.543-.1A10.378,10.378,0,0,0,20.6.414" transform="matrix(0.996, -0.087, 0.087, 0.996, 2018.123, -9261.088)" fill="none" stroke="#353f4f" stroke-linecap="round" stroke-linejoin="round" stroke-width="3"/>
    </g>
    <path id="Path_1616" data-name="Path 1616" d="M68.54,13.2l-2.11,5.932h3.53l-2.02,5.8" transform="matrix(0.643, 0.766, -0.766, 0.643, 901.539, -8858.898)" fill="none" stroke="#353f4f" stroke-linecap="round" stroke-width="2.149"/>
    <path id="Path_1619" data-name="Path 1619" d="M68.54,13.2l-2.11,5.932h3.53l-2.02,5.8" transform="translate(767.449 -8655.41) rotate(-75)" fill="none" stroke="#353f4f" stroke-linecap="round" stroke-width="2.149"/>
    <path id="Path_1617" data-name="Path 1617" d="M68.54,13.2l-2.11,5.932h3.53l-2.02,5.8" transform="translate(876.133 -8853.869) rotate(31)" fill="none" stroke="#353f4f" stroke-linecap="round" stroke-width="2.149"/>
    <path id="Path_1618" data-name="Path 1618" d="M68.54,13.2l-2.11,5.932h3.53l-2.02,5.8" transform="translate(786.141 -8637.483) rotate(-94)" fill="none" stroke="#353f4f" stroke-linecap="round" stroke-width="2.149"/>
  </g>
</svg>
