<svg width="138.042" height="265.417" xmlns="http://www.w3.org/2000/svg"><g data-name="Group 891"><g data-name="Group 316"><g data-name="Group 895"><g fill="none" data-name="Group 894"><path stroke="#141928" stroke-linecap="round" stroke-linejoin="round" stroke-width="3.00141" d="M85.316 186.445c2.567 23.174 2.82 38.432-1.291 60.897a62.48 62.48 0 0 1 16.461-.951" data-name="Path 578"/><path stroke="#141928" stroke-linecap="round" stroke-linejoin="round" stroke-width="3" d="M54.66 182.903c2.591 26.575 2.36 43.648-4.021 67.47a105.386 105.386 0 0 1 22.22 3.781" data-name="Path 579"/><path stroke="#243040" stroke-miterlimit="10" stroke-width="4" d="M69.897 3.086C54.663 8.27 43.416 22.11 34.597 36.433a230.208 230.208 0 0 0-31.874 90.422c-.809 6.2-1.362 12.617.233 18.639 2.021 7.641 7.3 13.828 13.133 18.707 11.07 9.264 24.478 14.776 38.058 18.559a77.71 77.71 0 0 0 35.251 1.521c11.75-2.191 21.326-6.594 26.991-17.878 3.353-6.678-9.849-35.556-5.045-46.17 11.1-24.81 21.695-38.705 19.052-58.508s-11.726-39.6-27.769-49.728C97.52 8.77 91.734 2.522 85.814 2.289c-12.854-.507-6.681-.628-15.914.8" data-name="Path 580"/><path stroke="#141928" stroke-linecap="round" stroke-linejoin="round" stroke-width="3" d="M90.188 126.04c-18.491 7.336-26.052 16.372-42.206 16.866-5.45.169-18.311-4.898-21.614-8.23-2.099-2.114-5.697-10.305-5.662-12.981.156-11.779-1.277-15.926 5.661-26.579" data-name="Path 584"/><path stroke="#243040" stroke-linecap="round" stroke-linejoin="round" stroke-width="2.99958" d="M121.435 101.425c-.942 10.355 1.208 15.706-2.099 23.657-1.115 2.681-12.919 17.12-15.035 18.11-1.344.63-5.57.861-6.681.352-.105-.05-.205-.093-.574-.26-4.424-2.003-6.453-2.181-9.354-7.416" data-name="Path 1339"/></g></g></g><g fill="none" stroke="#243040" stroke-linecap="round" stroke-linejoin="round" stroke-width="3" data-name="Group 319"><g data-name="Group 317"><path d="M107.178 52.357a23.053 23.053 0 0 0 8.825-3.5" data-name="Path 585"/><path d="M107.774 55.715a19.048 19.048 0 0 0 6.452.3" data-name="Path 586"/></g><g data-name="Group 318"><path d="M89.121 52.357a23.035 23.035 0 0 1-8.823-3.5" data-name="Path 587"/><path d="M88.525 55.715a19.046 19.046 0 0 1-6.452.3" data-name="Path 588"/></g><path d="M107.115 77.158s-12.666-4.5-23.248 0" data-name="Path 589"/></g></g></svg>