<svg width="137.924" height="132.828" xmlns="http://www.w3.org/2000/svg"><g data-name="Group 1374"><g data-name="Group 1365"><path fill="none" stroke="#323f51" stroke-linecap="round" stroke-linejoin="round" stroke-width="2" d="M67.589 70.628c2.966 2.338 6.261 1.8 8.959-.086" data-name="Path 417"/><path fill="#323f51" d="M68.373 58.164A2.216 2.216 0 0 1 70.8 60.51a2.264 2.264 0 0 1-2.249 2.421 2.492 2.492 0 0 1-2.655-2.411 2.308 2.308 0 0 1 2.477-2.356Z" data-name="Path 436"/><path fill="#fff" d="M69.408 60.548a.95.95 0 0 1 1.039 1 .969.969 0 0 1-.963 1.036 1.065 1.065 0 0 1-1.137-1.032.987.987 0 0 1 1.061-1.004Z" data-name="Path 437"/><path fill="#323f51" d="M80.486 58.066a2.394 2.394 0 0 1 2.357 2.492 2.247 2.247 0 0 1-2.4 2.378 2.142 2.142 0 0 1-2.31-2.413 2.331 2.331 0 0 1 2.353-2.457Z" data-name="Path 435"/><path fill="#fff" d="M81.282 60.562a.94.94 0 0 1 1.03 1 .96.96 0 0 1-.954 1.027 1.057 1.057 0 0 1-1.126-1.023.978.978 0 0 1 1.05-1.004Z" data-name="Path 434"/><g data-name="Group 362"><path fill="none" stroke="#323f51" stroke-miterlimit="10" stroke-width="4.503" d="M40.046 107.829a13.574 13.574 0 0 0 1.151 7.087c1.556 2.961 4.672 4.718 7.673 6.193 7.6 3.738 15.873 6.789 24.322 6.221s17.057-5.547 19.694-13.593c1.155-3.523 1.108-7.311 1.05-11.018l-.491-31.33c-.21-13.318-.477-30.012-12.019-39.046-7.981-6.247-14.989-4.849-19.846 3.666-5.227 9.161-6.219 20.992-8.942 31.026-3.649 13.436-11.815 26.775-12.592 40.794Z" data-name="Path 421"/><path fill="none" stroke="#323f51" stroke-linecap="round" stroke-linejoin="round" stroke-width="3" d="M94.296 72.755a29.823 29.823 0 0 1 11.484 12.733c1.419 2.841 2.429 6.242 1.133 9.142a9.668 9.668 0 0 1-4.756 4.406c-7.322 3.614-16.2 2.179-23.877 4.957" data-name="Path 422"/><path fill="none" stroke="#323f51" stroke-linecap="round" stroke-linejoin="round" stroke-width="3.0003599999999997" d="M50.053 73.072c-4.427 2.222-7.775 5.353-11.095 10.21-1.702 2.484-3.266 5.587-3.14 8.623a8.501 8.501 0 0 0 2.087 5.122c4.036 4.824 10.436 5.054 14.93 9.136" data-name="Path 1827"/><g data-name="Group 335"><path fill="none" stroke="#323f51" stroke-width="5" d="M52.357 3.367c12.538-1.642 24.728-2.04 37.064 4.349 12.427 6.434 24.406 17.744 35.654 32.354a46.846 46.846 0 0 1 10.317 28.172c.307 8.366-1.333 16.4-3.072 23.624-2.524 10.47-5.458 20.684-9.478 27.509-7.132 12.1-16.315 11.563-24.827 10.508-21.394-2.65-42.823-5.732-63.941-14.361-7.631-3.12-15.272-7-22.4-14.481-3.873-4.065-7.955-10.385-8.86-20.794-1.3-14.939 1.682-28.716 6.24-35.857 9.121-14.285 9.934-19.847 20.143-26.751 4.338-2.934 15.9-11.3 27.169-14.787" data-name="Path 443"/></g></g></g></g></svg>