<svg xmlns="http://www.w3.org/2000/svg" width="137.924" height="132.828" viewBox="0 0 137.924 132.828">
  <g id="Group_1384" data-name="Group 1384" transform="translate(4013.51 -8019.579)">
    <g id="Group_335" data-name="Group 335" transform="translate(-4703.995 6911.447)">
      <path id="Path_443" data-name="Path 443" d="M768.958,532.716c12.538-1.642,24.728-2.04,37.064,4.349,12.427,6.434,24.406,17.744,35.654,32.354a46.846,46.846,0,0,1,10.317,28.172c.307,8.366-1.333,16.4-3.072,23.624-2.524,10.47-5.458,20.684-9.478,27.509-7.132,12.1-16.315,11.563-24.827,10.508-21.394-2.65-42.823-5.732-63.941-14.361-7.631-3.12-15.272-7-22.4-14.481-3.873-4.065-7.955-10.385-8.86-20.794-1.3-14.939,1.682-28.716,6.24-35.857,9.121-14.285,9.934-19.847,20.143-26.751,4.338-2.934,15.9-11.3,27.169-14.787" transform="translate(-26.116 578.783)" fill="none" stroke="#fff" stroke-width="5"/>
    </g>
    <g id="Texte" transform="translate(-3945.921 8090.121)">
      <path id="Path_417" data-name="Path 417" d="M80.795,278.582c2.966,2.338,6.261,1.8,8.959-.086" transform="translate(-80.795 -278.496)" fill="none" stroke="#fff" stroke-linecap="round" stroke-linejoin="round" stroke-width="2"/>
    </g>
    <path id="Path_436" data-name="Path 436" d="M1012.312,500.6a2.216,2.216,0,0,1,2.427,2.346,2.264,2.264,0,0,1-2.249,2.421,2.492,2.492,0,0,1-2.655-2.411A2.308,2.308,0,0,1,1012.312,500.6Z" transform="translate(-4957.449 7577.144)" fill="none" stroke="#fff" stroke-width="1"/>
    <path id="Path_437" data-name="Path 437" d="M1014.518,504.122a.95.95,0,0,1,1.039,1,.969.969,0,0,1-.963,1.036,1.065,1.065,0,0,1-1.137-1.032A.987.987,0,0,1,1014.518,504.122Z" transform="translate(-4958.62 7576.005)" fill="#fff" stroke="#fff" stroke-width="0.5"/>
    <path id="Path_435" data-name="Path 435" d="M1039.453,500.4a2.394,2.394,0,0,1,2.357,2.492,2.247,2.247,0,0,1-2.4,2.378,2.142,2.142,0,0,1-2.31-2.413A2.331,2.331,0,0,1,1039.453,500.4Z" transform="translate(-4972.477 7577.245)" fill="none" stroke="#fff" stroke-width="1"/>
    <path id="Path_434" data-name="Path 434" d="M1041.278,504.122a.94.94,0,0,1,1.03,1,.96.96,0,0,1-.954,1.027,1.057,1.057,0,0,1-1.126-1.023A.978.978,0,0,1,1041.278,504.122Z" transform="translate(-4973.506 7576.019)" fill="#fff" stroke="#fff" stroke-width="0.5"/>
    <path id="Path_421" data-name="Path 421" d="M53.582,316.287a13.574,13.574,0,0,0,1.151,7.087c1.556,2.961,4.672,4.718,7.673,6.193,7.6,3.738,15.873,6.789,24.322,6.221s17.057-5.547,19.694-13.593c1.155-3.523,1.108-7.311,1.05-11.018l-.491-31.33c-.21-13.318-.477-30.012-12.019-39.046-7.981-6.247-14.989-4.849-19.846,3.666-5.227,9.161-6.219,20.992-8.942,31.026C62.525,288.929,54.359,302.268,53.582,316.287Z" transform="translate(-4027.046 7811.121)" fill="none" stroke="#fff" stroke-miterlimit="10" stroke-width="4.503"/>
    <path id="Path_422" data-name="Path 422" d="M109.349,280.682a29.823,29.823,0,0,1,11.484,12.733c1.419,2.841,2.429,6.242,1.133,9.142a9.668,9.668,0,0,1-4.756,4.406c-7.322,3.614-16.2,2.179-23.877,4.957" transform="translate(-4028.563 7811.652)" fill="none" stroke="#fff" stroke-linecap="round" stroke-linejoin="round" stroke-width="3"/>
    <path id="Path_1827" data-name="Path 1827" d="M102.621,280.682c-3.7,3.293-6.123,7.183-8.072,12.733-1,2.841-1.707,6.242-.8,9.142a8.5,8.5,0,0,0,3.343,4.406c5.147,3.614,11.387,2.179,16.784,4.957" transform="matrix(0.966, 0.259, -0.259, 0.966, -3989.892, 7794.933)" fill="none" stroke="#fff" stroke-linecap="round" stroke-linejoin="round" stroke-width="3"/>
  </g>
</svg>
