<svg xmlns="http://www.w3.org/2000/svg" width="44.536" height="39.991" viewBox="0 0 44.536 39.991">
  <path id="Path_681" data-name="Path 681" d="M4457.549,1119.91l-4.389-5.089a5.047,5.047,0,0,0-7.109-.524l-25.443,21.948a1.7,1.7,0,0,0-.453.625l-5.788,13.868a1.683,1.683,0,0,0,1.964,2.276l14.567-3.691a1.69,1.69,0,0,0,.685-.357l25.442-21.948A5.045,5.045,0,0,0,4457.549,1119.91Zm-32.2,16.684,17.81-15.363,6.584,7.633-17.81,15.363Zm25.268-19.578L4455,1122.1a1.681,1.681,0,0,1-.174,2.37l-2.543,2.195-6.585-7.632,2.544-2.2A1.682,1.682,0,0,1,4450.615,1117.016Zm-31.853,31.915,4.17-9.992,6.326,7.333Z" transform="translate(-4414.235 -1113.075)" fill="#323f51"/>
</svg>
