<?xml version="1.0" encoding="utf-8"?>
<svg xmlns="http://www.w3.org/2000/svg" xmlns:bx="https://boxy-svg.com" viewBox="-340.986 26.222 1304.13 498.731">
  <defs>
    
  </defs>
  <g id="Group_841" data-name="Group 841" transform="matrix(1, 0, 0, 1, -1495.200164, -2149.213131)">
    <path id="Path_1182" data-name="Path 1182" d="M 1706.084 2266.589 C 1824.008 2251.611 1937.577 2240.822 2046.335 2251.253 C 2151.706 2261.464 2253.903 2286.468 2348.084 2325.077 C 2386.21 2340.612 2425.916 2363.825 2418.329 2405.585 C 2413.586 2431.651 2391.064 2458.211 2368.36 2482.273 C 2335.423 2517.17 2298.91 2551.583 2255.385 2576.19 C 2178.169 2619.829 2093.385 2625.323 2015.3 2628.666 C 1819.028 2637.081 1622.823 2644.162 1434.534 2633.56 C 1366.493 2629.723 1299.056 2623.489 1239.663 2605.56 C 1207.382 2595.811 1175.217 2579.134 1176.251 2547.112 C 1177.742 2501.154 1217.93 2455.503 1266.733 2429.481 C 1364.397 2377.423 1376.993 2359.298 1478.07 2329.598 C 1521.012 2316.975 1636.007 2281.626 1743.798 2261.832" style="paint-order: fill; stroke-dashoffset: -1px; stroke-miterlimit: 8; stroke-width: 7px; fill: rgb(255, 255, 255); stroke-dasharray: 30px; stroke: rgb(205, 115, 101);" transform="matrix(-0.992526, -0.122032, 0.122032, -0.992526, 3283.934891, 5087.12954)"/>
    <g id="Group_1348" data-name="Group 1348" transform="matrix(0.977665, 0, 0, 1.026609, 1040.493164, -350.877899)" style="">
      <text transform="matrix(1.576168, 0, 0, 1.372974, -179.444366, -634.177307)" style="fill: rgb(51, 51, 51); font-family: &quot;Roboto Slab&quot;; font-size: 50.5px; white-space: pre;"><tspan x="343.855" y="2356.99" style="font-weight: 700;">Accept:</tspan><tspan> </tspan><tspan x="343.8550109863281" dy="1em">​</tspan><tspan>Ander kan ikke lide mig, <tspan x="343.8550109863281" dy="1em">​</tspan>hvis jeg viser mine <tspan x="343.8550109863281" dy="1em">​</tspan>svage sider </tspan></text>
      <text style="white-space: pre; fill: rgb(51, 51, 51); font-family: &quot;Roboto Slab&quot;; font-size: 28px;" transform="matrix(1.505905, 0, 0, 1.434111, 350.225769, 2810.993164)"> </text>
      <text style="white-space: pre; fill: rgb(51, 51, 51); font-family: &quot;Roboto Slab&quot;; font-size: 28px;" transform="matrix(4.510565, 0, 0, 4.295522, 1325.780518, 2880.332275)"> </text>
    </g>
  </g>
</svg>
