<?xml version="1.0" encoding="utf-8"?>
<svg viewBox="-57.068 -283.794 609.381 892.859" xmlns="http://www.w3.org/2000/svg">
  <defs>
    <clipPath id="clip-1">
      <rect width="1166" height="1094"/>
    </clipPath>
    <clipPath id="clip-Illustration_-_Min_fysiske_energi_-_Min_fysiske_aktivitet">
      <rect width="545" height="513"/>
    </clipPath>
    <clipPath id="clip-11">
      <rect id="Rectangle_482" data-name="Rectangle 482" width="229.531" height="241.419" fill="none"/>
    </clipPath>
    <clipPath id="clip-3">
      <rect id="Rectangle_448" data-name="Rectangle 448" width="233.57" height="250.237" fill="none"/>
    </clipPath>
    <clipPath id="clip-5">
      <rect id="Rectangle_450" data-name="Rectangle 450" width="217.813" height="219.517" fill="none"/>
    </clipPath>
    <clipPath id="clip-Balance">
      <rect width="1166" height="1094"/>
    </clipPath>
    <clipPath id="clip-path">
      <rect id="Rectangle_481" data-name="Rectangle 481" width="248.072" height="238.484" fill="none"/>
    </clipPath>
    <clipPath id="clip-10">
      <rect id="rect-7" data-name="Rectangle 482" width="229.531" height="241.419" fill="none"/>
    </clipPath>
  </defs>
  <g transform="matrix(1, 0, 0, 1, 2.375973, 58.141056)">
    <g id="g-1" data-name="Group 656" transform="matrix(0.734397, -0.038488, 0.039674, 0.757013, -61.480324, -41.491192)" style="">
      <g id="Group_322" data-name="Group 322" transform="translate(0 0)">
        <g id="Group_256" data-name="Group 256" transform="translate(0 0)">
          <g id="Group_658" data-name="Group 658" transform="translate(0 0)">
            <path id="Path_419" data-name="Path 419" d="M192.423,0C138.855,9.074,12.052,2.631,1.107,6.085c-21.6,38.228,279.885,10.351,292.233,102.249" transform="translate(138.534 670.229)" stroke="#323f51" stroke-linecap="round" stroke-linejoin="round" style="stroke-width: 4.01753px;" fill="none"/>
            <path id="Path_1048" data-name="Path 1048" d="M94.8,0c52.075,10.14,175.344,2.941,185.984,6.8,21,42.72-291.4,15.164-280.51,98.08" transform="translate(276.929 676.544)" stroke="#323f51" stroke-linecap="round" stroke-linejoin="round" style="stroke-width: 4.01753px;" fill="none"/>
            <path id="Path_421" data-name="Path 421" d="M.273,542.03c-.913,16.524.159,33.759,7.861,48.409,10.626,20.223,31.913,32.225,52.412,42.3,51.9,25.532,108.427,46.377,166.135,42.492S343.2,637.349,361.207,582.385c7.889-24.066,7.571-49.937,7.169-75.262l-3.353-214.005c-1.431-90.97-3.256-205-82.1-266.715C228.41-16.268,180.54-6.721,147.361,51.444c-35.7,62.575-42.477,143.389-61.082,211.931C61.356,355.154,5.576,446.269.273,542.03Z" transform="translate(168.274 0)" stroke="#323f51" stroke-miterlimit="10" style="fill: rgb(126, 200, 214); stroke-width: 4.01753px;"/>
            <path id="Path_422" data-name="Path 422" d="M64.162,192.269C38.632,170.33,21.87,144.4,8.4,107.425,1.515,88.494-3.39,65.833,2.905,46.51,7.279,33.1,16.4,23.661,26,17.152,61.548-6.932,66.089,18.513,103.369,0" transform="matrix(0.191, -0.982, 0.982, 0.191, 0, 441.353)" stroke="#323f51" stroke-linecap="round" stroke-linejoin="round" style="stroke-width: 4.01597px;" fill="none"/>
            <path id="Path_423" data-name="Path 423" d="M51.246,0C22.37,10.46.027,53.858,0,99.529c0,10.82,1.149,21.812,4.333,31.457C10.242,148.9,22.181,159.857,33.6,169.578c40.667,34.617,43.258-20.7,86.139,6.876" transform="translate(527.237 486.271) rotate(-81)" stroke="#323f51" stroke-linecap="round" stroke-linejoin="round" style="stroke-width: 4.01757px;" fill="none"/>
            <g id="g-3" clip-path="url(#clip-1)" transform="matrix(0.998629, 0.052336, -0.052336, 0.998629, 5091.681641, 1695.382813)"/>
            <g id="Illustration_-_Min_fysiske_energi_-_Min_fysiske_aktivitet" data-name="Illustration - Min fysiske energi - Min fysiske aktivitet" clip-path="url(#clip-Illustration_-_Min_fysiske_energi_-_Min_fysiske_aktivitet)" transform="matrix(0.998629, 0.052336, -0.052336, 0.998629, 4818.533203, 1278.323242)"/>
          </g>
        </g>
        <path id="Path_498" data-name="Path 498" d="M10.955,9.451a34.11,34.11,0,0,1-9.53-5.184C.018,3.2-.615,2,.784.7,2.125-.531,3.5.049,4.757.988,14.609,8.314,25.466,8.7,37.028,4.141c.576-.227,1.166-.43,1.733-.669,1.427-.6,2.8-.64,3.631.634.866,1.323.352,2.462-1.269,3.156C31.43,11.4,21.461,12.988,10.955,9.451Z" transform="matrix(-0.951, 0.309, -0.309, -0.951, 358.326, 154.777)" style="stroke-width: 4.01793px;" fill="#323f51"/>
        <path id="Path_499" data-name="Path 499" d="M10.955,9.451a34.11,34.11,0,0,1-9.53-5.184C.018,3.2-.615,2,.784.7,2.125-.531,3.5.049,4.757.988,14.609,8.314,25.466,8.7,37.028,4.141c.576-.227,1.166-.43,1.733-.669,1.427-.6,2.8-.64,3.631.634.866,1.323.352,2.462-1.269,3.156C31.43,11.4,21.461,12.988,10.955,9.451Z" transform="matrix(-0.966, -0.259, 0.259, -0.966, 474.307, 167.015)" style="stroke-width: 4.01717px;" fill="#323f51"/>
        <path id="path-2" data-name="Path 498" d="M 379.313 312.998 C 375.892 311.794 372.697 310.049 369.85 307.83 C 368.458 306.766 367.845 305.57 369.272 304.274 C 370.64 303.047 372.008 303.625 373.252 304.561 C 382.998 311.865 393.88 312.25 405.559 307.705 C 406.141 307.478 406.736 307.276 407.309 307.038 C 408.752 306.439 410.129 306.4 410.939 307.67 C 411.784 308.989 411.247 310.124 409.609 310.816 C 399.812 314.942 389.785 316.525 379.313 312.998 Z" style="stroke-width: 0px;" fill="#323f51" transform="matrix(-0.999998, 0.00189, -0.002008, -0.999998, 780.413348, 617.783779)"/>
      </g>
      <path id="Path_605" data-name="Path 605" d="M6.729,0C5.021,2.986,3.241,5.938,1.491,8.894a10.005,10.005,0,0,0,.343,11.038c3.618,5,15.234,8.911,19.02,9.966,11.323,3.166,11.666-8.115,14.694-13.4" transform="matrix(0.891, -0.454, 0.454, 0.891, 411.078, 221.09)" stroke="#323f51" stroke-linecap="round" stroke-miterlimit="10" style="stroke-width: 4.01784px;" fill="none"/>
      <path id="Path_606" data-name="Path 606" d="M6.729,0C5.02,2.986,3.241,5.938,1.49,8.894a10,10,0,0,0,.348,11.038c3.618,5,15.23,8.911,19.016,9.966,11.323,3.166,11.67-8.115,14.694-13.4" transform="matrix(0.891, -0.454, 0.454, 0.891, 337.859, 217.508)" stroke="#323f51" stroke-linecap="round" stroke-miterlimit="10" style="stroke-width: 4.01784px;" fill="none"/>
    </g>
    <g id="Group_1140" data-name="Group 1140" transform="matrix(0.572443, 0, 0, 0.580269, 300.358063, -297.499054)" style="">
      <g id="Group_1139" data-name="Group 1139" transform="translate(0 0.001)" clip-path="url(#clip-11)">
        <path id="Path_1667" data-name="Path 1667" d="M24.859,199.792S9.354,227.9,11.595,231.556s31.943-9.3,31.943-9.3,30.3,27.976,87.937,16.329c77.866-15.73,125.3-97.509,81.055-179.084-41.4-76.344-130.579-72.315-178.39-26.8S-5.986,152.451,24.859,199.792" transform="translate(-0.002 -0.002)" fill="#508984"/>
        <path id="Path_1668" data-name="Path 1668" d="M16.133,29.314A37.526,37.526,0,0,1,19.846,28.3,71.159,71.159,0,0,1,28.1,26.923c3.027-.3,6.063-.52,8.362-.52,2.291-.017,3.838.116,3.838.116A5.333,5.333,0,0,1,41.5,36.9s-1.476.482-3.713.994-5.243.994-8.254,1.4a70.41,70.41,0,0,1-8.358.541,36.914,36.914,0,0,1-3.842-.137,5.353,5.353,0,0,1-1.2-10.379" transform="translate(39.599 83.379)"/>
        <path id="Path_1669" data-name="Path 1669" d="M37.472,27.05s1.493-.432,3.751-.823a71.812,71.812,0,0,1,8.321-.965c3.04-.137,6.079-.212,8.375-.1,2.291.1,3.83.308,3.83.308A5.333,5.333,0,0,1,62.421,35.9s-1.493.412-3.755.8c-2.258.412-5.285.728-8.316.985a73.236,73.236,0,0,1-8.37.121,38.313,38.313,0,0,1-3.834-.333,5.354,5.354,0,0,1-.674-10.429" transform="translate(106.173 79.297)"/>
        <path id="Path_1670" data-name="Path 1670" d="M22.845,37.461s3.651-1.148,9.41-2.512c2.865-.64,6.229-1.351,9.847-2.021,1.788-.366,3.784-.549,5.742-.794,2.071-.212,3.759-.532,6.2-.649,3.875.021,7.572-.158,11.352.033,3.734.2,7.3.416,10.188.686,5.8.57,9.68,1.185,9.68,1.185a5.236,5.236,0,0,1-.79,10.408h-.062s-3.763.021-9.443-.042c-2.853-.1-6,.029-9.443-.05-3.406-.108-7.372.162-11.161.229-1.734.183-3.468.362-5.173.541-1.784.225-3.5.279-5.252.57-3.46.557-6.728.861-9.506,1.31-5.535.823-9.373,1.314-9.373,1.314a5.244,5.244,0,0,1-2.241-10.2Z" transform="translate(60.485 99.258)"/>
      </g>
    </g>
    <g id="Group_1097" data-name="Group 1097" clip-path="url(#clip-5)" transform="matrix(-0.656296, 0.212756, 0.192367, 0.5934, 197.641769, -347.843201)" style="">
      <path id="Path_1631" data-name="Path 1631" d="M 32.721 199.054 C 66.429 221.927 109.578 222.779 138.298 215.343 C 201.474 198.98 230.306 136.963 212.739 77.674 C 200.192 35.321 134.048 -32.313 51.659 17.661 C -28.084 66.039 17.774 180.8 17.774 180.8 C 17.774 180.8 19.832 216.387 20.321 218.243 C 20.81 220.099 19.945 218.705 19.945 218.705" transform="translate(0.001 -0.002)" fill="#a17eaa"/>
      <path id="Path_1632" data-name="Path 1632" d="M25.415,65.819s-.044-.3-.13-.871c-.067-.582-.189-1.4-.226-2.449a42.154,42.154,0,0,1,.437-8.745,32.286,32.286,0,0,1,1.434-5.814,29.487,29.487,0,0,1,2.935-6.24,24.637,24.637,0,0,1,5.043-5.725A23.83,23.83,0,0,1,49.674,30.6a15.548,15.548,0,0,1,3.931.367,17.07,17.07,0,0,1,3.668.982,25.313,25.313,0,0,1,6.181,3.205,32.361,32.361,0,0,1,4.617,3.865,42.041,42.041,0,0,1,5.462,6.855c.589.871.956,1.619,1.238,2.119.274.526.422.8.422.8a1.956,1.956,0,0,1-3.22,2.175l-.115-.133s-.167-.2-.478-.56c-.341-.378-.841-.926-1.478-1.627a47.264,47.264,0,0,0-5.736-5.243A27.876,27.876,0,0,0,55.1,38.551,10.948,10.948,0,0,0,52.465,38a11.106,11.106,0,0,0-2.694-.126,11.1,11.1,0,0,0-2.516.267,12.549,12.549,0,0,0-2.961.871A17.069,17.069,0,0,0,39.5,41.656a21.579,21.579,0,0,0-3.8,3.954,31.424,31.424,0,0,0-2.653,4.7,39.907,39.907,0,0,0-1.738,4.739,51,51,0,0,0-1.645,7.611c-.119.937-.211,1.675-.274,2.175s-.07.763-.07.763l-.011.111a1.96,1.96,0,0,1-3.891.107" transform="translate(67.656 82.759)"/>
      <path id="Path_1633" data-name="Path 1633" d="M37.2,31.379c.015.037.4.337,1.186.978.763.626,1.879,1.493,3.209,2.386a18.01,18.01,0,0,0,4.528,2.227,8.267,8.267,0,0,0,2.364.374,7,7,0,0,0,2.279-.33l.145-.026.07-.015c-.119.048.285-.111-.267.107l.011-.007.026-.011.052-.022.422-.178.837-.348c.537-.245.515-.374.837-.508a8,8,0,0,0,1.675-1.582A14.661,14.661,0,0,0,56.8,30.067a39.637,39.637,0,0,0,1.267-5.288,1.953,1.953,0,1,1,3.883-.426,18.969,18.969,0,0,1,.422,1.868,19.572,19.572,0,0,1,.2,4.928,16.415,16.415,0,0,1-2.231,7.159,13.922,13.922,0,0,1-3.09,3.524,18.826,18.826,0,0,1-2.227,1.386l-.826.382-.411.193-.385.156-.148.041-.3.089a13.23,13.23,0,0,1-4.865.563,12.539,12.539,0,0,1-4.458-1.1,17.354,17.354,0,0,1-5.969-4.317A20.738,20.738,0,0,1,34.8,35.265a17.864,17.864,0,0,1-.826-1.686,1.955,1.955,0,0,1,3.231-2.2" transform="translate(90.986 61.17)"/>
      <path id="Path_1634" data-name="Path 1634" d="M17.366,37.853c.015.037.4.337,1.182.978.767.622,1.882,1.49,3.213,2.386a18.01,18.01,0,0,0,4.528,2.227,8.262,8.262,0,0,0,2.36.374,6.974,6.974,0,0,0,2.279-.33l.145-.026.074-.015c-.119.048.282-.111-.27.107l.015-.007.026-.011.052-.022.422-.178.834-.348c.541-.245.519-.374.841-.508A7.9,7.9,0,0,0,34.741,40.9a14.715,14.715,0,0,0,2.231-4.358,41.016,41.016,0,0,0,1.267-5.284,1.953,1.953,0,1,1,3.883-.43c0,.044.219.711.422,1.871a19.6,19.6,0,0,1,.2,4.928,16.415,16.415,0,0,1-2.231,7.159,13.922,13.922,0,0,1-3.09,3.524A18.866,18.866,0,0,1,35.2,49.691l-.826.382-.411.193-.385.156-.152.041-.293.089a13.23,13.23,0,0,1-4.865.563,12.54,12.54,0,0,1-4.458-1.1,17.354,17.354,0,0,1-5.969-4.317,20.738,20.738,0,0,1-2.875-3.954,17.863,17.863,0,0,1-.826-1.686,1.955,1.955,0,0,1,3.231-2.2" transform="translate(37.325 78.696)"/>
      <path id="Path_1635" data-name="Path 1635" d="M44.479,26c-.986.385,3.413,18.3,9.1,14.929,6.644-3.935-5.554-16.3-9.1-14.929" transform="translate(119.957 70.04)" fill="#98c5ed"/>
    </g>
    <g id="Group_1138" data-name="Group 1138" transform="matrix(0.578005, 0, 0, 0.575306, 1.237568, -116.173119)" style="">
      <g id="Group_1137" data-name="Group 1137" transform="translate(0 0)" clip-path="url(#clip-path)">
        <path id="Path_1661" data-name="Path 1661" d="M131.148.242c-96.239-5.7-147.2,90.632-126.632,153.05S140.484,282,214.889,200.942c0,0,29.511,15.231,32.875,10.362s-21.693-35.5-21.693-35.5,30.889-46.282,16.735-94.167C226.792,27.483,179.965,3.129,131.148.242" transform="translate(0.001 -0.001)" fill="#8fc0d4"/>
        <path id="Path_1662" data-name="Path 1662" d="M34.151,20.486c-.072.059-1.387,1.468-2.1,2.184a28.873,28.873,0,0,1-5.584,4.472,22.748,22.748,0,0,1-3.238,1.693c-.513.275-1.081.392-1.576.617a12.831,12.831,0,0,1-1.473.464c-1.833.608-7.953.689-7.85,5.728.1,5.332,9.984,5.8,17.753,2.126,9.336-4.431,12.191-11,12.209-14.861.023-3.652-2.531-4.7-4.774-4.539-1.36.086-3.288,2.067-3.364,2.117" transform="translate(43.182 64.298)" fill="#002640"/>
        <path id="Path_1663" data-name="Path 1663" d="M43.625,20.887c.077.05,1.482,1.365,2.252,2.031a28.617,28.617,0,0,0,5.881,4.067A23.441,23.441,0,0,0,55.1,28.453c.536.239,1.108.32,1.617.5a15.355,15.355,0,0,0,1.5.369c1.878.464,8,.126,8.246,5.152.261,5.337-9.574,6.494-17.563,3.364-9.624-3.774-12.929-10.124-13.231-13.974-.257-3.648,2.211-4.868,4.458-4.864,1.365-.009,3.423,1.837,3.5,1.882" transform="translate(124.88 66.581)" fill="#002640"/>
        <path id="Path_1664" data-name="Path 1664" d="M17.167,62.433a33.38,33.38,0,0,1,1.405-4.792,51.368,51.368,0,0,1,5.967-11.574,43.384,43.384,0,0,1,13.736-12.88,43.1,43.1,0,0,1,21.049-5.71l2.716.063c.869.036,1.95.167,2.909.252a42.575,42.575,0,0,1,5.58,1.081,37.331,37.331,0,0,1,10.025,4.409,44.907,44.907,0,0,1,13.371,13.2A56.973,56.973,0,0,1,99.8,58.024c.563,1.446.883,2.635,1.121,3.445.221.851.342,1.306.342,1.306a2.372,2.372,0,0,1-4.431,1.63l-.09-.194s-.167-.342-.477-.986c-.356-.667-.874-1.644-1.531-2.891a61.376,61.376,0,0,0-6.557-9.574A43.515,43.515,0,0,0,76.229,40.573a31.394,31.394,0,0,0-7.953-3.139,33.707,33.707,0,0,0-4.305-.77c-.721-.045-1.315-.14-2.135-.167l-2.36-.023a37.924,37.924,0,0,0-17.068,4.152,42.05,42.05,0,0,0-12.164,9.84,55.514,55.514,0,0,0-6.58,9.453c-1.351,2.477-1.95,3.882-1.95,3.882a2.39,2.39,0,0,1-4.548-1.369" transform="translate(60.009 96.262)"/>
        <path id="Path_1665" data-name="Path 1665" d="M27.693,32.267a6.33,6.33,0,1,0-7.881,4.247,6.334,6.334,0,0,0,7.881-4.247" transform="translate(53.598 84.5)"/>
        <path id="Path_1666" data-name="Path 1666" d="M48.713,33.179a6.328,6.328,0,1,0-7.872,4.251,6.322,6.322,0,0,0,7.872-4.251" transform="translate(127.25 87.7)"/>
      </g>
    </g>
    <path id="path-5" data-name="Path 1226" d="M 42.802 -249.206 L 181.297 -249.206 C 181.297 -249.206 287.152 -252.913 287.734 -227.197 C 288.315 -201.482 265.994 -203.194 248.629 -193.19 C 231.263 -183.185 243.76 -170.641 228.661 -152.651 C 213.562 -134.662 199.412 -131.991 171.907 -146.793 C 144.401 -161.595 126.91 -91.451 82.88 -99.303 C 38.851 -107.156 33.363 -131.332 31.486 -163.667 C 29.61 -196.003 -3.126 -189.957 0.746 -217.294 C 4.617 -244.63 42.802 -249.206 42.802 -249.206 Z" style="fill: rgb(53, 63, 79);" transform="matrix(-1, 0, 0, -1, 288.173161, -348.079147)"/>
    <path id="Path_1226" data-name="Path 1226" d="M 308.244 -46.247 L 444.659 -46.247 C 444.659 -46.247 548.924 -42.745 549.497 -67.036 C 550.071 -91.328 528.083 -89.71 510.98 -99.16 C 493.875 -108.61 506.184 -120.46 491.311 -137.453 C 476.439 -154.447 462.502 -156.969 435.41 -142.987 C 408.317 -129.005 391.089 -195.263 347.721 -187.846 C 304.353 -180.428 298.947 -157.592 297.099 -127.048 C 295.251 -96.503 263.007 -102.214 266.82 -76.391 C 270.633 -50.57 308.244 -46.247 308.244 -46.247 Z" style="fill: rgb(71, 94, 130);"/>
    <g id="Group_1150" data-name="Group 1150" transform="matrix(0.662635, 0, 0, 0.671788, -595.864502, -691.501892)" style="">
      <g id="Group_1103" data-name="Group 1103" transform="translate(1384.566 812)">
        <g id="Group_1093" data-name="Group 1093" transform="translate(0 0)" clip-path="url(#clip-3)">
          <path id="Path_1621" data-name="Path 1621" d="M58.836,249.548c.174,3.251,157.007-.493,173.121-115.9C249.456,8.321,120.157-19.767,59.2,12.05,4.975,40.364-24.342,116.118,25.818,179.24c23,28.947,63.528,37.953,60.54,44.356-4.134,8.848-27.739,21.918-27.521,25.952" transform="translate(-0.001 0.001)" fill="#6c85a0"/>
          <path id="Path_1652" data-name="Path 1652" d="M0,23.082Z" transform="translate(131.363 118.02)"/>
        </g>
      </g>
      <g id="g-14" data-name="Group 1105" transform="translate(1456.859 884.484)">
        <g id="g-2" data-name="Group 1106" transform="translate(0 0)">
          <path id="Path_1646" data-name="Path 1646" d="M28.634,42.038a6.957,6.957,0,0,1-1,2.183c-.149-.058,1.357-4.053.087-6.043,0,.022-.035.046-.093.076.072-.011.076,0-.2.076-.941-.293.037-.327.262-.208a2.174,2.174,0,0,0-.763-.7,2.828,2.828,0,0,0-.173.343,11.279,11.279,0,0,0-.564-1.894,2.021,2.021,0,0,1,.824.338c-.059-.208-.111-.62-.059-.41a.5.5,0,0,0,.076.136c-.39-.861-.973-1.907-.93-1.851,1.361.423-3.039-3.26-5.334-.518.111-.167.223-.338.338-.5-.054-.067-.215.2-.438.622a4.242,4.242,0,0,0-.4.637c.1-.16.208-.312.31-.47-.841,1.641-2.406,5.129-2.857,3.706-.093.355-.345,1.574-.574,3.017-.059-.084-.132-.147-.21-.1s.017.381.154.466a29.841,29.841,0,0,0-.332,3.308,8.523,8.523,0,0,0-.134,3.486c-.212,1.064.973,2.868,2.222,4.263.074-.022.269.23.269.23,1.108,1.242,2.25,2.076,2.28,1.53a3.974,3.974,0,0,0-.136-1.463,5.192,5.192,0,0,0,1.337-.032c-.156.511-.319,1.092-.5,1.8-5.7,5.922,1.092-.763,1.7-2.09a.207.207,0,0,0,.026.145c.21-.232.264-.314.173-.236a.211.211,0,0,0-.167.024c.035-.017.069-.03.1-.045a4.152,4.152,0,0,0,.631-.358,6.579,6.579,0,0,0-1.259,2c.342.574,3.423-3.067,3.076-3.318a.778.778,0,0,0-.873.55c.007-.041.032-.1.045-.15a3.7,3.7,0,0,0,.291-.421c.492-.173.887-1.346,1.129-3.011q.214-.493.425-.993c.019-.468.169-.661.264-.616.778-1.849,1.374-3.472.96-3.492M22.89,33.231c-.108.071-.219-.015-.347-.249.085-.045.516.182.347.249M20.84,52.425a2.935,2.935,0,0,1-.228-.243c.113.026.225.052.336.071-.026.048-.061.1-.108.173m-.178-6.91a6.192,6.192,0,0,1,.056-1.546,13.281,13.281,0,0,1,.366-1.561c.071-.243.167-.481.262-.717.017.045.033.091.052.137a25.866,25.866,0,0,0-.735,3.687m1.723,2.076a12.474,12.474,0,0,1,.271-2.766c.032.089.061.173.095.258-.15.954-.269,1.84-.366,2.508M21.756,35.2a6.745,6.745,0,0,0,.366-1.2,1.3,1.3,0,0,1,1.238.007,5.035,5.035,0,0,0-1.6,1.2m3.373-.949c-.032-.024-.063-.056-.1-.08.108-.173.4-.243.1.08m1.047,8.17c.009-.061.022-.126.037-.188a2.54,2.54,0,0,1,.007.429c-.015-.082-.032-.16-.045-.241m1.853-1.986c-.275-1.662.431-.238,0,0m-.589-1.524c-.247.024.154-.425.221-.46.472.249.4.4-.221.46" transform="translate(-15.733 -10.677)"/>
          <path id="Path_1647" data-name="Path 1647" d="M69.2,44.444a1.036,1.036,0,0,0-.21.433c-.058-.512-.134-1.025-.225-1.537.251-1.188.366-2.04.13-2.029a7.431,7.431,0,0,1-.288,1.216c-.076-.356-.154-.715-.243-1.069a7.8,7.8,0,0,0-.464-3.414c-.045.074-.195.137-.481.182a.41.41,0,0,1-.063-.117,1.219,1.219,0,0,1,.234-.369,1.009,1.009,0,0,1,.223.124,3.425,3.425,0,0,0-.184-.369c-.017.032-.045.052-.277.139-.076-.02-.134-.039-.186-.058-.03-.074-.059-.149-.085-.223a1.24,1.24,0,0,1,.446,0,2.138,2.138,0,0,0-.633-.518q-.287-.769-.581-1.509a1.369,1.369,0,0,1,.39.162,2.638,2.638,0,0,1-.136-.408c-.511-.832-1.153-1.754-1.056-1.636,1.435.347-3.394-3.165-5.6-.65.147-.217.275-.444.438-.652-.065-.084-.243.219-.49.7a3.3,3.3,0,0,0-.429.67c.113-.2.256-.381.382-.576-.854,1.719-2.426,5.471-2.835,3.921a17.241,17.241,0,0,0-.084,4.136,3.463,3.463,0,0,0-.128.453,10.99,10.99,0,0,0,1.175,7.654,2.324,2.324,0,0,0,.267.31c.735,2.629,1.754,4.311,2.98,3.24-1.394,1.76.594-.355-.015.99.176-.386.3-.683.4-.939a3.841,3.841,0,0,0,3.4.518c.019.5.045,1.054.095,1.706.015-.046.332-1.153.511-1.94a5.228,5.228,0,0,0,.551-.293,5.916,5.916,0,0,0-.158,1.22c.282.213.98-1.116,1.474-2.317a6.156,6.156,0,0,0,1.637-3.73,18.43,18.43,0,0,0-.1-2.963A.11.11,0,0,0,69.1,45c.878.162.329-.817.1-.559m-9.865,6.964.136.26c-.1-.024-.769-.187-.136-.26m.152-14.872a.276.276,0,0,1-.089-.15.3.3,0,0,1,.195.011c-.035.046-.074.093-.106.139M62.2,32.456c-.124.039-.23-.069-.323-.317.093-.028.514.291.323.317m-1.792.977c.2-.878-.2,1.647,0,0m.369,1.608a16.663,16.663,0,0,0,.542-1.92c.323-.23.915-.052,1.565.321a7.847,7.847,0,0,0-2.107,1.6m3.1,14.024a3.2,3.2,0,0,1-.226-.7,3.234,3.234,0,0,0,.687.815c-.128.215-.278.225-.46-.113m4.272-9.329c-.425-1.667.434-.31,0,0" transform="translate(18.549 -11.248)"/>
          <path id="path-1" data-name="Path 1648" d="M38.619,23.033a2.071,2.071,0,0,0-1.457-.815c.058-.176.115-.36.175-.568a5.482,5.482,0,0,0-.882.557,5.059,5.059,0,0,0-.763.113c.091-.334,1.1-.228.718-.854-.485-.756-1.47.171-2.055.167-.939-.009.585.7.5.666a.864.864,0,0,1-.048.269,13.514,13.514,0,0,0-1.361.551c.015-.113.022-.219-.007-.225a1.4,1.4,0,0,0-.1.277,36.694,36.694,0,0,0-5.575,3.5c-.147-.275-.4-.494-.731-.1a1.211,1.211,0,0,0-.026.661q-.337.253-.663.511c-.34-.15-.665-.325-.665-.325.4.75-1.916.7-2.473.518-.093-.046-.115-.065-.111-.085a4.274,4.274,0,0,1-.967.817.452.452,0,0,0-.078-.149c-.05-.052-.074.08-.061.234-1.463.887-3.42,1.316-4.411,2.139.007.048.013.085.02.149l-.121.033s0-.056,0-.1a1.481,1.481,0,0,0-.453,1.628c-1.058-2.718.273,1.121-.52-.557.557,1.184.692,2.322,1.4,2.575-.193-.069.377-.418,1.235-.841a28.467,28.467,0,0,1-3.058,2.6c4.547,2.857,26.628-7.829,22.527-13.346M17.5,32.95c-.02.288-.1.212-.223-.234,0,0,.366-.188.223.234m2.057-2.257c.271,1.762-.589-.967,0,0m-.15,1.624c.024.065.234.85,0,0m-.193-1.446c.416,1.212.007.286-.015.2-.028-.156-.024-.223.015-.2m-.416.071c.16-.488,1.09,1.964.069.124.024.041-.069-.124-.069-.124m.351,1.389c-.026.082.069.412-.1.052Zm.191,1.279a.338.338,0,0,1-.21-.243c.048-.009.321-.028.574-.078l-.364.321m.429-1.7c-.267-.492.019-.325.123-.124Zm.306.828c-.022.115-.082-.306.015-.245Zm.332-.871c-.039-.429,0-.451.11-.072.1.355,0,.232-.11.072m.613-.7a.567.567,0,0,1,.143.379c-.1-.041-.147-.167-.143-.379m.622-.581c.046.228-.147-.11,0,0m.47.095.048.338c-.024.252-.173-.4-.048-.338m.343.215a1.159,1.159,0,0,1-.277-.65,1.358,1.358,0,0,1,.277.65m.264-.217c-.033-.061-.063-.128-.111-.225,0,0,.173.162.111.225" transform="translate(-16.092 -20.417)"/>
          <path id="Path_1650" data-name="Path 1650" d="M50.382,23.305c-.006-.065.108-.013.3.11-.108.254-.032.681.327,1.368A26.124,26.124,0,0,0,62.9,35.809c2.738,1.331,18.283,3.431,10.114-2.315-.143-.1-.3-.186-.453-.28a.5.5,0,0,0,.084-.123c.329-.863-1.972-1.623-2.011-1.513a.619.619,0,0,0,0,.553c-.241-.117-.47-.245-.718-.356.024-.006.032-.011-.048-.095a.979.979,0,0,1-.436-.1c-.847-.358-1.628-.657-2.421-.945-.277-.184-.464-.277-.507-.184-1.3-.466-2.61-.926-3.876-1.452.236-.277.444-.748-.226-.867-.147-.026-.475.215-.767.44-.226-.1-.444-.219-.661-.329-.054-.425-.076-.893-.091-.869-.431.722-1.636-1.342-1.78-1.953-.015-.123,0-.152.017-.16a4.149,4.149,0,0,1-1.231-.492.445.445,0,0,0,.093-.139c.026-.071-.11-.032-.243.05-1.537-.941-2.878-2.64-4.108-3.254-.043.028-.076.054-.137.091l-.089-.108c.02-.007.058-.022.1-.043a1.448,1.448,0,0,0-1.7.239c1.972-2.174-.884.731.262-.744-.824,1.064-1.782,1.652-1.682,2.445m3.542.713-.169-.072c.325-.462.3-.115.169.072m.837-.774c-1.459,1,.615-.977,0,0m-.312-.265c-.908.9-.256.123-.189.072.126-.1.186-.121.189-.072m-.26-.377c.52-.074-1.357,1.957,0,0m-1.207.847.1.067a.682.682,0,0,0-.169.084c-.022-.035.011-.078.071-.15M51.81,21.891s.343.275-.108.314c-.271.1-.236-.006.108-.314" transform="translate(13.271 -20.764)"/>
          <path id="Path_1651" data-name="Path 1651" d="M72.539,68.627a1.419,1.419,0,0,0-.232,1.489c-.215-.462-1.173-3.908-2.256-7.224-.442-.221-.631-.728-.562-1.53.037.056.072.111.11.165-1.04-3.032-2.1-5.571-2.679-5.013a10.817,10.817,0,0,1,1.671,3.342c-.55.13-2.12-2.694-4.212-4.74-.451-.18-1.288-.626-1.368-1.144-.163-.106-.321-.2-.485-.286a.643.643,0,0,1-.2.407c-.158.2-.438-.483-.429-.566a1.572,1.572,0,0,1,.308-.02,4.826,4.826,0,0,0-.564-.225c.015.048.006.1-.084.3a2.352,2.352,0,0,1-.537.121c-.069-.039-.126-.084-.193-.123a1,1,0,0,1,.451-.39,3.418,3.418,0,0,0-1.3-.084c-.427-.171-.9-.4-1.411-.6a9.852,9.852,0,0,0,1.433-.152,13.582,13.582,0,0,0-4.974-1.346,5.727,5.727,0,0,1,1.569-.123A35.634,35.634,0,0,0,46.582,51c.457-.132.915-.262,1.372-.392-.1-.743-9.953,4.517-8.3,2.128A17.408,17.408,0,0,0,35.857,55.8c.069-.16.08-.3-.058-.291-.16.009-.481.611-.314.683a45.729,45.729,0,0,0-4.721,6.914,16.8,16.8,0,0,0-.826,2.133.561.561,0,0,1,.1-.054c.228.46-.058.564-.247.5-.178.54-.364,1.129-.548,1.745.08.011.15.238-.035.379-.052-.011-.048-.041-.052-.08a35.829,35.829,0,0,0-.977,4.17c.061.041,0,.5,0,.5-.007-.019-.03-.061-.054-.108-.247,1.84-.1,3.145.923,2.842-1.957,1.173.527.167-.511,1.34q.674-.774,1.272-1.6a.759.759,0,0,0,.21.977,18.292,18.292,0,0,1,.427-2.337c.1.622.213,1.277.332,1.836-.035.215-.074.429-.106.648-1.261.2-1.808.538-.16,1.129.241.494.037.7-.613.616.015-.061,1.123,1.036.936.928.377.219,10.851.776,11.239.245.13-.178-1.688-.494-.323-.678.191.009.379.015.577.02-.473.874,7.636.141,2.8.353.241-.106.466-.18.692-.265,2.207.039,4.489.048,6.745.028-.284.046-.54.134-.54.321.009.984,1.071-.074,1.277-.327,2.243-.024,4.443-.078,6.485-.167.022.284.232.156.39-.019,1.78-.082,3.427-.191,4.881-.327a.512.512,0,0,1,.106.234,1.557,1.557,0,0,1,.056-.249q1.167-.111,2.135-.247c-.821.975.31,1.034,3.418.165,0,0-.184-.035-.46-.082a7.241,7.241,0,0,0,1.225-2.6c.275,1.283.576,2.456.618,2.61-.082-.867-.34-2.291-.431-3.542a2.961,2.961,0,0,0,.017-.633c-.011-.095-.028-.186-.039-.282a5.239,5.239,0,0,1,.054-.605.391.391,0,0,1-.134.017c-.009-.078-.024-.156-.035-.234l.165-.189a.377.377,0,0,1,.065.119,1.059,1.059,0,0,1,.291-.533,16.256,16.256,0,0,0,.472,3.9c.319.13.7-7.073-.043-7.081M29.19,74.453c.011-.046.011-1.279.245-.516.191.278.11.446-.245.516m.49-7.7a.216.216,0,0,1-.054-.3c.913.3.1.338.054.3m.377,2.009.063-.334c.019.16.262.247-.063.334m.451-1.032a.516.516,0,0,1-.15-.065c.072-.2.15-.24.21-.215-.022.093-.035.188-.059.28m.137-1.571c-.477.147-.093-.473.119-.5a4.41,4.41,0,0,0-.119.5m4.069-7.5-.006.382c-.139.414-.247-.212.006-.382m-.163,19.215c.032.134-.121.509,0,0m-.423-.093c-.091.045-.13.293-.191-.006Zm-.414-18.26c.046.23-.269.178,0,0m-2.6,17.885c-.167.137-.239.078-.23-.16l.095.032c.071.022.173.045.262.067a.569.569,0,0,1-.126.061m.509-13.1a1.2,1.2,0,0,1-.119.061c-.139-.464-.069-.59.156-.386a.266.266,0,0,1,.067.11c-.033.074-.072.143-.1.215m.624-1.353c-.238.078-1.1.017,0,0m.2-1.093c.171-.076.251-.013.243.178-.171.182-.254.126-.243-.178m1.043,16.6a11.646,11.646,0,0,0,1.58.238c-.486.113-1.606.186-1.58-.238M35.043,57.88c.29-.011.4.143.4.423-.3.085-.438-.054-.4-.423m.34,20.522c-.108.072.05-.234.169-.161Zm28.8-22.421c.085-.368.479.379-.009.032.054.039.026-.082.009-.032m-6.251-4.238c.191.078.555-.007.735.332-.221-.046-1.1-.485-.735-.332m-8.165-.46c-.046,0-.089,0-.139,0a.155.155,0,0,1-.078-.108.549.549,0,0,1,.217.1m-13.6,6.258a.893.893,0,0,1-.195-.175l.306-.074a1.282,1.282,0,0,1,.006.136c-.039.041-.076.072-.117.113m.323,20.436c.05,0,.1,0,.154.007-.05.106-.1.072-.154-.007M63.635,64.758c.743,0,.795-.115.278-.514a20.48,20.48,0,0,1-2.066.2c-.117-.017-.668-.074-.793-.065a.876.876,0,0,0,.373.091c-.512.028-1.021.043-1.454.041a7.217,7.217,0,0,0,1.2-.4H59.544a5.006,5.006,0,0,1-.568.1.4.4,0,0,0,.05-.1h-.332c-.035.03-.054.039-.082.149l-.241.024a.991.991,0,0,0-.252-.173.882.882,0,0,0-.163.011.6.6,0,0,0-.013.2c-.373.032-.778.056-1.2.078a1.529,1.529,0,0,0-.529.028c-1.333.054-2.71.067-3.527.017.583.13,1.168.262,1.766.336,0,0-1.745-.076-3.795-.16.186-.059-.574-.221-1.264-.059a1.117,1.117,0,0,1,.119.015,38.364,38.364,0,0,0-5.183-.009,1,1,0,0,1,.991.321c-.089.444-4.94-.408-4.907-.468a9.692,9.692,0,0,1,2.761-.11.641.641,0,0,0-.319-.2,4.088,4.088,0,0,0-.527.022c.132.024.022.024-.3-.022-1,0-2,0-2.954-.059.162-.247.332-.457.5-.692a4.508,4.508,0,0,0-.7.377A14.77,14.77,0,0,1,40.2,61.173s.1-.1.087-.13c1.292-2.1,3.2-4.478,4.474-3.36.824-2.723,8.651-1.764,10.335-1.157-1.894.113,5.083,3.2,4.851,3.466q-.632-.387-1.249-.8a31.092,31.092,0,0,1,6.138,5.6c-.4.006-.8-.006-1.2-.03m4.346,12.91-.058-.16c.037-.006.065-.013.1-.019a.967.967,0,0,1-.043.178m.47-.033c-.059-.045-.132-.11-.221-.182.433-.078.826-.156,1.164-.245a2.374,2.374,0,0,0,.076.342c-.665-.085-1.277-.123-1.019.085m.03-15.685c.137.121-.293-.613-.3-.557a21.69,21.69,0,0,0-3.215-4.521c2.928,1.153,5.855,8.61,5.854,9.9,0,.193-.152.277-.332.33a29.56,29.56,0,0,0-2.009-5.155m2.816,8.6c-.022-.119-.046-.234-.072-.353a1.18,1.18,0,0,0-.009-.33,5.384,5.384,0,0,1-.223-.845.328.328,0,0,0,.117.006c-.006-.052-.013-.1-.019-.149a.177.177,0,0,0-.132,0c-.084-.382-.195-.756-.3-1.134.15.019.28.041.286.082.019.1.078.529.145,1.054.084.039.117.126.019.149.037.271.072.555.106.839.072.006.163.082.28.239a.215.215,0,0,1-.239.111c.013.115.024.223.041.332" transform="translate(-5.876 4.732)"/>
        </g>
      </g>
    </g>
  </g>
  <g id="Group_831" data-name="Group 831" transform="matrix(1, 0, 0, 1, 9923.315239, -3568.361035)">
    <g id="Group_840" data-name="Group 840" transform="matrix(1.570383, 0, 0, 1.762897, -11265.592773, 719.196899)" style=""/>
    <g id="Group_656" data-name="Group 656" transform="matrix(0.463966, -0.024315, 0.0259, 0.494203, -9905.03125, 3667.9104)" style=""/>
  </g>
  <g id="Balance" clip-path="url(#clip-Balance)" transform="matrix(1, 0, 0, 1, 3301.519909, -280.493848)"/>
  <g id="Group_1192" data-name="Group 1192" transform="matrix(-1, 0, 0, 1, 6597.020397, -1219.667585)"/>
  <polyline style="fill: rgb(216, 216, 216); stroke: rgb(0, 0, 0);" points="510.455 -75.258" transform="matrix(1, 0, 0, 1, 3795.782604, -201.962491)"/>
  <path style="fill: rgb(216, 216, 216); stroke: rgb(0, 0, 0);" d="M -167.225 -0.173" transform="matrix(1, 0, 0, 1, 1917.034466, -183.720411)"/>
  <g transform="matrix(0.553077, 0, 0, 0.523998, 829.489868, -262.772675)" style="">
    <g id="g-12" data-name="Group 1140" transform="matrix(1, 0, 0, 1, -1544.942871, 133.738831)">
      <g id="g-13" data-name="Group 1139" transform="translate(0 0.001)" clip-path="url(#clip-10)">
        <path id="path-15" data-name="Path 1667" d="M 24.857 41.629 C 24.857 41.629 9.352 13.521 11.593 9.865 C 13.834 6.209 43.536 19.165 43.536 19.165 C 43.536 19.165 73.836 -8.811 131.473 2.836 C 209.339 18.566 256.773 100.345 212.528 181.92 C 171.128 258.264 81.949 254.235 34.138 208.72 C -13.673 163.205 -5.988 88.97 24.857 41.629" transform="matrix(-1, 0, 0, -1, 229.526566, 241.418865)" style="fill: rgb(136, 166, 163);"/>
        <path id="path-16" data-name="Path 1668" d="M 37.919 106.252 C 39.858 105.846 41.829 105.505 43.824 105.227 C 48.153 104.599 52.54 104.134 56.953 103.834 C 61.768 103.53 66.599 103.308 70.256 103.308 C 73.9 103.291 76.361 103.425 76.361 103.425 C 82.867 103.785 86.325 108.486 82.583 111.889 C 81.529 112.847 80.017 113.562 78.271 113.925 C 78.271 113.925 75.922 114.412 72.364 114.93 C 68.806 115.447 64.023 115.934 59.234 116.345 C 54.824 116.696 50.385 116.879 45.938 116.893 C 43.899 116.915 41.86 116.869 39.826 116.754 C 33.308 116.319 29.977 111.559 33.829 108.187 C 34.851 107.294 36.277 106.621 37.919 106.257" style="" transform="matrix(0.994212, -0.10744, 0.10744, 0.994212, -11.492805, 6.885881)"/>
        <path id="path-17" data-name="Path 1670" d="M 83.33 147.402 C 83.33 147.402 86.981 146.254 92.74 144.89 C 95.605 144.25 98.969 143.539 102.587 142.869 C 104.375 142.503 106.371 142.32 108.329 142.075 C 110.4 141.863 112.088 141.543 114.529 141.426 C 118.404 141.447 122.101 141.268 125.881 141.459 C 129.615 141.659 133.181 141.875 136.069 142.145 C 141.869 142.715 145.749 143.33 145.749 143.33 C 149.73 143.958 151.539 148.66 149.005 151.795 C 148.016 153.017 146.531 153.73 144.959 153.738 L 144.897 153.738 C 144.897 153.738 141.134 153.759 135.454 153.696 C 132.601 153.596 129.454 153.725 126.011 153.646 C 122.605 153.538 118.639 153.808 114.85 153.875 C 113.116 154.058 111.382 154.237 109.677 154.416 C 107.893 154.641 106.177 154.695 104.425 154.986 C 100.965 155.543 97.697 155.847 94.919 156.296 C 89.384 157.119 85.546 157.61 85.546 157.61 C 81.54 158.109 78.496 154.084 80.067 150.365 C 80.663 148.955 81.846 147.875 83.305 147.41 Z"/>
        <path id="path-18" data-name="Path 1622" d="M 161.48 112.422 C 161.609 118.154 154.798 121.864 149.218 119.099 C 143.64 116.334 143.477 109.168 148.926 106.201 C 150.169 105.524 151.586 105.153 153.039 105.127 C 157.607 105.038 161.39 108.308 161.48 112.422" style=""/>
        <path d="M 145.741 130.177 C 149.649 124.109 152.2 118.049 155.135 113.672 C 158.749 108.285 162.945 105.449 170.975 108.292" style="fill: rgb(111, 152, 148);" transform="matrix(-0.82333, -0.567562, 0.567562, -0.82333, 221.384439, 306.258682)"/>
        <path id="path-19" data-name="Path 1668" d="M 134.644 101.305 C 136.584 100.9 138.554 100.558 140.55 100.28 C 144.878 99.653 149.265 99.188 153.679 98.888 C 158.494 98.584 163.324 98.361 166.981 98.361 C 170.625 98.344 173.086 98.479 173.086 98.479 C 179.593 98.838 183.05 103.54 179.308 106.943 C 178.255 107.901 176.742 108.615 174.996 108.978 C 174.996 108.978 172.648 109.466 169.089 109.984 C 165.531 110.501 160.748 110.988 155.959 111.399 C 151.55 111.749 147.11 111.932 142.663 111.947 C 140.624 111.969 138.585 111.922 136.552 111.808 C 130.033 111.372 126.702 106.613 130.554 103.241 C 131.576 102.347 133.002 101.675 134.644 101.311" style="" transform="matrix(0.999298, 0.037465, -0.037465, 0.999298, 4.048413, -5.728895)"/>
      </g>
    </g>
    <path id="path-20" data-name="Path 1622" d="M -1479.956 254.933 C -1479.827 260.665 -1486.638 264.375 -1492.218 261.61 C -1497.796 258.845 -1497.959 251.679 -1492.51 248.712 C -1491.267 248.035 -1489.85 247.664 -1488.397 247.638 C -1483.829 247.549 -1480.046 250.819 -1479.956 254.933" style=""/>
    <path d="M -1494.316 272.727 C -1490.408 266.659 -1487.857 260.599 -1484.922 256.222 C -1481.308 250.835 -1477.112 247.999 -1469.082 250.842" style="fill: rgb(111, 152, 148);" transform="matrix(-0.861488, -0.507778, 0.507778, -0.861488, -2890.808376, -266.110103)"/>
    <path d="M -1460.231 301.818 C -1448.134 288.491 -1448.761 287.223 -1445.826 282.846 C -1442.212 277.459 -1443.027 277.09 -1434.997 279.933" style="fill: rgba(104, 145, 140, 0.76);" transform="matrix(-0.823134, -0.567847, 0.567847, -0.823134, -2803.869043, -293.317455)"/>
  </g>
</svg>