<svg viewBox="-57.068 -283.794 609.381 892.859" xmlns="http://www.w3.org/2000/svg"><defs><clipPath id="AcceptAfFølelser_svg__a"><path d="M0 0h1166v1094H0z"/></clipPath><clipPath id="AcceptAfFølelser_svg__b"><path d="M0 0h545v513H0z"/></clipPath><clipPath id="AcceptAfFølelser_svg__c"><path fill="none" d="M0 0h229.531v241.419H0z" data-name="Rectangle 482"/></clipPath><clipPath id="AcceptAfFølelser_svg__f"><path fill="none" d="M0 0h233.57v250.237H0z" data-name="Rectangle 448"/></clipPath><clipPath id="AcceptAfFølelser_svg__d"><path fill="none" d="M0 0h217.813v219.517H0z" data-name="Rectangle 450"/></clipPath><clipPath id="AcceptAfFølelser_svg__g"><path d="M0 0h1166v1094H0z"/></clipPath><clipPath id="AcceptAfFølelser_svg__e"><path fill="none" d="M0 0h248.072v238.484H0z" data-name="Rectangle 481"/></clipPath><clipPath id="AcceptAfFølelser_svg__h"><path fill="none" d="M0 0h229.531v241.419H0z" data-name="Rectangle 482"/></clipPath></defs><g data-name="Group 656"><g data-name="Group 322"><g data-name="Group 256"><g data-name="Group 658"><path fill="none" stroke="#323f51" stroke-linecap="round" stroke-linejoin="round" d="M192.423 0C138.855 9.074 12.052 2.631 1.107 6.085c-21.6 38.228 279.885 10.351 292.233 102.249" data-name="Path 419" style="stroke-width:4.01753px" transform="matrix(.7344 -.03849 .03967 .75701 69.225 518.69)"/><path fill="none" stroke="#323f51" stroke-linecap="round" stroke-linejoin="round" d="M94.8 0c52.075 10.14 175.344 2.941 185.984 6.8 21 42.72-291.4 15.164-280.51 98.08" data-name="Path 1048" style="stroke-width:4.01753px" transform="matrix(.7344 -.03849 .03967 .75701 171.113 518.144)"/><path stroke="#323f51" stroke-miterlimit="10" d="M.273 542.03c-.913 16.524.159 33.759 7.861 48.409 10.626 20.223 31.913 32.225 52.412 42.3 51.9 25.532 108.427 46.377 166.135 42.492s116.519-37.882 134.526-92.846c7.889-24.066 7.571-49.937 7.169-75.262l-3.353-214.005c-1.431-90.97-3.256-205-82.1-266.715C228.41-16.268 180.54-6.721 147.361 51.444c-35.7 62.575-42.477 143.389-61.082 211.931C61.356 355.154 5.576 446.269.273 542.03Z" data-name="Path 421" style="fill:#7ec8d6;stroke-width:4.01753px" transform="matrix(.7344 -.03849 .03967 .75701 64.476 10.173)"/><path fill="none" stroke="#323f51" stroke-linecap="round" stroke-linejoin="round" d="M64.162 192.269C38.632 170.33 21.87 144.4 8.4 107.425 1.515 88.494-3.39 65.833 2.905 46.51 7.279 33.1 16.4 23.661 26 17.152 61.548-6.932 66.089 18.513 103.369 0" data-name="Path 422" style="stroke-width:4.01597px" transform="matrix(.10131 -.75074 .72876 .1068 -41.594 350.76)"/><path fill="none" stroke="#323f51" stroke-linecap="round" stroke-linejoin="round" d="M51.246 0C22.37 10.46.027 53.858 0 99.529c0 10.82 1.149 21.812 4.333 31.457 5.909 17.914 17.848 28.871 29.267 38.592 40.667 34.617 43.258-20.7 86.139 6.876" data-name="Path 423" style="stroke-width:4.01757px" transform="matrix(.0757 -.75371 .73156 .0804 347.39 364.471)"/></g></g><path fill="#323f51" d="M10.955 9.451a34.11 34.11 0 0 1-9.53-5.184C.018 3.2-.615 2 .784.7 2.125-.531 3.5.049 4.757.988 14.609 8.314 25.466 8.7 37.028 4.141c.576-.227 1.166-.43 1.733-.669 1.427-.6 2.8-.64 3.631.634.866 1.323.352 2.462-1.269 3.156-9.693 4.138-19.662 5.726-30.168 2.189Z" data-name="Path 498" style="stroke-width:4.01793px" transform="matrix(-.68615 .27052 -.26466 -.70803 210.19 120.027)"/><path fill="#323f51" d="M10.955 9.451a34.11 34.11 0 0 1-9.53-5.184C.018 3.2-.615 2 .784.7 2.125-.531 3.5.049 4.757.988 14.609 8.314 25.466 8.7 37.028 4.141c.576-.227 1.166-.43 1.733-.669 1.427-.6 2.8-.64 3.631.634.866 1.323.352 2.462-1.269 3.156-9.693 4.138-19.662 5.726-30.168 2.189Z" data-name="Path 499" style="stroke-width:4.01717px" transform="matrix(-.7197 -.15889 .15188 -.74124 295.851 124.827)"/><path fill="#323f51" d="M379.313 312.998a33.456 33.456 0 0 1-9.463-5.168c-1.392-1.064-2.005-2.26-.578-3.556 1.368-1.227 2.736-.649 3.98.287 9.746 7.304 20.628 7.689 32.307 3.144.582-.227 1.177-.429 1.75-.667 1.443-.599 2.82-.638 3.63.632.845 1.319.308 2.454-1.33 3.146-9.797 4.126-19.824 5.709-30.296 2.182Z" data-name="Path 498" style="stroke-width:0" transform="matrix(-.73432 .03992 -.04115 -.75693 538.539 454.284)"/></g><path fill="none" stroke="#323f51" stroke-linecap="round" stroke-miterlimit="10" d="M6.729 0C5.021 2.986 3.241 5.938 1.491 8.894a10.005 10.005 0 0 0 .343 11.038c3.618 5 15.234 8.911 19.02 9.966 11.323 3.166 11.666-8.115 14.694-13.4" data-name="Path 605" style="stroke-width:4.01784px" transform="matrix(.63634 -.37798 .36877 .65703 251.562 168.196)"/><path fill="none" stroke="#323f51" stroke-linecap="round" stroke-miterlimit="10" d="M6.729 0C5.02 2.986 3.241 5.938 1.49 8.894a10 10 0 0 0 .348 11.038c3.618 5 15.23 8.911 19.016 9.966 11.323 3.166 11.67-8.115 14.694-13.4" data-name="Path 606" style="stroke-width:4.01784px" transform="matrix(.63634 -.37798 .36877 .65703 197.648 168.303)"/></g><g data-name="Group 1140"><g clip-path="url(#AcceptAfFølelser_svg__c)" data-name="Group 1139" transform="matrix(.57244 0 0 .58027 302.734 -239.357)"><path fill="#508984" d="M24.857 199.79s-15.505 28.108-13.264 31.764 31.943-9.3 31.943-9.3 30.3 27.976 87.937 16.329c77.866-15.73 125.3-97.509 81.055-179.084-41.4-76.344-130.579-72.315-178.39-26.8s-40.126 119.75-9.281 167.091" data-name="Path 1667"/><path d="M55.732 112.693a37.526 37.526 0 0 1 3.713-1.014 71.159 71.159 0 0 1 8.254-1.377c3.027-.3 6.063-.52 8.362-.52 2.291-.017 3.838.116 3.838.116a5.333 5.333 0 0 1 1.2 10.381s-1.476.482-3.713.994-5.243.994-8.254 1.4a70.41 70.41 0 0 1-8.358.541 36.914 36.914 0 0 1-3.842-.137 5.353 5.353 0 0 1-1.2-10.379" data-name="Path 1668"/><path d="M143.645 106.347s1.493-.432 3.751-.823a71.812 71.812 0 0 1 8.321-.965c3.04-.137 6.079-.212 8.375-.1 2.291.1 3.83.308 3.83.308a5.333 5.333 0 0 1 .672 10.43s-1.493.412-3.755.8c-2.258.412-5.285.728-8.316.985a73.236 73.236 0 0 1-8.37.121 38.313 38.313 0 0 1-3.834-.333 5.354 5.354 0 0 1-.674-10.429" data-name="Path 1669"/><path d="M83.33 136.719s3.651-1.148 9.41-2.512c2.865-.64 6.229-1.351 9.847-2.021 1.788-.366 3.784-.549 5.742-.794 2.071-.212 3.759-.532 6.2-.649 3.875.021 7.572-.158 11.352.033 3.734.2 7.3.416 10.188.686 5.8.57 9.68 1.185 9.68 1.185a5.236 5.236 0 0 1-.79 10.408h-.062s-3.763.021-9.443-.042c-2.853-.1-6 .029-9.443-.05-3.406-.108-7.372.162-11.161.229-1.734.183-3.468.362-5.173.541-1.784.225-3.5.279-5.252.57-3.46.557-6.728.861-9.506 1.31-5.535.823-9.373 1.314-9.373 1.314a5.244 5.244 0 0 1-2.241-10.2Z" data-name="Path 1670"/></g></g><g clip-path="url(#AcceptAfFølelser_svg__d)" data-name="Group 1097" transform="matrix(-.6563 .21276 .19237 .5934 200.018 -289.702)"><path fill="#a17eaa" d="M32.722 199.052c33.708 22.873 76.857 23.725 105.577 16.289 63.176-16.363 92.008-78.38 74.441-137.669-12.547-42.353-78.691-109.987-161.08-60.013-79.743 48.378-33.885 163.139-33.885 163.139s2.058 35.587 2.547 37.443c.489 1.856-.376.462-.376.462" data-name="Path 1631"/><path d="m93.071 148.578-.13-.871c-.067-.582-.189-1.4-.226-2.449a42.154 42.154 0 0 1 .437-8.745 32.286 32.286 0 0 1 1.434-5.814 29.487 29.487 0 0 1 2.935-6.24 24.637 24.637 0 0 1 5.043-5.725 23.83 23.83 0 0 1 14.766-5.375 15.548 15.548 0 0 1 3.931.367 17.07 17.07 0 0 1 3.668.982 25.313 25.313 0 0 1 6.181 3.205 32.361 32.361 0 0 1 4.617 3.865 42.041 42.041 0 0 1 5.462 6.855c.589.871.956 1.619 1.238 2.119.274.526.422.8.422.8a1.956 1.956 0 0 1-3.22 2.175l-.115-.133s-.167-.2-.478-.56c-.341-.378-.841-.926-1.478-1.627a47.264 47.264 0 0 0-5.736-5.243 27.876 27.876 0 0 0-9.066-4.854 10.948 10.948 0 0 0-2.635-.551 11.106 11.106 0 0 0-2.694-.126 11.1 11.1 0 0 0-2.516.267 12.549 12.549 0 0 0-2.961.871 17.069 17.069 0 0 0-4.794 2.644 21.579 21.579 0 0 0-3.8 3.954 31.424 31.424 0 0 0-2.653 4.7 39.907 39.907 0 0 0-1.738 4.739 51 51 0 0 0-1.645 7.611l-.274 2.175c-.063.5-.07.763-.07.763l-.011.111a1.96 1.96 0 0 1-3.891.107" data-name="Path 1632"/><path d="M128.186 92.549c.015.037.4.337 1.186.978a42.422 42.422 0 0 0 3.209 2.386 18.01 18.01 0 0 0 4.528 2.227 8.267 8.267 0 0 0 2.364.374 7 7 0 0 0 2.279-.33l.145-.026.07-.015c-.119.048.285-.111-.267.107l.011-.007.026-.011.052-.022.422-.178.837-.348c.537-.245.515-.374.837-.508a8 8 0 0 0 1.675-1.582 14.661 14.661 0 0 0 2.226-4.357 39.637 39.637 0 0 0 1.267-5.288 1.953 1.953 0 1 1 3.883-.426 18.969 18.969 0 0 1 .422 1.868 19.572 19.572 0 0 1 .2 4.928 16.415 16.415 0 0 1-2.231 7.159 13.922 13.922 0 0 1-3.09 3.524 18.826 18.826 0 0 1-2.227 1.386l-.826.382-.411.193-.385.156-.148.041-.3.089a13.23 13.23 0 0 1-4.865.563 12.539 12.539 0 0 1-4.458-1.1 17.354 17.354 0 0 1-5.969-4.317 20.738 20.738 0 0 1-2.862-3.96 17.864 17.864 0 0 1-.826-1.686 1.955 1.955 0 0 1 3.231-2.2" data-name="Path 1633"/><path d="M54.691 116.549c.015.037.4.337 1.182.978.767.622 1.882 1.49 3.213 2.386a18.01 18.01 0 0 0 4.528 2.227 8.262 8.262 0 0 0 2.36.374 6.974 6.974 0 0 0 2.279-.33l.145-.026.074-.015-.27.107.015-.007.026-.011.052-.022.422-.178.834-.348c.541-.245.519-.374.841-.508a7.9 7.9 0 0 0 1.674-1.58 14.715 14.715 0 0 0 2.231-4.358 41.016 41.016 0 0 0 1.267-5.284 1.953 1.953 0 1 1 3.883-.43c0 .044.219.711.422 1.871a19.6 19.6 0 0 1 .2 4.928 16.415 16.415 0 0 1-2.231 7.159 13.922 13.922 0 0 1-3.09 3.524 18.866 18.866 0 0 1-2.223 1.381l-.826.382-.411.193-.385.156-.152.041-.293.089a13.23 13.23 0 0 1-4.865.563 12.54 12.54 0 0 1-4.458-1.1 17.354 17.354 0 0 1-5.969-4.317 20.738 20.738 0 0 1-2.875-3.954 17.863 17.863 0 0 1-.826-1.686 1.955 1.955 0 0 1 3.231-2.2" data-name="Path 1634"/><path fill="#98c5ed" d="M164.436 96.04c-.986.385 3.413 18.3 9.1 14.929 6.644-3.935-5.554-16.3-9.1-14.929" data-name="Path 1635"/></g><g data-name="Group 1138"><g clip-path="url(#AcceptAfFølelser_svg__e)" data-name="Group 1137" transform="matrix(.578 0 0 .5753 3.614 -58.032)"><path fill="#8fc0d4" d="M131.149.241c-96.239-5.7-147.2 90.632-126.632 153.05s135.968 128.708 210.373 47.65c0 0 29.511 15.231 32.875 10.362s-21.693-35.5-21.693-35.5 30.889-46.282 16.735-94.167C226.793 27.482 179.966 3.128 131.149.241" data-name="Path 1661"/><path fill="#002640" d="M77.333 84.784c-.072.059-1.387 1.468-2.1 2.184a28.873 28.873 0 0 1-5.584 4.472 22.748 22.748 0 0 1-3.238 1.693c-.513.275-1.081.392-1.576.617a12.831 12.831 0 0 1-1.473.464c-1.833.608-7.953.689-7.85 5.728.1 5.332 9.984 5.8 17.753 2.126 9.336-4.431 12.191-11 12.209-14.861.023-3.652-2.531-4.7-4.774-4.539-1.36.086-3.288 2.067-3.364 2.117" data-name="Path 1662"/><path fill="#002640" d="M168.505 87.468c.077.05 1.482 1.365 2.252 2.031a28.617 28.617 0 0 0 5.881 4.067 23.441 23.441 0 0 0 3.342 1.468c.536.239 1.108.32 1.617.5a15.355 15.355 0 0 0 1.5.369c1.878.464 8 .126 8.246 5.152.261 5.337-9.574 6.494-17.563 3.364-9.624-3.774-12.929-10.124-13.231-13.974-.257-3.648 2.211-4.868 4.458-4.864 1.365-.009 3.423 1.837 3.5 1.882" data-name="Path 1663"/><path d="M77.176 158.695a33.38 33.38 0 0 1 1.405-4.792 51.368 51.368 0 0 1 5.967-11.574 43.384 43.384 0 0 1 13.736-12.88 43.1 43.1 0 0 1 21.049-5.71l2.716.063c.869.036 1.95.167 2.909.252a42.575 42.575 0 0 1 5.58 1.081 37.331 37.331 0 0 1 10.025 4.409 44.907 44.907 0 0 1 13.371 13.2 56.973 56.973 0 0 1 5.875 11.542c.563 1.446.883 2.635 1.121 3.445.221.851.342 1.306.342 1.306a2.372 2.372 0 0 1-4.431 1.63l-.09-.194s-.167-.342-.477-.986c-.356-.667-.874-1.644-1.531-2.891a61.376 61.376 0 0 0-6.557-9.574 43.515 43.515 0 0 0-11.948-10.187 31.394 31.394 0 0 0-7.953-3.139 33.707 33.707 0 0 0-4.305-.77c-.721-.045-1.315-.14-2.135-.167l-2.36-.023a37.924 37.924 0 0 0-17.068 4.152 42.05 42.05 0 0 0-12.164 9.84 55.514 55.514 0 0 0-6.58 9.453c-1.351 2.477-1.95 3.882-1.95 3.882a2.39 2.39 0 0 1-4.548-1.369" data-name="Path 1664"/><path d="M81.291 116.767a6.33 6.33 0 1 0-7.881 4.247 6.334 6.334 0 0 0 7.881-4.247" data-name="Path 1665"/><path d="M175.963 120.879a6.328 6.328 0 1 0-7.872 4.251 6.322 6.322 0 0 0 7.872-4.251" data-name="Path 1666"/></g></g><path d="M42.802-249.206h138.495s105.855-3.707 106.437 22.009c.581 25.715-21.74 24.003-39.105 34.007-17.366 10.005-4.869 22.549-19.968 40.539-15.099 17.989-29.249 20.66-56.754 5.858-27.506-14.802-44.997 55.342-89.027 47.49-44.029-7.853-49.517-32.029-51.394-64.364-1.876-32.336-34.612-26.29-30.74-53.627 3.871-27.336 42.056-31.912 42.056-31.912Z" data-name="Path 1226" style="fill:#353f4f" transform="rotate(180 145.275 -144.969)"/><path d="M308.244-46.247h136.415s104.265 3.502 104.838-20.789c.574-24.292-21.414-22.674-38.517-32.124-17.105-9.45-4.796-21.3-19.669-38.293-14.872-16.994-28.809-19.516-55.901-5.534-27.093 13.982-44.321-52.276-87.689-44.859-43.368 7.418-48.774 30.254-50.622 60.798-1.848 30.545-34.092 24.834-30.279 50.657 3.813 25.821 41.424 30.144 41.424 30.144Z" data-name="Path 1226" style="fill:#475e82" transform="translate(2.376 58.141)"/><g data-name="Group 1150"><g data-name="Group 1103"><g clip-path="url(#AcceptAfFølelser_svg__f)" data-name="Group 1093" transform="matrix(.66263 0 0 .67179 323.973 -87.869)"><path fill="#6c85a0" d="M58.835 249.549c.174 3.251 157.007-.493 173.121-115.9C249.455 8.322 120.156-19.766 59.199 12.051 4.974 40.365-24.343 116.119 25.817 179.241c23 28.947 63.528 37.953 60.54 44.356-4.134 8.848-27.739 21.918-27.521 25.952" data-name="Path 1621"/><path d="M131.363 141.102Z" data-name="Path 1652"/></g></g><g data-name="Group 1105"><g data-name="Group 1106"><path d="M380.426-18.107a4.61 4.674 0 0 1-.663 1.466c-.098-.039.9-2.722.058-4.06 0 .016-.023.032-.062.052.048-.008.05 0-.132.05-.624-.196.024-.219.173-.139a1.44 1.46 0 0 0-.505-.47 1.874 1.9 0 0 0-.115.23 7.474 7.577 0 0 0-.374-1.272 1.34 1.358 0 0 1 .546.227c-.039-.14-.073-.417-.039-.275a.331.336 0 0 0 .05.09c-.258-.577-.644-1.28-.616-1.243.902.285-2.013-2.19-3.534-.348.073-.112.148-.227.224-.335-.036-.045-.143.134-.29.417a2.81 2.85 0 0 0-.265.428c.066-.107.137-.21.205-.315-.557 1.102-1.594 3.445-1.893 2.49a28.476 28.476 0 0 0-.38 2.026c-.04-.056-.088-.099-.14-.067s.012.256.102.313a19.774 20.047 0 0 0-.22 2.222 5.648 5.726 0 0 0-.088 2.342c-.14.715.644 1.927 1.472 2.864.05-.015.178.154.178.154.734.835 1.491 1.395 1.511 1.028a2.633 2.67 0 0 0-.09-.983 3.44 3.488 0 0 0 .886-.021c-.103.343-.211.733-.331 1.21-3.777 3.977.723-.513 1.126-1.405a.137.14 0 0 0 .017.097c.14-.155.175-.21.115-.158a.14.142 0 0 0-.11.016l.066-.03a2.751 2.79 0 0 0 .418-.24 4.36 4.42 0 0 0-.835 1.343c.227.386 2.269-2.06 2.039-2.23a.516.523 0 0 0-.579.37c.005-.027.021-.067.03-.1a2.452 2.486 0 0 0 .193-.283c.326-.116.588-.904.748-2.023q.142-.331.282-.667c.012-.314.112-.444.174-.414.516-1.242.911-2.332.637-2.346m-3.795-5.928c-.072.048-.145-.01-.23-.167.056-.03.342.122.23.167m-1.359 12.895a1.945 1.972 0 0 1-.15-.164c.074.018.148.035.222.048-.017.032-.04.067-.072.116m-.118-4.642a4.103 4.16 0 0 1 .037-1.038 8.8 8.922 0 0 1 .243-1.049c.047-.163.11-.323.174-.482.01.03.021.062.034.092a17.14 17.376 0 0 0-.487 2.477m1.142 1.395a8.266 8.38 0 0 1 .18-1.858c.02.06.04.116.062.173-.1.641-.178 1.236-.242 1.685m-.418-8.325a4.47 4.531 0 0 0 .243-.806.861.873 0 0 1 .82.005 3.336 3.382 0 0 0-1.06.806m2.235-.638c-.021-.016-.042-.037-.066-.053.071-.117.265-.164.066.053m.694 5.489c.006-.041.014-.085.024-.126a1.683 1.706 0 0 1 .005.288l-.03-.162m1.228-1.334c-.182-1.117.286-.16 0 0m-.39-1.024c-.164.016.102-.286.146-.31.313.168.265.27-.146.31" data-name="Path 1646"/><path d="M430.023-16.874a.686.696 0 0 0-.14.29 16.767 16.767 0 0 0-.148-1.032c.166-.798.242-1.37.086-1.363a4.924 4.992 0 0 1-.191.817c-.05-.24-.102-.48-.161-.718a5.169 5.24 0 0 0-.308-2.294c-.03.05-.129.092-.318.122a.272.275 0 0 1-.042-.078.808.819 0 0 1 .155-.248.669.678 0 0 1 .148.083 2.27 2.3 0 0 0-.122-.248c-.011.022-.03.035-.184.094a1.331 1.331 0 0 1-.123-.04c-.02-.049-.04-.1-.056-.15a.822.833 0 0 1 .295 0 1.417 1.436 0 0 0-.42-.347q-.19-.517-.384-1.014a.907.92 0 0 1 .258.109 1.748 1.772 0 0 1-.09-.274c-.339-.559-.764-1.178-.7-1.1.951.234-2.249-2.125-3.71-.436.097-.146.182-.298.29-.438-.043-.056-.161.147-.325.47a2.187 2.217 0 0 0-.284.45c.075-.134.17-.255.253-.386-.566 1.154-1.608 3.675-1.879 2.634a11.424 11.582 0 0 0-.055 2.778 2.295 2.326 0 0 0-.085.305 7.282 7.383 0 0 0 .779 5.141 1.54 1.561 0 0 0 .176.209c.487 1.766 1.163 2.896 1.975 2.176-.924 1.183.394-.238-.01.665.117-.259.199-.458.265-.63a2.545 2.58 0 0 0 2.253.348c.013.335.03.708.063 1.146.01-.031.22-.775.339-1.304a3.464 3.512 0 0 0 .365-.197 3.92 3.974 0 0 0-.105.82c.187.143.65-.75.977-1.556a4.08 4.136 0 0 0 1.085-2.506 12.212 12.381 0 0 0-.067-1.99.073.074 0 0 0 .079.065c.581.109.218-.549.066-.375m-6.537 4.678.09.175c-.066-.017-.51-.126-.09-.175m.1-9.99a.183.185 0 0 1-.058-.102.199.202 0 0 1 .129.008c-.023.03-.05.062-.07.093m1.797-2.739c-.082.026-.152-.046-.214-.213.062-.019.34.196.214.213m-1.187.657c.132-.59-.133 1.106 0 0m.244 1.08a11.041 11.194 0 0 0 .36-1.29c.214-.155.606-.035 1.037.216a5.2 5.272 0 0 0-1.397 1.074m2.055 9.422a2.12 2.15 0 0 1-.15-.47 2.143 2.173 0 0 0 .455.547c-.085.144-.184.151-.305-.076m2.831-6.267c-.282-1.12.288-.208 0 0" data-name="Path 1647"/><path d="M386.804-37.418a1.372 1.391 0 0 0-.965-.547c.038-.118.076-.242.116-.382a3.633 3.683 0 0 0-.585.374 3.352 3.399 0 0 0-.505.076c.06-.224.729-.153.476-.573-.322-.508-.974.114-1.362.112-.622-.006.388.47.331.447a.573.58 0 0 1-.032.18 8.955 9.079 0 0 0-.901.371c.01-.076.014-.147-.005-.151a.928.94 0 0 0-.066.186 24.315 24.65 0 0 0-3.694 2.351c-.098-.184-.266-.332-.485-.067a.802.814 0 0 0-.017.444q-.223.17-.44.343c-.225-.1-.44-.218-.44-.218.265.504-1.27.47-1.639.348-.061-.03-.076-.044-.073-.057a2.832 2.871 0 0 1-.641.549.3.304 0 0 0-.052-.1c-.033-.035-.049.053-.04.157-.97.596-2.266.884-2.923 1.437.005.032.009.057.013.1l-.08.022v-.067a.981.995 0 0 0-.3 1.094c-.701-1.826.18.753-.345-.375.37.796.459 1.56.928 1.73-.128-.046.25-.28.818-.565a18.863 19.124 0 0 1-2.026 1.747c3.013 1.92 17.645-5.26 14.927-8.966m-13.987 6.662c-.013.194-.066.143-.148-.157 0 0 .243-.126.148.157m1.363-1.516c.18 1.184-.39-.65 0 0m-.1 1.091c.017.044.156.571 0 0m-.127-.971c.276.814.005.192-.01.134-.019-.105-.016-.15.01-.134m-.276.047c.106-.327.723 1.32.046.084a4.096 4.096 0 0 0-.046-.084m.233.934c-.017.055.046.276-.066.035Zm.126.859a.224.227 0 0 1-.139-.163c.032-.006.213-.02.38-.053l-.24.216m.284-1.142c-.177-.33.012-.219.081-.084Zm.203.556c-.015.077-.055-.206.01-.165Zm.22-.585c-.026-.288 0-.303.072-.048.067.238 0 .155-.072.048m.406-.47a.376.38 0 0 1 .094.254c-.066-.027-.097-.112-.094-.254m.412-.39c.03.152-.098-.075 0 0m.311.063.032.227c-.016.17-.115-.269-.032-.227m.228.145a.768.779 0 0 1-.184-.437.9.912 0 0 1 .184.437m.175-.146c-.022-.041-.042-.086-.074-.151 0 0 .115.108.074.15" data-name="Path 1648"/><path d="M414.056-37.468c-.004-.044.072-.009.199.074-.072.17-.021.457.216.919a17.31 17.55 0 0 0 7.88 7.407c1.814.894 12.115 2.305 6.702-1.555-.095-.067-.2-.125-.3-.188a.331.336 0 0 0 .055-.083c.218-.58-1.307-1.09-1.332-1.016a.41.416 0 0 0 0 .371c-.16-.078-.312-.164-.476-.239.016-.004.021-.007-.032-.064a.649.658 0 0 1-.289-.067 32.458 32.458 0 0 0-1.604-.635c-.184-.123-.308-.186-.336-.123-.861-.314-1.73-.623-2.568-.976.156-.186.294-.502-.15-.582-.098-.018-.315.144-.508.295-.15-.067-.295-.147-.438-.22-.036-.286-.05-.6-.06-.585-.286.485-1.085-.901-1.18-1.312-.01-.082 0-.102.011-.107a2.75 2.787 0 0 1-.816-.33.295.299 0 0 0 .062-.094c.017-.048-.073-.021-.161.034-1.019-.633-1.907-1.774-2.722-2.186-.029.018-.05.036-.09.06l-.06-.072a.604.604 0 0 0 .066-.029.96.973 0 0 0-1.126.16c1.307-1.46-.586.492.173-.499-.546.715-1.18 1.11-1.114 1.643m2.347.479-.112-.049c.215-.31.199-.077.112.049m.555-.52c-.967.671.407-.657 0 0m-.207-.178c-.602.604-.17.082-.125.048.083-.067.123-.081.125-.048m-.172-.254c.344-.05-.9 1.315 0 0m-.8.57.066.044a.452.458 0 0 0-.112.057c-.015-.024.007-.053.047-.101m-.78-1.048s.227.185-.071.21c-.18.068-.157-.003.071-.21" data-name="Path 1650"/><path d="M416.05 10.107a.94.953 0 0 0-.153 1c-.143-.31-.778-2.625-1.495-4.853-.293-.149-.418-.49-.373-1.028.025.038.048.075.073.11-.689-2.036-1.391-3.742-1.775-3.367a7.168 7.267 0 0 1 1.107 2.245c-.364.088-1.404-1.81-2.79-3.184-.3-.12-.854-.42-.907-.768a3.938 3.938 0 0 0-.321-.193.426.432 0 0 1-.133.274c-.105.134-.29-.325-.284-.38a1.042 1.056 0 0 1 .204-.014 3.198 3.242 0 0 0-.374-.151c.01.032.004.067-.056.202a1.559 1.58 0 0 1-.355.08c-.046-.025-.084-.056-.128-.082a.663.672 0 0 1 .299-.262 2.265 2.296 0 0 0-.862-.056c-.283-.115-.596-.269-.935-.403a6.528 6.618 0 0 0 .95-.102 9 9.124 0 0 0-3.296-.905 3.795 3.847 0 0 1 1.04-.082 23.612 23.938 0 0 0-6.636.077c.303-.089.607-.176.91-.263-.067-.5-6.596 3.034-5.5 1.43a11.535 11.694 0 0 0-2.516 2.058c.045-.108.053-.202-.039-.196-.106.006-.318.41-.208.459a30.302 30.72 0 0 0-3.128 4.645 11.132 11.286 0 0 0-.547 1.433.372.377 0 0 1 .066-.037c.15.31-.039.38-.164.336-.118.363-.241.759-.363 1.172.053.008.1.16-.023.255-.035-.007-.032-.027-.035-.054a23.742 24.07 0 0 0-.647 2.802c.04.027 0 .336 0 .336-.005-.013-.02-.041-.036-.073-.163 1.236-.066 2.113.612 1.91-1.297.787.349.111-.339.9q.447-.52.843-1.075a.503.51 0 0 0 .14.656 12.12 12.288 0 0 1 .282-1.57c.066.418.141.858.22 1.233-.023.145-.049.289-.07.436-.836.134-1.198.361-.106.758.16.332.024.47-.406.414.01-.041.744.696.62.623.25.147 7.19.522 7.447.165.086-.12-1.118-.332-.214-.456.127.007.251.01.383.014-.314.587 5.06.095 1.855.237.16-.071.309-.12.459-.178 1.462.026 2.974.032 4.469.019-.188.03-.358.09-.358.215.006.662.71-.05.846-.22 1.487-.015 2.944-.052 4.298-.111.014.19.153.104.258-.013 1.18-.055 2.27-.128 3.234-.22a.34.344 0 0 1 .07.157 1.032 1.046 0 0 1 .038-.167q.773-.074 1.414-.166c-.544.655.206.695 2.265.111l-.305-.055a4.798 4.864 0 0 0 .812-1.747c.182.862.382 1.65.41 1.754-.055-.583-.226-1.54-.286-2.38a1.962 1.99 0 0 0 .011-.425c-.007-.064-.018-.125-.025-.19a3.472 3.52 0 0 1 .035-.406.26.263 0 0 1-.089.011c-.005-.052-.015-.104-.023-.157l.11-.127a.25.253 0 0 1 .043.08.702.711 0 0 1 .193-.358 10.772 10.92 0 0 0 .312 2.62c.212.088.464-4.751-.028-4.757m-28.724 3.917c.007-.03.007-.859.162-.346.127.187.073.3-.162.346m.325-5.172a.143.145 0 0 1-.036-.202c.605.202.066.227.036.202m.25 1.35.041-.225c.013.107.174.166-.042.224m.3-.693a.342.347 0 0 1-.1-.044c.048-.134.1-.16.139-.144-.015.062-.023.126-.04.188m.092-1.055c-.316.098-.062-.318.079-.336a2.922 2.963 0 0 0-.08.336m2.697-5.039-.004.257c-.092.278-.164-.143.004-.257m-.108 12.909c.021.09-.08.342 0 0m-.28-.063c-.06.03-.086.197-.127-.004Zm-.275-12.267c.03.155-.178.12 0 0m-1.723 12.015c-.11.092-.158.053-.152-.107l.063.021c.047.015.115.03.174.045a.377.382 0 0 1-.084.041m.337-8.8a.795.806 0 0 1-.078.04c-.093-.31-.046-.396.103-.259a.176.179 0 0 1 .044.074c-.022.05-.047.096-.066.145m.414-.91c-.158.053-.73.012 0 0m.132-.733c.113-.051.166-.01.161.12-.113.121-.168.084-.16-.12m.69 11.151a7.717 7.824 0 0 0 1.047.16c-.322.076-1.064.125-1.047-.16m1.025-13.825c.192-.007.265.096.265.284-.198.057-.29-.036-.265-.284m.226 13.786c-.072.049.033-.157.112-.108Zm19.083-15.062c.057-.247.318.255-.005.022.035.026.017-.055.005-.022m-4.142-2.847c.127.053.368-.005.487.223-.146-.03-.728-.326-.487-.223m-5.41-.309h-.092a.103.104 0 0 1-.052-.072.364.369 0 0 1 .144.067m-9.012 4.204a.592.6 0 0 1-.13-.118l.204-.05a.85.861 0 0 1 .004.092c-.026.027-.05.048-.078.076m.214 13.728a.76.76 0 0 1 .102.005c-.033.071-.066.049-.102-.005m17.987-8.875c.493 0 .527-.077.185-.345a13.57 13.758 0 0 1-1.37.135 5.196 5.196 0 0 0-.525-.044.58.588 0 0 0 .247.061c-.339.019-.676.029-.963.028a4.782 4.848 0 0 0 .795-.27h-1.08a3.317 3.363 0 0 1-.376.068.265.269 0 0 0 .033-.067h-.22c-.023.02-.035.026-.054.1l-.16.016a.657.666 0 0 0-.167-.116.584.593 0 0 0-.108.007.398.403 0 0 0-.008.135 23.93 23.93 0 0 1-.796.052 1.013 1.027 0 0 0-.35.019c-.883.036-1.796.045-2.337.011.386.088.774.176 1.17.226 0 0-1.156-.051-2.515-.108.124-.04-.38-.148-.837-.04a.74.75 0 0 1 .079.01 25.421 25.772 0 0 0-3.435-.005.663.672 0 0 1 .657.215c-.06.299-3.274-.274-3.252-.314a6.422 6.511 0 0 1 1.83-.074.425.43 0 0 0-.212-.134 2.709 2.746 0 0 0-.349.015c.088.016.015.016-.199-.015-.662 0-1.325 0-1.957-.04.107-.166.22-.307.331-.465a2.987 3.028 0 0 0-.463.254 9.787 9.922 0 0 1 .878-1.723s.066-.067.057-.087c.856-1.411 2.12-3.009 2.965-2.257.546-1.83 5.732-1.185 6.848-.778-1.255.076 3.368 2.15 3.215 2.329q-.42-.26-.828-.538a20.603 20.887 0 0 1 4.067 3.762c-.265.004-.53-.004-.795-.02m2.88 8.673-.039-.108.067-.012a.64.65 0 0 1-.029.12m.312-.023c-.04-.03-.088-.074-.147-.122.287-.053.548-.105.771-.165a1.573 1.595 0 0 0 .05.23c-.44-.057-.845-.083-.674.057m.02-10.537c.09.081-.195-.412-.2-.374a14.373 14.571 0 0 0-2.13-3.037c1.94.774 3.88 5.784 3.88 6.65 0 .13-.101.187-.22.222a19.587 19.858 0 0 0-1.332-3.463m1.866 5.777a7.506 7.506 0 0 0-.048-.237.782.793 0 0 0-.006-.221 3.568 3.617 0 0 1-.147-.568.217.22 0 0 0 .077.004l-.012-.1a.117.119 0 0 0-.088 0c-.055-.257-.129-.508-.199-.762.1.013.186.028.19.055.012.067.052.356.096.708.056.026.078.085.013.1.024.182.047.373.07.564.048.004.108.055.185.16a.142.144 0 0 1-.158.075c.009.077.016.15.027.223" data-name="Path 1651"/></g></g></g><g><g data-name="Group 1140"><g clip-path="url(#AcceptAfFølelser_svg__h)" data-name="Group 1139" transform="matrix(.55308 0 0 .524 -24.983 -192.693)"><path d="M24.857 41.629S9.352 13.521 11.593 9.865c2.241-3.656 31.943 9.3 31.943 9.3s30.3-27.976 87.937-16.329c77.866 15.73 125.3 97.509 81.055 179.084-41.4 76.344-130.579 72.315-178.39 26.8-47.811-45.515-40.126-119.75-9.281-167.091" data-name="Path 1667" style="fill:#88a6a3" transform="rotate(180 114.763 120.71)"/><path d="M37.919 106.252a88.262 88.262 0 0 1 5.905-1.025 173.489 173.489 0 0 1 13.129-1.393c4.815-.304 9.646-.526 13.303-.526 3.644-.017 6.105.117 6.105.117 6.506.36 9.964 5.061 6.222 8.464-1.054.958-2.566 1.673-4.312 2.036 0 0-2.349.487-5.907 1.005-3.558.517-8.341 1.004-13.13 1.415-4.41.351-8.849.534-13.296.548a90.913 90.913 0 0 1-6.112-.139c-6.518-.435-9.849-5.195-5.997-8.567 1.022-.893 2.448-1.566 4.09-1.93" data-name="Path 1668" transform="rotate(-6.168 58.159 110.103)"/><path d="M83.33 147.402s3.651-1.148 9.41-2.512c2.865-.64 6.229-1.351 9.847-2.021 1.788-.366 3.784-.549 5.742-.794 2.071-.212 3.759-.532 6.2-.649 3.875.021 7.572-.158 11.352.033 3.734.2 7.3.416 10.188.686 5.8.57 9.68 1.185 9.68 1.185 3.981.628 5.79 5.33 3.256 8.465a5.239 5.239 0 0 1-4.046 1.943h-.062s-3.763.021-9.443-.042c-2.853-.1-6 .029-9.443-.05-3.406-.108-7.372.162-11.161.229-1.734.183-3.468.362-5.173.541-1.784.225-3.5.279-5.252.57-3.46.557-6.728.861-9.506 1.31-5.535.823-9.373 1.314-9.373 1.314-4.006.499-7.05-3.526-5.479-7.245a5.245 5.245 0 0 1 3.238-2.955Z" data-name="Path 1670"/><path d="M161.48 112.422c.129 5.732-6.682 9.442-12.262 6.677-5.578-2.765-5.741-9.931-.292-12.898a8.948 8.948 0 0 1 4.113-1.074c4.568-.089 8.351 3.181 8.441 7.295" data-name="Path 1622"/><path d="M145.741 130.177c3.908-6.068 6.459-12.128 9.394-16.505 3.614-5.387 7.81-8.223 15.84-5.38" style="fill:#6f9894" transform="rotate(-145.42 158.358 118.673)"/><path d="M134.644 101.305c1.94-.405 3.91-.747 5.906-1.025a173.894 173.894 0 0 1 13.129-1.392c4.815-.304 9.645-.527 13.302-.527 3.644-.017 6.105.118 6.105.118 6.507.359 9.964 5.061 6.222 8.464-1.053.958-2.566 1.672-4.312 2.035 0 0-2.348.488-5.907 1.006-3.558.517-8.341 1.004-13.13 1.415-4.409.35-8.849.533-13.296.548a91.535 91.535 0 0 1-6.111-.139c-6.519-.436-9.85-5.195-5.998-8.567 1.022-.894 2.448-1.566 4.09-1.93" data-name="Path 1668" transform="rotate(2.147 154.884 105.156)"/></g></g><path d="M-1479.956 254.933c.129 5.732-6.682 9.442-12.262 6.677-5.578-2.765-5.741-9.931-.292-12.898a8.948 8.948 0 0 1 4.113-1.074c4.568-.089 8.351 3.181 8.441 7.295" data-name="Path 1622" transform="matrix(.55308 0 0 .524 829.49 -262.773)"/><path d="M-1494.316 272.727c3.908-6.068 6.459-12.128 9.394-16.505 3.614-5.387 7.81-8.223 15.84-5.38" style="fill:#6f9894" transform="matrix(-.47647 -.26607 .28084 -.45142 -769.35 -402.214)"/><path d="M-1460.231 301.818c12.097-13.327 11.47-14.595 14.405-18.972 3.614-5.387 2.799-5.756 10.829-2.913" style="fill:rgba(104,145,140,.76)" transform="matrix(-.45526 -.29755 .31406 -.43132 -721.266 -416.47)"/></g></svg>