<?xml version="1.0" encoding="utf-8"?>
<svg viewBox="-1403.109 245.724 346.041 331.638" xmlns="http://www.w3.org/2000/svg">
  <defs>
    <clipPath id="clip-1">
      <rect id="Rectangle_355" data-name="Rectangle 355" width="64.366" height="65.568" fill="#009cb2"/>
    </clipPath>
    <clipPath id="clip-path-2">
      <rect id="Rectangle_356" data-name="Rectangle 356" width="59.388" height="61.717" fill="#009cb2"/>
    </clipPath>
    <clipPath id="clip-2">
      <rect id="Rectangle_357" data-name="Rectangle 357" width="63" height="65.481" fill="#009cb2"/>
    </clipPath>
    <clipPath id="clip-path">
      <rect id="Rectangle_354" data-name="Rectangle 354" width="56.641" height="71.745" fill="#323f51"/>
    </clipPath>
  </defs>
  <g transform="matrix(1, 0, 0, 1, -3750.007812, 249.544861)">
    <g id="Group_1192" data-name="Group 1192" transform="matrix(0.951086, 0, 0, 0.899282, 683.100464, -737.777466)" style="">
      <path id="Path_1683" data-name="Path 1683" d="M 255.216 822.849 L 276.532 822.849 C 368.16 822.849 446.621 905.781 450.801 988.71 C 450.889 990.453 431.952 1076.331 430.911 1077.566 C 396.799 1118.045 382.96 1154.568 293.258 1154.568 L 271.938 1154.568 C 180.309 1154.568 102.286 1080.312 97.668 988.71 C 93.051 897.105 163.587 822.849 255.216 822.849 Z" fill="#fff" style="" transform="matrix(0.609794, -0.838216, 0.749391, 0.609794, -633.962583, 615.578035)"/>
      <path id="path-5" data-name="Path 1683" d="M -298.71 821.749 L -277.393 821.749 C -185.766 821.749 -107.305 904.68 -103.124 987.61 C -103.036 989.352 -121.973 1075.23 -123.015 1076.466 C -157.126 1116.944 -170.965 1153.467 -260.668 1153.467 L -281.987 1153.467 C -373.617 1153.467 -451.64 1079.211 -456.258 987.61 C -460.876 896.005 -390.34 821.749 -298.71 821.749 Z" fill="#fff" style="" transform="matrix(0.609794, -0.838216, 0.749391, 0.609794, -849.282952, 150.839295)"/>
      <path id="path-18" data-name="Path 1683" d="M 818.123 848.955 L 839.439 848.955 C 931.067 848.955 1009.528 931.887 1013.708 1014.816 C 1013.796 1016.559 994.859 1102.437 993.818 1103.672 C 959.706 1144.151 945.867 1180.674 856.165 1180.674 L 834.845 1180.674 C 743.216 1180.674 665.193 1106.418 660.575 1014.816 C 655.958 923.211 726.494 848.955 818.123 848.955 Z" fill="#fff" style="" transform="matrix(0.609794, -0.838216, 0.749391, 0.609794, -433.876457, 1097.603178)"/>
      <path id="path-19" data-name="Path 1683" d="M 1385.898 830.467 L 1407.214 830.467 C 1498.842 830.467 1577.303 913.399 1581.483 996.328 C 1581.571 998.071 1562.634 1083.949 1561.593 1085.184 C 1527.481 1125.663 1513.642 1162.186 1423.94 1162.186 L 1402.62 1162.186 C 1310.991 1162.186 1232.968 1087.93 1228.35 996.328 C 1223.733 904.723 1294.269 830.467 1385.898 830.467 Z" fill="#fff" style="" transform="matrix(0.609794, -0.838216, 0.749391, 0.609794, -198.472307, 1566.307438)"/>
      <path id="path-20" data-name="Path 1683" d="M 1907.694 834.433 L 1929.01 834.433 C 2020.638 834.433 2099.099 917.365 2103.279 1000.294 C 2103.367 1002.037 2084.43 1087.915 2083.389 1089.15 C 2049.277 1129.629 2035.438 1166.152 1945.736 1166.152 L 1924.416 1166.152 C 1832.787 1166.152 1754.764 1091.896 1750.146 1000.294 C 1745.529 908.689 1816.065 834.433 1907.694 834.433 Z" fill="#fff" style="" transform="matrix(0.609794, -0.838216, 0.749391, 0.609794, 2.163736, 2005.232961)"/>
      <path id="path-21" data-name="Path 1683" d="M 2419.036 831.88 L 2440.352 831.88 C 2531.98 831.88 2610.441 914.812 2614.621 997.741 C 2614.709 999.484 2595.772 1085.362 2594.731 1086.597 C 2560.619 1127.076 2546.78 1163.599 2457.078 1163.599 L 2435.758 1163.599 C 2344.129 1163.599 2266.106 1089.343 2261.488 997.741 C 2256.871 906.136 2327.407 831.88 2419.036 831.88 Z" fill="#fff" style="" transform="matrix(0.609794, -0.838216, 0.749391, 0.609794, 203.605835, 2432.8521)"/>
      <path id="path-22" data-name="Path 1683" d="M 3028.307 823.016 L 3049.623 823.016 C 3141.251 823.016 3219.712 905.948 3223.892 988.877 C 3223.98 990.62 3205.043 1076.498 3204.002 1077.733 C 3169.89 1118.212 3156.051 1154.735 3066.349 1154.735 L 3045.029 1154.735 C 2953.4 1154.735 2875.377 1080.479 2870.759 988.877 C 2866.142 897.272 2936.678 823.016 3028.307 823.016 Z" fill="#fff" style="" transform="matrix(0.609794, -0.838216, 0.749391, 0.609794, 447.988917, 2940.092882)"/>
      <path id="path-23" data-name="Path 1683" d="M 3984.458 833.95 L 4005.774 833.95 C 4097.402 833.95 4175.863 916.882 4180.043 999.811 C 4180.131 1001.554 4161.194 1087.432 4160.153 1088.667 C 4126.041 1129.146 4112.202 1165.669 4022.5 1165.669 L 4001.18 1165.669 C 3909.551 1165.669 3831.528 1091.413 3826.91 999.811 C 3822.293 908.206 3892.829 833.95 3984.458 833.95 Z" fill="#fff" style="" transform="matrix(0.609794, -0.838216, 0.749391, 0.609794, 812.892246, 3745.822343)"/>
    </g>
    <g id="Group_183" data-name="Group 183" transform="matrix(1, 0, 0, 1, 696.977295, 269.86499)">
      <g id="Texte" transform="translate(-297.133 -161.973)">
        <path id="Path_383" data-name="Path 383" d="M-308.371-203.542c0,.831-.018,1.663-.03,2.5a2.417,2.417,0,0,0,1.4,2.273c1.359.611,4.264.038,5.185-.2,2.754-.7,1.472-3.1,1.472-4.574" transform="translate(326.114 203.542)" fill="none" stroke-linecap="round" stroke-linejoin="round" stroke-width="1.077" style="stroke: rgb(168, 116, 36);"/>
        <path id="Path_384" data-name="Path 384" d="M-320.09-203.542c0,.831-.017,1.663-.029,2.5a2.415,2.415,0,0,0,1.4,2.273c1.359.611,4.264.038,5.185-.2,2.756-.7,1.472-3.1,1.472-4.574" transform="translate(320.119 203.542)" fill="none" stroke-linecap="round" stroke-linejoin="round" stroke-width="1.077" style="stroke: rgb(168, 116, 36);"/>
        <path id="Path_385" data-name="Path 385" d="M-319.52-191.9c4.429,3.492,9.349,2.694,13.38-.13" transform="translate(320.426 209.433)" fill="none" stroke-linecap="round" stroke-linejoin="round" stroke-width="1.077" style="stroke: rgb(168, 116, 36);"/>
      </g>
      <g id="Layer_42" data-name="Layer 42" transform="translate(-365.05 -284.798)">
        <path id="Path_386" data-name="Path 386" d="M-293.06-170.78c9.1,4.532,15.47,8.51,22.563,15.9,8.891,9.263,13.61,22.042,15.439,34.887s.995,25.915.157,38.867" transform="translate(401.879 343.127)" fill="none" stroke-linecap="round" stroke-linejoin="round" stroke-width="1.455" style="stroke: rgb(168, 116, 36);"/>
        <path id="Path_387" data-name="Path 387" d="M-308.4-137.166c2,28.359,1.49,49.079.812,77.686,12.312-1.359,15.9-2.515,27.653-6" transform="translate(394.031 360.323)" fill="none" stroke-linecap="round" stroke-linejoin="round" stroke-width="1.586" style="stroke: rgb(168, 116, 36);"/>
        <path id="Path_388" data-name="Path 388" d="M-322.864-138.372c-6.55,28.79-8.8,47.825-5.688,76.1a101.576,101.576,0,0,0-23.484-2.11" transform="translate(371.708 359.707)" fill="none" stroke-linecap="round" stroke-linejoin="round" stroke-width="1.586" style="stroke: rgb(168, 116, 36);"/>
        <ellipse id="Ellipse_31" data-name="Ellipse 31" cx="5.438" cy="5.815" rx="5.438" ry="5.815" transform="translate(97.842 80.91) rotate(-72.98)" fill="none" stroke-miterlimit="10" stroke-width="1" style="stroke: rgb(168, 116, 36);"/>
        <ellipse id="Ellipse_32" data-name="Ellipse 32" cx="5.438" cy="5.815" rx="5.438" ry="5.815" transform="translate(113.072 80.91) rotate(-72.98)" fill="none" stroke-miterlimit="10" stroke-width="1" style="stroke: rgb(168, 116, 36);"/>
        <ellipse id="Ellipse_33" data-name="Ellipse 33" cx="5.438" cy="5.815" rx="5.438" ry="5.815" transform="translate(120.215 67.976) rotate(-72.98)" fill="none" stroke-miterlimit="10" stroke-width="1" style="stroke: rgb(168, 116, 36);"/>
        <ellipse id="Ellipse_34" data-name="Ellipse 34" cx="34.887" cy="43.419" rx="34.887" ry="43.419" transform="translate(116.817 66.719) rotate(-72.98)" fill="none" stroke-miterlimit="10" stroke-width="3.128" style="stroke: rgb(168, 116, 36);"/>
        <path id="Path_389" data-name="Path 389" d="M-329.531-159.384c-12.56-5.041-21.613-12.055-30.619-22.155-2.97-3.332-5.854-7.661-4.6-11.945.8-2.719,3.1-4.7,5.375-6.388a83.013,83.013,0,0,1,34-14.892" transform="translate(365.05 320.626)" fill="none" stroke-linecap="round" stroke-linejoin="round" stroke-width="1.93" style="stroke: rgb(168, 116, 36);"/>
        <path id="Path_390" data-name="Path 390" d="M-342.044-177.684l-1.437,3.855,1.808,2.2,1.328-.238,1.133-1.307.653-1.786Z" transform="translate(376.085 339.595)" fill="#c2c4c6" stroke-width="1" style="stroke: rgb(168, 116, 36);"/>
        <path id="Path_391" data-name="Path 391" d="M-346.713-115.077c-.2,3.613.035,7.381,1.719,10.584,2.323,4.421,6.976,7.045,11.459,9.249,11.347,5.581,23.706,10.14,36.323,9.29s25.475-8.283,29.412-20.3c1.725-5.262,1.655-10.918,1.568-16.455l-.735-46.789c-.311-19.889-.71-44.821-17.95-58.315-11.917-9.328-22.383-7.24-29.638,5.475-7.806,13.683-9.287,31.352-13.356,46.337C-333.358-155.935-345.555-136.014-346.713-115.077Z" transform="translate(374.401 310.997)" fill="none" stroke-miterlimit="10" stroke-width="4.503" style="stroke: rgb(168, 116, 36);"/>
      </g>
    </g>
    <g id="Group_995" data-name="Group 995" transform="matrix(1, 0, 0, 1, 22842.210938, -23695.886719)">
      <g id="g-1" data-name="Group 183" transform="translate(-21614.949 23968.98)">
        <g id="g-2" data-name="Layer 42" transform="translate(-365.05 -284.798)">
          <path id="path-1" data-name="Path 387" d="M-308.4-137.166c2,28.359,1.49,49.079.812,77.686,12.312-1.359,15.9-2.515,27.653-6" transform="translate(394.031 360.323)" fill="none" stroke-linecap="round" stroke-linejoin="round" stroke-width="1.586" style="stroke: rgb(8, 156, 180);"/>
          <path id="path-2" data-name="Path 388" d="M-322.864-138.372c-6.55,28.79-8.8,47.825-5.688,76.1a101.576,101.576,0,0,0-23.484-2.11" transform="translate(371.708 359.707)" fill="none" stroke-linecap="round" stroke-linejoin="round" stroke-width="1.586" style="stroke: rgb(8, 156, 180);"/>
          <path id="path-3" data-name="Path 389" d="M-329.531-159.384A75.064,75.064,0,0,1-354.778-175.9c-1.677-1.623-3.525-3.564-5.371-5.635-2.97-3.332-5.854-7.661-4.6-11.945.8-2.719,3.1-4.7,5.375-6.388a83.013,83.013,0,0,1,34-14.892" transform="translate(198.911 -176.662) rotate(-90)" fill="none" stroke-linecap="round" stroke-linejoin="round" stroke-width="1.93" style="stroke: rgb(8, 156, 180);"/>
          <path id="Path_1253" data-name="Path 1253" d="M-329.531-214.764a76.243,76.243,0,0,0-25.248,14.914c-1.677,1.465-3.525,3.217-5.371,5.087-2.97,3.008-5.854,6.916-4.6,10.783.8,2.455,3.1,4.24,5.375,5.767a87.722,87.722,0,0,0,34,13.444" transform="translate(323.291 -170.662) rotate(-90)" fill="none" stroke-linecap="round" stroke-linejoin="round" stroke-width="1.93" style="stroke: rgb(8, 156, 180);"/>
          <path id="path-4" data-name="Path 391" d="M-346.713-115.077c-.2,3.613.035,7.381,1.719,10.584,2.323,4.421,6.976,7.045,11.459,9.249,11.347,5.581,23.706,10.14,36.323,9.29s25.475-8.283,29.412-20.3c1.725-5.262,1.655-10.918,1.568-16.455l-.735-46.789c-.311-19.889-.71-44.821-17.95-58.315-11.917-9.328-22.383-7.24-29.638,5.475-7.806,13.683-9.287,31.352-13.356,46.337C-333.358-155.935-345.555-136.014-346.713-115.077Z" transform="translate(374.401 310.997)" fill="none" stroke-miterlimit="10" stroke-width="4.503" style="stroke: rgb(8, 156, 180);"/>
        </g>
      </g>
      <g id="Group_850" data-name="Group 850" transform="translate(-22013 23729)">
        <g id="Group_849" data-name="Group 849" transform="translate(0 0)" clip-path="url(#clip-1)">
          <path id="Path_1239" data-name="Path 1239" d="M37.934,59.53a4.078,4.078,0,0,1-.982-.449A.134.134,0,0,0,37,59.007c.006-.042-.085-.032-.164,0-1.221-.777-2.323-2.06-3.312-2.49-.018.014-.037.026-.065.044l-.063-.074a1.093,1.093,0,0,0-.907-.038c.174-.073.35-.146.524-.216a.835.835,0,0,0-.908.366c-.061-.03-.12-.058-.176-.082-.077-.129-.192-.223-.3-.084-.278-.019-.375.218-.123.906,1.131,3.067,5.385,6.04,8.624,6.175.91.04,2.468-.752,3.983-1.849q.359-.26.707-.538c.1.1.138.009.143-.112,2.549-2.06,4.583-4.726,2.552-5.279-1.016-.277-2.025,1.47-3.34,3.094-.069-.027-.086.023-.074.091a7.679,7.679,0,0,1-2.416,2.115,6.24,6.24,0,0,0-.911.145c.436-.733-.48-.227-.9.2l-.093-.013a7.332,7.332,0,0,0-.9-.667c-.034,0,.672.113.326-.2.047.041-1.037-.776-1.27-.973m-3.8-1.389c-.026-.024-.053-.047-.081-.07.061-.063.089,0,.081.07m1.827,1.466c-.025-.018-.053-.035-.078-.055a.694.694,0,0,1,.184-.149.614.614,0,0,1-.106.2m-.172-.168-.038.022c-.014-.012-.029-.022-.043-.033.038-.014.073-.018.081.01m-.169-.32c-.106.076-.01-.111,0,0M34.551,57.8c-.737.471.246-.571,0,0m-.255-.2c-.459.512-.151.058-.114.03.067-.052.1-.065.114-.03m-.233-.27c.208-.011-.5,1.011,0,0m-1.59-.7c0,.013.175.2.012.2-.049-.032-.095-.06-.141-.089a.791.791,0,0,1,.129-.113" transform="translate(-6.336 -11.256)" fill="#009cb2" style="stroke: rgb(8, 156, 180);"/>
          <path id="Path_1240" data-name="Path 1240" d="M25.615,41.635a1.433,1.433,0,0,0,.088-.121c.446-.427.9-.895,1.339-1.388.778-.623,1.375-1.134,1.27-1.225a5.165,5.165,0,0,1-.526.348c.215-.27.427-.544.63-.825.444-.35.83-.646.871-.669a3.063,3.063,0,0,0,.447-1.465c.037-.074.07-.145.1-.217a3.65,3.65,0,0,0,.759-1.878,1.558,1.558,0,0,1,.091.671,12.922,12.922,0,0,0,.326-4.25c.075.239.151.476.223.715.555-.041-2.151-3.8-1.945-3.7-.359.336-.885.1-.077-.03-1.865-.632-4.091.857-5.774,1.637a11.717,11.717,0,0,0-2.866,2.427c.024,0,.063.038.134.144l-.113.155a.969.969,0,0,1-.044-.268,2.878,2.878,0,0,0-.326.526,6.275,6.275,0,0,0-1.614-2,2.312,2.312,0,0,0,.542.039.671.671,0,0,0-.7-.157,5.732,5.732,0,0,0-2.394-1.084C15.118,28.336,14.3,27.817,14.2,28c.15-.065,1.064.63,1.3.828-.318-.191-2.784-.654-3.576.157-.571.584-.272.919.259,1.038a3.555,3.555,0,0,0-.427.508c0-.124-.026-.223-.121-.257a3.3,3.3,0,0,0-.548,1.922,1.8,1.8,0,0,1-.185-.642,11.364,11.364,0,0,0,.235,3.831,19.031,19.031,0,0,1,.956,2.842c.393-.143.677.149.022.047.294.271.77.706,1.345,1.216-.057.01-.1.034-.114.083s.182.109.29.073a28.215,28.215,0,0,0,5.185,3.843l.052-.046.142.092-.049.019c.634.269,1.1.293,1.274-.085a1.158,1.158,0,0,0-.022.636c.126-.289.2-.41.235-.37,0-.082,0-.166,0-.248.528.166.812.185.633-.051.117-.09.233-.18.352-.273-.733,1.137-.8,1.927,1.128.793a5.568,5.568,0,0,0,2.11-1.323.866.866,0,0,0-.147-.066c.224-.186.456-.389.691-.6a.312.312,0,0,0-.053.118c.02-.039.03-.081.053-.118a3.31,3.31,0,0,1,.4-.329m5.053-9.6c0-.014,0-.027-.006-.041l.04,0c0,.01-.015.027-.034.046m-.152-1.12c.21.219-.692-.656,0,0m-4.38-2.387-.077.013a.477.477,0,0,1,.026-.1c.029.026.033.058.051.088m-3.351,1.312a.565.565,0,0,1,.016.219.461.461,0,0,1-.048.034c-.156-.024-.377-.431.032-.253m-.4.362c.045.05.073.086.1.12-.025.021-.049.043-.074.063a.291.291,0,0,1-.04-.039c-.041-.078-.035-.128.014-.144m-.269.436c-.045.042-.092.082-.135.124-.019-.057-.038-.119-.062-.191.04-.424.106-.235.2.066M14.9,28.921a4.759,4.759,0,0,0-.83.1c.17-.3.472-.281.83-.1m-1.385.267c-.024.01-.046.02-.071.028-.08-.132.066-.1.071-.028m-.412-.514c-.006-.022,0-.041.041,0,0,.01-.365.637-.758.472a.71.71,0,0,1,.717-.469m-.563.847c.125.112-.264.093-.321.075-.126-.359.008-.393.321-.075m-.413.168c-.026-.022,0-.017.152.075.026.046.045.085.061.118-.032.027-.064.053-.093.082-.14-.118-.314-.349-.12-.275m-.719,1.395c.037-.068-.042-.22.163-.265-.045.077-.088.156-.128.236-.04.058-.069.089-.035.029m5.445,10.853.157.078c-.081.076-.165.087-.157-.078m.822.545c-.344.017-.283-.024-.034-.161l.176.082c-.045.026-.089.052-.141.079" transform="translate(-2.189 -5.545)" fill="#009cb2" style="stroke: rgb(8, 156, 180);"/>
          <path id="Path_1241" data-name="Path 1241" d="M48.687,35.809c-.06-.118-.138-.223-.207-.336a19.1,19.1,0,0,1,1.072,2.647c.354-.108.572.128,0,.063.117.122.658.606,1.319,1.154-.049.016-.093.039-.1.086s.175.1.282.065A10.974,10.974,0,0,0,53.73,41.3l.227.173c-.267.867.945,1.6,2.067,1.9-.019-.018,0-.059.129-.156l.161.1a1.111,1.111,0,0,1-.251.062c.913.235,1.743.187,1.624-.308a.659.659,0,0,0,.477.393A1.043,1.043,0,0,1,58,43.05c.034-.034.1,0,.239.118,0,0-.053-.064-.122-.15a.766.766,0,0,0,.152-.078l.3-.2c.006.016.01.03.018.05.225.455,2.315-1.128,2.249-1.221a.411.411,0,0,0-.611.063.633.633,0,0,1,.063-.1c.47-.346.961-.724,1.458-1.128-.056.12-.1.248-.072.239a1.526,1.526,0,0,0,.188-.334c.626-.517,1.257-1.074,1.855-1.662.282-.236.452-.4.452-.463,2.158-2.267,3.679-4.931,2.563-7.449-.01-.082-.022-.158-.037-.224.067.219.136.439.21.659.349-.02-1.741-3.657-1.554-3.535-.373.285-.879.061-.073-.032-.714-.28-6.058.267-5.781,1.768-.7-.658-1.93.641-2.419,1.831-.153-.76-1.2-2.311-1.42-2.1a.658.658,0,0,0-.045.246,8.525,8.525,0,0,0-1.721-.958c.061.026.566.073.526.033-.014-.034-.6-.125-.535-.038-.11-.043-.215-.075-.32-.109.156-.693-1.992-.535-2.778-.446a7.208,7.208,0,0,1,.9.236,3.325,3.325,0,0,0-.446.1,6.183,6.183,0,0,0-2.647.921c-.637.729-.136,1.025.552,1.026a5.751,5.751,0,0,0-.422,1.3c-.39-.413,0-.934-.329-1.028a3.642,3.642,0,0,0-.283,1.976,1.746,1.746,0,0,1-.281-.585,11.987,11.987,0,0,0,.859,4.038m-.061-1.447c-.006-.015.029-.061.071-.109,0,.026.007.049.011.075-.026.012-.051.022-.082.034m12.3-3.476a5.358,5.358,0,0,1,.992-.5,3.562,3.562,0,0,1,.885-.208,14.042,14.042,0,0,0-1.877.709M54.228,41.671l.118.086c-.068.046-.121.034-.118-.086m.6.417.145.1c-.27,0-.278-.026-.145-.1m2.352.748c.027-.008.057-.014.082-.022a1.12,1.12,0,0,0,.148.116.466.466,0,0,1-.23-.093m5.574-14.394a.675.675,0,0,1-.08.008c-.006-.028-.013-.052-.019-.091Zm-.519-.2a.378.378,0,0,1,.1.267l-.117.024a.428.428,0,0,1,.014-.291M62,28.511l-.02.084c-.026.006-.053.012-.077.019.016-.058.049-.11.1-.1m-.505.019c-.007.137-.14-.033,0,0m-2.337,1c.186.743-.578-.259,0,0m-.364.343a1.952,1.952,0,0,1,.172.208l-.047.036a.811.811,0,0,1-.131-.1c-.041-.078-.041-.127.006-.141m-.208.5c-.041.034-.083.069-.123.1-.03-.07-.06-.15-.1-.248,0-.471.126-.125.22.144M57.265,31.4l-.1.152c-.026-.065-.18-.513.1-.152m-3.828-3.164a.447.447,0,0,0-.045-.018c.02,0,.038,0,.045.018m-3.745.476c-.033.16-.28.633-.634.51a.688.688,0,0,1,.634-.51m-.452.875c.136.106-.264.1-.314.087-.153-.351-.011-.382.314-.087m-.4.181c-.026-.018,0-.014.158.069.424.661-.526-.186-.158-.069m-.448,1.159c-.01.085-.189.436-.139.29.031-.074-.077-.222.139-.29" transform="translate(-9.664 -5.562)" fill="#009cb2" style="stroke: rgb(8, 156, 180);"/>
          <path id="Path_1242" data-name="Path 1242" d="M59.307,14.756A28.408,28.408,0,0,0,45.277,2.872,45.7,45.7,0,0,0,36.106.235c-.478-.086-2.923-.8-2.608.778.105.527,1.467.867,2.845,1.1a32.867,32.867,0,0,0,4.635,1.92c1.76.259,2.809,1.379,5.286,1.329.089,0,.116-.03.1-.07q1.236.649,2.4,1.4c-.409.537.662.906,1.736,1.2.454.34.9.692,1.329,1.053-.126.064-.235.111-.235.111A8.775,8.775,0,0,0,53.75,10.7q1.039,1.025,1.973,2.144c-.242.907,1.076,1.9,1.556,2.317.662-.136,1.538,7.119,3.515,6.427.575,1.091-.123,1.927.261,3.345.35-.77.6-.228.894.015.014.053.03.1.043.157-1.16.417-.034,1.9-.14,2.889q.31-.306.618-.612c.06.346.112.693.161,1.045a1.272,1.272,0,0,0-.759-.211,18.116,18.116,0,0,1,.271,2.3.622.622,0,0,1,.709-.067c.009.128.015.259.021.389a1.1,1.1,0,0,1-.691.01q-.876,2.959.634,1.9a.564.564,0,0,0,.117,0q0,.492-.013.987a5.706,5.706,0,0,0-.65-.391c-.045.672-.665,2.812.522,2.485,0,.014,0,.03,0,.045a1.389,1.389,0,0,0-.25,1.972q-.126.791-.288,1.57c-.726.2-1.42.524-.87,1.641a.951.951,0,0,1,.579-.367c-.182.727-.381,1.445-.61,2.152a10.6,10.6,0,0,0-1.9,3.273c.2.095.37.172.529.243-.065.14-.128.279-.195.419-.063-.038-.12-.078-.192-.118a3.8,3.8,0,0,1-.079.668c-.256.51-.519,1.011-.8,1.5a3.647,3.647,0,0,1-.7.543,1.748,1.748,0,0,0,.361.035c-.282.472-.575.934-.883,1.389a1.391,1.391,0,0,0-.269-.531c-.729,1.079-1.381,2.34-2.146,3.381a2.048,2.048,0,0,0-.243.579q-.81.9-1.69,1.734a5.8,5.8,0,0,1,.282-.623,27.438,27.438,0,0,1-6.277,4.673,2.246,2.246,0,0,0,.168.247c-.187.1-.376.205-.565.3-.746.394-1.511.752-2.294,1.081a2.816,2.816,0,0,0-1.694.651q-.588.2-1.188.375c-.024-.106-.041-.212-.073-.318-.651.185-2.119.507-2.329.625a1.427,1.427,0,0,0,.2.237c-.288.061-.579.12-.871.172a12.283,12.283,0,0,0-2.3-.1c.3.066.436.189.43.361-.211.022-.417.052-.628.068a28.492,28.492,0,0,1-3.246.084,1.714,1.714,0,0,1,.052-.2,7.99,7.99,0,0,1-1.846-.341.892.892,0,0,1,.2.454,30.67,30.67,0,0,1-3.478-.5,11.448,11.448,0,0,0-3.879-1.04c-.385-.131-.762-.269-1.142-.411-.288-.8-.869-1.469-1.657-.689-.271-.12-.539-.237-.805-.365-.957-.846-2.557-2.079-3.275-1.82-.259-.143-.476-.284-.693-.428-.787-.643-1.964-1.8-2.2-2.032a2.518,2.518,0,0,0-1.53-.819c-.347-.306-.686-.618-1.022-.938.136-.1-.177-.36-.684-.672a32.816,32.816,0,0,1-2.641-3.023c.2-.1.409-.018.558.452.737-.454.078-.616-.718-.659-.282-.369-.552-.742-.818-1.122a2.087,2.087,0,0,1,.691.287,4.442,4.442,0,0,0-1.2-1.047,31.276,31.276,0,0,1-2.611-4.888c-.226-.542-.428-1.083-.616-1.629C3.21,41.319,3,40.229,2.635,39.022c-.128-.474-.256-1.628-.493-2.429a28.9,28.9,0,0,1,.493-8.987c.147-.338.282-.528.39-.479a13.82,13.82,0,0,1,.081-1.454,37.746,37.746,0,0,1,3.742-8.851c.46-.7.94-1.416,1.432-2.159-.04.01-.063.006-.1.014.1-.142.184-.287.282-.428,0,.053,0,.107,0,.17a23.594,23.594,0,0,1,3.92-4.221,2.243,2.243,0,0,1-.451-.136c.133-.136.263-.282.4-.416.657.176,1.045-.267,2.329-1.3S17,7.172,16.335,6.436c.161-.105.317-.217.479-.319.073.139.15.288.235.452,1.248-.957,2.308-1.242,2.8-2.083.2-.093.407-.181.611-.269a.4.4,0,0,1,.022.333c.289-.144.577-.289.865-.43-.063-.065-.125-.129-.188-.192.136-.055.274-.11.413-.163A1.238,1.238,0,0,1,21.585,4C25.1,2.508,28.9,2.7,32.255,1.178c.412-.2.079-.385-.544-.548.516-.168.855-.283.82-.282-.526.027-1.049.07-1.569.12A26.415,26.415,0,0,0,27.8.1a6.6,6.6,0,0,0-2.4.546h1.053c-.58.456-.988.539-1.229.261a.681.681,0,0,1-.089-.132c-.915.468-1.574,1.093-2.595,1.621-.459.169-.911.35-1.361.539-.062.021-.121.041-.188.059a4.23,4.23,0,0,1-.426.205c.347-.414-.507-.2-.258-.81a32.228,32.228,0,0,0-4.437,2.446c.509-.22,1.016-.441,1.524-.664-1.471.736-6.3,2.962-6.665,4.573.269.174.5.326.7.452-.1.093-.2.186-.3.281a2.723,2.723,0,0,1-.42-.655c-1.146,2.038-2.557,1.748-3.462,4.374-.095.274-.347.845-.675,1.517a35.767,35.767,0,0,0-2.315,3.739.759.759,0,0,1-.25.163c-.882.3-3.766,8.466-3.251,9.324-.027-.041.048-.195.159-.4A29.488,29.488,0,0,0,.4,31.277c-.081.335-.144.584-.168.681A17.534,17.534,0,0,0,.55,38.9a1.519,1.519,0,0,0,.278-.246,30.563,30.563,0,0,0,1.421,5.143,8.924,8.924,0,0,0,.882,2.135q.632,1.376,1.388,2.7c.391,1.45,1.973,3.266,3.022,4.387a34.748,34.748,0,0,0,3.829,4.018,6.686,6.686,0,0,1,.611,1.052c.653,1.526,1.89,1.217,2.944,1.752.861.594,1.748,1.157,2.668,1.679,11.375,6.471,26.346,5.14,36.159-3.616,12.371-11.039,13.526-29.27,5.555-43.144M22.6,3.561c-.064-.045-.109-.079-.162-.123l.181-.064c.011.127.083.247-.019.187m-3.851.475c-.31.053-.166.1-.066.067-.2.105-.406.211-.606.322a2.805,2.805,0,0,1-.553-.274l1.226-.114M15.477,5.745c.353-.262.6-.323.792-.256-.2.127-.4.261-.6.393-.065-.045-.121-.089-.193-.136m42.95,11.935c.154-.232.26-.389.339-.5.107.182.214.365.316.549a1.365,1.365,0,0,0-.655-.049M55.938,52.785a3.815,3.815,0,0,1,.453-.441c-.108.141-.224.281-.336.423-.039,0-.075.01-.117.018" transform="translate(0 0)" fill="#009cb2" style="stroke: rgb(8, 156, 180);"/>
        </g>
      </g>
      <g id="Group_852" data-name="Group 852" transform="translate(-21961 23675)">
        <g id="Group_851" data-name="Group 851" transform="translate(0 0)" clip-path="url(#clip-path-2)">
          <path id="Path_1245" data-name="Path 1245" d="M25.227,21.925a.84.84,0,0,0-.591-.331c.023-.072.047-.146.071-.23a2.223,2.223,0,0,0-.358.226,2.052,2.052,0,0,0-.309.046c.037-.136.448-.093.291-.346-.2-.306-.6.069-.833.068-.381,0,.237.282.2.27a.35.35,0,0,1-.02.109,5.48,5.48,0,0,0-.552.224c.006-.046.009-.089,0-.091a.567.567,0,0,0-.039.112A14.881,14.881,0,0,0,20.828,23.4c-.059-.111-.164-.2-.3-.04a.491.491,0,0,0-.011.268q-.137.1-.269.207c-.138-.061-.27-.132-.27-.132.164.3-.777.285-1,.21-.038-.019-.047-.026-.045-.035a1.733,1.733,0,0,1-.392.331.183.183,0,0,0-.032-.06c-.02-.021-.03.032-.025.095-.593.36-1.387.534-1.789.867,0,.02.005.035.008.06l-.049.014s0-.023,0-.04a.6.6,0,0,0-.184.66c-.429-1.1.111.455-.211-.226.226.48.281.942.568,1.044-.078-.028.153-.169.5-.341a11.544,11.544,0,0,1-1.24,1.055c1.844,1.159,10.8-3.175,9.135-5.412m-8.564,4.022c-.008.117-.039.086-.09-.095,0,0,.148-.076.09.095m.834-.915c.11.714-.239-.392,0,0m-.061.659c.01.026.095.345,0,0m-.078-.586c.169.492,0,.116-.006.082-.011-.063-.01-.09.006-.082m-.169.029c.065-.2.442.8.028.05.01.017-.028-.05-.028-.05m.142.563c-.011.033.028.167-.039.021Zm.078.519a.137.137,0,0,1-.085-.1c.02,0,.13-.011.233-.032l-.148.13m.174-.689c-.108-.2.008-.132.05-.05Zm.124.336c-.009.047-.033-.124.006-.1Zm.135-.353c-.016-.174,0-.183.044-.029s0,.094-.044.029m.248-.282a.23.23,0,0,1,.058.154c-.039-.017-.059-.068-.058-.154m.252-.236c.019.093-.059-.044,0,0m.19.038.02.137c-.01.1-.07-.161-.02-.137m.139.087a.47.47,0,0,1-.112-.264.551.551,0,0,1,.112.264m.107-.088c-.014-.025-.026-.052-.045-.091,0,0,.07.065.045.091" transform="translate(-3.977 -5.231)" fill="#009cb2" style="stroke: rgb(8, 156, 180);"/>
          <path id="Path_1246" data-name="Path 1246" d="M57.494,20.012C55.4,13.883,51.95,8.486,46.414,4.964a33.277,33.277,0,0,0-8.4-3.734,46.236,46.236,0,0,0-4.586-1.1c-1-.19-3.768.909-1.966,1.2.508.083,1.012.177,1.509.276A40.692,40.692,0,0,0,37.887,3.7c1.589.245,2.567,1.253,4.732,1.281q1.24.655,2.4,1.4c-.143.376.524.66,1.3.9.517.377,1.022.769,1.511,1.176-.059.026-.107.044-.115.047a6.18,6.18,0,0,0,1.7,1.375,27.405,27.405,0,0,1,2.094,2.26c-.2.852,1.013,1.736,1.422,2.152.641-.117,1.359,6.673,3.221,6.039.518,1.012-.108,1.812.216,3.125.547-.287.5-.036.776.072.009.04.02.08.029.12-.973.41.016,1.777-.079,2.674.172-.168.344-.338.516-.506.049.289.1.58.137.873a1.2,1.2,0,0,0-.635-.16,17.7,17.7,0,0,1,.246,2.154.621.621,0,0,1,.606-.093c.012.135.027.269.037.4a1.046,1.046,0,0,1-.608,0q-.822,2.77.59,1.779a.464.464,0,0,0,.1,0c0,.308.008.616,0,.924a5.071,5.071,0,0,0-.611-.366c-.039.626-.622,2.653.507,2.318a1.337,1.337,0,0,0-.219,1.917c-.072.48-.153.957-.248,1.432-.684.19-1.357.482-.837,1.548a.908.908,0,0,1,.573-.352c-.161.671-.351,1.332-.555,1.988a9.777,9.777,0,0,0-1.78,3.11c.2.09.362.164.516.23-.058.131-.119.262-.18.394-.06-.038-.12-.075-.19-.114a3.541,3.541,0,0,1-.087.708q-.315.64-.657,1.263a3.319,3.319,0,0,1-.7.586,1.809,1.809,0,0,0,.352.026c-.259.449-.527.892-.81,1.327a1.3,1.3,0,0,0-.267-.5c-.928,1.356-1.6,3.021-2.826,4.141a1.21,1.21,0,0,1,.083.24q-.463.5-.95.986a2.2,2.2,0,0,0,.218-.58,22.308,22.308,0,0,1-5.775,4.467,2.233,2.233,0,0,0,.169.242c-.178.1-.355.2-.535.3-.678.37-1.369.71-2.078,1.017a2.637,2.637,0,0,0-1.634.644c-.358.126-.72.242-1.086.353-.026-.1-.044-.2-.073-.306-.651.266-1.962.477-2.167.605a1.3,1.3,0,0,0,.2.225c-.273.057-.544.111-.819.16a11.121,11.121,0,0,0-2.147-.084c.276.06.4.172.4.33a26.727,26.727,0,0,1-3.608.137,1.191,1.191,0,0,1,.044-.167,7.324,7.324,0,0,1-1.722-.321.822.822,0,0,1,.181.4,27.722,27.722,0,0,1-3.284-.482,11.132,11.132,0,0,0-3.514-.97c-.382-.132-.76-.271-1.136-.418-.251-.742-.765-1.351-1.507-.638-.26-.12-.516-.242-.772-.367-.882-.8-2.365-1.939-3.019-1.711-.236-.149-.462-.3-.69-.458-.725-.622-1.766-1.675-1.979-1.882a2.376,2.376,0,0,0-1.366-.751c-.335-.3-.662-.614-.984-.932.1-.091-.163-.319-.59-.6a30.993,30.993,0,0,1-2.459-2.9c.188-.081.373.007.5.435.684-.406.091-.569-.641-.623-.254-.348-.5-.7-.747-1.059a2.05,2.05,0,0,1,.623.276,3.842,3.842,0,0,0-1.058-.946c-.542-.855-1.048-1.736-1.5-2.646-.366-.732-.68-1.474-.971-2.218C3.24,38.52,2.877,35.227,2,34.019a28.222,28.222,0,0,1,.435-8.005c.139-.337.267-.532.372-.486a23.482,23.482,0,0,1,.548-3.088,30.341,30.341,0,0,1,1.964-4.833c.6-1.152,1.377-2.344,2.265-3.774a.67.67,0,0,1-.135.023c.1-.147.2-.292.3-.438a1.723,1.723,0,0,1,.005.182,20.36,20.36,0,0,1,3.6-4,2.147,2.147,0,0,1-.431-.123c.147-.154.3-.3.451-.452.8.132,1.241-.483,2.577-1.6,1.01-.843,1.755-.833,1.071-1.421.136-.093.264-.194.4-.283l.23.421c1.063-.824,2.2-1.157,2.61-1.983.18-.084.361-.168.543-.248a.372.372,0,0,1,.019.3l.8-.407-.172-.172c.126-.052.251-.105.376-.155a1.158,1.158,0,0,1,.017.215c3.28-1.439,6.8-1.273,9.933-2.7.388-.19.076-.363-.507-.512.48-.16.8-.268.767-.267-.5.026-.985.068-1.473.117A24.1,24.1,0,0,0,25.618,0,6.436,6.436,0,0,0,23.35.528L24.363.519c-.539.431-.922.513-1.148.254a.609.609,0,0,1-.09-.135C22.2,1.11,21.569,1.754,20.447,2.3c-.3.117-.6.239-.893.366-.09.031-.175.063-.272.093a2.9,2.9,0,0,1-.41.21c.355-.413-.469-.186-.236-.769a29.168,29.168,0,0,0-4.113,2.342c.471-.21.943-.425,1.41-.644-1.349.692-5.832,2.865-6.155,4.367.25.159.471.289.67.4-.1.09-.2.179-.291.271a2.528,2.528,0,0,1-.4-.6c-1.06,2.057-2.392,1.82-3.246,4.391-.067.2-.221.557-.426.993a33.006,33.006,0,0,0-2.245,3.717.65.65,0,0,1-.2.133c-.8.28-3.435,7.935-2.955,8.729-.028-.045.075-.243.212-.495A28.522,28.522,0,0,0,.472,29c-.124.529-.218.928-.251,1.056A16.7,16.7,0,0,0,.5,36.53a1.338,1.338,0,0,0,.353-.344,29.809,29.809,0,0,0,.82,3.4c.008.033.014.066.021.1a.374.374,0,0,1,0-.041c.088.288.177.573.273.858l-.069.084A7.052,7.052,0,0,0,3.22,43.62q.4.847.845,1.672c.2,1.733,2.646,4.309,3.439,5.171a12.205,12.205,0,0,0,.833.915q.847.955,1.775,1.851a6.311,6.311,0,0,1,.827,1.347c.666,1.607,2.05,1.07,3.087,1.907-.053-.044-.095-.075-.145-.116a28.741,28.741,0,0,0,33.68-.2c11.164-8.329,14.3-23.355,9.934-36.152m-3.517-3.355c.139-.2.236-.348.312-.449.089.161.174.326.263.49a1.277,1.277,0,0,0-.574-.041M20.809,3.106c.014.116.075.22-.017.166-.058-.039-.1-.069-.142-.105.053-.019.106-.041.16-.06m-3.6.653c0,.017,0,.026-.005.041-.206.109-.41.218-.613.331a2.54,2.54,0,0,1-.529-.253l1.147-.119M14.913,5.151q-.28.182-.557.37c-.061-.042-.119-.081-.188-.126.331-.25.56-.308.745-.244m-14.384,29a.11.11,0,0,1,.041.086l-.041-.086m51.331,15.4-.122.02a4.327,4.327,0,0,1,.4-.391c-.092.124-.184.248-.276.371" transform="translate(0 0)" fill="#009cb2" style="stroke: rgb(8, 156, 180);"/>
          <path id="Path_1247" data-name="Path 1247" d="M50.378,21.795c0-.026.044-.005.122.044-.044.1-.013.276.133.555a10.594,10.594,0,0,0,4.823,4.471c1.11.54,7.414,1.391,4.1-.939-.058-.041-.123-.075-.184-.114a.2.2,0,0,0,.034-.05c.133-.35-.8-.658-.815-.614a.251.251,0,0,0,0,.224c-.1-.047-.19-.1-.291-.145.01,0,.013,0-.02-.038a.4.4,0,0,1-.177-.041c-.343-.145-.66-.267-.982-.383-.112-.075-.188-.112-.206-.075-.527-.189-1.059-.376-1.572-.589.1-.112.18-.3-.092-.352-.059-.011-.193.087-.311.178-.092-.042-.18-.089-.268-.133-.022-.172-.031-.362-.037-.352-.175.293-.663-.544-.722-.792-.006-.05,0-.062.007-.065a1.683,1.683,0,0,1-.5-.2.18.18,0,0,0,.038-.056c.011-.029-.044-.013-.1.02-.623-.382-1.167-1.071-1.666-1.32-.017.011-.031.022-.056.037l-.036-.044.042-.017a.587.587,0,0,0-.69.1c.8-.882-.358.3.106-.3-.334.431-.723.67-.682.992m1.436.289-.069-.029c.132-.187.121-.047.069.029m.34-.314c-.592.406.249-.4,0,0m-.126-.108c-.368.366-.1.05-.077.029.051-.04.075-.049.077-.029m-.105-.153c.211-.03-.55.794,0,0m-.489.343.04.027a.276.276,0,0,0-.069.034c-.009-.014,0-.032.029-.061m-.476-.632s.139.111-.044.127c-.11.041-.1,0,.044-.127" transform="translate(-12.45 -5.131)" fill="#009cb2" style="stroke: rgb(8, 156, 180);"/>
          <path id="Path_1248" data-name="Path 1248" d="M46.074,57.87a.575.575,0,0,0-.094.6c-.087-.187-.476-1.585-.915-2.929-.179-.09-.256-.3-.228-.62l.044.067c-.422-1.229-.851-2.259-1.086-2.033a4.387,4.387,0,0,1,.678,1.355c-.223.053-.86-1.092-1.708-1.922-.183-.073-.522-.254-.555-.464-.066-.043-.13-.08-.2-.116a.261.261,0,0,1-.08.165c-.064.081-.178-.2-.174-.23a.638.638,0,0,1,.125-.008,1.956,1.956,0,0,0-.229-.091c.006.02,0,.04-.034.12a.954.954,0,0,1-.218.049c-.028-.016-.051-.034-.078-.05a.407.407,0,0,1,.183-.158,1.386,1.386,0,0,0-.526-.034c-.173-.069-.367-.162-.572-.242a3.994,3.994,0,0,0,.581-.062,5.508,5.508,0,0,0-2.017-.546,2.323,2.323,0,0,1,.636-.05,14.451,14.451,0,0,0-4.064.045l.556-.159c-.042-.3-4.036,1.832-3.367.863A7.059,7.059,0,0,0,31.2,52.669c.028-.065.032-.122-.023-.118s-.195.248-.127.277a18.545,18.545,0,0,0-1.915,2.8,6.811,6.811,0,0,0-.335.865.228.228,0,0,1,.039-.022c.093.187-.023.229-.1.2-.072.219-.148.458-.222.708.032,0,.061.1-.014.154-.021,0-.02-.017-.021-.032a14.529,14.529,0,0,0-.4,1.691c.025.017,0,.2,0,.2s-.012-.025-.022-.044c-.1.746-.041,1.275.374,1.153-.794.476.214.068-.207.544q.273-.314.516-.65a.308.308,0,0,0,.085.4A7.418,7.418,0,0,1,29,59.85c.041.252.087.518.135.745-.014.087-.03.174-.043.263-.511.082-.733.218-.065.458.1.2.015.285-.248.25.006-.025.455.42.379.376a22.833,22.833,0,0,0,4.558.1c.053-.072-.684-.2-.131-.275.078,0,.154.006.234.008-.192.355,3.1.057,1.136.143.1-.043.189-.073.281-.108.9.016,1.82.02,2.735.011-.115.019-.219.054-.219.13,0,.4.434-.03.518-.132.909-.01,1.8-.032,2.63-.068.009.115.094.063.158-.008.722-.033,1.39-.078,1.979-.133a.208.208,0,0,1,.043.095.632.632,0,0,1,.023-.1q.473-.045.866-.1c-.333.4.126.419,1.386.067,0,0-.075-.014-.187-.033a2.936,2.936,0,0,0,.5-1.053c.111.52.233,1,.251,1.059-.033-.352-.138-.929-.175-1.436a1.2,1.2,0,0,0,.007-.257c0-.038-.011-.075-.016-.114a2.125,2.125,0,0,1,.022-.245.158.158,0,0,1-.054.007c0-.032-.01-.063-.014-.095l.067-.077a.153.153,0,0,1,.026.048.429.429,0,0,1,.118-.216,6.592,6.592,0,0,0,.191,1.583c.129.053.285-2.868-.017-2.871M28.494,60.233c0-.019,0-.519.1-.209.078.113.044.181-.1.209m.2-3.124a.087.087,0,0,1-.022-.12c.37.12.041.137.022.12m.153.815.026-.136c.008.065.106.1-.026.136m.183-.419a.209.209,0,0,1-.061-.026c.029-.083.061-.1.085-.087-.009.038-.014.076-.024.114m.056-.637c-.193.059-.038-.192.048-.2a1.789,1.789,0,0,0-.048.2m1.65-3.04,0,.155c-.056.168-.1-.086,0-.155m-.066,7.792c.013.054-.049.206,0,0m-.172-.038c-.037.018-.053.119-.078,0Zm-.168-7.405c.019.093-.109.072,0,0M29.273,61.43c-.068.056-.1.032-.093-.065l.038.013c.029.009.07.018.106.027a.231.231,0,0,1-.051.025m.206-5.314a.484.484,0,0,1-.048.025c-.056-.188-.028-.239.063-.157a.108.108,0,0,1,.027.044c-.014.03-.029.058-.042.087m.253-.549c-.1.032-.444.007,0,0m.081-.443c.069-.031.1-.005.1.072-.069.074-.1.051-.1-.072m.423,6.732a4.721,4.721,0,0,0,.641.1c-.2.046-.651.075-.641-.1m.632-8.344c.117,0,.164.058.161.172-.121.035-.178-.022-.161-.172m.138,8.322c-.044.029.02-.095.069-.065Zm11.679-9.092c.035-.149.194.154,0,.013.022.016.011-.033,0-.013M40.15,51.023c.078.032.225,0,.3.135-.09-.019-.446-.2-.3-.135m-3.311-.187c-.019,0-.036,0-.056,0a.063.063,0,0,1-.032-.044.222.222,0,0,1,.088.042m-5.515,2.538a.362.362,0,0,1-.079-.071l.124-.03a.52.52,0,0,1,0,.055c-.016.017-.031.029-.047.046m.131,8.288.062,0c-.02.043-.041.029-.062,0M42.463,56.3c.3,0,.322-.047.113-.209a8.3,8.3,0,0,1-.838.082c-.047-.007-.271-.03-.321-.026a.355.355,0,0,0,.151.037c-.208.011-.414.017-.589.017a2.927,2.927,0,0,0,.485-.16H40.8a2.029,2.029,0,0,1-.23.041.162.162,0,0,0,.02-.041h-.135c-.014.012-.022.016-.033.06l-.1.01a.4.4,0,0,0-.1-.07.358.358,0,0,0-.066,0,.244.244,0,0,0-.005.081c-.151.013-.315.023-.489.032a.62.62,0,0,0-.215.011c-.541.022-1.1.027-1.43.007.236.053.474.106.716.136,0,0-.708-.031-1.539-.065.075-.024-.233-.09-.513-.024a.454.454,0,0,1,.048.006,15.558,15.558,0,0,0-2.1,0,.406.406,0,0,1,.4.13c-.036.18-2-.166-1.99-.19a3.93,3.93,0,0,1,1.12-.044.26.26,0,0,0-.129-.081,1.658,1.658,0,0,0-.214.009c.053.01.009.01-.12-.009-.406,0-.81,0-1.2-.024.065-.1.135-.185.2-.281a1.828,1.828,0,0,0-.285.153,5.99,5.99,0,0,1,.54-1.042s.04-.041.035-.053c.524-.851,1.3-1.816,1.814-1.363.334-1.1,3.508-.715,4.191-.469-.768.046,2.061,1.3,1.967,1.406q-.256-.157-.507-.325a12.609,12.609,0,0,1,2.489,2.27c-.162,0-.323,0-.485-.012m1.762,5.235-.023-.065.041-.008a.392.392,0,0,1-.017.072m.19-.014c-.024-.018-.053-.044-.09-.074.175-.032.335-.063.472-.1a.963.963,0,0,0,.031.139c-.27-.035-.518-.05-.413.035m.012-6.361c.056.049-.119-.248-.12-.226A8.8,8.8,0,0,0,43,53.1c1.187.468,2.375,3.492,2.374,4.016,0,.078-.062.112-.135.134a11.987,11.987,0,0,0-.815-2.091m1.142,3.49c-.009-.048-.019-.095-.029-.143a.479.479,0,0,0,0-.134,2.183,2.183,0,0,1-.09-.343.133.133,0,0,0,.047,0c0-.021-.005-.041-.008-.06a.072.072,0,0,0-.053,0c-.034-.155-.079-.306-.121-.46.061.008.114.017.116.033.008.039.032.215.059.428.034.016.047.051.008.06.015.11.029.225.043.34.029,0,.066.033.114.1a.087.087,0,0,1-.1.045c.005.047.01.09.017.135" transform="translate(-6.925 -12.488)" fill="#009cb2" style="stroke: rgb(8, 156, 180);"/>
        </g>
      </g>
      <g id="Group_854" data-name="Group 854" transform="translate(-21870 23697)">
        <g id="Group_853" data-name="Group 853" transform="translate(0 0)" clip-path="url(#clip-2)">
          <path id="Path_1249" data-name="Path 1249" d="M27.915,19.307c-.519-.145-.517.3-.783.313-.419.027-.441.427-.03.413l-.261.246q-.267.465-.284.131c.092-.008-.228.372-.173.315-.167-.132-.331-.123-.327.115.006.471-.964.387-.63.712.036-.077.1-.1.2-.066-.267.273-.233.285-.556.262-.284-.02-.083.186-.246.274-.193.1-.1.343-.3.526-.326.3-.132.116-.5.429a.533.533,0,0,1,.021-.158c-.1.092-.246-.011-.168.214-.336-.206-.4,0-.281.3-.1.082-.191.16-.29.239-.055.042-.583.2-.6.228.069-.132.336-.255.091-.381-.161-.085-.22.217-.233.307-.038.243.107.3-.2.391a1.209,1.209,0,0,1-.5.03c.009.022-.134-.384-.22-.344.043.1.083.206.121.31-.048-.063-.069-.062-.067.006-.024-.1-.046-.2-.068-.3-.115.176-.033.57-.017.768a.185.185,0,0,0-.148-.189c-.078.04-.094.207-.122.277-.069.177-.438-.046-.576.1.044-.336-.16-.054-.247.028a.772.772,0,0,1-.509.279c-.014-.065-.1-.609-.306-.519-.224.1-.2.47-.209-.054-.06.111-.255.539-.466.454a1.557,1.557,0,0,0,.077-.344s-.17.261-.194.311c-.515-.14-.178.241-.492.443,0-.029.074-.368.032-.382s-.172.477-.154.415c.013-.1.023-.193.031-.29.043.349-.137.579-.053.951-.083-.1-.507.326.058.291-.019.03-.171.364-.009.379.18.017.161-.449.089-.353.049-.087,1.043.608,1.366.5a6.494,6.494,0,0,0,2.335-.269,11.171,11.171,0,0,0,4.034-2.149,16.943,16.943,0,0,0,3.539-3.439,1.273,1.273,0,0,0-1.769-1.722m-8.047,5.635c.008.051.014.1.021.151-.084.007-.119-.175-.021-.151M19,24.959l-.055-.017c.027-.051.175-.391.055.017m.606.058c.013.081-.017.112-.085.092.007-.019.077-.274.085-.092" transform="translate(-3.78 -4.004)" fill="#009cb2" style="stroke: rgb(8, 156, 180);"/>
          <path id="Path_1250" data-name="Path 1250" d="M60.158,24.751c-.038-.118-.077-.235-.117-.353.1.075.344-.422-.119-.265,0,0,.066-.4-.06-.369-.147.034-.048.466-.009.364-.119.477-.557.108-.706-.131-.48-.778-.957.366-1.543-.077a.22.22,0,0,0,.087-.214,5.507,5.507,0,0,1-.777.028.75.75,0,0,0,.17-.328c-.025.1-.375-.184-.457-.082-.251.322.419.026-.105.4-.067-.014-.061-.049.021-.1-.317-.11-.248-.238-.449-.491-.226-.286-.635-.129-.934-.112a1.181,1.181,0,0,1,.551.036c-.53.158-.958-.169-1.4-.413-.193-.1-.224-.436-.371-.4a.161.161,0,0,0,.09-.2c-.071-.025-.159.047-.224.066-.44.13-.727-.2-1.1-.477.059-.18.023-.336-.171-.392a1.377,1.377,0,0,1-.813-.461.3.3,0,0,0,.161-.219.458.458,0,0,0-.252.112c-.082-.091-.163-.186-.241-.282.168-.092.119-.4-.114-.134-.074-.1-.161-.363-.148-.277a2.645,2.645,0,0,0-.905-1.035,1.192,1.192,0,0,0-.626-.127c-.3.019-.353-.088-.637-.182.334.375-.64.83-.7,1.388-.085.852.843,1.8,1.381,2.378a11.9,11.9,0,0,0,4.467,2.828,13.629,13.629,0,0,0,3.914.866,5.234,5.234,0,0,0,2.069-.178c.764-.267.993-.855.063-1.164m-.2-.055-.072-.015c.035-.091.058-.089.072.015m-.829-.5c-.038,0-.331-.11-.47-.123.162-.053.5-.181.47.123m-.544-.1h0m-.054.17c.041-.047-.04.165-.071.109Zm.258.183c-.015.075-.042-.013,0,0,0,.009-.008,0,0,0" transform="translate(-10.111 -3.904)" fill="#009cb2" style="stroke: rgb(8, 156, 180);"/>
          <path id="Path_1251" data-name="Path 1251" d="M57.288,13.853A29.757,29.757,0,0,0,39.9.748,22.606,22.606,0,0,0,34.537.039a21.117,21.117,0,0,0-2.879.172c-.443.058-.8-.234-1.284-.209-.432.023-.849.148-1.28.179-.127.2-1.649.093-1.827.095-.566.006-1.13-.017-1.7.021-.123,0-.565.408-.4.529a3.2,3.2,0,0,0-1.081.667c-.385.281-.836.447-1.207.751-.251.207-2.344,1.236-1.949.261a3.236,3.236,0,0,0-1.372.943c-.417.609-1.543.183-2.194.411-.274.09-1.473.8-.98,1.154.164.115,1.217-.642,1.559-.679a12.771,12.771,0,0,0-2.821,1.945.356.356,0,0,1-.565-.029c-.184-.19-.492.088-.628.2-.394.33-.877.524-.854,1.113-.313-.437-.727.152-1.028.4-.185.153-.4.269-.591.413-.481.36-.458.5.033.791-.33.3-.285.1-.471-.208a5.686,5.686,0,0,1-.877,1.481c-.149.149-.3.3-.442.448a.426.426,0,0,1-.307-.448,15.383,15.383,0,0,0-1.768,2.019c-.458.741-.655,1.553-1.178,2.263-.489.664-1.021,1.252-1.551,1.881a7.372,7.372,0,0,0-.774,1.066,6.312,6.312,0,0,1-.357.843c-.173.212-.406.22-.549.5s-.256.549-.391.819a9.831,9.831,0,0,0-.677,2.4,7.344,7.344,0,0,1-.935,2.243c-.232.374-.779,1.111-.206,1.381-.3-.064-.689,1.07-.76,1.3-.092.3.492,2.444-.1,2.28-.09.7-.12,1.405-.15,2.111a1.451,1.451,0,0,0,.136.617c-.008.3-.146.53-.135.8a30.881,30.881,0,0,0,.586,5.287A34.691,34.691,0,0,0,4.578,48.7c-.034.443.565,1.023.786,1.376.206.292.439.567.62.831-.089.457,1.2,1.744,1.494,2.129a23.889,23.889,0,0,0,2.268,2.521c.64.619,1.319,1.2,1.967,1.8.716.57.915,1.466,1.538,2.086.262.262.712,1.336,1.121.726.111.064,2.271,1.213,2.183.772-.039-.2-1.162-.722-1.347-.887.532.356,1.077.692,1.629,1.016.448.262.657.73,1.144.966a4.494,4.494,0,0,0,1.526.439c.735.342,1.484.651,2.224.975a25.494,25.494,0,0,0,6.274,1.627,31.639,31.639,0,0,0,12.96-.606A28.847,28.847,0,0,0,60.4,47.238a37.173,37.173,0,0,0-3.112-33.385m3.337,23.482c.173-.179.334-.433.587-.512a10.043,10.043,0,0,1-1.049,3.919c-.221.35-.27-.095-.383.466-.053.262-.122.518-.194.775-.188.689-.375.766.4.962-.1.346.008.506-.372.364a3,3,0,0,1-.363,1.946c-.7-1.492-2.768-1.559-4.028-2.33-1.964-1.206-.5-3.84-1.307-5.658-.507-1.149-1.68-1.479-2.486-2.342a3.506,3.506,0,0,1-.845-2.813,1.342,1.342,0,0,0,1.168-2c-.073-.165-.761-.926-.927-.629-.164-.028-.2-.151-.345-.228-.073-.04-.18.2-.367.2.036-.068.13-.413.213-.438a.621.621,0,0,0-.271.288c-.121.263-.418.145-.678.141a2.611,2.611,0,0,0-1.166-.017c-1.1-.017-2.169-.015-3.252.056.1-.049-.147-.349-.426.033-.3.024-.534.111-.8-.038,0,.017.055-.408-.051-.406-.009.112-.019.224-.032.333-.017-.074-.041-.082-.069-.021.023-.1.05-.2.079-.306-.19.1-.192.553-.371.581a3.46,3.46,0,0,0-.943.03c.154-.339-.2-.057-.289,0-.108.066-.194.234-.321.176-.175-.08-.266-.073-.287.165-.028-.148-.1-.628-.346-.624-.338,0-.276.571-.379,0-.089.153-.25.59-.507.554a1.085,1.085,0,0,0-.027-.35,1.3,1.3,0,0,0-.126.371c-.5.077-.366.327-.271.768-.032-.113-.1-.459-.212-.519-.045-.024.089.566.059.438-.037-.092-.078-.185-.121-.276.105.305.234.345.055.621a.656.656,0,0,0,.025.738c.459.627,1.99.543,2.673.535-.009.009-.391.368-.135.361-.014.036.209.98-.143.658-.053.188.135.266-.028.372-.078.051-.474.373-.123.384.052,0,.105-.219.119-.229-.081.2-.278.808-.176.863-.165-.027-.285.393.215.336.035.313-.568-.179-.215.222.07.081.228.364-.078.218.087.383.391.529.487.876a1.9,1.9,0,0,0,.349.7c.149.147.726.676.8.606-.185.225.362.333.292.209-.025-.046-.225-.261-.262-.237.178-.157.515.574.553.6.1.074.677.416.673.4a.58.58,0,0,0,.2.348.326.326,0,0,0,.089-.271c.274.288.239.48.36.845a2.281,2.281,0,0,1,.011,1.5c-.033.141-.076.611-.237.662.042-.014-.227.13-.22.15s.116.4.108.414a.272.272,0,0,1,.051-.129c-.074.263-.3.251-.274.557.017.172-.034.191-.12.326s.06.206.149.247a1.535,1.535,0,0,0-.026.456c-.184-.119-.22.232-.142.241.145-.246.353.569.495.758a.274.274,0,0,1-.194.071,2.728,2.728,0,0,0,.228.311c.237-.443.4.251.507.315s.89.213.707.492c.129.023.736.22.692.286a5.565,5.565,0,0,1,.623.216.356.356,0,0,0-.07.072c.043.024.07.006.082-.053-.064.262.321-.047.321.223a2.206,2.206,0,0,1,.92.5,4.232,4.232,0,0,1,.933,3.077,6.951,6.951,0,0,0,.788,3.527c.03-.013.326.914.506.96.085.022.645.5.553.291.133.109.445.227.438.438.009-.226.36.08.443.119-.581.473-.982,1.1-1.519,1.611a15.578,15.578,0,0,1-2.036,1.368,4.274,4.274,0,0,1,.281.338c-.24.166-.446.424-.621.273.029.665-2.284.964-2.772,1.15a14.539,14.539,0,0,0-1.473.725c-.193.1-.512.167-.479.451.04.342-.031.253-.348.374-.131-.393-.065-.458-.472-.356-.387.1-.378.209-.553.542a.741.741,0,0,1-.928.319c-.213-.074-.245-.292-.511-.121a4.571,4.571,0,0,1,.4.307,4.915,4.915,0,0,1-1.309.323c-.106-.417-.455-.259-.726-.129a1.215,1.215,0,0,1-.305.137c-.218.032-.171-.236-.335-.209l-.741.115c.154.095.31.186.469.271-.31.138.2.16-.363.255a.889.889,0,0,0-1.051.03,5.937,5.937,0,0,1-2.574.362,3.167,3.167,0,0,1,.074-.339,14.376,14.376,0,0,1-1.915-.236.921.921,0,0,1,.236.6,29.066,29.066,0,0,1-3.286-.226.226.226,0,0,0-.191-.323c-.379-.075-.209.38-.628.082-.375-.267-.52-.511-1.021-.623-.243-.056-.884-.308-1.034-.062-.337.553-1.423-.022-1.756-.285-.113.4-.419.217-.319-.213a9.005,9.005,0,0,0-1.315-.385c-.242-.088-.53-.508-.822-.4a.72.72,0,0,0-.277.3c-.262-.1-.527-.2-.787-.315-.31-.16-.639-.287-.956-.434-.481-.223-.531-.628-.923-.917a6.462,6.462,0,0,0-1.035-.462c-.138-.06-1.2.146-.629-.3-.5-.259-1.021-.492-1.514-.771a4.291,4.291,0,0,1-1.276-.96c-.773-.772-1.694-1.1-2.46-1.779.079-.062.214-.092.126-.2,0,0,.192-.2.206-.213.155.25.247-.507.268-.514-.054.018-.09.076-.126.115l.334-.578c.283.372.1.056.383-.191.19-.159-.111-.16-.053-.27.03-.058.208.147.215.155.3-.134.061-.9.338-.851.238.036.241-.247.221-.394.038.026.073.053.109.08.114-.239.377-.658.239-.824.073.088.208-.172.191-.254.05-.152-.235-.043-.264-.2a.988.988,0,0,0,.417-.334c-.138-.021-.2-.11-.3-.145.455.124.209-.166.385-.387a1.055,1.055,0,0,0-.324.069.333.333,0,0,1,.025-.17c.09.047.221.017.311.066.021-.133.038-.266.048-.4a.229.229,0,0,1-.278-.063.608.608,0,0,1,.282,0,2.66,2.66,0,0,0-.007-.389c-.168.077-.3.123-.316-.1.051.1.154.115.314.04,0-.228.012-.492-.27-.375a.218.218,0,0,0-.072-.379c-.294-.061.4-.4.014-.494a.362.362,0,0,1-.145.134c-.043-.217.055-.6.007-.745a1.393,1.393,0,0,1-.066-.206c-.224.066-.162-.63-.163-.817,0-.8.222-2.591,1.105-2.817l-.081-.043a2.956,2.956,0,0,1,.287-.243c.225-.164.2.065.475-.071-.329-.214.4-.339.421-.393.474.227.265-.281.614-.233a.1.1,0,0,0-.159-.066c.052-.037.727.066.47-.3.466-.049.8-.987.579-1.05.521-.307-.134-.533-.149-.809a.848.848,0,0,0,.292.07c-.04-.26-.773-.61-.16-.776-.013.029-.028.061-.041.092.355-.058-.812-.42,0-.283-.375-.164-.464-.516-.53-.98a8.947,8.947,0,0,1-.217-1.131c-.153-.022.231-.445.2-.418.021-.019-.079-.206.145-.27.119-.035.228-.22.277-.318.045.074.515-.34.393-.584.164.1.228-.087.221-.214a3.408,3.408,0,0,0,.953-.537c-.03-.021-.194-.058-.1-.145.09-.047.136-.009.14.11a5.381,5.381,0,0,0,.64-.72,1.225,1.225,0,0,1-.506-.218c.051-.085.477.162.527.194a1.681,1.681,0,0,0,.26-.926c-.16.02-.321.034-.482.039-.013-.191.375-.108.482-.077.016-.228.064-.692-.248-.609a.131.131,0,0,1,.178-.057c-.011-.051-.022-.1-.032-.154a1.109,1.109,0,0,0-.311.108c-.006-.3.365.072.255-.32-.051.025-.1.055-.151.08-.118-.052.129-.081.151-.08-.062-.215-.117-.433-.162-.652a24.37,24.37,0,0,0,3.438-.221c1.14-.178.56-1.434,1.118-1.777-.677.037-.055-.879-.851-1-.289-.043-.137.16-.43-.1-.053-.047-.213-.2-.3-.105-.236.274.287.4-.346.246.082-.09.206-.473.326-.5a.717.717,0,0,0-.352.3c-.181.308-.822.032-1.168.006.055-.077.048-.344-.043-.4-.128-.075-.121.307-.028.388a28.026,28.026,0,0,0-4.852.387c.208-.07-.136-.362-.451.047a1.705,1.705,0,0,1-.92-.013c0,.009.056-.409-.062-.4-.009.111-.02.223-.033.334-.021-.074-.049-.081-.08-.019.026-.1.055-.207.088-.309a.945.945,0,0,0-.24.33c-.289.545-.017.066-.277.155-.291.1-.726.051-.989.165.2-.363-.423.033-.5.083-.179.118-.114.077-.33.018-.368-.1.191.2-.209.2-.027-.179-.094-.682-.391-.624-.319.062-.317.477-.368-.032-.127.164-.343.559-.621.5a.951.951,0,0,0,.019-.35c-.018-.045-.18.311-.19.355-.535.02-.463.246-.432.734-.017-.111-.041-.474-.145-.538-.049-.031,0,.566-.013.442-.026-.1-.055-.194-.086-.289.357.375,0,.875.1,1.247.161.632,1.553.893,2.073.972-.371,1.629-2.5,1.65-3.142,3.061s.669,2.986-.006,4.367c-.76,1.558-3.649,1.141-3.8,3.24-.124,1.686,1.332,3.734.491,5.348a20.21,20.21,0,0,1-2.7-5.748C3.286,40.365,2.307,38.074,2,36c-.062-.426-.289-1.107,0-1.4.154-.158.122-.632.08-.829-.08-.376-.572-.141-.153-.681.493-.636-.2-.643-.2-1.129.006-.436-.1-1.172.2-1.462a2.177,2.177,0,0,0,.323-1.213,12.727,12.727,0,0,0,.166-2.1,1.025,1.025,0,0,0,.269.123c.072-.379-.2-.379-.147-.664.039-.179.085-.2.273-.218a2.04,2.04,0,0,0,.046-.487,12.376,12.376,0,0,1,.8-3.459A30.782,30.782,0,0,1,8.227,14.82c-.375-.034.028-.285.161-.455.1.44.5-.327.69-.543.36-.417.732-.827,1.125-1.212a31.167,31.167,0,0,1,2.478-2.177,3.027,3.027,0,0,1-.545-.188c.128-.115.256-.228.385-.341a2.184,2.184,0,0,1,.308.413C14.368,9.207,15.811,7.968,17.4,6.93l-.444-.311q.2-.123.41-.243l.221.426A24.171,24.171,0,0,1,20.934,4.81l-.1-.187q.181-.083.365-.164a.189.189,0,0,1-.082.262c.216-.108.985-.343.787-.545.12-.047.394-.274.347-.018a24.8,24.8,0,0,1,4.236-1.447,3.006,3.006,0,0,1,1.574-.089,7.6,7.6,0,0,0,1.809.074c1.1.035,2.21.02,3.315.066.506.021,2,.379,2.1-.168.152-.01.143.153.48.105a4.612,4.612,0,0,1,1.29.032,2.3,2.3,0,0,0-.181.307,5.925,5.925,0,0,1,.59.082.475.475,0,0,1,.019-.307,7.138,7.138,0,0,0,2.751.391,2.765,2.765,0,0,1,1.409.151q.819.255,1.621.569a3.194,3.194,0,0,1-.509.174,9.386,9.386,0,0,1,2.3.907,6.9,6.9,0,0,1,1.03.8c.406-.187.507-.255.884-.025-.093.2-.36.272-.532.378a4.339,4.339,0,0,0,1.151.867,6.678,6.678,0,0,0,.962.379c.8.369,1.477.954,2.294,1.3.479.434.317.474.315,1.055,0,.406.379.445.674.524.036.01,0,.407.136.564.176.2.351.408.526.61.22-.373.431-.05.663.088-.146.055-.293.111-.441.166a33.857,33.857,0,0,1,3.152,4.345c.247-.23.439-.164.266.155s.333.86.5,1.172a6.4,6.4,0,0,0,.3.61c.249.363.561-.337.665-.429.149.285.292.573.433.862a.55.55,0,0,0-.056.588c.2.594.1,1.243.329,1.832.082-.73,1.066-.38.637.359-.277.476-.314.761.123,1.136a1.923,1.923,0,0,1,.41,1.582A3.717,3.717,0,0,0,60,23.37c.068.223.135.447.2.67l-.692.11c.247.758.372,1.548.547,2.323a3.227,3.227,0,0,1,.715-.2c.084.4-.181.743-.635.527.14.731.227,1.472.349,2.206.144-.112.318-.364.528-.344.316.036.238.624.266.892a2.1,2.1,0,0,1-.748-.22,21.573,21.573,0,0,0,.286,2.62,1.942,1.942,0,0,0,.6-.164c-.138.177-.072.4-.179.583s-.316.13-.293.4a2.87,2.87,0,0,0,.425,1.531c.08.086.009.515,0,.632-.032.534-.123.164-.441.42a2.375,2.375,0,0,0-.311,1.971M56.874,50.1a7.209,7.209,0,0,1,.794-1.05c-.211.429-.33.892-.794,1.05m1.385-2.313c-.151-.162-.338-.289-.5-.441-.273.618-.623,1.2-.892,1.817-.262.6-.347,1.234-.662,1.813-.179.329-.983,1.188-.753,1.454.268.31-.722,1.3-.975,1.612a3.825,3.825,0,0,0,.234-.971,10.994,10.994,0,0,0-.753,1.034c-.119.177-.242.353-.371.523a5.639,5.639,0,0,1-.724-.462,3.637,3.637,0,0,1-1.221-1.616,17.907,17.907,0,0,1-.482-4.047,2.9,2.9,0,0,0-1.605-2.489,15.72,15.72,0,0,1-2.829-1.65c-.959-.873-.517-1.759-.134-2.808a3.692,3.692,0,0,0,.213-2.462,6.225,6.225,0,0,0-2.14-2.33,2.983,2.983,0,0,1-1.3-1.789,5.164,5.164,0,0,1,.124-2.292c.146-.538.268-.472.808-.5.579-.036,1.162-.055,1.743-.071,1.181-.029,2.363-.027,3.544-.006a3.077,3.077,0,0,0-.224,1.306c0,.171-.255.275-.069.536a1.412,1.412,0,0,1,.092.692c-.088.084.335.784.414.734-.089.07.069.255.168.222.027-.008-.088-.257-.142-.236-.153.085.9.736.892.721.051.095.087.094.206.206a.226.226,0,0,0,.006-.2,3.934,3.934,0,0,1,.726.637c-.032-.022.335.134.308.231.494.369.54.464.584.974-.006-.064.285.154.268.106a1.669,1.669,0,0,1-.07-.209c.141.254.623,1.977.418,2-.015.4-.187.9-.156,1.151.206.04-.127.251-.125.3s.141.159.144.216c-.172,0-.166,0-.183.125.146-.036.214,0,.2.1-.2.108-.091.046-.221.013-.01.07-.036.18.162.243-.17,0-.226.073-.167.217.378-.164.521.579.714.82A3.62,3.62,0,0,0,55,44c1.117.477,2.487.8,3.14,1.929-.26-.286-.111.018-.113.064-.01-.009-.357-.364-.357-.364.305-.159.042-.066-.112-.3-.116-.172-.11.081-.2.022.053.034.109-.192-.071-.3-.034.062-.443-.085-.435-.049-.043-.228-.048-.26-.278-.228l.055-.077c.027.012-.707-.342-.6-.166-.12-.191-.178-.171-.251.035-.18-.016-.051-.221-.281-.292-.022.091-.086.14-.116.2.1-.289-.105-.153-.233-.3-.029.643.221-.025.413.4.116.253.618.311.736.039a1.912,1.912,0,0,0-.134.251c.164.105.295.1.387-.062-.134.276.213.375.45.375.07,0,.833.99.874.966a.184.184,0,0,0,0-.122.312.312,0,0,1,.047.492.357.357,0,0,0,.153-.04c-.006.022-.039.775-.1.747a.389.389,0,0,0,.154-.178,1.443,1.443,0,0,0-.154.3c.074.184.4-.7.411-.835.042.147.083.318.254.361-.124.305-.246.61-.377.912M44.844,38.669c-.072-.013-.143-.025-.215-.036l.1-.093.119.13m-.362-.249.057-.14c.189.161.074.172-.057.14M40.11,29.978c.009-.058.072-.442.072-.011Zm.738.021a.78.78,0,0,1,.057-.173c-.013.017.062.407-.017.441-.013-.089-.026-.178-.04-.268m.2.119c.032-.161.048-.138.049.072-.048.03-.066.006-.049-.072m.1-.239.1-.079c-.081.081.161.284-.01.341-.019-.083.037-.271-.09-.262m1.126,2.706q-.237-.014.077-.179c-.025.061-.051.119-.077.179m-.25,1.232c-.077-.047.007-.042,0,0h0m-.051.409c.007-.118.01,0,0,0h0m.892,2.515c.1.059.1.094,0,.105-.062-.025-.06-.06,0-.105m.251.28c.018.019-.018.042,0,0h0M45.245,39.2c.082.092.086.165.009.221-.1-.091-.105-.165-.009-.221m6.046-2.875c.092.023.116.073.074.149-.1-.028-.127-.078-.074-.149M50.8,36l.1.072c-.192.046-.083-.013-.1-.072m-.167-.111c.1.026.11.059.026.1-.05-.021-.059-.054-.026-.1m7.676,10.488c-.017-.043-.034-.087-.051-.132.127,0,.211.235.056.243a.492.492,0,0,0-.006-.111m-.064-.192c-.011-.04-.021-.081-.03-.121.077.071.088.111.03.121M11.159,30.527c.121.066.2.006.013.144,0-.048-.009-.1-.013-.144m.362-.828c.021-.055.141-.431.081,0Zm.82.1a.659.659,0,0,1,.081-.166c-.007,0,.023.4-.063.428-.006-.088-.012-.175-.017-.262m.22.134c.023-.332-.021.2,0,0h0M12.7,29.7c.038-.025.079-.05.119-.074-.1.077.14.244-.049.3-.011-.1.067-.232-.07-.228m7.716,3.591a.452.452,0,0,1,.134.028c-.085,0-.092.068-.153.1a.118.118,0,0,1,.019-.126M20,34.738c-.023-.071-.226.181-.031-.134.01.045.02.09.031.134M18.4,41.318c-.066-.008-.052-.033,0,0h0m-.716,1.455c0,.026-.013.036-.036.032a.268.268,0,0,0,.036-.032m-4.145-9.841c.132.113-.008.083-.113.063a.092.092,0,0,1,.113-.063M11.278,38c.055-.021.028.077,0,0,.009,0,0,.012,0,0M9.041,41.785c.364-.007.624-.321.979-.332l-.057-.044c.245-.1.474-.12.684-.226-.346-.176.37-.326.323-.294a1.169,1.169,0,0,0,.274-.168c.106-.112-.138-.191.134-.3-.033-.036-.064-.041-.092-.018a1.316,1.316,0,0,0,.364-.9c-.013-.145-.082-1.058-.234-1.088-.146-.448-.186-.513-.31-.932a2.6,2.6,0,0,1-.077-1.506c.016-.051.228-.627.346-.491.018-.019.289-.353.269-.459a6.567,6.567,0,0,1,.9-.616c-.021-.02-.143-.066-.066-.123.074-.026.106.009.1.1q.288-.215.582-.419c-.076-.038-.295-.132-.209-.233.366.288.466.073.7-.319-.118-.05-.235-.1-.349-.158.087-.145.277.079.364.133.123-.221.288-.377.068-.513.139-.058.145.142.181-.093-.292-.035-.368-.017-.314-.28.074.158.285.444.341.1l-.134.009c-.066-.073.116-.017.134-.009.077-.434.723-.251,1.128-.276.468-.028.934-.074,1.4-.122.959-.1,1.916-.138,2.879-.151.058,1.494-1.013,2.639-1.938,3.681-.408.458-1.021.981-1.043,1.644a7.452,7.452,0,0,0,.528,2.213c.776,2.869-2.615,2.847-3.5,4.98-.6,1.443.073,2.771.308,4.209a5.859,5.859,0,0,1-1.069,4.536c-.357.474-.867,1.485-1.421.929-.625-.631-1.228-1.285-1.8-1.963.364-.285-1.132-1.416-1.222-1.536.556.115.09-.319-.13-.485a.365.365,0,0,0-.194.056c-.162-.224-.319-.452-.476-.681.071-.039.228-.078.16-.176l.191-.18c.08.14.292-.3.243-.452-.028-.089-.174.154-.133.1A4.032,4.032,0,0,0,8,48.383c.313.2.109,0,.214-.283.089-.191-.141-.081-.125-.18.456-.172.035-.262-.016-.681.2-.152.143-.246,0-.39l.107,0c.007.034-.187-.847-.263-.632.015-.044.059-.419-.133-.237-.032-.123.025-.3-.015-.4-.009,0-.048.056-.071.062-.34-1.467-.378-3.105,1.344-3.852m5.611,10.442.21.127c-.2-.065-.142-.065-.274-.147.021-.092.041-.085.063.02m-1.627,2.632s-.074.119-.093.1l.093-.1m1.409-2.281c.053.042.107.085.158.128-.083,0-.2-.035-.158-.128m-5.157-.451C9.034,52,9,51.892,9.172,51.8c.035.108.07.217.105.323M7.405,49.232c-.07.011-.013-.006,0,0m.322-.4a.492.492,0,0,1-.066.2.053.053,0,0,0-.084,0l.149-.2m.28-1.975c0-.009.054-.039,0,0m-.074-.3c-.009-.033.139-.138,0,0h0m-.642,2.762c.006.024-.091.081,0,0h0M23.249,3.67c.079.124,0,0,.075-.026-.035.132-.053.018-.075.026M53.493,11.45l-.178.041c.045-.183.1-.2.178-.041m1.759,2.274-.507.173c.084-.179.165-.362.243-.546.089.125.176.249.264.373M27.285.757A7.853,7.853,0,0,0,26,1a.225.225,0,0,0-.142-.271c.476-.024.952.037,1.428.032m-9.2,3.559.348-.025c-.364.194-.1.05-.348.025" transform="translate(0 0)" fill="#009cb2" style="stroke: rgb(8, 156, 180);"/>
          <path id="Path_1252" data-name="Path 1252" d="M45.384,56.981c.006-.125-.048-.752-.337-.472a7.249,7.249,0,0,0-.689-1.209.221.221,0,0,0,.127.067c-.006-.089-.4-.451-.473-.538.252-.277-.248-.593-.452-.671-.31-.118-1.121-1.592-1.35-1.268.051-.07.394.519.394.519a11.459,11.459,0,0,1-1.085-.708c.512-.349-.562-.622-.617-.655a.8.8,0,0,0-.574-.187c-.206.033-.772.508-.662.036.009,0-.761-.228-.755-.208.091-.017.126-.074.1-.171a2.139,2.139,0,0,1-1.051.019.9.9,0,0,1,.54-.162,1.867,1.867,0,0,0-.392-.09c-.3.011-.274-.128-.583-.157-.364-.034-.662.407-.865.571.138-.134-.423-.216-.526-.126-.341.292-.847-.171-1.3.06a5.166,5.166,0,0,0,.692-.271c-.085-.4-.934.241-1.058.354a4.049,4.049,0,0,1-1.615.658c-.011-.095-.044-.345-.21-.256.119.284-.126.263-.166.426a1.617,1.617,0,0,1,.114-.389,1.561,1.561,0,0,0-.453,1.141c-.2-.323-.378.3-.417.429-.152.488-.661.756-.814,1.255.021-.088,0-.138-.067-.154-.341.258-.25,1.255-.427,1.623-.106.218-.039.347-.077.566a.554.554,0,0,0-.47.443,1.324,1.324,0,0,0,.014.579c.084.378.335.449,0,.6a6.48,6.48,0,0,0,1.243,1.317c-.372.151-.168.289.1.285.41-.006.767.206,1.188.172a8.3,8.3,0,0,0,2.466.455c1.617.086,3.227-.04,4.845.067a7.952,7.952,0,0,0,3.97-.44c.632-.314.755-.843,1.2-1.292.623-.631.451-1.43.492-2.218M41.275,52.6a4.842,4.842,0,0,1-.569-.27.858.858,0,0,1,.569.27m-.734-.313-.13-.043c.089-.037.133-.023.13.043m-1.092-.341c-.011.032-.151.043,0,0-.006.015-.025.006,0,0m-.5-.187c.065.022.192-.05.246.126-.073-.017-.372-.176-.246-.126m-2.7.091c-.1.042-.149,0-.142-.139a.354.354,0,0,1,.142.139m-.952.159c-.167.039-.074-.081,0,0-.031.007-.03-.032,0,0M30.18,57.336a.6.6,0,0,1,.033.265c-.012-.089-.023-.177-.033-.265m.025.789a.211.211,0,0,1,.13.256c-.043.032-.276-.222-.13-.256M31.193,60a1.55,1.55,0,0,0,.183.113c-.063.03-.529.062-.183-.113" transform="translate(-6.251 -10.712)" fill="#009cb2" style="stroke: rgb(8, 156, 180);"/>
        </g>
      </g>
      <g id="Group_857" data-name="Group 857" transform="translate(-23515 22935)">
        <path id="Path_1260" data-name="Path 1260" d="M1040.553,500.4a3.514,3.514,0,0,1,3.459,3.657,3.3,3.3,0,0,1-3.519,3.49c-2.182-.013-3.406-1.292-3.391-3.542A3.422,3.422,0,0,1,1040.553,500.4Z" transform="translate(536.167 263.456)" fill="#009cb2" style="stroke: rgb(8, 156, 180);"/>
        <path id="Path_1261" data-name="Path 1261" d="M1041.77,504.122a1.38,1.38,0,0,1,1.511,1.461,1.409,1.409,0,0,1-1.4,1.507,1.551,1.551,0,0,1-1.653-1.5A1.436,1.436,0,0,1,1041.77,504.122Z" transform="translate(536.119 263.398)" fill="#fff" style="stroke: rgb(8, 156, 180);"/>
      </g>
      <g id="Group_858" data-name="Group 858" transform="translate(-23500 22935)">
        <path id="Path_1260-2" data-name="Path 1260" d="M1040.553,500.4a3.514,3.514,0,0,1,3.459,3.657,3.3,3.3,0,0,1-3.519,3.49c-2.182-.013-3.406-1.292-3.391-3.542A3.422,3.422,0,0,1,1040.553,500.4Z" transform="translate(536.167 263.456)" fill="#009cb2" style="stroke: rgb(8, 156, 180);"/>
        <path id="Path_1261-2" data-name="Path 1261" d="M1041.77,504.122a1.38,1.38,0,0,1,1.511,1.461,1.409,1.409,0,0,1-1.4,1.507,1.551,1.551,0,0,1-1.653-1.5A1.436,1.436,0,0,1,1041.77,504.122Z" transform="translate(536.119 263.398)" fill="#fff" style="stroke: rgb(8, 156, 180);"/>
      </g>
      <g id="Group_955" data-name="Group 955" transform="translate(-17662 23778)">
        <path id="Path_417" data-name="Path 417" d="M80.795,278.639c4.941,3.9,10.431,3,14.927-.143" transform="translate(-4331.097 -234.853)" fill="none" stroke-linecap="round" stroke-linejoin="round" stroke-width="2" style="stroke: rgb(8, 156, 180);"/>
        <path id="Path_436" data-name="Path 436" d="M1013.962,500.6a3.693,3.693,0,0,1,4.043,3.909,3.772,3.772,0,0,1-3.747,4.034,4.151,4.151,0,0,1-4.423-4.017A3.845,3.845,0,0,1,1013.962,500.6Z" transform="translate(-5262.958 -477.58)" fill="#009cb2" style="stroke: rgb(8, 156, 180);"/>
        <path id="Path_437" data-name="Path 437" d="M1015.224,504.122a1.582,1.582,0,0,1,1.731,1.674,1.615,1.615,0,0,1-1.6,1.727,1.775,1.775,0,0,1-1.894-1.72A1.645,1.645,0,0,1,1015.224,504.122Z" transform="translate(-5265.495 -481.13)" fill="#fff" style="stroke: rgb(8, 156, 180);"/>
        <path id="Path_435" data-name="Path 435" d="M1041.019,500.4a3.988,3.988,0,0,1,3.927,4.151,3.744,3.744,0,0,1-3.994,3.961c-2.476-.014-3.865-1.466-3.849-4.021A3.884,3.884,0,0,1,1041.019,500.4Z" transform="translate(-5269.833 -477.544)" fill="#009cb2" style="stroke: rgb(8, 156, 180);"/>
        <path id="Path_434" data-name="Path 434" d="M1041.978,504.122a1.566,1.566,0,0,1,1.715,1.658,1.6,1.6,0,0,1-1.589,1.711,1.76,1.76,0,0,1-1.876-1.7A1.63,1.63,0,0,1,1041.978,504.122Z" transform="translate(-5272.466 -481.107)" fill="#fff" style="stroke: rgb(8, 156, 180);"/>
      </g>
    </g>
  </g>
  <g id="Group_186" data-name="Group 186" transform="matrix(1, 0, 0, 1, -1758.799805, 751.349243)">
    <path id="Path_403" data-name="Path 403" d="M-544.863-339.468l8.007,24.489,39.292,8.6" transform="translate(74.073 70.738)" fill="none" stroke="#6c86a1" stroke-linecap="round" stroke-linejoin="round" stroke-width="3"/>
    <path id="Path_404" data-name="Path 404" d="M-529.4-377.245c10.358,9.684,22.343,16.711,38.442,23.739" transform="translate(87.041 42.946)" fill="none" stroke="#6c86a1" stroke-linecap="round" stroke-linejoin="round" stroke-width="3"/>
    <path id="Path_405" data-name="Path 405" d="M-590.922-383.08a7.631,7.631,0,0,0-4.864-1.742,2.2,2.2,0,0,0-1.328.285,1.6,1.6,0,0,0-.552,1.641,3.117,3.117,0,0,0,.959,1.53,6.11,6.11,0,0,0,4.184,1.677c-1.576.921-5.112,3.632-4.415,5.816.959,3,8.486,1.919,8.238-1.571" transform="translate(36.596 38.57)" fill="none" stroke="#6c86a1" stroke-linecap="round" stroke-miterlimit="10" stroke-width="2"/>
    <path id="Path_406" data-name="Path 406" d="M-621.24-343.847l3.188-2.839c-8.777,3.326-15.925,2.239-20.825-5.107-6.777-10.16,1.037-26.134,17.928-23.346l-8.049-3.1a14.1,14.1,0,0,1,15.877-11.515,14.053,14.053,0,0,1,12.411,14.59l-7.8.661.19,4.475c2.831-.294,5.488-.552,8.143-.851,8.006-.9,16.008-1.829,24.014-2.724,1.769-.2,3.6-.258,2.271-3.121l-21.616,1.287c-1.682-4.519-2.6-9.059-4.907-12.727-4-6.353-10.465-8.414-17.7-7.025-7.471,1.436-12.18,6.249-13.879,13.619-.588,2.55-1.332,3.837-4.092,4.569a18.021,18.021,0,0,0-12.771,21.512,18.227,18.227,0,0,0,20.466,14c1.94-.285,3.42-.711,5.018,1.4,6.2,8.173,16.217,9.956,24.968,4.808,7.532-4.432,10.541-14.364,7.068-23.314-.183-.47-.294-.969-.543-1.8,5.832-2.316,11.616-4.529,17.311-6.951,1.055-.448,1.749-1.742,2.61-2.644l-.928-1.082c-10.893,3.709-21.786,7.416-33.044,11.248l1.648,4.186,7.447-2.629c3.6,6.611,1.224,14.315-5.577,18.572A14.052,14.052,0,0,1-621.24-343.847Z" transform="translate(0 30.93)" fill="#6c85a0"/>
    <path id="Path_407" data-name="Path 407" d="M-537.533-424.5c13.592,4.3,23.626,15.786,31.5,27.672A182.519,182.519,0,0,1-477.6-321.8c.723,5.145,1.215,10.471-.208,15.467-1.8,6.343-6.512,11.476-11.717,15.525-9.876,7.688-21.839,12.262-33.955,15.4-10.3,2.666-21.088,4.379-31.573,2.56s-20.686-7.623-25.741-16.988c-2.991-5.539-4.018-11.9-5-18.118q-1.449-9.186-2.9-18.369c-2.588-16.4-5.179-33.09-2.82-49.524s10.462-32.859,24.775-41.264c4.557-2.68,9.719-7.862,15-8.057,11.469-.419,5.962-.52,14.2.663" transform="translate(40.335 9.754)" fill="none" stroke="#6c86a1" stroke-miterlimit="10" stroke-width="4.269"/>
    <path id="Path_408" data-name="Path 408" d="M-506.571-411.395c-8.491,8.463-22.76,13.924-34.265,16.826a123.291,123.291,0,0,1-24.572,3.615c-7.528.34-16.525.227-24.259-3.347" transform="translate(39.268 18.831)" fill="none" stroke="#6c86a1" stroke-linecap="round" stroke-width="7"/>
    <g id="Group_185" data-name="Group 185" transform="translate(-485.796 -439.209)">
      <path id="Path_409" data-name="Path 409" d="M-545.453-423.811c5.779-1.8,11.083-3.42,16.361-5.117,1.735-.557,3.782-.974,3.724-3.451-.058-2.453-1.988-4.967-4.4-5.073a13.212,13.212,0,0,0-6.054,1.113C-540.854-433.945-544.173-430.01-545.453-423.811Z" transform="translate(559.45 440.446)" fill="#6c86a1"/>
      <path id="Path_410" data-name="Path 410" d="M-551.4-422.8c2.15-3.733,4.352-7.469,6.457-11.26.737-1.328,1.5-2.818-.031-4.164-1.473-1.292-4.22-1.4-5.529.162a13.8,13.8,0,0,0-2.666,5A11.869,11.869,0,0,0-551.4-422.8Z" transform="translate(553.642 439.209)" fill="#6c86a1"/>
      <path id="Path_411" data-name="Path 411" d="M-543.631-418.58c4.047-.321,7.886-.5,11.684-1.007,1.065-.142,2.69-1.089,2.856-1.909a3.166,3.166,0,0,0-2.348-3.945,11.685,11.685,0,0,0-5.141.359A10.893,10.893,0,0,0-543.631-418.58Z" transform="translate(560.742 448.873)" fill="#6c86a1"/>
    </g>
    <circle id="Ellipse_35" data-name="Ellipse 35" cx="4.318" cy="4.318" r="4.318" transform="translate(-544.014 -354.525)" fill="none" stroke="#6c86a1" stroke-width="2"/>
    <path id="Path_412" data-name="Path 412" d="M-586.619-393.8c3.391.709,5.933,2.514,8.457,4.829" transform="translate(44.459 32.203)" fill="none" stroke="#6c86a1" stroke-linecap="round" stroke-miterlimit="10" stroke-width="2"/>
    <circle id="Ellipse_36" data-name="Ellipse 36" cx="1.522" cy="1.522" r="1.522" transform="translate(-542.982 -351.665)" fill="#6c86a1" stroke="#6c86a1" stroke-width="1"/>
    <path id="Path_413" data-name="Path 413" d="M-604.049-357.8l39.933,14.946,30.366-25.757" transform="translate(32.098 50.067)" fill="none" stroke="#6c86a1" stroke-linecap="round" stroke-linejoin="round" stroke-width="3"/>
    <path id="Path_414" data-name="Path 414" d="M-539.131-350.533l-39.113,18.262-9.341,47.415" transform="translate(43.774 62.89)" fill="none" stroke="#6c86a1" stroke-linecap="round" stroke-linejoin="round" stroke-width="3"/>
    <line id="Line_1" data-name="Line 1" x2="17.914" y2="3.004" transform="translate(-562.031 -224.868)" fill="none" stroke="#6c86a1" stroke-linecap="round" stroke-linejoin="round" stroke-width="3"/>
    <line id="Line_2" data-name="Line 2" y1="17.645" x2="4.31" transform="translate(-428.179 -235.364)" fill="none" stroke="#6c86a1" stroke-linecap="round" stroke-linejoin="round" stroke-width="3"/>
  </g>
  <g id="Group_179" data-name="Group 179" transform="matrix(1, 0, 0, 1, -796.445129, 176.367126)">
    <path id="Path_357" data-name="Path 357" d="M-963.4,262.108c-.225,18.025-.448,30.16-.673,48.187a95.03,95.03,0,0,1-18.51.346" transform="translate(12.097 47.694)" fill="none" stroke="#e79e17" stroke-linecap="round" stroke-linejoin="round" stroke-width="3"/>
    <path id="Path_358" data-name="Path 358" d="M-941.547,262.451a424.357,424.357,0,0,0-.073,45.614,44.711,44.711,0,0,1,18.609.26" transform="translate(27.452 49.851)" fill="none" stroke="#e79e17" stroke-linecap="round" stroke-linejoin="round" stroke-width="3"/>
    <path id="Path_359" data-name="Path 359" d="M-956.324,140.788c-14.339,7.95-23.031,23.186-29.191,38.381a209.9,209.9,0,0,0-14.937,91.076c.359,5.964,1.02,12.078,3.762,17.386,3.481,6.738,9.96,11.449,16.75,14.828,12.888,6.412,27.419,8.839,41.794,9.612,12.22.657,24.772.123,36.175-4.319s21.581-13.313,25.14-25.022c2.108-6.93,1.814-14.331,1.5-21.567q-.462-10.685-.925-21.37c-.825-19.073-1.713-38.483-8.121-56.467s-19.291-34.658-37.344-40.868c-5.747-1.978-12.752-6.646-18.749-5.657-13.025,2.145-6.84.774-15.856,3.987" transform="translate(5.162 0)" fill="none" stroke="#e79e17" stroke-miterlimit="10" stroke-width="4.269"/>
    <path id="Path_360" data-name="Path 360" d="M-992.129,192.036c-12.549,2.954-22.26,15.2-22.272,28.1a19.55,19.55,0,0,0,1.883,8.879c2.568,5.056,7.758,8.149,12.721,10.894a553.723,553.723,0,0,0,54.521,26.356" transform="translate(0 21.052)" fill="none" stroke="#e79e17" stroke-linecap="round" stroke-linejoin="round" stroke-width="3"/>
    <path id="Path_361" data-name="Path 361" d="M-903.756,191.7a57.486,57.486,0,0,1,22.141,24.55c2.737,5.478,4.684,12.035,2.185,17.625-1.736,3.883-5.358,6.614-9.172,8.5-14.117,6.969-31.234,4.2-46.038,9.558" transform="translate(30.326 20.926)" fill="none" stroke="#e79e17" stroke-linecap="round" stroke-linejoin="round" stroke-width="3"/>
    <path id="Path_362" data-name="Path 362" d="M-948.544,168.386c0,1.267-.026,2.533-.046,3.8a3.677,3.677,0,0,0,2.128,3.462c2.07.932,6.494.058,7.9-.3,4.194-1.059,2.241-4.727,2.241-6.966" transform="translate(25.022 12.061)" fill="none" stroke="#e79e17" stroke-linecap="round" stroke-linejoin="round" stroke-width="2"/>
    <path id="Path_363" data-name="Path 363" d="M-968.089,168.386c0,1.267-.026,2.533-.044,3.8a3.673,3.673,0,0,0,2.127,3.462c2.07.932,6.494.058,7.9-.3,4.194-1.059,2.241-4.727,2.241-6.966" transform="translate(17.591 12.061)" fill="none" stroke="#e79e17" stroke-linecap="round" stroke-linejoin="round" stroke-width="2"/>
    <path id="Path_364" data-name="Path 364" d="M-976.144,187.328" transform="translate(14.545 19.262)" fill="none" stroke="#e79e17" stroke-width="1"/>
    <path id="Path_365" data-name="Path 365" d="M-946.9,188.881c-6.745-5.318-14.24-4.1-20.377.2" transform="translate(17.915 18.512)" fill="none" stroke="#e79e17" stroke-linecap="round" stroke-linejoin="round" stroke-width="2"/>
  </g>
  <g id="Group_1541" data-name="Group 1541" transform="matrix(1, 0, 0, 1, -2317.628418, -924.079163)">
    <g id="Group_1073" data-name="Group 1073" transform="translate(969.574 1172.396)">
      <path id="Path_368" data-name="Path 368" d="M73.035,108.8c4.195,16.372.948,25.313-1.02,42.1a326.959,326.959,0,0,0-.708,69.429,59.81,59.81,0,0,0-19.913-.274" transform="translate(20.372 67.945)" fill="none" stroke="#502831" stroke-linecap="round" stroke-linejoin="round" stroke-width="3"/>
      <path id="Path_369" data-name="Path 369" d="M83.627,108.729c.956,40.812-6.258,73.224-5.216,114.034q11.034-1.008,22.118-1.3" transform="translate(39.499 67.892)" fill="none" stroke="#502831" stroke-linecap="round" stroke-linejoin="round" stroke-width="3"/>
      <path id="Path_373" data-name="Path 373" d="M43.509,104.53c3.432,13.45,10.885,25.532,19.242,36.614,6.684,8.86,14.883,17.755,25.8,19.771,9.672,1.784,19.567-2.318,27.541-8.078,19.528-14.1,30.683-39.466,26.6-63.206-4.569-26.569-32.136-52.772-60.409-50.587C52.768,41.324,37.08,79.338,43.509,104.53Z" transform="matrix(0.982, 0.191, -0.191, 0.982, 42.813, 2.539)" fill="none" stroke="#502831" stroke-miterlimit="10" stroke-width="3.76"/>
      <path id="Path_379" data-name="Path 379" d="M103.83,137.492l8.614-6.15c3.026-2.161,6.128-4.406,8.532-8.431a25.822,25.822,0,0,0,3.126-16.068,30.691,30.691,0,0,0-2.75-8.34c-10.038-22.059-22.928-39.66-37.29-50.923" transform="matrix(0.999, 0.052, -0.052, 0.999, 70.369, -17.522)" fill="none" stroke="#502831" stroke-linecap="round" stroke-linejoin="round" stroke-width="3"/>
      <path id="Path_380" data-name="Path 380" d="M39.685,49.654C36.757,51.317,33.8,53,31.03,57s-5.391,10.523-7.022,20.083a88.755,88.755,0,0,0-1.269,13.6,92.03,92.03,0,0,0,1.212,15.8A68.18,68.18,0,0,0,33.59,132.7l10.432,17.876" transform="translate(30.605 92.635)" fill="none" stroke="#502831" stroke-linecap="round" stroke-linejoin="round" stroke-width="3"/>
    </g>
    <g id="Group_1539" data-name="Group 1539" transform="translate(1061.253 1252.495) rotate(-3)">
      <path id="Path_574" data-name="Path 574" d="M2.909,2.509A9.057,9.057,0,0,1,.378,1.133C0,.849-.163.53.208.187.564-.141.928.013,1.263.262c2.616,1.945,5.5,2.047,8.569.837.153-.06.31-.114.46-.178.379-.16.742-.17.964.168s.093.654-.337.838A10.879,10.879,0,0,1,2.909,2.509Z" transform="matrix(-0.829, 0.559, -0.559, -0.829, 5.627, -3.743)" fill="#502831" stroke="#502831" stroke-width="2"/>
      <path id="Path_573" data-name="Path 573" d="M2.909,2.509A9.057,9.057,0,0,1,.378,1.133C0,.849-.163.53.208.187.564-.141.928.013,1.263.262c2.616,1.945,5.5,2.047,8.569.837.153-.06.31-.114.46-.178.379-.16.742-.17.964.168s.093.654-.337.838A10.879,10.879,0,0,1,2.909,2.509Z" transform="matrix(-0.966, -0.259, 0.259, -0.966, 47.619, 0.452)" fill="#502831" stroke="#502831" stroke-width="2"/>
      <path id="Subtraction_6" data-name="Subtraction 6" d="M2304.309,2230.067a5.154,5.154,0,0,1-3.646-1.5,4.638,4.638,0,0,1,.013-6.511,5.027,5.027,0,0,1,3.485-1.28h.077a4.82,4.82,0,0,1,3.254,1.114,2.465,2.465,0,0,0-.59-.069h-.037a1.959,1.959,0,0,0-1.5,3.334,2.2,2.2,0,0,0,1.561.644l.085,0a1.833,1.833,0,0,0,1.806-1.445,5.422,5.422,0,0,1,.071,1,4.977,4.977,0,0,1-1.225,3.368,4.414,4.414,0,0,1-3.156,1.35C2304.441,2230.066,2304.374,2230.067,2304.309,2230.067Z" transform="translate(-2293.271 -2203.032)" fill="#502831"/>
      <path id="Exclusion_2" data-name="Exclusion 2" d="M2303.941,2230.4h-.039a4.535,4.535,0,0,1-3.393-1.255,4.856,4.856,0,0,1-1.174-3.517,5.042,5.042,0,0,1,1.322-3.485,4.557,4.557,0,0,1,3.326-1.371h.011a4.556,4.556,0,0,1,3.515,1.662,2.067,2.067,0,0,0-1.407-.487h-.035a1.969,1.969,0,0,0-1.505,3.354,2.213,2.213,0,0,0,1.566.645l.088,0a1.907,1.907,0,0,0,1.886-2.03,2.117,2.117,0,0,0-.146-.843,5.107,5.107,0,0,1,.687,2.626,4.753,4.753,0,0,1-1.3,3.418A4.678,4.678,0,0,1,2303.941,2230.4Zm4.007-7.34a4.777,4.777,0,0,0-.439-.626,1.714,1.714,0,0,1,.441.625Z" transform="translate(-2270.904 -2203.184)" fill="#502831"/>
      <path id="Path_2028" data-name="Path 2028" d="M88.445,78.218s-19.312,18.61-35.44,0" transform="matrix(0.999, 0.052, -0.052, 0.999, -45.313, -44.537)" fill="none" stroke="#502831" stroke-linecap="round" stroke-linejoin="round" stroke-width="2"/>
    </g>
    <g id="Group_1540" data-name="Group 1540" transform="translate(-68.904 -0.125) rotate(-2)">
      <path id="Path_2025" data-name="Path 2025" d="M6.44,4.03a23.213,23.213,0,0,1-5.6-2.21C.011,1.363-.361.851.461.3A2.137,2.137,0,0,1,2.8.421C8.588,3.545,14.97,3.709,21.766,1.766c.339-.1.685-.183,1.019-.285a1.989,1.989,0,0,1,2.135.27c.509.564.207,1.05-.746,1.345A32.527,32.527,0,0,1,6.44,4.03Z" transform="matrix(-0.469, -0.883, 0.883, -0.469, 1184.942, 1271.627)" fill="#323f51"/>
      <path id="Path_2026" data-name="Path 2026" d="M4.9,3.254A17.081,17.081,0,0,1,.638,1.469C.008,1.1-.275.687.351.243a1.549,1.549,0,0,1,1.777.1c4.407,2.523,9.264,2.655,14.435,1.086.258-.078.522-.148.775-.23a1.445,1.445,0,0,1,1.624.218c.388.456.157.848-.567,1.087A23.39,23.39,0,0,1,4.9,3.254Z" transform="matrix(-0.469, -0.883, 0.883, -0.469, 1189.462, 1265.711)" fill="#323f51"/>
    </g>
  </g>
  <g id="Group_848" data-name="Group 848" transform="matrix(1, 0, 0, 1, -1284.126343, -507.74411)">
    <g id="Group_847" data-name="Group 847" transform="translate(446.796 783.542)">
      <g id="Group_845" data-name="Group 845" transform="translate(131.898 13.703) rotate(-14)">
        <g id="Group_844" data-name="Group 844" clip-path="url(#clip-path)">
          <path id="Path_1235" data-name="Path 1235" d="M56.641,43.425A28.34,28.34,0,0,0,32.474,15.444V13.216c0-.068-.017-.131-.021-.2a7.175,7.175,0,1,0-8.265,0c0,.066-.021.13-.021.2v2.228A28.3,28.3,0,1,0,56.641,43.425M28.321,69.48a26.039,26.039,0,0,1-4.154-51.747c.376-.06.751-.128,1.133-.172a24.07,24.07,0,0,1,6.042,0c.382.044.757.112,1.133.172A26.039,26.039,0,0,1,28.321,69.48M26.432,14.065v-.849a1.888,1.888,0,0,1,3.776,0V15.2c-.627-.041-1.251-.1-1.888-.1s-1.261.054-1.888.1ZM23.412,7.175a4.909,4.909,0,1,1,8.239,3.584,4.118,4.118,0,0,0-6.661,0,4.883,4.883,0,0,1-1.578-3.584" fill="#323f51"/>
          <path id="Path_1236" data-name="Path 1236" d="M38.07,6.582c-.017-.017-.021-.039-.038-.057s-.041-.021-.057-.038a22.233,22.233,0,0,0-31.393,0c-.017.017-.039.021-.057.038s-.021.041-.038.057a22.233,22.233,0,0,0,0,31.393c.017.017.021.039.038.057s.041.021.057.038a22.233,22.233,0,0,0,31.393,0c.017-.017.039-.021.057-.038s.021-.041.038-.057a22.233,22.233,0,0,0,0-31.393m.823,16.829h3.341a19.9,19.9,0,0,1-5.09,12.219,1.107,1.107,0,0,0-1.513,1.513,19.9,19.9,0,0,1-12.219,5.09V38.894a1.133,1.133,0,1,0-2.266,0v3.341a19.9,19.9,0,0,1-12.219-5.09,1.107,1.107,0,0,0-1.513-1.513,19.9,19.9,0,0,1-5.09-12.219H5.664a1.133,1.133,0,0,0,0-2.266H2.323A19.9,19.9,0,0,1,7.413,8.927a1.11,1.11,0,0,0,.539.159,1.133,1.133,0,0,0,.8-.332,1.117,1.117,0,0,0,.174-1.34,19.9,19.9,0,0,1,12.219-5.09V4.154a1.133,1.133,0,1,0,2.266,0V2.323a19.9,19.9,0,0,1,12.219,5.09,1.117,1.117,0,0,0,.174,1.34,1.133,1.133,0,0,0,.8.332,1.11,1.11,0,0,0,.539-.159,19.9,19.9,0,0,1,5.09,12.219H38.894a1.133,1.133,0,0,0,0,2.266" transform="translate(6.042 21.146)" fill="#323f51"/>
          <path id="Path_1237" data-name="Path 1237" d="M1.14,2.266A1.133,1.133,0,1,0,1.14,0H1.125A1.127,1.127,0,0,0,0,1.133,1.14,1.14,0,0,0,1.14,2.266" transform="translate(27.195 28.698)" fill="#323f51"/>
          <path id="Path_1238" data-name="Path 1238" d="M15.458,5.465a1.145,1.145,0,0,0-.122-.18,1.245,1.245,0,0,0-.154-.23,1.3,1.3,0,0,0-.231-.157,1.22,1.22,0,0,0-.181-.121l-6-2.134L1.513.063A1.134,1.134,0,0,0,.066,1.51L4.78,14.767a1.032,1.032,0,0,0,.122.181,1.245,1.245,0,0,0,.154.23,1.289,1.289,0,0,0,.231.156,1.122,1.122,0,0,0,.181.122L18.726,20.17a1.177,1.177,0,0,0,.379.065.2.2,0,0,1,.03,0,1.134,1.134,0,0,0,.956-1.742ZM7.917,13.923l6.008-6.008,3.314,9.321Zm4.4-7.613L6.313,12.319,3,3Z" transform="translate(18.201 33.308)" fill="#323f51"/>
        </g>
      </g>
      <g id="Group_846" data-name="Group 846" transform="translate(0 33.724)">
        <g id="Group_359" data-name="Group 359" transform="translate(0)">
          <g id="Group_314" data-name="Group 314" transform="translate(63.262 39.24)">
            <path id="Path_568" data-name="Path 568" d="M1013.206,533.649a14.1,14.1,0,0,1-4.091-2.7c-.6-.557-.876-1.181-.275-1.853.576-.643,1.164-.341,1.706.147,4.23,3.811,8.891,4.01,13.855,1.64.248-.118.5-.224.744-.348.613-.313,1.2-.333,1.559.33a1.1,1.1,0,0,1-.545,1.641C1022,534.663,1017.717,535.489,1013.206,533.649Z" transform="translate(-998.515 -490.036)" fill="#323f51" stroke="#323f51" stroke-width="2"/>
            <path id="path-6" data-name="Path 574" d="M2.909,2.509A9.057,9.057,0,0,1,.378,1.133C0,.849-.163.53.208.187.564-.141.928.013,1.263.262c2.616,1.945,5.5,2.047,8.569.837.153-.06.31-.114.46-.178.379-.16.742-.17.964.168s.093.654-.337.838A10.879,10.879,0,0,1,2.909,2.509Z" transform="matrix(-0.951, 0.309, -0.309, -0.951, 11.746, 2.88)" fill="#323f51" stroke="#313f50" stroke-width="2"/>
            <path id="path-7" data-name="Path 573" d="M2.909,2.509A9.057,9.057,0,0,1,.378,1.133C0,.849-.163.53.208.187.564-.141.928.013,1.263.262c2.616,1.945,5.5,2.047,8.569.837.153-.06.31-.114.46-.178.379-.16.742-.17.964.168s.093.654-.337.838A10.879,10.879,0,0,1,2.909,2.509Z" transform="matrix(-0.966, -0.259, 0.259, -0.966, 42.542, 6.13)" fill="#323f51" stroke="#313f50" stroke-width="2"/>
            <path id="path-8" data-name="Subtraction 6" d="M2304.309,2230.067a5.154,5.154,0,0,1-3.646-1.5,4.638,4.638,0,0,1,.013-6.511,5.027,5.027,0,0,1,3.485-1.28h.077a4.82,4.82,0,0,1,3.254,1.114,2.465,2.465,0,0,0-.59-.069h-.037a1.959,1.959,0,0,0-1.5,3.334,2.2,2.2,0,0,0,1.561.644l.085,0a1.833,1.833,0,0,0,1.806-1.445,5.422,5.422,0,0,1,.071,1,4.977,4.977,0,0,1-1.225,3.368,4.414,4.414,0,0,1-3.156,1.35C2304.441,2230.066,2304.374,2230.067,2304.309,2230.067Z" transform="translate(-2293.271 -2203.032)" fill="#323f51" stroke="rgba(0,0,0,0)" stroke-miterlimit="10" stroke-width="1"/>
            <path id="path-9" data-name="Exclusion 2" d="M2303.941,2230.4h-.039a4.535,4.535,0,0,1-3.393-1.255,4.856,4.856,0,0,1-1.174-3.517,5.042,5.042,0,0,1,1.322-3.485,4.557,4.557,0,0,1,3.326-1.371h.011a4.556,4.556,0,0,1,3.515,1.662,2.067,2.067,0,0,0-1.407-.487h-.035a1.969,1.969,0,0,0-1.505,3.354,2.213,2.213,0,0,0,1.566.645l.088,0a1.907,1.907,0,0,0,1.886-2.03,2.117,2.117,0,0,0-.146-.843,5.107,5.107,0,0,1,.687,2.626,4.753,4.753,0,0,1-1.3,3.418A4.678,4.678,0,0,1,2303.941,2230.4Zm4.007-7.34a4.777,4.777,0,0,0-.439-.626,1.714,1.714,0,0,1,.441.625Z" transform="translate(-2270.904 -2203.184)" fill="#323f51" stroke="rgba(0,0,0,0)" stroke-miterlimit="10" stroke-width="1"/>
          </g>
          <g id="Group_313" data-name="Group 313" transform="translate(20.76)">
            <path id="Path_557" data-name="Path 557" d="M64.23,140.73c-.224,17.962-.448,30.054-.671,48.015a94.7,94.7,0,0,1-18.445.345" transform="translate(-20.03 31.788)" fill="none" stroke="#353f4f" stroke-linecap="round" stroke-linejoin="round" stroke-width="3"/>
            <path id="Path_558" data-name="Path 558" d="M86.149,141.073a461.389,461.389,0,0,0-.073,47.459,42.689,42.689,0,0,1,18.543.27" transform="translate(-4.068 33.932)" fill="none" stroke="#353f4f" stroke-linecap="round" stroke-linejoin="round" stroke-width="3"/>
            <path id="Path_559" data-name="Path 559" d="M71.216,19.4c-14.289,7.92-22.95,23.1-29.088,38.243a209.17,209.17,0,0,0-14.883,90.75c.358,5.941,1.016,12.035,3.749,17.323,3.47,6.715,9.925,11.408,16.692,14.774,12.842,6.391,27.32,8.807,41.645,9.577,12.177.655,24.683.124,36.046-4.3s21.5-13.266,25.05-24.932c2.1-6.905,1.807-14.279,1.495-21.49q-.46-10.647-.921-21.293c-.822-19-1.708-38.345-8.093-56.265S123.686,27.246,105.7,21.059c-5.728-1.971-12.706-6.622-18.682-5.637-12.978,2.137-14.109,3.033-15.8,3.975" transform="translate(-26.875 -15.287)" fill="none" stroke="#353f4f" stroke-miterlimit="10" stroke-width="4.5"/>
            <path id="Path_564" data-name="Path 564" d="M51.554,65.951" transform="translate(-17.614 3.726)" fill="#6bbcb2"/>
          </g>
          <path id="Path_575" data-name="Path 575" d="M-293.06-107.636c12.715-3.192,21.605-5.994,31.512-11.2,12.418-6.524,19.008-15.524,21.563-24.571s1.389-18.252.22-27.375" transform="translate(438.721 213.867)" fill="none" stroke="#323f51" stroke-linecap="round" stroke-linejoin="round" stroke-width="3"/>
          <path id="Path_576" data-name="Path 576" d="M-270.763-170.78a45.676,45.676,0,0,0-12.868,12.944c-5.071,7.541-7.762,17.945-8.805,28.4s-.567,21.1-.09,31.643" transform="translate(293.06 259.75)" fill="none" stroke="#323f51" stroke-linecap="round" stroke-linejoin="round" stroke-width="3"/>
        </g>
      </g>
    </g>
    <path id="Polygon_1" data-name="Polygon 1" d="M5.4,0l5.4,12.6H0Z" transform="translate(603.131 830.619) rotate(-60)" fill="#323f51"/>
  </g>
  <g id="Group_182" data-name="Group 182" transform="matrix(1, 0, 0, 1, -268.888489, 246.633087)">
    <path id="path-10" data-name="Path 368" d="M73.035,108.8c4.195,16.372.948,25.313-1.02,42.1a326.959,326.959,0,0,0-.708,69.429,59.81,59.81,0,0,0-19.913-.274" transform="translate(20.372 67.945)" fill="none" stroke="#903" stroke-linecap="round" stroke-linejoin="round" stroke-width="3"/>
    <path id="path-11" data-name="Path 369" d="M83.627,108.729c.956,40.812-6.258,73.224-5.216,114.034q11.034-1.008,22.118-1.3" transform="translate(39.499 67.892)" fill="none" stroke="#903" stroke-linecap="round" stroke-linejoin="round" stroke-width="3"/>
    <path id="Path_370" data-name="Path 370" d="M72.089,13.2,66.43,29.113H75.9L70.478,44.665" transform="translate(31.057)" fill="none" stroke="#903" stroke-linecap="round" stroke-width="3"/>
    <path id="Path_371" data-name="Path 371" d="M52.483,14.609,52.536,31.5l8.91-3.2L61.6,44.764" transform="translate(21.145 1)" fill="none" stroke="#903" stroke-linecap="round" stroke-width="3"/>
    <path id="Path_372" data-name="Path 372" d="M94.748,15.262,83.117,27.506l8.652,3.843L80.5,43.362" transform="translate(41.06 1.464)" fill="none" stroke="#903" stroke-linecap="round" stroke-width="3"/>
    <path id="path-12" data-name="Path 373" d="M43.509,104.53c3.432,13.45,10.885,25.532,19.242,36.614,6.684,8.86,14.883,17.755,25.8,19.771,9.672,1.784,19.567-2.318,27.541-8.078,19.528-14.1,30.683-39.466,26.6-63.206-4.569-26.569-32.136-52.772-60.409-50.587C52.768,41.324,37.08,79.338,43.509,104.53Z" transform="translate(13.752 18.275)" fill="none" stroke="#903" stroke-miterlimit="10" stroke-width="3.76"/>
    <g id="Group_180" data-name="Group 180" transform="translate(117.005 93.812)">
      <path id="Path_374" data-name="Path 374" d="M77.839,64.437A30.412,30.412,0,0,0,89,60.323" transform="translate(-77.839 -60.323)" fill="none" stroke="#903" stroke-linecap="round" stroke-linejoin="round" stroke-width="2"/>
      <path id="Path_375" data-name="Path 375" d="M78.28,65.038a25.89,25.89,0,0,0,8.162.347" transform="translate(-77.526 -56.972)" fill="none" stroke="#903" stroke-linecap="round" stroke-linejoin="round" stroke-width="2"/>
    </g>
    <g id="Group_181" data-name="Group 181" transform="translate(83.003 93.812)">
      <path id="Path_376" data-name="Path 376" d="M69.124,64.437a30.415,30.415,0,0,1-11.161-4.114" transform="translate(-57.963 -60.323)" fill="none" stroke="#903" stroke-linecap="round" stroke-linejoin="round" stroke-width="2"/>
      <path id="Path_377" data-name="Path 377" d="M67.439,65.038a25.9,25.9,0,0,1-8.164.347" transform="translate(-57.031 -56.972)" fill="none" stroke="#903" stroke-linecap="round" stroke-linejoin="round" stroke-width="2"/>
    </g>
    <path id="Path_378" data-name="Path 378" d="M117.075,91.177s-34.912-29.157-64.07,0" transform="translate(21.516 46.207)" fill="none" stroke="#903" stroke-linecap="round" stroke-linejoin="round" stroke-width="2"/>
    <path id="path-13" data-name="Path 379" d="M110.987,111.471l10.456-4.149c3.986-1.541,8.071-3.143,11.238-6.013s5.255-7.341,4.118-11.46a16.417,16.417,0,0,0-3.622-5.948A131.661,131.661,0,0,0,84.064,47.58" transform="translate(43.59 24.433)" fill="none" stroke="#903" stroke-linecap="round" stroke-linejoin="round" stroke-width="3"/>
    <path id="path-14" data-name="Path 380" d="M63.627,115.268a91.891,91.891,0,0,1-20.084-4.976c-6.957-2.587-13.521-6.819-17.612-13.013a17.941,17.941,0,0,1-3.182-8.814,17.739,17.739,0,0,1,3.04-10.24c5.355-8.448,15.029-12.938,24.174-16.987L76.125,49.654" transform="translate(0 25.907)" fill="none" stroke="#903" stroke-linecap="round" stroke-linejoin="round" stroke-width="3"/>
  </g>
  <g id="Group_843" data-name="Group 843" transform="matrix(1, 0, 0, 1, 116.63446, -499.280579)">
    <g id="Group_187" data-name="Group 187" transform="translate(521.805 552.627)">
      <g id="g-3" transform="translate(106.883 287.596)">
        <path id="path-15" data-name="Path 417" d="M80.795,278.639c4.941,3.9,10.431,3,14.927-.143" transform="translate(-79.785 -259.075)" fill="none" stroke="#7dc9d7" stroke-linecap="round" stroke-linejoin="round" stroke-width="2"/>
      </g>
      <g id="g-4" data-name="Layer 42" transform="translate(41.308 236.936)">
        <path id="Path_418" data-name="Path 418" d="M91.914,333.355c2.236,31.636,1.663,54.751.907,86.663,13.733-1.516,17.734-2.806,30.847-6.691" transform="translate(-6.579 -170.768)" fill="none" stroke="#7dc9d7" stroke-linecap="round" stroke-linejoin="round" stroke-width="3"/>
        <path id="Path_419" data-name="Path 419" d="M80.824,332.149c-7.307,32.118-9.819,53.351-6.347,84.9a113.407,113.407,0,0,0-26.2-2.354" transform="translate(-36.524 -171.596)" fill="none" stroke="#7dc9d7" stroke-linecap="round" stroke-linejoin="round" stroke-width="3"/>
        <path id="Path_421" data-name="Path 421" d="M53.609,369.138c-.223,4.03.039,8.234,1.917,11.807,2.592,4.932,7.784,7.86,12.783,10.318,12.659,6.227,26.446,11.311,40.521,10.364s28.418-9.241,32.811-22.646c1.924-5.87,1.846-12.18,1.749-18.357l-.818-52.2c-.349-22.188-.794-50-20.024-65.052-13.3-10.408-24.972-8.079-33.064,6.108-8.708,15.262-10.36,34.973-14.9,51.69C68.507,323.559,54.9,345.782,53.609,369.138Z" transform="translate(-32.911 -236.936)" fill="none" stroke="#7dc9d7" stroke-miterlimit="10" stroke-width="4.503"/>
        <path id="Path_422" data-name="Path 422" d="M120.017,280.682A49.687,49.687,0,0,1,139.149,301.9c2.364,4.733,4.047,10.4,1.887,15.23-1.5,3.354-4.629,5.713-7.924,7.34-12.2,6.022-26.989,3.63-39.78,8.259" transform="translate(-9.606 -204.915)" fill="none" stroke="#7dc9d7" stroke-linecap="round" stroke-linejoin="round" stroke-width="3"/>
        <path id="Path_423" data-name="Path 423" d="M69.113,279.31a25.73,25.73,0,0,0-19.245,24.275,16.892,16.892,0,0,0,1.627,7.672c2.219,4.369,6.7,7.042,10.991,9.413A478.5,478.5,0,0,0,109.6,343.445" transform="translate(-32.433 -205.543)" fill="none" stroke="#7dc9d7" stroke-linecap="round" stroke-linejoin="round" stroke-width="3"/>
        <path id="Path_424" data-name="Path 424" d="M43.008,250.737l12.735,23.272L74.971,254.1s7.15-7.849,0-12.757-15.842,4.066-15.842,4.066-2.943-9.532-10.654-7.991S39.855,244.976,43.008,250.737Z" transform="translate(-41.308 -236.721)" fill="none" stroke="#7dc9d7" stroke-linecap="round" stroke-linejoin="round" stroke-width="4"/>
      </g>
    </g>
    <path id="path-16" data-name="Path 436" d="M1013.962,500.6a3.693,3.693,0,0,1,4.043,3.909,3.772,3.772,0,0,1-3.747,4.034,4.151,4.151,0,0,1-4.423-4.017A3.845,3.845,0,0,1,1013.962,500.6Z" transform="translate(-382.958 338.42)" fill="#7dc9d7"/>
    <path id="path-17" data-name="Path 437" d="M1015.224,504.122a1.582,1.582,0,0,1,1.731,1.674,1.615,1.615,0,0,1-1.6,1.727,1.775,1.775,0,0,1-1.894-1.72A1.645,1.645,0,0,1,1015.224,504.122Z" transform="translate(-382.495 338.87)" fill="#fff"/>
    <path id="Subtraction_9" data-name="Subtraction 9" d="M2870.882,2682.74h-.033a3.82,3.82,0,0,1-2.859-1.058,4.09,4.09,0,0,1-.989-2.963,4.247,4.247,0,0,1,1.114-2.937,3.839,3.839,0,0,1,2.8-1.156h.01a3.809,3.809,0,0,1,2.722,1.136,4.19,4.19,0,0,1,1.194,3.015,4.009,4.009,0,0,1-1.1,2.879A3.941,3.941,0,0,1,2870.882,2682.74Zm1.389-3.95h-.029a1.659,1.659,0,0,0-1.268,2.826,1.867,1.867,0,0,0,1.321.544h.073a1.75,1.75,0,0,0,1.157-2.9A1.705,1.705,0,0,0,2872.271,2678.79Z" transform="translate(-2219.73 -1835.775)" fill="#7dc9d7" stroke="rgba(0,0,0,0)" stroke-miterlimit="10" stroke-width="1"/>
  </g>
  <rect x="-3567.851" y="710.813" width="4921.251" height="169.627" style="fill: rgb(216, 216, 216); stroke: rgb(0, 0, 0);"/>
</svg>