<?xml version="1.0" encoding="utf-8"?>
<svg viewBox="-1744.285 -878.927 750.666 956.855" xmlns="http://www.w3.org/2000/svg">
  <defs>
    <clipPath id="clip-5">
      <rect id="Rectangle_367" data-name="Rectangle 367" width="787.201" height="890.531" fill="none"/>
    </clipPath>
    <clipPath id="clip-path">
      <rect id="Rectangle_374" data-name="Rectangle 374" width="35.569" height="27.465" fill="#323f51"/>
    </clipPath>
  </defs>
  <g id="Group_1051" data-name="Group 1051" transform="matrix(1, 0, 0, 1, -4521.081695, 8659.832119)">
    <g transform="matrix(1, 0, 0, 1, -579.231018, -1098.350342)">
      <g id="Group_1057" data-name="Group 1057" transform="matrix(1, 0, 0, 1, 9268.492331, -370.425445)">
        <g>
          <path id="path-13" data-name="Path 1346" d="M -5406.154 -7975.294 L -5364.199 -7975.294 C -5183.867 -7975.294 -5123.121 -7779.65 -5208.564 -7584.01 C -5210.359 -7579.902 -5228.961 -7403.921 -5230.85 -7399.881 C -5320.456 -7208.371 -5529.432 -7192.726 -5705.977 -7192.726 L -5747.936 -7192.726 C -5928.267 -7192.728 -5997.945 -7367.913 -5903.564 -7584.01 C -5809.186 -7800.108 -5586.484 -7975.294 -5406.154 -7975.294 Z" fill="#fff" style="" transform="matrix(0.893768, -0.44853, 0.44853, 0.893768, 2811.212787, -3298.611325)"/>
          <g transform="matrix(1, 0, 0, 1, -6955.447754, -1170.755371)">
            <g transform="matrix(-1, 0, 0, 1, 2733.979492, -21.34597)">
              <g id="Group_1052" data-name="Group 1052" transform="matrix(0.986523, 0, 0, 0.915957, -1971.177612, 4315.580566)" style="">
                <g id="Group_884" data-name="Group 884" transform="translate(2934 -12194.172)">
                  <g id="Group_883" data-name="Group 883">
                    <g id="Group_882" data-name="Group 882" clip-path="url(#clip-5)">
                      <path id="Path_1308" data-name="Path 1308" d="M33.284,0,0,11.1V0Z" transform="translate(-0.001 -0.001)" fill="#f8fbff"/>
                      <path id="Path_1310" data-name="Path 1310" d="M344.575,625.915c-.883-13.189-29.719-45.72-29.719-45.72-19.422-45.074-37.492-150.848-37.492-150.848-3.311-123.543-17.307-195.075-28.634-233.611-7.23-24.652-13.4-35.8-14.978-38.439-.251-.423-.386-.635-.386-.635a4.526,4.526,0,0,0-.441.423,143.878,143.878,0,0,0-11.442,11.92c-77.685,90.32-11.325,234.979-9.288,268.036,2.117,34.609,75.751,148.133,75.751,148.133,2.538,8.382,3.722,14.1,1.573,21.162-2.536,8.325,10.38,17.383,11.948,25.146s5.7,7.394,7.283,5.067S305.214,619.692,304.7,616s7.867,8.7,9.794,16.868-6.083,28.517,6.736,25.68,24.222-19.443,23.342-32.629" transform="translate(238.826 203.502)" fill="#f4a671"/>
                      <path id="Path_1311" data-name="Path 1311" d="M156.18,85.311s-.637,13.73,7.6,16.419-8.486,32.314-7.171,52.325S166.77,182.1,166.77,182.1s-4.251-11.005-1.874-17.812c0,0-.379,14.157,9.959,21.3s7.559,13.316,7.559,13.316,23.365-7,24.02-24.521c0,0,1,7.922.2,11.2,0,0,20.176-15.15,21.139-32.6s-15.886-32.181-23.553-32.45S179.421,105.2,179.885,99.5s-23.7-14.192-23.7-14.192" transform="translate(202.861 110.817)" fill="#2c3a64"/>
                      <path id="Path_1313" data-name="Path 1313" d="M329.511,476.152H143.3c-.887-4.934-1.8-9.824-2.683-14.651-2.729-14.7-5.345-28.825-7.856-42.131l7.7-2.49,83.292-26.857,4.285-13.589,7.205-22.873,5.736-18.222,18.546-4.89,16.553-4.352a.21.21,0,0,1,.11-.021L303,319a42.929,42.929,0,0,1,1.819,4.586c2.055,5.929,5.69,18.351,10.019,41.57,4.046,21.661,8.679,52.736,13.18,96.686.3,2.9.6,5.842.906,8.876q.166,1.721.326,3.437c.085.671.175,1.322.26,1.993" transform="translate(172.453 414.379)" fill="#2b478b"/>
                      <path id="Path_1314" data-name="Path 1314" d="M 329.511 479.381 C 312.466 497.914 143.052 479.651 143.3 479.381 C 142.413 474.447 141.5 469.557 140.617 464.73 C 137.888 450.03 135.272 435.905 132.761 422.599 L 140.461 420.109 L 223.753 393.252 L 228.038 379.663 L 235.243 356.79 L 240.979 338.568 L 259.417 333.068 L 265.369 331.316 L 315.069 316.516 L 315.437 322.231 C 315.937 329.176 316.975 343.177 319.118 367.847 C 321.063 390.393 328.623 470.933 328.918 473.949 C 329.029 475.096 329.137 476.242 329.244 477.386 C 329.329 478.057 329.419 478.708 329.504 479.379" transform="translate(172.453 411.149)" fill="#233862"/>
                      <path id="Path_1315" data-name="Path 1315" d="M 267.529 72.786 L 172.276 217.307 C 172.276 217.307 161.386 195.972 149.291 203.626 C 130.421 215.551 89.881 174.737 98.334 117.113 C 98.893 113.347 99.555 109.768 100.288 106.368 C 119.293 78.984 102.102 62.266 168.268 32.234 C 212.01 5.817 267.529 72.786 267.529 72.786" transform="translate(126.247 27.597)" fill="#2c3a64"/>
                      <path id="Path_1316" data-name="Path 1316" d="M302.388,261.237c-13.329,12.212-30.639,23.142-53.079,31.639-84.115,31.875-127.377-37-146.728-85.681,10.922-8.384,21.861-11.394,28.195-13.04,6.175-1.593,12.709-2.984,18.137-4,8.736-8.8,19.111-41.34,15.87-89.24l4.232.538L240,110.884s-.175,22.183,1.087,42.954c1,16.254,2.906,31.659,6.462,35.009,5.5.43,8.807.749,8.807.749a.169.169,0,0,0,.044.06,444.8,444.8,0,0,1,45.984,71.581" transform="translate(133.251 131.093)" fill="#ffb27d"/>
                      <path id="Path_1317" data-name="Path 1317" d="M202.473,110.584s-.189,22.164,1.085,42.954c-39.3,1.391-62.321-33.078-72.08-52.378Z" transform="translate(170.787 131.405)" fill="#ed985f"/>
                      <path id="Path_1318" data-name="Path 1318" d="M225.544,200.924s-92.727,7.439-96.472-50.378-18.236-95.8,40.812-102.992,71.99,14.125,77.931,33.117,1.752,116.83-22.27,120.253" transform="translate(162.074 59.914)" fill="#ffb27d"/>
                      <path id="Path_1319" data-name="Path 1319" d="M258.894,55.124c-15.456-16.477-26.054-11.973-31.8-6.357-52.513-24.661-82.582,18.659-82.582,18.659-3.57,41.881-31.974,67.551-31.974,67.551s17.585,9.378,55.953-3.136c11.718-3.826,21.817-12.969,30.2-23.813-14.1,27.464-34.372,47.895-34.372,47.895,45.221-24.5,59.806-90.492,61.236-97.463,5.989,4.727,17.863,15.072,21.958,25.691,5.566,14.428,9.578,44.6,18.344,43.014,0,0,16.212-47.327-6.966-72.041" transform="translate(146.189 53.487)" fill="#2c3a64"/>
                      <path id="Path_1322" data-name="Path 1322" d="M383.248,226.234c-11.541-57.734-47.3-74.269-47.3-74.269s-5.943-9.007-39.159-10.424c-5.17-.214-10.819-1.283-17.114-1.786-1.258-.085-2.538-.184-3.858-.267a.341.341,0,0,0,.041.064c1.264,1.94,34.772,53.46,32.912,67.3-1.9,14.1-123.874,9.274-132.711,2.159-7.088-5.738-19.4-44-23.99-58.962-1.163-3.727-1.846-6.01-1.846-6.01s-42.593,7.43-62.624,24.02c0,0,15.327,16.822,25.567,37.5.968,1.973,1.894,3.936,2.754,5.945a87.525,87.525,0,0,1,4.467,12.925c1.464,5.752.14,11.677-2.963,18.049-2.789,5.83-7.118,12.086-12.1,18.875-3.281,4.409-6.819,9.086-10.419,14.079,2.533,8.417,5.837,18.507,9.5,29.912,7.531,23.473,16.5,52.46,22.9,83.681a79.794,79.794,0,0,1-.8,35.4,81.636,81.636,0,0,1-4.635,13.474c-3.046,6.819-3.8,16.21-7.21,25.022-13.939,36.1-30.029,83.2-13.907,107.8,10.755,31.443,259.817-44.92,243.053-77.889,0,0,9.929-172.987,16.783-226.571.223-1.966.407-3.862.508-5.77a82.963,82.963,0,0,0-.016-8.886c21.59-9.83,22.169-25.372,22.169-25.372" transform="translate(113.796 181.193)" fill="#f99746"/>
                      <path id="Path_1323" data-name="Path 1323" d="M206.438,378.374c-35.871,11.493-70.8,16.429-98.509,18.433,3.416-8.812,5.941-16.8,8.984-23.617a81.633,81.633,0,0,0,4.635-13.474,79.8,79.8,0,0,0,.8-35.4c-6.4-31.216-23.4-84.471-30.935-107.942,20.125-44.885,40.922-20.406,40.922-20.406s60.822,27.28,86.713,77.565,18.341,94.923-12.615,104.84" transform="translate(118.75 245.905)" fill="#ed7d2b"/>
                      <path id="Path_1324" data-name="Path 1324" d="M107.68,144.9s57.925,37.018,72.735,115.057l17.516-5.561s-6.78-55.709-73.779-112.924Z" transform="translate(139.874 183.773)" fill="#2b478b"/>
                      <path id="Path_1325" data-name="Path 1325" d="M229.811,264.366l-18.341,1.2c3.674-67.661-30.282-113.852-40.32-125.961,6.292.506,11.994,1.115,17.111,1.791,48.035,69.5,41.549,122.968,41.549,122.968" transform="translate(222.321 181.347)" fill="#2b478b"/>
                      <path id="Path_1326" data-name="Path 1326" d="M 373.985 500.026 L 361.2 306.135 C 361.2 306.135 348.776 217.971 348.592 202.564 C 348.408 187.157 335.966 179.645 335.966 179.645 C 335.966 179.645 244.657 184.459 218.92 185.907 C 193.183 187.355 195.77 202 195.77 202 C 195.77 202 206.991 248.846 208.125 253.667 C 225.455 327.29 126.373 372.274 126.373 372.274 C 126.373 372.274 110.3 413.865 97.831 453.7 C 76.456 522.007 72.19 589.616 72.19 589.616 C 70.482 591.824 129.384 656.891 177.971 657.768 L 302.848 657.177 C 303.756 652.894 304.816 648.045 306.028 642.719 C 310.681 622.447 317.608 595.588 327.257 569.687 C 329.574 563.452 332.041 557.263 334.68 551.228 C 342.057 534.39 350.715 518.81 360.755 506.757 C 361.146 506.283 361.19 505.916 360.973 505.633 L 373.985 500.026 Z" transform="translate(113.921 233.355)" fill="#2b478b"/>
                      <path id="Path_1327" data-name="Path 1327" d="M139.209,195.714a7.692,7.692,0,1,1,9.658,5,7.689,7.689,0,0,1-9.658-5" transform="translate(180.359 241.212)" fill="#ed7d2b"/>
                      <path id="Path_1328" data-name="Path 1328" d="M139.781,195.534a7.692,7.692,0,1,1,9.66,5,7.69,7.69,0,0,1-9.66-5" transform="translate(181.102 240.976)" fill="#f99746"/>
                      <path id="Path_1329" data-name="Path 1329" d="M140.692,189.484a1.117,1.117,0,1,1,1.115,1.117,1.118,1.118,0,0,1-1.115-1.117" transform="translate(182.756 244.688)" fill="#2b478b"/>
                      <path id="Path_1330" data-name="Path 1330" d="M143.867,189.488a1.118,1.118,0,1,1,1.115,1.12,1.117,1.117,0,0,1-1.115-1.12" transform="translate(186.88 244.695)" fill="#2b478b"/>
                      <path id="Path_1331" data-name="Path 1331" d="M188.455,191.463a7.692,7.692,0,1,1,9.658,5,7.689,7.689,0,0,1-9.658-5" transform="translate(244.328 235.69)" fill="#ed7d2b"/>
                      <path id="Path_1332" data-name="Path 1332" d="M189.028,191.282a7.692,7.692,0,1,1,9.658,5,7.685,7.685,0,0,1-9.658-5" transform="translate(245.072 235.455)" fill="#f99746"/>
                      <path id="Path_1333" data-name="Path 1333" d="M189.939,185.234a1.117,1.117,0,1,1,1.113,1.117,1.115,1.115,0,0,1-1.113-1.117" transform="translate(246.727 239.167)" fill="#2b478b"/>
                      <path id="Path_1334" data-name="Path 1334" d="M193.113,185.239a1.118,1.118,0,1,1,1.115,1.117,1.117,1.117,0,0,1-1.115-1.117" transform="translate(250.85 239.173)" fill="#2b478b"/>
                      <path id="Path_1335" data-name="Path 1335" d="M 229.573 216.117 C 229.573 216.117 228.936 229.849 237.173 232.534 C 245.41 235.219 228.687 264.848 230 284.861 C 231.313 304.874 240.164 312.906 240.164 312.906 C 240.164 312.906 235.913 301.898 238.29 295.089 C 238.29 295.089 237.911 309.251 248.249 316.389 C 258.587 323.527 255.808 329.707 255.808 329.707 C 255.808 329.707 279.175 322.707 279.828 305.186 C 279.828 305.186 280.828 313.104 280.028 316.386 C 280.028 316.386 300.204 301.236 301.167 283.786 C 302.13 266.336 285.281 251.603 277.614 251.331 C 269.947 251.059 252.822 236.004 253.284 230.309 C 253.746 224.614 229.573 216.117 229.573 216.117" fill="#2c3a64" transform="matrix(0.959896, 0.301956, -0.260303, 0.959896, 81.68283, -69.189375)"/>
                      <path id="Path_1336" data-name="Path 1336" d="M156.17,102.668s13.817,8.377,23.65,7.4c9.736-.966,15.042-12.713,15.042-12.713a81.651,81.651,0,0,0-38.692,5.313" transform="translate(202.862 125.86)" fill="#fff2e9"/>
                      <path id="Path_1337" data-name="Path 1337" d="M275.2,476.449c-8.628-5.3-18.208-1.356-26.668,3.308,3.081-3.416,2.708-6.233,2.225-7.925s-6.035,4.106-12,6.759-7.527,9.4-7.527,9.4c-2.154.08-10.925-4.782-18.716-9.38C178.7,456.71,119.632,362.385,117.922,354.2s74.041-81.6,97.063-108.742-13.9-106.6-49.69-92.614c0,0-103.312,122.018-137.5,190.76,0,0,35.63,77.535,148.015,146.9l-.166.138s31.862,20.1,46.607,24.995c15.337,5.083,37.066-5.722,45.888-7s27.195,6.281,32.611-.129-9.906-22.436-25.555-32.055" transform="translate(36.105 196.414)" fill="#ffb27d"/>
                      <path id="Path_1338" data-name="Path 1338" d="M113.827,154.571l-46.41,45.34s10.6,66.949,80.841,75.692c0,0,57.652-46.159,23.2-94.238s-57.635-26.795-57.635-26.795" transform="translate(87.573 194.688)" fill="#f99746"/>
                    </g>
                  </g>
                </g>
              </g>
            </g>
          </g>
        </g>
      </g>
      <path id="Path_1341" data-name="Path 1341" d="M 1779.581 1798.383 C 1781.36 1797.551 1786.605 1795.094 1786.254 1792.474 C 1786.371 1792.359 1786.497 1792.252 1786.63 1792.155 C 1785.889 1792.079 1786.338 1791.519 1786.724 1792.07 C 1786.533 1791.533 1786.402 1790.977 1786.332 1790.412 C 1783.701 1790.565 1771.145 1788.036 1771.994 1790.48 C 1771.374 1789.464 1771.104 1790.327 1770.994 1790.424 C 1771.167 1790.647 1771.359 1790.856 1771.567 1791.048 C 1770.09 1791.87 1769.309 1792.914 1771.684 1793.228 C 1774.338 1793.579 1777.128 1793.859 1779.889 1794.047 C 1778.917 1794.917 1777.833 1795.653 1776.666 1796.236 C 1776.534 1796.298 1776.408 1796.359 1776.277 1796.421 C 1776.753 1795.95 1777.142 1795.459 1776.409 1795.721 C 1776.149 1796.007 1775.931 1796.328 1775.76 1796.675 C 1773.276 1797.936 1771.501 1799.436 1772.075 1800.596 C 1772.138 1801.47 1772.985 1801.702 1773.828 1801.804 L 1773.76 1801.836 C 1773.741 1801.846 1773.806 1801.814 1773.828 1801.804 C 1773.85 1801.82 1773.815 1801.823 1773.76 1801.836 C 1773.66 1801.884 1773.92 1801.992 1773.989 1802.006 C 1774.07 1801.916 1774.089 1801.864 1774.076 1801.831 L 1774.27 1801.85 C 1774.885 1802.007 1775.509 1802.124 1776.139 1802.201 C 1776.756 1802.279 1778.41 1802.547 1780.273 1802.701 C 1780.332 1802.92 1780.402 1803.078 1780.487 1802.977 C 1780.459 1803.011 1780.477 1802.887 1780.508 1802.722 C 1781.064 1802.763 1781.634 1802.791 1782.201 1802.804 C 1781.995 1802.926 1781.614 1803.02 1781.75 1803.104 C 1781.97 1803.06 1782.174 1802.956 1782.339 1802.804 C 1782.401 1802.804 1782.464 1802.81 1782.527 1802.81 C 1782.639 1802.951 1782.944 1802.957 1783.486 1802.795 C 1785.734 1802.704 1787.603 1802.186 1787.603 1800.681 C 1787.603 1798.743 1783.411 1798.402 1779.583 1798.381 M 1777.492 1789.875 C 1777.457 1789.935 1777.415 1789.992 1777.369 1790.045 L 1777.156 1790.045 C 1777.14 1789.801 1777.312 1789.345 1777.492 1789.876 M 1776.63 1789.96 C 1776.674 1789.838 1776.73 1789.794 1776.787 1789.828 C 1776.777 1789.919 1776.768 1789.978 1776.759 1790.041 L 1776.629 1790.041 C 1776.629 1790.004 1776.629 1789.962 1776.629 1789.962 M 1776.266 1790.036 L 1776.146 1790.036 C 1776.121 1789.98 1776.087 1789.889 1776.056 1789.8 C 1776.056 1789.8 1776.04 1789.766 1776.012 1789.687 C 1776.129 1789.615 1776.226 1789.853 1776.266 1790.039 M 1772.394 1790.576 C 1772.394 1790.576 1772.494 1790.563 1772.583 1790.56 C 1772.526 1790.595 1772.456 1790.601 1772.394 1790.576" fill="#323f51" clip-path="url(#clip-path)" transform="matrix(1, 0, 0, 1, 6444.797262, -7960.04483)"/>
      <path id="Path_1342" data-name="Path 1342" d="M 1805.735 1789.42 C 1805.728 1787.826 1799.79 1787.56 1795.603 1787.52 C 1795.792 1787.331 1795.982 1787.131 1796.171 1786.911 C 1796.305 1786.867 1796.434 1786.81 1796.557 1786.742 C 1796.522 1786.683 1796.49 1786.622 1796.463 1786.56 C 1796.491 1786.526 1796.517 1786.497 1796.544 1786.46 C 1796.565 1786.539 1796.581 1786.62 1796.592 1786.702 C 1796.916 1786.257 1797.275 1785.837 1797.663 1785.447 C 1797.683 1785.483 1797.713 1785.514 1797.75 1785.535 C 1797.806 1785.56 1797.826 1785.428 1797.804 1785.3 C 1799.852 1783.179 1803.304 1780.035 1802.36 1778.959 C 1802.413 1778.937 1802.46 1778.922 1802.513 1778.899 C 1802.813 1778.956 1802.836 1778.82 1802.793 1778.663 C 1802.928 1778.638 1803.003 1778.616 1802.993 1778.591 C 1802.868 1778.384 1802.725 1778.189 1802.564 1778.01 C 1802.617 1777.555 1801.884 1777.319 1801.693 1777.001 C 1801.762 1777.107 1801.81 1777.227 1801.835 1777.352 C 1801.67 1777.238 1801.498 1777.134 1801.32 1777.042 C 1801.628 1776.842 1801.22 1776.784 1800.976 1776.886 C 1800.635 1776.744 1800.282 1776.631 1799.923 1776.547 C 1800.052 1775.722 1799.715 1776.278 1799.751 1776.506 C 1797.921 1776.221 1796.066 1776.138 1794.219 1776.256 C 1794.166 1776.258 1794.114 1776.263 1794.062 1776.271 C 1793.834 1776.137 1793.63 1775.964 1793.462 1775.76 C 1793.416 1775.681 1793.425 1775.66 1793.453 1775.647 C 1793.19 1775.772 1792.916 1775.872 1792.635 1775.947 C 1792.644 1775.892 1792.644 1775.837 1792.635 1775.783 C 1792.617 1775.723 1792.557 1775.84 1792.529 1775.975 C 1791.169 1776.321 1789.229 1776.392 1789.408 1775.996 C 1789.045 1776.787 1788.786 1776.485 1788.85 1777.568 C 1788.574 1775.268 1788.884 1778.481 1788.603 1777.039 C 1788.619 1777.127 1788.679 1777.402 1788.742 1777.714 C 1787.363 1778.247 1786.676 1778.774 1788.277 1779 C 1788.436 1779.021 1788.716 1779.038 1789.083 1779.05 C 1789.055 1779.15 1789.046 1779.235 1789.101 1779.285 C 1789.112 1779.207 1789.119 1779.13 1789.123 1779.052 C 1790.634 1779.099 1793.623 1779.07 1796.442 1778.995 C 1796.319 1779.048 1796.246 1779.176 1796.261 1779.309 C 1796.232 1780.378 1796.63 1779.199 1796.69 1778.989 L 1797.666 1778.961 C 1797.735 1779.061 1797.81 1779.105 1797.886 1779.07 C 1797.962 1779.035 1798.023 1778.986 1798.093 1778.947 C 1798.375 1778.938 1798.651 1778.928 1798.92 1778.918 C 1798.845 1779.006 1798.804 1779.119 1798.805 1779.235 C 1798.759 1779.711 1799.034 1779.05 1799.034 1778.913 L 1799.534 1778.894 C 1799.274 1779.133 1799.211 1779.257 1799.234 1779.314 C 1797.778 1780.429 1796.408 1781.654 1795.138 1782.977 C 1795.126 1782.942 1795.101 1782.913 1795.069 1782.896 C 1794.937 1782.833 1794.855 1783.038 1794.928 1783.19 C 1793.387 1784.75 1791.94 1786.402 1790.596 1788.135 C 1790.431 1788.33 1790.409 1788.609 1790.54 1788.829 C 1790.467 1788.938 1790.425 1789.066 1790.421 1789.198 C 1791.055 1789.62 1791.77 1789.905 1792.521 1790.035 C 1793.459 1790.435 1793.264 1790.267 1792.964 1790.064 C 1793.205 1790.132 1793.459 1790.195 1793.722 1790.253 C 1793.797 1791.306 1795.312 1790.965 1796.142 1790.673 C 1796.542 1790.724 1796.949 1790.773 1797.359 1790.807 C 1797.284 1790.879 1797.248 1790.982 1797.259 1791.086 C 1797.291 1791.486 1797.572 1791.061 1797.641 1790.832 C 1798.371 1790.894 1799.106 1790.932 1799.823 1790.945 C 1799.717 1791.015 1799.623 1791.083 1799.57 1791.062 C 1799.662 1791.1 1799.827 1791.022 1799.97 1790.946 C 1800.651 1790.956 1801.312 1790.946 1801.927 1790.905 C 1804.115 1790.767 1805.738 1790.305 1805.734 1789.419 M 1800.334 1780.519 L 1800.259 1780.625 C 1800.275 1780.584 1800.301 1780.548 1800.334 1780.519 M 1801.622 1778.819 C 1801.631 1778.867 1801.624 1778.918 1801.603 1778.963 Z M 1799.73 1781.547 C 1799.758 1781.497 1799.787 1781.447 1799.815 1781.399 C 1800.015 1781.55 1799.868 1781.599 1799.73 1781.547 M 1800.23 1782.216 C 1799.669 1781.081 1801.036 1782.633 1800.23 1782.216 M 1800.562 1781.846 C 1799.851 1781.125 1800.492 1781.62 1800.53 1781.673 C 1800.603 1781.773 1800.615 1781.834 1800.562 1781.846 M 1800.995 1781.498 C 1801.045 1781.868 1799.486 1780.745 1800.995 1781.498 M 1790.654 1776.647 C 1790.64 1776.8 1790.614 1776.952 1790.575 1777.102 C 1790.494 1776.947 1790.537 1776.021 1790.654 1776.647 M 1790.416 1776.688 C 1790.422 1776.942 1790.422 1777.081 1790.416 1777.148 C 1790.387 1777.046 1790.371 1776.941 1790.368 1776.835 C 1790.375 1776.71 1790.391 1776.66 1790.414 1776.688 M 1789.406 1776.478 L 1789.324 1776.478 C 1789.343 1776.394 1789.462 1775.841 1789.406 1776.478 M 1790.152 1776.631 C 1790.265 1776.383 1790.352 1776.841 1790.372 1777.164 C 1790.335 1777.174 1790.3 1777.186 1790.263 1777.195 C 1790.232 1777.069 1790.195 1776.885 1790.151 1776.631 M 1799.53 1778.89 L 1799.863 1778.875 C 1799.803 1778.915 1799.74 1778.96 1799.677 1779.003 C 1799.642 1778.95 1799.59 1778.91 1799.53 1778.89 M 1794.625 1790.44 L 1794.961 1790.497 C 1794.684 1790.529 1794.587 1790.482 1794.625 1790.44" fill="#323f51" clip-path="url(#clip-path)" transform="matrix(1, 0, 0, 1, 6444.797262, -7960.04483)"/>
      <path id="Path_1343" data-name="Path 1343" d="M 1790.215 1790.046 C 1790.652 1790.334 1791.201 1790.396 1791.692 1790.215 C 1791.692 1790.215 1789.817 1789.435 1790.215 1790.046" fill="#323f51" clip-path="url(#clip-path)" transform="matrix(1, 0, 0, 1, 6444.797262, -7960.04483)"/>
      <path id="Path_1164" data-name="Path 1164" d="M 737.853 1938.055" fill="none" stroke="#323f51" stroke-width="4.5" transform="matrix(1, 0, 0, 1, 6444.797262, -7960.04483)"/>
    </g>
  </g>
</svg>