<svg viewBox="12.563 -429.99 1187.545 1111.588" xmlns="http://www.w3.org/2000/svg"><defs><clipPath id="balance_svg__a"><path d="M0 0h1166v1094H0z"/></clipPath></defs><g clip-path="url(#balance_svg__a)" transform="translate(15.873 -403.324)"><path fill="#fff" d="M616 3c299.338 0 542 242.662 542 542s-92.156 445.531-612 542C246.662 1087 4 545 4 545S316.662 3 616 3Z" data-name="Path 485"/><path fill="#840729" d="M918.806 264.925c-42.03-.864-82.866-.121-124.022 9.59-41.459 9.783-81.3 25.952-118.617 46.4-15.6 8.551-32.537 20.508-33.86 38.248-.825 11.074 4.864 21.509 10.865 30.851 8.7 13.558 18.78 26.731 32.413 35.318 24.175 15.227 54.916 13.561 83.4 11.286 71.584-5.721 143.271-12.016 213.786-25.6 25.482-4.909 50.974-10.829 74.661-21.437 12.873-5.767 26.385-14.529 29.163-28.361 3.99-19.849-14.5-37.188-29.936-46.137-30.894-17.907-37.834-24.893-72.2-32.941-14.6-3.419-41.286-14.05-79.1-17.483" data-name="Path 489"/><path fill="#840729" d="M822.793 593.669c39.795.058 78.405 1.698 117.018 12.3 38.894 10.68 76.043 27.712 110.659 48.959 14.47 8.886 30.09 21.202 30.743 38.955.406 11.077-5.332 21.379-11.325 30.585-8.696 13.348-18.674 26.288-31.862 34.566-23.389 14.68-52.419 12.34-79.29 9.44-67.531-7.283-135.151-15.148-201.407-30.266-23.945-5.464-47.864-11.937-69.916-23.053-11.984-6.042-24.47-15.093-26.631-28.97-3.101-19.915 14.974-36.832 29.886-45.433 29.837-17.21 36.637-24.037 69.42-31.323 13.93-3.096 39.54-13.126 75.433-15.726" data-name="Path 486"/><path fill="#557591" d="M225.47 524.047c40.207-9.473 79.6-17.264 121.138-17.164a479.109 479.109 0 0 1 89.937 9.024c22.1 4.285 57.133 7.443 73.502 23.804a66.822 66.822 0 0 1 14.127 21.373 47.315 47.315 0 0 1 3.532 22.164c-.74 8.263-5.64 15.732-11.579 21.775-29.358 29.888-71.254 34.938-111.467 40.538-69.958 9.74-140.138 19.001-210.678 21.536-25.494.913-51.208.938-76.14-3.58-13.555-2.457-28.335-7.447-33.845-19.158-7.904-16.811 6.302-36.045 19.303-47.194 26.01-22.306 31.244-29.95 62.61-44.219 13.329-6.063 36.79-21.033 72.428-31.919" data-name="Path 490"/><path fill="#557591" d="M284.029 215.023c30.1-1.695 59.375-2.106 88.995 4.489 29.838 6.64 58.6 18.314 85.611 33.394 11.292 6.308 23.589 15.243 24.772 29.078.737 8.635-3.2 16.932-7.377 24.384-6.06 10.807-13.1 21.349-22.757 28.394-17.124 12.492-39.174 11.934-59.614 10.845-51.369-2.735-102.823-5.917-153.53-14.823-18.323-3.221-36.67-7.23-53.781-14.946-9.3-4.2-19.1-10.719-21.274-21.463a36.06 36.06 0 0 1 14.982-37.01c21.9-14.744 23.853-20.485 48.367-27.611 10.415-3.029 38.186-11.661 65.237-15.263" data-name="Path 491"/><path fill="#557591" d="M338.555 350.686c-26.545-2.859-52.354-4.221-78.442 2.406-26.284 6.679-51.6 19.139-75.365 35.549-9.936 6.862-20.746 16.7-21.743 32.475-.619 9.848-.039 19.735 3.667 28.377 5.375 12.537 8.7 25.088 17.242 33.433 15.135 14.8 40.409 14.269 58.423 13.649 45.28-1.552 90.631-3.615 135.3-12.244 16.146-3.116 32.305-7.136 47.366-15.436 8.186-4.509 16.8-11.664 18.682-23.875 2.7-17.532-3.658-34-13.33-42.756-19.357-17.525-21.095-24.143-42.73-33.039-9.193-3.778-33.707-14.494-57.566-19.439" data-name="Path 492"/><path fill="#840729" d="M937.192 442.356c-26.271-4.756-51.914-7.967-78.413-3.227-26.7 4.776-52.843 15.39-77.719 30.053-10.4 6.132-21.89 15.168-24.015 30.832-1.327 9.78-1.454 19.683 1.62 28.566 4.466 12.893 6.885 25.649 14.8 34.584 14.037 15.846 39.285 17.131 57.3 17.805 45.273 1.7 90.657 2.892 135.832-2.51 16.329-1.953 32.736-4.8 48.354-12 8.486-3.912 17.594-10.428 20.348-22.477 3.948-17.29-1.213-34.173-10.233-43.6-18.05-18.868-19.308-25.593-40.253-36.015-8.9-4.43-32.579-16.876-56.021-23.52" data-name="Path 487"/><text x="56.23" y="19.994" style="fill:#fff;font-family:Lato-Black,Lato;font-size:30px;font-weight:800;letter-spacing:10px;white-space:pre" transform="rotate(3.326 -4459.52 3393.797)">ENERGI</text><text x="38.079" y="19.995" style="fill:#fff;font-family:Lato-Black,Lato;font-size:30px;font-weight:800;letter-spacing:10px;line-height:48.0124px;white-space:pre" transform="rotate(-3.383 7413.32 -2344.162)">NETVÆRK</text><text x="57.279" y="20" style="fill:#fff;font-family:Lato-Black,Lato;font-size:30px;font-weight:800;letter-spacing:10px;white-space:pre" transform="rotate(.751 -38460.829 58187.701)">STRESS</text><text x="75.867" y="20" style="fill:#fff;font-family:Lato-Black,Lato;font-size:30px;font-weight:800;letter-spacing:10px;white-space:pre" transform="rotate(-7.461 4820.49 22.047)">OPMÆRKSOMHED</text><text x="92.326" y="20" style="fill:#fff;font-family:Lato-Black,Lato;font-size:30px;font-weight:800;letter-spacing:10px;white-space:pre" transform="rotate(-5.386 4202.338 -6179.584)">BELASTNINGER</text><path fill="#27303e" d="M874.742 796.219c-6.732 1.721-30.337-9.9-36.6-10.953-50.1-8.45-67.326-11.95-117.31-21.068-30.985-5.649-92.877-13.946-127.086-20.163 11.123 12.456 25.764 37 33.787 48.361 16.645 23.563 48.154 32.135 77.324 27.18 9.92-1.685 21.59-1.467 26.112 10.109 5.552 14.207 6.793 29.583-1.816 42.975-2.859 4.447-11.009 7.719-16.759 7.752-86.126.482-172.255.349-258.381.277a24.543 24.543 0 0 1-8.955-1.4c-11.6-4.672-16.775-22.086-12.511-42.235 2.53-11.954 9.975-18.135 22.454-17.717a24.883 24.883 0 0 1 3.948.029c31.725 6.363 59.477 7.1 77.515-18.356 9.287-13.1 34-42.926 46.723-56.969-20.289-3.811-58.423-14.766-76.623-18.1-71.085-13-143.049-19.382-214.1-32.564-4.886-.906-6.394 2.008-11.075 0v-7.916c5.614-1.917 11.647-6.272 16.775-5.382 76.242 13.216 152.37 27.09 228.514 40.875q163.921 29.681 327.8 59.62c6.992 1.284 13.519 5.1 20.263 7.732Zm-162.345 37.177c-27.443-21.373-235.221-1.352-258.381-3.711s-4.847 42.975-4.847 42.975 258.8 11.3 267.377-4.423 0-3.672 0-3.672 23.294-9.797-4.148-31.17Zm-75.655-14.762-53.553-58.4-53.257 58.4Z" data-name="Path 488"/><text x="98.773" y="20" style="fill:#fff;font-family:Lato-Black,Lato;font-size:30px;font-weight:800;letter-spacing:10px;line-height:47.9991px;white-space:pre" transform="rotate(6.056 -5855.763 6038.957)">BEKYMRINGER</text></g></svg>