<?xml version="1.0" encoding="utf-8"?>
<svg xmlns="http://www.w3.org/2000/svg" xmlns:bx="https://boxy-svg.com" viewBox="-416.343 172.649 1813.702 313.332">
  <defs>
    
  </defs>
  <g id="Group_1348" data-name="Group 1348" transform="matrix(0.977665, 0, 0, 1.026609, -642.848248, -2067.757793)" style="">
    <path id="Path_729" data-name="Path 729" d="M 1086.696 2228.453 L 1086.696 2228.453 C 1589.854 2227.556 2112.186 2252.508 2013.491 2365.545 C 1914.796 2478.584 1841.009 2420.774 967.026 2441.252 L 967.026 2441.252 C 463.869 2442.149 241.733 2441.74 246.806 2320.097 C 251.879 2198.456 583.538 2229.352 1086.696 2228.453 Z" fill="#fff" style="" transform="matrix(0.999824, -0.017846, 0.019678, 0.999824, -45.717667, 20.68566)"/>
    <g id="Group_504" data-name="Group 504" transform="matrix(0.825793, -0.014217, 0.017213, 0.999853, 1212.545654, 2125.998535)" style="">
      <g id="g-1" data-name="Group 1348" transform="matrix(0.02705, -0.973827, 1.238126, 0.022915, -3008.840088, 972.325012)">
        <g id="g-3" data-name="Group 504" transform="matrix(0, 1, -1, 0, 876.199589, 2089.11643)">
          <path id="path-5" data-name="Path 211" d="M7.558,0h103.61c4.175,0,7.552,3.885,7.552,8.68s-3.377,8.674-7.552,8.674H7.558C3.384,17.354,0,13.473,0,8.68S3.384,0,7.558,0Z" transform="translate(0 28.177)" fill="#903"/>
          <path id="path-6" data-name="Path 212" d="M9.413,0a9.85,9.85,0,0,1,6.664,2.542L46.62,30.723a8.21,8.21,0,0,1,0,12.271L16.076,71.175a9.99,9.99,0,0,1-13.316.007,8.2,8.2,0,0,1-.005-12.269l23.9-22.054L2.755,14.813A8.2,8.2,0,0,1,2.76,2.542,9.812,9.812,0,0,1,9.413,0Z" transform="translate(69.345)" fill="#903"/>
        </g>
      </g>
    </g>
    <path id="Path_730" data-name="Path 730" d="M 379.396 2403.08 C 379.396 2403.08 406.922 2398.217 446.682 2392.544 C 506.341 2384.031 593.543 2373.693 656.62 2375.221 C 669.383 2375.424 682.124 2376.421 694.78 2378.209" fill="none" stroke="#323f51" stroke-width="5" style="" transform="matrix(0.995885, 0.08631, -0.095168, 0.995885, 229.574256, -36.524008)"/>
    <text transform="matrix(2.109167, 0, 0, 1.779329, -333.859589, -1830.005981)" style="fill: rgb(51, 51, 51); font-family: &quot;Roboto Slab&quot;; font-size: 50.5px; white-space: pre;" x="343.855" y="2356.99">Bange</text>
    <text transform="matrix(2.109167, 0, 0, 1.779329, 417.550995, -1827.296631)" style="fill: rgb(51, 51, 51); font-family: &quot;Roboto Slab&quot;; font-size: 50.5px; font-style: italic; white-space: pre;" x="343.855" y="2356.99">'Det er farligt'</text>
  </g>
</svg>
