<svg viewBox="861.981 197.225 104.158 89.849" xmlns="http://www.w3.org/2000/svg"><g data-name="Group 1501"><g data-name="Group 1493"><g data-name="Group 1490"><g data-name="Group 1479"><path fill="#ffbe06" d="m883.168 250.968 54.618-48.947a5.816 5.876 0 0 1 8.212.496l5.405 6.155a5.816 5.876 0 0 1-.492 8.298l-54.618 48.947-.613.263-18.227 7.772-5.276 2.25a1.585 1.602 0 0 1-1.993-2.27l2.838-5.023 9.813-17.357Z" data-name="Path 1941"/></g><g data-name="Group 1480"><path fill="#323f51" d="m932.456 206.799 5.33-4.777a5.816 5.876 0 0 1 8.213.496l5.404 6.156a5.816 5.876 0 0 1-.492 8.297l-5.331 4.777Z" data-name="Path 1942"/></g><g data-name="Group 1481"><path fill="#d7dcf0" d="m945.58 221.75-4.678 4.193-13.125-14.95 4.678-4.194z" data-name="Rectangle 528"/><path fill="#390075" d="m932.468 206.598.094.11 13.218 15.056-4.89 4.382-.093-.11-13.218-15.057Zm12.913 15.14L932.443 207l-4.466 4.004 12.937 14.737Z" data-name="Path 1943"/></g><g data-name="Group 1482"><path fill="#ffdc9c" d="M882.831 251.554c1.873 1.292 4.085-1.162 5.98.608 1.91 1.872-.606 4.327 1.049 6.163 1.607 1.88 4.318-.346 5.931 1.787 1.514 2.114-1.163 4.04-.117 6.072l-18.227 7.772-5.276 2.25a1.585 1.602 0 0 1-1.992-2.27l2.838-5.023Z" data-name="Path 1944"/><path fill="#390075" d="m882.79 251.348.126.086a3.2 3.233 0 0 0 2.682.147 2.888 2.918 0 0 1 3.962 3.796 3.026 3.058 0 0 0 .412 2.85c.739.86 1.716.81 2.753.756a2.89 2.92 0 0 1 3.26 4.426 3.2 3.233 0 0 0-.178 2.703l.07.137-23.646 10.077a1.726 1.743 0 0 1-2.17-2.47Zm12.698 14.762a3.603 3.64 0 0 1 .23-2.796 3.017 3.048 0 0 0-.033-3.12c-.782-1.038-1.834-.983-2.944-.925a2.87 2.899 0 0 1-3.459-3.94 3.015 3.046 0 0 0-.56-3.067c-.948-.887-1.974-.651-3.058-.403a3.602 3.64 0 0 1-2.774-.106l-12.58 22.252a1.445 1.46 0 0 0 1.815 2.067Z" data-name="Path 1945"/></g><g data-name="Group 1483" opacity=".3"><path fill="#323f51" d="m883.167 250.97 54.62-48.943a5.817 5.878 0 0 1 8.212.496l3.475 3.957a5.816 5.876 0 0 0-8.212-.496l-54.12 48.5a4.068 4.11 0 0 0-.83 1.03l-16.218 19.832a1.542 1.558 0 0 1 .09-1.407l2.839-5.024 9.812-17.357Z" data-name="Path 1946"/></g><g data-name="Group 1484" opacity=".55"><path fill="#fff" d="M869.978 274.579a1.61 1.626 0 0 0 .654-.132l5.276-2.25 18.227-7.772.613-.263 54.618-48.948a5.815 5.875 0 0 0 .491-8.297l1.544 1.758a5.816 5.876 0 0 1-.492 8.298l-54.618 48.948-.613.262-18.227 7.772-5.276 2.25a1.592 1.608 0 0 1-2.197-1.626Z" data-name="Path 1947"/></g><g data-name="Group 1485"><path fill="#323f51" d="M940.018 199.864a6.697 6.766 0 0 1 6.634 2.07l5.404 6.155a6.698 6.768 0 0 1-.565 9.543l-54.618 48.947a.873.882 0 0 1-.24.153l-24.117 10.284a2.425 2.45 0 0 1-2.79-.642 2.425 2.45 0 0 1-.295-2.878l12.985-22.966a.88.888 0 0 1 .178-.221l54.618-48.948a6.652 6.721 0 0 1 2.806-1.497Zm-44.197 65.3 54.51-48.852a4.95 5.002 0 0 0 .419-7.052l-5.405-6.156a4.95 5 0 0 0-6.98-.422l-54.51 48.85-12.911 22.84a.69.698 0 0 0 .086.833.696.703 0 0 0 .809.187Zm-12.653-14.196Z" data-name="Path 1948"/></g><g data-name="Group 1486"><path fill="#323f51" d="M882.626 250.698a.87.88 0 0 1 .703.127c.537.37 1.15.255 2.107.036a3.59 3.627 0 0 1 4.842 4.642c-.18 1.057-.259 1.682.232 2.226.492.576 1.114.572 2.175.516a3.59 3.627 0 0 1 3.985 5.411c-.33.934-.516 1.535-.217 2.119a.873.882 0 1 1-1.548.812 4.135 4.178 0 0 1 .12-3.523c.382-1.08.573-1.727.064-2.439-.513-.677-1.18-.678-2.315-.62a3.574 3.61 0 0 1-4.211-4.803c.193-1.132.274-1.797-.35-2.412-.621-.58-1.278-.466-2.386-.212a4.137 4.18 0 0 1-3.477-.3.873.882 0 0 1 .28-1.582Z" data-name="Path 1949"/></g><g data-name="Group 1487"><path fill="#323f51" d="M873.021 268.91a7.73 7.81 0 0 1 4.428 5.044l-5.276 2.25a1.585 1.602 0 0 1-1.992-2.27Z" data-name="Path 1950"/></g><g data-name="Group 1488"><path fill="#323f51" d="M932.243 205.943a.88.89 0 0 1 .257-.023.876.885 0 0 1 .6.295l13.124 14.951a.873.882 0 0 1 .218.638.873.882 0 0 1-.293.605l-4.678 4.193a.873.882 0 0 1-1.23-.074l-13.125-14.95a.873.882 0 0 1 .074-1.246l4.678-4.193a.876.885 0 0 1 .375-.196Zm12.105 15.732-11.967-13.632-3.372 3.023 11.966 13.631Z" data-name="Path 1951"/></g><g data-name="Group 1489"><path fill="#323f51" d="M872.814 268.055a.868.877 0 0 1 .566.05 8.609 8.698 0 0 1 4.906 5.587.873.882 0 1 1-1.667.521 6.842 6.913 0 0 0-3.949-4.498.873.882 0 0 1 .145-1.66Z" data-name="Path 1952"/></g></g></g></g></svg>