<svg viewBox="904.92 63.811 431.952 478.053" xmlns="http://www.w3.org/2000/svg"><defs><clipPath id="DeNærmeste_svg__b"><path fill="#323f51" d="M0 0h35.569v27.465H0z" data-name="Rectangle 374"/></clipPath><clipPath id="DeNærmeste_svg__c"><path d="M0 0h1166v1094H0z"/></clipPath><clipPath id="DeNærmeste_svg__d"><path d="M0 0h545v513H0z"/></clipPath><clipPath id="DeNærmeste_svg__e"><path d="M0 0h1166v1094H0z"/></clipPath><clipPath id="DeNærmeste_svg__f"><path d="M0 0h545v513H0z"/></clipPath><clipPath id="DeNærmeste_svg__a"><path fill="#323f51" d="M0 0h948.922v1058.047H0z" data-name="Rectangle 362"/></clipPath></defs><g data-name="Group 1054"><g data-name="Group 874" transform="matrix(.40709 0 0 .3995 931.977 86.163)"><path fill="#fff6ee" d="M19.009 19.212h895.246V1036.78H19.009z" data-name="Rectangle 360"/><rect width="784.423" height="891.597" fill="rgba(231,158,23,0.33)" data-name="Rectangle 361" rx="34.512" ry="34.512" transform="translate(74.423 77.443)"/><g data-name="Group 873"><g clip-path="url(#DeNærmeste_svg__a)" data-name="Group 872" transform="matrix(1.858 0 0 1.67403 -188.882 -461.368)"><path fill="#2e3552" d="M604.385 903.357H106.278V282.282h498.107Zm-479.91-20.349h461.713V302.629H124.475Z" data-name="Path 1288"/></g></g></g></g><g data-name="Group 1388"><path stroke-miterlimit="10" stroke-width="10" d="M3429.826 1115.458c75.421 41.309 121.141 120.489 153.541 199.449a1079.03 1079.03 0 0 1 78.564 473.284c-1.888 30.991 8.477 72.442-5.948 100.027-18.309 35.016-260.191 20.295-331.019 15.971-60.383-3.687-285.177 11.086-316.501-9.114-31.666-20.42-6.301-116.479-4.652-154.084 1.619-37.017 3.241-74.033 4.864-111.05 4.341-99.115 9.009-199.98 42.715-293.436 33.706-93.456 101.468-180.1 196.423-212.369 30.23-10.278 67.072-34.535 98.615-29.4 68.509 11.146 35.978 4.024 83.4 20.721" data-name="Path 1750" style="stroke:#502831;fill:#7ec7d6" transform="matrix(.41113 0 0 .36692 -245.302 -225.961)"/><path fill="none" stroke-linecap="round" stroke-miterlimit="10" stroke-width="5" d="M519.358 124.343c-16.711 3.5-29.235 12.385-41.669 23.79" data-name="Path 1760" style="stroke:#502831" transform="matrix(.41113 0 0 .36692 882.858 207.785)"/><path fill="none" stroke-linecap="round" stroke-miterlimit="10" stroke-width="5" d="M466.3 124.343c16.711 3.5 29.221 12.385 41.67 23.79" data-name="Path 1761" style="stroke:#502831" transform="matrix(.41113 0 0 .36692 955.719 223.196)"/><path fill="none" stroke-linecap="round" stroke-linejoin="round" stroke-width="10" d="M-751.4 189.389c53.3 15.349 45.68 353.098 24.6 367.364" data-name="Path 1754" style="stroke:#502831" transform="matrix(.41113 0 0 .36692 1565.555 267.608)"/><path d="M3351.828 1518.389a67.659 67.659 0 0 1 4.404 23.033c.108 3.928-1.123 6.938-5.421 7.102-4.117.156-5.044-2.872-5.177-6.356-1.053-27.217-24.257-31.863-48.901-41.067-1.228-.459-5.42-3.941-6.657-4.363-3.11-1.069-2.329-7.525-1.256-10.962 1.116-3.568 12.417-9.364 15.968-8.17 21.227 7.166 38.308 19.149 47.04 40.783Z" data-name="Path 1753" style="fill:#502831" transform="matrix(-.30144 .25095 -.27796 -.26903 2542.433 -97.454)"/><path d="M1032.423 500.6c-13.752-.157-22.828 8.617-22.583 21.834.246 13.317 8.378 22.067 20.927 22.533 13.493.5 24.837-9.8 24.7-22.439-.134-13.095-9.249-21.764-23.044-21.928Z" data-name="Path 1755" style="fill:#502831" transform="matrix(.41113 0 0 .36692 717.367 102.07)"/><path fill="#fff" d="M1143.547 286.546c-2.419-.026-4.016 1.354-3.975 3.43.044 2.092 1.476 3.467 3.682 3.539 2.378.08 4.374-1.541 4.349-3.525-.024-2.058-1.627-3.419-4.056-3.444Z" data-name="Path 1756" opacity=".9"/><path d="M1059.361 500.4c-12.51-.032-22.365 10.394-22.258 23.532.107 13.657 9.065 22.538 22.639 22.455 14.037-.082 21.91-8.311 21.816-22.791-.095-13.496-9.344-23.167-22.197-23.196Z" data-name="Path 1757" style="fill:#502831" transform="matrix(.41113 0 0 .36692 662.284 101.879)"/><path fill="#fff" d="M1100.392 287.306c-2.435-.026-4.042 1.362-3.998 3.45.044 2.102 1.482 3.485 3.703 3.558 2.389.082 4.396-1.548 4.373-3.544-.024-2.07-1.634-3.439-4.078-3.464Z" data-name="Path 1758"/></g><path fill="#323f51" d="M1779.581 1798.383c1.779-.832 7.024-3.289 6.673-5.909a3.37 3.37 0 0 1 .376-.319c-.741-.076-.292-.636.094-.085a7.814 7.814 0 0 1-.392-1.658c-2.631.153-15.187-2.376-14.338.068-.62-1.016-.89-.153-1-.056.173.223.365.432.573.624-1.477.822-2.258 1.866.117 2.18 2.654.351 5.444.631 8.205.819a14.648 14.648 0 0 1-3.223 2.189l-.389.185c.476-.471.865-.962.132-.7-.26.286-.478.607-.649.954-2.484 1.261-4.259 2.761-3.685 3.921.063.874.91 1.106 1.753 1.208l-.068.032.068-.032c.022.016-.013.019-.068.032-.1.048.16.156.229.17.081-.09.1-.142.087-.175l.194.019c.615.157 1.239.274 1.869.351.617.078 2.271.346 4.134.5.059.219.129.377.214.276-.028.034-.01-.09.021-.255.556.041 1.126.069 1.693.082-.206.122-.587.216-.451.3.22-.044.424-.148.589-.3.062 0 .125.006.188.006.112.141.417.147.959-.015 2.248-.091 4.117-.609 4.117-2.114 0-1.938-4.192-2.279-8.02-2.3m-2.091-8.506a1.13 1.13 0 0 1-.123.17h-.213c-.016-.244.156-.7.336-.169m-.862.084c.044-.122.1-.166.157-.132-.01.091-.019.15-.028.213h-.13v-.079m-.363.074h-.12a3.424 3.424 0 0 1-.09-.236s-.016-.034-.044-.113c.117-.072.214.166.254.352m-3.872.537s.1-.013.189-.016a.21.21 0 0 1-.189.016" clip-path="url(#DeNærmeste_svg__b)" data-name="Path 1341" transform="translate(1112.327 -482.191)"/><path fill="#323f51" d="M1805.735 1789.42c-.007-1.594-5.945-1.86-10.132-1.9.189-.189.379-.389.568-.609.134-.044.263-.101.386-.169a1.65 1.65 0 0 1-.094-.182c.028-.034.054-.063.081-.1.021.079.037.16.048.242.324-.445.683-.865 1.071-1.255a.23.23 0 0 0 .087.088c.056.025.076-.107.054-.235 2.048-2.121 5.5-5.265 4.556-6.341.053-.022.1-.037.153-.06.3.057.323-.079.28-.236.135-.025.21-.047.2-.072a3.822 3.822 0 0 0-.429-.581c.053-.455-.68-.691-.871-1.009.069.106.117.226.142.351a4.718 4.718 0 0 0-.515-.31c.308-.2-.1-.258-.344-.156a6.729 6.729 0 0 0-1.053-.339c.129-.825-.208-.269-.172-.041a25.418 25.418 0 0 0-5.532-.25 1.368 1.368 0 0 0-.157.015 2.263 2.263 0 0 1-.6-.511c-.046-.079-.037-.1-.009-.113a4.772 4.772 0 0 1-.818.3.501.501 0 0 0 0-.164c-.018-.06-.078.057-.106.192-1.36.346-3.3.417-3.121.021-.363.791-.622.489-.558 1.572-.276-2.3.034.913-.247-.529.016.088.076.363.139.675-1.379.533-2.066 1.06-.465 1.286.159.021.439.038.806.05-.028.1-.037.185.018.235.011-.078.018-.155.022-.233 1.511.047 4.5.018 7.319-.057a.304.304 0 0 0-.181.314c-.029 1.069.369-.11.429-.32l.976-.028c.069.1.144.144.22.109.076-.035.137-.084.207-.123l.827-.029a.483.483 0 0 0-.115.317c-.046.476.229-.185.229-.322l.5-.019c-.26.239-.323.363-.3.42a36.123 36.123 0 0 0-4.096 3.663.145.145 0 0 0-.069-.081c-.132-.063-.214.142-.141.294a54.998 54.998 0 0 0-4.332 4.945.6.6 0 0 0-.056.694.703.703 0 0 0-.119.369 5.474 5.474 0 0 0 2.1.837c.938.4.743.232.443.029.241.068.495.131.758.189.075 1.053 1.59.712 2.42.42.4.051.807.1 1.217.134a.336.336 0 0 0-.1.279c.032.4.313-.025.382-.254.73.062 1.465.1 2.182.113-.106.07-.2.138-.253.117.092.038.257-.04.4-.116.681.01 1.342 0 1.957-.041 2.188-.138 3.811-.6 3.807-1.486m-5.4-8.9-.075.106a.274.274 0 0 1 .075-.106m1.288-1.7a.239.239 0 0 1-.019.144Zm-1.892 2.728.085-.148c.2.151.053.2-.085.148m.5.669c-.561-1.135.806.417 0 0m.332-.37c-.711-.721-.07-.226-.032-.173.073.1.085.161.032.173m.433-.348c.05.37-1.509-.753 0 0m-10.341-4.851c-.014.153-.04.305-.079.455-.081-.155-.038-1.081.079-.455m-.238.041c.006.254.006.393 0 .46a1.276 1.276 0 0 1-.048-.313c.007-.125.023-.175.046-.147m-1.008-.21h-.082c.019-.084.138-.637.082 0m.746.153c.113-.248.2.21.22.533-.037.01-.072.022-.109.031a8.798 8.798 0 0 1-.112-.564m9.379 2.259.333-.015c-.06.04-.123.085-.186.128a.285.285 0 0 0-.147-.113m-4.905 11.55.336.057c-.277.032-.374-.015-.336-.057" clip-path="url(#DeNærmeste_svg__b)" data-name="Path 1342" transform="translate(1112.327 -482.191)"/><path fill="#323f51" d="M1790.215 1790.046c.437.288.986.35 1.477.169 0 0-1.875-.78-1.477-.169" clip-path="url(#DeNærmeste_svg__b)" data-name="Path 1343" transform="translate(1112.327 -482.191)"/><path fill="none" stroke-linecap="round" stroke-linejoin="round" d="M982.762 472.29c21.913 5.632 19.29 135.386 10.624 140.62" data-name="Path 1754" style="stroke:#502831;stroke-width:3.89px" transform="rotate(-172.037 982.665 472.09)"/></svg>