<?xml version="1.0" encoding="utf-8"?>
<svg viewBox="904.92 63.811 431.952 478.053" xmlns="http://www.w3.org/2000/svg">
  <defs>
    <clipPath id="clip-path">
      <rect id="Rectangle_374" data-name="Rectangle 374" width="35.569" height="27.465" fill="#323f51"/>
    </clipPath>
    <clipPath id="clip-1">
      <rect width="1166" height="1094"/>
    </clipPath>
    <clipPath id="clip-Illustration_-_Min_fysiske_energi_-_Min_fysiske_aktivitet">
      <rect width="545" height="513"/>
    </clipPath>
    <clipPath id="clip-3">
      <rect width="1166" height="1094"/>
    </clipPath>
    <clipPath id="clip-4">
      <rect width="545" height="513"/>
    </clipPath>
    <clipPath id="clip-2">
      <rect id="Rectangle_362" data-name="Rectangle 362" width="948.922" height="1058.047" fill="#323f51"/>
    </clipPath>
  </defs>
  <g id="Group_1054" data-name="Group 1054" transform="matrix(0.407089, 0, 0, 0.399495, 1853.219116, 5206.927246)" style="">
    <g id="Group_874" data-name="Group 874" transform="translate(-2263 -12818.094)">
      <rect id="Rectangle_360" data-name="Rectangle 360" width="895.246" height="1017.568" transform="translate(19.009 19.212)" fill="#fff6ee"/>
      <rect id="Rectangle_361" data-name="Rectangle 361" width="784.423" height="891.597" fill="rgba(231,158,23,0.33)" rx="34.512" ry="34.512" transform="translate(74.423 77.443)"/>
      <g id="Group_873" data-name="Group 873" transform="matrix(1.857995, 0, 0, 1.674027, -188.88208, -461.368103)" style="">
        <g id="Group_872" data-name="Group 872" clip-path="url(#clip-2)">
          <path id="Path_1288" data-name="Path 1288" d="M 604.385 903.357 L 106.278 903.357 L 106.278 282.282 L 604.385 282.282 Z M 124.475 883.008 L 586.188 883.008 L 586.188 302.629 L 124.475 302.629 Z" fill="#2e3552" style=""/>
        </g>
      </g>
    </g>
  </g>
  <g id="Group_1388" data-name="Group 1388" transform="matrix(0.411126, 0, 0, 0.366922, -245.301773, -225.961014)" style="">
    <path id="Path_1762" data-name="Path 1762" d="M-976.144,187.328" transform="translate(4464.534 1333.098)" fill="none" stroke="#323f51" stroke-width="1"/>
    <path id="Path_1750" data-name="Path 1750" d="M 3429.826 1115.458 C 3505.247 1156.767 3550.967 1235.947 3583.367 1314.907 C 3644.74 1464.774 3671.591 1626.533 3661.931 1788.191 C 3660.043 1819.182 3670.408 1860.633 3655.983 1888.218 C 3637.674 1923.234 3395.792 1908.513 3324.964 1904.189 C 3264.581 1900.502 3039.787 1915.275 3008.463 1895.075 C 2976.797 1874.655 3002.162 1778.596 3003.811 1740.991 C 3005.43 1703.974 3007.052 1666.958 3008.675 1629.941 C 3013.016 1530.826 3017.684 1429.961 3051.39 1336.505 C 3085.096 1243.049 3152.858 1156.405 3247.813 1124.136 C 3278.043 1113.858 3314.885 1089.601 3346.428 1094.736 C 3414.937 1105.882 3382.406 1098.76 3429.828 1115.457" stroke-miterlimit="10" stroke-width="10" style="stroke: rgb(80, 40, 49); fill: rgb(126, 199, 214);"/>
    <path id="Path_1760" data-name="Path 1760" d="M519.358,124.343c-16.711,3.5-29.235,12.385-41.669,23.79" transform="translate(2744.073 1182.121)" fill="none" stroke-linecap="round" stroke-miterlimit="10" stroke-width="5" style="stroke: rgb(80, 40, 49);"/>
    <path id="Path_1761" data-name="Path 1761" d="M466.3,124.343c16.711,3.5,29.221,12.385,41.67,23.79" transform="translate(2921.296 1224.121)" fill="none" stroke-linecap="round" stroke-miterlimit="10" stroke-width="5" style="stroke: rgb(80, 40, 49);"/>
    <path id="Path_1754" data-name="Path 1754" d="M -751.4 189.389 C -698.1 204.738 -705.72 542.487 -726.8 556.753" transform="translate(4404.627 1345.16)" fill="none" stroke-linecap="round" stroke-linejoin="round" stroke-width="10" style="stroke: rgb(80, 40, 49);"/>
    <path id="Path_1753" data-name="Path 1753" d="M 3351.828 1518.389 C 3354.626 1525.756 3356.117 1533.551 3356.232 1541.422 C 3356.34 1545.35 3355.109 1548.36 3350.811 1548.524 C 3346.694 1548.68 3345.767 1545.652 3345.634 1542.168 C 3344.581 1514.951 3321.377 1510.305 3296.733 1501.101 C 3295.505 1500.642 3291.313 1497.16 3290.076 1496.738 C 3286.966 1495.669 3287.747 1489.213 3288.82 1485.776 C 3289.936 1482.208 3301.237 1476.412 3304.788 1477.606 C 3326.015 1484.772 3343.096 1496.755 3351.828 1518.389 Z" transform="matrix(-0.733207, 0.683941, -0.676091, -0.733207, 6780.730897, 350.230613)" style="fill: rgb(80, 40, 49);"/>
    <path id="Path_1755" data-name="Path 1755" d="M1032.423,500.6c-13.752-.157-22.828,8.617-22.583,21.834.246,13.317,8.378,22.067,20.927,22.533,13.493.5,24.837-9.8,24.7-22.439C1055.333,509.433,1046.218,500.764,1032.423,500.6Z" transform="translate(2341.542 894.008)" style="fill: rgb(80, 40, 49);"/>
    <path id="Path_1756" data-name="Path 1756" d="M 3378.159 1396.773 C 3372.275 1396.704 3368.389 1400.465 3368.489 1406.122 C 3368.596 1411.822 3372.079 1415.571 3377.446 1415.766 C 3383.23 1415.987 3388.086 1411.566 3388.023 1406.16 C 3387.966 1400.55 3384.067 1396.842 3378.159 1396.773 Z" fill="#fff" opacity="0.9"/>
    <path id="Path_1757" data-name="Path 1757" d="M1059.361,500.4c-12.51-.032-22.365,10.394-22.258,23.532.107,13.657,9.065,22.538,22.639,22.455,14.037-.082,21.91-8.311,21.816-22.791C1081.463,510.1,1072.214,500.429,1059.361,500.4Z" transform="translate(2207.562 893.486)" style="fill: rgb(80, 40, 49);"/>
    <path id="Path_1758" data-name="Path 1758" d="M 3273.19 1398.845 C 3267.268 1398.775 3263.359 1402.557 3263.465 1408.245 C 3263.574 1413.977 3267.071 1417.745 3272.474 1417.945 C 3278.283 1418.167 3283.165 1413.726 3283.109 1408.285 C 3283.051 1402.645 3279.135 1398.914 3273.19 1398.845 Z" fill="#fff"/>
  </g>
  <path id="Path_1341" data-name="Path 1341" d="M 1779.581 1798.383 C 1781.36 1797.551 1786.605 1795.094 1786.254 1792.474 C 1786.371 1792.359 1786.497 1792.252 1786.63 1792.155 C 1785.889 1792.079 1786.338 1791.519 1786.724 1792.07 C 1786.533 1791.533 1786.402 1790.977 1786.332 1790.412 C 1783.701 1790.565 1771.145 1788.036 1771.994 1790.48 C 1771.374 1789.464 1771.104 1790.327 1770.994 1790.424 C 1771.167 1790.647 1771.359 1790.856 1771.567 1791.048 C 1770.09 1791.87 1769.309 1792.914 1771.684 1793.228 C 1774.338 1793.579 1777.128 1793.859 1779.889 1794.047 C 1778.917 1794.917 1777.833 1795.653 1776.666 1796.236 C 1776.534 1796.298 1776.408 1796.359 1776.277 1796.421 C 1776.753 1795.95 1777.142 1795.459 1776.409 1795.721 C 1776.149 1796.007 1775.931 1796.328 1775.76 1796.675 C 1773.276 1797.936 1771.501 1799.436 1772.075 1800.596 C 1772.138 1801.47 1772.985 1801.702 1773.828 1801.804 L 1773.76 1801.836 C 1773.741 1801.846 1773.806 1801.814 1773.828 1801.804 C 1773.85 1801.82 1773.815 1801.823 1773.76 1801.836 C 1773.66 1801.884 1773.92 1801.992 1773.989 1802.006 C 1774.07 1801.916 1774.089 1801.864 1774.076 1801.831 L 1774.27 1801.85 C 1774.885 1802.007 1775.509 1802.124 1776.139 1802.201 C 1776.756 1802.279 1778.41 1802.547 1780.273 1802.701 C 1780.332 1802.92 1780.402 1803.078 1780.487 1802.977 C 1780.459 1803.011 1780.477 1802.887 1780.508 1802.722 C 1781.064 1802.763 1781.634 1802.791 1782.201 1802.804 C 1781.995 1802.926 1781.614 1803.02 1781.75 1803.104 C 1781.97 1803.06 1782.174 1802.956 1782.339 1802.804 C 1782.401 1802.804 1782.464 1802.81 1782.527 1802.81 C 1782.639 1802.951 1782.944 1802.957 1783.486 1802.795 C 1785.734 1802.704 1787.603 1802.186 1787.603 1800.681 C 1787.603 1798.743 1783.411 1798.402 1779.583 1798.381 M 1777.492 1789.875 C 1777.457 1789.935 1777.415 1789.992 1777.369 1790.045 L 1777.156 1790.045 C 1777.14 1789.801 1777.312 1789.345 1777.492 1789.876 M 1776.63 1789.96 C 1776.674 1789.838 1776.73 1789.794 1776.787 1789.828 C 1776.777 1789.919 1776.768 1789.978 1776.759 1790.041 L 1776.629 1790.041 C 1776.629 1790.004 1776.629 1789.962 1776.629 1789.962 M 1776.266 1790.036 L 1776.146 1790.036 C 1776.121 1789.98 1776.087 1789.889 1776.056 1789.8 C 1776.056 1789.8 1776.04 1789.766 1776.012 1789.687 C 1776.129 1789.615 1776.226 1789.853 1776.266 1790.039 M 1772.394 1790.576 C 1772.394 1790.576 1772.494 1790.563 1772.583 1790.56 C 1772.526 1790.595 1772.456 1790.601 1772.394 1790.576" fill="#323f51" clip-path="url(#clip-path)" transform="matrix(1, 0, 0, 1, 1112.327411, -482.191083)"/>
  <path id="Path_1342" data-name="Path 1342" d="M 1805.735 1789.42 C 1805.728 1787.826 1799.79 1787.56 1795.603 1787.52 C 1795.792 1787.331 1795.982 1787.131 1796.171 1786.911 C 1796.305 1786.867 1796.434 1786.81 1796.557 1786.742 C 1796.522 1786.683 1796.49 1786.622 1796.463 1786.56 C 1796.491 1786.526 1796.517 1786.497 1796.544 1786.46 C 1796.565 1786.539 1796.581 1786.62 1796.592 1786.702 C 1796.916 1786.257 1797.275 1785.837 1797.663 1785.447 C 1797.683 1785.483 1797.713 1785.514 1797.75 1785.535 C 1797.806 1785.56 1797.826 1785.428 1797.804 1785.3 C 1799.852 1783.179 1803.304 1780.035 1802.36 1778.959 C 1802.413 1778.937 1802.46 1778.922 1802.513 1778.899 C 1802.813 1778.956 1802.836 1778.82 1802.793 1778.663 C 1802.928 1778.638 1803.003 1778.616 1802.993 1778.591 C 1802.868 1778.384 1802.725 1778.189 1802.564 1778.01 C 1802.617 1777.555 1801.884 1777.319 1801.693 1777.001 C 1801.762 1777.107 1801.81 1777.227 1801.835 1777.352 C 1801.67 1777.238 1801.498 1777.134 1801.32 1777.042 C 1801.628 1776.842 1801.22 1776.784 1800.976 1776.886 C 1800.635 1776.744 1800.282 1776.631 1799.923 1776.547 C 1800.052 1775.722 1799.715 1776.278 1799.751 1776.506 C 1797.921 1776.221 1796.066 1776.138 1794.219 1776.256 C 1794.166 1776.258 1794.114 1776.263 1794.062 1776.271 C 1793.834 1776.137 1793.63 1775.964 1793.462 1775.76 C 1793.416 1775.681 1793.425 1775.66 1793.453 1775.647 C 1793.19 1775.772 1792.916 1775.872 1792.635 1775.947 C 1792.644 1775.892 1792.644 1775.837 1792.635 1775.783 C 1792.617 1775.723 1792.557 1775.84 1792.529 1775.975 C 1791.169 1776.321 1789.229 1776.392 1789.408 1775.996 C 1789.045 1776.787 1788.786 1776.485 1788.85 1777.568 C 1788.574 1775.268 1788.884 1778.481 1788.603 1777.039 C 1788.619 1777.127 1788.679 1777.402 1788.742 1777.714 C 1787.363 1778.247 1786.676 1778.774 1788.277 1779 C 1788.436 1779.021 1788.716 1779.038 1789.083 1779.05 C 1789.055 1779.15 1789.046 1779.235 1789.101 1779.285 C 1789.112 1779.207 1789.119 1779.13 1789.123 1779.052 C 1790.634 1779.099 1793.623 1779.07 1796.442 1778.995 C 1796.319 1779.048 1796.246 1779.176 1796.261 1779.309 C 1796.232 1780.378 1796.63 1779.199 1796.69 1778.989 L 1797.666 1778.961 C 1797.735 1779.061 1797.81 1779.105 1797.886 1779.07 C 1797.962 1779.035 1798.023 1778.986 1798.093 1778.947 C 1798.375 1778.938 1798.651 1778.928 1798.92 1778.918 C 1798.845 1779.006 1798.804 1779.119 1798.805 1779.235 C 1798.759 1779.711 1799.034 1779.05 1799.034 1778.913 L 1799.534 1778.894 C 1799.274 1779.133 1799.211 1779.257 1799.234 1779.314 C 1797.778 1780.429 1796.408 1781.654 1795.138 1782.977 C 1795.126 1782.942 1795.101 1782.913 1795.069 1782.896 C 1794.937 1782.833 1794.855 1783.038 1794.928 1783.19 C 1793.387 1784.75 1791.94 1786.402 1790.596 1788.135 C 1790.431 1788.33 1790.409 1788.609 1790.54 1788.829 C 1790.467 1788.938 1790.425 1789.066 1790.421 1789.198 C 1791.055 1789.62 1791.77 1789.905 1792.521 1790.035 C 1793.459 1790.435 1793.264 1790.267 1792.964 1790.064 C 1793.205 1790.132 1793.459 1790.195 1793.722 1790.253 C 1793.797 1791.306 1795.312 1790.965 1796.142 1790.673 C 1796.542 1790.724 1796.949 1790.773 1797.359 1790.807 C 1797.284 1790.879 1797.248 1790.982 1797.259 1791.086 C 1797.291 1791.486 1797.572 1791.061 1797.641 1790.832 C 1798.371 1790.894 1799.106 1790.932 1799.823 1790.945 C 1799.717 1791.015 1799.623 1791.083 1799.57 1791.062 C 1799.662 1791.1 1799.827 1791.022 1799.97 1790.946 C 1800.651 1790.956 1801.312 1790.946 1801.927 1790.905 C 1804.115 1790.767 1805.738 1790.305 1805.734 1789.419 M 1800.334 1780.519 L 1800.259 1780.625 C 1800.275 1780.584 1800.301 1780.548 1800.334 1780.519 M 1801.622 1778.819 C 1801.631 1778.867 1801.624 1778.918 1801.603 1778.963 Z M 1799.73 1781.547 C 1799.758 1781.497 1799.787 1781.447 1799.815 1781.399 C 1800.015 1781.55 1799.868 1781.599 1799.73 1781.547 M 1800.23 1782.216 C 1799.669 1781.081 1801.036 1782.633 1800.23 1782.216 M 1800.562 1781.846 C 1799.851 1781.125 1800.492 1781.62 1800.53 1781.673 C 1800.603 1781.773 1800.615 1781.834 1800.562 1781.846 M 1800.995 1781.498 C 1801.045 1781.868 1799.486 1780.745 1800.995 1781.498 M 1790.654 1776.647 C 1790.64 1776.8 1790.614 1776.952 1790.575 1777.102 C 1790.494 1776.947 1790.537 1776.021 1790.654 1776.647 M 1790.416 1776.688 C 1790.422 1776.942 1790.422 1777.081 1790.416 1777.148 C 1790.387 1777.046 1790.371 1776.941 1790.368 1776.835 C 1790.375 1776.71 1790.391 1776.66 1790.414 1776.688 M 1789.406 1776.478 L 1789.324 1776.478 C 1789.343 1776.394 1789.462 1775.841 1789.406 1776.478 M 1790.152 1776.631 C 1790.265 1776.383 1790.352 1776.841 1790.372 1777.164 C 1790.335 1777.174 1790.3 1777.186 1790.263 1777.195 C 1790.232 1777.069 1790.195 1776.885 1790.151 1776.631 M 1799.53 1778.89 L 1799.863 1778.875 C 1799.803 1778.915 1799.74 1778.96 1799.677 1779.003 C 1799.642 1778.95 1799.59 1778.91 1799.53 1778.89 M 1794.625 1790.44 L 1794.961 1790.497 C 1794.684 1790.529 1794.587 1790.482 1794.625 1790.44" fill="#323f51" clip-path="url(#clip-path)" transform="matrix(1, 0, 0, 1, 1112.327411, -482.191083)"/>
  <path id="Path_1343" data-name="Path 1343" d="M 1790.215 1790.046 C 1790.652 1790.334 1791.201 1790.396 1791.692 1790.215 C 1791.692 1790.215 1789.817 1789.435 1790.215 1790.046" fill="#323f51" clip-path="url(#clip-path)" transform="matrix(1, 0, 0, 1, 1112.327411, -482.191083)"/>
  <path id="Path_1164" data-name="Path 1164" d="M 737.853 1938.055" fill="none" stroke="#323f51" stroke-width="4.5" transform="matrix(1, 0, 0, 1, 1112.327411, -482.191083)"/>
  <g id="g-4" clip-path="url(#clip-1)" transform="matrix(1, 0, 0, 1, 3206.237079, -45.192322)"/>
  <g id="Illustration_-_Min_fysiske_energi_-_Min_fysiske_aktivitet" data-name="Illustration - Min fysiske energi - Min fysiske aktivitet" clip-path="url(#clip-Illustration_-_Min_fysiske_energi_-_Min_fysiske_aktivitet)" transform="matrix(1, 0, 0, 1, 2911.636005, -447.385073)"/>
  <g id="g-5" clip-path="url(#clip-3)" transform="matrix(1, 0, 0, 1, 7638.311298, -1478.130157)"/>
  <g id="g-6" data-name="Illustration - Min fysiske energi - Min fysiske aktivitet" clip-path="url(#clip-4)" transform="matrix(1, 0, 0, 1, 7343.709736, -1880.322967)"/>
  <path id="path-1" data-name="Path 1754" d="M 982.762 472.29 C 1004.675 477.922 1002.052 607.676 993.386 612.91" fill="none" stroke-linecap="round" stroke-linejoin="round" style="stroke: rgb(80, 40, 49); stroke-width: 3.89px;" transform="matrix(-0.990358, -0.138529, 0.138529, -0.990358, 1890.457309, 1075.755886)"/>
</svg>