<svg xmlns:bx="https://boxy-svg.com" viewBox="-1473.895 -896.825 1174.571 1259.6" xmlns="http://www.w3.org/2000/svg"><defs><clipPath id="EmotionDefense_svg__b"><path fill="none" d="M0 0h242.065v244.073H0z" data-name="Rectangle 449"/></clipPath><clipPath id="EmotionDefense_svg__g"><path fill="none" d="M0 0h233.57v250.237H0z" data-name="Rectangle 448"/></clipPath><clipPath id="EmotionDefense_svg__h"><path fill="none" d="M0 0h219.217v247.122H0z" data-name="Rectangle 448"/></clipPath><clipPath id="EmotionDefense_svg__i"><path d="M0 0h1166v1094H0z"/></clipPath><clipPath id="EmotionDefense_svg__c"><path fill="none" d="M0 0h219.217v247.122H0z" data-name="Rectangle 448"/></clipPath><clipPath id="EmotionDefense_svg__d"><path fill="none" d="M0 0h228.937v242.798H0z" data-name="Rectangle 451"/></clipPath><clipPath id="EmotionDefense_svg__a"><path fill="none" d="M0 0h219.217v247.122H0z" data-name="Rectangle 448"/></clipPath><clipPath id="EmotionDefense_svg__f"><path fill="none" d="M0 0h229.531v241.419H0z" data-name="Rectangle 482"/></clipPath><clipPath id="EmotionDefense_svg__e"><path fill="none" d="M0 0h229.531v241.419H0z" data-name="Rectangle 482"/></clipPath></defs><g data-name="Group 761"><g fill="#e79e17" data-name="Group 687" transform="matrix(2.83398 0 0 2.89334 -728.893 -796.456)"><path d="M50.544 24.485c10.371 6.232 14.108 19.06 8.345 28.651S47.12 65.493 27.25 57.76c-10.374-6.232-.307-28.052-.307-28.052s13.23-11.456 23.602-5.223Z" data-name="Path 442"/><rect width="23.826" height="3.665" data-name="Rectangle 157" rx="1.833" transform="rotate(37 -12.913 14.147)"/><rect width="26.88" height="4.887" data-name="Rectangle 160" rx="2.444" transform="rotate(37 -54.177 118.277)"/><rect width="21.382" height="3.665" data-name="Rectangle 161" rx="1.833" transform="rotate(74.99 -18.558 64.885)"/><rect width="21.382" height="3.665" data-name="Rectangle 162" rx="1.833" transform="scale(-1) rotate(-77 -29.114 35.541)"/><rect width="26.88" height="3.665" data-name="Rectangle 158" rx="1.833" transform="rotate(-35.02 116.438 36.716)"/><rect width="26.269" height="3.665" data-name="Rectangle 159" rx="1.833" transform="rotate(-35.02 78.371 -79.669)"/></g></g><g><g data-name="Group 1094"><g clip-path="url(#EmotionDefense_svg__a)" data-name="Group 1093" transform="matrix(.78435 .05176 -.05206 .7889 -613.485 -384.697)"><path d="M164 .68c-.164-3.21-147.358.487-162.483 114.461-16.426 123.764 104.928 151.502 162.141 120.081 50.89-27.961 78.405-102.773 31.328-165.109-21.589-28.586-59.624-37.48-56.819-43.8 3.88-8.738 26.035-21.645 25.83-25.629" data-name="Path 1621" style="fill:#e8e35d" transform="rotate(180 109.61 123.561)"/></g></g><g fill="none" stroke-linecap="round" stroke-linejoin="round" data-name="Group 367"><path d="M73.201 102.981c.078 7.9 25.536 7.656 25.459-.247" data-name="Path 200" style="stroke:#000;stroke-width:5px" transform="matrix(-.76883 .16525 -.16372 -.77314 -463.67 -250.966)"/><path d="M139.735 100.244c.078 7.9 25.535 7.656 25.458-.247" data-name="Path 201" style="stroke:#000;stroke-width:5px" transform="matrix(-.754 -.22292 .22221 -.75852 -402.658 -205.116)"/><path d="M87.899 151.96c12.102 10.328 52.592 7.061 63.21-5.961" data-name="Path 202" style="stroke:#000;stroke-width:5px" transform="matrix(.78435 .05176 -.05206 .7889 -608.946 -406.414)"/></g></g><g data-name="Group 1096"><g clip-path="url(#EmotionDefense_svg__b)" data-name="Group 1095" transform="matrix(-.79421 -.12773 -.12744 .79241 -485.427 -509.638)"><path fill="#f297bc" d="M178.499 243.822c4.171-2.386-5.334-29.979-5.334-29.979s73.948-29.32 68.618-107.257-95.921-133.905-176.53-92.599-78.391 137.979-37.3 180.289c44.637 45.968 116.577 32.889 116.577 32.889s29.315 19.324 33.977 16.657" data-name="Path 1627"/><path fill="#ab003d" d="M70.247 97.926s-7.333-14.989-15.993-7.661 10.932 29.656 18.656 29.311c7.329-.332 24.317-26.312 14.989-32.978-9.954-7.11-17.652 11.327-17.652 11.327" data-name="Path 1628"/><path fill="#ab003d" d="M161.683 95.427s-7.332-14.989-15.993-7.66 10.936 29.655 18.656 29.311c7.329-.332 23.99-24.649 14.658-31.31-9.95-7.11-17.32 9.66-17.32 9.66" data-name="Path 1629"/><path d="M94.32 113.839c.008.059.433.722 1.34 2.1a36.387 36.387 0 0 0 4.154 5.082 26.312 26.312 0 0 0 7.006 5.183 21.222 21.222 0 0 0 9.328 2.142l.63.025.311.013.16.008h.118c.067 0-.533.042-.269.021h.022l1.478-.147c.479-.059 1.021-.088 1.441-.16l.97-.269a16.214 16.214 0 0 0 4.173-1.582 24.748 24.748 0 0 0 3.7-2.537 38.141 38.141 0 0 0 3-2.995 37.675 37.675 0 0 0 3.931-5.33c.8-1.365 1.264-2.142 1.264-2.142l.155-.26a2.211 2.211 0 0 1 4.066 1.592s-.059.286-.176.815a20.667 20.667 0 0 1-.58 2.121 34.079 34.079 0 0 1-3.272 7.123 30.09 30.09 0 0 1-3.243 4.313 25.7 25.7 0 0 1-4.758 4.04 22.381 22.381 0 0 1-6.363 2.873l-1.882.462c-.55.1-1 .13-1.5.2l-1.474.181-.391.029h-.756l-.861-.008a26.056 26.056 0 0 1-6.846-.92 23.919 23.919 0 0 1-6.207-2.621 26.651 26.651 0 0 1-8.417-7.917 30.89 30.89 0 0 1-3.6-7.031 20.1 20.1 0 0 1-.651-2.129c-.118-.517-.181-.785-.181-.785l-.151-.664a2.202 2.202 0 0 1 4.292-.991c.013.055.025.118.034.172" data-name="Path 1630"/></g></g><g><g data-name="Group 1094"><g clip-path="url(#EmotionDefense_svg__c)" data-name="Group 1093" transform="matrix(-.67523 -.37567 -.37471 .6735 -471.86 -193.087)"><path d="M164 246.442c-.164 3.21-147.358-.487-162.483-114.461C-14.909 8.217 106.445-19.521 163.658 11.9c50.89 27.961 78.405 102.773 31.328 165.109-21.589 28.586-59.624 37.48-56.819 43.8 3.88 8.738 26.035 21.645 25.83 25.629" data-name="Path 1621" style="fill:#ff4242" transform="translate(0 .001)"/><path d="M77.866 101.511a5.181 5.181 0 1 1-5.286-5.074 5.176 5.176 0 0 1 5.286 5.074" data-name="Path 1622"/><path d="M157.301 99.885a5.183 5.183 0 1 1-5.282-5.074 5.176 5.176 0 0 1 5.282 5.074" data-name="Path 1623"/><path d="M87.558 111.076c.245.138 11.383 5.019 23.211 4.669 13.258-.39 27.38-5.994 27.994-5.289.539.618.797 1.585.677 2.536l-.108 1.274a42.129 42.129 0 0 1-.439 3.343c-.677 3.957-1.748 7.768-3.184 11.322a39.23 39.23 0 0 1-3.545 6.783c-1.567 2.361-3.353 4.428-5.312 6.147-1.049.839-2.165 1.581-3.281 2.375a67.86 67.86 0 0 1-3.578 1.726c-1.287.383-2.626.696-3.954 1.003-1.246.214-2.273.194-3.422.301a21.418 21.418 0 0 1-7.652-1.182c-2.432-.782-4.76-2.082-6.9-3.853-2.004-1.607-3.835-3.59-5.442-5.891-.755-1.09-1.41-2.232-2.072-3.303l-1.626-3.333c-1.516-3.492-2.668-7.26-3.422-11.194a39.912 39.912 0 0 1-.517-3.333c-.082-.798-.123-1.229-.123-1.229-.205-2.065 1.292-3.662 2.695-2.872Z" data-name="Path 1624"/></g></g><path d="M1496.54-29.15c2.178-3.98 3.455-7.955 5.103-10.826 2.03-3.533 4.622-5.393 10.15-3.529" style="stroke:#000" transform="matrix(-.7704 -.05483 -.05323 .76924 618.279 -56.353)"/><path d="M1592.081-47.706c2.178 3.98 3.455 7.955 5.103 10.826 2.03 3.533 4.622 5.393 10.15 3.529" style="stroke:#000" transform="matrix(.45278 .6257 .62556 -.45082 -1300.976 -1224.321)"/></g><g data-name="Group 1100"><g clip-path="url(#EmotionDefense_svg__d)" data-name="Group 1099" transform="matrix(-1 0 0 1 -995.315 -584.984)"><path fill="#d65050" d="M64.087 215.115s-.817 26.148 3.286 27.642c3.093 1.128 18.085-21.17 18.085-21.17s49.283 15.387 99.717-18.234C229.9 173.54 260.34 68.918 173.594 19 110.208-17.474 51.675 1.976 17.659 48.4c-25.27 34.475-33.723 108.686 46.428 166.715" data-name="Path 1636"/><path d="M82.389 143.14s.085-.334.25-.954a27.345 27.345 0 0 1 .87-2.6 42 42 0 0 1 4.506-8.614 35.24 35.24 0 0 1 10.084-9.894c1.107-.733 2.348-1.3 3.556-1.969 1.24-.592 2.585-1.007 3.9-1.506 1.353-.387 2.75-.66 4.136-.979 1.4-.213 2.823-.314 4.24-.419l.532-.04h.402l.121.008.234.012.942.052 1.881.109a34.315 34.315 0 0 1 4.357.717 29.129 29.129 0 0 1 7.772 3.27 45.994 45.994 0 0 1 3.222 2.336c.926.89 1.893 1.711 2.7 2.605a33.42 33.42 0 0 1 4.011 5.392 39.531 39.531 0 0 1 3.886 8.976 26.051 26.051 0 0 1 .644 2.658c.117.66.181 1.011.181 1.011a2.121 2.121 0 0 1-4.035 1.216l-.084-.21s-.109-.258-.314-.733c-.234-.5-.584-1.228-1.027-2.163a41.288 41.288 0 0 0-4.53-7.16 35.019 35.019 0 0 0-3.7-4.007c-.7-.648-1.5-1.2-2.251-1.824q-1.238-.773-2.517-1.579a23.722 23.722 0 0 0-5.692-2.074 22.652 22.652 0 0 0-3.012-.471l-1.878-.069-.942-.04-.238-.008H114.451c-.262 0 .318 0 .246.008h-.044l-.411.044c-1.083.137-2.187.141-3.258.29-1.055.242-2.122.415-3.153.685-1.007.354-2.005.709-2.992 1.055-.934.471-1.917.83-2.8 1.357a35.626 35.626 0 0 0-8.908 7.317 48.314 48.314 0 0 0-5.114 6.834c-.532.89-.946 1.591-1.228 2.066l-.4.729-.064.129a2.129 2.129 0 0 1-3.93-1.558" data-name="Path 1637"/><path d="M88.204 110.779a7.825 7.825 0 1 1-7.776-7.869 7.829 7.829 0 0 1 7.776 7.869" data-name="Path 1638"/><path d="M70.871 93.757a26.913 26.913 0 0 1 4.4 1.152 55.318 55.318 0 0 1 8.863 3.987 58.757 58.757 0 0 1 8.09 5.4 28.932 28.932 0 0 1 3.337 3.061 2.251 2.251 0 0 1-.185 3.181 2.286 2.286 0 0 1-1.86.54 28.836 28.836 0 0 1-4.377-1.188 58.529 58.529 0 0 1-8.884-3.955 55.4 55.4 0 0 1-8.11-5.36 27.53 27.53 0 0 1-3.318-3.1 2.267 2.267 0 0 1 2.044-3.718" data-name="Path 1639"/><path d="M159.214 111.222a7.825 7.825 0 1 1-7.772-7.869 7.826 7.826 0 0 1 7.772 7.869" data-name="Path 1640"/><path d="M162.415 98.066a27.075 27.075 0 0 1-3.36 3.056 54.7 54.7 0 0 1-8.171 5.255 58.147 58.147 0 0 1-8.936 3.842 29.289 29.289 0 0 1-4.393 1.132 2.251 2.251 0 0 1-2.565-1.889 2.28 2.28 0 0 1 .568-1.856 29.08 29.08 0 0 1 3.379-3.02 58.342 58.342 0 0 1 8.151-5.292 55.183 55.183 0 0 1 8.916-3.878 27.32 27.32 0 0 1 4.41-1.1 2.263 2.263 0 0 1 2 3.745" data-name="Path 1641"/></g></g><g><g data-name="Group 1140"><g clip-path="url(#EmotionDefense_svg__e)" data-name="Group 1139" transform="matrix(-1.39164 .1307 .10846 1.15487 -1154.512 -913.784)"><path d="M24.857 199.79s-15.505 28.108-13.264 31.764c2.241 3.656 31.943-9.3 31.943-9.3s30.3 27.976 87.937 16.329c77.866-15.73 125.3-97.509 81.055-179.084-41.4-76.344-130.579-72.315-178.39-26.8-47.811 45.515-40.126 119.75-9.281 167.091" data-name="Path 1667" style="fill:#7c8da9" transform="rotate(180 114.763 120.71)"/><path bx:origin="0.883 0.313" d="M100.743 170.321s.992-.285 2.488-.543a47.341 47.341 0 0 1 5.509-.639c2.007-.091 4.014-.14 5.526-.066a30.45 30.45 0 0 1 2.52.204c2.671.369 3.859 3.513 2.136 5.66a3.659 3.659 0 0 1-1.893 1.242s-.992.273-2.493.528c-1.497.273-3.499.482-5.503.652a48.5 48.5 0 0 1-5.524.081 25.257 25.257 0 0 1-2.522-.221c-2.673-.422-3.805-3.601-2.037-5.725a3.665 3.665 0 0 1 1.793-1.177" data-name="Path 1669" transform="rotate(-1.002 117.197 171.681)"/></g></g><path d="M-484.893 1050.491c.098 4.256-5.072 7.011-9.309 4.958-4.236-2.053-4.359-7.375-.221-9.578a6.926 6.926 0 0 1 3.122-.797c3.468-.066 6.34 2.362 6.408 5.417M-587.594 1065.569c.09 4.013-4.61 6.611-8.46 4.674-3.85-1.935-3.962-6.952-.202-9.027a6.117 6.117 0 0 1 2.838-.753c3.152-.062 5.763 2.227 5.824 5.106" data-name="Path 1622" transform="matrix(-1.39164 .1307 .10846 1.15487 -2155.95 -1926.16)"/></g><path d="M-1394.811-716.955h200.933s153.578-5.552 154.423 32.97c.843 38.52-31.542 35.955-56.735 50.941-25.195 14.987-7.065 33.777-28.971 60.726-21.906 26.947-42.435 30.948-82.34 8.775-39.907-22.173-65.283 82.9-129.163 71.138-63.879-11.763-71.841-47.978-74.564-96.414-2.722-48.439-50.216-39.383-44.599-80.332 5.617-40.948 61.016-47.804 61.016-47.804Z" data-name="Path 1226" style="fill:#353f4f" transform="rotate(180 -1247.864 -604.358)"/><path d="M-1231.104-128.899h104.995s80.25-3.156 80.692 18.745c.44 21.9-16.482 20.441-29.646 28.961-13.166 8.521-3.692 19.204-15.139 34.525-11.446 15.32-22.174 17.595-43.025 4.989-20.853-12.606-34.113 47.131-67.493 40.444-33.379-6.688-37.539-27.277-38.962-54.814-1.422-27.54-26.24-22.391-23.305-45.672 2.935-23.28 31.883-27.178 31.883-27.178Z" data-name="Path 1226" style="fill:#353f4f" transform="rotate(180 -1154.318 -64.884)"/><g><g data-name="Group 1140"><g clip-path="url(#EmotionDefense_svg__f)" data-name="Group 1139" transform="matrix(.9167 0 0 .9406 -1244.703 -396.535)"><path d="M24.857 41.629S9.352 13.521 11.593 9.865c2.241-3.656 31.943 9.3 31.943 9.3s30.3-27.976 87.937-16.329c77.866 15.73 125.3 97.509 81.055 179.084-41.4 76.344-130.579 72.315-178.39 26.8-47.811-45.515-40.126-119.75-9.281-167.091" data-name="Path 1667" style="fill:#88a6a3" transform="rotate(180 114.763 120.71)"/><path d="M37.919 106.252a88.262 88.262 0 0 1 5.905-1.025 173.489 173.489 0 0 1 13.129-1.393c4.815-.304 9.646-.526 13.303-.526 3.644-.017 6.105.117 6.105.117 6.506.36 9.964 5.061 6.222 8.464-1.054.958-2.566 1.673-4.312 2.036 0 0-2.349.487-5.907 1.005-3.558.517-8.341 1.004-13.13 1.415-4.41.351-8.849.534-13.296.548a90.913 90.913 0 0 1-6.112-.139c-6.518-.435-9.849-5.195-5.997-8.567 1.022-.893 2.448-1.566 4.09-1.93" data-name="Path 1668" transform="rotate(-6.168 58.159 110.103)"/><path d="M83.33 147.402s3.651-1.148 9.41-2.512c2.865-.64 6.229-1.351 9.847-2.021 1.788-.366 3.784-.549 5.742-.794 2.071-.212 3.759-.532 6.2-.649 3.875.021 7.572-.158 11.352.033 3.734.2 7.3.416 10.188.686 5.8.57 9.68 1.185 9.68 1.185 3.981.628 5.79 5.33 3.256 8.465a5.239 5.239 0 0 1-4.046 1.943h-.062s-3.763.021-9.443-.042c-2.853-.1-6 .029-9.443-.05-3.406-.108-7.372.162-11.161.229-1.734.183-3.468.362-5.173.541-1.784.225-3.5.279-5.252.57-3.46.557-6.728.861-9.506 1.31-5.535.823-9.373 1.314-9.373 1.314-4.006.499-7.05-3.526-5.479-7.245a5.245 5.245 0 0 1 3.238-2.955Z" data-name="Path 1670"/><path d="M161.48 112.422c.129 5.732-6.682 9.442-12.262 6.677-5.578-2.765-5.741-9.931-.292-12.898a8.948 8.948 0 0 1 4.113-1.074c4.568-.089 8.351 3.181 8.441 7.295" data-name="Path 1622"/><path d="M145.741 130.177c3.908-6.068 6.459-12.128 9.394-16.505 3.614-5.387 7.81-8.223 15.84-5.38" style="fill:#6f9894" transform="rotate(-145.42 158.358 118.673)"/><path d="M134.644 101.305c1.94-.405 3.91-.747 5.906-1.025a173.894 173.894 0 0 1 13.129-1.392c4.815-.304 9.645-.527 13.302-.527 3.644-.017 6.105.118 6.105.118 6.507.359 9.964 5.061 6.222 8.464-1.053.958-2.566 1.672-4.312 2.035 0 0-2.348.488-5.907 1.006-3.558.517-8.341 1.004-13.13 1.415-4.409.35-8.849.533-13.296.548a91.535 91.535 0 0 1-6.111-.139c-6.519-.436-9.85-5.195-5.998-8.567 1.022-.894 2.448-1.566 4.09-1.93" data-name="Path 1668" transform="rotate(2.147 154.884 105.156)"/></g></g><path d="M-1479.956 254.933c.129 5.732-6.682 9.442-12.262 6.677-5.578-2.765-5.741-9.931-.292-12.898a8.948 8.948 0 0 1 4.113-1.074c4.568-.089 8.351 3.181 8.441 7.295" data-name="Path 1622" transform="matrix(.9167 0 0 .9406 171.557 -522.331)"/><path d="M-1494.316 272.727c3.908-6.068 6.459-12.128 9.394-16.505 3.614-5.387 7.81-8.223 15.84-5.38" style="fill:#6f9894" transform="scale(-.9167 -.9406) rotate(30.516 -153.815 5366.457)"/><path d="M-1460.231 301.818c12.097-13.327 11.47-14.595 14.405-18.972 3.614-5.387 2.799-5.756 10.829-2.913" style="fill:rgba(104,145,140,.76)" transform="matrix(-.75457 -.53412 .52055 -.77425 -2398.77 -798.228)"/></g><g data-name="Group 1150"><g data-name="Group 1103"><g clip-path="url(#EmotionDefense_svg__g)" data-name="Group 1093" transform="scale(-1 1) rotate(17.531 3147.08 3084.513)"><path fill="#6c85a0" d="M58.835 249.549c.174 3.251 157.007-.493 173.121-115.9C249.455 8.322 120.156-19.766 59.199 12.051 4.974 40.365-24.343 116.119 25.817 179.241c23 28.947 63.528 37.953 60.54 44.356-4.134 8.848-27.739 21.918-27.521 25.952" data-name="Path 1621"/><path d="M131.363 141.102Z" data-name="Path 1652"/></g></g><g data-name="Group 1105"><g data-name="Group 1106"><path d="M-1125.245-680.02a6.957 6.957 0 0 0 1.611 1.78c.125-.1-2.515-3.456-1.903-5.736.007.021.047.033.112.045-.072.01-.073.022.213.012.81-.563-.134-.3-.312-.12a2.174 2.174 0 0 1 .516-.897 2.828 2.828 0 0 1 .269.275 11.279 11.279 0 0 1-.033-1.976 2.021 2.021 0 0 0-.684.57c-.006-.216-.08-.624-.067-.408a.5.5 0 0 1-.032.152c.113-.938.354-2.111.33-2.045-1.17.814 1.915-4.024 4.93-2.1-.156-.126-.315-.256-.473-.375.031-.08.265.126.605.46a4.242 4.242 0 0 1 .573.488c-.143-.123-.292-.235-.437-.355 1.296 1.311 3.84 4.166 3.84 2.673.196.31.804 1.397 1.457 2.704.03-.098.081-.18.17-.158s.098.368-.007.49a29.841 29.841 0 0 1 1.313 3.055 8.523 8.523 0 0 1 1.178 3.283c.523.951-.064 3.028-.834 4.735-.078.001-.188.3-.188.3-.682 1.518-1.52 2.657-1.713 2.146a3.974 3.974 0 0 1-.31-1.436 5.192 5.192 0 0 1-1.285.372c.302.44.633.945 1.019 1.566 7.219 3.93-1.272-.399-2.251-1.481a.207.207 0 0 1 .019.146c-.27-.158-.346-.22-.236-.173a.211.211 0 0 1 .166-.027c-.038-.006-.075-.008-.109-.013a4.152 4.152 0 0 1-.71-.151 6.579 6.579 0 0 1 1.804 1.527c-.153.65-4.188-1.893-3.933-2.237a.778.778 0 0 1 .998.262c-.019-.037-.06-.086-.088-.13a3.7 3.7 0 0 1-.404-.314c-.521-.016-1.251-1.016-1.984-2.53q-.352-.406-.704-.82c-.16-.44-.36-.579-.437-.507-1.3-1.53-2.356-2.897-1.968-3.041m2.803-10.14c.125.036.205-.08.256-.341-.094-.018-.437.329-.256.342m7.737 17.685a2.935 2.935 0 0 0 .144-.3c-.1.058-.199.117-.299.168.04.038.088.077.155.133m-1.911-6.643a6.192 6.192 0 0 0-.52-1.457 13.281 13.281 0 0 0-.819-1.379c-.14-.21-.304-.408-.466-.604-.002.048-.004.096-.008.146a25.866 25.866 0 0 1 1.812 3.294m-1.018 2.499a12.474 12.474 0 0 0-1.092-2.556c-.003.094-.006.183-.013.275.43.864.811 1.673 1.105 2.28m-3.132-12.005a6.745 6.745 0 0 1-.71-1.034 1.3 1.3 0 0 0-1.179.38 5.035 5.035 0 0 1 1.887.661m-3.502.112c.023-.033.043-.073.071-.107-.155-.132-.454-.111-.071.107m1.463 8.106a2.15 2.15 0 0 0-.092-.169 2.54 2.54 0 0 0 .122.412c-.01-.083-.017-.163-.03-.244m-2.365-1.335c-.238-1.668-.482-.098 0 0m.103-1.631c.243-.052-.275-.359-.35-.372-.374.38-.26.502.35.372" data-name="Path 1646"/><path d="M-1196.064-655.725a1.036 1.036 0 0 1 .33.35 24.64 24.64 0 0 1-.248-1.533c-.597-1.058-.963-1.835-.735-1.896a7.431 7.431 0 0 0 .641 1.073 30.536 30.536 0 0 1-.09-1.093 7.8 7.8 0 0 1-.586-3.395c.065.057.227.072.513.029a.41.41 0 0 0 .025-.13 1.219 1.219 0 0 0-.334-.282 1.009 1.009 0 0 0-.175.185 3.425 3.425 0 0 1 .064-.407c.026.025.059.036.306.049a2.03 2.03 0 0 0 .16-.111c.006-.08.011-.16.014-.239a1.24 1.24 0 0 0-.426.135 2.138 2.138 0 0 1 .448-.685q.042-.82.1-1.614a1.369 1.369 0 0 0-.324.272 2.638 2.638 0 0 0 .007-.43c.237-.947.571-2.02.514-1.878-1.263.763 2.283-4.04 5.144-2.307-.205-.162-.396-.34-.614-.49.037-.099.298.136.679.52a3.3 3.3 0 0 1 .61.51c-.168-.156-.358-.286-.537-.434 1.332 1.382 3.96 4.486 3.884 2.885a17.241 17.241 0 0 1 1.326 3.919 3.463 3.463 0 0 1 .259.393 10.99 10.99 0 0 1 1.185 7.652 2.324 2.324 0 0 1-.162.376c.091 2.729-.374 4.64-1.865 3.988 1.86 1.258-.674-.16.312.94-.284-.316-.492-.562-.664-.776a3.841 3.841 0 0 1-3.086 1.518c.132.483.275 1.019.423 1.656-.028-.04-.664-1-1.071-1.696a5.228 5.228 0 0 1-.614-.114 5.916 5.916 0 0 1 .518 1.116c-.205.288-1.27-.769-2.103-1.765a6.156 6.156 0 0 1-2.685-3.064 18.43 18.43 0 0 1-.797-2.856.11.11 0 0 1-.083.13c-.788.418-.56-.68-.264-.503m11.505 3.669-.052.288c.088-.053.677-.41.052-.288m-4.625-14.136a.276.276 0 0 0 .04-.17.3.3 0 0 0-.183.07c.047.033.099.066.143.1m-3.815-3.07c.13 0 .198-.135.212-.4-.097.001-.402.432-.212.4m2.003.391c-.455-.777.687 1.51 0 0m.133 1.645a16.663 16.663 0 0 1-1.096-1.668c-.377-.122-.888.226-1.395.778a7.847 7.847 0 0 1 2.49.89m1.27 14.307a3.2 3.2 0 0 0 .004-.735 3.234 3.234 0 0 1-.41.984c.187.166.333.13.405-.246m-6.884-7.61c-.097-1.717-.507-.164 0 0" data-name="Path 1647"/><path d="M-1143.082-704.53a2.071 2.071 0 0 1 1.143-1.217c-.108-.15-.218-.308-.338-.489a5.482 5.482 0 0 1 1.01.266 5.059 5.059 0 0 1 .76-.122c-.186-.291-1.117.114-.941-.598.235-.867 1.453-.28 2.01-.46.893-.291-.347.844-.276.786a.864.864 0 0 0 .126.242 13.514 13.514 0 0 1 1.464.115c-.048-.103-.087-.202-.06-.216a1.4 1.4 0 0 1 .178.234 36.694 36.694 0 0 1 6.37 1.658c.058-.307.233-.592.667-.316a1.211 1.211 0 0 1 .224.623q.398.14.786.287c.28-.245.536-.51.536-.51-.155.836 2.038.09 2.515-.251.074-.072.09-.097.08-.115a4.274 4.274 0 0 0 1.168.488.452.452 0 0 1 .03-.165c.032-.065.094.054.128.204 1.662.406 3.658.225 4.85.711l.026.149.126-.005-.03-.096a1.481 1.481 0 0 1 .922 1.416c.19-2.91.077 1.151.328-.688-.174 1.297.04 2.423-.56 2.877.164-.123-.485-.285-1.43-.43a28.467 28.467 0 0 0 3.699 1.559c-3.475 4.094-27.75.555-25.5-5.94m23.114 3.097c.106.269.16.172.142-.29 0 0-.406-.069-.142.29m-2.641-1.532c.272 1.762.27-1.1 0 0m.632 1.503c-.003.07.033.881 0 0m-.252-1.437c-.031 1.281.08.275.075.186-.02-.157-.044-.22-.075-.186m.418-.057c-.3-.418-.447 2.2-.028.139l.028-.14m.084 1.43c.05.071.058.414.111.02Zm.203 1.278a.338.338 0 0 0 .127-.295c-.048.006-.314.07-.57.098l.443.197m-.92-1.492c.105-.55-.117-.304-.156-.081Zm-.043.882c.055.103-.014-.317-.088-.23Zm-.58-.73c-.091-.422-.135-.43-.126-.036.012.368.07.221.127.035m-.796-.483a.567.567 0 0 0-.022.405c.083-.07.09-.204.022-.405m-.768-.366c.025.231.107-.15 0 0m-.42.232.057.337c.099.233.044-.434-.056-.337m-.263.308a1.159 1.159 0 0 0 .069-.703 1.358 1.358 0 0 0-.069.703m-.317-.127c.013-.068.022-.141.038-.248 0 0-.116.206-.038.248" data-name="Path 1648"/><path d="M-1182.32-692.214c-.015-.064-.108.02-.254.195.18.21.236.64.1 1.403a26.124 26.124 0 0 1-8.017 14.096c-2.21 2.094-16.4 8.779-10.342.839.107-.139.23-.268.348-.404a.5.5 0 0 1-.117-.092c-.574-.723 1.391-2.141 1.462-2.048a.619.619 0 0 1 .166.527c.195-.184.375-.375.578-.555-.025.001-.034-.001.017-.105a.979.979 0 0 0 .385-.227c.7-.597 1.355-1.117 2.024-1.63.209-.26.36-.404.428-.329 1.1-.836 2.21-1.669 3.259-2.552-.309-.193-.649-.58-.046-.895.133-.069.518.062.864.189.186-.164.358-.343.531-.513-.076-.421-.196-.874-.175-.856.629.559 1.156-1.772 1.11-2.398-.023-.122-.046-.145-.065-.148a4.149 4.149 0 0 0 1.026-.84.445.445 0 0 1-.13-.104c-.047-.06.094-.064.246-.026 1.182-1.36 1.949-3.384 2.937-4.34.05.014.089.028.158.045l.052-.13a.918.918 0 0 1-.108-.01 1.448 1.448 0 0 1 1.693-.284c-2.535-1.48 1.063.43-.474-.631 1.106.766 2.197 1.038 2.34 1.825m-3.162 1.747.14-.12c-.45-.343-.321-.02-.14.12m-1.031-.486c1.692.514-.881-.747 0 0m.217-.347c1.137.585.281.04.202.012-.15-.058-.214-.06-.202-.012m.135-.438c-.519.086 1.883 1.458 0 0m1.406.444-.076.094a.682.682 0 0 1 .187.03c.01-.04-.034-.072-.113-.122m.652-1.842s-.244.365.198.267c.289.013.223-.077-.198-.267" data-name="Path 1650"/><path d="M-1163.86-623.778a1.419 1.419 0 0 1 .67 1.35c.066-.506-.058-4.08-.024-7.569.355-.343.382-.884.075-1.628-.019.065-.036.128-.055.19.078-3.204.324-5.944 1.044-5.586a10.817 10.817 0 0 0-.587 3.69c.564-.042 1.21-3.208 2.589-5.789.376-.307 1.04-.985.96-1.503a5.96 5.96 0 0 1 .376-.419.643.643 0 0 0 .313.328c.211.143.273-.592.239-.669a1.572 1.572 0 0 0-.3.074 4.826 4.826 0 0 1 .47-.385c0 .05.025.098.17.261a2.352 2.352 0 0 0 .55-.046c.053-.058.094-.118.146-.176a1 1 0 0 0-.547-.236 3.418 3.418 0 0 1 1.214-.471c.356-.292.738-.653 1.165-.997a9.852 9.852 0 0 1-1.412.286 13.582 13.582 0 0 1 4.337-2.781 5.727 5.727 0 0 0-1.533.355 35.634 35.634 0 0 1 9.583-2.907c-.476.012-.952.026-1.427.04-.128-.739 10.852 1.309 8.556-.471a17.408 17.408 0 0 1 4.543 1.778c-.114-.132-.166-.262-.032-.295.155-.04.643.438.505.557a45.73 45.73 0 0 1 6.584 5.17 16.8 16.8 0 0 1 1.43 1.786.561.561 0 0 0-.111-.022c-.079.507.225.52.386.403.333.46.687.966 1.048 1.498-.073.035-.071.273.148.351.046-.026.033-.053.025-.092a35.83 35.83 0 0 1 2.188 3.682c-.046.058.15.477.15.477.002-.02.01-.067.02-.12.79 1.681 1.042 2.97-.024 2.989 2.219.529-.453.318.89 1.124q-.875-.535-1.694-1.143a.759.759 0 0 1 .094.995 18.292 18.292 0 0 0-1.111-2.1c.092.624.181 1.282.236 1.851.098.194.2.387.296.586 1.263-.19 1.886-.032.493 1.028-.081.544.175.679.77.403-.033-.054-.759 1.326-.613 1.167-.294.322-10.113 4.008-10.643 3.619-.178-.13 1.46-.98.104-.744-.18.066-.357.129-.545.193.715.691-7.239 2.435-2.563 1.18-.262-.028-.499-.031-.74-.044a256.162 256.162 0 0 1-6.423 2.058c.284-.041.555-.035.611.144.288.94-1.043.252-1.316.073-2.146.652-4.26 1.264-6.234 1.794.065.277-.174.218-.378.1-1.722.457-3.325.85-4.752 1.158a.512.512 0 0 0-.03.255 1.557 1.557 0 0 0-.13-.221q-1.146.246-2.11.408c1.077.682.016 1.079-3.21 1.187 0 0 .166-.09.415-.217a7.241 7.241 0 0 1-1.951-2.11c.124 1.306.19 2.515.196 2.674-.183-.851-.365-2.287-.656-3.507a2.961 2.961 0 0 1-.206-.598c-.019-.094-.03-.186-.048-.281a5.239 5.239 0 0 0-.234-.56.391.391 0 0 0 .133-.025c-.015-.077-.024-.156-.037-.233l-.214-.131a.377.377 0 0 0-.027.133 1.059 1.059 0 0 0-.438-.42 16.256 16.256 0 0 1 .725 3.86c-.265.22-2.798-6.533-2.092-6.765m43.091-7.497c-.024-.04-.395-1.216-.389-.418-.098.323.03.458.39.418m-2.787-7.194a.216.216 0 0 0-.04-.303c-.78.561.007.353.04.303m.245 2.029-.16-.3c.03.159-.176.315.16.3m-.74-.848a.516.516 0 0 0 .123-.108c-.129-.169-.215-.183-.265-.141.049.082.09.168.14.249m-.603-1.457c.499-.003-.054-.479-.264-.44a4.41 4.41 0 0 1 .264.44m-6.14-5.926.121.363c.257.352.172-.277-.12-.363m5.943 18.274c.01.137.269.448 0 0m.375-.217c.1.016.212.24.18-.063Zm-5.105-17.536c.025.233.31.089 0 0m7.866 16.271c.2.08.252.002.171-.222l-.08.06c-.062.042-.152.094-.23.142a.569.569 0 0 0 .138.02m-4.431-12.338a1.2 1.2 0 0 0 .132.022c-.007-.484-.112-.583-.265-.32a.266.266 0 0 0-.031.124c.054.061.112.115.16.175m-1.002-1.102c.25.003 1.054-.315 0 0m-.52-.982c-.186-.02-.244.063-.178.243.217.122.28.044.178-.243m4.005 16.143a11.646 11.646 0 0 1-1.435.703c.498-.039 1.588-.306 1.435-.703m-7.674-19.158c-.28.077-.338.257-.254.524.312-.01.401-.184.254-.524m5.857 19.671c.125.036-.118-.208-.21-.102Zm-34.216-12.704c-.192-.325-.342.506.019.028-.04.053-.05-.07-.019-.028m4.685-5.924c-.16.132-.532.16-.601.538.197-.11.902-.794.6-.538m7.648-2.898.132-.042a.155.155 0 0 0 .042-.127.549.549 0 0 0-.177.161m14.854 1.87a.893.893 0 0 0 .133-.225l-.314.022a1.282 1.282 0 0 0 .035.131c.05.028.094.046.146.073m5.847 19.584c-.047.015-.095.03-.144.053.08.086.117.039.144-.053m-29.863-4.42c-.709.223-.793.129-.42-.407a20.48 20.48 0 0 0 2.03-.432c.107-.051.615-.272.737-.3a.876.876 0 0 1-.329.198c.497-.127.987-.266 1.4-.398a7.217 7.217 0 0 1-1.265-.02l1.553-.491a5.006 5.006 0 0 0 .572-.076.4.4 0 0 1-.078-.08l.316-.1c.043.018.064.02.123.117l.238-.05a.991.991 0 0 1 .188-.24.882.882 0 0 1 .158-.039.6.6 0 0 1 .073.187c.365-.082.759-.181 1.168-.287a1.529 1.529 0 0 1 .513-.133c1.287-.35 2.604-.752 3.368-1.046-.517.3-1.035.602-1.583.852 0 0 1.641-.598 3.57-1.295-.194 0 .482-.384 1.188-.437a1.117 1.117 0 0 0-.109.05 38.364 38.364 0 0 1 4.94-1.57 1 1 0 0 0-.848.604c.218.397 4.587-1.877 4.538-1.924a9.692 9.692 0 0 0-2.666.727.641.641 0 0 1 .244-.287 4.088 4.088 0 0 1 .509-.138c-.119.063-.014.03.28-.111.953-.301 1.907-.602 2.798-.946-.228-.187-.454-.336-.685-.51a4.508 4.508 0 0 1 .781.15 14.77 14.77 0 0 0-2.036-2.046s-.125-.066-.122-.098c-1.864-1.614-4.4-3.306-5.278-1.857-1.606-2.348-8.78.924-10.203 2.01 1.84-.462-3.883 4.583-3.582 4.767q.486-.56.95-1.14a31.092 31.092 0 0 0-4.166 7.19 16.02 16.02 0 0 0 1.135-.39m-.255 13.619.007-.17-.101.012a.967.967 0 0 0 .094.157m-.458.11c.043-.061.093-.145.156-.24-.436.056-.835.1-1.184.116a2.374 2.374 0 0 1 .03.35c.61-.282 1.182-.502.998-.226m-4.753-14.948c-.094.157.095-.673.118-.621a21.69 21.69 0 0 1 1.704-5.28c-2.445 1.982-2.99 9.974-2.6 11.204.058.184.228.218.416.214a29.56 29.56 0 0 1 .363-5.52m-.095 9.048a11.04 11.04 0 0 1-.037-.358 1.18 1.18 0 0 1-.091-.317 5.384 5.384 0 0 0-.042-.873.328.328 0 0 1-.11.04l-.027-.147a.177.177 0 0 1 .126-.04c-.035-.39-.042-.78-.055-1.171-.138.063-.255.123-.248.164.012.101.085.528.179 1.049-.069.062-.074.155.027.147.046.27.098.551.151.832-.067.028-.13.128-.195.313a.215.215 0 0 0 .262.034c.022.113.044.22.06.328" data-name="Path 1651"/></g></g></g><ellipse cx="-868.276" cy="211.858" rx="247.667" ry="26.629" style="fill:rgba(216,216,216,.65)"/><rect width="470.39" height="978.476" x="-1104.815" y="-789.88" fill="#c1b6ae" data-name="Rectangle 487" rx="63.751" ry="63.751"/><path fill="#ada49e" d="M-945.852 14.565h-64.009a9.151 9.151 0 0 1-9.152-9.151v-19.23a9.151 9.151 0 0 1 9.152-9.151h64.009a9.15 9.15 0 0 1 9.151 9.151v19.23a9.15 9.15 0 0 1-9.151 9.151" data-name="Path 1698"/><path fill="#ada49e" d="M-837.319-649.179h-64.009a9.152 9.152 0 0 1-9.151-9.152v-19.231a9.15 9.15 0 0 1 9.151-9.151h64.009a9.152 9.152 0 0 1 9.152 9.151v19.23a9.153 9.153 0 0 1-9.152 9.152" data-name="Path 1701"/><path fill="#ada49e" d="M-791.154-603.134h-64.009a9.152 9.152 0 0 1-9.153-9.152v-19.23a9.15 9.15 0 0 1 9.153-9.151h64.009c5.053 0 9.15 4.097 9.151 9.151v19.23a9.152 9.152 0 0 1-9.151 9.152" data-name="Path 1702"/><path fill="#ada49e" d="M-747.045-649.179h-64.009a9.152 9.152 0 0 1-9.151-9.152v-19.231a9.15 9.15 0 0 1 9.151-9.153h64.009a9.152 9.152 0 0 1 9.152 9.151v19.23a9.153 9.153 0 0 1-9.152 9.152" data-name="Path 1703"/><path fill="#ada49e" d="M-901.914 110.137h-64.009a9.152 9.152 0 0 1-9.152-9.151v-19.23a9.152 9.152 0 0 1 9.152-9.151h64.01a9.152 9.152 0 0 1 9.151 9.15v19.23a9.152 9.152 0 0 1-9.152 9.152" data-name="Path 1699"/><path fill="#ada49e" d="M-857.806 64.09h-64.009a9.152 9.152 0 0 1-9.152-9.15V35.71a9.152 9.152 0 0 1 9.152-9.151h64.01a9.152 9.152 0 0 1 9.15 9.15v19.23a9.151 9.151 0 0 1-9.15 9.152" data-name="Path 1700"/><g data-name="Group 831"><g data-name="Group 840"><g data-name="Group 906"><g data-name="Group 316"><g data-name="Group 895"><g data-name="Group 894"><path fill="none" stroke-linecap="round" stroke-linejoin="round" d="M162.336 199.288c-16.249-17.662-25.766-30.058-36.1-50.702a58.072 58.072 0 0 1-12.938 9.564" data-name="Path 578" style="stroke:#4d5c70;stroke-width:1.45038px" transform="matrix(-1.67093 1.09725 -1.1735 -1.78705 -267.18 404.62)"/><path stroke-miterlimit="10" d="M762.419-260.176c-15.234 5.184-26.481 19.024-35.3 33.347a230.208 230.208 0 0 0-31.874 90.422c-.809 6.2-1.362 12.617.233 18.639 2.021 7.641 7.3 13.828 13.133 18.707 11.07 9.264 24.478 14.776 38.058 18.559a77.71 77.71 0 0 0 35.251 1.521c11.75-2.191 21.326-6.594 26.991-17.878 3.353-6.678-9.849-35.556-5.045-46.17 11.1-24.81 21.695-38.705 19.052-58.508s-11.726-39.6-27.769-49.728c-5.107-3.227-10.893-9.475-16.813-9.708-12.854-.507-6.681-.628-15.914.8" data-name="Path 580" style="stroke:#4d5c70;fill:#7ec8d6;stroke-width:1.45036px" transform="matrix(1.999 0 0 2.13791 -2365.28 431.825)"/><path fill="none" stroke-linecap="round" stroke-linejoin="round" d="M42.011-23.128c4.532-3.031 21.872 15.251 23.26 17.539 6.11 10.071 6.856 28.283 6.617 40.994" data-name="Path 584" style="stroke:#4d5c70;stroke-width:1.45104px" transform="scale(-1.999 -2.13791) rotate(32 388.858 685.116)"/><path fill="none" stroke-linecap="round" stroke-linejoin="round" d="M137.536 100.734c-1.947 4.413-17.648 40.648-31.795 47.801" data-name="Path 1339" style="stroke:#4d5c70;stroke-width:1.45028px" transform="matrix(1.62135 -1.16927 1.25052 1.73403 -1086.642 66.095)"/><path bx:origin="0.289 0.099" fill="none" stroke-linecap="round" stroke-linejoin="round" d="M102.775 252.876c12.728-23.885 17.158-29.021 35.973-46.156-6.379.57-8.421-.494-19.71 1.255" data-name="Path 579" style="stroke:#4d5c70;stroke-width:1.45099px" transform="matrix(-.45263 1.94707 -2.08238 -.48409 -293.581 183.23)"/></g></g></g><g data-name="Group 319"><g data-name="Group 317"><path fill="none" stroke-linecap="round" stroke-linejoin="round" d="M.596 6.854c2.118.467 4.3.568 6.452.3" data-name="Path 586" style="stroke:#4d5c70;stroke-width:1.45036px" transform="matrix(1.9634 .37556 -.40166 2.09984 -763.707 -27.71)"/></g><g data-name="Group 318"><path fill="none" stroke-linecap="round" stroke-linejoin="round" d="M47.741 55.73c-2.118.467-6.047-.479-8.132.487" data-name="Path 588" style="stroke:#4d5c70;stroke-width:1.45036px" transform="matrix(1.95952 -.3953 .42277 2.0957 -921.346 -111.41)"/></g><path fill="none" stroke-linecap="round" stroke-linejoin="round" d="M65.781 66.667s-1.314-1.421-3.231-1.709c-4.713-.708-13.987-1.863-21.757-1.367" data-name="Path 589" style="stroke:#4d5c70;stroke-width:1.45036px" transform="matrix(1.999 0 0 2.13791 -898.003 -105.998)"/></g><g data-name="Group 1541"><g data-name="Group 1539"><path d="M-157.42-5.226h-.037a4.28 4.28 0 0 1-3.283-1.267 5.035 5.035 0 0 1-1.137-3.552c-.02-1.3.438-2.56 1.28-3.519a4.312 4.312 0 0 1 3.218-1.384h.01c1.318.001 2.565.616 3.402 1.678a1.944 1.944 0 0 0-1.361-.491h-.034c-1.466-.084-2.468 1.517-1.806 2.882.091.186.208.357.35.504a2.1 2.1 0 0 0 1.515.652h.086c1.059-.011 1.892-.946 1.824-2.05a2.261 2.261 0 0 0-.141-.852 5.35 5.35 0 0 1 .665 2.651 4.92 4.92 0 0 1-1.258 3.453 4.422 4.422 0 0 1-3.293 1.295Zm3.878-7.412a4.718 4.718 0 0 0-.425-.632c.186.175.332.39.427.631Z" data-name="Exclusion 2" style="fill:#4d5c70;stroke-width:2.52707px" transform="matrix(.58007 1.03892 -1.03385 .5779 -727.575 168.504)"/><path d="M-119.721-1.678h-.037a4.28 4.28 0 0 1-3.283-1.267 5.035 5.035 0 0 1-1.137-3.552c-.02-1.3.438-2.56 1.28-3.519a4.312 4.312 0 0 1 3.218-1.384h.01c1.318.001 2.565.616 3.402 1.678a1.944 1.944 0 0 0-1.361-.491h-.034c-1.466-.084-2.468 1.517-1.806 2.882.091.186.208.357.35.504a2.1 2.1 0 0 0 1.515.652h.086c1.059-.011 1.892-.946 1.824-2.05a2.261 2.261 0 0 0-.141-.852 5.35 5.35 0 0 1 .665 2.651 4.92 4.92 0 0 1-1.258 3.453 4.422 4.422 0 0 1-3.293 1.295Zm3.878-7.412a4.718 4.718 0 0 0-.425-.632c.186.175.332.39.427.631Z" data-name="Exclusion 2" style="fill:#4d5c70;stroke-width:2.52707px" transform="matrix(.58007 1.03892 -1.03385 .5779 -700.757 129.147)"/></g></g></g></g></g><g data-name="Group 1094"><g clip-path="url(#EmotionDefense_svg__h)" data-name="Group 1093" transform="matrix(-.90619 -.27339 -.2415 .8005 -278.648 -507.598)"><path fill="#f3d643" d="M164 246.443c-.164 3.21-147.358-.487-162.483-114.461C-14.909 8.218 106.445-19.52 163.658 11.901c50.89 27.961 78.405 102.773 31.328 165.109-21.589 28.586-59.624 37.48-56.819 43.8 3.88 8.738 26.035 21.645 25.83 25.629" data-name="Path 1621"/><path d="M77.866 101.511a5.181 5.181 0 1 1-5.286-5.074 5.176 5.176 0 0 1 5.286 5.074" data-name="Path 1622"/><path d="M157.301 99.885a5.183 5.183 0 1 1-5.282-5.074 5.176 5.176 0 0 1 5.282 5.074" data-name="Path 1623"/><path d="M88.683 112.127s.1.279.272.677c.2.443.5 1.09.885 1.919a33.9 33.9 0 0 0 4 6.312 31.469 31.469 0 0 0 3.337 3.459 23.982 23.982 0 0 0 4.311 2.879 20.707 20.707 0 0 0 5.174 1.823 24.725 24.725 0 0 0 5.632.58c1.09-.056 2.321-.033 3.288-.153l2.615-.461c.885-.3 1.789-.528 2.667-.8l2.462-1.131a24.019 24.019 0 0 0 4.206-3.004 27.055 27.055 0 0 0 3.221-3.56 32.468 32.468 0 0 0 3.773-6.447c.74-1.681 1.064-2.667 1.045-2.608a1.963 1.963 0 0 1 3.869.67l-.108.926a22.694 22.694 0 0 1-.439 2.429 32.024 32.024 0 0 1-3.184 8.228 26.985 26.985 0 0 1-3.545 4.929 26.43 26.43 0 0 1-5.312 4.467c-1.049.61-2.165 1.149-3.281 1.726a81.603 81.603 0 0 1-3.578 1.254c-1.287.279-2.626.506-3.954.729-1.246.156-2.273.141-3.422.219a28.884 28.884 0 0 1-7.652-.859 23.953 23.953 0 0 1-6.9-2.8 25.007 25.007 0 0 1-5.442-4.281c-.755-.792-1.41-1.622-2.072-2.4l-1.626-2.422a31.551 31.551 0 0 1-3.422-8.135 21.694 21.694 0 0 1-.517-2.422 98.71 98.71 0 0 1-.123-.893 1.968 1.968 0 0 1 3.805-.923Z" data-name="Path 1624"/><path fill="#ce4a70" d="M71.014 120.418a15.349 15.349 0 1 0-15.034 15.656 15.35 15.35 0 0 0 15.034-15.656" data-name="Path 1625"/><path fill="#ce4a70" d="M181.889 120.421a15.349 15.349 0 1 0-15.031 15.66 15.348 15.348 0 0 0 15.032-15.66" data-name="Path 1626"/></g></g><g data-name="Group 1411"><path fill="none" d="M595.412 245.654 417.528 101.652l152.72-188.654L748.132 57z" data-name="Rectangle 451"/></g></svg>