<?xml version="1.0" encoding="utf-8"?>
<svg viewBox="-1473.895 -896.825 1174.571 1259.6" xmlns="http://www.w3.org/2000/svg" xmlns:bx="https://boxy-svg.com">
  <defs>
    <clipPath id="clip-2">
      <rect id="Rectangle_449" data-name="Rectangle 449" width="242.065" height="244.073" fill="none"/>
    </clipPath>
    <clipPath id="clip-3">
      <rect id="Rectangle_448" data-name="Rectangle 448" width="233.57" height="250.237" fill="none"/>
    </clipPath>
    <clipPath id="clip-4">
      <rect id="rect-1" data-name="Rectangle 448" width="219.217" height="247.122" fill="none"/>
    </clipPath>
    <clipPath id="clip-Balance">
      <rect width="1166" height="1094"/>
    </clipPath>
    <clipPath id="clip-6">
      <rect id="rect-2" data-name="Rectangle 448" width="219.217" height="247.122" fill="none"/>
    </clipPath>
    <clipPath id="clip-7">
      <rect id="rect-3" data-name="Rectangle 451" width="228.937" height="242.798" fill="none"/>
    </clipPath>
    <clipPath id="clip-8">
      <rect id="rect-5" data-name="Rectangle 448" width="219.217" height="247.122" fill="none"/>
    </clipPath>
    <clipPath id="clip-10">
      <rect id="rect-7" data-name="Rectangle 482" width="229.531" height="241.419" fill="none"/>
    </clipPath>
    <clipPath id="clip-9">
      <rect id="rect-6" data-name="Rectangle 482" width="229.531" height="241.419" fill="none"/>
    </clipPath>
  </defs>
  <g id="Group_761" data-name="Group 761" transform="matrix(1, 0, 0, 1, -207.308701, -4208.700195)">
    <g id="Group_687" data-name="Group 687" transform="matrix(2.833977, 0, 0, 2.89334, -521.584595, 3412.244629)" style="">
      <path id="Path_442" data-name="Path 442" d="M17.54,0h0c12.1,0,21.91,9.071,21.91,20.261S35.725,36.915,14.71,40.521h0C2.609,40.521,0,16.633,0,16.633S5.439,0,17.54,0Z" transform="translate(35.509 15.451) rotate(31)" fill="#e79e17"/>
      <rect id="Rectangle_157" data-name="Rectangle 157" width="23.826" height="3.665" rx="1.833" transform="matrix(0.799, 0.602, -0.602, 0.799, 5.916, 10.623)" fill="#e79e17"/>
      <rect id="Rectangle_160" data-name="Rectangle 160" width="26.88" height="4.887" rx="2.444" transform="matrix(0.799, 0.602, -0.602, 0.799, 60.291, 56.436)" fill="#e79e17"/>
      <rect id="Rectangle_161" data-name="Rectangle 161" width="21.382" height="3.665" rx="1.833" transform="matrix(0.259, 0.966, -0.966, 0.259, 48.928, 66.007)" fill="#e79e17"/>
      <rect id="Rectangle_162" data-name="Rectangle 162" width="21.382" height="3.665" rx="1.833" transform="matrix(-0.225, 0.974, -0.974, -0.225, 57.17, 0.825)" fill="#e79e17"/>
      <rect id="Rectangle_158" data-name="Rectangle 158" width="26.88" height="3.665" rx="1.833" transform="matrix(0.819, -0.574, 0.574, 0.819, 0, 73.481)" fill="#e79e17"/>
      <rect id="Rectangle_159" data-name="Rectangle 159" width="26.269" height="3.665" rx="1.833" transform="matrix(0.819, -0.574, 0.574, 0.819, 59.915, 30.565)" fill="#e79e17"/>
    </g>
    <g id="Group_762" data-name="Group 762" transform="matrix(1, 0, 0, 1, -73.073498, -40.677358)"/>
  </g>
  <g style="" transform="matrix(0.784346, 0.051759, -0.05206, 0.788904, -648.579529, 85.975136)">
    <g id="g-7" data-name="Group 1094" transform="matrix(1, 0, 0, 1, 5.121575, -596.95166)">
      <g id="g-8" data-name="Group 1093" transform="translate(0 0)" clip-path="url(#clip-8)">
        <path id="path-8" data-name="Path 1621" d="M 164 0.68 C 163.836 -2.53 16.642 1.167 1.517 115.141 C -14.909 238.905 106.445 266.643 163.658 235.222 C 214.548 207.261 242.063 132.449 194.986 70.113 C 173.397 41.527 135.362 32.633 138.167 26.313 C 142.047 17.575 164.202 4.668 163.997 0.684" style="fill: rgb(232, 227, 93);" transform="matrix(-1, 0, 0, -1, 219.219809, 247.12298)"/>
      </g>
    </g>
    <g id="Group_367" data-name="Group 367" transform="matrix(1, 0, 0, 1, 9.06463, -624.737854)">
      <path id="Path_200" data-name="Path 200" d="M 73.201 102.981 C 73.279 110.881 98.737 110.637 98.66 102.734" fill="none" stroke-linecap="round" stroke-linejoin="round" style="stroke: rgb(0, 0, 0); stroke-width: 5px;" transform="matrix(-0.962128, 0.272598, -0.272598, -0.962128, 197.436648, 184.089232)"/>
      <path id="Path_201" data-name="Path 201" d="M 139.735 100.244 C 139.813 108.144 165.27 107.9 165.193 99.997" fill="none" stroke-linecap="round" stroke-linejoin="round" style="stroke: rgb(0, 0, 0); stroke-width: 5px;" transform="matrix(-0.975828, -0.218542, 0.218542, -0.975828, 278.728, 236.874539)"/>
      <path id="Path_202" data-name="Path 202" d="M 87.899 151.96 C 100.001 162.288 140.491 159.021 151.109 145.999" fill="none" stroke-linecap="round" stroke-linejoin="round" style="stroke: rgb(0, 0, 0); stroke-width: 5px;"/>
    </g>
  </g>
  <g id="Group_1096" data-name="Group 1096" transform="matrix(-0.794211, -0.127727, -0.127437, 0.79241, -485.426788, -509.637634)" style="">
    <g id="Group_1095" data-name="Group 1095" transform="translate(0 0)" clip-path="url(#clip-2)">
      <path id="Path_1627" data-name="Path 1627" d="M178.5,243.819c4.171-2.386-5.334-29.979-5.334-29.979s73.948-29.32,68.618-107.257S145.863-27.322,65.254,13.984s-78.391,137.979-37.3,180.289c44.637,45.968,116.577,32.889,116.577,32.889s29.315,19.324,33.977,16.657" transform="translate(-0.001 0.003)" fill="#f297bc"/>
      <path id="Path_1628" data-name="Path 1628" d="M30.561,33.189S23.228,18.2,14.568,25.528,25.5,55.184,33.224,54.839c7.329-.332,24.317-26.312,14.989-32.978-9.954-7.11-17.652,11.327-17.652,11.327" transform="translate(39.686 64.737)" fill="#ab003d"/>
      <path id="Path_1629" data-name="Path 1629" d="M52.332,31.419S45,16.43,36.339,23.759,47.275,53.414,54.995,53.07c7.329-.332,23.99-24.649,14.658-31.31-9.95-7.11-17.32,9.66-17.32,9.66" transform="translate(109.351 64.008)" fill="#ab003d"/>
      <path id="Path_1630" data-name="Path 1630" d="M25.8,28.584c.008.059.433.722,1.34,2.1a36.387,36.387,0,0,0,4.154,5.082A26.312,26.312,0,0,0,38.3,40.949a21.222,21.222,0,0,0,9.328,2.142l.63.025.311.013.16.008h.08l.038,0c.067,0-.533.042-.269.021H48.6l1.478-.147c.479-.059,1.021-.088,1.441-.16l.97-.269A16.214,16.214,0,0,0,56.662,41a24.748,24.748,0,0,0,3.7-2.537,38.141,38.141,0,0,0,3-2.995,37.675,37.675,0,0,0,3.931-5.33c.8-1.365,1.264-2.142,1.264-2.142l.155-.26a2.211,2.211,0,0,1,4.066,1.592s-.059.286-.176.815a20.667,20.667,0,0,1-.58,2.121,34.079,34.079,0,0,1-3.272,7.123A30.09,30.09,0,0,1,65.507,43.7a25.7,25.7,0,0,1-4.758,4.04,22.381,22.381,0,0,1-6.363,2.873l-1.882.462c-.55.1-1,.13-1.5.2l-1.474.181-.391.029h-.323l-.433,0-.861-.008a26.056,26.056,0,0,1-6.846-.92,23.919,23.919,0,0,1-6.207-2.621,26.651,26.651,0,0,1-8.417-7.917,30.89,30.89,0,0,1-3.6-7.031,20.1,20.1,0,0,1-.651-2.129c-.118-.517-.181-.785-.181-.785l-.151-.664a2.2,2.2,0,0,1,4.292-.991c.013.055.025.118.034.172" transform="translate(68.52 85.255)"/>
    </g>
  </g>
  <g transform="matrix(-0.675226, -0.375671, -0.374713, 0.673505, 463.333893, 422.735291)" style="">
    <g id="g-4" data-name="Group 1094" transform="matrix(1, 0, 0, 1, 1445.107544, -108.294716)">
      <g id="g-5" data-name="Group 1093" transform="translate(0 0)" clip-path="url(#clip-6)">
        <path id="path-3" data-name="Path 1621" d="M 164 246.442 C 163.836 249.652 16.642 245.955 1.517 131.981 C -14.909 8.217 106.445 -19.521 163.658 11.9 C 214.548 39.861 242.063 114.673 194.986 177.009 C 173.397 205.595 135.362 214.489 138.167 220.809 C 142.047 229.547 164.202 242.454 163.997 246.438" style="fill: rgb(255, 66, 66);" transform="translate(0 0.001)"/>
        <path id="path-12" data-name="Path 1622" d="M28.508,31a5.181,5.181,0,1,1-5.286-5.074A5.176,5.176,0,0,1,28.508,31" transform="translate(49.358 70.511)"/>
        <path id="path-14" data-name="Path 1623" d="M49.866,30.563a5.183,5.183,0,1,1-5.282-5.074,5.176,5.176,0,0,1,5.282,5.074" transform="translate(107.435 69.322)"/>
        <path id="path-6" data-name="Path 1624" d="M 87.558 111.076 C 87.803 111.214 98.941 116.095 110.769 115.745 C 124.027 115.355 138.149 109.751 138.763 110.456 C 139.302 111.074 139.56 112.041 139.44 112.992 L 139.332 114.266 C 139.23 115.39 139.083 116.506 138.893 117.609 C 138.216 121.566 137.145 125.377 135.709 128.931 C 134.717 131.368 133.527 133.644 132.164 135.714 C 130.597 138.075 128.811 140.142 126.852 141.861 C 125.803 142.7 124.687 143.442 123.571 144.236 C 122.403 144.835 121.213 145.424 119.993 145.962 C 118.706 146.345 117.367 146.658 116.039 146.965 C 114.793 147.179 113.766 147.159 112.617 147.266 C 110.039 147.343 107.466 146.947 104.965 146.084 C 102.533 145.302 100.205 144.002 98.065 142.231 C 96.061 140.624 94.23 138.641 92.623 136.34 C 91.868 135.25 91.213 134.108 90.551 133.037 C 89.989 131.886 89.447 130.775 88.925 129.704 C 87.409 126.212 86.257 122.444 85.503 118.51 C 85.285 117.413 85.112 116.301 84.986 115.177 C 84.904 114.379 84.863 113.948 84.863 113.948 C 84.658 111.883 86.155 110.286 87.558 111.076 Z" style=""/>
      </g>
    </g>
    <path d="M 1496.54 -29.15 C 1498.718 -33.13 1499.995 -37.105 1501.643 -39.976 C 1503.673 -43.509 1506.265 -45.369 1511.793 -43.505" style="stroke: rgb(0, 0, 0);" transform="matrix(0.905752, 0.423808, -0.423808, 0.905752, 126.212795, -640.936232)"/>
    <path d="M 1592.081 -47.706 C 1594.259 -43.726 1595.536 -39.751 1597.184 -36.88 C 1599.214 -33.347 1601.806 -31.487 1607.334 -33.351" style="stroke: rgb(0, 0, 0);" transform="matrix(-0.905752, 0.423808, -0.423808, -0.905752, 3031.625514, -754.504985)"/>
  </g>
  <g id="Group_1100" data-name="Group 1100" transform="matrix(-1, 0, 0, 1, -995.314758, -584.984192)">
    <g id="Group_1099" data-name="Group 1099" transform="translate(0 0)" clip-path="url(#clip-7)">
      <path id="path-7" data-name="Path 1636" d="M64.087,215.115s-.817,26.148,3.286,27.642c3.093,1.128,18.085-21.17,18.085-21.17s49.283,15.387,99.717-18.234C229.9,173.54,260.34,68.918,173.594,19,110.208-17.474,51.675,1.976,17.659,48.4-7.611,82.875-16.064,157.086,64.087,215.115" transform="translate(0 0)" fill="#d65050"/>
      <path id="Path_1637" data-name="Path 1637" d="M20.513,55.823s.085-.334.25-.954a27.345,27.345,0,0,1,.87-2.6,42,42,0,0,1,4.506-8.614,35.24,35.24,0,0,1,10.084-9.894c1.107-.733,2.348-1.3,3.556-1.969,1.24-.592,2.585-1.007,3.9-1.506,1.353-.387,2.75-.66,4.136-.979,1.4-.213,2.823-.314,4.24-.419l.532-.04.064,0,.338,0,.121.008.234.012.942.052,1.881.109a34.315,34.315,0,0,1,4.357.717,29.129,29.129,0,0,1,7.772,3.27c1.128.745,2.211,1.534,3.222,2.336.926.89,1.893,1.711,2.7,2.605a33.42,33.42,0,0,1,4.011,5.392,39.531,39.531,0,0,1,3.886,8.976,26.051,26.051,0,0,1,.644,2.658c.117.66.181,1.011.181,1.011a2.121,2.121,0,0,1-4.035,1.216L78.821,57s-.109-.258-.314-.733c-.234-.5-.584-1.228-1.027-2.163a41.288,41.288,0,0,0-4.53-7.16,35.019,35.019,0,0,0-3.7-4.007c-.7-.648-1.5-1.2-2.251-1.824q-1.238-.773-2.517-1.579A23.722,23.722,0,0,0,58.79,37.46a22.652,22.652,0,0,0-3.012-.471L53.9,36.92l-.942-.04-.238-.008-.117,0-.028,0c-.262,0,.318,0,.246.008l-.044,0-.411.044c-1.083.137-2.187.141-3.258.29-1.055.242-2.122.415-3.153.685-1.007.354-2.005.709-2.992,1.055-.934.471-1.917.83-2.8,1.357a35.626,35.626,0,0,0-8.908,7.317,48.314,48.314,0,0,0-5.114,6.834c-.532.89-.946,1.591-1.228,2.066l-.4.729-.064.129a2.129,2.129,0,0,1-3.93-1.558" transform="translate(61.876 87.317)"/>
      <path id="Path_1638" data-name="Path 1638" d="M33.666,33.424a7.825,7.825,0,1,1-7.776-7.869,7.829,7.829,0,0,1,7.776,7.869" transform="translate(54.538 77.355)"/>
      <path id="Path_1639" data-name="Path 1639" d="M19.55,23.3a26.913,26.913,0,0,1,4.4,1.152,55.318,55.318,0,0,1,8.863,3.987,58.757,58.757,0,0,1,8.09,5.4A28.932,28.932,0,0,1,44.24,36.9a2.251,2.251,0,0,1-.185,3.181,2.286,2.286,0,0,1-1.86.54,28.836,28.836,0,0,1-4.377-1.188,58.529,58.529,0,0,1-8.884-3.955,55.4,55.4,0,0,1-8.11-5.36,27.53,27.53,0,0,1-3.318-3.1A2.267,2.267,0,0,1,19.55,23.3" transform="translate(51.321 70.457)"/>
      <path id="Path_1640" data-name="Path 1640" d="M51.3,33.534a7.825,7.825,0,1,1-7.772-7.869A7.826,7.826,0,0,1,51.3,33.534" transform="translate(107.914 77.688)"/>
      <path id="Path_1641" data-name="Path 1641" d="M60.96,27.183A27.075,27.075,0,0,1,57.6,30.239a54.7,54.7,0,0,1-8.171,5.255,58.147,58.147,0,0,1-8.936,3.842A29.289,29.289,0,0,1,36.1,40.468a2.251,2.251,0,0,1-2.565-1.889,2.28,2.28,0,0,1,.568-1.856,29.08,29.08,0,0,1,3.379-3.02,58.342,58.342,0,0,1,8.151-5.292,55.183,55.183,0,0,1,8.916-3.878,27.32,27.32,0,0,1,4.41-1.1,2.263,2.263,0,0,1,2,3.745" transform="translate(101.455 70.883)"/>
    </g>
  </g>
  <g transform="matrix(-1.391638, 0.130699, 0.108463, 1.154871, -2155.950684, -1926.159302)" style="">
    <g>
      <g id="g-9" data-name="Group 1140" transform="matrix(1, 0, 0, 1, -645.594788, 949.675537)">
        <g id="g-10" data-name="Group 1139" transform="translate(0 0.001)" clip-path="url(#clip-9)">
          <path id="path-9" data-name="Path 1667" d="M 24.857 199.79 C 24.857 199.79 9.352 227.898 11.593 231.554 C 13.834 235.21 43.536 222.254 43.536 222.254 C 43.536 222.254 73.836 250.23 131.473 238.583 C 209.339 222.853 256.773 141.074 212.528 59.499 C 171.128 -16.845 81.949 -12.816 34.138 32.699 C -13.673 78.214 -5.988 152.449 24.857 199.79" style="fill: rgb(124, 141, 169);" transform="matrix(-1, 0, 0, -1, 229.526566, 241.419113)"/>
          <path id="path-11" data-name="Path 1669" d="M 100.743 170.321 C 100.743 170.321 101.735 170.036 103.231 169.778 C 105.056 169.457 106.896 169.244 108.74 169.139 C 110.747 169.048 112.754 168.999 114.266 169.073 C 115.775 169.139 116.786 169.277 116.786 169.277 C 119.457 169.646 120.645 172.79 118.922 174.937 C 118.437 175.542 117.771 175.978 117.029 176.179 C 117.029 176.179 116.037 176.452 114.536 176.707 C 113.039 176.98 111.037 177.189 109.033 177.359 C 107.191 177.491 105.348 177.518 103.509 177.44 C 102.664 177.408 101.821 177.335 100.987 177.219 C 98.314 176.797 97.182 173.618 98.95 171.494 C 99.418 170.931 100.044 170.52 100.743 170.317" style="" transform="matrix(0.999847, -0.017487, 0.017487, 0.999847, -2.984261, 2.075691)" bx:origin="0.883 0.313"/>
        </g>
      </g>
    </g>
    <path id="path-10" data-name="Path 1622" d="M -484.893 1050.491 C -484.795 1054.747 -489.965 1057.502 -494.202 1055.449 C -498.438 1053.396 -498.561 1048.074 -494.423 1045.871 C -493.48 1045.369 -492.404 1045.094 -491.301 1045.074 C -487.833 1045.008 -484.961 1047.436 -484.893 1050.491" style=""/>
    <path id="path-13" data-name="Path 1622" d="M -587.594 1065.569 C -587.504 1069.582 -592.204 1072.18 -596.054 1070.243 C -599.904 1068.308 -600.016 1063.291 -596.256 1061.216 C -595.398 1060.742 -594.42 1060.482 -593.418 1060.463 C -590.266 1060.401 -587.655 1062.69 -587.594 1065.569" style=""/>
  </g>
  <path id="path-5" data-name="Path 1226" d="M -1394.811 -716.955 L -1193.878 -716.955 C -1193.878 -716.955 -1040.3 -722.507 -1039.455 -683.985 C -1038.612 -645.465 -1070.997 -648.03 -1096.19 -633.044 C -1121.385 -618.057 -1103.255 -599.267 -1125.161 -572.318 C -1147.067 -545.371 -1167.596 -541.37 -1207.501 -563.543 C -1247.408 -585.716 -1272.784 -480.643 -1336.664 -492.405 C -1400.543 -504.168 -1408.505 -540.383 -1411.228 -588.819 C -1413.95 -637.258 -1461.444 -628.202 -1455.827 -669.151 C -1450.21 -710.099 -1394.811 -716.955 -1394.811 -716.955 Z" style="fill: rgb(53, 63, 79);" transform="matrix(-1, 0, 0, -1, -2495.727051, -1208.716064)"/>
  <path id="path-21" data-name="Path 1226" d="M -1231.104 -128.899 L -1126.109 -128.899 C -1126.109 -128.899 -1045.859 -132.055 -1045.417 -110.154 C -1044.977 -88.254 -1061.899 -89.713 -1075.063 -81.193 C -1088.229 -72.672 -1078.755 -61.989 -1090.202 -46.668 C -1101.648 -31.348 -1112.376 -29.073 -1133.227 -41.679 C -1154.08 -54.285 -1167.34 5.452 -1200.72 -1.235 C -1234.099 -7.923 -1238.259 -28.512 -1239.682 -56.049 C -1241.104 -83.589 -1265.922 -78.44 -1262.987 -101.721 C -1260.052 -125.001 -1231.104 -128.899 -1231.104 -128.899 Z" style="fill: rgb(53, 63, 79);" transform="matrix(-1, 0, 0, -1, -2308.636597, -129.767822)"/>
  <g transform="matrix(0.916707, 0, 0, 0.940607, 171.557007, -522.331177)" style="">
    <g id="g-12" data-name="Group 1140" transform="matrix(1, 0, 0, 1, -1544.942871, 133.738831)">
      <g id="g-13" data-name="Group 1139" transform="translate(0 0.001)" clip-path="url(#clip-10)">
        <path id="path-15" data-name="Path 1667" d="M 24.857 41.629 C 24.857 41.629 9.352 13.521 11.593 9.865 C 13.834 6.209 43.536 19.165 43.536 19.165 C 43.536 19.165 73.836 -8.811 131.473 2.836 C 209.339 18.566 256.773 100.345 212.528 181.92 C 171.128 258.264 81.949 254.235 34.138 208.72 C -13.673 163.205 -5.988 88.97 24.857 41.629" transform="matrix(-1, 0, 0, -1, 229.526566, 241.418865)" style="fill: rgb(136, 166, 163);"/>
        <path id="path-16" data-name="Path 1668" d="M 37.919 106.252 C 39.858 105.846 41.829 105.505 43.824 105.227 C 48.153 104.599 52.54 104.134 56.953 103.834 C 61.768 103.53 66.599 103.308 70.256 103.308 C 73.9 103.291 76.361 103.425 76.361 103.425 C 82.867 103.785 86.325 108.486 82.583 111.889 C 81.529 112.847 80.017 113.562 78.271 113.925 C 78.271 113.925 75.922 114.412 72.364 114.93 C 68.806 115.447 64.023 115.934 59.234 116.345 C 54.824 116.696 50.385 116.879 45.938 116.893 C 43.899 116.915 41.86 116.869 39.826 116.754 C 33.308 116.319 29.977 111.559 33.829 108.187 C 34.851 107.294 36.277 106.621 37.919 106.257" style="" transform="matrix(0.994212, -0.10744, 0.10744, 0.994212, -11.492805, 6.885881)"/>
        <path id="path-17" data-name="Path 1670" d="M 83.33 147.402 C 83.33 147.402 86.981 146.254 92.74 144.89 C 95.605 144.25 98.969 143.539 102.587 142.869 C 104.375 142.503 106.371 142.32 108.329 142.075 C 110.4 141.863 112.088 141.543 114.529 141.426 C 118.404 141.447 122.101 141.268 125.881 141.459 C 129.615 141.659 133.181 141.875 136.069 142.145 C 141.869 142.715 145.749 143.33 145.749 143.33 C 149.73 143.958 151.539 148.66 149.005 151.795 C 148.016 153.017 146.531 153.73 144.959 153.738 L 144.897 153.738 C 144.897 153.738 141.134 153.759 135.454 153.696 C 132.601 153.596 129.454 153.725 126.011 153.646 C 122.605 153.538 118.639 153.808 114.85 153.875 C 113.116 154.058 111.382 154.237 109.677 154.416 C 107.893 154.641 106.177 154.695 104.425 154.986 C 100.965 155.543 97.697 155.847 94.919 156.296 C 89.384 157.119 85.546 157.61 85.546 157.61 C 81.54 158.109 78.496 154.084 80.067 150.365 C 80.663 148.955 81.846 147.875 83.305 147.41 Z"/>
        <path id="path-18" data-name="Path 1622" d="M 161.48 112.422 C 161.609 118.154 154.798 121.864 149.218 119.099 C 143.64 116.334 143.477 109.168 148.926 106.201 C 150.169 105.524 151.586 105.153 153.039 105.127 C 157.607 105.038 161.39 108.308 161.48 112.422" style=""/>
        <path d="M 145.741 130.177 C 149.649 124.109 152.2 118.049 155.135 113.672 C 158.749 108.285 162.945 105.449 170.975 108.292" style="fill: rgb(111, 152, 148);" transform="matrix(-0.82333, -0.567562, 0.567562, -0.82333, 221.384439, 306.258682)"/>
        <path id="path-19" data-name="Path 1668" d="M 134.644 101.305 C 136.584 100.9 138.554 100.558 140.55 100.28 C 144.878 99.653 149.265 99.188 153.679 98.888 C 158.494 98.584 163.324 98.361 166.981 98.361 C 170.625 98.344 173.086 98.479 173.086 98.479 C 179.593 98.838 183.05 103.54 179.308 106.943 C 178.255 107.901 176.742 108.615 174.996 108.978 C 174.996 108.978 172.648 109.466 169.089 109.984 C 165.531 110.501 160.748 110.988 155.959 111.399 C 151.55 111.749 147.11 111.932 142.663 111.947 C 140.624 111.969 138.585 111.922 136.552 111.808 C 130.033 111.372 126.702 106.613 130.554 103.241 C 131.576 102.347 133.002 101.675 134.644 101.311" style="" transform="matrix(0.999298, 0.037465, -0.037465, 0.999298, 4.048413, -5.728895)"/>
      </g>
    </g>
    <path id="path-20" data-name="Path 1622" d="M -1479.956 254.933 C -1479.827 260.665 -1486.638 264.375 -1492.218 261.61 C -1497.796 258.845 -1497.959 251.679 -1492.51 248.712 C -1491.267 248.035 -1489.85 247.664 -1488.397 247.638 C -1483.829 247.549 -1480.046 250.819 -1479.956 254.933" style=""/>
    <path d="M -1494.316 272.727 C -1490.408 266.659 -1487.857 260.599 -1484.922 256.222 C -1481.308 250.835 -1477.112 247.999 -1469.082 250.842" style="fill: rgb(111, 152, 148);" transform="matrix(-0.861488, -0.507778, 0.507778, -0.861488, -2890.808376, -266.110103)"/>
    <path d="M -1460.231 301.818 C -1448.134 288.491 -1448.761 287.223 -1445.826 282.846 C -1442.212 277.459 -1443.027 277.09 -1434.997 279.933" style="fill: rgba(104, 145, 140, 0.76);" transform="matrix(-0.823134, -0.567847, 0.567847, -0.823134, -2803.869043, -293.317455)"/>
  </g>
  <g id="Group_1150" data-name="Group 1150" transform="matrix(-0.953556, 0.301221, 0.301221, 0.953556, 0.381843, -1996.052246)">
    <g id="Group_1103" data-name="Group 1103" transform="translate(1384.566 812)">
      <g id="Group_1093" data-name="Group 1093" transform="translate(0 0)" clip-path="url(#clip-3)">
        <path id="Path_1621" data-name="Path 1621" d="M58.836,249.548c.174,3.251,157.007-.493,173.121-115.9C249.456,8.321,120.157-19.767,59.2,12.05,4.975,40.364-24.342,116.118,25.818,179.24c23,28.947,63.528,37.953,60.54,44.356-4.134,8.848-27.739,21.918-27.521,25.952" transform="translate(-0.001 0.001)" fill="#6c85a0"/>
        <path id="Path_1652" data-name="Path 1652" d="M0,23.082Z" transform="translate(131.363 118.02)"/>
      </g>
    </g>
    <g id="g-1" data-name="Group 1105" transform="translate(1456.859 884.484)">
      <g id="g-2" data-name="Group 1106" transform="translate(0 0)">
        <path id="Path_1646" data-name="Path 1646" d="M28.634,42.038a6.957,6.957,0,0,1-1,2.183c-.149-.058,1.357-4.053.087-6.043,0,.022-.035.046-.093.076.072-.011.076,0-.2.076-.941-.293.037-.327.262-.208a2.174,2.174,0,0,0-.763-.7,2.828,2.828,0,0,0-.173.343,11.279,11.279,0,0,0-.564-1.894,2.021,2.021,0,0,1,.824.338c-.059-.208-.111-.62-.059-.41a.5.5,0,0,0,.076.136c-.39-.861-.973-1.907-.93-1.851,1.361.423-3.039-3.26-5.334-.518.111-.167.223-.338.338-.5-.054-.067-.215.2-.438.622a4.242,4.242,0,0,0-.4.637c.1-.16.208-.312.31-.47-.841,1.641-2.406,5.129-2.857,3.706-.093.355-.345,1.574-.574,3.017-.059-.084-.132-.147-.21-.1s.017.381.154.466a29.841,29.841,0,0,0-.332,3.308,8.523,8.523,0,0,0-.134,3.486c-.212,1.064.973,2.868,2.222,4.263.074-.022.269.23.269.23,1.108,1.242,2.25,2.076,2.28,1.53a3.974,3.974,0,0,0-.136-1.463,5.192,5.192,0,0,0,1.337-.032c-.156.511-.319,1.092-.5,1.8-5.7,5.922,1.092-.763,1.7-2.09a.207.207,0,0,0,.026.145c.21-.232.264-.314.173-.236a.211.211,0,0,0-.167.024c.035-.017.069-.03.1-.045a4.152,4.152,0,0,0,.631-.358,6.579,6.579,0,0,0-1.259,2c.342.574,3.423-3.067,3.076-3.318a.778.778,0,0,0-.873.55c.007-.041.032-.1.045-.15a3.7,3.7,0,0,0,.291-.421c.492-.173.887-1.346,1.129-3.011q.214-.493.425-.993c.019-.468.169-.661.264-.616.778-1.849,1.374-3.472.96-3.492M22.89,33.231c-.108.071-.219-.015-.347-.249.085-.045.516.182.347.249M20.84,52.425a2.935,2.935,0,0,1-.228-.243c.113.026.225.052.336.071-.026.048-.061.1-.108.173m-.178-6.91a6.192,6.192,0,0,1,.056-1.546,13.281,13.281,0,0,1,.366-1.561c.071-.243.167-.481.262-.717.017.045.033.091.052.137a25.866,25.866,0,0,0-.735,3.687m1.723,2.076a12.474,12.474,0,0,1,.271-2.766c.032.089.061.173.095.258-.15.954-.269,1.84-.366,2.508M21.756,35.2a6.745,6.745,0,0,0,.366-1.2,1.3,1.3,0,0,1,1.238.007,5.035,5.035,0,0,0-1.6,1.2m3.373-.949c-.032-.024-.063-.056-.1-.08.108-.173.4-.243.1.08m1.047,8.17c.009-.061.022-.126.037-.188a2.54,2.54,0,0,1,.007.429c-.015-.082-.032-.16-.045-.241m1.853-1.986c-.275-1.662.431-.238,0,0m-.589-1.524c-.247.024.154-.425.221-.46.472.249.4.4-.221.46" transform="translate(-15.733 -10.677)"/>
        <path id="Path_1647" data-name="Path 1647" d="M69.2,44.444a1.036,1.036,0,0,0-.21.433c-.058-.512-.134-1.025-.225-1.537.251-1.188.366-2.04.13-2.029a7.431,7.431,0,0,1-.288,1.216c-.076-.356-.154-.715-.243-1.069a7.8,7.8,0,0,0-.464-3.414c-.045.074-.195.137-.481.182a.41.41,0,0,1-.063-.117,1.219,1.219,0,0,1,.234-.369,1.009,1.009,0,0,1,.223.124,3.425,3.425,0,0,0-.184-.369c-.017.032-.045.052-.277.139-.076-.02-.134-.039-.186-.058-.03-.074-.059-.149-.085-.223a1.24,1.24,0,0,1,.446,0,2.138,2.138,0,0,0-.633-.518q-.287-.769-.581-1.509a1.369,1.369,0,0,1,.39.162,2.638,2.638,0,0,1-.136-.408c-.511-.832-1.153-1.754-1.056-1.636,1.435.347-3.394-3.165-5.6-.65.147-.217.275-.444.438-.652-.065-.084-.243.219-.49.7a3.3,3.3,0,0,0-.429.67c.113-.2.256-.381.382-.576-.854,1.719-2.426,5.471-2.835,3.921a17.241,17.241,0,0,0-.084,4.136,3.463,3.463,0,0,0-.128.453,10.99,10.99,0,0,0,1.175,7.654,2.324,2.324,0,0,0,.267.31c.735,2.629,1.754,4.311,2.98,3.24-1.394,1.76.594-.355-.015.99.176-.386.3-.683.4-.939a3.841,3.841,0,0,0,3.4.518c.019.5.045,1.054.095,1.706.015-.046.332-1.153.511-1.94a5.228,5.228,0,0,0,.551-.293,5.916,5.916,0,0,0-.158,1.22c.282.213.98-1.116,1.474-2.317a6.156,6.156,0,0,0,1.637-3.73,18.43,18.43,0,0,0-.1-2.963A.11.11,0,0,0,69.1,45c.878.162.329-.817.1-.559m-9.865,6.964.136.26c-.1-.024-.769-.187-.136-.26m.152-14.872a.276.276,0,0,1-.089-.15.3.3,0,0,1,.195.011c-.035.046-.074.093-.106.139M62.2,32.456c-.124.039-.23-.069-.323-.317.093-.028.514.291.323.317m-1.792.977c.2-.878-.2,1.647,0,0m.369,1.608a16.663,16.663,0,0,0,.542-1.92c.323-.23.915-.052,1.565.321a7.847,7.847,0,0,0-2.107,1.6m3.1,14.024a3.2,3.2,0,0,1-.226-.7,3.234,3.234,0,0,0,.687.815c-.128.215-.278.225-.46-.113m4.272-9.329c-.425-1.667.434-.31,0,0" transform="translate(18.549 -11.248)"/>
        <path id="path-1" data-name="Path 1648" d="M38.619,23.033a2.071,2.071,0,0,0-1.457-.815c.058-.176.115-.36.175-.568a5.482,5.482,0,0,0-.882.557,5.059,5.059,0,0,0-.763.113c.091-.334,1.1-.228.718-.854-.485-.756-1.47.171-2.055.167-.939-.009.585.7.5.666a.864.864,0,0,1-.048.269,13.514,13.514,0,0,0-1.361.551c.015-.113.022-.219-.007-.225a1.4,1.4,0,0,0-.1.277,36.694,36.694,0,0,0-5.575,3.5c-.147-.275-.4-.494-.731-.1a1.211,1.211,0,0,0-.026.661q-.337.253-.663.511c-.34-.15-.665-.325-.665-.325.4.75-1.916.7-2.473.518-.093-.046-.115-.065-.111-.085a4.274,4.274,0,0,1-.967.817.452.452,0,0,0-.078-.149c-.05-.052-.074.08-.061.234-1.463.887-3.42,1.316-4.411,2.139.007.048.013.085.02.149l-.121.033s0-.056,0-.1a1.481,1.481,0,0,0-.453,1.628c-1.058-2.718.273,1.121-.52-.557.557,1.184.692,2.322,1.4,2.575-.193-.069.377-.418,1.235-.841a28.467,28.467,0,0,1-3.058,2.6c4.547,2.857,26.628-7.829,22.527-13.346M17.5,32.95c-.02.288-.1.212-.223-.234,0,0,.366-.188.223.234m2.057-2.257c.271,1.762-.589-.967,0,0m-.15,1.624c.024.065.234.85,0,0m-.193-1.446c.416,1.212.007.286-.015.2-.028-.156-.024-.223.015-.2m-.416.071c.16-.488,1.09,1.964.069.124.024.041-.069-.124-.069-.124m.351,1.389c-.026.082.069.412-.1.052Zm.191,1.279a.338.338,0,0,1-.21-.243c.048-.009.321-.028.574-.078l-.364.321m.429-1.7c-.267-.492.019-.325.123-.124Zm.306.828c-.022.115-.082-.306.015-.245Zm.332-.871c-.039-.429,0-.451.11-.072.1.355,0,.232-.11.072m.613-.7a.567.567,0,0,1,.143.379c-.1-.041-.147-.167-.143-.379m.622-.581c.046.228-.147-.11,0,0m.47.095.048.338c-.024.252-.173-.4-.048-.338m.343.215a1.159,1.159,0,0,1-.277-.65,1.358,1.358,0,0,1,.277.65m.264-.217c-.033-.061-.063-.128-.111-.225,0,0,.173.162.111.225" transform="translate(-16.092 -20.417)"/>
        <path id="Path_1650" data-name="Path 1650" d="M50.382,23.305c-.006-.065.108-.013.3.11-.108.254-.032.681.327,1.368A26.124,26.124,0,0,0,62.9,35.809c2.738,1.331,18.283,3.431,10.114-2.315-.143-.1-.3-.186-.453-.28a.5.5,0,0,0,.084-.123c.329-.863-1.972-1.623-2.011-1.513a.619.619,0,0,0,0,.553c-.241-.117-.47-.245-.718-.356.024-.006.032-.011-.048-.095a.979.979,0,0,1-.436-.1c-.847-.358-1.628-.657-2.421-.945-.277-.184-.464-.277-.507-.184-1.3-.466-2.61-.926-3.876-1.452.236-.277.444-.748-.226-.867-.147-.026-.475.215-.767.44-.226-.1-.444-.219-.661-.329-.054-.425-.076-.893-.091-.869-.431.722-1.636-1.342-1.78-1.953-.015-.123,0-.152.017-.16a4.149,4.149,0,0,1-1.231-.492.445.445,0,0,0,.093-.139c.026-.071-.11-.032-.243.05-1.537-.941-2.878-2.64-4.108-3.254-.043.028-.076.054-.137.091l-.089-.108c.02-.007.058-.022.1-.043a1.448,1.448,0,0,0-1.7.239c1.972-2.174-.884.731.262-.744-.824,1.064-1.782,1.652-1.682,2.445m3.542.713-.169-.072c.325-.462.3-.115.169.072m.837-.774c-1.459,1,.615-.977,0,0m-.312-.265c-.908.9-.256.123-.189.072.126-.1.186-.121.189-.072m-.26-.377c.52-.074-1.357,1.957,0,0m-1.207.847.1.067a.682.682,0,0,0-.169.084c-.022-.035.011-.078.071-.15M51.81,21.891s.343.275-.108.314c-.271.1-.236-.006.108-.314" transform="translate(13.271 -20.764)"/>
        <path id="Path_1651" data-name="Path 1651" d="M72.539,68.627a1.419,1.419,0,0,0-.232,1.489c-.215-.462-1.173-3.908-2.256-7.224-.442-.221-.631-.728-.562-1.53.037.056.072.111.11.165-1.04-3.032-2.1-5.571-2.679-5.013a10.817,10.817,0,0,1,1.671,3.342c-.55.13-2.12-2.694-4.212-4.74-.451-.18-1.288-.626-1.368-1.144-.163-.106-.321-.2-.485-.286a.643.643,0,0,1-.2.407c-.158.2-.438-.483-.429-.566a1.572,1.572,0,0,1,.308-.02,4.826,4.826,0,0,0-.564-.225c.015.048.006.1-.084.3a2.352,2.352,0,0,1-.537.121c-.069-.039-.126-.084-.193-.123a1,1,0,0,1,.451-.39,3.418,3.418,0,0,0-1.3-.084c-.427-.171-.9-.4-1.411-.6a9.852,9.852,0,0,0,1.433-.152,13.582,13.582,0,0,0-4.974-1.346,5.727,5.727,0,0,1,1.569-.123A35.634,35.634,0,0,0,46.582,51c.457-.132.915-.262,1.372-.392-.1-.743-9.953,4.517-8.3,2.128A17.408,17.408,0,0,0,35.857,55.8c.069-.16.08-.3-.058-.291-.16.009-.481.611-.314.683a45.729,45.729,0,0,0-4.721,6.914,16.8,16.8,0,0,0-.826,2.133.561.561,0,0,1,.1-.054c.228.46-.058.564-.247.5-.178.54-.364,1.129-.548,1.745.08.011.15.238-.035.379-.052-.011-.048-.041-.052-.08a35.829,35.829,0,0,0-.977,4.17c.061.041,0,.5,0,.5-.007-.019-.03-.061-.054-.108-.247,1.84-.1,3.145.923,2.842-1.957,1.173.527.167-.511,1.34q.674-.774,1.272-1.6a.759.759,0,0,0,.21.977,18.292,18.292,0,0,1,.427-2.337c.1.622.213,1.277.332,1.836-.035.215-.074.429-.106.648-1.261.2-1.808.538-.16,1.129.241.494.037.7-.613.616.015-.061,1.123,1.036.936.928.377.219,10.851.776,11.239.245.13-.178-1.688-.494-.323-.678.191.009.379.015.577.02-.473.874,7.636.141,2.8.353.241-.106.466-.18.692-.265,2.207.039,4.489.048,6.745.028-.284.046-.54.134-.54.321.009.984,1.071-.074,1.277-.327,2.243-.024,4.443-.078,6.485-.167.022.284.232.156.39-.019,1.78-.082,3.427-.191,4.881-.327a.512.512,0,0,1,.106.234,1.557,1.557,0,0,1,.056-.249q1.167-.111,2.135-.247c-.821.975.31,1.034,3.418.165,0,0-.184-.035-.46-.082a7.241,7.241,0,0,0,1.225-2.6c.275,1.283.576,2.456.618,2.61-.082-.867-.34-2.291-.431-3.542a2.961,2.961,0,0,0,.017-.633c-.011-.095-.028-.186-.039-.282a5.239,5.239,0,0,1,.054-.605.391.391,0,0,1-.134.017c-.009-.078-.024-.156-.035-.234l.165-.189a.377.377,0,0,1,.065.119,1.059,1.059,0,0,1,.291-.533,16.256,16.256,0,0,0,.472,3.9c.319.13.7-7.073-.043-7.081M29.19,74.453c.011-.046.011-1.279.245-.516.191.278.11.446-.245.516m.49-7.7a.216.216,0,0,1-.054-.3c.913.3.1.338.054.3m.377,2.009.063-.334c.019.16.262.247-.063.334m.451-1.032a.516.516,0,0,1-.15-.065c.072-.2.15-.24.21-.215-.022.093-.035.188-.059.28m.137-1.571c-.477.147-.093-.473.119-.5a4.41,4.41,0,0,0-.119.5m4.069-7.5-.006.382c-.139.414-.247-.212.006-.382m-.163,19.215c.032.134-.121.509,0,0m-.423-.093c-.091.045-.13.293-.191-.006Zm-.414-18.26c.046.23-.269.178,0,0m-2.6,17.885c-.167.137-.239.078-.23-.16l.095.032c.071.022.173.045.262.067a.569.569,0,0,1-.126.061m.509-13.1a1.2,1.2,0,0,1-.119.061c-.139-.464-.069-.59.156-.386a.266.266,0,0,1,.067.11c-.033.074-.072.143-.1.215m.624-1.353c-.238.078-1.1.017,0,0m.2-1.093c.171-.076.251-.013.243.178-.171.182-.254.126-.243-.178m1.043,16.6a11.646,11.646,0,0,0,1.58.238c-.486.113-1.606.186-1.58-.238M35.043,57.88c.29-.011.4.143.4.423-.3.085-.438-.054-.4-.423m.34,20.522c-.108.072.05-.234.169-.161Zm28.8-22.421c.085-.368.479.379-.009.032.054.039.026-.082.009-.032m-6.251-4.238c.191.078.555-.007.735.332-.221-.046-1.1-.485-.735-.332m-8.165-.46c-.046,0-.089,0-.139,0a.155.155,0,0,1-.078-.108.549.549,0,0,1,.217.1m-13.6,6.258a.893.893,0,0,1-.195-.175l.306-.074a1.282,1.282,0,0,1,.006.136c-.039.041-.076.072-.117.113m.323,20.436c.05,0,.1,0,.154.007-.05.106-.1.072-.154-.007M63.635,64.758c.743,0,.795-.115.278-.514a20.48,20.48,0,0,1-2.066.2c-.117-.017-.668-.074-.793-.065a.876.876,0,0,0,.373.091c-.512.028-1.021.043-1.454.041a7.217,7.217,0,0,0,1.2-.4H59.544a5.006,5.006,0,0,1-.568.1.4.4,0,0,0,.05-.1h-.332c-.035.03-.054.039-.082.149l-.241.024a.991.991,0,0,0-.252-.173.882.882,0,0,0-.163.011.6.6,0,0,0-.013.2c-.373.032-.778.056-1.2.078a1.529,1.529,0,0,0-.529.028c-1.333.054-2.71.067-3.527.017.583.13,1.168.262,1.766.336,0,0-1.745-.076-3.795-.16.186-.059-.574-.221-1.264-.059a1.117,1.117,0,0,1,.119.015,38.364,38.364,0,0,0-5.183-.009,1,1,0,0,1,.991.321c-.089.444-4.94-.408-4.907-.468a9.692,9.692,0,0,1,2.761-.11.641.641,0,0,0-.319-.2,4.088,4.088,0,0,0-.527.022c.132.024.022.024-.3-.022-1,0-2,0-2.954-.059.162-.247.332-.457.5-.692a4.508,4.508,0,0,0-.7.377A14.77,14.77,0,0,1,40.2,61.173s.1-.1.087-.13c1.292-2.1,3.2-4.478,4.474-3.36.824-2.723,8.651-1.764,10.335-1.157-1.894.113,5.083,3.2,4.851,3.466q-.632-.387-1.249-.8a31.092,31.092,0,0,1,6.138,5.6c-.4.006-.8-.006-1.2-.03m4.346,12.91-.058-.16c.037-.006.065-.013.1-.019a.967.967,0,0,1-.043.178m.47-.033c-.059-.045-.132-.11-.221-.182.433-.078.826-.156,1.164-.245a2.374,2.374,0,0,0,.076.342c-.665-.085-1.277-.123-1.019.085m.03-15.685c.137.121-.293-.613-.3-.557a21.69,21.69,0,0,0-3.215-4.521c2.928,1.153,5.855,8.61,5.854,9.9,0,.193-.152.277-.332.33a29.56,29.56,0,0,0-2.009-5.155m2.816,8.6c-.022-.119-.046-.234-.072-.353a1.18,1.18,0,0,0-.009-.33,5.384,5.384,0,0,1-.223-.845.328.328,0,0,0,.117.006c-.006-.052-.013-.1-.019-.149a.177.177,0,0,0-.132,0c-.084-.382-.195-.756-.3-1.134.15.019.28.041.286.082.019.1.078.529.145,1.054.084.039.117.126.019.149.037.271.072.555.106.839.072.006.163.082.28.239a.215.215,0,0,1-.239.111c.013.115.024.223.041.332" transform="translate(-5.876 4.732)"/>
      </g>
    </g>
  </g>
  <ellipse style="fill: rgba(216, 216, 216, 0.65);" cx="-868.276" cy="211.858" rx="247.667" ry="26.629"/>
  <g>
    <rect id="Rectangle_487" data-name="Rectangle 487" width="470.39" height="978.476" fill="#c1b6ae" x="-1104.815" y="-789.88" rx="63.751" ry="63.751"/>
    <path id="Path_1698" data-name="Path 1698" d="M -945.852 14.565 L -1009.861 14.565 C -1014.916 14.565 -1019.013 10.468 -1019.013 5.414 L -1019.013 -13.816 C -1019.013 -18.87 -1014.916 -22.967 -1009.861 -22.967 L -945.852 -22.967 C -940.798 -22.967 -936.701 -18.87 -936.701 -13.816 L -936.701 5.414 C -936.701 10.468 -940.798 14.565 -945.852 14.565" fill="#ada49e"/>
    <path id="Path_1701" data-name="Path 1701" d="M -837.319 -649.179 L -901.328 -649.179 C -906.382 -649.18 -910.479 -653.277 -910.479 -658.331 L -910.479 -677.562 C -910.479 -682.616 -906.382 -686.713 -901.328 -686.713 L -837.319 -686.713 C -832.265 -686.713 -828.168 -682.616 -828.167 -677.562 L -828.167 -658.332 C -828.167 -653.278 -832.265 -649.18 -837.319 -649.18" fill="#ada49e"/>
    <path id="Path_1702" data-name="Path 1702" d="M -791.154 -603.134 L -855.163 -603.134 C -860.218 -603.134 -864.316 -607.231 -864.316 -612.286 L -864.316 -631.516 C -864.316 -636.571 -860.218 -640.668 -855.163 -640.667 L -791.154 -640.667 C -786.101 -640.667 -782.004 -636.57 -782.003 -631.516 L -782.003 -612.286 C -782.003 -607.232 -786.1 -603.135 -791.154 -603.134" fill="#ada49e"/>
    <path id="Path_1703" data-name="Path 1703" d="M -747.045 -649.179 L -811.054 -649.179 C -816.108 -649.18 -820.205 -653.277 -820.205 -658.331 L -820.205 -677.562 C -820.206 -682.617 -816.109 -686.715 -811.054 -686.715 L -747.045 -686.715 C -741.991 -686.715 -737.894 -682.618 -737.893 -677.564 L -737.893 -658.334 C -737.893 -653.28 -741.991 -649.182 -747.045 -649.182" fill="#ada49e"/>
  </g>
  <path id="Path_1699" data-name="Path 1699" d="M393.771,652.876H329.762a9.152,9.152,0,0,1-9.152-9.151v-19.23a9.152,9.152,0,0,1,9.152-9.151h64.009a9.152,9.152,0,0,1,9.152,9.151v19.23a9.152,9.152,0,0,1-9.152,9.151" fill="#ada49e" transform="matrix(1, 0, 0, 1, -1295.684709, -542.739149)"/>
  <path id="Path_1700" data-name="Path 1700" d="M426.759,618.439H362.75a9.152,9.152,0,0,1-9.152-9.151v-19.23a9.152,9.152,0,0,1,9.152-9.151h64.009a9.152,9.152,0,0,1,9.151,9.151v19.23a9.151,9.151,0,0,1-9.151,9.151" fill="#ada49e" transform="matrix(1, 0, 0, 1, -1284.564683, -554.348158)"/>
  <g id="Group_831" data-name="Group 831" transform="matrix(1, 0, 0, 1, 10299.935547, -3563.957275)">
    <g id="Group_840" data-name="Group 840" transform="matrix(1.570383, 0, 0, 1.762897, -11265.592773, 719.196899)" style="">
      <g id="Group_906" data-name="Group 906" transform="matrix(1.272933, 0, 0, 1.212726, -1597.980103, 1121.041382)" style="">
        <g id="Group_316" data-name="Group 316" transform="translate(1249.642 346.891)">
          <g id="Group_895" data-name="Group 895" transform="translate(0)">
            <g id="Group_894" data-name="Group 894">
              <path id="Path_578" data-name="Path 578" d="M 162.336 199.288 C 146.087 181.626 136.57 169.23 126.236 148.586 C 122.42 152.335 118.07 155.551 113.298 158.15" fill="none" stroke-linecap="round" stroke-linejoin="round" style="stroke: rgb(77, 92, 112); stroke-width: 1.45038px;" transform="matrix(-0.835888, 0.513233, -0.587045, -0.835888, 355.125485, 248.596636)"/>
              <path id="Path_580" data-name="Path 580" d="M762.419-260.176c-15.234,5.184-26.481,19.024-35.3,33.347a230.208,230.208,0,0,0-31.874,90.422c-.809,6.2-1.362,12.617.233,18.639,2.021,7.641,7.3,13.828,13.133,18.707,11.07,9.264,24.478,14.776,38.058,18.559a77.71,77.71,0,0,0,35.251,1.521c11.75-2.191,21.326-6.594,26.991-17.878,3.353-6.678-9.849-35.556-5.045-46.17,11.1-24.81,21.695-38.705,19.052-58.508s-11.726-39.6-27.769-49.728c-5.107-3.227-10.893-9.475-16.813-9.708-12.854-.507-6.681-.628-15.914.8" stroke-miterlimit="10" style="stroke: rgb(77, 92, 112); fill: rgb(126, 200, 214); stroke-width: 1.45036px;" transform="translate(-694.453 261.322)"/>
              <path id="Path_584" data-name="Path 584" d="M 42.011 -23.128 C 46.543 -26.159 63.883 -7.877 65.271 -5.589 C 71.381 4.482 72.127 22.694 71.888 35.405" transform="translate(66.639 161.296) rotate(-148)" fill="none" stroke-linecap="round" stroke-linejoin="round" style="stroke: rgb(77, 92, 112); stroke-width: 1.45104px;"/>
              <path id="Path_1339" data-name="Path 1339" d="M 137.536 100.734 C 135.589 105.147 119.888 141.382 105.741 148.535" fill="none" stroke-linecap="round" stroke-linejoin="round" style="stroke: rgb(77, 92, 112); stroke-width: 1.45028px;" transform="matrix(0.811085, -0.54692, 0.625577, 0.811085, -54.811936, 90.252757)"/>
              <path id="Path_579" data-name="Path 579" d="M 102.775 252.876 C 115.503 228.991 119.933 223.855 138.748 206.72 C 132.369 207.29 130.327 206.226 119.038 207.975" fill="none" stroke-linecap="round" stroke-linejoin="round" style="stroke: rgb(77, 92, 112); stroke-width: 1.45099px;" transform="matrix(-0.226431, 0.910736, -1.041717, -0.226431, 341.918213, 145.042827)" bx:origin="0.289 0.099"/>
            </g>
          </g>
        </g>
        <g id="Group_319" data-name="Group 319" transform="translate(1328.009 393.812)">
          <g id="Group_317" data-name="Group 317" transform="translate(26.88 0)">
            <path id="Path_586" data-name="Path 586" d="M 0.596 6.854 C 2.714 7.321 4.896 7.422 7.048 7.154" fill="none" stroke-linecap="round" stroke-linejoin="round" style="stroke: rgb(77, 92, 112); stroke-width: 1.45036px;" transform="matrix(0.982193, 0.175668, -0.200932, 0.982193, 1.490069, -0.54538)"/>
          </g>
          <g id="Group_318" data-name="Group 318" transform="matrix(0.980253, -0.184899, 0.21149, 0.980253, -1.418884, 0.909518)">
            <path id="Path_588" data-name="Path 588" d="M 47.741 55.73 C 45.623 56.197 41.694 55.251 39.609 56.217" transform="translate(-39.514 -48.876)" fill="none" stroke-linecap="round" stroke-linejoin="round" style="stroke: rgb(77, 92, 112); stroke-width: 1.45036px;"/>
          </g>
          <path id="Path_589" data-name="Path 589" d="M 65.781 66.667 C 65.781 66.667 64.467 65.246 62.55 64.958 C 57.837 64.25 48.563 63.095 40.793 63.591" transform="translate(-38.812 -37.164)" fill="none" stroke-linecap="round" stroke-linejoin="round" style="stroke: rgb(77, 92, 112); stroke-width: 1.45036px;"/>
        </g>
        <g id="Group_1541" data-name="Group 1541" transform="matrix(0.59525, 0, 0, 0.553993, 968.16803, -272.478546)">
          <g id="Group_1539" data-name="Group 1539" transform="matrix(0.99863, -0.052336, 0.052336, 0.99863, 772.2771, 1226.254272)">
            <path id="path-4" data-name="Exclusion 2" d="M -157.42 -5.226 L -157.457 -5.226 C -158.673 -5.154 -159.862 -5.614 -160.74 -6.493 C -161.555 -7.474 -161.964 -8.75 -161.877 -10.045 C -161.897 -11.345 -161.439 -12.605 -160.597 -13.564 C -159.753 -14.467 -158.588 -14.967 -157.379 -14.948 L -157.369 -14.948 C -156.051 -14.947 -154.804 -14.332 -153.967 -13.27 C -154.347 -13.605 -154.832 -13.78 -155.328 -13.761 L -155.362 -13.761 C -156.828 -13.845 -157.83 -12.244 -157.168 -10.879 C -157.077 -10.693 -156.96 -10.522 -156.818 -10.375 C -156.416 -9.957 -155.872 -9.723 -155.303 -9.723 L -155.217 -9.723 C -154.158 -9.734 -153.325 -10.669 -153.393 -11.773 C -153.385 -12.065 -153.433 -12.354 -153.534 -12.625 C -153.088 -11.819 -152.858 -10.903 -152.869 -9.974 C -152.83 -8.694 -153.283 -7.451 -154.127 -6.521 C -155.013 -5.644 -156.2 -5.176 -157.42 -5.226 Z M -153.542 -12.638 C -153.667 -12.86 -153.808 -13.071 -153.967 -13.27 C -153.781 -13.095 -153.635 -12.88 -153.54 -12.639 Z" style="fill: rgb(77, 92, 112); stroke-width: 2.52707px;" transform="matrix(0.44092, 0.901486, -0.893198, 0.441791, -96.993315, 136.244938)"/>
            <path id="path-22" data-name="Exclusion 2" d="M -119.721 -1.678 L -119.758 -1.678 C -120.974 -1.606 -122.163 -2.066 -123.041 -2.945 C -123.856 -3.926 -124.265 -5.202 -124.178 -6.497 C -124.198 -7.797 -123.74 -9.057 -122.898 -10.016 C -122.054 -10.919 -120.889 -11.419 -119.68 -11.4 L -119.67 -11.4 C -118.352 -11.399 -117.105 -10.784 -116.268 -9.722 C -116.648 -10.057 -117.133 -10.232 -117.629 -10.213 L -117.663 -10.213 C -119.129 -10.297 -120.131 -8.696 -119.469 -7.331 C -119.378 -7.145 -119.261 -6.974 -119.119 -6.827 C -118.717 -6.409 -118.173 -6.175 -117.604 -6.175 L -117.518 -6.175 C -116.459 -6.186 -115.626 -7.121 -115.694 -8.225 C -115.686 -8.517 -115.734 -8.806 -115.835 -9.077 C -115.389 -8.271 -115.159 -7.355 -115.17 -6.426 C -115.131 -5.146 -115.584 -3.903 -116.428 -2.973 C -117.314 -2.096 -118.501 -1.628 -119.721 -1.678 Z M -115.843 -9.09 C -115.968 -9.312 -116.109 -9.523 -116.268 -9.722 C -116.082 -9.547 -115.936 -9.332 -115.841 -9.091 Z" style="fill: rgb(77, 92, 112); stroke-width: 2.52707px;" transform="matrix(0.44092, 0.901486, -0.893198, 0.441791, -72.747487, 104.240341)"/>
          </g>
        </g>
      </g>
    </g>
    <g id="Group_656" data-name="Group 656" transform="matrix(0.463966, -0.024315, 0.0259, 0.494203, -9905.03125, 3667.9104)" style=""/>
  </g>
  <g id="Group_1094" data-name="Group 1094" transform="matrix(-0.906188, -0.27339, -0.241504, 0.800496, -278.647614, -507.59787)" style="">
    <g id="g-3" data-name="Group 1093" transform="translate(0 0)" clip-path="url(#clip-4)">
      <path id="path-2" data-name="Path 1621" d="M164,246.442c-.164,3.21-147.358-.487-162.483-114.461C-14.909,8.217,106.445-19.521,163.658,11.9c50.89,27.961,78.405,102.773,31.328,165.109-21.589,28.586-59.624,37.48-56.819,43.8,3.88,8.738,26.035,21.645,25.83,25.629" fill="#f3d643" transform="translate(0 0.001)"/>
      <path id="Path_1622" data-name="Path 1622" d="M28.508,31a5.181,5.181,0,1,1-5.286-5.074A5.176,5.176,0,0,1,28.508,31" transform="translate(49.358 70.511)"/>
      <path id="Path_1623" data-name="Path 1623" d="M49.866,30.563a5.183,5.183,0,1,1-5.282-5.074,5.176,5.176,0,0,1,5.282,5.074" transform="translate(107.435 69.322)"/>
      <path id="Path_1624" data-name="Path 1624" d="M26.651,31.707s.1.279.272.677c.2.443.5,1.09.885,1.919a33.9,33.9,0,0,0,4,6.312,31.469,31.469,0,0,0,3.337,3.459,23.982,23.982,0,0,0,4.311,2.879,20.707,20.707,0,0,0,5.174,1.823,24.725,24.725,0,0,0,5.632.58c1.09-.056,2.321-.033,3.288-.153l2.615-.461c.885-.3,1.789-.528,2.667-.8q1.25-.575,2.462-1.131A24.019,24.019,0,0,0,65.5,43.807a27.055,27.055,0,0,0,3.221-3.56A32.468,32.468,0,0,0,72.494,33.8c.74-1.681,1.064-2.667,1.045-2.608a1.963,1.963,0,0,1,3.869.67l-.108.926a22.694,22.694,0,0,1-.439,2.429,32.024,32.024,0,0,1-3.184,8.228,26.985,26.985,0,0,1-3.545,4.929,26.43,26.43,0,0,1-5.312,4.467c-1.049.61-2.165,1.149-3.281,1.726-1.168.435-2.358.863-3.578,1.254-1.287.279-2.626.506-3.954.729-1.246.156-2.273.141-3.422.219a28.884,28.884,0,0,1-7.652-.859,23.953,23.953,0,0,1-6.9-2.8,25.007,25.007,0,0,1-5.442-4.281c-.755-.792-1.41-1.622-2.072-2.4q-.843-1.255-1.626-2.422a31.551,31.551,0,0,1-3.422-8.135,21.694,21.694,0,0,1-.517-2.422c-.082-.58-.123-.893-.123-.893a1.968,1.968,0,0,1,3.805-.923Z" transform="translate(62.032 80.42)"/>
      <path id="Path_1625" data-name="Path 1625" d="M41.534,43.368A15.349,15.349,0,1,0,26.5,59.024,15.35,15.35,0,0,0,41.534,43.368" transform="translate(29.48 77.05)" fill="#ce4a70"/>
      <path id="Path_1626" data-name="Path 1626" d="M71.341,43.366A15.349,15.349,0,1,0,56.31,59.026a15.348,15.348,0,0,0,15.032-15.66" transform="translate(110.548 77.055)" fill="#ce4a70"/>
    </g>
  </g>
  <g id="Balance" clip-path="url(#clip-Balance)" transform="matrix(1, 0, 0, 1, 1730.895732, -90.749634)"/>
  <g id="Group_1192" data-name="Group 1192" transform="matrix(-1, 0, 0, 1, 5026.396037, -1029.923371)"/>
  <polyline style="fill: rgb(216, 216, 216); stroke: rgb(0, 0, 0);" points="510.455 -75.258" transform="matrix(1, 0, 0, 1, 2225.158367, -12.218277)"/>
  <g id="g-6" data-name="Group 1411" transform="matrix(1, 0, 0, 1, -846.816975, -3833.360383)">
    <rect id="rect-4" data-name="Rectangle 451" width="228.937" height="242.798" transform="matrix(-0.777, -0.629, 0.629, -0.777, 1442.229, 4079.014)" fill="none"/>
    <g id="g-11" data-name="Group 1404" transform="matrix(0.996, 0.087, -0.087, 0.996, 321.395, -105.091)"/>
  </g>
  <path style="fill: rgb(216, 216, 216); stroke: rgb(0, 0, 0);" d="M -167.225 -0.173" transform="matrix(1, 0, 0, 1, 346.410259, 6.023803)"/>
</svg>