<?xml version="1.0" encoding="utf-8"?>
<svg xmlns="http://www.w3.org/2000/svg" xmlns:bx="https://boxy-svg.com" viewBox="-1043.805 -895.3 2617.964 2240.4">
  <defs>
    <clipPath id="clip-path">
      <rect id="Rectangle_481" data-name="Rectangle 481" width="248.072" height="238.484" fill="none"/>
    </clipPath>
    <clipPath id="clip-1">
      <rect id="Rectangle_482" data-name="Rectangle 482" width="229.531" height="241.419" fill="none"/>
    </clipPath>
    <clipPath id="clip-2">
      <rect id="Rectangle_449" data-name="Rectangle 449" width="242.065" height="244.073" fill="none"/>
    </clipPath>
    <clipPath id="clip-3">
      <rect id="Rectangle_448" data-name="Rectangle 448" width="233.57" height="250.237" fill="none"/>
    </clipPath>
    <clipPath id="clip-4">
      <rect id="rect-1" data-name="Rectangle 448" width="219.217" height="247.122" fill="none"/>
    </clipPath>
    <clipPath id="clip-5">
      <rect id="Rectangle_450" data-name="Rectangle 450" width="217.813" height="219.517" fill="none"/>
    </clipPath>
    <clipPath id="clip-Balance">
      <rect width="1166" height="1094"/>
    </clipPath>
    <clipPath id="clip-6">
      <rect id="rect-2" data-name="Rectangle 448" width="219.217" height="247.122" fill="none"/>
    </clipPath>
    
    <clipPath id="clip-7">
      <rect id="rect-3" data-name="Rectangle 451" width="228.937" height="242.798" fill="none"/>
    </clipPath>
    <clipPath id="clip-8">
      <rect id="rect-5" data-name="Rectangle 448" width="219.217" height="247.122" fill="none"/>
    </clipPath>
    <clipPath id="clip-10">
      <rect id="rect-7" data-name="Rectangle 482" width="229.531" height="241.419" fill="none"/>
    </clipPath>
    <clipPath id="clip-9">
      <rect id="rect-6" data-name="Rectangle 482" width="229.531" height="241.419" fill="none"/>
    </clipPath>
  </defs>
  <path id="Path_485" data-name="Path 485" d="M 313.908 -593.968 C 807.678 -593.968 1207.96 -221.77 1207.96 237.36 C 1207.96 696.49 1063.794 876.472 206.291 1024.437 C -371.811 964.537 -388.481 560.926 -551.074 243.434 C -735.938 -117.547 -179.862 -593.968 313.908 -593.968 Z" fill="#fff" style=""/>
  <g transform="matrix(1, 0, 0, 1, -609.026044, -295.555565)">
    <g id="g-4" data-name="Group 1094" transform="matrix(1, 0, 0, 1, 1445.107544, -108.294716)">
      <g id="g-5" data-name="Group 1093" transform="translate(0 0)" clip-path="url(#clip-6)">
        <path id="path-3" data-name="Path 1621" d="M 164 246.442 C 163.836 249.652 16.642 245.955 1.517 131.981 C -14.909 8.217 106.445 -19.521 163.658 11.9 C 214.548 39.861 242.063 114.673 194.986 177.009 C 173.397 205.595 135.362 214.489 138.167 220.809 C 142.047 229.547 164.202 242.454 163.997 246.438" style="fill: rgb(255, 66, 66);" transform="translate(0 0.001)"/>
        <path id="path-4" data-name="Path 1622" d="M28.508,31a5.181,5.181,0,1,1-5.286-5.074A5.176,5.176,0,0,1,28.508,31" transform="translate(49.358 70.511)"/>
        <path id="path-5" data-name="Path 1623" d="M49.866,30.563a5.183,5.183,0,1,1-5.282-5.074,5.176,5.176,0,0,1,5.282,5.074" transform="translate(107.435 69.322)"/>
        <path id="path-6" data-name="Path 1624" d="M 87.558 111.076 C 87.803 111.214 98.941 116.095 110.769 115.745 C 124.027 115.355 138.149 109.751 138.763 110.456 C 139.302 111.074 139.56 112.041 139.44 112.992 L 139.332 114.266 C 139.23 115.39 139.083 116.506 138.893 117.609 C 138.216 121.566 137.145 125.377 135.709 128.931 C 134.717 131.368 133.527 133.644 132.164 135.714 C 130.597 138.075 128.811 140.142 126.852 141.861 C 125.803 142.7 124.687 143.442 123.571 144.236 C 122.403 144.835 121.213 145.424 119.993 145.962 C 118.706 146.345 117.367 146.658 116.039 146.965 C 114.793 147.179 113.766 147.159 112.617 147.266 C 110.039 147.343 107.466 146.947 104.965 146.084 C 102.533 145.302 100.205 144.002 98.065 142.231 C 96.061 140.624 94.23 138.641 92.623 136.34 C 91.868 135.25 91.213 134.108 90.551 133.037 C 89.989 131.886 89.447 130.775 88.925 129.704 C 87.409 126.212 86.257 122.444 85.503 118.51 C 85.285 117.413 85.112 116.301 84.986 115.177 C 84.904 114.379 84.863 113.948 84.863 113.948 C 84.658 111.883 86.155 110.286 87.558 111.076 Z" style=""/>
      </g>
    </g>
    <path d="M 1496.54 -29.15 C 1498.718 -33.13 1499.995 -37.105 1501.643 -39.976 C 1503.673 -43.509 1506.265 -45.369 1511.793 -43.505" style="stroke: rgb(0, 0, 0);" transform="matrix(0.905752, 0.423808, -0.423808, 0.905752, 126.212795, -640.936232)"/>
    <path d="M 1592.081 -47.706 C 1594.259 -43.726 1595.536 -39.751 1597.184 -36.88 C 1599.214 -33.347 1601.806 -31.487 1607.334 -33.351" style="stroke: rgb(0, 0, 0);" transform="matrix(-0.905752, 0.423808, -0.423808, -0.905752, 3031.625514, -754.504985)"/>
  </g>
  <g id="Group_1138" data-name="Group 1138" transform="matrix(1, 0, 0, 1, 69.233081, 439.415351)">
    <g id="Group_1137" data-name="Group 1137" transform="translate(0 0)" clip-path="url(#clip-path)">
      <path id="Path_1661" data-name="Path 1661" d="M131.148.242c-96.239-5.7-147.2,90.632-126.632,153.05S140.484,282,214.889,200.942c0,0,29.511,15.231,32.875,10.362s-21.693-35.5-21.693-35.5,30.889-46.282,16.735-94.167C226.792,27.483,179.965,3.129,131.148.242" transform="translate(0.001 -0.001)" fill="#8fc0d4"/>
      <path id="Path_1662" data-name="Path 1662" d="M34.151,20.486c-.072.059-1.387,1.468-2.1,2.184a28.873,28.873,0,0,1-5.584,4.472,22.748,22.748,0,0,1-3.238,1.693c-.513.275-1.081.392-1.576.617a12.831,12.831,0,0,1-1.473.464c-1.833.608-7.953.689-7.85,5.728.1,5.332,9.984,5.8,17.753,2.126,9.336-4.431,12.191-11,12.209-14.861.023-3.652-2.531-4.7-4.774-4.539-1.36.086-3.288,2.067-3.364,2.117" transform="translate(43.182 64.298)" fill="#002640"/>
      <path id="Path_1663" data-name="Path 1663" d="M43.625,20.887c.077.05,1.482,1.365,2.252,2.031a28.617,28.617,0,0,0,5.881,4.067A23.441,23.441,0,0,0,55.1,28.453c.536.239,1.108.32,1.617.5a15.355,15.355,0,0,0,1.5.369c1.878.464,8,.126,8.246,5.152.261,5.337-9.574,6.494-17.563,3.364-9.624-3.774-12.929-10.124-13.231-13.974-.257-3.648,2.211-4.868,4.458-4.864,1.365-.009,3.423,1.837,3.5,1.882" transform="translate(124.88 66.581)" fill="#002640"/>
      <path id="Path_1664" data-name="Path 1664" d="M17.167,62.433a33.38,33.38,0,0,1,1.405-4.792,51.368,51.368,0,0,1,5.967-11.574,43.384,43.384,0,0,1,13.736-12.88,43.1,43.1,0,0,1,21.049-5.71l2.716.063c.869.036,1.95.167,2.909.252a42.575,42.575,0,0,1,5.58,1.081,37.331,37.331,0,0,1,10.025,4.409,44.907,44.907,0,0,1,13.371,13.2A56.973,56.973,0,0,1,99.8,58.024c.563,1.446.883,2.635,1.121,3.445.221.851.342,1.306.342,1.306a2.372,2.372,0,0,1-4.431,1.63l-.09-.194s-.167-.342-.477-.986c-.356-.667-.874-1.644-1.531-2.891a61.376,61.376,0,0,0-6.557-9.574A43.515,43.515,0,0,0,76.229,40.573a31.394,31.394,0,0,0-7.953-3.139,33.707,33.707,0,0,0-4.305-.77c-.721-.045-1.315-.14-2.135-.167l-2.36-.023a37.924,37.924,0,0,0-17.068,4.152,42.05,42.05,0,0,0-12.164,9.84,55.514,55.514,0,0,0-6.58,9.453c-1.351,2.477-1.95,3.882-1.95,3.882a2.39,2.39,0,0,1-4.548-1.369" transform="translate(60.009 96.262)"/>
      <path id="Path_1665" data-name="Path 1665" d="M27.693,32.267a6.33,6.33,0,1,0-7.881,4.247,6.334,6.334,0,0,0,7.881-4.247" transform="translate(53.598 84.5)"/>
      <path id="Path_1666" data-name="Path 1666" d="M48.713,33.179a6.328,6.328,0,1,0-7.872,4.251,6.322,6.322,0,0,0,7.872-4.251" transform="translate(127.25 87.7)"/>
    </g>
  </g>
  <g id="Group_1140" data-name="Group 1140" transform="matrix(1, 0, 0, 1, -388.570752, 399.27967)">
    <g id="Group_1139" data-name="Group 1139" transform="translate(0 0.001)" clip-path="url(#clip-1)">
      <path id="Path_1667" data-name="Path 1667" d="M24.859,199.792S9.354,227.9,11.595,231.556s31.943-9.3,31.943-9.3,30.3,27.976,87.937,16.329c77.866-15.73,125.3-97.509,81.055-179.084-41.4-76.344-130.579-72.315-178.39-26.8S-5.986,152.451,24.859,199.792" transform="translate(-0.002 -0.002)" fill="#508984"/>
      <path id="Path_1668" data-name="Path 1668" d="M16.133,29.314A37.526,37.526,0,0,1,19.846,28.3,71.159,71.159,0,0,1,28.1,26.923c3.027-.3,6.063-.52,8.362-.52,2.291-.017,3.838.116,3.838.116A5.333,5.333,0,0,1,41.5,36.9s-1.476.482-3.713.994-5.243.994-8.254,1.4a70.41,70.41,0,0,1-8.358.541,36.914,36.914,0,0,1-3.842-.137,5.353,5.353,0,0,1-1.2-10.379" transform="translate(39.599 83.379)"/>
      <path id="Path_1669" data-name="Path 1669" d="M37.472,27.05s1.493-.432,3.751-.823a71.812,71.812,0,0,1,8.321-.965c3.04-.137,6.079-.212,8.375-.1,2.291.1,3.83.308,3.83.308A5.333,5.333,0,0,1,62.421,35.9s-1.493.412-3.755.8c-2.258.412-5.285.728-8.316.985a73.236,73.236,0,0,1-8.37.121,38.313,38.313,0,0,1-3.834-.333,5.354,5.354,0,0,1-.674-10.429" transform="translate(106.173 79.297)"/>
      <path id="Path_1670" data-name="Path 1670" d="M22.845,37.461s3.651-1.148,9.41-2.512c2.865-.64,6.229-1.351,9.847-2.021,1.788-.366,3.784-.549,5.742-.794,2.071-.212,3.759-.532,6.2-.649,3.875.021,7.572-.158,11.352.033,3.734.2,7.3.416,10.188.686,5.8.57,9.68,1.185,9.68,1.185a5.236,5.236,0,0,1-.79,10.408h-.062s-3.763.021-9.443-.042c-2.853-.1-6,.029-9.443-.05-3.406-.108-7.372.162-11.161.229-1.734.183-3.468.362-5.173.541-1.784.225-3.5.279-5.252.57-3.46.557-6.728.861-9.506,1.31-5.535.823-9.373,1.314-9.373,1.314a5.244,5.244,0,0,1-2.241-10.2Z" transform="translate(60.485 99.258)"/>
    </g>
  </g>
  <g id="Group_1411" data-name="Group 1411" transform="matrix(1, 0, 0, 1, -894.404645, -3481.590477)">
    <path id="Path_1636" data-name="Path 1636" d="M64.087,215.115s-.817,26.148,3.286,27.642c3.093,1.128,18.085-21.17,18.085-21.17s49.283,15.387,99.717-18.234C229.9,173.54,260.34,68.918,173.594,19,110.208-17.474,51.675,1.976,17.659,48.4-7.611,82.875-16.064,157.086,64.087,215.115" transform="translate(1382.674 4079.014) rotate(-119)" fill="#afaf62"/>
    <rect id="Rectangle_451" data-name="Rectangle 451" width="228.937" height="242.798" transform="matrix(-0.777, -0.629, 0.629, -0.777, 1442.229, 4079.014)" fill="none"/>
    <g id="Group_1105" data-name="Group 1105" transform="translate(1377.033 3882.278)">
      <g id="Group_1106" data-name="Group 1106" transform="translate(0 0)">
        <path id="Path_1648" data-name="Path 1648" d="M38.619,23.033a2.071,2.071,0,0,0-1.457-.815c.058-.176.115-.36.175-.568a5.482,5.482,0,0,0-.882.557,5.059,5.059,0,0,0-.763.113c.091-.334,1.1-.228.718-.854-.485-.756-1.47.171-2.055.167-.939-.009.585.7.5.666a.864.864,0,0,1-.048.269,13.514,13.514,0,0,0-1.361.551c.015-.113.022-.219-.007-.225a1.4,1.4,0,0,0-.1.277,36.694,36.694,0,0,0-5.575,3.5c-.147-.275-.4-.494-.731-.1a1.211,1.211,0,0,0-.026.661q-.337.253-.663.511c-.34-.15-.665-.325-.665-.325.4.75-1.916.7-2.473.518-.093-.046-.115-.065-.111-.085a4.274,4.274,0,0,1-.967.817.452.452,0,0,0-.078-.149c-.05-.052-.074.08-.061.234-1.463.887-3.42,1.316-4.411,2.139.007.048.013.085.02.149l-.121.033s0-.056,0-.1a1.481,1.481,0,0,0-.453,1.628c-1.058-2.718.273,1.121-.52-.557.557,1.184.692,2.322,1.4,2.575-.193-.069.377-.418,1.235-.841a28.467,28.467,0,0,1-3.058,2.6c4.547,2.857,26.628-7.829,22.527-13.346M17.5,32.95c-.02.288-.1.212-.223-.234,0,0,.366-.188.223.234m2.057-2.257c.271,1.762-.589-.967,0,0m-.15,1.624c.024.065.234.85,0,0m-.193-1.446c.416,1.212.007.286-.015.2-.028-.156-.024-.223.015-.2m-.416.071c.16-.488,1.09,1.964.069.124.024.041-.069-.124-.069-.124m.351,1.389c-.026.082.069.412-.1.052Zm.191,1.279a.338.338,0,0,1-.21-.243c.048-.009.321-.028.574-.078l-.364.321m.429-1.7c-.267-.492.019-.325.123-.124Zm.306.828c-.022.115-.082-.306.015-.245Zm.332-.871c-.039-.429,0-.451.11-.072.1.355,0,.232-.11.072m.613-.7a.567.567,0,0,1,.143.379c-.1-.041-.147-.167-.143-.379m.622-.581c.046.228-.147-.11,0,0m.47.095.048.338c-.024.252-.173-.4-.048-.338m.343.215a1.159,1.159,0,0,1-.277-.65,1.358,1.358,0,0,1,.277.65m.264-.217c-.033-.061-.063-.128-.111-.225,0,0,.173.162.111.225" transform="translate(-21.092 6.814)"/>
        <path id="Path_1865" data-name="Path 1865" d="M38.619,23.033a2.071,2.071,0,0,0-1.457-.815c.058-.176.115-.36.175-.568a5.482,5.482,0,0,0-.882.557,5.059,5.059,0,0,0-.763.113c.091-.334,1.1-.228.718-.854-.485-.756-1.47.171-2.055.167-.939-.009.585.7.5.666a.864.864,0,0,1-.048.269,13.514,13.514,0,0,0-1.361.551c.015-.113.022-.219-.007-.225a1.4,1.4,0,0,0-.1.277,36.694,36.694,0,0,0-5.575,3.5c-.147-.275-.4-.494-.731-.1a1.211,1.211,0,0,0-.026.661q-.337.253-.663.511c-.34-.15-.665-.325-.665-.325.4.75-1.916.7-2.473.518-.093-.046-.115-.065-.111-.085a4.274,4.274,0,0,1-.967.817.452.452,0,0,0-.078-.149c-.05-.052-.074.08-.061.234-1.463.887-3.42,1.316-4.411,2.139.007.048.013.085.02.149l-.121.033s0-.056,0-.1a1.481,1.481,0,0,0-.453,1.628c-1.058-2.718.273,1.121-.52-.557.557,1.184.692,2.322,1.4,2.575-.193-.069.377-.418,1.235-.841a28.467,28.467,0,0,1-3.058,2.6c4.547,2.857,26.628-7.829,22.527-13.346M17.5,32.95c-.02.288-.1.212-.223-.234,0,0,.366-.188.223.234m2.057-2.257c.271,1.762-.589-.967,0,0m-.15,1.624c.024.065.234.85,0,0m-.193-1.446c.416,1.212.007.286-.015.2-.028-.156-.024-.223.015-.2m-.416.071c.16-.488,1.09,1.964.069.124.024.041-.069-.124-.069-.124m.351,1.389c-.026.082.069.412-.1.052Zm.191,1.279a.338.338,0,0,1-.21-.243c.048-.009.321-.028.574-.078l-.364.321m.429-1.7c-.267-.492.019-.325.123-.124Zm.306.828c-.022.115-.082-.306.015-.245Zm.332-.871c-.039-.429,0-.451.11-.072.1.355,0,.232-.11.072m.613-.7a.567.567,0,0,1,.143.379c-.1-.041-.147-.167-.143-.379m.622-.581c.046.228-.147-.11,0,0m.47.095.048.338c-.024.252-.173-.4-.048-.338m.343.215a1.159,1.159,0,0,1-.277-.65,1.358,1.358,0,0,1,.277.65m.264-.217c-.033-.061-.063-.128-.111-.225,0,0,.173.162.111.225" transform="translate(5.327 68.017) rotate(-138)"/>
      </g>
    </g>
    <g id="Group_1408" data-name="Group 1408" transform="translate(1456.461 3882.278)">
      <g id="Group_1106-2" data-name="Group 1106" transform="translate(-9.713 14.449)">
        <path id="Path_1648-2" data-name="Path 1648" d="M16.559,35.551A1.873,1.873,0,0,0,17.9,36.4c-.053.183-.106.375-.161.591a5.008,5.008,0,0,0,.814-.579,4.185,4.185,0,0,0,.7-.118c-.084.348-1.02.238-.664.888.448.786,1.358-.178,1.9-.174.868.01-.54-.724-.466-.693a1,1,0,0,1,.045-.28,11.716,11.716,0,0,0,1.257-.574c-.014.118-.021.228.007.234a1.579,1.579,0,0,0,.089-.288,33.561,33.561,0,0,0,5.149-3.637c.135.286.374.514.676.1a1.412,1.412,0,0,0,.024-.688c.207-.176.412-.353.612-.531.314.156.614.338.614.338-.374-.78,1.77-.732,2.284-.539.086.048.106.068.1.089a4.11,4.11,0,0,1,.893-.85.493.493,0,0,0,.072.155c.046.054.069-.083.057-.243,1.351-.923,3.158-1.369,4.074-2.225-.007-.05-.012-.089-.019-.155l.111-.035s0,.058,0,.1a1.665,1.665,0,0,0,.418-1.694c.977,2.828-.252-1.167.48.579-.514-1.232-.64-2.416-1.293-2.679.178.071-.348.435-1.14.875a27.3,27.3,0,0,1,2.824-2.706c-4.2-2.973-24.594,8.145-20.806,13.885m19.5-10.318c.019-.3.089-.22.206.243,0,0-.338.2-.206-.243m-1.9,2.349c-.25-1.833.544,1.006,0,0m.139-1.69c-.022-.068-.216-.885,0,0m.178,1.5c-.384-1.261-.007-.3.014-.211.026.162.022.232-.014.211m.384-.073c-.147.508-1.007-2.044-.063-.129-.022-.042.063.129.063.129m-.324-1.445c.024-.085-.063-.429.089-.054Zm-.177-1.331c.079.025.146.1.194.253-.045.01-.3.029-.53.081l.336-.334m-.4,1.767c.247.512-.017.338-.113.129Zm-.283-.861c.021-.12.075.319-.014.255Zm-.307.906c.036.446,0,.469-.1.075-.093-.369,0-.241.1-.075m-.566.724a.635.635,0,0,1-.132-.394c.089.042.135.174.132.394m-.574.6c-.043-.238.135.114,0,0m-.434-.1-.045-.352c.022-.263.159.413.045.352m-.317-.224a1.285,1.285,0,0,1,.255.676,1.51,1.51,0,0,1-.255-.676m-.243.226c.031.064.058.133.1.234,0,0-.159-.168-.1-.234" transform="translate(-15.996 -21.169)"/>
        <path id="Path_1865-2" data-name="Path 1865" d="M21.328,2.159a2.33,2.33,0,0,0-1.47-.89C19.9,1.1,19.95.92,20,.718a4.555,4.555,0,0,0-.828.5,4.671,4.671,0,0,0-.738.068c.069-.325,1.065-.161.652-.8-.517-.775-1.425.083-2,.046-.917-.064.611.722.531.688a.818.818,0,0,1-.031.263,11.608,11.608,0,0,0-1.3.466c.008-.111.009-.215-.02-.222a1.252,1.252,0,0,0-.078.268,30.469,30.469,0,0,0-5.238,3.13c-.159-.28-.424-.511-.72-.14a1.2,1.2,0,0,0,.013.652c-.209.154-.415.31-.617.466-.34-.168-.667-.36-.667-.36.439.765-1.829.584-2.383.368-.093-.051-.116-.071-.114-.091a3.511,3.511,0,0,1-.9.751.519.519,0,0,0-.085-.151c-.052-.054-.068.075-.046.228-1.376.792-3.261,1.1-4.181,1.857.01.048.018.085.029.148l-.116.026s0-.055,0-.1A1.364,1.364,0,0,0,.82,10.36c-1.191-2.747.331,1.124-.54-.581.612,1.2.811,2.335,1.516,2.626-.192-.079.344-.391,1.156-.759A23.364,23.364,0,0,1,.119,14.038c4.6,3.087,25.531-6.189,21.209-11.879M1.295,10.732c0,.283-.082.2-.231-.244,0,0,.346-.164.231.244M3.171,8.621c.367,1.757-.63-.99,0,0m-.052,1.6c.027.066.278.854,0,0m-.272-1.44c.476,1.222.024.283,0,.2-.036-.156-.036-.222,0-.2m-.4.046c.127-.473,1.178,2,.074.127.026.042-.074-.127-.074-.127m.423,1.393c-.021.079.091.411-.091.046Zm.261,1.275a.391.391,0,0,1-.219-.252c.047-.006.312-.009.555-.044l-.336.3m.32-1.654c-.289-.5,0-.32.112-.116Zm.347.836c-.015.112-.1-.307,0-.241Zm.274-.841c-.063-.426-.026-.446.1-.065.118.356.012.229-.1.065m.557-.652a.632.632,0,0,1,.161.383c-.1-.046-.153-.174-.161-.383M5.2,8.641c.059.228-.149-.117,0,0m.464.121L5.73,9.1c-.009.248-.192-.4-.067-.337m.348.233A1.31,1.31,0,0,1,5.7,8.336a1.534,1.534,0,0,1,.308.658m.245-.2c-.036-.062-.069-.13-.122-.228,0,0,.178.17.122.228" transform="translate(9.697 3.487) rotate(42)"/>
      </g>
    </g>
    <g id="Group_1404" data-name="Group 1404" transform="matrix(0.996, 0.087, -0.087, 0.996, 321.395, -105.091)">
      <path id="Path_1654" data-name="Path 1654" d="M37.066,9.688a1.216,1.216,0,0,0,.218-.986,11.3,11.3,0,0,0-1.345-1.426A13.93,13.93,0,0,0,26.055.595c-.066-.026-.134-.049-.194-.075,3.413-.764,1.666-.566-.436-.161-1.1-.4-1.723-.537-.123.024-.086.018-.17.035-.258.049a25.65,25.65,0,0,0-10.085.841,2.547,2.547,0,0,0-1.983.62q-.9.313-1.784.678a.409.409,0,0,0-.057-.247c-.236-.4-.379.125-.374.442-.924.4-1.826.849-2.695,1.331a.277.277,0,0,1,.123-.134.543.543,0,0,0-.222.191,24.865,24.865,0,0,0-7.187,5.9c-1.9,2.363-.136,6.932,3.233,6.39,4.157-.671,7.8-7.435,12.644-8.8A14.29,14.29,0,0,1,29.391,9.9c.528.381,9.706,8.707,8.441,2.464a18.1,18.1,0,0,0-.766-2.676" transform="matrix(-0.985, 0.174, -0.174, -0.985, 1456.883, 3955.162)"/>
      <path id="Path_1867" data-name="Path 1867" d="M37.066,9.688a1.216,1.216,0,0,0,.218-.986,11.3,11.3,0,0,0-1.345-1.426A13.93,13.93,0,0,0,26.055.595c-.066-.026-.134-.049-.194-.075,3.413-.764,1.666-.566-.436-.161-1.1-.4-1.723-.537-.123.024-.086.018-.17.035-.258.049a25.65,25.65,0,0,0-10.085.841,2.547,2.547,0,0,0-1.983.62q-.9.313-1.784.678a.409.409,0,0,0-.057-.247c-.236-.4-.379.125-.374.442-.924.4-1.826.849-2.695,1.331a.277.277,0,0,1,.123-.134.543.543,0,0,0-.222.191,24.865,24.865,0,0,0-7.187,5.9c-1.9,2.363-.136,6.932,3.233,6.39,4.157-.671,7.8-7.435,12.644-8.8A14.29,14.29,0,0,1,29.391,9.9c.528.381,9.706,8.707,8.441,2.464a18.1,18.1,0,0,0-.766-2.676" transform="matrix(-0.985, 0.174, -0.174, -0.985, 1511.019, 3942.891)"/>
      <path id="Path_1654-2" data-name="Path 1654" d="M64.859,65.912a1.216,1.216,0,0,0,.218-.986A11.3,11.3,0,0,0,63.731,63.5a13.93,13.93,0,0,0-9.884-6.681c-.066-.026-.134-.049-.194-.075,3.413-.764,1.666-.566-.436-.161-1.1-.4-1.723-.537-.123.024-.086.018-.17.035-.258.049A25.65,25.65,0,0,0,42.75,57.5a2.547,2.547,0,0,0-1.983.62q-.9.313-1.784.678a.409.409,0,0,0-.057-.247c-.236-.4-.379.125-.374.442-.924.4-1.826.849-2.695,1.331a.277.277,0,0,1,.123-.134.543.543,0,0,0-.222.191,24.865,24.865,0,0,0-7.187,5.9c-1.9,2.363-.136,6.932,3.233,6.39,4.157-.671,7.8-7.435,12.644-8.8a14.29,14.29,0,0,1,12.734,2.262c.528.381,9.706,8.707,8.441,2.464a18.1,18.1,0,0,0-.766-2.676" transform="matrix(0.998, 0.07, -0.07, 0.998, 1365.227, 3882.349)"/>
      <path id="Path_1866" data-name="Path 1866" d="M64.859,65.912a1.216,1.216,0,0,0,.218-.986A11.3,11.3,0,0,0,63.731,63.5a13.93,13.93,0,0,0-9.884-6.681c-.066-.026-.134-.049-.194-.075,3.413-.764,1.666-.566-.436-.161-1.1-.4-1.723-.537-.123.024-.086.018-.17.035-.258.049A25.65,25.65,0,0,0,42.75,57.5a2.547,2.547,0,0,0-1.983.62q-.9.313-1.784.678a.409.409,0,0,0-.057-.247c-.236-.4-.379.125-.374.442-.924.4-1.826.849-2.695,1.331a.277.277,0,0,1,.123-.134.543.543,0,0,0-.222.191,24.865,24.865,0,0,0-7.187,5.9c-1.9,2.363-.136,6.932,3.233,6.39,4.157-.671,7.8-7.435,12.644-8.8a14.29,14.29,0,0,1,12.734,2.262c.528.381,9.706,8.707,8.441,2.464a18.1,18.1,0,0,0-.766-2.676" transform="matrix(0.996, -0.087, 0.087, 0.996, 1411.176, 3880.333)"/>
    </g>
  </g>
  <g id="Group_1096" data-name="Group 1096" transform="matrix(1, 0, 0, 1, 531.490558, -563.540795)">
    <g id="Group_1095" data-name="Group 1095" transform="translate(0 0)" clip-path="url(#clip-2)">
      <path id="Path_1627" data-name="Path 1627" d="M178.5,243.819c4.171-2.386-5.334-29.979-5.334-29.979s73.948-29.32,68.618-107.257S145.863-27.322,65.254,13.984s-78.391,137.979-37.3,180.289c44.637,45.968,116.577,32.889,116.577,32.889s29.315,19.324,33.977,16.657" transform="translate(-0.001 0.003)" fill="#f297bc"/>
      <path id="Path_1628" data-name="Path 1628" d="M30.561,33.189S23.228,18.2,14.568,25.528,25.5,55.184,33.224,54.839c7.329-.332,24.317-26.312,14.989-32.978-9.954-7.11-17.652,11.327-17.652,11.327" transform="translate(39.686 64.737)" fill="#ab003d"/>
      <path id="Path_1629" data-name="Path 1629" d="M52.332,31.419S45,16.43,36.339,23.759,47.275,53.414,54.995,53.07c7.329-.332,23.99-24.649,14.658-31.31-9.95-7.11-17.32,9.66-17.32,9.66" transform="translate(109.351 64.008)" fill="#ab003d"/>
      <path id="Path_1630" data-name="Path 1630" d="M25.8,28.584c.008.059.433.722,1.34,2.1a36.387,36.387,0,0,0,4.154,5.082A26.312,26.312,0,0,0,38.3,40.949a21.222,21.222,0,0,0,9.328,2.142l.63.025.311.013.16.008h.08l.038,0c.067,0-.533.042-.269.021H48.6l1.478-.147c.479-.059,1.021-.088,1.441-.16l.97-.269A16.214,16.214,0,0,0,56.662,41a24.748,24.748,0,0,0,3.7-2.537,38.141,38.141,0,0,0,3-2.995,37.675,37.675,0,0,0,3.931-5.33c.8-1.365,1.264-2.142,1.264-2.142l.155-.26a2.211,2.211,0,0,1,4.066,1.592s-.059.286-.176.815a20.667,20.667,0,0,1-.58,2.121,34.079,34.079,0,0,1-3.272,7.123A30.09,30.09,0,0,1,65.507,43.7a25.7,25.7,0,0,1-4.758,4.04,22.381,22.381,0,0,1-6.363,2.873l-1.882.462c-.55.1-1,.13-1.5.2l-1.474.181-.391.029h-.323l-.433,0-.861-.008a26.056,26.056,0,0,1-6.846-.92,23.919,23.919,0,0,1-6.207-2.621,26.651,26.651,0,0,1-8.417-7.917,30.89,30.89,0,0,1-3.6-7.031,20.1,20.1,0,0,1-.651-2.129c-.118-.517-.181-.785-.181-.785l-.151-.664a2.2,2.2,0,0,1,4.292-.991c.013.055.025.118.034.172" transform="translate(68.52 85.255)"/>
    </g>
  </g>
  <g id="Group_1150" data-name="Group 1150" transform="matrix(1, 0, 0, 1, -805.222638, -11.708191)">
    <g id="Group_1103" data-name="Group 1103" transform="translate(1384.566 812)">
      <g id="Group_1093" data-name="Group 1093" transform="translate(0 0)" clip-path="url(#clip-3)">
        <path id="Path_1621" data-name="Path 1621" d="M58.836,249.548c.174,3.251,157.007-.493,173.121-115.9C249.456,8.321,120.157-19.767,59.2,12.05,4.975,40.364-24.342,116.118,25.818,179.24c23,28.947,63.528,37.953,60.54,44.356-4.134,8.848-27.739,21.918-27.521,25.952" transform="translate(-0.001 0.001)" fill="#6c85a0"/>
        <path id="Path_1652" data-name="Path 1652" d="M0,23.082Z" transform="translate(131.363 118.02)"/>
      </g>
    </g>
    <g id="g-1" data-name="Group 1105" transform="translate(1456.859 884.484)">
      <g id="g-2" data-name="Group 1106" transform="translate(0 0)">
        <path id="Path_1646" data-name="Path 1646" d="M28.634,42.038a6.957,6.957,0,0,1-1,2.183c-.149-.058,1.357-4.053.087-6.043,0,.022-.035.046-.093.076.072-.011.076,0-.2.076-.941-.293.037-.327.262-.208a2.174,2.174,0,0,0-.763-.7,2.828,2.828,0,0,0-.173.343,11.279,11.279,0,0,0-.564-1.894,2.021,2.021,0,0,1,.824.338c-.059-.208-.111-.62-.059-.41a.5.5,0,0,0,.076.136c-.39-.861-.973-1.907-.93-1.851,1.361.423-3.039-3.26-5.334-.518.111-.167.223-.338.338-.5-.054-.067-.215.2-.438.622a4.242,4.242,0,0,0-.4.637c.1-.16.208-.312.31-.47-.841,1.641-2.406,5.129-2.857,3.706-.093.355-.345,1.574-.574,3.017-.059-.084-.132-.147-.21-.1s.017.381.154.466a29.841,29.841,0,0,0-.332,3.308,8.523,8.523,0,0,0-.134,3.486c-.212,1.064.973,2.868,2.222,4.263.074-.022.269.23.269.23,1.108,1.242,2.25,2.076,2.28,1.53a3.974,3.974,0,0,0-.136-1.463,5.192,5.192,0,0,0,1.337-.032c-.156.511-.319,1.092-.5,1.8-5.7,5.922,1.092-.763,1.7-2.09a.207.207,0,0,0,.026.145c.21-.232.264-.314.173-.236a.211.211,0,0,0-.167.024c.035-.017.069-.03.1-.045a4.152,4.152,0,0,0,.631-.358,6.579,6.579,0,0,0-1.259,2c.342.574,3.423-3.067,3.076-3.318a.778.778,0,0,0-.873.55c.007-.041.032-.1.045-.15a3.7,3.7,0,0,0,.291-.421c.492-.173.887-1.346,1.129-3.011q.214-.493.425-.993c.019-.468.169-.661.264-.616.778-1.849,1.374-3.472.96-3.492M22.89,33.231c-.108.071-.219-.015-.347-.249.085-.045.516.182.347.249M20.84,52.425a2.935,2.935,0,0,1-.228-.243c.113.026.225.052.336.071-.026.048-.061.1-.108.173m-.178-6.91a6.192,6.192,0,0,1,.056-1.546,13.281,13.281,0,0,1,.366-1.561c.071-.243.167-.481.262-.717.017.045.033.091.052.137a25.866,25.866,0,0,0-.735,3.687m1.723,2.076a12.474,12.474,0,0,1,.271-2.766c.032.089.061.173.095.258-.15.954-.269,1.84-.366,2.508M21.756,35.2a6.745,6.745,0,0,0,.366-1.2,1.3,1.3,0,0,1,1.238.007,5.035,5.035,0,0,0-1.6,1.2m3.373-.949c-.032-.024-.063-.056-.1-.08.108-.173.4-.243.1.08m1.047,8.17c.009-.061.022-.126.037-.188a2.54,2.54,0,0,1,.007.429c-.015-.082-.032-.16-.045-.241m1.853-1.986c-.275-1.662.431-.238,0,0m-.589-1.524c-.247.024.154-.425.221-.46.472.249.4.4-.221.46" transform="translate(-15.733 -10.677)"/>
        <path id="Path_1647" data-name="Path 1647" d="M69.2,44.444a1.036,1.036,0,0,0-.21.433c-.058-.512-.134-1.025-.225-1.537.251-1.188.366-2.04.13-2.029a7.431,7.431,0,0,1-.288,1.216c-.076-.356-.154-.715-.243-1.069a7.8,7.8,0,0,0-.464-3.414c-.045.074-.195.137-.481.182a.41.41,0,0,1-.063-.117,1.219,1.219,0,0,1,.234-.369,1.009,1.009,0,0,1,.223.124,3.425,3.425,0,0,0-.184-.369c-.017.032-.045.052-.277.139-.076-.02-.134-.039-.186-.058-.03-.074-.059-.149-.085-.223a1.24,1.24,0,0,1,.446,0,2.138,2.138,0,0,0-.633-.518q-.287-.769-.581-1.509a1.369,1.369,0,0,1,.39.162,2.638,2.638,0,0,1-.136-.408c-.511-.832-1.153-1.754-1.056-1.636,1.435.347-3.394-3.165-5.6-.65.147-.217.275-.444.438-.652-.065-.084-.243.219-.49.7a3.3,3.3,0,0,0-.429.67c.113-.2.256-.381.382-.576-.854,1.719-2.426,5.471-2.835,3.921a17.241,17.241,0,0,0-.084,4.136,3.463,3.463,0,0,0-.128.453,10.99,10.99,0,0,0,1.175,7.654,2.324,2.324,0,0,0,.267.31c.735,2.629,1.754,4.311,2.98,3.24-1.394,1.76.594-.355-.015.99.176-.386.3-.683.4-.939a3.841,3.841,0,0,0,3.4.518c.019.5.045,1.054.095,1.706.015-.046.332-1.153.511-1.94a5.228,5.228,0,0,0,.551-.293,5.916,5.916,0,0,0-.158,1.22c.282.213.98-1.116,1.474-2.317a6.156,6.156,0,0,0,1.637-3.73,18.43,18.43,0,0,0-.1-2.963A.11.11,0,0,0,69.1,45c.878.162.329-.817.1-.559m-9.865,6.964.136.26c-.1-.024-.769-.187-.136-.26m.152-14.872a.276.276,0,0,1-.089-.15.3.3,0,0,1,.195.011c-.035.046-.074.093-.106.139M62.2,32.456c-.124.039-.23-.069-.323-.317.093-.028.514.291.323.317m-1.792.977c.2-.878-.2,1.647,0,0m.369,1.608a16.663,16.663,0,0,0,.542-1.92c.323-.23.915-.052,1.565.321a7.847,7.847,0,0,0-2.107,1.6m3.1,14.024a3.2,3.2,0,0,1-.226-.7,3.234,3.234,0,0,0,.687.815c-.128.215-.278.225-.46-.113m4.272-9.329c-.425-1.667.434-.31,0,0" transform="translate(18.549 -11.248)"/>
        <path id="path-1" data-name="Path 1648" d="M38.619,23.033a2.071,2.071,0,0,0-1.457-.815c.058-.176.115-.36.175-.568a5.482,5.482,0,0,0-.882.557,5.059,5.059,0,0,0-.763.113c.091-.334,1.1-.228.718-.854-.485-.756-1.47.171-2.055.167-.939-.009.585.7.5.666a.864.864,0,0,1-.048.269,13.514,13.514,0,0,0-1.361.551c.015-.113.022-.219-.007-.225a1.4,1.4,0,0,0-.1.277,36.694,36.694,0,0,0-5.575,3.5c-.147-.275-.4-.494-.731-.1a1.211,1.211,0,0,0-.026.661q-.337.253-.663.511c-.34-.15-.665-.325-.665-.325.4.75-1.916.7-2.473.518-.093-.046-.115-.065-.111-.085a4.274,4.274,0,0,1-.967.817.452.452,0,0,0-.078-.149c-.05-.052-.074.08-.061.234-1.463.887-3.42,1.316-4.411,2.139.007.048.013.085.02.149l-.121.033s0-.056,0-.1a1.481,1.481,0,0,0-.453,1.628c-1.058-2.718.273,1.121-.52-.557.557,1.184.692,2.322,1.4,2.575-.193-.069.377-.418,1.235-.841a28.467,28.467,0,0,1-3.058,2.6c4.547,2.857,26.628-7.829,22.527-13.346M17.5,32.95c-.02.288-.1.212-.223-.234,0,0,.366-.188.223.234m2.057-2.257c.271,1.762-.589-.967,0,0m-.15,1.624c.024.065.234.85,0,0m-.193-1.446c.416,1.212.007.286-.015.2-.028-.156-.024-.223.015-.2m-.416.071c.16-.488,1.09,1.964.069.124.024.041-.069-.124-.069-.124m.351,1.389c-.026.082.069.412-.1.052Zm.191,1.279a.338.338,0,0,1-.21-.243c.048-.009.321-.028.574-.078l-.364.321m.429-1.7c-.267-.492.019-.325.123-.124Zm.306.828c-.022.115-.082-.306.015-.245Zm.332-.871c-.039-.429,0-.451.11-.072.1.355,0,.232-.11.072m.613-.7a.567.567,0,0,1,.143.379c-.1-.041-.147-.167-.143-.379m.622-.581c.046.228-.147-.11,0,0m.47.095.048.338c-.024.252-.173-.4-.048-.338m.343.215a1.159,1.159,0,0,1-.277-.65,1.358,1.358,0,0,1,.277.65m.264-.217c-.033-.061-.063-.128-.111-.225,0,0,.173.162.111.225" transform="translate(-16.092 -20.417)"/>
        <path id="Path_1650" data-name="Path 1650" d="M50.382,23.305c-.006-.065.108-.013.3.11-.108.254-.032.681.327,1.368A26.124,26.124,0,0,0,62.9,35.809c2.738,1.331,18.283,3.431,10.114-2.315-.143-.1-.3-.186-.453-.28a.5.5,0,0,0,.084-.123c.329-.863-1.972-1.623-2.011-1.513a.619.619,0,0,0,0,.553c-.241-.117-.47-.245-.718-.356.024-.006.032-.011-.048-.095a.979.979,0,0,1-.436-.1c-.847-.358-1.628-.657-2.421-.945-.277-.184-.464-.277-.507-.184-1.3-.466-2.61-.926-3.876-1.452.236-.277.444-.748-.226-.867-.147-.026-.475.215-.767.44-.226-.1-.444-.219-.661-.329-.054-.425-.076-.893-.091-.869-.431.722-1.636-1.342-1.78-1.953-.015-.123,0-.152.017-.16a4.149,4.149,0,0,1-1.231-.492.445.445,0,0,0,.093-.139c.026-.071-.11-.032-.243.05-1.537-.941-2.878-2.64-4.108-3.254-.043.028-.076.054-.137.091l-.089-.108c.02-.007.058-.022.1-.043a1.448,1.448,0,0,0-1.7.239c1.972-2.174-.884.731.262-.744-.824,1.064-1.782,1.652-1.682,2.445m3.542.713-.169-.072c.325-.462.3-.115.169.072m.837-.774c-1.459,1,.615-.977,0,0m-.312-.265c-.908.9-.256.123-.189.072.126-.1.186-.121.189-.072m-.26-.377c.52-.074-1.357,1.957,0,0m-1.207.847.1.067a.682.682,0,0,0-.169.084c-.022-.035.011-.078.071-.15M51.81,21.891s.343.275-.108.314c-.271.1-.236-.006.108-.314" transform="translate(13.271 -20.764)"/>
        <path id="Path_1651" data-name="Path 1651" d="M72.539,68.627a1.419,1.419,0,0,0-.232,1.489c-.215-.462-1.173-3.908-2.256-7.224-.442-.221-.631-.728-.562-1.53.037.056.072.111.11.165-1.04-3.032-2.1-5.571-2.679-5.013a10.817,10.817,0,0,1,1.671,3.342c-.55.13-2.12-2.694-4.212-4.74-.451-.18-1.288-.626-1.368-1.144-.163-.106-.321-.2-.485-.286a.643.643,0,0,1-.2.407c-.158.2-.438-.483-.429-.566a1.572,1.572,0,0,1,.308-.02,4.826,4.826,0,0,0-.564-.225c.015.048.006.1-.084.3a2.352,2.352,0,0,1-.537.121c-.069-.039-.126-.084-.193-.123a1,1,0,0,1,.451-.39,3.418,3.418,0,0,0-1.3-.084c-.427-.171-.9-.4-1.411-.6a9.852,9.852,0,0,0,1.433-.152,13.582,13.582,0,0,0-4.974-1.346,5.727,5.727,0,0,1,1.569-.123A35.634,35.634,0,0,0,46.582,51c.457-.132.915-.262,1.372-.392-.1-.743-9.953,4.517-8.3,2.128A17.408,17.408,0,0,0,35.857,55.8c.069-.16.08-.3-.058-.291-.16.009-.481.611-.314.683a45.729,45.729,0,0,0-4.721,6.914,16.8,16.8,0,0,0-.826,2.133.561.561,0,0,1,.1-.054c.228.46-.058.564-.247.5-.178.54-.364,1.129-.548,1.745.08.011.15.238-.035.379-.052-.011-.048-.041-.052-.08a35.829,35.829,0,0,0-.977,4.17c.061.041,0,.5,0,.5-.007-.019-.03-.061-.054-.108-.247,1.84-.1,3.145.923,2.842-1.957,1.173.527.167-.511,1.34q.674-.774,1.272-1.6a.759.759,0,0,0,.21.977,18.292,18.292,0,0,1,.427-2.337c.1.622.213,1.277.332,1.836-.035.215-.074.429-.106.648-1.261.2-1.808.538-.16,1.129.241.494.037.7-.613.616.015-.061,1.123,1.036.936.928.377.219,10.851.776,11.239.245.13-.178-1.688-.494-.323-.678.191.009.379.015.577.02-.473.874,7.636.141,2.8.353.241-.106.466-.18.692-.265,2.207.039,4.489.048,6.745.028-.284.046-.54.134-.54.321.009.984,1.071-.074,1.277-.327,2.243-.024,4.443-.078,6.485-.167.022.284.232.156.39-.019,1.78-.082,3.427-.191,4.881-.327a.512.512,0,0,1,.106.234,1.557,1.557,0,0,1,.056-.249q1.167-.111,2.135-.247c-.821.975.31,1.034,3.418.165,0,0-.184-.035-.46-.082a7.241,7.241,0,0,0,1.225-2.6c.275,1.283.576,2.456.618,2.61-.082-.867-.34-2.291-.431-3.542a2.961,2.961,0,0,0,.017-.633c-.011-.095-.028-.186-.039-.282a5.239,5.239,0,0,1,.054-.605.391.391,0,0,1-.134.017c-.009-.078-.024-.156-.035-.234l.165-.189a.377.377,0,0,1,.065.119,1.059,1.059,0,0,1,.291-.533,16.256,16.256,0,0,0,.472,3.9c.319.13.7-7.073-.043-7.081M29.19,74.453c.011-.046.011-1.279.245-.516.191.278.11.446-.245.516m.49-7.7a.216.216,0,0,1-.054-.3c.913.3.1.338.054.3m.377,2.009.063-.334c.019.16.262.247-.063.334m.451-1.032a.516.516,0,0,1-.15-.065c.072-.2.15-.24.21-.215-.022.093-.035.188-.059.28m.137-1.571c-.477.147-.093-.473.119-.5a4.41,4.41,0,0,0-.119.5m4.069-7.5-.006.382c-.139.414-.247-.212.006-.382m-.163,19.215c.032.134-.121.509,0,0m-.423-.093c-.091.045-.13.293-.191-.006Zm-.414-18.26c.046.23-.269.178,0,0m-2.6,17.885c-.167.137-.239.078-.23-.16l.095.032c.071.022.173.045.262.067a.569.569,0,0,1-.126.061m.509-13.1a1.2,1.2,0,0,1-.119.061c-.139-.464-.069-.59.156-.386a.266.266,0,0,1,.067.11c-.033.074-.072.143-.1.215m.624-1.353c-.238.078-1.1.017,0,0m.2-1.093c.171-.076.251-.013.243.178-.171.182-.254.126-.243-.178m1.043,16.6a11.646,11.646,0,0,0,1.58.238c-.486.113-1.606.186-1.58-.238M35.043,57.88c.29-.011.4.143.4.423-.3.085-.438-.054-.4-.423m.34,20.522c-.108.072.05-.234.169-.161Zm28.8-22.421c.085-.368.479.379-.009.032.054.039.026-.082.009-.032m-6.251-4.238c.191.078.555-.007.735.332-.221-.046-1.1-.485-.735-.332m-8.165-.46c-.046,0-.089,0-.139,0a.155.155,0,0,1-.078-.108.549.549,0,0,1,.217.1m-13.6,6.258a.893.893,0,0,1-.195-.175l.306-.074a1.282,1.282,0,0,1,.006.136c-.039.041-.076.072-.117.113m.323,20.436c.05,0,.1,0,.154.007-.05.106-.1.072-.154-.007M63.635,64.758c.743,0,.795-.115.278-.514a20.48,20.48,0,0,1-2.066.2c-.117-.017-.668-.074-.793-.065a.876.876,0,0,0,.373.091c-.512.028-1.021.043-1.454.041a7.217,7.217,0,0,0,1.2-.4H59.544a5.006,5.006,0,0,1-.568.1.4.4,0,0,0,.05-.1h-.332c-.035.03-.054.039-.082.149l-.241.024a.991.991,0,0,0-.252-.173.882.882,0,0,0-.163.011.6.6,0,0,0-.013.2c-.373.032-.778.056-1.2.078a1.529,1.529,0,0,0-.529.028c-1.333.054-2.71.067-3.527.017.583.13,1.168.262,1.766.336,0,0-1.745-.076-3.795-.16.186-.059-.574-.221-1.264-.059a1.117,1.117,0,0,1,.119.015,38.364,38.364,0,0,0-5.183-.009,1,1,0,0,1,.991.321c-.089.444-4.94-.408-4.907-.468a9.692,9.692,0,0,1,2.761-.11.641.641,0,0,0-.319-.2,4.088,4.088,0,0,0-.527.022c.132.024.022.024-.3-.022-1,0-2,0-2.954-.059.162-.247.332-.457.5-.692a4.508,4.508,0,0,0-.7.377A14.77,14.77,0,0,1,40.2,61.173s.1-.1.087-.13c1.292-2.1,3.2-4.478,4.474-3.36.824-2.723,8.651-1.764,10.335-1.157-1.894.113,5.083,3.2,4.851,3.466q-.632-.387-1.249-.8a31.092,31.092,0,0,1,6.138,5.6c-.4.006-.8-.006-1.2-.03m4.346,12.91-.058-.16c.037-.006.065-.013.1-.019a.967.967,0,0,1-.043.178m.47-.033c-.059-.045-.132-.11-.221-.182.433-.078.826-.156,1.164-.245a2.374,2.374,0,0,0,.076.342c-.665-.085-1.277-.123-1.019.085m.03-15.685c.137.121-.293-.613-.3-.557a21.69,21.69,0,0,0-3.215-4.521c2.928,1.153,5.855,8.61,5.854,9.9,0,.193-.152.277-.332.33a29.56,29.56,0,0,0-2.009-5.155m2.816,8.6c-.022-.119-.046-.234-.072-.353a1.18,1.18,0,0,0-.009-.33,5.384,5.384,0,0,1-.223-.845.328.328,0,0,0,.117.006c-.006-.052-.013-.1-.019-.149a.177.177,0,0,0-.132,0c-.084-.382-.195-.756-.3-1.134.15.019.28.041.286.082.019.1.078.529.145,1.054.084.039.117.126.019.149.037.271.072.555.106.839.072.006.163.082.28.239a.215.215,0,0,1-.239.111c.013.115.024.223.041.332" transform="translate(-5.876 4.732)"/>
      </g>
    </g>
  </g>
  <g id="Group_1094" data-name="Group 1094" transform="matrix(1, 0, 0, 1, 496.161926, -126.140594)">
    <g id="g-3" data-name="Group 1093" transform="translate(0 0)" clip-path="url(#clip-4)">
      <path id="path-2" data-name="Path 1621" d="M164,246.442c-.164,3.21-147.358-.487-162.483-114.461C-14.909,8.217,106.445-19.521,163.658,11.9c50.89,27.961,78.405,102.773,31.328,165.109-21.589,28.586-59.624,37.48-56.819,43.8,3.88,8.738,26.035,21.645,25.83,25.629" transform="translate(0 0.001)" fill="#f3d643"/>
      <path id="Path_1622" data-name="Path 1622" d="M28.508,31a5.181,5.181,0,1,1-5.286-5.074A5.176,5.176,0,0,1,28.508,31" transform="translate(49.358 70.511)"/>
      <path id="Path_1623" data-name="Path 1623" d="M49.866,30.563a5.183,5.183,0,1,1-5.282-5.074,5.176,5.176,0,0,1,5.282,5.074" transform="translate(107.435 69.322)"/>
      <path id="Path_1624" data-name="Path 1624" d="M26.651,31.707s.1.279.272.677c.2.443.5,1.09.885,1.919a33.9,33.9,0,0,0,4,6.312,31.469,31.469,0,0,0,3.337,3.459,23.982,23.982,0,0,0,4.311,2.879,20.707,20.707,0,0,0,5.174,1.823,24.725,24.725,0,0,0,5.632.58c1.09-.056,2.321-.033,3.288-.153l2.615-.461c.885-.3,1.789-.528,2.667-.8q1.25-.575,2.462-1.131A24.019,24.019,0,0,0,65.5,43.807a27.055,27.055,0,0,0,3.221-3.56A32.468,32.468,0,0,0,72.494,33.8c.74-1.681,1.064-2.667,1.045-2.608a1.963,1.963,0,0,1,3.869.67l-.108.926a22.694,22.694,0,0,1-.439,2.429,32.024,32.024,0,0,1-3.184,8.228,26.985,26.985,0,0,1-3.545,4.929,26.43,26.43,0,0,1-5.312,4.467c-1.049.61-2.165,1.149-3.281,1.726-1.168.435-2.358.863-3.578,1.254-1.287.279-2.626.506-3.954.729-1.246.156-2.273.141-3.422.219a28.884,28.884,0,0,1-7.652-.859,23.953,23.953,0,0,1-6.9-2.8,25.007,25.007,0,0,1-5.442-4.281c-.755-.792-1.41-1.622-2.072-2.4q-.843-1.255-1.626-2.422a31.551,31.551,0,0,1-3.422-8.135,21.694,21.694,0,0,1-.517-2.422c-.082-.58-.123-.893-.123-.893a1.968,1.968,0,0,1,3.805-.923Z" transform="translate(62.032 80.42)"/>
      <path id="Path_1625" data-name="Path 1625" d="M41.534,43.368A15.349,15.349,0,1,0,26.5,59.024,15.35,15.35,0,0,0,41.534,43.368" transform="translate(29.48 77.05)" fill="#ce4a70"/>
      <path id="Path_1626" data-name="Path 1626" d="M71.341,43.366A15.349,15.349,0,1,0,56.31,59.026a15.348,15.348,0,0,0,15.032-15.66" transform="translate(110.548 77.055)" fill="#ce4a70"/>
    </g>
  </g>
  <g id="Group_1097" data-name="Group 1097" clip-path="url(#clip-5)" transform="matrix(1, 0, 0, 1, -46.76389, 676.857948)">
    <path id="Path_1631" data-name="Path 1631" d="M32.721,199.054c33.708,22.873,76.857,23.725,105.577,16.289,63.176-16.363,92.008-78.38,74.441-137.669C200.192,35.321,134.048-32.313,51.659,17.661-28.084,66.039,17.774,180.8,17.774,180.8S-.479,206.183.01,208.039s32.711-8.986,32.711-8.986" transform="translate(0.001 -0.002)" fill="#a17eaa"/>
    <path id="Path_1632" data-name="Path 1632" d="M25.415,65.819s-.044-.3-.13-.871c-.067-.582-.189-1.4-.226-2.449a42.154,42.154,0,0,1,.437-8.745,32.286,32.286,0,0,1,1.434-5.814,29.487,29.487,0,0,1,2.935-6.24,24.637,24.637,0,0,1,5.043-5.725A23.83,23.83,0,0,1,49.674,30.6a15.548,15.548,0,0,1,3.931.367,17.07,17.07,0,0,1,3.668.982,25.313,25.313,0,0,1,6.181,3.205,32.361,32.361,0,0,1,4.617,3.865,42.041,42.041,0,0,1,5.462,6.855c.589.871.956,1.619,1.238,2.119.274.526.422.8.422.8a1.956,1.956,0,0,1-3.22,2.175l-.115-.133s-.167-.2-.478-.56c-.341-.378-.841-.926-1.478-1.627a47.264,47.264,0,0,0-5.736-5.243A27.876,27.876,0,0,0,55.1,38.551,10.948,10.948,0,0,0,52.465,38a11.106,11.106,0,0,0-2.694-.126,11.1,11.1,0,0,0-2.516.267,12.549,12.549,0,0,0-2.961.871A17.069,17.069,0,0,0,39.5,41.656a21.579,21.579,0,0,0-3.8,3.954,31.424,31.424,0,0,0-2.653,4.7,39.907,39.907,0,0,0-1.738,4.739,51,51,0,0,0-1.645,7.611c-.119.937-.211,1.675-.274,2.175s-.07.763-.07.763l-.011.111a1.96,1.96,0,0,1-3.891.107" transform="translate(67.656 82.759)"/>
    <path id="Path_1633" data-name="Path 1633" d="M37.2,31.379c.015.037.4.337,1.186.978.763.626,1.879,1.493,3.209,2.386a18.01,18.01,0,0,0,4.528,2.227,8.267,8.267,0,0,0,2.364.374,7,7,0,0,0,2.279-.33l.145-.026.07-.015c-.119.048.285-.111-.267.107l.011-.007.026-.011.052-.022.422-.178.837-.348c.537-.245.515-.374.837-.508a8,8,0,0,0,1.675-1.582A14.661,14.661,0,0,0,56.8,30.067a39.637,39.637,0,0,0,1.267-5.288,1.953,1.953,0,1,1,3.883-.426,18.969,18.969,0,0,1,.422,1.868,19.572,19.572,0,0,1,.2,4.928,16.415,16.415,0,0,1-2.231,7.159,13.922,13.922,0,0,1-3.09,3.524,18.826,18.826,0,0,1-2.227,1.386l-.826.382-.411.193-.385.156-.148.041-.3.089a13.23,13.23,0,0,1-4.865.563,12.539,12.539,0,0,1-4.458-1.1,17.354,17.354,0,0,1-5.969-4.317A20.738,20.738,0,0,1,34.8,35.265a17.864,17.864,0,0,1-.826-1.686,1.955,1.955,0,0,1,3.231-2.2" transform="translate(90.986 61.17)"/>
    <path id="Path_1634" data-name="Path 1634" d="M17.366,37.853c.015.037.4.337,1.182.978.767.622,1.882,1.49,3.213,2.386a18.01,18.01,0,0,0,4.528,2.227,8.262,8.262,0,0,0,2.36.374,6.974,6.974,0,0,0,2.279-.33l.145-.026.074-.015c-.119.048.282-.111-.27.107l.015-.007.026-.011.052-.022.422-.178.834-.348c.541-.245.519-.374.841-.508A7.9,7.9,0,0,0,34.741,40.9a14.715,14.715,0,0,0,2.231-4.358,41.016,41.016,0,0,0,1.267-5.284,1.953,1.953,0,1,1,3.883-.43c0,.044.219.711.422,1.871a19.6,19.6,0,0,1,.2,4.928,16.415,16.415,0,0,1-2.231,7.159,13.922,13.922,0,0,1-3.09,3.524A18.866,18.866,0,0,1,35.2,49.691l-.826.382-.411.193-.385.156-.152.041-.293.089a13.23,13.23,0,0,1-4.865.563,12.54,12.54,0,0,1-4.458-1.1,17.354,17.354,0,0,1-5.969-4.317,20.738,20.738,0,0,1-2.875-3.954,17.863,17.863,0,0,1-.826-1.686,1.955,1.955,0,0,1,3.231-2.2" transform="translate(37.325 78.696)"/>
    <path id="Path_1635" data-name="Path 1635" d="M44.479,26c-.986.385,3.413,18.3,9.1,14.929,6.644-3.935-5.554-16.3-9.1-14.929" transform="translate(119.957 70.04)" fill="#98c5ed"/>
  </g>
  <g id="Balance" clip-path="url(#clip-Balance)" transform="matrix(1, 0, 0, 1, 750.701373, -318.352135)"/>
  <path style="fill: rgb(216, 216, 216); stroke: rgb(0, 0, 0); stroke-width: 12px;" d="M 1000.001 1272.092 L 1006.456 -381.741" transform="matrix(-1, 0, 0, -1, 1372.67287, 668.772316)"/>
  <path style="fill: rgb(216, 216, 216); stroke: rgb(0, 0, 0); stroke-width: 12px;" d="M 897.337 1402.711 L 898.937 646.203 L 901.319 -479.827" transform="matrix(-0.000682, -1, 1, -0.000682, -195.284726, 1139.505714)"/>
  <rect x="812.765" y="-580.282" width="397.805" height="160.968" style="fill: rgb(255, 255, 255);" rx="55.598" ry="55.598" transform="matrix(1, 0, 0, 1, -633.784101, -221.578698)"/>
  <text style="white-space: pre; fill: rgb(51, 51, 51); font-family: &quot;Roboto Slab&quot;; font-size: 70.1px;" x="943.367" y="-473.163" transform="matrix(1.476668, 0, 0, 1.377923, -1184.725342, -38.619484)">Positiv</text>
  <rect x="136.833" y="1073.671" width="453.649" height="160.968" style="fill: rgb(255, 255, 255);" rx="55.598" ry="55.598"/>
  <text style="white-space: pre; fill: rgb(51, 51, 51); font-family: &quot;Roboto Slab&quot;; font-size: 70.1px;" x="943.367" y="-473.163" transform="matrix(1.476668, 0, 0, 1.377923, -1221.047363, 1843.859497)">Negativ</text>
  <g id="Group_1192" data-name="Group 1192" transform="matrix(-1, 0, 0, 1, 4046.201678, -1257.525902)"/>
  <polyline style="fill: rgb(216, 216, 216); stroke: rgb(0, 0, 0);" points="510.455 -75.258" transform="matrix(1, 0, 0, 1, 1244.964007, -239.820778)"/>
  <rect x="532.812" y="200.541" width="224.872" height="160.968" style="fill: rgb(255, 255, 255);" rx="55.598" ry="55.598" transform="matrix(0.999989, -0.00465, 0.00465, 0.999989, 706.228333, -24.561203)"/>
  <text style="white-space: pre; fill: rgb(51, 51, 51); font-family: &quot;Roboto Slab&quot;; font-size: 70.1px;" x="943.367" y="-473.163" transform="matrix(1.476652, -0.006867, 0.006408, 1.377908, -112.721497, 947.537964)">Høj</text>
  <g id="Group_1100" data-name="Group 1100" transform="matrix(1, 0, 0, 1, 912.019977, 615.649086)">
    <g id="Group_1099" data-name="Group 1099" transform="translate(0 0)" clip-path="url(#clip-7)">
      <path id="path-7" data-name="Path 1636" d="M64.087,215.115s-.817,26.148,3.286,27.642c3.093,1.128,18.085-21.17,18.085-21.17s49.283,15.387,99.717-18.234C229.9,173.54,260.34,68.918,173.594,19,110.208-17.474,51.675,1.976,17.659,48.4-7.611,82.875-16.064,157.086,64.087,215.115" transform="translate(0 0)" fill="#d65050"/>
      <path id="Path_1637" data-name="Path 1637" d="M20.513,55.823s.085-.334.25-.954a27.345,27.345,0,0,1,.87-2.6,42,42,0,0,1,4.506-8.614,35.24,35.24,0,0,1,10.084-9.894c1.107-.733,2.348-1.3,3.556-1.969,1.24-.592,2.585-1.007,3.9-1.506,1.353-.387,2.75-.66,4.136-.979,1.4-.213,2.823-.314,4.24-.419l.532-.04.064,0,.338,0,.121.008.234.012.942.052,1.881.109a34.315,34.315,0,0,1,4.357.717,29.129,29.129,0,0,1,7.772,3.27c1.128.745,2.211,1.534,3.222,2.336.926.89,1.893,1.711,2.7,2.605a33.42,33.42,0,0,1,4.011,5.392,39.531,39.531,0,0,1,3.886,8.976,26.051,26.051,0,0,1,.644,2.658c.117.66.181,1.011.181,1.011a2.121,2.121,0,0,1-4.035,1.216L78.821,57s-.109-.258-.314-.733c-.234-.5-.584-1.228-1.027-2.163a41.288,41.288,0,0,0-4.53-7.16,35.019,35.019,0,0,0-3.7-4.007c-.7-.648-1.5-1.2-2.251-1.824q-1.238-.773-2.517-1.579A23.722,23.722,0,0,0,58.79,37.46a22.652,22.652,0,0,0-3.012-.471L53.9,36.92l-.942-.04-.238-.008-.117,0-.028,0c-.262,0,.318,0,.246.008l-.044,0-.411.044c-1.083.137-2.187.141-3.258.29-1.055.242-2.122.415-3.153.685-1.007.354-2.005.709-2.992,1.055-.934.471-1.917.83-2.8,1.357a35.626,35.626,0,0,0-8.908,7.317,48.314,48.314,0,0,0-5.114,6.834c-.532.89-.946,1.591-1.228,2.066l-.4.729-.064.129a2.129,2.129,0,0,1-3.93-1.558" transform="translate(61.876 87.317)"/>
      <path id="Path_1638" data-name="Path 1638" d="M33.666,33.424a7.825,7.825,0,1,1-7.776-7.869,7.829,7.829,0,0,1,7.776,7.869" transform="translate(54.538 77.355)"/>
      <path id="Path_1639" data-name="Path 1639" d="M19.55,23.3a26.913,26.913,0,0,1,4.4,1.152,55.318,55.318,0,0,1,8.863,3.987,58.757,58.757,0,0,1,8.09,5.4A28.932,28.932,0,0,1,44.24,36.9a2.251,2.251,0,0,1-.185,3.181,2.286,2.286,0,0,1-1.86.54,28.836,28.836,0,0,1-4.377-1.188,58.529,58.529,0,0,1-8.884-3.955,55.4,55.4,0,0,1-8.11-5.36,27.53,27.53,0,0,1-3.318-3.1A2.267,2.267,0,0,1,19.55,23.3" transform="translate(51.321 70.457)"/>
      <path id="Path_1640" data-name="Path 1640" d="M51.3,33.534a7.825,7.825,0,1,1-7.772-7.869A7.826,7.826,0,0,1,51.3,33.534" transform="translate(107.914 77.688)"/>
      <path id="Path_1641" data-name="Path 1641" d="M60.96,27.183A27.075,27.075,0,0,1,57.6,30.239a54.7,54.7,0,0,1-8.171,5.255,58.147,58.147,0,0,1-8.936,3.842A29.289,29.289,0,0,1,36.1,40.468a2.251,2.251,0,0,1-2.565-1.889,2.28,2.28,0,0,1,.568-1.856,29.08,29.08,0,0,1,3.379-3.02,58.342,58.342,0,0,1,8.151-5.292,55.183,55.183,0,0,1,8.916-3.878,27.32,27.32,0,0,1,4.41-1.1,2.263,2.263,0,0,1,2,3.745" transform="translate(101.455 70.883)"/>
    </g>
  </g>
  <g id="g-6" data-name="Group 1411" transform="matrix(1, 0, 0, 1, -1827.011334, -4060.962792)">
    <rect id="rect-4" data-name="Rectangle 451" width="228.937" height="242.798" transform="matrix(-0.777, -0.629, 0.629, -0.777, 1442.229, 4079.014)" fill="none"/>
    <g id="g-11" data-name="Group 1404" transform="matrix(0.996, 0.087, -0.087, 0.996, 321.395, -105.091)"/>
  </g>
  <g id="g-7" data-name="Group 1094" transform="matrix(1, 0, 0, 1, -392.33357, -327.903618)">
    <g id="g-8" data-name="Group 1093" transform="translate(0 0)" clip-path="url(#clip-8)">
      <path id="path-8" data-name="Path 1621" d="M 164 0.68 C 163.836 -2.53 16.642 1.167 1.517 115.141 C -14.909 238.905 106.445 266.643 163.658 235.222 C 214.548 207.261 242.063 132.449 194.986 70.113 C 173.397 41.527 135.362 32.633 138.167 26.313 C 142.047 17.575 164.202 4.668 163.997 0.684" style="fill: rgb(232, 227, 93);" transform="matrix(-1, 0, 0, -1, 219.219809, 247.12298)"/>
    </g>
  </g>
  <g id="Group_367" data-name="Group 367" transform="matrix(1, 0, 0, 1, -388.390485, -355.689812)">
    <path id="Path_200" data-name="Path 200" d="M 73.201 102.981 C 73.279 110.881 98.737 110.637 98.66 102.734" fill="none" stroke-linecap="round" stroke-linejoin="round" style="stroke: rgb(0, 0, 0); stroke-width: 5px;" transform="matrix(-0.962128, 0.272598, -0.272598, -0.962128, 197.436648, 184.089232)"/>
    <path id="Path_201" data-name="Path 201" d="M 139.735 100.244 C 139.813 108.144 165.27 107.9 165.193 99.997" fill="none" stroke-linecap="round" stroke-linejoin="round" style="stroke: rgb(0, 0, 0); stroke-width: 5px;" transform="matrix(-0.975828, -0.218542, 0.218542, -0.975828, 278.728, 236.874539)"/>
    <path id="Path_202" data-name="Path 202" d="M 87.899 151.96 C 100.001 162.288 140.491 159.021 151.109 145.999" fill="none" stroke-linecap="round" stroke-linejoin="round" style="stroke: rgb(0, 0, 0); stroke-width: 5px;"/>
  </g>
  <text style="fill: rgb(232, 227, 93); font-family: &quot;Roboto Slab&quot;; font-size: 50px; white-space: pre;" x="-201.807" y="-0.511" transform="matrix(1, 0, 0, 1, -110.543439, -42.218163)">Afslappet</text>
  <text style="fill: rgb(243, 214, 67); font-family: &quot;Roboto Slab&quot;; font-size: 50px; white-space: pre;" x="492.781" y="177.93">Interessere</text>
  <text style="fill: rgb(255, 66, 66); font-family: &quot;Roboto Slab&quot;; font-size: 50px; white-space: pre;" x="1463.666" y="157.245" transform="matrix(1, 0, 0, 1, -633.784101, -221.578698)">Begejstring</text>
  <text style="fill: rgb(242, 151, 188); font-family: &quot;Roboto Slab&quot;; font-size: 50px; white-space: pre;" x="1170.84" y="-31.91" transform="matrix(1, 0, 0, 1, -633.784101, -221.578698)">Forelskelse</text>
  <text style="fill: rgb(80, 137, 132); font-family: &quot;Roboto Slab&quot;; font-size: 50px; white-space: pre;" x="-108.24" y="460.722" transform="matrix(1, 0, 0, 1, -110.543439, -42.218163)">Skam</text>
  <text style="fill: rgb(143, 192, 212); font-family: &quot;Roboto Slab&quot;; font-size: 50px; white-space: pre;" x="203.42" y="449.405" transform="matrix(1, 0, 0, 1, -110.543439, -42.218163)">Skyld</text>
  <text style="fill: rgb(161, 126, 170); font-family: &quot;Roboto Slab&quot;; font-size: 50px; white-space: pre;" x="-10.387" y="693.525" transform="matrix(1, 0, 0, 1, -110.543439, -42.218163)">Tristhed</text>
  <text style="fill: rgb(175, 175, 98); font-family: &quot;Roboto Slab&quot;; font-size: 50px; white-space: pre;" x="1035.519" y="528.177" transform="matrix(1, 0, 0, 1, -633.784101, -221.578698)">Væmmelse</text>
  <text style="fill: rgb(108, 133, 160); font-family: &quot;Roboto Slab&quot;; font-size: 50px; white-space: pre;" x="1262.344" y="977.013" transform="matrix(1, 0, 0, 1, -633.784101, -221.578698)">Frygt</text>
  <text style="fill: rgb(214, 80, 80); font-family: &quot;Roboto Slab&quot;; font-size: 50px; white-space: pre;" x="1576.653" y="809.084" transform="matrix(1, 0, 0, 1, -633.784101, -221.578698)">Raseri</text>
  <path style="fill: rgb(216, 216, 216); stroke: rgb(0, 0, 0);" d="M -167.225 -0.173" transform="matrix(1, 0, 0, 1, -633.784101, -221.578698)"/>
  <g transform="matrix(1, 0, 0, 1, 995.534442, -18.610573)">
    <g id="g-12" data-name="Group 1140" transform="matrix(1, 0, 0, 1, -1544.942871, 133.738831)">
      <g id="g-13" data-name="Group 1139" transform="translate(0 0.001)" clip-path="url(#clip-10)">
        <path id="path-15" data-name="Path 1667" d="M 24.857 41.629 C 24.857 41.629 9.352 13.521 11.593 9.865 C 13.834 6.209 43.536 19.165 43.536 19.165 C 43.536 19.165 73.836 -8.811 131.473 2.836 C 209.339 18.566 256.773 100.345 212.528 181.92 C 171.128 258.264 81.949 254.235 34.138 208.72 C -13.673 163.205 -5.988 88.97 24.857 41.629" transform="matrix(-1, 0, 0, -1, 229.526566, 241.418865)" style="fill: rgb(136, 166, 163);"/>
        <path id="path-16" data-name="Path 1668" d="M 37.919 106.252 C 39.858 105.846 41.829 105.505 43.824 105.227 C 48.153 104.599 52.54 104.134 56.953 103.834 C 61.768 103.53 66.599 103.308 70.256 103.308 C 73.9 103.291 76.361 103.425 76.361 103.425 C 82.867 103.785 86.325 108.486 82.583 111.889 C 81.529 112.847 80.017 113.562 78.271 113.925 C 78.271 113.925 75.922 114.412 72.364 114.93 C 68.806 115.447 64.023 115.934 59.234 116.345 C 54.824 116.696 50.385 116.879 45.938 116.893 C 43.899 116.915 41.86 116.869 39.826 116.754 C 33.308 116.319 29.977 111.559 33.829 108.187 C 34.851 107.294 36.277 106.621 37.919 106.257" style="" transform="matrix(0.994212, -0.10744, 0.10744, 0.994212, -11.492805, 6.885881)"/>
        <path id="path-17" data-name="Path 1670" d="M 83.33 147.402 C 83.33 147.402 86.981 146.254 92.74 144.89 C 95.605 144.25 98.969 143.539 102.587 142.869 C 104.375 142.503 106.371 142.32 108.329 142.075 C 110.4 141.863 112.088 141.543 114.529 141.426 C 118.404 141.447 122.101 141.268 125.881 141.459 C 129.615 141.659 133.181 141.875 136.069 142.145 C 141.869 142.715 145.749 143.33 145.749 143.33 C 149.73 143.958 151.539 148.66 149.005 151.795 C 148.016 153.017 146.531 153.73 144.959 153.738 L 144.897 153.738 C 144.897 153.738 141.134 153.759 135.454 153.696 C 132.601 153.596 129.454 153.725 126.011 153.646 C 122.605 153.538 118.639 153.808 114.85 153.875 C 113.116 154.058 111.382 154.237 109.677 154.416 C 107.893 154.641 106.177 154.695 104.425 154.986 C 100.965 155.543 97.697 155.847 94.919 156.296 C 89.384 157.119 85.546 157.61 85.546 157.61 C 81.54 158.109 78.496 154.084 80.067 150.365 C 80.663 148.955 81.846 147.875 83.305 147.41 Z"/>
        <path id="path-18" data-name="Path 1622" d="M 161.48 112.422 C 161.609 118.154 154.798 121.864 149.218 119.099 C 143.64 116.334 143.477 109.168 148.926 106.201 C 150.169 105.524 151.586 105.153 153.039 105.127 C 157.607 105.038 161.39 108.308 161.48 112.422" style=""/>
        <path d="M 145.741 130.177 C 149.649 124.109 152.2 118.049 155.135 113.672 C 158.749 108.285 162.945 105.449 170.975 108.292" style="fill: rgb(111, 152, 148);" transform="matrix(-0.82333, -0.567562, 0.567562, -0.82333, 221.384439, 306.258682)"/>
        <path id="path-19" data-name="Path 1668" d="M 134.644 101.305 C 136.584 100.9 138.554 100.558 140.55 100.28 C 144.878 99.653 149.265 99.188 153.679 98.888 C 158.494 98.584 163.324 98.361 166.981 98.361 C 170.625 98.344 173.086 98.479 173.086 98.479 C 179.593 98.838 183.05 103.54 179.308 106.943 C 178.255 107.901 176.742 108.615 174.996 108.978 C 174.996 108.978 172.648 109.466 169.089 109.984 C 165.531 110.501 160.748 110.988 155.959 111.399 C 151.55 111.749 147.11 111.932 142.663 111.947 C 140.624 111.969 138.585 111.922 136.552 111.808 C 130.033 111.372 126.702 106.613 130.554 103.241 C 131.576 102.347 133.002 101.675 134.644 101.311" style="" transform="matrix(0.999298, 0.037465, -0.037465, 0.999298, 4.048413, -5.728895)"/>
      </g>
    </g>
    <path id="path-20" data-name="Path 1622" d="M -1479.956 254.933 C -1479.827 260.665 -1486.638 264.375 -1492.218 261.61 C -1497.796 258.845 -1497.959 251.679 -1492.51 248.712 C -1491.267 248.035 -1489.85 247.664 -1488.397 247.638 C -1483.829 247.549 -1480.046 250.819 -1479.956 254.933" style=""/>
    <path d="M -1494.316 272.727 C -1490.408 266.659 -1487.857 260.599 -1484.922 256.222 C -1481.308 250.835 -1477.112 247.999 -1469.082 250.842" style="fill: rgb(111, 152, 148);" transform="matrix(-0.861488, -0.507778, 0.507778, -0.861488, -2890.808376, -266.110103)"/>
    <path d="M -1460.231 301.818 C -1448.134 288.491 -1448.761 287.223 -1445.826 282.846 C -1442.212 277.459 -1443.027 277.09 -1434.997 279.933" style="fill: rgba(104, 145, 140, 0.76);" transform="matrix(-0.823134, -0.567847, 0.567847, -0.823134, -2803.869043, -293.317455)"/>
  </g>
  <text style="fill: rgb(136, 166, 163); font-family: &quot;Roboto Slab&quot;; font-size: 50px; white-space: pre;" x="-426.714" y="100.909">Kedsomhed</text>
  <g transform="matrix(1, 0, 0, 1, 254.247058, -161.942376)">
    <g>
      <g id="g-9" data-name="Group 1140" transform="matrix(1, 0, 0, 1, -645.594788, 949.675537)">
        <g id="g-10" data-name="Group 1139" transform="translate(0 0.001)" clip-path="url(#clip-9)">
          <path id="path-9" data-name="Path 1667" d="M 24.857 199.79 C 24.857 199.79 9.352 227.898 11.593 231.554 C 13.834 235.21 43.536 222.254 43.536 222.254 C 43.536 222.254 73.836 250.23 131.473 238.583 C 209.339 222.853 256.773 141.074 212.528 59.499 C 171.128 -16.845 81.949 -12.816 34.138 32.699 C -13.673 78.214 -5.988 152.449 24.857 199.79" style="fill: rgb(124, 141, 169);" transform="matrix(-1, 0, 0, -1, 229.526566, 241.419113)"/>
          <path id="path-11" data-name="Path 1669" d="M 100.743 170.321 C 100.743 170.321 101.735 170.036 103.231 169.778 C 105.056 169.457 106.896 169.244 108.74 169.139 C 110.747 169.048 112.754 168.999 114.266 169.073 C 115.775 169.139 116.786 169.277 116.786 169.277 C 119.457 169.646 120.645 172.79 118.922 174.937 C 118.437 175.542 117.771 175.978 117.029 176.179 C 117.029 176.179 116.037 176.452 114.536 176.707 C 113.039 176.98 111.037 177.189 109.033 177.359 C 107.191 177.491 105.348 177.518 103.509 177.44 C 102.664 177.408 101.821 177.335 100.987 177.219 C 98.314 176.797 97.182 173.618 98.95 171.494 C 99.418 170.931 100.044 170.52 100.743 170.317" style="" transform="matrix(0.999847, -0.017487, 0.017487, 0.999847, -2.984261, 2.075691)" bx:origin="0.883 0.313"/>
        </g>
      </g>
    </g>
    <path id="path-10" data-name="Path 1622" d="M -484.893 1050.491 C -484.795 1054.747 -489.965 1057.502 -494.202 1055.449 C -498.438 1053.396 -498.561 1048.074 -494.423 1045.871 C -493.48 1045.369 -492.404 1045.094 -491.301 1045.074 C -487.833 1045.008 -484.961 1047.436 -484.893 1050.491" style=""/>
    <path id="path-13" data-name="Path 1622" d="M -587.594 1065.569 C -587.504 1069.582 -592.204 1072.18 -596.054 1070.243 C -599.904 1068.308 -600.016 1063.291 -596.256 1061.216 C -595.398 1060.742 -594.42 1060.482 -593.418 1060.463 C -590.266 1060.401 -587.655 1062.69 -587.594 1065.569" style=""/>
  </g>
  <text style="fill: rgb(124, 141, 169); font-family: &quot;Roboto Slab&quot;; font-size: 50px; white-space: pre;" x="-364.092" y="815.662" transform="matrix(1, 0, 0, 1, -110.543439, -42.218163)">Depression</text>
  <rect x="532.812" y="200.541" width="224.872" height="160.968" style="fill: rgb(255, 255, 255);" rx="55.598" ry="55.598" transform="matrix(0.999942, -0.010749, 0.010749, 0.999942, -1473.487915, -34.291237)"/>
  <text style="white-space: pre; fill: rgb(51, 51, 51); font-family: &quot;Roboto Slab&quot;; font-size: 70.1px;" x="943.367" y="-473.163" transform="matrix(1.476582, -0.015873, 0.014812, 1.377843, -2304.596436, 944.194336)">Lav</text>
  <text transform="matrix(1.476652, -0.006867, 0.006408, 1.377908, -1385.289551, 877.156555)" style="fill: rgb(51, 51, 51); font-family: &quot;Roboto Slab&quot;; font-size: 50.0753px; font-weight: 500; white-space: pre;" x="943.367" y="-473.163">Intensitet</text>
  <text transform="matrix(0.028219, -1.476399, 1.377671, 0.026331, 962.025085, 1517.897827)" style="fill: rgb(51, 51, 51); font-family: &quot;Roboto Slab&quot;; font-size: 50.0753px; font-weight: 500; white-space: pre;" x="943.367" y="-473.163">Kvalitet</text>
</svg>
