<svg viewBox="589.565 -3.178 164.112 104.12" xmlns="http://www.w3.org/2000/svg"><g data-name="Group 761"><g fill="#e79e17" data-name="Group 687" transform="translate(626.05 1.717)"><path d="M50.544 24.485c10.371 6.232 14.108 19.06 8.345 28.651S47.12 65.493 27.25 57.76c-10.374-6.232-.307-28.052-.307-28.052s13.23-11.456 23.602-5.223Z" data-name="Path 442"/><rect width="23.826" height="3.665" data-name="Rectangle 157" rx="1.833" transform="rotate(37 -12.913 14.147)"/><rect width="26.88" height="4.887" data-name="Rectangle 160" rx="2.444" transform="rotate(37 -54.177 118.277)"/><rect width="21.382" height="3.665" data-name="Rectangle 161" rx="1.833" transform="rotate(74.99 -18.558 64.885)"/><rect width="21.382" height="3.665" data-name="Rectangle 162" rx="1.833" transform="scale(-1) rotate(-77 -29.114 35.541)"/><rect width="26.88" height="3.665" data-name="Rectangle 158" rx="1.833" transform="rotate(-35.02 116.438 36.716)"/><rect width="26.269" height="3.665" data-name="Rectangle 159" rx="1.833" transform="rotate(-35.02 78.371 -79.669)"/></g><g data-name="Group 762"><g data-name="Group 688"><path fill="#076572" d="M643.347 262.875a127.8 127.8 0 0 0-17.1.69 107.368 107.368 0 0 0-16.352 3.336c-2.15.615-4.485 1.474-4.668 2.75-.114.8.671 1.546 1.5 2.218a13.691 13.691 0 0 0 4.47 2.536c3.332 1.095 7.57.975 11.5.811 9.867-.41 19.75-.864 29.471-1.84a81.8 81.8 0 0 0 10.293-1.542c1.775-.415 3.637-1.045 4.02-2.039.55-1.427-2-2.674-4.127-3.317-4.259-1.287-5.216-1.79-9.953-2.368a104.769 104.769 0 0 0-10.9-1.257" data-name="Path 468"/><path fill="#009cb2" d="M656.675 246.443a86.4 86.4 0 0 0-15.787.872 76.3 76.3 0 0 0-15.1 4.22c-1.986.778-4.142 1.865-4.31 3.478a3.988 3.988 0 0 0 1.383 2.806c1.108 1.233 3.99 2.343 5.726 3.124 3.077 1.385 5.39 1.321 9.016 1.114 9.112-.52 18.237-1.093 27.212-2.328a56.773 56.773 0 0 0 9.5-1.95c1.64-.524 3.36-1.32 3.712-2.579.508-1.805-1.846-3.382-3.81-4.2-3.933-1.628-4.817-2.264-9.19-3a71.967 71.967 0 0 0-10.07-1.59" data-name="Path 469"/><path fill="#7ec8d6" d="M665.848 247.033a118.744 118.744 0 0 0 17.1-.742 100.687 100.687 0 0 0 16.35-3.593c2.151-.662 4.486-1.587 4.668-2.96.114-.858-.67-1.666-1.5-2.389a13.484 13.484 0 0 0-4.466-2.735c-3.333-1.179-7.57-1.05-11.5-.874-9.868.443-19.75.93-29.472 1.982a76.365 76.365 0 0 0-10.292 1.66c-1.775.446-3.637 1.125-4.02 2.2-.55 1.537 2 2.88 4.127 3.572 4.26 1.386 5.216 1.927 9.953 2.55a97.621 97.621 0 0 0 10.906 1.35" data-name="Path 470"/><path fill="rgba(50,63,81,0.14)" d="M689.854 234.067a118.744 118.744 0 0 0 17.1-.742 100.687 100.687 0 0 0 16.35-3.593c2.151-.662 4.486-1.587 4.668-2.96.114-.858-.67-1.666-1.5-2.389a13.484 13.484 0 0 0-4.466-2.735c-3.333-1.179-7.57-1.05-11.5-.874-9.868.443-19.75.93-29.472 1.982a76.365 76.365 0 0 0-10.292 1.66c-1.775.446-3.637 1.125-4.02 2.2-.55 1.537 2 2.88 4.127 3.572 4.26 1.386 5.216 1.927 9.953 2.55a97.621 97.621 0 0 0 10.906 1.35" data-name="Path 471"/><path fill="rgba(50,63,81,0.14)" d="M720.858 203.056a118.798 118.798 0 0 0-17.118-.457 100.733 100.733 0 0 0-16.568 2.442c-2.193.51-4.588 1.27-4.866 2.628-.174.847.955 3.654 1.73 4.434 1.124 1.132 2.036.301 3.866 1.096 3.243 1.41 9.376.72 13.312.819 9.88.248 17.877 1.313 27.652.943a76.4 76.4 0 0 0 10.388-.936c1.802-.32 3.708-.868 4.166-1.914.656-1.495-1.795-3.013-3.869-3.854-4.153-1.681-5.07-2.288-9.755-3.241a97.665 97.665 0 0 0-10.786-2.11" data-name="Path 472"/></g></g></g></svg>