<?xml version="1.0" encoding="utf-8"?>
<svg xmlns="http://www.w3.org/2000/svg" xmlns:bx="https://boxy-svg.com" viewBox="89.966 -106.254 806.669 1051.812">
  <defs>
    <clipPath id="clip-path">
      <rect id="Rectangle_374" data-name="Rectangle 374" width="35.569" height="27.465" fill="#323f51"/>
    </clipPath>
    <clipPath id="clip-1">
      <rect width="1166" height="1094"/>
    </clipPath>
    <clipPath id="clip-Illustration_-_Min_fysiske_energi_-_Min_fysiske_aktivitet">
      <rect width="545" height="513"/>
    </clipPath>
    <clipPath id="clip-3">
      <rect width="1166" height="1094"/>
    </clipPath>
    <clipPath id="clip-4">
      <rect width="545" height="513"/>
    </clipPath>
    <clipPath id="clip-2">
      <rect id="rect-7" data-name="Rectangle 374" width="35.569" height="27.465" fill="#323f51"/>
    </clipPath>
    <clipPath id="clip-5">
      <rect width="1166" height="1094"/>
    </clipPath>
    <clipPath id="clip-6">
      <rect width="545" height="513"/>
    </clipPath>
    <clipPath id="clip-7">
      <rect width="1166" height="1094"/>
    </clipPath>
    <clipPath id="clip-8">
      <rect width="545" height="513"/>
    </clipPath>
    <clipPath id="clip-Illustration_-_Min_fysiske_energi_-_Min_kost">
      <rect width="515" height="537"/>
    </clipPath>
    <clipPath id="clip-Illustration_-_Min_fysiske_energi_-_Min_søvn">
      <rect width="505" height="537"/>
    </clipPath>
    <clipPath id="clip-10">
      <rect id="rect-1" data-name="Rectangle 374" width="35.575" height="27.472" fill="#323f51" x="17226.065" y="1685.887"/>
    </clipPath>
    
  </defs>
  <g id="Group_831" data-name="Group 831" transform="matrix(1, 0, 0, 1, 11492.131889, -3701.911924)">
    <g id="Path_1219" data-name="Path 1219" transform="translate(-11266.157 3849.56)" fill="#fff">
      <path d="M 427.6204528808594 378.0745849609375 C 424.7087707519531 378.0745849609375 421.7630310058594 377.6976013183594 418.8649291992188 376.9541625976562 C 416.3600158691406 376.3115844726562 413.8141784667969 375.3750915527344 411.298095703125 374.1708374023438 C 406.5978698730469 371.9210815429688 402.876953125 369.1871643066406 400.1600341796875 367.1910095214844 C 399.1127624511719 366.4216003417969 398.2083435058594 365.757080078125 397.4130249023438 365.2440795898438 C 396.2926025390625 364.5213317871094 394.9248657226562 363.7827453613281 393.26123046875 363.7675170898438 L 44.1131477355957 359.5980834960938 C 43.60401916503906 359.2424621582031 42.48739624023438 358.3531188964844 40.5551872253418 356.3031616210938 C 38.33402252197266 353.9465026855469 35.6715202331543 350.718017578125 32.85577011108398 346.9666748046875 C 28.12993812561035 340.6706848144531 20.60560417175293 329.7691650390625 11.59768772125244 313.5894165039062 C 2.839354753494263 297.8579406738281 -5.259811878204346 280.8425903320312 -12.47481155395508 263.0160827636719 C -20.96988487243652 242.0267639160156 -28.09378242492676 220.2222290039062 -33.65088272094727 198.2021179199219 C -33.72895431518555 197.5104064941406 -33.91035842895508 196.4141235351562 -34.29406356811523 194.1194305419922 C -35.18906021118164 188.7664184570312 -36.85506057739258 178.8024291992188 -38.32072830200195 166.0477600097656 C -40.1149787902832 150.4336700439453 -41.04631042480469 135.4975891113281 -41.08872985839844 121.6543426513672 C -41.14447784423828 103.4674224853516 -39.66147994995117 87.16292572021484 -36.68106079101562 73.19384002685547 C -34.97222900390625 65.18467712402344 -32.7433967590332 57.83834075927734 -30.05647850036621 51.3590087890625 C -27.1784782409668 44.41892623901367 -23.70356178283691 38.30250930786133 -19.72822952270508 33.17959213256836 C -17.37756156921387 30.15042495727539 -14.80064487457275 27.4034252166748 -12.06897830963135 25.01484298706055 C -9.244562149047852 22.54517555236816 -6.171228408813477 20.38584327697754 -2.934228658676147 18.59692573547363 C 0.4316880404949188 16.73684310913086 4.076271533966064 15.2208423614502 7.898437976837158 14.09117603302002 C 11.89485454559326 12.91000938415527 16.20327186584473 12.11609268188477 20.70402145385742 11.73142623901367 C 22.62863731384277 11.56693267822266 101.0412216186523 5.984208106994629 104.9207763671875 5.709343433380127 C 158.6285095214844 5.179656028747559 194.0448150634766 3.057839155197144 219.9146118164062 1.508092522621155 C 236.1988525390625 0.5325925350189209 249.0611877441406 -0.2379074692726135 260.3639526367188 -0.2379074692726135 C 267.6354370117188 -0.2379074692726135 273.8961181640625 0.07225919514894485 280.0665283203125 0.7381758689880371 C 286.5286865234375 1.435509204864502 293.0400085449219 2.556675910949707 299.9726867675781 4.165759086608887 C 306.9598693847656 5.787425994873047 314.7100219726562 7.982009410858154 323.6658630371094 10.87484264373779 C 332.2486877441406 13.64717578887939 342.0482788085938 17.08434295654297 354.5056762695312 21.69184303283691 C 377.1712646484375 30.07492637634277 397.2489318847656 37.62025833129883 413.4214477539062 45.06925964355469 C 421.3817749023438 48.73584365844727 428.07177734375 52.2305908203125 433.873779296875 55.75334167480469 C 439.9166870117188 59.42242431640625 445.0621032714844 63.15800857543945 449.6040344238281 67.17359161376953 C 454.2000122070312 71.23692321777344 458.1848449707031 75.59217834472656 461.7861022949219 80.48825836181641 C 465.3841857910156 85.37984466552734 468.5991821289062 90.81050872802734 471.6146850585938 97.09059143066406 C 477.2602844238281 108.8480072021484 482.3034362792969 123.7809295654297 487.9668579101562 145.5094299316406 C 493.4300231933594 166.4700164794922 497.1541748046875 183.6125946044922 499.68701171875 199.458251953125 C 502.8449401855469 219.2143402099609 504.1298522949219 236.8895874023438 503.6152648925781 253.4940032958984 C 503.33203125 262.6342468261719 502.4790344238281 271.5552673339844 501.0799255371094 280.0090942382812 C 499.6011047363281 288.9445190429688 497.461181640625 297.66943359375 494.7195129394531 305.9413452148438 C 491.8390197753906 314.6321716308594 488.1986083984375 323.1128540039062 483.8995361328125 331.1475830078125 C 479.4252624511719 339.5097045898438 474.0939636230469 347.6575317382812 468.0526123046875 355.366943359375 C 460.5997619628906 363.5845642089844 453.088623046875 369.6539306640625 445.7263488769531 373.4071655273438 C 442.5281982421875 375.0375061035156 439.3045959472656 376.2556762695312 436.1452026367188 377.0277709960938 C 433.3027648925781 377.7223510742188 430.4346923828125 378.0745849609375 427.6204528808594 378.0745849609375 Z" stroke="none"/>
      <path d="M 260.3639526367188 4.7620849609375 C 249.2107696533203 4.7620849609375 236.4143524169922 5.5286865234375 220.2135162353516 6.499176025390625 C 194.2673492431641 8.053436279296875 158.7327575683594 10.18209838867188 105.4102783203125 10.68716430664062 C 103.2130126953125 10.83941650390625 23.55511474609375 16.51318359375 21.12985229492188 16.7132568359375 C 5.453765869140625 18.05300903320312 -6.618896484375 24.44192504882812 -15.778076171875 36.24493408203125 C -36.91665649414062 63.48541259765625 -41.74105834960938 119.2601623535156 -29.36248779296875 193.2948455810547 C -29.1129150390625 194.7876586914062 -28.93182373046875 196.016357421875 -28.808837890625 196.9550476074219 C -5.9608154296875 287.5155944824219 35.98928833007812 345.6333923339844 45.88998413085938 354.6190185546875 L 393.2086181640625 358.7672729492188 C 397.1394348144531 358.7672729492188 399.7788696289062 360.7065124511719 403.1204223632812 363.1616821289062 C 408.1665954589844 366.8692626953125 416.6123657226562 373.0745849609375 427.6204223632812 373.0745849609375 C 439.3494262695312 373.0745849609375 451.7442016601562 365.9453430175781 464.0121765136719 352.4163513183594 C 511.9933471679688 291.3148498535156 501.5554504394531 217.4693450927734 483.1285095214844 146.7705078125 C 462.8846740722656 69.1019287109375 446.7191772460938 61.12899780273438 352.7711791992188 26.38143920898438 C 306.3367919921875 9.207183837890625 287.3370971679688 4.7620849609375 260.3639526367188 4.7620849609375 M 260.3639526367188 -5.237884521484375 C 288.658935546875 -5.237884521484375 308.7479248046875 -0.5631103515625 356.2401123046875 17.00234985351562 C 453.2615966796875 52.88668823242188 471.4989318847656 62.50350952148438 492.80517578125 144.2483367919922 C 511.426513671875 215.6928405761719 523.313720703125 293.0905151367188 471.8771057128906 358.5924377441406 C 454.9271850585938 377.3342895507812 439.8993530273438 383.0745849609375 427.6204223632812 383.0745849609375 C 408.227783203125 383.0745849609375 395.6854858398438 368.7672729492188 393.2086181640625 368.7672729492188 L 43.23818969726562 364.5880126953125 C 36.28720092773438 364.5880126953125 -13.31414794921875 299.5689086914062 -38.59890747070312 199.0285949707031 C -38.59890747070312 194.742919921875 -77.05111694335938 15.06802368164062 20.27825927734375 6.749603271484375 C 22.23052978515625 6.582763671875 102.5115966796875 0.864013671875 104.7192687988281 0.711090087890625 C 192.4226226806641 -0.14862060546875 230.8553466796875 -5.237884521484375 260.3639526367188 -5.237884521484375 Z" stroke="none" fill="#323f51"/>
    </g>
    <g id="Group_829" data-name="Group 829" transform="translate(-10877.128 4090.709)">
      <line id="Line_34" data-name="Line 34" y1="39.794" x2="7.974" transform="translate(72.911 244.057)" fill="none" stroke="#485c74" stroke-linecap="round" stroke-width="30"/>
      <path id="Path_820" data-name="Path 820" d="M579.945,369.024s17.133-203.246-82.958-232.948" transform="translate(-496.987 -136.076)" fill="none" stroke="#5babb6" stroke-linecap="square" stroke-width="30"/>
    </g>
    <g id="Group_830" data-name="Group 830" transform="translate(-11267.893 4090.709)">
      <line id="Line_35" data-name="Line 35" x1="7.974" y1="39.794" transform="translate(3.189 244.057)" fill="none" stroke="#485c74" stroke-linecap="round" stroke-width="30"/>
      <path id="Path_821" data-name="Path 821" d="M441.741,369.024S424.609,165.779,524.7,136.076" transform="translate(-440.627 -136.076)" fill="none" stroke="#5babb6" stroke-linecap="square" stroke-width="30"/>
    </g>
    <path id="Path_1218" data-name="Path 1218" d="M581.755,120.116c-43.2,23.955-69.376,69.847-87.929,115.614a632.314,632.314,0,0,0-44.991,274.327c1.081,17.964,3.071,36.386,11.336,52.375,10.483,20.294,30,34.487,50.454,44.658,38.82,19.316,82.584,26.624,125.883,28.954,36.81,1.976,74.617.367,108.966-13.007s65-40.1,75.726-75.38c6.351-20.863,5.464-43.16,4.521-64.952q-1.394-32.188-2.787-64.363c-2.482-57.457-5.158-115.92-24.461-170.1S740.363,143.856,685.985,125.157c-17.313-5.963-38.4-20.017-56.472-17.042-39.229,6.455-20.6,2.33-47.757,12" transform="translate(-11666.463 3786.303)" fill="#6ac0d0"/>
    <circle id="Ellipse_117" data-name="Ellipse 117" cx="11.729" cy="11.729" r="11.729" transform="translate(-11014.067 4031.006)" fill="none" stroke="#4d5c70" stroke-linecap="round" stroke-miterlimit="10" stroke-width="5"/>
    <circle id="Ellipse_118" data-name="Ellipse 118" cx="4.133" cy="4.133" r="4.133" transform="translate(-11006.49 4038.602)" fill="#4d5c70"/>
    <circle id="Ellipse_119" data-name="Ellipse 119" cx="11.729" cy="11.729" r="11.729" transform="translate(-11087.379 4031.006)" fill="none" stroke="#4d5c70" stroke-linecap="round" stroke-miterlimit="10" stroke-width="5"/>
    <circle id="Ellipse_120" data-name="Ellipse 120" cx="4.133" cy="4.133" r="4.133" transform="translate(-11079.801 4038.602)" fill="#4d5c70"/>
    <path id="Path_1220" data-name="Path 1220" d="M532.35,142.786a132.863,132.863,0,0,0-13.215-2.808,56.175,56.175,0,0,0-28.947,3.189,43.187,43.187,0,0,0-21.757,18.991" transform="translate(-11543.549 3974.117)" fill="none" stroke="#4d5c70" stroke-linecap="round" stroke-miterlimit="10" stroke-width="5"/>
    <path id="Path_1221" data-name="Path 1221" d="M559.5,131.559l6.67,32.185,4.454,31.781-59.642-4.636-21.642-42.924Z" transform="translate(-11419.505 3927.831)" fill="#6ac0d0"/>
    <path id="Path_1224" data-name="Path 1224" d="M477.689,124.343c9.215,1.928,16.12,6.829,22.977,13.118" transform="translate(-11488.618 3885.017)" fill="none" stroke="#4d5c70" stroke-linecap="round" stroke-miterlimit="10" stroke-width="5"/>
    <path id="Path_1225" data-name="Path 1225" d="M489.277,124.343c-9.214,1.928-16.113,6.829-22.977,13.118" transform="translate(-11556.193 3885.017)" fill="none" stroke="#4d5c70" stroke-linecap="round" stroke-miterlimit="10" stroke-width="5"/>
    <path id="Path_1222" data-name="Path 1222" d="M477.675,132.158c5.789,1.941,11.336,1.38,17.341,0" transform="translate(-11488.701 3931.386)" fill="none" stroke="#4d5c70" stroke-linecap="round" stroke-miterlimit="10" stroke-width="5"/>
    <path id="Path_1223" data-name="Path 1223" d="M467.1,132.158c5.8,1.941,11.343,1.38,17.34,0" transform="translate(-11551.441 3931.386)" fill="none" stroke="#4d5c70" stroke-linecap="round" stroke-miterlimit="10" stroke-width="5"/>
    <g id="Group_828" data-name="Group 828" transform="translate(-11318.477 4208.49)">
      <path id="Path_829" data-name="Path 829" d="M431.508,444.442s-25.038-146.011-19.82-219.626,96.78-108.26,211.782-109.527S787.791,149.98,787.791,149.98s128.116,15.049,170.821,74.836,0,164.313,0,164.313" transform="translate(-410.972 -115.256)" fill="#fff" stroke="#323f51" stroke-linecap="round" stroke-miterlimit="10" stroke-width="10"/>
      <path id="Path_830" data-name="Path 830" d="M658.5,232.907,543.9,283.431,487.68,158.072" transform="translate(-110.861 -123.348)" fill="none" stroke="#323f51" stroke-linecap="round" stroke-miterlimit="10" stroke-width="10"/>
    </g>
    <g id="g-1" data-name="Path 1219" transform="matrix(1, 0, 0, 1, -10424.87793, 3840.480225)" fill="#fff">
      <path d="M 427.6204528808594 378.0745849609375 C 424.7087707519531 378.0745849609375 421.7630310058594 377.6976013183594 418.8649291992188 376.9541625976562 C 416.3600158691406 376.3115844726562 413.8141784667969 375.3750915527344 411.298095703125 374.1708374023438 C 406.5978698730469 371.9210815429688 402.876953125 369.1871643066406 400.1600341796875 367.1910095214844 C 399.1127624511719 366.4216003417969 398.2083435058594 365.757080078125 397.4130249023438 365.2440795898438 C 396.2926025390625 364.5213317871094 394.9248657226562 363.7827453613281 393.26123046875 363.7675170898438 L 44.1131477355957 359.5980834960938 C 43.60401916503906 359.2424621582031 42.48739624023438 358.3531188964844 40.5551872253418 356.3031616210938 C 38.33402252197266 353.9465026855469 35.6715202331543 350.718017578125 32.85577011108398 346.9666748046875 C 28.12993812561035 340.6706848144531 20.60560417175293 329.7691650390625 11.59768772125244 313.5894165039062 C 2.839354753494263 297.8579406738281 -5.259811878204346 280.8425903320312 -12.47481155395508 263.0160827636719 C -20.96988487243652 242.0267639160156 -28.09378242492676 220.2222290039062 -33.65088272094727 198.2021179199219 C -33.72895431518555 197.5104064941406 -33.91035842895508 196.4141235351562 -34.29406356811523 194.1194305419922 C -35.18906021118164 188.7664184570312 -36.85506057739258 178.8024291992188 -38.32072830200195 166.0477600097656 C -40.1149787902832 150.4336700439453 -41.04631042480469 135.4975891113281 -41.08872985839844 121.6543426513672 C -41.14447784423828 103.4674224853516 -39.66147994995117 87.16292572021484 -36.68106079101562 73.19384002685547 C -34.97222900390625 65.18467712402344 -32.7433967590332 57.83834075927734 -30.05647850036621 51.3590087890625 C -27.1784782409668 44.41892623901367 -23.70356178283691 38.30250930786133 -19.72822952270508 33.17959213256836 C -17.37756156921387 30.15042495727539 -14.80064487457275 27.4034252166748 -12.06897830963135 25.01484298706055 C -9.244562149047852 22.54517555236816 -6.171228408813477 20.38584327697754 -2.934228658676147 18.59692573547363 C 0.4316880404949188 16.73684310913086 4.076271533966064 15.2208423614502 7.898437976837158 14.09117603302002 C 11.89485454559326 12.91000938415527 16.20327186584473 12.11609268188477 20.70402145385742 11.73142623901367 C 22.62863731384277 11.56693267822266 101.0412216186523 5.984208106994629 104.9207763671875 5.709343433380127 C 158.6285095214844 5.179656028747559 194.0448150634766 3.057839155197144 219.9146118164062 1.508092522621155 C 236.1988525390625 0.5325925350189209 249.0611877441406 -0.2379074692726135 260.3639526367188 -0.2379074692726135 C 267.6354370117188 -0.2379074692726135 273.8961181640625 0.07225919514894485 280.0665283203125 0.7381758689880371 C 286.5286865234375 1.435509204864502 293.0400085449219 2.556675910949707 299.9726867675781 4.165759086608887 C 306.9598693847656 5.787425994873047 314.7100219726562 7.982009410858154 323.6658630371094 10.87484264373779 C 332.2486877441406 13.64717578887939 342.0482788085938 17.08434295654297 354.5056762695312 21.69184303283691 C 377.1712646484375 30.07492637634277 397.2489318847656 37.62025833129883 413.4214477539062 45.06925964355469 C 421.3817749023438 48.73584365844727 428.07177734375 52.2305908203125 433.873779296875 55.75334167480469 C 439.9166870117188 59.42242431640625 445.0621032714844 63.15800857543945 449.6040344238281 67.17359161376953 C 454.2000122070312 71.23692321777344 458.1848449707031 75.59217834472656 461.7861022949219 80.48825836181641 C 465.3841857910156 85.37984466552734 468.5991821289062 90.81050872802734 471.6146850585938 97.09059143066406 C 477.2602844238281 108.8480072021484 482.3034362792969 123.7809295654297 487.9668579101562 145.5094299316406 C 493.4300231933594 166.4700164794922 497.1541748046875 183.6125946044922 499.68701171875 199.458251953125 C 502.8449401855469 219.2143402099609 504.1298522949219 236.8895874023438 503.6152648925781 253.4940032958984 C 503.33203125 262.6342468261719 502.4790344238281 271.5552673339844 501.0799255371094 280.0090942382812 C 499.6011047363281 288.9445190429688 497.461181640625 297.66943359375 494.7195129394531 305.9413452148438 C 491.8390197753906 314.6321716308594 488.1986083984375 323.1128540039062 483.8995361328125 331.1475830078125 C 479.4252624511719 339.5097045898438 474.0939636230469 347.6575317382812 468.0526123046875 355.366943359375 C 460.5997619628906 363.5845642089844 453.088623046875 369.6539306640625 445.7263488769531 373.4071655273438 C 442.5281982421875 375.0375061035156 439.3045959472656 376.2556762695312 436.1452026367188 377.0277709960938 C 433.3027648925781 377.7223510742188 430.4346923828125 378.0745849609375 427.6204528808594 378.0745849609375 Z" stroke="none"/>
      <path d="M 260.3639526367188 4.7620849609375 C 249.2107696533203 4.7620849609375 236.4143524169922 5.5286865234375 220.2135162353516 6.499176025390625 C 194.2673492431641 8.053436279296875 158.7327575683594 10.18209838867188 105.4102783203125 10.68716430664062 C 103.2130126953125 10.83941650390625 23.55511474609375 16.51318359375 21.12985229492188 16.7132568359375 C 5.453765869140625 18.05300903320312 -6.618896484375 24.44192504882812 -15.778076171875 36.24493408203125 C -36.91665649414062 63.48541259765625 -41.74105834960938 119.2601623535156 -29.36248779296875 193.2948455810547 C -29.1129150390625 194.7876586914062 -28.93182373046875 196.016357421875 -28.808837890625 196.9550476074219 C -5.9608154296875 287.5155944824219 35.98928833007812 345.6333923339844 45.88998413085938 354.6190185546875 L 393.2086181640625 358.7672729492188 C 397.1394348144531 358.7672729492188 399.7788696289062 360.7065124511719 403.1204223632812 363.1616821289062 C 408.1665954589844 366.8692626953125 416.6123657226562 373.0745849609375 427.6204223632812 373.0745849609375 C 439.3494262695312 373.0745849609375 451.7442016601562 365.9453430175781 464.0121765136719 352.4163513183594 C 511.9933471679688 291.3148498535156 501.5554504394531 217.4693450927734 483.1285095214844 146.7705078125 C 462.8846740722656 69.1019287109375 446.7191772460938 61.12899780273438 352.7711791992188 26.38143920898438 C 306.3367919921875 9.207183837890625 287.3370971679688 4.7620849609375 260.3639526367188 4.7620849609375 M 260.3639526367188 -5.237884521484375 C 288.658935546875 -5.237884521484375 308.7479248046875 -0.5631103515625 356.2401123046875 17.00234985351562 C 453.2615966796875 52.88668823242188 471.4989318847656 62.50350952148438 492.80517578125 144.2483367919922 C 511.426513671875 215.6928405761719 523.313720703125 293.0905151367188 471.8771057128906 358.5924377441406 C 454.9271850585938 377.3342895507812 439.8993530273438 383.0745849609375 427.6204223632812 383.0745849609375 C 408.227783203125 383.0745849609375 395.6854858398438 368.7672729492188 393.2086181640625 368.7672729492188 L 43.23818969726562 364.5880126953125 C 36.28720092773438 364.5880126953125 -13.31414794921875 299.5689086914062 -38.59890747070312 199.0285949707031 C -38.59890747070312 194.742919921875 -77.05111694335938 15.06802368164062 20.27825927734375 6.749603271484375 C 22.23052978515625 6.582763671875 102.5115966796875 0.864013671875 104.7192687988281 0.711090087890625 C 192.4226226806641 -0.14862060546875 230.8553466796875 -5.237884521484375 260.3639526367188 -5.237884521484375 Z" stroke="none" fill="#323f51"/>
    </g>
    <g id="g-2" data-name="Group 829" transform="matrix(1, 0, 0, 1, -10035.848633, 4081.629395)">
      <line id="line-1" data-name="Line 34" y1="39.794" x2="7.974" transform="translate(72.911 244.057)" fill="none" stroke="#485c74" stroke-linecap="round" stroke-width="30"/>
      <path id="path-1" data-name="Path 820" d="M579.945,369.024s17.133-203.246-82.958-232.948" transform="translate(-496.987 -136.076)" fill="none" stroke="#5babb6" stroke-linecap="square" stroke-width="30"/>
    </g>
    <g id="g-3" data-name="Group 830" transform="matrix(1, 0, 0, 1, -10426.613281, 4081.629395)">
      <line id="line-2" data-name="Line 35" x1="7.974" y1="39.794" transform="translate(3.189 244.057)" fill="none" stroke="#485c74" stroke-linecap="round" stroke-width="30"/>
      <path id="path-2" data-name="Path 821" d="M441.741,369.024S424.609,165.779,524.7,136.076" transform="translate(-440.627 -136.076)" fill="none" stroke="#5babb6" stroke-linecap="square" stroke-width="30"/>
    </g>
    <path id="path-3" data-name="Path 1218" d="M -10243.429 3897.339 C -10286.629 3921.294 -10312.805 3967.186 -10331.358 4012.953 C -10366.519 4099.926 -10381.887 4193.633 -10376.349 4287.28 C -10375.268 4305.244 -10373.278 4323.666 -10365.013 4339.655 C -10354.53 4359.949 -10335.013 4374.142 -10314.559 4384.313 C -10275.739 4403.629 -10231.975 4410.937 -10188.676 4413.267 C -10151.866 4415.243 -10114.059 4413.634 -10079.71 4400.26 C -10045.361 4386.886 -10014.71 4360.16 -10003.984 4324.88 C -9997.633 4304.017 -9998.52 4281.72 -9999.463 4259.928 C -10000.392 4238.469 -10001.321 4217.015 -10002.25 4195.565 C -10004.732 4138.108 -10007.408 4079.645 -10026.711 4025.465 C -10046.014 3971.285 -10084.821 3921.079 -10139.199 3902.38 C -10156.512 3896.417 -10177.599 3882.363 -10195.671 3885.338 C -10234.9 3891.793 -10216.271 3887.668 -10243.428 3897.338" fill="#6ac0d0"/>
    <path id="path-5" data-name="Path 1221" d="M -10018.726 4050.31 L -10012.056 4082.495 L -10007.602 4114.276 L -10067.244 4109.64 L -10088.886 4066.716 Z" fill="#6ac0d0"/>
    <path id="path-6" data-name="Path 1224" d="M -10156.434 4004.539 C -10147.219 4006.467 -10140.314 4011.368 -10133.457 4017.657" fill="none" stroke-linecap="round" stroke-miterlimit="10" stroke-width="5" style="stroke: rgb(50, 63, 81);" transform="matrix(0.951322, -0.3082, 0.3082, 0.951322, -1730.059088, -2931.416837)"/>
    <path id="path-7" data-name="Path 1225" d="M -10237.745 4005.659 C -10246.959 4007.587 -10253.858 4012.488 -10260.722 4018.777" fill="none" stroke-linecap="round" stroke-miterlimit="10" stroke-width="5" style="stroke: rgb(50, 63, 81);" transform="matrix(0.942022, 0.335552, -0.335552, 0.942022, 752.074449, 3671.77078)"/>
    <g id="g-4" data-name="Group 828" transform="matrix(1, 0, 0, 1, -10477.197266, 4199.410645)">
      <path id="path-10" data-name="Path 829" d="M431.508,444.442s-25.038-146.011-19.82-219.626,96.78-108.26,211.782-109.527S787.791,149.98,787.791,149.98s128.116,15.049,170.821,74.836,0,164.313,0,164.313" transform="translate(-410.972 -115.256)" fill="#fff" stroke="#323f51" stroke-linecap="round" stroke-miterlimit="10" stroke-width="10"/>
      <path id="path-11" data-name="Path 830" d="M658.5,232.907,543.9,283.431,487.68,158.072" transform="translate(-110.861 -123.348)" fill="none" stroke="#323f51" stroke-linecap="round" stroke-miterlimit="10" stroke-width="10"/>
    </g>
    <g transform="matrix(2.120689, 0, 0, 2.134601, -12465.729492, 3767.352295)" style="">
      <path style="fill: rgb(50, 63, 81);" transform="matrix(-1.004672, 0.634891, -0.60346, -0.954932, 1372.227905, 39.246014)" d="M 376.602 230.996 A 56.335 56.335 0 1 1 376.602 329.058 A 49.386 49.386 0 0 0 376.602 230.996 Z" bx:shape="crescent 404.343 280.027 56.335 239 0.64 1@07131189"/>
      <path d="M 693.772 202.35 L 698.509 210.846 L 707.914 212.805 L 701.437 220.015 L 702.512 229.722 L 693.772 225.682 L 685.032 229.722 L 686.107 220.015 L 679.63 212.805 L 689.035 210.846 Z" style="fill: rgb(50, 63, 81);" transform="matrix(-0.838093, 0.545527, -0.545527, -0.838093, 1542.236864, -217.059843)" bx:shape="star 693.772 217.481 14.87 15.131 0.542 5 1@db2288c9"/>
      <path d="M 693.772 205.198 L 697.335 212.095 L 704.409 213.685 L 699.537 219.538 L 700.346 227.418 L 693.772 224.138 L 687.198 227.418 L 688.007 219.538 L 683.135 213.685 L 690.209 212.095 Z" style="fill: rgb(50, 63, 81);" transform="matrix(-0.838093, 0.545527, -0.545527, -0.838093, 1500.593797, -189.113066)" bx:shape="star 693.772 217.481 11.184 12.283 0.542 5 1@e2b1ef89"/>
      <path d="M 693.772 204.71 L 697.48 211.881 L 704.842 213.535 L 699.772 219.62 L 700.614 227.813 L 693.772 224.403 L 686.93 227.813 L 687.772 219.62 L 682.702 213.535 L 690.064 211.881 Z" style="fill: rgb(50, 63, 81);" transform="matrix(-0.838093, 0.545527, -0.545527, -0.838093, 1537.743455, -161.379408)" bx:shape="star 693.772 217.481 11.64 12.771 0.542 5 1@99adbf90"/>
    </g>
    <g id="Group_761" data-name="Group 761" transform="matrix(1, 0, 0, 1, -12388.01522, 563.536576)"/>
    <path id="Path_1341" data-name="Path 1341" d="M 1779.581 1798.383 C 1781.36 1797.551 1786.605 1795.094 1786.254 1792.474 C 1786.371 1792.359 1786.497 1792.252 1786.63 1792.155 C 1785.889 1792.079 1786.338 1791.519 1786.724 1792.07 C 1786.533 1791.533 1786.402 1790.977 1786.332 1790.412 C 1783.701 1790.565 1771.145 1788.036 1771.994 1790.48 C 1771.374 1789.464 1771.104 1790.327 1770.994 1790.424 C 1771.167 1790.647 1771.359 1790.856 1771.567 1791.048 C 1770.09 1791.87 1769.309 1792.914 1771.684 1793.228 C 1774.338 1793.579 1777.128 1793.859 1779.889 1794.047 C 1778.917 1794.917 1777.833 1795.653 1776.666 1796.236 C 1776.534 1796.298 1776.408 1796.359 1776.277 1796.421 C 1776.753 1795.95 1777.142 1795.459 1776.409 1795.721 C 1776.149 1796.007 1775.931 1796.328 1775.76 1796.675 C 1773.276 1797.936 1771.501 1799.436 1772.075 1800.596 C 1772.138 1801.47 1772.985 1801.702 1773.828 1801.804 L 1773.76 1801.836 C 1773.741 1801.846 1773.806 1801.814 1773.828 1801.804 C 1773.85 1801.82 1773.815 1801.823 1773.76 1801.836 C 1773.66 1801.884 1773.92 1801.992 1773.989 1802.006 C 1774.07 1801.916 1774.089 1801.864 1774.076 1801.831 L 1774.27 1801.85 C 1774.885 1802.007 1775.509 1802.124 1776.139 1802.201 C 1776.756 1802.279 1778.41 1802.547 1780.273 1802.701 C 1780.332 1802.92 1780.402 1803.078 1780.487 1802.977 C 1780.459 1803.011 1780.477 1802.887 1780.508 1802.722 C 1781.064 1802.763 1781.634 1802.791 1782.201 1802.804 C 1781.995 1802.926 1781.614 1803.02 1781.75 1803.104 C 1781.97 1803.06 1782.174 1802.956 1782.339 1802.804 C 1782.401 1802.804 1782.464 1802.81 1782.527 1802.81 C 1782.639 1802.951 1782.944 1802.957 1783.486 1802.795 C 1785.734 1802.704 1787.603 1802.186 1787.603 1800.681 C 1787.603 1798.743 1783.411 1798.402 1779.583 1798.381 M 1777.492 1789.875 C 1777.457 1789.935 1777.415 1789.992 1777.369 1790.045 L 1777.156 1790.045 C 1777.14 1789.801 1777.312 1789.345 1777.492 1789.876 M 1776.63 1789.96 C 1776.674 1789.838 1776.73 1789.794 1776.787 1789.828 C 1776.777 1789.919 1776.768 1789.978 1776.759 1790.041 L 1776.629 1790.041 C 1776.629 1790.004 1776.629 1789.962 1776.629 1789.962 M 1776.266 1790.036 L 1776.146 1790.036 C 1776.121 1789.98 1776.087 1789.889 1776.056 1789.8 C 1776.056 1789.8 1776.04 1789.766 1776.012 1789.687 C 1776.129 1789.615 1776.226 1789.853 1776.266 1790.039 M 1772.394 1790.576 C 1772.394 1790.576 1772.494 1790.563 1772.583 1790.56 C 1772.526 1790.595 1772.456 1790.601 1772.394 1790.576" fill="#323f51" clip-path="url(#clip-path)" transform="matrix(1, 0, 0, 1, -9871.630454, 3399.969193)"/>
    <path id="Path_1342" data-name="Path 1342" d="M 1805.735 1789.42 C 1805.728 1787.826 1799.79 1787.56 1795.603 1787.52 C 1795.792 1787.331 1795.982 1787.131 1796.171 1786.911 C 1796.305 1786.867 1796.434 1786.81 1796.557 1786.742 C 1796.522 1786.683 1796.49 1786.622 1796.463 1786.56 C 1796.491 1786.526 1796.517 1786.497 1796.544 1786.46 C 1796.565 1786.539 1796.581 1786.62 1796.592 1786.702 C 1796.916 1786.257 1797.275 1785.837 1797.663 1785.447 C 1797.683 1785.483 1797.713 1785.514 1797.75 1785.535 C 1797.806 1785.56 1797.826 1785.428 1797.804 1785.3 C 1799.852 1783.179 1803.304 1780.035 1802.36 1778.959 C 1802.413 1778.937 1802.46 1778.922 1802.513 1778.899 C 1802.813 1778.956 1802.836 1778.82 1802.793 1778.663 C 1802.928 1778.638 1803.003 1778.616 1802.993 1778.591 C 1802.868 1778.384 1802.725 1778.189 1802.564 1778.01 C 1802.617 1777.555 1801.884 1777.319 1801.693 1777.001 C 1801.762 1777.107 1801.81 1777.227 1801.835 1777.352 C 1801.67 1777.238 1801.498 1777.134 1801.32 1777.042 C 1801.628 1776.842 1801.22 1776.784 1800.976 1776.886 C 1800.635 1776.744 1800.282 1776.631 1799.923 1776.547 C 1800.052 1775.722 1799.715 1776.278 1799.751 1776.506 C 1797.921 1776.221 1796.066 1776.138 1794.219 1776.256 C 1794.166 1776.258 1794.114 1776.263 1794.062 1776.271 C 1793.834 1776.137 1793.63 1775.964 1793.462 1775.76 C 1793.416 1775.681 1793.425 1775.66 1793.453 1775.647 C 1793.19 1775.772 1792.916 1775.872 1792.635 1775.947 C 1792.644 1775.892 1792.644 1775.837 1792.635 1775.783 C 1792.617 1775.723 1792.557 1775.84 1792.529 1775.975 C 1791.169 1776.321 1789.229 1776.392 1789.408 1775.996 C 1789.045 1776.787 1788.786 1776.485 1788.85 1777.568 C 1788.574 1775.268 1788.884 1778.481 1788.603 1777.039 C 1788.619 1777.127 1788.679 1777.402 1788.742 1777.714 C 1787.363 1778.247 1786.676 1778.774 1788.277 1779 C 1788.436 1779.021 1788.716 1779.038 1789.083 1779.05 C 1789.055 1779.15 1789.046 1779.235 1789.101 1779.285 C 1789.112 1779.207 1789.119 1779.13 1789.123 1779.052 C 1790.634 1779.099 1793.623 1779.07 1796.442 1778.995 C 1796.319 1779.048 1796.246 1779.176 1796.261 1779.309 C 1796.232 1780.378 1796.63 1779.199 1796.69 1778.989 L 1797.666 1778.961 C 1797.735 1779.061 1797.81 1779.105 1797.886 1779.07 C 1797.962 1779.035 1798.023 1778.986 1798.093 1778.947 C 1798.375 1778.938 1798.651 1778.928 1798.92 1778.918 C 1798.845 1779.006 1798.804 1779.119 1798.805 1779.235 C 1798.759 1779.711 1799.034 1779.05 1799.034 1778.913 L 1799.534 1778.894 C 1799.274 1779.133 1799.211 1779.257 1799.234 1779.314 C 1797.778 1780.429 1796.408 1781.654 1795.138 1782.977 C 1795.126 1782.942 1795.101 1782.913 1795.069 1782.896 C 1794.937 1782.833 1794.855 1783.038 1794.928 1783.19 C 1793.387 1784.75 1791.94 1786.402 1790.596 1788.135 C 1790.431 1788.33 1790.409 1788.609 1790.54 1788.829 C 1790.467 1788.938 1790.425 1789.066 1790.421 1789.198 C 1791.055 1789.62 1791.77 1789.905 1792.521 1790.035 C 1793.459 1790.435 1793.264 1790.267 1792.964 1790.064 C 1793.205 1790.132 1793.459 1790.195 1793.722 1790.253 C 1793.797 1791.306 1795.312 1790.965 1796.142 1790.673 C 1796.542 1790.724 1796.949 1790.773 1797.359 1790.807 C 1797.284 1790.879 1797.248 1790.982 1797.259 1791.086 C 1797.291 1791.486 1797.572 1791.061 1797.641 1790.832 C 1798.371 1790.894 1799.106 1790.932 1799.823 1790.945 C 1799.717 1791.015 1799.623 1791.083 1799.57 1791.062 C 1799.662 1791.1 1799.827 1791.022 1799.97 1790.946 C 1800.651 1790.956 1801.312 1790.946 1801.927 1790.905 C 1804.115 1790.767 1805.738 1790.305 1805.734 1789.419 M 1800.334 1780.519 L 1800.259 1780.625 C 1800.275 1780.584 1800.301 1780.548 1800.334 1780.519 M 1801.622 1778.819 C 1801.631 1778.867 1801.624 1778.918 1801.603 1778.963 Z M 1799.73 1781.547 C 1799.758 1781.497 1799.787 1781.447 1799.815 1781.399 C 1800.015 1781.55 1799.868 1781.599 1799.73 1781.547 M 1800.23 1782.216 C 1799.669 1781.081 1801.036 1782.633 1800.23 1782.216 M 1800.562 1781.846 C 1799.851 1781.125 1800.492 1781.62 1800.53 1781.673 C 1800.603 1781.773 1800.615 1781.834 1800.562 1781.846 M 1800.995 1781.498 C 1801.045 1781.868 1799.486 1780.745 1800.995 1781.498 M 1790.654 1776.647 C 1790.64 1776.8 1790.614 1776.952 1790.575 1777.102 C 1790.494 1776.947 1790.537 1776.021 1790.654 1776.647 M 1790.416 1776.688 C 1790.422 1776.942 1790.422 1777.081 1790.416 1777.148 C 1790.387 1777.046 1790.371 1776.941 1790.368 1776.835 C 1790.375 1776.71 1790.391 1776.66 1790.414 1776.688 M 1789.406 1776.478 L 1789.324 1776.478 C 1789.343 1776.394 1789.462 1775.841 1789.406 1776.478 M 1790.152 1776.631 C 1790.265 1776.383 1790.352 1776.841 1790.372 1777.164 C 1790.335 1777.174 1790.3 1777.186 1790.263 1777.195 C 1790.232 1777.069 1790.195 1776.885 1790.151 1776.631 M 1799.53 1778.89 L 1799.863 1778.875 C 1799.803 1778.915 1799.74 1778.96 1799.677 1779.003 C 1799.642 1778.95 1799.59 1778.91 1799.53 1778.89 M 1794.625 1790.44 L 1794.961 1790.497 C 1794.684 1790.529 1794.587 1790.482 1794.625 1790.44" fill="#323f51" clip-path="url(#clip-path)" transform="matrix(1, 0, 0, 1, -9871.630454, 3399.969193)"/>
    <path id="Path_1343" data-name="Path 1343" d="M 1790.215 1790.046 C 1790.652 1790.334 1791.201 1790.396 1791.692 1790.215 C 1791.692 1790.215 1789.817 1789.435 1790.215 1790.046" fill="#323f51" clip-path="url(#clip-path)" transform="matrix(1, 0, 0, 1, -9871.630454, 3399.969193)"/>
    <path id="Path_1164" data-name="Path 1164" d="M 737.853 1938.055" fill="none" stroke="#323f51" stroke-width="4.5" transform="matrix(1, 0, 0, 1, -9871.630454, 3399.969193)"/>
    <g id="g-10" clip-path="url(#clip-1)" transform="matrix(1, 0, 0, 1, -7777.720298, 3836.967972)"/>
    <g id="Illustration_-_Min_fysiske_energi_-_Min_fysiske_aktivitet" data-name="Illustration - Min fysiske energi - Min fysiske aktivitet" clip-path="url(#clip-Illustration_-_Min_fysiske_energi_-_Min_fysiske_aktivitet)" transform="matrix(1, 0, 0, 1, -8072.32186, 3434.775101)"/>
    <g id="g-5" clip-path="url(#clip-3)" transform="matrix(1, 0, 0, 1, -3345.646079, 2404.029984)"/>
    <g id="g-6" data-name="Illustration - Min fysiske energi - Min fysiske aktivitet" clip-path="url(#clip-4)" transform="matrix(1, 0, 0, 1, -3640.247641, 2001.837235)"/>
    <path id="Path_605" data-name="Path 605" d="M -10177.359 4045.966 C -10178.714 4047.985 -10180.126 4049.981 -10181.515 4051.98 C -10183.188 4054.29 -10183.081 4057.228 -10181.242 4059.445 C -10178.372 4062.827 -10169.158 4065.471 -10166.154 4066.185 C -10157.172 4068.326 -10156.9 4060.697 -10154.498 4057.123" fill="none" stroke="#323f51" stroke-linecap="round" stroke-miterlimit="10" stroke-width="5" style="" transform="matrix(0.86602, -0.50001, 0.50001, 0.86602, -3390.562497, -4540.940287)"/>
    <path id="Path_606" data-name="Path 606" d="M -10233.38 4049.859 C -10234.736 4051.878 -10236.147 4053.875 -10237.536 4055.874 C -10239.211 4058.184 -10239.101 4061.124 -10237.26 4063.338 C -10234.39 4066.72 -10225.178 4069.365 -10222.175 4070.078 C -10213.193 4072.219 -10212.917 4064.59 -10210.518 4061.016" fill="none" stroke="#323f51" stroke-linecap="round" stroke-miterlimit="10" stroke-width="5" style="" transform="matrix(0.86602, -0.50001, 0.50001, 0.86602, -3400.01459, -4568.42953)"/>
  </g>
  <g id="g-7" data-name="Group 761" transform="matrix(1, 0, 0, 1, 2107.922283, -3497.500682)">
    <g id="Group_687" data-name="Group 687" transform="matrix(2.80681, 2.060863, -1.926214, 2.623424, -632.122681, 3418.131592)" style="">
      <path id="Path_442" data-name="Path 442" d="M17.54,0h0c12.1,0,21.91,9.071,21.91,20.261S35.725,36.915,14.71,40.521h0C2.609,40.521,0,16.633,0,16.633S5.439,0,17.54,0Z" transform="translate(35.509 15.451) rotate(31)" style="fill: rgb(231, 158, 23);"/>
      <rect id="Rectangle_157" data-name="Rectangle 157" width="23.826" height="3.665" rx="1.833" transform="matrix(0.799, 0.602, -0.602, 0.799, 5.916, 10.623)" style="fill: rgb(231, 158, 23);"/>
      <rect id="Rectangle_160" data-name="Rectangle 160" width="26.88" height="4.887" rx="2.444" transform="matrix(0.799, 0.602, -0.602, 0.799, 60.291, 56.436)" style="fill: rgb(231, 158, 23);"/>
      <rect id="Rectangle_161" data-name="Rectangle 161" width="21.382" height="3.665" rx="1.833" transform="matrix(0.259, 0.966, -0.966, 0.259, 48.928, 66.007)" style="fill: rgb(231, 158, 23);"/>
      <rect id="Rectangle_162" data-name="Rectangle 162" width="21.382" height="3.665" rx="1.833" transform="matrix(-0.225, 0.974, -0.974, -0.225, 57.17, 0.825)" style="fill: rgb(231, 158, 23);"/>
      <rect id="Rectangle_158" data-name="Rectangle 158" width="26.88" height="3.665" rx="1.833" transform="matrix(0.819, -0.574, 0.574, 0.819, 0, 73.481)" style="fill: rgb(231, 158, 23);"/>
      <rect id="Rectangle_159" data-name="Rectangle 159" width="26.269" height="3.665" rx="1.833" transform="matrix(0.819, -0.574, 0.574, 0.819, 59.915, 30.565)" style="fill: rgb(231, 158, 23);"/>
    </g>
  </g>
  <path id="path-13" data-name="Path 1341" d="M 1779.581 1798.383 C 1781.36 1797.551 1786.605 1795.094 1786.254 1792.474 C 1786.371 1792.359 1786.497 1792.252 1786.63 1792.155 C 1785.889 1792.079 1786.338 1791.519 1786.724 1792.07 C 1786.533 1791.533 1786.402 1790.977 1786.332 1790.412 C 1783.701 1790.565 1771.145 1788.036 1771.994 1790.48 C 1771.374 1789.464 1771.104 1790.327 1770.994 1790.424 C 1771.167 1790.647 1771.359 1790.856 1771.567 1791.048 C 1770.09 1791.87 1769.309 1792.914 1771.684 1793.228 C 1774.338 1793.579 1777.128 1793.859 1779.889 1794.047 C 1778.917 1794.917 1777.833 1795.653 1776.666 1796.236 C 1776.534 1796.298 1776.408 1796.359 1776.277 1796.421 C 1776.753 1795.95 1777.142 1795.459 1776.409 1795.721 C 1776.149 1796.007 1775.931 1796.328 1775.76 1796.675 C 1773.276 1797.936 1771.501 1799.436 1772.075 1800.596 C 1772.138 1801.47 1772.985 1801.702 1773.828 1801.804 L 1773.76 1801.836 C 1773.741 1801.846 1773.806 1801.814 1773.828 1801.804 C 1773.85 1801.82 1773.815 1801.823 1773.76 1801.836 C 1773.66 1801.884 1773.92 1801.992 1773.989 1802.006 C 1774.07 1801.916 1774.089 1801.864 1774.076 1801.831 L 1774.27 1801.85 C 1774.885 1802.007 1775.509 1802.124 1776.139 1802.201 C 1776.756 1802.279 1778.41 1802.547 1780.273 1802.701 C 1780.332 1802.92 1780.402 1803.078 1780.487 1802.977 C 1780.459 1803.011 1780.477 1802.887 1780.508 1802.722 C 1781.064 1802.763 1781.634 1802.791 1782.201 1802.804 C 1781.995 1802.926 1781.614 1803.02 1781.75 1803.104 C 1781.97 1803.06 1782.174 1802.956 1782.339 1802.804 C 1782.401 1802.804 1782.464 1802.81 1782.527 1802.81 C 1782.639 1802.951 1782.944 1802.957 1783.486 1802.795 C 1785.734 1802.704 1787.603 1802.186 1787.603 1800.681 C 1787.603 1798.743 1783.411 1798.402 1779.583 1798.381 M 1777.492 1789.875 C 1777.457 1789.935 1777.415 1789.992 1777.369 1790.045 L 1777.156 1790.045 C 1777.14 1789.801 1777.312 1789.345 1777.492 1789.876 M 1776.63 1789.96 C 1776.674 1789.838 1776.73 1789.794 1776.787 1789.828 C 1776.777 1789.919 1776.768 1789.978 1776.759 1790.041 L 1776.629 1790.041 C 1776.629 1790.004 1776.629 1789.962 1776.629 1789.962 M 1776.266 1790.036 L 1776.146 1790.036 C 1776.121 1789.98 1776.087 1789.889 1776.056 1789.8 C 1776.056 1789.8 1776.04 1789.766 1776.012 1789.687 C 1776.129 1789.615 1776.226 1789.853 1776.266 1790.039 M 1772.394 1790.576 C 1772.394 1790.576 1772.494 1790.563 1772.583 1790.56 C 1772.526 1790.595 1772.456 1790.601 1772.394 1790.576" fill="#323f51" clip-path="url(#clip-2)" transform="matrix(1, 0, 0, 1, 4624.306683, -661.068126)"/>
  <path id="path-14" data-name="Path 1342" d="M 1805.735 1789.42 C 1805.728 1787.826 1799.79 1787.56 1795.603 1787.52 C 1795.792 1787.331 1795.982 1787.131 1796.171 1786.911 C 1796.305 1786.867 1796.434 1786.81 1796.557 1786.742 C 1796.522 1786.683 1796.49 1786.622 1796.463 1786.56 C 1796.491 1786.526 1796.517 1786.497 1796.544 1786.46 C 1796.565 1786.539 1796.581 1786.62 1796.592 1786.702 C 1796.916 1786.257 1797.275 1785.837 1797.663 1785.447 C 1797.683 1785.483 1797.713 1785.514 1797.75 1785.535 C 1797.806 1785.56 1797.826 1785.428 1797.804 1785.3 C 1799.852 1783.179 1803.304 1780.035 1802.36 1778.959 C 1802.413 1778.937 1802.46 1778.922 1802.513 1778.899 C 1802.813 1778.956 1802.836 1778.82 1802.793 1778.663 C 1802.928 1778.638 1803.003 1778.616 1802.993 1778.591 C 1802.868 1778.384 1802.725 1778.189 1802.564 1778.01 C 1802.617 1777.555 1801.884 1777.319 1801.693 1777.001 C 1801.762 1777.107 1801.81 1777.227 1801.835 1777.352 C 1801.67 1777.238 1801.498 1777.134 1801.32 1777.042 C 1801.628 1776.842 1801.22 1776.784 1800.976 1776.886 C 1800.635 1776.744 1800.282 1776.631 1799.923 1776.547 C 1800.052 1775.722 1799.715 1776.278 1799.751 1776.506 C 1797.921 1776.221 1796.066 1776.138 1794.219 1776.256 C 1794.166 1776.258 1794.114 1776.263 1794.062 1776.271 C 1793.834 1776.137 1793.63 1775.964 1793.462 1775.76 C 1793.416 1775.681 1793.425 1775.66 1793.453 1775.647 C 1793.19 1775.772 1792.916 1775.872 1792.635 1775.947 C 1792.644 1775.892 1792.644 1775.837 1792.635 1775.783 C 1792.617 1775.723 1792.557 1775.84 1792.529 1775.975 C 1791.169 1776.321 1789.229 1776.392 1789.408 1775.996 C 1789.045 1776.787 1788.786 1776.485 1788.85 1777.568 C 1788.574 1775.268 1788.884 1778.481 1788.603 1777.039 C 1788.619 1777.127 1788.679 1777.402 1788.742 1777.714 C 1787.363 1778.247 1786.676 1778.774 1788.277 1779 C 1788.436 1779.021 1788.716 1779.038 1789.083 1779.05 C 1789.055 1779.15 1789.046 1779.235 1789.101 1779.285 C 1789.112 1779.207 1789.119 1779.13 1789.123 1779.052 C 1790.634 1779.099 1793.623 1779.07 1796.442 1778.995 C 1796.319 1779.048 1796.246 1779.176 1796.261 1779.309 C 1796.232 1780.378 1796.63 1779.199 1796.69 1778.989 L 1797.666 1778.961 C 1797.735 1779.061 1797.81 1779.105 1797.886 1779.07 C 1797.962 1779.035 1798.023 1778.986 1798.093 1778.947 C 1798.375 1778.938 1798.651 1778.928 1798.92 1778.918 C 1798.845 1779.006 1798.804 1779.119 1798.805 1779.235 C 1798.759 1779.711 1799.034 1779.05 1799.034 1778.913 L 1799.534 1778.894 C 1799.274 1779.133 1799.211 1779.257 1799.234 1779.314 C 1797.778 1780.429 1796.408 1781.654 1795.138 1782.977 C 1795.126 1782.942 1795.101 1782.913 1795.069 1782.896 C 1794.937 1782.833 1794.855 1783.038 1794.928 1783.19 C 1793.387 1784.75 1791.94 1786.402 1790.596 1788.135 C 1790.431 1788.33 1790.409 1788.609 1790.54 1788.829 C 1790.467 1788.938 1790.425 1789.066 1790.421 1789.198 C 1791.055 1789.62 1791.77 1789.905 1792.521 1790.035 C 1793.459 1790.435 1793.264 1790.267 1792.964 1790.064 C 1793.205 1790.132 1793.459 1790.195 1793.722 1790.253 C 1793.797 1791.306 1795.312 1790.965 1796.142 1790.673 C 1796.542 1790.724 1796.949 1790.773 1797.359 1790.807 C 1797.284 1790.879 1797.248 1790.982 1797.259 1791.086 C 1797.291 1791.486 1797.572 1791.061 1797.641 1790.832 C 1798.371 1790.894 1799.106 1790.932 1799.823 1790.945 C 1799.717 1791.015 1799.623 1791.083 1799.57 1791.062 C 1799.662 1791.1 1799.827 1791.022 1799.97 1790.946 C 1800.651 1790.956 1801.312 1790.946 1801.927 1790.905 C 1804.115 1790.767 1805.738 1790.305 1805.734 1789.419 M 1800.334 1780.519 L 1800.259 1780.625 C 1800.275 1780.584 1800.301 1780.548 1800.334 1780.519 M 1801.622 1778.819 C 1801.631 1778.867 1801.624 1778.918 1801.603 1778.963 Z M 1799.73 1781.547 C 1799.758 1781.497 1799.787 1781.447 1799.815 1781.399 C 1800.015 1781.55 1799.868 1781.599 1799.73 1781.547 M 1800.23 1782.216 C 1799.669 1781.081 1801.036 1782.633 1800.23 1782.216 M 1800.562 1781.846 C 1799.851 1781.125 1800.492 1781.62 1800.53 1781.673 C 1800.603 1781.773 1800.615 1781.834 1800.562 1781.846 M 1800.995 1781.498 C 1801.045 1781.868 1799.486 1780.745 1800.995 1781.498 M 1790.654 1776.647 C 1790.64 1776.8 1790.614 1776.952 1790.575 1777.102 C 1790.494 1776.947 1790.537 1776.021 1790.654 1776.647 M 1790.416 1776.688 C 1790.422 1776.942 1790.422 1777.081 1790.416 1777.148 C 1790.387 1777.046 1790.371 1776.941 1790.368 1776.835 C 1790.375 1776.71 1790.391 1776.66 1790.414 1776.688 M 1789.406 1776.478 L 1789.324 1776.478 C 1789.343 1776.394 1789.462 1775.841 1789.406 1776.478 M 1790.152 1776.631 C 1790.265 1776.383 1790.352 1776.841 1790.372 1777.164 C 1790.335 1777.174 1790.3 1777.186 1790.263 1777.195 C 1790.232 1777.069 1790.195 1776.885 1790.151 1776.631 M 1799.53 1778.89 L 1799.863 1778.875 C 1799.803 1778.915 1799.74 1778.96 1799.677 1779.003 C 1799.642 1778.95 1799.59 1778.91 1799.53 1778.89 M 1794.625 1790.44 L 1794.961 1790.497 C 1794.684 1790.529 1794.587 1790.482 1794.625 1790.44" fill="#323f51" clip-path="url(#clip-2)" transform="matrix(1, 0, 0, 1, 4624.306683, -661.068126)"/>
  <path id="path-15" data-name="Path 1343" d="M 1790.215 1790.046 C 1790.652 1790.334 1791.201 1790.396 1791.692 1790.215 C 1791.692 1790.215 1789.817 1789.435 1790.215 1790.046" fill="#323f51" clip-path="url(#clip-2)" transform="matrix(1, 0, 0, 1, 4624.306683, -661.068126)"/>
  <path id="path-16" data-name="Path 1164" d="M 737.853 1938.055" fill="none" stroke="#323f51" stroke-width="4.5" transform="matrix(1, 0, 0, 1, 4624.306683, -661.068126)"/>
  <g id="g-9" clip-path="url(#clip-5)" transform="matrix(1, 0, 0, 1, 6718.216473, -224.069355)"/>
  <g id="g-11" data-name="Illustration - Min fysiske energi - Min fysiske aktivitet" clip-path="url(#clip-6)" transform="matrix(1, 0, 0, 1, 6423.615399, -626.262127)"/>
  <g id="g-12" clip-path="url(#clip-7)" transform="matrix(1, 0, 0, 1, 11150.290936, -1657.007152)"/>
  <g id="g-13" data-name="Illustration - Min fysiske energi - Min fysiske aktivitet" clip-path="url(#clip-8)" transform="matrix(1, 0, 0, 1, 10855.689373, -2059.200023)"/>
  <g id="Illustration_-_Min_fysiske_energi_-_Min_kost" data-name="Illustration - Min fysiske energi - Min kost" clip-path="url(#clip-Illustration_-_Min_fysiske_energi_-_Min_kost)" transform="matrix(1.779532, 0, 0, 1.746258, 3640.272949, 1587.230957)" style="">
    <path id="Path_482" data-name="Path 482" d="M 256.771 8.444 L 289.264 8.444 C 428.925 8.444 488.949 105.87 515.146 250.78 C 541.344 395.691 436.753 518.355 297.091 518.355 L 264.597 518.355 C 124.935 518.356 -2.026 394.166 27.009 273.599 C 54.895 157.802 121.876 10.697 256.771 8.444 Z" fill="#fff" transform="matrix(-0.886776, 0.471006, -0.453557, -0.886776, 630.797936, 369.329482)"/>
    <g id="Group_251" data-name="Group 251" transform="matrix(0.766473, 0, 0, 0.805056, -435.533142, -130.336456)" style="">
      <path id="Path_307" data-name="Path 307" d="M1107.888,610.965a4.813,4.813,0,0,1-.546-1.6c.236-5.8-.5-11.562-.732-17.341-.04-.989-.266-2.084.711-2.845,6.508,4.439,12.793,9.214,19.636,13.151,5.058,2.909,10.232,5.576,15.964,6.934,4.3,1.019,5.226.3,5.507-4.2.412-6.576-.777-12.961-2.392-19.276-5.339-20.877-13.758-40.6-22.493-60.219-4.465-10.025-9.6-19.694-15-29.232a10.01,10.01,0,0,1-.578-1.576c.335-1.631,1.883-1.774,3-2.426,3.866-2.253,8.146-3.791,11.621-6.722a1.743,1.743,0,0,1,1.237,1.06c15.74,30.951,30.672,62.244,39.377,96.065,2.37,9.209,3.636,18.613,1.782,28.116-2.288,11.742-12.009,18.064-23.894,15.827-10.091-1.9-18.832-6.772-27.385-12.1Q1110.8,612.764,1107.888,610.965Z" transform="translate(69.738 13.918)" fill="#6daab5"/>
      <path id="Path_308" data-name="Path 308" d="M973.411,571.839c1.07,3.744-.6,7.283-1.044,10.87-.965,7.832-2.142,15.631-2.525,23.526a33.091,33.091,0,0,1-.667,3.993c-3.559,3.695-7,7.515-10.711,11.049-3.6,3.431-7.81,6.039-12.854,6.732-7.829,1.075-14.048-2.15-18.061-9.084-4.887-8.446-6.12-17.866-6.994-27.295-1.482-15.96-1.011-31.963.029-47.921,1.013-15.573,2.206-31.145,4.639-46.583a7.707,7.707,0,0,1,.59-1.532c3.143.472,6.33.754,9.414,1.476,2.536.593,5.474-.382,7.605,1.845a503.694,503.694,0,0,0-5.454,59.506c-.523,14.645-.24,29.172,2.294,43.612.531,3.022.851,7.324,3.375,8.167,2.686.9,5.147-2.714,7.2-4.925,9-9.688,15.727-20.98,22.423-32.282C972.906,572.6,973.164,572.224,973.411,571.839Z" transform="translate(0 17.642)" fill="#6daab5"/>
      <path id="Path_309" data-name="Path 309" d="M1003.251,658.5l17.265,2.782q-.012,34.514-.026,69.03l-17.37.044q.037-32.164.077-64.33C1003.2,663.517,1003.232,661.009,1003.251,658.5Z" transform="translate(31.151 78.413)" fill="#6daab5"/>
      <path id="Path_310" data-name="Path 310" d="M1049.532,662.608a115.5,115.5,0,0,0,17.5-2.1q.006,34.549.014,69.1l-17.9.058q.07-26.183.151-52.368C1049.315,672.4,1049.449,667.5,1049.532,662.608Z" transform="translate(48.32 79.162)" fill="#6daab5"/>
      <path id="Path_311" data-name="Path 311" d="M1051.381,710.891l17.9-.058c7.532.033,15.066.036,22.6.11,5.642.055,9.485,3.514,9.562,8.491.08,5.112-3.812,8.738-9.624,8.761q-19.521.078-39.043.012c-5.327-.01-9.1-3.114-9.578-7.771C1042.7,715.628,1045.888,711.908,1051.381,710.891Z" transform="translate(46.082 97.936)" fill="#4c5d71"/>
      <path id="Path_312" data-name="Path 312" d="M1011.69,710.845l17.37-.044c6.03.8,8.822,3.589,8.82,8.812,0,4.979-3.232,8.54-8.2,8.575q-20.569.142-41.139.008c-5.2-.03-8.422-3.516-8.4-8.7.022-5.135,3.291-8.465,8.583-8.533C996.38,710.861,1004.036,710.878,1011.69,710.845Z" transform="translate(22.579 97.924)" fill="#4c5d71"/>
      <path id="Path_313" data-name="Path 313" d="M1126.522,492.725c-3.475,2.931-7.755,4.469-11.621,6.722-1.119.652-2.666.8-3,2.426-4.129-7.372-9.124-14.177-13.894-21.127-2.189-3.191-2.729-6.51-.792-9.953,1.889-3.354,4.961-4.5,8.676-4.2a7.38,7.38,0,0,1,5.745,3.3C1116.7,477.432,1122.382,484.576,1126.522,492.725Z" transform="translate(65.807 6.806)" fill="#4c5d71"/>
      <path id="Path_314" data-name="Path 314" d="M941.148,506.138c-2.131-2.227-5.069-1.252-7.605-1.845-3.084-.722-6.271-1-9.414-1.476a130.562,130.562,0,0,1,4.784-20.6,8.258,8.258,0,0,1,10.3-5.656c4.887,1.387,7.388,5.691,6.232,10.971-.8,3.659-1.821,7.27-2.676,10.918C942.168,501,941.683,503.574,941.148,506.138Z" transform="translate(1.684 10.42)" fill="#4c5d71"/>
      <path id="Path_315" data-name="Path 315" d="M1164.3,624.884a4.813,4.813,0,0,1-.546-1.6c.236-5.8-.5-11.562-.732-17.341-.04-.989-.266-2.084.711-2.845a6.212,6.212,0,0,1-.831-2.555c-1.135-5.393-.562-10.891-1.087-16.338-1.579-16.33-3.824-32.51-8.414-48.294-6.481-22.283-17.105-42.15-33.955-58.44-8.135-7.866-17.6-13.626-27.742-18.425a11.82,11.82,0,0,1-5.48-2.072,61.431,61.431,0,0,1-12.669-5.378q-2.966-1.067-5.93-2.135c-5.952-2.031-11.86-.972-17.865-.059-7.5,1.141-14.792,2.914-21.391,6.639-16.368,9.243-27.395,23.545-36.224,39.658-12.353,22.548-20.388,46.748-26.73,71.577-1.885,7.379-2.629,15.025-5.33,22.2,1.07,3.744-.6,7.283-1.044,10.87-.965,7.832-2.142,15.631-2.525,23.526a33.357,33.357,0,0,1-.667,3.993c.147,5.6-.574,11.186-.524,16.761.119,13.222.052,26.475,1.907,39.619,1.725,12.215,6.926,22.523,16.476,30.59,9.6,8.111,20.737,13.233,32.463,17.27,4.935,1.7,9.934,3.207,14.9,4.8l17.265,2.782c15.329,2.2,30.744,2.408,46.185,2.075a115.485,115.485,0,0,0,17.5-2.1,86.737,86.737,0,0,0,29.847-10.537c21.628-12.669,33.778-31.046,33.921-56.686C1165.881,656.567,1164.226,640.755,1164.3,624.884Zm-134.135-100c.03-2.855,2.017-4.744,5.024-4.78s4.976,1.878,4.922,4.759c-.054,2.9-1.826,4.81-4.56,4.911A5.055,5.055,0,0,1,1030.169,524.888Zm42.169,4.911c-3.043-.018-4.749-1.8-4.729-4.94a4.772,4.772,0,0,1,4.811-5.028,4.9,4.9,0,0,1,4.825,5.1A4.6,4.6,0,0,1,1072.338,529.8Z" transform="translate(13.322 0)" fill="#7abdcd"/>
      <path id="Path_316" data-name="Path 316" d="M1018.3,538.968a29.353,29.353,0,0,1-8.518-5.614c-1.258-1.159-1.823-2.459-.573-3.857,1.2-1.339,2.423-.71,3.551.306,8.807,7.935,18.511,8.349,28.846,3.415.515-.246,1.042-.466,1.549-.725,1.276-.651,2.5-.693,3.246.687a2.3,2.3,0,0,1-1.134,3.417C1036.6,541.079,1027.687,542.8,1018.3,538.968Z" transform="translate(33.159 30.004)" fill="#516075"/>
      <path id="Path_317" data-name="Path 317" d="M1019.882,500.6c5.994-.069,9.951,3.756,9.844,9.518-.107,5.8-3.652,9.619-9.122,9.822-5.882.22-10.827-4.273-10.769-9.781C1009.9,504.449,1013.869,500.671,1019.882,500.6Z" transform="translate(23.656 14.509)" fill="#516075"/>
      <path id="Path_318" data-name="Path 318" d="M1017.758,504.122a3.852,3.852,0,0,1,4.215,4.075,3.932,3.932,0,0,1-3.9,4.2,4.322,4.322,0,0,1-4.61-4.188A4,4,0,0,1,1017.758,504.122Z" transform="translate(29.982 20.66)" fill="#83baca" opacity="0.9"/>
      <path id="Path_319" data-name="Path 319" d="M1046.778,500.4a9.855,9.855,0,0,1,9.7,10.258c-.047,5.953-3.951,9.824-9.868,9.788-6.118-.036-9.551-3.623-9.509-9.935C1037.145,504.627,1041.176,500.411,1046.778,500.4Z" transform="translate(42.957 14.395)" fill="#516075"/>
      <path id="Path_320" data-name="Path 320" d="M1044.552,504.122a3.87,3.87,0,0,1,4.239,4.1,3.952,3.952,0,0,1-3.927,4.227,4.35,4.35,0,0,1-4.636-4.211A4.027,4.027,0,0,1,1044.552,504.122Z" transform="translate(48.461 20.954)" fill="#83baca"/>
    </g>
    <g id="Group_249" data-name="Group 249" transform="matrix(0.674867, -0.232375, 0.266103, 0.772819, 162.831268, 69.878883)" style="">
      <path id="Path_304" data-name="Path 304" d="M119.819,162.575a19.608,19.608,0,0,0-11.929-.4c.229-.245.485-.456.7-.718a21.057,21.057,0,0,0,3.6-19.3,1.241,1.241,0,0,0-.166-.288,1.084,1.084,0,0,0-1.222-1.066A25.13,25.13,0,0,0,89.2,158.124a36.851,36.851,0,0,0-12.571-16.939,1.012,1.012,0,0,0-1.09-.134,1.08,1.08,0,0,0-.11.061,1.108,1.108,0,0,0-.214.16,1.126,1.126,0,0,0-.156.115c-2.02,2.267-3.071,5.648-3.841,8.514a1.164,1.164,0,0,0,.27,1.138,1.23,1.23,0,0,0,.636.458A21.668,21.668,0,0,1,86.7,166.518c-8-1.334-14.816-6.387-23.473-5.31-8.351,1.038-14.851,6.8-18.319,14.3-8.946,19.335,1.371,42.535,13.99,57.757,6.61,7.971,12.751,7.1,21.8,4.1,6.56-2.178,11.012-.921,17.393.681,3.539.889,7.514,1.815,11.18,1.235,8.79-1.386,14.46-12.07,17.624-19.37,4.657-10.75,8.254-21.788,7.91-33.635C134.518,176.453,129.463,166.237,119.819,162.575Zm-9.95-19.05c1.616,5.667.231,12.788-3.948,17.055-3.855,3.937-9.79,5.265-15.145,6.037a1.226,1.226,0,0,0,.045-.34C90,155.165,98.831,144.934,109.869,143.524ZM74.03,149.459a18.735,18.735,0,0,1,2.211-5.306c4.871,3.948,9.379,10.237,10.981,16.64A24.347,24.347,0,0,0,74.03,149.459Zm41.049,83.82c-8.619,8.051-18.215-.51-27.861-.11-4.614.192-8.678,2.607-13.077,3.7-7.867,1.958-12.5-3.725-16.419-9.658C51.111,217.191,45,206.333,44.215,194.1c-.781-12.26,4.557-27.624,18.139-30.137,9.733-1.8,17.181,4.7,26.43,5.4a1.187,1.187,0,0,0,.556.05,28.3,28.3,0,0,0,7.832-1.423,32.441,32.441,0,0,0,3.614-1.187c5.481-1.89,10.917-3.859,16.618-2.3,15.487,4.229,16.406,23.492,13.473,36.356C128.364,211.885,123.513,225.4,115.079,233.279Z" transform="translate(0 0)" fill="#516075" stroke="#516075" stroke-width="1"/>
      <path id="Path_305" data-name="Path 305" d="M59.823,157.388c-8.751,3.6-13.171,14.631-11.7,23.525.273,1.642,2.771.945,2.5-.688-1.214-7.335,2.557-17.319,9.889-20.337C62.032,159.263,61.366,156.754,59.823,157.388Z" transform="translate(5.427 14.174)" fill="#516075" stroke="#516075" stroke-width="1"/>
      <path id="Path_306" data-name="Path 306" d="M49.5,172.871a1.3,1.3,0,0,0,0,2.591A1.3,1.3,0,0,0,49.5,172.871Z" transform="translate(5.774 27.574)" fill="#516075" stroke="#516075" stroke-width="1"/>
    </g>
    <g id="Group_250" data-name="Group 250" transform="matrix(0.747727, 0, 0, 0.721586, -317.531311, 74.046188)" style="">
      <path id="Path_346" data-name="Path 346" d="M959.7,54.336c-4.189,27.088-8.375,53.7-12.352,80.349-.631,4.224-2.161,5.764-6.637,5.531-8.4-.438-16.837-.13-25.259-.187-1.5-.011-3.339.508-4.136-1.449-.713-1.751.384-3,1.4-4.256a22.5,22.5,0,0,0,5.181-13.535c.073-2,1.206-3.157,2.249-4.531,4.711-6.2,4.715-13.236-.245-19.191a8.789,8.789,0,0,1-2.074-5.074c-1.183-10.87-6.14-19.706-15.342-25.653-4.434-2.865-3.14-7.241-4.136-11.008-.336-1.269,1.315-.971,2.123-.971C920.01,54.33,939.542,54.336,959.7,54.336Z" transform="translate(37.159 20.333)" fill="none" stroke="#516075" stroke-miterlimit="10" stroke-width="3"/>
      <path id="Path_347" data-name="Path 347" d="M900.274,86.722c-11.91,0-23.822-.138-35.728.076-4.019.075-4.409-1.047-3.279-4.642,4-12.73,12.975-20.267,26.243-21.194a182.866,182.866,0,0,1,27.13,0c12.7,1,22.148,9.242,25.584,21.422.954,3.379.422,4.462-3.27,4.407C924.73,86.608,912.5,86.722,900.274,86.722Zm-1.665-17.643a2.484,2.484,0,0,0-2.517-2.437,2.357,2.357,0,0,0-2.635,2.622,2.3,2.3,0,0,0,2.425,2.364A2.732,2.732,0,0,0,898.609,69.079ZM889.6,80.288a2.482,2.482,0,0,0-2.735-2.509,2.314,2.314,0,0,0-2.332,2.452,2.642,2.642,0,0,0,2.767,2.591C888.757,82.845,889.392,81.687,889.6,80.288Zm29.661-3.19c-1.5-.055-2.484.548-2.441,2.163a2.532,2.532,0,0,0,2.721,2.67,2.35,2.35,0,0,0,2.2-2.624C921.749,77.692,920.74,77.117,919.263,77.1ZM881,69.432c-.245-1.372-.986-2.507-2.427-2.288a2.8,2.8,0,0,0-2.62,2.783,2.34,2.34,0,0,0,2.521,2.251C880.1,72.171,880.958,71.091,881,69.432Zm30.717-4.994c-1.267.369-2.469.984-2.328,2.475a2.7,2.7,0,0,0,2.737,2.635c1.659-.046,2.389-1.407,2.234-2.958C914.213,65.146,913.084,64.567,911.716,64.439Zm-5.473,14.836a2.576,2.576,0,0,0-2.626-2.368,2.291,2.291,0,0,0-2.547,2.681,2.4,2.4,0,0,0,2.463,2.395C905.1,81.88,905.891,80.655,906.242,79.275Z" transform="translate(2.908 25.917)" fill="none" stroke="#516075" stroke-miterlimit="10" stroke-width="2"/>
      <path id="Path_348" data-name="Path 348" d="M903.82,95.6c-11.761,0-23.522.071-35.283-.029-6.662-.057-10.416-3.012-10.949-8.233-.463-4.541,1.6-7.7,5.613-9.514,4.264-1.926,8.16-.845,10.995,2.76,5.607,7.125,5.728,7.22,11.245.22a9.4,9.4,0,0,1,8.135-3.759c14.939.05,29.879-.027,44.818.01,7.149.017,11.34,3.568,11.281,9.366-.059,5.76-4.229,9.114-11.528,9.141-11.442.04-22.886.01-34.327.01Z" transform="translate(0 40.884)" fill="#516075"/>
      <path id="Path_349" data-name="Path 349" d="M900.661,89.494c12.09,0,24.181.134,36.267-.073,4.134-.071,4.52,1.357,3.234,4.764a19.662,19.662,0,0,1-18.293,12.942q-21,.221-42,0a20.215,20.215,0,0,1-18.689-13.794c-1-2.949-.558-3.929,2.731-3.893C876.163,89.578,888.411,89.5,900.661,89.494Z" transform="translate(2.905 52.303)" fill="none" stroke="#516075" stroke-miterlimit="10" stroke-width="2"/>
      <path id="Path_350" data-name="Path 350" d="M945.814,61.291c7.5,0,14.479.019,21.462-.01,2.513-.011,5.1.134,5.4,3.279.334,3.436-2.2,3.939-4.913,3.979-5.217.078-10.433.26-15.65.271q-25.728.052-51.457,0c-1.558,0-3.281.449-4.6-.69-1.139-.986-2.769-1.848-2.29-3.811.451-1.842,1.418-3.127,3.593-3.106,3.8.034,7.6-.019,11.4-.04,8.883-.05,17.768-.166,26.65-.111a3.4,3.4,0,0,0,3.677-2.978c2.668-12.281,11.016-18.918,22.265-22.79a29.165,29.165,0,0,0,3.826-1.894c2.322-1.206,4.992-2.635,6.484.613,1.43,3.107-1.252,4.436-3.608,5.619-2.97,1.494-5.764,3.509-8.887,4.5C950.963,46.747,948.316,53.448,945.814,61.291Z" transform="translate(32.945)" fill="#516075"/>
      <path id="Path_351" data-name="Path 351" d="M883,66.132a2.732,2.732,0,0,1-2.727,2.549,2.3,2.3,0,0,1-2.425-2.364,2.357,2.357,0,0,1,2.635-2.622A2.484,2.484,0,0,1,883,66.132Z" transform="translate(18.516 28.863)" fill="#516075"/>
      <path id="Path_352" data-name="Path 352" d="M878.248,72.033c-.21,1.4-.845,2.557-2.3,2.534a2.642,2.642,0,0,1-2.767-2.591,2.314,2.314,0,0,1,2.332-2.452A2.482,2.482,0,0,1,878.248,72.033Z" transform="translate(14.262 34.171)" fill="#516075"/>
      <path id="Path_353" data-name="Path 353" d="M892.521,69.168c1.472.017,2.481.592,2.479,2.207A2.35,2.35,0,0,1,892.8,74a2.532,2.532,0,0,1-2.721-2.67C890.031,69.714,891.017,69.11,892.521,69.168Z" transform="translate(29.656 33.849)" fill="#516075"/>
      <path id="Path_354" data-name="Path 354" d="M873.734,66.256c-.038,1.661-.9,2.741-2.525,2.748a2.34,2.34,0,0,1-2.521-2.251,2.8,2.8,0,0,1,2.62-2.783C872.75,63.75,873.491,64.885,873.734,66.256Z" transform="translate(10.171 29.091)" fill="#516075"/>
      <path id="Path_355" data-name="Path 355" d="M888.523,62.54c1.363.13,2.492.709,2.637,2.154.155,1.552-.575,2.913-2.234,2.958a2.7,2.7,0,0,1-2.737-2.635C886.048,63.526,887.25,62.911,888.523,62.54Z" transform="translate(26.107 27.813)" fill="#516075"/>
      <path id="Path_356" data-name="Path 356" d="M887.013,71.433c-.352,1.38-1.141,2.6-2.71,2.708a2.4,2.4,0,0,1-2.463-2.395,2.291,2.291,0,0,1,2.547-2.681A2.576,2.576,0,0,1,887.013,71.433Z" transform="translate(22.137 33.758)" fill="#516075"/>
    </g>
  </g>
  <g id="Illustration_-_Min_fysiske_energi_-_Min_søvn" data-name="Illustration - Min fysiske energi - Min søvn" clip-path="url(#clip-Illustration_-_Min_fysiske_energi_-_Min_søvn)" transform="matrix(1.604247, 0, 0, 1.446517, 1803.185303, 1654.50061)" style=""/>
  <g id="Group_1057" data-name="Group 1057" transform="matrix(1, 0, 0, 1, 8565.210938, 8151.633301)">
    <path id="Path_1346" data-name="Path 1346" d="M -1866.228 -9003.662 L -1839.318 -9003.662 C -1723.653 -9003.662 -1684.69 -8905.8 -1739.494 -8807.939 C -1740.645 -8805.884 -1752.576 -8717.857 -1753.788 -8715.836 C -1811.261 -8620.041 -1945.299 -8612.215 -2058.535 -8612.215 L -2085.447 -8612.215 C -2201.113 -8612.216 -2245.804 -8699.845 -2185.269 -8807.939 C -2124.734 -8916.033 -1981.894 -9003.662 -1866.228 -9003.662 Z" fill="#fff" style="" transform="matrix(0.982587, 0.185802, -0.185802, 0.982587, -1670.725382, 211.478608)"/>
    <g id="Group_907" data-name="Group 907" transform="matrix(1, 0, 0, 1, -2100.979736, -8791.902344)">
      <path id="Path_211" data-name="Path 211" d="M-4852.995,7768.923h72.7a5.3,5.3,0,0,1,5.3,5.3,5.3,5.3,0,0,1-5.3,5.3h-72.7a5.3,5.3,0,0,1-5.3-5.3A5.3,5.3,0,0,1-4852.995,7768.923Z" transform="translate(4858.297 -7751.711)" fill="#903"/>
      <path id="Path_212" data-name="Path 212" d="M-4833.6,7762.906a5.3,5.3,0,0,1,3.751,1.553l17.2,17.213a5.3,5.3,0,0,1,0,7.5l-17.2,17.215a5.3,5.3,0,0,1-7.5,0,5.3,5.3,0,0,1,0-7.493l13.459-13.472-13.459-13.466a5.3,5.3,0,0,1,0-7.5A5.288,5.288,0,0,1-4833.6,7762.906Z" transform="translate(4894.397 -7762.906)" fill="#903"/>
    </g>
    <text id="SYMPTOMER_FRA_MAVEN" data-name="SYMPTOMER&#10;FRA MAVEN" transform="translate(-2108.67 -8861.871)" style="fill: rgb(153, 0, 51); font-family: &quot;Roboto Slab&quot;; font-size: 30px; font-weight: 800; letter-spacing: 3px; white-space: pre;"><tspan>Generelt om </tspan><tspan x="0" dy="1em">​</tspan><tspan>symptomer</tspan><tspan x="0" dy="1em">​</tspan></text>
  </g>
  <g id="Group_179" data-name="Group 179" transform="matrix(1, 0, 0, 1, 7624.734863, -796.900635)">
    <path id="Path_357" data-name="Path 357" d="M-963.4,262.108c-.225,18.025-.448,30.16-.673,48.187a95.03,95.03,0,0,1-18.51.346" transform="translate(12.097 47.694)" fill="none" stroke="#e79e17" stroke-linecap="round" stroke-linejoin="round" stroke-width="1.829" style="stroke:#353f4f;stroke-opacity:1"/>
    <path id="Path_358" data-name="Path 358" d="M-941.547,262.451a462.642,462.642,0,0,0-.073,47.628,42.863,42.863,0,0,1,18.609.272" transform="translate(27.452 47.824)" fill="none" stroke="#e79e17" stroke-linecap="round" stroke-linejoin="round" stroke-width="1.829" style="stroke:#353f4f;stroke-opacity:1"/>
    <path id="Path_359" data-name="Path 359" d="M-956.324,140.788c-14.339,7.95-23.031,23.186-29.191,38.381a209.9,209.9,0,0,0-14.937,91.076c.359,5.964,1.02,12.078,3.762,17.386,3.481,6.738,9.96,11.449,16.75,14.828,12.888,6.412,27.419,8.839,41.794,9.612,12.22.657,24.772.123,36.175-4.319s21.581-13.313,25.14-25.022c2.108-6.93,1.814-14.331,1.5-21.567q-.462-10.685-.925-21.37c-.825-19.073-1.713-38.483-8.121-56.467s-19.291-34.658-37.344-40.868c-5.747-1.978-12.752-6.646-18.749-5.657-13.025,2.145-6.84.774-15.856,3.987" transform="translate(5.162 0)" fill="none" stroke="#e79e17" stroke-miterlimit="10" stroke-width="4.269" style="stroke:#353f4f;stroke-opacity:1"/>
    <path id="Path_360" data-name="Path 360" d="M-992.129,192.036c-12.549,2.954-22.26,15.2-22.272,28.1a19.55,19.55,0,0,0,1.883,8.879c2.568,5.056,7.758,8.149,12.721,10.894a553.723,553.723,0,0,0,54.521,26.356" transform="translate(0 21.052)" fill="none" stroke="#e79e17" stroke-linecap="round" stroke-linejoin="round" stroke-width="1.829" style="stroke:#353f4f;stroke-opacity:1"/>
    <path id="Path_361" data-name="Path 361" d="M-903.756,191.7a57.486,57.486,0,0,1,22.141,24.55c2.737,5.478,4.684,12.035,2.185,17.625-1.736,3.883-5.358,6.614-9.172,8.5-14.117,6.969-31.234,4.2-46.038,9.558" transform="translate(30.326 20.926)" fill="none" stroke="#e79e17" stroke-linecap="round" stroke-linejoin="round" stroke-width="1.829" style="stroke:#353f4f;stroke-opacity:1"/>
    <path id="Path_362" data-name="Path 362" d="M-948.544,168.386c0,1.267-.026,2.533-.046,3.8a3.677,3.677,0,0,0,2.128,3.462c2.07.932,6.494.058,7.9-.3,4.194-1.059,2.241-4.727,2.241-6.966" transform="translate(25.022 12.061)" fill="none" stroke="#e79e17" stroke-linecap="round" stroke-linejoin="round" stroke-width="1.829" style="stroke:#353f4f;stroke-opacity:1"/>
    <path id="Path_363" data-name="Path 363" d="M-968.089,168.386c0,1.267-.026,2.533-.044,3.8a3.673,3.673,0,0,0,2.127,3.462c2.07.932,6.494.058,7.9-.3,4.194-1.059,2.241-4.727,2.241-6.966" transform="translate(17.591 12.061)" fill="none" stroke="#e79e17" stroke-linecap="round" stroke-linejoin="round" stroke-width="1.829" style="stroke:#353f4f;stroke-opacity:1"/>
    <path id="Path_364" data-name="Path 364" d="M-976.144,187.328" transform="translate(14.545 19.262)" fill="none" stroke="#e79e17" stroke-width="1"/>
    <path id="Path_365" data-name="Path 365" d="M-946.9,188.881c-6.745-5.318-14.24-4.1-20.377.2" transform="translate(17.915 18.512)" fill="none" stroke="#e79e17" stroke-linecap="round" stroke-linejoin="round" stroke-width="1.829" style="stroke:#353f4f;stroke-opacity:1"/>
  </g>
  <g id="g-18" data-name="Group 1057" transform="matrix(1, 0, 0, 1, 8573.831055, 8691.920898)">
    <path id="path-33" data-name="Path 1346" d="M -1975.842 -9003.664 L -1948.932 -9003.664 C -1833.267 -9003.664 -1739.499 -8905.802 -1739.499 -8807.941 C -1739.499 -8805.886 -1702.133 -8717.859 -1702.213 -8715.838 C -1706.039 -8620.043 -1835.694 -8612.217 -1948.93 -8612.217 L -1975.842 -8612.217 C -2091.508 -8612.218 -2185.274 -8699.847 -2185.274 -8807.941 C -2185.274 -8916.035 -2091.508 -9003.664 -1975.842 -9003.664 Z" fill="#fff" transform="matrix(0.982587, 0.185802, -0.185802, 0.982587, -1670.375752, 207.780461)"/>
    <g>
      <g id="g-19" data-name="Group 907" transform="matrix(1, 0, 0, 1, -2097.446045, -8823.834961)">
        <path id="path-34" data-name="Path 211" d="M-4852.995,7768.923h72.7a5.3,5.3,0,0,1,5.3,5.3,5.3,5.3,0,0,1-5.3,5.3h-72.7a5.3,5.3,0,0,1-5.3-5.3A5.3,5.3,0,0,1-4852.995,7768.923Z" transform="translate(4858.297 -7751.711)" fill="#903"/>
        <path id="path-35" data-name="Path 212" d="M-4833.6,7762.906a5.3,5.3,0,0,1,3.751,1.553l17.2,17.213a5.3,5.3,0,0,1,0,7.5l-17.2,17.215a5.3,5.3,0,0,1-7.5,0,5.3,5.3,0,0,1,0-7.493l13.459-13.472-13.459-13.466a5.3,5.3,0,0,1,0-7.5A5.288,5.288,0,0,1-4833.6,7762.906Z" transform="translate(4894.397 -7762.906)" fill="#903"/>
      </g>
      <text id="text-2" data-name="SYMPTOMER&#10;FRA MAVEN" transform="matrix(1, 0, 0, 1, -2108.669922, -8861.871094)" style="fill: rgb(153, 0, 51); font-family: &quot;Roboto Slab&quot;; font-size: 30px; font-weight: 800; letter-spacing: 3px; white-space: pre;"><tspan>Svimmelhed</tspan><tspan x="0" dy="1em">​</tspan></text>
    </g>
  </g>
  <g id="Group_1191" data-name="Group 1191" transform="matrix(1, 0, 0, 1, 6458.090332, 9196.193359)">
    <path id="Path_1606" data-name="Path 1606" d="M27.3,0c13.34,5.781,15.28,17.656,22.316,27.4,3.6,4.989,6.163,10.96,2.873,16.052-2.285,3.535-7.049,6.021-12.066,7.736C21.852,57.535,19.479,50.83,0,55.709" transform="translate(275.162 -9239.734) rotate(179)" fill="none" stroke="#353f4f" stroke-linecap="round" stroke-linejoin="round" stroke-width="3"/>
    <path id="Path_1609" data-name="Path 1609" d="M0,0" transform="matrix(0.996, -0.087, 0.087, 0.996, 287.217, -9238.794)" fill="none" stroke="#353f4f" stroke-miterlimit="10" stroke-width="5.492"/>
    <path id="Path_1607" data-name="Path 1607" d="M.06,119.063c-.2,3.631.036,7.416,1.727,10.635,2.335,4.442,7.01,7.076,11.512,9.292,11.4,5.608,23.819,10.187,36.494,9.333S75.388,140,79.343,127.929c1.733-5.288,1.663-10.97,1.575-16.533l-.736-47.009C79.868,44.4,79.467,19.356,62.147,5.8,50.173-3.573,39.658-1.476,32.37,11.3,24.527,25.047,23.04,42.8,18.952,57.854,13.478,78.014,1.223,98.028.06,119.063Z" transform="matrix(0.996, -0.087, 0.087, 0.996, 230.544, -9319.974)" fill="none" stroke="#353f4f" stroke-width="4.5"/>
    <g id="Group_1066" data-name="Group 1066" transform="matrix(0.996, -0.087, 0.087, 0.996, 269.955, -9281.135)">
      <path id="Path_547" data-name="Path 547" d="M8.919,0A15.071,15.071,0,0,0,0,5.375" transform="translate(0 1.584)" fill="none" stroke="#353f4f" stroke-linecap="round" stroke-linejoin="round" stroke-width="3"/>
      <path id="Path_548" data-name="Path 548" d="M0,0A19.7,19.7,0,0,1,8.06,8.944" transform="translate(0.124)" fill="none" stroke="#353f4f" stroke-linecap="round" stroke-linejoin="round" stroke-width="3"/>
    </g>
    <g id="Group_1067" data-name="Group 1067" transform="matrix(0.996, -0.087, 0.087, 0.996, 292.447, -9280.16)">
      <path id="Path_549" data-name="Path 549" d="M8.919,0A15.071,15.071,0,0,0,0,5.375" transform="translate(0 1.584)" fill="none" stroke="#353f4f" stroke-linecap="round" stroke-linejoin="round" stroke-width="3"/>
      <path id="Path_550" data-name="Path 550" d="M0,0A19.7,19.7,0,0,1,8.06,8.942" transform="translate(0.124)" fill="none" stroke="#353f4f" stroke-linecap="round" stroke-linejoin="round" stroke-width="3"/>
    </g>
    <ellipse id="Ellipse_131" data-name="Ellipse 131" cx="17.334" cy="68.502" rx="17.334" ry="68.502" transform="translate(217.391 -9318.428) rotate(-77.98)" fill="none" stroke="#353f4f" stroke-miterlimit="10" stroke-width="2"/>
    <ellipse id="Ellipse_132" data-name="Ellipse 132" cx="68.502" cy="17.334" rx="68.502" ry="17.334" transform="matrix(0.996, -0.092, 0.092, 0.996, 218.198, -9332.1)" fill="none" stroke="#353f4f" stroke-miterlimit="10" stroke-width="2"/>
    <path id="Path_1610" data-name="Path 1610" d="M0,4.063A8.484,8.484,0,0,1,6.972.02a16.1,16.1,0,0,1,8.073,2A18.219,18.219,0,0,0,19.923,4.07a9.281,9.281,0,0,0,3.659-.179A13.728,13.728,0,0,0,29.648.725" transform="matrix(0.996, -0.087, 0.087, 0.996, 268.075, -9254.518)" fill="none" stroke="#353f4f" stroke-linecap="round" stroke-linejoin="round" stroke-width="3"/>
    <path id="Path_1611" data-name="Path 1611" d="M0,0C1.458,35.749,1.084,61.869.592,97.93c8.955-1.713,11.565-3.171,20.115-7.561" transform="translate(298.342 -9177.961) rotate(1)" fill="none" stroke="#353f4f" stroke-linecap="round" stroke-linejoin="round" stroke-width="3"/>
    <path id="Path_1608" data-name="Path 1608" d="M21.223,0c-4.765,36.613-6.4,60.818-4.139,96.779A43.651,43.651,0,0,0,0,94.1" transform="translate(243.377 -9180.246) rotate(1)" fill="none" stroke="#353f4f" stroke-linecap="round" stroke-linejoin="round" stroke-width="3"/>
    <path id="Path_1612" data-name="Path 1612" d="M0,0C7.536,3.751,12.806,7.045,18.678,13.161c7.36,7.668,11.266,18.246,12.781,28.879s.823,21.452.13,32.174" transform="matrix(0.996, -0.087, 0.087, 0.996, 318.312, -9241.57)" fill="none" stroke="#353f4f" stroke-linecap="round" stroke-linejoin="round" stroke-width="3"/>
  </g>
  <path id="path-17" data-name="Path 1341" d="M 7521.097 2360.397 C 7522.876 2359.565 7528.121 2357.108 7527.77 2354.488 C 7527.887 2354.373 7528.013 2354.266 7528.146 2354.169 C 7527.405 2354.093 7527.854 2353.533 7528.24 2354.084 C 7528.049 2353.547 7527.918 2352.991 7527.848 2352.426 C 7525.217 2352.579 7512.661 2350.05 7513.51 2352.494 C 7512.89 2351.478 7512.62 2352.341 7512.51 2352.438 C 7512.683 2352.661 7512.875 2352.87 7513.083 2353.062 C 7511.606 2353.884 7510.825 2354.928 7513.2 2355.242 C 7515.854 2355.593 7518.644 2355.873 7521.405 2356.061 C 7520.433 2356.931 7519.349 2357.667 7518.182 2358.25 C 7518.05 2358.312 7517.924 2358.373 7517.793 2358.435 C 7518.269 2357.964 7518.658 2357.473 7517.925 2357.735 C 7517.665 2358.021 7517.447 2358.342 7517.276 2358.689 C 7514.792 2359.95 7513.017 2361.45 7513.591 2362.61 C 7513.654 2363.484 7514.501 2363.716 7515.344 2363.818 L 7515.276 2363.85 C 7515.257 2363.86 7515.322 2363.828 7515.344 2363.818 C 7515.366 2363.834 7515.331 2363.837 7515.276 2363.85 C 7515.176 2363.898 7515.436 2364.006 7515.505 2364.02 C 7515.586 2363.93 7515.605 2363.878 7515.592 2363.845 L 7515.786 2363.864 C 7516.401 2364.021 7517.025 2364.138 7517.655 2364.215 C 7518.272 2364.293 7519.926 2364.561 7521.789 2364.715 C 7521.848 2364.934 7521.918 2365.092 7522.003 2364.991 C 7521.975 2365.025 7521.993 2364.901 7522.024 2364.736 C 7522.58 2364.777 7523.15 2364.805 7523.717 2364.818 C 7523.511 2364.94 7523.13 2365.034 7523.266 2365.118 C 7523.486 2365.074 7523.69 2364.97 7523.855 2364.818 C 7523.917 2364.818 7523.98 2364.824 7524.043 2364.824 C 7524.155 2364.965 7524.46 2364.971 7525.002 2364.809 C 7527.25 2364.718 7529.119 2364.2 7529.119 2362.695 C 7529.119 2360.757 7524.927 2360.416 7521.099 2360.395 M 7519.008 2351.889 C 7518.973 2351.949 7518.931 2352.006 7518.885 2352.059 L 7518.672 2352.059 C 7518.656 2351.815 7518.828 2351.359 7519.008 2351.89 M 7518.146 2351.974 C 7518.19 2351.852 7518.246 2351.808 7518.303 2351.842 C 7518.293 2351.933 7518.284 2351.992 7518.275 2352.055 L 7518.145 2352.055 C 7518.145 2352.018 7518.145 2351.976 7518.145 2351.976 M 7517.782 2352.05 L 7517.662 2352.05 C 7517.637 2351.994 7517.603 2351.903 7517.572 2351.814 C 7517.572 2351.814 7517.556 2351.78 7517.528 2351.701 C 7517.645 2351.629 7517.742 2351.867 7517.782 2352.053 M 7513.91 2352.59 C 7513.91 2352.59 7514.01 2352.577 7514.099 2352.574 C 7514.042 2352.609 7513.972 2352.615 7513.91 2352.59" fill="#323f51" clip-path="url(#clip-10)"/>
  <path id="path-18" data-name="Path 1342" d="M 7547.251 2351.434 C 7547.244 2349.84 7541.306 2349.574 7537.119 2349.534 C 7537.308 2349.345 7537.498 2349.145 7537.687 2348.925 C 7537.821 2348.881 7537.95 2348.824 7538.073 2348.756 C 7538.038 2348.697 7538.006 2348.636 7537.979 2348.574 C 7538.007 2348.54 7538.033 2348.511 7538.06 2348.474 C 7538.081 2348.553 7538.097 2348.634 7538.108 2348.716 C 7538.432 2348.271 7538.791 2347.851 7539.179 2347.461 C 7539.199 2347.497 7539.229 2347.528 7539.266 2347.549 C 7539.322 2347.574 7539.342 2347.442 7539.32 2347.314 C 7541.368 2345.193 7544.82 2342.049 7543.876 2340.973 C 7543.929 2340.951 7543.976 2340.936 7544.029 2340.913 C 7544.329 2340.97 7544.352 2340.834 7544.309 2340.677 C 7544.444 2340.652 7544.519 2340.63 7544.509 2340.605 C 7544.384 2340.398 7544.241 2340.203 7544.08 2340.024 C 7544.133 2339.569 7543.4 2339.333 7543.209 2339.015 C 7543.278 2339.121 7543.326 2339.241 7543.351 2339.366 C 7543.186 2339.252 7543.014 2339.148 7542.836 2339.056 C 7543.144 2338.856 7542.736 2338.798 7542.492 2338.9 C 7542.151 2338.758 7541.798 2338.645 7541.439 2338.561 C 7541.568 2337.736 7541.231 2338.292 7541.267 2338.52 C 7539.437 2338.235 7537.582 2338.152 7535.735 2338.27 C 7535.682 2338.272 7535.63 2338.277 7535.578 2338.285 C 7535.35 2338.151 7535.146 2337.978 7534.978 2337.774 C 7534.932 2337.695 7534.941 2337.674 7534.969 2337.661 C 7534.706 2337.786 7534.432 2337.886 7534.151 2337.961 C 7534.16 2337.906 7534.16 2337.851 7534.151 2337.797 C 7534.133 2337.737 7534.073 2337.854 7534.045 2337.989 C 7532.685 2338.335 7530.745 2338.406 7530.924 2338.01 C 7530.561 2338.801 7530.302 2338.499 7530.366 2339.582 C 7530.09 2337.282 7530.4 2340.495 7530.119 2339.053 C 7530.135 2339.141 7530.195 2339.416 7530.258 2339.728 C 7528.879 2340.261 7528.192 2340.788 7529.793 2341.014 C 7529.952 2341.035 7530.232 2341.052 7530.599 2341.064 C 7530.571 2341.164 7530.562 2341.249 7530.617 2341.299 C 7530.628 2341.221 7530.635 2341.144 7530.639 2341.066 C 7532.15 2341.113 7535.139 2341.084 7537.958 2341.009 C 7537.835 2341.062 7537.762 2341.19 7537.777 2341.323 C 7537.748 2342.392 7538.146 2341.213 7538.206 2341.003 L 7539.182 2340.975 C 7539.251 2341.075 7539.326 2341.119 7539.402 2341.084 C 7539.478 2341.049 7539.539 2341 7539.609 2340.961 C 7539.891 2340.952 7540.167 2340.942 7540.436 2340.932 C 7540.361 2341.02 7540.32 2341.133 7540.321 2341.249 C 7540.275 2341.725 7540.55 2341.064 7540.55 2340.927 L 7541.05 2340.908 C 7540.79 2341.147 7540.727 2341.271 7540.75 2341.328 C 7539.294 2342.443 7537.924 2343.668 7536.654 2344.991 C 7536.642 2344.956 7536.617 2344.927 7536.585 2344.91 C 7536.453 2344.847 7536.371 2345.052 7536.444 2345.204 C 7534.903 2346.764 7533.456 2348.416 7532.112 2350.149 C 7531.947 2350.344 7531.925 2350.623 7532.056 2350.843 C 7531.983 2350.952 7531.941 2351.08 7531.937 2351.212 C 7532.571 2351.634 7533.286 2351.919 7534.037 2352.049 C 7534.975 2352.449 7534.78 2352.281 7534.48 2352.078 C 7534.721 2352.146 7534.975 2352.209 7535.238 2352.267 C 7535.313 2353.32 7536.828 2352.979 7537.658 2352.687 C 7538.058 2352.738 7538.465 2352.787 7538.875 2352.821 C 7538.8 2352.893 7538.764 2352.996 7538.775 2353.1 C 7538.807 2353.5 7539.088 2353.075 7539.157 2352.846 C 7539.887 2352.908 7540.622 2352.946 7541.339 2352.959 C 7541.233 2353.029 7541.139 2353.097 7541.086 2353.076 C 7541.178 2353.114 7541.343 2353.036 7541.486 2352.96 C 7542.167 2352.97 7542.828 2352.96 7543.443 2352.919 C 7545.631 2352.781 7547.254 2352.319 7547.25 2351.433 M 7541.85 2342.533 L 7541.775 2342.639 C 7541.791 2342.598 7541.817 2342.562 7541.85 2342.533 M 7543.138 2340.833 C 7543.147 2340.881 7543.14 2340.932 7543.119 2340.977 Z M 7541.246 2343.561 C 7541.274 2343.511 7541.303 2343.461 7541.331 2343.413 C 7541.531 2343.564 7541.384 2343.613 7541.246 2343.561 M 7541.746 2344.23 C 7541.185 2343.095 7542.552 2344.647 7541.746 2344.23 M 7542.078 2343.86 C 7541.367 2343.139 7542.008 2343.634 7542.046 2343.687 C 7542.119 2343.787 7542.131 2343.848 7542.078 2343.86 M 7542.511 2343.512 C 7542.561 2343.882 7541.002 2342.759 7542.511 2343.512 M 7532.17 2338.661 C 7532.156 2338.814 7532.13 2338.966 7532.091 2339.116 C 7532.01 2338.961 7532.053 2338.035 7532.17 2338.661 M 7531.932 2338.702 C 7531.938 2338.956 7531.938 2339.095 7531.932 2339.162 C 7531.903 2339.06 7531.887 2338.955 7531.884 2338.849 C 7531.891 2338.724 7531.907 2338.674 7531.93 2338.702 M 7530.922 2338.492 L 7530.84 2338.492 C 7530.859 2338.408 7530.978 2337.855 7530.922 2338.492 M 7531.668 2338.645 C 7531.781 2338.397 7531.868 2338.855 7531.888 2339.178 C 7531.851 2339.188 7531.816 2339.2 7531.779 2339.209 C 7531.748 2339.083 7531.711 2338.899 7531.667 2338.645 M 7541.046 2340.904 L 7541.379 2340.889 C 7541.319 2340.929 7541.256 2340.974 7541.193 2341.017 C 7541.158 2340.964 7541.106 2340.924 7541.046 2340.904 M 7536.141 2352.454 L 7536.477 2352.511 C 7536.2 2352.543 7536.103 2352.496 7536.141 2352.454" fill="#323f51" clip-path="url(#clip-10)"/>
  <path id="path-19" data-name="Path 1343" d="M 7531.731 2352.06 C 7532.168 2352.348 7532.717 2352.41 7533.208 2352.229 C 7533.208 2352.229 7531.333 2351.449 7531.731 2352.06" fill="#323f51" clip-path="url(#clip-10)"/>
  <path id="path-20" data-name="Path 1164" d="M 6479.369 2500.069" fill="none" stroke="#323f51" stroke-width="4.5"/>
  <path id="path-4" data-name="Path 1222" d="M 1279.238 409.311 C 1295.384 413.99 1310.854 412.638 1327.602 409.311" fill="none" stroke-linecap="round" stroke-miterlimit="10" stroke-width="5" style="stroke: rgb(50, 63, 81);"/>
  <g transform="matrix(1, 0, 0, 1, 45.218739, 65.824982)">
    <text style="white-space: pre; fill: rgb(51, 51, 51); font-family: Arial, sans-serif; font-size: 52px;" x="1151.834" y="121.994">z</text>
    <text style="fill: rgb(51, 51, 51); font-family: Arial, sans-serif; font-size: 60px; white-space: pre;" x="1106.454" y="61.307">z</text>
    <text style="fill: rgb(51, 51, 51); font-family: Arial, sans-serif; font-size: 90px; white-space: pre;" x="1054.303" y="50.187">z</text>
    <text style="fill: rgb(51, 51, 51); font-family: Arial, sans-serif; font-size: 100px; white-space: pre;" x="989.642" y="14.052">z</text>
  </g>
</svg>
