<?xml version="1.0" encoding="utf-8"?>
<svg viewBox="366.207 38.909 500 500" xmlns="http://www.w3.org/2000/svg">
  <defs>
    <view id="view-1" viewBox="-31.73 118.603 74.148 61.937">
      <title>View 1</title>
    </view>
  </defs>
  <g id="Group_1524" data-name="Group 1524" transform="matrix(1, 0, 0, 1, 3705.978877, -2224.221542)">
    <g id="Group_1523" data-name="Group 1523" transform="translate(-3591 2491.186)">
      <path id="Path_211" data-name="Path 211" d="M-4855.922,7768.923h32.565c1.312,0,2.374,1.412,2.374,3.157s-1.062,3.155-2.374,3.155h-32.565c-1.312,0-2.375-1.412-2.375-3.155S-4857.233,7768.923-4855.922,7768.923Z" transform="translate(4870.586 -7758.674)" fill="#fff"/>
      <path id="Path_212" data-name="Path 212" d="M-4835.743,7762.906a3.155,3.155,0,0,1,2.234.925l10.242,10.25a3.157,3.157,0,0,1,0,4.463l-10.242,10.251a3.157,3.157,0,0,1-4.465,0,3.154,3.154,0,0,1,0-4.461l8.015-8.022-8.015-8.019a3.157,3.157,0,0,1,0-4.463A3.146,3.146,0,0,1-4835.743,7762.906Z" transform="translate(4872.945 -7762.906)" fill="#fff"/>
    </g>
    <rect id="Rectangle_545" data-name="Rectangle 545" width="7" height="54" rx="3.5" transform="translate(-3597 2477)" fill="#fff"/>
    <rect id="Rectangle_546" data-name="Rectangle 546" width="7" height="28" rx="3.5" transform="translate(-3569 2477) rotate(90)" fill="#fff"/>
    <rect id="Rectangle_547" data-name="Rectangle 547" width="7" height="28" rx="3.5" transform="translate(-3569 2524) rotate(90)" fill="#fff"/>
  </g>
  <g id="Group_1525" data-name="Group 1525" transform="matrix(1, 0, 0, 1, 3542.390876, -1778.38762)">
    <rect id="Rectangle_4" data-name="Rectangle 4" width="17" height="14" rx="2" transform="translate(-3599 2195)" fill="#fff"/>
    <rect id="Rectangle_3" data-name="Rectangle 3" width="14" height="17" rx="2" transform="translate(-3561 2195) rotate(90)" fill="#fff"/>
    <rect id="Rectangle_548" data-name="Rectangle 548" width="14" height="17" rx="2" transform="translate(-3540 2195) rotate(90)" fill="#fff"/>
    <rect id="Rectangle_4-2" data-name="Rectangle 4" width="17" height="14" rx="2" transform="translate(-3599 2214)" fill="#fff"/>
    <rect id="Rectangle_549" data-name="Rectangle 549" width="17" height="14" rx="2" transform="translate(-3599 2232)" fill="#fff"/>
    <rect id="Rectangle_3-2" data-name="Rectangle 3" width="14" height="17" rx="2" transform="translate(-3561 2214) rotate(90)" fill="#fff"/>
    <rect id="Rectangle_550" data-name="Rectangle 550" width="14" height="17" rx="2" transform="translate(-3561 2232) rotate(90)" fill="#fff"/>
    <rect id="Rectangle_548-2" data-name="Rectangle 548" width="14" height="17" rx="2" transform="translate(-3540 2214) rotate(90)" fill="#fff"/>
  </g>
  <text id="_" data-name="?" fill="#fff" font-size="67" font-family="Lato-Black, Lato" font-weight="800" letter-spacing="0.1em" style="white-space: pre;" x="-14.488" y="292.368"><tspan x="-14.488" y="292.368" style="font-size: 67px; word-spacing: 0px; letter-spacing: 6.7px;">?</tspan></text>
  <g id="g-1" data-name="Group 1526" transform="matrix(1, 0, 0, 1, 3241.046143, -2349.056641)">
    <g id="g-2" data-name="Rectangle 551" transform="translate(-3466 2502)" fill="none" stroke="#fff" stroke-width="4">
      <rect width="46" height="57" rx="6" stroke="none"/>
      <rect x="2" y="2" width="42" height="53" rx="4" fill="none"/>
    </g>
    <line id="line-1" data-name="Line 139" x2="40" transform="translate(-3462.5 2522.5)" fill="none" stroke="#fff" stroke-width="4"/>
    <line id="line-2" data-name="Line 140" x2="40" transform="translate(-3462.5 2540.5)" fill="none" stroke="#fff" stroke-width="4"/>
    <path id="path-1" data-name="Path 2011" d="M-3500.1,2510.944s-.521,3.182,3.609,3.095,6.425,0,6.425,0a3.157,3.157,0,0,0,2.519-3.095" transform="translate(50.623 1.242)" fill="none" stroke="#fff" stroke-linecap="round" stroke-width="2"/>
    <path id="path-2" data-name="Path 2012" d="M-3500.1,2510.944s-.521,3.182,3.609,3.095,6.425,0,6.425,0a3.157,3.157,0,0,0,2.519-3.095" transform="translate(50.623 18.772)" fill="none" stroke="#fff" stroke-linecap="round" stroke-width="2"/>
    <path id="path-3" data-name="Path 2013" d="M-3500.1,2510.944s-.521,3.182,3.609,3.095,6.425,0,6.425,0a3.157,3.157,0,0,0,2.519-3.095" transform="translate(50.623 36.772)" fill="none" stroke="#fff" stroke-linecap="round" stroke-width="2"/>
  </g>
  <circle style="fill: rgb(255, 255, 255);" cx="83.24" cy="81.177" r="11.788" transform="matrix(0.686669, 0, 0, 0.659562, -74.544868, 77.282463)"/>
  <rect x="-6.686" y="122.955" width="44.514" height="15.117" style="fill: rgb(255, 255, 255);" rx="11.46" ry="11.46"/>
  <circle style="fill: rgb(255, 255, 255);" cx="82.518" cy="109.267" r="11.788" transform="matrix(0.686669, 0, 0, 0.659562, -74.088043, 76.814674)"/>
  <rect x="-6.657" y="141.014" width="44.514" height="15.117" style="fill: rgb(255, 255, 255);" rx="11.46" ry="11.46"/>
  <circle style="fill: rgb(255, 255, 255);" cx="81.847" cy="136.529" r="11.788" transform="matrix(0.686669, 0, 0, 0.659562, -74.088043, 76.814674)"/>
  <rect x="-7.054" y="158.995" width="44.514" height="15.117" style="fill: rgb(255, 255, 255);" rx="11.46" ry="11.46"/>
</svg>