<svg viewBox="366.207 38.909 500 500" xmlns="http://www.w3.org/2000/svg"><g fill="#fff" data-name="Group 1524" transform="translate(3705.979 -2224.222)"><g data-name="Group 1523"><path d="M-3576.336 2501.435h32.565c1.312 0 2.374 1.412 2.374 3.157s-1.062 3.155-2.374 3.155h-32.565c-1.312 0-2.375-1.412-2.375-3.155s1.064-3.157 2.375-3.157Z" data-name="Path 211"/><path d="M-3553.798 2491.186a3.155 3.155 0 0 1 2.234.925l10.242 10.25a3.157 3.157 0 0 1 0 4.463l-10.242 10.251a3.157 3.157 0 0 1-4.465 0 3.154 3.154 0 0 1 0-4.461l8.015-8.022-8.015-8.019a3.157 3.157 0 0 1 0-4.463 3.146 3.146 0 0 1 2.231-.924Z" data-name="Path 212"/></g><rect width="7" height="54" data-name="Rectangle 545" rx="3.5" transform="translate(-3597 2477)"/><rect width="7" height="28" data-name="Rectangle 546" rx="3.5" transform="rotate(90 -3023 -546)"/><rect width="7" height="28" data-name="Rectangle 547" rx="3.5" transform="rotate(90 -3046.5 -522.5)"/></g><g fill="#fff" data-name="Group 1525" transform="translate(3542.39 -1778.388)"><rect width="17" height="14" data-name="Rectangle 4" rx="2" transform="translate(-3599 2195)"/><rect width="14" height="17" data-name="Rectangle 3" rx="2" transform="rotate(90 -2878 -683)"/><rect width="14" height="17" data-name="Rectangle 548" rx="2" transform="rotate(90 -2867.5 -672.5)"/><rect width="17" height="14" data-name="Rectangle 4" rx="2" transform="translate(-3599 2214)"/><rect width="17" height="14" data-name="Rectangle 549" rx="2" transform="translate(-3599 2232)"/><rect width="14" height="17" data-name="Rectangle 3" rx="2" transform="rotate(90 -2887.5 -673.5)"/><rect width="14" height="17" data-name="Rectangle 550" rx="2" transform="rotate(90 -2896.5 -664.5)"/><rect width="14" height="17" data-name="Rectangle 548" rx="2" transform="rotate(90 -2877 -663)"/></g><text x="-14.488" y="292.368" fill="#fff" data-name="?" font-family="Lato-Black, Lato" font-size="67" font-weight="800" letter-spacing=".1em" style="white-space:pre"><tspan x="-14.488" y="292.368" style="font-size:67px;word-spacing:0;letter-spacing:6.7px">?</tspan></text><g fill="none" stroke="#fff" data-name="Group 1526"><g stroke-width="4" data-name="Rectangle 551" transform="translate(-224.954 152.943)"><rect width="46" height="57" stroke="none" rx="6"/><rect width="42" height="53" x="2" y="2" rx="4"/></g><path stroke-width="4" d="M-221.454 173.443h40" data-name="Line 139"/><path stroke-width="4" d="M-221.454 191.443h40" data-name="Line 140"/><path stroke-linecap="round" stroke-width="2" d="M-208.43 163.13s-.522 3.181 3.608 3.094 6.425 0 6.425 0a3.157 3.157 0 0 0 2.52-3.095" data-name="Path 2011"/><path stroke-linecap="round" stroke-width="2" d="M-208.43 180.66s-.522 3.181 3.608 3.094 6.425 0 6.425 0a3.157 3.157 0 0 0 2.52-3.095" data-name="Path 2012"/><path stroke-linecap="round" stroke-width="2" d="M-208.43 198.66s-.522 3.181 3.608 3.094 6.425 0 6.425 0a3.157 3.157 0 0 0 2.52-3.095" data-name="Path 2013"/></g><circle cx="83.24" cy="81.177" r="11.788" style="fill:#fff" transform="matrix(.68667 0 0 .65956 -74.545 77.282)"/><rect width="44.514" height="15.117" x="-6.686" y="122.955" rx="11.46" ry="11.46" style="fill:#fff"/><circle cx="82.518" cy="109.267" r="11.788" style="fill:#fff" transform="matrix(.68667 0 0 .65956 -74.088 76.815)"/><rect width="44.514" height="15.117" x="-6.657" y="141.014" rx="11.46" ry="11.46" style="fill:#fff"/><circle cx="81.847" cy="136.529" r="11.788" style="fill:#fff" transform="matrix(.68667 0 0 .65956 -74.088 76.815)"/><rect width="44.514" height="15.117" x="-7.054" y="158.995" rx="11.46" ry="11.46" style="fill:#fff"/></svg>