<svg xmlns="http://www.w3.org/2000/svg" xmlns:xlink="http://www.w3.org/1999/xlink" width="581.86" height="576.131" viewBox="0 0 581.86 576.131">
  <defs>
    <clipPath id="clip-path">
      <rect id="Rectangle_359" data-name="Rectangle 359" width="182.523" height="252.978" fill="#fff"/>
    </clipPath>
  </defs>
  <g id="Group_871" data-name="Group 871" transform="translate(1865.011 15271.474)">
    <path id="Path_1274" data-name="Path 1274" d="M187.771,0H211.9C315.6,0,396.281,52.013,396.281,146.992c0,1.995,32.091,110.2,32.019,112.161-3.43,92.976-128.937,149.664-230.462,149.664H173.71a193.614,193.614,0,0,1-21.27-1.205C59.433,397.677,0,288.048,0,189.957,0,85.047,84.068,0,187.771,0Z" transform="translate(-1642.354 -15271.474) rotate(33)" fill="#323f51"/>
    <g id="Group_868" data-name="Group 868" transform="translate(-1674 -15117.281)">
      <g id="Group_865" data-name="Group 865" clip-path="url(#clip-path)">
        <path id="Path_1267" data-name="Path 1267" d="M5.651,73.5c4.033.918,8.469-1.211,9.541-5.417.517-2.033,1.119-4.038,1.836-6.01q.251-.691.519-1.376c.07-.18.306-.728.394-.938.389-.863.791-1.718,1.217-2.564a68.1,68.1,0,0,1,6.559-10.5c.109-.135.357-.451.427-.535.316-.38.624-.765.942-1.142q.954-1.136,1.95-2.237Q31.412,40.152,34,37.727q2.324-2.184,4.793-4.207c.388-.318.78-.631,1.171-.946.065-.052.3-.226.455-.347.956-.7,1.932-1.378,2.915-2.04a95.831,95.831,0,0,1,11.192-6.479q1.351-.664,2.723-1.287c-.092.042.765-.336,1.172-.518.279-.115.682-.284.767-.317q3.11-1.247,6.305-2.267a89.678,89.678,0,0,1,12.524-3.028c.439-.073,2.523-.351,1.909-.286.849-.1,1.7-.192,2.551-.268q3.262-.29,6.54-.327t6.53.185q1.448.1,2.891.248c.35.037.7.078,1.047.119-.552-.06.839.113,1.208.172a78.835,78.835,0,0,1,12.034,2.893q1.4.455,2.774.961.864.317,1.72.656c.089.035.506.206.781.317s.686.3.774.34q.677.305,1.349.623,1.688.8,3.336,1.679c1.985,1.059,3.932,2.2,5.844,3.385q1.476.915,2.91,1.9.716.489,1.422.994c-.039-.028,1.389,1.014,1.323.954a80.5,80.5,0,0,1,8.52,7.635q1.872,1.906,3.626,3.922.919,1.056,1.8,2.14c.26.32.516.644.775.965l.124.153.166.231a101.325,101.325,0,0,1,5.69,8.643q1.279,2.218,2.426,4.508.538,1.073,1.047,2.16.318.679.624,1.362l.279.627c.085.2.191.45.23.547.147.37.3.739.441,1.111q.488,1.251.939,2.517.9,2.528,1.654,5.1a96.538,96.538,0,0,1,2.327,9.86q.24,1.321.444,2.649c.047.3.089.609.135.913.136,1.783.392,3.556.519,5.342q.374,5.24.225,10.5c-.1,3.521-.381,7.028-.791,10.526-.021.178-.037.314-.048.42s-.045.277-.083.518c-.14.9-.279,1.8-.435,2.692q-.468,2.691-1.062,5.359-1.124,5.051-2.688,9.99-.782,2.472-1.672,4.908-.471,1.29-.971,2.57-.222.569-.451,1.135c-.038.094-.2.491-.321.784-.078.184-.163.381-.2.461-.206.466-.41.932-.62,1.4q-.5,1.114-1.028,2.217-1.183,2.482-2.48,4.908-2.45,4.579-5.3,8.929-1.506,2.3-3.122,4.522c-.461.635-.934,1.261-1.4,1.89-.365.461-.731.922-1.1,1.378q-3.271,4.023-6.912,7.724c-6.4,6.5-12.624,11.062-19.787,16.254a214.712,214.712,0,0,0-22.553,18.2c-5.451,5.2-10.72,10.6-16.406,15.547q-2.112,1.838-4.3,3.58l.019-.014-.028.021c-.087.069-.248.187-.378.282-.212.159-.424.318-.638.475q-1.3.955-2.645,1.857c-1.413.948-2.861,1.846-4.346,2.676q-1.238.692-2.51,1.319c-.367.18-2.158.943-1.788.817a43.6,43.6,0,0,1-4.5,1.478q-1.354.356-2.732.611c-.243.045-.488.082-.732.122-.139.015-.356.038-.628.061a35.251,35.251,0,0,1-5.474.042c-.216-.015-.433-.038-.649-.06a5.552,5.552,0,0,1-.62-.053h0l-.05,0,.039,0c-1.133-.2-2.258-.426-3.375-.709-1.886-.478-3.675-1.162-5.517-1.771l-.1-.031c-.395-.183-.794-.358-1.186-.546q-1.541-.737-3.022-1.588-1.182-.68-2.319-1.432c-.336-.222-2.1-1.553-1.734-1.223a41.642,41.642,0,0,1-4.167-3.924c-.255-.28-1.267-1.515-1.22-1.413-.443-.6-.87-1.219-1.271-1.851q-.731-1.151-1.37-2.357c-.267-.505-.489-1.036-.76-1.538l-.036-.066c-.034-.089-.073-.191-.12-.313-1.466-3.769-5.272-6.8-9.541-5.417-3.664,1.186-6.992,5.492-5.417,9.541,6.96,17.9,25.18,30.063,44.392,30.348,17.8.264,32.518-11.036,44.85-22.635,5.988-5.632,11.662-11.62,17.94-16.938,3.932-3.331,7-5.552,11.342-8.7,4.689-3.4,9.379-6.8,13.918-10.409A118.607,118.607,0,0,0,167.5,157.432c14.566-27.231,19.557-60.425,10.418-90.24C167.539,33.314,138.281,5.769,102.664.863a96.677,96.677,0,0,0-56.642,9.786C29.071,19.157,13.595,33.11,5.278,50.354A72.741,72.741,0,0,0,.234,63.962c-1,3.926,1.279,8.6,5.417,9.541m138.688,91.375c.256-.328.738-.93,0,0" transform="translate(0 0)" fill="#fff"/>
        <path id="Path_1268" data-name="Path 1268" d="M152.21,189.159c-.038.2-.079.4-.13.6-.146.557-.293,1.116-.489,1.658.009-.085-.393.745-.522.964-.153.261-.324.511-.485.767-.035.056-.062.1-.085.138l-.035.041a16.517,16.517,0,0,1-1.31,1.351c-.164.15-.331.3-.5.445-.045.026-.126.076-.264.163a20.984,20.984,0,0,1-3.938,2c-3.413,1.265-7,1.976-10.452,3.135-10.988,3.693-21.939,11.282-25.6,22.781-3.419,10.749,1.405,23.18,11.295,28.613,9.018,4.953,20.073,4.428,29.207.126a31.763,31.763,0,0,0,6.213-4.073c2.684-2.135,2.23-6.744,0-8.974-2.651-2.651-6.283-2.141-8.974,0,1.2-.956-.131.073-.336.211q-.629.426-1.285.811a24.911,24.911,0,0,1-2.285,1.179c.01-.039-1.493.531-1.8.623a35.7,35.7,0,0,1-3.488.819l-.14.028-.2.008c-.339.017-.677.057-1.017.075a26.791,26.791,0,0,1-3.04,0c-.291-.017-.581-.041-.871-.069a9.165,9.165,0,0,0-.915-.146,23,23,0,0,1-2.856-.76c-.214-.072-1.123-.462-.9-.347-.237-.113-.471-.23-.7-.354-.712-.38-1.371-.817-2.044-1.261l-.069-.044c-.042-.045-.089-.095-.149-.157-.337-.344-.707-.654-1.039-1-.185-.194-.363-.393-.538-.6.006-.02-.441-.629-.565-.829-.268-.43-.484-.885-.741-1.319-.051-.087-.095-.157-.132-.215-.016-.053-.033-.11-.055-.177a32.592,32.592,0,0,1-.862-3.188c-.016-.076-.03-.141-.043-.2s0-.133-.008-.257c-.032-.543-.061-1.082-.053-1.627,0-.066.1-1.379.054-1.258a16.872,16.872,0,0,1,.478-1.971c.017-.056.416-1.153.388-1.155.114-.241.233-.481.355-.715a20.71,20.71,0,0,1,1.746-2.812c.022.005.8-.921.818-.937q.634-.7,1.314-1.355.455-.44.928-.862c.142-.127,1.423-1.16,1.368-1.142a40.01,40.01,0,0,1,5.791-3.521c.558-.28,1.125-.542,1.692-.8.149-.069.264-.123.354-.167s.223-.075.39-.133c1.492-.524,2.979-1.032,4.5-1.469,6.481-1.86,13.148-3.567,18.172-8.359a21.7,21.7,0,0,0,6.584-15.237c.187-11.942-8.807-20.192-19.121-24.242-4.124-1.619-8.445-2.656-12.631-4.094a22.608,22.608,0,0,1-9.672-5.85c-.057-.059-.194-.232-.288-.352-.3-.42-.581-.853-.844-1.295-.245-.412-.471-.835-.685-1.264.045.042-.39-1-.419-1.089-.129-.412-.5-2.595-.474-1.928-.038-.476-.065-.952-.065-1.431,0-.228.131-1.807.068-1.6a20.934,20.934,0,0,1,.627-2.574c.142-.463.31-.914.467-1.372.046-.132.08-.235.106-.319.047-.082.106-.189.182-.331.568-1.07,1.111-2.138,1.759-3.164.274-.434.559-.86.851-1.281.1-.145.869-1.154.874-1.183A46.507,46.507,0,0,1,130.257,130q1.264-1.161,2.609-2.233c.153-.107.946-.707.963-.719q.988-.708,2.009-1.369a55,55,0,0,1,5.5-3.048l.228-.115.19-.065c.405-.141.8-.3,1.21-.443a50.147,50.147,0,0,1,5.267-1.528c11.923-2.776,25.458-.769,35.857,6.265a32.385,32.385,0,0,1,10.03,11.089A30.938,30.938,0,0,1,197.8,153.1c-.052,8.169,12.639,8.177,12.692,0a43.959,43.959,0,0,0-14.017-32.615c-9.968-9.149-23.611-13.668-37.021-13.842a54.657,54.657,0,0,0-35.05,11.747c-8.583,6.758-16.539,17.108-16.343,28.553a24.976,24.976,0,0,0,6.681,16.266c3.737,4.141,8.836,6.64,13.995,8.516,4.606,1.675,9.389,2.8,13.962,4.575.191.085.383.169.572.26.5.243,1.007.486,1.5.751s.973.539,1.446.832c.236.146.47.295.7.449-.008-.005.5.37.737.539.234.212.695.616.809.726.413.393.8.806,1.181,1.23.106.118.21.238.313.36.024.042.064.108.129.21.409.649.8,1.3,1.171,1.967a2.61,2.61,0,0,0,.249.4,2.45,2.45,0,0,0,.111.444c.18.6.328,1.2.5,1.8a3.117,3.117,0,0,0,.12.363,3.326,3.326,0,0,0-.01.366c.007.7.014,1.4-.015,2.1,0,.023,0,.041,0,.061" transform="translate(-68.117 -67.69)" fill="#fff"/>
      </g>
    </g>
    <path id="Path_1275" data-name="Path 1275" d="M30.26,20.481A104.4,104.4,0,0,1,3.937,9.246C.05,6.927-1.7,4.325,2.167,1.528,5.872-1.151,9.656.107,13.14,2.14c27.214,15.879,57.2,16.71,89.137,6.835,1.592-.492,3.221-.931,4.787-1.45,3.942-1.3,7.721-1.388,10.03,1.374,2.393,2.868.971,5.336-3.5,6.839C86.817,24.708,59.281,28.148,30.26,20.481Z" transform="translate(-1498.257 -14930.879) rotate(-78)" fill="#fff"/>
    <path id="Path_1276" data-name="Path 1276" d="M22.555,16.54A74.786,74.786,0,0,1,2.935,7.467c-2.9-1.873-4.2-3.974-1.319-6.233C4.377-.93,7.2.086,9.794,1.728c20.284,12.824,42.637,13.494,66.439,5.52,1.187-.4,2.4-.752,3.568-1.171,2.938-1.052,5.755-1.122,7.476,1.109C89.061,9.5,88,11.5,84.665,12.709,64.711,19.954,44.186,22.731,22.555,16.54Z" transform="matrix(0.191, -0.982, 0.982, 0.191, -1460.663, -14939.82)" fill="#fff"/>
  </g>
</svg>
