<svg width="963.941" height="1160.811" xmlns="http://www.w3.org/2000/svg"><g data-name="Group 1216"><g data-name="Group 1214"><text fill="#323f51" data-name="?" font-family="RifficFree-Bold, Riffic Free" font-size="200" font-weight="700" transform="translate(706.339 67.382)"><tspan x="0" y="194">?</tspan></text></g><g data-name="Group 1209"><path fill="none" stroke="#323f51" stroke-linecap="round" stroke-linejoin="round" stroke-width="10" d="M388.826 972.78c.825 67.193 1.644 112.427 2.469 179.625a342.6 342.6 0 0 0 67.853 1.291" data-name="Path 1765"/><path fill="#7ec8d6" stroke="#323f51" stroke-miterlimit="10" stroke-width="10" d="M388.307 342.751c52.563 29.635 84.427 86.43 107.008 143.07a794.338 794.338 0 0 1 54.754 339.5c-1.316 22.231-3.739 45.023-13.792 64.81-12.76 25.118-36.509 42.677-61.4 55.272-47.245 23.9-100.512 32.948-153.207 35.829-44.8 2.449-90.807.458-132.609-16.1s-79.11-49.628-92.159-93.272c-7.726-25.833-6.649-53.42-5.5-80.395q1.693-39.83 3.39-79.659c3.025-71.1 6.279-143.451 29.77-210.49s70.717-129.194 136.894-152.342c21.068-7.373 46.745-24.773 68.729-21.089 47.747 8 25.075 2.886 58.123 14.864" data-name="Path 1767"/><path fill="none" stroke="#323f51" stroke-linecap="round" stroke-linejoin="round" stroke-width="10" d="M532.181 600.07c37.6 11.01 66.69 56.671 66.727 104.73.008 11.381-1.5 22.947-5.641 33.1-7.695 18.846-23.243 30.376-38.112 40.609-52.954 36.421-143.627-188.5-199.462-159.5" data-name="Path 1771"/><path fill="none" stroke="#353f4f" stroke-linecap="round" stroke-miterlimit="10" stroke-width="5" d="M355.958 464.688c11.788 2.507 20.613 8.884 29.395 17.065" data-name="Path 1769"/><path fill="#323f51" d="M371.1 591.37a48.387 48.387 0 0 0 9.143-13.991c1.142-2.565 1.162-4.899-1.587-6.214-2.634-1.257-4.061.483-5.098 2.749-8.105 17.693-22.307 24.566-40.833 23.736-.923-.043-1.848-.035-2.767-.101-2.313-.166-4.163.556-4.403 3.129-.248 2.67 1.22 4.243 3.854 4.45 15.751 1.217 30.117-1.909 41.69-13.758Z" data-name="Path 1772"/><path fill="#323f51" d="M346.577 497.789c-9.7-.113-16.1 6.181-15.93 15.662.173 9.553 5.91 15.829 14.762 16.164 9.518.362 17.52-7.031 17.427-16.1-.098-9.391-6.528-15.608-16.259-15.726Z" data-name="Path 1773"/><path fill="#fff" d="M339.778 513.707c-4.15-.05-6.892 2.648-6.821 6.706.076 4.089 2.533 6.778 6.318 6.918a7.043 7.043 0 0 0 7.461-6.891c-.038-4.021-2.79-6.683-6.958-6.733Z" data-name="Path 1774" opacity=".9"/><path fill="none" stroke="#323f51" stroke-linecap="round" stroke-linejoin="round" stroke-width="10" d="M249.45 981.614c3.086 64.453 3.177 107.743.268 172.2a159.254 159.254 0 0 0-68.217.983" data-name="Path 1766"/><path fill="none" stroke="#353f4f" stroke-linecap="round" stroke-miterlimit="10" stroke-width="5" d="M269.519 434.56c-11.788 2.507-20.623 8.884-29.394 17.065" data-name="Path 1768"/><path fill="none" stroke="#323f51" stroke-linecap="round" stroke-linejoin="round" stroke-width="10" d="M98.424 609.83c-37.162 23.662-61.569 51.624-81.164 91.513-10.033 20.42-17.172 44.864-8.01 65.7 6.365 14.473 19.641 24.655 33.621 31.667 51.748 25.977 114.5 15.666 168.764 35.629" data-name="Path 1770"/><path fill="#323f51" d="M271.811 497.271c-8.825-.023-15.777 7.456-15.7 16.88.076 9.8 6.395 16.167 15.969 16.108 9.9-.059 15.456-5.961 15.389-16.348-.063-9.682-6.587-16.62-15.658-16.64Z" data-name="Path 1775"/><path fill="#fff" d="M266.515 514.192c-4.178-.05-6.935 2.663-6.86 6.743.077 4.112 2.544 6.816 6.355 6.957a7.088 7.088 0 0 0 7.5-6.929c-.039-4.044-2.804-6.721-6.995-6.771Z" data-name="Path 1776"/></g><g fill="none" stroke="#323f51" stroke-width="10" data-name="Group 737" transform="rotate(-4.01 487.71 -6199.988)"><ellipse cx="22.961" cy="24.551" stroke-miterlimit="10" data-name="Ellipse 61" rx="22.961" ry="24.551" transform="rotate(-72.98 226.953 167.875)"/><ellipse cx="22.961" cy="24.551" stroke-miterlimit="10" data-name="Ellipse 62" rx="22.961" ry="24.551" transform="rotate(-72.98 259.11 124.409)"/><ellipse cx="22.961" cy="24.551" stroke-miterlimit="10" data-name="Ellipse 63" rx="22.961" ry="24.551" transform="rotate(-72.98 237.272 76.723)"/><path d="M151.395 111.383c23.812-77.788 93.43-93.22 190.244-63.584s155.986 116.718 132.174 194.507-113.17 104.03-209.982 74.395-136.247-127.53-112.436-205.318Z" data-name="Path 683"/></g></g></svg>