<?xml version="1.0" encoding="utf-8"?>
<svg xmlns="http://www.w3.org/2000/svg" xmlns:bx="https://boxy-svg.com" viewBox="1574.643 256.572 2513.338 1181.669">
  <defs>
    
  </defs>
  <g id="Group_1348" data-name="Group 1348" transform="matrix(0.977665, 0, 0, 1.093461, 775.655579, -2938.408203)" style="">
    <path id="Path_729" data-name="Path 729" d="M 403.32 1942.432 C 500.769 1930.333 958.865 1881.742 1102.888 1925.928 C 1243.499 1969.067 1330.241 1908.378 1432.925 1941.605 C 1540.354 1976.367 1690.471 2185.316 1679.471 2268.81 C 1644.247 2536.165 1661.993 2418.735 807.923 2512.525 C 250.719 2761.032 -555.358 2647.446 -653.949 2512.651 C -681.807 2474.563 -684.131 2219.742 -691.426 2157.578 C -731.11 1819.402 -257.6 2024.489 403.32 1942.432 Z" fill="#fff" style="" transform="matrix(0.999801, -0.017846, 0.022323, 0.999801, -50.948622, 9.019196)"/>
    <path id="Path_730" data-name="Path 730" d="M -385.912 2462.672 C -385.912 2462.672 -291.243 2448.266 -154.444 2431.452 C -70.072 2421.082 30.204 2410.77 134.204 2402.136 C 283.215 2389.764 439.872 2380.837 568.345 2380.118 C 621.755 2379.819 670.506 2376.742 709.994 2359.384" fill="none" stroke="#323f51" stroke-width="5" style="" transform="matrix(0.995335, 0.086262, -0.107907, 0.995335, 260.92153, -2.730555)"/>
    <text transform="matrix(1.022845, 0, 0, 0.914527, -649.658508, 2119.370605)" style="font-family: &quot;Roboto Slab&quot;; font-size: 98px; white-space: pre;"><tspan>I denne del af programmet kan du arbejde med</tspan><tspan x="0" dy="1.5em">​</tspan><tspan>at </tspan><tspan style="fill: rgb(99, 129, 157); font-weight: 700;">få mere fysiske aktivitet</tspan><tspan> ind i din hverdag. </tspan><tspan x="0" dy="1.5em">​</tspan><tspan>Det kan du gøre på flere måder. Herunder finder</tspan><tspan x="0" dy="1.5em">​</tspan><tspan> du en oversigt over modulet:</tspan><tspan x="0" dy="1.5em">​</tspan></text>
    <path id="path-1" data-name="Path 729" d="M 1925.792 3098.984 C 2023.241 3084.375 2481.337 3025.706 2625.361 3079.057 C 2765.972 3131.143 2852.714 3057.867 2955.398 3097.985 C 3062.827 3139.957 3342.697 3442.804 3331.697 3543.615 C 3296.473 3866.421 3184.467 3674.074 2330.395 3787.317 C 1773.19 4087.366 967.112 3950.221 868.521 3787.469 C 840.663 3741.481 838.339 3433.809 831.044 3358.752 C 791.36 2950.437 1264.871 3198.06 1925.792 3098.984 Z" fill="#fff" style="" transform="matrix(0.999801, -0.017846, 0.022324, 0.999801, -77.960527, 37.825647)"/>
  </g>
  <g id="Group_1219" data-name="Group 1219" transform="matrix(1, 0, 0, 1, 1776.552612, -679.751709)">
    <g id="Group_1205" data-name="Group 1205" transform="translate(19971 22653)">
      <g id="Group_1204" data-name="Group 1204" transform="translate(-18488.57 -21743.621)">
        <path id="Nuance_A4_5a" data-name="Nuance A4 5a" d="M136.9,0A136.9,136.9,0,1,1,0,136.9,136.9,136.9,0,0,1,136.9,0Z" transform="translate(45.415 53.374)" fill="#7ccad8"/>
      </g>
    </g>
    <g id="Group_1215" data-name="Group 1215" transform="translate(20132 22412.594)">
      <text id="i" transform="translate(-18485.934 -21395.555)" fill="#323f51" font-size="150" font-family="RifficFree-Bold, Riffic Free" font-weight="700" style="white-space: pre;"><tspan x="0" y="146">i</tspan></text>
    </g>
  </g>
  <text transform="matrix(1, 0, 0, 1, 8.933009, -62.003502)" style="fill: rgb(51, 51, 51); font-family: &quot;Roboto Slab&quot;; font-size: 98px; white-space: pre;"><tspan x="1639.05" y="695.521">Du kan arbejde på at </tspan><tspan style="fill: rgb(99, 129, 157); font-weight: 700;">balancere dit </tspan><tspan x="1639.05" dy="1.5em">​</tspan><tspan style="fill: rgb(99, 129, 157); font-weight: 700;">aktivitetsniveau</tspan><tspan> på forskellige måder. Her finder</tspan><tspan x="1639.05" dy="1.5em">​</tspan><tspan>du en oversigt over indholdet i det følgende modul. </tspan><tspan x="1639.05" dy="1.5em">​</tspan><tspan>Du kan gå videre og arbejde med de sider du</tspan><tspan x="1639.05" dy="1.5em">​</tspan><tspan> syntes er relevante for dig.</tspan></text>
  <path id="path-2" data-name="Path 730" d="M 1922.469 1017.519 C 1922.469 1017.519 2015.024 1001.766 2148.767 983.381 C 2231.255 972.042 2329.291 960.766 2430.968 951.325 C 2576.651 937.797 2729.809 928.035 2855.413 927.249 C 2907.63 926.922 2955.292 923.558 2993.898 904.577" fill="none" stroke="#323f51" stroke-width="5" style="" transform="matrix(0.995335, 0.096479, -0.096479, 0.995335, 104.188166, -232.679497)"/>
  <g id="g-1" data-name="Group 1219" transform="matrix(1, 0, 0, 1, 304.243927, -1983.525513)">
    <g id="g-2" data-name="Group 1205" transform="translate(19971 22653)">
      <g id="g-3" data-name="Group 1204" transform="translate(-18488.57 -21743.621)">
        <path id="path-3" data-name="Nuance A4 5a" d="M136.9,0A136.9,136.9,0,1,1,0,136.9,136.9,136.9,0,0,1,136.9,0Z" transform="translate(45.415 53.374)" fill="#7ccad8"/>
      </g>
    </g>
    <g id="g-4" data-name="Group 1215" transform="translate(20132 22412.594)">
      <text id="text-1" transform="translate(-18485.934 -21395.555)" fill="#323f51" font-size="150" font-family="RifficFree-Bold, Riffic Free" font-weight="700" style="white-space: pre;"><tspan x="0" y="146">i</tspan></text>
    </g>
  </g>
</svg>
