<svg viewBox="767.528 199.458 169.099 176.294" xmlns="http://www.w3.org/2000/svg"><defs><clipPath id="KartotekPic_svg__a"><path d="M0 0h1166v1094H0z"/></clipPath></defs><path d="M857.802 204.642c41.736 0 75.57 37.838 75.57 84.513 0 46.673-12.849 69.471-85.33 84.512-41.735 0-75.572-84.512-75.572-84.512s43.596-84.513 85.332-84.513Z" data-name="Path 485" style="fill:#27303e"/><g><g data-name="Group 1402"><path fill="#fff" d="m820.514 259.226.612 58.019 77.847-.112.399-82.158-.06-3.118-78.896-.55.1 3.668-.002 24.251Zm75.457 54.753h-72.054v-24.175h72.05l.004 24.175Zm0-27.337h-72.054v-24.254h72.05l.004 24.254Zm0-27.416h-72.054v-24.251l72.05.253.004 23.998Z" data-name="Path 1864"/></g><text x="933.847" y="228.358" style="fill:#fff;font-family:Arial,sans-serif;font-size:4.9px;font-weight:700;white-space:pre" transform="matrix(-.00553 -5.56155 5.61423 -.00482 -408.544 5449.549)">[</text><text x="933.847" y="228.358" style="fill:#fff;font-family:Arial,sans-serif;font-size:4.9px;font-weight:700;white-space:pre" transform="matrix(-.00553 -5.56155 5.61423 -.00482 -408.491 5474.888)">[</text><text x="933.847" y="228.358" style="fill:#fff;font-family:Arial,sans-serif;font-size:4.9px;font-weight:700;white-space:pre" transform="matrix(-.00553 -5.56155 5.61423 -.00482 -409.103 5501.633)">[</text></g><text x="812.089" y="344.39" style="fill:#fff;font-family:Arial,sans-serif;font-size:21px;white-space:pre">Kartoteket</text></svg>