<?xml version="1.0" encoding="utf-8"?>
<svg xmlns="http://www.w3.org/2000/svg" xmlns:bx="https://boxy-svg.com" viewBox="-125.366 -619.988 1217.677 1779.401">
  <defs>
    <clipPath id="clip-1">
      <rect width="1166" height="1094"/>
    </clipPath>
    <clipPath id="clip-Illustration_-_Min_fysiske_energi_-_Min_fysiske_aktivitet">
      <rect width="545" height="513"/>
    </clipPath>
    <filter id="Path_1963" x="190" y="556.779" width="641.27" height="152.85" filterUnits="userSpaceOnUse">
      <feOffset dy="3" input="SourceAlpha"/>
      <feGaussianBlur stdDeviation="3" result="blur"/>
      <feFlood flood-opacity="0.161"/>
      <feComposite operator="in" in2="blur"/>
      <feComposite in="SourceGraphic"/>
    </filter>
    <filter id="Path_1967" x="653.348" y="624.203" width="137.455" height="541.215" filterUnits="userSpaceOnUse">
      <feOffset dy="3" input="SourceAlpha"/>
      <feGaussianBlur stdDeviation="3" result="blur-2"/>
      <feFlood flood-opacity="0.161"/>
      <feComposite operator="in" in2="blur-2"/>
      <feComposite in="SourceGraphic"/>
    </filter>
    <filter id="Path_1969" x="713.213" y="100.988" width="77.867" height="541.215" filterUnits="userSpaceOnUse">
      <feOffset dy="3" input="SourceAlpha"/>
      <feGaussianBlur stdDeviation="3" result="blur-3"/>
      <feFlood flood-opacity="0.161"/>
      <feComposite operator="in" in2="blur-3"/>
      <feComposite in="SourceGraphic"/>
    </filter>
    <filter id="Path_1975" x="712.744" y="624.205" width="541.215" height="77.867" filterUnits="userSpaceOnUse">
      <feOffset dy="3" input="SourceAlpha"/>
      <feGaussianBlur stdDeviation="3" result="blur-4"/>
      <feFlood flood-opacity="0.161"/>
      <feComposite operator="in" in2="blur-4"/>
      <feComposite in="SourceGraphic"/>
    </filter>
    <clipPath id="clip-Livskompasset">
      <rect width="1557" height="1263"/>
    </clipPath>
    <clipPath id="clip-3">
      <rect width="1166" height="1094"/>
    </clipPath>
    <clipPath id="clip-4">
      <rect width="545" height="513"/>
    </clipPath>
    <clipPath id="clip-path-10">
      <rect id="Rectangle_381" data-name="Rectangle 381" width="282.758" height="204.873" fill="none"/>
    </clipPath>
    <clipPath id="clip-path-11">
      <path id="Path_1356" data-name="Path 1356" d="M45.744,207.346c-3.23,1.412-5.035,6.486-4.864,12.034s-.342,9.645-1.281,12.374a7.249,7.249,0,0,0,4.1.172,85.1,85.1,0,0,0,1.093-15.243c1.116,7.023.263,13.98-.239,18.06a2.037,2.037,0,0,0,2.731.085s.33-11.32.427-16.216c.494,7.916.512,15.533.512,15.533s1.621.6,1.963-.682c-.085-5.292,0-9.9,0-9.9s.682,7.6,1.023,8.962c1.537.6,3.841.341,4.438-.511-.768-1.793-3.157-16.729-3.242-19.2,1.962,9.729,2.987,16.131,3.84,17.411,1.451.683,3.584-1.451,3.584-1.451s-1.28-.427-1.706-3.669-3.455-16.732-6.914-17.838a9,9,0,0,0-2.741-.442,6.829,6.829,0,0,0-2.721.528" transform="translate(-39.599 -206.818)" fill="none"/>
    </clipPath>
    <linearGradient id="linear-gradient" x1="-1.123" y1="0.935" x2="-1.091" y2="0.935" gradientUnits="objectBoundingBox">
      <stop offset="0" stop-color="#fd9c00"/>
      <stop offset="0.552" stop-color="#fdc600"/>
      <stop offset="1" stop-color="#fde400"/>
    </linearGradient>
    <clipPath id="clip-path-13">
      <path id="Path_1366" data-name="Path 1366" d="M85.126,84.625c2.085,11.462,6.486,36.692,10.98,56.645,70.9,1.762,130.085-25.157,130.085-25.157L208.43,49.835H207.9c-54.983,0-102.856,16.092-122.773,34.79" transform="translate(-85.126 -49.835)" fill="none"/>
    </clipPath>
    <linearGradient id="linear-gradient-2" x1="-0.392" y1="1.418" x2="-0.387" y2="1.418" gradientUnits="objectBoundingBox">
      <stop offset="0" stop-color="#012d46"/>
      <stop offset="1" stop-color="#071d2e"/>
    </linearGradient>
    <clipPath id="clip-path-15">
      <rect id="Rectangle_379" data-name="Rectangle 379" width="123.597" height="61.052" fill="none"/>
    </clipPath>
    <clipPath id="clip-path">
      <rect id="Rectangle_448" data-name="Rectangle 448" width="219.217" height="247.122" fill="none"/>
    </clipPath>
    
  </defs>
  <g id="Group_1216" data-name="Group 1216" transform="matrix(0.492435, 0, 0, 0.458455, -84.419907, -3267.861816)" style="">
    <g id="Group_1209" data-name="Group 1209" transform="translate(53.113 -929)">
      <path id="Path_1764" data-name="Path 1764" d="M-976.144,187.328" transform="translate(3011.323 9745.573)" fill="none" stroke="#323f51" stroke-width="1"/>
      <path id="Path_1765" data-name="Path 1765" d="M-982.584,262.108c.825,67.193,1.644,112.427,2.469,179.625a342.6,342.6,0,0,0,67.853,1.291" transform="translate(2980.024 10055.532)" fill="none" stroke="#323f51" stroke-linecap="round" stroke-linejoin="round" style="stroke-width: 6px;"/>
      <path id="Path_1767" data-name="Path 1767" d="M-703.112,152.034c52.563,29.635,84.427,86.43,107.008,143.07a794.338,794.338,0,0,1,54.754,339.5c-1.316,22.231-3.739,45.023-13.792,64.81-12.76,25.118-36.509,42.677-61.4,55.272-47.245,23.9-100.512,32.948-153.207,35.829-44.8,2.449-90.807.458-132.609-16.1s-79.11-49.628-92.159-93.272c-7.726-25.833-6.649-53.42-5.5-80.395q1.693-39.83,3.39-79.659c3.025-71.1,6.279-143.451,29.77-210.49s70.717-129.194,136.894-152.342c21.068-7.373,46.745-24.773,68.729-21.089,47.747,8,25.075,2.886,58.123,14.864" stroke-miterlimit="10" style="stroke-width: 6px; stroke: rgb(53, 63, 79); fill: rgb(126, 200, 214);" transform="translate(2700.033 9535.577)"/>
      <path id="Path_1771" data-name="Path 1771" d="M-837.913,192.036c37.6,11.01,66.69,56.671,66.727,104.73.008,11.381-1.5,22.947-5.641,33.1-7.695,18.846-23.243,30.376-38.112,40.609-52.954,36.421-143.627-188.5-199.462-159.5" transform="translate(2978.708 9752.894)" fill="none" stroke="#323f51" stroke-linecap="round" stroke-linejoin="round" style="stroke-width: 6px;"/>
      <path id="Path_1769" data-name="Path 1769" d="M466.3,124.343c11.788,2.507,20.613,8.884,29.395,17.065" transform="translate(1498.272 9685.205)" fill="none" stroke="#353f4f" stroke-linecap="round" stroke-miterlimit="10" stroke-width="5"/>
      <path id="Path_1772" data-name="Path 1772" d="M15.988,3.753a48.36,48.36,0,0,0-13.876,9.3C.06,14.967-.87,17.106,1.145,19.389c1.932,2.186,3.925,1.142,5.764-.537C21.275,5.74,37.025,4.964,53.744,12.963c.833.4,1.687.754,2.506,1.174,2.063,1.056,4.047,1.114,5.273-1.159,1.271-2.36.535-4.38-1.807-5.6C45.7.107,31.263-2.628,15.988,3.753Z" transform="matrix(-0.921, 0.391, -0.391, -0.921, 1995.906, 9933.435)" fill="#323f51"/>
      <path id="Path_1773" data-name="Path 1773" d="M1025.769,500.6c-9.7-.113-16.1,6.181-15.93,15.662.173,9.553,5.91,15.829,14.762,16.164,9.518.362,17.52-7.031,17.427-16.1C1041.93,506.935,1035.5,500.718,1025.769,500.6Z" transform="translate(929.422 9342.049)" fill="#323f51"/>
      <path id="Path_1774" data-name="Path 1774" d="M 1948.295 9847.55 C 1944.145 9847.5 1941.403 9850.198 1941.474 9854.256 C 1941.55 9858.345 1944.007 9861.034 1947.792 9861.174 C 1951.784 9861.412 1955.174 9858.282 1955.253 9854.283 C 1955.215 9850.262 1952.463 9847.6 1948.295 9847.55 Z" fill="#fff" opacity="0.9"/>
      <path id="Path_1766" data-name="Path 1766" d="M-874.248,262.451c3.086,64.453,3.177,107.743.268,172.2a159.254,159.254,0,0,0-68.217.983" transform="translate(2732.312 10064.023)" fill="none" stroke="#323f51" stroke-linecap="round" stroke-linejoin="round" style="stroke-width: 6px;"/>
      <path id="Path_1768" data-name="Path 1768" d="M507.083,124.343c-11.788,2.507-20.623,8.884-29.394,17.065" transform="translate(1371.05 9655.077)" fill="none" stroke="#353f4f" stroke-linecap="round" stroke-miterlimit="10" stroke-width="5"/>
      <path id="Path_1770" data-name="Path 1770" d="M-841.237,191.7c-37.162,23.662-61.569,51.624-81.164,91.513-10.033,20.42-17.172,44.864-8.01,65.7,6.365,14.473,19.641,24.655,33.621,31.667,51.748,25.977,114.5,15.666,168.764,35.629" transform="translate(2548.275 9762.99)" fill="none" stroke="#323f51" stroke-linecap="round" stroke-linejoin="round" style="stroke-width: 6px;"/>
      <path id="Path_1775" data-name="Path 1775" d="M1052.8,500.4c-8.825-.023-15.777,7.456-15.7,16.88.076,9.8,6.395,16.167,15.969,16.108,9.9-.059,15.456-5.961,15.389-16.348C1068.395,507.358,1061.871,500.42,1052.8,500.4Z" transform="translate(827.625 9341.731)" fill="#323f51"/>
      <path id="Path_1776" data-name="Path 1776" d="M 1874.29 9845.901 C 1870.112 9845.851 1867.355 9848.564 1867.43 9852.644 C 1867.507 9856.756 1869.974 9859.46 1873.785 9859.601 C 1877.798 9859.836 1881.202 9856.691 1881.285 9852.672 C 1881.246 9848.628 1878.481 9845.951 1874.29 9845.901 Z" fill="#fff"/>
    </g>
  </g>
  <g id="g-1" clip-path="url(#clip-1)" transform="matrix(1, 0, 0, 1, 859.435793, 758.896487)"/>
  <g id="Illustration_-_Min_fysiske_energi_-_Min_fysiske_aktivitet" data-name="Illustration - Min fysiske energi - Min fysiske aktivitet" clip-path="url(#clip-Illustration_-_Min_fysiske_energi_-_Min_fysiske_aktivitet)" transform="matrix(1, 0, 0, 1, 564.834596, 356.703746)"/>
  <g id="Group_1348" data-name="Group 1348" transform="matrix(0.783532, 0, 0, 1.093461, 1389.237551, -1978.206991)" style="">
    <path id="Path_729" data-name="Path 729" d="M -1718.687 1348.567 C -1463.215 1214.483 -700.089 1383.588 -621.421 1368.591 C -449.219 1335.76 -465.299 1733.871 -500.785 1819.506 C -646.633 2171.471 -371.36 2365.573 -1026.603 2477.941 C -1223.287 2581.842 -1598.817 2467.42 -1711.895 2384.578 C -1987.023 2183.012 -1867.733 1787.485 -1863.485 1656.317 C -1861.847 1605.789 -1781.704 1381.642 -1718.687 1348.567 Z" fill="#fff" style="" transform="matrix(0.99969, -0.017844, 0.034752, 0.99969, -66.673218, -20.559736)"/>
  </g>
  <g id="Group_840" data-name="Group 840" transform="matrix(1, 0, 0, 1, 348.903932, -1120.165853)">
    <rect x="-375.24" y="620.37" width="957.724" height="1203.674" style="stroke-width: 4px; stroke-dasharray: 8px; stroke: rgb(85, 117, 145); fill: rgba(216, 216, 216, 0);" rx="183.059" ry="183.059"/>
    <g id="g-2" data-name="Group 840" transform="matrix(1, 0, 0, 1, -969.462719, 229.481967)">
      <path id="Path_1178" data-name="Path 1178" d="M 715.887 607.71 C 726.925 607.427 736.153 598.635 736.496 588.072 C 736.839 577.509 728.171 569.176 717.132 569.459 C 706.093 569.742 696.867 578.534 696.523 589.097 C 696.179 599.66 704.849 607.993 715.887 607.71 Z" fill="#557591" transform="matrix(-0.292372, -0.956305, 0.956305, -0.292372, 363.130582, 1445.87144)"/>
      <text style="font-family: &quot;Roboto Slab&quot;; font-size: 36px; white-space: pre;" x="773.944" y="599.378">Gode venskaber</text>
      <text style="font-family: &quot;Roboto Slab&quot;; font-size: 36px; white-space: pre;" x="779.414" y="696.471">Samvær med dem, man holder af</text>
      <text style="font-family: &quot;Roboto Slab&quot;; font-size: 36px; white-space: pre;" x="785.395" y="787.177">Lære nyt</text>
      <text style="font-family: &quot;Roboto Slab&quot;; font-size: 36px; white-space: pre;" x="784.355" y="878.695">Udvikle sig selv</text>
      <text style="font-family: &quot;Roboto Slab&quot;; font-size: 36px; white-space: pre;" x="782.92" y="967.721">Være i naturen</text>
      <text style="font-family: &quot;Roboto Slab&quot;; font-size: 36px; white-space: pre;" x="786.643" y="1062.4">Føle nærvær</text>
      <text style="font-family: &quot;Roboto Slab&quot;; font-size: 36px; white-space: pre;" x="780.649" y="1160.58">Bruge kroppen</text>
      <text style="font-family: &quot;Roboto Slab&quot;; font-size: 36px; white-space: pre;" x="781.257" y="1256.46">Tage ansvar</text>
      <text style="font-family: &quot;Roboto Slab&quot;; font-size: 36px; white-space: pre;" x="781.901" y="1353.61">Være engageret i samfundet</text>
      <text style="font-family: &quot;Roboto Slab&quot;; font-size: 36px; white-space: pre;" x="780.955" y="1431.98">Spise sundt</text>
      <text style="font-family: &quot;Roboto Slab&quot;; font-size: 36px; white-space: pre;" x="785.279" y="1523.3">Harmoni med sig selv</text>
      <path id="path-4" data-name="Path 1178" d="M 716.703 698.093 C 727.741 697.81 736.969 689.018 737.312 678.455 C 737.655 667.892 728.987 659.559 717.948 659.842 C 706.909 660.125 697.683 668.917 697.339 679.48 C 696.995 690.043 705.665 698.376 716.703 698.093 Z" fill="#557591" transform="matrix(-0.292372, -0.956305, 0.956305, -0.292372, 277.751487, 1563.460239)"/>
      <path id="path-5" data-name="Path 1178" d="M 719.939 793.329 C 730.977 793.046 740.205 784.254 740.548 773.691 C 740.891 763.128 732.223 754.795 721.184 755.078 C 710.145 755.361 700.919 764.153 700.575 774.716 C 700.231 785.279 708.901 793.612 719.939 793.329 Z" fill="#557591" transform="matrix(-0.292372, -0.956305, 0.956305, -0.292372, 190.858967, 1689.635156)"/>
      <path id="path-6" data-name="Path 1178" d="M 717.596 885.069 C 728.634 884.786 737.862 875.994 738.205 865.431 C 738.548 854.868 729.88 846.535 718.841 846.818 C 707.802 847.101 698.576 855.893 698.232 866.456 C 697.888 877.019 706.558 885.352 717.596 885.069 Z" fill="#557591" transform="matrix(-0.292372, -0.956305, 0.956305, -0.292372, 100.099573, 1805.956733)"/>
      <path id="path-7" data-name="Path 1178" d="M 718.979 972.406 C 730.017 972.123 739.245 963.331 739.588 952.768 C 739.931 942.205 731.263 933.872 720.224 934.155 C 709.185 934.438 699.959 943.23 699.615 953.793 C 699.271 964.356 707.941 972.689 718.979 972.406 Z" fill="#557591" transform="matrix(-0.292372, -0.956305, 0.956305, -0.292372, 18.3661, 1920.151231)"/>
      <path id="path-8" data-name="Path 1178" d="M 721.044 1065.78 C 732.082 1065.497 741.31 1056.705 741.653 1046.142 C 741.996 1035.579 733.328 1027.246 722.289 1027.529 C 711.25 1027.812 702.024 1036.604 701.68 1047.167 C 701.336 1057.73 710.006 1066.063 721.044 1065.78 Z" fill="#557591" transform="matrix(-0.292372, -0.956305, 0.956305, -0.292372, -68.259165, 2042.799968)"/>
      <path id="path-9" data-name="Path 1178" d="M 722.903 1164.339 C 733.941 1164.056 743.169 1155.264 743.512 1144.701 C 743.855 1134.138 735.187 1125.805 724.148 1126.088 C 713.109 1126.371 703.883 1135.163 703.539 1145.726 C 703.195 1156.289 711.865 1164.622 722.903 1164.339 Z" fill="#557591" transform="matrix(-0.292372, -0.956305, 0.956305, -0.292372, -160.10903, 2171.952579)"/>
      <path id="path-10" data-name="Path 1178" d="M 724.265 1258.455 C 735.303 1258.172 744.531 1249.38 744.874 1238.817 C 745.217 1228.254 736.549 1219.921 725.51 1220.204 C 714.471 1220.487 705.245 1229.279 704.901 1239.842 C 704.557 1250.405 713.227 1258.738 724.265 1258.455 Z" fill="#557591" transform="matrix(-0.292372, -0.956305, 0.956305, -0.292372, -248.352361, 2294.887898)"/>
      <path id="path-11" data-name="Path 1178" d="M 726.411 1355.124 C 737.449 1354.841 746.677 1346.049 747.02 1335.486 C 747.363 1324.923 738.695 1316.59 727.656 1316.873 C 716.617 1317.156 707.391 1325.948 707.047 1336.511 C 706.703 1347.074 715.373 1355.407 726.411 1355.124 Z" fill="#557591" transform="matrix(-0.292372, -0.956305, 0.956305, -0.292372, -338.024019, 2421.872512)"/>
      <path id="path-12" data-name="Path 1178" d="M 724.862 1434.211 C 735.9 1433.928 745.128 1425.136 745.471 1414.573 C 745.814 1404.01 737.146 1395.677 726.107 1395.96 C 715.068 1396.243 705.842 1405.035 705.498 1415.598 C 705.154 1426.161 713.824 1434.494 724.862 1434.211 Z" fill="#557591" transform="matrix(-0.292372, -0.956305, 0.956305, -0.292372, -415.657163, 2522.600971)"/>
      <path id="path-13" data-name="Path 1178" d="M 728.676 1523.172 C 739.714 1522.889 748.942 1514.097 749.285 1503.534 C 749.628 1492.971 740.96 1484.638 729.921 1484.921 C 718.882 1485.204 709.656 1493.996 709.312 1504.559 C 708.968 1515.122 717.638 1523.455 728.676 1523.172 Z" fill="#557591" transform="matrix(-0.292372, -0.956305, 0.956305, -0.292372, -495.801882, 2641.219008)"/>
    </g>
    <path id="path-2" data-name="Path 1179" d="M 401.599 1940.093 C 416.816 1939.697 429.539 1927.394 430.012 1912.612 C 430.486 1897.829 418.535 1886.168 403.314 1886.565 C 388.095 1886.961 375.375 1899.264 374.901 1914.046 C 374.427 1928.828 386.38 1940.489 401.599 1940.093 Z" style="stroke-dasharray: 10px; stroke: rgb(85, 117, 145); fill: rgba(85, 117, 145, 0); stroke-width: 4px;" transform="matrix(-0.292372, -0.956305, 0.956305, -0.292372, -1309.601927, 2857.60361)"/>
    <path id="path-3" data-name="Path 1179" d="M 335.539 1899.704 C 350.756 1899.308 363.479 1887.004 363.952 1872.222 C 364.426 1857.44 352.475 1845.779 337.254 1846.176 C 322.035 1846.572 309.315 1858.875 308.841 1873.656 C 308.367 1888.438 320.32 1900.1 335.539 1899.704 Z" style="stroke-dasharray: 10px; stroke: rgb(85, 117, 145); fill: rgba(85, 117, 145, 0); stroke-width: 4px;" transform="matrix(-0.292372, -0.956305, 0.956305, -0.292372, -1356.351845, 2742.232545)"/>
  </g>
  <g id="Livskompasset" clip-path="url(#clip-Livskompasset)" transform="matrix(0.23305, 0, 0, 0.254768, 705.598816, -612.280701)" style="">
    <path id="Path_1970" data-name="Path 1970" d="M-18456-22982l293.992,291.992L-17844-23004l-136-92-252-36-224,111.992Z" transform="translate(18879 23321.418)" fill="#8c1b35"/>
    <path id="Path_1971" data-name="Path 1971" d="M-18438.293-22987.7l276.285,297.7L-17844-23004l-136-92-252-36-224,111.992Z" transform="translate(-21981.004 18781.41) rotate(90)" fill="#7ec8d6"/>
    <path id="Path_1972" data-name="Path 1972" d="M-18452.553-22993.959l290.545,303.951L-17844-23004l-136-92-252-36-224,111.992Z" transform="translate(-17440.996 -22062.676) rotate(180)" fill="#e79e17"/>
    <path id="Path_1973" data-name="Path 1973" d="M-18444.1-22996.977l282.088,306.969L-17844-23004l-136-92-252-36-224,111.992Z" transform="translate(23419.008 -17509.039) rotate(-90)" fill="#009cb2"/>
    <g id="Group_1497" data-name="Group 1497" transform="translate(-633.402 169.469)">
      <path id="Path_1953" data-name="Path 1953" d="M1658.339,117.714c-179.737-179.737-471.148-179.737-650.887,0s-179.738,471.148,0,650.886,471.149,179.737,650.887,0S1838.077,297.453,1658.339,117.714Zm-609.7,609.7c-156.994-156.994-156.994-411.529,0-568.522s411.529-156.994,568.523,0,156.992,411.528,0,568.522S1205.628,884.413,1048.636,727.419Z" transform="translate(19.788 22.317)" fill="#353f4f"/>
      <path id="Path_1954" data-name="Path 1954" d="M1623.382,130.443c-166.57-166.569-436.631-166.569-603.2,0s-166.569,436.633,0,603.2,436.631,166.57,603.2,0S1789.951,297.013,1623.382,130.443ZM1037.52,716.305c-156.992-156.994-156.992-411.528,0-568.522s411.529-156.994,568.522,0,156.993,411.528,0,568.522S1194.514,873.3,1037.52,716.305Z" transform="translate(30.902 33.431)" opacity="0.31"/>
      <path id="Path_1955" data-name="Path 1955" d="M1597.96,139.7c-156.992-156.994-411.528-156.994-568.522,0s-156.994,411.53,0,568.522,411.529,156.994,568.522,0S1754.953,296.695,1597.96,139.7Zm-549,549c-146.214-146.213-146.214-383.27,0-529.484s383.27-146.213,529.484,0,146.212,383.272,0,529.485S1195.17,834.917,1048.958,688.7Z" transform="translate(38.984 41.513)" fill="#11171c" opacity="0.08"/>
      <g id="Group_1494" data-name="Group 1494" transform="translate(1074.597 196.898)">
        <line id="Line_124" data-name="Line 124" x1="9.641" y2="35.652" transform="translate(340.03 3.273)" fill="none" stroke="#2a4b72" stroke-miterlimit="10" stroke-width="0.536"/>
        <line id="Line_125" data-name="Line 125" x2="9.477" y2="35.696" transform="translate(206.229)" fill="none" stroke="#2a4b72" stroke-miterlimit="10" stroke-width="0.536"/>
        <line id="Line_126" data-name="Line 126" x2="26.054" y2="26.175" transform="translate(79.615 70.289)" fill="none" stroke="#2a4b72" stroke-miterlimit="10" stroke-width="0.536"/>
        <line id="Line_127" data-name="Line 127" x2="35.652" y2="9.641" transform="translate(3.36 195.122)" fill="none" stroke="#2a4b72" stroke-miterlimit="10" stroke-width="0.536"/>
        <line id="Line_128" data-name="Line 128" y1="9.476" x2="35.696" transform="translate(0 336.265)" fill="none" stroke="#2a4b72" stroke-miterlimit="10" stroke-width="0.536"/>
        <line id="Line_129" data-name="Line 129" y1="26.055" x2="26.175" transform="translate(71.83 444.766)" fill="none" stroke="#2a4b72" stroke-miterlimit="10" stroke-width="0.536"/>
        <line id="Line_130" data-name="Line 130" y1="35.652" x2="9.641" transform="translate(202.468 511.96)" fill="none" stroke="#2a4b72" stroke-miterlimit="10" stroke-width="0.536"/>
        <line id="Line_131" data-name="Line 131" x1="9.477" y1="35.696" transform="translate(341.403 509.179)" fill="none" stroke="#2a4b72" stroke-miterlimit="10" stroke-width="0.536"/>
        <line id="Line_132" data-name="Line 132" x1="26.054" y1="26.175" transform="translate(450.029 442.417)" fill="none" stroke="#2a4b72" stroke-miterlimit="10" stroke-width="0.536"/>
        <line id="Line_133" data-name="Line 133" x1="35.652" y1="9.641" transform="translate(511.059 332.416)" fill="none" stroke="#2a4b72" stroke-miterlimit="10" stroke-width="0.536"/>
        <line id="Line_134" data-name="Line 134" x1="35.695" y2="9.476" transform="translate(508.823 198.491)" fill="none" stroke="#2a4b72" stroke-miterlimit="10" stroke-width="0.536"/>
      </g>
      <g id="Group_1495" data-name="Group 1495" transform="translate(1038.889 151.681)">
        <path id="Path_1956" data-name="Path 1956" d="M1559.417,669.679,1205.753,396.76,932.834,43.1,1286.5,316.015Z" transform="translate(-932.834 -43.096)" fill="#252c37"/>
        <path id="Path_1957" data-name="Path 1957" d="M1246.125,356.388,932.834,43.1,1246.125,284.86Z" transform="translate(-932.834 -43.096)" fill="#353f4f"/>
        <path id="Path_1958" data-name="Path 1958" d="M1180.86,291.122l313.292,313.292L1180.86,362.65Z" transform="translate(-867.568 22.17)" fill="#353f4f"/>
        <path id="Path_1959" data-name="Path 1959" d="M1252.387,356.388,1494.152,43.1,1180.86,284.86v71.528h71.528" transform="translate(-867.568 -43.096)" fill="#252c37"/>
        <path id="Path_1960" data-name="Path 1960" d="M1174.6,291.123,932.834,604.414,1246.125,362.65V291.122H1174.6" transform="translate(-932.834 22.17)" fill="#252c37"/>
        <path id="Path_1961" data-name="Path 1961" d="M1246.125,291.122,932.834,604.414,1174.6,291.122Z" transform="translate(-932.834 22.17)" fill="#353f4f"/>
        <path id="Path_1962" data-name="Path 1962" d="M1180.86,356.388,1494.152,43.1,1252.388,356.388Z" transform="translate(-867.568 -43.096)" fill="#353f4f"/>
      </g>
      <g id="Group_1496" data-name="Group 1496" transform="translate(832.401 -62.48)">
        <g transform="matrix(1, 0, 0, 1, -199, -106.99)" filter="url(#Path_1963)">
          <path id="Path_1963-2" data-name="Path 1963" d="M1455.672,313.508,1355.459,377.93,832.4,309.29l523.371-66.21Z" transform="translate(-633.4 319.7)" fill="#029cb2"/>
        </g>
        <path id="Path_1964" data-name="Path 1964" d="M1355.616,308.014,832.4,306.8l463.625-58.652Z" transform="translate(-832.402 215.201)" fill="#0191a6"/>
        <path id="Path_1965" data-name="Path 1965" d="M1183.163,288.282l523.214,1.215-463.625,58.652Z" transform="translate(-659.948 234.933)" fill="#353f4f"/>
        <path id="Path_1966" data-name="Path 1966" d="M1262.67,401.147,1204.018-62.48l-60.8,463.348,59.589,59.866,59.866-59.589" transform="translate(-679.589 62.48)" fill="#6a0c21"/>
        <path id="Path_1974" data-name="Path 1974" d="M1262.67,401.147,1204.018-62.48l-60.8,463.348,59.589,59.866,59.866-59.589" transform="translate(983.48 -679.588) rotate(90)" fill="#75b9c7"/>
        <g transform="matrix(1, 0, 0, 1, -199, -106.99)" filter="url(#Path_1967)">
          <path id="Path_1967-2" data-name="Path 1967" d="M1143.028,347.871,1201.68,811.5l60.8-463.348-59.589-59.866-59.866,59.589" transform="translate(-480.68 341.92)" fill="#e79e17"/>
        </g>
        <path id="Path_1968" data-name="Path 1968" d="M1202.895,288.282,1201.68,811.5l-58.652-463.625Z" transform="translate(-679.681 234.933)" fill="#d69317"/>
        <g transform="matrix(1, 0, 0, 1, -199, -106.99)" filter="url(#Path_1969)">
          <path id="Path_1969-2" data-name="Path 1969" d="M1183.163,460.735l1.215-523.215,58.651,463.626Z" transform="translate(-460.95 169.47)" fill="#9f1a39"/>
        </g>
        <g transform="matrix(1, 0, 0, 1, -199, -106.99)" filter="url(#Path_1975)">
          <path id="Path_1975-2" data-name="Path 1975" d="M1183.163,460.735l1.215-523.215,58.651,463.626Z" transform="translate(1182.48 -552.96) rotate(90)" fill="#7ec8d6"/>
        </g>
      </g>
      <g id="Group_1201" data-name="Group 1201" transform="translate(1248.938 359.52)">
        <path id="Nuance_A4_5a" data-name="Nuance A4 5a" d="M1212.635,217.476a103.94,103.94,0,1,1-103.94,103.94h0A103.941,103.941,0,0,1,1212.635,217.476Z" transform="translate(-1108.695 -217.476)" fill="#fff"/>
        <path id="Path_200" data-name="Path 200" d="M1198.643,272.818c.112,11.305,36.543,10.956,36.433-.353" transform="translate(-1069.923 -193.773)" fill="#fff" stroke="#394151" stroke-linecap="round" stroke-linejoin="round" stroke-width="6"/>
        <path id="Path_201" data-name="Path 201" d="M1157.7,272.818c.112,11.305,36.542,10.956,36.432-.353" transform="translate(-1087.57 -193.773)" fill="#fff" stroke="#394151" stroke-linecap="round" stroke-linejoin="round" stroke-width="6"/>
        <path id="Path_202" data-name="Path 202" d="M1163.619,309.48c13.813,10.887,29.157,8.4,41.728-.4" transform="translate(-1085.021 -177.992)" fill="#fff" stroke="#394151" stroke-linecap="round" stroke-linejoin="round" stroke-width="6"/>
      </g>
    </g>
  </g>
  <g id="g-5" clip-path="url(#clip-3)" transform="matrix(1, 0, 0, 1, 5291.510256, -674.041341)"/>
  <g id="g-6" data-name="Illustration - Min fysiske energi - Min fysiske aktivitet" clip-path="url(#clip-4)" transform="matrix(1, 0, 0, 1, 4996.908693, -1076.23409)"/>
  <g id="Group_742" data-name="Group 742" transform="matrix(0.45697, 0, 0, 0.408868, 401.829958, -314.904561)" style="">
    <g id="Group_681" data-name="Group 681" transform="translate(360.729 2101.486) rotate(-3)">
      <g id="Group_322" data-name="Group 322" transform="translate(0 0)">
        <g id="Group_256" data-name="Group 256" transform="translate(0 0)">
          <g id="Group_658" data-name="Group 658" transform="translate(0 0)">
            <path id="Path_419" data-name="Path 419" d="M86.908,0C62.714,4.1,5.443,1.188.5,2.748-9.255,20.014,126.91,7.423,132.488,48.929" transform="translate(62.569 302.71)" fill="none" stroke="#323f51" stroke-linecap="round" stroke-linejoin="round" stroke-width="7"/>
            <path id="Path_1048" data-name="Path 1048" d="M42.818,0c23.52,4.58,79.194,1.328,84,3.071C136.3,22.366-4.793,9.92.126,47.369" transform="translate(125.075 305.562)" fill="none" stroke="#323f51" stroke-linecap="round" stroke-linejoin="round" stroke-width="7"/>
            <path id="Path_421" data-name="Path 421" d="M.124,244.809c-.412,7.463.072,15.247,3.55,21.864,4.8,9.134,14.414,14.554,23.672,19.107,23.441,11.532,48.971,20.946,75.035,19.191s52.625-17.112,60.759-41.936c3.563-10.87,3.419-22.554,3.238-33.992l-1.514-96.656c-.646-41.087-1.471-92.59-37.08-120.462C103.162-7.348,81.541-3.035,66.556,23.235,50.431,51.5,47.371,88,38.968,118.954,27.711,160.406,2.518,201.558.124,244.809Z" transform="translate(76.001 0)" fill="none" stroke="#323f51" stroke-miterlimit="10" stroke-width="7"/>
            <path id="Path_422" data-name="Path 422" d="M28.979,86.839C17.448,76.93,9.877,65.221,3.8,48.519.684,39.968-1.531,29.734,1.312,21.006a25.73,25.73,0,0,1,10.43-13.26C27.8-3.131,29.849,8.362,46.687,0" transform="matrix(0.191, -0.982, 0.982, 0.191, 0, 199.338)" fill="none" stroke="#323f51" stroke-linecap="round" stroke-linejoin="round" stroke-width="7"/>
            <path id="Path_423" data-name="Path 423" d="M23.145,0C10.1,4.724.012,24.325,0,44.952A46.012,46.012,0,0,0,1.957,59.16c2.669,8.09,8.061,13.04,13.218,17.43,18.367,15.635,19.538-9.347,38.9,3.105" transform="translate(238.128 219.625) rotate(-81)" fill="none" stroke="#323f51" stroke-linecap="round" stroke-linejoin="round" stroke-width="7"/>
          </g>
        </g>
        <path id="Path_498" data-name="Path 498" d="M4.948,4.268a15.406,15.406,0,0,1-4.3-2.341C.008,1.444-.278.9.354.318.96-.24,1.579.022,2.148.446,6.6,3.755,11.5,3.928,16.724,1.87c.26-.1.527-.194.783-.3.645-.271,1.263-.289,1.64.286.391.6.159,1.112-.573,1.425C14.2,5.149,9.693,5.866,4.948,4.268Z" transform="matrix(-0.951, 0.309, -0.309, -0.951, 161.839, 69.905)" fill="#323f51"/>
        <path id="Path_499" data-name="Path 499" d="M4.948,4.268a15.406,15.406,0,0,1-4.3-2.341C.008,1.444-.278.9.354.318.96-.24,1.579.022,2.148.446,6.6,3.755,11.5,3.928,16.724,1.87c.26-.1.527-.194.783-.3.645-.271,1.263-.289,1.64.286.391.6.159,1.112-.573,1.425C14.2,5.149,9.693,5.866,4.948,4.268Z" transform="matrix(-0.966, -0.259, 0.259, -0.966, 214.221, 75.433)" fill="#323f51"/>
      </g>
      <path id="Path_604" data-name="Path 604" d="M12.55,5.478A9.855,9.855,0,0,0,8.1.5,2.839,2.839,0,0,0,6.412.011,2.065,2.065,0,0,0,4.774,1.532a4.036,4.036,0,0,0,.147,2.33,7.905,7.905,0,0,0,3.722,4.48c-2.36.076-8.045.978-8.6,3.89-.762,4,8.458,7.406,10.326,3.287" transform="matrix(0.891, -0.454, 0.454, 0.891, 166.153, 129.939)" fill="none" stroke="#323f51" stroke-linecap="round" stroke-miterlimit="10" stroke-width="5"/>
      <path id="Path_605" data-name="Path 605" d="M3.039,0C2.268,1.348,1.464,2.682.673,4.017A4.519,4.519,0,0,0,.828,9c1.634,2.258,6.881,4.025,8.59,4.5,5.114,1.43,5.269-3.665,6.636-6.05" transform="matrix(0.891, -0.454, 0.454, 0.891, 185.664, 99.856)" fill="none" stroke="#323f51" stroke-linecap="round" stroke-miterlimit="10" stroke-width="5"/>
      <path id="Path_606" data-name="Path 606" d="M3.039,0C2.267,1.349,1.464,2.682.673,4.017A4.515,4.515,0,0,0,.83,9c1.634,2.258,6.879,4.025,8.588,4.5,5.114,1.43,5.271-3.665,6.636-6.05" transform="matrix(0.891, -0.454, 0.454, 0.891, 152.595, 98.238)" fill="none" stroke="#323f51" stroke-linecap="round" stroke-miterlimit="10" stroke-width="5"/>
      <path id="Path_611" data-name="Path 611" d="M23.69,43.676l2.689-2.4C18.971,44.087,12.94,43.17,8.8,36.97c-5.721-8.574.874-22.056,15.129-19.7l-6.791-2.612a11.9,11.9,0,0,1,13.4-9.718A11.859,11.859,0,0,1,41.016,17.249l-6.579.558.159,3.777c2.39-.248,4.633-.466,6.874-.718,6.755-.76,13.511-1.544,20.267-2.3,1.492-.167,3.042-.218,1.917-2.634L45.408,17.018C43.99,13.2,43.214,9.373,41.267,6.277,37.894.916,32.436-.824,26.332.349,20.027,1.56,16.054,5.622,14.621,11.843c-.5,2.152-1.124,3.239-3.455,3.856A15.212,15.212,0,0,0,.387,33.854,15.385,15.385,0,0,0,17.661,45.673c1.637-.241,2.885-.6,4.234,1.179,5.232,6.9,13.687,8.4,21.074,4.058,6.356-3.741,8.895-12.123,5.965-19.676-.154-.4-.249-.818-.459-1.518,4.922-1.955,9.8-3.823,14.608-5.867.89-.378,1.477-1.47,2.2-2.232L64.5,20.7c-9.193,3.13-18.388,6.259-27.89,9.493l1.392,3.533c2.256-.8,4.283-1.513,6.284-2.219,3.038,5.58,1.034,12.081-4.707,15.674A11.858,11.858,0,0,1,23.69,43.676Z" transform="matrix(0.996, 0.087, -0.087, 0.996, 90.616, 111.833)" fill="#6c85a0"/>
    </g>
  </g>
  <g id="Group_743" data-name="Group 743" transform="matrix(1, 0, 0, 1, 3056.06299, -2990.391561)">
    <g id="Group_83" data-name="Group 83" transform="matrix(0.768556, 0, 0, 0.622552, -2399.186523, 3211.389648)" style="">
      <path id="Path_187" data-name="Path 187" d="M3400.461,5298.431c-5.085-6.525-14.64-8.838-21.587-12.481-2.668-1.4-5.449-2.674-8.1-4.138,2.529-.493,2.477-4.571-.27-4.36-1.889.148-3.774.183-5.66.239a59.575,59.575,0,0,1-6.839-7.67c2.764-.278,2.774-4.638-.055-4.419-1.165.09-2.329.09-3.492.145-2.261-2.494-4.442-5.01-6.573-7.547.1-.007.2,0,.3-.014,2.826-.219,2.851-4.656,0-4.436-1.265.1-2.527.1-3.79.162q-2.955-3.708-5.726-7.569c.063,0,.127,0,.19-.008,2.828-.219,2.851-4.656,0-4.435-1.048.08-2.094.078-3.141.131-1-1.491-2.015-2.956-2.969-4.5-.543-.875-1.091-1.926-1.646-3.032.107-.009.215-.005.323-.015,2.829-.216,2.851-4.656,0-4.436-.815.064-1.631.057-2.447.1-2.426-4.975-5.275-10.206-9.346-11.962a8.569,8.569,0,0,0-1.776-.507c-.707-2.213-1.554-4.464-2.448-6.574a5.4,5.4,0,0,0-1.669-2.723c-2.769-1.951-8.511-1.4-11.554-.733-8.923,1.944-10.4,9.913-10.86,17.838h0a15.728,15.728,0,0,1-7.532.38c-6.536-1.451-14.842-7.215-18.348-12.722-3.186-5-1.208-13-6.375-16.527a7.618,7.618,0,0,0-1.723-.854c4.307-5.986,1.906-15.47-6.7-16.363-3.39-.348-6.6,1.823-6.5,5.509.059,2.187,1.713,3.678,2.719,5.438a7.342,7.342,0,0,1-1.337,8.891c-.016.014-.018.032-.034.047-10.775,8.83-28.921,19.253-26.359,35.612-10.113,4.284-9.655,20.716-3.66,28.165,10.974,13.63,28.673,20.646,44.11,27.675,7.917,3.6,15.906,7.242,23.229,11.978,9.518,6.155,17,14.512,25.779,21.571,13.672,10.993,24.875,12.051,41.83,12.249,9.8.114,19.623.132,29.407-.588,6.832-.5,12.864-.674,18.175-5.394C3407.467,5322.144,3408.325,5308.526,3400.461,5298.431Zm.839,15.662c-11.982,7.407-30.622,6.146-44.138,4.783a66.626,66.626,0,0,1-18.224-4.569c2.859-8.672,10.651-14.4,18.224-13.5,3.617.431,9.97,2.492,13.612,1.911,6.089-.976,13.16-3.408,16.286-8.646a29.186,29.186,0,0,1,6.076,3.76A23.649,23.649,0,0,1,3401.3,5314.093Zm-74.88-79.611c-3.1.039-7.909-.728-11.012-.925-2.85-.181-3.849.858-1.009,1.042,4.013.254,8.016.239,12.021.1,1.492,2.6,5.018,9.331,6.328,11.641-2.913.024-7.416.188-10.332,0-2.85-.181-3.424-.067-.584.114,3.844.246,7.682.239,11.52.117,1.707,2.542,3.449,5.059,5.291,7.514-.322,0,4.044,1.75,3.432,1.968a51.58,51.58,0,0,1-10.971,1.645c-2.85-.181-2.785.427.054.609,3.643.231,7.28.241,10.917.144,2,2.526,7.76,9.25,9.848,11.707-2.424-.009-8.572-1.357-11-1.512-2.852-.184-2.839,1.331,0,1.512,3.669.235,7.334.242,11,.141,2.19,2.5,7.557,7.372,9.776,9.825-1.689-.038-6.529.108-8.22,0-2.851-.182-2.84,1.707,0,1.887,3.281.21,6.557.248,9.831.19a38.361,38.361,0,0,0,3.923,2.581c-14.424,8.521-27.815-9.947-36.009-19.728-10.447-12.47-18.856-26.289-26.653-40.564,2.908-1.284,5.812-2.257,8.127-2.018C3317.32,5222.946,3323.528,5230.362,3326.419,5234.481Zm-25.866-23.374c1.909-.531,10.325-1.137,12.142-.12,1.174.659-.157,4.543.534,6.677-4.058.615-8.3,2.508-11.336,3.7-1.954.769-3.971,1.706-6.03,2.554C3296.212,5218.843,3294.869,5212.69,3300.554,5211.107Zm-41.211-.12c1.466,4.077,5.376,5.924,8.68,8.711,7.736,6.53,16.961,12.988,26.673,9.435,1.6-.583,3.65-1.646,5.858-2.754,1.029,1.889,2.135,3.688,3.2,5.539-10.74,4.3-20.428,5.671-31.729,1.639-.417-.149.672,1.642,0,1.374-12.811-5.091-21.156-18.5-23.91-32.1.583-.459,1.15-.914,1.673-1.36C3255.994,5196.227,3257.771,5206.624,3259.342,5210.988Zm-7.265-26.56a5.843,5.843,0,0,1,.468,10.07,2.235,2.235,0,0,0-.318.336,10.149,10.149,0,0,0-.8-5.437c-.57-1.2-1.63-2.136-2.175-3.327C3248.168,5183.7,3250.292,5183.494,3252.078,5184.428Zm-7.816,21.3c6.9,29.362,32.7,37.644,60.307,26.193,8.845,14.952,20.095,32.745,31.514,46.07,8.781,10.247,23.548,17.462,35.486,9.132.608.312,1.2.619,1.829.939,2.745,1.4,6.191,2.717,9.583,4.158-3.6,5.746-8.812,8.9-15.863,8.592-4.39-.192-8.549-1.524-12.983-1.063-7.258.753-16.516,5.515-19.27,12.752a114.972,114.972,0,0,1-23.989-15.716c-.284-.234-.547-.483-.827-.717a2.242,2.242,0,0,0,.791-.974c4.313-10.5-.493-23.051-8.923-30.093-9.965-8.326-21.77-8.866-33.894-6.155a2.109,2.109,0,0,0-.9.437c-14.06-8.818-28.782-16.743-43.489-24.35C3220.978,5222.011,3234.295,5212.985,3244.262,5205.725Zm62.5,87.492c-11.364-10.191-20.962-21.853-33.931-30.359-.176-.117-.361-.223-.54-.339,8.827-1.541,17.164-.968,24.946,4.469C3305.375,5272.67,3310.269,5283.632,3306.765,5293.216Zm86.37,35.872c-7.016,5.553-14.057,4.687-22.631,4.961-.371.012-1.073-.03-1.728,0-12.85.584-30.032,2.241-42.356-2.039-14.683-5.1-23.729-20.261-35.81-29.283-12.363-9.23-26.9-14.7-40.726-21.275-7.669-3.644-15.2-7.61-21.939-12.814-3.75-2.9-8.819-6.719-11.067-10.948-2.631-4.95-1.631-16.511,4.68-18.848,18.241,9.416,37.145,19.023,53.782,31.08.322.233-.528-3.327,0-2.935,16.246,12.057,29.722,32.348,47.074,43.717,12.941,8.479,26.138,12.359,41.575,13.069,11.509.531,25.733,1,36.607-4.218C3399.776,5322.143,3395.611,5327.127,3393.135,5329.088Z" transform="translate(-3211.199 -5179.368)" fill="#323f51" stroke="#323f51" stroke-miterlimit="10" stroke-width="3"/>
      <path id="Path_188" data-name="Path 188" d="M3231.3,5242.669c-4.065-1.712-10.31-6.232-10.536-11.32-.095-2.137-3.307-2.15-3.211,0,.3,6.792,7.383,12.213,12.892,14.536C3232.365,5246.691,3233.2,5243.468,3231.3,5242.669Z" transform="translate(-3206.985 -5160.835)" fill="#323f51" stroke="#323f51" stroke-miterlimit="10" stroke-width="3"/>
      <path id="Path_189" data-name="Path 189" d="M3235.7,5245.468c-2.853,0-2.859,4.436,0,4.436S3238.559,5245.468,3235.7,5245.468Z" transform="translate(-3204.416 -5159.36)" fill="#323f51" stroke="#323f51" stroke-miterlimit="10" stroke-width="3"/>
    </g>
    <g id="Group_696" data-name="Group 696" transform="matrix(0.296656, 0.052404, -0.057129, 0.323401, -2566.507812, 2558.066162)" style="">
      <path id="Path_1090" data-name="Path 1090" d="M10982.691-12749.563s93.732,160.293,114.215,155.647,124.342-147.45,124.342-147.45-29.754-42.422-119.139-46.328S10982.691-12749.563,10982.691-12749.563Z" transform="translate(-9522.581 15256.636)" fill="#903"/>
      <path id="Path_1092" data-name="Path 1092" d="M0,45.528S72.54,171.32,94.419,179.158s186.173,74.881,186.173,74.881,28.893-78.939,1.561-148.869C256.921,40.613,173.512-3.847,130.979.263,42.186,8.84,0,45.528,0,45.528Z" transform="matrix(-0.848, -0.53, 0.53, -0.848, 1551.794, 2879.454)" fill="#7ec8d6"/>
      <path id="Path_1093" data-name="Path 1093" d="M2.412,15.948S81.469,182.3,103.348,190.135,253.36,234.479,253.36,234.479s30.285-51.637,2.954-121.567C231.082,48.355,111.756-3.883,69.223.227-19.571,8.8,2.412,15.948,2.412,15.948Z" transform="translate(1725.402 2524.162) rotate(71)" fill="#e79e17"/>
      <g id="Group_694" data-name="Group 694" transform="translate(1288.175 2466.331)">
        <g id="Group_693" data-name="Group 693" transform="translate(79.737)">
          <g id="Group_540" data-name="Group 540" transform="translate(0 0)">
            <path id="Path_793" data-name="Path 793" d="M143.473,424.418c-8.091,65.965-32.835,171.134-219.507,149.966s-184.917-201.71-128.545-275.949S-36.558,157.862,89.2,245.82C154.147,291.243,148.478,383.627,143.473,424.418Z" transform="translate(239.609 -202.599)" fill="none" stroke="#323f51" stroke-width="5"/>
            <path id="Path_794" data-name="Path 794" d="M-234.148,365.472c5.652-26.334,16.227-49.877,29.364-67.18C-145.347,220.014-32.221,159.183,91,245.364c46.375,32.434,65.349,94.667,54.885,179.97h0c-4.15,33.848-12.809,76.768-43.181,108.494-36.058,37.665-95.926,52.049-177.94,42.748-93.209-10.57-132.7-59.361-149.411-98.433C-240.469,441.162-241.738,400.807-234.148,365.472Zm377.128,59.51c10.328-84.166-8.225-145.448-53.658-177.222C-32.2,162.766-143.8,222.814-202.457,300.059c-29.52,38.875-46.387,114.1-19.506,176.935,16.409,38.359,55.238,86.269,147.054,96.68,174.535,19.79,208.12-69.076,217.888-148.693Z" transform="translate(238.651 -203.34)" fill="none" stroke="#323f51" stroke-width="5"/>
          </g>
          <path id="Path_795" data-name="Path 795" d="M-193.461,236.61a1.468,1.468,0,0,1,.669-.942c21.085-12.821,43.178-21.375,65.666-25.421,33.823-6.084,68.023-1.912,101.758,12.4q2.87,1.218,5.76,2.545a1.472,1.472,0,0,1,.718,1.938,1.463,1.463,0,0,1-1.938.718c-35.034-16.093-70.624-21.049-105.782-14.727-22.13,3.982-43.887,12.41-64.663,25.043a1.461,1.461,0,0,1-2.008-.489A1.446,1.446,0,0,1-193.461,236.61Z" transform="translate(303.417 -197.322)" fill="none" stroke="#323f51" stroke-width="5"/>
          <path id="Path_796" data-name="Path 796" d="M-219.715,329.257a1.468,1.468,0,0,1,.487-.806,1.464,1.464,0,0,1,2.059.17,144.91,144.91,0,0,0,45.038,35.323,1.482,1.482,0,0,1,.635,1.967,1.461,1.461,0,0,1-1.964.633A147.861,147.861,0,0,1-219.4,330.511,1.462,1.462,0,0,1-219.715,329.257Z" transform="translate(265.763 -24.397)" fill="none" stroke="#323f51" stroke-width="5"/>
          <path id="Path_797" data-name="Path 797" d="M-136.8,355.52a1.456,1.456,0,0,1,1.2-1.137A189.722,189.722,0,0,0-110.9,348.9a1.457,1.457,0,0,1,1.814.986,1.453,1.453,0,0,1-.986,1.816,192.479,192.479,0,0,1-25.073,5.567,1.462,1.462,0,0,1-1.667-1.22A1.49,1.49,0,0,1-136.8,355.52Z" transform="translate(384.688 5.34)" fill="none" stroke="#323f51" stroke-width="5"/>
          <path id="Path_798" data-name="Path 798" d="M-109.382,357.191a1.468,1.468,0,0,1,.574-.879A116.776,116.776,0,0,0-94.424,344.07a117.324,117.324,0,0,0,11.619-13.622,1.462,1.462,0,0,1,2.042-.319,1.466,1.466,0,0,1,.319,2.04,119.675,119.675,0,0,1-11.913,13.96A119.148,119.148,0,0,1-107.1,358.686a1.46,1.46,0,0,1-2.037-.333A1.456,1.456,0,0,1-109.382,357.191Z" transform="translate(424.004 -21.898)" fill="none" stroke="#323f51" stroke-width="5"/>
          <path id="Path_799" data-name="Path 799" d="M-107.186,224.966a1.509,1.509,0,0,1,.231-.531,1.465,1.465,0,0,1,2.035-.36c31.954,22.351,50.05,59.159,53.789,109.4a1.462,1.462,0,0,1-1.349,1.565,1.459,1.459,0,0,1-1.563-1.349c-3.671-49.325-21.353-85.4-52.553-107.223A1.465,1.465,0,0,1-107.186,224.966Z" transform="translate(427.156 -173.979)" fill="none" stroke="#323f51" stroke-width="5"/>
          <path id="Path_800" data-name="Path 800" d="M-231.294,296.664c2.933-12.057,9.063-25.158,18.215-38.943,2.994-4.508,6.361-9.155,10.01-13.812l2.3,1.8c-3.6,4.6-6.923,9.182-9.876,13.629-8.963,13.5-14.956,26.29-17.809,38.015Z" transform="translate(249.202 -145.155)" fill="none" stroke="#323f51" stroke-width="5"/>
          <path id="Path_801" data-name="Path 801" d="M-213.364,249.475a287.609,287.609,0,0,1,22.719-21.991l1.877,2.24c-.1.085-22.456,21.743-22.456,21.743Z" transform="translate(274.918 -168.713)" fill="none" stroke="#323f51" stroke-width="5"/>
        </g>
        <path id="Path_1085" data-name="Path 1085" d="M3180.873,156.411v42.042c0,1.734,0,1.715,1.68,1.706,2.974-.014,5.952-.036,8.925.024.893.017,1.18-.243,1.27-1.134.313-3.136.205-6.285.353-9.426.339-7.232.434-14.474.655-21.71q.359-11.822.764-23.645c.252-7.751.471-15.5.783-23.254.087-2.152.172-4.3.214-6.457.042-2.218.9-3.238,3.085-3.7,1.6-.342,2.96.363,4.3,1.051.563.29.468.971.48,1.525.052,2.714.109,5.427.208,8.141.2,5.427.186,10.863.371,16.29.326,9.692.541,19.384.79,29.077.163,6.374.412,12.748.5,19.125.062,4.392.308,8.781.452,13.173.021.662.149,1.008.956.99,3.19-.068,6.381-.056,9.57-.073,1.789-.009,1.8-.009,1.8-1.8q0-41.917,0-83.832c0-2.107.543-2.915,2.392-3.556a4.1,4.1,0,0,1,4.329,1.279,1.8,1.8,0,0,1,.394,1.067q.646,8.956,1.308,17.909c.476,6.311.989,12.621,1.458,18.932.395,5.326.734,10.654,1.129,15.979.469,6.313.985,12.622,1.455,18.934.317,4.294.493,8.6.9,12.887a26.839,26.839,0,0,1-2.266,13.349,27.573,27.573,0,0,1-9.382,11.8,22.978,22.978,0,0,0-9.732,14.412,38.61,38.61,0,0,0-.323,10.053c.2,3.834.146,7.668.356,11.5.268,4.9.2,9.824.366,14.735q.464,13.954.8,27.911c.144,5.858.344,11.716.511,17.573q.4,13.826.782,27.654.237,8.852.51,17.7.421,13.761.782,27.524c.165,6.032.374,12.061.511,18.093.184,8.055.582,16.107.7,24.163a15.6,15.6,0,0,1-14.189,15.723,15.439,15.439,0,0,1-16.578-13.131c-.572-3.872-.133-7.835-.023-11.756.086-3.1.294-6.195.385-9.3.219-7.624.38-15.253.6-22.879q.485-16.669,1.021-33.339.378-12.211.766-24.421.4-12.792.783-25.585.391-12.662.787-25.323c.259-8.356.486-16.712.783-25.068.2-5.728.523-11.453.479-17.186a21.263,21.263,0,0,0-9.144-17.93c-6.631-4.805-11.1-10.984-12.725-19.094-.791-3.945-.287-7.9-.057-11.853.185-3.179.457-6.355.684-9.532q.62-8.7,1.232-17.4c.294-4.253.555-8.509.847-12.763.4-5.842.821-11.684,1.222-17.527q.432-6.316.841-12.633c.2-3.051.445-6.1.577-9.155a3.329,3.329,0,0,1,2.55-3.285,3.655,3.655,0,0,1,5.024,3.5Q3180.873,135.453,3180.873,156.411Z" transform="translate(-3167.524 -86.184)" fill="#fff" stroke="#323f51" stroke-linecap="round" stroke-linejoin="round" stroke-width="7"/>
        <path id="Path_1086" data-name="Path 1086" d="M3402.159,162.8q0,23.025.005,46.05c.009,7.11-.023,14.221.139,21.328.243,10.553.659,21.1.968,31.655.222,7.583.386,15.167.587,22.75.149,5.642.32,11.283.478,16.926.18,6.375.3,12.753.552,19.126.222,5.684.37,11.37.5,17.058.209,9.3.518,18.607.782,27.912.168,5.9.3,11.8.511,17.7.332,9.3.568,18.607.8,27.911.137,5.425.405,10.847.478,16.276.031,2.239.21,4.477.229,6.716a15.639,15.639,0,0,1-16.221,15.949c-7.46-.195-14.208-6.553-14.7-13.977-.347-5.252.173-10.5.284-15.749.2-9.219.532-18.437.811-27.654q.238-7.817.483-15.633.534-17.185,1.067-34.37.25-8.141.5-16.279c.261-8.486.44-16.974.824-25.455.156-3.443-.026-6.9.4-10.329.137-1.1-.235-1.536-1.413-1.506-2.974.073-5.953-.024-8.927.047-1.2.03-1.571-.377-1.523-1.557.345-8.438.474-16.884.971-25.316.219-3.744.363-7.489.549-11.233.309-6.282.709-12.556,1.242-18.824.474-5.576.851-11.163,1.395-16.733q.93-9.511,2.1-19,1.284-10.514,3.038-20.964c2.653-15.735,5.9-31.332,11.125-46.451a100.487,100.487,0,0,1,6.94-16.132,12.559,12.559,0,0,1,.884-1.428,2.081,2.081,0,0,1,2.43-.731,2.025,2.025,0,0,1,1.555,1.994c.281,6.509.123,13.02.123,19.53,0,3.662.024,7.322.026,10.984Q3402.165,153.1,3402.159,162.8Z" transform="translate(-2869.625 -91.072)" fill="#fff" stroke="#323f51" stroke-linecap="round" stroke-linejoin="round" stroke-width="7"/>
      </g>
    </g>
    <g id="Group_989" data-name="Group 989" transform="matrix(1, 0, 0, 1, 8062.061541, 2602.642457)">
      <g id="Group_987" data-name="Group 987" transform="matrix(-0.804803, 0, 0, 0.816308, -18733.298828, 183.158661)" style="">
        <path id="Path_1478" data-name="Path 1478" d="M133.811,32l-.059-.091L31.8,99.877c-.837,50.251,68.423,155.311,100.872,151.432l101.978-67.927-.059-.091c-18.313.726-85.5-79.012-100.774-151.286" style="fill: rgb(234, 234, 234);" transform="translate(-10594.474 170.396)"/>
        <path id="Path_1479" data-name="Path 1479" d="M137.324,132.354c-17.135-18.29-37.386-46.47-52.419-77.277" transform="translate(-10526.754 199.927)" fill="none" stroke="#216898" stroke-linecap="round" stroke-linejoin="round" stroke-width="1"/>
        <path id="Path_1480" data-name="Path 1480" d="M100.28,41.722,31.8,87.373c-.842,50.251,68.42,155.311,100.867,151.434" transform="translate(-10594.473 182.9)" fill="none" stroke="#216898" stroke-linecap="round" stroke-linejoin="round" stroke-width="1"/>
        <path id="Path_1481" data-name="Path 1481" d="M120.982,65.728,51.9,111.748q-.744-1.385-1.467-2.785,34.543-23.006,69.087-46.019.723,1.4,1.467,2.784" transform="translate(-10570.709 209.956)" fill="#c0dcef"/>
        <path id="Path_1482" data-name="Path 1482" d="M122.657,68.55,53.571,114.569q-.8-1.351-1.577-2.719l69.087-46.019q.778,1.365,1.577,2.719" transform="translate(-10568.712 213.637)" fill="#c0dcef"/>
        <path id="Path_1483" data-name="Path 1483" d="M124.446,71.3,55.359,117.321q-.853-1.317-1.686-2.653Q88.216,91.662,122.76,68.649q.833,1.334,1.686,2.653" transform="translate(-10566.571 217.23)" fill="#c0dcef"/>
        <path id="Path_1484" data-name="Path 1484" d="M126.343,73.979,57.256,120q-.908-1.283-1.79-2.582Q90.009,94.41,124.553,71.4q.884,1.3,1.79,2.582" transform="translate(-10564.286 220.733)" fill="#c0dcef"/>
        <path id="Path_1485" data-name="Path 1485" d="M128.352,76.576,59.265,122.6q-.959-1.246-1.9-2.507l69.087-46.019q.935,1.263,1.9,2.507" transform="translate(-10561.86 224.14)" fill="#c0dcef"/>
        <path id="Path_1486" data-name="Path 1486" d="M130.464,79.093,61.377,125.112q-1.01-1.2-2-2.43,34.54-23.01,69.087-46.019.986,1.225,2,2.43" fill="#c0dcef" transform="translate(-10559.296 227.447)"/>
        <path id="Path_1487" data-name="Path 1487" d="M114.511,86.845Q89.054,103.8,63.6,120.759q-1.058-1.167-2.1-2.348,25.46-16.959,50.917-33.914,1.037,1.181,2.1,2.348" transform="translate(-10556.598 237.435)" fill="#c0dcef"/>
        <path id="Path_1488" data-name="Path 1488" d="M137.419,86.118,68.332,132.137q-1.157-1.078-2.293-2.177l69.087-46.019q1.136,1.1,2.293,2.177" transform="translate(-10550.806 236.726)" fill="#c0dcef"/>
        <path id="Path_1489" data-name="Path 1489" d="M139.933,88.273,70.846,134.292q-1.2-1.034-2.386-2.086l69.087-46.019q1.184,1.051,2.386,2.086" transform="translate(-10547.72 239.589)" fill="#c0dcef"/>
        <path id="Path_1490" data-name="Path 1490" d="M106.2,100.972l-32.745,21.81q-1.246-.986-2.473-1.993l32.741-21.81q1.228,1.007,2.477,1.993" transform="translate(-10544.508 255.898)" fill="#c0dcef"/>
        <path id="Path_1491" data-name="Path 1491" d="M56.146,62.837,62.211,58.8q.522,1.863,1.085,3.713l-1.349.9q1.682,5.549,3.708,10.961l3.144-2.1q-2.02-5.409-3.706-10.958c-.453.3-.9.6-1.349.9q-.56-1.849-1.085-3.715,3.034-2.02,6.063-4.038.526,1.863,1.085,3.715l-1.572,1.046q1.8,5.92,3.979,11.682-.713,2.276-1.4,4.543-2.2,1.467-4.4,2.932-1.826-.59-3.628-1.192Q60.6,71.427,58.8,65.506l-1.572,1.046q-.563-1.85-1.085-3.715" transform="translate(-10563.419 199.141)" fill="#216898"/>
        <path id="Path_1492" data-name="Path 1492" d="M63.206,64.306c1.617,1.6.412,2.832.409,2.832s-1.433-.177-.409-2.832" transform="translate(-10554.887 211.693)" fill="#216898"/>
        <path id="Path_1493" data-name="Path 1493" d="M65.511,66.811c-1-2.17-2.325-1.119-2.33-1.115s-.18,1.622,2.33,1.115" transform="translate(-10554.453 213.135)" fill="#216898"/>
        <path id="Path_1494" data-name="Path 1494" d="M63.593,63.669c1.913,1.2.88,2.6.878,2.6s-1.5.107-.878-2.6" transform="translate(-10554.115 210.881)" fill="#216898"/>
        <path id="Path_1495" data-name="Path 1495" d="M66.458,65.656c-1.376-1.87-2.562-.612-2.564-.612s.084,1.567,2.564.612" transform="translate(-10553.541 212.106)" fill="#216898"/>
        <path id="Path_1496" data-name="Path 1496" d="M63.937,62.968c2.152.767,1.319,2.289,1.315,2.291s-1.513.389-1.315-2.291" transform="translate(-10553.509 209.987)" fill="#216898"/>
        <path id="Path_1497" data-name="Path 1497" d="M67.224,64.406c-1.7-1.513-2.716-.093-2.719-.093s.341,1.47,2.719.093" transform="translate(-10552.762 210.931)" fill="#216898"/>
        <path id="Path_1498" data-name="Path 1498" d="M64.244,62.224c2.323.307,1.713,1.913,1.711,1.913s-1.488.657-1.711-1.913" transform="translate(-10553.095 209.039)" fill="#216898"/>
        <path id="Path_1499" data-name="Path 1499" d="M67.79,63.1c-1.981-1.108-2.791.432-2.794.432s.585,1.326,2.794-.432" transform="translate(-10552.136 209.643)" fill="#216898"/>
        <path id="Path_1500" data-name="Path 1500" d="M64.452,61.464c2.425-.162,2.052,1.479,2.05,1.479s-1.42.908-2.05-1.479" transform="translate(-10552.829 208.056)" fill="#216898"/>
        <path id="Path_1501" data-name="Path 1501" d="M68.14,61.783c-2.2-.671-2.785.946-2.787.946s.81,1.142,2.787-.946" transform="translate(-10551.681 208.269)" fill="#216898"/>
        <path id="Path_1502" data-name="Path 1502" d="M64.545,60.776c2.461-.628,2.327,1,2.33,1s-1.308,1.133-2.33-1" transform="translate(-10552.711 207.008)" fill="#216898"/>
        <path id="Path_1503" data-name="Path 1503" d="M68.27,60.514c-2.348-.212-2.7,1.435-2.7,1.435s1,.928,2.7-1.435" transform="translate(-10551.404 206.834)" fill="#216898"/>
        <path id="Path_1504" data-name="Path 1504" d="M64.521,60.168c2.427-1.078,2.543.487,2.543.487s-1.165,1.324-2.543-.487" transform="translate(-10552.741 205.935)" fill="#216898"/>
        <path id="Path_1505" data-name="Path 1505" d="M68.182,59.342c-2.436.257-2.543,1.884-2.543,1.884s1.169.682,2.543-1.884" transform="translate(-10551.316 205.364)" fill="#216898"/>
        <path id="Path_1506" data-name="Path 1506" d="M64.382,59.644c2.325-1.5,2.682-.043,2.684-.043s-.99,1.479-2.684.043" transform="translate(-10552.919 204.885)" fill="#216898"/>
        <path id="Path_1507" data-name="Path 1507" d="M67.88,58.243c-2.455.721-2.318,2.277-2.318,2.279s1.3.416,2.318-2.279" transform="translate(-10551.416 203.963)" fill="#216898"/>
        <path id="Path_1508" data-name="Path 1508" d="M64.889,57.328c2.018.885,1.108,2.409,1.106,2.409s-1.486.328-1.106-2.409" transform="translate(-10552.352 202.797)" fill="#216898"/>
        <path id="Path_1509" data-name="Path 1509" d="M60.814,65.762c.111,2.6,1.62,2.025,1.617,2.027s.676-1.581-1.617-2.027" transform="translate(-10557.468 213.549)" fill="#216898"/>
        <path id="Path_1510" data-name="Path 1510" d="M61.459,69.68c-.919-2.227.539-3.03.537-3.028s1.176.723-.537,3.028" transform="translate(-10557.032 214.684)" fill="#216898"/>
        <path id="Path_1511" data-name="Path 1511" d="M60.14,65.93c-.328,2.7,1.19,2.393,1.188,2.393s.9-1.49-1.188-2.393" transform="translate(-10558.386 213.763)" fill="#216898"/>
        <path id="Path_1512" data-name="Path 1512" d="M60.245,69.979c-.491-2.461,1.019-3,1.015-3s.992.965-1.015,3" transform="translate(-10558.318 215.103)" fill="#216898"/>
        <path id="Path_1513" data-name="Path 1513" d="M59.55,65.965c-.76,2.7.719,2.687.717,2.689s1.1-1.351-.717-2.689" transform="translate(-10559.356 213.808)" fill="#216898"/>
        <path id="Path_1514" data-name="Path 1514" d="M59.1,70.025c-.045-2.618,1.47-2.878,1.465-2.878s.771,1.181-1.465,2.878" transform="translate(-10559.653 215.315)" fill="#216898"/>
        <path id="Path_1515" data-name="Path 1515" d="M59.036,65.866c-1.167,2.632.227,2.9.225,2.9s1.258-1.172-.225-2.9" transform="translate(-10560.328 213.682)" fill="#216898"/>
        <path id="Path_1516" data-name="Path 1516" d="M58.054,69.813c.4-2.7,1.868-2.671,1.865-2.671s.528,1.365-1.865,2.671" transform="translate(-10560.986 215.309)" fill="#216898"/>
        <path id="Path_1517" data-name="Path 1517" d="M58.608,65.636c-1.536,2.477-.278,3.032-.278,3.03s1.379-.955.278-3.03" transform="translate(-10561.252 213.389)" fill="#216898"/>
        <path id="Path_1518" data-name="Path 1518" d="M57.088,69.354c.837-2.693,2.211-2.38,2.209-2.38s.262,1.506-2.209,2.38" transform="translate(-10562.218 215.08)" fill="#216898"/>
        <path id="Path_1519" data-name="Path 1519" d="M58.27,65.28c-1.854,2.245-.773,3.067-.771,3.064s1.458-.71.771-3.064" transform="translate(-10562.096 212.935)" fill="#216898"/>
        <path id="Path_1520" data-name="Path 1520" d="M56.234,68.672c1.249-2.607,2.473-2.011,2.475-2.013s-.009,1.6-2.475,2.013" transform="translate(-10563.307 214.62)" fill="#216898"/>
        <path id="Path_1521" data-name="Path 1521" d="M58.03,64.81c-2.116,1.945-1.24,3.005-1.24,3.005s1.483-.439,1.24-3.005" transform="translate(-10562.827 212.335)" fill="#216898"/>
        <path id="Path_1522" data-name="Path 1522" d="M55.521,67.793c1.613-2.439,2.657-1.579,2.657-1.581s-.28,1.647-2.657,1.581" transform="translate(-10564.216 213.938)" fill="#216898"/>
        <path id="Path_1523" data-name="Path 1523" d="M57.892,64.238c-2.3,1.581-1.665,2.853-1.663,2.853s1.463-.152,1.663-2.853" transform="translate(-10563.418 211.606)" fill="#216898"/>
        <path id="Path_1524" data-name="Path 1524" d="M54.974,66.742c1.92-2.193,2.75-1.1,2.75-1.1s-.544,1.645-2.75,1.1" transform="translate(-10564.913 213.051)" fill="#216898"/>
        <path id="Path_1525" data-name="Path 1525" d="M55.652,63.543c-.78,2.748.669,2.7.669,2.7s1.092-1.39-.669-2.7" transform="translate(-10564.343 210.72)" fill="#216898"/>
        <path id="Path_1526" data-name="Path 1526" d="M96.49,117.061a45.714,45.714,0,0,0,2.882-11.413A28.329,28.329,0,0,0,98.3,93.98a61.461,61.461,0,0,0,2.355,14.523,2.881,2.881,0,0,0,1.276,2.047,4.067,4.067,0,0,0,1.017-2.27,17.5,17.5,0,0,0,.28-4.29c-.437,1.836-.514,4.434-.127,4.416a4.1,4.1,0,0,0,1.388-1.738c.466.5,1.317.182,1.813-.282a3.8,3.8,0,0,0,1.033-1.784c.328.246.7-.2.86-.576.428.473.714.312.974.143a.849.849,0,0,0,.307-.753,19.224,19.224,0,0,0-2.926-9.236,4.636,4.636,0,0,0-1.454-1.715,2.912,2.912,0,0,0-.412,2.3,46.038,46.038,0,0,0,2.812,11.527,7.227,7.227,0,0,0,.933,1.829,1.4,1.4,0,0,0,.937.632c.61.048,1.092-.523,1.349-1.078,1.269-2.723.607-6.827,2.37-7.7" transform="translate(-10511.983 247.593)" fill="none" stroke="#216898" stroke-linecap="round" stroke-linejoin="round" stroke-width="0.5"/>
        <path id="Path_1527" data-name="Path 1527" d="M70.271,158c2.966-1.977,8.356.9,12.039,6.42S86.571,176.021,83.6,178L185.564,110.04c2.964-1.977,2.386-8.055-1.3-13.579s-9.072-8.4-12.039-6.42L70.271,158" transform="translate(-10545.41 243.707)" fill="#c0dcef"/>
        <line id="Line_59" data-name="Line 59" x1="51.716" y2="34.469" transform="translate(-10475.14 367.237)" fill="none" stroke="#216898" stroke-linecap="round" stroke-linejoin="round" stroke-width="1"/>
        <path id="Path_1528" data-name="Path 1528" d="M92.6,153.027l64.5-42.987c2.964-1.977,2.384-8.055-1.3-13.579s-9.072-8.4-12.039-6.42" transform="translate(-10516.943 243.708)" fill="none" stroke="#216898" stroke-linecap="round" stroke-linejoin="round" stroke-width="1"/>
        <path id="Path_1529" data-name="Path 1529" d="M76.582,128.2a3.57,3.57,0,0,1-.45.357" transform="translate(-10537.938 293.15)" fill="none" stroke="#216898" stroke-linecap="round" stroke-linejoin="round" stroke-width="1"/>
        <path id="Path_1530" data-name="Path 1530" d="M70.271,119.914c2.966-1.977,8.356.9,12.039,6.42,3.481,5.223,4.19,10.942,1.747,13.222" transform="translate(-10545.41 281.792)" fill="none" stroke="#216898" stroke-linecap="round" stroke-linejoin="round" stroke-width="1"/>
      </g>
      <g id="Group_988" data-name="Group 988" transform="matrix(0.842109, -0.046256, 0.045472, 0.827834, -1609.890747, -399.971954)" style="">
        <g id="Group_927" data-name="Group 927" transform="matrix(1, 0, 0, 1, -10590.813477, 266.713409)">
          <g id="Group_926" data-name="Group 926" clip-path="url(#clip-path-10)">
            <rect id="Rectangle_375" data-name="Rectangle 375" width="1.674" height="76.458" transform="translate(41.051 86.029)" fill="#012d46"/>
            <g id="Group_916" data-name="Group 916" transform="translate(33.682 175.916)">
              <g id="Group_915" data-name="Group 915" clip-path="url(#clip-path-11)">
                <rect id="Rectangle_376" data-name="Rectangle 376" width="26.985" height="33.315" transform="matrix(0.967, -0.255, 0.255, 0.967, -7.181, 1.894)" fill="url(#linear-gradient)"/>
              </g>
            </g>
            <g id="Group_918" data-name="Group 918">
              <g id="Group_917" data-name="Group 917" clip-path="url(#clip-path-10)">
                <path id="Path_1357" data-name="Path 1357" d="M54.422,211.121c-.916-2.015-1.936-3.521-3-3.861a7.861,7.861,0,0,0-5.462.086c-2.7,1.181-4.4,4.921-4.786,9.355,3.477-3.266,7.812-5.723,13.245-5.58" transform="translate(-6.153 -30.902)" fill="#dd7e17"/>
                <path id="Path_1358" data-name="Path 1358" d="M45.744,207.345c-3.23,1.413-5.036,6.487-4.865,12.034s-.341,9.645-1.281,12.375a7.251,7.251,0,0,0,4.1.171,85.087,85.087,0,0,0,1.093-15.242c1.115,7.022.262,13.979-.24,18.06a2.039,2.039,0,0,0,2.732.085s.33-11.32.426-16.216c.5,7.916.512,15.533.512,15.533s1.62.6,1.963-.682c-.085-5.292,0-9.9,0-9.9s.683,7.6,1.023,8.962c1.538.6,3.842.341,4.439-.512-.768-1.792-3.158-16.728-3.243-19.2,1.962,9.729,2.986,16.131,3.841,17.411,1.45.682,3.584-1.451,3.584-1.451s-1.281-.427-1.707-3.67-3.455-16.731-6.914-17.838A7.868,7.868,0,0,0,45.744,207.345Z" transform="translate(-5.917 -30.902)" fill="none" stroke="#922e02" stroke-miterlimit="10" stroke-width="1.125"/>
                <path id="Path_1359" data-name="Path 1359" d="M52.121,206.228H45.167a1.007,1.007,0,0,1-1.007-1.008V188.737a1.007,1.007,0,0,1,1.007-1.008h6.954a1.008,1.008,0,0,1,1.008,1.008V205.22a1.008,1.008,0,0,1-1.008,1.008" transform="translate(-6.598 -28.05)" fill="#012d46"/>
                <path id="Path_1360" data-name="Path 1360" d="M82.812,37.868,1.634,110.929l2.627,2.628,158.1-35.1L281.892,4.237l-.8-2.942Z" transform="translate(-0.244 -0.193)" fill="#005078"/>
                <path id="Path_1361" data-name="Path 1361" d="M82.812,44.293l2.628,2.628L4.262,119.982l-2.627-2.628Z" transform="translate(-0.244 -6.618)" fill="#014163"/>
                <path id="Path_1362" data-name="Path 1362" d="M82.812,37.868,1.634,110.929l2.627,2.628,158.1-35.1L281.892,4.237l-.8-2.942Z" transform="translate(-0.244 -0.193)" fill="none" stroke="#020c14" stroke-miterlimit="10" stroke-width="2.25"/>
                <path id="Path_1363" data-name="Path 1363" d="M85.9,41.014,4.724,114.074,165.457,81.6l116.9-76.848Z" transform="translate(-0.706 -0.71)" fill="#012d46"/>
                <path id="Path_1364" data-name="Path 1364" d="M74.66,57.56,4.724,120.5,165.458,88.03l61.236-40.257C176.634,66.447,95.066,74.663,74.66,57.56" transform="translate(-0.706 -7.138)" fill="#0b2538"/>
                <path id="Path_1365" data-name="Path 1365" d="M85.9,41.014,4.724,114.074,165.457,81.6l116.9-76.848Z" transform="translate(-0.706 -0.71)" fill="none" stroke="#020c14" stroke-linecap="round" stroke-linejoin="round" stroke-width="2.25"/>
              </g>
            </g>
            <g id="Group_920" data-name="Group 920" transform="translate(72.407 42.389)">
              <g id="Group_919" data-name="Group 919" clip-path="url(#clip-path-13)">
                <rect id="Rectangle_378" data-name="Rectangle 378" width="160.188" height="126.132" transform="matrix(0.967, -0.255, 0.255, 0.967, -23.012, 6.079)" fill="url(#linear-gradient-2)"/>
              </g>
            </g>
            <g id="Group_925" data-name="Group 925">
              <g id="Group_924" data-name="Group 924" clip-path="url(#clip-path-10)">
                <path id="Path_1367" data-name="Path 1367" d="M208.43,49.835l17.761,66.277S167.007,143.03,96.106,141.269c-4.494-19.952-8.9-45.184-10.98-56.645C105.108,65.867,153.224,49.73,208.43,49.835Z" transform="translate(-12.719 -7.446)" fill="none" stroke="#020c14" stroke-miterlimit="10" stroke-width="2.25"/>
                <path id="Path_1368" data-name="Path 1368" d="M225.01,58.681l15.453,57.363s-25.931,11.263-46.624,14.93c22.264-23.836,31.17-72.294,31.17-72.294" transform="translate(-28.963 -8.768)" fill="#005078"/>
                <path id="Path_1369" data-name="Path 1369" d="M222.257,23.887l86.8-16.477L261.1,38.6s20.3-23.539-38.838-14.712" transform="translate(-33.209 -1.107)" fill="#005078"/>
                <path id="Path_1370" data-name="Path 1370" d="M93.42,124.455l5.49,26.963s24.073.547,42.949-2.735c-17.508.274-37.751,0-40.761-2.189-2.735-7.66-7.677-22.039-7.677-22.039" transform="translate(-13.958 -18.596)" fill="#005078"/>
                <path id="Path_1371" data-name="Path 1371" d="M99.745,146.988s37.96,4.405,66.482-3.356c-19.295,6.712-55.158,7.341-64.185,5.728-1.878.145-2.3-2.372-2.3-2.372" transform="translate(-14.904 -21.461)" fill="#005078"/>
                <g id="Group_923" data-name="Group 923" transform="translate(72.407 42.389)" opacity="0.54">
                  <g id="Group_922" data-name="Group 922">
                    <g id="Group_921" data-name="Group 921" clip-path="url(#clip-path-15)">
                      <path id="Path_1372" data-name="Path 1372" d="M208.723,50.932l-.293-1.1c-55.206-.1-103.321,16.032-123.3,34.789,1.081,5.94,2.784,15.579,4.8,26.263,27.395-44.62,84.324-59.279,118.8-59.954" transform="translate(-85.126 -49.835)" fill="#06111e"/>
                    </g>
                  </g>
                </g>
              </g>
            </g>
          </g>
        </g>
      </g>
    </g>
    <g id="Group_1094" data-name="Group 1094" transform="matrix(0.468594, 0, 0, 0.49764, -2585.036621, 3101.507568)" style="">
      <g id="Group_1093" data-name="Group 1093" transform="translate(0 0)" clip-path="url(#clip-path)">
        <path id="Path_1621" data-name="Path 1621" d="M164,246.442c-.164,3.21-147.358-.487-162.483-114.461C-14.909,8.217,106.445-19.521,163.658,11.9c50.89,27.961,78.405,102.773,31.328,165.109-21.589,28.586-59.624,37.48-56.819,43.8,3.88,8.738,26.035,21.645,25.83,25.629" transform="translate(0 0.001)" fill="#f3d643"/>
        <path id="Path_1622" data-name="Path 1622" d="M28.508,31a5.181,5.181,0,1,1-5.286-5.074A5.176,5.176,0,0,1,28.508,31" transform="translate(49.358 70.511)"/>
        <path id="Path_1623" data-name="Path 1623" d="M49.866,30.563a5.183,5.183,0,1,1-5.282-5.074,5.176,5.176,0,0,1,5.282,5.074" transform="translate(107.435 69.322)"/>
        <path id="Path_1624" data-name="Path 1624" d="M26.651,31.707s.1.279.272.677c.2.443.5,1.09.885,1.919a33.9,33.9,0,0,0,4,6.312,31.469,31.469,0,0,0,3.337,3.459,23.982,23.982,0,0,0,4.311,2.879,20.707,20.707,0,0,0,5.174,1.823,24.725,24.725,0,0,0,5.632.58c1.09-.056,2.321-.033,3.288-.153l2.615-.461c.885-.3,1.789-.528,2.667-.8q1.25-.575,2.462-1.131A24.019,24.019,0,0,0,65.5,43.807a27.055,27.055,0,0,0,3.221-3.56A32.468,32.468,0,0,0,72.494,33.8c.74-1.681,1.064-2.667,1.045-2.608a1.963,1.963,0,0,1,3.869.67l-.108.926a22.694,22.694,0,0,1-.439,2.429,32.024,32.024,0,0,1-3.184,8.228,26.985,26.985,0,0,1-3.545,4.929,26.43,26.43,0,0,1-5.312,4.467c-1.049.61-2.165,1.149-3.281,1.726-1.168.435-2.358.863-3.578,1.254-1.287.279-2.626.506-3.954.729-1.246.156-2.273.141-3.422.219a28.884,28.884,0,0,1-7.652-.859,23.953,23.953,0,0,1-6.9-2.8,25.007,25.007,0,0,1-5.442-4.281c-.755-.792-1.41-1.622-2.072-2.4q-.843-1.255-1.626-2.422a31.551,31.551,0,0,1-3.422-8.135,21.694,21.694,0,0,1-.517-2.422c-.082-.58-.123-.893-.123-.893a1.968,1.968,0,0,1,3.805-.923Z" transform="translate(62.032 80.42)"/>
        <path id="Path_1625" data-name="Path 1625" d="M41.534,43.368A15.349,15.349,0,1,0,26.5,59.024,15.35,15.35,0,0,0,41.534,43.368" transform="translate(29.48 77.05)" fill="#ce4a70"/>
        <path id="Path_1626" data-name="Path 1626" d="M71.341,43.366A15.349,15.349,0,1,0,56.31,59.026a15.348,15.348,0,0,0,15.032-15.66" transform="translate(110.548 77.055)" fill="#ce4a70"/>
      </g>
    </g>
  </g>
  <text style="fill: rgb(85, 117, 145); font-family: &quot;Roboto Slab&quot;; font-size: 56px; font-weight: 700; white-space: pre;" x="1593.38" y="-1081.46" transform="matrix(1, 0, 0, 1, -1480.987303, 680.810099)">Kilder til værdi</text>
</svg>
