<?xml version="1.0" encoding="utf-8"?>
<svg xmlns="http://www.w3.org/2000/svg" xmlns:bx="https://boxy-svg.com" viewBox="-218.969 44.785 1300.869 476.135">
  <defs>
    
  </defs>
  <g id="Group_841" data-name="Group 841" transform="matrix(0.999854, -0.01713, 0.01713, 0.999854, -1378.39624, -2132.942139)">
    <path id="Path_1182" data-name="Path 1182" d="M 1679.911 2252.77 C 1797.835 2237.792 1911.404 2227.003 2020.162 2237.434 C 2125.533 2247.645 2227.73 2272.649 2321.912 2311.258 C 2360.038 2326.793 2399.744 2350.006 2392.157 2391.766 C 2387.414 2417.832 2364.892 2444.392 2342.188 2468.454 C 2309.251 2503.351 2272.737 2537.764 2229.212 2562.372 C 2151.996 2606.011 2067.212 2611.505 1989.127 2614.848 C 1792.855 2623.263 1596.65 2630.344 1408.361 2619.742 C 1340.32 2615.905 1272.883 2609.671 1213.49 2591.742 C 1181.209 2581.993 1149.044 2565.316 1150.078 2533.293 C 1151.569 2487.335 1191.757 2441.684 1240.56 2415.662 C 1338.224 2363.604 1350.82 2345.479 1451.897 2315.779 C 1494.839 2303.156 1609.834 2267.807 1717.625 2248.013" style="paint-order: fill; stroke-dashoffset: -1px; stroke-miterlimit: 8; stroke-width: 7px; fill: rgb(255, 255, 255); stroke-dasharray: 30px; stroke: rgb(72, 156, 97);" transform="matrix(0.981894, 0.189429, -0.189429, 0.981894, 492.233594, -291.606069)"/>
    <g id="Group_1348" data-name="Group 1348" transform="matrix(0.977665, 0, 0, 1.026609, 997.291541, -302.301989)" style="">
      <text transform="matrix(1.576168, 0, 0, 1.372974, -179.444366, -634.177307)" style="fill: rgb(51, 51, 51); font-family: &quot;Roboto Slab&quot;; font-size: 50.5px; white-space: pre;"><tspan x="343.855" y="2356.99" style="font-weight: 700;">Kontrol:</tspan><tspan> </tspan><tspan x="343.8550109863281" dy="1em">​</tspan><tspan>Hvis jeg ikke har helt<tspan x="343.8550109863281" dy="1em">​</tspan>styr på alting, går det galt</tspan></text>
      <text style="white-space: pre; fill: rgb(51, 51, 51); font-family: &quot;Roboto Slab&quot;; font-size: 28px;" transform="matrix(1.505905, 0, 0, 1.434111, 350.225769, 2810.993164)"> </text>
    </g>
  </g>
</svg>
