<svg viewBox="114.86 -62.484 858.868 674.992" xmlns="http://www.w3.org/2000/svg"><defs><clipPath id="LydOgVideo_svg__a"><path fill="#fff" d="M0 0h182.523v252.978H0z" data-name="Rectangle 359"/></clipPath></defs><g data-name="Group 871"><path fill="#323f51" d="m440.892 198.805 20.236 13.141c86.97 56.48 126.307 144.043 74.578 223.7-1.087 1.672-33.106 109.899-34.234 111.504-53.515 76.108-189.649 55.295-274.795 0l-20.235-13.14a193.614 193.614 0 0 1-17.182-12.596c-72.592-58.987-62.728-183.3-9.304-265.565 57.138-87.985 173.964-113.525 260.936-57.044Z" data-name="Path 1274"/><g data-name="Group 868"><g fill="#fff" clip-path="url(#LydOgVideo_svg__a)" data-name="Group 865" transform="translate(251.768 250.73)"><path d="M5.651 73.5c4.033.918 8.469-1.211 9.541-5.417a62.994 62.994 0 0 1 1.836-6.01q.251-.691.519-1.376c.07-.18.306-.728.394-.938.389-.863.791-1.718 1.217-2.564a68.1 68.1 0 0 1 6.559-10.5c.109-.135.357-.451.427-.535.316-.38.624-.765.942-1.142q.954-1.136 1.95-2.237 2.376-2.629 4.964-5.054 2.324-2.184 4.793-4.207c.388-.318.78-.631 1.171-.946.065-.052.3-.226.455-.347a90.53 90.53 0 0 1 2.915-2.04 95.831 95.831 0 0 1 11.192-6.479q1.351-.664 2.723-1.287c-.092.042.765-.336 1.172-.518.279-.115.682-.284.767-.317q3.11-1.247 6.305-2.267a89.678 89.678 0 0 1 12.524-3.028c.439-.073 2.523-.351 1.909-.286.849-.1 1.7-.192 2.551-.268q3.262-.29 6.54-.327t6.53.185q1.448.1 2.891.248c.35.037.7.078 1.047.119-.552-.06.839.113 1.208.172a78.835 78.835 0 0 1 12.034 2.893q1.4.455 2.774.961.864.317 1.72.656c.089.035.506.206.781.317s.686.3.774.34q.677.305 1.349.623 1.688.8 3.336 1.679c1.985 1.059 3.932 2.2 5.844 3.385q1.476.915 2.91 1.9.716.489 1.422.994a87.224 87.224 0 0 0 1.323.954 80.5 80.5 0 0 1 8.52 7.635q1.872 1.906 3.626 3.922.919 1.056 1.8 2.14c.26.32.516.644.775.965l.124.153.166.231a101.325 101.325 0 0 1 5.69 8.643q1.279 2.218 2.426 4.508.538 1.073 1.047 2.16.318.679.624 1.362l.279.627c.085.2.191.45.23.547.147.37.3.739.441 1.111q.488 1.251.939 2.517.9 2.528 1.654 5.1a96.538 96.538 0 0 1 2.327 9.86q.24 1.321.444 2.649c.047.3.089.609.135.913.136 1.783.392 3.556.519 5.342q.374 5.24.225 10.5c-.1 3.521-.381 7.028-.791 10.526-.021.178-.037.314-.048.42s-.045.277-.083.518c-.14.9-.279 1.8-.435 2.692q-.468 2.691-1.062 5.359-1.124 5.051-2.688 9.99-.782 2.472-1.672 4.908-.471 1.29-.971 2.57-.222.569-.451 1.135l-.321.784c-.078.184-.163.381-.2.461-.206.466-.41.932-.62 1.4q-.5 1.114-1.028 2.217-1.183 2.482-2.48 4.908-2.45 4.579-5.3 8.929-1.506 2.3-3.122 4.522c-.461.635-.934 1.261-1.4 1.89-.365.461-.731.922-1.1 1.378q-3.271 4.023-6.912 7.724c-6.4 6.5-12.624 11.062-19.787 16.254a214.712 214.712 0 0 0-22.553 18.2c-5.451 5.2-10.72 10.6-16.406 15.547q-2.112 1.838-4.3 3.58l.019-.014-.028.021a15.12 15.12 0 0 1-.378.282c-.212.159-.424.318-.638.475q-1.3.955-2.645 1.857a62.84 62.84 0 0 1-4.346 2.676q-1.238.692-2.51 1.319c-.367.18-2.158.943-1.788.817a43.6 43.6 0 0 1-4.5 1.478q-1.354.356-2.732.611c-.243.045-.488.082-.732.122-.139.015-.356.038-.628.061a35.251 35.251 0 0 1-5.474.042c-.216-.015-.433-.038-.649-.06a5.552 5.552 0 0 1-.62-.053h-.05.039a46.923 46.923 0 0 1-3.375-.709c-1.886-.478-3.675-1.162-5.517-1.771l-.1-.031c-.395-.183-.794-.358-1.186-.546q-1.541-.737-3.022-1.588-1.182-.68-2.319-1.432c-.336-.222-2.1-1.553-1.734-1.223a41.642 41.642 0 0 1-4.167-3.924c-.255-.28-1.267-1.515-1.22-1.413-.443-.6-.87-1.219-1.271-1.851q-.731-1.151-1.37-2.357c-.267-.505-.489-1.036-.76-1.538l-.036-.066-.12-.313c-1.466-3.769-5.272-6.8-9.541-5.417-3.664 1.186-6.992 5.492-5.417 9.541 6.96 17.9 25.18 30.063 44.392 30.348 17.8.264 32.518-11.036 44.85-22.635 5.988-5.632 11.662-11.62 17.94-16.938 3.932-3.331 7-5.552 11.342-8.7 4.689-3.4 9.379-6.8 13.918-10.409a118.607 118.607 0 0 0 30.652-36.863c14.566-27.231 19.557-60.425 10.418-90.24C167.539 33.314 138.281 5.769 102.664.863a96.677 96.677 0 0 0-56.642 9.786C29.071 19.157 13.595 33.11 5.278 50.354A72.741 72.741 0 0 0 .234 63.962c-1 3.926 1.279 8.6 5.417 9.541m138.688 91.375c.256-.328.738-.93 0 0" data-name="Path 1267"/><path d="M84.093 121.469c-.038.2-.079.4-.13.6a19.09 19.09 0 0 1-.489 1.658c.009-.085-.393.745-.522.964-.153.261-.324.511-.485.767l-.085.138-.035.041a16.517 16.517 0 0 1-1.31 1.351c-.164.15-.331.3-.5.445a9.775 9.775 0 0 0-.264.163 20.984 20.984 0 0 1-3.938 2c-3.413 1.265-7 1.976-10.452 3.135-10.988 3.693-21.939 11.282-25.6 22.781-3.419 10.749 1.405 23.18 11.295 28.613 9.018 4.953 20.073 4.428 29.207.126a31.763 31.763 0 0 0 6.213-4.073c2.684-2.135 2.23-6.744 0-8.974-2.651-2.651-6.283-2.141-8.974 0 1.2-.956-.131.073-.336.211q-.629.426-1.285.811a24.911 24.911 0 0 1-2.285 1.179c.01-.039-1.493.531-1.8.623a35.7 35.7 0 0 1-3.488.819l-.14.028-.2.008c-.339.017-.677.057-1.017.075a26.791 26.791 0 0 1-3.04 0 23.042 23.042 0 0 1-.871-.069 9.165 9.165 0 0 0-.915-.146 23 23 0 0 1-2.856-.76c-.214-.072-1.123-.462-.9-.347-.237-.113-.471-.23-.7-.354-.712-.38-1.371-.817-2.044-1.261l-.069-.044a11.452 11.452 0 0 0-.149-.157c-.337-.344-.707-.654-1.039-1a13.429 13.429 0 0 1-.538-.6c.006-.02-.441-.629-.565-.829-.268-.43-.484-.885-.741-1.319a6.485 6.485 0 0 0-.132-.215c-.016-.053-.033-.11-.055-.177a32.592 32.592 0 0 1-.862-3.188l-.043-.2c-.013-.059 0-.133-.008-.257a22.066 22.066 0 0 1-.053-1.627c0-.066.1-1.379.054-1.258a16.872 16.872 0 0 1 .478-1.971c.017-.056.416-1.153.388-1.155.114-.241.233-.481.355-.715a20.71 20.71 0 0 1 1.746-2.812c.022.005.8-.921.818-.937q.634-.7 1.314-1.355.455-.44.928-.862c.142-.127 1.423-1.16 1.368-1.142a40.01 40.01 0 0 1 5.791-3.521c.558-.28 1.125-.542 1.692-.8.149-.069.264-.123.354-.167s.223-.075.39-.133c1.492-.524 2.979-1.032 4.5-1.469 6.481-1.86 13.148-3.567 18.172-8.359a21.7 21.7 0 0 0 6.584-15.237c.187-11.942-8.807-20.192-19.121-24.242-4.124-1.619-8.445-2.656-12.631-4.094a22.608 22.608 0 0 1-9.672-5.85 6.81 6.81 0 0 1-.288-.352 18.526 18.526 0 0 1-1.529-2.559c.045.042-.39-1-.419-1.089-.129-.412-.5-2.595-.474-1.928a17.961 17.961 0 0 1-.065-1.431c0-.228.131-1.807.068-1.6a20.934 20.934 0 0 1 .627-2.574c.142-.463.31-.914.467-1.372a9.67 9.67 0 0 0 .106-.319c.047-.082.106-.189.182-.331.568-1.07 1.111-2.138 1.759-3.164.274-.434.559-.86.851-1.281.1-.145.869-1.154.874-1.183a46.507 46.507 0 0 1 4.58-4.836q1.264-1.161 2.609-2.233c.153-.107.946-.707.963-.719q.988-.708 2.009-1.369a55 55 0 0 1 5.5-3.048l.228-.115.19-.065c.405-.141.8-.3 1.21-.443a50.147 50.147 0 0 1 5.267-1.528c11.923-2.776 25.458-.769 35.857 6.265a32.385 32.385 0 0 1 10.03 11.089 30.938 30.938 0 0 1 3.68 15.266c-.052 8.169 12.639 8.177 12.692 0a43.959 43.959 0 0 0-14.017-32.615c-9.968-9.149-23.611-13.668-37.021-13.842A54.657 54.657 0 0 0 56.287 50.7c-8.583 6.758-16.539 17.108-16.343 28.553a24.976 24.976 0 0 0 6.681 16.266c3.737 4.141 8.836 6.64 13.995 8.516 4.606 1.675 9.389 2.8 13.962 4.575.191.085.383.169.572.26.5.243 1.007.486 1.5.751a27.098 27.098 0 0 1 2.146 1.281c-.008-.005.5.37.737.539.234.212.695.616.809.726a21.763 21.763 0 0 1 1.494 1.59c.024.042.064.108.129.21.409.649.8 1.3 1.171 1.967a2.61 2.61 0 0 0 .249.4 2.45 2.45 0 0 0 .111.444c.18.6.328 1.2.5 1.8a3.117 3.117 0 0 0 .12.363 3.326 3.326 0 0 0-.01.366c.007.7.014 1.4-.015 2.1v.061" data-name="Path 1268"/></g></g><path fill="#fff" d="M453.836 411.792a104.4 104.4 0 0 1-16.462 23.412c-3.077 3.32-5.986 4.49-7.918.126-1.85-4.18.167-7.62 2.88-10.606 21.19-23.317 28.238-52.475 25.219-85.768-.15-1.66-.241-3.344-.423-4.984-.452-4.126.247-7.84 3.429-9.525 3.303-1.744 5.421.16 5.962 4.846 3.207 28.057.846 55.706-12.687 82.499Z" data-name="Path 1275"/><path fill="#fff" d="M485.655 409.201a74.816 74.816 0 0 1-12.657 17.534c-2.393 2.49-4.704 3.366-6.372.105-1.598-3.124-.061-5.703 2.047-7.936 16.467-17.47 21.395-39.292 18.11-64.19-.166-1.241-.28-2.5-.468-3.727-.472-3.086-.003-5.865 2.517-7.13 2.613-1.31 4.374.115 4.924 3.62 3.304 20.98 2.11 41.665-8.1 61.724Z" data-name="Path 1276"/></g><g data-name="Group 776"><g fill="#323f51" data-name="Group 701"><path d="M937.263 390.813c-25.817-100.77-4.344-207.185-23.978-309.064-1.068-5.54-8.88-3.978-9.324.944a4.858 4.858 0 0 0-3.743-.894c-129.889 19.83-262.457 7.3-393 1.218 19.465-18.4 41.62-33.707 61.027-52.15a5.173 5.173 0 0 0 .9-1.18c28.858.513 57.75 1.793 86.666 3.077q8.325 13.627 16.7 27.235c3.223 5.242 11.583.567 8.337-4.706q-6.77-11-13.52-22.024c22.636 1 45.28 1.93 67.91 2.45q-4.1 9.51-8.09 19.034c-2.39 5.7 6.834 8.3 9.19 2.687q4.52-10.771 9.18-21.511c31.452.536 62.888.158 94.255-2.1a4.95 4.95 0 0 0 4.606-4.406c24.341 8.233 41.551 26.572 57.411 46.04 3.9 4.796 10.742-1.907 6.868-6.66-17.164-21.071-35.969-40.216-62.38-48.853-3.426-1.114-5.739 1.534-5.932 4.317a3.846 3.846 0 0 0-.424-.012c-30.037 2.178-60.125 2.61-90.23 2.178 6.567-14.824 13.428-29.517 20.812-43.9a5.532 5.532 0 0 0 .228-.562l.235-.1c.443.173.883.339 1.314.5 2.532.92 5.142-.914 5.94-3.257 1.688-4.976 6.514-21.511-2.81-22.991a8.056 8.056 0 0 0-2.208-.035c-1.985-2.922-7.408-3.288-8.66 1.133-1.28 4.494-4.372 8.807-4.287 13.606a8.968 8.968 0 0 0 2.5 6.07 5.352 5.352 0 0 0-.443.683C754.138-6.486 746.58 9.818 739.36 26.253c-26.01-.543-52.034-1.665-78.044-2.817-9.179-15.075-18.283-30.187-27.153-45.44a4.388 4.388 0 0 0-3.426-2.3c.3-2.008-.274-4.36-.574-6.21-.154-.967-.316-2.261-.532-3.661.027-.065.042-.146.073-.22 5.223-1.791 2.8-10.321-3.01-9.07-.408.09-.82.148-1.229.2a5.155 5.155 0 0 0-1.758-.516 5.083 5.083 0 0 0-1.037-.054h-.085a5.815 5.815 0 0 0-.81.08 3.662 3.662 0 0 0-1.287.51h-.1a14.41 14.41 0 0 0-6.618.794c-5.9 2.436-4.25 10.387-2.956 15.425-.278 3.037 2.417 5.63 5.917 6.375a52.89 52.89 0 0 0 7.632.856 5.461 5.461 0 0 0 .81.127 4.7 4.7 0 0 0 .658 2.375q11.766 20.236 23.967 40.213c-27.567-1.222-55.118-2.394-82.623-2.85a4.367 4.367 0 0 0-4.429 3.108 5.322 5.322 0 0 0-1.168.82c-19.677 18.695-42.179 34.15-61.833 52.9a4.351 4.351 0 0 0-.67 5.79c-5.73.143-5.778 9.108.081 9.532a4.93 4.93 0 0 0-.933 3.662c10.01 76.938 2 154.29 7.921 231.333 2.26 29.478 5.1 65.787 37.947 75.924 10.021 3.087 20.744 4.236 31.463 4.845a528.219 528.219 0 0 1-2.093 12.137 4.221 4.221 0 0 0-.3.82c-1.052 4.272-1.8 8.6-2.559 12.925-1.422 6.082-3.076 12.115-5.1 18.069-1.85 5.45 5.662 7.97 8.692 3.82.59-.813 1.125-1.657 1.673-2.494a4.142 4.142 0 0 0 3.681-3.357c.52-1.981 1.01-3.96 1.5-5.944.073-.162.154-.32.231-.486.143-.281.27-.574.4-.86.04-.084.077-.165.112-.242a58.626 58.626 0 0 0 5.373-21.03c.894-3.981 1.72-7.98 2.571-11.968a4.952 4.952 0 0 0 .1-.771c2.694.1 5.373.2 8.013.332 16.554.825 33.113 1.41 49.66 2.42 42.768 2.59 85.494 5.762 128.324 7.188 30.716 1.025 61.667 1.426 92.317-1.3a4.674 4.674 0 0 0-.64 3.566c2.29 11.463 6.911 21.954 11.948 32.438a4.156 4.156 0 0 0 2.22 2.147l.135.28c2.093 4.353 8.981 2.337 8.954-2.277 0-.254-.016-.5-.019-.76a4.35 4.35 0 0 0 2.335-5.26c-2.528-7.975-5.315-15.672-9.7-22.833a4.616 4.616 0 0 0-2.725-2.112l-.077-.146c-.22-.44-.678-1.931-1.044-2.756a3.976 3.976 0 0 0-1.55-3.2c16.971-1.708 39.288-4.31 50.728-17.41a4.837 4.837 0 0 0 1.237-2.937c3.163 1.953 8.512-.51 7.312-5.17Zm-15.2 1.245c-7.774 8.9-22.043 11.093-33.02 13.05-19.192 3.424-38.91 4.075-58.356 4.44-45.648.872-91.345-1.9-136.877-4.794-36.5-2.328-72.987-4.113-109.5-6.1-15.533-.844-33.529-.817-47.367-8.92-13.1-7.681-16.3-24.914-18.574-38.616-6.668-40.313-4.163-82.322-4.22-123.013-.07-44.977-.845-89.97-6.657-134.626a4.678 4.678 0 0 0-.2-.88c131.4 6.1 264.584 18.425 395.333-1.541a4.232 4.232 0 0 0 2.432-1.164c17.668 99.482-2.128 202.988 22.48 301.383a3.955 3.955 0 0 0-5.474.78Z" data-name="Path 1095"/><path d="M815.238 341.608c-9.443-23.034-7.855-51.637-8.507-76.012-.52-19.5-.62-38.58.011-58.062.656-20-.285-48.97-11.87-66.415a4.561 4.561 0 0 0-4.025-5.092c-7.146-7.578-17.356-11.532-31.849-9.123-6.479-.613-13.1-.54-19.1-.578-29.44-.2-58.645-4.795-88.13-3.411-9.109.424-18.182 1.2-27.24 2.03-27.362-.685-54.667.379-81.852 5-4.733.81-4.29 6.592-1.014 8.63q1.226 6.436 2.182 12.894a20.74 20.74 0 0 0 .671 4.78c8.873 65.49.143 133.119 15.317 197.626a4.552 4.552 0 0 0 1.087 2.089c.05.069.12.119.173.189.1.1.2.2.312.289a4.37 4.37 0 0 0 2.991 1.017c75.3-1.006 150.471 4.024 225.717 5.774a18.292 18.292 0 0 0 18.763 1.2c8.676-4.907 9.818-14.373 6.363-22.825Z" data-name="Path 1096"/><path d="M877.503 154.677c3.261-3.758-1.172-9.09-5.23-7.62-13-14.916-33.826-8.888-45.4 6.892-12.58 17.156-5.95 44.449 14.092 52.5 15.456 6.206 32.554-6.4 40-19.118 7.145-12.218 4.844-24.26-3.462-32.654Zm-45.2 8.942c5.011-11.112 17.87-19.141 27.833-14.188a5.169 5.169 0 0 0 2.528 6.468c-9.72 9.694-19.04 19.719-26.977 30.993a4.05 4.05 0 0 0-.605 3.9c-5.28-7.735-6.137-19.727-2.776-27.172Zm14.931 34.546a15.267 15.267 0 0 1-10.542-5.327 4.97 4.97 0 0 0 7.188-.983c7.871-11.19 17.245-21.018 26.938-30.581 12.594 13.45-4.35 38.215-23.584 36.89Z" data-name="Path 1097"/><path d="M882.118 244.384a5.444 5.444 0 0 0-5.13-3.924c-12.19-10.611-28.677-9.782-39.8 3.55-11.143 13.355-11.082 32.342 2.918 43.4 15.182 11.99 36.162 5.593 47.108-8.472 9.788-12.571 6.146-26.84-5.096-34.554Zm-38.374 6.684c6.472-9.34 16.065-10.392 24.1-5.423a6.077 6.077 0 0 0 .19.77 181.122 181.122 0 0 0-26.878 28.666c-4.52-7.088-2.294-16.967 2.59-24.016Zm35.281 22.916c-7.069 10.01-20.093 12.373-30.577 7.27a171.181 171.181 0 0 1 27.54-29.1 3.9 3.9 0 0 0 1.086.143c7.244 4.887 7.964 13.156 1.951 21.687Z" data-name="Path 1098"/></g></g></svg>