<?xml version="1.0" encoding="utf-8"?>
<svg xmlns="http://www.w3.org/2000/svg" xmlns:bx="https://boxy-svg.com" viewBox="-32.277 1529.406 714.172 422.542">
  <defs>
    <clipPath id="clip-path">
      <rect id="Rectangle_374" data-name="Rectangle 374" width="35.569" height="27.465" fill="#323f51"/>
    </clipPath>
    
    <clipPath id="clip-4">
      <rect id="rect-2" data-name="Rectangle 362" width="948.922" height="1058.047" fill="#323f51"/>
    </clipPath>
    <clipPath id="clip-5">
      <rect id="Rectangle_362" data-name="Rectangle 362" width="948.922" height="1058.047" fill="#323f51"/>
    </clipPath>
    <clipPath id="clip-path-2">
      <rect id="Rectangle_363" data-name="Rectangle 363" width="535.688" height="817.071" fill="none"/>
    </clipPath>
    <clipPath id="clip-2">
      <rect id="Rectangle_364" data-name="Rectangle 364" width="370.478" height="846.353" fill="none"/>
    </clipPath>
    <clipPath id="clip-3">
      <rect id="Rectangle_367" data-name="Rectangle 367" width="787.201" height="890.531" fill="none"/>
    </clipPath>
  </defs>
  <g id="Group_1057" data-name="Group 1057" transform="matrix(1, 0, 0, 1, 2784.133301, 9037.762695)">
    <path id="path-4" data-name="Path 1346" d="M -2425.883 -7438.358 L -2307.176 -7450.853 C -2262.971 -7433.272 -2165.832 -7347.441 -2192.442 -7268.895 C -2193.156 -7266.783 -2207.477 -7185.148 -2208.87 -7183.27 C -2274.928 -7094.212 -2428.986 -7086.936 -2559.135 -7086.936 L -2590.067 -7086.936 C -2723.01 -7086.936 -2774.376 -7168.403 -2704.799 -7268.895 C -2635.223 -7369.388 -2558.825 -7438.358 -2425.883 -7438.358 Z" fill="#fff" style="" transform="matrix(-0.982587, -0.185802, 0.185802, -0.982587, -3530.286215, -14868.636718)"/>
    <path id="path-3" data-name="Path 1346" d="M -1585.405 -7303.16 C -1578.894 -7342.776 -1435.23 -7382.669 -1419.582 -7399.633 C -1386.665 -7435.317 -1347.868 -7449.825 -1307.234 -7468.862 C -1199.052 -7519.545 -1063.665 -7523.213 -1063.665 -7523.213 C -1019.746 -7504.623 -923.237 -7413.874 -949.674 -7330.827 C -950.384 -7328.593 -963.742 -7241.179 -965.996 -7240.293 C -1043.66 -7209.764 -1184.883 -7139.47 -1313.995 -7138.439 L -1344.727 -7138.439 C -1471.73 -7140.912 -1620.662 -7088.648 -1585.405 -7303.16 Z" fill="#fff" style="" transform="matrix(-0.982587, -0.185802, 0.185802, -0.982587, -1152.028902, -14765.708782)"/>
    <g id="g-6" data-name="Group 907" transform="matrix(1, 0, 0, 1, -1304.299072, -7319.094238)">
      <path id="path-2" data-name="Path 211" d="M-4852.995,7768.923h72.7a5.3,5.3,0,0,1,5.3,5.3,5.3,5.3,0,0,1-5.3,5.3h-72.7a5.3,5.3,0,0,1-5.3-5.3A5.3,5.3,0,0,1-4852.995,7768.923Z" transform="translate(4858.297 -7751.711)" fill="#903"/>
      <path id="path-5" data-name="Path 212" d="M-4833.6,7762.906a5.3,5.3,0,0,1,3.751,1.553l17.2,17.213a5.3,5.3,0,0,1,0,7.5l-17.2,17.215a5.3,5.3,0,0,1-7.5,0,5.3,5.3,0,0,1,0-7.493l13.459-13.472-13.459-13.466a5.3,5.3,0,0,1,0-7.5A5.288,5.288,0,0,1-4833.6,7762.906Z" transform="translate(4894.397 -7762.906)" fill="#903"/>
    </g>
    <g id="g-7" data-name="Group 907" transform="matrix(1, 0, 0, 1, -2454.300285, -7273.899374)">
      <path id="path-6" data-name="Path 211" d="M-4852.995,7768.923h72.7a5.3,5.3,0,0,1,5.3,5.3,5.3,5.3,0,0,1-5.3,5.3h-72.7a5.3,5.3,0,0,1-5.3-5.3A5.3,5.3,0,0,1-4852.995,7768.923Z" transform="translate(4858.297 -7751.711)" fill="#903"/>
      <path id="path-7" data-name="Path 212" d="M-4833.6,7762.906a5.3,5.3,0,0,1,3.751,1.553l17.2,17.213a5.3,5.3,0,0,1,0,7.5l-17.2,17.215a5.3,5.3,0,0,1-7.5,0,5.3,5.3,0,0,1,0-7.493l13.459-13.472-13.459-13.466a5.3,5.3,0,0,1,0-7.5A5.288,5.288,0,0,1-4833.6,7762.906Z" transform="translate(4894.397 -7762.906)" fill="#903"/>
    </g>
  </g>
  <path id="Path_1341" data-name="Path 1341" d="M 1779.581 1798.383 C 1781.36 1797.551 1786.605 1795.094 1786.254 1792.474 C 1786.371 1792.359 1786.497 1792.252 1786.63 1792.155 C 1785.889 1792.079 1786.338 1791.519 1786.724 1792.07 C 1786.533 1791.533 1786.402 1790.977 1786.332 1790.412 C 1783.701 1790.565 1771.145 1788.036 1771.994 1790.48 C 1771.374 1789.464 1771.104 1790.327 1770.994 1790.424 C 1771.167 1790.647 1771.359 1790.856 1771.567 1791.048 C 1770.09 1791.87 1769.309 1792.914 1771.684 1793.228 C 1774.338 1793.579 1777.128 1793.859 1779.889 1794.047 C 1778.917 1794.917 1777.833 1795.653 1776.666 1796.236 C 1776.534 1796.298 1776.408 1796.359 1776.277 1796.421 C 1776.753 1795.95 1777.142 1795.459 1776.409 1795.721 C 1776.149 1796.007 1775.931 1796.328 1775.76 1796.675 C 1773.276 1797.936 1771.501 1799.436 1772.075 1800.596 C 1772.138 1801.47 1772.985 1801.702 1773.828 1801.804 L 1773.76 1801.836 C 1773.741 1801.846 1773.806 1801.814 1773.828 1801.804 C 1773.85 1801.82 1773.815 1801.823 1773.76 1801.836 C 1773.66 1801.884 1773.92 1801.992 1773.989 1802.006 C 1774.07 1801.916 1774.089 1801.864 1774.076 1801.831 L 1774.27 1801.85 C 1774.885 1802.007 1775.509 1802.124 1776.139 1802.201 C 1776.756 1802.279 1778.41 1802.547 1780.273 1802.701 C 1780.332 1802.92 1780.402 1803.078 1780.487 1802.977 C 1780.459 1803.011 1780.477 1802.887 1780.508 1802.722 C 1781.064 1802.763 1781.634 1802.791 1782.201 1802.804 C 1781.995 1802.926 1781.614 1803.02 1781.75 1803.104 C 1781.97 1803.06 1782.174 1802.956 1782.339 1802.804 C 1782.401 1802.804 1782.464 1802.81 1782.527 1802.81 C 1782.639 1802.951 1782.944 1802.957 1783.486 1802.795 C 1785.734 1802.704 1787.603 1802.186 1787.603 1800.681 C 1787.603 1798.743 1783.411 1798.402 1779.583 1798.381 M 1777.492 1789.875 C 1777.457 1789.935 1777.415 1789.992 1777.369 1790.045 L 1777.156 1790.045 C 1777.14 1789.801 1777.312 1789.345 1777.492 1789.876 M 1776.63 1789.96 C 1776.674 1789.838 1776.73 1789.794 1776.787 1789.828 C 1776.777 1789.919 1776.768 1789.978 1776.759 1790.041 L 1776.629 1790.041 C 1776.629 1790.004 1776.629 1789.962 1776.629 1789.962 M 1776.266 1790.036 L 1776.146 1790.036 C 1776.121 1789.98 1776.087 1789.889 1776.056 1789.8 C 1776.056 1789.8 1776.04 1789.766 1776.012 1789.687 C 1776.129 1789.615 1776.226 1789.853 1776.266 1790.039 M 1772.394 1790.576 C 1772.394 1790.576 1772.494 1790.563 1772.583 1790.56 C 1772.526 1790.595 1772.456 1790.601 1772.394 1790.576" fill="#323f51" clip-path="url(#clip-path)" transform="matrix(1, 0, 0, 1, -192.215198, -255.776792)"/>
  <path id="Path_1342" data-name="Path 1342" d="M 1805.735 1789.42 C 1805.728 1787.826 1799.79 1787.56 1795.603 1787.52 C 1795.792 1787.331 1795.982 1787.131 1796.171 1786.911 C 1796.305 1786.867 1796.434 1786.81 1796.557 1786.742 C 1796.522 1786.683 1796.49 1786.622 1796.463 1786.56 C 1796.491 1786.526 1796.517 1786.497 1796.544 1786.46 C 1796.565 1786.539 1796.581 1786.62 1796.592 1786.702 C 1796.916 1786.257 1797.275 1785.837 1797.663 1785.447 C 1797.683 1785.483 1797.713 1785.514 1797.75 1785.535 C 1797.806 1785.56 1797.826 1785.428 1797.804 1785.3 C 1799.852 1783.179 1803.304 1780.035 1802.36 1778.959 C 1802.413 1778.937 1802.46 1778.922 1802.513 1778.899 C 1802.813 1778.956 1802.836 1778.82 1802.793 1778.663 C 1802.928 1778.638 1803.003 1778.616 1802.993 1778.591 C 1802.868 1778.384 1802.725 1778.189 1802.564 1778.01 C 1802.617 1777.555 1801.884 1777.319 1801.693 1777.001 C 1801.762 1777.107 1801.81 1777.227 1801.835 1777.352 C 1801.67 1777.238 1801.498 1777.134 1801.32 1777.042 C 1801.628 1776.842 1801.22 1776.784 1800.976 1776.886 C 1800.635 1776.744 1800.282 1776.631 1799.923 1776.547 C 1800.052 1775.722 1799.715 1776.278 1799.751 1776.506 C 1797.921 1776.221 1796.066 1776.138 1794.219 1776.256 C 1794.166 1776.258 1794.114 1776.263 1794.062 1776.271 C 1793.834 1776.137 1793.63 1775.964 1793.462 1775.76 C 1793.416 1775.681 1793.425 1775.66 1793.453 1775.647 C 1793.19 1775.772 1792.916 1775.872 1792.635 1775.947 C 1792.644 1775.892 1792.644 1775.837 1792.635 1775.783 C 1792.617 1775.723 1792.557 1775.84 1792.529 1775.975 C 1791.169 1776.321 1789.229 1776.392 1789.408 1775.996 C 1789.045 1776.787 1788.786 1776.485 1788.85 1777.568 C 1788.574 1775.268 1788.884 1778.481 1788.603 1777.039 C 1788.619 1777.127 1788.679 1777.402 1788.742 1777.714 C 1787.363 1778.247 1786.676 1778.774 1788.277 1779 C 1788.436 1779.021 1788.716 1779.038 1789.083 1779.05 C 1789.055 1779.15 1789.046 1779.235 1789.101 1779.285 C 1789.112 1779.207 1789.119 1779.13 1789.123 1779.052 C 1790.634 1779.099 1793.623 1779.07 1796.442 1778.995 C 1796.319 1779.048 1796.246 1779.176 1796.261 1779.309 C 1796.232 1780.378 1796.63 1779.199 1796.69 1778.989 L 1797.666 1778.961 C 1797.735 1779.061 1797.81 1779.105 1797.886 1779.07 C 1797.962 1779.035 1798.023 1778.986 1798.093 1778.947 C 1798.375 1778.938 1798.651 1778.928 1798.92 1778.918 C 1798.845 1779.006 1798.804 1779.119 1798.805 1779.235 C 1798.759 1779.711 1799.034 1779.05 1799.034 1778.913 L 1799.534 1778.894 C 1799.274 1779.133 1799.211 1779.257 1799.234 1779.314 C 1797.778 1780.429 1796.408 1781.654 1795.138 1782.977 C 1795.126 1782.942 1795.101 1782.913 1795.069 1782.896 C 1794.937 1782.833 1794.855 1783.038 1794.928 1783.19 C 1793.387 1784.75 1791.94 1786.402 1790.596 1788.135 C 1790.431 1788.33 1790.409 1788.609 1790.54 1788.829 C 1790.467 1788.938 1790.425 1789.066 1790.421 1789.198 C 1791.055 1789.62 1791.77 1789.905 1792.521 1790.035 C 1793.459 1790.435 1793.264 1790.267 1792.964 1790.064 C 1793.205 1790.132 1793.459 1790.195 1793.722 1790.253 C 1793.797 1791.306 1795.312 1790.965 1796.142 1790.673 C 1796.542 1790.724 1796.949 1790.773 1797.359 1790.807 C 1797.284 1790.879 1797.248 1790.982 1797.259 1791.086 C 1797.291 1791.486 1797.572 1791.061 1797.641 1790.832 C 1798.371 1790.894 1799.106 1790.932 1799.823 1790.945 C 1799.717 1791.015 1799.623 1791.083 1799.57 1791.062 C 1799.662 1791.1 1799.827 1791.022 1799.97 1790.946 C 1800.651 1790.956 1801.312 1790.946 1801.927 1790.905 C 1804.115 1790.767 1805.738 1790.305 1805.734 1789.419 M 1800.334 1780.519 L 1800.259 1780.625 C 1800.275 1780.584 1800.301 1780.548 1800.334 1780.519 M 1801.622 1778.819 C 1801.631 1778.867 1801.624 1778.918 1801.603 1778.963 Z M 1799.73 1781.547 C 1799.758 1781.497 1799.787 1781.447 1799.815 1781.399 C 1800.015 1781.55 1799.868 1781.599 1799.73 1781.547 M 1800.23 1782.216 C 1799.669 1781.081 1801.036 1782.633 1800.23 1782.216 M 1800.562 1781.846 C 1799.851 1781.125 1800.492 1781.62 1800.53 1781.673 C 1800.603 1781.773 1800.615 1781.834 1800.562 1781.846 M 1800.995 1781.498 C 1801.045 1781.868 1799.486 1780.745 1800.995 1781.498 M 1790.654 1776.647 C 1790.64 1776.8 1790.614 1776.952 1790.575 1777.102 C 1790.494 1776.947 1790.537 1776.021 1790.654 1776.647 M 1790.416 1776.688 C 1790.422 1776.942 1790.422 1777.081 1790.416 1777.148 C 1790.387 1777.046 1790.371 1776.941 1790.368 1776.835 C 1790.375 1776.71 1790.391 1776.66 1790.414 1776.688 M 1789.406 1776.478 L 1789.324 1776.478 C 1789.343 1776.394 1789.462 1775.841 1789.406 1776.478 M 1790.152 1776.631 C 1790.265 1776.383 1790.352 1776.841 1790.372 1777.164 C 1790.335 1777.174 1790.3 1777.186 1790.263 1777.195 C 1790.232 1777.069 1790.195 1776.885 1790.151 1776.631 M 1799.53 1778.89 L 1799.863 1778.875 C 1799.803 1778.915 1799.74 1778.96 1799.677 1779.003 C 1799.642 1778.95 1799.59 1778.91 1799.53 1778.89 M 1794.625 1790.44 L 1794.961 1790.497 C 1794.684 1790.529 1794.587 1790.482 1794.625 1790.44" fill="#323f51" clip-path="url(#clip-path)" transform="matrix(1, 0, 0, 1, -192.215198, -255.776792)"/>
  <path id="Path_1343" data-name="Path 1343" d="M 1790.215 1790.046 C 1790.652 1790.334 1791.201 1790.396 1791.692 1790.215 C 1791.692 1790.215 1789.817 1789.435 1790.215 1790.046" fill="#323f51" clip-path="url(#clip-path)" transform="matrix(1, 0, 0, 1, -192.215198, -255.776792)"/>
  <path id="Path_1164" data-name="Path 1164" d="M 737.853 1938.055" fill="none" stroke="#323f51" stroke-width="4.5" transform="matrix(1, 0, 0, 1, -192.215198, -255.776792)"/>
  <g>
    <text transform="matrix(0.361797, 0, 0, 0.376554, 288.430115, 1326.729126)" style="fill: rgb(153, 0, 51); font-family: &quot;Roboto Slab&quot;; font-size: 148px; font-weight: 700; text-anchor: middle; white-space: pre;"><tspan x="197.532" y="943.396">Hvad tænker</tspan><tspan x="197.532" dy="1em">​</tspan><tspan>lægen?</tspan></text>
    <g transform="matrix(1, 0, 0, 1, -654.220703, 914.409485)">
      <g transform="matrix(-0.361597, 0.012541, 0.012049, 0.376345, 343.23468, 917.467407)" style="">
        <g>
          <g id="Group_1053" data-name="Group 1053" transform="matrix(1, 0, 0, 1, 242.33873, 13994.530273)">
            <g id="Group_875" data-name="Group 875" transform="matrix(1.012074, 0, 0, 1, -995.579163, -14324.144531)" style="">
              <g id="Group_873" data-name="Group 873" transform="matrix(1, 0, 0, 1, -1033.582886, -254.04747)">
                <g id="Group_872" data-name="Group 872" clip-path="url(#clip-5)">
                  <g id="Group_877" data-name="Group 877" transform="matrix(1, 0, 0, 1, 315.154633, 78.647842)">
                    <g id="Group_876" data-name="Group 876" clip-path="url(#clip-path-2)">
                      <path id="Path_1291" data-name="Path 1291" d="M 87.525 136.579 C 87.525 136.579 132.594 204.458 123.143 267.502 C 79.768 305.961 169.113 444.545 189.476 426.49 L 312 245.637 C 312 245.637 248.277 176.979 224.9 83.748 L 87.525 136.579 Z" transform="translate(101.251 96.881)" fill="#ffb27d"/>
                      <path id="Path_1292" data-name="Path 1292" d="M 108.025 274.975 C 108.025 274.975 273.591 282.953 277.195 185.726 C 280.799 88.499 325.946 24.067 202.128 14.8 C 100.3 7.182 66.192 48.536 56.919 80.7 C 47.646 112.864 46.675 269.408 108.025 274.975" transform="translate(60.459 16.058)" fill="#ffb27d"/>
                      <path id="Path_1294" data-name="Path 1294" d="M 413.862 341.859 L 413.84 341.859 C 413.618 341.84 412.257 341.759 409.211 341.738 C 389.652 358.429 338.627 398.214 289.572 431.57 C 247.473 460.196 214.703 377.588 229.255 373.929 C 229.233 373.91 229.233 373.89 229.216 373.871 C 227.5 370.846 226.02 367.692 224.79 364.439 L 224.971 363.723 C 224.971 363.723 105.515 390.111 74.942 429.115 C 58.233 450.442 42.942 534.596 29.463 623.401 C 29.424 623.601 29.355 623.816 29.363 624.016 C 31.008 665.445 35.721 760.761 56.035 784.669 C 66.693 797.213 416.883 847.364 476.767 745.539 C 543.128 691.594 543.788 380.304 536.284 377.106 C 479.031 344.044 415.366 341.9 413.863 341.859" style="fill: rgb(244, 237, 237);"/>
                      <path d="M 812.721 1949.822 Q 821.856 1887.282 830.991 1949.822 L 862.368 2164.634 Q 871.503 2227.174 853.233 2227.174 L 790.479 2227.174 Q 772.209 2227.174 781.344 2164.634 Z" style="fill: rgb(229, 229, 229);" transform="matrix(-0.919042, 0.39416, -0.083991, -1.052067, 1131.492432, 2447.044189)" bx:shape="triangle 772.209 1887.282 99.294 339.892 0.5 0.184 1@b4a111c3"/>
                      <path d="M 829.623 2078.748 Q 838.436 2015.586 847.249 2078.748 L 880.272 2315.425 Q 889.085 2378.587 871.459 2378.587 L 805.413 2378.587 Q 787.787 2378.587 796.6 2315.425 Z" style="fill: rgb(216, 216, 216);" transform="matrix(-0.999772, 0.021339, 0.308102, -1.006804, 440.798462, 2793.19458)" bx:shape="triangle 787.787 2015.586 101.298 363.001 0.5 0.174 1@a53f63b4"/>
                    </g>
                  </g>
                </g>
              </g>
            </g>
            <rect x="-1213.321" y="-560.509" width="82.267" height="19.832" style="fill: rgb(222, 222, 222);" transform="matrix(-0.997575, -0.069605, -0.069605, 0.997575, -2829.958026, -13432.008081)" rx="9.916" ry="9.916"/>
          </g>
        </g>
        <g id="Group_1051" data-name="Group 1051" transform="matrix(1.213635, 0, 0, 1.248699, -3095.921875, 17002.994141)" style="">
          <g id="Group_880" data-name="Group 880" transform="matrix(1, 0, 0, 1, 1347.944824, -14110.203125)">
            <g id="Group_879" data-name="Group 879" clip-path="url(#clip-2)">
              <path id="Path_1302" data-name="Path 1302" d="M 309.045 92.58 C 310.157 91.306 312.718 90.28 318.42 89.967 C 315.164 88.12 311.508 87.091 307.767 86.967 C 306.576 79.038 302.359 65.007 288.713 61.596 C 288.713 61.596 296.047 65.504 297.003 73.933 C 281.197 57.703 247.336 45.89 153.568 53.293 C 29.992 63.047 70.718 142.167 86.717 151.599 C 102.716 161.031 142.987 135.172 172.795 137.54 C 202.603 139.908 208.271 182.976 218.384 188.888 C 228.497 194.8 224.518 184.347 238.201 178.163 C 251.884 171.979 253.184 194.649 249.231 209.391 C 245.278 224.133 264.08 243.573 264.08 243.573 L 283.08 223.114 C 302.08 202.655 319.98 115.999 311.343 97.526 C 310.58 95.893 309.826 94.241 309.043 92.58" fill="#323f51"/>
            </g>
          </g>
        </g>
      </g>
      <g id="Group_883" data-name="Group 883" transform="matrix(0.361797, 0, 0, 0.376554, 634.810181, 722.329346)" style="">
        <g id="Group_882" data-name="Group 882" clip-path="url(#clip-3)">
          <g transform="matrix(1, 0, 0, 1, 3.614305, 31.755066)">
            <path id="Path_1332" data-name="Path 1332" d="M 441.097 712.264 C 439.302 706.621 444.289 701.152 450.073 702.419 C 455.857 703.686 458.101 710.74 454.111 715.115 C 453.201 716.114 452.043 716.855 450.755 717.264 C 446.707 718.553 442.381 716.314 441.097 712.264" fill="#f99746"/>
            <g transform="matrix(1, 0, 0, 1, -5.800232, -24.489952)">
              <path d="M 379.338 374.482 C 379.338 379.296 377.032 379.005 385.689 400.624 C 386.673 403.082 401.015 406.404 401.516 409.172 C 401.797 410.724 387.944 431.282 388.233 432.881 C 402.631 512.431 415.224 543.492 419.997 563.648 C 421.981 572.026 441.261 661.031 448.902 695.724 C 450.078 701.064 450.287 709.079 450.706 711.206 C 450.858 711.979 464.426 714.455 463.774 710.475 C 463.641 709.666 461.458 699.625 460.726 690.03 C 456.991 641.024 446.56 494.76 440.773 428.495 C 440.605 426.579 420.552 409.314 420.392 407.501 C 420.252 405.913 439.101 395.864 439.069 394.354 C 438.675 375.663 439.121 358.277 437.551 357.815 C 435.886 357.325 433.011 366.242 427.853 372.523 C 425.437 375.465 415.726 383.848 406.52 384.078 C 394.931 384.368 383.464 376.072 380.723 376.497" style="stroke: rgb(0, 0, 0); fill: rgb(190, 47, 47);"/>
            </g>
            <path id="path-1" data-name="Path 1332" d="M 443.57 736.406 C 441.775 730.763 446.762 725.294 452.546 726.561 C 458.33 727.828 460.574 734.882 456.584 739.257 C 455.674 740.256 454.516 740.997 453.228 741.406 C 449.18 742.695 444.854 740.456 443.57 736.406" fill="#f99746"/>
            <rect x="167.515" y="206.335" width="164.448" height="41.402" style="fill: rgb(235, 226, 226);" transform="matrix(0.792918, 0.609328, -0.51194, 0.867758, 234.906265, -31.31123)" rx="9.775" ry="9.775"/>
            <rect x="82.341" y="168.183" width="80.831" height="33.745" style="fill: rgb(235, 226, 226);" transform="matrix(0.369186, -0.929356, 0.613042, 1.165446, 274.598846, 227.444016)" rx="9.775" ry="9.775"/>
          </g>
        </g>
      </g>
      <path id="Path_1336" data-name="Path 1336" d="M 815.418 800.844 C 815.418 800.844 819.79 805.431 823.451 804.897 C 827.075 804.367 829.937 797.934 829.937 797.934 C 825.259 797.176 820.277 798.174 815.418 800.844" fill="#fff2e9" style="" transform="matrix(0.98487, -0.173295, 0.173295, 0.98487, -126.37682, 154.942451)" bx:origin="0.601 0.486"/>
      <rect x="-171.974" y="3.848" width="0.881" height="2.137" style="fill: rgb(186, 177, 3);" transform="matrix(-0.996412, 0.084632, -0.129488, -0.992602, 660.815796, 940.489624)"/>
      <circle style="fill: rgb(16, 12, 12);" cx="-2010.615" cy="64.791" r="5.299" transform="matrix(0.34999, 0, 0, 0.307846, 1535.34729, 903.460144)"/>
      <rect x="-727.074" y="17.674" width="3.725" height="9.818" style="fill: rgb(239, 94, 94);" transform="matrix(0.99352, -0.113658, 0.156217, 0.988651, 1549.443604, 823.678345)"/>
      <rect x="-143.817" y="5.829" width="0.736" height="3.238" style="fill: rgb(222, 222, 222);" transform="matrix(-0.080413, -0.996762, 0.991744, -0.142605, 813.27832, 784.583862)"/>
      <rect x="-180.954" y="3.848" width="0.927" height="2.137" style="fill: rgb(186, 177, 3);" transform="matrix(-0.996412, 0.084632, -0.129488, -0.992602, 658.448792, 943.983337)"/>
      <circle style="fill: rgb(16, 12, 12);" cx="-2010.615" cy="64.791" r="5.299" transform="matrix(0.338982, 0, 0, 0.307846, 1519.568726, 906.0401)"/>
      <rect x="-727.073" y="12.022" width="3.725" height="6.678" style="fill: rgb(45, 129, 32);" transform="matrix(0.99352, -0.113658, 0.156217, 0.988651, 1556.655273, 831.739868)"/>
      <rect x="-135.417" y="5.828" width="0.693" height="3.237" style="fill: rgb(222, 222, 222);" transform="matrix(-0.05448, -0.998515, 0.995231, -0.11466, 823.612305, 794.493225)"/>
    </g>
  </g>
  <path style="fill: rgb(216, 216, 216); stroke: rgb(0, 0, 0);" d="M 782.365 866.556 L 782.365 866.556 L 782.365 866.556 Z"/>
  <g id="Group_874" data-name="Group 874" transform="matrix(0.361797, 0, 0, 0.376554, 865.19989, 1410.143433)">
    <g>
      <g id="g-1" data-name="Group 873" transform="matrix(1, 0, 0, 1, 811.754395, 181.593887)">
        <g id="g-5" data-name="Group 872" clip-path="url(#clip-4)" transform="matrix(1, 0, 0, 1, -45.328007, 129.17804)">
          <path id="Path_1277" data-name="Path 1277" d="M526,213.911c-1.055-1.75-44.926-71.123-126.933-84.964a117.58,117.58,0,0,0-76.164,12.828c-1.125-6.979-1.692-11.022-1.692-11.022S311.206,86.61,269.457,84.465c0,0,13.312,7.957,15.445,16.356,0,0-24.231-20.331-61.777-6.739s-93.264,51.81-65.2,140.718S128.7,345.741,105.678,403.094s55.339,68.371,39.095,113.149,32.092,150.534,155.055,104.3c113.789-42.786,146.18-197.852,108.981-255.079Z" transform="translate(76.008 63.309)" fill="#b2443b"/>
          <path id="Path_1279" data-name="Path 1279" d="M397.186,401.337,273.629,474.731l-27.154-86.86s10.247-31.808,14.411-82.5a338.171,338.171,0,0,0-2-73.1L366.332,278.93a197.789,197.789,0,0,0-2.626,24.084c-.8,15.455-.271,36.192,5.341,55.565,4.832,16.629,13.407,32.256,28.139,42.758" transform="translate(184.739 174.091)" fill="#ffb27d"/>
          <path id="Path_1280" data-name="Path 1280" d="M362.873,328.27c-59.269,2.182-108.161-53.21-108.161-53.21l102.82-2.355c-.8,15.455-.271,36.194,5.341,55.565" transform="translate(190.913 204.399)" fill="#ea9c68"/>
          <path id="Path_1281" data-name="Path 1281" d="M411.191,387.265s-116.044,38.672-162.727-52.592c-50.381-98.49-6.872-175.353,32.889-182.88,79.29-15.011,127.656,12.511,143.75,43.833s50.152,170.883-13.912,191.64" transform="translate(169.199 110.612)" fill="#ffb27d"/>
          <path id="Path_1282" data-name="Path 1282" d="M303.076,263.891s5.712,11.86,36.411,3.046c0,0,25.779-7.4,21.939-20.968,0,0-27.5-4.18-58.35,17.922" transform="translate(227.163 184.124)" fill="#fff"/>
          <path id="Path_1283" data-name="Path 1283" d="M 538.228 540.77 L 538.228 540.784 C 580.692 498.343 569.077 454.677 569.404 454.638 L 507.44 342.477 L 507.44 342.465 C 495.809 332.505 480.945 325.341 462.096 322.956 C 455.164 322.08 440.558 319.356 432.415 318.384 C 433.802 336.74 433.802 351.557 401.734 357.184 C 380.911 360.855 360.96 357.056 343.606 349.995 C 327.398 343.314 312.518 333.783 299.672 321.854 C 298.157 322.136 296.672 322.419 295.204 322.675 C 264.496 328.352 245.626 330.786 220.258 340.828 C 211.403 344.321 203.362 349.6 196.636 356.336 L 196.559 356.413 C 192.078 360.928 188.234 366.034 185.133 371.588 C 178.026 384.288 175.106 398.906 176.788 413.361 L 181.127 450.72 L 181.797 456.576 L 189.035 518.864 L 205.62 661.6 L 209.602 695.952 C 209.602 695.952 208.907 700.191 207.726 707.508 L 207.726 707.533 C 206.802 713.361 205.541 721.193 204.078 730.41 L 541.463 730.41 C 536.532 667.329 535.452 604.007 538.228 540.795 L 538.228 540.77 Z" transform="translate(132.159 238.637)" fill="#323f51"/>
          <path id="Path_1284" data-name="Path 1284" d="M340.248,177.1s1.529,91.126-50.976,121.139c0,0,20.744-42.93,13.741-69.161,0,0-13.564,81.281-55.042,95.458S185.527,173.6,271.335,140.4s170.428,6.23,180.544,64.269,2.414,70.142,2.414,70.142S414.124,164.392,340.248,177.1" transform="translate(158.837 96.144)" fill="#b2443b"/>
          <path id="Path_1285" data-name="Path 1285" d="M324.987,707.613H204.079c1.463-9.216,2.722-17.047,3.648-22.877v-.023c1.179-7.318,1.876-11.557,1.876-11.557L205.618,638.8,189.033,496.069l-7.24-62.288-.668-5.854-4.339-37.361a69.169,69.169,0,0,1,8.345-41.773,13.631,13.631,0,0,1,6.674,3.261c17.331,14.635,34.3,40.516,50.017,71.047,5.751,11.193,11.347,23.029,16.715,35.148q5.545,12.56,10.76,25.368v.03c1.307,3.207,2.591,6.391,3.875,9.573,30.221,76.181,50.609,152.053,50.609,152.053s4.493,25.8,1.205,62.341" transform="translate(132.159 261.429)" fill="#202d3e"/>
          <path id="Path_1286" data-name="Path 1286" d="M301.581,433.768s-2.724,6.984-7.189,18.333v.028c-2.673,6.774-5.957,15.146-9.682,24.493-16.045,40.414-39.774,99.366-54,130.665-3.49,7.675-6.417,13.685-8.5,17.355-1.951,3.441,2.7,14.353,10.6,28.554v.025c3.9,6.981,8.576,14.789,13.632,22.875H156.844c-6.419-8.882-10.936-16.946-12.684-23.592-7.367-27.887,17.845-140.476,34.432-208.568,4.622-18.949,8.576-34.431,10.963-43.7,1.541-6.006,2.439-9.4,2.439-9.4l14.224,5.572,14.381,5.647h.026l63.006,24.675Z" transform="translate(107.065 292.943)" fill="#ffb27d"/>
          <path id="Path_1287" data-name="Path 1287" d="M281,521.515S213.72,533.27,148.083,465.438c0,0,55.756-163.135,125.259-130.1S326.132,482.179,281,521.515" transform="translate(110.992 248.033)" fill="#323f51"/>
          <path d="M 703.896 499.547 m -152.689 0 a 152.689 146.769 0 1 0 305.378 0 a 152.689 146.769 0 1 0 -305.378 0 Z M 703.896 499.547 m -91.609 0 a 91.609 88.058 0 0 1 183.218 0 a 91.609 88.058 0 0 1 -183.218 0 Z" style="fill: rgb(216, 216, 216);" transform="matrix(0.997389, -0.072218, 0.078195, 0.996956, 918.580346, 1726.981421)" bx:shape="ring 703.896 499.547 91.609 88.058 152.689 146.769 1@3533aeba"/>
        </g>
      </g>
    </g>
  </g>
  <text transform="matrix(0.361797, 0, 0, 0.376554, 1533.72644, 1305.435059)" style="fill: rgb(153, 0, 51); font-family: &quot;Roboto Slab&quot;; font-size: 148px; font-weight: 700; text-anchor: middle; white-space: pre;"><tspan x="197.532" y="943.396">Patient</tspan><tspan>historier</tspan><tspan x="197.53199768066406" dy="1em">​</tspan></text>
</svg>
