<svg viewBox="-5161.257 -367.635 988.49 987.226" xmlns="http://www.w3.org/2000/svg"><defs><clipPath id="menutal2b_svg__a"><path d="M0 0h505v537H0z"/></clipPath><clipPath id="menutal2b_svg__b"><path fill="#323f51" d="M0 0h35.569v27.465H0z" data-name="Rectangle 374"/></clipPath><clipPath id="menutal2b_svg__c"><path fill="#323f51" d="M0 0h35.569v27.465H0z" data-name="Rectangle 374"/></clipPath><clipPath id="menutal2b_svg__d"><path d="M0 0h1166v1094H0z"/></clipPath><clipPath id="menutal2b_svg__e"><path d="M0 0h545v513H0z"/></clipPath><clipPath id="menutal2b_svg__f"><path d="M0 0h1166v1094H0z"/></clipPath><clipPath id="menutal2b_svg__g"><path d="M0 0h545v513H0z"/></clipPath><clipPath id="menutal2b_svg__h"><path fill="#323f51" d="M0 0h35.569v27.465H0z" data-name="Rectangle 374"/></clipPath><clipPath id="menutal2b_svg__i"><path d="M0 0h1166v1094H0z"/></clipPath><clipPath id="menutal2b_svg__j"><path d="M0 0h545v513H0z"/></clipPath><clipPath id="menutal2b_svg__k"><path d="M0 0h1166v1094H0z"/></clipPath><clipPath id="menutal2b_svg__l"><path d="M0 0h545v513H0z"/></clipPath><clipPath id="menutal2b_svg__m"><path d="M0 0h505v537H0z"/></clipPath><clipPath id="menutal2b_svg__n"><path fill="#323f51" d="M17226.065 1685.887h35.575v27.472h-35.575z" data-name="Rectangle 374"/></clipPath><clipPath id="menutal2b_svg__o"><path fill="#323f51" d="M0 0h35.569v27.465H0z" data-name="Rectangle 374"/></clipPath><clipPath id="menutal2b_svg__p"><path d="M0 0h1166v1094H0z"/></clipPath><clipPath id="menutal2b_svg__q"><path d="M0 0h545v513H0z"/></clipPath><clipPath id="menutal2b_svg__r"><path d="M0 0h1166v1094H0z"/></clipPath><clipPath id="menutal2b_svg__s"><path d="M0 0h545v513H0z"/></clipPath><clipPath id="menutal2b_svg__t"><path fill="#323f51" d="M25963.565 8772.433h35.587v27.472h-35.587z" data-name="Rectangle 374"/></clipPath><clipPath id="menutal2b_svg__u"><path d="M0 0h1166v1094H0z"/></clipPath><clipPath id="menutal2b_svg__v"><path d="M0 0h545v513H0z"/></clipPath><clipPath id="menutal2b_svg__w"><path d="M0 0h1166v1094H0z"/></clipPath><clipPath id="menutal2b_svg__x"><path d="M0 0h545v513H0z"/></clipPath><clipPath id="menutal2b_svg__y"><path d="M0 0h505v537H0z"/></clipPath><clipPath id="menutal2b_svg__z"><path fill="#323f51" d="M29315.175 12440.494h35.587v27.473h-35.587z" data-name="Rectangle 374"/></clipPath><clipPath id="menutal2b_svg__A"><path d="M0 0h1166v1094H0z"/></clipPath><clipPath id="menutal2b_svg__B"><path d="M0 0h545v513H0z"/></clipPath><clipPath id="menutal2b_svg__C"><path d="M0 0h1166v1094H0z"/></clipPath><clipPath id="menutal2b_svg__D"><path d="M0 0h545v513H0z"/></clipPath><clipPath id="menutal2b_svg__E"><path fill="#323f51" d="M-1636.41 292.378h35.569v27.465h-35.569z" data-name="Rectangle 374"/></clipPath><clipPath id="menutal2b_svg__F"><path d="M0 0h1166v1094H0z"/></clipPath><clipPath id="menutal2b_svg__G"><path d="M0 0h545v513H0z"/></clipPath><clipPath id="menutal2b_svg__H"><path d="M0 0h1166v1094H0z"/></clipPath><clipPath id="menutal2b_svg__I"><path d="M0 0h545v513H0z"/></clipPath></defs><path fill="#323f51" d="M1779.581 1798.383c1.779-.832 7.024-3.289 6.673-5.909a3.37 3.37 0 0 1 .376-.319c-.741-.076-.292-.636.094-.085a7.814 7.814 0 0 1-.392-1.658c-2.631.153-15.187-2.376-14.338.068-.62-1.016-.89-.153-1-.056.173.223.365.432.573.624-1.477.822-2.258 1.866.117 2.18 2.654.351 5.444.631 8.205.819a14.648 14.648 0 0 1-3.223 2.189l-.389.185c.476-.471.865-.962.132-.7-.26.286-.478.607-.649.954-2.484 1.261-4.259 2.761-3.685 3.921.063.874.91 1.106 1.753 1.208l-.068.032.068-.032c.022.016-.013.019-.068.032-.1.048.16.156.229.17.081-.09.1-.142.087-.175l.194.019c.615.157 1.239.274 1.869.351.617.078 2.271.346 4.134.5.059.219.129.377.214.276-.028.034-.01-.09.021-.255.556.041 1.126.069 1.693.082-.206.122-.587.216-.451.3.22-.044.424-.148.589-.3.062 0 .125.006.188.006.112.141.417.147.959-.015 2.248-.091 4.117-.609 4.117-2.114 0-1.938-4.192-2.279-8.02-2.3m-2.091-8.506a1.13 1.13 0 0 1-.123.17h-.213c-.016-.244.156-.7.336-.169m-.862.084c.044-.122.1-.166.157-.132-.01.091-.019.15-.028.213h-.13v-.079m-.363.074h-.12a3.424 3.424 0 0 1-.09-.236s-.016-.034-.044-.113c.117-.072.214.166.254.352m-3.872.537s.1-.013.189-.016a.21.21 0 0 1-.189.016" clip-path="url(#menutal2b_svg__b)" data-name="Path 1341" transform="translate(-5948.526 -6231.195)"/><path fill="#323f51" d="M1805.735 1789.42c-.007-1.594-5.945-1.86-10.132-1.9.189-.189.379-.389.568-.609.134-.044.263-.101.386-.169a1.65 1.65 0 0 1-.094-.182c.028-.034.054-.063.081-.1.021.079.037.16.048.242.324-.445.683-.865 1.071-1.255a.23.23 0 0 0 .087.088c.056.025.076-.107.054-.235 2.048-2.121 5.5-5.265 4.556-6.341.053-.022.1-.037.153-.06.3.057.323-.079.28-.236.135-.025.21-.047.2-.072a3.822 3.822 0 0 0-.429-.581c.053-.455-.68-.691-.871-1.009.069.106.117.226.142.351a4.718 4.718 0 0 0-.515-.31c.308-.2-.1-.258-.344-.156a6.729 6.729 0 0 0-1.053-.339c.129-.825-.208-.269-.172-.041a25.418 25.418 0 0 0-5.532-.25 1.368 1.368 0 0 0-.157.015 2.263 2.263 0 0 1-.6-.511c-.046-.079-.037-.1-.009-.113a4.772 4.772 0 0 1-.818.3.501.501 0 0 0 0-.164c-.018-.06-.078.057-.106.192-1.36.346-3.3.417-3.121.021-.363.791-.622.489-.558 1.572-.276-2.3.034.913-.247-.529.016.088.076.363.139.675-1.379.533-2.066 1.06-.465 1.286.159.021.439.038.806.05-.028.1-.037.185.018.235.011-.078.018-.155.022-.233 1.511.047 4.5.018 7.319-.057a.304.304 0 0 0-.181.314c-.029 1.069.369-.11.429-.32l.976-.028c.069.1.144.144.22.109.076-.035.137-.084.207-.123l.827-.029a.483.483 0 0 0-.115.317c-.046.476.229-.185.229-.322l.5-.019c-.26.239-.323.363-.3.42a36.123 36.123 0 0 0-4.096 3.663.145.145 0 0 0-.069-.081c-.132-.063-.214.142-.141.294a54.998 54.998 0 0 0-4.332 4.945.6.6 0 0 0-.056.694.703.703 0 0 0-.119.369 5.474 5.474 0 0 0 2.1.837c.938.4.743.232.443.029.241.068.495.131.758.189.075 1.053 1.59.712 2.42.42.4.051.807.1 1.217.134a.336.336 0 0 0-.1.279c.032.4.313-.025.382-.254.73.062 1.465.1 2.182.113-.106.07-.2.138-.253.117.092.038.257-.04.4-.116.681.01 1.342 0 1.957-.041 2.188-.138 3.811-.6 3.807-1.486m-5.4-8.9-.075.106a.274.274 0 0 1 .075-.106m1.288-1.7a.239.239 0 0 1-.019.144Zm-1.892 2.728.085-.148c.2.151.053.2-.085.148m.5.669c-.561-1.135.806.417 0 0m.332-.37c-.711-.721-.07-.226-.032-.173.073.1.085.161.032.173m.433-.348c.05.37-1.509-.753 0 0m-10.341-4.851c-.014.153-.04.305-.079.455-.081-.155-.038-1.081.079-.455m-.238.041c.006.254.006.393 0 .46a1.276 1.276 0 0 1-.048-.313c.007-.125.023-.175.046-.147m-1.008-.21h-.082c.019-.084.138-.637.082 0m.746.153c.113-.248.2.21.22.533-.037.01-.072.022-.109.031a8.798 8.798 0 0 1-.112-.564m9.379 2.259.333-.015c-.06.04-.123.085-.186.128a.285.285 0 0 0-.147-.113m-4.905 11.55.336.057c-.277.032-.374-.015-.336-.057" clip-path="url(#menutal2b_svg__b)" data-name="Path 1342" transform="translate(-5948.526 -6231.195)"/><path fill="#323f51" d="M1790.215 1790.046c.437.288.986.35 1.477.169 0 0-1.875-.78-1.477-.169" clip-path="url(#menutal2b_svg__b)" data-name="Path 1343" transform="translate(-5948.526 -6231.195)"/><g data-name="Group 831"><path fill="#323f51" d="M1779.581 1798.383c1.779-.832 7.024-3.289 6.673-5.909a3.37 3.37 0 0 1 .376-.319c-.741-.076-.292-.636.094-.085a7.814 7.814 0 0 1-.392-1.658c-2.631.153-15.187-2.376-14.338.068-.62-1.016-.89-.153-1-.056.173.223.365.432.573.624-1.477.822-2.258 1.866.117 2.18 2.654.351 5.444.631 8.205.819a14.648 14.648 0 0 1-3.223 2.189l-.389.185c.476-.471.865-.962.132-.7-.26.286-.478.607-.649.954-2.484 1.261-4.259 2.761-3.685 3.921.063.874.91 1.106 1.753 1.208l-.068.032.068-.032c.022.016-.013.019-.068.032-.1.048.16.156.229.17.081-.09.1-.142.087-.175l.194.019c.615.157 1.239.274 1.869.351.617.078 2.271.346 4.134.5.059.219.129.377.214.276-.028.034-.01-.09.021-.255.556.041 1.126.069 1.693.082-.206.122-.587.216-.451.3.22-.044.424-.148.589-.3.062 0 .125.006.188.006.112.141.417.147.959-.015 2.248-.091 4.117-.609 4.117-2.114 0-1.938-4.192-2.279-8.02-2.3m-2.091-8.506a1.13 1.13 0 0 1-.123.17h-.213c-.016-.244.156-.7.336-.169m-.862.084c.044-.122.1-.166.157-.132-.01.091-.019.15-.028.213h-.13v-.079m-.363.074h-.12a3.424 3.424 0 0 1-.09-.236s-.016-.034-.044-.113c.117-.072.214.166.254.352m-3.872.537s.1-.013.189-.016a.21.21 0 0 1-.189.016" clip-path="url(#menutal2b_svg__c)" data-name="Path 1341" transform="translate(-17740.913 -5523.183)"/><path fill="#323f51" d="M1805.735 1789.42c-.007-1.594-5.945-1.86-10.132-1.9.189-.189.379-.389.568-.609.134-.044.263-.101.386-.169a1.65 1.65 0 0 1-.094-.182c.028-.034.054-.063.081-.1.021.079.037.16.048.242.324-.445.683-.865 1.071-1.255a.23.23 0 0 0 .087.088c.056.025.076-.107.054-.235 2.048-2.121 5.5-5.265 4.556-6.341.053-.022.1-.037.153-.06.3.057.323-.079.28-.236.135-.025.21-.047.2-.072a3.822 3.822 0 0 0-.429-.581c.053-.455-.68-.691-.871-1.009.069.106.117.226.142.351a4.718 4.718 0 0 0-.515-.31c.308-.2-.1-.258-.344-.156a6.729 6.729 0 0 0-1.053-.339c.129-.825-.208-.269-.172-.041a25.418 25.418 0 0 0-5.532-.25 1.368 1.368 0 0 0-.157.015 2.263 2.263 0 0 1-.6-.511c-.046-.079-.037-.1-.009-.113a4.772 4.772 0 0 1-.818.3.501.501 0 0 0 0-.164c-.018-.06-.078.057-.106.192-1.36.346-3.3.417-3.121.021-.363.791-.622.489-.558 1.572-.276-2.3.034.913-.247-.529.016.088.076.363.139.675-1.379.533-2.066 1.06-.465 1.286.159.021.439.038.806.05-.028.1-.037.185.018.235.011-.078.018-.155.022-.233 1.511.047 4.5.018 7.319-.057a.304.304 0 0 0-.181.314c-.029 1.069.369-.11.429-.32l.976-.028c.069.1.144.144.22.109.076-.035.137-.084.207-.123l.827-.029a.483.483 0 0 0-.115.317c-.046.476.229-.185.229-.322l.5-.019c-.26.239-.323.363-.3.42a36.123 36.123 0 0 0-4.096 3.663.145.145 0 0 0-.069-.081c-.132-.063-.214.142-.141.294a54.998 54.998 0 0 0-4.332 4.945.6.6 0 0 0-.056.694.703.703 0 0 0-.119.369 5.474 5.474 0 0 0 2.1.837c.938.4.743.232.443.029.241.068.495.131.758.189.075 1.053 1.59.712 2.42.42.4.051.807.1 1.217.134a.336.336 0 0 0-.1.279c.032.4.313-.025.382-.254.73.062 1.465.1 2.182.113-.106.07-.2.138-.253.117.092.038.257-.04.4-.116.681.01 1.342 0 1.957-.041 2.188-.138 3.811-.6 3.807-1.486m-5.4-8.9-.075.106a.274.274 0 0 1 .075-.106m1.288-1.7a.239.239 0 0 1-.019.144Zm-1.892 2.728.085-.148c.2.151.053.2-.085.148m.5.669c-.561-1.135.806.417 0 0m.332-.37c-.711-.721-.07-.226-.032-.173.073.1.085.161.032.173m.433-.348c.05.37-1.509-.753 0 0m-10.341-4.851c-.014.153-.04.305-.079.455-.081-.155-.038-1.081.079-.455m-.238.041c.006.254.006.393 0 .46a1.276 1.276 0 0 1-.048-.313c.007-.125.023-.175.046-.147m-1.008-.21h-.082c.019-.084.138-.637.082 0m.746.153c.113-.248.2.21.22.533-.037.01-.072.022-.109.031a8.798 8.798 0 0 1-.112-.564m9.379 2.259.333-.015c-.06.04-.123.085-.186.128a.285.285 0 0 0-.147-.113m-4.905 11.55.336.057c-.277.032-.374-.015-.336-.057" clip-path="url(#menutal2b_svg__c)" data-name="Path 1342" transform="translate(-17740.913 -5523.183)"/><path fill="#323f51" d="M1790.215 1790.046c.437.288.986.35 1.477.169 0 0-1.875-.78-1.477-.169" clip-path="url(#menutal2b_svg__c)" data-name="Path 1343" transform="translate(-17740.913 -5523.183)"/></g><path fill="#323f51" d="M1779.581 1798.383c1.779-.832 7.024-3.289 6.673-5.909a3.37 3.37 0 0 1 .376-.319c-.741-.076-.292-.636.094-.085a7.814 7.814 0 0 1-.392-1.658c-2.631.153-15.187-2.376-14.338.068-.62-1.016-.89-.153-1-.056.173.223.365.432.573.624-1.477.822-2.258 1.866.117 2.18 2.654.351 5.444.631 8.205.819a14.648 14.648 0 0 1-3.223 2.189l-.389.185c.476-.471.865-.962.132-.7-.26.286-.478.607-.649.954-2.484 1.261-4.259 2.761-3.685 3.921.063.874.91 1.106 1.753 1.208l-.068.032.068-.032c.022.016-.013.019-.068.032-.1.048.16.156.229.17.081-.09.1-.142.087-.175l.194.019c.615.157 1.239.274 1.869.351.617.078 2.271.346 4.134.5.059.219.129.377.214.276-.028.034-.01-.09.021-.255.556.041 1.126.069 1.693.082-.206.122-.587.216-.451.3.22-.044.424-.148.589-.3.062 0 .125.006.188.006.112.141.417.147.959-.015 2.248-.091 4.117-.609 4.117-2.114 0-1.938-4.192-2.279-8.02-2.3m-2.091-8.506a1.13 1.13 0 0 1-.123.17h-.213c-.016-.244.156-.7.336-.169m-.862.084c.044-.122.1-.166.157-.132-.01.091-.019.15-.028.213h-.13v-.079m-.363.074h-.12a3.424 3.424 0 0 1-.09-.236s-.016-.034-.044-.113c.117-.072.214.166.254.352m-3.872.537s.1-.013.189-.016a.21.21 0 0 1-.189.016" clip-path="url(#menutal2b_svg__h)" data-name="Path 1341" transform="translate(-14737.108 -5882.309)"/><path fill="#323f51" d="M1805.735 1789.42c-.007-1.594-5.945-1.86-10.132-1.9.189-.189.379-.389.568-.609.134-.044.263-.101.386-.169a1.65 1.65 0 0 1-.094-.182c.028-.034.054-.063.081-.1.021.079.037.16.048.242.324-.445.683-.865 1.071-1.255a.23.23 0 0 0 .087.088c.056.025.076-.107.054-.235 2.048-2.121 5.5-5.265 4.556-6.341.053-.022.1-.037.153-.06.3.057.323-.079.28-.236.135-.025.21-.047.2-.072a3.822 3.822 0 0 0-.429-.581c.053-.455-.68-.691-.871-1.009.069.106.117.226.142.351a4.718 4.718 0 0 0-.515-.31c.308-.2-.1-.258-.344-.156a6.729 6.729 0 0 0-1.053-.339c.129-.825-.208-.269-.172-.041a25.418 25.418 0 0 0-5.532-.25 1.368 1.368 0 0 0-.157.015 2.263 2.263 0 0 1-.6-.511c-.046-.079-.037-.1-.009-.113a4.772 4.772 0 0 1-.818.3.501.501 0 0 0 0-.164c-.018-.06-.078.057-.106.192-1.36.346-3.3.417-3.121.021-.363.791-.622.489-.558 1.572-.276-2.3.034.913-.247-.529.016.088.076.363.139.675-1.379.533-2.066 1.06-.465 1.286.159.021.439.038.806.05-.028.1-.037.185.018.235.011-.078.018-.155.022-.233 1.511.047 4.5.018 7.319-.057a.304.304 0 0 0-.181.314c-.029 1.069.369-.11.429-.32l.976-.028c.069.1.144.144.22.109.076-.035.137-.084.207-.123l.827-.029a.483.483 0 0 0-.115.317c-.046.476.229-.185.229-.322l.5-.019c-.26.239-.323.363-.3.42a36.123 36.123 0 0 0-4.096 3.663.145.145 0 0 0-.069-.081c-.132-.063-.214.142-.141.294a54.998 54.998 0 0 0-4.332 4.945.6.6 0 0 0-.056.694.703.703 0 0 0-.119.369 5.474 5.474 0 0 0 2.1.837c.938.4.743.232.443.029.241.068.495.131.758.189.075 1.053 1.59.712 2.42.42.4.051.807.1 1.217.134a.336.336 0 0 0-.1.279c.032.4.313-.025.382-.254.73.062 1.465.1 2.182.113-.106.07-.2.138-.253.117.092.038.257-.04.4-.116.681.01 1.342 0 1.957-.041 2.188-.138 3.811-.6 3.807-1.486m-5.4-8.9-.075.106a.274.274 0 0 1 .075-.106m1.288-1.7a.239.239 0 0 1-.019.144Zm-1.892 2.728.085-.148c.2.151.053.2-.085.148m.5.669c-.561-1.135.806.417 0 0m.332-.37c-.711-.721-.07-.226-.032-.173.073.1.085.161.032.173m.433-.348c.05.37-1.509-.753 0 0m-10.341-4.851c-.014.153-.04.305-.079.455-.081-.155-.038-1.081.079-.455m-.238.041c.006.254.006.393 0 .46a1.276 1.276 0 0 1-.048-.313c.007-.125.023-.175.046-.147m-1.008-.21h-.082c.019-.084.138-.637.082 0m.746.153c.113-.248.2.21.22.533-.037.01-.072.022-.109.031a8.798 8.798 0 0 1-.112-.564m9.379 2.259.333-.015c-.06.04-.123.085-.186.128a.285.285 0 0 0-.147-.113m-4.905 11.55.336.057c-.277.032-.374-.015-.336-.057" clip-path="url(#menutal2b_svg__h)" data-name="Path 1342" transform="translate(-14737.108 -5882.309)"/><path fill="#323f51" d="M1790.215 1790.046c.437.288.986.35 1.477.169 0 0-1.875-.78-1.477-.169" clip-path="url(#menutal2b_svg__h)" data-name="Path 1343" transform="translate(-14737.108 -5882.309)"/><path fill="#323f51" d="M7521.097 2360.397c1.779-.832 7.024-3.289 6.673-5.909a3.37 3.37 0 0 1 .376-.319c-.741-.076-.292-.636.094-.085a7.814 7.814 0 0 1-.392-1.658c-2.631.153-15.187-2.376-14.338.068-.62-1.016-.89-.153-1-.056.173.223.365.432.573.624-1.477.822-2.258 1.866.117 2.18 2.654.351 5.444.631 8.205.819a14.648 14.648 0 0 1-3.223 2.189l-.389.185c.476-.471.865-.962.132-.7-.26.286-.478.607-.649.954-2.484 1.261-4.259 2.761-3.685 3.921.063.874.91 1.106 1.753 1.208l-.068.032.068-.032c.022.016-.013.019-.068.032-.1.048.16.156.229.17.081-.09.1-.142.087-.175l.194.019c.615.157 1.239.274 1.869.351.617.078 2.271.346 4.134.5.059.219.129.377.214.276-.028.034-.01-.09.021-.255.556.041 1.126.069 1.693.082-.206.122-.587.216-.451.3.22-.044.424-.148.589-.3.062 0 .125.006.188.006.112.141.417.147.959-.015 2.248-.091 4.117-.609 4.117-2.114 0-1.938-4.192-2.279-8.02-2.3m-2.091-8.506a1.13 1.13 0 0 1-.123.17h-.213c-.016-.244.156-.7.336-.169m-.862.084c.044-.122.1-.166.157-.132-.01.091-.019.15-.028.213h-.13v-.079m-.363.074h-.12a3.424 3.424 0 0 1-.09-.236s-.016-.034-.044-.113c.117-.072.214.166.254.352m-3.872.537s.1-.013.189-.016a.21.21 0 0 1-.189.016" clip-path="url(#menutal2b_svg__n)" data-name="Path 1341" transform="translate(-19361.413 -5221.24)"/><path fill="#323f51" d="M7547.251 2351.434c-.007-1.594-5.945-1.86-10.132-1.9.189-.189.379-.389.568-.609.134-.044.263-.101.386-.169a1.65 1.65 0 0 1-.094-.182c.028-.034.054-.063.081-.1.021.079.037.16.048.242.324-.445.683-.865 1.071-1.255a.23.23 0 0 0 .087.088c.056.025.076-.107.054-.235 2.048-2.121 5.5-5.265 4.556-6.341.053-.022.1-.037.153-.06.3.057.323-.079.28-.236.135-.025.21-.047.2-.072a3.822 3.822 0 0 0-.429-.581c.053-.455-.68-.691-.871-1.009.069.106.117.226.142.351a4.718 4.718 0 0 0-.515-.31c.308-.2-.1-.258-.344-.156a6.729 6.729 0 0 0-1.053-.339c.129-.825-.208-.269-.172-.041a25.418 25.418 0 0 0-5.532-.25 1.368 1.368 0 0 0-.157.015 2.263 2.263 0 0 1-.6-.511c-.046-.079-.037-.1-.009-.113a4.772 4.772 0 0 1-.818.3.501.501 0 0 0 0-.164c-.018-.06-.078.057-.106.192-1.36.346-3.3.417-3.121.021-.363.791-.622.489-.558 1.572-.276-2.3.034.913-.247-.529.016.088.076.363.139.675-1.379.533-2.066 1.06-.465 1.286.159.021.439.038.806.05-.028.1-.037.185.018.235.011-.078.018-.155.022-.233 1.511.047 4.5.018 7.319-.057a.304.304 0 0 0-.181.314c-.029 1.069.369-.11.429-.32l.976-.028c.069.1.144.144.22.109.076-.035.137-.084.207-.123l.827-.029a.483.483 0 0 0-.115.317c-.046.476.229-.185.229-.322l.5-.019c-.26.239-.323.363-.3.42a36.123 36.123 0 0 0-4.096 3.663.145.145 0 0 0-.069-.081c-.132-.063-.214.142-.141.294a54.998 54.998 0 0 0-4.332 4.945.6.6 0 0 0-.056.694.703.703 0 0 0-.119.369 5.474 5.474 0 0 0 2.1.837c.938.4.743.232.443.029.241.068.495.131.758.189.075 1.053 1.59.712 2.42.42.4.051.807.1 1.217.134a.336.336 0 0 0-.1.279c.032.4.313-.025.382-.254.73.062 1.465.1 2.182.113-.106.07-.2.138-.253.117.092.038.257-.04.4-.116.681.01 1.342 0 1.957-.041 2.188-.138 3.811-.6 3.807-1.486m-5.4-8.9-.075.106a.274.274 0 0 1 .075-.106m1.288-1.7a.239.239 0 0 1-.019.144Zm-1.892 2.728.085-.148c.2.151.053.2-.085.148m.5.669c-.561-1.135.806.417 0 0m.332-.37c-.711-.721-.07-.226-.032-.173.073.1.085.161.032.173m.433-.348c.05.37-1.509-.753 0 0m-10.341-4.851c-.014.153-.04.305-.079.455-.081-.155-.038-1.081.079-.455m-.238.041c.006.254.006.393 0 .46a1.276 1.276 0 0 1-.048-.313c.007-.125.023-.175.046-.147m-1.008-.21h-.082c.019-.084.138-.637.082 0m.746.153c.113-.248.2.21.22.533-.037.01-.072.022-.109.031a8.798 8.798 0 0 1-.112-.564m9.379 2.259.333-.015c-.06.04-.123.085-.186.128a.285.285 0 0 0-.147-.113m-4.905 11.55.336.057c-.277.032-.374-.015-.336-.057" clip-path="url(#menutal2b_svg__n)" data-name="Path 1342" transform="translate(-19361.413 -5221.24)"/><path fill="#323f51" d="M7531.731 2352.06c.437.288.986.35 1.477.169 0 0-1.875-.78-1.477-.169" clip-path="url(#menutal2b_svg__n)" data-name="Path 1343" transform="translate(-19361.413 -5221.24)"/><path fill="#fff" d="M5834.92 3544.536h58.543c251.625 0 455.606 450.438 455.606 450.438s-203.981 450.437-455.606 450.437h-58.543c-251.625-.001-455.608-201.668-455.607-450.437 0-248.77 203.982-450.438 455.607-450.438Z" data-name="Path 473" transform="rotate(-152.025 -53.384 2757.03)"/><g data-name="Group 831"><path fill="#323f51" d="M1779.581 1798.383c1.779-.832 7.024-3.289 6.673-5.909a3.37 3.37 0 0 1 .376-.319c-.741-.076-.292-.636.094-.085a7.814 7.814 0 0 1-.392-1.658c-2.631.153-15.187-2.376-14.338.068-.62-1.016-.89-.153-1-.056.173.223.365.432.573.624-1.477.822-2.258 1.866.117 2.18 2.654.351 5.444.631 8.205.819a14.648 14.648 0 0 1-3.223 2.189l-.389.185c.476-.471.865-.962.132-.7-.26.286-.478.607-.649.954-2.484 1.261-4.259 2.761-3.685 3.921.063.874.91 1.106 1.753 1.208l-.068.032.068-.032c.022.016-.013.019-.068.032-.1.048.16.156.229.17.081-.09.1-.142.087-.175l.194.019c.615.157 1.239.274 1.869.351.617.078 2.271.346 4.134.5.059.219.129.377.214.276-.028.034-.01-.09.021-.255.556.041 1.126.069 1.693.082-.206.122-.587.216-.451.3.22-.044.424-.148.589-.3.062 0 .125.006.188.006.112.141.417.147.959-.015 2.248-.091 4.117-.609 4.117-2.114 0-1.938-4.192-2.279-8.02-2.3m-2.091-8.506a1.13 1.13 0 0 1-.123.17h-.213c-.016-.244.156-.7.336-.169m-.862.084c.044-.122.1-.166.157-.132-.01.091-.019.15-.028.213h-.13v-.079m-.363.074h-.12a3.424 3.424 0 0 1-.09-.236s-.016-.034-.044-.113c.117-.072.214.166.254.352m-3.872.537s.1-.013.189-.016a.21.21 0 0 1-.189.016" clip-path="url(#menutal2b_svg__o)" data-name="Path 1341" transform="translate(-4914.814 -1824.13)"/><path fill="#323f51" d="M1805.735 1789.42c-.007-1.594-5.945-1.86-10.132-1.9.189-.189.379-.389.568-.609.134-.044.263-.101.386-.169a1.65 1.65 0 0 1-.094-.182c.028-.034.054-.063.081-.1.021.079.037.16.048.242.324-.445.683-.865 1.071-1.255a.23.23 0 0 0 .087.088c.056.025.076-.107.054-.235 2.048-2.121 5.5-5.265 4.556-6.341.053-.022.1-.037.153-.06.3.057.323-.079.28-.236.135-.025.21-.047.2-.072a3.822 3.822 0 0 0-.429-.581c.053-.455-.68-.691-.871-1.009.069.106.117.226.142.351a4.718 4.718 0 0 0-.515-.31c.308-.2-.1-.258-.344-.156a6.729 6.729 0 0 0-1.053-.339c.129-.825-.208-.269-.172-.041a25.418 25.418 0 0 0-5.532-.25 1.368 1.368 0 0 0-.157.015 2.263 2.263 0 0 1-.6-.511c-.046-.079-.037-.1-.009-.113a4.772 4.772 0 0 1-.818.3.501.501 0 0 0 0-.164c-.018-.06-.078.057-.106.192-1.36.346-3.3.417-3.121.021-.363.791-.622.489-.558 1.572-.276-2.3.034.913-.247-.529.016.088.076.363.139.675-1.379.533-2.066 1.06-.465 1.286.159.021.439.038.806.05-.028.1-.037.185.018.235.011-.078.018-.155.022-.233 1.511.047 4.5.018 7.319-.057a.304.304 0 0 0-.181.314c-.029 1.069.369-.11.429-.32l.976-.028c.069.1.144.144.22.109.076-.035.137-.084.207-.123l.827-.029a.483.483 0 0 0-.115.317c-.046.476.229-.185.229-.322l.5-.019c-.26.239-.323.363-.3.42a36.123 36.123 0 0 0-4.096 3.663.145.145 0 0 0-.069-.081c-.132-.063-.214.142-.141.294a54.998 54.998 0 0 0-4.332 4.945.6.6 0 0 0-.056.694.703.703 0 0 0-.119.369 5.474 5.474 0 0 0 2.1.837c.938.4.743.232.443.029.241.068.495.131.758.189.075 1.053 1.59.712 2.42.42.4.051.807.1 1.217.134a.336.336 0 0 0-.1.279c.032.4.313-.025.382-.254.73.062 1.465.1 2.182.113-.106.07-.2.138-.253.117.092.038.257-.04.4-.116.681.01 1.342 0 1.957-.041 2.188-.138 3.811-.6 3.807-1.486m-5.4-8.9-.075.106a.274.274 0 0 1 .075-.106m1.288-1.7a.239.239 0 0 1-.019.144Zm-1.892 2.728.085-.148c.2.151.053.2-.085.148m.5.669c-.561-1.135.806.417 0 0m.332-.37c-.711-.721-.07-.226-.032-.173.073.1.085.161.032.173m.433-.348c.05.37-1.509-.753 0 0m-10.341-4.851c-.014.153-.04.305-.079.455-.081-.155-.038-1.081.079-.455m-.238.041c.006.254.006.393 0 .46a1.276 1.276 0 0 1-.048-.313c.007-.125.023-.175.046-.147m-1.008-.21h-.082c.019-.084.138-.637.082 0m.746.153c.113-.248.2.21.22.533-.037.01-.072.022-.109.031a8.798 8.798 0 0 1-.112-.564m9.379 2.259.333-.015c-.06.04-.123.085-.186.128a.285.285 0 0 0-.147-.113m-4.905 11.55.336.057c-.277.032-.374-.015-.336-.057" clip-path="url(#menutal2b_svg__o)" data-name="Path 1342" transform="translate(-4914.814 -1824.13)"/><path fill="#323f51" d="M1790.215 1790.046c.437.288.986.35 1.477.169 0 0-1.875-.78-1.477-.169" clip-path="url(#menutal2b_svg__o)" data-name="Path 1343" transform="translate(-4914.814 -1824.13)"/></g><path fill="#323f51" d="M10431.585 4722.192c1.779-.832 7.024-3.289 6.673-5.909a3.37 3.37 0 0 1 .376-.319c-.741-.076-.292-.636.094-.085a7.814 7.814 0 0 1-.392-1.658c-2.631.153-15.187-2.376-14.338.068-.62-1.016-.89-.153-1-.056.173.223.365.432.573.624-1.477.822-2.258 1.866.117 2.18 2.654.351 5.444.631 8.205.819a14.648 14.648 0 0 1-3.223 2.189l-.389.185c.476-.471.865-.962.132-.7-.26.286-.478.607-.649.954-2.484 1.261-4.259 2.761-3.685 3.921.063.874.91 1.106 1.753 1.208l-.068.032.068-.032c.022.016-.013.019-.068.032-.1.048.16.156.229.17.081-.09.1-.142.087-.175l.194.019c.615.157 1.239.274 1.869.351.617.078 2.271.346 4.134.5.059.219.129.377.214.276-.028.034-.01-.09.021-.255.556.041 1.126.069 1.693.082-.206.122-.587.216-.451.3.22-.044.424-.148.589-.3.062 0 .125.006.188.006.112.141.417.147.959-.015 2.248-.091 4.117-.609 4.117-2.114 0-1.938-4.192-2.279-8.02-2.3m-2.091-8.506a1.13 1.13 0 0 1-.123.17h-.213c-.016-.244.156-.7.336-.169m-.862.084c.044-.122.1-.166.157-.132-.01.091-.019.15-.028.213h-.13v-.079m-.363.074h-.12a3.424 3.424 0 0 1-.09-.236s-.016-.034-.044-.113c.117-.072.214.166.254.352m-3.872.537s.1-.013.189-.016a.21.21 0 0 1-.189.016" clip-path="url(#menutal2b_svg__t)" data-name="Path 1341" transform="translate(-10563.012 -5107.065)"/><path fill="#323f51" d="M10457.739 4713.229c-.007-1.594-5.945-1.86-10.132-1.9.189-.189.379-.389.568-.609.134-.044.263-.101.386-.169a1.65 1.65 0 0 1-.094-.182c.028-.034.054-.063.081-.1.021.079.037.16.048.242.324-.445.683-.865 1.071-1.255a.23.23 0 0 0 .087.088c.056.025.076-.107.054-.235 2.048-2.121 5.5-5.265 4.556-6.341.053-.022.1-.037.153-.06.3.057.323-.079.28-.236.135-.025.21-.047.2-.072a3.822 3.822 0 0 0-.429-.581c.053-.455-.68-.691-.871-1.009.069.106.117.226.142.351a4.718 4.718 0 0 0-.515-.31c.308-.2-.1-.258-.344-.156a6.729 6.729 0 0 0-1.053-.339c.129-.825-.208-.269-.172-.041a25.418 25.418 0 0 0-5.532-.25 1.368 1.368 0 0 0-.157.015 2.263 2.263 0 0 1-.6-.511c-.046-.079-.037-.1-.009-.113a4.772 4.772 0 0 1-.818.3.501.501 0 0 0 0-.164c-.018-.06-.078.057-.106.192-1.36.346-3.3.417-3.121.021-.363.791-.622.489-.558 1.572-.276-2.3.034.913-.247-.529.016.088.076.363.139.675-1.379.533-2.066 1.06-.465 1.286.159.021.439.038.806.05-.028.1-.037.185.018.235.011-.078.018-.155.022-.233 1.511.047 4.5.018 7.319-.057a.304.304 0 0 0-.181.314c-.029 1.069.369-.11.429-.32l.976-.028c.069.1.144.144.22.109.076-.035.137-.084.207-.123l.827-.029a.483.483 0 0 0-.115.317c-.046.476.229-.185.229-.322l.5-.019c-.26.239-.323.363-.3.42a36.123 36.123 0 0 0-4.096 3.663.145.145 0 0 0-.069-.081c-.132-.063-.214.142-.141.294a54.998 54.998 0 0 0-4.332 4.945.6.6 0 0 0-.056.694.703.703 0 0 0-.119.369 5.474 5.474 0 0 0 2.1.837c.938.4.743.232.443.029.241.068.495.131.758.189.075 1.053 1.59.712 2.42.42.4.051.807.1 1.217.134a.336.336 0 0 0-.1.279c.032.4.313-.025.382-.254.73.062 1.465.1 2.182.113-.106.07-.2.138-.253.117.092.038.257-.04.4-.116.681.01 1.342 0 1.957-.041 2.188-.138 3.811-.6 3.807-1.486m-5.4-8.9-.075.106a.274.274 0 0 1 .075-.106m1.288-1.7a.239.239 0 0 1-.019.144Zm-1.892 2.728.085-.148c.2.151.053.2-.085.148m.5.669c-.561-1.135.806.417 0 0m.332-.37c-.711-.721-.07-.226-.032-.173.073.1.085.161.032.173m.433-.348c.05.37-1.509-.753 0 0m-10.341-4.851c-.014.153-.04.305-.079.455-.081-.155-.038-1.081.079-.455m-.238.041c.006.254.006.393 0 .46a1.276 1.276 0 0 1-.048-.313c.007-.125.023-.175.046-.147m-1.008-.21h-.082c.019-.084.138-.637.082 0m.746.153c.113-.248.2.21.22.533-.037.01-.072.022-.109.031a8.798 8.798 0 0 1-.112-.564m9.379 2.259.333-.015c-.06.04-.123.085-.186.128a.285.285 0 0 0-.147-.113m-4.905 11.55.336.057c-.277.032-.374-.015-.336-.057" clip-path="url(#menutal2b_svg__t)" data-name="Path 1342" transform="translate(-10563.012 -5107.065)"/><path fill="#323f51" d="M10442.219 4713.855c.437.288.986.35 1.477.169 0 0-1.875-.78-1.477-.169" clip-path="url(#menutal2b_svg__t)" data-name="Path 1343" transform="translate(-10563.012 -5107.065)"/><path fill="#323f51" d="M11548.794 5945.274c1.779-.832 7.024-3.289 6.673-5.909a3.37 3.37 0 0 1 .376-.319c-.741-.076-.292-.636.094-.085a7.814 7.814 0 0 1-.392-1.658c-2.631.153-15.187-2.376-14.338.068-.62-1.016-.89-.153-1-.056.173.223.365.432.573.624-1.477.822-2.258 1.866.117 2.18 2.654.351 5.444.631 8.205.819a14.648 14.648 0 0 1-3.223 2.189l-.389.185c.476-.471.865-.962.132-.7-.26.286-.478.607-.649.954-2.484 1.261-4.259 2.761-3.685 3.921.063.874.91 1.106 1.753 1.208l-.068.032.068-.032c.022.016-.013.019-.068.032-.1.048.16.156.229.17.081-.09.1-.142.087-.175l.194.019c.615.157 1.239.274 1.869.351.617.078 2.271.346 4.134.5.059.219.129.377.214.276-.028.034-.01-.09.021-.255.556.041 1.126.069 1.693.082-.206.122-.587.216-.451.3.22-.044.424-.148.589-.3.062 0 .125.006.188.006.112.141.417.147.959-.015 2.248-.091 4.117-.609 4.117-2.114 0-1.938-4.192-2.279-8.02-2.3m-2.091-8.506a1.13 1.13 0 0 1-.123.17h-.213c-.016-.244.156-.7.336-.169m-.862.084c.044-.122.1-.166.157-.132-.01.091-.019.15-.028.213h-.13v-.079m-.363.074h-.12a3.424 3.424 0 0 1-.09-.236s-.016-.034-.044-.113c.117-.072.214.166.254.352m-3.872.537s.1-.013.189-.016a.21.21 0 0 1-.189.016" clip-path="url(#menutal2b_svg__z)" data-name="Path 1341" transform="translate(-10563.012 -5107.065)"/><path fill="#323f51" d="M11574.948 5936.311c-.007-1.594-5.945-1.86-10.132-1.9.189-.189.379-.389.568-.609.134-.044.263-.101.386-.169a1.65 1.65 0 0 1-.094-.182c.028-.034.054-.063.081-.1.021.079.037.16.048.242.324-.445.683-.865 1.071-1.255a.23.23 0 0 0 .087.088c.056.025.076-.107.054-.235 2.048-2.121 5.5-5.265 4.556-6.341.053-.022.1-.037.153-.06.3.057.323-.079.28-.236.135-.025.21-.047.2-.072a3.822 3.822 0 0 0-.429-.581c.053-.455-.68-.691-.871-1.009.069.106.117.226.142.351a4.718 4.718 0 0 0-.515-.31c.308-.2-.1-.258-.344-.156a6.729 6.729 0 0 0-1.053-.339c.129-.825-.208-.269-.172-.041a25.418 25.418 0 0 0-5.532-.25 1.368 1.368 0 0 0-.157.015 2.263 2.263 0 0 1-.6-.511c-.046-.079-.037-.1-.009-.113a4.772 4.772 0 0 1-.818.3.501.501 0 0 0 0-.164c-.018-.06-.078.057-.106.192-1.36.346-3.3.417-3.121.021-.363.791-.622.489-.558 1.572-.276-2.3.034.913-.247-.529.016.088.076.363.139.675-1.379.533-2.066 1.06-.465 1.286.159.021.439.038.806.05-.028.1-.037.185.018.235.011-.078.018-.155.022-.233 1.511.047 4.5.018 7.319-.057a.304.304 0 0 0-.181.314c-.029 1.069.369-.11.429-.32l.976-.028c.069.1.144.144.22.109.076-.035.137-.084.207-.123l.827-.029a.483.483 0 0 0-.115.317c-.046.476.229-.185.229-.322l.5-.019c-.26.239-.323.363-.3.42a36.123 36.123 0 0 0-4.096 3.663.145.145 0 0 0-.069-.081c-.132-.063-.214.142-.141.294a54.998 54.998 0 0 0-4.332 4.945.6.6 0 0 0-.056.694.703.703 0 0 0-.119.369 5.474 5.474 0 0 0 2.1.837c.938.4.743.232.443.029.241.068.495.131.758.189.075 1.053 1.59.712 2.42.42.4.051.807.1 1.217.134a.336.336 0 0 0-.1.279c.032.4.313-.025.382-.254.73.062 1.465.1 2.182.113-.106.07-.2.138-.253.117.092.038.257-.04.4-.116.681.01 1.342 0 1.957-.041 2.188-.138 3.811-.6 3.807-1.486m-5.4-8.9-.075.106a.274.274 0 0 1 .075-.106m1.288-1.7a.239.239 0 0 1-.019.144Zm-1.892 2.728.085-.148c.2.151.053.2-.085.148m.5.669c-.561-1.135.806.417 0 0m.332-.37c-.711-.721-.07-.226-.032-.173.073.1.085.161.032.173m.433-.348c.05.37-1.509-.753 0 0m-10.341-4.851c-.014.153-.04.305-.079.455-.081-.155-.038-1.081.079-.455m-.238.041c.006.254.006.393 0 .46a1.276 1.276 0 0 1-.048-.313c.007-.125.023-.175.046-.147m-1.008-.21h-.082c.019-.084.138-.637.082 0m.746.153c.113-.248.2.21.22.533-.037.01-.072.022-.109.031a8.798 8.798 0 0 1-.112-.564m9.379 2.259.333-.015c-.06.04-.123.085-.186.128a.285.285 0 0 0-.147-.113m-4.905 11.55.336.057c-.277.032-.374-.015-.336-.057" clip-path="url(#menutal2b_svg__z)" data-name="Path 1342" transform="translate(-10563.012 -5107.065)"/><path fill="#323f51" d="M11559.428 5936.937c.437.288.986.35 1.477.169 0 0-1.875-.78-1.477-.169" clip-path="url(#menutal2b_svg__z)" data-name="Path 1343" transform="translate(-10563.012 -5107.065)"/><path fill="#323f51" d="M1234.111 1895.838c1.779-.832 7.024-3.289 6.673-5.909a3.37 3.37 0 0 1 .376-.319c-.741-.076-.292-.636.094-.085a7.814 7.814 0 0 1-.392-1.658c-2.631.153-15.187-2.376-14.338.068-.62-1.016-.89-.153-1-.056.173.223.365.432.573.624-1.477.822-2.258 1.866.117 2.18 2.654.351 5.444.631 8.205.819a14.648 14.648 0 0 1-3.223 2.189l-.389.185c.476-.471.865-.962.132-.7-.26.286-.478.607-.649.954-2.484 1.261-4.259 2.761-3.685 3.921.063.874.91 1.106 1.753 1.208l-.068.032.068-.032c.022.016-.013.019-.068.032-.1.048.16.156.229.17.081-.09.1-.142.087-.175l.194.019c.615.157 1.239.274 1.869.351.617.078 2.271.346 4.134.5.059.219.129.377.214.276-.028.034-.01-.09.021-.255.556.041 1.126.069 1.693.082-.206.122-.587.216-.451.3.22-.044.424-.148.589-.3.062 0 .125.006.188.006.112.141.417.147.959-.015 2.248-.091 4.117-.609 4.117-2.114 0-1.938-4.192-2.279-8.02-2.3m-2.091-8.506a1.13 1.13 0 0 1-.123.17h-.213c-.016-.244.156-.7.336-.169m-.862.084c.044-.122.1-.166.157-.132-.01.091-.019.15-.028.213h-.13v-.079m-.363.074h-.12a3.424 3.424 0 0 1-.09-.236s-.016-.034-.044-.113c.117-.072.214.166.254.352m-3.872.537s.1-.013.189-.016a.21.21 0 0 1-.189.016" clip-path="url(#menutal2b_svg__E)" data-name="Path 1341" transform="translate(-10563.012 -5107.065)"/><path fill="#323f51" d="M1260.265 1886.875c-.007-1.594-5.945-1.86-10.132-1.9.189-.189.379-.389.568-.609.134-.044.263-.101.386-.169a1.65 1.65 0 0 1-.094-.182c.028-.034.054-.063.081-.1.021.079.037.16.048.242.324-.445.683-.865 1.071-1.255a.23.23 0 0 0 .087.088c.056.025.076-.107.054-.235 2.048-2.121 5.5-5.265 4.556-6.341.053-.022.1-.037.153-.06.3.057.323-.079.28-.236.135-.025.21-.047.2-.072a3.822 3.822 0 0 0-.429-.581c.053-.455-.68-.691-.871-1.009.069.106.117.226.142.351a4.718 4.718 0 0 0-.515-.31c.308-.2-.1-.258-.344-.156a6.729 6.729 0 0 0-1.053-.339c.129-.825-.208-.269-.172-.041a25.418 25.418 0 0 0-5.532-.25 1.368 1.368 0 0 0-.157.015 2.263 2.263 0 0 1-.6-.511c-.046-.079-.037-.1-.009-.113a4.772 4.772 0 0 1-.818.3.501.501 0 0 0 0-.164c-.018-.06-.078.057-.106.192-1.36.346-3.3.417-3.121.021-.363.791-.622.489-.558 1.572-.276-2.3.034.913-.247-.529.016.088.076.363.139.675-1.379.533-2.066 1.06-.465 1.286.159.021.439.038.806.05-.028.1-.037.185.018.235.011-.078.018-.155.022-.233 1.511.047 4.5.018 7.319-.057a.304.304 0 0 0-.181.314c-.029 1.069.369-.11.429-.32l.976-.028c.069.1.144.144.22.109.076-.035.137-.084.207-.123l.827-.029a.483.483 0 0 0-.115.317c-.046.476.229-.185.229-.322l.5-.019c-.26.239-.323.363-.3.42a36.123 36.123 0 0 0-4.096 3.663.145.145 0 0 0-.069-.081c-.132-.063-.214.142-.141.294a54.998 54.998 0 0 0-4.332 4.945.6.6 0 0 0-.056.694.703.703 0 0 0-.119.369 5.474 5.474 0 0 0 2.1.837c.938.4.743.232.443.029.241.068.495.131.758.189.075 1.053 1.59.712 2.42.42.4.051.807.1 1.217.134a.336.336 0 0 0-.1.279c.032.4.313-.025.382-.254.73.062 1.465.1 2.182.113-.106.07-.2.138-.253.117.092.038.257-.04.4-.116.681.01 1.342 0 1.957-.041 2.188-.138 3.811-.6 3.807-1.486m-5.4-8.9-.075.106a.274.274 0 0 1 .075-.106m1.288-1.7a.239.239 0 0 1-.019.144Zm-1.892 2.728.085-.148c.2.151.053.2-.085.148m.5.669c-.561-1.135.806.417 0 0m.332-.37c-.711-.721-.07-.226-.032-.173.073.1.085.161.032.173m.433-.348c.05.37-1.509-.753 0 0m-10.341-4.851c-.014.153-.04.305-.079.455-.081-.155-.038-1.081.079-.455m-.238.041c.006.254.006.393 0 .46a1.276 1.276 0 0 1-.048-.313c.007-.125.023-.175.046-.147m-1.008-.21h-.082c.019-.084.138-.637.082 0m.746.153c.113-.248.2.21.22.533-.037.01-.072.022-.109.031a8.798 8.798 0 0 1-.112-.564m9.379 2.259.333-.015c-.06.04-.123.085-.186.128a.285.285 0 0 0-.147-.113m-4.905 11.55.336.057c-.277.032-.374-.015-.336-.057" clip-path="url(#menutal2b_svg__E)" data-name="Path 1342" transform="translate(-10563.012 -5107.065)"/><path fill="#323f51" d="M1244.745 1887.501c.437.288.986.35 1.477.169 0 0-1.875-.78-1.477-.169" clip-path="url(#menutal2b_svg__E)" data-name="Path 1343" transform="translate(-10563.012 -5107.065)"/><g data-name="Group 695"><text x="1699.656" y="2357.757" data-name="PLANCHE D’AMBIANCE" style="fill:#63819d;font-family:Lato-Black,Lato;font-size:286.7px;font-weight:800;letter-spacing:1.3px;white-space:pre" transform="matrix(1.74419 0 0 1.74419 -7759.243 -5038.765)">1</text></g><path fill="#fff" d="M-4952.65-667.399h58.543c137.805 0 263.145 74.863 316.489 212.966 31.342 81.143 73.835 303.923-5.834 441.592-65.403 113.017-194.926 246.319-310.655 246.319h-58.543c-251.625-.001-455.608-201.668-455.607-450.438 0-248.771 203.982-450.439 455.607-450.439Z" data-name="Path 473" transform="rotate(-24.716 -3984.822 -728.576)"/><path fill="#fff" d="M-4945.646 1538.271h58.543c251.626 0 393.746-392.64 384.733-467.407-6.137-50.909-58.003-228.943-114.51-302.532-82.717-107.723-155.77-130.937-270.223-130.937h-58.543c-251.625.001-455.608 201.669-455.607 450.438 0 248.77 203.982 450.438 455.607 450.438Z" data-name="Path 473" transform="rotate(75.857 -4988.145 1453.038)"/><path fill="#fff" d="M-4914.383 2846.049h58.543c251.626 0 428.586-416.535 419.573-491.302-6.137-50.909-33.18-157.546-89.687-231.135-82.717-107.723-215.433-178.44-329.886-178.44h-58.543c-251.625.001-455.608 201.669-455.607 450.439 0 248.77 203.982 450.438 455.607 450.438Z" data-name="Path 473" transform="rotate(148.249 -4802.152 2611.037)"/><path fill="#fff" d="M-4940.069 4122.67h58.543c251.626 0 428.588-416.536 419.575-491.303-6.137-50.909-33.18-157.546-89.688-231.135-82.718-107.723-215.434-178.44-329.887-178.44h-58.543c-251.625.001-455.608 201.669-455.607 450.439 0 248.771 203.982 450.439 455.607 450.439Z" data-name="Path 473" transform="rotate(127.688 -4863.553 3918.655)"/><path fill="#fff" d="M-4813.952 5784.365h58.543c80.159 0 271.394 113.795 300.481 238.394 31.752 136.008 55.24 108.731 26.137 248.038-27.927 133.684-174.072 347.78-258.04 347.78 0 0-202.193 52.426-359.5-24.098-131.787-64.109-223.228-246.27-223.228-359.675 0-248.77 203.982-450.439 455.607-450.439Z" data-name="Path 473" transform="rotate(-152.025 -4649.567 6345.661)"/><path fill="#fff" d="M-4943.828 4455.85h58.543c80.159 0 271.394 113.795 300.481 238.393 31.752 136.008 55.239 108.731 26.137 248.038-27.927 133.684-174.072 347.78-258.04 347.78 0 0-202.193 52.426-359.5-24.098-131.787-64.109-223.228-246.27-223.228-359.675 0-248.77 203.982-450.438 455.607-450.438Z" data-name="Path 473" transform="rotate(-152.025 -4721.565 5041.719)"/><g data-name="Group 695"><text x="1699.656" y="2357.757" data-name="PLANCHE D’AMBIANCE" style="fill:#63819d;font-family:Lato-Black,Lato;font-size:286.7px;font-weight:800;letter-spacing:1.3px;white-space:pre" transform="matrix(1.74419 0 0 1.74419 -7742.14 -3814.03)">2</text></g><g data-name="Group 695"><text x="1699.656" y="2357.757" data-name="PLANCHE D’AMBIANCE" style="fill:#63819d;font-family:Lato-Black,Lato;font-size:286.7px;font-weight:800;letter-spacing:1.3px;white-space:pre" transform="matrix(1.74419 0 0 1.74419 -7725.29 -2564.235)">3</text></g><g data-name="Group 695"><text x="1699.656" y="2357.757" data-name="PLANCHE D’AMBIANCE" style="fill:#63819d;font-family:Lato-Black,Lato;font-size:286.7px;font-weight:800;letter-spacing:1.3px;white-space:pre" transform="matrix(1.74419 0 0 1.74419 -7683.088 -1214.606)">4</text></g><g data-name="Group 695"><text x="1699.656" y="2357.757" data-name="PLANCHE D’AMBIANCE" style="fill:#63819d;font-family:Lato-Black,Lato;font-size:286.7px;font-weight:800;letter-spacing:1.3px;white-space:pre" transform="matrix(1.74419 0 0 1.74419 -7699.797 52.88)">5<tspan x="1699.656" dy="1em">​</tspan></text></g><g data-name="Group 695"><text x="1699.656" y="2357.757" data-name="PLANCHE D’AMBIANCE" style="fill:#63819d;font-family:Lato-Black,Lato;font-size:286.7px;font-weight:800;letter-spacing:1.3px;white-space:pre" transform="matrix(1.74419 0 0 1.74419 -7668.583 1335.569)">6</text><text x="1707.256" y="3090.656" data-name="PLANCHE D’AMBIANCE" style="fill:#63819d;font-family:Lato-Black,Lato;font-size:286.7px;font-weight:800;letter-spacing:1.3px;white-space:pre" transform="matrix(1.74419 0 0 1.74419 -7668.583 1335.569)">7</text></g></svg>