<svg width="137.924" height="132.828" xmlns="http://www.w3.org/2000/svg"><g data-name="Group 1386" transform="translate(4214.51 -7845.579)"><ellipse cx="2.664" cy="2.848" fill="none" stroke="#323f51" stroke-miterlimit="10" stroke-width="1.5" data-name="Ellipse 50" rx="2.664" ry="2.848" transform="rotate(-72.98 3272.379 6779.071)"/><ellipse cx="2.664" cy="2.848" fill="none" stroke="#323f51" stroke-miterlimit="10" stroke-width="1.5" data-name="Ellipse 49" rx="2.664" ry="2.848" transform="rotate(-72.98 3276.11 6774.028)"/><ellipse cx="2.664" cy="2.848" fill="none" stroke="#323f51" stroke-miterlimit="10" stroke-width="1.5" data-name="Ellipse 48" rx="2.664" ry="2.848" transform="rotate(-72.98 3273.576 6768.495)"/><path fill="none" stroke="#323f51" stroke-width="3" d="M-4121.29 7927.587c-6.052-.442-11.838-1.384-17.12-5.273-5.324-3.912-10.03-9.884-14.113-17.209a19.571 19.571 0 0 1-2.507-13.086 35.193 35.193 0 0 1 3.428-9.898c2.068-4.284 4.307-8.413 6.776-10.985 4.378-4.562 8.665-3.487 12.593-2.252 9.87 3.104 19.722 6.397 28.964 12.048a29.71 29.71 0 0 1 9.355 8.297 13.893 13.893 0 0 1 2.437 9.774c-.638 6.557-3.198 12.22-5.948 14.879-5.499 5.318-6.347 7.64-11.742 9.679-2.293.866-8.45 3.41-14.057 3.88" data-name="Path 616"/><g data-name="Group 330"><path fill="none" stroke="#323f51" stroke-width="5" d="M-4162.153 7848.946c12.538-1.642 24.728-2.04 37.064 4.349 12.427 6.434 24.406 17.744 35.654 32.354a46.846 46.846 0 0 1 10.317 28.172c.307 8.366-1.333 16.4-3.072 23.624-2.524 10.47-5.458 20.684-9.478 27.509-7.132 12.1-16.315 11.563-24.827 10.508-21.394-2.65-42.823-5.732-63.941-14.361-7.631-3.12-15.272-7-22.4-14.481-3.873-4.065-7.955-10.385-8.86-20.794-1.3-14.939 1.682-28.716 6.24-35.857 9.121-14.285 9.934-19.847 20.143-26.751 4.338-2.934 15.9-11.3 27.169-14.787" data-name="Path 443"/></g><g data-name="Group 187"><path fill="none" stroke="#323f51" stroke-linecap="round" stroke-linejoin="round" stroke-width="2" d="M-4199.921 7940.207c2.966 2.338 6.261 1.8 8.959-.086" data-name="Path 417"/><g fill="none" stroke="#323f51" data-name="Layer 42"><path stroke-miterlimit="10" stroke-width="4.503" d="M-4198.91 7949.748c11.323 8.5 24.06 15.456 24 11.749l.844-20.528c-.21-13.318-.477-30.012-12.019-39.046-7.981-6.247-14.989-4.849-19.846 3.666-5.227 9.161-7.817 8.177-4.513 27.506-.008.031-.145 2.815 3.731 7.874.945 1.234 7.102 8.435 7.803 8.779Z" data-name="Path 421"/><path stroke-linecap="round" stroke-linejoin="round" stroke-width="2" d="m-4132.867 7896.47 7.644 13.969 11.541-11.949s4.291-4.711 0-7.657-9.513 2.44-9.513 2.44-1.766-5.722-6.395-4.8-5.169 4.54-3.277 7.997Z" data-name="Path 424"/></g></g><path fill="#323f51" d="M-4199.137 7927.744a2.216 2.216 0 0 1 2.427 2.346 2.264 2.264 0 0 1-2.249 2.421 2.492 2.492 0 0 1-2.655-2.411 2.308 2.308 0 0 1 2.477-2.356Z" data-name="Path 436"/><path fill="#fff" d="M-4198.102 7930.127a.95.95 0 0 1 1.039 1 .969.969 0 0 1-.963 1.036 1.065 1.065 0 0 1-1.137-1.032.987.987 0 0 1 1.061-1.004Z" data-name="Path 437"/><path fill="#323f51" d="M-4187.024 7927.646a2.394 2.394 0 0 1 2.357 2.492 2.247 2.247 0 0 1-2.4 2.378 2.142 2.142 0 0 1-2.31-2.413 2.331 2.331 0 0 1 2.353-2.457Z" data-name="Path 435"/><path fill="#fff" d="M-4186.228 7930.141a.94.94 0 0 1 1.03 1 .96.96 0 0 1-.954 1.027 1.057 1.057 0 0 1-1.126-1.023.978.978 0 0 1 1.05-1.004Z" data-name="Path 434"/></g></svg>