<?xml version="1.0" encoding="utf-8"?>
<svg viewBox="2214.622 549.76 1351.893 1348.813" xmlns="http://www.w3.org/2000/svg">
  <defs>
    <clipPath id="clip-path">
      <rect id="Rectangle_374" data-name="Rectangle 374" width="35.569" height="27.465" fill="#323f51"/>
    </clipPath>
  </defs>
  <g id="Group_1057" data-name="Group 1057" transform="matrix(1, 0, 0, 1, 2673.327803, 7305.104115)"/>
  <g id="g-18" data-name="Group 1057" transform="matrix(1, 0, 0, 1, 2681.948408, 7845.391712)"/>
  <path id="path-7" data-name="Path 1346" d="M 2983.335 627.137 L 3039.199 627.137 C 3420.598 553.506 3646.307 963.827 3551.391 1173.707 C 3406.396 1494.323 3274.282 1370.48 3039.204 1370.48 L 2983.335 1370.48 C 2838.637 1367.289 2729.027 1358.169 2665.885 1309.82 C 2063.285 848.422 2729.406 555.734 2983.335 627.137 Z" fill="#fff" style="" transform="matrix(0.982587, 0.185802, -0.185802, 0.982587, 238.956071, -539.316561)"/>
  <g transform="matrix(0.993591, 0, 0, 0.963622, -99.670837, -10.954634)" style="">
    <g id="g-10" data-name="Group 906" transform="matrix(2.051841, 0, 0, 1.873385, 493.656738, 488.725067)" style="">
      <g id="g-11" data-name="Group 316" transform="translate(1249.642 346.891)">
        <g id="g-12" data-name="Group 895" transform="translate(0)">
          <g id="g-13" data-name="Group 894">
            <path id="path-14" data-name="Path 578" d="M45.688,52.205C30.919,34.178,22.4,21.526,13.613.457A62.451,62.451,0,0,1,.333,10.218" transform="matrix(-0.839, -0.545, 0.545, -0.839, 93.266, 253.205)" fill="none" stroke="#141928" stroke-linecap="round" stroke-linejoin="round" stroke-width="3"/>
            <path id="path-15" data-name="Path 579" d="M-2.165,70.239C8.879,45.929,17.616,31.259,35.053,13.819A105.386,105.386,0,0,1,17.7-.566" transform="translate(85.974 242.874) rotate(150)" fill="none" stroke="#141928" stroke-linecap="round" stroke-linejoin="round" stroke-width="3"/>
            <path id="path-16" data-name="Path 580" d="M762.419-260.176c-15.234,5.184-26.481,19.024-35.3,33.347a230.208,230.208,0,0,0-31.874,90.422c-.809,6.2-1.362,12.617.233,18.639,2.021,7.641,7.3,13.828,13.133,18.707,11.07,9.264,24.478,14.776,38.058,18.559a77.71,77.71,0,0,0,35.251,1.521c11.75-2.191,21.326-6.594,26.991-17.878,3.353-6.678-9.849-35.556-5.045-46.17,11.1-24.81,21.695-38.705,19.052-58.508s-11.726-39.6-27.769-49.728c-5.107-3.227-10.893-9.475-16.813-9.708-12.854-.507-6.681-.628-15.914.8" transform="translate(-694.453 261.322)" fill="none" stroke="#243040" stroke-miterlimit="10" stroke-width="4"/>
            <path id="path-17" data-name="Path 584" d="M1.378,43C13.172,26.98,14.795,15.31,28.233,6.331,32.765,3.3,46.357.781,50.924,1.856c2.9.681,10.292,5.721,11.68,8.009,6.11,10.071,9.523,12.829,9.284,25.54" transform="translate(66.639 161.296) rotate(-148)" fill="none" stroke="#141928" stroke-linecap="round" stroke-linejoin="round" stroke-width="3"/>
            <path id="path-18" data-name="Path 1339" d="M47.012-1.6c-6.571,8.06-7.78,13.7-14.968,18.444-2.424,1.6-20.285,6.972-22.594,6.61-1.467-.229-5.1-2.4-5.737-3.444-.059-.1-.118-.192-.33-.536C.834,15.339-.749,14.057-.227,8.094" transform="matrix(0.829, -0.559, 0.559, 0.829, 81.425, 127.091)" fill="none" stroke="#243040" stroke-linecap="round" stroke-linejoin="round" stroke-width="3"/>
          </g>
        </g>
      </g>
      <g id="g-14" data-name="Group 319" transform="translate(1328.009 393.812)">
        <g id="g-15" data-name="Group 317" transform="translate(26.88 0)">
          <path id="path-19" data-name="Path 585" d="M56.569,55.346a23.053,23.053,0,0,0,8.825-3.5" transform="translate(-56.569 -51.85)" fill="none" stroke="#243040" stroke-linecap="round" stroke-linejoin="round" stroke-width="3"/>
          <path id="path-20" data-name="Path 586" d="M56.932,55.73a19.048,19.048,0,0,0,6.452.3" transform="translate(-56.336 -48.876)" fill="none" stroke="#243040" stroke-linecap="round" stroke-linejoin="round" stroke-width="3"/>
        </g>
        <g id="g-16" data-name="Group 318" transform="translate(0 0)">
          <path id="path-21" data-name="Path 587" d="M49.032,55.346a23.035,23.035,0,0,1-8.823-3.5" transform="translate(-40.209 -51.85)" fill="none" stroke="#243040" stroke-linecap="round" stroke-linejoin="round" stroke-width="3"/>
          <path id="path-22" data-name="Path 588" d="M47.741,55.73a19.046,19.046,0,0,1-6.452.3" transform="translate(-39.514 -48.876)" fill="none" stroke="#243040" stroke-linecap="round" stroke-linejoin="round" stroke-width="3"/>
        </g>
        <path id="path-23" data-name="Path 589" d="M65.629,65.461s-12.666-4.5-23.248,0" transform="translate(-38.812 -37.164)" fill="none" stroke="#243040" stroke-linecap="round" stroke-linejoin="round" stroke-width="3"/>
      </g>
    </g>
  </g>
  <path id="Path_1341" data-name="Path 1341" d="M 1779.581 1798.383 C 1781.36 1797.551 1786.605 1795.094 1786.254 1792.474 C 1786.371 1792.359 1786.497 1792.252 1786.63 1792.155 C 1785.889 1792.079 1786.338 1791.519 1786.724 1792.07 C 1786.533 1791.533 1786.402 1790.977 1786.332 1790.412 C 1783.701 1790.565 1771.145 1788.036 1771.994 1790.48 C 1771.374 1789.464 1771.104 1790.327 1770.994 1790.424 C 1771.167 1790.647 1771.359 1790.856 1771.567 1791.048 C 1770.09 1791.87 1769.309 1792.914 1771.684 1793.228 C 1774.338 1793.579 1777.128 1793.859 1779.889 1794.047 C 1778.917 1794.917 1777.833 1795.653 1776.666 1796.236 C 1776.534 1796.298 1776.408 1796.359 1776.277 1796.421 C 1776.753 1795.95 1777.142 1795.459 1776.409 1795.721 C 1776.149 1796.007 1775.931 1796.328 1775.76 1796.675 C 1773.276 1797.936 1771.501 1799.436 1772.075 1800.596 C 1772.138 1801.47 1772.985 1801.702 1773.828 1801.804 L 1773.76 1801.836 C 1773.741 1801.846 1773.806 1801.814 1773.828 1801.804 C 1773.85 1801.82 1773.815 1801.823 1773.76 1801.836 C 1773.66 1801.884 1773.92 1801.992 1773.989 1802.006 C 1774.07 1801.916 1774.089 1801.864 1774.076 1801.831 L 1774.27 1801.85 C 1774.885 1802.007 1775.509 1802.124 1776.139 1802.201 C 1776.756 1802.279 1778.41 1802.547 1780.273 1802.701 C 1780.332 1802.92 1780.402 1803.078 1780.487 1802.977 C 1780.459 1803.011 1780.477 1802.887 1780.508 1802.722 C 1781.064 1802.763 1781.634 1802.791 1782.201 1802.804 C 1781.995 1802.926 1781.614 1803.02 1781.75 1803.104 C 1781.97 1803.06 1782.174 1802.956 1782.339 1802.804 C 1782.401 1802.804 1782.464 1802.81 1782.527 1802.81 C 1782.639 1802.951 1782.944 1802.957 1783.486 1802.795 C 1785.734 1802.704 1787.603 1802.186 1787.603 1800.681 C 1787.603 1798.743 1783.411 1798.402 1779.583 1798.381 M 1777.492 1789.875 C 1777.457 1789.935 1777.415 1789.992 1777.369 1790.045 L 1777.156 1790.045 C 1777.14 1789.801 1777.312 1789.345 1777.492 1789.876 M 1776.63 1789.96 C 1776.674 1789.838 1776.73 1789.794 1776.787 1789.828 C 1776.777 1789.919 1776.768 1789.978 1776.759 1790.041 L 1776.629 1790.041 C 1776.629 1790.004 1776.629 1789.962 1776.629 1789.962 M 1776.266 1790.036 L 1776.146 1790.036 C 1776.121 1789.98 1776.087 1789.889 1776.056 1789.8 C 1776.056 1789.8 1776.04 1789.766 1776.012 1789.687 C 1776.129 1789.615 1776.226 1789.853 1776.266 1790.039 M 1772.394 1790.576 C 1772.394 1790.576 1772.494 1790.563 1772.583 1790.56 C 1772.526 1790.595 1772.456 1790.601 1772.394 1790.576" fill="#323f51" clip-path="url(#clip-path)" transform="matrix(1, 0, 0, 1, -150.367266, -284.515514)"/>
  <path id="Path_1342" data-name="Path 1342" d="M 1805.735 1789.42 C 1805.728 1787.826 1799.79 1787.56 1795.603 1787.52 C 1795.792 1787.331 1795.982 1787.131 1796.171 1786.911 C 1796.305 1786.867 1796.434 1786.81 1796.557 1786.742 C 1796.522 1786.683 1796.49 1786.622 1796.463 1786.56 C 1796.491 1786.526 1796.517 1786.497 1796.544 1786.46 C 1796.565 1786.539 1796.581 1786.62 1796.592 1786.702 C 1796.916 1786.257 1797.275 1785.837 1797.663 1785.447 C 1797.683 1785.483 1797.713 1785.514 1797.75 1785.535 C 1797.806 1785.56 1797.826 1785.428 1797.804 1785.3 C 1799.852 1783.179 1803.304 1780.035 1802.36 1778.959 C 1802.413 1778.937 1802.46 1778.922 1802.513 1778.899 C 1802.813 1778.956 1802.836 1778.82 1802.793 1778.663 C 1802.928 1778.638 1803.003 1778.616 1802.993 1778.591 C 1802.868 1778.384 1802.725 1778.189 1802.564 1778.01 C 1802.617 1777.555 1801.884 1777.319 1801.693 1777.001 C 1801.762 1777.107 1801.81 1777.227 1801.835 1777.352 C 1801.67 1777.238 1801.498 1777.134 1801.32 1777.042 C 1801.628 1776.842 1801.22 1776.784 1800.976 1776.886 C 1800.635 1776.744 1800.282 1776.631 1799.923 1776.547 C 1800.052 1775.722 1799.715 1776.278 1799.751 1776.506 C 1797.921 1776.221 1796.066 1776.138 1794.219 1776.256 C 1794.166 1776.258 1794.114 1776.263 1794.062 1776.271 C 1793.834 1776.137 1793.63 1775.964 1793.462 1775.76 C 1793.416 1775.681 1793.425 1775.66 1793.453 1775.647 C 1793.19 1775.772 1792.916 1775.872 1792.635 1775.947 C 1792.644 1775.892 1792.644 1775.837 1792.635 1775.783 C 1792.617 1775.723 1792.557 1775.84 1792.529 1775.975 C 1791.169 1776.321 1789.229 1776.392 1789.408 1775.996 C 1789.045 1776.787 1788.786 1776.485 1788.85 1777.568 C 1788.574 1775.268 1788.884 1778.481 1788.603 1777.039 C 1788.619 1777.127 1788.679 1777.402 1788.742 1777.714 C 1787.363 1778.247 1786.676 1778.774 1788.277 1779 C 1788.436 1779.021 1788.716 1779.038 1789.083 1779.05 C 1789.055 1779.15 1789.046 1779.235 1789.101 1779.285 C 1789.112 1779.207 1789.119 1779.13 1789.123 1779.052 C 1790.634 1779.099 1793.623 1779.07 1796.442 1778.995 C 1796.319 1779.048 1796.246 1779.176 1796.261 1779.309 C 1796.232 1780.378 1796.63 1779.199 1796.69 1778.989 L 1797.666 1778.961 C 1797.735 1779.061 1797.81 1779.105 1797.886 1779.07 C 1797.962 1779.035 1798.023 1778.986 1798.093 1778.947 C 1798.375 1778.938 1798.651 1778.928 1798.92 1778.918 C 1798.845 1779.006 1798.804 1779.119 1798.805 1779.235 C 1798.759 1779.711 1799.034 1779.05 1799.034 1778.913 L 1799.534 1778.894 C 1799.274 1779.133 1799.211 1779.257 1799.234 1779.314 C 1797.778 1780.429 1796.408 1781.654 1795.138 1782.977 C 1795.126 1782.942 1795.101 1782.913 1795.069 1782.896 C 1794.937 1782.833 1794.855 1783.038 1794.928 1783.19 C 1793.387 1784.75 1791.94 1786.402 1790.596 1788.135 C 1790.431 1788.33 1790.409 1788.609 1790.54 1788.829 C 1790.467 1788.938 1790.425 1789.066 1790.421 1789.198 C 1791.055 1789.62 1791.77 1789.905 1792.521 1790.035 C 1793.459 1790.435 1793.264 1790.267 1792.964 1790.064 C 1793.205 1790.132 1793.459 1790.195 1793.722 1790.253 C 1793.797 1791.306 1795.312 1790.965 1796.142 1790.673 C 1796.542 1790.724 1796.949 1790.773 1797.359 1790.807 C 1797.284 1790.879 1797.248 1790.982 1797.259 1791.086 C 1797.291 1791.486 1797.572 1791.061 1797.641 1790.832 C 1798.371 1790.894 1799.106 1790.932 1799.823 1790.945 C 1799.717 1791.015 1799.623 1791.083 1799.57 1791.062 C 1799.662 1791.1 1799.827 1791.022 1799.97 1790.946 C 1800.651 1790.956 1801.312 1790.946 1801.927 1790.905 C 1804.115 1790.767 1805.738 1790.305 1805.734 1789.419 M 1800.334 1780.519 L 1800.259 1780.625 C 1800.275 1780.584 1800.301 1780.548 1800.334 1780.519 M 1801.622 1778.819 C 1801.631 1778.867 1801.624 1778.918 1801.603 1778.963 Z M 1799.73 1781.547 C 1799.758 1781.497 1799.787 1781.447 1799.815 1781.399 C 1800.015 1781.55 1799.868 1781.599 1799.73 1781.547 M 1800.23 1782.216 C 1799.669 1781.081 1801.036 1782.633 1800.23 1782.216 M 1800.562 1781.846 C 1799.851 1781.125 1800.492 1781.62 1800.53 1781.673 C 1800.603 1781.773 1800.615 1781.834 1800.562 1781.846 M 1800.995 1781.498 C 1801.045 1781.868 1799.486 1780.745 1800.995 1781.498 M 1790.654 1776.647 C 1790.64 1776.8 1790.614 1776.952 1790.575 1777.102 C 1790.494 1776.947 1790.537 1776.021 1790.654 1776.647 M 1790.416 1776.688 C 1790.422 1776.942 1790.422 1777.081 1790.416 1777.148 C 1790.387 1777.046 1790.371 1776.941 1790.368 1776.835 C 1790.375 1776.71 1790.391 1776.66 1790.414 1776.688 M 1789.406 1776.478 L 1789.324 1776.478 C 1789.343 1776.394 1789.462 1775.841 1789.406 1776.478 M 1790.152 1776.631 C 1790.265 1776.383 1790.352 1776.841 1790.372 1777.164 C 1790.335 1777.174 1790.3 1777.186 1790.263 1777.195 C 1790.232 1777.069 1790.195 1776.885 1790.151 1776.631 M 1799.53 1778.89 L 1799.863 1778.875 C 1799.803 1778.915 1799.74 1778.96 1799.677 1779.003 C 1799.642 1778.95 1799.59 1778.91 1799.53 1778.89 M 1794.625 1790.44 L 1794.961 1790.497 C 1794.684 1790.529 1794.587 1790.482 1794.625 1790.44" fill="#323f51" clip-path="url(#clip-path)" transform="matrix(1, 0, 0, 1, -150.367266, -284.515514)"/>
  <path id="Path_1343" data-name="Path 1343" d="M 1790.215 1790.046 C 1790.652 1790.334 1791.201 1790.396 1791.692 1790.215 C 1791.692 1790.215 1789.817 1789.435 1790.215 1790.046" fill="#323f51" clip-path="url(#clip-path)" transform="matrix(1, 0, 0, 1, -150.367266, -284.515514)"/>
  <path id="Path_1164" data-name="Path 1164" d="M 737.853 1938.055" fill="none" stroke="#323f51" stroke-width="4.5" transform="matrix(1, 0, 0, 1, -150.367266, -284.515514)"/>
  <g id="Group_1216" data-name="Group 1216" transform="matrix(1, 0, 0, 1, 351.304382, -7300.242187)">
    <g id="Group_1209" data-name="Group 1209" transform="matrix(1, 0, 0, 1, 287.251892, -1329.64502)">
      <path id="Path_1764" data-name="Path 1764" d="M-976.144,187.328" transform="translate(3011.323 9745.573)" fill="none" stroke="#323f51" stroke-width="1"/>
      <path id="Path_1765" data-name="Path 1765" d="M-982.584,262.108c.825,67.193,1.644,112.427,2.469,179.625a342.6,342.6,0,0,0,67.853,1.291" transform="translate(2980.024 10055.532)" fill="none" stroke="#323f51" stroke-linecap="round" stroke-linejoin="round" stroke-width="10"/>
      <path id="Path_1767" data-name="Path 1767" d="M-703.112,152.034c52.563,29.635,84.427,86.43,107.008,143.07a794.338,794.338,0,0,1,54.754,339.5c-1.316,22.231-3.739,45.023-13.792,64.81-12.76,25.118-36.509,42.677-61.4,55.272-47.245,23.9-100.512,32.948-153.207,35.829-44.8,2.449-90.807.458-132.609-16.1s-79.11-49.628-92.159-93.272c-7.726-25.833-6.649-53.42-5.5-80.395q1.693-39.83,3.39-79.659c3.025-71.1,6.279-143.451,29.77-210.49s70.717-129.194,136.894-152.342c21.068-7.373,46.745-24.773,68.729-21.089,47.747,8,25.075,2.886,58.123,14.864" transform="translate(2700.033 9535.577)" fill="#7ec8d6" stroke="#323f51" stroke-miterlimit="10" stroke-width="10"/>
      <path id="Path_1771" data-name="Path 1771" d="M-837.913,192.036c37.6,11.01,66.69,56.671,66.727,104.73.008,11.381-1.5,22.947-5.641,33.1-7.695,18.846-23.243,30.376-38.112,40.609-52.954,36.421-143.627-188.5-199.462-159.5" transform="translate(2978.708 9752.894)" fill="none" stroke="#323f51" stroke-linecap="round" stroke-linejoin="round" stroke-width="10"/>
      <path id="Path_1769" data-name="Path 1769" d="M 1954.199 9808.037 C 1965.987 9810.544 1974.812 9816.921 1983.594 9825.102" fill="none" stroke="#353f4f" stroke-linecap="round" stroke-miterlimit="10" stroke-width="5" transform="matrix(0.926194, -0.377047, 0.377047, 0.926194, -3555.992271, 1466.887238)"/>
      <path id="Path_1772" data-name="Path 1772" d="M 1976.976 9935.953 C 1963.905 9933.009 1909.961 9936.67 1903.521 9938.797 C 1900.697 9939.73 1900.792 9942.325 1903.969 9944.312 C 1907.013 9946.216 1908.605 9944.588 1911.178 9943.846 C 1930.936 9938.143 1978.314 9940.71 1979.275 9938.731 C 1980.269 9936.677 1980.329 9936.708 1976.976 9935.953 Z" fill="#323f51" style="" transform="matrix(-0.999073, 0.043051, -0.043051, -0.999073, 4307.488596, 19787.291824)"/>
      <path id="Path_1773" data-name="Path 1773" d="M 1963.228 9842.458 C 1953.528 9842.345 1947.128 9848.639 1947.298 9858.12 C 1947.471 9867.673 1953.208 9873.949 1962.06 9874.284 C 1971.578 9874.646 1979.58 9867.253 1979.487 9858.184 C 1979.389 9848.793 1972.959 9842.576 1963.228 9842.458 Z" fill="#323f51"/>
      <path id="Path_1774" data-name="Path 1774" d="M 1965.701 9844.653 C 1961.551 9844.603 1958.809 9847.301 1958.88 9851.359 C 1958.956 9855.448 1961.413 9858.137 1965.198 9858.277 C 1969.19 9858.515 1972.58 9855.385 1972.659 9851.386 C 1972.621 9847.365 1969.869 9844.703 1965.701 9844.653 Z" fill="#fff" opacity="0.9"/>
      <path id="Path_1766" data-name="Path 1766" d="M-874.248,262.451c3.086,64.453,3.177,107.743.268,172.2a159.254,159.254,0,0,0-68.217.983" transform="translate(2732.312 10064.023)" fill="none" stroke="#323f51" stroke-linecap="round" stroke-linejoin="round" stroke-width="10"/>
      <path id="Path_1770" data-name="Path 1770" d="M-841.237,191.7c-37.162,23.662-61.569,51.624-81.164,91.513-10.033,20.42-17.172,44.864-8.01,65.7,6.365,14.473,19.641,24.655,33.621,31.667,51.748,25.977,114.5,15.666,168.764,35.629" transform="translate(2548.275 9762.99)" fill="none" stroke="#323f51" stroke-linecap="round" stroke-linejoin="round" stroke-width="10"/>
      <path id="Path_1775" data-name="Path 1775" d="M 1888.462 9841.941 C 1879.637 9841.918 1872.685 9849.397 1872.762 9858.821 C 1872.838 9868.621 1879.157 9874.988 1888.731 9874.929 C 1898.631 9874.87 1904.187 9868.968 1904.12 9858.581 C 1904.057 9848.899 1897.533 9841.961 1888.462 9841.941 Z" fill="#323f51"/>
      <path id="Path_1776" data-name="Path 1776" d="M 1893.161 9845.023 C 1888.983 9844.973 1886.226 9847.686 1886.301 9851.766 C 1886.378 9855.878 1888.845 9858.582 1892.656 9858.723 C 1896.668 9858.957 1900.072 9855.812 1900.156 9851.794 C 1900.117 9847.75 1897.352 9845.073 1893.161 9845.023 Z" fill="#fff"/>
      <path id="Path_1768" data-name="Path 1768" d="M 1884.408 9810.327 C 1872.62 9812.834 1863.785 9819.211 1855.014 9827.392" fill="none" stroke="#353f4f" stroke-linecap="round" stroke-miterlimit="10" stroke-width="5" transform="matrix(0.950677, 0.310182, -0.310182, 0.950677, 3137.852984, -95.65698)"/>
    </g>
  </g>
  <g transform="matrix(1, 0, 0, 1, 18.417879, 0)">
    <g>
      <path id="Path_368" data-name="Path 368" d="M 2804.365 1040.607 C 2810.464 1065.786 2805.743 1079.537 2802.882 1105.354 C 2798.957 1140.807 2798.613 1176.602 2801.853 1212.133 C 2792.293 1210.281 2782.508 1210.14 2772.904 1211.712" fill="none" stroke="#353f4f" stroke-linecap="round" stroke-linejoin="round" stroke-width="3" style=""/>
      <path id="Path_369" data-name="Path 369" d="M 2847.57 1040.416 C 2848.96 1103.183 2838.472 1153.031 2839.987 1215.795 C 2850.681 1214.761 2861.4 1214.094 2872.142 1213.796" fill="none" stroke="#353f4f" stroke-linecap="round" stroke-linejoin="round" stroke-width="3" style=""/>
      <path id="Path_370" data-name="Path 370" d="M 2818.523 789.082 L 2810.297 813.555 L 2824.064 813.555 L 2816.181 837.474" fill="none" stroke="#353f4f" stroke-linecap="round" stroke-width="2.149" style=""/>
      <path id="Path_371" data-name="Path 371" d="M 2775.611 792.787 L 2775.688 818.764 L 2788.641 813.843 L 2788.865 839.164" fill="none" stroke="#353f4f" stroke-linecap="round" stroke-width="2.149" style=""/>
      <path id="Path_372" data-name="Path 372" d="M 2866.007 794.505 L 2849.098 813.335 L 2861.676 819.246 L 2845.293 837.721" fill="none" stroke="#353f4f" stroke-linecap="round" stroke-width="2.149" style=""/>
      <path id="Path_373" data-name="Path 373" d="M 2751.817 957.649 C 2756.806 978.335 2767.641 996.916 2779.791 1013.96 C 2789.508 1027.586 2801.427 1041.266 2817.298 1044.367 C 2831.359 1047.111 2845.744 1040.802 2857.336 1031.943 C 2885.726 1010.258 2901.943 971.246 2896.007 934.735 C 2889.365 893.873 2849.288 853.574 2808.186 856.935 C 2765.278 860.441 2742.471 918.905 2751.817 957.649 Z" fill="none" stroke="#353f4f" stroke-miterlimit="10" stroke-width="3.76" style=""/>
      <path id="Path_374" data-name="Path 374" d="M 2838.671 919.387 C 2844.421 918.428 2849.935 916.277 2854.897 913.059" fill="none" stroke="#353f4f" stroke-linecap="round" stroke-linejoin="round" stroke-width="1.612" style=""/>
      <path id="Path_375" data-name="Path 375" d="M 2839.768 925.465 C 2843.671 926.306 2847.676 926.486 2851.633 925.998" fill="none" stroke="#353f4f" stroke-linecap="round" stroke-linejoin="round" stroke-width="1.612" style=""/>
      <path id="Path_376" data-name="Path 376" d="M 2805.466 919.387 C 2799.716 918.427 2794.202 916.277 2789.24 913.059" fill="none" stroke="#353f4f" stroke-linecap="round" stroke-linejoin="round" stroke-width="1.612" style=""/>
      <path id="Path_377" data-name="Path 377" d="M 2804.371 925.465 C 2800.466 926.306 2796.46 926.486 2792.502 925.998" fill="none" stroke="#353f4f" stroke-linecap="round" stroke-linejoin="round" stroke-width="1.612" style=""/>
      <path id="Path_378" data-name="Path 378" d="M 2846.199 954.593 C 2846.199 954.593 2825.079 935.932 2807.431 954.593" fill="none" stroke="#353f4f" stroke-linecap="round" stroke-linejoin="round" stroke-width="1.612" style=""/>
    </g>
    <path id="Path_379" data-name="Path 379" d="M 2892.003 978.159 L 2908.496 971.414 C 2914.291 969.044 2920.23 966.58 2924.834 962.166 C 2929.438 957.752 2932.473 950.876 2930.82 944.541 C 2929.704 941.129 2927.908 938.01 2925.555 935.394 C 2906.222 911.109 2881.764 891.974 2854.153 879.534" fill="none" stroke="#353f4f" stroke-linecap="round" stroke-linejoin="round" stroke-width="3" style=""/>
    <path id="Path_380" data-name="Path 380" d="M 2763.431 985.565 C 2752.755 983.907 2741.987 982.226 2731.874 978.249 C 2721.762 974.272 2712.218 967.761 2706.27 958.235 C 2703.62 954.23 2702.024 949.552 2701.644 944.68 C 2701.553 939.074 2703.097 933.576 2706.064 928.931 C 2713.849 915.939 2727.913 909.033 2741.207 902.806 L 2779.241 884.99" fill="none" stroke="#353f4f" stroke-linecap="round" stroke-linejoin="round" stroke-width="3" style=""/>
  </g>
  <g transform="matrix(0.952128, 0, 0, 0.995637, 93.824318, -42.018642)" style="">
    <path id="Path_1734" data-name="Path 1734" d="M 3342.99 1065.785 C 3331.856 1070.977 3324.077 1075.536 3315.429 1084.003 C 3304.591 1094.616 3298.893 1109.259 3296.741 1123.978 C 3294.589 1138.696 3312.655 1149.933 3313.773 1164.777" fill="none" stroke="#353f4f" stroke-linecap="round" stroke-linejoin="round" stroke-width="3" style="" transform="matrix(0.996465, -0.084009, 0.084009, 0.996465, -81.958227, 282.833675)"/>
    <path id="Path_418" data-name="Path 418" d="M 3419.423 1161.346 C 3422.697 1206.055 3421.861 1238.721 3420.751 1283.825 C 3440.86 1281.682 3446.718 1279.859 3465.925 1274.368" fill="none" stroke="#353f4f" stroke-linecap="round" stroke-linejoin="round" stroke-width="3" style=""/>
    <path id="Path_419" data-name="Path 419" d="M 3359.335 1158.472 C 3310.453 1199.443 3342.038 1214.263 3347.122 1258.846 C 3334.964 1256.344 3324.873 1274.825 3311.681 1275.128" fill="none" stroke="#353f4f" stroke-linecap="round" stroke-linejoin="round" stroke-width="3" style=""/>
    <path id="Path_421" data-name="Path 421" d="M 3324.776 1118.403 C 3324.45 1124.099 3324.833 1130.04 3327.584 1135.09 C 3331.379 1142.061 3338.981 1146.198 3346.302 1149.672 C 3364.838 1158.473 3385.023 1165.658 3405.635 1164.32 C 3426.248 1162.981 3447.247 1151.26 3453.678 1132.314 C 3456.494 1124.019 3456.381 1115.1 3456.238 1106.371 L 3455.04 1032.603 C 3454.53 1001.245 3453.877 961.938 3425.72 940.667 C 3406.25 925.959 3389.15 929.249 3377.304 949.298 C 3364.554 970.867 3362.134 998.725 3355.49 1022.351 C 3346.59 1053.987 3326.669 1085.394 3324.776 1118.403 Z" fill="none" stroke="#353f4f" stroke-miterlimit="10" stroke-width="4.503" style=""/>
    <path id="Path_423" data-name="Path 423" d="M 3471.121 1071.686 C 3482.765 1075.3 3492.052 1090.325 3492.422 1106.132 C 3492.661 1116.366 3489.824 1126.381 3484.258 1134.944 C 3476.137 1146.907 3449.149 1155.398 3444.655 1158.763" fill="none" stroke="#353f4f" stroke-linecap="round" stroke-linejoin="round" stroke-width="3" style="" transform="matrix(0.943478, -0.331436, 0.331436, 0.943478, -173.575398, 1212.635447)"/>
    <path id="Path_612" data-name="Path 612" d="M 3417.293 1004.916 C 3421.123 1004.332 3424.796 1003.027 3428.103 1001.072" fill="none" stroke="#353f4f" stroke-linecap="round" stroke-linejoin="round" stroke-width="3" style=""/>
    <path id="Path_613" data-name="Path 613" d="M 3418.023 1008.608 C 3420.623 1009.12 3423.29 1009.229 3425.926 1008.932" fill="none" stroke="#353f4f" stroke-linecap="round" stroke-linejoin="round" stroke-width="3" style=""/>
    <path id="Path_614" data-name="Path 614" d="M 3395.174 1004.915 C 3391.345 1004.333 3387.672 1003.026 3384.366 1001.072" fill="none" stroke="#353f4f" stroke-linecap="round" stroke-linejoin="round" stroke-width="3" style=""/>
    <path id="Path_615" data-name="Path 615" d="M 3394.444 1008.608 C 3391.844 1009.119 3389.176 1009.228 3386.54 1008.932" fill="none" stroke="#353f4f" stroke-linecap="round" stroke-linejoin="round" stroke-width="3" style=""/>
    <path id="Path_551" data-name="Path 551" d="M 3391.657 1030.657 C 3393.341 1028.633 3395.887 1027.458 3398.583 1027.461 C 3401.351 1027.412 3404.1 1027.952 3406.634 1029.044 C 3408.182 1029.778 3409.818 1030.322 3411.503 1030.663 C 3412.72 1030.81 3413.951 1030.763 3415.148 1030.524 C 3417.327 1030.134 3419.385 1029.278 3421.17 1028.018" fill="none" stroke="#353f4f" stroke-linecap="round" stroke-linejoin="round" stroke-width="3" style="" transform="matrix(0.996465, -0.084009, 0.084009, 0.996465, -74.412182, 289.807308)"/>
    <path id="Path_1616" data-name="Path 1616" d="M 3499.4 1071.178 L 3496.143 1079.56 L 3501.103 1079.56 L 3497.979 1087.754" fill="none" stroke="#353f4f" stroke-linecap="round" stroke-width="2.149" style="" transform="matrix(0.656245, 0.754548, -0.754548, 0.656245, 2017.178262, -2268.806899)"/>
    <path id="Path_1619" data-name="Path 1619" d="M 3316.439 1179.118 L 3313.662 1187.604 L 3318.56 1187.604 L 3315.904 1195.901" fill="none" stroke="#353f4f" stroke-linecap="round" stroke-width="2.149" style="" transform="matrix(0.267502, -0.963557, 0.963557, 0.267502, 1284.811179, 4065.111349)"/>
    <path id="Path_1617" data-name="Path 1617" d="M 3490.743 1060.198 L 3487.486 1068.484 L 3492.502 1068.484 L 3489.378 1076.586" fill="none" stroke="#353f4f" stroke-linecap="round" stroke-width="2.149" style="" transform="matrix(0.865057, 0.501674, -0.501674, 0.865057, 1006.934929, -1606.66635)"/>
    <path id="Path_1618" data-name="Path 1618" d="M 3312.167 1192.254 L 3309.203 1200.76 L 3314.09 1200.76 L 3311.253 1209.076" fill="none" stroke="#353f4f" stroke-linecap="round" stroke-width="2.149" style="" transform="matrix(-0.07226, -0.997386, 0.997386, -0.07226, 2353.419748, 4590.414365)"/>
  </g>
  <g transform="matrix(0.894038, 0, 0, 0.90905, 1512.978027, -790.7771)" style="">
    <path id="Path_1614" data-name="Path 1614" d="M 1786.698 1900.133 C 1789.912 1904.059 1792.42 1908.514 1794.11 1913.298 C 1797.03 1920.969 1798.581 1931.551 1799.181 1942.188 C 1799.781 1952.824 1799.508 1963.647 1799.233 1974.373" fill="none" stroke="#353f4f" stroke-linecap="round" stroke-linejoin="round" stroke-width="3" transform="matrix(0.998648, 0.051982, -0.051982, 0.998648, 103.126572, -90.590814)"/>
    <path id="Path_1615" data-name="Path 1615" d="M 1667.735 1896.454 C 1663.559 1900.144 1660.143 1904.614 1657.679 1909.613 C 1653.717 1917.279 1651.612 1927.855 1650.799 1938.486 C 1649.986 1949.116 1650.356 1959.933 1650.729 1970.653" fill="none" stroke="#353f4f" stroke-linecap="round" stroke-linejoin="round" stroke-width="3" transform="matrix(0.996207, -0.087018, 0.087018, 0.996207, -161.960839, 151.699387)"/>
    <path id="Path_1167" data-name="Path 1167" d="M 1706.821 1977.493 C 1706.594 1995.714 1706.368 2007.981 1706.14 2026.203 C 1699.929 2026.928 1693.662 2027.045 1687.429 2026.553" fill="none" stroke="#323f51" stroke-linecap="round" stroke-linejoin="round" stroke-width="3"/>
    <path id="Path_1168" data-name="Path 1168" d="M 1745.256 1979.889 C 1744.404 1995.443 1744.38 2011.032 1745.182 2026.589 C 1751.4 2025.341 1757.812 2025.432 1763.993 2026.856" fill="none" stroke="#323f51" stroke-linecap="round" stroke-linejoin="round" stroke-width="3"/>
    <path id="Path_1163" data-name="Path 1163" d="M 1706.963 1806.644 C 1692.468 1814.68 1683.682 1830.082 1677.455 1845.444 C 1665.654 1874.632 1660.496 1906.08 1662.355 1937.508 C 1662.718 1943.537 1663.386 1949.717 1666.155 1955.083 C 1669.674 1961.894 1676.223 1966.656 1683.087 1970.072 C 1696.115 1976.554 1710.804 1979.007 1725.335 1979.788 C 1737.688 1980.452 1750.376 1979.912 1761.903 1975.422 C 1773.43 1970.932 1783.718 1961.964 1787.316 1950.129 C 1789.446 1943.124 1789.149 1935.643 1788.833 1928.329 C 1788.521 1921.129 1788.21 1913.929 1787.898 1906.729 C 1787.064 1887.449 1786.167 1867.829 1779.689 1849.649 C 1773.211 1831.469 1760.189 1814.614 1741.939 1808.337 C 1736.164 1806.35 1710.506 1804.199 1707.094 1806.601 C 1707.069 1806.61 1704.248 1808.317 1704.194 1808.337" fill="none" stroke="#323f51" stroke-miterlimit="10" stroke-width="4.5"/>
    <path id="Path_574" data-name="Path 574" d="M 1707.402 1870.713 C 1706.117 1870.261 1704.914 1869.606 1703.836 1868.774 C 1703.309 1868.374 1703.072 1867.921 1703.596 1867.438 C 1704.102 1866.974 1704.611 1867.192 1705.083 1867.544 C 1708.772 1870.287 1712.836 1870.43 1717.165 1868.724 C 1717.381 1868.639 1717.602 1868.563 1717.814 1868.473 C 1718.348 1868.248 1718.861 1868.233 1719.174 1868.71 C 1719.498 1869.21 1719.306 1869.632 1718.699 1869.892 C 1715.176 1871.597 1711.134 1871.89 1707.402 1870.713 Z" fill="#323f51" transform="matrix(0.951056, -0.309018, 0.309018, 0.951056, -493.888608, 620.318131)"/>
    <path id="Path_573" data-name="Path 573" d="M 1737.097 1870.901 C 1735.589 1870.37 1734.175 1869.601 1732.909 1868.623 C 1732.291 1868.149 1732.013 1867.626 1732.628 1867.058 C 1733.217 1866.515 1733.819 1866.77 1734.373 1867.182 C 1738.702 1870.402 1743.478 1870.57 1748.554 1868.568 C 1748.808 1868.468 1749.067 1868.379 1749.316 1868.274 C 1749.943 1868.01 1750.545 1867.993 1750.912 1868.552 C 1751.292 1869.133 1751.066 1869.635 1750.354 1869.939 C 1746.095 1871.759 1741.714 1872.451 1737.097 1870.901 Z" fill="#323f51" transform="matrix(0.994478, 0.104945, -0.104945, 0.994478, 205.786362, -172.459593)"/>
    <path id="Path_1613" data-name="Path 1613" d="M 1727.03 1880.714 C 1730.283 1880.677 1732.43 1882.752 1732.372 1885.879 C 1732.314 1889.029 1730.39 1891.099 1727.422 1891.209 C 1724.322 1891.414 1721.671 1889.006 1721.578 1885.901 C 1721.611 1882.802 1723.767 1880.752 1727.03 1880.714 Z" fill="#323f51"/>
  </g>
  <g id="Group_1191" data-name="Group 1191" transform="matrix(0.655603, 0, 0, 0.738576, 2772.4021, 7581.296387)" style="">
    <path id="Path_1606" data-name="Path 1606" d="M27.3,0c13.34,5.781,15.28,17.656,22.316,27.4,3.6,4.989,6.163,10.96,2.873,16.052-2.285,3.535-7.049,6.021-12.066,7.736C21.852,57.535,19.479,50.83,0,55.709" transform="translate(275.162 -9239.734) rotate(179)" fill="none" stroke="#353f4f" stroke-linecap="round" stroke-linejoin="round" stroke-width="3"/>
    <path id="Path_1609" data-name="Path 1609" d="M0,0" transform="matrix(0.996, -0.087, 0.087, 0.996, 287.217, -9238.794)" fill="none" stroke="#353f4f" stroke-miterlimit="10" stroke-width="5.492"/>
    <path id="Path_1607" data-name="Path 1607" d="M.06,119.063c-.2,3.631.036,7.416,1.727,10.635,2.335,4.442,7.01,7.076,11.512,9.292,11.4,5.608,23.819,10.187,36.494,9.333S75.388,140,79.343,127.929c1.733-5.288,1.663-10.97,1.575-16.533l-.736-47.009C79.868,44.4,79.467,19.356,62.147,5.8,50.173-3.573,39.658-1.476,32.37,11.3,24.527,25.047,23.04,42.8,18.952,57.854,13.478,78.014,1.223,98.028.06,119.063Z" transform="matrix(0.996, -0.087, 0.087, 0.996, 230.544, -9319.974)" fill="none" stroke="#353f4f" stroke-width="4.5"/>
    <g id="Group_1066" data-name="Group 1066" transform="matrix(0.996, -0.087, 0.087, 0.996, 269.955, -9281.135)">
      <path id="Path_547" data-name="Path 547" d="M8.919,0A15.071,15.071,0,0,0,0,5.375" transform="translate(0 1.584)" fill="none" stroke="#353f4f" stroke-linecap="round" stroke-linejoin="round" stroke-width="3"/>
      <path id="Path_548" data-name="Path 548" d="M0,0A19.7,19.7,0,0,1,8.06,8.944" transform="translate(0.124)" fill="none" stroke="#353f4f" stroke-linecap="round" stroke-linejoin="round" stroke-width="3"/>
    </g>
    <g id="Group_1067" data-name="Group 1067" transform="matrix(0.996, -0.087, 0.087, 0.996, 292.447, -9280.16)">
      <path id="Path_549" data-name="Path 549" d="M8.919,0A15.071,15.071,0,0,0,0,5.375" transform="translate(0 1.584)" fill="none" stroke="#353f4f" stroke-linecap="round" stroke-linejoin="round" stroke-width="3"/>
      <path id="Path_550" data-name="Path 550" d="M0,0A19.7,19.7,0,0,1,8.06,8.942" transform="translate(0.124)" fill="none" stroke="#353f4f" stroke-linecap="round" stroke-linejoin="round" stroke-width="3"/>
    </g>
    <ellipse id="Ellipse_131" data-name="Ellipse 131" cx="17.334" cy="68.502" rx="17.334" ry="68.502" transform="translate(217.391 -9318.428) rotate(-77.98)" fill="none" stroke="#353f4f" stroke-miterlimit="10" stroke-width="2"/>
    <ellipse id="Ellipse_132" data-name="Ellipse 132" cx="68.502" cy="17.334" rx="68.502" ry="17.334" transform="matrix(0.996, -0.092, 0.092, 0.996, 218.198, -9332.1)" fill="none" stroke="#353f4f" stroke-miterlimit="10" stroke-width="2"/>
    <path id="Path_1610" data-name="Path 1610" d="M0,4.063A8.484,8.484,0,0,1,6.972.02a16.1,16.1,0,0,1,8.073,2A18.219,18.219,0,0,0,19.923,4.07a9.281,9.281,0,0,0,3.659-.179A13.728,13.728,0,0,0,29.648.725" transform="matrix(0.996, -0.087, 0.087, 0.996, 268.075, -9254.518)" fill="none" stroke="#353f4f" stroke-linecap="round" stroke-linejoin="round" stroke-width="3"/>
    <path id="Path_1611" data-name="Path 1611" d="M0,0C1.458,35.749,1.084,61.869.592,97.93c8.955-1.713,11.565-3.171,20.115-7.561" transform="translate(298.342 -9177.961) rotate(1)" fill="none" stroke="#353f4f" stroke-linecap="round" stroke-linejoin="round" stroke-width="3"/>
    <path id="Path_1608" data-name="Path 1608" d="M21.223,0c-4.765,36.613-6.4,60.818-4.139,96.779A43.651,43.651,0,0,0,0,94.1" transform="translate(243.377 -9180.246) rotate(1)" fill="none" stroke="#353f4f" stroke-linecap="round" stroke-linejoin="round" stroke-width="3"/>
    <path id="Path_1612" data-name="Path 1612" d="M0,0C7.536,3.751,12.806,7.045,18.678,13.161c7.36,7.668,11.266,18.246,12.781,28.879s.823,21.452.13,32.174" transform="matrix(0.996, -0.087, 0.087, 0.996, 318.312, -9241.57)" fill="none" stroke="#353f4f" stroke-linecap="round" stroke-linejoin="round" stroke-width="3"/>
  </g>
  <g transform="matrix(1, 0, 0, 1, 1903.157959, 2112.318115)">
    <g id="Group_179" data-name="Group 179" transform="matrix(1, 0, 0, 1, 1732.851563, -1643.42981)">
      <path id="Path_357" data-name="Path 357" d="M-963.4,262.108c-.225,18.025-.448,30.16-.673,48.187a95.03,95.03,0,0,1-18.51.346" transform="translate(12.097 47.694)" fill="none" stroke="#e79e17" stroke-linecap="round" stroke-linejoin="round" stroke-width="1.829" style="stroke:#353f4f;stroke-opacity:1"/>
      <path id="Path_358" data-name="Path 358" d="M-941.547,262.451a462.642,462.642,0,0,0-.073,47.628,42.863,42.863,0,0,1,18.609.272" transform="translate(27.452 47.824)" fill="none" stroke="#e79e17" stroke-linecap="round" stroke-linejoin="round" stroke-width="1.829" style="stroke:#353f4f;stroke-opacity:1"/>
      <path id="Path_359" data-name="Path 359" d="M-956.324,140.788c-14.339,7.95-23.031,23.186-29.191,38.381a209.9,209.9,0,0,0-14.937,91.076c.359,5.964,1.02,12.078,3.762,17.386,3.481,6.738,9.96,11.449,16.75,14.828,12.888,6.412,27.419,8.839,41.794,9.612,12.22.657,24.772.123,36.175-4.319s21.581-13.313,25.14-25.022c2.108-6.93,1.814-14.331,1.5-21.567q-.462-10.685-.925-21.37c-.825-19.073-1.713-38.483-8.121-56.467s-19.291-34.658-37.344-40.868c-5.747-1.978-12.752-6.646-18.749-5.657-13.025,2.145-6.84.774-15.856,3.987" transform="translate(5.162 0)" fill="none" stroke="#e79e17" stroke-miterlimit="10" stroke-width="4.269" style="stroke:#353f4f;stroke-opacity:1"/>
      <path id="Path_360" data-name="Path 360" d="M-992.129,192.036c-12.549,2.954-22.26,15.2-22.272,28.1a19.55,19.55,0,0,0,1.883,8.879c2.568,5.056,7.758,8.149,12.721,10.894a553.723,553.723,0,0,0,54.521,26.356" transform="translate(0 21.052)" fill="none" stroke="#e79e17" stroke-linecap="round" stroke-linejoin="round" stroke-width="1.829" style="stroke:#353f4f;stroke-opacity:1"/>
      <path id="Path_361" data-name="Path 361" d="M-903.756,191.7a57.486,57.486,0,0,1,22.141,24.55c2.737,5.478,4.684,12.035,2.185,17.625-1.736,3.883-5.358,6.614-9.172,8.5-14.117,6.969-31.234,4.2-46.038,9.558" transform="translate(30.326 20.926)" fill="none" stroke="#e79e17" stroke-linecap="round" stroke-linejoin="round" stroke-width="1.829" style="stroke:#353f4f;stroke-opacity:1"/>
      <path id="Path_362" data-name="Path 362" d="M-948.544,168.386c0,1.267-.026,2.533-.046,3.8a3.677,3.677,0,0,0,2.128,3.462c2.07.932,6.494.058,7.9-.3,4.194-1.059,2.241-4.727,2.241-6.966" transform="translate(25.022 12.061)" fill="none" stroke="#e79e17" stroke-linecap="round" stroke-linejoin="round" stroke-width="1.829" style="stroke:#353f4f;stroke-opacity:1"/>
      <path id="Path_363" data-name="Path 363" d="M-968.089,168.386c0,1.267-.026,2.533-.044,3.8a3.673,3.673,0,0,0,2.127,3.462c2.07.932,6.494.058,7.9-.3,4.194-1.059,2.241-4.727,2.241-6.966" transform="translate(17.591 12.061)" fill="none" stroke="#e79e17" stroke-linecap="round" stroke-linejoin="round" stroke-width="1.829" style="stroke:#353f4f;stroke-opacity:1"/>
      <path id="Path_364" data-name="Path 364" d="M-976.144,187.328" transform="translate(14.545 19.262)" fill="none" stroke="#e79e17" stroke-width="1"/>
      <path id="Path_365" data-name="Path 365" d="M-946.9,188.881c-6.745-5.318-14.24-4.1-20.377.2" transform="translate(17.915 18.512)" fill="none" stroke="#e79e17" stroke-linecap="round" stroke-linejoin="round" stroke-width="1.829" style="stroke:#353f4f;stroke-opacity:1"/>
    </g>
  </g>
  <g transform="matrix(0.750684, 0, 0, 0.847329, 2462.496338, 846.41571)" style="">
    <g id="Group_1071" data-name="Group 1071" transform="matrix(1, 0, 0, 1, -1030.752197, 9172.555664)">
      <path id="path-24" data-name="Path 418" d="M 2059.33 -9152.874 C 2061.613 -9120.574 2061.03 -9096.974 2060.256 -9064.388 C 2074.278 -9065.936 2078.363 -9067.253 2091.756 -9071.22" fill="none" stroke="#353f4f" stroke-linecap="round" stroke-linejoin="round" stroke-width="3"/>
      <path id="path-25" data-name="Path 419" d="M 1987.387 -9156.56 C 1979.927 -9123.766 1977.361 -9102.086 1980.906 -9069.876 C 1972.113 -9071.711 1963.136 -9072.516 1954.157 -9072.276" fill="none" stroke="#353f4f" stroke-linecap="round" stroke-linejoin="round" stroke-width="3"/>
      <path id="path-26" data-name="Path 421" d="M 53.611 371.919 C 45.787 389.064 64.006 408.985 90.188 420.426 C 127.221 436.609 174.925 401.43 155.337 363.813 L 144.444 309.932 C 144.088 287.277 147.904 236.424 123.999 243.511 C 110.423 247.536 98.499 235.829 90.239 249.747 C 81.082 265.175 79.661 285.456 75.028 302.525 C 68.822 325.381 63.527 350.19 53.611 371.919 Z" transform="translate(1917.95 -9568.192)" fill="none" stroke="#353f4f" stroke-miterlimit="10" stroke-width="4.503"/>
      <path id="Path_422" data-name="Path 422" d="M 1994.51 -9197.365 C 2002.953 -9202.339 2009.747 -9209.687 2014.045 -9218.494 C 2016.459 -9223.209 2018.177 -9228.852 2015.972 -9233.664 C 2014.44 -9237.005 2011.246 -9239.354 2007.882 -9240.975 C 1995.426 -9246.972 1993.835 -9240.636 1980.774 -9245.246" fill="none" stroke="#353f4f" stroke-linecap="round" stroke-linejoin="round" stroke-width="3" transform="matrix(-0.766044, 0.642788, -0.642788, -0.766044, -2397.226678, -17570.092203)"/>
      <path id="path-27" data-name="Path 423" d="M 2042.864 -9227.273 C 2050.963 -9224.672 2057.228 -9213.853 2057.235 -9202.473 C 2057.292 -9199.809 2056.881 -9197.156 2056.021 -9194.634 C 2054.364 -9190.17 2047.432 -9182.818 2044.229 -9180.396" fill="none" stroke="#353f4f" stroke-linecap="round" stroke-linejoin="round" stroke-width="3" transform="matrix(0.325806, 0.945437, -0.945437, 0.325806, -7319.510115, -8143.365655)"/>
      <path id="path-28" data-name="Path 612" d="M56.569,54.627a20.57,20.57,0,0,0,7.538-2.777" transform="translate(1979.504 -9332.891)" fill="none" stroke="#353f4f" stroke-linecap="round" stroke-linejoin="round" stroke-width="3"/>
      <path id="path-29" data-name="Path 613" d="M56.932,55.73a17.468,17.468,0,0,0,5.511.234" transform="translate(1979.65 -9331.326)" fill="none" stroke="#353f4f" stroke-linecap="round" stroke-linejoin="round" stroke-width="3"/>
      <g id="g-17" data-name="Group 325" transform="translate(2013.113 -9281.041)">
        <path id="path-30" data-name="Path 614" d="M47.745,54.627a20.554,20.554,0,0,1-7.536-2.777" transform="translate(-40.209 -51.85)" fill="none" stroke="#353f4f" stroke-linecap="round" stroke-linejoin="round" stroke-width="3"/>
        <path id="path-31" data-name="Path 615" d="M46.8,55.73a17.466,17.466,0,0,1-5.511.234" transform="translate(-39.773 -50.285)" fill="none" stroke="#353f4f" stroke-linecap="round" stroke-linejoin="round" stroke-width="3"/>
      </g>
      <path id="path-32" data-name="Path 551" d="M0,2.321A6.224,6.224,0,0,1,4.845.011a13.161,13.161,0,0,1,5.61,1.144,14.273,14.273,0,0,0,3.39,1.17,7.81,7.81,0,0,0,2.543-.1A10.378,10.378,0,0,0,20.6.414" transform="matrix(0.996, -0.087, 0.087, 0.996, 2018.123, -9261.088)" fill="none" stroke="#353f4f" stroke-linecap="round" stroke-linejoin="round" stroke-width="3"/>
    </g>
  </g>
</svg>