<svg viewBox="421.77 -9.121 624.419 520.368" xmlns="http://www.w3.org/2000/svg"><defs><clipPath id="MSDyspepsi_mavekatar_svg__a"><path fill="#323f51" d="M0 0h35.569v27.465H0z" data-name="Rectangle 374"/></clipPath></defs><g data-name="Group 1057"><path fill="#fff" d="M-1866.228-9003.662h26.91c115.665 0 154.628 97.862 99.824 195.723-1.151 2.055-13.082 90.082-14.294 92.103-57.473 95.795-191.511 103.621-304.747 103.621h-26.912c-115.666-.001-160.357-87.63-99.822-195.724s203.375-195.723 319.041-195.723Z" data-name="Path 1346" transform="rotate(10.708 -39663.475 9489.496)"/><g fill="#903" data-name="Group 907"><path d="M647.555-1451.375h72.7a5.3 5.3 0 0 1 5.3 5.3 5.3 5.3 0 0 1-5.3 5.3h-72.7a5.3 5.3 0 0 1-5.3-5.3 5.3 5.3 0 0 1 5.3-5.3Z" data-name="Path 211"/><path d="M703.05-1468.587a5.3 5.3 0 0 1 3.751 1.553l17.2 17.213a5.3 5.3 0 0 1 0 7.5l-17.2 17.215a5.3 5.3 0 0 1-7.5 0 5.3 5.3 0 0 1 0-7.493l13.459-13.472-13.459-13.466a5.3 5.3 0 0 1 0-7.5 5.288 5.288 0 0 1 3.749-1.55Z" data-name="Path 212"/></g><text data-name="SYMPTOMER FRA MAVEN" style="fill:#903;font-family:&quot;Roboto Slab&quot;;font-size:30px;font-weight:800;letter-spacing:3px;white-space:pre" transform="translate(634.563 -1538.556)"><tspan>Generelt om </tspan><tspan x="0" dy="1em">​</tspan><tspan>symptomer</tspan><tspan x="0" dy="1em">​</tspan></text></g><g fill="none" stroke="#e79e17" data-name="Group 179"><path stroke-linecap="round" stroke-linejoin="round" stroke-width="1.829" d="M-963.4 262.108c-.225 18.025-.448 30.16-.673 48.187a95.03 95.03 0 0 1-18.51.346" data-name="Path 357" style="stroke:#353f4f;stroke-opacity:1" transform="translate(1814.854 -1577.525)"/><path stroke-linecap="round" stroke-linejoin="round" stroke-width="1.829" d="M-941.547 262.451a462.642 462.642 0 0 0-.073 47.628 42.863 42.863 0 0 1 18.609.272" data-name="Path 358" style="stroke:#353f4f;stroke-opacity:1" transform="translate(1830.209 -1577.395)"/><path stroke-miterlimit="10" stroke-width="4.269" d="M-956.324 140.788c-14.339 7.95-23.031 23.186-29.191 38.381a209.9 209.9 0 0 0-14.937 91.076c.359 5.964 1.02 12.078 3.762 17.386 3.481 6.738 9.96 11.449 16.75 14.828 12.888 6.412 27.419 8.839 41.794 9.612 12.22.657 24.772.123 36.175-4.319s21.581-13.313 25.14-25.022c2.108-6.93 1.814-14.331 1.5-21.567l-.925-21.37c-.825-19.073-1.713-38.483-8.121-56.467s-19.291-34.658-37.344-40.868c-5.747-1.978-12.752-6.646-18.749-5.657-13.025 2.145-6.84.774-15.856 3.987" data-name="Path 359" style="stroke:#353f4f;stroke-opacity:1" transform="translate(1807.919 -1625.219)"/><path stroke-linecap="round" stroke-linejoin="round" stroke-width="1.829" d="M-992.129 192.036c-12.549 2.954-22.26 15.2-22.272 28.1a19.55 19.55 0 0 0 1.883 8.879c2.568 5.056 7.758 8.149 12.721 10.894a553.723 553.723 0 0 0 54.521 26.356" data-name="Path 360" style="stroke:#353f4f;stroke-opacity:1" transform="translate(1802.757 -1604.167)"/><path stroke-linecap="round" stroke-linejoin="round" stroke-width="1.829" d="M-903.756 191.7a57.486 57.486 0 0 1 22.141 24.55c2.737 5.478 4.684 12.035 2.185 17.625-1.736 3.883-5.358 6.614-9.172 8.5-14.117 6.969-31.234 4.2-46.038 9.558" data-name="Path 361" style="stroke:#353f4f;stroke-opacity:1" transform="translate(1833.083 -1604.293)"/><path stroke-linecap="round" stroke-linejoin="round" stroke-width="1.829" d="M-948.544 168.386c0 1.267-.026 2.533-.046 3.8a3.677 3.677 0 0 0 2.128 3.462c2.07.932 6.494.058 7.9-.3 4.194-1.059 2.241-4.727 2.241-6.966" data-name="Path 362" style="stroke:#353f4f;stroke-opacity:1" transform="translate(1827.779 -1613.158)"/><path stroke-linecap="round" stroke-linejoin="round" stroke-width="1.829" d="M-968.089 168.386c0 1.267-.026 2.533-.044 3.8a3.673 3.673 0 0 0 2.127 3.462c2.07.932 6.494.058 7.9-.3 4.194-1.059 2.241-4.727 2.241-6.966" data-name="Path 363" style="stroke:#353f4f;stroke-opacity:1" transform="translate(1820.348 -1613.158)"/><path stroke-linecap="round" stroke-linejoin="round" stroke-width="1.829" d="M-946.9 188.881c-6.745-5.318-14.24-4.1-20.377.2" data-name="Path 365" style="stroke:#353f4f;stroke-opacity:1" transform="translate(1820.672 -1606.707)"/></g><g data-name="Group 1057"><path fill="#fff" d="m812.94-1142.616 26.441 5c113.651 21.491 187.603 135.071 169.42 231.228-.381 2.02 19.978 95.456 19.524 97.427-21.558 93.416-150.41 77.016-261.674 55.976l-26.443-5c-113.652-21.492-189.503-125.017-169.42-231.229 20.085-106.211 128.5-174.893 242.152-153.402Z" data-name="Path 1346"/><g fill="#903" data-name="Group 907"><path d="M659.71-943.02h72.7a5.3 5.3 0 0 1 5.3 5.3 5.3 5.3 0 0 1-5.3 5.3h-72.7a5.3 5.3 0 0 1-5.3-5.3 5.3 5.3 0 0 1 5.3-5.3Z" data-name="Path 211"/><path d="M715.204-960.232a5.3 5.3 0 0 1 3.751 1.553l17.2 17.213a5.3 5.3 0 0 1 0 7.5l-17.2 17.215a5.3 5.3 0 0 1-7.5 0 5.3 5.3 0 0 1 0-7.493l13.46-13.472-13.46-13.466a5.3 5.3 0 0 1 0-7.5 5.288 5.288 0 0 1 3.75-1.55Z" data-name="Path 212"/></g><text data-name="SYMPTOMER FRA MAVEN" style="fill:#903;font-family:&quot;Roboto Slab&quot;;font-size:30px;font-weight:800;letter-spacing:3px;white-space:pre" transform="translate(643.183 -998.269)"><tspan>Svimmelhed</tspan><tspan x="0" dy="1em">​</tspan></text></g><g fill="none" stroke="#353f4f" data-name="Group 1191" transform="translate(636.112 8367.875)"><path stroke-linecap="round" stroke-linejoin="round" stroke-width="3" d="M247.866-9239.258c-13.439-5.547-15.586-17.386-22.79-27.006-3.687-4.925-6.354-10.85-3.153-16 2.223-3.574 6.942-6.142 11.929-7.945 18.457-6.67 20.947-.007 40.338-5.226" data-name="Path 1606"/><path stroke-width="4.499055" d="M240.962-9201.392c.117 3.633.681 7.383 2.646 10.442 2.712 4.22 7.597 6.438 12.274 8.253 11.842 4.594 24.61 8.074 37.16 6.12s24.768-10.516 27.657-22.883c1.266-5.417.702-11.07.13-16.603l-4.822-46.757c-2.052-19.88-4.63-44.79-23.06-56.784-12.742-8.294-23.032-5.29-29.18 8.069-6.615 14.374-6.552 32.185-9.314 47.535-3.698 20.555-14.162 41.555-13.49 62.608Z" data-name="Path 1607"/><g stroke-linecap="round" stroke-linejoin="round" stroke-width="3" data-name="Group 1066"><path stroke-width="2.99937" d="M278.976-9280.333a15.068 15.068 0 0 0-8.416 6.13" data-name="Path 547"/><path stroke-width="2.99937" d="M270.079-9281.146a19.696 19.696 0 0 1 8.805 8.207" data-name="Path 548"/></g><g stroke-linecap="round" stroke-linejoin="round" stroke-width="3" data-name="Group 1067"><path stroke-width="2.99937" d="M301.468-9279.358a15.068 15.068 0 0 0-8.416 6.13" data-name="Path 549"/><path stroke-width="2.99937" d="M292.57-9280.17a19.696 19.696 0 0 1 8.806 8.204" data-name="Path 550"/></g><ellipse cx="17.334" cy="68.502" stroke-miterlimit="10" stroke-width="2" data-name="Ellipse 131" rx="17.334" ry="68.502" transform="rotate(-77.98 -5647.008 -4793.49)"/><ellipse cx="68.502" cy="17.334" stroke-miterlimit="10" stroke-width="2" data-name="Ellipse 132" rx="68.502" ry="17.334" transform="rotate(-5.13 -101141.558 -6769.176)"/><path stroke-linecap="round" stroke-linejoin="round" stroke-width="2.99937" d="M268.428-9250.471a8.482 8.482 0 0 1 6.593-4.634 16.097 16.097 0 0 1 8.215 1.29 18.215 18.215 0 0 0 5.036 1.617 9.28 9.28 0 0 0 3.63-.496 13.725 13.725 0 0 0 5.765-3.681" data-name="Path 1610"/><path stroke-linecap="round" stroke-linejoin="round" stroke-width="3" d="M298.342-9177.961c.834 35.769.004 61.878-1.117 97.925 8.983-1.556 11.618-2.968 20.244-7.208" data-name="Path 1611"/><path stroke-linecap="round" stroke-linejoin="round" stroke-width="3" d="M264.597-9179.876c-5.403 36.525-7.46 60.697-5.828 96.692a43.651 43.651 0 0 0-17.034-2.976" data-name="Path 1608"/><path stroke-linecap="round" stroke-linejoin="round" stroke-width="2.99937" d="M318.312-9241.57c7.832 3.08 13.368 5.903 19.748 11.483 7.998 6.997 12.809 17.193 15.243 27.652s2.686 21.294 2.928 32.034" data-name="Path 1612"/></g><g data-name="Group 1057"><path fill="#fff" d="m812.945-638.335 26.442 5c187.722-3.965 254.403 228.55 188.944 328.655-99.997 152.92-150.41 77.015-261.674 55.976l-26.443-5c-68.175-14.602-119.16-29.131-144.316-59.799C355.83-606.18 699.746-698.009 812.945-638.335Z" data-name="Path 1346"/><g fill="#903" data-name="Group 907"><path d="M656.181-406.808h72.7a5.3 5.3 0 0 1 5.3 5.3 5.3 5.3 0 0 1-5.3 5.3h-72.7a5.3 5.3 0 0 1-5.3-5.3 5.3 5.3 0 0 1 5.3-5.3Z" data-name="Path 211"/><path d="M711.676-424.02a5.3 5.3 0 0 1 3.751 1.553l17.2 17.213a5.3 5.3 0 0 1 0 7.5l-17.2 17.215a5.3 5.3 0 0 1-7.5 0 5.3 5.3 0 0 1 0-7.493l13.46-13.472-13.46-13.466a5.3 5.3 0 0 1 0-7.5 5.288 5.288 0 0 1 3.75-1.55Z" data-name="Path 212"/></g><text data-name="SYMPTOMER FRA MAVEN" style="fill:#903;font-family:&quot;Roboto Slab&quot;;font-size:30px;font-weight:800;letter-spacing:3px;white-space:pre" transform="translate(643.189 -493.988)"><tspan>Mavesmerter </tspan><tspan x="0" dy="1em">​</tspan><tspan>og urolig mave</tspan><tspan x="0" dy="1em">​</tspan></text></g><g fill="none" stroke="#353f4f" data-name="Group 1071"><path stroke-linecap="round" stroke-linejoin="round" stroke-width="3" d="M988.958-305.36c2.283 32.3 1.7 55.9.926 88.486 14.022-1.548 18.107-2.865 31.5-6.832" data-name="Path 418"/><path stroke-linecap="round" stroke-linejoin="round" stroke-width="3" d="M917.015-309.046c-7.46 32.794-10.026 54.474-6.48 86.684a115.794 115.794 0 0 0-26.75-2.4" data-name="Path 419"/><path stroke-miterlimit="10" stroke-width="4.503" d="M901.19-348.759c-7.825 17.145 10.394 37.066 36.576 48.507 37.033 16.183 84.737-18.996 65.15-56.613l-10.894-53.88c-.356-22.656 3.46-73.509-20.445-66.422-13.576 4.025-25.5-7.682-33.76 6.236-9.157 15.428-10.578 35.71-15.21 52.778-6.207 22.856-11.502 47.665-21.418 69.394Z" data-name="Path 421"/><path stroke-linecap="round" stroke-linejoin="round" stroke-width="3" d="M916.475-394.945a49.95 49.95 0 0 0-1.383 28.743c1.181 5.163 3.492 10.59 8.275 12.86 3.32 1.574 7.277 1.32 10.896.4 13.397-3.413 10.543-9.29 23.512-14.153" data-name="Path 422"/><path stroke-linecap="round" stroke-linejoin="round" stroke-width="3" d="M999.5-370.753c.18 8.504-8.007 17.952-18.764 21.667a22.778 22.778 0 0 1-7.807 1.406c-4.76-.112-13.97-4.27-17.303-6.51" data-name="Path 423"/><path stroke-linecap="round" stroke-linejoin="round" stroke-width="3" d="M965.701-430.75a20.57 20.57 0 0 0 7.538-2.777" data-name="Path 612"/><path stroke-linecap="round" stroke-linejoin="round" stroke-width="3" d="M966.21-428.082a17.468 17.468 0 0 0 5.511.234" data-name="Path 613"/><g stroke-linecap="round" stroke-linejoin="round" stroke-width="3" data-name="Group 325"><path d="M950.277-430.75a20.554 20.554 0 0 1-7.536-2.777" data-name="Path 614"/><path d="M949.768-428.082a17.466 17.466 0 0 1-5.51.234" data-name="Path 615"/></g><path stroke-linecap="round" stroke-linejoin="round" stroke-width="2.99937" d="M947.953-411.262a6.223 6.223 0 0 1 4.625-2.722 13.158 13.158 0 0 1 5.687.65 14.27 14.27 0 0 0 3.478.871 7.808 7.808 0 0 0 2.524-.32 10.376 10.376 0 0 0 4.038-2.17" data-name="Path 551"/></g><g data-name="Group 1057"><path fill="#fff" d="M-1911.492-8997.601h28.465c206.975-36.657 251.537 167.615 167.143 272.101-128.921 159.613-174.976 97.96-294.755 97.96h-28.468c-73.18-1.588-127.463-6.129-151.336-30.198-227.832-229.701 161.825-375.411 278.951-339.863Z" data-name="Path 1346" transform="rotate(-1.885 273552.405 -86580.185)"/><g fill="#903" data-name="Group 907"><path d="M610.404 242.071h72.7a5.3 5.3 0 0 1 5.3 5.3 5.3 5.3 0 0 1-5.3 5.3h-72.7a5.3 5.3 0 0 1-5.3-5.3 5.3 5.3 0 0 1 5.3-5.3Z" data-name="Path 211"/><path d="M665.9 224.86a5.3 5.3 0 0 1 3.75 1.552l17.2 17.213a5.3 5.3 0 0 1 0 7.5l-17.2 17.215a5.3 5.3 0 0 1-7.5 0 5.3 5.3 0 0 1 0-7.493l13.46-13.472-13.46-13.466a5.3 5.3 0 0 1 0-7.5 5.288 5.288 0 0 1 3.75-1.55Z" data-name="Path 212"/></g><text x="-2122.05" y="-8830.818" data-name="SYMPTOMER FRA MAVEN" style="fill:#903;font-family:&quot;Roboto Slab&quot;;font-size:30px;font-weight:800;letter-spacing:3px;white-space:pre" transform="translate(2706.082 9016.762)">Ubehag i øvre del<tspan x="-2122.05" dy="1em">​</tspan>af maven</text></g><g data-name="Group 906"><g data-name="Group 316"><g data-name="Group 895"><g fill="none" data-name="Group 894"><path stroke="#141928" stroke-linecap="round" stroke-linejoin="round" stroke-width="3.00141" d="M878.582 432.576c2.566 23.174 2.818 38.432-1.292 60.898a62.48 62.48 0 0 1 16.462-.952" data-name="Path 578"/><path stroke="#141928" stroke-linecap="round" stroke-linejoin="round" stroke-width="3" d="M847.926 429.034c2.59 26.575 2.359 43.648-4.022 67.47a105.386 105.386 0 0 1 22.22 3.781" data-name="Path 579"/><path stroke="#243040" stroke-miterlimit="10" stroke-width="4" d="M863.162 249.217c-15.234 5.184-26.48 19.024-35.3 33.347a230.208 230.208 0 0 0-31.874 90.422c-.809 6.2-1.362 12.617.233 18.64 2.021 7.64 7.3 13.827 13.133 18.706 11.07 9.264 24.478 14.776 38.058 18.56a77.71 77.71 0 0 0 35.251 1.52c11.75-2.19 21.326-6.594 26.991-17.878 3.353-6.678-9.849-35.556-5.045-46.17 11.1-24.81 21.695-38.705 19.052-58.508s-11.726-39.6-27.769-49.728c-5.107-3.227-10.893-9.475-16.813-9.708-12.854-.507-6.68-.628-15.914.8" data-name="Path 580"/><path stroke="#141928" stroke-linecap="round" stroke-linejoin="round" stroke-width="3" d="M883.453 372.171c-18.49 7.336-26.051 16.373-42.206 16.866-5.45.169-18.31-4.897-21.614-8.23-2.099-2.114-5.697-10.305-5.661-12.98.155-11.78-1.278-15.927 5.66-26.58" data-name="Path 584"/><path stroke="#243040" stroke-linecap="round" stroke-linejoin="round" stroke-width="2.99958" d="M914.7 347.556c-.942 10.355 1.209 15.707-2.098 23.657-1.115 2.682-12.92 17.12-15.036 18.11-1.344.63-5.57.861-6.681.352-.105-.05-.205-.093-.573-.26-4.425-2.003-6.454-2.18-9.354-7.416" data-name="Path 1339"/></g></g></g><g fill="none" stroke="#243040" stroke-linecap="round" stroke-linejoin="round" stroke-width="3" data-name="Group 319"><g data-name="Group 317"><path d="M900.443 298.488a23.053 23.053 0 0 0 8.825-3.5" data-name="Path 585"/><path d="M901.04 301.846a19.048 19.048 0 0 0 6.451.3" data-name="Path 586"/></g><g data-name="Group 318"><path d="M882.386 298.488a23.035 23.035 0 0 1-8.823-3.5" data-name="Path 587"/><path d="M881.79 301.846a19.046 19.046 0 0 1-6.452.3" data-name="Path 588"/></g><path d="M900.38 323.29s-12.666-4.5-23.248 0" data-name="Path 589"/></g></g><g data-name="Group 1057"><path fill="#fff" d="m599.804 627.05 26.442 5c187.722-3.964 254.403 228.55 188.944 328.655-99.997 152.92-150.41 77.016-261.674 55.976l-26.443-5c-68.175-14.601-119.16-29.13-144.316-59.798C142.688 659.206 486.605 567.377 599.804 627.05Z" data-name="Path 1346"/><g fill="#903" data-name="Group 907"><path d="M425.34 832.825h72.7a5.3 5.3 0 0 1 5.3 5.3 5.3 5.3 0 0 1-5.3 5.3h-72.7a5.3 5.3 0 0 1-5.3-5.3 5.3 5.3 0 0 1 5.3-5.3Z" data-name="Path 211"/><path d="M480.835 815.613a5.3 5.3 0 0 1 3.75 1.553l17.2 17.213a5.3 5.3 0 0 1 0 7.5l-17.2 17.215a5.3 5.3 0 0 1-7.5 0 5.3 5.3 0 0 1 0-7.493l13.46-13.472-13.46-13.466a5.3 5.3 0 0 1 0-7.5 5.288 5.288 0 0 1 3.75-1.55Z" data-name="Path 212"/></g><text x="-2120.019" y="-8846.908" data-name="SYMPTOMER FRA MAVEN" style="fill:#903;font-family:&quot;Roboto Slab&quot;;font-size:30px;font-weight:800;letter-spacing:3px;white-space:pre" transform="translate(2538.718 9633.269)">Hovedpine</text><g data-name="Group 1057"><path fill="#fff" d="m725.872 1274.604 26.441 5c187.723-3.965 254.404 228.55 188.944 328.655-99.997 152.92-150.41 77.015-261.673 55.976l-26.444-5c-68.174-14.602-119.16-29.131-144.315-59.799-240.07-292.677 103.847-384.506 217.047-324.832Z" data-name="Path 1346"/><g fill="#903" data-name="Group 907"><path d="M569.108 1474.528h72.7a5.3 5.3 0 0 1 5.3 5.3 5.3 5.3 0 0 1-5.3 5.3h-72.7a5.3 5.3 0 0 1-5.3-5.3 5.3 5.3 0 0 1 5.3-5.3Z" data-name="Path 211"/><path d="M624.603 1457.316a5.3 5.3 0 0 1 3.75 1.553l17.2 17.213a5.3 5.3 0 0 1 0 7.5l-17.2 17.215a5.3 5.3 0 0 1-7.5 0 5.3 5.3 0 0 1 0-7.493l13.46-13.472-13.46-13.466a5.3 5.3 0 0 1 0-7.5 5.288 5.288 0 0 1 3.75-1.55Z" data-name="Path 212"/></g><text data-name="SYMPTOMER FRA MAVEN" style="fill:#903;font-family:&quot;Roboto Slab&quot;;font-size:30px;font-weight:800;letter-spacing:3px;white-space:pre" transform="translate(556.115 1418.95)">Træthed</text></g><g data-name="Group 1057"><path fill="#fff" d="m33.73 1849.647 26.44 5c187.723-3.965 254.404 228.55 188.945 328.655-99.997 152.92-150.41 77.016-261.674 55.976l-26.443-5c-68.174-14.601-119.16-29.13-144.316-59.798-240.069-292.677 103.848-384.506 217.047-324.833Z" data-name="Path 1346"/><g fill="#903" data-name="Group 907"><path d="M-123.035 2081.175h72.7a5.3 5.3 0 0 1 5.3 5.3 5.3 5.3 0 0 1-5.3 5.3h-72.7a5.3 5.3 0 0 1-5.3-5.3 5.3 5.3 0 0 1 5.3-5.3Z" data-name="Path 211"/><path d="M-67.54 2063.963a5.3 5.3 0 0 1 3.751 1.553l17.2 17.213a5.3 5.3 0 0 1 0 7.5l-17.2 17.215a5.3 5.3 0 0 1-7.5 0 5.3 5.3 0 0 1 0-7.493l13.46-13.472-13.46-13.466a5.3 5.3 0 0 1 0-7.5 5.288 5.288 0 0 1 3.75-1.55Z" data-name="Path 212"/></g><text data-name="SYMPTOMER FRA MAVEN" style="fill:#903;font-family:&quot;Roboto Slab&quot;;font-size:30px;font-weight:800;letter-spacing:3px;white-space:pre" transform="translate(-136.027 1993.994)">Smerter fra <tspan x="0" dy="1em">​</tspan>muskler og led </text></g></g><path fill="none" stroke="#353f4f" stroke-linecap="round" stroke-linejoin="round" stroke-width="3" d="M97.484 2184.51c-7.432 4.413-12.57 8.167-18.083 14.787-6.909 8.299-10.01 19.186-10.643 29.913-.633 10.726 12.577 17.72 14.224 28.337" data-name="Path 1734"/><path fill="none" stroke="#353f4f" stroke-linecap="round" stroke-linejoin="round" stroke-width="3" d="M153.737 2254.823c2.283 32.3 1.7 55.9.926 88.486 14.022-1.548 18.107-2.865 31.5-6.832" data-name="Path 418"/><path fill="none" stroke="#353f4f" stroke-linecap="round" stroke-linejoin="round" stroke-width="3" d="M111.838 2252.746c-34.085 29.6-12.061 40.307-8.516 72.517-8.478-1.808-15.514 11.544-24.713 11.763" data-name="Path 419"/><path fill="none" stroke="#353f4f" stroke-miterlimit="10" stroke-width="4.503" d="M87.74 2223.798c-.227 4.115.04 8.407 1.958 12.056 2.646 5.036 7.947 8.025 13.052 10.535 12.925 6.358 27 11.55 41.373 10.582 14.373-.967 29.016-9.435 33.5-23.123 1.964-5.993 1.885-12.436 1.785-18.743l-.835-53.294c-.356-22.655-.811-51.053-20.445-66.42-13.576-10.627-25.5-8.25-33.76 6.235-8.891 15.583-10.578 35.71-15.211 52.778-6.206 22.856-20.097 45.546-21.417 69.394Z" data-name="Path 421"/><path fill="none" stroke="#353f4f" stroke-linecap="round" stroke-linejoin="round" stroke-width="3" d="M179.605 2191.111c8.495-.325 18.077 7.693 21.974 18.379a37.821 37.821 0 0 1 1.288 21.594c-2.579 10.099-18.371 22.349-20.55 25.718" data-name="Path 423"/><path fill="none" stroke="#353f4f" stroke-linecap="round" stroke-linejoin="round" stroke-width="3" d="M152.252 2141.808a20.585 20.585 0 0 0 7.538-2.777" data-name="Path 612"/><path fill="none" stroke="#353f4f" stroke-linecap="round" stroke-linejoin="round" stroke-width="3" d="M152.76 2144.475a17.43 17.43 0 0 0 5.512.234" data-name="Path 613"/><g fill="none" stroke="#353f4f" stroke-linecap="round" stroke-linejoin="round" stroke-width="3" data-name="Group 325"><path d="M136.828 2141.808a20.554 20.554 0 0 1-7.536-2.777" data-name="Path 614"/><path d="M136.319 2144.476a17.466 17.466 0 0 1-5.511.234" data-name="Path 615"/></g><path fill="none" stroke="#353f4f" stroke-linecap="round" stroke-linejoin="round" stroke-width="3" d="M134.504 2161.298a6.224 6.224 0 0 1 4.624-2.722c1.92-.203 3.863.019 5.688.652 1.118.434 2.286.726 3.477.87a7.811 7.811 0 0 0 2.525-.322 10.373 10.373 0 0 0 4.038-2.17" data-name="Path 551"/><path fill="none" stroke="#353f4f" stroke-linecap="round" stroke-width="2.149" d="m213.68 2192.16-5.9 2.198 2.27 2.704-5.742 2.182" data-name="Path 1616"/><path fill="none" stroke="#353f4f" stroke-linecap="round" stroke-width="2.149" d="m76.12 2271.873 5.184 3.573.914-3.41 5.08 3.453" data-name="Path 1619"/><path fill="none" stroke="#353f4f" stroke-linecap="round" stroke-width="2.149" d="m206.264 2182.815-4.864 3.998 3.025 1.818-4.718 3.931" data-name="Path 1617"/><path fill="none" stroke="#353f4f" stroke-linecap="round" stroke-width="2.149" d="m72.708 2283.295 6.064 1.691-.246-3.521 5.927 1.61" data-name="Path 1618"/><path fill="none" stroke="#353f4f" stroke-linecap="round" stroke-linejoin="round" stroke-width="3" d="M883.971 1607.781a43.832 43.832 0 0 1 6.718 13.532c2.517 7.813 3.516 18.461 3.562 29.115.046 10.653-.789 21.447-1.621 32.144" data-name="Path 1614"/><path fill="none" stroke="#353f4f" stroke-linecap="round" stroke-linejoin="round" stroke-width="3" d="M759.809 1603.769a42.828 42.828 0 0 0-8.873 13.984c-3.28 7.982-4.457 18.7-4.341 29.362.115 10.66 1.425 21.404 2.729 32.051" data-name="Path 1615"/><path fill="none" stroke="#323f51" stroke-linecap="round" stroke-linejoin="round" stroke-width="3" d="M802.156 1685.425c-.227 18.22-.453 30.488-.681 48.71a96.138 96.138 0 0 1-18.711.35" data-name="Path 1167"/><path fill="none" stroke="#323f51" stroke-linecap="round" stroke-linejoin="round" stroke-width="3" d="M840.59 1687.82a439.829 439.829 0 0 0-.073 46.7 44.65 44.65 0 0 1 18.81.268" data-name="Path 1168"/><path fill="none" stroke="#323f51" stroke-miterlimit="10" stroke-width="4.5" d="M802.298 1514.576c-14.495 8.036-23.281 23.438-29.508 38.8a212.187 212.187 0 0 0-15.1 92.064c.363 6.029 1.03 12.209 3.8 17.575 3.519 6.81 10.068 11.573 16.932 14.989 13.028 6.482 27.717 8.935 42.248 9.716 12.353.664 25.04.124 36.568-4.366 11.527-4.49 21.815-13.458 25.413-25.293 2.13-7.005 1.833-14.486 1.517-21.8l-.935-21.6c-.834-19.28-1.731-38.9-8.21-57.08-6.477-18.18-19.5-35.035-37.75-41.312-5.774-1.987-31.432-4.138-34.844-1.736-.025.009-2.846 1.716-2.9 1.736" data-name="Path 1163"/><path fill="#323f51" d="M803.365 1579.785a12.773 12.773 0 0 1-3.99-.743c-.625-.217-.99-.575-.642-1.196.338-.598.89-.548 1.447-.359 4.356 1.47 8.266.35 11.856-2.611.179-.148.365-.288.54-.44.438-.378.92-.551 1.366-.194.463.375.41.836-.087 1.27a15.342 15.342 0 0 1-10.49 4.273Z" data-name="Path 574"/><path fill="#323f51" d="M832.284 1578.342a15 15 0 0 1-3.926-2.705c-.564-.537-.786-1.086-.115-1.586.643-.478 1.215-.162 1.722.306 3.968 3.657 8.7 4.325 13.958 2.867.263-.073.53-.134.788-.213.652-.196 1.252-.15 1.558.444.317.618.04 1.094-.7 1.321-4.427 1.363-8.856 1.592-13.285-.434Z" data-name="Path 573"/><path fill="#323f51" d="M822.365 1588.646c3.253-.037 5.4 2.038 5.342 5.165-.058 3.15-1.982 5.22-4.95 5.33a5.484 5.484 0 0 1-5.844-5.308c.033-3.1 2.189-5.15 5.452-5.187Z" data-name="Path 1613"/><path fill="#323f51" d="M1779.581 1798.383c1.779-.832 7.024-3.289 6.673-5.909a3.37 3.37 0 0 1 .376-.319c-.741-.076-.292-.636.094-.085a7.814 7.814 0 0 1-.392-1.658c-2.631.153-15.187-2.376-14.338.068-.62-1.016-.89-.153-1-.056.173.223.365.432.573.624-1.477.822-2.258 1.866.117 2.18 2.654.351 5.444.631 8.205.819a14.648 14.648 0 0 1-3.223 2.189l-.389.185c.476-.471.865-.962.132-.7-.26.286-.478.607-.649.954-2.484 1.261-4.259 2.761-3.685 3.921.063.874.91 1.106 1.753 1.208l-.068.032.068-.032c.022.016-.013.019-.068.032-.1.048.16.156.229.17.081-.09.1-.142.087-.175l.194.019c.615.157 1.239.274 1.869.351.617.078 2.271.346 4.134.5.059.219.129.377.214.276-.028.034-.01-.09.021-.255.556.041 1.126.069 1.693.082-.206.122-.587.216-.451.3.22-.044.424-.148.589-.3.062 0 .125.006.188.006.112.141.417.147.959-.015 2.248-.091 4.117-.609 4.117-2.114 0-1.938-4.192-2.279-8.02-2.3m-2.091-8.506a1.13 1.13 0 0 1-.123.17h-.213c-.016-.244.156-.7.336-.169m-.862.084c.044-.122.1-.166.157-.132-.01.091-.019.15-.028.213h-.13v-.079m-.363.074h-.12a3.424 3.424 0 0 1-.09-.236s-.016-.034-.044-.113c.117-.072.214.166.254.352m-3.872.537s.1-.013.189-.016a.21.21 0 0 1-.189.016" clip-path="url(#MSDyspepsi_mavekatar_svg__a)" data-name="Path 1341" transform="translate(-80.462 -266.305)"/><path fill="#323f51" d="M1805.735 1789.42c-.007-1.594-5.945-1.86-10.132-1.9.189-.189.379-.389.568-.609.134-.044.263-.101.386-.169a1.65 1.65 0 0 1-.094-.182c.028-.034.054-.063.081-.1.021.079.037.16.048.242.324-.445.683-.865 1.071-1.255a.23.23 0 0 0 .087.088c.056.025.076-.107.054-.235 2.048-2.121 5.5-5.265 4.556-6.341.053-.022.1-.037.153-.06.3.057.323-.079.28-.236.135-.025.21-.047.2-.072a3.822 3.822 0 0 0-.429-.581c.053-.455-.68-.691-.871-1.009.069.106.117.226.142.351a4.718 4.718 0 0 0-.515-.31c.308-.2-.1-.258-.344-.156a6.729 6.729 0 0 0-1.053-.339c.129-.825-.208-.269-.172-.041a25.418 25.418 0 0 0-5.532-.25 1.368 1.368 0 0 0-.157.015 2.263 2.263 0 0 1-.6-.511c-.046-.079-.037-.1-.009-.113a4.772 4.772 0 0 1-.818.3.501.501 0 0 0 0-.164c-.018-.06-.078.057-.106.192-1.36.346-3.3.417-3.121.021-.363.791-.622.489-.558 1.572-.276-2.3.034.913-.247-.529.016.088.076.363.139.675-1.379.533-2.066 1.06-.465 1.286.159.021.439.038.806.05-.028.1-.037.185.018.235.011-.078.018-.155.022-.233 1.511.047 4.5.018 7.319-.057a.304.304 0 0 0-.181.314c-.029 1.069.369-.11.429-.32l.976-.028c.069.1.144.144.22.109.076-.035.137-.084.207-.123l.827-.029a.483.483 0 0 0-.115.317c-.046.476.229-.185.229-.322l.5-.019c-.26.239-.323.363-.3.42a36.123 36.123 0 0 0-4.096 3.663.145.145 0 0 0-.069-.081c-.132-.063-.214.142-.141.294a54.998 54.998 0 0 0-4.332 4.945.6.6 0 0 0-.056.694.703.703 0 0 0-.119.369 5.474 5.474 0 0 0 2.1.837c.938.4.743.232.443.029.241.068.495.131.758.189.075 1.053 1.59.712 2.42.42.4.051.807.1 1.217.134a.336.336 0 0 0-.1.279c.032.4.313-.025.382-.254.73.062 1.465.1 2.182.113-.106.07-.2.138-.253.117.092.038.257-.04.4-.116.681.01 1.342 0 1.957-.041 2.188-.138 3.811-.6 3.807-1.486m-5.4-8.9-.075.106a.274.274 0 0 1 .075-.106m1.288-1.7a.239.239 0 0 1-.019.144Zm-1.892 2.728.085-.148c.2.151.053.2-.085.148m.5.669c-.561-1.135.806.417 0 0m.332-.37c-.711-.721-.07-.226-.032-.173.073.1.085.161.032.173m.433-.348c.05.37-1.509-.753 0 0m-10.341-4.851c-.014.153-.04.305-.079.455-.081-.155-.038-1.081.079-.455m-.238.041c.006.254.006.393 0 .46a1.276 1.276 0 0 1-.048-.313c.007-.125.023-.175.046-.147m-1.008-.21h-.082c.019-.084.138-.637.082 0m.746.153c.113-.248.2.21.22.533-.037.01-.072.022-.109.031a8.798 8.798 0 0 1-.112-.564m9.379 2.259.333-.015c-.06.04-.123.085-.186.128a.285.285 0 0 0-.147-.113m-4.905 11.55.336.057c-.277.032-.374-.015-.336-.057" clip-path="url(#MSDyspepsi_mavekatar_svg__a)" data-name="Path 1342" transform="translate(-80.462 -266.305)"/><path fill="#323f51" d="M1790.215 1790.046c.437.288.986.35 1.477.169 0 0-1.875-.78-1.477-.169" clip-path="url(#MSDyspepsi_mavekatar_svg__a)" data-name="Path 1343" transform="translate(-80.462 -266.305)"/><path fill="none" stroke="#353f4f" stroke-linecap="round" stroke-linejoin="round" stroke-width="3" d="M677.367 1026.087c4.195 16.372.948 25.313-1.02 42.1a326.929 326.929 0 0 0-.708 69.43 59.801 59.801 0 0 0-19.913-.275" data-name="Path 368"/><path fill="none" stroke="#353f4f" stroke-linecap="round" stroke-linejoin="round" stroke-width="3" d="M707.086 1025.963c.956 40.812-6.258 73.224-5.216 114.034a341.621 341.621 0 0 1 22.118-1.3" data-name="Path 369"/><path fill="none" stroke="#353f4f" stroke-linecap="round" stroke-width="2.149" d="m687.106 862.542-5.66 15.913h9.47l-5.421 15.552" data-name="Path 370"/><path fill="none" stroke="#353f4f" stroke-linecap="round" stroke-width="2.149" d="m657.588 864.951.053 16.891 8.91-3.2.154 16.464" data-name="Path 371"/><path fill="none" stroke="#353f4f" stroke-linecap="round" stroke-width="2.149" d="m719.768 866.068-11.631 12.244 8.652 3.843-11.27 12.013" data-name="Path 372"/><path fill="none" stroke="#353f4f" stroke-miterlimit="10" stroke-width="3.76" d="M641.22 972.147c3.433 13.45 10.886 25.532 19.243 36.614 6.684 8.86 14.883 17.755 25.8 19.771 9.672 1.784 19.567-2.318 27.54-8.078 19.529-14.1 30.684-39.466 26.6-63.206-4.568-26.569-32.135-52.772-60.408-50.587-29.515 2.28-45.203 40.294-38.774 65.486Z" data-name="Path 373"/><path fill="none" stroke="#353f4f" stroke-linecap="round" stroke-linejoin="round" stroke-width="1.612" d="M700.965 947.268a30.415 30.415 0 0 0 11.16-4.114" data-name="Path 374"/><path fill="none" stroke="#353f4f" stroke-linecap="round" stroke-linejoin="round" stroke-width="1.612" d="M701.719 951.22c2.685.547 5.44.664 8.162.347" data-name="Path 375"/><path fill="none" stroke="#353f4f" stroke-linecap="round" stroke-linejoin="round" stroke-width="1.612" d="M678.124 947.268a30.433 30.433 0 0 1-11.161-4.114" data-name="Path 376"/><path fill="none" stroke="#353f4f" stroke-linecap="round" stroke-linejoin="round" stroke-width="1.612" d="M677.37 951.22a25.9 25.9 0 0 1-8.163.347" data-name="Path 377"/><path fill="none" stroke="#353f4f" stroke-linecap="round" stroke-linejoin="round" stroke-width="1.612" d="M706.143 970.16s-14.528-12.134-26.667 0" data-name="Path 378"/><path fill="none" stroke="#353f4f" stroke-linecap="round" stroke-linejoin="round" stroke-width="3" d="m737.65 985.483 11.345-4.386c3.986-1.54 8.07-3.143 11.238-6.013 3.167-2.87 5.255-7.34 4.118-11.46a16.413 16.413 0 0 0-3.622-5.948 131.66 131.66 0 0 0-49.115-36.32" data-name="Path 379"/><path fill="none" stroke="#353f4f" stroke-linecap="round" stroke-linejoin="round" stroke-width="3" d="M649.21 990.298c-7.344-1.078-14.751-2.17-21.707-4.757-6.956-2.586-13.521-6.819-17.612-13.013a17.937 17.937 0 0 1-3.182-8.814 17.74 17.74 0 0 1 3.04-10.24c5.355-8.448 15.029-12.938 24.174-16.987l26.162-11.584" data-name="Path 380"/></svg>