<svg viewBox="-1639.412 -280.397 2477.208 899.06" xmlns="http://www.w3.org/2000/svg"><g data-name="Group 1348"><path fill="#fff" d="M403.32 1942.432c97.449-12.099 184.859-18.263 263.356-12.73 151.255 10.662 275.847 54.212 419.87 98.398 140.611 43.139 312.533-8.502 415.217 24.725 107.429 34.762 226.528 147.364 177.708 215.985-181.808 255.553-1.633.896-131.159 175.979-60.774 82.149-394.629-15.074-1097.578 90.883-557.204 248.507-1075.876 17.001-1174.467-117.794-27.858-38.088 42.272-199.312 34.977-261.476-39.684-338.176 431.156-131.913 1092.076-213.97Z" data-name="Path 729" transform="matrix(.97747 -.01951 .02182 1.09324 -926.631 -2324.339)"/><path fill="none" stroke="#323f51" stroke-width="5" d="M-385.912 2462.672s94.669-14.406 231.468-31.22c84.372-10.37 184.648-20.682 288.648-29.316 149.011-12.372 305.668-21.299 434.141-22.018 53.41-.299 102.161-3.376 141.649-20.734" data-name="Path 730" transform="matrix(.9731 .09432 -.1055 1.08836 -621.727 -2337.187)"/><text style="fill:#333;font-family:&quot;Roboto Slab&quot;;font-size:50.5px;white-space:pre" transform="matrix(2.06206 0 0 1.94563 -2170.934 -4617.707)"><tspan x="343.855" y="2356.99">Klik på en af ikonerne herunder,</tspan><tspan x="343.855" dy="1.5em">​</tspan><tspan>for at gå til næste side, og lære mere </tspan><tspan x="343.855" dy="1.5em">​</tspan><tspan>om </tspan><tspan style="font-weight:500">specifikke symptomer</tspan><tspan>, </tspan><tspan style="font-weight:500">patienthistorier</tspan><tspan x="343.855" dy="1.5em">​</tspan><tspan>eller </tspan><tspan style="font-weight:500">lægens tanker</tspan><tspan>.</tspan></text></g><g data-name="Group 1219"><g data-name="Group 1205"><g data-name="Group 1204"><path fill="#7ccad8" d="M479.593-223.171a136.9 136.9 0 1 1-136.9 136.9 136.9 136.9 0 0 1 136.9-136.9Z" data-name="Nuance A4 5a"/></g></g><text fill="#323f51" data-name="Group 1215" font-family="RifficFree-Bold, Riffic Free" font-size="150" font-weight="700" style="white-space:pre" transform="translate(460.914 -168.885)"><tspan x="0" y="146">i</tspan></text></g></svg>