<?xml version="1.0" encoding="utf-8"?>
<svg xmlns="http://www.w3.org/2000/svg" xmlns:bx="https://boxy-svg.com" viewBox="427.629 1512.893 710.755 507.026">
  <defs>
    <clipPath id="clip-path">
      <rect id="Rectangle_374" data-name="Rectangle 374" width="35.569" height="27.465" fill="#323f51"/>
    </clipPath>
    
  </defs>
  <g id="Group_1057" data-name="Group 1057" transform="matrix(1, 0, 0, 1, 2823.695068, 7589.619629)">
    <path id="Path_1346" data-name="Path 1346" d="M -1866.228 -9003.662 L -1839.318 -9003.662 C -1723.653 -9003.662 -1684.69 -8905.8 -1739.494 -8807.939 C -1740.645 -8805.884 -1752.576 -8717.857 -1753.788 -8715.836 C -1811.261 -8620.041 -1945.299 -8612.215 -2058.535 -8612.215 L -2085.447 -8612.215 C -2201.113 -8612.216 -2245.804 -8699.845 -2185.269 -8807.939 C -2124.734 -8916.033 -1981.894 -9003.662 -1866.228 -9003.662 Z" fill="#fff" style="" transform="matrix(0.982587, 0.185802, -0.185802, 0.982587, -1670.725382, 211.478608)"/>
    <g id="Group_907" data-name="Group 907" transform="matrix(1, 0, 0, 1, -2100.979736, -8791.902344)">
      <path id="Path_211" data-name="Path 211" d="M-4852.995,7768.923h72.7a5.3,5.3,0,0,1,5.3,5.3,5.3,5.3,0,0,1-5.3,5.3h-72.7a5.3,5.3,0,0,1-5.3-5.3A5.3,5.3,0,0,1-4852.995,7768.923Z" transform="translate(4858.297 -7751.711)" fill="#903"/>
      <path id="Path_212" data-name="Path 212" d="M-4833.6,7762.906a5.3,5.3,0,0,1,3.751,1.553l17.2,17.213a5.3,5.3,0,0,1,0,7.5l-17.2,17.215a5.3,5.3,0,0,1-7.5,0,5.3,5.3,0,0,1,0-7.493l13.459-13.472-13.459-13.466a5.3,5.3,0,0,1,0-7.5A5.288,5.288,0,0,1-4833.6,7762.906Z" transform="translate(4894.397 -7762.906)" fill="#903"/>
    </g>
    <text id="SYMPTOMER_FRA_MAVEN" data-name="SYMPTOMER&#10;FRA MAVEN" transform="translate(-2108.67 -8861.871)" style="fill: rgb(153, 0, 51); font-family: &quot;Roboto Slab&quot;; font-size: 30px; font-weight: 800; letter-spacing: 3px; white-space: pre;"><tspan>Generelt om </tspan><tspan x="0" dy="1em">​</tspan><tspan>symptomer</tspan><tspan x="0" dy="1em">​</tspan></text>
  </g>
  <g id="Group_179" data-name="Group 179" transform="matrix(1, 0, 0, 1, 1883.218872, -1358.914307)">
    <path id="Path_357" data-name="Path 357" d="M-963.4,262.108c-.225,18.025-.448,30.16-.673,48.187a95.03,95.03,0,0,1-18.51.346" transform="translate(12.097 47.694)" fill="none" stroke="#e79e17" stroke-linecap="round" stroke-linejoin="round" stroke-width="1.829" style="stroke:#353f4f;stroke-opacity:1"/>
    <path id="Path_358" data-name="Path 358" d="M-941.547,262.451a462.642,462.642,0,0,0-.073,47.628,42.863,42.863,0,0,1,18.609.272" transform="translate(27.452 47.824)" fill="none" stroke="#e79e17" stroke-linecap="round" stroke-linejoin="round" stroke-width="1.829" style="stroke:#353f4f;stroke-opacity:1"/>
    <path id="Path_359" data-name="Path 359" d="M-956.324,140.788c-14.339,7.95-23.031,23.186-29.191,38.381a209.9,209.9,0,0,0-14.937,91.076c.359,5.964,1.02,12.078,3.762,17.386,3.481,6.738,9.96,11.449,16.75,14.828,12.888,6.412,27.419,8.839,41.794,9.612,12.22.657,24.772.123,36.175-4.319s21.581-13.313,25.14-25.022c2.108-6.93,1.814-14.331,1.5-21.567q-.462-10.685-.925-21.37c-.825-19.073-1.713-38.483-8.121-56.467s-19.291-34.658-37.344-40.868c-5.747-1.978-12.752-6.646-18.749-5.657-13.025,2.145-6.84.774-15.856,3.987" transform="translate(5.162 0)" fill="none" stroke="#e79e17" stroke-miterlimit="10" stroke-width="4.269" style="stroke:#353f4f;stroke-opacity:1"/>
    <path id="Path_360" data-name="Path 360" d="M-992.129,192.036c-12.549,2.954-22.26,15.2-22.272,28.1a19.55,19.55,0,0,0,1.883,8.879c2.568,5.056,7.758,8.149,12.721,10.894a553.723,553.723,0,0,0,54.521,26.356" transform="translate(0 21.052)" fill="none" stroke="#e79e17" stroke-linecap="round" stroke-linejoin="round" stroke-width="1.829" style="stroke:#353f4f;stroke-opacity:1"/>
    <path id="Path_361" data-name="Path 361" d="M-903.756,191.7a57.486,57.486,0,0,1,22.141,24.55c2.737,5.478,4.684,12.035,2.185,17.625-1.736,3.883-5.358,6.614-9.172,8.5-14.117,6.969-31.234,4.2-46.038,9.558" transform="translate(30.326 20.926)" fill="none" stroke="#e79e17" stroke-linecap="round" stroke-linejoin="round" stroke-width="1.829" style="stroke:#353f4f;stroke-opacity:1"/>
    <path id="Path_362" data-name="Path 362" d="M-948.544,168.386c0,1.267-.026,2.533-.046,3.8a3.677,3.677,0,0,0,2.128,3.462c2.07.932,6.494.058,7.9-.3,4.194-1.059,2.241-4.727,2.241-6.966" transform="translate(25.022 12.061)" fill="none" stroke="#e79e17" stroke-linecap="round" stroke-linejoin="round" stroke-width="1.829" style="stroke:#353f4f;stroke-opacity:1"/>
    <path id="Path_363" data-name="Path 363" d="M-968.089,168.386c0,1.267-.026,2.533-.044,3.8a3.673,3.673,0,0,0,2.127,3.462c2.07.932,6.494.058,7.9-.3,4.194-1.059,2.241-4.727,2.241-6.966" transform="translate(17.591 12.061)" fill="none" stroke="#e79e17" stroke-linecap="round" stroke-linejoin="round" stroke-width="1.829" style="stroke:#353f4f;stroke-opacity:1"/>
    <path id="Path_364" data-name="Path 364" d="M-976.144,187.328" transform="translate(14.545 19.262)" fill="none" stroke="#e79e17" stroke-width="1"/>
    <path id="Path_365" data-name="Path 365" d="M-946.9,188.881c-6.745-5.318-14.24-4.1-20.377.2" transform="translate(17.915 18.512)" fill="none" stroke="#e79e17" stroke-linecap="round" stroke-linejoin="round" stroke-width="1.829" style="stroke:#353f4f;stroke-opacity:1"/>
  </g>
  <g id="g-18" data-name="Group 1057" transform="matrix(1, 0, 0, 1, 2832.315674, 8129.907227)">
    <path id="path-33" data-name="Path 1346" d="M -1975.842 -9003.664 L -1948.932 -9003.664 C -1833.267 -9003.664 -1739.499 -8905.802 -1739.499 -8807.941 C -1739.499 -8805.886 -1702.133 -8717.859 -1702.213 -8715.838 C -1706.039 -8620.043 -1835.694 -8612.217 -1948.93 -8612.217 L -1975.842 -8612.217 C -2091.508 -8612.218 -2185.274 -8699.847 -2185.274 -8807.941 C -2185.274 -8916.035 -2091.508 -9003.664 -1975.842 -9003.664 Z" fill="#fff" transform="matrix(0.982587, 0.185802, -0.185802, 0.982587, -1670.375752, 207.780461)"/>
    <g>
      <g id="g-19" data-name="Group 907" transform="matrix(1, 0, 0, 1, -2097.446045, -8823.834961)">
        <path id="path-34" data-name="Path 211" d="M-4852.995,7768.923h72.7a5.3,5.3,0,0,1,5.3,5.3,5.3,5.3,0,0,1-5.3,5.3h-72.7a5.3,5.3,0,0,1-5.3-5.3A5.3,5.3,0,0,1-4852.995,7768.923Z" transform="translate(4858.297 -7751.711)" fill="#903"/>
        <path id="path-35" data-name="Path 212" d="M-4833.6,7762.906a5.3,5.3,0,0,1,3.751,1.553l17.2,17.213a5.3,5.3,0,0,1,0,7.5l-17.2,17.215a5.3,5.3,0,0,1-7.5,0,5.3,5.3,0,0,1,0-7.493l13.459-13.472-13.459-13.466a5.3,5.3,0,0,1,0-7.5A5.288,5.288,0,0,1-4833.6,7762.906Z" transform="translate(4894.397 -7762.906)" fill="#903"/>
      </g>
      <text id="text-2" data-name="SYMPTOMER&#10;FRA MAVEN" transform="matrix(1, 0, 0, 1, -2108.669922, -8861.871094)" style="fill: rgb(153, 0, 51); font-family: &quot;Roboto Slab&quot;; font-size: 30px; font-weight: 800; letter-spacing: 3px; white-space: pre;"><tspan>Svimmelhed</tspan><tspan x="0" dy="1em">​</tspan></text>
    </g>
  </g>
  <g id="Group_1191" data-name="Group 1191" transform="matrix(1, 0, 0, 1, 716.574402, 8634.179688)">
    <path id="Path_1606" data-name="Path 1606" d="M27.3,0c13.34,5.781,15.28,17.656,22.316,27.4,3.6,4.989,6.163,10.96,2.873,16.052-2.285,3.535-7.049,6.021-12.066,7.736C21.852,57.535,19.479,50.83,0,55.709" transform="translate(275.162 -9239.734) rotate(179)" fill="none" stroke="#353f4f" stroke-linecap="round" stroke-linejoin="round" stroke-width="3"/>
    <path id="Path_1609" data-name="Path 1609" d="M0,0" transform="matrix(0.996, -0.087, 0.087, 0.996, 287.217, -9238.794)" fill="none" stroke="#353f4f" stroke-miterlimit="10" stroke-width="5.492"/>
    <path id="Path_1607" data-name="Path 1607" d="M.06,119.063c-.2,3.631.036,7.416,1.727,10.635,2.335,4.442,7.01,7.076,11.512,9.292,11.4,5.608,23.819,10.187,36.494,9.333S75.388,140,79.343,127.929c1.733-5.288,1.663-10.97,1.575-16.533l-.736-47.009C79.868,44.4,79.467,19.356,62.147,5.8,50.173-3.573,39.658-1.476,32.37,11.3,24.527,25.047,23.04,42.8,18.952,57.854,13.478,78.014,1.223,98.028.06,119.063Z" transform="matrix(0.996, -0.087, 0.087, 0.996, 230.544, -9319.974)" fill="none" stroke="#353f4f" stroke-width="4.5"/>
    <g id="Group_1066" data-name="Group 1066" transform="matrix(0.996, -0.087, 0.087, 0.996, 269.955, -9281.135)">
      <path id="Path_547" data-name="Path 547" d="M8.919,0A15.071,15.071,0,0,0,0,5.375" transform="translate(0 1.584)" fill="none" stroke="#353f4f" stroke-linecap="round" stroke-linejoin="round" stroke-width="3"/>
      <path id="Path_548" data-name="Path 548" d="M0,0A19.7,19.7,0,0,1,8.06,8.944" transform="translate(0.124)" fill="none" stroke="#353f4f" stroke-linecap="round" stroke-linejoin="round" stroke-width="3"/>
    </g>
    <g id="Group_1067" data-name="Group 1067" transform="matrix(0.996, -0.087, 0.087, 0.996, 292.447, -9280.16)">
      <path id="Path_549" data-name="Path 549" d="M8.919,0A15.071,15.071,0,0,0,0,5.375" transform="translate(0 1.584)" fill="none" stroke="#353f4f" stroke-linecap="round" stroke-linejoin="round" stroke-width="3"/>
      <path id="Path_550" data-name="Path 550" d="M0,0A19.7,19.7,0,0,1,8.06,8.942" transform="translate(0.124)" fill="none" stroke="#353f4f" stroke-linecap="round" stroke-linejoin="round" stroke-width="3"/>
    </g>
    <ellipse id="Ellipse_131" data-name="Ellipse 131" cx="17.334" cy="68.502" rx="17.334" ry="68.502" transform="translate(217.391 -9318.428) rotate(-77.98)" fill="none" stroke="#353f4f" stroke-miterlimit="10" stroke-width="2"/>
    <ellipse id="Ellipse_132" data-name="Ellipse 132" cx="68.502" cy="17.334" rx="68.502" ry="17.334" transform="matrix(0.996, -0.092, 0.092, 0.996, 218.198, -9332.1)" fill="none" stroke="#353f4f" stroke-miterlimit="10" stroke-width="2"/>
    <path id="Path_1610" data-name="Path 1610" d="M0,4.063A8.484,8.484,0,0,1,6.972.02a16.1,16.1,0,0,1,8.073,2A18.219,18.219,0,0,0,19.923,4.07a9.281,9.281,0,0,0,3.659-.179A13.728,13.728,0,0,0,29.648.725" transform="matrix(0.996, -0.087, 0.087, 0.996, 268.075, -9254.518)" fill="none" stroke="#353f4f" stroke-linecap="round" stroke-linejoin="round" stroke-width="3"/>
    <path id="Path_1611" data-name="Path 1611" d="M0,0C1.458,35.749,1.084,61.869.592,97.93c8.955-1.713,11.565-3.171,20.115-7.561" transform="translate(298.342 -9177.961) rotate(1)" fill="none" stroke="#353f4f" stroke-linecap="round" stroke-linejoin="round" stroke-width="3"/>
    <path id="Path_1608" data-name="Path 1608" d="M21.223,0c-4.765,36.613-6.4,60.818-4.139,96.779A43.651,43.651,0,0,0,0,94.1" transform="translate(243.377 -9180.246) rotate(1)" fill="none" stroke="#353f4f" stroke-linecap="round" stroke-linejoin="round" stroke-width="3"/>
    <path id="Path_1612" data-name="Path 1612" d="M0,0C7.536,3.751,12.806,7.045,18.678,13.161c7.36,7.668,11.266,18.246,12.781,28.879s.823,21.452.13,32.174" transform="matrix(0.996, -0.087, 0.087, 0.996, 318.312, -9241.57)" fill="none" stroke="#353f4f" stroke-linecap="round" stroke-linejoin="round" stroke-width="3"/>
  </g>
  <g id="g-20" data-name="Group 1057" transform="matrix(1, 0, 0, 1, 2832.321289, 8634.1875)">
    <path id="path-36" data-name="Path 1346" d="M -1975.842 -9003.664 L -1948.932 -9003.664 C -1765.215 -9042.439 -1656.493 -8826.362 -1702.213 -8715.838 C -1772.056 -8547.001 -1835.694 -8612.217 -1948.93 -8612.217 L -1975.842 -8612.217 C -2045.542 -8613.897 -2098.34 -8618.7 -2128.755 -8644.16 C -2419.024 -8887.135 -2098.158 -9041.266 -1975.842 -9003.664 Z" fill="#fff" transform="matrix(0.982587, 0.185802, -0.185802, 0.982587, -1670.375752, 207.780461)"/>
    <g id="g-21" data-name="Group 907" transform="matrix(1, 0, 0, 1, -2100.979736, -8791.902344)">
      <path id="path-37" data-name="Path 211" d="M-4852.995,7768.923h72.7a5.3,5.3,0,0,1,5.3,5.3,5.3,5.3,0,0,1-5.3,5.3h-72.7a5.3,5.3,0,0,1-5.3-5.3A5.3,5.3,0,0,1-4852.995,7768.923Z" transform="translate(4858.297 -7751.711)" fill="#903"/>
      <path id="path-38" data-name="Path 212" d="M-4833.6,7762.906a5.3,5.3,0,0,1,3.751,1.553l17.2,17.213a5.3,5.3,0,0,1,0,7.5l-17.2,17.215a5.3,5.3,0,0,1-7.5,0,5.3,5.3,0,0,1,0-7.493l13.459-13.472-13.459-13.466a5.3,5.3,0,0,1,0-7.5A5.288,5.288,0,0,1-4833.6,7762.906Z" transform="translate(4894.397 -7762.906)" fill="#903"/>
    </g>
    <g>
      <text id="text-3" data-name="SYMPTOMER&#10;FRA MAVEN" transform="matrix(1, 0, 0, 1, -2108.669922, -8861.871094)" style="fill: rgb(153, 0, 51); font-family: &quot;Roboto Slab&quot;; font-size: 30px; font-weight: 800; letter-spacing: 3px; white-space: pre;"><tspan>Mavesmerter </tspan><tspan x="0" dy="1em">​</tspan><tspan>og urolig mave</tspan><tspan x="0" dy="1em">​</tspan></text>
    </g>
  </g>
  <g transform="matrix(1, 0, 0, 1, 40.842758, -58.736862)">
    <g id="Group_1071" data-name="Group 1071" transform="matrix(1, 0, 0, 1, -1030.752197, 9172.555664)">
      <path id="path-24" data-name="Path 418" d="M 2059.33 -9152.874 C 2061.613 -9120.574 2061.03 -9096.974 2060.256 -9064.388 C 2074.278 -9065.936 2078.363 -9067.253 2091.756 -9071.22" fill="none" stroke="#353f4f" stroke-linecap="round" stroke-linejoin="round" stroke-width="3"/>
      <path id="path-25" data-name="Path 419" d="M 1987.387 -9156.56 C 1979.927 -9123.766 1977.361 -9102.086 1980.906 -9069.876 C 1972.113 -9071.711 1963.136 -9072.516 1954.157 -9072.276" fill="none" stroke="#353f4f" stroke-linecap="round" stroke-linejoin="round" stroke-width="3"/>
      <path id="path-26" data-name="Path 421" d="M 53.611 371.919 C 45.787 389.064 64.006 408.985 90.188 420.426 C 127.221 436.609 174.925 401.43 155.337 363.813 L 144.444 309.932 C 144.088 287.277 147.904 236.424 123.999 243.511 C 110.423 247.536 98.499 235.829 90.239 249.747 C 81.082 265.175 79.661 285.456 75.028 302.525 C 68.822 325.381 63.527 350.19 53.611 371.919 Z" transform="translate(1917.95 -9568.192)" fill="none" stroke="#353f4f" stroke-miterlimit="10" stroke-width="4.503"/>
      <path id="Path_422" data-name="Path 422" d="M 1994.51 -9197.365 C 2002.953 -9202.339 2009.747 -9209.687 2014.045 -9218.494 C 2016.459 -9223.209 2018.177 -9228.852 2015.972 -9233.664 C 2014.44 -9237.005 2011.246 -9239.354 2007.882 -9240.975 C 1995.426 -9246.972 1993.835 -9240.636 1980.774 -9245.246" fill="none" stroke="#353f4f" stroke-linecap="round" stroke-linejoin="round" stroke-width="3" transform="matrix(-0.766044, 0.642788, -0.642788, -0.766044, -2397.226678, -17570.092203)"/>
      <path id="path-27" data-name="Path 423" d="M 2042.864 -9227.273 C 2050.963 -9224.672 2057.228 -9213.853 2057.235 -9202.473 C 2057.292 -9199.809 2056.881 -9197.156 2056.021 -9194.634 C 2054.364 -9190.17 2047.432 -9182.818 2044.229 -9180.396" fill="none" stroke="#353f4f" stroke-linecap="round" stroke-linejoin="round" stroke-width="3" transform="matrix(0.325806, 0.945437, -0.945437, 0.325806, -7319.510115, -8143.365655)"/>
      <path id="path-28" data-name="Path 612" d="M56.569,54.627a20.57,20.57,0,0,0,7.538-2.777" transform="translate(1979.504 -9332.891)" fill="none" stroke="#353f4f" stroke-linecap="round" stroke-linejoin="round" stroke-width="3"/>
      <path id="path-29" data-name="Path 613" d="M56.932,55.73a17.468,17.468,0,0,0,5.511.234" transform="translate(1979.65 -9331.326)" fill="none" stroke="#353f4f" stroke-linecap="round" stroke-linejoin="round" stroke-width="3"/>
      <g id="g-17" data-name="Group 325" transform="translate(2013.113 -9281.041)">
        <path id="path-30" data-name="Path 614" d="M47.745,54.627a20.554,20.554,0,0,1-7.536-2.777" transform="translate(-40.209 -51.85)" fill="none" stroke="#353f4f" stroke-linecap="round" stroke-linejoin="round" stroke-width="3"/>
        <path id="path-31" data-name="Path 615" d="M46.8,55.73a17.466,17.466,0,0,1-5.511.234" transform="translate(-39.773 -50.285)" fill="none" stroke="#353f4f" stroke-linecap="round" stroke-linejoin="round" stroke-width="3"/>
      </g>
      <path id="path-32" data-name="Path 551" d="M0,2.321A6.224,6.224,0,0,1,4.845.011a13.161,13.161,0,0,1,5.61,1.144,14.273,14.273,0,0,0,3.39,1.17,7.81,7.81,0,0,0,2.543-.1A10.378,10.378,0,0,0,20.6.414" transform="matrix(0.996, -0.087, 0.087, 0.996, 2018.123, -9261.088)" fill="none" stroke="#353f4f" stroke-linecap="round" stroke-linejoin="round" stroke-width="3"/>
    </g>
  </g>
  <g id="g-1" data-name="Group 1057" transform="matrix(1, 0, 0, 1, 2786.544189, 9283.066406)">
    <path id="path-1" data-name="Path 1346" d="M -1911.492 -8997.601 L -1883.027 -8997.601 C -1676.052 -9034.258 -1631.49 -8829.986 -1715.884 -8725.5 C -1844.805 -8565.887 -1890.86 -8627.54 -2010.639 -8627.54 L -2039.107 -8627.54 C -2112.287 -8629.128 -2166.57 -8633.669 -2190.443 -8657.738 C -2418.275 -8887.439 -2028.618 -9033.149 -1911.492 -8997.601 Z" fill="#fff" style="" transform="matrix(0.999459, -0.032879, 0.032879, 0.999459, 288.579921, -69.472087)"/>
    <g id="g-2" data-name="Group 907" transform="matrix(1, 0, 0, 1, -2100.979736, -8791.902344)">
      <path id="path-2" data-name="Path 211" d="M-4852.995,7768.923h72.7a5.3,5.3,0,0,1,5.3,5.3,5.3,5.3,0,0,1-5.3,5.3h-72.7a5.3,5.3,0,0,1-5.3-5.3A5.3,5.3,0,0,1-4852.995,7768.923Z" transform="translate(4858.297 -7751.711)" fill="#903"/>
      <path id="path-3" data-name="Path 212" d="M-4833.6,7762.906a5.3,5.3,0,0,1,3.751,1.553l17.2,17.213a5.3,5.3,0,0,1,0,7.5l-17.2,17.215a5.3,5.3,0,0,1-7.5,0,5.3,5.3,0,0,1,0-7.493l13.459-13.472-13.459-13.466a5.3,5.3,0,0,1,0-7.5A5.288,5.288,0,0,1-4833.6,7762.906Z" transform="translate(4894.397 -7762.906)" fill="#903"/>
    </g>
    <text id="text-1" data-name="SYMPTOMER&#10;FRA MAVEN" style="fill: rgb(153, 0, 51); font-family: &quot;Roboto Slab&quot;; font-size: 30px; font-weight: 800; letter-spacing: 3px; white-space: pre;" x="-2122.05" y="-8830.818">Dyspepsi/mavekatar</text>
  </g>
  <g id="g-10" data-name="Group 906" transform="matrix(1, 0, 0, 1, -373.983276, 167.48497)">
    <g id="g-11" data-name="Group 316" transform="translate(1249.642 346.891)">
      <g id="g-12" data-name="Group 895" transform="translate(0)">
        <g id="g-13" data-name="Group 894">
          <path id="path-14" data-name="Path 578" d="M45.688,52.205C30.919,34.178,22.4,21.526,13.613.457A62.451,62.451,0,0,1,.333,10.218" transform="matrix(-0.839, -0.545, 0.545, -0.839, 93.266, 253.205)" fill="none" stroke="#141928" stroke-linecap="round" stroke-linejoin="round" stroke-width="3"/>
          <path id="path-15" data-name="Path 579" d="M-2.165,70.239C8.879,45.929,17.616,31.259,35.053,13.819A105.386,105.386,0,0,1,17.7-.566" transform="translate(85.974 242.874) rotate(150)" fill="none" stroke="#141928" stroke-linecap="round" stroke-linejoin="round" stroke-width="3"/>
          <path id="path-16" data-name="Path 580" d="M762.419-260.176c-15.234,5.184-26.481,19.024-35.3,33.347a230.208,230.208,0,0,0-31.874,90.422c-.809,6.2-1.362,12.617.233,18.639,2.021,7.641,7.3,13.828,13.133,18.707,11.07,9.264,24.478,14.776,38.058,18.559a77.71,77.71,0,0,0,35.251,1.521c11.75-2.191,21.326-6.594,26.991-17.878,3.353-6.678-9.849-35.556-5.045-46.17,11.1-24.81,21.695-38.705,19.052-58.508s-11.726-39.6-27.769-49.728c-5.107-3.227-10.893-9.475-16.813-9.708-12.854-.507-6.681-.628-15.914.8" transform="translate(-694.453 261.322)" fill="none" stroke="#243040" stroke-miterlimit="10" stroke-width="4"/>
          <path id="path-17" data-name="Path 584" d="M1.378,43C13.172,26.98,14.795,15.31,28.233,6.331,32.765,3.3,46.357.781,50.924,1.856c2.9.681,10.292,5.721,11.68,8.009,6.11,10.071,9.523,12.829,9.284,25.54" transform="translate(66.639 161.296) rotate(-148)" fill="none" stroke="#141928" stroke-linecap="round" stroke-linejoin="round" stroke-width="3"/>
          <path id="path-18" data-name="Path 1339" d="M47.012-1.6c-6.571,8.06-7.78,13.7-14.968,18.444-2.424,1.6-20.285,6.972-22.594,6.61-1.467-.229-5.1-2.4-5.737-3.444-.059-.1-.118-.192-.33-.536C.834,15.339-.749,14.057-.227,8.094" transform="matrix(0.829, -0.559, 0.559, 0.829, 81.425, 127.091)" fill="none" stroke="#243040" stroke-linecap="round" stroke-linejoin="round" stroke-width="3"/>
        </g>
      </g>
    </g>
    <g id="g-14" data-name="Group 319" transform="translate(1328.009 393.812)">
      <g id="g-15" data-name="Group 317" transform="translate(26.88 0)">
        <path id="path-19" data-name="Path 585" d="M56.569,55.346a23.053,23.053,0,0,0,8.825-3.5" transform="translate(-56.569 -51.85)" fill="none" stroke="#243040" stroke-linecap="round" stroke-linejoin="round" stroke-width="3"/>
        <path id="path-20" data-name="Path 586" d="M56.932,55.73a19.048,19.048,0,0,0,6.452.3" transform="translate(-56.336 -48.876)" fill="none" stroke="#243040" stroke-linecap="round" stroke-linejoin="round" stroke-width="3"/>
      </g>
      <g id="g-16" data-name="Group 318" transform="translate(0 0)">
        <path id="path-21" data-name="Path 587" d="M49.032,55.346a23.035,23.035,0,0,1-8.823-3.5" transform="translate(-40.209 -51.85)" fill="none" stroke="#243040" stroke-linecap="round" stroke-linejoin="round" stroke-width="3"/>
        <path id="path-22" data-name="Path 588" d="M47.741,55.73a19.046,19.046,0,0,1-6.452.3" transform="translate(-39.514 -48.876)" fill="none" stroke="#243040" stroke-linecap="round" stroke-linejoin="round" stroke-width="3"/>
      </g>
      <path id="path-23" data-name="Path 589" d="M65.629,65.461s-12.666-4.5-23.248,0" transform="translate(-38.812 -37.164)" fill="none" stroke="#243040" stroke-linecap="round" stroke-linejoin="round" stroke-width="3"/>
    </g>
  </g>
  <g id="g-3" data-name="Group 1057" transform="matrix(1, 0, 0, 1, 2619.180176, 9899.573242)">
    <path id="path-4" data-name="Path 1346" d="M -1974.611 -8938.02 L -1947.701 -8938.02 C -1763.984 -8976.795 -1655.262 -8760.718 -1700.982 -8650.194 C -1770.825 -8481.357 -1834.463 -8546.573 -1947.699 -8546.573 L -1974.611 -8546.573 C -2044.311 -8548.253 -2097.109 -8553.056 -2127.524 -8578.516 C -2417.793 -8821.491 -2096.927 -8975.622 -1974.611 -8938.02 Z" fill="#fff" transform="matrix(0.982587, 0.185802, -0.185802, 0.982587, -1657.978907, 213.508304)"/>
    <g id="g-4" data-name="Group 907" transform="matrix(1, 0, 0, 1, -2118.680176, -8817.655273)">
      <path id="path-5" data-name="Path 211" d="M-4852.995,7768.923h72.7a5.3,5.3,0,0,1,5.3,5.3,5.3,5.3,0,0,1-5.3,5.3h-72.7a5.3,5.3,0,0,1-5.3-5.3A5.3,5.3,0,0,1-4852.995,7768.923Z" transform="translate(4858.297 -7751.711)" fill="#903"/>
      <path id="path-6" data-name="Path 212" d="M-4833.6,7762.906a5.3,5.3,0,0,1,3.751,1.553l17.2,17.213a5.3,5.3,0,0,1,0,7.5l-17.2,17.215a5.3,5.3,0,0,1-7.5,0,5.3,5.3,0,0,1,0-7.493l13.459-13.472-13.459-13.466a5.3,5.3,0,0,1,0-7.5A5.288,5.288,0,0,1-4833.6,7762.906Z" transform="translate(4894.397 -7762.906)" fill="#903"/>
    </g>
    <text id="text-4" data-name="SYMPTOMER&#10;FRA MAVEN" style="fill: rgb(153, 0, 51); font-family: &quot;Roboto Slab&quot;; font-size: 30px; font-weight: 800; letter-spacing: 3px; white-space: pre;" x="-2120.019" y="-8846.908">Hovedpine</text>
    <g transform="matrix(1, 0, 0, 1, -2782.03125, -7241.794434)">
      <g id="g-5" data-name="Group 1057" transform="matrix(1, 0, 0, 1, 2908.098877, 7889.347656)">
        <path id="path-7" data-name="Path 1346" d="M -1975.842 -9003.664 L -1948.932 -9003.664 C -1765.215 -9042.439 -1656.493 -8826.362 -1702.213 -8715.838 C -1772.056 -8547.001 -1835.694 -8612.217 -1948.93 -8612.217 L -1975.842 -8612.217 C -2045.542 -8613.897 -2098.34 -8618.7 -2128.755 -8644.16 C -2419.024 -8887.135 -2098.158 -9041.266 -1975.842 -9003.664 Z" fill="#fff" transform="matrix(0.982587, 0.185802, -0.185802, 0.982587, -1670.375752, 207.780461)"/>
        <g id="g-6" data-name="Group 907" transform="matrix(1, 0, 0, 1, -2100.979736, -8823.505859)">
          <path id="path-8" data-name="Path 211" d="M-4852.995,7768.923h72.7a5.3,5.3,0,0,1,5.3,5.3,5.3,5.3,0,0,1-5.3,5.3h-72.7a5.3,5.3,0,0,1-5.3-5.3A5.3,5.3,0,0,1-4852.995,7768.923Z" transform="translate(4858.297 -7751.711)" fill="#903"/>
          <path id="path-9" data-name="Path 212" d="M-4833.6,7762.906a5.3,5.3,0,0,1,3.751,1.553l17.2,17.213a5.3,5.3,0,0,1,0,7.5l-17.2,17.215a5.3,5.3,0,0,1-7.5,0,5.3,5.3,0,0,1,0-7.493l13.459-13.472-13.459-13.466a5.3,5.3,0,0,1,0-7.5A5.288,5.288,0,0,1-4833.6,7762.906Z" transform="translate(4894.397 -7762.906)" fill="#903"/>
        </g>
        <text id="text-5" data-name="SYMPTOMER&#10;FRA MAVEN" transform="translate(-2108.67 -8861.871)" style="fill: rgb(153, 0, 51); font-family: &quot;Roboto Slab&quot;; font-size: 30px; font-weight: 800; letter-spacing: 3px; white-space: pre;">Træthed</text>
      </g>
    </g>
    <g id="g-7" data-name="Group 1057" transform="matrix(1, 0, 0, 1, -566.074829, 1222.596924)">
      <path id="path-10" data-name="Path 1346" d="M -1975.842 -9003.664 L -1948.932 -9003.664 C -1765.215 -9042.439 -1656.493 -8826.362 -1702.213 -8715.838 C -1772.056 -8547.001 -1835.694 -8612.217 -1948.93 -8612.217 L -1975.842 -8612.217 C -2045.542 -8613.897 -2098.34 -8618.7 -2128.755 -8644.16 C -2419.024 -8887.135 -2098.158 -9041.266 -1975.842 -9003.664 Z" fill="#fff" transform="matrix(0.982587, 0.185802, -0.185802, 0.982587, -1670.375752, 207.780461)"/>
      <g>
        <g id="g-8" data-name="Group 907" transform="matrix(1, 0, 0, 1, -2100.979736, -8791.902344)">
          <path id="path-11" data-name="Path 211" d="M-4852.995,7768.923h72.7a5.3,5.3,0,0,1,5.3,5.3,5.3,5.3,0,0,1-5.3,5.3h-72.7a5.3,5.3,0,0,1-5.3-5.3A5.3,5.3,0,0,1-4852.995,7768.923Z" transform="translate(4858.297 -7751.711)" fill="#903"/>
          <path id="path-12" data-name="Path 212" d="M-4833.6,7762.906a5.3,5.3,0,0,1,3.751,1.553l17.2,17.213a5.3,5.3,0,0,1,0,7.5l-17.2,17.215a5.3,5.3,0,0,1-7.5,0,5.3,5.3,0,0,1,0-7.493l13.459-13.472-13.459-13.466a5.3,5.3,0,0,1,0-7.5A5.288,5.288,0,0,1-4833.6,7762.906Z" transform="translate(4894.397 -7762.906)" fill="#903"/>
        </g>
        <text id="text-6" data-name="SYMPTOMER&#10;FRA MAVEN" transform="matrix(1, 0, 0, 1, -2108.669922, -8861.871094)" style="fill: rgb(153, 0, 51); font-family: &quot;Roboto Slab&quot;; font-size: 30px; font-weight: 800; letter-spacing: 3px; white-space: pre;">Smerter fra <tspan x="0" dy="1em">​</tspan>muskler og led </text>
      </g>
    </g>
  </g>
  <path id="Path_1734" data-name="Path 1734" d="M 181.119 2452.098 C 173.331 2455.848 167.886 2459.141 161.818 2465.256 C 154.213 2472.922 150.176 2483.498 148.612 2494.129 C 147.048 2504.76 159.6 2512.876 160.316 2523.597" fill="none" stroke="#353f4f" stroke-linecap="round" stroke-linejoin="round" stroke-width="3" transform="matrix(0.996207, -0.087018, 0.087018, 0.996207, -215.862373, 23.777455)"/>
  <path id="Path_418" data-name="Path 418" d="M 234.199 2521.128 C 236.482 2553.428 235.899 2577.028 235.125 2609.614 C 249.147 2608.066 253.232 2606.749 266.625 2602.782" fill="none" stroke="#353f4f" stroke-linecap="round" stroke-linejoin="round" stroke-width="3"/>
  <path id="Path_419" data-name="Path 419" d="M 192.3 2519.051 C 158.215 2548.651 180.239 2559.358 183.784 2591.568 C 175.306 2589.76 168.27 2603.112 159.071 2603.331" fill="none" stroke="#353f4f" stroke-linecap="round" stroke-linejoin="round" stroke-width="3"/>
  <path id="Path_421" data-name="Path 421" d="M 168.202 2490.103 C 167.975 2494.218 168.242 2498.51 170.16 2502.159 C 172.806 2507.195 178.107 2510.184 183.212 2512.694 C 196.137 2519.052 210.212 2524.243 224.585 2523.276 C 238.958 2522.309 253.601 2513.841 258.085 2500.153 C 260.049 2494.16 259.97 2487.717 259.87 2481.41 L 259.035 2428.116 C 258.679 2405.461 258.224 2377.063 238.59 2361.695 C 225.014 2351.069 213.09 2353.446 204.83 2367.931 C 195.939 2383.514 194.252 2403.64 189.619 2420.709 C 183.413 2443.565 169.522 2466.255 168.202 2490.103 Z" fill="none" stroke="#353f4f" stroke-miterlimit="10" stroke-width="4.503"/>
  <path id="Path_423" data-name="Path 423" d="M 270.949 2456.476 C 279.043 2459.076 285.305 2469.888 285.312 2481.262 C 285.316 2488.626 283.17 2495.832 279.137 2501.994 C 273.26 2510.602 254.23 2516.712 251.03 2519.133" fill="none" stroke="#353f4f" stroke-linecap="round" stroke-linejoin="round" stroke-width="3" transform="matrix(0.939693, -0.34202, 0.34202, 0.939693, -834.705929, 241.752537)"/>
  <path id="Path_612" data-name="Path 612" d="M 232.714 2408.113 C 235.385 2407.691 237.946 2406.748 240.252 2405.336" fill="none" stroke="#353f4f" stroke-linecap="round" stroke-linejoin="round" stroke-width="3"/>
  <path id="Path_613" data-name="Path 613" d="M 233.223 2410.78 C 235.036 2411.15 236.896 2411.229 238.734 2411.014" fill="none" stroke="#353f4f" stroke-linecap="round" stroke-linejoin="round" stroke-width="3"/>
  <g id="Group_325" data-name="Group 325" transform="matrix(1, 0, 0, 1, 209.754242, 2405.335205)">
    <path id="Path_614" data-name="Path 614" d="M47.745,54.627a20.554,20.554,0,0,1-7.536-2.777" transform="translate(-40.209 -51.85)" fill="none" stroke="#353f4f" stroke-linecap="round" stroke-linejoin="round" stroke-width="3"/>
    <path id="Path_615" data-name="Path 615" d="M46.8,55.73a17.466,17.466,0,0,1-5.511.234" transform="translate(-39.773 -50.285)" fill="none" stroke="#353f4f" stroke-linecap="round" stroke-linejoin="round" stroke-width="3"/>
  </g>
  <path id="Path_551" data-name="Path 551" d="M 214.829 2426.71 C 216.012 2425.248 217.793 2424.399 219.673 2424.401 C 221.604 2424.366 223.519 2424.756 225.282 2425.545 C 226.358 2426.075 227.497 2426.468 228.671 2426.714 C 229.519 2426.82 230.378 2426.786 231.214 2426.614 C 232.735 2426.332 234.174 2425.714 235.425 2424.804" fill="none" stroke="#353f4f" stroke-linecap="round" stroke-linejoin="round" stroke-width="3" transform="matrix(0.996207, -0.087018, 0.087018, 0.996207, -210.215714, 28.790981)"/>
  <path id="Path_1616" data-name="Path 1616" d="M 289.772 2456.106 L 287.662 2462.039 L 291.192 2462.039 L 289.172 2467.839" fill="none" stroke="#353f4f" stroke-linecap="round" stroke-width="2.149" transform="matrix(0.642934, 0.765921, -0.765921, 0.642934, 1989.021888, 657.407792)"/>
  <path id="Path_1619" data-name="Path 1619" d="M 162.504 2534.163 L 160.394 2540.095 L 163.924 2540.095 L 161.904 2545.895" fill="none" stroke="#353f4f" stroke-linecap="round" stroke-width="2.149" transform="matrix(0.258819, -0.965926, 0.965926, 0.258819, -2333.290554, 2039.254981)"/>
  <path id="Path_1617" data-name="Path 1617" d="M 283.754 2448.105 L 281.644 2454.037 L 285.174 2454.037 L 283.154 2459.837" fill="none" stroke="#353f4f" stroke-linecap="round" stroke-width="2.149" transform="matrix(0.857167, 0.515038, -0.515038, 0.857167, 1304.368402, 204.540797)"/>
  <path id="Path_1618" data-name="Path 1618" d="M 159.391 2543.669 L 157.281 2549.601 L 160.811 2549.601 L 158.791 2555.401" fill="none" stroke="#353f4f" stroke-linecap="round" stroke-width="2.149" transform="matrix(-0.069756, -0.997564, 0.997564, -0.069756, -2373.18404, 2886.038846)"/>
  <g transform="matrix(1, 0, 0, 1, -824.202881, -25.763699)">
    <path id="Path_1614" data-name="Path 1614" d="M 1786.698 1900.133 C 1789.912 1904.059 1792.42 1908.514 1794.11 1913.298 C 1797.03 1920.969 1798.581 1931.551 1799.181 1942.188 C 1799.781 1952.824 1799.508 1963.647 1799.233 1974.373" fill="none" stroke="#353f4f" stroke-linecap="round" stroke-linejoin="round" stroke-width="3" transform="matrix(0.998648, 0.051982, -0.051982, 0.998648, 103.126572, -90.590814)"/>
    <path id="Path_1615" data-name="Path 1615" d="M 1667.735 1896.454 C 1663.559 1900.144 1660.143 1904.614 1657.679 1909.613 C 1653.717 1917.279 1651.612 1927.855 1650.799 1938.486 C 1649.986 1949.116 1650.356 1959.933 1650.729 1970.653" fill="none" stroke="#353f4f" stroke-linecap="round" stroke-linejoin="round" stroke-width="3" transform="matrix(0.996207, -0.087018, 0.087018, 0.996207, -161.960839, 151.699387)"/>
    <path id="Path_1167" data-name="Path 1167" d="M 1706.821 1977.493 C 1706.594 1995.714 1706.368 2007.981 1706.14 2026.203 C 1699.929 2026.928 1693.662 2027.045 1687.429 2026.553" fill="none" stroke="#323f51" stroke-linecap="round" stroke-linejoin="round" stroke-width="3"/>
    <path id="Path_1168" data-name="Path 1168" d="M 1745.256 1979.889 C 1744.404 1995.443 1744.38 2011.032 1745.182 2026.589 C 1751.4 2025.341 1757.812 2025.432 1763.993 2026.856" fill="none" stroke="#323f51" stroke-linecap="round" stroke-linejoin="round" stroke-width="3"/>
    <path id="Path_1163" data-name="Path 1163" d="M 1706.963 1806.644 C 1692.468 1814.68 1683.682 1830.082 1677.455 1845.444 C 1665.654 1874.632 1660.496 1906.08 1662.355 1937.508 C 1662.718 1943.537 1663.386 1949.717 1666.155 1955.083 C 1669.674 1961.894 1676.223 1966.656 1683.087 1970.072 C 1696.115 1976.554 1710.804 1979.007 1725.335 1979.788 C 1737.688 1980.452 1750.376 1979.912 1761.903 1975.422 C 1773.43 1970.932 1783.718 1961.964 1787.316 1950.129 C 1789.446 1943.124 1789.149 1935.643 1788.833 1928.329 C 1788.521 1921.129 1788.21 1913.929 1787.898 1906.729 C 1787.064 1887.449 1786.167 1867.829 1779.689 1849.649 C 1773.211 1831.469 1760.189 1814.614 1741.939 1808.337 C 1736.164 1806.35 1710.506 1804.199 1707.094 1806.601 C 1707.069 1806.61 1704.248 1808.317 1704.194 1808.337" fill="none" stroke="#323f51" stroke-miterlimit="10" stroke-width="4.5"/>
    <path id="Path_574" data-name="Path 574" d="M 1707.402 1870.713 C 1706.117 1870.261 1704.914 1869.606 1703.836 1868.774 C 1703.309 1868.374 1703.072 1867.921 1703.596 1867.438 C 1704.102 1866.974 1704.611 1867.192 1705.083 1867.544 C 1708.772 1870.287 1712.836 1870.43 1717.165 1868.724 C 1717.381 1868.639 1717.602 1868.563 1717.814 1868.473 C 1718.348 1868.248 1718.861 1868.233 1719.174 1868.71 C 1719.498 1869.21 1719.306 1869.632 1718.699 1869.892 C 1715.176 1871.597 1711.134 1871.89 1707.402 1870.713 Z" fill="#323f51" transform="matrix(0.951056, -0.309018, 0.309018, 0.951056, -493.888608, 620.318131)"/>
    <path id="Path_573" data-name="Path 573" d="M 1737.097 1870.901 C 1735.589 1870.37 1734.175 1869.601 1732.909 1868.623 C 1732.291 1868.149 1732.013 1867.626 1732.628 1867.058 C 1733.217 1866.515 1733.819 1866.77 1734.373 1867.182 C 1738.702 1870.402 1743.478 1870.57 1748.554 1868.568 C 1748.808 1868.468 1749.067 1868.379 1749.316 1868.274 C 1749.943 1868.01 1750.545 1867.993 1750.912 1868.552 C 1751.292 1869.133 1751.066 1869.635 1750.354 1869.939 C 1746.095 1871.759 1741.714 1872.451 1737.097 1870.901 Z" fill="#323f51" transform="matrix(0.994478, 0.104945, -0.104945, 0.994478, 205.786362, -172.459593)"/>
    <path id="Path_1613" data-name="Path 1613" d="M 1727.03 1880.714 C 1730.283 1880.677 1732.43 1882.752 1732.372 1885.879 C 1732.314 1889.029 1730.39 1891.099 1727.422 1891.209 C 1724.322 1891.414 1721.671 1889.006 1721.578 1885.901 C 1721.611 1882.802 1723.767 1880.752 1727.03 1880.714 Z" fill="#323f51"/>
  </g>
  <path id="Path_1341" data-name="Path 1341" d="M 1779.581 1798.383 C 1781.36 1797.551 1786.605 1795.094 1786.254 1792.474 C 1786.371 1792.359 1786.497 1792.252 1786.63 1792.155 C 1785.889 1792.079 1786.338 1791.519 1786.724 1792.07 C 1786.533 1791.533 1786.402 1790.977 1786.332 1790.412 C 1783.701 1790.565 1771.145 1788.036 1771.994 1790.48 C 1771.374 1789.464 1771.104 1790.327 1770.994 1790.424 C 1771.167 1790.647 1771.359 1790.856 1771.567 1791.048 C 1770.09 1791.87 1769.309 1792.914 1771.684 1793.228 C 1774.338 1793.579 1777.128 1793.859 1779.889 1794.047 C 1778.917 1794.917 1777.833 1795.653 1776.666 1796.236 C 1776.534 1796.298 1776.408 1796.359 1776.277 1796.421 C 1776.753 1795.95 1777.142 1795.459 1776.409 1795.721 C 1776.149 1796.007 1775.931 1796.328 1775.76 1796.675 C 1773.276 1797.936 1771.501 1799.436 1772.075 1800.596 C 1772.138 1801.47 1772.985 1801.702 1773.828 1801.804 L 1773.76 1801.836 C 1773.741 1801.846 1773.806 1801.814 1773.828 1801.804 C 1773.85 1801.82 1773.815 1801.823 1773.76 1801.836 C 1773.66 1801.884 1773.92 1801.992 1773.989 1802.006 C 1774.07 1801.916 1774.089 1801.864 1774.076 1801.831 L 1774.27 1801.85 C 1774.885 1802.007 1775.509 1802.124 1776.139 1802.201 C 1776.756 1802.279 1778.41 1802.547 1780.273 1802.701 C 1780.332 1802.92 1780.402 1803.078 1780.487 1802.977 C 1780.459 1803.011 1780.477 1802.887 1780.508 1802.722 C 1781.064 1802.763 1781.634 1802.791 1782.201 1802.804 C 1781.995 1802.926 1781.614 1803.02 1781.75 1803.104 C 1781.97 1803.06 1782.174 1802.956 1782.339 1802.804 C 1782.401 1802.804 1782.464 1802.81 1782.527 1802.81 C 1782.639 1802.951 1782.944 1802.957 1783.486 1802.795 C 1785.734 1802.704 1787.603 1802.186 1787.603 1800.681 C 1787.603 1798.743 1783.411 1798.402 1779.583 1798.381 M 1777.492 1789.875 C 1777.457 1789.935 1777.415 1789.992 1777.369 1790.045 L 1777.156 1790.045 C 1777.14 1789.801 1777.312 1789.345 1777.492 1789.876 M 1776.63 1789.96 C 1776.674 1789.838 1776.73 1789.794 1776.787 1789.828 C 1776.777 1789.919 1776.768 1789.978 1776.759 1790.041 L 1776.629 1790.041 C 1776.629 1790.004 1776.629 1789.962 1776.629 1789.962 M 1776.266 1790.036 L 1776.146 1790.036 C 1776.121 1789.98 1776.087 1789.889 1776.056 1789.8 C 1776.056 1789.8 1776.04 1789.766 1776.012 1789.687 C 1776.129 1789.615 1776.226 1789.853 1776.266 1790.039 M 1772.394 1790.576 C 1772.394 1790.576 1772.494 1790.563 1772.583 1790.56 C 1772.526 1790.595 1772.456 1790.601 1772.394 1790.576" fill="#323f51" clip-path="url(#clip-path)"/>
  <path id="Path_1342" data-name="Path 1342" d="M 1805.735 1789.42 C 1805.728 1787.826 1799.79 1787.56 1795.603 1787.52 C 1795.792 1787.331 1795.982 1787.131 1796.171 1786.911 C 1796.305 1786.867 1796.434 1786.81 1796.557 1786.742 C 1796.522 1786.683 1796.49 1786.622 1796.463 1786.56 C 1796.491 1786.526 1796.517 1786.497 1796.544 1786.46 C 1796.565 1786.539 1796.581 1786.62 1796.592 1786.702 C 1796.916 1786.257 1797.275 1785.837 1797.663 1785.447 C 1797.683 1785.483 1797.713 1785.514 1797.75 1785.535 C 1797.806 1785.56 1797.826 1785.428 1797.804 1785.3 C 1799.852 1783.179 1803.304 1780.035 1802.36 1778.959 C 1802.413 1778.937 1802.46 1778.922 1802.513 1778.899 C 1802.813 1778.956 1802.836 1778.82 1802.793 1778.663 C 1802.928 1778.638 1803.003 1778.616 1802.993 1778.591 C 1802.868 1778.384 1802.725 1778.189 1802.564 1778.01 C 1802.617 1777.555 1801.884 1777.319 1801.693 1777.001 C 1801.762 1777.107 1801.81 1777.227 1801.835 1777.352 C 1801.67 1777.238 1801.498 1777.134 1801.32 1777.042 C 1801.628 1776.842 1801.22 1776.784 1800.976 1776.886 C 1800.635 1776.744 1800.282 1776.631 1799.923 1776.547 C 1800.052 1775.722 1799.715 1776.278 1799.751 1776.506 C 1797.921 1776.221 1796.066 1776.138 1794.219 1776.256 C 1794.166 1776.258 1794.114 1776.263 1794.062 1776.271 C 1793.834 1776.137 1793.63 1775.964 1793.462 1775.76 C 1793.416 1775.681 1793.425 1775.66 1793.453 1775.647 C 1793.19 1775.772 1792.916 1775.872 1792.635 1775.947 C 1792.644 1775.892 1792.644 1775.837 1792.635 1775.783 C 1792.617 1775.723 1792.557 1775.84 1792.529 1775.975 C 1791.169 1776.321 1789.229 1776.392 1789.408 1775.996 C 1789.045 1776.787 1788.786 1776.485 1788.85 1777.568 C 1788.574 1775.268 1788.884 1778.481 1788.603 1777.039 C 1788.619 1777.127 1788.679 1777.402 1788.742 1777.714 C 1787.363 1778.247 1786.676 1778.774 1788.277 1779 C 1788.436 1779.021 1788.716 1779.038 1789.083 1779.05 C 1789.055 1779.15 1789.046 1779.235 1789.101 1779.285 C 1789.112 1779.207 1789.119 1779.13 1789.123 1779.052 C 1790.634 1779.099 1793.623 1779.07 1796.442 1778.995 C 1796.319 1779.048 1796.246 1779.176 1796.261 1779.309 C 1796.232 1780.378 1796.63 1779.199 1796.69 1778.989 L 1797.666 1778.961 C 1797.735 1779.061 1797.81 1779.105 1797.886 1779.07 C 1797.962 1779.035 1798.023 1778.986 1798.093 1778.947 C 1798.375 1778.938 1798.651 1778.928 1798.92 1778.918 C 1798.845 1779.006 1798.804 1779.119 1798.805 1779.235 C 1798.759 1779.711 1799.034 1779.05 1799.034 1778.913 L 1799.534 1778.894 C 1799.274 1779.133 1799.211 1779.257 1799.234 1779.314 C 1797.778 1780.429 1796.408 1781.654 1795.138 1782.977 C 1795.126 1782.942 1795.101 1782.913 1795.069 1782.896 C 1794.937 1782.833 1794.855 1783.038 1794.928 1783.19 C 1793.387 1784.75 1791.94 1786.402 1790.596 1788.135 C 1790.431 1788.33 1790.409 1788.609 1790.54 1788.829 C 1790.467 1788.938 1790.425 1789.066 1790.421 1789.198 C 1791.055 1789.62 1791.77 1789.905 1792.521 1790.035 C 1793.459 1790.435 1793.264 1790.267 1792.964 1790.064 C 1793.205 1790.132 1793.459 1790.195 1793.722 1790.253 C 1793.797 1791.306 1795.312 1790.965 1796.142 1790.673 C 1796.542 1790.724 1796.949 1790.773 1797.359 1790.807 C 1797.284 1790.879 1797.248 1790.982 1797.259 1791.086 C 1797.291 1791.486 1797.572 1791.061 1797.641 1790.832 C 1798.371 1790.894 1799.106 1790.932 1799.823 1790.945 C 1799.717 1791.015 1799.623 1791.083 1799.57 1791.062 C 1799.662 1791.1 1799.827 1791.022 1799.97 1790.946 C 1800.651 1790.956 1801.312 1790.946 1801.927 1790.905 C 1804.115 1790.767 1805.738 1790.305 1805.734 1789.419 M 1800.334 1780.519 L 1800.259 1780.625 C 1800.275 1780.584 1800.301 1780.548 1800.334 1780.519 M 1801.622 1778.819 C 1801.631 1778.867 1801.624 1778.918 1801.603 1778.963 Z M 1799.73 1781.547 C 1799.758 1781.497 1799.787 1781.447 1799.815 1781.399 C 1800.015 1781.55 1799.868 1781.599 1799.73 1781.547 M 1800.23 1782.216 C 1799.669 1781.081 1801.036 1782.633 1800.23 1782.216 M 1800.562 1781.846 C 1799.851 1781.125 1800.492 1781.62 1800.53 1781.673 C 1800.603 1781.773 1800.615 1781.834 1800.562 1781.846 M 1800.995 1781.498 C 1801.045 1781.868 1799.486 1780.745 1800.995 1781.498 M 1790.654 1776.647 C 1790.64 1776.8 1790.614 1776.952 1790.575 1777.102 C 1790.494 1776.947 1790.537 1776.021 1790.654 1776.647 M 1790.416 1776.688 C 1790.422 1776.942 1790.422 1777.081 1790.416 1777.148 C 1790.387 1777.046 1790.371 1776.941 1790.368 1776.835 C 1790.375 1776.71 1790.391 1776.66 1790.414 1776.688 M 1789.406 1776.478 L 1789.324 1776.478 C 1789.343 1776.394 1789.462 1775.841 1789.406 1776.478 M 1790.152 1776.631 C 1790.265 1776.383 1790.352 1776.841 1790.372 1777.164 C 1790.335 1777.174 1790.3 1777.186 1790.263 1777.195 C 1790.232 1777.069 1790.195 1776.885 1790.151 1776.631 M 1799.53 1778.89 L 1799.863 1778.875 C 1799.803 1778.915 1799.74 1778.96 1799.677 1779.003 C 1799.642 1778.95 1799.59 1778.91 1799.53 1778.89 M 1794.625 1790.44 L 1794.961 1790.497 C 1794.684 1790.529 1794.587 1790.482 1794.625 1790.44" fill="#323f51" clip-path="url(#clip-path)"/>
  <path id="Path_1343" data-name="Path 1343" d="M 1790.215 1790.046 C 1790.652 1790.334 1791.201 1790.396 1791.692 1790.215 C 1791.692 1790.215 1789.817 1789.435 1790.215 1790.046" fill="#323f51" clip-path="url(#clip-path)"/>
  <path id="Path_1164" data-name="Path 1164" d="M 737.853 1938.055" fill="none" stroke="#323f51" stroke-width="4.5"/>
  <path id="Path_368" data-name="Path 368" d="M 757.829 1292.392 C 762.024 1308.764 758.777 1317.705 756.809 1334.492 C 754.109 1357.544 753.872 1380.818 756.101 1403.921 C 749.525 1402.717 742.794 1402.625 736.188 1403.647" fill="none" stroke="#353f4f" stroke-linecap="round" stroke-linejoin="round" stroke-width="3"/>
  <path id="Path_369" data-name="Path 369" d="M 787.548 1292.268 C 788.504 1333.08 781.29 1365.492 782.332 1406.302 C 789.688 1405.63 797.061 1405.196 804.45 1405.002" fill="none" stroke="#353f4f" stroke-linecap="round" stroke-linejoin="round" stroke-width="3"/>
  <path id="Path_370" data-name="Path 370" d="M 767.568 1128.847 L 761.909 1144.76 L 771.379 1144.76 L 765.957 1160.312" fill="none" stroke="#353f4f" stroke-linecap="round" stroke-width="2.149"/>
  <path id="Path_371" data-name="Path 371" d="M 738.05 1131.256 L 738.103 1148.147 L 747.013 1144.947 L 747.167 1161.411" fill="none" stroke="#353f4f" stroke-linecap="round" stroke-width="2.149"/>
  <path id="Path_372" data-name="Path 372" d="M 800.23 1132.373 L 788.599 1144.617 L 797.251 1148.46 L 785.982 1160.473" fill="none" stroke="#353f4f" stroke-linecap="round" stroke-width="2.149"/>
  <path id="Path_373" data-name="Path 373" d="M 721.683 1238.452 C 725.115 1251.902 732.568 1263.984 740.925 1275.066 C 747.609 1283.926 755.808 1292.821 766.725 1294.837 C 776.397 1296.621 786.292 1292.519 794.266 1286.759 C 813.794 1272.659 824.949 1247.293 820.866 1223.553 C 816.297 1196.984 788.73 1170.781 760.457 1172.966 C 730.942 1175.246 715.254 1213.26 721.683 1238.452 Z" fill="none" stroke="#353f4f" stroke-miterlimit="10" stroke-width="3.76"/>
  <path id="Path_374" data-name="Path 374" d="M 781.427 1213.573 C 785.382 1212.95 789.175 1211.551 792.588 1209.459" fill="none" stroke="#353f4f" stroke-linecap="round" stroke-linejoin="round" stroke-width="1.612"/>
  <path id="Path_375" data-name="Path 375" d="M 782.181 1217.525 C 784.866 1218.072 787.621 1218.189 790.343 1217.872" fill="none" stroke="#353f4f" stroke-linecap="round" stroke-linejoin="round" stroke-width="1.612"/>
  <path id="Path_376" data-name="Path 376" d="M 758.586 1213.573 C 754.631 1212.949 750.838 1211.551 747.425 1209.459" fill="none" stroke="#353f4f" stroke-linecap="round" stroke-linejoin="round" stroke-width="1.612"/>
  <path id="Path_377" data-name="Path 377" d="M 757.833 1217.525 C 755.147 1218.072 752.391 1218.189 749.669 1217.872" fill="none" stroke="#353f4f" stroke-linecap="round" stroke-linejoin="round" stroke-width="1.612"/>
  <path id="Path_378" data-name="Path 378" d="M 786.605 1236.465 C 786.605 1236.465 772.077 1224.331 759.938 1236.465" fill="none" stroke="#353f4f" stroke-linecap="round" stroke-linejoin="round" stroke-width="1.612"/>
  <path id="Path_379" data-name="Path 379" d="M 818.112 1251.788 L 829.457 1247.402 C 833.443 1245.861 837.528 1244.259 840.695 1241.389 C 843.862 1238.519 845.95 1234.048 844.813 1229.929 C 844.045 1227.71 842.81 1225.682 841.191 1223.981 C 827.893 1208.191 811.069 1195.749 792.076 1187.66" fill="none" stroke="#353f4f" stroke-linecap="round" stroke-linejoin="round" stroke-width="3"/>
  <path id="Path_380" data-name="Path 380" d="M 729.672 1256.603 C 722.328 1255.525 714.921 1254.432 707.965 1251.846 C 701.009 1249.26 694.444 1245.027 690.353 1238.833 C 688.53 1236.229 687.432 1233.187 687.171 1230.019 C 687.108 1226.374 688.17 1222.799 690.211 1219.779 C 695.566 1211.331 705.24 1206.841 714.385 1202.792 L 740.547 1191.208" fill="none" stroke="#353f4f" stroke-linecap="round" stroke-linejoin="round" stroke-width="3"/>
</svg>
