<?xml version="1.0" encoding="utf-8"?>
<svg viewBox="659.443 332.862 218.736 151.181" xmlns="http://www.w3.org/2000/svg" xmlns:bx="https://boxy-svg.com">
  <g id="Group_741" data-name="Group 741" transform="matrix(1, 0, 0, 1, -68.718779, -1341.341979)">
    <g id="Group_679" data-name="Group 679" transform="translate(-14261.004 6970.693)">
      <path id="Path_1069" data-name="Path 1069" d="M-976.144,187.328" transform="translate(15737.429 -5597.153)" fill="none" stroke="#323f51" stroke-width="1"/>
      <path style="fill: rgb(80, 94, 114);" transform="matrix(-0.017193, 0.839925, -0.612607, -0.012539, 15361.853516, -5861.37207)" d="M 821.723 573.994 A 166.365 166.365 0 0 1 821.264 246.448 L 850.745 410.18 Z" bx:shape="pie 850.745 410.18 0 166.365 190.046 349.793 1@6fdde4f9"/>
      <g id="Group_677" data-name="Group 677" transform="matrix(1, 0, 0, 1, 15018.039063, -5274.713379)">
        <g id="Group_537" data-name="Group 537" transform="translate(0 0)">
          <path id="Path_755" data-name="Path 755" d="M532.494,1147.262h-.019a83.121,83.121,0,0,0-21.434,2.8c-.053.014-.11.028-.166.041a83.129,83.129,0,0,0-18.219,7.329l17.182,29.806a48.471,48.471,0,0,1,9.857-3.892l.226-.056a48.559,48.559,0,0,1,12.529-1.64h.013a48.057,48.057,0,0,1,22.314,5.468L572,1157.328a82.347,82.347,0,0,0-39.509-10.066Z" transform="translate(-452.395 -1147.262)" fill="#efdc74"/>
          <path id="Path_754" data-name="Path 754" d="M883.643,1215.257l-17.221,29.782a48.137,48.137,0,0,1,20.849,27.257,16.689,16.689,0,0,0,15.992,12.1h.5a17.131,17.131,0,0,0,16.425-22.027A82.39,82.39,0,0,0,883.643,1215.257Z" transform="translate(-760.873 -1203.38)" fill="#7ed6ad"/>
          <path id="Path_756" data-name="Path 756" d="M262.91,1262.773a17.133,17.133,0,0,0,16.4,22.062h.127a17.088,17.088,0,0,0,16.361-12,48.136,48.136,0,0,1,20.651-27.136L299.27,1215.89A82.357,82.357,0,0,0,262.91,1262.773Z" transform="translate(-262.168 -1203.902)" fill="#cc5858"/>
        </g>
        <g id="Group_536" data-name="Group 536" transform="translate(39.224 12.37)">
          <g id="Group_530" data-name="Group 530" transform="translate(0 29.71)">
            <g id="Group_527" data-name="Group 527" transform="translate(9.684 9.369)" opacity="0.1">
              <circle id="Ellipse_74" data-name="Ellipse 74" cx="29.659" cy="29.659" r="29.659" fill="#494d56"/>
            </g>
            <g id="Group_528" data-name="Group 528" transform="translate(0.912 0.558)">
              <circle id="Ellipse_75" data-name="Ellipse 75" cx="28.451" cy="28.451" r="28.451" transform="translate(0 40.235) rotate(-45)" fill="#fff"/>
            </g>
            <g id="Group_529" data-name="Group 529" transform="translate(0 0)">
              <circle id="Ellipse_76" data-name="Ellipse 76" cx="28.451" cy="28.451" r="28.451" transform="translate(0 40.235) rotate(-45)" fill="#e7f0f7"/>
            </g>
          </g>
          <g id="Group_531" data-name="Group 531" transform="matrix(0.602417, -0.798185, 0.798185, 0.602417, -26.358681, 39.881256)">
            <path id="Path_757" data-name="Path 757" d="M26.4,67.212a35.829,35.829,0,0,0-.635-4.391c-.647-3.344-1.279-6.69-1.922-10.035l-3.673-19.11L13.771.407a.5.5,0,0,0-.987,0L5.053,40.626,1.717,57.981C.51,64.259-2.062,71.248,3.1,77.107a13.7,13.7,0,0,0,9.162,4.8q.507.038,1.016.038a12.989,12.989,0,0,0,10.135-4.909,14.269,14.269,0,0,0,2.576-5.055A14.115,14.115,0,0,0,26.4,67.212Z" transform="translate(3 0)" fill="#494d56"/>
            <path id="Path_758" data-name="Path 758" d="M26.4,67.212a35.838,35.838,0,0,0-.635-4.391c-.647-3.344-1.279-6.69-1.922-10.035l-3.673-19.11L13.771.407a.5.5,0,0,0-.987,0L5.053,40.626,1.717,57.981C.51,64.259-2.062,71.248,3.1,77.107a13.7,13.7,0,0,0,9.162,4.8q.507.038,1.016.038a12.989,12.989,0,0,0,10.135-4.909,14.269,14.269,0,0,0,2.576-5.055A14.1,14.1,0,0,0,26.4,67.212Z" transform="translate(0 0)" fill="#494d56" opacity="0.1"/>
            <path id="Path_759" data-name="Path 759" d="M0,81.94l.057,0a12.99,12.99,0,0,0,10.135-4.909,14.269,14.269,0,0,0,2.576-5.056,14.1,14.1,0,0,0,.409-4.771,35.781,35.781,0,0,0-.635-4.391c-.647-3.343-1.279-6.69-1.922-10.034q-1.836-9.555-3.673-19.11C5.108,24.106,1.8,6.909.551.4A.488.488,0,0,0,0,0Z" transform="translate(16.22 0.006)" fill="#fff" opacity="0.1"/>
          </g>
          <g id="Group_535" data-name="Group 535" transform="translate(22.215 45.229) rotate(11)">
            <g id="Group_532" data-name="Group 532" transform="translate(0 0)" opacity="0.1">
              <circle id="Ellipse_77" data-name="Ellipse 77" cx="15.08" cy="15.08" r="15.08" transform="translate(0 21.327) rotate(-45)" fill="#494d56"/>
            </g>
            <g id="Group_533" data-name="Group 533" transform="translate(9.476 7.93)">
              <circle id="Ellipse_78" data-name="Ellipse 78" cx="14.466" cy="14.466" r="14.466" transform="matrix(1, -0.01, 0.01, 1, 0, 0.278)" fill="#fff"/>
            </g>
            <g id="Group_534" data-name="Group 534" transform="translate(2.272 1.483)">
              <circle id="Ellipse_79" data-name="Ellipse 79" cx="14.466" cy="14.466" r="14.466" transform="translate(0 20.458) rotate(-45)" fill="#e7f0f7"/>
            </g>
          </g>
        </g>
      </g>
    </g>
  </g>
</svg>