<svg viewBox="-328.189 3232.284 3803.142 1076.524" xmlns="http://www.w3.org/2000/svg"><defs><clipPath id="Patientportræt_christina_svg__a"><path fill="#323f51" d="M0 0h870.938v1058.047H0z" data-name="Rectangle 362"/></clipPath><clipPath id="Patientportræt_christina_svg__b"><path fill="none" d="M0 0h370.478v846.353H0z" data-name="Rectangle 364"/></clipPath><clipPath id="Patientportræt_christina_svg__c"><path fill="#323f51" d="M0 0h948.922v1058.047H0z" data-name="Rectangle 362"/></clipPath><clipPath id="Patientportræt_christina_svg__d"><path fill="none" d="M0 0h535.688v817.071H0z" data-name="Rectangle 363"/></clipPath><clipPath id="Patientportræt_christina_svg__e"><path fill="#323f51" d="M0 0h948.922v1058.047H0z" data-name="Rectangle 362"/></clipPath><clipPath id="Patientportræt_christina_svg__f"><path fill="#323f51" d="M0 0h948.922v1058.047H0z" data-name="Rectangle 362"/></clipPath><clipPath id="Patientportræt_christina_svg__g"><path fill="none" d="M0 0h787.201v890.531H0z" data-name="Rectangle 367"/></clipPath></defs><g data-name="Group 1051"><path fill="#fff" d="M2975.15-13213.979h198.314c852.396 0 1543.399 92.529 1543.399 185.058 0 1.944 133.671 184.152-202.716 191.524-375.247 8.224-900.652-6.464-1340.686-6.464H2975.15c-852.408 0-1543.4-82.853-1543.4-185.06 0-102.205 690.992-185.058 1543.4-185.058Z" data-name="Path 1296" transform="rotate(-1.356 572647.057 63990.717)"/><g data-name="Group 878"><path fill="#fff6ee" d="M107.126-136.667h673.872v863.364H107.126z" data-name="Rectangle 360"/><path fill="rgba(231,158,23,0.47)" d="M152.818-87.26H735.31v756.482H152.818z" data-name="Rectangle 361"/><g data-name="Group 873"><g clip-path="url(#Patientportræt_christina_svg__a)" data-name="Group 872" transform="matrix(.82455 0 0 .84846 91.452 -152.968)"><path fill="#2e3552" d="M870.939 1058.047H0V0h870.939Zm-839.121-34.665h807.3V34.663h-807.3Z" data-name="Path 1288"/></g></g></g><g data-name="Group 880"><g clip-path="url(#Patientportræt_christina_svg__b)" data-name="Group 879" transform="matrix(.82455 0 0 .84846 345.413 -45.28)"><path fill="#ffb27d" d="M307.423 325.952s-128.255 61.882-202.2 38.924c0 0 18.2-22.962 50.053-40.046-2.559-14.841-4.55-27.722-5.689-38.642-3.126-25.198-3.126-39.479-3.126-39.479l49.483-38.92 46.924-37.244c-3.7 104.726 64.554 155.41 64.554 155.41" data-name="Path 1297"/><path fill="#2b478b" d="M0 846.353c.028-1.511.1-3.008.2-4.52v-1.4a3648.22 3648.22 0 0 1 1.442-61.781 4363.254 4363.254 0 0 1 2.546-63.937c.8-18.812 1.735-37.47 2.827-55.706 4.326-72.448 11.057-138.01 21.052-177.828.223-.883.448-1.75.685-2.619 15.411-57.358 48.975-95.527 79.516-123.393l25.586-22.41c2.14.422 4.3.8 6.452 1.12 23.667 3.612 48.414 1.427 73.174-10.623 29.576-14.29 61.433-29.687 66.554-25.769.476.352.938.7 1.413 1.066h.015c9.352 7.094 17.931 16.263 25.782 27.265.028 0 .028.013.028.013v.013a1.106 1.106 0 0 1 .1.141c1.82 2.532 3.6 5.163 5.3 7.893a.889.889 0 0 1 .141.211c.04.054.1.14.167.251s.141.225.225.349c.448.715 1.19 1.875 2.141 3.485.323.546.672 1.12 1.036 1.764.419.729.88 1.512 1.358 2.364q1.113 1.974 2.393 4.382c.281.532.575 1.077.883 1.651.459.9.952 1.833 1.441 2.815.168.32.321.644.491.98.293.575.586 1.161.88 1.75.729 1.5 1.5 3.065 2.268 4.715.769 1.624 1.541 3.319 2.352 5.081 1.077 2.451 2.2 5.039 3.331 7.755a249.863 249.863 0 0 1 1.694 4.129c.112.266.208.547.323.812a406.991 406.991 0 0 1 14.724 45.937c.015.028.015.07.027.1 3.948 15.173 7.363 31.269 10.26 48.12 7.963 46.762 11.939 99.139 11.661 154.02 0 20.156-.575 40.883-1.71 61.318-2.238 36.434-3.008 71.3-2.9 103.674 0 1.063 0 2.128.015 3.19.013 2.128.028 4.227.042 6.328.015 1.581.028 3.161.055 4.73.03 1.805.042 3.612.071 5.389.028 1.624.04 3.233.07 4.828.013.2.013.393.013.589.013 1.022.042 2.043.056 3.065.07 3.038.128 6.061.2 9.057.055 1.988.1 3.975.15 5.934.073 2.21.128 4.407.2 6.578.04 1.665.1 3.316.153 4.955.028.727.057 1.456.071 2.168Z" data-name="Path 1298"/><path fill="#233862" d="M370.464 624.55c0 20.156-.575 40.883-1.709 61.318-2.238 36.434-3.01 71.3-2.9 103.674 0 1.063 0 2.128.015 3.19.013 2.128.03 4.227.042 6.328.015 1.581.028 3.161.057 4.73.028 1.805.042 3.612.07 5.389.028 1.624.042 3.233.07 4.828.013.2.013.393.013.589.015 1.022.042 2.043.056 3.065.07 3.038.128 6.061.2 9.057.055 1.988.1 3.975.152 5.934.071 2.21.126 4.407.2 6.578.042 1.665.1 3.316.155 4.955.027.727.055 1.456.071 2.168H72.335a109.18 109.18 0 0 1-8.281-32.078 132.49 132.49 0 0 1-.678-14.181c.125-25.11 7.154-51.706 18.462-78.312 12.681-29.869 30.765-59.751 50.557-87.618 25.165-35.44 53.1-67.59 76.24-92.266v-.015c28.356-30.233 49.491-49.224 49.491-49.224l99.194-21.808 1.484-.323c7.964 46.762 11.939 99.139 11.661 154.02" data-name="Path 1299"/><path fill="#ed985f" d="M243.72 210.589s-32.417 59.082-94.129 75.6c-3.126-25.199-3.126-39.48-3.126-39.48l49.483-38.92Z" data-name="Path 1300"/><path fill="#ffb27d" d="M123.9 245.003s122.351 20.015 133.836-55.2 35.014-123.29-42.619-139.25-97.229 10.488-107.259 34.677S92.369 237.858 123.9 245.003" data-name="Path 1301"/><path fill="#323f51" d="M302.208 41.546c1.112-1.274 3.673-2.3 9.375-2.613a23.133 23.133 0 0 0-10.653-3c-1.191-7.929-5.408-21.96-19.054-25.371 0 0 7.334 3.908 8.29 12.337-15.806-16.23-49.667-28.043-143.435-20.64-123.576 9.754-82.85 88.874-66.851 98.306s56.27-16.427 86.078-14.059 35.476 45.436 45.589 51.348 6.134-4.541 19.817-10.725 14.983 16.486 11.03 31.228 14.849 34.182 14.849 34.182l19-20.459c19-20.459 36.9-107.115 28.263-125.588-.763-1.633-1.517-3.285-2.3-4.946" data-name="Path 1302"/><path fill="#2b478b" d="M318.339 704.373q-10.16 22.989-23.388 46.944-9.76 17.616-21.316 35.72c-7.572 11.842-21.75 25.25-40.129 39.387a.052.052 0 0 1-.028.015c-8.455 6.522-17.8 13.183-27.8 19.915H27.741c11.925-10.635 24.2-21.5 36.307-32.078 3.893-3.4 7.783-6.788 11.633-10.12 23.527-20.379 45.7-38.994 62.521-51.983h.015c13.563-10.441 23.641-17.216 28.132-18.266 7.029-1.651 13.957-27.267 20.939-63.615 7-36.432 14.067-83.658 21.347-128.391v-.013c8.956-55.077 18.236-106.346 28.147-129.078 25.949-59.639 75.889-78.927 75.889-78.927s.043.07.141.21c.042.055.1.14.168.251s.14.226.223.351c.448.714 1.19 1.874 2.141 3.484.323.547.672 1.12 1.036 1.764.419.729.88 1.514 1.358 2.366a196.587 196.587 0 0 1 2.393 4.381c.283.534.575 1.078.883 1.651.459.9.952 1.835 1.441 2.815.168.321.321.645.491.98.293.575.586 1.161.88 1.75.729 1.5 1.5 3.066 2.268 4.717.769 1.624 1.541 3.317 2.352 5.081a425.63 425.63 0 0 1 3.331 7.755 249.708 249.708 0 0 1 1.694 4.128c.112.268.208.547.323.812a361.027 361.027 0 0 1 14.724 45.938c.015.027.015.068.027.1a385.388 385.388 0 0 1 8.776 48.442c7.222 61.867 1.637 141.758-38.981 233.521" data-name="Path 1303"/></g></g><text style="fill:#333;font-family:&quot;Roboto Slab&quot;;font-size:132px;white-space:pre" transform="translate(-1663.355 13498.787)"><tspan x="2551.83" y="-12952.9">&quot;Jeg hedder </tspan><tspan style="font-weight:700">Jonas</tspan><tspan> og er 21 år.&quot;</tspan></text><path fill="#fff" d="M3435.056-10425.784h209.126c898.864 0 1852.247-52.843 1852.247-155.106 0-2.149 63.291-143.906 65.049-145.665 166.459-166.664-1646.158 5.142-2526.149 5.142-4.339-7.291-351.557-48.368-724.552 27.017-90.325 18.255-197.283 23.414-230.155 142.733-22.851 82.945 26.169 103.266 39.417 115.593 36.333 33.807-2.213 35.002 94.5 67.387 224.15 75.058 673.249-56.882 1220.517-57.101Z" data-name="Path 1296" transform="rotate(-178.644 2799.423 -4378.39)"/><g data-name="Group 1053"><g data-name="Group 875"><path fill="#fff6ee" d="M114.804 1244.436h685.35v813.495h-685.35z" data-name="Rectangle 360"/><path fill="#7ec8d6" d="M157.225 1290.988h600.51v712.788h-600.51z" data-name="Rectangle 361"/><g data-name="Group 873"><g clip-path="url(#Patientportræt_christina_svg__c)" data-name="Group 872" transform="matrix(.76554 0 0 .79945 100.251 1229.076)"><path fill="#2e3552" d="M948.924 1058.047H0V0h948.924Zm-914.257-34.665h879.59V34.663H34.667Z" data-name="Path 1288"/><g data-name="Group 877"><g clip-path="url(#Patientportræt_christina_svg__d)" data-name="Group 876" transform="translate(321.234 151.016)"><path fill="#ffb27d" d="M188.776 233.46s45.069 67.879 35.618 130.923l66.333 158.988 122.524-180.853s-63.723-68.658-87.1-161.889Z" data-name="Path 1291"/><path fill="#ffb27d" d="M168.484 291.033s165.566 7.978 169.17-89.249 48.751-161.659-75.067-170.926c-101.828-7.618-135.936 33.736-145.209 65.9s-10.244 188.708 51.106 194.275" data-name="Path 1292"/><path fill="#35488b" d="M115.659 197.972s-33 124.921 21.607 142.855 199.938 4.665 200.811-148.715c0 0-76.492 44.021-112.9 42.684s-59.781-22.021-93.524-6.162c0 0-12.3-.874-16-30.661" data-name="Path 1293"/><path fill="#f99746" d="M413.266 342.529h-.022c-.222-.019-1.583-.1-4.629-.121-18.536 17.736-61.7 52.268-122.076 58.8-33.051 3.576-49.7-12.369-57.88-26.609-.022-.019-.022-.039-.039-.058a67.561 67.561 0 0 1-4.426-9.432l.181-.716s-119.456 26.388-150.029 65.392c-16.709 21.327-32 105.481-45.479 194.286a7.79 7.79 0 0 0-.1.615C17.947 695.937 8.3 770.084 0 817.071h535.688V377.776c-57.253-33.062-120.918-35.206-122.421-35.247" data-name="Path 1294"/><path fill="#35488b" d="M330.718 61.5c-2.726-9.945-15.2-15.231-15.2-15.231-93.034-40.279-161.44 2.8-161.44 2.8 57.622-74.73 195.5-58.169 224.154 9.7 46.78 110.831-40.155 133.345-40.155 133.345s-86.456-36.129-35.991-80.5c16.72-14.7 24.838-27.808 27.575-39.241a38.3 38.3 0 0 0 1.057-10.873" data-name="Path 1295"/></g></g></g></g></g></g><text style="fill:#333;font-family:&quot;Roboto Slab&quot;;font-size:132px;white-space:pre" transform="translate(-2194.312 12362.16)"><tspan x="3051.93" y="-10544.4">&quot;Jeg hedder </tspan><tspan style="font-weight:700">Erik</tspan><tspan> og er lige blevet 61 år.&quot;</tspan></text><path fill="#fff" d="M3477.385-8639.094h200.084c860 0 1772.161 52.843 1772.161 155.106 0 2.149 60.554 143.906 62.235 145.665 159.262 166.664-780.813 92.739-1622.756 92.739-3.624-17.126-1175.965 79.317-1541.637 11.927-39.706-7.318-85.926 1.124-104.636-26.98-52.718-79.182-120.207-94.077-163.327-112.756-87.359-37.843-20.238-171.365-.56-183.476 174.153-107.18 537.774-52.259 1398.436-82.225Z" data-name="Path 1296" transform="rotate(178.644 2612.39 -2256.17)"/><text style="fill:#333;font-family:&quot;Roboto Slab&quot;;font-size:132px;white-space:pre" transform="translate(-2194.312 12362.16)"><tspan x="3245.25" y="-8403.89">&quot;Jeg hedder </tspan><tspan style="font-weight:700">Christina</tspan><tspan> og er 45 år&quot;</tspan></text><g data-name="Group 1054"><g data-name="Group 874"><path fill="#fff6ee" d="M172.447 3334.092h722.907v862.696H172.447z" data-name="Rectangle 360"/><path fill="rgba(231,158,23,0.33)" d="M217.194 3383.46h633.418v755.898H217.194z" data-name="Rectangle 361"/><g data-name="Group 873"><g clip-path="url(#Patientportræt_christina_svg__e)" data-name="Group 872" transform="matrix(.8075 0 0 .8478 157.098 3317.804)"><path fill="#b2443b" d="M602.008 277.22c-1.055-1.75-44.926-71.123-126.933-84.964a117.58 117.58 0 0 0-76.164 12.828c-1.125-6.979-1.692-11.022-1.692-11.022s-10.005-44.143-51.754-46.288c0 0 13.312 7.957 15.445 16.356 0 0-24.231-20.331-61.777-6.739s-93.264 51.81-65.2 140.718-29.225 110.941-52.247 168.294 55.339 68.371 39.095 113.149 32.092 150.534 155.055 104.3C489.625 641.066 522.016 486 484.817 428.773Z" data-name="Path 1277"/><path fill="#ea9c68" d="M737.81 660.932c42.958 30.067 92.149 66.19 121.036 93.075v95.949c-13.223-3.233-24.6-6.751-33.148-10.551-28.164-12.5-88.222-37.386-144.168-67.245q-5.28-2.813-10.529-5.7c-.948-.537-1.924-1.051-2.876-1.589-54.227-30.171-101.6-64.526-107.5-95.954-9.939-52.865 56.177-62.572 82.623-64.369 6.524-.436 10.63-.383 10.63-.383s2.724 1.769 7.551 4.955c13.373 8.781 43.005 28.474 76.384 51.814" data-name="Path 1278"/><path fill="#ffb27d" d="m581.925 575.428-123.557 73.394-27.154-86.86s10.247-31.808 14.411-82.5a338.171 338.171 0 0 0-2-73.1l107.446 46.659a197.789 197.789 0 0 0-2.626 24.084c-.8 15.455-.271 36.192 5.341 55.565 4.832 16.629 13.407 32.256 28.139 42.758" data-name="Path 1279"/><path fill="#ea9c68" d="M553.786 532.669c-59.269 2.182-108.161-53.21-108.161-53.21l102.82-2.355c-.8 15.455-.271 36.194 5.341 55.565" data-name="Path 1280"/><path fill="#ffb27d" d="M580.39 497.877s-116.044 38.672-162.727-52.592c-50.381-98.49-6.872-175.353 32.889-182.88 79.29-15.011 127.656 12.511 143.75 43.833s50.152 170.883-13.912 191.64" data-name="Path 1281"/><path fill="#fff" d="M530.239 448.015s5.712 11.86 36.411 3.046c0 0 25.779-7.4 21.939-20.968 0 0-27.5-4.18-58.35 17.922" data-name="Path 1282"/><path fill="#323f51" d="M670.387 779.407v.014c77.946-46.716 67.689-118.284 67.689-118.284l-98.477-80.023v-.012c-11.631-9.96-26.495-17.124-45.344-19.509-6.932-.876-21.538-3.6-29.681-4.572 1.387 18.356 1.387 33.173-30.681 38.8-20.823 3.671-40.774-.128-58.128-7.189a146.738 146.738 0 0 1-43.934-28.141c-1.515.282-3 .565-4.468.821-30.708 5.677-49.578 8.111-74.946 18.153a69.338 69.338 0 0 0-23.622 15.508l-.077.077a69.954 69.954 0 0 0-11.426 15.175 69.169 69.169 0 0 0-8.345 41.773l4.339 37.359.67 5.856 7.238 62.288 16.585 142.736 3.982 34.352s-.695 4.239-1.876 11.556v.025c-.924 5.828-2.185 13.66-3.648 22.877h337.385a1556.594 1556.594 0 0 1-3.235-189.615Z" data-name="Path 1283"/><path fill="#b2443b" d="M499.085 273.244s1.529 91.126-50.976 121.139c0 0 20.744-42.93 13.741-69.161 0 0-13.564 81.281-55.042 95.458s-62.444-150.936 23.364-184.136 170.428 6.23 180.544 64.269 2.414 70.142 2.414 70.142-40.169-110.419-114.045-97.711" data-name="Path 1284"/><path fill="#202d3e" d="M457.146 969.042H336.238c1.463-9.216 2.722-17.047 3.648-22.877v-.023c1.179-7.318 1.876-11.557 1.876-11.557l-3.985-34.356-16.585-142.731-7.24-62.288-.668-5.854-4.339-37.361a69.169 69.169 0 0 1 8.345-41.773 13.631 13.631 0 0 1 6.674 3.261c17.331 14.635 34.3 40.516 50.017 71.047 5.751 11.193 11.347 23.029 16.715 35.148q5.545 12.56 10.76 25.368v.03c1.307 3.207 2.591 6.391 3.875 9.573 30.221 76.181 50.609 152.053 50.609 152.053s4.493 25.8 1.205 62.341" data-name="Path 1285"/><path fill="#ffb27d" d="M408.646 726.711s-2.724 6.984-7.189 18.333v.028c-2.673 6.774-5.957 15.146-9.682 24.493-16.045 40.414-39.774 99.366-54 130.665-3.49 7.675-6.417 13.685-8.5 17.355-1.951 3.441 2.7 14.353 10.6 28.554v.025c3.9 6.981 8.576 14.789 13.632 22.875h-89.598c-6.419-8.882-10.936-16.946-12.684-23.592-7.367-27.887 17.845-140.476 34.432-208.568a3508.1 3508.1 0 0 1 10.963-43.7c1.541-6.006 2.439-9.4 2.439-9.4l14.224 5.572 14.381 5.647h.026l63.006 24.675Z" data-name="Path 1286"/><path fill="#323f51" d="M391.992 769.548s-67.28 11.755-132.917-56.077c0 0 55.756-163.135 125.259-130.1s52.79 146.841 7.658 186.177" data-name="Path 1287"/><path fill="#2e3552" d="M948.924 1058.047H0V0h948.924Zm-914.257-34.665h879.59V34.663H34.667Z" data-name="Path 1288"/></g></g></g></g><path fill="#fff" d="M3459.053-6572.862h213.617c918.162 0 1892.012 52.844 1892.012 155.107 0 2.149 64.65 143.906 66.444 145.665 170.033 166.664-833.619 92.739-1732.503 92.739-3.869-17.126-1255.495 79.317-1645.897 11.927-42.392-7.318-240.049-121.057-286.086-139.736-93.268-37.843-21.607-171.365-.597-183.476 185.93-107.181 574.143-52.26 1493.01-82.226Z" data-name="Path 1296" transform="rotate(-1.356 524930.573 92519.44)"/><text style="fill:#333;font-family:&quot;Roboto Slab&quot;;font-size:132px;white-space:pre" transform="translate(-2194.312 12362.16)"><tspan x="3186.13" y="-6311.19">&quot;Jeg hedder </tspan><tspan style="font-weight:700">Ida</tspan><tspan> og er lige fyldt 25 år&quot;</tspan></text></g><g data-name="Group 1052"><g data-name="Group 881"><path fill="#fff6ee" d="M171.18 5438.99h725.585v861.271H171.181z" data-name="Rectangle 360"/><path fill="#f9ddbe" d="M216.093 5488.277h635.764v754.649H216.093z" data-name="Rectangle 361"/><g data-name="Group 873"><g clip-path="url(#Patientportræt_christina_svg__f)" data-name="Group 872" transform="matrix(.81049 0 0 .8464 155.774 5422.729)"><path fill="#2e3552" d="M948.924 1058.047H0V0h948.924Zm-914.257-34.665h879.59V34.663H34.667Z" data-name="Path 1288"/></g></g></g><g data-name="Group 884"><path fill="#fff" d="M213.319 5488.682h638.015v753.747H213.32z" data-name="Rectangle 365"/><path fill="#ebf3fa" d="M213.319 5488.682h638.015v753.747H213.32z" data-name="Rectangle 366"/><g data-name="Group 883"><g clip-path="url(#Patientportræt_christina_svg__g)" data-name="Group 882" transform="matrix(.81049 0 0 .8464 213.319 5488.682)"><path fill="#c6e3f4" d="M787.201 524.379v366.152l-267.645-.5-19.042-.046h-.044l-50.074-.085-30.448-.064-106.88-.2-99.937-.2c2.055-5.734 5.738-15.624 10.971-28.629a1194.223 1194.223 0 0 1 14.741-35.227 1399.38 1399.38 0 0 1 25.293-54.838c6.8-13.913 14.2-28.457 22.162-43.322.713-1.345 1.451-2.7 2.184-4.069a1122.574 1122.574 0 0 1 21.229-37.568c21.879-36.981 46.895-74.073 74.531-106.838a476.11 476.11 0 0 1 40.768-42.91 320.836 320.836 0 0 1 43.239-33.866c.713-.453 1.428-.91 2.14-1.34a219.472 219.472 0 0 1 32.395-17.077c28.48-12.074 58.387-16.835 89.4-11.6 96.794 16.339 135.359 26.965 195.02 52.217" data-name="Path 1305"/><path fill="#f8fbff" d="M787.2 63.513v677.073l-238.236 30.946-2.271.3-24.452 3.179-3.83.476-26.834 3.508-4.285.538-38.692 5.046-9.955 1.276-38.152 4.957-65.723 8.548-95.927 12.466-29.343 3.807-5.2.671L0 842.856v-560.67l180.024-49.99 49.187-13.674 7.187-1.991.324-.087 4.026-1.127 8.442-2.336 41.287-11.472 35.057-9.736 9.8-2.727h.023l.131-.041 46.656-12.966h.021l21.162-5.885 8.982-2.488 3.225-.91 146.351-40.64Z" data-name="Path 1306"/><path fill="#a8d29f" d="M0 890.531V410.274c49.709-2.554 100.475-1.474 148.3 4.931h.021c4.784.651 9.5 1.343 14.219 2.076a484.528 484.528 0 0 1 64.075 14.479 435.756 435.756 0 0 1 10.778 3.442.169.169 0 0 1 .108.021 287.462 287.462 0 0 1 10 3.529c.021-.021.041.021.041.021 1.559.563 3.117 1.127 4.63 1.731 2.338.887 4.653 1.816 6.95 2.747 22.374 9.178 42.823 20.475 60.633 34.149 21.748 16.7 39.582 36.984 52.24 61.394q6.393 12.332 12.249 26.4c16.36 39.234 29.645 87.922 40.464 141.16 2.446 12.031 4.764 24.3 6.971 36.722a9.255 9.255 0 0 0 .2 1.147 5.692 5.692 0 0 0 .106.607q1.007 5.873 2.014 11.771 2.431 14.511 4.653 29.257c.864 5.715 1.708 11.426 2.529 17.183 3.442 24.194 6.495 48.669 9.221 73.1.52 4.8 1.039 9.587 1.536 14.392Z" data-name="Path 1307"/><path fill="#f8fbff" d="m33.283-.001-33.284 11.1v-11.1Z" data-name="Path 1308"/><path fill="#a8d29f" d="M715.787 0H787.2v416.247a950.239 950.239 0 0 0-9.155-1.126c-76.6-9.09-132.026-29.324-170.587-55.872 8.98-30.97 34.949-56.937 34.949-56.937-30.036 6.3-51.98 22.245-63.82 32.85-58.035-58.992-54.7-137.348-23.606-197.379a124.857 124.857 0 0 1 6.9-11.665c29-43.258 83.876-67.3 129-103.44 16.1 6.86 39.968 20.385 54.012 43.757 0 0-7.637-41.287-30.425-65.05.453-.455.887-.931 1.317-1.384" data-name="Path 1309"/><path fill="#f4a671" d="M583.401 829.417c-.883-13.189-29.719-45.72-29.719-45.72-19.422-45.074-37.492-150.848-37.492-150.848-3.311-123.543-17.307-195.075-28.634-233.611-7.23-24.652-13.4-35.8-14.978-38.439-.251-.423-.386-.635-.386-.635a4.526 4.526 0 0 0-.441.423 143.878 143.878 0 0 0-11.442 11.92c-77.685 90.32-11.325 234.979-9.288 268.036 2.117 34.609 75.751 148.133 75.751 148.133 2.538 8.382 3.722 14.1 1.573 21.162-2.536 8.325 10.38 17.383 11.948 25.146s5.7 7.394 7.283 5.067-3.536-16.857-4.05-20.549 7.867 8.7 9.794 16.868-6.083 28.517 6.736 25.68 24.222-19.443 23.342-32.629" data-name="Path 1310"/><path fill="#2c3a64" d="M359.041 196.128s-.637 13.73 7.6 16.419-8.486 32.314-7.171 52.325 10.161 28.045 10.161 28.045-4.251-11.005-1.874-17.812c0 0-.379 14.157 9.959 21.3s7.559 13.316 7.559 13.316 23.365-7 24.02-24.521c0 0 1 7.922.2 11.2 0 0 20.176-15.15 21.139-32.6s-15.886-32.181-23.553-32.45-24.799-15.333-24.335-21.033-23.7-14.192-23.7-14.192" data-name="Path 1311"/><path fill="#e2af64" d="M423.613 98.035c-13.594-20.643-67.574-9.09-120.563 25.808s-84.925 79.923-71.328 100.564 67.573 9.091 120.563-25.8 84.927-79.924 71.328-100.567" data-name="Path 1312"/><path fill="#2b478b" d="M501.964 890.531H315.753c-.887-4.934-1.8-9.824-2.683-14.651-2.729-14.7-5.345-28.825-7.856-42.131l7.7-2.49 83.292-26.857 4.285-13.589 7.205-22.873 5.736-18.222 18.546-4.89 16.553-4.352a.21.21 0 0 1 .11-.021l26.812-7.076a42.929 42.929 0 0 1 1.819 4.586c2.055 5.929 5.69 18.351 10.019 41.57 4.046 21.661 8.679 52.736 13.18 96.686.3 2.9.6 5.842.906 8.876q.166 1.721.326 3.437c.085.671.175 1.322.26 1.993" data-name="Path 1313"/><path fill="#233862" d="M501.964 890.53H315.753c-.887-4.934-1.8-9.824-2.683-14.651-2.729-14.7-5.345-28.825-7.856-42.131l7.7-2.49 83.292-26.857 4.285-13.589 7.205-22.873 5.736-18.222 18.438-5.5 5.952-1.752 49.7-14.8.368 5.715c.5 6.945 1.538 20.946 3.681 45.616 1.945 22.546 4.8 54.033 8.936 97.226q.421 4.352.864 8.876.166 1.721.326 3.437c.085.671.175 1.322.26 1.993" data-name="Path 1314"/><path fill="#2c3a64" d="m393.776 100.383-95.253 144.521s-10.89-21.335-22.985-13.681c-18.87 11.925-59.41-28.889-50.957-86.513a167.942 167.942 0 0 1 1.954-10.745c19.005-27.384 40.112-57.868 55.256-79.307 43.742-26.417 111.985 45.725 111.985 45.725" data-name="Path 1315"/><path fill="#ffb27d" d="M435.639 392.33C422.31 404.542 405 415.472 382.56 423.969c-84.115 31.875-127.377-37-146.728-85.681 10.922-8.384 21.861-11.394 28.195-13.04 6.175-1.593 12.709-2.984 18.137-4 8.736-8.8 19.111-41.34 15.87-89.24l4.232.538 70.985 9.431s-.175 22.183 1.087 42.954c1 16.254 2.906 31.659 6.462 35.009 5.5.43 8.807.749 8.807.749a.169.169 0 0 0 .044.06 444.8 444.8 0 0 1 45.984 71.581" data-name="Path 1316"/><path fill="#ed985f" d="M373.26 241.989s-.189 22.164 1.085 42.954c-39.3 1.391-62.321-33.078-72.08-52.378Z" data-name="Path 1317"/><path fill="#ffb27d" d="M387.618 260.838s-92.727 7.439-96.472-50.378-18.236-95.8 40.812-102.992 71.99 14.125 77.931 33.117 1.752 116.83-22.27 120.253" data-name="Path 1318"/><path fill="#2c3a64" d="M405.083 108.611c-15.456-16.477-26.054-11.973-31.8-6.357-52.513-24.661-82.582 18.659-82.582 18.659-3.57 41.881-31.974 67.551-31.974 67.551s17.585 9.378 55.953-3.136c11.718-3.826 21.817-12.969 30.2-23.813-14.1 27.464-34.372 47.895-34.372 47.895 45.221-24.5 59.806-90.492 61.236-97.463 5.989 4.727 17.863 15.072 21.958 25.691 5.566 14.428 9.578 44.6 18.344 43.014 0 0 16.212-47.327-6.966-72.041" data-name="Path 1319"/><path fill="#edbd77" d="M222.603 173.159S179.479 87.322 239.74 53.391s104.371-20.61 137.523 20.89Z" data-name="Path 1320"/><path fill="#ffcf83" d="M465.369 64.849c-11.447-18.35-49.251-17.052-96.166.131q-5.911 2.141-11.989 4.651h-.023a434.573 434.573 0 0 0-64.162 33.177c-27.222 16.985-50.918 35.574-69.528 53.732a349 349 0 0 0-5.607 5.626c-26.1 26.944-40.51 52.5-37.869 70.027a22.024 22.024 0 0 0 3.117 8.743c7.964 12.746 28.673 15.992 56.371 10.994a239.31 239.31 0 0 0 39.255-10.906h.023c4.393-1.6 8.83-3.334 13.373-5.193a25.02 25.02 0 0 0-.584-.609 33.569 33.569 0 0 0-2.338-2.186l-.844-.646a16.774 16.774 0 0 0-2.835-1.71c-.193-.085-.345-.17-.54-.258h-.046a1.052 1.052 0 0 1-.149-.067 12.052 12.052 0 0 0-1.927-.584 3.612 3.612 0 0 0-.474-.087 3.819 3.819 0 0 0-.5-.062 6.914 6.914 0 0 0-.972-.067h-.152c-.239 0-.453.021-.692.041-.258.025-.5.044-.756.087-.3.064-.609.131-.91.216a12.86 12.86 0 0 0-.844.283 8.421 8.421 0 0 0-1.018.453c-.345.175-.69.366-1.035.584a12.871 12.871 0 0 1-3.552 1.559 14.975 14.975 0 0 1-4.437.5h-.023c-.255 0-.538-.023-.818-.044-.347-.044-.694-.064-1.039-.108-.347-.064-.717-.11-1.085-.172-.582-.131-1.166-.26-1.752-.432h-.041c-.476-.154-.952-.3-1.428-.478-.455-.152-.887-.324-1.343-.494-.044-.025-.108-.046-.152-.069-.368-.152-.715-.3-1.081-.478-.692-.343-1.432-.708-2.143-1.1-.368-.193-.717-.412-1.085-.625s-.713-.455-1.081-.692-.713-.476-1.081-.717c-.368-.26-.715-.517-1.083-.8-.368-.262-.715-.543-1.085-.825h-.016a27.681 27.681 0 0 1-7.449-2.269c-.234-.131-.474-.239-.69-.368a.168.168 0 0 0-.09-.046 15.286 15.286 0 0 1-5.083-4.393l-.52-.777a15.379 15.379 0 0 1-1-1.86 17.562 17.562 0 0 1-1-9.373v-.021c2.184-16.251 21.252-39.752 50.1-61.631.625-.478 1.255-.952 1.883-1.428a294.846 294.846 0 0 1 19.994-13.635 262.892 262.892 0 0 1 49.346-24.364h.3c5.108-1.862 9.759-3.419 14.456-4.653h.021c1.3-.347 2.6-.648 3.853-.952h.023a100.525 100.525 0 0 1 14.932-2.4h.021c.37-.044.736-.067 1.081-.09 12.488-.821 21.707 1.818 25.732 8.29 3.483 5.6 2.724 13.4-1.559 22.4a.385.385 0 0 1 .021.152 50.48 50.48 0 0 1 .908 4.393c.131.648.216 1.3.306 1.968.018.023.018.041.018.087.067.5.129 1.018.175 1.536v.023c.044.237.064.5.108.733 0 .044.023.09.023.133 0 .064.021.126.021.193.041.517.085 1.037.131 1.538l.062.8c.023.543.067 1.083.087 1.623.044.738.067 1.474.085 2.184a97.943 97.943 0 0 1-.3 10.217c-.064.671-.108 1.32-.172 1.968-.021.2-.044.391-.067.584 40.036-36.557 60.463-72.606 48.389-91.957" data-name="Path 1321"/><path fill="#f99746" d="M497.044 407.427c-11.541-57.734-47.3-74.269-47.3-74.269s-5.943-9.007-39.159-10.424c-5.17-.214-10.819-1.283-17.114-1.786-1.258-.085-2.538-.184-3.858-.267a.341.341 0 0 0 .041.064c1.264 1.94 34.772 53.46 32.912 67.3-1.9 14.1-123.874 9.274-132.711 2.159-7.088-5.738-19.4-44-23.99-58.962-1.163-3.727-1.846-6.01-1.846-6.01s-42.593 7.43-62.624 24.02c0 0 15.327 16.822 25.567 37.5a126.508 126.508 0 0 1 2.754 5.945 87.525 87.525 0 0 1 4.467 12.925c1.464 5.752.14 11.677-2.963 18.049-2.789 5.83-7.118 12.086-12.1 18.875-3.281 4.409-6.819 9.086-10.419 14.079 2.533 8.417 5.837 18.507 9.5 29.912 7.531 23.473 16.5 52.46 22.9 83.681a79.794 79.794 0 0 1-.8 35.4 81.636 81.636 0 0 1-4.635 13.474c-3.046 6.819-3.8 16.21-7.21 25.022-13.939 36.1-30.029 83.2-13.907 107.8 10.755 31.443 259.817-44.92 243.053-77.889 0 0 9.929-172.987 16.783-226.571.223-1.966.407-3.862.508-5.77a82.963 82.963 0 0 0-.016-8.886c21.59-9.83 22.169-25.372 22.169-25.372" data-name="Path 1322"/><path fill="#ed7d2b" d="M325.188 624.279c-35.871 11.493-70.8 16.429-98.509 18.433 3.416-8.812 5.941-16.8 8.984-23.617a81.633 81.633 0 0 0 4.635-13.474 79.8 79.8 0 0 0 .8-35.4c-6.4-31.216-23.4-84.471-30.935-107.942 20.125-44.885 40.922-20.406 40.922-20.406s60.822 27.28 86.713 77.565 18.341 94.923-12.615 104.84" data-name="Path 1323"/><path fill="#2b478b" d="M247.554 328.673s57.925 37.018 72.735 115.057l17.516-5.561s-6.78-55.709-73.779-112.924Z" data-name="Path 1324"/><path fill="#2b478b" d="m452.132 445.713-18.341 1.2c3.674-67.661-30.282-113.852-40.32-125.961a337.797 337.797 0 0 1 17.111 1.791c48.035 69.5 41.549 122.968 41.549 122.968" data-name="Path 1325"/><path fill="#2b478b" d="M487.906 733.381 475.121 539.49s-12.424-88.164-12.608-103.571S449.887 413 449.887 413s-91.309 4.814-117.046 6.262-23.15 16.093-23.15 16.093 11.221 46.846 12.355 51.667c17.33 73.623-81.752 118.607-81.752 118.607s-16.073 41.591-28.542 81.426c-21.375 68.307-2.285 166.3-2.285 166.3h.011c.517 8.419 1.124 21.273 1.773 37.177h205.518a999.67 999.67 0 0 1 3.18-14.458c4.653-20.272 11.58-47.131 21.229-73.032 2.317-6.235 4.784-12.424 7.423-18.459 7.377-16.838 16.035-32.418 26.075-44.471.391-.474.435-.841.218-1.124Z" data-name="Path 1326"/><path fill="#ed7d2b" d="M319.568 436.926a7.692 7.692 0 1 1 9.658 5 7.689 7.689 0 0 1-9.658-5" data-name="Path 1327"/><path fill="#f99746" d="M320.883 436.51a7.692 7.692 0 1 1 9.66 5 7.69 7.69 0 0 1-9.66-5" data-name="Path 1328"/><path fill="#2b478b" d="M323.448 434.172a1.117 1.117 0 1 1 1.115 1.117 1.118 1.118 0 0 1-1.115-1.117" data-name="Path 1329"/><path fill="#2b478b" d="M330.747 434.183a1.118 1.118 0 1 1 1.115 1.12 1.117 1.117 0 0 1-1.115-1.12" data-name="Path 1330"/><path fill="#ed7d2b" d="M432.783 427.153a7.692 7.692 0 1 1 9.658 5 7.689 7.689 0 0 1-9.658-5" data-name="Path 1331"/><path fill="#f99746" d="M434.1 426.737a7.692 7.692 0 1 1 9.658 5 7.685 7.685 0 0 1-9.658-5" data-name="Path 1332"/><path fill="#2b478b" d="M436.666 424.401a1.117 1.117 0 1 1 1.113 1.117 1.115 1.115 0 0 1-1.113-1.117" data-name="Path 1333"/><path fill="#2b478b" d="M443.963 424.412a1.118 1.118 0 1 1 1.115 1.117 1.117 1.117 0 0 1-1.115-1.117" data-name="Path 1334"/><path fill="#2c3a64" d="M235.405 207.141s-.637 13.732 7.6 16.417-8.486 32.314-7.173 52.327 10.164 28.045 10.164 28.045-4.251-11.008-1.874-17.817c0 0-.379 14.162 9.959 21.3s7.559 13.318 7.559 13.318 23.367-7 24.02-24.521c0 0 1 7.918.2 11.2 0 0 20.176-15.15 21.139-32.6s-15.886-32.183-23.553-32.455-24.792-15.327-24.33-21.022-23.711-14.192-23.711-14.192" data-name="Path 1335"/><path fill="#fff2e9" d="M359.032 228.528s13.817 8.377 23.65 7.4c9.736-.966 15.042-12.713 15.042-12.713a81.651 81.651 0 0 0-38.692 5.313" data-name="Path 1336"/><path fill="#ffb27d" d="M311.305 672.863c-8.628-5.3-18.208-1.356-26.668 3.308 3.081-3.416 2.708-6.233 2.225-7.925s-6.035 4.106-12 6.759-7.527 9.4-7.527 9.4c-2.154.08-10.925-4.782-18.716-9.38-33.814-21.901-92.882-116.226-94.592-124.411s74.041-81.6 97.063-108.742-13.9-106.6-49.69-92.614c0 0-103.312 122.018-137.5 190.76 0 0 35.63 77.535 148.015 146.9l-.166.138s31.862 20.1 46.607 24.995c15.337 5.083 37.066-5.722 45.888-7s27.195 6.281 32.611-.129-9.906-22.436-25.555-32.055" data-name="Path 1337"/><path fill="#f99746" d="m201.4 349.259-46.41 45.34s10.6 66.949 80.841 75.692c0 0 57.652-46.159 23.2-94.238s-57.635-26.795-57.635-26.795" data-name="Path 1338"/></g></g></g></g></svg>