<?xml version="1.0" encoding="utf-8"?>
<svg viewBox="-86.419 -297.535 1114.032 1178.654" xmlns="http://www.w3.org/2000/svg">
  <defs>
    <clipPath id="clip-path">
      <rect id="Rectangle_362" data-name="Rectangle 362" width="948.922" height="1058.047" fill="#323f51"/>
    </clipPath>
  </defs>
  <g id="Group_1054" data-name="Group 1054" transform="matrix(1, 0, 0, 1, 2269.788005, 12585.945258)">
    <g id="Group_874" data-name="Group 874" transform="translate(-2263 -12818.094)">
      <rect id="Rectangle_360" data-name="Rectangle 360" width="895.246" height="1017.568" transform="translate(19.009 19.212)" fill="#fff6ee"/>
      <rect id="Rectangle_361" data-name="Rectangle 361" width="784.423" height="891.597" transform="translate(74.423 77.443)" fill="rgba(231,158,23,0.33)" rx="34.512" ry="34.512"/>
      <g id="Group_873" data-name="Group 873">
        <g id="Group_872" data-name="Group 872" clip-path="url(#clip-path)">
          <path id="Path_1277" data-name="Path 1277" d="M526,213.911c-1.055-1.75-44.926-71.123-126.933-84.964a117.58,117.58,0,0,0-76.164,12.828c-1.125-6.979-1.692-11.022-1.692-11.022S311.206,86.61,269.457,84.465c0,0,13.312,7.957,15.445,16.356,0,0-24.231-20.331-61.777-6.739s-93.264,51.81-65.2,140.718S128.7,345.741,105.678,403.094s55.339,68.371,39.095,113.149,32.092,150.534,155.055,104.3c113.789-42.786,146.18-197.852,108.981-255.079Z" transform="translate(76.008 63.309)" fill="#b2443b"/>
          <path id="Path_1278" data-name="Path 1278" d="M498.063,402.1c42.958,30.067,92.149,66.19,121.036,93.075v95.949c-13.223-3.233-24.6-6.751-33.148-10.551-28.164-12.5-88.222-37.386-144.168-67.245q-5.28-2.813-10.529-5.7c-.948-.537-1.924-1.051-2.876-1.589-54.227-30.171-101.6-64.526-107.5-95.954-9.939-52.865,56.177-62.572,82.623-64.369,6.524-.436,10.63-.383,10.63-.383s2.724,1.769,7.551,4.955c13.373,8.781,43.005,28.474,76.384,51.814" transform="translate(239.747 258.832)" fill="#ea9c68"/>
          <path id="Path_1279" data-name="Path 1279" d="M397.186,401.337,273.629,474.731l-27.154-86.86s10.247-31.808,14.411-82.5a338.171,338.171,0,0,0-2-73.1L366.332,278.93a197.789,197.789,0,0,0-2.626,24.084c-.8,15.455-.271,36.192,5.341,55.565,4.832,16.629,13.407,32.256,28.139,42.758" transform="translate(184.739 174.091)" fill="#ffb27d"/>
          <path id="Path_1280" data-name="Path 1280" d="M362.873,328.27c-59.269,2.182-108.161-53.21-108.161-53.21l102.82-2.355c-.8,15.455-.271,36.194,5.341,55.565" transform="translate(190.913 204.399)" fill="#ea9c68"/>
          <path id="Path_1281" data-name="Path 1281" d="M411.191,387.265s-116.044,38.672-162.727-52.592c-50.381-98.49-6.872-175.353,32.889-182.88,79.29-15.011,127.656,12.511,143.75,43.833s50.152,170.883-13.912,191.64" transform="translate(169.199 110.612)" fill="#ffb27d"/>
          <path id="Path_1282" data-name="Path 1282" d="M303.076,263.891s5.712,11.86,36.411,3.046c0,0,25.779-7.4,21.939-20.968,0,0-27.5-4.18-58.35,17.922" transform="translate(227.163 184.124)" fill="#fff"/>
          <path id="Path_1283" data-name="Path 1283" d="M538.228,540.77l0,.014C616.174,494.068,605.917,422.5,605.917,422.5L507.44,342.477v-.012c-11.631-9.96-26.495-17.124-45.344-19.509-6.932-.876-21.538-3.6-29.681-4.572,1.387,18.356,1.387,33.173-30.681,38.8-20.823,3.671-40.774-.128-58.128-7.189a146.738,146.738,0,0,1-43.934-28.141c-1.515.282-3,.565-4.468.821-30.708,5.677-49.578,8.111-74.946,18.153a69.338,69.338,0,0,0-23.622,15.508l-.077.077a69.954,69.954,0,0,0-11.426,15.175,69.169,69.169,0,0,0-8.345,41.773l4.339,37.359.67,5.856,7.238,62.288L205.62,661.6l3.982,34.352s-.695,4.239-1.876,11.556v.025c-.924,5.828-2.185,13.66-3.648,22.877H541.463a1556.594,1556.594,0,0,1-3.235-189.615Z" transform="translate(132.159 238.637)" fill="#323f51"/>
          <path id="Path_1284" data-name="Path 1284" d="M340.248,177.1s1.529,91.126-50.976,121.139c0,0,20.744-42.93,13.741-69.161,0,0-13.564,81.281-55.042,95.458S185.527,173.6,271.335,140.4s170.428,6.23,180.544,64.269,2.414,70.142,2.414,70.142S414.124,164.392,340.248,177.1" transform="translate(158.837 96.144)" fill="#b2443b"/>
          <path id="Path_1285" data-name="Path 1285" d="M324.987,707.613H204.079c1.463-9.216,2.722-17.047,3.648-22.877v-.023c1.179-7.318,1.876-11.557,1.876-11.557L205.618,638.8,189.033,496.069l-7.24-62.288-.668-5.854-4.339-37.361a69.169,69.169,0,0,1,8.345-41.773,13.631,13.631,0,0,1,6.674,3.261c17.331,14.635,34.3,40.516,50.017,71.047,5.751,11.193,11.347,23.029,16.715,35.148q5.545,12.56,10.76,25.368v.03c1.307,3.207,2.591,6.391,3.875,9.573,30.221,76.181,50.609,152.053,50.609,152.053s4.493,25.8,1.205,62.341" transform="translate(132.159 261.429)" fill="#202d3e"/>
          <path id="Path_1286" data-name="Path 1286" d="M301.581,433.768s-2.724,6.984-7.189,18.333v.028c-2.673,6.774-5.957,15.146-9.682,24.493-16.045,40.414-39.774,99.366-54,130.665-3.49,7.675-6.417,13.685-8.5,17.355-1.951,3.441,2.7,14.353,10.6,28.554v.025c3.9,6.981,8.576,14.789,13.632,22.875H156.844c-6.419-8.882-10.936-16.946-12.684-23.592-7.367-27.887,17.845-140.476,34.432-208.568,4.622-18.949,8.576-34.431,10.963-43.7,1.541-6.006,2.439-9.4,2.439-9.4l14.224,5.572,14.381,5.647h.026l63.006,24.675Z" transform="translate(107.065 292.943)" fill="#ffb27d"/>
          <path id="Path_1287" data-name="Path 1287" d="M281,521.515S213.72,533.27,148.083,465.438c0,0,55.756-163.135,125.259-130.1S326.132,482.179,281,521.515" transform="translate(110.992 248.033)" fill="#323f51"/>
          <path id="Path_1288" data-name="Path 1288" d="M948.924,1058.047H0V0H948.924ZM34.667,1023.382h879.59V34.663H34.667Z" fill="#2e3552"/>
        </g>
      </g>
    </g>
  </g>
</svg>