<svg viewBox="-988.289 -2989.705 2974.198 833.599" xmlns="http://www.w3.org/2000/svg"><defs><clipPath id="Patientportræt_Yunnus_svg__a"><path fill="#323f51" d="M0 0h870.938v1058.047H0z" data-name="Rectangle 362"/></clipPath><clipPath id="Patientportræt_Yunnus_svg__b"><path fill="none" d="M0 0h370.478v846.353H0z" data-name="Rectangle 364"/></clipPath><clipPath id="Patientportræt_Yunnus_svg__c"><path fill="none" d="M0 0h787.201v890.531H0z" data-name="Rectangle 367"/></clipPath></defs><g data-name="Group 1051"><path fill="#fff" d="M2975.15-13213.979h198.314c852.18-6.458 1560.568 100.957 1543.399 185.058-24.431 119.674 166.859 247.538-202.716 191.524-371.099-56.245-900.652-6.464-1340.686-6.464H2975.15c-852.408 0-1323.824-230.264-1013.856-357.083 141.915-58.062 783.518-13.035 1013.856-13.035Z" data-name="Path 1296" transform="rotate(-1.356 449572.278 110486.79)"/><g data-name="Group 880"><g clip-path="url(#Patientportræt_Yunnus_svg__b)" data-name="Group 879" transform="matrix(-.96529 0 0 .88519 -484.037 -2976.28)"><path d="M272.962 270.1s-128.255 61.882-202.2 38.924c0 0 18.2-22.962 50.053-40.046-2.559-14.841-4.55-27.722-5.689-38.642C112 205.138 112 190.857 112 190.857l49.483-38.92 46.924-37.244c-3.7 104.726 64.554 155.41 64.554 155.41" data-name="Path 1297" style="fill:#9b5b31" transform="translate(34.461 55.852)"/><path fill="#2b478b" d="M0 846.353c.028-1.511.1-3.008.2-4.52v-1.4a3648.22 3648.22 0 0 1 1.442-61.781 4363.254 4363.254 0 0 1 2.546-63.937c.8-18.812 1.735-37.47 2.827-55.706 4.326-72.448 11.057-138.01 21.052-177.828.223-.883.448-1.75.685-2.619 15.411-57.358 48.975-95.527 79.516-123.393l25.586-22.41c2.14.422 4.3.8 6.452 1.12 23.667 3.612 48.414 1.427 73.174-10.623 29.576-14.29 61.433-29.687 66.554-25.769.476.352.938.7 1.413 1.066h.015c9.352 7.094 17.931 16.263 25.782 27.265.028 0 .028.013.028.013v.013a1.106 1.106 0 0 1 .1.141c1.82 2.532 3.6 5.163 5.3 7.893a.889.889 0 0 1 .141.211c.04.054.1.14.167.251s.141.225.225.349c.448.715 1.19 1.875 2.141 3.485.323.546.672 1.12 1.036 1.764.419.729.88 1.512 1.358 2.364q1.113 1.974 2.393 4.382c.281.532.575 1.077.883 1.651.459.9.952 1.833 1.441 2.815.168.32.321.644.491.98.293.575.586 1.161.88 1.75.729 1.5 1.5 3.065 2.268 4.715.769 1.624 1.541 3.319 2.352 5.081 1.077 2.451 2.2 5.039 3.331 7.755a249.863 249.863 0 0 1 1.694 4.129c.112.266.208.547.323.812a406.991 406.991 0 0 1 14.724 45.937c.015.028.015.07.027.1 3.948 15.173 7.363 31.269 10.26 48.12 7.963 46.762 11.939 99.139 11.661 154.02 0 20.156-.575 40.883-1.71 61.318-2.238 36.434-3.008 71.3-2.9 103.674 0 1.063 0 2.128.015 3.19.013 2.128.028 4.227.042 6.328.015 1.581.028 3.161.055 4.73.03 1.805.042 3.612.071 5.389.028 1.624.04 3.233.07 4.828.013.2.013.393.013.589.013 1.022.042 2.043.056 3.065.07 3.038.128 6.061.2 9.057.055 1.988.1 3.975.15 5.934.073 2.21.128 4.407.2 6.578.04 1.665.1 3.316.153 4.955.028.727.057 1.456.071 2.168Z" data-name="Path 1298"/><path fill="#233862" d="M370.464 624.55c0 20.156-.575 40.883-1.709 61.318-2.238 36.434-3.01 71.3-2.9 103.674 0 1.063 0 2.128.015 3.19.013 2.128.03 4.227.042 6.328.015 1.581.028 3.161.057 4.73.028 1.805.042 3.612.07 5.389.028 1.624.042 3.233.07 4.828.013.2.013.393.013.589.015 1.022.042 2.043.056 3.065.07 3.038.128 6.061.2 9.057.055 1.988.1 3.975.152 5.934.071 2.21.126 4.407.2 6.578.042 1.665.1 3.316.155 4.955.027.727.055 1.456.071 2.168H72.335a109.18 109.18 0 0 1-8.281-32.078 132.49 132.49 0 0 1-.678-14.181c.125-25.11 7.154-51.706 18.462-78.312 12.681-29.869 30.765-59.751 50.557-87.618 25.165-35.44 53.1-67.59 76.24-92.266v-.015c28.356-30.233 49.491-49.224 49.491-49.224l99.194-21.808 1.484-.323c7.964 46.762 11.939 99.139 11.661 154.02" data-name="Path 1299"/><path d="M195.755 142.54s-32.417 59.082-94.129 75.6C98.5 192.941 98.5 178.66 98.5 178.66l49.483-38.92Z" data-name="Path 1300" style="fill:#754424" transform="translate(47.965 68.049)"/><path d="M91.142 230.039s122.351 20.015 133.836-55.2 35.014-123.29-42.619-139.25S85.13 46.077 75.1 70.266 59.611 222.894 91.142 230.039" data-name="Path 1301" style="fill:#9b5b31" transform="translate(32.758 14.964)"/><path fill="#323f51" d="M302.208 41.546c1.112-1.274 3.673-2.3 9.375-2.613a23.133 23.133 0 0 0-10.653-3c-1.191-7.929-5.408-21.96-19.054-25.371 0 0 7.334 3.908 8.29 12.337-15.806-16.23-49.667-28.043-143.435-20.64-123.576 9.754-82.85 88.874-66.851 98.306s56.27-16.427 86.078-14.059 35.476 45.436 45.589 51.348 6.134-4.541 19.817-10.725 14.983 16.486 11.03 31.228 14.849 34.182 14.849 34.182l19-20.459c19-20.459 36.9-107.115 28.263-125.588-.763-1.633-1.517-3.285-2.3-4.946" data-name="Path 1302"/><path fill="#2b478b" d="M318.339 704.373q-10.16 22.989-23.388 46.944-9.76 17.616-21.316 35.72c-7.572 11.842-21.75 25.25-40.129 39.387a.052.052 0 0 1-.028.015c-8.455 6.522-17.8 13.183-27.8 19.915H27.741c11.925-10.635 24.2-21.5 36.307-32.078 3.893-3.4 7.783-6.788 11.633-10.12 23.527-20.379 45.7-38.994 62.521-51.983h.015c13.563-10.441 23.641-17.216 28.132-18.266 7.029-1.651 13.957-27.267 20.939-63.615 7-36.432 14.067-83.658 21.347-128.391v-.013c8.956-55.077 18.236-106.346 28.147-129.078 25.949-59.639 75.889-78.927 75.889-78.927s.043.07.141.21c.042.055.1.14.168.251s.14.226.223.351c.448.714 1.19 1.874 2.141 3.484.323.547.672 1.12 1.036 1.764.419.729.88 1.514 1.358 2.366a196.587 196.587 0 0 1 2.393 4.381c.283.534.575 1.078.883 1.651.459.9.952 1.835 1.441 2.815.168.321.321.645.491.98.293.575.586 1.161.88 1.75.729 1.5 1.5 3.066 2.268 4.717.769 1.624 1.541 3.317 2.352 5.081a425.63 425.63 0 0 1 3.331 7.755 249.708 249.708 0 0 1 1.694 4.128c.112.268.208.547.323.812a361.027 361.027 0 0 1 14.724 45.938c.015.027.015.068.027.1a385.388 385.388 0 0 1 8.776 48.442c7.222 61.867 1.637 141.758-38.981 233.521" data-name="Path 1303"/></g></g><text style="fill:#333;font-family:&quot;Roboto Slab&quot;;font-size:132px;white-space:pre" transform="translate(-2798.285 10598.872)"><tspan x="2551.83" y="-12952.9">&quot;Jeg hedder </tspan><tspan style="font-weight:700">Yunnus</tspan><tspan> og er 21 år.&quot;</tspan></text><path fill="#fff" d="M3890.901-6581.568h171.505c737.154 0 1519.017 52.844 1519.017 155.107 0 2.149 51.905 143.906 53.345 145.665 136.513 166.665-669.278 92.74-1390.954 92.74-3.106-17.126-1007.985 79.317-1321.423 11.927-34.034-7.318-192.725-121.058-229.686-139.737-74.881-37.843-17.347-171.365-.479-183.476 149.275-107.181 460.955-52.26 1198.675-82.226Z" data-name="Path 1296" transform="rotate(-1.356 243199.698 155575.46)"/><g data-name="Group 1052"><g data-name="Group 884"><g data-name="Group 883"><g clip-path="url(#Patientportræt_Yunnus_svg__c)" data-name="Group 882" transform="matrix(.98652 0 0 .91596 -1195.164 -1243.757)"><path fill="#f8fbff" d="m33.283-.001-33.284 11.1v-11.1Z" data-name="Path 1308"/><path d="M344.575 625.915c-.883-13.189-29.719-45.72-29.719-45.72-19.422-45.074-37.492-150.848-37.492-150.848-3.311-123.543-17.307-195.075-28.634-233.611-7.23-24.652-13.4-35.8-14.978-38.439-.251-.423-.386-.635-.386-.635a4.526 4.526 0 0 0-.441.423 143.878 143.878 0 0 0-11.442 11.92c-77.685 90.32-11.325 234.979-9.288 268.036 2.117 34.609 75.751 148.133 75.751 148.133 2.538 8.382 3.722 14.1 1.573 21.162-2.536 8.325 10.38 17.383 11.948 25.146s5.7 7.394 7.283 5.067-3.536-16.857-4.05-20.549 7.867 8.7 9.794 16.868-6.083 28.517 6.736 25.68 24.222-19.443 23.342-32.629" data-name="Path 1310" style="fill:#a76235" transform="translate(238.826 203.502)"/><path fill="#2c3a64" d="M359.041 196.128s-.637 13.73 7.6 16.419-8.486 32.314-7.171 52.325 10.161 28.045 10.161 28.045-4.251-11.005-1.874-17.812c0 0-.379 14.157 9.959 21.3s7.559 13.316 7.559 13.316 23.365-7 24.02-24.521c0 0 1 7.922.2 11.2 0 0 20.176-15.15 21.139-32.6s-15.886-32.181-23.553-32.45-24.799-15.333-24.335-21.033-23.7-14.192-23.7-14.192" data-name="Path 1311"/><path fill="#e2af64" d="M423.613 98.035c-13.594-20.643-67.574-9.09-120.563 25.808s-84.925 79.923-71.328 100.564 67.573 9.091 120.563-25.8 84.927-79.924 71.328-100.567" data-name="Path 1312"/><path fill="#2b478b" d="M501.964 890.531H315.753c-.887-4.934-1.8-9.824-2.683-14.651-2.729-14.7-5.345-28.825-7.856-42.131l7.7-2.49 83.292-26.857 4.285-13.589 7.205-22.873 5.736-18.222 18.546-4.89 16.553-4.352a.21.21 0 0 1 .11-.021l26.812-7.076a42.929 42.929 0 0 1 1.819 4.586c2.055 5.929 5.69 18.351 10.019 41.57 4.046 21.661 8.679 52.736 13.18 96.686.3 2.9.6 5.842.906 8.876q.166 1.721.326 3.437c.085.671.175 1.322.26 1.993" data-name="Path 1313"/><path fill="#233862" d="M501.964 890.53H315.753c-.887-4.934-1.8-9.824-2.683-14.651-2.729-14.7-5.345-28.825-7.856-42.131l7.7-2.49 83.292-26.857 4.285-13.589 7.205-22.873 5.736-18.222 18.438-5.5 5.952-1.752 49.7-14.8.368 5.715c.5 6.945 1.538 20.946 3.681 45.616 1.945 22.546 4.8 54.033 8.936 97.226q.421 4.352.864 8.876.166 1.721.326 3.437c.085.671.175 1.322.26 1.993" data-name="Path 1314"/><path fill="#2c3a64" d="m393.776 100.383-95.253 144.521s-10.89-21.335-22.985-13.681c-18.87 11.925-59.41-28.889-50.957-86.513a167.942 167.942 0 0 1 1.954-10.745c19.005-27.384 40.112-57.868 55.256-79.307 43.742-26.417 111.985 45.725 111.985 45.725" data-name="Path 1315"/><path d="M302.388 261.237c-13.329 12.212-30.639 23.142-53.079 31.639-84.115 31.875-127.377-37-146.728-85.681 10.922-8.384 21.861-11.394 28.195-13.04 6.175-1.593 12.709-2.984 18.137-4 8.736-8.8 19.111-41.34 15.87-89.24l4.232.538L240 110.884s-.175 22.183 1.087 42.954c1 16.254 2.906 31.659 6.462 35.009 5.5.43 8.807.749 8.807.749a.169.169 0 0 0 .044.06 444.8 444.8 0 0 1 45.984 71.581" data-name="Path 1316" style="fill:#a76235" transform="translate(133.251 131.093)"/><path d="M202.473 110.584s-.189 22.164 1.085 42.954c-39.3 1.391-62.321-33.078-72.08-52.378Z" data-name="Path 1317" style="fill:#8a5633" transform="translate(170.787 131.405)"/><path d="M225.544 200.924s-92.727 7.439-96.472-50.378-18.236-95.8 40.812-102.992 71.99 14.125 77.931 33.117 1.752 116.83-22.27 120.253" data-name="Path 1318" style="fill:#a76235" transform="translate(162.074 59.914)"/><path fill="#2c3a64" d="M405.083 108.611c-15.456-16.477-26.054-11.973-31.8-6.357-52.513-24.661-82.582 18.659-82.582 18.659-3.57 41.881-31.974 67.551-31.974 67.551s17.585 9.378 55.953-3.136c11.718-3.826 21.817-12.969 30.2-23.813-14.1 27.464-34.372 47.895-34.372 47.895 45.221-24.5 59.806-90.492 61.236-97.463 5.989 4.727 17.863 15.072 21.958 25.691 5.566 14.428 9.578 44.6 18.344 43.014 0 0 16.212-47.327-6.966-72.041" data-name="Path 1319"/><path fill="#edbd77" d="M222.603 173.159S179.479 87.322 239.74 53.391s104.371-20.61 137.523 20.89Z" data-name="Path 1320"/><path fill="#ffcf83" d="M465.369 64.849c-11.447-18.35-49.251-17.052-96.166.131q-5.911 2.141-11.989 4.651h-.023a434.573 434.573 0 0 0-64.162 33.177c-27.222 16.985-50.918 35.574-69.528 53.732a349 349 0 0 0-5.607 5.626c-26.1 26.944-40.51 52.5-37.869 70.027a22.024 22.024 0 0 0 3.117 8.743c7.964 12.746 28.673 15.992 56.371 10.994a239.31 239.31 0 0 0 39.255-10.906h.023c4.393-1.6 8.83-3.334 13.373-5.193a25.02 25.02 0 0 0-.584-.609 33.569 33.569 0 0 0-2.338-2.186l-.844-.646a16.774 16.774 0 0 0-2.835-1.71c-.193-.085-.345-.17-.54-.258h-.046a1.052 1.052 0 0 1-.149-.067 12.052 12.052 0 0 0-1.927-.584 3.612 3.612 0 0 0-.474-.087 3.819 3.819 0 0 0-.5-.062 6.914 6.914 0 0 0-.972-.067h-.152c-.239 0-.453.021-.692.041-.258.025-.5.044-.756.087-.3.064-.609.131-.91.216a12.86 12.86 0 0 0-.844.283 8.421 8.421 0 0 0-1.018.453c-.345.175-.69.366-1.035.584a12.871 12.871 0 0 1-3.552 1.559 14.975 14.975 0 0 1-4.437.5h-.023c-.255 0-.538-.023-.818-.044-.347-.044-.694-.064-1.039-.108-.347-.064-.717-.11-1.085-.172-.582-.131-1.166-.26-1.752-.432h-.041c-.476-.154-.952-.3-1.428-.478-.455-.152-.887-.324-1.343-.494-.044-.025-.108-.046-.152-.069-.368-.152-.715-.3-1.081-.478-.692-.343-1.432-.708-2.143-1.1-.368-.193-.717-.412-1.085-.625s-.713-.455-1.081-.692-.713-.476-1.081-.717c-.368-.26-.715-.517-1.083-.8-.368-.262-.715-.543-1.085-.825h-.016a27.681 27.681 0 0 1-7.449-2.269c-.234-.131-.474-.239-.69-.368a.168.168 0 0 0-.09-.046 15.286 15.286 0 0 1-5.083-4.393l-.52-.777a15.379 15.379 0 0 1-1-1.86 17.562 17.562 0 0 1-1-9.373v-.021c2.184-16.251 21.252-39.752 50.1-61.631.625-.478 1.255-.952 1.883-1.428a294.846 294.846 0 0 1 19.994-13.635 262.892 262.892 0 0 1 49.346-24.364h.3c5.108-1.862 9.759-3.419 14.456-4.653h.021c1.3-.347 2.6-.648 3.853-.952h.023a100.525 100.525 0 0 1 14.932-2.4h.021c.37-.044.736-.067 1.081-.09 12.488-.821 21.707 1.818 25.732 8.29 3.483 5.6 2.724 13.4-1.559 22.4a.385.385 0 0 1 .021.152 50.48 50.48 0 0 1 .908 4.393c.131.648.216 1.3.306 1.968.018.023.018.041.018.087.067.5.129 1.018.175 1.536v.023c.044.237.064.5.108.733 0 .044.023.09.023.133 0 .064.021.126.021.193.041.517.085 1.037.131 1.538l.062.8c.023.543.067 1.083.087 1.623.044.738.067 1.474.085 2.184a97.943 97.943 0 0 1-.3 10.217c-.064.671-.108 1.32-.172 1.968-.021.2-.044.391-.067.584 40.036-36.557 60.463-72.606 48.389-91.957" data-name="Path 1321"/><path fill="#f99746" d="M497.044 407.427c-11.541-57.734-47.3-74.269-47.3-74.269s-5.943-9.007-39.159-10.424c-5.17-.214-10.819-1.283-17.114-1.786-1.258-.085-2.538-.184-3.858-.267a.341.341 0 0 0 .041.064c1.264 1.94 34.772 53.46 32.912 67.3-1.9 14.1-123.874 9.274-132.711 2.159-7.088-5.738-19.4-44-23.99-58.962-1.163-3.727-1.846-6.01-1.846-6.01s-42.593 7.43-62.624 24.02c0 0 15.327 16.822 25.567 37.5a126.508 126.508 0 0 1 2.754 5.945 87.525 87.525 0 0 1 4.467 12.925c1.464 5.752.14 11.677-2.963 18.049-2.789 5.83-7.118 12.086-12.1 18.875-3.281 4.409-6.819 9.086-10.419 14.079 2.533 8.417 5.837 18.507 9.5 29.912 7.531 23.473 16.5 52.46 22.9 83.681a79.794 79.794 0 0 1-.8 35.4 81.636 81.636 0 0 1-4.635 13.474c-3.046 6.819-3.8 16.21-7.21 25.022-13.939 36.1-30.029 83.2-13.907 107.8 10.755 31.443 259.817-44.92 243.053-77.889 0 0 9.929-172.987 16.783-226.571.223-1.966.407-3.862.508-5.77a82.963 82.963 0 0 0-.016-8.886c21.59-9.83 22.169-25.372 22.169-25.372" data-name="Path 1322"/><path fill="#ed7d2b" d="M325.188 624.279c-35.871 11.493-70.8 16.429-98.509 18.433 3.416-8.812 5.941-16.8 8.984-23.617a81.633 81.633 0 0 0 4.635-13.474 79.8 79.8 0 0 0 .8-35.4c-6.4-31.216-23.4-84.471-30.935-107.942 20.125-44.885 40.922-20.406 40.922-20.406s60.822 27.28 86.713 77.565 18.341 94.923-12.615 104.84" data-name="Path 1323"/><path fill="#2b478b" d="M247.554 328.673s57.925 37.018 72.735 115.057l17.516-5.561s-6.78-55.709-73.779-112.924Z" data-name="Path 1324"/><path fill="#2b478b" d="m452.132 445.713-18.341 1.2c3.674-67.661-30.282-113.852-40.32-125.961a337.797 337.797 0 0 1 17.111 1.791c48.035 69.5 41.549 122.968 41.549 122.968" data-name="Path 1325"/><path fill="#2b478b" d="M487.906 733.381 475.121 539.49s-12.424-88.164-12.608-103.571S449.887 413 449.887 413s-91.309 4.814-117.046 6.262-23.15 16.093-23.15 16.093 11.221 46.846 12.355 51.667c17.33 73.623-81.752 118.607-81.752 118.607s-16.073 41.591-28.542 81.426c-21.375 68.307-2.285 166.3-2.285 166.3h.011c.517 8.419 1.124 21.273 1.773 37.177h205.518a999.67 999.67 0 0 1 3.18-14.458c4.653-20.272 11.58-47.131 21.229-73.032 2.317-6.235 4.784-12.424 7.423-18.459 7.377-16.838 16.035-32.418 26.075-44.471.391-.474.435-.841.218-1.124Z" data-name="Path 1326"/><path fill="#ed7d2b" d="M319.568 436.926a7.692 7.692 0 1 1 9.658 5 7.689 7.689 0 0 1-9.658-5" data-name="Path 1327"/><path fill="#f99746" d="M320.883 436.51a7.692 7.692 0 1 1 9.66 5 7.69 7.69 0 0 1-9.66-5" data-name="Path 1328"/><path fill="#2b478b" d="M323.448 434.172a1.117 1.117 0 1 1 1.115 1.117 1.118 1.118 0 0 1-1.115-1.117" data-name="Path 1329"/><path fill="#2b478b" d="M330.747 434.183a1.118 1.118 0 1 1 1.115 1.12 1.117 1.117 0 0 1-1.115-1.12" data-name="Path 1330"/><path fill="#ed7d2b" d="M432.783 427.153a7.692 7.692 0 1 1 9.658 5 7.689 7.689 0 0 1-9.658-5" data-name="Path 1331"/><path fill="#f99746" d="M434.1 426.737a7.692 7.692 0 1 1 9.658 5 7.685 7.685 0 0 1-9.658-5" data-name="Path 1332"/><path fill="#2b478b" d="M436.666 424.401a1.117 1.117 0 1 1 1.113 1.117 1.115 1.115 0 0 1-1.113-1.117" data-name="Path 1333"/><path fill="#2b478b" d="M443.963 424.412a1.118 1.118 0 1 1 1.115 1.117 1.117 1.117 0 0 1-1.115-1.117" data-name="Path 1334"/><path fill="#2c3a64" d="M235.405 207.141s-.637 13.732 7.6 16.417-8.486 32.314-7.173 52.327 10.164 28.045 10.164 28.045-4.251-11.008-1.874-17.817c0 0-.379 14.162 9.959 21.3s7.559 13.318 7.559 13.318 23.367-7 24.02-24.521c0 0 1 7.918.2 11.2 0 0 20.176-15.15 21.139-32.6s-15.886-32.183-23.553-32.455-24.792-15.327-24.33-21.022-23.711-14.192-23.711-14.192" data-name="Path 1335"/><path fill="#fff2e9" d="M359.032 228.528s13.817 8.377 23.65 7.4c9.736-.966 15.042-12.713 15.042-12.713a81.651 81.651 0 0 0-38.692 5.313" data-name="Path 1336"/><path d="M275.2 476.449c-8.628-5.3-18.208-1.356-26.668 3.308 3.081-3.416 2.708-6.233 2.225-7.925s-6.035 4.106-12 6.759-7.527 9.4-7.527 9.4c-2.154.08-10.925-4.782-18.716-9.38C178.7 456.71 119.632 362.385 117.922 354.2s74.041-81.6 97.063-108.742-13.9-106.6-49.69-92.614c0 0-103.312 122.018-137.5 190.76 0 0 35.63 77.535 148.015 146.9l-.166.138s31.862 20.1 46.607 24.995c15.337 5.083 37.066-5.722 45.888-7s27.195 6.281 32.611-.129-9.906-22.436-25.555-32.055" data-name="Path 1337" style="fill:#a76235" transform="translate(36.105 196.414)"/><path fill="#f99746" d="m201.4 349.259-46.41 45.34s10.6 66.949 80.841 75.692c0 0 57.652-46.159 23.2-94.238s-57.635-26.795-57.635-26.795" data-name="Path 1338"/></g></g></g></g><text style="fill:#333;font-family:&quot;Roboto Slab&quot;;font-size:132px;white-space:pre" transform="translate(-3765.915 5703.111)"><tspan x="3186.13" y="-6311.19" style="font-size:132px;word-spacing:0">&quot;Jeg hedder </tspan><tspan style="font-weight:700;font-size:132px;word-spacing:0">Ida</tspan><tspan style="font-size:132px;word-spacing:0"> og er lige fyldt 25 år&quot;</tspan></text></g></svg>