<?xml version="1.0" encoding="utf-8"?>
<svg xmlns="http://www.w3.org/2000/svg" xmlns:bx="https://boxy-svg.com" viewBox="-988.289 -2989.705 2974.198 833.599">
  <defs>
    <clipPath id="clip-path">
      <rect id="Rectangle_362" data-name="Rectangle 362" width="870.938" height="1058.047" fill="#323f51"/>
    </clipPath>
    <clipPath id="clip-path-2">
      <rect id="Rectangle_364" data-name="Rectangle 364" width="370.478" height="846.353" fill="none"/>
    </clipPath>
    
    <clipPath id="clip-5">
      <rect id="Rectangle_367" data-name="Rectangle 367" width="787.201" height="890.531" fill="none"/>
    </clipPath>
  </defs>
  <g id="Group_1051" data-name="Group 1051" transform="matrix(1, 0, 0, 1, -2750.010652, 10560.594803)">
    <g transform="matrix(1, 0, 0, 1, -48.274582, 38.277569)">
      <path id="Path_1296" data-name="Path 1296" d="M 2975.15 -13213.979 L 3173.464 -13213.979 C 4025.644 -13220.437 4734.032 -13113.022 4716.863 -13028.921 C 4692.432 -12909.247 4883.722 -12781.383 4514.147 -12837.397 C 4143.048 -12893.642 3613.495 -12843.861 3173.461 -12843.861 L 2975.15 -12843.861 C 2122.742 -12843.861 1651.326 -13074.125 1961.294 -13200.944 C 2103.209 -13259.006 2744.812 -13213.979 2975.15 -13213.979 Z" fill="#fff" style="" transform="matrix(0.99972, -0.023668, 0.023668, 0.99972, 309.164148, 72.540601)"/>
      <g id="Group_878" data-name="Group 878" transform="matrix(0.824548, 0, 0, 0.848458, 1754.807617, -13651.754883)" style="">
        <g id="Group_873" data-name="Group 873">
          <g id="Group_872" data-name="Group 872" clip-path="url(#clip-path)"/>
        </g>
      </g>
      <g id="Group_880" data-name="Group 880" transform="matrix(-0.965287, 0, 0, 0.885187, 2314.248535, -13575.152344)" style="">
        <g id="Group_879" data-name="Group 879" clip-path="url(#clip-path-2)">
          <path id="Path_1297" data-name="Path 1297" d="M272.962,270.1s-128.255,61.882-202.2,38.924c0,0,18.2-22.962,50.053-40.046-2.559-14.841-4.55-27.722-5.689-38.642C112,205.138,112,190.857,112,190.857l49.483-38.92,46.924-37.244c-3.7,104.726,64.554,155.41,64.554,155.41" transform="translate(34.461 55.852)" style="fill: rgb(155, 91, 49);"/>
          <path id="Path_1298" data-name="Path 1298" d="M0,749.131c.028-1.511.1-3.008.2-4.52v-1.4c.294-20.184.782-40.869,1.442-61.781.684-21.149,1.539-42.538,2.546-63.937.8-18.812,1.735-37.47,2.827-55.706,4.326-72.448,11.057-138.01,21.052-177.828.223-.883.448-1.75.685-2.619,15.411-57.358,48.975-95.527,79.516-123.393l25.586-22.41c2.14.422,4.3.8,6.452,1.12,23.667,3.612,48.414,1.427,73.174-10.623,29.576-14.29,61.433-29.687,66.554-25.769.476.352.938.7,1.413,1.066h.015c9.352,7.094,17.931,16.263,25.782,27.265.028,0,.028.013.028.013v.013a1.106,1.106,0,0,1,.1.141c1.82,2.532,3.6,5.163,5.3,7.893a.889.889,0,0,1,.141.211c.04.054.1.14.167.251s.141.225.225.349c.448.715,1.19,1.875,2.141,3.485.323.546.672,1.12,1.036,1.764.419.729.88,1.512,1.358,2.364q1.113,1.974,2.393,4.382c.281.532.575,1.077.883,1.651.459.9.952,1.833,1.441,2.815.168.32.321.644.491.98.293.575.586,1.161.88,1.75.729,1.5,1.5,3.065,2.268,4.715.769,1.624,1.541,3.319,2.352,5.081,1.077,2.451,2.2,5.039,3.331,7.755.561,1.344,1.133,2.715,1.694,4.129.112.266.208.547.323.812a406.991,406.991,0,0,1,14.724,45.937c.015.028.015.07.027.1,3.948,15.173,7.363,31.269,10.26,48.12,7.963,46.762,11.939,99.139,11.661,154.02,0,20.156-.575,40.883-1.71,61.318-2.238,36.434-3.008,71.3-2.9,103.674,0,1.063,0,2.128.015,3.19.013,2.128.028,4.227.042,6.328.015,1.581.028,3.161.055,4.73.03,1.805.042,3.612.071,5.389.028,1.624.04,3.233.07,4.828.013.2.013.393.013.589.013,1.022.042,2.043.056,3.065.07,3.038.128,6.061.2,9.057.055,1.988.1,3.975.15,5.934.073,2.21.128,4.407.2,6.578.04,1.665.1,3.316.153,4.955.028.727.057,1.456.071,2.168Z" fill="#2b478b" transform="translate(0 97.222)"/>
          <path id="Path_1299" data-name="Path 1299" d="M349.71,470.456c0,20.156-.575,40.883-1.709,61.318-2.238,36.434-3.01,71.3-2.9,103.674,0,1.063,0,2.128.015,3.19.013,2.128.03,4.227.042,6.328.015,1.581.028,3.161.057,4.73.028,1.805.042,3.612.07,5.389.028,1.624.042,3.233.07,4.828.013.2.013.393.013.589.015,1.022.042,2.043.056,3.065.07,3.038.128,6.061.2,9.057.055,1.988.1,3.975.152,5.934.071,2.21.126,4.407.2,6.578.042,1.665.1,3.316.155,4.955.027.727.055,1.456.071,2.168H51.581A109.18,109.18,0,0,1,43.3,660.181,132.49,132.49,0,0,1,42.622,646c.125-25.11,7.154-51.706,18.462-78.312,12.681-29.869,30.765-59.751,50.557-87.618,25.165-35.44,53.1-67.59,76.24-92.266v-.015c28.356-30.233,49.491-49.224,49.491-49.224l99.194-21.808,1.484-.323c7.964,46.762,11.939,99.139,11.661,154.02" transform="translate(20.754 154.094)" fill="#233862"/>
          <path id="Path_1300" data-name="Path 1300" d="M195.755,142.54s-32.417,59.082-94.129,75.6C98.5,192.941,98.5,178.66,98.5,178.66l49.483-38.92Z" transform="translate(47.965 68.049)" style="fill: rgb(117, 68, 36);"/>
          <path id="Path_1301" data-name="Path 1301" d="M91.142,230.039s122.351,20.015,133.836-55.2,35.014-123.29-42.619-139.25S85.13,46.077,75.1,70.266,59.611,222.894,91.142,230.039" transform="translate(32.758 14.964)" style="fill: rgb(155, 91, 49);"/>
          <path id="Path_1302" data-name="Path 1302" d="M282.4,41.546c1.112-1.274,3.673-2.3,9.375-2.613a23.133,23.133,0,0,0-10.653-3c-1.191-7.929-5.408-21.96-19.054-25.371,0,0,7.334,3.908,8.29,12.337C254.552,6.669,220.691-5.144,126.923,2.259,3.347,12.013,44.073,91.133,60.072,100.565s56.27-16.427,86.078-14.059,35.476,45.436,45.589,51.348,6.134-4.541,19.817-10.725,14.983,16.486,11.03,31.228,14.849,34.182,14.849,34.182l19-20.459c19-20.459,36.9-107.115,28.263-125.588-.763-1.633-1.517-3.285-2.3-4.946" fill="#323f51" transform="translate(19.808 0)"/>
          <path id="Path_1303" data-name="Path 1303" d="M309.254,595.03q-10.16,22.989-23.388,46.944-9.76,17.616-21.316,35.72c-7.572,11.842-21.75,25.25-40.129,39.387a.052.052,0,0,1-.028.015c-8.455,6.522-17.8,13.183-27.8,19.915H18.656c11.925-10.635,24.2-21.5,36.307-32.078,3.893-3.4,7.783-6.788,11.633-10.12,23.527-20.379,45.7-38.994,62.521-51.983h.015c13.563-10.441,23.641-17.216,28.132-18.266,7.029-1.651,13.957-27.267,20.939-63.615,7-36.432,14.067-83.658,21.347-128.391v-.013c8.956-55.077,18.236-106.346,28.147-129.078,25.949-59.639,75.889-78.927,75.889-78.927s.043.07.141.21c.042.055.1.14.168.251s.14.226.223.351c.448.714,1.19,1.874,2.141,3.484.323.547.672,1.12,1.036,1.764.419.729.88,1.514,1.358,2.366.742,1.316,1.539,2.772,2.393,4.381.283.534.575,1.078.883,1.651.459.9.952,1.835,1.441,2.815.168.321.321.645.491.98.293.575.586,1.161.88,1.75.729,1.5,1.5,3.066,2.268,4.717.769,1.624,1.541,3.317,2.352,5.081,1.077,2.449,2.2,5.039,3.331,7.755.561,1.343,1.133,2.715,1.694,4.128.112.268.208.547.323.812a361.027,361.027,0,0,1,14.724,45.938c.015.027.015.068.027.1a385.388,385.388,0,0,1,8.776,48.442c7.222,61.867,1.637,141.758-38.981,233.521" transform="translate(9.085 109.343)" fill="#2b478b"/>
        </g>
      </g>
      <text style="fill: rgb(51, 51, 51); font-family: &quot;Roboto Slab&quot;; font-size: 132px; white-space: pre;"><tspan x="2551.83" y="-12952.9">"Jeg hedder </tspan><tspan style="font-weight: 700;">Yunnus</tspan><tspan> og er 21 år."</tspan></text>
    </g>
    <g transform="matrix(1, 0, 0, 1, -579.231018, -1098.350342)">
      <g transform="matrix(1, 0, 0, 1, -436.673615, -3759.133301)">
        <g>
          <path id="path-6" data-name="Path 1296" d="M 3890.901 -6581.568 L 4062.406 -6581.568 C 4799.56 -6581.568 5581.423 -6528.724 5581.423 -6426.461 C 5581.423 -6424.312 5633.328 -6282.555 5634.768 -6280.796 C 5771.281 -6114.131 4965.49 -6188.056 4243.814 -6188.056 C 4240.708 -6205.182 3235.829 -6108.739 2922.391 -6176.129 C 2888.357 -6183.447 2729.666 -6297.187 2692.705 -6315.866 C 2617.824 -6353.709 2675.358 -6487.231 2692.226 -6499.342 C 2841.501 -6606.523 3153.181 -6551.602 3890.901 -6581.568 Z" fill="#fff" style="" transform="matrix(0.99972, -0.023668, 0.023668, 0.99972, 151.851192, 96.500414)"/>
          <g id="Group_1052" data-name="Group 1052" transform="matrix(0.986523, 0, 0, 0.915957, -323.707581, 4222.46875)" style="">
            <g id="Group_884" data-name="Group 884" transform="translate(2934 -12194.172)">
              <g id="Group_883" data-name="Group 883">
                <g id="Group_882" data-name="Group 882" clip-path="url(#clip-5)">
                  <path id="Path_1308" data-name="Path 1308" d="M33.284,0,0,11.1V0Z" transform="translate(-0.001 -0.001)" fill="#f8fbff"/>
                  <path id="Path_1310" data-name="Path 1310" d="M344.575,625.915c-.883-13.189-29.719-45.72-29.719-45.72-19.422-45.074-37.492-150.848-37.492-150.848-3.311-123.543-17.307-195.075-28.634-233.611-7.23-24.652-13.4-35.8-14.978-38.439-.251-.423-.386-.635-.386-.635a4.526,4.526,0,0,0-.441.423,143.878,143.878,0,0,0-11.442,11.92c-77.685,90.32-11.325,234.979-9.288,268.036,2.117,34.609,75.751,148.133,75.751,148.133,2.538,8.382,3.722,14.1,1.573,21.162-2.536,8.325,10.38,17.383,11.948,25.146s5.7,7.394,7.283,5.067S305.214,619.692,304.7,616s7.867,8.7,9.794,16.868-6.083,28.517,6.736,25.68,24.222-19.443,23.342-32.629" transform="translate(238.826 203.502)" style="fill: rgb(167, 98, 53);"/>
                  <path id="Path_1311" data-name="Path 1311" d="M156.18,85.311s-.637,13.73,7.6,16.419-8.486,32.314-7.171,52.325S166.77,182.1,166.77,182.1s-4.251-11.005-1.874-17.812c0,0-.379,14.157,9.959,21.3s7.559,13.316,7.559,13.316,23.365-7,24.02-24.521c0,0,1,7.922.2,11.2,0,0,20.176-15.15,21.139-32.6s-15.886-32.181-23.553-32.45S179.421,105.2,179.885,99.5s-23.7-14.192-23.7-14.192" transform="translate(202.861 110.817)" fill="#2c3a64"/>
                  <path id="Path_1312" data-name="Path 1312" d="M294.454,48.428c-13.594-20.643-67.574-9.09-120.563,25.808S88.966,154.159,102.563,174.8,170.136,183.891,223.126,149s84.927-79.924,71.328-100.567" transform="translate(129.159 49.607)" fill="#e2af64"/>
                  <path id="Path_1313" data-name="Path 1313" d="M329.511,476.152H143.3c-.887-4.934-1.8-9.824-2.683-14.651-2.729-14.7-5.345-28.825-7.856-42.131l7.7-2.49,83.292-26.857,4.285-13.589,7.205-22.873,5.736-18.222,18.546-4.89,16.553-4.352a.21.21,0,0,1,.11-.021L303,319a42.929,42.929,0,0,1,1.819,4.586c2.055,5.929,5.69,18.351,10.019,41.57,4.046,21.661,8.679,52.736,13.18,96.686.3,2.9.6,5.842.906,8.876q.166,1.721.326,3.437c.085.671.175,1.322.26,1.993" transform="translate(172.453 414.379)" fill="#2b478b"/>
                  <path id="Path_1314" data-name="Path 1314" d="M329.511,479.381H143.3c-.887-4.934-1.8-9.824-2.683-14.651-2.729-14.7-5.345-28.825-7.856-42.131l7.7-2.49,83.292-26.857,4.285-13.589,7.205-22.873,5.736-18.222,18.438-5.5,5.952-1.752,49.7-14.8.368,5.715c.5,6.945,1.538,20.946,3.681,45.616,1.945,22.546,4.8,54.033,8.936,97.226q.421,4.352.864,8.876.166,1.721.326,3.437c.085.671.175,1.322.26,1.993" transform="translate(172.453 411.149)" fill="#233862"/>
                  <path id="Path_1315" data-name="Path 1315" d="M267.529,72.786,172.276,217.307s-10.89-21.335-22.985-13.681c-18.87,11.925-59.41-28.889-50.957-86.513.559-3.766,1.221-7.345,1.954-10.745C119.293,78.984,140.4,48.5,155.544,27.061,199.286.644,267.529,72.786,267.529,72.786" transform="translate(126.247 27.597)" fill="#2c3a64"/>
                  <path id="Path_1316" data-name="Path 1316" d="M302.388,261.237c-13.329,12.212-30.639,23.142-53.079,31.639-84.115,31.875-127.377-37-146.728-85.681,10.922-8.384,21.861-11.394,28.195-13.04,6.175-1.593,12.709-2.984,18.137-4,8.736-8.8,19.111-41.34,15.87-89.24l4.232.538L240,110.884s-.175,22.183,1.087,42.954c1,16.254,2.906,31.659,6.462,35.009,5.5.43,8.807.749,8.807.749a.169.169,0,0,0,.044.06,444.8,444.8,0,0,1,45.984,71.581" transform="translate(133.251 131.093)" style="fill: rgb(167, 98, 53);"/>
                  <path id="Path_1317" data-name="Path 1317" d="M202.473,110.584s-.189,22.164,1.085,42.954c-39.3,1.391-62.321-33.078-72.08-52.378Z" transform="translate(170.787 131.405)" style="fill: rgb(138, 86, 51);"/>
                  <path id="Path_1318" data-name="Path 1318" d="M225.544,200.924s-92.727,7.439-96.472-50.378-18.236-95.8,40.812-102.992,71.99,14.125,77.931,33.117,1.752,116.83-22.27,120.253" transform="translate(162.074 59.914)" style="fill: rgb(167, 98, 53);"/>
                  <path id="Path_1319" data-name="Path 1319" d="M258.894,55.124c-15.456-16.477-26.054-11.973-31.8-6.357-52.513-24.661-82.582,18.659-82.582,18.659-3.57,41.881-31.974,67.551-31.974,67.551s17.585,9.378,55.953-3.136c11.718-3.826,21.817-12.969,30.2-23.813-14.1,27.464-34.372,47.895-34.372,47.895,45.221-24.5,59.806-90.492,61.236-97.463,5.989,4.727,17.863,15.072,21.958,25.691,5.566,14.428,9.578,44.6,18.344,43.014,0,0,16.212-47.327-6.966-72.041" transform="translate(146.189 53.487)" fill="#2c3a64"/>
                  <path id="Path_1320" data-name="Path 1320" d="M105.271,153.878S62.147,68.041,122.408,34.11,226.779,13.5,259.931,55Z" transform="translate(117.332 19.281)" fill="#edbd77"/>
                  <path id="Path_1321" data-name="Path 1321" d="M363.826,35.7c-11.447-18.35-49.251-17.052-96.166.131q-5.911,2.141-11.989,4.651h-.023a434.573,434.573,0,0,0-64.162,33.177c-27.222,16.985-50.918,35.574-69.528,53.732-1.927,1.881-3.786,3.766-5.607,5.626-26.1,26.944-40.51,52.5-37.869,70.027a22.024,22.024,0,0,0,3.117,8.743c7.964,12.746,28.673,15.992,56.371,10.994a239.31,239.31,0,0,0,39.255-10.906h.023c4.393-1.6,8.83-3.334,13.373-5.193-.2-.216-.391-.414-.584-.609-.736-.754-1.515-1.49-2.338-2.186l-.844-.646a16.774,16.774,0,0,0-2.835-1.71c-.193-.085-.345-.17-.54-.258h-.046a1.052,1.052,0,0,1-.149-.067,12.052,12.052,0,0,0-1.927-.584,3.612,3.612,0,0,0-.474-.087,3.819,3.819,0,0,0-.5-.062,6.914,6.914,0,0,0-.972-.067h-.152c-.239,0-.453.021-.692.041-.258.025-.5.044-.756.087-.3.064-.609.131-.91.216-.283.087-.563.175-.844.283a8.421,8.421,0,0,0-1.018.453c-.345.175-.69.366-1.035.584a12.871,12.871,0,0,1-3.552,1.559,14.975,14.975,0,0,1-4.437.5h-.023c-.255,0-.538-.023-.818-.044-.347-.044-.694-.064-1.039-.108-.347-.064-.717-.11-1.085-.172-.582-.131-1.166-.26-1.752-.432h-.041c-.476-.154-.952-.3-1.428-.478-.455-.152-.887-.324-1.343-.494-.044-.025-.108-.046-.152-.069-.368-.152-.715-.3-1.081-.478-.692-.343-1.432-.708-2.143-1.1-.368-.193-.717-.412-1.085-.625s-.713-.455-1.081-.692-.713-.476-1.081-.717c-.368-.26-.715-.517-1.083-.8-.368-.262-.715-.543-1.085-.825h-.016a27.681,27.681,0,0,1-7.449-2.269c-.234-.131-.474-.239-.69-.368a.168.168,0,0,0-.09-.046,15.286,15.286,0,0,1-5.083-4.393c-.175-.26-.347-.52-.52-.777a15.379,15.379,0,0,1-1-1.86,17.562,17.562,0,0,1-1-9.373v-.021c2.184-16.251,21.252-39.752,50.1-61.631.625-.478,1.255-.952,1.883-1.428,6.253-4.651,12.941-9.24,19.994-13.635A262.892,262.892,0,0,1,255.171,76.93h.3c5.108-1.862,9.759-3.419,14.456-4.653h.021c1.3-.347,2.6-.648,3.853-.952h.023a100.525,100.525,0,0,1,14.932-2.4h.021c.37-.044.736-.067,1.081-.09,12.488-.821,21.707,1.818,25.732,8.29,3.483,5.6,2.724,13.4-1.559,22.4a.385.385,0,0,1,.021.152c.368,1.448.671,2.922.908,4.393.131.648.216,1.3.306,1.968.018.023.018.041.018.087.067.5.129,1.018.175,1.536v.023c.044.237.064.5.108.733,0,.044.023.09.023.133,0,.064.021.126.021.193.041.517.085,1.037.131,1.538.021.28.041.538.062.8.023.543.067,1.083.087,1.623.044.738.067,1.474.085,2.184a97.943,97.943,0,0,1-.3,10.217c-.064.671-.108,1.32-.172,1.968-.021.2-.044.391-.067.584C355.473,91.1,375.9,55.051,363.826,35.7" transform="translate(101.543 29.149)" fill="#ffcf83"/>
                  <path id="Path_1322" data-name="Path 1322" d="M383.248,226.234c-11.541-57.734-47.3-74.269-47.3-74.269s-5.943-9.007-39.159-10.424c-5.17-.214-10.819-1.283-17.114-1.786-1.258-.085-2.538-.184-3.858-.267a.341.341,0,0,0,.041.064c1.264,1.94,34.772,53.46,32.912,67.3-1.9,14.1-123.874,9.274-132.711,2.159-7.088-5.738-19.4-44-23.99-58.962-1.163-3.727-1.846-6.01-1.846-6.01s-42.593,7.43-62.624,24.02c0,0,15.327,16.822,25.567,37.5.968,1.973,1.894,3.936,2.754,5.945a87.525,87.525,0,0,1,4.467,12.925c1.464,5.752.14,11.677-2.963,18.049-2.789,5.83-7.118,12.086-12.1,18.875-3.281,4.409-6.819,9.086-10.419,14.079,2.533,8.417,5.837,18.507,9.5,29.912,7.531,23.473,16.5,52.46,22.9,83.681a79.794,79.794,0,0,1-.8,35.4,81.636,81.636,0,0,1-4.635,13.474c-3.046,6.819-3.8,16.21-7.21,25.022-13.939,36.1-30.029,83.2-13.907,107.8,10.755,31.443,259.817-44.92,243.053-77.889,0,0,9.929-172.987,16.783-226.571.223-1.966.407-3.862.508-5.77a82.963,82.963,0,0,0-.016-8.886c21.59-9.83,22.169-25.372,22.169-25.372" transform="translate(113.796 181.193)" fill="#f99746"/>
                  <path id="Path_1323" data-name="Path 1323" d="M206.438,378.374c-35.871,11.493-70.8,16.429-98.509,18.433,3.416-8.812,5.941-16.8,8.984-23.617a81.633,81.633,0,0,0,4.635-13.474,79.8,79.8,0,0,0,.8-35.4c-6.4-31.216-23.4-84.471-30.935-107.942,20.125-44.885,40.922-20.406,40.922-20.406s60.822,27.28,86.713,77.565,18.341,94.923-12.615,104.84" transform="translate(118.75 245.905)" fill="#ed7d2b"/>
                  <path id="Path_1324" data-name="Path 1324" d="M107.68,144.9s57.925,37.018,72.735,115.057l17.516-5.561s-6.78-55.709-73.779-112.924Z" transform="translate(139.874 183.773)" fill="#2b478b"/>
                  <path id="Path_1325" data-name="Path 1325" d="M229.811,264.366l-18.341,1.2c3.674-67.661-30.282-113.852-40.32-125.961,6.292.506,11.994,1.115,17.111,1.791,48.035,69.5,41.549,122.968,41.549,122.968" transform="translate(222.321 181.347)" fill="#2b478b"/>
                  <path id="Path_1326" data-name="Path 1326" d="M373.985,500.026,361.2,306.135s-12.424-88.164-12.608-103.571-12.626-22.919-12.626-22.919-91.309,4.814-117.046,6.262S195.77,202,195.77,202s11.221,46.846,12.355,51.667c17.33,73.623-81.752,118.607-81.752,118.607S110.3,413.865,97.831,453.7C76.456,522.007,95.546,620,95.546,620l.011,0c.517,8.419,1.124,21.273,1.773,37.177H302.848c.908-4.283,1.968-9.132,3.18-14.458,4.653-20.272,11.58-47.131,21.229-73.032,2.317-6.235,4.784-12.424,7.423-18.459,7.377-16.838,16.035-32.418,26.075-44.471.391-.474.435-.841.218-1.124Z" transform="translate(113.921 233.355)" fill="#2b478b"/>
                  <path id="Path_1327" data-name="Path 1327" d="M139.209,195.714a7.692,7.692,0,1,1,9.658,5,7.689,7.689,0,0,1-9.658-5" transform="translate(180.359 241.212)" fill="#ed7d2b"/>
                  <path id="Path_1328" data-name="Path 1328" d="M139.781,195.534a7.692,7.692,0,1,1,9.66,5,7.69,7.69,0,0,1-9.66-5" transform="translate(181.102 240.976)" fill="#f99746"/>
                  <path id="Path_1329" data-name="Path 1329" d="M140.692,189.484a1.117,1.117,0,1,1,1.115,1.117,1.118,1.118,0,0,1-1.115-1.117" transform="translate(182.756 244.688)" fill="#2b478b"/>
                  <path id="Path_1330" data-name="Path 1330" d="M143.867,189.488a1.118,1.118,0,1,1,1.115,1.12,1.117,1.117,0,0,1-1.115-1.12" transform="translate(186.88 244.695)" fill="#2b478b"/>
                  <path id="Path_1331" data-name="Path 1331" d="M188.455,191.463a7.692,7.692,0,1,1,9.658,5,7.689,7.689,0,0,1-9.658-5" transform="translate(244.328 235.69)" fill="#ed7d2b"/>
                  <path id="Path_1332" data-name="Path 1332" d="M189.028,191.282a7.692,7.692,0,1,1,9.658,5,7.685,7.685,0,0,1-9.658-5" transform="translate(245.072 235.455)" fill="#f99746"/>
                  <path id="Path_1333" data-name="Path 1333" d="M189.939,185.234a1.117,1.117,0,1,1,1.113,1.117,1.115,1.115,0,0,1-1.113-1.117" transform="translate(246.727 239.167)" fill="#2b478b"/>
                  <path id="Path_1334" data-name="Path 1334" d="M193.113,185.239a1.118,1.118,0,1,1,1.115,1.117,1.117,1.117,0,0,1-1.115-1.117" transform="translate(250.85 239.173)" fill="#2b478b"/>
                  <path id="Path_1335" data-name="Path 1335" d="M102.4,90.1s-.637,13.732,7.6,16.417-8.486,32.314-7.173,52.327,10.164,28.045,10.164,28.045-4.251-11.008-1.874-17.817c0,0-.379,14.162,9.959,21.3s7.559,13.318,7.559,13.318,23.367-7,24.02-24.521c0,0,1,7.918.2,11.2,0,0,20.176-15.15,21.139-32.6s-15.886-32.183-23.553-32.455-24.792-15.327-24.33-21.022S102.4,90.1,102.4,90.1" transform="translate(133.005 117.041)" fill="#2c3a64"/>
                  <path id="Path_1336" data-name="Path 1336" d="M156.17,102.668s13.817,8.377,23.65,7.4c9.736-.966,15.042-12.713,15.042-12.713a81.651,81.651,0,0,0-38.692,5.313" transform="translate(202.862 125.86)" fill="#fff2e9"/>
                  <path id="Path_1337" data-name="Path 1337" d="M275.2,476.449c-8.628-5.3-18.208-1.356-26.668,3.308,3.081-3.416,2.708-6.233,2.225-7.925s-6.035,4.106-12,6.759-7.527,9.4-7.527,9.4c-2.154.08-10.925-4.782-18.716-9.38C178.7,456.71,119.632,362.385,117.922,354.2s74.041-81.6,97.063-108.742-13.9-106.6-49.69-92.614c0,0-103.312,122.018-137.5,190.76,0,0,35.63,77.535,148.015,146.9l-.166.138s31.862,20.1,46.607,24.995c15.337,5.083,37.066-5.722,45.888-7s27.195,6.281,32.611-.129-9.906-22.436-25.555-32.055" transform="translate(36.105 196.414)" style="fill: rgb(167, 98, 53);"/>
                  <path id="Path_1338" data-name="Path 1338" d="M113.827,154.571l-46.41,45.34s10.6,66.949,80.841,75.692c0,0,57.652-46.159,23.2-94.238s-57.635-26.795-57.635-26.795" transform="translate(87.573 194.688)" fill="#f99746"/>
                </g>
              </g>
            </g>
          </g>
        </g>
        <text style="fill: rgb(51, 51, 51); font-family: &quot;Roboto Slab&quot;; font-size: 132px; white-space: pre;"><tspan x="3186.13" y="-6311.19" style="font-size: 132px; word-spacing: 0px;">"Jeg hedder </tspan><tspan style="font-weight: 700; font-size: 132px; word-spacing: 0px;">Ida</tspan><tspan style="font-size: 132px; word-spacing: 0px;"> og er lige fyldt 25 år"</tspan></text>
      </g>
    </g>
  </g>
</svg>
