<svg viewBox="-4.2 61.64 805.083 469.048" xmlns="http://www.w3.org/2000/svg"><defs><clipPath id="PræstationOmsorg_svg__b"><path d="M0 0h1166v1094H0z"/></clipPath><clipPath id="PræstationOmsorg_svg__a"><path d="M0 0h1166v1094H0z"/></clipPath><clipPath id="PræstationOmsorg_svg__g"><path d="M0 0h545v513H0z"/></clipPath><clipPath id="PræstationOmsorg_svg__c"><path d="M0 0h1166v1094H0z"/></clipPath><clipPath id="PræstationOmsorg_svg__d"><path d="M0 0h545v513H0z"/></clipPath><clipPath id="PræstationOmsorg_svg__e"><path d="M0 0h1166v1094H0z"/></clipPath><clipPath id="PræstationOmsorg_svg__f"><path d="M0 0h545v513H0z"/></clipPath></defs><g><path fill="#fff" d="M-2075.802-1678.663c326.959 96.69 614.368 18.491 801.086 97.633 107.93 45.747 207.593 206.14 211.677 265.936 11.187 163.788 126.669 255.648-742.299 349.392-378.534 40.836-494.954 6.019-592.519-158.49-150.335-253.487-99.584-679.161 322.055-554.471Z" data-name="Path 485" transform="matrix(.53566 0 0 .59415 1352.7 1086.284)"/><g clip-path="url(#PræstationOmsorg_svg__b)" transform="matrix(.53566 0 0 .59415 64.41 -38.703)"><path fill="#840729" d="M224.874 414.283c43.439-3.642 85.728-5.355 128.813 3.228 43.397 8.645 85.453 24.752 125.115 45.939 16.583 8.862 34.722 21.557 37.006 41.894 1.424 12.69-3.927 25.061-9.651 36.197-8.312 16.146-18.056 31.945-31.719 42.685-24.23 19.048-56.122 19.064-85.707 18.236-74.356-2.075-148.858-4.81-222.515-16.005-26.62-4.046-53.301-9.256-78.354-19.973-13.615-5.825-28.045-15.061-31.633-30.803-5.147-22.595 13.082-43.714 28.598-54.986 31.044-22.555 37.862-31.032 73-42.46 14.929-4.856 41.994-18.766 80.94-25.098" data-name="Path 486"/><path fill="#557591" d="M825.503 714.743c43.402 7.184 85.821 12.675 129.992 9.845a522.6 522.6 0 0 0 95.043-15.259c23.217-5.892 60.264-11.467 76.57-29.502a68.992 68.992 0 0 0 13.586-23.086 47.967 47.967 0 0 0 2.265-23.211c-1.345-8.519-7.059-15.939-13.781-21.815-33.236-29.06-78.134-31.545-121.279-34.711-75.059-5.506-155.794-23.801-225.517-8.501-132.364 29.045-91.015 85.62-22.169 120.189 16.525 8.298 40.545 19.391 79.18 28.339" data-name="Path 490" transform="rotate(180 919.58 643.94)"/><path fill="#27303e" d="M959.002 769.456c-7.398 2.049-102.761-18.416-109.643-19.67-55.051-10.064-73.98-14.232-128.903-25.092-34.048-6.728-102.058-16.611-139.648-24.015 12.224 14.835 28.311 44.069 37.127 57.6 18.291 28.063 52.913 38.273 84.967 32.371 10.9-2.007 23.724-1.748 28.692 12.04 6.101 16.921 7.464 35.235-1.996 51.185-3.141 5.296-12.097 9.193-18.414 9.232-94.639.574-189.28.416-283.917.33a25.044 25.044 0 0 1-9.841-1.668c-12.747-5.564-18.432-26.304-13.748-50.302 2.781-14.238 10.961-21.599 24.673-21.102a25.352 25.352 0 0 1 4.339.035c34.86 7.578 65.356 8.456 85.175-21.862 10.206-15.602 37.36-51.126 51.342-67.852-22.295-4.539-64.197-17.586-84.195-21.558-78.111-15.483-150.234-37.813-232.358-42.222-7.304-.392-55.592-11.013-60.736-13.405l-54.077-8.956c-26.194-16.204-10.32-14.933-4.687-13.874 83.778 15.741 290.29 56.1 373.96 72.518a217521.172 217521.172 0 0 1 360.196 71.009c7.683 1.529 91.089 14.916 98.499 18.051l-6.807 7.207Zm-247.816 37.655c-30.154-25.457-258.469-1.611-283.916-4.421-25.45-2.809-5.326 51.185-5.326 51.185s284.377 13.458 293.803-5.268c9.423-18.727 0-4.374 0-4.374s25.595-11.668-4.56-37.124l-.001.002Zm-83.132-17.583-58.846-69.556-58.519 69.556h117.365Z" data-name="Path 488"/><text x="1305.907" y="610.781" style="white-space:pre;fill:#333;font-family:&quot;Roboto Slab&quot;;font-size:67.4px">Enter your text here.</text></g><text style="fill:#fff;font-family:&quot;Roboto Slab&quot;;font-size:28px;font-weight:600;white-space:pre" transform="matrix(1.1825 0 0 1.59028 131.065 273.262)">Præstation</text><text style="fill:#fff;font-family:&quot;Roboto Slab&quot;;font-size:28px;font-weight:600;white-space:pre" transform="matrix(1.14006 0 0 1.44047 458.347 354.177)">Selvomsorg</text><g data-name="Group 656"><path fill="#6c85a0" d="m-2706.06-37.415 11.613-8.993c-32.339 10.544-58.935 7.096-77.654-16.196-25.894-32.214 1.963-82.863 64.861-74.023l-30.093-9.814c4.516-23.852 29.299-39.444 58.106-36.512 27.166 2.764 48.211 23.151 47.119 46.26-9.337.679-18.781 1.357-28.892 2.097l1.022 14.189c10.491-.932 20.339-1.751 30.171-2.7 29.647-2.856 59.292-5.8 88.946-8.638 6.541-.628 13.362-.818 8.208-9.896l-80.162 4.081c-6.553-14.328-10.297-28.722-19.124-40.35-15.295-20.146-39.448-26.682-66.197-22.276-27.624 4.553-44.751 19.814-50.528 43.182-2.001 8.085-4.666 12.166-14.866 14.486-34.684 7.876-54.474 38.315-45.859 68.208 8.491 29.499 42.055 48.859 76.978 44.402 7.18-.905 12.638-2.255 18.721 4.428 23.6 25.914 60.908 31.56 93.034 15.244 27.635-14.053 38.086-45.545 24.556-73.921-.713-1.49-1.166-3.073-2.148-5.701 21.486-7.344 42.793-14.362 63.751-22.04 3.883-1.42 6.372-5.523 9.504-8.384l-3.523-3.431c-40.156 11.761-80.328 23.516-121.846 35.665l6.424 13.273c9.864-2.992 18.708-5.686 27.448-8.335 13.837 20.962 5.58 45.388-19.366 58.879-22.393 12.136-53.423 6.668-70.204-13.184Z" data-name="Path 611" transform="matrix(.1361 .00801 -.00585 .17367 463.72 197.44)"/></g></g><g data-name="Group 186" transform="matrix(.63169 0 0 .57688 482.365 348.884)"><path fill="none" stroke-linecap="round" stroke-linejoin="round" stroke-width="3" d="m-544.863-339.468 8.007 24.489 39.292 8.6" data-name="Path 403" style="stroke:#6c85a0" transform="translate(74.073 70.738)"/><path fill="none" stroke-linecap="round" stroke-linejoin="round" stroke-width="3" d="M-529.4-377.245c10.358 9.684 22.343 16.711 38.442 23.739" data-name="Path 404" style="stroke:#6c85a0" transform="translate(87.041 42.946)"/><path fill="none" stroke-linecap="round" stroke-miterlimit="10" stroke-width="2" d="M-590.922-383.08a7.631 7.631 0 0 0-4.864-1.742 2.2 2.2 0 0 0-1.328.285 1.6 1.6 0 0 0-.552 1.641 3.117 3.117 0 0 0 .959 1.53 6.11 6.11 0 0 0 4.184 1.677c-1.576.921-5.112 3.632-4.415 5.816.959 3 8.486 1.919 8.238-1.571" data-name="Path 405" style="stroke:#6c85a0" transform="translate(36.596 38.57)"/><path fill="none" stroke-miterlimit="10" stroke-width="4.269" d="M-537.533-424.5c13.592 4.3 23.626 15.786 31.5 27.672A182.519 182.519 0 0 1-477.6-321.8c.723 5.145 1.215 10.471-.208 15.467-1.8 6.343-6.512 11.476-11.717 15.525-9.876 7.688-21.839 12.262-33.955 15.4-10.3 2.666-21.088 4.379-31.573 2.56s-20.686-7.623-25.741-16.988c-2.991-5.539-4.018-11.9-5-18.118q-1.449-9.186-2.9-18.369c-2.588-16.4-5.179-33.09-2.82-49.524s10.462-32.859 24.775-41.264c4.557-2.68 9.719-7.862 15-8.057 11.469-.419 5.962-.52 14.2.663" data-name="Path 407" style="stroke:#6c85a0" transform="translate(40.335 9.754)"/><path fill="none" stroke-linecap="round" stroke-width="7" d="M-506.571-411.395c-8.491 8.463-22.76 13.924-34.265 16.826a123.291 123.291 0 0 1-24.572 3.615c-7.528.34-16.525.227-24.259-3.347" data-name="Path 408" style="stroke:#6c85a0" transform="translate(39.268 18.831)"/><g data-name="Group 185"><path d="M-545.453-423.811c5.779-1.8 11.083-3.42 16.361-5.117 1.735-.557 3.782-.974 3.724-3.451-.058-2.453-1.988-4.967-4.4-5.073a13.212 13.212 0 0 0-6.054 1.113c-5.032 2.394-8.351 6.329-9.631 12.528Z" data-name="Path 409" style="stroke:#6c85a0;fill:#6c85a0" transform="translate(73.654 1.237)"/><path d="M-551.4-422.8c2.15-3.733 4.352-7.469 6.457-11.26.737-1.328 1.5-2.818-.031-4.164-1.473-1.292-4.22-1.4-5.529.162a13.8 13.8 0 0 0-2.666 5A11.869 11.869 0 0 0-551.4-422.8Z" data-name="Path 410" style="stroke:#6c85a0;fill:#6c85a0" transform="translate(67.846)"/><path d="M-543.631-418.58c4.047-.321 7.886-.5 11.684-1.007 1.065-.142 2.69-1.089 2.856-1.909a3.166 3.166 0 0 0-2.348-3.945 11.685 11.685 0 0 0-5.141.359 10.893 10.893 0 0 0-7.051 6.502Z" data-name="Path 411" style="stroke:#6c85a0;fill:#6c85a0" transform="translate(74.946 9.664)"/></g><circle cx="4.318" cy="4.318" r="4.318" fill="none" stroke-width="2" data-name="Ellipse 35" style="stroke:#6c85a0" transform="translate(-544.014 -354.525)"/><path fill="none" stroke-linecap="round" stroke-miterlimit="10" stroke-width="2" d="M-586.619-393.8c3.391.709 5.933 2.514 8.457 4.829" data-name="Path 412" style="stroke:#6c85a0" transform="translate(44.459 32.203)"/><circle cx="1.522" cy="1.522" r="1.522" data-name="Ellipse 36" style="stroke:#6c85a0;fill:#6c85a0" transform="translate(-542.982 -351.665)"/><path fill="none" stroke-linecap="round" stroke-linejoin="round" stroke-width="3" d="m-604.049-357.8 39.933 14.946 30.366-25.757" data-name="Path 413" style="stroke:#6c85a0" transform="translate(32.098 50.067)"/><path fill="none" stroke-linecap="round" stroke-linejoin="round" stroke-width="3" d="m-539.131-350.533-39.113 18.262-9.341 47.415" data-name="Path 414" style="stroke:#6c85a0" transform="translate(43.774 62.89)"/><path fill="none" stroke-linecap="round" stroke-linejoin="round" stroke-width="3" d="m0 0 17.914 3.004" data-name="Line 1" style="stroke:#6c85a0" transform="translate(-562.031 -224.868)"/><path fill="none" stroke-linecap="round" stroke-linejoin="round" stroke-width="3" d="M0 17.645 4.31 0" data-name="Line 2" style="stroke:#6c85a0" transform="translate(-428.179 -235.364)"/></g><g data-name="Group 656"><g data-name="Group 322"><g data-name="Group 256"><g fill="none" stroke-width="7" data-name="Group 658"><path stroke-linecap="round" stroke-linejoin="round" d="M192.423 0C138.855 9.074 12.052 2.631 1.107 6.085c-21.6 38.228 279.885 10.351 292.233 102.249" data-name="Path 419" style="stroke:#6c85a0" transform="matrix(.15692 -.00822 .00932 .17776 571.365 304.691)"/><path stroke-linecap="round" stroke-linejoin="round" d="M94.8 0c52.075 10.14 175.344 2.941 185.984 6.8 21 42.72-291.4 15.164-280.51 98.08" data-name="Path 1048" style="stroke:#6c85a0" transform="matrix(.15692 -.00822 .00932 .17776 593.14 304.676)"/><path stroke-miterlimit="10" d="M.273 542.03c-.913 16.524.159 33.759 7.861 48.409 10.626 20.223 31.913 32.225 52.412 42.3 51.9 25.532 108.427 46.377 166.135 42.492s116.519-37.882 134.526-92.846c7.889-24.066 7.571-49.937 7.169-75.262l-3.353-214.005c-1.431-90.97-3.256-205-82.1-266.715C228.41-16.268 180.54-6.721 147.361 51.444c-35.7 62.575-42.477 143.389-61.082 211.931C61.356 355.154 5.576 446.269.273 542.03Z" data-name="Path 421" style="stroke:#6c85a0" transform="matrix(.15692 -.00822 .00932 .17776 569.788 185.31)"/><path stroke-linecap="round" stroke-linejoin="round" d="M64.162 192.269C38.632 170.33 21.87 144.4 8.4 107.425 1.515 88.494-3.39 65.833 2.905 46.51 7.279 33.1 16.4 23.661 26 17.152 61.548-6.932 66.089 18.513 103.369 0" data-name="Path 422" style="stroke:#6c85a0" transform="matrix(.02082 -.17613 .15587 .02588 547.495 265.146)"/><path stroke-linecap="round" stroke-linejoin="round" d="M51.246 0C22.37 10.46.027 53.858 0 99.529c0 10.82 1.149 21.812 4.333 31.457 5.909 17.914 17.848 28.871 29.267 38.592 40.667 34.617 43.258-20.7 86.139 6.876" data-name="Path 423" style="stroke:#6c85a0" transform="matrix(.01535 -.17685 .15644 .01969 630.645 268.795)"/></g></g><path fill="#323f51" d="M10.955 9.451a34.11 34.11 0 0 1-9.53-5.184C.018 3.2-.615 2 .784.7 2.125-.531 3.5.049 4.757.988 14.609 8.314 25.466 8.7 37.028 4.141c.576-.227 1.166-.43 1.733-.669 1.427-.6 2.8-.64 3.631.634.866 1.323.352 2.462-1.269 3.156-9.693 4.138-19.662 5.726-30.168 2.189Z" data-name="Path 498" style="stroke:#6c85a0" transform="matrix(-.14635 .06275 -.05735 -.1665 601.052 211.26)"/><path fill="#323f51" d="M10.955 9.451a34.11 34.11 0 0 1-9.53-5.184C.018 3.2-.615 2 .784.7 2.125-.531 3.5.049 4.757.988 14.609 8.314 25.466 8.7 37.028 4.141c.576-.227 1.166-.43 1.733-.669 1.427-.6 2.8-.64 3.631.634.866 1.323.352 2.462-1.269 3.156-9.693 4.138-19.662 5.726-30.168 2.189Z" data-name="Path 499" style="stroke:#6c85a0" transform="matrix(-.154 -.0381 .03164 -.17384 619.365 212.481)"/></g><path fill="none" stroke-linecap="round" stroke-miterlimit="10" stroke-width="5" d="M27.787 12.128c-1.64-4.7-5.63-8.582-9.858-11.012A6.285 6.285 0 0 0 14.2.024a4.573 4.573 0 0 0-3.63 3.369 8.936 8.936 0 0 0 .33 5.159 17.5 17.5 0 0 0 8.241 9.92C13.912 18.64 1.325 20.637.1 27.084c-1.686 8.865 18.727 16.4 22.863 7.279" data-name="Path 604" style="stroke:#6c85a0" transform="matrix(.13558 -.08803 .07954 .15465 603.789 234.808)"/><path fill="none" stroke-linecap="round" stroke-miterlimit="10" stroke-width="5" d="M6.729 0C5.021 2.986 3.241 5.938 1.491 8.894a10.005 10.005 0 0 0 .343 11.038c3.618 5 15.234 8.911 19.02 9.966 11.323 3.166 11.666-8.115 14.694-13.4" data-name="Path 605" style="stroke:#6c85a0" transform="matrix(.13558 -.08803 .07954 .15465 609.947 222.613)"/><path fill="none" stroke-linecap="round" stroke-miterlimit="10" stroke-width="5" d="M6.729 0C5.02 2.986 3.241 5.938 1.49 8.894a10 10 0 0 0 .348 11.038c3.618 5 15.23 8.911 19.016 9.966 11.323 3.166 11.67-8.115 14.694-13.4" data-name="Path 606" style="stroke:#6c85a0" transform="matrix(.13558 -.08803 .07954 .15465 598.425 222.578)"/><path fill="#6c85a0" d="m52.451 96.7 5.949-5.3c-16.4 6.214-29.749 4.182-38.906-9.545C6.827 62.87 21.429 33.02 52.991 38.23l-15.037-5.784C40.5 18.389 53.154 9.2 67.622 10.928c13.644 1.629 24.005 13.644 23.191 27.263-4.708.4-9.47.8-14.568 1.236l.352 8.362c5.292-.549 10.259-1.032 15.219-1.591 14.957-1.683 29.914-3.418 44.874-5.091 3.3-.37 6.736-.482 4.245-5.832l-40.4 2.405C97.4 29.236 95.68 20.753 91.369 13.9 83.9 2.027 71.816-1.825 58.3.772 44.342 3.455 35.546 12.449 32.371 26.221c-1.1 4.765-2.488 7.17-7.649 8.537C7.172 39.4-3.138 57.339.857 74.956A34.064 34.064 0 0 0 39.1 101.124c3.625-.533 6.388-1.329 9.374 2.61 11.584 15.273 30.3 18.6 46.659 8.984 14.072-8.282 19.693-26.842 13.206-43.565-.342-.878-.552-1.811-1.016-3.36 10.9-4.328 21.706-8.464 32.344-12.989 1.971-.837 3.271-3.255 4.88-4.941l-1.734-2.022C122.464 52.772 102.107 59.7 81.068 66.86l3.082 7.822c5-1.763 9.483-3.351 13.913-4.912 6.726 12.354 2.29 26.749-10.422 34.7-11.411 7.152-26.969 3.93-35.19-7.77Z" data-name="Path 611" style="stroke:#6c85a0" transform="matrix(.1571 .00727 -.00437 .17776 577.172 229.057)"/></g></svg>