<svg viewBox="-990.135 -121.811 2492.875 1003.269" xmlns="http://www.w3.org/2000/svg"><g data-name="Group 841"><path d="M1679.911 2252.77c117.924-14.978 231.493-25.767 340.251-15.336 105.371 10.211 207.568 35.215 301.75 73.824 38.126 15.535 77.832 38.748 70.245 80.508-4.743 26.066-27.265 52.626-49.969 76.688-32.937 34.897-69.451 69.31-112.976 93.918-77.216 43.639-162 49.133-240.085 52.476-196.272 8.415-392.477 15.496-580.766 4.894-68.041-3.837-135.478-10.071-194.871-28-32.281-9.749-64.446-26.426-63.412-58.449 1.491-45.958 41.679-91.609 90.482-117.631 97.664-52.058 110.26-70.183 211.337-99.883 42.942-12.623 157.937-47.972 265.728-67.766" data-name="Path 1182" style="paint-order:fill;stroke-dashoffset:-1px;stroke-miterlimit:8;stroke-width:7px;fill:#fff;stroke-dasharray:30px;stroke:#489c61" transform="rotate(9.938 12605.455 -10673.321)"/><g data-name="Group 1348"><text style="fill:#333;font-family:&quot;Roboto Slab&quot;;font-size:50.5px;white-space:pre" transform="matrix(1.54074 -.0264 .02414 1.4093 -1334.642 -3002.913)"><tspan x="343.855" y="2356.99" style="font-weight:700">Kontrol:</tspan><tspan> </tspan><tspan x="343.855" dy="1em">​</tspan><tspan>Hvis jeg ikke har helt<tspan x="343.855" dy="1em">​</tspan>styr på alting, går det galt</tspan></text><text style="white-space:pre;fill:#333;font-family:&quot;Roboto Slab&quot;;font-size:28px" transform="matrix(1.47206 -.02522 .02522 1.47206 -756.292 524.543)"> </text></g></g><g data-name="Group 841"><path d="M1706.084 2266.589c117.924-14.978 231.493-25.767 340.251-15.336 105.371 10.211 207.568 35.215 301.749 73.824 38.126 15.535 77.832 38.748 70.245 80.508-4.743 26.066-27.265 52.626-49.969 76.688-32.937 34.897-69.45 69.31-112.975 93.917-77.216 43.639-162 49.133-240.085 52.476-196.272 8.415-392.477 15.496-580.766 4.894-68.041-3.837-135.478-10.071-194.871-28-32.281-9.749-64.446-26.426-63.412-58.448 1.491-45.958 41.679-91.609 90.482-117.631 97.664-52.058 110.26-70.183 211.337-99.883 42.942-12.623 157.937-47.972 265.728-67.766" data-name="Path 1182" style="paint-order:fill;stroke-dashoffset:-1px;stroke-miterlimit:8;stroke-width:7px;fill:#fff;stroke-dasharray:30px;stroke:#cd7365" transform="rotate(-172.991 1262.77 1577.83)"/><g data-name="Group 1348"><text style="fill:#333;font-family:&quot;Roboto Slab&quot;;font-size:50.5px;white-space:pre" transform="matrix(1.54096 0 0 1.4095 -95.323 -2791.094)"><tspan x="343.855" y="2356.99" style="font-weight:700">Accept:</tspan><tspan> </tspan><tspan x="343.855" dy="1em">​</tspan><tspan>Andre kan ikke lide mig, <tspan x="343.855" dy="1em">​</tspan>hvis jeg viser mine <tspan x="343.855" dy="1em">​</tspan>svage sider </tspan></text><text style="white-space:pre;fill:#333;font-family:&quot;Roboto Slab&quot;;font-size:28px" transform="translate(422.517 745.75) scale(1.47227)"> </text><text style="white-space:pre;fill:#333;font-family:&quot;Roboto Slab&quot;;font-size:28px" transform="translate(1376.283 816.933) scale(4.40982)"> </text></g></g><g data-name="Group 841"><path d="M1706.084 2266.589c117.924-14.978 231.493-25.767 340.251-15.336 105.371 10.211 207.568 35.215 301.749 73.824 38.126 15.535 77.832 38.748 70.245 80.508-4.743 26.066-27.265 52.626-49.969 76.688-32.937 34.897-69.45 69.31-112.975 93.917-77.216 43.639-162 49.133-240.085 52.476-196.272 8.415-392.477 15.496-580.766 4.894-68.041-3.837-135.478-10.071-194.871-28-32.281-9.749-64.446-26.426-63.412-58.448 1.491-45.958 41.679-91.609 90.482-117.631 97.664-52.058 110.26-70.183 211.337-99.883 42.942-12.623 157.937-47.972 265.728-67.766" data-name="Path 1182" style="paint-order:fill;stroke:#488eaf;stroke-dashoffset:-1px;stroke-miterlimit:8;stroke-width:7px;fill:#fff;stroke-dasharray:30px" transform="rotate(-172.991 1186.16 1330.867)"/><g><text data-name="Group 1348" style="fill:#333;font-family:&quot;Roboto Slab&quot;;font-size:50.5px;white-space:pre" transform="matrix(1.54096 0 0 1.4095 -279.3 -3237.282)"><tspan x="343.855" y="2356.99" style="font-weight:700">Præstation:</tspan><tspan> </tspan><tspan x="343.855" dy="1em">​</tspan><tspan>Hvis jeg ikke giver mig 100%,</tspan><tspan x="343.855" dy="1em">​</tspan><tspan>er det ikke godt nok.</tspan></text></g></g></svg>