<svg viewBox="665.905 56.73 820.122 409.244" xmlns="http://www.w3.org/2000/svg"><g data-name="Group 1348"><path fill="#fff" d="M1571.057 2508.026c228.656-1.355 466.084 36.305 421.485 206.92-44.599 170.614-78.26 83.359-475.392 114.266-228.656 1.355-329.606.737-327.572-182.864 2.034-183.601 152.824-136.968 381.479-138.322Z" data-name="Path 729" transform="rotate(-2.006 -67471.163 16177.55)"/><path fill="#e79e17" d="M785.556 214.604v16.44h-10.309v-44.439h14.457a29.668 29.668 0 0 1 8.22.991 15.432 15.432 0 0 1 5.551 2.76 10.447 10.447 0 0 1 3.126 4.18 13.843 13.843 0 0 1 .976 5.245 14.083 14.083 0 0 1-.579 4.087 12.376 12.376 0 0 1-1.723 3.553 13.336 13.336 0 0 1-2.806 2.913 14.9 14.9 0 0 1-3.828 2.1 9.69 9.69 0 0 1 1.937 1.281 7.622 7.622 0 0 1 1.571 1.861l9.454 15.467h-9.333a3.96 3.96 0 0 1-3.72-1.952l-7.382-12.9a3.107 3.107 0 0 0-1.144-1.22 3.827 3.827 0 0 0-1.845-.366Zm0-7.107h4.148a10.606 10.606 0 0 0 3.583-.534 6.476 6.476 0 0 0 2.425-1.479 5.633 5.633 0 0 0 1.375-2.21 8.487 8.487 0 0 0 .427-2.73 5.725 5.725 0 0 0-1.906-4.576q-1.906-1.647-5.9-1.647h-4.152Zm71.065-20.892v7.93h-18.239v10.37h13.97v7.625h-13.97v10.583h18.24v7.93h-28.61v-44.438Zm42.822 9.028a3.872 3.872 0 0 1-.96 1.1 2.15 2.15 0 0 1-1.3.366 3.171 3.171 0 0 1-1.51-.442q-.809-.442-1.83-.99a15.186 15.186 0 0 0-2.334-.992 9.335 9.335 0 0 0-2.989-.442 6.432 6.432 0 0 0-4.316 1.235 4.2 4.2 0 0 0-1.418 3.34 3.076 3.076 0 0 0 .854 2.227 7.363 7.363 0 0 0 2.242 1.525 24.029 24.029 0 0 0 3.172 1.174q1.784.534 3.645 1.19a32.6 32.6 0 0 1 3.645 1.54 12.154 12.154 0 0 1 3.172 2.256 10.534 10.534 0 0 1 2.242 3.34 11.875 11.875 0 0 1 .854 4.743 15.454 15.454 0 0 1-1.067 5.764 13.5 13.5 0 0 1-3.1 4.682 14.369 14.369 0 0 1-5 3.141 18.714 18.714 0 0 1-6.75 1.141 21.654 21.654 0 0 1-4.225-.427 25.087 25.087 0 0 1-4.163-1.2 24.142 24.142 0 0 1-3.782-1.845 16.07 16.07 0 0 1-3.08-2.379l3.05-4.819a2.482 2.482 0 0 1 .946-.885 2.679 2.679 0 0 1 1.312-.336 3.472 3.472 0 0 1 1.845.58q.93.58 2.1 1.281a17.126 17.126 0 0 0 2.7 1.281 10.121 10.121 0 0 0 3.6.58 6.852 6.852 0 0 0 4.361-1.236 4.7 4.7 0 0 0 1.556-3.919 3.7 3.7 0 0 0-.854-2.532 6.6 6.6 0 0 0-2.242-1.616 20.655 20.655 0 0 0-3.157-1.128q-1.769-.488-3.63-1.083a26.554 26.554 0 0 1-3.63-1.464 11.455 11.455 0 0 1-3.157-2.288 10.7 10.7 0 0 1-2.242-3.538 14.048 14.048 0 0 1-.854-5.23 12.412 12.412 0 0 1 1.007-4.88 12.6 12.6 0 0 1 2.958-4.24 14.547 14.547 0 0 1 4.788-2.974 17.685 17.685 0 0 1 6.5-1.113 24.361 24.361 0 0 1 3.98.32 20.923 20.923 0 0 1 3.675.946 20.183 20.183 0 0 1 3.248 1.494 14.977 14.977 0 0 1 2.7 1.967Zm45.262 0a3.872 3.872 0 0 1-.96 1.1 2.15 2.15 0 0 1-1.3.366 3.171 3.171 0 0 1-1.51-.442q-.809-.442-1.83-.99a15.186 15.186 0 0 0-2.334-.992 9.335 9.335 0 0 0-2.989-.442 6.432 6.432 0 0 0-4.316 1.235 4.2 4.2 0 0 0-1.418 3.34 3.076 3.076 0 0 0 .854 2.227 7.363 7.363 0 0 0 2.242 1.525 24.03 24.03 0 0 0 3.172 1.174q1.784.534 3.645 1.19a32.594 32.594 0 0 1 3.645 1.54 12.154 12.154 0 0 1 3.172 2.256 10.534 10.534 0 0 1 2.242 3.34 11.875 11.875 0 0 1 .854 4.743 15.454 15.454 0 0 1-1.068 5.764 13.5 13.5 0 0 1-3.1 4.682 14.369 14.369 0 0 1-5 3.141 18.714 18.714 0 0 1-6.75 1.141 21.654 21.654 0 0 1-4.224-.427 25.087 25.087 0 0 1-4.163-1.2 24.143 24.143 0 0 1-3.782-1.85 16.069 16.069 0 0 1-3.08-2.379l3.05-4.819a2.482 2.482 0 0 1 .944-.885 2.679 2.679 0 0 1 1.311-.336 3.472 3.472 0 0 1 1.845.58q.93.58 2.1 1.281a17.127 17.127 0 0 0 2.7 1.281 10.121 10.121 0 0 0 3.6.58 6.852 6.852 0 0 0 4.362-1.236 4.7 4.7 0 0 0 1.555-3.919 3.7 3.7 0 0 0-.854-2.532 6.6 6.6 0 0 0-2.242-1.616 20.655 20.655 0 0 0-3.157-1.128q-1.769-.488-3.63-1.083a26.554 26.554 0 0 1-3.63-1.464 11.455 11.455 0 0 1-3.157-2.288 10.7 10.7 0 0 1-2.242-3.538 14.048 14.048 0 0 1-.854-5.23 12.411 12.411 0 0 1 1.007-4.88 12.6 12.6 0 0 1 2.96-4.24 14.547 14.547 0 0 1 4.787-2.974 17.685 17.685 0 0 1 6.5-1.113 24.361 24.361 0 0 1 3.98.32 20.923 20.923 0 0 1 3.675.946 20.182 20.182 0 0 1 3.248 1.494 14.976 14.976 0 0 1 2.7 1.967Zm64.355 13.176a23.883 23.883 0 0 1-1.662 8.967 21.612 21.612 0 0 1-4.682 7.213 21.47 21.47 0 0 1-7.274 4.8 24.737 24.737 0 0 1-9.44 1.74 24.853 24.853 0 0 1-9.455-1.74 21.6 21.6 0 0 1-7.3-4.8 21.5 21.5 0 0 1-4.7-7.213 23.883 23.883 0 0 1-1.662-8.967 23.883 23.883 0 0 1 1.662-8.967 21.33 21.33 0 0 1 4.7-7.2 21.717 21.717 0 0 1 7.3-4.789 24.853 24.853 0 0 1 9.455-1.739 24.548 24.548 0 0 1 9.44 1.754 21.773 21.773 0 0 1 7.274 4.8 21.445 21.445 0 0 1 4.682 7.2 23.8 23.8 0 0 1 1.662 8.941Zm-10.553 0a19.214 19.214 0 0 0-.854-5.932 12.564 12.564 0 0 0-2.455-4.468 10.589 10.589 0 0 0-3.919-2.806 13.489 13.489 0 0 0-5.277-.976 13.687 13.687 0 0 0-5.322.976 10.562 10.562 0 0 0-3.934 2.806 12.564 12.564 0 0 0-2.455 4.468 19.214 19.214 0 0 0-.854 5.932 19.322 19.322 0 0 0 .854 5.963 12.563 12.563 0 0 0 2.455 4.468 10.414 10.414 0 0 0 3.934 2.791 13.878 13.878 0 0 0 5.322.961 13.677 13.677 0 0 0 5.277-.96 10.439 10.439 0 0 0 3.92-2.792 12.564 12.564 0 0 0 2.454-4.468 19.322 19.322 0 0 0 .854-5.963Zm46.18 14.091a9.481 9.481 0 0 0 3.7-.687 7.5 7.5 0 0 0 2.76-1.967 8.7 8.7 0 0 0 1.723-3.126 13.652 13.652 0 0 0 .595-4.194v-26.32h10.312v26.321a20.556 20.556 0 0 1-1.327 7.5 16.831 16.831 0 0 1-3.8 5.886 17.135 17.135 0 0 1-6.008 3.843 21.865 21.865 0 0 1-7.955 1.375 21.955 21.955 0 0 1-7.99-1.373 17.135 17.135 0 0 1-6.01-3.842 16.653 16.653 0 0 1-3.782-5.886 20.77 20.77 0 0 1-1.31-7.5v-26.325h10.308v26.291a13.652 13.652 0 0 0 .595 4.194 8.853 8.853 0 0 0 1.723 3.142 7.417 7.417 0 0 0 2.76 1.983 9.481 9.481 0 0 0 3.706.685Zm48.312-8.3v16.443h-10.312v-44.438h14.457a29.668 29.668 0 0 1 8.22.991 15.432 15.432 0 0 1 5.551 2.76 10.447 10.447 0 0 1 3.126 4.18 13.843 13.843 0 0 1 .976 5.245 14.083 14.083 0 0 1-.579 4.087 12.376 12.376 0 0 1-1.723 3.553 13.335 13.335 0 0 1-2.806 2.913 14.9 14.9 0 0 1-3.828 2.1 9.689 9.689 0 0 1 1.937 1.281 7.622 7.622 0 0 1 1.57 1.864l9.455 15.464h-9.333a3.96 3.96 0 0 1-3.723-1.952l-7.38-12.9a3.107 3.107 0 0 0-1.145-1.22 3.827 3.827 0 0 0-1.845-.366Zm0-7.107h4.148a10.606 10.606 0 0 0 3.584-.534 6.476 6.476 0 0 0 2.425-1.479 5.633 5.633 0 0 0 1.372-2.21 8.487 8.487 0 0 0 .427-2.73 5.725 5.725 0 0 0-1.906-4.576q-1.906-1.647-5.9-1.647h-4.148Zm70.788 12.05a2.072 2.072 0 0 1 .732.137 1.99 1.99 0 0 1 .7.473l4.087 4.3a16.966 16.966 0 0 1-6.724 5.29 23.534 23.534 0 0 1-9.562 1.788 22.778 22.778 0 0 1-9.074-1.723 19.637 19.637 0 0 1-6.8-4.758 20.953 20.953 0 0 1-4.285-7.2 26.579 26.579 0 0 1-1.495-9.043 23.842 23.842 0 0 1 1.708-9.135 21.306 21.306 0 0 1 4.773-7.183 21.53 21.53 0 0 1 7.335-4.7 25.565 25.565 0 0 1 9.424-1.678 24.006 24.006 0 0 1 4.712.442 23.03 23.03 0 0 1 4.133 1.22 19.442 19.442 0 0 1 3.536 1.87 17.052 17.052 0 0 1 2.867 2.394l-3.477 4.667a4.427 4.427 0 0 1-.793.778 2.064 2.064 0 0 1-1.28.351 2.288 2.288 0 0 1-1.038-.244 11.461 11.461 0 0 1-1.037-.595l-1.2-.763a9.244 9.244 0 0 0-1.556-.763 12.855 12.855 0 0 0-2.1-.595 14.36 14.36 0 0 0-2.82-.244 12.9 12.9 0 0 0-5.125.991 11.235 11.235 0 0 0-3.98 2.836 13.154 13.154 0 0 0-2.592 4.468 17.529 17.529 0 0 0-.93 5.887 18.3 18.3 0 0 0 .93 6.07 13.328 13.328 0 0 0 2.532 4.467 10.742 10.742 0 0 0 3.736 2.76 11.171 11.171 0 0 0 4.575.946 21.9 21.9 0 0 0 2.562-.137 10.575 10.575 0 0 0 2.15-.473 9.946 9.946 0 0 0 1.891-.869 12.626 12.626 0 0 0 1.815-1.327 3.606 3.606 0 0 1 .793-.5 2.078 2.078 0 0 1 .877-.205Zm51.027-32.94v7.93h-18.24v10.37h13.97v7.625h-13.97v10.585h18.24v7.93h-28.61v-44.438Zm28.365 28v16.44h-10.31v-44.438h14.457a29.668 29.668 0 0 1 8.22.991 15.432 15.432 0 0 1 5.551 2.76 10.447 10.447 0 0 1 3.126 4.18 13.843 13.843 0 0 1 .976 5.245 14.083 14.083 0 0 1-.579 4.087 12.376 12.376 0 0 1-1.723 3.553 13.335 13.335 0 0 1-2.81 2.912 14.9 14.9 0 0 1-3.828 2.1 9.689 9.689 0 0 1 1.937 1.281 7.622 7.622 0 0 1 1.571 1.861l9.458 15.468h-9.333a3.96 3.96 0 0 1-3.72-1.952l-7.382-12.9a3.107 3.107 0 0 0-1.144-1.22 3.827 3.827 0 0 0-1.845-.366Zm0-7.107h4.148a10.606 10.606 0 0 0 3.584-.534 6.476 6.476 0 0 0 2.425-1.479 5.633 5.633 0 0 0 1.372-2.21 8.487 8.487 0 0 0 .427-2.73 5.725 5.725 0 0 0-1.906-4.576q-1.906-1.647-5.9-1.647h-4.148Z" data-name="PLANCHE D’AMBIANCE"/><path fill="#903" d="M932.747 354.043v-26.226h9.648a18.344 18.344 0 0 1 4.626.5 8.813 8.813 0 0 1 3.114 1.426 5.389 5.389 0 0 1 1.752 2.232 7.542 7.542 0 0 1 .55 2.934 5.751 5.751 0 0 1-.253 1.7 5.007 5.007 0 0 1-.792 1.54 5.914 5.914 0 0 1-1.386 1.3 8.935 8.935 0 0 1-2.034 1.016 7.222 7.222 0 0 1 3.834 2.043 5.292 5.292 0 0 1 1.245 3.635 7.5 7.5 0 0 1-.648 3.114 7.131 7.131 0 0 1-1.9 2.511 9 9 0 0 1-3.086 1.675 13.425 13.425 0 0 1-4.194.6Zm6.084-11.124v6.534h4.284a5.372 5.372 0 0 0 1.972-.31 3.115 3.115 0 0 0 1.2-.792 2.657 2.657 0 0 0 .594-1.1 4.834 4.834 0 0 0 .162-1.242 4.145 4.145 0 0 0-.189-1.3 2.143 2.143 0 0 0-.648-.972 3.166 3.166 0 0 0-1.215-.612 7.08 7.08 0 0 0-1.908-.216Zm0-4.068H942a10.439 10.439 0 0 0 1.818-.144 3.78 3.78 0 0 0 1.377-.5 2.314 2.314 0 0 0 .864-.99 3.713 3.713 0 0 0 .3-1.584 4.456 4.456 0 0 0-.234-1.557 2.231 2.231 0 0 0-.72-1 3.023 3.023 0 0 0-1.233-.54 8.466 8.466 0 0 0-1.773-.162h-3.567Zm41.616-11.034v4.68h-10.76v6.12h8.24v4.5h-8.24v6.246h10.76v4.68h-16.884v-26.226Zm16.74 21.366h9.72v4.86h-15.8v-26.226h6.08Zm44.208 4.86h-4.716a2.18 2.18 0 0 1-1.3-.369 1.906 1.906 0 0 1-.71-.945l-1.549-4.572h-9.977l-1.548 4.572a2.027 2.027 0 0 1-.7.91 2.022 2.022 0 0 1-1.28.404h-4.752l10.152-26.226h6.228Zm-16.848-10.026h7.164l-2.412-7.182-.549-1.61q-.315-.927-.62-2.008-.289 1.1-.595 2.034t-.576 1.62Zm40.788-10.874a2.285 2.285 0 0 1-.567.648 1.269 1.269 0 0 1-.765.216 1.871 1.871 0 0 1-.89-.26q-.478-.262-1.08-.586a8.963 8.963 0 0 0-1.378-.585 5.509 5.509 0 0 0-1.764-.26 3.8 3.8 0 0 0-2.547.728 2.48 2.48 0 0 0-.837 1.971 1.816 1.816 0 0 0 .5 1.314 4.345 4.345 0 0 0 1.323.9 14.181 14.181 0 0 0 1.872.693q1.053.315 2.151.7a19.238 19.238 0 0 1 2.151.91 7.173 7.173 0 0 1 1.872 1.331 6.217 6.217 0 0 1 1.323 1.971 7.008 7.008 0 0 1 .5 2.8 9.12 9.12 0 0 1-.63 3.4 7.965 7.965 0 0 1-1.827 2.763 8.48 8.48 0 0 1-2.952 1.854 11.044 11.044 0 0 1-3.987.675 12.779 12.779 0 0 1-2.493-.252 14.805 14.805 0 0 1-2.457-.71 14.248 14.248 0 0 1-2.232-1.09 9.484 9.484 0 0 1-1.818-1.4l1.8-2.844a1.465 1.465 0 0 1 .558-.522 1.581 1.581 0 0 1 .774-.2 2.049 2.049 0 0 1 1.09.342q.548.342 1.241.756a10.108 10.108 0 0 0 1.593.756 5.973 5.973 0 0 0 2.124.342 4.044 4.044 0 0 0 2.574-.729 2.776 2.776 0 0 0 .918-2.313 2.186 2.186 0 0 0-.5-1.494 3.894 3.894 0 0 0-1.323-.954 12.19 12.19 0 0 0-1.863-.666q-1.044-.288-2.142-.639a15.671 15.671 0 0 1-2.142-.864 6.76 6.76 0 0 1-1.863-1.35 6.317 6.317 0 0 1-1.323-2.088 8.291 8.291 0 0 1-.5-3.087 7.325 7.325 0 0 1 .594-2.88 7.434 7.434 0 0 1 1.746-2.5 8.585 8.585 0 0 1 2.826-1.755 10.437 10.437 0 0 1 3.834-.657 14.377 14.377 0 0 1 2.35.19 12.348 12.348 0 0 1 2.168.557 11.91 11.91 0 0 1 1.917.882 8.838 8.838 0 0 1 1.593 1.161Zm31.14-5.328v4.828h-7.38v21.4h-6.084v-21.4h-7.38v-4.824Zm12.924 0a5.164 5.164 0 0 1 .666.036 1.7 1.7 0 0 1 .486.135 1.622 1.622 0 0 1 .414.28 4.73 4.73 0 0 1 .45.485l12.456 15.752q-.072-.756-.108-1.467t-.036-1.34v-13.879h5.36v26.226h-3.168a2.919 2.919 0 0 1-1.188-.216 2.542 2.542 0 0 1-.936-.792l-12.362-15.624q.054.684.09 1.341t.036 1.233v14.058h-5.364v-26.226Zm37.872 26.228h-6.12v-26.226h6.12Zm15.264-26.226a5.164 5.164 0 0 1 .666.036 1.7 1.7 0 0 1 .486.135 1.622 1.622 0 0 1 .414.28 4.73 4.73 0 0 1 .45.485l12.456 15.75q-.072-.756-.108-1.467t-.036-1.34v-13.879h5.364v26.226h-3.168a2.919 2.919 0 0 1-1.188-.216 2.542 2.542 0 0 1-.936-.792l-12.366-15.624q.054.684.09 1.341t.036 1.233v14.058h-5.364v-26.226Zm43.56 21.834a10.352 10.352 0 0 0 2.232-.216 10.926 10.926 0 0 0 1.836-.576v-3.978h-2.592a1.259 1.259 0 0 1-.9-.306 1.019 1.019 0 0 1-.324-.774v-3.348h9.324v11.07a13.743 13.743 0 0 1-2.1 1.27 13.545 13.545 0 0 1-2.322.872 17.287 17.287 0 0 1-2.628.5 26.038 26.038 0 0 1-3 .162 13.75 13.75 0 0 1-5.328-1.017 12.948 12.948 0 0 1-4.239-2.808 12.924 12.924 0 0 1-2.808-4.248 13.817 13.817 0 0 1-1.017-5.337 14.53 14.53 0 0 1 .972-5.39 12.142 12.142 0 0 1 2.781-4.24 12.617 12.617 0 0 1 4.374-2.772 15.811 15.811 0 0 1 5.733-.99 16.7 16.7 0 0 1 3.078.27 15.144 15.144 0 0 1 2.655.738 12.218 12.218 0 0 1 2.223 1.116 11.974 11.974 0 0 1 1.8 1.4l-1.758 2.694a1.96 1.96 0 0 1-.6.594 1.432 1.432 0 0 1-.765.216 2.107 2.107 0 0 1-1.116-.36q-.72-.432-1.359-.747a8.292 8.292 0 0 0-1.305-.513 8.552 8.552 0 0 0-1.4-.288 13.777 13.777 0 0 0-1.656-.09 7.554 7.554 0 0 0-3.078.6 6.6 6.6 0 0 0-2.33 1.7 7.693 7.693 0 0 0-1.486 2.637 10.63 10.63 0 0 0-.522 3.43 11.037 11.037 0 0 0 .576 3.707 7.967 7.967 0 0 0 1.593 2.736 6.764 6.764 0 0 0 2.412 1.7 7.811 7.811 0 0 0 3.044.586Zm37.368-21.834v4.68H1232.7v6.12h8.244v4.5h-8.244v6.246h10.764v4.68h-16.884v-26.226Zm16.74 16.526v9.7h-6.084v-26.226h8.532a17.509 17.509 0 0 1 4.851.585 9.108 9.108 0 0 1 3.276 1.63 6.166 6.166 0 0 1 1.845 2.465 8.17 8.17 0 0 1 .576 3.1 8.311 8.311 0 0 1-.342 2.412 7.3 7.3 0 0 1-1.017 2.1 7.871 7.871 0 0 1-1.656 1.72 8.794 8.794 0 0 1-2.259 1.241 5.719 5.719 0 0 1 1.143.756 4.5 4.5 0 0 1 .927 1.1l5.58 9.117h-5.508a2.337 2.337 0 0 1-2.2-1.152l-4.356-7.614a1.834 1.834 0 0 0-.675-.72 2.259 2.259 0 0 0-1.089-.216Zm0-4.194h2.448a6.26 6.26 0 0 0 2.115-.315 3.822 3.822 0 0 0 1.431-.873 3.325 3.325 0 0 0 .81-1.305 5.009 5.009 0 0 0 .252-1.613 3.378 3.378 0 0 0-1.125-2.7 5.237 5.237 0 0 0-3.483-.972h-2.448Z" data-name="PLANCHE D’AMBIANCE"/><path fill="none" stroke="#323f51" stroke-width="3" d="M736.681 271.543h690.428" data-name="Path 1810"/><g fill="#e79e17" data-name="Group 503"><path d="M1333.544 236.718v-134.45c0-5.419 5.04-9.8 11.262-9.8s11.256 4.381 11.256 9.8v134.45c.001 5.416-5.035 9.807-11.256 9.807s-11.262-4.39-11.262-9.807Z" data-name="Path 211"/><path d="M1296.98 144.324a12.783 12.783 0 0 1 3.3-8.646l36.57-39.639a10.654 10.654 0 0 1 15.922 0l36.57 39.638a12.964 12.964 0 0 1 .008 17.28 10.642 10.642 0 0 1-15.92.006l-28.62-31.017-28.607 31.018a10.645 10.645 0 0 1-15.923-.008 12.734 12.734 0 0 1-3.3-8.632Z" data-name="Path 212"/></g><g fill="#903" data-name="Group 504"><path d="M887.17 331.4v103.61c0 4.175-3.885 7.552-8.68 7.552s-8.674-3.377-8.674-7.552V331.4c0-4.174 3.881-7.558 8.674-7.558s8.68 3.384 8.68 7.558Z" data-name="Path 211"/><path d="M915.347 402.6a9.85 9.85 0 0 1-2.542 6.664l-28.18 30.543a8.21 8.21 0 0 1-12.272 0l-28.18-30.544a9.99 9.99 0 0 1-.008-13.316 8.2 8.2 0 0 1 12.27-.005l22.053 23.9 22.046-23.9a8.2 8.2 0 0 1 12.271.005 9.812 9.812 0 0 1 2.542 6.653Z" data-name="Path 212"/></g></g></svg>