<?xml version="1.0" encoding="utf-8"?>
<svg xmlns="http://www.w3.org/2000/svg" xmlns:bx="https://boxy-svg.com" viewBox="-776.01 -466.519 2728.708 548.533">
  <defs>
    
  </defs>
  <g id="Group_1348" data-name="Group 1348" transform="matrix(0.977665, 0, 0, 1.093461, -45.262558, -2607.993896)" style="">
    <path id="Path_729" data-name="Path 729" d="M -685.992 2153.292 C -364.429 2013.696 1165.207 2159.173 1334.102 2091.335 C 1487.998 2029.522 1704.946 2116.161 1821.89 2149.388 C 1944.238 2184.15 2066.996 2197.252 2011.121 2265.7 C 1869.241 2439.503 541.969 2438.478 48.412 2396.532 C 14.779 2393.674 -100.893 2397.423 -206.968 2377.858 C -312.135 2358.46 -407.78 2315.713 -425.027 2320.25 C -679.321 2387.143 -795.65 2200.897 -685.992 2153.292 Z" fill="#fff" style="" transform="matrix(0.999801, -0.017846, 0.022324, 0.999801, -49.764231, 12.109287)"/>
    <path id="Path_730" data-name="Path 730" d="M 994.556 2361.547 C 994.556 2361.547 1029.05 2347.141 1078.896 2330.327 C 1109.638 2319.957 1146.176 2309.645 1184.07 2301.011 C 1238.366 2288.639 1295.447 2279.712 1342.258 2278.993 C 1361.719 2278.694 1379.483 2275.617 1393.871 2258.259" fill="none" stroke="#323f51" stroke-width="5" style="" transform="matrix(0.963123, 0.240569, -0.30093, 0.963123, 739.159186, -202.10789)"/>
    <text style="white-space: pre; fill: rgb(51, 51, 51); font-family: &quot;Roboto Slab&quot;; font-size: 28px;" transform="matrix(2.861418, 0, 0, 2.558398, -612.266113, 2275.144043)">Her kan du vælge, om du vil arbejde med belastninger i forhold til:<tspan x="0" dy="1em">​</tspan></text>
  </g>
  <g id="Group_1219" data-name="Group 1219" transform="matrix(0.71318, 0, 0, 0.634864, 237.579926, -1017.705872)" style="">
    <g id="Group_1205" data-name="Group 1205" transform="matrix(1.22572, 0, 0, 1.234071, 23962.529297, 27654.615234)" style="">
      <g id="Group_1204" data-name="Group 1204" transform="translate(-18488.57 -21743.621)">
        <path id="Nuance_A4_5a" data-name="Nuance A4 5a" d="M136.9,0A136.9,136.9,0,1,1,0,136.9,136.9,136.9,0,0,1,136.9,0Z" transform="translate(45.415 53.374)" fill="#7ccad8"/>
      </g>
    </g>
    <g id="Group_1215" data-name="Group 1215" transform="matrix(1.22572, 0, 0, 1.234071, 24159.871094, 27357.9375)" style="">
      <text id="i" transform="translate(-18485.934 -21395.555)" fill="#323f51" font-size="150" font-family="RifficFree-Bold, Riffic Free" font-weight="700" style="white-space: pre;"><tspan x="0" y="146">i</tspan></text>
    </g>
  </g>
</svg>
