<svg viewBox="93.047 -270.932 778.945 872.632" xmlns="http://www.w3.org/2000/svg"><defs><clipPath id="SelvOmsorgsBeskder_svg__a"><path fill="none" d="M0 0h154.566v155.848H0z" data-name="Rectangle 449"/></clipPath><clipPath id="SelvOmsorgsBeskder_svg__b"><path fill="none" d="M0 0h139.976v157.795H0z" data-name="Rectangle 448"/></clipPath></defs><g data-name="Group 705"><g data-name="Group 704"><path fill="#fff6d5" d="M636.426 519.76a10.236 10.236 0 0 0 1.772-2.731c4.737-8.114 9.87-15.938 16.332-22.827 1.944-2.072 3.708-4.311 5.502-6.511a17.026 17.026 0 0 0 2.675-3.705c2.212-5.12 5.903-9.144 9.358-13.38 1.792-2.196 3.307-4.617 4.967-6.926 2.288-3.19 4.518-6.423 6.913-9.53 7.181-9.324 16.072-17.321 21.611-27.917a2.566 2.566 0 0 1 .398-.52 126.288 126.288 0 0 0 12.071-16.319c2.128-3.288 4.793-6.211 6.425-9.852a16.197 16.197 0 0 1 2.637-3.732c3.847-4.486 7.679-8.969 10.13-14.437a10.056 10.056 0 0 1 1.102-1.623c5.077-7.095 10.37-14.045 15.17-21.32a180.66 180.66 0 0 1 12.704-16.677 27.113 27.113 0 0 0 3.92-5.23c2.13-4.402 5.25-8.03 8.347-11.706 4.23-5.016 8.47-10.02 12.659-15.067 1.251-1.508 2.356-3.14 3.488-4.741 2.519-3.556 4.866-7.245 7.553-10.67 4.04-5.145 8.69-9.805 11.588-15.813a21.641 21.641 0 0 1 3.189-4.143c2.952-3.515 5.953-6.994 8.907-10.505.982-1.168 2.236-2.267 2.765-3.628 1.723-4.416 4.994-7.654 7.945-11.153l4.774-5.682c-1.885-5.15-4.34-9.534-8.536-13.007-17.007-14.083-33.834-28.387-50.913-42.381-6.075-4.974-12.589-9.431-19.066-13.88-5.575-3.832-11.52-7.104-16.595-11.675a44.843 44.843 0 0 0-6.501-4.401c-6.311-3.916-12.688-7.732-18.983-11.67q-18.894-11.817-37.725-23.728c-4.616-2.918-9.346-5.703-13.703-8.973a76.032 76.032 0 0 0-11.64-7.269c-3.902-1.954-8.088-3.627-11.442-6.306-4.332-3.453-9.132-5.952-13.855-8.665a40.171 40.171 0 0 1-3.975-2.271c-5.79-4.28-11.465-8.719-17.303-12.933a37.393 37.393 0 0 0-7.882-4.62 24.763 24.763 0 0 1-6.69-3.983c-9.308-7.615-18.635-15.2-27.919-22.845a32.535 32.535 0 0 0-10.608-6.317c-1.152 1.121-2.091 2.006-2.993 2.917-5.445 5.5-8.247 12.809-12.897 18.863-1.98 2.58-3.578 5.456-5.548 8.047-2.774 3.653-6.166 6.904-8.522 10.793a240.513 240.513 0 0 1-23.12 31.765 29.543 29.543 0 0 0-3.532 4.708c-3.527 6.356-8.107 11.908-12.827 17.378a57.437 57.437 0 0 0-5.23 6.705c-4.66 7.395-9.083 14.936-13.721 22.342a160.21 160.21 0 0 1-9.451 14.16 86.904 86.904 0 0 0-8.788 13.012c-5.309 10.064-12 19.243-18.152 28.756-4.972 7.691-10.423 15.066-15.586 22.636-1.596 2.338-2.886 4.887-4.414 7.275a81.544 81.544 0 0 1-5.494 8.094c-8.071 9.778-16.3 19.429-24.437 29.152a33.31 33.31 0 0 0-3.89 5.252c-3.855 7.096-8.863 13.425-13.513 19.951-4.931 6.92-10.83 13.159-16.404 19.608a38.232 38.232 0 0 1-4.812 4.353c-4.08 3.338-7.158 7.478-10.304 12.057 1.582 1.537 2.891 2.951 4.344 4.194 6.333 5.378 12.564 10.892 19.12 15.987 4.411 3.427 7.729 7.814 10.77 12.204a251.132 251.132 0 0 1 14.465 24.143 42.339 42.339 0 0 0 10.113 12.664c6.443 5.319 11.736 11.704 17.692 17.442 5.613 5.404 10.217 11.87 15.697 17.518 2.729 2.814 5.25 5.812 8.258 8.373a37.363 37.363 0 0 1 6.026 5.977 43.798 43.798 0 0 0 7.33 7.44c3.345 2.818 6.664 5.664 10.037 8.445a30.6 30.6 0 0 0 4.225 3.07c5.115 2.896 10.284 5.693 15.452 8.498 6.886 3.733 13.468 8.09 21.097 10.328a5.065 5.065 0 0 1 1.757.861c3 2.452 6.68 3.145 10.281 4.029 6.103 1.5 12.47 1.511 18.497 3.69 3.859 1.393 8.07 1.83 12.134 2.62a14.95 14.95 0 0 0 4.49.434c6.335-.763 12.562.31 18.755 1.204a48.931 48.931 0 0 0 10.417.418q4.905-.33 9.801-.853a22.096 22.096 0 0 1 9.716.665 10.96 10.96 0 0 0 4.491.355c5.42-.518 10.827-1.173 16.234-1.82 2.318-.273 3.8 1.317 3.206 3.576a8.465 8.465 0 0 1-.41 1.24c-1.653 3.789-3.017 7.747-5.059 11.317-2.467 4.315-2.583 8.698-1.582 13.28.192.873 1.067 1.594 1.673 2.458a13.824 13.824 0 0 0 1.875-1.443c3.59-4.118 7.127-8.287 10.729-12.396 3.575-4.077 6.253-8.892 10.438-12.473Z" data-name="Path 1099"/><path fill-rule="evenodd" d="M764.823 353.926c.593.966 1.249 1.778 2.589 1.374 2.271-.682 4.56-1.33 7.88-2.295a25.627 25.627 0 0 1-3.098 3.204 21.296 21.296 0 0 1-3.543 1.686c-9.513 4.173-10.696 5.157-17.202 14.312.482 1.42 1.531 1.299 2.6.879 1.807-.71 3.567-1.56 5.395-2.213.545-.194 1.25.082 2.562.206-4.66 3.586-8.852 6.821-13.989 8.488a4.874 4.874 0 0 0-3.347 3.422 8.186 8.186 0 0 0 2.283.044c2.666-.763 5.215-2.123 8.053-1.748.855 1.658-.32 2.28-1.122 2.714-3.836 2.079-7.691 4.148-11.646 5.981a16.26 16.26 0 0 0-7.92 7.93c3.552.712 5.114-2.617 7.85-3.014 2.687-.388 5.104-2.048 8.14-1.788a35.486 35.486 0 0 1-2.853 2.525c-2.65 1.898-5.29 3.831-8.075 5.513-2.602 1.571-5.3 3.355-8.863 1.115-1.043 1.886-1.939 3.51-2.83 5.124.722.431 1.067.818 1.367.784 2.323-.257 4.452-1.76 7.551-1.216a11.135 11.135 0 0 1-2 2.004c-3.672 1.919-7.35 3.833-11.115 5.556-1.777.814-2.872 1.836-2.82 3.961 2.237 1.333 4.09-.497 6.21-.717.974 1.697.047 2.896-1.281 3.65a110.587 110.587 0 0 1-10.937 5.793c-3.429 1.468-4.918 3.989-5.707 7.21 2.044 1.764 4.25-1.653 6.286.832-2.378 2.336-5.026 4.09-8.455 4.19a3.562 3.562 0 0 0-3.518 2.456l2.637 1.824c-3.963 4.524-10.153 6.039-13.718 10.85-3.343 4.514-7.875 8.193-9.867 14.24 4.075.205 7.715-.946 12.2-2.316-1.99 3.83-5.032 4.468-7.617 5.647-2.688 1.23-2.733 1.127-7.177.21l-4.746 5.649c2.378 1.27 4.25.626 6.07-.57 3.022-1.99 6.357-2.66 10.98-2.622-3.43 2.257-6.327 3.672-8.578 5.777-2.614 2.446-6.017 2.244-8.79 3.753l-2.506-2.105c-.375.243-.885.39-1.053.714a75.036 75.036 0 0 1-11.123 15.336c-2.463 2.763-4.774 5.652-7.012 8.316.639 1.605 1.502 1.089 2.234.824 1.23-.45 2.414-1.03 3.64-1.484 1.539-.57 2.953-.02 3.136 1.148a2.812 2.812 0 0 1-1.987 3.01c-3.092 1.038-6.208 1.998-9.276 3.1a7.839 7.839 0 0 0-4.89 4.51c2.26 1.45 3.778-1.649 5.87-.261-.648 2.084-2.66 2.718-4.207 3.672-2.408 1.49-5.035 2.617-7.549 3.937-2.142 1.122-4.22 2.341-5.313 5.257a7.757 7.757 0 0 0 2.298.146c2.27-.6 4.501-1.347 7.954-2.41-2.08 2.915-4.237 3.424-6.032 4.399a63.914 63.914 0 0 1-5.877 2.878c-3.683 1.534-3.708 1.476-5.006 3.23 2.343 1.147 5.12-1.217 7.326.845-.015.285.044.653-.052.7-5.039 2.41-10.09 4.792-15.652 7.416.822.781 1.368 1.73 1.9 1.727 1.505-.013 3-.49 4.514-.637a15.167 15.167 0 0 1 2.899.394c-3.972 2.005-7.14 3.784-10.451 5.237-5.175 2.274-10.442 4.347-15.706 6.415a1.783 1.783 0 0 1-1.612-.637c-.214-.71-.268-1.91.159-2.287a25.54 25.54 0 0 1 3.808-2.406c-1.89-1.031-1.89-1.031-4.998-.579-.736 1.733-1 4.253-2.312 5.041a24.644 24.644 0 0 1-8.55 2.897c-2.31.381-2.502-1.89-2.721-3.96-2.833.138-5.328 1.43-7.936 2.256a11.145 11.145 0 0 1-3.108.864 2.662 2.662 0 0 1-2.123-1.14 4.154 4.154 0 0 1 .131-2.983c.613-1.259 2.86-1.094 3.04-3.342-3.44-1.097-6.711-2.481-10.404-.222-2.011 1.226-4.42 1.806-6.642 2.687-2.108.84-2.97.328-3.52-2.153-.14-.627-.197-1.276-.325-2.1-1.354.213-2.63.476-3.918.604-1.535.155-3.142.245-4.056-1.362-.931-1.635-.186-2.887 1.076-4.014a7.83 7.83 0 0 0 1.002-1.755c-2.693 1.002-4.88 1.852-7.095 2.615a13.422 13.422 0 0 1-2.567.516c-2.453.328-4.03-.55-3.978-2.166.046-1.424 1.032-2.172 3.308-2.413.863-.095 1.748-.04 2.616-.114.64-.057 1.268-.213 1.965-.337-2.636-2.583-2.935-2.744-8.069-4.343a39.293 39.293 0 0 1-4.468 2.423 9.87 9.87 0 0 1-3.796.614 2.45 2.45 0 0 1-2.583-2.438 4.367 4.367 0 0 1 1.449-2.611c.565-.552 1.559-.665 2.838-1.155-1.435-1.487-2.666-2.147-4.52-1.381a30.433 30.433 0 0 1-4.888 1.715c-2.28.511-3.363-1.165-2.453-3.644a19.956 19.956 0 0 1 .963-1.924c-4.013-3.603-8.512-4.945-13.695-3.553-6.834-8.653-15.987-14.389-23.841-21.563-6.699-2.394-10.39-8.48-15.585-12.718-7.286-5.939-14.5-11.963-21.743-17.952-2.698-2.229-5.458-4.384-7.266-7.483a5.164 5.164 0 0 0-1.29-1.475c-6.119-4.641-11.157-10.394-16.324-15.996-3.547-3.845-6.81-7.953-10.24-11.903-1.428-1.64-2.98-3.17-4.46-4.766-2.072-2.225-4.108-4.485-6.208-6.683-1.356-1.418-2.735-2.82-4.203-4.12-3.268-2.876-6.907-5.392-8.994-9.399-8.85-8.134-13.772-19.001-20.115-28.88-3.177-4.949-6.594-9.702-11.154-13.517-7.545-6.309-15.094-12.615-22.612-18.96-5.937-5.01-5.98-5.613-1.092-11.494 2.238-2.69 4.514-5.349 6.775-8.012a11.877 11.877 0 0 1 2.173-2.44c7.117-4.666 11.418-11.946 16.89-18.125 3.602-4.067 7.354-8.055 9.51-13.238.647-1.556 2.02-2.833 3.144-4.166a35.216 35.216 0 0 0 5.102-7.574 29.395 29.395 0 0 1 4.095-5.884c7.4-8.915 14.874-17.769 22.306-26.655a110.646 110.646 0 0 0 8.942-12.876c2.588-4.169 6.62-7.444 10.011-11.114a2.5 2.5 0 0 0 .4-.52c5.196-10.15 12.986-18.593 18.634-28.473 5.201-9.099 10.935-17.892 16.496-26.785 1.159-1.845 2.596-3.513 3.902-5.265a26.941 26.941 0 0 0 3.088-4.228c4.519-9.597 11.688-17.379 17.666-25.972 7.605-10.933 16.299-21.11 22.645-32.913a35.756 35.756 0 0 1 2.314-3.173c1.86-2.68 3.65-5.41 5.53-8.075a80.864 80.864 0 0 1 3.583-4.676c5.411-6.575 11.084-12.909 15.436-20.331 2.184-3.726 5.473-6.794 8.147-10.25a90.327 90.327 0 0 0 12.978-21.863 16.67 16.67 0 0 1 3.387-5.5c2.232-2.345 4.912-3.076 7.707-1.64a48.891 48.891 0 0 1 9.459 5.76c10.994 9.333 21.826 18.859 32.592 28.457a47.992 47.992 0 0 0 11.896 8.024c2.975 1.368 5.906 2.83 8.848 4.27a12.82 12.82 0 0 1 2.87 1.556c4.622 4.012 9.858 7.174 14.73 10.792a168.987 168.987 0 0 0 23.832 14.864 18.528 18.528 0 0 1 3.384 1.995c4.763 3.935 10.207 6.697 15.702 9.39a16.275 16.275 0 0 1 2.262 1.31c13.014 9.222 26.813 17.218 40.27 25.743 6.825 4.32 13.846 8.337 20.633 12.723 3.84 2.482 7.322 5.52 11.078 8.146 4.83 3.38 9.84 6.507 14.653 9.914 4.455 3.147 8.91 6.328 13.092 9.824 16.946 14.151 33.72 28.506 50.705 42.61 4.936 4.1 7.543 9.455 9.867 15.133a4.241 4.241 0 0 1-.667 4.298c-1.318 1.91-2.671 3.8-4.776 6.795 3.033-1.006 4.762-1.828 6.574-2.101 1.55-.239 2.39.793 1.958 2.752a37.113 37.113 0 0 1-12.335 5.97c.997 1.009 1.68 1.702 2.612 2.642-3.357 2.737-8.88 2.618-10.585 7.57 3.129 1.238 3.571-2.094 5.75-3.017l3.606 1.63c-.686 1.748-.956 3.556-1.96 4.751a10.626 10.626 0 0 1-6.658 3.907c-3.849.487-6.713 2.979-10.08 4.407-1.653.7-2.08 2.082-1.806 4.086l7.356-2.493c-1.452 3.077-2.498 3.918-5.937 5.608-2.25 1.102-5.167 1.002-6.974 3.604 1.692 1.24 2.968.112 4.271-.185 1.21-.273 2.413-.563 3.517-.822.789 1.495-.02 1.878-.786 2.27-4.279 2.18-8.57 4.333-12.838 6.532-1.27.656-2.82 1.148-2.77 3.565 1.855-.44 3.467-.808 5.074-1.204q2.864-.705 5.717-1.45a23.263 23.263 0 0 1 4.97-.962c-2.015 2.038-4.551 3.107-7.089 4.216-3.398 1.487-6.791 2.999-10.095 4.68a17.188 17.188 0 0 0-7.3 6.59c4.315-.246 8.279-1.512 13.329-4.14.043 2.839-1.943 4.334-4.013 5.469-4.345 2.374-8.444 5.442-13.762 5.452-1.616.005-2.889.725-2.763 3.044 5.22-.358 9.91-3.086 15.057-3.44.402 2.689-1.587 2.861-2.653 3.68-2.166 1.67-5.357 2.28-5.63 5.78q-2.454 1.595-4.904 3.178c-1.38.89-3.349 1.023-3.597 3.313-.067.597-1.16 1.206-1.899 1.58-3.874 1.968-7.813 3.818-11.674 5.813a15.92 15.92 0 0 0-2.552 2.104c2.058 1.792 4.178-.722 6.074.57-3.012 2.03-5.816 3.993-8.706 5.8-.673.418-1.67.32-2.494.501-.235.35-.514.643-.738.972-.08.12-.026.33-.033.495.307-.134.827-.22.866-.41.074-.36-.12-.784-.2-1.185ZM557.983 38.494c-1.152 1.12-2.091 2.006-2.993 2.917-5.445 5.5-8.247 12.808-12.897 18.863-1.98 2.58-3.578 5.455-5.548 8.047-2.773 3.653-6.166 6.904-8.522 10.793a240.513 240.513 0 0 1-23.12 31.765 29.543 29.543 0 0 0-3.532 4.708c-3.527 6.356-8.107 11.908-12.827 17.378a57.437 57.437 0 0 0-5.23 6.705c-4.66 7.395-9.083 14.935-13.721 22.342a160.207 160.207 0 0 1-9.451 14.16 86.904 86.904 0 0 0-8.788 13.012c-5.309 10.064-12 19.243-18.152 28.756-4.972 7.69-10.423 15.066-15.586 22.636-1.596 2.338-2.886 4.887-4.414 7.274a81.542 81.542 0 0 1-5.494 8.094c-8.072 9.78-16.3 19.43-24.437 29.153a33.31 33.31 0 0 0-3.89 5.252c-3.855 7.095-8.863 13.425-13.513 19.95-4.931 6.921-10.83 13.16-16.404 19.61a38.233 38.233 0 0 1-4.812 4.352c-4.08 3.338-7.158 7.478-10.304 12.057 1.583 1.536 2.892 2.951 4.345 4.193 6.333 5.378 12.564 10.893 19.12 15.987 4.41 3.427 7.729 7.814 10.77 12.204a251.106 251.106 0 0 1 14.471 24.159 42.34 42.34 0 0 0 10.114 12.663c6.443 5.318 11.736 11.704 17.692 17.442 5.612 5.404 10.216 11.871 15.697 17.518 2.728 2.814 5.25 5.813 8.258 8.374a37.35 37.35 0 0 1 6.026 5.976 43.797 43.797 0 0 0 7.33 7.44c3.345 2.818 6.663 5.665 10.037 8.445a30.6 30.6 0 0 0 4.225 3.07c5.115 2.896 10.284 5.693 15.452 8.498 6.886 3.734 13.468 8.09 21.097 10.328a5.065 5.065 0 0 1 1.757.861c3 2.452 6.68 3.145 10.28 4.03 6.103 1.498 12.47 1.51 18.497 3.688 3.86 1.394 8.07 1.832 12.135 2.62a14.953 14.953 0 0 0 4.49.435c6.338-.778 12.566.299 18.758 1.193a48.932 48.932 0 0 0 10.417.417q4.905-.33 9.8-.852a22.096 22.096 0 0 1 9.716.666 10.96 10.96 0 0 0 4.489.35c5.42-.519 10.827-1.174 16.234-1.822 2.319-.273 3.8 1.318 3.206 3.577a8.463 8.463 0 0 1-.41 1.24c-1.653 3.789-3.017 7.748-5.058 11.317-2.467 4.314-2.584 8.698-1.582 13.28.191.873 1.066 1.594 1.672 2.458a13.823 13.823 0 0 0 1.875-1.443c3.59-4.118 7.127-8.286 10.728-12.396 3.574-4.075 6.252-8.89 10.437-12.471a10.235 10.235 0 0 0 1.772-2.732c4.737-8.114 9.87-15.937 16.332-22.827 1.943-2.072 3.708-4.31 5.502-6.511a17.027 17.027 0 0 0 2.675-3.705c2.212-5.12 5.903-9.143 9.357-13.38 1.792-2.196 3.308-4.617 4.968-6.925 2.288-3.19 4.517-6.423 6.913-9.53 7.181-9.325 16.071-17.322 21.61-27.918a2.565 2.565 0 0 1 .4-.52 126.29 126.29 0 0 0 12.07-16.319c2.128-3.288 4.792-6.21 6.425-9.851a16.197 16.197 0 0 1 2.637-3.733c3.847-4.486 7.678-8.968 10.13-14.436a10.055 10.055 0 0 1 1.101-1.623c5.077-7.096 10.372-14.045 15.17-21.32a180.662 180.662 0 0 1 12.705-16.677 27.113 27.113 0 0 0 3.919-5.23c2.131-4.403 5.251-8.031 8.348-11.706 4.229-5.017 8.47-10.02 12.658-15.067 1.252-1.509 2.356-3.14 3.489-4.742 2.519-3.556 4.866-7.245 7.553-10.669 4.04-5.145 8.69-9.806 11.588-15.813a21.641 21.641 0 0 1 3.188-4.148c2.953-3.514 5.953-6.994 8.907-10.504.982-1.17 2.236-2.268 2.766-3.63 1.722-4.415 4.993-7.653 7.945-11.152l4.773-5.681c-1.885-5.151-4.339-9.535-8.536-13.008-17.007-14.082-33.834-28.387-50.912-42.381-6.076-4.973-12.59-9.431-19.067-13.88-5.575-3.832-11.52-7.103-16.595-11.675a44.843 44.843 0 0 0-6.5-4.4c-6.312-3.916-12.688-7.732-18.984-11.671q-18.894-11.816-37.724-23.728c-4.617-2.918-9.347-5.703-13.703-8.973a76.032 76.032 0 0 0-11.64-7.269c-3.902-1.954-8.088-3.627-11.443-6.306-4.331-3.453-9.132-5.952-13.855-8.665a40.172 40.172 0 0 1-3.975-2.271c-5.79-4.28-11.465-8.718-17.303-12.933a37.393 37.393 0 0 0-7.881-4.62 24.763 24.763 0 0 1-6.69-3.983c-9.308-7.615-18.636-15.2-27.92-22.845a32.535 32.535 0 0 0-10.613-6.312ZM493.586 508.35c4.347 3.652 7.455 6.393 10.715 8.943a29.287 29.287 0 0 0 5.073 2.977q19.384 9.568 38.812 19.046c1.168.57 2.45 1.423 3.635 1.356 5.014-.29 9.289 1.828 13.503 3.954a31.694 31.694 0 0 0 15.707 3.82 20.096 20.096 0 0 1 4.534.526c7.001 1.364 13.861.09 21-.759a33.294 33.294 0 0 1-.838-15.18c.978-4.894 4.649-8.64 6.063-13.806-4.345-.286-8.197.556-12.08.718-1.735.073-3.714.57-5.163-.073-3.656-1.623-7.29-1.048-10.97-.728-3.918.34-7.849.628-11.737 1.202-5.422.8-10.889-.995-16.284.43a1.7 1.7 0 0 1-1.239-.325c-2.182-1.59-4.6-.99-6.969-.813a21.441 21.441 0 0 1-8.365-.662c-3.692-1.154-7.706-1.285-11.58-1.86a9.398 9.398 0 0 1-2.55-.436c-3.042-1.421-6.338-1.437-9.544-2.029-6.408-1.185-12.979-2.081-18.475-6.143-.38-.295-1.138-.083-3.248-.158ZM776.5 338.69c.263.372.529.743.792 1.116 1.79-.65 3.592-1.265 5.355-1.976.26-.107.341-.666.604-1.227-1.599-.43-3.153-.848-4.921-1.32-.68 1.263-1.257 2.335-1.83 3.406ZM558.555 551.474l.483-.271c-.093-.129-.192-.367-.278-.364a.638.638 0 0 0-.414.275c-.036.043.13.234.206.358Z" data-name="Path 1100"/><path fill-rule="evenodd" d="M698.286 456.988c-2.521 2.19-5.017 4.427-7.6 6.542-.378.308-1.587.302-1.727.055-.364-.645-.698-1.667-.424-2.252a7.548 7.548 0 0 1 5.694-4.715c1.247-.21 2.479-.51 3.72-.768.108.38.222.76.337 1.138Z" data-name="Path 1101"/><path fill-rule="evenodd" d="M663.669 498.911c1.153-4.874 3.648-6.337 9.073-5.93-2.954 1.929-5.589 3.653-9.073 5.93Z" data-name="Path 1102"/><path fill="#d6d0c0" fill-rule="evenodd" d="M493.587 508.349c2.11.075 2.864-.133 3.252.153 5.494 4.062 12.065 4.96 18.474 6.145 3.206.593 6.502.607 9.545 2.029a9.39 9.39 0 0 0 2.55.435c3.873.575 7.887.706 11.579 1.86a21.441 21.441 0 0 0 8.365.663c2.37-.179 4.787-.778 6.97.813a1.7 1.7 0 0 0 1.237.324c5.396-1.424 10.864.369 16.285-.43 3.889-.573 7.818-.861 11.737-1.201 3.678-.318 7.31-.892 10.97.728 1.448.642 3.428.145 5.162.073 3.88-.159 7.735-1.004 12.081-.72-1.415 5.166-5.09 8.913-6.063 13.808a33.294 33.294 0 0 0 .843 15.18c-7.144.853-14.004 2.127-21.005.762a20.096 20.096 0 0 0-4.534-.526 31.694 31.694 0 0 1-15.707-3.819c-4.213-2.125-8.49-4.243-13.503-3.954-1.186.068-2.472-.788-3.635-1.357q-19.422-9.49-38.812-19.046a29.278 29.278 0 0 1-5.073-2.976c-3.266-2.548-6.375-5.295-10.718-8.944Z" data-name="Path 1103"/><g fill-rule="evenodd" data-name="Group 703"><path d="M240.239 64.475c-.303 1.367-.142 2.41-.747 3.016-2.373 2.369-5.808 2.975-9.513 3.059-7.75.166-15.506.398-23.258.613a156.07 156.07 0 0 0-12.397 1.21c-10.484 1.126-20.867 3.966-31.639 2.527-3.19-.574-6.537-.256-9.458.899a4.644 4.644 0 0 1-1.851.419c-8.725-.244-17.223 1.427-25.816 2.239-7.02.669-14.056.399-21.011 2.356-3.803 1.074-8.307.681-12.499.826-4.523.156-9.063.32-13.565.185a28.507 28.507 0 0 1-8.352-1.211c-3.511-1.321-7.593-1.348-11.131-.073-6.895 2.273-14.425 3.109-21.855 2.427-2.219-.202-4.545.168-6.771-.009-5.207-.551-10.444.833-14.157 3.742-3.381 2.627-7.402 2.719-11.672 2.785-4.991.079-7.584-2.128-9.231-5.176-.305-.562.672-1.549 1.228-2.684 1.005.364 1.95.821 2.816 1.361 2.978 2.898 8.326 3.481 12.203 1.329 7.011-3.445 14.413-4.025 22.269-4.01 7.749.009 15.439-.65 22.712-3.249 4.21-1.365 8.814-1.814 13.324-1.301 13.455 1.066 26.892 1.256 40.353-.983a56.781 56.781 0 0 1 7.729-.366c5.453-.139 10.986.409 16.196-1.603a5.11 5.11 0 0 1 1.907-.201c13.014.57 25.424-3.213 38.314-3.834 6.975-.334 13.875-2.057 20.814-3.131a28.458 28.458 0 0 1 3.843-.417c13.513-.262 27.017-.492 41.215-.745Z" data-name="Path 1107" transform="scale(.99983) rotate(40.035 133.103 836.695)"/><path d="M223.429 152.079a30.671 30.671 0 0 1-5.476 1.2c-8.682.099-17.288.578-25.743 2.773-1.897.492-4.012.289-6.015.523-1.72.1-3.418.4-5.05.892-9.055 3.383-18.38 3.847-27.931 3.062a59.665 59.665 0 0 0-8.591.325c-7.765.509-15.524 1.242-23.288 1.562-11.917.489-23.559 1.912-34.532 6.464-7.656 3.176-20.056 4.433-27.838 2.527a31.626 31.626 0 0 0-12.793-.136c-5.116.817-10.296 1.3-15.417 2.107-3.678.582-7.295 1.489-10.954 2.19a59.359 59.359 0 0 1-8.413 1.365c-1.69-.036-3.321-.552-4.647-1.472-.991-.762-1.526-1.883-1.451-3.038.38-1.321 2.071-1.978 3.442-1.338 4.006 1.575 7.794.708 11.747-.413a54.13 54.13 0 0 1 7.661-1.333c6.289-.838 12.576-1.737 18.893-2.343a52.335 52.335 0 0 1 11.177-.173c9.915 1.226 19.461.57 28.63-3.432 4.195-1.832 8.718-2.555 13.233-3.53 16.218-3.515 32.812-2.362 49.125-4.507a34.427 34.427 0 0 1 7.713.307c7.499.741 14.915.957 21.938-2.373a6.409 6.409 0 0 1 1.594-.605c11.912-2.031 23.749-4.729 35.973-4.142a16.44 16.44 0 0 1 4.919.985c.802.294 1.167 1.365 2.094 2.553Z" data-name="Path 1108" transform="scale(.99983) rotate(43.117 148.701 789.872)"/><path d="M240.081 14.343c-4.218.877-7.804 1.723-11.441 2.35-5.636.971-11.538.737-16.846 3.267-1.639.783-3.978.665-6.009.787-8.841.519-17.682 1.075-26.523 1.407a47.093 47.093 0 0 1-10.077-.568c-4.853-.877-9.421-.821-13.756 1.402-8.785 4.508-18.44 5.363-28.402 5.521-5.729.086-11.538.164-16.933 2.606a17.902 17.902 0 0 1-6.004.829c-13.599.776-27.199 1.536-40.805 2.206a42.5 42.5 0 0 1-14.916-1.503c-9.807-3.005-19.942-1.798-29.917.776-3.915 1.01-7.792 2.163-11.757 2.981-1.957.45-4.019.481-5.994.09-1.46-.476-2.547-1.521-2.91-2.795.048-1.323.862-2.544 2.182-3.275a13.178 13.178 0 0 1 5.883-.788c5.469.446 10.78-.349 16.204-.884 9.06-.877 18.249-1.953 27.262.125a47.206 47.206 0 0 0 14.095.639c11.205-.825 22.431-1.41 33.645-2.139 5.071-.329 10.119-.401 14.971-2.365 2.324-.941 5.318-.822 8.02-1.037 3.733-.302 7.475-.494 11.216-.688 5.817-.092 11.5-1.478 16.463-4.017 6.882-3.857 15.353-5.191 23.443-3.691 2.328.405 4.715.515 7.082.325 12.508-1.07 25.066-.887 37.565-3.245 6.782-1.287 14.183-.187 21.295-.037.805.018 1.554.871 2.964 1.721Z" data-name="Path 1110" transform="scale(.99983) rotate(40.035 133.103 836.695)"/><path d="M23.001 130.314c-.773 1.336-1.458 2.712-2.31 3.931-.551.794-1.316 1.881-2.036 1.957-4.419.472-8.388 3.665-12.926 3.238-3.083-.286-4.153-1.423-4.721-5.018a29.17 29.17 0 0 1-.377-3.029 8.414 8.414 0 0 1 .476-1.913c.745.343 1.75.426 2.086 1.025 1.684 2.997 4.027 3.567 6.903 2.86 1.529-.375 3.124-.367 4.621-.849 1.29-.284 2.498-.959 3.512-1.96 4.265-5.353 9.64-5.371 14.864-4.255a26.18 26.18 0 0 0 7.83.694l8.669-.741c4.222-.353 8.524-.219 12.645-1.238a47.69 47.69 0 0 0 11.218-4.834c3.858-2.112 8.211-2.52 12.294-1.153a33.626 33.626 0 0 0 13.815 1.03c5.984-.759 12-.994 17.998-1.56 3.739-.353 7.526-.11 11.04-2.604 1.218-.867 3.037-.602 4.587-.772 3.306-.361 6.65-.187 9.756-2.234a6.692 6.692 0 0 1 3.28-.535 34.534 34.534 0 0 0 7.785-1.717c3.821-1.122 7.908-.881 11.888-1.07.372-.02.875.961 1.078 1.587.098.317-.264.964-.549 1.317-.29.408-.686.688-1.123.793-5.326.406-10.459 2.15-15.66 3.444-2.168.539-4.373.531-6.447 1.85a8.59 8.59 0 0 1-3.876.963c-3.997.324-7.986.471-11.804 2.395a8.83 8.83 0 0 1-3.301.445c-9.558.777-19.119 1.471-28.673 2.346-3.157.287-6.254.354-9.072-1.286-6.147-3.57-11.813-.644-16.983 2.924-2.473 1.751-5.259 2.765-8.123 2.957-7.113.584-14.225 1.276-21.342 1.669-2.851.16-5.711-.389-8.571-.52-2.417-.114-4.845-.089-8.451-.137Z" data-name="Path 1111" transform="scale(.99983) rotate(40.035 133.103 836.695)"/><path d="M101.311 188.968c-.117 1.143-.055 2.015-.287 2.521-.911 1.98-2.229 2.487-3.651 2.557-2.975.139-5.952.333-8.927.513a28.924 28.924 0 0 0-4.758 1.011c-4.024.941-8.009 3.315-12.143 2.112-1.225-.479-2.509-.214-3.63.752-.216.218-.46.338-.711.35-3.349-.204-6.61 1.193-9.908 1.872-2.695.559-5.395.333-8.064 1.969-1.46.898-3.189.569-4.798.691-1.736.13-3.478.267-5.206.154-1.096.008-2.184-.336-3.206-1.012-1.347-1.104-2.914-1.127-4.272-.061-2.646 1.9-5.536 2.599-8.388 2.029-.851-.169-1.744.14-2.599-.008-1.998-.46-4.008.696-5.433 3.128-1.298 2.196-2.841 2.273-4.48 2.328-1.916.066-2.911-1.779-3.543-4.327-.117-.469.258-1.294.471-2.243a5.84 5.84 0 0 1 1.081 1.138c1.143 2.422 3.196 2.909 4.684 1.11 2.691-2.879 5.532-3.364 8.547-3.352 2.974.008 5.925-.543 8.717-2.715 1.616-1.141 3.383-1.517 5.114-1.088 5.164.891 10.321 1.05 15.488-.822a10.184 10.184 0 0 1 2.966-.306c2.093-.116 4.217.342 6.216-1.34a.99.99 0 0 1 .732-.168c4.995.477 9.758-2.685 14.705-3.204 2.677-.28 5.326-1.72 7.989-2.618a5.347 5.347 0 0 1 1.475-.348c5.186-.219 10.369-.411 15.819-.623Z" data-name="Path 1107" transform="scale(.99983) rotate(47.615 156.7 734.224)"/></g></g></g><g data-name="Group 1192"><g data-name="Group 1172"><g data-name="Group 1169"><g clip-path="url(#SelvOmsorgsBeskder_svg__a)" data-name="Group 1095" transform="matrix(1.69713 0 0 1.83299 286.099 -246.804)"><path fill="#f297bc" d="M101.807 154.517c2.663-1.523 8.767-17.971 8.767-17.971s47.218-18.721 43.815-68.487C150.986 18.293 93.138-17.444 41.667 8.931s-50.055 88.1-23.819 115.12c28.5 29.352 74.438 21 74.438 21s5.875 11.942 8.856 10.239" data-name="Path 1627"/><path fill="#ab003d" d="M44.858 62.524s-4.682-9.571-10.212-4.892 6.98 18.941 11.912 18.721c4.68-.212 15.527-16.8 9.571-21.057-6.358-4.54-11.271 7.228-11.271 7.228" data-name="Path 1628"/><path fill="#ab003d" d="M103.239 60.933s-4.68-9.571-10.212-4.892 6.983 18.936 11.912 18.716c4.68-.212 15.318-15.739 9.359-19.993-6.353-4.54-11.06 6.168-11.06 6.168" data-name="Path 1629"/><path d="M60.225 72.69c.005.038.276.461.855 1.341a23.234 23.234 0 0 0 2.652 3.245 16.8 16.8 0 0 0 4.473 3.309 13.551 13.551 0 0 0 5.956 1.368l.4.016.2.008.1.005h.075l-.172.013h.016l.944-.094c.306-.038.652-.056.92-.1l.619-.172a10.353 10.353 0 0 0 2.666-1.016 15.8 15.8 0 0 0 2.365-1.62 24.353 24.353 0 0 0 1.918-1.911 24.057 24.057 0 0 0 2.51-3.4c.512-.872.807-1.368.807-1.368l.1-.166a1.412 1.412 0 0 1 2.6 1.016s-.038.182-.113.52a13.2 13.2 0 0 1-.37 1.354 21.76 21.76 0 0 1-2.089 4.548 19.213 19.213 0 0 1-2.076 2.757 16.413 16.413 0 0 1-3.038 2.58 14.291 14.291 0 0 1-4.063 1.834l-1.2.295c-.351.062-.636.083-.96.126l-.941.115-.249.019h-.482l-.55-.005a16.637 16.637 0 0 1-4.371-.587 15.273 15.273 0 0 1-3.964-1.673 17.017 17.017 0 0 1-5.374-5.055 19.724 19.724 0 0 1-2.3-4.489 12.833 12.833 0 0 1-.416-1.36l-.115-.5-.1-.424a1.407 1.407 0 0 1 2.741-.633c.008.035.016.075.021.11" data-name="Path 1630"/></g></g><g data-name="Group 1165"><g clip-path="url(#SelvOmsorgsBeskder_svg__b)" data-name="Group 1093" transform="matrix(1.797 0 0 1.7055 119.423 -7.728)"><path fill="#f3d643" d="M104.717 157.361c-1.205 4.945-97.172 7.754-103.75-73.087C-5.499 4.818 67.968-12.464 104.5 7.601c32.495 17.854 50.064 65.624 20 105.427-13.781 18.251-38.067 23.93-36.276 27.973 2.477 5.579 21.423 10.095 21.292 12.639" data-name="Path 1621"/><path d="M49.719 64.817a3.308 3.308 0 1 1-3.375-3.24 3.305 3.305 0 0 1 3.375 3.24" data-name="Path 1622"/><path d="M100.442 63.779a3.309 3.309 0 1 1-3.373-3.24 3.3 3.3 0 0 1 3.373 3.24" data-name="Path 1623"/><path d="M56.627 71.596s.062.178.173.432l.565 1.225a21.644 21.644 0 0 0 2.551 4.031 20.093 20.093 0 0 0 2.131 2.209 15.313 15.313 0 0 0 2.753 1.838 13.222 13.222 0 0 0 3.3 1.164 15.788 15.788 0 0 0 3.6.371c.7-.036 1.482-.021 2.1-.1l1.67-.295c.565-.192 1.142-.337 1.7-.508l1.572-.722a15.337 15.337 0 0 0 2.689-1.922 17.275 17.275 0 0 0 2.057-2.273 20.731 20.731 0 0 0 2.408-4.116c.473-1.074.679-1.7.667-1.665a1.253 1.253 0 0 1 2.47.428l-.069.591a14.491 14.491 0 0 1-.28 1.551 20.448 20.448 0 0 1-2.033 5.254 17.231 17.231 0 0 1-2.264 3.147 16.876 16.876 0 0 1-3.392 2.853c-.67.39-1.382.734-2.095 1.1-.746.278-1.506.551-2.285.8-.822.178-1.677.323-2.525.466-.8.1-1.451.09-2.185.14a18.443 18.443 0 0 1-4.886-.549 15.3 15.3 0 0 1-4.404-1.784 15.968 15.968 0 0 1-3.475-2.734c-.482-.506-.9-1.036-1.323-1.53l-1.038-1.546a20.146 20.146 0 0 1-2.185-5.19 13.852 13.852 0 0 1-.33-1.546c-.052-.371-.078-.57-.078-.57a1.256 1.256 0 0 1 2.43-.589Z" data-name="Path 1624"/><path fill="#ce4a70" d="M45.345 76.891a9.8 9.8 0 1 0-9.6 10 9.8 9.8 0 0 0 9.6-10" data-name="Path 1625"/><path fill="#ce4a70" d="M116.142 76.892a9.8 9.8 0 1 0-9.6 10 9.8 9.8 0 0 0 9.6-10" data-name="Path 1626"/></g></g></g></g></svg>