<svg viewBox="460.455 353.478 102.981 121.951" xmlns="http://www.w3.org/2000/svg"><g data-name="Group 1500"><g data-name="Group 1492"><g data-name="Group 1463"><path fill="#d1c8a4" d="M533.989 460.6a4.68 4.68 0 0 1-5.298 3.51l-55.465-9.799a4.123 4.123 0 0 1-3.322-5.031l17.908-77.437a4.681 4.681 0 0 1 5.298-3.509l55.455 9.797a4.123 4.123 0 0 1 3.324 5.031Z" data-name="Path 1896"/><g data-name="Group 1459"><path fill="#efa734" d="M488.075 432.7c.115.021.239-.087.074-.116-.115-.02-.239.088-.074.117Z" data-name="Path 1897"/></g><g fill="#d99543" data-name="Group 1460"><path d="M517.322 379.617c-5.797-1.454-11.496-3.21-17.176-5.002-3.993-1.259-8.075-2.295-12.057-3.585a4.35 4.35 0 0 0-.108.265c2.432.784 4.899 1.475 7.37 2.145 4.48 1.222 8.856 2.77 13.309 4.078a196.028 196.028 0 0 0 27.274 5.982c5.133.746 10.3 1.305 15.49 1.711l.054-.236a205.952 205.952 0 0 1-34.156-5.358Z" data-name="Path 1898"/><path d="M526.283 378.51c4.443 1.142 8.94 2.113 13.498 2.816a118.587 118.587 0 0 0 12.216 1.18c.006-.086.008-.171.01-.256-3.48-.174-6.949-.457-10.4-.928a131.288 131.288 0 0 1-13.946-2.754c-4.583-1.142-9.062-2.623-13.53-4.098-4.51-1.488-9.012-3.031-13.409-4.792l-1.439-.254c4.415 1.81 8.944 3.389 13.49 4.907 4.46 1.49 8.94 3.002 13.51 4.178Z" data-name="Path 1899"/><path d="m485.729 380.869-.065.277a176.217 176.217 0 0 1 22.145 2.076c9.313 1.392 18.588 3.068 27.74 5.121a248.983 248.983 0 0 1 14.306 3.645l.065-.282a290.608 290.608 0 0 0-28.598-6.515c-11.716-2.107-23.575-4.06-35.593-4.322Z" data-name="Path 1900"/><path d="M515.768 388.113c-10.468-1.463-21.295-1.758-31.83.5l-.064.271c16.642-3.647 33.857-.852 49.88 2.87a156.824 156.824 0 0 1 15.164 4.288l.06-.263q-3.5-1.188-7.068-2.199a194.693 194.693 0 0 0-26.142-5.467Z" data-name="Path 1901"/><path d="M505.287 398.952q-11.31-2.415-22.752-4.277l-.061.265q2.634.42 5.263.878c9.541 1.654 18.984 3.692 28.44 5.688 3.756.792 7.502 1.622 11.22 2.554 3.696.926 7.326 2.045 10.937 3.215q3.723 1.206 7.405 2.52l.066-.286q-6.246-2.216-12.606-4.14c-9.113-2.744-18.577-4.423-27.912-6.417Z" data-name="Path 1902"/><path d="M506.847 390.347a4.564 4.564 0 0 0-2.334.564c-.694.526.662 1.427.96 1.659a15.414 15.414 0 0 0 4.335 2.157 76.523 76.523 0 0 0 5.916 1.858c2.23.597 4.489 1.098 6.717 1.694 2.275.614 4.51 1.36 6.76 2.046q6.777 2.064 13.59 4.034 1.969.569 3.943 1.13l.07-.304q-6.77-1.928-13.504-3.95c-4.495-1.348-8.947-2.827-13.516-3.948-2.25-.552-4.503-1.092-6.703-1.794a41.034 41.034 0 0 1-5.219-1.926 10.69 10.69 0 0 1-2.188-1.363c-.21-.172-.945-.684-.76-1.048.31-.603 2.07-.537 2.602-.567a40.422 40.422 0 0 1 8.704.566c9.548 1.514 18.681 4.716 27.57 8.155q2.01.778 4.005 1.586l.08-.347a184.071 184.071 0 0 0-19.903-7.02c-6.77-1.893-13.911-3.727-21.125-3.182Z" data-name="Path 1903"/><path d="M491.668 400.07c-3.265-.834-6.592-1.409-9.927-1.957l-.064.278a79.138 79.138 0 0 1 8.251 1.588c4.562 1.203 9.18 2.25 13.808 3.244 9.498 2.038 18.996 4.048 28.455 6.245q6.47 1.5 12.924 3.044l.078-.335c-12.397-2.955-24.82-5.822-37.314-8.42-5.435-1.137-10.85-2.32-16.21-3.687Z" data-name="Path 1904"/><path d="M526.27 416.95c-4.677-1.124-9.316-2.38-13.936-3.68-4.534-1.275-9.086-2.487-13.591-3.849-6.148-1.859-12.226-3.924-18.161-6.305l-.094.406c6.628 2.641 13.429 4.894 20.311 6.919 4.532 1.335 9.104 2.559 13.661 3.822 4.625 1.281 9.273 2.495 13.96 3.577 4.888 1.129 9.824 2.098 14.806 2.832l.082-.353c-5.743-.852-11.42-2.018-17.038-3.369Z" data-name="Path 1905"/><path d="M524.395 422.85c-9.173-2.273-18.104-5.284-27.049-8.204-4.338-1.418-8.627-2.97-12.81-4.749a83.715 83.715 0 0 1-4.982-2.34l-.087.372c1.602.801 3.22 1.574 4.879 2.284 4.223 1.796 8.562 3.34 12.942 4.776 8.947 2.922 17.883 5.911 27.058 8.186 4.574 1.133 9.15 2.18 13.814 2.965q1.827.307 3.656.576l.071-.304q-1.635-.243-3.262-.51c-4.802-.796-9.52-1.884-14.23-3.051Z" data-name="Path 1906"/><path d="M505.366 424.826a137.644 137.644 0 0 0-21.536.501c-2.944.316-5.823.87-8.72 1.46l-.078.333 1.582-.33a88.677 88.677 0 0 1 13.593-1.626 161.713 161.713 0 0 1 27.97 1.108 208.107 208.107 0 0 1 22.79 4.133l.08-.345a198.624 198.624 0 0 0-35.68-5.234Z" data-name="Path 1907"/><path d="M492.137 420.336c1.884-.254 3.86-.16 5.67-.868.153-.06.056-.167-.04-.21a8.26 8.26 0 0 0-2.23-.403 12.355 12.355 0 0 1-2.636-.687c-1.629-.555-3.265-1.112-4.88-1.702a68.262 68.262 0 0 1-9.522-4.337l-.08.346a71.104 71.104 0 0 0 9.058 4.116c1.62.606 3.278 1.136 4.911 1.718a20.085 20.085 0 0 0 2.249.66c.837.192 1.715.164 2.534.403-1.798.618-3.832.517-5.684.779-2.15.305-4.295.562-6.453.769q-4.36.422-8.728.692l-.061.265q4.6-.289 9.196-.727c2.241-.217 4.463-.513 6.696-.814Z" data-name="Path 1908"/><path d="M518.749 432.875a146.277 146.277 0 0 0-27.487-1.91q-3.622.09-7.244.416c-2.498.228-4.964.656-7.45 1.002-.943.132-1.895.26-2.846.404l-.087.378c.959-.149 1.92-.28 2.872-.407 2.197-.304 4.38-.69 6.583-.925 2.346-.25 4.697-.397 7.046-.482a143.952 143.952 0 0 1 27.847 1.77 121.938 121.938 0 0 1 14.093 3.073c2.372.673 4.718 1.416 7.048 2.2l.09-.39a161.29 161.29 0 0 0-6.758-2.108 122.116 122.116 0 0 0-13.707-3.02Z" data-name="Path 1909"/><path d="M496.563 437.715a76.478 76.478 0 0 0-24.165.8l-.086.372a69.338 69.338 0 0 1 19.029-1.277 158.363 158.363 0 0 1 27.448 4.373c6.17 1.466 12.314 3.053 18.388 4.833l.08-.35a353.227 353.227 0 0 0-13.399-3.606 199.385 199.385 0 0 0-27.295-5.145Z" data-name="Path 1910"/><path d="M512.607 448.679c-4.53-1.04-9.062-2.071-13.678-2.774a105.193 105.193 0 0 0-28.119-.531l-.054.234a103.398 103.398 0 0 1 21.507-.281c9.392.846 18.53 3.085 27.596 5.317a294.478 294.478 0 0 1 15.454 4.225l.057-.245q-4.595-1.397-9.246-2.629c-4.479-1.19-8.99-2.279-13.517-3.316Z" data-name="Path 1911"/><path d="M518.104 459.804q-6.87-1.693-13.815-3.132c-6.86-1.415-13.748-2.674-20.735-3.508q-6.633-.792-13.336-1.099c.051.104.105.205.164.303 16.604.836 32.84 4.028 48.814 8.013q4.972 1.24 9.91 2.59c.818.223 1.633.457 2.445.698q.173-.089.338-.19l-.051-.017c-4.509-1.402-9.136-2.524-13.734-3.658Z" data-name="Path 1912"/></g><path fill="#e6e7e8" d="M1026.183 219.08h-51.224l-4.07 77.58s14.6-1.448 25.688-1.448 25.536 1.448 25.536 1.448Z" data-name="Path 1913" style="mix-blend-mode:multiply;isolation:isolate" transform="rotate(10.02 -156.23 -2439.047)"/><path fill="#f5f5f5" d="m545.25 383.185-51.318-9.065-17.377 75.142 51.318 9.065Z" data-name="Path 1914"/><path fill="#e6e7e8" d="m1035.874 188.041-1.082 1.39-12.054 2.845a2.588 2.588 0 0 0-1.486 1.054l-3.462 5.153c-.639.951-.3 1.889.689 1.889h34.837a2.416 2.416 0 0 0 2.2-1.889l.65-5.153a.9.9 0 0 0-.646-1.054l-9.784-2.845.028-1.39Z" data-name="Path 1915" style="mix-blend-mode:multiply;isolation:isolate" transform="rotate(10.02 -277.436 -2660.7)"/><g data-name="Group 1461"><path fill="#bcbec0" d="m536.54 379.86-10.113-4.676-.435-3.065a6.636 6.636 0 0 0 2.97-4.244 5.937 5.937 0 0 0-4.422-7.013 6.702 6.702 0 0 0-8.015 4.967 5.962 5.962 0 0 0 .884 4.773l-1.763 2.677-11.398.877a1.607 1.607 0 0 0-1.287.842l-2.548 4.784a1.416 1.416 0 0 0 .995 2.094l34.315 6.062a1.583 1.583 0 0 0 1.847-1.592l-.221-5.274a1.392 1.392 0 0 0-.809-1.212Zm-12.868-17.014a1.37 1.37 0 0 1 1.107 1.678 1.555 1.555 0 0 1-1.766 1.17 1.37 1.37 0 0 1-1.107-1.678 1.555 1.555 0 0 1 1.766-1.17Z" data-name="Path 1916"/></g><g data-name="Group 1462"><path fill="#d1d3d4" d="m536.131 379.788-10.113-4.677-.435-3.065a6.635 6.635 0 0 0 2.97-4.243 5.937 5.937 0 0 0-4.421-7.013 6.702 6.702 0 0 0-8.015 4.967 5.962 5.962 0 0 0 .883 4.773l-1.763 2.677-11.398.876a1.607 1.607 0 0 0-1.287.843l-2.548 4.784a1.416 1.416 0 0 0 .996 2.094l34.314 6.062a1.584 1.584 0 0 0 1.848-1.593l-.223-5.273a1.392 1.392 0 0 0-.808-1.212Zm-12.868-17.014a1.37 1.37 0 0 1 1.107 1.678 1.555 1.555 0 0 1-1.765 1.17 1.37 1.37 0 0 1-1.108-1.678 1.555 1.555 0 0 1 1.766-1.17Z" data-name="Path 1917"/></g></g><path fill="none" stroke="#353f4f" stroke-linecap="round" stroke-width="3.00075" d="m497.66 390.118 36.626 6.47" data-name="Line 118"/><path fill="none" stroke="#353f4f" stroke-linecap="round" stroke-width="3.00075" d="m496.254 397.956 36.626 6.47" data-name="Line 119"/><path fill="none" stroke="#353f4f" stroke-linecap="round" stroke-width="3.00075" d="m493.848 405.792 35.03 6.188" data-name="Line 120"/><path fill="none" stroke="#353f4f" stroke-linecap="round" stroke-width="3.00075" d="m492.129 413.347 31.9 5.635" data-name="Line 121"/><path fill="none" stroke="#353f4f" stroke-linecap="round" stroke-width="3.00075" d="m489.766 420.349 36.626 6.47" data-name="Line 122"/><path fill="none" stroke="#353f4f" stroke-linecap="round" stroke-width="3.00075" d="m487.66 428.185 32.698 5.776" data-name="Line 123"/></g></g></svg>