<svg viewBox="-1642.887 -646.126 1430.311 1994.646" xmlns="http://www.w3.org/2000/svg"><defs><clipPath id="Tankerillu_svg__a"><path d="M0 0h1166v1094H0z"/></clipPath><clipPath id="Tankerillu_svg__i"><path d="M0 0h1166v1094H0z"/></clipPath><clipPath id="Tankerillu_svg__j"><path d="M0 0h545v513H0z"/></clipPath><clipPath id="Tankerillu_svg__k"><path fill="#323f51" d="M0 0h35.569v27.465H0z" data-name="Rectangle 374"/></clipPath><clipPath id="Tankerillu_svg__l"><path d="M0 0h1166v1094H0z"/></clipPath><clipPath id="Tankerillu_svg__b"><path d="M0 0h1166v1094H0z"/></clipPath><clipPath id="Tankerillu_svg__c"><path d="M0 0h545v513H0z"/></clipPath><clipPath id="Tankerillu_svg__m"><path d="M0 0h1166v1094H0z"/></clipPath><clipPath id="Tankerillu_svg__n"><path d="M0 0h1166v1094H0z"/></clipPath><clipPath id="Tankerillu_svg__o"><path d="M0 0h545v513H0z"/></clipPath><clipPath id="Tankerillu_svg__p"><path fill="#323f51" d="M5258.979 2266.581h35.563v27.472h-35.563z" data-name="Rectangle 374"/></clipPath><clipPath id="Tankerillu_svg__q"><path d="M0 0h1166v1094H0z"/></clipPath><clipPath id="Tankerillu_svg__d"><path d="M0 0h1166v1094H0z"/></clipPath><clipPath id="Tankerillu_svg__e"><path d="M0 0h1166v1094H0z"/></clipPath><clipPath id="Tankerillu_svg__f"><path d="M0 0h545v513H0z"/></clipPath><clipPath id="Tankerillu_svg__g"><path fill="#323f51" d="M15947.34 35330.793h35.574v27.472h-35.574z" data-name="Rectangle 374"/></clipPath><clipPath id="Tankerillu_svg__h"><path d="M0 0h1166v1094H0z"/></clipPath></defs><g data-name="Group 1411"><path fill="none" d="m-1661.239 69.276-177.884-144.001 152.72-188.654 177.884 144.001z" data-name="Rectangle 451"/></g><g data-name="Group 1216"><g data-name="Group 1209"><path fill="none" stroke-linecap="round" stroke-linejoin="round" d="M2080.948 10372.722c.734 62.83 1.463 105.127 2.197 167.962a290.471 290.471 0 0 0 60.401 1.207" data-name="Path 1765" style="stroke:#080d0d;stroke-width:5px" transform="translate(-2962.058 -9234.52)"/><path stroke-miterlimit="10" d="M2080.486 9783.604c46.79 27.71 75.154 80.818 95.255 133.78 38.12 100.81 54.756 209.167 48.74 317.455-1.171 20.787-3.328 42.099-12.277 60.601-11.359 23.487-32.499 39.906-54.656 51.683-42.057 22.348-89.473 30.809-136.381 33.503-39.879 2.29-80.833.428-118.044-15.055s-70.422-46.405-82.038-87.215c-6.877-24.156-5.918-49.952-4.896-75.175 1.005-24.829 2.011-49.658 3.018-74.486 2.693-66.484 5.59-134.137 26.501-196.822 20.911-62.686 62.95-120.805 121.859-142.45 18.754-6.895 41.611-23.165 61.18-19.72 42.503 7.481 22.321 2.699 51.739 13.899" data-name="Path 1767" style="stroke:#080d0d;stroke-width:5px;fill:#59b6c8" transform="translate(-2962.058 -9234.52)"/><path fill="none" stroke-linecap="round" stroke-linejoin="round" d="M2208.558 10024.213c33.47 10.295 59.365 52.991 59.398 97.93.007 10.642-1.335 21.456-5.021 30.95-6.85 17.622-20.69 28.404-33.926 37.972-47.138 34.056-127.853-176.26-177.555-149.143" data-name="Path 1771" style="stroke:#080d0d;stroke-width:5px" transform="translate(-2962.058 -9234.52)"/><path fill="none" stroke="#353f4f" stroke-linecap="round" stroke-miterlimit="10" d="M2041.175 9906.371c11.788 2.507 20.613 8.884 29.395 17.065" data-name="Path 1769" style="stroke-width:5px" transform="rotate(-9.547 -54715.493 23032.547)"/><path fill="none" stroke-linecap="round" stroke-linejoin="round" d="M1956.879 10380.983c2.747 60.268 2.828 100.747.239 161.018a135.12 135.12 0 0 0-60.725.919" data-name="Path 1766" style="stroke:#080d0d;stroke-width:5px" transform="translate(-2962.058 -9234.52)"/><path fill="none" stroke="#353f4f" stroke-linecap="round" stroke-miterlimit="10" d="M1974.443 9910.435c-11.788 2.507-20.623 8.884-29.394 17.065" data-name="Path 1768" style="stroke-width:5px" transform="translate(-2962.058 -9234.52)"/><path fill="none" stroke-linecap="round" stroke-linejoin="round" d="M1829.255 9986.522c-26.588 30.163-40.972 154.478-38.172 327.218" data-name="Path 1770" style="stroke:#080d0d;stroke-width:5px" transform="translate(-2962.058 -9234.52)"/><g data-name="Group 840"><path fill="#557591" d="M-277.745 1650.681c6.719-.205 12.627-6.571 13.197-14.22.57-7.649-4.413-13.684-11.132-13.479-6.718.205-12.626 6.572-13.197 14.221-.57 7.649 4.415 13.683 11.132 13.478Z" data-name="Path 1178" transform="matrix(-.48239 -1.43748 1.30962 -.43948 -3407.068 892.971)"/><path fill="#557591" d="M-1190.502 528.632c-5.304-14.466-22.143-23.106-37.612-19.293-15.468 3.813-23.707 18.63-18.403 33.097 5.304 14.468 22.142 23.106 37.611 19.294 15.469-3.812 23.708-18.63 18.404-33.098Z" data-name="Path 1177"/><path fill="#557591" d="M-408.902 1586.665c13.905-.453 26.135-14.511 27.313-31.4 1.18-16.889-9.133-30.212-23.04-29.761-13.905.453-26.131 14.51-27.313 31.401-1.18 16.889 9.137 30.212 23.04 29.76Z" data-name="Path 1179" transform="matrix(-.48239 -1.43748 1.30962 -.43948 -3561.25 558.993)"/><path d="M-79.392 793.605c48.484-20.24 95.107-34.829 139.364-20.727 42.876 13.798 84.171 47.585 121.934 99.764 15.29 20.994 31.075 52.362 27.18 108.802-2.433 35.226-12.146 71.124-21.883 103.636-14.127 47.159-29.705 93.663-47.964 126.919-32.389 58.973-58.626 87.559-135.384 73.223-27.737-5.185-215.408-50.808-239.345-75.037-13.011-13.176-32.078-155.37-26.582-196.452 10.791-80.664 46.404-94.844 88.283-134.981 17.793-17.058 65.469-64.827 109.901-91.578" data-name="Path 517" style="fill:#48657e" transform="matrix(-1.34352 .70284 -.64033 -1.22402 -181.882 1026.25)"/><path fill="#557591" d="M-426.776 1046.921c37.488-17.945 73.536-30.879 107.754-18.376 33.152 12.233 65.081 42.186 94.278 88.445 11.821 18.613 24.027 46.423 21.015 96.459-1.882 31.229-9.39 63.055-16.92 91.878-10.924 41.809-22.969 83.037-37.085 112.52-25.044 52.281-51.922 58.861-76.649 62.872-62.152 10.078-124.263 18.569-183.611 5.862-21.446-4.598-42.664-12.065-61.171-33.548-10.061-11.679-19.98-31.658-19.183-70.025 1.148-55.062 14.52-109.758 30.327-140.935 31.63-62.369 35.879-84.082 68.259-119.665 13.758-15.123 50.62-57.474 84.974-81.189" data-name="Path 517" transform="matrix(-1.49303 -.2644 .24088 -1.36023 -2219.7 1654.013)"/><path d="M113.169 1063.477c34.826-21.058 68.315-36.236 100.104-21.564 30.797 14.354 60.459 49.504 87.583 103.787 10.983 21.842 22.321 54.475 19.523 113.19-1.748 36.648-8.724 73.992-15.718 107.816-10.148 49.061-21.338 97.442-34.453 132.039-23.264 61.352-48.234 69.07-71.207 73.776-57.738 11.828-115.439 21.791-170.573 6.88-19.923-5.396-39.635-14.159-56.828-39.366-9.345-13.707-18.56-37.152-17.819-82.173 1.065-64.612 13.488-128.797 28.172-165.38 29.384-73.189 33.331-98.67 63.412-140.425 12.781-17.746 47.026-67.443 78.941-95.272" data-name="Path 517" style="fill:#648bac" transform="matrix(1.51063 .13054 -.11893 1.37626 -553.643 -1700.917)"/><path d="M-175.346 1561.128c6.719.205 12.627 6.571 13.197 14.22.57 7.649-4.413 13.684-11.132 13.479-6.718-.205-12.626-6.572-13.197-14.221-.57-7.649 4.415-13.683 11.132-13.478Z" data-name="Path 1178" style="fill:#48657e" transform="matrix(.48239 -1.43748 1.30962 .43948 -2953.23 -456.807)"/><path d="M-212.666 1419.667c13.856.402 26.044 12.897 27.22 27.908 1.175 15.01-9.104 26.852-22.961 26.449-13.858-.402-26.044-12.896-27.22-27.907-1.176-15.011 9.104-26.852 22.961-26.45Z" data-name="Path 1177" style="fill:#48657e" transform="matrix(.48239 -1.43748 1.30962 .43948 -2822.875 -629.566)"/><path d="M-167.731 1323.061c17.547.609 32.98 19.509 34.467 42.214 1.489 22.706-11.525 40.617-29.074 40.011-17.546-.609-32.976-19.507-34.468-42.215-1.489-22.706 11.53-40.617 29.075-40.01Z" data-name="Path 1179" style="fill:#48657e" transform="matrix(.48239 -1.43748 1.30962 .43948 -2667.564 -642.028)"/><path d="M-10.288 1688.445c6.719.205 12.627 6.571 13.197 14.22.57 7.649-4.413 13.684-11.132 13.479-6.718-.205-12.626-6.572-13.197-14.221-.57-7.649 4.415-13.683 11.132-13.478Z" data-name="Path 1178" style="fill:#648bac" transform="matrix(.48239 -1.43748 1.30962 .43948 -2949.317 -99.619)"/><path d="M41.716 1655.522c10.158.308 19.093 9.875 19.955 21.369.861 11.494-6.674 20.561-16.833 20.253-10.159-.308-19.093-9.875-19.955-21.369-.862-11.494 6.674-20.561 16.833-20.253Z" data-name="Path 1177" style="fill:#648bac" transform="matrix(.48239 -1.43748 1.30962 .43948 -2861.006 -48.558)"/><path d="M90.773 1594.446c13.906.453 26.136 14.511 27.314 31.4 1.18 16.889-9.133 30.212-23.04 29.761-13.905-.453-26.133-14.51-27.315-31.401-1.18-16.889 9.137-30.212 23.041-29.76Z" data-name="Path 1179" style="fill:#648bac" transform="matrix(.48239 -1.43748 1.30962 .43948 -2742.5 -25.539)"/><path d="M-207.921 1508.318c9.051.28 17.009 8.969 17.777 19.408.768 10.44-5.944 18.677-14.995 18.397-9.05-.28-17.008-8.97-17.777-19.409-.768-10.44 5.947-18.676 14.995-18.396Z" data-name="Path 1178" style="fill:#48657e" transform="matrix(.48239 -1.43748 1.30962 .43948 -2923.993 -548.1)"/></g><path fill="#323f51" d="M7095.028 13573.797c1.779-.832 7.024-3.289 6.673-5.909a3.37 3.37 0 0 1 .376-.319c-.741-.076-.292-.636.094-.085a7.814 7.814 0 0 1-.392-1.658c-2.631.153-15.187-2.376-14.338.068-.62-1.016-.89-.153-1-.056.173.223.365.432.573.624-1.477.822-2.258 1.866.117 2.18 2.654.351 5.444.631 8.205.819a14.648 14.648 0 0 1-3.223 2.189l-.389.185c.476-.471.865-.962.132-.7-.26.286-.478.607-.649.954-2.484 1.261-4.259 2.761-3.685 3.921.063.874.91 1.106 1.753 1.208l-.068.032.068-.032c.022.016-.013.019-.068.032-.1.048.16.156.229.17.081-.09.1-.142.087-.175l.194.019c.615.157 1.239.274 1.869.351.617.078 2.271.346 4.134.5.059.219.129.377.214.276-.028.034-.01-.09.021-.255.556.041 1.126.069 1.693.082-.206.122-.587.216-.451.3.22-.044.424-.148.589-.3.062 0 .125.006.188.006.112.141.417.147.959-.015 2.248-.091 4.117-.609 4.117-2.114 0-1.938-4.192-2.279-8.02-2.3m-2.091-8.506a1.13 1.13 0 0 1-.123.17h-.213c-.016-.244.156-.7.336-.169m-.862.084c.044-.122.1-.166.157-.132-.01.091-.019.15-.028.213h-.13v-.079m-.363.074h-.12a3.424 3.424 0 0 1-.09-.236s-.016-.034-.044-.113c.117-.072.214.166.254.352m-3.872.537s.1-.013.189-.016a.21.21 0 0 1-.189.016" clip-path="url(#Tankerillu_svg__g)" data-name="Path 1341" transform="translate(-2962.058 -9234.52)"/><path fill="#323f51" d="M7121.182 13564.834c-.007-1.594-5.945-1.86-10.132-1.9.189-.189.379-.389.568-.609.134-.044.263-.101.386-.169a1.65 1.65 0 0 1-.094-.182c.028-.034.054-.063.081-.1.021.079.037.16.048.242.324-.445.683-.865 1.071-1.255a.23.23 0 0 0 .087.088c.056.025.076-.107.054-.235 2.048-2.121 5.5-5.265 4.556-6.341.053-.022.1-.037.153-.06.3.057.323-.079.28-.236.135-.025.21-.047.2-.072a3.822 3.822 0 0 0-.429-.581c.053-.455-.68-.691-.871-1.009.069.106.117.226.142.351a4.718 4.718 0 0 0-.515-.31c.308-.2-.1-.258-.344-.156a6.729 6.729 0 0 0-1.053-.339c.129-.825-.208-.269-.172-.041a25.418 25.418 0 0 0-5.532-.25 1.368 1.368 0 0 0-.157.015 2.263 2.263 0 0 1-.6-.511c-.046-.079-.037-.1-.009-.113a4.772 4.772 0 0 1-.818.3.501.501 0 0 0 0-.164c-.018-.06-.078.057-.106.192-1.36.346-3.3.417-3.121.021-.363.791-.622.489-.558 1.572-.276-2.3.034.913-.247-.529.016.088.076.363.139.675-1.379.533-2.066 1.06-.465 1.286.159.021.439.038.806.05-.028.1-.037.185.018.235.011-.078.018-.155.022-.233 1.511.047 4.5.018 7.319-.057a.304.304 0 0 0-.181.314c-.029 1.069.369-.11.429-.32l.976-.028c.069.1.144.144.22.109.076-.035.137-.084.207-.123l.827-.029a.483.483 0 0 0-.115.317c-.046.476.229-.185.229-.322l.5-.019c-.26.239-.323.363-.3.42a36.123 36.123 0 0 0-4.096 3.663.145.145 0 0 0-.069-.081c-.132-.063-.214.142-.141.294a54.998 54.998 0 0 0-4.332 4.945.6.6 0 0 0-.056.694.703.703 0 0 0-.119.369 5.474 5.474 0 0 0 2.1.837c.938.4.743.232.443.029.241.068.495.131.758.189.075 1.053 1.59.712 2.42.42.4.051.807.1 1.217.134a.336.336 0 0 0-.1.279c.032.4.313-.025.382-.254.73.062 1.465.1 2.182.113-.106.07-.2.138-.253.117.092.038.257-.04.4-.116.681.01 1.342 0 1.957-.041 2.188-.138 3.811-.6 3.807-1.486m-5.4-8.9-.075.106a.274.274 0 0 1 .075-.106m1.288-1.7a.239.239 0 0 1-.019.144Zm-1.892 2.728.085-.148c.2.151.053.2-.085.148m.5.669c-.561-1.135.806.417 0 0m.332-.37c-.711-.721-.07-.226-.032-.173.073.1.085.161.032.173m.433-.348c.05.37-1.509-.753 0 0m-10.341-4.851c-.014.153-.04.305-.079.455-.081-.155-.038-1.081.079-.455m-.238.041c.006.254.006.393 0 .46a1.276 1.276 0 0 1-.048-.313c.007-.125.023-.175.046-.147m-1.008-.21h-.082c.019-.084.138-.637.082 0m.746.153c.113-.248.2.21.22.533-.037.01-.072.022-.109.031a8.798 8.798 0 0 1-.112-.564m9.379 2.259.333-.015c-.06.04-.123.085-.186.128a.285.285 0 0 0-.147-.113m-4.905 11.55.336.057c-.277.032-.374-.015-.336-.057" clip-path="url(#Tankerillu_svg__g)" data-name="Path 1342" transform="translate(-2962.058 -9234.52)"/><path fill="#323f51" d="M7105.662 13565.46c.437.288.986.35 1.477.169 0 0-1.875-.78-1.477-.169" clip-path="url(#Tankerillu_svg__g)" data-name="Path 1343" transform="translate(-2962.058 -9234.52)"/></g></g><path fill="#323f51" d="M1779.581 1798.383c1.779-.832 7.024-3.289 6.673-5.909a3.37 3.37 0 0 1 .376-.319c-.741-.076-.292-.636.094-.085a7.814 7.814 0 0 1-.392-1.658c-2.631.153-15.187-2.376-14.338.068-.62-1.016-.89-.153-1-.056.173.223.365.432.573.624-1.477.822-2.258 1.866.117 2.18 2.654.351 5.444.631 8.205.819a14.648 14.648 0 0 1-3.223 2.189l-.389.185c.476-.471.865-.962.132-.7-.26.286-.478.607-.649.954-2.484 1.261-4.259 2.761-3.685 3.921.063.874.91 1.106 1.753 1.208l-.068.032.068-.032c.022.016-.013.019-.068.032-.1.048.16.156.229.17.081-.09.1-.142.087-.175l.194.019c.615.157 1.239.274 1.869.351.617.078 2.271.346 4.134.5.059.219.129.377.214.276-.028.034-.01-.09.021-.255.556.041 1.126.069 1.693.082-.206.122-.587.216-.451.3.22-.044.424-.148.589-.3.062 0 .125.006.188.006.112.141.417.147.959-.015 2.248-.091 4.117-.609 4.117-2.114 0-1.938-4.192-2.279-8.02-2.3m-2.091-8.506a1.13 1.13 0 0 1-.123.17h-.213c-.016-.244.156-.7.336-.169m-.862.084c.044-.122.1-.166.157-.132-.01.091-.019.15-.028.213h-.13v-.079m-.363.074h-.12a3.424 3.424 0 0 1-.09-.236s-.016-.034-.044-.113c.117-.072.214.166.254.352m-3.872.537s.1-.013.189-.016a.21.21 0 0 1-.189.016" clip-path="url(#Tankerillu_svg__k)" data-name="Path 1341" transform="translate(-898.186 -534.525)"/><path fill="#323f51" d="M1805.735 1789.42c-.007-1.594-5.945-1.86-10.132-1.9.189-.189.379-.389.568-.609.134-.044.263-.101.386-.169a1.65 1.65 0 0 1-.094-.182c.028-.034.054-.063.081-.1.021.079.037.16.048.242.324-.445.683-.865 1.071-1.255a.23.23 0 0 0 .087.088c.056.025.076-.107.054-.235 2.048-2.121 5.5-5.265 4.556-6.341.053-.022.1-.037.153-.06.3.057.323-.079.28-.236.135-.025.21-.047.2-.072a3.822 3.822 0 0 0-.429-.581c.053-.455-.68-.691-.871-1.009.069.106.117.226.142.351a4.718 4.718 0 0 0-.515-.31c.308-.2-.1-.258-.344-.156a6.729 6.729 0 0 0-1.053-.339c.129-.825-.208-.269-.172-.041a25.418 25.418 0 0 0-5.532-.25 1.368 1.368 0 0 0-.157.015 2.263 2.263 0 0 1-.6-.511c-.046-.079-.037-.1-.009-.113a4.772 4.772 0 0 1-.818.3.501.501 0 0 0 0-.164c-.018-.06-.078.057-.106.192-1.36.346-3.3.417-3.121.021-.363.791-.622.489-.558 1.572-.276-2.3.034.913-.247-.529.016.088.076.363.139.675-1.379.533-2.066 1.06-.465 1.286.159.021.439.038.806.05-.028.1-.037.185.018.235.011-.078.018-.155.022-.233 1.511.047 4.5.018 7.319-.057a.304.304 0 0 0-.181.314c-.029 1.069.369-.11.429-.32l.976-.028c.069.1.144.144.22.109.076-.035.137-.084.207-.123l.827-.029a.483.483 0 0 0-.115.317c-.046.476.229-.185.229-.322l.5-.019c-.26.239-.323.363-.3.42a36.123 36.123 0 0 0-4.096 3.663.145.145 0 0 0-.069-.081c-.132-.063-.214.142-.141.294a54.998 54.998 0 0 0-4.332 4.945.6.6 0 0 0-.056.694.703.703 0 0 0-.119.369 5.474 5.474 0 0 0 2.1.837c.938.4.743.232.443.029.241.068.495.131.758.189.075 1.053 1.59.712 2.42.42.4.051.807.1 1.217.134a.336.336 0 0 0-.1.279c.032.4.313-.025.382-.254.73.062 1.465.1 2.182.113-.106.07-.2.138-.253.117.092.038.257-.04.4-.116.681.01 1.342 0 1.957-.041 2.188-.138 3.811-.6 3.807-1.486m-5.4-8.9-.075.106a.274.274 0 0 1 .075-.106m1.288-1.7a.239.239 0 0 1-.019.144Zm-1.892 2.728.085-.148c.2.151.053.2-.085.148m.5.669c-.561-1.135.806.417 0 0m.332-.37c-.711-.721-.07-.226-.032-.173.073.1.085.161.032.173m.433-.348c.05.37-1.509-.753 0 0m-10.341-4.851c-.014.153-.04.305-.079.455-.081-.155-.038-1.081.079-.455m-.238.041c.006.254.006.393 0 .46a1.276 1.276 0 0 1-.048-.313c.007-.125.023-.175.046-.147m-1.008-.21h-.082c.019-.084.138-.637.082 0m.746.153c.113-.248.2.21.22.533-.037.01-.072.022-.109.031a8.798 8.798 0 0 1-.112-.564m9.379 2.259.333-.015c-.06.04-.123.085-.186.128a.285.285 0 0 0-.147-.113m-4.905 11.55.336.057c-.277.032-.374-.015-.336-.057" clip-path="url(#Tankerillu_svg__k)" data-name="Path 1342" transform="translate(-898.186 -534.525)"/><path fill="#323f51" d="M1790.215 1790.046c.437.288.986.35 1.477.169 0 0-1.875-.78-1.477-.169" clip-path="url(#Tankerillu_svg__k)" data-name="Path 1343" transform="translate(-898.186 -534.525)"/><path d="M-939.574 768.748c2.007-8.379-4.002-16.318-10.814-14.302-6.816 2.019-9.324 12.485-4.515 18.84 1.095 1.45 2.48 2.517 4.014 3.083 4.812 1.8 9.879-1.617 11.315-7.621" data-name="Path 1666" style="stroke-width:5px;fill:#323f51"/><g data-name="Group 1411"><path fill="none" d="m990.032 1359.353-177.884-144.001 152.72-188.654 177.884 144.001z" data-name="Rectangle 451"/></g><g data-name="Group 1216" transform="translate(-2230.744 -8523.708)"><g data-name="Group 1209"><g data-name="Group 831"><g data-name="Group 840"><g data-name="Group 906"><g data-name="Group 1541"><g data-name="Group 1539" transform="matrix(1.65269 .13266 .13436 -1.57637 -1097.506 8235.674)"><path d="M1501.944-506.872h-.035c-1.181.074-2.314-.401-3.129-1.308-.751-1.013-1.096-2.331-.96-3.668a5.809 5.809 0 0 1 1.381-3.633c.854-.932 2.002-1.449 3.172-1.429h.01c1.277.001 2.46.636 3.228 1.732a1.751 1.751 0 0 0-1.299-.506h-.033c-1.416-.087-2.451 1.566-1.864 2.975.08.192.187.369.319.52.372.432.89.674 1.441.674h.083c1.026-.012 1.871-.977 1.849-2.117a2.45 2.45 0 0 0-.103-.88c.4.833.586 1.778.538 2.737a5.477 5.477 0 0 1-1.356 3.566c-.894.905-2.062 1.388-3.242 1.337Zm4.053-7.653a4.689 4.689 0 0 0-.386-.653c.173.181.306.403.388.652Z" data-name="Exclusion 2" style="stroke-width:2.52707px;fill:#323f51" transform="matrix(-.68495 .7671 -.69846 -.67774 2173.55 -2011.126)"/><path d="M1458.601-509.491h-.035c-1.181.074-2.314-.401-3.129-1.308-.751-1.013-1.096-2.331-.96-3.668a5.809 5.809 0 0 1 1.381-3.633c.854-.932 2.002-1.449 3.172-1.429h.01c1.277.001 2.46.636 3.228 1.732a1.751 1.751 0 0 0-1.299-.506h-.033c-1.416-.087-2.451 1.566-1.864 2.975.08.192.187.369.319.52.372.432.89.674 1.441.674h.083c1.026-.012 1.871-.977 1.849-2.117a2.45 2.45 0 0 0-.103-.88c.4.833.586 1.778.538 2.737a5.477 5.477 0 0 1-1.356 3.566c-.894.905-2.062 1.388-3.242 1.337Zm4.053-7.653a4.689 4.689 0 0 0-.386-.653c.173.181.306.403.388.652Z" data-name="Exclusion 2" style="stroke-width:2.52707px;fill:#323f51" transform="matrix(-.68495 .7671 -.69846 -.67774 2098.691 -1982.271)"/><circle cx="1257.636" cy="9241.142" r="3.036" style="fill:#f8f6f6" transform="matrix(.67931 .05717 .05536 -.6809 92.868 5708.643)"/></g></g></g></g></g></g><circle cx="1257.636" cy="9241.142" r="3.036" style="fill:#f8f6f6" transform="matrix(1.13037 0 0 1.0807 -105.032 -749.298)"/></g><path fill="#323f51" d="M3532.665 2553.935c1.779-.832 7.024-3.289 6.673-5.909a3.37 3.37 0 0 1 .376-.319c-.741-.076-.292-.636.094-.085a7.814 7.814 0 0 1-.392-1.658c-2.631.153-15.187-2.376-14.338.068-.62-1.016-.89-.153-1-.056.173.223.365.432.573.624-1.477.822-2.258 1.866.117 2.18 2.654.351 5.444.631 8.205.819a14.648 14.648 0 0 1-3.223 2.189l-.389.185c.476-.471.865-.962.132-.7-.26.286-.478.607-.649.954-2.484 1.261-4.259 2.761-3.685 3.921.063.874.91 1.106 1.753 1.208l-.068.032.068-.032c.022.016-.013.019-.068.032-.1.048.16.156.229.17.081-.09.1-.142.087-.175l.194.019c.615.157 1.239.274 1.869.351.617.078 2.271.346 4.134.5.059.219.129.377.214.276-.028.034-.01-.09.021-.255.556.041 1.126.069 1.693.082-.206.122-.587.216-.451.3.22-.044.424-.148.589-.3.062 0 .125.006.188.006.112.141.417.147.959-.015 2.248-.091 4.117-.609 4.117-2.114 0-1.938-4.192-2.279-8.02-2.3m-2.091-8.506a1.13 1.13 0 0 1-.123.17h-.213c-.016-.244.156-.7.336-.169m-.862.084c.044-.122.1-.166.157-.132-.01.091-.019.15-.028.213h-.13v-.079m-.363.074h-.12a3.424 3.424 0 0 1-.09-.236s-.016-.034-.044-.113c.117-.072.214.166.254.352m-3.872.537s.1-.013.189-.016a.21.21 0 0 1-.189.016" clip-path="url(#Tankerillu_svg__p)" data-name="Path 1341"/><path fill="#323f51" d="M3558.819 2544.972c-.007-1.594-5.945-1.86-10.132-1.9.189-.189.379-.389.568-.609.134-.044.263-.101.386-.169a1.65 1.65 0 0 1-.094-.182c.028-.034.054-.063.081-.1.021.079.037.16.048.242.324-.445.683-.865 1.071-1.255a.23.23 0 0 0 .087.088c.056.025.076-.107.054-.235 2.048-2.121 5.5-5.265 4.556-6.341.053-.022.1-.037.153-.06.3.057.323-.079.28-.236.135-.025.21-.047.2-.072a3.822 3.822 0 0 0-.429-.581c.053-.455-.68-.691-.871-1.009.069.106.117.226.142.351a4.718 4.718 0 0 0-.515-.31c.308-.2-.1-.258-.344-.156a6.729 6.729 0 0 0-1.053-.339c.129-.825-.208-.269-.172-.041a25.418 25.418 0 0 0-5.532-.25 1.368 1.368 0 0 0-.157.015 2.263 2.263 0 0 1-.6-.511c-.046-.079-.037-.1-.009-.113a4.772 4.772 0 0 1-.818.3.501.501 0 0 0 0-.164c-.018-.06-.078.057-.106.192-1.36.346-3.3.417-3.121.021-.363.791-.622.489-.558 1.572-.276-2.3.034.913-.247-.529.016.088.076.363.139.675-1.379.533-2.066 1.06-.465 1.286.159.021.439.038.806.05-.028.1-.037.185.018.235.011-.078.018-.155.022-.233 1.511.047 4.5.018 7.319-.057a.304.304 0 0 0-.181.314c-.029 1.069.369-.11.429-.32l.976-.028c.069.1.144.144.22.109.076-.035.137-.084.207-.123l.827-.029a.483.483 0 0 0-.115.317c-.046.476.229-.185.229-.322l.5-.019c-.26.239-.323.363-.3.42a36.123 36.123 0 0 0-4.096 3.663.145.145 0 0 0-.069-.081c-.132-.063-.214.142-.141.294a54.998 54.998 0 0 0-4.332 4.945.6.6 0 0 0-.056.694.703.703 0 0 0-.119.369 5.474 5.474 0 0 0 2.1.837c.938.4.743.232.443.029.241.068.495.131.758.189.075 1.053 1.59.712 2.42.42.4.051.807.1 1.217.134a.336.336 0 0 0-.1.279c.032.4.313-.025.382-.254.73.062 1.465.1 2.182.113-.106.07-.2.138-.253.117.092.038.257-.04.4-.116.681.01 1.342 0 1.957-.041 2.188-.138 3.811-.6 3.807-1.486m-5.4-8.9-.075.106a.274.274 0 0 1 .075-.106m1.288-1.7a.239.239 0 0 1-.019.144Zm-1.892 2.728.085-.148c.2.151.053.2-.085.148m.5.669c-.561-1.135.806.417 0 0m.332-.37c-.711-.721-.07-.226-.032-.173.073.1.085.161.032.173m.433-.348c.05.37-1.509-.753 0 0m-10.341-4.851c-.014.153-.04.305-.079.455-.081-.155-.038-1.081.079-.455m-.238.041c.006.254.006.393 0 .46a1.276 1.276 0 0 1-.048-.313c.007-.125.023-.175.046-.147m-1.008-.21h-.082c.019-.084.138-.637.082 0m.746.153c.113-.248.2.21.22.533-.037.01-.072.022-.109.031a8.798 8.798 0 0 1-.112-.564m9.379 2.259.333-.015c-.06.04-.123.085-.186.128a.285.285 0 0 0-.147-.113m-4.905 11.55.336.057c-.277.032-.374-.015-.336-.057" clip-path="url(#Tankerillu_svg__p)" data-name="Path 1342"/><path fill="#323f51" d="M3543.299 2545.598c.437.288.986.35 1.477.169 0 0-1.875-.78-1.477-.169" clip-path="url(#Tankerillu_svg__p)" data-name="Path 1343"/></svg>