<svg viewBox="-2338.781 -513.489 1704.402 1482.877" xmlns="http://www.w3.org/2000/svg"><defs><clipPath id="TankerRumination_svg__b"><path d="M0 0h1166v1094H0z"/></clipPath><clipPath id="TankerRumination_svg__c"><path d="M0 0h545v513H0z"/></clipPath><clipPath id="TankerRumination_svg__a"><path d="M0 0h1166v1094H0z"/></clipPath></defs><path d="M2095.54 561.118h195.51s149.433-5.481 150.255 32.538c.82 38.017-30.69 35.486-55.204 50.276-24.515 14.792-6.874 33.337-28.189 59.933-21.315 26.594-41.289 30.544-80.117 8.66-38.831-21.883-63.522 81.818-125.678 70.209-62.155-11.609-69.902-47.351-72.552-95.156-2.648-47.805-48.861-38.866-43.395-79.281 5.464-40.413 59.37-47.179 59.37-47.179Z" data-name="Path 1226" style="fill:#353f4f" transform="rotate(180 682.633 434.542)"/><path d="M892.539 403.173h136.415s104.265 3.502 104.838-20.789c.574-24.292-21.414-22.674-38.517-32.124-17.105-9.45-4.796-21.3-19.669-38.293-14.872-16.994-28.809-19.516-55.901-5.534-27.093 13.982-44.321-52.276-87.689-44.859-43.368 7.418-48.774 30.254-50.622 60.798-1.848 30.545-34.092 24.834-30.279 50.657 3.813 25.821 41.424 30.144 41.424 30.144Z" data-name="Path 1226" style="fill:#475e82" transform="translate(-3111.775 -475.404)"/><path d="M1960.729 79.391c227.699 104.111 229.432 139.787 239.993 421.387 10.561 281.6-263.672 475.77-565.154 536.738-194.381 39.31-489.404 56.8-603.194-65.307-62.699-67.282-41.07-233.949-41.07-350.334 0-268.862 180.073-461.399 421.796-571.126 52.816-23.975 504.33 8.844 547.629 28.642Z" data-name="Path 678" style="fill:#617084" transform="translate(-3083.606 -550.951)"/><g data-name="Group 1216"><g data-name="Group 1209"><path fill="none" stroke="#323f51" stroke-linecap="round" stroke-linejoin="round" d="M-982.584 262.108c.825 67.193 1.644 112.427 2.469 179.625a342.6 342.6 0 0 0 67.853 1.291" data-name="Path 1765" style="stroke-width:6px" transform="translate(-444.137 477.463)"/><path stroke="#323f51" stroke-miterlimit="10" d="M-703.112 152.034c52.563 29.635 84.427 86.43 107.008 143.07a794.338 794.338 0 0 1 54.754 339.5c-1.316 22.231-3.739 45.023-13.792 64.81-12.76 25.118-36.509 42.677-61.4 55.272-47.245 23.9-100.512 32.948-153.207 35.829-44.8 2.449-90.807.458-132.609-16.1s-79.11-49.628-92.159-93.272c-7.726-25.833-6.649-53.42-5.5-80.395q1.693-39.83 3.39-79.659c3.025-71.1 6.279-143.451 29.77-210.49s70.717-129.194 136.894-152.342c21.068-7.373 46.745-24.773 68.729-21.089 47.747 8 25.075 2.886 58.123 14.864" data-name="Path 1767" style="stroke-width:6px;fill:#7ec8d6" transform="translate(-724.128 -42.492)"/><path fill="none" stroke="#323f51" stroke-linecap="round" stroke-linejoin="round" d="M-837.913 192.036c37.6 11.01 66.69 56.671 66.727 104.73.008 11.381-1.5 22.947-5.641 33.1-7.695 18.846-23.243 30.376-38.112 40.609-52.954 36.421-143.627-188.5-199.462-159.5" data-name="Path 1771" style="stroke-width:6px" transform="translate(-445.453 174.825)"/><path fill="none" stroke="#353f4f" stroke-linecap="round" stroke-miterlimit="10" stroke-width="5" d="M-1459.589 231.48c11.788 2.506 20.613 8.883 29.395 17.064" data-name="Path 1769"/><path fill="#323f51" d="M-1515.492 345.815a48.383 48.383 0 0 0-13.92 9.248c-2.063 1.907-3.002 4.043-.995 6.336 1.924 2.195 3.922 1.158 5.77-.514 14.427-13.06 30.189-13.772 46.885-5.7.831.404 1.685.761 2.502 1.186 2.06 1.064 4.045 1.13 5.28-1.139 1.283-2.356.554-4.38-1.784-5.61-13.994-7.333-28.428-10.129-43.738-3.807Z" data-name="Path 1772"/><path fill="#323f51" d="M-1468.97 264.58c-9.7-.113-16.1 6.181-15.93 15.662.173 9.553 5.91 15.83 14.762 16.164 9.518.362 17.52-7.03 17.427-16.1-.098-9.39-6.528-15.608-16.259-15.726Z" data-name="Path 1773"/><path fill="#fff" d="M-1475.866 269.481c-4.15-.05-6.892 2.648-6.821 6.706.076 4.09 2.533 6.778 6.318 6.918a7.043 7.043 0 0 0 7.461-6.89c-.038-4.022-2.79-6.684-6.958-6.734Z" data-name="Path 1774" opacity=".9"/><path fill="none" stroke="#323f51" stroke-linecap="round" stroke-linejoin="round" d="M-874.248 262.451c3.086 64.453 3.177 107.743.268 172.2a159.254 159.254 0 0 0-68.217.983" data-name="Path 1766" style="stroke-width:6px" transform="translate(-691.849 485.954)"/><path fill="none" stroke="#353f4f" stroke-linecap="round" stroke-miterlimit="10" stroke-width="5" d="M-1546.028 201.351c-11.788 2.507-20.623 8.884-29.394 17.065" data-name="Path 1768"/><path fill="none" stroke="#323f51" stroke-linecap="round" stroke-linejoin="round" d="M-841.237 191.7c-37.162 23.662-61.569 51.624-81.164 91.513-10.033 20.42-17.172 44.864-8.01 65.7 6.365 14.473 19.641 24.655 33.621 31.667 51.748 25.977 114.5 15.666 168.764 35.629" data-name="Path 1770" style="stroke-width:6px" transform="translate(-875.886 184.921)"/><path fill="#323f51" d="M-1543.736 264.062c-8.825-.023-15.777 7.456-15.7 16.88.076 9.8 6.395 16.167 15.969 16.108 9.9-.059 15.456-5.96 15.389-16.348-.063-9.682-6.587-16.62-15.658-16.64Z" data-name="Path 1775"/><path fill="#fff" d="M-1549.871 267.832c-4.178-.05-6.935 2.663-6.86 6.743.077 4.112 2.544 6.816 6.355 6.957a7.087 7.087 0 0 0 7.5-6.929c-.039-4.044-2.804-6.72-6.995-6.77Z" data-name="Path 1776"/></g></g><path d="M1802.055 1476.89c0 6.335-101.338 11.47-226.343 11.47s-226.346-5.135-226.346-11.47c0-6.335 101.337-11.467 226.347-11.467s226.343 5.136 226.343 11.467" data-name="Path 1693" style="fill:rgba(145,151,161,.18)" transform="translate(-3083.606 -550.951)"/><path d="M844.984 413.503h138.495s105.855-3.707 106.437 22.009c.581 25.715-21.74 24.003-39.105 34.007-17.366 10.005-4.869 22.549-19.968 40.539-15.099 17.989-29.249 20.66-56.754 5.858-27.506-14.802-44.997 55.342-89.027 47.49-44.029-7.853-49.517-32.029-51.394-64.364-1.876-32.336-34.612-26.29-30.74-53.627 3.871-27.336 42.056-31.912 42.056-31.912Z" data-name="Path 1226" style="fill:#353f4f" transform="rotate(180 -609.619 250.968)"/><text x="1261.02" y="472.867" style="fill:#fff;font-family:Arial,sans-serif;font-size:80px;font-weight:700;white-space:pre" transform="translate(-3111.775 -475.404)">Jeg er også bare uduelig</text><text x="1345.76" y="118.677" style="fill:#fff;font-family:Arial,sans-serif;font-size:80px;font-weight:700;white-space:pre" transform="translate(-3111.775 -475.404)">Mon hun blev sur? </text><text x="1215.13" y="204.03" style="fill:#fff;font-family:Arial,sans-serif;font-size:50px;white-space:pre" transform="translate(-3111.775 -475.404)">Skal jeg skrive til hende? </text><text style="fill:#fff;font-family:Arial,sans-serif;font-size:40px;white-space:pre" transform="translate(-3612.238 -683.29)"><tspan x="1599.97" y="560.795">Hun vil sikkert ikke have</tspan><tspan x="1599.97" dy="1em">​</tspan><tspan>mere med mig at gøre efter</tspan><tspan x="1599.97" dy="1em">​</tspan><tspan>det her...</tspan></text><path d="M963.547 148.021h138.495s105.855-3.707 106.437 22.009c.581 25.715-21.74 24.003-39.105 34.007-17.366 10.005-4.869 22.549-19.968 40.539-15.099 17.989-29.249 20.66-56.754 5.858-27.506-14.802-44.997 55.342-89.027 47.49-44.029-7.853-49.517-32.029-51.394-64.364-1.876-32.336-34.612-26.29-30.74-53.627 3.871-27.336 42.056-31.912 42.056-31.912Z" data-name="Path 1226" style="fill:#353f4f" transform="rotate(180 -491.056 -14.514)"/><text x="1676.844" y="542.822" style="fill:#fff;font-family:Arial,sans-serif;font-size:40px;white-space:pre" transform="translate(-3111.775 -475.404)">Hvad mon de andre tænkte?</text><text x="1059.774" y="664.796" style="fill:#fff;font-family:Arial,sans-serif;font-size:60px;white-space:pre" transform="translate(-3127.091 -591.346)">Jeg  ødelægger<tspan x="1059.774" dy="1em">​</tspan>altid alt det <tspan x="1059.774" dy="1em">​</tspan>gode der<tspan x="1059.774" dy="1em">​</tspan>sker for mig</text><text style="fill:#fff;font-family:Arial,sans-serif;font-size:40px;font-style:italic;white-space:pre" transform="translate(-3075.442 -634.346)"><tspan x="1778.09" y="770.115">Måske går det over,<tspan x="1778.09" dy="1em">​</tspan>hvis jeg </tspan><tspan>bare ikke<tspan x="1778.09" dy="1em">​</tspan> skriver til hende </tspan><tspan x="1778.09" dy="1em">​</tspan><tspan>i noget tid?</tspan></text><text x="1405.743" y="285.809" style="fill:#fff;font-family:Arial,sans-serif;font-size:60px;white-space:pre" transform="translate(-3111.775 -475.404)">Hun er sikkert vred på mig...</text><path d="M2113.699 220.686h193.212s147.677 5.129 148.488-30.451c.813-35.581-30.33-33.211-54.554-47.053-24.227-13.842-6.793-31.199-27.858-56.089-21.064-24.892-40.804-28.586-79.176-8.106-38.373 20.48-62.774-76.571-124.199-65.707-61.424 10.866-69.081 44.314-71.699 89.053-2.617 44.741-48.286 36.376-42.886 74.2 5.401 37.821 58.672 44.153 58.672 44.153Z" data-name="Path 1226" style="fill:#475e82" transform="translate(-3111.775 -475.404)"/><text x="1069.035" y="843.465" style="fill:#fff;font-family:Arial,sans-serif;font-size:40px;white-space:pre" transform="translate(-3097.071 -494.355)">Jeg er Dum.<tspan x="1069.035" dy="1em">​</tspan>Dum dum dum <tspan x="1069.035" dy="1em">​</tspan>       DUM!</text><text x="1646.651" y="354.658" style="fill:#fff;font-family:Arial,sans-serif;font-size:40px;white-space:pre" transform="translate(-3111.775 -475.404)">... Måske er det også fair nok ?</text></svg>