<?xml version="1.0" encoding="utf-8"?>
<svg viewBox="1713.937 512.104 1032.234 810.573" xmlns="http://www.w3.org/2000/svg">
  <defs>
    <clipPath id="clip-Balance">
      <rect width="1166" height="1094"/>
    </clipPath>
    <clipPath id="clip-1">
      <rect width="1166" height="1094"/>
    </clipPath>
    <clipPath id="clip-Illustration_-_Min_fysiske_energi_-_Min_fysiske_aktivitet">
      <rect width="545" height="513"/>
    </clipPath>
    <clipPath id="clip-path">
      <rect id="Rectangle_374" data-name="Rectangle 374" width="35.569" height="27.465" fill="#323f51"/>
    </clipPath>
    <clipPath id="clip-14">
      <rect width="1166" height="1094"/>
    </clipPath>
    <clipPath id="clip-2">
      <rect id="Rectangle_449" data-name="Rectangle 449" width="242.065" height="244.073" fill="none"/>
    </clipPath>
    <clipPath id="clip-3">
      <rect id="Rectangle_448" data-name="Rectangle 448" width="219.217" height="247.122" fill="none"/>
    </clipPath>
    <clipPath id="clip-4">
      <rect id="Rectangle_451" data-name="Rectangle 451" width="228.937" height="242.798" fill="none"/>
    </clipPath>
    <clipPath id="clip-5">
      <rect id="Rectangle_482" data-name="Rectangle 482" width="229.531" height="241.419" fill="none"/>
    </clipPath>
    <clipPath id="clip-6">
      <rect id="Rectangle_450" data-name="Rectangle 450" width="217.813" height="219.517" fill="none"/>
    </clipPath>
    <filter id="Path_1963" x="190" y="556.779" width="641.27" height="152.85" filterUnits="userSpaceOnUse">
      <feOffset dy="3" input="SourceAlpha"/>
      <feGaussianBlur stdDeviation="3" result="blur"/>
      <feFlood flood-opacity="0.161"/>
      <feComposite operator="in" in2="blur"/>
      <feComposite in="SourceGraphic"/>
    </filter>
    <filter id="Path_1967" x="653.348" y="624.203" width="137.455" height="541.215" filterUnits="userSpaceOnUse">
      <feOffset dy="3" input="SourceAlpha"/>
      <feGaussianBlur stdDeviation="3" result="blur-2"/>
      <feFlood flood-opacity="0.161"/>
      <feComposite operator="in" in2="blur-2"/>
      <feComposite in="SourceGraphic"/>
    </filter>
    <filter id="Path_1969" x="713.213" y="100.988" width="77.867" height="541.215" filterUnits="userSpaceOnUse">
      <feOffset dy="3" input="SourceAlpha"/>
      <feGaussianBlur stdDeviation="3" result="blur-3"/>
      <feFlood flood-opacity="0.161"/>
      <feComposite operator="in" in2="blur-3"/>
      <feComposite in="SourceGraphic"/>
    </filter>
    <filter id="Path_1975" x="712.744" y="624.205" width="541.215" height="77.867" filterUnits="userSpaceOnUse">
      <feOffset dy="3" input="SourceAlpha"/>
      <feGaussianBlur stdDeviation="3" result="blur-4"/>
      <feFlood flood-opacity="0.161"/>
      <feComposite operator="in" in2="blur-4"/>
      <feComposite in="SourceGraphic"/>
    </filter>
    <clipPath id="clip-Livskompasset">
      <rect width="1557" height="1263"/>
    </clipPath>
    <clipPath id="clip-9">
      <rect width="1166" height="1094"/>
    </clipPath>
    <clipPath id="clip-10">
      <rect width="545" height="513"/>
    </clipPath>
  </defs>
  <g id="Balance" clip-path="url(#clip-Balance)" transform="matrix(1, 0, 0, 1, 1509.001699, -279.214786)"/>
  <g id="Group_1192" data-name="Group 1192" transform="matrix(-1, 0, 0, 1, 4804.502187, -1218.388492)"/>
  <polyline style="fill: rgb(216, 216, 216); stroke: rgb(0, 0, 0);" points="510.455 -75.258" transform="matrix(1, 0, 0, 1, 2003.264394, -200.683444)"/>
  <g id="g-6" data-name="Group 1411" transform="matrix(1, 0, 0, 1, -1068.710902, -4021.825595)">
    <rect id="rect-4" data-name="Rectangle 451" width="228.937" height="242.798" transform="matrix(-0.777, -0.629, 0.629, -0.777, 1442.229, 4079.014)" fill="none"/>
    <g id="g-11" data-name="Group 1404" transform="matrix(0.996, 0.087, -0.087, 0.996, 321.395, -105.091)"/>
  </g>
  <path style="fill: rgb(216, 216, 216); stroke: rgb(0, 0, 0);" d="M -167.225 -0.173" transform="matrix(1, 0, 0, 1, 124.516348, -182.441318)"/>
  <g id="Group_1216" data-name="Group 1216" transform="matrix(1, 0, 0, 1, -2847.257822, -9825.871737)">
    <g id="Group_1209" data-name="Group 1209" transform="translate(53.113 -929)">
      <path id="Path_1764" data-name="Path 1764" d="M-976.144,187.328" transform="translate(3011.323 9745.573)" fill="none" stroke="#323f51" stroke-width="1"/>
      <g transform="matrix(1, 0, 0, 1, 1866.843872, 1508.263916)">
        <path id="Path_1765" data-name="Path 1765" d="M 2080.948 10372.722 C 2081.682 10435.552 2082.411 10477.849 2083.145 10540.684 C 2103.191 10543.185 2123.424 10543.589 2143.546 10541.891" fill="none" stroke-linecap="round" stroke-linejoin="round" style="stroke: rgb(8, 13, 13); stroke-width: 5px;"/>
        <path id="Path_1767" data-name="Path 1767" d="M 2080.486 9783.604 C 2127.276 9811.314 2155.64 9864.422 2175.741 9917.384 C 2213.861 10018.194 2230.497 10126.551 2224.481 10234.839 C 2223.31 10255.626 2221.153 10276.938 2212.204 10295.44 C 2200.845 10318.927 2179.705 10335.346 2157.548 10347.123 C 2115.491 10369.471 2068.075 10377.932 2021.167 10380.626 C 1981.288 10382.916 1940.334 10381.054 1903.123 10365.571 C 1865.912 10350.088 1832.701 10319.166 1821.085 10278.356 C 1814.208 10254.2 1815.167 10228.404 1816.189 10203.181 C 1817.194 10178.352 1818.2 10153.523 1819.207 10128.695 C 1821.9 10062.211 1824.797 9994.558 1845.708 9931.873 C 1866.619 9869.187 1908.658 9811.068 1967.567 9789.423 C 1986.321 9782.528 2009.178 9766.258 2028.747 9769.703 C 2071.25 9777.184 2051.068 9772.402 2080.486 9783.602" stroke-miterlimit="10" style="stroke: rgb(8, 13, 13); stroke-width: 5px; fill: rgb(89, 182, 200);"/>
        <path id="Path_1771" data-name="Path 1771" d="M 2208.558 10024.213 C 2242.028 10034.508 2267.923 10077.204 2267.956 10122.143 C 2267.963 10132.785 2266.621 10143.599 2262.935 10153.093 C 2256.085 10170.715 2242.245 10181.497 2229.009 10191.065 C 2181.871 10225.121 2101.156 10014.805 2051.454 10041.922" fill="none" stroke-linecap="round" stroke-linejoin="round" style="stroke: rgb(8, 13, 13); stroke-width: 5px;"/>
        <path id="Path_1769" data-name="Path 1769" d="M 2040.754 9906.37 C 2052.542 9908.877 2061.367 9915.254 2070.149 9923.435" fill="none" stroke="#353f4f" stroke-linecap="round" stroke-miterlimit="10" style="stroke-width: 5px;"/>
        <path id="Path_1772" data-name="Path 1772" d="M 2002.128 10007.71 C 1997.11 10009.836 1992.517 10012.781 1988.555 10016.412 C 1986.548 10018.203 1985.638 10020.204 1987.61 10022.34 C 1989.499 10024.385 1991.449 10023.409 1993.248 10021.838 C 2007.3 10009.57 2022.706 10008.844 2039.059 10016.328 C 2039.875 10016.702 2040.71 10017.033 2041.511 10017.426 C 2043.529 10018.414 2045.47 10018.469 2046.668 10016.342 C 2047.912 10014.134 2047.192 10012.244 2044.901 10011.102 C 2031.192 10004.298 2017.07 10001.74 2002.128 10007.71 Z" fill="#323f51" style="" transform="matrix(-0.999988, 0.004962, -0.004962, -0.999988, 4083.453081, 20017.729229)"/>
        <path id="Path_1766" data-name="Path 1766" d="M 1956.879 10380.983 C 1959.626 10441.251 1959.707 10481.73 1957.118 10542.001 C 1937.051 10537.696 1916.334 10538.009 1896.393 10542.92" fill="none" stroke-linecap="round" stroke-linejoin="round" style="stroke: rgb(8, 13, 13); stroke-width: 5px;"/>
        <path id="Path_1768" data-name="Path 1768" d="M 1980.686 9907.295 C 1968.898 9909.802 1960.063 9916.179 1951.292 9924.36" fill="none" stroke="#353f4f" stroke-linecap="round" stroke-miterlimit="10" style="stroke-width: 5px;"/>
        <path id="Path_1770" data-name="Path 1770" d="M 1829.255 9986.522 C 1802.667 10016.685 1593.844 10091.192 1615.442 9971.454" fill="none" stroke-linecap="round" stroke-linejoin="round" style="stroke: rgb(8, 13, 13); stroke-width: 5px;"/>
        <g>
          <g transform="matrix(1, 0, 0, 1, 25.437422, 97.591919)">
            <g id="Group_831" data-name="Group 831" transform="matrix(-1.383358, -0.168358, -0.161354, 1.325814, -12188.099609, 3403.231689)" style="">
              <g id="Group_840" data-name="Group 840" transform="matrix(1.570383, 0, 0, 1.762897, -10409.424805, 754.889038)" style="">
                <g id="Group_906" data-name="Group 906" transform="matrix(1.272933, 0, 0, 1.212726, -1597.980103, 1121.041382)" style="">
                  <g id="Group_316" data-name="Group 316" transform="translate(1249.642 346.891)">
                    <g id="Group_895" data-name="Group 895" transform="translate(0)">
                      <g id="Group_894" data-name="Group 894">
                        <path id="Path_580" data-name="Path 580" d="M762.419-260.176c-15.234,5.184-26.481,19.024-35.3,33.347a230.208,230.208,0,0,0-31.874,90.422c-.809,6.2-1.362,12.617.233,18.639,2.021,7.641,7.3,13.828,13.133,18.707,11.07,9.264,24.478,14.776,38.058,18.559a77.71,77.71,0,0,0,35.251,1.521c11.75-2.191,21.326-6.594,26.991-17.878,3.353-6.678-9.849-35.556-5.045-46.17,11.1-24.81,21.695-38.705,19.052-58.508s-11.726-39.6-27.769-49.728c-5.107-3.227-10.893-9.475-16.813-9.708-12.854-.507-6.681-.628-15.914.8" stroke-miterlimit="10" style="stroke: rgb(8, 13, 13); stroke-width: 1.7727px; fill: rgb(89, 182, 200);" transform="translate(-694.453 261.322)"/>
                        <path id="Path_584" data-name="Path 584" d="M 42.011 -23.128 C 46.543 -26.159 63.883 -7.877 65.271 -5.589 C 71.381 4.482 72.127 22.694 71.888 35.405" transform="translate(66.639 161.296) rotate(-148)" fill="none" stroke-linecap="round" stroke-linejoin="round" style="stroke: rgb(8, 13, 13); stroke-width: 1.77281px;"/>
                        <path id="Path_1339" data-name="Path 1339" d="M 137.536 100.734 C 135.589 105.147 119.888 141.382 105.741 148.535" fill="none" stroke-linecap="round" stroke-linejoin="round" style="stroke: rgb(8, 13, 13); stroke-width: 1.77221px;" transform="matrix(0.811085, -0.54692, 0.625577, 0.811085, -54.811936, 90.252757)"/>
                      </g>
                    </g>
                  </g>
                  <g id="Group_319" data-name="Group 319" transform="translate(1328.009 393.812)">
                    <g id="Group_317" data-name="Group 317" transform="translate(26.88 0)">
                      <path id="Path_586" data-name="Path 586" d="M 0.596 6.854 C 2.714 7.321 4.896 7.422 7.048 7.154" fill="none" stroke-linecap="round" stroke-linejoin="round" style="stroke-width: 1.45036px; stroke: rgb(0, 0, 0);" transform="matrix(0.982193, 0.175668, -0.200932, 0.982193, 1.490069, -0.54538)"/>
                    </g>
                    <g id="Group_318" data-name="Group 318" transform="matrix(0.980253, -0.184899, 0.21149, 0.980253, -1.418884, 0.909518)">
                      <path id="Path_588" data-name="Path 588" d="M 47.741 55.73 C 45.623 56.197 41.694 55.251 39.609 56.217" transform="translate(-39.514 -48.876)" fill="none" stroke-linecap="round" stroke-linejoin="round" style="stroke-width: 1.45036px; stroke: rgb(0, 0, 0);"/>
                    </g>
                    <path id="Path_589" data-name="Path 589" d="M 65.781 66.667 C 65.781 66.667 64.467 65.246 62.55 64.958 C 57.837 64.25 48.563 63.095 40.793 63.591" transform="translate(-38.812 -37.164)" fill="none" stroke-linecap="round" stroke-linejoin="round" style="stroke-width: 1.45036px; stroke: rgb(0, 0, 0);"/>
                  </g>
                  <g id="Group_1541" data-name="Group 1541" transform="matrix(0.59525, 0, 0, 0.553993, 968.16803, -272.478546)">
                    <g id="Group_1539" data-name="Group 1539" transform="matrix(0.99863, -0.052336, 0.052336, 0.99863, 772.2771, 1226.254272)">
                      <path id="path-4" data-name="Exclusion 2" d="M -157.42 -5.226 L -157.457 -5.226 C -158.673 -5.154 -159.862 -5.614 -160.74 -6.493 C -161.555 -7.474 -161.964 -8.75 -161.877 -10.045 C -161.897 -11.345 -161.439 -12.605 -160.597 -13.564 C -159.753 -14.467 -158.588 -14.967 -157.379 -14.948 L -157.369 -14.948 C -156.051 -14.947 -154.804 -14.332 -153.967 -13.27 C -154.347 -13.605 -154.832 -13.78 -155.328 -13.761 L -155.362 -13.761 C -156.828 -13.845 -157.83 -12.244 -157.168 -10.879 C -157.077 -10.693 -156.96 -10.522 -156.818 -10.375 C -156.416 -9.957 -155.872 -9.723 -155.303 -9.723 L -155.217 -9.723 C -154.158 -9.734 -153.325 -10.669 -153.393 -11.773 C -153.385 -12.065 -153.433 -12.354 -153.534 -12.625 C -153.088 -11.819 -152.858 -10.903 -152.869 -9.974 C -152.83 -8.694 -153.283 -7.451 -154.127 -6.521 C -155.013 -5.644 -156.2 -5.176 -157.42 -5.226 Z M -153.542 -12.638 C -153.667 -12.86 -153.808 -13.071 -153.967 -13.27 C -153.781 -13.095 -153.635 -12.88 -153.54 -12.639 Z" style="stroke-width: 2.52707px; fill: rgb(50, 63, 81);" transform="matrix(0.44092, 0.901486, -0.893198, 0.441791, -96.993315, 136.244938)"/>
                      <path id="path-22" data-name="Exclusion 2" d="M -119.721 -1.678 L -119.758 -1.678 C -120.974 -1.606 -122.163 -2.066 -123.041 -2.945 C -123.856 -3.926 -124.265 -5.202 -124.178 -6.497 C -124.198 -7.797 -123.74 -9.057 -122.898 -10.016 C -122.054 -10.919 -120.889 -11.419 -119.68 -11.4 L -119.67 -11.4 C -118.352 -11.399 -117.105 -10.784 -116.268 -9.722 C -116.648 -10.057 -117.133 -10.232 -117.629 -10.213 L -117.663 -10.213 C -119.129 -10.297 -120.131 -8.696 -119.469 -7.331 C -119.378 -7.145 -119.261 -6.974 -119.119 -6.827 C -118.717 -6.409 -118.173 -6.175 -117.604 -6.175 L -117.518 -6.175 C -116.459 -6.186 -115.626 -7.121 -115.694 -8.225 C -115.686 -8.517 -115.734 -8.806 -115.835 -9.077 C -115.389 -8.271 -115.159 -7.355 -115.17 -6.426 C -115.131 -5.146 -115.584 -3.903 -116.428 -2.973 C -117.314 -2.096 -118.501 -1.628 -119.721 -1.678 Z M -115.843 -9.09 C -115.968 -9.312 -116.109 -9.523 -116.268 -9.722 C -116.082 -9.547 -115.936 -9.332 -115.841 -9.091 Z" style="stroke-width: 2.52707px; fill: rgb(50, 63, 81);" transform="matrix(0.44092, 0.901486, -0.893198, 0.441791, -72.747487, 104.240341)"/>
                    </g>
                  </g>
                </g>
              </g>
              <g id="Group_656" data-name="Group 656" transform="matrix(0.463966, -0.024315, 0.0259, 0.494203, -9905.03125, 3667.9104)" style=""/>
            </g>
            <path id="path-1" data-name="Path 1765" d="M 1469.303 10444.018 C 1469.796 10376.825 1471.455 10340.366 1471.948 10273.168 C 1484.491 10262.52 1496.702 10263.902 1510.204 10251.28" fill="none" stroke-linecap="round" stroke-linejoin="round" style="stroke: rgb(8, 13, 13); stroke-width: 5px;" transform="matrix(-1, 0, 0, -1, 2979.506958, 20695.297852)"/>
            <path id="path-2" data-name="Path 1765" d="M 1338.447 10440.683 C 1338.904 10373.49 1340.44 10337.031 1340.897 10269.833 C 1352.513 10259.185 1363.821 10260.567 1376.325 10247.945" fill="none" stroke-linecap="round" stroke-linejoin="round" style="stroke: rgb(8, 13, 13); stroke-width: 5px;" transform="matrix(-1, 0, 0, -1, 2714.771973, 20688.62793)"/>
          </g>
        </g>
        <g id="g-2" data-name="Group 840" transform="matrix(1.516259, 0, 0, 1.381392, 2251.665283, 7544.796875)" style="">
          <path id="Path_1178" data-name="Path 1178" d="M 884.515 2096.08 C 891.234 2095.875 897.142 2089.509 897.712 2081.86 C 898.282 2074.211 893.299 2068.177 886.58 2068.382 C 879.862 2068.587 873.954 2074.953 873.383 2082.602 C 872.813 2090.251 877.798 2096.285 884.515 2096.08 Z" fill="#557591" style="" transform="matrix(-0.318144, -1.040601, 0.863717, -0.318144, -631.178753, 3666.181812)"/>
          <path id="Path_1177" data-name="Path 1177" d="M 837.088 2076.061 C 847.246 2075.753 856.181 2066.186 857.043 2054.692 C 857.904 2043.198 850.369 2034.131 840.21 2034.439 C 830.051 2034.747 821.117 2044.314 820.255 2055.808 C 819.393 2067.302 826.929 2076.369 837.088 2076.061 Z" fill="#557591" transform="matrix(-0.318144, -1.040601, 0.863717, -0.318144, -669.694051, 3581.81359)"/>
          <path id="Path_1179" data-name="Path 1179" d="M 781.267 2040.404 C 795.172 2039.951 807.402 2025.893 808.58 2009.004 C 809.76 1992.115 799.447 1978.792 785.54 1979.243 C 771.635 1979.696 759.409 1993.753 758.227 2010.644 C 757.047 2027.533 767.364 2040.856 781.267 2040.404 Z" fill="#557591" style="" transform="matrix(-0.318144, -1.040601, 0.863717, -0.318144, -703.279603, 3464.447166)"/>
          <path id="Path_517" data-name="Path 517" d="M 548.041 1743.3 C 607.434 1732.338 664.545 1724.438 718.758 1732.074 C 771.279 1739.547 821.866 1757.846 868.122 1786.104 C 886.852 1797.474 906.189 1814.462 901.417 1845.027 C 898.436 1864.105 886.539 1883.546 874.611 1901.154 C 857.307 1926.694 838.224 1951.88 815.857 1969.89 C 776.182 2001.827 733.599 2005.845 694.421 2008.295 C 595.955 2014.453 497.551 2019.64 403.526 2011.877 C 369.55 2009.068 335.932 2004.506 306.611 1991.384 C 290.673 1984.249 274.957 1972.044 276.222 1948.606 C 278.038 1914.971 299.224 1881.559 324.266 1862.514 C 374.377 1824.414 381.108 1811.149 432.409 1789.413 C 454.205 1780.175 512.606 1754.304 567.035 1739.817" fill="#557591" style="" transform="matrix(-0.984679, -0.191402, 0.158867, -0.984679, 871.810694, 3828.901882)"/>
          <g id="Group_1097" data-name="Group 1097" transform="matrix(-0.475407, 0, 0, 0.522509, 1835.650513, 1932.747559)" clip-path="url(#clip-6)" style="">
            <path id="Path_1631" data-name="Path 1631" d="M32.721,199.054c33.708,22.873,76.857,23.725,105.577,16.289,63.176-16.363,92.008-78.38,74.441-137.669C200.192,35.321,134.048-32.313,51.659,17.661-28.084,66.039,17.774,180.8,17.774,180.8S-.479,206.183.01,208.039s32.711-8.986,32.711-8.986" transform="translate(0.001 -0.002)" fill="#a17eaa"/>
            <path id="Path_1632" data-name="Path 1632" d="M25.415,65.819s-.044-.3-.13-.871c-.067-.582-.189-1.4-.226-2.449a42.154,42.154,0,0,1,.437-8.745,32.286,32.286,0,0,1,1.434-5.814,29.487,29.487,0,0,1,2.935-6.24,24.637,24.637,0,0,1,5.043-5.725A23.83,23.83,0,0,1,49.674,30.6a15.548,15.548,0,0,1,3.931.367,17.07,17.07,0,0,1,3.668.982,25.313,25.313,0,0,1,6.181,3.205,32.361,32.361,0,0,1,4.617,3.865,42.041,42.041,0,0,1,5.462,6.855c.589.871.956,1.619,1.238,2.119.274.526.422.8.422.8a1.956,1.956,0,0,1-3.22,2.175l-.115-.133s-.167-.2-.478-.56c-.341-.378-.841-.926-1.478-1.627a47.264,47.264,0,0,0-5.736-5.243A27.876,27.876,0,0,0,55.1,38.551,10.948,10.948,0,0,0,52.465,38a11.106,11.106,0,0,0-2.694-.126,11.1,11.1,0,0,0-2.516.267,12.549,12.549,0,0,0-2.961.871A17.069,17.069,0,0,0,39.5,41.656a21.579,21.579,0,0,0-3.8,3.954,31.424,31.424,0,0,0-2.653,4.7,39.907,39.907,0,0,0-1.738,4.739,51,51,0,0,0-1.645,7.611c-.119.937-.211,1.675-.274,2.175s-.07.763-.07.763l-.011.111a1.96,1.96,0,0,1-3.891.107" transform="translate(67.656 82.759)"/>
            <path id="Path_1633" data-name="Path 1633" d="M37.2,31.379c.015.037.4.337,1.186.978.763.626,1.879,1.493,3.209,2.386a18.01,18.01,0,0,0,4.528,2.227,8.267,8.267,0,0,0,2.364.374,7,7,0,0,0,2.279-.33l.145-.026.07-.015c-.119.048.285-.111-.267.107l.011-.007.026-.011.052-.022.422-.178.837-.348c.537-.245.515-.374.837-.508a8,8,0,0,0,1.675-1.582A14.661,14.661,0,0,0,56.8,30.067a39.637,39.637,0,0,0,1.267-5.288,1.953,1.953,0,1,1,3.883-.426,18.969,18.969,0,0,1,.422,1.868,19.572,19.572,0,0,1,.2,4.928,16.415,16.415,0,0,1-2.231,7.159,13.922,13.922,0,0,1-3.09,3.524,18.826,18.826,0,0,1-2.227,1.386l-.826.382-.411.193-.385.156-.148.041-.3.089a13.23,13.23,0,0,1-4.865.563,12.539,12.539,0,0,1-4.458-1.1,17.354,17.354,0,0,1-5.969-4.317A20.738,20.738,0,0,1,34.8,35.265a17.864,17.864,0,0,1-.826-1.686,1.955,1.955,0,0,1,3.231-2.2" transform="translate(90.986 61.17)"/>
            <path id="Path_1634" data-name="Path 1634" d="M17.366,37.853c.015.037.4.337,1.182.978.767.622,1.882,1.49,3.213,2.386a18.01,18.01,0,0,0,4.528,2.227,8.262,8.262,0,0,0,2.36.374,6.974,6.974,0,0,0,2.279-.33l.145-.026.074-.015c-.119.048.282-.111-.27.107l.015-.007.026-.011.052-.022.422-.178.834-.348c.541-.245.519-.374.841-.508A7.9,7.9,0,0,0,34.741,40.9a14.715,14.715,0,0,0,2.231-4.358,41.016,41.016,0,0,0,1.267-5.284,1.953,1.953,0,1,1,3.883-.43c0,.044.219.711.422,1.871a19.6,19.6,0,0,1,.2,4.928,16.415,16.415,0,0,1-2.231,7.159,13.922,13.922,0,0,1-3.09,3.524A18.866,18.866,0,0,1,35.2,49.691l-.826.382-.411.193-.385.156-.152.041-.293.089a13.23,13.23,0,0,1-4.865.563,12.54,12.54,0,0,1-4.458-1.1,17.354,17.354,0,0,1-5.969-4.317,20.738,20.738,0,0,1-2.875-3.954,17.863,17.863,0,0,1-.826-1.686,1.955,1.955,0,0,1,3.231-2.2" transform="translate(37.325 78.696)"/>
            <path id="Path_1635" data-name="Path 1635" d="M44.479,26c-.986.385,3.413,18.3,9.1,14.929,6.644-3.935-5.554-16.3-9.1-14.929" transform="translate(119.957 70.04)" fill="#98c5ed"/>
          </g>
          <g id="Group_1100" data-name="Group 1100" transform="matrix(0.760245, 0.271049, -0.23602, 0.799675, 1632.887085, 1773.161865)" style="">
            <g id="Group_1099" data-name="Group 1099" transform="translate(0 0)" clip-path="url(#clip-4)">
              <path id="Path_1636" data-name="Path 1636" d="M64.087,215.115s-.817,26.148,3.286,27.642c3.093,1.128,18.085-21.17,18.085-21.17s49.283,15.387,99.717-18.234C229.9,173.54,260.34,68.918,173.594,19,110.208-17.474,51.675,1.976,17.659,48.4-7.611,82.875-16.064,157.086,64.087,215.115" transform="translate(0 0)" fill="#d65050"/>
              <path id="Path_1637" data-name="Path 1637" d="M20.513,55.823s.085-.334.25-.954a27.345,27.345,0,0,1,.87-2.6,42,42,0,0,1,4.506-8.614,35.24,35.24,0,0,1,10.084-9.894c1.107-.733,2.348-1.3,3.556-1.969,1.24-.592,2.585-1.007,3.9-1.506,1.353-.387,2.75-.66,4.136-.979,1.4-.213,2.823-.314,4.24-.419l.532-.04.064,0,.338,0,.121.008.234.012.942.052,1.881.109a34.315,34.315,0,0,1,4.357.717,29.129,29.129,0,0,1,7.772,3.27c1.128.745,2.211,1.534,3.222,2.336.926.89,1.893,1.711,2.7,2.605a33.42,33.42,0,0,1,4.011,5.392,39.531,39.531,0,0,1,3.886,8.976,26.051,26.051,0,0,1,.644,2.658c.117.66.181,1.011.181,1.011a2.121,2.121,0,0,1-4.035,1.216L78.821,57s-.109-.258-.314-.733c-.234-.5-.584-1.228-1.027-2.163a41.288,41.288,0,0,0-4.53-7.16,35.019,35.019,0,0,0-3.7-4.007c-.7-.648-1.5-1.2-2.251-1.824q-1.238-.773-2.517-1.579A23.722,23.722,0,0,0,58.79,37.46a22.652,22.652,0,0,0-3.012-.471L53.9,36.92l-.942-.04-.238-.008-.117,0-.028,0c-.262,0,.318,0,.246.008l-.044,0-.411.044c-1.083.137-2.187.141-3.258.29-1.055.242-2.122.415-3.153.685-1.007.354-2.005.709-2.992,1.055-.934.471-1.917.83-2.8,1.357a35.626,35.626,0,0,0-8.908,7.317,48.314,48.314,0,0,0-5.114,6.834c-.532.89-.946,1.591-1.228,2.066l-.4.729-.064.129a2.129,2.129,0,0,1-3.93-1.558" transform="translate(61.876 87.317)"/>
              <path id="Path_1638" data-name="Path 1638" d="M33.666,33.424a7.825,7.825,0,1,1-7.776-7.869,7.829,7.829,0,0,1,7.776,7.869" transform="translate(54.538 77.355)"/>
              <path id="Path_1639" data-name="Path 1639" d="M19.55,23.3a26.913,26.913,0,0,1,4.4,1.152,55.318,55.318,0,0,1,8.863,3.987,58.757,58.757,0,0,1,8.09,5.4A28.932,28.932,0,0,1,44.24,36.9a2.251,2.251,0,0,1-.185,3.181,2.286,2.286,0,0,1-1.86.54,28.836,28.836,0,0,1-4.377-1.188,58.529,58.529,0,0,1-8.884-3.955,55.4,55.4,0,0,1-8.11-5.36,27.53,27.53,0,0,1-3.318-3.1A2.267,2.267,0,0,1,19.55,23.3" transform="translate(51.321 70.457)"/>
              <path id="Path_1640" data-name="Path 1640" d="M51.3,33.534a7.825,7.825,0,1,1-7.772-7.869A7.826,7.826,0,0,1,51.3,33.534" transform="translate(107.914 77.688)"/>
              <path id="Path_1641" data-name="Path 1641" d="M60.96,27.183A27.075,27.075,0,0,1,57.6,30.239a54.7,54.7,0,0,1-8.171,5.255,58.147,58.147,0,0,1-8.936,3.842A29.289,29.289,0,0,1,36.1,40.468a2.251,2.251,0,0,1-2.565-1.889,2.28,2.28,0,0,1,.568-1.856,29.08,29.08,0,0,1,3.379-3.02,58.342,58.342,0,0,1,8.151-5.292,55.183,55.183,0,0,1,8.916-3.878,27.32,27.32,0,0,1,4.41-1.1,2.263,2.263,0,0,1,2,3.745" transform="translate(101.455 70.883)"/>
            </g>
          </g>
          <g id="Group_1140" data-name="Group 1140" transform="matrix(-0.482625, 0.245709, 0.213616, 0.506848, 1352.273682, 1878.974854)" style="">
            <g id="Group_1139" data-name="Group 1139" transform="translate(0 0.001)" clip-path="url(#clip-5)">
              <path id="Path_1667" data-name="Path 1667" d="M24.859,199.792S9.354,227.9,11.595,231.556s31.943-9.3,31.943-9.3,30.3,27.976,87.937,16.329c77.866-15.73,125.3-97.509,81.055-179.084-41.4-76.344-130.579-72.315-178.39-26.8S-5.986,152.451,24.859,199.792" transform="translate(-0.002 -0.002)" fill="#508984"/>
              <path id="Path_1668" data-name="Path 1668" d="M16.133,29.314A37.526,37.526,0,0,1,19.846,28.3,71.159,71.159,0,0,1,28.1,26.923c3.027-.3,6.063-.52,8.362-.52,2.291-.017,3.838.116,3.838.116A5.333,5.333,0,0,1,41.5,36.9s-1.476.482-3.713.994-5.243.994-8.254,1.4a70.41,70.41,0,0,1-8.358.541,36.914,36.914,0,0,1-3.842-.137,5.353,5.353,0,0,1-1.2-10.379" transform="translate(39.599 83.379)"/>
              <path id="Path_1669" data-name="Path 1669" d="M37.472,27.05s1.493-.432,3.751-.823a71.812,71.812,0,0,1,8.321-.965c3.04-.137,6.079-.212,8.375-.1,2.291.1,3.83.308,3.83.308A5.333,5.333,0,0,1,62.421,35.9s-1.493.412-3.755.8c-2.258.412-5.285.728-8.316.985a73.236,73.236,0,0,1-8.37.121,38.313,38.313,0,0,1-3.834-.333,5.354,5.354,0,0,1-.674-10.429" transform="translate(106.173 79.297)"/>
              <path id="Path_1670" data-name="Path 1670" d="M22.845,37.461s3.651-1.148,9.41-2.512c2.865-.64,6.229-1.351,9.847-2.021,1.788-.366,3.784-.549,5.742-.794,2.071-.212,3.759-.532,6.2-.649,3.875.021,7.572-.158,11.352.033,3.734.2,7.3.416,10.188.686,5.8.57,9.68,1.185,9.68,1.185a5.236,5.236,0,0,1-.79,10.408h-.062s-3.763.021-9.443-.042c-2.853-.1-6,.029-9.443-.05-3.406-.108-7.372.162-11.161.229-1.734.183-3.468.362-5.173.541-1.784.225-3.5.279-5.252.57-3.46.557-6.728.861-9.506,1.31-5.535.823-9.373,1.314-9.373,1.314a5.244,5.244,0,0,1-2.241-10.2Z" transform="translate(60.485 99.258)"/>
            </g>
          </g>
          <g id="Group_1096" data-name="Group 1096" transform="matrix(0.801476, -0.20318, 0.16958, 0.808055, 1299.038452, 1801.886597)" style="">
            <g id="Group_1095" data-name="Group 1095" transform="translate(0 0)" clip-path="url(#clip-2)">
              <path id="Path_1627" data-name="Path 1627" d="M178.5,243.819c4.171-2.386-5.334-29.979-5.334-29.979s73.948-29.32,68.618-107.257S145.863-27.322,65.254,13.984s-78.391,137.979-37.3,180.289c44.637,45.968,116.577,32.889,116.577,32.889s29.315,19.324,33.977,16.657" transform="translate(-0.001 0.003)" fill="#f297bc"/>
              <path id="Path_1628" data-name="Path 1628" d="M30.561,33.189S23.228,18.2,14.568,25.528,25.5,55.184,33.224,54.839c7.329-.332,24.317-26.312,14.989-32.978-9.954-7.11-17.652,11.327-17.652,11.327" transform="translate(39.686 64.737)" fill="#ab003d"/>
              <path id="Path_1629" data-name="Path 1629" d="M52.332,31.419S45,16.43,36.339,23.759,47.275,53.414,54.995,53.07c7.329-.332,23.99-24.649,14.658-31.31-9.95-7.11-17.32,9.66-17.32,9.66" transform="translate(109.351 64.008)" fill="#ab003d"/>
              <path id="Path_1630" data-name="Path 1630" d="M25.8,28.584c.008.059.433.722,1.34,2.1a36.387,36.387,0,0,0,4.154,5.082A26.312,26.312,0,0,0,38.3,40.949a21.222,21.222,0,0,0,9.328,2.142l.63.025.311.013.16.008h.08l.038,0c.067,0-.533.042-.269.021H48.6l1.478-.147c.479-.059,1.021-.088,1.441-.16l.97-.269A16.214,16.214,0,0,0,56.662,41a24.748,24.748,0,0,0,3.7-2.537,38.141,38.141,0,0,0,3-2.995,37.675,37.675,0,0,0,3.931-5.33c.8-1.365,1.264-2.142,1.264-2.142l.155-.26a2.211,2.211,0,0,1,4.066,1.592s-.059.286-.176.815a20.667,20.667,0,0,1-.58,2.121,34.079,34.079,0,0,1-3.272,7.123A30.09,30.09,0,0,1,65.507,43.7a25.7,25.7,0,0,1-4.758,4.04,22.381,22.381,0,0,1-6.363,2.873l-1.882.462c-.55.1-1,.13-1.5.2l-1.474.181-.391.029h-.323l-.433,0-.861-.008a26.056,26.056,0,0,1-6.846-.92,23.919,23.919,0,0,1-6.207-2.621,26.651,26.651,0,0,1-8.417-7.917,30.89,30.89,0,0,1-3.6-7.031,20.1,20.1,0,0,1-.651-2.129c-.118-.517-.181-.785-.181-.785l-.151-.664a2.2,2.2,0,0,1,4.292-.991c.013.055.025.118.034.172" transform="translate(68.52 85.255)"/>
            </g>
          </g>
          <g id="Group_1094" data-name="Group 1094" transform="matrix(-1.099955, 0, 0, 1.079722, 1693.015991, 1657.314941)" style="">
            <g id="Group_1093" data-name="Group 1093" transform="translate(0 0)" clip-path="url(#clip-3)">
              <path id="Path_1621" data-name="Path 1621" d="M164,246.442c-.164,3.21-147.358-.487-162.483-114.461C-14.909,8.217,106.445-19.521,163.658,11.9c50.89,27.961,78.405,102.773,31.328,165.109-21.589,28.586-59.624,37.48-56.819,43.8,3.88,8.738,26.035,21.645,25.83,25.629" transform="translate(0 0.001)" fill="#f3d643"/>
              <path id="Path_1622" data-name="Path 1622" d="M28.508,31a5.181,5.181,0,1,1-5.286-5.074A5.176,5.176,0,0,1,28.508,31" transform="translate(49.358 70.511)"/>
              <path id="Path_1623" data-name="Path 1623" d="M49.866,30.563a5.183,5.183,0,1,1-5.282-5.074,5.176,5.176,0,0,1,5.282,5.074" transform="translate(107.435 69.322)"/>
              <path id="Path_1624" data-name="Path 1624" d="M26.651,31.707s.1.279.272.677c.2.443.5,1.09.885,1.919a33.9,33.9,0,0,0,4,6.312,31.469,31.469,0,0,0,3.337,3.459,23.982,23.982,0,0,0,4.311,2.879,20.707,20.707,0,0,0,5.174,1.823,24.725,24.725,0,0,0,5.632.58c1.09-.056,2.321-.033,3.288-.153l2.615-.461c.885-.3,1.789-.528,2.667-.8q1.25-.575,2.462-1.131A24.019,24.019,0,0,0,65.5,43.807a27.055,27.055,0,0,0,3.221-3.56A32.468,32.468,0,0,0,72.494,33.8c.74-1.681,1.064-2.667,1.045-2.608a1.963,1.963,0,0,1,3.869.67l-.108.926a22.694,22.694,0,0,1-.439,2.429,32.024,32.024,0,0,1-3.184,8.228,26.985,26.985,0,0,1-3.545,4.929,26.43,26.43,0,0,1-5.312,4.467c-1.049.61-2.165,1.149-3.281,1.726-1.168.435-2.358.863-3.578,1.254-1.287.279-2.626.506-3.954.729-1.246.156-2.273.141-3.422.219a28.884,28.884,0,0,1-7.652-.859,23.953,23.953,0,0,1-6.9-2.8,25.007,25.007,0,0,1-5.442-4.281c-.755-.792-1.41-1.622-2.072-2.4q-.843-1.255-1.626-2.422a31.551,31.551,0,0,1-3.422-8.135,21.694,21.694,0,0,1-.517-2.422c-.082-.58-.123-.893-.123-.893a1.968,1.968,0,0,1,3.805-.923Z" transform="translate(62.032 80.42)"/>
              <path id="Path_1625" data-name="Path 1625" d="M41.534,43.368A15.349,15.349,0,1,0,26.5,59.024,15.35,15.35,0,0,0,41.534,43.368" transform="translate(29.48 77.05)" fill="#ce4a70"/>
              <path id="Path_1626" data-name="Path 1626" d="M71.341,43.366A15.349,15.349,0,1,0,56.31,59.026a15.348,15.348,0,0,0,15.032-15.66" transform="translate(110.548 77.055)" fill="#ce4a70"/>
            </g>
          </g>
          <g id="Livskompasset" clip-path="url(#clip-Livskompasset)" transform="matrix(0.521944, 0, 0, 0.499018, 2141.433105, 1581.086914)" style="">
            <path id="Path_1970" data-name="Path 1970" d="M-18456-22982l293.992,291.992L-17844-23004l-136-92-252-36-224,111.992Z" transform="translate(18879 23321.418)" fill="#8c1b35"/>
            <path id="Path_1971" data-name="Path 1971" d="M-18438.293-22987.7l276.285,297.7L-17844-23004l-136-92-252-36-224,111.992Z" transform="translate(-21981.004 18781.41) rotate(90)" fill="#7ec8d6"/>
            <path id="Path_1972" data-name="Path 1972" d="M-18452.553-22993.959l290.545,303.951L-17844-23004l-136-92-252-36-224,111.992Z" transform="translate(-17440.996 -22062.676) rotate(180)" fill="#e79e17"/>
            <path id="Path_1973" data-name="Path 1973" d="M-18444.1-22996.977l282.088,306.969L-17844-23004l-136-92-252-36-224,111.992Z" transform="translate(23419.008 -17509.039) rotate(-90)" fill="#009cb2"/>
            <g id="Group_1497" data-name="Group 1497" transform="translate(-633.402 169.469)">
              <path id="Path_1953" data-name="Path 1953" d="M1658.339,117.714c-179.737-179.737-471.148-179.737-650.887,0s-179.738,471.148,0,650.886,471.149,179.737,650.887,0S1838.077,297.453,1658.339,117.714Zm-609.7,609.7c-156.994-156.994-156.994-411.529,0-568.522s411.529-156.994,568.523,0,156.992,411.528,0,568.522S1205.628,884.413,1048.636,727.419Z" transform="translate(19.788 22.317)" fill="#353f4f"/>
              <path id="Path_1954" data-name="Path 1954" d="M1623.382,130.443c-166.57-166.569-436.631-166.569-603.2,0s-166.569,436.633,0,603.2,436.631,166.57,603.2,0S1789.951,297.013,1623.382,130.443ZM1037.52,716.305c-156.992-156.994-156.992-411.528,0-568.522s411.529-156.994,568.522,0,156.993,411.528,0,568.522S1194.514,873.3,1037.52,716.305Z" transform="translate(30.902 33.431)" opacity="0.31"/>
              <path id="Path_1955" data-name="Path 1955" d="M1597.96,139.7c-156.992-156.994-411.528-156.994-568.522,0s-156.994,411.53,0,568.522,411.529,156.994,568.522,0S1754.953,296.695,1597.96,139.7Zm-549,549c-146.214-146.213-146.214-383.27,0-529.484s383.27-146.213,529.484,0,146.212,383.272,0,529.485S1195.17,834.917,1048.958,688.7Z" transform="translate(38.984 41.513)" fill="#11171c" opacity="0.08"/>
              <g id="Group_1494" data-name="Group 1494" transform="translate(1074.597 196.898)">
                <line id="Line_124" data-name="Line 124" x1="9.641" y2="35.652" transform="translate(340.03 3.273)" fill="none" stroke="#2a4b72" stroke-miterlimit="10" stroke-width="0.536"/>
                <line id="Line_125" data-name="Line 125" x2="9.477" y2="35.696" transform="translate(206.229)" fill="none" stroke="#2a4b72" stroke-miterlimit="10" stroke-width="0.536"/>
                <line id="Line_126" data-name="Line 126" x2="26.054" y2="26.175" transform="translate(79.615 70.289)" fill="none" stroke="#2a4b72" stroke-miterlimit="10" stroke-width="0.536"/>
                <line id="Line_127" data-name="Line 127" x2="35.652" y2="9.641" transform="translate(3.36 195.122)" fill="none" stroke="#2a4b72" stroke-miterlimit="10" stroke-width="0.536"/>
                <line id="Line_128" data-name="Line 128" y1="9.476" x2="35.696" transform="translate(0 336.265)" fill="none" stroke="#2a4b72" stroke-miterlimit="10" stroke-width="0.536"/>
                <line id="Line_129" data-name="Line 129" y1="26.055" x2="26.175" transform="translate(71.83 444.766)" fill="none" stroke="#2a4b72" stroke-miterlimit="10" stroke-width="0.536"/>
                <line id="Line_130" data-name="Line 130" y1="35.652" x2="9.641" transform="translate(202.468 511.96)" fill="none" stroke="#2a4b72" stroke-miterlimit="10" stroke-width="0.536"/>
                <line id="Line_131" data-name="Line 131" x1="9.477" y1="35.696" transform="translate(341.403 509.179)" fill="none" stroke="#2a4b72" stroke-miterlimit="10" stroke-width="0.536"/>
                <line id="Line_132" data-name="Line 132" x1="26.054" y1="26.175" transform="translate(450.029 442.417)" fill="none" stroke="#2a4b72" stroke-miterlimit="10" stroke-width="0.536"/>
                <line id="Line_133" data-name="Line 133" x1="35.652" y1="9.641" transform="translate(511.059 332.416)" fill="none" stroke="#2a4b72" stroke-miterlimit="10" stroke-width="0.536"/>
                <line id="Line_134" data-name="Line 134" x1="35.695" y2="9.476" transform="translate(508.823 198.491)" fill="none" stroke="#2a4b72" stroke-miterlimit="10" stroke-width="0.536"/>
              </g>
              <g id="Group_1495" data-name="Group 1495" transform="translate(1038.889 151.681)">
                <path id="Path_1956" data-name="Path 1956" d="M1559.417,669.679,1205.753,396.76,932.834,43.1,1286.5,316.015Z" transform="translate(-932.834 -43.096)" fill="#252c37"/>
                <path id="Path_1957" data-name="Path 1957" d="M1246.125,356.388,932.834,43.1,1246.125,284.86Z" transform="translate(-932.834 -43.096)" fill="#353f4f"/>
                <path id="Path_1958" data-name="Path 1958" d="M1180.86,291.122l313.292,313.292L1180.86,362.65Z" transform="translate(-867.568 22.17)" fill="#353f4f"/>
                <path id="Path_1959" data-name="Path 1959" d="M1252.387,356.388,1494.152,43.1,1180.86,284.86v71.528h71.528" transform="translate(-867.568 -43.096)" fill="#252c37"/>
                <path id="Path_1960" data-name="Path 1960" d="M1174.6,291.123,932.834,604.414,1246.125,362.65V291.122H1174.6" transform="translate(-932.834 22.17)" fill="#252c37"/>
                <path id="Path_1961" data-name="Path 1961" d="M1246.125,291.122,932.834,604.414,1174.6,291.122Z" transform="translate(-932.834 22.17)" fill="#353f4f"/>
                <path id="Path_1962" data-name="Path 1962" d="M1180.86,356.388,1494.152,43.1,1252.388,356.388Z" transform="translate(-867.568 -43.096)" fill="#353f4f"/>
              </g>
              <g id="Group_1496" data-name="Group 1496" transform="translate(832.401 -62.48)">
                <g transform="matrix(1, 0, 0, 1, -199, -106.99)" filter="url(#Path_1963)">
                  <path id="Path_1963-2" data-name="Path 1963" d="M1455.672,313.508,1355.459,377.93,832.4,309.29l523.371-66.21Z" transform="translate(-633.4 319.7)" fill="#029cb2"/>
                </g>
                <path id="Path_1964" data-name="Path 1964" d="M1355.616,308.014,832.4,306.8l463.625-58.652Z" transform="translate(-832.402 215.201)" fill="#0191a6"/>
                <path id="Path_1965" data-name="Path 1965" d="M1183.163,288.282l523.214,1.215-463.625,58.652Z" transform="translate(-659.948 234.933)" fill="#353f4f"/>
                <path id="Path_1966" data-name="Path 1966" d="M1262.67,401.147,1204.018-62.48l-60.8,463.348,59.589,59.866,59.866-59.589" transform="translate(-679.589 62.48)" fill="#6a0c21"/>
                <path id="Path_1974" data-name="Path 1974" d="M1262.67,401.147,1204.018-62.48l-60.8,463.348,59.589,59.866,59.866-59.589" transform="translate(983.48 -679.588) rotate(90)" fill="#75b9c7"/>
                <g transform="matrix(1, 0, 0, 1, -199, -106.99)" filter="url(#Path_1967)">
                  <path id="Path_1967-2" data-name="Path 1967" d="M1143.028,347.871,1201.68,811.5l60.8-463.348-59.589-59.866-59.866,59.589" transform="translate(-480.68 341.92)" fill="#e79e17"/>
                </g>
                <path id="Path_1968" data-name="Path 1968" d="M1202.895,288.282,1201.68,811.5l-58.652-463.625Z" transform="translate(-679.681 234.933)" fill="#d69317"/>
                <g transform="matrix(1, 0, 0, 1, -199, -106.99)" filter="url(#Path_1969)">
                  <path id="Path_1969-2" data-name="Path 1969" d="M1183.163,460.735l1.215-523.215,58.651,463.626Z" transform="translate(-460.95 169.47)" fill="#9f1a39"/>
                </g>
                <g transform="matrix(1, 0, 0, 1, -199, -106.99)" filter="url(#Path_1975)">
                  <path id="Path_1975-2" data-name="Path 1975" d="M1183.163,460.735l1.215-523.215,58.651,463.626Z" transform="translate(1182.48 -552.96) rotate(90)" fill="#7ec8d6"/>
                </g>
              </g>
              <g id="Group_1201" data-name="Group 1201" transform="translate(1248.938 359.52)">
                <path id="Nuance_A4_5a" data-name="Nuance A4 5a" d="M1212.635,217.476a103.94,103.94,0,1,1-103.94,103.94h0A103.941,103.941,0,0,1,1212.635,217.476Z" transform="translate(-1108.695 -217.476)" fill="#fff"/>
                <path id="Path_200" data-name="Path 200" d="M1198.643,272.818c.112,11.305,36.543,10.956,36.433-.353" transform="translate(-1069.923 -193.773)" fill="#fff" stroke="#394151" stroke-linecap="round" stroke-linejoin="round" stroke-width="6"/>
                <path id="Path_201" data-name="Path 201" d="M1157.7,272.818c.112,11.305,36.542,10.956,36.432-.353" transform="translate(-1087.57 -193.773)" fill="#fff" stroke="#394151" stroke-linecap="round" stroke-linejoin="round" stroke-width="6"/>
                <path id="Path_202" data-name="Path 202" d="M1163.619,309.48c13.813,10.887,29.157,8.4,41.728-.4" transform="translate(-1085.021 -177.992)" fill="#fff" stroke="#394151" stroke-linecap="round" stroke-linejoin="round" stroke-width="6"/>
              </g>
            </g>
          </g>
          <g id="g-5" clip-path="url(#clip-9)" transform="matrix(0.659518, 0, 0, 0.723907, 5886.000918, 3063.075186)"/>
          <g id="g-8" data-name="Illustration - Min fysiske energi - Min fysiske aktivitet" clip-path="url(#clip-10)" transform="matrix(0.659518, 0, 0, 0.723907, 5691.706057, 2771.924857)"/>
        </g>
      </g>
    </g>
  </g>
  <g id="g-1" clip-path="url(#clip-1)" transform="matrix(1, 0, 0, 1, -292.270151, -1746.477878)"/>
  <g id="Illustration_-_Min_fysiske_energi_-_Min_fysiske_aktivitet" data-name="Illustration - Min fysiske energi - Min fysiske aktivitet" clip-path="url(#clip-Illustration_-_Min_fysiske_energi_-_Min_fysiske_aktivitet)" transform="matrix(1, 0, 0, 1, -586.87147, -2148.670688)"/>
  <path id="Path_1341" data-name="Path 1341" d="M 1779.581 1798.383 C 1781.36 1797.551 1786.605 1795.094 1786.254 1792.474 C 1786.371 1792.359 1786.497 1792.252 1786.63 1792.155 C 1785.889 1792.079 1786.338 1791.519 1786.724 1792.07 C 1786.533 1791.533 1786.402 1790.977 1786.332 1790.412 C 1783.701 1790.565 1771.145 1788.036 1771.994 1790.48 C 1771.374 1789.464 1771.104 1790.327 1770.994 1790.424 C 1771.167 1790.647 1771.359 1790.856 1771.567 1791.048 C 1770.09 1791.87 1769.309 1792.914 1771.684 1793.228 C 1774.338 1793.579 1777.128 1793.859 1779.889 1794.047 C 1778.917 1794.917 1777.833 1795.653 1776.666 1796.236 C 1776.534 1796.298 1776.408 1796.359 1776.277 1796.421 C 1776.753 1795.95 1777.142 1795.459 1776.409 1795.721 C 1776.149 1796.007 1775.931 1796.328 1775.76 1796.675 C 1773.276 1797.936 1771.501 1799.436 1772.075 1800.596 C 1772.138 1801.47 1772.985 1801.702 1773.828 1801.804 L 1773.76 1801.836 C 1773.741 1801.846 1773.806 1801.814 1773.828 1801.804 C 1773.85 1801.82 1773.815 1801.823 1773.76 1801.836 C 1773.66 1801.884 1773.92 1801.992 1773.989 1802.006 C 1774.07 1801.916 1774.089 1801.864 1774.076 1801.831 L 1774.27 1801.85 C 1774.885 1802.007 1775.509 1802.124 1776.139 1802.201 C 1776.756 1802.279 1778.41 1802.547 1780.273 1802.701 C 1780.332 1802.92 1780.402 1803.078 1780.487 1802.977 C 1780.459 1803.011 1780.477 1802.887 1780.508 1802.722 C 1781.064 1802.763 1781.634 1802.791 1782.201 1802.804 C 1781.995 1802.926 1781.614 1803.02 1781.75 1803.104 C 1781.97 1803.06 1782.174 1802.956 1782.339 1802.804 C 1782.401 1802.804 1782.464 1802.81 1782.527 1802.81 C 1782.639 1802.951 1782.944 1802.957 1783.486 1802.795 C 1785.734 1802.704 1787.603 1802.186 1787.603 1800.681 C 1787.603 1798.743 1783.411 1798.402 1779.583 1798.381 M 1777.492 1789.875 C 1777.457 1789.935 1777.415 1789.992 1777.369 1790.045 L 1777.156 1790.045 C 1777.14 1789.801 1777.312 1789.345 1777.492 1789.876 M 1776.63 1789.96 C 1776.674 1789.838 1776.73 1789.794 1776.787 1789.828 C 1776.777 1789.919 1776.768 1789.978 1776.759 1790.041 L 1776.629 1790.041 C 1776.629 1790.004 1776.629 1789.962 1776.629 1789.962 M 1776.266 1790.036 L 1776.146 1790.036 C 1776.121 1789.98 1776.087 1789.889 1776.056 1789.8 C 1776.056 1789.8 1776.04 1789.766 1776.012 1789.687 C 1776.129 1789.615 1776.226 1789.853 1776.266 1790.039 M 1772.394 1790.576 C 1772.394 1790.576 1772.494 1790.563 1772.583 1790.56 C 1772.526 1790.595 1772.456 1790.601 1772.394 1790.576" fill="#323f51" clip-path="url(#clip-path)" transform="matrix(1, 0, 0, 1, 1136.570547, -546.612826)"/>
  <path id="Path_1342" data-name="Path 1342" d="M 1805.735 1789.42 C 1805.728 1787.826 1799.79 1787.56 1795.603 1787.52 C 1795.792 1787.331 1795.982 1787.131 1796.171 1786.911 C 1796.305 1786.867 1796.434 1786.81 1796.557 1786.742 C 1796.522 1786.683 1796.49 1786.622 1796.463 1786.56 C 1796.491 1786.526 1796.517 1786.497 1796.544 1786.46 C 1796.565 1786.539 1796.581 1786.62 1796.592 1786.702 C 1796.916 1786.257 1797.275 1785.837 1797.663 1785.447 C 1797.683 1785.483 1797.713 1785.514 1797.75 1785.535 C 1797.806 1785.56 1797.826 1785.428 1797.804 1785.3 C 1799.852 1783.179 1803.304 1780.035 1802.36 1778.959 C 1802.413 1778.937 1802.46 1778.922 1802.513 1778.899 C 1802.813 1778.956 1802.836 1778.82 1802.793 1778.663 C 1802.928 1778.638 1803.003 1778.616 1802.993 1778.591 C 1802.868 1778.384 1802.725 1778.189 1802.564 1778.01 C 1802.617 1777.555 1801.884 1777.319 1801.693 1777.001 C 1801.762 1777.107 1801.81 1777.227 1801.835 1777.352 C 1801.67 1777.238 1801.498 1777.134 1801.32 1777.042 C 1801.628 1776.842 1801.22 1776.784 1800.976 1776.886 C 1800.635 1776.744 1800.282 1776.631 1799.923 1776.547 C 1800.052 1775.722 1799.715 1776.278 1799.751 1776.506 C 1797.921 1776.221 1796.066 1776.138 1794.219 1776.256 C 1794.166 1776.258 1794.114 1776.263 1794.062 1776.271 C 1793.834 1776.137 1793.63 1775.964 1793.462 1775.76 C 1793.416 1775.681 1793.425 1775.66 1793.453 1775.647 C 1793.19 1775.772 1792.916 1775.872 1792.635 1775.947 C 1792.644 1775.892 1792.644 1775.837 1792.635 1775.783 C 1792.617 1775.723 1792.557 1775.84 1792.529 1775.975 C 1791.169 1776.321 1789.229 1776.392 1789.408 1775.996 C 1789.045 1776.787 1788.786 1776.485 1788.85 1777.568 C 1788.574 1775.268 1788.884 1778.481 1788.603 1777.039 C 1788.619 1777.127 1788.679 1777.402 1788.742 1777.714 C 1787.363 1778.247 1786.676 1778.774 1788.277 1779 C 1788.436 1779.021 1788.716 1779.038 1789.083 1779.05 C 1789.055 1779.15 1789.046 1779.235 1789.101 1779.285 C 1789.112 1779.207 1789.119 1779.13 1789.123 1779.052 C 1790.634 1779.099 1793.623 1779.07 1796.442 1778.995 C 1796.319 1779.048 1796.246 1779.176 1796.261 1779.309 C 1796.232 1780.378 1796.63 1779.199 1796.69 1778.989 L 1797.666 1778.961 C 1797.735 1779.061 1797.81 1779.105 1797.886 1779.07 C 1797.962 1779.035 1798.023 1778.986 1798.093 1778.947 C 1798.375 1778.938 1798.651 1778.928 1798.92 1778.918 C 1798.845 1779.006 1798.804 1779.119 1798.805 1779.235 C 1798.759 1779.711 1799.034 1779.05 1799.034 1778.913 L 1799.534 1778.894 C 1799.274 1779.133 1799.211 1779.257 1799.234 1779.314 C 1797.778 1780.429 1796.408 1781.654 1795.138 1782.977 C 1795.126 1782.942 1795.101 1782.913 1795.069 1782.896 C 1794.937 1782.833 1794.855 1783.038 1794.928 1783.19 C 1793.387 1784.75 1791.94 1786.402 1790.596 1788.135 C 1790.431 1788.33 1790.409 1788.609 1790.54 1788.829 C 1790.467 1788.938 1790.425 1789.066 1790.421 1789.198 C 1791.055 1789.62 1791.77 1789.905 1792.521 1790.035 C 1793.459 1790.435 1793.264 1790.267 1792.964 1790.064 C 1793.205 1790.132 1793.459 1790.195 1793.722 1790.253 C 1793.797 1791.306 1795.312 1790.965 1796.142 1790.673 C 1796.542 1790.724 1796.949 1790.773 1797.359 1790.807 C 1797.284 1790.879 1797.248 1790.982 1797.259 1791.086 C 1797.291 1791.486 1797.572 1791.061 1797.641 1790.832 C 1798.371 1790.894 1799.106 1790.932 1799.823 1790.945 C 1799.717 1791.015 1799.623 1791.083 1799.57 1791.062 C 1799.662 1791.1 1799.827 1791.022 1799.97 1790.946 C 1800.651 1790.956 1801.312 1790.946 1801.927 1790.905 C 1804.115 1790.767 1805.738 1790.305 1805.734 1789.419 M 1800.334 1780.519 L 1800.259 1780.625 C 1800.275 1780.584 1800.301 1780.548 1800.334 1780.519 M 1801.622 1778.819 C 1801.631 1778.867 1801.624 1778.918 1801.603 1778.963 Z M 1799.73 1781.547 C 1799.758 1781.497 1799.787 1781.447 1799.815 1781.399 C 1800.015 1781.55 1799.868 1781.599 1799.73 1781.547 M 1800.23 1782.216 C 1799.669 1781.081 1801.036 1782.633 1800.23 1782.216 M 1800.562 1781.846 C 1799.851 1781.125 1800.492 1781.62 1800.53 1781.673 C 1800.603 1781.773 1800.615 1781.834 1800.562 1781.846 M 1800.995 1781.498 C 1801.045 1781.868 1799.486 1780.745 1800.995 1781.498 M 1790.654 1776.647 C 1790.64 1776.8 1790.614 1776.952 1790.575 1777.102 C 1790.494 1776.947 1790.537 1776.021 1790.654 1776.647 M 1790.416 1776.688 C 1790.422 1776.942 1790.422 1777.081 1790.416 1777.148 C 1790.387 1777.046 1790.371 1776.941 1790.368 1776.835 C 1790.375 1776.71 1790.391 1776.66 1790.414 1776.688 M 1789.406 1776.478 L 1789.324 1776.478 C 1789.343 1776.394 1789.462 1775.841 1789.406 1776.478 M 1790.152 1776.631 C 1790.265 1776.383 1790.352 1776.841 1790.372 1777.164 C 1790.335 1777.174 1790.3 1777.186 1790.263 1777.195 C 1790.232 1777.069 1790.195 1776.885 1790.151 1776.631 M 1799.53 1778.89 L 1799.863 1778.875 C 1799.803 1778.915 1799.74 1778.96 1799.677 1779.003 C 1799.642 1778.95 1799.59 1778.91 1799.53 1778.89 M 1794.625 1790.44 L 1794.961 1790.497 C 1794.684 1790.529 1794.587 1790.482 1794.625 1790.44" fill="#323f51" clip-path="url(#clip-path)" transform="matrix(1, 0, 0, 1, 1136.570547, -546.612826)"/>
  <path id="Path_1343" data-name="Path 1343" d="M 1790.215 1790.046 C 1790.652 1790.334 1791.201 1790.396 1791.692 1790.215 C 1791.692 1790.215 1789.817 1789.435 1790.215 1790.046" fill="#323f51" clip-path="url(#clip-path)" transform="matrix(1, 0, 0, 1, 1136.570547, -546.612826)"/>
  <path id="Path_1164" data-name="Path 1164" d="M 737.853 1938.055" fill="none" stroke="#323f51" stroke-width="4.5" transform="matrix(1, 0, 0, 1, 1136.570547, -546.612826)"/>
  <g id="g-18" clip-path="url(#clip-14)" transform="matrix(1, 0, 0, 1, 3500.190664, -460.344058)"/>
  <g id="g-19" data-name="Group 1192" transform="matrix(-1, 0, 0, 1, 6795.690664, -1399.517795)"/>
  <polyline style="fill: rgb(216, 216, 216); stroke: rgb(0, 0, 0);" points="510.455 -75.258" transform="matrix(1, 0, 0, 1, 3994.452871, -381.812716)"/>
  <path style="fill: rgb(216, 216, 216); stroke: rgb(0, 0, 0);" d="M -167.225 -0.173" transform="matrix(1, 0, 0, 1, 2115.705068, -363.570621)"/>
  <g id="g-17" data-name="Group 1541" transform="matrix(1, 0, 0, 1, 556.805288, -1070.969974)">
    <g id="g-20" data-name="Group 1073" transform="translate(969.574 1172.396)"/>
    <g id="g-22" data-name="Group 1540" transform="translate(-68.904 -0.125) rotate(-2)"/>
  </g>
  <path id="path-17" data-name="Path 1665" d="M 1059.193 698.708 C 1060.437 694.342 1056.719 690.199 1052.496 691.25 C 1048.275 692.299 1046.72 697.754 1049.695 701.072 C 1050.373 701.824 1051.232 702.381 1052.179 702.678 C 1055.158 703.616 1058.3 701.838 1059.193 698.708" style="fill: rgb(50, 63, 81);" transform="matrix(1, 0.000001, -0.000001, 1, 0.000732, -0.001107)"/>
  <path id="path-18" data-name="Path 1666" d="M 1125.657 696.274 C 1126.9 691.907 1123.179 687.769 1118.96 688.82 C 1114.739 689.872 1113.186 695.327 1116.164 698.639 C 1116.842 699.395 1117.7 699.951 1118.65 700.246 C 1121.63 701.184 1124.768 699.403 1125.657 696.274" style="stroke-width: 5px; fill: rgb(50, 63, 81);" transform="matrix(1, 0.000001, -0.000001, 1, 0.00073, -0.001177)"/>
</svg>