<?xml version="1.0" encoding="utf-8"?>
<svg viewBox="-66.265 -416.822 1092.682 1088.644" xmlns="http://www.w3.org/2000/svg">
  <defs>
    <clipPath id="clip-path">
      <rect id="Rectangle_485" data-name="Rectangle 485" width="243.014" height="124.265" fill="none"/>
    </clipPath>
    <clipPath id="clip-path-2">
      <rect id="Rectangle_486" data-name="Rectangle 486" width="511.868" height="25.936" fill="none"/>
    </clipPath>
    <clipPath id="clip-path-3">
      <rect id="Rectangle_488" data-name="Rectangle 488" width="38.492" height="37.672" fill="none"/>
    </clipPath>
  </defs>
  <g id="Group_1217" data-name="Group 1217" transform="matrix(1, 0, 0, 1, -1565.677513, -6593.232155)">
    <g id="Group_1208" data-name="Group 1208" transform="translate(21434 26138)">
      <path id="Path_1683" data-name="Path 1683" d="M354.364,0H399.9C595.606,0,754.26,209.628,754.26,419.255c0,4.4,63.225,192.964,63.089,197.292C810.875,821.754,591.5,838.51,399.9,838.51H354.364C158.654,838.51,0,650.8,0,419.255S158.654,0,354.364,0Z" transform="matrix(-0.883, -0.469, 0.469, -0.883, -19098.695, -18757.299)" fill="#fff"/>
      <path id="Path_1684" data-name="Path 1684" d="M233.478,494.949c-5.322,113.6-17.068,195.675-33.159,309,49.54.376,64.333-2.546,112.661-10.875" transform="translate(-19395.15 -19818.393)" fill="none" stroke="#323f51" stroke-linecap="round" stroke-linejoin="round" stroke-width="4"/>
      <path id="Path_1685" data-name="Path 1685" d="M214.16,500.231C187.958,615.4,178.95,691.539,191.4,804.66a406.744,406.744,0,0,0-93.94-8.441" transform="translate(-19447.807 -19815.689)" fill="none" stroke="#323f51" stroke-linecap="round" stroke-linejoin="round" stroke-width="4"/>
      <path id="Path_1686" data-name="Path 1686" d="M109.7,638.8c4.973,13.594,11.785,27.072,23.032,36.184,15.524,12.581,36.774,14.873,56.728,15.9,50.52,2.593,103.139-.177,148.168-23.226s80.539-70.68,76.032-121.065c-1.972-22.062-11.168-42.738-20.225-62.953l-76.6-170.8c-32.565-72.6-73.41-163.6-158.074-185.962-58.538-15.458-93.706,8.742-100.281,66.935C51.4,256.42,73.868,323.694,82.578,385.2c11.67,82.349-1.684,174.827,27.122,253.6" transform="translate(-19468.455 -20009.146)" fill="#7ec8d6"/>
      <path id="Path_1687" data-name="Path 1687" d="M109.7,638.8c4.973,13.594,11.785,27.072,23.032,36.184,15.524,12.581,36.774,14.873,56.728,15.9,50.52,2.593,103.139-.177,148.168-23.226s80.539-70.68,76.032-121.065c-1.972-22.062-11.168-42.738-20.225-62.953l-76.6-170.8c-32.565-72.6-73.41-163.6-158.074-185.962-58.538-15.458-93.706,8.742-100.281,66.935C51.4,256.42,73.868,323.694,82.578,385.2,94.248,467.548,80.894,560.026,109.7,638.8Z" transform="translate(-19468.455 -20009.146)" fill="none" stroke="#323f51" stroke-miterlimit="10" stroke-width="4.503"/>
      <path id="Path_1688" data-name="Path 1688" d="M118.212,437.065c-27.588,6.955-50.954,8.916-77.095,6.843-13.382-1.064-27.093-3.9-31.568-11.2-3.105-5.071-1.131-11.457,2.511-17.408,13.5-22.027,28.23-18.4,45.457-39.972" transform="translate(-19493.596 -19879.627)" fill="none" stroke="#323f51" stroke-linecap="round" stroke-linejoin="round" stroke-width="4"/>
      <path id="Path_1689" data-name="Path 1689" d="M183.845,199.767a29.865,29.865,0,0,1,8.9,3.293c1.352.75,2.05,1.71,1.01,3-1.021,1.24-2.269.91-3.483.255-9.448-5.107-18.893-4.075-28.33,1.318-.476.271-.954.52-1.418.8-1.16.7-2.34.906-3.223-.092-.915-1.037-.612-2.089.7-2.891,7.872-4.8,16.3-7.429,25.841-5.682" transform="translate(-19417.441 -19969.775)" fill="#323f51"/>
      <path id="Path_1690" data-name="Path 1690" d="M171.444,231.895a15.59,15.59,0,0,1,20.359,8.467c.051.127.1.254.151.381,3.651,8.683.393,16.747-8.222,20.39-8.917,3.769-16.146.7-20.028-8.5-3.623-8.577-.4-17.222,7.739-20.737" transform="translate(-19414.65 -19953.658)" fill="#323f51"/>
      <path id="Path_1691" data-name="Path 1691" d="M177.179,240.28a6.123,6.123,0,0,1,8.317,2.41,7.166,7.166,0,0,1-2.294,9.321c-.121.062-.245.121-.37.175a6.882,6.882,0,0,1-9.257-3c-.038-.076-.076-.151-.11-.227a6.372,6.372,0,0,1,3.131-8.449c.191-.086.386-.165.584-.233" transform="translate(-19409.197 -19949.146)" fill="#fff"/>
      <g id="Group_1154" data-name="Group 1154" transform="translate(-19436.684 -19819.025)" opacity="0.41">
        <g id="Group_1153" data-name="Group 1153">
          <g id="Group_1152" data-name="Group 1152" clip-path="url(#clip-path)">
            <path id="Path_1692" data-name="Path 1692" d="M282.459,177.466c8.131,18.918-39.273,57.46-105.877,86.085S49.392,300.042,41.261,281.123s39.272-57.46,105.877-86.085,127.19-36.493,135.321-17.573" transform="translate(-40.353 -167.162)" fill="#333"/>
          </g>
        </g>
      </g>
      <g id="Group_1157" data-name="Group 1157" transform="translate(-19492.936 -19025.451)" opacity="0.17">
        <g id="Group_1156" data-name="Group 1156">
          <g id="Group_1155" data-name="Group 1155" clip-path="url(#clip-path-2)">
            <path id="Path_1693" data-name="Path 1693" d="M515.015,705.015c0,7.163-114.585,12.969-255.931,12.969S3.148,712.178,3.148,705.015s114.584-12.966,255.936-12.966,255.931,5.807,255.931,12.966" transform="translate(-3.149 -692.047)"/>
          </g>
        </g>
      </g>
      <path id="Path_1694" data-name="Path 1694" d="M359.154,144.578c8.13,18.92-63.745,67.977-160.54,109.575S16.765,314.136,8.635,295.218s63.743-67.977,160.538-109.575,181.85-59.983,189.981-41.065" transform="translate(-19493.596 -20001.559)" fill="#333"/>
      <path id="Path_1695" data-name="Path 1695" d="M36.474,237.487c3.712,19.8,7.679,33.3,9.251,33.023,39.985-7.165,96.78-29.222,121.232-39.178l.06.141s2.154-.925,5.927-2.6c3.811-1.583,5.966-2.507,5.966-2.507l-.062-.144c24.051-10.887,79.14-36.913,111.855-60.993,1.281-.942-5.7-12.983-17.393-29.163-26.443,19.689-66.4,42.06-112.815,62.011C113.41,218.308,69.095,232,36.474,237.487" transform="translate(-19479.025 -20002.107)" fill="#333"/>
      <path id="Path_1696" data-name="Path 1696" d="M147.662,175.664c-44.223,19-85.664,31.438-114.721,35.5,1.433,13.093,3.352,25.528,5.342,36.151,32.621-5.484,76.936-19.178,124.023-39.414,46.418-19.95,86.372-42.32,112.815-62.009-6.374-8.822-14.15-18.875-22.75-29.031-22.946,18.286-60.485,39.8-104.708,58.8" transform="translate(-19480.832 -20011.938)" fill="#fcfdff"/>
      <path id="Path_1697" data-name="Path 1697" d="M237.891,121.338c-6.595-6.991-13.438-13.716-20.329-19.78C199.954,86.064,182.04,74.885,167.18,74.617c-48.718-.88-37.749,46.769-45.812,51.981l-2.551,1.646-2.951.717c-9.328,2.263-36.352-38.487-69.242-2.534-10.031,10.966-14.25,31.658-15.127,55.1-.346,9.269-.168,18.97.378,28.67.429,7.606,1.086,15.21,1.9,22.606,29.057-4.064,70.5-16.5,114.721-35.5s81.762-40.516,104.708-58.8c-4.874-5.754-10.01-11.54-15.31-17.157" transform="translate(-19481.662 -20033.566)" fill="#333"/>
      <path id="Path_1704" data-name="Path 1704" d="M161.217,288.077c5.284-1.917,11.406,1.6,13.674,7.847s-.178,12.872-5.461,14.791-11.406-1.6-13.674-7.848.178-12.871,5.461-14.789" transform="translate(-19418.396 -19924.561)" fill="#323f51"/>
      <path id="Path_1705" data-name="Path 1705" d="M165.756,410.5A115.7,115.7,0,1,0,13.775,349.88,115.829,115.829,0,0,0,165.756,410.5" transform="translate(-19495.455 -19975.264)" fill="#8fc6d4"/>
      <path id="Path_1706" data-name="Path 1706" d="M165.756,410.5A115.7,115.7,0,1,0,13.775,349.88,115.829,115.829,0,0,0,165.756,410.5Z" transform="translate(-19495.455 -19975.264)" fill="none" stroke="#323f51" stroke-miterlimit="10" stroke-width="4.503"/>
      <path id="Path_1707" data-name="Path 1707" d="M39.344,556.508,87.887,423.781A122.528,122.528,0,1,0,63.25,413.523L14.3,547.35ZM22.06,349.521a109.116,109.116,0,1,1,143.334,57.166A109.117,109.117,0,0,1,22.06,349.521" transform="translate(-19497.695 -19977.504)" fill="#333"/>
      <path id="Path_1708" data-name="Path 1708" d="M60.739,378.3a22.367,22.367,0,1,0-13.55,28.581A22.365,22.365,0,0,0,60.739,378.3" transform="translate(-19488.84 -19885.713)" fill="#8fc6d4"/>
      <path id="Path_1709" data-name="Path 1709" d="M31.84,308.358c-5.128-16.712-5.444-33.177-.939-48.939,3.376-11.809,8.349-18.778,8.4-18.846l-6.417-4.67c-.231.318-5.718,7.928-9.507,20.966-3.47,11.941-6.134,30.971.875,53.818Z" transform="translate(-19487.531 -19950.998)" fill="#fff"/>
      <path id="Path_1710" data-name="Path 1710" d="M37.041,308.958l4.527-6.519c-1.48-1.095-6.046-8-9.375-13.758l-6.87,3.973c2.372,4.1,8.266,13.9,11.719,16.3" transform="translate(-19484.732 -19923.982)" fill="#fff"/>
      <path id="Path_1711" data-name="Path 1711" d="M82.359,240.682c24.475-10.852,47.446-2.15,57.175,21.693,9.8,24.006,1.979,45.909-20.107,56.386-23.756,11.25-51.967,1.563-61.433-21.145-9.826-23.53-.172-46.045,24.364-56.934" transform="translate(-19469.949 -19950.914)" fill="#323f51"/>
      <g id="Group_1160" data-name="Group 1160" transform="translate(-19365.355 -19680.078)" opacity="0.9" style="isolation: isolate">
        <g id="Group_1159" data-name="Group 1159">
          <g id="Group_1158" data-name="Group 1158" clip-path="url(#clip-path-3)">
            <path id="Path_1712" data-name="Path 1712" d="M99.6,261.193a17.2,17.2,0,0,1,24.476,9.285,17.557,17.557,0,0,1-7.578,23.646q-.508.261-1.031.488a19.3,19.3,0,0,1-25.976-8.387c-.112-.221-.221-.443-.324-.668a17.881,17.881,0,0,1,8.8-23.71q.8-.367,1.634-.655" transform="translate(-87.532 -259.064)" fill="#fff"/>
          </g>
        </g>
      </g>
      <rect id="Rectangle_489" data-name="Rectangle 489" width="867.393" height="1106.387" transform="translate(-19497.695 -20071.758)" fill="none"/>
      <rect id="Rectangle_490" data-name="Rectangle 490" width="867.393" height="1106.387" transform="translate(-19497.695 -20071.758)" fill="none"/>
      <path id="Path_1763" data-name="Path 1763" d="M-863.168,191.7c23.461,20.635,38.869,45.02,51.239,79.806,6.334,17.808,10.841,39.124,5.057,57.3-4.018,12.621-12.4,21.5-21.225,27.616-32.669,22.654-72.282,13.662-106.541,31.071" transform="translate(-18260.43 -19827.535)" fill="none" stroke="#323f51" stroke-linecap="round" stroke-linejoin="round" stroke-width="5"/>
    </g>
  </g>
  <g id="Group_840" data-name="Group 840" transform="matrix(1.264364, 0, 0, 1.435932, -299.186279, -2258.896729)" style="">
    <path id="Path_1178" data-name="Path 1178" d="M 498.492 1493.532 C 507.918 1493.716 515.33 1499.422 515.045 1506.276 C 514.759 1513.132 506.888 1518.54 497.461 1518.356 C 488.034 1518.172 480.623 1512.467 480.909 1505.611 C 481.193 1498.756 489.065 1493.348 498.492 1493.532 Z" fill="#557591" style="" transform="matrix(0.020857, 0.880326, -1.135448, 0.020857, 2197.511835, 1036.152184)"/>
    <path id="Path_1177" data-name="Path 1177" d="M 445.899 1529.998 C 463.108 1530.357 476.641 1541.535 476.12 1554.965 C 475.598 1568.393 461.228 1578.988 444.016 1578.629 C 426.806 1578.269 413.276 1567.091 413.795 1553.661 C 414.314 1540.232 428.688 1529.638 445.899 1529.998 Z" fill="#557591" style="" transform="matrix(0.020857, 0.880326, -1.135448, 0.020857, 2200.519401, 1130.187283)"/>
    <path id="Path_1179" data-name="Path 1179" d="M 397.001 1603.076 C 425.278 1603.605 446.153 1620.041 443.624 1639.79 C 441.096 1659.535 416.128 1675.114 387.849 1674.584 C 359.57 1674.057 338.7 1657.62 341.227 1637.872 C 343.752 1618.125 368.725 1602.547 397.001 1603.076 Z" fill="#557591" style="" transform="matrix(0.283028, 0.844515, -1.089258, 0.283028, 2066.467726, 843.586035)"/>
    <path id="Path_517" data-name="Path 517" d="M304.617,14.216C372.412,3.288,437.7-4.587,500.228,3.025A511.014,511.014,0,0,1,673.706,56.888c21.921,11.334,44.746,28.27,40.384,58.74-2.726,19.019-15.675,38.4-28.727,55.953-18.936,25.461-39.927,50.569-64.95,68.523-44.389,31.838-93.136,35.844-138.032,38.286C369.545,284.529,256.746,289.7,148.5,281.961c-39.114-2.8-77.882-7.348-112.029-20.429C17.91,254.419-.582,242.251.014,218.886c.856-33.531,23.96-66.839,52.018-85.825,56.146-37.982,63.389-51.206,121.5-72.875,24.689-9.209,90.8-35,152.767-49.442" transform="translate(868.976 2072.277) rotate(-169)" fill="#557591"/>
  </g>
  <g id="Group_705" data-name="Group 705" transform="matrix(0.883, 0.469, -0.469, 0.883, -596.823853, 839.11499)">
    <g id="Group_704" data-name="Group 704" transform="translate(-353.304 374.84)">
      <g id="Group_703" data-name="Group 703" transform="matrix(2.329374, -0.883388, 0.376154, 0.991869, 694.333923, -1232.382324)" style="">
        <path id="Path_1107" data-name="Path 1107" d="M 240.239 64.475 C 239.936 65.842 240.097 66.885 239.492 67.491 C 237.119 69.86 233.684 70.466 229.979 70.55 C 222.229 70.716 214.473 70.948 206.721 71.163 C 202.565 71.402 198.428 71.806 194.324 72.373 C 183.84 73.499 173.457 76.339 162.685 74.9 C 159.495 74.326 156.148 74.644 153.227 75.799 C 152.666 76.06 152.029 76.204 151.376 76.218 C 142.651 75.974 134.153 77.645 125.56 78.457 C 118.54 79.126 111.504 78.856 104.549 80.813 C 100.746 81.887 96.242 81.494 92.05 81.639 C 87.527 81.795 82.987 81.959 78.485 81.824 C 75.629 81.833 72.795 81.422 70.133 80.613 C 66.622 79.292 62.54 79.265 59.002 80.54 C 52.107 82.813 44.577 83.649 37.147 82.967 C 34.928 82.765 32.602 83.135 30.376 82.958 C 25.169 82.407 19.932 83.791 16.219 86.7 C 12.838 89.327 8.817 89.419 4.547 89.485 C -0.444 89.564 -3.037 87.357 -4.684 84.309 C -4.989 83.747 -4.012 82.76 -3.456 81.625 C -2.451 81.989 -1.506 82.446 -0.64 82.986 C 2.338 85.884 7.686 86.467 11.563 84.315 C 18.574 80.87 25.976 80.29 33.832 80.305 C 41.581 80.314 49.271 79.655 56.544 77.056 C 60.754 75.691 65.358 75.242 69.868 75.755 C 83.323 76.821 96.76 77.011 110.221 74.772 C 112.779 74.475 115.365 74.352 117.95 74.406 C 123.403 74.267 128.936 74.815 134.146 72.803 C 134.752 72.617 135.406 72.549 136.053 72.602 C 149.067 73.172 161.477 69.389 174.367 68.768 C 181.342 68.434 188.242 66.711 195.181 65.637 C 196.445 65.412 197.73 65.272 199.024 65.22 C 212.537 64.958 226.041 64.728 240.239 64.475 Z" fill-rule="evenodd" style="fill: rgb(255, 255, 255);"/>
        <path id="Path_1108" data-name="Path 1108" d="M 223.429 152.079 C 221.655 152.643 219.82 153.045 217.953 153.279 C 209.271 153.378 200.665 153.857 192.21 156.052 C 190.313 156.544 188.198 156.341 186.195 156.575 C 184.475 156.675 182.777 156.975 181.145 157.467 C 172.09 160.85 162.765 161.314 153.214 160.529 C 150.346 160.431 147.471 160.539 144.623 160.854 C 136.858 161.363 129.099 162.096 121.335 162.416 C 109.418 162.905 97.776 164.328 86.803 168.88 C 79.147 172.056 66.747 173.313 58.965 171.407 C 54.771 170.491 50.39 170.444 46.172 171.271 C 41.056 172.088 35.876 172.571 30.755 173.378 C 27.077 173.96 23.46 174.867 19.801 175.568 C 17.044 176.222 14.23 176.679 11.388 176.933 C 9.698 176.897 8.067 176.381 6.741 175.461 C 5.75 174.699 5.215 173.578 5.29 172.423 C 5.67 171.102 7.361 170.445 8.732 171.085 C 12.738 172.66 16.526 171.793 20.479 170.672 C 22.987 170.046 25.549 169.601 28.14 169.339 C 34.429 168.501 40.716 167.602 47.033 166.996 C 50.737 166.539 54.49 166.482 58.21 166.823 C 68.125 168.049 77.671 167.393 86.84 163.391 C 91.035 161.559 95.558 160.836 100.073 159.861 C 116.291 156.346 132.885 157.499 149.198 155.354 C 151.774 155.167 154.365 155.27 156.911 155.661 C 164.41 156.402 171.826 156.618 178.849 153.288 C 179.344 153.019 179.881 152.815 180.443 152.683 C 192.355 150.652 204.192 147.954 216.416 148.541 C 218.107 148.618 219.771 148.951 221.335 149.526 C 222.137 149.82 222.502 150.891 223.429 152.079 Z" fill-rule="evenodd" style="fill: rgb(255, 255, 255);" transform="matrix(0.998553, 0.053772, -0.053772, 0.998553, 8.913944, -5.913771)"/>
        <path id="Path_1110" data-name="Path 1110" d="M 240.081 14.343 C 235.863 15.22 232.277 16.066 228.64 16.693 C 223.004 17.664 217.102 17.43 211.794 19.96 C 210.155 20.743 207.816 20.625 205.785 20.747 C 196.944 21.266 188.103 21.822 179.262 22.154 C 175.888 22.326 172.501 22.135 169.185 21.586 C 164.332 20.709 159.764 20.765 155.429 22.988 C 146.644 27.496 136.989 28.351 127.027 28.509 C 121.298 28.595 115.489 28.673 110.094 31.115 C 108.18 31.727 106.138 32.009 104.09 31.944 C 90.491 32.72 76.891 33.48 63.285 34.15 C 58.242 34.535 53.158 34.022 48.369 32.647 C 38.562 29.642 28.427 30.849 18.452 33.423 C 14.537 34.433 10.66 35.586 6.695 36.404 C 4.738 36.854 2.676 36.885 0.701 36.494 C -0.759 36.018 -1.846 34.973 -2.209 33.699 C -2.161 32.376 -1.347 31.155 -0.027 30.424 C 1.813 29.722 3.846 29.45 5.856 29.636 C 11.325 30.082 16.636 29.287 22.06 28.752 C 31.12 27.875 40.309 26.799 49.322 28.877 C 53.937 29.794 58.711 30.01 63.417 29.516 C 74.622 28.691 85.848 28.106 97.062 27.377 C 102.133 27.048 107.181 26.976 112.033 25.012 C 114.357 24.071 117.351 24.19 120.053 23.975 C 123.786 23.673 127.528 23.481 131.269 23.287 C 137.086 23.195 142.769 21.809 147.732 19.27 C 154.614 15.413 163.085 14.079 171.175 15.579 C 173.503 15.984 175.89 16.094 178.257 15.904 C 190.765 14.834 203.323 15.017 215.822 12.659 C 222.604 11.372 230.005 12.472 237.117 12.622 C 237.922 12.64 238.671 13.493 240.081 14.343 Z" fill-rule="evenodd" style="fill: rgb(255, 255, 255);"/>
        <path id="Path_1111" data-name="Path 1111" d="M 23.001 130.314 C 22.228 131.65 21.543 133.026 20.691 134.245 C 20.14 135.039 19.375 136.126 18.655 136.202 C 14.236 136.674 10.267 139.867 5.729 139.44 C 2.646 139.154 1.576 138.017 1.008 134.422 C 0.83 133.423 0.704 132.411 0.631 131.393 C 0.716 130.732 0.876 130.088 1.107 129.48 C 1.852 129.823 2.857 129.906 3.193 130.505 C 4.877 133.502 7.22 134.072 10.096 133.365 C 11.625 132.99 13.22 132.998 14.717 132.516 C 16.007 132.232 17.215 131.557 18.229 130.556 C 22.494 125.203 27.869 125.185 33.093 126.301 C 35.668 126.927 38.299 127.159 40.923 126.995 C 43.814 126.747 46.704 126.5 49.592 126.254 C 53.814 125.901 58.116 126.035 62.237 125.016 C 66.115 123.915 69.877 122.294 73.455 120.182 C 77.313 118.07 81.666 117.662 85.749 119.029 C 90.27 120.33 94.944 120.679 99.564 120.059 C 105.548 119.3 111.564 119.065 117.562 118.499 C 121.301 118.146 125.088 118.389 128.602 115.895 C 129.82 115.028 131.639 115.293 133.189 115.123 C 136.495 114.762 139.839 114.936 142.945 112.889 C 143.995 112.435 145.112 112.252 146.225 112.354 C 148.86 112.088 151.467 111.513 154.01 110.637 C 157.831 109.515 161.918 109.756 165.898 109.567 C 166.27 109.547 166.773 110.528 166.976 111.154 C 167.074 111.471 166.712 112.118 166.427 112.471 C 166.137 112.879 165.741 113.159 165.304 113.264 C 159.978 113.67 154.845 115.414 149.644 116.708 C 147.476 117.247 145.271 117.239 143.197 118.558 C 141.971 119.186 140.654 119.513 139.321 119.521 C 135.324 119.845 131.335 119.992 127.517 121.916 C 126.443 122.274 125.33 122.424 124.216 122.361 C 114.658 123.138 105.097 123.832 95.543 124.707 C 92.386 124.994 89.289 125.061 86.471 123.421 C 80.324 119.851 74.658 122.777 69.488 126.345 C 67.015 128.096 64.229 129.11 61.365 129.302 C 54.252 129.886 47.14 130.578 40.023 130.971 C 37.172 131.131 34.312 130.582 31.452 130.451 C 29.035 130.337 26.607 130.362 23.001 130.314 Z" fill-rule="evenodd" style="fill: rgb(255, 255, 255);"/>
        <path id="path-1" data-name="Path 1107" d="M 101.311 188.968 C 101.194 190.111 101.256 190.983 101.024 191.489 C 100.113 193.469 98.795 193.976 97.373 194.046 C 94.398 194.185 91.421 194.379 88.446 194.559 C 86.851 194.758 85.263 195.096 83.688 195.57 C 79.664 196.511 75.679 198.885 71.545 197.682 C 70.32 197.203 69.036 197.468 67.915 198.434 C 67.699 198.652 67.455 198.772 67.204 198.784 C 63.855 198.58 60.594 199.977 57.296 200.656 C 54.601 201.215 51.901 200.989 49.232 202.625 C 47.772 203.523 46.043 203.194 44.434 203.316 C 42.698 203.446 40.956 203.583 39.228 203.47 C 38.132 203.478 37.044 203.134 36.022 202.458 C 34.675 201.354 33.108 201.331 31.75 202.397 C 29.104 204.297 26.214 204.996 23.362 204.426 C 22.511 204.257 21.618 204.566 20.763 204.418 C 18.765 203.958 16.755 205.114 15.33 207.546 C 14.032 209.742 12.489 209.819 10.85 209.874 C 8.934 209.94 7.939 208.095 7.307 205.547 C 7.19 205.078 7.565 204.253 7.778 203.304 C 8.164 203.608 8.527 203.99 8.859 204.442 C 10.002 206.864 12.055 207.351 13.543 205.552 C 16.234 202.673 19.075 202.188 22.09 202.2 C 25.064 202.208 28.015 201.657 30.807 199.485 C 32.423 198.344 34.19 197.968 35.921 198.397 C 41.085 199.288 46.242 199.447 51.409 197.575 C 52.39 197.327 53.383 197.224 54.375 197.269 C 56.468 197.153 58.592 197.611 60.591 195.929 C 60.824 195.774 61.075 195.717 61.323 195.761 C 66.318 196.238 71.081 193.076 76.028 192.557 C 78.705 192.277 81.354 190.837 84.017 189.939 C 84.502 189.751 84.995 189.634 85.492 189.591 C 90.678 189.372 95.861 189.18 101.311 188.968 Z" fill-rule="evenodd" style="fill: rgb(255, 255, 255);" transform="matrix(0.991261, 0.131917, -0.131917, 0.991261, 26.781648, -5.420026)"/>
      </g>
    </g>
  </g>
</svg>