<svg viewBox="-66.265 -416.822 1092.682 1088.644" xmlns="http://www.w3.org/2000/svg"><defs><clipPath id="TankeDetektiv_svg__a"><path fill="none" d="M0 0h243.014v124.265H0z" data-name="Rectangle 485"/></clipPath><clipPath id="TankeDetektiv_svg__b"><path fill="none" d="M0 0h511.868v25.936H0z" data-name="Rectangle 486"/></clipPath><clipPath id="TankeDetektiv_svg__c"><path fill="none" d="M0 0h38.492v37.672H0z" data-name="Rectangle 488"/></clipPath></defs><g data-name="Group 1217"><g data-name="Group 1208"><path fill="#fff" d="m456.724 621.272-40.208-21.356C243.707 508.13 201.93 248.619 300.246 63.519c2.064-3.885 34.673-200.04 36.823-203.798 101.958-178.161 303.525-90.07 472.708-.21l40.208 21.357c172.812 91.788 224.868 331.944 116.273 536.399S629.536 713.06 456.724 621.272Z" data-name="Path 1683"/><path fill="none" stroke="#323f51" stroke-linecap="round" stroke-linejoin="round" stroke-width="4" d="M706.65 221.324c-5.322 113.6-17.068 195.675-33.159 309 49.54.376 64.333-2.546 112.661-10.875" data-name="Path 1684"/><path fill="none" stroke="#323f51" stroke-linecap="round" stroke-linejoin="round" stroke-width="4" d="M634.675 229.31c-26.202 115.169-35.21 191.308-22.76 304.429a406.744 406.744 0 0 0-93.94-8.441" data-name="Path 1685"/><path fill="#7ec8d6" d="M509.567 174.422c4.973 13.594 11.785 27.072 23.032 36.184 15.524 12.58 36.774 14.873 56.728 15.9 50.52 2.593 103.14-.177 148.168-23.226s80.54-70.68 76.032-121.065c-1.972-22.062-11.168-42.738-20.225-62.953l-76.6-170.8c-32.565-72.6-73.41-163.6-158.074-185.962-58.538-15.458-93.706 8.742-100.28 66.935-7.08 62.607 15.387 129.88 24.097 191.387 11.67 82.349-1.684 174.827 27.122 253.6" data-name="Path 1686"/><path fill="none" stroke="#323f51" stroke-miterlimit="10" stroke-width="4.503" d="M509.567 174.422c4.973 13.594 11.785 27.072 23.032 36.184 15.524 12.58 36.774 14.873 56.728 15.9 50.52 2.593 103.14-.177 148.168-23.226s80.54-70.68 76.032-121.065c-1.972-22.062-11.168-42.738-20.225-62.953l-76.6-170.8c-32.565-72.6-73.41-163.6-158.074-185.962-58.538-15.458-93.706 8.742-100.28 66.935-7.08 62.607 15.387 129.88 24.097 191.387 11.67 82.348-1.684 174.826 27.122 253.6Z" data-name="Path 1687"/><path fill="none" stroke="#323f51" stroke-linecap="round" stroke-linejoin="round" stroke-width="4" d="M492.938 102.206c-27.588 6.955-50.954 8.916-77.095 6.843-13.382-1.064-27.093-3.9-31.568-11.2-3.105-5.071-1.13-11.457 2.511-17.408 13.5-22.027 28.23-18.4 45.457-39.972" data-name="Path 1688"/><path fill="#323f51" d="M634.726-225.24a29.865 29.865 0 0 1 8.9 3.293c1.352.75 2.05 1.71 1.01 3-1.02 1.24-2.269.91-3.483.255-9.448-5.107-18.893-4.075-28.33 1.318-.476.27-.954.52-1.418.8-1.16.7-2.34.906-3.223-.092-.915-1.037-.612-2.09.7-2.891 7.872-4.8 16.3-7.43 25.841-5.682" data-name="Path 1689"/><path fill="#323f51" d="M625.116-176.995a15.59 15.59 0 0 1 20.36 8.467l.15.38c3.651 8.684.393 16.748-8.222 20.39-8.917 3.77-16.146.7-20.028-8.5-3.623-8.576-.4-17.221 7.74-20.736" data-name="Path 1690"/><path fill="#fff" d="M636.304-164.098a6.123 6.123 0 0 1 8.317 2.41 7.166 7.166 0 0 1-2.294 9.32 6.246 6.246 0 0 1-.37.176 6.882 6.882 0 0 1-9.257-3c-.038-.076-.076-.151-.11-.227a6.372 6.372 0 0 1 3.131-8.45c.191-.085.386-.164.584-.232" data-name="Path 1691"/><g data-name="Group 1154" opacity=".41"><g data-name="Group 1153"><g clip-path="url(#TankeDetektiv_svg__a)" data-name="Group 1152" transform="translate(431.638 -274.257)"><path fill="#333" d="M242.106 10.304c8.131 18.918-39.273 57.46-105.877 86.085S9.039 132.88.908 113.961s39.272-57.46 105.877-86.085 127.19-36.493 135.321-17.573" data-name="Path 1692"/></g></g></g><g data-name="Group 1157" opacity=".17"><g data-name="Group 1156"><g clip-path="url(#TankeDetektiv_svg__b)" data-name="Group 1155" transform="translate(375.386 519.317)"><path d="M511.866 12.968c0 7.163-114.585 12.969-255.931 12.969S-.001 20.131-.001 12.968 114.583.002 255.935.002s255.931 5.807 255.931 12.966" data-name="Path 1693"/></g></g></g><path fill="#333" d="M733.88-312.213c8.13 18.92-63.745 67.977-160.54 109.575s-181.849 59.983-189.979 41.065S447.104-229.55 543.9-271.148s181.85-59.983 189.981-41.065" data-name="Path 1694"/><path fill="#333" d="M425.771-219.852c3.712 19.8 7.68 33.3 9.251 33.023 39.985-7.165 96.78-29.222 121.232-39.178l.06.14s2.154-.924 5.927-2.6c3.811-1.582 5.966-2.506 5.966-2.506l-.062-.144c24.051-10.887 79.14-36.913 111.855-60.993 1.281-.942-5.7-12.983-17.393-29.163-26.443 19.689-66.4 42.06-112.815 62.01-47.085 20.232-91.4 33.924-124.02 39.41" data-name="Path 1695"/><path fill="#fcfdff" d="M535.152-291.506c-44.223 19-85.664 31.438-114.72 35.5a487.076 487.076 0 0 0 5.341 36.15c32.621-5.483 76.936-19.177 124.023-39.413 46.418-19.95 86.372-42.32 112.815-62.01-6.374-8.821-14.15-18.874-22.75-29.03-22.946 18.286-60.485 39.8-104.708 58.8" data-name="Path 1696"/><path fill="#333" d="M624.551-367.46c-6.595-6.991-13.438-13.716-20.329-19.78-17.608-15.494-35.522-26.673-50.382-26.941-48.718-.88-37.749 46.769-45.812 51.98l-2.55 1.647-2.952.717c-9.328 2.263-36.352-38.487-69.242-2.534-10.03 10.966-14.25 31.658-15.127 55.1-.346 9.269-.168 18.97.378 28.67a427.608 427.608 0 0 0 1.9 22.606c29.057-4.064 70.5-16.5 114.721-35.5s81.762-40.516 104.708-58.8a430.93 430.93 0 0 0-15.31-17.157" data-name="Path 1697"/><path fill="#323f51" d="M611.143-91.716c5.284-1.917 11.406 1.6 13.674 7.847s-.178 12.872-5.46 14.79-11.407-1.6-13.675-7.847.178-12.871 5.461-14.79" data-name="Path 1704"/><path fill="#8fc6d4" d="M538.623-19.996a115.7 115.7 0 1 0-151.98-60.62 115.829 115.829 0 0 0 151.98 60.62" data-name="Path 1705"/><path fill="none" stroke="#323f51" stroke-miterlimit="10" stroke-width="4.503" d="M538.623-19.996a115.7 115.7 0 1 0-151.98-60.62 115.829 115.829 0 0 0 151.98 60.62Z" data-name="Path 1706"/><path fill="#333" d="M409.971 123.772 458.514-8.955a122.528 122.528 0 1 0-24.637-10.258l-48.95 133.827ZM392.687-83.215A109.116 109.116 0 1 1 536.021-26.05a109.117 109.117 0 0 1-143.334-57.166" data-name="Path 1707"/><path fill="#8fc6d4" d="M440.221 37.355a22.367 22.367 0 1 0-13.55 28.58 22.365 22.365 0 0 0 13.55-28.58" data-name="Path 1708"/><path fill="#fff" d="M412.631-97.872c-5.128-16.712-5.444-33.177-.939-48.94 3.376-11.808 8.35-18.777 8.4-18.845l-6.417-4.67c-.23.318-5.718 7.928-9.507 20.966-3.47 11.94-6.134 30.97.875 53.818Z" data-name="Path 1709"/><path fill="#fff" d="m420.631-70.256 4.527-6.52c-1.48-1.094-6.046-8-9.375-13.757l-6.87 3.973c2.372 4.1 8.266 13.9 11.72 16.3" data-name="Path 1710"/><path fill="#323f51" d="M480.732-165.464c24.475-10.852 47.446-2.15 57.175 21.693 9.8 24.006 1.98 45.909-20.107 56.386-23.756 11.25-51.967 1.563-61.433-21.145-9.826-23.53-.172-46.045 24.364-56.934" data-name="Path 1711"/><g data-name="Group 1160" opacity=".9" style="isolation:isolate"><g data-name="Group 1159"><g clip-path="url(#TankeDetektiv_svg__c)" data-name="Group 1158" transform="translate(502.967 -135.31)"><path fill="#fff" d="M12.068 2.129a17.2 17.2 0 0 1 24.476 9.285 17.557 17.557 0 0 1-7.578 23.646q-.508.261-1.031.488a19.3 19.3 0 0 1-25.976-8.387 18.668 18.668 0 0 1-.324-.668 17.881 17.881 0 0 1 8.8-23.71q.8-.367 1.634-.655" data-name="Path 1712"/></g></g></g><path fill="none" d="M370.627-526.99h867.393V579.397H370.627z" data-name="Rectangle 489"/><path fill="none" d="M370.627-526.99h867.393V579.397H370.627z" data-name="Rectangle 490"/><path fill="none" stroke="#323f51" stroke-linecap="round" stroke-linejoin="round" stroke-width="5" d="M744.724-91.067c23.461 20.635 38.87 45.02 51.24 79.806 6.333 17.808 10.84 39.124 5.056 57.3-4.018 12.62-12.4 21.5-21.225 27.616-32.669 22.654-72.282 13.662-106.54 31.07" data-name="Path 1763"/></g></g><g fill="#557591" data-name="Group 840"><path d="M498.492 1493.532c9.426.184 16.838 5.89 16.553 12.744-.286 6.856-8.157 12.264-17.584 12.08-9.427-.184-16.838-5.889-16.552-12.745.284-6.855 8.156-12.263 17.583-12.079Z" data-name="Path 1178" transform="matrix(.02637 1.26409 -1.43562 .02995 2479.269 -771.053)"/><path d="M445.899 1529.998c17.209.359 30.742 11.537 30.221 24.967-.522 13.428-14.892 24.023-32.104 23.664-17.21-.36-30.74-11.538-30.221-24.968.519-13.429 14.893-24.023 32.104-23.663Z" data-name="Path 1177" transform="matrix(.02637 1.26409 -1.43562 .02995 2483.071 -636.025)"/><path d="M397.001 1603.076c28.277.529 49.152 16.965 46.623 36.714-2.528 19.745-27.496 35.324-55.775 34.794-28.279-.527-49.149-16.964-46.622-36.712 2.525-19.747 27.498-35.325 55.774-34.796Z" data-name="Path 1179" transform="matrix(.35785 1.21267 -1.37722 .4064 2313.581 -1047.565)"/><path d="M424.875 613.252c-86.78-3.171-169.71-9.96-245.48-37.82A646.108 733.781 0 0 1-22.919 451.977c-24.473-21.982-48.716-52.108-35.951-93.862 7.971-26.061 28.719-49.832 49.153-70.998 29.644-30.7 61.754-60.34 97.143-78.79 62.773-32.716 124.241-25.006 180.552-16.147 141.526 22.262 282.772 45.879 415.253 86.446 47.87 14.663 94.89 31.696 134.114 59.49 21.321 15.112 41.337 37.33 34.96 70.1-9.152 47.03-45.863 87.649-85.267 106.723-78.848 38.154-91.028 54.81-168.379 69.431-32.864 6.216-121.139 24.456-201.532 27.835" data-name="Path 517"/></g><g data-name="Group 705"><g data-name="Group 704"><g fill-rule="evenodd" data-name="Group 703"><path d="M240.239 64.475c-.303 1.367-.142 2.41-.747 3.016-2.373 2.369-5.808 2.975-9.513 3.059-7.75.166-15.506.398-23.258.613a156.07 156.07 0 0 0-12.397 1.21c-10.484 1.126-20.867 3.966-31.639 2.527-3.19-.574-6.537-.256-9.458.899a4.644 4.644 0 0 1-1.851.419c-8.725-.244-17.223 1.427-25.816 2.239-7.02.669-14.056.399-21.011 2.356-3.803 1.074-8.307.681-12.499.826-4.523.156-9.063.32-13.565.185a28.507 28.507 0 0 1-8.352-1.211c-3.511-1.321-7.593-1.348-11.131-.073-6.895 2.273-14.425 3.109-21.855 2.427-2.219-.202-4.545.168-6.771-.009-5.207-.551-10.444.833-14.157 3.742-3.381 2.627-7.402 2.719-11.672 2.785-4.991.079-7.584-2.128-9.231-5.176-.305-.562.672-1.549 1.228-2.684 1.005.364 1.95.821 2.816 1.361 2.978 2.898 8.326 3.481 12.203 1.329 7.011-3.445 14.413-4.025 22.269-4.01 7.749.009 15.439-.65 22.712-3.249 4.21-1.365 8.814-1.814 13.324-1.301 13.455 1.066 26.892 1.256 40.353-.983a56.781 56.781 0 0 1 7.729-.366c5.453-.139 10.986.409 16.196-1.603a5.11 5.11 0 0 1 1.907-.201c13.014.57 25.424-3.213 38.314-3.834 6.975-.334 13.875-2.057 20.814-3.131a28.458 28.458 0 0 1 3.843-.417c13.513-.262 27.017-.492 41.215-.745Z" data-name="Path 1107" style="fill:#fff" transform="matrix(2.47115 .31244 -.13304 1.05224 106.493 241.848)"/><path d="M223.429 152.079a30.671 30.671 0 0 1-5.476 1.2c-8.682.099-17.288.578-25.743 2.773-1.897.492-4.012.289-6.015.523-1.72.1-3.418.4-5.05.892-9.055 3.383-18.38 3.847-27.931 3.062a59.665 59.665 0 0 0-8.591.325c-7.765.509-15.524 1.242-23.288 1.562-11.917.489-23.559 1.912-34.532 6.464-7.656 3.176-20.056 4.433-27.838 2.527a31.626 31.626 0 0 0-12.793-.136c-5.116.817-10.296 1.3-15.417 2.107-3.678.582-7.295 1.489-10.954 2.19a59.359 59.359 0 0 1-8.413 1.365c-1.69-.036-3.321-.552-4.647-1.472-.991-.762-1.526-1.883-1.451-3.038.38-1.321 2.071-1.978 3.442-1.338 4.006 1.575 7.794.708 11.747-.413a54.13 54.13 0 0 1 7.661-1.333c6.289-.838 12.576-1.737 18.893-2.343a52.335 52.335 0 0 1 11.177-.173c9.915 1.226 19.461.57 28.63-3.432 4.195-1.832 8.718-2.555 13.233-3.53 16.218-3.515 32.812-2.362 49.125-4.507a34.427 34.427 0 0 1 7.713.307c7.499.741 14.915.957 21.938-2.373a6.409 6.409 0 0 1 1.594-.605c11.912-2.031 23.749-4.729 35.973-4.142a16.44 16.44 0 0 1 4.919.985c.802.294 1.167 1.365 2.094 2.553Z" data-name="Path 1108" style="fill:#fff" transform="matrix(2.46042 .36857 -.26573 1.03391 129.307 238.41)"/><path d="M240.081 14.343c-4.218.877-7.804 1.723-11.441 2.35-5.636.971-11.538.737-16.846 3.267-1.639.783-3.978.665-6.009.787-8.841.519-17.682 1.075-26.523 1.407a47.093 47.093 0 0 1-10.077-.568c-4.853-.877-9.421-.821-13.756 1.402-8.785 4.508-18.44 5.363-28.402 5.521-5.729.086-11.538.164-16.933 2.606a17.902 17.902 0 0 1-6.004.829c-13.599.776-27.199 1.536-40.805 2.206a42.5 42.5 0 0 1-14.916-1.503c-9.807-3.005-19.942-1.798-29.917.776-3.915 1.01-7.792 2.163-11.757 2.981-1.957.45-4.019.481-5.994.09-1.46-.476-2.547-1.521-2.91-2.795.048-1.323.862-2.544 2.182-3.275a13.178 13.178 0 0 1 5.883-.788c5.469.446 10.78-.349 16.204-.884 9.06-.877 18.249-1.953 27.262.125a47.206 47.206 0 0 0 14.095.639c11.205-.825 22.431-1.41 33.645-2.139 5.071-.329 10.119-.401 14.971-2.365 2.324-.941 5.318-.822 8.02-1.037 3.733-.302 7.475-.494 11.216-.688 5.817-.092 11.5-1.478 16.463-4.017 6.882-3.857 15.353-5.191 23.443-3.691 2.328.405 4.715.515 7.082.325 12.508-1.07 25.066-.887 37.565-3.245 6.782-1.287 14.183-.187 21.295-.037.805.018 1.554.871 2.964 1.721Z" data-name="Path 1110" style="fill:#fff" transform="matrix(2.47115 .31244 -.13304 1.05224 106.493 241.848)"/><path d="M23.001 130.314c-.773 1.336-1.458 2.712-2.31 3.931-.551.794-1.316 1.881-2.036 1.957-4.419.472-8.388 3.665-12.926 3.238-3.083-.286-4.153-1.423-4.721-5.018a29.17 29.17 0 0 1-.377-3.029 8.414 8.414 0 0 1 .476-1.913c.745.343 1.75.426 2.086 1.025 1.684 2.997 4.027 3.567 6.903 2.86 1.529-.375 3.124-.367 4.621-.849 1.29-.284 2.498-.959 3.512-1.96 4.265-5.353 9.64-5.371 14.864-4.255a26.18 26.18 0 0 0 7.83.694l8.669-.741c4.222-.353 8.524-.219 12.645-1.238a47.69 47.69 0 0 0 11.218-4.834c3.858-2.112 8.211-2.52 12.294-1.153a33.626 33.626 0 0 0 13.815 1.03c5.984-.759 12-.994 17.998-1.56 3.739-.353 7.526-.11 11.04-2.604 1.218-.867 3.037-.602 4.587-.772 3.306-.361 6.65-.187 9.756-2.234a6.692 6.692 0 0 1 3.28-.535 34.534 34.534 0 0 0 7.785-1.717c3.821-1.122 7.908-.881 11.888-1.07.372-.02.875.961 1.078 1.587.098.317-.264.964-.549 1.317-.29.408-.686.688-1.123.793-5.326.406-10.459 2.15-15.66 3.444-2.168.539-4.373.531-6.447 1.85a8.59 8.59 0 0 1-3.876.963c-3.997.324-7.986.471-11.804 2.395a8.83 8.83 0 0 1-3.301.445c-9.558.777-19.119 1.471-28.673 2.346-3.157.287-6.254.354-9.072-1.286-6.147-3.57-11.813-.644-16.983 2.924-2.473 1.751-5.259 2.765-8.123 2.957-7.113.584-14.225 1.276-21.342 1.669-2.851.16-5.711-.389-8.571-.52-2.417-.114-4.845-.089-8.451-.137Z" data-name="Path 1111" style="fill:#fff" transform="matrix(2.47115 .31244 -.13304 1.05224 106.493 241.848)"/><path d="M101.311 188.968c-.117 1.143-.055 2.015-.287 2.521-.911 1.98-2.229 2.487-3.651 2.557-2.975.139-5.952.333-8.927.513a28.924 28.924 0 0 0-4.758 1.011c-4.024.941-8.009 3.315-12.143 2.112-1.225-.479-2.509-.214-3.63.752-.216.218-.46.338-.711.35-3.349-.204-6.61 1.193-9.908 1.872-2.695.559-5.395.333-8.064 1.969-1.46.898-3.189.569-4.798.691-1.736.13-3.478.267-5.206.154-1.096.008-2.184-.336-3.206-1.012-1.347-1.104-2.914-1.127-4.272-.061-2.646 1.9-5.536 2.599-8.388 2.029-.851-.169-1.744.14-2.599-.008-1.998-.46-4.008.696-5.433 3.128-1.298 2.196-2.841 2.273-4.48 2.328-1.916.066-2.911-1.779-3.543-4.327-.117-.469.258-1.294.471-2.243a5.84 5.84 0 0 1 1.081 1.138c1.143 2.422 3.196 2.909 4.684 1.11 2.691-2.879 5.532-3.364 8.547-3.352 2.974.008 5.925-.543 8.717-2.715 1.616-1.141 3.383-1.517 5.114-1.088 5.164.891 10.321 1.05 15.488-.822a10.184 10.184 0 0 1 2.966-.306c2.093-.116 4.217.342 6.216-1.34a.99.99 0 0 1 .732-.168c4.995.477 9.758-2.685 14.705-3.204 2.677-.28 5.326-1.72 7.989-2.618a5.347 5.347 0 0 1 1.475-.348c5.186-.219 10.369-.411 15.819-.623Z" data-name="Path 1107" style="fill:#fff" transform="matrix(2.432 .44852 -.45787 1.00182 173.395 244.513)"/></g></g></g></svg>