<svg viewBox="-491.485 -317.24 1914.745 310.861" xmlns="http://www.w3.org/2000/svg"><g data-name="Group 1348"><path fill="#fff" d="M1125.221 2226.297c503.158-.897 1025.49 24.055 926.795 137.092-98.695 113.039-172.482 55.229-1046.465 75.707-503.157.897-725.294.488-720.22-121.155 5.073-121.641 336.732-90.745 839.89-91.644Z" data-name="Path 729" transform="matrix(.9775 -.01832 .01924 1.02643 -755.49 -2555.075)"/><g data-name="Group 504"><path d="M7.558 0h103.61c4.175 0 7.552 3.885 7.552 8.68s-3.377 8.674-7.552 8.674H7.558C3.384 17.354 0 13.473 0 8.68S3.384 0 7.558 0Z" data-name="Path 211" style="fill:#51957b" transform="matrix(.80735 -.0146 .01683 1.02646 5.42 -188.51)"/><path d="M9.413 0a9.85 9.85 0 0 1 6.664 2.542L46.62 30.723a8.21 8.21 0 0 1 0 12.271L16.076 71.175a9.99 9.99 0 0 1-13.316.007 8.2 8.2 0 0 1-.005-12.269l23.9-22.054-23.9-22.046A8.2 8.2 0 0 1 2.76 2.542 9.812 9.812 0 0 1 9.413 0Z" data-name="Path 212" style="fill:#51957b" transform="matrix(.80735 -.0146 .01683 1.02646 60.931 -218.445)"/></g><path fill="none" stroke="#323f51" stroke-width="5" d="M379.396 2403.08s27.526-4.863 67.286-10.536c59.659-8.513 146.861-18.851 209.938-17.323 12.763.203 25.504 1.2 38.16 2.988" data-name="Path 730" transform="matrix(.97364 .0886 -.09304 1.02238 -486.394 -2614.512)"/><text x="343.855" y="2356.99" style="fill:#333;font-family:&quot;Roboto Slab&quot;;font-size:50.5px;white-space:pre" transform="matrix(2.06206 0 0 1.82668 -1037.244 -4455.717)">Trist</text><text x="343.855" y="2356.99" style="fill:#333;font-family:&quot;Roboto Slab&quot;;font-size:50.5px;font-style:italic;white-space:pre" transform="matrix(2.06206 0 0 1.82668 -586.39 -4452.23)">&apos;Det bliver aldrig bedre</text></g></svg>