<svg viewBox="-1345.017 -301.846 1391.984 1039.581" xmlns="http://www.w3.org/2000/svg"><defs><clipPath id="VelkomstKomite_svg__a"><path d="M0 0h1166v1094H0z"/></clipPath><clipPath id="VelkomstKomite_svg__b"><path d="M0 0h1166v1094H0z"/></clipPath><clipPath id="VelkomstKomite_svg__c"><path d="M0 0h545v513H0z"/></clipPath><clipPath id="VelkomstKomite_svg__d"><path fill="#323f51" d="M0 0h35.569v27.465H0z" data-name="Rectangle 374"/></clipPath><clipPath id="VelkomstKomite_svg__e"><path d="M0 0h1166v1094H0z"/></clipPath></defs><ellipse cx="-667.761" cy="588.349" rx="649.48" ry="137.136" style="fill:#d8d8d8"/><g data-name="Group 1191"><path d="M235.581-9294.366c-.304-3.626-.175-7.406 1.426-10.62 2.212-4.435 6.817-7.066 11.26-9.278 11.253-5.6 23.555-10.173 36.267-9.32 12.712.853 25.858 8.311 30.16 20.365 1.885 5.28 1.976 10.954 2.046 16.509l.599 46.941c.253 19.958 12.293 41.475-4.66 55.012-11.72 9.359-31.06 6.624-38.719-6.133-8.241-13.727-13.209-27.324-17.729-42.356-6.052-20.131-18.888-40.116-20.65-61.12Z" data-name="Path 1607" style="stroke-miterlimit:3;stroke:#080d0d;stroke-width:1.93804px;fill:#82d2e2" transform="matrix(2.34363 .50388 -.5807 2.70095 -7128.863 24836.067)"/><path fill="none" stroke-linecap="round" stroke-linejoin="round" d="M21.943-4.144c19.631 25.768 15.28 17.656 22.316 27.4 3.6 4.989 11.52 15.104 8.23 20.196-2.285 3.535-7.049 6.021-12.066 7.736C21.852 57.535 19.479 50.83 0 55.709" data-name="Path 1606" style="stroke:#080d0d;stroke-width:1.93805px" transform="matrix(-2.39682 .04822 -.04184 -2.76225 -1112.763 19.93)"/><path fill="none" stroke-linecap="round" stroke-linejoin="round" d="M295.388-9179.144c1.709 43.747 3.086 77.708 2.847 121.837 8.944-2.096 11.731 5.545 20.251.173" data-name="Path 1611" style="stroke:#080d0d;stroke-width:1.93805px" transform="matrix(2.3967 .04821 -.05556 2.76211 -2278.854 25526.377)"/><path fill="none" stroke-linecap="round" stroke-linejoin="round" d="M267.238-9180.701c-4.496 47.028-10.102 78.929-7.577 125.119-5.474-2.598-12.533 6.177-18.347 6.506" data-name="Path 1608" style="stroke:#080d0d;stroke-width:1.93805px" transform="matrix(2.3967 .04821 -.05556 2.76211 -2278.708 25528.946)"/><path fill="none" stroke-linecap="round" stroke-linejoin="round" d="M314.672-9246.726c2.234 3.742 16.305 35.954 16.474 46.561.169 10.607-.353 21.4-.873 32.096" data-name="Path 1612" style="stroke:#080d0d;stroke-width:1.93861px" transform="matrix(2.39161 .16344 -.18836 2.75624 -3504.401 25433.648)"/></g><path d="M-1054.202-87.373c-.081 3.988 4.184 6.568 7.678 4.645 3.494-1.923 3.596-6.907.184-8.972a5.194 5.194 0 0 0-2.576-.747 5.176 5.176 0 0 0-5.286 5.074" data-name="Path 1622"/><path d="M-1131.793-90.05c-.083 3.989 4.183 6.572 7.68 4.65 3.496-1.923 3.6-6.91.187-8.975a5.185 5.185 0 0 0-2.585-.75 5.177 5.177 0 0 0-5.282 5.075" data-name="Path 1623"/><path d="M1948.958 468.643c.245-.138 11.383-5.019 23.211-4.669 13.258.39 27.38 5.994 27.994 5.289.539-.618.797-1.585.677-2.536l-.108-1.274a42.129 42.129 0 0 0-.439-3.343c-.677-3.957-1.748-7.768-3.184-11.322a39.23 39.23 0 0 0-3.545-6.783c-1.567-2.361-3.353-4.428-5.312-6.147-1.049-.839-2.165-1.581-3.281-2.375a67.86 67.86 0 0 0-3.578-1.726c-1.287-.383-2.626-.696-3.954-1.003-1.246-.214-2.273-.194-3.422-.301a21.418 21.418 0 0 0-7.652 1.182c-2.432.782-4.76 2.082-6.9 3.853-2.004 1.607-3.835 3.59-5.442 5.891-.755 1.09-1.41 2.232-2.072 3.303l-1.626 3.333c-1.516 3.492-2.668 7.26-3.422 11.194a39.912 39.912 0 0 0-.517 3.333c-.082.798-.123 1.229-.123 1.229-.205 2.065 1.292 3.662 2.695 2.872Z" data-name="Path 1624" transform="rotate(180 441.246 201.977)"/><path d="M2016.466 387.408c2.178 3.98 3.455 7.955 5.103 10.826 2.03 3.533 4.622 5.393 10.15 3.529" style="stroke:#000" transform="rotate(154.925 547.134 -194.714)"/><path d="M1920.926 399.033c2.178-3.98 3.455-7.955 5.103-10.826 2.03-3.533 4.622-5.393 10.15-3.529" style="stroke:#000" transform="rotate(25.075 1515.509 -6747.815)"/><g data-name="Group 1411"><path fill="none" d="m463.767 296.87-177.884-144 152.72-188.655 177.884 144.002z" data-name="Rectangle 451"/></g><g data-name="Group 1216"><g data-name="Group 1209"><g data-name="Group 1541"><g data-name="Group 1073"><path fill="none" stroke-linecap="round" stroke-linejoin="round" d="M75.346 108.27c-9.57 32.529-13.166 94.79-11.841 112.27a59.801 59.801 0 0 0-19.913-.274" data-name="Path 368" style="stroke:#080d0d;stroke-width:1.69198px" transform="matrix(3.01221 0 0 2.89801 -616.648 -131.503)"/><path fill="none" stroke-linecap="round" stroke-linejoin="round" d="M128.625 173.514c.956 40.812 2.502 71.687 3.544 112.497a341.58 341.58 0 0 1 22.118-1.3" data-name="Path 369" style="stroke:#080d0d;stroke-width:1.69198px" transform="matrix(3.01221 0 0 2.89801 -678.012 -328.408)"/><path stroke-miterlimit="10" d="M43.509 104.53c3.432 13.45 10.885 25.532 19.242 36.614 6.684 8.86 14.883 17.755 25.8 19.771 9.672 1.784 19.567-2.318 27.541-8.078 19.528-14.1 30.683-39.466 26.6-63.206-4.569-26.569-32.136-52.772-60.409-50.587-29.515 2.28-45.203 40.294-38.774 65.486Z" data-name="Path 373" style="stroke:#080d0d;stroke-width:1.69135px;fill:#8bdcec" transform="matrix(2.958 .55352 -.57533 2.84585 -549.05 -321.05)"/><path fill="none" stroke-linecap="round" stroke-linejoin="round" d="m103.83 137.492 8.614-6.15c3.026-2.161 6.128-4.406 8.532-8.431a25.822 25.822 0 0 0 3.126-16.068 30.691 30.691 0 0 0-2.75-8.34c-10.038-22.059-22.928-39.66-37.29-50.923" data-name="Path 379" style="stroke:#080d0d;stroke-width:1.69139px" transform="matrix(3.0092 .1507 -.15664 2.89511 -466.046 -379.187)"/><path fill="none" stroke-linecap="round" stroke-linejoin="round" d="M39.685 49.654C36.757 51.317 33.8 53 31.03 57s-5.391 10.523-7.022 20.083a88.755 88.755 0 0 0-1.269 13.6 92.03 92.03 0 0 0 1.212 15.8A68.18 68.18 0 0 0 33.59 132.7l10.432 17.876" data-name="Path 380" style="stroke:#080d0d;stroke-width:1.69198px" transform="matrix(3.01221 0 0 2.89801 -585.824 -59.95)"/></g><g data-name="Group 1539"><path fill="none" stroke-linecap="round" stroke-linejoin="round" d="M47.013 87.387s-25.956 19.025-47.498 0" data-name="Path 2028" style="stroke:#002640;stroke-width:2.36794px" transform="matrix(3.0119 -.00103 .0127 2.8983 -408.633 -235.83)"/><path fill="#002640" d="M-269.48-42.973c-.07-.058-1.386-1.466-2.1-2.182a28.623 28.623 0 0 0-5.583-4.472 22.772 22.772 0 0 0-3.236-1.696c-.513-.272-1.083-.39-1.575-.614-.482-.186-.977-.34-1.475-.467-1.836-.605-7.954-.687-7.85-5.727.098-5.333 9.985-5.8 17.752-2.124 9.337 4.428 12.192 10.999 12.21 14.86.02 3.651-2.532 4.7-4.773 4.538-1.362-.087-3.292-2.066-3.367-2.116" data-name="Path 1662"/><path fill="#002640" d="M-408.241-46.362c.081-.05 1.482-1.365 2.254-2.032a28.595 28.595 0 0 1 5.88-4.066 23.312 23.312 0 0 1 3.344-1.47c.532-.237 1.107-.318 1.615-.498.497-.148.996-.272 1.499-.368 1.877-.467 7.999-.127 8.246-5.153.262-5.336-9.574-6.495-17.56-3.365-9.626 3.774-12.929 10.124-13.236 13.976-.253 3.646 2.213 4.866 4.46 4.863 1.364.009 3.423-1.838 3.5-1.881" data-name="Path 1663"/><path d="M-376.682-34.049c1.4-4.669-2.78-9.1-7.523-7.976-4.74 1.122-6.49 6.96-3.144 10.504a6.33 6.33 0 0 0 10.667-2.527" data-name="Path 1665"/><path d="M-282.01-29.936c1.397-4.67-2.784-9.095-7.523-7.97-4.74 1.124-6.484 6.958-3.141 10.5a6.327 6.327 0 0 0 2.793 1.719 6.32 6.32 0 0 0 7.87-4.25" data-name="Path 1666"/></g></g><path fill="none" stroke-linecap="round" stroke-linejoin="round" d="M2113.702 10360.902c.825 67.193 1.644 112.427 2.469 179.625a342.626 342.626 0 0 0 67.853 1.291" data-name="Path 1765" style="stroke:#080d0d;stroke-width:5px" transform="translate(-2725.42 -9843.03)"/><path stroke-miterlimit="10" d="M2113.183 9730.873c52.563 29.635 84.427 86.43 107.008 143.07a794.326 794.326 0 0 1 54.754 339.5c-1.316 22.231-3.739 45.023-13.792 64.81-12.76 25.118-36.509 42.677-61.4 55.272-47.245 23.9-100.512 32.948-153.207 35.829-44.8 2.449-90.807.458-132.609-16.1-41.802-16.558-79.11-49.628-92.159-93.272-7.726-25.833-6.649-53.42-5.5-80.395l3.39-79.659c3.025-71.1 6.279-143.451 29.77-210.49 23.491-67.039 70.717-129.194 136.894-152.342 21.068-7.373 46.745-24.773 68.729-21.089 47.747 8 25.075 2.886 58.123 14.864" data-name="Path 1767" style="fill:#7ec8d6;stroke:#080d0d;stroke-width:5px" transform="translate(-2725.42 -9843.03)"/><path fill="none" stroke-linecap="round" stroke-linejoin="round" d="M2257.057 9988.191c37.6 11.01 66.69 56.671 66.727 104.73.008 11.381-1.5 22.947-5.641 33.1-7.695 18.846-23.243 30.376-38.112 40.609-52.954 36.421-143.627-188.5-199.462-159.5" data-name="Path 1771" style="stroke:#080d0d;stroke-width:5px" transform="translate(-2725.42 -9843.03)"/><path fill="none" stroke="#353f4f" stroke-linecap="round" stroke-miterlimit="10" d="M2080.834 9852.81c11.788 2.507 20.613 8.884 29.395 17.065" data-name="Path 1769" style="stroke-width:5px" transform="translate(-2725.42 -9843.03)"/><path fill="#323f51" d="M-629.449 136.458a48.4 48.4 0 0 0 9.143-13.992c1.141-2.565 1.162-4.899-1.587-6.213-2.634-1.258-4.061.483-5.099 2.748-8.104 17.693-22.306 24.566-40.832 23.736-.924-.042-1.848-.035-2.767-.1-2.313-.167-4.163.555-4.403 3.127-.248 2.672 1.22 4.244 3.854 4.452 15.752 1.218 30.117-1.909 41.691-13.758Z" data-name="Path 1772"/><path fill="none" stroke-linecap="round" stroke-linejoin="round" d="M1974.326 10369.736c3.086 64.453 3.177 107.743.268 172.2a159.25 159.25 0 0 0-68.217.983" data-name="Path 1766" style="stroke:#080d0d;stroke-width:5px" transform="translate(-2725.42 -9843.03)"/><path fill="none" stroke="#353f4f" stroke-linecap="round" stroke-miterlimit="10" d="M1994.395 9822.682c-11.788 2.507-20.623 8.884-29.394 17.065" data-name="Path 1768" style="stroke-width:5px" transform="translate(-2725.42 -9843.03)"/><path fill="none" stroke-linecap="round" stroke-linejoin="round" d="M1825.008 10008.161c-47.141 31.675-74.64-242.706 21.847-372.489" data-name="Path 1770" style="stroke:#080d0d;stroke-width:5px" transform="translate(-2725.42 -9843.03)"/><path d="M2298.996 10390.684c1.397-4.67-2.784-9.095-7.523-7.971-4.742 1.125-6.487 6.959-3.141 10.501a6.286 6.286 0 0 0 2.793 1.718 6.321 6.321 0 0 0 7.871-4.248M2391.861 10392.959c1.397-4.67-2.784-9.095-7.523-7.971-4.742 1.125-6.487 6.959-3.141 10.501a6.286 6.286 0 0 0 2.793 1.718 6.321 6.321 0 0 0 7.871-4.248" data-name="Path 1666" style="stroke-width:5px" transform="translate(-3029.059 -10346.477)"/></g></g><path fill="#323f51" d="M1779.581 1798.383c1.779-.832 7.024-3.289 6.673-5.909a3.37 3.37 0 0 1 .376-.319c-.741-.076-.292-.636.094-.085a7.814 7.814 0 0 1-.392-1.658c-2.631.153-15.187-2.376-14.338.068-.62-1.016-.89-.153-1-.056.173.223.365.432.573.624-1.477.822-2.258 1.866.117 2.18 2.654.351 5.444.631 8.205.819a14.648 14.648 0 0 1-3.223 2.189l-.389.185c.476-.471.865-.962.132-.7-.26.286-.478.607-.649.954-2.484 1.261-4.259 2.761-3.685 3.921.063.874.91 1.106 1.753 1.208l-.068.032.068-.032c.022.016-.013.019-.068.032-.1.048.16.156.229.17.081-.09.1-.142.087-.175l.194.019c.615.157 1.239.274 1.869.351.617.078 2.271.346 4.134.5.059.219.129.377.214.276-.028.034-.01-.09.021-.255.556.041 1.126.069 1.693.082-.206.122-.587.216-.451.3.22-.044.424-.148.589-.3.062 0 .125.006.188.006.112.141.417.147.959-.015 2.248-.091 4.117-.609 4.117-2.114 0-1.938-4.192-2.279-8.02-2.3m-2.091-8.506a1.13 1.13 0 0 1-.123.17h-.213c-.016-.244.156-.7.336-.169m-.862.084c.044-.122.1-.166.157-.132-.01.091-.019.15-.028.213h-.13v-.079m-.363.074h-.12a3.424 3.424 0 0 1-.09-.236s-.016-.034-.044-.113c.117-.072.214.166.254.352m-3.872.537s.1-.013.189-.016a.21.21 0 0 1-.189.016" clip-path="url(#VelkomstKomite_svg__d)" data-name="Path 1341" transform="translate(1226.82 -306.93)"/><path fill="#323f51" d="M1805.735 1789.42c-.007-1.594-5.945-1.86-10.132-1.9.189-.189.379-.389.568-.609.134-.044.263-.101.386-.169a1.65 1.65 0 0 1-.094-.182c.028-.034.054-.063.081-.1.021.079.037.16.048.242.324-.445.683-.865 1.071-1.255a.23.23 0 0 0 .087.088c.056.025.076-.107.054-.235 2.048-2.121 5.5-5.265 4.556-6.341.053-.022.1-.037.153-.06.3.057.323-.079.28-.236.135-.025.21-.047.2-.072a3.822 3.822 0 0 0-.429-.581c.053-.455-.68-.691-.871-1.009.069.106.117.226.142.351a4.718 4.718 0 0 0-.515-.31c.308-.2-.1-.258-.344-.156a6.729 6.729 0 0 0-1.053-.339c.129-.825-.208-.269-.172-.041a25.418 25.418 0 0 0-5.532-.25 1.368 1.368 0 0 0-.157.015 2.263 2.263 0 0 1-.6-.511c-.046-.079-.037-.1-.009-.113a4.772 4.772 0 0 1-.818.3.501.501 0 0 0 0-.164c-.018-.06-.078.057-.106.192-1.36.346-3.3.417-3.121.021-.363.791-.622.489-.558 1.572-.276-2.3.034.913-.247-.529.016.088.076.363.139.675-1.379.533-2.066 1.06-.465 1.286.159.021.439.038.806.05-.028.1-.037.185.018.235.011-.078.018-.155.022-.233 1.511.047 4.5.018 7.319-.057a.304.304 0 0 0-.181.314c-.029 1.069.369-.11.429-.32l.976-.028c.069.1.144.144.22.109.076-.035.137-.084.207-.123l.827-.029a.483.483 0 0 0-.115.317c-.046.476.229-.185.229-.322l.5-.019c-.26.239-.323.363-.3.42a36.123 36.123 0 0 0-4.096 3.663.145.145 0 0 0-.069-.081c-.132-.063-.214.142-.141.294a54.998 54.998 0 0 0-4.332 4.945.6.6 0 0 0-.056.694.703.703 0 0 0-.119.369 5.474 5.474 0 0 0 2.1.837c.938.4.743.232.443.029.241.068.495.131.758.189.075 1.053 1.59.712 2.42.42.4.051.807.1 1.217.134a.336.336 0 0 0-.1.279c.032.4.313-.025.382-.254.73.062 1.465.1 2.182.113-.106.07-.2.138-.253.117.092.038.257-.04.4-.116.681.01 1.342 0 1.957-.041 2.188-.138 3.811-.6 3.807-1.486m-5.4-8.9-.075.106a.274.274 0 0 1 .075-.106m1.288-1.7a.239.239 0 0 1-.019.144Zm-1.892 2.728.085-.148c.2.151.053.2-.085.148m.5.669c-.561-1.135.806.417 0 0m.332-.37c-.711-.721-.07-.226-.032-.173.073.1.085.161.032.173m.433-.348c.05.37-1.509-.753 0 0m-10.341-4.851c-.014.153-.04.305-.079.455-.081-.155-.038-1.081.079-.455m-.238.041c.006.254.006.393 0 .46a1.276 1.276 0 0 1-.048-.313c.007-.125.023-.175.046-.147m-1.008-.21h-.082c.019-.084.138-.637.082 0m.746.153c.113-.248.2.21.22.533-.037.01-.072.022-.109.031a8.798 8.798 0 0 1-.112-.564m9.379 2.259.333-.015c-.06.04-.123.085-.186.128a.285.285 0 0 0-.147-.113m-4.905 11.55.336.057c-.277.032-.374-.015-.336-.057" clip-path="url(#VelkomstKomite_svg__d)" data-name="Path 1342" transform="translate(1226.82 -306.93)"/><path fill="#323f51" d="M1790.215 1790.046c.437.288.986.35 1.477.169 0 0-1.875-.78-1.477-.169" clip-path="url(#VelkomstKomite_svg__d)" data-name="Path 1343" transform="translate(1226.82 -306.93)"/><g data-name="Group 1541"><g fill="none" stroke="#502831" data-name="Group 1073"><path stroke-linecap="round" stroke-linejoin="round" stroke-width="3" d="M1710.035 517.853c4.195 16.372.948 25.313-1.02 42.1a326.959 326.959 0 0 0-.708 69.43 59.81 59.81 0 0 0-19.913-.275" data-name="Path 368"/><path stroke-linecap="round" stroke-linejoin="round" stroke-width="3" d="M1739.754 517.73c.956 40.811-6.258 73.223-5.216 114.033q11.034-1.008 22.118-1.3" data-name="Path 369"/><path stroke-miterlimit="10" stroke-width="3.7615039999999995" d="M1682.202 454.606c.801 13.863 5.812 27.151 11.902 39.63 4.872 9.977 11.224 20.278 21.56 24.343 9.157 3.6 19.657 1.461 28.588-2.672 21.87-10.117 37.669-32.895 38.193-56.988.588-26.963-21.478-57.96-49.66-61.215-29.418-3.398-52.085 30.935-50.583 56.902Z" data-name="Path 373"/><path stroke-linecap="round" stroke-linejoin="round" stroke-width="3.00105" d="m1783.574 466.34 8.925-5.696c3.136-2.002 6.351-4.083 8.962-7.979a25.831 25.831 0 0 0 3.958-15.89 30.702 30.702 0 0 0-2.313-8.474c-8.881-22.559-20.843-40.813-34.605-52.811" data-name="Path 379"/><path stroke-linecap="round" stroke-linejoin="round" stroke-width="3" d="M1686.918 483.397c-2.928 1.663-5.885 3.346-8.655 7.346s-5.39 10.523-7.022 20.083a88.755 88.755 0 0 0-1.269 13.6 92.03 92.03 0 0 0 1.212 15.8 68.18 68.18 0 0 0 9.64 26.217l10.431 17.876" data-name="Path 380"/></g><g data-name="Group 1539"><path fill="#502831" stroke="#502831" stroke-width="1.99972" d="M1709.898 416.921a9.056 9.056 0 0 1 2.85-.424c.472 0 .794.157.704.654-.087.476-.47.572-.887.574-3.26.021-5.624 1.675-7.347 4.487-.086.14-.18.278-.26.42-.207.355-.49.581-.871.445s-.468-.466-.236-.872a10.877 10.877 0 0 1 6.047-5.284Z" data-name="Path 574"/><path fill="#502831" stroke="#502831" stroke-width="2.00024" d="M1753.561 416.107a9.058 9.058 0 0 1 2.19 1.872c.31.357.404.703-.03.961-.417.247-.741.02-1.017-.293-2.155-2.447-4.954-3.147-8.208-2.602-.163.027-.327.047-.487.079-.405.077-.762.012-.909-.365s.046-.66.504-.75a10.88 10.88 0 0 1 7.957 1.098Z" data-name="Path 573"/><path fill="#502831" d="M1720.745 447.627a5.154 5.154 0 0 1-3.72-1.307 4.638 4.638 0 0 1-.327-6.502 5.027 5.027 0 0 1 3.413-1.461l.077-.004a4.82 4.82 0 0 1 3.308.942 2.465 2.465 0 0 0-.593-.038l-.037.002a1.959 1.959 0 0 0-1.323 3.408 2.2 2.2 0 0 0 1.592.561l.085-.004a1.833 1.833 0 0 0 1.728-1.538 5.422 5.422 0 0 1 .123.995 4.977 4.977 0 0 1-1.047 3.428 4.414 4.414 0 0 1-3.08 1.513c-.067-.002-.134.002-.199.005Z" data-name="Subtraction 6"/><path fill="#502831" d="m1742.724 446.657-.04.002a4.535 4.535 0 0 1-3.453-1.076 4.856 4.856 0 0 1-1.357-3.45 5.042 5.042 0 0 1 1.138-3.55 4.557 4.557 0 0 1 3.25-1.543h.01a4.556 4.556 0 0 1 3.598 1.475 2.067 2.067 0 0 0-1.43-.413l-.036.002a1.969 1.969 0 0 0-1.327 3.428 2.213 2.213 0 0 0 1.597.563l.088-.005a1.907 1.907 0 0 0 1.777-2.126 2.117 2.117 0 0 0-.19-.834 5.107 5.107 0 0 1 .824 2.586 4.753 4.753 0 0 1-1.12 3.482 4.678 4.678 0 0 1-3.33 1.459Zm3.617-7.54a4.777 4.777 0 0 0-.471-.602 1.714 1.714 0 0 1 .473.601Z" data-name="Exclusion 2"/><path fill="none" stroke="#502831" stroke-linecap="round" stroke-linejoin="round" stroke-width="2.0007" d="M1749.23 457.317s-19.313 18.623-35.453.013" data-name="Path 2028"/></g></g><path d="M-945.29-216.86c-8.191 1.771-16.079 4.453-23.466 7.98-3.473 1.65-5.032 3.499-1.587 5.488 3.076 1.548 6.925 1.377 9.8-.436 24.253-11.281 50.995-11.873 79.472-4.857 1.421.361 2.871.661 4.27 1.029 2.946 1.214 6.443.833 8.947-.975 2.132-2.037.866-3.791-3.127-4.857-23.927-7.042-49.655-8.21-74.309-3.372Z" data-name="Path 2025" style="fill:#080d0d" transform="rotate(-57.499 -919.551 -211.065)"/><path d="M-958.115-228.307c-6.264 1.441-12.272 3.61-17.859 6.445-2.639 1.333-3.825 2.824-1.202 4.427 2.322 1.243 5.3 1.099 7.445-.361 18.467-9.11 38.819-9.587 60.487-3.921 1.081.281 2.187.534 3.247.83 2.239.978 4.945.665 6.805-.787 1.626-1.647.658-3.062-2.376-3.925-18.129-5.679-37.799-6.621-56.547-2.708Z" data-name="Path 2026" style="fill:#080d0d" transform="rotate(-57.499 -938.529 -223.636)"/><path d="M-194.628-256.037c-8.191 1.771-16.079 4.453-23.466 7.98-3.473 1.65-5.032 3.499-1.587 5.488 3.076 1.548 6.925 1.377 9.8-.436 24.253-11.281 50.995-11.873 79.472-4.857 1.421.361 2.871.661 4.27 1.029 2.946 1.214 6.443.833 8.947-.975 2.132-2.037.866-3.791-3.127-4.857-23.927-7.042-49.655-8.21-74.309-3.372Z" data-name="Path 2025" style="fill:#080d0d" transform="rotate(51.992 -168.89 -250.242)"/><path d="M-170.294-268.609c-6.264 1.441-12.272 3.61-17.859 6.445-2.639 1.333-3.825 2.824-1.202 4.427 2.322 1.243 5.3 1.099 7.445-.361 18.467-9.11 38.819-9.587 60.487-3.921 1.081.281 2.187.534 3.247.83 2.239.978 4.945.665 6.805-.787 1.626-1.647.658-3.062-2.376-3.925-18.129-5.679-37.799-6.621-56.547-2.708Z" data-name="Path 2026" style="fill:#080d0d" transform="rotate(51.992 -150.707 -263.938)"/></svg>