<?xml version="1.0" encoding="utf-8"?>
<svg xmlns="http://www.w3.org/2000/svg" xmlns:bx="https://boxy-svg.com" viewBox="-706.107 -1067.017 3479.199 2626.516">
  <defs>
    <clipPath id="clip-path">
      <rect id="Rectangle_486" data-name="Rectangle 486" width="379.422" height="22.807" fill="none"/>
    </clipPath>
    <filter id="Path_1963" x="190" y="556.779" width="641.27" height="152.85" filterUnits="userSpaceOnUse">
      <feOffset dy="3" input="SourceAlpha"/>
      <feGaussianBlur stdDeviation="3" result="blur"/>
      <feFlood flood-opacity="0.161"/>
      <feComposite operator="in" in2="blur"/>
      <feComposite in="SourceGraphic"/>
    </filter>
    <filter id="Path_1967" x="653.348" y="624.203" width="137.455" height="541.215" filterUnits="userSpaceOnUse">
      <feOffset dy="3" input="SourceAlpha"/>
      <feGaussianBlur stdDeviation="3" result="blur-2"/>
      <feFlood flood-opacity="0.161"/>
      <feComposite operator="in" in2="blur-2"/>
      <feComposite in="SourceGraphic"/>
    </filter>
    <filter id="Path_1969" x="713.213" y="100.988" width="77.867" height="541.215" filterUnits="userSpaceOnUse">
      <feOffset dy="3" input="SourceAlpha"/>
      <feGaussianBlur stdDeviation="3" result="blur-3"/>
      <feFlood flood-opacity="0.161"/>
      <feComposite operator="in" in2="blur-3"/>
      <feComposite in="SourceGraphic"/>
    </filter>
    <filter id="Path_1975" x="712.744" y="624.205" width="541.215" height="77.867" filterUnits="userSpaceOnUse">
      <feOffset dy="3" input="SourceAlpha"/>
      <feGaussianBlur stdDeviation="3" result="blur-4"/>
      <feFlood flood-opacity="0.161"/>
      <feComposite operator="in" in2="blur-4"/>
      <feComposite in="SourceGraphic"/>
    </filter>
    <clipPath id="clip-Livskompasset">
      <rect width="1557" height="1263"/>
    </clipPath>
    <clipPath id="clip-Balance">
      <rect width="1166" height="1094"/>
    </clipPath>
    
    <clipPath id="clip-1">
      <rect width="1166" height="1094"/>
    </clipPath>
    <clipPath id="clip-Illustration_-_Min_fysiske_energi_-_Min_fysiske_aktivitet">
      <rect width="545" height="513"/>
    </clipPath>
    <clipPath id="clip-2">
      <rect id="Rectangle_490" data-name="Rectangle 490" width="767.113" height="978.476" fill="none"/>
    </clipPath>
    <clipPath id="clip-path-4">
      <rect id="rect-1" data-name="Rectangle 486" width="452.69" height="22.938" fill="none"/>
    </clipPath>
    <clipPath id="clip-path-6">
      <rect id="Rectangle_449" data-name="Rectangle 449" width="154.566" height="155.848" fill="none"/>
    </clipPath>
    <clipPath id="clip-path-9">
      <rect id="Rectangle_448-2" data-name="Rectangle 448" width="139.976" height="157.795" fill="none"/>
    </clipPath>
  </defs>
  <g id="Group_1216" data-name="Group 1216" transform="matrix(1, 0, 0, 1, 188.800995, -8122.64502)">
    <g id="Group_1209" data-name="Group 1209" transform="translate(53.113 -929)">
      <path id="Path_1764" data-name="Path 1764" d="M-976.144,187.328" transform="translate(3011.323 9745.573)" fill="none" stroke="#323f51" stroke-width="1"/>
      <path id="Path_1765" data-name="Path 1765" d="M-982.584,262.108c.825,67.193,1.644,112.427,2.469,179.625a342.6,342.6,0,0,0,67.853,1.291" transform="translate(2980.024 10055.532)" fill="none" stroke="#323f51" stroke-linecap="round" stroke-linejoin="round" style="stroke-width: 6px;"/>
      <path id="Path_1767" data-name="Path 1767" d="M-703.112,152.034c52.563,29.635,84.427,86.43,107.008,143.07a794.338,794.338,0,0,1,54.754,339.5c-1.316,22.231-3.739,45.023-13.792,64.81-12.76,25.118-36.509,42.677-61.4,55.272-47.245,23.9-100.512,32.948-153.207,35.829-44.8,2.449-90.807.458-132.609-16.1s-79.11-49.628-92.159-93.272c-7.726-25.833-6.649-53.42-5.5-80.395q1.693-39.83,3.39-79.659c3.025-71.1,6.279-143.451,29.77-210.49s70.717-129.194,136.894-152.342c21.068-7.373,46.745-24.773,68.729-21.089,47.747,8,25.075,2.886,58.123,14.864" transform="translate(2700.033 9535.577)" stroke="#323f51" stroke-miterlimit="10" style="stroke-width: 6px; fill: rgb(199, 95, 81);"/>
      <path id="Path_1771" data-name="Path 1771" d="M-837.913,192.036c37.6,11.01,66.69,56.671,66.727,104.73.008,11.381-1.5,22.947-5.641,33.1-7.695,18.846-23.243,30.376-38.112,40.609-52.954,36.421-143.627-188.5-199.462-159.5" transform="translate(2978.708 9752.894)" fill="none" stroke="#323f51" stroke-linecap="round" stroke-linejoin="round" style="stroke-width: 6px;"/>
      <path id="Path_1769" data-name="Path 1769" d="M466.3,124.343c11.788,2.507,20.613,8.884,29.395,17.065" transform="translate(1498.272 9685.205)" fill="none" stroke="#353f4f" stroke-linecap="round" stroke-miterlimit="10" stroke-width="5"/>
      <path id="Path_1772" data-name="Path 1772" d="M15.988,3.753a48.36,48.36,0,0,0-13.876,9.3C.06,14.967-.87,17.106,1.145,19.389c1.932,2.186,3.925,1.142,5.764-.537C21.275,5.74,37.025,4.964,53.744,12.963c.833.4,1.687.754,2.506,1.174,2.063,1.056,4.047,1.114,5.273-1.159,1.271-2.36.535-4.38-1.807-5.6C45.7.107,31.263-2.628,15.988,3.753Z" transform="matrix(-0.921, 0.391, -0.391, -0.921, 1995.906, 9933.435)" fill="#323f51"/>
      <path id="Path_1773" data-name="Path 1773" d="M1025.769,500.6c-9.7-.113-16.1,6.181-15.93,15.662.173,9.553,5.91,15.829,14.762,16.164,9.518.362,17.52-7.031,17.427-16.1C1041.93,506.935,1035.5,500.718,1025.769,500.6Z" transform="translate(929.422 9342.049)" fill="#323f51"/>
      <path id="Path_1774" data-name="Path 1774" d="M 1948.295 9847.55 C 1944.145 9847.5 1941.403 9850.198 1941.474 9854.256 C 1941.55 9858.345 1944.007 9861.034 1947.792 9861.174 C 1951.784 9861.412 1955.174 9858.282 1955.253 9854.283 C 1955.215 9850.262 1952.463 9847.6 1948.295 9847.55 Z" fill="#fff" opacity="0.9"/>
      <path id="Path_1766" data-name="Path 1766" d="M-874.248,262.451c3.086,64.453,3.177,107.743.268,172.2a159.254,159.254,0,0,0-68.217.983" transform="translate(2732.312 10064.023)" fill="none" stroke="#323f51" stroke-linecap="round" stroke-linejoin="round" style="stroke-width: 6px;"/>
      <path id="Path_1768" data-name="Path 1768" d="M507.083,124.343c-11.788,2.507-20.623,8.884-29.394,17.065" transform="translate(1371.05 9655.077)" fill="none" stroke="#353f4f" stroke-linecap="round" stroke-miterlimit="10" stroke-width="5"/>
      <path id="Path_1770" data-name="Path 1770" d="M-841.237,191.7c-37.162,23.662-61.569,51.624-81.164,91.513-10.033,20.42-17.172,44.864-8.01,65.7,6.365,14.473,19.641,24.655,33.621,31.667,51.748,25.977,114.5,15.666,168.764,35.629" transform="translate(2548.275 9762.99)" fill="none" stroke="#323f51" stroke-linecap="round" stroke-linejoin="round" style="stroke-width: 6px;"/>
      <path id="Path_1775" data-name="Path 1775" d="M1052.8,500.4c-8.825-.023-15.777,7.456-15.7,16.88.076,9.8,6.395,16.167,15.969,16.108,9.9-.059,15.456-5.961,15.389-16.348C1068.395,507.358,1061.871,500.42,1052.8,500.4Z" transform="translate(827.625 9341.731)" fill="#323f51"/>
      <path id="Path_1776" data-name="Path 1776" d="M 1874.29 9845.901 C 1870.112 9845.851 1867.355 9848.564 1867.43 9852.644 C 1867.507 9856.756 1869.974 9859.46 1873.785 9859.601 C 1877.798 9859.836 1881.202 9856.691 1881.285 9852.672 C 1881.246 9848.628 1878.481 9845.951 1874.29 9845.901 Z" fill="#fff"/>
      <path id="path-5" data-name="Path 1770" fill="none" stroke="#323f51" stroke-linecap="round" stroke-linejoin="round" d="M -698.768 10036.872 C -737.533 10060.534 -741.86 10284.334 -721.641 10324.223" style="stroke-width: 6px;"/>
      <path id="path-6" data-name="Path 1770" fill="none" stroke="#323f51" stroke-linecap="round" stroke-linejoin="round" d="M -691.79 9930.411 C -662.36 9951.668 -688.88 9613.185 -723.22 9654.998" transform="matrix(1, 0, 0, 1, 238.136147, 335.176846)" style="stroke-width: 6px;"/>
    </g>
  </g>
  <g id="Group_1218" data-name="Group 1218" transform="matrix(1, 0, 0, 1, -2584.297607, 107.163399)">
    <g id="Group_775" data-name="Group 775" transform="translate(1605.99 -3345)"/>
    <g id="Group_1200" data-name="Group 1200" transform="matrix(1, 0, 0, 1, 2380.012695, 646.942383)">
      <path id="Path_368" data-name="Path 368" d="M106.226,108.8c10.628,41.481,2.4,64.137-2.583,106.667a828.423,828.423,0,0,0-1.794,175.914,151.541,151.541,0,0,0-50.453-.694" transform="translate(95.578 318.78)" fill="none" stroke="#353f4f" stroke-linecap="round" stroke-linejoin="round" stroke-width="6"/>
      <path id="Path_369" data-name="Path 369" d="M91.785,108.729C94.208,212.136,75.929,294.257,78.569,397.66q27.957-2.555,56.04-3.3" transform="translate(185.317 318.53)" fill="none" stroke="#353f4f" stroke-linecap="round" stroke-linejoin="round" stroke-width="6"/>
      <path id="Path_370" data-name="Path 370" d="M80.769,13.2,66.43,53.516H90.418L76.687,92.92" transform="translate(145.711)" fill="none" stroke="#930031" stroke-linecap="round" stroke-width="6"/>
      <path id="Path_371" data-name="Path 371" d="M52.483,14.609,52.618,57.4l22.576-8.11.4,41.726" transform="translate(99.205 4.692)" fill="none" stroke="#930031" stroke-linecap="round" stroke-width="6"/>
      <path id="Path_372" data-name="Path 372" d="M116.594,15.262,87.125,46.285l21.923,9.738L80.5,86.46" transform="translate(192.642 6.868)" fill="none" stroke="#930031" stroke-linecap="round" stroke-width="6"/>
      <path id="Path_373" data-name="Path 373" d="M45.7,205.163c8.695,34.078,27.58,64.692,48.754,92.771,16.935,22.448,37.71,44.987,65.359,50.093,24.507,4.521,49.578-5.873,69.78-20.467,49.478-35.733,77.743-100,67.4-160.145C285.417,100.1,215.572,33.7,143.936,39.24,69.158,45.018,29.411,141.334,45.7,205.163Z" transform="translate(64.521 85.742)" fill="#7ec8d6" stroke="#353f4f" stroke-miterlimit="10" stroke-width="6"/>
      <g id="Group_180" data-name="Group 180" transform="translate(261.593 217.445)">
        <path id="Path_374" data-name="Path 374" d="M77.839,70.747a77.055,77.055,0,0,0,28.282-10.424" transform="translate(-77.839 -60.323)" fill="none" stroke="#353f4f" stroke-linecap="round" stroke-linejoin="round" stroke-width="6"/>
        <path id="Path_375" data-name="Path 375" d="M78.28,65.038a65.6,65.6,0,0,0,20.68.88" transform="translate(-76.369 -44.601)" fill="none" stroke="#353f4f" stroke-linecap="round" stroke-linejoin="round" stroke-width="6"/>
      </g>
      <g id="Group_181" data-name="Group 181" transform="translate(175.441 217.445)">
        <path id="Path_376" data-name="Path 376" d="M86.241,70.747A77.062,77.062,0,0,1,57.963,60.323" transform="translate(-57.963 -60.323)" fill="none" stroke="#353f4f" stroke-linecap="round" stroke-linejoin="round" stroke-width="6"/>
        <path id="Path_377" data-name="Path 377" d="M79.959,65.038a65.624,65.624,0,0,1-20.684.88" transform="translate(-53.588 -44.601)" fill="none" stroke="#353f4f" stroke-linecap="round" stroke-linejoin="round" stroke-width="6"/>
      </g>
      <path id="Path_378" data-name="Path 378" d="M215.339,111.052s-88.458-73.877-162.334,0" transform="translate(100.946 216.791)" fill="none" stroke="#353f4f" stroke-linecap="round" stroke-linejoin="round" stroke-width="6"/>
      <path id="Path_379" data-name="Path 379" d="M150.026,210.062l28.746-11.114c10.1-3.905,20.45-7.962,28.473-15.236s13.316-18.6,10.433-29.037c-1.578-5.717-5.362-10.533-9.176-15.071A333.593,333.593,0,0,0,84.064,47.58" transform="translate(204.511 114.631)" fill="none" stroke="#353f4f" stroke-linecap="round" stroke-linejoin="round" stroke-width="6"/>
      <path id="Path_380" data-name="Path 380" d="M130.463,215.347c-18.608-2.731-37.376-5.5-55-12.054S41.2,186.016,30.84,170.321c-4.408-6.684-7.65-14.33-8.062-22.331-.477-9.154,2.8-18.2,7.7-25.946C44.047,100.64,68.558,89.262,91.73,79q33.146-14.674,66.287-29.349" transform="translate(0 121.546)" fill="none" stroke="#353f4f" stroke-linecap="round" stroke-linejoin="round" stroke-width="6"/>
    </g>
    <g id="Group_1213" data-name="Group 1213" transform="matrix(6.018536, 0, 0, 7.713048, 2219.256104, 1247.897705)" opacity="0.17" style="">
      <g id="Group_1155" data-name="Group 1155" clip-path="url(#clip-path)" style="" transform="matrix(1.273745, 0, 0, 1, 0, 0)">
        <path id="Path_1693" data-name="Path 1693" d="M382.569,703.45c0,6.3-84.936,11.4-189.709,11.4S3.148,709.749,3.148,703.45s84.935-11.4,189.712-11.4,189.709,5.107,189.709,11.4" transform="translate(-3.149 -692.048)"/>
      </g>
    </g>
  </g>
  <g id="Livskompasset" clip-path="url(#clip-Livskompasset)" transform="matrix(1.299808, 0, 0, 1.30019, 108.61351, -744.346558)" style="">
    <path id="Path_1970" data-name="Path 1970" d="M-18456-22982l293.992,291.992L-17844-23004l-136-92-252-36-224,111.992Z" transform="translate(18879 23321.418)" fill="#8c1b35"/>
    <path id="Path_1971" data-name="Path 1971" d="M-18438.293-22987.7l276.285,297.7L-17844-23004l-136-92-252-36-224,111.992Z" transform="translate(-21981.004 18781.41) rotate(90)" fill="#7ec8d6"/>
    <path id="Path_1972" data-name="Path 1972" d="M-18452.553-22993.959l290.545,303.951L-17844-23004l-136-92-252-36-224,111.992Z" transform="translate(-17440.996 -22062.676) rotate(180)" fill="#e79e17"/>
    <path id="Path_1973" data-name="Path 1973" d="M-18444.1-22996.977l282.088,306.969L-17844-23004l-136-92-252-36-224,111.992Z" transform="translate(23419.008 -17509.039) rotate(-90)" fill="#009cb2"/>
    <g id="Group_1497" data-name="Group 1497" transform="translate(-633.402 169.469)">
      <path id="Path_1953" data-name="Path 1953" d="M1658.339,117.714c-179.737-179.737-471.148-179.737-650.887,0s-179.738,471.148,0,650.886,471.149,179.737,650.887,0S1838.077,297.453,1658.339,117.714Zm-609.7,609.7c-156.994-156.994-156.994-411.529,0-568.522s411.529-156.994,568.523,0,156.992,411.528,0,568.522S1205.628,884.413,1048.636,727.419Z" transform="translate(19.788 22.317)" fill="#353f4f"/>
      <path id="Path_1954" data-name="Path 1954" d="M1623.382,130.443c-166.57-166.569-436.631-166.569-603.2,0s-166.569,436.633,0,603.2,436.631,166.57,603.2,0S1789.951,297.013,1623.382,130.443ZM1037.52,716.305c-156.992-156.994-156.992-411.528,0-568.522s411.529-156.994,568.522,0,156.993,411.528,0,568.522S1194.514,873.3,1037.52,716.305Z" transform="translate(30.902 33.431)" opacity="0.31"/>
      <path id="Path_1955" data-name="Path 1955" d="M1597.96,139.7c-156.992-156.994-411.528-156.994-568.522,0s-156.994,411.53,0,568.522,411.529,156.994,568.522,0S1754.953,296.695,1597.96,139.7Zm-549,549c-146.214-146.213-146.214-383.27,0-529.484s383.27-146.213,529.484,0,146.212,383.272,0,529.485S1195.17,834.917,1048.958,688.7Z" transform="translate(38.984 41.513)" fill="#11171c" opacity="0.08"/>
      <g id="Group_1494" data-name="Group 1494" transform="translate(1074.597 196.898)">
        <line id="Line_124" data-name="Line 124" x1="9.641" y2="35.652" transform="translate(340.03 3.273)" fill="none" stroke="#2a4b72" stroke-miterlimit="10" stroke-width="0.536"/>
        <line id="Line_125" data-name="Line 125" x2="9.477" y2="35.696" transform="translate(206.229)" fill="none" stroke="#2a4b72" stroke-miterlimit="10" stroke-width="0.536"/>
        <line id="Line_126" data-name="Line 126" x2="26.054" y2="26.175" transform="translate(79.615 70.289)" fill="none" stroke="#2a4b72" stroke-miterlimit="10" stroke-width="0.536"/>
        <line id="Line_127" data-name="Line 127" x2="35.652" y2="9.641" transform="translate(3.36 195.122)" fill="none" stroke="#2a4b72" stroke-miterlimit="10" stroke-width="0.536"/>
        <line id="Line_128" data-name="Line 128" y1="9.476" x2="35.696" transform="translate(0 336.265)" fill="none" stroke="#2a4b72" stroke-miterlimit="10" stroke-width="0.536"/>
        <line id="Line_129" data-name="Line 129" y1="26.055" x2="26.175" transform="translate(71.83 444.766)" fill="none" stroke="#2a4b72" stroke-miterlimit="10" stroke-width="0.536"/>
        <line id="Line_130" data-name="Line 130" y1="35.652" x2="9.641" transform="translate(202.468 511.96)" fill="none" stroke="#2a4b72" stroke-miterlimit="10" stroke-width="0.536"/>
        <line id="Line_131" data-name="Line 131" x1="9.477" y1="35.696" transform="translate(341.403 509.179)" fill="none" stroke="#2a4b72" stroke-miterlimit="10" stroke-width="0.536"/>
        <line id="Line_132" data-name="Line 132" x1="26.054" y1="26.175" transform="translate(450.029 442.417)" fill="none" stroke="#2a4b72" stroke-miterlimit="10" stroke-width="0.536"/>
        <line id="Line_133" data-name="Line 133" x1="35.652" y1="9.641" transform="translate(511.059 332.416)" fill="none" stroke="#2a4b72" stroke-miterlimit="10" stroke-width="0.536"/>
        <line id="Line_134" data-name="Line 134" x1="35.695" y2="9.476" transform="translate(508.823 198.491)" fill="none" stroke="#2a4b72" stroke-miterlimit="10" stroke-width="0.536"/>
      </g>
      <g id="Group_1495" data-name="Group 1495" transform="translate(1038.889 151.681)">
        <path id="Path_1956" data-name="Path 1956" d="M1559.417,669.679,1205.753,396.76,932.834,43.1,1286.5,316.015Z" transform="translate(-932.834 -43.096)" fill="#252c37"/>
        <path id="Path_1957" data-name="Path 1957" d="M1246.125,356.388,932.834,43.1,1246.125,284.86Z" transform="translate(-932.834 -43.096)" fill="#353f4f"/>
        <path id="Path_1958" data-name="Path 1958" d="M1180.86,291.122l313.292,313.292L1180.86,362.65Z" transform="translate(-867.568 22.17)" fill="#353f4f"/>
        <path id="Path_1959" data-name="Path 1959" d="M1252.387,356.388,1494.152,43.1,1180.86,284.86v71.528h71.528" transform="translate(-867.568 -43.096)" fill="#252c37"/>
        <path id="Path_1960" data-name="Path 1960" d="M1174.6,291.123,932.834,604.414,1246.125,362.65V291.122H1174.6" transform="translate(-932.834 22.17)" fill="#252c37"/>
        <path id="Path_1961" data-name="Path 1961" d="M1246.125,291.122,932.834,604.414,1174.6,291.122Z" transform="translate(-932.834 22.17)" fill="#353f4f"/>
        <path id="Path_1962" data-name="Path 1962" d="M1180.86,356.388,1494.152,43.1,1252.388,356.388Z" transform="translate(-867.568 -43.096)" fill="#353f4f"/>
      </g>
      <g id="Group_1496" data-name="Group 1496" transform="translate(832.401 -62.48)">
        <g transform="matrix(1, 0, 0, 1, -199, -106.99)" filter="url(#Path_1963)">
          <path id="Path_1963-2" data-name="Path 1963" d="M1455.672,313.508,1355.459,377.93,832.4,309.29l523.371-66.21Z" transform="translate(-633.4 319.7)" fill="#029cb2"/>
        </g>
        <path id="Path_1964" data-name="Path 1964" d="M1355.616,308.014,832.4,306.8l463.625-58.652Z" transform="translate(-832.402 215.201)" fill="#0191a6"/>
        <path id="Path_1965" data-name="Path 1965" d="M1183.163,288.282l523.214,1.215-463.625,58.652Z" transform="translate(-659.948 234.933)" fill="#353f4f"/>
        <path id="Path_1966" data-name="Path 1966" d="M1262.67,401.147,1204.018-62.48l-60.8,463.348,59.589,59.866,59.866-59.589" transform="translate(-679.589 62.48)" fill="#6a0c21"/>
        <path id="Path_1974" data-name="Path 1974" d="M1262.67,401.147,1204.018-62.48l-60.8,463.348,59.589,59.866,59.866-59.589" transform="translate(983.48 -679.588) rotate(90)" fill="#75b9c7"/>
        <g transform="matrix(1, 0, 0, 1, -199, -106.99)" filter="url(#Path_1967)">
          <path id="Path_1967-2" data-name="Path 1967" d="M1143.028,347.871,1201.68,811.5l60.8-463.348-59.589-59.866-59.866,59.589" transform="translate(-480.68 341.92)" fill="#e79e17"/>
        </g>
        <path id="Path_1968" data-name="Path 1968" d="M1202.895,288.282,1201.68,811.5l-58.652-463.625Z" transform="translate(-679.681 234.933)" fill="#d69317"/>
        <g transform="matrix(1, 0, 0, 1, -199, -106.99)" filter="url(#Path_1969)">
          <path id="Path_1969-2" data-name="Path 1969" d="M1183.163,460.735l1.215-523.215,58.651,463.626Z" transform="translate(-460.95 169.47)" fill="#9f1a39"/>
        </g>
        <g transform="matrix(1, 0, 0, 1, -199, -106.99)" filter="url(#Path_1975)">
          <path id="Path_1975-2" data-name="Path 1975" d="M1183.163,460.735l1.215-523.215,58.651,463.626Z" transform="translate(1182.48 -552.96) rotate(90)" fill="#7ec8d6"/>
        </g>
      </g>
      <g id="Group_1201" data-name="Group 1201" transform="translate(1248.938 359.52)">
        <path id="Nuance_A4_5a" data-name="Nuance A4 5a" d="M1212.635,217.476a103.94,103.94,0,1,1-103.94,103.94h0A103.941,103.941,0,0,1,1212.635,217.476Z" transform="translate(-1108.695 -217.476)" fill="#fff"/>
        <path id="Path_200" data-name="Path 200" d="M1198.643,272.818c.112,11.305,36.543,10.956,36.433-.353" transform="translate(-1069.923 -193.773)" fill="#fff" stroke="#394151" stroke-linecap="round" stroke-linejoin="round" stroke-width="6"/>
        <path id="Path_201" data-name="Path 201" d="M1157.7,272.818c.112,11.305,36.542,10.956,36.432-.353" transform="translate(-1087.57 -193.773)" fill="#fff" stroke="#394151" stroke-linecap="round" stroke-linejoin="round" stroke-width="6"/>
        <path id="Path_202" data-name="Path 202" d="M1163.619,309.48c13.813,10.887,29.157,8.4,41.728-.4" transform="translate(-1085.021 -177.992)" fill="#fff" stroke="#394151" stroke-linecap="round" stroke-linejoin="round" stroke-width="6"/>
      </g>
    </g>
  </g>
  <g id="g-1" clip-path="url(#clip-1)" transform="matrix(1, 0, 0, 1, 2767.169658, 46.856481)"/>
  <g transform="matrix(0.53566, 0, 0, 0.594146, -1968.140991, -119.341888)" style="">
    <path id="Path_485" data-name="Path 485" d="M 3699.607 85.316 L 3699.607 85.316 C 4025.854 85.316 4290.331 201.89 4290.331 345.692 C 4290.331 489.493 4189.89 559.725 3623.314 606.068 L 3623.314 606.068 C 3297.066 606.068 3032.59 345.692 3032.59 345.692 C 3032.59 345.692 3373.359 85.316 3699.607 85.316 Z" style="" fill="#fff"/>
    <g id="Balance" clip-path="url(#clip-Balance)" transform="matrix(1, 0, 0, 1, 3114.870361, -322.996033)">
      <path id="Path_486" data-name="Path 486" d="M1032.61,652.472c39.669-3.159,78.286-4.646,117.629,2.8,39.63,7.5,78.035,21.473,114.255,39.852,15.142,7.687,31.705,18.7,33.792,36.341,1.3,11.008-3.586,21.74-8.815,31.4-7.589,14.008-16.488,27.712-28.964,37.029-22.125,16.524-51.249,16.537-78.266,15.82-67.9-1.8-135.934-4.172-203.195-13.884-24.309-3.511-48.673-8.029-71.551-17.326-12.433-5.053-25.61-13.065-28.886-26.721-4.7-19.6,11.947-37.922,26.115-47.7,28.348-19.566,34.574-26.92,66.661-36.833,13.633-4.212,38.349-16.28,73.914-21.773" transform="translate(-216.503 -54.577)" fill="#840729"/>
      <path id="Path_490" data-name="Path 490" d="M849.633,633.624c40.726-6.914,80.532-12.2,121.981-9.476a479.055,479.055,0,0,1,89.187,14.689c21.786,5.672,56.549,11.038,71.851,28.4A66.8,66.8,0,0,1,1145.4,689.46a47.292,47.292,0,0,1,2.125,22.343c-1.262,8.2-6.624,15.344-12.932,21-31.187,27.973-73.318,30.366-113.805,33.414-70.433,5.3-141.058,10.109-211.618,8.182-25.5-.7-51.164-2.3-75.762-8.384-13.372-3.309-27.807-9.222-32.566-21.258-6.826-17.277,8.567-35.575,22.246-45.88,27.367-20.618,33.074-27.917,65.279-40.175,13.685-5.209,38.046-18.666,74.3-27.279" transform="translate(-620.173 -114.381)" fill="#557591"/>
      <path id="Path_488" data-name="Path 488" d="M 1364.412 783.755 C 1357.68 785.476 1324.273 782.208 1318.01 781.155 C 1267.91 772.705 1250.684 769.205 1200.7 760.087 C 1169.715 754.438 1107.823 746.141 1073.614 739.924 C 1084.737 752.38 1099.378 776.924 1107.401 788.285 C 1124.046 811.848 1155.555 820.42 1184.725 815.465 C 1194.645 813.78 1206.315 813.998 1210.837 825.574 C 1216.389 839.781 1217.63 855.157 1209.021 868.549 C 1206.162 872.996 1198.012 876.268 1192.262 876.301 C 1106.136 876.783 1020.007 876.65 933.881 876.578 C 930.835 876.671 927.798 876.197 924.926 875.178 C 913.326 870.506 908.151 853.092 912.415 832.943 C 914.945 820.989 922.39 814.808 934.869 815.226 C 936.184 815.131 937.504 815.141 938.817 815.255 C 970.542 821.618 998.294 822.355 1016.332 796.899 C 1025.619 783.799 1050.332 753.973 1063.055 739.93 C 1042.766 736.119 1004.632 725.164 986.432 721.83 C 915.347 708.83 843.383 702.448 772.332 689.266 C 767.446 688.36 765.938 691.274 761.257 689.266 L 761.257 681.35 C 766.871 679.433 772.904 675.078 778.032 675.968 C 854.274 689.184 930.402 703.058 1006.546 716.843 C 1115.827 736.63 1225.093 756.504 1334.346 776.463 C 1341.338 777.747 1347.865 781.563 1354.609 784.195 L 1364.412 783.755 Z M 1192.265 829.285 C 1164.822 807.912 957.044 827.933 933.884 825.574 C 910.724 823.215 929.037 868.549 929.037 868.549 C 929.037 868.549 1187.837 879.849 1196.414 864.126 C 1204.991 848.403 1196.414 860.454 1196.414 860.454 C 1196.414 860.454 1219.708 850.657 1192.266 829.284 L 1192.265 829.285 Z M 1116.61 814.523 L 1063.057 756.123 L 1009.8 814.523 L 1116.61 814.523 Z" transform="translate(-479.868 4.111)" fill="#27303e"/>
      <text style="white-space: pre; fill: rgb(51, 51, 51); font-family: &quot;Roboto Slab&quot;; font-size: 67.4px;" x="1305.907" y="610.781">Enter your text here.</text>
    </g>
  </g>
  <g id="Illustration_-_Min_fysiske_energi_-_Min_fysiske_aktivitet" data-name="Illustration - Min fysiske energi - Min fysiske aktivitet" clip-path="url(#clip-Illustration_-_Min_fysiske_energi_-_Min_fysiske_aktivitet)" transform="matrix(1, 0, 0, 1, 2472.56847, -355.336266)"/>
  <g id="Group_742" data-name="Group 742" transform="matrix(1, 0, 0, 1, 511.670929, -3094.62085)">
    <path id="Path_474" data-name="Path 474" d="M214,0h27.5c118.188,0,214,214,214,214s-95.811,214-214,214H214C95.81,428,0,332.187,0,214S95.81,0,214,0Z" transform="translate(835.446 2260.455) rotate(135)" fill="#fff"/>
    <g id="Group_681" data-name="Group 681" transform="translate(360.729 2101.486) rotate(-3)">
      <g id="Group_322" data-name="Group 322" transform="translate(0 0)">
        <g id="Group_256" data-name="Group 256" transform="translate(0 0)">
          <g id="Group_658" data-name="Group 658" transform="translate(0 0)">
            <path id="Path_419" data-name="Path 419" d="M86.908,0C62.714,4.1,5.443,1.188.5,2.748-9.255,20.014,126.91,7.423,132.488,48.929" transform="translate(62.569 302.71)" fill="none" stroke="#323f51" stroke-linecap="round" stroke-linejoin="round" stroke-width="7"/>
            <path id="Path_1048" data-name="Path 1048" d="M42.818,0c23.52,4.58,79.194,1.328,84,3.071C136.3,22.366-4.793,9.92.126,47.369" transform="translate(125.075 305.562)" fill="none" stroke="#323f51" stroke-linecap="round" stroke-linejoin="round" stroke-width="7"/>
            <path id="Path_421" data-name="Path 421" d="M.124,244.809c-.412,7.463.072,15.247,3.55,21.864,4.8,9.134,14.414,14.554,23.672,19.107,23.441,11.532,48.971,20.946,75.035,19.191s52.625-17.112,60.759-41.936c3.563-10.87,3.419-22.554,3.238-33.992l-1.514-96.656c-.646-41.087-1.471-92.59-37.08-120.462C103.162-7.348,81.541-3.035,66.556,23.235,50.431,51.5,47.371,88,38.968,118.954,27.711,160.406,2.518,201.558.124,244.809Z" transform="translate(76.001 0)" fill="none" stroke="#323f51" stroke-miterlimit="10" stroke-width="7"/>
            <path id="Path_422" data-name="Path 422" d="M28.979,86.839C17.448,76.93,9.877,65.221,3.8,48.519.684,39.968-1.531,29.734,1.312,21.006a25.73,25.73,0,0,1,10.43-13.26C27.8-3.131,29.849,8.362,46.687,0" transform="matrix(0.191, -0.982, 0.982, 0.191, 0, 199.338)" fill="none" stroke="#323f51" stroke-linecap="round" stroke-linejoin="round" stroke-width="7"/>
            <path id="Path_423" data-name="Path 423" d="M23.145,0C10.1,4.724.012,24.325,0,44.952A46.012,46.012,0,0,0,1.957,59.16c2.669,8.09,8.061,13.04,13.218,17.43,18.367,15.635,19.538-9.347,38.9,3.105" transform="translate(238.128 219.625) rotate(-81)" fill="none" stroke="#323f51" stroke-linecap="round" stroke-linejoin="round" stroke-width="7"/>
          </g>
        </g>
        <path id="Path_498" data-name="Path 498" d="M4.948,4.268a15.406,15.406,0,0,1-4.3-2.341C.008,1.444-.278.9.354.318.96-.24,1.579.022,2.148.446,6.6,3.755,11.5,3.928,16.724,1.87c.26-.1.527-.194.783-.3.645-.271,1.263-.289,1.64.286.391.6.159,1.112-.573,1.425C14.2,5.149,9.693,5.866,4.948,4.268Z" transform="matrix(-0.951, 0.309, -0.309, -0.951, 161.839, 69.905)" fill="#323f51"/>
        <path id="Path_499" data-name="Path 499" d="M4.948,4.268a15.406,15.406,0,0,1-4.3-2.341C.008,1.444-.278.9.354.318.96-.24,1.579.022,2.148.446,6.6,3.755,11.5,3.928,16.724,1.87c.26-.1.527-.194.783-.3.645-.271,1.263-.289,1.64.286.391.6.159,1.112-.573,1.425C14.2,5.149,9.693,5.866,4.948,4.268Z" transform="matrix(-0.966, -0.259, 0.259, -0.966, 214.221, 75.433)" fill="#323f51"/>
      </g>
      <path id="Path_604" data-name="Path 604" d="M12.55,5.478A9.855,9.855,0,0,0,8.1.5,2.839,2.839,0,0,0,6.412.011,2.065,2.065,0,0,0,4.774,1.532a4.036,4.036,0,0,0,.147,2.33,7.905,7.905,0,0,0,3.722,4.48c-2.36.076-8.045.978-8.6,3.89-.762,4,8.458,7.406,10.326,3.287" transform="matrix(0.891, -0.454, 0.454, 0.891, 166.153, 129.939)" fill="none" stroke="#323f51" stroke-linecap="round" stroke-miterlimit="10" stroke-width="5"/>
      <path id="Path_605" data-name="Path 605" d="M3.039,0C2.268,1.348,1.464,2.682.673,4.017A4.519,4.519,0,0,0,.828,9c1.634,2.258,6.881,4.025,8.59,4.5,5.114,1.43,5.269-3.665,6.636-6.05" transform="matrix(0.891, -0.454, 0.454, 0.891, 185.664, 99.856)" fill="none" stroke="#323f51" stroke-linecap="round" stroke-miterlimit="10" stroke-width="5"/>
      <path id="Path_606" data-name="Path 606" d="M3.039,0C2.267,1.349,1.464,2.682.673,4.017A4.515,4.515,0,0,0,.83,9c1.634,2.258,6.879,4.025,8.588,4.5,5.114,1.43,5.271-3.665,6.636-6.05" transform="matrix(0.891, -0.454, 0.454, 0.891, 152.595, 98.238)" fill="none" stroke="#323f51" stroke-linecap="round" stroke-miterlimit="10" stroke-width="5"/>
      <path id="Path_611" data-name="Path 611" d="M23.69,43.676l2.689-2.4C18.971,44.087,12.94,43.17,8.8,36.97c-5.721-8.574.874-22.056,15.129-19.7l-6.791-2.612a11.9,11.9,0,0,1,13.4-9.718A11.859,11.859,0,0,1,41.016,17.249l-6.579.558.159,3.777c2.39-.248,4.633-.466,6.874-.718,6.755-.76,13.511-1.544,20.267-2.3,1.492-.167,3.042-.218,1.917-2.634L45.408,17.018C43.99,13.2,43.214,9.373,41.267,6.277,37.894.916,32.436-.824,26.332.349,20.027,1.56,16.054,5.622,14.621,11.843c-.5,2.152-1.124,3.239-3.455,3.856A15.212,15.212,0,0,0,.387,33.854,15.385,15.385,0,0,0,17.661,45.673c1.637-.241,2.885-.6,4.234,1.179,5.232,6.9,13.687,8.4,21.074,4.058,6.356-3.741,8.895-12.123,5.965-19.676-.154-.4-.249-.818-.459-1.518,4.922-1.955,9.8-3.823,14.608-5.867.89-.378,1.477-1.47,2.2-2.232L64.5,20.7c-9.193,3.13-18.388,6.259-27.89,9.493l1.392,3.533c2.256-.8,4.283-1.513,6.284-2.219,3.038,5.58,1.034,12.081-4.707,15.674A11.858,11.858,0,0,1,23.69,43.676Z" transform="matrix(0.996, 0.087, -0.087, 0.996, 90.616, 111.833)" fill="#6c85a0"/>
    </g>
  </g>
  <g id="Group_743" data-name="Group 743" transform="matrix(1, 0, 0, 1, 531.722717, -2269.493652)">
    <path id="Path_917" data-name="Path 917" d="M 503.644 3109.25 L 526.162 3109.25 C 622.947 3109.25 729.393 3256.078 701.672 3354.632 C 673.95 3453.186 622.947 3476.181 526.161 3476.181 L 503.644 3476.181 C 406.861 3476.181 328.401 3394.041 328.401 3292.715 C 328.401 3191.39 406.86 3109.25 503.644 3109.25 Z" fill="#fff" transform="matrix(-0.965886, 0.258969, -0.258969, -0.965886, 1869.606351, 6339.145112)"/>
    <g id="Group_83" data-name="Group 83" transform="matrix(1.514715, 0, 0, 1.403773, 376.503326, 3164.521729)" style="">
      <path id="Path_187" data-name="Path 187" d="M3400.461,5298.431c-5.085-6.525-14.64-8.838-21.587-12.481-2.668-1.4-5.449-2.674-8.1-4.138,2.529-.493,2.477-4.571-.27-4.36-1.889.148-3.774.183-5.66.239a59.575,59.575,0,0,1-6.839-7.67c2.764-.278,2.774-4.638-.055-4.419-1.165.09-2.329.09-3.492.145-2.261-2.494-4.442-5.01-6.573-7.547.1-.007.2,0,.3-.014,2.826-.219,2.851-4.656,0-4.436-1.265.1-2.527.1-3.79.162q-2.955-3.708-5.726-7.569c.063,0,.127,0,.19-.008,2.828-.219,2.851-4.656,0-4.435-1.048.08-2.094.078-3.141.131-1-1.491-2.015-2.956-2.969-4.5-.543-.875-1.091-1.926-1.646-3.032.107-.009.215-.005.323-.015,2.829-.216,2.851-4.656,0-4.436-.815.064-1.631.057-2.447.1-2.426-4.975-5.275-10.206-9.346-11.962a8.569,8.569,0,0,0-1.776-.507c-.707-2.213-1.554-4.464-2.448-6.574a5.4,5.4,0,0,0-1.669-2.723c-2.769-1.951-8.511-1.4-11.554-.733-8.923,1.944-10.4,9.913-10.86,17.838h0a15.728,15.728,0,0,1-7.532.38c-6.536-1.451-14.842-7.215-18.348-12.722-3.186-5-1.208-13-6.375-16.527a7.618,7.618,0,0,0-1.723-.854c4.307-5.986,1.906-15.47-6.7-16.363-3.39-.348-6.6,1.823-6.5,5.509.059,2.187,1.713,3.678,2.719,5.438a7.342,7.342,0,0,1-1.337,8.891c-.016.014-.018.032-.034.047-10.775,8.83-28.921,19.253-26.359,35.612-10.113,4.284-9.655,20.716-3.66,28.165,10.974,13.63,28.673,20.646,44.11,27.675,7.917,3.6,15.906,7.242,23.229,11.978,9.518,6.155,17,14.512,25.779,21.571,13.672,10.993,24.875,12.051,41.83,12.249,9.8.114,19.623.132,29.407-.588,6.832-.5,12.864-.674,18.175-5.394C3407.467,5322.144,3408.325,5308.526,3400.461,5298.431Zm.839,15.662c-11.982,7.407-30.622,6.146-44.138,4.783a66.626,66.626,0,0,1-18.224-4.569c2.859-8.672,10.651-14.4,18.224-13.5,3.617.431,9.97,2.492,13.612,1.911,6.089-.976,13.16-3.408,16.286-8.646a29.186,29.186,0,0,1,6.076,3.76A23.649,23.649,0,0,1,3401.3,5314.093Zm-74.88-79.611c-3.1.039-7.909-.728-11.012-.925-2.85-.181-3.849.858-1.009,1.042,4.013.254,8.016.239,12.021.1,1.492,2.6,5.018,9.331,6.328,11.641-2.913.024-7.416.188-10.332,0-2.85-.181-3.424-.067-.584.114,3.844.246,7.682.239,11.52.117,1.707,2.542,3.449,5.059,5.291,7.514-.322,0,4.044,1.75,3.432,1.968a51.58,51.58,0,0,1-10.971,1.645c-2.85-.181-2.785.427.054.609,3.643.231,7.28.241,10.917.144,2,2.526,7.76,9.25,9.848,11.707-2.424-.009-8.572-1.357-11-1.512-2.852-.184-2.839,1.331,0,1.512,3.669.235,7.334.242,11,.141,2.19,2.5,7.557,7.372,9.776,9.825-1.689-.038-6.529.108-8.22,0-2.851-.182-2.84,1.707,0,1.887,3.281.21,6.557.248,9.831.19a38.361,38.361,0,0,0,3.923,2.581c-14.424,8.521-27.815-9.947-36.009-19.728-10.447-12.47-18.856-26.289-26.653-40.564,2.908-1.284,5.812-2.257,8.127-2.018C3317.32,5222.946,3323.528,5230.362,3326.419,5234.481Zm-25.866-23.374c1.909-.531,10.325-1.137,12.142-.12,1.174.659-.157,4.543.534,6.677-4.058.615-8.3,2.508-11.336,3.7-1.954.769-3.971,1.706-6.03,2.554C3296.212,5218.843,3294.869,5212.69,3300.554,5211.107Zm-41.211-.12c1.466,4.077,5.376,5.924,8.68,8.711,7.736,6.53,16.961,12.988,26.673,9.435,1.6-.583,3.65-1.646,5.858-2.754,1.029,1.889,2.135,3.688,3.2,5.539-10.74,4.3-20.428,5.671-31.729,1.639-.417-.149.672,1.642,0,1.374-12.811-5.091-21.156-18.5-23.91-32.1.583-.459,1.15-.914,1.673-1.36C3255.994,5196.227,3257.771,5206.624,3259.342,5210.988Zm-7.265-26.56a5.843,5.843,0,0,1,.468,10.07,2.235,2.235,0,0,0-.318.336,10.149,10.149,0,0,0-.8-5.437c-.57-1.2-1.63-2.136-2.175-3.327C3248.168,5183.7,3250.292,5183.494,3252.078,5184.428Zm-7.816,21.3c6.9,29.362,32.7,37.644,60.307,26.193,8.845,14.952,20.095,32.745,31.514,46.07,8.781,10.247,23.548,17.462,35.486,9.132.608.312,1.2.619,1.829.939,2.745,1.4,6.191,2.717,9.583,4.158-3.6,5.746-8.812,8.9-15.863,8.592-4.39-.192-8.549-1.524-12.983-1.063-7.258.753-16.516,5.515-19.27,12.752a114.972,114.972,0,0,1-23.989-15.716c-.284-.234-.547-.483-.827-.717a2.242,2.242,0,0,0,.791-.974c4.313-10.5-.493-23.051-8.923-30.093-9.965-8.326-21.77-8.866-33.894-6.155a2.109,2.109,0,0,0-.9.437c-14.06-8.818-28.782-16.743-43.489-24.35C3220.978,5222.011,3234.295,5212.985,3244.262,5205.725Zm62.5,87.492c-11.364-10.191-20.962-21.853-33.931-30.359-.176-.117-.361-.223-.54-.339,8.827-1.541,17.164-.968,24.946,4.469C3305.375,5272.67,3310.269,5283.632,3306.765,5293.216Zm86.37,35.872c-7.016,5.553-14.057,4.687-22.631,4.961-.371.012-1.073-.03-1.728,0-12.85.584-30.032,2.241-42.356-2.039-14.683-5.1-23.729-20.261-35.81-29.283-12.363-9.23-26.9-14.7-40.726-21.275-7.669-3.644-15.2-7.61-21.939-12.814-3.75-2.9-8.819-6.719-11.067-10.948-2.631-4.95-1.631-16.511,4.68-18.848,18.241,9.416,37.145,19.023,53.782,31.08.322.233-.528-3.327,0-2.935,16.246,12.057,29.722,32.348,47.074,43.717,12.941,8.479,26.138,12.359,41.575,13.069,11.509.531,25.733,1,36.607-4.218C3399.776,5322.143,3395.611,5327.127,3393.135,5329.088Z" transform="translate(-3211.199 -5179.368)" fill="#323f51" stroke="#323f51" stroke-miterlimit="10" stroke-width="3"/>
      <path id="Path_188" data-name="Path 188" d="M3231.3,5242.669c-4.065-1.712-10.31-6.232-10.536-11.32-.095-2.137-3.307-2.15-3.211,0,.3,6.792,7.383,12.213,12.892,14.536C3232.365,5246.691,3233.2,5243.468,3231.3,5242.669Z" transform="translate(-3206.985 -5160.835)" fill="#323f51" stroke="#323f51" stroke-miterlimit="10" stroke-width="3"/>
      <path id="Path_189" data-name="Path 189" d="M3235.7,5245.468c-2.853,0-2.859,4.436,0,4.436S3238.559,5245.468,3235.7,5245.468Z" transform="translate(-3204.416 -5159.36)" fill="#323f51" stroke="#323f51" stroke-miterlimit="10" stroke-width="3"/>
    </g>
    <path id="path-4" data-name="Path 917" d="M 1403.203 2169.837 L 1425.721 2169.837 C 1522.504 2169.837 1628.95 2316.665 1601.229 2415.219 C 1573.507 2513.772 1522.504 2536.767 1425.72 2536.767 L 1403.203 2536.767 C 1306.42 2536.767 1227.96 2454.627 1227.96 2353.302 C 1227.96 2251.977 1306.419 2169.837 1403.203 2169.837 Z" fill="#fff" transform="matrix(-0.965886, 0.258969, -0.258969, -0.965886, 3394.755736, 4259.408198)"/>
    <g id="Group_1192" data-name="Group 1192" transform="matrix(1, 0, 0, 1, 111.145357, 2774.776183)">
      <g id="Group_1172" data-name="Group 1172" transform="translate(23905 -3962.757)">
        <g id="Group_1164" data-name="Group 1164" transform="matrix(1, 0, 0, 1, -25123.943359, 3962.220459)">
          <g id="Group_1163" data-name="Group 1163" clip-path="url(#clip-2)">
            <g id="Group_1162" data-name="Group 1162">
              <g id="Group_1161" data-name="Group 1161" clip-path="url(#clip-2)">
                <path id="Path_1684" data-name="Path 1684" d="M229.644,494.949C224.938,595.415,214.55,668,200.319,768.228c43.813.333,56.9-2.252,99.636-9.618" transform="translate(67.529 166.851)" fill="none" stroke="#323f51" stroke-linecap="round" stroke-linejoin="round" stroke-width="4"/>
                <path id="Path_1685" data-name="Path 1685" d="M200.668,500.231C177.5,602.085,169.529,669.422,180.539,769.464A359.718,359.718,0,0,0,97.459,762" transform="translate(32.854 168.631)" fill="none" stroke="#323f51" stroke-linecap="round" stroke-linejoin="round" stroke-width="4"/>
                <path id="Path_1686" data-name="Path 1686" d="M103.621,579.09c4.4,12.022,10.423,23.942,20.369,32,13.729,11.126,32.522,13.153,50.17,14.058,44.679,2.293,91.215-.156,131.038-20.541S376.426,542.1,372.44,497.54c-1.744-19.511-9.877-37.8-17.886-55.674L286.809,290.81c-28.8-64.209-64.923-144.688-139.8-164.463-51.77-13.671-82.873,7.731-88.688,59.2-6.26,55.372,13.609,114.868,21.312,169.263,10.321,72.828-1.49,154.615,23.986,224.284" transform="translate(19.256 41.232)" style="fill: rgb(227, 190, 69);"/>
                <path id="Path_1687" data-name="Path 1687" d="M103.621,579.09c4.4,12.022,10.423,23.942,20.369,32,13.729,11.126,32.522,13.153,50.17,14.058,44.679,2.293,91.215-.156,131.038-20.541S376.426,542.1,372.44,497.54c-1.744-19.511-9.877-37.8-17.886-55.674L286.809,290.81c-28.8-64.209-64.923-144.688-139.8-164.463-51.77-13.671-82.873,7.731-88.688,59.2-6.26,55.372,13.609,114.868,21.312,169.263C89.956,427.635,78.145,509.421,103.621,579.09Z" transform="translate(19.256 41.232)" fill="none" stroke="#323f51" stroke-miterlimit="10" stroke-width="4.503"/>
                <path id="Path_1689" data-name="Path 1689" d="M180.715,199.7a26.412,26.412,0,0,1,7.872,2.912c1.2.663,1.813,1.512.893,2.654-.9,1.1-2.007.8-3.081.226-8.356-4.517-16.708-3.6-25.055,1.166-.421.239-.844.46-1.254.7-1.026.619-2.07.8-2.851-.082-.809-.917-.542-1.848.622-2.557,6.962-4.247,14.417-6.571,22.854-5.025" transform="translate(52.849 67.16)" fill="#323f51"/>
                <path id="Path_1690" data-name="Path 1690" d="M170.379,231.758a13.788,13.788,0,0,1,18.005,7.488c.045.112.09.225.134.337,3.229,7.679.348,14.811-7.271,18.032-7.886,3.333-14.279.619-17.713-7.517-3.2-7.585-.353-15.231,6.845-18.34" transform="translate(54.688 77.774)" fill="#323f51"/>
                <g id="Group_1157" data-name="Group 1157" transform="translate(4.21 925.342)" opacity="0.17">
                  <g id="Group_1156" data-name="Group 1156">
                    <g id="g-2" data-name="Group 1155" clip-path="url(#clip-path-4)">
                      <path id="path-1" data-name="Path 1693" d="M455.837,703.516c0,6.335-101.338,11.47-226.343,11.47S3.148,709.851,3.148,703.516s101.337-11.467,226.347-11.467,226.343,5.136,226.343,11.467" transform="translate(-3.149 -692.048)"/>
                    </g>
                  </g>
                </g>
                <path id="Path_1704" data-name="Path 1704" d="M160.488,288.017c4.673-1.7,10.087,1.413,12.093,6.94s-.158,11.384-4.83,13.081-10.087-1.413-12.093-6.941.158-11.383,4.83-13.08" transform="translate(52.221 96.936)" fill="#323f51"/>
                <path id="path-2" data-name="Path 1690" d="M170.379,231.758a13.788,13.788,0,0,1,18.005,7.488c.045.112.09.225.134.337,3.229,7.679.348,14.811-7.271,18.032-7.886,3.333-14.279.619-17.713-7.517-3.2-7.585-.353-15.231,6.845-18.34" transform="matrix(1, 0, 0, 1, -14.597563, 109.47025)" fill="#323f51"/>
                <path id="path-3" data-name="Path 1691" d="M 163.235 344.514 C 165.854 343.072 169.147 344.026 170.59 346.645 C 172.126 349.506 171.25 353.066 168.562 354.888 C 168.455 354.943 168.345 354.995 168.234 355.043 C 165.241 356.571 161.576 355.384 160.047 352.392 C 160.014 352.325 159.98 352.258 159.947 352.192 C 158.648 349.364 159.888 346.019 162.716 344.72 C 162.884 344.644 163.057 344.574 163.232 344.514" fill="#fff"/>
                <path id="path-9" data-name="Path 1691" d="M 163.235 344.514 C 165.854 343.072 169.147 344.026 170.59 346.645 C 172.126 349.506 171.25 353.066 168.562 354.888 C 168.455 354.943 168.345 354.995 168.234 355.043 C 165.241 356.571 161.576 355.384 160.047 352.392 C 160.014 352.325 159.98 352.258 159.947 352.192 C 158.648 349.364 159.888 346.019 162.716 344.72 C 162.884 344.644 163.057 344.574 163.232 344.514" fill="#fff" transform="matrix(1, 0, 0, 1, 67.728829, -35.175466)"/>
                <path id="path-10" data-name="Path 1689" d="M 135.564 306.366 C 138.326 306.91 140.984 307.893 143.436 309.278 C 144.636 309.941 145.249 310.79 144.329 311.932 C 143.429 313.032 142.322 312.732 141.248 312.158 C 132.892 307.641 124.54 308.558 116.193 313.324 C 115.772 313.563 115.349 313.784 114.939 314.024 C 113.913 314.643 112.869 314.824 112.088 313.942 C 111.279 313.025 111.546 312.094 112.71 311.385 C 119.672 307.138 127.127 304.814 135.564 306.36" fill="#323f51" transform="matrix(0.637643, -0.770332, 0.770332, 0.637643, -192.514003, 211.162715)"/>
              </g>
            </g>
          </g>
        </g>
        <g id="Group_1169" data-name="Group 1169" transform="matrix(1.338828, 0, 0, 1.29154, -22774.875, 3360.680176)" style="">
          <g id="Group_1095" data-name="Group 1095" transform="translate(0 0)" clip-path="url(#clip-path-6)">
            <path id="Path_1627" data-name="Path 1627" d="M113.98,155.686c2.663-1.523-3.406-19.142-3.406-19.142s47.218-18.721,43.815-68.487S93.138-17.446,41.667,8.929s-50.055,88.1-23.819,115.12c28.5,29.352,74.438,21,74.438,21s18.719,12.339,21.7,10.636" transform="translate(0 0.002)" fill="#f297bc"/>
            <path id="Path_1628" data-name="Path 1628" d="M24,28.5s-4.682-9.571-10.212-4.892S20.768,42.549,25.7,42.329c4.68-.212,15.527-16.8,9.571-21.057C28.913,16.732,24,28.5,24,28.5" transform="translate(20.858 34.024)" fill="#ab003d"/>
            <path id="Path_1629" data-name="Path 1629" d="M45.768,27.293s-4.68-9.571-10.212-4.892,6.983,18.936,11.912,18.716c4.68-.212,15.318-15.739,9.359-19.993-6.353-4.54-11.06,6.168-11.06,6.168" transform="translate(57.471 33.64)" fill="#ab003d"/>
            <path id="Path_1630" data-name="Path 1630" d="M24.213,27.883c.005.038.276.461.855,1.341a23.234,23.234,0,0,0,2.652,3.245,16.8,16.8,0,0,0,4.473,3.309,13.551,13.551,0,0,0,5.956,1.368l.4.016.2.008.1.005H38.9l.024,0-.172.013h.016l.944-.094c.306-.038.652-.056.92-.1l.619-.172a10.353,10.353,0,0,0,2.666-1.016,15.8,15.8,0,0,0,2.365-1.62A24.353,24.353,0,0,0,48.2,32.275a24.057,24.057,0,0,0,2.51-3.4c.512-.872.807-1.368.807-1.368l.1-.166a1.412,1.412,0,0,1,2.6,1.016s-.038.182-.113.52a13.2,13.2,0,0,1-.37,1.354,21.76,21.76,0,0,1-2.089,4.548,19.213,19.213,0,0,1-2.076,2.757,16.413,16.413,0,0,1-3.038,2.58,14.291,14.291,0,0,1-4.063,1.834l-1.2.295c-.351.062-.636.083-.96.126l-.941.115-.249.019h-.206l-.276,0-.55-.005a16.637,16.637,0,0,1-4.371-.587,15.273,15.273,0,0,1-3.964-1.673,17.017,17.017,0,0,1-5.374-5.055,19.724,19.724,0,0,1-2.3-4.489,12.833,12.833,0,0,1-.416-1.36c-.075-.33-.115-.5-.115-.5l-.1-.424a1.406,1.406,0,0,1,2.741-.633c.008.035.016.075.021.11" transform="translate(36.012 44.807)"/>
          </g>
        </g>
        <g id="Group_1165" data-name="Group 1165" transform="matrix(-1.446138, 0, 0, 1.389274, -22368.201172, 3536.07251)" style="">
          <g id="Group_1093-2" data-name="Group 1093" transform="translate(0 0)" clip-path="url(#clip-path-9)">
            <path id="Path_1621-2" data-name="Path 1621" d="M104.717,157.36c-.1,2.05-94.093-.311-103.75-73.087C-9.52,5.247,67.968-12.465,104.5,7.6c32.495,17.854,50.064,65.624,20,105.427C110.719,131.278,86.433,136.957,88.224,141c2.477,5.579,16.624,13.821,16.493,16.365" transform="translate(0 0.001)" fill="#f3d643"/>
            <path id="Path_1622" data-name="Path 1622" d="M24.763,29.165a3.308,3.308,0,1,1-3.375-3.24,3.305,3.305,0,0,1,3.375,3.24" transform="translate(24.956 35.652)"/>
            <path id="Path_1623" data-name="Path 1623" d="M46.12,28.728a3.309,3.309,0,1,1-3.373-3.24,3.3,3.3,0,0,1,3.373,3.24" transform="translate(54.322 35.051)"/>
            <path id="Path_1624" data-name="Path 1624" d="M25.262,30.934s.062.178.173.432L26,32.591a21.644,21.644,0,0,0,2.551,4.031,20.093,20.093,0,0,0,2.131,2.209,15.313,15.313,0,0,0,2.753,1.838,13.222,13.222,0,0,0,3.3,1.164,15.788,15.788,0,0,0,3.6.371c.7-.036,1.482-.021,2.1-.1l1.67-.295c.565-.192,1.142-.337,1.7-.508l1.572-.722a15.337,15.337,0,0,0,2.689-1.922,17.275,17.275,0,0,0,2.057-2.273,20.731,20.731,0,0,0,2.408-4.116c.473-1.074.679-1.7.667-1.665a1.253,1.253,0,0,1,2.47.428l-.069.591a14.491,14.491,0,0,1-.28,1.551,20.448,20.448,0,0,1-2.033,5.254,17.231,17.231,0,0,1-2.264,3.147,16.876,16.876,0,0,1-3.392,2.853c-.67.39-1.382.734-2.095,1.1-.746.278-1.506.551-2.285.8-.822.178-1.677.323-2.525.466-.8.1-1.451.09-2.185.14a18.443,18.443,0,0,1-4.886-.549A15.3,15.3,0,0,1,31.25,44.6a15.968,15.968,0,0,1-3.475-2.734c-.482-.506-.9-1.036-1.323-1.53q-.538-.8-1.038-1.546A20.146,20.146,0,0,1,23.229,33.6a13.852,13.852,0,0,1-.33-1.546c-.052-.371-.078-.57-.078-.57a1.256,1.256,0,0,1,2.43-.589Z" transform="translate(31.365 40.662)"/>
            <path id="Path_1625" data-name="Path 1625" d="M30.439,37.932a9.8,9.8,0,1,0-9.6,10,9.8,9.8,0,0,0,9.6-10" transform="translate(14.906 38.959)" fill="#ce4a70"/>
            <path id="Path_1626" data-name="Path 1626" d="M60.246,37.931a9.8,9.8,0,1,0-9.6,10,9.8,9.8,0,0,0,9.6-10" transform="translate(55.896 38.961)" fill="#ce4a70"/>
          </g>
        </g>
        <g id="Group_1171" data-name="Group 1171" transform="translate(-21365.596 5443.219)"/>
      </g>
    </g>
  </g>
  <path id="path-7" data-name="Path 1693" d="M 260.806 1469.769 C 260.806 1476.104 159.468 1481.239 34.463 1481.239 C -90.542 1481.239 -191.883 1476.104 -191.883 1469.769 C -191.883 1463.434 -90.546 1458.302 34.464 1458.302 C 159.474 1458.302 260.807 1463.438 260.807 1469.769" style="fill: rgba(153, 159, 168, 0.18);"/>
  <path id="path-8" data-name="Path 1693" d="M 2384.524 1452.363 C 2384.524 1458.698 2283.186 1463.833 2158.181 1463.833 C 2033.176 1463.833 1931.835 1458.698 1931.835 1452.363 C 1931.835 1446.028 2033.172 1440.896 2158.182 1440.896 C 2283.192 1440.896 2384.525 1446.032 2384.525 1452.363" style="fill: rgba(145, 151, 161, 0.18);"/>
  <path id="path-11" data-name="Path 1693" d="M 1324.974 1402.628 C 1324.974 1420.407 1192.18 1434.818 1028.372 1434.818 C 864.565 1434.818 731.767 1420.407 731.767 1402.628 C 731.767 1384.849 864.56 1370.446 1028.374 1370.446 C 1192.188 1370.446 1324.975 1384.86 1324.975 1402.628" style="fill: rgba(153, 159, 168, 0.18);"/>
</svg>
