<svg viewBox="177.301 -99.011 873.633 772.511" xmlns="http://www.w3.org/2000/svg"><path fill="#fff" d="M584.971-81.766h50.798c218.397 0 395.442 369.775 395.442 369.775S854.178 657.777 635.782 657.777h-50.8c-304.407 1.547-496.451-305.63-345.68-552.918 70.733-116.014 202.87-187.35 345.68-186.625Z" data-name="Path 1117" transform="rotate(-23.003 609.005 288.005)"/><g data-name="Group 696"><path fill="#903" d="M531.102 111.607s64.435 174.198 85.42 173.186S764.654 161.19 764.654 161.19s-21.927-46.963-109.291-66.363-124.262 16.78-124.262 16.78Z" data-name="Path 1090"/><path fill="#7ec8d6" d="M587.102 460.525s30.33-142.044 19.32-162.518-88.197-180.303-88.197-180.303-74.327 39.31-100.843 109.573c-24.478 64.866 7.729 153.753 42.086 179.179 71.721 53.083 127.634 54.07 127.634 54.07Z" data-name="Path 1092"/><path fill="#e79e17" d="M774.062 179.474S622.054 283.559 617.73 306.399s-20.384 155.134-20.384 155.134 55.746 21.858 120.567-16.065c59.841-35.01 92.817-161.06 82.114-202.44-22.336-86.39-25.965-63.554-25.965-63.554Z" data-name="Path 1093"/><g stroke="#323f51" data-name="Group 694"><g fill="none" stroke-width="5" data-name="Group 693"><g data-name="Group 540"><path stroke-width="5.001250000000001" d="M786.116 340.582c-19.448 63.567-62.12 162.853-242.309 109.522s-147.046-230.86-78.602-294.177 189.96-109.228 298.528-.708c56.069 56.042 34.41 146.054 22.383 185.363Z" data-name="Path 793"/><path stroke-width="5.001250000000001" d="M423.6 215.917c10.15-24.955 24.663-46.305 40.614-61.063 72.165-66.762 194.18-106.996 300.556-.667 40.036 40.016 47.897 104.617 22.747 186.82-9.977 32.618-25.974 73.388-61.41 99.353-42.072 30.826-103.545 34.577-182.71 11.145-89.972-26.63-120.38-81.56-130.042-122.954-9.15-39.18-3.379-79.15 10.246-112.634Zm361.117 124.238c24.818-81.107 17.206-144.698-22.016-183.9C657.79 51.39 537.416 91.12 466.198 157c-35.841 33.155-65.544 104.317-50 170.886 9.489 40.64 39.399 94.587 128.026 120.818 168.474 49.862 217.018-31.827 240.492-108.55Z" data-name="Path 794"/></g><path stroke-width="5.001250000000001" d="M548.847 113.265a1.468 1.468 0 0 1 .823-.812c23-8.96 46.25-13.541 69.104-13.614 34.374-.107 67.335 9.953 98.074 29.92q2.615 1.7 5.23 3.51a1.472 1.472 0 0 1 .37 2.033 1.463 1.463 0 0 1-2.033.37c-31.708-21.947-65.902-33.022-101.633-32.912-22.49.072-45.388 4.588-68.05 13.416a1.461 1.461 0 0 1-1.893-.831 1.446 1.446 0 0 1 .008-1.08Z" data-name="Path 795"/><path stroke-width="5.001250000000001" d="M439.688 363.733a1.468 1.468 0 0 1 .62-.71 1.464 1.464 0 0 1 1.998.527 144.946 144.946 0 0 0 38.217 42.63 1.482 1.482 0 0 1 .283 2.047 1.461 1.461 0 0 1-2.045.282 147.898 147.898 0 0 1-38.981-43.486 1.462 1.462 0 0 1-.092-1.29Z" data-name="Path 796"/><path stroke-width="5.001250000000001" d="M628.756 454.013a1.456 1.456 0 0 1 1.38-.91 189.77 189.77 0 0 0 25.284-1.104 1.457 1.457 0 0 1 1.615 1.287 1.453 1.453 0 0 1-1.287 1.617 192.527 192.527 0 0 1-25.666 1.12 1.462 1.462 0 0 1-1.43-1.49 1.49 1.49 0 0 1 .104-.52Z" data-name="Path 797"/><path stroke-width="5.001250000000001" d="M698.938 440.441a1.468 1.468 0 0 1 .718-.766 116.805 116.805 0 0 0 16.299-9.555 117.353 117.353 0 0 0 13.815-11.396 1.462 1.462 0 0 1 2.067.041 1.466 1.466 0 0 1-.041 2.065 119.705 119.705 0 0 1-14.164 11.678 119.178 119.178 0 0 1-16.706 9.803 1.46 1.46 0 0 1-1.949-.682 1.456 1.456 0 0 1-.039-1.188Z" data-name="Path 798"/><path stroke-width="5.001250000000001" d="M753.675 161.33a1.51 1.51 0 0 1 .32-.482 1.465 1.465 0 0 1 2.067 0c27.586 27.575 39.006 66.98 33.947 117.118a1.462 1.462 0 0 1-1.601 1.306 1.46 1.46 0 0 1-1.305-1.6c4.966-49.224-6.173-87.835-33.108-114.76a1.465 1.465 0 0 1-.32-1.581Z" data-name="Path 799"/><path stroke-width="5.001250000000001" d="M438.653 207.786c4.987-11.366 13.305-23.204 24.718-35.19 3.733-3.919 7.859-7.91 12.263-11.863l1.952 2.174c-4.346 3.904-8.416 7.84-12.099 11.706-11.177 11.738-19.306 23.293-24.156 34.346Z" data-name="Path 800"/><path stroke-width="5.001250000000001" d="M493.954 145.695a287.681 287.681 0 0 1 26.205-17.708l1.46 2.533c-.114.066-25.903 17.509-25.903 17.509Z" data-name="Path 801"/></g><path fill="#fff" stroke-linecap="round" stroke-linejoin="round" stroke-width="7.00175" d="m369.765 113.056-7.316 41.411c-.301 1.708-.298 1.69 1.358 1.973 2.932.503 5.87 1 8.787 1.576.877.172 1.205-.034 1.449-.896.853-3.034 1.295-6.155 1.987-9.223 1.593-7.064 2.946-14.181 4.423-21.27q2.41-11.582 4.867-23.158c1.597-7.59 3.16-15.185 4.817-22.769.46-2.104.918-4.205 1.335-6.322.427-2.178 1.45-3.033 3.682-3.108 1.636-.059 2.853.872 4.053 1.783.504.384.292 1.038.207 1.586a470.629 470.629 0 0 0-1.211 8.055c-.748 5.38-1.707 10.732-2.47 16.11-1.365 9.604-2.84 19.188-4.28 28.779-.95 6.306-1.813 12.628-2.836 18.925-.703 4.337-1.225 8.703-1.847 13.054-.094.655-.029 1.018.77 1.141 3.154.488 6.295 1.055 9.439 1.593 1.763.303 1.774.305 2.086-1.46l14.587-82.574c.366-2.075 1.042-2.777 2.975-3.086a4.101 4.101 0 0 1 4.041 2.013 1.8 1.8 0 0 1 .202 1.12q-.922 8.933-1.827 17.867c-.63 6.3-1.222 12.604-1.858 18.902-.538 5.315-1.131 10.622-1.669 15.936-.636 6.3-1.226 12.604-1.861 18.903-.435 4.285-1.01 8.557-1.356 12.85a26.846 26.846 0 0 1-4.555 12.755 27.58 27.58 0 0 1-11.294 9.99 22.984 22.984 0 0 0-12.094 12.503 38.62 38.62 0 0 0-2.067 9.846c-.47 3.81-1.19 7.578-1.65 11.39-.59 4.872-1.513 9.71-2.204 14.577q-1.97 13.825-4.068 27.631c-.878 5.795-1.7 11.6-2.555 17.399q-2.011 13.688-4.041 27.375-1.307 8.76-2.578 17.523-1.98 13.628-4.019 27.247c-.887 5.97-1.73 11.945-2.644 17.91-1.22 7.967-2.23 15.967-3.515 23.923a15.604 15.604 0 0 1-16.712 13.018 15.443 15.443 0 0 1-14.045-15.818c.11-3.914 1.232-7.74 2.023-11.584.624-3.038 1.368-6.05 1.998-9.093 1.542-7.472 3.028-14.958 4.571-22.432q3.379-16.334 6.807-32.661 2.497-11.962 5.004-23.921 2.62-12.53 5.223-25.065 2.588-12.404 5.181-24.807c1.71-8.185 3.387-16.376 5.133-24.555 1.194-5.608 2.508-11.19 3.463-16.845a21.268 21.268 0 0 0-5.887-19.252c-5.696-5.887-9.023-12.751-9.212-21.022-.093-4.024 1.092-7.831 2.006-11.685.735-3.1 1.556-6.18 2.332-9.27q2.125-8.462 4.242-16.925c1.03-4.138 2.027-8.285 3.055-12.424 1.41-5.685 2.841-11.366 4.253-17.051q1.524-6.147 3.026-12.298c.728-2.97 1.5-5.93 2.162-8.917a3.33 3.33 0 0 1 3.083-2.792 3.656 3.656 0 0 1 4.34 4.322q-3.65 20.653-7.296 41.297Z" data-name="Path 1085"/><path fill="#fff" stroke-linecap="round" stroke-linejoin="round" stroke-width="7.00175" d="M880.9 204.872q-4.006 22.68-8.007 45.36c-1.228 7.005-2.497 14.004-3.574 21.033-1.597 10.437-3.023 20.898-4.555 31.348-1.1 7.508-2.259 15.007-3.38 22.511-.835 5.584-1.648 11.17-2.474 16.756-.932 6.31-1.924 12.613-2.785 18.935-.77 5.637-1.613 11.264-2.475 16.889-1.412 9.197-2.728 18.418-4.087 27.63-.86 5.84-1.757 11.674-2.576 17.523-1.291 9.218-2.678 18.426-4.069 27.631-.809 5.368-1.488 10.755-2.36 16.115-.36 2.211-.573 4.447-.944 6.655a15.643 15.643 0 0 1-18.753 12.888c-7.314-1.49-12.854-8.927-12.047-16.326.572-5.233 1.997-10.312 3.02-15.463 1.801-9.046 3.732-18.068 5.61-27.098q1.595-7.658 3.197-15.314l7.03-33.67 3.326-15.947c1.734-8.313 3.387-16.643 5.24-24.93.754-3.364 1.176-6.8 2.192-10.104.326-1.06.036-1.554-1.13-1.73-2.942-.445-5.86-1.059-8.801-1.507-1.187-.179-1.482-.644-1.23-1.798 1.809-8.252 3.405-16.548 5.362-24.768.867-3.65 1.66-7.313 2.495-10.969a528.738 528.738 0 0 1 4.5-18.325c1.436-5.41 2.78-10.848 4.285-16.24q2.57-9.206 5.374-18.349 3.095-10.133 6.64-20.12c5.352-15.038 11.264-29.836 19.041-43.82a100.512 100.512 0 0 1 9.643-14.682 12.562 12.562 0 0 1 1.12-1.253 2.082 2.082 0 0 1 2.52-.297 2.026 2.026 0 0 1 1.185 2.235c-.856 6.46-2.145 12.846-3.277 19.258-.638 3.607-1.25 7.217-1.886 10.824q-1.676 9.566-3.37 19.12Z" data-name="Path 1086"/></g></g><g data-name="Group 778"><path fill="#fff" d="M-165.041 2282.021h50.798c218.397 0 395.442 369.775 395.442 369.775s-177.033 369.766-395.429 369.766h-50.8c-304.406 1.547-496.45-305.628-345.679-552.916 70.733-116.014 202.869-187.35 345.679-186.625Z" data-name="Path 1117" transform="rotate(-23.003 -3319.883 -2714.306)"/></g><g data-name="Group 705"><g data-name="Group 704"><path fill="#fff6d5" d="M1756.421 1183.36a10.236 10.236 0 0 0 1.163-3.04c2.936-8.925 6.322-17.649 11.202-25.736 1.467-2.433 2.725-4.99 4.02-7.517a17.026 17.026 0 0 0 1.842-4.182c1.093-5.47 3.862-10.175 6.355-15.04 1.294-2.522 2.27-5.206 3.411-7.81 1.571-3.598 3.076-7.226 4.77-10.764 5.074-10.62 12.097-20.298 15.3-31.817a2.566 2.566 0 0 1 .281-.593 126.288 126.288 0 0 0 8.395-18.48c1.394-3.66 3.389-7.075 4.225-10.976a16.197 16.197 0 0 1 1.799-4.201c2.824-5.19 5.635-10.375 6.889-16.235a10.056 10.056 0 0 1 .739-1.817c3.482-8 7.208-15.902 10.38-24.02a180.66 180.66 0 0 1 8.94-18.962 27.113 27.113 0 0 0 2.74-5.934c1.164-4.75 3.457-8.95 5.718-13.192 3.087-5.789 6.189-11.568 9.23-17.38.91-1.735 1.649-3.562 2.422-5.364 1.72-4.005 3.244-8.103 5.157-12.012 2.875-5.876 6.45-11.405 8.028-17.886a21.641 21.641 0 0 1 2.252-4.718c2.154-4.054 4.36-8.083 6.517-12.134.716-1.348 1.712-2.685 1.946-4.126.762-4.679 3.284-8.528 5.44-12.567l3.48-6.553c-2.92-4.644-6.235-8.418-11.065-10.937-19.574-10.219-39.019-20.691-58.644-30.808-6.98-3.595-14.282-6.593-21.546-9.591-6.252-2.582-12.749-4.54-18.668-7.949a44.843 44.843 0 0 0-7.277-2.946c-6.99-2.51-14.023-4.91-21.002-7.446q-20.946-7.608-41.85-15.323c-5.124-1.888-10.331-3.624-15.275-5.911a76.032 76.032 0 0 0-12.901-4.677c-4.225-1.096-8.668-1.857-12.508-3.775-4.958-2.473-10.175-3.914-15.36-5.58a40.171 40.171 0 0 1-4.362-1.39c-6.557-2.976-13.033-6.13-19.623-9.033a37.393 37.393 0 0 0-8.673-2.87 24.763 24.763 0 0 1-7.375-2.498c-10.693-5.502-21.4-10.972-32.075-16.507a32.535 32.535 0 0 0-11.694-3.962c-.892 1.337-1.626 2.399-2.317 3.479-4.176 6.516-5.39 14.248-8.672 21.14-1.398 2.937-2.359 6.083-3.744 9.03-1.95 4.151-4.588 8.039-6.078 12.335a240.513 240.513 0 0 1-15.974 35.894 29.543 29.543 0 0 0-2.47 5.342c-2.122 6.953-5.44 13.339-8.913 19.675a57.437 57.437 0 0 0-3.715 7.65c-3.012 8.205-5.76 16.503-8.749 24.715a160.21 160.21 0 0 1-6.284 15.822 86.904 86.904 0 0 0-5.875 14.56c-3.089 10.953-7.715 21.327-11.744 31.915-3.255 8.56-7.045 16.911-10.512 25.393-1.072 2.62-1.801 5.382-2.796 8.036a81.544 81.544 0 0 1-3.682 9.063c-5.85 11.25-11.882 22.407-17.807 33.616a33.31 33.31 0 0 0-2.707 5.948c-2.287 7.744-5.862 14.98-9.046 22.334-3.376 7.798-7.842 15.131-11.945 22.603a38.232 38.232 0 0 1-3.796 5.262c-3.293 4.117-5.438 8.809-7.558 13.944 1.868 1.172 3.445 2.282 5.125 3.194 7.317 3.936 14.562 8.026 22.038 11.638 5.03 2.43 9.19 6.028 13.083 9.685a251.132 251.132 0 0 1 19.189 20.589 42.339 42.339 0 0 0 12.536 10.27c7.412 3.856 13.922 8.994 20.946 13.36 6.618 4.114 12.471 9.475 19.01 13.852 3.257 2.183 6.35 4.588 9.826 6.464a37.363 37.363 0 0 1 7.141 4.586 43.798 43.798 0 0 0 8.724 5.744c3.859 2.056 7.7 4.147 11.579 6.161a30.6 30.6 0 0 0 4.773 2.12c5.607 1.764 11.247 3.419 16.887 5.082 7.514 2.212 14.86 5.097 22.789 5.692a5.065 5.065 0 0 1 1.898.475c3.447 1.77 7.19 1.68 10.896 1.792 6.281.191 12.51-1.128 18.86-.257 4.064.557 8.273.105 12.413.027a14.95 14.95 0 0 0 4.482-.513c6.036-2.07 12.35-2.32 18.592-2.74a48.931 48.931 0 0 0 10.275-1.769q4.727-1.347 9.406-2.882a22.096 22.096 0 0 1 9.64-1.379 10.96 10.96 0 0 0 4.467-.591c5.192-1.64 10.343-3.41 15.495-5.173 2.21-.751 3.99.495 3.882 2.828a8.465 8.465 0 0 1-.141 1.298c-.825 4.05-1.332 8.207-2.583 12.124-1.511 4.736-.709 9.046 1.228 13.318.37.814 1.376 1.336 2.15 2.054a13.824 13.824 0 0 0 1.531-1.803c2.65-4.777 5.239-9.593 7.902-14.364 2.645-4.734 4.257-10.002 7.602-14.378Z" data-name="Path 1099"/><path fill-rule="evenodd" d="M1847.335 994.36c.783.82 1.593 1.477 2.82.803 2.078-1.142 4.18-2.253 7.225-3.89a25.627 25.627 0 0 1-2.36 3.779 21.296 21.296 0 0 1-3.112 2.39c-8.43 6.067-9.382 7.277-13.832 17.59.768 1.287 1.77.95 2.726.316 1.62-1.071 3.163-2.272 4.814-3.29.493-.305 1.24-.182 2.548-.335-3.807 4.48-7.231 8.52-11.906 11.223a4.874 4.874 0 0 0-2.559 4.046 8.186 8.186 0 0 0 2.242-.434c2.449-1.303 4.657-3.165 7.51-3.392 1.183 1.443.164 2.297-.53 2.888-3.317 2.835-6.654 5.664-10.139 8.283a16.26 16.26 0 0 0-6.088 9.41c3.622-.046 4.454-3.628 7.047-4.588 2.546-.94 4.563-3.069 7.586-3.449a35.486 35.486 0 0 1-2.262 3.065c-2.195 2.41-4.372 4.852-6.745 7.079-2.216 2.08-4.482 4.388-8.435 2.942l-1.696 5.602c.796.27 1.214.577 1.5.481 2.218-.737 3.986-2.65 7.13-2.767a11.135 11.135 0 0 1-1.537 2.378c-3.19 2.643-6.386 5.284-9.709 7.755-1.568 1.168-2.425 2.396-1.93 4.464 2.467.835 3.896-1.341 5.923-2 1.308 1.457.652 2.823-.49 3.838a110.587 110.587 0 0 1-9.485 7.95c-3.046 2.152-3.976 4.928-4.074 8.243 2.367 1.298 3.81-2.504 6.321-.5-1.837 2.782-4.061 5.05-7.394 5.864a3.562 3.562 0 0 0-2.926 3.138l2.96 1.233c-2.931 5.251-8.667 8.026-11.15 13.477-2.325 5.112-5.989 9.656-6.673 15.986 4.028-.65 7.347-2.537 11.447-4.814-1.146 4.162-3.988 5.421-6.269 7.114-2.372 1.765-2.438 1.673-6.975 1.704l-3.46 6.517c2.59.746 4.286-.275 5.817-1.826 2.539-2.576 5.66-3.93 10.19-4.858-2.883 2.924-5.422 4.913-7.183 7.442-2.045 2.938-5.415 3.452-7.812 5.506l-2.89-1.535c-.316.317-.784.566-.88.92a75.036 75.036 0 0 1-7.673 17.32c-1.832 3.216-3.489 6.525-5.12 9.598.96 1.436 1.696.75 2.356.339 1.11-.696 2.146-1.512 3.25-2.212 1.386-.878 2.884-.637 3.307.468a2.812 2.812 0 0 1-1.314 3.358c-2.807 1.661-5.654 3.251-8.424 4.97a7.839 7.839 0 0 0-3.84 5.433c2.512.946 3.35-2.403 5.686-1.483-.198 2.174-2.033 3.214-3.347 4.47-2.043 1.96-4.378 3.611-6.56 5.428-1.86 1.545-3.637 3.171-4.097 6.25a7.757 7.757 0 0 0 2.278-.337c2.095-1.06 4.12-2.258 7.275-4.02-1.425 3.287-3.428 4.236-4.98 5.564a63.914 63.914 0 0 1-5.146 4.042c-3.281 2.27-3.317 2.219-4.22 4.205 2.53.632 4.752-2.26 7.34-.704.045.282.179.629.095.694-4.424 3.41-8.866 6.795-13.757 10.524.968.592 1.7 1.405 2.219 1.291 1.47-.326 2.832-1.105 4.282-1.565a15.167 15.167 0 0 1 2.917-.22c-3.466 2.79-6.192 5.192-9.126 7.304-4.586 3.306-9.304 6.433-14.019 9.555a1.783 1.783 0 0 1-1.71-.287c-.357-.649-.66-1.81-.322-2.268a25.54 25.54 0 0 1 3.221-3.15c-2.064-.613-2.064-.613-5.009.48-.357 1.848-.09 4.367-1.207 5.411a24.644 24.644 0 0 1-7.755 4.62c-2.181.856-2.842-1.325-3.49-3.303-2.741.726-4.912 2.51-7.289 3.863a11.145 11.145 0 0 1-2.859 1.495 2.662 2.662 0 0 1-2.315-.672 4.154 4.154 0 0 1-.494-2.944c.336-1.36 2.568-1.668 2.273-3.903-3.593-.354-7.08-1.025-10.22 1.956-1.71 1.62-3.944 2.69-5.933 4.016-1.887 1.262-2.836.94-3.893-1.37-.267-.585-.46-1.207-.756-1.987-1.28.492-2.473 1.015-3.706 1.41-1.469.472-3.021.896-4.25-.485-1.253-1.404-.786-2.784.213-4.15a7.83 7.83 0 0 0 .614-1.926c-2.425 1.543-4.385 2.831-6.393 4.04a13.422 13.422 0 0 1-2.403 1.042c-2.33.833-4.055.304-4.342-1.288-.253-1.402.555-2.34 2.73-3.05.825-.274 1.702-.406 2.535-.66.613-.188 1.196-.472 1.851-.739-3.118-1.975-3.443-2.07-8.798-2.56a39.293 39.293 0 0 1-3.863 3.302 9.87 9.87 0 0 1-3.584 1.393 2.45 2.45 0 0 1-3.036-1.844 4.367 4.367 0 0 1 .872-2.857c.437-.657 1.385-.975 2.534-1.722-1.714-1.154-3.055-1.542-4.71-.406a30.433 30.433 0 0 1-4.42 2.698c-2.123.977-3.533-.436-3.16-3.05a19.956 19.956 0 0 1 .54-2.083c-4.678-2.685-9.358-3.057-14.136-.614-8.491-7.033-18.641-10.73-27.82-16.105-7.051-.942-11.932-6.123-17.899-9.18-8.365-4.287-16.679-8.67-25.013-13.014-3.105-1.616-6.254-3.147-8.67-5.8a5.164 5.164 0 0 0-1.569-1.173c-6.954-3.26-13.082-7.833-19.306-12.232-4.272-3.019-8.321-6.355-12.5-9.5-1.74-1.307-3.577-2.479-5.359-3.73-2.49-1.743-4.954-3.527-7.466-5.238-1.623-1.104-3.264-2.186-4.971-3.15-3.798-2.131-7.882-3.83-10.76-7.313-10.353-6.106-17.438-15.705-25.705-24.04-4.14-4.176-8.476-8.11-13.732-10.888-8.697-4.594-17.396-9.184-26.074-13.817-6.853-3.66-7.021-4.24-3.47-11.012 1.627-3.099 3.297-6.174 4.951-9.251a11.877 11.877 0 0 1 1.616-2.84c5.985-6.05 8.67-14.068 12.73-21.254 2.673-4.73 5.509-9.414 6.534-14.933.308-1.657 1.383-3.193 2.205-4.73a35.216 35.216 0 0 0 3.407-8.474 29.395 29.395 0 0 1 2.775-6.61c5.374-10.264 10.833-20.484 16.244-30.727a110.646 110.646 0 0 0 6.055-14.46c1.66-4.618 4.919-8.663 7.468-12.96a2.5 2.5 0 0 0 .281-.592c2.962-11.013 8.816-20.897 12.275-31.738 3.185-9.985 6.955-19.782 10.536-29.64.747-2.047 1.804-3.978 2.715-5.965a26.941 26.941 0 0 0 2.136-4.78c2.414-10.329 7.8-19.437 11.85-29.09 5.153-12.28 11.528-24.049 15.269-36.918a35.756 35.756 0 0 1 1.6-3.586c1.258-3.008 2.439-6.052 3.72-9.052a80.864 80.864 0 0 1 2.527-5.322c3.919-7.56 8.143-14.939 10.847-23.107 1.358-4.1 3.933-7.788 5.826-11.725a90.327 90.327 0 0 0 8.124-24.093 16.67 16.67 0 0 1 2.163-6.085c1.693-2.761 4.16-4.035 7.194-3.215a48.891 48.891 0 0 1 10.453 3.656c12.702 6.83 25.286 13.883 37.82 21.02a47.992 47.992 0 0 0 13.31 5.361c3.194.717 6.366 1.533 9.544 2.326a12.82 12.82 0 0 1 3.133.923c5.357 2.958 11.138 4.956 16.659 7.476a168.986 168.986 0 0 0 26.411 9.557 18.528 18.528 0 0 1 3.726 1.244c5.48 2.853 11.381 4.417 17.318 5.903a16.275 16.275 0 0 1 2.485.807c14.654 6.3 29.82 11.236 44.76 16.761 7.577 2.8 15.283 5.26 22.836 8.131 4.275 1.625 8.314 3.869 12.536 5.652 5.43 2.296 10.982 4.308 16.401 6.634 5.014 2.147 10.036 4.326 14.856 6.871 19.528 10.299 38.93 20.832 58.488 31.076 5.684 2.979 9.352 7.67 12.811 12.737a4.241 4.241 0 0 1 .245 4.343c-.89 2.144-1.817 4.275-3.25 7.643 2.756-1.618 4.275-2.782 5.99-3.429 1.467-.557 2.502.277 2.49 2.282a37.113 37.113 0 0 1-10.816 8.416l3.107 2.038c-2.712 3.379-8.138 4.416-8.77 9.614 3.318.558 3.055-2.793 4.992-4.15l3.867.839c-.305 1.853-.192 3.678-.924 5.056a10.626 10.626 0 0 1-5.695 5.212c-3.662 1.28-5.942 4.316-8.936 6.416-1.47 1.03-1.6 2.47-.913 4.373l6.673-3.975c-.777 3.313-1.624 4.354-4.634 6.724-1.97 1.549-4.843 2.06-6.067 4.982 1.914.86 2.926-.51 4.138-1.073 1.126-.52 2.242-1.055 3.267-1.538 1.084 1.297.373 1.84-.294 2.384-3.729 3.024-7.475 6.027-11.19 9.07-1.105.907-2.517 1.711-1.964 4.065 1.723-.818 3.223-1.515 4.71-2.238q2.655-1.288 5.289-2.613a23.263 23.263 0 0 1 4.658-1.978c-1.544 2.413-3.8 3.988-6.05 5.603-3.013 2.164-6.015 4.352-8.895 6.686a17.188 17.188 0 0 0-5.762 7.97c4.168-1.142 7.78-3.208 12.17-6.833.635 2.767-.995 4.644-2.782 6.186-3.753 3.23-7.12 7.086-12.32 8.208-1.578.342-2.673 1.312-2.065 3.553 5.03-1.44 9.047-5.088 14.006-6.51.955 2.546-.955 3.13-1.826 4.154-1.77 2.085-4.762 3.348-4.298 6.828q-2.066 2.073-4.132 4.133c-1.163 1.158-3.06 1.7-2.825 3.991.06.598-.883 1.422-1.527 1.941-3.377 2.735-6.842 5.367-10.202 8.125a15.92 15.92 0 0 0-2.056 2.59c2.388 1.323 3.935-1.578 6.06-.711-2.522 2.615-4.854 5.12-7.303 7.49-.57.551-1.567.663-2.334 1.013-.157.39-.368.735-.519 1.104-.052.134.043.328.071.49.272-.194.763-.387.762-.58-.003-.368-.28-.743-.444-1.118Zm-268.18-265.254c-.892 1.337-1.625 2.399-2.317 3.478-4.175 6.517-5.388 14.249-8.67 21.141-1.399 2.937-2.36 6.083-3.745 9.03-1.95 4.151-4.588 8.039-6.079 12.335a240.513 240.513 0 0 1-15.973 35.894 29.543 29.543 0 0 0-2.47 5.341c-2.122 6.953-5.44 13.34-8.913 19.676a57.437 57.437 0 0 0-3.715 7.65c-3.012 8.205-5.76 16.503-8.75 24.715a160.207 160.207 0 0 1-6.283 15.822 86.904 86.904 0 0 0-5.875 14.56c-3.09 10.952-7.715 21.327-11.744 31.915-3.255 8.56-7.045 16.911-10.512 25.392-1.072 2.62-1.801 5.383-2.797 8.037a81.542 81.542 0 0 1-3.681 9.063c-5.851 11.25-11.882 22.406-17.807 33.615a33.31 33.31 0 0 0-2.707 5.949c-2.287 7.744-5.862 14.98-9.046 22.334-3.376 7.798-7.842 15.131-11.945 22.603a38.233 38.233 0 0 1-3.796 5.262c-3.294 4.116-5.438 8.809-7.558 13.943 1.869 1.172 3.444 2.283 5.125 3.193 7.317 3.937 14.563 8.027 22.038 11.64 5.03 2.43 9.191 6.026 13.083 9.684a251.106 251.106 0 0 1 19.2 20.602 42.34 42.34 0 0 0 12.535 10.27c7.413 3.855 13.922 8.994 20.946 13.36 6.618 4.114 12.471 9.475 19.011 13.852 3.256 2.183 6.348 4.588 9.825 6.464a37.35 37.35 0 0 1 7.142 4.586 43.797 43.797 0 0 0 8.723 5.744c3.86 2.056 7.7 4.147 11.58 6.161a30.6 30.6 0 0 0 4.773 2.12c5.607 1.764 11.246 3.419 16.886 5.082 7.514 2.212 14.861 5.097 22.789 5.692a5.065 5.065 0 0 1 1.899.475c3.446 1.77 7.188 1.68 10.895 1.792 6.281.191 12.51-1.128 18.86-.257 4.064.557 8.274.105 12.413.027a14.953 14.953 0 0 0 4.482-.513c6.036-2.086 12.351-2.334 18.593-2.753a48.932 48.932 0 0 0 10.275-1.768q4.727-1.347 9.406-2.88a22.096 22.096 0 0 1 9.64-1.38 10.96 10.96 0 0 0 4.463-.596c5.192-1.639 10.343-3.41 15.496-5.173 2.21-.751 3.99.495 3.882 2.828a8.463 8.463 0 0 1-.142 1.298c-.825 4.05-1.332 8.208-2.582 12.124-1.511 4.735-.71 9.046 1.228 13.318.37.814 1.376 1.336 2.149 2.054a13.823 13.823 0 0 0 1.531-1.803c2.65-4.776 5.239-9.592 7.902-14.363 2.644-4.732 4.257-10 7.6-14.377a10.235 10.235 0 0 0 1.163-3.042c2.937-8.924 6.322-17.648 11.202-25.735 1.468-2.432 2.726-4.99 4.02-7.517a17.027 17.027 0 0 0 1.842-4.182c1.094-5.47 3.863-10.175 6.355-15.04 1.294-2.522 2.27-5.206 3.411-7.81 1.571-3.598 3.076-7.226 4.77-10.764 5.074-10.62 12.097-20.298 15.3-31.817a2.565 2.565 0 0 1 .281-.593 126.29 126.29 0 0 0 8.395-18.48c1.394-3.66 3.389-7.075 4.225-10.976a16.197 16.197 0 0 1 1.799-4.201c2.825-5.19 5.635-10.375 6.89-16.235a10.055 10.055 0 0 1 .738-1.817c3.483-8 7.208-15.902 10.38-24.02a180.661 180.661 0 0 1 8.94-18.962 27.113 27.113 0 0 0 2.74-5.934c1.164-4.75 3.458-8.95 5.718-13.192 3.088-5.789 6.189-11.568 9.231-17.379.909-1.736 1.648-3.563 2.42-5.365 1.721-4.005 3.246-8.102 5.158-12.012 2.876-5.876 6.45-11.405 8.028-17.886a21.641 21.641 0 0 1 2.251-4.722c2.154-4.054 4.36-8.083 6.517-12.134.716-1.348 1.712-2.685 1.946-4.126.762-4.679 3.284-8.528 5.44-12.567l3.48-6.553c-2.92-4.644-6.235-8.418-11.065-10.937-19.574-10.219-39.019-20.691-58.644-30.808-6.98-3.595-14.282-6.593-21.546-9.591-6.252-2.582-12.749-4.54-18.668-7.949a44.843 44.843 0 0 0-7.277-2.946c-6.99-2.51-14.023-4.91-21.002-7.446q-20.946-7.608-41.85-15.323c-5.124-1.888-10.331-3.624-15.275-5.911a76.032 76.032 0 0 0-12.901-4.677c-4.225-1.096-8.668-1.857-12.508-3.775-4.958-2.473-10.175-3.914-15.36-5.58a40.172 40.172 0 0 1-4.362-1.39c-6.557-2.976-13.033-6.13-19.623-9.033a37.393 37.393 0 0 0-8.673-2.87 24.763 24.763 0 0 1-7.375-2.498c-10.693-5.502-21.4-10.972-32.075-16.507a32.535 32.535 0 0 0-11.698-3.956Zm35.195 472.94c5.014 2.663 8.626 4.695 12.347 6.507a29.287 29.287 0 0 0 5.583 1.852q20.955 5.307 41.934 10.516c1.261.313 2.695.88 3.839.567 4.843-1.331 9.465-.153 14.031 1.045a31.694 31.694 0 0 0 16.158.454 20.096 20.096 0 0 1 4.544-.433c7.132-.129 13.574-2.808 20.379-5.13a33.294 33.294 0 0 1-3.992-14.669c-.066-4.99 2.74-9.422 3.045-14.769-4.31.629-7.9 2.257-11.665 3.227-1.68.433-3.512 1.334-5.063 1.007-3.914-.823-7.348.498-10.88 1.58-3.76 1.152-7.545 2.254-11.227 3.628-5.135 1.914-10.856 1.301-15.835 3.823a1.7 1.7 0 0 1-1.279-.059c-2.467-1.1-4.705-.008-6.985.661a21.441 21.441 0 0 1-8.319 1.1c-3.852-.357-7.804.353-11.712.6a9.398 9.398 0 0 1-2.585.107c-3.273-.754-6.5-.08-9.758.01-6.515.18-13.127.676-19.35-2.148-.434-.209-1.131.157-3.21.524Zm241.22-225.026c.336.31.673.616 1.008.927 1.614-1.01 3.248-1.988 4.824-3.052.232-.159.194-.722.334-1.326-1.653-.085-3.26-.17-5.088-.262-.4 1.377-.741 2.545-1.077 3.713Zm-168.674 253.626.415-.366c-.118-.107-.265-.319-.348-.298a.638.638 0 0 0-.347.355c-.027.05.175.202.276.307Z" data-name="Path 1100"/><path fill-rule="evenodd" d="M1803.8 1109.049c-2.008 2.67-3.981 5.377-6.065 7.986-.305.38-1.49.627-1.678.414-.49-.555-1.03-1.484-.885-2.114a7.548 7.548 0 0 1 4.584-5.8c1.175-.466 2.317-1.018 3.477-1.528.185.348.376.697.567 1.042Z" data-name="Path 1101"/><path fill-rule="evenodd" d="M1778.707 1157.28c.11-5.008 2.243-6.96 7.633-7.696-2.486 2.504-4.702 4.74-7.633 7.696Z" data-name="Path 1102"/><path fill="#d6d0c0" fill-rule="evenodd" d="M1614.35 1202.046c2.08-.368 2.774-.73 3.213-.53 6.222 2.825 12.835 2.328 19.35 2.149 3.259-.09 6.485-.765 9.758-.01a9.39 9.39 0 0 0 2.585-.107c3.908-.247 7.86-.958 11.712-.6a21.441 21.441 0 0 0 8.319-1.1c2.28-.67 4.518-1.761 6.985-.661a1.7 1.7 0 0 0 1.279.058c4.978-2.52 10.7-1.909 15.835-3.822 3.683-1.374 7.466-2.476 11.227-3.628 3.53-1.079 6.962-2.4 10.88-1.58 1.55.326 3.383-.574 5.063-1.007 3.762-.966 7.355-2.598 11.664-3.227-.305 5.346-3.115 9.78-3.044 14.769a33.294 33.294 0 0 0 3.996 14.668c-6.808 2.328-13.25 5.007-20.382 5.135a20.096 20.096 0 0 0-4.544.432 31.694 31.694 0 0 1-16.158-.452c-4.565-1.198-9.189-2.376-14.03-1.046-1.147.314-2.583-.254-3.84-.567q-20.975-5.222-41.934-10.516a29.278 29.278 0 0 1-5.583-1.852c-3.726-1.809-7.34-3.845-12.35-6.506Z" data-name="Path 1103"/><g fill-rule="evenodd" data-name="Group 703"><path d="M1632.32 856.463c.343-1.385.261-2.926.844-4.193a70.45 70.45 0 0 0 4.695-12.55c1.256-5.098 3.683-9.887 5.58-14.81 1.441-3.744.002-7.665-3.982-9.642-9.157-4.54-18.415-8.889-27.645-13.287a10.611 10.611 0 0 0-8.78-.5c-1.17 2.263-2.177 4.245-3.218 6.216-2.189 4.158-4.864 8.14-6.475 12.51-1.702 4.612-3.326 9.2-5.928 13.416a64.76 64.76 0 0 0-3.11 6 8.526 8.526 0 0 0-.245 7.497c9.122 5.03 19.14 8.808 28.785 13.328 4.463 2.091 9.394 3.244 14.152 4.838 3.382-2.198 4.486-5.444 5.326-8.823Zm-8.713 2.799c-5.306-1.78-26.699-12.092-33.293-16.023 1.396-6.718 6.079-12.217 7.853-18.953 1.707-6.468 5.024-12.481 7.649-18.736 4.398.09 7.338 2.908 10.806 4.38 3.764 1.605 7.428 3.462 11.052 5.357 3.374 1.769 7.18 2.853 10.013 5.447a6.61 6.61 0 0 1-.002 2.004q-6.245 17.513-12.606 34.977c-.189.519-.82.879-1.472 1.547Z" data-name="Path 1104"/><path d="M1613.857 900.025c.019 2.866-1.514 5.36-2.619 7.915-3.476 8.003-7.152 15.917-10.75 23.864-.27.598-.532 1.197-.833 1.78-2.498 4.753-5.15 6.072-10.876 5.413a12.036 12.036 0 0 1-3.332-.502c-9.382-4.103-18.787-8.173-28.044-12.525-3.545-1.665-3.59-3.635-2.88-7.612 1.25-6.98 4.685-13 7.856-19.193 1.185-2.314 1.795-4.89 2.843-7.273 1.399-3.164 2.701-6.323 6.446-7.929 1.582-.68 2.935-1.104 4.48-.537 2.992 1.094 5.95 2.29 8.893 3.507a36.849 36.849 0 0 0 9.055 2.891c4.813.669 16.224 6.893 19.761 10.201Zm-5.534 1.508c-5.044-2.25-9.39-5.1-14.136-6.074-5.733-1.176-10.756-3.595-15.977-5.77a33.08 33.08 0 0 0-3.795-1.512 2.722 2.722 0 0 0-3.405 1.4 12.889 12.889 0 0 0-1.221 3.02c-1.524 7.063-4.394 13.65-7.42 20.187a14.506 14.506 0 0 0-1.115 7.332 6.613 6.613 0 0 0 1.242 1.137q11.162 5.122 22.345 10.194a10.86 10.86 0 0 0 8.314.425l15.168-30.339Z" data-name="Path 1105"/><path d="M1566.007 1014.095a45.18 45.18 0 0 1-14.82-4.006c-5.511-2.588-10.871-5.69-17.122-6.505a2.613 2.613 0 0 1-.635-.242c-10.15-4.26-10.062-4.431-5.779-13.17q6.33-12.923 12.529-25.903c.645-1.349 1.068-2.796 1.64-4.316 1.095-.568 2.277-1.194 3.378-1.77.556.129 1.194.096 1.376.35a8.847 8.847 0 0 0 4.302 3.05c4.45 1.732 8.777 3.756 13.216 5.513a56.514 56.514 0 0 0 7.762 2.457 39.515 39.515 0 0 1 10.25 4.236 25.48 25.48 0 0 1-2.313 10.016c-3.003 6.294-5.944 12.615-8.901 18.933-1.563 3.334-3.408 6.568-3.805 10.319-.04.332-.606.602-1.078 1.038Zm8.623-37.858c-10.293-1.039-18.572-6.872-27.508-10.519-.703.513-1.207.693-1.368 1.025q-6.54 13.495-12.994 27.023a7.78 7.78 0 0 0-.327 2.026c7.783 5.516 16.759 8.788 25.387 12.692a6.059 6.059 0 0 0 1.971.48c2.167.184 4.115-.163 5.054-2.334 1.463-3.38 3-6.735 4.314-10.17 1.465-3.845 2.578-7.818 4.117-11.631a16.922 16.922 0 0 0 1.354-8.593Z" data-name="Path 1106"/><path d="M1779.61 1010.7c-.763.983-1.103 1.863-1.733 2.144-2.47 1.097-4.855.445-7.19-.71-4.877-2.421-9.786-4.793-14.686-7.176a86.352 86.352 0 0 0-8.2-3.126c-6.977-2.562-14.614-3.731-20.69-8.421a9.841 9.841 0 0 0-6.247-2.404 2.683 2.683 0 0 1-1.324-.278c-5.31-3.068-11.285-4.543-16.958-6.73-4.636-1.784-8.887-4.316-14.026-5.056-2.811-.402-5.44-2.197-8.101-3.463-2.872-1.367-5.757-2.733-8.493-4.323a16.037 16.037 0 0 1-4.671-3.713 9.181 9.181 0 0 0-6.875-3.725 30.41 30.41 0 0 1-14.58-5.277c-1.291-.89-2.89-1.364-4.196-2.238a11.815 11.815 0 0 0-10.358-1.697c-3.203.968-5.737-.284-8.414-1.639-3.129-1.581-3.808-4.185-3.546-7.145.048-.546 1.069-1.006 1.892-1.723a9.751 9.751 0 0 1 1.173 2.007 6.312 6.312 0 0 0 7.01 5.074c5.801-.42 10.637 1.558 15.504 4.159 4.803 2.56 9.852 4.571 15.457 4.907a17.764 17.764 0 0 1 8.814 3.36c7.898 5.278 16.154 9.855 25.447 12.516a31.383 31.383 0 0 1 4.949 2.256c3.44 1.687 6.642 3.945 10.721 4.066a2.85 2.85 0 0 1 1.268.47c7.834 4.738 17.124 5.828 25.383 9.583 4.467 2.033 9.473 2.94 14.23 4.376a15.82 15.82 0 0 1 2.56.936c8.493 4.244 16.966 8.512 25.88 12.99Z" data-name="Path 1107"/><path d="M1720.194 1152.271a21.623 21.623 0 0 1-4.309-1.07c-6.072-3.126-12.252-5.921-19.047-7.304-1.526-.31-2.91-1.251-4.399-1.806a15.412 15.412 0 0 0-3.883-1.157c-7.712-.663-14.385-3.737-20.69-7.882a41.227 41.227 0 0 0-6.104-2.913c-5.608-2.462-11.306-4.744-16.834-7.356-8.484-4.009-17.169-7.178-26.705-7.625-6.653-.311-15.796-3.891-20.4-8.27a21.915 21.915 0 0 0-8.83-4.829c-3.898-1.241-7.7-2.77-11.595-4.02-2.8-.897-5.694-1.514-8.53-2.31a41.393 41.393 0 0 1-6.418-2.022 6.127 6.127 0 0 1-2.61-2.88 3.361 3.361 0 0 1 .269-2.94 1.882 1.882 0 0 1 2.954.21c2.12 2.726 5.117 3.437 8.333 4.008a37.981 37.981 0 0 1 5.883 1.772c4.72 1.657 9.466 3.266 14.11 5.116a36.164 36.164 0 0 1 7.836 3.987c6.372 4.63 13.28 7.632 21.33 7.848 3.685.097 7.13 1.194 10.678 2.089 12.742 3.202 23.785 10.236 36.02 14.559a23.735 23.735 0 0 1 5.227 3.088c4.899 3.353 9.96 6.26 16.238 6.216a4.663 4.663 0 0 1 1.361.11c9.129 2.787 18.487 5.019 26.73 9.994a11.549 11.549 0 0 1 3.003 2.594c.434.529.237 1.51.382 2.793Z" data-name="Path 1108"/><path d="M1514.724 1033.98c4.034 1.502 7.46 2.723 10.835 4.057a89.765 89.765 0 0 0 9.72 2.98c4.771 1.29 9.249 3.674 13.75 5.79 1.699.798 2.07 2.457 1.211 4.605-1.29 3.232-2.784 6.384-4.225 9.553a63.903 63.903 0 0 0-3.165 9.17c-1.289 4.536-3.69 8.786-5.833 13.056-.848 1.692-2.747 2.188-4.72 1.393-3.58-1.448-7.066-3.11-10.598-4.675a47.065 47.065 0 0 0-10.915-3.777 49.183 49.183 0 0 1-9-3.059 4.36 4.36 0 0 1-2.142-5.542c.95-2.657 1.977-5.29 3.029-7.901 2.439-6.048 4.85-12.102 7.406-18.102a28.8 28.8 0 0 1 4.647-7.548Zm17.688 45.026c2.674-3.48 4.549-6.557 4.964-9.915.525-4.25 2.53-7.791 4.195-11.546 1.039-2.335 2.814-4.444 2.59-7.62-2.979-1.33-5.952-3.445-9.17-3.922-5.593-.826-10.277-3.43-15.232-5.6-1.413-.62-2.885-1.117-4.435-1.711-.588 1.225-1.488 2.2-1.431 3.137.273 4.56-1.786 8.408-3.656 12.313-2.164 4.518-2.948 9.389-4.409 14.327 2.12.945 3.878 2.206 5.778 2.484 4.62.68 8.66 2.665 12.807 4.483 2.48 1.09 4.949 2.206 8 3.57Z" data-name="Path 1109"/><path d="M1808.4 926.348c-2.814-.702-5.244-1.227-7.622-1.923-3.685-1.08-7.075-3.092-11.15-2.97-1.26.04-2.594-.775-3.836-1.325-5.404-2.4-10.822-4.776-16.156-7.31a26.317 26.317 0 0 1-5.726-3.554c-2.531-2.137-5.244-3.527-8.63-3.316-6.866.429-12.876-1.99-18.805-4.997-3.408-1.732-6.86-3.495-10.954-3.462a10.116 10.116 0 0 1-3.849-1.295c-8.304-3.708-16.602-7.429-24.871-11.215a23.939 23.939 0 0 1-8.227-5.728c-4.653-5.189-11.077-7.51-17.919-8.817-2.686-.513-5.402-.913-8.045-1.578a8.06 8.06 0 0 1-3.565-1.812 3.187 3.187 0 0 1-.668-2.882 3.257 3.257 0 0 1 2.512-1.627 7.469 7.469 0 0 1 3.762 1.286c3.056 2.026 6.483 3.128 9.88 4.449 5.667 2.217 11.484 4.334 16.017 8.62a26.426 26.426 0 0 0 8.066 4.862c6.913 2.925 13.746 6.026 20.628 9.022 3.111 1.355 6.113 2.885 9.708 3.018 1.721.065 3.441 1.085 5.114 1.78 2.312.955 4.589 1.99 6.866 3.025a21.832 21.832 0 0 0 11.206 2.32 20.221 20.221 0 0 1 15.197 4.734 15.797 15.797 0 0 0 4.05 2.446c7.772 3.16 15.104 7.22 23.352 9.469 4.479 1.215 8.428 4.307 12.562 6.64.468.263.59 1.1 1.103 2.14Z" data-name="Path 1110"/><path d="M1612.797 1020.13c-1.229.63-2.393 1.333-3.645 1.838-.813.33-1.935.778-2.614.491-4.17-1.762-9.018-1.27-12.938-3.763-2.665-1.69-3.176-3.053-2.258-6.018a20.572 20.572 0 0 1 .865-2.449 6.162 6.162 0 0 1 1.19-1.204c.534.613 1.407 1.156 1.472 1.766.326 3.05 2.21 4.599 5.084 5.447 1.526.45 2.961 1.22 4.502 1.576a7.89 7.89 0 0 0 3.945.213c5.973-1.968 10.824.592 15.088 3.929a31.994 31.994 0 0 0 6.781 4.267q4.057 1.798 8.109 3.596c3.945 1.756 7.769 3.916 11.888 5.126a54.318 54.318 0 0 0 12.033 1.75 18.397 18.397 0 0 1 11.54 5.021 41.068 41.068 0 0 0 12.04 7.385c5.696 2.296 11.21 5 16.842 7.448 3.51 1.525 6.827 3.52 10.986 3.334 1.442-.066 2.976 1.004 4.441 1.618 3.123 1.312 6.068 3.044 9.682 2.997a8.078 8.078 0 0 1 3.168 1.17 41.54 41.54 0 0 0 7.7 2.44c3.89.99 7.478 3.127 11.14 4.89.343.163.406 1.138.34 1.704-.038.285-.622.596-1.018.724a2.033 2.033 0 0 1-1.329.056c-4.961-2.245-10.28-3.397-15.483-4.917-2.168-.634-4.152-1.696-6.546-1.7a10.217 10.217 0 0 1-3.876-1.135c-3.732-1.671-7.386-3.47-11.592-3.857a10.744 10.744 0 0 1-3.151-1.247c-8.924-3.994-17.817-8.05-26.776-11.968-2.96-1.297-5.777-2.73-7.664-5.307-4.121-5.616-10.392-6.137-16.47-5.94a18.36 18.36 0 0 1-8.498-1.674c-6.642-2.968-13.327-5.854-19.898-8.967-2.633-1.244-4.992-3.025-7.517-4.492-2.134-1.242-4.332-2.386-7.563-4.148Z" data-name="Path 1111"/></g></g><path fill="#009cb2" fill-rule="evenodd" d="M1607.44 814.645c-2.64-1.077-4.49-1.716-6.231-2.576a2.433 2.433 0 0 1-.386-3.898c1.524-1.65 3.486-1.63 5.449-1.555 3.854.153 6.573 1.907 7.893 5.677a14.412 14.412 0 0 1 .357 8.965 37.2 37.2 0 0 0-1.42 12.205c2.331 1.23 3.792-.799 5.594-1.152a15.968 15.968 0 0 0 4.904-1.75c8.966-5.22 18.89-7.837 28.695-10.798 4.167-1.261 8.261-2.766 12.403-4.125 3.312-1.092 6.624-2.189 9.963-3.185 1.28-.382 2.627-.39 3.447 1 .71 1.206.22 2.594-1.48 3.816a36.894 36.894 0 0 1-5.463 3.578c-4.518 2.148-9.098 4.19-13.756 6.009-3.447 1.346-7.03 2.363-10.598 3.36a108.874 108.874 0 0 0-18.187 7.251 119.12 119.12 0 0 1-15.744 6.172c-4.598 1.47-7.757-.867-8.004-5.706a60.014 60.014 0 0 1 1.874-18.748 40.993 40.993 0 0 0 .69-4.54Z" data-name="Path 1112"/><path fill="#009cb2" fill-rule="evenodd" d="M1577.557 889.34c-2.64-1.077-4.49-1.716-6.23-2.578a2.428 2.428 0 0 1-.386-3.895c1.522-1.651 3.486-1.633 5.448-1.555 3.855.151 6.573 1.906 7.892 5.678a14.391 14.391 0 0 1 .359 8.963 37.215 37.215 0 0 0-1.42 12.205c2.328 1.237 3.791-.798 5.593-1.151a16.097 16.097 0 0 0 4.907-1.751c8.964-5.22 18.888-7.837 28.692-10.8 4.17-1.262 8.266-2.763 12.407-4.126 3.31-1.09 6.623-2.189 9.962-3.184 1.28-.382 2.626-.391 3.447 1 .709 1.206.22 2.595-1.48 3.817a37 37 0 0 1-5.464 3.578c-4.518 2.146-9.097 4.19-13.757 6.01-3.444 1.34-7.027 2.361-10.596 3.36a109.25 109.25 0 0 0-18.186 7.248 119.007 119.007 0 0 1-15.745 6.174c-4.598 1.469-7.757-.867-8.002-5.71a59.917 59.917 0 0 1 1.872-18.744 41.286 41.286 0 0 0 .687-4.54Z" data-name="Path 1113"/></g></svg>