<svg width="302.49" height="78.484" xmlns="http://www.w3.org/2000/svg"><g data-name="Group 1501" transform="translate(17292 20934.881)"><rect width="296" height="70" fill="#fff" data-name="Rectangle 529" rx="35" transform="translate(-17292 -20926.396)"/><path fill="#323f51" d="m-17237.054-20876.154 3.88-27.64h-4.72l-1.84 12.72a58.809 58.809 0 0 0-.48 10.48l-6.44-23.2h-6.68l-3.88 27.64h4.76l1.52-11.04a73.161 73.161 0 0 0 .84-12.16l6.36 23.2Zm17.64-21.76c-8.6 0-11.4 7.84-11.4 13.44 0 5.52 3.04 8.92 8.52 8.92 8.64 0 11.4-7.96 11.4-13.48 0-5.44-3.04-8.88-8.52-8.88Zm-.28 3.88c2.36 0 3.6 1.4 3.56 4.6 0 3.6-1.12 10-5.88 10-2.36 0-3.6-1.44-3.6-4.64 0-3.6 1.16-9.96 5.92-9.96Zm18.24 11.52 1.56-11.12h4.32l1.04-3.68h-4.84l.72-5.28-4.24.48-1.32 4.8h-3.48l-.52 3.68h3.28l-1.56 11.08c-.64 4.48 1.24 6.96 5.44 7a10.3 10.3 0 0 0 5.36-1.52l-1.44-3.44a5.368 5.368 0 0 1-2.68.8c-1.44 0-1.96-.72-1.64-2.8Zm26.76-9.8c0-3-2.48-5.6-7.32-5.6-8.52 0-11.52 7.8-11.52 13.56 0 5.36 2.96 8.8 8.72 8.8a13.7 13.7 0 0 0 8.04-2.72l-1.96-3.2a9.136 9.136 0 0 1-5.52 1.96c-2.32 0-4-1.12-4.12-4.4 6.96-.72 13.68-2.44 13.68-8.4Zm-13.44 5c.56-3.4 2.2-6.96 5.76-6.96 1.96 0 2.48 1.24 2.48 2.2 0 2.6-2.56 4.24-8.24 4.76Zm25.04-10.6c-5.8 0-8.64 3.2-8.64 6.44 0 2.92 1.8 4.76 5.52 6 3.32 1.16 4.32 1.68 4.32 3.36 0 1.24-1.04 2.72-4 2.72a7.835 7.835 0 0 1-5.64-2.32l-2.76 2.88a11.419 11.419 0 0 0 8.32 3.28c5.6 0 9.2-2.84 9.2-7.04 0-3.44-1.96-5.28-5.72-6.44-3.08-.96-4.16-1.48-4.16-2.84 0-1.4 1.24-2.24 3.56-2.24a7.612 7.612 0 0 1 4.92 1.84l2.36-2.96a10.908 10.908 0 0 0-7.28-2.68Zm17.2 2.52 1.52-10.96-5.08.56-4.04 28.64a22.567 22.567 0 0 0 8.16 1.6c9.16 0 11.88-8.04 11.88-14.08 0-5.28-2.32-8.28-6.48-8.28a8.788 8.788 0 0 0-5.96 2.52Zm4.12 1.32c1.8 0 3.12 1.04 3.12 4.36 0 4.32-1.68 10.32-6.2 10.32a8.722 8.722 0 0 1-3.16-.56l1.56-11.4c1.36-1.52 2.84-2.72 4.68-2.72Zm22.76-3.84c-8.6 0-11.4 7.84-11.4 13.44 0 5.52 3.04 8.92 8.52 8.92 8.64 0 11.4-7.96 11.4-13.48 0-5.44-3.04-8.88-8.52-8.88Zm-.28 3.88c2.36 0 3.6 1.4 3.56 4.6 0 3.6-1.12 10-5.88 10-2.36 0-3.6-1.44-3.6-4.64 0-3.6 1.16-9.96 5.92-9.96Zm23.68-3.88c-8.72 0-11.92 7.6-11.92 13.68 0 4.84 2.44 8.08 6.92 8.08a7.73 7.73 0 0 0 5.76-2.96l-.32 2.32c-.68 4.6-3.12 5.36-5.68 5.36a11.9 11.9 0 0 1-5.72-1.68l-1.8 3.56a15.807 15.807 0 0 0 7.68 2.2c5.92 0 9.44-2.72 10.48-9.92l2.76-18.6a17.108 17.108 0 0 0-8.16-2.04Zm-.04 3.76a6.857 6.857 0 0 1 2.88.56l-1.56 10.16c-1.4 1.92-2.96 3.4-4.88 3.4-1.72 0-3-1.12-3-4.28 0-4.4 1.8-9.84 6.56-9.84Z" data-name="Path 2006"/><g data-name="Group 1493"><g data-name="Group 1490"><g data-name="Group 1479"><path fill="#ffbe06" d="m-17052.966-20893.267 42.794-37.957a4.557 4.557 0 0 1 6.434.385l4.235 4.773a4.557 4.557 0 0 1-.386 6.434l-42.794 37.958-.48.203-14.281 6.027-4.134 1.745a1.242 1.242 0 0 1-1.56-1.76l2.223-3.896 7.688-13.46Z" data-name="Path 1941"/></g><g data-name="Group 1480"><path fill="#323f51" d="m-17014.349-20927.519 4.177-3.704a4.557 4.557 0 0 1 6.434.385l4.235 4.773a4.557 4.557 0 0 1-.386 6.434l-4.177 3.705Z" data-name="Path 1942"/></g><g data-name="Group 1481"><path fill="#d7dcf0" d="m-17004.066-20915.925-3.665 3.251-10.284-11.593 3.666-3.252z" data-name="Rectangle 528"/><path fill="#390075" d="m-17014.34-20927.675.074.085 10.357 11.676-3.831 3.398-.074-.085-10.356-11.676Zm10.118 11.74-10.136-11.428-3.5 3.105 10.137 11.428Z" data-name="Path 1943"/></g><g data-name="Group 1482"><path fill="#ffdc9c" d="M-17053.23-20892.813c1.467 1.002 3.2-.9 4.686.472 1.495 1.451-.476 3.355.821 4.779 1.26 1.458 3.384-.269 4.648 1.386 1.185 1.639-.912 3.132-.092 4.708l-14.281 6.027-4.134 1.745a1.242 1.242 0 0 1-1.561-1.76l2.224-3.896Z" data-name="Path 1944"/><path fill="#390075" d="m-17053.262-20892.973.099.067a2.507 2.507 0 0 0 2.1.114 2.263 2.263 0 0 1 3.105 2.944 2.371 2.371 0 0 0 .323 2.21c.579.666 1.344.628 2.157.586a2.264 2.264 0 0 1 2.553 3.432 2.507 2.507 0 0 0-.139 2.096l.056.107-18.527 7.814a1.352 1.352 0 0 1-1.7-1.916Zm9.949 11.448a2.823 2.823 0 0 1 .18-2.169 2.364 2.364 0 0 0-.026-2.42c-.613-.804-1.437-.761-2.307-.716a2.248 2.248 0 0 1-2.71-3.056 2.362 2.362 0 0 0-.438-2.378c-.743-.688-1.547-.505-2.397-.313a2.822 2.822 0 0 1-2.173-.081l-9.856 17.255a1.132 1.132 0 0 0 1.422 1.603Z" data-name="Path 1945"/></g><g data-name="Group 1483" opacity=".3"><path fill="#323f51" d="m-17052.966-20893.266 42.794-37.953a4.558 4.558 0 0 1 6.434.385l2.723 3.068a4.557 4.557 0 0 0-6.434-.385l-42.404 37.61a3.187 3.187 0 0 0-.65.8l-12.707 15.378a1.208 1.208 0 0 1 .072-1.091l2.223-3.896 7.688-13.46Z" data-name="Path 1946"/></g><g data-name="Group 1484" opacity=".55"><path fill="#fff" d="M-17063.3-20874.958a1.261 1.261 0 0 0 .512-.102l4.134-1.745 14.281-6.027.48-.204 42.793-37.957a4.556 4.556 0 0 0 .385-6.434l1.21 1.363a4.557 4.557 0 0 1-.386 6.435l-42.793 37.957-.48.203-14.281 6.027-4.134 1.745a1.247 1.247 0 0 1-1.721-1.261Z" data-name="Path 1947"/></g><g data-name="Group 1485"><path fill="#323f51" d="M-17008.424-20932.897a5.247 5.247 0 0 1 5.198 1.605l4.234 4.774a5.248 5.248 0 0 1-.443 7.4l-42.793 37.957a.684.684 0 0 1-.188.118l-18.896 7.975a1.9 1.9 0 0 1-2.185-.498 1.9 1.9 0 0 1-.232-2.231l10.174-17.81a.689.689 0 0 1 .14-.171l42.793-37.958a5.212 5.212 0 0 1 2.198-1.16Zm-34.628 50.638 42.709-37.883a3.879 3.879 0 0 0 .328-5.469l-4.235-4.773a3.878 3.878 0 0 0-5.469-.328l-42.709 37.883-10.116 17.711a.541.541 0 0 0 .068.646.545.545 0 0 0 .634.145Zm-9.914-11.008Z" data-name="Path 1948"/></g><g data-name="Group 1486"><path fill="#323f51" d="M-17053.391-20893.476a.682.682 0 0 1 .551.098c.421.287.902.198 1.65.028a2.813 2.813 0 0 1 3.795 3.6c-.141.82-.203 1.304.182 1.726.385.446.873.443 1.704.4a2.813 2.813 0 0 1 3.122 4.196c-.259.724-.404 1.19-.17 1.643a.684.684 0 1 1-1.213.63 3.24 3.24 0 0 1 .095-2.732c.299-.838.448-1.34.05-1.891-.403-.526-.925-.526-1.815-.48a2.8 2.8 0 0 1-3.299-3.726c.151-.878.214-1.393-.274-1.87-.487-.45-1.002-.362-1.87-.165a3.241 3.241 0 0 1-2.724-.232.684.684 0 0 1 .22-1.227Z" data-name="Path 1949"/></g><g data-name="Group 1487"><path fill="#323f51" d="M-17060.916-20879.354a6.056 6.056 0 0 1 3.47 3.911l-4.134 1.745a1.242 1.242 0 0 1-1.561-1.76Z" data-name="Path 1950"/></g><g data-name="Group 1488"><path fill="#323f51" d="M-17014.515-20928.182a.69.69 0 0 1 .201-.019.686.686 0 0 1 .47.23l10.283 11.593a.684.684 0 0 1 .17.495.684.684 0 0 1-.229.47l-3.665 3.25a.684.684 0 0 1-.965-.057l-10.283-11.594a.684.684 0 0 1 .058-.965l3.666-3.252a.686.686 0 0 1 .294-.151Zm9.484 12.199-9.376-10.571-2.643 2.344 9.376 10.57Z" data-name="Path 1951"/></g><g data-name="Group 1489"><path fill="#323f51" d="M-17061.078-20880.017a.68.68 0 0 1 .443.039 6.745 6.745 0 0 1 3.844 4.333.684.684 0 1 1-1.306.404 5.361 5.361 0 0 0-3.094-3.488.684.684 0 0 1 .114-1.288Z" data-name="Path 1952"/></g></g></g></g></svg>