<svg xmlns="http://www.w3.org/2000/svg" width="302.49" height="78.484" viewBox="0 0 302.49 78.484">
  <g id="Group_1501" data-name="Group 1501" transform="translate(17292 20934.881)">
    <rect id="Rectangle_529" data-name="Rectangle 529" width="296" height="70" rx="35" transform="translate(-17292 -20926.396)" fill="#fff"/>
    <path id="Path_2006" data-name="Path 2006" d="M21.88,43l3.88-27.64H21.04L19.2,28.08a58.809,58.809,0,0,0-.48,10.48l-6.44-23.2H5.6L1.72,43H6.48L8,31.96A73.161,73.161,0,0,0,8.84,19.8L15.2,43ZM39.52,21.24c-8.6,0-11.4,7.84-11.4,13.44,0,5.52,3.04,8.92,8.52,8.92,8.64,0,11.4-7.96,11.4-13.48C48.04,24.68,45,21.24,39.52,21.24Zm-.28,3.88c2.36,0,3.6,1.4,3.56,4.6,0,3.6-1.12,10-5.88,10-2.36,0-3.6-1.44-3.6-4.64C33.32,31.48,34.48,25.12,39.24,25.12ZM57.48,36.64l1.56-11.12h4.32l1.04-3.68H59.56l.72-5.28-4.24.48-1.32,4.8H51.24l-.52,3.68H54L52.44,36.6c-.64,4.48,1.24,6.96,5.44,7a10.3,10.3,0,0,0,5.36-1.52L61.8,38.64a5.368,5.368,0,0,1-2.68.8C57.68,39.44,57.16,38.72,57.48,36.64Zm26.76-9.8c0-3-2.48-5.6-7.32-5.6-8.52,0-11.52,7.8-11.52,13.56,0,5.36,2.96,8.8,8.72,8.8a13.7,13.7,0,0,0,8.04-2.72l-1.96-3.2a9.136,9.136,0,0,1-5.52,1.96c-2.32,0-4-1.12-4.12-4.4C77.52,34.52,84.24,32.8,84.24,26.84Zm-13.44,5c.56-3.4,2.2-6.96,5.76-6.96,1.96,0,2.48,1.24,2.48,2.2C79.04,29.68,76.48,31.32,70.8,31.84Zm25.04-10.6c-5.8,0-8.64,3.2-8.64,6.44,0,2.92,1.8,4.76,5.52,6,3.32,1.16,4.32,1.68,4.32,3.36,0,1.24-1.04,2.72-4,2.72a7.835,7.835,0,0,1-5.64-2.32l-2.76,2.88a11.419,11.419,0,0,0,8.32,3.28c5.6,0,9.2-2.84,9.2-7.04,0-3.44-1.96-5.28-5.72-6.44-3.08-.96-4.16-1.48-4.16-2.84,0-1.4,1.24-2.24,3.56-2.24a7.612,7.612,0,0,1,4.92,1.84l2.36-2.96A10.908,10.908,0,0,0,95.84,21.24Zm17.2,2.52,1.52-10.96-5.08.56L105.44,42a22.567,22.567,0,0,0,8.16,1.6c9.16,0,11.88-8.04,11.88-14.08,0-5.28-2.32-8.28-6.48-8.28A8.788,8.788,0,0,0,113.04,23.76Zm4.12,1.32c1.8,0,3.12,1.04,3.12,4.36,0,4.32-1.68,10.32-6.2,10.32a8.722,8.722,0,0,1-3.16-.56l1.56-11.4C113.84,26.28,115.32,25.08,117.16,25.08Zm22.76-3.84c-8.6,0-11.4,7.84-11.4,13.44,0,5.52,3.04,8.92,8.52,8.92,8.64,0,11.4-7.96,11.4-13.48C148.44,24.68,145.4,21.24,139.92,21.24Zm-.28,3.88c2.36,0,3.6,1.4,3.56,4.6,0,3.6-1.12,10-5.88,10-2.36,0-3.6-1.44-3.6-4.64C133.72,31.48,134.88,25.12,139.64,25.12Zm23.68-3.88c-8.72,0-11.92,7.6-11.92,13.68,0,4.84,2.44,8.08,6.92,8.08a7.73,7.73,0,0,0,5.76-2.96l-.32,2.32c-.68,4.6-3.12,5.36-5.68,5.36a11.9,11.9,0,0,1-5.72-1.68l-1.8,3.56a15.807,15.807,0,0,0,7.68,2.2c5.92,0,9.44-2.72,10.48-9.92l2.76-18.6A17.108,17.108,0,0,0,163.32,21.24ZM163.28,25a6.857,6.857,0,0,1,2.88.56L164.6,35.72c-1.4,1.92-2.96,3.4-4.88,3.4-1.72,0-3-1.12-3-4.28C156.72,30.44,158.52,25,163.28,25Z" transform="translate(-17258.934 -20919.154)" fill="#323f51"/>
    <g id="Group_1493" data-name="Group 1493" transform="translate(-17207.449 -20154.51) rotate(166)">
      <g id="Group_1490" data-name="Group 1490" transform="translate(-389.625 661.836)">
        <g id="Group_1479" data-name="Group 1479" transform="translate(0.682 0.684)">
          <path id="Path_1941" data-name="Path 1941" d="M-322.933,1336.565l-50.705,26.477a4.557,4.557,0,0,1-6.15-1.93l-2.954-5.656a4.557,4.557,0,0,1,1.931-6.15l50.705-26.477.515-.081,15.315-2.393,4.433-.693a1.242,1.242,0,0,1,1.089,2.085l-3.1,3.242-10.716,11.2Z" transform="translate(383.26 -1319.645)" fill="#ffbe06"/>
        </g>
        <g id="Group_1480" data-name="Group 1480" transform="translate(0.682 27.759)">
          <path id="Path_1942" data-name="Path 1942" d="M-368.689,2000.382l-4.949,2.584a4.557,4.557,0,0,1-6.15-1.93l-2.954-5.656a4.557,4.557,0,0,1,1.931-6.15l4.949-2.584Z" transform="translate(383.26 -1986.645)" fill="#323f51"/>
        </g>
        <g id="Group_1481" data-name="Group 1481" transform="translate(7.931 25.342)">
          <rect id="Rectangle_528" data-name="Rectangle 528" width="4.9" height="15.497" transform="translate(0.149 2.417) rotate(-27.573)" fill="#d7dcf0"/>
          <path id="Path_1943" data-name="Path 1943" d="M-197.391,1943.405l-.051-.1-7.224-13.835,4.539-2.37.051.1,7.224,13.835Zm-6.977-13.839,7.071,13.541,4.147-2.166-7.071-13.541Z" transform="translate(204.666 -1927.102)" fill="#390075"/>
        </g>
        <g id="Group_1482" data-name="Group 1482" transform="translate(52.865 0.574)">
          <path id="Path_1944" data-name="Path 1944" d="M913.4,1336.188c-1.181-1.327-3.323.1-4.432-1.591-1.1-1.77,1.273-3.141.359-4.836-.869-1.719-3.348-.558-4.174-2.469-.754-1.877,1.642-2.819,1.228-4.546l15.315-2.393,4.433-.693a1.242,1.242,0,0,1,1.089,2.085l-3.1,3.242Z" transform="translate(-904.89 -1319.535)" fill="#ffdc9c"/>
          <path id="Path_1945" data-name="Path 1945" d="M910.768,1333.752l-.08-.089a2.507,2.507,0,0,0-2.011-.619,2.263,2.263,0,0,1-2.3-3.607,2.371,2.371,0,0,0,.221-2.222c-.4-.787-1.152-.935-1.951-1.091a2.264,2.264,0,0,1-1.647-3.948,2.507,2.507,0,0,0,.642-2l-.028-.117,19.867-3.1a1.352,1.352,0,0,1,1.186,2.27Zm-6.884-13.514a2.823,2.823,0,0,1-.7,2.06,2.364,2.364,0,0,0-.56,2.354c.4.929,1.21,1.087,2.065,1.254a2.248,2.248,0,0,1,1.89,3.62,2.362,2.362,0,0,0-.15,2.414c.555.847,1.379.864,2.25.883a2.822,2.822,0,0,1,2.089.605l13.738-14.358a1.132,1.132,0,0,0-.992-1.9Z" transform="translate(-902.265 -1316.936)" fill="#390075"/>
        </g>
        <g id="Group_1483" data-name="Group 1483" transform="translate(2.256 1.744)" opacity="0.3">
          <path id="Path_1946" data-name="Path 1946" d="M-285.735,1361.627-336.44,1388.1a4.558,4.558,0,0,1-6.15-1.93l-1.9-3.636a4.557,4.557,0,0,0,6.15,1.93l50.243-26.235a3.187,3.187,0,0,0,.824-.618h0l16.05-11.847a1.208,1.208,0,0,1-.333,1.041l-3.1,3.242-10.716,11.2Z" transform="translate(344.489 -1345.768)" fill="#323f51"/>
        </g>
        <g id="Group_1484" data-name="Group 1484" transform="translate(0.682 0.683)" opacity="0.55">
          <path id="Path_1947" data-name="Path 1947" d="M-308.476,1321.3a1.261,1.261,0,0,0-.522-.025l-4.433.693-15.315,2.393-.515.082-50.705,26.477a4.556,4.556,0,0,0-1.93,6.15l-.844-1.616a4.557,4.557,0,0,1,1.931-6.15l50.705-26.477.515-.081,15.315-2.393,4.433-.693A1.247,1.247,0,0,1-308.476,1321.3Z" transform="translate(383.26 -1319.644)" fill="#fff"/>
        </g>
        <g id="Group_1485" data-name="Group 1485" transform="translate(0 0)">
          <path id="Path_1948" data-name="Path 1948" d="M-391.85,1348.087a5.247,5.247,0,0,1-4.655-2.815l-2.954-5.656a5.248,5.248,0,0,1,2.22-7.073l50.705-26.477a.684.684,0,0,1,.211-.069l20.264-3.167a1.9,1.9,0,0,1,2,1.012,1.9,1.9,0,0,1-.315,2.221l-14.18,14.819a.689.689,0,0,1-.177.133l-50.705,26.477A5.212,5.212,0,0,1-391.85,1348.087Zm45.85-40.756-50.605,26.425a3.879,3.879,0,0,0-1.641,5.227l2.954,5.656a3.878,3.878,0,0,0,5.227,1.641l50.605-26.425,14.1-14.738a.541.541,0,0,0,.091-.643.545.545,0,0,0-.58-.294Zm6.956,13.079h0Z" transform="translate(400.053 -1302.806)" fill="#323f51"/>
        </g>
        <g id="Group_1486" data-name="Group 1486" transform="translate(52.292 3.101)">
          <path id="Path_1949" data-name="Path 1949" d="M897.235,1394.013a.682.682,0,0,1-.511-.229c-.339-.38-.827-.41-1.595-.426a2.813,2.813,0,0,1-2.81-4.411c.335-.761.512-1.216.241-1.719-.266-.526-.74-.641-1.557-.8a2.813,2.813,0,0,1-2.014-4.827c.426-.64.68-1.057.562-1.553a.684.684,0,1,1,1.33-.318,3.24,3.24,0,0,1-.753,2.628c-.493.741-.759,1.191-.506,1.823.263.607.77.734,1.644.905a2.8,2.8,0,0,1,2.3,4.413c-.359.815-.545,1.3-.187,1.881.364.554.885.593,1.775.612a3.241,3.241,0,0,1,2.587.884.684.684,0,0,1-.51,1.138Z" transform="translate(-888.156 -1379.204)" fill="#323f51"/>
        </g>
        <g id="Group_1487" data-name="Group 1487" transform="translate(69.667 0.684)">
          <path id="Path_1950" data-name="Path 1950" d="M1318.6,1324.988a6.056,6.056,0,0,1-2.42-4.634l4.433-.693a1.242,1.242,0,0,1,1.089,2.085Z" transform="translate(-1316.178 -1319.645)" fill="#323f51"/>
        </g>
        <g id="Group_1488" data-name="Group 1488" transform="translate(7.397 24.807)">
          <path id="Path_1951" data-name="Path 1951" d="M-209.977,1931.3a.69.69,0,0,1-.2-.031.686.686,0,0,1-.4-.336l-7.173-13.737a.684.684,0,0,1-.046-.521.684.684,0,0,1,.336-.4l4.343-2.268a.684.684,0,0,1,.922.289l7.173,13.737a.684.684,0,0,1-.29.923l-4.343,2.268A.686.686,0,0,1-209.977,1931.3Zm-6.251-14.131,6.54,12.525,3.131-1.635-6.54-12.525Z" transform="translate(217.834 -1913.927)" fill="#323f51"/>
        </g>
        <g id="Group_1489" data-name="Group 1489" transform="translate(68.983 0.709)">
          <path id="Path_1952" data-name="Path 1952" d="M1302.439,1326.265a.68.68,0,0,1-.421-.145,6.745,6.745,0,0,1-2.681-5.134.684.684,0,1,1,1.365-.076,5.361,5.361,0,0,0,2.158,4.133.684.684,0,0,1-.422,1.222Z" transform="translate(-1299.336 -1320.264)" fill="#323f51"/>
        </g>
      </g>
    </g>
  </g>
</svg>
