<svg xmlns="http://www.w3.org/2000/svg" width="435.152" height="108.395" viewBox="0 0 435.152 108.395">
  <g id="Group_1500" data-name="Group 1500" transform="translate(17292 20839.158)">
    <g id="Group_1415" data-name="Group 1415" transform="translate(-17292 -20814.533)">
      <rect id="Rectangle_332" data-name="Rectangle 332" width="435.153" height="70" rx="35" fill="#fff"/>
      <path id="Path_2005" data-name="Path 2005" d="M13.32,14.76c-7.24,0-10.24,4.6-10.24,8.2,0,3.84,2.32,6.04,7.28,7.6,3.52,1.24,4.68,2.28,4.68,4.36,0,2.88-2.6,4.52-5.8,4.52a8.471,8.471,0,0,1-6.48-2.76L-.36,39.72A12.334,12.334,0,0,0,9.16,43.6c8.68,0,11.4-5.44,11.4-9.36,0-4.44-3-6.4-7.16-7.72-3.8-1.32-4.88-2.16-4.88-4,0-2.36,2.16-3.72,4.88-3.72a7.672,7.672,0,0,1,5.64,2.32L22,18.24A11.333,11.333,0,0,0,13.32,14.76ZM33.08,43.12l9.56-21.28H37.36L30.2,39.48,28.08,21.84H22.8L26.48,43l1.68-.08c-1.56,3-3.16,4.44-7.4,5.08l.16,3.72C27.16,51.24,30.88,48.12,33.08,43.12ZM67.92,21.24c-2.48,0-4.84,1.52-6.64,4.16a4.489,4.489,0,0,0-4.68-4.16c-2.64,0-4.92,1.68-6.72,4.32l.2-3.72H45.72L42.76,43H47.8l1.68-12.16c1.44-2.96,3.2-5.4,4.96-5.4,1.16,0,2.08.56,1.68,3.2L54.04,43h5.04l1.76-12.32c1.44-2.88,3.2-5.24,4.96-5.24,1.16,0,2.04.56,1.68,3.2L65.4,43h5.04L72.6,27.76C73.16,23.72,71.24,21.24,67.92,21.24Zm22.08,0a8.374,8.374,0,0,0-6.36,3.08l.04-2.48h-4.4L75.08,51.8l5.12-.6,1.12-8.24a11.785,11.785,0,0,0,3.92.64c8.36,0,11.24-8.04,11.24-14.08C96.48,24.24,94.16,21.24,90,21.24Zm-1.84,3.84c1.8,0,3.12,1.04,3.12,4.36,0,4.32-1.68,10.32-6.2,10.32a8.722,8.722,0,0,1-3.16-.56l1.56-11.4C84.84,26.24,86.32,25.08,88.16,25.08Zm18,11.56,1.56-11.12h4.32l1.04-3.68h-4.84l.72-5.28-4.24.48-1.32,4.8H99.92l-.52,3.68h3.28L101.12,36.6c-.64,4.48,1.24,6.96,5.44,7a10.3,10.3,0,0,0,5.36-1.52l-1.44-3.44a5.368,5.368,0,0,1-2.68.8C106.36,39.44,105.84,38.72,106.16,36.64Zm19.36-15.4c-8.6,0-11.4,7.84-11.4,13.44,0,5.52,3.04,8.92,8.52,8.92,8.64,0,11.4-7.96,11.4-13.48C134.04,24.68,131,21.24,125.52,21.24Zm-.28,3.88c2.36,0,3.6,1.4,3.56,4.6,0,3.6-1.12,10-5.88,10-2.36,0-3.6-1.44-3.6-4.64C119.32,31.48,120.48,25.12,125.24,25.12Zm37.08-3.88c-2.48,0-4.84,1.52-6.64,4.16A4.489,4.489,0,0,0,151,21.24c-2.64,0-4.92,1.68-6.72,4.32l.2-3.72h-4.36L137.16,43h5.04l1.68-12.16c1.44-2.96,3.2-5.4,4.96-5.4,1.16,0,2.08.56,1.68,3.2L148.44,43h5.04l1.76-12.32c1.44-2.88,3.2-5.24,4.96-5.24,1.16,0,2.04.56,1.68,3.2L159.8,43h5.04L167,27.76C167.56,23.72,165.64,21.24,162.32,21.24Zm17.64,0c-5.8,0-8.64,3.2-8.64,6.44,0,2.92,1.8,4.76,5.52,6,3.32,1.16,4.32,1.68,4.32,3.36,0,1.24-1.04,2.72-4,2.72a7.835,7.835,0,0,1-5.64-2.32l-2.76,2.88a11.419,11.419,0,0,0,8.32,3.28c5.6,0,9.2-2.84,9.2-7.04,0-3.44-1.96-5.28-5.72-6.44-3.08-.96-4.16-1.48-4.16-2.84,0-1.4,1.24-2.24,3.56-2.24a7.612,7.612,0,0,1,4.92,1.84l2.36-2.96A10.908,10.908,0,0,0,179.96,21.24ZM197,25.04l1.72-12.24-5.12.56L189.44,43h5.04l1.8-12.92c1.8-3.56,4.12-5.12,6-5.12a1.842,1.842,0,0,1,2.04,2c0,2.56-1.72,4.32-6.52,5.76L202.16,43h5.6l-4.32-9.4c4.12-1.48,6.12-4.12,6.12-7.52,0-2.8-2.24-4.84-5.44-4.84A8.878,8.878,0,0,0,197,25.04Zm33.12,1.8c0-3-2.48-5.6-7.32-5.6-8.52,0-11.52,7.8-11.52,13.56,0,5.36,2.96,8.8,8.72,8.8a13.7,13.7,0,0,0,8.04-2.72l-1.96-3.2a9.136,9.136,0,0,1-5.52,1.96c-2.32,0-4-1.12-4.12-4.4C223.4,34.52,230.12,32.8,230.12,26.84Zm-13.44,5c.56-3.4,2.2-6.96,5.76-6.96,1.96,0,2.48,1.24,2.48,2.2C224.92,29.68,222.36,31.32,216.68,31.84Zm40.96-10.6c-2.48,0-4.84,1.52-6.64,4.16a4.489,4.489,0,0,0-4.68-4.16c-2.64,0-4.92,1.68-6.72,4.32l.2-3.72h-4.36L232.48,43h5.04l1.68-12.16c1.44-2.96,3.2-5.4,4.96-5.4,1.16,0,2.08.56,1.68,3.2L243.76,43h5.04l1.76-12.32c1.44-2.88,3.2-5.24,4.96-5.24,1.16,0,2.04.56,1.68,3.2L255.12,43h5.04l2.16-15.24C262.88,23.72,260.96,21.24,257.64,21.24Zm20.04,0c-8.6,0-11.76,8.12-11.76,14.08,0,5,2.36,8.28,6.84,8.28a7.682,7.682,0,0,0,6.28-3.6c.48,2.28,2.16,3.28,4.4,3.52l1.44-3.36a1.662,1.662,0,0,1-1.24-1.8c0-.24.04-.52.08-.88l2.16-14.2A17.369,17.369,0,0,0,277.68,21.24ZM277.64,25a6.919,6.919,0,0,1,2.92.56l-1.64,10.8c-1.4,2-2.84,3.36-4.68,3.36s-3-1.2-3-4.4C271.24,30.92,272.96,25,277.64,25Z" transform="translate(33.066 7.243)" fill="#d1c8a4"/>
    </g>
    <g id="Group_1492" data-name="Group 1492" transform="translate(-16446.471 -1955.274)">
      <g id="Group_1463" data-name="Group 1463" transform="matrix(0.985, 0.174, -0.174, 0.985, -492.71, -18886.918)">
        <path id="Path_1896" data-name="Path 1896" d="M997.115,271.768a4.679,4.679,0,0,1-4.606,4.376H936.2a4.122,4.122,0,0,1-4.146-4.376l4.163-79.351a4.68,4.68,0,0,1,4.606-4.376h56.3a4.122,4.122,0,0,1,4.147,4.376Z" transform="translate(-932.052 -175.205)" fill="#d1c8a4"/>
        <g id="Group_1459" data-name="Group 1459" transform="translate(14.921 76.953)">
          <path id="Path_1897" data-name="Path 1897" d="M1002.581,490.868c.117,0,.22-.128.053-.128-.117,0-.22.128-.053.128Z" transform="translate(-1002.494 -490.74)" fill="#efa734"/>
        </g>
        <g id="Group_1460" data-name="Group 1460" transform="translate(0.203 12.836)">
          <path id="Path_1898" data-name="Path 1898" d="M982.39,208.066c-5.96-.423-11.876-1.161-17.78-1.937-4.15-.545-8.349-.855-12.493-1.433-.023.092-.043.186-.06.28,2.53.349,5.079.6,7.629.83,4.622.424,9.2,1.187,13.811,1.7a195.979,195.979,0,0,0,27.892,1.146c5.183-.158,10.368-.507,15.547-1.009l.013-.242A205.9,205.9,0,0,1,982.39,208.066Z" transform="translate(-948.023 -201.169)" fill="#d99543"/>
          <path id="Path_1899" data-name="Path 1899" d="M1031.221,192.289c4.573.352,9.169.526,13.779.426a118.557,118.557,0,0,0,12.231-.963c-.009-.086-.021-.17-.035-.254-3.456.434-6.92.759-10.4.895a131.255,131.255,0,0,1-14.208-.286c-4.711-.327-9.378-1.006-14.033-1.681-4.7-.681-9.4-1.417-14.035-2.386h-1.461c4.662,1.015,9.395,1.781,14.134,2.485C1021.844,191.217,1026.517,191.926,1031.221,192.289Z" transform="translate(-988.224 -188.041)" fill="#d99543"/>
          <path id="Path_1900" data-name="Path 1900" d="M949.389,245.142l-.015.284a176.173,176.173,0,0,1,22.163-1.807c9.41-.249,18.833-.213,28.2.217,4.921.226,9.833.584,14.719,1.1l.015-.289a290.535,290.535,0,0,0-29.288-1.44C973.282,243.17,961.267,243.31,949.389,245.142Z" transform="translate(-945.908 -231.518)" fill="#d99543"/>
          <path id="Path_1901" data-name="Path 1901" d="M978.675,260.875c-10.56.38-21.271,1.972-31.251,6.027l-.015.279c15.75-6.485,33.184-6.727,49.606-5.85a156.785,156.785,0,0,1,15.675,1.585l.014-.27q-3.653-.561-7.341-.935A194.644,194.644,0,0,0,978.675,260.875Z" transform="translate(-944.36 -245.343)" fill="#d99543"/>
          <path id="Path_1902" data-name="Path 1902" d="M969.03,319.246q-11.554-.411-23.143-.254l-.014.271q2.666-.045,5.334-.051c9.681-.031,19.332.334,28.988.654,3.836.127,7.669.292,11.491.563,3.8.269,7.568.739,11.327,1.263q3.875.54,7.728,1.194l.015-.294q-6.534-1.095-13.13-1.884C988.177,319.592,978.567,319.585,969.03,319.246Z" transform="translate(-943.149 -291.22)" fill="#d99543"/>
          <path id="Path_1903" data-name="Path 1903" d="M1046.681,274.607a4.563,4.563,0,0,0-2.2.961c-.592.638.9,1.289,1.233,1.466a15.41,15.41,0,0,0,4.644,1.37c2.032.344,4.085.621,6.147.8,2.3.2,4.61.3,6.908.5,2.346.209,4.676.554,7.01.838q7.032.854,14.081,1.608,2.038.218,4.079.427l.016-.311q-7-.721-13.982-1.54c-4.659-.546-9.3-1.228-13.993-1.537-2.311-.152-4.623-.292-6.911-.6a41.024,41.024,0,0,1-5.473-.989,10.687,10.687,0,0,1-2.391-.961c-.236-.133-1.05-.509-.931-.9.2-.647,1.945-.888,2.463-1.01a40.412,40.412,0,0,1,8.668-.957c9.663-.17,19.212,1.394,28.561,3.234q2.114.416,4.219.865l.019-.356a184.025,184.025,0,0,0-20.816-3.45C1061.037,273.379,1053.688,272.815,1046.681,274.607Z" transform="translate(-1020.76 -255.324)" fill="#d99543"/>
          <path id="Path_1904" data-name="Path 1904" d="M955.126,335.9c-3.36-.253-6.735-.241-10.114-.2l-.015.284a79.118,79.118,0,0,1,8.4.129c4.7.391,9.429.619,14.158.792,9.705.355,19.406.682,29.1,1.2q6.63.351,13.254.749l.018-.344c-12.719-.753-25.448-1.415-38.2-1.8C966.178,336.536,960.641,336.314,955.126,335.9Z" transform="translate(-942.458 -304.405)" fill="#d99543"/>
          <path id="Path_1905" data-name="Path 1905" d="M991.1,365.664c-4.8-.294-9.585-.724-14.36-1.2-4.685-.467-9.378-.868-14.05-1.425-6.376-.761-12.719-1.737-18.976-3.049l-.022.416c6.985,1.447,14.072,2.482,21.2,3.279,4.694.526,9.408.936,14.114,1.387,4.776.457,9.563.844,14.366,1.094,5.008.261,10.036.357,15.069.213l.019-.362C1002.658,366.177,996.866,366.017,991.1,365.664Z" transform="translate(-941.431 -323.568)" fill="#d99543"/>
          <path id="Path_1906" data-name="Path 1906" d="M989.4,388.73c-9.427-.643-18.743-2.054-28.057-3.374-4.518-.641-9.01-1.423-13.438-2.447-1.8-.416-3.56-.91-5.312-1.438l-.02.382c1.716.51,3.444.989,5.2,1.4,4.47,1.034,9.011,1.8,13.572,2.451,9.317,1.321,18.634,2.71,28.063,3.354,4.7.32,9.388.555,14.115.516q1.852-.015,3.7-.068l.017-.312q-1.652.045-3.3.066C999.074,389.311,994.239,389.06,989.4,388.73Z" transform="translate(-940.55 -340.499)" fill="#d99543"/>
          <path id="Path_1907" data-name="Path 1907" d="M967.17,435.262a137.61,137.61,0,0,0-21.115,4.239c-2.844.823-5.582,1.868-8.332,2.954l-.018.341,1.5-.6a88.655,88.655,0,0,1,13.1-3.965,161.673,161.673,0,0,1,27.729-3.773,208.055,208.055,0,0,1,23.156.105l.019-.354A198.574,198.574,0,0,0,967.17,435.262Z" transform="translate(-936.711 -381.777)" fill="#d99543"/>
          <path id="Path_1908" data-name="Path 1908" d="M954.414,409.308c1.811-.578,3.773-.828,5.431-1.84.14-.086.026-.175-.075-.2a8.257,8.257,0,0,0-2.267-.009,12.352,12.352,0,0,1-2.714-.218c-1.7-.263-3.408-.527-5.1-.827A68.245,68.245,0,0,1,939.56,403.6l-.019.355a71.086,71.086,0,0,0,9.634,2.477c1.7.315,3.425.548,5.134.837a20.08,20.08,0,0,0,2.328.258c.858.044,1.718-.136,2.565-.043-1.662.921-3.682,1.175-5.46,1.755-2.063.674-4.131,1.3-6.219,1.879q-4.22,1.174-8.473,2.2l-.014.271q4.479-1.084,8.927-2.315C950.132,410.671,952.268,409.993,954.414,409.308Z" transform="translate(-937.76 -357.943)" fill="#d99543"/>
          <path id="Path_1909" data-name="Path 1909" d="M980.537,466.932a146.24,146.24,0,0,0-27.393,2.9q-3.55.719-7.059,1.669c-2.42.659-4.773,1.509-7.16,2.282-.906.294-1.821.585-2.732.893l-.02.387c.918-.313,1.841-.609,2.756-.9,2.111-.681,4.192-1.441,6.321-2.056,2.266-.654,4.555-1.207,6.853-1.7a143.916,143.916,0,0,1,27.723-3.1,121.907,121.907,0,0,1,14.409.575c2.452.25,4.891.573,7.322.94l.021-.4c-2.331-.348-4.671-.654-7.021-.9A122.085,122.085,0,0,0,980.537,466.932Z" transform="translate(-935.503 -407.85)" fill="#d99543"/>
          <path id="Path_1910" data-name="Path 1910" d="M958.391,506.366a76.459,76.459,0,0,0-23.652,4.99l-.02.382a69.321,69.321,0,0,1,18.512-4.567,158.323,158.323,0,0,1,27.784-.468c6.33.37,12.654.864,18.943,1.56l.019-.358c-4.592-.5-9.2-.9-13.819-1.22A199.335,199.335,0,0,0,958.391,506.366Z" transform="translate(-934.357 -438.661)" fill="#d99543"/>
          <path id="Path_1911" data-name="Path 1911" d="M974.748,544.05c-4.641-.235-9.282-.463-13.948-.352a105.167,105.167,0,0,0-27.776,4.367l-.013.24a103.372,103.372,0,0,1,21.125-4.017c9.394-.8,18.78-.185,28.093.435,5.334.355,10.657.829,15.95,1.472l.013-.251q-4.766-.576-9.56-.98C984.016,544.571,979.385,544.284,974.748,544.05Z" transform="translate(-933.012 -468.341)" fill="#d99543"/>
          <path id="Path_1912" data-name="Path 1912" d="M984.3,589.576q-7.059-.472-14.146-.681c-7-.2-14-.242-21.024.152q-6.668.374-13.32,1.238c.068.093.139.183.214.269,16.492-2.064,33.031-1.745,49.451-.6q5.111.356,10.207.827c.844.077,1.687.165,2.528.261q.155-.117.3-.246l-.053-.007C993.774,590.192,989.024,589.892,984.3,589.576Z" transform="translate(-935.217 -503.87)" fill="#d99543"/>
        </g>
        <path id="Path_1913" data-name="Path 1913" d="M1026.183,219.08H974.959l-4.07,77.58s14.6-1.448,25.688-1.448,25.536,1.448,25.536,1.448Z" transform="translate(-962.663 -199.669)" fill="#e6e7e8" style="mix-blend-mode: multiply;isolation: isolate"/>
        <path id="Path_1914" data-name="Path 1914" d="M1019.1,214.259H967l-4.04,77h52.1Z" transform="translate(-956.413 -195.87)" fill="#f5f5f5"/>
        <path id="Path_1915" data-name="Path 1915" d="M1035.874,188.041l-1.082,1.39-12.054,2.845a2.588,2.588,0,0,0-1.486,1.054l-3.462,5.153c-.639.951-.3,1.889.689,1.889h34.837a2.416,2.416,0,0,0,2.2-1.889l.65-5.153a.9.9,0,0,0-.646-1.054l-9.784-2.845.028-1.39Z" transform="translate(-999.373 -175.205)" fill="#e6e7e8" style="mix-blend-mode: multiply;isolation: isolate"/>
        <g id="Group_1461" data-name="Group 1461" transform="translate(17.88 0)">
          <path id="Path_1916" data-name="Path 1916" d="M1052.118,144.071l-10.77-2.845-.961-2.942a6.634,6.634,0,0,0,2.186-4.694,5.936,5.936,0,0,0-5.573-6.136,6.7,6.7,0,0,0-7.027,6.284,5.961,5.961,0,0,0,1.7,4.546l-1.27,2.942-11.069,2.845a1.607,1.607,0,0,0-1.121,1.053l-1.676,5.153a1.416,1.416,0,0,0,1.344,1.889h34.837a1.583,1.583,0,0,0,1.542-1.889l-1.135-5.153A1.392,1.392,0,0,0,1052.118,144.071Zm-15.628-14.512a1.37,1.37,0,0,1,1.382,1.459,1.555,1.555,0,0,1-1.535,1.459,1.37,1.37,0,0,1-1.382-1.459A1.555,1.555,0,0,1,1036.49,129.559Z" transform="translate(-1016.465 -127.441)" fill="#bcbec0"/>
        </g>
        <g id="Group_1462" data-name="Group 1462" transform="translate(17.465 0)">
          <path id="Path_1917" data-name="Path 1917" d="M1050.158,144.071l-10.77-2.845-.961-2.942a6.633,6.633,0,0,0,2.186-4.694,5.936,5.936,0,0,0-5.573-6.136,6.7,6.7,0,0,0-7.027,6.284,5.961,5.961,0,0,0,1.7,4.546l-1.27,2.942-11.069,2.845a1.607,1.607,0,0,0-1.121,1.053l-1.676,5.153a1.416,1.416,0,0,0,1.344,1.889h34.837a1.584,1.584,0,0,0,1.542-1.889l-1.136-5.153A1.392,1.392,0,0,0,1050.158,144.071Zm-15.628-14.512a1.37,1.37,0,0,1,1.382,1.459,1.555,1.555,0,0,1-1.535,1.459,1.37,1.37,0,0,1-1.382-1.459A1.555,1.555,0,0,1,1034.53,129.559Z" transform="translate(-1014.505 -127.441)" fill="#d1d3d4"/>
        </g>
      </g>
      <line id="Line_118" data-name="Line 118" x2="37.184" transform="matrix(0.985, 0.174, -0.174, 0.985, -481.754, -18850.965)" fill="none" stroke="#353f4f" stroke-linecap="round" stroke-width="3"/>
      <line id="Line_119" data-name="Line 119" x2="37.184" transform="matrix(0.985, 0.174, -0.174, 0.985, -483.16, -18843.127)" fill="none" stroke="#353f4f" stroke-linecap="round" stroke-width="3"/>
      <line id="Line_120" data-name="Line 120" x2="35.564" transform="matrix(0.985, 0.174, -0.174, 0.985, -485.566, -18835.291)" fill="none" stroke="#353f4f" stroke-linecap="round" stroke-width="3"/>
      <line id="Line_121" data-name="Line 121" x2="32.385" transform="matrix(0.985, 0.174, -0.174, 0.985, -487.285, -18827.736)" fill="none" stroke="#353f4f" stroke-linecap="round" stroke-width="3"/>
      <line id="Line_122" data-name="Line 122" x2="37.184" transform="matrix(0.985, 0.174, -0.174, 0.985, -489.648, -18820.734)" fill="none" stroke="#353f4f" stroke-linecap="round" stroke-width="3"/>
      <line id="Line_123" data-name="Line 123" x2="33.195" transform="matrix(0.985, 0.174, -0.174, 0.985, -491.753, -18812.898)" fill="none" stroke="#353f4f" stroke-linecap="round" stroke-width="3"/>
    </g>
  </g>
</svg>
