<svg xmlns="http://www.w3.org/2000/svg" width="110.476" height="111.688" viewBox="0 0 110.476 111.688">
  <g id="Group_218" data-name="Group 218" transform="translate(0 0)">
    <path id="Path_448" data-name="Path 448" d="M19.744,0h0C33.366,0,44.408,10.211,44.408,22.807S40.214,41.554,16.559,45.613h0C2.937,45.613,0,18.724,0,18.724S6.123,0,19.744,0Z" transform="translate(83.078 75.171) rotate(166)" fill="#e79e17"/>
    <rect id="Rectangle_163" data-name="Rectangle 163" width="26.82" height="4.126" rx="2.063" transform="translate(110.476 55.458) rotate(172)" fill="#e79e17"/>
    <rect id="Rectangle_165" data-name="Rectangle 165" width="30.258" height="5.501" rx="2.751" transform="translate(30.729 62.274) rotate(172)" fill="#e79e17"/>
    <rect id="Rectangle_168" data-name="Rectangle 168" width="24.069" height="4.126" rx="2.063" transform="translate(32.156 45.611) rotate(-150)" fill="#e79e17"/>
    <rect id="Rectangle_164" data-name="Rectangle 164" width="24.069" height="4.126" rx="2.063" transform="matrix(-0.53, -0.848, 0.848, -0.53, 77.478, 104.055)" fill="#e79e17"/>
    <rect id="Rectangle_166" data-name="Rectangle 166" width="30.258" height="4.126" rx="2.063" transform="translate(65.152 0.717) rotate(100)" fill="#e79e17"/>
    <rect id="Rectangle_167" data-name="Rectangle 167" width="29.57" height="4.126" rx="2.063" transform="translate(51.621 82.566) rotate(100)" fill="#e79e17"/>
  </g>
</svg>
