<svg xmlns="http://www.w3.org/2000/svg" width="94.033" height="98.618" viewBox="0 0 94.033 98.618">
  <g id="Group_217" data-name="Group 217" transform="translate(0 0)">
    <path id="Path_449" data-name="Path 449" d="M19.744,0h0C33.366,0,44.408,10.211,44.408,22.807S40.214,41.554,16.559,45.613h0C2.937,45.613,0,18.724,0,18.724S6.123,0,19.744,0Z" transform="translate(39.971 17.392) rotate(31)" fill="rgba(145,145,145,0.27)"/>
    <rect id="Rectangle_169" data-name="Rectangle 169" width="26.82" height="4.126" rx="2.063" transform="matrix(0.799, 0.602, -0.602, 0.799, 6.659, 11.958)" fill="rgba(145,145,145,0.27)"/>
    <rect id="Rectangle_174" data-name="Rectangle 174" width="30.258" height="5.501" rx="2.751" transform="matrix(0.799, 0.602, -0.602, 0.799, 67.868, 63.528)" fill="rgba(145,145,145,0.27)"/>
    <rect id="Rectangle_180" data-name="Rectangle 180" width="24.069" height="4.126" rx="2.063" transform="matrix(0.259, 0.966, -0.966, 0.259, 55.077, 74.301)" fill="rgba(145,145,145,0.27)"/>
    <rect id="Rectangle_170" data-name="Rectangle 170" width="24.069" height="4.126" rx="2.063" transform="matrix(-0.225, 0.974, -0.974, -0.225, 64.355, 0.928)" fill="rgba(145,145,145,0.27)"/>
    <rect id="Rectangle_175" data-name="Rectangle 175" width="30.258" height="4.126" rx="2.063" transform="matrix(0.819, -0.574, 0.574, 0.819, 0, 82.715)" fill="rgba(145,145,145,0.27)"/>
    <rect id="Rectangle_171" data-name="Rectangle 171" width="29.57" height="4.126" rx="2.063" transform="matrix(0.819, -0.574, 0.574, 0.819, 67.444, 34.406)" fill="rgba(145,145,145,0.27)"/>
  </g>
</svg>
