<svg width="94.033" height="98.618" xmlns="http://www.w3.org/2000/svg"><g fill="#e79e17" data-name="Group 219"><path d="M56.895 27.56c11.676 7.017 15.882 21.456 9.395 32.253s-13.25 13.91-35.618 5.205c-11.676-7.015-.345-31.576-.345-31.576S45.22 20.546 56.895 27.56Z" data-name="Path 442"/><rect width="26.82" height="4.126" data-name="Rectangle 157" rx="2.063" transform="rotate(37 -14.536 15.925)"/><rect width="30.258" height="5.501" data-name="Rectangle 160" rx="2.751" transform="rotate(37 -60.985 133.14)"/><rect width="24.069" height="4.126" data-name="Rectangle 161" rx="2.063" transform="rotate(74.99 -20.89 73.04)"/><rect width="24.069" height="4.126" data-name="Rectangle 162" rx="2.063" transform="scale(-1) rotate(-77 -32.772 40.008)"/><rect width="30.258" height="4.126" data-name="Rectangle 158" rx="2.063" transform="rotate(-35.02 131.07 41.33)"/><rect width="29.57" height="4.126" data-name="Rectangle 159" rx="2.063" transform="rotate(-35.02 88.22 -89.68)"/></g></svg>