<svg width="205.636" height="258.265" xmlns="http://www.w3.org/2000/svg"><defs><clipPath id="Figur_start_mine_værdier_svg__a"><path fill="#323f51" d="M0 0h56.641v71.745H0z" data-name="Rectangle 354"/></clipPath></defs><g data-name="Group 848"><g data-name="Group 847"><g data-name="Group 845"><g fill="#323f51" clip-path="url(#Figur_start_mine_værdier_svg__a)" data-name="Group 844" transform="rotate(-14 122.461 -536.055)"><path d="M56.641 43.425a28.34 28.34 0 0 0-24.167-27.981v-2.228c0-.068-.017-.131-.021-.2a7.175 7.175 0 1 0-8.265 0c0 .066-.021.13-.021.2v2.228a28.3 28.3 0 1 0 32.474 27.981M28.321 69.48a26.039 26.039 0 0 1-4.154-51.747c.376-.06.751-.128 1.133-.172a24.07 24.07 0 0 1 6.042 0c.382.044.757.112 1.133.172a26.039 26.039 0 0 1-4.154 51.747m-1.889-55.415v-.849a1.888 1.888 0 0 1 3.776 0V15.2c-.627-.041-1.251-.1-1.888-.1s-1.261.054-1.888.1Zm-3.02-6.89a4.909 4.909 0 1 1 8.239 3.584 4.118 4.118 0 0 0-6.661 0 4.883 4.883 0 0 1-1.578-3.584" data-name="Path 1235"/><path d="M44.112 27.728c-.017-.017-.021-.039-.038-.057s-.041-.021-.057-.038a22.233 22.233 0 0 0-31.393 0c-.017.017-.039.021-.057.038s-.021.041-.038.057a22.233 22.233 0 0 0 0 31.393c.017.017.021.039.038.057s.041.021.057.038a22.233 22.233 0 0 0 31.393 0c.017-.017.039-.021.057-.038s.021-.041.038-.057a22.233 22.233 0 0 0 0-31.393m.823 16.829h3.341a19.9 19.9 0 0 1-5.09 12.219 1.107 1.107 0 0 0-1.513 1.513 19.9 19.9 0 0 1-12.219 5.09V60.04a1.133 1.133 0 1 0-2.266 0v3.341a19.9 19.9 0 0 1-12.219-5.09 1.107 1.107 0 0 0-1.513-1.513 19.9 19.9 0 0 1-5.09-12.219h3.34a1.133 1.133 0 0 0 0-2.266H8.365a19.9 19.9 0 0 1 5.09-12.22 1.11 1.11 0 0 0 .539.159 1.133 1.133 0 0 0 .8-.332 1.117 1.117 0 0 0 .174-1.34 19.9 19.9 0 0 1 12.219-5.09v1.83a1.133 1.133 0 1 0 2.266 0v-1.831a19.9 19.9 0 0 1 12.219 5.09 1.117 1.117 0 0 0 .174 1.34 1.133 1.133 0 0 0 .8.332 1.11 1.11 0 0 0 .539-.159 19.9 19.9 0 0 1 5.09 12.219h-3.339a1.133 1.133 0 0 0 0 2.266" data-name="Path 1236"/><path d="M28.335 30.964a1.133 1.133 0 1 0 0-2.266h-.015a1.127 1.127 0 0 0-1.125 1.133 1.14 1.14 0 0 0 1.14 1.133" data-name="Path 1237"/><path d="M33.659 38.773a1.145 1.145 0 0 0-.122-.18 1.245 1.245 0 0 0-.154-.23 1.3 1.3 0 0 0-.231-.157 1.22 1.22 0 0 0-.181-.121l-6-2.134-7.257-2.58a1.134 1.134 0 0 0-1.447 1.447l4.714 13.257a1.032 1.032 0 0 0 .122.181 1.245 1.245 0 0 0 .154.23 1.289 1.289 0 0 0 .231.156 1.122 1.122 0 0 0 .181.122l13.258 4.714a1.177 1.177 0 0 0 .379.065.2.2 0 0 1 .03 0 1.134 1.134 0 0 0 .956-1.742Zm-7.541 8.458 6.008-6.008 3.314 9.321Zm4.4-7.613-6.004 6.009-3.313-9.319Z" data-name="Path 1238"/></g></g><g data-name="Group 846"><g data-name="Group 359"><g fill="#323f51" data-name="Group 314"><path stroke="#323f51" stroke-width="2" d="M79.376 116.577a14.1 14.1 0 0 1-4.091-2.7c-.6-.557-.876-1.181-.275-1.853.576-.643 1.164-.341 1.706.147 4.23 3.811 8.891 4.01 13.855 1.64.248-.118.5-.224.744-.348.613-.313 1.2-.333 1.559.33a1.1 1.1 0 0 1-.545 1.641c-4.159 2.157-8.442 2.983-12.953 1.143Z" data-name="Path 568"/><path stroke="#313f50" stroke-width="1.99988" d="M72.89 74.357a9.056 9.056 0 0 1 2.831.526c.448.154.701.407.454.847-.237.422-.63.388-1.026.255-3.089-1.041-5.863-.247-8.408 1.852-.127.104-.26.204-.382.311-.311.27-.653.391-.969.138s-.29-.593.062-.9a10.878 10.878 0 0 1 7.437-3.03Z" data-name="Path 574"/><path stroke="#313f50" stroke-width="2.00024" d="M105.067 75.917a9.058 9.058 0 0 1 2.088 1.985c.292.372.367.722-.08.957-.43.225-.741-.018-1-.345-2.024-2.557-4.783-3.402-8.061-3.028-.163.018-.33.03-.49.053-.408.056-.761-.028-.888-.412s.08-.656.542-.723a10.88 10.88 0 0 1 7.889 1.513Z" data-name="Path 573"/><path stroke="rgba(0,0,0,0)" stroke-miterlimit="10" d="M75.723 99.999a5.154 5.154 0 0 1-3.646-1.5 4.638 4.638 0 0 1 .013-6.511 5.027 5.027 0 0 1 3.485-1.28h.077a4.82 4.82 0 0 1 3.254 1.114 2.465 2.465 0 0 0-.59-.069h-.037a1.959 1.959 0 0 0-1.5 3.334 2.2 2.2 0 0 0 1.561.644h.085a1.833 1.833 0 0 0 1.806-1.445 5.422 5.422 0 0 1 .071 1 4.977 4.977 0 0 1-1.225 3.368 4.414 4.414 0 0 1-3.156 1.35c-.066-.006-.133-.005-.198-.005Z" data-name="Subtraction 6"/><path stroke="rgba(0,0,0,0)" stroke-miterlimit="10" d="M97.722 100.18h-.039a4.535 4.535 0 0 1-3.393-1.255 4.856 4.856 0 0 1-1.174-3.517 5.042 5.042 0 0 1 1.322-3.485 4.557 4.557 0 0 1 3.326-1.371h.011a4.556 4.556 0 0 1 3.515 1.662 2.067 2.067 0 0 0-1.407-.487h-.035a1.969 1.969 0 0 0-1.505 3.354 2.213 2.213 0 0 0 1.566.645h.088a1.907 1.907 0 0 0 1.886-2.03 2.117 2.117 0 0 0-.146-.843 5.107 5.107 0 0 1 .687 2.626 4.753 4.753 0 0 1-1.3 3.418 4.678 4.678 0 0 1-3.402 1.283Zm4.007-7.34a4.777 4.777 0 0 0-.439-.626 1.714 1.714 0 0 1 .441.625Z" data-name="Exclusion 2"/></g><g fill="none" stroke="#353f4f" data-name="Group 313"><path stroke-linecap="round" stroke-linejoin="round" stroke-width="3" d="M66.383 206.242c-.224 17.962-.448 30.054-.671 48.015a94.7 94.7 0 0 1-18.445.345" data-name="Path 557"/><path stroke-linecap="round" stroke-linejoin="round" stroke-width="3" d="M104.264 208.729a461.389 461.389 0 0 0-.073 47.459 42.689 42.689 0 0 1 18.543.27" data-name="Path 558"/><path stroke-miterlimit="10" stroke-width="4.5" d="M66.524 37.837c-14.289 7.92-22.95 23.1-29.088 38.243a209.17 209.17 0 0 0-14.883 90.75c.358 5.941 1.016 12.035 3.749 17.323 3.47 6.715 9.925 11.408 16.692 14.774 12.842 6.391 27.32 8.807 41.645 9.577 12.177.655 24.683.124 36.046-4.3s21.5-13.266 25.05-24.932c2.1-6.905 1.807-14.279 1.495-21.49l-.921-21.293c-.822-19-1.708-38.345-8.093-56.265s-19.222-34.541-37.208-40.728c-5.728-1.971-12.706-6.622-18.682-5.637-12.978 2.137-14.109 3.033-15.8 3.975" data-name="Path 559"/></g><path fill="none" stroke="#323f51" stroke-linecap="round" stroke-linejoin="round" stroke-width="3" d="M147.084 139.955c12.715-3.192 21.605-5.994 31.512-11.2 12.418-6.524 19.008-15.524 21.563-24.571s1.389-18.252.22-27.375" data-name="Path 575"/><path fill="none" stroke="#323f51" stroke-linecap="round" stroke-linejoin="round" stroke-width="3" d="M23.72 122.694a45.676 45.676 0 0 0-12.868 12.944c-5.071 7.541-7.762 17.945-8.805 28.4s-.567 21.1-.09 31.643" data-name="Path 576"/></g></g></g><path fill="#323f51" d="m160.458 42.4 13.612 1.624-5.4 9.353Z" data-name="Polygon 1"/></g></svg>