<?xml version="1.0" encoding="UTF-8" standalone="no"?>
<!-- Created with Inkscape (http://www.inkscape.org/) -->

<svg
   version="1.1"
   id="svg2"
   width="232.43842"
   height="286.11761"
   viewBox="0 0 232.43841 286.11761"
   xmlns="http://www.w3.org/2000/svg"
   xmlns:svg="http://www.w3.org/2000/svg">
  <defs
     id="defs6" />
  <g
     id="g8"
     transform="translate(-34.607828,-3.9415876)">
    <path
       style="fill:#4a82e3;fill-opacity:1;stroke-width:1"
       d="m 126.38918,288.54771 c -1.95359,-0.71552 -3.8555,-2.0919 -4.22646,-3.05862 -0.37096,-0.9667 1.37743,-6.47774 3.88532,-12.24676 2.50788,-5.769 4.55979,-11.16998 4.55979,-12.00217 0,-1.78448 -22.93703,-5.59121 -40.583602,-6.73544 l -12.08307,-0.78349 -7.63816,11.27686 c -12.99242,19.18179 -14.75575,20.30683 -26.65018,17.00342 -5.76475,-1.60104 -9.04499,-4.46266 -9.04499,-7.89068 0,-1.3335 5.4981,-10.14064 12.21801,-19.57143 11.07705,-15.54565 45.89358,-66.89552 75.874182,-111.9046 6.38353,-9.58343 12.8347,-19.78342 14.33595,-22.66667 1.50124,-2.88325 5.37815,-8.74232 8.61535,-13.02016 3.23721,-4.27783 8.48266,-12.377832 11.65657,-17.999998 6.55323,-11.608197 40.85461,-64.126621 48.47673,-74.22212 8.2473,-10.9235643 12.82321,-13.0937923 12.82321,-6.0816962 0,3.6667472 0.4066,3.9726582 6.33333,4.7649662 3.48334,0.465665 9.59354,1.402429 13.57822,2.081697 11.12128,1.895843 11.68896,1.7249 15.42118,-4.64365 3.86279,-6.5913485 6.3361,-8.0824972 10.08145,-6.0780484 5.27248,2.821743 4.43924,6.5263744 -8.85231,39.3580304 -7.11006,17.562619 -19.38375,48.432035 -27.2749,68.598699 -12.20456,31.19006 -32.38254,80.82695 -61.5188,151.33334 -3.63653,8.8 -7.53719,18.25 -8.66813,21 l -2.05625,5 -12.85523,-0.1052 c -7.07038,-0.0579 -14.45362,-0.6907 -16.40721,-1.40622 z m 21.79592,-10.45867 c 1.42435,-1.759 2.92715,-4.88531 3.33956,-6.94735 0.41241,-2.06204 1.27484,-3.74917 1.9165,-3.74917 0.64167,0 1.16667,-0.63233 1.16667,-1.40519 0,-0.77285 2.94742,-7.53124 6.54983,-15.01864 3.6024,-7.4874 9.65826,-21.40506 13.45746,-30.92814 10.55284,-26.45178 26.15842,-63.38131 34.92514,-82.64803 4.33785,-9.53333 10.9215,-25.43333 14.63033,-35.33333 3.70883,-9.900004 10.49331,-26.400004 15.07663,-36.666671 4.58332,-10.266667 8.75489,-20.016667 9.27014,-21.666667 6.26882,-8.866849 8.3452,-21.787583 14.89752,-29.134754 2.09661,-1.297186 -3.01958,-7.4678128 -4.82738,-5.0062753 -2.0535,3.0516623 -2.58238,5.5893873 -4.30056,8.5691713 -2.65874,5.59287 -3.03599,5.924373 -6.82936,14.897345 -3.09659,4.076204 -14.17476,27.271968 -20.85868,43.674513 -1.64355,4.033334 -24.8139,51.529228 -51.48966,105.546438 -26.67575,54.0172 -48.50137,98.63491 -48.50137,99.15046 0,0.51554 4.2722,0.69596 9.49377,0.40092 8.05113,-0.45494 9.8873,-1.02243 12.0835,-3.73463 z m -95.047612,-4.18188 c 3.05002,-1.06325 6.13182,-4.25792 10.84425,-11.24143 3.62082,-5.36584 7.19294,-10.13284 7.93804,-10.59333 0.74509,-0.46049 1.35472,-3.9046 1.35472,-7.65359 0,-7.70269 2.57305,-11.69296 7.53998,-11.69296 1.71968,0 3.12668,-0.52933 3.12668,-1.17629 0,-0.64696 3.22349,-5.57692 7.16331,-10.95545 6.49842,-8.8715 7.039192,-10.13518 5.82621,-13.61475 -2.709,-7.77104 3.154912,-18.18087 10.307162,-18.29764 1.88827,-0.0308 4.69154,-3.13785 9.29774,-10.30517 5.27066,-8.20124 6.52421,-11.23347 6.24466,-15.10528 -0.37969,-5.25867 1.98276,-8.66644 6.92082,-9.98315 4.42468,-1.17981 13.4439,-15.82295 14.2401,-23.1195 0.56656,-5.19203 1.27781,-6.40463 4.73654,-8.07527 2.23843,-1.08121 5.68847,-4.23928 7.66676,-7.01793 3.07452,-4.31839 3.35625,-5.43745 1.93986,-7.70544 -1.99646,-3.19684 -0.0945,-7.07431 3.79975,-7.746277 1.38807,-0.23952 4.09975,-2.301561 6.02595,-4.582312 2.92125,-3.458956 3.31282,-4.807104 2.36057,-8.127387 -1.35587,-4.727636 0.42337,-7.521485 4.78999,-7.521485 3.30713,0 10.7496,-9.730957 9.27156,-12.122484 -1.36032,-2.201025 0.62049,-7.877516 2.74884,-7.877516 3.14982,0 9.32685,-10.533619 9.32685,-15.904971 0,-3.792522 0.55927,-4.841688 2.74777,-5.154712 2.94634,-0.421414 7.25776,-6.618794 6.34755,-9.124144 -0.51876,-1.42785 5.17001,-10.942246 7.44621,-12.453693 0.57634,-0.382697 1.45567,-2.495813 1.9541,-4.695813 l 0.90621,-3.9999996 -2.59664,3.2960556 c -9.79206,14.046886 -18.80301,29.29205 -26.55884,40.989018 -18.45373,27.77873 -28.80458,44.009315 -40.91611,64.1583 -2.9394,4.89005 -13.4448,19.9794 -18.78487,26.98152 -3.11438,4.08369 -12.19144,17.88369 -20.17125,30.66667 -7.979819,12.78297 -21.078462,32.30614 -29.108112,43.38482 -15.41111,21.26304 -38.31546,53.77843 -39.01173,55.38168 -0.35573,0.8191 1.52422,1.31963 8.54675,2.2755 0.80723,0.10986 3.38511,-0.46864 5.72862,-1.28559 z m 64.803672,-23.40097 c 10.39596,-0.84719 12.10066,-1.47754 13.74283,-5.0817 0.84333,-1.85092 1.3962,-3.36837 1.22859,-3.37213 -0.16761,-0.004 -11.70475,-1.46796 -25.63808,-3.2538 -23.792322,-3.04947 -25.472762,-3.10988 -27.625472,-0.99317 -1.26068,1.23958 -2.46068,3.72422 -2.66667,5.52141 -0.36002,3.14107 0.0644,3.32613 10.9588,4.77885 6.23334,0.83118 12.833342,2.18724 14.666672,3.01346 1.83333,0.82622 4.53333,1.14854 6,0.71629 1.46667,-0.43227 5.66667,-1.03041 9.33333,-1.32921 z m 29.04918,-21.15236 c 3.51627,-7.10624 4.47802,-10.21435 3.29239,-10.64003 -0.9212,-0.33075 -11.8749,-1.79107 -24.34157,-3.24517 -15.55104,-1.81387 -22.82043,-2.19806 -23.15649,-1.22383 -0.26941,0.78101 -3.367578,5.22205 -6.884832,9.86899 l -6.395,8.44896 7.5515,0.81824 c 13.589822,1.47253 36.834122,4.84972 37.421412,5.437 0.31599,0.316 2.14295,0.57453 4.05992,0.57453 3.00986,0 4.16313,-1.36967 8.45267,-10.03869 z m -0.0887,-21.47736 c 3.32597,-1.6917 7.24296,-6.72495 6.11293,-7.85499 -0.26179,-0.26179 -10.9604,-2.32328 -23.77469,-4.58111 l -23.29872,-4.10513 -3,3.43632 c -2.77284,3.17613 -4.286729,11.56 -2,11.07595 0.55,-0.1164 1.9,0.13417 3,0.55689 2.67399,1.02756 11.93492,2.30025 23.33334,3.20659 5.13333,0.40817 9.58993,0.9826 9.90355,1.27649 0.73534,0.68911 5.11591,-0.66739 9.72359,-3.01101 z m 20.71428,-19.43983 c 2.67186,-4.92575 4.4968,-9.31701 4.05544,-9.75837 -0.44137,-0.44136 -8.21121,-1.9097 -17.26634,-3.26295 -9.05512,-1.35327 -18.86386,-2.84188 -21.79719,-3.30804 l -5.33333,-0.84756 -5.69268,8.92928 c -3.13097,4.91111 -5.53097,9.08529 -5.33333,9.27599 0.19763,0.19069 7.85934,1.6288 17.02601,3.1958 9.16666,1.567 18.76666,3.36769 21.33333,4.00154 2.56667,0.63386 5.45046,1.05746 6.40843,0.94132 0.95797,-0.11613 3.92782,-4.24128 6.59966,-9.16701 z m 3.60672,-22.52624 c 1.61464,-1.53648 2.12464,-2.92193 1.33334,-3.62205 -1.15643,-1.02316 -17.62587,-4.0662 -34.33386,-6.34383 -6.89733,-0.94024 -11.61429,1.53468 -11.61429,6.09385 0,1.81947 3.02209,2.7319 16.33333,4.93134 17.90592,2.95864 24.31128,2.71872 28.28148,-1.05931 z m 19.32031,-24.33044 c -0.33099,-0.31443 -8.40179,-1.56615 -17.93512,-2.78157 -9.53333,-1.21544 -18.5735,-2.51647 -20.08926,-2.89116 -2.19392,-0.54235 -3.82533,0.89913 -8,7.06868 -2.88424,4.26246 -5.44407,8.19994 -5.68852,8.74994 -0.24444,0.55 2.45556,1.00788 6,1.01752 6.61081,0.018 27.82049,4.02198 33.77778,6.37664 3.16643,1.25155 3.56375,0.85974 7.93512,-7.82541 2.53099,-5.02863 4.33099,-9.40021 4,-9.71464 z m -2.37484,-9.88106 c 0.90185,-0.90184 1.30161,-1.63971 0.88837,-1.63971 -0.41324,0 -3.81268,-0.58057 -7.55432,-1.29016 -16.08913,-3.05124 -29.79462,-4.17581 -31.69279,-2.60046 -3.2151,2.66829 -2.10755,3.518 5.79846,4.44859 4.21667,0.49633 9.00459,1.63847 10.63981,2.53809 3.6373,2.00107 19.51815,0.94598 21.92047,-1.45635 z m 12.24992,-7.80479 c 1.26725,-2.65746 2.00167,-5.13417 1.63203,-5.50381 -0.9796,-0.9796 -30.1448,-6.87678 -34.33348,-6.94221 -2.66844,-0.0417 -4.2898,1.12863 -6.48543,4.68123 -1.61012,2.60524 -2.70906,4.92359 -2.44208,5.15189 0.26699,0.2283 5.88543,1.09883 12.48543,1.9345 6.6,0.83568 15,2.34286 18.66666,3.3493 3.66667,1.00644 7.00554,1.90435 7.41972,1.99536 0.41418,0.091 1.7899,-2.0088 3.05715,-4.66626 z m -3.87293,-14.04894 c 7.35066,-3.34919 4.2092,-4.09445 -25.2706,-5.99503 -5.86667,-0.37823 -10.30458,-0.32383 -9.86203,0.12088 0.44256,0.44471 5.54256,1.76544 11.33333,2.93495 11.39871,2.3021 19.70212,4.08928 20.13263,4.33322 0.14883,0.0843 1.79883,-0.54298 3.66667,-1.39402 z m 14.12865,-9.24852 c 1.53272,-3.004402 2.56184,-5.687476 2.28693,-5.962392 -0.53444,-0.534438 -36.2094,-4.64481 -36.30502,-4.182966 -0.0312,0.151008 -1.40482,2.200264 -3.05234,4.553903 -1.64752,2.35364 -2.99549,4.533148 -2.99549,4.843358 0,0.310197 4.35,0.981407 9.66667,1.491567 7.65044,0.73409 25.76209,3.75874 27.30624,4.56013 0.16842,0.0874 1.56028,-2.29921 3.09301,-5.3036 z m -7.50697,-13.678824 c 4.16148,0.570394 6.10772,0.354537 6.10772,-0.677408 0,-0.903643 -2.55464,-1.555715 -6.33334,-1.61658 -3.48333,-0.05611 -7.51776,-0.322748 -8.9654,-0.592534 -8.44996,-1.574753 -19.13693,-2.091236 -19.83689,-0.958682 -0.46327,0.749592 2.60148,1.597133 7.32371,2.025329 4.46618,0.40498 8.74286,1.358849 9.50373,2.119709 0.89503,0.895032 2.2146,0.938522 3.73805,0.1232 1.29508,-0.693102 5.10316,-0.883465 8.46242,-0.423029 z m 17.5872,-8.336088 c 1.10553,-2.64593 1.67068,-5.150166 1.25588,-5.56497 -0.68264,-0.682644 -25.25623,-4.11409 -30.0687,-4.198782 -1.1,-0.01936 -3.64276,2.287789 -5.65058,5.126993 l -3.65058,5.162191 13.46283,0.963586 c 7.40456,0.529974 15.04732,1.442606 16.98392,2.028072 5.43364,1.642684 5.52976,1.598596 7.66723,-3.51709 z m -0.81282,-12.522552 c 0,-0.75465 -3.32742,-1.257155 -7.66666,-1.157812 -6.82884,0.15634 -7.15668,0.282868 -3,1.157812 7.04009,1.481873 10.66666,1.481873 10.66666,0 z m -16,-1.333334 c 0,-0.733333 -1.725,-1.333333 -3.83333,-1.333333 -2.10833,0 -5.70833,-0.375 -8,-0.833333 -2.58496,-0.516994 -4.16667,-0.293023 -4.16667,0.590002 0,0.782835 2.55,1.653011 5.66667,1.933724 3.11667,0.280714 6.71667,0.615212 8,0.743331 1.28333,0.128119 2.33333,-0.367057 2.33333,-1.100391 z m 25.8102,-6.165074 c 1.26726,-2.657459 2.07347,-5.06237 1.79159,-5.344248 -0.55588,-0.555886 -21.02408,-3.461567 -25.96648,-3.686222 -2.03937,-0.09269 -3.92085,1.255395 -5.74951,4.119586 l -2.71814,4.257374 5.08284,0.826912 c 2.79556,0.4548 8.68284,1.618828 13.08284,2.586728 11.70878,2.575666 11.95476,2.52877 14.47686,-2.76013 z m 0.12314,-12.326979 c -1.31799,-1.205664 -23.54648,-5.507947 -28.45778,-5.507947 -5.43836,0 -2.73265,2.512536 3.52444,3.272823 3.48334,0.423252 9.03334,1.277397 12.33334,1.898099 8.38853,1.577812 14.12408,1.731226 12.6,0.337025 z m 8.9785,-6.180248 c 0.83674,-1.836432 1.26688,-3.593428 0.95587,-3.904433 -0.311,-0.311006 -6.55847,-1.743228 -13.88325,-3.182716 -13.29456,-2.612684 -13.32186,-2.612594 -15.65112,0.05215 -1.28334,1.468168 -2.33334,3.12094 -2.33334,3.672827 0,0.924675 5.93771,2.3952 21.33334,5.283384 3.3,0.619072 6.46286,1.191325 7.02858,1.271673 0.56572,0.08035 1.71319,-1.356448 2.54992,-3.192881 z m 1.44687,-8.202281 c -0.90271,-0.365231 -2.70271,-0.387463 -4,-0.0494 -1.29729,0.338058 -0.55871,0.636884 1.64129,0.664056 2.2,0.02717 3.26142,-0.24942 2.35871,-0.614651 z m -8,-1.333334 c -0.90271,-0.36523 -2.70271,-0.387462 -4,-0.0494 -1.29729,0.338059 -0.55871,0.636884 1.64129,0.664056 2.2,0.02717 3.26142,-0.24942 2.35871,-0.61465 z m 12.97463,-2.349701 c 0,-0.306688 0.33121,-1.420735 0.73602,-2.475659 1.09842,-2.862416 -28.43288,-7.592828 -30.17945,-4.834237 -0.65032,1.027132 -1.1916,2.227283 -1.20283,2.667 -0.0107,0.439719 5.82959,1.719501 12.97959,2.843961 14.56939,2.291287 17.66667,2.606672 17.66667,1.798935 z m 0.6,-7.305156 c -0.69667,-0.657859 -3.96667,-1.537716 -7.26667,-1.955239 l -6,-0.75913 6,1.824337 c 7.48108,2.274671 8.91957,2.450859 7.26667,0.890032 z m -16.71111,-3.285015 c -0.30556,-0.264617 -3.25556,-0.838126 -6.55556,-1.274464 -4.00639,-0.529738 -5.11395,-0.401014 -3.33333,0.387408 2.54648,1.127535 11.04706,1.890056 9.88889,0.887056 z"
       id="path827" />
  </g>
</svg>
