<svg width="52" height="60" viewBox="0 0 52 60" fill="none" xmlns="http://www.w3.org/2000/svg">
<g clip-path="url(#clip0_133_459)">
<path d="M18.6867 6.31C15.348 7.2361 12.4329 8.4032 10.4341 10.9573" stroke="black" stroke-linecap="round" stroke-linejoin="round"/>
<path d="M38.1538 13.1361C35.6001 9.4886 31.1107 6.3409 23.8311 6.1316" stroke="black" stroke-linecap="round" stroke-linejoin="round"/>
<path d="M14.02 2.5822C3.84 6.4775 -3.1991 15.4071 2.5851 29.1654C6.17 37.692 20.0466 42.97 32.2985 38.4169C43.0746 34.4123 46.4129 24.2135 43.9009 14.4159C42.2483 7.97 32.3325 -4.4245 14.02 2.5822Z" stroke="black" stroke-linecap="round" stroke-linejoin="round"/>
<path d="M32.202 38.486C34.2905 42.9679 44.202 56.486 46.6571 59.0613C47.4121 59.0908 48.1638 58.9459 48.8537 58.638C49.5437 58.33 50.1535 57.8673 50.6357 57.2856C51.4157 56.2035 37.202 36.4856 37.202 36.4856" stroke="black" stroke-linecap="round" stroke-linejoin="round"/>
</g>
<defs>
<clipPath id="clip0_133_459">
<rect width="51.1667" height="59.5673" fill="white"/>
</clipPath>
</defs>
</svg>
