<svg xmlns="http://www.w3.org/2000/svg" width="146.722" height="259.976" viewBox="0 0 146.722 259.976">
  <g id="Group_1541" data-name="Group 1541" transform="translate(-1020.685 -1204.575)">
    <g id="Group_1073" data-name="Group 1073" transform="translate(969.574 1172.396)">
      <path id="Path_368" data-name="Path 368" d="M73.035,108.8c4.195,16.372.948,25.313-1.02,42.1a326.959,326.959,0,0,0-.708,69.429,59.81,59.81,0,0,0-19.913-.274" transform="translate(20.372 67.945)" fill="none" stroke="#502831" stroke-linecap="round" stroke-linejoin="round" stroke-width="3"/>
      <path id="Path_369" data-name="Path 369" d="M83.627,108.729c.956,40.812-6.258,73.224-5.216,114.034q11.034-1.008,22.118-1.3" transform="translate(39.499 67.892)" fill="none" stroke="#502831" stroke-linecap="round" stroke-linejoin="round" stroke-width="3"/>
      <path id="Path_373" data-name="Path 373" d="M43.509,104.53c3.432,13.45,10.885,25.532,19.242,36.614,6.684,8.86,14.883,17.755,25.8,19.771,9.672,1.784,19.567-2.318,27.541-8.078,19.528-14.1,30.683-39.466,26.6-63.206-4.569-26.569-32.136-52.772-60.409-50.587C52.768,41.324,37.08,79.338,43.509,104.53Z" transform="matrix(0.982, 0.191, -0.191, 0.982, 42.813, 2.539)" fill="none" stroke="#502831" stroke-miterlimit="10" stroke-width="3.76"/>
      <path id="Path_379" data-name="Path 379" d="M103.83,137.492l8.614-6.15c3.026-2.161,6.128-4.406,8.532-8.431a25.822,25.822,0,0,0,3.126-16.068,30.691,30.691,0,0,0-2.75-8.34c-10.038-22.059-22.928-39.66-37.29-50.923" transform="matrix(0.999, 0.052, -0.052, 0.999, 70.369, -17.522)" fill="none" stroke="#502831" stroke-linecap="round" stroke-linejoin="round" stroke-width="3"/>
      <path id="Path_380" data-name="Path 380" d="M39.685,49.654C36.757,51.317,33.8,53,31.03,57s-5.391,10.523-7.022,20.083a88.755,88.755,0,0,0-1.269,13.6,92.03,92.03,0,0,0,1.212,15.8A68.18,68.18,0,0,0,33.59,132.7l10.432,17.876" transform="translate(30.605 92.635)" fill="none" stroke="#502831" stroke-linecap="round" stroke-linejoin="round" stroke-width="3"/>
    </g>
    <g id="Group_1539" data-name="Group 1539" transform="translate(1061.253 1252.495) rotate(-3)">
      <path id="Path_574" data-name="Path 574" d="M2.909,2.509A9.057,9.057,0,0,1,.378,1.133C0,.849-.163.53.208.187.564-.141.928.013,1.263.262c2.616,1.945,5.5,2.047,8.569.837.153-.06.31-.114.46-.178.379-.16.742-.17.964.168s.093.654-.337.838A10.879,10.879,0,0,1,2.909,2.509Z" transform="matrix(-0.829, 0.559, -0.559, -0.829, 5.627, -3.743)" fill="#502831" stroke="#502831" stroke-width="2"/>
      <path id="Path_573" data-name="Path 573" d="M2.909,2.509A9.057,9.057,0,0,1,.378,1.133C0,.849-.163.53.208.187.564-.141.928.013,1.263.262c2.616,1.945,5.5,2.047,8.569.837.153-.06.31-.114.46-.178.379-.16.742-.17.964.168s.093.654-.337.838A10.879,10.879,0,0,1,2.909,2.509Z" transform="matrix(-0.966, -0.259, 0.259, -0.966, 47.619, 0.452)" fill="#502831" stroke="#502831" stroke-width="2"/>
      <path id="Subtraction_6" data-name="Subtraction 6" d="M2304.309,2230.067a5.154,5.154,0,0,1-3.646-1.5,4.638,4.638,0,0,1,.013-6.511,5.027,5.027,0,0,1,3.485-1.28h.077a4.82,4.82,0,0,1,3.254,1.114,2.465,2.465,0,0,0-.59-.069h-.037a1.959,1.959,0,0,0-1.5,3.334,2.2,2.2,0,0,0,1.561.644l.085,0a1.833,1.833,0,0,0,1.806-1.445,5.422,5.422,0,0,1,.071,1,4.977,4.977,0,0,1-1.225,3.368,4.414,4.414,0,0,1-3.156,1.35C2304.441,2230.066,2304.374,2230.067,2304.309,2230.067Z" transform="translate(-2293.271 -2203.032)" fill="#502831"/>
      <path id="Exclusion_2" data-name="Exclusion 2" d="M2303.941,2230.4h-.039a4.535,4.535,0,0,1-3.393-1.255,4.856,4.856,0,0,1-1.174-3.517,5.042,5.042,0,0,1,1.322-3.485,4.557,4.557,0,0,1,3.326-1.371h.011a4.556,4.556,0,0,1,3.515,1.662,2.067,2.067,0,0,0-1.407-.487h-.035a1.969,1.969,0,0,0-1.505,3.354,2.213,2.213,0,0,0,1.566.645l.088,0a1.907,1.907,0,0,0,1.886-2.03,2.117,2.117,0,0,0-.146-.843,5.107,5.107,0,0,1,.687,2.626,4.753,4.753,0,0,1-1.3,3.418A4.678,4.678,0,0,1,2303.941,2230.4Zm4.007-7.34a4.777,4.777,0,0,0-.439-.626,1.714,1.714,0,0,1,.441.625Z" transform="translate(-2270.904 -2203.184)" fill="#502831"/>
      <path id="Path_2028" data-name="Path 2028" d="M88.445,78.218s-19.312,18.61-35.44,0" transform="matrix(0.999, 0.052, -0.052, 0.999, -45.313, -44.537)" fill="none" stroke="#502831" stroke-linecap="round" stroke-linejoin="round" stroke-width="2"/>
    </g>
    <g id="Group_1540" data-name="Group 1540" transform="translate(-68.904 -0.125) rotate(-2)">
      <path id="Path_2025" data-name="Path 2025" d="M6.44,4.03a23.213,23.213,0,0,1-5.6-2.21C.011,1.363-.361.851.461.3A2.137,2.137,0,0,1,2.8.421C8.588,3.545,14.97,3.709,21.766,1.766c.339-.1.685-.183,1.019-.285a1.989,1.989,0,0,1,2.135.27c.509.564.207,1.05-.746,1.345A32.527,32.527,0,0,1,6.44,4.03Z" transform="matrix(-0.469, -0.883, 0.883, -0.469, 1184.942, 1271.627)" fill="#323f51"/>
      <path id="Path_2026" data-name="Path 2026" d="M4.9,3.254A17.081,17.081,0,0,1,.638,1.469C.008,1.1-.275.687.351.243a1.549,1.549,0,0,1,1.777.1c4.407,2.523,9.264,2.655,14.435,1.086.258-.078.522-.148.775-.23a1.445,1.445,0,0,1,1.624.218c.388.456.157.848-.567,1.087A23.39,23.39,0,0,1,4.9,3.254Z" transform="matrix(-0.469, -0.883, 0.883, -0.469, 1189.462, 1265.711)" fill="#323f51"/>
    </g>
  </g>
</svg>
