<svg width="227.132" height="307.297" xmlns="http://www.w3.org/2000/svg"><g fill="none" stroke="#9f6f24" data-name="Group 1534"><g stroke-linecap="round" stroke-linejoin="round" stroke-width="2"><path d="M87.156 127.779c0 .831-.018 1.663-.03 2.5a2.417 2.417 0 0 0 1.4 2.273c1.359.611 4.264.038 5.185-.2 2.754-.7 1.472-3.1 1.472-4.574" data-name="Path 383"/><path d="M69.442 127.779c0 .831-.017 1.663-.029 2.5a2.415 2.415 0 0 0 1.4 2.273c1.359.611 4.264.038 5.185-.2 2.756-.7 1.472-3.1 1.472-4.574" data-name="Path 384"/><path d="M70.319 145.312c4.429 3.492 9.349 2.694 13.38-.13" data-name="Path 385"/></g><g data-name="Layer 42" transform="translate(1.496 4.954)"><path stroke-linecap="round" stroke-linejoin="round" stroke-width="3" d="M108.819 172.347c9.1 4.532 15.47 8.51 22.563 15.9 8.891 9.263 13.61 22.042 15.439 34.887s.995 25.915.157 38.867" data-name="Path 386"/><path stroke-linecap="round" stroke-linejoin="round" stroke-width="3" d="M85.631 223.157c2 28.359 1.49 49.079.812 77.686 12.312-1.359 15.9-2.515 27.653-6" data-name="Path 387"/><path stroke-linecap="round" stroke-linejoin="round" stroke-width="3" d="M48.844 221.335c-6.55 28.79-8.8 47.825-5.688 76.1a101.576 101.576 0 0 0-23.484-2.11" data-name="Path 388"/><ellipse cx="5.438" cy="5.815" stroke-miterlimit="10" stroke-width="2" data-name="Ellipse 31" rx="5.438" ry="5.815" transform="rotate(-72.98 103.613 -25.682)"/><ellipse cx="5.438" cy="5.815" stroke-miterlimit="10" stroke-width="2" data-name="Ellipse 32" rx="5.438" ry="5.815" transform="rotate(-72.98 111.228 -35.977)"/><ellipse cx="5.438" cy="5.815" stroke-miterlimit="10" stroke-width="2" data-name="Ellipse 33" rx="5.438" ry="5.815" transform="rotate(-72.98 106.056 -47.272)"/><ellipse cx="34.887" cy="43.419" stroke-miterlimit="10" stroke-width="3.128" data-name="Ellipse 34" rx="34.887" ry="43.419" transform="rotate(-72.98 103.183 -49.407)"/><path stroke-linecap="round" stroke-linejoin="round" stroke-width="3" d="M35.519 161.242c-12.56-5.041-21.613-12.055-30.619-22.155-2.97-3.332-5.854-7.661-4.6-11.945.8-2.719 3.1-4.7 5.375-6.388a83.013 83.013 0 0 1 34-14.892" data-name="Path 389"/><path stroke-miterlimit="10" stroke-width="4.503" d="M27.688 195.92c-.2 3.613.035 7.381 1.719 10.584 2.323 4.421 6.976 7.045 11.459 9.249 11.347 5.581 23.706 10.14 36.323 9.29s25.475-8.283 29.412-20.3c1.725-5.262 1.655-10.918 1.568-16.455l-.735-46.789c-.311-19.889-.71-44.821-17.95-58.315-11.917-9.328-22.383-7.24-29.638 5.475-7.806 13.683-9.287 31.352-13.356 46.337-5.447 20.066-17.644 39.987-18.802 60.924Z" data-name="Path 391"/></g></g></svg>