<svg viewBox="661.553 140.737 39.603 39.828" xmlns="http://www.w3.org/2000/svg"><circle cx="681.165" cy="160.177" r="15.865" style="fill:#384454" transform="matrix(1.24166 0 0 1.22544 -164.398 -35.579)"/><g fill="none" stroke="#000" stroke-linejoin="round" style="stroke:#fff;stroke-opacity:1"><g stroke-linecap="round" style="stroke:#fff;stroke-width:1.4;stroke-linejoin:miter;stroke-miterlimit:4;stroke-dasharray:none;stroke-opacity:1"><path d="M1.5 12.5h9M13.5 12.5h9" style="stroke:#fff;stroke-width:1.4;stroke-linejoin:miter;stroke-miterlimit:4;stroke-dasharray:none;stroke-opacity:1" transform="translate(668.982 146.467)"/></g><path d="M1.493 6.458h21v14h-21Z" style="stroke:#fff;stroke-width:1.4;stroke-linejoin:miter;stroke-miterlimit:4;stroke-dasharray:none;stroke-opacity:1" transform="translate(668.989 147.51)"/><g style="stroke:#fff;stroke-width:1.4;stroke-linejoin:miter;stroke-miterlimit:4;stroke-dasharray:none;stroke-opacity:1"><path d="M10.5 11.5h3v4h-3zM8 7.5a4 4 0 0 1 8 0" style="stroke:#fff;stroke-width:1.4;stroke-linejoin:miter;stroke-miterlimit:4;stroke-dasharray:none;stroke-opacity:1" transform="translate(668.982 146.467)"/></g></g><path fill="none" d="M668.982 147.51h24v24h-24Z"/><circle cx="681.165" cy="160.177" r="15.865" style="fill:#384454" transform="matrix(1.24166 0 0 1.22544 -109.13 -35.026)"/><text x="732.386" y="161.788" style="fill:#fff;font-family:Arial,sans-serif;font-size:5.2px;white-space:pre" transform="matrix(5.46502 0 0 5.31035 -3273.403 -689.511)">?</text><circle cx="681.165" cy="160.177" r="15.865" style="fill:#384454" transform="matrix(1.24166 0 0 1.22544 -49.44 -35.166)"/><text x="732.386" y="161.788" style="fill:#fff;font-family:Arial,sans-serif;font-size:5.2px;white-space:pre" transform="matrix(6.53061 0 0 6.86327 -3995.99 -936.736)">+</text></svg>