<svg viewBox="-340.986 26.222 1304.13 498.731" xmlns="http://www.w3.org/2000/svg"><g data-name="Group 841"><path d="M1706.084 2266.589c117.924-14.978 231.493-25.767 340.251-15.336 105.371 10.211 207.568 35.215 301.749 73.824 38.126 15.535 77.832 38.748 70.245 80.508-4.743 26.066-27.265 52.626-49.969 76.688-32.937 34.897-69.45 69.31-112.975 93.917-77.216 43.639-162 49.133-240.085 52.476-196.272 8.415-392.477 15.496-580.766 4.894-68.041-3.837-135.478-10.071-194.871-28-32.281-9.749-64.446-26.426-63.412-58.448 1.491-45.958 41.679-91.609 90.482-117.631 97.664-52.058 110.26-70.183 211.337-99.883 42.942-12.623 157.937-47.972 265.728-67.766" data-name="Path 1182" style="paint-order:fill;stroke-dashoffset:-1px;stroke-miterlimit:8;stroke-width:7px;fill:#fff;stroke-dasharray:30px;stroke:#cd7365" transform="rotate(-172.991 984.334 1414.183)"/><g data-name="Group 1348"><text style="fill:#333;font-family:&quot;Roboto Slab&quot;;font-size:50.5px;white-space:pre" transform="matrix(1.54096 0 0 1.4095 -630.143 -3151.143)"><tspan x="343.855" y="2356.99" style="font-weight:700">Accept:</tspan><tspan> </tspan><tspan x="343.855" dy="1em">​</tspan><tspan>Ander kan ikke lide mig, <tspan x="343.855" dy="1em">​</tspan>hvis jeg viser mine <tspan x="343.855" dy="1em">​</tspan>svage sider </tspan></text><text style="white-space:pre;fill:#333;font-family:&quot;Roboto Slab&quot;;font-size:28px" transform="translate(-112.304 385.7) scale(1.47227)"> </text><text style="white-space:pre;fill:#333;font-family:&quot;Roboto Slab&quot;;font-size:28px" transform="translate(841.462 456.884) scale(4.40982)"> </text></g></g></svg>