<svg width="146.722" height="259.976" xmlns="http://www.w3.org/2000/svg"><g data-name="Group 1541"><g fill="none" stroke="#502831" data-name="Group 1073"><path stroke-linecap="round" stroke-linejoin="round" stroke-width="3" d="M42.296 144.566c4.195 16.372.948 25.313-1.02 42.1a326.959 326.959 0 0 0-.708 69.429 59.81 59.81 0 0 0-19.913-.274" data-name="Path 368"/><path stroke-linecap="round" stroke-linejoin="round" stroke-width="3" d="M72.015 144.442c.956 40.812-6.258 73.224-5.216 114.034q11.034-1.008 22.118-1.3" data-name="Path 369"/><path stroke-miterlimit="10" stroke-width="3.7615039999999995" d="M14.463 81.319c.8 13.863 5.812 27.151 11.902 39.63 4.871 9.977 11.224 20.278 21.56 24.343 9.156 3.599 19.657 1.46 28.587-2.672 21.87-10.117 37.67-32.896 38.194-56.988.588-26.964-21.478-57.96-49.66-61.215C35.628 21.02 12.962 55.352 14.464 81.32Z" data-name="Path 373"/><path stroke-linecap="round" stroke-linejoin="round" stroke-width="3.00105" d="m115.835 93.053 8.925-5.696c3.135-2.002 6.35-4.083 8.962-7.98a25.831 25.831 0 0 0 3.958-15.889 30.702 30.702 0 0 0-2.314-8.474c-8.88-22.56-20.842-40.813-34.604-52.811" data-name="Path 379"/><path stroke-linecap="round" stroke-linejoin="round" stroke-width="3" d="M19.179 110.11c-2.928 1.663-5.885 3.346-8.655 7.346s-5.391 10.523-7.022 20.083a88.755 88.755 0 0 0-1.269 13.6 92.03 92.03 0 0 0 1.212 15.8 68.18 68.18 0 0 0 9.639 26.217l10.432 17.876" data-name="Path 380"/></g><g data-name="Group 1539"><path fill="#502831" stroke="#502831" stroke-width="1.99972" d="M42.159 43.634a9.056 9.056 0 0 1 2.849-.424c.473 0 .795.156.705.653-.087.477-.47.573-.888.575-3.26.02-5.624 1.674-7.347 4.487-.086.14-.179.278-.26.419-.206.356-.49.582-.87.446s-.469-.467-.236-.872a10.877 10.877 0 0 1 6.047-5.284Z" data-name="Path 574"/><path fill="#502831" stroke="#502831" stroke-width="2.00024" d="M85.822 42.82a9.058 9.058 0 0 1 2.19 1.872c.31.357.403.703-.031.961-.417.247-.74.02-1.017-.293-2.154-2.447-4.954-3.147-8.208-2.602-.162.027-.327.047-.487.079-.404.077-.761.011-.908-.365s.045-.66.504-.75a10.88 10.88 0 0 1 7.957 1.097Z" data-name="Path 573"/><path fill="#502831" d="M53.006 74.34a5.154 5.154 0 0 1-3.72-1.307 4.638 4.638 0 0 1-.328-6.503 5.027 5.027 0 0 1 3.414-1.46l.077-.004a4.82 4.82 0 0 1 3.307.942 2.465 2.465 0 0 0-.592-.038l-.037.002a1.959 1.959 0 0 0-1.324 3.408 2.2 2.2 0 0 0 1.593.561l.085-.004a1.833 1.833 0 0 0 1.728-1.538 5.422 5.422 0 0 1 .123.995 4.977 4.977 0 0 1-1.047 3.428 4.414 4.414 0 0 1-3.081 1.513c-.066-.003-.133.002-.198.005Z" data-name="Subtraction 6"/><path fill="#502831" d="m74.984 73.37-.039.002a4.535 4.535 0 0 1-3.454-1.076 4.856 4.856 0 0 1-1.356-3.45 5.042 5.042 0 0 1 1.137-3.55 4.557 4.557 0 0 1 3.25-1.543h.011a4.556 4.556 0 0 1 3.597 1.475 2.067 2.067 0 0 0-1.43-.413l-.035.002a1.969 1.969 0 0 0-1.328 3.428 2.213 2.213 0 0 0 1.598.562l.088-.004a1.907 1.907 0 0 0 1.777-2.126 2.117 2.117 0 0 0-.19-.834 5.107 5.107 0 0 1 .824 2.586 4.753 4.753 0 0 1-1.12 3.481 4.678 4.678 0 0 1-3.33 1.46Zm3.617-7.54a4.777 4.777 0 0 0-.47-.602 1.714 1.714 0 0 1 .472.6Z" data-name="Exclusion 2"/><path fill="none" stroke="#502831" stroke-linecap="round" stroke-linejoin="round" stroke-width="2.0007" d="M81.49 84.03s-19.312 18.623-35.452.012" data-name="Path 2028"/></g><g fill="#323f51" data-name="Group 1540"><path d="M139.284 17.208a23.209 23.209 0 0 1 .883 5.954c.018.946-.24 1.524-1.127 1.087a2.137 2.137 0 0 1-1.064-2.086c-.185-6.573-3.231-12.183-8.309-17.098-.256-.244-.5-.502-.756-.74a1.989 1.989 0 0 1-.832-1.984c.234-.723.806-.704 1.537-.026a32.521 32.521 0 0 1 9.668 14.893Z" data-name="Path 2025"/><path d="M143.692 12.859a17.078 17.078 0 0 1 .583 4.583c-.005.73-.222 1.181-.919.861a1.549 1.549 0 0 1-.8-1.589c-.017-5.077-2.329-9.35-6.271-13.045-.196-.184-.389-.378-.586-.556a1.445 1.445 0 0 1-.623-1.515c.201-.564.656-.56 1.225-.052a23.386 23.386 0 0 1 7.39 11.313Z" data-name="Path 2026"/></g></g></svg>