<svg viewBox="-1744.285 -878.927 750.666 956.855" xmlns="http://www.w3.org/2000/svg"><defs><clipPath id="AnneEks_svg__a"><path fill="none" d="M0 0h787.201v890.531H0z" data-name="Rectangle 367"/></clipPath><clipPath id="AnneEks_svg__b"><path fill="#323f51" d="M0 0h35.569v27.465H0z" data-name="Rectangle 374"/></clipPath></defs><g data-name="Group 1051"><g data-name="Group 1057"><path fill="#fff" d="M-5406.154-7975.294h41.955c180.332 0 241.078 195.644 155.635 391.284-1.795 4.108-20.397 180.089-22.286 184.129-89.606 191.51-298.582 207.155-475.127 207.155h-41.959c-180.331-.002-250.009-175.187-155.628-391.284 94.378-216.098 317.08-391.284 497.41-391.284Z" data-name="Path 1346" transform="rotate(-26.649 11706.964 -12787.858)"/><g data-name="Group 1052"><g data-name="Group 884"><g data-name="Group 883"><g clip-path="url(#AnneEks_svg__a)" data-name="Group 882" transform="matrix(-.98652 0 0 .91596 -976.57 -854.802)"><path fill="#f8fbff" d="m33.283-.001-33.284 11.1v-11.1Z" data-name="Path 1308"/><path fill="#f4a671" d="M583.401 829.417c-.883-13.189-29.719-45.72-29.719-45.72-19.422-45.074-37.492-150.848-37.492-150.848-3.311-123.543-17.307-195.075-28.634-233.611-7.23-24.652-13.4-35.8-14.978-38.439-.251-.423-.386-.635-.386-.635a4.526 4.526 0 0 0-.441.423 143.878 143.878 0 0 0-11.442 11.92c-77.685 90.32-11.325 234.979-9.288 268.036 2.117 34.609 75.751 148.133 75.751 148.133 2.538 8.382 3.722 14.1 1.573 21.162-2.536 8.325 10.38 17.383 11.948 25.146s5.7 7.394 7.283 5.067-3.536-16.857-4.05-20.549 7.867 8.7 9.794 16.868-6.083 28.517 6.736 25.68 24.222-19.443 23.342-32.629" data-name="Path 1310"/><path fill="#2c3a64" d="M359.041 196.128s-.637 13.73 7.6 16.419-8.486 32.314-7.171 52.325 10.161 28.045 10.161 28.045-4.251-11.005-1.874-17.812c0 0-.379 14.157 9.959 21.3s7.559 13.316 7.559 13.316 23.365-7 24.02-24.521c0 0 1 7.922.2 11.2 0 0 20.176-15.15 21.139-32.6s-15.886-32.181-23.553-32.45-24.799-15.333-24.335-21.033-23.7-14.192-23.7-14.192" data-name="Path 1311"/><path fill="#2b478b" d="M501.964 890.531H315.753c-.887-4.934-1.8-9.824-2.683-14.651-2.729-14.7-5.345-28.825-7.856-42.131l7.7-2.49 83.292-26.857 4.285-13.589 7.205-22.873 5.736-18.222 18.546-4.89 16.553-4.352a.21.21 0 0 1 .11-.021l26.812-7.076a42.929 42.929 0 0 1 1.819 4.586c2.055 5.929 5.69 18.351 10.019 41.57 4.046 21.661 8.679 52.736 13.18 96.686.3 2.9.6 5.842.906 8.876q.166 1.721.326 3.437c.085.671.175 1.322.26 1.993" data-name="Path 1313"/><path fill="#233862" d="M501.964 890.53c-17.045 18.533-186.459.27-186.211 0-.887-4.934-1.8-9.824-2.683-14.651-2.729-14.7-5.345-28.825-7.856-42.131l7.7-2.49 83.292-26.857 4.285-13.589 7.205-22.873 5.736-18.222 18.438-5.5 5.952-1.752 49.7-14.8.368 5.715c.5 6.945 1.538 20.946 3.681 45.616 1.945 22.546 9.505 103.086 9.8 106.102.111 1.147.219 2.293.326 3.437.085.671.175 1.322.26 1.993" data-name="Path 1314"/><path fill="#2c3a64" d="m393.776 100.383-95.253 144.521s-10.89-21.335-22.985-13.681c-18.87 11.925-59.41-28.889-50.957-86.513a167.942 167.942 0 0 1 1.954-10.745c19.005-27.384 1.814-44.102 67.98-74.134 43.742-26.417 99.261 40.552 99.261 40.552" data-name="Path 1315"/><path fill="#ffb27d" d="M435.639 392.33C422.31 404.542 405 415.472 382.56 423.969c-84.115 31.875-127.377-37-146.728-85.681 10.922-8.384 21.861-11.394 28.195-13.04 6.175-1.593 12.709-2.984 18.137-4 8.736-8.8 19.111-41.34 15.87-89.24l4.232.538 70.985 9.431s-.175 22.183 1.087 42.954c1 16.254 2.906 31.659 6.462 35.009 5.5.43 8.807.749 8.807.749a.169.169 0 0 0 .044.06 444.8 444.8 0 0 1 45.984 71.581" data-name="Path 1316"/><path fill="#ed985f" d="M373.26 241.989s-.189 22.164 1.085 42.954c-39.3 1.391-62.321-33.078-72.08-52.378Z" data-name="Path 1317"/><path fill="#ffb27d" d="M387.618 260.838s-92.727 7.439-96.472-50.378-18.236-95.8 40.812-102.992 71.99 14.125 77.931 33.117 1.752 116.83-22.27 120.253" data-name="Path 1318"/><path fill="#2c3a64" d="M405.083 108.611c-15.456-16.477-26.054-11.973-31.8-6.357-52.513-24.661-82.582 18.659-82.582 18.659-3.57 41.881-31.974 67.551-31.974 67.551s17.585 9.378 55.953-3.136c11.718-3.826 21.817-12.969 30.2-23.813-14.1 27.464-34.372 47.895-34.372 47.895 45.221-24.5 59.806-90.492 61.236-97.463 5.989 4.727 17.863 15.072 21.958 25.691 5.566 14.428 9.578 44.6 18.344 43.014 0 0 16.212-47.327-6.966-72.041" data-name="Path 1319"/><path fill="#f99746" d="M497.044 407.427c-11.541-57.734-47.3-74.269-47.3-74.269s-5.943-9.007-39.159-10.424c-5.17-.214-10.819-1.283-17.114-1.786-1.258-.085-2.538-.184-3.858-.267a.341.341 0 0 0 .041.064c1.264 1.94 34.772 53.46 32.912 67.3-1.9 14.1-123.874 9.274-132.711 2.159-7.088-5.738-19.4-44-23.99-58.962-1.163-3.727-1.846-6.01-1.846-6.01s-42.593 7.43-62.624 24.02c0 0 15.327 16.822 25.567 37.5a126.508 126.508 0 0 1 2.754 5.945 87.525 87.525 0 0 1 4.467 12.925c1.464 5.752.14 11.677-2.963 18.049-2.789 5.83-7.118 12.086-12.1 18.875-3.281 4.409-6.819 9.086-10.419 14.079 2.533 8.417 5.837 18.507 9.5 29.912 7.531 23.473 16.5 52.46 22.9 83.681a79.794 79.794 0 0 1-.8 35.4 81.636 81.636 0 0 1-4.635 13.474c-3.046 6.819-3.8 16.21-7.21 25.022-13.939 36.1-30.029 83.2-13.907 107.8 10.755 31.443 259.817-44.92 243.053-77.889 0 0 9.929-172.987 16.783-226.571.223-1.966.407-3.862.508-5.77a82.963 82.963 0 0 0-.016-8.886c21.59-9.83 22.169-25.372 22.169-25.372" data-name="Path 1322"/><path fill="#ed7d2b" d="M325.188 624.279c-35.871 11.493-70.8 16.429-98.509 18.433 3.416-8.812 5.941-16.8 8.984-23.617a81.633 81.633 0 0 0 4.635-13.474 79.8 79.8 0 0 0 .8-35.4c-6.4-31.216-23.4-84.471-30.935-107.942 20.125-44.885 40.922-20.406 40.922-20.406s60.822 27.28 86.713 77.565 18.341 94.923-12.615 104.84" data-name="Path 1323"/><path fill="#2b478b" d="M247.554 328.673s57.925 37.018 72.735 115.057l17.516-5.561s-6.78-55.709-73.779-112.924Z" data-name="Path 1324"/><path fill="#2b478b" d="m452.132 445.713-18.341 1.2c3.674-67.661-30.282-113.852-40.32-125.961a337.797 337.797 0 0 1 17.111 1.791c48.035 69.5 41.549 122.968 41.549 122.968" data-name="Path 1325"/><path fill="#2b478b" d="M487.906 733.381 475.121 539.49s-12.424-88.164-12.608-103.571C462.329 420.512 449.887 413 449.887 413s-91.309 4.814-117.046 6.262c-25.737 1.448-23.15 16.093-23.15 16.093s11.221 46.846 12.355 51.667c17.33 73.623-81.752 118.607-81.752 118.607s-16.073 41.591-28.542 81.426c-21.375 68.307-25.641 135.916-25.641 135.916-1.708 2.208 57.194 67.275 105.781 68.152l124.877-.591a999.67 999.67 0 0 1 3.18-14.458c4.653-20.272 11.58-47.131 21.229-73.032 2.317-6.235 4.784-12.424 7.423-18.459 7.377-16.838 16.035-32.418 26.075-44.471.391-.474.435-.841.218-1.124l13.012-5.607Z" data-name="Path 1326"/><path fill="#ed7d2b" d="M319.568 436.926a7.692 7.692 0 1 1 9.658 5 7.689 7.689 0 0 1-9.658-5" data-name="Path 1327"/><path fill="#f99746" d="M320.883 436.51a7.692 7.692 0 1 1 9.66 5 7.69 7.69 0 0 1-9.66-5" data-name="Path 1328"/><path fill="#2b478b" d="M323.448 434.172a1.117 1.117 0 1 1 1.115 1.117 1.118 1.118 0 0 1-1.115-1.117" data-name="Path 1329"/><path fill="#2b478b" d="M330.747 434.183a1.118 1.118 0 1 1 1.115 1.12 1.117 1.117 0 0 1-1.115-1.12" data-name="Path 1330"/><path fill="#ed7d2b" d="M432.783 427.153a7.692 7.692 0 1 1 9.658 5 7.689 7.689 0 0 1-9.658-5" data-name="Path 1331"/><path fill="#f99746" d="M434.1 426.737a7.692 7.692 0 1 1 9.658 5 7.685 7.685 0 0 1-9.658-5" data-name="Path 1332"/><path fill="#2b478b" d="M436.666 424.401a1.117 1.117 0 1 1 1.113 1.117 1.115 1.115 0 0 1-1.113-1.117" data-name="Path 1333"/><path fill="#2b478b" d="M443.963 424.412a1.118 1.118 0 1 1 1.115 1.117 1.117 1.117 0 0 1-1.115-1.117" data-name="Path 1334"/><path fill="#2c3a64" d="M245.793 207.581s-4.186 12.99 3.022 18.054c7.208 5.064-16.557 28.456-20.506 48.062-3.95 19.607 2.456 29.99 2.456 29.99s-1.215-11.85 2.839-17.669c0 0-4.05 13.48 4.015 23.453 8.065 9.974 3.79 15.067 3.79 15.067s24.251.336 29.439-16.285c0 0-1.101 7.903-2.724 10.811 0 0 23.31-8.45 28.777-24.91 5.467-16.459-6.871-35.688-14.16-38.265-7.289-2.576-19.808-22.198-17.882-27.525 1.926-5.327-19.066-20.783-19.066-20.783" data-name="Path 1335"/><path fill="#fff2e9" d="M359.032 228.528s13.817 8.377 23.65 7.4c9.736-.966 15.042-12.713 15.042-12.713a81.651 81.651 0 0 0-38.692 5.313" data-name="Path 1336"/><path fill="#ffb27d" d="M311.305 672.863c-8.628-5.3-18.208-1.356-26.668 3.308 3.081-3.416 2.708-6.233 2.225-7.925s-6.035 4.106-12 6.759-7.527 9.4-7.527 9.4c-2.154.08-10.925-4.782-18.716-9.38-33.814-21.901-92.882-116.226-94.592-124.411s74.041-81.6 97.063-108.742-13.9-106.6-49.69-92.614c0 0-103.312 122.018-137.5 190.76 0 0 35.63 77.535 148.015 146.9l-.166.138s31.862 20.1 46.607 24.995c15.337 5.083 37.066-5.722 45.888-7s27.195 6.281 32.611-.129-9.906-22.436-25.555-32.055" data-name="Path 1337"/><path fill="#f99746" d="m201.4 349.259-46.41 45.34s10.6 66.949 80.841 75.692c0 0 57.652-46.159 23.2-94.238s-57.635-26.795-57.635-26.795" data-name="Path 1338"/></g></g></g></g></g><path fill="#323f51" d="M1779.581 1798.383c1.779-.832 7.024-3.289 6.673-5.909a3.37 3.37 0 0 1 .376-.319c-.741-.076-.292-.636.094-.085a7.814 7.814 0 0 1-.392-1.658c-2.631.153-15.187-2.376-14.338.068-.62-1.016-.89-.153-1-.056.173.223.365.432.573.624-1.477.822-2.258 1.866.117 2.18 2.654.351 5.444.631 8.205.819a14.648 14.648 0 0 1-3.223 2.189l-.389.185c.476-.471.865-.962.132-.7-.26.286-.478.607-.649.954-2.484 1.261-4.259 2.761-3.685 3.921.063.874.91 1.106 1.753 1.208l-.068.032.068-.032c.022.016-.013.019-.068.032-.1.048.16.156.229.17.081-.09.1-.142.087-.175l.194.019c.615.157 1.239.274 1.869.351.617.078 2.271.346 4.134.5.059.219.129.377.214.276-.028.034-.01-.09.021-.255.556.041 1.126.069 1.693.082-.206.122-.587.216-.451.3.22-.044.424-.148.589-.3.062 0 .125.006.188.006.112.141.417.147.959-.015 2.248-.091 4.117-.609 4.117-2.114 0-1.938-4.192-2.279-8.02-2.3m-2.091-8.506a1.13 1.13 0 0 1-.123.17h-.213c-.016-.244.156-.7.336-.169m-.862.084c.044-.122.1-.166.157-.132-.01.091-.019.15-.028.213h-.13v-.079m-.363.074h-.12a3.424 3.424 0 0 1-.09-.236s-.016-.034-.044-.113c.117-.072.214.166.254.352m-3.872.537s.1-.013.189-.016a.21.21 0 0 1-.189.016" clip-path="url(#AnneEks_svg__b)" data-name="Path 1341" transform="translate(1344.485 -398.563)"/><path fill="#323f51" d="M1805.735 1789.42c-.007-1.594-5.945-1.86-10.132-1.9.189-.189.379-.389.568-.609.134-.044.263-.101.386-.169a1.65 1.65 0 0 1-.094-.182c.028-.034.054-.063.081-.1.021.079.037.16.048.242.324-.445.683-.865 1.071-1.255a.23.23 0 0 0 .087.088c.056.025.076-.107.054-.235 2.048-2.121 5.5-5.265 4.556-6.341.053-.022.1-.037.153-.06.3.057.323-.079.28-.236.135-.025.21-.047.2-.072a3.822 3.822 0 0 0-.429-.581c.053-.455-.68-.691-.871-1.009.069.106.117.226.142.351a4.718 4.718 0 0 0-.515-.31c.308-.2-.1-.258-.344-.156a6.729 6.729 0 0 0-1.053-.339c.129-.825-.208-.269-.172-.041a25.418 25.418 0 0 0-5.532-.25 1.368 1.368 0 0 0-.157.015 2.263 2.263 0 0 1-.6-.511c-.046-.079-.037-.1-.009-.113a4.772 4.772 0 0 1-.818.3.501.501 0 0 0 0-.164c-.018-.06-.078.057-.106.192-1.36.346-3.3.417-3.121.021-.363.791-.622.489-.558 1.572-.276-2.3.034.913-.247-.529.016.088.076.363.139.675-1.379.533-2.066 1.06-.465 1.286.159.021.439.038.806.05-.028.1-.037.185.018.235.011-.078.018-.155.022-.233 1.511.047 4.5.018 7.319-.057a.304.304 0 0 0-.181.314c-.029 1.069.369-.11.429-.32l.976-.028c.069.1.144.144.22.109.076-.035.137-.084.207-.123l.827-.029a.483.483 0 0 0-.115.317c-.046.476.229-.185.229-.322l.5-.019c-.26.239-.323.363-.3.42a36.123 36.123 0 0 0-4.096 3.663.145.145 0 0 0-.069-.081c-.132-.063-.214.142-.141.294a54.998 54.998 0 0 0-4.332 4.945.6.6 0 0 0-.056.694.703.703 0 0 0-.119.369 5.474 5.474 0 0 0 2.1.837c.938.4.743.232.443.029.241.068.495.131.758.189.075 1.053 1.59.712 2.42.42.4.051.807.1 1.217.134a.336.336 0 0 0-.1.279c.032.4.313-.025.382-.254.73.062 1.465.1 2.182.113-.106.07-.2.138-.253.117.092.038.257-.04.4-.116.681.01 1.342 0 1.957-.041 2.188-.138 3.811-.6 3.807-1.486m-5.4-8.9-.075.106a.274.274 0 0 1 .075-.106m1.288-1.7a.239.239 0 0 1-.019.144Zm-1.892 2.728.085-.148c.2.151.053.2-.085.148m.5.669c-.561-1.135.806.417 0 0m.332-.37c-.711-.721-.07-.226-.032-.173.073.1.085.161.032.173m.433-.348c.05.37-1.509-.753 0 0m-10.341-4.851c-.014.153-.04.305-.079.455-.081-.155-.038-1.081.079-.455m-.238.041c.006.254.006.393 0 .46a1.276 1.276 0 0 1-.048-.313c.007-.125.023-.175.046-.147m-1.008-.21h-.082c.019-.084.138-.637.082 0m.746.153c.113-.248.2.21.22.533-.037.01-.072.022-.109.031a8.798 8.798 0 0 1-.112-.564m9.379 2.259.333-.015c-.06.04-.123.085-.186.128a.285.285 0 0 0-.147-.113m-4.905 11.55.336.057c-.277.032-.374-.015-.336-.057" clip-path="url(#AnneEks_svg__b)" data-name="Path 1342" transform="translate(1344.485 -398.563)"/><path fill="#323f51" d="M1790.215 1790.046c.437.288.986.35 1.477.169 0 0-1.875-.78-1.477-.169" clip-path="url(#AnneEks_svg__b)" data-name="Path 1343" transform="translate(1344.485 -398.563)"/></g></svg>