<svg xmlns:bx="https://boxy-svg.com" viewBox="204.296 39.367 253.577 247.966" xmlns="http://www.w3.org/2000/svg"><path bx:shape="triangle 338.665 199.473 249.544 239.406 0.5 0.139 1@27bf6799" d="M446.094 232.75q17.343-33.277 34.686 0l90.086 172.852q17.343 33.277-17.344 33.277h-180.17q-34.687 0-17.344-33.277Z" style="fill:#a00434;stroke:#781734" transform="rotate(.081 156880.585 -127380.127)"/><g data-name="Group 179"><path stroke-miterlimit="10" d="M-933.989 59.885c-18.122 28.143-2.349 89.832.605 91.75 5.608 3.64 39.709-4.551 40.412-11.196.417-3.932-23.074-89.532-41.018-80.554" data-name="Path 359" style="stroke-opacity:1;stroke-width:1.71085px;fill:#fff;stroke:#781734" transform="matrix(-.8967 -.22058 .1942 -1.0091 -518.515 64.516)"/></g><g data-name="Group 179"><path stroke-miterlimit="10" d="M-682.093 15.884c-29.34 11.505-15.489 35.388.888 31.008 15.273-4.085 26.174-28.356-3.245-30.868" data-name="Path 359" style="stroke-opacity:1;stroke-width:2.99215px;fill:#fff;stroke:#781734" transform="matrix(.57211 .31073 -.3912 .67906 733.657 434.331)"/></g></svg>