<svg xmlns="http://www.w3.org/2000/svg" width="730.891" height="806.162" viewBox="0 0 730.891 806.162">
  <g id="Group_656" data-name="Group 656" transform="translate(-17.964 31.797) rotate(-3)">
    <g id="Group_322" data-name="Group 322" transform="translate(0 0)">
      <g id="Group_256" data-name="Group 256" transform="translate(0 0)">
        <g id="Group_658" data-name="Group 658" transform="translate(0 0)">
          <path id="Path_419" data-name="Path 419" d="M192.423,0C138.855,9.074,12.052,2.631,1.107,6.085c-21.6,38.228,279.885,10.351,292.233,102.249" transform="translate(138.534 670.229)" fill="none" stroke="#323f51" stroke-linecap="round" stroke-linejoin="round" stroke-width="7"/>
          <path id="Path_1048" data-name="Path 1048" d="M94.8,0c52.075,10.14,175.344,2.941,185.984,6.8,21,42.72-291.4,15.164-280.51,98.08" transform="translate(276.929 676.544)" fill="none" stroke="#323f51" stroke-linecap="round" stroke-linejoin="round" stroke-width="7"/>
          <path id="Path_421" data-name="Path 421" d="M.273,542.03c-.913,16.524.159,33.759,7.861,48.409,10.626,20.223,31.913,32.225,52.412,42.3,51.9,25.532,108.427,46.377,166.135,42.492S343.2,637.349,361.207,582.385c7.889-24.066,7.571-49.937,7.169-75.262l-3.353-214.005c-1.431-90.97-3.256-205-82.1-266.715C228.41-16.268,180.54-6.721,147.361,51.444c-35.7,62.575-42.477,143.389-61.082,211.931C61.356,355.154,5.576,446.269.273,542.03Z" transform="translate(168.274 0)" fill="none" stroke="#323f51" stroke-miterlimit="10" stroke-width="7"/>
          <path id="Path_422" data-name="Path 422" d="M64.162,192.269C38.632,170.33,21.87,144.4,8.4,107.425,1.515,88.494-3.39,65.833,2.905,46.51,7.279,33.1,16.4,23.661,26,17.152,61.548-6.932,66.089,18.513,103.369,0" transform="matrix(0.191, -0.982, 0.982, 0.191, 0, 441.353)" fill="none" stroke="#323f51" stroke-linecap="round" stroke-linejoin="round" stroke-width="7"/>
          <path id="Path_423" data-name="Path 423" d="M51.246,0C22.37,10.46.027,53.858,0,99.529c0,10.82,1.149,21.812,4.333,31.457C10.242,148.9,22.181,159.857,33.6,169.578c40.667,34.617,43.258-20.7,86.139,6.876" transform="translate(527.237 486.271) rotate(-81)" fill="none" stroke="#323f51" stroke-linecap="round" stroke-linejoin="round" stroke-width="7"/>
        </g>
      </g>
      <path id="Path_498" data-name="Path 498" d="M10.955,9.451a34.11,34.11,0,0,1-9.53-5.184C.018,3.2-.615,2,.784.7,2.125-.531,3.5.049,4.757.988,14.609,8.314,25.466,8.7,37.028,4.141c.576-.227,1.166-.43,1.733-.669,1.427-.6,2.8-.64,3.631.634.866,1.323.352,2.462-1.269,3.156C31.43,11.4,21.461,12.988,10.955,9.451Z" transform="matrix(-0.951, 0.309, -0.309, -0.951, 358.326, 154.777)" fill="#323f51"/>
      <path id="Path_499" data-name="Path 499" d="M10.955,9.451a34.11,34.11,0,0,1-9.53-5.184C.018,3.2-.615,2,.784.7,2.125-.531,3.5.049,4.757.988,14.609,8.314,25.466,8.7,37.028,4.141c.576-.227,1.166-.43,1.733-.669,1.427-.6,2.8-.64,3.631.634.866,1.323.352,2.462-1.269,3.156C31.43,11.4,21.461,12.988,10.955,9.451Z" transform="matrix(-0.966, -0.259, 0.259, -0.966, 474.307, 167.015)" fill="#323f51"/>
    </g>
    <path id="Path_604" data-name="Path 604" d="M27.787,12.128c-1.64-4.7-5.63-8.582-9.858-11.012A6.285,6.285,0,0,0,14.2.024,4.573,4.573,0,0,0,10.57,3.393,8.936,8.936,0,0,0,10.9,8.552a17.5,17.5,0,0,0,8.241,9.92C13.912,18.64,1.325,20.637.1,27.084c-1.686,8.865,18.727,16.4,22.863,7.279" transform="matrix(0.891, -0.454, 0.454, 0.891, 367.878, 287.697)" fill="none" stroke="#323f51" stroke-linecap="round" stroke-miterlimit="10" stroke-width="5"/>
    <path id="Path_605" data-name="Path 605" d="M6.729,0C5.021,2.986,3.241,5.938,1.491,8.894a10.005,10.005,0,0,0,.343,11.038c3.618,5,15.234,8.911,19.02,9.966,11.323,3.166,11.666-8.115,14.694-13.4" transform="matrix(0.891, -0.454, 0.454, 0.891, 411.078, 221.09)" fill="none" stroke="#323f51" stroke-linecap="round" stroke-miterlimit="10" stroke-width="5"/>
    <path id="Path_606" data-name="Path 606" d="M6.729,0C5.02,2.986,3.241,5.938,1.49,8.894a10,10,0,0,0,.348,11.038c3.618,5,15.23,8.911,19.016,9.966,11.323,3.166,11.67-8.115,14.694-13.4" transform="matrix(0.891, -0.454, 0.454, 0.891, 337.859, 217.508)" fill="none" stroke="#323f51" stroke-linecap="round" stroke-miterlimit="10" stroke-width="5"/>
    <path id="Path_611" data-name="Path 611" d="M52.451,96.7,58.4,91.4C42,97.614,28.651,95.582,19.494,81.855,6.827,62.87,21.429,33.02,52.991,38.23L37.954,32.446C40.5,18.389,53.154,9.2,67.622,10.928c13.644,1.629,24.005,13.644,23.191,27.263-4.708.4-9.47.8-14.568,1.236l.352,8.362c5.292-.549,10.259-1.032,15.219-1.591,14.957-1.683,29.914-3.418,44.874-5.091,3.3-.37,6.736-.482,4.245-5.832l-40.4,2.405C97.4,29.236,95.68,20.753,91.369,13.9,83.9,2.027,71.816-1.825,58.3.772,44.342,3.455,35.546,12.449,32.371,26.221c-1.1,4.765-2.488,7.17-7.649,8.537C7.172,39.4-3.138,57.339.857,74.956A34.064,34.064,0,0,0,39.1,101.124c3.625-.533,6.388-1.329,9.374,2.61,11.584,15.273,30.3,18.6,46.659,8.984,14.072-8.282,19.693-26.842,13.206-43.565-.342-.878-.552-1.811-1.016-3.36,10.9-4.328,21.706-8.464,32.344-12.989,1.971-.837,3.271-3.255,4.88-4.941l-1.734-2.022C122.464,52.772,102.107,59.7,81.068,66.86l3.082,7.822c5-1.763,9.483-3.351,13.913-4.912,6.726,12.354,2.29,26.749-10.422,34.7C76.23,111.622,60.672,108.4,52.451,96.7Z" transform="matrix(0.996, 0.087, -0.087, 0.996, 200.632, 247.608)" fill="#6c85a0"/>
  </g>
</svg>
