<svg viewBox="-416.343 172.649 1813.702 313.332" xmlns="http://www.w3.org/2000/svg"><g data-name="Group 1348"><path fill="#fff" d="M1086.696 2228.453c503.158-.897 1025.49 24.055 926.795 137.092-98.695 113.039-172.482 55.229-1046.465 75.707-503.157.897-725.293.488-720.22-121.155 5.073-121.641 336.732-90.745 839.89-91.644Z" data-name="Path 729" transform="matrix(.9775 -.01832 .01924 1.02643 -687.545 -2046.522)"/><g data-name="Group 504"><g data-name="Group 1348"><g fill="#903" data-name="Group 504"><path d="m231.06 320.193 103.609.565c4.175.023 7.53 3.926 7.504 8.721s-3.424 8.655-7.599 8.633l-103.608-.565c-4.174-.023-7.537-3.922-7.511-8.715s3.431-8.662 7.605-8.639Z" data-name="Path 211"/><path d="M302.413 292.405a9.85 9.85 3.253 0 1 6.65 2.578l30.389 28.347a8.21 8.21 3.253 0 1-.067 12.27l-30.697 28.015a9.99 9.99 3.253 0 1-13.316-.066 8.2 8.2 3.253 0 1 .062-12.268l24.02-21.924-23.78-22.176a8.2 8.2 3.253 0 1 .072-12.27 9.812 9.812 3.253 0 1 6.667-2.506Z" data-name="Path 212"/></g></g></g><path fill="none" stroke="#323f51" stroke-width="5" d="M379.396 2403.08s27.526-4.863 67.286-10.536c59.659-8.513 146.861-18.851 209.938-17.323 12.763.203 25.504 1.2 38.16 2.988" data-name="Path 730" transform="matrix(.97364 .0886 -.09304 1.02238 -418.402 -2105.254)"/><text x="343.855" y="2356.99" style="fill:#333;font-family:&quot;Roboto Slab&quot;;font-size:50.5px;white-space:pre" transform="matrix(2.06206 0 0 1.82668 -969.251 -3946.458)">Bange</text><text x="343.855" y="2356.99" style="fill:#333;font-family:&quot;Roboto Slab&quot;;font-size:50.5px;font-style:italic;white-space:pre" transform="matrix(2.06206 0 0 1.82668 -234.623 -3943.677)">&apos;Det er farligt&apos;</text></g></svg>