<?xml version="1.0" encoding="utf-8"?>
<svg viewBox="861.981 197.225 104.158 89.849" xmlns="http://www.w3.org/2000/svg">
  <g id="Group_1501" data-name="Group 1501" transform="matrix(1.276317, 0, 0, 1.289548, 22648.158369, 27193.839023)" style="">
    <g id="Group_1493" data-name="Group 1493" transform="translate(-17207.449 -20154.51) rotate(166)">
      <g id="Group_1490" data-name="Group 1490" transform="translate(-389.625 661.836)">
        <g id="Group_1479" data-name="Group 1479" transform="translate(0.682 0.684)">
          <path id="Path_1941" data-name="Path 1941" d="M-322.933,1336.565l-50.705,26.477a4.557,4.557,0,0,1-6.15-1.93l-2.954-5.656a4.557,4.557,0,0,1,1.931-6.15l50.705-26.477.515-.081,15.315-2.393,4.433-.693a1.242,1.242,0,0,1,1.089,2.085l-3.1,3.242-10.716,11.2Z" transform="translate(383.26 -1319.645)" fill="#ffbe06"/>
        </g>
        <g id="Group_1480" data-name="Group 1480" transform="translate(0.682 27.759)">
          <path id="Path_1942" data-name="Path 1942" d="M-368.689,2000.382l-4.949,2.584a4.557,4.557,0,0,1-6.15-1.93l-2.954-5.656a4.557,4.557,0,0,1,1.931-6.15l4.949-2.584Z" transform="translate(383.26 -1986.645)" fill="#323f51"/>
        </g>
        <g id="Group_1481" data-name="Group 1481" transform="translate(7.931 25.342)">
          <rect id="Rectangle_528" data-name="Rectangle 528" width="4.9" height="15.497" transform="translate(0.149 2.417) rotate(-27.573)" fill="#d7dcf0"/>
          <path id="Path_1943" data-name="Path 1943" d="M-197.391,1943.405l-.051-.1-7.224-13.835,4.539-2.37.051.1,7.224,13.835Zm-6.977-13.839,7.071,13.541,4.147-2.166-7.071-13.541Z" transform="translate(204.666 -1927.102)" fill="#390075"/>
        </g>
        <g id="Group_1482" data-name="Group 1482" transform="translate(52.865 0.574)">
          <path id="Path_1944" data-name="Path 1944" d="M913.4,1336.188c-1.181-1.327-3.323.1-4.432-1.591-1.1-1.77,1.273-3.141.359-4.836-.869-1.719-3.348-.558-4.174-2.469-.754-1.877,1.642-2.819,1.228-4.546l15.315-2.393,4.433-.693a1.242,1.242,0,0,1,1.089,2.085l-3.1,3.242Z" transform="translate(-904.89 -1319.535)" fill="#ffdc9c"/>
          <path id="Path_1945" data-name="Path 1945" d="M910.768,1333.752l-.08-.089a2.507,2.507,0,0,0-2.011-.619,2.263,2.263,0,0,1-2.3-3.607,2.371,2.371,0,0,0,.221-2.222c-.4-.787-1.152-.935-1.951-1.091a2.264,2.264,0,0,1-1.647-3.948,2.507,2.507,0,0,0,.642-2l-.028-.117,19.867-3.1a1.352,1.352,0,0,1,1.186,2.27Zm-6.884-13.514a2.823,2.823,0,0,1-.7,2.06,2.364,2.364,0,0,0-.56,2.354c.4.929,1.21,1.087,2.065,1.254a2.248,2.248,0,0,1,1.89,3.62,2.362,2.362,0,0,0-.15,2.414c.555.847,1.379.864,2.25.883a2.822,2.822,0,0,1,2.089.605l13.738-14.358a1.132,1.132,0,0,0-.992-1.9Z" transform="translate(-902.265 -1316.936)" fill="#390075"/>
        </g>
        <g id="Group_1483" data-name="Group 1483" transform="translate(2.256 1.744)" opacity="0.3">
          <path id="Path_1946" data-name="Path 1946" d="M-285.735,1361.627-336.44,1388.1a4.558,4.558,0,0,1-6.15-1.93l-1.9-3.636a4.557,4.557,0,0,0,6.15,1.93l50.243-26.235a3.187,3.187,0,0,0,.824-.618h0l16.05-11.847a1.208,1.208,0,0,1-.333,1.041l-3.1,3.242-10.716,11.2Z" transform="translate(344.489 -1345.768)" fill="#323f51"/>
        </g>
        <g id="Group_1484" data-name="Group 1484" transform="translate(0.682 0.683)" opacity="0.55">
          <path id="Path_1947" data-name="Path 1947" d="M-308.476,1321.3a1.261,1.261,0,0,0-.522-.025l-4.433.693-15.315,2.393-.515.082-50.705,26.477a4.556,4.556,0,0,0-1.93,6.15l-.844-1.616a4.557,4.557,0,0,1,1.931-6.15l50.705-26.477.515-.081,15.315-2.393,4.433-.693A1.247,1.247,0,0,1-308.476,1321.3Z" transform="translate(383.26 -1319.644)" fill="#fff"/>
        </g>
        <g id="Group_1485" data-name="Group 1485" transform="translate(0 0)">
          <path id="Path_1948" data-name="Path 1948" d="M-391.85,1348.087a5.247,5.247,0,0,1-4.655-2.815l-2.954-5.656a5.248,5.248,0,0,1,2.22-7.073l50.705-26.477a.684.684,0,0,1,.211-.069l20.264-3.167a1.9,1.9,0,0,1,2,1.012,1.9,1.9,0,0,1-.315,2.221l-14.18,14.819a.689.689,0,0,1-.177.133l-50.705,26.477A5.212,5.212,0,0,1-391.85,1348.087Zm45.85-40.756-50.605,26.425a3.879,3.879,0,0,0-1.641,5.227l2.954,5.656a3.878,3.878,0,0,0,5.227,1.641l50.605-26.425,14.1-14.738a.541.541,0,0,0,.091-.643.545.545,0,0,0-.58-.294Zm6.956,13.079h0Z" transform="translate(400.053 -1302.806)" fill="#323f51"/>
        </g>
        <g id="Group_1486" data-name="Group 1486" transform="translate(52.292 3.101)">
          <path id="Path_1949" data-name="Path 1949" d="M897.235,1394.013a.682.682,0,0,1-.511-.229c-.339-.38-.827-.41-1.595-.426a2.813,2.813,0,0,1-2.81-4.411c.335-.761.512-1.216.241-1.719-.266-.526-.74-.641-1.557-.8a2.813,2.813,0,0,1-2.014-4.827c.426-.64.68-1.057.562-1.553a.684.684,0,1,1,1.33-.318,3.24,3.24,0,0,1-.753,2.628c-.493.741-.759,1.191-.506,1.823.263.607.77.734,1.644.905a2.8,2.8,0,0,1,2.3,4.413c-.359.815-.545,1.3-.187,1.881.364.554.885.593,1.775.612a3.241,3.241,0,0,1,2.587.884.684.684,0,0,1-.51,1.138Z" transform="translate(-888.156 -1379.204)" fill="#323f51"/>
        </g>
        <g id="Group_1487" data-name="Group 1487" transform="translate(69.667 0.684)">
          <path id="Path_1950" data-name="Path 1950" d="M1318.6,1324.988a6.056,6.056,0,0,1-2.42-4.634l4.433-.693a1.242,1.242,0,0,1,1.089,2.085Z" transform="translate(-1316.178 -1319.645)" fill="#323f51"/>
        </g>
        <g id="Group_1488" data-name="Group 1488" transform="translate(7.397 24.807)">
          <path id="Path_1951" data-name="Path 1951" d="M-209.977,1931.3a.69.69,0,0,1-.2-.031.686.686,0,0,1-.4-.336l-7.173-13.737a.684.684,0,0,1-.046-.521.684.684,0,0,1,.336-.4l4.343-2.268a.684.684,0,0,1,.922.289l7.173,13.737a.684.684,0,0,1-.29.923l-4.343,2.268A.686.686,0,0,1-209.977,1931.3Zm-6.251-14.131,6.54,12.525,3.131-1.635-6.54-12.525Z" transform="translate(217.834 -1913.927)" fill="#323f51"/>
        </g>
        <g id="Group_1489" data-name="Group 1489" transform="translate(68.983 0.709)">
          <path id="Path_1952" data-name="Path 1952" d="M1302.439,1326.265a.68.68,0,0,1-.421-.145,6.745,6.745,0,0,1-2.681-5.134.684.684,0,1,1,1.365-.076,5.361,5.361,0,0,0,2.158,4.133.684.684,0,0,1-.422,1.222Z" transform="translate(-1299.336 -1320.264)" fill="#323f51"/>
        </g>
      </g>
    </g>
  </g>
</svg>