<?xml version="1.0" encoding="utf-8"?>
<svg viewBox="-611.966 157.632 2458.308 1044.222" xmlns="http://www.w3.org/2000/svg" xmlns:bx="https://boxy-svg.com">
  <defs>
    <clipPath id="clip-Balance">
      <rect width="1166" height="1094"/>
    </clipPath>
    <clipPath id="clip-1">
      <rect width="1166" height="1094"/>
    </clipPath>
    <clipPath id="clip-Illustration_-_Min_fysiske_energi_-_Min_fysiske_aktivitet">
      <rect width="545" height="513"/>
    </clipPath>
    <clipPath id="clip-2">
      <rect id="Rectangle_490" data-name="Rectangle 490" width="767.113" height="978.476" fill="none"/>
    </clipPath>
    <clipPath id="clip-path">
      <rect id="Rectangle_374" data-name="Rectangle 374" width="35.569" height="27.465" fill="#323f51"/>
    </clipPath>
    <clipPath id="clip-14">
      <rect width="1166" height="1094"/>
    </clipPath>
    <clipPath id="clip-3">
      <rect id="rect-1" data-name="Rectangle 490" width="767.113" height="978.476" fill="none"/>
    </clipPath>
  </defs>
  <ellipse style="fill: rgb(216, 216, 216);" cx="622.055" cy="1057.505" rx="1184.233" ry="99.184"/>
  <g id="Group_831" data-name="Group 831" transform="matrix(-1.383358, -0.168358, -0.161354, 1.325814, -13903.923828, -5819.789062)" style="">
    <g id="Group_840" data-name="Group 840" transform="matrix(1.570383, 0, 0, 1.762897, -10409.424805, 754.889038)" style="">
      <g id="Group_906" data-name="Group 906" transform="matrix(1.272933, 0, 0, 1.212726, -1597.980103, 1121.041382)" style="">
        <g id="Group_316" data-name="Group 316" transform="translate(1249.642 346.891)">
          <g id="Group_895" data-name="Group 895" transform="translate(0)">
            <g id="Group_894" data-name="Group 894">
              <path id="Path_578" data-name="Path 578" d="M 156.811 208.861 C 140.048 190.978 130.146 178.427 119.104 157.525 C 115.487 161.321 111.321 164.577 106.713 167.209" fill="none" stroke-linecap="round" stroke-linejoin="round" style="stroke: rgb(8, 13, 13); stroke-width: 1.77229px;" transform="matrix(-0.846339, 0.51965, -0.545964, -0.84634, 343.29403, 269.766373)"/>
              <path id="Path_580" data-name="Path 580" d="M762.419-260.176c-15.234,5.184-26.481,19.024-35.3,33.347a230.208,230.208,0,0,0-31.874,90.422c-.809,6.2-1.362,12.617.233,18.639,2.021,7.641,7.3,13.828,13.133,18.707,11.07,9.264,24.478,14.776,38.058,18.559a77.71,77.71,0,0,0,35.251,1.521c11.75-2.191,21.326-6.594,26.991-17.878,3.353-6.678-9.849-35.556-5.045-46.17,11.1-24.81,21.695-38.705,19.052-58.508s-11.726-39.6-27.769-49.728c-5.107-3.227-10.893-9.475-16.813-9.708-12.854-.507-6.681-.628-15.914.8" stroke-miterlimit="10" style="stroke: rgb(8, 13, 13); stroke-width: 1.7727px; fill: rgb(89, 182, 200);" transform="translate(-694.453 261.322)"/>
              <path id="Path_584" data-name="Path 584" d="M 42.011 -23.128 C 46.543 -26.159 63.883 -7.877 65.271 -5.589 C 71.381 4.482 72.127 22.694 71.888 35.405" transform="translate(66.639 161.296) rotate(-148)" fill="none" stroke-linecap="round" stroke-linejoin="round" style="stroke: rgb(8, 13, 13); stroke-width: 1.77281px;"/>
              <path id="Path_1339" data-name="Path 1339" d="M 137.536 100.734 C 135.589 105.147 119.888 141.382 105.741 148.535" fill="none" stroke-linecap="round" stroke-linejoin="round" style="stroke: rgb(8, 13, 13); stroke-width: 1.77221px;" transform="matrix(0.811085, -0.54692, 0.625577, 0.811085, -54.811936, 90.252757)"/>
              <path id="Path_579" data-name="Path 579" d="M 102.775 252.876 C 115.503 228.991 119.933 223.855 138.748 206.72 C 132.369 207.29 130.327 206.226 119.038 207.975" fill="none" stroke-linecap="round" stroke-linejoin="round" style="stroke: rgb(8, 13, 13); stroke-width: 1.77039px;" transform="matrix(-0.226431, 0.910736, -1.041717, -0.226431, 341.918213, 145.042827)" bx:origin="0.289 0.099"/>
            </g>
          </g>
        </g>
        <g id="Group_319" data-name="Group 319" transform="translate(1328.009 393.812)">
          <g id="Group_317" data-name="Group 317" transform="translate(26.88 0)">
            <path id="Path_586" data-name="Path 586" d="M 0.596 6.854 C 2.714 7.321 4.896 7.422 7.048 7.154" fill="none" stroke-linecap="round" stroke-linejoin="round" style="stroke-width: 1.45036px; stroke: rgb(0, 0, 0);" transform="matrix(0.982193, 0.175668, -0.200932, 0.982193, 1.490069, -0.54538)"/>
          </g>
          <g id="Group_318" data-name="Group 318" transform="matrix(0.980253, -0.184899, 0.21149, 0.980253, -1.418884, 0.909518)">
            <path id="Path_588" data-name="Path 588" d="M 47.741 55.73 C 45.623 56.197 41.694 55.251 39.609 56.217" transform="translate(-39.514 -48.876)" fill="none" stroke-linecap="round" stroke-linejoin="round" style="stroke-width: 1.45036px; stroke: rgb(0, 0, 0);"/>
          </g>
          <path id="Path_589" data-name="Path 589" d="M 65.781 66.667 C 65.781 66.667 64.467 65.246 62.55 64.958 C 57.837 64.25 48.563 63.095 40.793 63.591" transform="translate(-38.812 -37.164)" fill="none" stroke-linecap="round" stroke-linejoin="round" style="stroke-width: 1.45036px; stroke: rgb(0, 0, 0);"/>
        </g>
        <g id="Group_1541" data-name="Group 1541" transform="matrix(0.59525, 0, 0, 0.553993, 968.16803, -272.478546)">
          <g id="Group_1539" data-name="Group 1539" transform="matrix(0.99863, -0.052336, 0.052336, 0.99863, 772.2771, 1226.254272)">
            <path id="path-4" data-name="Exclusion 2" d="M -157.42 -5.226 L -157.457 -5.226 C -158.673 -5.154 -159.862 -5.614 -160.74 -6.493 C -161.555 -7.474 -161.964 -8.75 -161.877 -10.045 C -161.897 -11.345 -161.439 -12.605 -160.597 -13.564 C -159.753 -14.467 -158.588 -14.967 -157.379 -14.948 L -157.369 -14.948 C -156.051 -14.947 -154.804 -14.332 -153.967 -13.27 C -154.347 -13.605 -154.832 -13.78 -155.328 -13.761 L -155.362 -13.761 C -156.828 -13.845 -157.83 -12.244 -157.168 -10.879 C -157.077 -10.693 -156.96 -10.522 -156.818 -10.375 C -156.416 -9.957 -155.872 -9.723 -155.303 -9.723 L -155.217 -9.723 C -154.158 -9.734 -153.325 -10.669 -153.393 -11.773 C -153.385 -12.065 -153.433 -12.354 -153.534 -12.625 C -153.088 -11.819 -152.858 -10.903 -152.869 -9.974 C -152.83 -8.694 -153.283 -7.451 -154.127 -6.521 C -155.013 -5.644 -156.2 -5.176 -157.42 -5.226 Z M -153.542 -12.638 C -153.667 -12.86 -153.808 -13.071 -153.967 -13.27 C -153.781 -13.095 -153.635 -12.88 -153.54 -12.639 Z" style="stroke-width: 2.52707px; fill: rgb(50, 63, 81);" transform="matrix(0.44092, 0.901486, -0.893198, 0.441791, -96.993315, 136.244938)"/>
            <path id="path-22" data-name="Exclusion 2" d="M -119.721 -1.678 L -119.758 -1.678 C -120.974 -1.606 -122.163 -2.066 -123.041 -2.945 C -123.856 -3.926 -124.265 -5.202 -124.178 -6.497 C -124.198 -7.797 -123.74 -9.057 -122.898 -10.016 C -122.054 -10.919 -120.889 -11.419 -119.68 -11.4 L -119.67 -11.4 C -118.352 -11.399 -117.105 -10.784 -116.268 -9.722 C -116.648 -10.057 -117.133 -10.232 -117.629 -10.213 L -117.663 -10.213 C -119.129 -10.297 -120.131 -8.696 -119.469 -7.331 C -119.378 -7.145 -119.261 -6.974 -119.119 -6.827 C -118.717 -6.409 -118.173 -6.175 -117.604 -6.175 L -117.518 -6.175 C -116.459 -6.186 -115.626 -7.121 -115.694 -8.225 C -115.686 -8.517 -115.734 -8.806 -115.835 -9.077 C -115.389 -8.271 -115.159 -7.355 -115.17 -6.426 C -115.131 -5.146 -115.584 -3.903 -116.428 -2.973 C -117.314 -2.096 -118.501 -1.628 -119.721 -1.678 Z M -115.843 -9.09 C -115.968 -9.312 -116.109 -9.523 -116.268 -9.722 C -116.082 -9.547 -115.936 -9.332 -115.841 -9.091 Z" style="stroke-width: 2.52707px; fill: rgb(50, 63, 81);" transform="matrix(0.44092, 0.901486, -0.893198, 0.441791, -72.747487, 104.240341)"/>
          </g>
        </g>
      </g>
    </g>
    <g id="Group_656" data-name="Group 656" transform="matrix(0.463966, -0.024315, 0.0259, 0.494203, -9905.03125, 3667.9104)" style=""/>
  </g>
  <g id="Balance" clip-path="url(#clip-Balance)" transform="matrix(1, 0, 0, 1, 2722.854116, 454.097383)"/>
  <g id="Group_1192" data-name="Group 1192" transform="matrix(-1, 0, 0, 1, 6018.35436, -485.076323)"/>
  <polyline style="fill: rgb(216, 216, 216); stroke: rgb(0, 0, 0);" points="510.455 -75.258" transform="matrix(1, 0, 0, 1, 3217.116811, 532.628739)"/>
  <g transform="matrix(1, 0, 0, 1, -320.665222, 73.923439)">
    <g id="Group_1191" data-name="Group 1191" transform="matrix(2.397189, 0, 0, 2.762668, 1292.243896, 26044.060547)" style="">
      <path id="Path_1609" data-name="Path 1609" d="M0,0" transform="matrix(0.996, -0.087, 0.087, 0.996, 287.217, -9238.794)" fill="none" stroke="#353f4f" stroke-miterlimit="10" stroke-width="5.492"/>
      <path id="Path_1607" data-name="Path 1607" d="M 235.581 -9294.366 C 235.277 -9297.992 235.406 -9301.772 237.007 -9304.986 C 239.219 -9309.421 243.824 -9312.052 248.267 -9314.264 C 259.52 -9319.864 271.822 -9324.437 284.534 -9323.584 C 297.246 -9322.731 310.392 -9315.273 314.694 -9303.219 C 316.579 -9297.939 316.67 -9292.265 316.74 -9286.71 L 317.339 -9239.769 C 317.592 -9219.811 329.632 -9198.294 312.679 -9184.757 C 300.959 -9175.398 281.619 -9178.133 273.96 -9190.89 C 265.719 -9204.617 260.751 -9218.214 256.231 -9233.246 C 250.179 -9253.377 237.343 -9273.362 235.581 -9294.366 Z" style="stroke-miterlimit: 3; stroke: rgb(8, 13, 13); stroke-width: 1.93804px; fill: rgb(130, 210, 226);" transform="matrix(0.977659, 0.18239, -0.242245, 0.977659, -2234.485997, -257.063082)"/>
      <path id="Path_1606" data-name="Path 1606" d="M 21.943 -4.144 C 41.574 21.624 37.223 13.512 44.259 23.256 C 47.859 28.245 55.779 38.36 52.489 43.452 C 50.204 46.987 45.44 49.473 40.423 51.188 C 21.852 57.535 19.479 50.83 0 55.709" transform="translate(275.162 -9239.734) rotate(179)" fill="none" stroke-linecap="round" stroke-linejoin="round" style="stroke: rgb(8, 13, 13); stroke-width: 1.93805px;"/>
      <path id="Path_1611" data-name="Path 1611" d="M -2.532 -2.945 C -1.074 32.804 1.084 61.869 0.592 97.93 C 9.547 96.217 12.291 102.461 20.841 98.071" transform="translate(298.342 -9177.961) rotate(1)" fill="none" stroke-linecap="round" stroke-linejoin="round" style="stroke: rgb(8, 13, 13); stroke-width: 1.93805px;"/>
      <path id="Path_1608" data-name="Path 1608" d="M 23.222 -0.601 C 18.457 36.012 14.823 60.818 17.084 96.779 C 11.625 94.756 4.516 101.588 -1.3 101.844" transform="translate(243.377 -9180.246) rotate(1)" fill="none" stroke-linecap="round" stroke-linejoin="round" style="stroke: rgb(8, 13, 13); stroke-width: 1.93805px;"/>
      <path id="Path_1612" data-name="Path 1612" d="M0,0C7.536,3.751,12.806,7.045,18.678,13.161c7.36,7.668,11.266,18.246,12.781,28.879s.823,21.452.13,32.174" transform="matrix(0.996, -0.087, 0.087, 0.996, 318.312, -9241.57)" fill="none" stroke-linecap="round" stroke-linejoin="round" style="stroke: rgb(8, 13, 13); stroke-width: 1.93861px;"/>
    </g>
    <path id="path-33" data-name="Path 1622" d="M 2020.779 410.66 C 2020.86 406.672 2016.595 404.092 2013.101 406.015 C 2009.607 407.938 2009.505 412.922 2012.917 414.987 C 2013.695 415.457 2014.584 415.715 2015.493 415.734 C 2018.355 415.795 2020.723 413.522 2020.779 410.66" transform="matrix(-1, 0, 0, -1, 4031.198364, 821.10025)"/>
    <path id="path-34" data-name="Path 1623" d="M 1943.193 407.987 C 1943.276 403.998 1939.01 401.415 1935.513 403.337 C 1932.017 405.26 1931.913 410.246 1935.326 412.312 C 1936.107 412.785 1936.998 413.043 1937.911 413.061 C 1940.771 413.12 1943.137 410.847 1943.193 407.987" transform="matrix(-1, 0, 0, -1, 3876.021606, 815.750153)"/>
    <path id="path-35" data-name="Path 1624" d="M 1948.958 468.643 C 1949.203 468.505 1960.341 463.624 1972.169 463.974 C 1985.427 464.364 1999.549 469.968 2000.163 469.263 C 2000.702 468.645 2000.96 467.678 2000.84 466.727 L 2000.732 465.453 C 2000.63 464.329 2000.483 463.213 2000.293 462.11 C 1999.616 458.153 1998.545 454.342 1997.109 450.788 C 1996.117 448.351 1994.927 446.075 1993.564 444.005 C 1991.997 441.644 1990.211 439.577 1988.252 437.858 C 1987.203 437.019 1986.087 436.277 1984.971 435.483 C 1983.803 434.884 1982.613 434.295 1981.393 433.757 C 1980.106 433.374 1978.767 433.061 1977.439 432.754 C 1976.193 432.54 1975.166 432.56 1974.017 432.453 C 1971.439 432.376 1968.866 432.772 1966.365 433.635 C 1963.933 434.417 1961.605 435.717 1959.465 437.488 C 1957.461 439.095 1955.63 441.078 1954.023 443.379 C 1953.268 444.469 1952.613 445.611 1951.951 446.682 C 1951.389 447.833 1950.847 448.944 1950.325 450.015 C 1948.809 453.507 1947.657 457.275 1946.903 461.209 C 1946.685 462.306 1946.512 463.418 1946.386 464.542 C 1946.304 465.34 1946.263 465.771 1946.263 465.771 C 1946.058 467.836 1947.555 469.433 1948.958 468.643 Z" style="" transform="matrix(-1, 0, 0, -1, 3947.112915, 901.767883)"/>
    <path d="M 2016.466 387.408 C 2018.644 391.388 2019.921 395.363 2021.569 398.234 C 2023.599 401.767 2026.191 403.627 2031.719 401.763" style="stroke: rgb(0, 0, 0);" transform="matrix(-0.905752, 0.423808, -0.423808, -0.905752, 4024.802789, -105.143313)"/>
    <path d="M 1920.926 399.033 C 1923.104 395.053 1924.381 391.078 1926.029 388.207 C 1928.059 384.674 1930.651 382.814 1936.179 384.678" style="stroke: rgb(0, 0, 0);" transform="matrix(0.905752, 0.423808, -0.423808, 0.905752, 347.67767, -780.439034)"/>
  </g>
  <g id="g-6" data-name="Group 1411" transform="matrix(1, 0, 0, 1, 145.141408, -3288.513335)">
    <rect id="rect-4" data-name="Rectangle 451" width="228.937" height="242.798" transform="matrix(-0.777, -0.629, 0.629, -0.777, 1442.229, 4079.014)" fill="none"/>
    <g id="g-11" data-name="Group 1404" transform="matrix(0.996, 0.087, -0.087, 0.996, 321.395, -105.091)"/>
  </g>
  <path style="fill: rgb(216, 216, 216); stroke: rgb(0, 0, 0);" d="M -167.225 -0.173" transform="matrix(1, 0, 0, 1, 1338.368612, 550.87082)"/>
  <g transform="matrix(3.012212, 0, 0, 2.898011, -3082.168213, -4275.561035)">
    <g id="g-5" data-name="Group 1073" transform="matrix(1, 0, 0, 1, 1044.945923, 1557.512939)">
      <path id="path-5" data-name="Path 368" d="M 96.307 176.039 C 93.573 211.888 98.111 274.127 99.436 291.607 C 92.86 290.403 86.129 290.311 79.523 291.333" fill="none" stroke-linecap="round" stroke-linejoin="round" style="stroke: rgb(8, 13, 13); stroke-width: 1.69198px;"/>
      <path id="path-9" data-name="Path 369" d="M 127.254 175.825 C 128.21 216.637 125.949 248.876 126.991 289.686 C 134.347 289.014 141.719 288.58 149.109 288.386" fill="none" stroke-linecap="round" stroke-linejoin="round" style="stroke: rgb(8, 13, 13); stroke-width: 1.69198px;"/>
      <path id="path-19" data-name="Path 373" d="M 74.967 10.45 C 45.452 12.73 49.31 154.482 57.667 165.564 C 64.351 174.424 146.112 159.796 148.865 150.352 C 152.973 136.263 103.24 8.265 74.967 10.45 Z" stroke-miterlimit="10" style="stroke: rgb(8, 13, 13); stroke-width: 1.69135px; fill: rgb(118, 185, 199);" transform="matrix(0.982, 0.191, -0.191, 0.982, 42.813, 2.539)"/>
      <path id="path-20" data-name="Path 379" d="M 159.632 126.694 L 178.579 119.577 C 181.614 117.415 187.352 112.556 186.645 107 C 186.144 104.101 156.552 83.093 135.637 90.299" fill="none" stroke-linecap="round" stroke-linejoin="round" style="stroke: rgb(8, 13, 13); stroke-width: 1.69139px;" transform="matrix(0.998748, 0.051987, -0.04812, 0.998748, 4.099274, -8.76416)"/>
    </g>
    <path id="path-23" data-name="Path 1772" d="M 1151.22 1687.679 C 1149.516 1688.463 1147.956 1689.55 1146.611 1690.89 C 1145.929 1691.551 1145.62 1692.289 1146.29 1693.078 C 1146.931 1693.832 1147.593 1693.472 1148.204 1692.892 C 1152.976 1688.365 1158.208 1688.097 1163.761 1690.859 C 1164.037 1690.997 1164.321 1691.119 1164.593 1691.264 C 1165.278 1691.629 1165.937 1691.649 1166.344 1690.864 C 1166.767 1690.049 1166.522 1689.352 1165.744 1688.931 C 1161.089 1686.42 1156.294 1685.476 1151.22 1687.679 Z" style="fill: rgb(8, 13, 13);" transform="matrix(-0.998777, -0.051382, 0.04756, -0.998777, 2230.677625, 3437.292559)"/>
    <path id="path-24" data-name="Path 1663" d="M 1166.084 1664.742 C 1166.109 1664.733 1166.551 1664.503 1166.794 1664.387 C 1167.356 1664.107 1167.979 1663.869 1168.648 1663.676 C 1168.986 1663.575 1169.338 1663.49 1169.701 1663.419 C 1169.87 1663.377 1170.05 1663.363 1170.21 1663.332 C 1170.367 1663.306 1170.525 1663.284 1170.683 1663.268 C 1171.275 1663.186 1173.204 1663.245 1173.282 1662.367 C 1173.365 1661.434 1170.265 1661.231 1167.747 1661.779 C 1164.713 1662.438 1163.672 1663.548 1163.576 1664.221 C 1163.496 1664.859 1164.274 1665.073 1164.982 1665.072 C 1165.412 1665.073 1166.06 1664.75 1166.085 1664.743" style="fill: rgb(8, 13, 13);" transform="matrix(0.941993, 0.348858, -0.322907, 0.941993, 604.860169, -311.13392)"/>
    <path id="path-25" data-name="Path 1665" d="M 1147.483 1664.471 C 1147.947 1662.86 1146.559 1661.331 1144.985 1661.719 C 1143.412 1662.106 1142.831 1664.12 1143.941 1665.343 C 1144.194 1665.621 1144.513 1665.826 1144.867 1665.936 C 1145.979 1666.282 1147.149 1665.626 1147.483 1664.471" transform="matrix(1, 0.000001, -0.000001, 1, 0.001601, -0.001191)"/>
    <path id="path-21" data-name="Path 1665" d="M 1169.694 1665.628 C 1170.158 1664.017 1168.77 1662.488 1167.196 1662.876 C 1165.623 1663.263 1165.042 1665.277 1166.152 1666.5 C 1166.405 1666.778 1166.724 1666.983 1167.078 1667.093 C 1168.19 1667.439 1169.36 1666.783 1169.694 1665.628" transform="matrix(1, 0.000001, -0.000001, 1, 0.001541, -0.001168)"/>
    <path id="path-55" data-name="Path 1663" d="M 1141.784 1663.94 C 1141.809 1663.931 1142.251 1663.701 1142.494 1663.585 C 1143.056 1663.305 1143.679 1663.067 1144.348 1662.874 C 1144.686 1662.773 1145.038 1662.688 1145.401 1662.617 C 1145.57 1662.575 1145.75 1662.561 1145.91 1662.53 C 1146.067 1662.504 1146.225 1662.482 1146.383 1662.466 C 1146.975 1662.384 1148.904 1662.443 1148.982 1661.565 C 1149.065 1660.632 1145.965 1660.429 1143.447 1660.977 C 1140.413 1661.636 1139.372 1662.746 1139.276 1663.419 C 1139.196 1664.057 1139.974 1664.271 1140.682 1664.27 C 1141.112 1664.271 1141.76 1663.948 1141.785 1663.941" style="fill: rgb(8, 13, 13);" transform="matrix(0.997561, 0.072553, -0.067156, 0.997561, 114.435604, -78.954799)"/>
  </g>
  <g id="Group_1218" data-name="Group 1218" transform="matrix(1, 0, 0, 1, -4353.608887, -858.426575)">
    <g id="Group_775" data-name="Group 775" transform="translate(1605.99 -3345)"/>
    <g id="Group_1200" data-name="Group 1200" transform="matrix(1, 0, 0, 1, 4716.282227, 1241.045044)">
      <path id="Path_368" data-name="Path 368" d="M 189.287 363.331 C 177.651 426.523 176.56 687.207 182.207 761.554 C 165.547 757.681 148.493 757.382 131.754 760.672" fill="none" stroke-linecap="round" stroke-linejoin="round" style="stroke: rgb(8, 13, 13); stroke-width: 5px;" transform="matrix(0.998116, -0.061348, 0.061348, 0.998116, -35.405876, 11.019971)"/>
      <path id="Path_369" data-name="Path 369" d="M 295.74 372.89 C 298.163 495.695 273.964 636.523 276.604 759.323 C 295.242 757.3 313.922 755.994 332.644 755.404" fill="none" stroke-linecap="round" stroke-linejoin="round" style="stroke: rgb(8, 13, 13); stroke-width: 5px;"/>
      <path id="Path_370" data-name="Path 370" d="M80.769,13.2,66.43,53.516H90.418L76.687,92.92" transform="translate(145.711)" fill="none" stroke="#930031" stroke-linecap="round" stroke-width="6"/>
      <path id="Path_371" data-name="Path 371" d="M52.483,14.609,52.618,57.4l22.576-8.11.4,41.726" transform="translate(99.205 4.692)" fill="none" stroke="#930031" stroke-linecap="round" stroke-width="6"/>
      <path id="Path_372" data-name="Path 372" d="M116.594,15.262,87.125,46.285l21.923,9.738L80.5,86.46" transform="translate(192.642 6.868)" fill="none" stroke="#930031" stroke-linecap="round" stroke-width="6"/>
      <path id="Path_373" data-name="Path 373" d="M 96.436 50.326 C 105.131 106.433 207.453 504.226 235.102 512.632 C 259.609 520.076 377.725 112.057 367.382 13.033 C 355.806 -97.795 280.799 -127.046 209.163 -117.925 C 134.385 -108.412 80.147 -54.763 96.436 50.326 Z" fill="#7ec8d6" stroke="#353f4f" stroke-miterlimit="10" style="" stroke-width="6"/>
      <path id="Path_380" data-name="Path 380" d="M 130.749 500.908 C 130.749 500.908 111.558 101.248 133.652 91.465" transform="translate(0 121.546)" fill="none" stroke-linecap="round" stroke-linejoin="round" style="stroke: rgb(8, 13, 13); stroke-width: 5px;"/>
      <path id="path-73" data-name="Path 380" d="M 347.498 204.468 C 347.498 204.468 328.307 604.128 350.401 613.911" fill="none" stroke-linecap="round" stroke-linejoin="round" transform="matrix(-1, 0, 0, -1, 690.168884, 818.378998)" style="stroke: rgb(8, 13, 13); stroke-width: 5px;"/>
    </g>
  </g>
  <g id="Group_1216" data-name="Group 1216" transform="matrix(1, 0, 0, 1, -1633.405518, -9092.55957)">
    <g id="Group_1209" data-name="Group 1209" transform="translate(53.113 -929)">
      <path id="Path_1764" data-name="Path 1764" d="M-976.144,187.328" transform="translate(3011.323 9745.573)" fill="none" stroke="#323f51" stroke-width="1"/>
      <g transform="matrix(1, 0, 0, 1, 312.327271, -31.657322)">
        <g transform="matrix(0.970713, 0.240244, -0.240244, 0.970713, 5243.950195, 1084.056519)">
          <g id="g-7" data-name="Group 743" transform="matrix(1, 0, 0, 1, 289.808624, 6782.151367)">
            <g id="g-8" data-name="Group 1192" transform="matrix(1, 0, 0, 1, 111.145357, 2774.776183)">
              <g id="g-9" data-name="Group 1172" transform="translate(23905 -3962.757)">
                <g id="g-10" data-name="Group 1164" transform="matrix(1, 0, 0, 1, -25999.605469, 4073.853027)">
                  <g id="g-12" data-name="Group 1163" clip-path="url(#clip-3)">
                    <g id="g-13" data-name="Group 1162">
                      <g id="g-14" data-name="Group 1161" clip-path="url(#clip-3)">
                        <path id="path-27" data-name="Path 1684" d="M 364.879 633.599 C 360.173 734.065 349.785 806.65 335.554 906.879 C 379.367 907.212 363.938 910.784 405.573 916.463" fill="none" stroke-linecap="round" stroke-linejoin="round" transform="matrix(0.94708, -0.320998, 0.320998, 0.94708, -226.85572, 164.465487)" style="stroke: rgb(8, 13, 13); stroke-width: 5px;"/>
                        <path id="path-28" data-name="Path 1686" d="M103.621,579.09c4.4,12.022,10.423,23.942,20.369,32,13.729,11.126,32.522,13.153,50.17,14.058,44.679,2.293,91.215-.156,131.038-20.541S376.426,542.1,372.44,497.54c-1.744-19.511-9.877-37.8-17.886-55.674L286.809,290.81c-28.8-64.209-64.923-144.688-139.8-164.463-51.77-13.671-82.873,7.731-88.688,59.2-6.26,55.372,13.609,114.868,21.312,169.263,10.321,72.828-1.49,154.615,23.986,224.284" style="fill: rgb(104, 165, 177);" transform="translate(19.256 41.232)"/>
                        <path id="path-30" data-name="Path 1687" d="M103.621,579.09c4.4,12.022,10.423,23.942,20.369,32,13.729,11.126,32.522,13.153,50.17,14.058,44.679,2.293,91.215-.156,131.038-20.541S376.426,542.1,372.44,497.54c-1.744-19.511-9.877-37.8-17.886-55.674L286.809,290.81c-28.8-64.209-64.923-144.688-139.8-164.463-51.77-13.671-82.873,7.731-88.688,59.2-6.26,55.372,13.609,114.868,21.312,169.263C89.956,427.635,78.145,509.421,103.621,579.09Z" transform="translate(19.256 41.232)" fill="none" stroke-miterlimit="10" style="stroke: rgb(8, 13, 13); stroke-width: 5px;"/>
                        <g id="g-15" data-name="Group 1157" transform="translate(4.21 925.342)" opacity="0.17"/>
                        <path id="path-32" data-name="Path 1704" d="M160.488,288.017c4.673-1.7,10.087,1.413,12.093,6.94s-.158,11.384-4.83,13.081-10.087-1.413-12.093-6.941.158-11.383,4.83-13.08" transform="translate(52.221 96.936)" fill="#323f51"/>
                        <path id="path-43" data-name="Path 1684" d="M 234.299 947.397 C 229.593 846.931 219.205 774.346 204.973 674.117 C 248.787 673.784 233.358 670.212 274.993 664.533" fill="none" stroke-linecap="round" stroke-linejoin="round" transform="matrix(-0.987473, 0.157789, -0.157789, -0.987473, 604.132094, 1563.966886)" style="stroke: rgb(8, 13, 13); stroke-width: 5px;"/>
                        <path id="path-44" data-name="Path 1665" d="M 161.209 338.514 C 162.605 333.845 158.428 329.414 153.686 330.538 C 148.944 331.66 147.196 337.494 150.539 341.042 C 151.301 341.848 152.264 342.442 153.329 342.76 C 156.676 343.763 160.204 341.862 161.209 338.514" transform="matrix(0.970713, -0.240243, 0.240243, 0.970713, -76.344651, 47.133479)"/>
                        <path id="path-45" data-name="Path 1666" d="M 233.061 318.049 C 234.458 313.38 230.278 308.954 225.538 310.079 C 220.796 311.203 219.052 317.037 222.397 320.579 C 223.159 321.388 224.123 321.982 225.19 322.298 C 228.537 323.301 232.063 321.396 233.061 318.049" transform="matrix(0.970713, -0.240243, 0.240243, 0.970713, -69.324679, 63.796589)"/>
                      </g>
                    </g>
                  </g>
                </g>
                <g id="g-16" data-name="Group 1171" transform="translate(-21365.596 5443.219)"/>
              </g>
            </g>
          </g>
        </g>
      </g>
      <g transform="matrix(1, 0, 0, 1, 129.96701, 48.472881)">
        <g transform="matrix(0.970713, 0.240244, -0.240244, 0.970713, 5243.950195, 1084.056519)">
          <g id="Group_743" data-name="Group 743" transform="matrix(1, 0, 0, 1, 289.808624, 6782.151367)">
            <g id="g-4" data-name="Group 1192" transform="matrix(1, 0, 0, 1, 111.145357, 2774.776183)">
              <g id="Group_1172" data-name="Group 1172" transform="translate(23905 -3962.757)">
                <g id="Group_1164" data-name="Group 1164" transform="matrix(1, 0, 0, 1, -25999.605469, 4073.853027)">
                  <g id="Group_1163" data-name="Group 1163" clip-path="url(#clip-2)">
                    <g id="Group_1162" data-name="Group 1162">
                      <g id="Group_1161" data-name="Group 1161" clip-path="url(#clip-2)">
                        <path id="Path_1684" data-name="Path 1684" d="M 364.879 633.599 C 360.173 734.065 349.785 806.65 335.554 906.879 C 379.367 907.212 363.938 910.784 405.573 916.463" fill="none" stroke-linecap="round" stroke-linejoin="round" transform="matrix(0.94708, -0.320998, 0.320998, 0.94708, -226.85572, 164.465487)" style="stroke: rgb(8, 13, 13); stroke-width: 5px;"/>
                        <path id="Path_1686" data-name="Path 1686" d="M103.621,579.09c4.4,12.022,10.423,23.942,20.369,32,13.729,11.126,32.522,13.153,50.17,14.058,44.679,2.293,91.215-.156,131.038-20.541S376.426,542.1,372.44,497.54c-1.744-19.511-9.877-37.8-17.886-55.674L286.809,290.81c-28.8-64.209-64.923-144.688-139.8-164.463-51.77-13.671-82.873,7.731-88.688,59.2-6.26,55.372,13.609,114.868,21.312,169.263,10.321,72.828-1.49,154.615,23.986,224.284" style="fill: rgb(126, 200, 214);" transform="translate(19.256 41.232)"/>
                        <path id="Path_1687" data-name="Path 1687" d="M103.621,579.09c4.4,12.022,10.423,23.942,20.369,32,13.729,11.126,32.522,13.153,50.17,14.058,44.679,2.293,91.215-.156,131.038-20.541S376.426,542.1,372.44,497.54c-1.744-19.511-9.877-37.8-17.886-55.674L286.809,290.81c-28.8-64.209-64.923-144.688-139.8-164.463-51.77-13.671-82.873,7.731-88.688,59.2-6.26,55.372,13.609,114.868,21.312,169.263C89.956,427.635,78.145,509.421,103.621,579.09Z" transform="translate(19.256 41.232)" fill="none" stroke-miterlimit="10" style="stroke: rgb(8, 13, 13); stroke-width: 5px;"/>
                        <path id="Path_1689" data-name="Path 1689" d="M180.715,199.7a26.412,26.412,0,0,1,7.872,2.912c1.2.663,1.813,1.512.893,2.654-.9,1.1-2.007.8-3.081.226-8.356-4.517-16.708-3.6-25.055,1.166-.421.239-.844.46-1.254.7-1.026.619-2.07.8-2.851-.082-.809-.917-.542-1.848.622-2.557,6.962-4.247,14.417-6.571,22.854-5.025" transform="translate(52.849 67.16)" fill="#323f51"/>
                        <g id="Group_1157" data-name="Group 1157" transform="translate(4.21 925.342)" opacity="0.17"/>
                        <path id="Path_1704" data-name="Path 1704" d="M160.488,288.017c4.673-1.7,10.087,1.413,12.093,6.94s-.158,11.384-4.83,13.081-10.087-1.413-12.093-6.941.158-11.383,4.83-13.08" transform="translate(52.221 96.936)" fill="#323f51"/>
                        <path id="path-10" data-name="Path 1689" d="M 135.564 306.366 C 138.326 306.91 140.984 307.893 143.436 309.278 C 144.636 309.941 145.249 310.79 144.329 311.932 C 143.429 313.032 142.322 312.732 141.248 312.158 C 132.892 307.641 124.54 308.558 116.193 313.324 C 115.772 313.563 115.349 313.784 114.939 314.024 C 113.913 314.643 112.869 314.824 112.088 313.942 C 111.279 313.025 111.546 312.094 112.71 311.385 C 119.672 307.138 127.127 304.814 135.564 306.36" fill="#323f51" transform="matrix(0.637643, -0.770332, 0.770332, 0.637643, -192.514003, 211.162715)"/>
                        <path id="path-74" data-name="Path 1684" d="M 234.299 947.397 C 229.593 846.931 219.205 774.346 204.973 674.117 C 248.787 673.784 233.358 670.212 274.993 664.533" fill="none" stroke-linecap="round" stroke-linejoin="round" transform="matrix(-0.987473, 0.157789, -0.157789, -0.987473, 604.132094, 1563.966886)" style="stroke: rgb(8, 13, 13); stroke-width: 5px;"/>
                        <path id="path-2" data-name="Path 1665" d="M 161.209 338.514 C 162.605 333.845 158.428 329.414 153.686 330.538 C 148.944 331.66 147.196 337.494 150.539 341.042 C 151.301 341.848 152.264 342.442 153.329 342.76 C 156.676 343.763 160.204 341.862 161.209 338.514" transform="matrix(0.970713, -0.240243, 0.240243, 0.970713, -76.344651, 47.133479)"/>
                        <path id="path-3" data-name="Path 1666" d="M 233.061 318.049 C 234.458 313.38 230.278 308.954 225.538 310.079 C 220.796 311.203 219.052 317.037 222.397 320.579 C 223.159 321.388 224.123 321.982 225.19 322.298 C 228.537 323.301 232.063 321.396 233.061 318.049" transform="matrix(0.970713, -0.240243, 0.240243, 0.970713, -69.324679, 63.796589)"/>
                      </g>
                    </g>
                  </g>
                </g>
                <g id="Group_1171" data-name="Group 1171" transform="translate(-21365.596 5443.219)"/>
              </g>
            </g>
          </g>
        </g>
      </g>
      <g id="g-2" data-name="Group 1541" transform="matrix(3.012212, 0, 0, 2.898011, -1510.611694, 6727.850098)" style="">
        <g id="Group_1073" data-name="Group 1073" transform="matrix(1, 0, 0, 1, 976.202637, 1219.205933)">
          <path id="path-1" data-name="Path 368" d="M 75.346 108.27 C 65.776 140.799 62.18 203.06 63.505 220.54 C 56.929 219.336 50.198 219.244 43.592 220.266" transform="translate(20.372 67.945)" fill="none" stroke-linecap="round" stroke-linejoin="round" style="stroke: rgb(8, 13, 13); stroke-width: 1.69198px;"/>
          <path id="path-7" data-name="Path 369" d="M 128.625 173.514 C 129.581 214.326 131.127 245.201 132.169 286.011 C 139.525 285.339 146.897 284.905 154.287 284.711" fill="none" stroke-linecap="round" stroke-linejoin="round" style="stroke: rgb(8, 13, 13); stroke-width: 1.69198px;"/>
          <path id="path-8" data-name="Path 373" d="M43.509,104.53c3.432,13.45,10.885,25.532,19.242,36.614,6.684,8.86,14.883,17.755,25.8,19.771,9.672,1.784,19.567-2.318,27.541-8.078,19.528-14.1,30.683-39.466,26.6-63.206-4.569-26.569-32.136-52.772-60.409-50.587C52.768,41.324,37.08,79.338,43.509,104.53Z" stroke-miterlimit="10" style="stroke: rgb(8, 13, 13); stroke-width: 1.69135px; fill: rgb(139, 220, 236);" transform="matrix(0.982, 0.191, -0.191, 0.982, 42.813, 2.539)"/>
          <path id="path-11" data-name="Path 379" d="M103.83,137.492l8.614-6.15c3.026-2.161,6.128-4.406,8.532-8.431a25.822,25.822,0,0,0,3.126-16.068,30.691,30.691,0,0,0-2.75-8.34c-10.038-22.059-22.928-39.66-37.29-50.923" transform="matrix(0.999, 0.052, -0.052, 0.999, 70.369, -17.522)" fill="none" stroke-linecap="round" stroke-linejoin="round" style="stroke: rgb(8, 13, 13); stroke-width: 1.69139px;"/>
          <path id="path-12" data-name="Path 380" d="M39.685,49.654C36.757,51.317,33.8,53,31.03,57s-5.391,10.523-7.022,20.083a88.755,88.755,0,0,0-1.269,13.6,92.03,92.03,0,0,0,1.212,15.8A68.18,68.18,0,0,0,33.59,132.7l10.432,17.876" transform="translate(30.605 92.635)" fill="none" stroke-linecap="round" stroke-linejoin="round" style="stroke: rgb(8, 13, 13); stroke-width: 1.69198px;"/>
          <path id="path-6" data-name="Path 379" d="M -18.554 3.429 C -18.554 3.429 -6.839 12.638 -4.419 16.664 C -1.642 21.542 -0.523 27.184 -1.23 32.74 C -1.731 35.638 -2.646 38.448 -3.948 41.083 C -13.904 63.152 -26.729 80.761 -41.051 92.03" fill="none" stroke-linecap="round" stroke-linejoin="round" style="stroke: rgb(8, 13, 13); stroke-width: 1.69198px;" transform="matrix(-0.90926, 0.43263, -0.400448, -0.90926, -21.052381, 100.229377)"/>
        </g>
        <g id="g-3" data-name="Group 1539" transform="translate(1061.253 1252.495) rotate(-3)">
          <path id="Path_2028" data-name="Path 2028" d="M 47.013 87.387 C 47.013 87.387 21.057 106.412 -0.485 87.387" fill="none" stroke-linecap="round" stroke-linejoin="round" style="stroke: rgb(0, 38, 64); stroke-width: 2.36794px;" transform="matrix(0.998546, 0.051976, -0.04813, 0.998951, 4.44324, -1.113025)"/>
          <path id="path-36" data-name="Path 1662" d="M 10.514 57.762 C 10.49 57.782 10.052 58.268 9.814 58.515 C 9.258 59.108 8.633 59.626 7.954 60.058 C 7.61 60.283 7.25 60.478 6.877 60.643 C 6.706 60.737 6.517 60.778 6.353 60.855 C 6.193 60.919 6.029 60.972 5.863 61.016 C 5.253 61.225 3.221 61.253 3.249 62.992 C 3.275 64.832 6.556 64.993 9.14 63.725 C 12.246 62.197 13.203 59.93 13.214 58.598 C 13.226 57.338 12.38 56.976 11.635 57.032 C 11.183 57.062 10.54 57.745 10.515 57.762" fill="#002640" transform="matrix(0.998528, 0.052332, -0.04846, 0.998935, 2.957853, -0.366011)"/>
          <path id="path-37" data-name="Path 1663" d="M 40.691 60.519 C 40.717 60.536 41.181 60.99 41.436 61.22 C 42.026 61.771 42.68 62.242 43.383 62.623 C 43.739 62.822 44.109 62.991 44.491 63.13 C 44.668 63.212 44.858 63.24 45.027 63.302 C 45.191 63.353 45.357 63.396 45.524 63.429 C 46.147 63.59 48.18 63.473 48.255 65.207 C 48.335 67.048 45.068 67.448 42.42 66.368 C 39.229 65.066 38.141 62.875 38.045 61.546 C 37.965 60.288 38.786 59.867 39.532 59.868 C 39.985 59.865 40.666 60.502 40.692 60.517" fill="#002640" transform="matrix(0.998528, 0.052332, -0.04846, 0.998935, 3.13657, -2.190467)"/>
          <path id="path-38" data-name="Path 1665" d="M 11.425 68.87 C 11.896 67.259 10.514 65.73 8.938 66.118 C 7.363 66.505 6.774 68.519 7.88 69.742 C 8.132 70.02 8.45 70.225 8.803 70.335 C 9.914 70.681 11.087 70.025 11.425 68.87" transform="matrix(0.998528, 0.052332, -0.04846, 0.998935, 3.320856, -0.420001)"/>
          <path id="path-39" data-name="Path 1666" d="M 42.737 71.932 C 43.207 70.321 41.825 68.794 40.25 69.182 C 38.675 69.57 38.088 71.583 39.193 72.805 C 39.446 73.084 39.765 73.289 40.118 73.398 C 41.228 73.744 42.402 73.087 42.737 71.932" transform="matrix(0.998528, 0.052332, -0.04846, 0.998935, 3.515409, -2.055378)"/>
          <g transform="matrix(1, 0, 0, 1, -4.335208, -14.666809)">
            <g transform="matrix(0.99863, 0.052336, -0.052336, 0.99863, -168.656082, -65.838051)">
              <path id="path-29" data-name="Path 379" d="M 622.519 150.056 L 631.159 143.903 C 634.194 141.741 637.305 139.495 639.725 135.469 C 642.502 130.591 643.621 124.949 642.914 119.393 C 642.413 116.495 641.498 113.685 640.196 111.05 C 630.24 88.981 617.415 71.372 603.093 60.103" fill="none" stroke="#502831" stroke-linecap="round" stroke-linejoin="round" style="stroke-width: 1.69198px;" transform="matrix(0.90926, 0.43263, -0.400448, 0.90926, 98.619371, -260.039899)"/>
              <path id="path-26" data-name="Path 421" d="M 514.181 208.498 C 511.831 231.928 524.54 248.917 550.63 261.393 C 587.535 279.04 617.52 242.87 615.552 199.658 L 604.697 140.904 C 604.343 116.2 608.145 60.746 584.324 68.474 C 570.795 72.863 558.913 60.098 550.681 75.274 C 541.557 92.098 540.14 114.214 535.524 132.827 C 529.339 157.75 516.757 182.812 514.181 208.498 Z" stroke-miterlimit="10" style="stroke: rgb(8, 13, 13); stroke-width: 1.69198px; fill: rgb(94, 175, 191);"/>
              <path id="path-66" data-name="Path 1685" d="M 552.618 263.871 C 544.927 299.017 542.89 316.324 546.546 350.845 C 537.479 348.878 528.223 348.014 518.964 348.27" fill="none" stroke-linecap="round" stroke-linejoin="round" transform="matrix(0.995205, -0.10167, 0.094107, 0.995205, -26.181816, 55.630856)" style="stroke: rgb(8, 13, 13); stroke-width: 1.69198px;"/>
              <path id="path-67" data-name="Path 1685" d="M 625.916 347.656 C 618.224 312.51 618.237 297.39 621.892 262.869 C 612.826 264.836 603.57 265.7 594.311 265.444" fill="none" stroke-linecap="round" stroke-linejoin="round" transform="matrix(-0.996982, -0.080689, 0.074687, -0.996982, 1186.217223, 658.819751)" style="stroke: rgb(8, 13, 13); stroke-width: 1.69198px;"/>
              <g id="Group_367" data-name="Group 367" transform="matrix(0.448039, 0, 0, 0.459061, 518.619812, 64.680458)" style="">
                <path id="Path_200" data-name="Path 200" d="M 73.201 102.981 C 73.279 110.881 98.737 110.637 98.66 102.734" fill="none" stroke-linecap="round" stroke-linejoin="round" style="stroke: rgb(0, 0, 0); stroke-width: 3.73144px;" transform="matrix(-0.962128, 0.272598, -0.272598, -0.962128, 197.436648, 184.089232)"/>
                <path id="Path_201" data-name="Path 201" d="M 139.735 100.244 C 139.813 108.144 165.27 107.9 165.193 99.997" fill="none" stroke-linecap="round" stroke-linejoin="round" style="stroke: rgb(0, 0, 0); stroke-width: 3.73143px;" transform="matrix(-0.975828, -0.218542, 0.218542, -0.975828, 278.728, 236.874539)"/>
                <path id="Path_202" data-name="Path 202" d="M 87.899 151.96 C 100.001 162.288 140.491 159.021 151.109 145.999" fill="none" stroke-linecap="round" stroke-linejoin="round" style="stroke: rgb(0, 0, 0); stroke-width: 3.73141px;"/>
              </g>
            </g>
            <path id="path-40" data-name="Path 1665" d="M 386.644 81.608 C 387.114 79.997 385.733 78.468 384.157 78.856 C 382.581 79.243 381.993 81.256 383.098 82.48 C 383.35 82.758 383.669 82.963 384.022 83.073 C 385.132 83.419 386.306 82.763 386.644 81.608" transform="matrix(0.998528, 0.052332, -0.04846, 0.998935, 4.490561, -20.042369)"/>
            <path id="path-41" data-name="Path 1666" d="M 411.444 82.008 C 411.914 80.397 410.532 78.87 408.957 79.258 C 407.381 79.646 406.794 81.659 407.9 82.881 C 408.152 83.16 408.471 83.365 408.825 83.474 C 409.935 83.82 411.108 83.163 411.444 82.008" transform="matrix(0.998528, 0.052332, -0.04846, 0.998935, 4.546527, -21.339798)"/>
            <path id="path-13" data-name="Path 1665" d="M 386.644 81.608 C 387.114 79.997 385.733 78.468 384.157 78.856 C 382.581 79.243 381.993 81.256 383.098 82.48 C 383.35 82.758 383.669 82.963 384.022 83.073 C 385.132 83.419 386.306 82.763 386.644 81.608" transform="matrix(0.998528, 0.052332, -0.04846, 0.998935, -111.096664, -16.941077)"/>
            <path id="path-14" data-name="Path 1666" d="M 411.444 82.008 C 411.914 80.397 410.532 78.87 408.957 79.258 C 407.381 79.646 406.794 81.659 407.9 82.881 C 408.152 83.16 408.471 83.365 408.825 83.474 C 409.935 83.82 411.108 83.163 411.444 82.008" transform="matrix(0.998528, 0.052332, -0.04846, 0.998935, -111.040699, -18.238498)"/>
          </g>
        </g>
        <g id="Group_1540" data-name="Group 1540" transform="translate(-68.904 -0.125) rotate(-2)"/>
      </g>
      <g transform="matrix(1, 0, 0, 1, 480.973755, 633.471436)">
        <path id="Path_1765" data-name="Path 1765" d="M 2113.702 10360.902 C 2114.527 10428.095 2115.346 10473.329 2116.171 10540.527 C 2138.69 10543.202 2161.419 10543.634 2184.024 10541.818" fill="none" stroke-linecap="round" stroke-linejoin="round" style="stroke: rgb(8, 13, 13); stroke-width: 5px;"/>
        <path id="Path_1767" data-name="Path 1767" d="M 2113.183 9730.873 C 2165.746 9760.508 2197.61 9817.303 2220.191 9873.943 C 2263.014 9981.754 2281.703 10097.636 2274.945 10213.443 C 2273.629 10235.674 2271.206 10258.466 2261.153 10278.253 C 2248.393 10303.371 2224.644 10320.93 2199.753 10333.525 C 2152.508 10357.425 2099.241 10366.473 2046.546 10369.354 C 2001.746 10371.803 1955.739 10369.812 1913.937 10353.254 C 1872.135 10336.696 1834.827 10303.626 1821.778 10259.982 C 1814.052 10234.149 1815.129 10206.562 1816.278 10179.587 C 1817.407 10153.034 1818.537 10126.481 1819.668 10099.928 C 1822.693 10028.828 1825.947 9956.477 1849.438 9889.438 C 1872.929 9822.399 1920.155 9760.244 1986.332 9737.096 C 2007.4 9729.723 2033.077 9712.323 2055.061 9716.007 C 2102.808 9724.007 2080.136 9718.893 2113.184 9730.871" stroke-miterlimit="10" style="fill: rgb(126, 200, 214); stroke: rgb(8, 13, 13); stroke-width: 5px;"/>
        <path id="Path_1771" data-name="Path 1771" d="M 2257.057 9988.191 C 2294.657 9999.201 2323.747 10044.862 2323.784 10092.921 C 2323.792 10104.302 2322.284 10115.868 2318.143 10126.021 C 2310.448 10144.867 2294.9 10156.397 2280.031 10166.63 C 2227.077 10203.051 2136.404 9978.13 2080.569 10007.13" fill="none" stroke-linecap="round" stroke-linejoin="round" style="stroke: rgb(8, 13, 13); stroke-width: 5px;"/>
        <path id="Path_1769" data-name="Path 1769" d="M 2080.834 9852.81 C 2092.622 9855.317 2101.447 9861.694 2110.229 9869.875" fill="none" stroke="#353f4f" stroke-linecap="round" stroke-miterlimit="10" style="stroke-width: 5px;"/>
        <path id="Path_1772" data-name="Path 1772" d="M 2064.371 9972.615 C 2059.238 9974.889 2054.54 9978.038 2050.487 9981.922 C 2048.434 9983.837 2047.503 9985.977 2049.52 9988.261 C 2051.453 9990.448 2053.447 9989.404 2055.287 9987.724 C 2069.661 9974.605 2085.42 9973.828 2102.148 9981.832 C 2102.982 9982.232 2103.836 9982.586 2104.656 9983.006 C 2106.72 9984.063 2108.705 9984.121 2109.931 9981.847 C 2111.203 9979.485 2110.467 9977.464 2108.123 9976.243 C 2094.1 9968.967 2079.655 9966.231 2064.371 9972.615 Z" fill="#323f51" transform="matrix(-0.920484, 0.390781, -0.390781, -0.920484, 7893.300717, 18352.403737)"/>
        <path id="Path_1766" data-name="Path 1766" d="M 1974.326 10369.736 C 1977.412 10434.189 1977.503 10477.479 1974.594 10541.936 C 1952.051 10537.332 1928.778 10537.667 1906.377 10542.919" fill="none" stroke-linecap="round" stroke-linejoin="round" style="stroke: rgb(8, 13, 13); stroke-width: 5px;"/>
        <path id="Path_1768" data-name="Path 1768" d="M 1994.395 9822.682 C 1982.607 9825.189 1973.772 9831.566 1965.001 9839.747" fill="none" stroke="#353f4f" stroke-linecap="round" stroke-miterlimit="10" style="stroke-width: 5px;"/>
        <path id="Path_1770" data-name="Path 1770" d="M 1829.255 9986.522 C 1792.093 10016.685 1783.679 9718.239 1813.866 9598.501" fill="none" stroke-linecap="round" stroke-linejoin="round" style="stroke: rgb(8, 13, 13); stroke-width: 5px;"/>
      </g>
    </g>
  </g>
  <g id="g-1" clip-path="url(#clip-1)" transform="matrix(1, 0, 0, 1, 921.582153, -1013.16571)"/>
  <g id="Illustration_-_Min_fysiske_energi_-_Min_fysiske_aktivitet" data-name="Illustration - Min fysiske energi - Min fysiske aktivitet" clip-path="url(#clip-Illustration_-_Min_fysiske_energi_-_Min_fysiske_aktivitet)" transform="matrix(1, 0, 0, 1, 626.980835, -1415.358521)"/>
  <path id="Path_1341" data-name="Path 1341" d="M 1779.581 1798.383 C 1781.36 1797.551 1786.605 1795.094 1786.254 1792.474 C 1786.371 1792.359 1786.497 1792.252 1786.63 1792.155 C 1785.889 1792.079 1786.338 1791.519 1786.724 1792.07 C 1786.533 1791.533 1786.402 1790.977 1786.332 1790.412 C 1783.701 1790.565 1771.145 1788.036 1771.994 1790.48 C 1771.374 1789.464 1771.104 1790.327 1770.994 1790.424 C 1771.167 1790.647 1771.359 1790.856 1771.567 1791.048 C 1770.09 1791.87 1769.309 1792.914 1771.684 1793.228 C 1774.338 1793.579 1777.128 1793.859 1779.889 1794.047 C 1778.917 1794.917 1777.833 1795.653 1776.666 1796.236 C 1776.534 1796.298 1776.408 1796.359 1776.277 1796.421 C 1776.753 1795.95 1777.142 1795.459 1776.409 1795.721 C 1776.149 1796.007 1775.931 1796.328 1775.76 1796.675 C 1773.276 1797.936 1771.501 1799.436 1772.075 1800.596 C 1772.138 1801.47 1772.985 1801.702 1773.828 1801.804 L 1773.76 1801.836 C 1773.741 1801.846 1773.806 1801.814 1773.828 1801.804 C 1773.85 1801.82 1773.815 1801.823 1773.76 1801.836 C 1773.66 1801.884 1773.92 1801.992 1773.989 1802.006 C 1774.07 1801.916 1774.089 1801.864 1774.076 1801.831 L 1774.27 1801.85 C 1774.885 1802.007 1775.509 1802.124 1776.139 1802.201 C 1776.756 1802.279 1778.41 1802.547 1780.273 1802.701 C 1780.332 1802.92 1780.402 1803.078 1780.487 1802.977 C 1780.459 1803.011 1780.477 1802.887 1780.508 1802.722 C 1781.064 1802.763 1781.634 1802.791 1782.201 1802.804 C 1781.995 1802.926 1781.614 1803.02 1781.75 1803.104 C 1781.97 1803.06 1782.174 1802.956 1782.339 1802.804 C 1782.401 1802.804 1782.464 1802.81 1782.527 1802.81 C 1782.639 1802.951 1782.944 1802.957 1783.486 1802.795 C 1785.734 1802.704 1787.603 1802.186 1787.603 1800.681 C 1787.603 1798.743 1783.411 1798.402 1779.583 1798.381 M 1777.492 1789.875 C 1777.457 1789.935 1777.415 1789.992 1777.369 1790.045 L 1777.156 1790.045 C 1777.14 1789.801 1777.312 1789.345 1777.492 1789.876 M 1776.63 1789.96 C 1776.674 1789.838 1776.73 1789.794 1776.787 1789.828 C 1776.777 1789.919 1776.768 1789.978 1776.759 1790.041 L 1776.629 1790.041 C 1776.629 1790.004 1776.629 1789.962 1776.629 1789.962 M 1776.266 1790.036 L 1776.146 1790.036 C 1776.121 1789.98 1776.087 1789.889 1776.056 1789.8 C 1776.056 1789.8 1776.04 1789.766 1776.012 1789.687 C 1776.129 1789.615 1776.226 1789.853 1776.266 1790.039 M 1772.394 1790.576 C 1772.394 1790.576 1772.494 1790.563 1772.583 1790.56 C 1772.526 1790.595 1772.456 1790.601 1772.394 1790.576" fill="#323f51" clip-path="url(#clip-path)" transform="matrix(1, 0, 0, 1, 2350.422791, 186.69934)"/>
  <path id="Path_1342" data-name="Path 1342" d="M 1805.735 1789.42 C 1805.728 1787.826 1799.79 1787.56 1795.603 1787.52 C 1795.792 1787.331 1795.982 1787.131 1796.171 1786.911 C 1796.305 1786.867 1796.434 1786.81 1796.557 1786.742 C 1796.522 1786.683 1796.49 1786.622 1796.463 1786.56 C 1796.491 1786.526 1796.517 1786.497 1796.544 1786.46 C 1796.565 1786.539 1796.581 1786.62 1796.592 1786.702 C 1796.916 1786.257 1797.275 1785.837 1797.663 1785.447 C 1797.683 1785.483 1797.713 1785.514 1797.75 1785.535 C 1797.806 1785.56 1797.826 1785.428 1797.804 1785.3 C 1799.852 1783.179 1803.304 1780.035 1802.36 1778.959 C 1802.413 1778.937 1802.46 1778.922 1802.513 1778.899 C 1802.813 1778.956 1802.836 1778.82 1802.793 1778.663 C 1802.928 1778.638 1803.003 1778.616 1802.993 1778.591 C 1802.868 1778.384 1802.725 1778.189 1802.564 1778.01 C 1802.617 1777.555 1801.884 1777.319 1801.693 1777.001 C 1801.762 1777.107 1801.81 1777.227 1801.835 1777.352 C 1801.67 1777.238 1801.498 1777.134 1801.32 1777.042 C 1801.628 1776.842 1801.22 1776.784 1800.976 1776.886 C 1800.635 1776.744 1800.282 1776.631 1799.923 1776.547 C 1800.052 1775.722 1799.715 1776.278 1799.751 1776.506 C 1797.921 1776.221 1796.066 1776.138 1794.219 1776.256 C 1794.166 1776.258 1794.114 1776.263 1794.062 1776.271 C 1793.834 1776.137 1793.63 1775.964 1793.462 1775.76 C 1793.416 1775.681 1793.425 1775.66 1793.453 1775.647 C 1793.19 1775.772 1792.916 1775.872 1792.635 1775.947 C 1792.644 1775.892 1792.644 1775.837 1792.635 1775.783 C 1792.617 1775.723 1792.557 1775.84 1792.529 1775.975 C 1791.169 1776.321 1789.229 1776.392 1789.408 1775.996 C 1789.045 1776.787 1788.786 1776.485 1788.85 1777.568 C 1788.574 1775.268 1788.884 1778.481 1788.603 1777.039 C 1788.619 1777.127 1788.679 1777.402 1788.742 1777.714 C 1787.363 1778.247 1786.676 1778.774 1788.277 1779 C 1788.436 1779.021 1788.716 1779.038 1789.083 1779.05 C 1789.055 1779.15 1789.046 1779.235 1789.101 1779.285 C 1789.112 1779.207 1789.119 1779.13 1789.123 1779.052 C 1790.634 1779.099 1793.623 1779.07 1796.442 1778.995 C 1796.319 1779.048 1796.246 1779.176 1796.261 1779.309 C 1796.232 1780.378 1796.63 1779.199 1796.69 1778.989 L 1797.666 1778.961 C 1797.735 1779.061 1797.81 1779.105 1797.886 1779.07 C 1797.962 1779.035 1798.023 1778.986 1798.093 1778.947 C 1798.375 1778.938 1798.651 1778.928 1798.92 1778.918 C 1798.845 1779.006 1798.804 1779.119 1798.805 1779.235 C 1798.759 1779.711 1799.034 1779.05 1799.034 1778.913 L 1799.534 1778.894 C 1799.274 1779.133 1799.211 1779.257 1799.234 1779.314 C 1797.778 1780.429 1796.408 1781.654 1795.138 1782.977 C 1795.126 1782.942 1795.101 1782.913 1795.069 1782.896 C 1794.937 1782.833 1794.855 1783.038 1794.928 1783.19 C 1793.387 1784.75 1791.94 1786.402 1790.596 1788.135 C 1790.431 1788.33 1790.409 1788.609 1790.54 1788.829 C 1790.467 1788.938 1790.425 1789.066 1790.421 1789.198 C 1791.055 1789.62 1791.77 1789.905 1792.521 1790.035 C 1793.459 1790.435 1793.264 1790.267 1792.964 1790.064 C 1793.205 1790.132 1793.459 1790.195 1793.722 1790.253 C 1793.797 1791.306 1795.312 1790.965 1796.142 1790.673 C 1796.542 1790.724 1796.949 1790.773 1797.359 1790.807 C 1797.284 1790.879 1797.248 1790.982 1797.259 1791.086 C 1797.291 1791.486 1797.572 1791.061 1797.641 1790.832 C 1798.371 1790.894 1799.106 1790.932 1799.823 1790.945 C 1799.717 1791.015 1799.623 1791.083 1799.57 1791.062 C 1799.662 1791.1 1799.827 1791.022 1799.97 1790.946 C 1800.651 1790.956 1801.312 1790.946 1801.927 1790.905 C 1804.115 1790.767 1805.738 1790.305 1805.734 1789.419 M 1800.334 1780.519 L 1800.259 1780.625 C 1800.275 1780.584 1800.301 1780.548 1800.334 1780.519 M 1801.622 1778.819 C 1801.631 1778.867 1801.624 1778.918 1801.603 1778.963 Z M 1799.73 1781.547 C 1799.758 1781.497 1799.787 1781.447 1799.815 1781.399 C 1800.015 1781.55 1799.868 1781.599 1799.73 1781.547 M 1800.23 1782.216 C 1799.669 1781.081 1801.036 1782.633 1800.23 1782.216 M 1800.562 1781.846 C 1799.851 1781.125 1800.492 1781.62 1800.53 1781.673 C 1800.603 1781.773 1800.615 1781.834 1800.562 1781.846 M 1800.995 1781.498 C 1801.045 1781.868 1799.486 1780.745 1800.995 1781.498 M 1790.654 1776.647 C 1790.64 1776.8 1790.614 1776.952 1790.575 1777.102 C 1790.494 1776.947 1790.537 1776.021 1790.654 1776.647 M 1790.416 1776.688 C 1790.422 1776.942 1790.422 1777.081 1790.416 1777.148 C 1790.387 1777.046 1790.371 1776.941 1790.368 1776.835 C 1790.375 1776.71 1790.391 1776.66 1790.414 1776.688 M 1789.406 1776.478 L 1789.324 1776.478 C 1789.343 1776.394 1789.462 1775.841 1789.406 1776.478 M 1790.152 1776.631 C 1790.265 1776.383 1790.352 1776.841 1790.372 1777.164 C 1790.335 1777.174 1790.3 1777.186 1790.263 1777.195 C 1790.232 1777.069 1790.195 1776.885 1790.151 1776.631 M 1799.53 1778.89 L 1799.863 1778.875 C 1799.803 1778.915 1799.74 1778.96 1799.677 1779.003 C 1799.642 1778.95 1799.59 1778.91 1799.53 1778.89 M 1794.625 1790.44 L 1794.961 1790.497 C 1794.684 1790.529 1794.587 1790.482 1794.625 1790.44" fill="#323f51" clip-path="url(#clip-path)" transform="matrix(1, 0, 0, 1, 2350.422791, 186.69934)"/>
  <path id="Path_1343" data-name="Path 1343" d="M 1790.215 1790.046 C 1790.652 1790.334 1791.201 1790.396 1791.692 1790.215 C 1791.692 1790.215 1789.817 1789.435 1790.215 1790.046" fill="#323f51" clip-path="url(#clip-path)" transform="matrix(1, 0, 0, 1, 2350.422791, 186.69934)"/>
  <path id="Path_1164" data-name="Path 1164" d="M 737.853 1938.055" fill="none" stroke="#323f51" stroke-width="4.5" transform="matrix(1, 0, 0, 1, 2350.422791, 186.69934)"/>
  <path id="path-72" data-name="Path 1772" d="M 565.518 437.781 C 560.385 440.055 555.687 443.204 551.634 447.088 C 549.581 449.003 548.65 451.143 550.667 453.427 C 552.6 455.614 554.594 454.57 556.434 452.89 C 570.807 439.771 586.566 438.994 603.293 446.998 C 604.127 447.398 604.981 447.752 605.801 448.172 C 607.865 449.229 609.85 449.287 611.076 447.013 C 612.348 444.651 611.612 442.63 609.268 441.409 C 595.245 434.133 580.801 431.397 565.518 437.781 Z" fill="#323f51" transform="matrix(-0.998777, -0.049434, 0.049434, -0.998777, 1138.557575, 917.02706)"/>
  <g id="g-18" clip-path="url(#clip-14)" transform="matrix(1, 0, 0, 1, 4714.04278, 272.968094)"/>
  <g id="g-19" data-name="Group 1192" transform="matrix(-1, 0, 0, 1, 8009.543086, -666.205642)"/>
  <polyline style="fill: rgb(216, 216, 216); stroke: rgb(0, 0, 0);" points="510.455 -75.258" transform="matrix(1, 0, 0, 1, 5208.305415, 351.499451)"/>
  <path style="fill: rgb(216, 216, 216); stroke: rgb(0, 0, 0);" d="M -167.225 -0.173" transform="matrix(1, 0, 0, 1, 3329.557307, 369.741532)"/>
  <path id="path-15" data-name="Path 1665" d="M 560.787 416.95 C 562.183 412.281 558.006 407.849 553.264 408.974 C 548.521 410.096 546.774 415.93 550.117 419.477 C 550.879 420.283 551.842 420.877 552.906 421.196 C 556.254 422.199 559.782 420.298 560.787 416.95" transform="matrix(1, 0.000001, -0.000001, 1, 0.000415, -0.000555)"/>
  <path id="path-16" data-name="Path 1666" d="M 613.742 414.812 C 615.138 410.143 610.958 405.717 606.219 406.842 C 601.477 407.966 599.732 413.801 603.078 417.343 C 603.84 418.151 604.803 418.745 605.871 419.061 C 609.218 420.064 612.743 418.16 613.742 414.812" transform="matrix(1, 0.000001, -0.000001, 1, 0.000413, -0.000608)"/>
  <path id="path-17" data-name="Path 1665" d="M 912.123 514.854 C 913.52 510.185 909.343 505.754 904.6 506.878 C 899.858 508 898.111 513.834 901.453 517.382 C 902.215 518.187 903.179 518.782 904.243 519.1 C 907.59 520.103 911.119 518.202 912.123 514.854" transform="matrix(1, 0.000001, -0.000001, 1, 0.000681, -0.001203)"/>
  <path id="path-18" data-name="Path 1666" d="M 986.787 512.251 C 988.184 507.581 984.003 503.156 979.264 504.28 C 974.522 505.405 972.777 511.239 976.123 514.781 C 976.885 515.589 977.848 516.184 978.916 516.499 C 982.263 517.502 985.788 515.598 986.787 512.251" transform="matrix(1, 0.000001, -0.000001, 1, 0.000678, -0.001302)" style="stroke-width: 5px;"/>
  <path d="M 152.322 346.691 C 154.5 350.671 155.777 354.646 157.425 357.517 C 159.455 361.05 162.047 362.91 167.575 361.046" style="stroke: rgb(0, 0, 0);" transform="matrix(-0.765459, 0.643485, -0.643485, -0.765459, 510.328266, 522.46529)"/>
  <path d="M 66.281 363.66 C 68.459 359.68 69.736 355.705 71.384 352.834 C 73.414 349.301 76.006 347.441 81.534 349.305" style="stroke: rgb(0, 0, 0);" transform="matrix(0.809311, 0.587381, -0.587381, 0.809311, 223.268274, 24.495413)"/>
  <g id="g-17" data-name="Group 1541" transform="matrix(1, 0, 0, 1, 1770.657579, -337.657818)">
    <g id="g-20" data-name="Group 1073" transform="translate(969.574 1172.396)">
      <path id="path-31" data-name="Path 368" d="M73.035,108.8c4.195,16.372.948,25.313-1.02,42.1a326.959,326.959,0,0,0-.708,69.429,59.81,59.81,0,0,0-19.913-.274" transform="translate(20.372 67.945)" fill="none" stroke="#502831" stroke-linecap="round" stroke-linejoin="round" stroke-width="3"/>
      <path id="path-42" data-name="Path 369" d="M83.627,108.729c.956,40.812-6.258,73.224-5.216,114.034q11.034-1.008,22.118-1.3" transform="translate(39.499 67.892)" fill="none" stroke="#502831" stroke-linecap="round" stroke-linejoin="round" stroke-width="3"/>
      <path id="path-46" data-name="Path 373" d="M43.509,104.53c3.432,13.45,10.885,25.532,19.242,36.614,6.684,8.86,14.883,17.755,25.8,19.771,9.672,1.784,19.567-2.318,27.541-8.078,19.528-14.1,30.683-39.466,26.6-63.206-4.569-26.569-32.136-52.772-60.409-50.587C52.768,41.324,37.08,79.338,43.509,104.53Z" transform="matrix(0.982, 0.191, -0.191, 0.982, 42.813, 2.539)" fill="none" stroke="#502831" stroke-miterlimit="10" stroke-width="3.76"/>
      <path id="Path_379" data-name="Path 379" d="M103.83,137.492l8.614-6.15c3.026-2.161,6.128-4.406,8.532-8.431a25.822,25.822,0,0,0,3.126-16.068,30.691,30.691,0,0,0-2.75-8.34c-10.038-22.059-22.928-39.66-37.29-50.923" transform="matrix(0.999, 0.052, -0.052, 0.999, 70.369, -17.522)" fill="none" stroke="#502831" stroke-linecap="round" stroke-linejoin="round" stroke-width="3"/>
      <path id="path-47" data-name="Path 380" d="M39.685,49.654C36.757,51.317,33.8,53,31.03,57s-5.391,10.523-7.022,20.083a88.755,88.755,0,0,0-1.269,13.6,92.03,92.03,0,0,0,1.212,15.8A68.18,68.18,0,0,0,33.59,132.7l10.432,17.876" transform="translate(30.605 92.635)" fill="none" stroke="#502831" stroke-linecap="round" stroke-linejoin="round" stroke-width="3"/>
    </g>
    <g id="g-21" data-name="Group 1539" transform="translate(1061.253 1252.495) rotate(-3)">
      <path id="Path_574" data-name="Path 574" d="M2.909,2.509A9.057,9.057,0,0,1,.378,1.133C0,.849-.163.53.208.187.564-.141.928.013,1.263.262c2.616,1.945,5.5,2.047,8.569.837.153-.06.31-.114.46-.178.379-.16.742-.17.964.168s.093.654-.337.838A10.879,10.879,0,0,1,2.909,2.509Z" transform="matrix(-0.829, 0.559, -0.559, -0.829, 5.627, -3.743)" fill="#502831" stroke="#502831" stroke-width="2"/>
      <path id="Path_573" data-name="Path 573" d="M2.909,2.509A9.057,9.057,0,0,1,.378,1.133C0,.849-.163.53.208.187.564-.141.928.013,1.263.262c2.616,1.945,5.5,2.047,8.569.837.153-.06.31-.114.46-.178.379-.16.742-.17.964.168s.093.654-.337.838A10.879,10.879,0,0,1,2.909,2.509Z" transform="matrix(-0.966, -0.259, 0.259, -0.966, 47.619, 0.452)" fill="#502831" stroke="#502831" stroke-width="2"/>
      <path id="Subtraction_6" data-name="Subtraction 6" d="M2304.309,2230.067a5.154,5.154,0,0,1-3.646-1.5,4.638,4.638,0,0,1,.013-6.511,5.027,5.027,0,0,1,3.485-1.28h.077a4.82,4.82,0,0,1,3.254,1.114,2.465,2.465,0,0,0-.59-.069h-.037a1.959,1.959,0,0,0-1.5,3.334,2.2,2.2,0,0,0,1.561.644l.085,0a1.833,1.833,0,0,0,1.806-1.445,5.422,5.422,0,0,1,.071,1,4.977,4.977,0,0,1-1.225,3.368,4.414,4.414,0,0,1-3.156,1.35C2304.441,2230.066,2304.374,2230.067,2304.309,2230.067Z" transform="translate(-2293.271 -2203.032)" fill="#502831"/>
      <path id="Exclusion_2" data-name="Exclusion 2" d="M2303.941,2230.4h-.039a4.535,4.535,0,0,1-3.393-1.255,4.856,4.856,0,0,1-1.174-3.517,5.042,5.042,0,0,1,1.322-3.485,4.557,4.557,0,0,1,3.326-1.371h.011a4.556,4.556,0,0,1,3.515,1.662,2.067,2.067,0,0,0-1.407-.487h-.035a1.969,1.969,0,0,0-1.505,3.354,2.213,2.213,0,0,0,1.566.645l.088,0a1.907,1.907,0,0,0,1.886-2.03,2.117,2.117,0,0,0-.146-.843,5.107,5.107,0,0,1,.687,2.626,4.753,4.753,0,0,1-1.3,3.418A4.678,4.678,0,0,1,2303.941,2230.4Zm4.007-7.34a4.777,4.777,0,0,0-.439-.626,1.714,1.714,0,0,1,.441.625Z" transform="translate(-2270.904 -2203.184)" fill="#502831"/>
      <path id="path-48" data-name="Path 2028" d="M88.445,78.218s-19.312,18.61-35.44,0" transform="matrix(0.999, 0.052, -0.052, 0.999, -45.313, -44.537)" fill="none" stroke="#502831" stroke-linecap="round" stroke-linejoin="round" stroke-width="2"/>
    </g>
    <g id="g-22" data-name="Group 1540" transform="translate(-68.904 -0.125) rotate(-2)"/>
  </g>
  <path id="Path_2025" data-name="Path 2025" d="M 1475.925 309.426 C 1467.734 307.655 1459.846 304.973 1452.459 301.446 C 1448.986 299.796 1447.427 297.947 1450.872 295.958 C 1453.948 294.41 1457.797 294.581 1460.672 296.394 C 1484.925 307.675 1511.667 308.267 1540.144 301.251 C 1541.565 300.89 1543.015 300.59 1544.414 300.222 C 1547.36 299.008 1550.857 299.389 1553.361 301.197 C 1555.493 303.234 1554.227 304.988 1550.234 306.054 C 1526.307 313.096 1500.579 314.264 1475.925 309.426 Z" style="fill: rgb(8, 13, 13);" transform="matrix(-0.376842, -0.926278, 0.926278, -0.376842, 1786.306192, 1809.009928)"/>
  <path id="Path_2026" data-name="Path 2026" d="M 1503.008 299.35 C 1496.744 297.909 1490.736 295.74 1485.149 292.905 C 1482.51 291.572 1481.324 290.081 1483.947 288.478 C 1486.269 287.235 1489.247 287.379 1491.392 288.839 C 1509.859 297.949 1530.211 298.426 1551.879 292.76 C 1552.96 292.479 1554.066 292.226 1555.126 291.93 C 1557.365 290.952 1560.071 291.265 1561.931 292.717 C 1563.557 294.364 1562.589 295.779 1559.555 296.642 C 1541.426 302.321 1521.756 303.263 1503.008 299.35 Z" style="fill: rgb(8, 13, 13);" transform="matrix(-0.376842, -0.926278, 0.926278, -0.376842, 1823.416508, 1816.072312)"/>
  <path id="path-49" data-name="Path 2025" d="M 653.863 215.166 C 645.672 216.937 637.784 219.619 630.397 223.146 C 626.924 224.796 625.365 226.645 628.81 228.634 C 631.886 230.182 635.735 230.011 638.61 228.198 C 662.863 216.917 689.605 216.325 718.082 223.341 C 719.503 223.702 720.953 224.002 722.352 224.37 C 725.298 225.584 728.795 225.203 731.299 223.395 C 733.431 221.358 732.165 219.604 728.172 218.538 C 704.245 211.496 678.517 210.328 653.863 215.166 Z" style="fill: rgb(8, 13, 13);" transform="matrix(0.362435, -0.932009, 0.932009, 0.362435, 227.352983, 774.271615)"/>
  <path id="path-50" data-name="Path 2026" d="M 638.949 207.663 C 632.685 209.104 626.677 211.273 621.09 214.108 C 618.451 215.441 617.265 216.932 619.888 218.535 C 622.21 219.778 625.188 219.634 627.333 218.174 C 645.8 209.064 666.152 208.587 687.82 214.253 C 688.901 214.534 690.007 214.787 691.067 215.083 C 693.306 216.061 696.012 215.748 697.872 214.296 C 699.498 212.649 698.53 211.234 695.496 210.371 C 677.367 204.692 657.697 203.75 638.949 207.663 Z" style="fill: rgb(8, 13, 13);" transform="matrix(0.362435, -0.932009, 0.932009, 0.362435, 221.962439, 749.137322)"/>
  <path id="path-51" data-name="Path 2025" d="M -295.251 267.277 C -303.442 269.048 -311.33 271.73 -318.717 275.257 C -322.19 276.907 -323.749 278.756 -320.304 280.745 C -317.228 282.293 -313.379 282.122 -310.504 280.309 C -286.251 269.028 -259.509 268.436 -231.032 275.452 C -229.611 275.813 -228.161 276.113 -226.762 276.481 C -223.816 277.695 -220.319 277.314 -217.815 275.506 C -215.683 273.469 -216.949 271.715 -220.942 270.649 C -244.869 263.607 -270.597 262.439 -295.251 267.277 Z" style="fill: rgb(8, 13, 13);" transform="matrix(0.362435, -0.932009, 0.932009, 0.362435, -426.336761, -77.087069)"/>
  <path id="path-52" data-name="Path 2026" d="M -310.165 259.774 C -316.429 261.215 -322.437 263.384 -328.024 266.219 C -330.663 267.552 -331.849 269.043 -329.226 270.646 C -326.904 271.889 -323.926 271.745 -321.781 270.285 C -303.314 261.175 -282.962 260.698 -261.294 266.364 C -260.213 266.645 -259.107 266.898 -258.047 267.194 C -255.808 268.172 -253.102 267.859 -251.242 266.407 C -249.616 264.76 -250.584 263.345 -253.618 262.482 C -271.747 256.803 -291.417 255.861 -310.165 259.774 Z" style="fill: rgb(8, 13, 13);" transform="matrix(0.362435, -0.932009, 0.932009, 0.362435, -431.727311, -102.221358)"/>
  <path id="path-53" data-name="Path 2025" d="M 334.338 327.504 C 326.147 329.275 318.259 331.957 310.872 335.484 C 307.399 337.134 305.84 338.983 309.285 340.972 C 312.361 342.52 316.21 342.349 319.085 340.536 C 343.338 329.255 370.08 328.663 398.557 335.679 C 399.978 336.04 401.428 336.34 402.827 336.708 C 405.773 337.922 409.27 337.541 411.774 335.733 C 413.906 333.696 412.64 331.942 408.647 330.876 C 384.72 323.834 358.992 322.666 334.338 327.504 Z" style="fill: rgb(8, 13, 13);" transform="matrix(0.738183, 0.674601, -0.674601, 0.738183, 319.117735, -155.644703)"/>
  <path id="path-54" data-name="Path 2026" d="M 356.144 312.1 C 349.88 313.541 343.872 315.71 338.285 318.545 C 335.646 319.878 334.46 321.369 337.083 322.972 C 339.405 324.215 342.383 324.071 344.528 322.611 C 362.995 313.501 383.347 313.024 405.015 318.69 C 406.096 318.971 407.202 319.224 408.262 319.52 C 410.501 320.498 413.207 320.185 415.067 318.733 C 416.693 317.086 415.725 315.671 412.691 314.808 C 394.562 309.129 374.892 308.187 356.144 312.1 Z" style="fill: rgb(8, 13, 13);" transform="matrix(0.738183, 0.674601, -0.674601, 0.738183, 312.066286, -170.532087)"/>
</svg>