<?xml version="1.0" encoding="utf-8"?>
<svg viewBox="1104.385 213.682 291.561 356.856" xmlns="http://www.w3.org/2000/svg" xmlns:bx="https://boxy-svg.com">
  <defs>
    <clipPath id="clip-path">
      <rect id="Rectangle_490" data-name="Rectangle 490" width="767.113" height="978.476" fill="none"/>
    </clipPath>
    <clipPath id="clip-path-3">
      <rect id="Rectangle_485" data-name="Rectangle 485" width="214.918" height="109.898" fill="none"/>
    </clipPath>
    <clipPath id="clip-path-4">
      <rect id="Rectangle_486" data-name="Rectangle 486" width="452.69" height="22.938" fill="none"/>
    </clipPath>
    <clipPath id="clip-path-5">
      <rect id="Rectangle_488" data-name="Rectangle 488" width="34.042" height="33.317" fill="none"/>
    </clipPath>
    <clipPath id="clip-path-12">
      <rect id="Rectangle_482" data-name="Rectangle 482" width="146.562" height="154.153" fill="none"/>
    </clipPath>
  </defs>
  <g id="Group_1192" data-name="Group 1192" transform="matrix(-1, 0, 0, 1, 3309.682294, -631.281756)">
    <g id="Group_1172" data-name="Group 1172" transform="matrix(-1, 0, 0, 1, -19794.517578, -3962.75708)">
      <g id="Group_1164" data-name="Group 1164" transform="translate(-21958 4575)">
        <g id="Group_1163" data-name="Group 1163" clip-path="url(#clip-path)">
          <g id="Group_1162" data-name="Group 1162">
            <g id="Group_1161" data-name="Group 1161" clip-path="url(#clip-path)">
              <g id="Group_1154" data-name="Group 1154" transform="translate(53.956 223.513)" opacity="0.41">
                <g id="Group_1153" data-name="Group 1153">
                  <g id="Group_1152" data-name="Group 1152" clip-path="url(#clip-path-3)"/>
                </g>
              </g>
              <g id="Group_1157" data-name="Group 1157" transform="translate(4.21 925.342)" opacity="0.17">
                <g id="Group_1156" data-name="Group 1156">
                  <g id="Group_1155" data-name="Group 1155" clip-path="url(#clip-path-4)"/>
                </g>
              </g>
              <path id="Path_1705" data-name="Path 1705" d="M147.1,384.831a102.323,102.323,0,1,0-134.41-53.609A102.438,102.438,0,0,0,147.1,384.831" transform="translate(1.475 63.544)" style="fill: rgb(223, 223, 223);"/>
              <path id="Path_1706" data-name="Path 1706" d="M147.1,384.831a102.323,102.323,0,1,0-134.41-53.609A102.438,102.438,0,0,0,147.1,384.831Z" transform="translate(1.475 63.544)" fill="none" stroke="#323f51" stroke-miterlimit="10" stroke-width="4.503"/>
              <path id="Path_1707" data-name="Path 1707" d="M34.8,513.456l42.93-117.382A108.362,108.362,0,1,0,55.938,387L12.65,505.357ZM19.51,330.4a96.5,96.5,0,1,1,126.763,50.557A96.5,96.5,0,0,1,19.51,330.4" fill="#333" transform="translate(0 62.07)"/>
              <path id="Path_1709" data-name="Path 1709" d="M30.455,299.981c-4.535-14.78-4.815-29.341-.83-43.281a58.537,58.537,0,0,1,7.429-16.667l-5.675-4.13c-.2.281-5.057,7.012-8.408,18.542a82.731,82.731,0,0,0,.774,47.6Z" transform="translate(6.694 79.524)" fill="#fff"/>
              <path id="Path_1710" data-name="Path 1710" d="M35.686,306.613l4-5.766c-1.309-.968-5.347-7.076-8.291-12.168l-6.076,3.514c2.1,3.629,7.31,12.3,10.364,14.419" transform="translate(8.536 97.316)" fill="#fff"/>
              <g id="Group_1160" data-name="Group 1160" transform="translate(117.039 346.396)" opacity="0.9" style="isolation: isolate">
                <g id="Group_1159" data-name="Group 1159">
                  <g id="Group_1158" data-name="Group 1158" clip-path="url(#clip-path-5)"/>
                </g>
              </g>
            </g>
          </g>
        </g>
      </g>
      <g id="Group_1171" data-name="Group 1171" transform="translate(-21365.596 5443.219)">
        <g id="Group_1139" data-name="Group 1139" transform="translate(0 0)" clip-path="url(#clip-path-12)"/>
      </g>
    </g>
    <path style="fill: rgb(255, 255, 255);" transform="matrix(-0.985277, -0.170963, -0.244892, 1.41134, 2953.360352, 637.626404)" d="M 872.936 290.395 A 43.84 43.84 0 0 1 872.936 377.111 A 68.003 68.003 0 0 0 872.936 290.395 Z" bx:shape="crescent 866.456 333.753 43.84 163 0.752 1@186f76b9"/>
  </g>
  <polyline style="fill: rgb(216, 216, 216); stroke: rgb(0, 0, 0);" points="510.455 -75.258" transform="matrix(1, 0, 0, 1, 508.444257, 386.423322)"/>
  <g id="Group_179" data-name="Group 179" transform="matrix(1.176281, 0, 0, 1.161738, 1516.074097, 235.051651)" style="">
    <path id="Path_359" data-name="Path 359" d="M -689.597 17.334 C -748.431 66.922 -740.009 175.626 -733.646 179.005 C -721.57 185.418 -633.083 170.985 -628.044 159.276 C -625.06 152.346 -640.717 1.513 -689.599 17.334" fill="none" stroke="#e79e17" stroke-miterlimit="10" stroke-width="4.269" style="stroke: rgb(53, 63, 79); stroke-opacity: 1;" transform="matrix(-0.997765, 0.06682, -0.06682, -0.997765, -1357.721155, 242.168201)"/>
    <path id="Path_364" data-name="Path 364" d="M-976.144,187.328" transform="translate(14.545 19.262)" fill="none" stroke="#e79e17" stroke-width="1"/>
  </g>
  <g id="g-1" data-name="Group 179" transform="matrix(-0.835064, -0.54488, 0.82307, -1.261409, 38.101135, 337.56955)" style="">
    <path id="path-1" data-name="Path 359" d="M -682.093 15.884 C -711.433 27.389 -697.582 51.272 -681.205 46.892 C -665.932 42.807 -655.031 18.536 -684.45 16.024" fill="none" stroke="#e79e17" stroke-miterlimit="10" stroke-width="4.269" style="stroke: rgb(53, 63, 79); stroke-opacity: 1;" transform="matrix(-0.997765, 0.06682, -0.06682, -0.997765, -1357.721155, 242.168201)"/>
    <path id="path-2" data-name="Path 364" d="M-976.144,187.328" transform="translate(14.545 19.262)" fill="none" stroke="#e79e17" stroke-width="1"/>
  </g>
</svg>