<svg xmlns:bx="https://boxy-svg.com" viewBox="1104.385 213.682 291.561 356.856" xmlns="http://www.w3.org/2000/svg"><defs><clipPath id="Forstørrelsesglas_svg__a"><path fill="none" d="M0 0h767.113v978.476H0z" data-name="Rectangle 490"/></clipPath><clipPath id="Forstørrelsesglas_svg__b"><path fill="none" d="M0 0h214.918v109.898H0z" data-name="Rectangle 485"/></clipPath><clipPath id="Forstørrelsesglas_svg__c"><path fill="none" d="M0 0h452.69v22.938H0z" data-name="Rectangle 486"/></clipPath><clipPath id="Forstørrelsesglas_svg__d"><path fill="none" d="M0 0h34.042v33.317H0z" data-name="Rectangle 488"/></clipPath><clipPath id="Forstørrelsesglas_svg__e"><path fill="none" d="M0 0h146.562v154.153H0z" data-name="Rectangle 482"/></clipPath></defs><g data-name="Group 1192"><g data-name="Group 1172"><g data-name="Group 1164"><g clip-path="url(#Forstørrelsesglas_svg__a)" data-name="Group 1163" transform="translate(1146.2 -19.039)"><g data-name="Group 1162"><g clip-path="url(#Forstørrelsesglas_svg__a)" data-name="Group 1161"><path d="M147.1 384.831a102.323 102.323 0 1 0-134.41-53.609 102.438 102.438 0 0 0 134.41 53.609" data-name="Path 1705" style="fill:#dfdfdf" transform="translate(1.475 63.544)"/><path fill="none" stroke="#323f51" stroke-miterlimit="10" stroke-width="4.503" d="M148.575 448.375a102.323 102.323 0 1 0-134.41-53.609 102.438 102.438 0 0 0 134.41 53.609Z" data-name="Path 1706"/><path fill="#333" d="m34.8 575.526 42.93-117.382a108.362 108.362 0 1 0-21.792-9.074L12.65 567.427ZM19.51 392.47a96.5 96.5 0 1 1 126.763 50.557A96.5 96.5 0 0 1 19.51 392.47" data-name="Path 1707"/><path fill="#fff" d="M37.149 379.505c-4.535-14.78-4.815-29.341-.83-43.281a58.537 58.537 0 0 1 7.429-16.667l-5.675-4.13c-.2.281-5.057 7.012-8.408 18.542a82.731 82.731 0 0 0 .774 47.6Z" data-name="Path 1709"/><path fill="#fff" d="m44.222 403.929 4-5.766c-1.309-.968-5.347-7.076-8.291-12.168l-6.076 3.514c2.1 3.629 7.31 12.3 10.364 14.419" data-name="Path 1710"/></g></g></g></g></g><path bx:shape="crescent 866.456 333.753 43.84 163 0.752 1@186f76b9" d="M872.936 290.395a43.84 43.84 0 0 1 0 86.716 68.003 68.003 0 0 0 0-86.716Z" style="fill:#fff" transform="matrix(.98528 -.17096 .2449 1.41134 356.322 6.345)"/></g><g data-name="Group 179"><path fill="none" stroke="#e79e17" stroke-miterlimit="10" stroke-width="4.269" d="M-689.597 17.334c-58.834 49.588-50.412 158.292-44.049 161.671 12.076 6.413 100.563-8.02 105.602-19.729 2.984-6.93-12.673-157.763-61.555-141.942" data-name="Path 359" style="stroke:#353f4f;stroke-opacity:1" transform="matrix(-1.17365 .07763 -.0786 -1.15914 -80.988 516.388)"/></g><g data-name="Group 179"><path fill="none" stroke="#e79e17" stroke-miterlimit="10" stroke-width="4.269" d="M-682.093 15.884c-29.34 11.505-15.489 35.388.888 31.008 15.273-4.085 26.174-28.356-3.245-30.868" data-name="Path 359" style="stroke:#353f4f;stroke-opacity:1" transform="matrix(.8882 .45937 -.76543 1.295 1371.207 771.892)"/></g></svg>