<svg xmlns:bx="https://boxy-svg.com" viewBox="-1043.805 -895.3 2617.964 2240.4" xmlns="http://www.w3.org/2000/svg"><defs><clipPath id="Følelsesmatrix_svg__b"><path fill="none" d="M0 0h248.072v238.484H0z" data-name="Rectangle 481"/></clipPath><clipPath id="Følelsesmatrix_svg__c"><path fill="none" d="M0 0h229.531v241.419H0z" data-name="Rectangle 482"/></clipPath><clipPath id="Følelsesmatrix_svg__d"><path fill="none" d="M0 0h242.065v244.073H0z" data-name="Rectangle 449"/></clipPath><clipPath id="Følelsesmatrix_svg__e"><path fill="none" d="M0 0h233.57v250.237H0z" data-name="Rectangle 448"/></clipPath><clipPath id="Følelsesmatrix_svg__f"><path fill="none" d="M0 0h219.217v247.122H0z" data-name="Rectangle 448"/></clipPath><clipPath id="Følelsesmatrix_svg__g"><path fill="none" d="M0 0h217.813v219.517H0z" data-name="Rectangle 450"/></clipPath><clipPath id="Følelsesmatrix_svg__h"><path d="M0 0h1166v1094H0z"/></clipPath><clipPath id="Følelsesmatrix_svg__a"><path fill="none" d="M0 0h219.217v247.122H0z" data-name="Rectangle 448"/></clipPath><clipPath id="Følelsesmatrix_svg__i"><path fill="none" d="M0 0h228.937v242.798H0z" data-name="Rectangle 451"/></clipPath><clipPath id="Følelsesmatrix_svg__j"><path fill="none" d="M0 0h219.217v247.122H0z" data-name="Rectangle 448"/></clipPath><clipPath id="Følelsesmatrix_svg__k"><path fill="none" d="M0 0h229.531v241.419H0z" data-name="Rectangle 482"/></clipPath><clipPath id="Følelsesmatrix_svg__l"><path fill="none" d="M0 0h229.531v241.419H0z" data-name="Rectangle 482"/></clipPath></defs><path fill="#fff" d="M313.908-593.968c493.77 0 894.052 372.198 894.052 831.328s-144.166 639.112-1001.669 787.077c-578.102-59.9-594.772-463.511-757.365-781.003-184.864-360.981 371.212-837.402 864.982-837.402Z" data-name="Path 485"/><g data-name="Group 1094"><g clip-path="url(#Følelsesmatrix_svg__a)" data-name="Group 1093" transform="translate(836.082 -403.85)"><path d="M164 246.442c-.164 3.21-147.358-.487-162.483-114.461C-14.909 8.217 106.445-19.521 163.658 11.9c50.89 27.961 78.405 102.773 31.328 165.109-21.589 28.586-59.624 37.48-56.819 43.8 3.88 8.738 26.035 21.645 25.83 25.629" data-name="Path 1621" style="fill:#ff4242" transform="translate(0 .001)"/><path d="M77.866 101.511a5.181 5.181 0 1 1-5.286-5.074 5.176 5.176 0 0 1 5.286 5.074" data-name="Path 1622"/><path d="M157.301 99.885a5.183 5.183 0 1 1-5.282-5.074 5.176 5.176 0 0 1 5.282 5.074" data-name="Path 1623"/><path d="M87.558 111.076c.245.138 11.383 5.019 23.211 4.669 13.258-.39 27.38-5.994 27.994-5.289.539.618.797 1.585.677 2.536l-.108 1.274a42.129 42.129 0 0 1-.439 3.343c-.677 3.957-1.748 7.768-3.184 11.322a39.23 39.23 0 0 1-3.545 6.783c-1.567 2.361-3.353 4.428-5.312 6.147-1.049.839-2.165 1.581-3.281 2.375a67.86 67.86 0 0 1-3.578 1.726c-1.287.383-2.626.696-3.954 1.003-1.246.214-2.273.194-3.422.301a21.418 21.418 0 0 1-7.652-1.182c-2.432-.782-4.76-2.082-6.9-3.853-2.004-1.607-3.835-3.59-5.442-5.891-.755-1.09-1.41-2.232-2.072-3.303l-1.626-3.333c-1.516-3.492-2.668-7.26-3.422-11.194a39.912 39.912 0 0 1-.517-3.333c-.082-.798-.123-1.229-.123-1.229-.205-2.065 1.292-3.662 2.695-2.872Z" data-name="Path 1624"/></g></g><path d="M1496.54-29.15c2.178-3.98 3.455-7.955 5.103-10.826 2.03-3.533 4.622-5.393 10.15-3.529" style="stroke:#000" transform="rotate(25.075 1864.17 -1553.788)"/><path d="M1592.081-47.706c2.178 3.98 3.455 7.955 5.103 10.826 2.03 3.533 4.622 5.393 10.15 3.529" style="stroke:#000" transform="rotate(154.925 1328.058 -255.657)"/><g data-name="Group 1138"><g clip-path="url(#Følelsesmatrix_svg__b)" data-name="Group 1137" transform="translate(69.233 439.415)"><path fill="#8fc0d4" d="M131.149.241c-96.239-5.7-147.2 90.632-126.632 153.05s135.968 128.708 210.373 47.65c0 0 29.511 15.231 32.875 10.362s-21.693-35.5-21.693-35.5 30.889-46.282 16.735-94.167C226.793 27.482 179.966 3.128 131.149.241" data-name="Path 1661"/><path fill="#002640" d="M77.333 84.784c-.072.059-1.387 1.468-2.1 2.184a28.873 28.873 0 0 1-5.584 4.472 22.748 22.748 0 0 1-3.238 1.693c-.513.275-1.081.392-1.576.617a12.831 12.831 0 0 1-1.473.464c-1.833.608-7.953.689-7.85 5.728.1 5.332 9.984 5.8 17.753 2.126 9.336-4.431 12.191-11 12.209-14.861.023-3.652-2.531-4.7-4.774-4.539-1.36.086-3.288 2.067-3.364 2.117" data-name="Path 1662"/><path fill="#002640" d="M168.505 87.468c.077.05 1.482 1.365 2.252 2.031a28.617 28.617 0 0 0 5.881 4.067 23.441 23.441 0 0 0 3.342 1.468c.536.239 1.108.32 1.617.5a15.355 15.355 0 0 0 1.5.369c1.878.464 8 .126 8.246 5.152.261 5.337-9.574 6.494-17.563 3.364-9.624-3.774-12.929-10.124-13.231-13.974-.257-3.648 2.211-4.868 4.458-4.864 1.365-.009 3.423 1.837 3.5 1.882" data-name="Path 1663"/><path d="M77.176 158.695a33.38 33.38 0 0 1 1.405-4.792 51.368 51.368 0 0 1 5.967-11.574 43.384 43.384 0 0 1 13.736-12.88 43.1 43.1 0 0 1 21.049-5.71l2.716.063c.869.036 1.95.167 2.909.252a42.575 42.575 0 0 1 5.58 1.081 37.331 37.331 0 0 1 10.025 4.409 44.907 44.907 0 0 1 13.371 13.2 56.973 56.973 0 0 1 5.875 11.542c.563 1.446.883 2.635 1.121 3.445.221.851.342 1.306.342 1.306a2.372 2.372 0 0 1-4.431 1.63l-.09-.194s-.167-.342-.477-.986c-.356-.667-.874-1.644-1.531-2.891a61.376 61.376 0 0 0-6.557-9.574 43.515 43.515 0 0 0-11.948-10.187 31.394 31.394 0 0 0-7.953-3.139 33.707 33.707 0 0 0-4.305-.77c-.721-.045-1.315-.14-2.135-.167l-2.36-.023a37.924 37.924 0 0 0-17.068 4.152 42.05 42.05 0 0 0-12.164 9.84 55.514 55.514 0 0 0-6.58 9.453c-1.351 2.477-1.95 3.882-1.95 3.882a2.39 2.39 0 0 1-4.548-1.369" data-name="Path 1664"/><path d="M81.291 116.767a6.33 6.33 0 1 0-7.881 4.247 6.334 6.334 0 0 0 7.881-4.247" data-name="Path 1665"/><path d="M175.963 120.879a6.328 6.328 0 1 0-7.872 4.251 6.322 6.322 0 0 0 7.872-4.251" data-name="Path 1666"/></g></g><g data-name="Group 1140"><g clip-path="url(#Følelsesmatrix_svg__c)" data-name="Group 1139" transform="translate(-388.57 399.28)"><path fill="#508984" d="M24.857 199.79s-15.505 28.108-13.264 31.764 31.943-9.3 31.943-9.3 30.3 27.976 87.937 16.329c77.866-15.73 125.3-97.509 81.055-179.084-41.4-76.344-130.579-72.315-178.39-26.8s-40.126 119.75-9.281 167.091" data-name="Path 1667"/><path d="M55.732 112.693a37.526 37.526 0 0 1 3.713-1.014 71.159 71.159 0 0 1 8.254-1.377c3.027-.3 6.063-.52 8.362-.52 2.291-.017 3.838.116 3.838.116a5.333 5.333 0 0 1 1.2 10.381s-1.476.482-3.713.994-5.243.994-8.254 1.4a70.41 70.41 0 0 1-8.358.541 36.914 36.914 0 0 1-3.842-.137 5.353 5.353 0 0 1-1.2-10.379" data-name="Path 1668"/><path d="M143.645 106.347s1.493-.432 3.751-.823a71.812 71.812 0 0 1 8.321-.965c3.04-.137 6.079-.212 8.375-.1 2.291.1 3.83.308 3.83.308a5.333 5.333 0 0 1 .672 10.43s-1.493.412-3.755.8c-2.258.412-5.285.728-8.316.985a73.236 73.236 0 0 1-8.37.121 38.313 38.313 0 0 1-3.834-.333 5.354 5.354 0 0 1-.674-10.429" data-name="Path 1669"/><path d="M83.33 136.719s3.651-1.148 9.41-2.512c2.865-.64 6.229-1.351 9.847-2.021 1.788-.366 3.784-.549 5.742-.794 2.071-.212 3.759-.532 6.2-.649 3.875.021 7.572-.158 11.352.033 3.734.2 7.3.416 10.188.686 5.8.57 9.68 1.185 9.68 1.185a5.236 5.236 0 0 1-.79 10.408h-.062s-3.763.021-9.443-.042c-2.853-.1-6 .029-9.443-.05-3.406-.108-7.372.162-11.161.229-1.734.183-3.468.362-5.173.541-1.784.225-3.5.279-5.252.57-3.46.557-6.728.861-9.506 1.31-5.535.823-9.373 1.314-9.373 1.314a5.244 5.244 0 0 1-2.241-10.2Z" data-name="Path 1670"/></g></g><g data-name="Group 1411"><path fill="#afaf62" d="M645.343 437.082s23.266-11.962 22.583-16.275c-.513-3.252-27.283-5.554-27.283-5.554s-10.435-50.564-64.292-78.375c-47.758-24.663-154.02-.565-155.624 99.505-1.17 73.122 44.218 114.887 101.313 122.13 42.403 5.389 111.408-23.196 123.303-121.431" data-name="Path 1636"/><path fill="none" d="M547.824 597.424 369.94 453.422l152.72-188.654L700.544 408.77z" data-name="Rectangle 451"/><g data-name="Group 1105"><g data-name="Group 1106"><path d="M500.155 430.535a2.071 2.071 0 0 0-1.457-.815c.058-.176.115-.36.175-.568a5.482 5.482 0 0 0-.882.557 5.059 5.059 0 0 0-.763.113c.091-.334 1.1-.228.718-.854-.485-.756-1.47.17-2.055.167-.939-.01.585.7.5.666a.864.864 0 0 1-.048.269 13.514 13.514 0 0 0-1.36.55c.014-.112.021-.218-.008-.224a1.4 1.4 0 0 0-.1.277 36.694 36.694 0 0 0-5.575 3.5c-.147-.275-.4-.494-.73-.1a1.211 1.211 0 0 0-.027.66q-.337.254-.663.512c-.34-.15-.665-.325-.665-.325.4.75-1.916.7-2.473.518-.093-.046-.115-.065-.11-.085a4.274 4.274 0 0 1-.968.817.452.452 0 0 0-.078-.15c-.05-.051-.074.08-.06.235-1.464.887-3.42 1.316-4.412 2.139.007.048.013.085.02.149l-.12.033v-.1a1.481 1.481 0 0 0-.454 1.628c-1.058-2.718.273 1.12-.52-.557.557 1.184.692 2.322 1.4 2.575-.193-.07.377-.418 1.235-.841a28.467 28.467 0 0 1-3.058 2.6c4.547 2.857 26.628-7.83 22.527-13.346m-21.108 9.917c-.02.288-.1.212-.223-.234 0 0 .366-.188.223.234m2.057-2.257c.271 1.762-.589-.967 0 0m-.15 1.624c.024.065.234.85 0 0m-.193-1.446c.416 1.212.007.286-.015.2-.028-.156-.024-.223.015-.2m-.416.07c.16-.487 1.09 1.965.07.125l-.07-.124m.351 1.389c-.026.082.07.412-.1.052Zm.191 1.279a.338.338 0 0 1-.21-.243c.048-.01.321-.028.574-.078l-.364.32m.43-1.7c-.268-.491.018-.324.122-.123Zm.305.829c-.022.115-.082-.306.015-.245Zm.332-.871c-.039-.43 0-.451.11-.072.1.355 0 .232-.11.072m.613-.7a.567.567 0 0 1 .143.379c-.1-.041-.147-.167-.143-.38m.622-.58c.046.228-.147-.11 0 0m.47.095.048.338c-.024.252-.173-.4-.048-.338m.343.215a1.159 1.159 0 0 1-.277-.65 1.358 1.358 0 0 1 .277.65m.264-.217c-.033-.061-.063-.128-.11-.225 0 0 .172.162.11.225" data-name="Path 1648"/><path d="M474.668 425.747a2.071 2.071 0 0 0 .537 1.58c-.16.092-.326.19-.51.305a5.482 5.482 0 0 0 1.028.176 5.059 5.059 0 0 0 .643.427c-.291.187-.97-.567-1.105.154-.145.886 1.207.857 1.639 1.251.692.635.034-.912.074-.83a.864.864 0 0 1 .216-.167 13.514 13.514 0 0 0 1.38.501c-.087.074-.163.148-.146.172a1.4 1.4 0 0 0 .26-.139 36.694 36.694 0 0 0 6.485 1.13c-.075.302-.033.634.476.563a1.211 1.211 0 0 0 .462-.474q.42.037.835.064c.152.339.276.686.276.686.205-.825 1.893.762 2.185 1.27.038.097.042.125.025.138a4.274 4.274 0 0 1 1.266.04.452.452 0 0 0-.042.162c.002.073.108-.01.202-.133 1.68.32 3.422 1.31 4.71 1.362.026-.04.046-.072.084-.124l.112.057-.067.074a1.481 1.481 0 0 0 1.426-.907c-1.032 2.728.547-1.016.014.762.378-1.252 1.04-2.189.682-2.85.098.18-.56.058-1.48-.202a28.467 28.467 0 0 1 4.012.114c-1.467-5.165-25.027-12-25.67-5.155m22.321 6.754c.208-.2.216-.09.01.323 0 0-.398-.105-.01-.323m-3.039.301c.978-1.49-.209 1.113 0 0m1.198-1.107c.026-.064.395-.788 0 0m-.824 1.204c.502-1.179.186-.217.145-.138-.083.134-.131.181-.145.138m.357.226c-.445.255.504-2.19.032-.139l-.032.139m.669-1.267c.074-.044.224-.353.109.028Zm.713-1.079a.338.338 0 0 1-.006.322c-.042-.026-.257-.194-.479-.327l.485.005m-1.456.977c-.13.544-.232.229-.174.01Zm.327-.82c.093-.071-.144.282-.175.172Zm-.83.425c-.258.345-.302.335-.13-.02.163-.331.155-.173.13.02m-.924.11a.567.567 0 0 1 .148-.378c.046.098-.003.223-.148.378m-.85.015c.118-.2.035.18 0 0m-.286-.385.19-.283c.186-.171-.14.413-.19.283m-.112-.389a1.159 1.159 0 0 1-.229.668 1.358 1.358 0 0 1 .23-.668m-.342-.015c-.016.067-.039.137-.068.241 0 0-.02-.236.068-.241" data-name="Path 1865"/></g></g><g data-name="Group 1408"><g data-name="Group 1106"><path d="M552.906 429.519a1.873 1.873 0 0 0 1.341.849c-.053.183-.106.375-.16.59a5.008 5.008 0 0 0 .813-.578 4.185 4.185 0 0 0 .7-.118c-.084.348-1.02.238-.664.888.448.786 1.358-.178 1.9-.174.868.01-.54-.724-.466-.693a1 1 0 0 1 .045-.28 11.716 11.716 0 0 0 1.257-.574c-.014.118-.02.228.007.234a1.579 1.579 0 0 0 .09-.288 33.561 33.561 0 0 0 5.148-3.637c.135.286.374.514.676.1a1.412 1.412 0 0 0 .024-.688c.207-.176.412-.353.612-.531.314.156.614.338.614.338-.374-.78 1.77-.732 2.284-.54.086.049.106.069.1.09a4.11 4.11 0 0 1 .893-.85.493.493 0 0 0 .072.155c.046.054.07-.083.057-.243 1.351-.923 3.158-1.37 4.074-2.225a4.152 4.152 0 0 1-.019-.155l.111-.035v.1a1.665 1.665 0 0 0 .418-1.694c.977 2.828-.252-1.167.48.579-.514-1.232-.64-2.416-1.293-2.68.178.072-.348.436-1.14.876a27.3 27.3 0 0 1 2.824-2.706c-4.2-2.973-24.594 8.145-20.806 13.885m19.5-10.318c.02-.3.09-.22.206.243 0 0-.338.2-.206-.243m-1.9 2.349c-.25-1.833.544 1.006 0 0m.14-1.69c-.023-.068-.217-.885 0 0m.177 1.5c-.384-1.261-.007-.3.014-.211.026.162.022.232-.014.21m.384-.072c-.147.508-1.007-2.044-.063-.13-.022-.041.063.13.063.13m-.324-1.445c.024-.085-.063-.43.09-.054Zm-.177-1.331c.08.025.146.1.194.253-.045.01-.3.029-.53.08l.336-.333m-.4 1.767c.247.512-.017.338-.113.129Zm-.283-.861c.021-.12.075.319-.014.255Zm-.307.906c.036.446 0 .469-.1.075-.093-.37 0-.241.1-.075m-.566.724a.635.635 0 0 1-.132-.394c.09.042.135.174.132.394m-.574.6c-.043-.238.135.114 0 0m-.434-.1-.045-.352c.022-.263.16.413.045.352m-.317-.224a1.285 1.285 0 0 1 .255.676 1.51 1.51 0 0 1-.255-.676m-.243.226c.031.064.058.133.1.234 0 0-.159-.168-.1-.234" data-name="Path 1648"/><path d="M576.445 434.5a2.33 2.33 0 0 0-.496-1.646c.144-.097.301-.198.474-.314a4.555 4.555 0 0 0-.95-.183 4.671 4.671 0 0 0-.594-.443c.269-.195.9.593 1.02-.158.134-.922-1.115-.892-1.517-1.304-.639-.662-.03.945-.066.866a.818.818 0 0 1-.199.175 11.608 11.608 0 0 0-1.278-.524c.08-.077.15-.153.134-.178a1.252 1.252 0 0 0-.238.147 30.469 30.469 0 0 0-5.987-1.179c.07-.314.027-.663-.44-.586a1.2 1.2 0 0 0-.428.494 34.272 34.272 0 0 0-.77-.067c-.14-.352-.255-.714-.255-.714-.185.862-1.75-.79-2.017-1.32-.035-.101-.038-.131-.024-.145a3.511 3.511 0 0 1-1.171-.044.519.519 0 0 0 .038-.169c-.003-.075-.1.01-.187.139-1.552-.333-3.16-1.365-4.35-1.418-.024.042-.043.075-.077.13l-.104-.059.067-.074a1.364 1.364 0 0 0-1.312.945c.953-2.838-.507 1.057-.013-.793-.348 1.301-.96 2.278-.63 2.966-.09-.187.517-.06 1.366.21a23.364 23.364 0 0 1-3.705-.119c1.352 5.373 23.114 12.485 23.71 5.364m-20.624-7.034c-.19.21-.195.094-.009-.335 0 0 .367.11.009.335m2.806-.313c-.903 1.551.195-1.157 0 0m-1.109 1.154c-.024.067-.365.82 0 0m.761-1.252c-.463 1.227-.171.226-.133.149.077-.14.121-.19.133-.149m-.328-.233c.411-.267-.462 2.274-.03.144-.008.048.03-.144.03-.144m-.617 1.318c-.069.045-.208.366-.099-.027Zm-.66 1.122a.391.391 0 0 1 .006-.334c.04.027.238.202.442.339l-.45-.002m1.344-1.015c.12-.565.214-.238.161-.011Zm-.301.853c-.086.074.13-.295.161-.179Zm.766-.441c.238-.359.28-.35.118.018-.15.344-.144.179-.118-.018m.85-.112a.632.632 0 0 1-.136.392c-.044-.1.002-.231.136-.392m.79-.024c-.108.208-.032-.187 0 0m.265.4-.178.295c-.172.179.125-.425.176-.295m.103.406a1.31 1.31 0 0 1 .21-.699 1.534 1.534 0 0 1-.211.696m.316.015c.015-.07.036-.143.062-.251 0 0 .018.245-.062.25" data-name="Path 1865"/></g></g><g data-name="Group 1404"><path d="M496.173 473.005a1.216 1.216 0 0 0-.13 1.001 11.3 11.3 0 0 0 1.464 1.303 13.93 13.93 0 0 0 10.432 5.79c.068.02.137.037.2.057-3.334 1.06-1.61.71.448.123 1.13.302 1.763.384.12-.035.084-.026.167-.05.253-.072a25.651 25.651 0 0 0 9.973-1.72 2.547 2.547 0 0 0 1.921-.792q.87-.391 1.718-.832a.409.409 0 0 0 .078.241c.27.378.367-.158.334-.473a30.788 30.788 0 0 0 2.568-1.562.277.277 0 0 1-.11.144.543.543 0 0 0 .204-.21 24.866 24.866 0 0 0 6.643-6.507c1.686-2.52-.472-6.917-3.78-6.082-4.083 1.032-7.12 8.09-11.826 9.874a14.29 14.29 0 0 1-12.883-1.132c-.56-.333-10.432-7.823-8.625-1.715a18.1 18.1 0 0 0 .998 2.599" data-name="Path 1654"/><path d="M551.16 465.493a1.216 1.216 0 0 0-.13 1.001 11.3 11.3 0 0 0 1.464 1.303 13.93 13.93 0 0 0 10.432 5.79c.068.02.137.037.2.057-3.334 1.06-1.61.71.448.122 1.13.303 1.763.384.12-.034.085-.026.167-.05.253-.072a25.651 25.651 0 0 0 9.973-1.721 2.547 2.547 0 0 0 1.921-.791q.87-.391 1.718-.832a.409.409 0 0 0 .078.241c.27.378.367-.158.334-.473a30.788 30.788 0 0 0 2.568-1.562.277.277 0 0 1-.11.144.543.543 0 0 0 .204-.21 24.866 24.866 0 0 0 6.643-6.507c1.686-2.52-.472-6.917-3.78-6.082-4.083 1.032-7.12 8.09-11.826 9.874a14.29 14.29 0 0 1-12.883-1.132c-.56-.333-10.432-7.823-8.625-1.715a18.1 18.1 0 0 0 .998 2.599" data-name="Path 1867"/><path d="M502.75 474.182a1.216 1.216 0 0 0 .369-.94 11.303 11.303 0 0 0-1.107-1.62 13.933 13.933 0 0 0-8.718-8.147c-.061-.036-.125-.07-.18-.105 3.491-.22 1.734-.298-.406-.227-1.024-.567-1.618-.8-.125.005a5.345 5.345 0 0 1-.263.008 25.656 25.656 0 0 0-10.096-.745 2.548 2.548 0 0 0-2.056.302q-.938.168-1.869.39a.41.41 0 0 0-.017-.253c-.17-.432-.394.064-.439.378-.975.25-1.937.553-2.87.893a.277.277 0 0 1 .142-.113.543.543 0 0 0-.25.154 24.871 24.871 0 0 0-8.023 4.704c-2.247 2.037-1.22 6.827 2.193 6.819 4.212-.012 8.87-6.124 13.87-6.715a14.293 14.293 0 0 1 12.225 4.228c.462.46 8.226 10.122 7.954 3.756a18.104 18.104 0 0 0-.338-2.763" data-name="Path 1654"/><path d="M559.765 466.787a1.215 1.215 0 0 0 .218-.985 11.295 11.295 0 0 0-1.346-1.426 13.924 13.924 0 0 0-9.88-6.678c-.066-.026-.134-.05-.194-.075 3.412-.764 1.666-.566-.435-.161-1.1-.4-1.723-.537-.123.024-.086.018-.17.035-.258.049a25.64 25.64 0 0 0-10.082.844 2.546 2.546 0 0 0-1.982.62q-.9.312-1.783.677a.409.409 0 0 0-.057-.247c-.236-.4-.38.125-.374.442-.924.4-1.826.849-2.694 1.33a.277.277 0 0 1 .123-.133.543.543 0 0 0-.222.19 24.855 24.855 0 0 0-7.184 5.898c-1.9 2.362-.136 6.93 3.231 6.387 4.156-.67 7.797-7.432 12.64-8.796a14.284 14.284 0 0 1 12.728 2.261c.528.38 9.702 8.703 8.437 2.463a18.092 18.092 0 0 0-.765-2.675" data-name="Path 1866"/></g></g><g data-name="Group 1096"><g clip-path="url(#Følelsesmatrix_svg__d)" data-name="Group 1095" transform="translate(531.49 -563.54)"><path fill="#f297bc" d="M178.499 243.822c4.171-2.386-5.334-29.979-5.334-29.979s73.948-29.32 68.618-107.257-95.921-133.905-176.53-92.599-78.391 137.979-37.3 180.289c44.637 45.968 116.577 32.889 116.577 32.889s29.315 19.324 33.977 16.657" data-name="Path 1627"/><path fill="#ab003d" d="M70.247 97.926s-7.333-14.989-15.993-7.661 10.932 29.656 18.656 29.311c7.329-.332 24.317-26.312 14.989-32.978-9.954-7.11-17.652 11.327-17.652 11.327" data-name="Path 1628"/><path fill="#ab003d" d="M161.683 95.427s-7.332-14.989-15.993-7.66 10.936 29.655 18.656 29.311c7.329-.332 23.99-24.649 14.658-31.31-9.95-7.11-17.32 9.66-17.32 9.66" data-name="Path 1629"/><path d="M94.32 113.839c.008.059.433.722 1.34 2.1a36.387 36.387 0 0 0 4.154 5.082 26.312 26.312 0 0 0 7.006 5.183 21.222 21.222 0 0 0 9.328 2.142l.63.025.311.013.16.008h.118c.067 0-.533.042-.269.021h.022l1.478-.147c.479-.059 1.021-.088 1.441-.16l.97-.269a16.214 16.214 0 0 0 4.173-1.582 24.748 24.748 0 0 0 3.7-2.537 38.141 38.141 0 0 0 3-2.995 37.675 37.675 0 0 0 3.931-5.33c.8-1.365 1.264-2.142 1.264-2.142l.155-.26a2.211 2.211 0 0 1 4.066 1.592s-.059.286-.176.815a20.667 20.667 0 0 1-.58 2.121 34.079 34.079 0 0 1-3.272 7.123 30.09 30.09 0 0 1-3.243 4.313 25.7 25.7 0 0 1-4.758 4.04 22.381 22.381 0 0 1-6.363 2.873l-1.882.462c-.55.1-1 .13-1.5.2l-1.474.181-.391.029h-.756l-.861-.008a26.056 26.056 0 0 1-6.846-.92 23.919 23.919 0 0 1-6.207-2.621 26.651 26.651 0 0 1-8.417-7.917 30.89 30.89 0 0 1-3.6-7.031 20.1 20.1 0 0 1-.651-2.129c-.118-.517-.181-.785-.181-.785l-.151-.664a2.202 2.202 0 0 1 4.292-.991c.013.055.025.118.034.172" data-name="Path 1630"/></g></g><g data-name="Group 1150"><g data-name="Group 1103"><g clip-path="url(#Følelsesmatrix_svg__e)" data-name="Group 1093" transform="translate(579.343 800.292)"><path fill="#6c85a0" d="M58.835 249.549c.174 3.251 157.007-.493 173.121-115.9C249.455 8.322 120.156-19.766 59.199 12.051 4.974 40.365-24.343 116.119 25.817 179.241c23 28.947 63.528 37.953 60.54 44.356-4.134 8.848-27.739 21.918-27.521 25.952" data-name="Path 1621"/><path d="M131.363 141.102Z" data-name="Path 1652"/></g></g><g data-name="Group 1105"><g data-name="Group 1106"><path d="M664.537 904.137a6.957 6.957 0 0 1-1 2.183c-.149-.058 1.357-4.053.087-6.043 0 .022-.035.046-.093.076.072-.011.076 0-.2.076-.94-.293.037-.327.262-.208a2.174 2.174 0 0 0-.763-.7 2.828 2.828 0 0 0-.173.343 11.279 11.279 0 0 0-.564-1.894 2.021 2.021 0 0 1 .824.338c-.059-.208-.11-.62-.059-.41a.5.5 0 0 0 .076.136c-.39-.861-.973-1.907-.93-1.851 1.361.423-3.039-3.26-5.334-.518.111-.167.223-.338.338-.5-.054-.067-.215.2-.438.622a4.242 4.242 0 0 0-.4.637c.1-.16.208-.312.31-.47-.84 1.64-2.406 5.129-2.857 3.706-.093.355-.345 1.574-.574 3.017-.059-.084-.132-.147-.21-.1s.017.38.154.466a29.841 29.841 0 0 0-.332 3.308 8.523 8.523 0 0 0-.134 3.486c-.212 1.064.973 2.868 2.222 4.263.074-.022.27.23.27.23 1.107 1.242 2.25 2.076 2.28 1.53a3.974 3.974 0 0 0-.137-1.463 5.192 5.192 0 0 0 1.337-.032 40.375 40.375 0 0 0-.5 1.8c-5.7 5.922 1.092-.763 1.7-2.09a.207.207 0 0 0 .026.145c.21-.232.264-.314.173-.236a.211.211 0 0 0-.167.024c.035-.017.07-.03.1-.045a4.152 4.152 0 0 0 .631-.358 6.579 6.579 0 0 0-1.259 2c.342.574 3.423-3.067 3.076-3.318a.778.778 0 0 0-.873.55c.007-.041.032-.1.045-.15a3.7 3.7 0 0 0 .291-.421c.492-.173.887-1.346 1.13-3.011q.213-.493.424-.993c.02-.468.17-.661.264-.616.778-1.85 1.374-3.472.96-3.492m-5.727-8.824c-.108.07-.219-.015-.347-.25.085-.044.516.183.347.25m-2.05 19.194a2.935 2.935 0 0 1-.228-.243c.113.026.225.052.336.07-.026.049-.06.1-.108.174m-.178-6.91a6.192 6.192 0 0 1 .056-1.546 13.281 13.281 0 0 1 .366-1.561c.071-.243.167-.481.262-.717.017.045.033.09.052.137a25.866 25.866 0 0 0-.735 3.687m1.723 2.076a12.474 12.474 0 0 1 .271-2.766c.032.089.061.173.095.258-.15.954-.269 1.84-.366 2.508m-.63-12.392a6.745 6.745 0 0 0 .366-1.2 1.3 1.3 0 0 1 1.238.007 5.035 5.035 0 0 0-1.6 1.2m3.373-.95c-.032-.023-.063-.055-.1-.08.108-.172.4-.242.1.08m1.047 8.17a2.15 2.15 0 0 1 .037-.187 2.54 2.54 0 0 1 .007.429c-.015-.082-.032-.16-.045-.241m1.853-1.986c-.275-1.662.431-.238 0 0m-.589-1.524c-.247.024.154-.425.221-.46.472.249.4.4-.22.46" data-name="Path 1646"/><path d="M739.385 905.972a1.036 1.036 0 0 0-.21.433 24.64 24.64 0 0 0-.225-1.537c.251-1.188.366-2.04.13-2.03a7.431 7.431 0 0 1-.288 1.217 30.536 30.536 0 0 0-.243-1.07 7.8 7.8 0 0 0-.464-3.413c-.045.074-.195.137-.48.182a.41.41 0 0 1-.064-.117 1.219 1.219 0 0 1 .234-.37 1.009 1.009 0 0 1 .223.125 3.425 3.425 0 0 0-.184-.37c-.017.033-.045.053-.277.14a2.029 2.029 0 0 1-.186-.058 5.08 5.08 0 0 1-.085-.223 1.24 1.24 0 0 1 .446 0 2.138 2.138 0 0 0-.633-.518q-.287-.77-.58-1.51a1.369 1.369 0 0 1 .39.163 2.638 2.638 0 0 1-.137-.408c-.51-.832-1.153-1.754-1.056-1.636 1.435.347-3.394-3.165-5.6-.65.147-.217.275-.444.438-.652-.065-.084-.243.219-.49.7a3.3 3.3 0 0 0-.429.67c.113-.2.256-.381.382-.576-.854 1.719-2.426 5.47-2.835 3.92a17.241 17.241 0 0 0-.084 4.137 3.463 3.463 0 0 0-.128.453 10.99 10.99 0 0 0 1.175 7.654 2.324 2.324 0 0 0 .267.31c.735 2.629 1.754 4.31 2.98 3.24-1.394 1.76.594-.355-.015.99.176-.386.3-.683.4-.94a3.841 3.841 0 0 0 3.4.519c.02.5.045 1.054.095 1.706.015-.046.332-1.153.511-1.94a5.228 5.228 0 0 0 .551-.293 5.916 5.916 0 0 0-.158 1.22c.282.213.98-1.116 1.474-2.317a6.156 6.156 0 0 0 1.637-3.73 18.43 18.43 0 0 0-.1-2.963.11.11 0 0 0 .118.098c.878.162.33-.817.1-.56m-9.865 6.965.136.26c-.1-.024-.769-.187-.136-.26m.152-14.872a.276.276 0 0 1-.089-.15.3.3 0 0 1 .195.01c-.035.047-.074.094-.106.14m2.713-4.077c-.124.039-.23-.07-.323-.317.093-.028.514.29.323.317m-1.792.977c.2-.878-.2 1.647 0 0m.37 1.608a16.663 16.663 0 0 0 .541-1.92c.323-.23.915-.052 1.565.32a7.847 7.847 0 0 0-2.107 1.6m3.1 14.025a3.2 3.2 0 0 1-.226-.7 3.234 3.234 0 0 0 .687.815c-.128.215-.278.225-.46-.113m4.272-9.33c-.425-1.666.434-.31 0 0" data-name="Path 1647"/><path d="M674.163 875.392a2.071 2.071 0 0 0-1.457-.815c.058-.176.115-.36.175-.568a5.482 5.482 0 0 0-.882.557 5.059 5.059 0 0 0-.763.113c.091-.334 1.1-.228.718-.854-.485-.756-1.47.17-2.055.167-.939-.01.585.7.5.666a.864.864 0 0 1-.048.269 13.514 13.514 0 0 0-1.36.55c.014-.112.021-.218-.008-.224a1.4 1.4 0 0 0-.1.277 36.694 36.694 0 0 0-5.575 3.5c-.147-.275-.4-.494-.73-.1a1.211 1.211 0 0 0-.027.66q-.337.254-.663.512c-.34-.15-.665-.325-.665-.325.4.75-1.916.7-2.473.518-.093-.046-.115-.065-.11-.085a4.274 4.274 0 0 1-.968.817.452.452 0 0 0-.078-.15c-.05-.051-.074.08-.06.235-1.464.887-3.42 1.316-4.412 2.139.007.048.013.085.02.149l-.12.033v-.1a1.481 1.481 0 0 0-.454 1.628c-1.058-2.718.273 1.12-.52-.557.557 1.184.692 2.322 1.4 2.575-.193-.07.377-.418 1.235-.841a28.467 28.467 0 0 1-3.058 2.6c4.547 2.857 26.628-7.83 22.527-13.346m-21.108 9.917c-.02.288-.1.212-.223-.234 0 0 .366-.188.223.234m2.057-2.257c.271 1.762-.589-.967 0 0m-.15 1.624c.024.065.234.85 0 0m-.193-1.446c.416 1.212.007.286-.015.2-.028-.156-.024-.223.015-.2m-.416.07c.16-.487 1.09 1.965.07.125l-.07-.124m.351 1.389c-.026.082.07.412-.1.052Zm.191 1.279a.338.338 0 0 1-.21-.243c.048-.01.321-.028.574-.078l-.364.32m.43-1.7c-.268-.491.018-.324.122-.123Zm.305.829c-.022.115-.082-.306.015-.245Zm.332-.871c-.039-.43 0-.451.11-.072.1.355 0 .232-.11.072m.613-.7a.567.567 0 0 1 .143.379c-.1-.041-.147-.167-.143-.38m.622-.58c.046.228-.147-.11 0 0m.47.095.048.338c-.024.252-.173-.4-.048-.338m.343.215a1.159 1.159 0 0 1-.277-.65 1.358 1.358 0 0 1 .277.65m.264-.217c-.033-.061-.063-.128-.11-.225 0 0 .172.162.11.225" data-name="Path 1648"/><path d="M715.29 875.317c-.007-.065.107-.013.3.11-.109.254-.033.68.326 1.368a26.124 26.124 0 0 0 11.891 11.026c2.738 1.33 18.283 3.43 10.114-2.315-.143-.1-.3-.186-.453-.28a.5.5 0 0 0 .084-.123c.33-.863-1.972-1.623-2.01-1.513a.619.619 0 0 0 0 .553c-.242-.117-.47-.245-.719-.356.024-.006.032-.011-.048-.095a.979.979 0 0 1-.436-.1 49.387 49.387 0 0 0-2.42-.945c-.278-.184-.465-.277-.508-.184-1.3-.466-2.61-.926-3.876-1.452.236-.277.444-.748-.226-.867-.147-.026-.475.215-.767.44-.226-.1-.444-.22-.66-.33-.055-.424-.077-.892-.092-.868-.43.722-1.636-1.342-1.78-1.953-.015-.123 0-.152.017-.16a4.149 4.149 0 0 1-1.23-.492.445.445 0 0 0 .092-.14c.026-.07-.11-.031-.243.05-1.537-.94-2.878-2.64-4.108-3.253-.043.028-.076.054-.137.09l-.089-.107a.918.918 0 0 0 .1-.043 1.448 1.448 0 0 0-1.7.239c1.972-2.174-.884.73.262-.744-.824 1.064-1.782 1.652-1.682 2.445m3.542.713-.169-.072c.325-.462.3-.115.17.072m.836-.774c-1.459 1 .615-.977 0 0m-.312-.265c-.908.9-.256.123-.189.072.126-.1.186-.121.19-.072m-.26-.377c.52-.074-1.358 1.957 0 0m-1.208.847.1.067a.682.682 0 0 0-.169.084c-.022-.035.011-.078.071-.15m-1.177-1.56s.343.275-.108.314c-.27.1-.236-.006.108-.314" data-name="Path 1650"/><path d="M718.3 946.135a1.419 1.419 0 0 0-.233 1.489c-.215-.462-1.173-3.908-2.256-7.224-.442-.221-.63-.728-.562-1.53.037.056.072.11.11.165-1.04-3.032-2.1-5.571-2.679-5.013a10.817 10.817 0 0 1 1.671 3.342c-.55.13-2.12-2.694-4.212-4.74-.45-.18-1.288-.626-1.368-1.144a5.96 5.96 0 0 0-.485-.286.643.643 0 0 1-.2.407c-.158.2-.438-.483-.429-.566a1.572 1.572 0 0 1 .308-.02 4.826 4.826 0 0 0-.564-.225c.015.048.006.1-.084.3a2.352 2.352 0 0 1-.537.12c-.069-.038-.126-.083-.193-.122a1 1 0 0 1 .451-.39 3.418 3.418 0 0 0-1.3-.084c-.427-.171-.9-.4-1.41-.6a9.852 9.852 0 0 0 1.432-.152 13.582 13.582 0 0 0-4.974-1.346 5.727 5.727 0 0 1 1.57-.123 35.634 35.634 0 0 0-10.014.115c.457-.132.915-.262 1.372-.392-.1-.743-9.953 4.517-8.3 2.128a17.408 17.408 0 0 0-3.797 3.064c.07-.16.08-.3-.058-.291-.16.009-.48.61-.314.683a45.729 45.729 0 0 0-4.72 6.914 16.8 16.8 0 0 0-.827 2.133.561.561 0 0 1 .1-.054c.228.46-.058.564-.247.5a65.36 65.36 0 0 0-.548 1.745c.08.01.15.238-.035.379-.052-.011-.048-.041-.052-.08a35.829 35.829 0 0 0-.977 4.17c.061.04 0 .5 0 .5-.007-.02-.03-.061-.054-.108-.247 1.84-.1 3.145.923 2.842-1.957 1.173.527.167-.51 1.34q.673-.774 1.271-1.6a.759.759 0 0 0 .21.977 18.292 18.292 0 0 1 .427-2.337c.1.622.213 1.277.332 1.836-.035.215-.074.429-.106.648-1.26.2-1.808.538-.16 1.129.241.494.037.7-.613.616.015-.061 1.123 1.036.936.928.377.219 10.851.776 11.24.245.13-.178-1.689-.494-.324-.678.191.009.38.015.577.02-.473.874 7.636.14 2.8.353.241-.106.466-.18.692-.265 2.207.039 4.49.048 6.745.028-.284.046-.54.134-.54.32.01.985 1.071-.073 1.277-.326 2.243-.024 4.443-.078 6.485-.167.022.284.232.156.39-.02 1.78-.081 3.427-.19 4.881-.326a.512.512 0 0 1 .106.234 1.557 1.557 0 0 1 .056-.25q1.167-.11 2.135-.246c-.82.975.31 1.034 3.418.165 0 0-.184-.035-.46-.082a7.241 7.241 0 0 0 1.225-2.6c.275 1.283.576 2.456.618 2.61-.082-.867-.34-2.291-.43-3.542a2.961 2.961 0 0 0 .016-.633c-.01-.095-.028-.186-.039-.282a5.239 5.239 0 0 1 .054-.605.391.391 0 0 1-.134.017c-.009-.078-.024-.156-.035-.234l.165-.19a.377.377 0 0 1 .065.12 1.059 1.059 0 0 1 .291-.533 16.256 16.256 0 0 0 .472 3.9c.32.13.7-7.073-.043-7.081m-43.348 5.83c.011-.045.011-1.278.245-.515.191.278.11.446-.245.516m.49-7.7a.216.216 0 0 1-.054-.3c.913.3.1.338.054.3m.377 2.009.063-.334c.02.16.262.247-.063.334m.451-1.032a.516.516 0 0 1-.15-.065c.072-.2.15-.24.21-.215-.022.093-.035.188-.059.28m.137-1.571c-.477.147-.093-.473.12-.5a4.41 4.41 0 0 0-.12.5m4.07-7.5-.007.382c-.139.414-.247-.212.006-.382m-.163 19.215c.032.134-.12.509 0 0m-.423-.093c-.09.045-.13.293-.19-.006Zm-.414-18.26c.046.23-.269.178 0 0m-2.6 17.885c-.167.137-.239.078-.23-.16l.095.032c.071.022.173.045.262.067a.569.569 0 0 1-.126.06m.51-13.1a1.2 1.2 0 0 1-.12.062c-.139-.464-.069-.59.156-.386a.266.266 0 0 1 .067.11c-.033.074-.072.143-.1.215m.624-1.353c-.238.078-1.1.017 0 0m.2-1.093c.171-.076.251-.013.243.178-.17.182-.254.126-.243-.178m1.043 16.6a11.646 11.646 0 0 0 1.58.238c-.486.113-1.606.186-1.58-.238m1.547-20.58c.29-.011.4.143.4.423-.3.085-.438-.054-.4-.423m.34 20.522c-.108.072.05-.234.17-.161Zm28.8-22.421c.085-.368.48.379-.009.032.054.039.026-.082.01-.032m-6.252-4.238c.191.078.555-.007.735.332-.22-.046-1.1-.485-.735-.332m-8.165-.46h-.139a.155.155 0 0 1-.078-.108.549.549 0 0 1 .217.1m-13.6 6.258a.893.893 0 0 1-.195-.175l.306-.074a1.282 1.282 0 0 1 .006.136c-.039.04-.076.072-.117.113m.323 20.436c.05 0 .1 0 .154.007-.05.106-.1.072-.154-.007m27.145-13.211c.743 0 .795-.115.278-.514a20.48 20.48 0 0 1-2.066.2c-.117-.017-.668-.074-.793-.065a.876.876 0 0 0 .373.09c-.512.029-1.02.044-1.454.042a7.217 7.217 0 0 0 1.2-.4h-1.629a5.006 5.006 0 0 1-.568.1.4.4 0 0 0 .05-.1h-.332c-.035.03-.054.039-.082.149l-.24.024a.991.991 0 0 0-.253-.173.882.882 0 0 0-.163.01.6.6 0 0 0-.013.2c-.373.033-.778.057-1.2.079a1.529 1.529 0 0 0-.529.028c-1.333.054-2.71.067-3.527.017.583.13 1.168.262 1.766.336 0 0-1.745-.076-3.795-.16.186-.06-.574-.221-1.264-.06a1.117 1.117 0 0 1 .12.016 38.364 38.364 0 0 0-5.184-.01 1 1 0 0 1 .991.322c-.089.444-4.94-.408-4.907-.468a9.692 9.692 0 0 1 2.761-.11.641.641 0 0 0-.319-.2 4.088 4.088 0 0 0-.527.022c.132.024.022.024-.3-.022-1 0-2 0-2.954-.06.162-.246.332-.456.5-.691a4.508 4.508 0 0 0-.7.377 14.77 14.77 0 0 1 1.325-2.564s.1-.1.087-.13c1.292-2.1 3.2-4.478 4.474-3.36.824-2.723 8.651-1.764 10.335-1.157-1.894.113 5.083 3.2 4.851 3.466q-.632-.387-1.249-.8a31.092 31.092 0 0 1 6.138 5.6c-.4.006-.8-.006-1.2-.03m4.346 12.91-.058-.16c.037-.006.065-.013.1-.02a.967.967 0 0 1-.043.179m.47-.033c-.059-.045-.132-.11-.22-.182.432-.078.825-.156 1.163-.245a2.374 2.374 0 0 0 .076.342c-.665-.085-1.277-.123-1.019.085m.03-15.685c.137.12-.293-.613-.3-.557a21.69 21.69 0 0 0-3.215-4.521c2.928 1.153 5.855 8.61 5.854 9.9 0 .193-.152.277-.332.33a29.56 29.56 0 0 0-2.009-5.155m2.816 8.6a11.04 11.04 0 0 0-.072-.353 1.18 1.18 0 0 0-.009-.33 5.384 5.384 0 0 1-.223-.845.328.328 0 0 0 .117.006l-.019-.15a.177.177 0 0 0-.132 0c-.084-.381-.195-.755-.3-1.133.15.019.28.04.286.082.02.1.078.529.145 1.054.084.039.117.126.02.149.036.27.071.555.105.839.072.006.163.082.28.239a.215.215 0 0 1-.239.11c.013.116.024.224.041.333" data-name="Path 1651"/></g></g></g><g data-name="Group 1094"><g clip-path="url(#Følelsesmatrix_svg__f)" data-name="Group 1093" transform="translate(496.162 -126.14)"><path fill="#f3d643" d="M164 246.443c-.164 3.21-147.358-.487-162.483-114.461C-14.909 8.218 106.445-19.52 163.658 11.901c50.89 27.961 78.405 102.773 31.328 165.109-21.589 28.586-59.624 37.48-56.819 43.8 3.88 8.738 26.035 21.645 25.83 25.629" data-name="Path 1621"/><path d="M77.866 101.511a5.181 5.181 0 1 1-5.286-5.074 5.176 5.176 0 0 1 5.286 5.074" data-name="Path 1622"/><path d="M157.301 99.885a5.183 5.183 0 1 1-5.282-5.074 5.176 5.176 0 0 1 5.282 5.074" data-name="Path 1623"/><path d="M88.683 112.127s.1.279.272.677c.2.443.5 1.09.885 1.919a33.9 33.9 0 0 0 4 6.312 31.469 31.469 0 0 0 3.337 3.459 23.982 23.982 0 0 0 4.311 2.879 20.707 20.707 0 0 0 5.174 1.823 24.725 24.725 0 0 0 5.632.58c1.09-.056 2.321-.033 3.288-.153l2.615-.461c.885-.3 1.789-.528 2.667-.8l2.462-1.131a24.019 24.019 0 0 0 4.206-3.004 27.055 27.055 0 0 0 3.221-3.56 32.468 32.468 0 0 0 3.773-6.447c.74-1.681 1.064-2.667 1.045-2.608a1.963 1.963 0 0 1 3.869.67l-.108.926a22.694 22.694 0 0 1-.439 2.429 32.024 32.024 0 0 1-3.184 8.228 26.985 26.985 0 0 1-3.545 4.929 26.43 26.43 0 0 1-5.312 4.467c-1.049.61-2.165 1.149-3.281 1.726a81.603 81.603 0 0 1-3.578 1.254c-1.287.279-2.626.506-3.954.729-1.246.156-2.273.141-3.422.219a28.884 28.884 0 0 1-7.652-.859 23.953 23.953 0 0 1-6.9-2.8 25.007 25.007 0 0 1-5.442-4.281c-.755-.792-1.41-1.622-2.072-2.4l-1.626-2.422a31.551 31.551 0 0 1-3.422-8.135 21.694 21.694 0 0 1-.517-2.422 98.71 98.71 0 0 1-.123-.893 1.968 1.968 0 0 1 3.805-.923Z" data-name="Path 1624"/><path fill="#ce4a70" d="M71.014 120.418a15.349 15.349 0 1 0-15.034 15.656 15.35 15.35 0 0 0 15.034-15.656" data-name="Path 1625"/><path fill="#ce4a70" d="M181.889 120.421a15.349 15.349 0 1 0-15.031 15.66 15.348 15.348 0 0 0 15.032-15.66" data-name="Path 1626"/></g></g><g clip-path="url(#Følelsesmatrix_svg__g)" data-name="Group 1097" transform="translate(-46.764 676.858)"><path fill="#a17eaa" d="M32.722 199.052c33.708 22.873 76.857 23.725 105.577 16.289 63.176-16.363 92.008-78.38 74.441-137.669-12.547-42.353-78.691-109.987-161.08-60.013-79.743 48.378-33.885 163.139-33.885 163.139S-.478 206.181.011 208.037s32.711-8.986 32.711-8.986" data-name="Path 1631"/><path d="m93.071 148.578-.13-.871c-.067-.582-.189-1.4-.226-2.449a42.154 42.154 0 0 1 .437-8.745 32.286 32.286 0 0 1 1.434-5.814 29.487 29.487 0 0 1 2.935-6.24 24.637 24.637 0 0 1 5.043-5.725 23.83 23.83 0 0 1 14.766-5.375 15.548 15.548 0 0 1 3.931.367 17.07 17.07 0 0 1 3.668.982 25.313 25.313 0 0 1 6.181 3.205 32.361 32.361 0 0 1 4.617 3.865 42.041 42.041 0 0 1 5.462 6.855c.589.871.956 1.619 1.238 2.119.274.526.422.8.422.8a1.956 1.956 0 0 1-3.22 2.175l-.115-.133s-.167-.2-.478-.56c-.341-.378-.841-.926-1.478-1.627a47.264 47.264 0 0 0-5.736-5.243 27.876 27.876 0 0 0-9.066-4.854 10.948 10.948 0 0 0-2.635-.551 11.106 11.106 0 0 0-2.694-.126 11.1 11.1 0 0 0-2.516.267 12.549 12.549 0 0 0-2.961.871 17.069 17.069 0 0 0-4.794 2.644 21.579 21.579 0 0 0-3.8 3.954 31.424 31.424 0 0 0-2.653 4.7 39.907 39.907 0 0 0-1.738 4.739 51 51 0 0 0-1.645 7.611l-.274 2.175c-.063.5-.07.763-.07.763l-.011.111a1.96 1.96 0 0 1-3.891.107" data-name="Path 1632"/><path d="M128.186 92.549c.015.037.4.337 1.186.978a42.422 42.422 0 0 0 3.209 2.386 18.01 18.01 0 0 0 4.528 2.227 8.267 8.267 0 0 0 2.364.374 7 7 0 0 0 2.279-.33l.145-.026.07-.015c-.119.048.285-.111-.267.107l.011-.007.026-.011.052-.022.422-.178.837-.348c.537-.245.515-.374.837-.508a8 8 0 0 0 1.675-1.582 14.661 14.661 0 0 0 2.226-4.357 39.637 39.637 0 0 0 1.267-5.288 1.953 1.953 0 1 1 3.883-.426 18.969 18.969 0 0 1 .422 1.868 19.572 19.572 0 0 1 .2 4.928 16.415 16.415 0 0 1-2.231 7.159 13.922 13.922 0 0 1-3.09 3.524 18.826 18.826 0 0 1-2.227 1.386l-.826.382-.411.193-.385.156-.148.041-.3.089a13.23 13.23 0 0 1-4.865.563 12.539 12.539 0 0 1-4.458-1.1 17.354 17.354 0 0 1-5.969-4.317 20.738 20.738 0 0 1-2.862-3.96 17.864 17.864 0 0 1-.826-1.686 1.955 1.955 0 0 1 3.231-2.2" data-name="Path 1633"/><path d="M54.691 116.549c.015.037.4.337 1.182.978.767.622 1.882 1.49 3.213 2.386a18.01 18.01 0 0 0 4.528 2.227 8.262 8.262 0 0 0 2.36.374 6.974 6.974 0 0 0 2.279-.33l.145-.026.074-.015-.27.107.015-.007.026-.011.052-.022.422-.178.834-.348c.541-.245.519-.374.841-.508a7.9 7.9 0 0 0 1.674-1.58 14.715 14.715 0 0 0 2.231-4.358 41.016 41.016 0 0 0 1.267-5.284 1.953 1.953 0 1 1 3.883-.43c0 .044.219.711.422 1.871a19.6 19.6 0 0 1 .2 4.928 16.415 16.415 0 0 1-2.231 7.159 13.922 13.922 0 0 1-3.09 3.524 18.866 18.866 0 0 1-2.223 1.381l-.826.382-.411.193-.385.156-.152.041-.293.089a13.23 13.23 0 0 1-4.865.563 12.54 12.54 0 0 1-4.458-1.1 17.354 17.354 0 0 1-5.969-4.317 20.738 20.738 0 0 1-2.875-3.954 17.863 17.863 0 0 1-.826-1.686 1.955 1.955 0 0 1 3.231-2.2" data-name="Path 1634"/><path fill="#98c5ed" d="M164.436 96.04c-.986.385 3.413 18.3 9.1 14.929 6.644-3.935-5.554-16.3-9.1-14.929" data-name="Path 1635"/></g><path d="m1000.001 1272.092 6.455-1653.833" style="fill:#d8d8d8;stroke:#000;stroke-width:12px" transform="rotate(180 686.336 334.386)"/><path d="m897.337 1402.711 1.6-756.508 2.382-1126.03" style="fill:#d8d8d8;stroke:#000;stroke-width:12px" transform="rotate(-90.039 471.722 667.329)"/><rect width="397.805" height="160.968" x="812.765" y="-580.282" rx="55.598" ry="55.598" style="fill:#fff" transform="translate(-633.784 -221.579)"/><text x="943.367" y="-473.163" style="white-space:pre;fill:#333;font-family:&quot;Roboto Slab&quot;;font-size:70.1px" transform="matrix(1.47667 0 0 1.37792 -1184.725 -38.62)">Positiv</text><rect width="453.649" height="160.968" x="136.833" y="1073.671" rx="55.598" ry="55.598" style="fill:#fff"/><text x="943.367" y="-473.163" style="white-space:pre;fill:#333;font-family:&quot;Roboto Slab&quot;;font-size:70.1px" transform="matrix(1.47667 0 0 1.37792 -1221.047 1843.86)">Negativ</text><rect width="224.872" height="160.968" x="532.812" y="200.541" rx="55.598" ry="55.598" style="fill:#fff" transform="rotate(-.269 -4922.673 -151888.706)"/><text x="943.367" y="-473.163" style="white-space:pre;fill:#333;font-family:&quot;Roboto Slab&quot;;font-size:70.1px" transform="matrix(1.47665 -.00687 .0064 1.3779 -112.721 947.538)">Høj</text><g data-name="Group 1100"><g clip-path="url(#Følelsesmatrix_svg__i)" data-name="Group 1099" transform="translate(912.02 615.65)"><path fill="#d65050" d="M64.087 215.115s-.817 26.148 3.286 27.642c3.093 1.128 18.085-21.17 18.085-21.17s49.283 15.387 99.717-18.234C229.9 173.54 260.34 68.918 173.594 19 110.208-17.474 51.675 1.976 17.659 48.4c-25.27 34.475-33.723 108.686 46.428 166.715" data-name="Path 1636"/><path d="M82.389 143.14s.085-.334.25-.954a27.345 27.345 0 0 1 .87-2.6 42 42 0 0 1 4.506-8.614 35.24 35.24 0 0 1 10.084-9.894c1.107-.733 2.348-1.3 3.556-1.969 1.24-.592 2.585-1.007 3.9-1.506 1.353-.387 2.75-.66 4.136-.979 1.4-.213 2.823-.314 4.24-.419l.532-.04h.402l.121.008.234.012.942.052 1.881.109a34.315 34.315 0 0 1 4.357.717 29.129 29.129 0 0 1 7.772 3.27 45.994 45.994 0 0 1 3.222 2.336c.926.89 1.893 1.711 2.7 2.605a33.42 33.42 0 0 1 4.011 5.392 39.531 39.531 0 0 1 3.886 8.976 26.051 26.051 0 0 1 .644 2.658c.117.66.181 1.011.181 1.011a2.121 2.121 0 0 1-4.035 1.216l-.084-.21s-.109-.258-.314-.733c-.234-.5-.584-1.228-1.027-2.163a41.288 41.288 0 0 0-4.53-7.16 35.019 35.019 0 0 0-3.7-4.007c-.7-.648-1.5-1.2-2.251-1.824q-1.238-.773-2.517-1.579a23.722 23.722 0 0 0-5.692-2.074 22.652 22.652 0 0 0-3.012-.471l-1.878-.069-.942-.04-.238-.008H114.451c-.262 0 .318 0 .246.008h-.044l-.411.044c-1.083.137-2.187.141-3.258.29-1.055.242-2.122.415-3.153.685-1.007.354-2.005.709-2.992 1.055-.934.471-1.917.83-2.8 1.357a35.626 35.626 0 0 0-8.908 7.317 48.314 48.314 0 0 0-5.114 6.834c-.532.89-.946 1.591-1.228 2.066l-.4.729-.064.129a2.129 2.129 0 0 1-3.93-1.558" data-name="Path 1637"/><path d="M88.204 110.779a7.825 7.825 0 1 1-7.776-7.869 7.829 7.829 0 0 1 7.776 7.869" data-name="Path 1638"/><path d="M70.871 93.757a26.913 26.913 0 0 1 4.4 1.152 55.318 55.318 0 0 1 8.863 3.987 58.757 58.757 0 0 1 8.09 5.4 28.932 28.932 0 0 1 3.337 3.061 2.251 2.251 0 0 1-.185 3.181 2.286 2.286 0 0 1-1.86.54 28.836 28.836 0 0 1-4.377-1.188 58.529 58.529 0 0 1-8.884-3.955 55.4 55.4 0 0 1-8.11-5.36 27.53 27.53 0 0 1-3.318-3.1 2.267 2.267 0 0 1 2.044-3.718" data-name="Path 1639"/><path d="M159.214 111.222a7.825 7.825 0 1 1-7.772-7.869 7.826 7.826 0 0 1 7.772 7.869" data-name="Path 1640"/><path d="M162.415 98.066a27.075 27.075 0 0 1-3.36 3.056 54.7 54.7 0 0 1-8.171 5.255 58.147 58.147 0 0 1-8.936 3.842 29.289 29.289 0 0 1-4.393 1.132 2.251 2.251 0 0 1-2.565-1.889 2.28 2.28 0 0 1 .568-1.856 29.08 29.08 0 0 1 3.379-3.02 58.342 58.342 0 0 1 8.151-5.292 55.183 55.183 0 0 1 8.916-3.878 27.32 27.32 0 0 1 4.41-1.1 2.263 2.263 0 0 1 2 3.745" data-name="Path 1641"/></g></g><g data-name="Group 1411"><path fill="none" d="M-384.782 18.051-562.666-125.95l152.72-188.654 177.884 144.001z" data-name="Rectangle 451"/></g><g data-name="Group 1094"><g clip-path="url(#Følelsesmatrix_svg__j)" data-name="Group 1093" transform="translate(-392.334 -327.904)"><path d="M164 .68c-.164-3.21-147.358.487-162.483 114.461-16.426 123.764 104.928 151.502 162.141 120.081 50.89-27.961 78.405-102.773 31.328-165.109-21.589-28.586-59.624-37.48-56.819-43.8 3.88-8.738 26.035-21.645 25.83-25.629" data-name="Path 1621" style="fill:#e8e35d" transform="rotate(180 109.61 123.561)"/></g></g><g fill="none" stroke-linecap="round" stroke-linejoin="round" data-name="Group 367"><path d="M73.201 102.981c.078 7.9 25.536 7.656 25.459-.247" data-name="Path 200" style="stroke:#000;stroke-width:5px" transform="rotate(164.181 -83.557 -99.065)"/><path d="M139.735 100.244c.078 7.9 25.535 7.656 25.458-.247" data-name="Path 201" style="stroke:#000;stroke-width:5px" transform="rotate(-167.377 -61.402 -53.343)"/><path d="M87.899 151.96c12.102 10.328 52.592 7.061 63.21-5.961" data-name="Path 202" style="stroke:#000;stroke-width:5px" transform="translate(-388.39 -355.69)"/></g><text x="-201.807" y="-.511" style="fill:#e8e35d;font-family:&quot;Roboto Slab&quot;;font-size:50px;white-space:pre" transform="translate(-110.543 -42.218)">Afslappet</text><text x="492.781" y="177.93" style="fill:#f3d643;font-family:&quot;Roboto Slab&quot;;font-size:50px;white-space:pre">Interessere</text><text x="1463.666" y="157.245" style="fill:#ff4242;font-family:&quot;Roboto Slab&quot;;font-size:50px;white-space:pre" transform="translate(-633.784 -221.579)">Begejstring</text><text x="1170.84" y="-31.91" style="fill:#f297bc;font-family:&quot;Roboto Slab&quot;;font-size:50px;white-space:pre" transform="translate(-633.784 -221.579)">Forelskelse</text><text x="-108.24" y="460.722" style="fill:#508984;font-family:&quot;Roboto Slab&quot;;font-size:50px;white-space:pre" transform="translate(-110.543 -42.218)">Skam</text><text x="203.42" y="449.405" style="fill:#8fc0d4;font-family:&quot;Roboto Slab&quot;;font-size:50px;white-space:pre" transform="translate(-110.543 -42.218)">Skyld</text><text x="-10.387" y="693.525" style="fill:#a17eaa;font-family:&quot;Roboto Slab&quot;;font-size:50px;white-space:pre" transform="translate(-110.543 -42.218)">Tristhed</text><text x="1035.519" y="528.177" style="fill:#afaf62;font-family:&quot;Roboto Slab&quot;;font-size:50px;white-space:pre" transform="translate(-633.784 -221.579)">Væmmelse</text><text x="1262.344" y="977.013" style="fill:#6c85a0;font-family:&quot;Roboto Slab&quot;;font-size:50px;white-space:pre" transform="translate(-633.784 -221.579)">Frygt</text><text x="1576.653" y="809.084" style="fill:#d65050;font-family:&quot;Roboto Slab&quot;;font-size:50px;white-space:pre" transform="translate(-633.784 -221.579)">Raseri</text><g data-name="Group 1140"><g clip-path="url(#Følelsesmatrix_svg__k)" data-name="Group 1139" transform="translate(-549.408 115.13)"><path d="M24.857 41.629S9.352 13.521 11.593 9.865c2.241-3.656 31.943 9.3 31.943 9.3s30.3-27.976 87.937-16.329c77.866 15.73 125.3 97.509 81.055 179.084-41.4 76.344-130.579 72.315-178.39 26.8-47.811-45.515-40.126-119.75-9.281-167.091" data-name="Path 1667" style="fill:#88a6a3" transform="rotate(180 114.763 120.71)"/><path d="M37.919 106.252a88.262 88.262 0 0 1 5.905-1.025 173.489 173.489 0 0 1 13.129-1.393c4.815-.304 9.646-.526 13.303-.526 3.644-.017 6.105.117 6.105.117 6.506.36 9.964 5.061 6.222 8.464-1.054.958-2.566 1.673-4.312 2.036 0 0-2.349.487-5.907 1.005-3.558.517-8.341 1.004-13.13 1.415-4.41.351-8.849.534-13.296.548a90.913 90.913 0 0 1-6.112-.139c-6.518-.435-9.849-5.195-5.997-8.567 1.022-.893 2.448-1.566 4.09-1.93" data-name="Path 1668" transform="rotate(-6.168 58.159 110.103)"/><path d="M83.33 147.402s3.651-1.148 9.41-2.512c2.865-.64 6.229-1.351 9.847-2.021 1.788-.366 3.784-.549 5.742-.794 2.071-.212 3.759-.532 6.2-.649 3.875.021 7.572-.158 11.352.033 3.734.2 7.3.416 10.188.686 5.8.57 9.68 1.185 9.68 1.185 3.981.628 5.79 5.33 3.256 8.465a5.239 5.239 0 0 1-4.046 1.943h-.062s-3.763.021-9.443-.042c-2.853-.1-6 .029-9.443-.05-3.406-.108-7.372.162-11.161.229-1.734.183-3.468.362-5.173.541-1.784.225-3.5.279-5.252.57-3.46.557-6.728.861-9.506 1.31-5.535.823-9.373 1.314-9.373 1.314-4.006.499-7.05-3.526-5.479-7.245a5.245 5.245 0 0 1 3.238-2.955Z" data-name="Path 1670"/><path d="M161.48 112.422c.129 5.732-6.682 9.442-12.262 6.677-5.578-2.765-5.741-9.931-.292-12.898a8.948 8.948 0 0 1 4.113-1.074c4.568-.089 8.351 3.181 8.441 7.295" data-name="Path 1622"/><path d="M145.741 130.177c3.908-6.068 6.459-12.128 9.394-16.505 3.614-5.387 7.81-8.223 15.84-5.38" style="fill:#6f9894" transform="rotate(-145.42 158.358 118.673)"/><path d="M134.644 101.305c1.94-.405 3.91-.747 5.906-1.025a173.894 173.894 0 0 1 13.129-1.392c4.815-.304 9.645-.527 13.302-.527 3.644-.017 6.105.118 6.105.118 6.507.359 9.964 5.061 6.222 8.464-1.053.958-2.566 1.672-4.312 2.035 0 0-2.348.488-5.907 1.006-3.558.517-8.341 1.004-13.13 1.415-4.409.35-8.849.533-13.296.548a91.535 91.535 0 0 1-6.111-.139c-6.519-.436-9.85-5.195-5.998-8.567 1.022-.894 2.448-1.566 4.09-1.93" data-name="Path 1668" transform="rotate(2.147 154.884 105.156)"/></g></g><path d="M-1479.956 254.933c.129 5.732-6.682 9.442-12.262 6.677-5.578-2.765-5.741-9.931-.292-12.898a8.948 8.948 0 0 1 4.113-1.074c4.568-.089 8.351 3.181 8.441 7.295" data-name="Path 1622" transform="translate(995.534 -18.61)"/><path d="M-1494.316 272.727c3.908-6.068 6.459-12.128 9.394-16.505 3.614-5.387 7.81-8.223 15.84-5.38" style="fill:#6f9894" transform="rotate(-149.484 -986.47 116.137)"/><path d="M-1460.231 301.818c12.097-13.327 11.47-14.595 14.405-18.972 3.614-5.387 2.799-5.756 10.829-2.913" style="fill:rgba(104,145,140,.76)" transform="rotate(-145.4 -952.745 125.655)"/><text x="-426.714" y="100.909" style="fill:#88a6a3;font-family:&quot;Roboto Slab&quot;;font-size:50px;white-space:pre">Kedsomhed</text><g data-name="Group 1140"><g clip-path="url(#Følelsesmatrix_svg__l)" data-name="Group 1139" transform="translate(-391.348 787.734)"><path d="M24.857 199.79s-15.505 28.108-13.264 31.764c2.241 3.656 31.943-9.3 31.943-9.3s30.3 27.976 87.937 16.329c77.866-15.73 125.3-97.509 81.055-179.084-41.4-76.344-130.579-72.315-178.39-26.8-47.811 45.515-40.126 119.75-9.281 167.091" data-name="Path 1667" style="fill:#7c8da9" transform="rotate(180 114.763 120.71)"/><path bx:origin="0.883 0.313" d="M100.743 170.321s.992-.285 2.488-.543a47.341 47.341 0 0 1 5.509-.639c2.007-.091 4.014-.14 5.526-.066a30.45 30.45 0 0 1 2.52.204c2.671.369 3.859 3.513 2.136 5.66a3.659 3.659 0 0 1-1.893 1.242s-.992.273-2.493.528c-1.497.273-3.499.482-5.503.652a48.5 48.5 0 0 1-5.524.081 25.257 25.257 0 0 1-2.522-.221c-2.673-.422-3.805-3.601-2.037-5.725a3.665 3.665 0 0 1 1.793-1.177" data-name="Path 1669" transform="rotate(-1.002 117.197 171.681)"/></g></g><path d="M-484.893 1050.491c.098 4.256-5.072 7.011-9.309 4.958-4.236-2.053-4.359-7.375-.221-9.578a6.926 6.926 0 0 1 3.122-.797c3.468-.066 6.34 2.362 6.408 5.417M-587.594 1065.569c.09 4.013-4.61 6.611-8.46 4.674-3.85-1.935-3.962-6.952-.202-9.027a6.117 6.117 0 0 1 2.838-.753c3.152-.062 5.763 2.227 5.824 5.106" data-name="Path 1622" transform="translate(254.247 -161.942)"/><text x="-364.092" y="815.662" style="fill:#7c8da9;font-family:&quot;Roboto Slab&quot;;font-size:50px;white-space:pre" transform="translate(-110.543 -42.218)">Depression</text><rect width="224.872" height="160.968" x="532.812" y="200.541" rx="55.598" ry="55.598" style="fill:#fff" transform="rotate(-.617 -3929.736 137060.19)"/><text x="943.367" y="-473.163" style="white-space:pre;fill:#333;font-family:&quot;Roboto Slab&quot;;font-size:70.1px" transform="matrix(1.47658 -.01587 .01481 1.37784 -2304.596 944.194)">Lav</text><text x="943.367" y="-473.163" style="fill:#333;font-family:&quot;Roboto Slab&quot;;font-size:50.0753px;font-weight:500;white-space:pre" transform="matrix(1.47665 -.00687 .0064 1.3779 -1385.29 877.157)">Intensitet</text><text x="943.367" y="-473.163" style="fill:#333;font-family:&quot;Roboto Slab&quot;;font-size:50.0753px;font-weight:500;white-space:pre" transform="matrix(.02822 -1.4764 1.37767 .02633 962.025 1517.898)">Kvalitet</text></svg>