<?xml version="1.0" encoding="utf-8"?>
<svg viewBox="1580.676 -217.123 844.527 1467.031" xmlns="http://www.w3.org/2000/svg">
  <defs>
    <clipPath id="clip-1">
      <rect width="1166" height="1094"/>
    </clipPath>
    <clipPath id="clip-Illustration_-_Min_fysiske_energi_-_Min_fysiske_aktivitet">
      <rect width="545" height="513"/>
    </clipPath>
  </defs>
  <g id="g-1" data-name="Group 656" transform="matrix(0.734397, -0.038488, 0.039674, 0.757013, 1711.830078, -80.639893)" style="">
    <g id="Group_322" data-name="Group 322" transform="translate(0 0)">
      <g id="Group_256" data-name="Group 256" transform="translate(0 0)">
        <g id="Group_658" data-name="Group 658" transform="translate(0 0)">
          <path id="Path_419" data-name="Path 419" d="M192.423,0C138.855,9.074,12.052,2.631,1.107,6.085c-21.6,38.228,279.885,10.351,292.233,102.249" transform="translate(138.534 670.229)" stroke="#323f51" stroke-linecap="round" stroke-linejoin="round" style="stroke-width: 7px;" fill="none"/>
          <path id="Path_1048" data-name="Path 1048" d="M94.8,0c52.075,10.14,175.344,2.941,185.984,6.8,21,42.72-291.4,15.164-280.51,98.08" transform="translate(276.929 676.544)" stroke="#323f51" stroke-linecap="round" stroke-linejoin="round" style="stroke-width: 7px;" fill="none"/>
          <path id="Path_421" data-name="Path 421" d="M.273,542.03c-.913,16.524.159,33.759,7.861,48.409,10.626,20.223,31.913,32.225,52.412,42.3,51.9,25.532,108.427,46.377,166.135,42.492S343.2,637.349,361.207,582.385c7.889-24.066,7.571-49.937,7.169-75.262l-3.353-214.005c-1.431-90.97-3.256-205-82.1-266.715C228.41-16.268,180.54-6.721,147.361,51.444c-35.7,62.575-42.477,143.389-61.082,211.931C61.356,355.154,5.576,446.269.273,542.03Z" transform="translate(168.274 0)" stroke="#323f51" stroke-miterlimit="10" style="stroke-width: 7px; fill: rgb(126, 200, 214);"/>
          <path id="Path_422" data-name="Path 422" d="M64.162,192.269C38.632,170.33,21.87,144.4,8.4,107.425,1.515,88.494-3.39,65.833,2.905,46.51,7.279,33.1,16.4,23.661,26,17.152,61.548-6.932,66.089,18.513,103.369,0" transform="matrix(0.191, -0.982, 0.982, 0.191, 0, 441.353)" stroke="#323f51" stroke-linecap="round" stroke-linejoin="round" style="stroke-width: 6.99718px;" fill="none"/>
          <path id="Path_423" data-name="Path 423" d="M51.246,0C22.37,10.46.027,53.858,0,99.529c0,10.82,1.149,21.812,4.333,31.457C10.242,148.9,22.181,159.857,33.6,169.578c40.667,34.617,43.258-20.7,86.139,6.876" transform="translate(527.237 486.271) rotate(-81)" stroke="#323f51" stroke-linecap="round" stroke-linejoin="round" style="stroke-width: 7px;" fill="none"/>
          <g id="g-3" clip-path="url(#clip-1)" transform="matrix(0.998629, 0.052336, -0.052336, 0.998629, 5091.681641, 1695.382813)"/>
          <g id="Illustration_-_Min_fysiske_energi_-_Min_fysiske_aktivitet" data-name="Illustration - Min fysiske energi - Min fysiske aktivitet" clip-path="url(#clip-Illustration_-_Min_fysiske_energi_-_Min_fysiske_aktivitet)" transform="matrix(0.998629, 0.052336, -0.052336, 0.998629, 4818.533203, 1278.323242)"/>
        </g>
      </g>
      <path id="Path_498" data-name="Path 498" d="M10.955,9.451a34.11,34.11,0,0,1-9.53-5.184C.018,3.2-.615,2,.784.7,2.125-.531,3.5.049,4.757.988,14.609,8.314,25.466,8.7,37.028,4.141c.576-.227,1.166-.43,1.733-.669,1.427-.6,2.8-.64,3.631.634.866,1.323.352,2.462-1.269,3.156C31.43,11.4,21.461,12.988,10.955,9.451Z" transform="matrix(-0.951, 0.309, -0.309, -0.951, 358.326, 154.777)" style="stroke-width: 7.00041px;" fill="#323f51"/>
      <path id="Path_499" data-name="Path 499" d="M10.955,9.451a34.11,34.11,0,0,1-9.53-5.184C.018,3.2-.615,2,.784.7,2.125-.531,3.5.049,4.757.988,14.609,8.314,25.466,8.7,37.028,4.141c.576-.227,1.166-.43,1.733-.669,1.427-.6,2.8-.64,3.631.634.866,1.323.352,2.462-1.269,3.156C31.43,11.4,21.461,12.988,10.955,9.451Z" transform="matrix(-0.966, -0.259, 0.259, -0.966, 474.307, 167.015)" style="stroke-width: 6.99917px;" fill="#323f51"/>
    </g>
    <path id="Path_604" data-name="Path 604" d="M27.787,12.128c-1.64-4.7-5.63-8.582-9.858-11.012A6.285,6.285,0,0,0,14.2.024,4.573,4.573,0,0,0,10.57,3.393,8.936,8.936,0,0,0,10.9,8.552a17.5,17.5,0,0,0,8.241,9.92C13.912,18.64,1.325,20.637.1,27.084c-1.686,8.865,18.727,16.4,22.863,7.279" transform="matrix(0.891, -0.454, 0.454, 0.891, 367.878, 287.697)" stroke="#323f51" stroke-linecap="round" stroke-miterlimit="10" style="stroke-width: 7.00001px;" fill="none"/>
    <path id="Path_605" data-name="Path 605" d="M6.729,0C5.021,2.986,3.241,5.938,1.491,8.894a10.005,10.005,0,0,0,.343,11.038c3.618,5,15.234,8.911,19.02,9.966,11.323,3.166,11.666-8.115,14.694-13.4" transform="matrix(0.891, -0.454, 0.454, 0.891, 411.078, 221.09)" stroke="#323f51" stroke-linecap="round" stroke-miterlimit="10" style="stroke-width: 7.00001px;" fill="none"/>
    <path id="Path_606" data-name="Path 606" d="M6.729,0C5.02,2.986,3.241,5.938,1.49,8.894a10,10,0,0,0,.348,11.038c3.618,5,15.23,8.911,19.016,9.966,11.323,3.166,11.67-8.115,14.694-13.4" transform="matrix(0.891, -0.454, 0.454, 0.891, 337.859, 217.508)" stroke="#323f51" stroke-linecap="round" stroke-miterlimit="10" style="stroke-width: 7.00001px;" fill="none"/>
    <path id="Path_611" data-name="Path 611" d="M52.451,96.7,58.4,91.4C42,97.614,28.651,95.582,19.494,81.855,6.827,62.87,21.429,33.02,52.991,38.23L37.954,32.446C40.5,18.389,53.154,9.2,67.622,10.928c13.644,1.629,24.005,13.644,23.191,27.263-4.708.4-9.47.8-14.568,1.236l.352,8.362c5.292-.549,10.259-1.032,15.219-1.591,14.957-1.683,29.914-3.418,44.874-5.091,3.3-.37,6.736-.482,4.245-5.832l-40.4,2.405C97.4,29.236,95.68,20.753,91.369,13.9,83.9,2.027,71.816-1.825,58.3.772,44.342,3.455,35.546,12.449,32.371,26.221c-1.1,4.765-2.488,7.17-7.649,8.537C7.172,39.4-3.138,57.339.857,74.956A34.064,34.064,0,0,0,39.1,101.124c3.625-.533,6.388-1.329,9.374,2.61,11.584,15.273,30.3,18.6,46.659,8.984,14.072-8.282,19.693-26.842,13.206-43.565-.342-.878-.552-1.811-1.016-3.36,10.9-4.328,21.706-8.464,32.344-12.989,1.971-.837,3.271-3.255,4.88-4.941l-1.734-2.022C122.464,52.772,102.107,59.7,81.068,66.86l3.082,7.822c5-1.763,9.483-3.351,13.913-4.912,6.726,12.354,2.29,26.749-10.422,34.7C76.23,111.622,60.672,108.4,52.451,96.7Z" transform="matrix(0.996, 0.087, -0.087, 0.996, 200.632, 247.608)" style="stroke-width: 7.00145px;" fill="#6c85a0"/>
  </g>
  <g id="Group_831" data-name="Group 831" transform="matrix(1, 0, 0, 1, 11696.625977, -3607.509766)">
    <path id="Path_1217" data-name="Path 1217" d="M -9873.134 4041.399 C -9755.399 4018.38 -9642.901 3968.096 -9542.398 3893.567 C -9603.973 3859.513 -9665.538 3825.462 -9727.093 3791.408 C -9745.71 3781.111 -9765.368 3769.74 -9776.202 3748.825 C -9795.885 3710.8 -9773.852 3655.757 -9738.796 3640.532 C -9703.739 3625.308 -9663.358 3642.857 -9636.221 3673.535 C -9588.19 3727.842 -9580.514 3833.472 -9631.753 3883.367 C -9652.598 3903.666 -9679.687 3912.609 -9706.407 3915.648 C -9750.559 3920.663 -9797.868 3909.469 -9831.027 3874.078 C -9864.186 3838.686 -9878.708 3776.016 -9857.013 3729.539 C -9892.926 3745.485 -9925.963 3773.241 -9946.721 3811.913 C -9967.479 3850.585 -9974.752 3900.685 -9961.581 3943.902 C -9956.342 3961.097 -9937.749 3978.484 -9928.194 3964.215 C -9925.294 3959.905 -9924.706 3954.051 -9924.302 3948.526 C -9916.626 3843.84 -9901.559 3763.227 -9940.999 3668.574 C -9885.097 3591.497 -9757.84 3591.533 -9775.459 3741.386 C -9793.078 3891.239 -9747.718 3862.823 -9737.314 3924.616 C -9734.363 3942.208 -9731.157 3960.111 -9723.665 3975.629 C -9715.355 3992.795 -9702.391 4005.857 -9689.686 4018.55 C -9657.604 4050.601 -9625.521 4082.659 -9593.44 4114.721 C -9587.479 4120.672 -9580.074 4127.019 -9572.668 4124.252 C -9567.086 4122.178 -9563.696 4115.596 -9560.783 4109.499 C -9524.649 4033.671 -9488.516 3957.838 -9452.383 3882 C -9438.942 3853.802 -9425.16 3824.221 -9423.899 3791.756 C -9422.419 3753.6 -9438.391 3717.972 -9453.913 3684.634 C -9504.616 3738.909 -9567.183 3776.144 -9634.857 3792.321" fill="none" stroke-linecap="round" stroke-linejoin="round" style="stroke: rgb(53, 63, 79); stroke-width: 6px;"/>
    <g id="Group_840" data-name="Group 840" transform="matrix(1.570383, 0, 0, 1.762897, -11265.592773, 719.196899)" style="">
      <path id="Path_1178" data-name="Path 1178" d="M 1047.498 2034.648 C 1055.084 2034.498 1061.08 2029.829 1060.888 2024.221 C 1060.697 2018.612 1054.394 2014.188 1046.807 2014.338 C 1039.22 2014.488 1033.226 2019.156 1033.417 2024.765 C 1033.607 2030.373 1039.911 2034.798 1047.498 2034.648 Z" style="fill: rgba(85, 117, 145, 0); stroke: rgb(77, 92, 112); stroke-dasharray: 8px; stroke-width: 1.80003px;" transform="matrix(-0.262773, -0.859492, 1.08314, -0.262773, -870.493569, 3456.494401)"/>
      <path id="Path_517" data-name="Path 517" d="M 893.031 1566.373 C 960.616 1555.496 1027.465 1537.467 1089.023 1555.235 C 1343.011 1628.538 1052.764 1968.282 973.438 1960.476 C 727.876 1936.313 735.079 1567.543 914.647 1562.917" style="fill: rgba(85, 117, 145, 0); stroke: rgb(85, 117, 145); stroke-width: 8px;" transform="matrix(-0.97701, -0.189912, 0.239329, -0.97701, 1532.607225, 3655.579373)"/>
      <g id="Group_906" data-name="Group 906" transform="matrix(1.272933, 0, 0, 1.212726, -584.559265, 1616.419189)" style="">
        <g id="Group_316" data-name="Group 316" transform="translate(1249.642 346.891)">
          <g id="Group_895" data-name="Group 895" transform="translate(0)">
            <g id="Group_894" data-name="Group 894">
              <path id="Path_578" data-name="Path 578" d="M45.688,52.205C30.919,34.178,22.4,21.526,13.613.457A62.451,62.451,0,0,1,.333,10.218" transform="matrix(-0.839, -0.545, 0.545, -0.839, 93.266, 253.205)" fill="none" stroke-linecap="round" stroke-linejoin="round" style="stroke: rgb(77, 92, 112); stroke-width: 4.01749px;"/>
              <path id="Path_579" data-name="Path 579" d="M-2.165,70.239C8.879,45.929,17.616,31.259,35.053,13.819A105.386,105.386,0,0,1,17.7-.566" fill="none" stroke-linecap="round" stroke-linejoin="round" style="stroke: rgb(77, 92, 112); stroke-width: 4.01918px;" transform="translate(85.974 242.874) rotate(150)"/>
              <path id="Path_580" data-name="Path 580" d="M762.419-260.176c-15.234,5.184-26.481,19.024-35.3,33.347a230.208,230.208,0,0,0-31.874,90.422c-.809,6.2-1.362,12.617.233,18.639,2.021,7.641,7.3,13.828,13.133,18.707,11.07,9.264,24.478,14.776,38.058,18.559a77.71,77.71,0,0,0,35.251,1.521c11.75-2.191,21.326-6.594,26.991-17.878,3.353-6.678-9.849-35.556-5.045-46.17,11.1-24.81,21.695-38.705,19.052-58.508s-11.726-39.6-27.769-49.728c-5.107-3.227-10.893-9.475-16.813-9.708-12.854-.507-6.681-.628-15.914.8" transform="translate(-694.453 261.322)" fill="none" stroke-miterlimit="10" stroke-width="4" style="stroke: rgb(77, 92, 112);"/>
              <path id="Path_584" data-name="Path 584" d="M 42.011 -23.128 C 46.543 -26.159 63.883 -7.877 65.271 -5.589 C 71.381 4.482 72.127 22.694 71.888 35.405" transform="translate(66.639 161.296) rotate(-148)" fill="none" stroke-linecap="round" stroke-linejoin="round" style="stroke: rgb(77, 92, 112); stroke-width: 4.01932px;"/>
              <path id="Path_1339" data-name="Path 1339" d="M 140.382 100.286 C 148.057 98.993 123.18 141.172 108.976 148.314" fill="none" stroke-linecap="round" stroke-linejoin="round" style="stroke: rgb(77, 92, 112); stroke-width: 4.01717px;" transform="matrix(0.809794, -0.546049, 0.630409, 0.809794, -55.085052, 90.392421)"/>
            </g>
          </g>
        </g>
        <g id="Group_319" data-name="Group 319" transform="translate(1328.009 393.812)">
          <g id="Group_317" data-name="Group 317" transform="translate(26.88 0)">
            <path id="Path_586" data-name="Path 586" d="M56.932,55.73a19.048,19.048,0,0,0,6.452.3" transform="translate(-56.336 -48.876)" fill="none" stroke-linecap="round" stroke-linejoin="round" stroke-width="3" style="stroke: rgb(77, 92, 112);"/>
          </g>
          <g id="Group_318" data-name="Group 318" transform="translate(0 0)">
            <path id="Path_588" data-name="Path 588" d="M 47.741 55.73 C 45.623 56.197 41.694 55.251 39.609 56.217" transform="translate(-39.514 -48.876)" fill="none" stroke-linecap="round" stroke-linejoin="round" stroke-width="3" style="stroke: rgb(77, 92, 112);"/>
          </g>
          <path id="Path_589" data-name="Path 589" d="M 65.629 65.461 C 65.629 65.461 51.722 62.894 40.793 63.591" transform="translate(-38.812 -37.164)" fill="none" stroke-linecap="round" stroke-linejoin="round" stroke-width="3" style="stroke: rgb(77, 92, 112);"/>
        </g>
        <g id="Group_1541" data-name="Group 1541" transform="matrix(0.59525, 0, 0, 0.553993, 969.968129, -273.542064)">
          <g id="Group_1539" data-name="Group 1539" transform="matrix(0.99863, -0.052336, 0.052336, 0.99863, 772.2771, 1226.254272)">
            <path id="Exclusion_2" data-name="Exclusion 2" d="M -121.104 -0.097 L -121.149 -0.097 C -122.614 -0.003 -124.047 -0.603 -125.106 -1.752 C -126.087 -3.033 -126.58 -4.7 -126.475 -6.391 C -126.5 -8.09 -125.948 -9.735 -124.933 -10.988 C -123.915 -12.168 -122.512 -12.821 -121.055 -12.797 L -121.042 -12.797 C -119.455 -12.796 -117.951 -11.991 -116.943 -10.605 C -117.401 -11.041 -117.985 -11.271 -118.583 -11.247 L -118.624 -11.247 C -120.39 -11.356 -121.598 -9.264 -120.8 -7.481 C -120.691 -7.238 -120.55 -7.015 -120.379 -6.823 C -119.894 -6.277 -119.238 -5.971 -118.553 -5.972 L -118.45 -5.972 C -117.173 -5.985 -116.169 -7.208 -116.251 -8.65 C -116.241 -9.03 -116.299 -9.408 -116.421 -9.762 C -115.884 -8.71 -115.606 -7.513 -115.62 -6.298 C -115.573 -4.627 -116.119 -3.003 -117.136 -1.789 C -118.203 -0.643 -119.634 -0.032 -121.104 -0.097 Z M -116.431 -9.779 C -116.582 -10.069 -116.752 -10.345 -116.943 -10.605 C -116.719 -10.376 -116.543 -10.095 -116.428 -9.78 Z" style="fill: rgb(77, 92, 112);"/>
            <path id="path-4" data-name="Exclusion 2" d="M -121.104 -0.097 L -121.149 -0.097 C -122.614 -0.003 -124.047 -0.603 -125.106 -1.752 C -126.087 -3.033 -126.58 -4.7 -126.475 -6.391 C -126.5 -8.09 -125.948 -9.735 -124.933 -10.988 C -123.915 -12.168 -122.512 -12.821 -121.055 -12.797 L -121.042 -12.797 C -119.455 -12.796 -117.951 -11.991 -116.943 -10.605 C -117.401 -11.041 -117.985 -11.271 -118.583 -11.247 L -118.624 -11.247 C -120.39 -11.356 -121.598 -9.264 -120.8 -7.481 C -120.691 -7.238 -120.55 -7.015 -120.379 -6.823 C -119.894 -6.277 -119.238 -5.971 -118.553 -5.972 L -118.45 -5.972 C -117.173 -5.985 -116.169 -7.208 -116.251 -8.65 C -116.241 -9.03 -116.299 -9.408 -116.421 -9.762 C -115.884 -8.71 -115.606 -7.513 -115.62 -6.298 C -115.573 -4.627 -116.119 -3.003 -117.136 -1.789 C -118.203 -0.643 -119.634 -0.032 -121.104 -0.097 Z M -116.431 -9.779 C -116.582 -10.069 -116.752 -10.345 -116.943 -10.605 C -116.719 -10.376 -116.543 -10.095 -116.428 -9.78 Z" style="fill: rgb(77, 92, 112);" transform="matrix(1, 0, 0, 1, -37.516334, -3.702854)"/>
          </g>
        </g>
      </g>
      <path id="path-2" data-name="Path 1178" d="M 1007.688 2030.312 C 1015.274 2030.162 1021.27 2025.493 1021.078 2019.885 C 1020.887 2014.276 1014.584 2009.852 1006.997 2010.002 C 999.41 2010.152 993.416 2014.82 993.607 2020.429 C 993.797 2026.037 1000.101 2030.462 1007.688 2030.312 Z" style="fill: rgba(85, 117, 145, 0); stroke: rgb(77, 92, 112); stroke-dasharray: 8px; stroke-width: 1.80003px;" transform="matrix(-0.262773, -0.859492, 1.08314, -0.262773, -916.068065, 3416.802641)"/>
      <path id="path-3" data-name="Path 1178" d="M 989.442 1996.051 C 997.028 1995.901 1003.024 1991.232 1002.832 1985.624 C 1002.641 1980.015 996.338 1975.591 988.751 1975.741 C 981.164 1975.891 975.17 1980.559 975.361 1986.168 C 975.551 1991.776 981.855 1996.201 989.442 1996.051 Z" style="fill: rgba(85, 117, 145, 0); stroke: rgb(77, 92, 112); stroke-dasharray: 8px; stroke-width: 1.80003px;" transform="matrix(-0.262773, -0.859492, 1.08314, -0.262773, -901.999215, 3357.856471)"/>
    </g>
    <g id="Group_656" data-name="Group 656" transform="matrix(0.463966, -0.024315, 0.0259, 0.494203, -9905.03125, 3667.9104)" style=""/>
  </g>
  <path id="Path_1226" data-name="Path 1226" d="M 2101.98 472.756 L 2283.354 472.756 C 2283.354 472.756 2421.981 477.542 2422.743 444.335 C 2423.504 411.129 2394.272 413.34 2371.531 400.421 C 2348.789 387.502 2365.154 371.304 2345.38 348.073 C 2325.607 324.843 2307.076 321.394 2271.056 340.508 C 2235.035 359.622 2212.129 269.045 2154.467 279.184 C 2096.806 289.324 2089.62 320.543 2087.162 362.298 C 2084.704 404.054 2041.834 396.247 2046.904 431.547 C 2051.975 466.846 2101.98 472.756 2101.98 472.756 Z" style="fill: rgb(53, 63, 79);"/>
  <path id="path-1" data-name="Path 1226" d="M 1660.145 -42.89 C 1609.841 -26.495 1536.184 50.904 1637.858 45.99 C 1670.605 44.407 1700.786 51.222 1765.74 46.292 C 1782.978 26.65 1806.192 5.698 1823.084 -4.997 C 1886.077 -44.882 2038.4 -16.481 2039.001 -40.721 C 2039.825 -73.926 2010.53 -71.716 1987.789 -84.635 C 1965.047 -97.554 1981.412 -113.752 1961.638 -136.983 C 1941.865 -160.213 1955.215 -209.749 1909.715 -211.757 C 1864.215 -213.765 1838.837 -75.575 1770.725 -146.422 C 1747.353 -170.733 1695.621 -126.851 1716.848 -95.887 C 1732.816 -72.595 1703.927 -57.16 1660.145 -42.89 Z" style="fill: rgb(53, 63, 79);"/>
</svg>