<?xml version="1.0" encoding="utf-8"?>
<svg viewBox="405.604 341.751 402.435 123.34" xmlns="http://www.w3.org/2000/svg">
  <g id="g-1" data-name="Group 1500" transform="matrix(1, 0, 0, 1, 17537.876953, 21250.195313)">
    <g id="g-2" data-name="Group 1415" transform="translate(-17292 -20814.533)">
      <g transform="matrix(1, 0, 0, 1, 103.90065, -73.709541)">
        <rect id="rect-1" data-name="Rectangle 332" width="367.873" height="70" rx="35" fill="#fff" style="" x="67.28"/>
        <text style="fill: rgb(231, 158, 23); font-family: Arial, sans-serif; font-size: 43px; font-weight: 700; white-space: pre;" x="110.428" y="49.454">Hver Dag</text>
        <g transform="matrix(1.182523, 0, 0, 1.199033, -378.093903, -552.236816)" style="">
          <path id="Path_442" data-name="Path 442" d="M 648.9 473.519 L 648.9 473.519 C 661 473.519 670.81 482.59 670.81 493.78 C 670.81 504.97 667.085 510.434 646.07 514.04 L 646.07 514.04 C 633.969 514.04 631.36 490.152 631.36 490.152 C 631.36 490.152 636.799 473.519 648.9 473.519 Z" fill="#e79e17" transform="matrix(0.857167, 0.515038, -0.515038, 0.857167, 347.311419, -264.805683)"/>
          <rect id="Rectangle_157" data-name="Rectangle 157" width="23.836" height="3.666" rx="1.833" transform="matrix(0.798679, 0.601758, -0.601758, 0.798679, 615.01886, 461.42749)" fill="#e79e17"/>
          <rect id="Rectangle_160" data-name="Rectangle 160" width="26.891" height="4.889" rx="2.444" transform="matrix(0.798679, 0.601758, -0.601758, 0.798679, 669.39386, 507.240479)" fill="#e79e17"/>
          <rect id="Rectangle_161" data-name="Rectangle 161" width="21.385" height="3.665" rx="1.833" transform="matrix(0.258969, 0.965886, -0.965886, 0.258969, 658.030823, 516.811523)" fill="#e79e17"/>
          <rect id="Rectangle_162" data-name="Rectangle 162" width="21.375" height="3.664" rx="1.833" transform="matrix(-0.225079, 0.974341, -0.974341, -0.225079, 666.272827, 451.629395)" fill="#e79e17"/>
          <rect id="Rectangle_158" data-name="Rectangle 158" width="26.883" height="3.665" rx="1.833" transform="matrix(0.818903, -0.573932, 0.573932, 0.818903, 609.102844, 524.2854)" fill="#e79e17"/>
          <rect id="Rectangle_159" data-name="Rectangle 159" width="26.272" height="3.665" rx="1.833" transform="matrix(0.818903, -0.573932, 0.573932, 0.818903, 669.017822, 481.369385)" fill="#e79e17"/>
        </g>
      </g>
      <g transform="matrix(1, 0, 0, 1, 141.37674, -86.024422)">
        <g transform="matrix(1.050155, 0, 0, 1, -274.025757, -487.41098)" style="">
          <g id="g-9" data-name="Group 1500" transform="matrix(0.759917, 0, 0, 1, 14007.128906, 21295.875)" style="">
            <g id="g-10" data-name="Group 1415" transform="matrix(1.126754, 0, 0, 1, -17347.15625, -20814.533203)" style="">
              <rect id="rect-2" data-name="Rectangle 332" width="435.153" height="70" rx="35" fill="#fff"/>
            </g>
          </g>
          <g id="Group_688" data-name="Group 688" transform="matrix(1, 0, 0, 1, 618.80304, -1313.874878)">
            <path id="Path_468" data-name="Path 468" d="M910.077,548.47a127.8,127.8,0,0,0-17.1.69,107.368,107.368,0,0,0-16.352,3.336c-2.151.615-4.485,1.474-4.668,2.75-.114.8.671,1.546,1.5,2.218A13.691,13.691,0,0,0,877.926,560c3.333,1.095,7.57.975,11.5.811,9.868-.411,19.751-.864,29.472-1.841a81.8,81.8,0,0,0,10.293-1.541c1.775-.415,3.637-1.045,4.02-2.039.55-1.427-2-2.674-4.127-3.317-4.259-1.287-5.216-1.79-9.953-2.368a104.769,104.769,0,0,0-10.9-1.257" transform="translate(-400.722 1301.039)" fill="#076572"/>
            <path id="Path_469" data-name="Path 469" d="M907.154,548.475a86.4,86.4,0,0,0-15.787.872,76.3,76.3,0,0,0-15.1,4.22c-1.986.778-4.142,1.865-4.31,3.478a3.988,3.988,0,0,0,1.383,2.806c1.108,1.233,3.99,2.343,5.726,3.124,3.077,1.385,5.39,1.321,9.016,1.114,9.112-.52,18.237-1.093,27.212-2.328a56.773,56.773,0,0,0,9.5-1.95c1.639-.524,3.359-1.321,3.712-2.579.508-1.805-1.846-3.382-3.811-4.2-3.932-1.628-4.816-2.264-9.19-3a71.967,71.967,0,0,0-10.069-1.59" transform="translate(-384.471 1284.602)" fill="#009cb2"/>
            <path id="Path_470" data-name="Path 470" d="M38.129.021a118.744,118.744,0,0,0-17.1.742A100.687,100.687,0,0,0,4.679,4.356C2.528,5.018.193,5.943.011,7.317c-.114.857.671,1.665,1.5,2.388A13.484,13.484,0,0,0,5.977,12.44c3.333,1.179,7.571,1.05,11.5.874,9.868-.443,19.751-.93,29.472-1.982a76.365,76.365,0,0,0,10.292-1.66c1.775-.446,3.637-1.125,4.02-2.2.55-1.537-2-2.879-4.127-3.572-4.259-1.386-5.216-1.927-9.953-2.55A97.621,97.621,0,0,0,36.275,0" transform="translate(569.985 1833.688) rotate(180)" fill="#7ec8d6"/>
            <path id="Path_471" data-name="Path 471" d="M38.129.021a118.744,118.744,0,0,0-17.1.742A100.687,100.687,0,0,0,4.679,4.356C2.528,5.018.193,5.943.011,7.317c-.114.857.671,1.665,1.5,2.388A13.484,13.484,0,0,0,5.977,12.44c3.333,1.179,7.571,1.05,11.5.874,9.868-.443,19.751-.93,29.472-1.982a76.365,76.365,0,0,0,10.292-1.66c1.775-.446,3.637-1.125,4.02-2.2.55-1.537-2-2.879-4.127-3.572-4.259-1.386-5.216-1.927-9.953-2.55A97.621,97.621,0,0,0,36.275,0" transform="translate(593.991 1820.722) rotate(180)" fill="rgba(50,63,81,0.14)"/>
            <path id="Path_472" data-name="Path 472" d="M38.124.021a118.744,118.744,0,0,0-17.1.742A100.687,100.687,0,0,0,4.675,4.356C2.524,5.018.189,5.943.007,7.317c-.114.857,1.208,3.577,2.035,4.3,1.2,1.05,2.051.158,3.931.823,3.333,1.179,9.4.061,13.331-.115,9.868-.443,17.917.059,27.638-.993a76.365,76.365,0,0,0,10.292-1.66c1.775-.446,3.637-1.125,4.02-2.2.55-1.537-2-2.879-4.127-3.572-4.259-1.386-5.216-1.927-9.953-2.55A97.621,97.621,0,0,0,36.271,0" transform="matrix(0.998, 0.07, -0.07, 0.998, 548.819, 1787)" fill="rgba(50,63,81,0.14)"/>
          </g>
        </g>
        <text style="fill: rgb(0, 156, 178); font-family: Arial, sans-serif; font-size: 43px; font-weight: 700; white-space: pre;" x="620.722" y="44.199">Måltrappen</text>
      </g>
      <g transform="matrix(1, 0, 0, 1, 89.127327, -95.704948)">
        <g id="g-3" data-name="Group 1501" transform="matrix(1, 0, 0, 1, 17353.904297, 20787.269531)">
          <rect id="rect-3" data-name="Rectangle 529" width="334.034" height="70" rx="35" fill="#fff" style="" x="-17330.033" y="-20926.396"/>
          <g id="g-4" data-name="Group 1493" transform="translate(-17207.449 -20154.51) rotate(166)">
            <g id="g-5" data-name="Group 1490" transform="translate(-389.625 661.836)">
              <g id="g-6" data-name="Group 1479" transform="translate(0.682 0.684)">
                <path id="path-2" data-name="Path 1941" d="M-322.933,1336.565l-50.705,26.477a4.557,4.557,0,0,1-6.15-1.93l-2.954-5.656a4.557,4.557,0,0,1,1.931-6.15l50.705-26.477.515-.081,15.315-2.393,4.433-.693a1.242,1.242,0,0,1,1.089,2.085l-3.1,3.242-10.716,11.2Z" transform="translate(383.26 -1319.645)" fill="#ffbe06"/>
              </g>
              <g id="g-7" data-name="Group 1480" transform="translate(0.682 27.759)">
                <path id="path-3" data-name="Path 1942" d="M-368.689,2000.382l-4.949,2.584a4.557,4.557,0,0,1-6.15-1.93l-2.954-5.656a4.557,4.557,0,0,1,1.931-6.15l4.949-2.584Z" transform="translate(383.26 -1986.645)" fill="#323f51"/>
              </g>
              <g id="g-8" data-name="Group 1481" transform="translate(7.931 25.342)">
                <rect id="rect-4" data-name="Rectangle 528" width="4.9" height="15.497" transform="translate(0.149 2.417) rotate(-27.573)" fill="#d7dcf0"/>
                <path id="path-4" data-name="Path 1943" d="M-197.391,1943.405l-.051-.1-7.224-13.835,4.539-2.37.051.1,7.224,13.835Zm-6.977-13.839,7.071,13.541,4.147-2.166-7.071-13.541Z" transform="translate(204.666 -1927.102)" fill="#390075"/>
              </g>
              <g id="g-11" data-name="Group 1482" transform="translate(52.865 0.574)">
                <path id="path-5" data-name="Path 1944" d="M913.4,1336.188c-1.181-1.327-3.323.1-4.432-1.591-1.1-1.77,1.273-3.141.359-4.836-.869-1.719-3.348-.558-4.174-2.469-.754-1.877,1.642-2.819,1.228-4.546l15.315-2.393,4.433-.693a1.242,1.242,0,0,1,1.089,2.085l-3.1,3.242Z" transform="translate(-904.89 -1319.535)" fill="#ffdc9c"/>
                <path id="path-6" data-name="Path 1945" d="M910.768,1333.752l-.08-.089a2.507,2.507,0,0,0-2.011-.619,2.263,2.263,0,0,1-2.3-3.607,2.371,2.371,0,0,0,.221-2.222c-.4-.787-1.152-.935-1.951-1.091a2.264,2.264,0,0,1-1.647-3.948,2.507,2.507,0,0,0,.642-2l-.028-.117,19.867-3.1a1.352,1.352,0,0,1,1.186,2.27Zm-6.884-13.514a2.823,2.823,0,0,1-.7,2.06,2.364,2.364,0,0,0-.56,2.354c.4.929,1.21,1.087,2.065,1.254a2.248,2.248,0,0,1,1.89,3.62,2.362,2.362,0,0,0-.15,2.414c.555.847,1.379.864,2.25.883a2.822,2.822,0,0,1,2.089.605l13.738-14.358a1.132,1.132,0,0,0-.992-1.9Z" transform="translate(-902.265 -1316.936)" fill="#390075"/>
              </g>
              <g id="g-12" data-name="Group 1483" transform="translate(2.256 1.744)" opacity="0.3">
                <path id="path-7" data-name="Path 1946" d="M-285.735,1361.627-336.44,1388.1a4.558,4.558,0,0,1-6.15-1.93l-1.9-3.636a4.557,4.557,0,0,0,6.15,1.93l50.243-26.235a3.187,3.187,0,0,0,.824-.618h0l16.05-11.847a1.208,1.208,0,0,1-.333,1.041l-3.1,3.242-10.716,11.2Z" transform="translate(344.489 -1345.768)" fill="#323f51"/>
              </g>
              <g id="g-13" data-name="Group 1484" transform="translate(0.682 0.683)" opacity="0.55">
                <path id="path-8" data-name="Path 1947" d="M-308.476,1321.3a1.261,1.261,0,0,0-.522-.025l-4.433.693-15.315,2.393-.515.082-50.705,26.477a4.556,4.556,0,0,0-1.93,6.15l-.844-1.616a4.557,4.557,0,0,1,1.931-6.15l50.705-26.477.515-.081,15.315-2.393,4.433-.693A1.247,1.247,0,0,1-308.476,1321.3Z" transform="translate(383.26 -1319.644)" fill="#fff"/>
              </g>
              <g id="g-14" data-name="Group 1485" transform="translate(0 0)">
                <path id="path-9" data-name="Path 1948" d="M-391.85,1348.087a5.247,5.247,0,0,1-4.655-2.815l-2.954-5.656a5.248,5.248,0,0,1,2.22-7.073l50.705-26.477a.684.684,0,0,1,.211-.069l20.264-3.167a1.9,1.9,0,0,1,2,1.012,1.9,1.9,0,0,1-.315,2.221l-14.18,14.819a.689.689,0,0,1-.177.133l-50.705,26.477A5.212,5.212,0,0,1-391.85,1348.087Zm45.85-40.756-50.605,26.425a3.879,3.879,0,0,0-1.641,5.227l2.954,5.656a3.878,3.878,0,0,0,5.227,1.641l50.605-26.425,14.1-14.738a.541.541,0,0,0,.091-.643.545.545,0,0,0-.58-.294Zm6.956,13.079h0Z" transform="translate(400.053 -1302.806)" fill="#323f51"/>
              </g>
              <g id="g-15" data-name="Group 1486" transform="translate(52.292 3.101)">
                <path id="path-10" data-name="Path 1949" d="M897.235,1394.013a.682.682,0,0,1-.511-.229c-.339-.38-.827-.41-1.595-.426a2.813,2.813,0,0,1-2.81-4.411c.335-.761.512-1.216.241-1.719-.266-.526-.74-.641-1.557-.8a2.813,2.813,0,0,1-2.014-4.827c.426-.64.68-1.057.562-1.553a.684.684,0,1,1,1.33-.318,3.24,3.24,0,0,1-.753,2.628c-.493.741-.759,1.191-.506,1.823.263.607.77.734,1.644.905a2.8,2.8,0,0,1,2.3,4.413c-.359.815-.545,1.3-.187,1.881.364.554.885.593,1.775.612a3.241,3.241,0,0,1,2.587.884.684.684,0,0,1-.51,1.138Z" transform="translate(-888.156 -1379.204)" fill="#323f51"/>
              </g>
              <g id="g-16" data-name="Group 1487" transform="translate(69.667 0.684)">
                <path id="path-11" data-name="Path 1950" d="M1318.6,1324.988a6.056,6.056,0,0,1-2.42-4.634l4.433-.693a1.242,1.242,0,0,1,1.089,2.085Z" transform="translate(-1316.178 -1319.645)" fill="#323f51"/>
              </g>
              <g id="g-17" data-name="Group 1488" transform="translate(7.397 24.807)">
                <path id="path-12" data-name="Path 1951" d="M-209.977,1931.3a.69.69,0,0,1-.2-.031.686.686,0,0,1-.4-.336l-7.173-13.737a.684.684,0,0,1-.046-.521.684.684,0,0,1,.336-.4l4.343-2.268a.684.684,0,0,1,.922.289l7.173,13.737a.684.684,0,0,1-.29.923l-4.343,2.268A.686.686,0,0,1-209.977,1931.3Zm-6.251-14.131,6.54,12.525,3.131-1.635-6.54-12.525Z" transform="translate(217.834 -1913.927)" fill="#323f51"/>
              </g>
              <g id="g-18" data-name="Group 1489" transform="translate(68.983 0.709)">
                <path id="path-13" data-name="Path 1952" d="M1302.439,1326.265a.68.68,0,0,1-.421-.145,6.745,6.745,0,0,1-2.681-5.134.684.684,0,1,1,1.365-.076,5.361,5.361,0,0,0,2.158,4.133.684.684,0,0,1-.422,1.222Z" transform="translate(-1299.336 -1320.264)" fill="#323f51"/>
              </g>
            </g>
          </g>
        </g>
        <text style="fill: rgb(50, 63, 81); font-family: Arial, sans-serif; font-size: 43px; font-weight: 700; white-space: pre;" x="62.651" y="-87.795">Notesbog</text>
      </g>
      <g transform="matrix(1, 0, 0, 1, 489.680481, -266.031158)">
        <rect id="rect-5" data-name="Rectangle 332" width="492.153" height="70" rx="35" fill="#fff" style="" x="67.28"/>
        <text style="fill: rgb(209, 200, 164); font-family: Arial, sans-serif; font-size: 43px; font-weight: 700; white-space: pre;" x="99.457" y="49.454">Symptomskema </text>
      </g>
    </g>
  </g>
  <g id="Group_1500" data-name="Group 1500" transform="matrix(1.103866, 0, 0, 1.074161, 19677.292969, 22321.498047)" style="">
    <g id="Group_1415" data-name="Group 1415" transform="matrix(1, 0, 0, 1, -17288.587891, -20818.632812)"/>
    <g id="Group_1492" data-name="Group 1492" transform="matrix(1, 0, 0, 1, -16237.775391, -1768.176147)">
      <g id="Group_1463" data-name="Group 1463" transform="matrix(0.985, 0.174, -0.174, 0.985, -492.71, -18886.918)">
        <path id="Path_1896" data-name="Path 1896" d="M997.115,271.768a4.679,4.679,0,0,1-4.606,4.376H936.2a4.122,4.122,0,0,1-4.146-4.376l4.163-79.351a4.68,4.68,0,0,1,4.606-4.376h56.3a4.122,4.122,0,0,1,4.147,4.376Z" transform="translate(-932.052 -175.205)" fill="#d1c8a4"/>
        <g id="Group_1459" data-name="Group 1459" transform="translate(14.921 76.953)">
          <path id="Path_1897" data-name="Path 1897" d="M1002.581,490.868c.117,0,.22-.128.053-.128-.117,0-.22.128-.053.128Z" transform="translate(-1002.494 -490.74)" fill="#efa734"/>
        </g>
        <g id="Group_1460" data-name="Group 1460" transform="translate(0.203 12.836)">
          <path id="Path_1898" data-name="Path 1898" d="M982.39,208.066c-5.96-.423-11.876-1.161-17.78-1.937-4.15-.545-8.349-.855-12.493-1.433-.023.092-.043.186-.06.28,2.53.349,5.079.6,7.629.83,4.622.424,9.2,1.187,13.811,1.7a195.979,195.979,0,0,0,27.892,1.146c5.183-.158,10.368-.507,15.547-1.009l.013-.242A205.9,205.9,0,0,1,982.39,208.066Z" transform="translate(-948.023 -201.169)" fill="#d99543"/>
          <path id="Path_1899" data-name="Path 1899" d="M1031.221,192.289c4.573.352,9.169.526,13.779.426a118.557,118.557,0,0,0,12.231-.963c-.009-.086-.021-.17-.035-.254-3.456.434-6.92.759-10.4.895a131.255,131.255,0,0,1-14.208-.286c-4.711-.327-9.378-1.006-14.033-1.681-4.7-.681-9.4-1.417-14.035-2.386h-1.461c4.662,1.015,9.395,1.781,14.134,2.485C1021.844,191.217,1026.517,191.926,1031.221,192.289Z" transform="translate(-988.224 -188.041)" fill="#d99543"/>
          <path id="Path_1900" data-name="Path 1900" d="M949.389,245.142l-.015.284a176.173,176.173,0,0,1,22.163-1.807c9.41-.249,18.833-.213,28.2.217,4.921.226,9.833.584,14.719,1.1l.015-.289a290.535,290.535,0,0,0-29.288-1.44C973.282,243.17,961.267,243.31,949.389,245.142Z" transform="translate(-945.908 -231.518)" fill="#d99543"/>
          <path id="Path_1901" data-name="Path 1901" d="M978.675,260.875c-10.56.38-21.271,1.972-31.251,6.027l-.015.279c15.75-6.485,33.184-6.727,49.606-5.85a156.785,156.785,0,0,1,15.675,1.585l.014-.27q-3.653-.561-7.341-.935A194.644,194.644,0,0,0,978.675,260.875Z" transform="translate(-944.36 -245.343)" fill="#d99543"/>
          <path id="Path_1902" data-name="Path 1902" d="M969.03,319.246q-11.554-.411-23.143-.254l-.014.271q2.666-.045,5.334-.051c9.681-.031,19.332.334,28.988.654,3.836.127,7.669.292,11.491.563,3.8.269,7.568.739,11.327,1.263q3.875.54,7.728,1.194l.015-.294q-6.534-1.095-13.13-1.884C988.177,319.592,978.567,319.585,969.03,319.246Z" transform="translate(-943.149 -291.22)" fill="#d99543"/>
          <path id="Path_1903" data-name="Path 1903" d="M1046.681,274.607a4.563,4.563,0,0,0-2.2.961c-.592.638.9,1.289,1.233,1.466a15.41,15.41,0,0,0,4.644,1.37c2.032.344,4.085.621,6.147.8,2.3.2,4.61.3,6.908.5,2.346.209,4.676.554,7.01.838q7.032.854,14.081,1.608,2.038.218,4.079.427l.016-.311q-7-.721-13.982-1.54c-4.659-.546-9.3-1.228-13.993-1.537-2.311-.152-4.623-.292-6.911-.6a41.024,41.024,0,0,1-5.473-.989,10.687,10.687,0,0,1-2.391-.961c-.236-.133-1.05-.509-.931-.9.2-.647,1.945-.888,2.463-1.01a40.412,40.412,0,0,1,8.668-.957c9.663-.17,19.212,1.394,28.561,3.234q2.114.416,4.219.865l.019-.356a184.025,184.025,0,0,0-20.816-3.45C1061.037,273.379,1053.688,272.815,1046.681,274.607Z" transform="translate(-1020.76 -255.324)" fill="#d99543"/>
          <path id="Path_1904" data-name="Path 1904" d="M955.126,335.9c-3.36-.253-6.735-.241-10.114-.2l-.015.284a79.118,79.118,0,0,1,8.4.129c4.7.391,9.429.619,14.158.792,9.705.355,19.406.682,29.1,1.2q6.63.351,13.254.749l.018-.344c-12.719-.753-25.448-1.415-38.2-1.8C966.178,336.536,960.641,336.314,955.126,335.9Z" transform="translate(-942.458 -304.405)" fill="#d99543"/>
          <path id="Path_1905" data-name="Path 1905" d="M991.1,365.664c-4.8-.294-9.585-.724-14.36-1.2-4.685-.467-9.378-.868-14.05-1.425-6.376-.761-12.719-1.737-18.976-3.049l-.022.416c6.985,1.447,14.072,2.482,21.2,3.279,4.694.526,9.408.936,14.114,1.387,4.776.457,9.563.844,14.366,1.094,5.008.261,10.036.357,15.069.213l.019-.362C1002.658,366.177,996.866,366.017,991.1,365.664Z" transform="translate(-941.431 -323.568)" fill="#d99543"/>
          <path id="Path_1906" data-name="Path 1906" d="M989.4,388.73c-9.427-.643-18.743-2.054-28.057-3.374-4.518-.641-9.01-1.423-13.438-2.447-1.8-.416-3.56-.91-5.312-1.438l-.02.382c1.716.51,3.444.989,5.2,1.4,4.47,1.034,9.011,1.8,13.572,2.451,9.317,1.321,18.634,2.71,28.063,3.354,4.7.32,9.388.555,14.115.516q1.852-.015,3.7-.068l.017-.312q-1.652.045-3.3.066C999.074,389.311,994.239,389.06,989.4,388.73Z" transform="translate(-940.55 -340.499)" fill="#d99543"/>
          <path id="Path_1907" data-name="Path 1907" d="M967.17,435.262a137.61,137.61,0,0,0-21.115,4.239c-2.844.823-5.582,1.868-8.332,2.954l-.018.341,1.5-.6a88.655,88.655,0,0,1,13.1-3.965,161.673,161.673,0,0,1,27.729-3.773,208.055,208.055,0,0,1,23.156.105l.019-.354A198.574,198.574,0,0,0,967.17,435.262Z" transform="translate(-936.711 -381.777)" fill="#d99543"/>
          <path id="Path_1908" data-name="Path 1908" d="M954.414,409.308c1.811-.578,3.773-.828,5.431-1.84.14-.086.026-.175-.075-.2a8.257,8.257,0,0,0-2.267-.009,12.352,12.352,0,0,1-2.714-.218c-1.7-.263-3.408-.527-5.1-.827A68.245,68.245,0,0,1,939.56,403.6l-.019.355a71.086,71.086,0,0,0,9.634,2.477c1.7.315,3.425.548,5.134.837a20.08,20.08,0,0,0,2.328.258c.858.044,1.718-.136,2.565-.043-1.662.921-3.682,1.175-5.46,1.755-2.063.674-4.131,1.3-6.219,1.879q-4.22,1.174-8.473,2.2l-.014.271q4.479-1.084,8.927-2.315C950.132,410.671,952.268,409.993,954.414,409.308Z" transform="translate(-937.76 -357.943)" fill="#d99543"/>
          <path id="Path_1909" data-name="Path 1909" d="M980.537,466.932a146.24,146.24,0,0,0-27.393,2.9q-3.55.719-7.059,1.669c-2.42.659-4.773,1.509-7.16,2.282-.906.294-1.821.585-2.732.893l-.02.387c.918-.313,1.841-.609,2.756-.9,2.111-.681,4.192-1.441,6.321-2.056,2.266-.654,4.555-1.207,6.853-1.7a143.916,143.916,0,0,1,27.723-3.1,121.907,121.907,0,0,1,14.409.575c2.452.25,4.891.573,7.322.94l.021-.4c-2.331-.348-4.671-.654-7.021-.9A122.085,122.085,0,0,0,980.537,466.932Z" transform="translate(-935.503 -407.85)" fill="#d99543"/>
          <path id="Path_1910" data-name="Path 1910" d="M958.391,506.366a76.459,76.459,0,0,0-23.652,4.99l-.02.382a69.321,69.321,0,0,1,18.512-4.567,158.323,158.323,0,0,1,27.784-.468c6.33.37,12.654.864,18.943,1.56l.019-.358c-4.592-.5-9.2-.9-13.819-1.22A199.335,199.335,0,0,0,958.391,506.366Z" transform="translate(-934.357 -438.661)" fill="#d99543"/>
          <path id="Path_1911" data-name="Path 1911" d="M974.748,544.05c-4.641-.235-9.282-.463-13.948-.352a105.167,105.167,0,0,0-27.776,4.367l-.013.24a103.372,103.372,0,0,1,21.125-4.017c9.394-.8,18.78-.185,28.093.435,5.334.355,10.657.829,15.95,1.472l.013-.251q-4.766-.576-9.56-.98C984.016,544.571,979.385,544.284,974.748,544.05Z" transform="translate(-933.012 -468.341)" fill="#d99543"/>
          <path id="Path_1912" data-name="Path 1912" d="M984.3,589.576q-7.059-.472-14.146-.681c-7-.2-14-.242-21.024.152q-6.668.374-13.32,1.238c.068.093.139.183.214.269,16.492-2.064,33.031-1.745,49.451-.6q5.111.356,10.207.827c.844.077,1.687.165,2.528.261q.155-.117.3-.246l-.053-.007C993.774,590.192,989.024,589.892,984.3,589.576Z" transform="translate(-935.217 -503.87)" fill="#d99543"/>
        </g>
        <path id="Path_1913" data-name="Path 1913" d="M1026.183,219.08H974.959l-4.07,77.58s14.6-1.448,25.688-1.448,25.536,1.448,25.536,1.448Z" transform="translate(-962.663 -199.669)" fill="#e6e7e8" style="mix-blend-mode: multiply;isolation: isolate"/>
        <path id="Path_1914" data-name="Path 1914" d="M1019.1,214.259H967l-4.04,77h52.1Z" transform="translate(-956.413 -195.87)" fill="#f5f5f5"/>
        <path id="Path_1915" data-name="Path 1915" d="M1035.874,188.041l-1.082,1.39-12.054,2.845a2.588,2.588,0,0,0-1.486,1.054l-3.462,5.153c-.639.951-.3,1.889.689,1.889h34.837a2.416,2.416,0,0,0,2.2-1.889l.65-5.153a.9.9,0,0,0-.646-1.054l-9.784-2.845.028-1.39Z" transform="translate(-999.373 -175.205)" fill="#e6e7e8" style="mix-blend-mode: multiply;isolation: isolate"/>
        <g id="Group_1461" data-name="Group 1461" transform="translate(17.88 0)">
          <path id="Path_1916" data-name="Path 1916" d="M1052.118,144.071l-10.77-2.845-.961-2.942a6.634,6.634,0,0,0,2.186-4.694,5.936,5.936,0,0,0-5.573-6.136,6.7,6.7,0,0,0-7.027,6.284,5.961,5.961,0,0,0,1.7,4.546l-1.27,2.942-11.069,2.845a1.607,1.607,0,0,0-1.121,1.053l-1.676,5.153a1.416,1.416,0,0,0,1.344,1.889h34.837a1.583,1.583,0,0,0,1.542-1.889l-1.135-5.153A1.392,1.392,0,0,0,1052.118,144.071Zm-15.628-14.512a1.37,1.37,0,0,1,1.382,1.459,1.555,1.555,0,0,1-1.535,1.459,1.37,1.37,0,0,1-1.382-1.459A1.555,1.555,0,0,1,1036.49,129.559Z" transform="translate(-1016.465 -127.441)" fill="#bcbec0"/>
        </g>
        <g id="Group_1462" data-name="Group 1462" transform="translate(17.465 0)">
          <path id="Path_1917" data-name="Path 1917" d="M1050.158,144.071l-10.77-2.845-.961-2.942a6.633,6.633,0,0,0,2.186-4.694,5.936,5.936,0,0,0-5.573-6.136,6.7,6.7,0,0,0-7.027,6.284,5.961,5.961,0,0,0,1.7,4.546l-1.27,2.942-11.069,2.845a1.607,1.607,0,0,0-1.121,1.053l-1.676,5.153a1.416,1.416,0,0,0,1.344,1.889h34.837a1.584,1.584,0,0,0,1.542-1.889l-1.136-5.153A1.392,1.392,0,0,0,1050.158,144.071Zm-15.628-14.512a1.37,1.37,0,0,1,1.382,1.459,1.555,1.555,0,0,1-1.535,1.459,1.37,1.37,0,0,1-1.382-1.459A1.555,1.555,0,0,1,1034.53,129.559Z" transform="translate(-1014.505 -127.441)" fill="#d1d3d4"/>
        </g>
      </g>
      <line id="Line_118" data-name="Line 118" x2="37.184" transform="matrix(0.985, 0.174, -0.174, 0.985, -481.754, -18850.965)" fill="none" stroke="#353f4f" stroke-linecap="round" stroke-width="3"/>
      <line id="Line_119" data-name="Line 119" x2="37.184" transform="matrix(0.985, 0.174, -0.174, 0.985, -483.16, -18843.127)" fill="none" stroke="#353f4f" stroke-linecap="round" stroke-width="3"/>
      <line id="Line_120" data-name="Line 120" x2="35.564" transform="matrix(0.985, 0.174, -0.174, 0.985, -485.566, -18835.291)" fill="none" stroke="#353f4f" stroke-linecap="round" stroke-width="3"/>
      <line id="Line_121" data-name="Line 121" x2="32.385" transform="matrix(0.985, 0.174, -0.174, 0.985, -487.285, -18827.736)" fill="none" stroke="#353f4f" stroke-linecap="round" stroke-width="3"/>
      <line id="Line_122" data-name="Line 122" x2="37.184" transform="matrix(0.985, 0.174, -0.174, 0.985, -489.648, -18820.734)" fill="none" stroke="#353f4f" stroke-linecap="round" stroke-width="3"/>
      <line id="Line_123" data-name="Line 123" x2="33.195" transform="matrix(0.985, 0.174, -0.174, 0.985, -491.753, -18812.898)" fill="none" stroke="#353f4f" stroke-linecap="round" stroke-width="3"/>
    </g>
  </g>
</svg>