<svg viewBox="2774.423 -263.815 632.914 375.169" xmlns="http://www.w3.org/2000/svg"><defs><clipPath id="Hverdagen_svg__a"><path fill="#323f51" d="M0 0h35.569v27.465H0z" data-name="Rectangle 374"/></clipPath><clipPath id="Hverdagen_svg__b"><path d="M0 0h1166v1094H0z"/></clipPath><clipPath id="Hverdagen_svg__c"><path d="M0 0h545v513H0z"/></clipPath><clipPath id="Hverdagen_svg__d"><path d="M0 0h1166v1094H0z"/></clipPath><clipPath id="Hverdagen_svg__e"><path d="M0 0h545v513H0z"/></clipPath><clipPath id="Hverdagen_svg__f"><path fill="none" d="M0 0h282.758v204.873H0z" data-name="Rectangle 381"/></clipPath><clipPath id="Hverdagen_svg__g"><path fill="none" d="M45.744 207.346c-3.23 1.412-5.035 6.486-4.864 12.034s-.342 9.645-1.281 12.374a7.249 7.249 0 0 0 4.1.172 85.1 85.1 0 0 0 1.093-15.243c1.116 7.023.263 13.98-.239 18.06a2.037 2.037 0 0 0 2.731.085s.33-11.32.427-16.216c.494 7.916.512 15.533.512 15.533s1.621.6 1.963-.682c-.085-5.292 0-9.9 0-9.9s.682 7.6 1.023 8.962c1.537.6 3.841.341 4.438-.511-.768-1.793-3.157-16.729-3.242-19.2 1.962 9.729 2.987 16.131 3.84 17.411 1.451.683 3.584-1.451 3.584-1.451s-1.28-.427-1.706-3.669-3.455-16.732-6.914-17.838a9 9 0 0 0-2.741-.442 6.829 6.829 0 0 0-2.721.528" data-name="Path 1356" transform="translate(-39.599 -206.818)"/></clipPath><clipPath id="Hverdagen_svg__i"><path fill="none" d="M85.126 84.625c2.085 11.462 6.486 36.692 10.98 56.645 70.9 1.762 130.085-25.157 130.085-25.157L208.43 49.835h-.53c-54.983 0-102.856 16.092-122.773 34.79" data-name="Path 1366" transform="translate(-85.126 -49.835)"/></clipPath><clipPath id="Hverdagen_svg__k"><path fill="none" d="M0 0h123.597v61.052H0z" data-name="Rectangle 379"/></clipPath><linearGradient id="Hverdagen_svg__h" x1="-1.123" x2="-1.091" y1=".935" y2=".935" gradientUnits="objectBoundingBox"><stop offset="0" stop-color="#fd9c00"/><stop offset=".552" stop-color="#fdc600"/><stop offset="1" stop-color="#fde400"/></linearGradient><linearGradient id="Hverdagen_svg__j" x1="-.392" x2="-.387" y1="1.418" y2="1.418" gradientUnits="objectBoundingBox"><stop offset="0" stop-color="#012d46"/><stop offset="1" stop-color="#071d2e"/></linearGradient></defs><g data-name="Group 1348"><path fill="#fff" d="M-685.992 2153.292c321.563-139.596 1851.199 5.881 2020.094-61.957 153.896-61.813 370.844 24.826 487.788 58.053 122.348 34.762 245.106 47.864 189.231 116.312-141.88 173.803-1469.152 172.778-1962.709 130.832-33.633-2.858-149.305.891-255.38-18.674-105.167-19.398-200.812-62.145-218.059-57.608-254.294 66.893-370.623-119.353-260.965-166.958Z" data-name="Path 729" transform="matrix(.97747 -.01951 .02183 1.09324 -93.915 -2594.753)"/><path fill="none" stroke="#323f51" stroke-width="5" d="M994.556 2361.547s34.494-14.406 84.34-31.22c30.742-10.37 67.28-20.682 105.174-29.316 54.296-12.372 111.377-21.299 158.188-22.018 19.461-.299 37.225-3.376 51.613-20.734" data-name="Path 730" transform="matrix(.94161 .26305 -.2942 1.05314 677.388 -2828.991)"/><text style="white-space:pre;fill:#333;font-family:&quot;Roboto Slab&quot;;font-size:28px" transform="matrix(2.7975 0 0 2.7975 -643.854 -120.213)">Her kan du vælge, om du vil arbejde med belastninger i forhold til:<tspan x="0" dy="1em">​</tspan></text></g><g data-name="Group 1219"><g data-name="Group 1205"><g data-name="Group 1204"><path fill="#7ccad8" d="M1324.6-454.384a119.672 107.257 0 1 1-119.673 107.256 119.672 107.257 0 0 1 119.672-107.256Z" data-name="Nuance A4 5a"/></g></g><g><text fill="#323f51" data-name="Group 1215" font-family="RifficFree-Bold, Riffic Free" font-size="150" font-weight="700" style="white-space:pre" transform="matrix(.87416 0 0 .78347 1308.271 -411.853)"><tspan x="0" y="146">i</tspan></text></g></g><g data-name="Group 1541"><g fill="none" stroke="#502831" data-name="Group 1073"><path stroke-miterlimit="10" stroke-width="3.76" d="M43.509 104.53c3.432 13.45 10.885 25.532 19.242 36.614 6.684 8.86 14.883 17.755 25.8 19.771 9.672 1.784 19.567-2.318 27.541-8.078 19.528-14.1 30.683-39.466 26.6-63.206-4.569-26.569-32.136-52.772-60.409-50.587-29.515 2.28-45.203 40.294-38.774 65.486Z" data-name="Path 373" transform="matrix(1.1498 .21864 -.22364 1.1241 3145.068 639.717)"/><path stroke-linecap="round" stroke-linejoin="round" stroke-width="3" d="m103.83 137.492 8.614-6.15c3.026-2.161 6.128-4.406 8.532-8.431a25.822 25.822 0 0 0 3.126-16.068 30.691 30.691 0 0 0-2.75-8.34c-10.038-22.059-22.928-39.66-37.29-50.923" data-name="Path 379" transform="scale(1.17128 1.1451) rotate(2.98 -8997.983 52419.571)"/></g><g data-name="Group 1539"><path fill="#502831" stroke="#502831" stroke-width="2" d="M2.909 2.509A9.057 9.057 0 0 1 .378 1.133C0 .849-.163.53.208.187c.356-.328.72-.174 1.055.075 2.616 1.945 5.5 2.047 8.569.837.153-.06.31-.114.46-.178.379-.16.742-.17.964.168s.093.654-.337.838a10.879 10.879 0 0 1-8.01.582Z" data-name="Path 574" transform="matrix(-.93507 .68868 -.70442 -.91417 3208.634 723.884)"/><path fill="#502831" stroke="#502831" stroke-width="2" d="M2.909 2.509A9.057 9.057 0 0 1 .378 1.133C0 .849-.163.53.208.187c.356-.328.72-.174 1.055.075 2.616 1.945 5.5 2.047 8.569.837.153-.06.31-.114.46-.178.379-.16.742-.17.964.168s.093.654-.337.838a10.879 10.879 0 0 1-8.01.582Z" data-name="Path 573" transform="matrix(-1.14538 -.2382 .24364 -1.11978 3257.99 726.164)"/><path fill="#502831" d="M3216.847 758.744a6.035 5.9 0 0 1-4.355-1.497 5.43 5.31 0 0 1-.384-7.443 5.886 5.754 0 0 1 3.996-1.672l.09-.005a5.644 5.517 0 0 1 3.873 1.078 2.886 2.822 0 0 0-.694-.043l-.043.002a2.294 2.242 0 0 0-1.55 3.901 2.576 2.518 0 0 0 1.865.643l.1-.005a2.146 2.098 0 0 0 2.023-1.76 6.348 6.207 0 0 1 .144 1.139 5.827 5.697 0 0 1-1.226 3.923 5.168 5.053 0 0 1-3.608 1.732c-.077-.003-.155.003-.231.007Z" data-name="Subtraction 6"/><path fill="#502831" d="m3242.58 757.632-.045.003a5.31 5.191 0 0 1-4.044-1.232 5.686 5.559 0 0 1-1.589-3.95 5.904 5.772 0 0 1 1.333-4.063 5.336 5.216 0 0 1 3.805-1.766h.012a5.334 5.215 0 0 1 4.212 1.689 2.42 2.366 0 0 0-1.675-.473l-.04.002a2.305 2.254 0 0 0-1.555 3.924 2.591 2.533 0 0 0 1.87.644l.104-.005a2.233 2.183 0 0 0 2.08-2.434 2.479 2.423 0 0 0-.222-.955 5.98 5.846 0 0 1 .964 2.96 5.565 5.44 0 0 1-1.31 3.986 5.477 5.355 0 0 1-3.9 1.67Zm4.236-8.63a5.593 5.468 0 0 0-.552-.69 2.007 1.962 0 0 1 .554.689Z" data-name="Exclusion 2"/><path fill="none" stroke="#502831" stroke-linecap="round" stroke-linejoin="round" stroke-width="2" d="M88.445 78.218s-19.312 18.61-35.44 0" data-name="Path 2028" transform="matrix(1.17128 -.0004 .00042 1.1451 3146.571 680.303)"/></g><g fill="#323f51" data-name="Group 1540"><path d="M3317.867 693.344a26.567 27.175-90 0 1 1.034 6.815c.022 1.084-.28 1.745-1.32 1.245a2.446 2.502-90 0 1-1.245-2.388c-.217-7.524-3.784-13.945-9.729-19.572-.3-.279-.586-.575-.885-.847a2.276 2.328-90 0 1-.975-2.271c.274-.828.944-.806 1.8-.03a37.227 38.078-90 0 1 11.32 17.048Z" data-name="Path 2025"/><path d="M3323.028 688.366a19.55 19.996-90 0 1 .683 5.246c-.006.836-.26 1.352-1.076.986a1.773 1.813-90 0 1-.938-1.82c-.019-5.811-2.726-10.702-7.341-14.932-.23-.21-.456-.432-.687-.636a1.654 1.692-90 0 1-.728-1.735c.235-.646.768-.64 1.434-.06a26.77 27.382-90 0 1 8.653 12.95Z" data-name="Path 2026"/></g></g><g data-name="Group 1388"><path stroke-miterlimit="10" stroke-width="10" d="M-573.652 158.091C-498.231 199.4-452.511 278.58-420.111 357.54a1079.031 1079.031 0 0 1 78.564 473.284c-1.888 30.991-5.365 62.765-19.79 90.35-18.309 35.016-52.385 59.495-88.1 77.053-67.79 33.323-144.22 45.932-219.828 49.948-64.277 3.414-130.3.638-190.274-22.442S-973.053 956.548-991.776 895.7c-11.085-36.012-9.54-74.471-7.891-112.076q2.429-55.525 4.864-111.05c4.341-99.115 9.009-199.98 42.715-293.436s101.468-180.1 196.423-212.369c30.23-10.278 67.072-34.535 98.615-29.4 68.509 11.146 35.978 4.024 83.4 20.721" data-name="Path 1750" style="fill:transparent;stroke:#502831" transform="matrix(.24676 0 0 .22242 3702.632 627.827)"/><path fill="none" stroke-linecap="round" stroke-miterlimit="10" stroke-width="5" d="M519.358 124.343c-16.711 3.5-29.235 12.385-41.669 23.79" data-name="Path 1760" style="stroke:#502831" transform="matrix(.24676 0 0 .22242 3390.919 663.8)"/><path fill="none" stroke-linecap="round" stroke-miterlimit="10" stroke-width="5" d="M466.3 124.343c16.711 3.5 29.221 12.385 41.67 23.79" data-name="Path 1761" style="stroke:#502831" transform="matrix(.24676 0 0 .22242 3434.65 673.141)"/><path fill="none" stroke-linecap="round" stroke-linejoin="round" stroke-width="10" d="M-764.21 192.036c53.3 15.349 94.54 79 94.593 146 .012 15.866-2.123 31.989-8 46.14-10.908 26.272-32.949 42.346-54.029 56.612C-806.71 491.561-935.249 178-1014.4 218.441" data-name="Path 1754" style="stroke:#502831" transform="matrix(.24676 0 0 .22242 3800.677 700.062)"/><path d="M3351.828 1518.389a67.659 67.659 0 0 1 4.404 23.033c.108 3.928-1.123 6.938-5.421 7.102-4.117.156-5.044-2.872-5.177-6.356-1.053-27.217-24.257-31.863-48.901-41.067-1.228-.459-5.42-3.941-6.657-4.363-3.11-1.069-2.329-7.525-1.256-10.962 1.116-3.568 12.417-9.364 15.968-8.17 21.227 7.166 38.308 19.149 47.04 40.783Z" data-name="Path 1753" style="fill:#502831" transform="matrix(-.18093 .15212 -.16683 -.16308 4387.004 478.773)"/><path d="M1032.423 500.6c-13.752-.157-22.828 8.617-22.583 21.834.246 13.317 8.378 22.067 20.927 22.533 13.493.5 24.837-9.8 24.7-22.439-.134-13.095-9.249-21.764-23.044-21.928Z" data-name="Path 1755" style="fill:#502831" transform="matrix(.24676 0 0 .22242 3291.59 599.718)"/><path fill="#fff" d="M3547.386 711.542c-1.452-.015-2.411.821-2.386 2.08.026 1.267.885 2.1 2.21 2.144 1.427.05 2.625-.934 2.61-2.136-.014-1.248-.976-2.073-2.434-2.088Z" data-name="Path 1756" opacity=".9"/><path d="M1059.361 500.4c-12.51-.032-22.365 10.394-22.258 23.532.107 13.657 9.065 22.538 22.639 22.455 14.037-.082 21.91-8.311 21.816-22.791-.095-13.496-9.344-23.167-22.197-23.196Z" data-name="Path 1757" style="fill:#502831" transform="matrix(.24676 0 0 .22242 3258.53 599.602)"/><path fill="#fff" d="M3521.484 712.003c-1.462-.016-2.426.825-2.4 2.09.027 1.275.89 2.113 2.223 2.158 1.433.05 2.638-.938 2.624-2.149-.014-1.254-.98-2.084-2.447-2.1Z" data-name="Path 1758"/></g><g data-name="Group 1057"><path fill="#fff" d="m-1870.633-8888.273 80.192 13.941c114.424 0 96.503 35.591 42.286 100.446-1.139 1.361-12.942 59.698-14.142 61.037-56.856 63.484-189.456 68.671-301.478 68.671h-26.622c-114.428 0-158.638-58.073-98.753-129.708 27.971-33.459 50.285-50.379 102.747-73.385 59.857-26.25 154.789-41.002 215.77-41.002Z" data-name="Path 1346" transform="rotate(10.708 -45638.58 22431.811)"/><text data-name="SYMPTOMER FRA MAVEN" style="fill:#903;font-family:&quot;Roboto Slab&quot;;font-size:50px;font-weight:800;letter-spacing:3px;white-space:pre" transform="translate(2907.677 -141.474)"><tspan>Hverdagen</tspan><tspan x="0" dy="1em">​</tspan><tspan x="0" dy="1em">​</tspan></text><path fill="#fff" d="m-1772.904-8474.402 73.931 11.358c124.22-11.272 112.515 65.534 45.561 135.76-1.132 1.187-78.722 47.078-80.368 47.544-140.227 39.731-127.221 59.377-200.147 74.121h-23.661c-101.7 0-146.785-80.517-87.769-121.665 59.016-41.148 156.566-148.327 272.453-147.118Z" data-name="Path 1346" transform="rotate(-162.424 1344.075 -4388.783)"/><text data-name="SYMPTOMER FRA MAVEN" style="fill:#903;font-family:&quot;Roboto Slab&quot;;font-size:50px;font-weight:800;letter-spacing:3px;white-space:pre" transform="translate(3099.62 328.12)"><tspan>Uddannelse</tspan><tspan x="0" dy="1em">​</tspan><tspan x="0" dy="1em">​</tspan></text><path fill="#fff" d="M-2315.8-8126.886h28.116c141.138-45.766 183.853 60.244 104.292 142.492-1.345 1.39-93.486 55.353-95.498 55.681-172.976 28.145-162.693 36.176-237.829 86.808h-28.116c-120.846 0-167.318-63.095-104.293-142.489 63.025-79.394 200.082-181.643 333.328-142.492Z" data-name="Path 1346" transform="rotate(-162.424 778.228 -4046.007)"/><text data-name="SYMPTOMER FRA MAVEN" style="fill:#903;font-family:&quot;Roboto Slab&quot;;font-size:50px;font-weight:800;letter-spacing:3px;white-space:pre" transform="translate(2442.174 657.235)">Arbejde</text><path fill="#fff" d="M-1735.321-8476.952c59.831-18.952 137.616 81.096 131.146 169.73-.107 1.459-105.05 29.781-106.462 30.211-120.314 36.622-118.062 42.852-171.725 68.32l-61.439 18.175c-45.072-18.559-100.952 10.042-135.326-3.034-51.477-19.583-74.271-126.899 33.947-134.54 36.127-2.551 233.185-141.214 309.859-148.862Z" data-name="Path 1346" transform="rotate(-162.424 1473.14 -4117.682)"/><g fill="#903" data-name="Group 907"><path d="M3208.122 931.236h85.835a6.258 6.628 0 0 1 6.258 6.628 6.258 6.628 0 0 1-6.258 6.629h-85.835a6.258 6.628 0 0 1-6.258-6.629 6.258 6.628 0 0 1 6.258-6.628Z" data-name="Path 211"/><path d="M3273.644 909.71a6.258 6.628 0 0 1 4.428 1.942l20.308 21.527a6.258 6.628 0 0 1 0 9.38l-20.308 21.53a6.258 6.628 0 0 1-8.855 0 6.258 6.628 0 0 1 0-9.371l15.891-16.849-15.89-16.84a6.258 6.628 0 0 1 0-9.38 6.243 6.613 0 0 1 4.426-1.939Z" data-name="Path 212"/></g><text x="-1867.037" y="-7768.317" data-name="SYMPTOMER FRA MAVEN" style="fill:#903;font-family:&quot;Roboto Slab&quot;;font-size:50px;font-weight:800;letter-spacing:3px;white-space:pre" transform="translate(5037.678 8657.11)">Nære Relationer</text><g fill="#903" data-name="Group 907"><path d="M3115.457 377.048h85.835a6.258 6.628 0 0 1 6.258 6.628 6.258 6.628 0 0 1-6.258 6.628h-85.835a6.258 6.628 0 0 1-6.257-6.628 6.258 6.628 0 0 1 6.257-6.628Z" data-name="Path 211"/><path d="M3180.979 355.521a6.258 6.628 0 0 1 4.429 1.943l20.307 21.527a6.258 6.628 0 0 1 0 9.38l-20.307 21.53a6.258 6.628 0 0 1-8.856 0 6.258 6.628 0 0 1 0-9.371l15.891-16.85-15.89-16.84a6.258 6.628 0 0 1 0-9.38 6.243 6.613 0 0 1 4.426-1.939Z" data-name="Path 212"/></g><g fill="#903" data-name="Group 907"><path d="M2905.732-85.649h85.835a6.258 6.628 0 0 1 6.258 6.629 6.258 6.628 0 0 1-6.258 6.628h-85.835a6.258 6.628 0 0 1-6.257-6.628 6.258 6.628 0 0 1 6.257-6.629Z" data-name="Path 211"/><path d="M2971.254-107.175a6.258 6.628 0 0 1 4.428 1.942l20.308 21.528a6.258 6.628 0 0 1 0 9.38l-20.308 21.53a6.258 6.628 0 0 1-8.855 0 6.258 6.628 0 0 1 0-9.372l15.891-16.848-15.89-16.842a6.258 6.628 0 0 1 0-9.38 6.243 6.613 0 0 1 4.426-1.938Z" data-name="Path 212"/></g></g><path fill="#323f51" d="M1779.581 1798.383c1.779-.832 7.024-3.289 6.673-5.909a3.37 3.37 0 0 1 .376-.319c-.741-.076-.292-.636.094-.085a7.814 7.814 0 0 1-.392-1.658c-2.631.153-15.187-2.376-14.338.068-.62-1.016-.89-.153-1-.056.173.223.365.432.573.624-1.477.822-2.258 1.866.117 2.18 2.654.351 5.444.631 8.205.819a14.648 14.648 0 0 1-3.223 2.189l-.389.185c.476-.471.865-.962.132-.7-.26.286-.478.607-.649.954-2.484 1.261-4.259 2.761-3.685 3.921.063.874.91 1.106 1.753 1.208l-.068.032.068-.032c.022.016-.013.019-.068.032-.1.048.16.156.229.17.081-.09.1-.142.087-.175l.194.019c.615.157 1.239.274 1.869.351.617.078 2.271.346 4.134.5.059.219.129.377.214.276-.028.034-.01-.09.021-.255.556.041 1.126.069 1.693.082-.206.122-.587.216-.451.3.22-.044.424-.148.589-.3.062 0 .125.006.188.006.112.141.417.147.959-.015 2.248-.091 4.117-.609 4.117-2.114 0-1.938-4.192-2.279-8.02-2.3m-2.091-8.506a1.13 1.13 0 0 1-.123.17h-.213c-.016-.244.156-.7.336-.169m-.862.084c.044-.122.1-.166.157-.132-.01.091-.019.15-.028.213h-.13v-.079m-.363.074h-.12a3.424 3.424 0 0 1-.09-.236s-.016-.034-.044-.113c.117-.072.214.166.254.352m-3.872.537s.1-.013.189-.016a.21.21 0 0 1-.189.016" clip-path="url(#Hverdagen_svg__a)" data-name="Path 1341" transform="translate(2377.954 -3.207)"/><path fill="#323f51" d="M1805.735 1789.42c-.007-1.594-5.945-1.86-10.132-1.9.189-.189.379-.389.568-.609.134-.044.263-.101.386-.169a1.65 1.65 0 0 1-.094-.182c.028-.034.054-.063.081-.1.021.079.037.16.048.242.324-.445.683-.865 1.071-1.255a.23.23 0 0 0 .087.088c.056.025.076-.107.054-.235 2.048-2.121 5.5-5.265 4.556-6.341.053-.022.1-.037.153-.06.3.057.323-.079.28-.236.135-.025.21-.047.2-.072a3.822 3.822 0 0 0-.429-.581c.053-.455-.68-.691-.871-1.009.069.106.117.226.142.351a4.718 4.718 0 0 0-.515-.31c.308-.2-.1-.258-.344-.156a6.729 6.729 0 0 0-1.053-.339c.129-.825-.208-.269-.172-.041a25.418 25.418 0 0 0-5.532-.25 1.368 1.368 0 0 0-.157.015 2.263 2.263 0 0 1-.6-.511c-.046-.079-.037-.1-.009-.113a4.772 4.772 0 0 1-.818.3.501.501 0 0 0 0-.164c-.018-.06-.078.057-.106.192-1.36.346-3.3.417-3.121.021-.363.791-.622.489-.558 1.572-.276-2.3.034.913-.247-.529.016.088.076.363.139.675-1.379.533-2.066 1.06-.465 1.286.159.021.439.038.806.05-.028.1-.037.185.018.235.011-.078.018-.155.022-.233 1.511.047 4.5.018 7.319-.057a.304.304 0 0 0-.181.314c-.029 1.069.369-.11.429-.32l.976-.028c.069.1.144.144.22.109.076-.035.137-.084.207-.123l.827-.029a.483.483 0 0 0-.115.317c-.046.476.229-.185.229-.322l.5-.019c-.26.239-.323.363-.3.42a36.123 36.123 0 0 0-4.096 3.663.145.145 0 0 0-.069-.081c-.132-.063-.214.142-.141.294a54.998 54.998 0 0 0-4.332 4.945.6.6 0 0 0-.056.694.703.703 0 0 0-.119.369 5.474 5.474 0 0 0 2.1.837c.938.4.743.232.443.029.241.068.495.131.758.189.075 1.053 1.59.712 2.42.42.4.051.807.1 1.217.134a.336.336 0 0 0-.1.279c.032.4.313-.025.382-.254.73.062 1.465.1 2.182.113-.106.07-.2.138-.253.117.092.038.257-.04.4-.116.681.01 1.342 0 1.957-.041 2.188-.138 3.811-.6 3.807-1.486m-5.4-8.9-.075.106a.274.274 0 0 1 .075-.106m1.288-1.7a.239.239 0 0 1-.019.144Zm-1.892 2.728.085-.148c.2.151.053.2-.085.148m.5.669c-.561-1.135.806.417 0 0m.332-.37c-.711-.721-.07-.226-.032-.173.073.1.085.161.032.173m.433-.348c.05.37-1.509-.753 0 0m-10.341-4.851c-.014.153-.04.305-.079.455-.081-.155-.038-1.081.079-.455m-.238.041c.006.254.006.393 0 .46a1.276 1.276 0 0 1-.048-.313c.007-.125.023-.175.046-.147m-1.008-.21h-.082c.019-.084.138-.637.082 0m.746.153c.113-.248.2.21.22.533-.037.01-.072.022-.109.031a8.798 8.798 0 0 1-.112-.564m9.379 2.259.333-.015c-.06.04-.123.085-.186.128a.285.285 0 0 0-.147-.113m-4.905 11.55.336.057c-.277.032-.374-.015-.336-.057" clip-path="url(#Hverdagen_svg__a)" data-name="Path 1342" transform="translate(2377.954 -3.207)"/><path fill="#323f51" d="M1790.215 1790.046c.437.288.986.35 1.477.169 0 0-1.875-.78-1.477-.169" clip-path="url(#Hverdagen_svg__a)" data-name="Path 1343" transform="translate(2377.954 -3.207)"/><g data-name="Group 743"><g data-name="Group 989"><g data-name="Group 988"><g data-name="Group 927"><g clip-path="url(#Hverdagen_svg__f)" data-name="Group 926" transform="matrix(.82564 -.17206 .16914 .81165 2888.05 210.425)"><path fill="#012d46" d="M41.051 86.029h1.674v76.458h-1.674z" data-name="Rectangle 375"/><g data-name="Group 916"><g clip-path="url(#Hverdagen_svg__g)" data-name="Group 915" transform="translate(33.682 175.916)"><path fill="url(#Hverdagen_svg__h)" d="M0 0h26.985v33.315H0z" data-name="Rectangle 376" transform="rotate(-14.76 3.72 28.642)"/></g></g><g data-name="Group 918"><g clip-path="url(#Hverdagen_svg__f)" data-name="Group 917"><path fill="#dd7e17" d="M48.269 180.219c-.916-2.015-1.936-3.521-3-3.861a7.861 7.861 0 0 0-5.462.086c-2.7 1.181-4.4 4.921-4.786 9.355 3.477-3.266 7.812-5.723 13.245-5.58" data-name="Path 1357"/><path fill="none" stroke="#922e02" stroke-miterlimit="10" stroke-width="1.125" d="M39.827 176.443c-3.23 1.413-5.036 6.487-4.865 12.034s-.341 9.645-1.281 12.375a7.251 7.251 0 0 0 4.1.171 85.087 85.087 0 0 0 1.093-15.242c1.115 7.022.262 13.979-.24 18.06a2.039 2.039 0 0 0 2.732.085s.33-11.32.426-16.216c.5 7.916.512 15.533.512 15.533s1.62.6 1.963-.682c-.085-5.292 0-9.9 0-9.9s.683 7.6 1.023 8.962c1.538.6 3.842.341 4.439-.512-.768-1.792-3.158-16.728-3.243-19.2 1.962 9.729 2.986 16.131 3.841 17.411 1.45.682 3.584-1.451 3.584-1.451s-1.281-.427-1.707-3.67-3.455-16.731-6.914-17.838a7.868 7.868 0 0 0-5.463.08Z" data-name="Path 1358"/><path fill="#012d46" d="M45.523 178.178h-6.954a1.007 1.007 0 0 1-1.007-1.008v-16.483a1.007 1.007 0 0 1 1.007-1.008h6.954a1.008 1.008 0 0 1 1.008 1.008v16.483a1.008 1.008 0 0 1-1.008 1.008" data-name="Path 1359"/><path fill="#005078" d="M82.568 37.675 1.39 110.736l2.627 2.628 158.1-35.1 119.531-74.22-.8-2.942Z" data-name="Path 1360"/><path fill="#014163" d="m82.568 37.675 2.628 2.628-81.178 73.061-2.627-2.628Z" data-name="Path 1361"/><path fill="none" stroke="#020c14" stroke-miterlimit="10" stroke-width="2.25" d="M82.568 37.675 1.39 110.736l2.627 2.628 158.1-35.1 119.531-74.22-.8-2.942Z" data-name="Path 1362"/><path fill="#012d46" d="m85.194 40.304-81.176 73.06L164.751 80.89l116.9-76.848Z" data-name="Path 1363"/><path fill="#0b2538" d="m73.954 50.422-69.936 62.94 160.734-32.47 61.236-40.257c-50.06 18.674-131.628 26.89-152.034 9.787" data-name="Path 1364"/><path fill="none" stroke="#020c14" stroke-linecap="round" stroke-linejoin="round" stroke-width="2.25" d="m85.194 40.304-81.176 73.06L164.751 80.89l116.9-76.848Z" data-name="Path 1365"/></g></g><g data-name="Group 920"><g clip-path="url(#Hverdagen_svg__i)" data-name="Group 919" transform="translate(72.407 42.389)"><path fill="url(#Hverdagen_svg__j)" d="M0 0h160.188v126.132H0z" data-name="Rectangle 378" transform="rotate(-14.76 11.96 91.791)"/></g></g><g data-name="Group 925"><g clip-path="url(#Hverdagen_svg__f)" data-name="Group 924"><path fill="none" stroke="#020c14" stroke-miterlimit="10" stroke-width="2.25" d="m195.711 42.389 17.761 66.277s-59.184 26.918-130.085 25.157c-4.494-19.952-8.9-45.184-10.98-56.645 19.982-18.757 68.098-34.894 123.304-34.789Z" data-name="Path 1367"/><path fill="#005078" d="m196.047 49.913 15.453 57.363s-25.931 11.263-46.624 14.93c22.264-23.836 31.17-72.294 31.17-72.294" data-name="Path 1368"/><path fill="#005078" d="m189.048 22.78 86.8-16.477-47.957 31.19s20.3-23.539-38.838-14.712" data-name="Path 1369"/><path fill="#005078" d="m79.462 105.859 5.49 26.963s24.073.547 42.949-2.735c-17.508.274-37.751 0-40.761-2.189-2.735-7.66-7.677-22.039-7.677-22.039" data-name="Path 1370"/><path fill="#005078" d="M84.841 125.527s37.96 4.405 66.482-3.356c-19.295 6.712-55.158 7.341-64.185 5.728-1.878.145-2.3-2.372-2.3-2.372" data-name="Path 1371"/><g data-name="Group 923" opacity=".54"><g data-name="Group 922"><g clip-path="url(#Hverdagen_svg__k)" data-name="Group 921" transform="translate(72.407 42.389)"><path fill="#06111e" d="m123.597 1.097-.293-1.1C68.098-.103 19.983 16.029.004 34.786c1.081 5.94 2.784 15.579 4.8 26.263 27.395-44.62 84.324-59.279 118.8-59.954" data-name="Path 1372"/></g></g></g></g></g></g></g></g></g></g><g data-name="Group 705"><g data-name="Group 704"><path fill="#fff6d5" d="M2831.834 809.914a3.936 3.514 27.975 0 0 .384-1.052c.95-3.095 2.073-6.11 3.767-8.877.51-.832.938-1.712 1.38-2.58a6.546 5.845 27.975 0 0 .621-1.443c.317-1.908 1.277-3.52 2.13-5.19.442-.867.763-1.797 1.147-2.695.528-1.24 1.031-2.493 1.607-3.711 1.724-3.656 4.195-6.946 5.201-10.95a.986.88 27.975 0 1 .096-.205 48.555 43.356 27.975 0 0 2.836-6.368c.46-1.266 1.152-2.436 1.399-3.796a6.228 5.56 27.975 0 1 .604-1.45c.972-1.78 1.938-3.56 2.31-5.603a3.866 3.452 27.975 0 1 .246-.627c1.17-2.76 2.434-5.48 3.487-8.287a69.46 62.023 27.975 0 1 3.033-6.53 10.425 9.308 27.975 0 0 .927-2.044c.356-1.654 1.146-3.095 1.922-4.55 1.06-1.988 2.126-3.971 3.169-5.967.311-.596.558-1.227.817-1.85.578-1.38 1.08-2.799 1.732-4.144.979-2.021 2.226-3.909 2.708-6.165a8.32 7.43 27.975 0 1 .766-1.624c.739-1.392 1.499-2.774 2.239-4.165.246-.463.597-.917.66-1.42.206-1.636 1.088-2.95 1.828-4.336l1.195-2.25c-1.175-1.686-2.485-3.072-4.34-4.042-7.523-3.935-15.002-7.957-22.542-11.857-2.682-1.385-5.474-2.566-8.253-3.747-2.391-1.016-4.863-1.816-7.144-3.119a17.241 15.395 27.975 0 0-2.782-1.162c-2.667-1.004-5.348-1.97-8.012-2.982q-7.993-3.038-15.972-6.113c-1.956-.753-3.94-1.453-5.836-2.344a29.233 26.102 27.975 0 0-4.923-1.868c-1.605-.458-3.286-.802-4.76-1.543-1.903-.956-3.887-1.553-5.862-2.228a15.445 13.791 27.975 0 1-1.66-.565c-2.513-1.16-4.999-2.382-7.522-3.517a14.377 12.838 27.975 0 0-3.305-1.16 9.52 8.501 27.975 0 1-2.811-1.006c-4.109-2.12-8.221-4.23-12.323-6.363a12.51 11.17 27.975 0 0-4.458-1.596c-.313.456-.57.818-.81 1.187-1.457 2.225-1.78 4.928-2.896 7.301-.475 1.011-.782 2.103-1.251 3.118-.661 1.43-1.586 2.754-2.072 4.243a92.473 82.57 27.975 0 1-5.385 12.375 11.359 10.142 27.975 0 0-.836 1.84c-.678 2.414-1.815 4.608-3.01 6.781a22.083 19.719 27.975 0 0-1.264 2.633c-.991 2.84-1.882 5.716-2.864 8.56a61.598 55.002 27.975 0 1-2.09 5.467 33.413 29.835 27.975 0 0-1.956 5.03c-.973 3.807-2.533 7.384-3.865 11.046-1.076 2.96-2.356 5.839-3.513 8.768-.358.905-.585 1.866-.913 2.784a31.352 27.995 27.975 0 1-1.228 3.131c-2.004 3.864-4.078 7.693-6.111 11.541a12.807 11.436 27.975 0 0-.915 2.05c-.727 2.69-1.946 5.18-3.015 7.716-1.135 2.69-2.686 5.198-4.1 7.76a14.7 13.126 27.975 0 1-1.335 1.79c-1.166 1.395-1.891 3.011-2.6 4.785.722.445 1.333.863 1.98 1.212 2.813 1.512 5.603 3.077 8.471 4.477 1.93.943 3.554 2.281 5.077 3.636a96.556 86.216 27.975 0 1 7.555 7.582 16.278 14.535 27.975 0 0 4.882 3.833c2.848 1.485 5.38 3.407 8.091 5.065 2.555 1.562 4.844 3.552 7.373 5.205 1.26.825 2.462 1.725 3.8 2.446a14.366 12.827 27.975 0 1 2.759 1.737 16.84 15.036 27.975 0 0 3.372 2.173c1.484.79 2.962 1.593 4.453 2.369a11.765 10.506 27.975 0 0 1.828.828c2.135.717 4.28 1.397 6.426 2.079 2.859.907 5.666 2.05 8.653 2.394a1.947 1.739 27.975 0 1 .72.2c1.325.683 2.728.714 4.122.817 2.361.175 4.677-.184 7.075.231 1.536.266 3.108.179 4.661.222a5.748 5.133 27.975 0 0 1.674-.105c2.23-.626 4.597-.607 6.933-.648a18.813 16.799 27.975 0 0 3.827-.448q1.752-.394 3.483-.855a8.496 7.586 27.975 0 1 3.595-.322 4.214 3.763 27.975 0 0 1.667-.132c1.921-.49 3.825-1.025 5.73-1.558.816-.227 1.506.242 1.505 1.062a3.254 2.906 27.975 0 1-.031.455c-.24 1.414-.36 2.87-.763 4.228-.487 1.643-.112 3.176.688 4.714.153.293.54.494.842.76a5.315 4.746 27.975 0 0 .544-.609c.914-1.638 1.804-3.29 2.722-4.926.912-1.623 1.428-3.452 2.609-4.937Z" data-name="Path 1099"/><path fill-rule="evenodd" d="M2862.741 744.866c.308.303.624.548 1.072.332.761-.367 1.532-.723 2.647-1.248a9.853 8.798 27.975 0 1-.822 1.291 8.188 7.311 27.975 0 1-1.127.79c-3.062 1.994-3.398 2.404-4.893 5.962.31.466.68.365 1.029.157.59-.35 1.148-.746 1.75-1.077.18-.099.463-.043.952-.074-1.353 1.514-2.57 2.879-4.279 3.752a1.874 1.673 27.975 0 0-.891 1.381 3.147 2.81 27.975 0 0 .834-.114c.897-.418 1.694-1.036 2.762-1.067.468.528.1.812-.15 1.008-1.197.943-2.402 1.883-3.665 2.746a6.251 5.582 27.975 0 0-2.125 3.212c1.359.045 1.61-1.203 2.567-1.496.94-.289 1.66-1.004 2.789-1.086a13.644 12.183 27.975 0 1-.797 1.041c-.783.812-1.559 1.635-2.411 2.38-.797.694-1.608 1.47-3.117.892l-.541 1.945c.303.11.466.224.571.195.82-.222 1.452-.866 2.63-.853a4.281 3.823 27.975 0 1-.537.812c-1.152.877-2.307 1.752-3.512 2.567-.569.384-.87.803-.649 1.54.94.336 1.44-.407 2.19-.604.515.535.293 1.006-.119 1.344a42.519 37.966 27.975 0 1-3.425 2.64c-1.107.706-1.409 1.668-1.389 2.835.91.497 1.388-.818 2.365-.069-.643.95-1.439 1.71-2.676 1.94a1.37 1.223 27.975 0 0-1.045 1.056l1.132.485c-1.01 1.8-3.117 2.68-3.956 4.559-.786 1.762-2.084 3.3-2.233 5.519 1.501-.16 2.715-.769 4.216-1.501-.36 1.447-1.405 1.842-2.232 2.4-.86.581-.887.548-2.59.481l-1.188 2.238c.986.307 1.604-.024 2.153-.544.909-.865 2.058-1.289 3.743-1.538-1.033.98-1.952 1.638-2.57 2.5-.718 1-1.974 1.123-2.839 1.806l-1.111-.59c-.113.106-.285.186-.315.309a28.85 25.76 27.975 0 1-2.585 5.973c-.633 1.102-1.199 2.24-1.759 3.294.385.523.65.294.89.16.405-.227.78-.497 1.183-.724.505-.286 1.072-.176 1.25.221a1.081.965 27.975 0 1-.437 1.161c-1.025.537-2.067 1.049-3.077 1.608a3.014 2.691 27.975 0 0-1.35 1.848c.96.377 1.218-.79 2.11-.425-.037.763-.708 1.098-1.18 1.518-.734.655-1.582 1.198-2.37 1.8-.672.513-1.311 1.056-1.432 2.133a2.982 2.663 27.975 0 0 .85-.08c.768-.338 1.508-.725 2.662-1.292-.478 1.134-1.215 1.434-1.775 1.875a24.574 21.942 27.975 0 1-1.863 1.337c-1.192.744-1.207.725-1.512 1.41.96.265 1.746-.716 2.744-.123.021.1.078.224.047.246-1.602 1.126-3.212 2.243-4.985 3.473.373.226.662.525.855.493.546-.09 1.044-.34 1.58-.478a5.832 5.207 27.975 0 1 1.092-.028c-1.253.924-2.236 1.724-3.301 2.418-1.666 1.087-3.383 2.108-5.1 3.128a.685.612 27.975 0 1-.647-.13c-.145-.235-.279-.65-.16-.805a9.82 8.768 27.975 0 1 1.156-1.055c-.786-.251-.786-.251-1.873.083-.102.646.041 1.538-.36 1.887a9.475 8.46 27.975 0 1-2.833 1.495c-.804.265-1.09-.515-1.366-1.223-1.017.21-1.802.8-2.671 1.237a4.285 3.826 27.975 0 1-1.048.478 1.023.914 27.975 0 1-.88-.276 1.597 1.426 27.975 0 1-.236-1.046c.103-.473.935-.544.787-1.337-1.355-.186-2.676-.481-3.804.515-.614.542-1.435.88-2.159 1.314-.687.413-1.048.283-1.485-.549-.11-.21-.193-.433-.317-.713-.473.152-.911.316-1.368.434-.543.14-1.119.264-1.604-.244-.494-.516-.342-.994.01-1.458a3.01 2.688 27.975 0 0 .197-.669c-.884.503-1.598.923-2.33 1.315a5.16 4.608 27.975 0 1-.885.326c-.86.254-1.517.038-1.652-.528-.12-.498.168-.815.973-1.028.305-.082.632-.114.94-.19.227-.055.441-.145.683-.228-1.205-.75-1.329-.788-3.347-1.053a15.107 13.49 27.975 0 1-1.394 1.098 3.795 3.389 27.975 0 1-1.322.43.942.841 27.975 0 1-1.171-.702 1.68 1.5 27.975 0 1 .278-.991c.153-.224.504-.32.922-.564-.663-.436-1.173-.595-1.775-.223a11.7 10.448 27.975 0 1-1.613.875c-.78.308-1.334-.214-1.239-1.129a7.673 6.85 27.975 0 1 .168-.724c-1.802-1.026-3.566-1.237-5.318-.458-3.307-2.623-7.18-4.099-10.719-6.15-2.663-.452-4.584-2.36-6.876-3.54-3.213-1.652-6.41-3.339-9.612-5.012-1.193-.622-2.402-1.215-3.354-2.191a1.985 1.773 27.975 0 0-.609-.44c-2.666-1.268-5.045-2.984-7.456-4.64-1.656-1.136-3.233-2.381-4.856-3.56-.675-.49-1.385-.935-2.075-1.406-.965-.657-1.92-1.328-2.892-1.973a30.421 30.421 0 0 0-1.92-1.195c-1.462-.816-3.025-1.484-4.164-2.76-3.991-2.329-6.815-5.832-10.06-8.91-1.626-1.542-3.321-3.002-5.342-4.07-3.343-1.768-6.687-3.534-10.024-5.314-2.635-1.407-2.708-1.614-1.49-3.94.557-1.064 1.132-2.12 1.7-3.175a4.566 4.077 27.975 0 1 .558-.973c2.144-2.03 3.016-4.81 4.417-7.272.923-1.622 1.908-3.224 2.198-5.15.088-.58.465-1.102.748-1.63a13.54 12.09 27.975 0 0 1.134-2.928 11.302 10.092 27.975 0 1 .93-2.281c1.842-3.526 3.717-7.034 5.574-10.55a42.541 37.986 27.975 0 0 2.026-4.993c.544-1.599 1.699-2.968 2.583-4.44a.961.858 27.975 0 0 .095-.203c.924-3.83 2.953-7.213 4.067-10.974 1.026-3.464 2.274-6.852 3.45-10.265.245-.708.61-1.37.917-2.055a10.358 9.25 27.975 0 0 .721-1.648c.73-3.599 2.597-6.716 3.953-10.048 1.725-4.24 3.917-8.278 5.102-12.749a13.747 12.275 27.975 0 1 .54-1.236c.42-1.039.812-2.091 1.242-3.126.26-.623.549-1.233.858-1.832 1.342-2.597 2.802-5.126 3.678-7.958.44-1.421 1.344-2.677 1.987-4.032a34.73 31.01 27.975 0 0 2.64-8.351 6.41 5.723 27.975 0 1 .707-2.107c.589-.944 1.494-1.351 2.646-1.01a18.798 16.785 27.975 0 1 3.987 1.466 767.783 767.783 0 0 1 14.557 8.052 18.452 16.476 27.975 0 0 5.088 2.116c1.212.307 2.417.649 3.623.983a4.93 4.402 27.975 0 1 1.192.378c2.061 1.134 4.266 1.937 6.382 2.919a64.972 58.015 27.975 0 0 10.078 3.818 7.124 6.36 27.975 0 1 1.42.502c2.106 1.098 4.348 1.75 6.602 2.375a6.257 5.587 27.975 0 1 .947.327c5.609 2.47 11.386 4.468 17.09 6.67 2.892 1.115 5.827 2.114 8.712 3.254 1.632.646 3.187 1.505 4.802 2.205 2.078.902 4.197 1.706 6.27 2.618 1.92.842 3.842 1.695 5.695 2.674 7.507 3.962 14.97 8.005 22.488 11.948 2.185 1.147 3.641 2.863 5.027 4.707a1.63 1.456 27.975 0 1 .166 1.534c-.298.74-.61 1.476-1.09 2.638 1.007-.523 1.557-.908 2.19-1.106.541-.171.944.14.974.847a14.27 12.741 27.975 0 1-3.917 2.78l1.2.772c-.96 1.144-2.979 1.417-3.127 3.238 1.255.253 1.099-.932 1.803-1.378l1.466.362c-.083.648-.01 1.293-.26 1.766a4.086 3.648 27.975 0 1-2.05 1.74c-1.353.388-2.157 1.419-3.245 2.108-.535.338-.559.843-.268 1.525l2.437-1.287c-.235 1.154-.536 1.507-1.625 2.29-.713.513-1.783.644-2.193 1.653.734.335 1.09-.13 1.536-.308.413-.164.823-.333 1.2-.486.429.475.171.655-.07.835-1.348 1.002-2.703 1.996-4.046 3.005-.4.3-.916.56-.668 1.399.633-.259 1.184-.479 1.73-.708q.974-.409 1.94-.83a8.944 7.986 27.975 0 1 1.716-.618c-.539.823-1.359 1.34-2.176 1.87-1.094.712-2.184 1.432-3.225 2.205a6.608 5.9 27.975 0 0-2.028 2.71c1.546-.331 2.867-.998 4.453-2.2.285.986-.295 1.62-.939 2.132-1.354 1.074-2.552 2.376-4.485 2.682-.587.094-.981.417-.715 1.217 1.864-.422 3.31-1.638 5.147-2.055.402.913-.305 1.087-.614 1.433-.63.704-1.731 1.098-1.497 2.332q-.74.695-1.481 1.386c-.417.388-1.12.547-.993 1.358.033.212-.307.486-.54.658-1.221.906-2.477 1.775-3.692 2.69a6.12 5.465 27.975 0 0-.727.877c.919.507 1.45-.49 2.263-.148-.902.879-1.735 1.722-2.614 2.515-.205.185-.577.207-.86.317-.051.135-.125.253-.175.38-.017.047.022.117.035.175.099-.064.28-.124.276-.192-.007-.13-.118-.267-.186-.402Zm-105.204-98.041c-.312.456-.57.817-.81 1.186-1.457 2.225-1.78 4.929-2.896 7.302-.474 1.01-.782 2.103-1.251 3.117-.661 1.43-1.586 2.755-2.072 4.243a92.473 82.57 27.975 0 1-5.385 12.376 11.359 10.142 27.975 0 0-.836 1.84c-.678 2.414-1.815 4.607-3.01 6.78a22.083 19.719 27.975 0 0-1.264 2.633c-.991 2.84-1.882 5.717-2.864 8.56a61.597 55 27.975 0 1-2.09 5.468 33.413 29.835 27.975 0 0-1.956 5.03c-.973 3.807-2.533 7.383-3.865 11.046-1.076 2.96-2.356 5.838-3.513 8.768-.358.905-.585 1.866-.913 2.784a31.351 27.994 27.975 0 1-1.228 3.13c-2.004 3.865-4.078 7.693-6.111 11.542a12.807 11.435 27.975 0 0-.915 2.05c-.727 2.69-1.946 5.179-3.015 7.715-1.135 2.69-2.686 5.199-4.1 7.761a14.7 13.126 27.975 0 1-1.335 1.79c-1.166 1.394-1.891 3.01-2.6 4.784.722.445 1.333.863 1.98 1.213 2.814 1.512 5.603 3.076 8.472 4.477 1.93.942 3.553 2.28 5.076 3.636a96.546 86.207 27.975 0 1 7.56 7.586 16.28 14.536 27.975 0 0 4.88 3.833c2.85 1.485 5.38 3.407 8.092 5.065 2.555 1.562 4.844 3.552 7.374 5.205 1.26.825 2.461 1.725 3.798 2.446a14.36 12.822 27.975 0 1 2.76 1.737 16.84 15.036 27.975 0 0 3.373 2.173c1.484.79 2.961 1.593 4.452 2.369a11.765 10.505 27.975 0 0 1.828.828c2.135.717 4.28 1.397 6.426 2.079 2.859.908 5.666 2.05 8.653 2.394a1.947 1.739 27.975 0 1 .72.2c1.325.683 2.728.714 4.122.817 2.361.175 4.677-.184 7.076.231 1.535.266 3.108.179 4.66.222a5.75 5.134 27.975 0 0 1.674-.105c2.23-.632 4.597-.611 6.934-.653a18.814 16.799 27.975 0 0 3.827-.447q1.752-.394 3.482-.855a8.496 7.586 27.975 0 1 3.595-.322 4.214 3.762 27.975 0 0 1.666-.133c1.921-.49 3.824-1.025 5.729-1.56.817-.226 1.506.243 1.506 1.064a3.254 2.905 27.975 0 1-.031.455c-.24 1.413-.36 2.87-.763 4.228-.487 1.642-.112 3.175.688 4.714.153.293.54.494.842.76a5.315 4.745 27.975 0 0 .544-.61c.914-1.637 1.803-3.29 2.722-4.926.911-1.622 1.427-3.45 2.608-4.936a3.935 3.514 27.975 0 0 .384-1.052c.95-3.095 2.073-6.11 3.767-8.877.51-.832.938-1.712 1.38-2.58a6.547 5.846 27.975 0 0 .621-1.443c.317-1.908 1.277-3.52 2.13-5.19.442-.867.763-1.797 1.147-2.695.528-1.24 1.031-2.493 1.607-3.711 1.724-3.656 4.195-6.946 5.201-10.95a.986.88 27.975 0 1 .096-.205 48.556 43.357 27.975 0 0 2.836-6.368c.46-1.266 1.152-2.436 1.399-3.796a6.228 5.56 27.975 0 1 .604-1.45c.972-1.78 1.938-3.56 2.31-5.603a3.866 3.452 27.975 0 1 .246-.627c1.17-2.76 2.434-5.48 3.487-8.287a69.46 62.023 27.975 0 1 3.033-6.53 10.425 9.308 27.975 0 0 .927-2.044c.356-1.654 1.146-3.095 1.922-4.55 1.06-1.988 2.126-3.971 3.169-5.967.311-.596.558-1.227.817-1.85.578-1.38 1.08-2.799 1.732-4.144.979-2.021 2.226-3.909 2.708-6.165a8.32 7.43 27.975 0 1 .765-1.626c.74-1.392 1.5-2.774 2.24-4.164.245-.463.596-.917.66-1.421.206-1.636 1.087-2.95 1.827-4.335l1.195-2.25c-1.175-1.686-2.484-3.073-4.34-4.043-7.523-3.934-15.002-7.956-22.542-11.856-2.682-1.386-5.474-2.567-8.252-3.747-2.392-1.016-4.864-1.817-7.144-3.12a17.241 15.395 27.975 0 0-2.782-1.161c-2.667-1.004-5.349-1.97-8.012-2.983q-7.993-3.038-15.973-6.113c-1.956-.752-3.94-1.453-5.835-2.343a29.233 26.102 27.975 0 0-4.923-1.868c-1.605-.458-3.286-.802-4.76-1.544-1.904-.956-3.887-1.552-5.862-2.228a15.445 13.791 27.975 0 1-1.661-.564c-2.513-1.16-4.998-2.383-7.521-3.518a14.377 12.838 27.975 0 0-3.305-1.16 9.52 8.501 27.975 0 1-2.812-1.005c-4.108-2.121-8.22-4.231-12.323-6.364a12.51 11.17 27.975 0 0-4.46-1.593Zm21.279 167.25c1.927 1.024 3.318 1.801 4.746 2.503a11.26 10.054 27.975 0 0 2.127.748q7.958 2.227 15.923 4.421c.479.132 1.027.356 1.45.265 1.796-.386 3.552.108 5.286.608a12.186 10.881 27.975 0 0 6.074.435 7.727 6.9 27.975 0 1 1.699-.075c2.675.076 5.048-.758 7.563-1.46a12.801 11.43 27.975 0 1-1.749-5.237c-.11-1.76.868-3.273.891-5.152-1.607.148-2.927.66-4.324.938-.623.124-1.296.41-1.884.269-1.483-.357-2.75.05-4.057.37-1.393.342-2.794.666-4.153 1.088-1.895.587-4.054.273-5.88 1.077a.654.584 27.975 0 1-.481-.043c-.945-.43-1.767-.083-2.611.114a8.244 7.361 27.975 0 1-3.105.246c-1.452-.192-2.923-.01-4.386.011a3.613 3.227 27.975 0 1-.969-.006c-1.241-.322-2.441-.14-3.663-.163-2.443-.048-4.917.014-7.301-1.087-.167-.081-.422.036-1.196.13Zm86.721-75.178c.131.115.263.228.394.344.59-.329 1.186-.646 1.76-.993.084-.052.06-.252.102-.462-.622-.058-1.227-.116-1.914-.179l-.342 1.29Zm-58.998 86.493c.05-.04.1-.08.15-.122-.047-.04-.105-.117-.136-.11a.245.219 27.975 0 0-.125.118c-.009.017.07.075.11.113Z" data-name="Path 1100"/><path fill-rule="evenodd" d="M2848.353 784.537c-.708.906-1.403 1.827-2.14 2.71-.108.129-.549.196-.623.118-.194-.204-.412-.54-.369-.76a2.902 2.591 27.975 0 1 1.622-1.966c.434-.144.853-.319 1.28-.479.075.126.153.252.23.377Z" data-name="Path 1101"/><path fill-rule="evenodd" d="M2839.755 801.104c-.044-1.763.724-2.414 2.735-2.582l-2.735 2.582Z" data-name="Path 1102"/><path fill="#d6d0c0" fill-rule="evenodd" d="M2778.816 814.075c.774-.094 1.029-.21 1.197-.132 2.384 1.101 4.858 1.04 7.3 1.087 1.223.024 2.423-.159 3.664.163a3.61 3.224 27.975 0 0 .969.007c1.463-.021 2.934-.204 4.386-.012a8.244 7.361 27.975 0 0 3.105-.246c.844-.197 1.666-.543 2.611-.114a.654.584 27.975 0 0 .481.043c1.826-.803 3.985-.49 5.88-1.077 1.359-.421 2.76-.745 4.153-1.087 1.307-.32 2.573-.727 4.057-.371.588.141 1.26-.145 1.884-.269 1.396-.276 2.717-.79 4.324-.938-.023 1.879-1.003 3.393-.891 5.152a12.801 11.43 27.975 0 0 1.75 5.237c-2.516.704-4.889 1.538-7.564 1.462a7.727 6.9 27.975 0 0-1.699.075 12.186 10.881 27.975 0 1-6.073-.435c-1.734-.5-3.49-.994-5.286-.608-.425.091-.973-.134-1.45-.265q-7.964-2.198-15.923-4.421a11.257 10.051 27.975 0 1-2.128-.748c-1.43-.7-2.82-1.48-4.747-2.503Z" data-name="Path 1103"/><g fill-rule="evenodd" data-name="Group 703"><path d="M2779.668 692.608c.105-.482.048-1.026.245-1.463a27.087 24.186 27.975 0 0 1.549-4.342c.384-1.775 1.214-3.42 1.842-5.123.477-1.295-.13-2.701-1.66-3.466-3.514-1.756-7.064-3.446-10.604-5.153a4.08 3.643 27.975 0 0-3.305-.326c-.4.777-.745 1.459-1.102 2.135-.751 1.428-1.688 2.785-2.218 4.298-.56 1.596-1.091 3.185-1.997 4.626a24.899 22.233 27.975 0 0-1.064 2.062 3.278 2.927 27.975 0 0 .035 2.637c3.51 1.928 7.336 3.43 11.034 5.188 1.711.812 3.582 1.303 5.396 1.946 1.232-.717 1.59-1.842 1.849-3.019Zm-3.223.838c-2.023-.718-10.23-4.716-12.773-6.214.41-2.343 2.074-4.2 2.625-6.544.53-2.25 1.674-4.313 2.552-6.472 1.653.107 2.805 1.15 4.132 1.728 1.44.63 2.847 1.346 4.24 2.076 1.297.68 2.745 1.128 3.853 2.09a2.542 2.27 27.975 0 1 .033.706q-2.046 6.065-4.136 12.11c-.062.18-.293.296-.526.52Z" data-name="Path 1104"/><path d="M2773.48 707.643c.055 1.01-.477 1.863-.849 2.745-1.168 2.76-2.413 5.486-3.629 8.225-.09.206-.179.413-.282.613-.857 1.632-1.83 2.052-3.99 1.722a4.628 4.132 27.975 0 1-1.26-.233c-3.592-1.606-7.193-3.2-10.742-4.892-1.36-.647-1.41-1.342-1.211-2.732.35-2.438 1.537-4.5 2.622-6.629.405-.795.59-1.692.943-2.514.471-1.09.906-2.182 2.285-2.684.582-.212 1.083-.339 1.673-.113 1.142.437 2.272.909 3.398 1.388a14.168 12.65 27.975 0 0 3.449 1.173c1.818.318 6.208 2.705 7.592 3.931Zm-2.053.438c-1.931-.88-3.612-1.958-5.41-2.382-2.172-.512-4.1-1.45-6.096-2.305a12.718 11.356 27.975 0 0-1.45-.598 1.046.934 27.975 0 0-1.255.435 4.955 4.425 27.975 0 0-.407 1.043c-.452 2.463-1.417 4.735-2.442 6.987a5.577 4.98 27.975 0 0-.293 2.565 2.543 2.27 27.975 0 0 .486.422q4.277 1.995 8.562 3.973a4.176 3.728 27.975 0 0 3.129.291l5.176-10.431Z" data-name="Path 1105"/><path d="M2757.46 747.022a17.37 15.51 27.975 0 1-5.63-1.664c-2.114-1.006-4.18-2.19-6.54-2.585a1.004.897 27.975 0 1-.242-.096c-3.884-1.674-3.854-1.733-2.395-4.739q2.157-4.446 4.262-8.914c.22-.464.354-.967.543-1.492.4-.182.834-.382 1.237-.567.211.055.45.055.523.148a3.402 3.037 27.975 0 0 1.667 1.147c1.7.687 3.359 1.474 5.055 2.168a21.729 19.402 27.975 0 0 2.956.999 15.193 13.566 27.975 0 1 3.92 1.667 9.796 8.747 27.975 0 1-.697 3.49c-1.02 2.167-2.016 4.344-3.019 6.52-.53 1.148-1.167 2.256-1.252 3.57-.01.117-.217.202-.387.348Zm2.592-13.193c-3.881-.541-7.089-2.738-10.506-4.176-.255.17-.441.224-.496.338q-2.225 4.644-4.417 9.3a2.991 2.67 27.975 0 0-.088.709c3.016 2.077 6.44 3.383 9.747 4.905a2.33 2.08 27.975 0 0 .748.203c.817.102 1.542.013 1.858-.736.491-1.166 1.01-2.322 1.446-3.51.484-1.33.834-2.711 1.347-4.029a6.506 5.81 27.975 0 0 .362-3.004Z" data-name="Path 1106"/><path d="M2837.595 749.469c-.27.333-.383.638-.615.726-.908.344-1.815.074-2.71-.373-1.873-.936-3.757-1.855-5.637-2.779a33.2 29.646 27.975 0 0-3.131-1.241c-2.664-1.022-5.55-1.564-7.912-3.32a3.784 3.379 27.975 0 0-2.386-.954 1.031.92 27.975 0 1-.502-.12c-2.046-1.172-4.314-1.794-6.48-2.661-1.772-.708-3.411-1.673-5.353-2.021-1.062-.19-2.08-.867-3.1-1.359-1.102-.53-2.208-1.06-3.263-1.668a6.166 5.506 27.975 0 1-1.817-1.388 3.53 3.152 27.975 0 0-2.644-1.43 11.692 10.44 27.975 0 1-5.563-2.108c-.5-.336-1.109-.53-1.614-.86a4.543 4.056 27.975 0 0-3.918-.775c-1.186.287-2.158-.197-3.186-.72-1.202-.611-1.501-1.54-1.454-2.579.01-.191.385-.336.681-.575a3.75 3.348 27.975 0 1 .475.728 2.427 2.167 27.975 0 0 2.719 1.907c2.17-.05 4.02.73 5.89 1.73 1.848.984 3.777 1.779 5.887 1.993a6.83 6.099 27.975 0 1 3.367 1.334c3.055 1.994 6.232 3.748 9.766 4.844a12.066 10.774 27.975 0 1 1.897.88c1.32.653 2.56 1.503 4.094 1.615a1.096.979 27.975 0 1 .484.187c3.022 1.804 6.529 2.346 9.693 3.81 1.712.793 3.607 1.198 5.417 1.785a6.082 5.43 27.975 0 1 .977.373c3.26 1.64 6.515 3.289 9.938 5.019Z" data-name="Path 1107"/><path d="M2817.703 798.341a8.314 7.423 27.975 0 1-1.636-.45c-2.333-1.206-4.7-2.296-7.275-2.899-.578-.136-1.114-.49-1.682-.712a5.926 5.291 27.975 0 0-1.478-.473c-2.907-.365-5.464-1.563-7.902-3.13a15.85 14.154 27.975 0 0-2.341-1.131c-2.148-.964-4.325-1.865-6.446-2.88-3.253-1.557-6.568-2.822-10.155-3.142-2.503-.223-5.997-1.64-7.8-3.262a8.426 7.524 27.975 0 0-3.397-1.852c-1.485-.504-2.938-1.107-4.422-1.615-1.066-.363-2.163-.63-3.242-.959a15.915 14.21 27.975 0 1-2.444-.822 2.356 2.103 27.975 0 1-1.028-1.06 1.292 1.154 27.975 0 1 .05-1.03.723.646 27.975 0 1 1.113.124c.843.997 1.98 1.298 3.197 1.554a14.603 13.04 27.975 0 1 2.239.725c1.8.664 3.609 1.312 5.384 2.044a13.904 12.415 27.975 0 1 3.01 1.538c2.47 1.74 5.115 2.916 8.142 3.13 1.384.096 2.697.542 4.044.917 4.838 1.346 9.104 4.013 13.77 5.745a9.126 8.148 27.975 0 1 2.016 1.177c1.896 1.265 3.846 2.376 6.202 2.468a1.793 1.6 27.975 0 1 .513.061c3.474 1.138 7.026 2.084 10.205 3.978a4.44 3.965 27.975 0 1 1.172.965c.172.194.115.537.19.991Z" data-name="Path 1108"/><path d="M2738.548 753.154c1.54.598 2.847 1.087 4.136 1.615a34.513 30.817 27.975 0 0 3.7 1.216c1.813.535 3.535 1.452 5.261 2.274.652.31.82.901.533 1.643-.429 1.117-.936 2.202-1.423 3.295a24.57 21.939 27.975 0 0-1.032 3.177c-.406 1.576-1.235 3.033-1.967 4.501-.29.582-.994.724-1.749.41-1.368-.571-2.705-1.216-4.058-1.828a18.096 16.158 27.975 0 0-4.162-1.517 18.91 16.885 27.975 0 1-3.431-1.231 1.676 1.497 27.975 0 1-.899-1.99c.312-.92.652-1.83 1.003-2.732.812-2.09 1.614-4.182 2.471-6.252a11.073 9.887 27.975 0 1 1.617-2.58Zm7.408 16.168c.944-1.181 1.596-2.233 1.694-3.41.125-1.488.817-2.702 1.378-3.996.35-.805.98-1.518.843-2.641-1.141-.52-2.293-1.316-3.51-1.538-2.114-.387-3.917-1.385-5.814-2.233-.54-.243-1.102-.443-1.694-.68-.2.423-.52.751-.484 1.082.18 1.611-.527 2.932-1.162 4.276-.736 1.555-.947 3.258-1.411 4.973.812.37 1.493.844 2.211.974 1.747.318 3.297 1.087 4.885 1.798.95.427 1.895.862 3.064 1.395Z" data-name="Path 1109"/><path d="M2846.964 720.237c-1.068-.295-1.99-.522-2.894-.808-1.402-.443-2.709-1.21-4.237-1.236-.472-.008-.987-.318-1.462-.533-2.07-.938-4.145-1.867-6.19-2.85a10.119 9.035 27.975 0 1-2.21-1.351c-.987-.796-2.03-1.332-3.297-1.316-2.57.034-4.868-.92-7.145-2.081-1.31-.669-2.635-1.349-4.172-1.407a3.89 3.473 27.975 0 1-1.467-.522c-3.18-1.448-6.36-2.9-9.528-4.376a9.204 8.218 27.975 0 1-3.186-2.159c-1.836-1.907-4.287-2.835-6.878-3.412-1.017-.227-2.044-.414-3.047-.693a3.1 2.767 27.975 0 1-1.37-.7 1.226 1.094 27.975 0 1-.3-1.026 1.252 1.118 27.975 0 1 .916-.53 2.872 2.564 27.975 0 1 1.434.516c1.182.766 2.487 1.213 3.785 1.736 2.165.878 4.386 1.723 6.16 3.311a10.16 9.072 27.975 0 0 3.112 1.851c2.645 1.149 5.263 2.358 7.897 3.531 1.192.53 2.345 1.12 3.697 1.229.647.052 1.31.441 1.95.714.884.376 1.757.78 2.63 1.183a8.394 7.495 27.975 0 0 4.246 1.009 7.775 6.942 27.975 0 1 5.786 1.927 6.074 5.423 27.975 0 0 1.562.931c2.972 1.246 5.794 2.802 8.928 3.735 1.703.505 3.238 1.662 4.83 2.554.18.1.24.398.45.773Z" data-name="Path 1110"/><path d="M2775.13 749.947c-.45.2-.876.428-1.337.585-.3.103-.713.241-.973.129-1.596-.692-3.407-.602-4.921-1.547-1.03-.641-1.245-1.13-.95-2.159a7.91 7.063 27.975 0 1 .282-.848 2.37 2.115 27.975 0 1 .426-.404c.211.225.548.431.583.647.174 1.08.908 1.658 2.002 2.006.58.185 1.132.48 1.717.632a3.033 2.709 27.975 0 0 1.484.143c2.21-.592 4.074.393 5.732 1.641a12.301 10.984 27.975 0 0 2.618 1.62l3.106 1.405c1.511.686 2.983 1.513 4.55 2.01a20.884 18.648 27.975 0 0 4.548.82 7.073 6.316 27.975 0 1 4.418 1.967 15.79 14.099 27.975 0 0 4.646 2.808c2.177.906 4.294 1.953 6.45 2.911 1.344.598 2.623 1.357 4.18 1.363.541 0 1.135.404 1.696.645 1.195.516 2.33 1.176 3.686 1.222a3.106 2.773 27.975 0 1 1.209.466 15.972 14.261 27.975 0 0 2.932.991c1.478.415 2.861 1.23 4.266 1.913.131.063.172.408.157.607-.01.1-.224.199-.37.237a.782.698 27.975 0 1-.498-.003c-1.9-.876-3.918-1.372-5.897-1.996-.824-.26-1.587-.669-2.486-.711a3.928 3.508 27.975 0 1-1.475-.466c-1.43-.653-2.832-1.349-4.417-1.557a4.13 3.689 27.975 0 1-1.205-.493c-3.418-1.56-6.826-3.14-10.256-4.674-1.133-.508-2.216-1.06-2.968-2-1.643-2.05-4.006-2.34-6.284-2.375a7.059 6.303 27.975 0 1-3.219-.734c-2.544-1.16-5.103-2.29-7.623-3.5-1.01-.483-1.926-1.15-2.899-1.71-.822-.475-1.667-.915-2.91-1.591Z" data-name="Path 1111"/></g></g><path fill="#009cb2" fill-rule="evenodd" d="M2769.614 677.449c-1.01-.425-1.714-.682-2.383-1.014a.935.835 27.975 0 1-.212-1.38c.545-.556 1.282-.515 2.02-.455 1.45.12 2.5.783 3.06 2.135a5.541 4.948 27.975 0 1 .287 3.165 14.303 12.771 27.975 0 0-.325 4.276c.896.474 1.41-.217 2.08-.31a6.14 5.482 27.975 0 0 1.812-.534c3.277-1.686 6.958-2.439 10.588-3.315 1.543-.373 3.054-.834 4.586-1.242 1.225-.328 2.45-.658 3.686-.952.474-.113.98-.093 1.311.41.287.438.127.919-.49 1.32a14.185 12.666 27.975 0 1-1.99 1.168 74.1 74.1 0 0 1-5.062 1.883c-1.271.415-2.599.712-3.921 1.003a41.86 37.378 27.975 0 0-6.705 2.245 45.8 40.895 27.975 0 1-5.805 1.906c-1.701.44-2.927-.438-3.102-2.147a23.074 20.604 27.975 0 1 .384-6.574 15.761 14.073 27.975 0 0 .181-1.588Z" data-name="Path 1112"/><path fill="#009cb2" fill-rule="evenodd" d="M2759.67 703.26c-1.01-.425-1.715-.682-2.384-1.016a.933.833 27.975 0 1-.21-1.378c.543-.556 1.28-.516 2.018-.456 1.45.12 2.5.784 3.06 2.136a5.533 4.94 27.975 0 1 .287 3.164 14.309 12.776 27.975 0 0-.325 4.277c.895.475 1.41-.217 2.08-.31a6.19 5.526 27.975 0 0 1.813-.534c3.276-1.686 6.957-2.44 10.587-3.316 1.544-.373 3.056-.832 4.588-1.242 1.224-.328 2.449-.658 3.685-.952.475-.113.98-.093 1.311.411.287.437.127.918-.49 1.32a14.226 12.703 27.975 0 1-1.99 1.167 74.406 74.406 0 0 1-5.062 1.883c-1.27.414-2.598.712-3.921 1.003a42.005 37.507 27.975 0 0-6.704 2.244 45.756 40.856 27.975 0 1-5.806 1.907c-1.7.44-2.927-.438-3.101-2.148a23.037 20.57 27.975 0 1 .383-6.573 15.874 14.174 27.975 0 0 .18-1.588Z" data-name="Path 1113"/></g><g data-name="Group 776"><g fill="#323f51" data-name="Group 701"><path d="M3314.71 42.086c-10.023-36.193-1.687-74.414-9.309-111.005-.414-1.99-3.447-1.43-3.62.339a1.886 1.745 0 0 0-1.452-.322c-50.421 7.123-101.882 2.622-152.557.438 7.556-6.609 16.156-12.106 23.69-18.73a2.008 1.858 0 0 0 .349-.424c11.202.184 22.418.644 33.642 1.105q3.232 4.894 6.483 9.782c1.251 1.882 4.496.203 3.236-1.69q-2.628-3.951-5.248-7.91c8.787.358 17.577.693 26.362.88q-1.592 3.415-3.14 6.835c-.928 2.048 2.652 2.982 3.566.966q1.755-3.869 3.564-7.726c12.21.192 24.413.056 36.589-.755a1.922 1.778 0 0 0 1.788-1.582c9.449 2.957 16.13 9.544 22.286 16.536 1.514 1.722 4.17-.685 2.666-2.392-6.663-7.568-13.963-14.444-24.215-17.547-1.33-.4-2.228.551-2.303 1.551a1.493 1.381 0 0 0-.164-.004c-11.66.782-23.34.937-35.027.782 2.55-5.324 5.213-10.602 8.08-15.767a2.147 1.987 0 0 0 .088-.202l.091-.036c.172.062.343.122.51.18.983.33 1.996-.329 2.306-1.17.656-1.788 2.529-7.726-1.09-8.258a3.127 2.893 0 0 0-.858-.013c-.77-1.05-2.875-1.18-3.362.407-.497 1.614-1.697 3.164-1.664 4.887a3.481 3.221 0 0 0 .971 2.18 2.078 1.922 0 0 0-.172.246c-3.173 5.723-6.108 11.578-8.91 17.481-10.097-.195-20.199-.598-30.296-1.012-3.563-5.414-7.097-10.842-10.54-16.32a1.703 1.576 0 0 0-1.33-.826c.116-.721-.106-1.566-.223-2.23-.06-.348-.122-.813-.206-1.315.01-.024.016-.053.028-.08 2.028-.643 1.087-3.706-1.168-3.257a6.07 6.07 0 0 1-.477.072 2.001 1.851 0 0 0-.683-.186 1.973 1.826 0 0 0-.402-.019h-.033a2.257 2.089 0 0 0-.315.03 1.422 1.315 0 0 0-.5.182h-.038a5.594 5.176 0 0 0-2.57.285c-2.29.875-1.65 3.73-1.147 5.54-.108 1.091.938 2.023 2.297 2.29a20.531 18.996 0 0 0 2.963.307 2.12 1.961 0 0 0 .314.046 1.824 1.688 0 0 0 .256.853q4.567 7.268 9.303 14.443c-10.7-.439-21.396-.86-32.073-1.023a1.695 1.568 0 0 0-1.72 1.116 2.066 1.911 0 0 0-.453.295c-7.638 6.714-16.373 12.265-24.002 19a1.689 1.563 0 0 0-.26 2.079c-2.225.051-2.243 3.271.031 3.423a1.914 1.77 0 0 0-.362 1.316c3.886 27.633.776 55.416 3.075 83.087.877 10.587 1.98 23.628 14.73 27.269 3.89 1.109 8.053 1.521 12.214 1.74-.256 1.456-.52 2.911-.813 4.36a1.639 1.516 0 0 0-.116.294c-.409 1.534-.699 3.089-.994 4.642a64.811 64.811 0 0 1-1.98 6.49c-.717 1.957 2.199 2.863 3.375 1.372.229-.292.437-.595.65-.896a1.608 1.488 0 0 0 1.428-1.206c.202-.711.392-1.422.582-2.135l.09-.174c.056-.101.105-.206.155-.309l.044-.087a22.758 21.056 0 0 0 2.086-7.553c.347-1.43.667-2.866.998-4.299a1.922 1.779 0 0 0 .038-.277c1.046.036 2.086.072 3.111.12 6.426.296 12.854.506 19.277.869 16.602.93 33.188 2.07 49.814 2.581 11.923.369 23.938.513 35.836-.467a1.814 1.679 0 0 0-.248 1.281c.888 4.117 2.682 7.885 4.638 11.65a1.613 1.493 0 0 0 .861.772l.053.1c.812 1.564 3.486.84 3.476-.817 0-.091-.007-.18-.008-.273a1.689 1.562 0 0 0 .907-1.89c-.982-2.864-2.064-5.628-3.766-8.2a1.792 1.658 0 0 0-1.058-.759l-.03-.052c-.085-.158-.263-.694-.405-.99a1.543 1.428 0 0 0-.601-1.15c6.588-.613 15.25-1.547 19.692-6.253a1.878 1.737 0 0 0 .48-1.054c1.228.701 3.304-.184 2.838-1.857Zm-5.901.447c-3.018 3.196-8.557 3.984-12.819 4.687-7.45 1.23-15.104 1.464-22.652 1.595-17.72.313-35.459-.682-53.134-1.722-14.169-.836-28.332-1.477-42.506-2.191-6.03-.303-13.016-.293-18.388-3.203-5.085-2.76-6.327-8.95-7.21-13.87-2.588-14.48-1.616-29.568-1.638-44.182-.027-16.155-.328-32.314-2.584-48.353a1.816 1.68 0 0 0-.078-.316c51.008 2.19 102.708 6.617 153.463-.554a1.643 1.52 0 0 0 .944-.418c6.859 35.73-.826 72.906 8.726 108.246a1.535 1.42 0 0 0-2.124.28Z" data-name="Path 1095"/><path d="M3267.34 24.413c-3.665-8.273-3.048-18.546-3.302-27.3-.201-7.005-.24-13.857.005-20.855.254-7.183-.11-17.588-4.608-23.854a1.77 1.638 0 0 0-1.563-1.829c-2.773-2.721-6.737-4.142-12.363-3.276-2.515-.22-5.085-.194-7.414-.208-11.428-.072-22.765-1.722-34.211-1.225-3.536.152-7.058.43-10.574.73-10.622-.247-21.221.135-31.774 1.795-1.837.29-1.665 2.368-.394 3.1q.476 2.311.847 4.63a8.051 7.45 0 0 0 .26 1.717c3.445 23.522.056 47.812 5.947 70.98a1.767 1.635 0 0 0 .422.751c.02.025.046.043.067.068.039.036.077.072.12.104a1.696 1.57 0 0 0 1.162.365c29.23-.361 58.41 1.445 87.62 2.074a7.1 6.57 0 0 0 7.284.43c3.368-1.761 3.81-5.161 2.47-8.197Z" data-name="Path 1096"/><path d="M3291.511-42.726c1.266-1.35-.455-3.265-2.03-2.737-5.046-5.357-13.13-3.192-17.624 2.475-4.883 6.162-2.31 15.965 5.47 18.856 6 2.23 12.638-2.298 15.528-6.866 2.774-4.388 1.88-8.713-1.344-11.728Zm-17.546 3.211c1.945-3.99 6.937-6.874 10.805-5.095a2.007 1.857 0 0 0 .98 2.323c-3.772 3.481-7.39 7.082-10.471 11.131a1.572 1.455 0 0 0-.235 1.401c-2.05-2.778-2.382-7.085-1.078-9.76Zm5.796 12.408a5.926 5.483 0 0 1-4.092-1.913 1.93 1.785 0 0 0 2.79-.353c3.056-4.019 6.694-7.55 10.457-10.984 4.889 4.831-1.689 13.726-9.155 13.25Z" data-name="Path 1097"/><path d="M3293.303-10.507a2.113 1.955 0 0 0-1.992-1.409c-4.732-3.811-11.132-3.513-15.45 1.275-4.325 4.797-4.301 11.616 1.133 15.588 5.894 4.307 14.038 2.009 18.287-3.043 3.8-4.515 2.386-9.64-1.978-12.41Zm-14.897 2.401c2.513-3.354 6.237-3.732 9.356-1.948a2.359 2.183 0 0 0 .073.277A70.309 65.053 0 0 0 3277.402.52c-1.755-2.546-.89-6.094 1.005-8.626Zm13.696 8.23c-2.744 3.596-7.8 4.445-11.87 2.612a66.45 61.482 0 0 1 10.69-10.452 1.514 1.4 0 0 0 .423.052c2.812 1.755 3.091 4.725.757 7.789Z" data-name="Path 1098"/></g></g><path fill="none" stroke="#502831" stroke-linecap="round" stroke-linejoin="round" stroke-width="3" d="M3173.76 789.187c-2.928 1.663-5.885 3.346-8.655 7.346-2.77 4-5.391 10.523-7.022 20.083a88.72 88.72 0 0 0-1.269 13.6c-.051 5.292 22.856-1.731 29.124-2.027" data-name="Path 380"/><path fill="none" stroke="#502831" stroke-linecap="round" stroke-linejoin="round" d="M3458.57 748.915c-15.927 1.663-14.963 55.071-10.521 59.071 4.442 4 49.629-2.934 55.897-3.23" data-name="Path 380" style="stroke-width:2px"/><g fill="#903" data-name="Group 907"><path d="M2459.102 716.658h85.835a6.258 6.628 0 0 1 6.258 6.629 6.258 6.628 0 0 1-6.258 6.628h-85.835a6.258 6.628 0 0 1-6.258-6.628 6.258 6.628 0 0 1 6.258-6.629Z" data-name="Path 211"/><path d="M2524.624 695.132a6.258 6.628 0 0 1 4.428 1.942l20.308 21.528a6.258 6.628 0 0 1 0 9.38l-20.308 21.53a6.258 6.628 0 0 1-8.855 0 6.258 6.628 0 0 1 0-9.372l15.891-16.848-15.89-16.842a6.258 6.628 0 0 1 0-9.38 6.243 6.613 0 0 1 4.426-1.938Z" data-name="Path 212"/></g></svg>