<svg xmlns:bx="https://boxy-svg.com" viewBox="89.966 -106.254 806.669 1051.812" xmlns="http://www.w3.org/2000/svg"><defs><clipPath id="Hyposomnia_svg__a"><path fill="#323f51" d="M0 0h35.569v27.465H0z" data-name="Rectangle 374"/></clipPath><clipPath id="Hyposomnia_svg__b"><path d="M0 0h1166v1094H0z"/></clipPath><clipPath id="Hyposomnia_svg__c"><path d="M0 0h545v513H0z"/></clipPath><clipPath id="Hyposomnia_svg__d"><path d="M0 0h1166v1094H0z"/></clipPath><clipPath id="Hyposomnia_svg__e"><path d="M0 0h545v513H0z"/></clipPath><clipPath id="Hyposomnia_svg__f"><path fill="#323f51" d="M0 0h35.569v27.465H0z" data-name="Rectangle 374"/></clipPath><clipPath id="Hyposomnia_svg__g"><path d="M0 0h1166v1094H0z"/></clipPath><clipPath id="Hyposomnia_svg__h"><path d="M0 0h545v513H0z"/></clipPath><clipPath id="Hyposomnia_svg__i"><path d="M0 0h1166v1094H0z"/></clipPath><clipPath id="Hyposomnia_svg__j"><path d="M0 0h545v513H0z"/></clipPath><clipPath id="Hyposomnia_svg__k"><path d="M0 0h515v537H0z"/></clipPath><clipPath id="Hyposomnia_svg__l"><path d="M0 0h505v537H0z"/></clipPath><clipPath id="Hyposomnia_svg__m"><path fill="#323f51" d="M17226.065 1685.887h35.575v27.472h-35.575z" data-name="Rectangle 374"/></clipPath></defs><g data-name="Group 831" transform="translate(11492.132 -3701.912)"><g fill="#fff" data-name="Path 1219"><path d="M-10838.537 4227.635c-2.911 0-5.857-.377-8.755-1.12-2.505-.643-5.05-1.58-7.567-2.784-4.7-2.25-8.421-4.984-11.138-6.98-1.047-.77-1.952-1.434-2.747-1.947-1.12-.723-2.488-1.461-4.152-1.476l-349.148-4.17c-.509-.356-1.626-1.245-3.558-3.295-2.221-2.356-4.883-5.585-7.7-9.336-4.725-6.296-12.25-17.198-21.257-33.378-8.759-15.731-16.858-32.746-24.073-50.573a498.446 498.446 0 0 1-21.176-64.814c-.078-.692-.26-1.788-.643-4.083-.895-5.353-2.561-15.317-4.027-28.071-1.794-15.614-2.725-30.55-2.768-44.394-.055-18.187 1.428-34.491 4.408-48.46 1.709-8.01 3.938-15.356 6.625-21.835 2.878-6.94 6.352-13.056 10.328-18.18 2.35-3.029 4.927-5.776 7.659-8.164a52.458 52.458 0 0 1 9.135-6.418 54.159 54.159 0 0 1 10.832-4.506c3.997-1.181 8.305-1.975 12.806-2.36 1.925-.164 80.337-5.747 84.217-6.022 53.708-.53 89.124-2.651 114.994-4.2 16.284-.976 29.146-1.747 40.449-1.747 7.271 0 13.532.31 19.703.976 6.462.698 12.973 1.819 19.906 3.428 6.987 1.621 14.737 3.816 23.693 6.709 8.583 2.772 18.382 6.21 30.84 10.817 22.665 8.383 42.743 15.928 58.915 23.377 7.96 3.667 14.65 7.162 20.453 10.684 6.043 3.67 11.188 7.405 15.73 11.42a84.007 84.007 0 0 1 12.182 13.315c3.598 4.892 6.813 10.323 9.829 16.603 5.645 11.757 10.688 26.69 16.352 48.418 5.463 20.961 9.187 38.104 11.72 53.95 3.158 19.755 4.443 37.43 3.928 54.035-.283 9.14-1.136 18.061-2.535 26.515-1.479 8.936-3.619 17.66-6.36 25.932a160.825 160.825 0 0 1-10.82 25.207c-4.475 8.362-9.806 16.51-15.847 24.219-7.453 8.218-14.964 14.287-22.327 18.04-3.198 1.63-6.421 2.849-9.58 3.62a35.971 35.971 0 0 1-8.526 1.048Z"/><path fill="#323f51" d="M-11005.793 3854.322c-11.153 0-23.95.767-40.15 1.737-25.947 1.554-61.481 3.683-114.804 4.188-2.197.152-81.855 5.826-84.28 6.026-15.676 1.34-27.749 7.729-36.908 19.532-21.139 27.24-25.963 83.015-13.584 157.05.25 1.493.43 2.721.553 3.66 22.848 90.56 64.798 148.678 74.699 157.664l347.319 4.148c3.93 0 6.57 1.94 9.911 4.395 5.047 3.707 13.492 9.913 24.5 9.913 11.73 0 24.124-7.13 36.392-20.659 47.981-61.101 37.543-134.947 19.117-205.645-20.244-77.67-36.41-85.642-130.358-120.39-46.434-17.174-65.434-21.619-92.407-21.619m0-10c28.295 0 48.384 4.675 95.876 22.24 97.022 35.885 115.259 45.502 136.565 127.246 18.622 71.445 30.509 148.843-20.928 214.344-16.95 18.742-31.978 24.483-44.257 24.483-19.392 0-31.935-14.308-34.411-14.308l-349.97-4.179c-6.952 0-56.553-65.02-81.838-165.56 0-4.285-38.452-183.96 58.877-192.278 1.953-.167 82.234-5.886 84.441-6.039 87.704-.86 126.136-5.949 155.645-5.949Z"/></g><g fill="none" stroke-width="30" data-name="Group 829"><path stroke="#485c74" stroke-linecap="round" d="m-10804.217 4374.56 7.974-39.794" data-name="Line 34"/><path stroke="#5babb6" stroke-linecap="square" d="M-10794.17 4323.657s17.133-203.246-82.958-232.948" data-name="Path 820"/></g><g fill="none" stroke-width="30" data-name="Group 830"><path stroke="#485c74" stroke-linecap="round" d="m-11256.73 4374.56-7.974-39.794" data-name="Line 35"/><path stroke="#5babb6" stroke-linecap="square" d="M-11266.779 4323.657s-17.132-203.245 82.959-232.948" data-name="Path 821"/></g><path fill="#6ac0d0" d="M-11084.708 3906.419c-43.2 23.955-69.376 69.847-87.929 115.614a632.314 632.314 0 0 0-44.991 274.327c1.081 17.964 3.071 36.386 11.336 52.375 10.483 20.294 30 34.487 50.454 44.658 38.82 19.316 82.584 26.624 125.883 28.954 36.81 1.976 74.617.367 108.966-13.007s65-40.1 75.726-75.38c6.351-20.863 5.464-43.16 4.521-64.952l-2.787-64.363c-2.482-57.457-5.158-115.92-24.461-170.1s-58.11-104.386-112.488-123.085c-17.313-5.963-38.4-20.017-56.472-17.042-39.229 6.455-20.6 2.33-47.757 12" data-name="Path 1218"/><circle cx="11.729" cy="11.729" r="11.729" fill="none" stroke="#4d5c70" stroke-linecap="round" stroke-miterlimit="10" stroke-width="5" data-name="Ellipse 117" transform="translate(-11014.067 4031.006)"/><circle cx="4.133" cy="4.133" r="4.133" fill="#4d5c70" data-name="Ellipse 118" transform="translate(-11006.49 4038.602)"/><circle cx="11.729" cy="11.729" r="11.729" fill="none" stroke="#4d5c70" stroke-linecap="round" stroke-miterlimit="10" stroke-width="5" data-name="Ellipse 119" transform="translate(-11087.379 4031.006)"/><circle cx="4.133" cy="4.133" r="4.133" fill="#4d5c70" data-name="Ellipse 120" transform="translate(-11079.801 4038.602)"/><path fill="none" stroke="#4d5c70" stroke-linecap="round" stroke-miterlimit="10" stroke-width="5" d="M-11011.199 4116.903a132.863 132.863 0 0 0-13.215-2.808 56.175 56.175 0 0 0-28.947 3.189 43.187 43.187 0 0 0-21.757 18.991" data-name="Path 1220"/><path fill="#6ac0d0" d="m-10860.005 4059.39 6.67 32.185 4.454 31.781-59.642-4.636-21.642-42.924Z" data-name="Path 1221"/><path fill="none" stroke="#4d5c70" stroke-linecap="round" stroke-miterlimit="10" stroke-width="5" d="M-11010.929 4009.36c9.215 1.928 16.12 6.829 22.977 13.118" data-name="Path 1224"/><path fill="none" stroke="#4d5c70" stroke-linecap="round" stroke-miterlimit="10" stroke-width="5" d="M-11066.916 4009.36c-9.214 1.928-16.113 6.829-22.977 13.118" data-name="Path 1225"/><path fill="none" stroke="#4d5c70" stroke-linecap="round" stroke-miterlimit="10" stroke-width="5" d="M-11011.026 4063.544c5.789 1.941 11.336 1.38 17.341 0" data-name="Path 1222"/><path fill="none" stroke="#4d5c70" stroke-linecap="round" stroke-miterlimit="10" stroke-width="5" d="M-11084.341 4063.544c5.8 1.941 11.343 1.38 17.34 0" data-name="Path 1223"/><g stroke="#323f51" stroke-linecap="round" stroke-miterlimit="10" stroke-width="10" data-name="Group 828"><path fill="#fff" d="M-11297.941 4537.676s-25.038-146.011-19.82-219.626 96.78-108.26 211.782-109.527 164.321 34.691 164.321 34.691 128.116 15.049 170.821 74.836 0 164.313 0 164.313" data-name="Path 829"/><path fill="none" d="m-10770.838 4318.049-114.6 50.524-56.22-125.359" data-name="Path 830"/></g><g fill="#fff" data-name="Path 1219"><path d="M-9997.257 4218.555c-2.912 0-5.858-.377-8.756-1.12-2.505-.643-5.05-1.58-7.567-2.784-4.7-2.25-8.421-4.984-11.138-6.98-1.047-.77-1.952-1.434-2.747-1.947-1.12-.722-2.488-1.461-4.152-1.476l-349.148-4.17c-.509-.355-1.626-1.245-3.558-3.295-2.22-2.356-4.883-5.585-7.7-9.336-4.725-6.296-12.25-17.198-21.257-33.377-8.759-15.732-16.858-32.747-24.073-50.574a498.446 498.446 0 0 1-21.176-64.814c-.078-.691-.26-1.788-.643-4.082-.895-5.353-2.561-15.317-4.027-28.072-1.794-15.614-2.725-30.55-2.768-44.393-.055-18.187 1.428-34.492 4.408-48.46 1.709-8.01 3.938-15.356 6.625-21.836 2.878-6.94 6.353-13.056 10.328-18.18 2.35-3.028 4.927-5.775 7.66-8.164a52.458 52.458 0 0 1 9.134-6.418 54.159 54.159 0 0 1 10.833-4.506c3.996-1.18 8.304-1.975 12.805-2.36 1.925-.164 80.337-5.747 84.217-6.021 53.708-.53 89.124-2.652 114.994-4.202 16.284-.975 29.146-1.746 40.449-1.746 7.272 0 13.532.31 19.703.976 6.462.698 12.973 1.819 19.906 3.428 6.987 1.622 14.737 3.816 23.693 6.71 8.583 2.771 18.382 6.209 30.84 10.816 22.665 8.383 42.743 15.928 58.916 23.377 7.96 3.667 14.65 7.162 20.452 10.685 6.043 3.669 11.188 7.404 15.73 11.42a84.007 84.007 0 0 1 12.182 13.314c3.598 4.892 6.813 10.323 9.829 16.603 5.645 11.757 10.689 26.69 16.352 48.419 5.463 20.96 9.187 38.103 11.72 53.948 3.158 19.757 4.443 37.432 3.928 54.036-.283 9.14-1.136 18.061-2.535 26.515-1.479 8.936-3.619 17.66-6.36 25.933a160.825 160.825 0 0 1-10.82 25.206c-4.475 8.362-9.806 16.51-15.847 24.22-7.453 8.217-14.964 14.286-22.327 18.04-3.198 1.63-6.421 2.848-9.58 3.62a35.971 35.971 0 0 1-8.525 1.047Z"/><path fill="#323f51" d="M-10164.514 3845.242c-11.153 0-23.95.767-40.15 1.737-25.947 1.555-61.481 3.683-114.804 4.188-2.197.153-81.855 5.826-84.28 6.026-15.676 1.34-27.749 7.73-36.908 19.532-21.139 27.24-25.963 83.015-13.584 157.05.25 1.493.43 2.722.553 3.66 22.848 90.56 64.798 148.679 74.7 157.664l347.318 4.148c3.93 0 6.57 1.94 9.911 4.395 5.047 3.707 13.492 9.913 24.5 9.913 11.73 0 24.124-7.13 36.392-20.658 47.981-61.102 37.544-134.947 19.117-205.646-20.244-77.669-36.41-85.642-130.358-120.39-46.434-17.174-65.434-21.619-92.407-21.619m0-10c28.295 0 48.384 4.675 95.876 22.24 97.022 35.885 115.259 45.502 136.565 127.247 18.622 71.444 30.509 148.842-20.928 214.344-16.95 18.742-31.978 24.482-44.257 24.482-19.392 0-31.934-14.308-34.411-14.308l-349.97-4.179c-6.952 0-56.553-65.019-81.838-165.56 0-4.285-38.452-183.96 58.877-192.278 1.953-.167 82.234-5.886 84.441-6.039 87.704-.86 126.136-5.949 155.645-5.949Z"/></g><g fill="none" stroke-width="30" data-name="Group 829"><path stroke="#485c74" stroke-linecap="round" d="m-9962.938 4365.48 7.974-39.794" data-name="Line 34"/><path stroke="#5babb6" stroke-linecap="square" d="M-9952.89 4314.577s17.132-203.246-82.959-232.948" data-name="Path 820"/></g><g fill="none" stroke-width="30" data-name="Group 830"><path stroke="#485c74" stroke-linecap="round" d="m-10415.45 4365.48-7.974-39.794" data-name="Line 35"/><path stroke="#5babb6" stroke-linecap="square" d="M-10425.5 4314.577s-17.131-203.245 82.96-232.948" data-name="Path 821"/></g><path fill="#6ac0d0" d="M-10243.429 3897.339c-43.2 23.955-69.376 69.847-87.929 115.614a632.326 632.326 0 0 0-44.991 274.327c1.081 17.964 3.071 36.386 11.336 52.375 10.483 20.294 30 34.487 50.454 44.658 38.82 19.316 82.584 26.624 125.883 28.954 36.81 1.976 74.617.367 108.966-13.007 34.349-13.374 65-40.1 75.726-75.38 6.351-20.863 5.464-43.16 4.521-64.952l-2.787-64.363c-2.482-57.457-5.158-115.92-24.461-170.1-19.303-54.18-58.11-104.386-112.488-123.085-17.313-5.963-38.4-20.017-56.472-17.042-39.229 6.455-20.6 2.33-47.757 12" data-name="Path 1218"/><path fill="#6ac0d0" d="m-10018.726 4050.31 6.67 32.185 4.454 31.781-59.642-4.636-21.642-42.924Z" data-name="Path 1221"/><path fill="none" stroke-linecap="round" stroke-miterlimit="10" stroke-width="5" d="M-10156.434 4004.539c9.215 1.928 16.12 6.829 22.977 13.118" data-name="Path 1224" style="stroke:#323f51" transform="rotate(-17.951 -10144.937 4011.11)"/><path fill="none" stroke-linecap="round" stroke-miterlimit="10" stroke-width="5" d="M-10237.745 4005.659c-9.214 1.928-16.113 6.829-22.977 13.118" data-name="Path 1225" style="stroke:#323f51" transform="rotate(19.606 -10249.234 4012.208)"/><g stroke="#323f51" stroke-linecap="round" stroke-miterlimit="10" stroke-width="10" data-name="Group 828"><path fill="#fff" d="M-10456.661 4528.597s-25.038-146.011-19.82-219.626 96.78-108.26 211.782-109.527 164.32 34.69 164.32 34.69 128.117 15.05 170.822 74.837 0 164.313 0 164.313" data-name="Path 829"/><path fill="none" d="m-9929.558 4308.97-114.6 50.524-56.22-125.36" data-name="Path 830"/></g><g><path bx:shape="crescent 404.343 280.027 56.335 239 0.64 1@07131189" d="M376.602 230.996a56.335 56.335 0 1 1 0 98.062 49.386 49.386 0 0 0 0-98.062Z" style="fill:#323f51" transform="matrix(-2.1306 1.35524 -1.27975 -2.0384 -9555.66 3851.127)"/><path bx:shape="star 693.772 217.481 14.87 15.131 0.542 5 1@db2288c9" d="m693.772 202.35 4.737 8.496 9.405 1.959-6.477 7.21 1.075 9.707-8.74-4.04-8.74 4.04 1.075-9.707-6.477-7.21 9.405-1.959Z" style="fill:#323f51" transform="scale(-2.12069 -2.1346) rotate(-33.061 -439.677 -8078.611)"/><path bx:shape="star 693.772 217.481 11.184 12.283 0.542 5 1@e2b1ef89" d="m693.772 205.198 3.563 6.897 7.074 1.59-4.872 5.853.809 7.88-6.574-3.28-6.574 3.28.809-7.88-4.872-5.853 7.074-1.59Z" style="fill:#323f51" transform="scale(-2.12069 -2.1346) rotate(-33.061 -465.937 -8162.74)"/><path bx:shape="star 693.772 217.481 11.64 12.771 0.542 5 1@99adbf90" d="m693.772 204.71 3.708 7.171 7.362 1.654-5.07 6.085.842 8.193-6.842-3.41-6.842 3.41.842-8.193-5.07-6.085 7.362-1.654Z" style="fill:#323f51" transform="scale(-2.12069 -2.1346) rotate(-33.061 -531.235 -8114.021)"/></g><path fill="#323f51" d="M1779.581 1798.383c1.779-.832 7.024-3.289 6.673-5.909a3.37 3.37 0 0 1 .376-.319c-.741-.076-.292-.636.094-.085a7.814 7.814 0 0 1-.392-1.658c-2.631.153-15.187-2.376-14.338.068-.62-1.016-.89-.153-1-.056.173.223.365.432.573.624-1.477.822-2.258 1.866.117 2.18 2.654.351 5.444.631 8.205.819a14.648 14.648 0 0 1-3.223 2.189l-.389.185c.476-.471.865-.962.132-.7-.26.286-.478.607-.649.954-2.484 1.261-4.259 2.761-3.685 3.921.063.874.91 1.106 1.753 1.208l-.068.032.068-.032c.022.016-.013.019-.068.032-.1.048.16.156.229.17.081-.09.1-.142.087-.175l.194.019c.615.157 1.239.274 1.869.351.617.078 2.271.346 4.134.5.059.219.129.377.214.276-.028.034-.01-.09.021-.255.556.041 1.126.069 1.693.082-.206.122-.587.216-.451.3.22-.044.424-.148.589-.3.062 0 .125.006.188.006.112.141.417.147.959-.015 2.248-.091 4.117-.609 4.117-2.114 0-1.938-4.192-2.279-8.02-2.3m-2.091-8.506a1.13 1.13 0 0 1-.123.17h-.213c-.016-.244.156-.7.336-.169m-.862.084c.044-.122.1-.166.157-.132-.01.091-.019.15-.028.213h-.13v-.079m-.363.074h-.12a3.424 3.424 0 0 1-.09-.236s-.016-.034-.044-.113c.117-.072.214.166.254.352m-3.872.537s.1-.013.189-.016a.21.21 0 0 1-.189.016" clip-path="url(#Hyposomnia_svg__a)" data-name="Path 1341" transform="translate(-9871.63 3399.97)"/><path fill="#323f51" d="M1805.735 1789.42c-.007-1.594-5.945-1.86-10.132-1.9.189-.189.379-.389.568-.609.134-.044.263-.101.386-.169a1.65 1.65 0 0 1-.094-.182c.028-.034.054-.063.081-.1.021.079.037.16.048.242.324-.445.683-.865 1.071-1.255a.23.23 0 0 0 .087.088c.056.025.076-.107.054-.235 2.048-2.121 5.5-5.265 4.556-6.341.053-.022.1-.037.153-.06.3.057.323-.079.28-.236.135-.025.21-.047.2-.072a3.822 3.822 0 0 0-.429-.581c.053-.455-.68-.691-.871-1.009.069.106.117.226.142.351a4.718 4.718 0 0 0-.515-.31c.308-.2-.1-.258-.344-.156a6.729 6.729 0 0 0-1.053-.339c.129-.825-.208-.269-.172-.041a25.418 25.418 0 0 0-5.532-.25 1.368 1.368 0 0 0-.157.015 2.263 2.263 0 0 1-.6-.511c-.046-.079-.037-.1-.009-.113a4.772 4.772 0 0 1-.818.3.501.501 0 0 0 0-.164c-.018-.06-.078.057-.106.192-1.36.346-3.3.417-3.121.021-.363.791-.622.489-.558 1.572-.276-2.3.034.913-.247-.529.016.088.076.363.139.675-1.379.533-2.066 1.06-.465 1.286.159.021.439.038.806.05-.028.1-.037.185.018.235.011-.078.018-.155.022-.233 1.511.047 4.5.018 7.319-.057a.304.304 0 0 0-.181.314c-.029 1.069.369-.11.429-.32l.976-.028c.069.1.144.144.22.109.076-.035.137-.084.207-.123l.827-.029a.483.483 0 0 0-.115.317c-.046.476.229-.185.229-.322l.5-.019c-.26.239-.323.363-.3.42a36.123 36.123 0 0 0-4.096 3.663.145.145 0 0 0-.069-.081c-.132-.063-.214.142-.141.294a54.998 54.998 0 0 0-4.332 4.945.6.6 0 0 0-.056.694.703.703 0 0 0-.119.369 5.474 5.474 0 0 0 2.1.837c.938.4.743.232.443.029.241.068.495.131.758.189.075 1.053 1.59.712 2.42.42.4.051.807.1 1.217.134a.336.336 0 0 0-.1.279c.032.4.313-.025.382-.254.73.062 1.465.1 2.182.113-.106.07-.2.138-.253.117.092.038.257-.04.4-.116.681.01 1.342 0 1.957-.041 2.188-.138 3.811-.6 3.807-1.486m-5.4-8.9-.075.106a.274.274 0 0 1 .075-.106m1.288-1.7a.239.239 0 0 1-.019.144Zm-1.892 2.728.085-.148c.2.151.053.2-.085.148m.5.669c-.561-1.135.806.417 0 0m.332-.37c-.711-.721-.07-.226-.032-.173.073.1.085.161.032.173m.433-.348c.05.37-1.509-.753 0 0m-10.341-4.851c-.014.153-.04.305-.079.455-.081-.155-.038-1.081.079-.455m-.238.041c.006.254.006.393 0 .46a1.276 1.276 0 0 1-.048-.313c.007-.125.023-.175.046-.147m-1.008-.21h-.082c.019-.084.138-.637.082 0m.746.153c.113-.248.2.21.22.533-.037.01-.072.022-.109.031a8.798 8.798 0 0 1-.112-.564m9.379 2.259.333-.015c-.06.04-.123.085-.186.128a.285.285 0 0 0-.147-.113m-4.905 11.55.336.057c-.277.032-.374-.015-.336-.057" clip-path="url(#Hyposomnia_svg__a)" data-name="Path 1342" transform="translate(-9871.63 3399.97)"/><path fill="#323f51" d="M1790.215 1790.046c.437.288.986.35 1.477.169 0 0-1.875-.78-1.477-.169" clip-path="url(#Hyposomnia_svg__a)" data-name="Path 1343" transform="translate(-9871.63 3399.97)"/><path fill="none" stroke="#323f51" stroke-linecap="round" stroke-miterlimit="10" stroke-width="5" d="M-10177.359 4045.966c-1.355 2.019-2.767 4.015-4.156 6.014-1.673 2.31-1.566 5.248.273 7.465 2.87 3.382 12.084 6.026 15.088 6.74 8.982 2.141 9.254-5.488 11.656-9.062" data-name="Path 605" transform="rotate(-30.001 -10168.595 4056.267)"/><path fill="none" stroke="#323f51" stroke-linecap="round" stroke-miterlimit="10" stroke-width="5" d="M-10233.38 4049.859c-1.356 2.019-2.767 4.016-4.156 6.015-1.675 2.31-1.565 5.25.276 7.464 2.87 3.382 12.082 6.027 15.085 6.74 8.982 2.141 9.258-5.488 11.657-9.062" data-name="Path 606" transform="rotate(-30.001 -10224.615 4060.16)"/></g><g data-name="Group 761"><g data-name="Group 687" transform="matrix(2.80681 2.06086 -1.92621 2.62342 1475.8 -79.37)"><path d="M17.54 0c12.1 0 21.91 9.071 21.91 20.261s-3.725 16.654-24.74 20.26C2.609 40.521 0 16.633 0 16.633S5.439 0 17.54 0Z" data-name="Path 442" style="fill:#e79e17" transform="rotate(31 -10.103 71.746)"/><rect width="23.826" height="3.665" data-name="Rectangle 157" rx="1.833" style="fill:#e79e17" transform="rotate(37 -12.913 14.147)"/><rect width="26.88" height="4.887" data-name="Rectangle 160" rx="2.444" style="fill:#e79e17" transform="rotate(37 -54.177 118.277)"/><rect width="21.382" height="3.665" data-name="Rectangle 161" rx="1.833" style="fill:#e79e17" transform="rotate(74.99 -18.558 64.885)"/><rect width="21.382" height="3.665" data-name="Rectangle 162" rx="1.833" style="fill:#e79e17" transform="scale(-1) rotate(-77 -29.114 35.541)"/><rect width="26.88" height="3.665" data-name="Rectangle 158" rx="1.833" style="fill:#e79e17" transform="rotate(-35.02 116.438 36.716)"/><rect width="26.269" height="3.665" data-name="Rectangle 159" rx="1.833" style="fill:#e79e17" transform="rotate(-35.02 78.371 -79.669)"/></g></g><path fill="#323f51" d="M1779.581 1798.383c1.779-.832 7.024-3.289 6.673-5.909a3.37 3.37 0 0 1 .376-.319c-.741-.076-.292-.636.094-.085a7.814 7.814 0 0 1-.392-1.658c-2.631.153-15.187-2.376-14.338.068-.62-1.016-.89-.153-1-.056.173.223.365.432.573.624-1.477.822-2.258 1.866.117 2.18 2.654.351 5.444.631 8.205.819a14.648 14.648 0 0 1-3.223 2.189l-.389.185c.476-.471.865-.962.132-.7-.26.286-.478.607-.649.954-2.484 1.261-4.259 2.761-3.685 3.921.063.874.91 1.106 1.753 1.208l-.068.032.068-.032c.022.016-.013.019-.068.032-.1.048.16.156.229.17.081-.09.1-.142.087-.175l.194.019c.615.157 1.239.274 1.869.351.617.078 2.271.346 4.134.5.059.219.129.377.214.276-.028.034-.01-.09.021-.255.556.041 1.126.069 1.693.082-.206.122-.587.216-.451.3.22-.044.424-.148.589-.3.062 0 .125.006.188.006.112.141.417.147.959-.015 2.248-.091 4.117-.609 4.117-2.114 0-1.938-4.192-2.279-8.02-2.3m-2.091-8.506a1.13 1.13 0 0 1-.123.17h-.213c-.016-.244.156-.7.336-.169m-.862.084c.044-.122.1-.166.157-.132-.01.091-.019.15-.028.213h-.13v-.079m-.363.074h-.12a3.424 3.424 0 0 1-.09-.236s-.016-.034-.044-.113c.117-.072.214.166.254.352m-3.872.537s.1-.013.189-.016a.21.21 0 0 1-.189.016" clip-path="url(#Hyposomnia_svg__f)" data-name="Path 1341" transform="translate(4624.307 -661.068)"/><path fill="#323f51" d="M1805.735 1789.42c-.007-1.594-5.945-1.86-10.132-1.9.189-.189.379-.389.568-.609.134-.044.263-.101.386-.169a1.65 1.65 0 0 1-.094-.182c.028-.034.054-.063.081-.1.021.079.037.16.048.242.324-.445.683-.865 1.071-1.255a.23.23 0 0 0 .087.088c.056.025.076-.107.054-.235 2.048-2.121 5.5-5.265 4.556-6.341.053-.022.1-.037.153-.06.3.057.323-.079.28-.236.135-.025.21-.047.2-.072a3.822 3.822 0 0 0-.429-.581c.053-.455-.68-.691-.871-1.009.069.106.117.226.142.351a4.718 4.718 0 0 0-.515-.31c.308-.2-.1-.258-.344-.156a6.729 6.729 0 0 0-1.053-.339c.129-.825-.208-.269-.172-.041a25.418 25.418 0 0 0-5.532-.25 1.368 1.368 0 0 0-.157.015 2.263 2.263 0 0 1-.6-.511c-.046-.079-.037-.1-.009-.113a4.772 4.772 0 0 1-.818.3.501.501 0 0 0 0-.164c-.018-.06-.078.057-.106.192-1.36.346-3.3.417-3.121.021-.363.791-.622.489-.558 1.572-.276-2.3.034.913-.247-.529.016.088.076.363.139.675-1.379.533-2.066 1.06-.465 1.286.159.021.439.038.806.05-.028.1-.037.185.018.235.011-.078.018-.155.022-.233 1.511.047 4.5.018 7.319-.057a.304.304 0 0 0-.181.314c-.029 1.069.369-.11.429-.32l.976-.028c.069.1.144.144.22.109.076-.035.137-.084.207-.123l.827-.029a.483.483 0 0 0-.115.317c-.046.476.229-.185.229-.322l.5-.019c-.26.239-.323.363-.3.42a36.123 36.123 0 0 0-4.096 3.663.145.145 0 0 0-.069-.081c-.132-.063-.214.142-.141.294a54.998 54.998 0 0 0-4.332 4.945.6.6 0 0 0-.056.694.703.703 0 0 0-.119.369 5.474 5.474 0 0 0 2.1.837c.938.4.743.232.443.029.241.068.495.131.758.189.075 1.053 1.59.712 2.42.42.4.051.807.1 1.217.134a.336.336 0 0 0-.1.279c.032.4.313-.025.382-.254.73.062 1.465.1 2.182.113-.106.07-.2.138-.253.117.092.038.257-.04.4-.116.681.01 1.342 0 1.957-.041 2.188-.138 3.811-.6 3.807-1.486m-5.4-8.9-.075.106a.274.274 0 0 1 .075-.106m1.288-1.7a.239.239 0 0 1-.019.144Zm-1.892 2.728.085-.148c.2.151.053.2-.085.148m.5.669c-.561-1.135.806.417 0 0m.332-.37c-.711-.721-.07-.226-.032-.173.073.1.085.161.032.173m.433-.348c.05.37-1.509-.753 0 0m-10.341-4.851c-.014.153-.04.305-.079.455-.081-.155-.038-1.081.079-.455m-.238.041c.006.254.006.393 0 .46a1.276 1.276 0 0 1-.048-.313c.007-.125.023-.175.046-.147m-1.008-.21h-.082c.019-.084.138-.637.082 0m.746.153c.113-.248.2.21.22.533-.037.01-.072.022-.109.031a8.798 8.798 0 0 1-.112-.564m9.379 2.259.333-.015c-.06.04-.123.085-.186.128a.285.285 0 0 0-.147-.113m-4.905 11.55.336.057c-.277.032-.374-.015-.336-.057" clip-path="url(#Hyposomnia_svg__f)" data-name="Path 1342" transform="translate(4624.307 -661.068)"/><path fill="#323f51" d="M1790.215 1790.046c.437.288.986.35 1.477.169 0 0-1.875-.78-1.477-.169" clip-path="url(#Hyposomnia_svg__f)" data-name="Path 1343" transform="translate(4624.307 -661.068)"/><g clip-path="url(#Hyposomnia_svg__k)" data-name="Illustration - Min fysiske energi - Min kost" transform="matrix(1.77953 0 0 1.74626 3640.273 1587.231)"><path fill="#fff" d="m399.27 482.782-28.814 15.305c-123.848 65.78-221.264 7.657-310.22-108.506C-28.721 273.416 8.392 115.378 132.24 49.596l28.815-15.305C284.905-31.49 453.818 18.838 482.754 139.43c27.792 115.82 35.116 277.818-83.484 343.352Z" data-name="Path 482"/><g data-name="Group 251"><path fill="#6daab5" d="M467.085 372.73a3.689 3.875 0 0 1-.418-1.289c.18-4.67-.383-9.308-.561-13.96-.03-.796-.204-1.678.545-2.29 4.988 3.573 9.805 7.417 15.05 10.587 3.877 2.342 7.843 4.489 12.236 5.582 3.296.82 4.006.241 4.221-3.381.316-5.294-.595-10.435-1.833-15.519-4.092-16.807-10.545-32.685-17.24-48.48-3.423-8.07-7.359-15.854-11.498-23.533a7.672 8.059 0 0 1-.443-1.268c.257-1.313 1.444-1.429 2.3-1.953 2.963-1.814 6.244-3.052 8.907-5.412a1.336 1.403 0 0 1 .948.853c12.064 24.918 23.51 50.11 30.182 77.338 1.816 7.414 2.786 14.985 1.365 22.635-1.753 9.453-9.204 14.543-18.314 12.742-7.734-1.53-14.434-5.452-20.99-9.742q-2.225-1.462-4.457-2.91Z" data-name="Path 307"/><path fill="#6daab5" d="M310.56 344.229c.82 3.014-.46 5.863-.8 8.75-.74 6.306-1.642 12.585-1.935 18.94a25.363 26.64 0 0 1-.512 3.215c-2.728 2.975-5.365 6.05-8.21 8.895-2.759 2.762-5.986 4.862-9.852 5.42-6 .865-10.767-1.731-13.843-7.313-3.746-6.8-4.69-14.384-5.36-21.974-1.137-12.85-.775-25.732.022-38.58.776-12.537 1.69-25.073 3.555-37.501a5.907 6.205 0 0 1 .453-1.234c2.409.38 4.851.607 7.215 1.189 1.944.477 4.196-.308 5.83 1.485a386.068 405.502 0 0 0-4.181 47.906c-.401 11.79-.184 23.485 1.758 35.11.407 2.433.652 5.896 2.587 6.575 2.059.724 3.945-2.185 5.519-3.965 6.898-7.8 12.054-16.89 17.186-25.99.181-.316.379-.618.568-.928Z" data-name="Path 308"/><path fill="#6daab5" d="m357.308 462.92 13.233 2.24-.02 55.572-13.313.036q.028-25.894.059-51.79c.002-2.02.026-4.038.041-6.058Z" data-name="Path 309"/><path fill="#6daab5" d="M405.94 466.83a88.528 92.984 0 0 0 13.414-1.69l.01 55.629-13.72.046q.055-21.078.117-42.159c.013-3.943.116-7.888.18-11.826Z" data-name="Path 310"/><path fill="#4c5d71" d="m405.643 520.815 13.72-.047c5.773.026 11.547.029 17.322.088 4.324.045 7.27 2.83 7.329 6.836.061 4.116-2.922 7.035-7.377 7.053q-14.962.063-29.925.01c-4.083-.008-6.975-2.507-7.341-6.256-.382-3.87 2.061-6.866 6.272-7.684Z" data-name="Path 311"/><path fill="#4c5d71" d="m357.206 520.768 13.314-.036c4.622.645 6.762 2.89 6.76 7.095 0 4.008-2.477 6.875-6.285 6.903q-15.766.114-31.532.006c-3.986-.024-6.455-2.83-6.438-7.004.017-4.134 2.522-6.814 6.578-6.87 5.868-.081 11.737-.068 17.603-.094Z" data-name="Path 312"/><path fill="#4c5d71" d="M478.355 271.814c-2.664 2.36-5.944 3.598-8.907 5.412-.858.524-2.044.644-2.3 1.953-3.165-5.935-6.993-11.414-10.65-17.009-1.677-2.569-2.09-5.24-.606-8.013 1.448-2.7 3.802-3.622 6.65-3.38a5.657 5.941 0 0 1 4.403 2.656c3.882 6.07 8.237 11.82 11.41 18.381Z" data-name="Path 313"/><path fill="#4c5d71" d="M287.122 285.522c-1.633-1.793-3.885-1.008-5.829-1.486-2.364-.58-4.806-.805-7.215-1.188a100.072 105.11 0 0 1 3.666-16.584 6.33 6.648 0 0 1 7.895-4.553c3.746 1.116 5.663 4.581 4.777 8.832-.614 2.945-1.396 5.853-2.051 8.79-.461 2.052-.833 4.124-1.243 6.189Z" data-name="Path 314"/><path fill="#7abdcd" d="M467.082 372.73a3.689 3.875 0 0 1-.418-1.288c.18-4.67-.383-9.308-.561-13.96-.03-.797-.204-1.678.545-2.29a4.761 5.001 0 0 1-.637-2.058c-.87-4.341-.431-8.768-.833-13.153-1.21-13.146-2.931-26.172-6.45-38.88-4.967-17.938-13.11-33.932-26.025-47.047-6.235-6.332-13.49-10.97-21.264-14.833a9.06 9.516 0 0 1-4.2-1.668 47.085 49.455 0 0 1-9.71-4.33q-2.274-.858-4.545-1.718c-4.562-1.635-9.09-.783-13.693-.048-5.749.919-11.338 2.346-16.396 5.345-12.546 7.441-20.998 18.955-27.765 31.927-9.468 18.152-15.627 37.635-20.488 57.623-1.444 5.941-2.015 12.096-4.085 17.873.82 3.014-.46 5.863-.8 8.75-.74 6.306-1.642 12.585-1.936 18.94a25.567 26.854 0 0 1-.51 3.215c.112 4.508-.44 9.005-.402 13.494.09 10.644.04 21.313 1.461 31.895 1.322 9.834 5.309 18.132 12.629 24.627 7.358 6.53 15.894 10.653 24.882 13.903 3.782 1.369 7.614 2.582 11.42 3.864l13.233 2.24c11.75 1.771 23.565 1.939 35.4 1.67a88.516 92.972 0 0 0 13.413-1.69 66.482 69.828 0 0 0 22.877-8.483c16.577-10.2 25.89-24.994 26-45.635.07-12.778-1.198-25.508-1.142-38.285Zm-102.81-80.505c.022-2.299 1.545-3.82 3.85-3.849s3.814 1.512 3.773 3.832c-.042 2.334-1.4 3.872-3.495 3.953a3.875 4.07 0 0 1-4.125-3.933Zm32.32 3.953c-2.332-.014-3.64-1.449-3.624-3.977a3.658 3.842 0 0 1 3.688-4.048 3.756 3.945 0 0 1 3.698 4.106 3.526 3.703 0 0 1-3.758 3.923Z" data-name="Path 315"/><path fill="#516075" d="M370.382 327.718a22.498 23.63 0 0 1-6.529-4.52c-.964-.933-1.397-1.98-.44-3.105.92-1.078 1.858-.571 2.723.247 6.75 6.388 14.188 6.72 22.11 2.749.394-.198.798-.375 1.186-.584.978-.524 1.917-.558 2.488.553a1.763 1.852 0 0 1-.869 2.751c-6.643 3.608-13.474 4.994-20.67 1.909Z" data-name="Path 316"/><path fill="#516075" d="M364.31 284.355c4.595-.055 7.628 3.024 7.546 7.663-.082 4.669-2.8 7.743-6.992 7.907-4.508.177-8.299-3.44-8.254-7.874.05-4.597 3.092-7.639 7.7-7.696Z" data-name="Path 317"/><path fill="#83baca" d="M367.531 292.142a2.952 3.101 0 0 1 3.231 3.281 3.014 3.165 0 0 1-2.99 3.381 3.313 3.48 0 0 1-3.533-3.371 3.066 3.22 0 0 1 3.292-3.29Z" data-name="Path 318" opacity=".9"/><path fill="#516075" d="M399.72 284.102a7.554 7.934 0 0 1 7.434 8.259c-.036 4.792-3.028 7.908-7.563 7.88-4.69-.03-7.321-2.917-7.289-7.999.034-4.737 3.124-8.13 7.417-8.14Z" data-name="Path 319"/><path fill="#83baca" d="M402.232 292.38a2.966 3.116 0 0 1 3.249 3.3 3.03 3.182 0 0 1-3.01 3.403 3.334 3.502 0 0 1-3.553-3.39 3.087 3.242 0 0 1 3.314-3.314Z" data-name="Path 320"/></g><g fill="#516075" stroke="#516075" data-name="Group 249"><path d="M119.819 162.575a19.608 19.608 0 0 0-11.929-.4c.229-.245.485-.456.7-.718a21.057 21.057 0 0 0 3.6-19.3 1.241 1.241 0 0 0-.166-.288 1.084 1.084 0 0 0-1.222-1.066A25.13 25.13 0 0 0 89.2 158.124a36.851 36.851 0 0 0-12.571-16.939 1.012 1.012 0 0 0-1.09-.134 1.08 1.08 0 0 0-.11.061 1.108 1.108 0 0 0-.214.16 1.126 1.126 0 0 0-.156.115c-2.02 2.267-3.071 5.648-3.841 8.514a1.164 1.164 0 0 0 .27 1.138 1.23 1.23 0 0 0 .636.458A21.668 21.668 0 0 1 86.7 166.518c-8-1.334-14.816-6.387-23.473-5.31-8.351 1.038-14.851 6.8-18.319 14.3-8.946 19.335 1.371 42.535 13.99 57.757 6.61 7.971 12.751 7.1 21.8 4.1 6.56-2.178 11.012-.921 17.393.681 3.539.889 7.514 1.815 11.18 1.235 8.79-1.386 14.46-12.07 17.624-19.37 4.657-10.75 8.254-21.788 7.91-33.635-.287-9.823-5.342-20.039-14.986-23.701Zm-9.95-19.05c1.616 5.667.231 12.788-3.948 17.055-3.855 3.937-9.79 5.265-15.145 6.037a1.226 1.226 0 0 0 .045-.34c-.821-11.112 8.01-21.343 19.048-22.753Zm-35.839 5.934a18.735 18.735 0 0 1 2.211-5.306c4.871 3.948 9.379 10.237 10.981 16.64a24.347 24.347 0 0 0-13.192-11.334Zm41.049 83.82c-8.619 8.051-18.215-.51-27.861-.11-4.614.192-8.678 2.607-13.077 3.7-7.867 1.958-12.5-3.725-16.419-9.658C51.111 217.191 45 206.333 44.215 194.1c-.781-12.26 4.557-27.624 18.139-30.137 9.733-1.8 17.181 4.7 26.43 5.4a1.187 1.187 0 0 0 .556.05 28.3 28.3 0 0 0 7.832-1.423 32.441 32.441 0 0 0 3.614-1.187c5.481-1.89 10.917-3.859 16.618-2.3 15.487 4.229 16.406 23.492 13.473 36.356-2.513 11.026-7.364 24.541-15.798 32.42Z" data-name="Path 304" transform="matrix(.67487 -.23237 .2661 .77282 162.831 69.879)"/><path d="M59.823 157.388c-8.751 3.6-13.171 14.631-11.7 23.525.273 1.642 2.771.945 2.5-.688-1.214-7.335 2.557-17.319 9.889-20.337 1.52-.625.854-3.134-.689-2.5Z" data-name="Path 305" transform="matrix(.67487 -.23237 .2661 .77282 170.266 79.572)"/><path d="M49.5 172.871a1.3 1.3 0 0 0 0 2.591 1.3 1.3 0 0 0 0-2.591Z" data-name="Path 306" transform="matrix(.67487 -.23237 .2661 .77282 174.065 89.847)"/></g><g data-name="Group 250"><path fill="none" stroke="#516075" stroke-miterlimit="10" stroke-width="3" d="M959.7 54.336c-4.189 27.088-8.375 53.7-12.352 80.349-.631 4.224-2.161 5.764-6.637 5.531-8.4-.438-16.837-.13-25.259-.187-1.5-.011-3.339.508-4.136-1.449-.713-1.751.384-3 1.4-4.256a22.5 22.5 0 0 0 5.181-13.535c.073-2 1.206-3.157 2.249-4.531 4.711-6.2 4.715-13.236-.245-19.191a8.789 8.789 0 0 1-2.074-5.074c-1.183-10.87-6.14-19.706-15.342-25.653-4.434-2.865-3.14-7.241-4.136-11.008-.336-1.269 1.315-.971 2.123-.971 19.538-.031 39.07-.025 59.228-.025Z" data-name="Path 346" transform="matrix(.74773 0 0 .72159 -289.747 88.718)"/><path fill="none" stroke="#516075" stroke-miterlimit="10" stroke-width="2" d="M900.274 86.722c-11.91 0-23.822-.138-35.728.076-4.019.075-4.409-1.047-3.279-4.642 4-12.73 12.975-20.267 26.243-21.194a182.866 182.866 0 0 1 27.13 0c12.7 1 22.148 9.242 25.584 21.422.954 3.379.422 4.462-3.27 4.407-12.224-.183-24.454-.069-36.68-.069Zm-1.665-17.643a2.484 2.484 0 0 0-2.517-2.437 2.357 2.357 0 0 0-2.635 2.622 2.3 2.3 0 0 0 2.425 2.364 2.732 2.732 0 0 0 2.727-2.549ZM889.6 80.288a2.482 2.482 0 0 0-2.735-2.509 2.314 2.314 0 0 0-2.332 2.452 2.642 2.642 0 0 0 2.767 2.591c1.457.023 2.092-1.135 2.3-2.534Zm29.661-3.19c-1.5-.055-2.484.548-2.441 2.163a2.532 2.532 0 0 0 2.721 2.67 2.35 2.35 0 0 0 2.2-2.624c.008-1.615-1.001-2.19-2.478-2.207ZM881 69.432c-.245-1.372-.986-2.507-2.427-2.288a2.8 2.8 0 0 0-2.62 2.783 2.34 2.34 0 0 0 2.521 2.251c1.626-.007 2.484-1.087 2.526-2.746Zm30.717-4.994c-1.267.369-2.469.984-2.328 2.475a2.7 2.7 0 0 0 2.737 2.635c1.659-.046 2.389-1.407 2.234-2.958-.147-1.444-1.276-2.023-2.644-2.151Zm-5.473 14.836a2.576 2.576 0 0 0-2.626-2.368 2.291 2.291 0 0 0-2.547 2.681 2.4 2.4 0 0 0 2.463 2.395c1.566-.102 2.357-1.327 2.708-2.707Z" data-name="Path 347" transform="matrix(.74773 0 0 .72159 -315.357 92.748)"/><path fill="#516075" d="M358.28 172.531c-8.795 0-17.589.051-26.383-.02-4.981-.042-7.788-2.174-8.187-5.942-.346-3.276 1.197-5.556 4.197-6.865 3.189-1.39 6.102-.61 8.222 1.992 4.192 5.141 4.283 5.21 8.408.159a7.029 6.783 0 0 1 6.083-2.713c11.17.036 22.34-.02 33.511.007 5.346.013 8.48 2.575 8.435 6.759-.044 4.156-3.162 6.576-8.62 6.596-8.555.029-17.112.007-25.667.007Z" data-name="Path 348"/><path fill="none" stroke="#516075" stroke-miterlimit="10" stroke-width="2" d="M900.661 89.494c12.09 0 24.181.134 36.267-.073 4.134-.071 4.52 1.357 3.234 4.764a19.662 19.662 0 0 1-18.293 12.942q-21 .221-42 0a20.215 20.215 0 0 1-18.689-13.794c-1-2.949-.558-3.929 2.731-3.893 12.252.138 24.5.06 36.75.054Z" data-name="Path 349" transform="matrix(.74773 0 0 .72159 -315.36 111.787)"/><path fill="#516075" d="M414.313 118.273c5.608 0 10.827.014 16.048-.007 1.879-.008 3.813.096 4.038 2.366.25 2.48-1.645 2.842-3.674 2.871-3.9.056-7.801.188-11.702.196q-19.237.037-38.476 0c-1.165 0-2.453.324-3.44-.498-.85-.712-2.07-1.334-1.711-2.75.337-1.33 1.06-2.257 2.686-2.242 2.841.025 5.683-.013 8.524-.028 6.642-.037 13.286-.12 19.927-.08a2.542 2.453 0 0 0 2.75-2.15c1.994-8.861 8.236-13.65 16.648-16.444a21.807 21.045 0 0 0 2.86-1.367c1.737-.87 3.733-1.901 4.849.442 1.069 2.242-.936 3.201-2.698 4.055-2.22 1.078-4.31 2.532-6.645 3.247-6.134 1.894-8.113 6.73-9.984 12.389Z" data-name="Path 350"/><path fill="#516075" d="M356.557 142.593a2.043 1.971 0 0 1-2.04 1.84 1.72 1.66 0 0 1-1.813-1.706 1.762 1.7 0 0 1 1.97-1.892 1.857 1.792 0 0 1 1.883 1.758Z" data-name="Path 351"/><path fill="#516075" d="M349.823 150.682c-.158 1.01-.632 1.845-1.72 1.828a1.975 1.906 0 0 1-2.07-1.87 1.73 1.67 0 0 1 1.744-1.769 1.856 1.791 0 0 1 2.046 1.81Z" data-name="Path 352"/><path fill="#516075" d="M372.005 148.382c1.101.012 1.855.427 1.854 1.592a1.757 1.696 0 0 1-1.645 1.895 1.893 1.827 0 0 1-2.035-1.927c-.036-1.166.702-1.602 1.826-1.56Z" data-name="Path 353"/><path fill="#516075" d="M343.388 142.847c-.028 1.199-.673 1.978-1.888 1.983a1.75 1.689 0 0 1-1.885-1.624 2.094 2.02 0 0 1 1.96-2.008c1.078-.159 1.632.66 1.813 1.65Z" data-name="Path 354"/><path fill="#516075" d="M366.362 139.244c1.02.093 1.864.511 1.972 1.554.116 1.12-.43 2.102-1.67 2.134a2.019 1.948 0 0 1-2.047-1.901c-.105-1.076.793-1.52 1.745-1.787Z" data-name="Path 355"/><path fill="#516075" d="M362.265 149.95c-.264.996-.853 1.877-2.027 1.955a1.795 1.732 0 0 1-1.841-1.729 1.713 1.653 0 0 1 1.904-1.934 1.926 1.859 0 0 1 1.964 1.709Z" data-name="Path 356"/></g></g><g data-name="Group 1057"><path fill="#fff" d="M-1866.228-9003.662h26.91c115.665 0 154.628 97.862 99.824 195.723-1.151 2.055-13.082 90.082-14.294 92.103-57.473 95.795-191.511 103.621-304.747 103.621h-26.912c-115.666-.001-160.357-87.63-99.822-195.724s203.375-195.723 319.041-195.723Z" data-name="Path 1346" transform="rotate(10.708 -41171.707 40965.16)"/><g fill="#903" data-name="Group 907"><path d="M6469.533-623.057h72.7a5.3 5.3 0 0 1 5.3 5.3 5.3 5.3 0 0 1-5.3 5.3h-72.7a5.3 5.3 0 0 1-5.3-5.3 5.3 5.3 0 0 1 5.3-5.3Z" data-name="Path 211"/><path d="M6525.028-640.269a5.3 5.3 0 0 1 3.751 1.553l17.2 17.213a5.3 5.3 0 0 1 0 7.5l-17.2 17.215a5.3 5.3 0 0 1-7.5 0 5.3 5.3 0 0 1 0-7.493l13.46-13.472-13.46-13.466a5.3 5.3 0 0 1 0-7.5 5.288 5.288 0 0 1 3.75-1.55Z" data-name="Path 212"/></g><text data-name="SYMPTOMER FRA MAVEN" style="fill:#903;font-family:&quot;Roboto Slab&quot;;font-size:30px;font-weight:800;letter-spacing:3px;white-space:pre" transform="translate(6456.54 -710.238)"><tspan>Generelt om </tspan><tspan x="0" dy="1em">​</tspan><tspan>symptomer</tspan><tspan x="0" dy="1em">​</tspan></text></g><g fill="none" stroke="#e79e17" data-name="Group 179"><path stroke-linecap="round" stroke-linejoin="round" stroke-width="1.829" d="M-963.4 262.108c-.225 18.025-.448 30.16-.673 48.187a95.03 95.03 0 0 1-18.51.346" data-name="Path 357" style="stroke:#353f4f;stroke-opacity:1" transform="translate(7636.832 -749.207)"/><path stroke-linecap="round" stroke-linejoin="round" stroke-width="1.829" d="M-941.547 262.451a462.642 462.642 0 0 0-.073 47.628 42.863 42.863 0 0 1 18.609.272" data-name="Path 358" style="stroke:#353f4f;stroke-opacity:1" transform="translate(7652.187 -749.077)"/><path stroke-miterlimit="10" stroke-width="4.269" d="M-956.324 140.788c-14.339 7.95-23.031 23.186-29.191 38.381a209.9 209.9 0 0 0-14.937 91.076c.359 5.964 1.02 12.078 3.762 17.386 3.481 6.738 9.96 11.449 16.75 14.828 12.888 6.412 27.419 8.839 41.794 9.612 12.22.657 24.772.123 36.175-4.319s21.581-13.313 25.14-25.022c2.108-6.93 1.814-14.331 1.5-21.567l-.925-21.37c-.825-19.073-1.713-38.483-8.121-56.467s-19.291-34.658-37.344-40.868c-5.747-1.978-12.752-6.646-18.749-5.657-13.025 2.145-6.84.774-15.856 3.987" data-name="Path 359" style="stroke:#353f4f;stroke-opacity:1" transform="translate(7629.897 -796.9)"/><path stroke-linecap="round" stroke-linejoin="round" stroke-width="1.829" d="M-992.129 192.036c-12.549 2.954-22.26 15.2-22.272 28.1a19.55 19.55 0 0 0 1.883 8.879c2.568 5.056 7.758 8.149 12.721 10.894a553.723 553.723 0 0 0 54.521 26.356" data-name="Path 360" style="stroke:#353f4f;stroke-opacity:1" transform="translate(7624.735 -775.849)"/><path stroke-linecap="round" stroke-linejoin="round" stroke-width="1.829" d="M-903.756 191.7a57.486 57.486 0 0 1 22.141 24.55c2.737 5.478 4.684 12.035 2.185 17.625-1.736 3.883-5.358 6.614-9.172 8.5-14.117 6.969-31.234 4.2-46.038 9.558" data-name="Path 361" style="stroke:#353f4f;stroke-opacity:1" transform="translate(7655.06 -775.975)"/><path stroke-linecap="round" stroke-linejoin="round" stroke-width="1.829" d="M-948.544 168.386c0 1.267-.026 2.533-.046 3.8a3.677 3.677 0 0 0 2.128 3.462c2.07.932 6.494.058 7.9-.3 4.194-1.059 2.241-4.727 2.241-6.966" data-name="Path 362" style="stroke:#353f4f;stroke-opacity:1" transform="translate(7649.757 -784.84)"/><path stroke-linecap="round" stroke-linejoin="round" stroke-width="1.829" d="M-968.089 168.386c0 1.267-.026 2.533-.044 3.8a3.673 3.673 0 0 0 2.127 3.462c2.07.932 6.494.058 7.9-.3 4.194-1.059 2.241-4.727 2.241-6.966" data-name="Path 363" style="stroke:#353f4f;stroke-opacity:1" transform="translate(7642.326 -784.84)"/><path stroke-linecap="round" stroke-linejoin="round" stroke-width="1.829" d="M-946.9 188.881c-6.745-5.318-14.24-4.1-20.377.2" data-name="Path 365" style="stroke:#353f4f;stroke-opacity:1" transform="translate(7642.65 -778.389)"/></g><g data-name="Group 1057"><path fill="#fff" d="m6634.917-314.297 26.442 5c113.65 21.49 187.603 135.07 169.42 231.228-.382 2.019 19.978 95.456 19.524 97.427-21.558 93.416-150.41 77.015-261.674 55.976l-26.443-5c-113.652-21.492-189.504-125.017-169.42-231.23 20.085-106.211 128.5-174.892 242.151-153.401Z" data-name="Path 1346"/><g fill="#903" data-name="Group 907"><path d="M6481.687-114.702h72.7a5.3 5.3 0 0 1 5.3 5.3 5.3 5.3 0 0 1-5.3 5.3h-72.7a5.3 5.3 0 0 1-5.3-5.3 5.3 5.3 0 0 1 5.3-5.3Z" data-name="Path 211"/><path d="M6537.182-131.914a5.3 5.3 0 0 1 3.751 1.553l17.2 17.213a5.3 5.3 0 0 1 0 7.5l-17.2 17.215a5.3 5.3 0 0 1-7.5 0 5.3 5.3 0 0 1 0-7.493l13.459-13.472-13.459-13.466a5.3 5.3 0 0 1 0-7.5 5.288 5.288 0 0 1 3.749-1.55Z" data-name="Path 212"/></g><text data-name="SYMPTOMER FRA MAVEN" style="fill:#903;font-family:&quot;Roboto Slab&quot;;font-size:30px;font-weight:800;letter-spacing:3px;white-space:pre" transform="translate(6465.161 -169.95)"><tspan>Svimmelhed</tspan><tspan x="0" dy="1em">​</tspan></text></g><g fill="none" stroke="#353f4f" data-name="Group 1191" transform="translate(6458.09 9196.193)"><path stroke-linecap="round" stroke-linejoin="round" stroke-width="3" d="M247.866-9239.258c-13.439-5.547-15.586-17.386-22.79-27.006-3.687-4.925-6.354-10.85-3.153-16 2.223-3.574 6.942-6.142 11.929-7.945 18.457-6.67 20.947-.007 40.338-5.226" data-name="Path 1606"/><path stroke-width="4.499055" d="M240.962-9201.392c.117 3.633.681 7.383 2.646 10.442 2.712 4.22 7.597 6.438 12.274 8.253 11.842 4.594 24.61 8.074 37.16 6.12s24.768-10.516 27.657-22.883c1.266-5.417.702-11.07.13-16.603l-4.822-46.757c-2.052-19.88-4.63-44.79-23.06-56.784-12.742-8.294-23.032-5.29-29.18 8.069-6.615 14.374-6.552 32.185-9.314 47.535-3.698 20.555-14.162 41.555-13.49 62.608Z" data-name="Path 1607"/><g stroke-linecap="round" stroke-linejoin="round" stroke-width="3" data-name="Group 1066"><path stroke-width="2.99937" d="M278.976-9280.333a15.068 15.068 0 0 0-8.416 6.13" data-name="Path 547"/><path stroke-width="2.99937" d="M270.079-9281.146a19.696 19.696 0 0 1 8.805 8.207" data-name="Path 548"/></g><g stroke-linecap="round" stroke-linejoin="round" stroke-width="3" data-name="Group 1067"><path stroke-width="2.99937" d="M301.468-9279.358a15.068 15.068 0 0 0-8.416 6.13" data-name="Path 549"/><path stroke-width="2.99937" d="M292.57-9280.17a19.696 19.696 0 0 1 8.806 8.204" data-name="Path 550"/></g><ellipse cx="17.334" cy="68.502" stroke-miterlimit="10" stroke-width="2" data-name="Ellipse 131" rx="17.334" ry="68.502" transform="rotate(-77.98 -5647.008 -4793.49)"/><ellipse cx="68.502" cy="17.334" stroke-miterlimit="10" stroke-width="2" data-name="Ellipse 132" rx="68.502" ry="17.334" transform="rotate(-5.13 -101141.558 -6769.176)"/><path stroke-linecap="round" stroke-linejoin="round" stroke-width="2.99937" d="M268.428-9250.471a8.482 8.482 0 0 1 6.593-4.634 16.097 16.097 0 0 1 8.215 1.29 18.215 18.215 0 0 0 5.036 1.617 9.28 9.28 0 0 0 3.63-.496 13.725 13.725 0 0 0 5.765-3.681" data-name="Path 1610"/><path stroke-linecap="round" stroke-linejoin="round" stroke-width="3" d="M298.342-9177.961c.834 35.769.004 61.878-1.117 97.925 8.983-1.556 11.618-2.968 20.244-7.208" data-name="Path 1611"/><path stroke-linecap="round" stroke-linejoin="round" stroke-width="3" d="M264.597-9179.876c-5.403 36.525-7.46 60.697-5.828 96.692a43.651 43.651 0 0 0-17.034-2.976" data-name="Path 1608"/><path stroke-linecap="round" stroke-linejoin="round" stroke-width="2.99937" d="M318.312-9241.57c7.832 3.08 13.368 5.903 19.748 11.483 7.998 6.997 12.809 17.193 15.243 27.652s2.686 21.294 2.928 32.034" data-name="Path 1612"/></g><path fill="#323f51" d="M7521.097 2360.397c1.779-.832 7.024-3.289 6.673-5.909a3.37 3.37 0 0 1 .376-.319c-.741-.076-.292-.636.094-.085a7.814 7.814 0 0 1-.392-1.658c-2.631.153-15.187-2.376-14.338.068-.62-1.016-.89-.153-1-.056.173.223.365.432.573.624-1.477.822-2.258 1.866.117 2.18 2.654.351 5.444.631 8.205.819a14.648 14.648 0 0 1-3.223 2.189l-.389.185c.476-.471.865-.962.132-.7-.26.286-.478.607-.649.954-2.484 1.261-4.259 2.761-3.685 3.921.063.874.91 1.106 1.753 1.208l-.068.032.068-.032c.022.016-.013.019-.068.032-.1.048.16.156.229.17.081-.09.1-.142.087-.175l.194.019c.615.157 1.239.274 1.869.351.617.078 2.271.346 4.134.5.059.219.129.377.214.276-.028.034-.01-.09.021-.255.556.041 1.126.069 1.693.082-.206.122-.587.216-.451.3.22-.044.424-.148.589-.3.062 0 .125.006.188.006.112.141.417.147.959-.015 2.248-.091 4.117-.609 4.117-2.114 0-1.938-4.192-2.279-8.02-2.3m-2.091-8.506a1.13 1.13 0 0 1-.123.17h-.213c-.016-.244.156-.7.336-.169m-.862.084c.044-.122.1-.166.157-.132-.01.091-.019.15-.028.213h-.13v-.079m-.363.074h-.12a3.424 3.424 0 0 1-.09-.236s-.016-.034-.044-.113c.117-.072.214.166.254.352m-3.872.537s.1-.013.189-.016a.21.21 0 0 1-.189.016" clip-path="url(#Hyposomnia_svg__m)" data-name="Path 1341"/><path fill="#323f51" d="M7547.251 2351.434c-.007-1.594-5.945-1.86-10.132-1.9.189-.189.379-.389.568-.609.134-.044.263-.101.386-.169a1.65 1.65 0 0 1-.094-.182c.028-.034.054-.063.081-.1.021.079.037.16.048.242.324-.445.683-.865 1.071-1.255a.23.23 0 0 0 .087.088c.056.025.076-.107.054-.235 2.048-2.121 5.5-5.265 4.556-6.341.053-.022.1-.037.153-.06.3.057.323-.079.28-.236.135-.025.21-.047.2-.072a3.822 3.822 0 0 0-.429-.581c.053-.455-.68-.691-.871-1.009.069.106.117.226.142.351a4.718 4.718 0 0 0-.515-.31c.308-.2-.1-.258-.344-.156a6.729 6.729 0 0 0-1.053-.339c.129-.825-.208-.269-.172-.041a25.418 25.418 0 0 0-5.532-.25 1.368 1.368 0 0 0-.157.015 2.263 2.263 0 0 1-.6-.511c-.046-.079-.037-.1-.009-.113a4.772 4.772 0 0 1-.818.3.501.501 0 0 0 0-.164c-.018-.06-.078.057-.106.192-1.36.346-3.3.417-3.121.021-.363.791-.622.489-.558 1.572-.276-2.3.034.913-.247-.529.016.088.076.363.139.675-1.379.533-2.066 1.06-.465 1.286.159.021.439.038.806.05-.028.1-.037.185.018.235.011-.078.018-.155.022-.233 1.511.047 4.5.018 7.319-.057a.304.304 0 0 0-.181.314c-.029 1.069.369-.11.429-.32l.976-.028c.069.1.144.144.22.109.076-.035.137-.084.207-.123l.827-.029a.483.483 0 0 0-.115.317c-.046.476.229-.185.229-.322l.5-.019c-.26.239-.323.363-.3.42a36.123 36.123 0 0 0-4.096 3.663.145.145 0 0 0-.069-.081c-.132-.063-.214.142-.141.294a54.998 54.998 0 0 0-4.332 4.945.6.6 0 0 0-.056.694.703.703 0 0 0-.119.369 5.474 5.474 0 0 0 2.1.837c.938.4.743.232.443.029.241.068.495.131.758.189.075 1.053 1.59.712 2.42.42.4.051.807.1 1.217.134a.336.336 0 0 0-.1.279c.032.4.313-.025.382-.254.73.062 1.465.1 2.182.113-.106.07-.2.138-.253.117.092.038.257-.04.4-.116.681.01 1.342 0 1.957-.041 2.188-.138 3.811-.6 3.807-1.486m-5.4-8.9-.075.106a.274.274 0 0 1 .075-.106m1.288-1.7a.239.239 0 0 1-.019.144Zm-1.892 2.728.085-.148c.2.151.053.2-.085.148m.5.669c-.561-1.135.806.417 0 0m.332-.37c-.711-.721-.07-.226-.032-.173.073.1.085.161.032.173m.433-.348c.05.37-1.509-.753 0 0m-10.341-4.851c-.014.153-.04.305-.079.455-.081-.155-.038-1.081.079-.455m-.238.041c.006.254.006.393 0 .46a1.276 1.276 0 0 1-.048-.313c.007-.125.023-.175.046-.147m-1.008-.21h-.082c.019-.084.138-.637.082 0m.746.153c.113-.248.2.21.22.533-.037.01-.072.022-.109.031a8.798 8.798 0 0 1-.112-.564m9.379 2.259.333-.015c-.06.04-.123.085-.186.128a.285.285 0 0 0-.147-.113m-4.905 11.55.336.057c-.277.032-.374-.015-.336-.057" clip-path="url(#Hyposomnia_svg__m)" data-name="Path 1342"/><path fill="#323f51" d="M7531.731 2352.06c.437.288.986.35 1.477.169 0 0-1.875-.78-1.477-.169" clip-path="url(#Hyposomnia_svg__m)" data-name="Path 1343"/><path fill="none" stroke-linecap="round" stroke-miterlimit="10" stroke-width="5" d="M1279.238 409.311c16.146 4.679 31.616 3.327 48.364 0" data-name="Path 1222" style="stroke:#323f51"/><text x="1151.834" y="121.994" style="white-space:pre;fill:#333;font-family:Arial,sans-serif;font-size:52px" transform="translate(45.219 65.825)">z</text><text x="1106.454" y="61.307" style="fill:#333;font-family:Arial,sans-serif;font-size:60px;white-space:pre" transform="translate(45.219 65.825)">z</text><text x="1054.303" y="50.187" style="fill:#333;font-family:Arial,sans-serif;font-size:90px;white-space:pre" transform="translate(45.219 65.825)">z</text><text x="989.642" y="14.052" style="fill:#333;font-family:Arial,sans-serif;font-size:100px;white-space:pre" transform="translate(45.219 65.825)">z</text></svg>