<svg viewBox="-43.114 -1033.418 2513.338 1181.669" xmlns="http://www.w3.org/2000/svg"><g data-name="Group 1348"><path fill="#fff" d="M403.32 1942.432c97.449-12.099 555.545-60.69 699.568-16.504 140.611 43.139 227.353-17.55 330.037 15.677 107.429 34.762 257.546 243.711 246.546 327.205-35.224 267.355-17.478 149.925-871.548 243.715-557.204 248.507-1363.281 134.921-1461.872.126-27.858-38.088-30.182-292.909-37.477-355.073-39.684-338.176 433.826-133.089 1094.746-215.146Z" data-name="Path 729" transform="matrix(.97747 -.01951 .02182 1.09324 725.845 -2928.546)"/><path fill="none" stroke="#323f51" stroke-width="5" d="M-385.912 2462.672s94.669-14.406 231.468-31.22c84.372-10.37 184.648-20.682 288.648-29.316 149.011-12.372 305.668-21.299 434.141-22.018 53.41-.299 102.161-3.376 141.649-20.734" data-name="Path 730" transform="matrix(.9731 .09432 -.1055 1.08836 1030.75 -2941.394)"/><text style="font-family:&quot;Roboto Slab&quot;;font-size:98px;white-space:pre" transform="matrix(1 0 0 1 140.507 -620.96)"><tspan>I denne del af programmet kan du arbejde med</tspan><tspan x="0" dy="1.5em">​</tspan><tspan>at </tspan><tspan style="fill:#63819d;font-weight:700">få mere fysiske aktivitet</tspan><tspan> ind i din hverdag. </tspan><tspan x="0" dy="1.5em">​</tspan><tspan>Det kan du gøre på flere måder. Herunder finder</tspan><tspan x="0" dy="1.5em">​</tspan><tspan> du en oversigt over modulet:</tspan><tspan x="0" dy="1.5em">​</tspan></text><path fill="#fff" d="M1925.792 3098.984c97.449-14.609 555.545-73.278 699.569-19.927 140.611 52.086 227.353-21.19 330.037 18.928 107.429 41.972 387.299 344.819 376.299 445.63-35.224 322.806-147.23 130.459-1001.302 243.702-557.205 300.049-1363.283 162.904-1461.874.152-27.858-45.988-30.182-353.66-37.477-428.717-39.684-408.315 433.827-160.692 1094.748-259.768Z" data-name="Path 729" transform="matrix(.97747 -.01951 .02183 1.09324 699.436 -2897.047)"/></g><g data-name="Group 1219"><g data-name="Group 1205"><g data-name="Group 1204"><path fill="#7ccad8" d="M3441.298 283.001a136.9 136.9 0 1 1-136.9 136.9 136.9 136.9 0 0 1 136.9-136.9Z" data-name="Nuance A4 5a"/></g></g><text fill="#323f51" data-name="Group 1215" font-family="RifficFree-Bold, Riffic Free" font-size="150" font-weight="700" style="white-space:pre" transform="translate(3422.619 337.287)"><tspan x="0" y="146">i</tspan></text></g><text style="fill:#333;font-family:&quot;Roboto Slab&quot;;font-size:98px;white-space:pre" transform="translate(8.933 -62.004)"><tspan x="1639.05" y="695.521">Du kan arbejde på at </tspan><tspan style="fill:#63819d;font-weight:700">balancere dit </tspan><tspan x="1639.05" dy="1.5em">​</tspan><tspan style="fill:#63819d;font-weight:700">aktivitetsniveau</tspan><tspan> på forskellige måder. Her finder</tspan><tspan x="1639.05" dy="1.5em">​</tspan><tspan>du en oversigt over indholdet i det følgende modul. </tspan><tspan x="1639.05" dy="1.5em">​</tspan><tspan>Du kan gå videre og arbejde med de sider du</tspan><tspan x="1639.05" dy="1.5em">​</tspan><tspan> syntes er relevante for dig.</tspan></text><path fill="none" stroke="#323f51" stroke-width="5" d="M1922.469 1017.519s92.555-15.753 226.298-34.138c82.488-11.339 180.524-22.615 282.201-32.056 145.683-13.528 298.841-23.29 424.445-24.076 52.217-.327 99.879-3.691 138.485-22.672" data-name="Path 730" transform="rotate(5.536 2458.18 961.046)"/><g data-name="Group 1219"><g data-name="Group 1205"><g data-name="Group 1204"><path fill="#7ccad8" d="M1968.989-1020.773a136.9 136.9 0 1 1-136.9 136.9 136.9 136.9 0 0 1 136.9-136.9Z" data-name="Nuance A4 5a"/></g></g><text fill="#323f51" data-name="Group 1215" font-family="RifficFree-Bold, Riffic Free" font-size="150" font-weight="700" style="white-space:pre" transform="translate(1950.31 -966.487)"><tspan x="0" y="146">i</tspan></text></g></svg>