<?xml version="1.0" encoding="utf-8"?>
<svg viewBox="1008.033 77.198 198.585 191.596" xmlns="http://www.w3.org/2000/svg">
  <defs>
    <clipPath id="clip-Balance">
      <rect width="1166" height="1094"/>
    </clipPath>
  </defs>
  <g id="Balance" clip-path="url(#clip-Balance)" transform="matrix(1, 0, 0, 1, 598.663391, -128.122437)"/>
  <path id="Path_485" data-name="Path 485" d="M 1107.889 85.416 L 1107.889 85.416 C 1149.625 85.416 1183.459 123.254 1183.459 169.929 C 1183.459 216.602 1170.61 239.4 1098.129 254.441 L 1098.129 254.441 C 1056.394 254.441 1022.557 169.929 1022.557 169.929 C 1022.557 169.929 1066.153 85.416 1107.889 85.416 Z" style="fill: rgb(39, 48, 62);"/>
  <g id="Group_1402" data-name="Group 1402" transform="matrix(1, 0, 0, 1, -200.11059, -506.268997)">
    <path id="Path_1864" data-name="Path 1864" d="M1279.88,639.707v46.627h6.47l1.594-4.7h36.871l1.595,4.7h6.469v-64.16h2.148V615.46h-57.293v6.714h2.147Zm4.831,44.34h-2.544v-2.414h3.364Zm45.882,0h-2.544l-.819-2.414h3.364Zm0-4.756h-48.426V661.813H1297.5v2.552a2.767,2.767,0,0,0,2.763,2.763h12.228a2.767,2.767,0,0,0,2.763-2.763v-2.552h15.336Zm-30.8-17.478h13.182v2.552a.478.478,0,0,1-.477.477h-12.228a.477.477,0,0,1-.477-.477Zm30.8-2.286h-48.426V641.993H1297.5v2.552a2.766,2.766,0,0,0,2.763,2.763h12.228a2.767,2.767,0,0,0,2.763-2.763v-2.552h15.336Zm-30.8-17.534h13.182v2.552a.478.478,0,0,1-.477.477h-12.228a.478.478,0,0,1-.477-.477Zm30.8-2.286h-48.426V622.174H1297.5v2.552a2.766,2.766,0,0,0,2.763,2.763h12.228a2.767,2.767,0,0,0,2.763-2.763v-2.552h15.336Zm-30.8-17.534h13.182v2.552a.478.478,0,0,1-.477.477h-12.228a.478.478,0,0,1-.477-.477Zm-19.77-4.428h52.721v2.141h-52.721Z" fill="#fff"/>
  </g>
  <text style="fill: rgb(255, 255, 255); font-family: Arial, sans-serif; font-size: 21px; white-space: pre;" x="1058.44" y="207.107">Kartoteket</text>
</svg>