<svg viewBox="-218.969 44.785 1300.869 476.135" xmlns="http://www.w3.org/2000/svg"><g data-name="Group 841"><path d="M1679.911 2252.77c117.924-14.978 231.493-25.767 340.251-15.336 105.371 10.211 207.568 35.215 301.75 73.824 38.126 15.535 77.832 38.748 70.245 80.508-4.743 26.066-27.265 52.626-49.969 76.688-32.937 34.897-69.451 69.31-112.976 93.918-77.216 43.639-162 49.133-240.085 52.476-196.272 8.415-392.477 15.496-580.766 4.894-68.041-3.837-135.478-10.071-194.871-28-32.281-9.749-64.446-26.426-63.412-58.449 1.491-45.958 41.679-91.609 90.482-117.631 97.664-52.058 110.26-70.183 211.337-99.883 42.942-12.623 157.937-47.972 265.728-67.766" data-name="Path 1182" style="paint-order:fill;stroke-dashoffset:-1px;stroke-miterlimit:8;stroke-width:7px;fill:#fff;stroke-dasharray:30px;stroke:#489c61" transform="rotate(9.938 13545.961 -6341.811)"/><g data-name="Group 1348"><text style="fill:#333;font-family:&quot;Roboto Slab&quot;;font-size:50.5px;white-space:pre" transform="matrix(1.54074 -.0264 .02414 1.4093 -572.992 -3100.235)"><tspan x="343.855" y="2356.99" style="font-weight:700">Kontrol:</tspan><tspan> </tspan><tspan x="343.855" dy="1em">​</tspan><tspan>Hvis jeg ikke har helt<tspan x="343.855" dy="1em">​</tspan>styr på alting, går det galt</tspan></text><text style="white-space:pre;fill:#333;font-family:&quot;Roboto Slab&quot;;font-size:28px" transform="matrix(1.47206 -.02522 .02522 1.47206 5.358 427.22)"> </text></g></g></svg>