<svg width="59.568" height="77.139" xmlns="http://www.w3.org/2000/svg"><path d="M106.933 166.4c-.88-.88-1.6-3.192-1.6-5.137 0-2.914 3.172-6.174 18-18.499 9.9-8.228 17.986-15.367 17.969-15.862-.017-.496-9.025-6.227-20.017-12.736-20.906-12.38-23.195-14.772-19.947-20.841 1.072-2.003 2.482-2.749 4.477-2.367 1.601.306 13.904 7.06 27.34 15.01 25.516 15.096 28.923 18.217 25.371 23.235C155.3 133.763 113.191 168 110.81 168c-1.252 0-2.996-.72-3.876-1.6z" style="fill:#000;fill-opacity:1;stroke-width:1" transform="translate(-100.135 -90.861)"/></svg>