<?xml version="1.0" encoding="utf-8"?>
<svg viewBox="-288.809 -315.272 1105.109 1182.136" xmlns="http://www.w3.org/2000/svg" xmlns:bx="https://boxy-svg.com">
  <defs>
    <clipPath id="clip-path">
      <rect id="Rectangle_362" data-name="Rectangle 362" width="948.922" height="1058.047" fill="#323f51"/>
    </clipPath>
    <clipPath id="clip-path-2">
      <rect id="Rectangle_363" data-name="Rectangle 363" width="535.688" height="817.071" fill="none"/>
    </clipPath>
    <clipPath id="clip-2">
      <rect id="Rectangle_364" data-name="Rectangle 364" width="370.478" height="846.353" fill="none"/>
    </clipPath>
    <clipPath id="clip-3">
      <rect id="Rectangle_367" data-name="Rectangle 367" width="787.201" height="890.531" fill="none"/>
    </clipPath>
    <clipPath id="clip-1">
      <rect id="rect-1" data-name="Rectangle 362" width="948.922" height="1058.047" fill="#323f51"/>
    </clipPath>
  </defs>
  <g id="g-2" data-name="Group 875" transform="matrix(1, 0, 0, 1, -198.680749, -265.742243)">
    <rect id="Rectangle_360" data-name="Rectangle 360" width="895.246" height="1017.568" transform="translate(19.009 19.212)" fill="#fff6ee"/>
    <rect id="Rectangle_361" data-name="Rectangle 361" width="784.423" height="891.597" style="fill: rgb(118, 132, 195);" transform="translate(74.423 77.443)" rx="41.634" ry="41.634"/>
    <g id="g-3" data-name="Group 873">
      <g id="g-4" data-name="Group 872" clip-path="url(#clip-1)">
        <path id="Path_1288" data-name="Path 1288" d="M948.924,1058.047H0V0H948.924ZM34.667,1023.382h879.59V34.663H34.667Z" fill="#2e3552"/>
      </g>
    </g>
  </g>
  <g transform="matrix(-0.999446, 0.033303, 0.033303, 0.999446, -955.180604, 425.151465)">
    <g>
      <g id="Group_1053" data-name="Group 1053" transform="matrix(1, 0, 0, 1, 242.33873, 13994.530273)">
        <g id="Group_875" data-name="Group 875" transform="matrix(1.012074, 0, 0, 1, -995.579163, -14324.144531)" style="">
          <g id="Group_873" data-name="Group 873" transform="matrix(1, 0, 0, 1, -1033.582886, -254.04747)">
            <g id="Group_872" data-name="Group 872" clip-path="url(#clip-path)">
              <g id="Group_877" data-name="Group 877" transform="matrix(1, 0, 0, 1, 315.154633, 78.647842)">
                <g id="Group_876" data-name="Group 876" clip-path="url(#clip-path-2)">
                  <path id="Path_1291" data-name="Path 1291" d="M 87.525 136.579 C 87.525 136.579 132.594 204.458 123.143 267.502 C 79.768 305.961 169.113 444.545 189.476 426.49 L 312 245.637 C 312 245.637 248.277 176.979 224.9 83.748 L 87.525 136.579 Z" transform="translate(101.251 96.881)" fill="#ffb27d"/>
                  <path id="Path_1292" data-name="Path 1292" d="M 108.025 274.975 C 108.025 274.975 273.591 282.953 277.195 185.726 C 280.799 88.499 325.946 24.067 202.128 14.8 C 100.3 7.182 66.192 48.536 56.919 80.7 C 47.646 112.864 46.675 269.408 108.025 274.975" transform="translate(60.459 16.058)" fill="#ffb27d"/>
                  <path id="Path_1294" data-name="Path 1294" d="M 413.862 341.859 L 413.84 341.859 C 413.618 341.84 412.257 341.759 409.211 341.738 C 389.652 358.429 338.627 398.214 289.572 431.57 C 247.473 460.196 214.703 377.588 229.255 373.929 C 229.233 373.91 229.233 373.89 229.216 373.871 C 227.5 370.846 226.02 367.692 224.79 364.439 L 224.971 363.723 C 224.971 363.723 105.515 390.111 74.942 429.115 C 58.233 450.442 42.942 534.596 29.463 623.401 C 29.424 623.601 29.355 623.816 29.363 624.016 C 31.008 665.445 35.721 760.761 56.035 784.669 C 66.693 797.213 416.883 847.364 476.767 745.539 C 543.128 691.594 543.788 380.304 536.284 377.106 C 479.031 344.044 415.366 341.9 413.863 341.859" style="fill: rgb(244, 237, 237);"/>
                  <path d="M 812.721 1949.822 Q 821.856 1887.282 830.991 1949.822 L 862.368 2164.634 Q 871.503 2227.174 853.233 2227.174 L 790.479 2227.174 Q 772.209 2227.174 781.344 2164.634 Z" style="fill: rgb(229, 229, 229);" transform="matrix(-0.919042, 0.39416, -0.083991, -1.052067, 1131.492432, 2447.044189)" bx:shape="triangle 772.209 1887.282 99.294 339.892 0.5 0.184 1@b4a111c3"/>
                  <path d="M 829.623 2078.748 Q 838.436 2015.586 847.249 2078.748 L 880.272 2315.425 Q 889.085 2378.587 871.459 2378.587 L 805.413 2378.587 Q 787.787 2378.587 796.6 2315.425 Z" style="fill: rgb(216, 216, 216);" transform="matrix(-0.999772, 0.021339, 0.308102, -1.006804, 440.798462, 2793.19458)" bx:shape="triangle 787.787 2015.586 101.298 363.001 0.5 0.174 1@a53f63b4"/>
                </g>
              </g>
            </g>
          </g>
        </g>
        <rect x="-1213.321" y="-560.509" width="82.267" height="19.832" style="fill: rgb(222, 222, 222);" transform="matrix(-0.997575, -0.069605, -0.069605, 0.997575, -2829.958026, -13432.008081)" rx="9.916" ry="9.916"/>
      </g>
    </g>
    <g id="Group_1051" data-name="Group 1051" transform="matrix(1.213635, 0, 0, 1.248699, -3095.921875, 17002.994141)" style="">
      <g id="Group_880" data-name="Group 880" transform="matrix(1, 0, 0, 1, 1347.944824, -14110.203125)">
        <g id="Group_879" data-name="Group 879" clip-path="url(#clip-2)">
          <path id="Path_1302" data-name="Path 1302" d="M 309.045 92.58 C 310.157 91.306 312.718 90.28 318.42 89.967 C 315.164 88.12 311.508 87.091 307.767 86.967 C 306.576 79.038 302.359 65.007 288.713 61.596 C 288.713 61.596 296.047 65.504 297.003 73.933 C 281.197 57.703 247.336 45.89 153.568 53.293 C 29.992 63.047 70.718 142.167 86.717 151.599 C 102.716 161.031 142.987 135.172 172.795 137.54 C 202.603 139.908 208.271 182.976 218.384 188.888 C 228.497 194.8 224.518 184.347 238.201 178.163 C 251.884 171.979 253.184 194.649 249.231 209.391 C 245.278 224.133 264.08 243.573 264.08 243.573 L 283.08 223.114 C 302.08 202.655 319.98 115.999 311.343 97.526 C 310.58 95.893 309.826 94.241 309.043 92.58" fill="#323f51"/>
        </g>
      </g>
    </g>
  </g>
  <g id="Group_883" data-name="Group 883" transform="matrix(1, 0, 0, 1, -149.271947, -93.069834)">
    <g id="Group_882" data-name="Group 882" clip-path="url(#clip-3)">
      <g transform="matrix(1, 0, 0, 1, 3.614305, 31.755066)">
        <path id="Path_1332" data-name="Path 1332" d="M 441.097 712.264 C 439.302 706.621 444.289 701.152 450.073 702.419 C 455.857 703.686 458.101 710.74 454.111 715.115 C 453.201 716.114 452.043 716.855 450.755 717.264 C 446.707 718.553 442.381 716.314 441.097 712.264" fill="#f99746"/>
        <g transform="matrix(1, 0, 0, 1, -5.800232, -24.489952)">
          <path d="M 379.338 374.482 C 379.338 379.296 377.032 379.005 385.689 400.624 C 386.673 403.082 401.015 406.404 401.516 409.172 C 401.797 410.724 387.944 431.282 388.233 432.881 C 402.631 512.431 415.224 543.492 419.997 563.648 C 421.981 572.026 441.261 661.031 448.902 695.724 C 450.078 701.064 450.287 709.079 450.706 711.206 C 450.858 711.979 464.426 714.455 463.774 710.475 C 463.641 709.666 461.458 699.625 460.726 690.03 C 456.991 641.024 446.56 494.76 440.773 428.495 C 440.605 426.579 420.552 409.314 420.392 407.501 C 420.252 405.913 439.101 395.864 439.069 394.354 C 438.675 375.663 439.121 358.277 437.551 357.815 C 435.886 357.325 433.011 366.242 427.853 372.523 C 425.437 375.465 415.726 383.848 406.52 384.078 C 394.931 384.368 383.464 376.072 380.723 376.497" style="stroke: rgb(0, 0, 0); fill: rgb(190, 47, 47);"/>
        </g>
        <path id="path-1" data-name="Path 1332" d="M 443.57 736.406 C 441.775 730.763 446.762 725.294 452.546 726.561 C 458.33 727.828 460.574 734.882 456.584 739.257 C 455.674 740.256 454.516 740.997 453.228 741.406 C 449.18 742.695 444.854 740.456 443.57 736.406" fill="#f99746"/>
        <rect x="167.515" y="206.335" width="164.448" height="41.402" style="fill: rgb(235, 226, 226);" transform="matrix(0.792918, 0.609328, -0.51194, 0.867758, 234.906265, -31.31123)" rx="9.775" ry="9.775"/>
        <rect x="82.341" y="168.183" width="80.831" height="33.745" style="fill: rgb(235, 226, 226);" transform="matrix(0.369186, -0.929356, 0.613042, 1.165446, 274.598846, 227.444016)" rx="9.775" ry="9.775"/>
      </g>
    </g>
  </g>
  <path id="Path_1336" data-name="Path 1336" d="M -2055.674 -263.038 C -2055.674 -263.038 -2043.436 -250.843 -2033.35 -252.263 C -2023.363 -253.671 -2015.696 -270.775 -2015.696 -270.775 C -2028.638 -272.789 -2042.357 -270.137 -2055.674 -263.038" fill="#fff2e9" style="" transform="matrix(0.986008, -0.166696, 0.166696, 0.986008, 2420.869139, 36.140684)" bx:origin="0.601 0.486"/>
  <rect x="-475.203" y="10.22" width="2.434" height="5.677" style="fill: rgb(186, 177, 3);" transform="matrix(-0.996687, 0.081338, -0.134732, -0.992329, -77.39298, 486.290625)"/>
  <circle style="fill: rgb(16, 12, 12);" cx="-2010.615" cy="64.791" r="5.299" transform="matrix(0.967367, 0, 0, 0.817537, 2339.794188, 387.952978)"/>
  <rect x="-2008.622" y="46.96" width="10.291" height="26.086" style="fill: rgb(239, 94, 94);" transform="matrix(0.994013, -0.109258, 0.162508, 0.98816, 2378.756346, 176.07913)"/>
  <rect x="-382.034" y="16.106" width="1.957" height="8.947" style="fill: rgb(222, 222, 222);" transform="matrix(-0.08367, -0.996494, 0.992011, -0.137053, 344.010405, 72.257449)"/>
  <rect x="-500.015" y="10.22" width="2.561" height="5.677" style="fill: rgb(186, 177, 3);" transform="matrix(-0.996687, 0.081338, -0.134732, -0.992329, -83.935459, 495.568823)"/>
  <circle style="fill: rgb(16, 12, 12);" cx="-2010.615" cy="64.791" r="5.299" transform="matrix(0.93694, 0, 0, 0.817537, 2296.182372, 394.804419)"/>
  <rect x="-2008.62" y="31.941" width="10.291" height="17.743" style="fill: rgb(45, 129, 32);" transform="matrix(0.994013, -0.109258, 0.162508, 0.98816, 2398.689208, 197.487845)"/>
  <rect x="-359.666" y="16.106" width="1.842" height="8.947" style="fill: rgb(222, 222, 222);" transform="matrix(-0.056695, -0.998392, 0.995354, -0.11018, 372.573393, 98.573153)"/>
  <path style="fill: rgb(216, 216, 216); stroke: rgb(0, 0, 0);" d="M 258.567 289.951 L 258.567 289.951 L 258.567 289.951 Z"/>
</svg>