<svg xmlns:bx="https://boxy-svg.com" viewBox="-32.277 1529.406 714.172 422.542" xmlns="http://www.w3.org/2000/svg"><defs><clipPath id="lægeIkonFinal2_svg__a"><path fill="#323f51" d="M0 0h35.569v27.465H0z" data-name="Rectangle 374"/></clipPath><clipPath id="lægeIkonFinal2_svg__f"><path fill="#323f51" d="M0 0h948.922v1058.047H0z" data-name="Rectangle 362"/></clipPath><clipPath id="lægeIkonFinal2_svg__b"><path fill="#323f51" d="M0 0h948.922v1058.047H0z" data-name="Rectangle 362"/></clipPath><clipPath id="lægeIkonFinal2_svg__c"><path fill="none" d="M0 0h535.688v817.071H0z" data-name="Rectangle 363"/></clipPath><clipPath id="lægeIkonFinal2_svg__d"><path fill="none" d="M0 0h370.478v846.353H0z" data-name="Rectangle 364"/></clipPath><clipPath id="lægeIkonFinal2_svg__e"><path fill="none" d="M0 0h787.201v890.531H0z" data-name="Rectangle 367"/></clipPath></defs><g data-name="Group 1057"><path fill="#fff" d="m-2425.883-7438.358 118.707-12.495c44.205 17.581 141.344 103.412 114.734 181.958-.714 2.112-15.035 83.747-16.428 85.625-66.058 89.058-220.116 96.334-350.265 96.334h-30.932c-132.943 0-184.309-81.467-114.732-181.959 69.576-100.493 145.974-169.463 278.916-169.463Z" data-name="Path 1346" transform="rotate(-169.292 -646.302 -2880.474)"/><path fill="#fff" d="M-1585.405-7303.16c6.511-39.616 150.175-79.509 165.823-96.473 32.917-35.684 71.714-50.192 112.348-69.229 108.182-50.683 243.569-54.351 243.569-54.351 43.919 18.59 140.428 109.339 113.991 192.386-.71 2.234-14.068 89.648-16.322 90.534-77.664 30.529-218.887 100.823-347.999 101.854h-30.732c-127.003-2.473-275.935 49.791-240.678-164.721Z" data-name="Path 1346" transform="rotate(-169.292 547.65 -2940.451)"/><g fill="#903" data-name="Group 907"><path d="M1485.136 1735.88h72.7a5.3 5.3 0 0 1 5.3 5.3 5.3 5.3 0 0 1-5.3 5.3h-72.7a5.3 5.3 0 0 1-5.3-5.3 5.3 5.3 0 0 1 5.3-5.3Z" data-name="Path 211"/><path d="M1540.631 1718.668a5.3 5.3 0 0 1 3.751 1.553l17.2 17.213a5.3 5.3 0 0 1 0 7.5l-17.2 17.215a5.3 5.3 0 0 1-7.5 0 5.3 5.3 0 0 1 0-7.493l13.46-13.472-13.46-13.466a5.3 5.3 0 0 1 0-7.5 5.288 5.288 0 0 1 3.75-1.55Z" data-name="Path 212"/></g><g fill="#903" data-name="Group 907"><path d="M335.135 1781.075h72.7a5.3 5.3 0 0 1 5.3 5.3 5.3 5.3 0 0 1-5.3 5.3h-72.7a5.3 5.3 0 0 1-5.3-5.3 5.3 5.3 0 0 1 5.3-5.3Z" data-name="Path 211"/><path d="M390.63 1763.863a5.3 5.3 0 0 1 3.751 1.553l17.2 17.213a5.3 5.3 0 0 1 0 7.5l-17.2 17.215a5.3 5.3 0 0 1-7.5 0 5.3 5.3 0 0 1 0-7.493l13.459-13.472-13.459-13.466a5.3 5.3 0 0 1 0-7.5 5.288 5.288 0 0 1 3.749-1.55Z" data-name="Path 212"/></g></g><path fill="#323f51" d="M1779.581 1798.383c1.779-.832 7.024-3.289 6.673-5.909a3.37 3.37 0 0 1 .376-.319c-.741-.076-.292-.636.094-.085a7.814 7.814 0 0 1-.392-1.658c-2.631.153-15.187-2.376-14.338.068-.62-1.016-.89-.153-1-.056.173.223.365.432.573.624-1.477.822-2.258 1.866.117 2.18 2.654.351 5.444.631 8.205.819a14.648 14.648 0 0 1-3.223 2.189l-.389.185c.476-.471.865-.962.132-.7-.26.286-.478.607-.649.954-2.484 1.261-4.259 2.761-3.685 3.921.063.874.91 1.106 1.753 1.208l-.068.032.068-.032c.022.016-.013.019-.068.032-.1.048.16.156.229.17.081-.09.1-.142.087-.175l.194.019c.615.157 1.239.274 1.869.351.617.078 2.271.346 4.134.5.059.219.129.377.214.276-.028.034-.01-.09.021-.255.556.041 1.126.069 1.693.082-.206.122-.587.216-.451.3.22-.044.424-.148.589-.3.062 0 .125.006.188.006.112.141.417.147.959-.015 2.248-.091 4.117-.609 4.117-2.114 0-1.938-4.192-2.279-8.02-2.3m-2.091-8.506a1.13 1.13 0 0 1-.123.17h-.213c-.016-.244.156-.7.336-.169m-.862.084c.044-.122.1-.166.157-.132-.01.091-.019.15-.028.213h-.13v-.079m-.363.074h-.12a3.424 3.424 0 0 1-.09-.236s-.016-.034-.044-.113c.117-.072.214.166.254.352m-3.872.537s.1-.013.189-.016a.21.21 0 0 1-.189.016" clip-path="url(#lægeIkonFinal2_svg__a)" data-name="Path 1341" transform="translate(-192.215 -255.777)"/><path fill="#323f51" d="M1805.735 1789.42c-.007-1.594-5.945-1.86-10.132-1.9.189-.189.379-.389.568-.609.134-.044.263-.101.386-.169a1.65 1.65 0 0 1-.094-.182c.028-.034.054-.063.081-.1.021.079.037.16.048.242.324-.445.683-.865 1.071-1.255a.23.23 0 0 0 .087.088c.056.025.076-.107.054-.235 2.048-2.121 5.5-5.265 4.556-6.341.053-.022.1-.037.153-.06.3.057.323-.079.28-.236.135-.025.21-.047.2-.072a3.822 3.822 0 0 0-.429-.581c.053-.455-.68-.691-.871-1.009.069.106.117.226.142.351a4.718 4.718 0 0 0-.515-.31c.308-.2-.1-.258-.344-.156a6.729 6.729 0 0 0-1.053-.339c.129-.825-.208-.269-.172-.041a25.418 25.418 0 0 0-5.532-.25 1.368 1.368 0 0 0-.157.015 2.263 2.263 0 0 1-.6-.511c-.046-.079-.037-.1-.009-.113a4.772 4.772 0 0 1-.818.3.501.501 0 0 0 0-.164c-.018-.06-.078.057-.106.192-1.36.346-3.3.417-3.121.021-.363.791-.622.489-.558 1.572-.276-2.3.034.913-.247-.529.016.088.076.363.139.675-1.379.533-2.066 1.06-.465 1.286.159.021.439.038.806.05-.028.1-.037.185.018.235.011-.078.018-.155.022-.233 1.511.047 4.5.018 7.319-.057a.304.304 0 0 0-.181.314c-.029 1.069.369-.11.429-.32l.976-.028c.069.1.144.144.22.109.076-.035.137-.084.207-.123l.827-.029a.483.483 0 0 0-.115.317c-.046.476.229-.185.229-.322l.5-.019c-.26.239-.323.363-.3.42a36.123 36.123 0 0 0-4.096 3.663.145.145 0 0 0-.069-.081c-.132-.063-.214.142-.141.294a54.998 54.998 0 0 0-4.332 4.945.6.6 0 0 0-.056.694.703.703 0 0 0-.119.369 5.474 5.474 0 0 0 2.1.837c.938.4.743.232.443.029.241.068.495.131.758.189.075 1.053 1.59.712 2.42.42.4.051.807.1 1.217.134a.336.336 0 0 0-.1.279c.032.4.313-.025.382-.254.73.062 1.465.1 2.182.113-.106.07-.2.138-.253.117.092.038.257-.04.4-.116.681.01 1.342 0 1.957-.041 2.188-.138 3.811-.6 3.807-1.486m-5.4-8.9-.075.106a.274.274 0 0 1 .075-.106m1.288-1.7a.239.239 0 0 1-.019.144Zm-1.892 2.728.085-.148c.2.151.053.2-.085.148m.5.669c-.561-1.135.806.417 0 0m.332-.37c-.711-.721-.07-.226-.032-.173.073.1.085.161.032.173m.433-.348c.05.37-1.509-.753 0 0m-10.341-4.851c-.014.153-.04.305-.079.455-.081-.155-.038-1.081.079-.455m-.238.041c.006.254.006.393 0 .46a1.276 1.276 0 0 1-.048-.313c.007-.125.023-.175.046-.147m-1.008-.21h-.082c.019-.084.138-.637.082 0m.746.153c.113-.248.2.21.22.533-.037.01-.072.022-.109.031a8.798 8.798 0 0 1-.112-.564m9.379 2.259.333-.015c-.06.04-.123.085-.186.128a.285.285 0 0 0-.147-.113m-4.905 11.55.336.057c-.277.032-.374-.015-.336-.057" clip-path="url(#lægeIkonFinal2_svg__a)" data-name="Path 1342" transform="translate(-192.215 -255.777)"/><path fill="#323f51" d="M1790.215 1790.046c.437.288.986.35 1.477.169 0 0-1.875-.78-1.477-.169" clip-path="url(#lægeIkonFinal2_svg__a)" data-name="Path 1343" transform="translate(-192.215 -255.777)"/><text style="fill:#903;font-family:&quot;Roboto Slab&quot;;font-size:148px;font-weight:700;text-anchor:middle;white-space:pre" transform="matrix(.3618 0 0 .37655 288.43 1326.73)"><tspan x="197.532" y="943.396">Hvad tænker</tspan><tspan x="197.532" dy="1em">​</tspan><tspan>lægen?</tspan></text><g transform="translate(-654.22 914.41)"><g><g data-name="Group 1053" transform="matrix(-.3616 .01254 .01205 .37634 424.226 6187.278)"><g data-name="Group 875"><g data-name="Group 873"><g clip-path="url(#lægeIkonFinal2_svg__b)" data-name="Group 872" transform="matrix(1.01207 0 0 1 -2041.642 -14578.192)"><g data-name="Group 877"><g clip-path="url(#lægeIkonFinal2_svg__c)" data-name="Group 876" transform="translate(315.155 78.648)"><path fill="#ffb27d" d="M188.776 233.46s45.069 67.879 35.618 130.923c-43.375 38.459 45.97 177.043 66.333 158.988l122.524-180.853s-63.723-68.658-87.1-161.889L188.776 233.46Z" data-name="Path 1291"/><path fill="#ffb27d" d="M168.484 291.033s165.566 7.978 169.17-89.249c3.604-97.227 48.751-161.659-75.067-170.926-101.828-7.618-135.936 33.736-145.209 65.9-9.273 32.164-10.244 188.708 51.106 194.275" data-name="Path 1292"/><path d="M413.862 341.859h-.022c-.222-.019-1.583-.1-4.629-.121-19.559 16.691-70.584 56.476-119.639 89.832-42.099 28.626-74.869-53.982-60.317-57.641-.022-.019-.022-.039-.039-.058a67.505 67.505 0 0 1-4.426-9.432l.181-.716s-119.456 26.388-150.029 65.392c-16.709 21.327-32 105.481-45.479 194.286-.039.2-.108.415-.1.615 1.645 41.429 6.358 136.745 26.672 160.653 10.658 12.544 360.848 62.695 420.732-39.13 66.361-53.945 67.021-365.235 59.517-368.433-57.253-33.062-120.918-35.206-122.421-35.247" data-name="Path 1294" style="fill:#f4eded"/><path bx:shape="triangle 772.209 1887.282 99.294 339.892 0.5 0.184 1@b4a111c3" d="M812.721 1949.822q9.135-62.54 18.27 0l31.377 214.812q9.135 62.54-9.135 62.54h-62.754q-18.27 0-9.135-62.54Z" style="fill:#e5e5e5" transform="rotate(156.786 314.442 1339.723) skewX(-18.649)"/><path bx:shape="triangle 787.787 2015.586 101.298 363.001 0.5 0.174 1@a53f63b4" d="M829.623 2078.748q8.813-63.162 17.626 0l33.023 236.677q8.813 63.162-8.813 63.162h-66.046q-17.626 0-8.813-63.162Z" style="fill:#d8d8d8" transform="rotate(178.776 205.497 1398.95) skewX(-18.238)"/></g></g></g></g></g><rect width="82.267" height="19.832" x="-1213.321" y="-560.509" rx="9.916" ry="9.916" style="fill:#dedede" transform="scale(-1 1) rotate(-3.991 -191325.763 -47324.093)"/></g><g data-name="Group 1051"><g data-name="Group 880"><g clip-path="url(#lægeIkonFinal2_svg__d)" data-name="Group 879" transform="matrix(-.43885 .01522 .01505 .46994 863.742 667.177)"><path fill="#323f51" d="M309.045 92.58c1.112-1.274 3.673-2.3 9.375-2.613a23.146 23.146 0 0 0-10.653-3c-1.191-7.929-5.408-21.96-19.054-25.371 0 0 7.334 3.908 8.29 12.337-15.806-16.23-49.667-28.043-143.435-20.64-123.576 9.754-82.85 88.874-66.851 98.306 15.999 9.432 56.27-16.427 86.078-14.059 29.808 2.368 35.476 45.436 45.589 51.348 10.113 5.912 6.134-4.541 19.817-10.725 13.683-6.184 14.983 16.486 11.03 31.228-3.953 14.742 14.849 34.182 14.849 34.182l19-20.459c19-20.459 36.9-107.115 28.263-125.588-.763-1.633-1.517-3.285-2.3-4.946" data-name="Path 1302"/></g></g></g></g><g data-name="Group 883"><g clip-path="url(#lægeIkonFinal2_svg__e)" data-name="Group 882" transform="matrix(.3618 0 0 .37655 634.81 722.33)"><g transform="translate(3.614 31.755)"><path fill="#f99746" d="M441.097 712.264c-1.795-5.643 3.192-11.112 8.976-9.845 5.784 1.267 8.028 8.321 4.038 12.696a7.686 7.686 0 0 1-3.356 2.149 7.685 7.685 0 0 1-9.658-5" data-name="Path 1332"/><path d="M379.338 374.482c0 4.814-2.306 4.523 6.351 26.142.984 2.458 15.326 5.78 15.827 8.548.281 1.552-13.572 22.11-13.283 23.709 14.398 79.55 26.991 110.611 31.764 130.767 1.984 8.378 21.264 97.383 28.905 132.076 1.176 5.34 1.385 13.355 1.804 15.482.152.773 13.72 3.249 13.068-.731-.133-.809-2.316-10.85-3.048-20.445-3.735-49.006-14.166-195.27-19.953-261.535-.168-1.916-20.221-19.181-20.381-20.994-.14-1.588 18.709-11.637 18.677-13.147-.394-18.691.052-36.077-1.518-36.539-1.665-.49-4.54 8.427-9.698 14.708-2.416 2.942-12.127 11.325-21.333 11.555-11.589.29-23.056-8.006-25.797-7.581" style="stroke:#000;fill:#be2f2f" transform="translate(-5.8 -24.49)"/><path fill="#f99746" d="M443.57 736.406c-1.795-5.643 3.192-11.112 8.976-9.845 5.784 1.267 8.028 8.321 4.038 12.696a7.686 7.686 0 0 1-3.356 2.149 7.685 7.685 0 0 1-9.658-5" data-name="Path 1332"/><rect width="164.448" height="41.402" x="167.515" y="206.335" rx="9.775" ry="9.775" style="fill:#ebe2e2" transform="rotate(37.541 163.52 329.944) skewX(7.002)"/><rect width="80.831" height="33.745" x="82.341" y="168.183" rx="9.775" ry="9.775" style="fill:#ebe2e2" transform="rotate(-68.335 304.842 -88.556) skewX(-40.59)"/></g></g></g><path bx:origin="0.601 0.486" fill="#fff2e9" d="M815.418 800.844s4.372 4.587 8.033 4.053c3.624-.53 6.486-6.963 6.486-6.963-4.678-.758-9.66.24-14.519 2.91" data-name="Path 1336" transform="rotate(-9.979 824.144 801.213)"/><path d="M-171.974 3.848h.881v2.137h-.881z" style="fill:#bab103" transform="rotate(175.145 310.473 484.252) skewX(2.578)"/><circle cx="-2010.615" cy="64.791" r="5.299" style="fill:#100c0c" transform="matrix(.34999 0 0 .30785 1535.347 903.46)"/><path d="M-727.074 17.674h3.725v9.818h-3.725z" style="fill:#ef5e5e" transform="rotate(-6.526 7998.224 -13176.504) skewX(2.453)"/><path d="M-143.817 5.829h.736v3.238h-.736z" style="fill:#dedede" transform="rotate(-94.612 768.558 17.137) skewX(3.57)"/><path d="M-180.954 3.848h.927v2.137h-.927z" style="fill:#bab103" transform="rotate(175.145 309.216 485.948) skewX(2.578)"/><circle cx="-2010.615" cy="64.791" r="5.299" style="fill:#100c0c" transform="matrix(.33898 0 0 .30785 1519.569 906.04)"/><path d="M-727.073 12.022h3.725V18.7h-3.725z" style="fill:#2d8120" transform="rotate(-6.526 8072.527 -13235.719) skewX(2.453)"/><path d="M-135.417 5.828h.693v3.237h-.693z" style="fill:#dedede" transform="rotate(-93.123 787.97 7.296) skewX(3.449)"/></g><path d="M782.365 866.556Z" style="fill:#d8d8d8;stroke:#000"/><g data-name="Group 874"><g data-name="Group 873"><g clip-path="url(#lægeIkonFinal2_svg__f)" data-name="Group 872" transform="matrix(.3618 0 0 .37655 1142.49 1527.166)"><path fill="#b2443b" d="M602.008 277.22c-1.055-1.75-44.926-71.123-126.933-84.964a117.58 117.58 0 0 0-76.164 12.828c-1.125-6.979-1.692-11.022-1.692-11.022s-10.005-44.143-51.754-46.288c0 0 13.312 7.957 15.445 16.356 0 0-24.231-20.331-61.777-6.739s-93.264 51.81-65.2 140.718-29.225 110.941-52.247 168.294 55.339 68.371 39.095 113.149 32.092 150.534 155.055 104.3C489.625 641.066 522.016 486 484.817 428.773Z" data-name="Path 1277"/><path fill="#ffb27d" d="m581.925 575.428-123.557 73.394-27.154-86.86s10.247-31.808 14.411-82.5a338.171 338.171 0 0 0-2-73.1l107.446 46.659a197.789 197.789 0 0 0-2.626 24.084c-.8 15.455-.271 36.192 5.341 55.565 4.832 16.629 13.407 32.256 28.139 42.758" data-name="Path 1279"/><path fill="#ea9c68" d="M553.786 532.669c-59.269 2.182-108.161-53.21-108.161-53.21l102.82-2.355c-.8 15.455-.271 36.194 5.341 55.565" data-name="Path 1280"/><path fill="#ffb27d" d="M580.39 497.877s-116.044 38.672-162.727-52.592c-50.381-98.49-6.872-175.353 32.889-182.88 79.29-15.011 127.656 12.511 143.75 43.833s50.152 170.883-13.912 191.64" data-name="Path 1281"/><path fill="#fff" d="M530.239 448.015s5.712 11.86 36.411 3.046c0 0 25.779-7.4 21.939-20.968 0 0-27.5-4.18-58.35 17.922" data-name="Path 1282"/><path fill="#323f51" d="M670.387 779.407v.014c42.464-42.441 30.849-86.107 31.176-86.146l-61.964-112.161v-.012c-11.631-9.96-26.495-17.124-45.344-19.509-6.932-.876-21.538-3.6-29.681-4.572 1.387 18.356 1.387 33.173-30.681 38.8-20.823 3.671-40.774-.128-58.128-7.189a146.755 146.755 0 0 1-43.934-28.141c-1.515.282-3 .565-4.468.821-30.708 5.677-49.578 8.111-74.946 18.153a69.338 69.338 0 0 0-23.622 15.508l-.077.077a69.953 69.953 0 0 0-11.426 15.175 69.17 69.17 0 0 0-8.345 41.773l4.339 37.359.67 5.856 7.238 62.288 16.585 142.736 3.982 34.352s-.695 4.239-1.876 11.556v.025c-.924 5.828-2.185 13.66-3.648 22.877h337.385a1556.703 1556.703 0 0 1-3.235-189.615v-.025Z" data-name="Path 1283"/><path fill="#b2443b" d="M499.085 273.244s1.529 91.126-50.976 121.139c0 0 20.744-42.93 13.741-69.161 0 0-13.564 81.281-55.042 95.458s-62.444-150.936 23.364-184.136 170.428 6.23 180.544 64.269 2.414 70.142 2.414 70.142-40.169-110.419-114.045-97.711" data-name="Path 1284"/><path fill="#202d3e" d="M457.146 969.042H336.238c1.463-9.216 2.722-17.047 3.648-22.877v-.023c1.179-7.318 1.876-11.557 1.876-11.557l-3.985-34.356-16.585-142.731-7.24-62.288-.668-5.854-4.339-37.361a69.169 69.169 0 0 1 8.345-41.773 13.631 13.631 0 0 1 6.674 3.261c17.331 14.635 34.3 40.516 50.017 71.047 5.751 11.193 11.347 23.029 16.715 35.148q5.545 12.56 10.76 25.368v.03c1.307 3.207 2.591 6.391 3.875 9.573 30.221 76.181 50.609 152.053 50.609 152.053s4.493 25.8 1.205 62.341" data-name="Path 1285"/><path fill="#ffb27d" d="M408.646 726.711s-2.724 6.984-7.189 18.333v.028c-2.673 6.774-5.957 15.146-9.682 24.493-16.045 40.414-39.774 99.366-54 130.665-3.49 7.675-6.417 13.685-8.5 17.355-1.951 3.441 2.7 14.353 10.6 28.554v.025c3.9 6.981 8.576 14.789 13.632 22.875h-89.598c-6.419-8.882-10.936-16.946-12.684-23.592-7.367-27.887 17.845-140.476 34.432-208.568a3508.1 3508.1 0 0 1 10.963-43.7c1.541-6.006 2.439-9.4 2.439-9.4l14.224 5.572 14.381 5.647h.026l63.006 24.675Z" data-name="Path 1286"/><path fill="#323f51" d="M391.992 769.548s-67.28 11.755-132.917-56.077c0 0 55.756-163.135 125.259-130.1s52.79 146.841 7.658 186.177" data-name="Path 1287"/><path bx:shape="ring 703.896 499.547 91.609 88.058 152.689 146.769 1@3533aeba" d="M551.207 499.547a152.689 146.769 0 1 0 305.378 0 152.689 146.769 0 1 0-305.378 0Zm61.08 0a91.609 88.058 0 0 1 183.218 0 91.609 88.058 0 0 1-183.218 0Z" style="fill:#d8d8d8" transform="rotate(-4.141 24341.499 -11839.496) skewX(.343)"/></g></g></g><text style="fill:#903;font-family:&quot;Roboto Slab&quot;;font-size:148px;font-weight:700;text-anchor:middle;white-space:pre" transform="matrix(.3618 0 0 .37655 1533.726 1305.435)"><tspan x="197.532" y="943.396">Patient</tspan><tspan>historier</tspan><tspan x="197.532" dy="1em">​</tspan></text></svg>