<?xml version="1.0" encoding="utf-8"?>
<svg viewBox="-202.805 -462.494 1294.989 1096.16" xmlns="http://www.w3.org/2000/svg" xmlns:bx="https://boxy-svg.com">
  <defs>
    <clipPath id="clip-path">
      <rect id="Rectangle_362" data-name="Rectangle 362" width="948.922" height="1058.047" fill="#323f51"/>
    </clipPath>
    <clipPath id="clip-path-2">
      <rect id="Rectangle_363" data-name="Rectangle 363" width="535.688" height="817.071" fill="none"/>
    </clipPath>
    <clipPath id="clip-2">
      <rect id="Rectangle_364" data-name="Rectangle 364" width="370.478" height="846.353" fill="none"/>
    </clipPath>
    <clipPath id="clip-3">
      <rect id="Rectangle_367" data-name="Rectangle 367" width="787.201" height="890.531" fill="none"/>
    </clipPath>
  </defs>
  <g transform="matrix(-0.999446, 0.033303, 0.033303, 0.999446, -816.460242, 253.760591)">
    <g>
      <g id="Group_1053" data-name="Group 1053" transform="matrix(1, 0, 0, 1, 242.33873, 13994.530273)">
        <path id="Path_1290" data-name="Path 1290" d="M -1513.478 -14526.514 L -1450.55 -14526.514 C -1180.064 -14526.514 -942.324 -14236.533 -923.852 -13946.551 C -923.637 -13943.178 -1021.138 -13735.451 -1176.332 -13635.241 C -1301.325 -13554.532 -1490.581 -13576.823 -1490.581 -13576.823 C -1594.297 -13599.49 -1686.571 -13565.029 -1752.464 -13582.125 C -1899.985 -13620.401 -1952.185 -13725.141 -1966.289 -13946.551 C -1986.692 -14266.856 -1783.967 -14526.514 -1513.478 -14526.514 Z" fill="#fff" style="" transform="matrix(-0.345161, 0.938543, -0.938543, -0.345161, -15131.580723, -17542.934317)"/>
        <g id="Group_875" data-name="Group 875" transform="matrix(1.012074, 0, 0, 1, -995.579163, -14324.144531)" style="">
          <g id="Group_873" data-name="Group 873" transform="matrix(1, 0, 0, 1, -1033.582886, -254.04747)">
            <g id="Group_872" data-name="Group 872" clip-path="url(#clip-path)">
              <g id="Group_877" data-name="Group 877" transform="matrix(1, 0, 0, 1, 315.154633, 78.647842)">
                <g id="Group_876" data-name="Group 876" clip-path="url(#clip-path-2)">
                  <path id="Path_1291" data-name="Path 1291" d="M87.525,136.579s45.069,67.879,35.618,130.923l66.333,158.988L312,245.637s-63.723-68.658-87.1-161.889Z" transform="translate(101.251 96.881)" fill="#ffb27d"/>
                  <path id="Path_1292" data-name="Path 1292" d="M108.025,274.975s165.566,7.978,169.17-89.249S325.946,24.067,202.128,14.8C100.3,7.182,66.192,48.536,56.919,80.7S46.675,269.408,108.025,274.975" transform="translate(60.459 16.058)" fill="#ffb27d"/>
                  <path id="Path_1294" data-name="Path 1294" d="M 413.862 341.859 L 413.84 341.859 C 413.618 341.84 412.257 341.759 409.211 341.738 C 390.675 359.474 347.511 394.006 287.135 400.538 C 254.084 404.114 237.435 388.169 229.255 373.929 C 229.233 373.91 229.233 373.89 229.216 373.871 C 227.5 370.846 226.02 367.692 224.79 364.439 L 224.971 363.723 C 224.971 363.723 105.515 390.111 74.942 429.115 C 58.233 450.442 42.942 534.596 29.463 623.401 C 29.424 623.601 29.355 623.816 29.363 624.016 C 31.008 665.445 45.316 706.953 57.982 738.111 C 77.578 786.318 82.399 777.649 101.691 792.202 C 126.03 810.563 423.12 777.6 476.767 745.539 C 504.255 757.256 543.788 380.304 536.284 377.106 C 479.031 344.044 415.366 341.9 413.863 341.859" style="fill: rgb(244, 237, 237);"/>
                  <path d="M 912.032 1907.554 L 967.126 2251.097 L 856.938 2251.097 L 912.032 1907.554 Z" style="fill: rgb(229, 229, 229);" transform="matrix(-0.925855, 0.377879, -0.157251, -1.015902, 1375.281982, 2359.700928)" bx:shape="triangle 856.938 1907.554 110.188 343.543 0.5 0 1@f584925c"/>
                  <path d="M 929.532 2071.651 L 985.683 2444.747 L 873.38 2444.747 L 929.532 2071.651 Z" style="fill: rgb(216, 216, 216);" transform="matrix(-0.998417, -0.056249, 0.408105, -0.978594, 308.370972, 2850.226563)" bx:shape="triangle 873.38 2071.651 112.303 373.096 0.5 0 1@79b14d3c"/>
                  <rect x="-97.044" y="-64.462" width="17.17" height="34.869" style="fill: rgb(235, 226, 226);" transform="matrix(-0.999432, 0.033705, 0.032906, 0.999459, 204.119638, 448.029338)" rx="2.084" ry="2.084"/>
                  <rect x="-41.513" y="-18.919" width="7.345" height="10.234" style="fill: rgb(235, 226, 226);" transform="matrix(-0.208781, -0.977962, -0.976928, 0.213626, 280.07368, 376.956173)" rx="1.42" ry="1.42"/>
                </g>
              </g>
            </g>
          </g>
        </g>
        <rect x="-1213.321" y="-560.509" width="82.267" height="19.832" style="fill: rgb(222, 222, 222);" transform="matrix(-0.997575, -0.069605, -0.069605, 0.997575, -2829.958026, -13432.008081)"/>
      </g>
    </g>
    <g id="Group_1051" data-name="Group 1051" transform="matrix(1.213635, 0, 0, 1.248699, -3095.921875, 17002.994141)" style="">
      <g id="Group_880" data-name="Group 880" transform="matrix(1, 0, 0, 1, 1347.944824, -14110.203125)">
        <g id="Group_879" data-name="Group 879" clip-path="url(#clip-2)">
          <path id="Path_1302" data-name="Path 1302" d="M 309.045 92.58 C 310.157 91.306 312.718 90.28 318.42 89.967 C 315.164 88.12 311.508 87.091 307.767 86.967 C 306.576 79.038 302.359 65.007 288.713 61.596 C 288.713 61.596 296.047 65.504 297.003 73.933 C 281.197 57.703 247.336 45.89 153.568 53.293 C 29.992 63.047 70.718 142.167 86.717 151.599 C 102.716 161.031 142.987 135.172 172.795 137.54 C 202.603 139.908 208.271 182.976 218.384 188.888 C 228.497 194.8 224.518 184.347 238.201 178.163 C 251.884 171.979 253.184 194.649 249.231 209.391 C 245.278 224.133 264.08 243.573 264.08 243.573 L 283.08 223.114 C 302.08 202.655 319.98 115.999 311.343 97.526 C 310.58 95.893 309.826 94.241 309.043 92.58" fill="#323f51"/>
        </g>
      </g>
    </g>
  </g>
  <g id="Group_884" data-name="Group 884" transform="matrix(1, 0, 0, 1, 676.824426, -194.216593)">
    <g id="Group_883" data-name="Group 883" transform="matrix(1, 0, 0, 1, -687.375977, -70.244141)">
      <g id="Group_882" data-name="Group 882" clip-path="url(#clip-3)">
        <g transform="matrix(1, 0, 0, 1, 3.614305, 31.755066)">
          <path id="Path_1308" data-name="Path 1308" d="M 33.283 -0.001 L -0.001 11.099 L -0.001 -0.001 Z" fill="#f8fbff"/>
          <path id="Path_1329" data-name="Path 1329" d="M 323.448 434.172 C 323.448 433.312 324.379 432.775 325.123 433.205 C 325.868 433.635 325.868 434.709 325.123 435.139 C 324.953 435.238 324.76 435.289 324.563 435.289 C 323.947 435.287 323.449 434.788 323.448 434.172" fill="#2b478b"/>
          <path id="Path_1332" data-name="Path 1332" d="M 441.097 712.264 C 439.302 706.621 444.289 701.152 450.073 702.419 C 455.857 703.686 458.101 710.74 454.111 715.115 C 453.201 716.114 452.043 716.855 450.755 717.264 C 446.707 718.553 442.381 716.314 441.097 712.264" fill="#f99746"/>
          <path id="Path_1333" data-name="Path 1333" d="M 436.666 424.401 C 436.666 423.541 437.597 423.004 438.342 423.434 C 439.086 423.864 439.086 424.938 438.341 425.368 C 438.171 425.467 437.976 425.519 437.779 425.518 C 437.163 425.517 436.665 425.017 436.666 424.401" fill="#2b478b"/>
          <path id="path-1" data-name="Path 1332" d="M 443.57 736.406 C 441.775 730.763 446.762 725.294 452.546 726.561 C 458.33 727.828 460.574 734.882 456.584 739.257 C 455.674 740.256 454.516 740.997 453.228 741.406 C 449.18 742.695 444.854 740.456 443.57 736.406" fill="#f99746"/>
          <rect x="147.6" y="223.444" width="144.897" height="44.834" style="fill: rgb(235, 226, 226);" transform="matrix(0.873774, 0.486331, -0.486331, 0.873774, 237.342682, -17.348038)" rx="9.775" ry="9.775"/>
          <rect x="57.303" y="168.183" width="56.252" height="33.745" style="fill: rgb(235, 226, 226);" transform="matrix(0.369186, -0.929356, 0.613041, 1.165446, 295.193756, 174.458267)" rx="9.775" ry="9.775"/>
        </g>
      </g>
    </g>
  </g>
  <path id="Path_1336" data-name="Path 1336" d="M -2055.674 -263.038 C -2055.674 -263.038 -2043.436 -250.843 -2033.35 -252.263 C -2023.363 -253.671 -2015.696 -270.775 -2015.696 -270.775 C -2028.638 -272.789 -2042.357 -270.137 -2055.674 -263.038" fill="#fff2e9" style="" transform="matrix(0.986008, -0.166696, 0.166696, 0.986008, 2559.58949, -135.250193)" bx:origin="0.601 0.486"/>
  <rect x="-475.203" y="10.22" width="2.434" height="5.677" style="fill: rgb(186, 177, 3);" transform="matrix(-0.996687, 0.081338, -0.134732, -0.992329, 61.327355, 314.899778)"/>
  <circle style="fill: rgb(16, 12, 12);" cx="-2010.615" cy="64.791" r="5.299" transform="matrix(0.967367, 0, 0, 0.817537, 2478.514703, 216.562106)"/>
  <rect x="-2008.622" y="46.96" width="10.291" height="26.086" style="fill: rgb(239, 94, 94);" transform="matrix(0.994013, -0.109258, 0.162508, 0.98816, 2517.47683, 4.688238)"/>
  <rect x="-382.034" y="16.106" width="1.957" height="8.947" style="fill: rgb(222, 222, 222);" transform="matrix(-0.08367, -0.996494, 0.992011, -0.137053, 482.730676, -99.133464)"/>
  <rect x="-500.015" y="10.22" width="2.561" height="5.677" style="fill: rgb(186, 177, 3);" transform="matrix(-0.996687, 0.081338, -0.134732, -0.992329, 54.784875, 324.177991)"/>
  <circle style="fill: rgb(16, 12, 12);" cx="-2010.615" cy="64.791" r="5.299" transform="matrix(0.93694, 0, 0, 0.817537, 2434.902726, 223.413547)"/>
  <rect x="-2008.62" y="31.941" width="10.291" height="17.743" style="fill: rgb(45, 129, 32);" transform="matrix(0.994013, -0.109258, 0.162508, 0.98816, 2537.409667, 26.096959)"/>
  <rect x="-359.666" y="16.106" width="1.842" height="8.947" style="fill: rgb(222, 222, 222);" transform="matrix(-0.056695, -0.998392, 0.995354, -0.11018, 511.293664, -72.817759)"/>
</svg>