<svg viewBox="349.524 -534.844 1389.098 914.741" xmlns="http://www.w3.org/2000/svg"><defs><clipPath id="MangelPåSelvomsorg_svg__a"><path d="M0 0h1166v1094H0z"/></clipPath><clipPath id="MangelPåSelvomsorg_svg__b"><path d="M0 0h545v513H0z"/></clipPath></defs><g data-name="Group 656"><g data-name="Group 322"><g data-name="Group 256"><g data-name="Group 658"><path fill="none" stroke="#323f51" stroke-linecap="round" stroke-linejoin="round" d="M192.423 0C138.855 9.074 12.052 2.631 1.107 6.085c-21.6 38.228 279.885 10.351 292.233 102.249" data-name="Path 419" style="stroke-width:4.01753px" transform="matrix(.7344 -.03849 .03967 .75701 612.258 140.38)"/><path fill="none" stroke="#323f51" stroke-linecap="round" stroke-linejoin="round" d="M94.8 0c52.075 10.14 175.344 2.941 185.984 6.8 21 42.72-291.4 15.164-280.51 98.08" data-name="Path 1048" style="stroke-width:4.01753px" transform="matrix(.7344 -.03849 .03967 .75701 714.145 139.835)"/><path stroke="#323f51" stroke-miterlimit="10" d="M.273 542.03c-.913 16.524.159 33.759 7.861 48.409 10.626 20.223 31.913 32.225 52.412 42.3 51.9 25.532 108.427 46.377 166.135 42.492s116.519-37.882 134.526-92.846c7.889-24.066 7.571-49.937 7.169-75.262l-3.353-214.005c-1.431-90.97-3.256-205-82.1-266.715C228.41-16.268 180.54-6.721 147.361 51.444c-35.7 62.575-42.477 143.389-61.082 211.931C61.356 355.154 5.576 446.269.273 542.03Z" data-name="Path 421" style="fill:#7ec8d6;stroke-width:4.01753px" transform="matrix(.7344 -.03849 .03967 .75701 607.508 -368.136)"/><path fill="none" stroke="#323f51" stroke-linecap="round" stroke-linejoin="round" d="M64.162 192.269C38.632 170.33 21.87 144.4 8.4 107.425 1.515 88.494-3.39 65.833 2.905 46.51 7.279 33.1 16.4 23.661 26 17.152 61.548-6.932 66.089 18.513 103.369 0" data-name="Path 422" style="stroke-width:4.01597px" transform="matrix(.10131 -.75074 .72876 .1068 501.438 -27.55)"/><path fill="none" stroke="#323f51" stroke-linecap="round" stroke-linejoin="round" d="M51.246 0C22.37 10.46.027 53.858 0 99.529c0 10.82 1.149 21.812 4.333 31.457 5.909 17.914 17.848 28.871 29.267 38.592 40.667 34.617 43.258-20.7 86.139 6.876" data-name="Path 423" style="stroke-width:4.01757px" transform="matrix(.0757 -.75371 .73156 .0804 890.422 -13.838)"/></g></g><path fill="#323f51" d="M10.955 9.451a34.11 34.11 0 0 1-9.53-5.184C.018 3.2-.615 2 .784.7 2.125-.531 3.5.049 4.757.988 14.609 8.314 25.466 8.7 37.028 4.141c.576-.227 1.166-.43 1.733-.669 1.427-.6 2.8-.64 3.631.634.866 1.323.352 2.462-1.269 3.156-9.693 4.138-19.662 5.726-30.168 2.189Z" data-name="Path 498" style="stroke-width:4.01793px" transform="matrix(-.68615 .27052 -.26466 -.70803 753.222 -258.283)"/><path fill="#323f51" d="M10.955 9.451a34.11 34.11 0 0 1-9.53-5.184C.018 3.2-.615 2 .784.7 2.125-.531 3.5.049 4.757.988 14.609 8.314 25.466 8.7 37.028 4.141c.576-.227 1.166-.43 1.733-.669 1.427-.6 2.8-.64 3.631.634.866 1.323.352 2.462-1.269 3.156-9.693 4.138-19.662 5.726-30.168 2.189Z" data-name="Path 499" style="stroke-width:4.01717px" transform="matrix(-.7197 -.15889 .15188 -.74124 838.884 -253.482)"/></g><path fill="none" stroke="#323f51" stroke-linecap="round" stroke-miterlimit="10" d="M27.787 12.128c-1.64-4.7-5.63-8.582-9.858-11.012A6.285 6.285 0 0 0 14.2.024a4.573 4.573 0 0 0-3.63 3.369 8.936 8.936 0 0 0 .33 5.159 17.5 17.5 0 0 0 8.241 9.92C13.912 18.64 1.325 20.637.1 27.084c-1.686 8.865 18.727 16.4 22.863 7.279" data-name="Path 604" style="stroke-width:4.01784px" transform="matrix(.63634 -.37798 .36877 .65703 765.51 -158.028)"/><path fill="none" stroke="#323f51" stroke-linecap="round" stroke-miterlimit="10" d="M6.729 0C5.021 2.986 3.241 5.938 1.491 8.894a10.005 10.005 0 0 0 .343 11.038c3.618 5 15.234 8.911 19.02 9.966 11.323 3.166 11.666-8.115 14.694-13.4" data-name="Path 605" style="stroke-width:4.01784px" transform="matrix(.63634 -.37798 .36877 .65703 794.594 -210.113)"/><path fill="none" stroke="#323f51" stroke-linecap="round" stroke-miterlimit="10" d="M6.729 0C5.02 2.986 3.241 5.938 1.49 8.894a10 10 0 0 0 .348 11.038c3.618 5 15.23 8.911 19.016 9.966 11.323 3.166 11.67-8.115 14.694-13.4" data-name="Path 606" style="stroke-width:4.01784px" transform="matrix(.63634 -.37798 .36877 .65703 740.68 -210.007)"/><path fill="#6c85a0" d="m52.451 96.7 5.949-5.3c-16.4 6.214-29.749 4.182-38.906-9.545C6.827 62.87 21.429 33.02 52.991 38.23l-15.037-5.784C40.5 18.389 53.154 9.2 67.622 10.928c13.644 1.629 24.005 13.644 23.191 27.263-4.708.4-9.47.8-14.568 1.236l.352 8.362c5.292-.549 10.259-1.032 15.219-1.591 14.957-1.683 29.914-3.418 44.874-5.091 3.3-.37 6.736-.482 4.245-5.832l-40.4 2.405C97.4 29.236 95.68 20.753 91.369 13.9 83.9 2.027 71.816-1.825 58.3.772 44.342 3.455 35.546 12.449 32.371 26.221c-1.1 4.765-2.488 7.17-7.649 8.537C7.172 39.4-3.138 57.339.857 74.956A34.064 34.064 0 0 0 39.1 101.124c3.625-.533 6.388-1.329 9.374 2.61 11.584 15.273 30.3 18.6 46.659 8.984 14.072-8.282 19.693-26.842 13.206-43.565-.342-.878-.552-1.811-1.016-3.36 10.9-4.328 21.706-8.464 32.344-12.989 1.971-.837 3.271-3.255 4.88-4.941l-1.734-2.022C122.464 52.772 102.107 59.7 81.068 66.86l3.082 7.822c5-1.763 9.483-3.351 13.913-4.912 6.726 12.354 2.29 26.749-10.422 34.7-11.411 7.152-26.969 3.93-35.19-7.77Z" data-name="Path 611" style="stroke-width:4.01837px" transform="matrix(.73491 .02753 -.02438 .75733 641.095 -181.939)"/></g><g data-name="Group 831"><g data-name="Group 840"><path d="M1361.262 1673.071c7.586-.15 13.582-4.819 13.39-10.427-.191-5.609-6.494-10.033-14.081-9.883-7.587.15-13.581 4.818-13.39 10.427.19 5.608 6.494 10.033 14.081 9.883Z" data-name="Path 1178" style="fill:transparent;stroke:#4d5c70;stroke-dasharray:8px;stroke-width:1.80003px" transform="matrix(-.41265 -1.5152 1.70094 -.46324 -926.649 2594.605)"/><path d="M903.757 1554.478c67.585-10.877 134.434-28.906 195.992-11.138 253.988 73.303-36.259 413.047-115.585 405.241-245.562-24.163-238.359-392.933-58.791-397.559" data-name="Path 517" style="fill:transparent;stroke:#557591;stroke-width:8px" transform="matrix(-1.53428 -.3348 .37584 -1.72237 1647.683 3237.211)"/><g data-name="Group 906"><g data-name="Group 316"><g data-name="Group 895"><g data-name="Group 894"><path fill="none" stroke-linecap="round" stroke-linejoin="round" d="M45.688 52.205C30.919 34.178 22.4 21.526 13.613.457a62.451 62.451 0 0 1-13.28 9.761" data-name="Path 578" style="stroke:#4d5c70;stroke-width:1.45038px" transform="matrix(-1.67715 -1.16516 1.08945 -1.7937 1517.743 338.817)"/><path fill="none" stroke-linecap="round" stroke-linejoin="round" d="M-2.165 70.239c11.044-24.31 19.781-38.98 37.218-56.42A105.386 105.386 0 0 1 17.7-.566" data-name="Path 579" style="stroke:#4d5c70;stroke-width:1.45099px" transform="matrix(-1.73118 1.06896 -.9995 -1.85149 1503.167 316.73)"/><path stroke-miterlimit="10" d="M762.419-260.176c-15.234 5.184-26.481 19.024-35.3 33.347a230.208 230.208 0 0 0-31.874 90.422c-.809 6.2-1.362 12.617.233 18.639 2.021 7.641 7.3 13.828 13.133 18.707 11.07 9.264 24.478 14.776 38.058 18.559a77.71 77.71 0 0 0 35.251 1.521c11.75-2.191 21.326-6.594 26.991-17.878 3.353-6.678-9.849-35.556-5.045-46.17 11.1-24.81 21.695-38.705 19.052-58.508s-11.726-39.6-27.769-49.728c-5.107-3.227-10.893-9.475-16.813-9.708-12.854-.507-6.681-.628-15.914.8" data-name="Path 580" style="stroke:#4d5c70;fill:#7ec8d6;stroke-width:1.45036px" transform="matrix(1.999 0 0 2.13791 -56.9 356.17)"/><path fill="none" stroke-linecap="round" stroke-linejoin="round" d="M42.011-23.128c4.532-3.031 21.872 15.251 23.26 17.539 6.11 10.071 6.856 28.283 6.617 40.994" data-name="Path 584" style="stroke:#4d5c70;stroke-width:1.45104px" transform="scale(-1.999 -2.13791) rotate(32 -250.233 -1310.773)"/><path fill="none" stroke-linecap="round" stroke-linejoin="round" d="M140.382 100.286c7.675-1.293-17.202 40.886-31.406 48.028" data-name="Path 1339" style="stroke:#4d5c70;stroke-width:1.45028px" transform="matrix(1.61877 -1.1674 1.26018 1.73127 1221.19 -9.262)"/></g></g></g><g data-name="Group 319"><g data-name="Group 317"><path fill="none" stroke-linecap="round" stroke-linejoin="round" d="M56.932 55.73a19.048 19.048 0 0 0 6.452.3" data-name="Path 586" style="stroke:#4d5c70;stroke-width:1.45036px" transform="matrix(1.999 0 0 2.13791 1429.078 -206.692)"/></g><g data-name="Group 318"><path fill="none" stroke-linecap="round" stroke-linejoin="round" d="M47.741 55.73c-2.118.467-6.047-.479-8.132.487" data-name="Path 588" style="stroke:#4d5c70;stroke-width:1.45036px" transform="matrix(1.999 0 0 2.13791 1408.972 -206.692)"/></g><path fill="none" stroke-linecap="round" stroke-linejoin="round" d="M65.629 65.461s-13.907-2.567-24.836-1.87" data-name="Path 589" style="stroke:#4d5c70;stroke-width:1.45036px" transform="matrix(1.999 0 0 2.13791 1410.375 -181.653)"/></g><g data-name="Group 1541"><g data-name="Group 1539"><path d="M-121.104-.097h-.045c-1.465.094-2.898-.506-3.957-1.655-.981-1.281-1.474-2.948-1.369-4.639-.025-1.699.527-3.344 1.542-4.597 1.018-1.18 2.421-1.833 3.878-1.809h.013c1.587.001 3.091.806 4.099 2.192a2.246 2.246 0 0 0-1.64-.642h-.041c-1.766-.109-2.974 1.983-2.176 3.766.109.243.25.466.421.658.485.546 1.141.852 1.826.851h.103c1.277-.013 2.281-1.236 2.199-2.678.01-.38-.048-.758-.17-1.112a7.454 7.454 0 0 1 .801 3.464c.047 1.671-.499 3.295-1.516 4.509-1.067 1.146-2.498 1.757-3.968 1.692Zm4.673-9.682a6.33 6.33 0 0 0-.512-.826c.224.229.4.51.515.825Z" data-name="Exclusion 2" style="fill:#4d5c70;stroke-width:2.52707px" transform="matrix(1.18827 -.06199 .06227 1.18277 1691.172 -76.583)"/><path d="M-121.104-.097h-.045c-1.465.094-2.898-.506-3.957-1.655-.981-1.281-1.474-2.948-1.369-4.639-.025-1.699.527-3.344 1.542-4.597 1.018-1.18 2.421-1.833 3.878-1.809h.013c1.587.001 3.091.806 4.099 2.192a2.246 2.246 0 0 0-1.64-.642h-.041c-1.766-.109-2.974 1.983-2.176 3.766.109.243.25.466.421.658.485.546 1.141.852 1.826.851h.103c1.277-.013 2.281-1.236 2.199-2.678.01-.38-.048-.758-.17-1.112a7.454 7.454 0 0 1 .801 3.464c.047 1.671-.499 3.295-1.516 4.509-1.067 1.146-2.498 1.757-3.968 1.692Zm4.673-9.682a6.33 6.33 0 0 0-.512-.826c.224.229.4.51.515.825Z" data-name="Exclusion 2" style="fill:#4d5c70;stroke-width:2.52707px" transform="matrix(1.18827 -.06199 .06227 1.18277 1646.362 -78.637)"/></g></g></g><path d="M1300.673 1651.565c7.586-.15 13.582-4.819 13.39-10.427-.191-5.609-6.494-10.033-14.081-9.883-7.587.15-13.581 4.818-13.39 10.427.19 5.608 6.494 10.033 14.081 9.883Z" data-name="Path 1178" style="fill:transparent;stroke:#4d5c70;stroke-dasharray:8px;stroke-width:1.80003px" transform="matrix(-.41265 -1.5152 1.70094 -.46324 -1010.219 2454.925)"/><path d="M1246.954 1677.585c7.586-.15 13.582-4.819 13.39-10.427-.191-5.609-6.494-10.033-14.081-9.883-7.587.15-13.581 4.818-13.39 10.427.19 5.608 6.494 10.033 14.081 9.883Z" data-name="Path 1178" style="fill:transparent;stroke:#4d5c70;stroke-dasharray:8px;stroke-width:1.80003px" transform="matrix(-.41265 -1.5152 1.70094 -.46324 -1161.004 2431.454)"/></g></g><path d="M802.407 201.955h253.956s194.105 6.88 195.172-40.854c1.066-47.733-39.865-44.554-71.706-63.125-31.843-18.571-8.929-41.855-36.616-75.249-27.686-33.392-53.633-38.35-104.068-10.874-50.437 27.476-82.51-102.726-163.246-88.151-80.736 14.576-90.799 59.452-94.241 119.473-3.44 60.023-63.466 48.801-56.367 99.544 7.099 50.741 77.116 59.236 77.116 59.236Z" data-name="Path 1226" style="fill:#353f4f"/><path d="M428.588-395.311h200.933s153.578-5.552 154.423 32.97c.843 38.52-31.542 35.955-56.735 50.941-25.195 14.987-7.065 33.777-28.971 60.726-21.906 26.947-42.435 30.948-82.34 8.775-39.907-22.173-65.283 82.9-129.163 71.138-63.879-11.763-71.841-47.978-74.564-96.414-2.722-48.439-50.216-39.383-44.599-80.332 5.617-40.948 61.016-47.804 61.016-47.804Z" data-name="Path 1226" style="fill:#353f4f" transform="rotate(180 575.535 -282.714)"/></svg>