<?xml version="1.0" encoding="utf-8"?>
<svg viewBox="349.524 -534.844 1389.098 914.741" xmlns="http://www.w3.org/2000/svg">
  <defs>
    <clipPath id="clip-1">
      <rect width="1166" height="1094"/>
    </clipPath>
    <clipPath id="clip-Illustration_-_Min_fysiske_energi_-_Min_fysiske_aktivitet">
      <rect width="545" height="513"/>
    </clipPath>
  </defs>
  <g id="g-1" data-name="Group 656" transform="matrix(0.734397, -0.038488, 0.039674, 0.757013, 483.928061, -361.659456)" style="">
    <g id="Group_322" data-name="Group 322" transform="translate(0 0)">
      <g id="Group_256" data-name="Group 256" transform="translate(0 0)">
        <g id="Group_658" data-name="Group 658" transform="translate(0 0)">
          <path id="Path_419" data-name="Path 419" d="M192.423,0C138.855,9.074,12.052,2.631,1.107,6.085c-21.6,38.228,279.885,10.351,292.233,102.249" transform="translate(138.534 670.229)" stroke="#323f51" stroke-linecap="round" stroke-linejoin="round" style="stroke-width: 4.01753px;" fill="none"/>
          <path id="Path_1048" data-name="Path 1048" d="M94.8,0c52.075,10.14,175.344,2.941,185.984,6.8,21,42.72-291.4,15.164-280.51,98.08" transform="translate(276.929 676.544)" stroke="#323f51" stroke-linecap="round" stroke-linejoin="round" style="stroke-width: 4.01753px;" fill="none"/>
          <path id="Path_421" data-name="Path 421" d="M.273,542.03c-.913,16.524.159,33.759,7.861,48.409,10.626,20.223,31.913,32.225,52.412,42.3,51.9,25.532,108.427,46.377,166.135,42.492S343.2,637.349,361.207,582.385c7.889-24.066,7.571-49.937,7.169-75.262l-3.353-214.005c-1.431-90.97-3.256-205-82.1-266.715C228.41-16.268,180.54-6.721,147.361,51.444c-35.7,62.575-42.477,143.389-61.082,211.931C61.356,355.154,5.576,446.269.273,542.03Z" transform="translate(168.274 0)" stroke="#323f51" stroke-miterlimit="10" style="fill: rgb(126, 200, 214); stroke-width: 4.01753px;"/>
          <path id="Path_422" data-name="Path 422" d="M64.162,192.269C38.632,170.33,21.87,144.4,8.4,107.425,1.515,88.494-3.39,65.833,2.905,46.51,7.279,33.1,16.4,23.661,26,17.152,61.548-6.932,66.089,18.513,103.369,0" transform="matrix(0.191, -0.982, 0.982, 0.191, 0, 441.353)" stroke="#323f51" stroke-linecap="round" stroke-linejoin="round" style="stroke-width: 4.01597px;" fill="none"/>
          <path id="Path_423" data-name="Path 423" d="M51.246,0C22.37,10.46.027,53.858,0,99.529c0,10.82,1.149,21.812,4.333,31.457C10.242,148.9,22.181,159.857,33.6,169.578c40.667,34.617,43.258-20.7,86.139,6.876" transform="translate(527.237 486.271) rotate(-81)" stroke="#323f51" stroke-linecap="round" stroke-linejoin="round" style="stroke-width: 4.01757px;" fill="none"/>
          <g id="g-3" clip-path="url(#clip-1)" transform="matrix(0.998629, 0.052336, -0.052336, 0.998629, 5091.681641, 1695.382813)"/>
          <g id="Illustration_-_Min_fysiske_energi_-_Min_fysiske_aktivitet" data-name="Illustration - Min fysiske energi - Min fysiske aktivitet" clip-path="url(#clip-Illustration_-_Min_fysiske_energi_-_Min_fysiske_aktivitet)" transform="matrix(0.998629, 0.052336, -0.052336, 0.998629, 4818.533203, 1278.323242)"/>
        </g>
      </g>
      <path id="Path_498" data-name="Path 498" d="M10.955,9.451a34.11,34.11,0,0,1-9.53-5.184C.018,3.2-.615,2,.784.7,2.125-.531,3.5.049,4.757.988,14.609,8.314,25.466,8.7,37.028,4.141c.576-.227,1.166-.43,1.733-.669,1.427-.6,2.8-.64,3.631.634.866,1.323.352,2.462-1.269,3.156C31.43,11.4,21.461,12.988,10.955,9.451Z" transform="matrix(-0.951, 0.309, -0.309, -0.951, 358.326, 154.777)" style="stroke-width: 4.01793px;" fill="#323f51"/>
      <path id="Path_499" data-name="Path 499" d="M10.955,9.451a34.11,34.11,0,0,1-9.53-5.184C.018,3.2-.615,2,.784.7,2.125-.531,3.5.049,4.757.988,14.609,8.314,25.466,8.7,37.028,4.141c.576-.227,1.166-.43,1.733-.669,1.427-.6,2.8-.64,3.631.634.866,1.323.352,2.462-1.269,3.156C31.43,11.4,21.461,12.988,10.955,9.451Z" transform="matrix(-0.966, -0.259, 0.259, -0.966, 474.307, 167.015)" style="stroke-width: 4.01717px;" fill="#323f51"/>
    </g>
    <path id="Path_604" data-name="Path 604" d="M27.787,12.128c-1.64-4.7-5.63-8.582-9.858-11.012A6.285,6.285,0,0,0,14.2.024,4.573,4.573,0,0,0,10.57,3.393,8.936,8.936,0,0,0,10.9,8.552a17.5,17.5,0,0,0,8.241,9.92C13.912,18.64,1.325,20.637.1,27.084c-1.686,8.865,18.727,16.4,22.863,7.279" transform="matrix(0.891, -0.454, 0.454, 0.891, 367.878, 287.697)" stroke="#323f51" stroke-linecap="round" stroke-miterlimit="10" style="stroke-width: 4.01784px;" fill="none"/>
    <path id="Path_605" data-name="Path 605" d="M6.729,0C5.021,2.986,3.241,5.938,1.491,8.894a10.005,10.005,0,0,0,.343,11.038c3.618,5,15.234,8.911,19.02,9.966,11.323,3.166,11.666-8.115,14.694-13.4" transform="matrix(0.891, -0.454, 0.454, 0.891, 411.078, 221.09)" stroke="#323f51" stroke-linecap="round" stroke-miterlimit="10" style="stroke-width: 4.01784px;" fill="none"/>
    <path id="Path_606" data-name="Path 606" d="M6.729,0C5.02,2.986,3.241,5.938,1.49,8.894a10,10,0,0,0,.348,11.038c3.618,5,15.23,8.911,19.016,9.966,11.323,3.166,11.67-8.115,14.694-13.4" transform="matrix(0.891, -0.454, 0.454, 0.891, 337.859, 217.508)" stroke="#323f51" stroke-linecap="round" stroke-miterlimit="10" style="stroke-width: 4.01784px;" fill="none"/>
    <path id="Path_611" data-name="Path 611" d="M52.451,96.7,58.4,91.4C42,97.614,28.651,95.582,19.494,81.855,6.827,62.87,21.429,33.02,52.991,38.23L37.954,32.446C40.5,18.389,53.154,9.2,67.622,10.928c13.644,1.629,24.005,13.644,23.191,27.263-4.708.4-9.47.8-14.568,1.236l.352,8.362c5.292-.549,10.259-1.032,15.219-1.591,14.957-1.683,29.914-3.418,44.874-5.091,3.3-.37,6.736-.482,4.245-5.832l-40.4,2.405C97.4,29.236,95.68,20.753,91.369,13.9,83.9,2.027,71.816-1.825,58.3.772,44.342,3.455,35.546,12.449,32.371,26.221c-1.1,4.765-2.488,7.17-7.649,8.537C7.172,39.4-3.138,57.339.857,74.956A34.064,34.064,0,0,0,39.1,101.124c3.625-.533,6.388-1.329,9.374,2.61,11.584,15.273,30.3,18.6,46.659,8.984,14.072-8.282,19.693-26.842,13.206-43.565-.342-.878-.552-1.811-1.016-3.36,10.9-4.328,21.706-8.464,32.344-12.989,1.971-.837,3.271-3.255,4.88-4.941l-1.734-2.022C122.464,52.772,102.107,59.7,81.068,66.86l3.082,7.822c5-1.763,9.483-3.351,13.913-4.912,6.726,12.354,2.29,26.749-10.422,34.7C76.23,111.622,60.672,108.4,52.451,96.7Z" transform="matrix(0.996, 0.087, -0.087, 0.996, 200.632, 247.608)" style="stroke-width: 4.01837px;" fill="#6c85a0"/>
  </g>
  <g id="Group_831" data-name="Group 831" transform="matrix(1, 0, 0, 1, 10468.72396, -3888.529329)">
    <g id="Group_840" data-name="Group 840" transform="matrix(1.570383, 0, 0, 1.762897, -11265.592773, 719.196899)" style="">
      <path id="Path_1178" data-name="Path 1178" d="M 1361.262 1673.071 C 1368.848 1672.921 1374.844 1668.252 1374.652 1662.644 C 1374.461 1657.035 1368.158 1652.611 1360.571 1652.761 C 1352.984 1652.911 1346.99 1657.579 1347.181 1663.188 C 1347.371 1668.796 1353.675 1673.221 1361.262 1673.071 Z" style="fill: rgba(85, 117, 145, 0); stroke: rgb(77, 92, 112); stroke-dasharray: 8px; stroke-width: 1.80003px;" transform="matrix(-0.262773, -0.859492, 1.08314, -0.262773, -82.642307, 3269.582484)"/>
      <path id="Path_517" data-name="Path 517" d="M 903.757 1554.478 C 971.342 1543.601 1038.191 1525.572 1099.749 1543.34 C 1353.737 1616.643 1063.49 1956.387 984.164 1948.581 C 738.602 1924.418 745.805 1555.648 925.373 1551.022" style="fill: rgba(85, 117, 145, 0); stroke: rgb(85, 117, 145); stroke-width: 8px;" transform="matrix(-0.97701, -0.189912, 0.239329, -0.97701, 1556.659468, 3634.09992)"/>
      <g id="Group_906" data-name="Group 906" transform="matrix(1.272933, 0, 0, 1.212726, -235.516235, 1262.239136)" style="">
        <g id="Group_316" data-name="Group 316" transform="translate(1249.642 346.891)">
          <g id="Group_895" data-name="Group 895" transform="translate(0)">
            <g id="Group_894" data-name="Group 894">
              <path id="Path_578" data-name="Path 578" d="M45.688,52.205C30.919,34.178,22.4,21.526,13.613.457A62.451,62.451,0,0,1,.333,10.218" transform="matrix(-0.839, -0.545, 0.545, -0.839, 93.266, 253.205)" fill="none" stroke-linecap="round" stroke-linejoin="round" style="stroke: rgb(77, 92, 112); stroke-width: 1.45038px;"/>
              <path id="Path_579" data-name="Path 579" d="M-2.165,70.239C8.879,45.929,17.616,31.259,35.053,13.819A105.386,105.386,0,0,1,17.7-.566" fill="none" stroke-linecap="round" stroke-linejoin="round" style="stroke: rgb(77, 92, 112); stroke-width: 1.45099px;" transform="translate(85.974 242.874) rotate(150)"/>
              <path id="Path_580" data-name="Path 580" d="M762.419-260.176c-15.234,5.184-26.481,19.024-35.3,33.347a230.208,230.208,0,0,0-31.874,90.422c-.809,6.2-1.362,12.617.233,18.639,2.021,7.641,7.3,13.828,13.133,18.707,11.07,9.264,24.478,14.776,38.058,18.559a77.71,77.71,0,0,0,35.251,1.521c11.75-2.191,21.326-6.594,26.991-17.878,3.353-6.678-9.849-35.556-5.045-46.17,11.1-24.81,21.695-38.705,19.052-58.508s-11.726-39.6-27.769-49.728c-5.107-3.227-10.893-9.475-16.813-9.708-12.854-.507-6.681-.628-15.914.8" transform="translate(-694.453 261.322)" stroke-miterlimit="10" style="stroke: rgb(77, 92, 112); fill: rgb(126, 200, 214); stroke-width: 1.45036px;"/>
              <path id="Path_584" data-name="Path 584" d="M 42.011 -23.128 C 46.543 -26.159 63.883 -7.877 65.271 -5.589 C 71.381 4.482 72.127 22.694 71.888 35.405" transform="translate(66.639 161.296) rotate(-148)" fill="none" stroke-linecap="round" stroke-linejoin="round" style="stroke: rgb(77, 92, 112); stroke-width: 1.45104px;"/>
              <path id="Path_1339" data-name="Path 1339" d="M 140.382 100.286 C 148.057 98.993 123.18 141.172 108.976 148.314" fill="none" stroke-linecap="round" stroke-linejoin="round" style="stroke: rgb(77, 92, 112); stroke-width: 1.45028px;" transform="matrix(0.809794, -0.546049, 0.630409, 0.809794, -55.085052, 90.392421)"/>
            </g>
          </g>
        </g>
        <g id="Group_319" data-name="Group 319" transform="translate(1328.009 393.812)">
          <g id="Group_317" data-name="Group 317" transform="translate(26.88 0)">
            <path id="Path_586" data-name="Path 586" d="M56.932,55.73a19.048,19.048,0,0,0,6.452.3" transform="translate(-56.336 -48.876)" fill="none" stroke-linecap="round" stroke-linejoin="round" style="stroke: rgb(77, 92, 112); stroke-width: 1.45036px;"/>
          </g>
          <g id="Group_318" data-name="Group 318" transform="translate(0 0)">
            <path id="Path_588" data-name="Path 588" d="M 47.741 55.73 C 45.623 56.197 41.694 55.251 39.609 56.217" transform="translate(-39.514 -48.876)" fill="none" stroke-linecap="round" stroke-linejoin="round" style="stroke: rgb(77, 92, 112); stroke-width: 1.45036px;"/>
          </g>
          <path id="Path_589" data-name="Path 589" d="M 65.629 65.461 C 65.629 65.461 51.722 62.894 40.793 63.591" transform="translate(-38.812 -37.164)" fill="none" stroke-linecap="round" stroke-linejoin="round" style="stroke: rgb(77, 92, 112); stroke-width: 1.45036px;"/>
        </g>
        <g id="Group_1541" data-name="Group 1541" transform="matrix(0.59525, 0, 0, 0.553993, 969.968129, -273.542064)">
          <g id="Group_1539" data-name="Group 1539" transform="matrix(0.99863, -0.052336, 0.052336, 0.99863, 772.2771, 1226.254272)">
            <path id="Exclusion_2" data-name="Exclusion 2" d="M -121.104 -0.097 L -121.149 -0.097 C -122.614 -0.003 -124.047 -0.603 -125.106 -1.752 C -126.087 -3.033 -126.58 -4.7 -126.475 -6.391 C -126.5 -8.09 -125.948 -9.735 -124.933 -10.988 C -123.915 -12.168 -122.512 -12.821 -121.055 -12.797 L -121.042 -12.797 C -119.455 -12.796 -117.951 -11.991 -116.943 -10.605 C -117.401 -11.041 -117.985 -11.271 -118.583 -11.247 L -118.624 -11.247 C -120.39 -11.356 -121.598 -9.264 -120.8 -7.481 C -120.691 -7.238 -120.55 -7.015 -120.379 -6.823 C -119.894 -6.277 -119.238 -5.971 -118.553 -5.972 L -118.45 -5.972 C -117.173 -5.985 -116.169 -7.208 -116.251 -8.65 C -116.241 -9.03 -116.299 -9.408 -116.421 -9.762 C -115.884 -8.71 -115.606 -7.513 -115.62 -6.298 C -115.573 -4.627 -116.119 -3.003 -117.136 -1.789 C -118.203 -0.643 -119.634 -0.032 -121.104 -0.097 Z M -116.431 -9.779 C -116.582 -10.069 -116.752 -10.345 -116.943 -10.605 C -116.719 -10.376 -116.543 -10.095 -116.428 -9.78 Z" style="fill: rgb(77, 92, 112); stroke-width: 2.52707px;"/>
            <path id="path-4" data-name="Exclusion 2" d="M -121.104 -0.097 L -121.149 -0.097 C -122.614 -0.003 -124.047 -0.603 -125.106 -1.752 C -126.087 -3.033 -126.58 -4.7 -126.475 -6.391 C -126.5 -8.09 -125.948 -9.735 -124.933 -10.988 C -123.915 -12.168 -122.512 -12.821 -121.055 -12.797 L -121.042 -12.797 C -119.455 -12.796 -117.951 -11.991 -116.943 -10.605 C -117.401 -11.041 -117.985 -11.271 -118.583 -11.247 L -118.624 -11.247 C -120.39 -11.356 -121.598 -9.264 -120.8 -7.481 C -120.691 -7.238 -120.55 -7.015 -120.379 -6.823 C -119.894 -6.277 -119.238 -5.971 -118.553 -5.972 L -118.45 -5.972 C -117.173 -5.985 -116.169 -7.208 -116.251 -8.65 C -116.241 -9.03 -116.299 -9.408 -116.421 -9.762 C -115.884 -8.71 -115.606 -7.513 -115.62 -6.298 C -115.573 -4.627 -116.119 -3.003 -117.136 -1.789 C -118.203 -0.643 -119.634 -0.032 -121.104 -0.097 Z M -116.431 -9.779 C -116.582 -10.069 -116.752 -10.345 -116.943 -10.605 C -116.719 -10.376 -116.543 -10.095 -116.428 -9.78 Z" style="fill: rgb(77, 92, 112); stroke-width: 2.52707px;" transform="matrix(1, 0, 0, 1, -37.516334, -3.702854)"/>
          </g>
        </g>
      </g>
      <path id="path-2" data-name="Path 1178" d="M 1300.673 1651.565 C 1308.259 1651.415 1314.255 1646.746 1314.063 1641.138 C 1313.872 1635.529 1307.569 1631.105 1299.982 1631.255 C 1292.395 1631.405 1286.401 1636.073 1286.592 1641.682 C 1286.782 1647.29 1293.086 1651.715 1300.673 1651.565 Z" style="fill: rgba(85, 117, 145, 0); stroke: rgb(77, 92, 112); stroke-dasharray: 8px; stroke-width: 1.80003px;" transform="matrix(-0.262773, -0.859492, 1.08314, -0.262773, -135.85839, 3190.349476)"/>
      <path id="path-3" data-name="Path 1178" d="M 1246.954 1677.585 C 1254.54 1677.435 1260.536 1672.766 1260.344 1667.158 C 1260.153 1661.549 1253.85 1657.125 1246.263 1657.275 C 1238.676 1657.425 1232.682 1662.093 1232.873 1667.702 C 1233.063 1673.31 1239.367 1677.735 1246.954 1677.585 Z" style="fill: rgba(85, 117, 145, 0); stroke: rgb(77, 92, 112); stroke-dasharray: 8px; stroke-width: 1.80003px;" transform="matrix(-0.262773, -0.859492, 1.08314, -0.262773, -231.876611, 3177.035803)"/>
    </g>
    <g id="Group_656" data-name="Group 656" transform="matrix(0.463966, -0.024315, 0.0259, 0.494203, -9905.03125, 3667.9104)" style=""/>
  </g>
  <path id="Path_1226" data-name="Path 1226" d="M 802.407 201.955 L 1056.363 201.955 C 1056.363 201.955 1250.468 208.835 1251.535 161.101 C 1252.601 113.368 1211.67 116.547 1179.829 97.976 C 1147.986 79.405 1170.9 56.121 1143.213 22.727 C 1115.527 -10.665 1089.58 -15.623 1039.145 11.853 C 988.708 39.329 956.635 -90.873 875.899 -76.298 C 795.163 -61.722 785.1 -16.846 781.658 43.175 C 778.218 103.198 718.192 91.976 725.291 142.719 C 732.39 193.46 802.407 201.955 802.407 201.955 Z" style="fill: rgb(53, 63, 79);"/>
  <path id="path-5" data-name="Path 1226" d="M 428.588 -395.311 L 629.521 -395.311 C 629.521 -395.311 783.099 -400.863 783.944 -362.341 C 784.787 -323.821 752.402 -326.386 727.209 -311.4 C 702.014 -296.413 720.144 -277.623 698.238 -250.674 C 676.332 -223.727 655.803 -219.726 615.898 -241.899 C 575.991 -264.072 550.615 -158.999 486.735 -170.761 C 422.856 -182.524 414.894 -218.739 412.171 -267.175 C 409.449 -315.614 361.955 -306.558 367.572 -347.507 C 373.189 -388.455 428.588 -395.311 428.588 -395.311 Z" style="fill: rgb(53, 63, 79);" transform="matrix(-1, 0, 0, -1, 1151.070892, -565.427979)"/>
</svg>