<svg viewBox="803.201 337.459 502.53 124.245" xmlns="http://www.w3.org/2000/svg"><g data-name="Group 1500"><g data-name="Group 1415"><g transform="translate(349.778 361.953)"><rect width="367.873" height="70" x="67.28" fill="#fff" data-name="Rectangle 332" rx="35"/><text x="110.428" y="49.454" style="fill:#e79e17;font-family:Arial,sans-serif;font-size:43px;font-weight:700;white-space:pre">Hver Dag</text><g fill="#e79e17" transform="matrix(1.18252 0 0 1.19903 -378.094 -552.237)"><path d="M659.647 475.287c10.372 6.232 14.108 19.06 8.345 28.652-5.763 9.592-11.77 12.357-31.64 4.624-10.373-6.232-.307-28.052-.307-28.052s13.23-11.456 23.602-5.224Z" data-name="Path 442"/><rect width="23.836" height="3.666" data-name="Rectangle 157" rx="1.833" transform="rotate(36.996 -382.104 1149.872)"/><rect width="26.891" height="4.889" data-name="Rectangle 160" rx="2.444" transform="rotate(36.996 -423.385 1254.043)"/><rect width="21.385" height="3.665" data-name="Rectangle 161" rx="1.833" transform="rotate(74.991 -7.8 687.256)"/><rect width="21.375" height="3.664" data-name="Rectangle 162" rx="1.833" transform="rotate(103.008 153.54 490.768)"/><rect width="26.883" height="3.665" data-name="Rectangle 158" rx="1.833" transform="rotate(-35.025 1135.333 -703.04)"/><rect width="26.272" height="3.665" data-name="Rectangle 159" rx="1.833" transform="rotate(-35.025 1097.286 -819.44)"/></g></g><g><g data-name="Group 1500"><g data-name="Group 1415" transform="matrix(.89918 0 0 1 844.607 364.943)"><rect width="435.153" height="70" fill="#fff" data-name="Rectangle 332" rx="35"/></g></g><g data-name="Group 688"><path fill="#076572" d="M1163.254 419.235a134.21 127.8 0 0 0-17.958.69 112.753 107.368 0 0 0-17.172 3.336c-2.26.615-4.71 1.474-4.902 2.75-.12.8.704 1.546 1.575 2.218a14.378 13.691 0 0 0 4.693 2.536c3.5 1.095 7.95.975 12.077.811 10.363-.41 20.741-.864 30.95-1.84a85.903 81.8 0 0 0 10.81-1.542c1.863-.415 3.819-1.045 4.22-2.039.578-1.427-2.1-2.674-4.333-3.317-4.473-1.287-5.478-1.79-10.452-2.368a110.024 104.769 0 0 0-11.447-1.257" data-name="Path 468"/><path fill="#009cb2" d="M1177.25 402.803a90.733 86.4 0 0 0-16.579.872 80.127 76.3 0 0 0-15.857 4.22c-2.086.778-4.35 1.865-4.526 3.478a4.188 3.988 0 0 0 1.452 2.806c1.164 1.233 4.19 2.343 6.013 3.124 3.232 1.385 5.66 1.321 9.469 1.114 9.569-.52 19.151-1.093 28.576-2.328a59.62 56.773 0 0 0 9.977-1.95c1.721-.524 3.527-1.32 3.898-2.579.533-1.805-1.939-3.382-4.002-4.2-4.13-1.628-5.058-2.264-9.651-3a75.577 71.967 0 0 0-10.574-1.59" data-name="Path 469"/><path fill="#7ec8d6" d="M1186.883 403.393a118.744 124.7-90 0 0 17.958-.742 100.687 105.737-90 0 0 17.17-3.593c2.259-.662 4.71-1.587 4.902-2.96.12-.858-.705-1.666-1.575-2.389a13.484 14.16 90 0 0-4.69-2.735c-3.5-1.179-7.951-1.05-12.077-.874-10.363.443-20.742.93-30.95 1.982a76.365 80.195-90 0 0-10.808 1.66c-1.864.446-3.82 1.125-4.222 2.2-.578 1.537 2.1 2.88 4.334 3.572 4.473 1.386 5.478 1.927 10.452 2.55a97.621 102.517 90 0 0 11.453 1.35" data-name="Path 470"/><path fill="rgba(50,63,81,0.14)" d="M1212.093 390.427a118.744 124.7-90 0 0 17.958-.742 100.687 105.737-90 0 0 17.17-3.593c2.259-.662 4.71-1.587 4.902-2.96.12-.858-.705-1.666-1.575-2.389a13.484 14.16 90 0 0-4.69-2.735c-3.5-1.179-7.951-1.05-12.077-.874-10.363.443-20.742.93-30.95 1.982a76.365 80.195-90 0 0-10.808 1.66c-1.864.446-3.82 1.125-4.222 2.2-.578 1.537 2.1 2.88 4.334 3.572 4.473 1.386 5.478 1.927 10.452 2.55a97.621 102.517 90 0 0 11.453 1.35" data-name="Path 471"/><path fill="rgba(50,63,81,0.14)" d="M1244.651 359.416a124.756 118.798 0 0 0-17.976-.457 105.785 100.733 0 0 0-17.399 2.442c-2.303.51-4.818 1.27-5.11 2.628-.182.847 1.003 3.654 1.817 4.434 1.18 1.132 2.138.301 4.06 1.096 3.406 1.41 9.847.72 13.98.819 10.374.248 18.773 1.313 29.039.943a80.231 76.4 0 0 0 10.908-.936c1.893-.32 3.895-.868 4.375-1.914.69-1.495-1.884-3.013-4.063-3.854-4.361-1.681-5.325-2.288-10.243-3.241a102.564 97.665 0 0 0-11.328-2.11" data-name="Path 472"/></g></g><text x="620.722" y="44.199" style="fill:#009cb2;font-family:Arial,sans-serif;font-size:43px;font-weight:700;white-space:pre" transform="translate(252.539 371.012)">Måltrappen</text><g data-name="Group 1501" transform="translate(17746.891 21187.08)"><rect width="334.034" height="70" x="-17330.033" y="-20926.396" fill="#fff" data-name="Rectangle 529" rx="35"/><g data-name="Group 1493"><g data-name="Group 1490"><g data-name="Group 1479"><path fill="#ffbe06" d="m-17052.966-20893.267 42.794-37.957a4.557 4.557 0 0 1 6.434.385l4.235 4.773a4.557 4.557 0 0 1-.386 6.434l-42.794 37.958-.48.203-14.281 6.027-4.134 1.745a1.242 1.242 0 0 1-1.56-1.76l2.223-3.896 7.688-13.46Z" data-name="Path 1941"/></g><g data-name="Group 1480"><path fill="#323f51" d="m-17014.349-20927.519 4.177-3.704a4.557 4.557 0 0 1 6.434.385l4.235 4.773a4.557 4.557 0 0 1-.386 6.434l-4.177 3.705Z" data-name="Path 1942"/></g><g data-name="Group 1481"><path fill="#d7dcf0" d="m-17004.066-20915.925-3.665 3.251-10.284-11.593 3.666-3.252z" data-name="Rectangle 528"/><path fill="#390075" d="m-17014.34-20927.675.074.085 10.357 11.676-3.831 3.398-.074-.085-10.356-11.676Zm10.118 11.74-10.136-11.428-3.5 3.105 10.137 11.428Z" data-name="Path 1943"/></g><g data-name="Group 1482"><path fill="#ffdc9c" d="M-17053.23-20892.813c1.467 1.002 3.2-.9 4.686.472 1.495 1.451-.476 3.355.821 4.779 1.26 1.458 3.384-.269 4.648 1.386 1.185 1.639-.912 3.132-.092 4.708l-14.281 6.027-4.134 1.745a1.242 1.242 0 0 1-1.561-1.76l2.224-3.896Z" data-name="Path 1944"/><path fill="#390075" d="m-17053.262-20892.973.099.067a2.507 2.507 0 0 0 2.1.114 2.263 2.263 0 0 1 3.105 2.944 2.371 2.371 0 0 0 .323 2.21c.579.666 1.344.628 2.157.586a2.264 2.264 0 0 1 2.553 3.432 2.507 2.507 0 0 0-.139 2.096l.056.107-18.527 7.814a1.352 1.352 0 0 1-1.7-1.916Zm9.949 11.448a2.823 2.823 0 0 1 .18-2.169 2.364 2.364 0 0 0-.026-2.42c-.613-.804-1.437-.761-2.307-.716a2.248 2.248 0 0 1-2.71-3.056 2.362 2.362 0 0 0-.438-2.378c-.743-.688-1.547-.505-2.397-.313a2.822 2.822 0 0 1-2.173-.081l-9.856 17.255a1.132 1.132 0 0 0 1.422 1.603Z" data-name="Path 1945"/></g><g data-name="Group 1483" opacity=".3"><path fill="#323f51" d="m-17052.966-20893.266 42.794-37.953a4.558 4.558 0 0 1 6.434.385l2.723 3.068a4.557 4.557 0 0 0-6.434-.385l-42.404 37.61a3.187 3.187 0 0 0-.65.8l-12.707 15.378a1.208 1.208 0 0 1 .072-1.091l2.223-3.896 7.688-13.46Z" data-name="Path 1946"/></g><g data-name="Group 1484" opacity=".55"><path fill="#fff" d="M-17063.3-20874.958a1.261 1.261 0 0 0 .512-.102l4.134-1.745 14.281-6.027.48-.204 42.793-37.957a4.556 4.556 0 0 0 .385-6.434l1.21 1.363a4.557 4.557 0 0 1-.386 6.435l-42.793 37.957-.48.203-14.281 6.027-4.134 1.745a1.247 1.247 0 0 1-1.721-1.261Z" data-name="Path 1947"/></g><g data-name="Group 1485"><path fill="#323f51" d="M-17008.424-20932.897a5.247 5.247 0 0 1 5.198 1.605l4.234 4.774a5.248 5.248 0 0 1-.443 7.4l-42.793 37.957a.684.684 0 0 1-.188.118l-18.896 7.975a1.9 1.9 0 0 1-2.185-.498 1.9 1.9 0 0 1-.232-2.231l10.174-17.81a.689.689 0 0 1 .14-.171l42.793-37.958a5.212 5.212 0 0 1 2.198-1.16Zm-34.628 50.638 42.709-37.883a3.879 3.879 0 0 0 .328-5.469l-4.235-4.773a3.878 3.878 0 0 0-5.469-.328l-42.709 37.883-10.116 17.711a.541.541 0 0 0 .068.646.545.545 0 0 0 .634.145Zm-9.914-11.008Z" data-name="Path 1948"/></g><g data-name="Group 1486"><path fill="#323f51" d="M-17053.391-20893.476a.682.682 0 0 1 .551.098c.421.287.902.198 1.65.028a2.813 2.813 0 0 1 3.795 3.6c-.141.82-.203 1.304.182 1.726.385.446.873.443 1.704.4a2.813 2.813 0 0 1 3.122 4.196c-.259.724-.404 1.19-.17 1.643a.684.684 0 1 1-1.213.63 3.24 3.24 0 0 1 .095-2.732c.299-.838.448-1.34.05-1.891-.403-.526-.925-.526-1.815-.48a2.8 2.8 0 0 1-3.299-3.726c.151-.878.214-1.393-.274-1.87-.487-.45-1.002-.362-1.87-.165a3.241 3.241 0 0 1-2.724-.232.684.684 0 0 1 .22-1.227Z" data-name="Path 1949"/></g><g data-name="Group 1487"><path fill="#323f51" d="M-17060.916-20879.354a6.056 6.056 0 0 1 3.47 3.911l-4.134 1.745a1.242 1.242 0 0 1-1.561-1.76Z" data-name="Path 1950"/></g><g data-name="Group 1488"><path fill="#323f51" d="M-17014.515-20928.182a.69.69 0 0 1 .201-.019.686.686 0 0 1 .47.23l10.283 11.593a.684.684 0 0 1 .17.495.684.684 0 0 1-.229.47l-3.665 3.25a.684.684 0 0 1-.965-.057l-10.283-11.594a.684.684 0 0 1 .058-.965l3.666-3.252a.686.686 0 0 1 .294-.151Zm9.484 12.199-9.376-10.571-2.643 2.344 9.376 10.57Z" data-name="Path 1951"/></g><g data-name="Group 1489"><path fill="#323f51" d="M-17061.078-20880.017a.68.68 0 0 1 .443.039 6.745 6.745 0 0 1 3.844 4.333.684.684 0 1 1-1.306.404 5.361 5.361 0 0 0-3.094-3.488.684.684 0 0 1 .114-1.288Z" data-name="Path 1952"/></g></g></g></g><text x="62.651" y="-87.795" style="fill:#323f51;font-family:Arial,sans-serif;font-size:43px;font-weight:700;white-space:pre" transform="translate(392.987 399.81)">Notesbog</text><g transform="translate(735.557 169.631)"><rect width="492.153" height="70" x="67.28" fill="#fff" data-name="Rectangle 332" rx="35"/><text x="99.457" y="49.454" style="fill:#d1c8a4;font-family:Arial,sans-serif;font-size:43px;font-weight:700;white-space:pre">Symptomskema </text></g></g></g><g data-name="Group 1500"><g data-name="Group 1492"><g data-name="Group 1463"><path fill="#d1c8a4" d="M1261.275 248.93a5.166 5.027 0 0 1-5.848 3.77l-61.225-10.525a4.551 4.429 0 0 1-3.668-5.405l19.768-83.179a5.167 5.028 0 0 1 5.848-3.77l61.216 10.524a4.551 4.429 0 0 1 3.668 5.405Z" data-name="Path 1896"/><g data-name="Group 1459"><path fill="#efa734" d="M1210.592 218.962c.127.022.264-.094.082-.126-.127-.021-.263.095-.082.126Z" data-name="Path 1897"/></g><g fill="#d99543" data-name="Group 1460"><path d="M1242.877 161.941c-6.4-1.561-12.69-3.448-18.96-5.372-4.408-1.353-8.914-2.465-13.309-3.852a4.602 4.602 0 0 0-.119.285c2.684.843 5.407 1.585 8.136 2.305 4.944 1.312 9.775 2.975 14.69 4.38a216.389 210.566 0 0 0 30.107 6.425c5.666.802 11.37 1.402 17.098 1.838l.061-.253a227.343 221.225 0 0 1-37.704-5.756Z" data-name="Path 1898"/><path d="M1252.77 160.751c4.904 1.228 9.868 2.27 14.9 3.026a130.904 127.381 0 0 0 13.483 1.268c.007-.093.01-.184.011-.276-3.841-.186-7.67-.49-11.48-.997a144.924 141.024 0 0 1-15.393-2.958c-5.06-1.226-10.004-2.817-14.936-4.401-4.98-1.599-9.948-3.256-14.802-5.148l-1.588-.273c4.874 1.945 9.873 3.64 14.89 5.271 4.925 1.602 9.87 3.225 14.914 4.488Z" data-name="Path 1899"/><path d="m1208.002 163.286-.07.298a194.52 189.286 0 0 1 24.445 2.23c10.279 1.495 20.518 3.295 30.62 5.5a281.072 281.072 0 0 1 15.793 3.915l.072-.303a320.792 312.16 0 0 0-31.569-6.997c-12.933-2.264-26.024-4.361-39.29-4.643Z" data-name="Path 1900"/><path d="M1241.162 171.068c-11.555-1.572-23.507-1.89-35.137.536l-.07.292c18.37-3.918 37.373-.915 55.06 3.082a173.113 168.455 0 0 1 16.74 4.607l.067-.283q-3.864-1.277-7.803-2.362a214.915 209.131 0 0 0-28.857-5.872Z" data-name="Path 1901"/><path d="M1229.592 182.71q-12.484-2.594-25.115-4.594l-.067.284q2.907.451 5.81.943c10.531 1.777 20.955 3.967 31.393 6.11 4.146.852 8.282 1.743 12.386 2.744 4.08.995 8.086 2.196 12.073 3.453q4.11 1.296 8.173 2.708l.073-.308q-6.894-2.38-13.914-4.448c-10.06-2.947-20.508-4.75-30.812-6.891Z" data-name="Path 1902"/><path d="M1231.315 173.468a5.038 4.903 0 0 0-2.577.605c-.766.565.731 1.532 1.059 1.782a17.015 16.557 0 0 0 4.786 2.317 86.186 86.186 0 0 0 6.53 1.996c2.463.641 4.955 1.179 7.415 1.82 2.511.66 4.978 1.46 7.462 2.197q7.481 2.217 15.001 4.333 2.174.611 4.353 1.214l.077-.326q-7.472-2.071-14.907-4.243c-4.96-1.448-9.876-3.037-14.92-4.241-2.483-.593-4.97-1.173-7.398-1.927a45.296 44.077 0 0 1-5.761-2.07 11.8 11.482 0 0 1-2.415-1.463c-.231-.185-1.044-.735-.84-1.126.342-.647 2.286-.576 2.872-.608a44.62 43.42 0 0 1 9.609.607c10.54 1.626 20.622 5.066 30.433 8.76q2.219.835 4.422 1.704l.089-.373a203.19 197.722 0 0 0-21.971-7.541c-7.474-2.033-15.356-4.004-23.32-3.417Z" data-name="Path 1903"/><path d="M1214.559 183.911c-3.605-.895-7.277-1.513-10.959-2.102l-.07.298a87.358 85.007 0 0 1 9.108 1.707c5.035 1.292 10.133 2.417 15.242 3.484 10.484 2.19 20.97 4.348 31.41 6.708q7.142 1.61 14.268 3.27l.085-.36c-13.685-3.174-27.398-6.254-41.19-9.045-6-1.221-11.977-2.49-17.894-3.96Z" data-name="Path 1904"/><path d="M1252.754 202.043c-5.162-1.208-10.283-2.557-15.383-3.953-5.004-1.37-10.03-2.671-15.003-4.134-6.786-1.997-13.496-4.215-20.047-6.773l-.104.436c7.317 2.837 14.824 5.257 22.421 7.432 5.003 1.434 10.05 2.749 15.08 4.106 5.105 1.376 10.236 2.68 15.41 3.842 5.395 1.212 10.844 2.254 16.344 3.042l.09-.38c-6.34-.915-12.606-2.166-18.808-3.618Z" data-name="Path 1905"/><path d="M1250.685 208.382c-10.126-2.443-19.984-5.677-29.858-8.814-4.79-1.523-9.523-3.19-14.141-5.101a93.6 93.6 0 0 1-5.5-2.514l-.095.4c1.768.86 3.555 1.69 5.385 2.453 4.662 1.93 9.452 3.589 14.286 5.13 9.877 3.14 19.74 6.35 29.87 8.794 5.048 1.217 10.1 2.342 15.247 3.184q2.017.33 4.036.62l.079-.327q-1.805-.261-3.6-.547c-5.302-.856-10.51-2.025-15.709-3.278Z" data-name="Path 1906"/><path d="M1229.68 210.503a151.941 147.852 0 0 0-23.773.539c-3.25.339-6.428.933-9.627 1.568l-.085.357 1.746-.354a97.888 95.254 0 0 1 15.005-1.747 178.51 173.706 0 0 1 30.875 1.19 229.722 223.54 0 0 1 25.158 4.44l.088-.371a219.254 213.354 0 0 0-39.387-5.622Z" data-name="Path 1907"/><path d="M1215.076 205.68c2.08-.273 4.262-.171 6.26-.932.168-.065.06-.18-.044-.225a9.117 8.872 0 0 0-2.463-.434 13.638 13.271 0 0 1-2.91-.738c-1.797-.596-3.604-1.194-5.386-1.828a75.352 73.324 0 0 1-10.511-4.659l-.089.372a78.49 76.377 0 0 0 10 4.422c1.787.65 3.618 1.22 5.42 1.845a22.171 21.575 0 0 0 2.483.708c.924.207 1.894.177 2.797.434-1.984.664-4.23.555-6.274.836a162.45 162.45 0 0 1-7.123.826q-4.814.453-9.635.744l-.067.284q5.078-.31 10.15-.78c2.475-.233 4.928-.551 7.392-.875Z" data-name="Path 1908"/><path d="M1244.452 219.15a161.47 157.125 0 0 0-30.342-2.052q-3.998.097-7.995.446c-2.758.245-5.48.705-8.224 1.076-1.041.142-2.092.279-3.142.435l-.096.405c1.058-.16 2.119-.3 3.17-.437 2.426-.326 4.834-.74 7.267-.994 2.59-.268 5.185-.425 7.778-.518a158.904 154.628 0 0 1 30.739 1.902 134.603 130.98 0 0 1 15.557 3.302 172.41 172.41 0 0 1 7.78 2.363l.1-.42a181.674 181.674 0 0 0-7.461-2.264 134.8 131.172 0 0 0-15.13-3.245Z" data-name="Path 1909"/><path d="M1219.962 224.348a84.422 82.15 0 0 0-26.675.859l-.095.4a76.54 74.48 0 0 1 21.005-1.372 174.811 170.107 0 0 1 30.3 4.698c6.811 1.574 13.593 3.28 20.297 5.19l.09-.374a398.543 398.543 0 0 0-14.792-3.874 220.094 214.172 0 0 0-30.13-5.527Z" data-name="Path 1910"/><path d="M1237.673 236.125c-5.002-1.116-10.004-2.225-15.099-2.98a116.12 112.995 0 0 0-31.04-.57l-.06.251a114.137 111.066 0 0 1 23.741-.302c10.368.91 20.455 3.315 30.462 5.711 5.732 1.373 11.429 2.87 17.06 4.539l.063-.263q-5.072-1.5-10.207-2.824c-4.943-1.279-9.924-2.448-14.92-3.562Z" data-name="Path 1911"/><path d="M1243.74 248.075q-7.584-1.818-15.25-3.364c-7.572-1.52-15.175-2.873-22.888-3.769q-7.322-.85-14.72-1.18c.055.112.115.22.18.325 18.328.899 36.25 4.328 53.884 8.608q5.489 1.332 10.94 2.783c.902.239 1.802.49 2.698.748q.19-.094.373-.204l-.056-.017c-4.977-1.507-10.084-2.712-15.16-3.93Z" data-name="Path 1912"/></g><path fill="#e6e7e8" d="M1026.183 219.08h-51.224l-4.07 77.58s14.6-1.448 25.688-1.448 25.536 1.448 25.536 1.448Z" data-name="Path 1913" style="mix-blend-mode:multiply;isolation:isolate" transform="matrix(1.0873 .1869 -.19207 1.05805 200.719 -256.584)"/><path fill="#f5f5f5" d="m1273.707 165.774-56.649-9.737-19.182 80.714 56.649 9.738Z" data-name="Path 1914"/><path fill="#e6e7e8" d="m1035.874 188.041-1.082 1.39-12.054 2.845a2.588 2.588 0 0 0-1.486 1.054l-3.462 5.153c-.639.951-.3 1.889.689 1.889h34.837a2.416 2.416 0 0 0 2.2-1.889l.65-5.153a.9.9 0 0 0-.646-1.054l-9.784-2.845.028-1.39Z" data-name="Path 1915" style="mix-blend-mode:multiply;isolation:isolate" transform="matrix(1.0873 .1869 -.19207 1.05805 156.105 -237.56)"/><g data-name="Group 1461"><path fill="#bcbec0" d="m1264.092 162.202-11.164-5.023-.48-3.292a7.325 7.128 0 0 0 3.278-4.558 6.554 6.378 0 0 0-4.88-7.534 7.398 7.199 0 0 0-8.848 5.336 6.582 6.405 0 0 0 .975 5.127l-1.946 2.876-12.582.94a1.774 1.727 0 0 0-1.42.905l-2.813 5.14a1.563 1.521 0 0 0 1.099 2.25l37.878 6.51a1.748 1.7 0 0 0 2.04-1.71l-.245-5.664a1.537 1.496 0 0 0-.892-1.303Zm-14.205-18.275a1.513 1.472 0 0 1 1.222 1.802 1.717 1.67 0 0 1-1.95 1.257 1.513 1.472 0 0 1-1.222-1.802 1.717 1.67 0 0 1 1.95-1.257Z" data-name="Path 1916"/></g><g data-name="Group 1462"><path fill="#d1d3d4" d="m1263.64 162.125-11.163-5.023-.48-3.293a7.324 7.127 0 0 0 3.278-4.558 6.554 6.378 0 0 0-4.88-7.533 7.398 7.199 0 0 0-8.848 5.335 6.582 6.405 0 0 0 .975 5.128l-1.946 2.875-12.582.941a1.774 1.727 0 0 0-1.421.905l-2.812 5.139a1.563 1.521 0 0 0 1.098 2.25l37.879 6.51a1.749 1.702 0 0 0 2.04-1.71l-.246-5.664a1.537 1.496 0 0 0-.892-1.302Zm-14.205-18.276a1.513 1.472 0 0 1 1.223 1.802 1.717 1.67 0 0 1-1.95 1.257 1.513 1.472 0 0 1-1.222-1.802 1.717 1.67 0 0 1 1.95-1.257Z" data-name="Path 1917"/></g></g><path fill="none" stroke="#353f4f" stroke-linecap="round" stroke-width="3" d="M0 0h37.184" data-name="Line 118" transform="matrix(1.0873 .1869 -.19207 1.05805 1221.173 173.22)"/><path fill="none" stroke="#353f4f" stroke-linecap="round" stroke-width="3" d="M0 0h37.184" data-name="Line 119" transform="matrix(1.0873 .1869 -.19207 1.05805 1219.62 181.64)"/><path fill="none" stroke="#353f4f" stroke-linecap="round" stroke-width="3" d="M0 0h35.564" data-name="Line 120" transform="matrix(1.0873 .1869 -.19207 1.05805 1216.965 190.057)"/><path fill="none" stroke="#353f4f" stroke-linecap="round" stroke-width="3" d="M0 0h32.385" data-name="Line 121" transform="matrix(1.0873 .1869 -.19207 1.05805 1215.067 198.172)"/><path fill="none" stroke="#353f4f" stroke-linecap="round" stroke-width="3" d="M0 0h37.184" data-name="Line 122" transform="matrix(1.0873 .1869 -.19207 1.05805 1212.459 205.694)"/><path fill="none" stroke="#353f4f" stroke-linecap="round" stroke-width="3" d="M0 0h33.195" data-name="Line 123" transform="matrix(1.0873 .1869 -.19207 1.05805 1210.135 214.11)"/></g></g></svg>