<svg xmlns="http://www.w3.org/2000/svg" width="137.924" height="132.828" viewBox="0 0 137.924 132.828">
  <g id="Group_1386" data-name="Group 1386" transform="translate(4214.51 -7845.579)">
    <ellipse id="Ellipse_50" data-name="Ellipse 50" cx="2.664" cy="2.848" rx="2.664" ry="2.848" transform="translate(-4167.63 7923.857) rotate(-72.98)" fill="none" stroke="#323f51" stroke-miterlimit="10" stroke-width="1.5"/>
    <ellipse id="Ellipse_49" data-name="Ellipse 49" cx="2.664" cy="2.848" rx="2.664" ry="2.848" transform="translate(-4160.169 7923.857) rotate(-72.98)" fill="none" stroke="#323f51" stroke-miterlimit="10" stroke-width="1.5"/>
    <ellipse id="Ellipse_48" data-name="Ellipse 48" cx="2.664" cy="2.848" rx="2.664" ry="2.848" transform="translate(-4156.67 7917.521) rotate(-72.98)" fill="none" stroke="#323f51" stroke-miterlimit="10" stroke-width="1.5"/>
    <path id="Path_616" data-name="Path 616" d="M23.958.453c6.026-.721,11.885-.9,17.813,1.909,5.972,2.824,11.73,7.789,17.136,14.2a19.571,19.571,0,0,1,4.958,12.367A35.193,35.193,0,0,1,62.389,39.3c-1.213,4.6-2.623,9.08-4.555,12.076-3.428,5.313-7.841,5.076-11.932,4.613-10.282-1.163-20.581-2.516-30.731-6.3A29.71,29.71,0,0,1,4.405,43.33,13.893,13.893,0,0,1,.147,34.2c-.624-6.558.808-12.606,3-15.74C7.53,12.19,7.92,9.749,12.827,6.718,14.912,5.43,20.471,1.759,25.885.227" transform="translate(-4097.858 7932.603) rotate(-169)" fill="none" stroke="#323f51" stroke-width="3"/>
    <g id="Group_330" data-name="Group 330" transform="translate(-4904.995 6737.447)">
      <path id="Path_443" data-name="Path 443" d="M768.958,532.716c12.538-1.642,24.728-2.04,37.064,4.349,12.427,6.434,24.406,17.744,35.654,32.354a46.846,46.846,0,0,1,10.317,28.172c.307,8.366-1.333,16.4-3.072,23.624-2.524,10.47-5.458,20.684-9.478,27.509-7.132,12.1-16.315,11.563-24.827,10.508-21.394-2.65-42.823-5.732-63.941-14.361-7.631-3.12-15.272-7-22.4-14.481-3.873-4.065-7.955-10.385-8.86-20.794-1.3-14.939,1.682-28.716,6.24-35.857,9.121-14.285,9.934-19.847,20.143-26.751,4.338-2.934,15.9-11.3,27.169-14.787" transform="translate(-26.116 578.783)" fill="none" stroke="#323f51" stroke-width="5"/>
    </g>
    <g id="Group_187" data-name="Group 187" transform="translate(-4239.887 7898.057)">
      <g id="Texte" transform="translate(39.966 42.064)">
        <path id="Path_417" data-name="Path 417" d="M80.795,278.582c2.966,2.338,6.261,1.8,8.959-.086" transform="translate(-80.795 -278.496)" fill="none" stroke="#323f51" stroke-linecap="round" stroke-linejoin="round" stroke-width="2"/>
      </g>
      <g id="Layer_42" data-name="Layer 42" transform="translate(0 0)">
        <path id="Path_421" data-name="Path 421" d="M82.136,288.627c11.323,8.5,24.06,15.456,24,11.749l.844-20.528c-.21-13.318-.477-30.012-12.019-39.046-7.981-6.247-14.989-4.849-19.846,3.666-5.227,9.161-7.817,8.177-4.513,27.506-.008.031-.145,2.815,3.731,7.874C75.278,281.082,81.435,288.283,82.136,288.627Z" transform="translate(-41.159 -236.936)" fill="none" stroke="#323f51" stroke-miterlimit="10" stroke-width="4.503"/>
        <path id="Path_424" data-name="Path 424" d="M42.328,245.345l7.644,13.969,11.541-11.949s4.291-4.711,0-7.657S52,242.148,52,242.148s-1.766-5.722-6.395-4.8S40.436,241.888,42.328,245.345Z" transform="translate(64.692 -246.932)" fill="none" stroke="#323f51" stroke-linecap="round" stroke-linejoin="round" stroke-width="2"/>
      </g>
    </g>
    <path id="Path_436" data-name="Path 436" d="M1012.312,500.6a2.216,2.216,0,0,1,2.427,2.346,2.264,2.264,0,0,1-2.249,2.421,2.492,2.492,0,0,1-2.655-2.411A2.308,2.308,0,0,1,1012.312,500.6Z" transform="translate(-5211.449 7427.144)" fill="#323f51"/>
    <path id="Path_437" data-name="Path 437" d="M1014.518,504.122a.95.95,0,0,1,1.039,1,.969.969,0,0,1-.963,1.036,1.065,1.065,0,0,1-1.137-1.032A.987.987,0,0,1,1014.518,504.122Z" transform="translate(-5212.62 7426.005)" fill="#fff"/>
    <path id="Path_435" data-name="Path 435" d="M1039.453,500.4a2.394,2.394,0,0,1,2.357,2.492,2.247,2.247,0,0,1-2.4,2.378,2.142,2.142,0,0,1-2.31-2.413A2.331,2.331,0,0,1,1039.453,500.4Z" transform="translate(-5226.477 7427.246)" fill="#323f51"/>
    <path id="Path_434" data-name="Path 434" d="M1041.278,504.122a.94.94,0,0,1,1.03,1,.96.96,0,0,1-.954,1.027,1.057,1.057,0,0,1-1.126-1.023A.978.978,0,0,1,1041.278,504.122Z" transform="translate(-5227.506 7426.019)" fill="#fff"/>
  </g>
</svg>
