<svg viewBox="2214.622 549.76 1351.893 1348.813" xmlns="http://www.w3.org/2000/svg"><defs><clipPath id="MineSymptomerIntroImg_svg__a"><path fill="#323f51" d="M0 0h35.569v27.465H0z" data-name="Rectangle 374"/></clipPath></defs><path fill="#fff" d="M2983.335 627.137h55.864c381.399-73.631 607.108 336.69 512.192 546.57-144.995 320.616-277.109 196.773-512.187 196.773h-55.869c-144.698-3.191-254.308-12.311-317.45-60.66-602.6-461.398 63.521-754.086 317.45-682.683Z" data-name="Path 1346" transform="rotate(10.708 2996.849 1005.22)"/><g data-name="Group 906"><g data-name="Group 316"><g data-name="Group 895"><g fill="none" data-name="Group 894"><path stroke="#141928" stroke-linecap="round" stroke-linejoin="round" stroke-width="3" d="M45.688 52.205C30.919 34.178 22.4 21.526 13.613.457a62.451 62.451 0 0 1-13.28 9.761" data-name="Path 578" transform="scale(-2.03965 -1.80609) rotate(33.007 675.106 -3015.82)"/><path stroke="#141928" stroke-linecap="round" stroke-linejoin="round" stroke-width="3" d="M-2.165 70.239c11.044-24.31 19.781-38.98 37.218-56.42A105.386 105.386 0 0 1 17.7-.566" data-name="Path 579" transform="scale(-2.0387 -1.80524) rotate(-30 -2339.657 2427.728)"/><path stroke="#243040" stroke-miterlimit="10" stroke-width="4" d="M762.419-260.176c-15.234 5.184-26.481 19.024-35.3 33.347a230.208 230.208 0 0 0-31.874 90.422c-.809 6.2-1.362 12.617.233 18.639 2.021 7.641 7.3 13.828 13.133 18.707 11.07 9.264 24.478 14.776 38.058 18.559a77.71 77.71 0 0 0 35.251 1.521c11.75-2.191 21.326-6.594 26.991-17.878 3.353-6.678-9.849-35.556-5.045-46.17 11.1-24.81 21.695-38.705 19.052-58.508s-11.726-39.6-27.769-49.728c-5.107-3.227-10.893-9.475-16.813-9.708-12.854-.507-6.681-.628-15.914.8" data-name="Path 580" transform="matrix(2.0387 0 0 1.80524 1522.68 1557.959)"/><path stroke="#141928" stroke-linecap="round" stroke-linejoin="round" stroke-width="3" d="M1.378 43C13.172 26.98 14.795 15.31 28.233 6.331 32.765 3.3 46.357.781 50.924 1.856c2.9.681 10.292 5.721 11.68 8.009 6.11 10.071 9.523 12.829 9.284 25.54" data-name="Path 584" transform="matrix(-1.7289 -.95663 1.08034 -1.53093 3074.312 1377.389)"/><path stroke="#243040" stroke-linecap="round" stroke-linejoin="round" stroke-width="3" d="M47.012-1.6c-6.571 8.06-7.78 13.7-14.968 18.444-2.424 1.6-20.285 6.972-22.594 6.61-1.467-.229-5.1-2.4-5.737-3.444-.059-.1-.118-.192-.33-.536-2.549-4.135-4.132-5.417-3.61-11.38" data-name="Path 1339" transform="matrix(1.69007 -1.00913 1.13963 1.49654 3104.456 1315.64)"/></g></g></g><g fill="none" stroke="#243040" stroke-linecap="round" stroke-linejoin="round" stroke-width="3" data-name="Group 319"><g data-name="Group 317"><path d="M56.569 55.346a23.053 23.053 0 0 0 8.825-3.5" data-name="Path 585" transform="matrix(2.0387 0 0 1.80524 3037.695 1077.313)"/><path d="M56.932 55.73a19.048 19.048 0 0 0 6.452.3" data-name="Path 586" transform="matrix(2.0387 0 0 1.80524 3038.17 1082.682)"/></g><g data-name="Group 318"><path d="M49.032 55.346a23.035 23.035 0 0 1-8.823-3.5" data-name="Path 587" transform="matrix(2.0387 0 0 1.80524 3016.248 1077.313)"/><path d="M47.741 55.73a19.046 19.046 0 0 1-6.452.3" data-name="Path 588" transform="matrix(2.0387 0 0 1.80524 3017.665 1082.682)"/></g><path d="M65.629 65.461s-12.666-4.5-23.248 0" data-name="Path 589" transform="matrix(2.0387 0 0 1.80524 3019.096 1103.825)"/></g></g><path fill="#323f51" d="M1779.581 1798.383c1.779-.832 7.024-3.289 6.673-5.909a3.37 3.37 0 0 1 .376-.319c-.741-.076-.292-.636.094-.085a7.814 7.814 0 0 1-.392-1.658c-2.631.153-15.187-2.376-14.338.068-.62-1.016-.89-.153-1-.056.173.223.365.432.573.624-1.477.822-2.258 1.866.117 2.18 2.654.351 5.444.631 8.205.819a14.648 14.648 0 0 1-3.223 2.189l-.389.185c.476-.471.865-.962.132-.7-.26.286-.478.607-.649.954-2.484 1.261-4.259 2.761-3.685 3.921.063.874.91 1.106 1.753 1.208l-.068.032.068-.032c.022.016-.013.019-.068.032-.1.048.16.156.229.17.081-.09.1-.142.087-.175l.194.019c.615.157 1.239.274 1.869.351.617.078 2.271.346 4.134.5.059.219.129.377.214.276-.028.034-.01-.09.021-.255.556.041 1.126.069 1.693.082-.206.122-.587.216-.451.3.22-.044.424-.148.589-.3.062 0 .125.006.188.006.112.141.417.147.959-.015 2.248-.091 4.117-.609 4.117-2.114 0-1.938-4.192-2.279-8.02-2.3m-2.091-8.506a1.13 1.13 0 0 1-.123.17h-.213c-.016-.244.156-.7.336-.169m-.862.084c.044-.122.1-.166.157-.132-.01.091-.019.15-.028.213h-.13v-.079m-.363.074h-.12a3.424 3.424 0 0 1-.09-.236s-.016-.034-.044-.113c.117-.072.214.166.254.352m-3.872.537s.1-.013.189-.016a.21.21 0 0 1-.189.016" clip-path="url(#MineSymptomerIntroImg_svg__a)" data-name="Path 1341" transform="translate(-150.367 -284.516)"/><path fill="#323f51" d="M1805.735 1789.42c-.007-1.594-5.945-1.86-10.132-1.9.189-.189.379-.389.568-.609.134-.044.263-.101.386-.169a1.65 1.65 0 0 1-.094-.182c.028-.034.054-.063.081-.1.021.079.037.16.048.242.324-.445.683-.865 1.071-1.255a.23.23 0 0 0 .087.088c.056.025.076-.107.054-.235 2.048-2.121 5.5-5.265 4.556-6.341.053-.022.1-.037.153-.06.3.057.323-.079.28-.236.135-.025.21-.047.2-.072a3.822 3.822 0 0 0-.429-.581c.053-.455-.68-.691-.871-1.009.069.106.117.226.142.351a4.718 4.718 0 0 0-.515-.31c.308-.2-.1-.258-.344-.156a6.729 6.729 0 0 0-1.053-.339c.129-.825-.208-.269-.172-.041a25.418 25.418 0 0 0-5.532-.25 1.368 1.368 0 0 0-.157.015 2.263 2.263 0 0 1-.6-.511c-.046-.079-.037-.1-.009-.113a4.772 4.772 0 0 1-.818.3.501.501 0 0 0 0-.164c-.018-.06-.078.057-.106.192-1.36.346-3.3.417-3.121.021-.363.791-.622.489-.558 1.572-.276-2.3.034.913-.247-.529.016.088.076.363.139.675-1.379.533-2.066 1.06-.465 1.286.159.021.439.038.806.05-.028.1-.037.185.018.235.011-.078.018-.155.022-.233 1.511.047 4.5.018 7.319-.057a.304.304 0 0 0-.181.314c-.029 1.069.369-.11.429-.32l.976-.028c.069.1.144.144.22.109.076-.035.137-.084.207-.123l.827-.029a.483.483 0 0 0-.115.317c-.046.476.229-.185.229-.322l.5-.019c-.26.239-.323.363-.3.42a36.123 36.123 0 0 0-4.096 3.663.145.145 0 0 0-.069-.081c-.132-.063-.214.142-.141.294a54.998 54.998 0 0 0-4.332 4.945.6.6 0 0 0-.056.694.703.703 0 0 0-.119.369 5.474 5.474 0 0 0 2.1.837c.938.4.743.232.443.029.241.068.495.131.758.189.075 1.053 1.59.712 2.42.42.4.051.807.1 1.217.134a.336.336 0 0 0-.1.279c.032.4.313-.025.382-.254.73.062 1.465.1 2.182.113-.106.07-.2.138-.253.117.092.038.257-.04.4-.116.681.01 1.342 0 1.957-.041 2.188-.138 3.811-.6 3.807-1.486m-5.4-8.9-.075.106a.274.274 0 0 1 .075-.106m1.288-1.7a.239.239 0 0 1-.019.144Zm-1.892 2.728.085-.148c.2.151.053.2-.085.148m.5.669c-.561-1.135.806.417 0 0m.332-.37c-.711-.721-.07-.226-.032-.173.073.1.085.161.032.173m.433-.348c.05.37-1.509-.753 0 0m-10.341-4.851c-.014.153-.04.305-.079.455-.081-.155-.038-1.081.079-.455m-.238.041c.006.254.006.393 0 .46a1.276 1.276 0 0 1-.048-.313c.007-.125.023-.175.046-.147m-1.008-.21h-.082c.019-.084.138-.637.082 0m.746.153c.113-.248.2.21.22.533-.037.01-.072.022-.109.031a8.798 8.798 0 0 1-.112-.564m9.379 2.259.333-.015c-.06.04-.123.085-.186.128a.285.285 0 0 0-.147-.113m-4.905 11.55.336.057c-.277.032-.374-.015-.336-.057" clip-path="url(#MineSymptomerIntroImg_svg__a)" data-name="Path 1342" transform="translate(-150.367 -284.516)"/><path fill="#323f51" d="M1790.215 1790.046c.437.288.986.35 1.477.169 0 0-1.875-.78-1.477-.169" clip-path="url(#MineSymptomerIntroImg_svg__a)" data-name="Path 1343" transform="translate(-150.367 -284.516)"/><g data-name="Group 1216"><g data-name="Group 1209"><path fill="none" stroke="#323f51" stroke-linecap="round" stroke-linejoin="round" stroke-width="10" d="M2635.996 1687.753c.825 67.193 1.644 112.427 2.47 179.625a342.6 342.6 0 0 0 67.852 1.29" data-name="Path 1765"/><path fill="#7ec8d6" stroke="#323f51" stroke-miterlimit="10" stroke-width="10" d="M2635.477 1057.724c52.563 29.635 84.427 86.43 107.008 143.07a794.338 794.338 0 0 1 54.754 339.5c-1.316 22.23-3.739 45.023-13.792 64.81-12.76 25.118-36.509 42.677-61.4 55.272-47.245 23.9-100.512 32.948-153.207 35.829-44.8 2.449-90.807.458-132.609-16.1s-79.11-49.628-92.159-93.272c-7.726-25.833-6.649-53.42-5.5-80.395q1.693-39.83 3.39-79.66c3.025-71.1 6.28-143.45 29.77-210.49s70.717-129.193 136.894-152.341c21.068-7.373 46.745-24.773 68.73-21.09 47.746 8 25.074 2.887 58.122 14.865" data-name="Path 1767"/><path fill="none" stroke="#323f51" stroke-linecap="round" stroke-linejoin="round" stroke-width="10" d="M2779.351 1315.043c37.6 11.01 66.69 56.67 66.727 104.73.008 11.38-1.5 22.947-5.64 33.1-7.696 18.846-23.244 30.376-38.113 40.609-52.954 36.42-143.627-188.5-199.462-159.5" data-name="Path 1771"/><path fill="none" stroke="#353f4f" stroke-linecap="round" stroke-miterlimit="10" stroke-width="5" d="M2590.622 1184.32c11.864-2.122 22.442.456 33.66 4.722" data-name="Path 1769"/><path fill="#323f51" d="M1976.976 9935.953c-13.071-2.944-67.015.717-73.455 2.844-2.824.933-2.729 3.528.448 5.515 3.044 1.904 4.636.276 7.209-.466 19.758-5.703 67.136-3.136 68.097-5.115.994-2.054 1.054-2.023-2.299-2.778Z" data-name="Path 1772" transform="rotate(177.533 2352.882 5631.96)"/><path fill="#323f51" d="M2601.784 1212.57c-9.7-.112-16.1 6.182-15.93 15.663.173 9.553 5.91 15.829 14.762 16.164 9.518.362 17.52-7.031 17.427-16.1-.098-9.391-6.528-15.608-16.259-15.726Z" data-name="Path 1773"/><path fill="#fff" d="M2604.257 1214.766c-4.15-.05-6.892 2.648-6.82 6.706.075 4.089 2.532 6.778 6.317 6.918a7.043 7.043 0 0 0 7.461-6.891c-.038-4.021-2.79-6.683-6.958-6.733Z" data-name="Path 1774" opacity=".9"/><path fill="none" stroke="#323f51" stroke-linecap="round" stroke-linejoin="round" stroke-width="10" d="M2496.62 1696.587c3.086 64.453 3.177 107.743.268 172.2a159.254 159.254 0 0 0-68.217.983" data-name="Path 1766"/><path fill="none" stroke="#323f51" stroke-linecap="round" stroke-linejoin="round" stroke-width="10" d="M2345.594 1324.803c-37.162 23.662-61.569 51.624-81.164 91.513-10.033 20.42-17.172 44.864-8.01 65.7 6.365 14.473 19.641 24.655 33.621 31.667 51.748 25.977 114.5 15.666 168.764 35.629" data-name="Path 1770"/><path fill="#323f51" d="M2527.018 1212.054c-8.825-.023-15.777 7.456-15.7 16.88.076 9.8 6.395 16.167 15.97 16.108 9.9-.06 15.455-5.961 15.388-16.348-.063-9.682-6.587-16.62-15.658-16.64Z" data-name="Path 1775"/><path fill="#fff" d="M2531.717 1215.136c-4.178-.05-6.935 2.663-6.86 6.743.077 4.112 2.544 6.816 6.355 6.957a7.09 7.09 0 0 0 7.5-6.93c-.039-4.043-2.804-6.72-6.995-6.77Z" data-name="Path 1776"/><path fill="none" stroke="#353f4f" stroke-linecap="round" stroke-miterlimit="10" stroke-width="5" d="M2524.886 1185.417c-11.984-1.273-22.362 2.05-33.238 7.106" data-name="Path 1768"/></g></g><g fill="none" stroke="#353f4f"><path stroke-linecap="round" stroke-linejoin="round" stroke-width="3" d="M2804.365 1040.607c6.099 25.179 1.378 38.93-1.483 64.747a531.8 531.8 0 0 0-1.029 106.779 82.238 82.238 0 0 0-28.949-.421" data-name="Path 368" transform="translate(18.418)"/><path stroke-linecap="round" stroke-linejoin="round" stroke-width="3" d="M2847.57 1040.416c1.39 62.767-9.098 112.615-7.583 175.379a469.225 469.225 0 0 1 32.155-1.999" data-name="Path 369" transform="translate(18.418)"/><path stroke-linecap="round" stroke-width="2.149" d="m2818.523 789.082-8.226 24.473h13.767l-7.883 23.919" data-name="Path 370" transform="translate(18.418)"/><path stroke-linecap="round" stroke-width="2.149" d="m2775.611 792.787.077 25.977 12.953-4.921.224 25.321" data-name="Path 371" transform="translate(18.418)"/><path stroke-linecap="round" stroke-width="2.149" d="m2866.007 794.505-16.909 18.83 12.578 5.911-16.383 18.475" data-name="Path 372" transform="translate(18.418)"/><path stroke-miterlimit="10" stroke-width="3.76" d="M2751.817 957.649c4.989 20.686 15.824 39.267 27.974 56.311 9.717 13.626 21.636 27.306 37.507 30.407 14.061 2.744 28.446-3.565 40.038-12.424 28.39-21.685 44.607-60.697 38.671-97.208-6.642-40.862-46.719-81.161-87.821-77.8-42.908 3.506-65.715 61.97-56.369 100.714Z" data-name="Path 373" transform="translate(18.418)"/><path stroke-linecap="round" stroke-linejoin="round" stroke-width="1.612" d="M2838.671 919.387c5.75-.959 11.264-3.11 16.226-6.328" data-name="Path 374" transform="translate(18.418)"/><path stroke-linecap="round" stroke-linejoin="round" stroke-width="1.612" d="M2839.768 925.465a35.601 35.601 0 0 0 11.865.533" data-name="Path 375" transform="translate(18.418)"/><path stroke-linecap="round" stroke-linejoin="round" stroke-width="1.612" d="M2805.466 919.387c-5.75-.96-11.264-3.11-16.226-6.328" data-name="Path 376" transform="translate(18.418)"/><path stroke-linecap="round" stroke-linejoin="round" stroke-width="1.612" d="M2804.371 925.465a35.626 35.626 0 0 1-11.869.533" data-name="Path 377" transform="translate(18.418)"/><path stroke-linecap="round" stroke-linejoin="round" stroke-width="1.612" d="M2846.199 954.593s-21.12-18.661-38.768 0" data-name="Path 378" transform="translate(18.418)"/><path stroke-linecap="round" stroke-linejoin="round" stroke-width="3" d="m2892.003 978.159 16.493-6.745c5.795-2.37 11.734-4.834 16.338-9.248 4.604-4.414 7.639-11.29 5.986-17.625a25.547 25.547 0 0 0-5.265-9.147c-19.333-24.285-43.791-43.42-71.402-55.86" data-name="Path 379" transform="translate(18.418)"/><path stroke-linecap="round" stroke-linejoin="round" stroke-width="3" d="M2763.431 985.565c-10.676-1.658-21.444-3.339-31.557-7.316-10.112-3.977-19.656-10.488-25.604-20.014-2.65-4.005-4.246-8.683-4.626-13.555-.091-5.606 1.453-11.104 4.42-15.749 7.785-12.992 21.849-19.898 35.143-26.125l38.034-17.816" data-name="Path 380" transform="translate(18.418)"/></g><g fill="none" stroke="#353f4f"><path stroke-linecap="round" stroke-linejoin="round" stroke-width="3" d="M3342.99 1065.785c-11.134 5.192-18.913 9.751-27.561 18.218-10.838 10.613-16.536 25.256-18.688 39.975-2.152 14.718 15.914 25.955 17.032 40.799" data-name="Path 1734" transform="matrix(.94876 -.08364 .07999 .99212 15.79 239.581)"/><path stroke-linecap="round" stroke-linejoin="round" stroke-width="3" d="M3419.423 1161.346c3.274 44.709 2.438 77.375 1.328 122.479 20.109-2.143 25.967-3.966 45.174-9.457" data-name="Path 418" transform="matrix(.95213 0 0 .99564 93.824 -42.019)"/><path stroke-linecap="round" stroke-linejoin="round" stroke-width="3" d="M3359.335 1158.472c-48.882 40.971-17.297 55.791-12.213 100.374-12.158-2.502-22.249 15.979-35.441 16.282" data-name="Path 419" transform="matrix(.95213 0 0 .99564 93.824 -42.019)"/><path stroke-miterlimit="10" stroke-width="4.503" d="M3324.776 1118.403c-.326 5.696.057 11.637 2.808 16.687 3.795 6.971 11.397 11.108 18.718 14.582 18.536 8.801 38.721 15.986 59.333 14.648 20.613-1.339 41.612-13.06 48.043-32.006 2.816-8.295 2.703-17.214 2.56-25.943l-1.198-73.768c-.51-31.358-1.163-70.665-29.32-91.936-19.47-14.708-36.57-11.418-48.416 8.631-12.75 21.569-15.17 49.427-21.814 73.053-8.9 31.636-28.821 63.043-30.714 96.052Z" data-name="Path 421" transform="matrix(.95213 0 0 .99564 93.824 -42.019)"/><path stroke-linecap="round" stroke-linejoin="round" stroke-width="3" d="M3471.121 1071.686c11.644 3.614 20.931 18.639 21.301 34.446a50.618 50.618 0 0 1-8.164 28.812c-8.121 11.963-35.109 20.454-39.603 23.819" data-name="Path 423" transform="scale(.95213 .99564) rotate(-19.356 3394.08 805.208)"/><path stroke-linecap="round" stroke-linejoin="round" stroke-width="3" d="M3417.293 1004.916a30.185 30.185 0 0 0 10.81-3.844" data-name="Path 612" transform="matrix(.95213 0 0 .99564 93.824 -42.019)"/><path stroke-linecap="round" stroke-linejoin="round" stroke-width="3" d="M3418.023 1008.608c2.6.512 5.267.621 7.903.324" data-name="Path 613" transform="matrix(.95213 0 0 .99564 93.824 -42.019)"/><path stroke-linecap="round" stroke-linejoin="round" stroke-width="3" d="M3395.174 1004.915a30.154 30.154 0 0 1-10.808-3.843" data-name="Path 614" transform="matrix(.95213 0 0 .99564 93.824 -42.019)"/><path stroke-linecap="round" stroke-linejoin="round" stroke-width="3" d="M3394.444 1008.608c-2.6.511-5.268.62-7.904.324" data-name="Path 615" transform="matrix(.95213 0 0 .99564 93.824 -42.019)"/><path stroke-linecap="round" stroke-linejoin="round" stroke-width="3" d="M3391.657 1030.657c1.684-2.024 4.23-3.199 6.926-3.196a19.486 19.486 0 0 1 8.051 1.583 21.167 21.167 0 0 0 4.869 1.619c1.217.147 2.448.1 3.645-.139a15.035 15.035 0 0 0 6.022-2.506" data-name="Path 551" transform="matrix(.94876 -.08364 .07999 .99212 22.974 246.524)"/><path stroke-linecap="round" stroke-width="2.149" d="m3499.4 1071.178-3.257 8.382h4.96l-3.124 8.194" data-name="Path 1616" transform="scale(.95213 .99564) rotate(48.986 3594.211 1166.515)"/><path stroke-linecap="round" stroke-width="2.149" d="m3316.439 1179.118-2.777 8.486h4.898l-2.656 8.297" data-name="Path 1619" transform="matrix(.2547 -.95935 .91743 .26633 1317.129 4005.357)"/><path stroke-linecap="round" stroke-width="2.149" d="m3490.743 1060.198-3.257 8.286h5.016l-3.124 8.102" data-name="Path 1617" transform="matrix(.82364 .49949 -.47766 .86128 1052.555 -1641.675)"/><path stroke-linecap="round" stroke-width="2.149" d="m3312.167 1192.254-2.964 8.506h4.887l-2.837 8.316" data-name="Path 1618" transform="scale(-.95213 -.99564) rotate(85.856 1218.843 -3592.12)"/></g><g><path fill="none" stroke="#353f4f" stroke-linecap="round" stroke-linejoin="round" stroke-width="3" d="M1786.698 1900.133a43.832 43.832 0 0 1 7.412 13.165c2.92 7.671 4.471 18.253 5.071 28.89.6 10.636.327 21.459.052 32.185" data-name="Path 1614" transform="scale(.89404 .90905) rotate(2.98 19362.478 34035.746)"/><path fill="none" stroke="#353f4f" stroke-linecap="round" stroke-linejoin="round" stroke-width="3" d="M1667.735 1896.454a42.828 42.828 0 0 0-10.056 13.159c-3.962 7.666-6.067 18.242-6.88 28.873-.813 10.63-.443 21.447-.07 32.167" data-name="Path 1615" transform="matrix(.89065 -.0791 .0778 .9056 1368.179 -652.875)"/><path fill="none" stroke="#323f51" stroke-linecap="round" stroke-linejoin="round" stroke-width="3" d="M1706.821 1977.493c-.227 18.221-.453 30.488-.681 48.71a96.138 96.138 0 0 1-18.711.35" data-name="Path 1167" transform="matrix(.89404 0 0 .90905 1512.978 -790.777)"/><path fill="none" stroke="#323f51" stroke-linecap="round" stroke-linejoin="round" stroke-width="3" d="M1745.256 1979.889a439.829 439.829 0 0 0-.074 46.7 44.65 44.65 0 0 1 18.811.267" data-name="Path 1168" transform="matrix(.89404 0 0 .90905 1512.978 -790.777)"/><path fill="none" stroke="#323f51" stroke-miterlimit="10" stroke-width="4.5" d="M1706.963 1806.644c-14.495 8.036-23.281 23.438-29.508 38.8a212.187 212.187 0 0 0-15.1 92.064c.363 6.029 1.031 12.209 3.8 17.575 3.519 6.811 10.068 11.573 16.932 14.989 13.028 6.482 27.717 8.935 42.248 9.716 12.353.664 25.041.124 36.568-4.366 11.527-4.49 21.815-13.458 25.413-25.293 2.13-7.005 1.833-14.486 1.517-21.8l-.935-21.6c-.834-19.28-1.731-38.9-8.209-57.08s-19.5-35.035-37.75-41.312c-5.775-1.987-31.433-4.138-34.845-1.736-.025.009-2.846 1.716-2.9 1.736" data-name="Path 1163" transform="matrix(.89404 0 0 .90905 1512.978 -790.777)"/><path fill="#323f51" d="M3040.022 910.83a11.252 11.252 0 0 1-3.568-.674c-.558-.198-.885-.523-.573-1.087.302-.544.795-.498 1.294-.326 3.894 1.335 7.39.317 10.599-2.374.16-.134.327-.262.482-.4.392-.344.824-.501 1.222-.177.414.342.367.76-.077 1.156a13.599 13.599 0 0 1-9.379 3.883Z" data-name="Path 574"/><path fill="#323f51" d="M3065.877 909.52a13.407 13.407 0 0 1-3.51-2.46c-.505-.487-.703-.987-.103-1.441.575-.435 1.086-.147 1.54.278 3.547 3.324 7.777 3.932 12.478 2.606.235-.066.474-.122.705-.193.582-.179 1.12-.137 1.393.403.283.562.035.994-.626 1.201-3.958 1.24-7.918 1.447-11.877-.395Z" data-name="Path 573"/><path fill="#323f51" d="M3057.008 918.886c2.909-.034 4.828 1.853 4.776 4.695-.051 2.864-1.772 4.745-4.425 4.845-2.772.187-5.142-2.002-5.225-4.825.03-2.817 1.957-4.68 4.874-4.715Z" data-name="Path 1613"/></g><g fill="none" stroke="#353f4f" data-name="Group 1191" transform="matrix(.6556 0 0 .73858 2772.402 7581.296)"><path stroke-linecap="round" stroke-linejoin="round" stroke-width="3" d="M247.866-9239.258c-13.439-5.547-15.586-17.386-22.79-27.006-3.687-4.925-6.354-10.85-3.153-16 2.223-3.574 6.942-6.142 11.929-7.945 18.457-6.67 20.947-.007 40.338-5.226" data-name="Path 1606"/><path stroke-width="4.499055" d="M240.962-9201.392c.117 3.633.681 7.383 2.646 10.442 2.712 4.22 7.597 6.438 12.274 8.253 11.842 4.594 24.61 8.074 37.16 6.12s24.768-10.516 27.657-22.883c1.266-5.417.702-11.07.13-16.603l-4.822-46.757c-2.052-19.88-4.63-44.79-23.06-56.784-12.742-8.294-23.032-5.29-29.18 8.069-6.615 14.374-6.552 32.185-9.314 47.535-3.698 20.555-14.162 41.555-13.49 62.608Z" data-name="Path 1607"/><g stroke-linecap="round" stroke-linejoin="round" stroke-width="3" data-name="Group 1066"><path stroke-width="2.99937" d="M278.976-9280.333a15.068 15.068 0 0 0-8.416 6.13" data-name="Path 547"/><path stroke-width="2.99937" d="M270.079-9281.146a19.696 19.696 0 0 1 8.805 8.207" data-name="Path 548"/></g><g stroke-linecap="round" stroke-linejoin="round" stroke-width="3" data-name="Group 1067"><path stroke-width="2.99937" d="M301.468-9279.358a15.068 15.068 0 0 0-8.416 6.13" data-name="Path 549"/><path stroke-width="2.99937" d="M292.57-9280.17a19.696 19.696 0 0 1 8.806 8.204" data-name="Path 550"/></g><ellipse cx="17.334" cy="68.502" stroke-miterlimit="10" stroke-width="2" data-name="Ellipse 131" rx="17.334" ry="68.502" transform="rotate(-77.98 -5647.008 -4793.49)"/><ellipse cx="68.502" cy="17.334" stroke-miterlimit="10" stroke-width="2" data-name="Ellipse 132" rx="68.502" ry="17.334" transform="rotate(-5.13 -101141.558 -6769.176)"/><path stroke-linecap="round" stroke-linejoin="round" stroke-width="2.99937" d="M268.428-9250.471a8.482 8.482 0 0 1 6.593-4.634 16.097 16.097 0 0 1 8.215 1.29 18.215 18.215 0 0 0 5.036 1.617 9.28 9.28 0 0 0 3.63-.496 13.725 13.725 0 0 0 5.765-3.681" data-name="Path 1610"/><path stroke-linecap="round" stroke-linejoin="round" stroke-width="3" d="M298.342-9177.961c.834 35.769.004 61.878-1.117 97.925 8.983-1.556 11.618-2.968 20.244-7.208" data-name="Path 1611"/><path stroke-linecap="round" stroke-linejoin="round" stroke-width="3" d="M264.597-9179.876c-5.403 36.525-7.46 60.697-5.828 96.692a43.651 43.651 0 0 0-17.034-2.976" data-name="Path 1608"/><path stroke-linecap="round" stroke-linejoin="round" stroke-width="2.99937" d="M318.312-9241.57c7.832 3.08 13.368 5.903 19.748 11.483 7.998 6.997 12.809 17.193 15.243 27.652s2.686 21.294 2.928 32.034" data-name="Path 1612"/></g><g fill="none" stroke="#e79e17" data-name="Group 179"><path stroke-linecap="round" stroke-linejoin="round" stroke-width="1.829" d="M-963.4 262.108c-.225 18.025-.448 30.16-.673 48.187a95.03 95.03 0 0 1-18.51.346" data-name="Path 357" style="stroke:#353f4f;stroke-opacity:1" transform="translate(3648.107 516.582)"/><path stroke-linecap="round" stroke-linejoin="round" stroke-width="1.829" d="M-941.547 262.451a462.642 462.642 0 0 0-.073 47.628 42.863 42.863 0 0 1 18.609.272" data-name="Path 358" style="stroke:#353f4f;stroke-opacity:1" transform="translate(3663.462 516.712)"/><path stroke-miterlimit="10" stroke-width="4.269" d="M-956.324 140.788c-14.339 7.95-23.031 23.186-29.191 38.381a209.9 209.9 0 0 0-14.937 91.076c.359 5.964 1.02 12.078 3.762 17.386 3.481 6.738 9.96 11.449 16.75 14.828 12.888 6.412 27.419 8.839 41.794 9.612 12.22.657 24.772.123 36.175-4.319s21.581-13.313 25.14-25.022c2.108-6.93 1.814-14.331 1.5-21.567l-.925-21.37c-.825-19.073-1.713-38.483-8.121-56.467s-19.291-34.658-37.344-40.868c-5.747-1.978-12.752-6.646-18.749-5.657-13.025 2.145-6.84.774-15.856 3.987" data-name="Path 359" style="stroke:#353f4f;stroke-opacity:1" transform="translate(3641.172 468.888)"/><path stroke-linecap="round" stroke-linejoin="round" stroke-width="1.829" d="M-992.129 192.036c-12.549 2.954-22.26 15.2-22.272 28.1a19.55 19.55 0 0 0 1.883 8.879c2.568 5.056 7.758 8.149 12.721 10.894a553.723 553.723 0 0 0 54.521 26.356" data-name="Path 360" style="stroke:#353f4f;stroke-opacity:1" transform="translate(3636.01 489.94)"/><path stroke-linecap="round" stroke-linejoin="round" stroke-width="1.829" d="M-903.756 191.7a57.486 57.486 0 0 1 22.141 24.55c2.737 5.478 4.684 12.035 2.185 17.625-1.736 3.883-5.358 6.614-9.172 8.5-14.117 6.969-31.234 4.2-46.038 9.558" data-name="Path 361" style="stroke:#353f4f;stroke-opacity:1" transform="translate(3666.336 489.814)"/><path stroke-linecap="round" stroke-linejoin="round" stroke-width="1.829" d="M-948.544 168.386c0 1.267-.026 2.533-.046 3.8a3.677 3.677 0 0 0 2.128 3.462c2.07.932 6.494.058 7.9-.3 4.194-1.059 2.241-4.727 2.241-6.966" data-name="Path 362" style="stroke:#353f4f;stroke-opacity:1" transform="translate(3661.032 480.95)"/><path stroke-linecap="round" stroke-linejoin="round" stroke-width="1.829" d="M-968.089 168.386c0 1.267-.026 2.533-.044 3.8a3.673 3.673 0 0 0 2.127 3.462c2.07.932 6.494.058 7.9-.3 4.194-1.059 2.241-4.727 2.241-6.966" data-name="Path 363" style="stroke:#353f4f;stroke-opacity:1" transform="translate(3653.6 480.95)"/><path stroke-linecap="round" stroke-linejoin="round" stroke-width="1.829" d="M-946.9 188.881c-6.745-5.318-14.24-4.1-20.377.2" data-name="Path 365" style="stroke:#353f4f;stroke-opacity:1" transform="translate(3653.925 487.4)"/></g><g fill="none" stroke="#353f4f" data-name="Group 1071"><path stroke-linecap="round" stroke-linejoin="round" stroke-width="3" d="M2059.33-9152.874c2.283 32.3 1.7 55.9.926 88.486 14.022-1.548 18.107-2.865 31.5-6.832" data-name="Path 418" transform="matrix(.75068 0 0 .84733 1688.727 8618.588)"/><path stroke-linecap="round" stroke-linejoin="round" stroke-width="3" d="M1987.387-9156.56c-7.46 32.794-10.026 54.474-6.481 86.684a115.794 115.794 0 0 0-26.749-2.4" data-name="Path 419" transform="matrix(.75068 0 0 .84733 1688.727 8618.588)"/><path stroke-miterlimit="10" stroke-width="4.503" d="M53.611 371.919c-7.824 17.145 10.395 37.066 36.577 48.507 37.033 16.183 84.737-18.996 65.149-56.613l-10.893-53.881c-.356-22.655 3.46-73.508-20.445-66.421-13.576 4.025-25.5-7.682-33.76 6.236-9.157 15.428-10.578 35.709-15.211 52.778-6.206 22.856-11.501 47.665-21.417 69.394Z" data-name="Path 421" transform="matrix(.75068 0 0 .84733 3128.502 511.182)"/><path stroke-linecap="round" stroke-linejoin="round" stroke-width="3" d="M1994.51-9197.365a49.95 49.95 0 0 0 19.535-21.129c2.414-4.715 4.132-10.358 1.927-15.17-1.532-3.341-4.726-5.69-8.09-7.311-12.456-5.997-14.047.339-27.108-4.271" data-name="Path 422" transform="matrix(-.57506 .54465 -.48253 -.6491 -110.833 -6269.06)"/><path stroke-linecap="round" stroke-linejoin="round" stroke-width="3" d="M2042.864-9227.273c8.099 2.601 14.364 13.42 14.371 24.8a22.778 22.778 0 0 1-1.214 7.839c-1.657 4.464-8.589 11.816-11.792 14.238" data-name="Path 423" transform="matrix(.24458 .8011 -.70972 .27606 -3805.912 1718.478)"/><path stroke-linecap="round" stroke-linejoin="round" stroke-width="3" d="M56.569 54.627a20.57 20.57 0 0 0 7.538-2.777" data-name="Path 612" transform="matrix(.75068 0 0 .84733 3174.71 710.559)"/><path stroke-linecap="round" stroke-linejoin="round" stroke-width="3" d="M56.932 55.73a17.468 17.468 0 0 0 5.511.234" data-name="Path 613" transform="matrix(.75068 0 0 .84733 3174.819 711.885)"/><g stroke-linecap="round" stroke-linejoin="round" stroke-width="3" data-name="Group 325"><path d="M47.745 54.627a20.554 20.554 0 0 1-7.536-2.777" data-name="Path 614" transform="matrix(.75068 0 0 .84733 3169.755 710.559)"/><path d="M46.8 55.73a17.466 17.466 0 0 1-5.511.234" data-name="Path 615" transform="matrix(.75068 0 0 .84733 3170.082 711.885)"/></g><path stroke-linecap="round" stroke-linejoin="round" stroke-width="3" d="M0 2.321A6.224 6.224 0 0 1 4.845.011a13.161 13.161 0 0 1 5.61 1.144 14.273 14.273 0 0 0 3.39 1.17 7.81 7.81 0 0 0 2.543-.1A10.378 10.378 0 0 0 20.6.414" data-name="Path 551" transform="matrix(.74768 -.07372 .06531 .84394 3203.7 771.4)"/></g></svg>