<?xml version="1.0" encoding="utf-8"?>
<svg xmlns="http://www.w3.org/2000/svg" xmlns:bx="https://boxy-svg.com" viewBox="-1639.412 -280.397 2477.208 899.06">
  <defs>
    
  </defs>
  <g id="Group_1348" data-name="Group 1348" transform="matrix(0.977665, 0, 0, 1.093461, -876.820435, -2334.201172)" style="">
    <path id="Path_729" data-name="Path 729" d="M 403.32 1942.432 C 500.769 1930.333 588.179 1924.169 666.676 1929.702 C 817.931 1940.364 942.523 1983.914 1086.546 2028.1 C 1227.157 2071.239 1399.079 2019.598 1501.763 2052.825 C 1609.192 2087.587 1728.291 2200.189 1679.471 2268.81 C 1497.663 2524.363 1677.838 2269.706 1548.312 2444.789 C 1487.538 2526.938 1153.683 2429.715 450.734 2535.672 C -106.47 2784.179 -625.142 2552.673 -723.733 2417.878 C -751.591 2379.79 -681.461 2218.566 -688.756 2156.402 C -728.44 1818.226 -257.6 2024.489 403.32 1942.432 Z" fill="#fff" style="" transform="matrix(0.999801, -0.017846, 0.022323, 0.999801, -50.948622, 9.019196)"/>
    <path id="Path_730" data-name="Path 730" d="M -385.912 2462.672 C -385.912 2462.672 -291.243 2448.266 -154.444 2431.452 C -70.072 2421.082 30.204 2410.77 134.204 2402.136 C 283.215 2389.764 439.872 2380.837 568.345 2380.118 C 621.755 2379.819 670.506 2376.742 709.994 2359.384" fill="none" stroke="#323f51" stroke-width="5" style="" transform="matrix(0.995335, 0.086262, -0.107907, 0.995335, 260.92153, -2.730555)"/>
    <text transform="matrix(2.109167, 0, 0, 1.779329, -1323.67749, -2088.328369)" style="fill: rgb(51, 51, 51); font-family: &quot;Roboto Slab&quot;; font-size: 50.5px; white-space: pre;"><tspan x="343.855" y="2356.99">Klik på en af ikonerne herunder,</tspan><tspan x="343.855" dy="1.5em">​</tspan><tspan>for at gå til næste side, og lære mere </tspan><tspan x="343.855" dy="1.5em">​</tspan><tspan>om </tspan><tspan style="font-weight: 500;">specifikke symptomer</tspan><tspan>, </tspan><tspan style="font-weight: 500;">patienthistorier</tspan><tspan x="343.855" dy="1.5em">​</tspan><tspan>eller </tspan><tspan style="font-weight: 500;">lægens tanker</tspan><tspan>.</tspan></text>
  </g>
  <g id="Group_1219" data-name="Group 1219" transform="matrix(1, 0, 0, 1, -1185.152466, -1185.924438)">
    <g id="Group_1205" data-name="Group 1205" transform="translate(19971 22653)">
      <g id="Group_1204" data-name="Group 1204" transform="translate(-18488.57 -21743.621)">
        <path id="Nuance_A4_5a" data-name="Nuance A4 5a" d="M136.9,0A136.9,136.9,0,1,1,0,136.9,136.9,136.9,0,0,1,136.9,0Z" transform="translate(45.415 53.374)" fill="#7ccad8"/>
      </g>
    </g>
    <g id="Group_1215" data-name="Group 1215" transform="translate(20132 22412.594)">
      <text id="i" transform="translate(-18485.934 -21395.555)" fill="#323f51" font-size="150" font-family="RifficFree-Bold, Riffic Free" font-weight="700" style="white-space: pre;"><tspan x="0" y="146">i</tspan></text>
    </g>
  </g>
</svg>
