<?xml version="1.0" encoding="utf-8"?>
<svg xmlns="http://www.w3.org/2000/svg" xmlns:bx="https://boxy-svg.com" viewBox="3076.202 646.322 632.914 375.169">
  <defs>
    
    <clipPath id="clip-path">
      <rect id="Rectangle_374" data-name="Rectangle 374" width="35.569" height="27.465" fill="#323f51"/>
    </clipPath>
    <clipPath id="clip-1">
      <rect width="1166" height="1094"/>
    </clipPath>
    <clipPath id="clip-Illustration_-_Min_fysiske_energi_-_Min_fysiske_aktivitet">
      <rect width="545" height="513"/>
    </clipPath>
    <clipPath id="clip-3">
      <rect width="1166" height="1094"/>
    </clipPath>
    <clipPath id="clip-4">
      <rect width="545" height="513"/>
    </clipPath>
    <clipPath id="clip-path-10">
      <rect id="Rectangle_381" data-name="Rectangle 381" width="282.758" height="204.873" fill="none"/>
    </clipPath>
    <clipPath id="clip-path-11">
      <path id="Path_1356" data-name="Path 1356" d="M45.744,207.346c-3.23,1.412-5.035,6.486-4.864,12.034s-.342,9.645-1.281,12.374a7.249,7.249,0,0,0,4.1.172,85.1,85.1,0,0,0,1.093-15.243c1.116,7.023.263,13.98-.239,18.06a2.037,2.037,0,0,0,2.731.085s.33-11.32.427-16.216c.494,7.916.512,15.533.512,15.533s1.621.6,1.963-.682c-.085-5.292,0-9.9,0-9.9s.682,7.6,1.023,8.962c1.537.6,3.841.341,4.438-.511-.768-1.793-3.157-16.729-3.242-19.2,1.962,9.729,2.987,16.131,3.84,17.411,1.451.683,3.584-1.451,3.584-1.451s-1.28-.427-1.706-3.669-3.455-16.732-6.914-17.838a9,9,0,0,0-2.741-.442,6.829,6.829,0,0,0-2.721.528" transform="translate(-39.599 -206.818)" fill="none"/>
    </clipPath>
    <linearGradient id="linear-gradient" x1="-1.123" y1="0.935" x2="-1.091" y2="0.935" gradientUnits="objectBoundingBox">
      <stop offset="0" stop-color="#fd9c00"/>
      <stop offset="0.552" stop-color="#fdc600"/>
      <stop offset="1" stop-color="#fde400"/>
    </linearGradient>
    <clipPath id="clip-path-13">
      <path id="Path_1366" data-name="Path 1366" d="M85.126,84.625c2.085,11.462,6.486,36.692,10.98,56.645,70.9,1.762,130.085-25.157,130.085-25.157L208.43,49.835H207.9c-54.983,0-102.856,16.092-122.773,34.79" transform="translate(-85.126 -49.835)" fill="none"/>
    </clipPath>
    <linearGradient id="linear-gradient-2" x1="-0.392" y1="1.418" x2="-0.387" y2="1.418" gradientUnits="objectBoundingBox">
      <stop offset="0" stop-color="#012d46"/>
      <stop offset="1" stop-color="#071d2e"/>
    </linearGradient>
    <clipPath id="clip-path-15">
      <rect id="Rectangle_379" data-name="Rectangle 379" width="123.597" height="61.052" fill="none"/>
    </clipPath>
  </defs>
  <g id="Group_1348" data-name="Group 1348" transform="matrix(0.977665, 0, 0, 1.093461, -45.262558, -2607.993896)" style="">
    <path id="Path_729" data-name="Path 729" d="M -685.992 2153.292 C -364.429 2013.696 1165.207 2159.173 1334.102 2091.335 C 1487.998 2029.522 1704.946 2116.161 1821.89 2149.388 C 1944.238 2184.15 2066.996 2197.252 2011.121 2265.7 C 1869.241 2439.503 541.969 2438.478 48.412 2396.532 C 14.779 2393.674 -100.893 2397.423 -206.968 2377.858 C -312.135 2358.46 -407.78 2315.713 -425.027 2320.25 C -679.321 2387.143 -795.65 2200.897 -685.992 2153.292 Z" fill="#fff" style="" transform="matrix(0.999801, -0.017846, 0.022324, 0.999801, -49.764231, 12.109287)"/>
    <path id="Path_730" data-name="Path 730" d="M 994.556 2361.547 C 994.556 2361.547 1029.05 2347.141 1078.896 2330.327 C 1109.638 2319.957 1146.176 2309.645 1184.07 2301.011 C 1238.366 2288.639 1295.447 2279.712 1342.258 2278.993 C 1361.719 2278.694 1379.483 2275.617 1393.871 2258.259" fill="none" stroke="#323f51" stroke-width="5" style="" transform="matrix(0.963123, 0.240569, -0.30093, 0.963123, 739.159186, -202.10789)"/>
    <text style="white-space: pre; fill: rgb(51, 51, 51); font-family: &quot;Roboto Slab&quot;; font-size: 28px;" transform="matrix(2.861418, 0, 0, 2.558398, -612.266113, 2275.144043)">Her kan du vælge, om du vil arbejde med belastninger i forhold til:<tspan x="0" dy="1em">​</tspan></text>
  </g>
  <g id="Group_1219" data-name="Group 1219" transform="matrix(0.71318, 0, 0, 0.634864, 237.579926, -1017.705872)" style="">
    <g id="Group_1205" data-name="Group 1205" transform="matrix(1.22572, 0, 0, 1.234071, 23962.529297, 27654.615234)" style="">
      <g id="Group_1204" data-name="Group 1204" transform="translate(-18488.57 -21743.621)">
        <path id="Nuance_A4_5a" data-name="Nuance A4 5a" d="M136.9,0A136.9,136.9,0,1,1,0,136.9,136.9,136.9,0,0,1,136.9,0Z" transform="translate(45.415 53.374)" fill="#7ccad8"/>
      </g>
    </g>
    <g id="Group_1215" data-name="Group 1215" transform="matrix(1.22572, 0, 0, 1.234071, 24159.871094, 27357.9375)" style="">
      <text id="i" transform="translate(-18485.934 -21395.555)" fill="#323f51" font-size="150" font-family="RifficFree-Bold, Riffic Free" font-weight="700" style="white-space: pre;"><tspan x="0" y="146">i</tspan></text>
    </g>
  </g>
  <g id="Group_1541" data-name="Group 1541" transform="matrix(1.170871, 0, 0, 1.144702, 1959.693237, -705.233337)" style="">
    <g id="Group_1073" data-name="Group 1073" transform="translate(969.574 1172.396)">
      <path id="Path_373" data-name="Path 373" d="M43.509,104.53c3.432,13.45,10.885,25.532,19.242,36.614,6.684,8.86,14.883,17.755,25.8,19.771,9.672,1.784,19.567-2.318,27.541-8.078,19.528-14.1,30.683-39.466,26.6-63.206-4.569-26.569-32.136-52.772-60.409-50.587C52.768,41.324,37.08,79.338,43.509,104.53Z" transform="matrix(0.982, 0.191, -0.191, 0.982, 42.813, 2.539)" fill="none" stroke="#502831" stroke-miterlimit="10" stroke-width="3.76"/>
      <path id="Path_379" data-name="Path 379" d="M103.83,137.492l8.614-6.15c3.026-2.161,6.128-4.406,8.532-8.431a25.822,25.822,0,0,0,3.126-16.068,30.691,30.691,0,0,0-2.75-8.34c-10.038-22.059-22.928-39.66-37.29-50.923" transform="matrix(0.999, 0.052, -0.052, 0.999, 70.369, -17.522)" fill="none" stroke="#502831" stroke-linecap="round" stroke-linejoin="round" stroke-width="3"/>
    </g>
    <g id="Group_1539" data-name="Group 1539" transform="translate(1061.253 1252.495) rotate(-3)">
      <path id="Path_574" data-name="Path 574" d="M2.909,2.509A9.057,9.057,0,0,1,.378,1.133C0,.849-.163.53.208.187.564-.141.928.013,1.263.262c2.616,1.945,5.5,2.047,8.569.837.153-.06.31-.114.46-.178.379-.16.742-.17.964.168s.093.654-.337.838A10.879,10.879,0,0,1,2.909,2.509Z" transform="matrix(-0.829, 0.559, -0.559, -0.829, 5.627, -3.743)" fill="#502831" stroke="#502831" stroke-width="2"/>
      <path id="Path_573" data-name="Path 573" d="M2.909,2.509A9.057,9.057,0,0,1,.378,1.133C0,.849-.163.53.208.187.564-.141.928.013,1.263.262c2.616,1.945,5.5,2.047,8.569.837.153-.06.31-.114.46-.178.379-.16.742-.17.964.168s.093.654-.337.838A10.879,10.879,0,0,1,2.909,2.509Z" transform="matrix(-0.966, -0.259, 0.259, -0.966, 47.619, 0.452)" fill="#502831" stroke="#502831" stroke-width="2"/>
      <path id="Subtraction_6" data-name="Subtraction 6" d="M2304.309,2230.067a5.154,5.154,0,0,1-3.646-1.5,4.638,4.638,0,0,1,.013-6.511,5.027,5.027,0,0,1,3.485-1.28h.077a4.82,4.82,0,0,1,3.254,1.114,2.465,2.465,0,0,0-.59-.069h-.037a1.959,1.959,0,0,0-1.5,3.334,2.2,2.2,0,0,0,1.561.644l.085,0a1.833,1.833,0,0,0,1.806-1.445,5.422,5.422,0,0,1,.071,1,4.977,4.977,0,0,1-1.225,3.368,4.414,4.414,0,0,1-3.156,1.35C2304.441,2230.066,2304.374,2230.067,2304.309,2230.067Z" transform="translate(-2293.271 -2203.032)" fill="#502831"/>
      <path id="Exclusion_2" data-name="Exclusion 2" d="M2303.941,2230.4h-.039a4.535,4.535,0,0,1-3.393-1.255,4.856,4.856,0,0,1-1.174-3.517,5.042,5.042,0,0,1,1.322-3.485,4.557,4.557,0,0,1,3.326-1.371h.011a4.556,4.556,0,0,1,3.515,1.662,2.067,2.067,0,0,0-1.407-.487h-.035a1.969,1.969,0,0,0-1.505,3.354,2.213,2.213,0,0,0,1.566.645l.088,0a1.907,1.907,0,0,0,1.886-2.03,2.117,2.117,0,0,0-.146-.843,5.107,5.107,0,0,1,.687,2.626,4.753,4.753,0,0,1-1.3,3.418A4.678,4.678,0,0,1,2303.941,2230.4Zm4.007-7.34a4.777,4.777,0,0,0-.439-.626,1.714,1.714,0,0,1,.441.625Z" transform="translate(-2270.904 -2203.184)" fill="#502831"/>
      <path id="Path_2028" data-name="Path 2028" d="M88.445,78.218s-19.312,18.61-35.44,0" transform="matrix(0.999, 0.052, -0.052, 0.999, -45.313, -44.537)" fill="none" stroke="#502831" stroke-linecap="round" stroke-linejoin="round" stroke-width="2"/>
    </g>
    <g id="Group_1540" data-name="Group 1540" transform="translate(-68.904 -0.125) rotate(-2)">
      <path id="Path_2025" data-name="Path 2025" d="M6.44,4.03a23.213,23.213,0,0,1-5.6-2.21C.011,1.363-.361.851.461.3A2.137,2.137,0,0,1,2.8.421C8.588,3.545,14.97,3.709,21.766,1.766c.339-.1.685-.183,1.019-.285a1.989,1.989,0,0,1,2.135.27c.509.564.207,1.05-.746,1.345A32.527,32.527,0,0,1,6.44,4.03Z" transform="matrix(-0.469, -0.883, 0.883, -0.469, 1184.942, 1271.627)" fill="#323f51"/>
      <path id="Path_2026" data-name="Path 2026" d="M4.9,3.254A17.081,17.081,0,0,1,.638,1.469C.008,1.1-.275.687.351.243a1.549,1.549,0,0,1,1.777.1c4.407,2.523,9.264,2.655,14.435,1.086.258-.078.522-.148.775-.23a1.445,1.445,0,0,1,1.624.218c.388.456.157.848-.567,1.087A23.39,23.39,0,0,1,4.9,3.254Z" transform="matrix(-0.469, -0.883, 0.883, -0.469, 1189.462, 1265.711)" fill="#323f51"/>
    </g>
  </g>
  <g id="Group_1388" data-name="Group 1388" transform="matrix(0.24676, 0, 0, 0.222417, 2713.79126, 400.875824)" style="">
    <path id="Path_1762" data-name="Path 1762" d="M-976.144,187.328" transform="translate(4464.534 1333.098)" fill="none" stroke="#323f51" stroke-width="1"/>
    <path id="Path_1750" data-name="Path 1750" d="M-573.652,158.091C-498.231,199.4-452.511,278.58-420.111,357.54a1079.031,1079.031,0,0,1,78.564,473.284c-1.888,30.991-5.365,62.765-19.79,90.35-18.309,35.016-52.385,59.495-88.1,77.053-67.79,33.323-144.22,45.932-219.828,49.948-64.277,3.414-130.3.638-190.274-22.442S-973.053,956.548-991.776,895.7c-11.085-36.012-9.54-74.471-7.891-112.076q2.429-55.525,4.864-111.05c4.341-99.115,9.009-199.98,42.715-293.436S-850.62,199.038-755.665,166.769c30.23-10.278,67.072-34.535,98.615-29.4,68.509,11.146,35.978,4.024,83.4,20.721" stroke-miterlimit="10" stroke-width="10" transform="translate(4007.299 1020.387)" style="fill: rgba(126, 199, 214, 0); stroke: rgb(80, 40, 49);"/>
    <path id="Path_1760" data-name="Path 1760" d="M519.358,124.343c-16.711,3.5-29.235,12.385-41.669,23.79" transform="translate(2744.073 1182.121)" fill="none" stroke-linecap="round" stroke-miterlimit="10" stroke-width="5" style="stroke: rgb(80, 40, 49);"/>
    <path id="Path_1761" data-name="Path 1761" d="M466.3,124.343c16.711,3.5,29.221,12.385,41.67,23.79" transform="translate(2921.296 1224.121)" fill="none" stroke-linecap="round" stroke-miterlimit="10" stroke-width="5" style="stroke: rgb(80, 40, 49);"/>
    <path id="Path_1754" data-name="Path 1754" d="M-764.21,192.036c53.3,15.349,94.54,79,94.593,146,.012,15.866-2.123,31.989-8,46.14-10.908,26.272-32.949,42.346-54.029,56.612C-806.71,491.561-935.249,178-1014.4,218.441" transform="translate(4404.627 1345.16)" fill="none" stroke-linecap="round" stroke-linejoin="round" stroke-width="10" style="stroke: rgb(80, 40, 49);"/>
    <path id="Path_1753" data-name="Path 1753" d="M 3351.828 1518.389 C 3354.626 1525.756 3356.117 1533.551 3356.232 1541.422 C 3356.34 1545.35 3355.109 1548.36 3350.811 1548.524 C 3346.694 1548.68 3345.767 1545.652 3345.634 1542.168 C 3344.581 1514.951 3321.377 1510.305 3296.733 1501.101 C 3295.505 1500.642 3291.313 1497.16 3290.076 1496.738 C 3286.966 1495.669 3287.747 1489.213 3288.82 1485.776 C 3289.936 1482.208 3301.237 1476.412 3304.788 1477.606 C 3326.015 1484.772 3343.096 1496.755 3351.828 1518.389 Z" transform="matrix(-0.733207, 0.683941, -0.676091, -0.733207, 6780.730897, 350.230613)" style="fill: rgb(80, 40, 49);"/>
    <path id="Path_1755" data-name="Path 1755" d="M1032.423,500.6c-13.752-.157-22.828,8.617-22.583,21.834.246,13.317,8.378,22.067,20.927,22.533,13.493.5,24.837-9.8,24.7-22.439C1055.333,509.433,1046.218,500.764,1032.423,500.6Z" transform="translate(2341.542 894.008)" style="fill: rgb(80, 40, 49);"/>
    <path id="Path_1756" data-name="Path 1756" d="M 3378.159 1396.773 C 3372.275 1396.704 3368.389 1400.465 3368.489 1406.122 C 3368.596 1411.822 3372.079 1415.571 3377.446 1415.766 C 3383.23 1415.987 3388.086 1411.566 3388.023 1406.16 C 3387.966 1400.55 3384.067 1396.842 3378.159 1396.773 Z" fill="#fff" opacity="0.9"/>
    <path id="Path_1757" data-name="Path 1757" d="M1059.361,500.4c-12.51-.032-22.365,10.394-22.258,23.532.107,13.657,9.065,22.538,22.639,22.455,14.037-.082,21.91-8.311,21.816-22.791C1081.463,510.1,1072.214,500.429,1059.361,500.4Z" transform="translate(2207.562 893.486)" style="fill: rgb(80, 40, 49);"/>
    <path id="Path_1758" data-name="Path 1758" d="M 3273.19 1398.845 C 3267.268 1398.775 3263.359 1402.557 3263.465 1408.245 C 3263.574 1413.977 3267.071 1417.745 3272.474 1417.945 C 3278.283 1418.167 3283.165 1413.726 3283.109 1408.285 C 3283.051 1402.645 3279.135 1398.914 3273.19 1398.845 Z" fill="#fff"/>
  </g>
  <g id="Group_1057" data-name="Group 1057" transform="matrix(1, 0, 0, 1, 5037.678223, 8657.110352)">
    <path id="Path_1346" data-name="Path 1346" d="M -1870.633 -8888.273 L -1790.441 -8874.332 C -1676.017 -8874.332 -1693.938 -8838.741 -1748.155 -8773.886 C -1749.294 -8772.525 -1761.097 -8714.188 -1762.297 -8712.849 C -1819.153 -8649.365 -1951.753 -8644.178 -2063.775 -8644.178 L -2090.397 -8644.178 C -2204.825 -8644.178 -2249.035 -8702.251 -2189.15 -8773.886 C -2161.179 -8807.345 -2138.865 -8824.265 -2086.403 -8847.271 C -2026.546 -8873.521 -1931.614 -8888.273 -1870.633 -8888.273 Z" fill="#fff" style="" transform="matrix(0.982587, 0.185802, -0.185802, 0.982587, -1664.507428, 213.234133)"/>
    <text id="SYMPTOMER_FRA_MAVEN" data-name="SYMPTOMER&#10;FRA MAVEN" transform="matrix(1, 0, 0, 1, -2130.001709, -8798.583984)" style="fill: rgb(153, 0, 51); font-family: &quot;Roboto Slab&quot;; font-size: 50px; font-weight: 800; letter-spacing: 3px; white-space: pre;"><tspan>Hverdagen</tspan><tspan x="0" dy="1em">​</tspan><tspan x="0" dy="1em">​</tspan></text>
    <path id="path-1" data-name="Path 1346" d="M -1772.904 -8474.402 L -1698.973 -8463.044 C -1574.753 -8474.316 -1586.458 -8397.51 -1653.412 -8327.284 C -1654.544 -8326.097 -1732.134 -8280.206 -1733.78 -8279.74 C -1874.007 -8240.009 -1861.001 -8220.363 -1933.927 -8205.619 L -1957.588 -8205.619 C -2059.288 -8205.619 -2104.373 -8286.136 -2045.357 -8327.284 C -1986.341 -8368.432 -1888.791 -8475.611 -1772.904 -8474.402 Z" fill="#fff" style="" transform="matrix(-0.953318, -0.301969, 0.301969, -0.953318, -1086.995697, -16823.930375)"/>
    <text id="text-1" data-name="SYMPTOMER&#10;FRA MAVEN" transform="matrix(1, 0, 0, 1, -1938.057983, -8328.991211)" style="fill: rgb(153, 0, 51); font-family: &quot;Roboto Slab&quot;; font-size: 50px; font-weight: 800; letter-spacing: 3px; white-space: pre;"><tspan>Uddannelse</tspan><tspan x="0" dy="1em">​</tspan><tspan x="0" dy="1em">​</tspan></text>
    <path id="path-4" data-name="Path 1346" d="M -2315.8 -8126.886 L -2287.684 -8126.886 C -2146.546 -8172.652 -2103.831 -8066.642 -2183.392 -7984.394 C -2184.737 -7983.004 -2276.878 -7929.041 -2278.89 -7928.713 C -2451.866 -7900.568 -2441.583 -7892.537 -2516.719 -7841.905 L -2544.835 -7841.905 C -2665.681 -7841.905 -2712.153 -7905 -2649.128 -7984.394 C -2586.103 -8063.788 -2449.046 -8166.037 -2315.8 -8126.886 Z" fill="#fff" style="" transform="matrix(-0.953318, -0.301969, 0.301969, -0.953318, -2295.782706, -16325.247404)"/>
    <text id="text-2" data-name="SYMPTOMER&#10;FRA MAVEN" transform="matrix(1, 0, 0, 1, -2595.5042, -7999.875715)" style="fill: rgb(153, 0, 51); font-family: &quot;Roboto Slab&quot;; font-size: 50px; font-weight: 800; letter-spacing: 3px; white-space: pre;">Arbejde</text>
    <path id="path-7" data-name="Path 1346" d="M -1735.321 -8476.952 C -1675.49 -8495.904 -1597.705 -8395.856 -1604.175 -8307.222 C -1604.282 -8305.763 -1709.225 -8277.441 -1710.637 -8277.011 C -1830.951 -8240.389 -1828.699 -8234.159 -1882.362 -8208.691 L -1943.801 -8190.516 C -1988.873 -8209.075 -2044.753 -8180.474 -2079.127 -8193.55 C -2130.604 -8213.133 -2153.398 -8320.449 -2045.18 -8328.09 C -2009.053 -8330.641 -1811.995 -8469.304 -1735.321 -8476.952 Z" fill="#fff" style="" transform="matrix(-0.953318, -0.301969, 0.301969, -0.953318, -916.756735, -16255.409599)"/>
    <g id="g-3" data-name="Group 907" transform="matrix(1.180676, 0, 0, 1.25064, -1835.816162, -7747.400391)" style="">
      <path id="path-8" data-name="Path 211" d="M-4852.995,7768.923h72.7a5.3,5.3,0,0,1,5.3,5.3,5.3,5.3,0,0,1-5.3,5.3h-72.7a5.3,5.3,0,0,1-5.3-5.3A5.3,5.3,0,0,1-4852.995,7768.923Z" transform="translate(4858.297 -7751.711)" fill="#903"/>
      <path id="path-9" data-name="Path 212" d="M-4833.6,7762.906a5.3,5.3,0,0,1,3.751,1.553l17.2,17.213a5.3,5.3,0,0,1,0,7.5l-17.2,17.215a5.3,5.3,0,0,1-7.5,0,5.3,5.3,0,0,1,0-7.493l13.459-13.472-13.459-13.466a5.3,5.3,0,0,1,0-7.5A5.288,5.288,0,0,1-4833.6,7762.906Z" transform="translate(4894.397 -7762.906)" fill="#903"/>
    </g>
    <text id="text-3" data-name="SYMPTOMER&#10;FRA MAVEN" style="fill: rgb(153, 0, 51); font-family: &quot;Roboto Slab&quot;; font-size: 50px; font-weight: 800; letter-spacing: 3px; white-space: pre;" x="-1867.037" y="-7768.317">Nære Relationer</text>
    <g id="g-1" data-name="Group 907" transform="matrix(1.180676, 0, 0, 1.25064, -1928.480957, -8301.588867)" style="">
      <path id="path-2" data-name="Path 211" d="M-4852.995,7768.923h72.7a5.3,5.3,0,0,1,5.3,5.3,5.3,5.3,0,0,1-5.3,5.3h-72.7a5.3,5.3,0,0,1-5.3-5.3A5.3,5.3,0,0,1-4852.995,7768.923Z" transform="translate(4858.297 -7751.711)" fill="#903"/>
      <path id="path-3" data-name="Path 212" d="M-4833.6,7762.906a5.3,5.3,0,0,1,3.751,1.553l17.2,17.213a5.3,5.3,0,0,1,0,7.5l-17.2,17.215a5.3,5.3,0,0,1-7.5,0,5.3,5.3,0,0,1,0-7.493l13.459-13.472-13.459-13.466a5.3,5.3,0,0,1,0-7.5A5.288,5.288,0,0,1-4833.6,7762.906Z" transform="translate(4894.397 -7762.906)" fill="#903"/>
    </g>
    <g id="g-7" data-name="Group 907" transform="matrix(1.180676, 0, 0, 1.25064, -2138.206055, -8764.285156)" style="">
      <path id="path-11" data-name="Path 211" d="M-4852.995,7768.923h72.7a5.3,5.3,0,0,1,5.3,5.3,5.3,5.3,0,0,1-5.3,5.3h-72.7a5.3,5.3,0,0,1-5.3-5.3A5.3,5.3,0,0,1-4852.995,7768.923Z" transform="translate(4858.297 -7751.711)" fill="#903"/>
      <path id="path-12" data-name="Path 212" d="M-4833.6,7762.906a5.3,5.3,0,0,1,3.751,1.553l17.2,17.213a5.3,5.3,0,0,1,0,7.5l-17.2,17.215a5.3,5.3,0,0,1-7.5,0,5.3,5.3,0,0,1,0-7.493l13.459-13.472-13.459-13.466a5.3,5.3,0,0,1,0-7.5A5.288,5.288,0,0,1-4833.6,7762.906Z" transform="translate(4894.397 -7762.906)" fill="#903"/>
    </g>
  </g>
  <path id="Path_1341" data-name="Path 1341" d="M 1779.581 1798.383 C 1781.36 1797.551 1786.605 1795.094 1786.254 1792.474 C 1786.371 1792.359 1786.497 1792.252 1786.63 1792.155 C 1785.889 1792.079 1786.338 1791.519 1786.724 1792.07 C 1786.533 1791.533 1786.402 1790.977 1786.332 1790.412 C 1783.701 1790.565 1771.145 1788.036 1771.994 1790.48 C 1771.374 1789.464 1771.104 1790.327 1770.994 1790.424 C 1771.167 1790.647 1771.359 1790.856 1771.567 1791.048 C 1770.09 1791.87 1769.309 1792.914 1771.684 1793.228 C 1774.338 1793.579 1777.128 1793.859 1779.889 1794.047 C 1778.917 1794.917 1777.833 1795.653 1776.666 1796.236 C 1776.534 1796.298 1776.408 1796.359 1776.277 1796.421 C 1776.753 1795.95 1777.142 1795.459 1776.409 1795.721 C 1776.149 1796.007 1775.931 1796.328 1775.76 1796.675 C 1773.276 1797.936 1771.501 1799.436 1772.075 1800.596 C 1772.138 1801.47 1772.985 1801.702 1773.828 1801.804 L 1773.76 1801.836 C 1773.741 1801.846 1773.806 1801.814 1773.828 1801.804 C 1773.85 1801.82 1773.815 1801.823 1773.76 1801.836 C 1773.66 1801.884 1773.92 1801.992 1773.989 1802.006 C 1774.07 1801.916 1774.089 1801.864 1774.076 1801.831 L 1774.27 1801.85 C 1774.885 1802.007 1775.509 1802.124 1776.139 1802.201 C 1776.756 1802.279 1778.41 1802.547 1780.273 1802.701 C 1780.332 1802.92 1780.402 1803.078 1780.487 1802.977 C 1780.459 1803.011 1780.477 1802.887 1780.508 1802.722 C 1781.064 1802.763 1781.634 1802.791 1782.201 1802.804 C 1781.995 1802.926 1781.614 1803.02 1781.75 1803.104 C 1781.97 1803.06 1782.174 1802.956 1782.339 1802.804 C 1782.401 1802.804 1782.464 1802.81 1782.527 1802.81 C 1782.639 1802.951 1782.944 1802.957 1783.486 1802.795 C 1785.734 1802.704 1787.603 1802.186 1787.603 1800.681 C 1787.603 1798.743 1783.411 1798.402 1779.583 1798.381 M 1777.492 1789.875 C 1777.457 1789.935 1777.415 1789.992 1777.369 1790.045 L 1777.156 1790.045 C 1777.14 1789.801 1777.312 1789.345 1777.492 1789.876 M 1776.63 1789.96 C 1776.674 1789.838 1776.73 1789.794 1776.787 1789.828 C 1776.777 1789.919 1776.768 1789.978 1776.759 1790.041 L 1776.629 1790.041 C 1776.629 1790.004 1776.629 1789.962 1776.629 1789.962 M 1776.266 1790.036 L 1776.146 1790.036 C 1776.121 1789.98 1776.087 1789.889 1776.056 1789.8 C 1776.056 1789.8 1776.04 1789.766 1776.012 1789.687 C 1776.129 1789.615 1776.226 1789.853 1776.266 1790.039 M 1772.394 1790.576 C 1772.394 1790.576 1772.494 1790.563 1772.583 1790.56 C 1772.526 1790.595 1772.456 1790.601 1772.394 1790.576" fill="#323f51" clip-path="url(#clip-path)" transform="matrix(1, 0, 0, 1, 2377.953671, -3.206861)"/>
  <path id="Path_1342" data-name="Path 1342" d="M 1805.735 1789.42 C 1805.728 1787.826 1799.79 1787.56 1795.603 1787.52 C 1795.792 1787.331 1795.982 1787.131 1796.171 1786.911 C 1796.305 1786.867 1796.434 1786.81 1796.557 1786.742 C 1796.522 1786.683 1796.49 1786.622 1796.463 1786.56 C 1796.491 1786.526 1796.517 1786.497 1796.544 1786.46 C 1796.565 1786.539 1796.581 1786.62 1796.592 1786.702 C 1796.916 1786.257 1797.275 1785.837 1797.663 1785.447 C 1797.683 1785.483 1797.713 1785.514 1797.75 1785.535 C 1797.806 1785.56 1797.826 1785.428 1797.804 1785.3 C 1799.852 1783.179 1803.304 1780.035 1802.36 1778.959 C 1802.413 1778.937 1802.46 1778.922 1802.513 1778.899 C 1802.813 1778.956 1802.836 1778.82 1802.793 1778.663 C 1802.928 1778.638 1803.003 1778.616 1802.993 1778.591 C 1802.868 1778.384 1802.725 1778.189 1802.564 1778.01 C 1802.617 1777.555 1801.884 1777.319 1801.693 1777.001 C 1801.762 1777.107 1801.81 1777.227 1801.835 1777.352 C 1801.67 1777.238 1801.498 1777.134 1801.32 1777.042 C 1801.628 1776.842 1801.22 1776.784 1800.976 1776.886 C 1800.635 1776.744 1800.282 1776.631 1799.923 1776.547 C 1800.052 1775.722 1799.715 1776.278 1799.751 1776.506 C 1797.921 1776.221 1796.066 1776.138 1794.219 1776.256 C 1794.166 1776.258 1794.114 1776.263 1794.062 1776.271 C 1793.834 1776.137 1793.63 1775.964 1793.462 1775.76 C 1793.416 1775.681 1793.425 1775.66 1793.453 1775.647 C 1793.19 1775.772 1792.916 1775.872 1792.635 1775.947 C 1792.644 1775.892 1792.644 1775.837 1792.635 1775.783 C 1792.617 1775.723 1792.557 1775.84 1792.529 1775.975 C 1791.169 1776.321 1789.229 1776.392 1789.408 1775.996 C 1789.045 1776.787 1788.786 1776.485 1788.85 1777.568 C 1788.574 1775.268 1788.884 1778.481 1788.603 1777.039 C 1788.619 1777.127 1788.679 1777.402 1788.742 1777.714 C 1787.363 1778.247 1786.676 1778.774 1788.277 1779 C 1788.436 1779.021 1788.716 1779.038 1789.083 1779.05 C 1789.055 1779.15 1789.046 1779.235 1789.101 1779.285 C 1789.112 1779.207 1789.119 1779.13 1789.123 1779.052 C 1790.634 1779.099 1793.623 1779.07 1796.442 1778.995 C 1796.319 1779.048 1796.246 1779.176 1796.261 1779.309 C 1796.232 1780.378 1796.63 1779.199 1796.69 1778.989 L 1797.666 1778.961 C 1797.735 1779.061 1797.81 1779.105 1797.886 1779.07 C 1797.962 1779.035 1798.023 1778.986 1798.093 1778.947 C 1798.375 1778.938 1798.651 1778.928 1798.92 1778.918 C 1798.845 1779.006 1798.804 1779.119 1798.805 1779.235 C 1798.759 1779.711 1799.034 1779.05 1799.034 1778.913 L 1799.534 1778.894 C 1799.274 1779.133 1799.211 1779.257 1799.234 1779.314 C 1797.778 1780.429 1796.408 1781.654 1795.138 1782.977 C 1795.126 1782.942 1795.101 1782.913 1795.069 1782.896 C 1794.937 1782.833 1794.855 1783.038 1794.928 1783.19 C 1793.387 1784.75 1791.94 1786.402 1790.596 1788.135 C 1790.431 1788.33 1790.409 1788.609 1790.54 1788.829 C 1790.467 1788.938 1790.425 1789.066 1790.421 1789.198 C 1791.055 1789.62 1791.77 1789.905 1792.521 1790.035 C 1793.459 1790.435 1793.264 1790.267 1792.964 1790.064 C 1793.205 1790.132 1793.459 1790.195 1793.722 1790.253 C 1793.797 1791.306 1795.312 1790.965 1796.142 1790.673 C 1796.542 1790.724 1796.949 1790.773 1797.359 1790.807 C 1797.284 1790.879 1797.248 1790.982 1797.259 1791.086 C 1797.291 1791.486 1797.572 1791.061 1797.641 1790.832 C 1798.371 1790.894 1799.106 1790.932 1799.823 1790.945 C 1799.717 1791.015 1799.623 1791.083 1799.57 1791.062 C 1799.662 1791.1 1799.827 1791.022 1799.97 1790.946 C 1800.651 1790.956 1801.312 1790.946 1801.927 1790.905 C 1804.115 1790.767 1805.738 1790.305 1805.734 1789.419 M 1800.334 1780.519 L 1800.259 1780.625 C 1800.275 1780.584 1800.301 1780.548 1800.334 1780.519 M 1801.622 1778.819 C 1801.631 1778.867 1801.624 1778.918 1801.603 1778.963 Z M 1799.73 1781.547 C 1799.758 1781.497 1799.787 1781.447 1799.815 1781.399 C 1800.015 1781.55 1799.868 1781.599 1799.73 1781.547 M 1800.23 1782.216 C 1799.669 1781.081 1801.036 1782.633 1800.23 1782.216 M 1800.562 1781.846 C 1799.851 1781.125 1800.492 1781.62 1800.53 1781.673 C 1800.603 1781.773 1800.615 1781.834 1800.562 1781.846 M 1800.995 1781.498 C 1801.045 1781.868 1799.486 1780.745 1800.995 1781.498 M 1790.654 1776.647 C 1790.64 1776.8 1790.614 1776.952 1790.575 1777.102 C 1790.494 1776.947 1790.537 1776.021 1790.654 1776.647 M 1790.416 1776.688 C 1790.422 1776.942 1790.422 1777.081 1790.416 1777.148 C 1790.387 1777.046 1790.371 1776.941 1790.368 1776.835 C 1790.375 1776.71 1790.391 1776.66 1790.414 1776.688 M 1789.406 1776.478 L 1789.324 1776.478 C 1789.343 1776.394 1789.462 1775.841 1789.406 1776.478 M 1790.152 1776.631 C 1790.265 1776.383 1790.352 1776.841 1790.372 1777.164 C 1790.335 1777.174 1790.3 1777.186 1790.263 1777.195 C 1790.232 1777.069 1790.195 1776.885 1790.151 1776.631 M 1799.53 1778.89 L 1799.863 1778.875 C 1799.803 1778.915 1799.74 1778.96 1799.677 1779.003 C 1799.642 1778.95 1799.59 1778.91 1799.53 1778.89 M 1794.625 1790.44 L 1794.961 1790.497 C 1794.684 1790.529 1794.587 1790.482 1794.625 1790.44" fill="#323f51" clip-path="url(#clip-path)" transform="matrix(1, 0, 0, 1, 2377.953671, -3.206861)"/>
  <path id="Path_1343" data-name="Path 1343" d="M 1790.215 1790.046 C 1790.652 1790.334 1791.201 1790.396 1791.692 1790.215 C 1791.692 1790.215 1789.817 1789.435 1790.215 1790.046" fill="#323f51" clip-path="url(#clip-path)" transform="matrix(1, 0, 0, 1, 2377.953671, -3.206861)"/>
  <path id="Path_1164" data-name="Path 1164" d="M 737.853 1938.055" fill="none" stroke="#323f51" stroke-width="4.5" transform="matrix(1, 0, 0, 1, 2377.953671, -3.206861)"/>
  <g id="g-4" clip-path="url(#clip-1)" transform="matrix(1, 0, 0, 1, 4471.863512, 433.791898)"/>
  <g id="Illustration_-_Min_fysiske_energi_-_Min_fysiske_aktivitet" data-name="Illustration - Min fysiske energi - Min fysiske aktivitet" clip-path="url(#clip-Illustration_-_Min_fysiske_energi_-_Min_fysiske_aktivitet)" transform="matrix(1, 0, 0, 1, 4177.262316, 31.599149)"/>
  <g id="g-5" clip-path="url(#clip-3)" transform="matrix(1, 0, 0, 1, 8903.937975, -999.145907)"/>
  <g id="g-6" data-name="Illustration - Min fysiske energi - Min fysiske aktivitet" clip-path="url(#clip-4)" transform="matrix(1, 0, 0, 1, 8609.336412, -1401.338717)"/>
  <g id="Group_743" data-name="Group 743" transform="matrix(0.988685, -0.150009, 0.150009, 0.988685, 4839.757324, -4382.352539)">
    <g id="Group_989" data-name="Group 989" transform="matrix(1, 0, 0, 1, 8062.061541, 2602.642457)">
      <g id="Group_988" data-name="Group 988" transform="matrix(0.842109, -0.046256, 0.045472, 0.827834, -1774.149414, 934.707703)" style="">
        <g id="Group_927" data-name="Group 927" transform="matrix(1, 0, 0, 1, -10590.813477, 266.713409)">
          <g id="Group_926" data-name="Group 926" clip-path="url(#clip-path-10)">
            <rect id="Rectangle_375" data-name="Rectangle 375" width="1.674" height="76.458" transform="translate(41.051 86.029)" fill="#012d46"/>
            <g id="Group_916" data-name="Group 916" transform="translate(33.682 175.916)">
              <g id="Group_915" data-name="Group 915" clip-path="url(#clip-path-11)">
                <rect id="Rectangle_376" data-name="Rectangle 376" width="26.985" height="33.315" transform="matrix(0.967, -0.255, 0.255, 0.967, -7.181, 1.894)" fill="url(#linear-gradient)"/>
              </g>
            </g>
            <g id="Group_918" data-name="Group 918">
              <g id="Group_917" data-name="Group 917" clip-path="url(#clip-path-10)">
                <path id="Path_1357" data-name="Path 1357" d="M54.422,211.121c-.916-2.015-1.936-3.521-3-3.861a7.861,7.861,0,0,0-5.462.086c-2.7,1.181-4.4,4.921-4.786,9.355,3.477-3.266,7.812-5.723,13.245-5.58" transform="translate(-6.153 -30.902)" fill="#dd7e17"/>
                <path id="Path_1358" data-name="Path 1358" d="M45.744,207.345c-3.23,1.413-5.036,6.487-4.865,12.034s-.341,9.645-1.281,12.375a7.251,7.251,0,0,0,4.1.171,85.087,85.087,0,0,0,1.093-15.242c1.115,7.022.262,13.979-.24,18.06a2.039,2.039,0,0,0,2.732.085s.33-11.32.426-16.216c.5,7.916.512,15.533.512,15.533s1.62.6,1.963-.682c-.085-5.292,0-9.9,0-9.9s.683,7.6,1.023,8.962c1.538.6,3.842.341,4.439-.512-.768-1.792-3.158-16.728-3.243-19.2,1.962,9.729,2.986,16.131,3.841,17.411,1.45.682,3.584-1.451,3.584-1.451s-1.281-.427-1.707-3.67-3.455-16.731-6.914-17.838A7.868,7.868,0,0,0,45.744,207.345Z" transform="translate(-5.917 -30.902)" fill="none" stroke="#922e02" stroke-miterlimit="10" stroke-width="1.125"/>
                <path id="Path_1359" data-name="Path 1359" d="M52.121,206.228H45.167a1.007,1.007,0,0,1-1.007-1.008V188.737a1.007,1.007,0,0,1,1.007-1.008h6.954a1.008,1.008,0,0,1,1.008,1.008V205.22a1.008,1.008,0,0,1-1.008,1.008" transform="translate(-6.598 -28.05)" fill="#012d46"/>
                <path id="Path_1360" data-name="Path 1360" d="M82.812,37.868,1.634,110.929l2.627,2.628,158.1-35.1L281.892,4.237l-.8-2.942Z" transform="translate(-0.244 -0.193)" fill="#005078"/>
                <path id="Path_1361" data-name="Path 1361" d="M82.812,44.293l2.628,2.628L4.262,119.982l-2.627-2.628Z" transform="translate(-0.244 -6.618)" fill="#014163"/>
                <path id="Path_1362" data-name="Path 1362" d="M82.812,37.868,1.634,110.929l2.627,2.628,158.1-35.1L281.892,4.237l-.8-2.942Z" transform="translate(-0.244 -0.193)" fill="none" stroke="#020c14" stroke-miterlimit="10" stroke-width="2.25"/>
                <path id="Path_1363" data-name="Path 1363" d="M85.9,41.014,4.724,114.074,165.457,81.6l116.9-76.848Z" transform="translate(-0.706 -0.71)" fill="#012d46"/>
                <path id="Path_1364" data-name="Path 1364" d="M74.66,57.56,4.724,120.5,165.458,88.03l61.236-40.257C176.634,66.447,95.066,74.663,74.66,57.56" transform="translate(-0.706 -7.138)" fill="#0b2538"/>
                <path id="Path_1365" data-name="Path 1365" d="M85.9,41.014,4.724,114.074,165.457,81.6l116.9-76.848Z" transform="translate(-0.706 -0.71)" fill="none" stroke="#020c14" stroke-linecap="round" stroke-linejoin="round" stroke-width="2.25"/>
              </g>
            </g>
            <g id="Group_920" data-name="Group 920" transform="translate(72.407 42.389)">
              <g id="Group_919" data-name="Group 919" clip-path="url(#clip-path-13)">
                <rect id="Rectangle_378" data-name="Rectangle 378" width="160.188" height="126.132" transform="matrix(0.967, -0.255, 0.255, 0.967, -23.012, 6.079)" fill="url(#linear-gradient-2)"/>
              </g>
            </g>
            <g id="Group_925" data-name="Group 925">
              <g id="Group_924" data-name="Group 924" clip-path="url(#clip-path-10)">
                <path id="Path_1367" data-name="Path 1367" d="M208.43,49.835l17.761,66.277S167.007,143.03,96.106,141.269c-4.494-19.952-8.9-45.184-10.98-56.645C105.108,65.867,153.224,49.73,208.43,49.835Z" transform="translate(-12.719 -7.446)" fill="none" stroke="#020c14" stroke-miterlimit="10" stroke-width="2.25"/>
                <path id="Path_1368" data-name="Path 1368" d="M225.01,58.681l15.453,57.363s-25.931,11.263-46.624,14.93c22.264-23.836,31.17-72.294,31.17-72.294" transform="translate(-28.963 -8.768)" fill="#005078"/>
                <path id="Path_1369" data-name="Path 1369" d="M222.257,23.887l86.8-16.477L261.1,38.6s20.3-23.539-38.838-14.712" transform="translate(-33.209 -1.107)" fill="#005078"/>
                <path id="Path_1370" data-name="Path 1370" d="M93.42,124.455l5.49,26.963s24.073.547,42.949-2.735c-17.508.274-37.751,0-40.761-2.189-2.735-7.66-7.677-22.039-7.677-22.039" transform="translate(-13.958 -18.596)" fill="#005078"/>
                <path id="Path_1371" data-name="Path 1371" d="M99.745,146.988s37.96,4.405,66.482-3.356c-19.295,6.712-55.158,7.341-64.185,5.728-1.878.145-2.3-2.372-2.3-2.372" transform="translate(-14.904 -21.461)" fill="#005078"/>
                <g id="Group_923" data-name="Group 923" transform="translate(72.407 42.389)" opacity="0.54">
                  <g id="Group_922" data-name="Group 922">
                    <g id="Group_921" data-name="Group 921" clip-path="url(#clip-path-15)">
                      <path id="Path_1372" data-name="Path 1372" d="M208.723,50.932l-.293-1.1c-55.206-.1-103.321,16.032-123.3,34.789,1.081,5.94,2.784,15.579,4.8,26.263,27.395-44.62,84.324-59.279,118.8-59.954" transform="translate(-85.126 -49.835)" fill="#06111e"/>
                    </g>
                  </g>
                </g>
              </g>
            </g>
          </g>
        </g>
      </g>
    </g>
  </g>
  <g id="Group_705" data-name="Group 705" transform="matrix(0.339497, 0.180322, -0.161013, 0.303143, 2940.904785, 584.863953)" style="">
    <g id="Group_704" data-name="Group 704" transform="translate(-353.304 374.84)">
      <path id="Path_1099" data-name="Path 1099" d="M21.634,726.292a10.238,10.238,0,0,0-.4-3.232c-1.593-9.261-2.695-18.555-2.179-27.988.155-2.837.066-5.687.024-8.526a17.029,17.029,0,0,0-.335-4.558c-1.6-5.344-1.362-10.8-1.442-16.266-.041-2.835-.438-5.664-.652-8.5-.3-3.915-.673-7.825-.837-11.745-.5-11.761,1.163-23.605-1.412-35.283a2.566,2.566,0,0,1-.03-.655,126.31,126.31,0,0,0-1.255-20.262c-.486-3.887-.326-7.84-1.418-11.678a16.2,16.2,0,0,1-.382-4.555c.06-5.91.11-11.808-1.531-17.572a10.058,10.058,0,0,1-.2-1.952c-.677-8.7-1.094-17.428-2.1-26.087a180.692,180.692,0,0,1-1-20.944,27.118,27.118,0,0,0-.364-6.527c-1.2-4.742-1.145-9.528-1.138-14.335.011-6.562.039-13.122,0-19.682-.012-1.96-.216-3.92-.379-5.875-.359-4.344-.935-8.679-1.08-13.03-.217-6.539.346-13.1-1.3-19.565A21.645,21.645,0,0,1,2,422.251c0-4.591.059-9.186.063-13.775,0-1.527.253-3.175-.217-4.558-1.522-4.49-1.1-9.074-1.091-13.652,0-2.385,0-4.769,0-7.422-4.757-2.732-9.457-4.51-14.905-4.469-22.084.157-44.173.029-66.255.3-7.852.1-15.708.877-23.531,1.637-6.734.653-13.391,1.972-20.219,1.737a44.851,44.851,0,0,0-7.81.812c-7.352,1.062-14.69,2.242-22.045,3.276q-22.071,3.107-44.155,6.1c-5.412.736-10.826,1.646-16.266,1.945a76.045,76.045,0,0,0-13.59,1.922c-4.246,1.014-8.528,2.426-12.82,2.533-5.539.142-10.823,1.317-16.185,2.278a40.178,40.178,0,0,1-4.505.818c-7.188.448-14.389.7-21.571,1.228a37.4,37.4,0,0,0-9.008,1.533,24.767,24.767,0,0,1-7.686,1.254c-12.027.157-24.05.349-36.077.468a32.541,32.541,0,0,0-12.188,1.987c-.161,1.6-.311,2.882-.415,4.16-.631,7.715,1.925,15.114,2.259,22.742.143,3.25.77,6.48.929,9.732.226,4.582-.281,9.254.418,13.748a240.555,240.555,0,0,1,2.731,39.2,29.548,29.548,0,0,0,.324,5.877c1.388,7.137,1.453,14.335,1.358,21.561a57.447,57.447,0,0,0,.308,8.5c1.189,8.661,2.654,17.28,3.867,25.936a160.238,160.238,0,0,1,1.872,16.924,86.919,86.919,0,0,0,1.642,15.618c2.41,11.123,3.191,22.457,4.6,33.7,1.141,9.088,1.711,18.243,2.628,27.361.282,2.818.934,5.6,1.3,8.411a81.558,81.558,0,0,1,1,9.733c.11,12.681.017,25.366.042,38.047a33.316,33.316,0,0,0,.4,6.524c1.613,7.914,1.85,15.983,2.488,23.972.676,8.472.172,17.045.053,25.57a38.239,38.239,0,0,1-.884,6.429c-.978,5.181-.671,10.332-.134,15.862,2.2.159,4.113.4,6.025.417,8.31.044,16.629.258,24.927-.059,5.583-.213,10.946,1.012,16.1,2.417a251.176,251.176,0,0,1,26.609,9.183,42.346,42.346,0,0,0,15.892,3.191c8.356-.072,16.517,1.412,24.77,1.974,7.775.528,15.461,2.518,23.291,3.316,3.9.4,7.76,1.074,11.711,1.1a37.37,37.37,0,0,1,8.46.7,43.806,43.806,0,0,0,10.4.981c4.374.006,8.747.051,13.119.01a30.606,30.606,0,0,0,5.211-.367c5.78-1.073,11.538-2.257,17.3-3.434,7.675-1.571,15.518-2.47,22.8-5.664a5.066,5.066,0,0,1,1.9-.471c3.875-.053,7.138-1.889,10.465-3.529,5.638-2.778,10.521-6.865,16.538-9.075,3.852-1.415,7.358-3.789,10.978-5.8a14.953,14.953,0,0,0,3.718-2.556C-46.7,775.484-41.241,772.3-35.924,769a48.94,48.94,0,0,0,8.246-6.382q3.544-3.408,6.957-6.959a22.1,22.1,0,0,1,7.868-5.741A10.962,10.962,0,0,0-9.185,747.3c3.817-3.884,7.536-7.864,11.26-11.839,1.6-1.7,3.757-1.435,4.756.677a8.466,8.466,0,0,1,.484,1.213c1.172,3.965,2.674,7.874,3.407,11.921.887,4.892,3.618,8.323,7.333,11.188.708.545,1.842.534,2.862.806a13.826,13.826,0,0,0,.507-2.312c.1-5.463.127-10.931.241-16.395C21.78,737.137,20.733,731.727,21.634,726.292Z" transform="translate(355.708 -373.042)" fill="#fff6d5"/>
      <path id="Path_1100" data-name="Path 1100" d="M15.671,518.49c1.076.358,2.1.558,2.867-.613,1.3-1.984,2.636-3.952,4.557-6.827a25.631,25.631,0,0,1-.311,4.446,21.3,21.3,0,0,1-1.628,3.571c-4.6,9.315-4.873,10.83-3.965,22.027,1.282.777,2.008.009,2.556-1,.928-1.706,1.728-3.49,2.708-5.165.293-.5,1.011-.742,2.094-1.491-1.261,5.744-2.39,10.919-5.251,15.5a4.875,4.875,0,0,0-.362,4.774,8.187,8.187,0,0,0,1.777-1.435c1.551-2.3,2.628-4.981,5.042-6.52,1.722.72,1.222,1.952.887,2.8-1.6,4.06-3.221,8.125-5.07,12.073a16.262,16.262,0,0,0-.963,11.168c3.178-1.74,2.232-5.294,4.072-7.358,1.808-2.026,2.591-4.852,5.083-6.606a35.492,35.492,0,0,1-.56,3.769c-.809,3.158-1.586,6.337-2.637,9.417-.982,2.877-1.9,5.979-6.07,6.556.415,2.115.774,3.935,1.13,5.744.83-.134,1.343-.06,1.551-.279,1.613-1.691,2.277-4.211,5-5.789a11.137,11.137,0,0,1-.243,2.822c-1.577,3.831-3.162,7.663-4.937,11.405-.837,1.767-1.018,3.254.389,4.848,2.571-.419,2.812-3.012,4.294-4.545,1.838.673,1.9,2.188,1.368,3.62A110.606,110.606,0,0,1,24.4,606.874c-1.681,3.33-1.2,6.219.269,9.193,2.7.036,2.191-4,5.349-3.407-.318,3.319-1.218,6.366-3.78,8.648a3.563,3.563,0,0,0-1.113,4.145l3.193-.3c-.125,6.014-3.89,11.156-3.525,17.135.344,5.607-.76,11.34,1.605,17.252,3.253-2.464,5.3-5.688,7.853-9.623.94,4.214-.979,6.66-2.2,9.225-1.267,2.672-1.368,2.622-5.361,4.778V671.3c2.639-.557,3.657-2.254,4.282-4.342,1.034-3.467,3.156-6.127,6.722-9.072-1.175,3.935-2.484,6.883-2.853,9.943-.428,3.555-3.164,5.59-4.317,8.529H27.251c-.131.428-.427.868-.347,1.225a75.049,75.049,0,0,1,1.349,18.9c-.109,3.7-.02,7.4-.02,10.88,1.522.818,1.851-.133,2.241-.807.653-1.135,1.186-2.342,1.833-3.478.812-1.426,2.248-1.916,3.14-1.138a2.812,2.812,0,0,1,.415,3.583c-1.7,2.784-3.469,5.524-5.109,8.342a7.84,7.84,0,0,0-.843,6.6c2.663-.343,1.832-3.694,4.327-3.977.845,2.013-.288,3.792-.859,5.519-.886,2.689-2.173,5.243-3.248,7.871-.919,2.238-1.725,4.508-.687,7.444a7.758,7.758,0,0,0,1.854-1.367c1.353-1.919,2.58-3.927,4.54-6.963.284,3.571-1.041,5.349-1.789,7.25a63.925,63.925,0,0,1-2.649,5.985c-1.833,3.544-1.889,3.516-1.755,5.694,2.532-.629,3.138-4.226,6.154-4.066.172.228.453.472.41.569-2.308,5.088-4.644,10.162-7.215,15.75,1.133.069,2.161.444,2.566.1,1.145-.978,1.983-2.305,3.048-3.392a15.17,15.17,0,0,1,2.473-1.563c-1.752,4.09-3.033,7.491-4.634,10.734-2.5,5.071-5.2,10.047-7.9,15.017a1.783,1.783,0,0,1-1.645.549c-.62-.406-1.433-1.29-1.349-1.853a25.544,25.544,0,0,1,1.368-4.293c-2.111.427-2.111.427-4.2,2.773.552,1.8,1.97,3.9,1.473,5.347a24.648,24.648,0,0,1-4.683,7.719c-1.525,1.779-3.132.163-4.632-1.281-2.081,1.928-3.161,4.522-4.626,6.833a11.147,11.147,0,0,1-1.824,2.661,2.662,2.662,0,0,1-2.36.493A4.155,4.155,0,0,1,.25,797.649c-.341-1.358,1.486-2.678.177-4.514-3.34,1.373-6.735,2.417-8.11,6.523-.751,2.233-2.222,4.226-3.357,6.331-1.074,2-2.063,2.161-4.081.616-.51-.391-.972-.851-1.6-1.4-.9,1.035-1.708,2.057-2.612,2.984-1.076,1.106-2.248,2.209-3.982,1.566-1.765-.653-2-2.091-1.758-3.766A7.832,7.832,0,0,0-25.435,804c-1.418,2.5-2.545,4.558-3.751,6.568a13.424,13.424,0,0,1-1.634,2.047c-1.667,1.829-3.439,2.171-4.44.9-.881-1.12-.607-2.327.981-3.976.6-.628,1.313-1.156,1.93-1.771.453-.454.834-.979,1.288-1.522-3.681-.282-4.013-.213-8.973,1.866a39.3,39.3,0,0,1-1.863,4.73,9.872,9.872,0,0,1-2.512,2.912,2.45,2.45,0,0,1-3.547-.205,4.368,4.368,0,0,1-.57-2.932c.078-.786.766-1.512,1.43-2.71-2.055-.216-3.422.071-4.35,1.851a30.438,30.438,0,0,1-2.639,4.457c-1.417,1.859-3.325,1.272-4.223-1.212a19.959,19.959,0,0,1-.5-2.093c-5.391-.177-9.7,1.69-12.774,6.09-10.8-2.229-21.5-.733-32.13-1.174-6.67,2.476-13.412.19-20.117.288-9.4.139-18.8.167-28.2.241-3.5.029-7,.154-10.379-1.056a5.165,5.165,0,0,0-1.936-.3c-7.672.383-15.231-.781-22.792-1.747-5.19-.662-10.332-1.709-15.5-2.527-2.149-.338-4.321-.511-6.482-.78-3.018-.371-6.031-.792-9.053-1.124-1.951-.214-3.909-.4-5.869-.451-4.354-.1-8.759.315-12.935-1.411-12.01-.536-22.771-5.691-33.984-9.175-5.617-1.746-11.292-3.187-17.238-3.175-9.837.023-19.675.05-29.514.029-7.77-.018-8.191-.451-8.231-8.1-.017-3.5.015-7,.033-10.494a11.879,11.879,0,0,1,.094-3.267c2.449-8.152,1.059-16.494,1.273-24.746.142-5.432.45-10.9-1.234-16.256-.505-1.608-.276-3.469-.272-5.213a35.222,35.222,0,0,0-.966-9.083,29.4,29.4,0,0,1-.649-7.14c-.069-11.588-.042-23.177-.068-34.763a110.665,110.665,0,0,0-1.436-15.613c-.7-4.858.281-9.96.516-14.952a2.5,2.5,0,0,0-.029-.655c-2.551-11.117-2.017-22.594-4.048-33.793-1.871-10.314-3.138-20.737-4.6-31.125-.3-2.158-.272-4.36-.4-6.542a26.946,26.946,0,0,0-.355-5.224c-2.714-10.257-2.23-20.829-3.181-31.255-1.21-13.265-1.1-26.652-3.834-39.774a35.762,35.762,0,0,1-.269-3.918c-.3-3.248-.685-6.491-.961-9.741-.164-1.957-.243-3.923-.264-5.887-.086-8.516.183-17.016-1.26-25.5-.724-4.258-.18-8.724-.355-13.09a90.343,90.343,0,0,0-4.128-25.093,16.673,16.673,0,0,1-.944-6.39c.2-3.233,1.782-5.516,4.846-6.215a48.9,48.9,0,0,1,10.949-1.675c14.424.074,28.848.4,43.268.824a48,48,0,0,0,14.272-1.509c3.158-.866,6.343-1.633,9.522-2.423a12.823,12.823,0,0,1,3.2-.655c6.12.1,12.164-.848,18.223-1.212a169.016,169.016,0,0,0,27.813-3.95,18.531,18.531,0,0,1,3.875-.649c6.179-.051,12.125-1.438,18.066-2.911a16.278,16.278,0,0,1,2.574-.453c15.9-1.31,31.611-4.065,47.4-6.194,8.007-1.082,15.968-2.524,23.987-3.532,4.538-.57,9.158-.483,13.724-.889,5.874-.519,11.722-1.347,17.6-1.835,5.436-.456,10.894-.887,16.346-.9,22.081-.065,44.161.136,66.243.009,6.418-.036,11.859,2.388,17.292,5.24a4.242,4.242,0,0,1,2.254,3.721c.22,2.311.4,4.629.714,8.276,1.676-2.722,2.471-4.463,3.683-5.839,1.034-1.18,2.34-.929,3.27.848a37.119,37.119,0,0,1-5.605,12.508c1.412.131,2.382.222,3.7.343-.81,4.256-5.116,7.718-3.236,12.606,3.193-1.064,1.388-3.9,2.462-6.008l3.81-1.073c.6,1.78,1.556,3.339,1.556,4.9a10.628,10.628,0,0,1-2.585,7.275c-2.634,2.849-3.224,6.6-4.884,9.86-.815,1.6-.253,2.933,1.246,4.291,1.325-2.185,2.606-4.294,4.029-6.642.868,3.291.608,4.608-.938,8.114-1.014,2.292-3.312,4.092-3.022,7.247,2.094-.139,2.345-1.824,3.152-2.889.75-.988,1.485-1.984,2.164-2.892,1.566.637,1.193,1.451.859,2.244-1.875,4.421-3.775,8.831-5.629,13.261-.551,1.32-1.421,2.693.172,4.513,1.138-1.531,2.136-2.85,3.111-4.187q1.74-2.383,3.445-4.789a23.267,23.267,0,0,1,3.187-3.933c-.232,2.856-1.486,5.306-2.716,7.788-1.645,3.325-3.271,6.666-4.72,10.079a17.191,17.191,0,0,0-1.35,9.744c3.146-2.965,5.367-6.485,7.544-11.746,1.859,2.146,1.3,4.569.445,6.769-1.8,4.614-2.965,9.6-7.031,13.03-1.234,1.043-1.746,2.413-.158,4.108,3.767-3.632,5.605-8.739,9.318-12.321,2.038,1.8.625,3.212.336,4.525-.585,2.672-2.636,5.192-.593,8.048q-.853,2.8-1.711,5.589c-.484,1.568-1.906,2.938-.623,4.851.333.5-.113,1.67-.438,2.431-1.7,4-3.526,7.951-5.2,11.963a15.922,15.922,0,0,0-.6,3.253c2.729.048,2.735-3.241,5.018-3.472-1,3.493-1.885,6.8-2.936,10.043-.246.754-1.073,1.32-1.587,1.989.045.419.02.822.06,1.219.017.143.192.269.293.4.149-.3.492-.7.4-.871C16.412,518.946,15.991,518.745,15.671,518.49ZM-345.662,410.009c-.161,1.6-.311,2.882-.415,4.16-.631,7.715,1.925,15.114,2.259,22.742.143,3.25.77,6.48.929,9.732.226,4.582-.281,9.254.418,13.748a240.555,240.555,0,0,1,2.731,39.2,29.548,29.548,0,0,0,.324,5.877c1.388,7.137,1.453,14.335,1.358,21.561a57.447,57.447,0,0,0,.308,8.5c1.189,8.661,2.654,17.28,3.867,25.936a160.235,160.235,0,0,1,1.872,16.924,86.919,86.919,0,0,0,1.642,15.618c2.41,11.123,3.191,22.457,4.6,33.7,1.141,9.088,1.711,18.243,2.628,27.361.282,2.818.934,5.6,1.3,8.411a81.556,81.556,0,0,1,1,9.733c.11,12.682.017,25.366.042,38.047a33.315,33.315,0,0,0,.4,6.524c1.613,7.914,1.85,15.983,2.488,23.972.676,8.472.172,17.045.053,25.57a38.24,38.24,0,0,1-.884,6.429c-.978,5.181-.671,10.332-.134,15.862,2.2.158,4.113.4,6.025.416,8.31.044,16.629.258,24.927-.059,5.583-.213,10.946,1.012,16.1,2.417A251.15,251.15,0,0,1-245.2,801.58a42.348,42.348,0,0,0,15.892,3.191c8.356-.073,16.517,1.412,24.77,1.974,7.775.528,15.461,2.518,23.291,3.316,3.9.4,7.76,1.074,11.711,1.1a37.356,37.356,0,0,1,8.46.7,43.805,43.805,0,0,0,10.4.981c4.374.006,8.747.051,13.119.01a30.605,30.605,0,0,0,5.211-.367c5.78-1.073,11.538-2.257,17.3-3.434,7.675-1.571,15.518-2.47,22.8-5.664a5.066,5.066,0,0,1,1.9-.471c3.875-.053,7.138-1.889,10.465-3.529,5.638-2.778,10.521-6.865,16.538-9.075,3.852-1.415,7.358-3.789,10.978-5.8a14.956,14.956,0,0,0,3.718-2.556c4.353-4.674,9.815-7.856,15.132-11.155a48.941,48.941,0,0,0,8.246-6.382q3.544-3.408,6.957-6.958a22.1,22.1,0,0,1,7.868-5.741A10.961,10.961,0,0,0-6.781,749.1c3.817-3.884,7.536-7.864,11.26-11.84,1.6-1.7,3.757-1.435,4.756.677a8.464,8.464,0,0,1,.484,1.213c1.172,3.965,2.674,7.875,3.407,11.921.887,4.891,3.618,8.323,7.333,11.188.708.545,1.842.534,2.862.806a13.825,13.825,0,0,0,.507-2.311c.1-5.463.127-10.931.241-16.395.115-5.42-.932-10.83-.032-16.265a10.237,10.237,0,0,0-.4-3.232c-1.593-9.261-2.695-18.555-2.179-27.988.155-2.837.066-5.687.024-8.526a17.03,17.03,0,0,0-.335-4.558c-1.6-5.344-1.362-10.8-1.442-16.266-.041-2.835-.438-5.664-.652-8.5-.3-3.915-.673-7.825-.837-11.745-.5-11.761,1.163-23.605-1.412-35.283a2.565,2.565,0,0,1-.03-.655,126.312,126.312,0,0,0-1.255-20.262c-.486-3.887-.326-7.84-1.418-11.678a16.2,16.2,0,0,1-.382-4.555c.06-5.91.11-11.808-1.531-17.572a10.057,10.057,0,0,1-.2-1.952c-.677-8.7-1.094-17.428-2.1-26.087a180.693,180.693,0,0,1-1-20.944,27.118,27.118,0,0,0-.364-6.527c-1.2-4.742-1.145-9.528-1.138-14.335.011-6.562.039-13.122,0-19.682-.012-1.96-.216-3.92-.379-5.875-.359-4.344-.935-8.679-1.08-13.03-.217-6.539.346-13.1-1.3-19.565A21.645,21.645,0,0,1,4.4,424.05c0-4.591.059-9.186.063-13.775,0-1.527.253-3.175-.217-4.558-1.522-4.49-1.1-9.074-1.091-13.652,0-2.385,0-4.769,0-7.422-4.757-2.732-9.457-4.51-14.905-4.469-22.084.157-44.173.029-66.255.3-7.852.1-15.708.877-23.531,1.637-6.734.653-13.391,1.972-20.219,1.737a44.851,44.851,0,0,0-7.81.812c-7.352,1.062-14.69,2.242-22.045,3.276q-22.071,3.107-44.155,6.1c-5.412.736-10.826,1.646-16.266,1.945a76.045,76.045,0,0,0-13.59,1.922c-4.246,1.014-8.528,2.426-12.82,2.533-5.539.142-10.823,1.317-16.185,2.278a40.179,40.179,0,0,1-4.505.818c-7.188.448-14.389.7-21.571,1.228a37.4,37.4,0,0,0-9.008,1.533,24.767,24.767,0,0,1-7.686,1.254c-12.027.157-24.05.349-36.077.468A32.541,32.541,0,0,0-345.662,410.009ZM-92.688,811.25c5.678,0,9.822.1,13.959-.045a29.292,29.292,0,0,0,5.8-.984q21-5.144,41.975-10.385c1.261-.315,2.793-.487,3.657-1.3,3.653-3.448,8.289-4.576,12.884-5.66a31.7,31.7,0,0,0,14.485-7.18,20.1,20.1,0,0,1,3.811-2.514c6.239-3.46,10.673-8.849,15.594-14.092A33.3,33.3,0,0,1,9.069,758.005c-2.4-4.377-2-9.608-4.24-14.474-3.511,2.577-5.919,5.7-8.789,8.323-1.281,1.171-2.477,2.826-4,3.265-3.844,1.109-6.257,3.887-8.869,6.5-2.782,2.782-5.607,5.531-8.215,8.472-3.638,4.1-8.979,6.243-12.194,10.806a1.7,1.7,0,0,1-1.157.548c-2.695.186-4.16,2.2-5.86,3.861a21.445,21.445,0,0,1-6.832,4.875c-3.57,1.491-6.728,3.973-10.064,6.025a9.4,9.4,0,0,1-2.233,1.307c-3.245.869-5.779,2.978-8.615,4.587-5.67,3.215-11.278,6.756-18.1,7.181C-90.58,809.3-91.024,809.95-92.688,811.25ZM14.81,499.31c.441.116.883.229,1.325.346.952-1.649,1.936-3.28,2.829-4.959.131-.249-.167-.729-.327-1.328-1.5.7-2.96,1.379-4.617,2.156C14.312,496.929,14.559,498.121,14.81,499.31Zm-30,303.166c.065-.172.13-.343.195-.518-.154-.039-.383-.157-.447-.1a.638.638,0,0,0-.14.477C-15.582,802.391-15.332,802.431-15.194,802.476Z" transform="translate(353.304 -374.84)" fill-rule="evenodd"/>
      <path id="Path_1101" data-name="Path 1101" d="M-96.878,550.948c-.521,3.3-.994,6.618-1.611,9.9-.091.478-1.021,1.252-1.287,1.153-.694-.26-1.607-.828-1.774-1.452a7.549,7.549,0,0,1,1.328-7.274c.819-.963,1.569-1.986,2.354-2.981C-97.541,550.515-97.209,550.733-96.878,550.948Z" transform="translate(481.206 -285.567)" fill-rule="evenodd"/>
      <path id="Path_1102" data-name="Path 1102" d="M-97.879,590.268c-2.253-4.475-1.284-7.2,3.132-10.379C-95.768,583.267-96.676,586.282-97.879,590.268Z" transform="translate(482.67 -270.511)" fill-rule="evenodd"/>
      <path id="Path_1103" data-name="Path 1103" d="M-180.574,686.918c1.664-1.3,2.108-1.945,2.589-1.975,6.821-.424,12.43-3.965,18.1-7.18,2.837-1.608,5.37-3.718,8.615-4.587a9.392,9.392,0,0,0,2.233-1.307c3.336-2.052,6.494-4.534,10.064-6.025a21.445,21.445,0,0,0,6.832-4.875c1.7-1.661,3.165-3.675,5.86-3.861a1.7,1.7,0,0,0,1.157-.548c3.215-4.562,8.556-6.707,12.194-10.806,2.609-2.941,5.433-5.69,8.215-8.472,2.612-2.609,5.024-5.386,8.869-6.5,1.522-.439,2.719-2.094,4-3.265,2.87-2.618,5.278-5.745,8.789-8.323,2.239,4.866,1.836,10.1,4.24,14.474a33.3,33.3,0,0,0,10.411,11.082C-73.327,650-77.761,655.389-84,658.848a20.1,20.1,0,0,0-3.811,2.514,31.7,31.7,0,0,1-14.485,7.181c-4.594,1.083-9.231,2.212-12.884,5.659-.865.815-2.4.987-3.657,1.3q-20.978,5.228-41.975,10.385a29.283,29.283,0,0,1-5.8.984C-170.752,687.021-174.9,686.918-180.574,686.918Z" transform="translate(441.19 -250.509)" fill="#d6d0c0" fill-rule="evenodd"/>
      <g id="Group_703" data-name="Group 703" transform="translate(62.593 82.983)">
        <path id="Path_1104" data-name="Path 1104" d="M-260.059,469.578c-.346-1.384-1.141-2.707-1.221-4.1a70.462,70.462,0,0,0-1.741-13.288c-1.282-5.092-1.385-10.461-2.02-15.7-.483-3.983-3.594-6.771-8.04-6.648-10.219.285-20.437.788-30.653,1.233a10.613,10.613,0,0,0-7.991,3.678c.029,2.548.069,4.771.075,7,.017,4.7-.478,9.472.149,14.088.661,4.873,1.379,9.687,1.058,14.632a64.771,64.771,0,0,0,.069,6.759,8.527,8.527,0,0,0,3.3,6.737c10.417.163,21.04-1.2,31.68-1.732,4.923-.247,9.819-1.542,14.77-2.366C-258.668,476.342-259.216,472.957-260.059,469.578Zm-6.382,6.56c-5.522.917-29.257,1.845-36.926,1.467-1.919-6.589-.362-13.643-1.955-20.426-1.527-6.514-1.418-13.382-2.034-20.138,3.927-1.983,7.846-.874,11.6-1.2,4.078-.349,8.185-.428,12.276-.454,3.81-.021,7.681-.849,11.4.113a6.612,6.612,0,0,1,.938,1.771q2.7,18.4,5.275,36.81C-265.79,474.628-266.179,475.242-266.441,476.138Z" transform="translate(311.819 -429.839)" fill-rule="evenodd"/>
        <path id="Path_1105" data-name="Path 1105" d="M-258.944,487.748c1.361,2.523,1.177,5.444,1.4,8.22.684,8.7,1.15,17.415,1.7,26.123.042.655.092,1.307.1,1.963.023,5.37-1.7,7.779-7.067,9.884a12.038,12.038,0,0,1-3.179,1.12c-10.212.777-20.429,1.595-30.648,2.094-3.912.192-4.876-1.527-6.115-5.373-2.171-6.752-1.961-13.682-2.066-20.639-.039-2.6-.708-5.162-.9-7.758-.249-3.451-.581-6.853,1.973-10.028,1.079-1.343,2.075-2.352,3.706-2.577,3.156-.437,6.329-.768,9.5-1.074a36.855,36.855,0,0,0,9.355-1.694C-276.62,486.341-263.62,486.485-258.944,487.748Zm-4.181,3.929c-5.51.379-10.687-.1-15.336,1.266-5.616,1.651-11.188,1.871-16.819,2.4a33.085,33.085,0,0,0-4.062.444,2.722,2.722,0,0,0-2.351,2.834,12.891,12.891,0,0,0,.338,3.241c1.968,6.954,2.523,14.118,2.917,21.312a14.509,14.509,0,0,0,2.455,7,6.614,6.614,0,0,0,1.631.422q12.262-.713,24.52-1.479a10.862,10.862,0,0,0,7.543-3.525C-262.558,514.651-262.831,503.546-263.125,491.677Z" transform="translate(314.834 -400.868)" fill-rule="evenodd"/>
        <path id="Path_1106" data-name="Path 1106" d="M-251.55,583.638a45.187,45.187,0,0,1-14.969,3.414c-6.083.3-12.273.075-18.177,2.287a2.613,2.613,0,0,1-.674.084c-10.965,1-10.967.807-11.284-8.922q-.471-14.385-1.086-28.758c-.063-1.494-.368-2.971-.575-4.582.7-1.016,1.45-2.123,2.152-3.149.552-.146,1.1-.474,1.381-.335a8.849,8.849,0,0,0,5.23.675c4.744-.558,9.515-.8,14.26-1.331a56.524,56.524,0,0,0,8.009-1.471,39.522,39.522,0,0,1,11.041-1.067,25.484,25.484,0,0,1,2.657,9.932c.3,6.969.668,13.932,1.02,20.9.184,3.678.071,7.4,1.48,10.9C-250.964,582.527-251.338,583.031-251.55,583.638Zm-10.145-37.486c-9.579,3.911-19.628,2.643-29.233,3.614-.38.783-.741,1.178-.727,1.547q.554,14.989,1.2,29.966a7.781,7.781,0,0,0,.662,1.943c9.463,1.221,18.926-.1,28.379-.7a6.06,6.06,0,0,0,1.967-.5c2-.855,3.558-2.075,3.369-4.433-.294-3.672-.511-7.357-.961-11.007-.51-4.084-1.391-8.116-1.821-12.206A16.925,16.925,0,0,0-261.695,546.151Z" transform="translate(318.691 -373.549)" fill-rule="evenodd"/>
        <path id="Path_1107" data-name="Path 1107" d="M-85.287,500.673c-.213,1.227-.1,2.164-.525,2.708-1.667,2.127-4.08,2.671-6.683,2.746-5.445.149-10.894.358-16.34.551a86.367,86.367,0,0,0-8.709,1.086c-7.366,1.011-14.66,3.561-22.228,2.269a9.843,9.843,0,0,0-6.645.807,2.683,2.683,0,0,1-1.3.376c-6.13-.219-12.1,1.282-18.137,2.011-4.932.6-9.875.358-14.761,2.115-2.672.964-5.836.611-8.781.742-3.178.14-6.367.287-9.53.166a16.04,16.04,0,0,1-5.868-1.088,9.183,9.183,0,0,0-7.82-.065,30.415,30.415,0,0,1-15.354,2.179c-1.559-.181-3.193.151-4.757-.008a11.817,11.817,0,0,0-9.946,3.36c-2.375,2.358-5.2,2.441-8.2,2.5-3.506.071-5.328-1.91-6.485-4.647-.214-.505.472-1.391.863-2.41a9.753,9.753,0,0,1,1.978,1.222,6.313,6.313,0,0,0,8.573,1.193c4.926-3.093,10.126-3.614,15.645-3.6,5.444.008,10.847-.584,15.956-2.917a17.767,17.767,0,0,1,9.361-1.168c9.453.957,18.893,1.127,28.35-.883a31.388,31.388,0,0,1,5.43-.329c3.831-.124,7.718.368,11.378-1.439a2.851,2.851,0,0,1,1.34-.18c9.143.511,17.861-2.885,26.917-3.443,4.9-.3,9.748-1.847,14.623-2.811a15.822,15.822,0,0,1,2.7-.374C-104.749,501.106-95.262,500.9-85.287,500.673Z" transform="translate(339.513 -393.799)" fill-rule="evenodd"/>
        <path id="Path_1108" data-name="Path 1108" d="M-76.211,603.125a21.627,21.627,0,0,1-4.308,1.076c-6.83.088-13.6.518-20.251,2.485-1.494.441-3.158.26-4.733.468a15.415,15.415,0,0,0-3.973.8c-7.123,3.033-14.46,3.448-21.973,2.745a41.234,41.234,0,0,0-6.759.291c-6.109.456-12.212,1.113-18.321,1.4-9.374.439-18.533,1.714-27.166,5.794-6.023,2.846-15.778,3.973-21.9,2.265a21.919,21.919,0,0,0-10.065-.122c-4.025.732-8.1,1.165-12.128,1.888-2.894.522-5.739,1.335-8.618,1.963a41.4,41.4,0,0,1-6.618,1.224,6.128,6.128,0,0,1-3.656-1.32,3.362,3.362,0,0,1-1.142-2.722,1.882,1.882,0,0,1,2.708-1.2c3.152,1.412,6.132.635,9.241-.37a37.988,37.988,0,0,1,6.028-1.195c4.947-.751,9.893-1.556,14.863-2.1a36.17,36.17,0,0,1,8.793-.155c7.8,1.1,15.31.511,22.523-3.076,3.3-1.642,6.858-2.29,10.411-3.164,12.758-3.15,25.813-2.117,38.647-4.039a23.739,23.739,0,0,1,6.067.275c5.9.664,11.734.857,17.259-2.127a4.664,4.664,0,0,1,1.254-.542c9.371-1.821,18.684-4.24,28.3-3.713a11.551,11.551,0,0,1,3.869.883C-77.227,601.1-76.94,602.06-76.211,603.125Z" transform="translate(344.374 -343.323)" fill-rule="evenodd"/>
        <path id="Path_1109" data-name="Path 1109" d="M-290.93,598.277c4.268-.566,7.867-1.094,11.474-1.5a89.781,89.781,0,0,0,9.984-1.927c4.819-1.1,9.893-1.094,14.862-1.338,1.875-.091,2.981,1.2,3.23,3.5.377,3.46.536,6.945.75,10.421a63.914,63.914,0,0,0,1.506,9.585c.99,4.611.863,9.492.973,14.269.045,1.892-1.4,3.221-3.516,3.445-3.841.4-7.7.567-11.554.842a47.073,47.073,0,0,0-11.413,1.785,49.192,49.192,0,0,1-9.386,1.521,4.361,4.361,0,0,1-4.492-3.891c-.406-2.793-.735-5.6-1.031-8.4-.683-6.486-1.394-12.965-1.951-19.464A28.805,28.805,0,0,1-290.93,598.277Zm36.748,31.474c.729-4.329.942-7.926-.267-11.087-1.53-4-1.421-8.069-1.711-12.167-.178-2.55.4-5.246-1.287-7.947-3.256.223-6.874-.25-9.94.839-5.328,1.894-10.688,1.791-16.082,2.2-1.539.115-3.073.367-4.721.569.056,1.358-.281,2.642.208,3.442,2.381,3.9,2.367,8.265,2.548,12.592.208,5.006,1.8,9.676,2.827,14.723,2.316-.16,4.46.13,6.269-.516,4.4-1.568,8.9-1.709,13.416-2.049C-260.22,630.149-257.516,629.977-254.181,629.751Z" transform="translate(322.102 -346.564)" fill-rule="evenodd"/>
        <path id="Path_1110" data-name="Path 1110" d="M-98.171,442.96c-2.815.7-5.208,1.376-7.635,1.877-3.761.775-7.7.588-11.242,2.609-1.094.625-2.655.531-4.01.628-5.9.415-11.8.859-17.7,1.124a26.322,26.322,0,0,1-6.725-.454c-3.239-.7-6.287-.655-9.18,1.12-5.863,3.6-12.306,4.283-18.954,4.409-3.823.069-7.7.131-11.3,2.081a10.118,10.118,0,0,1-4.007.662c-9.075.62-18.151,1.227-27.231,1.762a23.943,23.943,0,0,1-9.954-1.2c-6.545-2.4-13.308-1.436-19.965.619-2.613.807-5.2,1.728-7.846,2.381a8.062,8.062,0,0,1-4,.072,3.188,3.188,0,0,1-1.942-2.232,3.258,3.258,0,0,1,1.456-2.616,7.47,7.47,0,0,1,3.926-.629c3.65.356,7.194-.279,10.814-.706,6.046-.7,12.178-1.56,18.193.1a26.431,26.431,0,0,0,9.406.51c7.478-.659,14.969-1.126,22.453-1.708,3.384-.263,6.753-.32,9.991-1.889,1.551-.751,3.549-.656,5.352-.828,2.491-.241,4.988-.394,7.485-.549a21.836,21.836,0,0,0,10.986-3.208,20.225,20.225,0,0,1,15.645-2.948,15.8,15.8,0,0,0,4.726.26c8.347-.855,16.728-.709,25.069-2.592,4.526-1.028,9.465-.149,14.211-.029C-99.612,441.6-99.112,442.281-98.171,442.96Z" transform="translate(338.252 -424.101)" fill-rule="evenodd"/>
        <path id="Path_1111" data-name="Path 1111" d="M-230.351,564c-.789,1.133-1.488,2.3-2.357,3.334-.563.673-1.344,1.595-2.078,1.66-4.511.4-8.562,3.108-13.194,2.746-3.147-.243-4.238-1.207-4.818-4.256a20.576,20.576,0,0,1-.385-2.569,6.163,6.163,0,0,1,.486-1.622c.76.291,1.786.361,2.129.869,1.719,2.542,4.11,3.025,7.046,2.426,1.56-.318,3.188-.312,4.716-.72a7.891,7.891,0,0,0,3.585-1.663c4.353-4.54,9.839-4.555,15.171-3.608a32,32,0,0,0,7.992.588q4.427-.315,8.849-.628c4.309-.3,8.7-.186,12.906-1.05a54.328,54.328,0,0,0,11.45-4.1,18.4,18.4,0,0,1,12.549-.978,41.075,41.075,0,0,0,14.1.874c6.108-.644,12.248-.843,18.371-1.323,3.816-.3,7.681-.094,11.268-2.209,1.243-.735,3.1-.51,4.682-.655,3.374-.306,6.788-.158,9.958-1.894a8.079,8.079,0,0,1,3.347-.454,41.548,41.548,0,0,0,7.947-1.456c3.9-.952,8.072-.747,12.134-.908.379-.017.893.815,1.1,1.346.1.269-.27.818-.56,1.117a2.033,2.033,0,0,1-1.147.673c-5.436.344-10.675,1.823-15.984,2.921-2.212.457-4.463.45-6.58,1.569a10.219,10.219,0,0,1-3.956.816c-4.08.275-8.152.4-12.048,2.032a10.746,10.746,0,0,1-3.369.377c-9.756.659-19.515,1.248-29.266,1.99-3.223.243-6.384.3-9.26-1.091-6.275-3.028-12.058-.546-17.335,2.48a18.363,18.363,0,0,1-8.291,2.508c-7.26.495-14.519,1.082-21.783,1.415-2.91.136-5.829-.33-8.748-.441C-224.191,564.02-226.67,564.041-230.351,564Z" transform="translate(341.653 -370.533)" fill-rule="evenodd"/>
      </g>
    </g>
    <path id="Path_1112" data-name="Path 1112" d="M-302.053,451.1c-2.837.288-4.771.591-6.713.649a2.433,2.433,0,0,1-2.17-3.262c.572-2.173,2.315-3.076,4.084-3.93,3.476-1.673,6.7-1.4,9.635,1.311a14.415,14.415,0,0,1,4.522,7.751,37.207,37.207,0,0,0,4.472,11.447c2.636-.006,2.974-2.484,4.4-3.642a15.971,15.971,0,0,0,3.511-3.847c5.471-8.817,13.009-15.784,20.28-23,3.09-3.069,6-6.319,9.021-9.463,2.413-2.518,4.824-5.041,7.306-7.487.952-.938,2.137-1.578,3.514-.735,1.192.733,1.411,2.189.483,4.066a36.9,36.9,0,0,1-3.147,5.724c-2.983,4.016-6.07,7.969-9.332,11.761-2.413,2.806-5.1,5.385-7.784,7.941a108.893,108.893,0,0,0-12.663,14.937,119.141,119.141,0,0,1-11.011,12.838c-3.372,3.455-7.259,2.874-9.747-1.285a60.025,60.025,0,0,1-7.141-17.439A41,41,0,0,0-302.053,451.1Z" transform="translate(21.507 21.196)" fill="#009cb2" fill-rule="evenodd"/>
    <path id="Path_1113" data-name="Path 1113" d="M-296.321,504.123c-2.837.287-4.771.591-6.713.646a2.428,2.428,0,0,1-2.168-3.259c.57-2.173,2.313-3.078,4.083-3.93,3.476-1.675,6.7-1.4,9.635,1.313a14.394,14.394,0,0,1,4.522,7.749,37.222,37.222,0,0,0,4.472,11.447c2.636,0,2.974-2.484,4.4-3.641a16.1,16.1,0,0,0,3.513-3.849c5.469-8.817,13.007-15.784,20.277-23,3.092-3.072,6.005-6.319,9.023-9.466,2.413-2.517,4.824-5.041,7.306-7.487.952-.938,2.136-1.577,3.514-.733,1.192.732,1.411,2.189.483,4.066a37.007,37.007,0,0,1-3.147,5.723c-2.984,4.016-6.07,7.97-9.332,11.763-2.414,2.8-5.1,5.383-7.784,7.939A109.27,109.27,0,0,0-266.9,514.339a119.028,119.028,0,0,1-11.011,12.841c-3.372,3.454-7.259,2.873-9.747-1.289a59.927,59.927,0,0,1-7.14-17.436A41.293,41.293,0,0,0-296.321,504.123Z" transform="translate(24.423 48.172)" fill="#009cb2" fill-rule="evenodd"/>
  </g>
  <g id="Group_776" data-name="Group 776" transform="matrix(0.864299, 0, 0, 0.7107, 1609.801392, -3270.633545)" style="">
    <g id="Group_701" data-name="Group 701" transform="matrix(0.449134, 0, 0, 0.505369, 1508.140747, 4148.679199)" style="">
      <path id="Path_1095" data-name="Path 1095" d="M1034.1,1014.164c-25.817-100.769-4.344-207.185-23.978-309.064-1.068-5.539-8.881-3.978-9.324.944a4.858,4.858,0,0,0-3.743-.894c-129.889,19.831-262.457,7.3-393,1.218,19.465-18.4,41.62-33.707,61.027-52.15a5.173,5.173,0,0,0,.9-1.179c28.858.512,57.75,1.792,86.666,3.076q8.325,13.627,16.7,27.235c3.223,5.242,11.583.567,8.337-4.706q-6.77-11-13.521-22.024c22.637,1,45.281,1.931,67.911,2.451q-4.1,9.51-8.09,19.033c-2.39,5.7,6.834,8.3,9.189,2.687q4.521-10.771,9.181-21.511c31.452.536,62.888.158,94.255-2.1a4.95,4.95,0,0,0,4.606-4.406c24.341,8.233,41.551,26.572,57.411,46.041,3.9,4.795,10.742-1.908,6.868-6.66-17.164-21.072-35.969-40.217-62.38-48.854-3.426-1.114-5.739,1.534-5.932,4.317a3.846,3.846,0,0,0-.424-.012c-30.037,2.178-60.125,2.61-90.231,2.178,6.568-14.824,13.429-29.517,20.813-43.9a5.532,5.532,0,0,0,.228-.562l.235-.1c.443.173.883.339,1.314.5,2.532.921,5.142-.914,5.94-3.257,1.688-4.976,6.514-21.511-2.81-22.991a8.056,8.056,0,0,0-2.208-.035c-1.985-2.922-7.408-3.288-8.661,1.133-1.28,4.494-4.371,8.807-4.286,13.606a8.968,8.968,0,0,0,2.5,6.071,5.352,5.352,0,0,0-.443.682c-8.175,15.934-15.734,32.238-22.953,48.673-26.01-.543-52.034-1.665-78.044-2.817C748.974,631.712,739.87,616.6,731,601.347a4.388,4.388,0,0,0-3.426-2.3c.3-2.008-.274-4.359-.574-6.209-.154-.968-.316-2.262-.532-3.662.027-.065.042-.146.073-.219,5.223-1.792,2.8-10.322-3.01-9.07-.408.089-.821.147-1.229.2a5.155,5.155,0,0,0-1.758-.517,5.083,5.083,0,0,0-1.037-.054h-.085a5.815,5.815,0,0,0-.81.081,3.662,3.662,0,0,0-1.287.509l-.1,0a14.41,14.41,0,0,0-6.618.794c-5.9,2.436-4.251,10.387-2.956,15.425-.278,3.037,2.417,5.631,5.917,6.375a52.89,52.89,0,0,0,7.632.856,5.461,5.461,0,0,0,.809.127,4.7,4.7,0,0,0,.659,2.375q11.766,20.236,23.967,40.213c-27.567-1.222-55.118-2.394-82.623-2.849a4.367,4.367,0,0,0-4.429,3.107,5.322,5.322,0,0,0-1.168.821c-19.677,18.694-42.179,34.15-61.833,52.9a4.351,4.351,0,0,0-.67,5.789c-5.731.143-5.778,9.108.081,9.532a4.93,4.93,0,0,0-.933,3.662c10.01,76.938,2,154.291,7.921,231.333,2.259,29.478,5.1,65.787,37.947,75.924,10.021,3.087,20.744,4.236,31.463,4.845-.659,4.055-1.341,8.106-2.093,12.137a4.221,4.221,0,0,0-.3.821c-1.052,4.271-1.8,8.6-2.559,12.924-1.422,6.082-3.076,12.115-5.1,18.069-1.85,5.45,5.662,7.971,8.692,3.82.59-.813,1.125-1.657,1.673-2.494a4.142,4.142,0,0,0,3.681-3.357c.52-1.981,1.01-3.959,1.5-5.944.073-.162.154-.32.231-.486.143-.281.27-.574.4-.859.039-.085.077-.166.112-.243a58.626,58.626,0,0,0,5.373-21.03c.894-3.981,1.719-7.979,2.571-11.968a4.952,4.952,0,0,0,.1-.771c2.694.1,5.373.2,8.013.332,16.554.825,33.113,1.411,49.66,2.42,42.768,2.59,85.494,5.762,128.324,7.188,30.716,1.025,61.667,1.426,92.317-1.3a4.674,4.674,0,0,0-.64,3.566c2.289,11.463,6.911,21.954,11.948,32.438a4.156,4.156,0,0,0,2.22,2.147l.135.281c2.093,4.352,8.981,2.336,8.954-2.278,0-.254-.016-.5-.019-.759a4.35,4.35,0,0,0,2.335-5.261c-2.528-7.975-5.315-15.672-9.7-22.833a4.616,4.616,0,0,0-2.725-2.112l-.077-.146c-.22-.439-.678-1.931-1.044-2.756a3.976,3.976,0,0,0-1.55-3.2c16.971-1.708,39.288-4.309,50.728-17.41a4.837,4.837,0,0,0,1.237-2.937C1029.951,1021.287,1035.3,1018.824,1034.1,1014.164Zm-15.2,1.245c-7.774,8.9-22.043,11.093-33.021,13.051-19.191,3.423-38.91,4.074-58.355,4.44-45.648.871-91.345-1.9-136.877-4.795-36.5-2.328-72.987-4.113-109.5-6.1-15.533-.844-33.529-.817-47.367-8.919-13.1-7.682-16.3-24.915-18.574-38.617-6.668-40.313-4.163-82.322-4.221-123.013-.069-44.977-.844-89.969-6.656-134.626a4.678,4.678,0,0,0-.2-.879c131.4,6.1,264.584,18.424,395.333-1.542a4.232,4.232,0,0,0,2.432-1.164c17.668,99.482-2.128,202.988,22.479,301.383A3.955,3.955,0,0,0,1018.9,1015.409Z" transform="translate(0)" fill="#323f51"/>
      <path id="Path_1096" data-name="Path 1096" d="M879.2,839.974c-9.443-23.034-7.855-51.637-8.507-76.012-.52-19.5-.621-38.579.011-58.062.656-20-.285-48.97-11.871-66.415a4.561,4.561,0,0,0-4.024-5.092c-7.146-7.578-17.356-11.532-31.849-9.123-6.479-.613-13.1-.54-19.1-.578-29.44-.2-58.645-4.795-88.131-3.411-9.108.424-18.181,1.2-27.239,2.031-27.362-.686-54.667.378-81.852,5-4.733.809-4.29,6.591-1.014,8.63q1.226,6.435,2.182,12.893a20.74,20.74,0,0,0,.671,4.78c8.873,65.49.143,133.119,15.317,197.626a4.552,4.552,0,0,0,1.087,2.089c.05.069.119.119.173.189.1.1.2.2.312.289a4.37,4.37,0,0,0,2.991,1.017c75.3-1.006,150.471,4.024,225.717,5.774a18.292,18.292,0,0,0,18.763,1.2C881.513,857.892,882.655,848.426,879.2,839.974Z" transform="translate(32.875 124.985)" fill="#323f51"/>
      <path id="Path_1097" data-name="Path 1097" d="M733.136,641.312c3.261-3.758-1.172-9.089-5.23-7.62-13-14.916-33.826-8.888-45.4,6.892-12.581,17.156-5.951,44.449,14.092,52.5,15.456,6.206,32.554-6.4,40-19.118C743.743,661.748,741.442,649.707,733.136,641.312Zm-45.2,8.942c5.011-11.112,17.869-19.141,27.833-14.188a5.169,5.169,0,0,0,2.528,6.468c-9.72,9.694-19.041,19.719-26.977,30.993a4.05,4.05,0,0,0-.605,3.9C685.434,669.692,684.578,657.7,687.939,650.255ZM702.867,684.8a15.267,15.267,0,0,1-10.542-5.327,4.97,4.97,0,0,0,7.188-.983c7.871-11.189,17.245-21.018,26.938-30.581C739.045,661.359,722.1,686.124,702.867,684.8Z" transform="translate(241.204 136.716)" fill="#323f51"/>
      <path id="Path_1098" data-name="Path 1098" d="M731.3,660.9a5.444,5.444,0,0,0-5.13-3.924c-12.191-10.611-28.677-9.782-39.8,3.55-11.143,13.355-11.082,32.342,2.918,43.4,15.182,11.991,36.162,5.593,47.108-8.472C746.184,682.883,742.542,668.614,731.3,660.9Zm-38.374,6.684c6.472-9.339,16.065-10.392,24.1-5.423a6.077,6.077,0,0,0,.189.771,181.122,181.122,0,0,0-26.877,28.665C685.817,684.509,688.044,674.63,692.928,667.581ZM728.207,690.5c-7.069,10.01-20.093,12.373-30.577,7.27a171.181,171.181,0,0,1,27.539-29.1,3.9,3.9,0,0,0,1.087.143C733.5,673.7,734.22,681.969,728.207,690.5Z" transform="translate(247.655 206.835)" fill="#323f51"/>
    </g>
  </g>
  <path id="Path_380" data-name="Path 380" d="M 3173.76 789.187 C 3170.832 790.85 3167.875 792.533 3165.105 796.533 C 3162.335 800.533 3159.714 807.056 3158.083 816.616 C 3157.311 821.11 3156.887 825.657 3156.814 830.216 C 3156.763 835.508 3179.67 828.485 3185.938 828.189" fill="none" stroke="#502831" stroke-linecap="round" stroke-linejoin="round" stroke-width="3"/>
  <path id="path-10" data-name="Path 380" d="M 3458.57 748.915 C 3442.643 750.578 3443.607 803.986 3448.049 807.986 C 3452.491 811.986 3497.678 805.052 3503.946 804.756" fill="none" stroke="#502831" stroke-linecap="round" stroke-linejoin="round" style="stroke-width: 2px;"/>
  <g id="g-2" data-name="Group 907" transform="matrix(1.180676, 0, 0, 1.25064, 2452.842041, 695.132141)" style="">
    <path id="path-5" data-name="Path 211" d="M-4852.995,7768.923h72.7a5.3,5.3,0,0,1,5.3,5.3,5.3,5.3,0,0,1-5.3,5.3h-72.7a5.3,5.3,0,0,1-5.3-5.3A5.3,5.3,0,0,1-4852.995,7768.923Z" transform="translate(4858.297 -7751.711)" fill="#903"/>
    <path id="path-6" data-name="Path 212" d="M-4833.6,7762.906a5.3,5.3,0,0,1,3.751,1.553l17.2,17.213a5.3,5.3,0,0,1,0,7.5l-17.2,17.215a5.3,5.3,0,0,1-7.5,0,5.3,5.3,0,0,1,0-7.493l13.459-13.472-13.459-13.466a5.3,5.3,0,0,1,0-7.5A5.288,5.288,0,0,1-4833.6,7762.906Z" transform="translate(4894.397 -7762.906)" fill="#903"/>
  </g>
</svg>
