<?xml version="1.0" encoding="utf-8"?>
<svg viewBox="800.978 286.875 163.375 167.405" xmlns="http://www.w3.org/2000/svg">
  <defs>
    <clipPath id="clip-Balance">
      <rect width="1166" height="1094"/>
    </clipPath>
  </defs>
  <g id="Balance" clip-path="url(#clip-Balance)" transform="matrix(1, 0, 0, 1, 377.731445, 71.078346)"/>
  <path id="Path_485" data-name="Path 485" d="M 887.406 294.867 L 887.406 294.867 C 926.978 294.867 959.057 329.093 959.057 371.314 C 959.057 413.532 946.874 434.154 878.152 447.759 L 878.152 447.759 C 838.58 447.759 806.498 371.314 806.498 371.314 C 806.498 371.314 847.834 294.867 887.406 294.867 Z" style="fill: rgb(39, 48, 62);"/>
  <g id="Group_1402" data-name="Group 1402" transform="matrix(1, 0, 0, 1, -421.042542, -307.068207)"/>
  <text style="fill: rgb(255, 255, 255); font-family: Arial, sans-serif; font-size: 21px; white-space: pre;" x="841.922" y="421.514" transform="matrix(1, 0, 0, 1, -9.536845, -44.747852)">Om<tspan x="841.9219970703125" dy="1em">​</tspan>Programmet</text>
  <text id="_" data-name="?" fill="#fff" font-size="67" font-family="Lato-Black, Lato" font-weight="800" letter-spacing="0.1em" style="white-space: pre;" x="853.937" y="356.759" transform="matrix(1.369788, 0, 0, 1.270696, -294.91095, -81.627831)"><tspan x="853.937" y="356.759" style="font-size: 67px; word-spacing: 0px; letter-spacing: 6.7px;">?</tspan></text>
</svg>