<svg xmlns:bx="https://boxy-svg.com" viewBox="659.443 332.862 218.736 151.181" xmlns="http://www.w3.org/2000/svg"><g data-name="Group 741"><g data-name="Group 679"><path bx:shape="pie 850.745 410.18 0 166.365 190.046 349.793 1@6fdde4f9" d="M821.723 573.994a166.365 166.365 0 0 1-.459-327.546l29.481 163.732Z" style="fill:#505e72" transform="matrix(-.0172 .83993 -.6126 -.01254 1032.13 -232.021)"/><g data-name="Group 677"><g data-name="Group 537"><path fill="#efdc74" d="M768.415 354.638h-.019a83.121 83.121 0 0 0-21.434 2.8c-.053.014-.11.028-.166.04a83.129 83.129 0 0 0-18.219 7.33l17.182 29.806a48.471 48.471 0 0 1 9.857-3.892l.226-.056a48.559 48.559 0 0 1 12.53-1.64h.012a48.057 48.057 0 0 1 22.314 5.468l17.223-29.79a82.347 82.347 0 0 0-39.509-10.066Z" data-name="Path 755"/><path fill="#7ed6ad" d="m811.086 366.515-17.22 29.782a48.137 48.137 0 0 1 20.848 27.257 16.689 16.689 0 0 0 15.992 12.1h.5a17.131 17.131 0 0 0 16.425-22.027 82.39 82.39 0 0 0-36.545-47.112Z" data-name="Path 754"/><path fill="#cc5858" d="M689.058 413.509a17.133 17.133 0 0 0 16.4 22.062h.127a17.088 17.088 0 0 0 16.361-12 48.136 48.136 0 0 1 20.651-27.136l-17.179-29.81a82.357 82.357 0 0 0-36.36 46.884Z" data-name="Path 756"/></g><g data-name="Group 536"><g data-name="Group 530"><g data-name="Group 527" opacity=".1" transform="translate(737.224 406.087)"><circle cx="29.659" cy="29.659" r="29.659" fill="#494d56" data-name="Ellipse 74"/></g><g data-name="Group 528" transform="translate(728.452 397.276)"><circle cx="28.451" cy="28.451" r="28.451" fill="#fff" data-name="Ellipse 75" transform="rotate(-45 48.568 20.117)"/></g><g data-name="Group 529" transform="translate(727.54 396.718)"><circle cx="28.451" cy="28.451" r="28.451" fill="#e7f0f7" data-name="Ellipse 76" transform="rotate(-45 48.568 20.117)"/></g></g><g data-name="Group 531"><path fill="#494d56" d="M772.54 423.912a35.83 35.83 0 0 0-3.887-2.138c-3.059-1.499-6.11-3.01-9.168-4.512l-17.466-8.58-30.41-14.934a.5.5 0 0 0-.594.788l27.445 30.399 11.843 13.118c4.284 4.745 8.313 11.008 16.099 10.418a13.7 13.7 0 0 0 9.35-4.422q.336-.382.643-.788a12.989 12.989 0 0 0 2.187-11.047 14.269 14.269 0 0 0-2.483-5.101 14.115 14.115 0 0 0-3.559-3.201Z" data-name="Path 757"/><path fill="#494d56" d="M770.733 426.306a35.838 35.838 0 0 0-3.887-2.138c-3.06-1.498-6.11-3.01-9.168-4.511l-17.466-8.58-30.41-14.935a.5.5 0 0 0-.594.788l27.445 30.4 11.843 13.117c4.283 4.746 8.313 11.009 16.099 10.418a13.7 13.7 0 0 0 9.35-4.421q.336-.382.643-.788a12.989 12.989 0 0 0 2.187-11.047 14.269 14.269 0 0 0-2.483-5.102 14.1 14.1 0 0 0-3.559-3.2Z" data-name="Path 758" opacity=".1"/><path fill="#fff" d="m776.36 443.308.035-.045a12.99 12.99 0 0 0 2.187-11.047 14.269 14.269 0 0 0-2.483-5.102 14.1 14.1 0 0 0-3.562-3.2 35.781 35.781 0 0 0-3.887-2.14c-3.059-1.497-6.11-3.009-9.167-4.51l-17.466-8.58c-8.741-4.293-24.46-12.013-30.408-14.937a.488.488 0 0 0-.651.199Z" data-name="Path 759" opacity=".1"/></g><g data-name="Group 535"><g data-name="Group 532" opacity=".1" transform="rotate(11 -1765.743 4099.371)"><circle cx="15.08" cy="15.08" r="15.08" fill="#494d56" data-name="Ellipse 77" transform="rotate(-45 25.744 10.664)"/></g><g data-name="Group 533" transform="rotate(11 -1811.66 4144.613)"><circle cx="14.466" cy="14.466" r="14.466" fill="#fff" data-name="Ellipse 78" transform="translate(0 .278)"/></g><g data-name="Group 534" transform="rotate(11 -1774.58 4110.428)"><circle cx="14.466" cy="14.466" r="14.466" fill="#e7f0f7" data-name="Ellipse 79" transform="rotate(-45 24.695 10.229)"/></g></g></g></g></g></g></svg>