<svg viewBox="-167.759 77.43 1353.738 506.676" xmlns="http://www.w3.org/2000/svg"><g data-name="Group 841"><path d="M1706.084 2266.589c117.924-14.978 231.493-25.767 340.251-15.336 105.371 10.211 207.568 35.215 301.749 73.824 38.126 15.535 77.832 38.748 70.245 80.508-4.743 26.066-27.265 52.626-49.969 76.688-32.937 34.897-69.45 69.31-112.975 93.917-77.216 43.639-162 49.133-240.085 52.476-196.272 8.415-392.477 15.496-580.766 4.894-68.041-3.837-135.478-10.071-194.871-28-32.281-9.749-64.446-26.426-63.412-58.448 1.491-45.958 41.679-91.609 90.482-117.631 97.664-52.058 110.26-70.183 211.337-99.883 42.942-12.623 157.937-47.972 265.728-67.766" data-name="Path 1182" style="paint-order:fill;stroke:#488eaf;stroke-dashoffset:-1px;stroke-miterlimit:8;stroke-width:7px;fill:#fff;stroke-dasharray:30px" transform="rotate(-172.991 1083.785 1435.967)"/><g><text data-name="Group 1348" style="fill:#333;font-family:&quot;Roboto Slab&quot;;font-size:50.5px;white-space:pre" transform="matrix(1.54096 0 0 1.4095 -477.845 -3047.026)"><tspan x="343.855" y="2356.99" style="font-weight:700">Præstation:</tspan><tspan> </tspan><tspan x="343.855" dy="1em">​</tspan><tspan>hvi jeg ikke giver mig 100%,</tspan><tspan x="343.855" dy="1em">​</tspan><tspan>er det ikke godt nok.</tspan></text></g></g></svg>