<?xml version="1.0" encoding="utf-8"?>
<svg xmlns="http://www.w3.org/2000/svg" xmlns:bx="https://boxy-svg.com" viewBox="-4.2 61.64 805.083 469.048">
  <defs>
    <clipPath id="clip-Balance">
      <rect width="1166" height="1094"/>
    </clipPath>
    
    <clipPath id="clip-1">
      <rect width="1166" height="1094"/>
    </clipPath>
    <clipPath id="clip-Illustration_-_Min_fysiske_energi_-_Min_fysiske_aktivitet">
      <rect width="545" height="513"/>
    </clipPath>
    <clipPath id="clip-2">
      <rect width="1166" height="1094"/>
    </clipPath>
    <clipPath id="clip-5">
      <rect width="545" height="513"/>
    </clipPath>
    <clipPath id="clip-3">
      <rect width="1166" height="1094"/>
    </clipPath>
    <clipPath id="clip-4">
      <rect width="545" height="513"/>
    </clipPath>
  </defs>
  <g id="g-1" clip-path="url(#clip-1)" transform="matrix(1, 0, 0, 1, 2743.299692, 56.778594)"/>
  <g transform="matrix(0.53566, 0, 0, 0.594146, 1352.700938, 1086.284095)" style="">
    <path id="Path_485" data-name="Path 485" d="M -2075.802 -1678.663 C -1748.843 -1581.973 -1461.434 -1660.172 -1274.716 -1581.03 C -1166.786 -1535.283 -1067.123 -1374.89 -1063.039 -1315.094 C -1051.852 -1151.306 -936.37 -1059.446 -1805.338 -965.702 C -2183.872 -924.866 -2300.292 -959.683 -2397.857 -1124.192 C -2548.192 -1377.679 -2497.441 -1803.353 -2075.802 -1678.663 Z" style="" fill="#fff"/>
    <g id="Balance" clip-path="url(#clip-Balance)" transform="matrix(1, 0, 0, 1, -2405.052246, -1893.452148)">
      <path id="Path_486" data-name="Path 486" d="M 224.874 414.283 C 268.313 410.641 310.602 408.928 353.687 417.511 C 397.084 426.156 439.14 442.263 478.802 463.45 C 495.385 472.312 513.524 485.007 515.808 505.344 C 517.232 518.034 511.881 530.405 506.157 541.541 C 497.845 557.687 488.101 573.486 474.438 584.226 C 450.208 603.274 418.316 603.29 388.731 602.462 C 314.375 600.387 239.873 597.652 166.216 586.457 C 139.596 582.411 112.915 577.201 87.862 566.484 C 74.247 560.659 59.817 551.423 56.229 535.681 C 51.082 513.086 69.311 491.967 84.827 480.695 C 115.871 458.14 122.689 449.663 157.827 438.235 C 172.756 433.379 199.821 419.469 238.767 413.137" fill="#840729" style=""/>
      <path id="Path_490" data-name="Path 490" d="M 825.503 714.743 C 868.905 721.927 911.324 727.418 955.495 724.588 C 987.599 722.433 1019.422 717.324 1050.538 709.329 C 1073.755 703.437 1110.802 697.862 1127.108 679.827 C 1133.123 673.057 1137.735 665.219 1140.694 656.741 C 1143.349 649.292 1144.125 641.331 1142.959 633.53 C 1141.614 625.011 1135.9 617.591 1129.178 611.715 C 1095.942 582.655 1051.044 580.17 1007.899 577.004 C 932.84 571.498 852.105 553.203 782.382 568.503 C 650.018 597.548 691.367 654.123 760.213 688.692 C 776.738 696.99 800.758 708.083 839.393 717.031" fill="#557591" style="" transform="matrix(-1, 0, 0, -1, 1839.160034, 1287.880066)"/>
      <path id="Path_488" data-name="Path 488" d="M 959.002 769.456 C 951.604 771.505 856.241 751.04 849.359 749.786 C 794.308 739.722 775.379 735.554 720.456 724.694 C 686.408 717.966 618.398 708.083 580.808 700.679 C 593.032 715.514 609.119 744.748 617.935 758.279 C 636.226 786.342 670.848 796.552 702.902 790.65 C 713.802 788.643 726.626 788.902 731.594 802.69 C 737.695 819.611 739.058 837.925 729.598 853.875 C 726.457 859.171 717.501 863.068 711.184 863.107 C 616.545 863.681 521.904 863.523 427.267 863.437 C 423.919 863.549 420.582 862.983 417.426 861.769 C 404.679 856.205 398.994 835.465 403.678 811.467 C 406.459 797.229 414.639 789.868 428.351 790.365 C 429.797 790.253 431.247 790.264 432.69 790.4 C 467.55 797.978 498.046 798.856 517.865 768.538 C 528.071 752.936 555.225 717.412 569.207 700.686 C 546.912 696.147 505.01 683.1 485.012 679.128 C 406.901 663.645 334.778 641.315 252.654 636.906 C 245.35 636.514 197.062 625.893 191.918 623.501 L 137.841 614.545 C 111.647 598.341 127.521 599.612 133.154 600.671 C 216.932 616.412 423.444 656.771 507.114 673.189 C 627.193 696.756 747.259 720.426 867.31 744.198 C 874.993 745.727 958.399 759.114 965.809 762.249 L 959.002 769.456 Z M 711.186 807.111 C 681.032 781.654 452.717 805.5 427.27 802.69 C 401.82 799.881 421.944 853.875 421.944 853.875 C 421.944 853.875 706.321 867.333 715.747 848.607 C 725.17 829.88 715.747 844.233 715.747 844.233 C 715.747 844.233 741.342 832.565 711.187 807.109 L 711.186 807.111 Z M 628.054 789.528 L 569.208 719.972 L 510.689 789.528 L 628.054 789.528 Z" fill="#27303e" style=""/>
      <text style="white-space: pre; fill: rgb(51, 51, 51); font-family: &quot;Roboto Slab&quot;; font-size: 67.4px;" x="1305.907" y="610.781">Enter your text here.</text>
    </g>
    <text transform="matrix(2.207573, 0, 0, 2.676589, -2280.617676, -1368.388428)" style="fill: rgb(255, 255, 255); font-family: &quot;Roboto Slab&quot;; font-size: 28px; font-weight: 600; white-space: pre;">Præstation</text>
    <text transform="matrix(2.128322, 0, 0, 2.424443, -1669.629761, -1232.201172)" style="fill: rgb(255, 255, 255); font-family: &quot;Roboto Slab&quot;; font-size: 28px; font-weight: 600; white-space: pre;">Selvomsorg</text>
    <g id="Group_656" data-name="Group 656" transform="matrix(0.253798, -0.011992, 0.016996, 0.292388, -1657.477417, -1563.96875)" style="">
      <g id="Group_322" data-name="Group 322" transform="matrix(1, 0, 0, 1, 12.728497, 2.590579)"/>
      <path id="path-1" data-name="Path 611" d="M -2706.06 -37.415 L -2694.447 -46.408 C -2726.786 -35.864 -2753.382 -39.312 -2772.101 -62.604 C -2797.995 -94.818 -2770.138 -145.467 -2707.24 -136.627 L -2737.333 -146.441 C -2732.817 -170.293 -2708.034 -185.885 -2679.227 -182.953 C -2652.061 -180.189 -2631.016 -159.802 -2632.108 -136.693 C -2641.445 -136.014 -2650.889 -135.336 -2661 -134.596 L -2659.978 -120.407 C -2649.487 -121.339 -2639.639 -122.158 -2629.807 -123.107 C -2600.16 -125.963 -2570.515 -128.907 -2540.861 -131.745 C -2534.32 -132.373 -2527.499 -132.563 -2532.653 -141.641 L -2612.815 -137.56 C -2619.368 -151.888 -2623.112 -166.282 -2631.939 -177.91 C -2647.234 -198.056 -2671.387 -204.592 -2698.136 -200.186 C -2725.76 -195.633 -2742.887 -180.372 -2748.664 -157.004 C -2750.665 -148.919 -2753.33 -144.838 -2763.53 -142.518 C -2798.214 -134.642 -2818.004 -104.203 -2809.389 -74.31 C -2800.898 -44.811 -2767.334 -25.451 -2732.411 -29.908 C -2725.231 -30.813 -2719.773 -32.163 -2713.69 -25.48 C -2690.09 0.434 -2652.782 6.08 -2620.656 -10.236 C -2593.021 -24.289 -2582.57 -55.781 -2596.1 -84.157 C -2596.813 -85.647 -2597.266 -87.23 -2598.248 -89.858 C -2576.762 -97.202 -2555.455 -104.22 -2534.497 -111.898 C -2530.614 -113.318 -2528.125 -117.421 -2524.993 -120.282 L -2528.516 -123.713 C -2568.672 -111.952 -2608.844 -100.197 -2650.362 -88.048 L -2643.938 -74.775 C -2634.074 -77.767 -2625.23 -80.461 -2616.49 -83.11 C -2602.653 -62.148 -2610.91 -37.722 -2635.856 -24.231 C -2658.249 -12.095 -2689.279 -17.563 -2706.06 -37.415 Z" fill="#6c85a0" style="" transform="matrix(0.99522, 0.086934, -0.109695, 0.99522, -23.862132, 231.473022)"/>
    </g>
    <g id="g-7" clip-path="url(#clip-2)" transform="matrix(1.866856, 0, 0, 1.683088, 799.079293, 724.593191)"/>
    <g id="g-8" data-name="Illustration - Min fysiske energi - Min fysiske aktivitet" clip-path="url(#clip-5)" transform="matrix(1.866856, 0, 0, 1.683088, 249.101632, 47.66741)"/>
    <g id="g-5" clip-path="url(#clip-3)" transform="matrix(1.866856, 0, 0, 1.683088, 9073.124459, -1687.16694)"/>
    <g id="g-6" data-name="Illustration - Min fysiske energi - Min fysiske aktivitet" clip-path="url(#clip-4)" transform="matrix(1.866856, 0, 0, 1.683088, 8523.144967, -2364.092722)"/>
  </g>
  <g id="Illustration_-_Min_fysiske_energi_-_Min_fysiske_aktivitet" data-name="Illustration - Min fysiske energi - Min fysiske aktivitet" clip-path="url(#clip-Illustration_-_Min_fysiske_energi_-_Min_fysiske_aktivitet)" transform="matrix(1, 0, 0, 1, 2448.698374, -345.414147)"/>
  <g id="Group_186" data-name="Group 186" transform="matrix(0.631686, 0, 0, 0.576883, 482.364563, 348.88446)" style="">
    <path id="Path_403" data-name="Path 403" d="M-544.863-339.468l8.007,24.489,39.292,8.6" transform="translate(74.073 70.738)" fill="none" stroke-linecap="round" stroke-linejoin="round" style="stroke: rgb(108, 133, 160);" stroke-width="3"/>
    <path id="Path_404" data-name="Path 404" d="M-529.4-377.245c10.358,9.684,22.343,16.711,38.442,23.739" transform="translate(87.041 42.946)" fill="none" stroke-linecap="round" stroke-linejoin="round" style="stroke: rgb(108, 133, 160);" stroke-width="3"/>
    <path id="Path_405" data-name="Path 405" d="M-590.922-383.08a7.631,7.631,0,0,0-4.864-1.742,2.2,2.2,0,0,0-1.328.285,1.6,1.6,0,0,0-.552,1.641,3.117,3.117,0,0,0,.959,1.53,6.11,6.11,0,0,0,4.184,1.677c-1.576.921-5.112,3.632-4.415,5.816.959,3,8.486,1.919,8.238-1.571" transform="translate(36.596 38.57)" fill="none" stroke-linecap="round" stroke-miterlimit="10" style="stroke: rgb(108, 133, 160);" stroke-width="2"/>
    <path id="Path_407" data-name="Path 407" d="M-537.533-424.5c13.592,4.3,23.626,15.786,31.5,27.672A182.519,182.519,0,0,1-477.6-321.8c.723,5.145,1.215,10.471-.208,15.467-1.8,6.343-6.512,11.476-11.717,15.525-9.876,7.688-21.839,12.262-33.955,15.4-10.3,2.666-21.088,4.379-31.573,2.56s-20.686-7.623-25.741-16.988c-2.991-5.539-4.018-11.9-5-18.118q-1.449-9.186-2.9-18.369c-2.588-16.4-5.179-33.09-2.82-49.524s10.462-32.859,24.775-41.264c4.557-2.68,9.719-7.862,15-8.057,11.469-.419,5.962-.52,14.2.663" transform="translate(40.335 9.754)" fill="none" stroke-miterlimit="10" style="stroke: rgb(108, 133, 160);" stroke-width="4.269"/>
    <path id="Path_408" data-name="Path 408" d="M-506.571-411.395c-8.491,8.463-22.76,13.924-34.265,16.826a123.291,123.291,0,0,1-24.572,3.615c-7.528.34-16.525.227-24.259-3.347" transform="translate(39.268 18.831)" fill="none" stroke-linecap="round" style="stroke: rgb(108, 133, 160);" stroke-width="7"/>
    <g id="Group_185" data-name="Group 185" transform="translate(-485.796 -439.209)">
      <path id="Path_409" data-name="Path 409" d="M-545.453-423.811c5.779-1.8,11.083-3.42,16.361-5.117,1.735-.557,3.782-.974,3.724-3.451-.058-2.453-1.988-4.967-4.4-5.073a13.212,13.212,0,0,0-6.054,1.113C-540.854-433.945-544.173-430.01-545.453-423.811Z" transform="translate(559.45 440.446)" style="stroke: rgb(108, 133, 160); fill: rgb(108, 133, 160);"/>
      <path id="Path_410" data-name="Path 410" d="M-551.4-422.8c2.15-3.733,4.352-7.469,6.457-11.26.737-1.328,1.5-2.818-.031-4.164-1.473-1.292-4.22-1.4-5.529.162a13.8,13.8,0,0,0-2.666,5A11.869,11.869,0,0,0-551.4-422.8Z" transform="translate(553.642 439.209)" style="stroke: rgb(108, 133, 160); fill: rgb(108, 133, 160);"/>
      <path id="Path_411" data-name="Path 411" d="M-543.631-418.58c4.047-.321,7.886-.5,11.684-1.007,1.065-.142,2.69-1.089,2.856-1.909a3.166,3.166,0,0,0-2.348-3.945,11.685,11.685,0,0,0-5.141.359A10.893,10.893,0,0,0-543.631-418.58Z" transform="translate(560.742 448.873)" style="stroke: rgb(108, 133, 160); fill: rgb(108, 133, 160);"/>
    </g>
    <circle id="Ellipse_35" data-name="Ellipse 35" cx="4.318" cy="4.318" r="4.318" transform="translate(-544.014 -354.525)" fill="none" style="stroke: rgb(108, 133, 160);" stroke-width="2"/>
    <path id="Path_412" data-name="Path 412" d="M-586.619-393.8c3.391.709,5.933,2.514,8.457,4.829" transform="translate(44.459 32.203)" fill="none" stroke-linecap="round" stroke-miterlimit="10" style="stroke: rgb(108, 133, 160);" stroke-width="2"/>
    <circle id="Ellipse_36" data-name="Ellipse 36" cx="1.522" cy="1.522" r="1.522" transform="translate(-542.982 -351.665)" style="stroke: rgb(108, 133, 160); fill: rgb(108, 133, 160);" stroke-width="1"/>
    <path id="Path_413" data-name="Path 413" d="M-604.049-357.8l39.933,14.946,30.366-25.757" transform="translate(32.098 50.067)" fill="none" stroke-linecap="round" stroke-linejoin="round" style="stroke: rgb(108, 133, 160);" stroke-width="3"/>
    <path id="Path_414" data-name="Path 414" d="M-539.131-350.533l-39.113,18.262-9.341,47.415" transform="translate(43.774 62.89)" fill="none" stroke-linecap="round" stroke-linejoin="round" style="stroke: rgb(108, 133, 160);" stroke-width="3"/>
    <line id="Line_1" data-name="Line 1" x2="17.914" y2="3.004" transform="translate(-562.031 -224.868)" fill="none" stroke-linecap="round" stroke-linejoin="round" style="stroke: rgb(108, 133, 160);" stroke-width="3"/>
    <line id="Line_2" data-name="Line 2" y1="17.645" x2="4.31" transform="translate(-428.179 -235.364)" fill="none" stroke-linecap="round" stroke-linejoin="round" style="stroke: rgb(108, 133, 160);" stroke-width="3"/>
  </g>
  <g id="g-2" data-name="Group 656" transform="matrix(0.156916, -0.008223, 0.009316, 0.177756, 543.382874, 186.693344)" style="">
    <g id="g-3" data-name="Group 322" transform="translate(0 0)">
      <g id="Group_256" data-name="Group 256" transform="translate(0 0)">
        <g id="Group_658" data-name="Group 658" transform="translate(0 0)">
          <path id="Path_419" data-name="Path 419" d="M192.423,0C138.855,9.074,12.052,2.631,1.107,6.085c-21.6,38.228,279.885,10.351,292.233,102.249" transform="translate(138.534 670.229)" fill="none" stroke-linecap="round" stroke-linejoin="round" stroke-width="7" style="stroke: rgb(108, 133, 160);"/>
          <path id="Path_1048" data-name="Path 1048" d="M94.8,0c52.075,10.14,175.344,2.941,185.984,6.8,21,42.72-291.4,15.164-280.51,98.08" transform="translate(276.929 676.544)" fill="none" stroke-linecap="round" stroke-linejoin="round" stroke-width="7" style="stroke: rgb(108, 133, 160);"/>
          <path id="Path_421" data-name="Path 421" d="M.273,542.03c-.913,16.524.159,33.759,7.861,48.409,10.626,20.223,31.913,32.225,52.412,42.3,51.9,25.532,108.427,46.377,166.135,42.492S343.2,637.349,361.207,582.385c7.889-24.066,7.571-49.937,7.169-75.262l-3.353-214.005c-1.431-90.97-3.256-205-82.1-266.715C228.41-16.268,180.54-6.721,147.361,51.444c-35.7,62.575-42.477,143.389-61.082,211.931C61.356,355.154,5.576,446.269.273,542.03Z" transform="translate(168.274 0)" fill="none" stroke-miterlimit="10" stroke-width="7" style="stroke: rgb(108, 133, 160);"/>
          <path id="Path_422" data-name="Path 422" d="M64.162,192.269C38.632,170.33,21.87,144.4,8.4,107.425,1.515,88.494-3.39,65.833,2.905,46.51,7.279,33.1,16.4,23.661,26,17.152,61.548-6.932,66.089,18.513,103.369,0" transform="matrix(0.191, -0.982, 0.982, 0.191, 0, 441.353)" fill="none" stroke-linecap="round" stroke-linejoin="round" stroke-width="7" style="stroke: rgb(108, 133, 160);"/>
          <path id="Path_423" data-name="Path 423" d="M51.246,0C22.37,10.46.027,53.858,0,99.529c0,10.82,1.149,21.812,4.333,31.457C10.242,148.9,22.181,159.857,33.6,169.578c40.667,34.617,43.258-20.7,86.139,6.876" transform="translate(527.237 486.271) rotate(-81)" fill="none" stroke-linecap="round" stroke-linejoin="round" stroke-width="7" style="stroke: rgb(108, 133, 160);"/>
        </g>
      </g>
      <path id="Path_498" data-name="Path 498" d="M10.955,9.451a34.11,34.11,0,0,1-9.53-5.184C.018,3.2-.615,2,.784.7,2.125-.531,3.5.049,4.757.988,14.609,8.314,25.466,8.7,37.028,4.141c.576-.227,1.166-.43,1.733-.669,1.427-.6,2.8-.64,3.631.634.866,1.323.352,2.462-1.269,3.156C31.43,11.4,21.461,12.988,10.955,9.451Z" transform="matrix(-0.951, 0.309, -0.309, -0.951, 358.326, 154.777)" fill="#323f51" style="stroke: rgb(108, 133, 160);"/>
      <path id="Path_499" data-name="Path 499" d="M10.955,9.451a34.11,34.11,0,0,1-9.53-5.184C.018,3.2-.615,2,.784.7,2.125-.531,3.5.049,4.757.988,14.609,8.314,25.466,8.7,37.028,4.141c.576-.227,1.166-.43,1.733-.669,1.427-.6,2.8-.64,3.631.634.866,1.323.352,2.462-1.269,3.156C31.43,11.4,21.461,12.988,10.955,9.451Z" transform="matrix(-0.966, -0.259, 0.259, -0.966, 474.307, 167.015)" fill="#323f51" style="stroke: rgb(108, 133, 160);"/>
    </g>
    <path id="Path_604" data-name="Path 604" d="M27.787,12.128c-1.64-4.7-5.63-8.582-9.858-11.012A6.285,6.285,0,0,0,14.2.024,4.573,4.573,0,0,0,10.57,3.393,8.936,8.936,0,0,0,10.9,8.552a17.5,17.5,0,0,0,8.241,9.92C13.912,18.64,1.325,20.637.1,27.084c-1.686,8.865,18.727,16.4,22.863,7.279" transform="matrix(0.891, -0.454, 0.454, 0.891, 367.878, 287.697)" fill="none" stroke-linecap="round" stroke-miterlimit="10" stroke-width="5" style="stroke: rgb(108, 133, 160);"/>
    <path id="Path_605" data-name="Path 605" d="M6.729,0C5.021,2.986,3.241,5.938,1.491,8.894a10.005,10.005,0,0,0,.343,11.038c3.618,5,15.234,8.911,19.02,9.966,11.323,3.166,11.666-8.115,14.694-13.4" transform="matrix(0.891, -0.454, 0.454, 0.891, 411.078, 221.09)" fill="none" stroke-linecap="round" stroke-miterlimit="10" stroke-width="5" style="stroke: rgb(108, 133, 160);"/>
    <path id="Path_606" data-name="Path 606" d="M6.729,0C5.02,2.986,3.241,5.938,1.49,8.894a10,10,0,0,0,.348,11.038c3.618,5,15.23,8.911,19.016,9.966,11.323,3.166,11.67-8.115,14.694-13.4" transform="matrix(0.891, -0.454, 0.454, 0.891, 337.859, 217.508)" fill="none" stroke-linecap="round" stroke-miterlimit="10" stroke-width="5" style="stroke: rgb(108, 133, 160);"/>
    <path id="Path_611" data-name="Path 611" d="M52.451,96.7,58.4,91.4C42,97.614,28.651,95.582,19.494,81.855,6.827,62.87,21.429,33.02,52.991,38.23L37.954,32.446C40.5,18.389,53.154,9.2,67.622,10.928c13.644,1.629,24.005,13.644,23.191,27.263-4.708.4-9.47.8-14.568,1.236l.352,8.362c5.292-.549,10.259-1.032,15.219-1.591,14.957-1.683,29.914-3.418,44.874-5.091,3.3-.37,6.736-.482,4.245-5.832l-40.4,2.405C97.4,29.236,95.68,20.753,91.369,13.9,83.9,2.027,71.816-1.825,58.3.772,44.342,3.455,35.546,12.449,32.371,26.221c-1.1,4.765-2.488,7.17-7.649,8.537C7.172,39.4-3.138,57.339.857,74.956A34.064,34.064,0,0,0,39.1,101.124c3.625-.533,6.388-1.329,9.374,2.61,11.584,15.273,30.3,18.6,46.659,8.984,14.072-8.282,19.693-26.842,13.206-43.565-.342-.878-.552-1.811-1.016-3.36,10.9-4.328,21.706-8.464,32.344-12.989,1.971-.837,3.271-3.255,4.88-4.941l-1.734-2.022C122.464,52.772,102.107,59.7,81.068,66.86l3.082,7.822c5-1.763,9.483-3.351,13.913-4.912,6.726,12.354,2.29,26.749-10.422,34.7C76.23,111.622,60.672,108.4,52.451,96.7Z" transform="matrix(0.996, 0.087, -0.087, 0.996, 200.632, 247.608)" fill="#6c85a0" style="stroke: rgb(108, 133, 160);"/>
  </g>
</svg>
