<?xml version="1.0" encoding="utf-8"?>
<svg xmlns="http://www.w3.org/2000/svg" xmlns:bx="https://boxy-svg.com" viewBox="-990.135 -121.811 2492.875 1003.269">
  <defs>
    
  </defs>
  <g id="Group_841" data-name="Group 841" transform="matrix(0.999854, -0.01713, 0.01713, 0.999854, -2140.04655, -2035.619986)">
    <path id="Path_1182" data-name="Path 1182" d="M 1679.911 2252.77 C 1797.835 2237.792 1911.404 2227.003 2020.162 2237.434 C 2125.533 2247.645 2227.73 2272.649 2321.912 2311.258 C 2360.038 2326.793 2399.744 2350.006 2392.157 2391.766 C 2387.414 2417.832 2364.892 2444.392 2342.188 2468.454 C 2309.251 2503.351 2272.737 2537.764 2229.212 2562.372 C 2151.996 2606.011 2067.212 2611.505 1989.127 2614.848 C 1792.855 2623.263 1596.65 2630.344 1408.361 2619.742 C 1340.32 2615.905 1272.883 2609.671 1213.49 2591.742 C 1181.209 2581.993 1149.044 2565.316 1150.078 2533.293 C 1151.569 2487.335 1191.757 2441.684 1240.56 2415.662 C 1338.224 2363.604 1350.82 2345.479 1451.897 2315.779 C 1494.839 2303.156 1609.834 2267.807 1717.625 2248.013" style="paint-order: fill; stroke-dashoffset: -1px; stroke-miterlimit: 8; stroke-width: 7px; fill: rgb(255, 255, 255); stroke-dasharray: 30px; stroke: rgb(72, 156, 97);" transform="matrix(0.981894, 0.189429, -0.189429, 0.981894, 492.233594, -291.606069)"/>
    <g id="Group_1348" data-name="Group 1348" transform="matrix(0.977665, 0, 0, 1.026609, 997.291541, -302.301989)" style="">
      <text transform="matrix(1.576168, 0, 0, 1.372974, -179.444366, -634.177307)" style="fill: rgb(51, 51, 51); font-family: &quot;Roboto Slab&quot;; font-size: 50.5px; white-space: pre;"><tspan x="343.855" y="2356.99" style="font-weight: 700;">Kontrol:</tspan><tspan> </tspan><tspan x="343.8550109863281" dy="1em">​</tspan><tspan>Hvis jeg ikke har helt<tspan x="343.8550109863281" dy="1em">​</tspan>styr på alting, går det galt</tspan></text>
      <text style="white-space: pre; fill: rgb(51, 51, 51); font-family: &quot;Roboto Slab&quot;; font-size: 28px;" transform="matrix(1.505905, 0, 0, 1.434111, 350.225769, 2810.993164)"> </text>
    </g>
  </g>
  <g id="g-1" data-name="Group 841" transform="matrix(1, 0, 0, 1, -960.379436, -1789.163687)">
    <path id="path-1" data-name="Path 1182" d="M 1706.084 2266.589 C 1824.008 2251.611 1937.577 2240.822 2046.335 2251.253 C 2151.706 2261.464 2253.903 2286.468 2348.084 2325.077 C 2386.21 2340.612 2425.916 2363.825 2418.329 2405.585 C 2413.586 2431.651 2391.064 2458.211 2368.36 2482.273 C 2335.423 2517.17 2298.91 2551.583 2255.385 2576.19 C 2178.169 2619.829 2093.385 2625.323 2015.3 2628.666 C 1819.028 2637.081 1622.823 2644.162 1434.534 2633.56 C 1366.493 2629.723 1299.056 2623.489 1239.663 2605.56 C 1207.382 2595.811 1175.217 2579.134 1176.251 2547.112 C 1177.742 2501.154 1217.93 2455.503 1266.733 2429.481 C 1364.397 2377.423 1376.993 2359.298 1478.07 2329.598 C 1521.012 2316.975 1636.007 2281.626 1743.798 2261.832" style="paint-order: fill; stroke-dashoffset: -1px; stroke-miterlimit: 8; stroke-width: 7px; fill: rgb(255, 255, 255); stroke-dasharray: 30px; stroke: rgb(205, 115, 101);" transform="matrix(-0.992526, -0.122032, 0.122032, -0.992526, 3283.934891, 5087.12954)"/>
    <g id="g-2" data-name="Group 1348" transform="matrix(0.977665, 0, 0, 1.026609, 1040.493164, -350.877899)" style="">
      <text transform="matrix(1.576168, 0, 0, 1.372974, -179.444366, -634.177307)" style="fill: rgb(51, 51, 51); font-family: &quot;Roboto Slab&quot;; font-size: 50.5px; white-space: pre;"><tspan x="343.855" y="2356.99" style="font-weight: 700;">Accept:</tspan><tspan> </tspan><tspan x="343.8550109863281" dy="1em">​</tspan><tspan>Andre kan ikke lide mig, <tspan x="343.8550109863281" dy="1em">​</tspan>hvis jeg viser mine <tspan x="343.8550109863281" dy="1em">​</tspan>svage sider </tspan></text>
      <text style="white-space: pre; fill: rgb(51, 51, 51); font-family: &quot;Roboto Slab&quot;; font-size: 28px;" transform="matrix(1.505905, 0, 0, 1.434111, 350.225769, 2810.993164)"> </text>
      <text style="white-space: pre; fill: rgb(51, 51, 51); font-family: &quot;Roboto Slab&quot;; font-size: 28px;" transform="matrix(4.510565, 0, 0, 4.295522, 1325.780518, 2880.332275)"> </text>
    </g>
  </g>
  <g id="g-3" data-name="Group 841" transform="matrix(1, 0, 0, 1, -1082.887798, -2290.592154)">
    <path id="path-2" data-name="Path 1182" d="M 1706.084 2266.589 C 1824.008 2251.611 1937.577 2240.822 2046.335 2251.253 C 2151.706 2261.464 2253.903 2286.468 2348.084 2325.077 C 2386.21 2340.612 2425.916 2363.825 2418.329 2405.585 C 2413.586 2431.651 2391.064 2458.211 2368.36 2482.273 C 2335.423 2517.17 2298.91 2551.583 2255.385 2576.19 C 2178.169 2619.829 2093.385 2625.323 2015.3 2628.666 C 1819.028 2637.081 1622.823 2644.162 1434.534 2633.56 C 1366.493 2629.723 1299.056 2623.489 1239.663 2605.56 C 1207.382 2595.811 1175.217 2579.134 1176.251 2547.112 C 1177.742 2501.154 1217.93 2455.503 1266.733 2429.481 C 1364.397 2377.423 1376.993 2359.298 1478.07 2329.598 C 1521.012 2316.975 1636.007 2281.626 1743.798 2261.832" style="paint-order: fill; stroke: rgb(72, 142, 175); stroke-dashoffset: -1px; stroke-miterlimit: 8; stroke-width: 7px; fill: rgb(255, 255, 255); stroke-dasharray: 30px;" transform="matrix(-0.992526, -0.122032, 0.122032, -0.992526, 3283.934891, 5087.12954)"/>
    <g id="g-4" data-name="Group 1348" transform="matrix(0.977665, 0, 0, 1.026609, 997.291541, -302.301989)" style="">
      <text transform="matrix(1.576168, 0, 0, 1.372974, -198.128098, -627.686035)" style="fill: rgb(51, 51, 51); font-family: &quot;Roboto Slab&quot;; font-size: 50.5px; white-space: pre;"><tspan x="343.855" y="2356.99" style="font-weight: 700;">Præstation:</tspan><tspan> </tspan><tspan x="343.8550109863281" dy="1em">​</tspan><tspan>Hvis jeg ikke giver mig 100%,</tspan><tspan x="343.8550109863281" dy="1em">​</tspan><tspan>er det ikke godt nok.</tspan></text>
    </g>
  </g>
</svg>
