<svg viewBox="-776.01 -466.519 2728.708 548.533" xmlns="http://www.w3.org/2000/svg"><g data-name="Group 1348"><path fill="#fff" d="M-685.992 2153.292c321.563-139.596 1851.199 5.881 2020.094-61.957 153.896-61.813 370.844 24.826 487.788 58.053 122.348 34.762 245.106 47.864 189.231 116.312-141.88 173.803-1469.152 172.778-1962.709 130.832-33.633-2.858-149.305.891-255.38-18.674-105.167-19.398-200.812-62.145-218.059-57.608-254.294 66.893-370.623-119.353-260.965-166.958Z" data-name="Path 729" transform="matrix(.97747 -.01951 .02183 1.09324 -93.915 -2594.753)"/><path fill="none" stroke="#323f51" stroke-width="5" d="M994.556 2361.547s34.494-14.406 84.34-31.22c30.742-10.37 67.28-20.682 105.174-29.316 54.296-12.372 111.377-21.299 158.188-22.018 19.461-.299 37.225-3.376 51.613-20.734" data-name="Path 730" transform="matrix(.94161 .26305 -.2942 1.05314 677.388 -2828.991)"/><text style="white-space:pre;fill:#333;font-family:&quot;Roboto Slab&quot;;font-size:28px" transform="matrix(2.7975 0 0 2.7975 -643.854 -120.213)">Her kan du vælge, om du vil arbejde med belastninger i forhold til:<tspan x="0" dy="1em">​</tspan></text></g><g data-name="Group 1219"><g data-name="Group 1205"><g data-name="Group 1204"><path fill="#7ccad8" d="M1324.6-454.384a119.672 107.257 0 1 1-119.673 107.256 119.672 107.257 0 0 1 119.672-107.256Z" data-name="Nuance A4 5a"/></g></g><g><text fill="#323f51" data-name="Group 1215" font-family="RifficFree-Bold, Riffic Free" font-size="150" font-weight="700" style="white-space:pre" transform="matrix(.87416 0 0 .78347 1308.271 -411.853)"><tspan x="0" y="146">i</tspan></text></g></g></svg>