<?xml version="1.0" encoding="utf-8"?>
<svg viewBox="665.905 56.73 820.122 409.244" xmlns="http://www.w3.org/2000/svg">
  <g id="Group_1348" data-name="Group 1348" transform="matrix(1, 0, 0, 1, -515.412542, -2409.95689)">
    <path id="Path_729" data-name="Path 729" d="M 1571.057 2508.026 L 1571.057 2508.026 C 1799.713 2506.671 2037.141 2544.331 1992.542 2714.946 C 1947.943 2885.56 1914.282 2798.305 1517.15 2829.212 L 1517.15 2829.212 C 1288.494 2830.567 1187.544 2829.949 1189.578 2646.348 C 1191.612 2462.747 1342.402 2509.38 1571.057 2508.026 Z" fill="#fff" style="" transform="matrix(0.999387, -0.035014, 0.035014, 0.999387, -92.388049, 57.438443)"/>
    <path id="PLANCHE_D_AMBIANCE-2" data-name="PLANCHE D’AMBIANCE" d="M13.969-16.439V0H3.66V-44.438H18.117a29.668,29.668,0,0,1,8.22.991,15.432,15.432,0,0,1,5.551,2.76,10.447,10.447,0,0,1,3.126,4.179,13.843,13.843,0,0,1,.976,5.246,14.083,14.083,0,0,1-.579,4.087,12.376,12.376,0,0,1-1.723,3.553,13.336,13.336,0,0,1-2.806,2.913,14.9,14.9,0,0,1-3.828,2.1,9.69,9.69,0,0,1,1.937,1.281,7.622,7.622,0,0,1,1.571,1.861L40.016,0H30.683a3.96,3.96,0,0,1-3.721-1.952l-7.381-12.9a3.107,3.107,0,0,0-1.144-1.22,3.827,3.827,0,0,0-1.845-.366Zm0-7.107h4.148A10.606,10.606,0,0,0,21.7-24.08a6.476,6.476,0,0,0,2.425-1.479A5.633,5.633,0,0,0,25.5-27.77a8.487,8.487,0,0,0,.427-2.73,5.725,5.725,0,0,0-1.906-4.575q-1.906-1.647-5.9-1.647H13.969ZM85.034-44.438v7.93H66.795v10.37H80.764v7.625H66.795V-7.93H85.034V0H56.425V-44.438Zm42.822,9.028a3.872,3.872,0,0,1-.961,1.1,2.15,2.15,0,0,1-1.3.366,3.171,3.171,0,0,1-1.51-.442q-.808-.442-1.83-.991a15.186,15.186,0,0,0-2.333-.991,9.335,9.335,0,0,0-2.989-.442,6.432,6.432,0,0,0-4.316,1.235,4.2,4.2,0,0,0-1.418,3.34,3.076,3.076,0,0,0,.854,2.227,7.363,7.363,0,0,0,2.242,1.525,24.029,24.029,0,0,0,3.172,1.174q1.784.534,3.645,1.189a32.6,32.6,0,0,1,3.645,1.54,12.154,12.154,0,0,1,3.172,2.257,10.534,10.534,0,0,1,2.242,3.34,11.875,11.875,0,0,1,.854,4.743,15.454,15.454,0,0,1-1.067,5.764,13.5,13.5,0,0,1-3.1,4.682,14.369,14.369,0,0,1-5,3.141A18.714,18.714,0,0,1,115.107.488a21.654,21.654,0,0,1-4.224-.427,25.087,25.087,0,0,1-4.163-1.2,24.142,24.142,0,0,1-3.782-1.845,16.07,16.07,0,0,1-3.08-2.379l3.05-4.819a2.482,2.482,0,0,1,.946-.885,2.679,2.679,0,0,1,1.312-.336,3.472,3.472,0,0,1,1.845.58q.93.579,2.1,1.281a17.126,17.126,0,0,0,2.7,1.281,10.121,10.121,0,0,0,3.6.579,6.852,6.852,0,0,0,4.361-1.235,4.7,4.7,0,0,0,1.556-3.919,3.7,3.7,0,0,0-.854-2.532,6.6,6.6,0,0,0-2.242-1.616,20.655,20.655,0,0,0-3.157-1.128q-1.769-.488-3.63-1.083a26.554,26.554,0,0,1-3.63-1.464,11.455,11.455,0,0,1-3.157-2.288,10.7,10.7,0,0,1-2.242-3.538,14.048,14.048,0,0,1-.854-5.231,12.412,12.412,0,0,1,1.007-4.88,12.6,12.6,0,0,1,2.958-4.239,14.547,14.547,0,0,1,4.788-2.974,17.685,17.685,0,0,1,6.5-1.113,24.361,24.361,0,0,1,3.98.32,20.923,20.923,0,0,1,3.675.946,20.183,20.183,0,0,1,3.248,1.494,14.977,14.977,0,0,1,2.7,1.967Zm45.262,0a3.872,3.872,0,0,1-.961,1.1,2.15,2.15,0,0,1-1.3.366,3.171,3.171,0,0,1-1.51-.442q-.808-.442-1.83-.991a15.186,15.186,0,0,0-2.333-.991,9.335,9.335,0,0,0-2.989-.442,6.432,6.432,0,0,0-4.316,1.235,4.2,4.2,0,0,0-1.418,3.34,3.076,3.076,0,0,0,.854,2.227,7.363,7.363,0,0,0,2.242,1.525,24.03,24.03,0,0,0,3.172,1.174q1.784.534,3.645,1.189a32.594,32.594,0,0,1,3.645,1.54,12.154,12.154,0,0,1,3.172,2.257,10.534,10.534,0,0,1,2.242,3.34,11.875,11.875,0,0,1,.854,4.743,15.454,15.454,0,0,1-1.068,5.764,13.5,13.5,0,0,1-3.1,4.682,14.369,14.369,0,0,1-5,3.141A18.714,18.714,0,0,1,160.369.488a21.654,21.654,0,0,1-4.224-.427,25.087,25.087,0,0,1-4.163-1.2A24.143,24.143,0,0,1,148.2-2.989a16.069,16.069,0,0,1-3.081-2.379l3.05-4.819a2.482,2.482,0,0,1,.945-.885,2.679,2.679,0,0,1,1.311-.336,3.472,3.472,0,0,1,1.845.58q.93.579,2.1,1.281a17.127,17.127,0,0,0,2.7,1.281,10.121,10.121,0,0,0,3.6.579,6.852,6.852,0,0,0,4.362-1.235,4.7,4.7,0,0,0,1.555-3.919,3.7,3.7,0,0,0-.854-2.532,6.6,6.6,0,0,0-2.242-1.616,20.655,20.655,0,0,0-3.157-1.128q-1.769-.488-3.63-1.083a26.554,26.554,0,0,1-3.63-1.464,11.455,11.455,0,0,1-3.157-2.288,10.7,10.7,0,0,1-2.242-3.538,14.048,14.048,0,0,1-.854-5.231,12.411,12.411,0,0,1,1.007-4.88,12.6,12.6,0,0,1,2.959-4.239,14.547,14.547,0,0,1,4.788-2.974,17.685,17.685,0,0,1,6.5-1.113,24.361,24.361,0,0,1,3.98.32,20.923,20.923,0,0,1,3.675.946,20.182,20.182,0,0,1,3.248,1.494,14.976,14.976,0,0,1,2.7,1.967Zm64.355,13.176a23.883,23.883,0,0,1-1.662,8.967,21.612,21.612,0,0,1-4.682,7.213,21.47,21.47,0,0,1-7.274,4.8,24.737,24.737,0,0,1-9.44,1.739,24.853,24.853,0,0,1-9.455-1.739,21.6,21.6,0,0,1-7.3-4.8,21.5,21.5,0,0,1-4.7-7.213,23.883,23.883,0,0,1-1.662-8.967,23.883,23.883,0,0,1,1.662-8.967,21.33,21.33,0,0,1,4.7-7.2,21.717,21.717,0,0,1,7.3-4.789,24.853,24.853,0,0,1,9.455-1.739,24.548,24.548,0,0,1,9.44,1.754,21.773,21.773,0,0,1,7.274,4.8,21.445,21.445,0,0,1,4.682,7.2A23.8,23.8,0,0,1,237.473-22.234Zm-10.553,0a19.214,19.214,0,0,0-.854-5.932,12.564,12.564,0,0,0-2.455-4.468,10.589,10.589,0,0,0-3.919-2.806,13.489,13.489,0,0,0-5.277-.976,13.687,13.687,0,0,0-5.322.976,10.562,10.562,0,0,0-3.934,2.806,12.564,12.564,0,0,0-2.455,4.468,19.214,19.214,0,0,0-.854,5.932,19.322,19.322,0,0,0,.854,5.963,12.563,12.563,0,0,0,2.455,4.468,10.414,10.414,0,0,0,3.934,2.791,13.878,13.878,0,0,0,5.322.961,13.677,13.677,0,0,0,5.277-.961,10.439,10.439,0,0,0,3.919-2.791,12.564,12.564,0,0,0,2.455-4.468A19.322,19.322,0,0,0,226.92-22.234ZM273.1-8.143A9.481,9.481,0,0,0,276.8-8.83a7.5,7.5,0,0,0,2.76-1.967,8.7,8.7,0,0,0,1.723-3.126,13.652,13.652,0,0,0,.595-4.194V-44.438H292.19v26.322a20.556,20.556,0,0,1-1.327,7.5,16.831,16.831,0,0,1-3.8,5.886,17.135,17.135,0,0,1-6.008,3.843A21.865,21.865,0,0,1,273.1.488a21.955,21.955,0,0,1-7.991-1.373A17.135,17.135,0,0,1,259.1-4.727a16.653,16.653,0,0,1-3.782-5.886,20.77,20.77,0,0,1-1.311-7.5V-44.438h10.309v26.291a13.652,13.652,0,0,0,.595,4.194,8.853,8.853,0,0,0,1.723,3.142,7.417,7.417,0,0,0,2.76,1.983A9.481,9.481,0,0,0,273.1-8.143Zm48.312-8.3V0H311.1V-44.438h14.457a29.668,29.668,0,0,1,8.22.991,15.432,15.432,0,0,1,5.551,2.76,10.447,10.447,0,0,1,3.126,4.179,13.843,13.843,0,0,1,.976,5.246,14.083,14.083,0,0,1-.579,4.087,12.376,12.376,0,0,1-1.723,3.553,13.335,13.335,0,0,1-2.806,2.913,14.9,14.9,0,0,1-3.828,2.1,9.689,9.689,0,0,1,1.937,1.281A7.622,7.622,0,0,1,338-15.464L347.456,0h-9.333A3.96,3.96,0,0,1,334.4-1.952l-7.381-12.9a3.107,3.107,0,0,0-1.144-1.22,3.827,3.827,0,0,0-1.845-.366Zm0-7.107h4.148a10.606,10.606,0,0,0,3.584-.534,6.476,6.476,0,0,0,2.425-1.479,5.633,5.633,0,0,0,1.372-2.211,8.487,8.487,0,0,0,.427-2.73,5.725,5.725,0,0,0-1.906-4.575q-1.906-1.647-5.9-1.647h-4.148ZM392.2-11.5a2.072,2.072,0,0,1,.732.137,1.99,1.99,0,0,1,.7.473l4.087,4.3A16.966,16.966,0,0,1,390.995-1.3,23.534,23.534,0,0,1,381.433.488a22.778,22.778,0,0,1-9.074-1.723,19.637,19.637,0,0,1-6.8-4.758,20.953,20.953,0,0,1-4.285-7.2,26.579,26.579,0,0,1-1.495-9.043,23.842,23.842,0,0,1,1.708-9.135,21.306,21.306,0,0,1,4.773-7.183,21.53,21.53,0,0,1,7.335-4.7,25.565,25.565,0,0,1,9.424-1.678,24.006,24.006,0,0,1,4.712.442,23.03,23.03,0,0,1,4.133,1.22A19.442,19.442,0,0,1,395.4-41.4a17.052,17.052,0,0,1,2.867,2.394l-3.477,4.667a4.427,4.427,0,0,1-.793.778,2.064,2.064,0,0,1-1.281.351,2.288,2.288,0,0,1-1.037-.244,11.461,11.461,0,0,1-1.037-.595q-.549-.351-1.2-.763a9.244,9.244,0,0,0-1.556-.763,12.855,12.855,0,0,0-2.1-.595,14.36,14.36,0,0,0-2.821-.244,12.9,12.9,0,0,0-5.124.991,11.235,11.235,0,0,0-3.98,2.836,13.154,13.154,0,0,0-2.592,4.468,17.529,17.529,0,0,0-.93,5.887,18.3,18.3,0,0,0,.93,6.069,13.328,13.328,0,0,0,2.532,4.468,10.742,10.742,0,0,0,3.736,2.76,11.171,11.171,0,0,0,4.575.946,21.9,21.9,0,0,0,2.562-.137,10.575,10.575,0,0,0,2.15-.473,9.946,9.946,0,0,0,1.891-.869,12.626,12.626,0,0,0,1.815-1.327,3.606,3.606,0,0,1,.793-.5A2.078,2.078,0,0,1,392.2-11.5Zm51.027-32.94v7.93H424.987v10.37h13.969v7.625H424.987V-7.93h18.239V0H414.617V-44.438Zm28.365,28V0H461.282V-44.438h14.457a29.668,29.668,0,0,1,8.22.991,15.432,15.432,0,0,1,5.551,2.76,10.447,10.447,0,0,1,3.126,4.179,13.843,13.843,0,0,1,.976,5.246,14.083,14.083,0,0,1-.579,4.087,12.376,12.376,0,0,1-1.723,3.553A13.335,13.335,0,0,1,488.5-20.71a14.9,14.9,0,0,1-3.828,2.1,9.689,9.689,0,0,1,1.937,1.281,7.622,7.622,0,0,1,1.571,1.861L497.638,0h-9.333a3.96,3.96,0,0,1-3.721-1.952l-7.381-12.9a3.107,3.107,0,0,0-1.144-1.22,3.827,3.827,0,0,0-1.845-.366Zm0-7.107h4.148a10.606,10.606,0,0,0,3.584-.534,6.476,6.476,0,0,0,2.425-1.479,5.633,5.633,0,0,0,1.372-2.211,8.487,8.487,0,0,0,.427-2.73,5.725,5.725,0,0,0-1.906-4.575q-1.906-1.647-5.9-1.647h-4.148Z" transform="translate(1287 2641)" fill="#e79e17"/>
    <path id="PLANCHE_D_AMBIANCE-3" data-name="PLANCHE D’AMBIANCE" d="M2.16,0V-26.226h9.648a18.344,18.344,0,0,1,4.626.5A8.813,8.813,0,0,1,19.548-24.3,5.389,5.389,0,0,1,21.3-22.068a7.542,7.542,0,0,1,.549,2.934,5.751,5.751,0,0,1-.252,1.7,5.007,5.007,0,0,1-.792,1.539,5.914,5.914,0,0,1-1.386,1.3,8.935,8.935,0,0,1-2.034,1.017,7.222,7.222,0,0,1,3.834,2.043A5.292,5.292,0,0,1,22.464-7.9a7.5,7.5,0,0,1-.648,3.114,7.131,7.131,0,0,1-1.9,2.511A9,9,0,0,1,16.83-.6a13.425,13.425,0,0,1-4.194.6ZM8.244-11.124V-4.59h4.284A5.372,5.372,0,0,0,14.5-4.9a3.115,3.115,0,0,0,1.2-.792,2.657,2.657,0,0,0,.594-1.1,4.834,4.834,0,0,0,.162-1.242,4.145,4.145,0,0,0-.189-1.3,2.143,2.143,0,0,0-.648-.972,3.166,3.166,0,0,0-1.215-.612,7.08,7.08,0,0,0-1.908-.216Zm0-4.068h3.168a10.439,10.439,0,0,0,1.818-.144,3.78,3.78,0,0,0,1.377-.5,2.314,2.314,0,0,0,.864-.99,3.713,3.713,0,0,0,.3-1.584,4.456,4.456,0,0,0-.234-1.557,2.231,2.231,0,0,0-.72-1,3.023,3.023,0,0,0-1.233-.54,8.466,8.466,0,0,0-1.773-.162H8.244ZM49.86-26.226v4.68H39.1v6.12H47.34v4.5H39.1V-4.68H49.86V0H32.976V-26.226ZM66.6-4.86h9.72V0h-15.8V-26.226H66.6ZM110.808,0h-4.716a2.18,2.18,0,0,1-1.3-.369,1.906,1.906,0,0,1-.711-.945l-1.548-4.572H92.556L91.008-1.314a2.027,2.027,0,0,1-.7.909A2.022,2.022,0,0,1,89.028,0H84.276L94.428-26.226h6.228ZM93.96-10.026h7.164l-2.412-7.182q-.234-.684-.549-1.611t-.621-2.007q-.288,1.1-.594,2.034t-.576,1.62ZM134.748-20.9a2.285,2.285,0,0,1-.567.648,1.269,1.269,0,0,1-.765.216,1.871,1.871,0,0,1-.891-.261q-.477-.261-1.08-.585a8.963,8.963,0,0,0-1.377-.585,5.509,5.509,0,0,0-1.764-.261,3.8,3.8,0,0,0-2.547.729,2.48,2.48,0,0,0-.837,1.971,1.816,1.816,0,0,0,.5,1.314,4.345,4.345,0,0,0,1.323.9,14.181,14.181,0,0,0,1.872.693q1.053.315,2.151.7a19.238,19.238,0,0,1,2.151.909,7.173,7.173,0,0,1,1.872,1.332,6.217,6.217,0,0,1,1.323,1.971,7.008,7.008,0,0,1,.5,2.8,9.12,9.12,0,0,1-.63,3.4,7.965,7.965,0,0,1-1.827,2.763,8.48,8.48,0,0,1-2.952,1.854,11.044,11.044,0,0,1-3.987.675,12.779,12.779,0,0,1-2.493-.252,14.805,14.805,0,0,1-2.457-.711,14.248,14.248,0,0,1-2.232-1.089,9.484,9.484,0,0,1-1.818-1.4l1.8-2.844a1.465,1.465,0,0,1,.558-.522,1.581,1.581,0,0,1,.774-.2,2.049,2.049,0,0,1,1.089.342q.549.342,1.242.756a10.108,10.108,0,0,0,1.593.756,5.973,5.973,0,0,0,2.124.342,4.044,4.044,0,0,0,2.574-.729,2.776,2.776,0,0,0,.918-2.313,2.186,2.186,0,0,0-.5-1.494,3.894,3.894,0,0,0-1.323-.954,12.19,12.19,0,0,0-1.863-.666q-1.044-.288-2.142-.639a15.671,15.671,0,0,1-2.142-.864,6.76,6.76,0,0,1-1.863-1.35,6.317,6.317,0,0,1-1.323-2.088,8.291,8.291,0,0,1-.5-3.087,7.325,7.325,0,0,1,.594-2.88,7.434,7.434,0,0,1,1.746-2.5,8.585,8.585,0,0,1,2.826-1.755,10.437,10.437,0,0,1,3.834-.657,14.377,14.377,0,0,1,2.349.189,12.348,12.348,0,0,1,2.169.558,11.91,11.91,0,0,1,1.917.882,8.838,8.838,0,0,1,1.593,1.161Zm31.14-5.328V-21.4h-7.38V0h-6.084V-21.4h-7.38v-4.824Zm12.924,0a5.164,5.164,0,0,1,.666.036,1.7,1.7,0,0,1,.486.135,1.622,1.622,0,0,1,.414.279,4.73,4.73,0,0,1,.45.486L193.284-9.54q-.072-.756-.108-1.467t-.036-1.341V-26.226H198.5V0h-3.168a2.919,2.919,0,0,1-1.188-.216,2.542,2.542,0,0,1-.936-.792L180.846-16.632q.054.684.09,1.341t.036,1.233V0h-5.364V-26.226ZM216.684,0h-6.12V-26.226h6.12Zm15.264-26.226a5.164,5.164,0,0,1,.666.036,1.7,1.7,0,0,1,.486.135,1.622,1.622,0,0,1,.414.279,4.73,4.73,0,0,1,.45.486L246.42-9.54q-.072-.756-.108-1.467t-.036-1.341V-26.226h5.364V0h-3.168a2.919,2.919,0,0,1-1.188-.216,2.542,2.542,0,0,1-.936-.792L233.982-16.632q.054.684.09,1.341t.036,1.233V0h-5.364V-26.226Zm43.56,21.834a10.352,10.352,0,0,0,2.232-.216,10.926,10.926,0,0,0,1.836-.576V-9.162h-2.592a1.259,1.259,0,0,1-.9-.306,1.019,1.019,0,0,1-.324-.774V-13.59h9.324V-2.52a13.743,13.743,0,0,1-2.1,1.269,13.545,13.545,0,0,1-2.322.873,17.287,17.287,0,0,1-2.628.5,26.038,26.038,0,0,1-3,.162,13.75,13.75,0,0,1-5.328-1.017,12.948,12.948,0,0,1-4.239-2.808,12.924,12.924,0,0,1-2.808-4.248,13.817,13.817,0,0,1-1.017-5.337,14.53,14.53,0,0,1,.972-5.391,12.142,12.142,0,0,1,2.781-4.239,12.617,12.617,0,0,1,4.374-2.772,15.811,15.811,0,0,1,5.733-.99,16.7,16.7,0,0,1,3.078.27,15.144,15.144,0,0,1,2.655.738,12.218,12.218,0,0,1,2.223,1.116,11.974,11.974,0,0,1,1.8,1.4L283.5-20.3a1.96,1.96,0,0,1-.6.594,1.432,1.432,0,0,1-.765.216,2.107,2.107,0,0,1-1.116-.36q-.72-.432-1.359-.747a8.292,8.292,0,0,0-1.305-.513,8.552,8.552,0,0,0-1.4-.288,13.777,13.777,0,0,0-1.656-.09,7.554,7.554,0,0,0-3.078.6,6.6,6.6,0,0,0-2.331,1.7,7.693,7.693,0,0,0-1.485,2.637,10.63,10.63,0,0,0-.522,3.429,11.037,11.037,0,0,0,.576,3.708,7.967,7.967,0,0,0,1.593,2.736,6.764,6.764,0,0,0,2.412,1.7A7.811,7.811,0,0,0,275.508-4.392Zm37.368-21.834v4.68H302.112v6.12h8.244v4.5h-8.244V-4.68h10.764V0H295.992V-26.226ZM329.616-9.7V0h-6.084V-26.226h8.532a17.509,17.509,0,0,1,4.851.585,9.108,9.108,0,0,1,3.276,1.629,6.166,6.166,0,0,1,1.845,2.466,8.17,8.17,0,0,1,.576,3.1,8.311,8.311,0,0,1-.342,2.412,7.3,7.3,0,0,1-1.017,2.1,7.871,7.871,0,0,1-1.656,1.719,8.794,8.794,0,0,1-2.259,1.242,5.719,5.719,0,0,1,1.143.756,4.5,4.5,0,0,1,.927,1.1L344.988,0H339.48a2.337,2.337,0,0,1-2.2-1.152l-4.356-7.614a1.834,1.834,0,0,0-.675-.72,2.259,2.259,0,0,0-1.089-.216Zm0-4.194h2.448a6.26,6.26,0,0,0,2.115-.315,3.822,3.822,0,0,0,1.431-.873,3.325,3.325,0,0,0,.81-1.305A5.009,5.009,0,0,0,336.672-18a3.378,3.378,0,0,0-1.125-2.7,5.237,5.237,0,0,0-3.483-.972h-2.448Z" transform="translate(1446 2764)" fill="#903"/>
    <path id="Path_1810" data-name="Path 1810" d="M0,0H690.428" transform="translate(1252.094 2681.5)" fill="none" stroke="#323f51" stroke-width="3"/>
    <g id="Group_503" data-name="Group 503" transform="translate(1812.393 2656.482) rotate(-90)">
      <path id="Path_211" data-name="Path 211" d="M9.807,0H144.258c5.418,0,9.8,5.04,9.8,11.262s-4.382,11.256-9.8,11.256H9.807C4.391,22.519,0,17.483,0,11.262S4.391,0,9.807,0Z" transform="translate(0 36.564)" fill="#e79e17"/>
      <path id="Path_212" data-name="Path 212" d="M12.215,0a12.783,12.783,0,0,1,8.646,3.3L60.5,39.869a10.654,10.654,0,0,1,0,15.923L20.862,92.362a12.964,12.964,0,0,1-17.279.008,10.642,10.642,0,0,1-.007-15.921L34.593,47.83,3.575,19.223A10.645,10.645,0,0,1,3.583,3.3,12.734,12.734,0,0,1,12.215,0Z" transform="translate(89.986)" fill="#e79e17"/>
    </g>
    <g id="Group_504" data-name="Group 504" transform="translate(1430.76 2733.799) rotate(90)">
      <path id="Path_211-2" data-name="Path 211" d="M7.558,0h103.61c4.175,0,7.552,3.885,7.552,8.68s-3.377,8.674-7.552,8.674H7.558C3.384,17.354,0,13.473,0,8.68S3.384,0,7.558,0Z" transform="translate(0 28.177)" fill="#903"/>
      <path id="Path_212-2" data-name="Path 212" d="M9.413,0a9.85,9.85,0,0,1,6.664,2.542L46.62,30.723a8.21,8.21,0,0,1,0,12.271L16.076,71.175a9.99,9.99,0,0,1-13.316.007,8.2,8.2,0,0,1-.005-12.269l23.9-22.054L2.755,14.813A8.2,8.2,0,0,1,2.76,2.542,9.812,9.812,0,0,1,9.413,0Z" transform="translate(69.345)" fill="#903"/>
    </g>
  </g>
</svg>