<?xml version="1.0" encoding="utf-8"?>
<svg viewBox="93.047 -270.932 778.945 872.632" xmlns="http://www.w3.org/2000/svg">
  <defs>
    <clipPath id="clip-path-6">
      <rect id="Rectangle_449" data-name="Rectangle 449" width="154.566" height="155.848" fill="none"/>
    </clipPath>
    <clipPath id="clip-path-9">
      <rect id="Rectangle_448-2" data-name="Rectangle 448" width="139.976" height="157.795" fill="none"/>
    </clipPath>
  </defs>
  <g id="Group_705" data-name="Group 705" transform="matrix(0.765521, 0.64314, -0.64314, 0.765521, 1086.288086, -53.067799)">
    <g id="Group_704" data-name="Group 704" transform="translate(-353.304 374.84)">
      <path id="Path_1099" data-name="Path 1099" d="M21.634,726.292a10.238,10.238,0,0,0-.4-3.232c-1.593-9.261-2.695-18.555-2.179-27.988.155-2.837.066-5.687.024-8.526a17.029,17.029,0,0,0-.335-4.558c-1.6-5.344-1.362-10.8-1.442-16.266-.041-2.835-.438-5.664-.652-8.5-.3-3.915-.673-7.825-.837-11.745-.5-11.761,1.163-23.605-1.412-35.283a2.566,2.566,0,0,1-.03-.655,126.31,126.31,0,0,0-1.255-20.262c-.486-3.887-.326-7.84-1.418-11.678a16.2,16.2,0,0,1-.382-4.555c.06-5.91.11-11.808-1.531-17.572a10.058,10.058,0,0,1-.2-1.952c-.677-8.7-1.094-17.428-2.1-26.087a180.692,180.692,0,0,1-1-20.944,27.118,27.118,0,0,0-.364-6.527c-1.2-4.742-1.145-9.528-1.138-14.335.011-6.562.039-13.122,0-19.682-.012-1.96-.216-3.92-.379-5.875-.359-4.344-.935-8.679-1.08-13.03-.217-6.539.346-13.1-1.3-19.565A21.645,21.645,0,0,1,2,422.251c0-4.591.059-9.186.063-13.775,0-1.527.253-3.175-.217-4.558-1.522-4.49-1.1-9.074-1.091-13.652,0-2.385,0-4.769,0-7.422-4.757-2.732-9.457-4.51-14.905-4.469-22.084.157-44.173.029-66.255.3-7.852.1-15.708.877-23.531,1.637-6.734.653-13.391,1.972-20.219,1.737a44.851,44.851,0,0,0-7.81.812c-7.352,1.062-14.69,2.242-22.045,3.276q-22.071,3.107-44.155,6.1c-5.412.736-10.826,1.646-16.266,1.945a76.045,76.045,0,0,0-13.59,1.922c-4.246,1.014-8.528,2.426-12.82,2.533-5.539.142-10.823,1.317-16.185,2.278a40.178,40.178,0,0,1-4.505.818c-7.188.448-14.389.7-21.571,1.228a37.4,37.4,0,0,0-9.008,1.533,24.767,24.767,0,0,1-7.686,1.254c-12.027.157-24.05.349-36.077.468a32.541,32.541,0,0,0-12.188,1.987c-.161,1.6-.311,2.882-.415,4.16-.631,7.715,1.925,15.114,2.259,22.742.143,3.25.77,6.48.929,9.732.226,4.582-.281,9.254.418,13.748a240.555,240.555,0,0,1,2.731,39.2,29.548,29.548,0,0,0,.324,5.877c1.388,7.137,1.453,14.335,1.358,21.561a57.447,57.447,0,0,0,.308,8.5c1.189,8.661,2.654,17.28,3.867,25.936a160.238,160.238,0,0,1,1.872,16.924,86.919,86.919,0,0,0,1.642,15.618c2.41,11.123,3.191,22.457,4.6,33.7,1.141,9.088,1.711,18.243,2.628,27.361.282,2.818.934,5.6,1.3,8.411a81.558,81.558,0,0,1,1,9.733c.11,12.681.017,25.366.042,38.047a33.316,33.316,0,0,0,.4,6.524c1.613,7.914,1.85,15.983,2.488,23.972.676,8.472.172,17.045.053,25.57a38.239,38.239,0,0,1-.884,6.429c-.978,5.181-.671,10.332-.134,15.862,2.2.159,4.113.4,6.025.417,8.31.044,16.629.258,24.927-.059,5.583-.213,10.946,1.012,16.1,2.417a251.176,251.176,0,0,1,26.609,9.183,42.346,42.346,0,0,0,15.892,3.191c8.356-.072,16.517,1.412,24.77,1.974,7.775.528,15.461,2.518,23.291,3.316,3.9.4,7.76,1.074,11.711,1.1a37.37,37.37,0,0,1,8.46.7,43.806,43.806,0,0,0,10.4.981c4.374.006,8.747.051,13.119.01a30.606,30.606,0,0,0,5.211-.367c5.78-1.073,11.538-2.257,17.3-3.434,7.675-1.571,15.518-2.47,22.8-5.664a5.066,5.066,0,0,1,1.9-.471c3.875-.053,7.138-1.889,10.465-3.529,5.638-2.778,10.521-6.865,16.538-9.075,3.852-1.415,7.358-3.789,10.978-5.8a14.953,14.953,0,0,0,3.718-2.556C-46.7,775.484-41.241,772.3-35.924,769a48.94,48.94,0,0,0,8.246-6.382q3.544-3.408,6.957-6.959a22.1,22.1,0,0,1,7.868-5.741A10.962,10.962,0,0,0-9.185,747.3c3.817-3.884,7.536-7.864,11.26-11.839,1.6-1.7,3.757-1.435,4.756.677a8.466,8.466,0,0,1,.484,1.213c1.172,3.965,2.674,7.874,3.407,11.921.887,4.892,3.618,8.323,7.333,11.188.708.545,1.842.534,2.862.806a13.826,13.826,0,0,0,.507-2.312c.1-5.463.127-10.931.241-16.395C21.78,737.137,20.733,731.727,21.634,726.292Z" fill="#fff6d5" transform="translate(355.708 -373.042)"/>
      <path id="Path_1100" data-name="Path 1100" d="M15.671,518.49c1.076.358,2.1.558,2.867-.613,1.3-1.984,2.636-3.952,4.557-6.827a25.631,25.631,0,0,1-.311,4.446,21.3,21.3,0,0,1-1.628,3.571c-4.6,9.315-4.873,10.83-3.965,22.027,1.282.777,2.008.009,2.556-1,.928-1.706,1.728-3.49,2.708-5.165.293-.5,1.011-.742,2.094-1.491-1.261,5.744-2.39,10.919-5.251,15.5a4.875,4.875,0,0,0-.362,4.774,8.187,8.187,0,0,0,1.777-1.435c1.551-2.3,2.628-4.981,5.042-6.52,1.722.72,1.222,1.952.887,2.8-1.6,4.06-3.221,8.125-5.07,12.073a16.262,16.262,0,0,0-.963,11.168c3.178-1.74,2.232-5.294,4.072-7.358,1.808-2.026,2.591-4.852,5.083-6.606a35.492,35.492,0,0,1-.56,3.769c-.809,3.158-1.586,6.337-2.637,9.417-.982,2.877-1.9,5.979-6.07,6.556.415,2.115.774,3.935,1.13,5.744.83-.134,1.343-.06,1.551-.279,1.613-1.691,2.277-4.211,5-5.789a11.137,11.137,0,0,1-.243,2.822c-1.577,3.831-3.162,7.663-4.937,11.405-.837,1.767-1.018,3.254.389,4.848,2.571-.419,2.812-3.012,4.294-4.545,1.838.673,1.9,2.188,1.368,3.62A110.606,110.606,0,0,1,24.4,606.874c-1.681,3.33-1.2,6.219.269,9.193,2.7.036,2.191-4,5.349-3.407-.318,3.319-1.218,6.366-3.78,8.648a3.563,3.563,0,0,0-1.113,4.145l3.193-.3c-.125,6.014-3.89,11.156-3.525,17.135.344,5.607-.76,11.34,1.605,17.252,3.253-2.464,5.3-5.688,7.853-9.623.94,4.214-.979,6.66-2.2,9.225-1.267,2.672-1.368,2.622-5.361,4.778V671.3c2.639-.557,3.657-2.254,4.282-4.342,1.034-3.467,3.156-6.127,6.722-9.072-1.175,3.935-2.484,6.883-2.853,9.943-.428,3.555-3.164,5.59-4.317,8.529H27.251c-.131.428-.427.868-.347,1.225a75.049,75.049,0,0,1,1.349,18.9c-.109,3.7-.02,7.4-.02,10.88,1.522.818,1.851-.133,2.241-.807.653-1.135,1.186-2.342,1.833-3.478.812-1.426,2.248-1.916,3.14-1.138a2.812,2.812,0,0,1,.415,3.583c-1.7,2.784-3.469,5.524-5.109,8.342a7.84,7.84,0,0,0-.843,6.6c2.663-.343,1.832-3.694,4.327-3.977.845,2.013-.288,3.792-.859,5.519-.886,2.689-2.173,5.243-3.248,7.871-.919,2.238-1.725,4.508-.687,7.444a7.758,7.758,0,0,0,1.854-1.367c1.353-1.919,2.58-3.927,4.54-6.963.284,3.571-1.041,5.349-1.789,7.25a63.925,63.925,0,0,1-2.649,5.985c-1.833,3.544-1.889,3.516-1.755,5.694,2.532-.629,3.138-4.226,6.154-4.066.172.228.453.472.41.569-2.308,5.088-4.644,10.162-7.215,15.75,1.133.069,2.161.444,2.566.1,1.145-.978,1.983-2.305,3.048-3.392a15.17,15.17,0,0,1,2.473-1.563c-1.752,4.09-3.033,7.491-4.634,10.734-2.5,5.071-5.2,10.047-7.9,15.017a1.783,1.783,0,0,1-1.645.549c-.62-.406-1.433-1.29-1.349-1.853a25.544,25.544,0,0,1,1.368-4.293c-2.111.427-2.111.427-4.2,2.773.552,1.8,1.97,3.9,1.473,5.347a24.648,24.648,0,0,1-4.683,7.719c-1.525,1.779-3.132.163-4.632-1.281-2.081,1.928-3.161,4.522-4.626,6.833a11.147,11.147,0,0,1-1.824,2.661,2.662,2.662,0,0,1-2.36.493A4.155,4.155,0,0,1,.25,797.649c-.341-1.358,1.486-2.678.177-4.514-3.34,1.373-6.735,2.417-8.11,6.523-.751,2.233-2.222,4.226-3.357,6.331-1.074,2-2.063,2.161-4.081.616-.51-.391-.972-.851-1.6-1.4-.9,1.035-1.708,2.057-2.612,2.984-1.076,1.106-2.248,2.209-3.982,1.566-1.765-.653-2-2.091-1.758-3.766A7.832,7.832,0,0,0-25.435,804c-1.418,2.5-2.545,4.558-3.751,6.568a13.424,13.424,0,0,1-1.634,2.047c-1.667,1.829-3.439,2.171-4.44.9-.881-1.12-.607-2.327.981-3.976.6-.628,1.313-1.156,1.93-1.771.453-.454.834-.979,1.288-1.522-3.681-.282-4.013-.213-8.973,1.866a39.3,39.3,0,0,1-1.863,4.73,9.872,9.872,0,0,1-2.512,2.912,2.45,2.45,0,0,1-3.547-.205,4.368,4.368,0,0,1-.57-2.932c.078-.786.766-1.512,1.43-2.71-2.055-.216-3.422.071-4.35,1.851a30.438,30.438,0,0,1-2.639,4.457c-1.417,1.859-3.325,1.272-4.223-1.212a19.959,19.959,0,0,1-.5-2.093c-5.391-.177-9.7,1.69-12.774,6.09-10.8-2.229-21.5-.733-32.13-1.174-6.67,2.476-13.412.19-20.117.288-9.4.139-18.8.167-28.2.241-3.5.029-7,.154-10.379-1.056a5.165,5.165,0,0,0-1.936-.3c-7.672.383-15.231-.781-22.792-1.747-5.19-.662-10.332-1.709-15.5-2.527-2.149-.338-4.321-.511-6.482-.78-3.018-.371-6.031-.792-9.053-1.124-1.951-.214-3.909-.4-5.869-.451-4.354-.1-8.759.315-12.935-1.411-12.01-.536-22.771-5.691-33.984-9.175-5.617-1.746-11.292-3.187-17.238-3.175-9.837.023-19.675.05-29.514.029-7.77-.018-8.191-.451-8.231-8.1-.017-3.5.015-7,.033-10.494a11.879,11.879,0,0,1,.094-3.267c2.449-8.152,1.059-16.494,1.273-24.746.142-5.432.45-10.9-1.234-16.256-.505-1.608-.276-3.469-.272-5.213a35.222,35.222,0,0,0-.966-9.083,29.4,29.4,0,0,1-.649-7.14c-.069-11.588-.042-23.177-.068-34.763a110.665,110.665,0,0,0-1.436-15.613c-.7-4.858.281-9.96.516-14.952a2.5,2.5,0,0,0-.029-.655c-2.551-11.117-2.017-22.594-4.048-33.793-1.871-10.314-3.138-20.737-4.6-31.125-.3-2.158-.272-4.36-.4-6.542a26.946,26.946,0,0,0-.355-5.224c-2.714-10.257-2.23-20.829-3.181-31.255-1.21-13.265-1.1-26.652-3.834-39.774a35.762,35.762,0,0,1-.269-3.918c-.3-3.248-.685-6.491-.961-9.741-.164-1.957-.243-3.923-.264-5.887-.086-8.516.183-17.016-1.26-25.5-.724-4.258-.18-8.724-.355-13.09a90.343,90.343,0,0,0-4.128-25.093,16.673,16.673,0,0,1-.944-6.39c.2-3.233,1.782-5.516,4.846-6.215a48.9,48.9,0,0,1,10.949-1.675c14.424.074,28.848.4,43.268.824a48,48,0,0,0,14.272-1.509c3.158-.866,6.343-1.633,9.522-2.423a12.823,12.823,0,0,1,3.2-.655c6.12.1,12.164-.848,18.223-1.212a169.016,169.016,0,0,0,27.813-3.95,18.531,18.531,0,0,1,3.875-.649c6.179-.051,12.125-1.438,18.066-2.911a16.278,16.278,0,0,1,2.574-.453c15.9-1.31,31.611-4.065,47.4-6.194,8.007-1.082,15.968-2.524,23.987-3.532,4.538-.57,9.158-.483,13.724-.889,5.874-.519,11.722-1.347,17.6-1.835,5.436-.456,10.894-.887,16.346-.9,22.081-.065,44.161.136,66.243.009,6.418-.036,11.859,2.388,17.292,5.24a4.242,4.242,0,0,1,2.254,3.721c.22,2.311.4,4.629.714,8.276,1.676-2.722,2.471-4.463,3.683-5.839,1.034-1.18,2.34-.929,3.27.848a37.119,37.119,0,0,1-5.605,12.508c1.412.131,2.382.222,3.7.343-.81,4.256-5.116,7.718-3.236,12.606,3.193-1.064,1.388-3.9,2.462-6.008l3.81-1.073c.6,1.78,1.556,3.339,1.556,4.9a10.628,10.628,0,0,1-2.585,7.275c-2.634,2.849-3.224,6.6-4.884,9.86-.815,1.6-.253,2.933,1.246,4.291,1.325-2.185,2.606-4.294,4.029-6.642.868,3.291.608,4.608-.938,8.114-1.014,2.292-3.312,4.092-3.022,7.247,2.094-.139,2.345-1.824,3.152-2.889.75-.988,1.485-1.984,2.164-2.892,1.566.637,1.193,1.451.859,2.244-1.875,4.421-3.775,8.831-5.629,13.261-.551,1.32-1.421,2.693.172,4.513,1.138-1.531,2.136-2.85,3.111-4.187q1.74-2.383,3.445-4.789a23.267,23.267,0,0,1,3.187-3.933c-.232,2.856-1.486,5.306-2.716,7.788-1.645,3.325-3.271,6.666-4.72,10.079a17.191,17.191,0,0,0-1.35,9.744c3.146-2.965,5.367-6.485,7.544-11.746,1.859,2.146,1.3,4.569.445,6.769-1.8,4.614-2.965,9.6-7.031,13.03-1.234,1.043-1.746,2.413-.158,4.108,3.767-3.632,5.605-8.739,9.318-12.321,2.038,1.8.625,3.212.336,4.525-.585,2.672-2.636,5.192-.593,8.048q-.853,2.8-1.711,5.589c-.484,1.568-1.906,2.938-.623,4.851.333.5-.113,1.67-.438,2.431-1.7,4-3.526,7.951-5.2,11.963a15.922,15.922,0,0,0-.6,3.253c2.729.048,2.735-3.241,5.018-3.472-1,3.493-1.885,6.8-2.936,10.043-.246.754-1.073,1.32-1.587,1.989.045.419.02.822.06,1.219.017.143.192.269.293.4.149-.3.492-.7.4-.871C16.412,518.946,15.991,518.745,15.671,518.49ZM-345.662,410.009c-.161,1.6-.311,2.882-.415,4.16-.631,7.715,1.925,15.114,2.259,22.742.143,3.25.77,6.48.929,9.732.226,4.582-.281,9.254.418,13.748a240.555,240.555,0,0,1,2.731,39.2,29.548,29.548,0,0,0,.324,5.877c1.388,7.137,1.453,14.335,1.358,21.561a57.447,57.447,0,0,0,.308,8.5c1.189,8.661,2.654,17.28,3.867,25.936a160.235,160.235,0,0,1,1.872,16.924,86.919,86.919,0,0,0,1.642,15.618c2.41,11.123,3.191,22.457,4.6,33.7,1.141,9.088,1.711,18.243,2.628,27.361.282,2.818.934,5.6,1.3,8.411a81.556,81.556,0,0,1,1,9.733c.11,12.682.017,25.366.042,38.047a33.315,33.315,0,0,0,.4,6.524c1.613,7.914,1.85,15.983,2.488,23.972.676,8.472.172,17.045.053,25.57a38.24,38.24,0,0,1-.884,6.429c-.978,5.181-.671,10.332-.134,15.862,2.2.158,4.113.4,6.025.416,8.31.044,16.629.258,24.927-.059,5.583-.213,10.946,1.012,16.1,2.417A251.15,251.15,0,0,1-245.2,801.58a42.348,42.348,0,0,0,15.892,3.191c8.356-.073,16.517,1.412,24.77,1.974,7.775.528,15.461,2.518,23.291,3.316,3.9.4,7.76,1.074,11.711,1.1a37.356,37.356,0,0,1,8.46.7,43.805,43.805,0,0,0,10.4.981c4.374.006,8.747.051,13.119.01a30.605,30.605,0,0,0,5.211-.367c5.78-1.073,11.538-2.257,17.3-3.434,7.675-1.571,15.518-2.47,22.8-5.664a5.066,5.066,0,0,1,1.9-.471c3.875-.053,7.138-1.889,10.465-3.529,5.638-2.778,10.521-6.865,16.538-9.075,3.852-1.415,7.358-3.789,10.978-5.8a14.956,14.956,0,0,0,3.718-2.556c4.353-4.674,9.815-7.856,15.132-11.155a48.941,48.941,0,0,0,8.246-6.382q3.544-3.408,6.957-6.958a22.1,22.1,0,0,1,7.868-5.741A10.961,10.961,0,0,0-6.781,749.1c3.817-3.884,7.536-7.864,11.26-11.84,1.6-1.7,3.757-1.435,4.756.677a8.464,8.464,0,0,1,.484,1.213c1.172,3.965,2.674,7.875,3.407,11.921.887,4.891,3.618,8.323,7.333,11.188.708.545,1.842.534,2.862.806a13.825,13.825,0,0,0,.507-2.311c.1-5.463.127-10.931.241-16.395.115-5.42-.932-10.83-.032-16.265a10.237,10.237,0,0,0-.4-3.232c-1.593-9.261-2.695-18.555-2.179-27.988.155-2.837.066-5.687.024-8.526a17.03,17.03,0,0,0-.335-4.558c-1.6-5.344-1.362-10.8-1.442-16.266-.041-2.835-.438-5.664-.652-8.5-.3-3.915-.673-7.825-.837-11.745-.5-11.761,1.163-23.605-1.412-35.283a2.565,2.565,0,0,1-.03-.655,126.312,126.312,0,0,0-1.255-20.262c-.486-3.887-.326-7.84-1.418-11.678a16.2,16.2,0,0,1-.382-4.555c.06-5.91.11-11.808-1.531-17.572a10.057,10.057,0,0,1-.2-1.952c-.677-8.7-1.094-17.428-2.1-26.087a180.693,180.693,0,0,1-1-20.944,27.118,27.118,0,0,0-.364-6.527c-1.2-4.742-1.145-9.528-1.138-14.335.011-6.562.039-13.122,0-19.682-.012-1.96-.216-3.92-.379-5.875-.359-4.344-.935-8.679-1.08-13.03-.217-6.539.346-13.1-1.3-19.565A21.645,21.645,0,0,1,4.4,424.05c0-4.591.059-9.186.063-13.775,0-1.527.253-3.175-.217-4.558-1.522-4.49-1.1-9.074-1.091-13.652,0-2.385,0-4.769,0-7.422-4.757-2.732-9.457-4.51-14.905-4.469-22.084.157-44.173.029-66.255.3-7.852.1-15.708.877-23.531,1.637-6.734.653-13.391,1.972-20.219,1.737a44.851,44.851,0,0,0-7.81.812c-7.352,1.062-14.69,2.242-22.045,3.276q-22.071,3.107-44.155,6.1c-5.412.736-10.826,1.646-16.266,1.945a76.045,76.045,0,0,0-13.59,1.922c-4.246,1.014-8.528,2.426-12.82,2.533-5.539.142-10.823,1.317-16.185,2.278a40.179,40.179,0,0,1-4.505.818c-7.188.448-14.389.7-21.571,1.228a37.4,37.4,0,0,0-9.008,1.533,24.767,24.767,0,0,1-7.686,1.254c-12.027.157-24.05.349-36.077.468A32.541,32.541,0,0,0-345.662,410.009ZM-92.688,811.25c5.678,0,9.822.1,13.959-.045a29.292,29.292,0,0,0,5.8-.984q21-5.144,41.975-10.385c1.261-.315,2.793-.487,3.657-1.3,3.653-3.448,8.289-4.576,12.884-5.66a31.7,31.7,0,0,0,14.485-7.18,20.1,20.1,0,0,1,3.811-2.514c6.239-3.46,10.673-8.849,15.594-14.092A33.3,33.3,0,0,1,9.069,758.005c-2.4-4.377-2-9.608-4.24-14.474-3.511,2.577-5.919,5.7-8.789,8.323-1.281,1.171-2.477,2.826-4,3.265-3.844,1.109-6.257,3.887-8.869,6.5-2.782,2.782-5.607,5.531-8.215,8.472-3.638,4.1-8.979,6.243-12.194,10.806a1.7,1.7,0,0,1-1.157.548c-2.695.186-4.16,2.2-5.86,3.861a21.445,21.445,0,0,1-6.832,4.875c-3.57,1.491-6.728,3.973-10.064,6.025a9.4,9.4,0,0,1-2.233,1.307c-3.245.869-5.779,2.978-8.615,4.587-5.67,3.215-11.278,6.756-18.1,7.181C-90.58,809.3-91.024,809.95-92.688,811.25ZM14.81,499.31c.441.116.883.229,1.325.346.952-1.649,1.936-3.28,2.829-4.959.131-.249-.167-.729-.327-1.328-1.5.7-2.96,1.379-4.617,2.156C14.312,496.929,14.559,498.121,14.81,499.31Zm-30,303.166c.065-.172.13-.343.195-.518-.154-.039-.383-.157-.447-.1a.638.638,0,0,0-.14.477C-15.582,802.391-15.332,802.431-15.194,802.476Z" transform="translate(353.304 -374.84)" fill-rule="evenodd"/>
      <path id="Path_1101" data-name="Path 1101" d="M-96.878,550.948c-.521,3.3-.994,6.618-1.611,9.9-.091.478-1.021,1.252-1.287,1.153-.694-.26-1.607-.828-1.774-1.452a7.549,7.549,0,0,1,1.328-7.274c.819-.963,1.569-1.986,2.354-2.981C-97.541,550.515-97.209,550.733-96.878,550.948Z" transform="translate(481.206 -285.567)" fill-rule="evenodd"/>
      <path id="Path_1102" data-name="Path 1102" d="M-97.879,590.268c-2.253-4.475-1.284-7.2,3.132-10.379C-95.768,583.267-96.676,586.282-97.879,590.268Z" transform="translate(482.67 -270.511)" fill-rule="evenodd"/>
      <path id="Path_1103" data-name="Path 1103" d="M-180.574,686.918c1.664-1.3,2.108-1.945,2.589-1.975,6.821-.424,12.43-3.965,18.1-7.18,2.837-1.608,5.37-3.718,8.615-4.587a9.392,9.392,0,0,0,2.233-1.307c3.336-2.052,6.494-4.534,10.064-6.025a21.445,21.445,0,0,0,6.832-4.875c1.7-1.661,3.165-3.675,5.86-3.861a1.7,1.7,0,0,0,1.157-.548c3.215-4.562,8.556-6.707,12.194-10.806,2.609-2.941,5.433-5.69,8.215-8.472,2.612-2.609,5.024-5.386,8.869-6.5,1.522-.439,2.719-2.094,4-3.265,2.87-2.618,5.278-5.745,8.789-8.323,2.239,4.866,1.836,10.1,4.24,14.474a33.3,33.3,0,0,0,10.411,11.082C-73.327,650-77.761,655.389-84,658.848a20.1,20.1,0,0,0-3.811,2.514,31.7,31.7,0,0,1-14.485,7.181c-4.594,1.083-9.231,2.212-12.884,5.659-.865.815-2.4.987-3.657,1.3q-20.978,5.228-41.975,10.385a29.283,29.283,0,0,1-5.8.984C-170.752,687.021-174.9,686.918-180.574,686.918Z" transform="translate(441.19 -250.509)" fill="#d6d0c0" fill-rule="evenodd"/>
      <g id="Group_703" data-name="Group 703" transform="translate(62.593 82.983)">
        <path id="Path_1107" data-name="Path 1107" d="M 240.239 64.475 C 239.936 65.842 240.097 66.885 239.492 67.491 C 237.119 69.86 233.684 70.466 229.979 70.55 C 222.229 70.716 214.473 70.948 206.721 71.163 C 202.565 71.402 198.428 71.806 194.324 72.373 C 183.84 73.499 173.457 76.339 162.685 74.9 C 159.495 74.326 156.148 74.644 153.227 75.799 C 152.666 76.06 152.029 76.204 151.376 76.218 C 142.651 75.974 134.153 77.645 125.56 78.457 C 118.54 79.126 111.504 78.856 104.549 80.813 C 100.746 81.887 96.242 81.494 92.05 81.639 C 87.527 81.795 82.987 81.959 78.485 81.824 C 75.629 81.833 72.795 81.422 70.133 80.613 C 66.622 79.292 62.54 79.265 59.002 80.54 C 52.107 82.813 44.577 83.649 37.147 82.967 C 34.928 82.765 32.602 83.135 30.376 82.958 C 25.169 82.407 19.932 83.791 16.219 86.7 C 12.838 89.327 8.817 89.419 4.547 89.485 C -0.444 89.564 -3.037 87.357 -4.684 84.309 C -4.989 83.747 -4.012 82.76 -3.456 81.625 C -2.451 81.989 -1.506 82.446 -0.64 82.986 C 2.338 85.884 7.686 86.467 11.563 84.315 C 18.574 80.87 25.976 80.29 33.832 80.305 C 41.581 80.314 49.271 79.655 56.544 77.056 C 60.754 75.691 65.358 75.242 69.868 75.755 C 83.323 76.821 96.76 77.011 110.221 74.772 C 112.779 74.475 115.365 74.352 117.95 74.406 C 123.403 74.267 128.936 74.815 134.146 72.803 C 134.752 72.617 135.406 72.549 136.053 72.602 C 149.067 73.172 161.477 69.389 174.367 68.768 C 181.342 68.434 188.242 66.711 195.181 65.637 C 196.445 65.412 197.73 65.272 199.024 65.22 C 212.537 64.958 226.041 64.728 240.239 64.475 Z" fill-rule="evenodd" style=""/>
        <path id="Path_1108" data-name="Path 1108" d="M 223.429 152.079 C 221.655 152.643 219.82 153.045 217.953 153.279 C 209.271 153.378 200.665 153.857 192.21 156.052 C 190.313 156.544 188.198 156.341 186.195 156.575 C 184.475 156.675 182.777 156.975 181.145 157.467 C 172.09 160.85 162.765 161.314 153.214 160.529 C 150.346 160.431 147.471 160.539 144.623 160.854 C 136.858 161.363 129.099 162.096 121.335 162.416 C 109.418 162.905 97.776 164.328 86.803 168.88 C 79.147 172.056 66.747 173.313 58.965 171.407 C 54.771 170.491 50.39 170.444 46.172 171.271 C 41.056 172.088 35.876 172.571 30.755 173.378 C 27.077 173.96 23.46 174.867 19.801 175.568 C 17.044 176.222 14.23 176.679 11.388 176.933 C 9.698 176.897 8.067 176.381 6.741 175.461 C 5.75 174.699 5.215 173.578 5.29 172.423 C 5.67 171.102 7.361 170.445 8.732 171.085 C 12.738 172.66 16.526 171.793 20.479 170.672 C 22.987 170.046 25.549 169.601 28.14 169.339 C 34.429 168.501 40.716 167.602 47.033 166.996 C 50.737 166.539 54.49 166.482 58.21 166.823 C 68.125 168.049 77.671 167.393 86.84 163.391 C 91.035 161.559 95.558 160.836 100.073 159.861 C 116.291 156.346 132.885 157.499 149.198 155.354 C 151.774 155.167 154.365 155.27 156.911 155.661 C 164.41 156.402 171.826 156.618 178.849 153.288 C 179.344 153.019 179.881 152.815 180.443 152.683 C 192.355 150.652 204.192 147.954 216.416 148.541 C 218.107 148.618 219.771 148.951 221.335 149.526 C 222.137 149.82 222.502 150.891 223.429 152.079 Z" fill-rule="evenodd" style="" transform="matrix(0.998553, 0.053772, -0.053772, 0.998553, 8.913944, -5.913771)"/>
        <path id="Path_1110" data-name="Path 1110" d="M 240.081 14.343 C 235.863 15.22 232.277 16.066 228.64 16.693 C 223.004 17.664 217.102 17.43 211.794 19.96 C 210.155 20.743 207.816 20.625 205.785 20.747 C 196.944 21.266 188.103 21.822 179.262 22.154 C 175.888 22.326 172.501 22.135 169.185 21.586 C 164.332 20.709 159.764 20.765 155.429 22.988 C 146.644 27.496 136.989 28.351 127.027 28.509 C 121.298 28.595 115.489 28.673 110.094 31.115 C 108.18 31.727 106.138 32.009 104.09 31.944 C 90.491 32.72 76.891 33.48 63.285 34.15 C 58.242 34.535 53.158 34.022 48.369 32.647 C 38.562 29.642 28.427 30.849 18.452 33.423 C 14.537 34.433 10.66 35.586 6.695 36.404 C 4.738 36.854 2.676 36.885 0.701 36.494 C -0.759 36.018 -1.846 34.973 -2.209 33.699 C -2.161 32.376 -1.347 31.155 -0.027 30.424 C 1.813 29.722 3.846 29.45 5.856 29.636 C 11.325 30.082 16.636 29.287 22.06 28.752 C 31.12 27.875 40.309 26.799 49.322 28.877 C 53.937 29.794 58.711 30.01 63.417 29.516 C 74.622 28.691 85.848 28.106 97.062 27.377 C 102.133 27.048 107.181 26.976 112.033 25.012 C 114.357 24.071 117.351 24.19 120.053 23.975 C 123.786 23.673 127.528 23.481 131.269 23.287 C 137.086 23.195 142.769 21.809 147.732 19.27 C 154.614 15.413 163.085 14.079 171.175 15.579 C 173.503 15.984 175.89 16.094 178.257 15.904 C 190.765 14.834 203.323 15.017 215.822 12.659 C 222.604 11.372 230.005 12.472 237.117 12.622 C 237.922 12.64 238.671 13.493 240.081 14.343 Z" fill-rule="evenodd" style=""/>
        <path id="Path_1111" data-name="Path 1111" d="M 23.001 130.314 C 22.228 131.65 21.543 133.026 20.691 134.245 C 20.14 135.039 19.375 136.126 18.655 136.202 C 14.236 136.674 10.267 139.867 5.729 139.44 C 2.646 139.154 1.576 138.017 1.008 134.422 C 0.83 133.423 0.704 132.411 0.631 131.393 C 0.716 130.732 0.876 130.088 1.107 129.48 C 1.852 129.823 2.857 129.906 3.193 130.505 C 4.877 133.502 7.22 134.072 10.096 133.365 C 11.625 132.99 13.22 132.998 14.717 132.516 C 16.007 132.232 17.215 131.557 18.229 130.556 C 22.494 125.203 27.869 125.185 33.093 126.301 C 35.668 126.927 38.299 127.159 40.923 126.995 C 43.814 126.747 46.704 126.5 49.592 126.254 C 53.814 125.901 58.116 126.035 62.237 125.016 C 66.115 123.915 69.877 122.294 73.455 120.182 C 77.313 118.07 81.666 117.662 85.749 119.029 C 90.27 120.33 94.944 120.679 99.564 120.059 C 105.548 119.3 111.564 119.065 117.562 118.499 C 121.301 118.146 125.088 118.389 128.602 115.895 C 129.82 115.028 131.639 115.293 133.189 115.123 C 136.495 114.762 139.839 114.936 142.945 112.889 C 143.995 112.435 145.112 112.252 146.225 112.354 C 148.86 112.088 151.467 111.513 154.01 110.637 C 157.831 109.515 161.918 109.756 165.898 109.567 C 166.27 109.547 166.773 110.528 166.976 111.154 C 167.074 111.471 166.712 112.118 166.427 112.471 C 166.137 112.879 165.741 113.159 165.304 113.264 C 159.978 113.67 154.845 115.414 149.644 116.708 C 147.476 117.247 145.271 117.239 143.197 118.558 C 141.971 119.186 140.654 119.513 139.321 119.521 C 135.324 119.845 131.335 119.992 127.517 121.916 C 126.443 122.274 125.33 122.424 124.216 122.361 C 114.658 123.138 105.097 123.832 95.543 124.707 C 92.386 124.994 89.289 125.061 86.471 123.421 C 80.324 119.851 74.658 122.777 69.488 126.345 C 67.015 128.096 64.229 129.11 61.365 129.302 C 54.252 129.886 47.14 130.578 40.023 130.971 C 37.172 131.131 34.312 130.582 31.452 130.451 C 29.035 130.337 26.607 130.362 23.001 130.314 Z" fill-rule="evenodd" style=""/>
        <path id="path-1" data-name="Path 1107" d="M 101.311 188.968 C 101.194 190.111 101.256 190.983 101.024 191.489 C 100.113 193.469 98.795 193.976 97.373 194.046 C 94.398 194.185 91.421 194.379 88.446 194.559 C 86.851 194.758 85.263 195.096 83.688 195.57 C 79.664 196.511 75.679 198.885 71.545 197.682 C 70.32 197.203 69.036 197.468 67.915 198.434 C 67.699 198.652 67.455 198.772 67.204 198.784 C 63.855 198.58 60.594 199.977 57.296 200.656 C 54.601 201.215 51.901 200.989 49.232 202.625 C 47.772 203.523 46.043 203.194 44.434 203.316 C 42.698 203.446 40.956 203.583 39.228 203.47 C 38.132 203.478 37.044 203.134 36.022 202.458 C 34.675 201.354 33.108 201.331 31.75 202.397 C 29.104 204.297 26.214 204.996 23.362 204.426 C 22.511 204.257 21.618 204.566 20.763 204.418 C 18.765 203.958 16.755 205.114 15.33 207.546 C 14.032 209.742 12.489 209.819 10.85 209.874 C 8.934 209.94 7.939 208.095 7.307 205.547 C 7.19 205.078 7.565 204.253 7.778 203.304 C 8.164 203.608 8.527 203.99 8.859 204.442 C 10.002 206.864 12.055 207.351 13.543 205.552 C 16.234 202.673 19.075 202.188 22.09 202.2 C 25.064 202.208 28.015 201.657 30.807 199.485 C 32.423 198.344 34.19 197.968 35.921 198.397 C 41.085 199.288 46.242 199.447 51.409 197.575 C 52.39 197.327 53.383 197.224 54.375 197.269 C 56.468 197.153 58.592 197.611 60.591 195.929 C 60.824 195.774 61.075 195.717 61.323 195.761 C 66.318 196.238 71.081 193.076 76.028 192.557 C 78.705 192.277 81.354 190.837 84.017 189.939 C 84.502 189.751 84.995 189.634 85.492 189.591 C 90.678 189.372 95.861 189.18 101.311 188.968 Z" fill-rule="evenodd" style="" transform="matrix(0.991261, 0.131917, -0.131917, 0.991261, 26.781648, -5.420026)"/>
      </g>
    </g>
  </g>
  <g id="Group_1192" data-name="Group 1192" transform="matrix(1, 0, 0, 1, -742.850586, -525.920959)">
    <g id="Group_1172" data-name="Group 1172" transform="translate(23905 -3962.757)">
      <g id="Group_1169" data-name="Group 1169" transform="matrix(1.697132, 0, 0, 1.832988, -22876.050781, 4241.873535)" style="">
        <g id="Group_1095" data-name="Group 1095" transform="translate(0 0)" clip-path="url(#clip-path-6)">
          <path id="Path_1627" data-name="Path 1627" d="M 101.807 154.515 C 104.47 152.992 110.574 136.544 110.574 136.544 C 110.574 136.544 157.792 117.823 154.389 68.057 C 150.986 18.291 93.138 -17.446 41.667 8.929 C -9.804 35.304 -8.388 97.029 17.848 124.049 C 46.348 153.401 92.286 145.049 92.286 145.049 C 92.286 145.049 98.161 156.991 101.142 155.288" transform="translate(0 0.002)" fill="#f297bc"/>
          <path id="Path_1628" data-name="Path 1628" d="M24,28.5s-4.682-9.571-10.212-4.892S20.768,42.549,25.7,42.329c4.68-.212,15.527-16.8,9.571-21.057C28.913,16.732,24,28.5,24,28.5" transform="translate(20.858 34.024)" fill="#ab003d"/>
          <path id="Path_1629" data-name="Path 1629" d="M45.768,27.293s-4.68-9.571-10.212-4.892,6.983,18.936,11.912,18.716c4.68-.212,15.318-15.739,9.359-19.993-6.353-4.54-11.06,6.168-11.06,6.168" transform="translate(57.471 33.64)" fill="#ab003d"/>
          <path id="Path_1630" data-name="Path 1630" d="M24.213,27.883c.005.038.276.461.855,1.341a23.234,23.234,0,0,0,2.652,3.245,16.8,16.8,0,0,0,4.473,3.309,13.551,13.551,0,0,0,5.956,1.368l.4.016.2.008.1.005H38.9l.024,0-.172.013h.016l.944-.094c.306-.038.652-.056.92-.1l.619-.172a10.353,10.353,0,0,0,2.666-1.016,15.8,15.8,0,0,0,2.365-1.62A24.353,24.353,0,0,0,48.2,32.275a24.057,24.057,0,0,0,2.51-3.4c.512-.872.807-1.368.807-1.368l.1-.166a1.412,1.412,0,0,1,2.6,1.016s-.038.182-.113.52a13.2,13.2,0,0,1-.37,1.354,21.76,21.76,0,0,1-2.089,4.548,19.213,19.213,0,0,1-2.076,2.757,16.413,16.413,0,0,1-3.038,2.58,14.291,14.291,0,0,1-4.063,1.834l-1.2.295c-.351.062-.636.083-.96.126l-.941.115-.249.019h-.206l-.276,0-.55-.005a16.637,16.637,0,0,1-4.371-.587,15.273,15.273,0,0,1-3.964-1.673,17.017,17.017,0,0,1-5.374-5.055,19.724,19.724,0,0,1-2.3-4.489,12.833,12.833,0,0,1-.416-1.36c-.075-.33-.115-.5-.115-.5l-.1-.424a1.406,1.406,0,0,1,2.741-.633c.008.035.016.075.021.11" transform="translate(36.012 44.807)"/>
        </g>
      </g>
      <g id="Group_1165" data-name="Group 1165" transform="matrix(1.797007, 0, 0, 1.705492, -23042.726562, 4480.949707)" style="">
        <g id="Group_1093-2" data-name="Group 1093" transform="translate(0 0)" clip-path="url(#clip-path-9)">
          <path id="Path_1621-2" data-name="Path 1621" d="M 104.717 157.36 C 103.512 162.305 7.545 165.114 0.967 84.273 C -5.499 4.817 67.968 -12.465 104.5 7.6 C 136.995 25.454 154.564 73.224 124.5 113.027 C 110.719 131.278 86.433 136.957 88.224 141 C 90.701 146.579 109.647 151.095 109.516 153.639" fill="#f3d643" transform="translate(0 0.001)"/>
          <path id="Path_1622" data-name="Path 1622" d="M24.763,29.165a3.308,3.308,0,1,1-3.375-3.24,3.305,3.305,0,0,1,3.375,3.24" transform="translate(24.956 35.652)"/>
          <path id="Path_1623" data-name="Path 1623" d="M46.12,28.728a3.309,3.309,0,1,1-3.373-3.24,3.3,3.3,0,0,1,3.373,3.24" transform="translate(54.322 35.051)"/>
          <path id="Path_1624" data-name="Path 1624" d="M25.262,30.934s.062.178.173.432L26,32.591a21.644,21.644,0,0,0,2.551,4.031,20.093,20.093,0,0,0,2.131,2.209,15.313,15.313,0,0,0,2.753,1.838,13.222,13.222,0,0,0,3.3,1.164,15.788,15.788,0,0,0,3.6.371c.7-.036,1.482-.021,2.1-.1l1.67-.295c.565-.192,1.142-.337,1.7-.508l1.572-.722a15.337,15.337,0,0,0,2.689-1.922,17.275,17.275,0,0,0,2.057-2.273,20.731,20.731,0,0,0,2.408-4.116c.473-1.074.679-1.7.667-1.665a1.253,1.253,0,0,1,2.47.428l-.069.591a14.491,14.491,0,0,1-.28,1.551,20.448,20.448,0,0,1-2.033,5.254,17.231,17.231,0,0,1-2.264,3.147,16.876,16.876,0,0,1-3.392,2.853c-.67.39-1.382.734-2.095,1.1-.746.278-1.506.551-2.285.8-.822.178-1.677.323-2.525.466-.8.1-1.451.09-2.185.14a18.443,18.443,0,0,1-4.886-.549A15.3,15.3,0,0,1,31.25,44.6a15.968,15.968,0,0,1-3.475-2.734c-.482-.506-.9-1.036-1.323-1.53q-.538-.8-1.038-1.546A20.146,20.146,0,0,1,23.229,33.6a13.852,13.852,0,0,1-.33-1.546c-.052-.371-.078-.57-.078-.57a1.256,1.256,0,0,1,2.43-.589Z" transform="translate(31.365 40.662)"/>
          <path id="Path_1625" data-name="Path 1625" d="M30.439,37.932a9.8,9.8,0,1,0-9.6,10,9.8,9.8,0,0,0,9.6-10" transform="translate(14.906 38.959)" fill="#ce4a70"/>
          <path id="Path_1626" data-name="Path 1626" d="M60.246,37.931a9.8,9.8,0,1,0-9.6,10,9.8,9.8,0,0,0,9.6-10" transform="translate(55.896 38.961)" fill="#ce4a70"/>
        </g>
      </g>
    </g>
  </g>
</svg>