<svg viewBox="329.782 514.055 1032.234 810.573" xmlns="http://www.w3.org/2000/svg"><defs><clipPath id="selvomsorgovergang_svg__a"><path d="M0 0h1166v1094H0z"/></clipPath><clipPath id="selvomsorgovergang_svg__n"><path d="M0 0h1166v1094H0z"/></clipPath><clipPath id="selvomsorgovergang_svg__o"><path d="M0 0h545v513H0z"/></clipPath><clipPath id="selvomsorgovergang_svg__p"><path fill="#323f51" d="M0 0h35.569v27.465H0z" data-name="Rectangle 374"/></clipPath><clipPath id="selvomsorgovergang_svg__q"><path d="M0 0h1166v1094H0z"/></clipPath><clipPath id="selvomsorgovergang_svg__e"><path fill="none" d="M0 0h242.065v244.073H0z" data-name="Rectangle 449"/></clipPath><clipPath id="selvomsorgovergang_svg__f"><path fill="none" d="M0 0h219.217v247.122H0z" data-name="Rectangle 448"/></clipPath><clipPath id="selvomsorgovergang_svg__c"><path fill="none" d="M0 0h228.937v242.798H0z" data-name="Rectangle 451"/></clipPath><clipPath id="selvomsorgovergang_svg__d"><path fill="none" d="M0 0h229.531v241.419H0z" data-name="Rectangle 482"/></clipPath><clipPath id="selvomsorgovergang_svg__b"><path fill="none" d="M0 0h217.813v219.517H0z" data-name="Rectangle 450"/></clipPath><clipPath id="selvomsorgovergang_svg__g"><path d="M0 0h1557v1263H0z"/></clipPath><clipPath id="selvomsorgovergang_svg__l"><path d="M0 0h1166v1094H0z"/></clipPath><clipPath id="selvomsorgovergang_svg__m"><path d="M0 0h545v513H0z"/></clipPath><filter id="selvomsorgovergang_svg__h" width="641.27" height="152.85" x="190" y="556.779" filterUnits="userSpaceOnUse"><feOffset dy="3"/><feGaussianBlur result="blur" stdDeviation="3"/><feFlood flood-opacity=".161"/><feComposite in2="blur" operator="in"/><feComposite in="SourceGraphic"/></filter><filter id="selvomsorgovergang_svg__i" width="137.455" height="541.215" x="653.348" y="624.203" filterUnits="userSpaceOnUse"><feOffset dy="3"/><feGaussianBlur result="blur-2" stdDeviation="3"/><feFlood flood-opacity=".161"/><feComposite in2="blur-2" operator="in"/><feComposite in="SourceGraphic"/></filter><filter id="selvomsorgovergang_svg__j" width="77.867" height="541.215" x="713.213" y="100.988" filterUnits="userSpaceOnUse"><feOffset dy="3"/><feGaussianBlur result="blur-3" stdDeviation="3"/><feFlood flood-opacity=".161"/><feComposite in2="blur-3" operator="in"/><feComposite in="SourceGraphic"/></filter><filter id="selvomsorgovergang_svg__k" width="541.215" height="77.867" x="712.744" y="624.205" filterUnits="userSpaceOnUse"><feOffset dy="3"/><feGaussianBlur result="blur-4" stdDeviation="3"/><feFlood flood-opacity=".161"/><feComposite in2="blur-4" operator="in"/><feComposite in="SourceGraphic"/></filter></defs><g data-name="Group 1411"><path fill="none" d="M373.518 57.188 195.634-86.813l152.72-188.654 177.884 144.001z" data-name="Rectangle 451"/></g><g data-name="Group 1216"><g data-name="Group 1209"><path fill="none" stroke-linecap="round" stroke-linejoin="round" d="M2080.948 10372.722c.734 62.83 1.463 105.127 2.197 167.962a290.471 290.471 0 0 0 60.401 1.207" data-name="Path 1765" style="stroke:#080d0d;stroke-width:5px" transform="translate(-927.301 -9246.608)"/><path stroke-miterlimit="10" d="M2080.486 9783.604c46.79 27.71 75.154 80.818 95.255 133.78 38.12 100.81 54.756 209.167 48.74 317.455-1.171 20.787-3.328 42.099-12.277 60.601-11.359 23.487-32.499 39.906-54.656 51.683-42.057 22.348-89.473 30.809-136.381 33.503-39.879 2.29-80.833.428-118.044-15.055s-70.422-46.405-82.038-87.215c-6.877-24.156-5.918-49.952-4.896-75.175 1.005-24.829 2.011-49.658 3.018-74.486 2.693-66.484 5.59-134.137 26.501-196.822 20.911-62.686 62.95-120.805 121.859-142.45 18.754-6.895 41.611-23.165 61.18-19.72 42.503 7.481 22.321 2.699 51.739 13.899" data-name="Path 1767" style="stroke:#080d0d;stroke-width:5px;fill:#59b6c8" transform="translate(-927.301 -9246.608)"/><path fill="none" stroke-linecap="round" stroke-linejoin="round" d="M2208.558 10024.213c33.47 10.295 59.365 52.991 59.398 97.93.007 10.642-1.335 21.456-5.021 30.95-6.85 17.622-20.69 28.404-33.926 37.972-47.138 34.056-127.853-176.26-177.555-149.143" data-name="Path 1771" style="stroke:#080d0d;stroke-width:5px" transform="translate(-927.301 -9246.608)"/><path fill="none" stroke="#353f4f" stroke-linecap="round" stroke-miterlimit="10" d="M2040.754 9906.37c11.788 2.507 20.613 8.884 29.395 17.065" data-name="Path 1769" style="stroke-width:5px" transform="translate(-927.301 -9246.608)"/><path fill="#323f51" d="M2002.128 10007.71a47.515 47.515 0 0 0-13.573 8.702c-2.007 1.791-2.917 3.792-.945 5.928 1.889 2.045 3.839 1.069 5.638-.502 14.052-12.268 29.458-12.994 45.811-5.51.816.374 1.651.705 2.452 1.098 2.018.988 3.959 1.043 5.157-1.084 1.244-2.208.524-4.098-1.767-5.24-13.709-6.804-27.831-9.362-42.773-3.392Z" data-name="Path 1772" transform="rotate(179.719 1564.714 5389.475)"/><path fill="none" stroke-linecap="round" stroke-linejoin="round" d="M1956.879 10380.983c2.747 60.268 2.828 100.747.239 161.018a135.12 135.12 0 0 0-60.725.919" data-name="Path 1766" style="stroke:#080d0d;stroke-width:5px" transform="translate(-927.301 -9246.608)"/><path fill="none" stroke="#353f4f" stroke-linecap="round" stroke-miterlimit="10" d="M1980.686 9907.295c-11.788 2.507-20.623 8.884-29.394 17.065" data-name="Path 1768" style="stroke-width:5px" transform="translate(-927.301 -9246.608)"/><path fill="none" stroke-linecap="round" stroke-linejoin="round" d="M1829.255 9986.522c-26.588 30.163-235.411 104.67-213.813-15.068" data-name="Path 1770" style="stroke:#080d0d;stroke-width:5px" transform="translate(-927.301 -9246.608)"/><g data-name="Group 831"><g data-name="Group 840"><g data-name="Group 906"><g data-name="Group 316"><g data-name="Group 895"><g data-name="Group 894"><path stroke-miterlimit="10" d="M762.419-260.176c-15.234 5.184-26.481 19.024-35.3 33.347a230.208 230.208 0 0 0-31.874 90.422c-.809 6.2-1.362 12.617.233 18.639 2.021 7.641 7.3 13.828 13.133 18.707 11.07 9.264 24.478 14.776 38.058 18.559a77.71 77.71 0 0 0 35.251 1.521c11.75-2.191 21.326-6.594 26.991-17.878 3.353-6.678-9.849-35.556-5.045-46.17 11.1-24.81 21.695-38.705 19.052-58.508s-11.726-39.6-27.769-49.728c-5.107-3.227-10.893-9.475-16.813-9.708-12.854-.507-6.681-.628-15.914.8" data-name="Path 580" style="stroke:#080d0d;stroke-width:1.7727px;fill:#59b6c8" transform="matrix(-2.76532 -.33655 -.34496 2.83447 2595.682 1587.35)"/><path fill="none" stroke-linecap="round" stroke-linejoin="round" d="M42.011-23.128c4.532-3.031 21.872 15.251 23.26 17.539 6.11 10.071 6.856 28.283 6.617 40.994" data-name="Path 584" style="stroke:#080d0d;stroke-width:1.77281px" transform="matrix(2.52793 -1.21663 -1.17285 -2.58211 525.522 1047.685)"/><path fill="none" stroke-linecap="round" stroke-linejoin="round" d="M137.536 100.734c-1.947 4.413-17.648 40.648-31.795 47.801" data-name="Path 1339" style="stroke:#080d0d;stroke-width:1.77221px" transform="matrix(-2.05425 -1.8232 -2.00971 2.08846 885.88 887.19)"/></g></g></g><g data-name="Group 319"><g data-name="Group 317"><path fill="none" stroke-linecap="round" stroke-linejoin="round" d="M.596 6.854c2.118.467 4.3.568 6.452.3" data-name="Path 586" style="stroke-width:1.45036px;stroke:#000" transform="matrix(-2.77668 .16737 .21682 2.85162 454.281 708.452)"/></g><g data-name="Group 318"><path fill="none" stroke-linecap="round" stroke-linejoin="round" d="M47.741 55.73c-2.118.467-6.047-.479-8.132.487" data-name="Path 588" style="stroke-width:1.45036px;stroke:#000" transform="matrix(-2.64693 -.854 -.92299 2.70732 685.858 624.023)"/></g><path fill="none" stroke-linecap="round" stroke-linejoin="round" d="M65.781 66.667s-1.314-1.421-3.231-1.709c-4.713-.708-13.987-1.863-21.757-1.367" data-name="Path 589" style="stroke-width:1.45036px;stroke:#000" transform="matrix(-2.76532 -.33655 -.34496 2.83447 652.693 627.267)"/></g><g data-name="Group 1541"><g data-name="Group 1539"><path d="M-157.42-5.226h-.037a4.28 4.28 0 0 1-3.283-1.267 5.035 5.035 0 0 1-1.137-3.552c-.02-1.3.438-2.56 1.28-3.519a4.312 4.312 0 0 1 3.218-1.384h.01c1.318.001 2.565.616 3.402 1.678a1.944 1.944 0 0 0-1.361-.491h-.034c-1.466-.084-2.468 1.517-1.806 2.882.091.186.208.357.35.504a2.1 2.1 0 0 0 1.515.652h.086c1.059-.011 1.892-.946 1.824-2.05a2.261 2.261 0 0 0-.141-.852 5.35 5.35 0 0 1 .665 2.651 4.92 4.92 0 0 1-1.258 3.453 4.422 4.422 0 0 1-3.293 1.295Zm3.878-7.412a4.718 4.718 0 0 0-.425-.632c.186.175.332.39.427.631Z" data-name="Exclusion 2" style="stroke-width:2.52707px;fill:#323f51" transform="matrix(-.97008 1.27975 1.33694 .94025 372.638 962.513)"/><path d="M-119.721-1.678h-.037a4.28 4.28 0 0 1-3.283-1.267 5.035 5.035 0 0 1-1.137-3.552c-.02-1.3.438-2.56 1.28-3.519a4.312 4.312 0 0 1 3.218-1.384h.01c1.318.001 2.565.616 3.402 1.678a1.944 1.944 0 0 0-1.361-.491h-.034c-1.466-.084-2.468 1.517-1.806 2.882.091.186.208.357.35.504a2.1 2.1 0 0 0 1.515.652h.086c1.059-.011 1.892-.946 1.824-2.05a2.261 2.261 0 0 0-.141-.852 5.35 5.35 0 0 1 .665 2.651 4.92 4.92 0 0 1-1.258 3.453 4.422 4.422 0 0 1-3.293 1.295Zm3.878-7.412a4.718 4.718 0 0 0-.425-.632c.186.175.332.39.427.631Z" data-name="Exclusion 2" style="stroke-width:2.52707px;fill:#323f51" transform="matrix(-.97008 1.27975 1.33694 .94025 341.89 905.818)"/></g></g></g></g></g><path fill="none" stroke-linecap="round" stroke-linejoin="round" d="M1469.303 10444.018c.493-67.193 2.152-103.652 2.645-170.85 12.543-10.648 24.754-9.266 38.256-21.888" data-name="Path 1765" style="stroke:#080d0d;stroke-width:5px" transform="rotate(180 1038.822 5773.141)"/><path fill="none" stroke-linecap="round" stroke-linejoin="round" d="M1338.447 10440.683c.457-67.193 1.993-103.652 2.45-170.85 11.616-10.648 22.924-9.266 35.428-21.888" data-name="Path 1765" style="stroke:#080d0d;stroke-width:5px" transform="rotate(180 906.454 5769.806)"/><g data-name="Group 840"><path fill="#557591" d="M884.515 2096.08c6.719-.205 12.627-6.571 13.197-14.22.57-7.649-4.413-13.683-11.132-13.478-6.718.205-12.626 6.571-13.197 14.22-.57 7.649 4.415 13.683 11.132 13.478Z" data-name="Path 1178" transform="matrix(-.48239 -1.43748 1.30962 -.43948 367.334 3362.623)"/><path fill="#557591" d="M2623.981 1130.392c-5.303-14.467-22.143-23.106-37.611-19.294-15.468 3.814-23.708 18.63-18.404 33.098 5.304 14.468 22.143 23.106 37.612 19.294 15.468-3.813 23.707-18.63 18.403-33.098Z" data-name="Path 1177"/><path fill="#557591" d="M781.267 2040.404c13.905-.453 26.135-14.511 27.313-31.4 1.18-16.889-9.133-30.212-23.04-29.761-13.905.453-26.131 14.51-27.313 31.401-1.18 16.889 9.137 30.212 23.04 29.76Z" data-name="Path 1179" transform="matrix(-.48239 -1.43748 1.30962 -.43948 258.01 3083.949)"/><path fill="#557591" d="M548.041 1743.3c59.393-10.962 116.504-18.862 170.717-11.226 52.521 7.473 103.108 25.772 149.364 54.03 18.73 11.37 38.067 28.358 33.295 58.923-2.981 19.078-14.878 38.519-26.806 56.127-17.304 25.54-36.387 50.726-58.754 68.736-39.675 31.937-82.258 35.955-121.436 38.405-98.466 6.158-196.87 11.345-290.895 3.582-33.976-2.809-67.594-7.371-96.915-20.493-15.938-7.135-31.654-19.34-30.389-42.778 1.816-33.635 23.002-67.047 48.044-86.092 50.111-38.1 56.842-51.365 108.143-73.101 21.796-9.238 80.197-35.109 134.626-49.596" data-name="Path 517" transform="matrix(-1.49303 -.2644 .24088 -1.36023 2646.255 3587.403)"/><g clip-path="url(#selvomsorgovergang_svg__b)" data-name="Group 1097" transform="matrix(-.72084 0 0 .72179 4107.686 968.071)"><path fill="#a17eaa" d="M32.722 199.052c33.708 22.873 76.857 23.725 105.577 16.289 63.176-16.363 92.008-78.38 74.441-137.669-12.547-42.353-78.691-109.987-161.08-60.013-79.743 48.378-33.885 163.139-33.885 163.139S-.478 206.181.011 208.037s32.711-8.986 32.711-8.986" data-name="Path 1631"/><path d="m93.071 148.578-.13-.871c-.067-.582-.189-1.4-.226-2.449a42.154 42.154 0 0 1 .437-8.745 32.286 32.286 0 0 1 1.434-5.814 29.487 29.487 0 0 1 2.935-6.24 24.637 24.637 0 0 1 5.043-5.725 23.83 23.83 0 0 1 14.766-5.375 15.548 15.548 0 0 1 3.931.367 17.07 17.07 0 0 1 3.668.982 25.313 25.313 0 0 1 6.181 3.205 32.361 32.361 0 0 1 4.617 3.865 42.041 42.041 0 0 1 5.462 6.855c.589.871.956 1.619 1.238 2.119.274.526.422.8.422.8a1.956 1.956 0 0 1-3.22 2.175l-.115-.133s-.167-.2-.478-.56c-.341-.378-.841-.926-1.478-1.627a47.264 47.264 0 0 0-5.736-5.243 27.876 27.876 0 0 0-9.066-4.854 10.948 10.948 0 0 0-2.635-.551 11.106 11.106 0 0 0-2.694-.126 11.1 11.1 0 0 0-2.516.267 12.549 12.549 0 0 0-2.961.871 17.069 17.069 0 0 0-4.794 2.644 21.579 21.579 0 0 0-3.8 3.954 31.424 31.424 0 0 0-2.653 4.7 39.907 39.907 0 0 0-1.738 4.739 51 51 0 0 0-1.645 7.611l-.274 2.175c-.063.5-.07.763-.07.763l-.011.111a1.96 1.96 0 0 1-3.891.107" data-name="Path 1632"/><path d="M128.186 92.549c.015.037.4.337 1.186.978a42.422 42.422 0 0 0 3.209 2.386 18.01 18.01 0 0 0 4.528 2.227 8.267 8.267 0 0 0 2.364.374 7 7 0 0 0 2.279-.33l.145-.026.07-.015c-.119.048.285-.111-.267.107l.011-.007.026-.011.052-.022.422-.178.837-.348c.537-.245.515-.374.837-.508a8 8 0 0 0 1.675-1.582 14.661 14.661 0 0 0 2.226-4.357 39.637 39.637 0 0 0 1.267-5.288 1.953 1.953 0 1 1 3.883-.426 18.969 18.969 0 0 1 .422 1.868 19.572 19.572 0 0 1 .2 4.928 16.415 16.415 0 0 1-2.231 7.159 13.922 13.922 0 0 1-3.09 3.524 18.826 18.826 0 0 1-2.227 1.386l-.826.382-.411.193-.385.156-.148.041-.3.089a13.23 13.23 0 0 1-4.865.563 12.539 12.539 0 0 1-4.458-1.1 17.354 17.354 0 0 1-5.969-4.317 20.738 20.738 0 0 1-2.862-3.96 17.864 17.864 0 0 1-.826-1.686 1.955 1.955 0 0 1 3.231-2.2" data-name="Path 1633"/><path d="M54.691 116.549c.015.037.4.337 1.182.978.767.622 1.882 1.49 3.213 2.386a18.01 18.01 0 0 0 4.528 2.227 8.262 8.262 0 0 0 2.36.374 6.974 6.974 0 0 0 2.279-.33l.145-.026.074-.015-.27.107.015-.007.026-.011.052-.022.422-.178.834-.348c.541-.245.519-.374.841-.508a7.9 7.9 0 0 0 1.674-1.58 14.715 14.715 0 0 0 2.231-4.358 41.016 41.016 0 0 0 1.267-5.284 1.953 1.953 0 1 1 3.883-.43c0 .044.219.711.422 1.871a19.6 19.6 0 0 1 .2 4.928 16.415 16.415 0 0 1-2.231 7.159 13.922 13.922 0 0 1-3.09 3.524 18.866 18.866 0 0 1-2.223 1.381l-.826.382-.411.193-.385.156-.152.041-.293.089a13.23 13.23 0 0 1-4.865.563 12.54 12.54 0 0 1-4.458-1.1 17.354 17.354 0 0 1-5.969-4.317 20.738 20.738 0 0 1-2.875-3.954 17.863 17.863 0 0 1-.826-1.686 1.955 1.955 0 0 1 3.231-2.2" data-name="Path 1634"/><path fill="#98c5ed" d="M164.436 96.04c-.986.385 3.413 18.3 9.1 14.929 6.644-3.935-5.554-16.3-9.1-14.929" data-name="Path 1635"/></g><g data-name="Group 1100"><g clip-path="url(#selvomsorgovergang_svg__c)" data-name="Group 1099" transform="matrix(1.15273 .37442 -.35787 1.10466 3800.244 747.62)"><path fill="#d65050" d="M64.087 215.115s-.817 26.148 3.286 27.642c3.093 1.128 18.085-21.17 18.085-21.17s49.283 15.387 99.717-18.234C229.9 173.54 260.34 68.918 173.594 19 110.208-17.474 51.675 1.976 17.659 48.4c-25.27 34.475-33.723 108.686 46.428 166.715" data-name="Path 1636"/><path d="M82.389 143.14s.085-.334.25-.954a27.345 27.345 0 0 1 .87-2.6 42 42 0 0 1 4.506-8.614 35.24 35.24 0 0 1 10.084-9.894c1.107-.733 2.348-1.3 3.556-1.969 1.24-.592 2.585-1.007 3.9-1.506 1.353-.387 2.75-.66 4.136-.979 1.4-.213 2.823-.314 4.24-.419l.532-.04h.402l.121.008.234.012.942.052 1.881.109a34.315 34.315 0 0 1 4.357.717 29.129 29.129 0 0 1 7.772 3.27 45.994 45.994 0 0 1 3.222 2.336c.926.89 1.893 1.711 2.7 2.605a33.42 33.42 0 0 1 4.011 5.392 39.531 39.531 0 0 1 3.886 8.976 26.051 26.051 0 0 1 .644 2.658c.117.66.181 1.011.181 1.011a2.121 2.121 0 0 1-4.035 1.216l-.084-.21s-.109-.258-.314-.733c-.234-.5-.584-1.228-1.027-2.163a41.288 41.288 0 0 0-4.53-7.16 35.019 35.019 0 0 0-3.7-4.007c-.7-.648-1.5-1.2-2.251-1.824q-1.238-.773-2.517-1.579a23.722 23.722 0 0 0-5.692-2.074 22.652 22.652 0 0 0-3.012-.471l-1.878-.069-.942-.04-.238-.008H114.451c-.262 0 .318 0 .246.008h-.044l-.411.044c-1.083.137-2.187.141-3.258.29-1.055.242-2.122.415-3.153.685-1.007.354-2.005.709-2.992 1.055-.934.471-1.917.83-2.8 1.357a35.626 35.626 0 0 0-8.908 7.317 48.314 48.314 0 0 0-5.114 6.834c-.532.89-.946 1.591-1.228 2.066l-.4.729-.064.129a2.129 2.129 0 0 1-3.93-1.558" data-name="Path 1637"/><path d="M88.204 110.779a7.825 7.825 0 1 1-7.776-7.869 7.829 7.829 0 0 1 7.776 7.869" data-name="Path 1638"/><path d="M70.871 93.757a26.913 26.913 0 0 1 4.4 1.152 55.318 55.318 0 0 1 8.863 3.987 58.757 58.757 0 0 1 8.09 5.4 28.932 28.932 0 0 1 3.337 3.061 2.251 2.251 0 0 1-.185 3.181 2.286 2.286 0 0 1-1.86.54 28.836 28.836 0 0 1-4.377-1.188 58.529 58.529 0 0 1-8.884-3.955 55.4 55.4 0 0 1-8.11-5.36 27.53 27.53 0 0 1-3.318-3.1 2.267 2.267 0 0 1 2.044-3.718" data-name="Path 1639"/><path d="M159.214 111.222a7.825 7.825 0 1 1-7.772-7.869 7.826 7.826 0 0 1 7.772 7.869" data-name="Path 1640"/><path d="M162.415 98.066a27.075 27.075 0 0 1-3.36 3.056 54.7 54.7 0 0 1-8.171 5.255 58.147 58.147 0 0 1-8.936 3.842 29.289 29.289 0 0 1-4.393 1.132 2.251 2.251 0 0 1-2.565-1.889 2.28 2.28 0 0 1 .568-1.856 29.08 29.08 0 0 1 3.379-3.02 58.342 58.342 0 0 1 8.151-5.292 55.183 55.183 0 0 1 8.916-3.878 27.32 27.32 0 0 1 4.41-1.1 2.263 2.263 0 0 1 2 3.745" data-name="Path 1641"/></g></g><g data-name="Group 1140"><g clip-path="url(#selvomsorgovergang_svg__d)" data-name="Group 1139" transform="matrix(-.73178 .33942 .3239 .70016 3374.762 893.79)"><path fill="#508984" d="M24.857 199.79s-15.505 28.108-13.264 31.764 31.943-9.3 31.943-9.3 30.3 27.976 87.937 16.329c77.866-15.73 125.3-97.509 81.055-179.084-41.4-76.344-130.579-72.315-178.39-26.8s-40.126 119.75-9.281 167.091" data-name="Path 1667"/><path d="M55.732 112.693a37.526 37.526 0 0 1 3.713-1.014 71.159 71.159 0 0 1 8.254-1.377c3.027-.3 6.063-.52 8.362-.52 2.291-.017 3.838.116 3.838.116a5.333 5.333 0 0 1 1.2 10.381s-1.476.482-3.713.994-5.243.994-8.254 1.4a70.41 70.41 0 0 1-8.358.541 36.914 36.914 0 0 1-3.842-.137 5.353 5.353 0 0 1-1.2-10.379" data-name="Path 1668"/><path d="M143.645 106.347s1.493-.432 3.751-.823a71.812 71.812 0 0 1 8.321-.965c3.04-.137 6.079-.212 8.375-.1 2.291.1 3.83.308 3.83.308a5.333 5.333 0 0 1 .672 10.43s-1.493.412-3.755.8c-2.258.412-5.285.728-8.316.985a73.236 73.236 0 0 1-8.37.121 38.313 38.313 0 0 1-3.834-.333 5.354 5.354 0 0 1-.674-10.429" data-name="Path 1669"/><path d="M83.33 136.719s3.651-1.148 9.41-2.512c2.865-.64 6.229-1.351 9.847-2.021 1.788-.366 3.784-.549 5.742-.794 2.071-.212 3.759-.532 6.2-.649 3.875.021 7.572-.158 11.352.033 3.734.2 7.3.416 10.188.686 5.8.57 9.68 1.185 9.68 1.185a5.236 5.236 0 0 1-.79 10.408h-.062s-3.763.021-9.443-.042c-2.853-.1-6 .029-9.443-.05-3.406-.108-7.372.162-11.161.229-1.734.183-3.468.362-5.173.541-1.784.225-3.5.279-5.252.57-3.46.557-6.728.861-9.506 1.31-5.535.823-9.373 1.314-9.373 1.314a5.244 5.244 0 0 1-2.241-10.2Z" data-name="Path 1670"/></g></g><g data-name="Group 1096"><g clip-path="url(#selvomsorgovergang_svg__e)" data-name="Group 1095" transform="matrix(1.21525 -.28067 .25713 1.11624 3294.043 787.3)"><path fill="#f297bc" d="M178.499 243.822c4.171-2.386-5.334-29.979-5.334-29.979s73.948-29.32 68.618-107.257-95.921-133.905-176.53-92.599-78.391 137.979-37.3 180.289c44.637 45.968 116.577 32.889 116.577 32.889s29.315 19.324 33.977 16.657" data-name="Path 1627"/><path fill="#ab003d" d="M70.247 97.926s-7.333-14.989-15.993-7.661 10.932 29.656 18.656 29.311c7.329-.332 24.317-26.312 14.989-32.978-9.954-7.11-17.652 11.327-17.652 11.327" data-name="Path 1628"/><path fill="#ab003d" d="M161.683 95.427s-7.332-14.989-15.993-7.66 10.936 29.655 18.656 29.311c7.329-.332 23.99-24.649 14.658-31.31-9.95-7.11-17.32 9.66-17.32 9.66" data-name="Path 1629"/><path d="M94.32 113.839c.008.059.433.722 1.34 2.1a36.387 36.387 0 0 0 4.154 5.082 26.312 26.312 0 0 0 7.006 5.183 21.222 21.222 0 0 0 9.328 2.142l.63.025.311.013.16.008h.118c.067 0-.533.042-.269.021h.022l1.478-.147c.479-.059 1.021-.088 1.441-.16l.97-.269a16.214 16.214 0 0 0 4.173-1.582 24.748 24.748 0 0 0 3.7-2.537 38.141 38.141 0 0 0 3-2.995 37.675 37.675 0 0 0 3.931-5.33c.8-1.365 1.264-2.142 1.264-2.142l.155-.26a2.211 2.211 0 0 1 4.066 1.592s-.059.286-.176.815a20.667 20.667 0 0 1-.58 2.121 34.079 34.079 0 0 1-3.272 7.123 30.09 30.09 0 0 1-3.243 4.313 25.7 25.7 0 0 1-4.758 4.04 22.381 22.381 0 0 1-6.363 2.873l-1.882.462c-.55.1-1 .13-1.5.2l-1.474.181-.391.029h-.756l-.861-.008a26.056 26.056 0 0 1-6.846-.92 23.919 23.919 0 0 1-6.207-2.621 26.651 26.651 0 0 1-8.417-7.917 30.89 30.89 0 0 1-3.6-7.031 20.1 20.1 0 0 1-.651-2.129c-.118-.517-.181-.785-.181-.785l-.151-.664a2.202 2.202 0 0 1 4.292-.991c.013.055.025.118.034.172" data-name="Path 1630"/></g></g><g data-name="Group 1094"><g clip-path="url(#selvomsorgovergang_svg__f)" data-name="Group 1093" transform="matrix(-1.66782 0 0 1.49152 3891.415 587.59)"><path fill="#f3d643" d="M164 246.443c-.164 3.21-147.358-.487-162.483-114.461C-14.909 8.218 106.445-19.52 163.658 11.901c50.89 27.961 78.405 102.773 31.328 165.109-21.589 28.586-59.624 37.48-56.819 43.8 3.88 8.738 26.035 21.645 25.83 25.629" data-name="Path 1621"/><path d="M77.866 101.511a5.181 5.181 0 1 1-5.286-5.074 5.176 5.176 0 0 1 5.286 5.074" data-name="Path 1622"/><path d="M157.301 99.885a5.183 5.183 0 1 1-5.282-5.074 5.176 5.176 0 0 1 5.282 5.074" data-name="Path 1623"/><path d="M88.683 112.127s.1.279.272.677c.2.443.5 1.09.885 1.919a33.9 33.9 0 0 0 4 6.312 31.469 31.469 0 0 0 3.337 3.459 23.982 23.982 0 0 0 4.311 2.879 20.707 20.707 0 0 0 5.174 1.823 24.725 24.725 0 0 0 5.632.58c1.09-.056 2.321-.033 3.288-.153l2.615-.461c.885-.3 1.789-.528 2.667-.8l2.462-1.131a24.019 24.019 0 0 0 4.206-3.004 27.055 27.055 0 0 0 3.221-3.56 32.468 32.468 0 0 0 3.773-6.447c.74-1.681 1.064-2.667 1.045-2.608a1.963 1.963 0 0 1 3.869.67l-.108.926a22.694 22.694 0 0 1-.439 2.429 32.024 32.024 0 0 1-3.184 8.228 26.985 26.985 0 0 1-3.545 4.929 26.43 26.43 0 0 1-5.312 4.467c-1.049.61-2.165 1.149-3.281 1.726a81.603 81.603 0 0 1-3.578 1.254c-1.287.279-2.626.506-3.954.729-1.246.156-2.273.141-3.422.219a28.884 28.884 0 0 1-7.652-.859 23.953 23.953 0 0 1-6.9-2.8 25.007 25.007 0 0 1-5.442-4.281c-.755-.792-1.41-1.622-2.072-2.4l-1.626-2.422a31.551 31.551 0 0 1-3.422-8.135 21.694 21.694 0 0 1-.517-2.422 98.71 98.71 0 0 1-.123-.893 1.968 1.968 0 0 1 3.805-.923Z" data-name="Path 1624"/><path fill="#ce4a70" d="M71.014 120.418a15.349 15.349 0 1 0-15.034 15.656 15.35 15.35 0 0 0 15.034-15.656" data-name="Path 1625"/><path fill="#ce4a70" d="M181.889 120.421a15.349 15.349 0 1 0-15.031 15.66 15.348 15.348 0 0 0 15.032-15.66" data-name="Path 1626"/></g></g><g clip-path="url(#selvomsorgovergang_svg__g)" transform="matrix(.7914 0 0 .68934 4571.332 482.29)"><path fill="#8c1b35" d="M423 339.418 716.992 631.41 1035 317.418l-136-92-252-36L423 301.41Z" data-name="Path 1970"/><path fill="#7ec8d6" d="m1006.696 343.117-297.7 276.285 314 318.008 92-136 36-252-111.992-224Z" data-name="Path 1971"/><path fill="#e79e17" d="M1011.557 931.283 721.012 627.332 403.004 941.324l136 92 252 36 224-111.992Z" data-name="Path 1972"/><path fill="#009cb2" d="M422.031 935.061 729 652.973 415.008 334.961l-92 136-36 252 111.992 224Z" data-name="Path 1973"/><g data-name="Group 1497"><path fill="#353f4f" d="M1044.725 309.5c-179.737-179.737-471.148-179.737-650.887 0s-179.738 471.148 0 650.886 471.149 179.737 650.887 0 179.738-471.147 0-650.886Zm-609.7 609.7c-156.994-156.994-156.994-411.529 0-568.522s411.529-156.994 568.523 0 156.992 411.528 0 568.522-411.534 156.999-568.526.005Z" data-name="Path 1953"/><path d="M1020.882 333.343c-166.57-166.569-436.631-166.569-603.2 0s-166.569 436.633 0 603.2 436.631 166.57 603.2 0 166.569-436.63 0-603.2ZM435.02 919.205c-156.992-156.994-156.992-411.528 0-568.522s411.529-156.994 568.522 0 156.993 411.528 0 568.522-411.528 156.995-568.522 0Z" data-name="Path 1954" opacity=".31"/><path fill="#11171c" d="M1003.542 350.682c-156.992-156.994-411.528-156.994-568.522 0s-156.994 411.53 0 568.522 411.529 156.994 568.522 0 156.993-411.527 0-568.522Zm-549 549c-146.214-146.213-146.214-383.27 0-529.484s383.27-146.213 529.484 0 146.212 383.272 0 529.485-383.274 146.216-529.486-.001Z" data-name="Path 1955" opacity=".08"/><g fill="none" stroke="#2a4b72" stroke-miterlimit="10" stroke-width=".536" data-name="Group 1494"><path d="m790.866 369.64-9.641 35.652" data-name="Line 124"/><path d="m647.424 366.367 9.477 35.696" data-name="Line 125"/><path d="m520.81 436.656 26.054 26.175" data-name="Line 126"/><path d="m444.555 561.489 35.652 9.641" data-name="Line 127"/><path d="m441.195 712.108 35.696-9.476" data-name="Line 128"/><path d="m513.025 837.188 26.175-26.055" data-name="Line 129"/><path d="m643.663 913.979 9.641-35.652" data-name="Line 130"/><path d="m792.075 911.242-9.477-35.696" data-name="Line 131"/><path d="m917.278 834.959-26.054-26.175" data-name="Line 132"/><path d="m987.906 708.424-35.652-9.641" data-name="Line 133"/><path d="m985.713 564.858-35.695 9.476" data-name="Line 134"/></g><g data-name="Group 1495"><path fill="#252c37" d="M1032.07 947.733 678.406 674.814l-272.919-353.66 353.666 272.915Z" data-name="Path 1956"/><path fill="#353f4f" d="M718.778 634.442 405.487 321.154l313.291 241.76Z" data-name="Path 1957"/><path fill="#353f4f" d="m718.779 634.442 313.292 313.292L718.779 705.97Z" data-name="Path 1958"/><path fill="#252c37" d="m790.306 634.442 241.765-313.288-313.292 241.76v71.528h71.528" data-name="Path 1959"/><path fill="#252c37" d="M647.253 634.443 405.487 947.734 718.778 705.97v-71.528h-71.525" data-name="Path 1960"/><path fill="#353f4f" d="M718.778 634.442 405.487 947.734l241.766-313.292Z" data-name="Path 1961"/><path fill="#353f4f" d="m718.779 634.442 313.292-313.288-241.764 313.288Z" data-name="Path 1962"/></g><g data-name="Group 1496"><g filter="url(#selvomsorgovergang_svg__h)" transform="translate(-.001 -.001)"><path fill="#029cb2" d="M822.272 633.208 722.059 697.63 199 628.99l523.371-66.21Z" data-name="Path 1963"/></g><path fill="#0191a6" d="m722.213 630.204-523.216-1.214 463.625-58.652Z" data-name="Path 1964"/><path fill="#353f4f" d="m722.214 630.204 523.214 1.215-463.625 58.652Z" data-name="Path 1965"/><path fill="#6a0c21" d="m782.08 570.616-58.652-463.627-60.8 463.348 59.589 59.866 59.866-59.589" data-name="Path 1966"/><path fill="#75b9c7" d="m781.332 690.071 463.627-58.652-463.348-60.8-59.866 59.589 59.589 59.866" data-name="Path 1974"/><g filter="url(#selvomsorgovergang_svg__i)" transform="translate(-.001 -.001)"><path fill="#e79e17" d="M662.348 689.791 721 1153.42l60.8-463.348-59.589-59.866-59.866 59.589" data-name="Path 1967"/></g><path fill="#d69317" d="m722.213 630.204-1.215 523.218-58.652-463.625Z" data-name="Path 1968"/><g filter="url(#selvomsorgovergang_svg__j)" transform="translate(-.001 -.001)"><path fill="#9f1a39" d="m722.213 630.205 1.215-523.215 58.651 463.626Z" data-name="Path 1969"/></g><g filter="url(#selvomsorgovergang_svg__k)" transform="translate(-.001 -.001)"><path fill="#7ec8d6" d="m721.745 630.203 523.215 1.215-463.626 58.651Z" data-name="Path 1975"/></g></g><g fill="#fff" data-name="Group 1201"><path d="M719.476 528.989a103.94 103.94 0 1 1-103.94 103.94 103.941 103.941 0 0 1 103.94-103.94Z" data-name="Nuance A4 5a"/><path stroke="#394151" stroke-linecap="round" stroke-linejoin="round" stroke-width="6" d="M744.256 608.034c.112 11.305 36.543 10.956 36.433-.353" data-name="Path 200"/><path stroke="#394151" stroke-linecap="round" stroke-linejoin="round" stroke-width="6" d="M685.666 608.034c.112 11.305 36.542 10.956 36.432-.353" data-name="Path 201"/><path stroke="#394151" stroke-linecap="round" stroke-linejoin="round" stroke-width="6" d="M694.134 660.477c13.813 10.887 29.157 8.4 41.728-.4" data-name="Path 202"/></g></g></g></g></g></g><path fill="#323f51" d="M1779.581 1798.383c1.779-.832 7.024-3.289 6.673-5.909a3.37 3.37 0 0 1 .376-.319c-.741-.076-.292-.636.094-.085a7.814 7.814 0 0 1-.392-1.658c-2.631.153-15.187-2.376-14.338.068-.62-1.016-.89-.153-1-.056.173.223.365.432.573.624-1.477.822-2.258 1.866.117 2.18 2.654.351 5.444.631 8.205.819a14.648 14.648 0 0 1-3.223 2.189l-.389.185c.476-.471.865-.962.132-.7-.26.286-.478.607-.649.954-2.484 1.261-4.259 2.761-3.685 3.921.063.874.91 1.106 1.753 1.208l-.068.032.068-.032c.022.016-.013.019-.068.032-.1.048.16.156.229.17.081-.09.1-.142.087-.175l.194.019c.615.157 1.239.274 1.869.351.617.078 2.271.346 4.134.5.059.219.129.377.214.276-.028.034-.01-.09.021-.255.556.041 1.126.069 1.693.082-.206.122-.587.216-.451.3.22-.044.424-.148.589-.3.062 0 .125.006.188.006.112.141.417.147.959-.015 2.248-.091 4.117-.609 4.117-2.114 0-1.938-4.192-2.279-8.02-2.3m-2.091-8.506a1.13 1.13 0 0 1-.123.17h-.213c-.016-.244.156-.7.336-.169m-.862.084c.044-.122.1-.166.157-.132-.01.091-.019.15-.028.213h-.13v-.079m-.363.074h-.12a3.424 3.424 0 0 1-.09-.236s-.016-.034-.044-.113c.117-.072.214.166.254.352m-3.872.537s.1-.013.189-.016a.21.21 0 0 1-.189.016" clip-path="url(#selvomsorgovergang_svg__p)" data-name="Path 1341" transform="translate(1136.57 -546.613)"/><path fill="#323f51" d="M1805.735 1789.42c-.007-1.594-5.945-1.86-10.132-1.9.189-.189.379-.389.568-.609.134-.044.263-.101.386-.169a1.65 1.65 0 0 1-.094-.182c.028-.034.054-.063.081-.1.021.079.037.16.048.242.324-.445.683-.865 1.071-1.255a.23.23 0 0 0 .087.088c.056.025.076-.107.054-.235 2.048-2.121 5.5-5.265 4.556-6.341.053-.022.1-.037.153-.06.3.057.323-.079.28-.236.135-.025.21-.047.2-.072a3.822 3.822 0 0 0-.429-.581c.053-.455-.68-.691-.871-1.009.069.106.117.226.142.351a4.718 4.718 0 0 0-.515-.31c.308-.2-.1-.258-.344-.156a6.729 6.729 0 0 0-1.053-.339c.129-.825-.208-.269-.172-.041a25.418 25.418 0 0 0-5.532-.25 1.368 1.368 0 0 0-.157.015 2.263 2.263 0 0 1-.6-.511c-.046-.079-.037-.1-.009-.113a4.772 4.772 0 0 1-.818.3.501.501 0 0 0 0-.164c-.018-.06-.078.057-.106.192-1.36.346-3.3.417-3.121.021-.363.791-.622.489-.558 1.572-.276-2.3.034.913-.247-.529.016.088.076.363.139.675-1.379.533-2.066 1.06-.465 1.286.159.021.439.038.806.05-.028.1-.037.185.018.235.011-.078.018-.155.022-.233 1.511.047 4.5.018 7.319-.057a.304.304 0 0 0-.181.314c-.029 1.069.369-.11.429-.32l.976-.028c.069.1.144.144.22.109.076-.035.137-.084.207-.123l.827-.029a.483.483 0 0 0-.115.317c-.046.476.229-.185.229-.322l.5-.019c-.26.239-.323.363-.3.42a36.123 36.123 0 0 0-4.096 3.663.145.145 0 0 0-.069-.081c-.132-.063-.214.142-.141.294a54.998 54.998 0 0 0-4.332 4.945.6.6 0 0 0-.056.694.703.703 0 0 0-.119.369 5.474 5.474 0 0 0 2.1.837c.938.4.743.232.443.029.241.068.495.131.758.189.075 1.053 1.59.712 2.42.42.4.051.807.1 1.217.134a.336.336 0 0 0-.1.279c.032.4.313-.025.382-.254.73.062 1.465.1 2.182.113-.106.07-.2.138-.253.117.092.038.257-.04.4-.116.681.01 1.342 0 1.957-.041 2.188-.138 3.811-.6 3.807-1.486m-5.4-8.9-.075.106a.274.274 0 0 1 .075-.106m1.288-1.7a.239.239 0 0 1-.019.144Zm-1.892 2.728.085-.148c.2.151.053.2-.085.148m.5.669c-.561-1.135.806.417 0 0m.332-.37c-.711-.721-.07-.226-.032-.173.073.1.085.161.032.173m.433-.348c.05.37-1.509-.753 0 0m-10.341-4.851c-.014.153-.04.305-.079.455-.081-.155-.038-1.081.079-.455m-.238.041c.006.254.006.393 0 .46a1.276 1.276 0 0 1-.048-.313c.007-.125.023-.175.046-.147m-1.008-.21h-.082c.019-.084.138-.637.082 0m.746.153c.113-.248.2.21.22.533-.037.01-.072.022-.109.031a8.798 8.798 0 0 1-.112-.564m9.379 2.259.333-.015c-.06.04-.123.085-.186.128a.285.285 0 0 0-.147-.113m-4.905 11.55.336.057c-.277.032-.374-.015-.336-.057" clip-path="url(#selvomsorgovergang_svg__p)" data-name="Path 1342" transform="translate(1136.57 -546.613)"/><path fill="#323f51" d="M1790.215 1790.046c.437.288.986.35 1.477.169 0 0-1.875-.78-1.477-.169" clip-path="url(#selvomsorgovergang_svg__p)" data-name="Path 1343" transform="translate(1136.57 -546.613)"/><path d="M1059.193 698.708c1.244-4.366-2.474-8.509-6.697-7.458-4.221 1.049-5.776 6.504-2.801 9.822a5.621 5.621 0 0 0 2.484 1.606c2.979.938 6.121-.84 7.014-3.97" data-name="Path 1665" style="fill:#323f51" transform="translate(0 -.001)"/><path d="M1125.657 696.274c1.243-4.367-2.478-8.505-6.697-7.454-4.221 1.052-5.774 6.507-2.796 9.819a5.562 5.562 0 0 0 2.486 1.607c2.98.938 6.118-.843 7.007-3.972" data-name="Path 1666" style="stroke-width:5px;fill:#323f51" transform="translate(0 -.001)"/></svg>