<?xml version="1.0" encoding="utf-8"?>
<svg viewBox="146.553 -466.425 989.53 1211.645" xmlns="http://www.w3.org/2000/svg">
  <g id="Group_1216" data-name="Group 1216" transform="matrix(1, 0, 0, 1, -1476.498487, -8876.758667)">
    <g id="Group_1214" data-name="Group 1214" transform="translate(20854 29846)">
      <text id="_" data-name="?" transform="translate(-18485.934 -21362.758)" fill="#323f51" font-size="200" font-family="RifficFree-Bold, Riffic Free" font-weight="700" style="white-space: pre;"><tspan x="0" y="194">?</tspan></text>
    </g>
    <g id="Group_1209" data-name="Group 1209" transform="translate(53.113 -929)">
      <path id="Path_1764" data-name="Path 1764" d="M-976.144,187.328" transform="translate(3011.323 9745.573)" fill="none" stroke="#323f51" stroke-width="1"/>
      <path id="Path_1765" data-name="Path 1765" d="M-982.584,262.108c.825,67.193,1.644,112.427,2.469,179.625a342.6,342.6,0,0,0,67.853,1.291" transform="translate(2980.024 10055.532)" fill="none" stroke="#323f51" stroke-linecap="round" stroke-linejoin="round" stroke-width="10"/>
      <path id="Path_1767" data-name="Path 1767" d="M-703.112,152.034c52.563,29.635,84.427,86.43,107.008,143.07a794.338,794.338,0,0,1,54.754,339.5c-1.316,22.231-3.739,45.023-13.792,64.81-12.76,25.118-36.509,42.677-61.4,55.272-47.245,23.9-100.512,32.948-153.207,35.829-44.8,2.449-90.807.458-132.609-16.1s-79.11-49.628-92.159-93.272c-7.726-25.833-6.649-53.42-5.5-80.395q1.693-39.83,3.39-79.659c3.025-71.1,6.279-143.451,29.77-210.49s70.717-129.194,136.894-152.342c21.068-7.373,46.745-24.773,68.729-21.089,47.747,8,25.075,2.886,58.123,14.864" transform="translate(2700.033 9535.577)" stroke="#323f51" stroke-miterlimit="10" stroke-width="10" style="fill: rgba(126, 199, 214, 0);"/>
      <path id="Path_1771" data-name="Path 1771" d="M-837.913,192.036c37.6,11.01,66.69,56.671,66.727,104.73.008,11.381-1.5,22.947-5.641,33.1-7.695,18.846-23.243,30.376-38.112,40.609-52.954,36.421-143.627-188.5-199.462-159.5" transform="translate(2978.708 9752.894)" fill="none" stroke="#323f51" stroke-linecap="round" stroke-linejoin="round" stroke-width="10"/>
      <path id="Path_1769" data-name="Path 1769" d="M466.3,124.343c11.788,2.507,20.613,8.884,29.395,17.065" transform="translate(1498.272 9685.205)" fill="none" stroke="#353f4f" stroke-linecap="round" stroke-miterlimit="10" stroke-width="5"/>
      <path id="Path_1772" data-name="Path 1772" d="M15.988,3.753a48.36,48.36,0,0,0-13.876,9.3C.06,14.967-.87,17.106,1.145,19.389c1.932,2.186,3.925,1.142,5.764-.537C21.275,5.74,37.025,4.964,53.744,12.963c.833.4,1.687.754,2.506,1.174,2.063,1.056,4.047,1.114,5.273-1.159,1.271-2.36.535-4.38-1.807-5.6C45.7.107,31.263-2.628,15.988,3.753Z" transform="matrix(-0.921, 0.391, -0.391, -0.921, 1995.906, 9933.435)" fill="#323f51"/>
      <path id="Path_1773" data-name="Path 1773" d="M1025.769,500.6c-9.7-.113-16.1,6.181-15.93,15.662.173,9.553,5.91,15.829,14.762,16.164,9.518.362,17.52-7.031,17.427-16.1C1041.93,506.935,1035.5,500.718,1025.769,500.6Z" transform="translate(929.422 9342.049)" fill="#323f51"/>
      <path id="Path_1774" data-name="Path 1774" d="M1020.28,504.122c-4.15-.05-6.892,2.648-6.821,6.706.076,4.089,2.533,6.778,6.318,6.918a7.043,7.043,0,0,0,7.461-6.891C1027.2,506.834,1024.448,504.172,1020.28,504.122Z" transform="translate(928.112 9354.445)" fill="#fff" opacity="0.9"/>
      <path id="Path_1766" data-name="Path 1766" d="M-874.248,262.451c3.086,64.453,3.177,107.743.268,172.2a159.254,159.254,0,0,0-68.217.983" transform="translate(2732.312 10064.023)" fill="none" stroke="#323f51" stroke-linecap="round" stroke-linejoin="round" stroke-width="10"/>
      <path id="Path_1768" data-name="Path 1768" d="M507.083,124.343c-11.788,2.507-20.623,8.884-29.394,17.065" transform="translate(1371.05 9655.077)" fill="none" stroke="#353f4f" stroke-linecap="round" stroke-miterlimit="10" stroke-width="5"/>
      <path id="Path_1770" data-name="Path 1770" d="M-841.237,191.7c-37.162,23.662-61.569,51.624-81.164,91.513-10.033,20.42-17.172,44.864-8.01,65.7,6.365,14.473,19.641,24.655,33.621,31.667,51.748,25.977,114.5,15.666,168.764,35.629" transform="translate(2548.275 9762.99)" fill="none" stroke="#323f51" stroke-linecap="round" stroke-linejoin="round" stroke-width="10"/>
      <path id="Path_1775" data-name="Path 1775" d="M1052.8,500.4c-8.825-.023-15.777,7.456-15.7,16.88.076,9.8,6.395,16.167,15.969,16.108,9.9-.059,15.456-5.961,15.389-16.348C1068.395,507.358,1061.871,500.42,1052.8,500.4Z" transform="translate(827.625 9341.731)" fill="#323f51"/>
      <path id="Path_1776" data-name="Path 1776" d="M1047.089,504.122c-4.178-.05-6.935,2.663-6.86,6.743.077,4.112,2.544,6.816,6.355,6.957a7.088,7.088,0,0,0,7.5-6.929C1054.045,506.849,1051.28,504.172,1047.089,504.122Z" transform="translate(828.04 9354.93)" fill="#fff"/>
    </g>
    <g id="Group_737" data-name="Group 737" transform="matrix(0.998, -0.07, 0.07, 0.998, 2096.922, 8434.798)">
      <ellipse id="Ellipse_61" data-name="Ellipse 61" cx="22.961" cy="24.551" rx="22.961" ry="24.551" transform="translate(0 335.75) rotate(-72.98)" fill="none" stroke="#323f51" stroke-miterlimit="10" stroke-width="10"/>
      <ellipse id="Ellipse_62" data-name="Ellipse 62" cx="22.961" cy="24.551" rx="22.961" ry="24.551" transform="translate(64.307 335.755) rotate(-72.98)" fill="none" stroke="#323f51" stroke-miterlimit="10" stroke-width="10"/>
      <ellipse id="Ellipse_63" data-name="Ellipse 63" cx="22.961" cy="24.551" rx="22.961" ry="24.551" transform="translate(94.458 281.146) rotate(-72.98)" fill="none" stroke="#323f51" stroke-miterlimit="10" stroke-width="10"/>
      <path id="Path_683" data-name="Path 683" d="M163.415,0C244.766,0,279.9,62.051,279.9,163.3S213.952,346.618,132.6,346.618,0,268.855,0,167.609,82.064,0,163.415,0Z" transform="translate(103.563 267.641) rotate(-72.98)" fill="none" stroke="#323f51" stroke-width="10"/>
    </g>
  </g>
</svg>