<svg viewBox="146.553 -466.425 989.53 1211.645" xmlns="http://www.w3.org/2000/svg"><g data-name="Group 1216"><g data-name="Group 1214"><text fill="#323f51" data-name="?" font-family="RifficFree-Bold, Riffic Free" font-size="200" font-weight="700" style="white-space:pre" transform="translate(891.568 -393.517)"><tspan x="0" y="194">?</tspan></text></g><g data-name="Group 1209"><path fill="none" stroke="#323f51" stroke-linecap="round" stroke-linejoin="round" stroke-width="10" d="M574.055 511.881c.825 67.193 1.644 112.427 2.469 179.625a342.6 342.6 0 0 0 67.853 1.291" data-name="Path 1765"/><path stroke="#323f51" stroke-miterlimit="10" stroke-width="10" d="M-703.112 152.034c52.563 29.635 84.427 86.43 107.008 143.07a794.338 794.338 0 0 1 54.754 339.5c-1.316 22.231-3.739 45.023-13.792 64.81-12.76 25.118-36.509 42.677-61.4 55.272-47.245 23.9-100.512 32.948-153.207 35.829-44.8 2.449-90.807.458-132.609-16.1s-79.11-49.628-92.159-93.272c-7.726-25.833-6.649-53.42-5.5-80.395q1.693-39.83 3.39-79.659c3.025-71.1 6.279-143.451 29.77-210.49s70.717-129.194 136.894-152.342c21.068-7.373 46.745-24.773 68.729-21.089 47.747 8 25.075 2.886 58.123 14.864" data-name="Path 1767" style="fill:transparent" transform="translate(1276.648 -270.182)"/><path fill="none" stroke="#323f51" stroke-linecap="round" stroke-linejoin="round" stroke-width="10" d="M717.41 139.171c37.6 11.01 66.69 56.671 66.727 104.73.008 11.381-1.5 22.947-5.641 33.1-7.695 18.846-23.243 30.376-38.112 40.61-52.954 36.42-143.627-188.5-199.462-159.5" data-name="Path 1771"/><path fill="none" stroke="#353f4f" stroke-linecap="round" stroke-miterlimit="10" stroke-width="5" d="M541.187 3.79c11.788 2.506 20.613 8.883 29.395 17.064" data-name="Path 1769"/><path fill="#323f51" d="M556.328 130.471a48.387 48.387 0 0 0 9.144-13.99c1.141-2.566 1.161-4.9-1.587-6.214-2.634-1.258-4.062.483-5.099 2.748-8.104 17.693-22.306 24.566-40.832 23.736-.924-.042-1.849-.035-2.767-.101-2.313-.166-4.163.556-4.404 3.13-.247 2.67 1.22 4.242 3.854 4.45 15.752 1.216 30.118-1.91 41.691-13.759Z" data-name="Path 1772"/><path fill="#323f51" d="M531.806 36.89c-9.7-.113-16.1 6.181-15.93 15.662.173 9.553 5.91 15.83 14.762 16.164 9.518.362 17.52-7.03 17.427-16.1-.098-9.39-6.528-15.608-16.26-15.726Z" data-name="Path 1773"/><path fill="#fff" d="M525.007 52.808c-4.15-.05-6.892 2.648-6.821 6.706.076 4.09 2.533 6.778 6.318 6.918a7.043 7.043 0 0 0 7.46-6.89c-.037-4.022-2.79-6.684-6.957-6.734Z" data-name="Path 1774" opacity=".9"/><path fill="none" stroke="#323f51" stroke-linecap="round" stroke-linejoin="round" stroke-width="10" d="M434.679 520.715c3.086 64.453 3.177 107.743.268 172.2a159.254 159.254 0 0 0-68.217.983" data-name="Path 1766"/><path fill="none" stroke="#353f4f" stroke-linecap="round" stroke-miterlimit="10" stroke-width="5" d="M454.748-26.339c-11.788 2.507-20.623 8.884-29.394 17.065" data-name="Path 1768"/><path fill="none" stroke="#323f51" stroke-linecap="round" stroke-linejoin="round" stroke-width="10" d="M283.653 148.931c-37.162 23.662-61.57 51.624-81.164 91.513-10.033 20.42-17.172 44.864-8.01 65.7 6.365 14.473 19.64 24.655 33.62 31.667 51.749 25.977 114.5 15.666 168.765 35.63" data-name="Path 1770"/><path fill="#323f51" d="M457.04 36.372c-8.825-.023-15.777 7.456-15.7 16.88.076 9.8 6.395 16.167 15.969 16.108 9.9-.059 15.456-5.96 15.389-16.348-.063-9.682-6.587-16.62-15.658-16.64Z" data-name="Path 1775"/><path fill="#fff" d="M451.744 53.293c-4.178-.05-6.935 2.663-6.86 6.743.077 4.112 2.544 6.816 6.355 6.957a7.088 7.088 0 0 0 7.5-6.929c-.04-4.044-2.804-6.72-6.995-6.77Z" data-name="Path 1776"/></g><g fill="none" stroke="#323f51" stroke-width="10" data-name="Group 737" transform="matrix(.998 -.07 .07 .998 620.424 -441.96)"><ellipse cx="22.961" cy="24.551" stroke-miterlimit="10" data-name="Ellipse 61" rx="22.961" ry="24.551" transform="rotate(-72.98 226.953 167.875)"/><ellipse cx="22.961" cy="24.551" stroke-miterlimit="10" data-name="Ellipse 62" rx="22.961" ry="24.551" transform="rotate(-72.98 259.11 124.409)"/><ellipse cx="22.961" cy="24.551" stroke-miterlimit="10" data-name="Ellipse 63" rx="22.961" ry="24.551" transform="rotate(-72.98 237.272 76.723)"/><path d="M151.395 111.383c23.812-77.788 93.43-93.22 190.244-63.584s155.986 116.718 132.174 194.507-113.17 104.03-209.982 74.395-136.247-127.53-112.436-205.318Z" data-name="Path 683"/></g></g></svg>