<?xml version="1.0" encoding="utf-8"?>
<svg viewBox="-1642.887 -646.126 1430.311 1994.646" xmlns="http://www.w3.org/2000/svg">
  <defs>
    <clipPath id="clip-Balance">
      <rect width="1166" height="1094"/>
    </clipPath>
    <clipPath id="clip-1">
      <rect width="1166" height="1094"/>
    </clipPath>
    <clipPath id="clip-Illustration_-_Min_fysiske_energi_-_Min_fysiske_aktivitet">
      <rect width="545" height="513"/>
    </clipPath>
    <clipPath id="clip-path">
      <rect id="Rectangle_374" data-name="Rectangle 374" width="35.569" height="27.465" fill="#323f51"/>
    </clipPath>
    <clipPath id="clip-14">
      <rect width="1166" height="1094"/>
    </clipPath>
    <clipPath id="clip-9">
      <rect width="1166" height="1094"/>
    </clipPath>
    <clipPath id="clip-10">
      <rect width="545" height="513"/>
    </clipPath>
    <clipPath id="clip-7">
      <rect width="1166" height="1094"/>
    </clipPath>
    <clipPath id="clip-8">
      <rect width="1166" height="1094"/>
    </clipPath>
    <clipPath id="clip-11">
      <rect width="545" height="513"/>
    </clipPath>
    <clipPath id="clip-12">
      <rect id="rect-1" data-name="Rectangle 374" width="35.563" height="27.472" fill="#323f51" x="5258.979" y="2266.581"/>
    </clipPath>
    <clipPath id="clip-13">
      <rect width="1166" height="1094"/>
    </clipPath>
    <clipPath id="clip-15">
      <rect width="1166" height="1094"/>
    </clipPath>
    <clipPath id="clip-16">
      <rect width="1166" height="1094"/>
    </clipPath>
    <clipPath id="clip-17">
      <rect width="545" height="513"/>
    </clipPath>
    <clipPath id="clip-18">
      <rect id="rect-3" data-name="Rectangle 374" width="35.574" height="27.472" fill="#323f51" x="15947.34" y="35330.793"/>
    </clipPath>
    <clipPath id="clip-19">
      <rect width="1166" height="1094"/>
    </clipPath>
  </defs>
  <g id="Balance" clip-path="url(#clip-Balance)" transform="matrix(1, 0, 0, 1, -525.754981, -267.127042)"/>
  <g id="Group_1192" data-name="Group 1192" transform="matrix(-1, 0, 0, 1, 2769.745263, -1206.300809)"/>
  <polyline style="fill: rgb(216, 216, 216); stroke: rgb(0, 0, 0);" points="510.455 -75.258" transform="matrix(1, 0, 0, 1, -31.492286, -188.5957)"/>
  <g id="g-6" data-name="Group 1411" transform="matrix(1, 0, 0, 1, -3103.467627, -4009.737943)">
    <rect id="rect-4" data-name="Rectangle 451" width="228.937" height="242.798" transform="matrix(-0.777, -0.629, 0.629, -0.777, 1442.229, 4079.014)" fill="none"/>
    <g id="g-11" data-name="Group 1404" transform="matrix(0.996, 0.087, -0.087, 0.996, 321.395, -105.091)"/>
  </g>
  <path style="fill: rgb(216, 216, 216); stroke: rgb(0, 0, 0);" d="M -167.225 -0.173" transform="matrix(1, 0, 0, 1, -1910.24034, -170.353574)"/>
  <g id="Group_1216" data-name="Group 1216" transform="matrix(1, 0, 0, 1, -4882.014502, -9813.784329)">
    <g id="Group_1209" data-name="Group 1209" transform="translate(53.113 -929)">
      <path id="Path_1764" data-name="Path 1764" d="M-976.144,187.328" transform="translate(3011.323 9745.573)" fill="none" stroke="#323f51" stroke-width="1"/>
      <g transform="matrix(1, 0, 0, 1, 1866.843872, 1508.263916)">
        <path id="Path_1765" data-name="Path 1765" d="M 2080.948 10372.722 C 2081.682 10435.552 2082.411 10477.849 2083.145 10540.684 C 2103.191 10543.185 2123.424 10543.589 2143.546 10541.891" fill="none" stroke-linecap="round" stroke-linejoin="round" style="stroke: rgb(8, 13, 13); stroke-width: 5px;"/>
        <path id="Path_1767" data-name="Path 1767" d="M 2080.486 9783.604 C 2127.276 9811.314 2155.64 9864.422 2175.741 9917.384 C 2213.861 10018.194 2230.497 10126.551 2224.481 10234.839 C 2223.31 10255.626 2221.153 10276.938 2212.204 10295.44 C 2200.845 10318.927 2179.705 10335.346 2157.548 10347.123 C 2115.491 10369.471 2068.075 10377.932 2021.167 10380.626 C 1981.288 10382.916 1940.334 10381.054 1903.123 10365.571 C 1865.912 10350.088 1832.701 10319.166 1821.085 10278.356 C 1814.208 10254.2 1815.167 10228.404 1816.189 10203.181 C 1817.194 10178.352 1818.2 10153.523 1819.207 10128.695 C 1821.9 10062.211 1824.797 9994.558 1845.708 9931.873 C 1866.619 9869.187 1908.658 9811.068 1967.567 9789.423 C 1986.321 9782.528 2009.178 9766.258 2028.747 9769.703 C 2071.25 9777.184 2051.068 9772.402 2080.486 9783.602" stroke-miterlimit="10" style="stroke: rgb(8, 13, 13); stroke-width: 5px; fill: rgb(89, 182, 200);"/>
        <path id="Path_1771" data-name="Path 1771" d="M 2208.558 10024.213 C 2242.028 10034.508 2267.923 10077.204 2267.956 10122.143 C 2267.963 10132.785 2266.621 10143.599 2262.935 10153.093 C 2256.085 10170.715 2242.245 10181.497 2229.009 10191.065 C 2181.871 10225.121 2101.156 10014.805 2051.454 10041.922" fill="none" stroke-linecap="round" stroke-linejoin="round" style="stroke: rgb(8, 13, 13); stroke-width: 5px;"/>
        <path id="Path_1769" data-name="Path 1769" d="M 2041.175 9906.371 C 2052.963 9908.878 2061.788 9915.255 2070.57 9923.436" fill="none" stroke="#353f4f" stroke-linecap="round" stroke-miterlimit="10" style="stroke-width: 5px;" transform="matrix(0.986149, -0.165862, 0.165862, 0.986149, -1616.030969, 478.323203)"/>
        <path id="Path_1766" data-name="Path 1766" d="M 1956.879 10380.983 C 1959.626 10441.251 1959.707 10481.73 1957.118 10542.001 C 1937.051 10537.696 1916.334 10538.009 1896.393 10542.92" fill="none" stroke-linecap="round" stroke-linejoin="round" style="stroke: rgb(8, 13, 13); stroke-width: 5px;"/>
        <path id="Path_1768" data-name="Path 1768" d="M 1974.443 9910.435 C 1962.655 9912.942 1953.82 9919.319 1945.049 9927.5" fill="none" stroke="#353f4f" stroke-linecap="round" stroke-miterlimit="10" style="stroke-width: 5px;"/>
        <path id="Path_1770" data-name="Path 1770" d="M 1829.255 9986.522 C 1802.667 10016.685 1788.283 10141 1791.083 10313.74" fill="none" stroke-linecap="round" stroke-linejoin="round" style="stroke: rgb(8, 13, 13); stroke-width: 5px;"/>
        <g id="g-2" data-name="Group 840" transform="matrix(1.516259, 0, 0, 1.381392, 2251.665283, 7544.796875)" style="">
          <path id="Path_1178" data-name="Path 1178" d="M -277.745 1650.681 C -271.026 1650.476 -265.118 1644.11 -264.548 1636.461 C -263.978 1628.812 -268.961 1622.777 -275.68 1622.982 C -282.398 1623.187 -288.306 1629.554 -288.877 1637.203 C -289.447 1644.852 -284.462 1650.886 -277.745 1650.681 Z" fill="#557591" style="" transform="matrix(-0.318144, -1.040601, 0.863717, -0.318144, -1778.505703, 1869.632236)"/>
          <path id="Path_1177" data-name="Path 1177" d="M -336.674 1631.692 C -326.516 1631.384 -317.581 1621.817 -316.719 1610.323 C -315.858 1598.829 -323.393 1589.762 -333.552 1590.07 C -343.711 1590.378 -352.645 1599.945 -353.507 1611.439 C -354.369 1622.933 -346.833 1632 -336.674 1631.692 Z" fill="#557591" transform="matrix(-0.318144, -1.040601, 0.863717, -0.318144, -1833.072109, 1774.653985)"/>
          <path id="Path_1179" data-name="Path 1179" d="M -408.902 1586.665 C -394.997 1586.212 -382.767 1572.154 -381.589 1555.265 C -380.409 1538.376 -390.722 1525.053 -404.629 1525.504 C -418.534 1525.957 -430.76 1540.014 -431.942 1556.905 C -433.122 1573.794 -422.805 1587.117 -408.902 1586.665 Z" fill="#557591" style="" transform="matrix(-0.318144, -1.040601, 0.863717, -0.318144, -1880.191702, 1627.862805)"/>
          <g id="Group_1094" data-name="Group 1094" transform="matrix(-1.099955, 0, 0, 1.079722, 1693.015991, 1657.314941)" style=""/>
          <g id="g-5" clip-path="url(#clip-9)" transform="matrix(0.659518, 0, 0, 0.723907, 5886.000918, 3063.075186)"/>
          <g id="g-8" data-name="Illustration - Min fysiske energi - Min fysiske aktivitet" clip-path="url(#clip-10)" transform="matrix(0.659518, 0, 0, 0.723907, 5691.706057, 2771.924857)"/>
          <path id="path-1" data-name="Path 517" d="M -79.392 793.605 C -30.908 773.365 15.715 758.776 59.972 772.878 C 102.848 786.676 144.143 820.463 181.906 872.642 C 197.196 893.636 212.981 925.004 209.086 981.444 C 206.653 1016.67 196.94 1052.568 187.203 1085.08 C 173.076 1132.239 157.498 1178.743 139.239 1211.999 C 106.85 1270.972 80.613 1299.558 3.855 1285.222 C -23.882 1280.037 -211.553 1234.414 -235.49 1210.185 C -248.501 1197.009 -267.568 1054.815 -262.072 1013.733 C -251.281 933.069 -215.668 918.889 -173.789 878.752 C -155.996 861.694 -108.32 813.925 -63.888 787.174" style="fill: rgb(72, 101, 126);" transform="matrix(-0.886077, 0.508793, -0.422307, -0.886077, 348.562015, 1966.113557)"/>
          <path id="Path_517" data-name="Path 517" d="M -426.776 1046.921 C -389.288 1028.976 -353.24 1016.042 -319.022 1028.545 C -285.87 1040.778 -253.941 1070.731 -224.744 1116.99 C -212.923 1135.603 -200.717 1163.413 -203.729 1213.449 C -205.611 1244.678 -213.119 1276.504 -220.649 1305.327 C -231.573 1347.136 -243.618 1388.364 -257.734 1417.847 C -282.778 1470.128 -309.656 1476.708 -334.383 1480.719 C -396.535 1490.797 -458.646 1499.288 -517.994 1486.581 C -539.44 1481.983 -560.658 1474.516 -579.165 1453.033 C -589.226 1441.354 -599.145 1421.375 -598.348 1383.008 C -597.2 1327.946 -583.828 1273.25 -568.021 1242.073 C -536.391 1179.704 -532.142 1157.991 -499.762 1122.408 C -486.004 1107.285 -449.142 1064.934 -414.788 1041.219" fill="#557591" style="" transform="matrix(-0.984679, -0.191402, 0.158867, -0.984679, -995.41606, 2420.556187)"/>
          <path id="path-2" data-name="Path 517" d="M 113.169 1063.477 C 147.995 1042.419 181.484 1027.241 213.273 1041.913 C 244.07 1056.267 273.732 1091.417 300.856 1145.7 C 311.839 1167.542 323.177 1200.175 320.379 1258.89 C 318.631 1295.538 311.655 1332.882 304.661 1366.706 C 294.513 1415.767 283.323 1464.148 270.208 1498.745 C 246.944 1560.097 221.974 1567.815 199.001 1572.521 C 141.263 1584.349 83.562 1594.312 28.428 1579.401 C 8.505 1574.005 -11.207 1565.242 -28.4 1540.035 C -37.745 1526.328 -46.96 1502.883 -46.219 1457.862 C -45.154 1393.25 -32.731 1329.065 -18.047 1292.482 C 11.337 1219.293 15.284 1193.812 45.365 1152.057 C 58.146 1134.311 92.391 1084.614 124.306 1056.785" style="fill: rgb(100, 139, 172);" transform="matrix(0.996287, 0.0945, -0.078437, 0.996287, 103.378956, -8.102816)"/>
          <path id="path-3" data-name="Path 1178" d="M -175.346 1561.128 C -168.627 1561.333 -162.719 1567.699 -162.149 1575.348 C -161.579 1582.997 -166.562 1589.032 -173.281 1588.827 C -179.999 1588.622 -185.907 1582.255 -186.478 1574.606 C -187.048 1566.957 -182.063 1560.923 -175.346 1561.128 Z" style="fill: rgb(72, 101, 126);" transform="matrix(0.318144, -1.040601, 0.863717, 0.318144, -1479.191171, 892.517237)"/>
          <path id="path-4" data-name="Path 1177" d="M -212.666 1419.667 C -198.81 1420.069 -186.622 1432.564 -185.446 1447.575 C -184.271 1462.585 -194.55 1474.427 -208.407 1474.024 C -222.265 1473.622 -234.451 1461.128 -235.627 1446.117 C -236.803 1431.106 -226.523 1419.265 -212.666 1419.667 Z" style="fill: rgb(72, 101, 126);" transform="matrix(0.318144, -1.040601, 0.863717, 0.318144, -1393.220379, 767.455914)"/>
          <path id="path-5" data-name="Path 1179" d="M -167.731 1323.061 C -150.184 1323.67 -134.751 1342.57 -133.264 1365.275 C -131.775 1387.981 -144.789 1405.892 -162.338 1405.286 C -179.884 1404.677 -195.314 1385.779 -196.806 1363.071 C -198.295 1340.365 -185.276 1322.454 -167.731 1323.061 Z" style="fill: rgb(72, 101, 126);" transform="matrix(0.318144, -1.040601, 0.863717, 0.318144, -1290.789552, 758.434421)"/>
          <path id="path-6" data-name="Path 1178" d="M -10.288 1688.445 C -3.569 1688.65 2.339 1695.016 2.909 1702.665 C 3.479 1710.314 -1.504 1716.349 -8.223 1716.144 C -14.941 1715.939 -20.849 1709.572 -21.42 1701.923 C -21.99 1694.274 -17.005 1688.24 -10.288 1688.445 Z" style="fill: rgb(100, 139, 172);" transform="matrix(0.318144, -1.040601, 0.863717, 0.318144, -1476.611154, 1151.088589)"/>
          <path id="path-7" data-name="Path 1177" d="M 41.716 1655.522 C 51.874 1655.83 60.809 1665.397 61.671 1676.891 C 62.532 1688.385 54.997 1697.452 44.838 1697.144 C 34.679 1696.836 25.745 1687.269 24.883 1675.775 C 24.021 1664.281 31.557 1655.214 41.716 1655.522 Z" transform="matrix(0.318144, -1.040601, 0.863717, 0.318144, -1418.368231, 1188.051879)" style="fill: rgb(100, 139, 172);"/>
          <path id="path-8" data-name="Path 1179" d="M 90.773 1594.446 C 104.679 1594.899 116.909 1608.957 118.087 1625.846 C 119.267 1642.735 108.954 1656.058 95.047 1655.607 C 81.142 1655.154 68.914 1641.097 67.732 1624.206 C 66.552 1607.317 76.869 1593.994 90.773 1594.446 Z" style="fill: rgb(100, 139, 172);" transform="matrix(0.318144, -1.040601, 0.863717, 0.318144, -1340.211652, 1204.715933)"/>
          <path id="path-9" data-name="Path 1178" d="M -207.921 1508.318 C -198.87 1508.598 -190.912 1517.287 -190.144 1527.726 C -189.376 1538.166 -196.088 1546.403 -205.139 1546.123 C -214.189 1545.843 -222.147 1537.153 -222.916 1526.714 C -223.684 1516.274 -216.969 1508.038 -207.921 1508.318 Z" style="fill: rgb(72, 101, 126);" transform="matrix(0.318144, -1.040601, 0.863717, 0.318144, -1459.909645, 826.429311)"/>
        </g>
        <g id="g-13" clip-path="url(#clip-15)" transform="matrix(1, 0, 0, 1, 5687.87793, 12042.8125)"/>
        <g id="g-14" data-name="Group 1192" transform="matrix(-1, 0, 0, 1, 8983.376953, 11103.638672)"/>
        <polyline style="fill: rgb(216, 216, 216); stroke: rgb(0, 0, 0);" points="6692.595 12046.085"/>
        <path style="fill: rgb(216, 216, 216); stroke: rgb(0, 0, 0);" d="M 4136.167 12139.413"/>
        <g id="g-41" clip-path="url(#clip-16)" transform="matrix(1, 0, 0, 1, 3886.605469, 10575.548828)"/>
        <g id="g-42" data-name="Illustration - Min fysiske energi - Min fysiske aktivitet" clip-path="url(#clip-17)" transform="matrix(1, 0, 0, 1, 3592.00415, 10173.356445)"/>
        <path id="path-35" data-name="Path 1341" d="M 7095.028 13573.797 C 7096.807 13572.965 7102.052 13570.508 7101.701 13567.888 C 7101.818 13567.773 7101.944 13567.666 7102.077 13567.569 C 7101.336 13567.493 7101.785 13566.933 7102.171 13567.484 C 7101.98 13566.947 7101.849 13566.391 7101.779 13565.826 C 7099.148 13565.979 7086.592 13563.45 7087.441 13565.894 C 7086.821 13564.878 7086.551 13565.741 7086.441 13565.838 C 7086.614 13566.061 7086.806 13566.27 7087.014 13566.462 C 7085.537 13567.284 7084.756 13568.328 7087.131 13568.642 C 7089.785 13568.993 7092.575 13569.273 7095.336 13569.461 C 7094.364 13570.331 7093.28 13571.067 7092.113 13571.65 C 7091.981 13571.712 7091.855 13571.773 7091.724 13571.835 C 7092.2 13571.364 7092.589 13570.873 7091.856 13571.135 C 7091.596 13571.421 7091.378 13571.742 7091.207 13572.089 C 7088.723 13573.35 7086.948 13574.85 7087.522 13576.01 C 7087.585 13576.884 7088.432 13577.116 7089.275 13577.218 L 7089.207 13577.25 C 7089.188 13577.26 7089.253 13577.228 7089.275 13577.218 C 7089.297 13577.234 7089.262 13577.237 7089.207 13577.25 C 7089.107 13577.298 7089.367 13577.406 7089.436 13577.42 C 7089.517 13577.33 7089.536 13577.278 7089.523 13577.245 L 7089.717 13577.264 C 7090.332 13577.421 7090.956 13577.538 7091.586 13577.615 C 7092.203 13577.693 7093.857 13577.961 7095.72 13578.115 C 7095.779 13578.334 7095.849 13578.492 7095.934 13578.391 C 7095.906 13578.425 7095.924 13578.301 7095.955 13578.136 C 7096.511 13578.177 7097.081 13578.205 7097.648 13578.218 C 7097.442 13578.34 7097.061 13578.434 7097.197 13578.518 C 7097.417 13578.474 7097.621 13578.37 7097.786 13578.218 C 7097.848 13578.218 7097.911 13578.224 7097.974 13578.224 C 7098.086 13578.365 7098.391 13578.371 7098.933 13578.209 C 7101.181 13578.118 7103.05 13577.6 7103.05 13576.095 C 7103.05 13574.157 7098.858 13573.816 7095.03 13573.795 M 7092.939 13565.289 C 7092.904 13565.349 7092.862 13565.406 7092.816 13565.459 L 7092.603 13565.459 C 7092.587 13565.215 7092.759 13564.759 7092.939 13565.29 M 7092.077 13565.374 C 7092.121 13565.252 7092.177 13565.208 7092.234 13565.242 C 7092.224 13565.333 7092.215 13565.392 7092.206 13565.455 L 7092.076 13565.455 C 7092.076 13565.418 7092.076 13565.376 7092.076 13565.376 M 7091.713 13565.45 L 7091.593 13565.45 C 7091.568 13565.394 7091.534 13565.303 7091.503 13565.214 C 7091.503 13565.214 7091.487 13565.18 7091.459 13565.101 C 7091.576 13565.029 7091.673 13565.267 7091.713 13565.453 M 7087.841 13565.99 C 7087.841 13565.99 7087.941 13565.977 7088.03 13565.974 C 7087.973 13566.009 7087.903 13566.015 7087.841 13565.99" fill="#323f51" clip-path="url(#clip-18)"/>
        <path id="path-36" data-name="Path 1342" d="M 7121.182 13564.834 C 7121.175 13563.24 7115.237 13562.974 7111.05 13562.934 C 7111.239 13562.745 7111.429 13562.545 7111.618 13562.325 C 7111.752 13562.281 7111.881 13562.224 7112.004 13562.156 C 7111.969 13562.097 7111.937 13562.036 7111.91 13561.974 C 7111.938 13561.94 7111.964 13561.911 7111.991 13561.874 C 7112.012 13561.953 7112.028 13562.034 7112.039 13562.116 C 7112.363 13561.671 7112.722 13561.251 7113.11 13560.861 C 7113.13 13560.897 7113.16 13560.928 7113.197 13560.949 C 7113.253 13560.974 7113.273 13560.842 7113.251 13560.714 C 7115.299 13558.593 7118.751 13555.449 7117.807 13554.373 C 7117.86 13554.351 7117.907 13554.336 7117.96 13554.313 C 7118.26 13554.37 7118.283 13554.234 7118.24 13554.077 C 7118.375 13554.052 7118.45 13554.03 7118.44 13554.005 C 7118.315 13553.798 7118.172 13553.603 7118.011 13553.424 C 7118.064 13552.969 7117.331 13552.733 7117.14 13552.415 C 7117.209 13552.521 7117.257 13552.641 7117.282 13552.766 C 7117.117 13552.652 7116.945 13552.548 7116.767 13552.456 C 7117.075 13552.256 7116.667 13552.198 7116.423 13552.3 C 7116.082 13552.158 7115.729 13552.045 7115.37 13551.961 C 7115.499 13551.136 7115.162 13551.692 7115.198 13551.92 C 7113.368 13551.635 7111.513 13551.552 7109.666 13551.67 C 7109.613 13551.672 7109.561 13551.677 7109.509 13551.685 C 7109.281 13551.551 7109.077 13551.378 7108.909 13551.174 C 7108.863 13551.095 7108.872 13551.074 7108.9 13551.061 C 7108.637 13551.186 7108.363 13551.286 7108.082 13551.361 C 7108.091 13551.306 7108.091 13551.251 7108.082 13551.197 C 7108.064 13551.137 7108.004 13551.254 7107.976 13551.389 C 7106.616 13551.735 7104.676 13551.806 7104.855 13551.41 C 7104.492 13552.201 7104.233 13551.899 7104.297 13552.982 C 7104.021 13550.682 7104.331 13553.895 7104.05 13552.453 C 7104.066 13552.541 7104.126 13552.816 7104.189 13553.128 C 7102.81 13553.661 7102.123 13554.188 7103.724 13554.414 C 7103.883 13554.435 7104.163 13554.452 7104.53 13554.464 C 7104.502 13554.564 7104.493 13554.649 7104.548 13554.699 C 7104.559 13554.621 7104.566 13554.544 7104.57 13554.466 C 7106.081 13554.513 7109.07 13554.484 7111.889 13554.409 C 7111.766 13554.462 7111.693 13554.59 7111.708 13554.723 C 7111.679 13555.792 7112.077 13554.613 7112.137 13554.403 L 7113.113 13554.375 C 7113.182 13554.475 7113.257 13554.519 7113.333 13554.484 C 7113.409 13554.449 7113.47 13554.4 7113.54 13554.361 C 7113.822 13554.352 7114.098 13554.342 7114.367 13554.332 C 7114.292 13554.42 7114.251 13554.533 7114.252 13554.649 C 7114.206 13555.125 7114.481 13554.464 7114.481 13554.327 L 7114.981 13554.308 C 7114.721 13554.547 7114.658 13554.671 7114.681 13554.728 C 7113.225 13555.843 7111.855 13557.068 7110.585 13558.391 C 7110.573 13558.356 7110.548 13558.327 7110.516 13558.31 C 7110.384 13558.247 7110.302 13558.452 7110.375 13558.604 C 7108.834 13560.164 7107.387 13561.816 7106.043 13563.549 C 7105.878 13563.744 7105.856 13564.023 7105.987 13564.243 C 7105.914 13564.352 7105.872 13564.48 7105.868 13564.612 C 7106.502 13565.034 7107.217 13565.319 7107.968 13565.449 C 7108.906 13565.849 7108.711 13565.681 7108.411 13565.478 C 7108.652 13565.546 7108.906 13565.609 7109.169 13565.667 C 7109.244 13566.72 7110.759 13566.379 7111.589 13566.087 C 7111.989 13566.138 7112.396 13566.187 7112.806 13566.221 C 7112.731 13566.293 7112.695 13566.396 7112.706 13566.5 C 7112.738 13566.9 7113.019 13566.475 7113.088 13566.246 C 7113.818 13566.308 7114.553 13566.346 7115.27 13566.359 C 7115.164 13566.429 7115.07 13566.497 7115.017 13566.476 C 7115.109 13566.514 7115.274 13566.436 7115.417 13566.36 C 7116.098 13566.37 7116.759 13566.36 7117.374 13566.319 C 7119.562 13566.181 7121.185 13565.719 7121.181 13564.833 M 7115.781 13555.933 L 7115.706 13556.039 C 7115.722 13555.998 7115.748 13555.962 7115.781 13555.933 M 7117.069 13554.233 C 7117.078 13554.281 7117.071 13554.332 7117.05 13554.377 Z M 7115.177 13556.961 C 7115.205 13556.911 7115.234 13556.861 7115.262 13556.813 C 7115.462 13556.964 7115.315 13557.013 7115.177 13556.961 M 7115.677 13557.63 C 7115.116 13556.495 7116.483 13558.047 7115.677 13557.63 M 7116.009 13557.26 C 7115.298 13556.539 7115.939 13557.034 7115.977 13557.087 C 7116.05 13557.187 7116.062 13557.248 7116.009 13557.26 M 7116.442 13556.912 C 7116.492 13557.282 7114.933 13556.159 7116.442 13556.912 M 7106.101 13552.061 C 7106.087 13552.214 7106.061 13552.366 7106.022 13552.516 C 7105.941 13552.361 7105.984 13551.435 7106.101 13552.061 M 7105.863 13552.102 C 7105.869 13552.356 7105.869 13552.495 7105.863 13552.562 C 7105.834 13552.46 7105.818 13552.355 7105.815 13552.249 C 7105.822 13552.124 7105.838 13552.074 7105.861 13552.102 M 7104.853 13551.892 L 7104.771 13551.892 C 7104.79 13551.808 7104.909 13551.255 7104.853 13551.892 M 7105.599 13552.045 C 7105.712 13551.797 7105.799 13552.255 7105.819 13552.578 C 7105.782 13552.588 7105.747 13552.6 7105.71 13552.609 C 7105.679 13552.483 7105.642 13552.299 7105.598 13552.045 M 7114.977 13554.304 L 7115.31 13554.289 C 7115.25 13554.329 7115.187 13554.374 7115.124 13554.417 C 7115.089 13554.364 7115.037 13554.324 7114.977 13554.304 M 7110.072 13565.854 L 7110.408 13565.911 C 7110.131 13565.943 7110.034 13565.896 7110.072 13565.854" fill="#323f51" clip-path="url(#clip-18)"/>
        <path id="path-37" data-name="Path 1343" d="M 7105.662 13565.46 C 7106.099 13565.748 7106.648 13565.81 7107.139 13565.629 C 7107.139 13565.629 7105.264 13564.849 7105.662 13565.46" fill="#323f51" clip-path="url(#clip-18)"/>
        <path id="path-38" data-name="Path 1164" d="M 6053.3 13713.469" fill="none" stroke="#323f51" stroke-width="4.5"/>
        <g id="g-43" clip-path="url(#clip-19)" transform="matrix(1, 0, 0, 1, 7679.066895, 11861.682617)"/>
        <g id="g-44" data-name="Group 1192" transform="matrix(-1, 0, 0, 1, 10974.56543, 10922.508789)"/>
        <polyline style="fill: rgb(216, 216, 216); stroke: rgb(0, 0, 0);" points="8683.784 11864.957"/>
        <path style="fill: rgb(216, 216, 216); stroke: rgb(0, 0, 0);" d="M 6127.356 11958.283"/>
        <g id="g-45" data-name="Group 1541" transform="matrix(1, 0, 0, 1, 4735.681152, 11251.056641)">
          <g id="g-46" data-name="Group 1073" transform="translate(969.574 1172.396)"/>
          <g id="g-47" data-name="Group 1540" transform="translate(-68.904 -0.125) rotate(-2)"/>
        </g>
      </g>
    </g>
  </g>
  <g id="g-1" clip-path="url(#clip-1)" transform="matrix(1, 0, 0, 1, -2327.026832, -1734.390164)"/>
  <g id="Illustration_-_Min_fysiske_energi_-_Min_fysiske_aktivitet" data-name="Illustration - Min fysiske energi - Min fysiske aktivitet" clip-path="url(#clip-Illustration_-_Min_fysiske_energi_-_Min_fysiske_aktivitet)" transform="matrix(1, 0, 0, 1, -2621.62815, -2136.582913)"/>
  <path id="Path_1341" data-name="Path 1341" d="M 1779.581 1798.383 C 1781.36 1797.551 1786.605 1795.094 1786.254 1792.474 C 1786.371 1792.359 1786.497 1792.252 1786.63 1792.155 C 1785.889 1792.079 1786.338 1791.519 1786.724 1792.07 C 1786.533 1791.533 1786.402 1790.977 1786.332 1790.412 C 1783.701 1790.565 1771.145 1788.036 1771.994 1790.48 C 1771.374 1789.464 1771.104 1790.327 1770.994 1790.424 C 1771.167 1790.647 1771.359 1790.856 1771.567 1791.048 C 1770.09 1791.87 1769.309 1792.914 1771.684 1793.228 C 1774.338 1793.579 1777.128 1793.859 1779.889 1794.047 C 1778.917 1794.917 1777.833 1795.653 1776.666 1796.236 C 1776.534 1796.298 1776.408 1796.359 1776.277 1796.421 C 1776.753 1795.95 1777.142 1795.459 1776.409 1795.721 C 1776.149 1796.007 1775.931 1796.328 1775.76 1796.675 C 1773.276 1797.936 1771.501 1799.436 1772.075 1800.596 C 1772.138 1801.47 1772.985 1801.702 1773.828 1801.804 L 1773.76 1801.836 C 1773.741 1801.846 1773.806 1801.814 1773.828 1801.804 C 1773.85 1801.82 1773.815 1801.823 1773.76 1801.836 C 1773.66 1801.884 1773.92 1801.992 1773.989 1802.006 C 1774.07 1801.916 1774.089 1801.864 1774.076 1801.831 L 1774.27 1801.85 C 1774.885 1802.007 1775.509 1802.124 1776.139 1802.201 C 1776.756 1802.279 1778.41 1802.547 1780.273 1802.701 C 1780.332 1802.92 1780.402 1803.078 1780.487 1802.977 C 1780.459 1803.011 1780.477 1802.887 1780.508 1802.722 C 1781.064 1802.763 1781.634 1802.791 1782.201 1802.804 C 1781.995 1802.926 1781.614 1803.02 1781.75 1803.104 C 1781.97 1803.06 1782.174 1802.956 1782.339 1802.804 C 1782.401 1802.804 1782.464 1802.81 1782.527 1802.81 C 1782.639 1802.951 1782.944 1802.957 1783.486 1802.795 C 1785.734 1802.704 1787.603 1802.186 1787.603 1800.681 C 1787.603 1798.743 1783.411 1798.402 1779.583 1798.381 M 1777.492 1789.875 C 1777.457 1789.935 1777.415 1789.992 1777.369 1790.045 L 1777.156 1790.045 C 1777.14 1789.801 1777.312 1789.345 1777.492 1789.876 M 1776.63 1789.96 C 1776.674 1789.838 1776.73 1789.794 1776.787 1789.828 C 1776.777 1789.919 1776.768 1789.978 1776.759 1790.041 L 1776.629 1790.041 C 1776.629 1790.004 1776.629 1789.962 1776.629 1789.962 M 1776.266 1790.036 L 1776.146 1790.036 C 1776.121 1789.98 1776.087 1789.889 1776.056 1789.8 C 1776.056 1789.8 1776.04 1789.766 1776.012 1789.687 C 1776.129 1789.615 1776.226 1789.853 1776.266 1790.039 M 1772.394 1790.576 C 1772.394 1790.576 1772.494 1790.563 1772.583 1790.56 C 1772.526 1790.595 1772.456 1790.601 1772.394 1790.576" fill="#323f51" clip-path="url(#clip-path)" transform="matrix(1, 0, 0, 1, -898.186133, -534.525113)"/>
  <path id="Path_1342" data-name="Path 1342" d="M 1805.735 1789.42 C 1805.728 1787.826 1799.79 1787.56 1795.603 1787.52 C 1795.792 1787.331 1795.982 1787.131 1796.171 1786.911 C 1796.305 1786.867 1796.434 1786.81 1796.557 1786.742 C 1796.522 1786.683 1796.49 1786.622 1796.463 1786.56 C 1796.491 1786.526 1796.517 1786.497 1796.544 1786.46 C 1796.565 1786.539 1796.581 1786.62 1796.592 1786.702 C 1796.916 1786.257 1797.275 1785.837 1797.663 1785.447 C 1797.683 1785.483 1797.713 1785.514 1797.75 1785.535 C 1797.806 1785.56 1797.826 1785.428 1797.804 1785.3 C 1799.852 1783.179 1803.304 1780.035 1802.36 1778.959 C 1802.413 1778.937 1802.46 1778.922 1802.513 1778.899 C 1802.813 1778.956 1802.836 1778.82 1802.793 1778.663 C 1802.928 1778.638 1803.003 1778.616 1802.993 1778.591 C 1802.868 1778.384 1802.725 1778.189 1802.564 1778.01 C 1802.617 1777.555 1801.884 1777.319 1801.693 1777.001 C 1801.762 1777.107 1801.81 1777.227 1801.835 1777.352 C 1801.67 1777.238 1801.498 1777.134 1801.32 1777.042 C 1801.628 1776.842 1801.22 1776.784 1800.976 1776.886 C 1800.635 1776.744 1800.282 1776.631 1799.923 1776.547 C 1800.052 1775.722 1799.715 1776.278 1799.751 1776.506 C 1797.921 1776.221 1796.066 1776.138 1794.219 1776.256 C 1794.166 1776.258 1794.114 1776.263 1794.062 1776.271 C 1793.834 1776.137 1793.63 1775.964 1793.462 1775.76 C 1793.416 1775.681 1793.425 1775.66 1793.453 1775.647 C 1793.19 1775.772 1792.916 1775.872 1792.635 1775.947 C 1792.644 1775.892 1792.644 1775.837 1792.635 1775.783 C 1792.617 1775.723 1792.557 1775.84 1792.529 1775.975 C 1791.169 1776.321 1789.229 1776.392 1789.408 1775.996 C 1789.045 1776.787 1788.786 1776.485 1788.85 1777.568 C 1788.574 1775.268 1788.884 1778.481 1788.603 1777.039 C 1788.619 1777.127 1788.679 1777.402 1788.742 1777.714 C 1787.363 1778.247 1786.676 1778.774 1788.277 1779 C 1788.436 1779.021 1788.716 1779.038 1789.083 1779.05 C 1789.055 1779.15 1789.046 1779.235 1789.101 1779.285 C 1789.112 1779.207 1789.119 1779.13 1789.123 1779.052 C 1790.634 1779.099 1793.623 1779.07 1796.442 1778.995 C 1796.319 1779.048 1796.246 1779.176 1796.261 1779.309 C 1796.232 1780.378 1796.63 1779.199 1796.69 1778.989 L 1797.666 1778.961 C 1797.735 1779.061 1797.81 1779.105 1797.886 1779.07 C 1797.962 1779.035 1798.023 1778.986 1798.093 1778.947 C 1798.375 1778.938 1798.651 1778.928 1798.92 1778.918 C 1798.845 1779.006 1798.804 1779.119 1798.805 1779.235 C 1798.759 1779.711 1799.034 1779.05 1799.034 1778.913 L 1799.534 1778.894 C 1799.274 1779.133 1799.211 1779.257 1799.234 1779.314 C 1797.778 1780.429 1796.408 1781.654 1795.138 1782.977 C 1795.126 1782.942 1795.101 1782.913 1795.069 1782.896 C 1794.937 1782.833 1794.855 1783.038 1794.928 1783.19 C 1793.387 1784.75 1791.94 1786.402 1790.596 1788.135 C 1790.431 1788.33 1790.409 1788.609 1790.54 1788.829 C 1790.467 1788.938 1790.425 1789.066 1790.421 1789.198 C 1791.055 1789.62 1791.77 1789.905 1792.521 1790.035 C 1793.459 1790.435 1793.264 1790.267 1792.964 1790.064 C 1793.205 1790.132 1793.459 1790.195 1793.722 1790.253 C 1793.797 1791.306 1795.312 1790.965 1796.142 1790.673 C 1796.542 1790.724 1796.949 1790.773 1797.359 1790.807 C 1797.284 1790.879 1797.248 1790.982 1797.259 1791.086 C 1797.291 1791.486 1797.572 1791.061 1797.641 1790.832 C 1798.371 1790.894 1799.106 1790.932 1799.823 1790.945 C 1799.717 1791.015 1799.623 1791.083 1799.57 1791.062 C 1799.662 1791.1 1799.827 1791.022 1799.97 1790.946 C 1800.651 1790.956 1801.312 1790.946 1801.927 1790.905 C 1804.115 1790.767 1805.738 1790.305 1805.734 1789.419 M 1800.334 1780.519 L 1800.259 1780.625 C 1800.275 1780.584 1800.301 1780.548 1800.334 1780.519 M 1801.622 1778.819 C 1801.631 1778.867 1801.624 1778.918 1801.603 1778.963 Z M 1799.73 1781.547 C 1799.758 1781.497 1799.787 1781.447 1799.815 1781.399 C 1800.015 1781.55 1799.868 1781.599 1799.73 1781.547 M 1800.23 1782.216 C 1799.669 1781.081 1801.036 1782.633 1800.23 1782.216 M 1800.562 1781.846 C 1799.851 1781.125 1800.492 1781.62 1800.53 1781.673 C 1800.603 1781.773 1800.615 1781.834 1800.562 1781.846 M 1800.995 1781.498 C 1801.045 1781.868 1799.486 1780.745 1800.995 1781.498 M 1790.654 1776.647 C 1790.64 1776.8 1790.614 1776.952 1790.575 1777.102 C 1790.494 1776.947 1790.537 1776.021 1790.654 1776.647 M 1790.416 1776.688 C 1790.422 1776.942 1790.422 1777.081 1790.416 1777.148 C 1790.387 1777.046 1790.371 1776.941 1790.368 1776.835 C 1790.375 1776.71 1790.391 1776.66 1790.414 1776.688 M 1789.406 1776.478 L 1789.324 1776.478 C 1789.343 1776.394 1789.462 1775.841 1789.406 1776.478 M 1790.152 1776.631 C 1790.265 1776.383 1790.352 1776.841 1790.372 1777.164 C 1790.335 1777.174 1790.3 1777.186 1790.263 1777.195 C 1790.232 1777.069 1790.195 1776.885 1790.151 1776.631 M 1799.53 1778.89 L 1799.863 1778.875 C 1799.803 1778.915 1799.74 1778.96 1799.677 1779.003 C 1799.642 1778.95 1799.59 1778.91 1799.53 1778.89 M 1794.625 1790.44 L 1794.961 1790.497 C 1794.684 1790.529 1794.587 1790.482 1794.625 1790.44" fill="#323f51" clip-path="url(#clip-path)" transform="matrix(1, 0, 0, 1, -898.186133, -534.525113)"/>
  <path id="Path_1343" data-name="Path 1343" d="M 1790.215 1790.046 C 1790.652 1790.334 1791.201 1790.396 1791.692 1790.215 C 1791.692 1790.215 1789.817 1789.435 1790.215 1790.046" fill="#323f51" clip-path="url(#clip-path)" transform="matrix(1, 0, 0, 1, -898.186133, -534.525113)"/>
  <path id="Path_1164" data-name="Path 1164" d="M 737.853 1938.055" fill="none" stroke="#323f51" stroke-width="4.5" transform="matrix(1, 0, 0, 1, -898.186133, -534.525113)"/>
  <g id="g-18" clip-path="url(#clip-14)" transform="matrix(1, 0, 0, 1, 1465.433984, -448.256314)"/>
  <g id="g-19" data-name="Group 1192" transform="matrix(-1, 0, 0, 1, 4760.93374, -1387.430081)"/>
  <polyline style="fill: rgb(216, 216, 216); stroke: rgb(0, 0, 0);" points="510.455 -75.258" transform="matrix(1, 0, 0, 1, 1959.696191, -369.724973)"/>
  <path style="fill: rgb(216, 216, 216); stroke: rgb(0, 0, 0);" d="M -167.225 -0.173" transform="matrix(1, 0, 0, 1, 80.948388, -351.482877)"/>
  <g id="g-17" data-name="Group 1541" transform="matrix(1, 0, 0, 1, -1477.951392, -1058.88223)">
    <g id="g-20" data-name="Group 1073" transform="translate(969.574 1172.396)"/>
    <g id="g-22" data-name="Group 1540" transform="translate(-68.904 -0.125) rotate(-2)"/>
  </g>
  <path id="path-18" data-name="Path 1666" d="M -939.574 768.748 C -937.567 760.369 -943.576 752.43 -950.388 754.446 C -957.204 756.465 -959.712 766.931 -954.903 773.286 C -953.808 774.736 -952.423 775.803 -950.889 776.369 C -946.077 778.169 -941.01 774.752 -939.574 768.748" style="stroke-width: 5px; fill: rgb(50, 63, 81);" transform="matrix(1, 0.000001, -0.000001, 1, 0.000765, 0.000948)"/>
  <g id="g-3" clip-path="url(#clip-7)" transform="matrix(1, 0, 0, 1, 2125.515625, 1022.950134)"/>
  <g id="g-4" data-name="Group 1192" transform="matrix(-1, 0, 0, 1, 5421.015625, 83.776375)"/>
  <polyline style="fill: rgb(216, 216, 216); stroke: rgb(0, 0, 0);" points="3130.233 1026.223"/>
  <g id="g-7" data-name="Group 1411" transform="matrix(1, 0, 0, 1, -452.197113, -2719.660645)">
    <rect id="rect-2" data-name="Rectangle 451" width="228.937" height="242.798" transform="matrix(-0.777, -0.629, 0.629, -0.777, 1442.229, 4079.014)" fill="none"/>
    <g id="g-9" data-name="Group 1404" transform="matrix(0.996, 0.087, -0.087, 0.996, 321.395, -105.091)"/>
  </g>
  <path style="fill: rgb(216, 216, 216); stroke: rgb(0, 0, 0);" d="M 573.805 1119.551"/>
  <g id="g-10" data-name="Group 1216" transform="matrix(1, 0, 0, 1, -2230.743896, -8523.708008)">
    <g id="g-12" data-name="Group 1209" transform="translate(53.113 -929)">
      <path id="path-10" data-name="Path 1764" d="M-976.144,187.328" transform="translate(3011.323 9745.573)" fill="none" stroke="#323f51" stroke-width="1"/>
      <g transform="matrix(-0.995868, 0.090835, -0.090835, -0.995868, 929.299805, 18985.890625)">
        <g>
          <g transform="matrix(1, 0, 0, 1, 25.437422, 97.591919)">
            <g id="Group_831" data-name="Group 831" transform="matrix(-1.383358, -0.168358, -0.161354, 1.325814, -12188.099609, 3403.231689)" style="">
              <g id="Group_840" data-name="Group 840" transform="matrix(1.570383, 0, 0, 1.762897, -10409.424805, 754.889038)" style="">
                <g id="Group_906" data-name="Group 906" transform="matrix(1.272933, 0, 0, 1.212726, -1597.980103, 1121.041382)" style="">
                  <g id="Group_1541" data-name="Group 1541" transform="matrix(0.59525, 0, 0, 0.553993, 968.16803, -272.478546)">
                    <g id="Group_1539" data-name="Group 1539" transform="matrix(0.99863, -0.052336, 0.052336, 0.99863, 772.2771, 1226.254272)">
                      <path id="path-22" data-name="Exclusion 2" d="M 1501.944 -506.872 L 1501.909 -506.872 C 1500.728 -506.798 1499.595 -507.273 1498.78 -508.18 C 1498.029 -509.193 1497.684 -510.511 1497.82 -511.848 C 1497.853 -513.19 1498.347 -514.491 1499.201 -515.481 C 1500.055 -516.413 1501.203 -516.93 1502.373 -516.91 L 1502.383 -516.91 C 1503.66 -516.909 1504.843 -516.274 1505.611 -515.178 C 1505.256 -515.523 1504.793 -515.704 1504.312 -515.684 L 1504.279 -515.684 C 1502.863 -515.771 1501.828 -514.118 1502.415 -512.709 C 1502.495 -512.517 1502.602 -512.34 1502.734 -512.189 C 1503.106 -511.757 1503.624 -511.515 1504.175 -511.515 L 1504.258 -511.515 C 1505.284 -511.527 1506.129 -512.492 1506.107 -513.632 C 1506.126 -513.933 1506.091 -514.232 1506.004 -514.512 C 1506.404 -513.679 1506.59 -512.734 1506.542 -511.775 C 1506.529 -510.453 1506.04 -509.17 1505.186 -508.209 C 1504.292 -507.304 1503.124 -506.821 1501.944 -506.872 Z M 1505.997 -514.525 C 1505.885 -514.754 1505.757 -514.972 1505.611 -515.178 C 1505.784 -514.997 1505.917 -514.775 1505.999 -514.526 Z" style="stroke-width: 2.52707px; fill: rgb(50, 63, 81);" transform="matrix(-0.68495, 0.767099, -0.698456, -0.677736, 2173.550611, -2011.125826)"/>
                      <path id="path-11" data-name="Exclusion 2" d="M 1458.601 -509.491 L 1458.566 -509.491 C 1457.385 -509.417 1456.252 -509.892 1455.437 -510.799 C 1454.686 -511.812 1454.341 -513.13 1454.477 -514.467 C 1454.51 -515.809 1455.004 -517.11 1455.858 -518.1 C 1456.712 -519.032 1457.86 -519.549 1459.03 -519.529 L 1459.04 -519.529 C 1460.317 -519.528 1461.5 -518.893 1462.268 -517.797 C 1461.913 -518.142 1461.45 -518.323 1460.969 -518.303 L 1460.936 -518.303 C 1459.52 -518.39 1458.485 -516.737 1459.072 -515.328 C 1459.152 -515.136 1459.259 -514.959 1459.391 -514.808 C 1459.763 -514.376 1460.281 -514.134 1460.832 -514.134 L 1460.915 -514.134 C 1461.941 -514.146 1462.786 -515.111 1462.764 -516.251 C 1462.783 -516.552 1462.748 -516.851 1462.661 -517.131 C 1463.061 -516.298 1463.247 -515.353 1463.199 -514.394 C 1463.186 -513.072 1462.697 -511.789 1461.843 -510.828 C 1460.949 -509.923 1459.781 -509.44 1458.601 -509.491 Z M 1462.654 -517.144 C 1462.542 -517.373 1462.414 -517.591 1462.268 -517.797 C 1462.441 -517.616 1462.574 -517.394 1462.656 -517.145 Z" style="stroke-width: 2.52707px; fill: rgb(50, 63, 81);" transform="matrix(-0.68495, 0.767099, -0.698455, -0.677736, 2098.691123, -1982.271242)"/>
                      <circle style="fill: rgb(248, 246, 246);" cx="1257.636" cy="9241.142" r="3.036" transform="matrix(0.679311, 0.05717, 0.055356, -0.680907, 92.867615, 5708.643066)"/>
                    </g>
                  </g>
                </g>
              </g>
              <g id="Group_656" data-name="Group 656" transform="matrix(0.463966, -0.024315, 0.0259, 0.494203, -9905.03125, 3667.9104)" style=""/>
            </g>
          </g>
        </g>
      </g>
    </g>
    <circle style="fill: rgb(248, 246, 246);" cx="1257.636" cy="9241.142" r="3.036" transform="matrix(1.13037, 0, 0, 1.080703, -105.032364, -749.298157)"/>
  </g>
  <g id="g-21" clip-path="url(#clip-8)" transform="matrix(1, 0, 0, 1, 324.243683, -444.312988)"/>
  <g id="g-23" data-name="Illustration - Min fysiske energi - Min fysiske aktivitet" clip-path="url(#clip-11)" transform="matrix(1, 0, 0, 1, 29.642357, -846.505798)"/>
  <path id="path-28" data-name="Path 1341" d="M 3532.665 2553.935 C 3534.444 2553.103 3539.689 2550.646 3539.338 2548.026 C 3539.455 2547.911 3539.581 2547.804 3539.714 2547.707 C 3538.973 2547.631 3539.422 2547.071 3539.808 2547.622 C 3539.617 2547.085 3539.486 2546.529 3539.416 2545.964 C 3536.785 2546.117 3524.229 2543.588 3525.078 2546.032 C 3524.458 2545.016 3524.188 2545.879 3524.078 2545.976 C 3524.251 2546.199 3524.443 2546.408 3524.651 2546.6 C 3523.174 2547.422 3522.393 2548.466 3524.768 2548.78 C 3527.422 2549.131 3530.212 2549.411 3532.973 2549.599 C 3532.001 2550.469 3530.917 2551.205 3529.75 2551.788 C 3529.618 2551.85 3529.492 2551.911 3529.361 2551.973 C 3529.837 2551.502 3530.226 2551.011 3529.493 2551.273 C 3529.233 2551.559 3529.015 2551.88 3528.844 2552.227 C 3526.36 2553.488 3524.585 2554.988 3525.159 2556.148 C 3525.222 2557.022 3526.069 2557.254 3526.912 2557.356 L 3526.844 2557.388 C 3526.825 2557.398 3526.89 2557.366 3526.912 2557.356 C 3526.934 2557.372 3526.899 2557.375 3526.844 2557.388 C 3526.744 2557.436 3527.004 2557.544 3527.073 2557.558 C 3527.154 2557.468 3527.173 2557.416 3527.16 2557.383 L 3527.354 2557.402 C 3527.969 2557.559 3528.593 2557.676 3529.223 2557.753 C 3529.84 2557.831 3531.494 2558.099 3533.357 2558.253 C 3533.416 2558.472 3533.486 2558.63 3533.571 2558.529 C 3533.543 2558.563 3533.561 2558.439 3533.592 2558.274 C 3534.148 2558.315 3534.718 2558.343 3535.285 2558.356 C 3535.079 2558.478 3534.698 2558.572 3534.834 2558.656 C 3535.054 2558.612 3535.258 2558.508 3535.423 2558.356 C 3535.485 2558.356 3535.548 2558.362 3535.611 2558.362 C 3535.723 2558.503 3536.028 2558.509 3536.57 2558.347 C 3538.818 2558.256 3540.687 2557.738 3540.687 2556.233 C 3540.687 2554.295 3536.495 2553.954 3532.667 2553.933 M 3530.576 2545.427 C 3530.541 2545.487 3530.499 2545.544 3530.453 2545.597 L 3530.24 2545.597 C 3530.224 2545.353 3530.396 2544.897 3530.576 2545.428 M 3529.714 2545.512 C 3529.758 2545.39 3529.814 2545.346 3529.871 2545.38 C 3529.861 2545.471 3529.852 2545.53 3529.843 2545.593 L 3529.713 2545.593 C 3529.713 2545.556 3529.713 2545.514 3529.713 2545.514 M 3529.35 2545.588 L 3529.23 2545.588 C 3529.205 2545.532 3529.171 2545.441 3529.14 2545.352 C 3529.14 2545.352 3529.124 2545.318 3529.096 2545.239 C 3529.213 2545.167 3529.31 2545.405 3529.35 2545.591 M 3525.478 2546.128 C 3525.478 2546.128 3525.578 2546.115 3525.667 2546.112 C 3525.61 2546.147 3525.54 2546.153 3525.478 2546.128" fill="#323f51" clip-path="url(#clip-12)"/>
  <path id="path-29" data-name="Path 1342" d="M 3558.819 2544.972 C 3558.812 2543.378 3552.874 2543.112 3548.687 2543.072 C 3548.876 2542.883 3549.066 2542.683 3549.255 2542.463 C 3549.389 2542.419 3549.518 2542.362 3549.641 2542.294 C 3549.606 2542.235 3549.574 2542.174 3549.547 2542.112 C 3549.575 2542.078 3549.601 2542.049 3549.628 2542.012 C 3549.649 2542.091 3549.665 2542.172 3549.676 2542.254 C 3550 2541.809 3550.359 2541.389 3550.747 2540.999 C 3550.767 2541.035 3550.797 2541.066 3550.834 2541.087 C 3550.89 2541.112 3550.91 2540.98 3550.888 2540.852 C 3552.936 2538.731 3556.388 2535.587 3555.444 2534.511 C 3555.497 2534.489 3555.544 2534.474 3555.597 2534.451 C 3555.897 2534.508 3555.92 2534.372 3555.877 2534.215 C 3556.012 2534.19 3556.087 2534.168 3556.077 2534.143 C 3555.952 2533.936 3555.809 2533.741 3555.648 2533.562 C 3555.701 2533.107 3554.968 2532.871 3554.777 2532.553 C 3554.846 2532.659 3554.894 2532.779 3554.919 2532.904 C 3554.754 2532.79 3554.582 2532.686 3554.404 2532.594 C 3554.712 2532.394 3554.304 2532.336 3554.06 2532.438 C 3553.719 2532.296 3553.366 2532.183 3553.007 2532.099 C 3553.136 2531.274 3552.799 2531.83 3552.835 2532.058 C 3551.005 2531.773 3549.15 2531.69 3547.303 2531.808 C 3547.25 2531.81 3547.198 2531.815 3547.146 2531.823 C 3546.918 2531.689 3546.714 2531.516 3546.546 2531.312 C 3546.5 2531.233 3546.509 2531.212 3546.537 2531.199 C 3546.274 2531.324 3546 2531.424 3545.719 2531.499 C 3545.728 2531.444 3545.728 2531.389 3545.719 2531.335 C 3545.701 2531.275 3545.641 2531.392 3545.613 2531.527 C 3544.253 2531.873 3542.313 2531.944 3542.492 2531.548 C 3542.129 2532.339 3541.87 2532.037 3541.934 2533.12 C 3541.658 2530.82 3541.968 2534.033 3541.687 2532.591 C 3541.703 2532.679 3541.763 2532.954 3541.826 2533.266 C 3540.447 2533.799 3539.76 2534.326 3541.361 2534.552 C 3541.52 2534.573 3541.8 2534.59 3542.167 2534.602 C 3542.139 2534.702 3542.13 2534.787 3542.185 2534.837 C 3542.196 2534.759 3542.203 2534.682 3542.207 2534.604 C 3543.718 2534.651 3546.707 2534.622 3549.526 2534.547 C 3549.403 2534.6 3549.33 2534.728 3549.345 2534.861 C 3549.316 2535.93 3549.714 2534.751 3549.774 2534.541 L 3550.75 2534.513 C 3550.819 2534.613 3550.894 2534.657 3550.97 2534.622 C 3551.046 2534.587 3551.107 2534.538 3551.177 2534.499 C 3551.459 2534.49 3551.735 2534.48 3552.004 2534.47 C 3551.929 2534.558 3551.888 2534.671 3551.889 2534.787 C 3551.843 2535.263 3552.118 2534.602 3552.118 2534.465 L 3552.618 2534.446 C 3552.358 2534.685 3552.295 2534.809 3552.318 2534.866 C 3550.862 2535.981 3549.492 2537.206 3548.222 2538.529 C 3548.21 2538.494 3548.185 2538.465 3548.153 2538.448 C 3548.021 2538.385 3547.939 2538.59 3548.012 2538.742 C 3546.471 2540.302 3545.024 2541.954 3543.68 2543.687 C 3543.515 2543.882 3543.493 2544.161 3543.624 2544.381 C 3543.551 2544.49 3543.509 2544.618 3543.505 2544.75 C 3544.139 2545.172 3544.854 2545.457 3545.605 2545.587 C 3546.543 2545.987 3546.348 2545.819 3546.048 2545.616 C 3546.289 2545.684 3546.543 2545.747 3546.806 2545.805 C 3546.881 2546.858 3548.396 2546.517 3549.226 2546.225 C 3549.626 2546.276 3550.033 2546.325 3550.443 2546.359 C 3550.368 2546.431 3550.332 2546.534 3550.343 2546.638 C 3550.375 2547.038 3550.656 2546.613 3550.725 2546.384 C 3551.455 2546.446 3552.19 2546.484 3552.907 2546.497 C 3552.801 2546.567 3552.707 2546.635 3552.654 2546.614 C 3552.746 2546.652 3552.911 2546.574 3553.054 2546.498 C 3553.735 2546.508 3554.396 2546.498 3555.011 2546.457 C 3557.199 2546.319 3558.822 2545.857 3558.818 2544.971 M 3553.418 2536.071 L 3553.343 2536.177 C 3553.359 2536.136 3553.385 2536.1 3553.418 2536.071 M 3554.706 2534.371 C 3554.715 2534.419 3554.708 2534.47 3554.687 2534.515 Z M 3552.814 2537.099 C 3552.842 2537.049 3552.871 2536.999 3552.899 2536.951 C 3553.099 2537.102 3552.952 2537.151 3552.814 2537.099 M 3553.314 2537.768 C 3552.753 2536.633 3554.12 2538.185 3553.314 2537.768 M 3553.646 2537.398 C 3552.935 2536.677 3553.576 2537.172 3553.614 2537.225 C 3553.687 2537.325 3553.699 2537.386 3553.646 2537.398 M 3554.079 2537.05 C 3554.129 2537.42 3552.57 2536.297 3554.079 2537.05 M 3543.738 2532.199 C 3543.724 2532.352 3543.698 2532.504 3543.659 2532.654 C 3543.578 2532.499 3543.621 2531.573 3543.738 2532.199 M 3543.5 2532.24 C 3543.506 2532.494 3543.506 2532.633 3543.5 2532.7 C 3543.471 2532.598 3543.455 2532.493 3543.452 2532.387 C 3543.459 2532.262 3543.475 2532.212 3543.498 2532.24 M 3542.49 2532.03 L 3542.408 2532.03 C 3542.427 2531.946 3542.546 2531.393 3542.49 2532.03 M 3543.236 2532.183 C 3543.349 2531.935 3543.436 2532.393 3543.456 2532.716 C 3543.419 2532.726 3543.384 2532.738 3543.347 2532.747 C 3543.316 2532.621 3543.279 2532.437 3543.235 2532.183 M 3552.614 2534.442 L 3552.947 2534.427 C 3552.887 2534.467 3552.824 2534.512 3552.761 2534.555 C 3552.726 2534.502 3552.674 2534.462 3552.614 2534.442 M 3547.709 2545.992 L 3548.045 2546.049 C 3547.768 2546.081 3547.671 2546.034 3547.709 2545.992" fill="#323f51" clip-path="url(#clip-12)"/>
  <path id="path-30" data-name="Path 1343" d="M 3543.299 2545.598 C 3543.736 2545.886 3544.285 2545.948 3544.776 2545.767 C 3544.776 2545.767 3542.901 2544.987 3543.299 2545.598" fill="#323f51" clip-path="url(#clip-12)"/>
  <path id="path-31" data-name="Path 1164" d="M 2490.937 2693.607" fill="none" stroke="#323f51" stroke-width="4.5"/>
  <g id="g-24" clip-path="url(#clip-13)" transform="matrix(1, 0, 0, 1, 4116.70459, 841.820862)"/>
  <g id="g-25" data-name="Group 1192" transform="matrix(-1, 0, 0, 1, 7412.204102, -97.352898)"/>
  <polyline style="fill: rgb(216, 216, 216); stroke: rgb(0, 0, 0);" points="5121.422 845.094"/>
  <path style="fill: rgb(216, 216, 216); stroke: rgb(0, 0, 0);" d="M 2564.994 938.421"/>
  <g id="g-26" data-name="Group 1541" transform="matrix(1, 0, 0, 1, 1173.319092, 231.194962)">
    <g id="g-27" data-name="Group 1073" transform="translate(969.574 1172.396)"/>
    <g id="g-28" data-name="Group 1540" transform="translate(-68.904 -0.125) rotate(-2)"/>
  </g>
</svg>