<?xml version="1.0" encoding="utf-8"?>
<svg viewBox="777.629 -88.208 1786.404 1537.795" xmlns="http://www.w3.org/2000/svg">
  <defs>
    <clipPath id="clip-1">
      <rect width="1166" height="1094"/>
    </clipPath>
    <clipPath id="clip-Illustration_-_Min_fysiske_energi_-_Min_fysiske_aktivitet">
      <rect width="545" height="513"/>
    </clipPath>
    <clipPath id="clip-Balance">
      <rect width="1166" height="1094"/>
    </clipPath>
  </defs>
  <path id="path-1" data-name="Path 1226" d="M 2095.54 561.118 L 2291.05 561.118 C 2291.05 561.118 2440.483 555.637 2441.305 593.656 C 2442.125 631.673 2410.615 629.142 2386.101 643.932 C 2361.586 658.724 2379.227 677.269 2357.912 703.865 C 2336.597 730.459 2316.623 734.409 2277.795 712.525 C 2238.964 690.642 2214.273 794.343 2152.117 782.734 C 2089.962 771.125 2082.215 735.383 2079.565 687.578 C 2076.917 639.773 2030.704 648.712 2036.17 608.297 C 2041.634 567.884 2095.54 561.118 2095.54 561.118 Z" style="fill: rgb(53, 63, 79);" transform="matrix(-1, 0, 0, -1, 4477.042114, 1344.487488)"/>
  <path id="path-2" data-name="Path 1226" d="M 892.539 403.173 L 1028.954 403.173 C 1028.954 403.173 1133.219 406.675 1133.792 382.384 C 1134.366 358.092 1112.378 359.71 1095.275 350.26 C 1078.17 340.81 1090.479 328.96 1075.606 311.967 C 1060.734 294.973 1046.797 292.451 1019.705 306.433 C 992.612 320.415 975.384 254.157 932.016 261.574 C 888.648 268.992 883.242 291.828 881.394 322.372 C 879.546 352.917 847.302 347.206 851.115 373.029 C 854.928 398.85 892.539 403.173 892.539 403.173 Z" style="fill: rgb(71, 94, 130);"/>
  <g transform="matrix(1, 0, 0, 1, 28.1693, -75.547417)">
    <path id="Path_678" data-name="Path 678" d="M 1960.729 79.391 C 2188.428 183.502 2190.161 219.178 2200.722 500.778 C 2211.283 782.378 1937.05 976.548 1635.568 1037.516 C 1441.187 1076.826 1146.164 1094.316 1032.374 972.209 C 969.675 904.927 991.304 738.26 991.304 621.875 C 991.304 353.013 1171.377 160.476 1413.1 50.749 C 1465.916 26.774 1917.43 59.593 1960.729 79.391 Z" style="fill: rgb(97, 112, 132);"/>
    <g id="Group_1216" data-name="Group 1216" transform="matrix(1, 0, 0, 1, -393.668182, -8098.117676)">
      <g id="Group_1209" data-name="Group 1209" transform="translate(53.113 -929)">
        <path id="Path_1764" data-name="Path 1764" d="M-976.144,187.328" transform="translate(3011.323 9745.573)" fill="none" stroke="#323f51" stroke-width="1"/>
        <path id="Path_1765" data-name="Path 1765" d="M-982.584,262.108c.825,67.193,1.644,112.427,2.469,179.625a342.6,342.6,0,0,0,67.853,1.291" transform="translate(2980.024 10055.532)" fill="none" stroke="#323f51" stroke-linecap="round" stroke-linejoin="round" style="stroke-width: 6px;"/>
        <path id="Path_1767" data-name="Path 1767" d="M-703.112,152.034c52.563,29.635,84.427,86.43,107.008,143.07a794.338,794.338,0,0,1,54.754,339.5c-1.316,22.231-3.739,45.023-13.792,64.81-12.76,25.118-36.509,42.677-61.4,55.272-47.245,23.9-100.512,32.948-153.207,35.829-44.8,2.449-90.807.458-132.609-16.1s-79.11-49.628-92.159-93.272c-7.726-25.833-6.649-53.42-5.5-80.395q1.693-39.83,3.39-79.659c3.025-71.1,6.279-143.451,29.77-210.49s70.717-129.194,136.894-152.342c21.068-7.373,46.745-24.773,68.729-21.089,47.747,8,25.075,2.886,58.123,14.864" transform="translate(2700.033 9535.577)" stroke="#323f51" stroke-miterlimit="10" style="stroke-width: 6px; fill: rgb(126, 200, 214);"/>
        <path id="Path_1771" data-name="Path 1771" d="M-837.913,192.036c37.6,11.01,66.69,56.671,66.727,104.73.008,11.381-1.5,22.947-5.641,33.1-7.695,18.846-23.243,30.376-38.112,40.609-52.954,36.421-143.627-188.5-199.462-159.5" transform="translate(2978.708 9752.894)" fill="none" stroke="#323f51" stroke-linecap="round" stroke-linejoin="round" style="stroke-width: 6px;"/>
        <path id="Path_1769" data-name="Path 1769" d="M466.3,124.343c11.788,2.507,20.613,8.884,29.395,17.065" transform="translate(1498.272 9685.205)" fill="none" stroke="#353f4f" stroke-linecap="round" stroke-miterlimit="10" stroke-width="5"/>
        <path id="Path_1772" data-name="Path 1772" d="M 1908.641 9923.942 C 1903.509 9926.215 1898.811 9929.363 1894.758 9933.247 C 1892.704 9935.162 1891.774 9937.302 1893.79 9939.587 C 1895.723 9941.774 1897.717 9940.729 1899.557 9939.049 C 1913.931 9925.93 1929.69 9925.153 1946.419 9933.157 C 1947.252 9933.557 1948.107 9933.911 1948.926 9934.332 C 1950.99 9935.388 1952.975 9935.446 1954.202 9933.172 C 1955.474 9930.811 1954.737 9928.789 1952.394 9927.569 C 1938.37 9920.294 1923.925 9917.557 1908.641 9923.942 Z" fill="#323f51" transform="matrix(0.999992, 0.004102, -0.004102, 0.999992, 40.751465, -7.807644)"/>
        <path id="Path_1773" data-name="Path 1773" d="M1025.769,500.6c-9.7-.113-16.1,6.181-15.93,15.662.173,9.553,5.91,15.829,14.762,16.164,9.518.362,17.52-7.031,17.427-16.1C1041.93,506.935,1035.5,500.718,1025.769,500.6Z" transform="translate(929.422 9342.049)" fill="#323f51"/>
        <path id="Path_1774" data-name="Path 1774" d="M 1948.295 9847.55 C 1944.145 9847.5 1941.403 9850.198 1941.474 9854.256 C 1941.55 9858.345 1944.007 9861.034 1947.792 9861.174 C 1951.784 9861.412 1955.174 9858.282 1955.253 9854.283 C 1955.215 9850.262 1952.463 9847.6 1948.295 9847.55 Z" fill="#fff" opacity="0.9"/>
        <path id="Path_1766" data-name="Path 1766" d="M-874.248,262.451c3.086,64.453,3.177,107.743.268,172.2a159.254,159.254,0,0,0-68.217.983" transform="translate(2732.312 10064.023)" fill="none" stroke="#323f51" stroke-linecap="round" stroke-linejoin="round" style="stroke-width: 6px;"/>
        <path id="Path_1768" data-name="Path 1768" d="M507.083,124.343c-11.788,2.507-20.623,8.884-29.394,17.065" transform="translate(1371.05 9655.077)" fill="none" stroke="#353f4f" stroke-linecap="round" stroke-miterlimit="10" stroke-width="5"/>
        <path id="Path_1770" data-name="Path 1770" d="M-841.237,191.7c-37.162,23.662-61.569,51.624-81.164,91.513-10.033,20.42-17.172,44.864-8.01,65.7,6.365,14.473,19.641,24.655,33.621,31.667,51.748,25.977,114.5,15.666,168.764,35.629" transform="translate(2548.275 9762.99)" fill="none" stroke="#323f51" stroke-linecap="round" stroke-linejoin="round" style="stroke-width: 6px;"/>
        <path id="Path_1775" data-name="Path 1775" d="M1052.8,500.4c-8.825-.023-15.777,7.456-15.7,16.88.076,9.8,6.395,16.167,15.969,16.108,9.9-.059,15.456-5.961,15.389-16.348C1068.395,507.358,1061.871,500.42,1052.8,500.4Z" transform="translate(827.625 9341.731)" fill="#323f51"/>
        <path id="Path_1776" data-name="Path 1776" d="M 1874.29 9845.901 C 1870.112 9845.851 1867.355 9848.564 1867.43 9852.644 C 1867.507 9856.756 1869.974 9859.46 1873.785 9859.601 C 1877.798 9859.836 1881.202 9856.691 1881.285 9852.672 C 1881.246 9848.628 1878.481 9845.951 1874.29 9845.901 Z" fill="#fff"/>
      </g>
    </g>
    <path id="path-8" data-name="Path 1693" d="M 1802.055 1476.89 C 1802.055 1483.225 1700.717 1488.36 1575.712 1488.36 C 1450.707 1488.36 1349.366 1483.225 1349.366 1476.89 C 1349.366 1470.555 1450.703 1465.423 1575.713 1465.423 C 1700.723 1465.423 1802.056 1470.559 1802.056 1476.89" style="fill: rgba(145, 151, 161, 0.18);"/>
  </g>
  <path id="path-3" data-name="Path 1226" d="M 844.984 413.503 L 983.479 413.503 C 983.479 413.503 1089.334 409.796 1089.916 435.512 C 1090.497 461.227 1068.176 459.515 1050.811 469.519 C 1033.445 479.524 1045.942 492.068 1030.843 510.058 C 1015.744 528.047 1001.594 530.718 974.089 515.916 C 946.583 501.114 929.092 571.258 885.062 563.406 C 841.033 555.553 835.545 531.377 833.668 499.042 C 831.792 466.706 799.056 472.752 802.928 445.415 C 806.799 418.079 844.984 413.503 844.984 413.503 Z" style="fill: rgb(53, 63, 79);" transform="matrix(-1, 0, 0, -1, 1892.53717, 977.338837)"/>
  <g id="Group_1218" data-name="Group 1218" transform="matrix(1, 0, 0, 1, -3166.76678, 131.690798)">
    <g id="Group_775" data-name="Group 775" transform="translate(1605.99 -3345)"/>
    <g transform="matrix(1, 0, 0, 1, 5918.255371, 1741.136475)"/>
    <g id="Group_831" data-name="Group 831" transform="matrix(1, 0, 0, 1, 15446.624034, -2293.06315)">
      <g id="Group_840" data-name="Group 840" transform="matrix(1.570383, 0, 0, 1.762897, -11265.592773, 719.196899)" style=""/>
      <g id="Group_656" data-name="Group 656" transform="matrix(0.463966, -0.024315, 0.0259, 0.494203, -9905.03125, 3667.9104)" style=""/>
    </g>
    <g id="Balance" clip-path="url(#clip-Balance)" transform="matrix(1, 0, 0, 1, 8824.828624, 994.804221)"/>
    <g id="Group_1192" data-name="Group 1192" transform="matrix(-1, 0, 0, 1, 12120.329112, 55.630454)"/>
    <polyline style="fill: rgb(216, 216, 216); stroke: rgb(0, 0, 0);" points="510.455 -75.258" transform="matrix(1, 0, 0, 1, 9319.091808, 1073.335562)"/>
    <path style="fill: rgb(216, 216, 216); stroke: rgb(0, 0, 0);" d="M -167.225 -0.173" transform="matrix(1, 0, 0, 1, 7440.343273, 1091.577658)"/>
  </g>
  <g id="g-1" clip-path="url(#clip-1)" transform="matrix(1, 0, 0, 1, 2184.700505, 71.383879)"/>
  <g id="Illustration_-_Min_fysiske_energi_-_Min_fysiske_aktivitet" data-name="Illustration - Min fysiske energi - Min fysiske aktivitet" clip-path="url(#clip-Illustration_-_Min_fysiske_energi_-_Min_fysiske_aktivitet)" transform="matrix(1, 0, 0, 1, 1890.099187, -330.808874)"/>
  <text style="fill: rgb(255, 255, 255); font-family: Arial, sans-serif; font-size: 80px; font-weight: 700; white-space: pre;" x="1261.02" y="472.867">Jeg er også bare uduelig</text>
  <text style="fill: rgb(255, 255, 255); font-family: Arial, sans-serif; font-size: 80px; font-weight: 700; white-space: pre;" x="1345.76" y="118.677">Mon hun blev sur? </text>
  <text style="fill: rgb(255, 255, 255); font-family: Arial, sans-serif; font-size: 50px; white-space: pre;" x="1215.13" y="204.03">Skal jeg skrive til hende? </text>
  <text style="fill: rgb(255, 255, 255); font-family: Arial, sans-serif; font-size: 40px; white-space: pre;" transform="matrix(1, 0, 0, 1, -500.463318, -207.886459)"><tspan x="1599.97" y="560.795">Hun vil sikkert ikke have</tspan><tspan x="1599.97" dy="1em">​</tspan><tspan>mere med mig at gøre efter</tspan><tspan x="1599.97" dy="1em">​</tspan><tspan>det her...</tspan></text>
  <path id="path-7" data-name="Path 1226" d="M 963.547 148.021 L 1102.042 148.021 C 1102.042 148.021 1207.897 144.314 1208.479 170.03 C 1209.06 195.745 1186.739 194.033 1169.374 204.037 C 1152.008 214.042 1164.505 226.586 1149.406 244.576 C 1134.307 262.565 1120.157 265.236 1092.652 250.434 C 1065.146 235.632 1047.655 305.776 1003.625 297.924 C 959.596 290.071 954.108 265.895 952.231 233.56 C 950.355 201.224 917.619 207.27 921.491 179.933 C 925.362 152.597 963.547 148.021 963.547 148.021 Z" style="fill: rgb(53, 63, 79);" transform="matrix(-1, 0, 0, -1, 2129.663208, 446.374847)"/>
  <text style="fill: rgb(255, 255, 255); font-family: Arial, sans-serif; font-size: 40px; white-space: pre;" x="1676.844" y="542.822">Hvad mon de andre tænkte?</text>
  <text style="fill: rgb(255, 255, 255); font-family: Arial, sans-serif; font-size: 60px; white-space: pre;" x="1059.774" y="664.796" transform="matrix(1, 0, 0, 1, -15.316075, -115.942123)">Jeg  ødelægger<tspan x="1059.7740478515625" dy="1em">​</tspan>alting alt det <tspan x="1059.7740478515625" dy="1em">​</tspan>gode der<tspan x="1059.7740478515625" dy="1em">​</tspan>sker for mig</text>
  <text style="fill: rgb(255, 255, 255); font-family: Arial, sans-serif; font-size: 40px; font-style: italic; white-space: pre;" transform="matrix(1, 0, 0, 1, 36.333225, -158.941879)"><tspan x="1778.09" y="770.115">Måske går det over,<tspan x="1778.0899658203125" dy="1em">​</tspan>hvis jeg </tspan><tspan>bare ikke<tspan x="1778.0899658203125" dy="1em">​</tspan> skriver til hende </tspan><tspan x="1778.0899658203125" dy="1em">​</tspan><tspan>i noget tid?</tspan></text>
  <text style="fill: rgb(255, 255, 255); font-family: Arial, sans-serif; font-size: 60px; white-space: pre;" x="1405.743" y="285.809">Hun er sikkert vred på mig...</text>
  <path id="Path_1226" data-name="Path 1226" d="M 2113.699 220.686 L 2306.911 220.686 C 2306.911 220.686 2454.588 225.815 2455.399 190.235 C 2456.212 154.654 2425.069 157.024 2400.845 143.182 C 2376.618 129.34 2394.052 111.983 2372.987 87.093 C 2351.923 62.201 2332.183 58.507 2293.811 78.987 C 2255.438 99.467 2231.037 2.416 2169.612 13.28 C 2108.188 24.146 2100.531 57.594 2097.913 102.333 C 2095.296 147.074 2049.627 138.709 2055.027 176.533 C 2060.428 214.354 2113.699 220.686 2113.699 220.686 Z" style="fill: rgb(71, 94, 130);"/>
  <text style="fill: rgb(255, 255, 255); font-family: Arial, sans-serif; font-size: 40px; white-space: pre;" x="1069.035" y="843.465" transform="matrix(1, 0, 0, 1, 14.704109, -18.951138)">Jeg er Dum.<tspan x="1069.0350341796875" dy="1em">​</tspan>Dum dum dum <tspan x="1069.0350341796875" dy="1em">​</tspan>       DUM!</text>
  <text style="fill: rgb(255, 255, 255); font-family: Arial, sans-serif; font-size: 40px; white-space: pre;" x="1646.651" y="354.658">... Måske er det også fair nok ?</text>
</svg>