<?xml version="1.0" encoding="utf-8"?>
<svg viewBox="-1345.017 -301.846 1391.984 1039.581" xmlns="http://www.w3.org/2000/svg">
  <defs>
    <clipPath id="clip-Balance">
      <rect width="1166" height="1094"/>
    </clipPath>
    <clipPath id="clip-1">
      <rect width="1166" height="1094"/>
    </clipPath>
    <clipPath id="clip-Illustration_-_Min_fysiske_energi_-_Min_fysiske_aktivitet">
      <rect width="545" height="513"/>
    </clipPath>
    <clipPath id="clip-path">
      <rect id="Rectangle_374" data-name="Rectangle 374" width="35.569" height="27.465" fill="#323f51"/>
    </clipPath>
    <clipPath id="clip-14">
      <rect width="1166" height="1094"/>
    </clipPath>
  </defs>
  <ellipse style="fill: rgb(216, 216, 216);" cx="-667.761" cy="588.349" rx="649.48" ry="137.136"/>
  <g id="Balance" clip-path="url(#clip-Balance)" transform="matrix(1, 0, 0, 1, 1599.250822, -39.532596)"/>
  <g id="Group_1192" data-name="Group 1192" transform="matrix(-1, 0, 0, 1, 4894.75131, -978.706302)"/>
  <polyline style="fill: rgb(216, 216, 216); stroke: rgb(0, 0, 0);" points="510.455 -75.258" transform="matrix(1, 0, 0, 1, 2093.513517, 38.998746)"/>
  <g transform="matrix(1, 0, 0, 1, -3064.621826, -497.813629)">
    <g id="Group_1191" data-name="Group 1191" transform="matrix(2.397189, 0, 0, 2.762668, 1292.243896, 26044.060547)" style="">
      <path id="Path_1609" data-name="Path 1609" d="M0,0" transform="matrix(0.996, -0.087, 0.087, 0.996, 287.217, -9238.794)" fill="none" stroke="#353f4f" stroke-miterlimit="10" stroke-width="5.492"/>
      <path id="Path_1607" data-name="Path 1607" d="M 235.581 -9294.366 C 235.277 -9297.992 235.406 -9301.772 237.007 -9304.986 C 239.219 -9309.421 243.824 -9312.052 248.267 -9314.264 C 259.52 -9319.864 271.822 -9324.437 284.534 -9323.584 C 297.246 -9322.731 310.392 -9315.273 314.694 -9303.219 C 316.579 -9297.939 316.67 -9292.265 316.74 -9286.71 L 317.339 -9239.769 C 317.592 -9219.811 329.632 -9198.294 312.679 -9184.757 C 300.959 -9175.398 281.619 -9178.133 273.96 -9190.89 C 265.719 -9204.617 260.751 -9218.214 256.231 -9233.246 C 250.179 -9253.377 237.343 -9273.362 235.581 -9294.366 Z" style="stroke-miterlimit: 3; stroke: rgb(8, 13, 13); stroke-width: 1.93804px; fill: rgb(130, 210, 226);" transform="matrix(0.977659, 0.18239, -0.242245, 0.977659, -2234.485997, -257.063082)"/>
      <path id="Path_1606" data-name="Path 1606" d="M 21.943 -4.144 C 41.574 21.624 37.223 13.512 44.259 23.256 C 47.859 28.245 55.779 38.36 52.489 43.452 C 50.204 46.987 45.44 49.473 40.423 51.188 C 21.852 57.535 19.479 50.83 0 55.709" transform="translate(275.162 -9239.734) rotate(179)" fill="none" stroke-linecap="round" stroke-linejoin="round" style="stroke: rgb(8, 13, 13); stroke-width: 1.93805px;"/>
      <path id="Path_1611" data-name="Path 1611" d="M 295.388 -9179.144 C 297.097 -9135.397 298.474 -9101.436 298.235 -9057.307 C 307.179 -9059.403 309.966 -9051.762 318.486 -9057.134" fill="none" stroke-linecap="round" stroke-linejoin="round" style="stroke: rgb(8, 13, 13); stroke-width: 1.93805px;" transform="matrix(0.999798, 0.017452, -0.023179, 0.999798, -211.279359, -7.192238)"/>
      <path id="Path_1608" data-name="Path 1608" d="M 267.238 -9180.701 C 262.742 -9133.673 257.136 -9101.772 259.661 -9055.582 C 254.187 -9058.18 247.128 -9049.405 241.314 -9049.076" fill="none" stroke-linecap="round" stroke-linejoin="round" style="stroke: rgb(8, 13, 13); stroke-width: 1.93805px;" transform="matrix(0.999798, 0.017452, -0.023179, 0.999798, -211.218353, -6.262378)"/>
      <path id="Path_1612" data-name="Path 1612" d="M 314.672 -9246.726 C 316.906 -9242.984 330.977 -9210.772 331.146 -9200.165 C 331.315 -9189.558 330.793 -9178.765 330.273 -9168.069" fill="none" stroke-linecap="round" stroke-linejoin="round" style="stroke: rgb(8, 13, 13); stroke-width: 1.93861px;" transform="matrix(0.997673, 0.05916, -0.078574, 0.997673, -722.522569, -40.75741)"/>
    </g>
    <path id="path-33" data-name="Path 1622" d="M 2020.779 410.66 C 2020.86 406.672 2016.595 404.092 2013.101 406.015 C 2009.607 407.938 2009.505 412.922 2012.917 414.987 C 2013.695 415.457 2014.584 415.715 2015.493 415.734 C 2018.355 415.795 2020.723 413.522 2020.779 410.66" transform="matrix(-1, 0, 0, -1, 4031.198364, 821.10025)"/>
    <path id="path-34" data-name="Path 1623" d="M 1943.193 407.987 C 1943.276 403.998 1939.01 401.415 1935.513 403.337 C 1932.017 405.26 1931.913 410.246 1935.326 412.312 C 1936.107 412.785 1936.998 413.043 1937.911 413.061 C 1940.771 413.12 1943.137 410.847 1943.193 407.987" transform="matrix(-1, 0, 0, -1, 3876.021606, 815.750153)"/>
    <path id="path-35" data-name="Path 1624" d="M 1948.958 468.643 C 1949.203 468.505 1960.341 463.624 1972.169 463.974 C 1985.427 464.364 1999.549 469.968 2000.163 469.263 C 2000.702 468.645 2000.96 467.678 2000.84 466.727 L 2000.732 465.453 C 2000.63 464.329 2000.483 463.213 2000.293 462.11 C 1999.616 458.153 1998.545 454.342 1997.109 450.788 C 1996.117 448.351 1994.927 446.075 1993.564 444.005 C 1991.997 441.644 1990.211 439.577 1988.252 437.858 C 1987.203 437.019 1986.087 436.277 1984.971 435.483 C 1983.803 434.884 1982.613 434.295 1981.393 433.757 C 1980.106 433.374 1978.767 433.061 1977.439 432.754 C 1976.193 432.54 1975.166 432.56 1974.017 432.453 C 1971.439 432.376 1968.866 432.772 1966.365 433.635 C 1963.933 434.417 1961.605 435.717 1959.465 437.488 C 1957.461 439.095 1955.63 441.078 1954.023 443.379 C 1953.268 444.469 1952.613 445.611 1951.951 446.682 C 1951.389 447.833 1950.847 448.944 1950.325 450.015 C 1948.809 453.507 1947.657 457.275 1946.903 461.209 C 1946.685 462.306 1946.512 463.418 1946.386 464.542 C 1946.304 465.34 1946.263 465.771 1946.263 465.771 C 1946.058 467.836 1947.555 469.433 1948.958 468.643 Z" style="" transform="matrix(-1, 0, 0, -1, 3947.112915, 901.767883)"/>
    <path d="M 2016.466 387.408 C 2018.644 391.388 2019.921 395.363 2021.569 398.234 C 2023.599 401.767 2026.191 403.627 2031.719 401.763" style="stroke: rgb(0, 0, 0);" transform="matrix(-0.905752, 0.423808, -0.423808, -0.905752, 4024.802789, -105.143313)"/>
    <path d="M 1920.926 399.033 C 1923.104 395.053 1924.381 391.078 1926.029 388.207 C 1928.059 384.674 1930.651 382.814 1936.179 384.678" style="stroke: rgb(0, 0, 0);" transform="matrix(0.905752, 0.423808, -0.423808, 0.905752, 347.67767, -780.439034)"/>
  </g>
  <g id="g-6" data-name="Group 1411" transform="matrix(1, 0, 0, 1, -978.461779, -3782.143405)">
    <rect id="rect-4" data-name="Rectangle 451" width="228.937" height="242.798" transform="matrix(-0.777, -0.629, 0.629, -0.777, 1442.229, 4079.014)" fill="none"/>
    <g id="g-11" data-name="Group 1404" transform="matrix(0.996, 0.087, -0.087, 0.996, 321.395, -105.091)"/>
  </g>
  <path style="fill: rgb(216, 216, 216); stroke: rgb(0, 0, 0);" d="M -167.225 -0.173" transform="matrix(1, 0, 0, 1, 214.76547, 57.240872)"/>
  <g id="Group_1218" data-name="Group 1218" transform="matrix(1, 0, 0, 1, -5477.212069, -1352.056552)">
    <g id="Group_775" data-name="Group 775" transform="translate(1605.99 -3345)"/>
  </g>
  <g id="Group_1216" data-name="Group 1216" transform="matrix(1, 0, 0, 1, -2761.646484, -9519.979492)">
    <g id="Group_1209" data-name="Group 1209" transform="translate(53.113 -929)">
      <path id="Path_1764" data-name="Path 1764" d="M-976.144,187.328" transform="translate(3011.323 9745.573)" fill="none" stroke="#323f51" stroke-width="1"/>
      <g id="g-2" data-name="Group 1541" transform="matrix(3.012212, 0, 0, 2.898011, -910.00824, 6587.299316)" style="">
        <g id="Group_1073" data-name="Group 1073" transform="matrix(1, 0, 0, 1, 976.202637, 1219.205933)">
          <path id="path-1" data-name="Path 368" d="M 75.346 108.27 C 65.776 140.799 62.18 203.06 63.505 220.54 C 56.929 219.336 50.198 219.244 43.592 220.266" transform="translate(20.372 67.945)" fill="none" stroke-linecap="round" stroke-linejoin="round" style="stroke: rgb(8, 13, 13); stroke-width: 1.69198px;"/>
          <path id="path-7" data-name="Path 369" d="M 128.625 173.514 C 129.581 214.326 131.127 245.201 132.169 286.011 C 139.525 285.339 146.897 284.905 154.287 284.711" fill="none" stroke-linecap="round" stroke-linejoin="round" style="stroke: rgb(8, 13, 13); stroke-width: 1.69198px;"/>
          <path id="path-8" data-name="Path 373" d="M43.509,104.53c3.432,13.45,10.885,25.532,19.242,36.614,6.684,8.86,14.883,17.755,25.8,19.771,9.672,1.784,19.567-2.318,27.541-8.078,19.528-14.1,30.683-39.466,26.6-63.206-4.569-26.569-32.136-52.772-60.409-50.587C52.768,41.324,37.08,79.338,43.509,104.53Z" stroke-miterlimit="10" style="stroke: rgb(8, 13, 13); stroke-width: 1.69135px; fill: rgb(139, 220, 236);" transform="matrix(0.982, 0.191, -0.191, 0.982, 42.813, 2.539)"/>
          <path id="path-11" data-name="Path 379" d="M103.83,137.492l8.614-6.15c3.026-2.161,6.128-4.406,8.532-8.431a25.822,25.822,0,0,0,3.126-16.068,30.691,30.691,0,0,0-2.75-8.34c-10.038-22.059-22.928-39.66-37.29-50.923" transform="matrix(0.999, 0.052, -0.052, 0.999, 70.369, -17.522)" fill="none" stroke-linecap="round" stroke-linejoin="round" style="stroke: rgb(8, 13, 13); stroke-width: 1.69139px;"/>
          <path id="path-12" data-name="Path 380" d="M39.685,49.654C36.757,51.317,33.8,53,31.03,57s-5.391,10.523-7.022,20.083a88.755,88.755,0,0,0-1.269,13.6,92.03,92.03,0,0,0,1.212,15.8A68.18,68.18,0,0,0,33.59,132.7l10.432,17.876" transform="translate(30.605 92.635)" fill="none" stroke-linecap="round" stroke-linejoin="round" style="stroke: rgb(8, 13, 13); stroke-width: 1.69198px;"/>
        </g>
        <g id="g-3" data-name="Group 1539" transform="translate(1061.253 1252.495) rotate(-3)">
          <path id="Path_2028" data-name="Path 2028" d="M 47.013 87.387 C 47.013 87.387 21.057 106.412 -0.485 87.387" fill="none" stroke-linecap="round" stroke-linejoin="round" style="stroke: rgb(0, 38, 64); stroke-width: 2.36794px;" transform="matrix(0.998546, 0.051976, -0.04813, 0.998951, 4.44324, -1.113025)"/>
          <path id="path-36" data-name="Path 1662" d="M 47.243 67.647 C 47.22 67.627 46.785 67.141 46.549 66.894 C 45.998 66.301 45.377 65.783 44.701 65.351 C 44.359 65.126 44.001 64.931 43.629 64.766 C 43.459 64.672 43.27 64.631 43.107 64.554 C 42.947 64.49 42.783 64.437 42.618 64.393 C 42.009 64.184 39.978 64.156 40.019 62.417 C 40.059 60.577 43.342 60.416 45.916 61.684 C 49.01 63.212 49.949 65.479 49.95 66.811 C 49.952 68.071 49.103 68.433 48.359 68.377 C 47.907 68.347 47.269 67.664 47.244 67.647" fill="#002640" transform="matrix(0.998528, 0.052329, -0.048457, 0.998935, 3.197586, -2.285147)"/>
          <path id="path-37" data-name="Path 1663" d="M 1.288 64.316 C 1.315 64.299 1.782 63.845 2.039 63.615 C 2.633 63.064 3.291 62.593 3.997 62.212 C 4.354 62.013 4.726 61.844 5.109 61.705 C 5.286 61.623 5.477 61.595 5.646 61.533 C 5.811 61.482 5.977 61.439 6.144 61.406 C 6.768 61.245 8.8 61.362 8.889 59.628 C 8.983 57.787 5.719 57.387 3.063 58.467 C -0.138 59.769 -1.243 61.96 -1.35 63.289 C -1.439 64.547 -0.622 64.968 0.124 64.967 C 0.577 64.97 1.263 64.333 1.289 64.318" fill="#002640" transform="matrix(0.998528, 0.052329, -0.048457, 0.998935, 2.981792, -0.13171)"/>
          <path id="path-38" data-name="Path 1665" d="M 11.425 68.87 C 11.896 67.259 10.514 65.73 8.938 66.118 C 7.363 66.505 6.774 68.519 7.88 69.742 C 8.132 70.02 8.45 70.225 8.803 70.335 C 9.914 70.681 11.087 70.025 11.425 68.87" transform="matrix(0.998528, 0.052332, -0.04846, 0.998935, 3.320856, -0.420001)"/>
          <path id="path-39" data-name="Path 1666" d="M 42.737 71.932 C 43.207 70.321 41.825 68.794 40.25 69.182 C 38.675 69.57 38.088 71.583 39.193 72.805 C 39.446 73.084 39.765 73.289 40.118 73.398 C 41.228 73.744 42.402 73.087 42.737 71.932" transform="matrix(0.998528, 0.052332, -0.04846, 0.998935, 3.515409, -2.055378)"/>
        </g>
        <g id="Group_1540" data-name="Group 1540" transform="translate(-68.904 -0.125) rotate(-2)"/>
      </g>
      <g transform="matrix(1, 0, 0, 1, -320.535736, 102.505013)">
        <g transform="matrix(1, 0, 0, 1, 303.648468, 503.444733)">
          <path id="Path_1765" data-name="Path 1765" d="M 2113.702 10360.902 C 2114.527 10428.095 2115.346 10473.329 2116.171 10540.527 C 2138.69 10543.202 2161.419 10543.634 2184.024 10541.818" fill="none" stroke-linecap="round" stroke-linejoin="round" style="stroke: rgb(8, 13, 13); stroke-width: 5px;"/>
          <path id="Path_1767" data-name="Path 1767" d="M 2113.183 9730.873 C 2165.746 9760.508 2197.61 9817.303 2220.191 9873.943 C 2263.014 9981.754 2281.703 10097.636 2274.945 10213.443 C 2273.629 10235.674 2271.206 10258.466 2261.153 10278.253 C 2248.393 10303.371 2224.644 10320.93 2199.753 10333.525 C 2152.508 10357.425 2099.241 10366.473 2046.546 10369.354 C 2001.746 10371.803 1955.739 10369.812 1913.937 10353.254 C 1872.135 10336.696 1834.827 10303.626 1821.778 10259.982 C 1814.052 10234.149 1815.129 10206.562 1816.278 10179.587 C 1817.407 10153.034 1818.537 10126.481 1819.668 10099.928 C 1822.693 10028.828 1825.947 9956.477 1849.438 9889.438 C 1872.929 9822.399 1920.155 9760.244 1986.332 9737.096 C 2007.4 9729.723 2033.077 9712.323 2055.061 9716.007 C 2102.808 9724.007 2080.136 9718.893 2113.184 9730.871" stroke-miterlimit="10" style="fill: rgb(126, 200, 214); stroke: rgb(8, 13, 13); stroke-width: 5px;"/>
          <path id="Path_1771" data-name="Path 1771" d="M 2257.057 9988.191 C 2294.657 9999.201 2323.747 10044.862 2323.784 10092.921 C 2323.792 10104.302 2322.284 10115.868 2318.143 10126.021 C 2310.448 10144.867 2294.9 10156.397 2280.031 10166.63 C 2227.077 10203.051 2136.404 9978.13 2080.569 10007.13" fill="none" stroke-linecap="round" stroke-linejoin="round" style="stroke: rgb(8, 13, 13); stroke-width: 5px;"/>
          <path id="Path_1769" data-name="Path 1769" d="M 2080.834 9852.81 C 2092.622 9855.317 2101.447 9861.694 2110.229 9869.875" fill="none" stroke="#353f4f" stroke-linecap="round" stroke-miterlimit="10" style="stroke-width: 5px;"/>
          <path id="Path_1772" data-name="Path 1772" d="M 2064.371 9972.615 C 2059.238 9974.889 2054.54 9978.038 2050.487 9981.922 C 2048.434 9983.837 2047.503 9985.977 2049.52 9988.261 C 2051.453 9990.448 2053.447 9989.404 2055.287 9987.724 C 2069.661 9974.605 2085.42 9973.828 2102.148 9981.832 C 2102.982 9982.232 2103.836 9982.586 2104.656 9983.006 C 2106.72 9984.063 2108.705 9984.121 2109.931 9981.847 C 2111.203 9979.485 2110.467 9977.464 2108.123 9976.243 C 2094.1 9968.967 2079.655 9966.231 2064.371 9972.615 Z" fill="#323f51" transform="matrix(-0.920484, 0.390781, -0.390781, -0.920484, 7893.300717, 18352.403737)"/>
          <path id="Path_1766" data-name="Path 1766" d="M 1974.326 10369.736 C 1977.412 10434.189 1977.503 10477.479 1974.594 10541.936 C 1952.051 10537.332 1928.778 10537.667 1906.377 10542.919" fill="none" stroke-linecap="round" stroke-linejoin="round" style="stroke: rgb(8, 13, 13); stroke-width: 5px;"/>
          <path id="Path_1768" data-name="Path 1768" d="M 1994.395 9822.682 C 1982.607 9825.189 1973.772 9831.566 1965.001 9839.747" fill="none" stroke="#353f4f" stroke-linecap="round" stroke-miterlimit="10" style="stroke-width: 5px;"/>
          <path id="Path_1770" data-name="Path 1770" d="M 1825.008 10008.161 C 1777.867 10039.836 1750.368 9765.455 1846.855 9635.672" fill="none" stroke-linecap="round" stroke-linejoin="round" style="stroke: rgb(8, 13, 13); stroke-width: 5px;"/>
        </g>
        <path id="path-18" data-name="Path 1666" d="M 2298.996 10390.684 C 2300.393 10386.014 2296.212 10381.589 2291.473 10382.713 C 2286.731 10383.838 2284.986 10389.672 2288.332 10393.214 C 2289.094 10394.022 2290.057 10394.617 2291.125 10394.932 C 2294.472 10395.935 2297.997 10394.031 2298.996 10390.684" style="stroke-width: 5px;" transform="matrix(1, 0.000001, -0.000001, 1, 0.010389, -0.002293)"/>
        <path id="path-2" data-name="Path 1666" d="M 2391.861 10392.959 C 2393.258 10388.289 2389.077 10383.864 2384.338 10384.988 C 2379.596 10386.113 2377.851 10391.947 2381.197 10395.489 C 2381.959 10396.297 2382.922 10396.892 2383.99 10397.207 C 2387.337 10398.21 2390.862 10396.306 2391.861 10392.959" style="stroke-width: 5px;" transform="matrix(1, 0.000001, -0.000001, 1, 0.010391, -0.002386)"/>
      </g>
    </g>
  </g>
  <g id="g-1" clip-path="url(#clip-1)" transform="matrix(1, 0, 0, 1, -202.021029, -1506.795688)"/>
  <g id="Illustration_-_Min_fysiske_energi_-_Min_fysiske_aktivitet" data-name="Illustration - Min fysiske energi - Min fysiske aktivitet" clip-path="url(#clip-Illustration_-_Min_fysiske_energi_-_Min_fysiske_aktivitet)" transform="matrix(1, 0, 0, 1, -496.622347, -1908.988498)"/>
  <path id="Path_1341" data-name="Path 1341" d="M 1779.581 1798.383 C 1781.36 1797.551 1786.605 1795.094 1786.254 1792.474 C 1786.371 1792.359 1786.497 1792.252 1786.63 1792.155 C 1785.889 1792.079 1786.338 1791.519 1786.724 1792.07 C 1786.533 1791.533 1786.402 1790.977 1786.332 1790.412 C 1783.701 1790.565 1771.145 1788.036 1771.994 1790.48 C 1771.374 1789.464 1771.104 1790.327 1770.994 1790.424 C 1771.167 1790.647 1771.359 1790.856 1771.567 1791.048 C 1770.09 1791.87 1769.309 1792.914 1771.684 1793.228 C 1774.338 1793.579 1777.128 1793.859 1779.889 1794.047 C 1778.917 1794.917 1777.833 1795.653 1776.666 1796.236 C 1776.534 1796.298 1776.408 1796.359 1776.277 1796.421 C 1776.753 1795.95 1777.142 1795.459 1776.409 1795.721 C 1776.149 1796.007 1775.931 1796.328 1775.76 1796.675 C 1773.276 1797.936 1771.501 1799.436 1772.075 1800.596 C 1772.138 1801.47 1772.985 1801.702 1773.828 1801.804 L 1773.76 1801.836 C 1773.741 1801.846 1773.806 1801.814 1773.828 1801.804 C 1773.85 1801.82 1773.815 1801.823 1773.76 1801.836 C 1773.66 1801.884 1773.92 1801.992 1773.989 1802.006 C 1774.07 1801.916 1774.089 1801.864 1774.076 1801.831 L 1774.27 1801.85 C 1774.885 1802.007 1775.509 1802.124 1776.139 1802.201 C 1776.756 1802.279 1778.41 1802.547 1780.273 1802.701 C 1780.332 1802.92 1780.402 1803.078 1780.487 1802.977 C 1780.459 1803.011 1780.477 1802.887 1780.508 1802.722 C 1781.064 1802.763 1781.634 1802.791 1782.201 1802.804 C 1781.995 1802.926 1781.614 1803.02 1781.75 1803.104 C 1781.97 1803.06 1782.174 1802.956 1782.339 1802.804 C 1782.401 1802.804 1782.464 1802.81 1782.527 1802.81 C 1782.639 1802.951 1782.944 1802.957 1783.486 1802.795 C 1785.734 1802.704 1787.603 1802.186 1787.603 1800.681 C 1787.603 1798.743 1783.411 1798.402 1779.583 1798.381 M 1777.492 1789.875 C 1777.457 1789.935 1777.415 1789.992 1777.369 1790.045 L 1777.156 1790.045 C 1777.14 1789.801 1777.312 1789.345 1777.492 1789.876 M 1776.63 1789.96 C 1776.674 1789.838 1776.73 1789.794 1776.787 1789.828 C 1776.777 1789.919 1776.768 1789.978 1776.759 1790.041 L 1776.629 1790.041 C 1776.629 1790.004 1776.629 1789.962 1776.629 1789.962 M 1776.266 1790.036 L 1776.146 1790.036 C 1776.121 1789.98 1776.087 1789.889 1776.056 1789.8 C 1776.056 1789.8 1776.04 1789.766 1776.012 1789.687 C 1776.129 1789.615 1776.226 1789.853 1776.266 1790.039 M 1772.394 1790.576 C 1772.394 1790.576 1772.494 1790.563 1772.583 1790.56 C 1772.526 1790.595 1772.456 1790.601 1772.394 1790.576" fill="#323f51" clip-path="url(#clip-path)" transform="matrix(1, 0, 0, 1, 1226.819669, -306.930637)"/>
  <path id="Path_1342" data-name="Path 1342" d="M 1805.735 1789.42 C 1805.728 1787.826 1799.79 1787.56 1795.603 1787.52 C 1795.792 1787.331 1795.982 1787.131 1796.171 1786.911 C 1796.305 1786.867 1796.434 1786.81 1796.557 1786.742 C 1796.522 1786.683 1796.49 1786.622 1796.463 1786.56 C 1796.491 1786.526 1796.517 1786.497 1796.544 1786.46 C 1796.565 1786.539 1796.581 1786.62 1796.592 1786.702 C 1796.916 1786.257 1797.275 1785.837 1797.663 1785.447 C 1797.683 1785.483 1797.713 1785.514 1797.75 1785.535 C 1797.806 1785.56 1797.826 1785.428 1797.804 1785.3 C 1799.852 1783.179 1803.304 1780.035 1802.36 1778.959 C 1802.413 1778.937 1802.46 1778.922 1802.513 1778.899 C 1802.813 1778.956 1802.836 1778.82 1802.793 1778.663 C 1802.928 1778.638 1803.003 1778.616 1802.993 1778.591 C 1802.868 1778.384 1802.725 1778.189 1802.564 1778.01 C 1802.617 1777.555 1801.884 1777.319 1801.693 1777.001 C 1801.762 1777.107 1801.81 1777.227 1801.835 1777.352 C 1801.67 1777.238 1801.498 1777.134 1801.32 1777.042 C 1801.628 1776.842 1801.22 1776.784 1800.976 1776.886 C 1800.635 1776.744 1800.282 1776.631 1799.923 1776.547 C 1800.052 1775.722 1799.715 1776.278 1799.751 1776.506 C 1797.921 1776.221 1796.066 1776.138 1794.219 1776.256 C 1794.166 1776.258 1794.114 1776.263 1794.062 1776.271 C 1793.834 1776.137 1793.63 1775.964 1793.462 1775.76 C 1793.416 1775.681 1793.425 1775.66 1793.453 1775.647 C 1793.19 1775.772 1792.916 1775.872 1792.635 1775.947 C 1792.644 1775.892 1792.644 1775.837 1792.635 1775.783 C 1792.617 1775.723 1792.557 1775.84 1792.529 1775.975 C 1791.169 1776.321 1789.229 1776.392 1789.408 1775.996 C 1789.045 1776.787 1788.786 1776.485 1788.85 1777.568 C 1788.574 1775.268 1788.884 1778.481 1788.603 1777.039 C 1788.619 1777.127 1788.679 1777.402 1788.742 1777.714 C 1787.363 1778.247 1786.676 1778.774 1788.277 1779 C 1788.436 1779.021 1788.716 1779.038 1789.083 1779.05 C 1789.055 1779.15 1789.046 1779.235 1789.101 1779.285 C 1789.112 1779.207 1789.119 1779.13 1789.123 1779.052 C 1790.634 1779.099 1793.623 1779.07 1796.442 1778.995 C 1796.319 1779.048 1796.246 1779.176 1796.261 1779.309 C 1796.232 1780.378 1796.63 1779.199 1796.69 1778.989 L 1797.666 1778.961 C 1797.735 1779.061 1797.81 1779.105 1797.886 1779.07 C 1797.962 1779.035 1798.023 1778.986 1798.093 1778.947 C 1798.375 1778.938 1798.651 1778.928 1798.92 1778.918 C 1798.845 1779.006 1798.804 1779.119 1798.805 1779.235 C 1798.759 1779.711 1799.034 1779.05 1799.034 1778.913 L 1799.534 1778.894 C 1799.274 1779.133 1799.211 1779.257 1799.234 1779.314 C 1797.778 1780.429 1796.408 1781.654 1795.138 1782.977 C 1795.126 1782.942 1795.101 1782.913 1795.069 1782.896 C 1794.937 1782.833 1794.855 1783.038 1794.928 1783.19 C 1793.387 1784.75 1791.94 1786.402 1790.596 1788.135 C 1790.431 1788.33 1790.409 1788.609 1790.54 1788.829 C 1790.467 1788.938 1790.425 1789.066 1790.421 1789.198 C 1791.055 1789.62 1791.77 1789.905 1792.521 1790.035 C 1793.459 1790.435 1793.264 1790.267 1792.964 1790.064 C 1793.205 1790.132 1793.459 1790.195 1793.722 1790.253 C 1793.797 1791.306 1795.312 1790.965 1796.142 1790.673 C 1796.542 1790.724 1796.949 1790.773 1797.359 1790.807 C 1797.284 1790.879 1797.248 1790.982 1797.259 1791.086 C 1797.291 1791.486 1797.572 1791.061 1797.641 1790.832 C 1798.371 1790.894 1799.106 1790.932 1799.823 1790.945 C 1799.717 1791.015 1799.623 1791.083 1799.57 1791.062 C 1799.662 1791.1 1799.827 1791.022 1799.97 1790.946 C 1800.651 1790.956 1801.312 1790.946 1801.927 1790.905 C 1804.115 1790.767 1805.738 1790.305 1805.734 1789.419 M 1800.334 1780.519 L 1800.259 1780.625 C 1800.275 1780.584 1800.301 1780.548 1800.334 1780.519 M 1801.622 1778.819 C 1801.631 1778.867 1801.624 1778.918 1801.603 1778.963 Z M 1799.73 1781.547 C 1799.758 1781.497 1799.787 1781.447 1799.815 1781.399 C 1800.015 1781.55 1799.868 1781.599 1799.73 1781.547 M 1800.23 1782.216 C 1799.669 1781.081 1801.036 1782.633 1800.23 1782.216 M 1800.562 1781.846 C 1799.851 1781.125 1800.492 1781.62 1800.53 1781.673 C 1800.603 1781.773 1800.615 1781.834 1800.562 1781.846 M 1800.995 1781.498 C 1801.045 1781.868 1799.486 1780.745 1800.995 1781.498 M 1790.654 1776.647 C 1790.64 1776.8 1790.614 1776.952 1790.575 1777.102 C 1790.494 1776.947 1790.537 1776.021 1790.654 1776.647 M 1790.416 1776.688 C 1790.422 1776.942 1790.422 1777.081 1790.416 1777.148 C 1790.387 1777.046 1790.371 1776.941 1790.368 1776.835 C 1790.375 1776.71 1790.391 1776.66 1790.414 1776.688 M 1789.406 1776.478 L 1789.324 1776.478 C 1789.343 1776.394 1789.462 1775.841 1789.406 1776.478 M 1790.152 1776.631 C 1790.265 1776.383 1790.352 1776.841 1790.372 1777.164 C 1790.335 1777.174 1790.3 1777.186 1790.263 1777.195 C 1790.232 1777.069 1790.195 1776.885 1790.151 1776.631 M 1799.53 1778.89 L 1799.863 1778.875 C 1799.803 1778.915 1799.74 1778.96 1799.677 1779.003 C 1799.642 1778.95 1799.59 1778.91 1799.53 1778.89 M 1794.625 1790.44 L 1794.961 1790.497 C 1794.684 1790.529 1794.587 1790.482 1794.625 1790.44" fill="#323f51" clip-path="url(#clip-path)" transform="matrix(1, 0, 0, 1, 1226.819669, -306.930637)"/>
  <path id="Path_1343" data-name="Path 1343" d="M 1790.215 1790.046 C 1790.652 1790.334 1791.201 1790.396 1791.692 1790.215 C 1791.692 1790.215 1789.817 1789.435 1790.215 1790.046" fill="#323f51" clip-path="url(#clip-path)" transform="matrix(1, 0, 0, 1, 1226.819669, -306.930637)"/>
  <path id="Path_1164" data-name="Path 1164" d="M 737.853 1938.055" fill="none" stroke="#323f51" stroke-width="4.5" transform="matrix(1, 0, 0, 1, 1226.819669, -306.930637)"/>
  <g id="g-18" clip-path="url(#clip-14)" transform="matrix(1, 0, 0, 1, 3590.439787, -220.661868)"/>
  <g id="g-19" data-name="Group 1192" transform="matrix(-1, 0, 0, 1, 6885.939787, -1159.835605)"/>
  <polyline style="fill: rgb(216, 216, 216); stroke: rgb(0, 0, 0);" points="510.455 -75.258" transform="matrix(1, 0, 0, 1, 4084.701994, -142.130527)"/>
  <path style="fill: rgb(216, 216, 216); stroke: rgb(0, 0, 0);" d="M -167.225 -0.173" transform="matrix(1, 0, 0, 1, 2205.954191, -123.888431)"/>
  <g id="g-17" data-name="Group 1541" transform="matrix(1, 0, 0, 1, 647.054411, -831.287784)">
    <g id="g-20" data-name="Group 1073" transform="translate(969.574 1172.396)">
      <path id="path-31" data-name="Path 368" d="M73.035,108.8c4.195,16.372.948,25.313-1.02,42.1a326.959,326.959,0,0,0-.708,69.429,59.81,59.81,0,0,0-19.913-.274" transform="translate(20.372 67.945)" fill="none" stroke="#502831" stroke-linecap="round" stroke-linejoin="round" stroke-width="3"/>
      <path id="path-42" data-name="Path 369" d="M83.627,108.729c.956,40.812-6.258,73.224-5.216,114.034q11.034-1.008,22.118-1.3" transform="translate(39.499 67.892)" fill="none" stroke="#502831" stroke-linecap="round" stroke-linejoin="round" stroke-width="3"/>
      <path id="path-46" data-name="Path 373" d="M43.509,104.53c3.432,13.45,10.885,25.532,19.242,36.614,6.684,8.86,14.883,17.755,25.8,19.771,9.672,1.784,19.567-2.318,27.541-8.078,19.528-14.1,30.683-39.466,26.6-63.206-4.569-26.569-32.136-52.772-60.409-50.587C52.768,41.324,37.08,79.338,43.509,104.53Z" transform="matrix(0.982, 0.191, -0.191, 0.982, 42.813, 2.539)" fill="none" stroke="#502831" stroke-miterlimit="10" stroke-width="3.76"/>
      <path id="Path_379" data-name="Path 379" d="M103.83,137.492l8.614-6.15c3.026-2.161,6.128-4.406,8.532-8.431a25.822,25.822,0,0,0,3.126-16.068,30.691,30.691,0,0,0-2.75-8.34c-10.038-22.059-22.928-39.66-37.29-50.923" transform="matrix(0.999, 0.052, -0.052, 0.999, 70.369, -17.522)" fill="none" stroke="#502831" stroke-linecap="round" stroke-linejoin="round" stroke-width="3"/>
      <path id="path-47" data-name="Path 380" d="M39.685,49.654C36.757,51.317,33.8,53,31.03,57s-5.391,10.523-7.022,20.083a88.755,88.755,0,0,0-1.269,13.6,92.03,92.03,0,0,0,1.212,15.8A68.18,68.18,0,0,0,33.59,132.7l10.432,17.876" transform="translate(30.605 92.635)" fill="none" stroke="#502831" stroke-linecap="round" stroke-linejoin="round" stroke-width="3"/>
    </g>
    <g id="g-21" data-name="Group 1539" transform="translate(1061.253 1252.495) rotate(-3)">
      <path id="Path_574" data-name="Path 574" d="M2.909,2.509A9.057,9.057,0,0,1,.378,1.133C0,.849-.163.53.208.187.564-.141.928.013,1.263.262c2.616,1.945,5.5,2.047,8.569.837.153-.06.31-.114.46-.178.379-.16.742-.17.964.168s.093.654-.337.838A10.879,10.879,0,0,1,2.909,2.509Z" transform="matrix(-0.829, 0.559, -0.559, -0.829, 5.627, -3.743)" fill="#502831" stroke="#502831" stroke-width="2"/>
      <path id="Path_573" data-name="Path 573" d="M2.909,2.509A9.057,9.057,0,0,1,.378,1.133C0,.849-.163.53.208.187.564-.141.928.013,1.263.262c2.616,1.945,5.5,2.047,8.569.837.153-.06.31-.114.46-.178.379-.16.742-.17.964.168s.093.654-.337.838A10.879,10.879,0,0,1,2.909,2.509Z" transform="matrix(-0.966, -0.259, 0.259, -0.966, 47.619, 0.452)" fill="#502831" stroke="#502831" stroke-width="2"/>
      <path id="Subtraction_6" data-name="Subtraction 6" d="M2304.309,2230.067a5.154,5.154,0,0,1-3.646-1.5,4.638,4.638,0,0,1,.013-6.511,5.027,5.027,0,0,1,3.485-1.28h.077a4.82,4.82,0,0,1,3.254,1.114,2.465,2.465,0,0,0-.59-.069h-.037a1.959,1.959,0,0,0-1.5,3.334,2.2,2.2,0,0,0,1.561.644l.085,0a1.833,1.833,0,0,0,1.806-1.445,5.422,5.422,0,0,1,.071,1,4.977,4.977,0,0,1-1.225,3.368,4.414,4.414,0,0,1-3.156,1.35C2304.441,2230.066,2304.374,2230.067,2304.309,2230.067Z" transform="translate(-2293.271 -2203.032)" fill="#502831"/>
      <path id="Exclusion_2" data-name="Exclusion 2" d="M2303.941,2230.4h-.039a4.535,4.535,0,0,1-3.393-1.255,4.856,4.856,0,0,1-1.174-3.517,5.042,5.042,0,0,1,1.322-3.485,4.557,4.557,0,0,1,3.326-1.371h.011a4.556,4.556,0,0,1,3.515,1.662,2.067,2.067,0,0,0-1.407-.487h-.035a1.969,1.969,0,0,0-1.505,3.354,2.213,2.213,0,0,0,1.566.645l.088,0a1.907,1.907,0,0,0,1.886-2.03,2.117,2.117,0,0,0-.146-.843,5.107,5.107,0,0,1,.687,2.626,4.753,4.753,0,0,1-1.3,3.418A4.678,4.678,0,0,1,2303.941,2230.4Zm4.007-7.34a4.777,4.777,0,0,0-.439-.626,1.714,1.714,0,0,1,.441.625Z" transform="translate(-2270.904 -2203.184)" fill="#502831"/>
      <path id="path-48" data-name="Path 2028" d="M88.445,78.218s-19.312,18.61-35.44,0" transform="matrix(0.999, 0.052, -0.052, 0.999, -45.313, -44.537)" fill="none" stroke="#502831" stroke-linecap="round" stroke-linejoin="round" stroke-width="2"/>
    </g>
    <g id="g-22" data-name="Group 1540" transform="translate(-68.904 -0.125) rotate(-2)"/>
  </g>
  <path id="path-53" data-name="Path 2025" d="M -945.29 -216.86 C -953.481 -215.089 -961.369 -212.407 -968.756 -208.88 C -972.229 -207.23 -973.788 -205.381 -970.343 -203.392 C -967.267 -201.844 -963.418 -202.015 -960.543 -203.828 C -936.29 -215.109 -909.548 -215.701 -881.071 -208.685 C -879.65 -208.324 -878.2 -208.024 -876.801 -207.656 C -873.855 -206.442 -870.358 -206.823 -867.854 -208.631 C -865.722 -210.668 -866.988 -212.422 -870.981 -213.488 C -894.908 -220.53 -920.636 -221.698 -945.29 -216.86 Z" style="fill: rgb(8, 13, 13);" transform="matrix(0.537318, -0.84338, 0.84338, 0.537318, -247.451666, -873.187271)"/>
  <path id="path-54" data-name="Path 2026" d="M -958.115 -228.307 C -964.379 -226.866 -970.387 -224.697 -975.974 -221.862 C -978.613 -220.529 -979.799 -219.038 -977.176 -217.435 C -974.854 -216.192 -971.876 -216.336 -969.731 -217.796 C -951.264 -226.906 -930.912 -227.383 -909.244 -221.717 C -908.163 -221.436 -907.057 -221.183 -905.997 -220.887 C -903.758 -219.909 -901.052 -220.222 -899.192 -221.674 C -897.566 -223.321 -898.534 -224.736 -901.568 -225.599 C -919.697 -231.278 -939.367 -232.22 -958.115 -228.307 Z" style="fill: rgb(8, 13, 13);" transform="matrix(0.537318, -0.84338, 0.84338, 0.537318, -245.629857, -895.008724)"/>
  <path id="path-3" data-name="Path 2025" d="M -194.628 -256.037 C -202.819 -254.266 -210.707 -251.584 -218.094 -248.057 C -221.567 -246.407 -223.126 -244.558 -219.681 -242.569 C -216.605 -241.021 -212.756 -241.192 -209.881 -243.005 C -185.628 -254.286 -158.886 -254.878 -130.409 -247.862 C -128.988 -247.501 -127.538 -247.201 -126.139 -246.833 C -123.193 -245.619 -119.696 -246 -117.192 -247.808 C -115.06 -249.845 -116.326 -251.599 -120.319 -252.665 C -144.246 -259.707 -169.974 -260.875 -194.628 -256.037 Z" style="fill: rgb(8, 13, 13);" transform="matrix(0.615773, 0.787924, -0.787924, 0.615773, -262.063749, 36.921988)"/>
  <path id="path-4" data-name="Path 2026" d="M -170.294 -268.609 C -176.558 -267.168 -182.566 -264.999 -188.153 -262.164 C -190.792 -260.831 -191.978 -259.34 -189.355 -257.737 C -187.033 -256.494 -184.055 -256.638 -181.91 -258.098 C -163.443 -267.208 -143.091 -267.685 -121.423 -262.019 C -120.342 -261.738 -119.236 -261.485 -118.176 -261.189 C -115.937 -260.211 -113.231 -260.524 -111.371 -261.976 C -109.745 -263.623 -110.713 -265.038 -113.747 -265.901 C -131.876 -271.58 -151.546 -272.522 -170.294 -268.609 Z" style="fill: rgb(8, 13, 13);" transform="matrix(0.615773, 0.787924, -0.787924, 0.615773, -265.869326, 17.333739)"/>
</svg>