<?xml version="1.0" encoding="utf-8"?>
<svg xmlns="http://www.w3.org/2000/svg" xmlns:bx="https://boxy-svg.com" viewBox="-136.929 -515.191 1356.219 1801.584">
  <defs>
    
    <clipPath id="clip-1">
      <rect width="2748" height="1970" id="rect-1" x="0" y="0"/>
    </clipPath>
  </defs>
  <g id="Group_1513" data-name="Group 1513" transform="matrix(1, 0, 0, 1, 11600.805856, 18569.880719)">
    <path id="Rectangle_543" data-name="Rectangle 543" d="M -9530.063 -19170.462 L -9489.603 -19170.462 L -9489.603 -17899.613 L -9517.889 -17899.613 C -9544.783 -17899.613 -9566.586 -17927.697 -9566.586 -17962.339 L -9566.586 -19123.419 C -9566.586 -19149.399 -9550.233 -19170.462 -9530.063 -19170.462 Z" fill="#dca13d" style=""/>
    <g id="Group_1504" data-name="Group 1504" transform="translate(26)">
      <rect id="Rectangle_532" data-name="Rectangle 532" width="1172.235" height="1280.324" rx="41" fill="#ffffff" stroke="#dca13d" stroke-width="10" stroke-dasharray="20" x="-9550.873" y="-19175.775" style=""/>
      <circle id="circle-5" data-name="Ellipse 216" cx="-9473.314" cy="-18971.811" r="16" style="fill: rgb(220, 161, 61);"/>
      <circle id="circle-6" data-name="Ellipse 216" cx="-9474.439" cy="-18759.35" r="16" style="fill: rgb(220, 161, 61);"/>
      <circle id="circle-7" data-name="Ellipse 216" cx="-9472.118" cy="-18451.995" r="16" style="fill: rgb(220, 161, 61);"/>
      <circle id="circle-8" data-name="Ellipse 216" cx="-9471.385" cy="-18207.048" r="16" style="fill: rgb(220, 161, 61);"/>
      <text style="fill: rgb(220, 161, 61); font-family: &quot;Roboto Slab&quot;; font-size: 58px; font-weight: 600; white-space: pre;" x="-9480.33" y="-19062.2">Hvad er værdier?</text>
    </g>
  </g>
  <g transform="matrix(1, 0, 0, 1, 1213.871094, -951.453735)">
    <g id="g-1" clip-path="url(#clip-1)" transform="matrix(1, 0, 0, 1.296221, -2690.781006, 471.413666)" style="">
      <g id="g-2" data-name="Group 1512" transform="translate(12343,20220)">
        <path id="path-1" data-name="Rectangle 542" d="M -10940.266 -20183.235 L -10907.031 -20183.235 L -10907.031 -18907.629 L -10930.266 -18907.629 C -10952.357 -18907.629 -10970.266 -18932.617 -10970.266 -18963.437 L -10970.266 -20141.379 C -10970.266 -20164.496 -10956.834 -20183.235 -10940.266 -20183.235 Z" fill="#990033" style=""/>
        <g id="g-3" data-name="Group 1505" transform="matrix(1, 0, 0, 1, 26, 0)">
          <rect id="rect-2" data-name="Rectangle 533" width="1226.416" height="1268.387" rx="41" fill="#ffffff" stroke="#990033" stroke-width="10" stroke-dasharray="20" x="-10964.648" y="-20179.629" style=""/>
          <text id="text-1" data-name="Mavesmerter Hyppige, løse afføringer Diarré Oppustethed Kvalme Sure opstød Svie eller smerter i toppen af maven" transform="translate(-10743.818,-19854.746)" fill="#323f51" font-size="40px" font-family="FiraSans-Book, 'Fira Sans'" style="white-space: pre;" y="123"> </text>
          <circle id="circle-1" data-name="Ellipse 211" cx="-10897.174" cy="-20022.221" r="16" fill="#990033"/>
          <circle id="circle-2" data-name="Ellipse 212" cx="-10900.295" cy="-19694.977" r="16" fill="#990033"/>
          <circle id="circle-4" data-name="Ellipse 216" cx="-10904.465" cy="-19318.199" r="16" fill="#990033"/>
          <text style="fill: rgb(153, 0, 51); font-family: &quot;Roboto Slab&quot;; font-size: 55px; font-weight: 800; white-space: pre;" x="-10855.547" y="-18602.139"> </text>
        </g>
        <text style="fill: rgb(153, 0, 51); font-family: &quot;Roboto Slab&quot;; font-size: 58px; font-weight: 600; white-space: pre;" x="-10825.7" y="-20084.6" transform="matrix(0.948477, 0, 0, 0.842627, -557.7771, -3170.270752)">Hvad er værdier ikke?</text>
      </g>
    </g>
    <text transform="matrix(1, 0, 0, 1, 1252.254395, 1361.426147)" style="fill: rgb(51, 51, 51); font-family: &quot;Roboto Slab&quot;; font-size: 50px; white-space: pre;"><tspan x="-267.521" y="-792">Dine værdier beskriver,  hvad der er vigtigt </tspan><tspan x="-267.52099609375" dy="1.3em">​</tspan><tspan>for dig, og hvad der giver mening for<tspan x="-267.52099609375" dy="1.3em">​</tspan> dig i livet.</tspan><tspan x="-267.52099609375" dy="1.3em">​</tspan></text>
    <text transform="matrix(1, 0, 0, 1, 1225.706543, 1513.795654)" style="fill: rgb(51, 51, 51); font-family: &quot;Roboto Slab&quot;; font-size: 50px; white-space: pre;"><tspan x="-238.444" y="-727.667">Du kan spørge dig selv:  Hvad vil jeg gerne </tspan><tspan x="-238.444" dy="1.3em">​</tspan><tspan>bruge mit liv på? Hvordan vil jeg gerne </tspan><tspan x="-238.444" dy="1.3em">​</tspan><tspan>være sammen med andre mennesker?</tspan><tspan x="-238.444" dy="1.3em">​</tspan><tspan>Hvad er det, som driver mig?</tspan><tspan x="-238.444" dy="1.3em">​</tspan></text>
    <text transform="matrix(1, 0, 0, 1, 1209.318115, 1758.758789)" style="fill: rgb(51, 51, 51); font-family: &quot;Roboto Slab&quot;; font-size: 50px; white-space: pre;"><tspan x="-216.994" y="-672.18">Dine værdier er dit indre kompas, </tspan><tspan x="-216.994" dy="1.3em">​</tspan><tspan>som hjælper dig med </tspan><tspan x="-216.994" dy="1.3em">​</tspan><tspan>at vælge retning i livet.</tspan><tspan x="-216.994" dy="1.3em">​</tspan></text>
    <text transform="matrix(1, 0, 0, 1, 1079.222046, 1951.709351)" style="fill: rgb(51, 51, 51); font-family: &quot;Roboto Slab&quot;; font-size: 50px; white-space: pre;"><tspan x="-84.176" y="-612.243">Værdier er på spil i alle livsområder, </tspan><tspan x="-84.176" dy="1.3em">​</tspan><tspan>f.eks. i forhold til andre, </tspan><tspan x="-84.176" dy="1.3em">​</tspan><tspan>arbejde/udvikling, sundhed og fritid. </tspan><tspan x="-84.176" dy="1.3em">​</tspan></text>
  </g>
  <text transform="matrix(1, 0, 0, 1, 1070.411621, -72.163315)" style="fill: rgb(51, 51, 51); font-family: &quot;Roboto Slab&quot;; font-size: 50px; white-space: pre;"><tspan x="-1031.87" y="-134.187">Værdier er ikke det samme som mål. </tspan><tspan x="-1031.87" dy="1.3em">​</tspan><tspan>Du kan nå et mål (f.eks. at gå en tur </tspan><tspan x="-1031.87" dy="1.3em">​</tspan><tspan>på en time i skoven). Men hvis sundhed</tspan><tspan x="-1031.87" dy="1.3em">​</tspan><tspan>er en værdi for dig, så bliver du ikke færdig</tspan><tspan x="-1031.87" dy="1.3em">​</tspan><tspan>med den værdi ved at gå turen én gang</tspan><tspan x="-1031.87" dy="1.3em">​</tspan><tspan>eller 10 gange.</tspan><tspan x="-1031.87" dy="1.3em">​</tspan></text>
  <text transform="matrix(1, 0, 0, 1, 1032.434326, 191.48822)" style="fill: rgb(51, 51, 51); font-family: &quot;Roboto Slab&quot;; font-size: 50px; white-space: pre;"><tspan x="-994.849" y="22.796">Værdier er ikke pligter, normer og regler. </tspan><tspan x="-994.849" dy="1.3em">​</tspan><tspan>Det vil sige, at værdier ikke er alt det, </tspan><tspan x="-994.849" dy="1.3em">​</tspan><tspan>som samfundet eller andre mennesker siger, </tspan><tspan x="-994.849" dy="1.3em">​</tspan><tspan>du BØR og SKAL. </tspan><tspan x="-994.849" dy="1.3em">​</tspan><tspan>Værdier kan dog godt være noget du SKAL </tspan><tspan x="-994.849" dy="1.3em">​</tspan><tspan>og selv VIL. Vi tager på arbejde, fordi vi skal,</tspan><tspan x="-994.849" dy="1.3em">​</tspan><tspan>men også fordi vores arbejde er vigtigt for os.</tspan><tspan x="-994.849" dy="1.3em">​</tspan></text>
  <text transform="matrix(1, 0, 0, 1, 862.499329, -278.748444)" style="fill: rgb(51, 51, 51); font-family: &quot;Roboto Slab&quot;; font-size: 50px; white-space: pre;"><tspan x="-829.045" y="989.162">Værdier er ikke følelser. Følelser skifter</tspan><tspan x="-829.045" dy="1.3em">​</tspan><tspan>hele tiden. Hvis vores handlinger skal være</tspan><tspan x="-829.045" dy="1.3em">​</tspan><tspan>styret af følelserne, bliver de ustabile og </tspan><tspan x="-829.045" dy="1.3em">​</tspan><tspan>svinger fra dag til dag. Handlinger, </tspan><tspan x="-829.045" dy="1.3em">​</tspan><tspan>som styres af værdier, er mere stabile </tspan><tspan x="-829.045" dy="1.3em">​</tspan><tspan>og kan gennemføres - måske med lidt</tspan><tspan x="-829.045" dy="1.3em">​</tspan><tspan>tilpasning - på dage, hvor du har det skidt.</tspan><tspan x="-829.045" dy="1.3em">​</tspan></text>
  <g id="Group_1348" data-name="Group 1348" transform="matrix(0.977665, 0, 0, 1.093461, 2918.496652, -964.317889)" style=""/>
  <g id="Group_1219" data-name="Group 1219" transform="matrix(0.684287, 0, 0, 0.684752, 1921.239999, -1348.147357)" style="">
    <g id="Group_1205" data-name="Group 1205" transform="translate(19971 22653)">
      <g id="Group_1204" data-name="Group 1204" transform="translate(-18488.57 -21743.621)">
        <path id="Nuance_A4_5a" data-name="Nuance A4 5a" d="M136.9,0A136.9,136.9,0,1,1,0,136.9,136.9,136.9,0,0,1,136.9,0Z" transform="translate(45.415 53.374)" style="fill: rgb(220, 161, 61);"/>
      </g>
    </g>
    <g id="Group_1215" data-name="Group 1215" transform="matrix(1, 0, 0, 1, 20133.388672, 22393.183594)">
      <text id="i" transform="translate(-18485.934 -21395.555)" style="fill: rgb(82, 68, 43); font-family: RifficFree-Bold, &quot;Riffic Free&quot;; font-size: 150px; font-weight: 700; white-space: pre;" x="0" y="146">i</text>
    </g>
    <g id="g-4" data-name="Group 1205" transform="matrix(1, 0, 0, 1, 16822.257577, 22938.922392)">
      <g id="g-5" data-name="Group 1204" transform="translate(-18488.57 -21743.621)">
        <path id="path-4" data-name="Nuance A4 5a" d="M136.9,0A136.9,136.9,0,1,1,0,136.9,136.9,136.9,0,0,1,136.9,0Z" transform="translate(45.415 53.374)" style="fill: rgb(153, 0, 51);"/>
      </g>
    </g>
    <g id="g-6" data-name="Group 1215" transform="matrix(1, 0, 0, 1, 16986.703125, 22692.296875)">
      <text id="text-2" transform="translate(-18485.934 -21395.555)" style="fill: rgb(51, 12, 25); font-family: RifficFree-Bold, &quot;Riffic Free&quot;; font-size: 150px; font-weight: 700; white-space: pre;" x="0" y="146">i</text>
    </g>
  </g>
  <path id="path-2" data-name="Path 730" d="M 950.413 -377.445 C 950.413 -377.445 989.31 -385.742 1045.399 -395.427 C 1079.992 -401.4 1121.046 -407.339 1163.563 -412.312 C 1224.481 -419.439 1288.404 -424.58 1340.63 -424.994 C 1362.343 -425.166 1382.244 -426.938 1398.807 -436.936" fill="none" stroke-width="5" style="stroke: rgb(220, 161, 61);" transform="matrix(0.993218, 0.116268, -0.116268, 0.993218, 1171.323083, -202.056064)"/>
  <path id="path-3" data-name="Path 730" d="M -989.574 -272.114 C -989.574 -272.114 -950.677 -280.411 -894.588 -290.096 C -859.995 -296.069 -818.941 -302.008 -776.424 -306.981 C -715.506 -314.108 -650.761 -313.033 -599.358 -319.663 C -577.823 -322.441 -451.221 -325.06 -405.937 -345.026" fill="none" stroke-width="5" style="stroke: rgb(153, 0, 51);" transform="matrix(-0.991364, -0.131136, 0.131136, -0.991364, -311.796927, -687.62868)"/>
  <text style="white-space: pre; fill: rgb(51, 51, 51); font-family: &quot;Roboto Slab&quot;; font-size: 28px;"> </text>
</svg>
