<svg xmlns="http://www.w3.org/2000/svg" xmlns:xlink="http://www.w3.org/1999/xlink" width="205.636" height="258.265" viewBox="0 0 205.636 258.265">
  <defs>
    <clipPath id="clip-path">
      <rect id="Rectangle_354" data-name="Rectangle 354" width="56.641" height="71.745" fill="#323f51"/>
    </clipPath>
  </defs>
  <g id="Group_848" data-name="Group 848" transform="translate(-445.373 -783.542)">
    <g id="Group_847" data-name="Group 847" transform="translate(446.796 783.542)">
      <g id="Group_845" data-name="Group 845" transform="translate(131.898 13.703) rotate(-14)">
        <g id="Group_844" data-name="Group 844" clip-path="url(#clip-path)">
          <path id="Path_1235" data-name="Path 1235" d="M56.641,43.425A28.34,28.34,0,0,0,32.474,15.444V13.216c0-.068-.017-.131-.021-.2a7.175,7.175,0,1,0-8.265,0c0,.066-.021.13-.021.2v2.228A28.3,28.3,0,1,0,56.641,43.425M28.321,69.48a26.039,26.039,0,0,1-4.154-51.747c.376-.06.751-.128,1.133-.172a24.07,24.07,0,0,1,6.042,0c.382.044.757.112,1.133.172A26.039,26.039,0,0,1,28.321,69.48M26.432,14.065v-.849a1.888,1.888,0,0,1,3.776,0V15.2c-.627-.041-1.251-.1-1.888-.1s-1.261.054-1.888.1ZM23.412,7.175a4.909,4.909,0,1,1,8.239,3.584,4.118,4.118,0,0,0-6.661,0,4.883,4.883,0,0,1-1.578-3.584" fill="#323f51"/>
          <path id="Path_1236" data-name="Path 1236" d="M38.07,6.582c-.017-.017-.021-.039-.038-.057s-.041-.021-.057-.038a22.233,22.233,0,0,0-31.393,0c-.017.017-.039.021-.057.038s-.021.041-.038.057a22.233,22.233,0,0,0,0,31.393c.017.017.021.039.038.057s.041.021.057.038a22.233,22.233,0,0,0,31.393,0c.017-.017.039-.021.057-.038s.021-.041.038-.057a22.233,22.233,0,0,0,0-31.393m.823,16.829h3.341a19.9,19.9,0,0,1-5.09,12.219,1.107,1.107,0,0,0-1.513,1.513,19.9,19.9,0,0,1-12.219,5.09V38.894a1.133,1.133,0,1,0-2.266,0v3.341a19.9,19.9,0,0,1-12.219-5.09,1.107,1.107,0,0,0-1.513-1.513,19.9,19.9,0,0,1-5.09-12.219H5.664a1.133,1.133,0,0,0,0-2.266H2.323A19.9,19.9,0,0,1,7.413,8.927a1.11,1.11,0,0,0,.539.159,1.133,1.133,0,0,0,.8-.332,1.117,1.117,0,0,0,.174-1.34,19.9,19.9,0,0,1,12.219-5.09V4.154a1.133,1.133,0,1,0,2.266,0V2.323a19.9,19.9,0,0,1,12.219,5.09,1.117,1.117,0,0,0,.174,1.34,1.133,1.133,0,0,0,.8.332,1.11,1.11,0,0,0,.539-.159,19.9,19.9,0,0,1,5.09,12.219H38.894a1.133,1.133,0,0,0,0,2.266" transform="translate(6.042 21.146)" fill="#323f51"/>
          <path id="Path_1237" data-name="Path 1237" d="M1.14,2.266A1.133,1.133,0,1,0,1.14,0H1.125A1.127,1.127,0,0,0,0,1.133,1.14,1.14,0,0,0,1.14,2.266" transform="translate(27.195 28.698)" fill="#323f51"/>
          <path id="Path_1238" data-name="Path 1238" d="M15.458,5.465a1.145,1.145,0,0,0-.122-.18,1.245,1.245,0,0,0-.154-.23,1.3,1.3,0,0,0-.231-.157,1.22,1.22,0,0,0-.181-.121l-6-2.134L1.513.063A1.134,1.134,0,0,0,.066,1.51L4.78,14.767a1.032,1.032,0,0,0,.122.181,1.245,1.245,0,0,0,.154.23,1.289,1.289,0,0,0,.231.156,1.122,1.122,0,0,0,.181.122L18.726,20.17a1.177,1.177,0,0,0,.379.065.2.2,0,0,1,.03,0,1.134,1.134,0,0,0,.956-1.742ZM7.917,13.923l6.008-6.008,3.314,9.321Zm4.4-7.613L6.313,12.319,3,3Z" transform="translate(18.201 33.308)" fill="#323f51"/>
        </g>
      </g>
      <g id="Group_846" data-name="Group 846" transform="translate(0 33.724)">
        <g id="Group_359" data-name="Group 359" transform="translate(0)">
          <g id="Group_314" data-name="Group 314" transform="translate(63.262 39.24)">
            <path id="Path_568" data-name="Path 568" d="M1013.206,533.649a14.1,14.1,0,0,1-4.091-2.7c-.6-.557-.876-1.181-.275-1.853.576-.643,1.164-.341,1.706.147,4.23,3.811,8.891,4.01,13.855,1.64.248-.118.5-.224.744-.348.613-.313,1.2-.333,1.559.33a1.1,1.1,0,0,1-.545,1.641C1022,534.663,1017.717,535.489,1013.206,533.649Z" transform="translate(-998.515 -490.036)" fill="#323f51" stroke="#323f51" stroke-width="2"/>
            <path id="Path_574" data-name="Path 574" d="M2.909,2.509A9.057,9.057,0,0,1,.378,1.133C0,.849-.163.53.208.187.564-.141.928.013,1.263.262c2.616,1.945,5.5,2.047,8.569.837.153-.06.31-.114.46-.178.379-.16.742-.17.964.168s.093.654-.337.838A10.879,10.879,0,0,1,2.909,2.509Z" transform="matrix(-0.951, 0.309, -0.309, -0.951, 11.746, 2.88)" fill="#323f51" stroke="#313f50" stroke-width="2"/>
            <path id="Path_573" data-name="Path 573" d="M2.909,2.509A9.057,9.057,0,0,1,.378,1.133C0,.849-.163.53.208.187.564-.141.928.013,1.263.262c2.616,1.945,5.5,2.047,8.569.837.153-.06.31-.114.46-.178.379-.16.742-.17.964.168s.093.654-.337.838A10.879,10.879,0,0,1,2.909,2.509Z" transform="matrix(-0.966, -0.259, 0.259, -0.966, 42.542, 6.13)" fill="#323f51" stroke="#313f50" stroke-width="2"/>
            <path id="Subtraction_6" data-name="Subtraction 6" d="M2304.309,2230.067a5.154,5.154,0,0,1-3.646-1.5,4.638,4.638,0,0,1,.013-6.511,5.027,5.027,0,0,1,3.485-1.28h.077a4.82,4.82,0,0,1,3.254,1.114,2.465,2.465,0,0,0-.59-.069h-.037a1.959,1.959,0,0,0-1.5,3.334,2.2,2.2,0,0,0,1.561.644l.085,0a1.833,1.833,0,0,0,1.806-1.445,5.422,5.422,0,0,1,.071,1,4.977,4.977,0,0,1-1.225,3.368,4.414,4.414,0,0,1-3.156,1.35C2304.441,2230.066,2304.374,2230.067,2304.309,2230.067Z" transform="translate(-2293.271 -2203.032)" fill="#323f51" stroke="rgba(0,0,0,0)" stroke-miterlimit="10" stroke-width="1"/>
            <path id="Exclusion_2" data-name="Exclusion 2" d="M2303.941,2230.4h-.039a4.535,4.535,0,0,1-3.393-1.255,4.856,4.856,0,0,1-1.174-3.517,5.042,5.042,0,0,1,1.322-3.485,4.557,4.557,0,0,1,3.326-1.371h.011a4.556,4.556,0,0,1,3.515,1.662,2.067,2.067,0,0,0-1.407-.487h-.035a1.969,1.969,0,0,0-1.505,3.354,2.213,2.213,0,0,0,1.566.645l.088,0a1.907,1.907,0,0,0,1.886-2.03,2.117,2.117,0,0,0-.146-.843,5.107,5.107,0,0,1,.687,2.626,4.753,4.753,0,0,1-1.3,3.418A4.678,4.678,0,0,1,2303.941,2230.4Zm4.007-7.34a4.777,4.777,0,0,0-.439-.626,1.714,1.714,0,0,1,.441.625Z" transform="translate(-2270.904 -2203.184)" fill="#323f51" stroke="rgba(0,0,0,0)" stroke-miterlimit="10" stroke-width="1"/>
          </g>
          <g id="Group_313" data-name="Group 313" transform="translate(20.76)">
            <path id="Path_557" data-name="Path 557" d="M64.23,140.73c-.224,17.962-.448,30.054-.671,48.015a94.7,94.7,0,0,1-18.445.345" transform="translate(-20.03 31.788)" fill="none" stroke="#353f4f" stroke-linecap="round" stroke-linejoin="round" stroke-width="3"/>
            <path id="Path_558" data-name="Path 558" d="M86.149,141.073a461.389,461.389,0,0,0-.073,47.459,42.689,42.689,0,0,1,18.543.27" transform="translate(-4.068 33.932)" fill="none" stroke="#353f4f" stroke-linecap="round" stroke-linejoin="round" stroke-width="3"/>
            <path id="Path_559" data-name="Path 559" d="M71.216,19.4c-14.289,7.92-22.95,23.1-29.088,38.243a209.17,209.17,0,0,0-14.883,90.75c.358,5.941,1.016,12.035,3.749,17.323,3.47,6.715,9.925,11.408,16.692,14.774,12.842,6.391,27.32,8.807,41.645,9.577,12.177.655,24.683.124,36.046-4.3s21.5-13.266,25.05-24.932c2.1-6.905,1.807-14.279,1.495-21.49q-.46-10.647-.921-21.293c-.822-19-1.708-38.345-8.093-56.265S123.686,27.246,105.7,21.059c-5.728-1.971-12.706-6.622-18.682-5.637-12.978,2.137-14.109,3.033-15.8,3.975" transform="translate(-26.875 -15.287)" fill="none" stroke="#353f4f" stroke-miterlimit="10" stroke-width="4.5"/>
            <path id="Path_564" data-name="Path 564" d="M51.554,65.951" transform="translate(-17.614 3.726)" fill="#6bbcb2"/>
          </g>
          <path id="Path_575" data-name="Path 575" d="M-293.06-107.636c12.715-3.192,21.605-5.994,31.512-11.2,12.418-6.524,19.008-15.524,21.563-24.571s1.389-18.252.22-27.375" transform="translate(438.721 213.867)" fill="none" stroke="#323f51" stroke-linecap="round" stroke-linejoin="round" stroke-width="3"/>
          <path id="Path_576" data-name="Path 576" d="M-270.763-170.78a45.676,45.676,0,0,0-12.868,12.944c-5.071,7.541-7.762,17.945-8.805,28.4s-.567,21.1-.09,31.643" transform="translate(293.06 259.75)" fill="none" stroke="#323f51" stroke-linecap="round" stroke-linejoin="round" stroke-width="3"/>
        </g>
      </g>
    </g>
    <path id="Polygon_1" data-name="Polygon 1" d="M5.4,0l5.4,12.6H0Z" transform="translate(603.131 830.619) rotate(-60)" fill="#323f51"/>
  </g>
</svg>
