<svg viewBox="-1473.776 -125.162 1371.18 1375.096" xmlns="http://www.w3.org/2000/svg"><defs><filter id="værdikompasClean_svg__b" width="641.27" height="152.85" x="190" y="556.779" filterUnits="userSpaceOnUse"><feOffset dy="3"/><feGaussianBlur result="blur" stdDeviation="3"/><feFlood flood-opacity=".161"/><feComposite in2="blur" operator="in"/><feComposite in="SourceGraphic"/></filter><filter id="værdikompasClean_svg__c" width="137.455" height="541.215" x="653.348" y="624.203" filterUnits="userSpaceOnUse"><feOffset dy="3"/><feGaussianBlur result="blur-2" stdDeviation="3"/><feFlood flood-opacity=".161"/><feComposite in2="blur-2" operator="in"/><feComposite in="SourceGraphic"/></filter><filter id="værdikompasClean_svg__d" width="77.867" height="541.215" x="713.213" y="100.988" filterUnits="userSpaceOnUse"><feOffset dy="3"/><feGaussianBlur result="blur-3" stdDeviation="3"/><feFlood flood-opacity=".161"/><feComposite in2="blur-3" operator="in"/><feComposite in="SourceGraphic"/></filter><filter id="værdikompasClean_svg__e" width="541.215" height="77.867" x="712.744" y="624.205" filterUnits="userSpaceOnUse"><feOffset dy="3"/><feGaussianBlur result="blur-4" stdDeviation="3"/><feFlood flood-opacity=".161"/><feComposite in2="blur-4" operator="in"/><feComposite in="SourceGraphic"/></filter><clipPath id="værdikompasClean_svg__a"><path d="M0 0h1557v1263H0z"/></clipPath><clipPath id="værdikompasClean_svg__f"><path d="M0 0h1166v1094H0z"/></clipPath><clipPath id="værdikompasClean_svg__g"><path d="M0 0h545v513H0z"/></clipPath></defs><g clip-path="url(#værdikompasClean_svg__a)" transform="matrix(1.2998 0 0 1.30019 -1727.832 -253.426)"><path fill="#8c1b35" d="M423 339.418 716.992 631.41 1035 317.418l-136-92-252-36L423 301.41Z" data-name="Path 1970"/><path fill="#7ec8d6" d="m1006.696 343.117-297.7 276.285 314 318.008 92-136 36-252-111.992-224Z" data-name="Path 1971"/><path fill="#e79e17" d="M1011.557 931.283 721.012 627.332 403.004 941.324l136 92 252 36 224-111.992Z" data-name="Path 1972"/><path fill="#009cb2" d="M422.031 935.061 729 652.973 415.008 334.961l-92 136-36 252 111.992 224Z" data-name="Path 1973"/><g data-name="Group 1497"><path fill="#353f4f" d="M1044.725 309.5c-179.737-179.737-471.148-179.737-650.887 0s-179.738 471.148 0 650.886 471.149 179.737 650.887 0 179.738-471.147 0-650.886Zm-609.7 609.7c-156.994-156.994-156.994-411.529 0-568.522s411.529-156.994 568.523 0 156.992 411.528 0 568.522-411.534 156.999-568.526.005Z" data-name="Path 1953"/><path d="M1020.882 333.343c-166.57-166.569-436.631-166.569-603.2 0s-166.569 436.633 0 603.2 436.631 166.57 603.2 0 166.569-436.63 0-603.2ZM435.02 919.205c-156.992-156.994-156.992-411.528 0-568.522s411.529-156.994 568.522 0 156.993 411.528 0 568.522-411.528 156.995-568.522 0Z" data-name="Path 1954" opacity=".31"/><path fill="#11171c" d="M1003.542 350.682c-156.992-156.994-411.528-156.994-568.522 0s-156.994 411.53 0 568.522 411.529 156.994 568.522 0 156.993-411.527 0-568.522Zm-549 549c-146.214-146.213-146.214-383.27 0-529.484s383.27-146.213 529.484 0 146.212 383.272 0 529.485-383.274 146.216-529.486-.001Z" data-name="Path 1955" opacity=".08"/><g fill="none" stroke="#2a4b72" stroke-miterlimit="10" stroke-width=".536" data-name="Group 1494"><path d="m790.866 369.64-9.641 35.652" data-name="Line 124"/><path d="m647.424 366.367 9.477 35.696" data-name="Line 125"/><path d="m520.81 436.656 26.054 26.175" data-name="Line 126"/><path d="m444.555 561.489 35.652 9.641" data-name="Line 127"/><path d="m441.195 712.108 35.696-9.476" data-name="Line 128"/><path d="m513.025 837.188 26.175-26.055" data-name="Line 129"/><path d="m643.663 913.979 9.641-35.652" data-name="Line 130"/><path d="m792.075 911.242-9.477-35.696" data-name="Line 131"/><path d="m917.278 834.959-26.054-26.175" data-name="Line 132"/><path d="m987.906 708.424-35.652-9.641" data-name="Line 133"/><path d="m985.713 564.858-35.695 9.476" data-name="Line 134"/></g><g data-name="Group 1495"><path fill="#252c37" d="M1032.07 947.733 678.406 674.814l-272.919-353.66 353.666 272.915Z" data-name="Path 1956"/><path fill="#353f4f" d="M718.778 634.442 405.487 321.154l313.291 241.76Z" data-name="Path 1957"/><path fill="#353f4f" d="m718.779 634.442 313.292 313.292L718.779 705.97Z" data-name="Path 1958"/><path fill="#252c37" d="m790.306 634.442 241.765-313.288-313.292 241.76v71.528h71.528" data-name="Path 1959"/><path fill="#252c37" d="M647.253 634.443 405.487 947.734 718.778 705.97v-71.528h-71.525" data-name="Path 1960"/><path fill="#353f4f" d="M718.778 634.442 405.487 947.734l241.766-313.292Z" data-name="Path 1961"/><path fill="#353f4f" d="m718.779 634.442 313.292-313.288-241.764 313.288Z" data-name="Path 1962"/></g><g data-name="Group 1496"><g filter="url(#værdikompasClean_svg__b)" transform="translate(-.001 -.001)"><path fill="#029cb2" d="M822.272 633.208 722.059 697.63 199 628.99l523.371-66.21Z" data-name="Path 1963"/></g><path fill="#0191a6" d="m722.213 630.204-523.216-1.214 463.625-58.652Z" data-name="Path 1964"/><path fill="#353f4f" d="m722.214 630.204 523.214 1.215-463.625 58.652Z" data-name="Path 1965"/><path fill="#6a0c21" d="m782.08 570.616-58.652-463.627-60.8 463.348 59.589 59.866 59.866-59.589" data-name="Path 1966"/><path fill="#75b9c7" d="m781.332 690.071 463.627-58.652-463.348-60.8-59.866 59.589 59.589 59.866" data-name="Path 1974"/><g filter="url(#værdikompasClean_svg__c)" transform="translate(-.001 -.001)"><path fill="#e79e17" d="M662.348 689.791 721 1153.42l60.8-463.348-59.589-59.866-59.866 59.589" data-name="Path 1967"/></g><path fill="#d69317" d="m722.213 630.204-1.215 523.218-58.652-463.625Z" data-name="Path 1968"/><g filter="url(#værdikompasClean_svg__d)" transform="translate(-.001 -.001)"><path fill="#9f1a39" d="m722.213 630.205 1.215-523.215 58.651 463.626Z" data-name="Path 1969"/></g><g filter="url(#værdikompasClean_svg__e)" transform="translate(-.001 -.001)"><path fill="#7ec8d6" d="m721.745 630.203 523.215 1.215-463.626 58.651Z" data-name="Path 1975"/></g></g><g fill="#fff" data-name="Group 1201"><path d="M719.476 528.989a103.94 103.94 0 1 1-103.94 103.94 103.941 103.941 0 0 1 103.94-103.94Z" data-name="Nuance A4 5a"/><path stroke="#394151" stroke-linecap="round" stroke-linejoin="round" stroke-width="6" d="M744.256 608.034c.112 11.305 36.543 10.956 36.433-.353" data-name="Path 200"/><path stroke="#394151" stroke-linecap="round" stroke-linejoin="round" stroke-width="6" d="M685.666 608.034c.112 11.305 36.542 10.956 36.432-.353" data-name="Path 201"/><path stroke="#394151" stroke-linecap="round" stroke-linejoin="round" stroke-width="6" d="M694.134 660.477c13.813 10.887 29.157 8.4 41.728-.4" data-name="Path 202"/></g></g></g></svg>