<svg viewBox="-136.929 -515.191 1356.219 1801.584" xmlns="http://www.w3.org/2000/svg"><defs><clipPath id="VærdierIkke3_svg__a"><path d="M0 0h2748v1970H0z"/></clipPath></defs><g data-name="Group 1513"><path fill="#dca13d" d="M-9530.063-19170.462h40.46v1270.849h-28.286c-26.894 0-48.697-28.084-48.697-62.726v-1161.08c0-25.98 16.353-47.043 36.523-47.043Z" data-name="Rectangle 543" transform="translate(11600.806 18569.88)"/><g data-name="Group 1504" transform="translate(11626.806 18569.88)"><rect width="1172.235" height="1280.324" x="-9550.873" y="-19175.775" fill="#fff" stroke="#dca13d" stroke-dasharray="20" stroke-width="10" data-name="Rectangle 532" rx="41"/><circle cx="-9473.314" cy="-18971.811" r="16" data-name="Ellipse 216" style="fill:#dca13d"/><circle cx="-9474.439" cy="-18759.35" r="16" data-name="Ellipse 216" style="fill:#dca13d"/><circle cx="-9472.118" cy="-18451.995" r="16" data-name="Ellipse 216" style="fill:#dca13d"/><circle cx="-9471.385" cy="-18207.048" r="16" data-name="Ellipse 216" style="fill:#dca13d"/><text x="-9480.33" y="-19062.2" style="fill:#dca13d;font-family:&quot;Roboto Slab&quot;;font-size:58px;font-weight:600;white-space:pre">Hvad er værdier?</text></g></g><g clip-path="url(#VærdierIkke3_svg__a)" transform="matrix(1 0 0 1.29622 -1476.91 -480.04)"><g data-name="Group 1512"><path fill="#903" d="M-10940.266-20183.235h33.235v1275.606h-23.235c-22.091 0-40-24.988-40-55.808v-1177.942c0-23.117 13.432-41.856 30-41.856Z" data-name="Rectangle 542" transform="translate(12343 20220)"/><g data-name="Group 1505" transform="translate(12369 20220)"><rect width="1226.416" height="1268.387" x="-10964.648" y="-20179.629" fill="#fff" stroke="#903" stroke-dasharray="20" stroke-width="10" data-name="Rectangle 533" rx="41"/><text y="123" fill="#323f51" data-name="Mavesmerter Hyppige, løse afføringer Diarré Oppustethed Kvalme Sure opstød Svie eller smerter i toppen af maven" font-family="FiraSans-Book, 'Fira Sans'" font-size="40" style="white-space:pre" transform="translate(-10743.818 -19854.746)"> </text><circle cx="-10897.174" cy="-20022.221" r="16" fill="#903" data-name="Ellipse 211"/><circle cx="-10900.295" cy="-19694.977" r="16" fill="#903" data-name="Ellipse 212"/><circle cx="-10904.465" cy="-19318.199" r="16" fill="#903" data-name="Ellipse 216"/><text x="-10855.547" y="-18602.139" style="fill:#903;font-family:&quot;Roboto Slab&quot;;font-size:55px;font-weight:800;white-space:pre"> </text></g><text x="-10825.7" y="-20084.6" style="fill:#903;font-family:&quot;Roboto Slab&quot;;font-size:58px;font-weight:600;white-space:pre" transform="matrix(.94848 0 0 .84263 11785.223 17049.73)">Hvad er værdier ikke?</text></g></g><text style="fill:#333;font-family:&quot;Roboto Slab&quot;;font-size:50px;white-space:pre" transform="translate(2466.125 409.972)"><tspan x="-267.521" y="-792">Dine værdier beskriver,  hvad der er vigtigt </tspan><tspan x="-267.521" dy="1.3em">​</tspan><tspan>for dig, og hvad der giver mening for<tspan x="-267.521" dy="1.3em">​</tspan> dig i livet.</tspan><tspan x="-267.521" dy="1.3em">​</tspan></text><text style="fill:#333;font-family:&quot;Roboto Slab&quot;;font-size:50px;white-space:pre" transform="translate(2439.578 562.342)"><tspan x="-238.444" y="-727.667">Du kan spørge dig selv:  Hvad vil jeg gerne </tspan><tspan x="-238.444" dy="1.3em">​</tspan><tspan>bruge mit liv på? Hvordan vil jeg gerne </tspan><tspan x="-238.444" dy="1.3em">​</tspan><tspan>være sammen med andre mennesker?</tspan><tspan x="-238.444" dy="1.3em">​</tspan><tspan>Hvad er det, som driver mig?</tspan><tspan x="-238.444" dy="1.3em">​</tspan></text><text style="fill:#333;font-family:&quot;Roboto Slab&quot;;font-size:50px;white-space:pre" transform="translate(2423.19 807.305)"><tspan x="-216.994" y="-672.18">Dine værdier er dit indre kompas, </tspan><tspan x="-216.994" dy="1.3em">​</tspan><tspan>som hjælper dig med </tspan><tspan x="-216.994" dy="1.3em">​</tspan><tspan>at vælge retning i livet.</tspan><tspan x="-216.994" dy="1.3em">​</tspan></text><text style="fill:#333;font-family:&quot;Roboto Slab&quot;;font-size:50px;white-space:pre" transform="translate(2293.093 1000.256)"><tspan x="-84.176" y="-612.243">Værdier er på spil i alle livsområder, </tspan><tspan x="-84.176" dy="1.3em">​</tspan><tspan>f.eks. i forhold til andre, </tspan><tspan x="-84.176" dy="1.3em">​</tspan><tspan>arbejde/udvikling, sundhed og fritid. </tspan><tspan x="-84.176" dy="1.3em">​</tspan></text><text style="fill:#333;font-family:&quot;Roboto Slab&quot;;font-size:50px;white-space:pre" transform="translate(1070.412 -72.163)"><tspan x="-1031.87" y="-134.187">Værdier er ikke det samme som mål. </tspan><tspan x="-1031.87" dy="1.3em">​</tspan><tspan>Du kan nå et mål (f.eks. at gå en tur </tspan><tspan x="-1031.87" dy="1.3em">​</tspan><tspan>på en time i skoven). Men hvis sundhed</tspan><tspan x="-1031.87" dy="1.3em">​</tspan><tspan>er en værdi for dig, så bliver du ikke færdig</tspan><tspan x="-1031.87" dy="1.3em">​</tspan><tspan>med den værdi ved at gå turen én gang</tspan><tspan x="-1031.87" dy="1.3em">​</tspan><tspan>eller 10 gange.</tspan><tspan x="-1031.87" dy="1.3em">​</tspan></text><text style="fill:#333;font-family:&quot;Roboto Slab&quot;;font-size:50px;white-space:pre" transform="translate(1032.434 191.488)"><tspan x="-994.849" y="22.796">Værdier er ikke pligter, normer og regler. </tspan><tspan x="-994.849" dy="1.3em">​</tspan><tspan>Det vil sige, at værdier ikke er alt det, </tspan><tspan x="-994.849" dy="1.3em">​</tspan><tspan>som samfundet eller andre mennesker siger, </tspan><tspan x="-994.849" dy="1.3em">​</tspan><tspan>du BØR og SKAL. </tspan><tspan x="-994.849" dy="1.3em">​</tspan><tspan>Værdier kan dog godt være noget du SKAL </tspan><tspan x="-994.849" dy="1.3em">​</tspan><tspan>og selv VIL. Vi tager på arbejde, fordi vi skal,</tspan><tspan x="-994.849" dy="1.3em">​</tspan><tspan>men også fordi vores arbejde er vigtigt for os.</tspan><tspan x="-994.849" dy="1.3em">​</tspan></text><text style="fill:#333;font-family:&quot;Roboto Slab&quot;;font-size:50px;white-space:pre" transform="translate(862.5 -278.748)"><tspan x="-829.045" y="989.162">Værdier er ikke følelser. Følelser skifter</tspan><tspan x="-829.045" dy="1.3em">​</tspan><tspan>hele tiden. Hvis vores handlinger skal være</tspan><tspan x="-829.045" dy="1.3em">​</tspan><tspan>styret af følelserne, bliver de ustabile og </tspan><tspan x="-829.045" dy="1.3em">​</tspan><tspan>svinger fra dag til dag. Handlinger, </tspan><tspan x="-829.045" dy="1.3em">​</tspan><tspan>som styres af værdier, er mere stabile </tspan><tspan x="-829.045" dy="1.3em">​</tspan><tspan>og kan gennemføres - måske med lidt</tspan><tspan x="-829.045" dy="1.3em">​</tspan><tspan>tilpasning - på dage, hvor du har det skidt.</tspan><tspan x="-829.045" dy="1.3em">​</tspan></text><g data-name="Group 1219"><g data-name="Group 1205"><g data-name="Group 1204"><path d="M136.9 0A136.9 136.9 0 1 1 0 136.9 136.9 136.9 0 0 1 136.9 0Z" data-name="Nuance A4 5a" style="fill:#dca13d" transform="matrix(.68429 0 0 .68475 2966.724 -688.9)"/></g></g><text y="146" data-name="Group 1215" style="fill:#52442b;font-family:RifficFree-Bold,&quot;Riffic Free&quot;;font-size:150px;font-weight:700;white-space:pre" transform="matrix(.68429 0 0 .68475 3048.572 -665.02)">i</text><g data-name="Group 1205"><g data-name="Group 1204"><path d="M136.9 0A136.9 136.9 0 1 1 0 136.9 136.9 136.9 0 0 1 136.9 0Z" data-name="Nuance A4 5a" style="fill:#903" transform="matrix(.68429 0 0 .68475 812.081 -493.114)"/></g></g><text y="146" data-name="Group 1215" style="fill:#330c19;font-family:RifficFree-Bold,&quot;Riffic Free&quot;;font-size:150px;font-weight:700;white-space:pre" transform="matrix(.68429 0 0 .68475 895.336 -460.2)">i</text></g><path fill="none" stroke-width="5" d="M950.413-377.445s38.897-8.297 94.986-17.982c34.593-5.973 75.647-11.912 118.164-16.885 60.918-7.127 124.841-12.268 177.067-12.682 21.713-.172 41.614-1.944 58.177-11.942" data-name="Path 730" style="stroke:#dca13d" transform="rotate(6.677 2317.606 9939.15)"/><path fill="none" stroke-width="5" d="M-989.574-272.114s38.897-8.297 94.986-17.982c34.593-5.973 75.647-11.912 118.164-16.885 60.918-7.127 125.663-6.052 177.066-12.682 21.535-2.778 148.137-5.397 193.421-25.363" data-name="Path 730" style="stroke:#903" transform="rotate(-172.465 -178.54 -333.548)"/><text style="white-space:pre;fill:#333;font-family:&quot;Roboto Slab&quot;;font-size:28px"> </text></svg>