<svg width="730.891" height="806.162" xmlns="http://www.w3.org/2000/svg"><g data-name="Group 656"><g data-name="Group 322"><g data-name="Group 256"><g fill="none" stroke="#323f51" stroke-width="7" data-name="Group 658"><path stroke-linecap="round" stroke-linejoin="round" d="M347.617 683.787c-53.02 11.865-179.987 12.067-190.736 16.089-19.57 39.306 280.043-4.311 297.184 86.814" data-name="Path 419"/><path stroke-linecap="round" stroke-linejoin="round" d="M388.663 687.959c52.534 7.4 175.258-6.24 186.085-2.943 23.207 41.562-290.207 30.394-274.992 112.626" data-name="Path 1048"/><path stroke-miterlimit="10" d="M178.72 564.263c-.047 16.55 1.925 33.705 10.383 47.931 11.67 19.64 33.556 30.511 54.554 39.5 53.166 22.78 110.706 40.638 168.132 33.738s114.376-43.928 129.482-99.759c6.619-24.446 4.947-50.265 3.22-75.534l-14.548-213.536c-6.19-90.77-13.98-204.549-95.947-262.053C377.325-5.21 330.02 6.83 299.931 66.651c-32.376 64.358-34.915 145.416-49.907 214.838-20.085 92.957-71.02 186.867-71.304 282.774Z" data-name="Path 421"/><path stroke-linecap="round" stroke-linejoin="round" stroke-width="7.0028" d="M204.547 435.775c-25.292 22.234-53.315 35.226-91.821 43.418-19.714 4.182-42.846 5.884-61.111-3.045-12.676-6.202-20.755-16.552-25.866-26.97-18.905-38.571 6.935-39.524-6.21-79.035" data-name="Path 422"/><path stroke-linecap="round" stroke-linejoin="round" d="M539.357 438.843c7.384 29.811 48.209 56.568 93.627 61.369 10.76 1.13 21.812 1.137 31.737-1.021 18.434-4.004 30.579-14.733 41.44-25.073 38.678-36.826-16.065-45.185 15.842-84.948" data-name="Path 423"/></g></g><path fill="#323f51" d="M334.358 162.712a34.108 34.108 0 0 1 10.754 1.424c1.696.492 2.717 1.385 1.877 3.1-.811 1.63-2.303 1.581-3.812 1.155-11.823-3.309-22.096.222-31.256 8.62-.457.42-.935.82-1.378 1.246-1.117 1.072-2.385 1.601-3.617.71-1.283-.925-1.21-2.173.054-3.401 7.565-7.337 16.303-12.392 27.378-12.854Z" data-name="Path 498"/><path fill="#323f51" d="M455.684 162.235a34.114 34.114 0 0 1 8.244 7.054c1.154 1.337 1.524 2.642-.115 3.623-1.568.925-2.793.072-3.827-1.109-8.113-9.216-18.653-11.853-30.912-9.8-.611.103-1.23.179-1.835.295-1.52.29-2.872.043-3.42-1.376-.572-1.475.168-2.482 1.898-2.823 10.343-2.031 20.426-1.51 29.967 4.136Z" data-name="Path 499"/></g><path fill="none" stroke="#323f51" stroke-linecap="round" stroke-miterlimit="10" stroke-width="5" d="M394.595 296.456c-3.77-3.25-9.167-4.617-14.043-4.608a6.285 6.285 0 0 0-3.776.92 4.573 4.573 0 0 0-1.459 4.732 8.936 8.936 0 0 0 2.865 4.303 17.5 17.5 0 0 0 12.097 4.47c-4.444 2.76-14.346 10.783-12.183 16.979 2.972 8.52 24.418 4.839 23.439-5.128" data-name="Path 604"/><path fill="none" stroke="#323f51" stroke-linecap="round" stroke-miterlimit="10" stroke-width="5" d="M409.949 227.705c.014 3.44-.052 6.887-.09 10.322a10.005 10.005 0 0 0 5.817 9.387c5.633 2.521 17.649.1 21.455-.88 11.389-2.919 6.045-12.86 6.025-18.95" data-name="Path 605"/><path fill="none" stroke="#323f51" stroke-linecap="round" stroke-miterlimit="10" stroke-width="5" d="M336.643 227.96c.013 3.44-.052 6.887-.09 10.322a10 10 0 0 0 5.82 9.385c5.634 2.521 17.645.102 21.452-.877 11.389-2.92 6.049-12.863 6.025-18.952" data-name="Path 606"/><path fill="#6c85a0" d="m244.4 367.01 6.128-5.09c-16.603 5.64-29.87 3.146-38.543-10.889-11.997-19.41 3.63-48.728 34.986-42.425l-14.824-6.302c3.033-13.957 15.996-22.699 30.392-20.47 13.576 2.103 23.511 14.468 22.225 28.048-4.718.236-9.49.47-14.6.728l.062 8.368c5.307-.365 10.286-.675 15.262-1.061 15.003-1.162 30.008-2.376 45.014-3.527 3.31-.255 6.748-.248 4.444-5.68l-40.45.999c-2.84-8.546-4.263-17.082-8.332-24.08-7.05-12.122-18.991-16.391-32.586-14.266-14.04 2.196-23.142 10.877-26.793 24.527-1.264 4.723-2.735 7.078-7.94 8.264-17.696 4.029-28.621 21.595-25.242 39.336a34.057 34.057 0 0 0 37.303 27.476c3.64-.406 6.429-1.106 9.275 2.934 11.044 15.663 29.63 19.638 46.31 10.598 14.348-7.786 20.61-26.136 14.709-43.07-.312-.89-.49-1.83-.899-3.393 11.042-3.946 21.983-7.703 32.77-11.854 1.998-.768 3.38-3.14 5.047-4.768l-1.662-2.08c-20.574 6.218-41.155 12.433-62.426 18.856l2.808 7.922c5.057-1.587 9.592-3.018 14.072-4.424 6.292 12.578 1.359 26.807-11.62 34.31-11.65 6.75-27.083 2.989-34.89-8.987Z" data-name="Path 611"/></g></svg>