<svg xmlns="http://www.w3.org/2000/svg" width="463.154" height="918.428" viewBox="0 0 463.154 918.428">
  <g id="Group_644" data-name="Group 644" transform="translate(1.705 1.095)">
    <path id="Path_1001" data-name="Path 1001" d="M1254.149,129.005s-29.923-36.192-72.206-36.192-75.7,26.162-85.313,40.049h-30.719V164.6h-31.742v31.742L949.3,195.66s1.516,35.867,27.8,58.451,20.944,61.09,22.845,88.138,8.437,45.878,36.212,47.695v26.614L949.3,416.4s9.356,43.215,29.736,60.872,22.613,50.938,21.39,86.373,13.907,47.732,39.7,47.04v30.058H949.141s2.045,30.484,23.836,50.7,26.247,51.792,28.481,87.113,12.465,53.652,36.486,53.652l1.123,28.776,23.065.3-1.24,25.136,235.151,1.073V858.966l21.854,1.288,6.4-29.318s23.063,7.372,31.191-19.5-6.388-70.3,11.963-95.576l33.2-45.733s5.19-21.456,7.967-31.375h-88.763V609s26.91,2.676,31.889-11.961.48-73.22,10.429-91.842,46.643-62.844,46.444-88.634c0,0-88.763,3.968-88.763,0V390.768s32.966.71,35.161-21.468-4.2-73.577,11.285-94.8,45.493-36.492,42.318-78.153h-88.763V162.62h-29.758V130.878Z" transform="translate(-949.141 -92.408)" fill="none" stroke="#707070" stroke-width="3"/>
    <rect id="Rectangle_321" data-name="Rectangle 321" width="168.669" height="132.06" transform="translate(144.545 785.273)" fill="none"/>
    <g id="Group_625" data-name="Group 625" transform="translate(116.173 39.285)">
      <path id="Path_1002" data-name="Path 1002" d="M1008.3,139.892q.6-12.2,1.19-24.406" transform="translate(-1007.109 -109.386)" fill="none" stroke="#000" stroke-miterlimit="10" stroke-width="1.109"/>
      <path id="Path_1003" data-name="Path 1003" d="M1122.3,140.884V112.411" transform="translate(-894.943 -112.411)" fill="none" stroke="#000" stroke-miterlimit="10" stroke-width="1.109"/>
      <path id="Path_1004" data-name="Path 1004" d="M1007.7,114.27c73.394-1.635,227.358-1.859,227.358-1.859" transform="translate(-1007.699 -112.411)" fill="none" stroke="#000" stroke-miterlimit="10" stroke-width="1.109"/>
    </g>
    <path id="Path_1005" data-name="Path 1005" d="M1023.344,132.755a104.783,104.783,0,0,1,165.282.435" transform="translate(-876.133 -92.609)" fill="none" stroke="#000" stroke-miterlimit="10" stroke-width="1.2"/>
    <g id="Group_627" data-name="Group 627" transform="translate(86.758 68.597)">
      <g id="Group_626" data-name="Group 626">
        <path id="Path_1006" data-name="Path 1006" d="M993.2,131.74q1.125,345.441,2.246,690.882" transform="translate(-992.553 -122.705)" fill="none" stroke="#000" stroke-miterlimit="10" stroke-width="1.389"/>
        <path id="Path_1007" data-name="Path 1007" d="M1136,131.74q1.125,345.441,2.246,690.882" transform="translate(-852.054 -122.705)" fill="none" stroke="#000" stroke-miterlimit="10" stroke-width="1.389"/>
        <path id="Path_1008" data-name="Path 1008" d="M992.872,131.6l279.717-4.418" transform="translate(-992.872 -127.186)" fill="none" stroke="#000" stroke-miterlimit="10" stroke-width="1.389"/>
      </g>
      <path id="Path_1009" data-name="Path 1009" d="M994.328,480.353c92.441-2.26,187.025,1.593,279.464-.669" transform="translate(-991.44 219.563)" fill="none" stroke="#000" stroke-miterlimit="10" stroke-width="1.389"/>
    </g>
    <g id="Group_628" data-name="Group 628" transform="translate(112.008 766.139)">
      <line id="Line_45" data-name="Line 45" x1="0.704" y2="25.152" transform="translate(0 2.702)" fill="none" stroke="#000" stroke-miterlimit="10" stroke-width="1.046"/>
      <path id="Path_1010" data-name="Path 1010" d="M1005.6,492.842c75.388-.246,160.3,1.335,235.686,1.089" transform="translate(-1005.599 -464.988)" fill="none" stroke="#000" stroke-miterlimit="10" stroke-width="1.046"/>
      <path id="Path_1011" data-name="Path 1011" d="M1124.4,507.732V478.789" transform="translate(-888.713 -478.789)" fill="none" stroke="#000" stroke-miterlimit="10" stroke-width="1.046"/>
    </g>
    <g id="Group_631" data-name="Group 631" transform="translate(144.544 795.109)">
      <g id="Group_629" data-name="Group 629">
        <line id="Line_46" data-name="Line 46" y2="117.918" fill="none" stroke="#000" stroke-miterlimit="10" stroke-width="1.085"/>
      </g>
      <g id="Group_630" data-name="Group 630" transform="translate(170.615)">
        <line id="Line_47" data-name="Line 47" y2="117.918" fill="none" stroke="#000" stroke-miterlimit="10" stroke-width="1.085"/>
      </g>
    </g>
    <path id="Path_1012" data-name="Path 1012" d="M1209.676,310.671a108.812,108.812,0,1,0-181.423,0Z" transform="translate(-889.113 -44.24)" fill="none" stroke="#000" stroke-miterlimit="10" stroke-width="4.432"/>
    <circle id="Ellipse_100" data-name="Ellipse 100" cx="91.192" cy="91.192" r="91.192" transform="translate(138.66 115.152)" fill="#cc5858" stroke="#000" stroke-miterlimit="10" stroke-width="4.432"/>
    <path id="Path_1013" data-name="Path 1013" d="M1209.676,421.937a108.812,108.812,0,1,0-181.423,0Z" transform="translate(-889.113 65.232)" fill="none" stroke="#000" stroke-miterlimit="10" stroke-width="4.432"/>
    <circle id="Ellipse_101" data-name="Ellipse 101" cx="91.192" cy="91.192" r="91.192" transform="translate(138.66 335.889)" fill="#efdc74" stroke="#000" stroke-miterlimit="10" stroke-width="4.432"/>
    <path id="Path_1014" data-name="Path 1014" d="M1209.676,533.2a108.812,108.812,0,1,0-181.423,0Z" transform="translate(-889.113 174.704)" fill="none" stroke="#000" stroke-miterlimit="10" stroke-width="4.432"/>
    <circle id="Ellipse_102" data-name="Ellipse 102" cx="91.192" cy="91.192" r="91.192" transform="translate(138.66 556.625)" fill="#7ed6ad" stroke="#000" stroke-miterlimit="10" stroke-width="4.432"/>
    <g id="Group_634" data-name="Group 634" transform="translate(103.259 88.125)">
      <g id="Group_632" data-name="Group 632">
        <path id="Path_1015" data-name="Path 1015" d="M1005.883,137.886c-4.613,2.355-6.186,9.148-3.083,13.292s10.06,4.551,13.627.8,2.805-10.677-1.49-13.572-10.993-1-13.143,3.708" transform="translate(-1001.19 -137.029)" fill="none" stroke="#000" stroke-miterlimit="10" stroke-width="1.2"/>
        <path id="Path_1016" data-name="Path 1016" d="M1003.169,150.774q4.869-6.467,9.737-12.931" transform="translate(-999.242 -136.228)" fill="none" stroke="#000" stroke-miterlimit="10" stroke-width="1.2"/>
      </g>
      <g id="Group_633" data-name="Group 633" transform="translate(235.686)">
        <path id="Path_1017" data-name="Path 1017" d="M1124.681,137.886c-4.61,2.355-6.184,9.148-3.081,13.292s10.06,4.551,13.628.8,2.8-10.677-1.49-13.572-10.993-1-13.143,3.708" transform="translate(-1119.99 -137.029)" fill="none" stroke="#000" stroke-miterlimit="10" stroke-width="1.2"/>
        <path id="Path_1018" data-name="Path 1018" d="M1121.969,150.774q4.868-6.467,9.737-12.931" transform="translate(-1118.042 -136.228)" fill="none" stroke="#000" stroke-miterlimit="10" stroke-width="1.2"/>
      </g>
    </g>
    <g id="Group_637" data-name="Group 637" transform="translate(103.259 730.906)">
      <g id="Group_635" data-name="Group 635">
        <path id="Path_1019" data-name="Path 1019" d="M1005.883,461.884c-4.613,2.357-6.186,9.15-3.083,13.294s10.06,4.551,13.627.8,2.805-10.677-1.49-13.572-10.993-1-13.143,3.708" transform="translate(-1001.19 -461.03)" fill="none" stroke="#000" stroke-miterlimit="10" stroke-width="1.2"/>
        <path id="Path_1020" data-name="Path 1020" d="M1003.169,474.774q4.869-6.467,9.737-12.931" transform="translate(-999.242 -460.229)" fill="none" stroke="#000" stroke-miterlimit="10" stroke-width="1.2"/>
      </g>
      <g id="Group_636" data-name="Group 636" transform="translate(235.686)">
        <path id="Path_1021" data-name="Path 1021" d="M1124.681,461.884c-4.61,2.357-6.184,9.15-3.081,13.294s10.06,4.551,13.628.8,2.8-10.677-1.49-13.572-10.993-1-13.143,3.708" transform="translate(-1119.99 -461.03)" fill="none" stroke="#000" stroke-miterlimit="10" stroke-width="1.2"/>
        <path id="Path_1022" data-name="Path 1022" d="M1121.969,474.774q4.868-6.467,9.737-12.931" transform="translate(-1118.042 -460.229)" fill="none" stroke="#000" stroke-miterlimit="10" stroke-width="1.2"/>
      </g>
    </g>
    <path id="Path_1023" data-name="Path 1023" d="M1137,243" transform="translate(-764.308 55.36)" fill="none" stroke="#000" stroke-miterlimit="10" stroke-width="1.2"/>
    <g id="Group_638" data-name="Group 638" transform="translate(372.694 103.252)">
      <path id="Path_1024" data-name="Path 1024" d="M1137,145.456q43.249-.4,86.5-.8" transform="translate(-1137.001 -144.654)" fill="none" stroke="#000" stroke-miterlimit="10" stroke-width="1.2"/>
      <path id="Path_1025" data-name="Path 1025" d="M1138.261,337.79c12.8,4.853,26.888-6.452,31.032-19.5s1.615-27.116.913-40.785c-2.016-39.287,9.733-58.687,36.18-87.809,6.458-7.11,15.873-28.431,15.873-45.046" transform="translate(-1135.761 -144.654)" fill="none" stroke="#000" stroke-miterlimit="10" stroke-width="1.2"/>
    </g>
    <g id="Group_639" data-name="Group 639" transform="translate(372.694 323.988)">
      <path id="Path_1026" data-name="Path 1026" d="M1137,256.72q43.249-.4,86.5-.8" transform="translate(-1137.001 -255.918)" fill="none" stroke="#000" stroke-miterlimit="10" stroke-width="1.2"/>
      <path id="Path_1027" data-name="Path 1027" d="M1138.261,449.056c12.8,4.851,26.888-6.454,31.032-19.5s1.615-27.116.913-40.783c-2.016-39.287,9.733-58.689,36.18-87.809,6.458-7.112,15.873-28.431,15.873-45.048" transform="translate(-1135.761 -255.918)" fill="none" stroke="#000" stroke-miterlimit="10" stroke-width="1.2"/>
    </g>
    <g id="Group_640" data-name="Group 640" transform="translate(372.694 545.39)">
      <path id="Path_1028" data-name="Path 1028" d="M1137,368.32q43.249-.4,86.5-.8" transform="translate(-1137.001 -367.518)" fill="none" stroke="#000" stroke-miterlimit="10" stroke-width="1.2"/>
      <path id="Path_1029" data-name="Path 1029" d="M1138.261,560.656c12.8,4.851,26.888-6.454,31.032-19.5s1.615-27.116.913-40.783c-2.016-39.287,9.733-58.689,36.18-87.809,6.458-7.112,15.873-28.431,15.873-45.048" transform="translate(-1135.761 -367.518)" fill="none" stroke="#000" stroke-miterlimit="10" stroke-width="1.2"/>
    </g>
    <g id="Group_641" data-name="Group 641" transform="translate(0.512 103.252)">
      <path id="Path_1030" data-name="Path 1030" d="M1035.9,145.456q-43.248-.4-86.5-.8" transform="translate(-949.399 -144.654)" fill="none" stroke="#000" stroke-miterlimit="10" stroke-width="1.2"/>
      <path id="Path_1031" data-name="Path 1031" d="M1033.4,337.79c-12.8,4.853-26.888-6.452-31.032-19.5s-1.615-27.116-.912-40.785c2.015-39.287-9.733-58.687-36.18-87.809-6.458-7.11-15.873-28.431-15.873-45.046" transform="translate(-949.399 -144.654)" fill="none" stroke="#000" stroke-miterlimit="10" stroke-width="1.2"/>
    </g>
    <g id="Group_642" data-name="Group 642" transform="translate(0.512 323.988)">
      <path id="Path_1032" data-name="Path 1032" d="M1035.9,256.72q-43.248-.4-86.5-.8" transform="translate(-949.399 -255.918)" fill="none" stroke="#000" stroke-miterlimit="10" stroke-width="1.2"/>
      <path id="Path_1033" data-name="Path 1033" d="M1033.4,449.056c-12.8,4.851-26.888-6.454-31.032-19.5s-1.615-27.116-.912-40.783c2.015-39.287-9.733-58.689-36.18-87.809-6.458-7.112-15.873-28.431-15.873-45.048" transform="translate(-949.399 -255.918)" fill="none" stroke="#000" stroke-miterlimit="10" stroke-width="1.2"/>
    </g>
    <g id="Group_643" data-name="Group 643" transform="translate(0.512 545.39)">
      <path id="Path_1034" data-name="Path 1034" d="M1035.9,368.32q-43.248-.4-86.5-.8" transform="translate(-949.399 -367.518)" fill="none" stroke="#000" stroke-miterlimit="10" stroke-width="1.2"/>
      <path id="Path_1035" data-name="Path 1035" d="M1033.4,560.656c-12.8,4.851-26.888-6.454-31.032-19.5s-1.615-27.116-.912-40.783c2.015-39.287-9.733-58.689-36.18-87.809-6.458-7.112-15.873-28.431-15.873-45.048" transform="translate(-949.399 -367.518)" fill="none" stroke="#000" stroke-miterlimit="10" stroke-width="1.2"/>
    </g>
    <path id="Path_1036" data-name="Path 1036" d="M1054.37,279.506c-18.327,14.637-27.931,39.462-24.227,62.623" transform="translate(-870.218 91.277)" fill="none" stroke="#000" stroke-miterlimit="10" stroke-width="1.2"/>
    <path id="Path_1037" data-name="Path 1037" d="M1032,320.59l1.19-1.19" transform="translate(-867.617 130.529)" fill="none" stroke="#000" stroke-miterlimit="10" stroke-width="1.2"/>
    <path id="Path_1038" data-name="Path 1038" d="M1054.37,170.506c-18.327,14.637-27.931,39.462-24.227,62.624" transform="translate(-870.218 -15.967)" fill="none" stroke="#000" stroke-miterlimit="10" stroke-width="1.2"/>
    <path id="Path_1039" data-name="Path 1039" d="M1032,211.59l1.19-1.19" transform="translate(-867.617 23.285)" fill="none" stroke="#000" stroke-miterlimit="10" stroke-width="1.2"/>
    <path id="Path_1040" data-name="Path 1040" d="M1088.439,359.315a63.218,63.218,0,0,0,25.073-54.97" transform="translate(-812.087 115.716)" fill="none" stroke="#000" stroke-miterlimit="10" stroke-width="1.2"/>
    <path id="Path_1041" data-name="Path 1041" d="M1097.4,296" transform="translate(-803.27 107.506)" fill="none" stroke="#000" stroke-miterlimit="10" stroke-width="1.2"/>
    <path id="Path_1042" data-name="Path 1042" d="M1054.37,394.506c-18.327,14.637-27.931,39.462-24.227,62.623" transform="translate(-870.218 204.425)" fill="none" stroke="#000" stroke-miterlimit="10" stroke-width="1.2"/>
    <path id="Path_1043" data-name="Path 1043" d="M1032,435.59l1.19-1.19" transform="translate(-867.617 243.676)" fill="none" stroke="#000" stroke-miterlimit="10" stroke-width="1.2"/>
    <path id="Path_1044" data-name="Path 1044" d="M1088.439,474.315a63.218,63.218,0,0,0,25.073-54.97" transform="translate(-812.087 228.864)" fill="none" stroke="#000" stroke-miterlimit="10" stroke-width="1.2"/>
    <path id="Path_1045" data-name="Path 1045" d="M1097.4,411" transform="translate(-803.27 220.653)" fill="none" stroke="#000" stroke-miterlimit="10" stroke-width="1.2"/>
    <path id="Path_1046" data-name="Path 1046" d="M1088.439,248.315a63.218,63.218,0,0,0,25.073-54.97" transform="translate(-812.087 6.505)" fill="none" stroke="#000" stroke-miterlimit="10" stroke-width="1.2"/>
    <path id="Path_1047" data-name="Path 1047" d="M1097.4,185" transform="translate(-803.27 -1.706)" fill="none" stroke="#000" stroke-miterlimit="10" stroke-width="1.2"/>
  </g>
</svg>
