<svg width="624.723" height="624.723" xmlns="http://www.w3.org/2000/svg"><g data-name="Group 742"><path fill="#fff" d="m473.402 453.96-19.445 19.446c-83.572 83.572-302.642 0-302.642 0s-83.572-219.07 0-302.641l19.445-19.446c83.573-83.573 219.071-83.57 302.642 0s83.573 219.069 0 302.642Z" data-name="Path 474"/><g data-name="Group 681"><g data-name="Group 322"><g data-name="Group 256"><g fill="none" stroke="#323f51" stroke-width="7" data-name="Group 658"><path stroke-linecap="round" stroke-linejoin="round" d="M315.12 438.143c-23.946 5.36-81.29 5.45-86.145 7.267-8.838 17.752 126.481-1.948 134.224 39.21" data-name="Path 419"/><path stroke-linecap="round" stroke-linejoin="round" d="M333.66 440.027c23.728 3.343 79.156-2.818 84.046-1.329 10.48 18.772-131.072 13.728-124.2 50.868" data-name="Path 1048"/><path stroke-miterlimit="10" d="M238.839 384.16c-.02 7.475.87 15.223 4.69 21.649 5.27 8.87 15.155 13.78 24.639 17.842 24.012 10.289 50 18.354 75.936 15.237s51.658-19.842 58.481-45.058c2.99-11.042 2.234-22.702 1.455-34.115l-6.57-96.444c-2.796-40.997-6.315-92.386-43.334-118.357-25.597-17.958-46.963-12.519-60.552 14.5-14.624 29.07-15.77 65.68-22.541 97.031-9.072 41.984-32.077 84.398-32.204 127.715Z" data-name="Path 421"/><path stroke-linecap="round" stroke-linejoin="round" stroke-width="7.0028" d="M250.504 326.128c-11.423 10.043-24.078 15.911-41.47 19.604-8.906 1.896-19.353 2.664-27.603-1.369a25.74 25.74 0 0 1-11.683-12.18c-8.537-17.424 3.134-17.852-2.804-35.698" data-name="Path 422"/><path stroke-linecap="round" stroke-linejoin="round" d="M401.721 327.514c3.335 13.467 21.774 25.55 42.287 27.717a46.012 46.012 0 0 0 14.334-.461c8.325-1.809 13.812-6.654 18.717-11.324 17.469-16.632-7.254-20.408 7.154-38.362" data-name="Path 423"/></g></g><path fill="#323f51" d="M309.133 202.799a15.405 15.405 0 0 1 4.853.645c.77.221 1.233.626.851 1.396-.365.738-1.037.715-1.72.524-5.342-1.494-9.978.1-14.118 3.894-.207.186-.422.37-.623.56-.505.484-1.076.723-1.634.32-.58-.42-.546-.98.025-1.535 3.414-3.311 7.364-5.595 12.366-5.804Z" data-name="Path 498"/><path fill="#323f51" d="M363.93 202.584a15.408 15.408 0 0 1 3.718 3.185c.526.606.693 1.198-.047 1.635-.709.42-1.26.035-1.728-.498-3.667-4.163-8.424-5.352-13.963-4.426-.275.044-.555.08-.828.13-.687.131-1.296.02-1.545-.62-.257-.669.076-1.122.857-1.275 4.668-.918 9.226-.681 13.535 1.87Z" data-name="Path 499"/></g><path fill="none" stroke="#323f51" stroke-linecap="round" stroke-miterlimit="10" stroke-width="5" d="M336.34 263.205a9.855 9.855 0 0 0-6.343-2.086 2.839 2.839 0 0 0-1.707.42 2.065 2.065 0 0 0-.658 2.137 4.036 4.036 0 0 0 1.292 1.944 7.905 7.905 0 0 0 5.464 2.019c-2.006 1.246-6.478 4.87-5.503 7.669 1.34 3.845 11.028 2.184 10.586-2.317" data-name="Path 604"/><path fill="none" stroke="#323f51" stroke-linecap="round" stroke-miterlimit="10" stroke-width="5" d="M343.273 232.154c.007 1.553-.023 3.11-.04 4.662a4.519 4.519 0 0 0 2.626 4.237c2.544 1.139 7.971.046 9.689-.398 5.144-1.318 2.73-5.808 2.722-8.557" data-name="Path 605"/><path fill="none" stroke="#323f51" stroke-linecap="round" stroke-miterlimit="10" stroke-width="5" d="M310.165 232.269c.006 1.554-.023 3.11-.04 4.661a4.515 4.515 0 0 0 2.627 4.237c2.544 1.139 7.97.046 9.688-.397 5.143-1.318 2.732-5.81 2.721-8.557" data-name="Path 606"/><path fill="#6c85a0" d="m268.504 295.072 2.77-2.304c-7.5 2.55-13.494 1.425-17.415-4.914-5.419-8.766 1.64-22.008 15.801-19.158l-6.695-2.846a11.898 11.898 0 0 1 13.727-9.244 11.857 11.857 0 0 1 10.042 12.663l-6.593.329.027 3.78c2.397-.166 4.646-.306 6.894-.48 6.776-.524 13.554-1.073 20.33-1.593 1.497-.115 3.047-.112 2.007-2.565l-18.269.45c-1.284-3.864-1.926-7.714-3.764-10.876-3.184-5.474-8.577-7.402-14.717-6.442-6.342.991-10.453 4.912-12.1 11.078-.575 2.133-1.236 3.197-3.587 3.733a15.209 15.209 0 0 0-11.401 17.765 15.382 15.382 0 0 0 16.849 12.41c1.644-.184 2.904-.5 4.19 1.325 4.988 7.076 13.384 8.869 20.915 4.787 6.481-3.517 9.31-11.804 6.644-19.452-.14-.405-.22-.826-.405-1.533 4.986-1.783 9.925-3.48 14.8-5.355.902-.346 1.527-1.417 2.275-2.153l-.75-.944c-9.294 2.808-18.59 5.615-28.197 8.516l1.268 3.579c2.282-.721 4.332-1.363 6.356-2 2.841 5.682.613 12.108-5.248 15.498a11.856 11.856 0 0 1-15.754-4.054Z" data-name="Path 611"/></g></g></svg>