<svg width="554.101" height="540.339" xmlns="http://www.w3.org/2000/svg"><g data-name="Group 741"><path fill="#fff" d="m186.2 89.091 23.924-10.157c102.832-43.656 265.25 107.15 265.25 107.15s-4.32 221.593-107.151 265.249l-23.926 10.157c-102.835 43.658-221.59-4.315-265.248-107.15s4.315-221.591 107.15-265.249Z" data-name="Path 207"/><g data-name="Group 679"><path fill="none" stroke="#323f51" stroke-linecap="round" stroke-linejoin="round" stroke-width="7" d="M271.051 408.396c-.368 29.455-.733 49.285-1.1 78.742a155.294 155.294 0 0 1-30.247.566" data-name="Path 1067"/><path fill="none" stroke="#323f51" stroke-linecap="round" stroke-linejoin="round" stroke-width="7" d="M333.18 412.268a711.248 711.248 0 0 0-.119 75.488 72.161 72.161 0 0 1 30.409.431" data-name="Path 1064"/><path fill="none" stroke="#323f51" stroke-miterlimit="10" stroke-width="7" d="M271.281 132.21c-23.431 12.991-37.635 37.888-47.7 62.718a343.007 343.007 0 0 0-24.409 148.825c.587 9.745 1.667 19.737 6.148 28.411 5.688 11.011 16.275 18.708 27.371 24.23 21.061 10.479 44.805 14.444 68.3 15.707 19.969 1.074 40.479.2 59.113-7.057s35.265-21.755 41.082-40.888c3.444-11.324 2.964-23.418 2.452-35.243l-1.511-34.92c-1.349-31.167-2.8-62.885-13.271-92.272s-31.523-56.635-61.024-66.782c-9.335-3.213-50.813-6.689-56.329-2.806-.041.014-4.6 2.774-4.688 2.806" data-name="Path 1065"/><g fill="none" stroke="#323f51" stroke-linecap="round" stroke-linejoin="round" stroke-width="5" data-name="Group 678"><path d="M296.066 206.993c-.079-8.054-26.03-7.803-25.951.252" data-name="Path 200"/><path d="M337.795 206.993c-.079-8.054-26.028-7.803-25.949.252" data-name="Path 201"/><path d="M304.168 235.614c-9.839-7.755-20.769-5.982-29.723.288" data-name="Path 202"/></g><g data-name="Group 677"><g data-name="Group 537"><path fill="#efdc74" d="M301.032 278.912h-.019a83.121 83.121 0 0 0-21.434 2.8l-.166.041a83.129 83.129 0 0 0-18.219 7.329l17.182 29.806a48.471 48.471 0 0 1 9.857-3.892l.226-.056a48.559 48.559 0 0 1 12.529-1.64h.013a48.057 48.057 0 0 1 22.314 5.468l17.223-29.79a82.347 82.347 0 0 0-39.509-10.066Z" data-name="Path 755"/><path fill="#7ed6ad" d="m343.703 290.789-17.221 29.782a48.137 48.137 0 0 1 20.849 27.257 16.689 16.689 0 0 0 15.992 12.1h.5a17.131 17.131 0 0 0 16.425-22.027 82.39 82.39 0 0 0-36.545-47.112Z" data-name="Path 754"/><path fill="#cc5858" d="M221.675 337.783a17.133 17.133 0 0 0 16.4 22.062h.127a17.088 17.088 0 0 0 16.361-12 48.136 48.136 0 0 1 20.651-27.136L258.035 290.9a82.357 82.357 0 0 0-36.36 46.883Z" data-name="Path 756"/></g><g data-name="Group 536"><g data-name="Group 530"><g data-name="Group 527" opacity=".1" transform="translate(269.841 330.361)"><circle cx="29.659" cy="29.659" r="29.659" fill="#494d56" data-name="Ellipse 74"/></g><g data-name="Group 528" transform="translate(261.069 321.55)"><circle cx="28.451" cy="28.451" r="28.451" fill="#fff" data-name="Ellipse 75" transform="rotate(-45 48.568 20.117)"/></g><g data-name="Group 529" transform="translate(260.157 320.992)"><circle cx="28.451" cy="28.451" r="28.451" fill="#e7f0f7" data-name="Ellipse 76" transform="rotate(-45 48.568 20.117)"/></g></g><g data-name="Group 531"><path fill="#494d56" d="M314.81 362.869a35.829 35.829 0 0 0 .214-4.432c.003-3.406.02-6.81.028-10.217l.04-19.46.067-33.878a.5.5 0 0 0-.969-.189l-15.263 38.005-6.586 16.4c-2.383 5.932-6.241 12.302-2.292 19.038a13.7 13.7 0 0 0 8.078 6.46q.49.134.99.231a12.989 12.989 0 0 0 10.886-2.885 14.269 14.269 0 0 0 3.493-4.47 14.115 14.115 0 0 0 1.313-4.603Z" data-name="Path 757"/><path fill="#494d56" d="M311.864 362.296a35.838 35.838 0 0 0 .215-4.431c.003-3.406.02-6.811.028-10.217l.04-19.46.067-33.879a.5.5 0 0 0-.969-.188l-15.263 38.005-6.586 16.4c-2.383 5.932-6.24 12.302-2.292 19.038a13.7 13.7 0 0 0 8.078 6.46q.49.134.99.231a12.989 12.989 0 0 0 10.886-2.885 14.269 14.269 0 0 0 3.493-4.47 14.1 14.1 0 0 0 1.313-4.604Z" data-name="Path 758" opacity=".1"/><path fill="#fff" d="m299.06 374.817.056.011A12.99 12.99 0 0 0 310 371.943a14.269 14.269 0 0 0 3.494-4.471 14.1 14.1 0 0 0 1.312-4.606 35.781 35.781 0 0 0 .214-4.431c.003-3.405.021-6.811.028-10.216l.04-19.46c.02-9.738.054-27.25.07-33.878a.488.488 0 0 0-.464-.498Z" data-name="Path 759" opacity=".1"/></g><g data-name="Group 535"><g data-name="Group 532" opacity=".1" transform="rotate(11 -1606.214 1634.528)"><circle cx="15.08" cy="15.08" r="15.08" fill="#494d56" data-name="Ellipse 77" transform="rotate(-45 25.744 10.664)"/></g><g data-name="Group 533" transform="rotate(11 -1652.13 1679.77)"><circle cx="14.466" cy="14.466" r="14.466" fill="#fff" data-name="Ellipse 78" transform="translate(0 .278)"/></g><g data-name="Group 534" transform="rotate(11 -1615.051 1645.584)"><circle cx="14.466" cy="14.466" r="14.466" fill="#e7f0f7" data-name="Ellipse 79" transform="rotate(-45 24.695 10.229)"/></g></g></g></g><path fill="none" stroke="#323f51" stroke-linecap="round" stroke-linejoin="round" stroke-width="7" d="M206.843 249.353c-20.506 4.827-38.879 25.847-38.9 46.915a31.945 31.945 0 0 0 3.077 14.509c4.2 8.262 12.677 13.316 20.788 17.8 28.883 15.966 36.345 12.729 73.3 18.373" data-name="Path 1068"/><path fill="none" stroke="#323f51" stroke-linecap="round" stroke-linejoin="round" stroke-width="7" d="M399.874 250.224c16.566 10.372 25.873 22.012 34.608 39.5 4.472 8.952 7.655 19.667 3.57 28.8-2.837 6.344-8.756 10.808-14.987 13.882-23.068 11.387-57.226 10.93-81.417 19.681" data-name="Path 1066"/></g></g></svg>