<svg xmlns="http://www.w3.org/2000/svg" xmlns:xlink="http://www.w3.org/1999/xlink" width="515" height="537" viewBox="0 0 515 537">
  <defs>
    <clipPath id="clip-Illustration_-_Min_fysiske_energi_-_Min_kost">
      <rect width="515" height="537"/>
    </clipPath>
  </defs>
  <g id="Illustration_-_Min_fysiske_energi_-_Min_kost" data-name="Illustration - Min fysiske energi - Min kost" clip-path="url(#clip-Illustration_-_Min_fysiske_energi_-_Min_kost)">
    <path id="Path_482" data-name="Path 482" d="M253.959,0h32.632C426.849,0,540.551,253.959,540.551,253.959s-113.7,253.959-253.959,253.959H253.959C113.7,507.919,0,394.217,0,253.959S113.7,0,253.959,0Z" transform="matrix(-0.883, 0.469, -0.469, -0.883, 600.606, 362.035)" fill="#fff"/>
    <g id="Group_251" data-name="Group 251" transform="translate(-755.614 -291.968)">
      <path id="Path_307" data-name="Path 307" d="M1107.888,610.965a4.813,4.813,0,0,1-.546-1.6c.236-5.8-.5-11.562-.732-17.341-.04-.989-.266-2.084.711-2.845,6.508,4.439,12.793,9.214,19.636,13.151,5.058,2.909,10.232,5.576,15.964,6.934,4.3,1.019,5.226.3,5.507-4.2.412-6.576-.777-12.961-2.392-19.276-5.339-20.877-13.758-40.6-22.493-60.219-4.465-10.025-9.6-19.694-15-29.232a10.01,10.01,0,0,1-.578-1.576c.335-1.631,1.883-1.774,3-2.426,3.866-2.253,8.146-3.791,11.621-6.722a1.743,1.743,0,0,1,1.237,1.06c15.74,30.951,30.672,62.244,39.377,96.065,2.37,9.209,3.636,18.613,1.782,28.116-2.288,11.742-12.009,18.064-23.894,15.827-10.091-1.9-18.832-6.772-27.385-12.1Q1110.8,612.764,1107.888,610.965Z" transform="translate(69.738 13.918)" fill="#6daab5"/>
      <path id="Path_308" data-name="Path 308" d="M973.411,571.839c1.07,3.744-.6,7.283-1.044,10.87-.965,7.832-2.142,15.631-2.525,23.526a33.091,33.091,0,0,1-.667,3.993c-3.559,3.695-7,7.515-10.711,11.049-3.6,3.431-7.81,6.039-12.854,6.732-7.829,1.075-14.048-2.15-18.061-9.084-4.887-8.446-6.12-17.866-6.994-27.295-1.482-15.96-1.011-31.963.029-47.921,1.013-15.573,2.206-31.145,4.639-46.583a7.707,7.707,0,0,1,.59-1.532c3.143.472,6.33.754,9.414,1.476,2.536.593,5.474-.382,7.605,1.845a503.694,503.694,0,0,0-5.454,59.506c-.523,14.645-.24,29.172,2.294,43.612.531,3.022.851,7.324,3.375,8.167,2.686.9,5.147-2.714,7.2-4.925,9-9.688,15.727-20.98,22.423-32.282C972.906,572.6,973.164,572.224,973.411,571.839Z" transform="translate(0 17.642)" fill="#6daab5"/>
      <path id="Path_309" data-name="Path 309" d="M1003.251,658.5l17.265,2.782q-.012,34.514-.026,69.03l-17.37.044q.037-32.164.077-64.33C1003.2,663.517,1003.232,661.009,1003.251,658.5Z" transform="translate(31.151 78.413)" fill="#6daab5"/>
      <path id="Path_310" data-name="Path 310" d="M1049.532,662.608a115.5,115.5,0,0,0,17.5-2.1q.006,34.549.014,69.1l-17.9.058q.07-26.183.151-52.368C1049.315,672.4,1049.449,667.5,1049.532,662.608Z" transform="translate(48.32 79.162)" fill="#6daab5"/>
      <path id="Path_311" data-name="Path 311" d="M1051.381,710.891l17.9-.058c7.532.033,15.066.036,22.6.11,5.642.055,9.485,3.514,9.562,8.491.08,5.112-3.812,8.738-9.624,8.761q-19.521.078-39.043.012c-5.327-.01-9.1-3.114-9.578-7.771C1042.7,715.628,1045.888,711.908,1051.381,710.891Z" transform="translate(46.082 97.936)" fill="#4c5d71"/>
      <path id="Path_312" data-name="Path 312" d="M1011.69,710.845l17.37-.044c6.03.8,8.822,3.589,8.82,8.812,0,4.979-3.232,8.54-8.2,8.575q-20.569.142-41.139.008c-5.2-.03-8.422-3.516-8.4-8.7.022-5.135,3.291-8.465,8.583-8.533C996.38,710.861,1004.036,710.878,1011.69,710.845Z" transform="translate(22.579 97.924)" fill="#4c5d71"/>
      <path id="Path_313" data-name="Path 313" d="M1126.522,492.725c-3.475,2.931-7.755,4.469-11.621,6.722-1.119.652-2.666.8-3,2.426-4.129-7.372-9.124-14.177-13.894-21.127-2.189-3.191-2.729-6.51-.792-9.953,1.889-3.354,4.961-4.5,8.676-4.2a7.38,7.38,0,0,1,5.745,3.3C1116.7,477.432,1122.382,484.576,1126.522,492.725Z" transform="translate(65.807 6.806)" fill="#4c5d71"/>
      <path id="Path_314" data-name="Path 314" d="M941.148,506.138c-2.131-2.227-5.069-1.252-7.605-1.845-3.084-.722-6.271-1-9.414-1.476a130.562,130.562,0,0,1,4.784-20.6,8.258,8.258,0,0,1,10.3-5.656c4.887,1.387,7.388,5.691,6.232,10.971-.8,3.659-1.821,7.27-2.676,10.918C942.168,501,941.683,503.574,941.148,506.138Z" transform="translate(1.684 10.42)" fill="#4c5d71"/>
      <path id="Path_315" data-name="Path 315" d="M1164.3,624.884a4.813,4.813,0,0,1-.546-1.6c.236-5.8-.5-11.562-.732-17.341-.04-.989-.266-2.084.711-2.845a6.212,6.212,0,0,1-.831-2.555c-1.135-5.393-.562-10.891-1.087-16.338-1.579-16.33-3.824-32.51-8.414-48.294-6.481-22.283-17.105-42.15-33.955-58.44-8.135-7.866-17.6-13.626-27.742-18.425a11.82,11.82,0,0,1-5.48-2.072,61.431,61.431,0,0,1-12.669-5.378q-2.966-1.067-5.93-2.135c-5.952-2.031-11.86-.972-17.865-.059-7.5,1.141-14.792,2.914-21.391,6.639-16.368,9.243-27.395,23.545-36.224,39.658-12.353,22.548-20.388,46.748-26.73,71.577-1.885,7.379-2.629,15.025-5.33,22.2,1.07,3.744-.6,7.283-1.044,10.87-.965,7.832-2.142,15.631-2.525,23.526a33.357,33.357,0,0,1-.667,3.993c.147,5.6-.574,11.186-.524,16.761.119,13.222.052,26.475,1.907,39.619,1.725,12.215,6.926,22.523,16.476,30.59,9.6,8.111,20.737,13.233,32.463,17.27,4.935,1.7,9.934,3.207,14.9,4.8l17.265,2.782c15.329,2.2,30.744,2.408,46.185,2.075a115.485,115.485,0,0,0,17.5-2.1,86.737,86.737,0,0,0,29.847-10.537c21.628-12.669,33.778-31.046,33.921-56.686C1165.881,656.567,1164.226,640.755,1164.3,624.884Zm-134.135-100c.03-2.855,2.017-4.744,5.024-4.78s4.976,1.878,4.922,4.759c-.054,2.9-1.826,4.81-4.56,4.911A5.055,5.055,0,0,1,1030.169,524.888Zm42.169,4.911c-3.043-.018-4.749-1.8-4.729-4.94a4.772,4.772,0,0,1,4.811-5.028,4.9,4.9,0,0,1,4.825,5.1A4.6,4.6,0,0,1,1072.338,529.8Z" transform="translate(13.322 0)" fill="#7abdcd"/>
      <path id="Path_316" data-name="Path 316" d="M1018.3,538.968a29.353,29.353,0,0,1-8.518-5.614c-1.258-1.159-1.823-2.459-.573-3.857,1.2-1.339,2.423-.71,3.551.306,8.807,7.935,18.511,8.349,28.846,3.415.515-.246,1.042-.466,1.549-.725,1.276-.651,2.5-.693,3.246.687a2.3,2.3,0,0,1-1.134,3.417C1036.6,541.079,1027.687,542.8,1018.3,538.968Z" transform="translate(33.159 30.004)" fill="#516075"/>
      <path id="Path_317" data-name="Path 317" d="M1019.882,500.6c5.994-.069,9.951,3.756,9.844,9.518-.107,5.8-3.652,9.619-9.122,9.822-5.882.22-10.827-4.273-10.769-9.781C1009.9,504.449,1013.869,500.671,1019.882,500.6Z" transform="translate(23.656 14.509)" fill="#516075"/>
      <path id="Path_318" data-name="Path 318" d="M1017.758,504.122a3.852,3.852,0,0,1,4.215,4.075,3.932,3.932,0,0,1-3.9,4.2,4.322,4.322,0,0,1-4.61-4.188A4,4,0,0,1,1017.758,504.122Z" transform="translate(29.982 20.66)" fill="#83baca" opacity="0.9"/>
      <path id="Path_319" data-name="Path 319" d="M1046.778,500.4a9.855,9.855,0,0,1,9.7,10.258c-.047,5.953-3.951,9.824-9.868,9.788-6.118-.036-9.551-3.623-9.509-9.935C1037.145,504.627,1041.176,500.411,1046.778,500.4Z" transform="translate(42.957 14.395)" fill="#516075"/>
      <path id="Path_320" data-name="Path 320" d="M1044.552,504.122a3.87,3.87,0,0,1,4.239,4.1,3.952,3.952,0,0,1-3.927,4.227,4.35,4.35,0,0,1-4.636-4.211A4.027,4.027,0,0,1,1044.552,504.122Z" transform="translate(48.461 20.954)" fill="#83baca"/>
    </g>
    <g id="Group_249" data-name="Group 249" transform="translate(-41.839 15.51) rotate(-19)">
      <path id="Path_304" data-name="Path 304" d="M119.819,162.575a19.608,19.608,0,0,0-11.929-.4c.229-.245.485-.456.7-.718a21.057,21.057,0,0,0,3.6-19.3,1.241,1.241,0,0,0-.166-.288,1.084,1.084,0,0,0-1.222-1.066A25.13,25.13,0,0,0,89.2,158.124a36.851,36.851,0,0,0-12.571-16.939,1.012,1.012,0,0,0-1.09-.134,1.08,1.08,0,0,0-.11.061,1.108,1.108,0,0,0-.214.16,1.126,1.126,0,0,0-.156.115c-2.02,2.267-3.071,5.648-3.841,8.514a1.164,1.164,0,0,0,.27,1.138,1.23,1.23,0,0,0,.636.458A21.668,21.668,0,0,1,86.7,166.518c-8-1.334-14.816-6.387-23.473-5.31-8.351,1.038-14.851,6.8-18.319,14.3-8.946,19.335,1.371,42.535,13.99,57.757,6.61,7.971,12.751,7.1,21.8,4.1,6.56-2.178,11.012-.921,17.393.681,3.539.889,7.514,1.815,11.18,1.235,8.79-1.386,14.46-12.07,17.624-19.37,4.657-10.75,8.254-21.788,7.91-33.635C134.518,176.453,129.463,166.237,119.819,162.575Zm-9.95-19.05c1.616,5.667.231,12.788-3.948,17.055-3.855,3.937-9.79,5.265-15.145,6.037a1.226,1.226,0,0,0,.045-.34C90,155.165,98.831,144.934,109.869,143.524ZM74.03,149.459a18.735,18.735,0,0,1,2.211-5.306c4.871,3.948,9.379,10.237,10.981,16.64A24.347,24.347,0,0,0,74.03,149.459Zm41.049,83.82c-8.619,8.051-18.215-.51-27.861-.11-4.614.192-8.678,2.607-13.077,3.7-7.867,1.958-12.5-3.725-16.419-9.658C51.111,217.191,45,206.333,44.215,194.1c-.781-12.26,4.557-27.624,18.139-30.137,9.733-1.8,17.181,4.7,26.43,5.4a1.187,1.187,0,0,0,.556.05,28.3,28.3,0,0,0,7.832-1.423,32.441,32.441,0,0,0,3.614-1.187c5.481-1.89,10.917-3.859,16.618-2.3,15.487,4.229,16.406,23.492,13.473,36.356C128.364,211.885,123.513,225.4,115.079,233.279Z" transform="translate(0 0)" fill="#516075" stroke="#516075" stroke-width="1"/>
      <path id="Path_305" data-name="Path 305" d="M59.823,157.388c-8.751,3.6-13.171,14.631-11.7,23.525.273,1.642,2.771.945,2.5-.688-1.214-7.335,2.557-17.319,9.889-20.337C62.032,159.263,61.366,156.754,59.823,157.388Z" transform="translate(5.427 14.174)" fill="#516075" stroke="#516075" stroke-width="1"/>
      <path id="Path_306" data-name="Path 306" d="M49.5,172.871a1.3,1.3,0,0,0,0,2.591A1.3,1.3,0,0,0,49.5,172.871Z" transform="translate(5.774 27.574)" fill="#516075" stroke="#516075" stroke-width="1"/>
    </g>
    <g id="Group_250" data-name="Group 250" transform="translate(-693.524 -22.013)">
      <path id="Path_346" data-name="Path 346" d="M959.7,54.336c-4.189,27.088-8.375,53.7-12.352,80.349-.631,4.224-2.161,5.764-6.637,5.531-8.4-.438-16.837-.13-25.259-.187-1.5-.011-3.339.508-4.136-1.449-.713-1.751.384-3,1.4-4.256a22.5,22.5,0,0,0,5.181-13.535c.073-2,1.206-3.157,2.249-4.531,4.711-6.2,4.715-13.236-.245-19.191a8.789,8.789,0,0,1-2.074-5.074c-1.183-10.87-6.14-19.706-15.342-25.653-4.434-2.865-3.14-7.241-4.136-11.008-.336-1.269,1.315-.971,2.123-.971C920.01,54.33,939.542,54.336,959.7,54.336Z" transform="translate(37.159 20.333)" fill="none" stroke="#516075" stroke-miterlimit="10" stroke-width="3"/>
      <path id="Path_347" data-name="Path 347" d="M900.274,86.722c-11.91,0-23.822-.138-35.728.076-4.019.075-4.409-1.047-3.279-4.642,4-12.73,12.975-20.267,26.243-21.194a182.866,182.866,0,0,1,27.13,0c12.7,1,22.148,9.242,25.584,21.422.954,3.379.422,4.462-3.27,4.407C924.73,86.608,912.5,86.722,900.274,86.722Zm-1.665-17.643a2.484,2.484,0,0,0-2.517-2.437,2.357,2.357,0,0,0-2.635,2.622,2.3,2.3,0,0,0,2.425,2.364A2.732,2.732,0,0,0,898.609,69.079ZM889.6,80.288a2.482,2.482,0,0,0-2.735-2.509,2.314,2.314,0,0,0-2.332,2.452,2.642,2.642,0,0,0,2.767,2.591C888.757,82.845,889.392,81.687,889.6,80.288Zm29.661-3.19c-1.5-.055-2.484.548-2.441,2.163a2.532,2.532,0,0,0,2.721,2.67,2.35,2.35,0,0,0,2.2-2.624C921.749,77.692,920.74,77.117,919.263,77.1ZM881,69.432c-.245-1.372-.986-2.507-2.427-2.288a2.8,2.8,0,0,0-2.62,2.783,2.34,2.34,0,0,0,2.521,2.251C880.1,72.171,880.958,71.091,881,69.432Zm30.717-4.994c-1.267.369-2.469.984-2.328,2.475a2.7,2.7,0,0,0,2.737,2.635c1.659-.046,2.389-1.407,2.234-2.958C914.213,65.146,913.084,64.567,911.716,64.439Zm-5.473,14.836a2.576,2.576,0,0,0-2.626-2.368,2.291,2.291,0,0,0-2.547,2.681,2.4,2.4,0,0,0,2.463,2.395C905.1,81.88,905.891,80.655,906.242,79.275Z" transform="translate(2.908 25.917)" fill="none" stroke="#516075" stroke-miterlimit="10" stroke-width="2"/>
      <path id="Path_348" data-name="Path 348" d="M903.82,95.6c-11.761,0-23.522.071-35.283-.029-6.662-.057-10.416-3.012-10.949-8.233-.463-4.541,1.6-7.7,5.613-9.514,4.264-1.926,8.16-.845,10.995,2.76,5.607,7.125,5.728,7.22,11.245.22a9.4,9.4,0,0,1,8.135-3.759c14.939.05,29.879-.027,44.818.01,7.149.017,11.34,3.568,11.281,9.366-.059,5.76-4.229,9.114-11.528,9.141-11.442.04-22.886.01-34.327.01Z" transform="translate(0 40.884)" fill="#516075"/>
      <path id="Path_349" data-name="Path 349" d="M900.661,89.494c12.09,0,24.181.134,36.267-.073,4.134-.071,4.52,1.357,3.234,4.764a19.662,19.662,0,0,1-18.293,12.942q-21,.221-42,0a20.215,20.215,0,0,1-18.689-13.794c-1-2.949-.558-3.929,2.731-3.893C876.163,89.578,888.411,89.5,900.661,89.494Z" transform="translate(2.905 52.303)" fill="none" stroke="#516075" stroke-miterlimit="10" stroke-width="2"/>
      <path id="Path_350" data-name="Path 350" d="M945.814,61.291c7.5,0,14.479.019,21.462-.01,2.513-.011,5.1.134,5.4,3.279.334,3.436-2.2,3.939-4.913,3.979-5.217.078-10.433.26-15.65.271q-25.728.052-51.457,0c-1.558,0-3.281.449-4.6-.69-1.139-.986-2.769-1.848-2.29-3.811.451-1.842,1.418-3.127,3.593-3.106,3.8.034,7.6-.019,11.4-.04,8.883-.05,17.768-.166,26.65-.111a3.4,3.4,0,0,0,3.677-2.978c2.668-12.281,11.016-18.918,22.265-22.79a29.165,29.165,0,0,0,3.826-1.894c2.322-1.206,4.992-2.635,6.484.613,1.43,3.107-1.252,4.436-3.608,5.619-2.97,1.494-5.764,3.509-8.887,4.5C950.963,46.747,948.316,53.448,945.814,61.291Z" transform="translate(32.945)" fill="#516075"/>
      <path id="Path_351" data-name="Path 351" d="M883,66.132a2.732,2.732,0,0,1-2.727,2.549,2.3,2.3,0,0,1-2.425-2.364,2.357,2.357,0,0,1,2.635-2.622A2.484,2.484,0,0,1,883,66.132Z" transform="translate(18.516 28.863)" fill="#516075"/>
      <path id="Path_352" data-name="Path 352" d="M878.248,72.033c-.21,1.4-.845,2.557-2.3,2.534a2.642,2.642,0,0,1-2.767-2.591,2.314,2.314,0,0,1,2.332-2.452A2.482,2.482,0,0,1,878.248,72.033Z" transform="translate(14.262 34.171)" fill="#516075"/>
      <path id="Path_353" data-name="Path 353" d="M892.521,69.168c1.472.017,2.481.592,2.479,2.207A2.35,2.35,0,0,1,892.8,74a2.532,2.532,0,0,1-2.721-2.67C890.031,69.714,891.017,69.11,892.521,69.168Z" transform="translate(29.656 33.849)" fill="#516075"/>
      <path id="Path_354" data-name="Path 354" d="M873.734,66.256c-.038,1.661-.9,2.741-2.525,2.748a2.34,2.34,0,0,1-2.521-2.251,2.8,2.8,0,0,1,2.62-2.783C872.75,63.75,873.491,64.885,873.734,66.256Z" transform="translate(10.171 29.091)" fill="#516075"/>
      <path id="Path_355" data-name="Path 355" d="M888.523,62.54c1.363.13,2.492.709,2.637,2.154.155,1.552-.575,2.913-2.234,2.958a2.7,2.7,0,0,1-2.737-2.635C886.048,63.526,887.25,62.911,888.523,62.54Z" transform="translate(26.107 27.813)" fill="#516075"/>
      <path id="Path_356" data-name="Path 356" d="M887.013,71.433c-.352,1.38-1.141,2.6-2.71,2.708a2.4,2.4,0,0,1-2.463-2.395,2.291,2.291,0,0,1,2.547-2.681A2.576,2.576,0,0,1,887.013,71.433Z" transform="translate(22.137 33.758)" fill="#516075"/>
    </g>
  </g>
</svg>
