<svg width="580.412" height="521.589" xmlns="http://www.w3.org/2000/svg"><g data-name="Group 1059"><path fill="#fff" d="m199.18 84.564 25.594-8.316c110.004-35.742 229.423 28.353 259.664 121.425.635 1.954 63.373 74.126 63.922 76.073 25.964 92.288-94.927 139.796-202.62 174.788l-25.596 8.316C210.14 492.592 93.884 438.228 60.482 335.425S89.176 120.307 199.18 84.565Z" data-name="Path 1347"/><g fill="#903" data-name="Group 912"><path d="M128.216 319.852h72.7a5.3 5.3 0 0 1 5.3 5.3 5.3 5.3 0 0 1-5.3 5.3h-72.7a5.3 5.3 0 0 1-5.3-5.3 5.3 5.3 0 0 1 5.3-5.3Z" data-name="Path 211"/><path d="M183.711 302.64a5.3 5.3 0 0 1 3.751 1.553l17.2 17.213a5.3 5.3 0 0 1 0 7.5l-17.2 17.215a5.3 5.3 0 0 1-7.5 0 5.3 5.3 0 0 1 0-7.493l13.459-13.472-13.459-13.466a5.3 5.3 0 0 1 0-7.5 5.288 5.288 0 0 1 3.749-1.55Z" data-name="Path 212"/></g><text fill="#903" font-family="Lato-Black, Lato" font-size="30" font-weight="800" letter-spacing=".1em" transform="translate(123.268 255.837)"><tspan x="0" y="0">SMERTER</tspan></text><g fill="none" stroke="#353f4f" data-name="Group 911"><path stroke-linecap="round" stroke-linejoin="round" stroke-width="3" d="M375.86 327.983c4.195 16.372.948 25.313-1.02 42.1a326.959 326.959 0 0 0-.708 69.429 59.81 59.81 0 0 0-19.913-.274" data-name="Path 368"/><path stroke-linecap="round" stroke-linejoin="round" stroke-width="3" d="M405.579 327.859c.956 40.812-6.258 73.224-5.216 114.034q11.034-1.008 22.118-1.3" data-name="Path 369"/><path stroke-linecap="round" stroke-width="2.149" d="m385.599 164.438-5.659 15.913h9.47l-5.422 15.552" data-name="Path 370"/><path stroke-linecap="round" stroke-width="2.149" d="m356.081 166.847.053 16.891 8.91-3.2.154 16.464" data-name="Path 371"/><path stroke-linecap="round" stroke-width="2.149" d="m418.261 167.964-11.631 12.244 8.652 3.843-11.269 12.013" data-name="Path 372"/><path stroke-miterlimit="10" stroke-width="3.76" d="M339.714 274.043c3.432 13.45 10.885 25.532 19.242 36.614 6.684 8.86 14.883 17.755 25.8 19.771 9.672 1.784 19.567-2.318 27.541-8.078 19.528-14.1 30.683-39.466 26.6-63.206-4.569-26.569-32.136-52.772-60.409-50.587-29.515 2.28-45.203 40.294-38.774 65.486Z" data-name="Path 373"/><g stroke-linecap="round" stroke-linejoin="round" stroke-width="1.612" data-name="Group 180"><path d="M399.458 249.164a30.412 30.412 0 0 0 11.161-4.114" data-name="Path 374"/><path d="M400.212 253.116a25.89 25.89 0 0 0 8.162.347" data-name="Path 375"/></g><g stroke-linecap="round" stroke-linejoin="round" stroke-width="1.612" data-name="Group 181"><path d="M376.617 249.164a30.415 30.415 0 0 1-11.161-4.114" data-name="Path 376"/><path d="M375.864 253.116a25.9 25.9 0 0 1-8.164.347" data-name="Path 377"/></g><path stroke-linecap="round" stroke-linejoin="round" stroke-width="1.612" d="M421.044 288.622s-34.912-29.157-64.07 0" data-name="Path 378"/><path stroke-linecap="round" stroke-linejoin="round" stroke-width="3" d="m436.143 287.379 11.345-4.386c3.986-1.541 8.071-3.143 11.238-6.013s5.255-7.341 4.118-11.46a16.417 16.417 0 0 0-3.622-5.948 131.661 131.661 0 0 0-49.115-36.321" data-name="Path 379"/><path stroke-linecap="round" stroke-linejoin="round" stroke-width="3" d="M347.703 292.194c-7.344-1.078-14.751-2.171-21.707-4.757s-13.521-6.819-17.612-13.013a17.941 17.941 0 0 1-3.182-8.814 17.739 17.739 0 0 1 3.04-10.24c5.355-8.448 15.029-12.938 24.174-16.987l26.162-11.584" data-name="Path 380"/></g></g></svg>