<svg xmlns="http://www.w3.org/2000/svg" xmlns:xlink="http://www.w3.org/1999/xlink" width="1840.641" height="2151.779" viewBox="0 0 1840.641 2151.779">
  <defs>
    <clipPath id="clip-path">
      <rect id="Rectangle_362" data-name="Rectangle 362" width="948.922" height="1058.047" fill="#323f51"/>
    </clipPath>
    <clipPath id="clip-path-2">
      <rect id="Rectangle_367" data-name="Rectangle 367" width="787.201" height="890.531" fill="none"/>
    </clipPath>
  </defs>
  <g id="Group_1052" data-name="Group 1052" transform="translate(-2379.294 12878.5)">
    <path id="Path_1304" data-name="Path 1304" d="M584.809,0h75.143C982.932,0,1244.76,345.95,1244.76,691.9c0,7.265,104.341,318.45,104.115,325.592C1338.193,1356.146,976.15,1383.8,659.952,1383.8H584.809C261.828,1383.8,0,1074.025,0,691.9S261.828,0,584.809,0Z" transform="matrix(-0.883, -0.469, 0.469, -0.883, 3570.281, -10726.721)" fill="#fff"/>
    <g id="Group_881" data-name="Group 881" transform="translate(2863 -12272.094)">
      <rect id="Rectangle_360" data-name="Rectangle 360" width="895.246" height="1017.568" transform="translate(19.009 19.212)" fill="#fff6ee"/>
      <rect id="Rectangle_361" data-name="Rectangle 361" width="784.423" height="891.597" transform="translate(74.423 77.443)" fill="#f9ddbe"/>
      <g id="Group_873" data-name="Group 873">
        <g id="Group_872" data-name="Group 872" clip-path="url(#clip-path)">
          <path id="Path_1288" data-name="Path 1288" d="M948.924,1058.047H0V0H948.924ZM34.667,1023.382h879.59V34.663H34.667Z" fill="#2e3552"/>
        </g>
      </g>
    </g>
    <text id="Ida_25_år_" data-name="Ida (25 år)" transform="translate(3300.066 -11151.757)" fill="#323f51" font-size="75" font-family="FiraSans-Bold, Fira Sans" font-weight="700"><tspan x="0" y="80">Ida (25 år)</tspan></text>
    <line id="Line_54" data-name="Line 54" y1="638" transform="translate(3370.5 -12878.5)" fill="none" stroke="#323f51" stroke-width="15"/>
    <g id="Group_884" data-name="Group 884" transform="translate(2934 -12194.172)">
      <rect id="Rectangle_365" data-name="Rectangle 365" width="787.201" height="890.531" fill="#fff"/>
      <rect id="Rectangle_366" data-name="Rectangle 366" width="787.201" height="890.531" fill="#ebf3fa"/>
      <g id="Group_883" data-name="Group 883">
        <g id="Group_882" data-name="Group 882" clip-path="url(#clip-path-2)">
          <path id="Path_1305" data-name="Path 1305" d="M666.776,258.787V624.939l-267.645-.5-19.042-.046h-.044l-50.074-.085-30.448-.064-106.88-.2-99.937-.2c2.055-5.734,5.738-15.624,10.971-28.629,4.007-10.04,8.938-21.944,14.741-35.227,7.161-16.449,15.622-35.016,25.293-54.838,6.8-13.913,14.2-28.457,22.162-43.322.713-1.345,1.451-2.7,2.184-4.069,6.688-12.38,13.785-24.974,21.229-37.568,21.879-36.981,46.895-74.073,74.531-106.838a476.11,476.11,0,0,1,40.768-42.91,320.836,320.836,0,0,1,43.239-33.866c.713-.453,1.428-.91,2.14-1.34a219.472,219.472,0,0,1,32.395-17.077c28.48-12.074,58.387-16.835,89.4-11.6,96.794,16.339,135.359,26.965,195.02,52.217" transform="translate(120.425 265.592)" fill="#c6e3f4"/>
          <path id="Path_1306" data-name="Path 1306" d="M787.2,27.627V704.7L548.964,735.646l-2.271.3-24.452,3.179-3.83.476-26.834,3.508-4.285.538L448.6,748.693l-9.955,1.276-38.152,4.957-65.723,8.548L238.843,775.94,209.5,779.747l-5.2.671L0,806.97V246.3L180.024,196.31l49.187-13.674,7.187-1.991.324-.087,4.026-1.127,8.442-2.336,41.287-11.472,35.057-9.736,9.8-2.727h.023l.131-.041,46.656-12.966h.021l21.162-5.885,8.982-2.488,3.225-.91L561.885,90.23Z" transform="translate(0 35.886)" fill="#f8fbff"/>
          <path id="Path_1307" data-name="Path 1307" d="M0,659.44V179.183c49.709-2.554,100.475-1.474,148.3,4.931h.021c4.784.651,9.5,1.343,14.219,2.076a484.528,484.528,0,0,1,64.075,14.479c3.635,1.106,7.205,2.253,10.778,3.442a.169.169,0,0,1,.108.021c3.375,1.126,6.708,2.294,10,3.529.021-.021.041.021.041.021,1.559.563,3.117,1.127,4.63,1.731,2.338.887,4.653,1.816,6.95,2.747,22.374,9.178,42.823,20.475,60.633,34.149,21.748,16.7,39.582,36.984,52.24,61.394q6.393,12.332,12.249,26.4c16.36,39.234,29.645,87.922,40.464,141.16,2.446,12.031,4.764,24.3,6.971,36.722a9.255,9.255,0,0,0,.2,1.147,5.692,5.692,0,0,0,.106.607q1.007,5.873,2.014,11.771,2.431,14.511,4.653,29.257c.864,5.715,1.708,11.426,2.529,17.183,3.442,24.194,6.495,48.669,9.221,73.1.52,4.8,1.039,9.587,1.536,14.392Z" transform="translate(0 231.091)" fill="#a8d29f"/>
          <path id="Path_1308" data-name="Path 1308" d="M33.284,0,0,11.1V0Z" transform="translate(-0.001 -0.001)" fill="#f8fbff"/>
          <path id="Path_1309" data-name="Path 1309" d="M414.673,0h71.413V416.247c-3.007-.389-6.058-.756-9.155-1.126-76.6-9.09-132.026-29.324-170.587-55.872,8.98-30.97,34.949-56.937,34.949-56.937-30.036,6.3-51.98,22.245-63.82,32.85-58.035-58.992-54.7-137.348-23.606-197.379a124.857,124.857,0,0,1,6.9-11.665c29-43.258,83.876-67.3,129-103.44,16.1,6.86,39.968,20.385,54.012,43.757,0,0-7.637-41.287-30.425-65.05.453-.455.887-.931,1.317-1.384" transform="translate(301.114)" fill="#a8d29f"/>
          <path id="Path_1310" data-name="Path 1310" d="M344.575,625.915c-.883-13.189-29.719-45.72-29.719-45.72-19.422-45.074-37.492-150.848-37.492-150.848-3.311-123.543-17.307-195.075-28.634-233.611-7.23-24.652-13.4-35.8-14.978-38.439-.251-.423-.386-.635-.386-.635a4.526,4.526,0,0,0-.441.423,143.878,143.878,0,0,0-11.442,11.92c-77.685,90.32-11.325,234.979-9.288,268.036,2.117,34.609,75.751,148.133,75.751,148.133,2.538,8.382,3.722,14.1,1.573,21.162-2.536,8.325,10.38,17.383,11.948,25.146s5.7,7.394,7.283,5.067S305.214,619.692,304.7,616s7.867,8.7,9.794,16.868-6.083,28.517,6.736,25.68,24.222-19.443,23.342-32.629" transform="translate(238.826 203.502)" fill="#f4a671"/>
          <path id="Path_1311" data-name="Path 1311" d="M156.18,85.311s-.637,13.73,7.6,16.419-8.486,32.314-7.171,52.325S166.77,182.1,166.77,182.1s-4.251-11.005-1.874-17.812c0,0-.379,14.157,9.959,21.3s7.559,13.316,7.559,13.316,23.365-7,24.02-24.521c0,0,1,7.922.2,11.2,0,0,20.176-15.15,21.139-32.6s-15.886-32.181-23.553-32.45S179.421,105.2,179.885,99.5s-23.7-14.192-23.7-14.192" transform="translate(202.861 110.817)" fill="#2c3a64"/>
          <path id="Path_1312" data-name="Path 1312" d="M294.454,48.428c-13.594-20.643-67.574-9.09-120.563,25.808S88.966,154.159,102.563,174.8,170.136,183.891,223.126,149s84.927-79.924,71.328-100.567" transform="translate(129.159 49.607)" fill="#e2af64"/>
          <path id="Path_1313" data-name="Path 1313" d="M329.511,476.152H143.3c-.887-4.934-1.8-9.824-2.683-14.651-2.729-14.7-5.345-28.825-7.856-42.131l7.7-2.49,83.292-26.857,4.285-13.589,7.205-22.873,5.736-18.222,18.546-4.89,16.553-4.352a.21.21,0,0,1,.11-.021L303,319a42.929,42.929,0,0,1,1.819,4.586c2.055,5.929,5.69,18.351,10.019,41.57,4.046,21.661,8.679,52.736,13.18,96.686.3,2.9.6,5.842.906,8.876q.166,1.721.326,3.437c.085.671.175,1.322.26,1.993" transform="translate(172.453 414.379)" fill="#2b478b"/>
          <path id="Path_1314" data-name="Path 1314" d="M329.511,479.381H143.3c-.887-4.934-1.8-9.824-2.683-14.651-2.729-14.7-5.345-28.825-7.856-42.131l7.7-2.49,83.292-26.857,4.285-13.589,7.205-22.873,5.736-18.222,18.438-5.5,5.952-1.752,49.7-14.8.368,5.715c.5,6.945,1.538,20.946,3.681,45.616,1.945,22.546,4.8,54.033,8.936,97.226q.421,4.352.864,8.876.166,1.721.326,3.437c.085.671.175,1.322.26,1.993" transform="translate(172.453 411.149)" fill="#233862"/>
          <path id="Path_1315" data-name="Path 1315" d="M267.529,72.786,172.276,217.307s-10.89-21.335-22.985-13.681c-18.87,11.925-59.41-28.889-50.957-86.513.559-3.766,1.221-7.345,1.954-10.745C119.293,78.984,140.4,48.5,155.544,27.061,199.286.644,267.529,72.786,267.529,72.786" transform="translate(126.247 27.597)" fill="#2c3a64"/>
          <path id="Path_1316" data-name="Path 1316" d="M302.388,261.237c-13.329,12.212-30.639,23.142-53.079,31.639-84.115,31.875-127.377-37-146.728-85.681,10.922-8.384,21.861-11.394,28.195-13.04,6.175-1.593,12.709-2.984,18.137-4,8.736-8.8,19.111-41.34,15.87-89.24l4.232.538L240,110.884s-.175,22.183,1.087,42.954c1,16.254,2.906,31.659,6.462,35.009,5.5.43,8.807.749,8.807.749a.169.169,0,0,0,.044.06,444.8,444.8,0,0,1,45.984,71.581" transform="translate(133.251 131.093)" fill="#ffb27d"/>
          <path id="Path_1317" data-name="Path 1317" d="M202.473,110.584s-.189,22.164,1.085,42.954c-39.3,1.391-62.321-33.078-72.08-52.378Z" transform="translate(170.787 131.405)" fill="#ed985f"/>
          <path id="Path_1318" data-name="Path 1318" d="M225.544,200.924s-92.727,7.439-96.472-50.378-18.236-95.8,40.812-102.992,71.99,14.125,77.931,33.117,1.752,116.83-22.27,120.253" transform="translate(162.074 59.914)" fill="#ffb27d"/>
          <path id="Path_1319" data-name="Path 1319" d="M258.894,55.124c-15.456-16.477-26.054-11.973-31.8-6.357-52.513-24.661-82.582,18.659-82.582,18.659-3.57,41.881-31.974,67.551-31.974,67.551s17.585,9.378,55.953-3.136c11.718-3.826,21.817-12.969,30.2-23.813-14.1,27.464-34.372,47.895-34.372,47.895,45.221-24.5,59.806-90.492,61.236-97.463,5.989,4.727,17.863,15.072,21.958,25.691,5.566,14.428,9.578,44.6,18.344,43.014,0,0,16.212-47.327-6.966-72.041" transform="translate(146.189 53.487)" fill="#2c3a64"/>
          <path id="Path_1320" data-name="Path 1320" d="M105.271,153.878S62.147,68.041,122.408,34.11,226.779,13.5,259.931,55Z" transform="translate(117.332 19.281)" fill="#edbd77"/>
          <path id="Path_1321" data-name="Path 1321" d="M363.826,35.7c-11.447-18.35-49.251-17.052-96.166.131q-5.911,2.141-11.989,4.651h-.023a434.573,434.573,0,0,0-64.162,33.177c-27.222,16.985-50.918,35.574-69.528,53.732-1.927,1.881-3.786,3.766-5.607,5.626-26.1,26.944-40.51,52.5-37.869,70.027a22.024,22.024,0,0,0,3.117,8.743c7.964,12.746,28.673,15.992,56.371,10.994a239.31,239.31,0,0,0,39.255-10.906h.023c4.393-1.6,8.83-3.334,13.373-5.193-.2-.216-.391-.414-.584-.609-.736-.754-1.515-1.49-2.338-2.186l-.844-.646a16.774,16.774,0,0,0-2.835-1.71c-.193-.085-.345-.17-.54-.258h-.046a1.052,1.052,0,0,1-.149-.067,12.052,12.052,0,0,0-1.927-.584,3.612,3.612,0,0,0-.474-.087,3.819,3.819,0,0,0-.5-.062,6.914,6.914,0,0,0-.972-.067h-.152c-.239,0-.453.021-.692.041-.258.025-.5.044-.756.087-.3.064-.609.131-.91.216-.283.087-.563.175-.844.283a8.421,8.421,0,0,0-1.018.453c-.345.175-.69.366-1.035.584a12.871,12.871,0,0,1-3.552,1.559,14.975,14.975,0,0,1-4.437.5h-.023c-.255,0-.538-.023-.818-.044-.347-.044-.694-.064-1.039-.108-.347-.064-.717-.11-1.085-.172-.582-.131-1.166-.26-1.752-.432h-.041c-.476-.154-.952-.3-1.428-.478-.455-.152-.887-.324-1.343-.494-.044-.025-.108-.046-.152-.069-.368-.152-.715-.3-1.081-.478-.692-.343-1.432-.708-2.143-1.1-.368-.193-.717-.412-1.085-.625s-.713-.455-1.081-.692-.713-.476-1.081-.717c-.368-.26-.715-.517-1.083-.8-.368-.262-.715-.543-1.085-.825h-.016a27.681,27.681,0,0,1-7.449-2.269c-.234-.131-.474-.239-.69-.368a.168.168,0,0,0-.09-.046,15.286,15.286,0,0,1-5.083-4.393c-.175-.26-.347-.52-.52-.777a15.379,15.379,0,0,1-1-1.86,17.562,17.562,0,0,1-1-9.373v-.021c2.184-16.251,21.252-39.752,50.1-61.631.625-.478,1.255-.952,1.883-1.428,6.253-4.651,12.941-9.24,19.994-13.635A262.892,262.892,0,0,1,255.171,76.93h.3c5.108-1.862,9.759-3.419,14.456-4.653h.021c1.3-.347,2.6-.648,3.853-.952h.023a100.525,100.525,0,0,1,14.932-2.4h.021c.37-.044.736-.067,1.081-.09,12.488-.821,21.707,1.818,25.732,8.29,3.483,5.6,2.724,13.4-1.559,22.4a.385.385,0,0,1,.021.152c.368,1.448.671,2.922.908,4.393.131.648.216,1.3.306,1.968.018.023.018.041.018.087.067.5.129,1.018.175,1.536v.023c.044.237.064.5.108.733,0,.044.023.09.023.133,0,.064.021.126.021.193.041.517.085,1.037.131,1.538.021.28.041.538.062.8.023.543.067,1.083.087,1.623.044.738.067,1.474.085,2.184a97.943,97.943,0,0,1-.3,10.217c-.064.671-.108,1.32-.172,1.968-.021.2-.044.391-.067.584C355.473,91.1,375.9,55.051,363.826,35.7" transform="translate(101.543 29.149)" fill="#ffcf83"/>
          <path id="Path_1322" data-name="Path 1322" d="M383.248,226.234c-11.541-57.734-47.3-74.269-47.3-74.269s-5.943-9.007-39.159-10.424c-5.17-.214-10.819-1.283-17.114-1.786-1.258-.085-2.538-.184-3.858-.267a.341.341,0,0,0,.041.064c1.264,1.94,34.772,53.46,32.912,67.3-1.9,14.1-123.874,9.274-132.711,2.159-7.088-5.738-19.4-44-23.99-58.962-1.163-3.727-1.846-6.01-1.846-6.01s-42.593,7.43-62.624,24.02c0,0,15.327,16.822,25.567,37.5.968,1.973,1.894,3.936,2.754,5.945a87.525,87.525,0,0,1,4.467,12.925c1.464,5.752.14,11.677-2.963,18.049-2.789,5.83-7.118,12.086-12.1,18.875-3.281,4.409-6.819,9.086-10.419,14.079,2.533,8.417,5.837,18.507,9.5,29.912,7.531,23.473,16.5,52.46,22.9,83.681a79.794,79.794,0,0,1-.8,35.4,81.636,81.636,0,0,1-4.635,13.474c-3.046,6.819-3.8,16.21-7.21,25.022-13.939,36.1-30.029,83.2-13.907,107.8,10.755,31.443,259.817-44.92,243.053-77.889,0,0,9.929-172.987,16.783-226.571.223-1.966.407-3.862.508-5.77a82.963,82.963,0,0,0-.016-8.886c21.59-9.83,22.169-25.372,22.169-25.372" transform="translate(113.796 181.193)" fill="#f99746"/>
          <path id="Path_1323" data-name="Path 1323" d="M206.438,378.374c-35.871,11.493-70.8,16.429-98.509,18.433,3.416-8.812,5.941-16.8,8.984-23.617a81.633,81.633,0,0,0,4.635-13.474,79.8,79.8,0,0,0,.8-35.4c-6.4-31.216-23.4-84.471-30.935-107.942,20.125-44.885,40.922-20.406,40.922-20.406s60.822,27.28,86.713,77.565,18.341,94.923-12.615,104.84" transform="translate(118.75 245.905)" fill="#ed7d2b"/>
          <path id="Path_1324" data-name="Path 1324" d="M107.68,144.9s57.925,37.018,72.735,115.057l17.516-5.561s-6.78-55.709-73.779-112.924Z" transform="translate(139.874 183.773)" fill="#2b478b"/>
          <path id="Path_1325" data-name="Path 1325" d="M229.811,264.366l-18.341,1.2c3.674-67.661-30.282-113.852-40.32-125.961,6.292.506,11.994,1.115,17.111,1.791,48.035,69.5,41.549,122.968,41.549,122.968" transform="translate(222.321 181.347)" fill="#2b478b"/>
          <path id="Path_1326" data-name="Path 1326" d="M373.985,500.026,361.2,306.135s-12.424-88.164-12.608-103.571-12.626-22.919-12.626-22.919-91.309,4.814-117.046,6.262S195.77,202,195.77,202s11.221,46.846,12.355,51.667c17.33,73.623-81.752,118.607-81.752,118.607S110.3,413.865,97.831,453.7C76.456,522.007,95.546,620,95.546,620l.011,0c.517,8.419,1.124,21.273,1.773,37.177H302.848c.908-4.283,1.968-9.132,3.18-14.458,4.653-20.272,11.58-47.131,21.229-73.032,2.317-6.235,4.784-12.424,7.423-18.459,7.377-16.838,16.035-32.418,26.075-44.471.391-.474.435-.841.218-1.124Z" transform="translate(113.921 233.355)" fill="#2b478b"/>
          <path id="Path_1327" data-name="Path 1327" d="M139.209,195.714a7.692,7.692,0,1,1,9.658,5,7.689,7.689,0,0,1-9.658-5" transform="translate(180.359 241.212)" fill="#ed7d2b"/>
          <path id="Path_1328" data-name="Path 1328" d="M139.781,195.534a7.692,7.692,0,1,1,9.66,5,7.69,7.69,0,0,1-9.66-5" transform="translate(181.102 240.976)" fill="#f99746"/>
          <path id="Path_1329" data-name="Path 1329" d="M140.692,189.484a1.117,1.117,0,1,1,1.115,1.117,1.118,1.118,0,0,1-1.115-1.117" transform="translate(182.756 244.688)" fill="#2b478b"/>
          <path id="Path_1330" data-name="Path 1330" d="M143.867,189.488a1.118,1.118,0,1,1,1.115,1.12,1.117,1.117,0,0,1-1.115-1.12" transform="translate(186.88 244.695)" fill="#2b478b"/>
          <path id="Path_1331" data-name="Path 1331" d="M188.455,191.463a7.692,7.692,0,1,1,9.658,5,7.689,7.689,0,0,1-9.658-5" transform="translate(244.328 235.69)" fill="#ed7d2b"/>
          <path id="Path_1332" data-name="Path 1332" d="M189.028,191.282a7.692,7.692,0,1,1,9.658,5,7.685,7.685,0,0,1-9.658-5" transform="translate(245.072 235.455)" fill="#f99746"/>
          <path id="Path_1333" data-name="Path 1333" d="M189.939,185.234a1.117,1.117,0,1,1,1.113,1.117,1.115,1.115,0,0,1-1.113-1.117" transform="translate(246.727 239.167)" fill="#2b478b"/>
          <path id="Path_1334" data-name="Path 1334" d="M193.113,185.239a1.118,1.118,0,1,1,1.115,1.117,1.117,1.117,0,0,1-1.115-1.117" transform="translate(250.85 239.173)" fill="#2b478b"/>
          <path id="Path_1335" data-name="Path 1335" d="M102.4,90.1s-.637,13.732,7.6,16.417-8.486,32.314-7.173,52.327,10.164,28.045,10.164,28.045-4.251-11.008-1.874-17.817c0,0-.379,14.162,9.959,21.3s7.559,13.318,7.559,13.318,23.367-7,24.02-24.521c0,0,1,7.918.2,11.2,0,0,20.176-15.15,21.139-32.6s-15.886-32.183-23.553-32.455-24.792-15.327-24.33-21.022S102.4,90.1,102.4,90.1" transform="translate(133.005 117.041)" fill="#2c3a64"/>
          <path id="Path_1336" data-name="Path 1336" d="M156.17,102.668s13.817,8.377,23.65,7.4c9.736-.966,15.042-12.713,15.042-12.713a81.651,81.651,0,0,0-38.692,5.313" transform="translate(202.862 125.86)" fill="#fff2e9"/>
          <path id="Path_1337" data-name="Path 1337" d="M275.2,476.449c-8.628-5.3-18.208-1.356-26.668,3.308,3.081-3.416,2.708-6.233,2.225-7.925s-6.035,4.106-12,6.759-7.527,9.4-7.527,9.4c-2.154.08-10.925-4.782-18.716-9.38C178.7,456.71,119.632,362.385,117.922,354.2s74.041-81.6,97.063-108.742-13.9-106.6-49.69-92.614c0,0-103.312,122.018-137.5,190.76,0,0,35.63,77.535,148.015,146.9l-.166.138s31.862,20.1,46.607,24.995c15.337,5.083,37.066-5.722,45.888-7s27.195,6.281,32.611-.129-9.906-22.436-25.555-32.055" transform="translate(36.105 196.414)" fill="#ffb27d"/>
          <path id="Path_1338" data-name="Path 1338" d="M113.827,154.571l-46.41,45.34s10.6,66.949,80.841,75.692c0,0,57.652-46.159,23.2-94.238s-57.635-26.795-57.635-26.795" transform="translate(87.573 194.688)" fill="#f99746"/>
        </g>
      </g>
    </g>
  </g>
</svg>
