<svg width="1625.593" height="2066.382" xmlns="http://www.w3.org/2000/svg"><defs><clipPath id="Patientportræt_erik_svg__a"><path fill="#323f51" d="M0 0h948.922v1058.047H0z" data-name="Rectangle 362"/></clipPath><clipPath id="Patientportræt_erik_svg__b"><path fill="none" d="M0 0h535.688v817.071H0z" data-name="Rectangle 363"/></clipPath></defs><g data-name="Group 1053"><path fill="#fff" d="m518.931 578.696 66.679-21.665c286.598-93.122 626.073 161.137 733.216 490.887 2.25 6.924 191.212 273.454 193.224 280.326 95.404 325.876-217.291 456.617-497.872 547.783l-66.677 21.665c-286.602 93.123-614.87-126.655-733.216-490.885s18.044-734.988 304.646-828.11Z" data-name="Path 1290"/><g data-name="Group 875"><path fill="#fff6ee" d="M313.571 638.618h895.246v1017.568H313.571z" data-name="Rectangle 360"/><path fill="#7ec8d6" d="M368.985 696.849h784.423v891.597H368.985z" data-name="Rectangle 361"/><g data-name="Group 873"><g clip-path="url(#Patientportræt_erik_svg__a)" data-name="Group 872" transform="translate(294.562 619.406)"><path fill="#2e3552" d="M948.924 1058.047H0V0h948.924Zm-914.257-34.665h879.59V34.663H34.667Z" data-name="Path 1288"/><g data-name="Group 877"><g clip-path="url(#Patientportræt_erik_svg__b)" data-name="Group 876" transform="translate(321.234 151.016)"><path fill="#ffb27d" d="M188.776 233.46s45.069 67.879 35.618 130.923l66.333 158.988 122.524-180.853s-63.723-68.658-87.1-161.889Z" data-name="Path 1291"/><path fill="#ffb27d" d="M168.484 291.033s165.566 7.978 169.17-89.249 48.751-161.659-75.067-170.926c-101.828-7.618-135.936 33.736-145.209 65.9s-10.244 188.708 51.106 194.275" data-name="Path 1292"/><path fill="#35488b" d="M115.659 197.972s-33 124.921 21.607 142.855 199.938 4.665 200.811-148.715c0 0-76.492 44.021-112.9 42.684s-59.781-22.021-93.524-6.162c0 0-12.3-.874-16-30.661" data-name="Path 1293"/><path fill="#f99746" d="M413.266 342.529h-.022c-.222-.019-1.583-.1-4.629-.121-18.536 17.736-61.7 52.268-122.076 58.8-33.051 3.576-49.7-12.369-57.88-26.609-.022-.019-.022-.039-.039-.058a67.561 67.561 0 0 1-4.426-9.432l.181-.716s-119.456 26.388-150.029 65.392c-16.709 21.327-32 105.481-45.479 194.286a7.79 7.79 0 0 0-.1.615C17.947 695.937 8.3 770.084 0 817.071h535.688V377.776c-57.253-33.062-120.918-35.206-122.421-35.247" data-name="Path 1294"/><path fill="#35488b" d="M330.718 61.5c-2.726-9.945-15.2-15.231-15.2-15.231-93.034-40.279-161.44 2.8-161.44 2.8 57.622-74.73 195.5-58.169 224.154 9.7 46.78 110.831-40.155 133.345-40.155 133.345s-86.456-36.129-35.991-80.5c16.72-14.7 24.838-27.808 27.575-39.241a38.3 38.3 0 0 0 1.057-10.873" data-name="Path 1295"/></g></g></g></g></g><text fill="#323f51" data-name="Erik ( 61 år)" font-family="FiraSans-Bold, Fira Sans" font-size="75" font-weight="700" transform="translate(711.628 1712.743)"><tspan x="0" y="80">Erik ( 61 år)</tspan></text><path fill="none" stroke="#323f51" stroke-width="15" d="M769.062 638V0" data-name="Line 51"/></g></svg>