<svg width="2491.62" height="1807.365" xmlns="http://www.w3.org/2000/svg"><defs><clipPath id="symptom-grupperne_clean_svg__a"><path d="M0 0h2748v1970H0z"/></clipPath></defs><g clip-path="url(#symptom-grupperne_clean_svg__a)" transform="translate(-89.985 -81.016)"><g data-name="Group 1511" transform="translate(12343 20220)"><path fill="#0e9cb2" d="M-12223.015-20133.984h33.235V-19383h-23.235a40 40 0 0 1-40-40v-680.984a30 30 0 0 1 30-30Z" data-name="Rectangle 541"/><rect width="1172.235" height="750.984" fill="#fff" stroke="#0e9cb2" stroke-dasharray="20" stroke-width="10" data-name="Rectangle 530" rx="41" transform="translate(-12213.648 -20133.984)"/><path fill="#009cb2" d="m-12069.12-19962.163 2.16 8.94h10.44l-12.54-41.58h-11.94l-12.54 41.58h10.2l2.1-8.94zm-1.68-7.14h-8.76l4.38-18.36zm26.34 7.14v-36.6l-9.48 1.02v36.54c0 5.88 3.12 9 8.4 9a17.155 17.155 0 0 0 6.12-1.08l-1.86-6.72a4.507 4.507 0 0 1-1.56.3c-1.02 0-1.62-.66-1.62-2.46zm43.86-23.94c-4.08 0-7.02 1.68-9.54 5.04a7.562 7.562 0 0 0-7.5-5.04c-3.9 0-6.78 1.62-9.24 4.74l-.66-3.72h-8.28v31.86h9.48v-21.78c1.38-2.64 2.88-4.14 4.86-4.14 1.44 0 2.7.9 2.7 4.26v21.66h9.48v-21.78c1.38-2.64 2.82-4.14 4.86-4.14 1.44 0 2.7.9 2.7 4.26v21.66h9.48v-23.28c0-6.06-3.42-9.6-8.34-9.6zm43.26 16.32c0-10.32-5.58-16.32-14.7-16.32-9.66 0-14.88 7.56-14.88 17.1 0 9.96 5.4 16.8 16.02 16.8a19.589 19.589 0 0 0 12.42-4.44l-3.9-5.28c-2.76 1.92-5.04 2.82-7.62 2.82-3.9 0-6.6-1.56-7.26-7.26h19.74a31.809 31.809 0 0 0 .18-3.42zm-9.3-2.28h-10.62c.42-5.7 2.28-7.74 5.46-7.74 3.78 0 5.1 3 5.16 7.32zm33.42-14.04c-3.96 0-7.02 1.62-9.72 4.8l-.66-3.78h-8.28v31.86h9.48v-21.78c1.68-2.64 3.42-4.14 5.52-4.14 1.86 0 3 .9 3 4.26v21.66h9.48v-23.28c0-6.06-3.3-9.6-8.82-9.6zm43.74 16.32c0-10.32-5.58-16.32-14.7-16.32-9.66 0-14.88 7.56-14.88 17.1 0 9.96 5.4 16.8 16.02 16.8a19.589 19.589 0 0 0 12.42-4.44l-3.9-5.28c-2.76 1.92-5.04 2.82-7.62 2.82-3.9 0-6.6-1.56-7.26-7.26h19.74a31.809 31.809 0 0 0 .18-3.42zm-9.3-2.28h-10.62c.42-5.7 2.28-7.74 5.46-7.74 3.78 0 5.1 3 5.16 7.32zm40.2-14.04c-8.04 0-13.02 4.26-13.02 9.72 0 4.92 3.12 8.16 9.42 9.96 5.76 1.62 6.72 2.28 6.72 4.5 0 1.86-1.74 2.94-4.68 2.94a13.335 13.335 0 0 1-8.34-3.18l-4.68 5.22a19.811 19.811 0 0 0 13.32 4.74c7.92 0 14.16-3.9 14.16-10.5 0-5.7-3.54-8.34-9.84-10.14-5.7-1.68-6.54-2.4-6.54-4.08 0-1.44 1.26-2.4 4.14-2.4a14.031 14.031 0 0 1 7.56 2.52l3.48-5.4a18.538 18.538 0 0 0-11.7-3.9zm34.74 32.94 10.14-31.92h-9.78l-6.24 25.8-5.7-25.8h-10.08l9.72 31.86h3.24c-1.74 4.08-4.02 5.88-10.26 6.66l1.02 6.66c10.02-.54 15.42-5.22 17.94-13.26Zm48.72-32.94c-4.08 0-7.02 1.68-9.54 5.04a7.562 7.562 0 0 0-7.5-5.04c-3.9 0-6.78 1.62-9.24 4.74l-.66-3.72h-8.28v31.86h9.48v-21.78c1.38-2.64 2.88-4.14 4.86-4.14 1.44 0 2.7.9 2.7 4.26v21.66h9.48v-21.78c1.38-2.64 2.82-4.14 4.86-4.14 1.44 0 2.7.9 2.7 4.26v21.66h9.48v-23.28c0-6.06-3.42-9.6-8.34-9.6zm33.3 0a11.514 11.514 0 0 0-9 4.56l-.48-3.54h-8.34v45.18l9.48-1.02v-14.58a9.945 9.945 0 0 0 7.74 3.3c7.86 0 12.66-7.2 12.66-17.04 0-10.32-3.66-16.86-12.06-16.86zm-3.48 26.94a5.644 5.644 0 0 1-4.86-2.82v-13.44c1.38-2.34 3.24-3.72 5.34-3.72 3.3 0 5.22 2.1 5.22 10.02 0 7.14-2.16 9.96-5.7 9.96zm41.46 4.44-3.18-6.06a6.3 6.3 0 0 1-3.42 1.08c-1.98 0-3-1.08-3-4.14v-14.64h6.3l1.02-6.6h-7.32v-7.98l-9.48 1.08v6.9h-4.5v6.6h4.5v14.76c0 7.5 3.42 11.46 10.44 11.52a15.781 15.781 0 0 0 8.64-2.52zm16.38-31.38c-9.72 0-15.6 6.72-15.6 16.92 0 10.74 5.94 16.98 15.6 16.98 9.72 0 15.6-6.72 15.6-16.92 0-10.74-5.88-16.98-15.6-16.98zm0 6.96c3.84 0 5.76 2.94 5.76 10.02 0 6.9-1.92 9.96-5.76 9.96s-5.76-2.94-5.76-10.02c0-6.9 1.92-9.96 5.76-9.96zm56.46-6.96c-4.08 0-7.02 1.68-9.54 5.04a7.562 7.562 0 0 0-7.5-5.04c-3.9 0-6.78 1.62-9.24 4.74l-.66-3.72h-8.28v31.86h9.48v-21.78c1.38-2.64 2.88-4.14 4.86-4.14 1.44 0 2.7.9 2.7 4.26v21.66h9.48v-21.78c1.38-2.64 2.82-4.14 4.86-4.14 1.44 0 2.7.9 2.7 4.26v21.66h9.48v-23.28c0-6.06-3.42-9.6-8.34-9.6zm43.26 16.32c0-10.32-5.58-16.32-14.7-16.32-9.66 0-14.88 7.56-14.88 17.1 0 9.96 5.4 16.8 16.02 16.8a19.589 19.589 0 0 0 12.42-4.44l-3.9-5.28c-2.76 1.92-5.04 2.82-7.62 2.82-3.9 0-6.6-1.56-7.26-7.26h19.74a31.809 31.809 0 0 0 .18-3.42zm-9.3-2.28h-10.62c.42-5.7 2.28-7.74 5.46-7.74 3.78 0 5.1 3 5.16 7.32zm32.04-13.92c-3.66 0-6.78 2.64-8.22 7.08l-.78-6.18h-8.28v31.86h9.48v-15.78c1.02-4.86 2.64-7.8 6.6-7.8a11.517 11.517 0 0 1 2.88.42l1.5-9.18a10.733 10.733 0 0 0-3.18-.42z" data-name="Path 2007"/><text fill="#323f51" data-name="Koncentrationsbesvær Hukommelsesbesvær Træthed Hovedpine Svimmelhed" font-family="FiraSans-Book, 'Fira Sans'" font-size="40" transform="translate(-11993.223 -19874)"><tspan x="0" y="43">Koncentrationsbesvær</tspan><tspan x="0" y="123">Hukommelsesbesvær</tspan><tspan x="0" y="203">Træthed</tspan><tspan x="0" y="283">Hovedpine</tspan><tspan x="0" y="363">Svimmelhed</tspan></text><circle cx="16" cy="16" r="16" fill="#009cb2" data-name="Ellipse 180" transform="translate(-12092.76 -19857.246)"/><circle cx="16" cy="16" r="16" fill="#009cb2" data-name="Ellipse 181" transform="translate(-12092.76 -19777.246)"/><circle cx="16" cy="16" r="16" fill="#009cb2" data-name="Ellipse 182" transform="translate(-12092.76 -19697.246)"/><circle cx="16" cy="16" r="16" fill="#009cb2" data-name="Ellipse 183" transform="translate(-12092.76 -19618.246)"/><circle cx="16" cy="16" r="16" fill="#009cb2" data-name="Ellipse 184" transform="translate(-12092.76 -19538.246)"/></g><g data-name="Group 1513"><path fill="#dca13d" d="M1402.734 1072.951h33.235v810.43h-23.235a40 40 0 0 1-40-40v-740.43a30 30 0 0 1 30-30Z" data-name="Rectangle 543"/><g data-name="Group 1504" transform="translate(12369 20220)"><rect width="1172.235" height="810.43" fill="#fff" stroke="#dca13d" stroke-dasharray="20" stroke-width="10" data-name="Rectangle 532" rx="41" transform="translate(-10964.648 -19147.049)"/><path fill="#e79e17" d="M-10826.48-19021.719c-8.64 0-15 4.68-15 12 0 6.18 3.42 10.02 12.72 12.9 6.06 1.86 7.62 3.24 7.62 6.3 0 3.18-2.52 5.1-6.6 5.1a15.058 15.058 0 0 1-10.44-4.14l-5.04 5.52c3.42 3.3 8.58 5.94 15.78 5.94 10.38 0 16.5-5.4 16.5-13.14 0-7.68-4.5-10.92-12.36-13.44-6.48-2.04-8.04-3.12-8.04-5.76 0-2.64 2.16-4.08 5.58-4.08a13.641 13.641 0 0 1 9.06 3.48l4.62-5.34c-3.66-3.48-8.04-5.34-14.4-5.34Zm37.14 42.66 10.14-31.92h-9.78l-6.24 25.8-5.7-25.8h-10.08l9.72 31.86h3.24c-1.74 4.08-4.02 5.88-10.26 6.66l1.02 6.66c10.02-.54 15.42-5.22 17.94-13.26Zm48.72-32.94c-4.08 0-7.02 1.68-9.54 5.04a7.562 7.562 0 0 0-7.5-5.04c-3.9 0-6.78 1.62-9.24 4.74l-.66-3.72h-8.28v31.86h9.48v-21.78c1.38-2.64 2.88-4.14 4.86-4.14 1.44 0 2.7.9 2.7 4.26v21.66h9.48v-21.78c1.38-2.64 2.82-4.14 4.86-4.14 1.44 0 2.7.9 2.7 4.26v21.66h9.48v-23.28c0-6.06-3.42-9.6-8.34-9.6zm33.3 0a11.514 11.514 0 0 0-9 4.56l-.48-3.54h-8.34v45.18l9.48-1.02v-14.58a9.945 9.945 0 0 0 7.74 3.3c7.86 0 12.66-7.2 12.66-17.04 0-10.32-3.66-16.86-12.06-16.86zm-3.48 26.94a5.644 5.644 0 0 1-4.86-2.82v-13.44c1.38-2.34 3.24-3.72 5.34-3.72 3.3 0 5.22 2.1 5.22 10.02 0 7.14-2.16 9.96-5.7 9.96zm41.46 4.44-3.18-6.06a6.3 6.3 0 0 1-3.42 1.08c-1.98 0-3-1.08-3-4.14v-14.64h6.3l1.02-6.6h-7.32v-7.98l-9.48 1.08v6.9h-4.5v6.6h4.5v14.76c0 7.5 3.42 11.46 10.44 11.52a15.781 15.781 0 0 0 8.64-2.52zm16.38-31.38c-9.72 0-15.6 6.72-15.6 16.92 0 10.74 5.94 16.98 15.6 16.98 9.72 0 15.6-6.72 15.6-16.92 0-10.74-5.88-16.98-15.6-16.98zm0 6.96c3.84 0 5.76 2.94 5.76 10.02 0 6.9-1.92 9.96-5.76 9.96s-5.76-2.94-5.76-10.02c0-6.9 1.92-9.96 5.76-9.96zm56.46-6.96c-4.08 0-7.02 1.68-9.54 5.04a7.562 7.562 0 0 0-7.5-5.04c-3.9 0-6.78 1.62-9.24 4.74l-.66-3.72h-8.28v31.86h9.48v-21.78c1.38-2.64 2.88-4.14 4.86-4.14 1.44 0 2.7.9 2.7 4.26v21.66h9.48v-21.78c1.38-2.64 2.82-4.14 4.86-4.14 1.44 0 2.7.9 2.7 4.26v21.66h9.48v-23.28c0-6.06-3.42-9.6-8.34-9.6zm43.26 16.32c0-10.32-5.58-16.32-14.7-16.32-9.66 0-14.88 7.56-14.88 17.1 0 9.96 5.4 16.8 16.02 16.8a19.589 19.589 0 0 0 12.42-4.44l-3.9-5.28c-2.76 1.92-5.04 2.82-7.62 2.82-3.9 0-6.6-1.56-7.26-7.26h19.74a31.809 31.809 0 0 0 .18-3.42zm-9.3-2.28h-10.62c.42-5.7 2.28-7.74 5.46-7.74 3.78 0 5.1 3 5.16 7.32zm32.04-13.92c-3.66 0-6.78 2.64-8.22 7.08l-.78-6.18h-8.28v31.86h9.48v-15.78c1.02-4.86 2.64-7.8 6.6-7.8a11.517 11.517 0 0 1 2.88.42l1.5-9.18a10.733 10.733 0 0 0-3.18-.42zm35.58-5.76a11.319 11.319 0 0 1 4.98 1.2l2.58-6.18a19.387 19.387 0 0 0-8.7-2.04c-8.16 0-12.18 4.74-12.18 10.86v2.82h-4.8v6.6h4.8v25.26h9.48v-25.26h6.48l1.02-6.6h-7.5v-2.46c0-3 1.08-4.2 3.84-4.2zm24.06 5.76c-3.66 0-6.78 2.64-8.22 7.08l-.78-6.18h-8.28v31.86h9.48v-15.78c1.02-4.86 2.64-7.8 6.6-7.8a11.517 11.517 0 0 1 2.88.42l1.5-9.18a10.733 10.733 0 0 0-3.18-.42zm30.9 23.52v-12.36c0-7.38-3.96-11.28-13.2-11.28a35.993 35.993 0 0 0-12 2.34l2.16 6.24a28.7 28.7 0 0 1 8.34-1.68c3.9 0 5.4 1.14 5.4 4.92v1.38h-3.24c-9.66 0-14.94 3.78-14.94 10.74 0 5.82 4.02 9.96 10.38 9.96 3.78 0 7.32-1.26 9.6-4.8 1.44 3.18 3.9 4.32 7.68 4.62l1.98-6.18c-1.5-.54-2.16-1.44-2.16-3.9zm-14.34 3.48c-2.34 0-3.72-1.5-3.72-4.02 0-3.18 2.1-4.68 6.42-4.68h2.34v5.64a5.676 5.676 0 0 1-5.04 3.06zm54.78-27.12a11.614 11.614 0 0 0-9.18 4.44v-17.04l-9.48.96v44.52h9.48v-21.84c1.68-2.58 3.42-4.08 5.52-4.08 1.8 0 3 .9 3 4.26v21.66h9.48v-23.28c0-6.06-3.3-9.6-8.82-9.6zm20.64-15.78a5.405 5.405 0 1 0 5.64 5.4 5.313 5.313 0 0 0-5.64-5.4zm4.74 45.06v-28.26h-9.48v28.86c0 5.82-2.4 7.5-6.48 9.36l3.18 6.9c7.44-2.7 12.78-6.48 12.78-16.86zm35.22-12.96c0-10.32-5.58-16.32-14.7-16.32-9.66 0-14.88 7.56-14.88 17.1 0 9.96 5.4 16.8 16.02 16.8a19.589 19.589 0 0 0 12.42-4.44l-3.9-5.28c-2.76 1.92-5.04 2.82-7.62 2.82-3.9 0-6.6-1.56-7.26-7.26h19.74a31.809 31.809 0 0 0 .18-3.42zm-9.3-2.28h-10.62c.42-5.7 2.28-7.74 5.46-7.74 3.78 0 5.1 3 5.16 7.32zm32.04-13.92c-3.66 0-6.78 2.64-8.22 7.08l-.78-6.18h-8.28v31.86h9.48v-15.78c1.02-4.86 2.64-7.8 6.6-7.8a11.517 11.517 0 0 1 2.88.42l1.5-9.18a10.734 10.734 0 0 0-3.18-.42zm27.96 31.26-3.18-6.06a6.3 6.3 0 0 1-3.42 1.08c-1.98 0-3-1.08-3-4.14v-14.64h6.3l1.02-6.6h-7.32v-7.98l-9.48 1.08v6.9h-4.5v6.6h4.5v14.76c0 7.5 3.42 11.46 10.44 11.52a15.781 15.781 0 0 0 8.64-2.52zm30.36-15.06c0-10.32-5.58-16.32-14.7-16.32-9.66 0-14.88 7.56-14.88 17.1 0 9.96 5.4 16.8 16.02 16.8a19.589 19.589 0 0 0 12.42-4.44l-3.9-5.28c-2.76 1.92-5.04 2.82-7.62 2.82-3.9 0-6.6-1.56-7.26-7.26h19.74a31.809 31.809 0 0 0 .18-3.42zm-9.3-2.28h-10.62c.42-5.7 2.28-7.74 5.46-7.74 3.78 0 5.1 3 5.16 7.32zm42.78-14.04c-9.72 0-15.6 6.72-15.6 16.92 0 10.74 5.94 16.98 15.6 16.98 9.72 0 15.6-6.72 15.6-16.92 0-10.74-5.88-16.98-15.6-16.98zm0 6.96c3.84 0 5.76 2.94 5.76 10.02 0 6.9-1.92 9.96-5.76 9.96s-5.76-2.94-5.76-10.02c0-6.9 1.92-9.96 5.76-9.96zm50.58-4.08-2.22-7.02a25.233 25.233 0 0 1-15 4.14c-8.34 0-13.98 4.44-13.98 11.64 0 4.14 1.62 6.96 5.7 9.12a7.588 7.588 0 0 0-3.78 6.12c0 3.42 2.82 6.3 9.78 6.3h4.62c3.18 0 4.56 1.26 4.56 3.12 0 2.04-1.32 3.6-6.9 3.6-5.76 0-6.96-1.2-6.96-3.96h-8.52c0 6.3 3.18 10.26 15.24 10.26 10.92 0 16.68-4.02 16.68-10.56 0-5.34-4.74-9.24-12.18-9.24h-4.8c-3.06 0-3.48-.96-3.48-1.92a2.039 2.039 0 0 1 1.02-1.8 17.609 17.609 0 0 0 3.66.36c8.28 0 13.38-4.5 13.38-10.68 0-4.14-1.98-6.48-6-8.22 4.02 0 6.96-.36 9.18-1.26zm-16.98 3.36c3.18 0 4.8 1.62 4.8 5.16 0 3.66-1.68 5.52-4.8 5.52-2.88 0-4.8-1.92-4.8-5.4 0-3.3 1.86-5.28 4.8-5.28zm44.1 17.7v-36.6l-9.48 1.02v36.54c0 5.88 3.12 9 8.4 9a17.155 17.155 0 0 0 6.12-1.08l-1.86-6.72a4.507 4.507 0 0 1-1.56.3c-1.02 0-1.62-.66-1.62-2.46zm35.52 8.94v-31.86h-9.48v22.14c-1.38 2.4-3.18 3.72-5.16 3.72s-3.06-.96-3.06-4.2v-21.66h-9.48v22.86c0 6.18 2.94 10.02 8.88 10.02a11.027 11.027 0 0 0 9.66-5.04l.42 4.02zm26.1-32.88c-3.96 0-7.02 1.62-9.72 4.8l-.66-3.78h-8.28v31.86h9.48v-21.78c1.68-2.64 3.42-4.14 5.52-4.14 1.86 0 3 .9 3 4.26v21.66h9.48v-23.28c0-6.06-3.3-9.6-8.82-9.6zm45.3 2.88-2.22-7.02a25.233 25.233 0 0 1-15 4.14c-8.34 0-13.98 4.44-13.98 11.64 0 4.14 1.62 6.96 5.7 9.12a7.588 7.588 0 0 0-3.78 6.12c0 3.42 2.82 6.3 9.78 6.3h4.62c3.18 0 4.56 1.26 4.56 3.12 0 2.04-1.32 3.6-6.9 3.6-5.76 0-6.96-1.2-6.96-3.96h-8.52c0 6.3 3.18 10.26 15.24 10.26 10.92 0 16.68-4.02 16.68-10.56 0-5.34-4.74-9.24-12.18-9.24h-4.8c-3.06 0-3.48-.96-3.48-1.92a2.039 2.039 0 0 1 1.02-1.8 17.609 17.609 0 0 0 3.66.36c8.28 0 13.38-4.5 13.38-10.68 0-4.14-1.98-6.48-6-8.22 4.02 0 6.96-.36 9.18-1.26zm-16.98 3.36c3.18 0 4.8 1.62 4.8 5.16 0 3.66-1.68 5.52-4.8 5.52-2.88 0-4.8-1.92-4.8-5.4 0-3.3 1.86-5.28 4.8-5.28zm47.58 10.08c0-10.32-5.58-16.32-14.7-16.32-9.66 0-14.88 7.56-14.88 17.1 0 9.96 5.4 16.8 16.02 16.8a19.589 19.589 0 0 0 12.42-4.44l-3.9-5.28c-2.76 1.92-5.04 2.82-7.62 2.82-3.9 0-6.6-1.56-7.26-7.26h19.74a31.809 31.809 0 0 0 .18-3.42zm-9.3-2.28h-10.62c.42-5.7 2.28-7.74 5.46-7.74 3.78 0 5.1 3 5.16 7.32z" data-name="Path 2010"/><text fill="#323f51" data-name="Hjertebanken eller uro i brystet Trykken eller smerter i brystet Forpustethed uden anstrengelse Anfald med vejrtrækningsbesvær Varm- eller koldsveden Mundtørhed" font-family="FiraSans-Book, 'Fira Sans'" font-size="40" transform="translate(-10744.223 -18896.092)"><tspan x="0" y="43">Hjertebanken eller uro i brystet</tspan><tspan x="0" y="123">Trykken eller smerter i brystet</tspan><tspan x="0" y="203">Forpustethed uden anstrengelse</tspan><tspan x="0" y="283">Anfald med vejrtrækningsbesvær</tspan><tspan x="0" y="363">Varm- eller koldsveden</tspan><tspan x="0" y="443">Mundtørhed</tspan></text><circle cx="16" cy="16" r="16" fill="#dca13d" data-name="Ellipse 206" transform="translate(-10843.76 -18883.143)"/><circle cx="16" cy="16" r="16" fill="#dca13d" data-name="Ellipse 207" transform="translate(-10843.76 -18803.143)"/><circle cx="16" cy="16" r="16" fill="#dca13d" data-name="Ellipse 208" transform="translate(-10843.76 -18723.143)"/><circle cx="16" cy="16" r="16" fill="#dca13d" data-name="Ellipse 209" transform="translate(-10843.76 -18644.143)"/><circle cx="16" cy="16" r="16" fill="#dca13d" data-name="Ellipse 210" transform="translate(-10843.76 -18564.143)"/><circle cx="16" cy="16" r="16" fill="#dca13d" data-name="Ellipse 218" transform="translate(-10843.76 -18484.143)"/></g></g><g data-name="Group 1510"><path fill="#323f51" d="M119.985 917.725h33.235v965.656h-23.235a40 40 0 0 1-40-40V947.725a30 30 0 0 1 30-30Z" data-name="Rectangle 540"/><g data-name="Group 1503" transform="translate(12342.634 20220)"><rect width="1172.235" height="965.656" fill="#fff" stroke="#323f51" stroke-dasharray="20" stroke-width="10" data-name="Rectangle 531" rx="41" transform="translate(-12213.282 -19302.275)"/><path fill="#323f51" d="M-12075.114-19173.143c-8.64 0-15 4.68-15 12 0 6.18 3.42 10.02 12.72 12.9 6.06 1.86 7.62 3.24 7.62 6.3 0 3.18-2.52 5.1-6.6 5.1a15.058 15.058 0 0 1-10.44-4.14l-5.04 5.52c3.42 3.3 8.58 5.94 15.78 5.94 10.38 0 16.5-5.4 16.5-13.14 0-7.68-4.5-10.92-12.36-13.44-6.48-2.04-8.04-3.12-8.04-5.76 0-2.64 2.16-4.08 5.58-4.08a13.641 13.641 0 0 1 9.06 3.48l4.62-5.34c-3.66-3.48-8.04-5.34-14.4-5.34Zm37.14 42.66 10.14-31.92h-9.78l-6.24 25.8-5.7-25.8h-10.08l9.72 31.86h3.24c-1.74 4.08-4.02 5.88-10.26 6.66l1.02 6.66c10.02-.54 15.42-5.22 17.94-13.26Zm48.72-32.94c-4.08 0-7.02 1.68-9.54 5.04a7.562 7.562 0 0 0-7.5-5.04c-3.9 0-6.78 1.62-9.24 4.74l-.66-3.72h-8.28v31.86h9.48v-21.78c1.38-2.64 2.88-4.14 4.86-4.14 1.44 0 2.7.9 2.7 4.26v21.66h9.48v-21.78c1.38-2.64 2.82-4.14 4.86-4.14 1.44 0 2.7.9 2.7 4.26v21.66h9.48v-23.28c0-6.06-3.42-9.6-8.34-9.6zm33.3 0a11.514 11.514 0 0 0-9 4.56l-.48-3.54h-8.34v45.18l9.48-1.02v-14.58a9.945 9.945 0 0 0 7.74 3.3c7.86 0 12.66-7.2 12.66-17.04 0-10.32-3.66-16.86-12.06-16.86zm-3.48 26.94a5.644 5.644 0 0 1-4.86-2.82v-13.44c1.38-2.34 3.24-3.72 5.34-3.72 3.3 0 5.22 2.1 5.22 10.02 0 7.14-2.16 9.96-5.7 9.96zm41.46 4.44-3.18-6.06a6.3 6.3 0 0 1-3.42 1.08c-1.98 0-3-1.08-3-4.14v-14.64h6.3l1.02-6.6h-7.32v-7.98l-9.48 1.08v6.9h-4.5v6.6h4.5v14.76c0 7.5 3.42 11.46 10.44 11.52a15.781 15.781 0 0 0 8.64-2.52zm16.38-31.38c-9.72 0-15.6 6.72-15.6 16.92 0 10.74 5.94 16.98 15.6 16.98 9.72 0 15.6-6.72 15.6-16.92 0-10.74-5.88-16.98-15.6-16.98zm0 6.96c3.84 0 5.76 2.94 5.76 10.02 0 6.9-1.92 9.96-5.76 9.96s-5.76-2.94-5.76-10.02c0-6.9 1.92-9.96 5.76-9.96zm56.46-6.96c-4.08 0-7.02 1.68-9.54 5.04a7.562 7.562 0 0 0-7.5-5.04c-3.9 0-6.78 1.62-9.24 4.74l-.66-3.72h-8.28v31.86h9.48v-21.78c1.38-2.64 2.88-4.14 4.86-4.14 1.44 0 2.7.9 2.7 4.26v21.66h9.48v-21.78c1.38-2.64 2.82-4.14 4.86-4.14 1.44 0 2.7.9 2.7 4.26v21.66h9.48v-23.28c0-6.06-3.42-9.6-8.34-9.6zm43.26 16.32c0-10.32-5.58-16.32-14.7-16.32-9.66 0-14.88 7.56-14.88 17.1 0 9.96 5.4 16.8 16.02 16.8a19.589 19.589 0 0 0 12.42-4.44l-3.9-5.28c-2.76 1.92-5.04 2.82-7.62 2.82-3.9 0-6.6-1.56-7.26-7.26h19.74a31.809 31.809 0 0 0 .18-3.42zm-9.3-2.28h-10.62c.42-5.7 2.28-7.74 5.46-7.74 3.78 0 5.1 3 5.16 7.32zm32.04-13.92c-3.66 0-6.78 2.64-8.22 7.08l-.78-6.18h-8.28v31.86h9.48v-15.78c1.02-4.86 2.64-7.8 6.6-7.8a11.517 11.517 0 0 1 2.88.42l1.5-9.18a10.733 10.733 0 0 0-3.18-.42zm35.58-5.76a11.319 11.319 0 0 1 4.98 1.2l2.58-6.18a19.387 19.387 0 0 0-8.7-2.04c-8.16 0-12.18 4.74-12.18 10.86v2.82h-4.8v6.6h4.8v25.26h9.48v-25.26h6.48l1.02-6.6h-7.5v-2.46c0-3 1.08-4.2 3.84-4.2zm24.06 5.76c-3.66 0-6.78 2.64-8.22 7.08l-.78-6.18h-8.28v31.86h9.48v-15.78c1.02-4.86 2.64-7.8 6.6-7.8a11.517 11.517 0 0 1 2.88.42l1.5-9.18a10.733 10.733 0 0 0-3.18-.42zm30.9 23.52v-12.36c0-7.38-3.96-11.28-13.2-11.28a35.993 35.993 0 0 0-12 2.34l2.16 6.24a28.7 28.7 0 0 1 8.34-1.68c3.9 0 5.4 1.14 5.4 4.92v1.38h-3.24c-9.66 0-14.94 3.78-14.94 10.74 0 5.82 4.02 9.96 10.38 9.96 3.78 0 7.32-1.26 9.6-4.8 1.44 3.18 3.9 4.32 7.68 4.62l1.98-6.18c-1.5-.54-2.16-1.44-2.16-3.9zm-14.34 3.48c-2.34 0-3.72-1.5-3.72-4.02 0-3.18 2.1-4.68 6.42-4.68h2.34v5.64a5.676 5.676 0 0 1-5.04 3.06zm54-27.12a10.571 10.571 0 0 0-8.4 4.26v-16.92l-9.48 1.02v44.52h8.4l.48-3.06a10.208 10.208 0 0 0 8.34 4.08c7.92 0 12.66-7.08 12.66-16.92 0-10.68-4.14-16.98-12-16.98zm-3.36 27a5.962 5.962 0 0 1-5.04-3.06v-13.26c1.38-2.34 3.18-3.72 5.46-3.72 2.94 0 5.1 1.92 5.1 10.02 0 7.44-2.28 10.02-5.52 10.02zm49.08-10.68c0-10.32-5.58-16.32-14.7-16.32-9.66 0-14.88 7.56-14.88 17.1 0 9.96 5.4 16.8 16.02 16.8a19.589 19.589 0 0 0 12.42-4.44l-3.9-5.28c-2.76 1.92-5.04 2.82-7.62 2.82-3.9 0-6.6-1.56-7.26-7.26h19.74a31.809 31.809 0 0 0 .18-3.42zm-9.3-2.28h-10.62c.42-5.7 2.28-7.74 5.46-7.74 3.78 0 5.1 3 5.16 7.32zm31.56 18.84 10.02-31.86h-9.66l-5.88 24.66-5.64-24.66h-10.32l10.26 31.86Zm59.34-16.56c0-10.32-5.64-16.32-14.4-16.32a12.064 12.064 0 0 0-9.36 4.02c-1.86-2.46-4.86-4.02-9.72-4.02a35.993 35.993 0 0 0-12 2.34l2.16 6.3a28.7 28.7 0 0 1 8.34-1.68c3.9 0 5.4 1.2 5.4 4.92v1.32h-3.24c-9.9 0-15.3 3.78-15.3 10.74 0 5.82 4.02 9.96 10.62 9.96 4.44 0 8.4-1.38 11.28-5.46 2.64 3.36 6.9 5.46 12.66 5.46a19.589 19.589 0 0 0 12.42-4.44l-3.9-5.28c-2.76 1.92-5.04 2.82-7.62 2.82-3.96 0-6.66-1.56-7.26-7.26h19.74a31.809 31.809 0 0 0 .18-3.42zm-9.36-2.28h-10.56c.42-5.7 2.28-7.74 5.4-7.74 3.78 0 5.16 3 5.16 7.32zm-25.14 13.08c-2.34 0-3.6-1.44-3.6-3.84 0-3.3 2.04-4.68 6.24-4.68h2.4v.24a17.624 17.624 0 0 0 .66 4.44c-1.62 2.4-3.3 3.84-5.7 3.84zm69.3-24.24-2.22-7.02a25.233 25.233 0 0 1-15 4.14c-8.34 0-13.98 4.44-13.98 11.64 0 4.14 1.62 6.96 5.7 9.12a7.588 7.588 0 0 0-3.78 6.12c0 3.42 2.82 6.3 9.78 6.3h4.62c3.18 0 4.56 1.26 4.56 3.12 0 2.04-1.32 3.6-6.9 3.6-5.76 0-6.96-1.2-6.96-3.96h-8.52c0 6.3 3.18 10.26 15.24 10.26 10.92 0 16.68-4.02 16.68-10.56 0-5.34-4.74-9.24-12.18-9.24h-4.8c-3.06 0-3.48-.96-3.48-1.92a2.039 2.039 0 0 1 1.02-1.8 17.609 17.609 0 0 0 3.66.36c8.28 0 13.38-4.5 13.38-10.68 0-4.14-1.98-6.48-6-8.22 4.02 0 6.96-.36 9.18-1.26zm-16.98 3.36c3.18 0 4.8 1.62 4.8 5.16 0 3.66-1.68 5.52-4.8 5.52-2.88 0-4.8-1.92-4.8-5.4 0-3.3 1.86-5.28 4.8-5.28zm47.58 10.08c0-10.32-5.58-16.32-14.7-16.32-9.66 0-14.88 7.56-14.88 17.1 0 9.96 5.4 16.8 16.02 16.8a19.589 19.589 0 0 0 12.42-4.44l-3.9-5.28c-2.76 1.92-5.04 2.82-7.62 2.82-3.9 0-6.6-1.56-7.26-7.26h19.74a31.809 31.809 0 0 0 .18-3.42zm-9.3-2.28h-10.62c.42-5.7 2.28-7.74 5.46-7.74 3.78 0 5.1 3 5.16 7.32zm40.08 9.6v-12.36c0-7.38-3.96-11.28-13.2-11.28a35.993 35.993 0 0 0-12 2.34l2.16 6.24a28.7 28.7 0 0 1 8.34-1.68c3.9 0 5.4 1.14 5.4 4.92v1.38h-3.24c-9.66 0-14.94 3.78-14.94 10.74 0 5.82 4.02 9.96 10.38 9.96 3.78 0 7.32-1.26 9.6-4.8 1.44 3.18 3.9 4.32 7.68 4.62l1.98-6.18c-1.5-.54-2.16-1.44-2.16-3.9zm-14.34 3.48c-2.34 0-3.72-1.5-3.72-4.02 0-3.18 2.1-4.68 6.42-4.68h2.34v5.64a5.676 5.676 0 0 1-5.04 3.06zm39.72-27.12a11.514 11.514 0 0 0-9 4.56l-.48-3.54h-8.34v45.18l9.48-1.02v-14.58a9.945 9.945 0 0 0 7.74 3.3c7.86 0 12.66-7.2 12.66-17.04 0-10.32-3.66-16.86-12.06-16.86zm-3.48 26.94a5.644 5.644 0 0 1-4.86-2.82v-13.44c1.38-2.34 3.24-3.72 5.34-3.72 3.3 0 5.22 2.1 5.22 10.02 0 7.14-2.16 9.96-5.7 9.96zm39.3-26.94a11.514 11.514 0 0 0-9 4.56l-.48-3.54h-8.34v45.18l9.48-1.02v-14.58a9.945 9.945 0 0 0 7.74 3.3c7.86 0 12.66-7.2 12.66-17.04 0-10.32-3.66-16.86-12.06-16.86zm-3.48 26.94a5.644 5.644 0 0 1-4.86-2.82v-13.44c1.38-2.34 3.24-3.72 5.34-3.72 3.3 0 5.22 2.1 5.22 10.02 0 7.14-2.16 9.96-5.7 9.96zm46.8-3.3v-12.36c0-7.38-3.96-11.28-13.2-11.28a35.993 35.993 0 0 0-12 2.34l2.16 6.24a28.7 28.7 0 0 1 8.34-1.68c3.9 0 5.4 1.14 5.4 4.92v1.38h-3.24c-9.66 0-14.94 3.78-14.94 10.74 0 5.82 4.02 9.96 10.38 9.96 3.78 0 7.32-1.26 9.6-4.8 1.44 3.18 3.9 4.32 7.68 4.62l1.98-6.18c-1.5-.54-2.16-1.44-2.16-3.9zm-14.34 3.48c-2.34 0-3.72-1.5-3.72-4.02 0-3.18 2.1-4.68 6.42-4.68h2.34v5.64a5.676 5.676 0 0 1-5.04 3.06zm39.18-27c-3.66 0-6.78 2.64-8.22 7.08l-.78-6.18h-8.28v31.86h9.48v-15.78c1.02-4.86 2.64-7.8 6.6-7.8a11.517 11.517 0 0 1 2.88.42l1.5-9.18a10.733 10.733 0 0 0-3.18-.42zm30.9 23.52v-12.36c0-7.38-3.96-11.28-13.2-11.28a35.993 35.993 0 0 0-12 2.34l2.16 6.24a28.7 28.7 0 0 1 8.34-1.68c3.9 0 5.4 1.14 5.4 4.92v1.38h-3.24c-9.66 0-14.94 3.78-14.94 10.74 0 5.82 4.02 9.96 10.38 9.96 3.78 0 7.32-1.26 9.6-4.8 1.44 3.18 3.9 4.32 7.68 4.62l1.98-6.18c-1.5-.54-2.16-1.44-2.16-3.9zm-14.34 3.48c-2.34 0-3.72-1.5-3.72-4.02 0-3.18 2.1-4.68 6.42-4.68h2.34v5.64a5.676 5.676 0 0 1-5.04 3.06zm41.88 4.26-3.18-6.06a6.3 6.3 0 0 1-3.42 1.08c-1.98 0-3-1.08-3-4.14v-14.64h6.3l1.02-6.6h-7.32v-7.98l-9.48 1.08v6.9h-4.5v6.6h4.5v14.76c0 7.5 3.42 11.46 10.44 11.52a15.781 15.781 0 0 0 8.64-2.52zm30.36-15.06c0-10.32-5.58-16.32-14.7-16.32-9.66 0-14.88 7.56-14.88 17.1 0 9.96 5.4 16.8 16.02 16.8a19.589 19.589 0 0 0 12.42-4.44l-3.9-5.28c-2.76 1.92-5.04 2.82-7.62 2.82-3.9 0-6.6-1.56-7.26-7.26h19.74a31.809 31.809 0 0 0 .18-3.42zm-9.3-2.28h-10.62c.42-5.7 2.28-7.74 5.46-7.74 3.78 0 5.1 3 5.16 7.32zm34.74 17.34-3.18-6.06a6.3 6.3 0 0 1-3.42 1.08c-1.98 0-3-1.08-3-4.14v-14.64h6.3l1.02-6.6h-7.32v-7.98l-9.48 1.08v6.9h-4.5v6.6h4.5v14.76c0 7.5 3.42 11.46 10.44 11.52a15.781 15.781 0 0 0 8.64-2.52z" data-name="Path 2009"/><text fill="#323f51" data-name="Smerter i arme eller ben Muskelsmerter Ledsmerter Følelse af lammelse Rygsmerter Smerter, som flytter sig fra sted til sted Dødhedsfornemmelse eller følelsesforstyrrelse" font-family="FiraSans-Book, 'Fira Sans'" font-size="40" transform="translate(-11992.452 -19028.742)"><tspan x="0" y="43">Smerter i arme eller ben</tspan><tspan x="0" y="123">Muskelsmerter</tspan><tspan x="0" y="203">Ledsmerter</tspan><tspan x="0" y="283">Følelse af lammelse</tspan><tspan x="0" y="363">Rygsmerter</tspan><tspan x="0" y="443">Smerter, som flytter sig fra sted til sted</tspan><tspan x="0" y="523">Dødhedsfornemmelse eller</tspan><tspan x="0" y="603">følelsesforstyrrelse</tspan></text><circle cx="16" cy="16" r="16" fill="#323f51" data-name="Ellipse 205" transform="translate(-12092.634 -19011.977)"/><circle cx="16" cy="16" r="16" fill="#323f51" data-name="Ellipse 204" transform="translate(-12092.634 -18931.977)"/><circle cx="16" cy="16" r="16" fill="#323f51" data-name="Ellipse 203" transform="translate(-12092.634 -18851.977)"/><circle cx="16" cy="16" r="16" fill="#323f51" data-name="Ellipse 202" transform="translate(-12092.634 -18772.977)"/><circle cx="16" cy="16" r="16" fill="#323f51" data-name="Ellipse 201" transform="translate(-12092.634 -18692.977)"/><circle cx="16" cy="16" r="16" fill="#323f51" data-name="Ellipse 200" transform="translate(-12092.634 -18612.977)"/><circle cx="16" cy="16" r="16" fill="#323f51" data-name="Ellipse 199" transform="translate(-12092.634 -18532.977)"/></g></g><g data-name="Group 1512"><path fill="#903" d="M1402.734 86.016h33.235v914.262h-23.235a40 40 0 0 1-40-40V116.016a30 30 0 0 1 30-30Z" data-name="Rectangle 542"/><g data-name="Group 1505" transform="translate(12369 20220)"><rect width="1172.235" height="914.261" fill="#fff" stroke="#903" stroke-dasharray="20" stroke-width="10" data-name="Rectangle 533" rx="41" transform="translate(-10964.648 -20133.984)"/><path fill="#903" d="M-10826.48-19995.823c-8.64 0-15 4.68-15 12 0 6.18 3.42 10.02 12.72 12.9 6.06 1.86 7.62 3.24 7.62 6.3 0 3.18-2.52 5.1-6.6 5.1a15.058 15.058 0 0 1-10.44-4.14l-5.04 5.52c3.42 3.3 8.58 5.94 15.78 5.94 10.38 0 16.5-5.4 16.5-13.14 0-7.68-4.5-10.92-12.36-13.44-6.48-2.04-8.04-3.12-8.04-5.76 0-2.64 2.16-4.08 5.58-4.08a13.641 13.641 0 0 1 9.06 3.48l4.62-5.34c-3.66-3.48-8.04-5.34-14.4-5.34Zm37.14 42.66 10.14-31.92h-9.78l-6.24 25.8-5.7-25.8h-10.08l9.72 31.86h3.24c-1.74 4.08-4.02 5.88-10.26 6.66l1.02 6.66c10.02-.54 15.42-5.22 17.94-13.26Zm48.72-32.94c-4.08 0-7.02 1.68-9.54 5.04a7.562 7.562 0 0 0-7.5-5.04c-3.9 0-6.78 1.62-9.24 4.74l-.66-3.72h-8.28v31.86h9.48v-21.78c1.38-2.64 2.88-4.14 4.86-4.14 1.44 0 2.7.9 2.7 4.26v21.66h9.48v-21.78c1.38-2.64 2.82-4.14 4.86-4.14 1.44 0 2.7.9 2.7 4.26v21.66h9.48v-23.28c0-6.06-3.42-9.6-8.34-9.6zm33.3 0a11.514 11.514 0 0 0-9 4.56l-.48-3.54h-8.34v45.18l9.48-1.02v-14.58a9.945 9.945 0 0 0 7.74 3.3c7.86 0 12.66-7.2 12.66-17.04 0-10.32-3.66-16.86-12.06-16.86zm-3.48 26.94a5.644 5.644 0 0 1-4.86-2.82v-13.44c1.38-2.34 3.24-3.72 5.34-3.72 3.3 0 5.22 2.1 5.22 10.02 0 7.14-2.16 9.96-5.7 9.96zm41.46 4.44-3.18-6.06a6.3 6.3 0 0 1-3.42 1.08c-1.98 0-3-1.08-3-4.14v-14.64h6.3l1.02-6.6h-7.32v-7.98l-9.48 1.08v6.9h-4.5v6.6h4.5v14.76c0 7.5 3.42 11.46 10.44 11.52a15.781 15.781 0 0 0 8.64-2.52zm16.38-31.38c-9.72 0-15.6 6.72-15.6 16.92 0 10.74 5.94 16.98 15.6 16.98 9.72 0 15.6-6.72 15.6-16.92 0-10.74-5.88-16.98-15.6-16.98zm0 6.96c3.84 0 5.76 2.94 5.76 10.02 0 6.9-1.92 9.96-5.76 9.96s-5.76-2.94-5.76-10.02c0-6.9 1.92-9.96 5.76-9.96zm56.46-6.96c-4.08 0-7.02 1.68-9.54 5.04a7.562 7.562 0 0 0-7.5-5.04c-3.9 0-6.78 1.62-9.24 4.74l-.66-3.72h-8.28v31.86h9.48v-21.78c1.38-2.64 2.88-4.14 4.86-4.14 1.44 0 2.7.9 2.7 4.26v21.66h9.48v-21.78c1.38-2.64 2.82-4.14 4.86-4.14 1.44 0 2.7.9 2.7 4.26v21.66h9.48v-23.28c0-6.06-3.42-9.6-8.34-9.6zm43.26 16.32c0-10.32-5.58-16.32-14.7-16.32-9.66 0-14.88 7.56-14.88 17.1 0 9.96 5.4 16.8 16.02 16.8a19.589 19.589 0 0 0 12.42-4.44l-3.9-5.28c-2.76 1.92-5.04 2.82-7.62 2.82-3.9 0-6.6-1.56-7.26-7.26h19.74a31.809 31.809 0 0 0 .18-3.42zm-9.3-2.28h-10.62c.42-5.7 2.28-7.74 5.46-7.74 3.78 0 5.1 3 5.16 7.32zm32.04-13.92c-3.66 0-6.78 2.64-8.22 7.08l-.78-6.18h-8.28v31.86h9.48v-15.78c1.02-4.86 2.64-7.8 6.6-7.8a11.517 11.517 0 0 1 2.88.42l1.5-9.18a10.733 10.733 0 0 0-3.18-.42zm35.58-5.76a11.319 11.319 0 0 1 4.98 1.2l2.58-6.18a19.387 19.387 0 0 0-8.7-2.04c-8.16 0-12.18 4.74-12.18 10.86v2.82h-4.8v6.6h4.8v25.26h9.48v-25.26h6.48l1.02-6.6h-7.5v-2.46c0-3 1.08-4.2 3.84-4.2zm24.06 5.76c-3.66 0-6.78 2.64-8.22 7.08l-.78-6.18h-8.28v31.86h9.48v-15.78c1.02-4.86 2.64-7.8 6.6-7.8a11.517 11.517 0 0 1 2.88.42l1.5-9.18a10.733 10.733 0 0 0-3.18-.42zm30.9 23.52v-12.36c0-7.38-3.96-11.28-13.2-11.28a35.993 35.993 0 0 0-12 2.34l2.16 6.24a28.7 28.7 0 0 1 8.34-1.68c3.9 0 5.4 1.14 5.4 4.92v1.38h-3.24c-9.66 0-14.94 3.78-14.94 10.74 0 5.82 4.02 9.96 10.38 9.96 3.78 0 7.32-1.26 9.6-4.8 1.44 3.18 3.9 4.32 7.68 4.62l1.98-6.18c-1.5-.54-2.16-1.44-2.16-3.9zm-14.34 3.48c-2.34 0-3.72-1.5-3.72-4.02 0-3.18 2.1-4.68 6.42-4.68h2.34v5.64a5.676 5.676 0 0 1-5.04 3.06zm71.34-27.12c-4.08 0-7.02 1.68-9.54 5.04a7.562 7.562 0 0 0-7.5-5.04c-3.9 0-6.78 1.62-9.24 4.74l-.66-3.72h-8.28v31.86h9.48v-21.78c1.38-2.64 2.88-4.14 4.86-4.14 1.44 0 2.7.9 2.7 4.26v21.66h9.48v-21.78c1.38-2.64 2.82-4.14 4.86-4.14 1.44 0 2.7.9 2.7 4.26v21.66h9.48v-23.28c0-6.06-3.42-9.6-8.34-9.6zm40.8 23.64v-12.36c0-7.38-3.96-11.28-13.2-11.28a35.993 35.993 0 0 0-12 2.34l2.16 6.24a28.7 28.7 0 0 1 8.34-1.68c3.9 0 5.4 1.14 5.4 4.92v1.38h-3.24c-9.66 0-14.94 3.78-14.94 10.74 0 5.82 4.02 9.96 10.38 9.96 3.78 0 7.32-1.26 9.6-4.8 1.44 3.18 3.9 4.32 7.68 4.62l1.98-6.18c-1.5-.54-2.16-1.44-2.16-3.9zm-14.34 3.48c-2.34 0-3.72-1.5-3.72-4.02 0-3.18 2.1-4.68 6.42-4.68h2.34v5.64a5.676 5.676 0 0 1-5.04 3.06zm38.34 5.76 10.02-31.86h-9.66l-5.88 24.66-5.64-24.66h-10.32l10.26 31.86Zm40.56-16.56c0-10.32-5.58-16.32-14.7-16.32-9.66 0-14.88 7.56-14.88 17.1 0 9.96 5.4 16.8 16.02 16.8a19.589 19.589 0 0 0 12.42-4.44l-3.9-5.28c-2.76 1.92-5.04 2.82-7.62 2.82-3.9 0-6.6-1.56-7.26-7.26h19.74a31.809 31.809 0 0 0 .18-3.42zm-9.3-2.28h-10.62c.42-5.7 2.28-7.74 5.46-7.74 3.78 0 5.1 3 5.16 7.32zm42.78-14.04c-9.72 0-15.6 6.72-15.6 16.92 0 10.74 5.94 16.98 15.6 16.98 9.72 0 15.6-6.72 15.6-16.92 0-10.74-5.88-16.98-15.6-16.98zm0 6.96c3.84 0 5.76 2.94 5.76 10.02 0 6.9-1.92 9.96-5.76 9.96s-5.76-2.94-5.76-10.02c0-6.9 1.92-9.96 5.76-9.96zm50.58-4.08-2.22-7.02a25.233 25.233 0 0 1-15 4.14c-8.34 0-13.98 4.44-13.98 11.64 0 4.14 1.62 6.96 5.7 9.12a7.588 7.588 0 0 0-3.78 6.12c0 3.42 2.82 6.3 9.78 6.3h4.62c3.18 0 4.56 1.26 4.56 3.12 0 2.04-1.32 3.6-6.9 3.6-5.76 0-6.96-1.2-6.96-3.96h-8.52c0 6.3 3.18 10.26 15.24 10.26 10.92 0 16.68-4.02 16.68-10.56 0-5.34-4.74-9.24-12.18-9.24h-4.8c-3.06 0-3.48-.96-3.48-1.92a2.039 2.039 0 0 1 1.02-1.8 17.609 17.609 0 0 0 3.66.36c8.28 0 13.38-4.5 13.38-10.68 0-4.14-1.98-6.48-6-8.22 4.02 0 6.96-.36 9.18-1.26zm-16.98 3.36c3.18 0 4.8 1.62 4.8 5.16 0 3.66-1.68 5.52-4.8 5.52-2.88 0-4.8-1.92-4.8-5.4 0-3.3 1.86-5.28 4.8-5.28zm54.9 25.14-3.18-6.06a6.3 6.3 0 0 1-3.42 1.08c-1.98 0-3-1.08-3-4.14v-14.64h6.3l1.02-6.6h-7.32v-7.98l-9.48 1.08v6.9h-4.5v6.6h4.5v14.76c0 7.5 3.42 11.46 10.44 11.52a15.781 15.781 0 0 0 8.64-2.52zm28.5-7.74v-12.36c0-7.38-3.96-11.28-13.2-11.28a35.993 35.993 0 0 0-12 2.34l2.16 6.24a28.7 28.7 0 0 1 8.34-1.68c3.9 0 5.4 1.14 5.4 4.92v1.38h-3.24c-9.66 0-14.94 3.78-14.94 10.74 0 5.82 4.02 9.96 10.38 9.96 3.78 0 7.32-1.26 9.6-4.8 1.44 3.18 3.9 4.32 7.68 4.62l1.98-6.18c-1.5-.54-2.16-1.44-2.16-3.9zm-14.34 3.48c-2.34 0-3.72-1.5-3.72-4.02 0-3.18 2.1-4.68 6.42-4.68h2.34v5.64a5.676 5.676 0 0 1-5.04 3.06zm39.18-27c-3.66 0-6.78 2.64-8.22 7.08l-.78-6.18h-8.28v31.86h9.48v-15.78c1.02-4.86 2.64-7.8 6.6-7.8a11.517 11.517 0 0 1 2.88.42l1.5-9.18a10.733 10.733 0 0 0-3.18-.42zm42-.12c-4.08 0-7.02 1.68-9.54 5.04a7.562 7.562 0 0 0-7.5-5.04c-3.9 0-6.78 1.62-9.24 4.74l-.66-3.72h-8.28v31.86h9.48v-21.78c1.38-2.64 2.88-4.14 4.86-4.14 1.44 0 2.7.9 2.7 4.26v21.66h9.48v-21.78c1.38-2.64 2.82-4.14 4.86-4.14 1.44 0 2.7.9 2.7 4.26v21.66h9.48v-23.28c0-6.06-3.42-9.6-8.34-9.6z" data-name="Path 2008"/><text fill="#323f51" data-name="Mavesmerter Hyppige, løse afføringer Diarré Oppustethed Kvalme Sure opstød Svie eller smerter i toppen af maven" font-family="FiraSans-Book, 'Fira Sans'" font-size="40" transform="translate(-10743.818 -19854.746)"><tspan x="0" y="43">Mavesmerter</tspan><tspan x="0" y="123">Hyppige, løse afføringer</tspan><tspan x="0" y="203">Diarré</tspan><tspan x="0" y="283">Oppustethed</tspan><tspan x="0" y="363">Kvalme</tspan><tspan x="0" y="443">Sure opstød</tspan><tspan x="0" y="523">Svie eller smerter i toppen af maven</tspan></text><circle cx="16" cy="16" r="16" fill="#903" data-name="Ellipse 211" transform="translate(-10844 -19837.982)"/><circle cx="16" cy="16" r="16" fill="#903" data-name="Ellipse 212" transform="translate(-10844 -19757.982)"/><circle cx="16" cy="16" r="16" fill="#903" data-name="Ellipse 213" transform="translate(-10844 -19677.982)"/><circle cx="16" cy="16" r="16" fill="#903" data-name="Ellipse 214" transform="translate(-10844 -19598.982)"/><circle cx="16" cy="16" r="16" fill="#903" data-name="Ellipse 215" transform="translate(-10844 -19518.982)"/><circle cx="16" cy="16" r="16" fill="#903" data-name="Ellipse 216" transform="translate(-10844 -19438.982)"/><circle cx="16" cy="16" r="16" fill="#903" data-name="Ellipse 217" transform="translate(-10844 -19358.982)"/></g></g></g></svg>