<?xml version="1.0" encoding="UTF-8" standalone="no"?>
<svg
   width="2491.6204"
   height="1807.365"
   viewBox="0 0 2491.6204 1807.365"
   version="1.1"
   id="svg110"
   sodipodi:docname="symptom-grupperne_clean.svg"
   inkscape:version="1.1 (c4e8f9ed74, 2021-05-24)"
   xmlns:inkscape="http://www.inkscape.org/namespaces/inkscape"
   xmlns:sodipodi="http://sodipodi.sourceforge.net/DTD/sodipodi-0.dtd"
   xmlns="http://www.w3.org/2000/svg"
   xmlns:svg="http://www.w3.org/2000/svg">
  <sodipodi:namedview
     id="namedview112"
     pagecolor="#ffffff"
     bordercolor="#666666"
     borderopacity="1.0"
     inkscape:pageshadow="2"
     inkscape:pageopacity="0.0"
     inkscape:pagecheckerboard="0"
     showgrid="false"
     fit-margin-top="0"
     fit-margin-left="0"
     fit-margin-right="0"
     fit-margin-bottom="0"
     inkscape:zoom="0.26598985"
     inkscape:cx="783.8645"
     inkscape:cy="390.99237"
     inkscape:window-width="1530"
     inkscape:window-height="1048"
     inkscape:window-x="3264"
     inkscape:window-y="26"
     inkscape:window-maximized="1"
     inkscape:current-layer="symptom-grupperne" />
  <defs
     id="defs5">
    <clipPath
       id="clip-symptom-grupperne">
      <rect
         width="2748"
         height="1970"
         id="rect2"
         x="0"
         y="0" />
    </clipPath>
  </defs>
  <g
     id="symptom-grupperne"
     clip-path="url(#clip-symptom-grupperne)"
     transform="translate(-89.985,-81.015985)">
    <g
       id="Group_1511"
       data-name="Group 1511"
       transform="translate(12343,20220)">
      <path
         id="Rectangle_541"
         data-name="Rectangle 541"
         d="M 30,0 H 63.235 V 750.984 H 40 a 40,40 0 0 1 -40,-40 V 30 A 30,30 0 0 1 30,0 Z"
         transform="translate(-12253.015,-20133.984)"
         fill="#0e9cb2" />
      <rect
         id="Rectangle_530"
         data-name="Rectangle 530"
         width="1172.235"
         height="750.98401"
         rx="41"
         transform="translate(-12213.648,-20133.984)"
         fill="#ffffff"
         stroke="#0e9cb2"
         stroke-width="10"
         stroke-dasharray="20"
         x="0"
         y="0" />
      <path
         id="Path_2007"
         data-name="Path 2007"
         d="M 23.64,55.06 25.8,64 H 36.24 L 23.7,22.42 H 11.76 L -0.78,64 h 10.2 l 2.1,-8.94 z M 21.96,47.92 H 13.2 l 4.38,-18.36 z m 26.34,7.14 v -36.6 l -9.48,1.02 v 36.54 c 0,5.88 3.12,9 8.4,9 a 17.155,17.155 0 0 0 6.12,-1.08 l -1.86,-6.72 a 4.507,4.507 0 0 1 -1.56,0.3 c -1.02,0 -1.62,-0.66 -1.62,-2.46 z M 92.16,31.12 c -4.08,0 -7.02,1.68 -9.54,5.04 a 7.562,7.562 0 0 0 -7.5,-5.04 c -3.9,0 -6.78,1.62 -9.24,4.74 L 65.22,32.14 H 56.94 V 64 h 9.48 V 42.22 c 1.38,-2.64 2.88,-4.14 4.86,-4.14 1.44,0 2.7,0.9 2.7,4.26 V 64 h 9.48 V 42.22 c 1.38,-2.64 2.82,-4.14 4.86,-4.14 1.44,0 2.7,0.9 2.7,4.26 V 64 h 9.48 V 40.72 c 0,-6.06 -3.42,-9.6 -8.34,-9.6 z m 43.26,16.32 c 0,-10.32 -5.58,-16.32 -14.7,-16.32 -9.66,0 -14.88,7.56 -14.88,17.1 0,9.96 5.4,16.8 16.02,16.8 a 19.589,19.589 0 0 0 12.42,-4.44 l -3.9,-5.28 c -2.76,1.92 -5.04,2.82 -7.62,2.82 -3.9,0 -6.6,-1.56 -7.26,-7.26 h 19.74 a 31.809,31.809 0 0 0 0.18,-3.42 z m -9.3,-2.28 H 115.5 c 0.42,-5.7 2.28,-7.74 5.46,-7.74 3.78,0 5.1,3 5.16,7.32 z m 33.42,-14.04 c -3.96,0 -7.02,1.62 -9.72,4.8 l -0.66,-3.78 h -8.28 V 64 h 9.48 V 42.22 c 1.68,-2.64 3.42,-4.14 5.52,-4.14 1.86,0 3,0.9 3,4.26 V 64 h 9.48 V 40.72 c 0,-6.06 -3.3,-9.6 -8.82,-9.6 z m 43.74,16.32 c 0,-10.32 -5.58,-16.32 -14.7,-16.32 -9.66,0 -14.88,7.56 -14.88,17.1 0,9.96 5.4,16.8 16.02,16.8 a 19.589,19.589 0 0 0 12.42,-4.44 l -3.9,-5.28 c -2.76,1.92 -5.04,2.82 -7.62,2.82 -3.9,0 -6.6,-1.56 -7.26,-7.26 h 19.74 a 31.809,31.809 0 0 0 0.18,-3.42 z m -9.3,-2.28 h -10.62 c 0.42,-5.7 2.28,-7.74 5.46,-7.74 3.78,0 5.1,3 5.16,7.32 z m 40.2,-14.04 c -8.04,0 -13.02,4.26 -13.02,9.72 0,4.92 3.12,8.16 9.42,9.96 5.76,1.62 6.72,2.28 6.72,4.5 0,1.86 -1.74,2.94 -4.68,2.94 a 13.335,13.335 0 0 1 -8.34,-3.18 l -4.68,5.22 a 19.811,19.811 0 0 0 13.32,4.74 c 7.92,0 14.16,-3.9 14.16,-10.5 0,-5.7 -3.54,-8.34 -9.84,-10.14 -5.7,-1.68 -6.54,-2.4 -6.54,-4.08 0,-1.44 1.26,-2.4 4.14,-2.4 a 14.031,14.031 0 0 1 7.56,2.52 l 3.48,-5.4 a 18.538,18.538 0 0 0 -11.7,-3.9 z m 34.74,32.94 10.14,-31.92 h -9.78 l -6.24,25.8 -5.7,-25.8 H 247.26 L 256.98,64 h 3.24 c -1.74,4.08 -4.02,5.88 -10.26,6.66 l 1.02,6.66 C 261,76.78 266.4,72.1 268.92,64.06 Z m 48.72,-32.94 c -4.08,0 -7.02,1.68 -9.54,5.04 a 7.562,7.562 0 0 0 -7.5,-5.04 c -3.9,0 -6.78,1.62 -9.24,4.74 l -0.66,-3.72 h -8.28 V 64 h 9.48 V 42.22 c 1.38,-2.64 2.88,-4.14 4.86,-4.14 1.44,0 2.7,0.9 2.7,4.26 V 64 h 9.48 V 42.22 c 1.38,-2.64 2.82,-4.14 4.86,-4.14 1.44,0 2.7,0.9 2.7,4.26 V 64 h 9.48 V 40.72 c 0,-6.06 -3.42,-9.6 -8.34,-9.6 z m 33.3,0 a 11.514,11.514 0 0 0 -9,4.56 l -0.48,-3.54 h -8.34 V 77.32 L 342.6,76.3 V 61.72 a 9.945,9.945 0 0 0 7.74,3.3 c 7.86,0 12.66,-7.2 12.66,-17.04 0,-10.32 -3.66,-16.86 -12.06,-16.86 z m -3.48,26.94 A 5.644,5.644 0 0 1 342.6,55.24 V 41.8 c 1.38,-2.34 3.24,-3.72 5.34,-3.72 3.3,0 5.22,2.1 5.22,10.02 0,7.14 -2.16,9.96 -5.7,9.96 z m 41.46,4.44 -3.18,-6.06 a 6.3,6.3 0 0 1 -3.42,1.08 c -1.98,0 -3,-1.08 -3,-4.14 V 38.74 h 6.3 l 1.02,-6.6 h -7.32 v -7.98 l -9.48,1.08 v 6.9 h -4.5 v 6.6 h 4.5 V 53.5 c 0,7.5 3.42,11.46 10.44,11.52 a 15.781,15.781 0 0 0 8.64,-2.52 z M 405.3,31.12 c -9.72,0 -15.6,6.72 -15.6,16.92 0,10.74 5.94,16.98 15.6,16.98 9.72,0 15.6,-6.72 15.6,-16.92 0,-10.74 -5.88,-16.98 -15.6,-16.98 z m 0,6.96 c 3.84,0 5.76,2.94 5.76,10.02 0,6.9 -1.92,9.96 -5.76,9.96 -3.84,0 -5.76,-2.94 -5.76,-10.02 0,-6.9 1.92,-9.96 5.76,-9.96 z m 56.46,-6.96 c -4.08,0 -7.02,1.68 -9.54,5.04 a 7.562,7.562 0 0 0 -7.5,-5.04 c -3.9,0 -6.78,1.62 -9.24,4.74 l -0.66,-3.72 h -8.28 V 64 h 9.48 V 42.22 c 1.38,-2.64 2.88,-4.14 4.86,-4.14 1.44,0 2.7,0.9 2.7,4.26 V 64 h 9.48 V 42.22 c 1.38,-2.64 2.82,-4.14 4.86,-4.14 1.44,0 2.7,0.9 2.7,4.26 V 64 h 9.48 V 40.72 c 0,-6.06 -3.42,-9.6 -8.34,-9.6 z m 43.26,16.32 c 0,-10.32 -5.58,-16.32 -14.7,-16.32 -9.66,0 -14.88,7.56 -14.88,17.1 0,9.96 5.4,16.8 16.02,16.8 a 19.589,19.589 0 0 0 12.42,-4.44 l -3.9,-5.28 c -2.76,1.92 -5.04,2.82 -7.62,2.82 -3.9,0 -6.6,-1.56 -7.26,-7.26 h 19.74 a 31.809,31.809 0 0 0 0.18,-3.42 z m -9.3,-2.28 H 485.1 c 0.42,-5.7 2.28,-7.74 5.46,-7.74 3.78,0 5.1,3 5.16,7.32 z m 32.04,-13.92 c -3.66,0 -6.78,2.64 -8.22,7.08 l -0.78,-6.18 h -8.28 V 64 h 9.48 V 48.22 c 1.02,-4.86 2.64,-7.8 6.6,-7.8 a 11.517,11.517 0 0 1 2.88,0.42 l 1.5,-9.18 a 10.733,10.733 0 0 0 -3.18,-0.42 z"
         transform="translate(-12092.76,-20017.223)"
         fill="#009cb2" />
      <text
         id="Koncentrationsbesvær_Hukommelsesbesvær_Træthed_Hovedpine_Svimmelhed"
         data-name="Koncentrationsbesvær Hukommelsesbesvær Træthed Hovedpine Svimmelhed"
         transform="translate(-11993.223,-19874)"
         fill="#323f51"
         font-size="40px"
         font-family="FiraSans-Book, 'Fira Sans'"><tspan
           x="0"
           y="43"
           id="tspan12">Koncentrationsbesvær</tspan><tspan
           x="0"
           y="123"
           id="tspan14">Hukommelsesbesvær</tspan><tspan
           x="0"
           y="203"
           id="tspan16">Træthed</tspan><tspan
           x="0"
           y="283"
           id="tspan18">Hovedpine</tspan><tspan
           x="0"
           y="363"
           id="tspan20">Svimmelhed</tspan></text>
      <circle
         id="Ellipse_180"
         data-name="Ellipse 180"
         cx="16"
         cy="16"
         r="16"
         transform="translate(-12092.76,-19857.246)"
         fill="#009cb2" />
      <circle
         id="Ellipse_181"
         data-name="Ellipse 181"
         cx="16"
         cy="16"
         r="16"
         transform="translate(-12092.76,-19777.246)"
         fill="#009cb2" />
      <circle
         id="Ellipse_182"
         data-name="Ellipse 182"
         cx="16"
         cy="16"
         r="16"
         transform="translate(-12092.76,-19697.246)"
         fill="#009cb2" />
      <circle
         id="Ellipse_183"
         data-name="Ellipse 183"
         cx="16"
         cy="16"
         r="16"
         transform="translate(-12092.76,-19618.246)"
         fill="#009cb2" />
      <circle
         id="Ellipse_184"
         data-name="Ellipse 184"
         cx="16"
         cy="16"
         r="16"
         transform="translate(-12092.76,-19538.246)"
         fill="#009cb2" />
    </g>
    <g
       id="Group_1513"
       data-name="Group 1513"
       transform="translate(12343,20220)">
      <path
         id="Rectangle_543"
         data-name="Rectangle 543"
         d="M 30,0 H 63.235 V 810.43 H 40 a 40,40 0 0 1 -40,-40 V 30 A 30,30 0 0 1 30,0 Z"
         transform="translate(-10970.266,-19147.049)"
         fill="#dca13d" />
      <g
         id="Group_1504"
         data-name="Group 1504"
         transform="translate(26)">
        <rect
           id="Rectangle_532"
           data-name="Rectangle 532"
           width="1172.235"
           height="810.42999"
           rx="41"
           transform="translate(-10964.648,-19147.049)"
           fill="#ffffff"
           stroke="#dca13d"
           stroke-width="10"
           stroke-dasharray="20"
           x="0"
           y="0" />
        <path
           id="Path_2010"
           data-name="Path 2010"
           d="m 17.28,21.4 c -8.64,0 -15,4.68 -15,12 0,6.18 3.42,10.02 12.72,12.9 6.06,1.86 7.62,3.24 7.62,6.3 0,3.18 -2.52,5.1 -6.6,5.1 A 15.058,15.058 0 0 1 5.58,53.56 l -5.04,5.52 c 3.42,3.3 8.58,5.94 15.78,5.94 10.38,0 16.5,-5.4 16.5,-13.14 0,-7.68 -4.5,-10.92 -12.36,-13.44 -6.48,-2.04 -8.04,-3.12 -8.04,-5.76 0,-2.64 2.16,-4.08 5.58,-4.08 a 13.641,13.641 0 0 1 9.06,3.48 l 4.62,-5.34 C 28.02,23.26 23.64,21.4 17.28,21.4 Z M 54.42,64.06 64.56,32.14 h -9.78 l -6.24,25.8 -5.7,-25.8 H 32.76 L 42.48,64 h 3.24 c -1.74,4.08 -4.02,5.88 -10.26,6.66 l 1.02,6.66 C 46.5,76.78 51.9,72.1 54.42,64.06 Z m 48.72,-32.94 c -4.08,0 -7.02,1.68 -9.54,5.04 a 7.562,7.562 0 0 0 -7.5,-5.04 c -3.9,0 -6.78,1.62 -9.24,4.74 L 76.2,32.14 H 67.92 V 64 H 77.4 V 42.22 c 1.38,-2.64 2.88,-4.14 4.86,-4.14 1.44,0 2.7,0.9 2.7,4.26 V 64 h 9.48 V 42.22 c 1.38,-2.64 2.82,-4.14 4.86,-4.14 1.44,0 2.7,0.9 2.7,4.26 V 64 h 9.48 V 40.72 c 0,-6.06 -3.42,-9.6 -8.34,-9.6 z m 33.3,0 a 11.514,11.514 0 0 0 -9,4.56 l -0.48,-3.54 h -8.34 V 77.32 L 128.1,76.3 V 61.72 a 9.945,9.945 0 0 0 7.74,3.3 c 7.86,0 12.66,-7.2 12.66,-17.04 0,-10.32 -3.66,-16.86 -12.06,-16.86 z m -3.48,26.94 A 5.644,5.644 0 0 1 128.1,55.24 V 41.8 c 1.38,-2.34 3.24,-3.72 5.34,-3.72 3.3,0 5.22,2.1 5.22,10.02 0,7.14 -2.16,9.96 -5.7,9.96 z m 41.46,4.44 -3.18,-6.06 a 6.3,6.3 0 0 1 -3.42,1.08 c -1.98,0 -3,-1.08 -3,-4.14 V 38.74 h 6.3 l 1.02,-6.6 h -7.32 v -7.98 l -9.48,1.08 v 6.9 h -4.5 v 6.6 h 4.5 V 53.5 c 0,7.5 3.42,11.46 10.44,11.52 a 15.781,15.781 0 0 0 8.64,-2.52 z M 190.8,31.12 c -9.72,0 -15.6,6.72 -15.6,16.92 0,10.74 5.94,16.98 15.6,16.98 9.72,0 15.6,-6.72 15.6,-16.92 0,-10.74 -5.88,-16.98 -15.6,-16.98 z m 0,6.96 c 3.84,0 5.76,2.94 5.76,10.02 0,6.9 -1.92,9.96 -5.76,9.96 -3.84,0 -5.76,-2.94 -5.76,-10.02 0,-6.9 1.92,-9.96 5.76,-9.96 z m 56.46,-6.96 c -4.08,0 -7.02,1.68 -9.54,5.04 a 7.562,7.562 0 0 0 -7.5,-5.04 c -3.9,0 -6.78,1.62 -9.24,4.74 l -0.66,-3.72 h -8.28 V 64 h 9.48 V 42.22 c 1.38,-2.64 2.88,-4.14 4.86,-4.14 1.44,0 2.7,0.9 2.7,4.26 V 64 h 9.48 V 42.22 c 1.38,-2.64 2.82,-4.14 4.86,-4.14 1.44,0 2.7,0.9 2.7,4.26 V 64 h 9.48 V 40.72 c 0,-6.06 -3.42,-9.6 -8.34,-9.6 z m 43.26,16.32 c 0,-10.32 -5.58,-16.32 -14.7,-16.32 -9.66,0 -14.88,7.56 -14.88,17.1 0,9.96 5.4,16.8 16.02,16.8 a 19.589,19.589 0 0 0 12.42,-4.44 l -3.9,-5.28 c -2.76,1.92 -5.04,2.82 -7.62,2.82 -3.9,0 -6.6,-1.56 -7.26,-7.26 h 19.74 a 31.809,31.809 0 0 0 0.18,-3.42 z m -9.3,-2.28 H 270.6 c 0.42,-5.7 2.28,-7.74 5.46,-7.74 3.78,0 5.1,3 5.16,7.32 z m 32.04,-13.92 c -3.66,0 -6.78,2.64 -8.22,7.08 l -0.78,-6.18 h -8.28 V 64 h 9.48 V 48.22 c 1.02,-4.86 2.64,-7.8 6.6,-7.8 a 11.517,11.517 0 0 1 2.88,0.42 l 1.5,-9.18 a 10.733,10.733 0 0 0 -3.18,-0.42 z m 35.58,-5.76 a 11.319,11.319 0 0 1 4.98,1.2 l 2.58,-6.18 a 19.387,19.387 0 0 0 -8.7,-2.04 c -8.16,0 -12.18,4.74 -12.18,10.86 v 2.82 h -4.8 v 6.6 h 4.8 V 64 H 345 V 38.74 h 6.48 l 1.02,-6.6 H 345 v -2.46 c 0,-3 1.08,-4.2 3.84,-4.2 z m 24.06,5.76 c -3.66,0 -6.78,2.64 -8.22,7.08 l -0.78,-6.18 h -8.28 V 64 h 9.48 V 48.22 c 1.02,-4.86 2.64,-7.8 6.6,-7.8 a 11.517,11.517 0 0 1 2.88,0.42 l 1.5,-9.18 a 10.733,10.733 0 0 0 -3.18,-0.42 z m 30.9,23.52 V 42.4 c 0,-7.38 -3.96,-11.28 -13.2,-11.28 a 35.993,35.993 0 0 0 -12,2.34 l 2.16,6.24 a 28.7,28.7 0 0 1 8.34,-1.68 c 3.9,0 5.4,1.14 5.4,4.92 v 1.38 h -3.24 c -9.66,0 -14.94,3.78 -14.94,10.74 0,5.82 4.02,9.96 10.38,9.96 3.78,0 7.32,-1.26 9.6,-4.8 1.44,3.18 3.9,4.32 7.68,4.62 l 1.98,-6.18 c -1.5,-0.54 -2.16,-1.44 -2.16,-3.9 z m -14.34,3.48 c -2.34,0 -3.72,-1.5 -3.72,-4.02 0,-3.18 2.1,-4.68 6.42,-4.68 h 2.34 v 5.64 a 5.676,5.676 0 0 1 -5.04,3.06 z m 54.78,-27.12 a 11.614,11.614 0 0 0 -9.18,4.44 V 18.52 l -9.48,0.96 V 64 h 9.48 V 42.16 c 1.68,-2.58 3.42,-4.08 5.52,-4.08 1.8,0 3,0.9 3,4.26 V 64 h 9.48 V 40.72 c 0,-6.06 -3.3,-9.6 -8.82,-9.6 z m 20.64,-15.78 a 5.405,5.405 0 1 0 5.64,5.4 5.313,5.313 0 0 0 -5.64,-5.4 z m 4.74,45.06 V 32.14 h -9.48 V 61 c 0,5.82 -2.4,7.5 -6.48,9.36 l 3.18,6.9 c 7.44,-2.7 12.78,-6.48 12.78,-16.86 z m 35.22,-12.96 c 0,-10.32 -5.58,-16.32 -14.7,-16.32 -9.66,0 -14.88,7.56 -14.88,17.1 0,9.96 5.4,16.8 16.02,16.8 a 19.589,19.589 0 0 0 12.42,-4.44 l -3.9,-5.28 c -2.76,1.92 -5.04,2.82 -7.62,2.82 -3.9,0 -6.6,-1.56 -7.26,-7.26 h 19.74 a 31.809,31.809 0 0 0 0.18,-3.42 z m -9.3,-2.28 h -10.62 c 0.42,-5.7 2.28,-7.74 5.46,-7.74 3.78,0 5.1,3 5.16,7.32 z m 32.04,-13.92 c -3.66,0 -6.78,2.64 -8.22,7.08 l -0.78,-6.18 H 510.3 V 64 h 9.48 V 48.22 c 1.02,-4.86 2.64,-7.8 6.6,-7.8 a 11.517,11.517 0 0 1 2.88,0.42 l 1.5,-9.18 a 10.734,10.734 0 0 0 -3.18,-0.42 z m 27.96,31.26 -3.18,-6.06 a 6.3,6.3 0 0 1 -3.42,1.08 c -1.98,0 -3,-1.08 -3,-4.14 V 38.74 h 6.3 l 1.02,-6.6 h -7.32 v -7.98 l -9.48,1.08 v 6.9 h -4.5 v 6.6 h 4.5 V 53.5 c 0,7.5 3.42,11.46 10.44,11.52 a 15.781,15.781 0 0 0 8.64,-2.52 z M 585.9,47.44 c 0,-10.32 -5.58,-16.32 -14.7,-16.32 -9.66,0 -14.88,7.56 -14.88,17.1 0,9.96 5.4,16.8 16.02,16.8 a 19.589,19.589 0 0 0 12.42,-4.44 l -3.9,-5.28 c -2.76,1.92 -5.04,2.82 -7.62,2.82 -3.9,0 -6.6,-1.56 -7.26,-7.26 h 19.74 a 31.809,31.809 0 0 0 0.18,-3.42 z m -9.3,-2.28 h -10.62 c 0.42,-5.7 2.28,-7.74 5.46,-7.74 3.78,0 5.1,3 5.16,7.32 z m 42.78,-14.04 c -9.72,0 -15.6,6.72 -15.6,16.92 0,10.74 5.94,16.98 15.6,16.98 9.72,0 15.6,-6.72 15.6,-16.92 0,-10.74 -5.88,-16.98 -15.6,-16.98 z m 0,6.96 c 3.84,0 5.76,2.94 5.76,10.02 0,6.9 -1.92,9.96 -5.76,9.96 -3.84,0 -5.76,-2.94 -5.76,-10.02 0,-6.9 1.92,-9.96 5.76,-9.96 z M 669.96,34 667.74,26.98 a 25.233,25.233 0 0 1 -15,4.14 c -8.34,0 -13.98,4.44 -13.98,11.64 0,4.14 1.62,6.96 5.7,9.12 A 7.588,7.588 0 0 0 640.68,58 c 0,3.42 2.82,6.3 9.78,6.3 h 4.62 c 3.18,0 4.56,1.26 4.56,3.12 0,2.04 -1.32,3.6 -6.9,3.6 -5.76,0 -6.96,-1.2 -6.96,-3.96 h -8.52 c 0,6.3 3.18,10.26 15.24,10.26 10.92,0 16.68,-4.02 16.68,-10.56 0,-5.34 -4.74,-9.24 -12.18,-9.24 h -4.8 c -3.06,0 -3.48,-0.96 -3.48,-1.92 a 2.039,2.039 0 0 1 1.02,-1.8 17.609,17.609 0 0 0 3.66,0.36 c 8.28,0 13.38,-4.5 13.38,-10.68 0,-4.14 -1.98,-6.48 -6,-8.22 4.02,0 6.96,-0.36 9.18,-1.26 z m -16.98,3.36 c 3.18,0 4.8,1.62 4.8,5.16 0,3.66 -1.68,5.52 -4.8,5.52 -2.88,0 -4.8,-1.92 -4.8,-5.4 0,-3.3 1.86,-5.28 4.8,-5.28 z m 44.1,17.7 v -36.6 l -9.48,1.02 v 36.54 c 0,5.88 3.12,9 8.4,9 a 17.155,17.155 0 0 0 6.12,-1.08 l -1.86,-6.72 a 4.507,4.507 0 0 1 -1.56,0.3 c -1.02,0 -1.62,-0.66 -1.62,-2.46 z M 732.6,64 V 32.14 h -9.48 v 22.14 c -1.38,2.4 -3.18,3.72 -5.16,3.72 -1.98,0 -3.06,-0.96 -3.06,-4.2 V 32.14 h -9.48 V 55 c 0,6.18 2.94,10.02 8.88,10.02 a 11.027,11.027 0 0 0 9.66,-5.04 l 0.42,4.02 z m 26.1,-32.88 c -3.96,0 -7.02,1.62 -9.72,4.8 l -0.66,-3.78 h -8.28 V 64 h 9.48 V 42.22 c 1.68,-2.64 3.42,-4.14 5.52,-4.14 1.86,0 3,0.9 3,4.26 V 64 h 9.48 V 40.72 c 0,-6.06 -3.3,-9.6 -8.82,-9.6 z M 804,34 801.78,26.98 a 25.233,25.233 0 0 1 -15,4.14 c -8.34,0 -13.98,4.44 -13.98,11.64 0,4.14 1.62,6.96 5.7,9.12 A 7.588,7.588 0 0 0 774.72,58 c 0,3.42 2.82,6.3 9.78,6.3 h 4.62 c 3.18,0 4.56,1.26 4.56,3.12 0,2.04 -1.32,3.6 -6.9,3.6 -5.76,0 -6.96,-1.2 -6.96,-3.96 h -8.52 c 0,6.3 3.18,10.26 15.24,10.26 10.92,0 16.68,-4.02 16.68,-10.56 0,-5.34 -4.74,-9.24 -12.18,-9.24 h -4.8 c -3.06,0 -3.48,-0.96 -3.48,-1.92 a 2.039,2.039 0 0 1 1.02,-1.8 17.609,17.609 0 0 0 3.66,0.36 c 8.28,0 13.38,-4.5 13.38,-10.68 0,-4.14 -1.98,-6.48 -6,-8.22 4.02,0 6.96,-0.36 9.18,-1.26 z m -16.98,3.36 c 3.18,0 4.8,1.62 4.8,5.16 0,3.66 -1.68,5.52 -4.8,5.52 -2.88,0 -4.8,-1.92 -4.8,-5.4 0,-3.3 1.86,-5.28 4.8,-5.28 z m 47.58,10.08 c 0,-10.32 -5.58,-16.32 -14.7,-16.32 -9.66,0 -14.88,7.56 -14.88,17.1 0,9.96 5.4,16.8 16.02,16.8 a 19.589,19.589 0 0 0 12.42,-4.44 l -3.9,-5.28 c -2.76,1.92 -5.04,2.82 -7.62,2.82 -3.9,0 -6.6,-1.56 -7.26,-7.26 h 19.74 a 31.809,31.809 0 0 0 0.18,-3.42 z m -9.3,-2.28 h -10.62 c 0.42,-5.7 2.28,-7.74 5.46,-7.74 3.78,0 5.1,3 5.16,7.32 z"
           transform="translate(-10843.76,-19043.119)"
           fill="#e79e17" />
        <text
           id="Hjertebanken_eller_uro_i_brystet_Trykken_eller_smerter_i_brystet_Forpustethed_uden_anstrengelse_Anfald_med_vejrtrækningsbesvær_Varm-_eller_koldsveden_Mundtørhed"
           data-name="Hjertebanken eller uro i brystet Trykken eller smerter i brystet Forpustethed uden anstrengelse Anfald med vejrtrækningsbesvær Varm- eller koldsveden Mundtørhed"
           transform="translate(-10744.223,-18896.092)"
           fill="#323f51"
           font-size="40px"
           font-family="FiraSans-Book, 'Fira Sans'"><tspan
             x="0"
             y="43"
             id="tspan32">Hjertebanken eller uro i brystet</tspan><tspan
             x="0"
             y="123"
             id="tspan34">Trykken eller smerter i brystet</tspan><tspan
             x="0"
             y="203"
             id="tspan36">Forpustethed uden anstrengelse</tspan><tspan
             x="0"
             y="283"
             id="tspan38">Anfald med vejrtrækningsbesvær</tspan><tspan
             x="0"
             y="363"
             id="tspan40">Varm- eller koldsveden</tspan><tspan
             x="0"
             y="443"
             id="tspan42">Mundtørhed</tspan></text>
        <circle
           id="Ellipse_206"
           data-name="Ellipse 206"
           cx="16"
           cy="16"
           r="16"
           transform="translate(-10843.76,-18883.143)"
           fill="#dca13d" />
        <circle
           id="Ellipse_207"
           data-name="Ellipse 207"
           cx="16"
           cy="16"
           r="16"
           transform="translate(-10843.76,-18803.143)"
           fill="#dca13d" />
        <circle
           id="Ellipse_208"
           data-name="Ellipse 208"
           cx="16"
           cy="16"
           r="16"
           transform="translate(-10843.76,-18723.143)"
           fill="#dca13d" />
        <circle
           id="Ellipse_209"
           data-name="Ellipse 209"
           cx="16"
           cy="16"
           r="16"
           transform="translate(-10843.76,-18644.143)"
           fill="#dca13d" />
        <circle
           id="Ellipse_210"
           data-name="Ellipse 210"
           cx="16"
           cy="16"
           r="16"
           transform="translate(-10843.76,-18564.143)"
           fill="#dca13d" />
        <circle
           id="Ellipse_218"
           data-name="Ellipse 218"
           cx="16"
           cy="16"
           r="16"
           transform="translate(-10843.76,-18484.143)"
           fill="#dca13d" />
      </g>
    </g>
    <g
       id="Group_1510"
       data-name="Group 1510"
       transform="translate(12343,20220)">
      <path
         id="Rectangle_540"
         data-name="Rectangle 540"
         d="M 30,0 H 63.235 V 965.656 H 40 a 40,40 0 0 1 -40,-40 V 30 A 30,30 0 0 1 30,0 Z"
         transform="translate(-12253.015,-19302.275)"
         fill="#323f51" />
      <g
         id="Group_1503"
         data-name="Group 1503"
         transform="translate(-0.366)">
        <rect
           id="Rectangle_531"
           data-name="Rectangle 531"
           width="1172.235"
           height="965.65601"
           rx="41"
           transform="translate(-12213.282,-19302.275)"
           fill="#ffffff"
           stroke="#323f51"
           stroke-width="10"
           stroke-dasharray="20"
           x="0"
           y="0" />
        <path
           id="Path_2009"
           data-name="Path 2009"
           d="m 17.28,21.4 c -8.64,0 -15,4.68 -15,12 0,6.18 3.42,10.02 12.72,12.9 6.06,1.86 7.62,3.24 7.62,6.3 0,3.18 -2.52,5.1 -6.6,5.1 A 15.058,15.058 0 0 1 5.58,53.56 l -5.04,5.52 c 3.42,3.3 8.58,5.94 15.78,5.94 10.38,0 16.5,-5.4 16.5,-13.14 0,-7.68 -4.5,-10.92 -12.36,-13.44 -6.48,-2.04 -8.04,-3.12 -8.04,-5.76 0,-2.64 2.16,-4.08 5.58,-4.08 a 13.641,13.641 0 0 1 9.06,3.48 l 4.62,-5.34 C 28.02,23.26 23.64,21.4 17.28,21.4 Z M 54.42,64.06 64.56,32.14 h -9.78 l -6.24,25.8 -5.7,-25.8 H 32.76 L 42.48,64 h 3.24 c -1.74,4.08 -4.02,5.88 -10.26,6.66 l 1.02,6.66 C 46.5,76.78 51.9,72.1 54.42,64.06 Z m 48.72,-32.94 c -4.08,0 -7.02,1.68 -9.54,5.04 a 7.562,7.562 0 0 0 -7.5,-5.04 c -3.9,0 -6.78,1.62 -9.24,4.74 L 76.2,32.14 H 67.92 V 64 H 77.4 V 42.22 c 1.38,-2.64 2.88,-4.14 4.86,-4.14 1.44,0 2.7,0.9 2.7,4.26 V 64 h 9.48 V 42.22 c 1.38,-2.64 2.82,-4.14 4.86,-4.14 1.44,0 2.7,0.9 2.7,4.26 V 64 h 9.48 V 40.72 c 0,-6.06 -3.42,-9.6 -8.34,-9.6 z m 33.3,0 a 11.514,11.514 0 0 0 -9,4.56 l -0.48,-3.54 h -8.34 V 77.32 L 128.1,76.3 V 61.72 a 9.945,9.945 0 0 0 7.74,3.3 c 7.86,0 12.66,-7.2 12.66,-17.04 0,-10.32 -3.66,-16.86 -12.06,-16.86 z m -3.48,26.94 A 5.644,5.644 0 0 1 128.1,55.24 V 41.8 c 1.38,-2.34 3.24,-3.72 5.34,-3.72 3.3,0 5.22,2.1 5.22,10.02 0,7.14 -2.16,9.96 -5.7,9.96 z m 41.46,4.44 -3.18,-6.06 a 6.3,6.3 0 0 1 -3.42,1.08 c -1.98,0 -3,-1.08 -3,-4.14 V 38.74 h 6.3 l 1.02,-6.6 h -7.32 v -7.98 l -9.48,1.08 v 6.9 h -4.5 v 6.6 h 4.5 V 53.5 c 0,7.5 3.42,11.46 10.44,11.52 a 15.781,15.781 0 0 0 8.64,-2.52 z M 190.8,31.12 c -9.72,0 -15.6,6.72 -15.6,16.92 0,10.74 5.94,16.98 15.6,16.98 9.72,0 15.6,-6.72 15.6,-16.92 0,-10.74 -5.88,-16.98 -15.6,-16.98 z m 0,6.96 c 3.84,0 5.76,2.94 5.76,10.02 0,6.9 -1.92,9.96 -5.76,9.96 -3.84,0 -5.76,-2.94 -5.76,-10.02 0,-6.9 1.92,-9.96 5.76,-9.96 z m 56.46,-6.96 c -4.08,0 -7.02,1.68 -9.54,5.04 a 7.562,7.562 0 0 0 -7.5,-5.04 c -3.9,0 -6.78,1.62 -9.24,4.74 l -0.66,-3.72 h -8.28 V 64 h 9.48 V 42.22 c 1.38,-2.64 2.88,-4.14 4.86,-4.14 1.44,0 2.7,0.9 2.7,4.26 V 64 h 9.48 V 42.22 c 1.38,-2.64 2.82,-4.14 4.86,-4.14 1.44,0 2.7,0.9 2.7,4.26 V 64 h 9.48 V 40.72 c 0,-6.06 -3.42,-9.6 -8.34,-9.6 z m 43.26,16.32 c 0,-10.32 -5.58,-16.32 -14.7,-16.32 -9.66,0 -14.88,7.56 -14.88,17.1 0,9.96 5.4,16.8 16.02,16.8 a 19.589,19.589 0 0 0 12.42,-4.44 l -3.9,-5.28 c -2.76,1.92 -5.04,2.82 -7.62,2.82 -3.9,0 -6.6,-1.56 -7.26,-7.26 h 19.74 a 31.809,31.809 0 0 0 0.18,-3.42 z m -9.3,-2.28 H 270.6 c 0.42,-5.7 2.28,-7.74 5.46,-7.74 3.78,0 5.1,3 5.16,7.32 z m 32.04,-13.92 c -3.66,0 -6.78,2.64 -8.22,7.08 l -0.78,-6.18 h -8.28 V 64 h 9.48 V 48.22 c 1.02,-4.86 2.64,-7.8 6.6,-7.8 a 11.517,11.517 0 0 1 2.88,0.42 l 1.5,-9.18 a 10.733,10.733 0 0 0 -3.18,-0.42 z m 35.58,-5.76 a 11.319,11.319 0 0 1 4.98,1.2 l 2.58,-6.18 a 19.387,19.387 0 0 0 -8.7,-2.04 c -8.16,0 -12.18,4.74 -12.18,10.86 v 2.82 h -4.8 v 6.6 h 4.8 V 64 H 345 V 38.74 h 6.48 l 1.02,-6.6 H 345 v -2.46 c 0,-3 1.08,-4.2 3.84,-4.2 z m 24.06,5.76 c -3.66,0 -6.78,2.64 -8.22,7.08 l -0.78,-6.18 h -8.28 V 64 h 9.48 V 48.22 c 1.02,-4.86 2.64,-7.8 6.6,-7.8 a 11.517,11.517 0 0 1 2.88,0.42 l 1.5,-9.18 a 10.733,10.733 0 0 0 -3.18,-0.42 z m 30.9,23.52 V 42.4 c 0,-7.38 -3.96,-11.28 -13.2,-11.28 a 35.993,35.993 0 0 0 -12,2.34 l 2.16,6.24 a 28.7,28.7 0 0 1 8.34,-1.68 c 3.9,0 5.4,1.14 5.4,4.92 v 1.38 h -3.24 c -9.66,0 -14.94,3.78 -14.94,10.74 0,5.82 4.02,9.96 10.38,9.96 3.78,0 7.32,-1.26 9.6,-4.8 1.44,3.18 3.9,4.32 7.68,4.62 l 1.98,-6.18 c -1.5,-0.54 -2.16,-1.44 -2.16,-3.9 z m -14.34,3.48 c -2.34,0 -3.72,-1.5 -3.72,-4.02 0,-3.18 2.1,-4.68 6.42,-4.68 h 2.34 v 5.64 a 5.676,5.676 0 0 1 -5.04,3.06 z m 54,-27.12 a 10.571,10.571 0 0 0 -8.4,4.26 V 18.46 l -9.48,1.02 V 64 h 8.4 l 0.48,-3.06 a 10.208,10.208 0 0 0 8.34,4.08 c 7.92,0 12.66,-7.08 12.66,-16.92 0,-10.68 -4.14,-16.98 -12,-16.98 z m -3.36,27 a 5.962,5.962 0 0 1 -5.04,-3.06 V 41.8 c 1.38,-2.34 3.18,-3.72 5.46,-3.72 2.94,0 5.1,1.92 5.1,10.02 0,7.44 -2.28,10.02 -5.52,10.02 z m 49.08,-10.68 c 0,-10.32 -5.58,-16.32 -14.7,-16.32 -9.66,0 -14.88,7.56 -14.88,17.1 0,9.96 5.4,16.8 16.02,16.8 a 19.589,19.589 0 0 0 12.42,-4.44 l -3.9,-5.28 c -2.76,1.92 -5.04,2.82 -7.62,2.82 -3.9,0 -6.6,-1.56 -7.26,-7.26 H 489 a 31.809,31.809 0 0 0 0.18,-3.42 z m -9.3,-2.28 h -10.62 c 0.42,-5.7 2.28,-7.74 5.46,-7.74 3.78,0 5.1,3 5.16,7.32 z M 511.44,64 521.46,32.14 H 511.8 L 505.92,56.8 500.28,32.14 H 489.96 L 500.22,64 Z m 59.34,-16.56 c 0,-10.32 -5.64,-16.32 -14.4,-16.32 a 12.064,12.064 0 0 0 -9.36,4.02 c -1.86,-2.46 -4.86,-4.02 -9.72,-4.02 a 35.993,35.993 0 0 0 -12,2.34 l 2.16,6.3 a 28.7,28.7 0 0 1 8.34,-1.68 c 3.9,0 5.4,1.2 5.4,4.92 v 1.32 h -3.24 c -9.9,0 -15.3,3.78 -15.3,10.74 0,5.82 4.02,9.96 10.62,9.96 4.44,0 8.4,-1.38 11.28,-5.46 2.64,3.36 6.9,5.46 12.66,5.46 a 19.589,19.589 0 0 0 12.42,-4.44 l -3.9,-5.28 c -2.76,1.92 -5.04,2.82 -7.62,2.82 -3.96,0 -6.66,-1.56 -7.26,-7.26 h 19.74 a 31.809,31.809 0 0 0 0.18,-3.42 z m -9.36,-2.28 h -10.56 c 0.42,-5.7 2.28,-7.74 5.4,-7.74 3.78,0 5.16,3 5.16,7.32 z m -25.14,13.08 c -2.34,0 -3.6,-1.44 -3.6,-3.84 0,-3.3 2.04,-4.68 6.24,-4.68 h 2.4 v 0.24 a 17.624,17.624 0 0 0 0.66,4.44 c -1.62,2.4 -3.3,3.84 -5.7,3.84 z M 605.58,34 603.36,26.98 a 25.233,25.233 0 0 1 -15,4.14 c -8.34,0 -13.98,4.44 -13.98,11.64 0,4.14 1.62,6.96 5.7,9.12 A 7.588,7.588 0 0 0 576.3,58 c 0,3.42 2.82,6.3 9.78,6.3 h 4.62 c 3.18,0 4.56,1.26 4.56,3.12 0,2.04 -1.32,3.6 -6.9,3.6 -5.76,0 -6.96,-1.2 -6.96,-3.96 h -8.52 c 0,6.3 3.18,10.26 15.24,10.26 10.92,0 16.68,-4.02 16.68,-10.56 0,-5.34 -4.74,-9.24 -12.18,-9.24 h -4.8 c -3.06,0 -3.48,-0.96 -3.48,-1.92 a 2.039,2.039 0 0 1 1.02,-1.8 17.609,17.609 0 0 0 3.66,0.36 c 8.28,0 13.38,-4.5 13.38,-10.68 0,-4.14 -1.98,-6.48 -6,-8.22 4.02,0 6.96,-0.36 9.18,-1.26 z m -16.98,3.36 c 3.18,0 4.8,1.62 4.8,5.16 0,3.66 -1.68,5.52 -4.8,5.52 -2.88,0 -4.8,-1.92 -4.8,-5.4 0,-3.3 1.86,-5.28 4.8,-5.28 z m 47.58,10.08 c 0,-10.32 -5.58,-16.32 -14.7,-16.32 -9.66,0 -14.88,7.56 -14.88,17.1 0,9.96 5.4,16.8 16.02,16.8 a 19.589,19.589 0 0 0 12.42,-4.44 l -3.9,-5.28 c -2.76,1.92 -5.04,2.82 -7.62,2.82 -3.9,0 -6.6,-1.56 -7.26,-7.26 H 636 a 31.809,31.809 0 0 0 0.18,-3.42 z m -9.3,-2.28 h -10.62 c 0.42,-5.7 2.28,-7.74 5.46,-7.74 3.78,0 5.1,3 5.16,7.32 z m 40.08,9.6 V 42.4 c 0,-7.38 -3.96,-11.28 -13.2,-11.28 a 35.993,35.993 0 0 0 -12,2.34 l 2.16,6.24 a 28.7,28.7 0 0 1 8.34,-1.68 c 3.9,0 5.4,1.14 5.4,4.92 v 1.38 h -3.24 c -9.66,0 -14.94,3.78 -14.94,10.74 0,5.82 4.02,9.96 10.38,9.96 3.78,0 7.32,-1.26 9.6,-4.8 1.44,3.18 3.9,4.32 7.68,4.62 l 1.98,-6.18 c -1.5,-0.54 -2.16,-1.44 -2.16,-3.9 z m -14.34,3.48 c -2.34,0 -3.72,-1.5 -3.72,-4.02 0,-3.18 2.1,-4.68 6.42,-4.68 h 2.34 v 5.64 a 5.676,5.676 0 0 1 -5.04,3.06 z m 39.72,-27.12 a 11.514,11.514 0 0 0 -9,4.56 l -0.48,-3.54 h -8.34 V 77.32 L 684,76.3 V 61.72 a 9.945,9.945 0 0 0 7.74,3.3 c 7.86,0 12.66,-7.2 12.66,-17.04 0,-10.32 -3.66,-16.86 -12.06,-16.86 z m -3.48,26.94 A 5.644,5.644 0 0 1 684,55.24 V 41.8 c 1.38,-2.34 3.24,-3.72 5.34,-3.72 3.3,0 5.22,2.1 5.22,10.02 0,7.14 -2.16,9.96 -5.7,9.96 z m 39.3,-26.94 a 11.514,11.514 0 0 0 -9,4.56 l -0.48,-3.54 h -8.34 v 45.18 l 9.48,-1.02 V 61.72 a 9.945,9.945 0 0 0 7.74,3.3 c 7.86,0 12.66,-7.2 12.66,-17.04 0,-10.32 -3.66,-16.86 -12.06,-16.86 z m -3.48,26.94 a 5.644,5.644 0 0 1 -4.86,-2.82 V 41.8 c 1.38,-2.34 3.24,-3.72 5.34,-3.72 3.3,0 5.22,2.1 5.22,10.02 0,7.14 -2.16,9.96 -5.7,9.96 z m 46.8,-3.3 V 42.4 c 0,-7.38 -3.96,-11.28 -13.2,-11.28 a 35.993,35.993 0 0 0 -12,2.34 l 2.16,6.24 a 28.7,28.7 0 0 1 8.34,-1.68 c 3.9,0 5.4,1.14 5.4,4.92 v 1.38 h -3.24 c -9.66,0 -14.94,3.78 -14.94,10.74 0,5.82 4.02,9.96 10.38,9.96 3.78,0 7.32,-1.26 9.6,-4.8 1.44,3.18 3.9,4.32 7.68,4.62 l 1.98,-6.18 c -1.5,-0.54 -2.16,-1.44 -2.16,-3.9 z m -14.34,3.48 c -2.34,0 -3.72,-1.5 -3.72,-4.02 0,-3.18 2.1,-4.68 6.42,-4.68 h 2.34 v 5.64 a 5.676,5.676 0 0 1 -5.04,3.06 z m 39.18,-27 c -3.66,0 -6.78,2.64 -8.22,7.08 l -0.78,-6.18 h -8.28 V 64 h 9.48 V 48.22 c 1.02,-4.86 2.64,-7.8 6.6,-7.8 a 11.517,11.517 0 0 1 2.88,0.42 l 1.5,-9.18 a 10.733,10.733 0 0 0 -3.18,-0.42 z m 30.9,23.52 V 42.4 c 0,-7.38 -3.96,-11.28 -13.2,-11.28 a 35.993,35.993 0 0 0 -12,2.34 l 2.16,6.24 a 28.7,28.7 0 0 1 8.34,-1.68 c 3.9,0 5.4,1.14 5.4,4.92 v 1.38 h -3.24 c -9.66,0 -14.94,3.78 -14.94,10.74 0,5.82 4.02,9.96 10.38,9.96 3.78,0 7.32,-1.26 9.6,-4.8 1.44,3.18 3.9,4.32 7.68,4.62 l 1.98,-6.18 c -1.5,-0.54 -2.16,-1.44 -2.16,-3.9 z m -14.34,3.48 c -2.34,0 -3.72,-1.5 -3.72,-4.02 0,-3.18 2.1,-4.68 6.42,-4.68 h 2.34 v 5.64 a 5.676,5.676 0 0 1 -5.04,3.06 z m 41.88,4.26 -3.18,-6.06 a 6.3,6.3 0 0 1 -3.42,1.08 c -1.98,0 -3,-1.08 -3,-4.14 V 38.74 h 6.3 l 1.02,-6.6 h -7.32 v -7.98 l -9.48,1.08 v 6.9 h -4.5 v 6.6 h 4.5 V 53.5 c 0,7.5 3.42,11.46 10.44,11.52 a 15.781,15.781 0 0 0 8.64,-2.52 z m 30.36,-15.06 c 0,-10.32 -5.58,-16.32 -14.7,-16.32 -9.66,0 -14.88,7.56 -14.88,17.1 0,9.96 5.4,16.8 16.02,16.8 a 19.589,19.589 0 0 0 12.42,-4.44 l -3.9,-5.28 c -2.76,1.92 -5.04,2.82 -7.62,2.82 -3.9,0 -6.6,-1.56 -7.26,-7.26 h 19.74 a 31.809,31.809 0 0 0 0.18,-3.42 z m -9.3,-2.28 H 865.2 c 0.42,-5.7 2.28,-7.74 5.46,-7.74 3.78,0 5.1,3 5.16,7.32 z m 34.74,17.34 -3.18,-6.06 a 6.3,6.3 0 0 1 -3.42,1.08 c -1.98,0 -3,-1.08 -3,-4.14 V 38.74 h 6.3 l 1.02,-6.6 h -7.32 v -7.98 l -9.48,1.08 v 6.9 h -4.5 v 6.6 h 4.5 V 53.5 c 0,7.5 3.42,11.46 10.44,11.52 a 15.781,15.781 0 0 0 8.64,-2.52 z"
           transform="translate(-12092.394,-19194.543)"
           fill="#323f51" />
        <text
           id="Smerter_i_arme_eller_ben_Muskelsmerter_Ledsmerter_Følelse_af_lammelse_Rygsmerter_Smerter_som_flytter_sig_fra_sted_til_sted_Dødhedsfornemmelse_eller_følelsesforstyrrelse"
           data-name="Smerter i arme eller ben Muskelsmerter Ledsmerter Følelse af lammelse  Rygsmerter Smerter, som flytter sig fra sted til sted Dødhedsfornemmelse eller følelsesforstyrrelse"
           transform="translate(-11992.452,-19028.742)"
           fill="#323f51"
           font-size="40px"
           font-family="FiraSans-Book, 'Fira Sans'"><tspan
             x="0"
             y="43"
             id="tspan56">Smerter i arme eller ben</tspan><tspan
             x="0"
             y="123"
             id="tspan58">Muskelsmerter</tspan><tspan
             x="0"
             y="203"
             id="tspan60">Ledsmerter</tspan><tspan
             x="0"
             y="283"
             id="tspan62">Følelse af lammelse</tspan><tspan
             x="0"
             y="363"
             id="tspan64">Rygsmerter</tspan><tspan
             x="0"
             y="443"
             id="tspan66">Smerter, som flytter sig fra sted til sted</tspan><tspan
             x="0"
             y="523"
             id="tspan68">Dødhedsfornemmelse eller</tspan><tspan
             x="0"
             y="603"
             id="tspan70">følelsesforstyrrelse</tspan></text>
        <circle
           id="Ellipse_205"
           data-name="Ellipse 205"
           cx="16"
           cy="16"
           r="16"
           transform="translate(-12092.634,-19011.977)"
           fill="#323f51" />
        <circle
           id="Ellipse_204"
           data-name="Ellipse 204"
           cx="16"
           cy="16"
           r="16"
           transform="translate(-12092.634,-18931.977)"
           fill="#323f51" />
        <circle
           id="Ellipse_203"
           data-name="Ellipse 203"
           cx="16"
           cy="16"
           r="16"
           transform="translate(-12092.634,-18851.977)"
           fill="#323f51" />
        <circle
           id="Ellipse_202"
           data-name="Ellipse 202"
           cx="16"
           cy="16"
           r="16"
           transform="translate(-12092.634,-18772.977)"
           fill="#323f51" />
        <circle
           id="Ellipse_201"
           data-name="Ellipse 201"
           cx="16"
           cy="16"
           r="16"
           transform="translate(-12092.634,-18692.977)"
           fill="#323f51" />
        <circle
           id="Ellipse_200"
           data-name="Ellipse 200"
           cx="16"
           cy="16"
           r="16"
           transform="translate(-12092.634,-18612.977)"
           fill="#323f51" />
        <circle
           id="Ellipse_199"
           data-name="Ellipse 199"
           cx="16"
           cy="16"
           r="16"
           transform="translate(-12092.634,-18532.977)"
           fill="#323f51" />
      </g>
    </g>
    <g
       id="Group_1512"
       data-name="Group 1512"
       transform="translate(12343,20220)">
      <path
         id="Rectangle_542"
         data-name="Rectangle 542"
         d="M 30,0 H 63.235 V 914.262 H 40 a 40,40 0 0 1 -40,-40 V 30 A 30,30 0 0 1 30,0 Z"
         transform="translate(-10970.266,-20133.984)"
         fill="#990033" />
      <g
         id="Group_1505"
         data-name="Group 1505"
         transform="translate(26)">
        <rect
           id="Rectangle_533"
           data-name="Rectangle 533"
           width="1172.235"
           height="914.26099"
           rx="41"
           transform="translate(-10964.648,-20133.984)"
           fill="#ffffff"
           stroke="#990033"
           stroke-width="10"
           stroke-dasharray="20"
           x="0"
           y="0" />
        <path
           id="Path_2008"
           data-name="Path 2008"
           d="m 17.28,21.4 c -8.64,0 -15,4.68 -15,12 0,6.18 3.42,10.02 12.72,12.9 6.06,1.86 7.62,3.24 7.62,6.3 0,3.18 -2.52,5.1 -6.6,5.1 A 15.058,15.058 0 0 1 5.58,53.56 l -5.04,5.52 c 3.42,3.3 8.58,5.94 15.78,5.94 10.38,0 16.5,-5.4 16.5,-13.14 0,-7.68 -4.5,-10.92 -12.36,-13.44 -6.48,-2.04 -8.04,-3.12 -8.04,-5.76 0,-2.64 2.16,-4.08 5.58,-4.08 a 13.641,13.641 0 0 1 9.06,3.48 l 4.62,-5.34 C 28.02,23.26 23.64,21.4 17.28,21.4 Z M 54.42,64.06 64.56,32.14 h -9.78 l -6.24,25.8 -5.7,-25.8 H 32.76 L 42.48,64 h 3.24 c -1.74,4.08 -4.02,5.88 -10.26,6.66 l 1.02,6.66 C 46.5,76.78 51.9,72.1 54.42,64.06 Z m 48.72,-32.94 c -4.08,0 -7.02,1.68 -9.54,5.04 a 7.562,7.562 0 0 0 -7.5,-5.04 c -3.9,0 -6.78,1.62 -9.24,4.74 L 76.2,32.14 H 67.92 V 64 H 77.4 V 42.22 c 1.38,-2.64 2.88,-4.14 4.86,-4.14 1.44,0 2.7,0.9 2.7,4.26 V 64 h 9.48 V 42.22 c 1.38,-2.64 2.82,-4.14 4.86,-4.14 1.44,0 2.7,0.9 2.7,4.26 V 64 h 9.48 V 40.72 c 0,-6.06 -3.42,-9.6 -8.34,-9.6 z m 33.3,0 a 11.514,11.514 0 0 0 -9,4.56 l -0.48,-3.54 h -8.34 V 77.32 L 128.1,76.3 V 61.72 a 9.945,9.945 0 0 0 7.74,3.3 c 7.86,0 12.66,-7.2 12.66,-17.04 0,-10.32 -3.66,-16.86 -12.06,-16.86 z m -3.48,26.94 A 5.644,5.644 0 0 1 128.1,55.24 V 41.8 c 1.38,-2.34 3.24,-3.72 5.34,-3.72 3.3,0 5.22,2.1 5.22,10.02 0,7.14 -2.16,9.96 -5.7,9.96 z m 41.46,4.44 -3.18,-6.06 a 6.3,6.3 0 0 1 -3.42,1.08 c -1.98,0 -3,-1.08 -3,-4.14 V 38.74 h 6.3 l 1.02,-6.6 h -7.32 v -7.98 l -9.48,1.08 v 6.9 h -4.5 v 6.6 h 4.5 V 53.5 c 0,7.5 3.42,11.46 10.44,11.52 a 15.781,15.781 0 0 0 8.64,-2.52 z M 190.8,31.12 c -9.72,0 -15.6,6.72 -15.6,16.92 0,10.74 5.94,16.98 15.6,16.98 9.72,0 15.6,-6.72 15.6,-16.92 0,-10.74 -5.88,-16.98 -15.6,-16.98 z m 0,6.96 c 3.84,0 5.76,2.94 5.76,10.02 0,6.9 -1.92,9.96 -5.76,9.96 -3.84,0 -5.76,-2.94 -5.76,-10.02 0,-6.9 1.92,-9.96 5.76,-9.96 z m 56.46,-6.96 c -4.08,0 -7.02,1.68 -9.54,5.04 a 7.562,7.562 0 0 0 -7.5,-5.04 c -3.9,0 -6.78,1.62 -9.24,4.74 l -0.66,-3.72 h -8.28 V 64 h 9.48 V 42.22 c 1.38,-2.64 2.88,-4.14 4.86,-4.14 1.44,0 2.7,0.9 2.7,4.26 V 64 h 9.48 V 42.22 c 1.38,-2.64 2.82,-4.14 4.86,-4.14 1.44,0 2.7,0.9 2.7,4.26 V 64 h 9.48 V 40.72 c 0,-6.06 -3.42,-9.6 -8.34,-9.6 z m 43.26,16.32 c 0,-10.32 -5.58,-16.32 -14.7,-16.32 -9.66,0 -14.88,7.56 -14.88,17.1 0,9.96 5.4,16.8 16.02,16.8 a 19.589,19.589 0 0 0 12.42,-4.44 l -3.9,-5.28 c -2.76,1.92 -5.04,2.82 -7.62,2.82 -3.9,0 -6.6,-1.56 -7.26,-7.26 h 19.74 a 31.809,31.809 0 0 0 0.18,-3.42 z m -9.3,-2.28 H 270.6 c 0.42,-5.7 2.28,-7.74 5.46,-7.74 3.78,0 5.1,3 5.16,7.32 z m 32.04,-13.92 c -3.66,0 -6.78,2.64 -8.22,7.08 l -0.78,-6.18 h -8.28 V 64 h 9.48 V 48.22 c 1.02,-4.86 2.64,-7.8 6.6,-7.8 a 11.517,11.517 0 0 1 2.88,0.42 l 1.5,-9.18 a 10.733,10.733 0 0 0 -3.18,-0.42 z m 35.58,-5.76 a 11.319,11.319 0 0 1 4.98,1.2 l 2.58,-6.18 a 19.387,19.387 0 0 0 -8.7,-2.04 c -8.16,0 -12.18,4.74 -12.18,10.86 v 2.82 h -4.8 v 6.6 h 4.8 V 64 H 345 V 38.74 h 6.48 l 1.02,-6.6 H 345 v -2.46 c 0,-3 1.08,-4.2 3.84,-4.2 z m 24.06,5.76 c -3.66,0 -6.78,2.64 -8.22,7.08 l -0.78,-6.18 h -8.28 V 64 h 9.48 V 48.22 c 1.02,-4.86 2.64,-7.8 6.6,-7.8 a 11.517,11.517 0 0 1 2.88,0.42 l 1.5,-9.18 a 10.733,10.733 0 0 0 -3.18,-0.42 z m 30.9,23.52 V 42.4 c 0,-7.38 -3.96,-11.28 -13.2,-11.28 a 35.993,35.993 0 0 0 -12,2.34 l 2.16,6.24 a 28.7,28.7 0 0 1 8.34,-1.68 c 3.9,0 5.4,1.14 5.4,4.92 v 1.38 h -3.24 c -9.66,0 -14.94,3.78 -14.94,10.74 0,5.82 4.02,9.96 10.38,9.96 3.78,0 7.32,-1.26 9.6,-4.8 1.44,3.18 3.9,4.32 7.68,4.62 l 1.98,-6.18 c -1.5,-0.54 -2.16,-1.44 -2.16,-3.9 z m -14.34,3.48 c -2.34,0 -3.72,-1.5 -3.72,-4.02 0,-3.18 2.1,-4.68 6.42,-4.68 h 2.34 v 5.64 a 5.676,5.676 0 0 1 -5.04,3.06 z M 460.8,31.12 c -4.08,0 -7.02,1.68 -9.54,5.04 a 7.562,7.562 0 0 0 -7.5,-5.04 c -3.9,0 -6.78,1.62 -9.24,4.74 l -0.66,-3.72 h -8.28 V 64 h 9.48 V 42.22 c 1.38,-2.64 2.88,-4.14 4.86,-4.14 1.44,0 2.7,0.9 2.7,4.26 V 64 h 9.48 V 42.22 c 1.38,-2.64 2.82,-4.14 4.86,-4.14 1.44,0 2.7,0.9 2.7,4.26 V 64 h 9.48 V 40.72 c 0,-6.06 -3.42,-9.6 -8.34,-9.6 z m 40.8,23.64 V 42.4 c 0,-7.38 -3.96,-11.28 -13.2,-11.28 a 35.993,35.993 0 0 0 -12,2.34 l 2.16,6.24 a 28.7,28.7 0 0 1 8.34,-1.68 c 3.9,0 5.4,1.14 5.4,4.92 v 1.38 h -3.24 c -9.66,0 -14.94,3.78 -14.94,10.74 0,5.82 4.02,9.96 10.38,9.96 3.78,0 7.32,-1.26 9.6,-4.8 1.44,3.18 3.9,4.32 7.68,4.62 l 1.98,-6.18 c -1.5,-0.54 -2.16,-1.44 -2.16,-3.9 z m -14.34,3.48 c -2.34,0 -3.72,-1.5 -3.72,-4.02 0,-3.18 2.1,-4.68 6.42,-4.68 h 2.34 v 5.64 a 5.676,5.676 0 0 1 -5.04,3.06 z M 525.6,64 535.62,32.14 h -9.66 L 520.08,56.8 514.44,32.14 H 504.12 L 514.38,64 Z m 40.56,-16.56 c 0,-10.32 -5.58,-16.32 -14.7,-16.32 -9.66,0 -14.88,7.56 -14.88,17.1 0,9.96 5.4,16.8 16.02,16.8 a 19.589,19.589 0 0 0 12.42,-4.44 l -3.9,-5.28 c -2.76,1.92 -5.04,2.82 -7.62,2.82 -3.9,0 -6.6,-1.56 -7.26,-7.26 h 19.74 a 31.809,31.809 0 0 0 0.18,-3.42 z m -9.3,-2.28 h -10.62 c 0.42,-5.7 2.28,-7.74 5.46,-7.74 3.78,0 5.1,3 5.16,7.32 z m 42.78,-14.04 c -9.72,0 -15.6,6.72 -15.6,16.92 0,10.74 5.94,16.98 15.6,16.98 9.72,0 15.6,-6.72 15.6,-16.92 0,-10.74 -5.88,-16.98 -15.6,-16.98 z m 0,6.96 c 3.84,0 5.76,2.94 5.76,10.02 0,6.9 -1.92,9.96 -5.76,9.96 -3.84,0 -5.76,-2.94 -5.76,-10.02 0,-6.9 1.92,-9.96 5.76,-9.96 z M 650.22,34 648,26.98 a 25.233,25.233 0 0 1 -15,4.14 c -8.34,0 -13.98,4.44 -13.98,11.64 0,4.14 1.62,6.96 5.7,9.12 A 7.588,7.588 0 0 0 620.94,58 c 0,3.42 2.82,6.3 9.78,6.3 h 4.62 c 3.18,0 4.56,1.26 4.56,3.12 0,2.04 -1.32,3.6 -6.9,3.6 -5.76,0 -6.96,-1.2 -6.96,-3.96 h -8.52 c 0,6.3 3.18,10.26 15.24,10.26 10.92,0 16.68,-4.02 16.68,-10.56 0,-5.34 -4.74,-9.24 -12.18,-9.24 h -4.8 c -3.06,0 -3.48,-0.96 -3.48,-1.92 a 2.039,2.039 0 0 1 1.02,-1.8 17.609,17.609 0 0 0 3.66,0.36 c 8.28,0 13.38,-4.5 13.38,-10.68 0,-4.14 -1.98,-6.48 -6,-8.22 4.02,0 6.96,-0.36 9.18,-1.26 z m -16.98,3.36 c 3.18,0 4.8,1.62 4.8,5.16 0,3.66 -1.68,5.52 -4.8,5.52 -2.88,0 -4.8,-1.92 -4.8,-5.4 0,-3.3 1.86,-5.28 4.8,-5.28 z m 54.9,25.14 -3.18,-6.06 a 6.3,6.3 0 0 1 -3.42,1.08 c -1.98,0 -3,-1.08 -3,-4.14 V 38.74 h 6.3 l 1.02,-6.6 h -7.32 v -7.98 l -9.48,1.08 v 6.9 h -4.5 v 6.6 h 4.5 V 53.5 c 0,7.5 3.42,11.46 10.44,11.52 a 15.781,15.781 0 0 0 8.64,-2.52 z m 28.5,-7.74 V 42.4 c 0,-7.38 -3.96,-11.28 -13.2,-11.28 a 35.993,35.993 0 0 0 -12,2.34 l 2.16,6.24 a 28.7,28.7 0 0 1 8.34,-1.68 c 3.9,0 5.4,1.14 5.4,4.92 v 1.38 h -3.24 c -9.66,0 -14.94,3.78 -14.94,10.74 0,5.82 4.02,9.96 10.38,9.96 3.78,0 7.32,-1.26 9.6,-4.8 1.44,3.18 3.9,4.32 7.68,4.62 l 1.98,-6.18 c -1.5,-0.54 -2.16,-1.44 -2.16,-3.9 z m -14.34,3.48 c -2.34,0 -3.72,-1.5 -3.72,-4.02 0,-3.18 2.1,-4.68 6.42,-4.68 h 2.34 v 5.64 a 5.676,5.676 0 0 1 -5.04,3.06 z m 39.18,-27 c -3.66,0 -6.78,2.64 -8.22,7.08 l -0.78,-6.18 H 724.2 V 64 h 9.48 V 48.22 c 1.02,-4.86 2.64,-7.8 6.6,-7.8 a 11.517,11.517 0 0 1 2.88,0.42 l 1.5,-9.18 a 10.733,10.733 0 0 0 -3.18,-0.42 z m 42,-0.12 c -4.08,0 -7.02,1.68 -9.54,5.04 a 7.562,7.562 0 0 0 -7.5,-5.04 c -3.9,0 -6.78,1.62 -9.24,4.74 l -0.66,-3.72 h -8.28 V 64 h 9.48 V 42.22 c 1.38,-2.64 2.88,-4.14 4.86,-4.14 1.44,0 2.7,0.9 2.7,4.26 V 64 h 9.48 V 42.22 c 1.38,-2.64 2.82,-4.14 4.86,-4.14 1.44,0 2.7,0.9 2.7,4.26 V 64 h 9.48 V 40.72 c 0,-6.06 -3.42,-9.6 -8.34,-9.6 z"
           transform="translate(-10843.76,-20017.223)"
           fill="#990033" />
        <text
           id="Mavesmerter_Hyppige_løse_afføringer_Diarré_Oppustethed_Kvalme_Sure_opstød_Svie_eller_smerter_i_toppen_af_maven"
           data-name="Mavesmerter Hyppige, løse afføringer Diarré Oppustethed Kvalme Sure opstød Svie eller smerter i toppen af maven"
           transform="translate(-10743.818,-19854.746)"
           fill="#323f51"
           font-size="40px"
           font-family="FiraSans-Book, 'Fira Sans'"><tspan
             x="0"
             y="43"
             id="tspan85">Mavesmerter</tspan><tspan
             x="0"
             y="123"
             id="tspan87">Hyppige, løse afføringer</tspan><tspan
             x="0"
             y="203"
             id="tspan89">Diarré</tspan><tspan
             x="0"
             y="283"
             id="tspan91">Oppustethed</tspan><tspan
             x="0"
             y="363"
             id="tspan93">Kvalme</tspan><tspan
             x="0"
             y="443"
             id="tspan95">Sure opstød</tspan><tspan
             x="0"
             y="523"
             id="tspan97">Svie eller smerter i toppen af maven</tspan></text>
        <circle
           id="Ellipse_211"
           data-name="Ellipse 211"
           cx="16"
           cy="16"
           r="16"
           transform="translate(-10844,-19837.982)"
           fill="#990033" />
        <circle
           id="Ellipse_212"
           data-name="Ellipse 212"
           cx="16"
           cy="16"
           r="16"
           transform="translate(-10844,-19757.982)"
           fill="#990033" />
        <circle
           id="Ellipse_213"
           data-name="Ellipse 213"
           cx="16"
           cy="16"
           r="16"
           transform="translate(-10844,-19677.982)"
           fill="#990033" />
        <circle
           id="Ellipse_214"
           data-name="Ellipse 214"
           cx="16"
           cy="16"
           r="16"
           transform="translate(-10844,-19598.982)"
           fill="#990033" />
        <circle
           id="Ellipse_215"
           data-name="Ellipse 215"
           cx="16"
           cy="16"
           r="16"
           transform="translate(-10844,-19518.982)"
           fill="#990033" />
        <circle
           id="Ellipse_216"
           data-name="Ellipse 216"
           cx="16"
           cy="16"
           r="16"
           transform="translate(-10844,-19438.982)"
           fill="#990033" />
        <circle
           id="Ellipse_217"
           data-name="Ellipse 217"
           cx="16"
           cy="16"
           r="16"
           transform="translate(-10844,-19358.982)"
           fill="#990033" />
      </g>
    </g>
  </g>
</svg>
