<svg xmlns="http://www.w3.org/2000/svg" xmlns:xlink="http://www.w3.org/1999/xlink" width="2748" height="1970" viewBox="0 0 2748 1970">
  <defs>
    <clipPath id="clip-symptom-grupperne">
      <rect width="2748" height="1970"/>
    </clipPath>
  </defs>
  <g id="symptom-grupperne" clip-path="url(#clip-symptom-grupperne)">
    <rect width="2748" height="1970" fill="#fff"/>
    <g id="Group_1511" data-name="Group 1511" transform="translate(12343 20220)">
      <path id="Rectangle_541" data-name="Rectangle 541" d="M30,0H63.235a0,0,0,0,1,0,0V750.984a0,0,0,0,1,0,0H40a40,40,0,0,1-40-40V30A30,30,0,0,1,30,0Z" transform="translate(-12253.015 -20133.984)" fill="#0e9cb2"/>
      <rect id="Rectangle_530" data-name="Rectangle 530" width="1172.235" height="750.984" rx="41" transform="translate(-12213.648 -20133.984)" fill="#fff" stroke="#0e9cb2" stroke-width="10" stroke-dasharray="20"/>
      <path id="Path_2007" data-name="Path 2007" d="M23.64,55.06,25.8,64H36.24L23.7,22.42H11.76L-.78,64H9.42l2.1-8.94Zm-1.68-7.14H13.2l4.38-18.36ZM48.3,55.06V18.46l-9.48,1.02V56.02c0,5.88,3.12,9,8.4,9a17.155,17.155,0,0,0,6.12-1.08l-1.86-6.72a4.507,4.507,0,0,1-1.56.3C48.9,57.52,48.3,56.86,48.3,55.06ZM92.16,31.12c-4.08,0-7.02,1.68-9.54,5.04a7.562,7.562,0,0,0-7.5-5.04c-3.9,0-6.78,1.62-9.24,4.74l-.66-3.72H56.94V64h9.48V42.22c1.38-2.64,2.88-4.14,4.86-4.14,1.44,0,2.7.9,2.7,4.26V64h9.48V42.22c1.38-2.64,2.82-4.14,4.86-4.14,1.44,0,2.7.9,2.7,4.26V64h9.48V40.72C100.5,34.66,97.08,31.12,92.16,31.12Zm43.26,16.32c0-10.32-5.58-16.32-14.7-16.32-9.66,0-14.88,7.56-14.88,17.1,0,9.96,5.4,16.8,16.02,16.8a19.589,19.589,0,0,0,12.42-4.44l-3.9-5.28c-2.76,1.92-5.04,2.82-7.62,2.82-3.9,0-6.6-1.56-7.26-7.26h19.74A31.809,31.809,0,0,0,135.42,47.44Zm-9.3-2.28H115.5c.42-5.7,2.28-7.74,5.46-7.74,3.78,0,5.1,3,5.16,7.32Zm33.42-14.04c-3.96,0-7.02,1.62-9.72,4.8l-.66-3.78h-8.28V64h9.48V42.22c1.68-2.64,3.42-4.14,5.52-4.14,1.86,0,3,.9,3,4.26V64h9.48V40.72C168.36,34.66,165.06,31.12,159.54,31.12Zm43.74,16.32c0-10.32-5.58-16.32-14.7-16.32-9.66,0-14.88,7.56-14.88,17.1,0,9.96,5.4,16.8,16.02,16.8a19.589,19.589,0,0,0,12.42-4.44l-3.9-5.28c-2.76,1.92-5.04,2.82-7.62,2.82-3.9,0-6.6-1.56-7.26-7.26H203.1A31.809,31.809,0,0,0,203.28,47.44Zm-9.3-2.28H183.36c.42-5.7,2.28-7.74,5.46-7.74,3.78,0,5.1,3,5.16,7.32Zm40.2-14.04c-8.04,0-13.02,4.26-13.02,9.72,0,4.92,3.12,8.16,9.42,9.96,5.76,1.62,6.72,2.28,6.72,4.5,0,1.86-1.74,2.94-4.68,2.94a13.335,13.335,0,0,1-8.34-3.18l-4.68,5.22a19.811,19.811,0,0,0,13.32,4.74c7.92,0,14.16-3.9,14.16-10.5,0-5.7-3.54-8.34-9.84-10.14-5.7-1.68-6.54-2.4-6.54-4.08,0-1.44,1.26-2.4,4.14-2.4a14.031,14.031,0,0,1,7.56,2.52l3.48-5.4A18.538,18.538,0,0,0,234.18,31.12Zm34.74,32.94,10.14-31.92h-9.78l-6.24,25.8-5.7-25.8H247.26L256.98,64h3.24c-1.74,4.08-4.02,5.88-10.26,6.66l1.02,6.66C261,76.78,266.4,72.1,268.92,64.06Zm48.72-32.94c-4.08,0-7.02,1.68-9.54,5.04a7.562,7.562,0,0,0-7.5-5.04c-3.9,0-6.78,1.62-9.24,4.74l-.66-3.72h-8.28V64h9.48V42.22c1.38-2.64,2.88-4.14,4.86-4.14,1.44,0,2.7.9,2.7,4.26V64h9.48V42.22c1.38-2.64,2.82-4.14,4.86-4.14,1.44,0,2.7.9,2.7,4.26V64h9.48V40.72C325.98,34.66,322.56,31.12,317.64,31.12Zm33.3,0a11.514,11.514,0,0,0-9,4.56l-.48-3.54h-8.34V77.32l9.48-1.02V61.72a9.945,9.945,0,0,0,7.74,3.3c7.86,0,12.66-7.2,12.66-17.04C363,37.66,359.34,31.12,350.94,31.12Zm-3.48,26.94a5.644,5.644,0,0,1-4.86-2.82V41.8c1.38-2.34,3.24-3.72,5.34-3.72,3.3,0,5.22,2.1,5.22,10.02C353.16,55.24,351,58.06,347.46,58.06Zm41.46,4.44-3.18-6.06a6.3,6.3,0,0,1-3.42,1.08c-1.98,0-3-1.08-3-4.14V38.74h6.3l1.02-6.6h-7.32V24.16l-9.48,1.08v6.9h-4.5v6.6h4.5V53.5c0,7.5,3.42,11.46,10.44,11.52A15.781,15.781,0,0,0,388.92,62.5ZM405.3,31.12c-9.72,0-15.6,6.72-15.6,16.92,0,10.74,5.94,16.98,15.6,16.98,9.72,0,15.6-6.72,15.6-16.92C420.9,37.36,415.02,31.12,405.3,31.12Zm0,6.96c3.84,0,5.76,2.94,5.76,10.02,0,6.9-1.92,9.96-5.76,9.96s-5.76-2.94-5.76-10.02C399.54,41.14,401.46,38.08,405.3,38.08Zm56.46-6.96c-4.08,0-7.02,1.68-9.54,5.04a7.562,7.562,0,0,0-7.5-5.04c-3.9,0-6.78,1.62-9.24,4.74l-.66-3.72h-8.28V64h9.48V42.22c1.38-2.64,2.88-4.14,4.86-4.14,1.44,0,2.7.9,2.7,4.26V64h9.48V42.22c1.38-2.64,2.82-4.14,4.86-4.14,1.44,0,2.7.9,2.7,4.26V64h9.48V40.72C470.1,34.66,466.68,31.12,461.76,31.12Zm43.26,16.32c0-10.32-5.58-16.32-14.7-16.32-9.66,0-14.88,7.56-14.88,17.1,0,9.96,5.4,16.8,16.02,16.8a19.589,19.589,0,0,0,12.42-4.44l-3.9-5.28c-2.76,1.92-5.04,2.82-7.62,2.82-3.9,0-6.6-1.56-7.26-7.26h19.74A31.809,31.809,0,0,0,505.02,47.44Zm-9.3-2.28H485.1c.42-5.7,2.28-7.74,5.46-7.74,3.78,0,5.1,3,5.16,7.32Zm32.04-13.92c-3.66,0-6.78,2.64-8.22,7.08l-.78-6.18h-8.28V64h9.48V48.22c1.02-4.86,2.64-7.8,6.6-7.8a11.517,11.517,0,0,1,2.88.42l1.5-9.18A10.733,10.733,0,0,0,527.76,31.24Z" transform="translate(-12092.76 -20017.223)" fill="#009cb2"/>
      <text id="Koncentrationsbesvær_Hukommelsesbesvær_Træthed_Hovedpine_Svimmelhed" data-name="Koncentrationsbesvær
Hukommelsesbesvær
Træthed
Hovedpine
Svimmelhed" transform="translate(-11993.223 -19874)" fill="#323f51" font-size="40" font-family="FiraSans-Book, Fira Sans"><tspan x="0" y="43">Koncentrationsbesvær</tspan><tspan x="0" y="123">Hukommelsesbesvær</tspan><tspan x="0" y="203">Træthed</tspan><tspan x="0" y="283">Hovedpine</tspan><tspan x="0" y="363">Svimmelhed</tspan></text>
      <circle id="Ellipse_180" data-name="Ellipse 180" cx="16" cy="16" r="16" transform="translate(-12092.76 -19857.246)" fill="#009cb2"/>
      <circle id="Ellipse_181" data-name="Ellipse 181" cx="16" cy="16" r="16" transform="translate(-12092.76 -19777.246)" fill="#009cb2"/>
      <circle id="Ellipse_182" data-name="Ellipse 182" cx="16" cy="16" r="16" transform="translate(-12092.76 -19697.246)" fill="#009cb2"/>
      <circle id="Ellipse_183" data-name="Ellipse 183" cx="16" cy="16" r="16" transform="translate(-12092.76 -19618.246)" fill="#009cb2"/>
      <circle id="Ellipse_184" data-name="Ellipse 184" cx="16" cy="16" r="16" transform="translate(-12092.76 -19538.246)" fill="#009cb2"/>
    </g>
    <g id="Group_1513" data-name="Group 1513" transform="translate(12343 20220)">
      <path id="Rectangle_543" data-name="Rectangle 543" d="M30,0H63.235a0,0,0,0,1,0,0V810.43a0,0,0,0,1,0,0H40a40,40,0,0,1-40-40V30A30,30,0,0,1,30,0Z" transform="translate(-10970.266 -19147.049)" fill="#dca13d"/>
      <g id="Group_1504" data-name="Group 1504" transform="translate(26)">
        <rect id="Rectangle_532" data-name="Rectangle 532" width="1172.235" height="810.43" rx="41" transform="translate(-10964.648 -19147.049)" fill="#fff" stroke="#dca13d" stroke-width="10" stroke-dasharray="20"/>
        <path id="Path_2010" data-name="Path 2010" d="M17.28,21.4c-8.64,0-15,4.68-15,12C2.28,39.58,5.7,43.42,15,46.3c6.06,1.86,7.62,3.24,7.62,6.3,0,3.18-2.52,5.1-6.6,5.1A15.058,15.058,0,0,1,5.58,53.56L.54,59.08c3.42,3.3,8.58,5.94,15.78,5.94,10.38,0,16.5-5.4,16.5-13.14,0-7.68-4.5-10.92-12.36-13.44-6.48-2.04-8.04-3.12-8.04-5.76S14.58,28.6,18,28.6a13.641,13.641,0,0,1,9.06,3.48l4.62-5.34C28.02,23.26,23.64,21.4,17.28,21.4ZM54.42,64.06,64.56,32.14H54.78l-6.24,25.8-5.7-25.8H32.76L42.48,64h3.24c-1.74,4.08-4.02,5.88-10.26,6.66l1.02,6.66C46.5,76.78,51.9,72.1,54.42,64.06Zm48.72-32.94c-4.08,0-7.02,1.68-9.54,5.04a7.562,7.562,0,0,0-7.5-5.04c-3.9,0-6.78,1.62-9.24,4.74l-.66-3.72H67.92V64H77.4V42.22c1.38-2.64,2.88-4.14,4.86-4.14,1.44,0,2.7.9,2.7,4.26V64h9.48V42.22c1.38-2.64,2.82-4.14,4.86-4.14,1.44,0,2.7.9,2.7,4.26V64h9.48V40.72C111.48,34.66,108.06,31.12,103.14,31.12Zm33.3,0a11.514,11.514,0,0,0-9,4.56l-.48-3.54h-8.34V77.32l9.48-1.02V61.72a9.945,9.945,0,0,0,7.74,3.3c7.86,0,12.66-7.2,12.66-17.04C148.5,37.66,144.84,31.12,136.44,31.12Zm-3.48,26.94a5.644,5.644,0,0,1-4.86-2.82V41.8c1.38-2.34,3.24-3.72,5.34-3.72,3.3,0,5.22,2.1,5.22,10.02C138.66,55.24,136.5,58.06,132.96,58.06Zm41.46,4.44-3.18-6.06a6.3,6.3,0,0,1-3.42,1.08c-1.98,0-3-1.08-3-4.14V38.74h6.3l1.02-6.6h-7.32V24.16l-9.48,1.08v6.9h-4.5v6.6h4.5V53.5c0,7.5,3.42,11.46,10.44,11.52A15.781,15.781,0,0,0,174.42,62.5ZM190.8,31.12c-9.72,0-15.6,6.72-15.6,16.92,0,10.74,5.94,16.98,15.6,16.98,9.72,0,15.6-6.72,15.6-16.92C206.4,37.36,200.52,31.12,190.8,31.12Zm0,6.96c3.84,0,5.76,2.94,5.76,10.02,0,6.9-1.92,9.96-5.76,9.96s-5.76-2.94-5.76-10.02C185.04,41.14,186.96,38.08,190.8,38.08Zm56.46-6.96c-4.08,0-7.02,1.68-9.54,5.04a7.562,7.562,0,0,0-7.5-5.04c-3.9,0-6.78,1.62-9.24,4.74l-.66-3.72h-8.28V64h9.48V42.22c1.38-2.64,2.88-4.14,4.86-4.14,1.44,0,2.7.9,2.7,4.26V64h9.48V42.22c1.38-2.64,2.82-4.14,4.86-4.14,1.44,0,2.7.9,2.7,4.26V64h9.48V40.72C255.6,34.66,252.18,31.12,247.26,31.12Zm43.26,16.32c0-10.32-5.58-16.32-14.7-16.32-9.66,0-14.88,7.56-14.88,17.1,0,9.96,5.4,16.8,16.02,16.8a19.589,19.589,0,0,0,12.42-4.44l-3.9-5.28c-2.76,1.92-5.04,2.82-7.62,2.82-3.9,0-6.6-1.56-7.26-7.26h19.74A31.809,31.809,0,0,0,290.52,47.44Zm-9.3-2.28H270.6c.42-5.7,2.28-7.74,5.46-7.74,3.78,0,5.1,3,5.16,7.32Zm32.04-13.92c-3.66,0-6.78,2.64-8.22,7.08l-.78-6.18h-8.28V64h9.48V48.22c1.02-4.86,2.64-7.8,6.6-7.8a11.517,11.517,0,0,1,2.88.42l1.5-9.18A10.733,10.733,0,0,0,313.26,31.24Zm35.58-5.76a11.319,11.319,0,0,1,4.98,1.2l2.58-6.18a19.387,19.387,0,0,0-8.7-2.04c-8.16,0-12.18,4.74-12.18,10.86v2.82h-4.8v6.6h4.8V64H345V38.74h6.48l1.02-6.6H345V29.68C345,26.68,346.08,25.48,348.84,25.48Zm24.06,5.76c-3.66,0-6.78,2.64-8.22,7.08l-.78-6.18h-8.28V64h9.48V48.22c1.02-4.86,2.64-7.8,6.6-7.8a11.517,11.517,0,0,1,2.88.42l1.5-9.18A10.733,10.733,0,0,0,372.9,31.24Zm30.9,23.52V42.4c0-7.38-3.96-11.28-13.2-11.28a35.993,35.993,0,0,0-12,2.34l2.16,6.24a28.7,28.7,0,0,1,8.34-1.68c3.9,0,5.4,1.14,5.4,4.92v1.38h-3.24c-9.66,0-14.94,3.78-14.94,10.74,0,5.82,4.02,9.96,10.38,9.96,3.78,0,7.32-1.26,9.6-4.8,1.44,3.18,3.9,4.32,7.68,4.62l1.98-6.18C404.46,58.12,403.8,57.22,403.8,54.76Zm-14.34,3.48c-2.34,0-3.72-1.5-3.72-4.02,0-3.18,2.1-4.68,6.42-4.68h2.34v5.64A5.676,5.676,0,0,1,389.46,58.24Zm54.78-27.12a11.614,11.614,0,0,0-9.18,4.44V18.52l-9.48.96V64h9.48V42.16c1.68-2.58,3.42-4.08,5.52-4.08,1.8,0,3,.9,3,4.26V64h9.48V40.72C453.06,34.66,449.76,31.12,444.24,31.12Zm20.64-15.78a5.405,5.405,0,1,0,5.64,5.4A5.313,5.313,0,0,0,464.88,15.34Zm4.74,45.06V32.14h-9.48V61c0,5.82-2.4,7.5-6.48,9.36l3.18,6.9C464.28,74.56,469.62,70.78,469.62,60.4Zm35.22-12.96c0-10.32-5.58-16.32-14.7-16.32-9.66,0-14.88,7.56-14.88,17.1,0,9.96,5.4,16.8,16.02,16.8a19.589,19.589,0,0,0,12.42-4.44l-3.9-5.28c-2.76,1.92-5.04,2.82-7.62,2.82-3.9,0-6.6-1.56-7.26-7.26h19.74A31.809,31.809,0,0,0,504.84,47.44Zm-9.3-2.28H484.92c.42-5.7,2.28-7.74,5.46-7.74,3.78,0,5.1,3,5.16,7.32Zm32.04-13.92c-3.66,0-6.78,2.64-8.22,7.08l-.78-6.18H510.3V64h9.48V48.22c1.02-4.86,2.64-7.8,6.6-7.8a11.517,11.517,0,0,1,2.88.42l1.5-9.18A10.734,10.734,0,0,0,527.58,31.24ZM555.54,62.5l-3.18-6.06a6.3,6.3,0,0,1-3.42,1.08c-1.98,0-3-1.08-3-4.14V38.74h6.3l1.02-6.6h-7.32V24.16l-9.48,1.08v6.9h-4.5v6.6h4.5V53.5c0,7.5,3.42,11.46,10.44,11.52A15.781,15.781,0,0,0,555.54,62.5ZM585.9,47.44c0-10.32-5.58-16.32-14.7-16.32-9.66,0-14.88,7.56-14.88,17.1,0,9.96,5.4,16.8,16.02,16.8a19.589,19.589,0,0,0,12.42-4.44l-3.9-5.28c-2.76,1.92-5.04,2.82-7.62,2.82-3.9,0-6.6-1.56-7.26-7.26h19.74A31.809,31.809,0,0,0,585.9,47.44Zm-9.3-2.28H565.98c.42-5.7,2.28-7.74,5.46-7.74,3.78,0,5.1,3,5.16,7.32Zm42.78-14.04c-9.72,0-15.6,6.72-15.6,16.92,0,10.74,5.94,16.98,15.6,16.98,9.72,0,15.6-6.72,15.6-16.92C634.98,37.36,629.1,31.12,619.38,31.12Zm0,6.96c3.84,0,5.76,2.94,5.76,10.02,0,6.9-1.92,9.96-5.76,9.96s-5.76-2.94-5.76-10.02C613.62,41.14,615.54,38.08,619.38,38.08ZM669.96,34l-2.22-7.02a25.233,25.233,0,0,1-15,4.14c-8.34,0-13.98,4.44-13.98,11.64,0,4.14,1.62,6.96,5.7,9.12A7.588,7.588,0,0,0,640.68,58c0,3.42,2.82,6.3,9.78,6.3h4.62c3.18,0,4.56,1.26,4.56,3.12,0,2.04-1.32,3.6-6.9,3.6-5.76,0-6.96-1.2-6.96-3.96h-8.52c0,6.3,3.18,10.26,15.24,10.26,10.92,0,16.68-4.02,16.68-10.56,0-5.34-4.74-9.24-12.18-9.24h-4.8c-3.06,0-3.48-.96-3.48-1.92a2.039,2.039,0,0,1,1.02-1.8,17.609,17.609,0,0,0,3.66.36c8.28,0,13.38-4.5,13.38-10.68,0-4.14-1.98-6.48-6-8.22C664.8,35.26,667.74,34.9,669.96,34Zm-16.98,3.36c3.18,0,4.8,1.62,4.8,5.16,0,3.66-1.68,5.52-4.8,5.52-2.88,0-4.8-1.92-4.8-5.4C648.18,39.34,650.04,37.36,652.98,37.36Zm44.1,17.7V18.46l-9.48,1.02V56.02c0,5.88,3.12,9,8.4,9a17.155,17.155,0,0,0,6.12-1.08l-1.86-6.72a4.507,4.507,0,0,1-1.56.3C697.68,57.52,697.08,56.86,697.08,55.06ZM732.6,64V32.14h-9.48V54.28c-1.38,2.4-3.18,3.72-5.16,3.72s-3.06-.96-3.06-4.2V32.14h-9.48V55c0,6.18,2.94,10.02,8.88,10.02a11.027,11.027,0,0,0,9.66-5.04l.42,4.02Zm26.1-32.88c-3.96,0-7.02,1.62-9.72,4.8l-.66-3.78h-8.28V64h9.48V42.22c1.68-2.64,3.42-4.14,5.52-4.14,1.86,0,3,.9,3,4.26V64h9.48V40.72C767.52,34.66,764.22,31.12,758.7,31.12ZM804,34l-2.22-7.02a25.233,25.233,0,0,1-15,4.14c-8.34,0-13.98,4.44-13.98,11.64,0,4.14,1.62,6.96,5.7,9.12A7.588,7.588,0,0,0,774.72,58c0,3.42,2.82,6.3,9.78,6.3h4.62c3.18,0,4.56,1.26,4.56,3.12,0,2.04-1.32,3.6-6.9,3.6-5.76,0-6.96-1.2-6.96-3.96H771.3c0,6.3,3.18,10.26,15.24,10.26,10.92,0,16.68-4.02,16.68-10.56,0-5.34-4.74-9.24-12.18-9.24h-4.8c-3.06,0-3.48-.96-3.48-1.92a2.039,2.039,0,0,1,1.02-1.8,17.609,17.609,0,0,0,3.66.36c8.28,0,13.38-4.5,13.38-10.68,0-4.14-1.98-6.48-6-8.22C798.84,35.26,801.78,34.9,804,34Zm-16.98,3.36c3.18,0,4.8,1.62,4.8,5.16,0,3.66-1.68,5.52-4.8,5.52-2.88,0-4.8-1.92-4.8-5.4C782.22,39.34,784.08,37.36,787.02,37.36ZM834.6,47.44c0-10.32-5.58-16.32-14.7-16.32-9.66,0-14.88,7.56-14.88,17.1,0,9.96,5.4,16.8,16.02,16.8a19.589,19.589,0,0,0,12.42-4.44l-3.9-5.28c-2.76,1.92-5.04,2.82-7.62,2.82-3.9,0-6.6-1.56-7.26-7.26h19.74A31.809,31.809,0,0,0,834.6,47.44Zm-9.3-2.28H814.68c.42-5.7,2.28-7.74,5.46-7.74,3.78,0,5.1,3,5.16,7.32Z" transform="translate(-10843.76 -19043.119)" fill="#e79e17"/>
        <text id="Hjertebanken_eller_uro_i_brystet_Trykken_eller_smerter_i_brystet_Forpustethed_uden_anstrengelse_Anfald_med_vejrtrækningsbesvær_Varm-_eller_koldsveden_Mundtørhed" data-name="Hjertebanken eller uro i brystet
Trykken eller smerter i brystet
Forpustethed uden anstrengelse
Anfald med vejrtrækningsbesvær
Varm- eller koldsveden
Mundtørhed" transform="translate(-10744.223 -18896.092)" fill="#323f51" font-size="40" font-family="FiraSans-Book, Fira Sans"><tspan x="0" y="43">Hjertebanken eller uro i brystet</tspan><tspan x="0" y="123">Trykken eller smerter i brystet</tspan><tspan x="0" y="203">Forpustethed uden anstrengelse</tspan><tspan x="0" y="283">Anfald med vejrtrækningsbesvær</tspan><tspan x="0" y="363">Varm- eller koldsveden</tspan><tspan x="0" y="443">Mundtørhed</tspan></text>
        <circle id="Ellipse_206" data-name="Ellipse 206" cx="16" cy="16" r="16" transform="translate(-10843.76 -18883.143)" fill="#dca13d"/>
        <circle id="Ellipse_207" data-name="Ellipse 207" cx="16" cy="16" r="16" transform="translate(-10843.76 -18803.143)" fill="#dca13d"/>
        <circle id="Ellipse_208" data-name="Ellipse 208" cx="16" cy="16" r="16" transform="translate(-10843.76 -18723.143)" fill="#dca13d"/>
        <circle id="Ellipse_209" data-name="Ellipse 209" cx="16" cy="16" r="16" transform="translate(-10843.76 -18644.143)" fill="#dca13d"/>
        <circle id="Ellipse_210" data-name="Ellipse 210" cx="16" cy="16" r="16" transform="translate(-10843.76 -18564.143)" fill="#dca13d"/>
        <circle id="Ellipse_218" data-name="Ellipse 218" cx="16" cy="16" r="16" transform="translate(-10843.76 -18484.143)" fill="#dca13d"/>
      </g>
    </g>
    <g id="Group_1510" data-name="Group 1510" transform="translate(12343 20220)">
      <path id="Rectangle_540" data-name="Rectangle 540" d="M30,0H63.235a0,0,0,0,1,0,0V965.656a0,0,0,0,1,0,0H40a40,40,0,0,1-40-40V30A30,30,0,0,1,30,0Z" transform="translate(-12253.015 -19302.275)" fill="#323f51"/>
      <g id="Group_1503" data-name="Group 1503" transform="translate(-0.366)">
        <rect id="Rectangle_531" data-name="Rectangle 531" width="1172.235" height="965.656" rx="41" transform="translate(-12213.282 -19302.275)" fill="#fff" stroke="#323f51" stroke-width="10" stroke-dasharray="20"/>
        <path id="Path_2009" data-name="Path 2009" d="M17.28,21.4c-8.64,0-15,4.68-15,12C2.28,39.58,5.7,43.42,15,46.3c6.06,1.86,7.62,3.24,7.62,6.3,0,3.18-2.52,5.1-6.6,5.1A15.058,15.058,0,0,1,5.58,53.56L.54,59.08c3.42,3.3,8.58,5.94,15.78,5.94,10.38,0,16.5-5.4,16.5-13.14,0-7.68-4.5-10.92-12.36-13.44-6.48-2.04-8.04-3.12-8.04-5.76S14.58,28.6,18,28.6a13.641,13.641,0,0,1,9.06,3.48l4.62-5.34C28.02,23.26,23.64,21.4,17.28,21.4ZM54.42,64.06,64.56,32.14H54.78l-6.24,25.8-5.7-25.8H32.76L42.48,64h3.24c-1.74,4.08-4.02,5.88-10.26,6.66l1.02,6.66C46.5,76.78,51.9,72.1,54.42,64.06Zm48.72-32.94c-4.08,0-7.02,1.68-9.54,5.04a7.562,7.562,0,0,0-7.5-5.04c-3.9,0-6.78,1.62-9.24,4.74l-.66-3.72H67.92V64H77.4V42.22c1.38-2.64,2.88-4.14,4.86-4.14,1.44,0,2.7.9,2.7,4.26V64h9.48V42.22c1.38-2.64,2.82-4.14,4.86-4.14,1.44,0,2.7.9,2.7,4.26V64h9.48V40.72C111.48,34.66,108.06,31.12,103.14,31.12Zm33.3,0a11.514,11.514,0,0,0-9,4.56l-.48-3.54h-8.34V77.32l9.48-1.02V61.72a9.945,9.945,0,0,0,7.74,3.3c7.86,0,12.66-7.2,12.66-17.04C148.5,37.66,144.84,31.12,136.44,31.12Zm-3.48,26.94a5.644,5.644,0,0,1-4.86-2.82V41.8c1.38-2.34,3.24-3.72,5.34-3.72,3.3,0,5.22,2.1,5.22,10.02C138.66,55.24,136.5,58.06,132.96,58.06Zm41.46,4.44-3.18-6.06a6.3,6.3,0,0,1-3.42,1.08c-1.98,0-3-1.08-3-4.14V38.74h6.3l1.02-6.6h-7.32V24.16l-9.48,1.08v6.9h-4.5v6.6h4.5V53.5c0,7.5,3.42,11.46,10.44,11.52A15.781,15.781,0,0,0,174.42,62.5ZM190.8,31.12c-9.72,0-15.6,6.72-15.6,16.92,0,10.74,5.94,16.98,15.6,16.98,9.72,0,15.6-6.72,15.6-16.92C206.4,37.36,200.52,31.12,190.8,31.12Zm0,6.96c3.84,0,5.76,2.94,5.76,10.02,0,6.9-1.92,9.96-5.76,9.96s-5.76-2.94-5.76-10.02C185.04,41.14,186.96,38.08,190.8,38.08Zm56.46-6.96c-4.08,0-7.02,1.68-9.54,5.04a7.562,7.562,0,0,0-7.5-5.04c-3.9,0-6.78,1.62-9.24,4.74l-.66-3.72h-8.28V64h9.48V42.22c1.38-2.64,2.88-4.14,4.86-4.14,1.44,0,2.7.9,2.7,4.26V64h9.48V42.22c1.38-2.64,2.82-4.14,4.86-4.14,1.44,0,2.7.9,2.7,4.26V64h9.48V40.72C255.6,34.66,252.18,31.12,247.26,31.12Zm43.26,16.32c0-10.32-5.58-16.32-14.7-16.32-9.66,0-14.88,7.56-14.88,17.1,0,9.96,5.4,16.8,16.02,16.8a19.589,19.589,0,0,0,12.42-4.44l-3.9-5.28c-2.76,1.92-5.04,2.82-7.62,2.82-3.9,0-6.6-1.56-7.26-7.26h19.74A31.809,31.809,0,0,0,290.52,47.44Zm-9.3-2.28H270.6c.42-5.7,2.28-7.74,5.46-7.74,3.78,0,5.1,3,5.16,7.32Zm32.04-13.92c-3.66,0-6.78,2.64-8.22,7.08l-.78-6.18h-8.28V64h9.48V48.22c1.02-4.86,2.64-7.8,6.6-7.8a11.517,11.517,0,0,1,2.88.42l1.5-9.18A10.733,10.733,0,0,0,313.26,31.24Zm35.58-5.76a11.319,11.319,0,0,1,4.98,1.2l2.58-6.18a19.387,19.387,0,0,0-8.7-2.04c-8.16,0-12.18,4.74-12.18,10.86v2.82h-4.8v6.6h4.8V64H345V38.74h6.48l1.02-6.6H345V29.68C345,26.68,346.08,25.48,348.84,25.48Zm24.06,5.76c-3.66,0-6.78,2.64-8.22,7.08l-.78-6.18h-8.28V64h9.48V48.22c1.02-4.86,2.64-7.8,6.6-7.8a11.517,11.517,0,0,1,2.88.42l1.5-9.18A10.733,10.733,0,0,0,372.9,31.24Zm30.9,23.52V42.4c0-7.38-3.96-11.28-13.2-11.28a35.993,35.993,0,0,0-12,2.34l2.16,6.24a28.7,28.7,0,0,1,8.34-1.68c3.9,0,5.4,1.14,5.4,4.92v1.38h-3.24c-9.66,0-14.94,3.78-14.94,10.74,0,5.82,4.02,9.96,10.38,9.96,3.78,0,7.32-1.26,9.6-4.8,1.44,3.18,3.9,4.32,7.68,4.62l1.98-6.18C404.46,58.12,403.8,57.22,403.8,54.76Zm-14.34,3.48c-2.34,0-3.72-1.5-3.72-4.02,0-3.18,2.1-4.68,6.42-4.68h2.34v5.64A5.676,5.676,0,0,1,389.46,58.24Zm54-27.12a10.571,10.571,0,0,0-8.4,4.26V18.46l-9.48,1.02V64h8.4l.48-3.06a10.208,10.208,0,0,0,8.34,4.08c7.92,0,12.66-7.08,12.66-16.92C455.46,37.42,451.32,31.12,443.46,31.12Zm-3.36,27a5.962,5.962,0,0,1-5.04-3.06V41.8c1.38-2.34,3.18-3.72,5.46-3.72,2.94,0,5.1,1.92,5.1,10.02C445.62,55.54,443.34,58.12,440.1,58.12Zm49.08-10.68c0-10.32-5.58-16.32-14.7-16.32-9.66,0-14.88,7.56-14.88,17.1,0,9.96,5.4,16.8,16.02,16.8a19.589,19.589,0,0,0,12.42-4.44l-3.9-5.28c-2.76,1.92-5.04,2.82-7.62,2.82-3.9,0-6.6-1.56-7.26-7.26H489A31.809,31.809,0,0,0,489.18,47.44Zm-9.3-2.28H469.26c.42-5.7,2.28-7.74,5.46-7.74,3.78,0,5.1,3,5.16,7.32ZM511.44,64l10.02-31.86H511.8L505.92,56.8l-5.64-24.66H489.96L500.22,64Zm59.34-16.56c0-10.32-5.64-16.32-14.4-16.32a12.064,12.064,0,0,0-9.36,4.02c-1.86-2.46-4.86-4.02-9.72-4.02a35.993,35.993,0,0,0-12,2.34l2.16,6.3a28.7,28.7,0,0,1,8.34-1.68c3.9,0,5.4,1.2,5.4,4.92v1.32h-3.24c-9.9,0-15.3,3.78-15.3,10.74,0,5.82,4.02,9.96,10.62,9.96,4.44,0,8.4-1.38,11.28-5.46,2.64,3.36,6.9,5.46,12.66,5.46a19.589,19.589,0,0,0,12.42-4.44l-3.9-5.28c-2.76,1.92-5.04,2.82-7.62,2.82-3.96,0-6.66-1.56-7.26-7.26H570.6A31.809,31.809,0,0,0,570.78,47.44Zm-9.36-2.28H550.86c.42-5.7,2.28-7.74,5.4-7.74,3.78,0,5.16,3,5.16,7.32ZM536.28,58.24c-2.34,0-3.6-1.44-3.6-3.84,0-3.3,2.04-4.68,6.24-4.68h2.4v.24a17.624,17.624,0,0,0,.66,4.44C540.36,56.8,538.68,58.24,536.28,58.24ZM605.58,34l-2.22-7.02a25.233,25.233,0,0,1-15,4.14c-8.34,0-13.98,4.44-13.98,11.64,0,4.14,1.62,6.96,5.7,9.12A7.588,7.588,0,0,0,576.3,58c0,3.42,2.82,6.3,9.78,6.3h4.62c3.18,0,4.56,1.26,4.56,3.12,0,2.04-1.32,3.6-6.9,3.6-5.76,0-6.96-1.2-6.96-3.96h-8.52c0,6.3,3.18,10.26,15.24,10.26,10.92,0,16.68-4.02,16.68-10.56,0-5.34-4.74-9.24-12.18-9.24h-4.8c-3.06,0-3.48-.96-3.48-1.92a2.039,2.039,0,0,1,1.02-1.8,17.609,17.609,0,0,0,3.66.36c8.28,0,13.38-4.5,13.38-10.68,0-4.14-1.98-6.48-6-8.22C600.42,35.26,603.36,34.9,605.58,34ZM588.6,37.36c3.18,0,4.8,1.62,4.8,5.16,0,3.66-1.68,5.52-4.8,5.52-2.88,0-4.8-1.92-4.8-5.4C583.8,39.34,585.66,37.36,588.6,37.36Zm47.58,10.08c0-10.32-5.58-16.32-14.7-16.32-9.66,0-14.88,7.56-14.88,17.1,0,9.96,5.4,16.8,16.02,16.8a19.589,19.589,0,0,0,12.42-4.44l-3.9-5.28c-2.76,1.92-5.04,2.82-7.62,2.82-3.9,0-6.6-1.56-7.26-7.26H636A31.809,31.809,0,0,0,636.18,47.44Zm-9.3-2.28H616.26c.42-5.7,2.28-7.74,5.46-7.74,3.78,0,5.1,3,5.16,7.32Zm40.08,9.6V42.4c0-7.38-3.96-11.28-13.2-11.28a35.993,35.993,0,0,0-12,2.34l2.16,6.24a28.7,28.7,0,0,1,8.34-1.68c3.9,0,5.4,1.14,5.4,4.92v1.38h-3.24c-9.66,0-14.94,3.78-14.94,10.74,0,5.82,4.02,9.96,10.38,9.96,3.78,0,7.32-1.26,9.6-4.8,1.44,3.18,3.9,4.32,7.68,4.62l1.98-6.18C667.62,58.12,666.96,57.22,666.96,54.76Zm-14.34,3.48c-2.34,0-3.72-1.5-3.72-4.02,0-3.18,2.1-4.68,6.42-4.68h2.34v5.64A5.676,5.676,0,0,1,652.62,58.24Zm39.72-27.12a11.514,11.514,0,0,0-9,4.56l-.48-3.54h-8.34V77.32L684,76.3V61.72a9.945,9.945,0,0,0,7.74,3.3c7.86,0,12.66-7.2,12.66-17.04C704.4,37.66,700.74,31.12,692.34,31.12Zm-3.48,26.94A5.644,5.644,0,0,1,684,55.24V41.8c1.38-2.34,3.24-3.72,5.34-3.72,3.3,0,5.22,2.1,5.22,10.02C694.56,55.24,692.4,58.06,688.86,58.06Zm39.3-26.94a11.514,11.514,0,0,0-9,4.56l-.48-3.54h-8.34V77.32l9.48-1.02V61.72a9.945,9.945,0,0,0,7.74,3.3c7.86,0,12.66-7.2,12.66-17.04C740.22,37.66,736.56,31.12,728.16,31.12Zm-3.48,26.94a5.644,5.644,0,0,1-4.86-2.82V41.8c1.38-2.34,3.24-3.72,5.34-3.72,3.3,0,5.22,2.1,5.22,10.02C730.38,55.24,728.22,58.06,724.68,58.06Zm46.8-3.3V42.4c0-7.38-3.96-11.28-13.2-11.28a35.993,35.993,0,0,0-12,2.34l2.16,6.24a28.7,28.7,0,0,1,8.34-1.68c3.9,0,5.4,1.14,5.4,4.92v1.38h-3.24c-9.66,0-14.94,3.78-14.94,10.74,0,5.82,4.02,9.96,10.38,9.96,3.78,0,7.32-1.26,9.6-4.8,1.44,3.18,3.9,4.32,7.68,4.62l1.98-6.18C772.14,58.12,771.48,57.22,771.48,54.76Zm-14.34,3.48c-2.34,0-3.72-1.5-3.72-4.02,0-3.18,2.1-4.68,6.42-4.68h2.34v5.64A5.676,5.676,0,0,1,757.14,58.24Zm39.18-27c-3.66,0-6.78,2.64-8.22,7.08l-.78-6.18h-8.28V64h9.48V48.22c1.02-4.86,2.64-7.8,6.6-7.8a11.517,11.517,0,0,1,2.88.42l1.5-9.18A10.733,10.733,0,0,0,796.32,31.24Zm30.9,23.52V42.4c0-7.38-3.96-11.28-13.2-11.28a35.993,35.993,0,0,0-12,2.34l2.16,6.24a28.7,28.7,0,0,1,8.34-1.68c3.9,0,5.4,1.14,5.4,4.92v1.38h-3.24c-9.66,0-14.94,3.78-14.94,10.74,0,5.82,4.02,9.96,10.38,9.96,3.78,0,7.32-1.26,9.6-4.8,1.44,3.18,3.9,4.32,7.68,4.62l1.98-6.18C827.88,58.12,827.22,57.22,827.22,54.76Zm-14.34,3.48c-2.34,0-3.72-1.5-3.72-4.02,0-3.18,2.1-4.68,6.42-4.68h2.34v5.64A5.676,5.676,0,0,1,812.88,58.24Zm41.88,4.26-3.18-6.06a6.3,6.3,0,0,1-3.42,1.08c-1.98,0-3-1.08-3-4.14V38.74h6.3l1.02-6.6h-7.32V24.16l-9.48,1.08v6.9h-4.5v6.6h4.5V53.5c0,7.5,3.42,11.46,10.44,11.52A15.781,15.781,0,0,0,854.76,62.5Zm30.36-15.06c0-10.32-5.58-16.32-14.7-16.32-9.66,0-14.88,7.56-14.88,17.1,0,9.96,5.4,16.8,16.02,16.8a19.589,19.589,0,0,0,12.42-4.44l-3.9-5.28c-2.76,1.92-5.04,2.82-7.62,2.82-3.9,0-6.6-1.56-7.26-7.26h19.74A31.809,31.809,0,0,0,885.12,47.44Zm-9.3-2.28H865.2c.42-5.7,2.28-7.74,5.46-7.74,3.78,0,5.1,3,5.16,7.32ZM910.56,62.5l-3.18-6.06a6.3,6.3,0,0,1-3.42,1.08c-1.98,0-3-1.08-3-4.14V38.74h6.3l1.02-6.6h-7.32V24.16l-9.48,1.08v6.9h-4.5v6.6h4.5V53.5c0,7.5,3.42,11.46,10.44,11.52A15.781,15.781,0,0,0,910.56,62.5Z" transform="translate(-12092.394 -19194.543)" fill="#323f51"/>
        <text id="Smerter_i_arme_eller_ben_Muskelsmerter_Ledsmerter_Følelse_af_lammelse_Rygsmerter_Smerter_som_flytter_sig_fra_sted_til_sted_Dødhedsfornemmelse_eller_følelsesforstyrrelse" data-name="Smerter i arme eller ben
Muskelsmerter
Ledsmerter
Følelse af lammelse 
Rygsmerter
Smerter, som flytter sig fra sted til sted
Dødhedsfornemmelse eller følelsesforstyrrelse" transform="translate(-11992.452 -19028.742)" fill="#323f51" font-size="40" font-family="FiraSans-Book, Fira Sans"><tspan x="0" y="43">Smerter i arme eller ben</tspan><tspan x="0" y="123">Muskelsmerter</tspan><tspan x="0" y="203">Ledsmerter</tspan><tspan x="0" y="283">Følelse af lammelse </tspan><tspan x="0" y="363">Rygsmerter</tspan><tspan x="0" y="443">Smerter, som flytter sig fra sted til sted</tspan><tspan x="0" y="523">Dødhedsfornemmelse eller </tspan><tspan x="0" y="603">følelsesforstyrrelse</tspan></text>
        <circle id="Ellipse_205" data-name="Ellipse 205" cx="16" cy="16" r="16" transform="translate(-12092.634 -19011.977)" fill="#323f51"/>
        <circle id="Ellipse_204" data-name="Ellipse 204" cx="16" cy="16" r="16" transform="translate(-12092.634 -18931.977)" fill="#323f51"/>
        <circle id="Ellipse_203" data-name="Ellipse 203" cx="16" cy="16" r="16" transform="translate(-12092.634 -18851.977)" fill="#323f51"/>
        <circle id="Ellipse_202" data-name="Ellipse 202" cx="16" cy="16" r="16" transform="translate(-12092.634 -18772.977)" fill="#323f51"/>
        <circle id="Ellipse_201" data-name="Ellipse 201" cx="16" cy="16" r="16" transform="translate(-12092.634 -18692.977)" fill="#323f51"/>
        <circle id="Ellipse_200" data-name="Ellipse 200" cx="16" cy="16" r="16" transform="translate(-12092.634 -18612.977)" fill="#323f51"/>
        <circle id="Ellipse_199" data-name="Ellipse 199" cx="16" cy="16" r="16" transform="translate(-12092.634 -18532.977)" fill="#323f51"/>
      </g>
    </g>
    <g id="Group_1512" data-name="Group 1512" transform="translate(12343 20220)">
      <path id="Rectangle_542" data-name="Rectangle 542" d="M30,0H63.235a0,0,0,0,1,0,0V914.262a0,0,0,0,1,0,0H40a40,40,0,0,1-40-40V30A30,30,0,0,1,30,0Z" transform="translate(-10970.266 -20133.984)" fill="#903"/>
      <g id="Group_1505" data-name="Group 1505" transform="translate(26)">
        <rect id="Rectangle_533" data-name="Rectangle 533" width="1172.235" height="914.261" rx="41" transform="translate(-10964.648 -20133.984)" fill="#fff" stroke="#903" stroke-width="10" stroke-dasharray="20"/>
        <path id="Path_2008" data-name="Path 2008" d="M17.28,21.4c-8.64,0-15,4.68-15,12C2.28,39.58,5.7,43.42,15,46.3c6.06,1.86,7.62,3.24,7.62,6.3,0,3.18-2.52,5.1-6.6,5.1A15.058,15.058,0,0,1,5.58,53.56L.54,59.08c3.42,3.3,8.58,5.94,15.78,5.94,10.38,0,16.5-5.4,16.5-13.14,0-7.68-4.5-10.92-12.36-13.44-6.48-2.04-8.04-3.12-8.04-5.76S14.58,28.6,18,28.6a13.641,13.641,0,0,1,9.06,3.48l4.62-5.34C28.02,23.26,23.64,21.4,17.28,21.4ZM54.42,64.06,64.56,32.14H54.78l-6.24,25.8-5.7-25.8H32.76L42.48,64h3.24c-1.74,4.08-4.02,5.88-10.26,6.66l1.02,6.66C46.5,76.78,51.9,72.1,54.42,64.06Zm48.72-32.94c-4.08,0-7.02,1.68-9.54,5.04a7.562,7.562,0,0,0-7.5-5.04c-3.9,0-6.78,1.62-9.24,4.74l-.66-3.72H67.92V64H77.4V42.22c1.38-2.64,2.88-4.14,4.86-4.14,1.44,0,2.7.9,2.7,4.26V64h9.48V42.22c1.38-2.64,2.82-4.14,4.86-4.14,1.44,0,2.7.9,2.7,4.26V64h9.48V40.72C111.48,34.66,108.06,31.12,103.14,31.12Zm33.3,0a11.514,11.514,0,0,0-9,4.56l-.48-3.54h-8.34V77.32l9.48-1.02V61.72a9.945,9.945,0,0,0,7.74,3.3c7.86,0,12.66-7.2,12.66-17.04C148.5,37.66,144.84,31.12,136.44,31.12Zm-3.48,26.94a5.644,5.644,0,0,1-4.86-2.82V41.8c1.38-2.34,3.24-3.72,5.34-3.72,3.3,0,5.22,2.1,5.22,10.02C138.66,55.24,136.5,58.06,132.96,58.06Zm41.46,4.44-3.18-6.06a6.3,6.3,0,0,1-3.42,1.08c-1.98,0-3-1.08-3-4.14V38.74h6.3l1.02-6.6h-7.32V24.16l-9.48,1.08v6.9h-4.5v6.6h4.5V53.5c0,7.5,3.42,11.46,10.44,11.52A15.781,15.781,0,0,0,174.42,62.5ZM190.8,31.12c-9.72,0-15.6,6.72-15.6,16.92,0,10.74,5.94,16.98,15.6,16.98,9.72,0,15.6-6.72,15.6-16.92C206.4,37.36,200.52,31.12,190.8,31.12Zm0,6.96c3.84,0,5.76,2.94,5.76,10.02,0,6.9-1.92,9.96-5.76,9.96s-5.76-2.94-5.76-10.02C185.04,41.14,186.96,38.08,190.8,38.08Zm56.46-6.96c-4.08,0-7.02,1.68-9.54,5.04a7.562,7.562,0,0,0-7.5-5.04c-3.9,0-6.78,1.62-9.24,4.74l-.66-3.72h-8.28V64h9.48V42.22c1.38-2.64,2.88-4.14,4.86-4.14,1.44,0,2.7.9,2.7,4.26V64h9.48V42.22c1.38-2.64,2.82-4.14,4.86-4.14,1.44,0,2.7.9,2.7,4.26V64h9.48V40.72C255.6,34.66,252.18,31.12,247.26,31.12Zm43.26,16.32c0-10.32-5.58-16.32-14.7-16.32-9.66,0-14.88,7.56-14.88,17.1,0,9.96,5.4,16.8,16.02,16.8a19.589,19.589,0,0,0,12.42-4.44l-3.9-5.28c-2.76,1.92-5.04,2.82-7.62,2.82-3.9,0-6.6-1.56-7.26-7.26h19.74A31.809,31.809,0,0,0,290.52,47.44Zm-9.3-2.28H270.6c.42-5.7,2.28-7.74,5.46-7.74,3.78,0,5.1,3,5.16,7.32Zm32.04-13.92c-3.66,0-6.78,2.64-8.22,7.08l-.78-6.18h-8.28V64h9.48V48.22c1.02-4.86,2.64-7.8,6.6-7.8a11.517,11.517,0,0,1,2.88.42l1.5-9.18A10.733,10.733,0,0,0,313.26,31.24Zm35.58-5.76a11.319,11.319,0,0,1,4.98,1.2l2.58-6.18a19.387,19.387,0,0,0-8.7-2.04c-8.16,0-12.18,4.74-12.18,10.86v2.82h-4.8v6.6h4.8V64H345V38.74h6.48l1.02-6.6H345V29.68C345,26.68,346.08,25.48,348.84,25.48Zm24.06,5.76c-3.66,0-6.78,2.64-8.22,7.08l-.78-6.18h-8.28V64h9.48V48.22c1.02-4.86,2.64-7.8,6.6-7.8a11.517,11.517,0,0,1,2.88.42l1.5-9.18A10.733,10.733,0,0,0,372.9,31.24Zm30.9,23.52V42.4c0-7.38-3.96-11.28-13.2-11.28a35.993,35.993,0,0,0-12,2.34l2.16,6.24a28.7,28.7,0,0,1,8.34-1.68c3.9,0,5.4,1.14,5.4,4.92v1.38h-3.24c-9.66,0-14.94,3.78-14.94,10.74,0,5.82,4.02,9.96,10.38,9.96,3.78,0,7.32-1.26,9.6-4.8,1.44,3.18,3.9,4.32,7.68,4.62l1.98-6.18C404.46,58.12,403.8,57.22,403.8,54.76Zm-14.34,3.48c-2.34,0-3.72-1.5-3.72-4.02,0-3.18,2.1-4.68,6.42-4.68h2.34v5.64A5.676,5.676,0,0,1,389.46,58.24ZM460.8,31.12c-4.08,0-7.02,1.68-9.54,5.04a7.562,7.562,0,0,0-7.5-5.04c-3.9,0-6.78,1.62-9.24,4.74l-.66-3.72h-8.28V64h9.48V42.22c1.38-2.64,2.88-4.14,4.86-4.14,1.44,0,2.7.9,2.7,4.26V64h9.48V42.22c1.38-2.64,2.82-4.14,4.86-4.14,1.44,0,2.7.9,2.7,4.26V64h9.48V40.72C469.14,34.66,465.72,31.12,460.8,31.12Zm40.8,23.64V42.4c0-7.38-3.96-11.28-13.2-11.28a35.993,35.993,0,0,0-12,2.34l2.16,6.24a28.7,28.7,0,0,1,8.34-1.68c3.9,0,5.4,1.14,5.4,4.92v1.38h-3.24c-9.66,0-14.94,3.78-14.94,10.74,0,5.82,4.02,9.96,10.38,9.96,3.78,0,7.32-1.26,9.6-4.8,1.44,3.18,3.9,4.32,7.68,4.62l1.98-6.18C502.26,58.12,501.6,57.22,501.6,54.76Zm-14.34,3.48c-2.34,0-3.72-1.5-3.72-4.02,0-3.18,2.1-4.68,6.42-4.68h2.34v5.64A5.676,5.676,0,0,1,487.26,58.24ZM525.6,64l10.02-31.86h-9.66L520.08,56.8l-5.64-24.66H504.12L514.38,64Zm40.56-16.56c0-10.32-5.58-16.32-14.7-16.32-9.66,0-14.88,7.56-14.88,17.1,0,9.96,5.4,16.8,16.02,16.8a19.589,19.589,0,0,0,12.42-4.44l-3.9-5.28c-2.76,1.92-5.04,2.82-7.62,2.82-3.9,0-6.6-1.56-7.26-7.26h19.74A31.809,31.809,0,0,0,566.16,47.44Zm-9.3-2.28H546.24c.42-5.7,2.28-7.74,5.46-7.74,3.78,0,5.1,3,5.16,7.32Zm42.78-14.04c-9.72,0-15.6,6.72-15.6,16.92,0,10.74,5.94,16.98,15.6,16.98,9.72,0,15.6-6.72,15.6-16.92C615.24,37.36,609.36,31.12,599.64,31.12Zm0,6.96c3.84,0,5.76,2.94,5.76,10.02,0,6.9-1.92,9.96-5.76,9.96s-5.76-2.94-5.76-10.02C593.88,41.14,595.8,38.08,599.64,38.08ZM650.22,34,648,26.98a25.233,25.233,0,0,1-15,4.14c-8.34,0-13.98,4.44-13.98,11.64,0,4.14,1.62,6.96,5.7,9.12A7.588,7.588,0,0,0,620.94,58c0,3.42,2.82,6.3,9.78,6.3h4.62c3.18,0,4.56,1.26,4.56,3.12,0,2.04-1.32,3.6-6.9,3.6-5.76,0-6.96-1.2-6.96-3.96h-8.52c0,6.3,3.18,10.26,15.24,10.26,10.92,0,16.68-4.02,16.68-10.56,0-5.34-4.74-9.24-12.18-9.24h-4.8c-3.06,0-3.48-.96-3.48-1.92A2.039,2.039,0,0,1,630,53.8a17.609,17.609,0,0,0,3.66.36c8.28,0,13.38-4.5,13.38-10.68,0-4.14-1.98-6.48-6-8.22C645.06,35.26,648,34.9,650.22,34Zm-16.98,3.36c3.18,0,4.8,1.62,4.8,5.16,0,3.66-1.68,5.52-4.8,5.52-2.88,0-4.8-1.92-4.8-5.4C628.44,39.34,630.3,37.36,633.24,37.36Zm54.9,25.14-3.18-6.06a6.3,6.3,0,0,1-3.42,1.08c-1.98,0-3-1.08-3-4.14V38.74h6.3l1.02-6.6h-7.32V24.16l-9.48,1.08v6.9h-4.5v6.6h4.5V53.5c0,7.5,3.42,11.46,10.44,11.52A15.781,15.781,0,0,0,688.14,62.5Zm28.5-7.74V42.4c0-7.38-3.96-11.28-13.2-11.28a35.993,35.993,0,0,0-12,2.34l2.16,6.24a28.7,28.7,0,0,1,8.34-1.68c3.9,0,5.4,1.14,5.4,4.92v1.38H704.1c-9.66,0-14.94,3.78-14.94,10.74,0,5.82,4.02,9.96,10.38,9.96,3.78,0,7.32-1.26,9.6-4.8,1.44,3.18,3.9,4.32,7.68,4.62l1.98-6.18C717.3,58.12,716.64,57.22,716.64,54.76ZM702.3,58.24c-2.34,0-3.72-1.5-3.72-4.02,0-3.18,2.1-4.68,6.42-4.68h2.34v5.64A5.676,5.676,0,0,1,702.3,58.24Zm39.18-27c-3.66,0-6.78,2.64-8.22,7.08l-.78-6.18H724.2V64h9.48V48.22c1.02-4.86,2.64-7.8,6.6-7.8a11.517,11.517,0,0,1,2.88.42l1.5-9.18A10.733,10.733,0,0,0,741.48,31.24Zm42-.12c-4.08,0-7.02,1.68-9.54,5.04a7.562,7.562,0,0,0-7.5-5.04c-3.9,0-6.78,1.62-9.24,4.74l-.66-3.72h-8.28V64h9.48V42.22c1.38-2.64,2.88-4.14,4.86-4.14,1.44,0,2.7.9,2.7,4.26V64h9.48V42.22c1.38-2.64,2.82-4.14,4.86-4.14,1.44,0,2.7.9,2.7,4.26V64h9.48V40.72C791.82,34.66,788.4,31.12,783.48,31.12Z" transform="translate(-10843.76 -20017.223)" fill="#903"/>
        <text id="Mavesmerter_Hyppige_løse_afføringer_Diarré_Oppustethed_Kvalme_Sure_opstød_Svie_eller_smerter_i_toppen_af_maven" data-name="Mavesmerter
Hyppige, løse afføringer
Diarré
Oppustethed
Kvalme
Sure opstød
Svie eller smerter i toppen af maven" transform="translate(-10743.818 -19854.746)" fill="#323f51" font-size="40" font-family="FiraSans-Book, Fira Sans"><tspan x="0" y="43">Mavesmerter</tspan><tspan x="0" y="123">Hyppige, løse afføringer</tspan><tspan x="0" y="203">Diarré</tspan><tspan x="0" y="283">Oppustethed</tspan><tspan x="0" y="363">Kvalme</tspan><tspan x="0" y="443">Sure opstød</tspan><tspan x="0" y="523">Svie eller smerter i toppen af maven</tspan></text>
        <circle id="Ellipse_211" data-name="Ellipse 211" cx="16" cy="16" r="16" transform="translate(-10844 -19837.982)" fill="#903"/>
        <circle id="Ellipse_212" data-name="Ellipse 212" cx="16" cy="16" r="16" transform="translate(-10844 -19757.982)" fill="#903"/>
        <circle id="Ellipse_213" data-name="Ellipse 213" cx="16" cy="16" r="16" transform="translate(-10844 -19677.982)" fill="#903"/>
        <circle id="Ellipse_214" data-name="Ellipse 214" cx="16" cy="16" r="16" transform="translate(-10844 -19598.982)" fill="#903"/>
        <circle id="Ellipse_215" data-name="Ellipse 215" cx="16" cy="16" r="16" transform="translate(-10844 -19518.982)" fill="#903"/>
        <circle id="Ellipse_216" data-name="Ellipse 216" cx="16" cy="16" r="16" transform="translate(-10844 -19438.982)" fill="#903"/>
        <circle id="Ellipse_217" data-name="Ellipse 217" cx="16" cy="16" r="16" transform="translate(-10844 -19358.982)" fill="#903"/>
      </g>
    </g>
  </g>
</svg>
