<svg xmlns="http://www.w3.org/2000/svg" width="35.86" height="40.983" viewBox="0 0 35.86 40.983">
  <g id="Group_405" data-name="Group 405" opacity="0.368">
    <path id="Path_194" data-name="Path 194" d="M4463.052,1672.632a1.281,1.281,0,0,0-1.28,1.281v8.886h-30.738v-8.886a1.281,1.281,0,1,0-2.561,0v10.166a1.281,1.281,0,0,0,1.281,1.281h33.3a1.282,1.282,0,0,0,1.281-1.281v-10.166A1.282,1.282,0,0,0,4463.052,1672.632Z" transform="translate(-4428.472 -1644.377)" fill="#323f51"/>
    <path id="Path_195" data-name="Path 195" d="M4447.019,1646.243a1.282,1.282,0,0,0,1.812,0l15.368-15.369a1.282,1.282,0,0,0-.905-2.186h-7.686v-16.65a1.281,1.281,0,0,0-1.281-1.281h-12.812a1.28,1.28,0,0,0-1.28,1.281v16.65h-7.678a1.282,1.282,0,0,0-.906,2.186Zm-5.5-14.994a1.281,1.281,0,0,0,1.281-1.281v-16.649h10.251v16.649a1.281,1.281,0,0,0,1.281,1.281h5.875l-12.277,12.277-12.277-12.277Z" transform="translate(-4429.994 -1610.758)" fill="#323f51"/>
  </g>
</svg>
