<svg width="35.86" height="40.983" xmlns="http://www.w3.org/2000/svg"><g fill="#323f51" data-name="Group 405" opacity=".368"><path d="M34.58 28.255a1.281 1.281 0 0 0-1.28 1.281v8.886H2.562v-8.886a1.281 1.281 0 1 0-2.561 0v10.166a1.281 1.281 0 0 0 1.281 1.281h33.3a1.282 1.282 0 0 0 1.281-1.281V29.536a1.282 1.282 0 0 0-1.283-1.281Z" data-name="Path 194"/><path d="M17.025 35.485a1.282 1.282 0 0 0 1.812 0l15.368-15.369a1.282 1.282 0 0 0-.905-2.186h-7.686V1.28a1.281 1.281 0 0 0-1.281-1.281H11.521a1.28 1.28 0 0 0-1.28 1.281v16.65H2.563a1.282 1.282 0 0 0-.906 2.186Zm-5.5-14.994a1.281 1.281 0 0 0 1.281-1.281V2.561h10.251V19.21a1.281 1.281 0 0 0 1.281 1.281h5.875L17.936 32.768 5.659 20.491Z" data-name="Path 195"/></g></svg>