<svg xmlns="http://www.w3.org/2000/svg" width="489.677" height="877.159" viewBox="0 0 489.677 877.159">
  <g id="Group_410" data-name="Group 410" transform="matrix(0.998, -0.07, 0.07, 0.998, 7850.505, -15556.321)">
    <g id="Group_406" data-name="Group 406" transform="translate(-8923.664 15118.41)">
      <path id="Path_655" data-name="Path 655" d="M4.875,0C3.638,2.163,2.348,4.3,1.08,6.444a7.249,7.249,0,0,0,.249,8c2.621,3.622,11.037,6.456,13.78,7.221,8.2,2.294,8.452-5.879,10.646-9.7" transform="matrix(0.891, -0.454, 0.454, 0.891, 178.83, 176.472)" fill="none" stroke="#323f51" stroke-linecap="round" stroke-miterlimit="10" stroke-width="3"/>
      <path id="Path_656" data-name="Path 656" d="M4.875,0C3.637,2.163,2.348,4.3,1.08,6.444a7.243,7.243,0,0,0,.252,8c2.621,3.622,11.034,6.456,13.777,7.221,8.2,2.294,8.455-5.879,10.646-9.705" transform="matrix(0.891, -0.454, 0.454, 0.891, 125.783, 173.878)" fill="none" stroke="#323f51" stroke-linecap="round" stroke-miterlimit="10" stroke-width="3"/>
      <g id="Group_371" data-name="Group 371" transform="translate(0 0)">
        <path id="Path_387" data-name="Path 387" d="M0,0C6.691,87.311,4.975,151.107,2.71,239.181,26.857,224.412,36.1,207.268,76.767,207.3" transform="matrix(0.978, 0.208, -0.208, 0.978, 173.118, 493.462)" fill="none" stroke="#7ec8d6" stroke-linecap="round" stroke-linejoin="round" stroke-width="3"/>
        <path id="Path_388" data-name="Path 388" d="M-264.651-138.372c14.418,96.1,19.372,159.643,12.521,254.038,2.166-30.205-58.7-24.978-40.922-24.332" transform="translate(332.057 610.851)" fill="none" stroke="#7ec8d6" stroke-linecap="round" stroke-linejoin="round" stroke-width="3"/>
        <path id="Path_391" data-name="Path 391" d="M-346.571,162c-.671,12.059.116,24.638,5.737,35.33,7.755,14.759,23.286,23.518,38.252,30.875,37.878,18.629,79.133,33.847,121.25,31.011s85.036-27.651,98.18-67.764c5.757-17.564,5.525-36.445,5.232-54.928L-80.373-19.659c-1.039-66.392-2.371-149.617-59.918-194.66-39.781-31.137-74.717-24.169-98.932,18.276-26.056,45.674-31,104.654-44.584,154.678C-301.992,25.616-342.707,92.114-346.571,162Z" transform="translate(346.773 233.585)" fill="none" stroke="#323f51" stroke-miterlimit="10" stroke-width="6"/>
        <path id="Path_520" data-name="Path 520" d="M11.361,11.874A34.049,34.049,0,0,1,1.478,5.36C.019,4.016-.638,2.508.814.886,2.2-.668,3.625.062,4.933,1.241,15.15,10.447,26.41,10.928,38.4,5.2c.6-.285,1.209-.54,1.8-.841,1.48-.755,2.9-.8,3.766.8a2.662,2.662,0,0,1-1.316,3.965C32.595,14.324,22.256,16.318,11.361,11.874Z" transform="translate(142.213 224.853) rotate(29)" fill="#323f51"/>
        <path id="Path_524" data-name="Path 524" d="M7.026,6.061A21.877,21.877,0,0,1,.914,2.736C.012,2.05-.394,1.28.5.452c.86-.793,1.739-.421,2.548.181,6.319,4.7,13.282,4.945,20.7,2.022.37-.146.748-.276,1.111-.429.915-.386,1.793-.411,2.329.407.556.849.225,1.579-.814,2.024C20.158,7.312,13.765,8.33,7.026,6.061Z" transform="matrix(-0.951, 0.309, -0.309, -0.951, 141.528, 144.231)" fill="#323f51"/>
        <path id="Path_521" data-name="Path 521" d="M7.026,6.061A21.877,21.877,0,0,1,.914,2.736C.012,2.05-.394,1.28.5.452c.86-.793,1.739-.421,2.548.181,6.319,4.7,13.282,4.945,20.7,2.022.37-.146.748-.276,1.111-.429.915-.386,1.793-.411,2.329.407.556.849.225,1.579-.814,2.024C20.158,7.312,13.765,8.33,7.026,6.061Z" transform="matrix(-0.966, -0.259, 0.259, -0.966, 217.239, 152.08)" fill="#323f51"/>
        <path id="Path_386" data-name="Path 386" d="M249.95,44.317a368.322,368.322,0,0,0-40.345,1.13c-37.876,2.989-70.036,10.262-103.525,8.182-8.684-.539-14.933.456-22.863.693-3.661.111-9.445.126-13.117-.693C37.671,46.4,24.907,38.816,7.468,28.553-4.451,19.559.235,4.848,5.493,0" transform="translate(118.763 549.127) rotate(-69)" fill="none" stroke="#323f51" stroke-linecap="round" stroke-linejoin="round" stroke-width="3"/>
        <path id="Path_526" data-name="Path 526" d="M53.985,0C41.775,12.9,33.238,24.233,23.724,45.272,11.8,71.648,5.47,108.036,3.017,144.613,1.531,166.791-.312,188.627.045,211.823c.183,11.881,1.042,28.024,4.023,33.849,0,0,2.984,7.621,7.753,12.442a56.583,56.583,0,0,0,5.843,4.4c2.736,1.926,9.983,3.318,10.951,2.53-.109.166-4.339,1.054-4.339,1.054" transform="matrix(0.914, -0.407, 0.407, 0.914, 14.263, 320.173)" fill="none" stroke="#323f51" stroke-linecap="round" stroke-linejoin="round" stroke-width="3"/>
      </g>
    </g>
    <ellipse id="Ellipse_61" data-name="Ellipse 61" cx="10.43" cy="11.153" rx="10.43" ry="11.153" transform="translate(-8669.19 15150.118) rotate(-72.98)" fill="none" stroke="#323f51" stroke-miterlimit="10" stroke-width="6"/>
    <ellipse id="Ellipse_62" data-name="Ellipse 62" cx="10.43" cy="11.153" rx="10.43" ry="11.153" transform="translate(-8639.978 15150.119) rotate(-72.98)" fill="none" stroke="#323f51" stroke-miterlimit="10" stroke-width="6"/>
    <ellipse id="Ellipse_63" data-name="Ellipse 63" cx="10.43" cy="11.153" rx="10.43" ry="11.153" transform="translate(-8626.279 15125.313) rotate(-72.98)" fill="none" stroke="#323f51" stroke-miterlimit="10" stroke-width="6"/>
    <path id="Path_683" data-name="Path 683" d="M74.233,0c36.955,0,52.915,28.187,52.915,74.179S97.19,157.455,60.236,157.455,0,122.13,0,76.138,37.279,0,74.233,0Z" transform="translate(-8622.144 15119.179) rotate(-72.98)" fill="none" stroke="#323f51" stroke-width="6"/>
  </g>
</svg>
