<svg width="489.677" height="877.159" xmlns="http://www.w3.org/2000/svg"><g data-name="Group 410" transform="matrix(.998 -.07 .07 .998 7850.505 -15556.321)"><g data-name="Group 406"><path fill="none" stroke="#323f51" stroke-linecap="round" stroke-miterlimit="10" stroke-width="3" d="M-8740.49 15292.669c-.12 2.489-.3 4.978-.456 7.464a7.249 7.249 0 0 0 3.854 7.015c3.98 2.038 12.765.742 15.556.178 8.348-1.679 4.862-9.075 5.082-13.476" data-name="Path 655"/><path fill="none" stroke="#323f51" stroke-linecap="round" stroke-miterlimit="10" stroke-width="3" d="M-8793.537 15290.075c-.121 2.489-.3 4.978-.456 7.464a7.243 7.243 0 0 0 3.856 7.014c3.98 2.037 12.763.743 15.554.179 8.348-1.679 4.864-9.077 5.08-13.48" data-name="Path 656"/><g data-name="Group 371"><path fill="none" stroke="#7ec8d6" stroke-linecap="round" stroke-linejoin="round" stroke-width="2.99961" d="M-8750.546 15611.872c-11.617 86.782-26.565 148.817-47.1 234.483 26.688-9.422 39.294-24.266 79.06-15.776" data-name="Path 387"/><path fill="none" stroke="#7ec8d6" stroke-linecap="round" stroke-linejoin="round" stroke-width="3" d="M-8856.258 15590.889c14.418 96.1 19.372 159.643 12.521 254.038 2.166-30.205-58.7-24.978-40.922-24.332" data-name="Path 388"/><path fill="none" stroke="#323f51" stroke-miterlimit="10" stroke-width="6" d="M-8923.462 15513.995c-.671 12.059.116 24.638 5.737 35.33 7.755 14.759 23.286 23.518 38.252 30.875 37.878 18.629 79.133 33.847 121.25 31.011s85.036-27.651 98.18-67.764c5.757-17.564 5.525-36.445 5.232-54.928l-2.453-156.183c-1.039-66.392-2.371-149.617-59.918-194.66-39.781-31.137-74.717-24.169-98.932 18.276-26.056 45.674-31 104.654-44.584 154.678-18.185 66.981-58.9 133.479-62.764 203.365Z" data-name="Path 391"/><path fill="#323f51" d="M-8777.271 15359.156a34.049 34.049 0 0 1-5.486-10.488c-.624-1.883-.468-3.52 1.588-4.235 1.966-.688 2.858.642 3.43 2.307 4.474 13.005 14.089 18.885 27.352 19.688.663.041 1.32.114 1.982.137 1.66.057 2.925.706 2.906 2.525a2.662 2.662 0 0 1-3.073 2.83c-11.315-.327-21.325-3.595-28.7-12.764Z" data-name="Path 520"/><path fill="#323f51" d="M-8790.69 15259.048a21.876 21.876 0 0 1 6.84 1.273c1.07.374 1.693.981 1.099 2.045-.573 1.02-1.524.937-2.48.615-7.46-2.517-14.158-.599-20.31 4.473-.306.253-.626.494-.924.752-.75.65-1.578.944-2.34.332-.791-.635-.702-1.432.148-2.176 5.091-4.446 10.857-7.39 17.966-7.314Z" data-name="Path 524"/><path fill="#323f51" d="M-8711.642 15262.815a21.88 21.88 0 0 1 5.043 4.795c.693.897.886 1.746-.192 2.314-1.036.543-1.789-.044-2.414-.835-4.887-6.177-11.55-8.217-19.473-7.314-.395.045-.794.072-1.184.126-.984.136-1.839-.067-2.145-.996-.317-.964.192-1.584 1.31-1.745 6.693-.954 13.132-.282 19.055 3.655Z" data-name="Path 521"/><path fill="none" stroke="#323f51" stroke-linecap="round" stroke-linejoin="round" stroke-width="3" d="M-8673.953 15450.07a368.322 368.322 0 0 0-13.404 38.07c-10.783 36.432-15.518 69.062-29.461 99.582-3.616 7.914-4.926 14.104-7.547 21.593-1.208 3.457-3.267 8.862-5.347 11.997-18.37 27.684-30.025 36.883-45.856 49.486-12.668 7.904-24.723-1.743-27.364-8.39" data-name="Path 386"/><path fill="none" stroke="#323f51" stroke-linecap="round" stroke-linejoin="round" stroke-width="3.0015600000000004" d="M-8860.059 15416.611c-5.91 16.76-9.1 30.593-9.233 53.695-.163 28.96 8.861 64.796 21.506 99.225 7.668 20.876 14.871 41.584 24.638 62.64 5.003 10.785 12.358 25.19 17.454 29.3 0 0 5.829 5.752 12.15 8.217a56.613 56.613 0 0 0 7.131 1.644c3.285.646 10.475-1.03 11.039-2.145-.032.196-3.537 2.73-3.537 2.73" data-name="Path 526"/></g></g><ellipse cx="10.43" cy="11.153" fill="none" stroke="#323f51" stroke-miterlimit="10" stroke-width="6" data-name="Ellipse 61" rx="10.43" ry="11.153" transform="rotate(-72.98 5906.247 13435.067)"/><ellipse cx="10.43" cy="11.153" fill="none" stroke="#323f51" stroke-miterlimit="10" stroke-width="6" data-name="Ellipse 62" rx="10.43" ry="11.153" transform="rotate(-72.98 5920.854 13415.321)"/><ellipse cx="10.43" cy="11.153" fill="none" stroke="#323f51" stroke-miterlimit="10" stroke-width="6" data-name="Ellipse 63" rx="10.43" ry="11.153" transform="rotate(-72.98 5910.936 13393.658)"/><path fill="none" stroke="#323f51" stroke-width="6" d="M-8600.416 15048.197c10.817-35.336 42.441-42.347 86.42-28.885s70.859 53.022 60.042 88.357-51.409 47.258-95.387 33.796-61.891-57.932-51.075-93.268Z" data-name="Path 683"/></g></svg>