<svg xmlns="http://www.w3.org/2000/svg" width="159.748" height="159.748" viewBox="0 0 159.748 159.748">
  <g id="Group_411" data-name="Group 411" transform="translate(-2160.074 -1127.008)">
    <g id="Group_253" data-name="Group 253" transform="translate(2160.074 1127.008)">
      <circle id="Nuance_A4_5d" data-name="Nuance A4 5d" cx="79.874" cy="79.874" r="79.874" transform="translate(0 0)" fill="#323f51"/>
    </g>
    <g id="Group_254" data-name="Group 254" transform="translate(2261.441 1240.961) rotate(180)">
      <g id="Group_80" data-name="Group 80" transform="translate(0.014 1.854)">
        <path id="Path_294" data-name="Path 294" d="M4.312,5.694,37.694.039c2.012-.341,3.366,1.57,3.026,4.268s-2.248,5.161-4.26,5.5L3.078,15.464C1.066,15.8-.288,13.894.052,11.2S2.3,6.035,4.312,5.694Z" transform="matrix(-0.381, -0.925, 0.925, -0.381, 34.793, 42.169)" fill="#fff"/>
        <path id="Path_295" data-name="Path 295" d="M4.975.056,57.724,6.818c3.179.407,6.133,2.928,6.6,5.631s-1.734,4.563-4.913,4.155L6.661,9.842C3.482,9.434.527,6.913.062,4.211S1.8-.351,4.975.056Z" transform="matrix(-0.384, 0.923, -0.923, -0.384, 30.447, 4.661)" fill="#fff"/>
      </g>
    </g>
  </g>
</svg>
