<svg xmlns="http://www.w3.org/2000/svg" xmlns:xlink="http://www.w3.org/1999/xlink" width="778.902" height="1091.944" viewBox="0 0 778.902 1091.944">
  <defs>
    <filter id="Ellipse_121" x="47.501" y="1005.944" width="610" height="86" filterUnits="userSpaceOnUse">
      <feOffset dy="3" input="SourceAlpha"/>
      <feGaussianBlur stdDeviation="3" result="blur"/>
      <feFlood flood-opacity="0.161"/>
      <feComposite operator="in" in2="blur"/>
      <feComposite in="SourceGraphic"/>
    </filter>
  </defs>
  <g id="Group_1151" data-name="Group 1151" transform="translate(12432.501 10801.944)">
    <g id="Group_1050" data-name="Group 1050" transform="translate(-3186 -25.705)">
      <path id="Path_1604" data-name="Path 1604" d="M-976.144,187.328" transform="translate(-8021.995 -10648.239)" fill="none" stroke="#323f51" stroke-width="1"/>
      <path id="Path_1602" data-name="Path 1602" d="M-893.626,262.108c-1.043,83.589-2.08,139.861-3.123,223.456a440.677,440.677,0,0,1-85.835,1.607" transform="translate(-8056.773 -10244.4)" fill="none" stroke="#323f51" stroke-linecap="round" stroke-linejoin="round" stroke-width="6"/>
      <path id="Path_1599" data-name="Path 1599" d="M-939.181,262.451c-3.9,80.18-4.019,134.033-.339,214.22a204.782,204.782,0,0,1,86.3,1.223" transform="translate(-7834.902 -10233.753)" fill="none" stroke="#323f51" stroke-linecap="round" stroke-linejoin="round" stroke-width="6"/>
      <path id="Path_1600" data-name="Path 1600" d="M-794.467,159.754c-66.494,36.866-106.8,107.52-135.368,177.981A973.389,973.389,0,0,0-999.1,760.077c1.664,27.656,4.73,56.009,17.448,80.625,16.142,31.247,46.185,53.091,77.675,68.759,59.767,29.736,127.15,40.988,193.81,44.572,56.669,3.047,114.874.57,167.753-20.027s100.076-61.738,116.583-116.032c9.773-32.136,8.411-66.455,6.958-100.012q-2.141-49.548-4.289-99.1c-3.827-88.447-7.942-178.455-37.66-261.852S-550.28,196.294-634,167.5c-26.492-9.117-144.2-18.983-159.85-7.962-.116.04-13.054,7.873-13.305,7.962" transform="translate(-8155.274 -10925.81)" fill="none" stroke="#323f51" stroke-miterlimit="10" stroke-width="10"/>
      <g id="Group_1012" data-name="Group 1012" transform="translate(-8953.053 -10570.625)">
        <path id="Path_200" data-name="Path 200" d="M0,.714C.224,23.57,73.867,22.859,73.643,0" transform="translate(73.644 17.504) rotate(180)" fill="none" stroke="#323f51" stroke-linecap="round" stroke-linejoin="round" stroke-width="7"/>
        <path id="Path_201" data-name="Path 201" d="M0,.714C.224,23.57,73.864,22.859,73.639,0" transform="translate(192.064 17.504) rotate(180)" fill="none" stroke="#323f51" stroke-linecap="round" stroke-linejoin="round" stroke-width="7"/>
        <path id="Path_202" data-name="Path 202" d="M0,.817C27.921,22.825,58.938,17.794,84.347,0" transform="translate(96.637 98.828) rotate(-180)" fill="none" stroke="#323f51" stroke-linecap="round" stroke-linejoin="round" stroke-width="7"/>
      </g>
      <g id="Group_1011" data-name="Group 1011" transform="translate(-9092.62 -10349.741)">
        <g id="Group_537" data-name="Group 537" transform="translate(0 0)">
          <path id="Path_755" data-name="Path 755" d="M605.71,1147.262h-.054a235.892,235.892,0,0,0-60.826,7.949c-.15.04-.311.079-.472.115a235.914,235.914,0,0,0-51.7,20.8l48.759,84.583a137.6,137.6,0,0,1,27.973-11.045l.642-.159a137.8,137.8,0,0,1,35.555-4.654h.038a136.383,136.383,0,0,1,63.322,15.517l48.886-84.542a233.687,233.687,0,0,0-112.12-28.564Z" transform="translate(-378.403 -1147.262)" fill="#efdc74"/>
          <path id="Path_754" data-name="Path 754" d="M915.293,1215.257l-48.871,84.517a136.6,136.6,0,0,1,59.166,77.349c6.135,20.526,24.374,34.325,45.381,34.338h1.43a48.614,48.614,0,0,0,46.61-62.509A233.808,233.808,0,0,0,915.293,1215.257Z" transform="translate(-566.893 -1181.552)" fill="#cc5858"/>
          <path id="Path_756" data-name="Path 756" d="M264.272,1348.935a48.621,48.621,0,0,0,46.551,62.609h.359c21.349,0,40.437-14,46.43-34.063a136.6,136.6,0,0,1,58.6-77.008l-48.758-84.583A233.716,233.716,0,0,0,264.272,1348.935Z" transform="translate(-262.168 -1181.871)" fill="#7ed6ad"/>
        </g>
        <g id="Group_536" data-name="Group 536" transform="translate(111.31 35.105)">
          <g id="Group_530" data-name="Group 530" transform="translate(0 84.311)">
            <g id="Group_527" data-name="Group 527" transform="translate(27.482 26.587)" opacity="0.1">
              <circle id="Ellipse_74" data-name="Ellipse 74" cx="84.166" cy="84.166" r="84.166" fill="#494d56"/>
            </g>
            <g id="Group_528" data-name="Group 528" transform="translate(2.588 1.582)">
              <circle id="Ellipse_75" data-name="Ellipse 75" cx="80.738" cy="80.738" r="80.738" transform="translate(0 114.181) rotate(-45)" fill="#fff"/>
            </g>
            <g id="Group_529" data-name="Group 529" transform="translate(0 0)">
              <circle id="Ellipse_76" data-name="Ellipse 76" cx="80.738" cy="80.738" r="80.738" transform="translate(0 114.181) rotate(-45)" fill="#e7f0f7"/>
            </g>
          </g>
          <g id="Group_531" data-name="Group 531" transform="translate(109.588 0) rotate(11)">
            <path id="Path_757" data-name="Path 757" d="M74.91,190.734a101.676,101.676,0,0,0-1.8-12.459c-1.836-9.488-3.63-18.985-5.455-28.476L57.228,95.569,39.079,1.155a1.427,1.427,0,0,0-2.8,0L14.339,115.289Q9.605,139.915,4.871,164.54C1.447,182.355-5.852,202.188,8.8,218.817c6.724,7.635,15.855,12.859,26,13.625q1.439.109,2.883.109a36.861,36.861,0,0,0,28.76-13.931,40.5,40.5,0,0,0,7.31-14.346A40.055,40.055,0,0,0,74.91,190.734Z" transform="translate(8.514)" fill="#494d56"/>
            <path id="Path_758" data-name="Path 758" d="M74.91,190.734a101.711,101.711,0,0,0-1.8-12.459c-1.837-9.488-3.631-18.985-5.455-28.476L57.228,95.569,39.079,1.155a1.426,1.426,0,0,0-2.8,0L14.339,115.289Q9.605,139.915,4.871,164.54C1.447,182.355-5.851,202.188,8.8,218.817c6.724,7.635,15.855,12.859,26,13.625q1.439.109,2.883.109A36.862,36.862,0,0,0,66.439,218.62a40.492,40.492,0,0,0,7.31-14.346A40.027,40.027,0,0,0,74.91,190.734Z" fill="#494d56" opacity="0.1"/>
            <path id="Path_759" data-name="Path 759" d="M0,232.53c.055,0,.109.005.163.005A36.865,36.865,0,0,0,28.924,218.6a40.492,40.492,0,0,0,7.31-14.347,40.018,40.018,0,0,0,1.161-13.538,101.557,101.557,0,0,0-1.8-12.461c-1.837-9.487-3.631-18.984-5.455-28.475q-5.211-27.115-10.424-54.23C14.494,68.408,5.114,19.606,1.564,1.139A1.384,1.384,0,0,0,0,.01Z" transform="translate(46.029 0.016)" fill="#fff" opacity="0.1"/>
          </g>
          <g id="Group_535" data-name="Group 535" transform="translate(63.041 128.352) rotate(11)">
            <g id="Group_532" data-name="Group 532" transform="translate(0 0)" opacity="0.1">
              <circle id="Ellipse_77" data-name="Ellipse 77" cx="42.795" cy="42.795" r="42.795" transform="translate(0 60.521) rotate(-45)" fill="#494d56"/>
            </g>
            <g id="Group_533" data-name="Group 533" transform="translate(26.892 22.505)">
              <circle id="Ellipse_78" data-name="Ellipse 78" cx="41.052" cy="41.052" r="41.052" transform="matrix(1, -0.01, 0.01, 1, 0, 0.788)" fill="#fff"/>
            </g>
            <g id="Group_534" data-name="Group 534" transform="translate(6.448 4.208)">
              <circle id="Ellipse_79" data-name="Ellipse 79" cx="41.052" cy="41.052" r="41.052" transform="translate(0 58.056) rotate(-45)" fill="#e7f0f7"/>
            </g>
          </g>
        </g>
      </g>
      <path id="Path_1603" data-name="Path 1603" d="M-904.011,188.38c-58.192,13.7-110.333,73.35-110.391,133.136-.013,14.158,2.318,28.546,8.731,41.173,11.91,23.445,35.976,37.788,58.992,50.518,81.964,45.308,103.14,36.123,208.024,52.139" transform="translate(-8228.6 -10622.008)" fill="none" stroke="#323f51" stroke-linecap="round" stroke-linejoin="round" stroke-width="7"/>
      <path id="Path_1601" data-name="Path 1601" d="M-791.929,193.954c47.011,29.435,73.422,62.466,98.211,112.089,12.692,25.4,21.723,55.811,10.132,81.733-8.052,18-24.847,30.671-42.531,39.394-65.463,32.315-162.4,31.018-231.046,55.852" transform="translate(-7792.888 -10625.109)" fill="none" stroke="#323f51" stroke-linecap="round" stroke-linejoin="round" stroke-width="7"/>
    </g>
    <g transform="matrix(1, 0, 0, 1, -12432.5, -10801.94)" filter="url(#Ellipse_121)">
      <ellipse id="Ellipse_121-2" data-name="Ellipse 121" cx="296" cy="34" rx="296" ry="34" transform="translate(56.5 1011.94)" fill="rgba(112,112,112,0.1)"/>
    </g>
  </g>
</svg>
