<svg xmlns="http://www.w3.org/2000/svg" width="691.64" height="921.584" viewBox="0 0 691.64 921.584">
  <g id="Group_1049" data-name="Group 1049" transform="translate(12334.063 10685.282)">
    <path id="Path_1595" data-name="Path 1595" d="M-976.144,187.328" transform="translate(-11139.318 -10583.419)" fill="none" stroke="#323f51" stroke-width="1"/>
    <path id="Path_1596" data-name="Path 1596" d="M-903.247,262.108c-.93,74.548-1.855,124.733-2.785,199.287a393.017,393.017,0,0,1-76.552,1.433" transform="translate(-11169.639 -10231.348)" fill="none" stroke="#323f51" stroke-linecap="round" stroke-linejoin="round" stroke-width="6"/>
    <path id="Path_1597" data-name="Path 1597" d="M-939.507,262.451c-3.481,71.508-3.585,119.536-.3,191.05a182.634,182.634,0,0,1,76.962,1.091" transform="translate(-10976.133 -10221.889)" fill="none" stroke="#323f51" stroke-linecap="round" stroke-linejoin="round" stroke-width="6"/>
    <path id="Path_1593" data-name="Path 1593" d="M-816.786,153.716c-59.3,32.879-95.251,95.891-120.727,158.731a868.1,868.1,0,0,0-61.773,376.661c1.484,24.664,4.218,49.951,15.56,71.9,14.4,27.867,41.19,47.349,69.273,61.322,53.3,26.52,113.4,36.555,172.848,39.751,50.54,2.717,102.449.508,149.609-17.861s89.252-55.06,103.973-103.482c8.716-28.66,7.5-59.267,6.2-89.195q-1.91-44.189-3.825-88.378c-3.413-78.88-7.084-159.153-33.586-233.53S-599.01,186.3-673.672,160.623c-23.769-8.18-52.738-27.485-77.54-23.4-53.868,8.87-28.289,3.2-65.575,16.491" transform="translate(-11255.513 -10821.947)" fill="#8fc6d4"/>
    <g id="Group_1006" data-name="Group 1006" transform="translate(-12075.251 -10493.938)">
      <path id="Path_200" data-name="Path 200" d="M0,.637C.2,21.021,65.878,20.387,65.678,0" transform="translate(65.679 15.611) rotate(180)" fill="none" stroke="#323f51" stroke-linecap="round" stroke-linejoin="round" stroke-width="5"/>
      <path id="Path_201" data-name="Path 201" d="M0,.637C.2,21.021,65.875,20.387,65.675,0" transform="translate(171.291 15.611) rotate(180)" fill="none" stroke="#323f51" stroke-linecap="round" stroke-linejoin="round" stroke-width="5"/>
      <path id="Path_202" data-name="Path 202" d="M0,.729C24.9,20.356,52.563,15.87,75.224,0" transform="translate(86.185 88.139) rotate(-180)" fill="none" stroke="#323f51" stroke-linecap="round" stroke-linejoin="round" stroke-width="5"/>
    </g>
    <g id="Group_1016" data-name="Group 1016" transform="translate(-12182.776 -10297.104)">
      <g id="Group_537" data-name="Group 537" transform="translate(0 0)">
        <path id="Path_755" data-name="Path 755" d="M585.5,1147.262h-.044a193.739,193.739,0,0,0-49.954,6.528c-.123.033-.255.065-.388.095a193.752,193.752,0,0,0-42.461,17.082l40.043,69.464a113,113,0,0,1,22.973-9.071l.527-.13a113.175,113.175,0,0,1,29.2-3.822h.031a112,112,0,0,1,52,12.744l40.148-69.431a191.92,191.92,0,0,0-92.079-23.459Z" transform="translate(-398.825 -1147.262)" fill="#efdc74"/>
        <path id="Path_754" data-name="Path 754" d="M906.557,1215.257l-40.135,69.41a112.186,112.186,0,0,1,48.591,63.523,38.9,38.9,0,0,0,37.27,28.2h1.174a39.925,39.925,0,0,0,38.279-51.336A192.015,192.015,0,0,0,906.557,1215.257Z" transform="translate(-620.433 -1187.576)" fill="#cc5858"/>
        <path id="Path_756" data-name="Path 756" d="M263.9,1325.154a39.93,39.93,0,0,0,38.23,51.418h.3c17.533,0,33.209-11.5,38.131-27.975a112.183,112.183,0,0,1,48.128-63.243l-40.043-69.464A191.94,191.94,0,0,0,263.9,1325.154Z" transform="translate(-262.168 -1187.952)" fill="#7ed6ad"/>
      </g>
      <g id="Group_536" data-name="Group 536" transform="translate(91.414 28.83)">
        <g id="Group_530" data-name="Group 530" transform="translate(0 69.241)">
          <g id="Group_527" data-name="Group 527" transform="translate(22.57 21.835)" opacity="0.1">
            <ellipse id="Ellipse_74" data-name="Ellipse 74" cx="69.122" cy="69.122" rx="69.122" ry="69.122" fill="#494d56"/>
          </g>
          <g id="Group_528" data-name="Group 528" transform="translate(2.125 1.3)">
            <circle id="Ellipse_75" data-name="Ellipse 75" cx="66.307" cy="66.307" r="66.307" transform="translate(0 93.772) rotate(-45)" fill="#fff"/>
          </g>
          <g id="Group_529" data-name="Group 529" transform="translate(0 0)">
            <circle id="Ellipse_76" data-name="Ellipse 76" cx="66.307" cy="66.307" r="66.307" transform="translate(0 93.772) rotate(-45)" fill="#e7f0f7"/>
          </g>
        </g>
        <g id="Group_531" data-name="Group 531" transform="translate(90 0) rotate(11)">
          <path id="Path_757" data-name="Path 757" d="M61.52,156.641a83.517,83.517,0,0,0-1.48-10.232c-1.508-7.792-2.981-15.592-4.48-23.386L47,78.486,32.094.949a1.172,1.172,0,0,0-2.3,0L11.776,94.681,4,135.13C1.188,149.76-4.806,166.048,7.223,179.7c5.522,6.27,13.021,10.56,21.352,11.189q1.182.089,2.368.09a30.272,30.272,0,0,0,23.619-11.441,33.256,33.256,0,0,0,6-11.782A32.9,32.9,0,0,0,61.52,156.641Z" transform="translate(6.992 0)" fill="#494d56"/>
          <path id="Path_758" data-name="Path 758" d="M61.52,156.641a83.527,83.527,0,0,0-1.48-10.232c-1.509-7.792-2.982-15.592-4.48-23.386L47,78.486,32.094.949a1.171,1.171,0,0,0-2.3,0L11.776,94.681Q7.888,114.906,4,135.13C1.188,149.76-4.805,166.048,7.223,179.7c5.522,6.27,13.021,10.56,21.353,11.189q1.181.089,2.368.09a30.273,30.273,0,0,0,23.62-11.441,33.254,33.254,0,0,0,6-11.782A32.872,32.872,0,0,0,61.52,156.641Z" transform="translate(0 0)" fill="#494d56" opacity="0.1"/>
          <path id="Path_759" data-name="Path 759" d="M0,190.966c.045,0,.09,0,.134,0a30.275,30.275,0,0,0,23.62-11.441,33.254,33.254,0,0,0,6-11.782,32.867,32.867,0,0,0,.953-11.118A83.394,83.394,0,0,0,29.23,146.4c-1.509-7.791-2.982-15.59-4.48-23.385q-4.28-22.268-8.56-44.536C11.9,56.18,4.2,16.1,1.285.935A1.137,1.137,0,0,0,0,.008Z" transform="translate(37.802 0.013)" fill="#fff" opacity="0.1"/>
        </g>
        <g id="Group_535" data-name="Group 535" transform="translate(51.773 105.41) rotate(11)">
          <g id="Group_532" data-name="Group 532" transform="translate(0 0)" opacity="0.1">
            <ellipse id="Ellipse_77" data-name="Ellipse 77" cx="35.146" cy="35.146" rx="35.146" ry="35.146" transform="translate(0 49.703) rotate(-45)" fill="#494d56"/>
          </g>
          <g id="Group_533" data-name="Group 533" transform="translate(22.086 18.482)">
            <ellipse id="Ellipse_78" data-name="Ellipse 78" cx="33.714" cy="33.714" rx="33.714" ry="33.714" transform="matrix(1, -0.01, 0.01, 1, 0, 0.647)" fill="#fff"/>
          </g>
          <g id="Group_534" data-name="Group 534" transform="translate(5.295 3.456)">
            <ellipse id="Ellipse_79" data-name="Ellipse 79" cx="33.714" cy="33.714" rx="33.714" ry="33.714" transform="translate(0 47.679) rotate(-45)" fill="#e7f0f7"/>
          </g>
        </g>
      </g>
    </g>
    <path id="Path_1594" data-name="Path 1594" d="M-922.289,192.036c-51.9,12.215-92.061,62.875-92.112,116.194-.011,12.627,2.067,25.458,7.786,36.72C-995.993,365.859-974.53,378.651-954,390a2290.092,2290.092,0,0,0,225.482,109" transform="translate(-11316.662 -10561.253)" fill="none" stroke="#323f51" stroke-linecap="round" stroke-linejoin="round" stroke-width="6"/>
    <path id="Path_1598" data-name="Path 1598" d="M-806.915,191.7c41.926,26.252,69.462,57.275,91.57,101.53,11.319,22.655,19.373,49.775,9.036,72.892-7.181,16.057-22.16,27.353-37.931,35.133-58.382,28.82-129.175,17.381-190.4,39.528" transform="translate(-10943.909 -10562.822)" fill="none" stroke="#323f51" stroke-linecap="round" stroke-linejoin="round" stroke-width="6"/>
  </g>
</svg>
