<svg width="1629.473" height="382.153" xmlns="http://www.w3.org/2000/svg"><g data-name="Group 1348"><path fill="#fff" d="M763.45 34.1c457.433-17.382 933.782 3.612 850.525 177.248s-153.66 88.795-947.133 147.52C209.409 376.249 7.415 382.708 5.055 199.078S306.02 51.48 763.451 34.1Z" data-name="Path 729"/><path fill="#323f51" d="M122.442 184.993a.663.663 0 0 1-.611.4 1.353 1.353 0 0 1-.787-.435 10.272 10.272 0 0 0-1.3-.964 10.311 10.311 0 0 0-2.056-.975 9.01 9.01 0 0 0-3.043-.446 9.019 9.019 0 0 0-3.184.517 6.645 6.645 0 0 0-2.3 1.41 6 6 0 0 0-1.41 2.068 6.442 6.442 0 0 0-.482 2.468 5.043 5.043 0 0 0 .717 2.8 6.46 6.46 0 0 0 1.892 1.88 12.243 12.243 0 0 0 2.667 1.3q1.492.529 3.067 1.046t3.058 1.142a11.058 11.058 0 0 1 2.663 1.561 7.172 7.172 0 0 1 1.9 2.314 7.342 7.342 0 0 1 .717 3.419 10.772 10.772 0 0 1-.717 3.937 9.185 9.185 0 0 1-2.08 3.208 9.765 9.765 0 0 1-3.34 2.15 12.106 12.106 0 0 1-4.512.787 12.75 12.75 0 0 1-5.668-1.163 13.345 13.345 0 0 1-4.16-3.184l.66-1.034a.827.827 0 0 1 .658-.352.941.941 0 0 1 .54.282q.329.282.8.693t1.128.893a9.344 9.344 0 0 0 1.529.889 10.807 10.807 0 0 0 2 .693 10.593 10.593 0 0 0 2.562.282 9.725 9.725 0 0 0 3.525-.6 7.713 7.713 0 0 0 2.62-1.633 6.923 6.923 0 0 0 1.631-2.452 8.177 8.177 0 0 0 .564-3.043 5.366 5.366 0 0 0-.717-2.9 6.176 6.176 0 0 0-1.892-1.9 12.2 12.2 0 0 0-2.667-1.281q-1.492-.517-3.067-1.01t-3.067-1.1a10.57 10.57 0 0 1-2.667-1.563 7.152 7.152 0 0 1-1.892-2.373 7.873 7.873 0 0 1-.717-3.56 8.425 8.425 0 0 1 .635-3.219 8.007 8.007 0 0 1 1.856-2.738 9.12 9.12 0 0 1 3.02-1.9 11 11 0 0 1 4.1-.717 12.407 12.407 0 0 1 4.641.822 11.123 11.123 0 0 1 3.748 2.514Zm39.6-4.042v2.045H150.36v31.208h-2.4v-31.208h-11.747v-2.045Zm18.257 18.213v15.04h-2.4v-33.252h8.483q5.758 0 8.6 2.221a7.772 7.772 0 0 1 2.851 6.521 8.934 8.934 0 0 1-.658 3.478 8.157 8.157 0 0 1-1.892 2.761 10.092 10.092 0 0 1-2.973 1.95 13.231 13.231 0 0 1-3.924 1 3.807 3.807 0 0 1 1.01.94l11.437 14.381h-2.087a1.381 1.381 0 0 1-.646-.141 1.7 1.7 0 0 1-.529-.47l-10.645-13.489a2.361 2.361 0 0 0-.858-.728 3.584 3.584 0 0 0-1.422-.212Zm0-1.786h5.781a13.688 13.688 0 0 0 3.96-.529 8.525 8.525 0 0 0 2.961-1.516 6.544 6.544 0 0 0 1.845-2.374 7.428 7.428 0 0 0 .634-3.125 6.11 6.11 0 0 0-2.326-5.264q-2.327-1.715-6.768-1.715h-6.087Zm55.883-16.426v2h-17.507v13.442h14.57v1.95h-14.57v13.86h17.507v2h-19.928v-33.252Zm33.323 4.042a.663.663 0 0 1-.611.4 1.353 1.353 0 0 1-.787-.435 10.273 10.273 0 0 0-1.3-.964 10.312 10.312 0 0 0-2.056-.975 9.01 9.01 0 0 0-3.043-.446 9.019 9.019 0 0 0-3.184.517 6.645 6.645 0 0 0-2.3 1.41 6 6 0 0 0-1.41 2.068 6.442 6.442 0 0 0-.482 2.468 5.043 5.043 0 0 0 .717 2.8 6.46 6.46 0 0 0 1.892 1.88 12.243 12.243 0 0 0 2.667 1.3q1.492.529 3.067 1.046t3.058 1.141a11.057 11.057 0 0 1 2.667 1.563 7.172 7.172 0 0 1 1.892 2.315 7.342 7.342 0 0 1 .717 3.419 10.773 10.773 0 0 1-.717 3.936 9.185 9.185 0 0 1-2.08 3.208 9.765 9.765 0 0 1-3.337 2.15 12.106 12.106 0 0 1-4.512.787 12.75 12.75 0 0 1-5.664-1.163 13.345 13.345 0 0 1-4.16-3.184l.658-1.034a.827.827 0 0 1 .658-.352.941.941 0 0 1 .54.282q.329.282.8.693t1.128.893a9.345 9.345 0 0 0 1.527.893 10.807 10.807 0 0 0 2 .693 10.593 10.593 0 0 0 2.562.282 9.725 9.725 0 0 0 3.525-.6 7.713 7.713 0 0 0 2.62-1.633 6.924 6.924 0 0 0 1.633-2.456 8.177 8.177 0 0 0 .564-3.043 5.366 5.366 0 0 0-.717-2.9 6.176 6.176 0 0 0-1.892-1.9 12.2 12.2 0 0 0-2.667-1.281q-1.492-.517-3.067-1.01t-3.067-1.1a10.57 10.57 0 0 1-2.667-1.563 7.152 7.152 0 0 1-1.892-2.373 7.873 7.873 0 0 1-.717-3.56 8.425 8.425 0 0 1 .634-3.219 8.007 8.007 0 0 1 1.857-2.738 9.12 9.12 0 0 1 3.02-1.9 11 11 0 0 1 4.1-.717 12.407 12.407 0 0 1 4.641.822 11.123 11.123 0 0 1 3.748 2.514Zm33.957 0a.663.663 0 0 1-.611.4 1.353 1.353 0 0 1-.787-.435 10.273 10.273 0 0 0-1.3-.964 10.312 10.312 0 0 0-2.056-.975 9.01 9.01 0 0 0-3.043-.446 9.019 9.019 0 0 0-3.184.517 6.645 6.645 0 0 0-2.3 1.41 6 6 0 0 0-1.41 2.068 6.442 6.442 0 0 0-.482 2.468 5.043 5.043 0 0 0 .717 2.8 6.46 6.46 0 0 0 1.892 1.88 12.243 12.243 0 0 0 2.667 1.3q1.492.529 3.067 1.046t3.059 1.141a11.057 11.057 0 0 1 2.667 1.563 7.172 7.172 0 0 1 1.892 2.315 7.342 7.342 0 0 1 .717 3.419 10.773 10.773 0 0 1-.717 3.936 9.185 9.185 0 0 1-2.08 3.208 9.765 9.765 0 0 1-3.337 2.148 12.106 12.106 0 0 1-4.512.787 12.75 12.75 0 0 1-5.664-1.163 13.345 13.345 0 0 1-4.16-3.184l.658-1.034a.827.827 0 0 1 .658-.352.941.941 0 0 1 .54.282q.329.282.8.693t1.128.893a9.345 9.345 0 0 0 1.527.893 10.807 10.807 0 0 0 2 .693 10.593 10.593 0 0 0 2.562.282 9.725 9.725 0 0 0 3.525-.6 7.713 7.713 0 0 0 2.62-1.633 6.924 6.924 0 0 0 1.633-2.456 8.177 8.177 0 0 0 .564-3.043 5.366 5.366 0 0 0-.717-2.9 6.176 6.176 0 0 0-1.892-1.9 12.2 12.2 0 0 0-2.67-1.286q-1.492-.517-3.067-1.01t-3.067-1.1a10.57 10.57 0 0 1-2.667-1.563 7.152 7.152 0 0 1-1.892-2.373 7.873 7.873 0 0 1-.717-3.56 8.425 8.425 0 0 1 .634-3.219 8.007 8.007 0 0 1 1.857-2.738 9.12 9.12 0 0 1 3.02-1.9 11 11 0 0 1 4.1-.717 12.407 12.407 0 0 1 4.641.822 11.123 11.123 0 0 1 3.748 2.514Zm23.712 16.544v12.666h-7.941v-34.24h11.139a22.859 22.859 0 0 1 6.333.764 11.89 11.89 0 0 1 4.277 2.127 8.049 8.049 0 0 1 2.409 3.219 10.666 10.666 0 0 1 .752 4.042 10.851 10.851 0 0 1-.446 3.149 9.535 9.535 0 0 1-1.328 2.738 10.275 10.275 0 0 1-2.162 2.244 11.48 11.48 0 0 1-2.949 1.622 7.466 7.466 0 0 1 1.492.987 5.873 5.873 0 0 1 1.21 1.434l7.283 11.914h-7.191a3.051 3.051 0 0 1-2.867-1.5l-5.687-9.94a2.394 2.394 0 0 0-.881-.94 2.949 2.949 0 0 0-1.422-.282Zm0-5.476h3.2a8.172 8.172 0 0 0 2.761-.411 4.989 4.989 0 0 0 1.868-1.14 4.34 4.34 0 0 0 1.057-1.7 6.539 6.539 0 0 0 .329-2.1 4.411 4.411 0 0 0-1.469-3.525 6.837 6.837 0 0 0-4.547-1.269h-3.2Zm54.759-16.098v6.11h-14.057v7.99h10.763v5.875h-10.763v8.155h14.057v6.11h-22.047v-34.24Zm44.979 17.108a17.954 17.954 0 0 1-1.281 6.85 16.027 16.027 0 0 1-3.607 5.429 16.36 16.36 0 0 1-5.6 3.572 19.833 19.833 0 0 1-7.282 1.281h-13.3v-34.24h13.3a19.672 19.672 0 0 1 7.273 1.293 16.6 16.6 0 0 1 5.6 3.572 15.9 15.9 0 0 1 3.607 5.417 17.891 17.891 0 0 1 1.286 6.826Zm-8.131 0a14.916 14.916 0 0 0-.658-4.583 9.79 9.79 0 0 0-1.892-3.466 8.215 8.215 0 0 0-3.02-2.186 10.252 10.252 0 0 0-4.065-.764h-5.313v22.021h5.311a10.252 10.252 0 0 0 4.065-.764 8.215 8.215 0 0 0 3.02-2.186 9.79 9.79 0 0 0 1.892-3.466 15 15 0 0 0 .656-4.606Zm35.575 10.858a7.305 7.305 0 0 0 2.855-.529 5.775 5.775 0 0 0 2.122-1.516 6.7 6.7 0 0 0 1.328-2.409 10.518 10.518 0 0 0 .458-3.231v-20.281h7.943v20.281a15.839 15.839 0 0 1-1.022 5.781 12.968 12.968 0 0 1-2.926 4.535 13.2 13.2 0 0 1-4.63 2.961 16.846 16.846 0 0 1-6.128 1.058 16.916 16.916 0 0 1-6.157-1.057 13.2 13.2 0 0 1-4.629-2.961 12.831 12.831 0 0 1-2.914-4.535 16 16 0 0 1-1.01-5.781v-20.282h7.943v20.257a10.518 10.518 0 0 0 .458 3.231 6.821 6.821 0 0 0 1.328 2.421 5.715 5.715 0 0 0 2.126 1.531 7.305 7.305 0 0 0 2.855.526Zm37.224-14.1h1.269a2.882 2.882 0 0 0 2.538-1.1l7.708-11.186a3.306 3.306 0 0 1 1.445-1.245 5.292 5.292 0 0 1 1.986-.329h6.907l-10.15 13.834a6.786 6.786 0 0 1-1.128 1.245 7.11 7.11 0 0 1-1.2.823 6.049 6.049 0 0 1 1.633.9 5.972 5.972 0 0 1 1.351 1.539l10.342 15.893h-7.1a6.175 6.175 0 0 1-1.163-.094 2.981 2.981 0 0 1-.834-.282 2.4 2.4 0 0 1-.611-.458 4.547 4.547 0 0 1-.494-.623l-7.755-11.914a2.336 2.336 0 0 0-1.069-.928 4.637 4.637 0 0 0-1.751-.27h-1.927v14.569h-7.944v-34.24h7.943Zm59.878-13.866v6.3h-9.635v27.94h-7.943v-27.941h-9.635v-6.3Zm21.385 34.24h-7.99v-34.24h7.99Zm49.538-17.132a18.4 18.4 0 0 1-1.281 6.909 16.652 16.652 0 0 1-3.607 5.558 16.542 16.542 0 0 1-5.6 3.7 19.06 19.06 0 0 1-7.273 1.34 19.149 19.149 0 0 1-7.287-1.339 16.643 16.643 0 0 1-5.628-3.7 16.561 16.561 0 0 1-3.619-5.558 18.4 18.4 0 0 1-1.281-6.909 18.4 18.4 0 0 1 1.281-6.909 16.434 16.434 0 0 1 3.619-5.546 16.732 16.732 0 0 1 5.628-3.69 19.149 19.149 0 0 1 7.285-1.34 18.914 18.914 0 0 1 7.273 1.351 16.775 16.775 0 0 1 5.6 3.7 16.524 16.524 0 0 1 3.607 5.546 18.338 18.338 0 0 1 1.283 6.887Zm-8.131 0a14.8 14.8 0 0 0-.658-4.571 9.681 9.681 0 0 0-1.892-3.443 8.159 8.159 0 0 0-3.02-2.162 10.393 10.393 0 0 0-4.065-.752 10.546 10.546 0 0 0-4.1.752 8.137 8.137 0 0 0-3.031 2.162 9.68 9.68 0 0 0-1.892 3.443 14.8 14.8 0 0 0-.658 4.571 14.888 14.888 0 0 0 .658 4.594 9.68 9.68 0 0 0 1.892 3.443 8.023 8.023 0 0 0 3.031 2.15 10.693 10.693 0 0 0 4.1.74 10.538 10.538 0 0 0 4.065-.74 8.043 8.043 0 0 0 3.02-2.15 9.681 9.681 0 0 0 1.892-3.443 14.888 14.888 0 0 0 .658-4.594Zm25.521-17.108a6.741 6.741 0 0 1 .87.047 2.22 2.22 0 0 1 .635.176 2.117 2.117 0 0 1 .54.364 6.183 6.183 0 0 1 .588.635l16.262 20.562q-.094-.987-.141-1.915t-.047-1.751v-18.118h7v34.24h-4.136a3.811 3.811 0 0 1-1.551-.282 3.318 3.318 0 0 1-1.222-1.034l-16.144-20.4q.07.893.117 1.751t.047 1.61v18.355h-7v-34.24Z" data-name="PLANCHE D’AMBIANCE"/><path fill="#e79e17" d="M926.402 134.765v16.439h-10.309v-44.438h14.457a29.668 29.668 0 0 1 8.22.991 15.432 15.432 0 0 1 5.551 2.76 10.447 10.447 0 0 1 3.126 4.179 13.843 13.843 0 0 1 .976 5.246 14.083 14.083 0 0 1-.579 4.087 12.376 12.376 0 0 1-1.723 3.553 13.336 13.336 0 0 1-2.806 2.913 14.9 14.9 0 0 1-3.828 2.1 9.69 9.69 0 0 1 1.937 1.281 7.622 7.622 0 0 1 1.571 1.861l9.454 15.467h-9.333a3.96 3.96 0 0 1-3.721-1.952l-7.381-12.9a3.107 3.107 0 0 0-1.144-1.22 3.827 3.827 0 0 0-1.845-.366Zm0-7.107h4.148a10.606 10.606 0 0 0 3.583-.534 6.476 6.476 0 0 0 2.425-1.479 5.633 5.633 0 0 0 1.375-2.211 8.487 8.487 0 0 0 .427-2.73 5.725 5.725 0 0 0-1.906-4.575q-1.906-1.647-5.9-1.647h-4.152Zm71.065-20.892v7.93h-18.239v10.37h13.969v7.625h-13.969v10.583h18.239v7.93h-28.609v-44.438Zm42.822 9.028a3.872 3.872 0 0 1-.961 1.1 2.15 2.15 0 0 1-1.3.366 3.171 3.171 0 0 1-1.51-.442q-.808-.442-1.83-.991a15.186 15.186 0 0 0-2.333-.991 9.335 9.335 0 0 0-2.989-.442 6.432 6.432 0 0 0-4.316 1.235 4.2 4.2 0 0 0-1.418 3.34 3.076 3.076 0 0 0 .854 2.227 7.363 7.363 0 0 0 2.242 1.525 24.029 24.029 0 0 0 3.172 1.174q1.784.534 3.645 1.189a32.6 32.6 0 0 1 3.645 1.54 12.154 12.154 0 0 1 3.172 2.257 10.534 10.534 0 0 1 2.242 3.34 11.875 11.875 0 0 1 .854 4.743 15.454 15.454 0 0 1-1.067 5.764 13.5 13.5 0 0 1-3.1 4.682 14.369 14.369 0 0 1-5 3.141 18.714 18.714 0 0 1-6.751 1.141 21.654 21.654 0 0 1-4.224-.427 25.087 25.087 0 0 1-4.163-1.2 24.142 24.142 0 0 1-3.782-1.845 16.07 16.07 0 0 1-3.08-2.379l3.05-4.819a2.482 2.482 0 0 1 .946-.885 2.679 2.679 0 0 1 1.312-.336 3.472 3.472 0 0 1 1.845.58q.93.579 2.1 1.281a17.126 17.126 0 0 0 2.7 1.281 10.121 10.121 0 0 0 3.6.579 6.852 6.852 0 0 0 4.361-1.235 4.7 4.7 0 0 0 1.556-3.919 3.7 3.7 0 0 0-.854-2.532 6.6 6.6 0 0 0-2.242-1.616 20.655 20.655 0 0 0-3.157-1.128q-1.769-.488-3.63-1.083a26.554 26.554 0 0 1-3.63-1.464 11.455 11.455 0 0 1-3.157-2.288 10.7 10.7 0 0 1-2.242-3.538 14.048 14.048 0 0 1-.854-5.231 12.412 12.412 0 0 1 1.007-4.88 12.6 12.6 0 0 1 2.958-4.239 14.547 14.547 0 0 1 4.788-2.974 17.685 17.685 0 0 1 6.5-1.113 24.361 24.361 0 0 1 3.98.32 20.923 20.923 0 0 1 3.675.946 20.183 20.183 0 0 1 3.248 1.494 14.977 14.977 0 0 1 2.7 1.967Zm45.262 0a3.872 3.872 0 0 1-.961 1.1 2.15 2.15 0 0 1-1.3.366 3.171 3.171 0 0 1-1.51-.442q-.808-.442-1.83-.991a15.186 15.186 0 0 0-2.333-.991 9.335 9.335 0 0 0-2.989-.442 6.432 6.432 0 0 0-4.316 1.235 4.2 4.2 0 0 0-1.418 3.34 3.076 3.076 0 0 0 .854 2.227 7.363 7.363 0 0 0 2.242 1.525 24.03 24.03 0 0 0 3.172 1.174q1.784.534 3.645 1.189a32.594 32.594 0 0 1 3.645 1.54 12.154 12.154 0 0 1 3.172 2.257 10.534 10.534 0 0 1 2.242 3.34 11.875 11.875 0 0 1 .854 4.743 15.454 15.454 0 0 1-1.068 5.764 13.5 13.5 0 0 1-3.1 4.682 14.369 14.369 0 0 1-5 3.141 18.714 18.714 0 0 1-6.75 1.141 21.654 21.654 0 0 1-4.224-.427 25.087 25.087 0 0 1-4.163-1.2 24.143 24.143 0 0 1-3.782-1.85 16.069 16.069 0 0 1-3.081-2.379l3.05-4.819a2.482 2.482 0 0 1 .945-.885 2.679 2.679 0 0 1 1.311-.336 3.472 3.472 0 0 1 1.845.58q.93.579 2.1 1.281a17.127 17.127 0 0 0 2.7 1.281 10.121 10.121 0 0 0 3.6.579 6.852 6.852 0 0 0 4.362-1.235 4.7 4.7 0 0 0 1.555-3.919 3.7 3.7 0 0 0-.854-2.532 6.6 6.6 0 0 0-2.242-1.616 20.655 20.655 0 0 0-3.157-1.128q-1.769-.488-3.63-1.083a26.554 26.554 0 0 1-3.63-1.464 11.455 11.455 0 0 1-3.157-2.288 10.7 10.7 0 0 1-2.242-3.538 14.048 14.048 0 0 1-.854-5.231 12.411 12.411 0 0 1 1.007-4.88 12.6 12.6 0 0 1 2.959-4.239 14.547 14.547 0 0 1 4.788-2.974 17.685 17.685 0 0 1 6.5-1.113 24.361 24.361 0 0 1 3.98.32 20.923 20.923 0 0 1 3.675.946 20.182 20.182 0 0 1 3.248 1.494 14.976 14.976 0 0 1 2.7 1.967Zm64.355 13.176a23.883 23.883 0 0 1-1.662 8.967 21.612 21.612 0 0 1-4.682 7.213 21.47 21.47 0 0 1-7.274 4.8 24.737 24.737 0 0 1-9.44 1.739 24.853 24.853 0 0 1-9.455-1.739 21.6 21.6 0 0 1-7.3-4.8 21.5 21.5 0 0 1-4.7-7.213 23.883 23.883 0 0 1-1.662-8.967 23.883 23.883 0 0 1 1.662-8.967 21.33 21.33 0 0 1 4.7-7.2 21.717 21.717 0 0 1 7.3-4.789 24.853 24.853 0 0 1 9.455-1.739 24.548 24.548 0 0 1 9.44 1.754 21.773 21.773 0 0 1 7.274 4.8 21.445 21.445 0 0 1 4.682 7.2 23.8 23.8 0 0 1 1.662 8.941Zm-10.553 0a19.214 19.214 0 0 0-.854-5.932 12.564 12.564 0 0 0-2.455-4.468 10.589 10.589 0 0 0-3.919-2.806 13.489 13.489 0 0 0-5.277-.976 13.687 13.687 0 0 0-5.322.976 10.562 10.562 0 0 0-3.934 2.806 12.564 12.564 0 0 0-2.455 4.468 19.214 19.214 0 0 0-.854 5.932 19.322 19.322 0 0 0 .854 5.963 12.563 12.563 0 0 0 2.455 4.468 10.414 10.414 0 0 0 3.934 2.791 13.878 13.878 0 0 0 5.322.961 13.677 13.677 0 0 0 5.277-.961 10.439 10.439 0 0 0 3.919-2.791 12.564 12.564 0 0 0 2.455-4.468 19.322 19.322 0 0 0 .854-5.963Zm46.18 14.091a9.481 9.481 0 0 0 3.7-.687 7.5 7.5 0 0 0 2.76-1.967 8.7 8.7 0 0 0 1.723-3.126 13.652 13.652 0 0 0 .595-4.194v-26.321h10.312v26.322a20.556 20.556 0 0 1-1.327 7.5 16.831 16.831 0 0 1-3.8 5.886 17.135 17.135 0 0 1-6.008 3.843 21.865 21.865 0 0 1-7.955 1.375 21.955 21.955 0 0 1-7.991-1.373 17.135 17.135 0 0 1-6.009-3.842 16.653 16.653 0 0 1-3.782-5.886 20.77 20.77 0 0 1-1.311-7.5v-26.325h10.309v26.291a13.652 13.652 0 0 0 .595 4.194 8.853 8.853 0 0 0 1.723 3.142 7.417 7.417 0 0 0 2.76 1.983 9.481 9.481 0 0 0 3.706.685Zm48.312-8.3v16.443h-10.312v-44.438h14.457a29.668 29.668 0 0 1 8.22.991 15.432 15.432 0 0 1 5.551 2.76 10.447 10.447 0 0 1 3.126 4.179 13.843 13.843 0 0 1 .976 5.246 14.083 14.083 0 0 1-.579 4.087 12.376 12.376 0 0 1-1.723 3.553 13.335 13.335 0 0 1-2.806 2.913 14.9 14.9 0 0 1-3.828 2.1 9.689 9.689 0 0 1 1.937 1.281 7.622 7.622 0 0 1 1.569 1.864l9.456 15.464h-9.333a3.96 3.96 0 0 1-3.723-1.952l-7.381-12.9a3.107 3.107 0 0 0-1.144-1.22 3.827 3.827 0 0 0-1.845-.366Zm0-7.107h4.148a10.606 10.606 0 0 0 3.584-.534 6.476 6.476 0 0 0 2.425-1.479 5.633 5.633 0 0 0 1.372-2.211 8.487 8.487 0 0 0 .427-2.73 5.725 5.725 0 0 0-1.906-4.575q-1.906-1.647-5.9-1.647h-4.148Zm70.788 12.05a2.072 2.072 0 0 1 .732.137 1.99 1.99 0 0 1 .7.473l4.087 4.3a16.966 16.966 0 0 1-6.724 5.29 23.534 23.534 0 0 1-9.562 1.788 22.778 22.778 0 0 1-9.074-1.723 19.637 19.637 0 0 1-6.8-4.758 20.953 20.953 0 0 1-4.285-7.2 26.579 26.579 0 0 1-1.495-9.043 23.842 23.842 0 0 1 1.708-9.135 21.306 21.306 0 0 1 4.773-7.183 21.53 21.53 0 0 1 7.335-4.7 25.565 25.565 0 0 1 9.424-1.678 24.006 24.006 0 0 1 4.712.442 23.03 23.03 0 0 1 4.133 1.22 19.442 19.442 0 0 1 3.536 1.87 17.052 17.052 0 0 1 2.867 2.394l-3.477 4.667a4.427 4.427 0 0 1-.793.778 2.064 2.064 0 0 1-1.281.351 2.288 2.288 0 0 1-1.037-.244 11.461 11.461 0 0 1-1.037-.595q-.549-.351-1.2-.763a9.244 9.244 0 0 0-1.556-.763 12.855 12.855 0 0 0-2.1-.595 14.36 14.36 0 0 0-2.821-.244 12.9 12.9 0 0 0-5.124.991 11.235 11.235 0 0 0-3.98 2.836 13.154 13.154 0 0 0-2.592 4.468 17.529 17.529 0 0 0-.93 5.887 18.3 18.3 0 0 0 .93 6.069 13.328 13.328 0 0 0 2.532 4.468 10.742 10.742 0 0 0 3.736 2.76 11.171 11.171 0 0 0 4.575.946 21.9 21.9 0 0 0 2.562-.137 10.575 10.575 0 0 0 2.15-.473 9.946 9.946 0 0 0 1.891-.869 12.626 12.626 0 0 0 1.815-1.327 3.606 3.606 0 0 1 .793-.5 2.078 2.078 0 0 1 .877-.205Zm51.027-32.94v7.93h-18.24v10.37h13.969v7.625h-13.969v10.585h18.239v7.93h-28.609v-44.438Zm28.365 28v16.44h-10.31v-44.438h14.457a29.668 29.668 0 0 1 8.22.991 15.432 15.432 0 0 1 5.551 2.76 10.447 10.447 0 0 1 3.126 4.179 13.843 13.843 0 0 1 .976 5.246 14.083 14.083 0 0 1-.579 4.087 12.376 12.376 0 0 1-1.723 3.553 13.335 13.335 0 0 1-2.81 2.912 14.9 14.9 0 0 1-3.828 2.1 9.689 9.689 0 0 1 1.937 1.281 7.622 7.622 0 0 1 1.571 1.861l9.458 15.468h-9.333a3.96 3.96 0 0 1-3.721-1.952l-7.381-12.9a3.107 3.107 0 0 0-1.144-1.22 3.827 3.827 0 0 0-1.845-.366Zm0-7.107h4.148a10.606 10.606 0 0 0 3.584-.534 6.476 6.476 0 0 0 2.425-1.479 5.633 5.633 0 0 0 1.372-2.211 8.487 8.487 0 0 0 .427-2.73 5.725 5.725 0 0 0-1.906-4.575q-1.906-1.647-5.9-1.647h-4.148Z" data-name="PLANCHE D’AMBIANCE"/><path fill="#903" d="M1073.593 274.204v-26.226h9.648a18.344 18.344 0 0 1 4.626.5 8.813 8.813 0 0 1 3.114 1.426 5.389 5.389 0 0 1 1.752 2.232 7.542 7.542 0 0 1 .549 2.934 5.751 5.751 0 0 1-.252 1.7 5.007 5.007 0 0 1-.792 1.539 5.914 5.914 0 0 1-1.386 1.3 8.935 8.935 0 0 1-2.034 1.017 7.222 7.222 0 0 1 3.834 2.043 5.292 5.292 0 0 1 1.245 3.635 7.5 7.5 0 0 1-.648 3.114 7.131 7.131 0 0 1-1.9 2.511 9 9 0 0 1-3.086 1.675 13.425 13.425 0 0 1-4.194.6Zm6.084-11.124v6.534h4.284a5.372 5.372 0 0 0 1.972-.31 3.115 3.115 0 0 0 1.2-.792 2.657 2.657 0 0 0 .594-1.1 4.834 4.834 0 0 0 .162-1.242 4.145 4.145 0 0 0-.189-1.3 2.143 2.143 0 0 0-.648-.972 3.166 3.166 0 0 0-1.215-.612 7.08 7.08 0 0 0-1.908-.216Zm0-4.068h3.168a10.439 10.439 0 0 0 1.818-.144 3.78 3.78 0 0 0 1.377-.5 2.314 2.314 0 0 0 .864-.99 3.713 3.713 0 0 0 .3-1.584 4.456 4.456 0 0 0-.234-1.557 2.231 2.231 0 0 0-.72-1 3.023 3.023 0 0 0-1.233-.54 8.466 8.466 0 0 0-1.773-.162h-3.567Zm41.616-11.034v4.68h-10.76v6.12h8.24v4.5h-8.24v6.246h10.76v4.68h-16.884v-26.226Zm16.74 21.366h9.72v4.86h-15.8v-26.226h6.08Zm44.208 4.86h-4.716a2.18 2.18 0 0 1-1.3-.369 1.906 1.906 0 0 1-.711-.945l-1.548-4.572h-9.977l-1.548 4.572a2.027 2.027 0 0 1-.7.909 2.022 2.022 0 0 1-1.28.405h-4.752l10.152-26.226h6.228Zm-16.848-10.026h7.164l-2.412-7.182-.549-1.611q-.315-.927-.621-2.007-.288 1.1-.594 2.034t-.576 1.62Zm40.788-10.874a2.285 2.285 0 0 1-.567.648 1.269 1.269 0 0 1-.765.216 1.871 1.871 0 0 1-.891-.261q-.477-.261-1.08-.585a8.963 8.963 0 0 0-1.377-.585 5.509 5.509 0 0 0-1.764-.261 3.8 3.8 0 0 0-2.547.729 2.48 2.48 0 0 0-.837 1.971 1.816 1.816 0 0 0 .5 1.314 4.345 4.345 0 0 0 1.323.9 14.181 14.181 0 0 0 1.872.693q1.053.315 2.151.7a19.238 19.238 0 0 1 2.151.909 7.173 7.173 0 0 1 1.872 1.332 6.217 6.217 0 0 1 1.323 1.971 7.008 7.008 0 0 1 .5 2.8 9.12 9.12 0 0 1-.63 3.4 7.965 7.965 0 0 1-1.827 2.763 8.48 8.48 0 0 1-2.952 1.854 11.044 11.044 0 0 1-3.987.675 12.779 12.779 0 0 1-2.493-.252 14.805 14.805 0 0 1-2.457-.711 14.248 14.248 0 0 1-2.232-1.089 9.484 9.484 0 0 1-1.818-1.4l1.8-2.844a1.465 1.465 0 0 1 .558-.522 1.581 1.581 0 0 1 .774-.2 2.049 2.049 0 0 1 1.089.342q.549.342 1.242.756a10.108 10.108 0 0 0 1.593.756 5.973 5.973 0 0 0 2.124.342 4.044 4.044 0 0 0 2.574-.729 2.776 2.776 0 0 0 .918-2.313 2.186 2.186 0 0 0-.5-1.494 3.894 3.894 0 0 0-1.323-.954 12.19 12.19 0 0 0-1.863-.666q-1.044-.288-2.142-.639a15.671 15.671 0 0 1-2.142-.864 6.76 6.76 0 0 1-1.863-1.35 6.317 6.317 0 0 1-1.323-2.088 8.291 8.291 0 0 1-.5-3.087 7.325 7.325 0 0 1 .594-2.88 7.434 7.434 0 0 1 1.746-2.5 8.585 8.585 0 0 1 2.826-1.755 10.437 10.437 0 0 1 3.834-.657 14.377 14.377 0 0 1 2.349.189 12.348 12.348 0 0 1 2.169.558 11.91 11.91 0 0 1 1.917.882 8.838 8.838 0 0 1 1.593 1.161Zm31.14-5.328v4.828h-7.38v21.4h-6.084v-21.4h-7.38v-4.824Zm12.924 0a5.164 5.164 0 0 1 .666.036 1.7 1.7 0 0 1 .486.135 1.622 1.622 0 0 1 .414.279 4.73 4.73 0 0 1 .45.486l12.456 15.752q-.072-.756-.108-1.467t-.036-1.341v-13.878h5.36v26.226h-3.168a2.919 2.919 0 0 1-1.188-.216 2.542 2.542 0 0 1-.936-.792l-12.362-15.624q.054.684.09 1.341t.036 1.233v14.058h-5.364v-26.226Zm37.872 26.228h-6.12v-26.226h6.12Zm15.264-26.226a5.164 5.164 0 0 1 .666.036 1.7 1.7 0 0 1 .486.135 1.622 1.622 0 0 1 .414.279 4.73 4.73 0 0 1 .45.486l12.456 15.75q-.072-.756-.108-1.467t-.036-1.341v-13.878h5.364v26.226h-3.168a2.919 2.919 0 0 1-1.188-.216 2.542 2.542 0 0 1-.936-.792l-12.366-15.624q.054.684.09 1.341t.036 1.233v14.058h-5.364v-26.226Zm43.56 21.834a10.352 10.352 0 0 0 2.232-.216 10.926 10.926 0 0 0 1.836-.576v-3.978h-2.592a1.259 1.259 0 0 1-.9-.306 1.019 1.019 0 0 1-.324-.774v-3.348h9.324v11.07a13.743 13.743 0 0 1-2.1 1.269 13.545 13.545 0 0 1-2.322.873 17.287 17.287 0 0 1-2.628.5 26.038 26.038 0 0 1-3 .162 13.75 13.75 0 0 1-5.328-1.017 12.948 12.948 0 0 1-4.239-2.808 12.924 12.924 0 0 1-2.808-4.248 13.817 13.817 0 0 1-1.017-5.337 14.53 14.53 0 0 1 .972-5.391 12.142 12.142 0 0 1 2.781-4.239 12.617 12.617 0 0 1 4.374-2.772 15.811 15.811 0 0 1 5.733-.99 16.7 16.7 0 0 1 3.078.27 15.144 15.144 0 0 1 2.655.738 12.218 12.218 0 0 1 2.223 1.116 11.974 11.974 0 0 1 1.8 1.4l-1.758 2.694a1.96 1.96 0 0 1-.6.594 1.432 1.432 0 0 1-.765.216 2.107 2.107 0 0 1-1.116-.36q-.72-.432-1.359-.747a8.292 8.292 0 0 0-1.305-.513 8.552 8.552 0 0 0-1.4-.288 13.777 13.777 0 0 0-1.656-.09 7.554 7.554 0 0 0-3.078.6 6.6 6.6 0 0 0-2.331 1.7 7.693 7.693 0 0 0-1.485 2.637 10.63 10.63 0 0 0-.522 3.429 11.037 11.037 0 0 0 .576 3.708 7.967 7.967 0 0 0 1.593 2.736 6.764 6.764 0 0 0 2.412 1.7 7.811 7.811 0 0 0 3.044.586Zm37.368-21.834v4.68h-10.764v6.12h8.244v4.5h-8.244v6.246h10.764v4.68h-16.884v-26.226Zm16.74 16.526v9.7h-6.084v-26.226h8.532a17.509 17.509 0 0 1 4.851.585 9.108 9.108 0 0 1 3.276 1.629 6.166 6.166 0 0 1 1.845 2.466 8.17 8.17 0 0 1 .576 3.1 8.311 8.311 0 0 1-.342 2.412 7.3 7.3 0 0 1-1.017 2.1 7.871 7.871 0 0 1-1.656 1.719 8.794 8.794 0 0 1-2.259 1.242 5.719 5.719 0 0 1 1.143.756 4.5 4.5 0 0 1 .927 1.1l5.58 9.117h-5.508a2.337 2.337 0 0 1-2.2-1.152l-4.356-7.614a1.834 1.834 0 0 0-.675-.72 2.259 2.259 0 0 0-1.089-.216Zm0-4.194h2.448a6.26 6.26 0 0 0 2.115-.315 3.822 3.822 0 0 0 1.431-.873 3.325 3.325 0 0 0 .81-1.305 5.009 5.009 0 0 0 .252-1.613 3.378 3.378 0 0 0-1.125-2.7 5.237 5.237 0 0 0-3.483-.972h-2.448Z" data-name="PLANCHE D’AMBIANCE"/><path fill="#323f51" d="M725.167 197.183h71.435v17.427h-71.435Zm0-28.81h71.435v17.506h-71.435Z" data-name="PLANCHE D’AMBIANCE"/><path fill="none" stroke="#323f51" stroke-width="3" d="M877.527 191.704h690.428" data-name="Path 1810"/><g fill="#e79e17" data-name="Group 503"><path d="M1474.39 156.879V22.428c0-5.418 5.04-9.8 11.262-9.8s11.256 4.382 11.256 9.8v134.451c.001 5.416-5.035 9.807-11.256 9.807s-11.262-4.391-11.262-9.807Z" data-name="Path 211"/><path d="M1437.826 64.485a12.783 12.783 0 0 1 3.3-8.646l36.569-39.639a10.654 10.654 0 0 1 15.923 0l36.57 39.638a12.964 12.964 0 0 1 .008 17.279 10.642 10.642 0 0 1-15.921.007l-28.619-31.017-28.607 31.018a10.645 10.645 0 0 1-15.923-.008 12.734 12.734 0 0 1-3.3-8.632Z" data-name="Path 212"/></g><g fill="#903" data-name="Group 504"><path d="M1028.016 251.561v103.61c0 4.175-3.885 7.552-8.68 7.552s-8.674-3.377-8.674-7.552v-103.61c0-4.174 3.881-7.558 8.674-7.558s8.68 3.384 8.68 7.558Z" data-name="Path 211"/><path d="M1056.193 322.761a9.85 9.85 0 0 1-2.542 6.664l-28.181 30.543a8.21 8.21 0 0 1-12.271 0l-28.181-30.544a9.99 9.99 0 0 1-.007-13.316 8.2 8.2 0 0 1 12.269-.005l22.054 23.9 22.046-23.9a8.2 8.2 0 0 1 12.271.005 9.812 9.812 0 0 1 2.542 6.653Z" data-name="Path 212"/></g><path fill="none" stroke="#323f51" stroke-width="5" d="M317.792 279.813s191.3-31.265 308.131-28.646a369 369 0 0 1 42.414 3.072" data-name="Path 730"/></g></svg>