<svg id="Group_420" data-name="Group 420" xmlns="http://www.w3.org/2000/svg" width="121.765" height="121.765" viewBox="0 0 121.765 121.765">
  <ellipse id="Nuance_A4_5b" data-name="Nuance A4 5b" cx="60.883" cy="60.882" rx="60.883" ry="60.882" fill="#747474"/>
  <g id="Group_288" data-name="Group 288" transform="translate(82.929 85.688) rotate(180)">
    <g id="Group_80" data-name="Group 80" transform="translate(0 0)">
      <path id="Path_294" data-name="Path 294" d="M2.9,3.835,25.385.026C26.74-.2,27.652,1.084,27.423,2.9s-1.514,3.476-2.869,3.705L2.073,10.414C.718,10.644-.194,9.357.035,7.54S1.549,4.064,2.9,3.835Z" transform="matrix(-0.381, -0.925, 0.925, -0.381, 29.945, 29.571)" fill="#8e8e8e" stroke="#8e8e8e" stroke-width="2"/>
      <path id="Path_295" data-name="Path 295" d="M3.351.038,38.875,4.591a5.249,5.249,0,0,1,4.444,3.792c.313,1.82-1.168,3.073-3.309,2.8L4.486,6.628A5.249,5.249,0,0,1,.042,2.836C-.272,1.016,1.21-.237,3.351.038Z" transform="matrix(-0.384, 0.923, -0.923, -0.384, 27.019, 4.311)" fill="#8e8e8e" stroke="#8e8e8e" stroke-width="2"/>
    </g>
  </g>
</svg>
