<svg width="121.765" height="121.765" data-name="Group 420" xmlns="http://www.w3.org/2000/svg"><ellipse cx="60.883" cy="60.882" fill="#747474" data-name="Nuance A4 5b" rx="60.883" ry="60.882"/><g data-name="Group 288"><g fill="#8e8e8e" stroke="#8e8e8e" stroke-width="2" data-name="Group 80"><path stroke-width="2.00078" d="m50.542 60.26 12.09 19.348c.725 1.167-.115 2.5-1.882 2.98s-3.792-.076-4.52-1.242L44.14 62.002c-.728-1.165.115-2.5 1.883-2.98s3.792.076 4.519 1.239Z" data-name="Path 294"/><path stroke-width="1.99938" d="m57.232 78.299 17.843-31.04a5.247 5.247 0 0 1 5.207-2.646c1.8.41 2.388 2.258 1.314 4.129L63.75 79.782a5.247 5.247 0 0 1-5.206 2.645c-1.8-.409-2.388-2.258-1.312-4.128Z" data-name="Path 295"/></g></g></svg>