<svg xmlns="http://www.w3.org/2000/svg" width="121.765" height="121.765" viewBox="0 0 121.765 121.765">
  <g id="Group_453" data-name="Group 453" transform="translate(-345.187 -1095.653)">
    <g id="Group_449" data-name="Group 449" transform="translate(-1834.316 364.069)">
      <ellipse id="Nuance_A4_5b" data-name="Nuance A4 5b" cx="60.883" cy="60.882" rx="60.883" ry="60.882" transform="translate(2179.503 731.584)" fill="#cc5858"/>
    </g>
    <g id="Group_451" data-name="Group 451" transform="matrix(0.407, -0.914, 0.914, 0.407, -46.82, 1585.889)">
      <rect id="Rectangle_251" data-name="Rectangle 251" width="3" height="17" rx="1.5" transform="translate(575 210)" fill="#5a1919"/>
      <rect id="Rectangle_252" data-name="Rectangle 252" width="3" height="17" rx="1.5" transform="translate(564.429 215.55) rotate(-45)" fill="#5a1919"/>
    </g>
    <g id="Group_452" data-name="Group 452" transform="matrix(-0.259, 0.966, -0.966, -0.259, 778.746, 651.384)">
      <rect id="Rectangle_251-2" data-name="Rectangle 251" width="3" height="17" rx="1.5" transform="translate(575 210)" fill="#5a1919"/>
      <rect id="Rectangle_252-2" data-name="Rectangle 252" width="3" height="17" rx="1.5" transform="translate(564.429 215.55) rotate(-45)" fill="#5a1919"/>
    </g>
    <g id="Group_459" data-name="Group 459" transform="translate(395.756 1179.96)">
      <path id="Path_202" data-name="Path 202" d="M0,.492C8.036,13.715,16.963,10.693,24.276,0" transform="matrix(-0.966, 0.259, -0.259, -0.966, 23.449, 0)" fill="none" stroke="#5a1919" stroke-linecap="round" stroke-linejoin="round" stroke-width="3"/>
    </g>
  </g>
</svg>
