<svg width="987.402" height="977.538" xmlns="http://www.w3.org/2000/svg"><defs><clipPath id="Illustration_Uddannelse_svg__a"><path fill="none" d="m357.86 269.517 6.827-1.536 6.54 3.933-.494-20.331-5.351-.958Z" data-name="Path 1476" transform="translate(-357.86 -250.626)"/></clipPath><clipPath id="Illustration_Uddannelse_svg__b"><path fill="none" d="m359.625 103.3 132.329 5.637L370.84 55.331 238.511 49.7Z" data-name="Path 1547" transform="translate(-238.511 -49.696)"/></clipPath><clipPath id="Illustration_Uddannelse_svg__c"><path fill="none" d="M486.758 157.772 341.514 167.79l-29.669 10.43 30.855 6.34 145.244-10.02c3.342-.232 5.84-3.421 5.578-7.125l-.237-3.356c-.252-3.56-2.964-6.3-6.142-6.3-.127 0-.255 0-.384.014" data-name="Path 1561" transform="translate(-311.845 -157.758)"/></clipPath><clipPath id="Illustration_Uddannelse_svg__d"><path fill="none" d="m23.183 194.067-1.458 3.226a6.818 6.818 0 0 0 3.017 9.138l142.471 64.578 20.963-.121-13.665-16-142.471-64.58a6.028 6.028 0 0 0-2.507-.541 7.111 7.111 0 0 0-6.349 4.3" data-name="Path 1572" transform="translate(-21.045 -189.767)"/></clipPath><clipPath id="Illustration_Uddannelse_svg__e"><path fill="none" d="m59.214 224.307-47.584 28.5a4.548 4.548 0 0 0-1.565 6.24l15.249 25.456a4.55 4.55 0 0 0 6.242 1.567l47.582-28.507a13.648 13.648 0 0 0 4.7-18.723L77.936 229a13.638 13.638 0 0 0-18.723-4.691" data-name="Path 1577" transform="translate(-9.416 -222.362)"/></clipPath><clipPath id="Illustration_Uddannelse_svg__f"><path fill="none" d="m50.545 223.715-38.437 23.022a4.549 4.549 0 0 0-1.563 6.242l19.232 32.108a4.552 4.552 0 0 0 6.242 1.565l38.432-23.024a4.548 4.548 0 0 0 1.567-6.24l-19.234-32.11a4.546 4.546 0 0 0-6.24-1.563" data-name="Path 1581" transform="translate(-9.896 -223.067)"/></clipPath><clipPath id="Illustration_Uddannelse_svg__g"><path fill="#8fc6d4" d="M0 0h134.611v69.479H0z" data-name="Rectangle 384"/></clipPath><clipPath id="Illustration_Uddannelse_svg__h"><path fill="none" d="M0 0h282.758v204.873H0z" data-name="Rectangle 381"/></clipPath><clipPath id="Illustration_Uddannelse_svg__i"><path fill="none" d="M45.744 207.346c-3.23 1.412-5.035 6.486-4.864 12.034s-.342 9.645-1.281 12.374a7.249 7.249 0 0 0 4.1.172 85.1 85.1 0 0 0 1.093-15.243c1.116 7.023.263 13.98-.239 18.06a2.037 2.037 0 0 0 2.731.085s.33-11.32.427-16.216c.494 7.916.512 15.533.512 15.533s1.621.6 1.963-.682c-.085-5.292 0-9.9 0-9.9s.682 7.6 1.023 8.962c1.537.6 3.841.341 4.438-.511-.768-1.793-3.157-16.729-3.242-19.2 1.962 9.729 2.987 16.131 3.84 17.411 1.451.683 3.584-1.451 3.584-1.451s-1.28-.427-1.706-3.669-3.455-16.732-6.914-17.838a9 9 0 0 0-2.741-.442 6.829 6.829 0 0 0-2.721.528" data-name="Path 1356" transform="translate(-39.599 -206.818)"/></clipPath><clipPath id="Illustration_Uddannelse_svg__k"><path fill="none" d="M85.126 84.625c2.085 11.462 6.486 36.692 10.98 56.645 70.9 1.762 130.085-25.157 130.085-25.157L208.43 49.835h-.53c-54.983 0-102.856 16.092-122.773 34.79" data-name="Path 1366" transform="translate(-85.126 -49.835)"/></clipPath><clipPath id="Illustration_Uddannelse_svg__m"><path fill="none" d="M0 0h123.597v61.052H0z" data-name="Rectangle 379"/></clipPath><linearGradient id="Illustration_Uddannelse_svg__j" x1="-1.123" x2="-1.091" y1=".935" y2=".935" gradientUnits="objectBoundingBox"><stop offset="0" stop-color="#fd9c00"/><stop offset=".552" stop-color="#fdc600"/><stop offset="1" stop-color="#fde400"/></linearGradient><linearGradient id="Illustration_Uddannelse_svg__l" x1="-.392" x2="-.387" y1="1.418" y2="1.418" gradientUnits="objectBoundingBox"><stop offset="0" stop-color="#012d46"/><stop offset="1" stop-color="#071d2e"/></linearGradient></defs><g data-name="Group 989"><path fill="#fff" d="m355.481 833.008-34.966-18.572C170.228 734.612 133.903 508.935 219.4 347.964c1.796-3.38 30.152-173.961 32.022-177.228 88.669-154.932 263.963-78.328 411.09-.182l34.966 18.572c150.28 79.82 195.548 288.67 101.11 466.47S505.764 912.83 355.481 833.008Z" data-name="Path 1412"/><g data-name="Group 987"><path fill="none" stroke="#2c8bcb" stroke-linecap="round" stroke-linejoin="round" d="M621.132 430.022c-11.456-172.386-56.78-301.114-110.945-301.114-41.685 0-78.134 76.246-97.942 189.962" data-name="Path 1452"/><path fill="none" stroke="#2c8bcb" stroke-linecap="round" stroke-linejoin="round" d="M596.883 766.009c16.871-67.465 27.051-154.874 27.051-250.366q0-18.754-.519-37.065" data-name="Path 1453"/><path fill="none" stroke="#2c8bcb" stroke-linecap="round" stroke-linejoin="round" d="M458.604 361.179c-140.755-63.923-258.2-82.459-283.342-38.904-20.843 36.105 26.971 105.8 115.559 179.816" data-name="Path 1454"/><path fill="none" stroke="#2c8bcb" stroke-linecap="round" stroke-linejoin="round" d="M699.083 504.815a1219.189 1219.189 0 0 0-132.028-87.678q-13.9-8.029-27.721-15.567" data-name="Path 1455"/><path fill="none" stroke="#2c8bcb" stroke-linecap="round" stroke-linejoin="round" d="M745.53 729.68c50.758 7.466 86.9 1.288 99.575-20.67 20.986-36.346-27.615-106.741-117.355-181.31" data-name="Path 1456"/><path fill="none" stroke="#2c8bcb" stroke-linecap="round" stroke-linejoin="round" d="M560.196 361.893c141.452-64.5 259.672-83.335 284.912-39.618 24.906 43.137-48.2 134.229-171.765 223.346" data-name="Path 1457"/><path fill="none" stroke="#2c8bcb" stroke-linecap="round" stroke-linejoin="round" d="M279.681 728.932c-53.3 8.585-91.34 2.728-104.416-19.924-31.412-54.4 93.078-185.08 278.049-291.874q14.615-8.439 29.133-16.336" data-name="Path 1458"/><path fill="#c0dcef" d="m984.142 588.982-180.368-32.768s-16.3 4.55-20.9 36.176c0 0-1.854 18.422 3.672 21.114l187.188 33.547a255.55 255.55 0 0 1 10.408-58.069" data-name="Path 1459"/><path fill="none" stroke="#216898" stroke-linecap="round" stroke-linejoin="round" d="m984.142 588.982-180.368-32.768s-16.3 4.55-20.9 36.176c0 0-1.854 18.422 3.672 21.114l187.188 33.547a255.55 255.55 0 0 1 10.408-58.069Z" data-name="Path 1460"/><path fill="#fff" d="m981.68 607.32-187.187-33.55c-4.429-.794-7.316 7.007-9.3 18.081s-2.32 21.236 2.111 22.033l187.187 33.548c4.429.792 9.63-7.544 11.616-18.618s0-20.7-4.427-21.493" data-name="Path 1461"/><path fill="#c0dcef" d="m791.49 603.593-4.188 10.289 187.189 33.55c3.076.551 6.524-3.31 9.006-9.427Z" data-name="Path 1462"/><path fill="#c0dcef" d="M794.493 573.77c-1.456-.259-2.989.48-4.473 1.961 4.42.819 6.393 10.428 4.411 21.489-1.333 7.439-4.12 13.627-7.146 16.657l.018.007c4.432.792 9.632-7.544 11.616-18.62s0-20.7-4.427-21.493" data-name="Path 1463"/><path fill="#fff" d="M884.241 631.257c4.429.794 9.63-7.541 11.616-18.618s0-20.7-4.427-21.493l-13.372-2.4c4.432.8 6.415 10.419 4.429 21.5s-7.187 19.411-11.618 18.611Z" data-name="Path 1464"/><path fill="#c0dcef" d="M892.928 591.846c1.629 3.949 2.013 10.494.728 17.667-1.986 11.077-7.186 19.412-11.616 18.616l-6.706-1.2c-1.481 1.479-3.017 2.218-4.47 1.956l13.372 2.4c4.429.794 9.63-7.541 11.616-18.618 1.743-9.73.425-18.331-2.923-20.82" data-name="Path 1465"/><path fill="#c0dcef" d="M795.767 597.458a48.121 48.121 0 0 0 .755-7.553l-10.116-1.816c-6.529 16.871.9 25.793.9 25.793 4.434.792 6.479-5.348 8.465-16.425" data-name="Path 1466"/><path fill="#fff" d="M798.922 595.265a48.138 48.138 0 0 0 .758-7.553l-7.443-1.335c-1.6 1.963-3.926 6.513-5.139 13.274s-.612 11.836.209 14.234c4.432.792 9.632-7.544 11.616-18.62" data-name="Path 1467"/><path fill="#c0dcef" d="m799.678 587.71-7.443-1.335a16.314 16.314 0 0 0-1.586 2.477 6.544 6.544 0 0 1 5.312 7.453c-.059.382-.123.767-.193 1.153-1.285 7.171-3.92 13.174-6.82 16.313 4.006-1.172 8.228-8.779 9.973-18.509a48.131 48.131 0 0 0 .758-7.553" data-name="Path 1468"/><path fill="none" stroke="#216898" stroke-linecap="round" stroke-linejoin="round" d="M798.922 595.265a48.138 48.138 0 0 0 .758-7.553l-7.443-1.335c-1.6 1.963-3.926 6.513-5.139 13.274s-.612 11.836.209 14.234c4.429.792 9.63-7.543 11.615-18.62Z" data-name="Path 1469"/><path fill="none" stroke="#216898" stroke-linecap="round" stroke-linejoin="round" d="M794.494 573.769c4.432.8 6.413 10.417 4.427 21.493s-7.184 19.412-11.616 18.62-6.413-10.417-4.427-21.493" data-name="Path 1470"/><path fill="none" stroke="#216898" stroke-linecap="round" stroke-linejoin="round" d="M884.896 631.306c4.277-.08 9.072-8.135 10.961-18.668" data-name="Path 1471"/><path fill="none" stroke="#216898" stroke-linecap="round" stroke-linejoin="round" d="m794.493 573.769 83.564 14.978c4.434.8 6.415 10.417 4.429 21.493s-7.186 19.412-11.618 18.618" data-name="Path 1472"/><path fill="none" stroke="#216898" stroke-linecap="round" stroke-linejoin="round" d="m968.087 604.883-76.881-13.779" data-name="Line 58"/><path fill="none" stroke="#216898" stroke-linecap="round" stroke-linejoin="round" d="M986.326 614.342a40.3 40.3 0 0 1-.218 14.471c-1.986 11.074-7.186 19.412-11.616 18.618l-186.265-32.83" data-name="Path 1473"/><path fill="#fff" d="m875.994 629.778-7.525 18.891 6.829-1.536 6.54 3.931-.494-20.329Z" data-name="Path 1474"/><g data-name="Group 962"><g clip-path="url(#Illustration_Uddannelse_svg__a)" data-name="Group 961" transform="translate(868.472 629.778)"><path fill="#c0dcef" d="m14.202.277-.243 2.976-4.693-.842 1.706 15.89-5.15-.869-4.532 3.876-8.868-7.625L1.099-4.889Z" data-name="Path 1475"/></g></g><path fill="none" stroke="#216898" stroke-linecap="round" stroke-linejoin="round" d="m875.994 629.778-7.525 18.891 6.829-1.536 6.54 3.931-.494-20.329-5.351-.958" data-name="Path 1477"/><path fill="#fff" d="m228.708 132.313-.059-.091-101.952 67.968c-.837 50.251 68.423 155.311 100.872 151.432l101.978-67.927-.059-.091c-18.313.726-85.5-79.012-100.774-151.286" data-name="Path 1478"/><path fill="none" stroke="#216898" stroke-linecap="round" stroke-linejoin="round" d="M299.941 262.198c-17.135-18.29-37.386-46.47-52.419-77.277" data-name="Path 1479"/><path fill="none" stroke="#216898" stroke-linecap="round" stroke-linejoin="round" d="m195.178 154.539-68.48 45.651c-.842 50.251 68.42 155.311 100.867 151.434" data-name="Path 1480"/><path fill="#c0dcef" d="m239.644 205.601-69.082 46.02q-.744-1.385-1.467-2.785 34.543-23.006 69.087-46.019.723 1.4 1.467 2.784" data-name="Path 1481"/><path fill="#c0dcef" d="m243.316 212.104-69.086 46.019q-.8-1.351-1.577-2.719l69.087-46.019q.778 1.365 1.577 2.719" data-name="Path 1482"/><path fill="#c0dcef" d="m247.246 218.447-69.087 46.021q-.853-1.317-1.686-2.653 34.543-23.006 69.087-46.019.833 1.334 1.686 2.653" data-name="Path 1483"/><path fill="#c0dcef" d="m251.428 224.629-69.087 46.021q-.908-1.283-1.79-2.582l69.087-46.018q.884 1.3 1.79 2.582" data-name="Path 1484"/><path fill="#c0dcef" d="m255.863 230.633-69.087 46.024q-.959-1.246-1.9-2.507l69.087-46.019q.935 1.263 1.9 2.507" data-name="Path 1485"/><path fill="#c0dcef" d="m260.539 236.457-69.087 46.019q-1.01-1.2-2-2.43 34.54-23.01 69.087-46.019.986 1.225 2 2.43" data-name="Path 1486"/><path fill="#c0dcef" d="M247.284 254.197q-25.457 16.955-50.911 33.914-1.058-1.167-2.1-2.348l50.917-33.914q1.037 1.181 2.1 2.348" data-name="Path 1487"/><path fill="#c0dcef" d="m275.984 252.761-69.087 46.019q-1.157-1.078-2.293-2.177l69.087-46.019q1.136 1.1 2.293 2.177" data-name="Path 1488"/><path fill="#c0dcef" d="m281.584 257.779-69.087 46.019q-1.2-1.034-2.386-2.086l69.087-46.019q1.184 1.051 2.386 2.086" data-name="Path 1489"/><path fill="#c0dcef" d="m251.063 286.787-32.745 21.81q-1.246-.986-2.473-1.993l32.741-21.81q1.228 1.007 2.477 1.993" data-name="Path 1490"/><path fill="#216898" d="m182.098 191.895 6.065-4.037q.522 1.863 1.085 3.713l-1.349.9q1.682 5.549 3.708 10.961l3.144-2.1q-2.02-5.409-3.706-10.958c-.453.3-.9.6-1.349.9q-.56-1.849-1.085-3.715l6.063-4.038q.526 1.863 1.085 3.715l-1.572 1.046q1.8 5.92 3.979 11.682-.713 2.276-1.4 4.543l-4.4 2.932q-1.826-.59-3.628-1.192-2.186-5.762-3.986-11.683l-1.572 1.046q-.563-1.85-1.085-3.715" data-name="Path 1491"/><path fill="#216898" d="M197.69 205.916c1.617 1.6.412 2.832.409 2.832s-1.433-.177-.409-2.832" data-name="Path 1492"/><path fill="#216898" d="M200.429 209.863c-1-2.17-2.325-1.119-2.33-1.115s-.18 1.622 2.33 1.115" data-name="Path 1493"/><path fill="#216898" d="M198.849 204.467c1.913 1.2.88 2.6.878 2.6s-1.5.107-.878-2.6" data-name="Path 1494"/><path fill="#216898" d="M202.288 207.679c-1.376-1.87-2.562-.612-2.564-.612s.084 1.567 2.564.612" data-name="Path 1495"/><path fill="#216898" d="M199.799 202.872c2.152.767 1.319 2.289 1.315 2.291s-1.513.389-1.315-2.291" data-name="Path 1496"/><path fill="#216898" d="M203.833 205.254c-1.7-1.513-2.716-.093-2.719-.093s.341 1.47 2.719.093" data-name="Path 1497"/><path fill="#216898" d="M200.52 201.18c2.323.307 1.713 1.913 1.711 1.913s-1.488.657-1.711-1.913" data-name="Path 1498"/><path fill="#216898" d="M205.025 202.66c-1.981-1.108-2.791.432-2.794.432s.585 1.326 2.794-.432" data-name="Path 1499"/><path fill="#216898" d="M200.994 199.437c2.425-.162 2.052 1.479 2.05 1.479s-1.42.908-2.05-1.479" data-name="Path 1500"/><path fill="#216898" d="M205.83 199.969c-2.2-.671-2.785.946-2.787.946s.81 1.142 2.787-.946" data-name="Path 1501"/><path fill="#216898" d="M201.205 197.701c2.461-.628 2.327 1 2.33 1s-1.308 1.133-2.33-1" data-name="Path 1502"/><path fill="#216898" d="M206.237 197.265c-2.348-.212-2.7 1.435-2.7 1.435s1 .928 2.7-1.435" data-name="Path 1503"/><path fill="#216898" d="M201.151 196.02c2.427-1.078 2.543.487 2.543.487s-1.165 1.324-2.543-.487" data-name="Path 1504"/><path fill="#216898" d="M206.237 194.623c-2.436.257-2.543 1.884-2.543 1.884s1.169.682 2.543-1.884" data-name="Path 1505"/><path fill="#216898" d="M200.834 194.446c2.325-1.5 2.682-.043 2.684-.043s-.99 1.479-2.684.043" data-name="Path 1506"/><path fill="#216898" d="M205.835 192.123c-2.455.721-2.318 2.277-2.318 2.279s1.3.416 2.318-2.279" data-name="Path 1507"/><path fill="#216898" d="M201.908 190.042c2.018.885 1.108 2.409 1.106 2.409s-1.486.328-1.106-2.409" data-name="Path 1508"/><path fill="#216898" d="M192.717 209.228c.111 2.6 1.62 2.025 1.617 2.027s.676-1.581-1.617-2.027" data-name="Path 1509"/><path fill="#216898" d="M193.798 214.281c-.919-2.227.539-3.03.537-3.028s1.176.723-.537 3.028" data-name="Path 1510"/><path fill="#216898" d="M191.125 209.61c-.328 2.7 1.19 2.393 1.188 2.393s.9-1.49-1.188-2.393" data-name="Path 1511"/><path fill="#216898" d="M191.298 214.999c-.491-2.461 1.019-3 1.015-3s.992.965-1.015 3" data-name="Path 1512"/><path fill="#216898" d="M189.565 209.69c-.76 2.7.719 2.687.717 2.689s1.1-1.351-.717-2.689" data-name="Path 1513"/><path fill="#216898" d="M188.818 215.257c-.045-2.618 1.47-2.878 1.465-2.878s.771 1.181-1.465 2.878" data-name="Path 1514"/><path fill="#216898" d="M188.079 209.465c-1.167 2.632.227 2.9.225 2.9s1.258-1.172-.225-2.9" data-name="Path 1515"/><path fill="#216898" d="M186.439 215.039c.4-2.7 1.868-2.671 1.865-2.671s.528 1.365-1.865 2.671" data-name="Path 1516"/><path fill="#216898" d="M186.727 208.942c-1.536 2.477-.278 3.032-.278 3.03s1.379-.955.278-3.03" data-name="Path 1517"/><path fill="#216898" d="M184.241 214.351c.837-2.693 2.211-2.38 2.209-2.38s.262 1.506-2.209 2.38" data-name="Path 1518"/><path fill="#216898" d="M185.545 208.132c-1.854 2.245-.773 3.067-.771 3.064s1.458-.71.771-3.064" data-name="Path 1519"/><path fill="#216898" d="M182.298 213.209c1.249-2.607 2.473-2.011 2.475-2.013s-.009 1.6-2.475 2.013" data-name="Path 1520"/><path fill="#216898" d="M184.574 207.062c-2.116 1.945-1.24 3.005-1.24 3.005s1.483-.439 1.24-3.005" data-name="Path 1521"/><path fill="#216898" d="M180.676 211.648c1.613-2.439 2.657-1.579 2.657-1.581s-.28 1.647-2.657 1.581" data-name="Path 1522"/><path fill="#216898" d="M183.845 205.761c-2.3 1.581-1.665 2.853-1.663 2.853s1.463-.152 1.663-2.853" data-name="Path 1523"/><path fill="#216898" d="M179.432 209.71c1.92-2.193 2.75-1.1 2.75-1.1s-.544 1.645-2.75 1.1" data-name="Path 1524"/><path fill="#216898" d="M180.68 204.18c-.78 2.748.669 2.7.669 2.7s1.092-1.39-.669-2.7" data-name="Path 1525"/><path fill="none" stroke="#216898" stroke-linecap="round" stroke-linejoin="round" stroke-width=".5" d="M273.878 294.571a45.714 45.714 0 0 0 2.882-11.413 28.329 28.329 0 0 0-1.072-11.668 61.461 61.461 0 0 0 2.355 14.523 2.881 2.881 0 0 0 1.276 2.047 4.067 4.067 0 0 0 1.017-2.27 17.5 17.5 0 0 0 .28-4.29c-.437 1.836-.514 4.434-.127 4.416a4.1 4.1 0 0 0 1.388-1.738c.466.5 1.317.182 1.813-.282a3.8 3.8 0 0 0 1.033-1.784c.328.246.7-.2.86-.576.428.473.714.312.974.143a.849.849 0 0 0 .307-.753 19.224 19.224 0 0 0-2.926-9.236 4.636 4.636 0 0 0-1.454-1.715 2.912 2.912 0 0 0-.412 2.3 46.038 46.038 0 0 0 2.812 11.527 7.227 7.227 0 0 0 .933 1.829 1.4 1.4 0 0 0 .937.632c.61.048 1.092-.523 1.349-1.078 1.269-2.723.607-6.827 2.37-7.7" data-name="Path 1526"/><path fill="#c0dcef" d="M214.232 331.624c2.966-1.977 8.356.9 12.039 6.42s4.261 11.601 1.29 13.58l101.964-67.96c2.964-1.977 2.386-8.055-1.3-13.579s-9.072-8.4-12.039-6.42l-101.954 67.959" data-name="Path 1527"/><path fill="none" stroke="#216898" stroke-linecap="round" stroke-linejoin="round" d="m265.947 297.154-51.716 34.469" data-name="Line 59"/><path fill="none" stroke="#216898" stroke-linecap="round" stroke-linejoin="round" d="m265.028 326.652 64.5-42.987c2.964-1.977 2.384-8.055-1.3-13.579s-9.072-8.4-12.039-6.42" data-name="Path 1528"/><path fill="none" stroke="#216898" stroke-linecap="round" stroke-linejoin="round" d="M228.015 351.267a3.57 3.57 0 0 1-.45.357" data-name="Path 1529"/><path fill="none" stroke="#216898" stroke-linecap="round" stroke-linejoin="round" d="M214.232 331.623c2.966-1.977 8.356.9 12.039 6.42 3.481 5.223 4.19 10.942 1.747 13.222" data-name="Path 1530"/><path fill="#fff" d="M455.744 162.272a4.968 4.968 0 0 1 .99-5.558 4.978 4.978 0 0 1-2.389-9.5l14.728-6.728a4.978 4.978 0 0 1 5.619 8.021 4.977 4.977 0 0 1 2.391 9.5l-14.73 6.734a4.984 4.984 0 0 1-6.609-2.461" data-name="Path 1531"/><path fill="#c0dcef" d="M470.082 157.479c-4.472 1.335-7.075-2.511-3.108-5.448l-10.244 4.684a4.977 4.977 0 0 0 5.621 8.019L477.079 158a4.984 4.984 0 0 0 2.461-6.606 4.873 4.873 0 0 0-2.657-2.477c3.007 3.476-1.376 6.943-6.8 8.563" data-name="Path 1532"/><path fill="#fff" d="M471.051 80.088a35.008 35.008 0 1 0-41.654 48.138 10.535 10.535 0 0 1 6.75 5.642l5.182 11.334a7.24 7.24 0 0 0 9.6 3.574l21.557-9.85a7.243 7.243 0 0 0 3.576-9.6l-5.162-11.293a9.995 9.995 0 0 1-.07-8.407 34.888 34.888 0 0 0 .221-29.535" data-name="Path 1533"/><path fill="#c0dcef" d="M455.92 142.534a7.244 7.244 0 0 1-9.6-3.576l-5.18-11.334a10.547 10.547 0 0 0-6.75-5.642 34.844 34.844 0 0 1-19.569-52.4 35.372 35.372 0 0 0-7.622 39.222 34.88 34.88 0 0 0 22.2 19.416 10.547 10.547 0 0 1 6.75 5.642l5.18 11.342a7.244 7.244 0 0 0 9.6 3.574l21.559-9.855a7.214 7.214 0 0 0 4.168-5.867Z" data-name="Path 1534"/><path fill="none" stroke="#216898" stroke-linecap="round" stroke-linejoin="round" d="M423.158 63.531a35.293 35.293 0 0 0-15.959 45.275 34.882 34.882 0 0 0 22.2 19.419 10.547 10.547 0 0 1 6.75 5.642l5.18 11.334" data-name="Path 1535"/><path fill="none" stroke="#216898" stroke-linecap="round" stroke-linejoin="round" d="M475.54 136.293a7.238 7.238 0 0 0 .523-6.973l-5.162-11.295a9.989 9.989 0 0 1-.068-8.406 34.888 34.888 0 0 0 .219-29.526" data-name="Path 1536"/><path fill="#c0dcef" d="m457.502 145.772-3.16 1.445a4.978 4.978 0 0 0 2.389 9.5l9.707-4.438c-8.253 3.774-11.354-3.44-8.936-6.5" data-name="Path 1537"/><path fill="none" stroke="#216898" stroke-linecap="round" stroke-linejoin="round" d="M455.742 162.271a4.984 4.984 0 0 0 6.609 2.461l14.73-6.734a4.977 4.977 0 0 0-2.391-9.5" data-name="Path 1538"/><path fill="none" stroke="#216898" stroke-linecap="round" stroke-linejoin="round" d="M475.679 142.944a4.985 4.985 0 0 0-6.606-2.461l-14.73 6.734a4.978 4.978 0 0 0 2.389 9.5" data-name="Path 1539"/><path fill="#55a9f1" d="m462.351 164.734 6.843 2.289" data-name="Line 60"/><path fill="#c0dcef" d="m475.476 164.576-7.1 3.249a2.508 2.508 0 0 1-2.623-.334l-3.4-2.757 14.73-6.734-.139 4.375a2.507 2.507 0 0 1-1.465 2.2" data-name="Path 1540"/><path fill="none" stroke="#216898" stroke-linecap="round" stroke-linejoin="round" d="m475.476 164.576-7.1 3.249a2.508 2.508 0 0 1-2.623-.334l-3.4-2.757 14.73-6.734-.139 4.375a2.507 2.507 0 0 1-1.468 2.201Z" data-name="Path 1541"/><path fill="none" stroke="#216898" stroke-linecap="round" stroke-linejoin="round" d="m462.58 154.04 6.261-2.862" data-name="Line 61"/><path fill="none" stroke="#216898" stroke-linecap="round" stroke-linejoin="round" d="m456.941 140.536-2.113-4.625" data-name="Line 62"/><path fill="none" stroke="#216898" stroke-linecap="round" stroke-linejoin="round" d="m452.399 130.598-4.859-10.63a4.747 4.747 0 1 0-2.343 6.29l14.009-6.4a4.747 4.747 0 1 0-6.29-2.343l11.477 25.11" data-name="Path 1542"/><path fill="#c0dcef" d="m849.318 236.578-132.329-5.637-121.115-53.606 1.088-4.651 131.242 10.288 122.2 48.952Z" data-name="Path 1543"/><path fill="#c0dcef" d="m779.05 233.586-4.589 19.619s-18.183 8.313-62.214-1.979-56.648-25.8-56.648-25.8l4.586-19.619Z" data-name="Path 1544"/><path fill="#fdfdfd" d="m850.406 231.922-132.329-5.639-121.114-53.6 132.329 5.633Z" data-name="Path 1545"/><g data-name="Group 966"><g clip-path="url(#Illustration_Uddannelse_svg__b)" data-name="Group 965" transform="translate(596.963 172.679)"><path fill="#c0dcef" d="M132.329 5.635h-.057c-24.583 2.059-32.863 33.93-12.4 47.707l25.549 17.205s-167.156-57.2-166.892-58.326 10.2-45.309 10.2-45.309 156.959 18.169 157.969 17.223-14.368 21.5-14.368 21.5" data-name="Path 1546"/></g></g><path fill="none" stroke="#216898" stroke-linecap="round" stroke-linejoin="round" d="m711.286 223.279-55.774-24.685" data-name="Line 63"/><path fill="none" stroke="#216898" stroke-linecap="round" stroke-linejoin="round" d="m813.874 215.752 36.533 16.17-124.909-5.321" data-name="Path 1548"/><path fill="none" stroke="#216898" stroke-linecap="round" stroke-linejoin="round" d="m668.042 175.707 61.25 2.607 66.134 29.273" data-name="Path 1549"/><path fill="none" stroke="#216898" stroke-linecap="round" stroke-linejoin="round" d="m646.088 194.422-49.127-21.739 63.636 2.709" data-name="Path 1550"/><path fill="none" stroke="#216898" stroke-linecap="round" stroke-linejoin="round" d="m656.732 220.584 3.456-14.782-59.046-26.083" data-name="Path 1551"/><path fill="none" stroke="#216898" stroke-linecap="round" stroke-linejoin="round" d="m777.508 240.178-3.046 13.026s-18.183 8.313-62.214-1.979c-31.376-7.334-46.8-17.317-53.074-22.451" data-name="Path 1552"/><path fill="none" stroke="#216898" stroke-linecap="round" stroke-linejoin="round" d="m723.685 202.301 62.64 24.7a13.36 13.36 0 0 1 8.322 10.128c1.567 9.182 1.392 25.149-13.149 39.7" data-name="Path 1553"/><path fill="#fdfdfd" d="M783.627 278.85a3.869 3.869 0 1 1-2.37-1.831" data-name="Path 1554"/><path fill="none" stroke="#216898" stroke-linecap="round" stroke-linejoin="round" d="M783.627 278.85a3.869 3.869 0 1 1-2.37-1.831" data-name="Path 1555"/><path fill="#fdfdfd" d="m801.193 305.271-10.672 6.044-10.669-18.839a6.133 6.133 0 0 1 10.674-6.044Z" data-name="Path 1556"/><path fill="none" stroke="#216898" stroke-linecap="round" stroke-linejoin="round" d="m801.193 305.271-10.672 6.044-10.669-18.839a6.133 6.133 0 0 1 10.674-6.044Z" data-name="Path 1557"/><path fill="none" stroke="#216898" stroke-linecap="round" stroke-linejoin="round" d="m784.9 293.076 9.013 16.118" data-name="Line 64"/><path fill="none" stroke="#216898" stroke-linecap="round" stroke-linejoin="round" d="m788.41 290.828 9.2 16.093" data-name="Line 65"/><path fill="#fff" d="m763.791 438.972 30.855 6.338 145.246-10.016c3.342-.232 5.84-3.421 5.576-7.127l-.237-3.353c-.262-3.706-3.185-6.52-6.524-6.29L793.46 428.541Z" data-name="Path 1558"/><g data-name="Group 970"><g fill="#c0dcef" clip-path="url(#Illustration_Uddannelse_svg__c)" data-name="Group 969" transform="translate(763.791 418.511)"><path d="M188.884 7.714 32.67 18.488s1.215 5.533-1.872 7.573l.057.737 157.094-10.833Z" data-name="Path 1559"/><path d="M167.577 23.509 165.559-5s15.711-3.61 15.888-1.094 6.734 30.709 6.734 30.709Z" data-name="Path 1560"/></g></g><path fill="none" stroke="#216898" stroke-linecap="round" stroke-linejoin="round" d="m920.293 419.794-126.833 8.749h0l-29.669 10.429 30.857 6.338 66.314-4.573" data-name="Path 1562"/><path fill="#fff" d="m269.378 572.45-13.665-16-142.472-64.582a6.813 6.813 0 0 0-8.854 3.758l-1.46 3.226a6.823 6.823 0 0 0 3.017 9.141l142.471 64.578Z" data-name="Path 1569"/><g data-name="Group 978"><g fill="#c0dcef" clip-path="url(#Illustration_Uddannelse_svg__d)" data-name="Group 977" transform="translate(102.247 491.329)"><path d="M-5.654 2.43 167.13 81.122l-13.665-16L-.627-4.727Z" data-name="Path 1570"/><path d="M13.72-5.302 1.313 22.106s-16.677-4.643-15.583-7.061 9.05-31.847 9.05-31.847Z" data-name="Path 1571"/></g></g><path fill="none" stroke="#216898" stroke-linecap="round" stroke-linejoin="round" d="m111.879 510.682 136.536 61.889 20.961-.121-13.663-16-125.368-56.831" data-name="Path 1573"/><path fill="none" stroke="#216898" stroke-linecap="round" stroke-linejoin="round" d="M105.943 507.993h0a6.822 6.822 0 0 1-3.017-9.141l1.458-3.224a6.811 6.811 0 0 1 8.856-3.758l-4.379 9.673" data-name="Path 1574"/><path fill="none" stroke="#216898" stroke-linecap="round" stroke-linejoin="round" d="m114.129 505.316 2.919-6.45 44.534 20.154-2.919 6.45z" data-name="Rectangle 424"/><path fill="none" stroke="#216898" stroke-linecap="round" stroke-linejoin="round" d="m254.172 559.414-4.313 9.596" data-name="Line 66"/><path fill="#fff" d="m78.006 595.93 47.584-28.5a13.646 13.646 0 0 1 18.723 4.689l5.9 9.844a13.652 13.652 0 0 1-4.7 18.725l-47.584 28.5a4.549 4.549 0 0 1-6.24-1.565L76.443 602.17a4.546 4.546 0 0 1 1.563-6.24" data-name="Path 1575"/><g data-name="Group 982"><g clip-path="url(#Illustration_Uddannelse_svg__e)" data-name="Group 981" transform="translate(75.792 565.48)"><path fill="#c0dcef" d="m76.637 43.494-28.393-47.4L-9.3 30.565s31.428 48.972 29.886 49.893 56.052-36.965 56.052-36.965" data-name="Path 1576"/></g></g><path fill="none" stroke="#216898" stroke-linecap="round" stroke-linejoin="round" d="m144.312 572.119 5.9 9.844a13.653 13.653 0 0 1-4.7 18.725l-47.584 28.5a4.548 4.548 0 0 1-6.24-1.567L76.44 602.169a4.547 4.547 0 0 1 1.565-6.24l47.584-28.5a13.6 13.6 0 0 1 9.282-1.752" data-name="Path 1578"/><path fill="#fff" d="m79.095 590.753 38.437-23.022a4.549 4.549 0 0 1 6.24 1.563l19.234 32.11a4.548 4.548 0 0 1-1.567 6.24l-38.433 23.025a4.55 4.55 0 0 1-6.242-1.567l-19.232-32.106a4.549 4.549 0 0 1 1.563-6.242" data-name="Path 1579"/><g data-name="Group 986"><g clip-path="url(#Illustration_Uddannelse_svg__f)" data-name="Group 985" transform="translate(76.883 567.083)"><path fill="#c0dcef" d="M44.623 67.192c-12.4-20.7-12.8-46.128-1.031-65.556l7.623-12.594-73.727 44.167 33.209 55.437Z" data-name="Path 1580"/></g></g><path fill="none" stroke="#216898" stroke-linecap="round" stroke-linejoin="round" d="M123.424 568.796a4.542 4.542 0 0 1 .346.5l19.234 32.108a4.547 4.547 0 0 1-1.565 6.24l-27.183 16.284" data-name="Path 1582"/><path fill="none" stroke="#216898" stroke-linecap="round" stroke-linejoin="round" d="m112.659 570.648 4.873-2.916a4.543 4.543 0 0 1 5.892 1.065" data-name="Path 1583"/><path fill="none" stroke="#216898" stroke-linecap="round" stroke-linejoin="round" d="m103.966 630.094-.96.576a4.55 4.55 0 0 1-6.242-1.567l-19.233-32.107a4.551 4.551 0 0 1 1.563-6.242" data-name="Path 1584"/></g><g data-name="Group 988"><path fill="none" stroke="#323f51" stroke-linecap="round" stroke-linejoin="round" stroke-width="4" d="M522.764 591.973c4.727 66.881 3.515 115.748 1.918 183.214 29.032-3.2 37.492-5.932 65.213-14.145" data-name="Path 418"/><path fill="none" stroke="#323f51" stroke-linecap="round" stroke-linejoin="round" stroke-width="4" d="M436.013 587.675c-15.447 67.9-20.758 112.789-13.418 179.481a239.752 239.752 0 0 0-55.384-4.976" data-name="Path 419"/><path fill="#8fc6d4" stroke="#323f51" stroke-miterlimit="10" stroke-width="4.503" d="M386.115 527.736c-.471 8.52.082 17.407 4.053 24.961 5.48 10.428 16.456 16.616 27.026 21.816 26.762 13.165 55.908 23.913 85.664 21.91s60.079-19.536 69.366-47.877c4.068-12.409 3.9-25.749 3.7-38.807l-1.732-110.349c-.738-46.907-1.679-105.706-42.333-137.526-28.109-22-52.792-17.079-69.9 12.912-18.409 32.266-21.9 73.936-31.5 109.278-12.848 47.323-41.609 94.305-44.344 143.682Z" data-name="Path 421"/><path fill="none" stroke="#323f51" stroke-linecap="round" stroke-linejoin="round" stroke-width="4" d="M398.226 465.552c-20.598-6.954-36.908-18.415-53.917-37.294-8.706-9.666-17.123-22.042-18.024-35.13-.624-9.088 2.554-16.943 6.732-23.162 15.469-23.02 24.343-8.888 42.195-28.992" data-name="Path 422"/><path fill="none" stroke="#323f51" stroke-linecap="round" stroke-linejoin="round" stroke-width="4" d="M574.571 476.056c21.248 10.664 51.9 3.132 70.297-17.268a47.607 47.607 0 0 0 10.105-16.364c3.724-11.146 1.09-22.387-1.735-32.799-10.06-37.079-33.852-13.73-48.055-48.835" data-name="Path 423"/><path fill="#323f51" d="M489.006 400.157a31.231 31.231 0 0 1-8.747-7.819c-1.292-1.614-1.873-3.425-.588-5.372 1.231-1.864 2.489-.989 3.646.427 9.043 11.051 19.009 11.628 29.621 4.756.529-.342 1.071-.648 1.591-1.01 1.31-.907 2.566-.966 3.333.956a3.726 3.726 0 0 1-1.165 4.759c-8.897 6.244-18.05 8.638-27.691 3.303Z" data-name="Path 493"/><path fill="#323f51" d="M477.09 325.17a17.587 17.587 0 0 1 5.5 1.023c.86.3 1.362.788.885 1.643-.468.822-1.227.754-1.997.496-5.999-2.023-11.383-.48-16.327 3.595-.25.204-.502.397-.744.605-.604.522-1.27.76-1.881.267-.636-.51-.565-1.152.12-1.75 4.093-3.574 8.728-5.943 14.444-5.88Z" data-name="Path 498"/><path fill="#323f51" d="M539.576 328.199a17.59 17.59 0 0 1 4.055 3.854c.558.722.713 1.404-.152 1.862-.842.434-1.44-.036-1.946-.673-3.929-4.965-9.285-6.605-15.653-5.88-.32.035-.637.059-.953.101-.791.11-1.478-.054-1.723-.8-.256-.775.154-1.274 1.053-1.403 5.382-.767 10.56-.23 15.32 2.939Z" data-name="Path 499"/><path fill="#323f51" d="M482.304 356.917c5.591-.064 9.281 3.5 9.182 8.877-.1 5.414-3.406 8.972-8.508 9.161-5.486.2-10.1-3.985-10.044-9.123.055-5.325 3.764-8.849 9.37-8.915Z" data-name="Path 494"/><path fill="#fff" d="M486.223 365.94a3.592 3.592 0 0 1 3.931 3.8 3.667 3.667 0 0 1-3.642 3.921 4.031 4.031 0 0 1-4.3-3.906 3.735 3.735 0 0 1 4.011-3.815Z" data-name="Path 495" opacity=".9"/><path fill="#323f51" d="M525.392 356.625a9.192 9.192 0 0 1 9.05 9.567c-.043 5.553-3.685 9.163-9.2 9.13-5.707-.033-8.908-3.379-8.87-9.266.035-5.489 3.793-9.421 9.02-9.431Z" data-name="Path 496"/><path fill="#fff" d="M528.45 366.214a3.61 3.61 0 0 1 3.954 3.822 3.687 3.687 0 0 1-3.663 3.943 4.057 4.057 0 0 1-4.324-3.927 3.756 3.756 0 0 1 4.033-3.838Z" data-name="Path 497"/><g data-name="Group 934"><g clip-path="url(#Illustration_Uddannelse_svg__g)" data-name="Group 933" transform="translate(433.645 252.642)"><g data-name="Group 932"><g clip-path="url(#Illustration_Uddannelse_svg__g)" data-name="Group 931"><g data-name="Group 930" opacity=".56" style="mix-blend-mode:multiply;isolation:isolate"><g data-name="Group 929"><g clip-path="url(#Illustration_Uddannelse_svg__g)" data-name="Group 928"><path fill="#8fc6d4" d="M134.611 42.141C122.8 17.157 98.7.02 70.863 0 34.792-.027 4.951 28.671 0 66.008c27.989 7.912 93.495 3.241 134.611-23.866" data-name="Path 1373"/></g></g></g></g></g></g></g><g data-name="Group 927"><g clip-path="url(#Illustration_Uddannelse_svg__h)" data-name="Group 926" transform="translate(354.371 184.906)"><path fill="#012d46" d="M41.051 86.029h1.674v76.458h-1.674z" data-name="Rectangle 375"/><g data-name="Group 916"><g clip-path="url(#Illustration_Uddannelse_svg__i)" data-name="Group 915" transform="translate(33.682 175.916)"><path fill="url(#Illustration_Uddannelse_svg__j)" d="M0 0h26.985v33.315H0z" data-name="Rectangle 376" transform="rotate(-14.76 3.72 28.642)"/></g></g><g data-name="Group 918"><g clip-path="url(#Illustration_Uddannelse_svg__h)" data-name="Group 917"><path fill="#dd7e17" d="M48.269 180.219c-.916-2.015-1.936-3.521-3-3.861a7.861 7.861 0 0 0-5.462.086c-2.7 1.181-4.4 4.921-4.786 9.355 3.477-3.266 7.812-5.723 13.245-5.58" data-name="Path 1357"/><path fill="none" stroke="#922e02" stroke-miterlimit="10" stroke-width="1.125" d="M39.827 176.443c-3.23 1.413-5.036 6.487-4.865 12.034s-.341 9.645-1.281 12.375a7.251 7.251 0 0 0 4.1.171 85.087 85.087 0 0 0 1.093-15.242c1.115 7.022.262 13.979-.24 18.06a2.039 2.039 0 0 0 2.732.085s.33-11.32.426-16.216c.5 7.916.512 15.533.512 15.533s1.62.6 1.963-.682c-.085-5.292 0-9.9 0-9.9s.683 7.6 1.023 8.962c1.538.6 3.842.341 4.439-.512-.768-1.792-3.158-16.728-3.243-19.2 1.962 9.729 2.986 16.131 3.841 17.411 1.45.682 3.584-1.451 3.584-1.451s-1.281-.427-1.707-3.67-3.455-16.731-6.914-17.838a7.868 7.868 0 0 0-5.463.08Z" data-name="Path 1358"/><path fill="#012d46" d="M45.523 178.178h-6.954a1.007 1.007 0 0 1-1.007-1.008v-16.483a1.007 1.007 0 0 1 1.007-1.008h6.954a1.008 1.008 0 0 1 1.008 1.008v16.483a1.008 1.008 0 0 1-1.008 1.008" data-name="Path 1359"/><path fill="#005078" d="M82.568 37.675 1.39 110.736l2.627 2.628 158.1-35.1 119.531-74.22-.8-2.942Z" data-name="Path 1360"/><path fill="#014163" d="m82.568 37.675 2.628 2.628-81.178 73.061-2.627-2.628Z" data-name="Path 1361"/><path fill="none" stroke="#020c14" stroke-miterlimit="10" stroke-width="2.25" d="M82.568 37.675 1.39 110.736l2.627 2.628 158.1-35.1 119.531-74.22-.8-2.942Z" data-name="Path 1362"/><path fill="#012d46" d="m85.194 40.304-81.176 73.06L164.751 80.89l116.9-76.848Z" data-name="Path 1363"/><path fill="#0b2538" d="m73.954 50.422-69.936 62.94 160.734-32.47 61.236-40.257c-50.06 18.674-131.628 26.89-152.034 9.787" data-name="Path 1364"/><path fill="none" stroke="#020c14" stroke-linecap="round" stroke-linejoin="round" stroke-width="2.25" d="m85.194 40.304-81.176 73.06L164.751 80.89l116.9-76.848Z" data-name="Path 1365"/></g></g><g data-name="Group 920"><g clip-path="url(#Illustration_Uddannelse_svg__k)" data-name="Group 919" transform="translate(72.407 42.389)"><path fill="url(#Illustration_Uddannelse_svg__l)" d="M0 0h160.188v126.132H0z" data-name="Rectangle 378" transform="rotate(-14.76 11.96 91.791)"/></g></g><g data-name="Group 925"><g clip-path="url(#Illustration_Uddannelse_svg__h)" data-name="Group 924"><path fill="none" stroke="#020c14" stroke-miterlimit="10" stroke-width="2.25" d="m195.711 42.389 17.761 66.277s-59.184 26.918-130.085 25.157c-4.494-19.952-8.9-45.184-10.98-56.645 19.982-18.757 68.098-34.894 123.304-34.789Z" data-name="Path 1367"/><path fill="#005078" d="m196.047 49.913 15.453 57.363s-25.931 11.263-46.624 14.93c22.264-23.836 31.17-72.294 31.17-72.294" data-name="Path 1368"/><path fill="#005078" d="m189.048 22.78 86.8-16.477-47.957 31.19s20.3-23.539-38.838-14.712" data-name="Path 1369"/><path fill="#005078" d="m79.462 105.859 5.49 26.963s24.073.547 42.949-2.735c-17.508.274-37.751 0-40.761-2.189-2.735-7.66-7.677-22.039-7.677-22.039" data-name="Path 1370"/><path fill="#005078" d="M84.841 125.527s37.96 4.405 66.482-3.356c-19.295 6.712-55.158 7.341-64.185 5.728-1.878.145-2.3-2.372-2.3-2.372" data-name="Path 1371"/><g data-name="Group 923" opacity=".54"><g data-name="Group 922"><g clip-path="url(#Illustration_Uddannelse_svg__m)" data-name="Group 921" transform="translate(72.407 42.389)"><path fill="#06111e" d="m123.597 1.097-.293-1.1C68.098-.103 19.983 16.029.004 34.786c1.081 5.94 2.784 15.579 4.8 26.263 27.395-44.62 84.324-59.279 118.8-59.954" data-name="Path 1372"/></g></g></g></g></g></g></g></g></g></svg>