<svg xmlns="http://www.w3.org/2000/svg" xmlns:xlink="http://www.w3.org/1999/xlink" width="1162.895" height="1162.491" viewBox="0 0 1162.895 1162.491">
  <defs>
    <clipPath id="clip-path">
      <rect id="Rectangle_490" data-name="Rectangle 490" width="767.113" height="978.476" fill="none"/>
    </clipPath>
    <clipPath id="clip-path-3">
      <rect id="Rectangle_485" data-name="Rectangle 485" width="214.918" height="109.898" fill="none"/>
    </clipPath>
    <clipPath id="clip-path-4">
      <rect id="Rectangle_486" data-name="Rectangle 486" width="452.69" height="22.938" fill="none"/>
    </clipPath>
    <clipPath id="clip-path-5">
      <rect id="Rectangle_488" data-name="Rectangle 488" width="34.042" height="33.317" fill="none"/>
    </clipPath>
    <clipPath id="clip-path-6">
      <rect id="Rectangle_449" data-name="Rectangle 449" width="154.566" height="155.848" fill="none"/>
    </clipPath>
    <clipPath id="clip-path-7">
      <rect id="Rectangle_451" data-name="Rectangle 451" width="146.183" height="155.034" fill="none"/>
    </clipPath>
    <clipPath id="clip-path-8">
      <rect id="Rectangle_448" data-name="Rectangle 448" width="149.141" height="159.784" fill="none"/>
    </clipPath>
    <clipPath id="clip-path-9">
      <rect id="Rectangle_448-2" data-name="Rectangle 448" width="139.976" height="157.795" fill="none"/>
    </clipPath>
    <clipPath id="clip-path-10">
      <rect id="Rectangle_450" data-name="Rectangle 450" width="139.08" height="140.168" fill="none"/>
    </clipPath>
    <clipPath id="clip-path-11">
      <rect id="Rectangle_481" data-name="Rectangle 481" width="158.401" height="152.279" fill="none"/>
    </clipPath>
    <clipPath id="clip-path-12">
      <rect id="Rectangle_482" data-name="Rectangle 482" width="146.562" height="154.153" fill="none"/>
    </clipPath>
  </defs>
  <g id="Group_1192" data-name="Group 1192" transform="translate(-1661.628 -612.243)">
    <path id="Path_1683" data-name="Path 1683" d="M313.4,0h40.269c173.083,0,313.4,185.392,313.4,370.784,0,3.893,55.915,170.655,55.795,174.483-5.725,181.483-199.741,196.3-369.19,196.3H313.4C140.312,741.569,0,575.563,0,370.784S140.312,0,313.4,0Z" transform="matrix(-0.883, -0.469, 0.469, -0.883, 2299.87, 1774.734)" fill="#fff"/>
    <g id="Group_1172" data-name="Group 1172" transform="translate(23905 -3962.757)">
      <g id="Group_1164" data-name="Group 1164" transform="translate(-21958 4575)">
        <g id="Group_1163" data-name="Group 1163" clip-path="url(#clip-path)">
          <g id="Group_1162" data-name="Group 1162">
            <g id="Group_1161" data-name="Group 1161" clip-path="url(#clip-path)">
              <path id="Path_1684" data-name="Path 1684" d="M229.644,494.949C224.938,595.415,214.55,668,200.319,768.228c43.813.333,56.9-2.252,99.636-9.618" transform="translate(67.529 166.851)" fill="none" stroke="#323f51" stroke-linecap="round" stroke-linejoin="round" stroke-width="4"/>
              <path id="Path_1685" data-name="Path 1685" d="M200.668,500.231C177.5,602.085,169.529,669.422,180.539,769.464A359.718,359.718,0,0,0,97.459,762" transform="translate(32.854 168.631)" fill="none" stroke="#323f51" stroke-linecap="round" stroke-linejoin="round" stroke-width="4"/>
              <path id="Path_1686" data-name="Path 1686" d="M103.621,579.09c4.4,12.022,10.423,23.942,20.369,32,13.729,11.126,32.522,13.153,50.17,14.058,44.679,2.293,91.215-.156,131.038-20.541S376.426,542.1,372.44,497.54c-1.744-19.511-9.877-37.8-17.886-55.674L286.809,290.81c-28.8-64.209-64.923-144.688-139.8-164.463-51.77-13.671-82.873,7.731-88.688,59.2-6.26,55.372,13.609,114.868,21.312,169.263,10.321,72.828-1.49,154.615,23.986,224.284" transform="translate(19.256 41.232)" fill="#8fc6d4"/>
              <path id="Path_1687" data-name="Path 1687" d="M103.621,579.09c4.4,12.022,10.423,23.942,20.369,32,13.729,11.126,32.522,13.153,50.17,14.058,44.679,2.293,91.215-.156,131.038-20.541S376.426,542.1,372.44,497.54c-1.744-19.511-9.877-37.8-17.886-55.674L286.809,290.81c-28.8-64.209-64.923-144.688-139.8-164.463-51.77-13.671-82.873,7.731-88.688,59.2-6.26,55.372,13.609,114.868,21.312,169.263C89.956,427.635,78.145,509.421,103.621,579.09Z" transform="translate(19.256 41.232)" fill="none" stroke="#323f51" stroke-miterlimit="10" stroke-width="4.503"/>
              <path id="Path_1688" data-name="Path 1688" d="M105.471,429.928c-24.4,6.151-45.063,7.885-68.182,6.052-11.835-.941-23.961-3.446-27.919-9.9-2.746-4.485-1-10.133,2.221-15.4,11.936-19.48,24.966-16.269,40.2-35.35" transform="translate(2.7 126.526)" fill="none" stroke="#323f51" stroke-linecap="round" stroke-linejoin="round" stroke-width="4"/>
              <path id="Path_1689" data-name="Path 1689" d="M180.715,199.7a26.412,26.412,0,0,1,7.872,2.912c1.2.663,1.813,1.512.893,2.654-.9,1.1-2.007.8-3.081.226-8.356-4.517-16.708-3.6-25.055,1.166-.421.239-.844.46-1.254.7-1.026.619-2.07.8-2.851-.082-.809-.917-.542-1.848.622-2.557,6.962-4.247,14.417-6.571,22.854-5.025" transform="translate(52.849 67.16)" fill="#323f51"/>
              <path id="Path_1690" data-name="Path 1690" d="M170.379,231.758a13.788,13.788,0,0,1,18.005,7.488c.045.112.09.225.134.337,3.229,7.679.348,14.811-7.271,18.032-7.886,3.333-14.279.619-17.713-7.517-3.2-7.585-.353-15.231,6.845-18.34" transform="translate(54.688 77.774)" fill="#323f51"/>
              <path id="Path_1691" data-name="Path 1691" d="M176.682,240.192a5.415,5.415,0,0,1,7.355,2.131,6.337,6.337,0,0,1-2.028,8.243c-.107.055-.217.107-.328.155a6.086,6.086,0,0,1-8.187-2.651c-.033-.067-.067-.134-.1-.2a5.635,5.635,0,0,1,2.769-7.472c.168-.076.341-.146.516-.206" transform="translate(58.28 80.743)" fill="#fff"/>
              <g id="Group_1154" data-name="Group 1154" transform="translate(53.956 223.513)" opacity="0.41">
                <g id="Group_1153" data-name="Group 1153">
                  <g id="Group_1152" data-name="Group 1152" clip-path="url(#clip-path-3)">
                    <path id="Path_1692" data-name="Path 1692" d="M254.469,176.275c7.191,16.731-34.733,50.817-93.636,76.132S48.347,284.679,41.156,267.948s34.731-50.817,93.636-76.132,112.485-32.274,119.676-15.541" transform="translate(-40.353 -167.162)" fill="#333"/>
                  </g>
                </g>
              </g>
              <g id="Group_1157" data-name="Group 1157" transform="translate(4.21 925.342)" opacity="0.17">
                <g id="Group_1156" data-name="Group 1156">
                  <g id="Group_1155" data-name="Group 1155" clip-path="url(#clip-path-4)">
                    <path id="Path_1693" data-name="Path 1693" d="M455.837,703.516c0,6.335-101.338,11.47-226.343,11.47S3.148,709.851,3.148,703.516s101.337-11.467,226.347-11.467,226.343,5.136,226.343,11.467" transform="translate(-3.149 -692.048)"/>
                  </g>
                </g>
              </g>
              <path id="Path_1694" data-name="Path 1694" d="M318.558,143.718c7.19,16.733-56.375,60.118-141.979,96.907S15.752,293.673,8.563,276.942s56.374-60.118,141.978-96.907,160.826-53.048,168.017-36.317" transform="translate(2.7 46.229)" fill="#333"/>
              <path id="Path_1695" data-name="Path 1695" d="M36.474,225.761c3.283,17.512,6.791,29.454,8.182,29.205,35.362-6.337,85.591-25.844,107.216-34.648l.053.124s1.905-.818,5.241-2.3c3.371-1.4,5.276-2.217,5.276-2.217l-.055-.127c21.271-9.628,69.991-32.645,98.923-53.942,1.133-.833-5.041-11.482-15.382-25.791-23.386,17.413-58.72,37.2-99.772,54.841C104.515,208.8,65.323,220.911,36.474,225.761" transform="translate(12.296 45.868)" fill="#333"/>
              <path id="Path_1696" data-name="Path 1696" d="M134.4,168.866c-39.11,16.807-75.76,27.8-101.458,31.4,1.268,11.579,2.964,22.577,4.724,31.972,28.849-4.85,68.041-16.961,109.684-34.857,41.052-17.643,76.386-37.427,99.772-54.84-5.637-7.8-12.514-16.692-20.119-25.675-20.293,16.172-53.492,35.2-92.6,52" transform="translate(11.105 39.395)" fill="#fcfdff"/>
              <path id="Path_1697" data-name="Path 1697" d="M214.009,115.935c-5.832-6.183-11.884-12.13-17.979-17.493-15.572-13.7-31.415-23.589-44.558-23.826-43.086-.778-33.385,41.362-40.516,45.971l-2.256,1.456-2.61.634c-8.25,2-32.149-34.037-61.237-2.241-8.872,9.7-12.6,28-13.378,48.726-.306,8.2-.148,16.777.334,25.356.38,6.727.96,13.451,1.677,19.992,25.7-3.594,62.348-14.589,101.458-31.4s72.309-35.832,92.6-52c-4.311-5.089-8.853-10.206-13.54-15.173" transform="translate(10.558 25.15)" fill="#333"/>
              <rect id="Rectangle_487" data-name="Rectangle 487" width="470.39" height="978.476" transform="translate(296.723)" fill="#c1b6ae"/>
              <path id="Path_1698" data-name="Path 1698" d="M359.245,618.439H295.236a9.152,9.152,0,0,1-9.152-9.151v-19.23a9.152,9.152,0,0,1,9.152-9.151h64.009a9.151,9.151,0,0,1,9.151,9.151v19.23a9.151,9.151,0,0,1-9.151,9.151" transform="translate(96.441 195.827)" fill="#ada49e"/>
              <path id="Path_1699" data-name="Path 1699" d="M393.771,652.876H329.762a9.152,9.152,0,0,1-9.152-9.151v-19.23a9.152,9.152,0,0,1,9.152-9.151h64.009a9.152,9.152,0,0,1,9.152,9.151v19.23a9.152,9.152,0,0,1-9.152,9.151" transform="translate(108.08 207.436)" fill="#ada49e"/>
              <path id="Path_1700" data-name="Path 1700" d="M426.759,618.439H362.75a9.152,9.152,0,0,1-9.152-9.151v-19.23a9.152,9.152,0,0,1,9.152-9.151h64.009a9.152,9.152,0,0,1,9.151,9.151v19.23a9.151,9.151,0,0,1-9.151,9.151" transform="translate(119.2 195.827)" fill="#ada49e"/>
              <path id="Path_1701" data-name="Path 1701" d="M440.415,122.036H376.406a9.152,9.152,0,0,1-9.151-9.152V93.653a9.152,9.152,0,0,1,9.151-9.151h64.009a9.152,9.152,0,0,1,9.152,9.151v19.23a9.152,9.152,0,0,1-9.152,9.152" transform="translate(123.804 28.486)" fill="#ada49e"/>
              <path id="Path_1702" data-name="Path 1702" d="M474.941,156.472H410.932a9.152,9.152,0,0,1-9.153-9.152v-19.23a9.152,9.152,0,0,1,9.153-9.151h64.009a9.152,9.152,0,0,1,9.151,9.151v19.23a9.152,9.152,0,0,1-9.151,9.152" transform="translate(135.443 40.095)" fill="#ada49e"/>
              <path id="Path_1703" data-name="Path 1703" d="M507.929,122.036H443.92a9.152,9.152,0,0,1-9.151-9.152V93.653A9.152,9.152,0,0,1,443.92,84.5h64.009a9.152,9.152,0,0,1,9.152,9.151v19.23a9.152,9.152,0,0,1-9.152,9.152" transform="translate(146.564 28.486)" fill="#ada49e"/>
              <path id="Path_1704" data-name="Path 1704" d="M160.488,288.017c4.673-1.7,10.087,1.413,12.093,6.94s-.158,11.384-4.83,13.081-10.087-1.413-12.093-6.941.158-11.383,4.83-13.08" transform="translate(52.221 96.936)" fill="#323f51"/>
              <path id="Path_1705" data-name="Path 1705" d="M147.1,384.831a102.323,102.323,0,1,0-134.41-53.609A102.438,102.438,0,0,0,147.1,384.831" transform="translate(1.475 63.544)" fill="#8fc6d4"/>
              <path id="Path_1706" data-name="Path 1706" d="M147.1,384.831a102.323,102.323,0,1,0-134.41-53.609A102.438,102.438,0,0,0,147.1,384.831Z" transform="translate(1.475 63.544)" fill="none" stroke="#323f51" stroke-miterlimit="10" stroke-width="4.503"/>
              <path id="Path_1707" data-name="Path 1707" d="M34.8,513.456l42.93-117.382A108.362,108.362,0,1,0,55.938,387L12.65,505.357ZM19.51,330.4a96.5,96.5,0,1,1,126.763,50.557A96.5,96.5,0,0,1,19.51,330.4" transform="translate(0 62.07)" fill="#333"/>
              <path id="Path_1708" data-name="Path 1708" d="M55.717,376.585a19.781,19.781,0,1,0-11.983,25.277,19.779,19.779,0,0,0,11.983-25.277" transform="translate(5.832 122.519)" fill="#8fc6d4"/>
              <path id="Path_1709" data-name="Path 1709" d="M30.455,299.981c-4.535-14.78-4.815-29.341-.83-43.281a58.537,58.537,0,0,1,7.429-16.667l-5.675-4.13c-.2.281-5.057,7.012-8.408,18.542a82.731,82.731,0,0,0,.774,47.6Z" transform="translate(6.694 79.524)" fill="#fff"/>
              <path id="Path_1710" data-name="Path 1710" d="M35.686,306.613l4-5.766c-1.309-.968-5.347-7.076-8.291-12.168l-6.076,3.514c2.1,3.629,7.31,12.3,10.364,14.419" transform="translate(8.536 97.316)" fill="#fff"/>
              <path id="Path_1711" data-name="Path 1711" d="M79.1,240.148c21.645-9.6,41.961-1.9,50.565,19.185,8.664,21.231,1.75,40.6-17.782,49.867-21.01,9.949-45.959,1.383-54.331-18.7-8.69-20.809-.152-40.722,21.547-50.351" transform="translate(18.271 79.579)" fill="#323f51"/>
              <g id="Group_1160" data-name="Group 1160" transform="translate(117.039 346.396)" opacity="0.9" style="isolation: isolate">
                <g id="Group_1159" data-name="Group 1159">
                  <g id="Group_1158" data-name="Group 1158" clip-path="url(#clip-path-5)">
                    <path id="Path_1712" data-name="Path 1712" d="M98.2,260.947a15.21,15.21,0,0,1,21.646,8.211,15.527,15.527,0,0,1-6.7,20.912q-.449.231-.912.432a17.071,17.071,0,0,1-22.973-7.417c-.1-.2-.2-.392-.286-.591a15.813,15.813,0,0,1,7.781-20.969q.708-.325,1.445-.579" transform="translate(-87.532 -259.064)" fill="#fff"/>
                  </g>
                </g>
              </g>
            </g>
          </g>
        </g>
      </g>
      <g id="Group_1169" data-name="Group 1169" transform="translate(-21263.119 4968.809)">
        <g id="Group_1095" data-name="Group 1095" transform="translate(0 0)" clip-path="url(#clip-path-6)">
          <path id="Path_1627" data-name="Path 1627" d="M113.98,155.686c2.663-1.523-3.406-19.142-3.406-19.142s47.218-18.721,43.815-68.487S93.138-17.446,41.667,8.929s-50.055,88.1-23.819,115.12c28.5,29.352,74.438,21,74.438,21s18.719,12.339,21.7,10.636" transform="translate(0 0.002)" fill="#f297bc"/>
          <path id="Path_1628" data-name="Path 1628" d="M24,28.5s-4.682-9.571-10.212-4.892S20.768,42.549,25.7,42.329c4.68-.212,15.527-16.8,9.571-21.057C28.913,16.732,24,28.5,24,28.5" transform="translate(20.858 34.024)" fill="#ab003d"/>
          <path id="Path_1629" data-name="Path 1629" d="M45.768,27.293s-4.68-9.571-10.212-4.892,6.983,18.936,11.912,18.716c4.68-.212,15.318-15.739,9.359-19.993-6.353-4.54-11.06,6.168-11.06,6.168" transform="translate(57.471 33.64)" fill="#ab003d"/>
          <path id="Path_1630" data-name="Path 1630" d="M24.213,27.883c.005.038.276.461.855,1.341a23.234,23.234,0,0,0,2.652,3.245,16.8,16.8,0,0,0,4.473,3.309,13.551,13.551,0,0,0,5.956,1.368l.4.016.2.008.1.005H38.9l.024,0-.172.013h.016l.944-.094c.306-.038.652-.056.92-.1l.619-.172a10.353,10.353,0,0,0,2.666-1.016,15.8,15.8,0,0,0,2.365-1.62A24.353,24.353,0,0,0,48.2,32.275a24.057,24.057,0,0,0,2.51-3.4c.512-.872.807-1.368.807-1.368l.1-.166a1.412,1.412,0,0,1,2.6,1.016s-.038.182-.113.52a13.2,13.2,0,0,1-.37,1.354,21.76,21.76,0,0,1-2.089,4.548,19.213,19.213,0,0,1-2.076,2.757,16.413,16.413,0,0,1-3.038,2.58,14.291,14.291,0,0,1-4.063,1.834l-1.2.295c-.351.062-.636.083-.96.126l-.941.115-.249.019h-.206l-.276,0-.55-.005a16.637,16.637,0,0,1-4.371-.587,15.273,15.273,0,0,1-3.964-1.673,17.017,17.017,0,0,1-5.374-5.055,19.724,19.724,0,0,1-2.3-4.489,12.833,12.833,0,0,1-.416-1.36c-.075-.33-.115-.5-.115-.5l-.1-.424a1.406,1.406,0,0,1,2.741-.633c.008.035.016.075.021.11" transform="translate(36.012 44.807)"/>
        </g>
      </g>
      <g id="Group_1167" data-name="Group 1167" transform="translate(-21336.303 4837.808)">
        <g id="Group_1099" data-name="Group 1099" transform="translate(0 0)" clip-path="url(#clip-path-7)">
          <path id="Path_1636" data-name="Path 1636" d="M40.921,137.357s-.522,16.7,2.1,17.65c1.975.72,11.548-13.518,11.548-13.518s31.469,9.825,63.672-11.643c28.56-19.036,47.995-85.84-7.4-117.715C70.371-11.158,33,1.262,11.276,30.9-4.86,52.919-10.257,100.3,40.921,137.357" transform="translate(0 0)" fill="#d65050"/>
          <path id="Path_1637" data-name="Path 1637" d="M20.487,46.072s.054-.213.159-.609A17.461,17.461,0,0,1,21.2,43.8a26.818,26.818,0,0,1,2.877-5.5,22.5,22.5,0,0,1,6.439-6.318c.707-.468,1.5-.833,2.271-1.257.792-.378,1.651-.643,2.492-.962.864-.247,1.756-.422,2.641-.625.895-.136,1.8-.2,2.708-.267l.339-.026.041,0,.216,0,.077.005.149.008.6.033,1.2.069a21.911,21.911,0,0,1,2.782.458A18.6,18.6,0,0,1,51,31.51c.72.476,1.412.98,2.057,1.491.591.568,1.209,1.093,1.725,1.664a21.34,21.34,0,0,1,2.561,3.443,25.242,25.242,0,0,1,2.481,5.732,16.633,16.633,0,0,1,.411,1.7c.075.422.116.645.116.645a1.355,1.355,0,0,1-2.577.777l-.057-.134s-.069-.165-.2-.468c-.149-.319-.373-.784-.656-1.381A26.364,26.364,0,0,0,53.969,40.4,22.361,22.361,0,0,0,51.6,37.846c-.445-.414-.957-.764-1.437-1.165q-.791-.494-1.607-1.008a15.147,15.147,0,0,0-3.631-1.327,14.464,14.464,0,0,0-1.923-.3L41.8,34l-.6-.026-.152-.005-.075,0-.018,0c-.167,0,.2,0,.157.005l-.028,0L40.824,34c-.692.087-1.4.09-2.08.185-.674.154-1.355.265-2.013.437-.643.226-1.281.453-1.911.674-.6.3-1.224.53-1.79.867a22.748,22.748,0,0,0-5.688,4.672A30.85,30.85,0,0,0,24.077,45.2c-.339.568-.6,1.016-.784,1.319l-.255.465L23,47.067a1.359,1.359,0,0,1-2.51-1" transform="translate(32.121 45.327)"/>
          <path id="Path_1638" data-name="Path 1638" d="M28.009,30.58a5,5,0,1,1-4.965-5.024,5,5,0,0,1,4.965,5.024" transform="translate(28.311 40.156)"/>
          <path id="Path_1639" data-name="Path 1639" d="M18.612,23.291a17.185,17.185,0,0,1,2.808.735,35.322,35.322,0,0,1,5.66,2.546,37.518,37.518,0,0,1,5.166,3.446,18.473,18.473,0,0,1,2.132,1.957,1.437,1.437,0,0,1-.118,2.031,1.46,1.46,0,0,1-1.188.345,18.413,18.413,0,0,1-2.8-.759A37.372,37.372,0,0,1,24.6,31.067a35.374,35.374,0,0,1-5.179-3.423,17.579,17.579,0,0,1-2.119-1.977,1.448,1.448,0,0,1,1.306-2.376" transform="translate(26.642 36.575)"/>
          <path id="Path_1640" data-name="Path 1640" d="M45.642,30.69a5,5,0,1,1-4.963-5.024,5,5,0,0,1,4.963,5.024" transform="translate(56.02 40.329)"/>
          <path id="Path_1641" data-name="Path 1641" d="M51.04,25.822A17.288,17.288,0,0,1,48.9,27.773a34.929,34.929,0,0,1-5.217,3.356,37.129,37.129,0,0,1-5.706,2.453,18.7,18.7,0,0,1-2.8.723A1.437,1.437,0,0,1,33.531,33.1a1.456,1.456,0,0,1,.363-1.185,18.569,18.569,0,0,1,2.157-1.929,37.252,37.252,0,0,1,5.2-3.379,35.236,35.236,0,0,1,5.693-2.476,17.444,17.444,0,0,1,2.816-.7,1.445,1.445,0,0,1,1.275,2.391" transform="translate(52.667 36.796)"/>
        </g>
      </g>
      <g id="Group_1168" data-name="Group 1168" transform="translate(-21264.99 4669.777)">
        <g id="Group_1150" data-name="Group 1150" transform="translate(0 0)">
          <g id="Group_1103" data-name="Group 1103" transform="translate(0 0)">
            <g id="Group_1093" data-name="Group 1093" clip-path="url(#clip-path-8)">
              <path id="Path_1621" data-name="Path 1621" d="M37.569,159.344c.111,2.076,100.253-.315,110.543-74.008C159.285,5.313,76.724-12.622,37.8,7.694,3.177,25.773-15.543,74.145,16.486,114.45c14.688,18.483,40.564,24.234,38.656,28.323-2.64,5.65-17.712,14-17.573,16.571" transform="translate(-0.001 0.001)" fill="#6c85a0"/>
              <path id="Path_1652" data-name="Path 1652" d="M0,21.727Z" transform="translate(83.879 68.371)"/>
            </g>
          </g>
          <g id="Group_1105" data-name="Group 1105" transform="translate(46.161 46.283)">
            <g id="Group_1106" data-name="Group 1106" transform="translate(0 0)">
              <path id="Path_1646" data-name="Path 1646" d="M24.252,38.606A4.442,4.442,0,0,1,23.614,40c-.095-.037.867-2.588.056-3.859,0,.014-.023.03-.059.049.046-.007.049,0-.126.049-.6-.187.024-.209.167-.133a1.388,1.388,0,0,0-.487-.448,1.806,1.806,0,0,0-.11.219,7.2,7.2,0,0,0-.36-1.209,1.29,1.29,0,0,1,.526.216c-.038-.133-.071-.4-.038-.262a.322.322,0,0,0,.049.087c-.249-.55-.621-1.217-.594-1.182.869.27-1.941-2.082-3.406-.331.071-.107.142-.216.216-.321-.034-.043-.138.127-.28.4a2.708,2.708,0,0,0-.252.407c.064-.1.133-.2.2-.3-.537,1.048-1.536,3.275-1.824,2.366-.059.226-.22,1.005-.366,1.926-.038-.053-.084-.094-.134-.066s.011.243.1.3a19.054,19.054,0,0,0-.212,2.112,5.442,5.442,0,0,0-.085,2.226c-.135.679.621,1.831,1.419,2.722.047-.014.172.147.172.147.708.793,1.437,1.325,1.456.977a2.537,2.537,0,0,0-.087-.934,3.316,3.316,0,0,0,.854-.02c-.1.326-.2.7-.317,1.147-3.639,3.782.7-.487,1.087-1.335a.132.132,0,0,0,.017.092c.134-.148.168-.2.11-.151a.135.135,0,0,0-.107.015l.064-.028a2.651,2.651,0,0,0,.4-.229,4.2,4.2,0,0,0-.8,1.274c.218.366,2.186-1.958,1.964-2.118a.5.5,0,0,0-.557.351c0-.026.02-.064.028-.1a2.359,2.359,0,0,0,.186-.269c.314-.11.567-.859.721-1.923q.137-.315.271-.634c.012-.3.108-.422.168-.394.5-1.181.877-2.217.613-2.23m-3.668-5.624c-.069.045-.14-.009-.222-.159.055-.028.33.116.222.159M19.275,45.238a1.875,1.875,0,0,1-.146-.155c.072.017.143.033.215.045-.017.031-.039.066-.069.11m-.114-4.412a3.954,3.954,0,0,1,.036-.987,8.48,8.48,0,0,1,.234-1c.045-.155.107-.307.167-.458.011.028.021.058.033.088a16.516,16.516,0,0,0-.469,2.354m1.1,1.325a7.965,7.965,0,0,1,.173-1.766c.02.057.039.11.06.165-.1.609-.172,1.175-.234,1.6m-.4-7.91a4.307,4.307,0,0,0,.234-.768.828.828,0,0,1,.791,0,3.215,3.215,0,0,0-1.024.763m2.154-.606c-.02-.015-.04-.036-.064-.051.069-.11.254-.155.064.051m.669,5.217c.006-.039.014-.081.024-.12a1.622,1.622,0,0,1,0,.274c-.009-.052-.02-.1-.028-.154m1.183-1.268c-.175-1.061.275-.152,0,0m-.376-.973c-.158.015.1-.271.141-.294.3.159.255.257-.141.294" transform="translate(-16.014 -18.58)"/>
              <path id="Path_1647" data-name="Path 1647" d="M64.62,39.9a.662.662,0,0,0-.134.276c-.037-.327-.085-.654-.143-.982.16-.759.234-1.3.083-1.3a4.746,4.746,0,0,1-.184.776c-.049-.228-.1-.456-.155-.683a4.982,4.982,0,0,0-.3-2.18c-.028.047-.124.088-.307.116a.262.262,0,0,1-.04-.075.778.778,0,0,1,.149-.236.644.644,0,0,1,.142.079,2.187,2.187,0,0,0-.117-.236c-.011.02-.028.033-.177.089-.049-.013-.085-.025-.119-.037-.019-.047-.038-.095-.055-.142a.792.792,0,0,1,.285,0,1.365,1.365,0,0,0-.4-.331q-.183-.491-.371-.964a.874.874,0,0,1,.249.1,1.686,1.686,0,0,1-.087-.261c-.326-.531-.736-1.12-.675-1.044.916.222-2.167-2.021-3.574-.415.094-.139.175-.283.28-.416-.041-.053-.155.14-.313.446a2.108,2.108,0,0,0-.274.428c.072-.129.164-.243.244-.367-.545,1.1-1.549,3.493-1.81,2.5a11.008,11.008,0,0,0-.053,2.641,2.21,2.21,0,0,0-.082.289,7.017,7.017,0,0,0,.75,4.888,1.484,1.484,0,0,0,.171.2c.469,1.679,1.12,2.753,1.9,2.069-.89,1.124.379-.226-.009.632.113-.247.192-.436.257-.6a2.453,2.453,0,0,0,2.174.331c.012.322.028.673.06,1.089.009-.03.212-.736.326-1.239a3.339,3.339,0,0,0,.352-.187,3.777,3.777,0,0,0-.1.779c.18.136.626-.712.941-1.479a3.931,3.931,0,0,0,1.046-2.382,11.769,11.769,0,0,0-.065-1.892.07.07,0,0,0,.07.069c.561.1.21-.522.063-.357m-6.3,4.447.087.166c-.063-.015-.491-.12-.087-.166m.1-9.5a.177.177,0,0,1-.057-.1.194.194,0,0,1,.124.007c-.023.03-.047.059-.068.089m1.732-2.6c-.079.025-.147-.044-.206-.2.059-.018.328.186.206.2m-1.144.624c.13-.561-.126,1.051,0,0m.236,1.027a10.639,10.639,0,0,0,.346-1.226c.206-.147.584-.033,1,.205A5.01,5.01,0,0,0,59.242,33.9m1.981,8.955a2.046,2.046,0,0,1-.145-.448,2.065,2.065,0,0,0,.439.52c-.082.138-.178.143-.294-.072m2.728-5.957c-.271-1.065.277-.2,0,0" transform="translate(-8.592 -18.704)"/>
              <path id="Path_1648" data-name="Path 1648" d="M30.476,22.359a1.322,1.322,0,0,0-.931-.52c.037-.113.074-.23.111-.363a3.5,3.5,0,0,0-.563.356,3.231,3.231,0,0,0-.487.072c.058-.213.705-.146.459-.545-.309-.482-.939.109-1.312.107-.6-.006.373.445.322.426a.552.552,0,0,1-.031.172,8.628,8.628,0,0,0-.869.352c.009-.072.014-.14,0-.143a.894.894,0,0,0-.062.177,23.43,23.43,0,0,0-3.56,2.232c-.094-.175-.258-.315-.467-.063a.773.773,0,0,0-.017.422q-.215.162-.423.326c-.217-.1-.424-.207-.424-.207.258.479-1.223.449-1.579.331-.059-.03-.073-.041-.071-.055a2.729,2.729,0,0,1-.618.522.289.289,0,0,0-.05-.095c-.032-.033-.047.051-.039.149-.934.567-2.184.84-2.817,1.366,0,.031.008.055.013.095l-.077.021s0-.036,0-.063a.946.946,0,0,0-.289,1.04c-.676-1.735.174.716-.332-.356.356.756.442,1.483.894,1.644-.123-.044.241-.267.788-.537a18.177,18.177,0,0,1-1.952,1.661c2.9,1.824,17-5,14.384-8.522M16.992,28.692c-.013.184-.062.135-.142-.149,0,0,.234-.12.142.149m1.313-1.441c.173,1.125-.376-.618,0,0m-.1,1.037c.015.041.149.543,0,0m-.123-.923c.266.774,0,.183-.009.129-.018-.1-.015-.142.009-.129m-.266.045c.1-.312.7,1.254.044.079.015.026-.044-.079-.044-.079m.224.887c-.017.052.044.263-.062.033Zm.122.817a.216.216,0,0,1-.134-.155c.031-.006.205-.018.366-.05l-.232.205m.274-1.085c-.171-.314.012-.207.078-.079Zm.2.529c-.014.073-.052-.2.009-.156ZM18.848,28c-.025-.274,0-.288.07-.046.064.226,0,.148-.07.046m.391-.445a.362.362,0,0,1,.091.242c-.062-.026-.094-.107-.091-.242m.4-.371c.03.146-.094-.07,0,0m.3.06.031.216c-.015.161-.11-.254-.031-.216m.219.138a.74.74,0,0,1-.177-.415.867.867,0,0,1,.177.415m.168-.139c-.021-.039-.04-.082-.071-.143,0,0,.11.1.071.143" transform="translate(-16.092 -20.689)"/>
              <path id="Path_1650" data-name="Path 1650" d="M50.38,22.387c0-.041.069-.008.192.07-.069.162-.02.435.209.874a16.681,16.681,0,0,0,7.594,7.04c1.749.85,11.674,2.191,6.458-1.478-.091-.065-.193-.119-.289-.179a.321.321,0,0,0,.053-.078c.21-.551-1.259-1.036-1.284-.966a.4.4,0,0,0,0,.353c-.154-.075-.3-.156-.459-.228.015,0,.02-.007-.031-.06a.625.625,0,0,1-.279-.065c-.541-.229-1.04-.42-1.546-.6-.177-.117-.3-.177-.324-.117-.83-.3-1.667-.592-2.475-.927.151-.177.283-.478-.145-.554-.094-.017-.3.138-.49.281-.145-.066-.283-.14-.422-.21-.034-.271-.049-.57-.058-.555-.275.461-1.044-.857-1.137-1.247-.009-.078,0-.1.011-.1a2.649,2.649,0,0,1-.786-.314.284.284,0,0,0,.059-.089c.017-.045-.07-.02-.155.032-.982-.6-1.837-1.686-2.623-2.078-.027.018-.049.034-.088.058l-.057-.069.066-.027a.924.924,0,0,0-1.087.153c1.259-1.388-.564.467.167-.475-.526.679-1.138,1.055-1.074,1.561m2.262.455-.108-.046c.207-.3.191-.073.108.046m.535-.494c-.932.639.392-.624,0,0m-.2-.17c-.58.576-.164.078-.121.046.081-.063.119-.077.121-.046m-.166-.241c.332-.047-.867,1.249,0,0m-.771.541.063.043a.435.435,0,0,0-.108.053c-.014-.023.007-.05.045-.1m-.749-.995s.219.175-.069.2c-.173.065-.151,0,.069-.2" transform="translate(-9.735 -20.764)"/>
              <path id="Path_1651" data-name="Path 1651" d="M56.447,62.086a.906.906,0,0,0-.148.951c-.138-.3-.749-2.5-1.44-4.612-.282-.141-.4-.465-.359-.977.024.036.046.071.07.106-.664-1.936-1.341-3.557-1.711-3.2a6.907,6.907,0,0,1,1.067,2.134c-.351.083-1.354-1.72-2.69-3.026-.288-.115-.823-.4-.874-.73-.1-.068-.205-.126-.309-.183a.41.41,0,0,1-.126.26c-.1.127-.28-.308-.274-.362a1,1,0,0,1,.2-.013,3.08,3.08,0,0,0-.36-.143c.009.031,0,.063-.053.188a1.5,1.5,0,0,1-.343.077c-.044-.025-.081-.053-.123-.078a.64.64,0,0,1,.288-.249,2.182,2.182,0,0,0-.827-.053c-.273-.109-.577-.255-.9-.382a6.291,6.291,0,0,0,.915-.1,8.673,8.673,0,0,0-3.176-.859,3.657,3.657,0,0,1,1-.078,22.754,22.754,0,0,0-6.4.071l.876-.25c-.066-.474-6.355,2.884-5.3,1.358a11.115,11.115,0,0,0-2.423,1.96c.044-.1.051-.192-.037-.186s-.307.39-.2.436a29.2,29.2,0,0,0-3.015,4.415,10.724,10.724,0,0,0-.528,1.362.359.359,0,0,1,.062-.034c.146.294-.037.36-.158.318-.114.345-.232.721-.35,1.114.051.007.1.152-.023.242-.033-.007-.031-.026-.033-.051a22.878,22.878,0,0,0-.624,2.662c.039.026,0,.32,0,.32s-.019-.039-.034-.069c-.158,1.175-.065,2.008.589,1.815-1.249.749.337.107-.326.856q.43-.494.812-1.023a.484.484,0,0,0,.134.624,11.68,11.68,0,0,1,.273-1.492c.064.4.136.816.212,1.172-.023.138-.047.274-.068.414-.8.129-1.155.344-.1.721.154.315.024.448-.391.394.009-.039.717.661.6.593.241.14,6.929.5,7.177.156.083-.114-1.078-.315-.206-.433.122.006.242.009.369.013-.3.558,4.876.09,1.789.225.154-.068.3-.115.442-.17,1.409.025,2.866.031,4.307.018-.181.03-.345.085-.345.205.006.628.684-.047.816-.209,1.432-.015,2.837-.05,4.141-.107.014.181.148.1.249-.012,1.137-.052,2.188-.122,3.116-.209a.327.327,0,0,1,.068.149.994.994,0,0,1,.036-.159q.745-.071,1.363-.158c-.524.622.2.66,2.182.105,0,0-.117-.023-.294-.052a4.624,4.624,0,0,0,.782-1.657c.175.819.367,1.568.395,1.667-.052-.554-.217-1.463-.275-2.262a1.891,1.891,0,0,0,.011-.4c-.007-.06-.018-.119-.025-.18a3.346,3.346,0,0,1,.034-.386.249.249,0,0,1-.085.011c-.006-.05-.015-.1-.023-.149l.105-.121a.241.241,0,0,1,.041.076.676.676,0,0,1,.186-.34,10.38,10.38,0,0,0,.3,2.492c.2.083.448-4.516-.027-4.521m-27.68,3.72c.007-.03.007-.817.156-.33.122.178.07.284-.156.33m.313-4.918a.138.138,0,0,1-.034-.188c.583.188.064.216.034.188m.241,1.283.04-.213c.012.1.167.158-.04.213m.288-.659a.33.33,0,0,1-.1-.041c.046-.13.1-.153.134-.138-.014.059-.023.12-.038.179m.088-1c-.3.094-.059-.3.076-.318a2.816,2.816,0,0,0-.076.318m2.6-4.787,0,.244c-.089.264-.158-.135,0-.244m-.1,12.269c.02.085-.077.325,0,0m-.27-.059c-.058.028-.083.187-.122,0Zm-.264-11.66c.03.147-.172.114,0,0m-1.662,11.42c-.107.088-.153.05-.147-.1l.06.02c.045.014.11.028.167.043a.363.363,0,0,1-.081.039m.325-8.368a.762.762,0,0,1-.076.039c-.089-.3-.044-.377.1-.247a.17.17,0,0,1,.043.07c-.021.047-.046.091-.066.138m.4-.864c-.152.05-.7.011,0,0m.127-.7c.109-.049.16-.008.155.114-.109.116-.162.081-.155-.114m.666,10.6a7.437,7.437,0,0,0,1.009.152c-.311.072-1.025.119-1.009-.152M32.5,55.224c.185-.007.258.091.254.27-.191.055-.28-.034-.254-.27m.217,13.1c-.069.046.032-.149.108-.1ZM51.111,54.011c.055-.235.306.242-.006.02.034.025.017-.052.006-.02M47.12,51.3c.122.05.354,0,.469.212-.141-.03-.7-.309-.469-.212m-5.213-.294c-.03,0-.057,0-.089,0a.1.1,0,0,1-.05-.069.35.35,0,0,1,.139.066m-8.683,4A.57.57,0,0,1,33.1,54.9l.2-.047a.818.818,0,0,1,0,.087c-.025.026-.049.046-.075.072m.206,13.049.1,0c-.032.068-.065.046-.1,0m17.332-8.44c.474,0,.507-.073.178-.328a13.08,13.08,0,0,1-1.319.129,5.078,5.078,0,0,0-.506-.041.56.56,0,0,0,.238.058c-.327.018-.652.027-.928.026a4.608,4.608,0,0,0,.763-.252H48.149a3.2,3.2,0,0,1-.363.065.255.255,0,0,0,.032-.065h-.212c-.023.019-.034.025-.052.095l-.154.015a.633.633,0,0,0-.161-.11.563.563,0,0,0-.1.007.384.384,0,0,0-.008.128c-.238.02-.5.036-.769.05a.977.977,0,0,0-.338.018c-.851.034-1.731.043-2.252.011.372.083.746.167,1.127.215,0,0-1.114-.049-2.423-.1.119-.038-.366-.141-.807-.038a.715.715,0,0,1,.076.009,24.5,24.5,0,0,0-3.31-.006.64.64,0,0,1,.633.205c-.057.283-3.154-.261-3.133-.3a6.189,6.189,0,0,1,1.763-.07.409.409,0,0,0-.2-.128,2.609,2.609,0,0,0-.337.014c.084.015.014.015-.19-.014-.639,0-1.276,0-1.886-.038.1-.158.212-.292.318-.442a2.878,2.878,0,0,0-.449.241,9.43,9.43,0,0,1,.85-1.641s.063-.064.056-.083c.825-1.34,2.04-2.859,2.857-2.146.526-1.739,5.524-1.126,6.6-.739-1.209.072,3.246,2.045,3.1,2.213q-.4-.247-.8-.512a19.853,19.853,0,0,1,3.919,3.574c-.255,0-.509,0-.763-.019m2.775,8.243-.037-.1.064-.012a.618.618,0,0,1-.027.114m.3-.021c-.038-.028-.084-.07-.141-.116.276-.05.528-.1.743-.156a1.517,1.517,0,0,0,.049.218c-.424-.055-.816-.078-.651.055m.019-10.016c.088.077-.187-.391-.19-.356a13.849,13.849,0,0,0-2.053-2.887c1.869.736,3.739,5.5,3.738,6.323,0,.123-.1.177-.212.211a18.876,18.876,0,0,0-1.283-3.292m1.8,5.494c-.014-.076-.03-.149-.046-.225a.753.753,0,0,0-.006-.211,3.438,3.438,0,0,1-.142-.539.209.209,0,0,0,.075,0c0-.033-.008-.064-.012-.095a.113.113,0,0,0-.084,0c-.053-.244-.124-.482-.191-.724.1.012.179.026.183.052.012.062.05.338.092.673.053.025.075.081.012.095.024.173.046.354.068.536.046,0,.1.052.179.153a.137.137,0,0,1-.153.071c.008.074.015.142.026.212" transform="translate(-13.88 -15.244)"/>
            </g>
          </g>
        </g>
      </g>
      <g id="Group_1165" data-name="Group 1165" transform="translate(-21249.141 5319.126)">
        <g id="Group_1093-2" data-name="Group 1093" transform="translate(0 0)" clip-path="url(#clip-path-9)">
          <path id="Path_1621-2" data-name="Path 1621" d="M104.717,157.36c-.1,2.05-94.093-.311-103.75-73.087C-9.52,5.247,67.968-12.465,104.5,7.6c32.495,17.854,50.064,65.624,20,105.427C110.719,131.278,86.433,136.957,88.224,141c2.477,5.579,16.624,13.821,16.493,16.365" transform="translate(0 0.001)" fill="#f3d643"/>
          <path id="Path_1622" data-name="Path 1622" d="M24.763,29.165a3.308,3.308,0,1,1-3.375-3.24,3.305,3.305,0,0,1,3.375,3.24" transform="translate(24.956 35.652)"/>
          <path id="Path_1623" data-name="Path 1623" d="M46.12,28.728a3.309,3.309,0,1,1-3.373-3.24,3.3,3.3,0,0,1,3.373,3.24" transform="translate(54.322 35.051)"/>
          <path id="Path_1624" data-name="Path 1624" d="M25.262,30.934s.062.178.173.432L26,32.591a21.644,21.644,0,0,0,2.551,4.031,20.093,20.093,0,0,0,2.131,2.209,15.313,15.313,0,0,0,2.753,1.838,13.222,13.222,0,0,0,3.3,1.164,15.788,15.788,0,0,0,3.6.371c.7-.036,1.482-.021,2.1-.1l1.67-.295c.565-.192,1.142-.337,1.7-.508l1.572-.722a15.337,15.337,0,0,0,2.689-1.922,17.275,17.275,0,0,0,2.057-2.273,20.731,20.731,0,0,0,2.408-4.116c.473-1.074.679-1.7.667-1.665a1.253,1.253,0,0,1,2.47.428l-.069.591a14.491,14.491,0,0,1-.28,1.551,20.448,20.448,0,0,1-2.033,5.254,17.231,17.231,0,0,1-2.264,3.147,16.876,16.876,0,0,1-3.392,2.853c-.67.39-1.382.734-2.095,1.1-.746.278-1.506.551-2.285.8-.822.178-1.677.323-2.525.466-.8.1-1.451.09-2.185.14a18.443,18.443,0,0,1-4.886-.549A15.3,15.3,0,0,1,31.25,44.6a15.968,15.968,0,0,1-3.475-2.734c-.482-.506-.9-1.036-1.323-1.53q-.538-.8-1.038-1.546A20.146,20.146,0,0,1,23.229,33.6a13.852,13.852,0,0,1-.33-1.546c-.052-.371-.078-.57-.078-.57a1.256,1.256,0,0,1,2.43-.589Z" transform="translate(31.365 40.662)"/>
          <path id="Path_1625" data-name="Path 1625" d="M30.439,37.932a9.8,9.8,0,1,0-9.6,10,9.8,9.8,0,0,0,9.6-10" transform="translate(14.906 38.959)" fill="#ce4a70"/>
          <path id="Path_1626" data-name="Path 1626" d="M60.246,37.931a9.8,9.8,0,1,0-9.6,10,9.8,9.8,0,0,0,9.6-10" transform="translate(55.896 38.961)" fill="#ce4a70"/>
        </g>
      </g>
      <g id="Group_1166" data-name="Group 1166" transform="translate(-21219.557 5151.931)">
        <g id="Group_1097" data-name="Group 1097" transform="translate(0 0)" clip-path="url(#clip-path-10)">
          <path id="Path_1631" data-name="Path 1631" d="M20.893,127.1c21.523,14.605,49.075,15.149,67.414,10.4,40.34-10.448,58.75-50.048,47.533-87.906C127.829,22.553,85.594-20.633,32.986,11.277c-50.918,30.89-21.637,104.17-21.637,104.17S-.306,131.654.007,132.839,20.893,127.1,20.893,127.1" transform="translate(0.001 -0.001)" fill="#a17eaa"/>
          <path id="Path_1632" data-name="Path 1632" d="M25.268,53.085s-.028-.194-.083-.556-.121-.892-.144-1.564a26.917,26.917,0,0,1,.279-5.584,20.615,20.615,0,0,1,.916-3.712,18.829,18.829,0,0,1,1.874-3.984,15.731,15.731,0,0,1,3.22-3.655,15.216,15.216,0,0,1,9.428-3.435,9.928,9.928,0,0,1,2.51.234,10.9,10.9,0,0,1,2.342.627A16.163,16.163,0,0,1,49.557,33.5a20.663,20.663,0,0,1,2.948,2.468,26.844,26.844,0,0,1,3.487,4.377c.376.556.61,1.034.79,1.353.175.336.27.513.27.513A1.249,1.249,0,0,1,55,43.6l-.073-.085-.305-.357c-.218-.241-.537-.591-.944-1.039a30.18,30.18,0,0,0-3.663-3.348,17.8,17.8,0,0,0-5.79-3.1,6.991,6.991,0,0,0-1.682-.355,7.092,7.092,0,0,0-1.72-.08,7.09,7.09,0,0,0-1.606.17,8.013,8.013,0,0,0-1.89.556,10.9,10.9,0,0,0-3.062,1.692,13.779,13.779,0,0,0-2.428,2.525,20.066,20.066,0,0,0-1.694,3,25.482,25.482,0,0,0-1.11,3.026,32.568,32.568,0,0,0-1.05,4.86c-.076.6-.135,1.069-.175,1.389s-.045.487-.045.487l-.007.071a1.252,1.252,0,0,1-2.484.069" transform="translate(34.161 41.786)"/>
          <path id="Path_1633" data-name="Path 1633" d="M35.911,28.209c.009.024.258.215.757.625s1.2.953,2.049,1.524a11.5,11.5,0,0,0,2.891,1.422,5.279,5.279,0,0,0,1.51.239,4.471,4.471,0,0,0,1.455-.211l.092-.017.045-.009c-.076.031.182-.071-.17.069l.007,0,.017-.007.033-.014.27-.114.535-.222c.343-.156.329-.239.535-.324A5.108,5.108,0,0,0,47,30.154a9.362,9.362,0,0,0,1.422-2.782A25.31,25.31,0,0,0,49.236,24a1.247,1.247,0,1,1,2.48-.272,12.112,12.112,0,0,1,.27,1.192,12.5,12.5,0,0,1,.13,3.147,10.482,10.482,0,0,1-1.424,4.571,8.889,8.889,0,0,1-1.973,2.25,12.021,12.021,0,0,1-1.422.885l-.528.244-.263.123-.246.1-.095.026-.189.057a8.448,8.448,0,0,1-3.107.36,8.007,8.007,0,0,1-2.846-.705,11.081,11.081,0,0,1-3.812-2.756,13.242,13.242,0,0,1-1.836-2.525,11.408,11.408,0,0,1-.528-1.077,1.248,1.248,0,0,1,2.063-1.405" transform="translate(45.94 30.886)"/>
          <path id="Path_1634" data-name="Path 1634" d="M16.076,34.685c.009.024.258.215.755.625s1.2.951,2.051,1.524a11.5,11.5,0,0,0,2.891,1.422,5.275,5.275,0,0,0,1.507.239,4.453,4.453,0,0,0,1.455-.211l.092-.017.047-.009-.173.069.009,0,.017-.007.033-.014.27-.114.532-.222c.345-.156.331-.239.537-.324a5.047,5.047,0,0,0,1.069-1.01,9.4,9.4,0,0,0,1.424-2.782,26.191,26.191,0,0,0,.809-3.374,1.247,1.247,0,1,1,2.48-.274c0,.028.14.454.27,1.195a12.517,12.517,0,0,1,.128,3.147,10.481,10.481,0,0,1-1.424,4.571,8.89,8.89,0,0,1-1.973,2.25,12.047,12.047,0,0,1-1.422.883l-.528.244-.263.123-.246.1-.1.026-.187.057a8.448,8.448,0,0,1-3.107.36,8.007,8.007,0,0,1-2.846-.705,11.081,11.081,0,0,1-3.812-2.756,13.242,13.242,0,0,1-1.836-2.525,11.406,11.406,0,0,1-.528-1.077,1.248,1.248,0,0,1,2.063-1.405" transform="translate(18.846 39.735)"/>
          <path id="Path_1635" data-name="Path 1635" d="M44.429,25.957c-.629.246,2.179,11.686,5.813,9.533,4.242-2.513-3.547-10.41-5.813-9.533" transform="translate(60.569 35.364)" fill="#98c5ed"/>
        </g>
      </g>
      <g id="Group_1170" data-name="Group 1170" transform="translate(-21415.369 5222.573)">
        <g id="Group_1137" data-name="Group 1137" transform="translate(0 0)" clip-path="url(#clip-path-11)">
          <path id="Path_1661" data-name="Path 1661" d="M83.742.155C22.291-3.483-10.246,58.026,2.883,97.881s86.82,82.184,134.33,30.427c0,0,18.844,9.725,20.992,6.617s-13.852-22.665-13.852-22.665,19.724-29.552,10.686-60.128C144.813,17.549,114.913,2,83.742.155" transform="translate(0.001 -0.001)" fill="#8fc0d4"/>
          <path id="Path_1662" data-name="Path 1662" d="M26.262,19.715c-.046.037-.886.937-1.343,1.395a18.436,18.436,0,0,1-3.566,2.855,14.525,14.525,0,0,1-2.068,1.081c-.328.175-.69.25-1.006.394a8.193,8.193,0,0,1-.94.3c-1.17.388-5.078.44-5.012,3.658.066,3.4,6.375,3.707,11.336,1.357,5.961-2.83,7.784-7.022,7.8-9.489a2.637,2.637,0,0,0-3.048-2.9c-.868.055-2.1,1.32-2.148,1.352" transform="translate(23.118 34.422)" fill="#002640"/>
          <path id="Path_1663" data-name="Path 1663" d="M40.741,20.207c.049.032.946.871,1.438,1.3a18.273,18.273,0,0,0,3.756,2.6,14.968,14.968,0,0,0,2.134.937c.342.152.707.2,1.032.322a9.8,9.8,0,0,0,.955.236c1.2.3,5.107.081,5.265,3.29.167,3.408-6.113,4.147-11.215,2.148-6.145-2.41-8.256-6.464-8.448-8.923A2.648,2.648,0,0,1,38.5,19.005c.871-.006,2.185,1.173,2.237,1.2" transform="translate(66.855 35.644)" fill="#002640"/>
          <path id="Path_1664" data-name="Path 1664" d="M17.153,49.8a21.313,21.313,0,0,1,.9-3.06,32.8,32.8,0,0,1,3.81-7.39,26.839,26.839,0,0,1,22.211-11.87l1.734.04c.555.023,1.245.106,1.858.161a27.186,27.186,0,0,1,3.563.69,23.837,23.837,0,0,1,6.4,2.815,28.675,28.675,0,0,1,8.538,8.431,36.378,36.378,0,0,1,3.75,7.367c.359.923.564,1.682.716,2.2.141.543.219.834.219.834a1.514,1.514,0,0,1-2.83,1.041l-.058-.124s-.106-.219-.3-.63c-.227-.426-.558-1.05-.978-1.846a39.19,39.19,0,0,0-4.187-6.113,27.785,27.785,0,0,0-7.626-6.5,20.046,20.046,0,0,0-5.078-2,21.523,21.523,0,0,0-2.749-.492c-.46-.029-.84-.089-1.363-.106l-1.507-.014a24.215,24.215,0,0,0-10.9,2.651A26.85,26.85,0,0,0,25.5,42.157a35.447,35.447,0,0,0-4.2,6.036c-.863,1.582-1.245,2.479-1.245,2.479a1.526,1.526,0,0,1-2.9-.874" transform="translate(32.126 51.534)"/>
          <path id="Path_1665" data-name="Path 1665" d="M23.213,29.322a4.042,4.042,0,1,0-5.032,2.712,4.044,4.044,0,0,0,5.032-2.712" transform="translate(28.694 45.237)"/>
          <path id="Path_1666" data-name="Path 1666" d="M44.234,30.235a4.04,4.04,0,1,0-5.027,2.715,4.037,4.037,0,0,0,5.027-2.715" transform="translate(68.124 46.95)"/>
        </g>
      </g>
      <g id="Group_1171" data-name="Group 1171" transform="translate(-21365.596 5443.219)">
        <g id="Group_1139" data-name="Group 1139" transform="translate(0 0)" clip-path="url(#clip-path-12)">
          <path id="Path_1667" data-name="Path 1667" d="M15.873,127.573s-9.9,17.949-8.47,20.282,20.4-5.939,20.4-5.939,19.345,17.864,56.15,10.427C133.67,142.3,163.957,90.08,135.707,37.992,109.27-10.756,52.328-8.183,21.8,20.882S-3.822,97.344,15.873,127.573" transform="translate(-0.001 -0.001)" fill="#508984"/>
          <path id="Path_1668" data-name="Path 1668" d="M14.833,28.261a23.962,23.962,0,0,1,2.371-.648,45.438,45.438,0,0,1,5.27-.879c1.933-.189,3.871-.332,5.339-.332s2.451.074,2.451.074a3.405,3.405,0,0,1,.767,6.627s-.943.308-2.371.635-3.348.635-5.27.892a44.96,44.96,0,0,1-5.337.345,23.572,23.572,0,0,1-2.453-.088,3.418,3.418,0,0,1-.767-6.627" transform="translate(20.753 43.696)"/>
          <path id="Path_1669" data-name="Path 1669" d="M36.079,26.349s.953-.276,2.395-.526a45.854,45.854,0,0,1,5.313-.616c1.941-.088,3.882-.135,5.347-.061s2.445.2,2.445.2A3.406,3.406,0,0,1,52.009,32s-.953.263-2.4.512-3.375.465-5.31.629a46.761,46.761,0,0,1-5.345.077,24.462,24.462,0,0,1-2.448-.212,3.419,3.419,0,0,1-.43-6.659" transform="translate(55.642 41.557)"/>
          <path id="Path_1670" data-name="Path 1670" d="M21.51,35.281s2.331-.733,6.009-1.6c1.829-.409,3.977-.863,6.287-1.29,1.142-.234,2.416-.35,3.667-.507,1.322-.135,2.4-.34,3.959-.414,2.475.013,4.835-.1,7.248.021,2.384.125,4.66.266,6.505.438,3.7.364,6.181.757,6.181.757a3.343,3.343,0,0,1-.5,6.646h-.04s-2.4.013-6.03-.027c-1.821-.064-3.829.019-6.03-.032-2.175-.069-4.708.1-7.126.146-1.107.117-2.214.231-3.3.345-1.139.143-2.236.178-3.353.364-2.209.356-4.3.55-6.07.836-3.534.526-5.985.839-5.985.839a3.349,3.349,0,0,1-1.431-6.516Z" transform="translate(31.699 52.018)"/>
        </g>
      </g>
    </g>
  </g>
</svg>
