<svg width="325.632" height="145.265" xmlns="http://www.w3.org/2000/svg"><g data-name="Group 1193"><g fill="#7ccad8" data-name="Group 1182"><path d="M72.633 0A72.632 72.632 0 1 1 .001 72.632 72.632 72.632 0 0 1 72.633 0Z" data-name="Nuance A4 5a"/><path stroke="#323f51" stroke-linecap="round" stroke-linejoin="round" stroke-width="3" d="M89.949 55.236c.078 7.9 25.536 7.656 25.459-.247" data-name="Path 200"/><path stroke="#323f51" stroke-linecap="round" stroke-linejoin="round" stroke-width="3" d="M49.01 55.236c.078 7.9 25.535 7.656 25.458-.247" data-name="Path 201"/><path stroke="#323f51" stroke-linecap="round" stroke-linejoin="round" stroke-width="3" d="M54.925 91.882c9.652 7.608 20.375 5.869 29.159-.282" data-name="Path 202"/></g><g fill="#029cb2" data-name="Group 1184"><path d="M254.134 0c-39.488 0-71.5 32.519-71.5 72.632s32.012 72.632 71.5 72.632 71.5-32.518 71.5-72.632S293.622 0 254.134 0Z" data-name="Nuance A4 5a"/><path stroke="#323f51" stroke-linecap="round" stroke-linejoin="round" stroke-width="3" d="M237.088 55.236c-.076 7.9-25.138 7.656-25.062-.247" data-name="Path 200"/><path stroke="#323f51" stroke-linecap="round" stroke-linejoin="round" stroke-width="3" d="M277.388 55.236c-.076 7.9-25.137 7.656-25.061-.247" data-name="Path 201"/><path stroke="#323f51" stroke-linecap="round" stroke-linejoin="round" stroke-width="3" d="M271.565 91.882c-9.5 7.608-20.057 5.869-28.7-.282" data-name="Path 202"/></g></g></svg>