<svg width="330.719" height="332.764" xmlns="http://www.w3.org/2000/svg"><g data-name="Group 1411"><path fill="#afaf62" d="M275.437 172.422s23.265-11.962 22.583-16.275c-.513-3.252-27.284-5.554-27.284-5.554s-10.435-50.563-64.291-78.374c-47.758-24.664-154.02-.566-155.624 99.505-1.171 73.121 44.218 114.886 101.312 122.13 42.404 5.388 111.408-23.197 123.304-121.432" data-name="Path 1636"/><path fill="none" d="M177.918 332.764.034 188.763 152.754.109 330.638 144.11z" data-name="Rectangle 451"/><g data-name="Group 1105"><g data-name="Group 1106"><path d="M130.249 165.875a2.071 2.071 0 0 0-1.457-.815c.058-.176.115-.36.175-.568a5.482 5.482 0 0 0-.882.557 5.059 5.059 0 0 0-.763.113c.091-.334 1.1-.228.718-.854-.485-.756-1.47.171-2.055.167-.939-.009.585.7.5.666a.864.864 0 0 1-.048.269 13.514 13.514 0 0 0-1.361.551c.015-.113.022-.219-.007-.225a1.4 1.4 0 0 0-.1.277 36.694 36.694 0 0 0-5.575 3.5c-.147-.275-.4-.494-.731-.1a1.211 1.211 0 0 0-.026.661q-.337.253-.663.511c-.34-.15-.665-.325-.665-.325.4.75-1.916.7-2.473.518-.093-.046-.115-.065-.111-.085a4.274 4.274 0 0 1-.967.817.452.452 0 0 0-.078-.149c-.05-.052-.074.08-.061.234-1.463.887-3.42 1.316-4.411 2.139.007.048.013.085.02.149l-.121.033v-.1a1.481 1.481 0 0 0-.453 1.628c-1.058-2.718.273 1.121-.52-.557.557 1.184.692 2.322 1.4 2.575-.193-.069.377-.418 1.235-.841a28.467 28.467 0 0 1-3.058 2.6c4.547 2.857 26.628-7.829 22.527-13.346m-21.108 9.917c-.02.288-.1.212-.223-.234 0 0 .366-.188.223.234m2.057-2.257c.271 1.762-.589-.967 0 0m-.15 1.624c.024.065.234.85 0 0m-.193-1.446c.416 1.212.007.286-.015.2-.028-.156-.024-.223.015-.2m-.416.071c.16-.488 1.09 1.964.069.124.024.041-.069-.124-.069-.124m.351 1.389c-.026.082.069.412-.1.052Zm.191 1.279a.338.338 0 0 1-.21-.243c.048-.009.321-.028.574-.078l-.364.321m.429-1.7c-.267-.492.019-.325.123-.124Zm.306.828c-.022.115-.082-.306.015-.245Zm.332-.871c-.039-.429 0-.451.11-.072.1.355 0 .232-.11.072m.613-.7a.567.567 0 0 1 .143.379c-.1-.041-.147-.167-.143-.379m.622-.581c.046.228-.147-.11 0 0m.47.095.048.338c-.024.252-.173-.4-.048-.338m.343.215a1.159 1.159 0 0 1-.277-.65 1.358 1.358 0 0 1 .277.65m.264-.217c-.033-.061-.063-.128-.111-.225 0 0 .173.162.111.225" data-name="Path 1648"/><path d="M104.762 161.087a2.071 2.071 0 0 0 .537 1.58c-.16.093-.326.191-.51.306a5.482 5.482 0 0 0 1.028.176 5.059 5.059 0 0 0 .643.426c-.291.188-.97-.566-1.105.155-.146.886 1.206.856 1.639 1.25.691.636.033-.911.074-.829a.864.864 0 0 1 .215-.168 13.514 13.514 0 0 0 1.38.501c-.086.074-.162.149-.145.172a1.4 1.4 0 0 0 .26-.139 36.694 36.694 0 0 0 6.485 1.13c-.075.303-.034.635.476.563a1.211 1.211 0 0 0 .462-.474q.42.038.834.064c.153.34.277.687.277.687.205-.825 1.892.762 2.184 1.27.039.096.042.125.026.137a4.274 4.274 0 0 1 1.265.04.452.452 0 0 0-.041.163c.002.072.108-.01.202-.133 1.68.32 3.422 1.31 4.709 1.362.027-.04.047-.072.085-.124l.112.056-.067.074a1.481 1.481 0 0 0 1.426-.906c-1.033 2.728.547-1.016.013.762.379-1.253 1.04-2.189.683-2.85.097.18-.56.058-1.48-.202a28.467 28.467 0 0 1 4.012.114c-1.468-5.166-25.027-12-25.671-5.156m22.322 6.755c.207-.201.216-.091.009.323 0 0-.398-.105-.01-.323m-3.038.3c.978-1.49-.21 1.113 0 0m1.198-1.106c.026-.064.395-.788 0 0m-.824 1.204c.502-1.18.186-.218.145-.139-.084.135-.131.182-.145.139m.357.225c-.446.256.504-2.189.031-.138l-.031.138m.668-1.267c.074-.043.225-.352.11.028Zm.714-1.078a.338.338 0 0 1-.006.321c-.042-.025-.258-.194-.48-.326l.486.005m-1.456.976c-.131.544-.232.229-.175.01Zm.326-.82c.094-.07-.143.282-.175.172Zm-.83.425c-.257.345-.3.335-.13-.02.164-.33.156-.172.13.02m-.923.11a.567.567 0 0 1 .147-.377c.047.097-.002.222-.147.377m-.851.016c.118-.2.036.18 0 0m-.286-.385.19-.284c.187-.17-.138.413-.19.284m-.11-.39a1.159 1.159 0 0 1-.23.669 1.358 1.358 0 0 1 .23-.669m-.342-.015c-.017.067-.04.137-.068.242 0 0-.02-.237.068-.242" data-name="Path 1865"/></g></g><g data-name="Group 1408"><g data-name="Group 1106"><path d="M183 164.859a1.873 1.873 0 0 0 1.341.849c-.053.183-.106.375-.161.591a5.008 5.008 0 0 0 .814-.579 4.185 4.185 0 0 0 .7-.118c-.084.348-1.02.238-.664.888.448.786 1.358-.178 1.9-.174.868.01-.54-.724-.466-.693a1 1 0 0 1 .045-.28 11.716 11.716 0 0 0 1.257-.574c-.014.118-.021.228.007.234a1.579 1.579 0 0 0 .089-.288 33.561 33.561 0 0 0 5.149-3.637c.135.286.374.514.676.1a1.412 1.412 0 0 0 .024-.688c.207-.176.412-.353.612-.531.314.156.614.338.614.338-.374-.78 1.77-.732 2.284-.539.086.048.106.068.1.089a4.11 4.11 0 0 1 .893-.85.493.493 0 0 0 .072.155c.046.054.069-.083.057-.243 1.351-.923 3.158-1.369 4.074-2.225a4.152 4.152 0 0 1-.019-.155l.111-.035v.1a1.665 1.665 0 0 0 .418-1.694c.977 2.828-.252-1.167.48.579-.514-1.232-.64-2.416-1.293-2.679.178.071-.348.435-1.14.875a27.3 27.3 0 0 1 2.824-2.706c-4.2-2.973-24.594 8.145-20.806 13.885m19.5-10.318c.019-.3.089-.22.206.243 0 0-.338.2-.206-.243m-1.9 2.349c-.25-1.833.544 1.006 0 0m.139-1.69c-.022-.068-.216-.885 0 0m.178 1.5c-.384-1.261-.007-.3.014-.211.026.162.022.232-.014.211m.384-.073c-.147.508-1.007-2.044-.063-.129-.022-.042.063.129.063.129m-.324-1.445c.024-.085-.063-.429.089-.054Zm-.177-1.331c.079.025.146.1.194.253-.045.01-.3.029-.53.081l.336-.334m-.4 1.767c.247.512-.017.338-.113.129Zm-.283-.861c.021-.12.075.319-.014.255Zm-.307.906c.036.446 0 .469-.1.075-.093-.369 0-.241.1-.075m-.566.724a.635.635 0 0 1-.132-.394c.089.042.135.174.132.394m-.574.6c-.043-.238.135.114 0 0m-.434-.1-.045-.352c.022-.263.159.413.045.352m-.317-.224a1.285 1.285 0 0 1 .255.676 1.51 1.51 0 0 1-.255-.676m-.243.226c.031.064.058.133.1.234 0 0-.159-.168-.1-.234" data-name="Path 1648"/><path d="M206.54 169.84a2.33 2.33 0 0 0-.498-1.645c.145-.098.302-.198.474-.315a4.555 4.555 0 0 0-.95-.182 4.671 4.671 0 0 0-.593-.444c.268-.195.899.593 1.02-.158.134-.922-1.115-.892-1.518-1.304-.638-.661-.029.946-.065.867a.818.818 0 0 1-.2.174 11.608 11.608 0 0 0-1.277-.523c.08-.077.15-.154.133-.179a1.252 1.252 0 0 0-.237.147 30.469 30.469 0 0 0-5.987-1.178c.07-.315.027-.664-.441-.586a1.2 1.2 0 0 0-.427.493 34.272 34.272 0 0 0-.77-.067c-.14-.352-.255-.713-.255-.713-.186.862-1.75-.79-2.017-1.321-.035-.1-.039-.13-.024-.144a3.511 3.511 0 0 1-1.171-.044.519.519 0 0 0 .038-.17c-.003-.074-.101.01-.187.14-1.553-.333-3.16-1.365-4.35-1.419-.025.043-.043.076-.077.13l-.104-.058.067-.075a1.364 1.364 0 0 0-1.313.946c.953-2.839-.506 1.056-.012-.793-.348 1.3-.96 2.277-.63 2.965-.09-.187.516-.06 1.366.21a23.364 23.364 0 0 1-3.706-.118c1.353 5.372 23.115 12.484 23.71 5.364m-20.624-7.034c-.19.21-.195.094-.008-.336 0 0 .367.11.008.336m2.807-.314c-.903 1.552.194-1.157 0 0m-1.11 1.155c-.023.067-.364.82 0 0m.762-1.252c-.464 1.226-.171.226-.134.148.078-.14.122-.189.134-.148m-.328-.234c.41-.266-.463 2.275-.03.144-.009.049.03-.144.03-.144m-.618 1.318c-.068.045-.207.367-.098-.026Zm-.659 1.122a.391.391 0 0 1 .006-.333c.039.027.238.202.442.338l-.45-.002m1.344-1.015c.12-.565.214-.237.16-.01Zm-.302.854c-.086.073.132-.295.162-.18Zm.767-.442c.238-.358.279-.349.118.019-.15.343-.145.178-.118-.019m.85-.112a.632.632 0 0 1-.137.393c-.043-.101.003-.232.137-.393m.79-.024c-.108.209-.032-.187 0 0m.264.4-.177.296c-.173.178.125-.426.176-.296m.103.406a1.31 1.31 0 0 1 .21-.698 1.534 1.534 0 0 1-.211.695m.316.015c.014-.07.035-.142.061-.25 0 0 .019.245-.061.25" data-name="Path 1865"/></g></g><g data-name="Group 1404"><path d="M126.267 208.345a1.216 1.216 0 0 0-.131 1.002 11.3 11.3 0 0 0 1.465 1.302 13.93 13.93 0 0 0 10.431 5.79c.068.02.138.037.2.058-3.333 1.06-1.61.71.449.122 1.13.302 1.763.384.12-.035.084-.025.166-.05.253-.071a25.651 25.651 0 0 0 9.973-1.721 2.547 2.547 0 0 0 1.92-.792q.87-.39 1.719-.832a.409.409 0 0 0 .078.242c.27.377.367-.158.334-.474a30.788 30.788 0 0 0 2.568-1.562.277.277 0 0 1-.11.145.543.543 0 0 0 .204-.21 24.866 24.866 0 0 0 6.643-6.507c1.685-2.52-.472-6.918-3.781-6.083-4.082 1.033-7.119 8.09-11.825 9.875a14.29 14.29 0 0 1-12.883-1.132c-.56-.334-10.432-7.824-8.625-1.715a18.1 18.1 0 0 0 .998 2.598" data-name="Path 1654"/><path d="M181.254 200.833a1.216 1.216 0 0 0-.131 1.002 11.3 11.3 0 0 0 1.465 1.302 13.93 13.93 0 0 0 10.431 5.79c.068.02.138.037.2.058-3.333 1.06-1.61.71.449.122 1.13.302 1.763.384.12-.035.084-.025.166-.05.253-.071a25.651 25.651 0 0 0 9.973-1.722 2.547 2.547 0 0 0 1.92-.79q.87-.392 1.719-.833a.409.409 0 0 0 .078.241c.27.378.367-.157.334-.473a30.788 30.788 0 0 0 2.568-1.562.277.277 0 0 1-.11.145.543.543 0 0 0 .204-.21 24.866 24.866 0 0 0 6.643-6.507c1.685-2.52-.472-6.918-3.781-6.083-4.082 1.033-7.119 8.09-11.825 9.874a14.29 14.29 0 0 1-12.883-1.131c-.56-.334-10.432-7.824-8.625-1.715a18.1 18.1 0 0 0 .998 2.598" data-name="Path 1867"/><path d="M132.843 209.522a1.216 1.216 0 0 0 .37-.94 11.303 11.303 0 0 0-1.107-1.619 13.933 13.933 0 0 0-8.719-8.148c-.06-.036-.124-.069-.18-.104 3.492-.22 1.735-.298-.405-.227-1.024-.568-1.618-.8-.125.004a5.345 5.345 0 0 1-.263.008 25.656 25.656 0 0 0-10.096-.745 2.548 2.548 0 0 0-2.056.302q-.938.168-1.869.39a.41.41 0 0 0-.017-.252c-.171-.432-.394.064-.44.378-.975.25-1.936.553-2.87.893a.277.277 0 0 1 .143-.113.543.543 0 0 0-.25.154 24.871 24.871 0 0 0-8.023 4.703c-2.247 2.037-1.22 6.827 2.193 6.82 4.212-.013 8.87-6.125 13.869-6.715a14.293 14.293 0 0 1 12.226 4.228c.462.459 8.226 10.121 7.953 3.756a18.104 18.104 0 0 0-.338-2.764" data-name="Path 1654"/><path d="M189.858 202.128a1.215 1.215 0 0 0 .218-.986 11.295 11.295 0 0 0-1.345-1.425 13.924 13.924 0 0 0-9.88-6.679c-.066-.026-.134-.049-.194-.075 3.412-.763 1.665-.565-.436-.16-1.1-.4-1.722-.537-.123.023-.086.018-.17.035-.258.05a25.64 25.64 0 0 0-10.081.843 2.546 2.546 0 0 0-1.983.62q-.9.313-1.783.678a.409.409 0 0 0-.057-.247c-.236-.4-.379.125-.374.441-.923.4-1.825.85-2.694 1.33a.277.277 0 0 1 .123-.133.543.543 0 0 0-.222.19 24.855 24.855 0 0 0-7.184 5.898c-1.899 2.362-.135 6.93 3.232 6.388 4.155-.67 7.797-7.432 12.639-8.797a14.284 14.284 0 0 1 12.729 2.262c.527.38 9.702 8.703 8.437 2.463a18.092 18.092 0 0 0-.766-2.675" data-name="Path 1866"/></g></g></svg>