<svg width="217.813" height="219.517" data-name="Group 1122" xmlns="http://www.w3.org/2000/svg"><defs><clipPath id="Ikon_sorg_og_tristhed_svg__a"><path fill="none" d="M0 0h217.813v219.517H0z" data-name="Rectangle 450"/></clipPath></defs><g clip-path="url(#Ikon_sorg_og_tristhed_svg__a)" data-name="Group 1097"><path fill="#a17eaa" d="M32.722 199.052c33.708 22.873 76.857 23.725 105.577 16.289 63.176-16.363 92.008-78.38 74.441-137.669-12.547-42.353-78.691-109.987-161.08-60.013-79.743 48.378-33.885 163.139-33.885 163.139S-.478 206.181.011 208.037s32.711-8.986 32.711-8.986" data-name="Path 1631"/><path d="m93.071 148.578-.13-.871c-.067-.582-.189-1.4-.226-2.449a42.154 42.154 0 0 1 .437-8.745 32.286 32.286 0 0 1 1.434-5.814 29.487 29.487 0 0 1 2.935-6.24 24.637 24.637 0 0 1 5.043-5.725 23.83 23.83 0 0 1 14.766-5.375 15.548 15.548 0 0 1 3.931.367 17.07 17.07 0 0 1 3.668.982 25.313 25.313 0 0 1 6.181 3.205 32.361 32.361 0 0 1 4.617 3.865 42.041 42.041 0 0 1 5.462 6.855c.589.871.956 1.619 1.238 2.119.274.526.422.8.422.8a1.956 1.956 0 0 1-3.22 2.175l-.115-.133s-.167-.2-.478-.56c-.341-.378-.841-.926-1.478-1.627a47.264 47.264 0 0 0-5.736-5.243 27.876 27.876 0 0 0-9.066-4.854 10.948 10.948 0 0 0-2.635-.551 11.106 11.106 0 0 0-2.694-.126 11.1 11.1 0 0 0-2.516.267 12.549 12.549 0 0 0-2.961.871 17.069 17.069 0 0 0-4.794 2.644 21.579 21.579 0 0 0-3.8 3.954 31.424 31.424 0 0 0-2.653 4.7 39.907 39.907 0 0 0-1.738 4.739 51 51 0 0 0-1.645 7.611l-.274 2.175c-.063.5-.07.763-.07.763l-.011.111a1.96 1.96 0 0 1-3.891.107" data-name="Path 1632"/><path d="M128.186 92.549c.015.037.4.337 1.186.978a42.422 42.422 0 0 0 3.209 2.386 18.01 18.01 0 0 0 4.528 2.227 8.267 8.267 0 0 0 2.364.374 7 7 0 0 0 2.279-.33l.145-.026.07-.015c-.119.048.285-.111-.267.107l.011-.007.026-.011.052-.022.422-.178.837-.348c.537-.245.515-.374.837-.508a8 8 0 0 0 1.675-1.582 14.661 14.661 0 0 0 2.226-4.357 39.637 39.637 0 0 0 1.267-5.288 1.953 1.953 0 1 1 3.883-.426 18.969 18.969 0 0 1 .422 1.868 19.572 19.572 0 0 1 .2 4.928 16.415 16.415 0 0 1-2.231 7.159 13.922 13.922 0 0 1-3.09 3.524 18.826 18.826 0 0 1-2.227 1.386l-.826.382-.411.193-.385.156-.148.041-.3.089a13.23 13.23 0 0 1-4.865.563 12.539 12.539 0 0 1-4.458-1.1 17.354 17.354 0 0 1-5.969-4.317 20.738 20.738 0 0 1-2.862-3.96 17.864 17.864 0 0 1-.826-1.686 1.955 1.955 0 0 1 3.231-2.2" data-name="Path 1633"/><path d="M54.691 116.549c.015.037.4.337 1.182.978.767.622 1.882 1.49 3.213 2.386a18.01 18.01 0 0 0 4.528 2.227 8.262 8.262 0 0 0 2.36.374 6.974 6.974 0 0 0 2.279-.33l.145-.026.074-.015-.27.107.015-.007.026-.011.052-.022.422-.178.834-.348c.541-.245.519-.374.841-.508a7.9 7.9 0 0 0 1.674-1.58 14.715 14.715 0 0 0 2.231-4.358 41.016 41.016 0 0 0 1.267-5.284 1.953 1.953 0 1 1 3.883-.43c0 .044.219.711.422 1.871a19.6 19.6 0 0 1 .2 4.928 16.415 16.415 0 0 1-2.231 7.159 13.922 13.922 0 0 1-3.09 3.524 18.866 18.866 0 0 1-2.223 1.381l-.826.382-.411.193-.385.156-.152.041-.293.089a13.23 13.23 0 0 1-4.865.563 12.54 12.54 0 0 1-4.458-1.1 17.354 17.354 0 0 1-5.969-4.317 20.738 20.738 0 0 1-2.875-3.954 17.863 17.863 0 0 1-.826-1.686 1.955 1.955 0 0 1 3.231-2.2" data-name="Path 1634"/><path fill="#98c5ed" d="M164.436 96.04c-.986.385 3.413 18.3 9.1 14.929 6.644-3.935-5.554-16.3-9.1-14.929" data-name="Path 1635"/></g></svg>