<svg xmlns="http://www.w3.org/2000/svg" width="95.76" height="93.183" viewBox="0 0 95.76 93.183">
  <g id="Group_1128" data-name="Group 1128" transform="translate(-537.671 -2500.844) rotate(51)">
    <path id="Union_10" data-name="Union 10" d="M5.76,72.108A7.271,7.271,0,0,1,7.095,63.03L41.013,34.914,3.06,12.293A7.009,7.009,0,0,1,.637,3.517C2.077.323,5.5-.924,8.274.733L54.36,28.2a7.012,7.012,0,0,1,2.424,8.779A6.152,6.152,0,0,1,54.46,39.7L13.476,73.676a4.966,4.966,0,0,1-3.187,1.191A5.329,5.329,0,0,1,5.76,72.108Z" transform="translate(2319.518 1110.67)" fill="#323f51" stroke="rgba(0,0,0,0)" stroke-miterlimit="10" stroke-width="1"/>
  </g>
</svg>
