<svg xmlns="http://www.w3.org/2000/svg" xmlns:xlink="http://www.w3.org/1999/xlink" width="219.217" height="247.123" viewBox="0 0 219.217 247.123">
  <defs>
    <clipPath id="clip-path">
      <rect id="Rectangle_448" data-name="Rectangle 448" width="219.217" height="247.122" fill="none"/>
    </clipPath>
  </defs>
  <g id="Group_1094" data-name="Group 1094" transform="translate(0 0)">
    <g id="Group_1093" data-name="Group 1093" transform="translate(0 0)" clip-path="url(#clip-path)">
      <path id="Path_1621" data-name="Path 1621" d="M164,246.442c-.164,3.21-147.358-.487-162.483-114.461C-14.909,8.217,106.445-19.521,163.658,11.9c50.89,27.961,78.405,102.773,31.328,165.109-21.589,28.586-59.624,37.48-56.819,43.8,3.88,8.738,26.035,21.645,25.83,25.629" transform="translate(0 0.001)" fill="#f3d643"/>
      <path id="Path_1622" data-name="Path 1622" d="M28.508,31a5.181,5.181,0,1,1-5.286-5.074A5.176,5.176,0,0,1,28.508,31" transform="translate(49.358 70.511)"/>
      <path id="Path_1623" data-name="Path 1623" d="M49.866,30.563a5.183,5.183,0,1,1-5.282-5.074,5.176,5.176,0,0,1,5.282,5.074" transform="translate(107.435 69.322)"/>
      <path id="Path_1624" data-name="Path 1624" d="M26.651,31.707s.1.279.272.677c.2.443.5,1.09.885,1.919a33.9,33.9,0,0,0,4,6.312,31.469,31.469,0,0,0,3.337,3.459,23.982,23.982,0,0,0,4.311,2.879,20.707,20.707,0,0,0,5.174,1.823,24.725,24.725,0,0,0,5.632.58c1.09-.056,2.321-.033,3.288-.153l2.615-.461c.885-.3,1.789-.528,2.667-.8q1.25-.575,2.462-1.131A24.019,24.019,0,0,0,65.5,43.807a27.055,27.055,0,0,0,3.221-3.56A32.468,32.468,0,0,0,72.494,33.8c.74-1.681,1.064-2.667,1.045-2.608a1.963,1.963,0,0,1,3.869.67l-.108.926a22.694,22.694,0,0,1-.439,2.429,32.024,32.024,0,0,1-3.184,8.228,26.985,26.985,0,0,1-3.545,4.929,26.43,26.43,0,0,1-5.312,4.467c-1.049.61-2.165,1.149-3.281,1.726-1.168.435-2.358.863-3.578,1.254-1.287.279-2.626.506-3.954.729-1.246.156-2.273.141-3.422.219a28.884,28.884,0,0,1-7.652-.859,23.953,23.953,0,0,1-6.9-2.8,25.007,25.007,0,0,1-5.442-4.281c-.755-.792-1.41-1.622-2.072-2.4q-.843-1.255-1.626-2.422a31.551,31.551,0,0,1-3.422-8.135,21.694,21.694,0,0,1-.517-2.422c-.082-.58-.123-.893-.123-.893a1.968,1.968,0,0,1,3.805-.923Z" transform="translate(62.032 80.42)"/>
      <path id="Path_1625" data-name="Path 1625" d="M41.534,43.368A15.349,15.349,0,1,0,26.5,59.024,15.35,15.35,0,0,0,41.534,43.368" transform="translate(29.48 77.05)" fill="#ce4a70"/>
      <path id="Path_1626" data-name="Path 1626" d="M71.341,43.366A15.349,15.349,0,1,0,56.31,59.026a15.348,15.348,0,0,0,15.032-15.66" transform="translate(110.548 77.055)" fill="#ce4a70"/>
    </g>
  </g>
</svg>
