<svg xmlns="http://www.w3.org/2000/svg" xmlns:xlink="http://www.w3.org/1999/xlink" width="229.531" height="241.419" viewBox="0 0 229.531 241.419">
  <defs>
    <clipPath id="clip-path">
      <rect id="Rectangle_482" data-name="Rectangle 482" width="229.531" height="241.419" fill="none"/>
    </clipPath>
  </defs>
  <g id="Group_1140" data-name="Group 1140" transform="translate(0 0)">
    <g id="Group_1139" data-name="Group 1139" transform="translate(0 0.001)" clip-path="url(#clip-path)">
      <path id="Path_1667" data-name="Path 1667" d="M24.859,199.792S9.354,227.9,11.595,231.556s31.943-9.3,31.943-9.3,30.3,27.976,87.937,16.329c77.866-15.73,125.3-97.509,81.055-179.084-41.4-76.344-130.579-72.315-178.39-26.8S-5.986,152.451,24.859,199.792" transform="translate(-0.002 -0.002)" fill="#508984"/>
      <path id="Path_1668" data-name="Path 1668" d="M16.133,29.314A37.526,37.526,0,0,1,19.846,28.3,71.159,71.159,0,0,1,28.1,26.923c3.027-.3,6.063-.52,8.362-.52,2.291-.017,3.838.116,3.838.116A5.333,5.333,0,0,1,41.5,36.9s-1.476.482-3.713.994-5.243.994-8.254,1.4a70.41,70.41,0,0,1-8.358.541,36.914,36.914,0,0,1-3.842-.137,5.353,5.353,0,0,1-1.2-10.379" transform="translate(39.599 83.379)"/>
      <path id="Path_1669" data-name="Path 1669" d="M37.472,27.05s1.493-.432,3.751-.823a71.812,71.812,0,0,1,8.321-.965c3.04-.137,6.079-.212,8.375-.1,2.291.1,3.83.308,3.83.308A5.333,5.333,0,0,1,62.421,35.9s-1.493.412-3.755.8c-2.258.412-5.285.728-8.316.985a73.236,73.236,0,0,1-8.37.121,38.313,38.313,0,0,1-3.834-.333,5.354,5.354,0,0,1-.674-10.429" transform="translate(106.173 79.297)"/>
      <path id="Path_1670" data-name="Path 1670" d="M22.845,37.461s3.651-1.148,9.41-2.512c2.865-.64,6.229-1.351,9.847-2.021,1.788-.366,3.784-.549,5.742-.794,2.071-.212,3.759-.532,6.2-.649,3.875.021,7.572-.158,11.352.033,3.734.2,7.3.416,10.188.686,5.8.57,9.68,1.185,9.68,1.185a5.236,5.236,0,0,1-.79,10.408h-.062s-3.763.021-9.443-.042c-2.853-.1-6,.029-9.443-.05-3.406-.108-7.372.162-11.161.229-1.734.183-3.468.362-5.173.541-1.784.225-3.5.279-5.252.57-3.46.557-6.728.861-9.506,1.31-5.535.823-9.373,1.314-9.373,1.314a5.244,5.244,0,0,1-2.241-10.2Z" transform="translate(60.485 99.258)"/>
    </g>
  </g>
</svg>
