<svg width="564.374" height="455.154" viewBox="0 0 149.324 120.426" xmlns="http://www.w3.org/2000/svg"><g fill="none" style="stroke-width:.0635"><g stroke="#000" stroke-linejoin="round" stroke-width=".064" style="stroke-width:.48;stroke-miterlimit:4;stroke-dasharray:none"><g stroke-linecap="round" stroke-width=".127" style="stroke-width:.0509653"><g style="stroke-width:.802603;stroke-miterlimit:4;stroke-dasharray:none"><path d="m21.849 19.944-6.539 1.447.441-6.682" style="stroke-width:.802603;stroke-miterlimit:4;stroke-dasharray:none" transform="matrix(1.76213 1.76194 -1.76213 1.76194 102.949 45.79)"/><path d="M15.324 21.327c5.482-4.651 6.351-12.874 1.701-18.356" style="stroke-width:.802603;stroke-miterlimit:4;stroke-dasharray:none" transform="matrix(1.76213 1.76194 -1.76213 1.76194 102.949 45.79)"/></g><g style="stroke-width:.802603;stroke-miterlimit:4;stroke-dasharray:none"><path d="m21.849 19.944-6.539 1.447.441-6.682" style="stroke-width:.802603;stroke-miterlimit:4;stroke-dasharray:none" transform="matrix(-1.76213 1.76194 -1.76213 -1.76194 83.173 87.741)"/><path d="M15.324 21.327c5.482-4.651 6.351-12.874 1.701-18.356" style="stroke-width:.802603;stroke-miterlimit:4;stroke-dasharray:none" transform="matrix(-1.76213 1.76194 -1.76213 -1.76194 83.173 87.741)"/></g><g style="stroke-width:.802603;stroke-miterlimit:4;stroke-dasharray:none"><path d="m21.849 19.944-6.539 1.447.441-6.682" style="stroke-width:.802603;stroke-miterlimit:4;stroke-dasharray:none" transform="matrix(1.76213 -1.76194 1.76213 1.76194 60.234 33.493)"/><path d="M15.324 21.327c5.482-4.651 6.351-12.874 1.701-18.356" style="stroke-width:.802603;stroke-miterlimit:4;stroke-dasharray:none" transform="matrix(1.76213 -1.76194 1.76213 1.76194 60.234 33.493)"/></g><g style="stroke-width:.802603;stroke-miterlimit:4;stroke-dasharray:none"><path d="m21.849 19.944-6.539 1.447.441-6.682" style="stroke-width:.802603;stroke-miterlimit:4;stroke-dasharray:none" transform="matrix(-1.76213 -1.76194 1.76213 -1.76194 40.458 75.445)"/><path d="M15.324 21.327c5.482-4.651 6.351-12.874 1.701-18.356" style="stroke-width:.802603;stroke-miterlimit:4;stroke-dasharray:none" transform="matrix(-1.76213 -1.76194 1.76213 -1.76194 40.458 75.445)"/></g></g><path stroke="none" d="M18.006 18.018a5.884 5.884 0 0 1 0 8.319 5.878 5.878 0 0 1-8.315 0 5.884 5.884 0 0 1 0-8.32 5.878 5.878 0 0 1 8.315 0" style="fill:#75d29c;fill-opacity:1;stroke:none;stroke-width:.48;stroke-miterlimit:4;stroke-dasharray:none" transform="matrix(4.16667 0 0 4.16667 16.96 -32.192)"/><path d="M18.006 18.018a5.884 5.884 0 0 1 0 8.319 5.878 5.878 0 0 1-8.315 0 5.884 5.884 0 0 1 0-8.32 5.878 5.878 0 0 1 8.315 0" style="stroke-width:.48;stroke-miterlimit:4;stroke-dasharray:none" transform="matrix(4.16667 0 0 4.16667 16.96 -32.192)"/><text xml:space="preserve" x="16.94" y="46.078" style="font-style:normal;font-weight:400;font-size:2.54px;line-height:1.25;font-family:sans-serif;letter-spacing:0;word-spacing:0;fill:#000;fill-opacity:1;stroke:none;stroke-width:.03048" transform="matrix(4.16667 0 0 4.16667 16.96 -32.192)"/></g><path d="M-9.002-6.004h24v24h-24Z" style="stroke-width:.00403225" transform="matrix(4.16667 0 0 4.16667 57.428 -7.579)"/></g></svg>