<svg id="angstspiral_med_familie_svg__svg899" width="682.697" height="691.581" version="1.1" viewBox="0 0 180.63 182.981" xmlns="http://www.w3.org/2000/svg"><defs id="angstspiral_med_familie_svg__defs893"><path id="angstspiral_med_familie_svg__rect2320" d="M250.241 221.247h187.026v270.02H250.241z"/><path id="angstspiral_med_familie_svg__rect2422" d="M4.568 51.552h17.481v5.96H4.568z"/><path id="angstspiral_med_familie_svg__rect2416" d="M-1.547 43.806h28.751v12.279H-1.547z"/><path id="angstspiral_med_familie_svg__rect2422-2" d="M4.568 51.552h17.481v5.96H4.568z"/><path id="angstspiral_med_familie_svg__rect2439" d="M4.568 51.552h17.481v5.96H4.568z"/><path id="angstspiral_med_familie_svg__rect2422-2-7" d="M4.568 51.552h10.499v16.06H4.568z"/><path id="angstspiral_med_familie_svg__rect2475" d="M4.568 51.552h17.481v5.96H4.568z"/><path id="angstspiral_med_familie_svg__rect2422-2-7-5" d="M4.568 51.552h17.481v5.96H4.568z"/><path id="angstspiral_med_familie_svg__rect2512" d="M4.568 51.552h17.481v5.96H4.568z"/><path id="angstspiral_med_familie_svg__rect2422-2-7-5-8" d="M4.568 51.552h7.298v6.95H4.568z"/><path id="angstspiral_med_familie_svg__rect2549" d="M4.568 51.552h17.481v5.96H4.568z"/><path id="angstspiral_med_familie_svg__rect2320-3" d="M250.241 221.247h179.597v258.88H250.241z"/><path id="angstspiral_med_familie_svg__rect2320-3-7" d="M250.241 221.247h143.84v269.55h-143.84z"/><path id="angstspiral_med_familie_svg__rect2320-3-7-3" d="M250.241 221.247h235.607v265.561H250.241z"/><style id="style2">.angstspiral_med_familie_svg__a{fill:none;stroke:#000;stroke-linecap:round;stroke-linejoin:round;stroke-width:1.5px}</style></defs><g id="angstspiral_med_familie_svg__layer1" transform="translate(-13.506 -55.69)"><g id="angstspiral_med_familie_svg__g1542" style="stroke-width:.0635" transform="matrix(4.16667 0 0 4.16667 87.766 80.708)"><g id="angstspiral_med_familie_svg__g2665"><path id="angstspiral_med_familie_svg__path2-7" d="M4.326 23.178a5.884 5.884 0 0 1 0 8.32 5.878 5.878 0 0 1-8.315 0 5.884 5.884 0 0 1 0-8.32 5.878 5.878 0 0 1 8.315 0" style="fill:none;stroke:none;stroke-width:.48;stroke-linejoin:round;stroke-miterlimit:4;stroke-dasharray:none"/><g id="angstspiral_med_familie_svg__g2452"><path id="angstspiral_med_familie_svg__path2-4-6-2-7" d="M-7.785 12.11a5.884 5.884 0 0 1 0 8.32 5.878 5.878 0 0 1-8.315 0 5.884 5.884 0 0 1 0-8.32 5.878 5.878 0 0 1 8.315 0" style="fill:#f3f3f3;fill-opacity:1;stroke:none;stroke-width:.48;stroke-linejoin:round;stroke-miterlimit:4;stroke-dasharray:none"/><path id="angstspiral_med_familie_svg__path2-4-6-2-7-0" d="M23.807 12.11a5.884 5.884 0 0 1 0 8.32 5.878 5.878 0 0 1-8.315 0 5.884 5.884 0 0 1 0-8.32 5.878 5.878 0 0 1 8.315 0" style="fill:#f3f3f3;fill-opacity:1;stroke:none;stroke-width:.48;stroke-linejoin:round;stroke-miterlimit:4;stroke-dasharray:none"/><g id="angstspiral_med_familie_svg__g2358"><g id="angstspiral_med_familie_svg__g40" fill="none" stroke="#000" stroke-linecap="round" stroke-linejoin="round" stroke-width=".127" style="stroke-width:.802603;stroke-miterlimit:4;stroke-dasharray:none" transform="scale(.59809 .59802) rotate(45 -19.724 40.009)"><path id="angstspiral_med_familie_svg__path2-6" d="m21.849 19.944-6.539 1.447.441-6.682" style="stroke-width:.802603;stroke-miterlimit:4;stroke-dasharray:none"/><path id="angstspiral_med_familie_svg__path4" d="M15.324 21.327c5.482-4.651 6.351-12.874 1.701-18.356" style="stroke-width:.802603;stroke-miterlimit:4;stroke-dasharray:none"/></g><g id="angstspiral_med_familie_svg__g40-7" fill="none" stroke="#000" stroke-linecap="round" stroke-linejoin="round" stroke-width=".127" style="stroke-width:.802603;stroke-miterlimit:4;stroke-dasharray:none" transform="scale(-.59809 -.59802) rotate(-45 -54.346 -13.907)"><path id="angstspiral_med_familie_svg__path2-6-5" d="m21.849 19.944-6.539 1.447.441-6.682" style="stroke-width:.802603;stroke-miterlimit:4;stroke-dasharray:none"/><path id="angstspiral_med_familie_svg__path4-9" d="M15.324 21.327c5.482-4.651 6.351-12.874 1.701-18.356" style="stroke-width:.802603;stroke-miterlimit:4;stroke-dasharray:none"/></g><g id="angstspiral_med_familie_svg__g40-6" fill="none" stroke="#000" stroke-linecap="round" stroke-linejoin="round" stroke-width=".127" style="stroke-width:.802603;stroke-miterlimit:4;stroke-dasharray:none" transform="scale(.59809 .59802) rotate(-45 17.456 -.368)"><path id="angstspiral_med_familie_svg__path2-6-2" d="m21.849 19.944-6.539 1.447.441-6.682" style="stroke-width:.802603;stroke-miterlimit:4;stroke-dasharray:none"/><path id="angstspiral_med_familie_svg__path4-1" d="M15.324 21.327c5.482-4.651 6.351-12.874 1.701-18.356" style="stroke-width:.802603;stroke-miterlimit:4;stroke-dasharray:none"/></g><g id="angstspiral_med_familie_svg__g40-6-7" fill="none" stroke="#000" stroke-linecap="round" stroke-linejoin="round" stroke-width=".127" style="stroke-width:.802603;stroke-miterlimit:4;stroke-dasharray:none" transform="scale(-.59809 -.59802) rotate(45 40.621 -1.19)"><path id="angstspiral_med_familie_svg__path2-6-2-8" d="m21.849 19.944-6.539 1.447.441-6.682" style="stroke-width:.802603;stroke-miterlimit:4;stroke-dasharray:none"/><path id="angstspiral_med_familie_svg__path4-1-5" d="M15.324 21.327c5.482-4.651 6.351-12.874 1.701-18.356" style="stroke-width:.802603;stroke-miterlimit:4;stroke-dasharray:none"/></g><path id="angstspiral_med_familie_svg__path2-4" d="M8.294 12.11a5.884 5.884 0 0 1 0 8.32 5.878 5.878 0 0 1-8.315 0 5.884 5.884 0 0 1 0-8.32 5.878 5.878 0 0 1 8.315 0" style="fill:#75d29c;fill-opacity:1;stroke:none;stroke-width:.48;stroke-linejoin:round;stroke-miterlimit:4;stroke-dasharray:none"/><path id="angstspiral_med_familie_svg__path2" d="M8.294 12.11a5.884 5.884 0 0 1 0 8.32 5.878 5.878 0 0 1-8.315 0 5.884 5.884 0 0 1 0-8.32 5.878 5.878 0 0 1 8.315 0" style="fill:none;stroke:none;stroke-width:.48;stroke-linejoin:round;stroke-miterlimit:4;stroke-dasharray:none"/><text xml:space="preserve" id="angstspiral_med_familie_svg__text2428" x="7.228" y="40.171" style="font-style:normal;font-weight:400;font-size:2.54px;line-height:1.25;font-family:sans-serif;letter-spacing:0;word-spacing:0;fill:#000;fill-opacity:1;stroke:none;stroke-width:.03048;stroke-linejoin:round;stroke-miterlimit:4;stroke-dasharray:none"/><g id="angstspiral_med_familie_svg__g2252" transform="translate(0 -.762)"><path id="angstspiral_med_familie_svg__path2-4-6" d="M8.294-2.513a5.884 5.884 0 0 1 0 8.32 5.878 5.878 0 0 1-8.315 0 5.884 5.884 0 0 1 0-8.32 5.878 5.878 0 0 1 8.315 0" style="fill:#f3f3f3;fill-opacity:1;stroke:none;stroke-width:.48;stroke-linejoin:round;stroke-miterlimit:4;stroke-dasharray:none"/></g><g id="angstspiral_med_familie_svg__g2269" transform="translate(0 .762)"><path id="angstspiral_med_familie_svg__path2-4-6-2" d="M8.294 27.107a5.884 5.884 0 0 1 0 8.32 5.878 5.878 0 0 1-8.315 0 5.884 5.884 0 0 1 0-8.32 5.878 5.878 0 0 1 8.315 0" style="fill:#f3f3f3;fill-opacity:1;stroke:none;stroke-width:.48;stroke-linejoin:round;stroke-miterlimit:4;stroke-dasharray:none"/></g><path id="angstspiral_med_familie_svg__path26" fill="none" d="M-9.002-6.004h24v24h-24Z" style="stroke-width:.00403225"/><text xml:space="preserve" id="angstspiral_med_familie_svg__text2318" style="font-style:normal;font-weight:400;font-size:18.6667px;line-height:1.25;font-family:sans-serif;letter-spacing:0;word-spacing:0;white-space:pre;shape-inside:url(#angstspiral_med_familie_svg__rect2320);fill:#000;fill-opacity:1;stroke:none" transform="translate(-15.319 -15.481) scale(.0635)"><tspan id="angstspiral_med_familie_svg__tspan66917" x="250.24" y="238.404"><tspan id="angstspiral_med_familie_svg__tspan66915" style="font-weight:700;font-family:Montserrat;-inkscape-font-specification:'Montserrat Bold'">Barnets </tspan></tspan><tspan id="angstspiral_med_familie_svg__tspan66921" x="250.24" y="262.379"><tspan id="angstspiral_med_familie_svg__tspan66919" style="font-weight:700;font-family:Montserrat;-inkscape-font-specification:'Montserrat Bold'">symptomer 
</tspan></tspan><tspan id="angstspiral_med_familie_svg__tspan66925" x="250.24" y="286.353"><tspan id="angstspiral_med_familie_svg__tspan66923" style="font-weight:700;font-family:Montserrat;-inkscape-font-specification:'Montserrat Bold'">/ sansning</tspan></tspan></text><text xml:space="preserve" id="angstspiral_med_familie_svg__text2318-6" style="font-style:normal;font-weight:400;font-size:18.6667px;line-height:1.25;font-family:sans-serif;letter-spacing:0;word-spacing:0;white-space:pre;shape-inside:url(#angstspiral_med_familie_svg__rect2320-3);fill:#000;fill-opacity:1;stroke:none;stroke-width:.0635" transform="translate(-.133 -.07) scale(.0635)"><tspan id="angstspiral_med_familie_svg__tspan66929" x="250.24" y="238.404"><tspan id="angstspiral_med_familie_svg__tspan66927" style="font-weight:700;font-family:Montserrat;-inkscape-font-specification:'Montserrat Bold'">Forælderens </tspan></tspan><tspan id="angstspiral_med_familie_svg__tspan66933" x="250.24" y="262.379"><tspan id="angstspiral_med_familie_svg__tspan66931" style="font-weight:700;font-family:Montserrat;-inkscape-font-specification:'Montserrat Bold'">tanker 
</tspan></tspan><tspan id="angstspiral_med_familie_svg__tspan66937" x="250.24" y="286.353"><tspan id="angstspiral_med_familie_svg__tspan66935" style="font-weight:700;font-family:Montserrat;-inkscape-font-specification:'Montserrat Bold'">/ fortolkning</tspan></tspan></text><text xml:space="preserve" id="angstspiral_med_familie_svg__text2318-6-5" style="font-style:normal;font-weight:400;font-size:18.6667px;line-height:1.25;font-family:sans-serif;letter-spacing:0;word-spacing:0;white-space:pre;shape-inside:url(#angstspiral_med_familie_svg__rect2320-3-7);fill:#000;fill-opacity:1;stroke:none;stroke-width:.0635" transform="translate(-31.667 -.096) scale(.0635)"><tspan id="angstspiral_med_familie_svg__tspan66941" x="250.24" y="238.404"><tspan id="angstspiral_med_familie_svg__tspan66939" style="font-weight:700;font-family:Montserrat;-inkscape-font-specification:'Montserrat Bold'">Barnets </tspan></tspan><tspan id="angstspiral_med_familie_svg__tspan66945" x="250.24" y="262.379"><tspan id="angstspiral_med_familie_svg__tspan66943" style="font-weight:700;font-family:Montserrat;-inkscape-font-specification:'Montserrat Bold'">tanker 
</tspan></tspan><tspan id="angstspiral_med_familie_svg__tspan66949" x="250.24" y="286.353"><tspan id="angstspiral_med_familie_svg__tspan66947" style="font-weight:700;font-family:Montserrat;-inkscape-font-specification:'Montserrat Bold'">/ fortolkning</tspan></tspan></text><text xml:space="preserve" id="angstspiral_med_familie_svg__text2318-6-5-5" style="font-style:normal;font-weight:400;font-size:18.6667px;line-height:1.25;font-family:sans-serif;letter-spacing:0;word-spacing:0;white-space:pre;shape-inside:url(#angstspiral_med_familie_svg__rect2320-3-7-3);fill:#000;fill-opacity:1;stroke:none;stroke-width:.0635" transform="translate(-16.052 17.354) scale(.0635)"><tspan id="angstspiral_med_familie_svg__tspan66953" x="250.24" y="237.764"><tspan id="angstspiral_med_familie_svg__tspan66951" style="font-weight:700;-inkscape-font-specification:'sans-serif Bold'">Dine følelser</tspan></tspan></text><g id="angstspiral_med_familie_svg__g24" style="stroke:#000;stroke-width:1.10946;stroke-miterlimit:4;stroke-dasharray:none;stroke-opacity:1" transform="matrix(.26445 0 0 .26945 .963 13.037)"><g id="angstspiral_med_familie_svg__g836" style="stroke:#000;stroke-width:1.09136;stroke-miterlimit:4;stroke-dasharray:none;stroke-opacity:1" transform="matrix(1.0163 0 0 1.01684 -.184 -1.233)"><ellipse id="angstspiral_med_familie_svg__circle12" cx="5.298" cy="9.112" class="angstspiral_med_familie_svg__a" rx="2.49" ry="2.463" style="stroke:#000;stroke-width:1.09136;stroke-miterlimit:4;stroke-dasharray:none;stroke-opacity:1"/><ellipse id="angstspiral_med_familie_svg__circle16" cx="12" cy="12.566" class="angstspiral_med_familie_svg__a" rx="2.234" ry="2.235" style="stroke:#000;stroke-width:1.09136;stroke-miterlimit:4;stroke-dasharray:none;stroke-opacity:1"/><path id="angstspiral_med_familie_svg__path4-5" d="M9.348 16.026h-8.1c0-2.371 1.812-4.293 4.05-4.293 2.238 0 4.05 1.922 4.05 4.293z" style="fill:none;stroke:#000;stroke-width:1.09136;stroke-linejoin:round;stroke-miterlimit:4;stroke-dasharray:none;stroke-opacity:1"/><path id="angstspiral_med_familie_svg__path4-3" d="M22.729 16.026h-8.1c0-2.371 1.812-4.293 4.05-4.293 2.237 0 4.05 1.922 4.05 4.293z" style="fill:none;stroke:#000;stroke-width:1.09136;stroke-linejoin:round;stroke-miterlimit:4;stroke-dasharray:none;stroke-opacity:1"/><path id="angstspiral_med_familie_svg__path4-3-6" d="M16.05 19.378h-8.1c0-2.37 1.812-4.293 4.05-4.293 2.238 0 4.05 1.922 4.05 4.293z" style="fill:none;stroke:#000;stroke-width:1.09136;stroke-linejoin:round;stroke-miterlimit:4;stroke-dasharray:none;stroke-opacity:1"/><ellipse id="angstspiral_med_familie_svg__circle12-7" cx="18.679" cy="9.112" class="angstspiral_med_familie_svg__a" rx="2.49" ry="2.463" style="fill:none;stroke:#000;stroke-width:1.09136;stroke-linecap:round;stroke-linejoin:round;stroke-miterlimit:4;stroke-dasharray:none;stroke-opacity:1"/></g></g></g></g></g></g></g></svg>