<svg width="682.697" height="691.581" viewBox="0 0 180.63 182.981" xmlns="http://www.w3.org/2000/svg"><defs><path id="angstspiral_traced_2_svg__a" d="M4.568 51.552h17.481v5.96H4.568z"/><path id="angstspiral_traced_2_svg__b" d="M4.568 51.552h10.499v16.06H4.568z"/><path id="angstspiral_traced_2_svg__c" d="M4.568 51.552h17.481v5.96H4.568z"/><path id="angstspiral_traced_2_svg__d" d="M4.568 51.552h7.298v6.95H4.568z"/></defs><g style="stroke-width:.0635"><path d="M4.326 23.178a5.884 5.884 0 0 1 0 8.32 5.878 5.878 0 0 1-8.315 0 5.884 5.884 0 0 1 0-8.32 5.878 5.878 0 0 1 8.315 0" style="fill:none;stroke:none;stroke-width:.48;stroke-linejoin:round;stroke-miterlimit:4;stroke-dasharray:none" transform="matrix(4.16667 0 0 4.16667 74.26 25.017)"/><g fill="none" style="stroke-width:.0440681"><g stroke="#000" stroke-linecap="round" stroke-linejoin="round" stroke-width=".694" style="stroke-width:2.10086;stroke-miterlimit:4;stroke-dasharray:none"><path d="m18.5 7.5 5 5-5 5M23.5 12.5H.5M5.5 7.5l-5 5 5 5" style="stroke-width:2.10086;stroke-miterlimit:4;stroke-dasharray:none" transform="matrix(.45544 0 0 .46326 118.348 86.074)"/></g><path d="M0-7h24v24H0Z" style="stroke-width:.0433849" transform="matrix(.38125 0 0 .38125 118.385 89.358)"/></g><g fill="none" style="stroke-width:.0440681"><g stroke="#000" stroke-linecap="round" stroke-linejoin="round" stroke-width=".694" style="stroke-width:2.10086;stroke-miterlimit:4;stroke-dasharray:none"><path d="m18.5 7.5 5 5-5 5M23.5 12.5H.5M5.5 7.5l-5 5 5 5" style="stroke-width:2.10086;stroke-miterlimit:4;stroke-dasharray:none" transform="matrix(.45544 0 0 .46326 52.531 86.074)"/></g><path d="M0-7h24v24H0Z" style="stroke-width:.0433849" transform="matrix(.38125 0 0 .38125 52.568 89.358)"/></g><g fill="none" style="stroke-width:.0440681"><g stroke="#000" stroke-linecap="round" stroke-linejoin="round" stroke-width=".694" style="stroke-width:2.10086;stroke-miterlimit:4;stroke-dasharray:none"><path d="m18.5 7.5 5 5-5 5M23.5 12.5H.5M5.5 7.5l-5 5 5 5" style="stroke-width:2.10086;stroke-miterlimit:4;stroke-dasharray:none" transform="matrix(0 .45544 -.46326 0 96.684 55.29)"/></g><path d="M0-7h24v24H0Z" style="stroke-width:.0433849" transform="rotate(90 19.036 74.364) scale(.38125)"/></g><g fill="none" style="stroke-width:.0440681"><g stroke="#000" stroke-linecap="round" stroke-linejoin="round" stroke-width=".694" style="stroke-width:2.10086;stroke-miterlimit:4;stroke-dasharray:none"><path d="m18.5 7.5 5 5-5 5M23.5 12.5H.5M5.5 7.5l-5 5 5 5" style="stroke-width:2.10086;stroke-miterlimit:4;stroke-dasharray:none" transform="matrix(0 .45544 -.46326 0 96.684 120.175)"/></g><path d="M0-7h24v24H0Z" style="stroke-width:.0433849" transform="matrix(0 .38125 -.38125 0 93.4 120.212)"/></g><path d="M-7.785 12.11a5.884 5.884 0 0 1 0 8.32 5.878 5.878 0 0 1-8.315 0 5.884 5.884 0 0 1 0-8.32 5.878 5.878 0 0 1 8.315 0M23.807 12.11a5.884 5.884 0 0 1 0 8.32 5.878 5.878 0 0 1-8.315 0 5.884 5.884 0 0 1 0-8.32 5.878 5.878 0 0 1 8.315 0" style="fill:#f3f3f3;fill-opacity:1;stroke:none;stroke-width:.48;stroke-linejoin:round;stroke-miterlimit:4;stroke-dasharray:none" transform="matrix(4.16667 0 0 4.16667 74.26 25.017)"/><g fill="none" stroke="#000" stroke-linecap="round" stroke-linejoin="round" stroke-width=".127" style="stroke-width:.802603;stroke-miterlimit:4;stroke-dasharray:none"><path d="m21.849 19.944-6.539 1.447.441-6.682" style="stroke-width:.802603;stroke-miterlimit:4;stroke-dasharray:none" transform="matrix(1.76213 1.76194 -1.76213 1.76194 130.364 88.969)"/><path d="M15.324 21.327c5.482-4.651 6.351-12.874 1.701-18.356" style="stroke-width:.802603;stroke-miterlimit:4;stroke-dasharray:none" transform="matrix(1.76213 1.76194 -1.76213 1.76194 130.364 88.969)"/></g><g fill="none" stroke="#000" stroke-linecap="round" stroke-linejoin="round" stroke-width=".127" style="stroke-width:.802603;stroke-miterlimit:4;stroke-dasharray:none"><path d="m21.849 19.944-6.539 1.447.441-6.682" style="stroke-width:.802603;stroke-miterlimit:4;stroke-dasharray:none" transform="matrix(-1.76213 1.76194 -1.76213 -1.76194 89.422 130.92)"/><path d="M15.324 21.327c5.482-4.651 6.351-12.874 1.701-18.356" style="stroke-width:.802603;stroke-miterlimit:4;stroke-dasharray:none" transform="matrix(-1.76213 1.76194 -1.76213 -1.76194 89.422 130.92)"/></g><g fill="none" stroke="#000" stroke-linecap="round" stroke-linejoin="round" stroke-width=".127" style="stroke-width:.802603;stroke-miterlimit:4;stroke-dasharray:none"><path d="m21.849 19.944-6.539 1.447.441-6.682" style="stroke-width:.802603;stroke-miterlimit:4;stroke-dasharray:none" transform="matrix(1.76213 -1.76194 1.76213 1.76194 87.65 55.506)"/><path d="M15.324 21.327c5.482-4.651 6.351-12.874 1.701-18.356" style="stroke-width:.802603;stroke-miterlimit:4;stroke-dasharray:none" transform="matrix(1.76213 -1.76194 1.76213 1.76194 87.65 55.506)"/></g><g fill="none" stroke="#000" stroke-linecap="round" stroke-linejoin="round" stroke-width=".127" style="stroke-width:.802603;stroke-miterlimit:4;stroke-dasharray:none"><path d="m21.849 19.944-6.539 1.447.441-6.682" style="stroke-width:.802603;stroke-miterlimit:4;stroke-dasharray:none" transform="matrix(-1.76213 -1.76194 1.76213 -1.76194 46.707 97.457)"/><path d="M15.324 21.327c5.482-4.651 6.351-12.874 1.701-18.356" style="stroke-width:.802603;stroke-miterlimit:4;stroke-dasharray:none" transform="matrix(-1.76213 -1.76194 1.76213 -1.76194 46.707 97.457)"/></g><g style="fill:none;stroke:none;stroke-width:.48;stroke-linejoin:round;stroke-miterlimit:4;stroke-dasharray:none"><path d="M18.006 18.018a5.884 5.884 0 0 1 0 8.319 5.878 5.878 0 0 1-8.315 0 5.884 5.884 0 0 1 0-8.32 5.878 5.878 0 0 1 8.315 0" style="fill:#75d29c;fill-opacity:1;stroke:none;stroke-width:.48;stroke-miterlimit:4;stroke-dasharray:none" transform="matrix(4.16667 0 0 4.16667 33.793 .404)"/><path d="M18.006 18.018a5.884 5.884 0 0 1 0 8.319 5.878 5.878 0 0 1-8.315 0 5.884 5.884 0 0 1 0-8.32 5.878 5.878 0 0 1 8.315 0" style="stroke:none;stroke-width:.48;stroke-miterlimit:4;stroke-dasharray:none" transform="matrix(4.16667 0 0 4.16667 33.793 .404)"/><path d="M10.798 21.48h1.024v.217h-.369v.895h-.286v-.895h-.37z" style="font-style:normal;font-variant:normal;font-weight:700;font-stretch:normal;font-size:1.524px;line-height:1.25;font-family:sans-serif;-inkscape-font-specification:'sans-serif, Bold';font-variant-ligatures:normal;font-variant-caps:normal;font-variant-numeric:normal;font-variant-east-asian:normal;letter-spacing:0;word-spacing:0;white-space:pre;fill:#000;fill-opacity:1;stroke:none" transform="matrix(4.16667 0 0 4.16667 33.793 .404)"/><path d="M12.41 21.985q-.035-.016-.07-.024t-.07-.008q-.102 0-.158.066-.055.066-.055.189v.384h-.267v-.834h.267v.137q.051-.082.117-.119.067-.038.16-.038l.03.002q.015 0 .045.004zM12.542 21.758h.266v.834h-.266zm0-.324h.266v.217h-.266zM13.631 22.45q-.055.073-.12.108-.067.034-.154.034-.153 0-.252-.12-.1-.12-.1-.307 0-.186.1-.305.1-.12.252-.12.087 0 .153.034t.121.108v-.124h.268v.75q0 .2-.127.306-.126.107-.368.107-.078 0-.15-.012-.074-.012-.147-.037v-.207q.07.04.137.06.067.02.134.02.131 0 .192-.058.061-.057.061-.18zm-.175-.518q-.083 0-.129.06-.046.062-.046.173 0 .115.045.174.044.06.13.06.083 0 .13-.062.045-.06.045-.172 0-.111-.046-.172-.046-.061-.13-.061zM14.722 22.45q-.055.073-.121.108-.066.034-.153.034-.153 0-.253-.12t-.1-.307q0-.186.1-.305.1-.12.253-.12.087 0 .153.034t.121.108v-.124h.268v.75q0 .2-.127.306-.127.107-.368.107-.078 0-.15-.012-.074-.012-.147-.037v-.207q.07.04.137.06.067.02.134.02.131 0 .192-.058.061-.057.061-.18zm-.175-.518q-.083 0-.13.06-.045.062-.045.173 0 .115.044.174.045.06.13.06.084 0 .13-.062.046-.06.046-.172 0-.111-.046-.172-.046-.061-.13-.061zM16.078 22.173v.076h-.623q.01.093.068.14.058.047.162.047.084 0 .172-.024.089-.026.182-.076v.205q-.095.036-.19.054-.094.018-.188.018-.227 0-.352-.114-.125-.116-.125-.323 0-.204.122-.321.124-.117.34-.117.196 0 .314.119.118.118.118.316zm-.274-.089q0-.076-.044-.122-.044-.047-.116-.047-.077 0-.125.044-.049.043-.06.125zM16.899 21.985q-.035-.016-.07-.024-.034-.008-.07-.008-.102 0-.158.066-.055.066-.055.189v.384h-.266v-.834h.266v.137q.052-.082.118-.119.067-.038.16-.038l.029.002q.015 0 .045.004z" style="font-style:normal;font-variant:normal;font-weight:700;font-stretch:normal;font-size:1.524px;line-height:1.25;font-family:sans-serif;-inkscape-font-specification:'sans-serif, Bold';font-variant-ligatures:normal;font-variant-caps:normal;font-variant-numeric:normal;font-variant-east-asian:normal;letter-spacing:0;word-spacing:0;white-space:pre;fill:#000;fill-opacity:1;stroke:none" transform="matrix(4.16667 0 0 4.16667 33.793 .404)"/></g><text xml:space="preserve" x="7.228" y="40.171" style="font-style:normal;font-weight:400;font-size:2.54px;line-height:1.25;font-family:sans-serif;letter-spacing:0;word-spacing:0;fill:#000;fill-opacity:1;stroke:none;stroke-width:.03048;stroke-linejoin:round;stroke-miterlimit:4;stroke-dasharray:none" transform="matrix(4.16667 0 0 4.16667 74.26 25.017)"/><g aria-label="Din adfærd" style="font-style:normal;font-weight:400;font-size:2.54px;line-height:1.25;font-family:sans-serif;letter-spacing:0;word-spacing:0;white-space:pre;shape-inside:url(#angstspiral_traced_2_svg__a);fill:#000;fill-opacity:1;stroke:none;stroke-width:.48;stroke-linejoin:round;stroke-miterlimit:4;stroke-dasharray:none" transform="matrix(4.16667 0 0 4.16667 -13.313 -130.43)"><path d="M4.695 52.733h.484q.174 0 .307.067.134.066.207.186.075.12.075.28 0 .16-.075.281-.073.12-.207.188-.133.065-.307.065h-.484zm.472.864q.16 0 .255-.088.096-.09.096-.242 0-.153-.096-.241-.095-.09-.255-.09h-.225v.661zM5.937 52.98h.238v.82h-.238zm.119-.114q-.066 0-.107-.038-.041-.038-.041-.095 0-.056.041-.094t.107-.038q.065 0 .106.036.042.037.042.092 0 .06-.042.099-.04.038-.106.038zM6.894 52.968q.152 0 .245.091.095.092.095.272v.469h-.238v-.433q0-.097-.043-.145-.042-.048-.123-.048-.09 0-.143.056-.054.055-.054.165v.405h-.237v-.82h.227v.096q.047-.052.117-.08.07-.028.154-.028zM8.21 52.968q.191 0 .293.091.102.09.102.273v.468h-.222v-.102q-.067.114-.25.114-.094 0-.165-.032-.068-.032-.105-.088-.036-.057-.036-.128 0-.114.085-.18.087-.066.267-.066h.189q0-.077-.048-.118-.047-.043-.141-.043-.066 0-.13.021-.062.02-.107.055l-.085-.166q.067-.047.16-.073.095-.026.194-.026zm-.018.684q.061 0 .109-.027.047-.03.067-.084v-.084h-.163q-.147 0-.147.096 0 .046.035.073.037.026.1.026zM9.665 52.67v1.13h-.227v-.094q-.089.106-.257.106-.115 0-.21-.052-.093-.051-.146-.147-.053-.096-.053-.223 0-.126.053-.222t.146-.148q.095-.052.21-.052.157 0 .246.099v-.398zm-.442.947q.09 0 .149-.06.06-.063.06-.167 0-.104-.06-.165-.06-.062-.15-.062t-.15.062q-.06.061-.06.165 0 .104.06.166.06.061.15.061zM10.145 52.998h.21v.183h-.204v.619h-.238v-.619h-.126v-.183h.126v-.036q0-.14.082-.223.084-.082.235-.082.053 0 .1.012.05.01.081.032l-.062.172q-.041-.029-.096-.029-.108 0-.108.12zM11.816 53.387q0 .038-.004.069h-.622q.017.077.078.122.06.044.155.044.12 0 .208-.08l.126.138q-.06.065-.146.099-.086.033-.192.033-.109 0-.2-.035-.091-.035-.155-.106-.095.141-.314.141-.16 0-.253-.07-.092-.07-.092-.187 0-.107.087-.173.087-.065.265-.065h.19q0-.076-.048-.117-.047-.043-.14-.043-.066 0-.13.021-.064.02-.108.055l-.085-.166q.067-.047.16-.073.093-.026.192-.026.207 0 .302.116.056-.055.134-.086.077-.03.167-.03.118 0 .215.052.098.052.154.148.056.096.056.22zm-.428-.24q-.074 0-.13.045-.057.044-.07.125h.398q-.012-.08-.068-.125-.055-.044-.13-.044zm-.614.505q.08 0 .127-.042.045-.043.045-.116v-.038h-.163q-.146 0-.146.094 0 .049.035.076.037.026.102.026zM12.204 53.088q.042-.06.114-.09.073-.03.168-.03v.22q-.04-.004-.054-.004-.102 0-.16.058-.058.057-.058.171v.387h-.237v-.82h.227zM13.455 52.67v1.13h-.227v-.094q-.089.106-.256.106-.116 0-.21-.052-.094-.051-.147-.147-.053-.096-.053-.223 0-.126.053-.222t.146-.148q.095-.052.21-.052.158 0 .246.099v-.398zm-.442.947q.09 0 .15-.06.059-.063.059-.167 0-.104-.06-.165-.06-.062-.15-.062t-.15.062q-.06.061-.06.165 0 .104.06.166.06.061.15.061z" style="font-style:normal;font-variant:normal;font-weight:700;font-stretch:normal;font-size:1.524px;font-family:Montserrat;-inkscape-font-specification:'Montserrat, Bold';font-variant-ligatures:normal;font-variant-caps:normal;font-variant-numeric:normal;font-variant-east-asian:normal"/></g><path d="M8.294-2.513a5.884 5.884 0 0 1 0 8.32 5.878 5.878 0 0 1-8.315 0 5.884 5.884 0 0 1 0-8.32 5.878 5.878 0 0 1 8.315 0" style="fill:#f3f3f3;fill-opacity:1;stroke:none;stroke-width:.48;stroke-linejoin:round;stroke-miterlimit:4;stroke-dasharray:none" transform="matrix(4.16667 0 0 4.16667 74.26 21.842)"/><g aria-label="Dine kropslige reaktioner" style="font-style:normal;font-weight:400;font-size:2.54px;line-height:.75;font-family:sans-serif;letter-spacing:0;word-spacing:0;white-space:pre;shape-inside:url(#angstspiral_traced_2_svg__b);fill:#000;fill-opacity:1;stroke:none;stroke-width:.48;stroke-linejoin:round;stroke-miterlimit:4;stroke-dasharray:none" transform="matrix(4.16667 0 0 4.16667 50.331 -198.388)"><path d="M8.29 52.27v.678h.103q.176 0 .268-.087.093-.087.093-.253 0-.165-.092-.251t-.269-.086zm-.286-.216h.302q.253 0 .377.036t.213.123q.078.075.116.173.038.098.038.222 0 .126-.038.225-.038.098-.116.174-.09.086-.215.122-.125.036-.375.036h-.302ZM9.257 52.332h.267v.833h-.267Zm0-.325h.267v.217h-.267ZM10.618 52.658v.507h-.268v-.388q0-.108-.005-.15-.005-.04-.017-.06-.015-.026-.042-.04-.027-.015-.061-.015-.084 0-.131.065-.048.064-.048.178v.41H9.78v-.833h.266v.122q.06-.073.128-.108.068-.034.15-.034.144 0 .219.088.075.089.075.258zM11.697 52.746v.076h-.623q.01.094.068.14.058.048.162.048.084 0 .172-.025.088-.025.181-.076v.205q-.094.036-.189.054-.094.019-.189.019-.226 0-.352-.115-.125-.115-.125-.323 0-.204.123-.32.124-.117.34-.117.196 0 .313.118.119.118.119.316zm-.274-.088q0-.076-.045-.123-.044-.046-.115-.046-.078 0-.126.044-.048.043-.06.125zM5.956 53.912h.266v.63l.307-.305h.31l-.408.382.44.451h-.324l-.325-.347v.347h-.266ZM7.588 54.464q-.035-.017-.07-.024-.034-.008-.069-.008-.103 0-.158.066-.055.065-.055.188v.384h-.267v-.833h.267v.137q.05-.082.117-.12.067-.037.16-.037l.03.001q.015 0 .045.005zM8.117 54.407q-.088 0-.135.064-.046.063-.046.183t.046.184q.047.063.135.063.087 0 .134-.063.046-.064.046-.184t-.046-.183q-.047-.064-.134-.064zm0-.19q.215 0 .336.116.121.116.121.321 0 .205-.121.322-.12.116-.336.116-.215 0-.337-.116-.122-.117-.122-.322 0-.205.122-.321.122-.116.337-.116zM9.034 54.95v.437h-.266v-1.15h.266v.122q.055-.073.122-.108.067-.034.154-.034.154 0 .253.122.1.122.1.315t-.1.316q-.099.122-.253.122-.087 0-.154-.035t-.122-.108zm.177-.54q-.085 0-.131.063t-.046.181q0 .118.046.182.046.062.131.062.086 0 .13-.062.046-.063.046-.182t-.045-.182q-.045-.062-.13-.062zM10.51 54.263v.202q-.086-.036-.165-.054-.08-.017-.15-.017-.077 0-.114.019-.036.019-.036.058 0 .032.027.05.029.016.1.024l.048.007q.204.026.275.086.07.06.07.186 0 .134-.098.2-.098.068-.293.068-.082 0-.171-.014-.088-.012-.18-.038v-.203q.079.039.162.058.084.02.17.02.079 0 .118-.022.04-.022.04-.064 0-.036-.028-.053-.027-.018-.108-.027l-.047-.006q-.178-.023-.249-.083-.071-.06-.071-.183 0-.133.09-.197.091-.064.279-.064.073 0 .154.012.082.01.177.035zM10.766 53.912h.266v1.158h-.266ZM11.288 54.237h.267v.833h-.267zm0-.325h.267v.217h-.267zM12.378 54.929q-.055.073-.122.107-.066.034-.153.034-.153 0-.252-.12-.1-.12-.1-.306 0-.187.1-.306.1-.12.252-.12.087 0 .153.034.067.034.122.108v-.123h.267v.749q0 .2-.127.307-.126.106-.367.106-.078 0-.151-.012t-.147-.036v-.208q.07.04.137.06.067.02.135.02.13 0 .192-.058.06-.057.06-.18zm-.176-.519q-.083 0-.129.061t-.046.173q0 .114.045.174.044.059.13.059.083 0 .13-.061.046-.061.046-.172 0-.112-.047-.173-.046-.061-.129-.061zM13.733 54.651v.076h-.622q.01.094.067.14.058.048.163.048.084 0 .171-.025.089-.025.182-.076v.205q-.095.036-.189.054-.095.019-.189.019-.226 0-.352-.115-.125-.115-.125-.323 0-.204.123-.32.123-.117.34-.117.196 0 .313.118.118.118.118.316zm-.273-.088q0-.076-.045-.123-.044-.046-.115-.046-.078 0-.126.044-.049.043-.06.125zM6.067 56.369q-.035-.017-.07-.024-.034-.008-.07-.008-.102 0-.158.066-.055.065-.055.188v.384h-.266v-.833h.266v.137q.052-.082.118-.12.067-.038.16-.038l.029.002q.015 0 .045.004zM7.031 56.556v.076h-.623q.01.094.068.14.058.048.162.048.085 0 .172-.025.089-.025.182-.076v.205q-.095.036-.19.054-.094.019-.188.019-.226 0-.352-.115-.125-.115-.125-.323 0-.204.123-.32.123-.118.339-.118.196 0 .314.119.118.118.118.316zm-.274-.088q0-.076-.044-.123-.044-.046-.116-.046-.077 0-.125.044-.049.043-.06.125zM7.607 56.6q-.084 0-.126.028-.042.029-.042.084 0 .05.034.08.034.028.094.028.075 0 .127-.054.051-.054.051-.136v-.03zm.407-.1v.475h-.269v-.123q-.054.075-.12.11-.068.035-.164.035-.129 0-.21-.076-.08-.075-.08-.196 0-.147.1-.215.101-.069.317-.069h.157v-.02q0-.064-.05-.093-.05-.03-.155-.03-.086 0-.16.018-.073.017-.137.051v-.203q.086-.02.172-.031.087-.011.173-.011.225 0 .325.089.1.088.1.289zM8.261 55.817h.267v.63l.306-.305h.31l-.407.382.439.451h-.323l-.325-.347v.347H8.26ZM9.566 55.905v.237h.274v.19h-.274v.354q0 .058.023.078.023.02.091.02h.137v.191H9.59q-.158 0-.224-.065-.066-.067-.066-.224v-.354h-.132v-.19h.132v-.237zM10.003 56.142h.267v.833h-.267zm0-.325h.267v.217h-.267zM10.922 56.312q-.088 0-.135.064-.046.063-.046.183t.046.184q.047.063.135.063.087 0 .134-.063.046-.064.046-.184t-.046-.183q-.047-.064-.134-.064zm0-.19q.215 0 .336.116.121.116.121.321 0 .205-.121.322-.12.116-.336.116-.215 0-.337-.116-.122-.117-.122-.322 0-.205.122-.321.122-.116.337-.116zM12.41 56.468v.507h-.267v-.388q0-.108-.005-.15-.005-.04-.017-.06-.015-.026-.042-.04-.027-.015-.061-.015-.084 0-.131.065-.048.064-.048.178v.41h-.266v-.833h.266v.122q.06-.073.128-.108.068-.034.15-.034.144 0 .219.088.075.089.075.258zM13.49 56.556v.076h-.623q.01.094.068.14.058.048.162.048.084 0 .172-.025.088-.025.181-.076v.205q-.094.036-.189.054-.094.019-.189.019-.226 0-.352-.115-.125-.115-.125-.323 0-.204.123-.32.124-.118.34-.118.196 0 .313.119.119.118.119.316zm-.274-.088q0-.076-.045-.123-.044-.046-.115-.046-.078 0-.126.044-.048.043-.06.125zM14.31 56.369q-.034-.017-.07-.024-.034-.008-.069-.008-.102 0-.158.066-.055.065-.055.188v.384h-.267v-.833h.267v.137q.051-.082.117-.12.067-.038.16-.038l.03.002q.015 0 .045.004z" style="font-style:normal;font-variant:normal;font-weight:700;font-stretch:normal;font-size:1.524px;font-family:sans-serif;-inkscape-font-specification:'sans-serif, Bold';font-variant-ligatures:normal;font-variant-caps:normal;font-variant-numeric:normal;font-variant-east-asian:normal;text-align:center;text-anchor:middle;fill:#000;fill-opacity:1"/></g><g aria-label="Dine tanker" style="font-style:normal;font-weight:400;font-size:2.54px;line-height:1.25;font-family:sans-serif;letter-spacing:0;word-spacing:0;white-space:pre;shape-inside:url(#angstspiral_traced_2_svg__c);fill:#000;fill-opacity:1;stroke:none;stroke-width:.48;stroke-linejoin:round;stroke-miterlimit:4;stroke-dasharray:none" transform="matrix(4.16667 0 0 4.16667 115.906 -130.535)"><path d="M4.995 52.906v.677h.102q.176 0 .268-.087.093-.087.093-.253 0-.165-.092-.251t-.269-.086zm-.287-.217h.302q.253 0 .377.036t.213.123q.078.075.116.173.038.098.038.222 0 .126-.038.225-.038.098-.116.174-.09.086-.215.122-.125.036-.375.036h-.302ZM5.961 52.967h.267v.833H5.96Zm0-.325h.267v.217H5.96ZM7.322 53.293v.507h-.268v-.388q0-.108-.005-.15-.005-.04-.017-.06-.015-.026-.042-.04-.027-.015-.061-.015-.084 0-.131.065-.048.064-.048.178v.41h-.266v-.833h.266v.122q.06-.073.128-.108.068-.034.15-.034.144 0 .219.088.075.089.075.258zM8.4 53.381v.076h-.622q.01.094.068.14.058.048.162.048.084 0 .172-.025.088-.025.181-.076v.205q-.094.036-.189.054-.094.019-.189.019-.226 0-.352-.115-.125-.115-.125-.323 0-.204.123-.32.124-.117.34-.117.196 0 .313.118.119.118.119.316zm-.273-.088q0-.076-.045-.123-.044-.046-.115-.046-.078 0-.126.044-.048.043-.06.125zM9.424 52.73v.237h.274v.19h-.274v.354q0 .058.023.078.023.02.091.02h.137v.191h-.228q-.158 0-.224-.065-.066-.067-.066-.224v-.354h-.132v-.19h.132v-.237zM10.235 53.425q-.083 0-.126.028-.041.029-.041.084 0 .05.033.08.034.028.095.028.075 0 .126-.054.051-.054.051-.136v-.03zm.407-.1v.475h-.269v-.123q-.053.075-.12.11t-.163.035q-.13 0-.21-.076-.081-.075-.081-.196 0-.147.1-.215.102-.069.317-.069h.157v-.02q0-.064-.05-.093-.05-.03-.155-.03-.086 0-.16.018-.073.017-.136.051v-.203q.085-.02.172-.031.086-.011.172-.011.226 0 .326.089.1.088.1.289zM11.728 53.293v.507h-.268v-.388q0-.108-.005-.15-.005-.04-.017-.06-.015-.026-.042-.04-.027-.015-.061-.015-.084 0-.131.065-.048.064-.048.178v.41h-.266v-.833h.266v.122q.06-.073.128-.108.068-.034.15-.034.144 0 .219.088.075.089.075.258zM11.975 52.642h.266v.63l.307-.305h.31l-.408.382.44.451h-.324l-.325-.347v.347h-.266zM13.78 53.381v.076h-.624q.01.094.068.14.058.048.162.048.085 0 .172-.025.089-.025.182-.076v.205q-.095.036-.19.054-.094.019-.188.019-.226 0-.352-.115-.125-.115-.125-.323 0-.204.123-.32.123-.117.339-.117.196 0 .314.118t.118.316zm-.275-.088q0-.076-.044-.123-.044-.046-.116-.046-.077 0-.125.044-.049.043-.06.125zM14.6 53.194q-.035-.017-.07-.024-.034-.008-.069-.008-.103 0-.159.066-.055.065-.055.188v.384h-.266v-.833h.266v.137q.052-.082.118-.12.067-.037.16-.037l.029.001q.016 0 .045.005z" style="font-style:normal;font-variant:normal;font-weight:700;font-stretch:normal;font-size:1.524px;font-family:sans-serif;-inkscape-font-specification:'sans-serif, Bold';font-variant-ligatures:normal;font-variant-caps:normal;font-variant-numeric:normal;font-variant-east-asian:normal;fill:#000;fill-opacity:1"/></g><path d="M8.294 27.107a5.884 5.884 0 0 1 0 8.32 5.878 5.878 0 0 1-8.315 0 5.884 5.884 0 0 1 0-8.32 5.878 5.878 0 0 1 8.315 0" style="fill:#f3f3f3;fill-opacity:1;stroke:none;stroke-width:.48;stroke-linejoin:round;stroke-miterlimit:4;stroke-dasharray:none" transform="matrix(4.16667 0 0 4.16667 74.26 28.192)"/><g aria-label="Dine følelser" style="font-style:normal;font-weight:400;font-size:2.54px;line-height:.75;font-family:sans-serif;letter-spacing:0;word-spacing:0;white-space:pre;shape-inside:url(#angstspiral_traced_2_svg__d);fill:#000;fill-opacity:1;stroke:none;stroke-width:.48;stroke-linejoin:round;stroke-miterlimit:4;stroke-dasharray:none" transform="matrix(4.16667 0 0 4.16667 57.206 -64.753)"><path d="M6.69 52.27v.678h.103q.176 0 .268-.087.093-.087.093-.253 0-.165-.092-.251-.093-.086-.27-.086zm-.286-.216h.302q.253 0 .376.036.125.036.213.123.078.075.116.173.038.098.038.222 0 .126-.038.225-.038.098-.116.174-.09.086-.214.122-.125.036-.375.036h-.302ZM7.657 52.332h.266v.833h-.266Zm0-.325h.266v.217h-.266ZM9.017 52.658v.507H8.75v-.388q0-.108-.005-.15-.004-.04-.016-.06-.016-.026-.043-.04-.027-.015-.06-.015-.084 0-.132.065-.047.064-.047.178v.41h-.267v-.833h.267v.122q.06-.073.128-.108.067-.034.15-.034.144 0 .218.088.075.089.075.258zM10.096 52.746v.076h-.623q.01.094.068.14.058.048.162.048.084 0 .172-.025.089-.025.182-.076v.205q-.095.036-.19.054-.094.019-.188.019-.227 0-.352-.115-.125-.115-.125-.323 0-.204.122-.32.124-.117.34-.117.196 0 .314.118t.118.316zm-.274-.088q0-.076-.044-.123-.044-.046-.116-.046-.077 0-.125.044-.049.043-.06.125zM5.653 53.912v.175h-.147q-.057 0-.08.02-.022.021-.022.072v.058h.228v.19h-.228v.643h-.266v-.643h-.133v-.19h.133v-.058q0-.137.076-.201.076-.066.235-.066zM6.276 54.448q-.021-.02-.05-.03-.027-.011-.062-.011-.088 0-.135.064-.046.063-.046.183 0 .03.002.055.003.024.008.044zm-.23.408q.024.023.053.034.03.011.065.011.087 0 .133-.063.046-.064.046-.184 0-.032-.003-.056-.002-.026-.007-.047zm-.24.096q-.05-.058-.076-.132-.025-.074-.025-.166 0-.205.121-.321.122-.116.338-.116.079 0 .145.016.067.016.123.049l.11-.118.08.076-.104.11q.052.06.077.135.026.075.026.17 0 .204-.121.32-.12.117-.336.117-.08 0-.148-.017-.068-.017-.125-.05l-.11.115-.083-.07zM6.814 53.912h.267v1.158h-.267ZM8.169 54.651v.076h-.623q.01.094.068.14.058.048.162.048.084 0 .172-.025.088-.025.181-.076v.205q-.094.036-.189.054-.094.019-.189.019-.226 0-.352-.115-.125-.115-.125-.323 0-.204.123-.32.124-.117.34-.117.196 0 .313.118.119.118.119.316zm-.274-.088q0-.076-.045-.123-.044-.046-.115-.046-.077 0-.126.044-.048.043-.06.125zM8.37 53.912h.267v1.158H8.37ZM9.544 54.263v.202q-.086-.036-.165-.054-.08-.017-.15-.017-.076 0-.114.019-.036.019-.036.058 0 .032.027.05.029.016.1.024l.048.007q.204.026.275.086.07.06.07.186 0 .134-.097.2-.099.068-.294.068-.082 0-.17-.014-.089-.012-.182-.038v-.203q.08.039.163.058.084.02.17.02.079 0 .118-.022.04-.022.04-.064 0-.036-.028-.053-.027-.018-.108-.027l-.047-.006q-.177-.023-.249-.083-.071-.06-.071-.183 0-.133.09-.197.091-.064.279-.064.073 0 .155.012.08.01.176.035zM10.632 54.651v.076h-.623q.01.094.068.14.058.048.162.048.084 0 .172-.025.088-.025.181-.076v.205q-.094.036-.189.054-.094.019-.189.019-.226 0-.352-.115-.125-.115-.125-.323 0-.204.123-.32.124-.117.34-.117.196 0 .314.118t.118.316zm-.274-.088q0-.076-.045-.123-.043-.046-.115-.046-.077 0-.126.044-.048.043-.06.125zM11.453 54.464q-.035-.017-.07-.024-.034-.008-.07-.008-.102 0-.158.066-.055.065-.055.188v.384h-.266v-.833h.266v.137q.051-.082.118-.12.067-.037.16-.037l.029.001q.015 0 .045.005z" style="font-style:normal;font-variant:normal;font-weight:700;font-stretch:normal;font-size:1.524px;font-family:sans-serif;-inkscape-font-specification:'sans-serif, Bold';font-variant-ligatures:normal;font-variant-caps:normal;font-variant-numeric:normal;font-variant-east-asian:normal;text-align:center;text-anchor:middle;fill:#000;fill-opacity:1"/></g><path fill="none" d="M-9.002-6.004h24v24h-24Z" style="stroke-width:.00403225" transform="matrix(4.16667 0 0 4.16667 74.26 25.017)"/></g></svg>