<svg id="angstspiral_med_familie_traced_svg__svg899" width="682.697" height="691.581" version="1.1" viewBox="0 0 180.63 182.981" xmlns="http://www.w3.org/2000/svg"><defs id="angstspiral_med_familie_traced_svg__defs893"><path id="angstspiral_med_familie_traced_svg__rect2320" d="M250.241 221.247h187.026v270.02H250.241z"/><path id="angstspiral_med_familie_traced_svg__rect2422" d="M4.568 51.552h17.481v5.96H4.568z"/><path id="angstspiral_med_familie_traced_svg__rect2416" d="M-1.547 43.806h28.751v12.279H-1.547z"/><path id="angstspiral_med_familie_traced_svg__rect2422-2" d="M4.568 51.552h17.481v5.96H4.568z"/><path id="angstspiral_med_familie_traced_svg__rect2439" d="M4.568 51.552h17.481v5.96H4.568z"/><path id="angstspiral_med_familie_traced_svg__rect2422-2-7" d="M4.568 51.552h10.499v16.06H4.568z"/><path id="angstspiral_med_familie_traced_svg__rect2475" d="M4.568 51.552h17.481v5.96H4.568z"/><path id="angstspiral_med_familie_traced_svg__rect2422-2-7-5" d="M4.568 51.552h17.481v5.96H4.568z"/><path id="angstspiral_med_familie_traced_svg__rect2512" d="M4.568 51.552h17.481v5.96H4.568z"/><path id="angstspiral_med_familie_traced_svg__rect2422-2-7-5-8" d="M4.568 51.552h7.298v6.95H4.568z"/><path id="angstspiral_med_familie_traced_svg__rect2549" d="M4.568 51.552h17.481v5.96H4.568z"/><path id="angstspiral_med_familie_traced_svg__rect2320-3" d="M250.241 221.247h179.597v258.88H250.241z"/><path id="angstspiral_med_familie_traced_svg__rect2320-3-7" d="M250.241 221.247h143.84v269.55h-143.84z"/><path id="angstspiral_med_familie_traced_svg__rect2320-3-7-3" d="M250.241 221.247h235.607v265.561H250.241z"/><style id="style2">.angstspiral_med_familie_traced_svg__a{fill:none;stroke:#000;stroke-linecap:round;stroke-linejoin:round;stroke-width:1.5px}</style></defs><g id="angstspiral_med_familie_traced_svg__layer1" transform="translate(-13.506 -55.69)"><g id="angstspiral_med_familie_traced_svg__g1542" style="stroke-width:.0635" transform="matrix(4.16667 0 0 4.16667 87.766 80.708)"><g id="angstspiral_med_familie_traced_svg__g2665"><path id="angstspiral_med_familie_traced_svg__path2-7" d="M4.326 23.178a5.884 5.884 0 0 1 0 8.32 5.878 5.878 0 0 1-8.315 0 5.884 5.884 0 0 1 0-8.32 5.878 5.878 0 0 1 8.315 0" style="fill:none;stroke:none;stroke-width:.48;stroke-linejoin:round;stroke-miterlimit:4;stroke-dasharray:none"/><g id="angstspiral_med_familie_traced_svg__g2452"><g id="angstspiral_med_familie_traced_svg__g7785"><path id="angstspiral_med_familie_traced_svg__path2-4-6-2-7" d="M-7.785 12.11a5.884 5.884 0 0 1 0 8.32 5.878 5.878 0 0 1-8.315 0 5.884 5.884 0 0 1 0-8.32 5.878 5.878 0 0 1 8.315 0" style="fill:#f3f3f3;fill-opacity:1;stroke:none;stroke-width:.48;stroke-linejoin:round;stroke-miterlimit:4;stroke-dasharray:none"/><path id="angstspiral_med_familie_traced_svg__path2-4-6-2-7-0" d="M23.807 12.11a5.884 5.884 0 0 1 0 8.32 5.878 5.878 0 0 1-8.315 0 5.884 5.884 0 0 1 0-8.32 5.878 5.878 0 0 1 8.315 0" style="fill:#f3f3f3;fill-opacity:1;stroke:none;stroke-width:.48;stroke-linejoin:round;stroke-miterlimit:4;stroke-dasharray:none"/><g id="angstspiral_med_familie_traced_svg__g40" fill="none" stroke="#000" stroke-linecap="round" stroke-linejoin="round" stroke-width=".127" style="stroke-width:.802603;stroke-miterlimit:4;stroke-dasharray:none" transform="scale(.59809 .59802) rotate(45 -19.724 40.009)"><path id="angstspiral_med_familie_traced_svg__path2-6" d="m21.849 19.944-6.539 1.447.441-6.682" style="stroke-width:.802603;stroke-miterlimit:4;stroke-dasharray:none"/><path id="angstspiral_med_familie_traced_svg__path4" d="M15.324 21.327c5.482-4.651 6.351-12.874 1.701-18.356" style="stroke-width:.802603;stroke-miterlimit:4;stroke-dasharray:none"/></g><g id="angstspiral_med_familie_traced_svg__g40-7" fill="none" stroke="#000" stroke-linecap="round" stroke-linejoin="round" stroke-width=".127" style="stroke-width:.802603;stroke-miterlimit:4;stroke-dasharray:none" transform="scale(-.59809 -.59802) rotate(-45 -54.346 -13.907)"><path id="angstspiral_med_familie_traced_svg__path2-6-5" d="m21.849 19.944-6.539 1.447.441-6.682" style="stroke-width:.802603;stroke-miterlimit:4;stroke-dasharray:none"/><path id="angstspiral_med_familie_traced_svg__path4-9" d="M15.324 21.327c5.482-4.651 6.351-12.874 1.701-18.356" style="stroke-width:.802603;stroke-miterlimit:4;stroke-dasharray:none"/></g><g id="angstspiral_med_familie_traced_svg__g40-6" fill="none" stroke="#000" stroke-linecap="round" stroke-linejoin="round" stroke-width=".127" style="stroke-width:.802603;stroke-miterlimit:4;stroke-dasharray:none" transform="scale(.59809 .59802) rotate(-45 17.456 -.368)"><path id="angstspiral_med_familie_traced_svg__path2-6-2" d="m21.849 19.944-6.539 1.447.441-6.682" style="stroke-width:.802603;stroke-miterlimit:4;stroke-dasharray:none"/><path id="angstspiral_med_familie_traced_svg__path4-1" d="M15.324 21.327c5.482-4.651 6.351-12.874 1.701-18.356" style="stroke-width:.802603;stroke-miterlimit:4;stroke-dasharray:none"/></g><g id="angstspiral_med_familie_traced_svg__g40-6-7" fill="none" stroke="#000" stroke-linecap="round" stroke-linejoin="round" stroke-width=".127" style="stroke-width:.802603;stroke-miterlimit:4;stroke-dasharray:none" transform="scale(-.59809 -.59802) rotate(45 40.621 -1.19)"><path id="angstspiral_med_familie_traced_svg__path2-6-2-8" d="m21.849 19.944-6.539 1.447.441-6.682" style="stroke-width:.802603;stroke-miterlimit:4;stroke-dasharray:none"/><path id="angstspiral_med_familie_traced_svg__path4-1-5" d="M15.324 21.327c5.482-4.651 6.351-12.874 1.701-18.356" style="stroke-width:.802603;stroke-miterlimit:4;stroke-dasharray:none"/></g><path id="angstspiral_med_familie_traced_svg__path2-4" d="M8.294 12.11a5.884 5.884 0 0 1 0 8.32 5.878 5.878 0 0 1-8.315 0 5.884 5.884 0 0 1 0-8.32 5.878 5.878 0 0 1 8.315 0" style="fill:#75d29c;fill-opacity:1;stroke:none;stroke-width:.48;stroke-linejoin:round;stroke-miterlimit:4;stroke-dasharray:none"/><path id="angstspiral_med_familie_traced_svg__path2" d="M8.294 12.11a5.884 5.884 0 0 1 0 8.32 5.878 5.878 0 0 1-8.315 0 5.884 5.884 0 0 1 0-8.32 5.878 5.878 0 0 1 8.315 0" style="fill:none;stroke:none;stroke-width:.48;stroke-linejoin:round;stroke-miterlimit:4;stroke-dasharray:none"/><text xml:space="preserve" id="angstspiral_med_familie_traced_svg__text2428" x="7.228" y="40.171" style="font-style:normal;font-weight:400;font-size:2.54px;line-height:1.25;font-family:sans-serif;letter-spacing:0;word-spacing:0;fill:#000;fill-opacity:1;stroke:none;stroke-width:.03048;stroke-linejoin:round;stroke-miterlimit:4;stroke-dasharray:none"/><g id="angstspiral_med_familie_traced_svg__g2252" transform="translate(0 -.762)"><path id="angstspiral_med_familie_traced_svg__path2-4-6" d="M8.294-2.513a5.884 5.884 0 0 1 0 8.32 5.878 5.878 0 0 1-8.315 0 5.884 5.884 0 0 1 0-8.32 5.878 5.878 0 0 1 8.315 0" style="fill:#f3f3f3;fill-opacity:1;stroke:none;stroke-width:.48;stroke-linejoin:round;stroke-miterlimit:4;stroke-dasharray:none"/></g><g id="angstspiral_med_familie_traced_svg__g2269" transform="translate(0 .762)"><path id="angstspiral_med_familie_traced_svg__path2-4-6-2" d="M8.294 27.107a5.884 5.884 0 0 1 0 8.32 5.878 5.878 0 0 1-8.315 0 5.884 5.884 0 0 1 0-8.32 5.878 5.878 0 0 1 8.315 0" style="fill:#f3f3f3;fill-opacity:1;stroke:none;stroke-width:.48;stroke-linejoin:round;stroke-miterlimit:4;stroke-dasharray:none"/></g><path id="angstspiral_med_familie_traced_svg__path26" fill="none" d="M-9.002-6.004h24v24h-24Z" style="stroke-width:.00403225"/><g id="angstspiral_med_familie_traced_svg__text2318" aria-label="Barnets symptomer / sansning" style="font-size:18.6667px;line-height:1.25;letter-spacing:0;word-spacing:0;white-space:pre;shape-inside:url(#angstspiral_med_familie_traced_svg__rect2320)" transform="translate(-15.319 -15.481) scale(.0635)"><path id="angstspiral_med_familie_traced_svg__path6073" d="M261.384 231.61q1.12.354 1.755 1.194.635.822.635 2.035 0 1.717-1.344 2.65-1.326.915-3.883.915h-6.757v-13.066h6.384q2.389 0 3.658.914 1.288.915 1.288 2.483 0 .952-.466 1.699-.448.746-1.27 1.176zm-6.59-3.995v3.08h3.006q1.12 0 1.699-.392t.579-1.157q0-.766-.58-1.139-.578-.392-1.698-.392zm3.529 8.512q1.195 0 1.792-.392.616-.392.616-1.213 0-1.624-2.408-1.624h-3.528v3.23z" style="font-weight:700;font-family:Montserrat;-inkscape-font-specification:'Montserrat Bold'"/><path id="angstspiral_med_familie_traced_svg__path6075" d="M269.915 228.212q2.333 0 3.584 1.12 1.25 1.102 1.25 3.342v5.73h-2.725v-1.25q-.821 1.4-3.061 1.4-1.157 0-2.016-.392-.84-.392-1.288-1.083-.448-.69-.448-1.568 0-1.4 1.045-2.203 1.064-.802 3.267-.802h2.315q0-.952-.58-1.456-.578-.523-1.735-.523-.803 0-1.587.261-.765.243-1.306.672l-1.046-2.034q.822-.579 1.96-.896 1.158-.318 2.37-.318zm-.224 8.382q.747 0 1.325-.336.579-.355.822-1.027v-1.027h-1.998q-1.792 0-1.792 1.176 0 .56.43.896.448.318 1.213.318z" style="font-weight:700;font-family:Montserrat;-inkscape-font-specification:'Montserrat Bold'"/><path id="angstspiral_med_familie_traced_svg__path6077" d="M280.163 229.687q.523-.728 1.4-1.101.896-.374 2.053-.374v2.688q-.485-.037-.653-.037-1.25 0-1.96.71-.71.69-.71 2.09v4.742h-2.911v-10.043h2.78z" style="font-weight:700;font-family:Montserrat;-inkscape-font-specification:'Montserrat Bold'"/><path id="angstspiral_med_familie_traced_svg__path6079" d="M291.456 228.212q1.867 0 3.006 1.12 1.157 1.12 1.157 3.323v5.75h-2.912v-5.302q0-1.195-.523-1.773-.522-.598-1.512-.598-1.101 0-1.754.691-.654.672-.654 2.016v4.965h-2.912v-10.042h2.782v1.176q.578-.635 1.437-.97.859-.356 1.885-.356z" style="font-weight:700;font-family:Montserrat;-inkscape-font-specification:'Montserrat Bold'"/><path id="angstspiral_med_familie_traced_svg__path6081" d="M308.2 233.42q0 .056-.056.784h-7.597q.205.934.97 1.475.766.541 1.905.541.784 0 1.38-.224.617-.242 1.14-.746l1.549 1.68q-1.419 1.624-4.144 1.624-1.699 0-3.005-.654-1.307-.672-2.016-1.848-.71-1.176-.71-2.669 0-1.475.69-2.65.71-1.195 1.924-1.849 1.232-.672 2.744-.672 1.474 0 2.669.635t1.867 1.83q.69 1.175.69 2.743zm-5.208-3.005q-.99 0-1.661.56-.672.56-.821 1.53h4.946q-.15-.951-.821-1.511-.672-.579-1.643-.579z" style="font-weight:700;font-family:Montserrat;-inkscape-font-specification:'Montserrat Bold'"/><path id="angstspiral_med_familie_traced_svg__path6083" d="M316.619 237.92q-.43.316-1.064.484-.616.15-1.307.15-1.792 0-2.781-.915-.97-.915-.97-2.688v-4.125h-1.55v-2.24h1.55v-2.446h2.911v2.446h2.502v2.24h-2.502v4.088q0 .634.318.99.336.335.933.335.69 0 1.176-.373z" style="font-weight:700;font-family:Montserrat;-inkscape-font-specification:'Montserrat Bold'"/><path id="angstspiral_med_familie_traced_svg__path6085" d="M321.64 238.554q-1.25 0-2.445-.299-1.195-.317-1.904-.784l.97-2.09q.673.429 1.625.709.952.261 1.866.261 1.848 0 1.848-.915 0-.429-.504-.616-.504-.186-1.55-.317-1.231-.187-2.034-.43-.802-.242-1.4-.858-.578-.616-.578-1.755 0-.952.54-1.68.56-.746 1.606-1.157 1.064-.41 2.502-.41 1.064 0 2.109.242 1.064.224 1.755.635l-.971 2.072q-1.325-.747-2.893-.747-.934 0-1.4.261-.467.262-.467.672 0 .467.504.654.504.186 1.605.354 1.232.206 2.016.448.784.224 1.363.84t.579 1.718q0 .933-.56 1.661t-1.643 1.139q-1.064.392-2.539.392z" style="font-weight:700;font-family:Montserrat;-inkscape-font-specification:'Montserrat Bold'"/><path id="angstspiral_med_familie_traced_svg__path6087" d="M254.963 262.528q-1.25 0-2.445-.299-1.195-.317-1.904-.784l.97-2.09q.672.429 1.624.709.952.261 1.867.261 1.848 0 1.848-.914 0-.43-.504-.616-.504-.187-1.55-.318-1.231-.186-2.034-.429-.803-.243-1.4-.859-.579-.616-.579-1.754 0-.952.542-1.68.56-.747 1.605-1.158 1.064-.41 2.501-.41 1.064 0 2.11.242 1.064.224 1.754.635l-.97 2.072q-1.326-.747-2.894-.747-.933 0-1.4.262-.466.261-.466.672 0 .466.504.653t1.605.355q1.232.205 2.016.448.784.224 1.363.84.578.616.578 1.717 0 .933-.56 1.661t-1.642 1.139q-1.064.392-2.54.392z" style="font-weight:700;font-family:Montserrat;-inkscape-font-specification:'Montserrat Bold'"/><path id="angstspiral_med_familie_traced_svg__path6089" d="m271.278 252.336-4.536 10.659q-.691 1.736-1.718 2.445-1.008.71-2.445.71-.784 0-1.55-.243-.765-.243-1.25-.672l1.064-2.072q.336.298.765.466.448.168.878.168.597 0 .97-.298.374-.28.672-.952l.038-.094-4.35-10.117h3.006l2.818 6.813 2.838-6.813z" style="font-weight:700;font-family:Montserrat;-inkscape-font-specification:'Montserrat Bold'"/><path id="angstspiral_med_familie_traced_svg__path6091" d="M285.334 252.187q1.885 0 2.986 1.12 1.12 1.101 1.12 3.322v5.75h-2.912v-5.302q0-1.194-.504-1.773-.485-.597-1.4-.597-1.026 0-1.624.672-.597.653-.597 1.96v5.04h-2.912v-5.302q0-2.37-1.904-2.37-1.008 0-1.605.672-.598.653-.598 1.96v5.04h-2.912v-10.043h2.782v1.157q.56-.634 1.362-.97.822-.336 1.792-.336 1.064 0 1.923.429.859.41 1.381 1.213.616-.784 1.55-1.213.952-.43 2.072-.43z" style="font-weight:700;font-family:Montserrat;-inkscape-font-specification:'Montserrat Bold'"/><path id="angstspiral_med_familie_traced_svg__path6093" d="M297.99 252.187q1.4 0 2.538.653 1.158.635 1.81 1.81.654 1.158.654 2.707 0 1.55-.653 2.726-.653 1.157-1.81 1.81-1.14.635-2.54.635-1.922 0-3.023-1.213V266h-2.912v-13.664h2.78v1.157q1.084-1.306 3.156-1.306zm-.504 7.952q1.12 0 1.829-.747.728-.765.728-2.035 0-1.269-.728-2.016-.71-.765-1.83-.765t-1.847.765q-.71.747-.71 2.016 0 1.27.71 2.035.728.747 1.848.747z" style="font-weight:700;font-family:Montserrat;-inkscape-font-specification:'Montserrat Bold'"/><path id="angstspiral_med_familie_traced_svg__path6095" d="M311.41 261.893q-.428.318-1.063.486-.616.149-1.307.149-1.792 0-2.781-.915-.97-.914-.97-2.688V254.8h-1.55v-2.24h1.55v-2.445h2.911v2.445h2.502v2.24H308.2v4.088q0 .635.318.99.336.335.933.335.69 0 1.176-.373z" style="font-weight:700;font-family:Montserrat;-inkscape-font-specification:'Montserrat Bold'"/><path id="angstspiral_med_familie_traced_svg__path6097" d="M317.515 262.528q-1.587 0-2.856-.653-1.25-.672-1.96-1.848-.71-1.176-.71-2.67 0-1.493.71-2.669t1.96-1.83q1.27-.671 2.856-.671 1.587 0 2.837.672 1.25.653 1.96 1.829t.71 2.67q0 1.493-.71 2.669t-1.96 1.848q-1.25.653-2.837.653zm0-2.39q1.12 0 1.83-.746.727-.765.727-2.035 0-1.269-.728-2.016-.71-.765-1.83-.765t-1.847.765q-.728.747-.728 2.016 0 1.27.728 2.035.728.747 1.848.747z" style="font-weight:700;font-family:Montserrat;-inkscape-font-specification:'Montserrat Bold'"/><path id="angstspiral_med_familie_traced_svg__path6099" d="M337.824 252.187q1.886 0 2.987 1.12 1.12 1.101 1.12 3.322v5.75h-2.912v-5.302q0-1.194-.504-1.773-.485-.597-1.4-.597-1.027 0-1.624.672-.597.653-.597 1.96v5.04h-2.912v-5.302q0-2.37-1.904-2.37-1.008 0-1.606.672-.597.653-.597 1.96v5.04h-2.912v-10.043h2.781v1.157q.56-.634 1.363-.97.821-.336 1.792-.336 1.064 0 1.923.429.858.41 1.38 1.213.617-.784 1.55-1.213.952-.43 2.072-.43z" style="font-weight:700;font-family:Montserrat;-inkscape-font-specification:'Montserrat Bold'"/><path id="angstspiral_med_familie_traced_svg__path6101" d="M354.494 257.395q0 .056-.056.784h-7.598q.206.933.97 1.474.766.542 1.905.542.784 0 1.381-.224.616-.243 1.139-.747l1.55 1.68q-1.42 1.624-4.145 1.624-1.698 0-3.005-.653-1.307-.672-2.016-1.848-.71-1.176-.71-2.67 0-1.474.691-2.65.71-1.195 1.923-1.848 1.232-.672 2.744-.672 1.475 0 2.67.634 1.194.635 1.866 1.83.69 1.176.69 2.744zm-5.208-3.006q-.99 0-1.662.56-.672.56-.821 1.531h4.947q-.15-.952-.822-1.512-.672-.579-1.642-.579z" style="font-weight:700;font-family:Montserrat;-inkscape-font-specification:'Montserrat Bold'"/><path id="angstspiral_med_familie_traced_svg__path6103" d="M359.216 253.661q.523-.728 1.4-1.101.896-.373 2.054-.373v2.688q-.486-.038-.654-.038-1.25 0-1.96.71-.71.69-.71 2.09v4.742h-2.911v-10.043h2.781z" style="font-weight:700;font-family:Montserrat;-inkscape-font-specification:'Montserrat Bold'"/><path id="angstspiral_med_familie_traced_svg__path6105" d="M255.784 270.635h2.595l-6.16 17.584h-2.595z" style="font-weight:700;font-family:Montserrat;-inkscape-font-specification:'Montserrat Bold'"/><path id="angstspiral_med_familie_traced_svg__path6107" d="M267.563 286.502q-1.25 0-2.445-.299-1.195-.317-1.904-.784l.97-2.09q.672.43 1.624.71.952.26 1.867.26 1.848 0 1.848-.914 0-.43-.504-.616-.504-.187-1.55-.318-1.231-.186-2.034-.429-.803-.243-1.4-.859-.579-.616-.579-1.754 0-.952.542-1.68.56-.747 1.605-1.158 1.064-.41 2.501-.41 1.064 0 2.11.242 1.064.224 1.754.635l-.97 2.072q-1.326-.747-2.894-.747-.933 0-1.4.262-.466.261-.466.672 0 .466.504.653t1.605.355q1.232.205 2.016.448.784.224 1.363.84.578.616.578 1.717 0 .933-.56 1.661t-1.642 1.14q-1.064.391-2.54.391z" style="font-weight:700;font-family:Montserrat;-inkscape-font-specification:'Montserrat Bold'"/><path id="angstspiral_med_familie_traced_svg__path6109" d="M278.147 276.16q2.333 0 3.584 1.12 1.25 1.102 1.25 3.342v5.73h-2.725v-1.25q-.821 1.4-3.061 1.4-1.157 0-2.016-.392-.84-.392-1.288-1.083-.448-.69-.448-1.568 0-1.4 1.045-2.202 1.064-.803 3.267-.803h2.315q0-.952-.58-1.456-.578-.523-1.735-.523-.803 0-1.587.262-.765.242-1.306.672l-1.046-2.035q.822-.579 1.96-.896 1.158-.317 2.37-.317zm-.224 8.382q.747 0 1.325-.336.579-.355.822-1.027v-1.026h-1.998q-1.792 0-1.792 1.176 0 .56.43.896.448.317 1.213.317z" style="font-weight:700;font-family:Montserrat;-inkscape-font-specification:'Montserrat Bold'"/><path id="angstspiral_med_familie_traced_svg__path6111" d="M291.718 276.16q1.866 0 3.005 1.12 1.157 1.12 1.157 3.323v5.75h-2.912v-5.302q0-1.194-.522-1.773-.523-.597-1.512-.597-1.102 0-1.755.69-.653.672-.653 2.016v4.966h-2.912V276.31h2.78v1.176q.58-.635 1.438-.97.859-.355 1.886-.355z" style="font-weight:700;font-family:Montserrat;-inkscape-font-specification:'Montserrat Bold'"/><path id="angstspiral_med_familie_traced_svg__path6113" d="M301.89 286.502q-1.25 0-2.444-.299-1.195-.317-1.904-.784l.97-2.09q.672.43 1.624.71.952.26 1.867.26 1.848 0 1.848-.914 0-.43-.504-.616-.504-.187-1.55-.318-1.231-.186-2.034-.429-.803-.243-1.4-.859-.579-.616-.579-1.754 0-.952.542-1.68.56-.747 1.605-1.158 1.064-.41 2.501-.41 1.064 0 2.11.242 1.064.224 1.754.635l-.97 2.072q-1.326-.747-2.894-.747-.933 0-1.4.262-.466.261-.466.672 0 .466.504.653t1.605.355q1.232.205 2.016.448.784.224 1.363.84.578.616.578 1.717 0 .933-.56 1.661t-1.642 1.14q-1.064.391-2.54.391z" style="font-weight:700;font-family:Montserrat;-inkscape-font-specification:'Montserrat Bold'"/><path id="angstspiral_med_familie_traced_svg__path6115" d="M314.528 276.16q1.867 0 3.006 1.12 1.157 1.12 1.157 3.323v5.75h-2.912v-5.302q0-1.194-.523-1.773-.522-.597-1.512-.597-1.101 0-1.754.69-.654.672-.654 2.016v4.966h-2.912V276.31h2.782v1.176q.578-.635 1.437-.97.859-.355 1.885-.355z" style="font-weight:700;font-family:Montserrat;-inkscape-font-specification:'Montserrat Bold'"/><path id="angstspiral_med_familie_traced_svg__path6117" d="M321.323 276.31h2.912v10.043h-2.912zm1.456-1.4q-.803 0-1.307-.467-.504-.466-.504-1.157 0-.69.504-1.157.504-.467 1.307-.467.803 0 1.307.448.504.448.504 1.12 0 .728-.504 1.213-.504.467-1.307.467z" style="font-weight:700;font-family:Montserrat;-inkscape-font-specification:'Montserrat Bold'"/><path id="angstspiral_med_familie_traced_svg__path6119" d="M333.046 276.16q1.866 0 3.005 1.12 1.157 1.12 1.157 3.323v5.75h-2.912v-5.302q0-1.194-.522-1.773-.523-.597-1.512-.597-1.102 0-1.755.69-.653.672-.653 2.016v4.966h-2.912V276.31h2.78v1.176q.58-.635 1.438-.97.859-.355 1.886-.355z" style="font-weight:700;font-family:Montserrat;-inkscape-font-specification:'Montserrat Bold'"/><path id="angstspiral_med_familie_traced_svg__path6121" d="M350.312 276.31v8.363q0 2.762-1.437 4.106-1.437 1.345-4.2 1.345-1.456 0-2.763-.355-1.306-.355-2.165-1.027l1.157-2.09q.635.522 1.606.82.97.318 1.94.318 1.513 0 2.222-.69.728-.673.728-2.054v-.43q-1.138 1.251-3.173 1.251-1.381 0-2.539-.597-1.138-.616-1.81-1.717-.672-1.102-.672-2.539t.672-2.539q.672-1.1 1.81-1.698 1.158-.616 2.539-.616 2.184 0 3.323 1.437v-1.288zm-5.506 7.168q1.157 0 1.885-.672.747-.69.747-1.792 0-1.101-.747-1.773-.728-.69-1.885-.69-1.158 0-1.904.69-.747.672-.747 1.773t.747 1.792q.746.672 1.904.672z" style="font-weight:700;font-family:Montserrat;-inkscape-font-specification:'Montserrat Bold'"/></g><g id="angstspiral_med_familie_traced_svg__text2318-6" aria-label="Forælderens tanker / fortolkning" style="font-size:18.6667px;line-height:1.25;letter-spacing:0;word-spacing:0;white-space:pre;shape-inside:url(#angstspiral_med_familie_traced_svg__rect2320-3)" transform="translate(-.133 -.07) scale(.0635)"><path id="angstspiral_med_familie_traced_svg__path7466" d="M254.814 227.764v3.454h6.048v2.426h-6.048v4.76h-3.024v-13.066h9.874v2.426z" style="font-weight:700;font-family:Montserrat;-inkscape-font-specification:'Montserrat Bold'"/><path id="angstspiral_med_familie_traced_svg__path7468" d="M268.03 238.554q-1.587 0-2.856-.654-1.251-.672-1.96-1.848-.71-1.176-.71-2.669t.71-2.67q.709-1.175 1.96-1.829 1.269-.672 2.856-.672 1.586 0 2.837.672 1.25.654 1.96 1.83.71 1.176.71 2.67 0 1.492-.71 2.668-.71 1.176-1.96 1.848-1.25.654-2.837.654zm0-2.39q1.12 0 1.829-.746.728-.766.728-2.035 0-1.27-.728-2.016-.71-.765-1.83-.765t-1.847.765q-.728.747-.728 2.016 0 1.27.728 2.035.728.746 1.848.746z" style="font-weight:700;font-family:Montserrat;-inkscape-font-specification:'Montserrat Bold'"/><path id="angstspiral_med_familie_traced_svg__path7470" d="M278.259 229.687q.523-.728 1.4-1.101.896-.374 2.053-.374v2.688q-.485-.037-.653-.037-1.25 0-1.96.71-.71.69-.71 2.09v4.742h-2.911v-10.043h2.78z" style="font-weight:700;font-family:Montserrat;-inkscape-font-specification:'Montserrat Bold'"/><path id="angstspiral_med_familie_traced_svg__path7472" d="M300.024 233.346q0 .466-.056.84h-7.616q.206.952.952 1.493.747.541 1.904.541 1.456 0 2.539-.97l1.55 1.68q-.729.802-1.793 1.213-1.045.41-2.352.41-1.325 0-2.445-.429-1.12-.429-1.904-1.306-1.157 1.736-3.845 1.736-1.96 0-3.1-.859-1.12-.859-1.12-2.296 0-1.307 1.065-2.11 1.064-.802 3.248-.802h2.315q0-.933-.58-1.437-.578-.523-1.716-.523-.803 0-1.587.261-.784.243-1.325.672l-1.046-2.034q.822-.579 1.96-.896 1.139-.318 2.352-.318 2.539 0 3.696 1.42.69-.673 1.643-1.046.952-.374 2.053-.374 1.438 0 2.632.635 1.195.635 1.886 1.81.69 1.177.69 2.689zm-5.245-2.93q-.915 0-1.605.54-.691.542-.86 1.531h4.892q-.15-.99-.84-1.53-.672-.542-1.587-.542zm-7.523 6.178q.99 0 1.55-.523t.56-1.419v-.466h-1.998q-1.792 0-1.792 1.157 0 .597.43.933.448.318 1.25.318z" style="font-weight:700;font-family:Montserrat;-inkscape-font-specification:'Montserrat Bold'"/><path id="angstspiral_med_familie_traced_svg__path7474" d="M301.984 224.554h2.912v13.85h-2.912z" style="font-weight:700;font-family:Montserrat;-inkscape-font-specification:'Montserrat Bold'"/><path id="angstspiral_med_familie_traced_svg__path7476" d="M317.832 224.554v13.85h-2.781v-1.157q-1.083 1.307-3.136 1.307-1.419 0-2.576-.635-1.139-.635-1.792-1.81-.653-1.177-.653-2.726 0-1.55.653-2.725.653-1.176 1.792-1.81 1.157-.636 2.576-.636 1.923 0 3.005 1.214v-4.872zm-5.413 11.61q1.101 0 1.83-.746.727-.766.727-2.035 0-1.27-.728-2.016-.728-.765-1.83-.765-1.12 0-1.847.765-.728.747-.728 2.016 0 1.27.728 2.035.728.746 1.848.746z" style="font-weight:700;font-family:Montserrat;-inkscape-font-specification:'Montserrat Bold'"/><path id="angstspiral_med_familie_traced_svg__path7478" d="M330.358 233.42q0 .056-.056.784h-7.598q.206.934.97 1.475.766.541 1.905.541.784 0 1.381-.224.616-.242 1.139-.746l1.55 1.68q-1.42 1.624-4.145 1.624-1.698 0-3.005-.654-1.307-.672-2.016-1.848-.71-1.176-.71-2.669 0-1.475.691-2.65.71-1.195 1.923-1.849 1.232-.672 2.744-.672 1.475 0 2.67.635 1.194.635 1.866 1.83.69 1.175.69 2.743zm-5.208-3.005q-.99 0-1.662.56-.672.56-.821 1.53h4.947q-.15-.951-.822-1.511-.672-.579-1.642-.579z" style="font-weight:700;font-family:Montserrat;-inkscape-font-specification:'Montserrat Bold'"/><path id="angstspiral_med_familie_traced_svg__path7480" d="M335.08 229.687q.523-.728 1.4-1.101.896-.374 2.054-.374v2.688q-.486-.037-.654-.037-1.25 0-1.96.71-.71.69-.71 2.09v4.742H332.3v-10.043h2.781z" style="font-weight:700;font-family:Montserrat;-inkscape-font-specification:'Montserrat Bold'"/><path id="angstspiral_med_familie_traced_svg__path7482" d="M350.014 233.42q0 .056-.056.784h-7.598q.206.934.97 1.475.766.541 1.905.541.784 0 1.381-.224.616-.242 1.139-.746l1.55 1.68q-1.42 1.624-4.145 1.624-1.698 0-3.005-.654-1.307-.672-2.016-1.848-.71-1.176-.71-2.669 0-1.475.691-2.65.71-1.195 1.923-1.849 1.232-.672 2.744-.672 1.475 0 2.67.635 1.194.635 1.866 1.83.69 1.175.69 2.743zm-5.208-3.005q-.99 0-1.662.56-.672.56-.821 1.53h4.947q-.15-.951-.822-1.511-.672-.579-1.642-.579z" style="font-weight:700;font-family:Montserrat;-inkscape-font-specification:'Montserrat Bold'"/><path id="angstspiral_med_familie_traced_svg__path7484" d="M358.059 228.212q1.867 0 3.005 1.12 1.158 1.12 1.158 3.323v5.75h-2.912v-5.302q0-1.195-.523-1.773-.523-.598-1.512-.598-1.101 0-1.755.691-.653.672-.653 2.016v4.965h-2.912v-10.042h2.781v1.176q.579-.635 1.438-.97.858-.356 1.885-.356z" style="font-weight:700;font-family:Montserrat;-inkscape-font-specification:'Montserrat Bold'"/><path id="angstspiral_med_familie_traced_svg__path7486" d="M368.232 238.554q-1.25 0-2.445-.299-1.195-.317-1.904-.784l.97-2.09q.673.429 1.625.709.952.261 1.866.261 1.848 0 1.848-.915 0-.429-.504-.616-.504-.186-1.55-.317-1.231-.187-2.034-.43-.802-.242-1.4-.858-.578-.616-.578-1.755 0-.952.54-1.68.56-.746 1.606-1.157 1.064-.41 2.502-.41 1.064 0 2.109.242 1.064.224 1.755.635l-.971 2.072q-1.325-.747-2.893-.747-.934 0-1.4.261-.467.262-.467.672 0 .467.504.654.504.186 1.605.354 1.232.206 2.016.448.784.224 1.363.84t.579 1.718q0 .933-.56 1.661t-1.643 1.139q-1.064.392-2.539.392z" style="font-weight:700;font-family:Montserrat;-inkscape-font-specification:'Montserrat Bold'"/><path id="angstspiral_med_familie_traced_svg__path7488" d="M258.062 261.893q-.43.318-1.064.486-.616.149-1.307.149-1.792 0-2.781-.915-.971-.914-.971-2.688V254.8h-1.55v-2.24h1.55v-2.445h2.912v2.445h2.501v2.24h-2.501v4.088q0 .635.317.99.336.335.934.335.69 0 1.176-.373z" style="font-weight:700;font-family:Montserrat;-inkscape-font-specification:'Montserrat Bold'"/><path id="angstspiral_med_familie_traced_svg__path7490" d="M263.755 252.187q2.333 0 3.584 1.12 1.25 1.101 1.25 3.341v5.73h-2.725v-1.25q-.821 1.4-3.061 1.4-1.157 0-2.016-.392-.84-.392-1.288-1.083-.448-.69-.448-1.568 0-1.4 1.045-2.202 1.064-.803 3.267-.803h2.315q0-.952-.58-1.456-.578-.523-1.735-.523-.803 0-1.587.262-.765.242-1.306.672l-1.046-2.035q.822-.579 1.96-.896 1.158-.317 2.37-.317zm-.224 8.381q.747 0 1.325-.336.579-.355.822-1.027v-1.026h-1.998q-1.792 0-1.792 1.176 0 .56.43.896.448.317 1.213.317z" style="font-weight:700;font-family:Montserrat;-inkscape-font-specification:'Montserrat Bold'"/><path id="angstspiral_med_familie_traced_svg__path7492" d="M277.326 252.187q1.866 0 3.005 1.12 1.157 1.12 1.157 3.322v5.75h-2.912v-5.302q0-1.194-.522-1.773-.523-.597-1.512-.597-1.102 0-1.755.69-.653.672-.653 2.016v4.966h-2.912v-10.043h2.78v1.176q.58-.635 1.438-.97.859-.355 1.886-.355z" style="font-weight:700;font-family:Montserrat;-inkscape-font-specification:'Montserrat Bold'"/><path id="angstspiral_med_familie_traced_svg__path7494" d="m288.432 258.44-1.4 1.381v2.558h-2.912v-13.851h2.912v7.84l4.256-4.032h3.472l-4.181 4.256 4.555 5.787h-3.528z" style="font-weight:700;font-family:Montserrat;-inkscape-font-specification:'Montserrat Bold'"/><path id="angstspiral_med_familie_traced_svg__path7496" d="M305.848 257.395q0 .056-.056.784h-7.597q.205.933.97 1.474.766.542 1.905.542.784 0 1.381-.224.616-.243 1.139-.747l1.549 1.68q-1.419 1.624-4.144 1.624-1.699 0-3.005-.653-1.307-.672-2.016-1.848-.71-1.176-.71-2.67 0-1.474.69-2.65.71-1.195 1.924-1.848 1.232-.672 2.744-.672 1.474 0 2.669.634 1.195.635 1.867 1.83.69 1.176.69 2.744zm-5.208-3.006q-.99 0-1.661.56-.672.56-.821 1.531h4.946q-.15-.952-.821-1.512-.672-.579-1.643-.579z" style="font-weight:700;font-family:Montserrat;-inkscape-font-specification:'Montserrat Bold'"/><path id="angstspiral_med_familie_traced_svg__path7498" d="M310.57 253.661q.524-.728 1.4-1.101.897-.373 2.054-.373v2.688q-.485-.038-.653-.038-1.25 0-1.96.71-.71.69-.71 2.09v4.742h-2.911v-10.043h2.78z" style="font-weight:700;font-family:Montserrat;-inkscape-font-specification:'Montserrat Bold'"/><path id="angstspiral_med_familie_traced_svg__path7500" d="M255.784 270.635h2.595l-6.16 17.584h-2.595z" style="font-weight:700;font-family:Montserrat;-inkscape-font-specification:'Montserrat Bold'"/><path id="angstspiral_med_familie_traced_svg__path7502" d="M267.376 276.534h2.576v2.24h-2.501v7.579h-2.912v-7.579h-1.55v-2.24h1.55v-.448q0-1.717 1.008-2.725 1.027-1.008 2.875-1.008.653 0 1.232.15.597.13.989.391l-.765 2.11q-.504-.355-1.176-.355-1.326 0-1.326 1.456z" style="font-weight:700;font-family:Montserrat;-inkscape-font-specification:'Montserrat Bold'"/><path id="angstspiral_med_familie_traced_svg__path7504" d="M276.056 286.502q-1.586 0-2.856-.653-1.25-.672-1.96-1.848-.71-1.176-.71-2.67 0-1.493.71-2.669t1.96-1.83q1.27-.671 2.856-.671 1.587 0 2.838.672 1.25.653 1.96 1.83.709 1.175.709 2.668 0 1.494-.71 2.67-.709 1.176-1.96 1.848-1.25.653-2.837.653zm0-2.39q1.12 0 1.83-.746.728-.765.728-2.035 0-1.269-.728-2.016-.71-.765-1.83-.765t-1.848.765q-.728.747-.728 2.016 0 1.27.728 2.035.728.747 1.848.747z" style="font-weight:700;font-family:Montserrat;-inkscape-font-specification:'Montserrat Bold'"/><path id="angstspiral_med_familie_traced_svg__path7506" d="M286.286 277.635q.522-.728 1.4-1.1.896-.374 2.053-.374v2.688q-.485-.037-.653-.037-1.251 0-1.96.709-.71.69-.71 2.09v4.742h-2.912V276.31h2.782z" style="font-weight:700;font-family:Montserrat;-inkscape-font-specification:'Montserrat Bold'"/><path id="angstspiral_med_familie_traced_svg__path7508" d="M298.307 285.867q-.43.318-1.064.486-.616.15-1.307.15-1.792 0-2.781-.916-.97-.914-.97-2.688v-4.125h-1.55v-2.24h1.55v-2.445h2.911v2.445h2.502v2.24h-2.502v4.088q0 .635.318.99.336.335.933.335.69 0 1.176-.373z" style="font-weight:700;font-family:Montserrat;-inkscape-font-specification:'Montserrat Bold'"/><path id="angstspiral_med_familie_traced_svg__path7510" d="M304.41 286.502q-1.586 0-2.855-.653-1.25-.672-1.96-1.848-.71-1.176-.71-2.67 0-1.493.71-2.669t1.96-1.83q1.27-.671 2.856-.671 1.587 0 2.837.672 1.25.653 1.96 1.83.71 1.175.71 2.668 0 1.494-.71 2.67t-1.96 1.848q-1.25.653-2.837.653zm0-2.39q1.12 0 1.83-.746.728-.765.728-2.035 0-1.269-.728-2.016-.71-.765-1.83-.765t-1.847.765q-.728.747-.728 2.016 0 1.27.728 2.035.728.747 1.848.747z" style="font-weight:700;font-family:Montserrat;-inkscape-font-specification:'Montserrat Bold'"/><path id="angstspiral_med_familie_traced_svg__path7512" d="M311.859 272.502h2.912v13.85h-2.912z" style="font-weight:700;font-family:Montserrat;-inkscape-font-specification:'Montserrat Bold'"/><path id="angstspiral_med_familie_traced_svg__path7514" d="m321.79 282.414-1.4 1.381v2.558h-2.913v-13.85h2.912v7.84l4.257-4.033h3.472l-4.182 4.256 4.555 5.787h-3.528z" style="font-weight:700;font-family:Montserrat;-inkscape-font-specification:'Montserrat Bold'"/><path id="angstspiral_med_familie_traced_svg__path7516" d="M335.827 276.16q1.866 0 3.005 1.12 1.157 1.12 1.157 3.323v5.75h-2.912v-5.302q0-1.194-.522-1.773-.523-.597-1.512-.597-1.102 0-1.755.69-.653.672-.653 2.016v4.966h-2.912V276.31h2.781v1.176q.579-.635 1.437-.97.86-.355 1.886-.355z" style="font-weight:700;font-family:Montserrat;-inkscape-font-specification:'Montserrat Bold'"/><path id="angstspiral_med_familie_traced_svg__path7518" d="M342.622 276.31h2.912v10.043h-2.912zm1.456-1.4q-.803 0-1.307-.467-.504-.466-.504-1.157 0-.69.504-1.157.504-.467 1.307-.467.802 0 1.306.448t.504 1.12q0 .728-.504 1.213-.504.467-1.306.467z" style="font-weight:700;font-family:Montserrat;-inkscape-font-specification:'Montserrat Bold'"/><path id="angstspiral_med_familie_traced_svg__path7520" d="M354.344 276.16q1.867 0 3.005 1.12 1.158 1.12 1.158 3.323v5.75h-2.912v-5.302q0-1.194-.523-1.773-.523-.597-1.512-.597-1.101 0-1.755.69-.653.672-.653 2.016v4.966h-2.912V276.31h2.781v1.176q.58-.635 1.438-.97.858-.355 1.885-.355z" style="font-weight:700;font-family:Montserrat;-inkscape-font-specification:'Montserrat Bold'"/><path id="angstspiral_med_familie_traced_svg__path7522" d="M371.61 276.31v8.363q0 2.762-1.437 4.106-1.437 1.345-4.2 1.345-1.456 0-2.762-.355-1.307-.355-2.166-1.027l1.158-2.09q.634.522 1.605.82.97.318 1.941.318 1.512 0 2.222-.69.728-.673.728-2.054v-.43q-1.139 1.251-3.174 1.251-1.38 0-2.538-.597-1.139-.616-1.81-1.717-.673-1.102-.673-2.539t.672-2.539q.672-1.1 1.81-1.698 1.158-.616 2.54-.616 2.183 0 3.322 1.437v-1.288zm-5.506 7.168q1.157 0 1.885-.672.747-.69.747-1.792 0-1.101-.747-1.773-.728-.69-1.885-.69t-1.904.69q-.747.672-.747 1.773t.747 1.792q.747.672 1.904.672z" style="font-weight:700;font-family:Montserrat;-inkscape-font-specification:'Montserrat Bold'"/></g><g id="angstspiral_med_familie_traced_svg__text2318-6-5" aria-label="Barnets tanker / fortolkning" style="font-size:18.6667px;line-height:1.25;letter-spacing:0;word-spacing:0;white-space:pre;shape-inside:url(#angstspiral_med_familie_traced_svg__rect2320-3-7)" transform="translate(-31.667 -.096) scale(.0635)"><path id="angstspiral_med_familie_traced_svg__path7586" d="M261.384 231.61q1.12.354 1.755 1.194.635.822.635 2.035 0 1.717-1.344 2.65-1.326.915-3.883.915h-6.757v-13.066h6.384q2.389 0 3.658.914 1.288.915 1.288 2.483 0 .952-.466 1.699-.448.746-1.27 1.176zm-6.59-3.995v3.08h3.006q1.12 0 1.699-.392t.579-1.157q0-.766-.58-1.139-.578-.392-1.698-.392zm3.529 8.512q1.195 0 1.792-.392.616-.392.616-1.213 0-1.624-2.408-1.624h-3.528v3.23z" style="font-weight:700;font-family:Montserrat;-inkscape-font-specification:'Montserrat Bold'"/><path id="angstspiral_med_familie_traced_svg__path7588" d="M269.915 228.212q2.333 0 3.584 1.12 1.25 1.102 1.25 3.342v5.73h-2.725v-1.25q-.821 1.4-3.061 1.4-1.157 0-2.016-.392-.84-.392-1.288-1.083-.448-.69-.448-1.568 0-1.4 1.045-2.203 1.064-.802 3.267-.802h2.315q0-.952-.58-1.456-.578-.523-1.735-.523-.803 0-1.587.261-.765.243-1.306.672l-1.046-2.034q.822-.579 1.96-.896 1.158-.318 2.37-.318zm-.224 8.382q.747 0 1.325-.336.579-.355.822-1.027v-1.027h-1.998q-1.792 0-1.792 1.176 0 .56.43.896.448.318 1.213.318z" style="font-weight:700;font-family:Montserrat;-inkscape-font-specification:'Montserrat Bold'"/><path id="angstspiral_med_familie_traced_svg__path7590" d="M280.163 229.687q.523-.728 1.4-1.101.896-.374 2.053-.374v2.688q-.485-.037-.653-.037-1.25 0-1.96.71-.71.69-.71 2.09v4.742h-2.911v-10.043h2.78z" style="font-weight:700;font-family:Montserrat;-inkscape-font-specification:'Montserrat Bold'"/><path id="angstspiral_med_familie_traced_svg__path7592" d="M291.456 228.212q1.867 0 3.006 1.12 1.157 1.12 1.157 3.323v5.75h-2.912v-5.302q0-1.195-.523-1.773-.522-.598-1.512-.598-1.101 0-1.754.691-.654.672-.654 2.016v4.965h-2.912v-10.042h2.782v1.176q.578-.635 1.437-.97.859-.356 1.885-.356z" style="font-weight:700;font-family:Montserrat;-inkscape-font-specification:'Montserrat Bold'"/><path id="angstspiral_med_familie_traced_svg__path7594" d="M308.2 233.42q0 .056-.056.784h-7.597q.205.934.97 1.475.766.541 1.905.541.784 0 1.38-.224.617-.242 1.14-.746l1.549 1.68q-1.419 1.624-4.144 1.624-1.699 0-3.005-.654-1.307-.672-2.016-1.848-.71-1.176-.71-2.669 0-1.475.69-2.65.71-1.195 1.924-1.849 1.232-.672 2.744-.672 1.474 0 2.669.635t1.867 1.83q.69 1.175.69 2.743zm-5.208-3.005q-.99 0-1.661.56-.672.56-.821 1.53h4.946q-.15-.951-.821-1.511-.672-.579-1.643-.579z" style="font-weight:700;font-family:Montserrat;-inkscape-font-specification:'Montserrat Bold'"/><path id="angstspiral_med_familie_traced_svg__path7596" d="M316.619 237.92q-.43.316-1.064.484-.616.15-1.307.15-1.792 0-2.781-.915-.97-.915-.97-2.688v-4.125h-1.55v-2.24h1.55v-2.446h2.911v2.446h2.502v2.24h-2.502v4.088q0 .634.318.99.336.335.933.335.69 0 1.176-.373z" style="font-weight:700;font-family:Montserrat;-inkscape-font-specification:'Montserrat Bold'"/><path id="angstspiral_med_familie_traced_svg__path7598" d="M321.64 238.554q-1.25 0-2.445-.299-1.195-.317-1.904-.784l.97-2.09q.673.429 1.625.709.952.261 1.866.261 1.848 0 1.848-.915 0-.429-.504-.616-.504-.186-1.55-.317-1.231-.187-2.034-.43-.802-.242-1.4-.858-.578-.616-.578-1.755 0-.952.54-1.68.56-.746 1.606-1.157 1.064-.41 2.502-.41 1.064 0 2.109.242 1.064.224 1.755.635l-.971 2.072q-1.325-.747-2.893-.747-.934 0-1.4.261-.467.262-.467.672 0 .467.504.654.504.186 1.605.354 1.232.206 2.016.448.784.224 1.363.84t.579 1.718q0 .933-.56 1.661t-1.643 1.139q-1.064.392-2.539.392z" style="font-weight:700;font-family:Montserrat;-inkscape-font-specification:'Montserrat Bold'"/><path id="angstspiral_med_familie_traced_svg__path7600" d="M258.062 261.893q-.43.318-1.064.486-.616.149-1.307.149-1.792 0-2.781-.915-.971-.914-.971-2.688V254.8h-1.55v-2.24h1.55v-2.445h2.912v2.445h2.501v2.24h-2.501v4.088q0 .635.317.99.336.335.934.335.69 0 1.176-.373z" style="font-weight:700;font-family:Montserrat;-inkscape-font-specification:'Montserrat Bold'"/><path id="angstspiral_med_familie_traced_svg__path7602" d="M263.755 252.187q2.333 0 3.584 1.12 1.25 1.101 1.25 3.341v5.73h-2.725v-1.25q-.821 1.4-3.061 1.4-1.157 0-2.016-.392-.84-.392-1.288-1.083-.448-.69-.448-1.568 0-1.4 1.045-2.202 1.064-.803 3.267-.803h2.315q0-.952-.58-1.456-.578-.523-1.735-.523-.803 0-1.587.262-.765.242-1.306.672l-1.046-2.035q.822-.579 1.96-.896 1.158-.317 2.37-.317zm-.224 8.381q.747 0 1.325-.336.579-.355.822-1.027v-1.026h-1.998q-1.792 0-1.792 1.176 0 .56.43.896.448.317 1.213.317z" style="font-weight:700;font-family:Montserrat;-inkscape-font-specification:'Montserrat Bold'"/><path id="angstspiral_med_familie_traced_svg__path7604" d="M277.326 252.187q1.866 0 3.005 1.12 1.157 1.12 1.157 3.322v5.75h-2.912v-5.302q0-1.194-.522-1.773-.523-.597-1.512-.597-1.102 0-1.755.69-.653.672-.653 2.016v4.966h-2.912v-10.043h2.78v1.176q.58-.635 1.438-.97.859-.355 1.886-.355z" style="font-weight:700;font-family:Montserrat;-inkscape-font-specification:'Montserrat Bold'"/><path id="angstspiral_med_familie_traced_svg__path7606" d="m288.432 258.44-1.4 1.381v2.558h-2.912v-13.851h2.912v7.84l4.256-4.032h3.472l-4.181 4.256 4.555 5.787h-3.528z" style="font-weight:700;font-family:Montserrat;-inkscape-font-specification:'Montserrat Bold'"/><path id="angstspiral_med_familie_traced_svg__path7608" d="M305.848 257.395q0 .056-.056.784h-7.597q.205.933.97 1.474.766.542 1.905.542.784 0 1.381-.224.616-.243 1.139-.747l1.549 1.68q-1.419 1.624-4.144 1.624-1.699 0-3.005-.653-1.307-.672-2.016-1.848-.71-1.176-.71-2.67 0-1.474.69-2.65.71-1.195 1.924-1.848 1.232-.672 2.744-.672 1.474 0 2.669.634 1.195.635 1.867 1.83.69 1.176.69 2.744zm-5.208-3.006q-.99 0-1.661.56-.672.56-.821 1.531h4.946q-.15-.952-.821-1.512-.672-.579-1.643-.579z" style="font-weight:700;font-family:Montserrat;-inkscape-font-specification:'Montserrat Bold'"/><path id="angstspiral_med_familie_traced_svg__path7610" d="M310.57 253.661q.524-.728 1.4-1.101.897-.373 2.054-.373v2.688q-.485-.038-.653-.038-1.25 0-1.96.71-.71.69-.71 2.09v4.742h-2.911v-10.043h2.78z" style="font-weight:700;font-family:Montserrat;-inkscape-font-specification:'Montserrat Bold'"/><path id="angstspiral_med_familie_traced_svg__path7612" d="M255.784 270.635h2.595l-6.16 17.584h-2.595z" style="font-weight:700;font-family:Montserrat;-inkscape-font-specification:'Montserrat Bold'"/><path id="angstspiral_med_familie_traced_svg__path7614" d="M267.376 276.534h2.576v2.24h-2.501v7.579h-2.912v-7.579h-1.55v-2.24h1.55v-.448q0-1.717 1.008-2.725 1.027-1.008 2.875-1.008.653 0 1.232.15.597.13.989.391l-.765 2.11q-.504-.355-1.176-.355-1.326 0-1.326 1.456z" style="font-weight:700;font-family:Montserrat;-inkscape-font-specification:'Montserrat Bold'"/><path id="angstspiral_med_familie_traced_svg__path7616" d="M276.056 286.502q-1.586 0-2.856-.653-1.25-.672-1.96-1.848-.71-1.176-.71-2.67 0-1.493.71-2.669t1.96-1.83q1.27-.671 2.856-.671 1.587 0 2.838.672 1.25.653 1.96 1.83.709 1.175.709 2.668 0 1.494-.71 2.67-.709 1.176-1.96 1.848-1.25.653-2.837.653zm0-2.39q1.12 0 1.83-.746.728-.765.728-2.035 0-1.269-.728-2.016-.71-.765-1.83-.765t-1.848.765q-.728.747-.728 2.016 0 1.27.728 2.035.728.747 1.848.747z" style="font-weight:700;font-family:Montserrat;-inkscape-font-specification:'Montserrat Bold'"/><path id="angstspiral_med_familie_traced_svg__path7618" d="M286.286 277.635q.522-.728 1.4-1.1.896-.374 2.053-.374v2.688q-.485-.037-.653-.037-1.251 0-1.96.709-.71.69-.71 2.09v4.742h-2.912V276.31h2.782z" style="font-weight:700;font-family:Montserrat;-inkscape-font-specification:'Montserrat Bold'"/><path id="angstspiral_med_familie_traced_svg__path7620" d="M298.307 285.867q-.43.318-1.064.486-.616.15-1.307.15-1.792 0-2.781-.916-.97-.914-.97-2.688v-4.125h-1.55v-2.24h1.55v-2.445h2.911v2.445h2.502v2.24h-2.502v4.088q0 .635.318.99.336.335.933.335.69 0 1.176-.373z" style="font-weight:700;font-family:Montserrat;-inkscape-font-specification:'Montserrat Bold'"/><path id="angstspiral_med_familie_traced_svg__path7622" d="M304.41 286.502q-1.586 0-2.855-.653-1.25-.672-1.96-1.848-.71-1.176-.71-2.67 0-1.493.71-2.669t1.96-1.83q1.27-.671 2.856-.671 1.587 0 2.837.672 1.25.653 1.96 1.83.71 1.175.71 2.668 0 1.494-.71 2.67t-1.96 1.848q-1.25.653-2.837.653zm0-2.39q1.12 0 1.83-.746.728-.765.728-2.035 0-1.269-.728-2.016-.71-.765-1.83-.765t-1.847.765q-.728.747-.728 2.016 0 1.27.728 2.035.728.747 1.848.747z" style="font-weight:700;font-family:Montserrat;-inkscape-font-specification:'Montserrat Bold'"/><path id="angstspiral_med_familie_traced_svg__path7624" d="M311.859 272.502h2.912v13.85h-2.912z" style="font-weight:700;font-family:Montserrat;-inkscape-font-specification:'Montserrat Bold'"/><path id="angstspiral_med_familie_traced_svg__path7626" d="m321.79 282.414-1.4 1.381v2.558h-2.913v-13.85h2.912v7.84l4.257-4.033h3.472l-4.182 4.256 4.555 5.787h-3.528z" style="font-weight:700;font-family:Montserrat;-inkscape-font-specification:'Montserrat Bold'"/><path id="angstspiral_med_familie_traced_svg__path7628" d="M335.827 276.16q1.866 0 3.005 1.12 1.157 1.12 1.157 3.323v5.75h-2.912v-5.302q0-1.194-.522-1.773-.523-.597-1.512-.597-1.102 0-1.755.69-.653.672-.653 2.016v4.966h-2.912V276.31h2.781v1.176q.579-.635 1.437-.97.86-.355 1.886-.355z" style="font-weight:700;font-family:Montserrat;-inkscape-font-specification:'Montserrat Bold'"/><path id="angstspiral_med_familie_traced_svg__path7630" d="M342.622 276.31h2.912v10.043h-2.912zm1.456-1.4q-.803 0-1.307-.467-.504-.466-.504-1.157 0-.69.504-1.157.504-.467 1.307-.467.802 0 1.306.448t.504 1.12q0 .728-.504 1.213-.504.467-1.306.467z" style="font-weight:700;font-family:Montserrat;-inkscape-font-specification:'Montserrat Bold'"/><path id="angstspiral_med_familie_traced_svg__path7632" d="M354.344 276.16q1.867 0 3.005 1.12 1.158 1.12 1.158 3.323v5.75h-2.912v-5.302q0-1.194-.523-1.773-.523-.597-1.512-.597-1.101 0-1.755.69-.653.672-.653 2.016v4.966h-2.912V276.31h2.781v1.176q.58-.635 1.438-.97.858-.355 1.885-.355z" style="font-weight:700;font-family:Montserrat;-inkscape-font-specification:'Montserrat Bold'"/><path id="angstspiral_med_familie_traced_svg__path7634" d="M371.61 276.31v8.363q0 2.762-1.437 4.106-1.437 1.345-4.2 1.345-1.456 0-2.762-.355-1.307-.355-2.166-1.027l1.158-2.09q.634.522 1.605.82.97.318 1.941.318 1.512 0 2.222-.69.728-.673.728-2.054v-.43q-1.139 1.251-3.174 1.251-1.38 0-2.538-.597-1.139-.616-1.81-1.717-.673-1.102-.673-2.539t.672-2.539q.672-1.1 1.81-1.698 1.158-.616 2.54-.616 2.183 0 3.322 1.437v-1.288zm-5.506 7.168q1.157 0 1.885-.672.747-.69.747-1.792 0-1.101-.747-1.773-.728-.69-1.885-.69t-1.904.69q-.747.672-.747 1.773t.747 1.792q.747.672 1.904.672z" style="font-weight:700;font-family:Montserrat;-inkscape-font-specification:'Montserrat Bold'"/></g><g id="angstspiral_med_familie_traced_svg__text2318-6-5-5" aria-label="Dine følelser" style="font-size:18.6667px;line-height:1.25;letter-spacing:0;word-spacing:0;white-space:pre;shape-inside:url(#angstspiral_med_familie_traced_svg__rect2320-3-7-3)" transform="translate(-16.052 17.354) scale(.0635)"><path id="angstspiral_med_familie_traced_svg__path7543" d="M255.463 226.808v8.303h1.258q2.15 0 3.281-1.066 1.14-1.066 1.14-3.099 0-2.023-1.13-3.08-1.131-1.058-3.291-1.058zm-3.51-2.652h3.701q3.1 0 4.612.446 1.522.438 2.607 1.495.957.92 1.422 2.124.465 1.203.465 2.725 0 1.54-.465 2.753-.465 1.203-1.422 2.123-1.094 1.058-2.625 1.504-1.531.438-4.594.438h-3.7z" style="font-weight:700;-inkscape-font-specification:'sans-serif Bold'"/><path id="angstspiral_med_familie_traced_svg__path7545" d="M267.303 227.555h3.263v10.209h-3.263zm0-3.974h3.263v2.662h-3.263z" style="font-weight:700;-inkscape-font-specification:'sans-serif Bold'"/><path id="angstspiral_med_familie_traced_svg__path7547" d="M283.964 231.548v6.216h-3.281v-4.758q0-1.322-.064-1.823-.055-.501-.2-.738-.192-.32-.52-.493-.328-.182-.747-.182-1.021 0-1.604.793-.584.784-.584 2.179v5.022h-3.263v-10.209h3.263v1.495q.739-.893 1.568-1.312.83-.429 1.832-.429 1.768 0 2.68 1.085.92 1.085.92 3.154z" style="font-weight:700;-inkscape-font-specification:'sans-serif Bold'"/><path id="angstspiral_med_familie_traced_svg__path7549" d="M297.18 232.632v.93h-7.628q.118 1.148.829 1.723.71.574 1.987.574 1.03 0 2.105-.301 1.085-.31 2.224-.93v2.516q-1.157.437-2.315.656-1.157.228-2.315.228-2.77 0-4.311-1.404-1.531-1.412-1.531-3.955 0-2.498 1.504-3.929 1.513-1.43 4.156-1.43 2.406 0 3.846 1.448 1.45 1.45 1.45 3.874zm-3.354-1.084q0-.93-.547-1.495-.537-.574-1.412-.574-.948 0-1.54.537-.593.529-.739 1.532z" style="font-weight:700;-inkscape-font-specification:'sans-serif Bold'"/><path id="angstspiral_med_familie_traced_svg__path7551" d="M312.867 223.581v2.142h-1.805q-.693 0-.966.256-.274.246-.274.865v.711h2.79v2.334h-2.79v7.875h-3.263v-7.875h-1.622v-2.334h1.622v-.71q0-1.669.93-2.462.93-.802 2.88-.802z" style="font-weight:700;-inkscape-font-specification:'sans-serif Bold'"/><path id="angstspiral_med_familie_traced_svg__path7553" d="M320.505 230.144q-.265-.255-.611-.374-.337-.127-.766-.127-1.084 0-1.658.783-.566.775-.566 2.243 0 .373.028.674.036.292.1.538zm-2.817 5.004q.283.273.638.41.365.137.802.137 1.067 0 1.632-.775.565-.784.565-2.251 0-.392-.036-.693-.028-.31-.092-.574zm-2.953 1.176q-.61-.711-.92-1.623-.31-.911-.31-2.032 0-2.516 1.485-3.938 1.495-1.422 4.138-1.422.967 0 1.778.2.82.201 1.504.602l1.34-1.44.993.92-1.285 1.359q.638.73.948 1.65.319.92.319 2.069 0 2.515-1.486 3.937-1.476 1.422-4.11 1.422-.985 0-1.814-.21-.83-.2-1.532-.61l-1.349 1.412-1.02-.856z" style="font-weight:700;-inkscape-font-specification:'sans-serif Bold'"/><path id="angstspiral_med_familie_traced_svg__path7555" d="M327.095 223.581h3.263v14.183h-3.263z" style="font-weight:700;-inkscape-font-specification:'sans-serif Bold'"/><path id="angstspiral_med_familie_traced_svg__path7557" d="M343.683 232.632v.93h-7.629q.119 1.148.83 1.723.71.574 1.987.574 1.03 0 2.105-.301 1.085-.31 2.224-.93v2.516q-1.158.437-2.315.656-1.158.228-2.315.228-2.771 0-4.311-1.404-1.532-1.412-1.532-3.955 0-2.498 1.504-3.929 1.513-1.43 4.157-1.43 2.406 0 3.846 1.448 1.45 1.45 1.45 3.874zm-3.354-1.084q0-.93-.547-1.495-.538-.574-1.413-.574-.948 0-1.54.537-.593.529-.738 1.532z" style="font-weight:700;-inkscape-font-specification:'sans-serif Bold'"/><path id="angstspiral_med_familie_traced_svg__path7559" d="M346.153 223.581h3.263v14.183h-3.263z" style="font-weight:700;-inkscape-font-specification:'sans-serif Bold'"/><path id="angstspiral_med_familie_traced_svg__path7561" d="M360.527 227.874v2.48q-1.048-.438-2.024-.657-.975-.218-1.84-.218-.93 0-1.386.237-.447.227-.447.71 0 .392.337.602.347.21 1.231.31l.574.082q2.507.319 3.373 1.048.865.73.865 2.288 0 1.631-1.203 2.452-1.203.82-3.59.82-1.013 0-2.097-.164-1.076-.155-2.215-.474v-2.48q.975.475 1.996.712 1.03.237 2.087.237.957 0 1.44-.265.484-.264.484-.783 0-.438-.338-.648-.328-.218-1.321-.337l-.575-.073q-2.178-.273-3.053-1.011-.875-.739-.875-2.243 0-1.622 1.112-2.406t3.409-.784q.902 0 1.896.137.993.137 2.16.428z" style="font-weight:700;-inkscape-font-specification:'sans-serif Bold'"/><path id="angstspiral_med_familie_traced_svg__path7563" d="M373.852 232.632v.93h-7.628q.118 1.148.829 1.723.71.574 1.987.574 1.03 0 2.105-.301 1.085-.31 2.224-.93v2.516q-1.157.437-2.315.656-1.157.228-2.315.228-2.77 0-4.311-1.404-1.531-1.412-1.531-3.955 0-2.498 1.504-3.929 1.513-1.43 4.156-1.43 2.406 0 3.846 1.448 1.45 1.45 1.45 3.874zm-3.354-1.084q0-.93-.547-1.495-.537-.574-1.412-.574-.948 0-1.54.537-.593.529-.739 1.532z" style="font-weight:700;-inkscape-font-specification:'sans-serif Bold'"/><path id="angstspiral_med_familie_traced_svg__path7565" d="M383.906 230.335q-.429-.2-.857-.291-.42-.1-.848-.1-1.257 0-1.941.81-.674.803-.674 2.307v4.703h-3.264v-10.209h3.264v1.677q.628-1.002 1.44-1.458.82-.465 1.96-.465.163 0 .355.018.191.01.556.055z" style="font-weight:700;-inkscape-font-specification:'sans-serif Bold'"/></g><g id="angstspiral_med_familie_traced_svg__g24" style="stroke:#000;stroke-width:1.10946;stroke-miterlimit:4;stroke-dasharray:none;stroke-opacity:1" transform="matrix(.26445 0 0 .26945 .963 13.037)"><g id="angstspiral_med_familie_traced_svg__g836" style="stroke:#000;stroke-width:1.09136;stroke-miterlimit:4;stroke-dasharray:none;stroke-opacity:1" transform="matrix(1.0163 0 0 1.01684 -.184 -1.233)"><ellipse id="angstspiral_med_familie_traced_svg__circle12" cx="5.298" cy="9.112" class="angstspiral_med_familie_traced_svg__a" rx="2.49" ry="2.463" style="stroke:#000;stroke-width:1.09136;stroke-miterlimit:4;stroke-dasharray:none;stroke-opacity:1"/><ellipse id="angstspiral_med_familie_traced_svg__circle16" cx="12" cy="12.566" class="angstspiral_med_familie_traced_svg__a" rx="2.234" ry="2.235" style="stroke:#000;stroke-width:1.09136;stroke-miterlimit:4;stroke-dasharray:none;stroke-opacity:1"/><path id="angstspiral_med_familie_traced_svg__path4-5" d="M9.348 16.026h-8.1c0-2.371 1.812-4.293 4.05-4.293 2.238 0 4.05 1.922 4.05 4.293z" style="fill:none;stroke:#000;stroke-width:1.09136;stroke-linejoin:round;stroke-miterlimit:4;stroke-dasharray:none;stroke-opacity:1"/><path id="angstspiral_med_familie_traced_svg__path4-3" d="M22.729 16.026h-8.1c0-2.371 1.812-4.293 4.05-4.293 2.237 0 4.05 1.922 4.05 4.293z" style="fill:none;stroke:#000;stroke-width:1.09136;stroke-linejoin:round;stroke-miterlimit:4;stroke-dasharray:none;stroke-opacity:1"/><path id="angstspiral_med_familie_traced_svg__path4-3-6" d="M16.05 19.378h-8.1c0-2.37 1.812-4.293 4.05-4.293 2.238 0 4.05 1.922 4.05 4.293z" style="fill:none;stroke:#000;stroke-width:1.09136;stroke-linejoin:round;stroke-miterlimit:4;stroke-dasharray:none;stroke-opacity:1"/><ellipse id="angstspiral_med_familie_traced_svg__circle12-7" cx="18.679" cy="9.112" class="angstspiral_med_familie_traced_svg__a" rx="2.49" ry="2.463" style="fill:none;stroke:#000;stroke-width:1.09136;stroke-linecap:round;stroke-linejoin:round;stroke-miterlimit:4;stroke-dasharray:none;stroke-opacity:1"/></g></g></g></g></g></g></g></svg>