<?xml version="1.0" encoding="UTF-8" standalone="no"?>
<svg
   xmlns:dc="http://purl.org/dc/elements/1.1/"
   xmlns:cc="http://creativecommons.org/ns#"
   xmlns:rdf="http://www.w3.org/1999/02/22-rdf-syntax-ns#"
   xmlns:svg="http://www.w3.org/2000/svg"
   xmlns="http://www.w3.org/2000/svg"
   xmlns:sodipodi="http://sodipodi.sourceforge.net/DTD/sodipodi-0.dtd"
   xmlns:inkscape="http://www.inkscape.org/namespaces/inkscape"
   version="1.1"
   id="svg2"
   width="728.20001"
   height="420.44"
   viewBox="0 0 728.20001 420.44"
   sodipodi:docname="angstkurve_2_traced.svg"
   inkscape:version="1.0.2 (e86c870879, 2021-01-15)"
   inkscape:export-filename="/home/tobias/documents/FunkLid/proxy/gamle_billeder_og_modeller/angstkurve_2_traced.png"
   inkscape:export-xdpi="300"
   inkscape:export-ydpi="300">
  <metadata
     id="metadata8">
    <rdf:RDF>
      <cc:Work
         rdf:about="">
        <dc:format>image/svg+xml</dc:format>
        <dc:type
           rdf:resource="http://purl.org/dc/dcmitype/StillImage" />
        <dc:title></dc:title>
      </cc:Work>
    </rdf:RDF>
  </metadata>
  <defs
     id="defs6" />
  <sodipodi:namedview
     pagecolor="#ffffff"
     bordercolor="#666666"
     borderopacity="1"
     objecttolerance="10"
     gridtolerance="10"
     guidetolerance="10"
     inkscape:pageopacity="0"
     inkscape:pageshadow="2"
     inkscape:window-width="2880"
     inkscape:window-height="1765"
     id="namedview4"
     showgrid="false"
     inkscape:zoom="2.7367554"
     inkscape:cx="371.3986"
     inkscape:cy="197.43682"
     inkscape:window-x="0"
     inkscape:window-y="35"
     inkscape:window-maximized="0"
     inkscape:current-layer="g1379"
     inkscape:document-rotation="0" />
  <g
     inkscape:groupmode="layer"
     id="layer1"
     inkscape:label="baggrund"
     style="display:none"
     sodipodi:insensitive="true">
    <rect
       style="fill:#ffffff;fill-opacity:1;fill-rule:evenodd;stroke-width:1.00157;stroke-linecap:round;stroke-linejoin:round"
       id="rect1567"
       width="933.4278"
       height="550.05414"
       x="-71.390984"
       y="-50.218166" />
  </g>
  <g
     inkscape:groupmode="layer"
     inkscape:label="Image"
     id="g10">
    <g
       id="g1379"
       transform="translate(-6.7077839,33.369374)">
      <path
         id="path867"
         style="fill:#e72d76;fill-opacity:1;stroke-width:1"
         d="m 61.96955,339.61312 c 0,0.17415 1.062918,-1.07162 2.618159,-2.34603 2.685743,-2.20076 4.257994,-2.89272 4.174178,-1.83709 -0.02096,0.264 -1.96496,2.02058 -4.32,3.90351 -3.355544,2.68286 -4.328573,3.19213 -4.497679,2.35397 m 11.415796,-9.28812 c 0,-0.66774 7.022323,-6.40827 7.84,-6.40896 1.253408,-0.001 0.150938,1.32975 -3.36086,4.05691 -4.043643,3.14017 -4.47914,3.36885 -4.47914,2.35205 z m 11.216326,-8.30295 c -0.184441,-0.29842 1.225735,-1.57878 3.133722,-2.84523 3.98416,-2.64453 5.489952,-3.32672 5.489952,-2.48717 0,0.87581 -8.232058,5.96605 -8.623674,5.3324 z m 11.823674,-7.69837 c 0,-0.8979 8.821336,-5.23017 9.247056,-4.54134 0.19374,0.31347 -1.68652,1.60571 -4.178371,2.87163 -5.017075,2.5488 -5.068685,2.5658 -5.068685,1.66971 z M 107.2,310.06881 c 0,-0.60499 4.968,-2.89665 7.84,-3.61646 3.44051,-0.86231 1.69038,0.76602 -2.64213,2.45824 -4.85568,1.89656 -5.19787,1.97281 -5.19787,1.15822 z m 13.152,-5.1407 c 0.73902,-0.70729 7.10634,-2.61811 8.72417,-2.61811 2.46587,0 0.98602,1.05971 -2.94121,2.10616 -4.58236,1.22102 -6.72174,1.41042 -5.78296,0.51195 z m 13.43716,-3.21095 c -0.20151,-0.32605 1.29349,-0.91339 3.32223,-1.30519 2.02874,-0.39179 4.31897,-0.84608 5.0894,-1.00951 0.77043,-0.16344 1.5742,-0.0165 1.78617,0.32643 0.21197,0.34297 -0.27438,0.76274 -1.08077,0.93282 -2.8315,0.59719 -8.25181,1.64829 -8.49991,1.64829 -0.1379,0 -0.41561,-0.26678 -0.61712,-0.59284 z m 13.73085,-2.52017 c 0,-0.594 4.57424,-1.36699 8.08933,-1.36699 3.6452,0 2.37573,1.07413 -1.78321,1.50883 -5.20438,0.54396 -6.30612,0.51918 -6.30612,-0.14184 z m 14.08,-1.36699 c 0,-0.352 0.9678,-0.64 2.15068,-0.64 1.18286,0 3.48686,-0.18315 5.12,-0.40699 2.48823,-0.34105 2.96932,-0.23736 2.96932,0.64 0,0.88207 -0.80649,1.04699 -5.12,1.04699 -2.98667,0 -5.12,-0.26667 -5.12,-0.64 z m 14.08,-0.64 c 0,-0.37333 2.13333,-0.64 5.12,-0.64 2.98667,0 5.12,0.26667 5.12,0.64 0,0.37333 -2.13333,0.64 -5.12,0.64 -2.98667,0 -5.12,-0.26667 -5.12,-0.64 z m 31.84,2.08709 c -2.024,-0.12701 -3.68,-0.50455 -3.68,-0.83899 0,-0.66815 6.5059,-0.81947 8.8,-0.20467 0.792,0.21224 1.44,0.64031 1.44,0.95125 0,0.31095 -0.648,0.5109 -1.44,0.44435 -0.792,-0.0666 -3.096,-0.22494 -5.12,-0.35194 z m -17.41266,-1.40289 c -0.20252,-0.32768 -0.14752,-0.7142 0.12222,-0.85895 0.91215,-0.48946 9.77044,0.31469 9.77044,0.88695 0,0.75911 -9.42269,0.73244 -9.89266,-0.028 z m 74.85266,8.17003 c -4.69882,-0.71339 -5.61546,-1.01256 -5.19363,-1.69508 0.44928,-0.72695 10.34133,0.6987 10.20163,1.47026 -0.15643,0.86398 -0.65168,0.88621 -5.008,0.22482 z m -16.48,-2.28045 c -1.36892,-0.14319 -2.4,-0.59706 -2.4,-1.05645 0,-0.62687 1.02852,-0.67587 4.64,-0.22105 8.34421,1.05083 6.36795,2.17792 -2.24,1.2775 z m -11.84,-1.63985 c -6.40603,-0.79419 -6.13024,-2.02232 0.32,-1.42498 5.23206,0.48453 5.88217,0.68235 4.91733,1.4963 -0.32853,0.27716 -2.68533,0.24507 -5.23733,-0.0713 z m -15.36,-1.56576 c -2.3227,-0.16249 -3.36,-0.50869 -3.36,-1.12138 0,-0.62665 0.60939,-0.81009 2.08,-0.62614 1.144,0.14309 3.448,0.43063 5.12,0.63898 3.19818,0.39851 4.30757,1.66564 1.28,1.46198 -0.968,-0.0651 -3.272,-0.22416 -5.12,-0.35344 z M 333.92305,318.037 c -2.19833,-0.43318 -4.19033,-0.98096 -4.42666,-1.2173 -0.97392,-0.9739 0.53826,-1.13865 4.05287,-0.44153 5.16934,1.02532 5.97075,1.29041 5.97075,1.97496 0,0.72029 -0.47277,0.69359 -5.59696,-0.31613 z m -13.84434,-2.64178 c -4.4392,-0.88203 -5.38921,-1.26804 -4.73381,-1.92343 0.63433,-0.63434 9.66077,1.28997 9.93597,2.11821 0.30905,0.93013 0.49436,0.93708 -5.20216,-0.19478 z m -13.67566,-2.48157 c -3.86594,-0.75854 -5.18102,-1.319 -4.55763,-1.94238 0.53572,-0.53573 9.6006,1.24101 9.60567,1.88273 0.007,0.91789 -0.63524,0.92548 -5.04804,0.0596 z m -14.19075,-2.52181 c -2.34977,-0.41293 -4.23097,-1.09297 -4.39572,-1.58902 -0.19625,-0.59091 0.0929,-0.75872 0.90772,-0.52675 0.65764,0.18722 2.49171,0.52648 4.07571,0.75391 3.94591,0.56655 5.12,0.94334 5.12,1.64313 0,0.692 -0.23544,0.6804 -5.70771,-0.28127 z m -14.93229,-2.47664 c -3.37548,-0.57832 -5.132,-1.7652 -2.61242,-1.7652 2.4497,0 9.17242,1.45537 9.17242,1.9857 0,0.68323 -1.59894,0.62949 -6.56,-0.2205 z m 139.36001,27.10969 c -3.72316,-0.88281 -4.9928,-1.54353 -4,-2.0816 0.088,-0.0477 2.248,0.28642 4.8,0.74249 3.03868,0.54304 4.64,1.12515 4.64,1.68672 0,0.99658 0.31344,1.0166 -5.44,-0.34761 z m -14.24,-3.05561 c -2.2,-0.52126 -4,-1.21584 -4,-1.54352 0,-0.80501 0.62469,-0.76012 5.79898,0.41675 2.44841,0.55688 4.28826,1.27688 4.08856,1.6 -0.45471,0.73574 -0.95461,0.69556 -5.88754,-0.47323 z m -14.51494,-3.04011 c -1.73521,-0.41182 -3.28128,-1.12783 -3.43572,-1.59113 -0.18895,-0.56684 0.1103,-0.72766 0.91494,-0.49168 0.65764,0.19287 2.99572,0.69256 5.19572,1.11042 2.2,0.41787 4,1.01028 4,1.31649 0,0.72981 -2.7466,0.58822 -6.67494,-0.3441 z m -13.00506,-2.71989 c -2.20001,-0.52126 -4.00001,-1.21584 -4.00001,-1.54352 0,-0.80501 0.6247,-0.76012 5.79899,0.41675 2.44841,0.55688 4.28826,1.27688 4.08856,1.6 -0.45471,0.73574 -0.95461,0.69556 -5.88754,-0.47323 z m -14.72001,-2.95337 c -3.13988,-0.60362 -4.65372,-1.74591 -2.31379,-1.74591 2.26082,0 9.19379,1.53128 9.19379,2.03062 0,0.65978 -2.50656,0.55605 -6.88,-0.28471 z m -12,-2.4475 c -1.408,-0.31514 -3.21977,-0.72665 -4.02617,-0.91448 -0.8064,-0.18783 -1.28616,-0.63278 -1.06614,-0.98877 0.22002,-0.356 0.8798,-0.5114 1.46618,-0.34532 0.58637,0.16608 2.72213,0.63021 4.74613,1.03141 2.024,0.4012 3.68,0.99703 3.68,1.32408 0,0.70366 -1.30854,0.67452 -4.8,-0.10692 z m 108.85188,22.88015 c -1.73147,-0.40621 -3.28277,-1.14445 -3.44733,-1.64054 -0.19949,-0.60141 0.0282,-0.77635 0.68332,-0.52496 0.54037,0.20736 2.74669,0.7241 4.90291,1.14832 4.13739,0.81398 5.84754,1.92109 2.807,1.81718 -0.98878,-0.0338 -3.21443,-0.39379 -4.9459,-0.8 z m -13.33187,-2.83597 c -4.7683,-1.07599 -6.03096,-2.49525 -1.6,-1.79844 4.37629,0.68821 7.52,1.65829 7.52,2.32052 0,0.75078 -0.45834,0.71036 -5.92,-0.52208 z m -13.80864,-3.03533 c -3.47592,-0.84761 -4.42674,-1.32521 -3.82876,-1.9232 0.50617,-0.50617 10.1174,1.73069 10.1174,2.35466 0,0.72433 -2.15531,0.57645 -6.28864,-0.43146 z" />
      <path
         style="fill:#000000;stroke-width:1"
         d="m 57.828207,340.83993 c 0,0 0.675913,-115.67055 0.654183,-246.361558 C 58.46538,-7.79787 56.424827,34.150008 56.000004,34.150008 c -0.424914,0 -0.64,52.3441 -0.64,155.752302 v 155.75232 l 197.600006,0.49905 c 108.68,0.27448 224.38401,0.67394 257.12001,0.88769 l -10e-6,-10e-6 c 74.10818,0.48388 157.76,0.22861 157.76,-0.48143 0,-0.29393 -11.67277,-0.69441 -25.93947,-0.88997 -19.02262,-0.30146 -38.68241,-0.28709 -52.12883,-0.28195 -67.29463,0.17438 -92.93973,-0.33944 -146.2517,-0.48623 -283.89227,-0.79841 -385.643074,-1.13854 -385.623914,-1.49679"
         id="path1219" />
      <path
         style="fill:#75d29c;fill-opacity:1;stroke-width:1"
         d="m 57.896096,343.40499 c 0.48954,-1.232 13.635574,-36.77362 16.384691,-43.65499 10.565354,-26.44635 22.38428,-58.09107 32.913583,-80.65268 5.06387,-10.85057 10.66143,-21.73476 11.51343,-22.38732 6.56947,-11.32138 6.50067,-12.48328 12.73763,-22.55073 11.20716,-18.07585 26.25889,-36.36434 38.63067,-46.93789 21.32079,-18.22182 41.99175,-27.15073 67.29251,-29.067312 15.03279,-1.13875 25.78973,0.57175 46.1514,7.338692 19.8733,6.60465 43.26266,17.25995 72.13609,32.86245 71.44921,38.60943 180.91854,112.97935 285.94392,194.26106 8.624,6.67433 16.256,12.27157 16.96,12.43832 1.13677,0.26925 1.17254,0.19633 0.32,-0.65157 -2.6672,-2.65263 -48.62746,-37.58932 -76.70234,-58.3053 C 480.79335,211.28796 395.44047,156.12831 333.44001,125.34998 c -41.38044,-20.54212 -66.96771,-28.845782 -88.64,-28.765682 -15.10262,0.0558 -28.41261,2.62807 -41.28,7.977682 -30.55694,12.70406 -56.72914,39.17342 -80.98849,81.90802 -2.89742,5.104 -6.81231,11.92182 -8.69977,15.15073 -1.66839,3.11935 -3.61227,6.44904 -4.92518,9.35983 -1.34917,3.07062 -4.56944,10.09673 -4.56944,10.09673 -0.96393,2.34185 -1.75082,4.11349 -2.72057,6.1026 L 94.237681,245.03 c -2.966848,7.04 -5.911975,14.17012 -6.544723,15.84471 -3.094708,7.86085 -2.93873,7.35513 -5.54848,13.91422 -2.153788,5.0916 -4.849691,12.0471 -5.965675,14.40107 -1.674124,4.93822 -2.953152,8.03684 -4.421519,12.81759 -5.289778,12.8176 -9.479488,26.86237 -13.907586,39.55529"
         id="path843"
         sodipodi:nodetypes="cssccsssssssssssscccccccccc" />
      <path
         id="path911-7"
         style="fill:#e7b35f;fill-opacity:1;stroke-width:1"
         d="m 63.780009,332.9076 c -0.599077,-0.88919 4.276795,-8.52905 5.473402,-8.5761 1.02071,-0.0401 0.969733,0.0605 -3.408326,6.72279 -0.899905,1.36944 -1.829187,2.20343 -2.065076,1.85331 z m 450.806901,9.43797 c -2.09721,-0.81082 -3.92121,-1.79853 -4.05334,-2.1949 -0.13212,-0.39637 -0.0235,-0.72067 0.24135,-0.72067 1.11991,0 9.8651,3.53242 9.8651,3.98477 0,0.83722 -2.06605,0.47227 -6.05311,-1.0692 z m -12.82689,-4.74535 c -3.9018,-1.52352 -5.29305,-2.54268 -3.68,-2.69578 1.38785,-0.13172 9.12,3.01433 9.12,3.71074 0,1.06955 -0.19442,1.03328 -5.44,-1.01496 z m -13.40943,-4.87254 c -3.3497,-1.26117 -5.42907,-2.89768 -3.68182,-2.89768 1.36662,0 8.73654,3.09587 8.95905,3.76342 0.33133,0.99399 -0.8544,0.79947 -5.27723,-0.86574 z m -12.83057,-4.71767 c -5.22903,-1.8524 -5.04458,-1.74651 -4.52018,-2.595 0.2621,-0.42408 2.05867,-0.0587 5.02408,1.02183 5.32259,1.93941 5.36762,1.96547 4.57343,2.64736 -0.32853,0.28207 -2.61333,-0.20132 -5.07733,-1.07419 z m -13.95875,-5.06648 c -2.89824,-1.07189 -4.14485,-1.82593 -3.7204,-2.25038 0.75314,-0.75315 9.16222,2.14607 9.54366,3.29039 0.33936,1.01808 -0.8168,0.81159 -5.82326,-1.04001 z M 71.061273,320.90441 c -0.563675,-0.91204 4.608629,-8.35441 5.806161,-8.35441 1.021498,0 0.966612,0.0985 -3.669857,6.58368 -0.953019,1.33302 -1.914355,2.12986 -2.136304,1.77073 z m 378.058747,-2.47168 c -2.6651,-0.98168 -4.64,-2.08167 -4.64,-2.58442 0,-0.58125 0.37625,-0.7216 1.12,-0.41778 0.616,0.25164 2.776,1.0289 4.8,1.72723 2.13671,0.73723 3.68,1.64765 3.68,2.17094 0,0.49569 -0.072,0.88143 -0.16,0.85721 -0.088,-0.0242 -2.248,-0.81315 -4.8,-1.75318 z m -10.4,-3.78126 c -0.528,-0.19661 -2.472,-0.91456 -4.32,-1.59545 -3.42194,-1.2608 -4.75101,-2.9139 -1.73394,-2.15666 3.73185,0.93663 8.6032,3.07024 8.26376,3.61947 -0.4004,0.64785 -0.7671,0.66987 -2.20982,0.13264 z m -16.32,-5.73055 c -4.97193,-1.81914 -5.19846,-1.94581 -4.5821,-2.56216 0.70143,-0.70143 10.0221,2.48286 10.0221,3.42392 0,1.0976 -0.14964,1.07389 -5.44,-0.86176 z M 80.104638,306.90905 c 3.668345,-4.93249 4.657868,-5.97777 5.289408,-5.58745 0.828908,0.51229 -4.968071,8.0284 -6.192103,8.0284 -0.632441,0 -0.355277,-0.74948 0.902695,-2.44095 z m 328.375382,-2.78291 c -2.02552,-0.70607 -3.68,-1.67066 -3.68,-2.1455 0,-0.65682 1.14547,-0.47756 4.8,0.75116 2.64,0.88763 4.8,1.87584 4.8,2.19603 0,0.87283 -1.82546,0.62562 -5.92,-0.80169 z m -13.12,-4.55822 c -2.31517,-0.77811 -4,-1.715 -4,-2.22428 0,-0.62115 0.42344,-0.74558 1.44,-0.42313 5.52547,1.75267 7.79843,2.7048 8.01614,3.35792 0.33848,1.01545 -0.73781,0.87529 -5.45614,-0.71051 z M 87.360004,298.09947 c 0,-0.20379 1.489894,-2.0835 3.310874,-4.17712 2.210553,-2.54153 3.523891,-3.59359 3.951833,-3.16564 0.427943,0.42794 -0.406508,1.79321 -2.510873,4.10809 -2.761908,3.03819 -4.751834,4.39278 -4.751834,3.23467 z m 294.560016,-3.01155 c -2.38772,-0.8025 -4,-1.70925 -4,-2.24962 0,-0.49789 0.36,-0.77258 0.8,-0.61042 0.44,0.16215 2.74606,0.93713 5.12458,1.72218 2.37851,0.78504 4.16151,1.69118 3.96222,2.01364 -0.49249,0.79688 -1.24165,0.68542 -5.8868,-0.87578 z m -13.28001,-4.43606 c -4.45579,-1.52831 -4.4094,-1.50054 -3.89531,-2.33236 0.46256,-0.74843 9.97532,2.27298 9.97532,3.16833 0,0.8756 -1.81912,0.62548 -6.08001,-0.83597 z M 96.960004,287.64302 c 0,-0.97845 7.265546,-7.02917 7.939956,-6.61236 0.3455,0.21353 -1.08365,1.92021 -3.17589,3.79263 -3.763234,3.36786 -4.764066,3.96023 -4.764066,2.81973 z m 258.080006,-1.39218 c -2.2,-0.697 -4,-1.54482 -4,-1.88405 0,-0.33923 0.33957,-0.61679 0.7546,-0.61679 1.45218,0 9.4854,2.81678 9.4854,3.32597 0,0.80225 -1.89374,0.55183 -6.24,-0.82513 z m -12.8,-4.01834 c -2.60409,-0.7545 -4.64,-1.69936 -4.64,-2.15344 0,-0.44498 0.11367,-0.80906 0.25259,-0.80906 0.81909,0 9.11899,2.76655 9.56318,3.18764 1.19475,1.1326 -0.78716,1.04639 -5.17577,-0.22514 z M 107.84,278.44027 c 0,-0.96525 6.46312,-6.21027 7.65254,-6.21027 1.33233,0 0.6157,1.1457 -1.73254,2.76989 -1.32,0.913 -3.192,2.27129 -4.16,3.01843 -1.35256,1.04396 -1.76,1.14164 -1.76,0.42195 z m 220.51975,-0.38317 c -2.09015,-0.60979 -3.91415,-1.45034 -4.05334,-1.86791 -0.13918,-0.41755 -0.013,-0.76011 0.28027,-0.76122 1.41066,-0.005 9.81333,2.81621 9.81333,3.29526 0,0.78621 -1.70765,0.59789 -6.04026,-0.66613 z m -13.44097,-3.8665 c -2.09068,-0.59843 -3.92823,-1.46903 -4.08344,-1.93467 -0.21119,-0.63357 0.18167,-0.73657 1.56123,-0.40931 5.42185,1.28618 8.56661,2.42044 8.22833,2.9678 -0.47894,0.77494 -1.02975,0.71473 -5.70612,-0.62382 z m -10.27877,-2.92461 c -0.352,-0.12262 -2.33439,-0.69509 -4.40531,-1.27215 -2.27228,-0.63316 -3.53352,-1.281 -3.18073,-1.63379 0.35278,-0.35278 1.46516,-0.3521 2.80531,0.002 1.22141,0.32246 3.45343,0.90617 4.96004,1.29713 1.50663,0.39096 2.56963,0.9854 2.36224,1.32097 -0.3748,0.60643 -1.31746,0.71255 -2.54155,0.28613 z m -185.60105,-0.95767 c -0.29816,-0.48244 7.86782,-5.75832 8.9127,-5.75832 0.2026,0 0.36342,0.36 0.35738,0.8 -0.014,1.01627 -8.80149,5.7165 -9.27008,4.95832 z m 169.12105,-3.33218 c -2.728,-0.70922 -4.96,-1.54524 -4.96,-1.8578 0,-0.81682 1.42299,-0.70745 6.10847,0.4695 2.58193,0.64857 4.13153,1.3687 4.13153,1.92 0,0.48521 -0.072,0.85421 -0.16,0.82 -0.088,-0.0342 -2.392,-0.64248 -5.12,-1.3517 z m -14.4,-3.48686 c -2.2,-0.52126 -4,-1.21584 -4,-1.54352 0,-0.74905 1.59445,-0.75413 4.48,-0.0143 1.232,0.31587 3.032,0.75175 4,0.96862 1.93092,0.43259 2.43349,1.68389 0.64,1.59343 -0.616,-0.0311 -2.92,-0.48297 -5.12,-1.00424 z m -142.11387,-0.27765 c 0.18638,-0.55915 8.23799,-4.42163 9.21721,-4.42163 0.14116,0 0.25311,0.36 0.24878,0.8 -0.004,0.44 -1.96505,1.592 -4.35712,2.56 -4.8199,1.95047 -5.44871,2.08113 -5.10887,1.06163 z m 128.33181,-2.80264 c -2.03613,-0.4454 -3.88413,-0.99189 -4.10667,-1.21442 -0.94924,-0.94925 0.59611,-1.10706 4.07798,-0.41644 5.16934,1.02532 5.97075,1.29041 5.97075,1.97496 0,0.75054 -1.27558,0.67667 -5.94206,-0.3441 z M 144.32001,258.1771 c 0,-0.3371 1.97505,-1.2011 4.389,-1.92 4.88269,-1.45413 5.851,-1.57484 5.851,-0.72944 0,0.5363 -7.97119,3.26234 -9.53935,3.26234 -0.38536,0 -0.70065,-0.2758 -0.70065,-0.6129 z m 102.56304,-0.3001 c -2.19833,-0.43318 -4.19033,-0.98096 -4.42667,-1.2173 -0.97391,-0.9739 0.53827,-1.13865 4.05287,-0.44153 5.16935,1.02532 5.97076,1.29041 5.97076,1.97496 0,0.72029 -0.47277,0.69359 -5.59696,-0.31613 z m -14.72304,-2.46541 c -2.27211,-0.36366 -4,-0.96483 -4,-1.3917 0,-1.04793 9.71431,0.31098 10.08029,1.41011 0.30058,0.90272 -0.3372,0.90079 -6.08029,-0.0184 z m -73.76,-1.03221 c 0,-0.69874 1.80298,-1.17401 6.58674,-1.73624 5.28351,-0.62097 4.63126,0.67776 -0.79002,1.57307 -5.34736,0.8831 -5.79672,0.89574 -5.79672,0.16317 z m 60.24378,-0.76009 c -4.09703,-0.5311 -5.10479,-0.90161 -4.39175,-1.61465 0.69103,-0.69103 9.63335,0.66729 9.91028,1.50536 0.28872,0.87373 0.36663,0.87219 -5.51853,0.10929 z m -46.80378,-1.12796 c 0,-0.89069 2.41077,-1.36286 7.008,-1.37259 2.39948,-0.005 3.87341,0.22615 3.52,0.55221 -0.86343,0.79661 -10.528,1.54971 -10.528,0.82038 z m 33.12,0.0317 c -3.56286,-0.13428 -4.96,-0.42269 -4.96,-1.02389 0,-0.64287 1.15022,-0.76798 4.96,-0.53951 4.51375,0.27068 6.8712,0.92187 5.49577,1.51808 -0.29467,0.12773 -2.76777,0.14812 -5.49577,0.0453 z m -19.04,-1.41303 c 0,-0.37293 2.12074,-0.64 5.08223,-0.64 2.79523,0 5.26022,0.288 5.47777,0.64 0.25193,0.40763 -1.59335,0.64 -5.08222,0.64 -3.22519,0 -5.47778,-0.26318 -5.47778,-0.64 z" />
      <g
         id="g1433"
         style="fill:#5aa2df;fill-opacity:1;stroke:#5aa2df;stroke-opacity:1;stroke-width:0.5;stroke-miterlimit:4;stroke-dasharray:none">
        <path
           id="path927-6"
           style="fill:#5aa2df;fill-opacity:1;stroke-width:0.5;stroke:#5aa2df;stroke-opacity:1;stroke-miterlimit:4;stroke-dasharray:none"
           d="m 64.926056,327.20424 c 1.081774,-3.63698 2.739674,-7.31724 3.39466,-7.53556 0.765742,-0.25525 -2.153808,7.46019 -3.214753,8.49556 -0.446113,0.43536 -0.503638,0.1284 -0.179907,-0.96 z m 491.873964,13.40865 c -4.66522,-2.54469 -6.78012,-3.89611 -6.51388,-4.16234 0.35301,-0.35302 5.89171,2.3958 7.79388,3.86805 1.46942,1.1373 0.62249,1.33203 -1.28,0.29429 z m -14.88,-8.12137 c -4.40031,-2.47484 -5.55279,-4.11971 -1.40325,-2.00277 4.30089,2.19415 6.5002,3.66355 5.93642,3.96623 -0.29324,0.15743 -2.33317,-0.72613 -4.53317,-1.96346 z m -12,-6.55439 c -1.76,-1.00949 -3.488,-1.94714 -3.84,-2.08367 -0.352,-0.13652 -0.44763,-0.45603 -0.2125,-0.71001 0.47321,-0.51116 8.1928,3.52185 8.2049,4.28655 0.0118,0.74347 -0.69892,0.48796 -4.1524,-1.49287 z m -12.48,-6.77493 c -4.87292,-2.72698 -4.79478,-2.6708 -4.34332,-3.12227 0.47272,-0.47271 8.82332,4.15412 8.82332,4.88875 0,0.77801 0.2262,0.8672 -4.48,-1.76648 z M 69.772038,314.47 c 1.081774,-3.63698 2.739674,-7.31724 3.39466,-7.53556 0.765742,-0.25525 -2.153808,7.46019 -3.214753,8.49556 -0.446113,0.43536 -0.503638,0.1284 -0.179907,-0.96 z m 435.393692,-1.93793 c -3.21033,-1.65747 -5.15662,-3.18207 -4.06221,-3.18207 0.6275,0 6.32331,3.02577 7.6965,4.0886 2.01808,1.56196 0.33254,1.14152 -3.63429,-0.90653 z m -12.84525,-6.97479 c -2.37574,-1.31718 -4.14348,-2.57093 -3.92832,-2.7861 0.35658,-0.35657 6.79055,2.86788 8.20519,4.11211 1.65122,1.45232 -0.42903,0.80735 -4.27687,-1.32601 z M 74.560004,302.59252 c 0,-1.30495 3.425837,-9.17849 3.873299,-8.90194 0.26768,0.16544 -0.303437,2.17362 -1.269146,4.46262 -1.717811,4.07168 -2.604153,5.58263 -2.604153,4.43932 z m 405.440016,-3.58988 c -4.41106,-2.25812 -4.50283,-2.32316 -3.99499,-2.83098 0.36133,-0.36133 8.79499,4.04338 8.79499,4.59342 0,0.54171 -1.05765,0.15337 -4.8,-1.76244 z m -12.16,-6.4 c -4.41477,-2.26003 -4.50318,-2.3228 -3.99177,-2.83421 0.48427,-0.48427 8.15177,3.57039 8.15177,4.31074 0,0.70152 0.30859,0.81105 -4.16,-1.47653 z M 81.239985,286.01911 c 1.934643,-4.37458 2.875513,-6.0066 2.900557,-5.03129 0.03168,1.23476 -3.299911,8.52218 -3.896122,8.52218 -0.301555,0 0.146451,-1.5709 0.995565,-3.49089 z m 373.800035,-0.15918 c -2.464,-1.26892 -4.12822,-2.42802 -3.69824,-2.57578 0.9269,-0.31853 8.49824,3.59712 8.49824,4.39502 0,0.70492 0.38429,0.85057 -4.8,-1.81924 z m -12.64,-6.63097 c -2.024,-1.04471 -3.68,-2.20765 -3.68,-2.5843 0,-0.52236 7.46486,3.09783 8.90666,4.31941 1.07695,0.91245 -2.21381,-0.18 -5.22666,-1.73511 z M 86.49489,274.31 c 1.249536,-3.03048 3.483412,-6.71503 3.849344,-6.34911 0.386407,0.38642 -3.789574,8.74911 -4.36894,8.74911 -0.258484,0 -0.02464,-1.08 0.519596,-2.4 z m 343.10513,-1.48108 c -2.024,-1.04471 -3.68,-2.18649 -3.68,-2.53726 0,-0.35079 2.016,0.37745 4.48,1.6183 2.464,1.24085 4.48,2.39647 4.48,2.56804 0,0.70761 -1.80854,0.14275 -5.28,-1.64908 z m -12.64,-6.67888 c -2.288,-1.19784 -3.728,-2.17789 -3.2,-2.17789 0.528,0 2.832,0.98005 5.12,2.17789 2.288,1.19784 3.728,2.17789 3.2,2.17789 -0.528,0 -2.832,-0.98005 -5.12,-2.17789 z M 91.840004,264.20873 c 0,-0.59801 3.059623,-6.32928 4.088595,-7.65873 1.731156,-2.23668 1.109933,-0.26343 -1.239916,3.9385 -2.048423,3.66291 -2.848679,4.70801 -2.848679,3.72023 z m 312.735976,-4.21219 c -2.05921,-1.06252 -3.60048,-2.07539 -3.42504,-2.25083 0.17544,-0.17544 2.29225,0.69358 4.70403,1.93116 2.41177,1.23757 3.95305,2.25045 3.42505,2.25083 -0.528,3.8e-4 -2.64482,-0.86864 -4.70404,-1.93116 z m -12.25596,-5.7939 c -4.37808,-2.24124 -4.49985,-2.32613 -4.02211,-2.80387 0.44948,-0.44948 8.82211,3.65857 8.82211,4.32859 0,0.79522 -0.70673,0.57073 -4.8,-1.52472 z M 98.880004,251.82592 c 0,-0.42757 1.042842,-2.41957 2.317426,-4.42667 2.75061,-4.33139 2.70686,-4.2783 3.15598,-3.82919 0.19436,0.19437 -0.81976,2.1685 -2.25361,4.38694 -3.01922,4.67132 -3.219796,4.91233 -3.219796,3.86892 z m 280.320016,-4.03885 c -2.288,-1.07145 -3.82369,-2.07422 -3.41264,-2.22837 0.73108,-0.27417 8.53264,3.347 8.53264,3.96052 0,0.55104 -0.88061,0.25312 -5.12,-1.73215 z m -12.32001,-5.75639 c -4.26403,-1.94599 -6.27144,-3.92862 -2.24,-2.21237 4.32525,1.84134 6.88,3.22649 6.88,3.73022 0,0.65407 0.42065,0.79167 -4.64,-1.51785 z M 106.57706,239.75 c 0.0312,-0.87713 5.54977,-7.81984 5.92085,-7.44876 0.20056,0.20056 -0.83742,2.05106 -2.30662,4.1122 -2.45593,3.44544 -3.65751,4.55469 -3.61423,3.33656 z m 247.50295,-3.53901 c -4.35639,-1.99309 -6.242,-3.86925 -2.08,-2.06958 1.232,0.53272 3.248,1.40446 4.48,1.93718 1.232,0.53272 2.24,1.25272 2.24,1.6 0,0.34728 -0.072,0.60383 -0.16,0.57012 -0.088,-0.0337 -2.104,-0.95068 -4.48,-2.03772 z m -12.61938,-5.56551 c -2.27667,-0.99649 -4.24238,-2.12079 -4.36827,-2.49844 -0.12588,-0.37765 1.80884,0.2134 4.29939,1.31346 2.49054,1.10004 4.52826,2.24521 4.52826,2.54479 0,0.29959 -0.072,0.52385 -0.16,0.49835 -0.088,-0.0255 -2.02272,-0.86167 -4.29938,-1.85816 z M 114.96,228.85376 c 0.42675,-1.16688 6.43816,-7.27893 6.80161,-6.91548 0.1936,0.1936 -1.05399,1.86843 -2.77243,3.72186 -3.10865,3.35284 -4.48694,4.4453 -4.02918,3.19362 z m 213.20001,-3.82658 c -2.2,-0.90145 -4,-1.90559 -4,-2.23143 0,-0.32583 0.21716,-0.49642 0.48258,-0.37908 0.26541,0.11733 2.28141,0.93186 4.48,1.81007 2.19858,0.87821 3.99742,1.81421 3.99742,2.08 0,0.68296 -0.46019,0.56424 -4.96,-1.27956 z m -11.36,-4.73655 c -1.76,-0.72026 -3.88794,-1.57661 -4.72876,-1.903 -0.84082,-0.32639 -1.36101,-0.76119 -1.15598,-0.96621 0.49568,-0.49569 9.40474,3.01848 9.40474,3.70969 0,0.65584 0.3273,0.73399 -3.52,-0.84048 z m -188.89038,-4.761 c 2.06231,-1.94354 3.93431,-3.3483 4.16001,-3.1217 0.46823,0.4701 -6.29309,6.66289 -7.26964,6.65836 -0.352,-0.002 1.04734,-1.59313 3.10963,-3.53666 z m 174.33038,-0.77947 c -2.376,-0.85336 -4.32,-1.80074 -4.32,-2.10529 0,-0.53127 7.99908,2.09086 8.78942,2.88121 0.90802,0.90803 -0.42533,0.67655 -4.46942,-0.77592 z m -13.39205,-4.83957 c -3.63862,-1.37384 -5.21286,-2.32059 -3.85862,-2.32059 1.04664,0 8.02123,2.61709 8.73867,3.27903 0.98366,0.90756 -0.93697,0.53035 -4.88005,-0.95844 z m -153.18644,-0.37067 c 0.73064,-1.1822 7.35492,-5.26444 8.12572,-5.00751 0.37291,0.1243 -1.14729,1.36711 -3.37823,2.76179 -4.79297,2.99636 -5.38429,3.27608 -4.74749,2.24572 z m 139.85849,-4.06016 c -4.71304,-1.53235 -4.83255,-1.59055 -4.31943,-2.10366 0.49756,-0.49756 9.43943,2.40102 9.43943,3.05987 0,0.67525 -0.23995,0.63043 -5.12,-0.95621 z m -128,-3.3699 c 0,-0.57064 8.4181,-4.23509 8.81568,-3.83752 0.43623,0.43624 0.63161,0.31272 -3.86985,2.44652 -3.64754,1.72903 -4.94583,2.09417 -4.94583,1.391 z m 115.02319,-0.59507 c -4.1617,-1.14464 -5.18864,-1.57267 -4.77222,-1.98908 0.42851,-0.42852 8.21945,1.63096 9.07703,2.39945 0.83079,0.74448 -0.60293,0.6078 -4.30481,-0.41037 z m -15.37348,-3.98469 c -2.04066,-0.53507 -3.55979,-1.12335 -3.37585,-1.30729 0.40101,-0.40101 7.96175,1.09143 9.32614,1.84092 1.57015,0.86251 -1.76709,0.56322 -5.95029,-0.53363 z m -86.84971,-0.66251 c 0,-0.73362 8.88141,-3.64952 9.4337,-3.09723 0.53817,0.53817 0.26692,0.66934 -3.6737,1.77648 -1.936,0.54392 -4.024,1.20296 -4.64,1.46453 -0.62273,0.26443 -1.12,0.20059 -1.12,-0.14378 z m 73.12,-2.25168 c -1.848,-0.35526 -3.36,-0.89343 -3.36,-1.19592 0,-0.69347 0.12275,-0.68461 4.99454,0.36037 6.94278,1.48919 5.52788,2.21247 -1.63454,0.83555 z m -59.28966,-1.63211 c -0.37553,-0.60762 0.83796,-0.91849 6.90079,-1.76783 2.01924,-0.28287 2.99152,-0.21275 2.73799,0.19747 -0.21622,0.34985 -1.96072,0.82034 -3.87667,1.04552 -1.91595,0.22518 -3.91092,0.57342 -4.43326,0.77386 -0.52234,0.20044 -1.12033,0.0884 -1.32885,-0.24902 z m 44.56966,-0.58241 c -1.496,-0.13474 -2.72,-0.53715 -2.72,-0.89424 0,-0.67724 5.83278,-0.18228 8.92908,0.75771 1.36467,0.41429 1.213,0.48585 -0.92908,0.43832 -1.408,-0.0312 -3.784,-0.16705 -5.28,-0.30179 z m -30.88,-1.31887 c 0,-0.79326 8.99706,-1.37089 9.888,-0.63483 0.3344,0.27627 -0.8536,0.50231 -2.64,0.50231 -1.7864,0 -4.148,0.18 -5.248,0.4 -1.21725,0.24345 -2,0.13876 -2,-0.26748 z m 17.44,0.0357 c -5.36397,-0.37525 -3.88339,-1.14938 1.7585,-0.91943 2.81682,0.1148 5.1215,0.4748 5.1215,0.8 0,0.32519 -0.792,0.53799 -1.76,0.47287 -0.968,-0.0651 -3.272,-0.22416 -5.12,-0.35344 z" />
      </g>
      <g
         id="g1429"
         style="fill:#5fe7e1;fill-opacity:1">
        <path
           style="fill:#5fe7e1;fill-opacity:1;stroke-width:1"
           d="m 198.08001,144.96117 c 0,-0.30185 1.77025,-0.73385 3.93388,-0.96 5.61668,-0.58705 6.30612,-0.52705 6.30612,0.54883 0,0.77333 -0.99556,0.96 -5.12,0.96 -2.816,0 -5.12,-0.24697 -5.12,-0.54883 z"
           id="path1157" />
        <path
           style="fill:#5fe7e1;fill-opacity:1;stroke-width:1"
           d="m 217.45327,145.53608 c -2.5447,-0.23442 -4.8247,-0.62419 -5.06666,-0.86614 -0.96176,-0.96176 0.53699,-1.17756 5.1658,-0.74381 3.48017,0.32612 4.8476,0.70385 4.8476,1.33907 0,0.48664 -0.072,0.84257 -0.16,0.79095 -0.088,-0.0516 -2.24203,-0.28565 -4.78674,-0.52007 z"
           id="path1155" />
        <path
           style="fill:#5fe7e1;fill-opacity:1;stroke-width:1"
           d="m 184.33847,147.45987 c -0.3881,-0.62796 2.45176,-1.5313 7.11586,-2.26349 1.57668,-0.24751 2.81813,-0.15165 3.05778,0.23613 0.23417,0.37888 -0.6111,0.82523 -2.01431,1.06367 -1.32978,0.22597 -3.42579,0.67092 -4.65779,0.98877 -2.80893,0.7247 -3.03917,0.72305 -3.50154,-0.0251 z"
           id="path1153" />
        <path
           style="fill:#5fe7e1;fill-opacity:1;stroke-width:1"
           d="m 231.20001,147.5611 c -3.34045,-0.66853 -4.96,-1.28403 -4.96,-1.88501 0,-0.54762 0.43267,-0.76615 1.12,-0.56569 0.616,0.17965 2.92,0.66853 5.12,1.08639 2.59031,0.492 4,1.06873 4,1.63649 0,0.4822 -0.072,0.84157 -0.16,0.79861 -0.088,-0.0429 -2.392,-0.52482 -5.12,-1.07079 z"
           id="path1151" />
        <path
           style="fill:#5fe7e1;fill-opacity:1;stroke-width:1"
           d="m 247.68001,151.57207 c -0.352,-0.13029 -2.2997,-0.70507 -4.32822,-1.27728 -2.02853,-0.57222 -3.51629,-1.3186 -3.30614,-1.65862 0.21015,-0.34003 0.86184,-0.48506 1.44823,-0.3223 7.08925,1.96778 8.42613,2.43963 8.42613,2.97401 0,0.61551 -1.00155,0.74258 -2.24,0.28419 z"
           id="path1149" />
        <path
           style="fill:#5fe7e1;fill-opacity:1;stroke-width:1"
           d="m 171.64527,151.80453 c 0,-0.43852 2.16,-1.52354 4.8,-2.41117 3.20659,-1.07811 4.79986,-1.36288 4.79955,-0.85783 -2.4e-4,0.41582 -2.16024,1.50084 -4.8,2.41117 -3.37191,1.16281 -4.79955,1.41797 -4.79955,0.85783 z"
           id="path1147" />
        <path
           style="fill:#5fe7e1;fill-opacity:1;stroke-width:1"
           d="m 258.27958,154.85876 c -2.26623,-0.78722 -4.2443,-1.80296 -4.39571,-2.2572 -0.2007,-0.60209 0.13541,-0.6956 1.24042,-0.34508 5.60541,1.77807 7.87318,2.72587 8.09186,3.38195 0.32631,0.9789 -0.041,0.92089 -4.93657,-0.77967 z"
           id="path1145" />
        <path
           style="fill:#5fe7e1;fill-opacity:1;stroke-width:1"
           d="m 158.57152,158.00638 c -0.4753,-0.76904 8.41685,-5.3797 9.31034,-4.82749 0.40119,0.24795 -1.34122,1.51996 -3.99466,2.91622 -5.37079,2.82615 -4.86308,2.6436 -5.31568,1.91127 z"
           id="path1143" />
        <path
           style="fill:#5fe7e1;fill-opacity:1;stroke-width:1"
           d="m 271.68001,159.65689 c -1.584,-0.62882 -3.43216,-1.34256 -4.10702,-1.58608 -0.81824,-0.29526 -1.01374,-0.65604 -0.58683,-1.08295 0.67868,-0.67869 9.81385,2.48573 9.81385,3.3995 0,0.78357 -2.03887,0.49268 -5.12,-0.73047 z"
           id="path1141" />
        <path
           style="fill:#5fe7e1;fill-opacity:1;stroke-width:1"
           d="m 147.64853,165.84981 c -0.38284,-0.61944 6.65675,-5.87795 7.86883,-5.87795 1.30298,0 0.67859,0.95467 -1.71539,2.62277 -4.63769,3.23148 -5.79102,3.84159 -6.15344,3.25518 z"
           id="path1139" />
        <path
           style="fill:#5fe7e1;fill-opacity:1;stroke-width:1"
           d="m 284.84682,164.65291 c -4.87267,-2.06192 -5.25798,-2.30507 -4.63698,-2.92607 0.66797,-0.66796 9.39017,3.08922 9.39017,4.04491 0,0.47204 -0.072,0.83549 -0.16,0.80768 -0.088,-0.0278 -2.15493,-0.89475 -4.59319,-1.92652 z"
           id="path1137" />
        <path
           style="fill:#5fe7e1;fill-opacity:1;stroke-width:1"
           d="m 298.88001,170.43657 c -1.408,-0.66212 -3.40581,-1.50525 -4.43959,-1.87361 -1.27413,-0.45401 -1.66992,-0.87945 -1.22867,-1.3207 0.72095,-0.72094 8.88202,2.43302 9.13857,3.53174 0.24063,1.0306 -0.7702,0.93231 -3.47031,-0.33743 z"
           id="path1135" />
        <path
           style="fill:#5fe7e1;fill-opacity:1;stroke-width:1"
           d="m 137.01563,175.12094 c 0,-1.12004 6.87293,-7.20949 7.4668,-6.61561 0.531,0.53099 -0.64128,1.87107 -4.36152,4.98584 -2.05784,1.72291 -3.10528,2.27265 -3.10528,1.62977 z"
           id="path1133" />
        <path
           style="fill:#5fe7e1;fill-opacity:1;stroke-width:1"
           d="m 310.7354,175.61824 c -3.7028,-1.65808 -5.647,-3.22824 -3.99724,-3.22824 1.44468,0 9.11823,3.93572 8.77051,4.49836 -0.47132,0.76261 0.11404,0.91837 -4.77327,-1.27012 z"
           id="path1131" />
        <path
           style="fill:#5fe7e1;fill-opacity:1;stroke-width:1"
           d="m 323.04001,181.1749 c -3.59118,-1.81199 -4.97395,-3.0249 -3.44852,-3.0249 1.19896,0 9.04852,3.89192 9.04852,4.48637 0,1.0318 -1.36416,0.67579 -5.6,-1.46147 z"
           id="path1129" />
        <path
           style="fill:#5fe7e1;fill-opacity:1;stroke-width:1"
           d="m 128.30036,184.79989 c 0.0291,-1.14233 6.1811,-7.92828 6.70996,-7.40139 0.52095,0.51902 -0.42617,1.94416 -3.68865,5.55038 -2.55043,2.81912 -3.05381,3.12752 -3.02131,1.85101 z"
           id="path1127" />
        <path
           style="fill:#5fe7e1;fill-opacity:1;stroke-width:1"
           d="m 335.52001,187.06901 c -2.024,-1.04471 -3.68,-2.20686 -3.68,-2.58255 0,-0.37569 0.23167,-0.58708 0.51481,-0.46974 5.59739,2.31954 9.08519,4.03533 9.08519,4.46934 0,1.02004 -2.23482,0.4851 -5.92,-1.41705 z"
           id="path1125" />
        <path
           style="fill:#5fe7e1;fill-opacity:1;stroke-width:1"
           d="m 348.64001,193.3349 c -2.2,-1.11005 -4,-2.3864 -4,-2.83634 0,-0.52628 1.69876,0.0225 4.76251,1.53847 2.61937,1.2961 4.61838,2.58974 4.44222,2.87476 -0.46352,0.74999 -0.78775,0.65176 -5.20473,-1.57689 z"
           id="path1115" />
        <path
           style="fill:#5fe7e1;fill-opacity:1;stroke-width:1"
           d="m 361.09537,199.53728 c -2.38954,-1.22638 -4.17488,-2.50444 -3.9674,-2.84016 0.4439,-0.71824 9.27204,3.56721 9.27204,4.50092 0,0.94775 -0.56933,0.7695 -5.30464,-1.66076 z"
           id="path1107" />
        <path
           style="fill:#5fe7e1;fill-opacity:1;stroke-width:1"
           d="m 373.92001,205.9497 c -2.376,-1.21955 -4.32,-2.50138 -4.32,-2.84853 0,-0.92366 0.24434,-0.84652 5.161,1.62947 2.46896,1.24335 4.31678,2.53935 4.10625,2.88 -0.21053,0.34065 -0.43779,0.6052 -0.50502,0.58788 -0.0672,-0.0173 -2.06622,-1.02928 -4.44223,-2.24882 z"
           id="path1099" />
        <path
           style="fill:#5fe7e1;fill-opacity:1;stroke-width:1"
           d="m 386.05538,212.33728 c -2.38955,-1.22638 -4.17488,-2.50444 -3.96741,-2.84016 0.4439,-0.71824 9.27205,3.56721 9.27205,4.50092 0,0.94775 -0.56934,0.7695 -5.30464,-1.66076 z"
           id="path1093" />
        <path
           style="fill:#5fe7e1;fill-opacity:1;stroke-width:1"
           d="m 399.36002,219.33155 c -2.112,-1.15688 -4.128,-2.21657 -4.48,-2.35487 -0.352,-0.13829 -0.41886,-0.48802 -0.14856,-0.77717 0.52633,-0.56305 9.42856,3.47459 9.42856,4.27636 0,1.11878 -1.18362,0.83661 -4.8,-1.14432 z"
           id="path1087" />
        <path
           style="fill:#5fe7e1;fill-opacity:1;stroke-width:1"
           d="m 410.97019,225.57767 c -2.56914,-1.44312 -4.08932,-2.65154 -3.6653,-2.9136 0.81815,-0.50565 9.01513,3.85625 9.01513,4.79725 0,0.97438 -0.70146,0.7274 -5.34983,-1.88365 z"
           id="path1081" />
        <path
           style="fill:#5fe7e1;fill-opacity:1;stroke-width:1"
           d="m 423.20994,232.34287 c -5.42647,-3.00573 -4.70547,-4.23632 0.79008,-1.34849 2.464,1.29479 4.48,2.6065 4.48,2.9149 0,0.97192 -1.48352,0.53098 -5.27008,-1.56641 z"
           id="path1075" />
        <path
           style="fill:#5fe7e1;fill-opacity:1;stroke-width:1"
           d="m 435.68002,239.16797 c -3.44116,-1.93816 -4.99829,-3.41797 -3.59655,-3.41797 1.05522,0 9.0883,4.77738 8.80469,5.23627 -0.47664,0.77122 -0.82884,0.64825 -5.20814,-1.8183 z"
           id="path1069" />
        <path
           style="fill:#5fe7e1;fill-opacity:1;stroke-width:1"
           d="m 448.16565,246.1315 c -4.08118,-2.25278 -5.24993,-3.3415 -3.58714,-3.3415 1.37407,0 8.89168,4.5534 8.51742,5.15898 -0.46403,0.75081 0.0974,0.95776 -4.93028,-1.81748 z"
           id="path1065" />
        <path
           style="fill:#5fe7e1;fill-opacity:1;stroke-width:1"
           d="m 460.30531,252.93058 c -2.38301,-1.39612 -4.16734,-2.80603 -3.96519,-3.13312 0.20216,-0.32709 1.74236,0.19442 3.42267,1.15891 4.82979,2.77229 6.116,3.7458 5.47356,4.14285 -0.32907,0.20338 -2.54804,-0.77251 -4.93104,-2.16864 z"
           id="path1049" />
        <path
           style="fill:#5fe7e1;fill-opacity:1;stroke-width:1"
           d="m 472.47599,259.95934 c -5.18695,-3.06914 -5.13826,-4.64401 0.0534,-1.72657 4.33676,2.43704 5.23065,3.09252 5.23065,3.83559 0,0.88694 -0.67833,0.61619 -5.28403,-2.10902 z"
           id="path1035" />
        <path
           style="fill:#5fe7e1;fill-opacity:1;stroke-width:1"
           d="m 484.63599,266.99934 c -5.18695,-3.06914 -5.13826,-4.64401 0.0534,-1.72657 4.33676,2.43704 5.23065,3.09252 5.23065,3.83559 0,0.88694 -0.67833,0.61619 -5.28403,-2.10902 z"
           id="path1023" />
        <path
           style="fill:#5fe7e1;fill-opacity:1;stroke-width:1"
           d="m 497.21845,274.2874 c -2.14586,-1.30757 -3.87386,-2.6654 -3.84,-3.0174 0.0822,-0.85451 0.69457,-0.60834 5.02157,2.01856 2.024,1.22876 3.68,2.50126 3.68,2.82777 0,0.96034 -0.74246,0.68103 -4.86157,-1.82893 z"
           id="path1013" />
        <path
           style="fill:#5fe7e1;fill-opacity:1;stroke-width:1"
           d="m 509.28002,281.36171 c -2.2,-1.304 -4,-2.77321 -4,-3.26491 0,-0.75536 0.22333,-0.75013 1.44,0.0337 0.792,0.51025 2.808,1.72274 4.48,2.69442 1.672,0.97169 3.04,2.02734 3.04,2.34589 0,0.95508 -0.77087,0.67392 -4.96,-1.8091 z"
           id="path1003" />
        <path
           style="fill:#5fe7e1;fill-opacity:1;stroke-width:1"
           d="m 521.12002,288.4814 c -3.21578,-1.98742 -4.5971,-3.4514 -3.25655,-3.4514 0.81573,0 8.53655,4.75102 8.53655,5.25298 0,1.00152 -1.66199,0.43444 -5.28,-1.80158 z"
           id="path991" />
        <path
           style="fill:#5fe7e1;fill-opacity:1;stroke-width:1"
           d="m 533.29662,295.67367 c -2.36687,-1.43709 -4.06667,-2.84962 -3.77734,-3.13895 0.49111,-0.49111 8.04657,3.56443 8.74456,4.69381 0.87217,1.4112 -1.09777,0.79456 -4.96722,-1.55486 z"
           id="path981" />
        <path
           style="fill:#5fe7e1;fill-opacity:1;stroke-width:1"
           d="m 547.84002,304.58564 c -0.704,-0.47147 -2.51462,-1.61869 -4.02361,-2.54936 -1.50898,-0.93068 -2.58096,-1.95528 -2.38218,-2.27691 0.19877,-0.32163 2.35002,0.61154 4.78054,2.07371 2.43053,1.46216 4.27752,2.88763 4.10442,3.1677 -0.42567,0.68875 -0.96594,0.59828 -2.47917,-0.41514 z"
           id="path955" />
        <path
           style="fill:#5fe7e1;fill-opacity:1;stroke-width:1"
           d="m 557.60002,310.46424 c -4.04474,-2.52801 -5.19169,-3.67424 -3.67653,-3.67424 1.19909,0 8.31653,4.79103 8.31653,5.59818 0,1.04295 0.31774,1.1747 -4.64,-1.92394 z"
           id="path935" />
        <path
           style="fill:#5fe7e1;fill-opacity:1;stroke-width:1"
           d="m 569.44002,317.68013 c -2.2,-1.3957 -4,-2.83297 -4,-3.19392 0,-0.36094 0.12736,-0.65626 0.28304,-0.65626 0.74089,0 8.67696,5.33356 8.67696,5.83149 0,0.97101 -0.8273,0.64054 -4.96,-1.98131 z"
           id="path919" />
        <path
           style="fill:#5fe7e1;fill-opacity:1;stroke-width:1"
           d="m 581.2383,325.01163 c -2.39893,-1.50399 -4.05441,-2.92445 -3.67883,-3.15657 0.62706,-0.38754 8.02887,3.72051 8.72082,4.8401 0.88286,1.4285 -1.17316,0.742 -5.04199,-1.68353 z"
           id="path901" />
        <path
           style="fill:#5fe7e1;fill-opacity:1;stroke-width:1"
           d="m 593.08563,332.37844 c -2.21891,-1.40767 -3.86731,-2.82973 -3.6631,-3.16015 0.41027,-0.66382 8.65749,4.25469 8.65749,5.1632 0,0.97212 -0.8282,0.63996 -4.99439,-2.00305 z"
           id="path887" />
        <path
           style="fill:#5fe7e1;fill-opacity:1;stroke-width:1"
           d="m 605.28002,340.08018 c -2.2,-1.3957 -4,-2.83297 -4,-3.19392 0,-0.36094 0.15106,-0.65626 0.33568,-0.65626 0.78623,0 8.62432,5.28703 8.62432,5.81737 0,0.98614 -0.81315,0.66363 -4.96,-1.96719 z"
           id="path873" />
        <path
           style="fill:#5fe7e1;fill-opacity:1;stroke-width:1"
           d="m 121.55228,195.76675 c -0.31978,-1.07342 4.52844,-8.87171 5.26715,-8.4721 0.6605,0.35728 -0.0804,1.97628 -2.75644,6.02357 -1.48027,2.23873 -2.32716,3.06465 -2.51071,2.44853 z"
           id="path1133-3" />
        <path
           style="fill:#5fe7e1;fill-opacity:1;stroke-width:0.999998"
           d="m 115.64342,205.81457 c -0.18998,-0.97177 4.01348,-7.89267 4.56668,-7.51889 0.49463,0.33417 -0.17127,1.77615 -2.47725,5.365 -1.2756,1.98513 -1.98039,2.71166 -2.08943,2.15389 z"
           id="path1133-3-1" />
        <path
           style="fill:#5fe7e1;fill-opacity:1;stroke-width:1"
           d="m 109.81033,216.43733 c -0.34547,-0.45418 4.13621,-8.46711 4.69334,-8.39137 0.6113,0.0831 0.69204,-0.13344 -1.59897,4.29004 -1.8564,3.5844 -2.66868,4.661 -3.09437,4.10133 z"
           id="path1103-7" />
        <path
           style="fill:#5fe7e1;fill-opacity:1;stroke-width:1"
           d="m 106.5183,222.62797 c 1.21669,-2.55932 2.4515,-4.54754 2.74402,-4.41825 0.60688,0.26819 -3.44704,8.49205 -4.35869,8.84212 -0.32875,0.12585 0.39801,-1.86456 1.61467,-4.42387 z"
           id="path1089-5" />
        <path
           style="fill:#5fe7e1;fill-opacity:1;stroke-width:1"
           d="m 99.862664,237.81424 c -0.0562,-0.59537 2.451436,-6.58874 3.350946,-8.00899 1.51336,-2.38943 1.08027,-0.36655 -0.86439,4.03758 -1.69523,3.83916 -2.393746,4.95482 -2.486556,3.97141 z"
           id="path1029-9" />
        <path
           style="fill:#5fe7e1;fill-opacity:1;stroke-width:1"
           d="m 96.317579,245.8521 c 1.84041,-4.31426 2.718537,-5.91723 2.707125,-4.94175 -0.01447,1.23499 -3.175381,8.41868 -3.696524,8.40088 -0.263586,-0.009 0.181645,-1.56561 0.989399,-3.45913 z"
           id="path993-6" />
        <path
           style="fill:#5fe7e1;fill-opacity:1;stroke-width:1"
           d="m 91.236782,257.61943 c 1.84041,-4.31426 2.718537,-5.91723 2.707125,-4.94175 -0.01447,1.23499 -3.175381,8.41868 -3.696524,8.40088 -0.263586,-0.009 0.181646,-1.56561 0.989399,-3.45913 z"
           id="path993-6-2" />
        <path
           style="fill:#5fe7e1;fill-opacity:1;stroke-width:1"
           d="m 85.754801,271.61068 c 1.84041,-4.31426 2.718537,-5.91723 2.707125,-4.94175 -0.01447,1.23499 -3.175381,8.41868 -3.696524,8.40088 -0.263586,-0.009 0.181646,-1.56561 0.989399,-3.45913 z"
           id="path993-6-2-1" />
        <path
           style="fill:#5fe7e1;fill-opacity:1;stroke-width:0.999997"
           d="m 79.723292,286.59033 c 1.596712,-4.31425 2.358562,-5.91723 2.348661,-4.94175 -0.01255,1.23499 -2.754913,8.41868 -3.207049,8.40088 -0.228683,-0.009 0.157593,-1.56561 0.858388,-3.45913 z"
           id="path993-6-2-1-7" />
      </g>
      <path
         d="m 43.185666,10.516159 h -5.5487 l -1.093887,2.568255 H 34.41872 l 4.99383,-11.0974 h 2.029239 l 5.009683,11.0974 H 44.295406 Z M 42.503968,8.899109 40.411316,4.0479598 38.334517,8.899109 Z"
         style="font-style:normal;font-variant:normal;font-weight:600;font-stretch:normal;font-size:8px;line-height:0.1;font-family:Montserrat;-inkscape-font-specification:'Montserrat, Semi-Bold';font-variant-ligatures:normal;font-variant-caps:normal;font-variant-numeric:normal;font-variant-east-asian:normal;letter-spacing:0px;word-spacing:0px;white-space:pre;inline-size:64.1195;fill:#000000;fill-opacity:1;stroke:none;stroke-width:0.999999"
         id="path1225" />
      <path
         d="m 52.475755,4.5235626 q 1.601197,0 2.568256,0.9353523 0.967059,0.9353523 0.967059,2.7743501 v 4.851149 H 54.029391 V 8.4869198 q 0,-1.10974 -0.523163,-1.66461 -0.523163,-0.5707234 -1.490222,-0.5707234 -1.093887,0 -1.728024,0.665844 -0.634137,0.6499905 -0.634137,1.886558 V 13.084414 H 47.672166 V 4.6186832 h 1.886558 v 1.0938866 q 0.491457,-0.5865769 1.236568,-0.887792 0.745111,-0.3012152 1.680463,-0.3012152 z"
         style="font-style:normal;font-variant:normal;font-weight:600;font-stretch:normal;font-size:8px;line-height:0.1;font-family:Montserrat;-inkscape-font-specification:'Montserrat, Semi-Bold';font-variant-ligatures:normal;font-variant-caps:normal;font-variant-numeric:normal;font-variant-east-asian:normal;letter-spacing:0px;word-spacing:0px;white-space:pre;inline-size:64.1195;fill:#000000;fill-opacity:1;stroke:none;stroke-width:0.999999"
         id="path1227" />
      <path
         d="m 67.01333,4.6186832 v 7.1816028 q 0,4.470667 -4.565788,4.470667 -1.220714,0 -2.3146,-0.317068 -1.093887,-0.301215 -1.807291,-0.887792 l 0.887792,-1.490223 q 0.55487,0.45975 1.395101,0.729258 0.856086,0.285362 1.728024,0.285362 1.395102,0 2.045093,-0.634137 0.64999,-0.634137 0.64999,-1.934119 v -0.443896 q -0.50731,0.55487 -1.236567,0.840232 -0.729258,0.285362 -1.601197,0.285362 -1.20486,0 -2.187773,-0.50731 -0.967059,-0.523163 -1.537782,-1.458515 -0.55487,-0.9353526 -0.55487,-2.1402132 0,-1.2048606 0.55487,-2.1243594 0.570723,-0.9353523 1.537782,-1.4426621 0.982913,-0.5073097 2.187773,-0.5073097 0.919499,0 1.66461,0.3012152 0.760965,0.3012151 1.268275,0.9194988 V 4.6186832 Z m -4.518228,6.4047848 q 1.125594,0 1.838998,-0.665844 0.729258,-0.681697 0.729258,-1.7597302 0,-1.0621797 -0.729258,-1.7280237 -0.713404,-0.665844 -1.838998,-0.665844 -1.141446,0 -1.870704,0.665844 -0.713404,0.665844 -0.713404,1.7280237 0,1.0780332 0.713404,1.7597302 0.729258,0.665844 1.870704,0.665844 z"
         style="font-style:normal;font-variant:normal;font-weight:600;font-stretch:normal;font-size:8px;line-height:0.1;font-family:Montserrat;-inkscape-font-specification:'Montserrat, Semi-Bold';font-variant-ligatures:normal;font-variant-caps:normal;font-variant-numeric:normal;font-variant-east-asian:normal;letter-spacing:0px;word-spacing:0px;white-space:pre;inline-size:64.1195;fill:#000000;fill-opacity:1;stroke:none;stroke-width:0.999999"
         id="path1229" />
      <path
         d="m 72.229088,13.195388 q -1.030473,0 -2.013386,-0.269508 -0.982912,-0.269508 -1.569489,-0.681698 l 0.760965,-1.506075 q 0.570723,0.380482 1.363395,0.618283 0.808524,0.221948 1.585342,0.221948 1.775584,0 1.775584,-0.935352 0,-0.443896 -0.459749,-0.618284 Q 73.227854,9.8503147 72.229088,9.6917804 71.182762,9.5332461 70.516918,9.3271515 69.866927,9.121057 69.375471,8.6137472 68.899868,8.0905841 68.899868,7.1710852 q 0,-1.2048606 0.998766,-1.9182649 1.014619,-0.7292577 2.72679,-0.7292577 0.871938,0 1.743877,0.2060946 0.871938,0.1902411 1.426808,0.5231631 L 75.035145,6.7588961 Q 73.957112,6.1247589 72.60957,6.1247589 q -0.871938,0 -1.331688,0.2695083 -0.443896,0.2536549 -0.443896,0.6816975 0,0.4756028 0.475603,0.6816974 0.491456,0.1902411 1.506076,0.3646289 1.014619,0.1585342 1.66461,0.3646288 0.64999,0.2060946 1.10974,0.6975509 0.475603,0.4914563 0.475603,1.3951013 0,1.189008 -1.030473,1.902412 -1.030473,0.713404 -2.806057,0.713404 z"
         style="font-style:normal;font-variant:normal;font-weight:600;font-stretch:normal;font-size:8px;line-height:0.1;font-family:Montserrat;-inkscape-font-specification:'Montserrat, Semi-Bold';font-variant-ligatures:normal;font-variant-caps:normal;font-variant-numeric:normal;font-variant-east-asian:normal;letter-spacing:0px;word-spacing:0px;white-space:pre;inline-size:64.1195;fill:#000000;fill-opacity:1;stroke:none;stroke-width:0.999999"
         id="path1231" />
      <path
         d="m 82.866719,12.624665 q -0.348776,0.285361 -0.856085,0.428042 -0.491457,0.142681 -1.046327,0.142681 -1.395101,0 -2.156066,-0.729258 -0.760964,-0.729257 -0.760964,-2.124359 V 6.2674398 H 76.652175 V 4.6820969 h 1.395102 V 2.7479786 h 1.981678 v 1.9341183 h 2.26704 v 1.5853429 h -2.26704 v 4.0267712 q 0,0.618283 0.301215,0.951205 0.301215,0.317069 0.871939,0.317069 0.665844,0 1.10974,-0.348775 z"
         style="font-style:normal;font-variant:normal;font-weight:600;font-stretch:normal;font-size:8px;line-height:0.1;font-family:Montserrat;-inkscape-font-specification:'Montserrat, Semi-Bold';font-variant-ligatures:normal;font-variant-caps:normal;font-variant-numeric:normal;font-variant-east-asian:normal;letter-spacing:0px;word-spacing:0px;white-space:pre;inline-size:64.1195;fill:#000000;fill-opacity:1;stroke:none;stroke-width:0.999999"
         id="path1233" />
      <path
         d="m 687.10322,342.09442 h -3.73836 v -1.7725 h 9.57148 v 1.7725 h -3.73835 v 9.50703 h -2.09477 z"
         style="font-style:normal;font-variant:normal;font-weight:600;font-stretch:normal;font-size:8px;line-height:0.1;font-family:Montserrat;-inkscape-font-specification:'Montserrat, Semi-Bold';font-variant-ligatures:normal;font-variant-caps:normal;font-variant-numeric:normal;font-variant-east-asian:normal;letter-spacing:0px;word-spacing:0px;white-space:pre;inline-size:64.1195;fill:#000000;fill-opacity:1;stroke:none;stroke-width:0.999998"
         id="path1207" />
      <path
         d="m 694.11262,342.99678 h 2.0142 v 8.60467 h -2.0142 z m 1.01515,-1.41799 q -0.54786,0 -0.91847,-0.33839 -0.37061,-0.3545 -0.37061,-0.87013 0,-0.51564 0.37061,-0.85403 0.37061,-0.35449 0.91847,-0.35449 0.54787,0 0.91848,0.33838 0.37061,0.32227 0.37061,0.82179 0,0.53175 -0.37061,0.90237 -0.3545,0.3545 -0.91848,0.3545 z"
         style="font-style:normal;font-variant:normal;font-weight:600;font-stretch:normal;font-size:8px;line-height:0.1;font-family:Montserrat;-inkscape-font-specification:'Montserrat, Semi-Bold';font-variant-ligatures:normal;font-variant-caps:normal;font-variant-numeric:normal;font-variant-east-asian:normal;letter-spacing:0px;word-spacing:0px;white-space:pre;inline-size:64.1195;fill:#000000;fill-opacity:1;stroke:none;stroke-width:0.999998"
         id="path1209" />
      <path
         d="m 707.19686,339.64515 v 11.9563 h -1.93363 v -1.11184 q -0.49952,0.61232 -1.24075,0.91847 -0.72511,0.30616 -1.61136,0.30616 -1.24074,0 -2.23979,-0.54786 -0.98293,-0.54786 -1.5469,-1.54691 -0.56398,-1.01515 -0.56398,-2.32035 0,-1.30521 0.56398,-2.30425 0.56397,-0.99904 1.5469,-1.54691 0.99905,-0.54786 2.23979,-0.54786 0.85402,0 1.56302,0.29005 0.709,0.29004 1.20852,0.87013 v -4.41513 z m -4.54403,10.34494 q 0.72511,0 1.3052,-0.32228 0.58009,-0.33838 0.91847,-0.9507 0.33839,-0.61231 0.33839,-1.41799 0,-0.80569 -0.33839,-1.418 -0.33838,-0.61232 -0.91847,-0.93459 -0.58009,-0.33839 -1.3052,-0.33839 -0.72512,0 -1.30521,0.33839 -0.58009,0.32227 -0.91847,0.93459 -0.33839,0.61231 -0.33839,1.418 0,0.80568 0.33839,1.41799 0.33838,0.61232 0.91847,0.9507 0.58009,0.32228 1.30521,0.32228 z"
         style="font-style:normal;font-variant:normal;font-weight:600;font-stretch:normal;font-size:8px;line-height:0.1;font-family:Montserrat;-inkscape-font-specification:'Montserrat, Semi-Bold';font-variant-ligatures:normal;font-variant-caps:normal;font-variant-numeric:normal;font-variant-east-asian:normal;letter-spacing:0px;word-spacing:0px;white-space:pre;inline-size:64.1195;fill:#000000;fill-opacity:1;stroke:none;stroke-width:0.999998"
         id="path1211" />
    </g>
  </g>
</svg>
