<svg width="728.2" height="420.44" xmlns="http://www.w3.org/2000/svg"><path d="M61.97 339.613c0 .174 1.062-1.072 2.618-2.346 2.685-2.2 4.258-2.893 4.174-1.837-.021.264-1.965 2.02-4.32 3.904-3.356 2.682-4.329 3.192-4.498 2.353M71.36 332.4c0-.667 7.022-6.408 7.84-6.409 1.253 0 .15 1.33-3.36 4.057-4.044 3.14-4.48 3.37-4.48 2.352zm11.216-8.303c-.184-.298 1.226-1.578 3.134-2.845 3.984-2.644 5.49-3.327 5.49-2.487 0 .876-8.232 5.966-8.624 5.332zm11.824-7.698c0-.898 8.821-5.23 9.247-4.541.194.313-1.686 1.605-4.178 2.871-5.017 2.55-5.069 2.566-5.069 1.67zm12.8-6.33c0-.604 4.968-2.896 7.84-3.616 3.44-.862 1.69.766-2.642 2.459-4.856 1.896-5.198 1.972-5.198 1.158zm13.152-5.14c.739-.707 7.106-2.618 8.724-2.618 2.466 0 .986 1.06-2.941 2.106-4.582 1.221-6.722 1.41-5.783.512zm13.437-3.21c-.201-.327 1.294-.914 3.322-1.306 2.03-.392 4.32-.846 5.09-1.01.77-.163 1.574-.016 1.786.327.212.343-.274.763-1.08.933-2.832.597-8.253 1.648-8.5 1.648-.139 0-.416-.267-.618-.593zm13.731-2.521c0-.594 4.574-1.367 8.09-1.367 3.645 0 2.375 1.074-1.784 1.509-5.204.544-6.306.519-6.306-.142zm14.08-1.367c0-.352.968-.64 2.15-.64 1.184 0 3.488-.183 5.12-.407 2.489-.341 2.97-.237 2.97.64 0 .882-.806 1.047-5.12 1.047-2.987 0-5.12-.267-5.12-.64zm14.08-.64c0-.373 2.133-.64 5.12-.64s5.12.267 5.12.64-2.133.64-5.12.64-5.12-.267-5.12-.64zm31.84 2.087c-2.024-.127-3.68-.504-3.68-.839 0-.668 6.506-.82 8.8-.205.792.213 1.44.64 1.44.952 0 .31-.648.51-1.44.444-.792-.067-3.096-.225-5.12-.352zm-17.413-1.403c-.202-.327-.147-.714.123-.859.912-.49 9.77.315 9.77.887 0 .76-9.423.733-9.893-.028zm74.853 8.17c-4.699-.713-5.615-1.012-5.194-1.695.45-.727 10.342.699 10.202 1.47-.156.864-.652.887-5.008.225zm-16.48-2.28c-1.369-.143-2.4-.597-2.4-1.057 0-.627 1.029-.676 4.64-.22 8.344 1.05 6.368 2.177-2.24 1.277zm-11.84-1.64c-6.406-.794-6.13-2.022.32-1.425 5.232.484 5.882.682 4.917 1.496-.328.277-2.685.245-5.237-.071zm-15.36-1.566c-2.323-.162-3.36-.509-3.36-1.121 0-.627.61-.81 2.08-.626l5.12.639c3.198.398 4.308 1.665 1.28 1.462-.968-.065-3.272-.225-5.12-.354zm112.643 17.479c-2.198-.433-4.19-.981-4.427-1.217-.974-.974.539-1.139 4.053-.442 5.17 1.025 5.971 1.29 5.971 1.975 0 .72-.473.694-5.597-.316zm-13.844-2.642c-4.44-.882-5.39-1.268-4.734-1.923.634-.635 9.66 1.29 9.936 2.118.309.93.494.937-5.202-.195zm-13.676-2.481c-3.866-.759-5.181-1.32-4.558-1.943.536-.535 9.601 1.241 9.606 1.883.007.918-.635.925-5.048.06zm-14.19-2.522c-2.35-.413-4.232-1.093-4.396-1.59-.197-.59.092-.758.907-.526.658.187 2.492.527 4.076.754 3.946.567 5.12.943 5.12 1.643 0 .692-.235.68-5.708-.281zm-14.933-2.477c-3.375-.578-5.132-1.765-2.612-1.765 2.45 0 9.172 1.455 9.172 1.986 0 .683-1.599.63-6.56-.22zm139.36 27.11c-3.723-.883-4.993-1.544-4-2.082.088-.047 2.248.287 4.8.743 3.039.543 4.64 1.125 4.64 1.687 0 .996.313 1.016-5.44-.348zm-14.24-3.056c-2.2-.521-4-1.216-4-1.543 0-.805.625-.76 5.799.417 2.448.556 4.288 1.276 4.089 1.6-.455.735-.955.695-5.888-.474zm-14.515-3.04c-1.735-.412-3.281-1.128-3.436-1.591-.189-.567.11-.728.915-.492.658.193 2.996.693 5.196 1.11 2.2.419 4 1.011 4 1.317 0 .73-2.747.588-6.675-.344zm-13.005-2.72c-2.2-.521-4-1.216-4-1.543 0-.805.625-.76 5.799.417 2.448.556 4.288 1.276 4.089 1.6-.455.735-.955.695-5.888-.474zm-14.72-2.953c-3.14-.604-4.654-1.746-2.314-1.746 2.261 0 9.194 1.531 9.194 2.03 0 .66-2.507.557-6.88-.284zm-12-2.448c-1.408-.315-3.22-.726-4.026-.914-.807-.188-1.286-.633-1.066-.989.22-.356.88-.511 1.466-.345.586.166 2.722.63 4.746 1.031 2.024.401 3.68.997 3.68 1.324 0 .704-1.309.675-4.8-.107zm108.852 22.88c-1.732-.406-3.283-1.144-3.447-1.64-.2-.601.028-.776.683-.525.54.207 2.747.724 4.903 1.148 4.137.814 5.847 1.921 2.807 1.818-.989-.034-3.215-.394-4.946-.8zm-13.332-2.835c-4.768-1.076-6.03-2.496-1.6-1.799 4.376.688 7.52 1.658 7.52 2.32 0 .751-.458.711-5.92-.521zm-13.809-3.036c-3.476-.847-4.426-1.325-3.828-1.923.506-.506 10.117 1.73 10.117 2.355 0 .724-2.155.576-6.289-.432z" style="fill:#e72d76;fill-opacity:1;stroke-width:1" transform="translate(-6.708 33.37)"/><path d="M57.828 340.84s.676-115.67.654-246.362C58.465-7.798 56.425 34.15 56 34.15c-.425 0-.64 52.344-.64 155.752v155.753l197.6.499c108.68.274 224.384.674 257.12.887 74.108.484 157.76.229 157.76-.481 0-.294-11.673-.694-25.94-.89-19.022-.301-38.682-.287-52.128-.282-67.295.174-92.94-.34-146.252-.486-283.892-.799-385.643-1.139-385.624-1.497" style="fill:#000;stroke-width:1" transform="translate(-6.708 33.37)"/><path d="M57.896 343.405c.49-1.232 13.636-36.774 16.385-43.655 10.565-26.446 22.384-58.091 32.913-80.653 5.064-10.85 10.662-21.734 11.514-22.387 6.57-11.321 6.5-12.483 12.737-22.55 11.208-18.077 26.26-36.365 38.631-46.939 21.32-18.221 41.992-27.15 67.293-29.067 15.032-1.139 25.79.572 46.151 7.339 19.873 6.604 43.263 17.26 72.136 32.862 71.45 38.61 180.919 112.98 285.944 194.261 8.624 6.675 16.256 12.272 16.96 12.439 1.137.269 1.173.196.32-.652-2.667-2.653-48.627-37.59-76.702-58.305-101.385-74.81-186.738-129.97-248.738-160.748-41.38-20.542-66.968-28.846-88.64-28.766-15.103.056-28.413 2.628-41.28 7.978-30.557 12.704-56.73 39.173-80.988 81.908a1743.15 1743.15 0 0 1-8.7 15.15c-1.669 3.12-3.613 6.45-4.925 9.36-1.35 3.071-4.57 10.097-4.57 10.097-.964 2.342-1.75 4.114-2.72 6.103l-7.38 17.85c-2.966 7.04-5.911 14.17-6.544 15.845-3.095 7.86-2.939 7.355-5.549 13.914-2.153 5.092-4.85 12.047-5.965 14.401-1.674 4.938-2.953 8.037-4.422 12.818-5.29 12.817-9.48 26.862-13.907 39.555" style="fill:#75d29c;fill-opacity:1;stroke-width:1" transform="translate(-6.708 33.37)"/><path d="M63.78 332.908c-.6-.89 4.277-8.53 5.473-8.577 1.021-.04.97.061-3.408 6.723-.9 1.37-1.83 2.204-2.065 1.854zm450.807 9.438c-2.097-.811-3.921-1.799-4.053-2.195-.133-.397-.024-.721.24-.721 1.12 0 9.866 3.532 9.866 3.985 0 .837-2.066.472-6.053-1.07zM501.76 337.6c-3.902-1.523-5.293-2.542-3.68-2.696 1.388-.131 9.12 3.015 9.12 3.711 0 1.07-.194 1.033-5.44-1.015zm-13.41-4.872c-3.35-1.261-5.428-2.898-3.681-2.898 1.366 0 8.736 3.096 8.959 3.763.331.994-.855.8-5.277-.865zm-12.83-4.718c-5.229-1.852-5.045-1.746-4.52-2.595.262-.424 2.059-.059 5.024 1.022 5.323 1.94 5.368 1.965 4.573 2.647-.328.282-2.613-.201-5.077-1.074zm-13.959-5.066c-2.898-1.072-4.145-1.826-3.72-2.25.753-.754 9.162 2.145 9.544 3.29.339 1.018-.817.811-5.824-1.04zm-390.5-2.04c-.563-.912 4.609-8.354 5.806-8.354 1.022 0 .967.099-3.67 6.584-.952 1.333-1.914 2.13-2.136 1.77zm378.059-2.471c-2.665-.982-4.64-2.082-4.64-2.585 0-.58.376-.721 1.12-.417.616.251 2.776 1.028 4.8 1.727 2.137.737 3.68 1.647 3.68 2.17 0 .496-.072.882-.16.858-.088-.024-2.248-.813-4.8-1.753zm-10.4-3.782c-.528-.196-2.472-.914-4.32-1.595-3.422-1.26-4.751-2.914-1.734-2.157 3.732.937 8.603 3.07 8.264 3.62-.4.648-.767.67-2.21.132zm-16.32-5.73c-4.972-1.82-5.198-1.946-4.582-2.562.701-.702 10.022 2.483 10.022 3.424 0 1.097-.15 1.074-5.44-.862zm-342.295-2.012c3.668-4.932 4.658-5.978 5.289-5.587.829.512-4.968 8.028-6.192 8.028-.632 0-.355-.75.903-2.441zm328.375-2.783c-2.026-.706-3.68-1.67-3.68-2.145 0-.657 1.145-.478 4.8.75 2.64.888 4.8 1.877 4.8 2.197 0 .873-1.825.625-5.92-.802zm-13.12-4.558c-2.315-.778-4-1.715-4-2.224 0-.622.423-.746 1.44-.423 5.525 1.752 7.798 2.704 8.016 3.357.339 1.016-.738.876-5.456-.71zm-308-1.469c0-.203 1.49-2.083 3.31-4.177 2.211-2.541 3.525-3.593 3.953-3.165.428.428-.407 1.793-2.511 4.108-2.762 3.038-4.752 4.393-4.752 3.234zm294.56-3.011c-2.388-.803-4-1.71-4-2.25 0-.498.36-.772.8-.61.44.162 2.746.937 5.125 1.722 2.378.785 4.161 1.691 3.962 2.014-.493.797-1.242.685-5.887-.876zm-13.28-4.436c-4.456-1.528-4.41-1.5-3.895-2.332.462-.749 9.975 2.272 9.975 3.168 0 .875-1.82.625-6.08-.836zm-271.68-3.009c0-.978 7.266-7.03 7.94-6.612.345.213-1.084 1.92-3.176 3.792-3.763 3.368-4.764 3.96-4.764 2.82zm258.08-1.392c-2.2-.697-4-1.545-4-1.884 0-.34.34-.617.755-.617 1.452 0 9.485 2.817 9.485 3.326 0 .802-1.894.552-6.24-.825zm-12.8-4.018c-2.604-.755-4.64-1.7-4.64-2.154 0-.445.114-.809.253-.809.819 0 9.119 2.767 9.563 3.188 1.195 1.132-.787 1.046-5.176-.226zm-234.4-3.793c0-.965 6.463-6.21 7.653-6.21 1.332 0 .615 1.146-1.733 2.77a121.13 121.13 0 0 0-4.16 3.018c-1.353 1.044-1.76 1.142-1.76.422zm220.52-.383c-2.09-.61-3.914-1.45-4.054-1.868-.139-.417-.013-.76.28-.761 1.411-.005 9.814 2.816 9.814 3.295 0 .786-1.708.598-6.04-.666zm-13.441-3.866c-2.09-.599-3.928-1.47-4.084-1.935-.21-.634.182-.737 1.562-.41 5.421 1.287 8.566 2.421 8.228 2.968-.479.775-1.03.715-5.706-.623zm-10.279-2.925c-.352-.123-2.334-.695-4.405-1.272-2.273-.633-3.534-1.281-3.181-1.634.353-.353 1.465-.352 2.805.002 1.222.323 3.454.906 4.96 1.297 1.507.391 2.57.986 2.363 1.321-.375.607-1.318.713-2.542.286zm-185.601-.958c-.298-.482 7.868-5.758 8.913-5.758.202 0 .363.36.357.8-.014 1.016-8.801 5.716-9.27 4.958zm169.121-3.332c-2.728-.71-4.96-1.545-4.96-1.858 0-.816 1.423-.707 6.108.47 2.582.648 4.132 1.369 4.132 1.92 0 .485-.072.854-.16.82-.088-.034-2.392-.643-5.12-1.352zm-14.4-3.487c-2.2-.521-4-1.216-4-1.543 0-.75 1.594-.754 4.48-.015 1.232.316 3.032.752 4 .97 1.93.432 2.433 1.683.64 1.593-.616-.032-2.92-.483-5.12-1.005zm-142.114-.277c.187-.56 8.238-4.422 9.217-4.422.142 0 .253.36.25.8-.005.44-1.966 1.592-4.358 2.56-4.82 1.95-5.449 2.081-5.109 1.062zm128.332-2.803c-2.036-.445-3.884-.992-4.107-1.214-.949-.95.596-1.107 4.078-.417 5.17 1.025 5.971 1.29 5.971 1.975 0 .75-1.276.677-5.942-.344zm-115.658-2.232c0-.337 1.975-1.201 4.389-1.92 4.883-1.454 5.851-1.575 5.851-.73 0 .537-7.971 3.263-9.54 3.263-.385 0-.7-.276-.7-.613zm102.563-.3c-2.198-.433-4.19-.981-4.427-1.217-.974-.974.539-1.139 4.053-.442 5.17 1.025 5.971 1.29 5.971 1.975 0 .72-.473.694-5.597-.316zm-14.723-2.465c-2.272-.364-4-.965-4-1.392 0-1.048 9.714.31 10.08 1.41.3.903-.337.9-6.08-.018zm-73.76-1.033c0-.698 1.803-1.174 6.587-1.736 5.283-.62 4.631.678-.79 1.573-5.348.883-5.797.896-5.797.163zm60.244-.76c-4.097-.53-5.105-.901-4.392-1.614.691-.691 9.633.667 9.91 1.505.289.874.367.872-5.518.11zm-46.804-1.128c0-.89 2.41-1.363 7.008-1.372 2.4-.005 3.873.226 3.52.552-.863.797-10.528 1.55-10.528.82zm33.12.032c-3.563-.134-4.96-.423-4.96-1.024 0-.643 1.15-.768 4.96-.54 4.514.271 6.871.923 5.496 1.519-.295.127-2.768.148-5.496.045zm-19.04-1.413c0-.373 2.12-.64 5.082-.64 2.795 0 5.26.288 5.478.64.252.408-1.593.64-5.082.64-3.225 0-5.478-.263-5.478-.64z" style="fill:#e7b35f;fill-opacity:1;stroke-width:1" transform="translate(-6.708 33.37)"/><g style="fill:#5aa2df;fill-opacity:1;stroke:#5aa2df;stroke-opacity:1;stroke-width:.5;stroke-miterlimit:4;stroke-dasharray:none"><path d="M64.926 327.204c1.082-3.637 2.74-7.317 3.395-7.535.765-.256-2.154 7.46-3.215 8.495-.446.436-.504.129-.18-.96zM556.8 340.613c-4.665-2.545-6.78-3.896-6.514-4.162.353-.353 5.892 2.395 7.794 3.868 1.47 1.137.623 1.332-1.28.294zm-14.88-8.121c-4.4-2.475-5.553-4.12-1.403-2.003 4.3 2.194 6.5 3.663 5.936 3.966-.293.157-2.333-.726-4.533-1.963zm-12-6.555c-1.76-1.01-3.488-1.947-3.84-2.084-.352-.136-.448-.456-.212-.71.473-.51 8.192 3.522 8.204 4.287.012.743-.699.488-4.152-1.493zm-12.48-6.775c-4.873-2.727-4.795-2.67-4.343-3.122.472-.473 8.823 4.154 8.823 4.889 0 .778.226.867-4.48-1.767zM69.772 314.47c1.082-3.637 2.74-7.317 3.395-7.536.765-.255-2.154 7.46-3.215 8.496-.446.435-.504.128-.18-.96zm435.394-1.938c-3.21-1.657-5.157-3.182-4.062-3.182.627 0 6.323 3.026 7.696 4.089 2.018 1.562.333 1.141-3.634-.907zm-12.846-6.975c-2.375-1.317-4.143-2.57-3.928-2.786.357-.356 6.79 2.868 8.205 4.112 1.652 1.453-.429.808-4.277-1.326zm-417.76-2.964c0-1.305 3.426-9.179 3.873-8.902.268.165-.303 2.173-1.269 4.462-1.718 4.072-2.604 5.583-2.604 4.44zm405.44-3.59c-4.411-2.258-4.503-2.324-3.995-2.831.361-.362 8.795 4.043 8.795 4.593 0 .542-1.058.153-4.8-1.762zm-12.16-6.4c-4.415-2.26-4.503-2.323-3.992-2.835.485-.484 8.152 3.57 8.152 4.311 0 .702.309.811-4.16-1.476zm-386.6-6.584c1.935-4.374 2.875-6.006 2.9-5.031.032 1.235-3.3 8.522-3.896 8.522-.301 0 .147-1.57.996-3.49zm373.8-.16c-2.464-1.268-4.128-2.427-3.698-2.575.927-.318 8.498 3.597 8.498 4.395 0 .705.384.85-4.8-1.82zm-12.64-6.63c-2.024-1.045-3.68-2.208-3.68-2.584 0-.523 7.465 3.097 8.907 4.32 1.077.912-2.214-.18-5.227-1.736zM86.495 274.31c1.25-3.03 3.483-6.715 3.85-6.35.386.387-3.79 8.75-4.37 8.75-.258 0-.024-1.08.52-2.4zm343.105-1.481c-2.024-1.045-3.68-2.187-3.68-2.537 0-.351 2.016.377 4.48 1.618 2.464 1.24 4.48 2.396 4.48 2.568 0 .708-1.809.143-5.28-1.65zm-12.64-6.679c-2.288-1.198-3.728-2.178-3.2-2.178s2.832.98 5.12 2.178c2.288 1.198 3.728 2.178 3.2 2.178s-2.832-.98-5.12-2.178zm-325.12-1.941c0-.598 3.06-6.33 4.089-7.659 1.73-2.237 1.11-.263-1.24 3.938-2.049 3.663-2.849 4.709-2.849 3.72zm312.736-4.212c-2.06-1.063-3.6-2.076-3.425-2.251.175-.176 2.292.693 4.704 1.93 2.412 1.238 3.953 2.251 3.425 2.252-.528 0-2.645-.869-4.704-1.931zm-12.256-5.794c-4.378-2.242-4.5-2.326-4.022-2.804.45-.45 8.822 3.658 8.822 4.328 0 .796-.707.571-4.8-1.524zm-293.44-2.377c0-.428 1.043-2.42 2.317-4.427 2.751-4.331 2.707-4.278 3.156-3.829.195.194-.82 2.169-2.253 4.387-3.02 4.671-3.22 4.912-3.22 3.869zm280.32-4.039c-2.288-1.071-3.824-2.074-3.413-2.228.731-.274 8.533 3.347 8.533 3.96 0 .551-.88.253-5.12-1.732zm-12.32-5.756c-4.264-1.946-6.271-3.929-2.24-2.213 4.325 1.842 6.88 3.227 6.88 3.73 0 .655.42.792-4.64-1.517zm-260.303-2.281c.031-.877 5.55-7.82 5.92-7.449.201.2-.837 2.051-2.306 4.112-2.456 3.446-3.657 4.555-3.614 3.337zm247.503-3.539c-4.356-1.993-6.242-3.87-2.08-2.07l4.48 1.938c1.232.532 2.24 1.252 2.24 1.6 0 .347-.072.603-.16.57-.088-.034-2.104-.951-4.48-2.038zm-12.62-5.566c-2.276-.996-4.242-2.12-4.368-2.498-.126-.378 1.81.213 4.3 1.314 2.49 1.1 4.528 2.245 4.528 2.544 0 .3-.072.524-.16.499-.088-.026-2.023-.862-4.3-1.859zm-226.5-1.791c.427-1.167 6.438-7.28 6.802-6.916.193.194-1.054 1.869-2.773 3.722-3.108 3.353-4.487 4.445-4.029 3.194zm213.2-3.827c-2.2-.901-4-1.905-4-2.231 0-.326.217-.497.483-.38.265.118 2.281.933 4.48 1.81 2.198.879 3.997 1.815 3.997 2.08 0 .684-.46.565-4.96-1.279zm-11.36-4.736c-1.76-.72-3.888-1.577-4.729-1.903-.84-.327-1.36-.762-1.156-.967.496-.495 9.405 3.019 9.405 3.71 0 .656.327.734-3.52-.84zm-188.89-4.761c2.062-1.944 3.934-3.349 4.16-3.122.468.47-6.293 6.663-7.27 6.658-.352-.002 1.047-1.593 3.11-3.536zm174.33-.78c-2.376-.853-4.32-1.8-4.32-2.105 0-.531 8 2.09 8.79 2.881.907.908-.426.677-4.47-.776zm-13.392-4.84c-3.639-1.373-5.213-2.32-3.859-2.32 1.047 0 8.022 2.617 8.739 3.279.984.908-.937.53-4.88-.958zm-153.186-.37c.73-1.182 7.354-5.265 8.125-5.008.373.125-1.147 1.368-3.378 2.762-4.793 2.997-5.384 3.276-4.747 2.246zm139.858-4.06c-4.713-1.533-4.833-1.59-4.32-2.104.498-.497 9.44 2.401 9.44 3.06 0 .675-.24.63-5.12-.956zm-128-3.37c0-.57 8.418-4.235 8.816-3.838.436.437.631.313-3.87 2.447-3.648 1.729-4.946 2.094-4.946 1.39zm115.023-.595c-4.162-1.145-5.188-1.573-4.772-1.99.428-.428 8.22 1.632 9.077 2.4.83.745-.603.608-4.305-.41zm-15.373-3.985c-2.04-.535-3.56-1.123-3.376-1.307.4-.401 7.962 1.091 9.326 1.84 1.57.863-1.767.564-5.95-.533zm-86.85-.662c0-.734 8.881-3.65 9.434-3.098.538.539.267.67-3.674 1.777-1.936.544-4.024 1.203-4.64 1.464-.623.265-1.12.201-1.12-.143zm73.12-2.252c-1.848-.355-3.36-.894-3.36-1.196 0-.693.123-.685 4.995.36 6.942 1.49 5.527 2.213-1.635.836zm-59.29-1.632c-.375-.608.838-.919 6.901-1.768 2.02-.283 2.992-.213 2.738.197-.216.35-1.96.82-3.877 1.046-1.915.225-3.91.573-4.433.774-.522.2-1.12.088-1.329-.25zm44.57-.583c-1.496-.134-2.72-.537-2.72-.894 0-.677 5.833-.182 8.93.758 1.364.414 1.212.486-.93.438a94.798 94.798 0 0 1-5.28-.302zm-30.88-1.318c0-.794 8.997-1.371 9.888-.635.334.276-.854.502-2.64.502s-4.148.18-5.248.4c-1.217.243-2 .139-2-.267zm17.44.035c-5.364-.375-3.883-1.15 1.759-.92 2.816.116 5.121.476 5.121.8 0 .326-.792.539-1.76.474-.968-.065-3.272-.225-5.12-.354z" style="fill:#5aa2df;fill-opacity:1;stroke-width:.5;stroke:#5aa2df;stroke-opacity:1;stroke-miterlimit:4;stroke-dasharray:none" transform="translate(-6.708 33.37)"/></g><g style="fill:#5fe7e1;fill-opacity:1"><path d="M198.08 144.961c0-.302 1.77-.734 3.934-.96 5.617-.587 6.306-.527 6.306.549 0 .773-.996.96-5.12.96-2.816 0-5.12-.247-5.12-.549zM217.453 145.536c-2.544-.234-4.824-.624-5.066-.866-.962-.962.537-1.178 5.165-.744 3.48.326 4.848.704 4.848 1.34 0 .486-.072.842-.16.79-.088-.051-2.242-.286-4.787-.52zM184.338 147.46c-.388-.628 2.452-1.531 7.116-2.264 1.577-.247 2.818-.151 3.058.237.234.378-.611.825-2.014 1.063-1.33.226-3.426.671-4.658.989-2.809.725-3.04.723-3.502-.025zM231.2 147.561c-3.34-.668-4.96-1.284-4.96-1.885 0-.548.433-.766 1.12-.566.616.18 2.92.669 5.12 1.087 2.59.492 4 1.069 4 1.636 0 .482-.072.842-.16.799-.088-.043-2.392-.525-5.12-1.07zM247.68 151.572c-.352-.13-2.3-.705-4.328-1.277-2.029-.572-3.516-1.319-3.306-1.659.21-.34.861-.485 1.448-.322 7.09 1.968 8.426 2.44 8.426 2.974 0 .615-1.002.742-2.24.284zM171.645 151.805c0-.439 2.16-1.524 4.8-2.412 3.207-1.078 4.8-1.363 4.8-.857 0 .415-2.16 1.5-4.8 2.41-3.372 1.164-4.8 1.419-4.8.859zM258.28 154.859c-2.267-.787-4.245-1.803-4.396-2.257-.2-.603.135-.696 1.24-.346 5.606 1.779 7.873 2.726 8.092 3.382.326.98-.04.921-4.936-.78zM158.572 158.006c-.476-.769 8.416-5.38 9.31-4.827.401.248-1.341 1.52-3.995 2.916-5.37 2.826-4.863 2.644-5.315 1.911zM271.68 159.657a196.793 196.793 0 0 0-4.107-1.586c-.818-.295-1.014-.656-.587-1.083.679-.679 9.814 2.486 9.814 3.4 0 .783-2.039.492-5.12-.731zM147.649 165.85c-.383-.62 6.656-5.878 7.868-5.878 1.303 0 .679.955-1.715 2.623-4.638 3.231-5.791 3.841-6.153 3.255zM284.847 164.653c-4.873-2.062-5.258-2.305-4.637-2.926.668-.668 9.39 3.09 9.39 4.045 0 .472-.072.835-.16.807-.088-.027-2.155-.894-4.593-1.926zM298.88 170.437c-1.408-.663-3.406-1.506-4.44-1.874-1.274-.454-1.67-.88-1.228-1.32.72-.722 8.882 2.432 9.138 3.531.24 1.03-.77.932-3.47-.337zM137.016 175.12c0-1.12 6.873-7.209 7.466-6.615.531.531-.64 1.871-4.361 4.986-2.058 1.723-3.105 2.273-3.105 1.63zM310.735 175.618c-3.702-1.658-5.647-3.228-3.997-3.228 1.445 0 9.118 3.936 8.77 4.498-.47.763.115.919-4.773-1.27zM323.04 181.175c-3.591-1.812-4.974-3.025-3.449-3.025 1.2 0 9.049 3.892 9.049 4.486 0 1.032-1.364.676-5.6-1.461zM128.3 184.8c.03-1.142 6.181-7.928 6.71-7.402.521.52-.426 1.945-3.688 5.55-2.55 2.82-3.054 3.128-3.022 1.852zM335.52 187.069c-2.024-1.045-3.68-2.207-3.68-2.583 0-.375.232-.587.515-.47 5.597 2.32 9.085 4.036 9.085 4.47 0 1.02-2.235.485-5.92-1.417zM348.64 193.335c-2.2-1.11-4-2.387-4-2.836 0-.527 1.699.022 4.763 1.538 2.619 1.296 4.618 2.59 4.442 2.875-.464.75-.788.652-5.205-1.577zM361.095 199.537c-2.39-1.226-4.175-2.504-3.967-2.84.444-.718 9.272 3.567 9.272 4.501 0 .948-.57.77-5.305-1.66zM373.92 205.95c-2.376-1.22-4.32-2.502-4.32-2.849 0-.923.244-.846 5.161 1.63 2.469 1.243 4.317 2.539 4.106 2.88-.21.34-.438.605-.505.588-.067-.018-2.066-1.03-4.442-2.25zM386.055 212.337c-2.39-1.226-4.174-2.504-3.967-2.84.444-.718 9.272 3.567 9.272 4.501 0 .948-.57.77-5.305-1.66zM399.36 219.332c-2.112-1.157-4.128-2.217-4.48-2.355-.352-.139-.419-.488-.149-.777.527-.564 9.429 3.474 9.429 4.276 0 1.119-1.184.836-4.8-1.144zM410.97 225.578c-2.569-1.443-4.09-2.652-3.665-2.914.818-.506 9.015 3.856 9.015 4.797 0 .975-.701.728-5.35-1.883zM423.21 232.343c-5.427-3.006-4.706-4.236.79-1.349 2.464 1.295 4.48 2.607 4.48 2.915 0 .972-1.483.531-5.27-1.566zM435.68 239.168c-3.441-1.938-4.998-3.418-3.597-3.418 1.056 0 9.089 4.777 8.805 5.236-.476.771-.829.649-5.208-1.818zM448.166 246.131c-4.082-2.252-5.25-3.341-3.587-3.341 1.374 0 8.891 4.553 8.517 5.159-.464.75.097.958-4.93-1.818zM460.305 252.93c-2.383-1.396-4.167-2.805-3.965-3.133.202-.327 1.742.195 3.423 1.16 4.83 2.772 6.116 3.745 5.473 4.142-.329.204-2.548-.772-4.93-2.168zM472.476 259.96c-5.187-3.07-5.138-4.645.053-1.727 4.337 2.437 5.231 3.092 5.231 3.835 0 .887-.678.617-5.284-2.109zM484.636 267c-5.187-3.07-5.138-4.645.053-1.727 4.337 2.437 5.231 3.092 5.231 3.835 0 .887-.678.617-5.284-2.109zM497.218 274.287c-2.145-1.307-3.873-2.665-3.84-3.017.083-.855.695-.608 5.022 2.019 2.024 1.228 3.68 2.5 3.68 2.827 0 .96-.742.681-4.862-1.829zM509.28 281.362c-2.2-1.304-4-2.774-4-3.265 0-.756.223-.75 1.44.034.792.51 2.808 1.722 4.48 2.694 1.672.972 3.04 2.027 3.04 2.346 0 .955-.77.674-4.96-1.81zM521.12 288.481c-3.216-1.987-4.597-3.451-3.257-3.451.816 0 8.537 4.751 8.537 5.253 0 1.001-1.662.434-5.28-1.802zM533.297 295.674c-2.367-1.437-4.067-2.85-3.778-3.14.491-.49 8.047 3.565 8.745 4.695.872 1.41-1.098.794-4.967-1.555zM547.84 304.586a172.365 172.365 0 0 0-4.024-2.55c-1.509-.93-2.58-1.955-2.382-2.277.199-.321 2.35.612 4.78 2.074 2.431 1.462 4.278 2.888 4.105 3.168-.425.689-.966.598-2.479-.415zM557.6 310.464c-4.045-2.528-5.192-3.674-3.677-3.674 1.2 0 8.317 4.791 8.317 5.598 0 1.043.318 1.175-4.64-1.924zM569.44 317.68c-2.2-1.396-4-2.833-4-3.194 0-.36.127-.656.283-.656.741 0 8.677 5.334 8.677 5.831 0 .971-.827.641-4.96-1.98zM581.238 325.012c-2.399-1.504-4.054-2.925-3.679-3.157.628-.387 8.03 3.72 8.721 4.84.883 1.429-1.173.742-5.042-1.683zM593.086 332.378c-2.22-1.407-3.868-2.83-3.663-3.16.41-.664 8.657 4.255 8.657 5.163 0 .973-.828.64-4.994-2.003zM605.28 340.08c-2.2-1.396-4-2.833-4-3.194 0-.36.151-.656.336-.656.786 0 8.624 5.287 8.624 5.817 0 .987-.813.664-4.96-1.967zM121.552 195.767c-.32-1.074 4.529-8.872 5.267-8.472.66.357-.08 1.976-2.756 6.023-1.48 2.239-2.327 3.065-2.51 2.449z" style="fill:#5fe7e1;fill-opacity:1;stroke-width:1" transform="translate(-6.708 33.37)"/><path d="M115.643 205.815c-.19-.972 4.014-7.893 4.567-7.52.495.335-.171 1.777-2.477 5.366-1.276 1.985-1.98 2.711-2.09 2.154z" style="fill:#5fe7e1;fill-opacity:1;stroke-width:.999998" transform="translate(-6.708 33.37)"/><path d="M109.81 216.437c-.345-.454 4.137-8.467 4.694-8.391.611.083.692-.133-1.6 4.29-1.856 3.584-2.668 4.661-3.094 4.101zM106.518 222.628c1.217-2.56 2.452-4.548 2.744-4.418.607.268-3.447 8.492-4.358 8.842-.33.126.398-1.865 1.614-4.424zM99.863 237.814c-.057-.595 2.451-6.588 3.35-8.009 1.514-2.39 1.08-.366-.864 4.038-1.695 3.839-2.394 4.955-2.486 3.971zM96.318 245.852c1.84-4.314 2.718-5.917 2.707-4.942-.015 1.235-3.176 8.419-3.697 8.401-.263-.009.182-1.565.99-3.459zM91.237 257.62c1.84-4.315 2.718-5.918 2.707-4.942-.015 1.235-3.175 8.418-3.697 8.4-.263-.008.182-1.565.99-3.459zM85.755 271.61c1.84-4.314 2.718-5.917 2.707-4.941-.015 1.235-3.175 8.419-3.697 8.4-.263-.008.182-1.565.99-3.458z" style="fill:#5fe7e1;fill-opacity:1;stroke-width:1" transform="translate(-6.708 33.37)"/><path d="M79.723 286.59c1.597-4.314 2.359-5.917 2.349-4.941-.013 1.235-2.755 8.418-3.207 8.4-.229-.009.157-1.565.858-3.459z" style="fill:#5fe7e1;fill-opacity:1;stroke-width:.999997" transform="translate(-6.708 33.37)"/></g><path d="M43.186 10.516h-5.549l-1.094 2.568H34.42l4.994-11.097h2.029l5.01 11.097h-2.157ZM42.504 8.9l-2.093-4.851-2.076 4.851ZM52.476 4.524q1.601 0 2.568.935.967.935.967 2.774v4.851H54.03V8.487q0-1.11-.523-1.665-.523-.57-1.49-.57-1.094 0-1.728.665-.634.65-.634 1.887v4.28h-1.982V4.62h1.887v1.094q.491-.587 1.236-.888.745-.301 1.68-.301zM67.013 4.619V11.8q0 4.471-4.565 4.471-1.221 0-2.315-.317-1.094-.301-1.807-.888l.887-1.49q.555.46 1.396.73.856.284 1.728.284 1.395 0 2.045-.634.65-.634.65-1.934v-.444q-.508.555-1.237.84-.73.286-1.601.286-1.205 0-2.188-.507-.967-.524-1.538-1.459-.555-.935-.555-2.14t.555-2.124q.571-.936 1.538-1.443.983-.507 2.188-.507.92 0 1.664.3.761.302 1.269.92V4.62Zm-4.518 6.404q1.126 0 1.84-.665.728-.682.728-1.76 0-1.062-.729-1.728-.713-.666-1.839-.666-1.141 0-1.87.666-.714.666-.714 1.728 0 1.078.713 1.76.73.665 1.871.665zM72.23 13.195q-1.031 0-2.014-.27-.983-.269-1.57-.68l.761-1.507q.57.38 1.364.618.808.222 1.585.222 1.775 0 1.775-.935 0-.444-.46-.618-.443-.175-1.442-.333-1.046-.159-1.712-.365-.65-.206-1.142-.713Q68.9 8.09 68.9 7.17q0-1.205.999-1.918 1.014-.73 2.726-.73.872 0 1.744.207.872.19 1.427.523l-.76 1.506q-1.079-.634-2.426-.634-.872 0-1.332.27-.444.253-.444.681 0 .476.476.682.491.19 1.506.364 1.014.159 1.664.365.65.206 1.11.697.476.492.476 1.396 0 1.189-1.03 1.902-1.031.713-2.807.713zM82.867 12.625q-.35.285-.856.428-.492.142-1.047.142-1.395 0-2.156-.729-.76-.73-.76-2.124V6.267h-1.396V4.682h1.395V2.748h1.982v1.934h2.267v1.585h-2.267v4.027q0 .618.301.951.301.317.872.317.666 0 1.11-.348z" style="font-style:normal;font-variant:normal;font-weight:600;font-stretch:normal;font-size:8px;line-height:.1;font-family:Montserrat;-inkscape-font-specification:'Montserrat, Semi-Bold';font-variant-ligatures:normal;font-variant-caps:normal;font-variant-numeric:normal;font-variant-east-asian:normal;letter-spacing:0;word-spacing:0;white-space:pre;inline-size:64.1195;fill:#000;fill-opacity:1;stroke:none;stroke-width:.999999" transform="translate(-6.708 33.37)"/><path d="M687.103 342.094h-3.738v-1.772h9.571v1.772h-3.738v9.507h-2.095zM694.113 342.997h2.014v8.604h-2.014zm1.015-1.418q-.548 0-.919-.339-.37-.354-.37-.87 0-.515.37-.854.37-.354.919-.354.548 0 .918.338.37.322.37.822 0 .532-.37.902-.354.355-.918.355zM707.197 339.645v11.956h-1.934v-1.111q-.5.612-1.24.918-.726.306-1.612.306-1.24 0-2.24-.548-.983-.547-1.547-1.547-.564-1.015-.564-2.32t.564-2.304q.564-1 1.547-1.547 1-.548 2.24-.548.854 0 1.563.29.71.29 1.209.87v-4.415zm-4.544 10.345q.725 0 1.305-.322.58-.339.919-.95.338-.613.338-1.419t-.339-1.418q-.338-.612-.918-.934-.58-.339-1.305-.339t-1.305.339q-.58.322-.919.934-.338.612-.338 1.418 0 .806.338 1.418.339.612.919.95.58.323 1.305.323z" style="font-style:normal;font-variant:normal;font-weight:600;font-stretch:normal;font-size:8px;line-height:.1;font-family:Montserrat;-inkscape-font-specification:'Montserrat, Semi-Bold';font-variant-ligatures:normal;font-variant-caps:normal;font-variant-numeric:normal;font-variant-east-asian:normal;letter-spacing:0;word-spacing:0;white-space:pre;inline-size:64.1195;fill:#000;fill-opacity:1;stroke:none;stroke-width:.999998" transform="translate(-6.708 33.37)"/></svg>