<svg width="395.68" height="242.4" xmlns="http://www.w3.org/2000/svg"><g style="display:inline"><path d="M-57.096-47.461h576.453v369.482H-57.096z" style="fill:#fff;fill-opacity:1;fill-rule:evenodd;stroke:none;stroke-width:1.00157;stroke-linecap:round;stroke-linejoin:round"/></g><path d="M97.63 83.651c-.468-.757 1.98-3.091 2.596-2.475.242.243-.157 1.038-.886 1.768-.74.739-1.497 1.052-1.71.707zm2.787-3.89c0-.788 2.504-2.93 2.929-2.505.544.544-1.2 3.045-2.122 3.045-.444 0-.807-.243-.807-.54zm3.345-4.054c.351-1.052 2.262-2.172 2.796-1.639.609.61-.966 2.393-2.112 2.393-.514 0-.822-.34-.684-.754zm3.468-2.936c-.468-.757 1.98-3.091 2.596-2.475.242.243-.157 1.038-.886 1.768-.74.739-1.497 1.052-1.71.707zm2.787-3.89c0-.85 2.52-2.913 2.987-2.446.23.23-.104.996-.743 1.702-1.207 1.335-2.244 1.678-2.244.743zm3.2-3.84c0-.298.548-1.037 1.217-1.642 1.493-1.352 2.536-.199 1.11 1.227-1.044 1.044-2.327 1.272-2.327.414zm3.543-3.263c-.465-.753 1.077-2.597 2.172-2.597 1.051 0 .817.962-.531 2.183-.803.726-1.36.867-1.64.414zM119.617 58c0-.849 2.52-2.912 2.987-2.445.23.23-.104.996-.743 1.702-1.207 1.335-2.244 1.678-2.244.743zm3.2-3.84c0-.857 2.299-2.707 2.774-2.232.236.236-.048.957-.631 1.601-1.12 1.237-2.143 1.538-2.143.631zm3.345-4.053c.351-1.052 2.262-2.172 2.796-1.639.609.61-.966 2.393-2.112 2.393-.514 0-.822-.34-.684-.754zm3.076-2.926c.037-.867 1.705-2.72 2.45-2.72 1.08 0 .886.94-.44 2.141-1.251 1.132-2.043 1.36-2.01.58zm3.18-3.9c0-.85 2.52-2.913 2.986-2.446.23.23-.104.996-.743 1.702-1.207 1.335-2.244 1.678-2.244.743zm3.344-4.054c.346-1.038 2.26-2.176 2.781-1.654.523.524-1.272 2.408-2.293 2.408-.407 0-.626-.34-.488-.754zm3.055-3.132c0-.886 1.629-2.514 2.515-2.514 1.04 0 .822.958-.485 2.141-1.352 1.224-2.03 1.348-2.03.373zm3.2-3.695c0-.849 2.52-2.912 2.987-2.445.23.23-.104.996-.743 1.702-1.207 1.335-2.244 1.678-2.244.743zm3.2-3.84c0-.857 2.299-2.707 2.774-2.232.236.236-.048.957-.631 1.601-1.12 1.237-2.143 1.538-2.143.631zm5.71-3.459c-.028-.792-.196-1.08-.373-.64-.353.875-2.137 1.115-2.137.288 0-.281.33-.841.733-1.244.55-.55.39-.643-.64-.373-.755.197-1.373.064-1.373-.296 0-.583 5.73-2.938 6.144-2.525.091.092-.125 1.53-.48 3.198-.673 3.151-1.786 4.097-1.874 1.592z" style="fill:#000;fill-opacity:1;stroke-width:1" transform="translate(-.544 12.763)"/><path d="M30.762 208.098 30.68 40.62l-.779-.018s-.475 28.238-.367 84.34l.162 84.32 125.12.174c68.816.097 126.128.264 127.36.373 6.632 0 77.433-.015 77.433-.015s-.59-.385-1.453-1.011l-2.505-.012" style="fill:#000;fill-opacity:1;stroke-width:1" transform="translate(-.544 12.763)"/><path d="m32.1 208.075 5.508-15.793c16.702-47.888 31.221-75.7 47.74-94.058 1.743-1.937 3.797-4.021 4.565-4.63l1.308-1.188 1.163-1.089c.975-1.379 15.108-10.92 23.466-13.47 17.805-5.43 32.473-2.559 62.967 12.329 33.328 16.27 78.705 45.321 132.8 85.022 17.248 12.657 44.518 33.58 44.518 33.58l2.022.004c-18.459-13.396-41.796-32.616-62.22-46.646-67.9-48.694-118.563-77.986-149.469-86.417-4.549-1.24-6.766-1.754-14.568-1.713-8.129.043-10.1.546-15.023 2.038-5.39 1.634-13.444 5.35-17.351 8.008-4.639 3.134-3.443 2.263-5.704 4.04-1.344.6-13.966 14.072-18.008 19.71-13.295 18.546-27.973 49.026-42.638 93.049l-2.414 7.247" style="fill:#75d29c;fill-opacity:1;stroke-width:1" transform="translate(-.544 12.763)"/><path d="m90.05 93.446 29.619 114.852 1.855-.005-30.207-115.98Z" style="fill:#e27272;fill-opacity:1;stroke:none;stroke-width:1px;stroke-linecap:butt;stroke-linejoin:miter;stroke-opacity:1" transform="translate(-.544 12.763)"/><g aria-label="Det du er meget bange for" style="font-style:normal;font-weight:400;font-size:40px;line-height:.1;font-family:sans-serif;letter-spacing:0;word-spacing:0;white-space:pre;inline-size:64.1195;fill:#000;fill-opacity:1;stroke:none"><path d="M231.625 36.008h2.28q.888 0 1.568.36.68.352 1.056.992.376.632.376 1.448t-.376 1.456q-.376.632-1.056.992-.68.352-1.568.352h-2.28zm2.248 5.088q.736 0 1.288-.288.552-.296.856-.808.304-.52.304-1.192 0-.672-.304-1.184-.304-.52-.856-.808-.552-.296-1.288-.296h-1.656v4.576zM241.777 39.68h-3.52q.048.656.504 1.064.456.4 1.152.4.392 0 .72-.136.328-.144.568-.416l.32.368q-.28.336-.704.512-.416.176-.92.176-.648 0-1.152-.272-.496-.28-.776-.768t-.28-1.104q0-.616.264-1.104.272-.488.736-.76.472-.272 1.056-.272.584 0 1.048.272.464.272.728.76.264.48.264 1.104zm-2.032-1.824q-.608 0-1.024.392-.408.384-.464 1.008h2.984q-.056-.624-.472-1.008-.408-.392-1.024-.392zM245.16 41.352q-.16.144-.4.224-.231.072-.487.072-.592 0-.912-.32-.32-.32-.32-.904V37.88h-.752v-.48h.752v-.92h.568v.92h1.28v.48h-1.28v2.512q0 .376.184.576.192.192.544.192.176 0 .336-.056.168-.056.288-.16zM252.129 35.672v5.936h-.544v-.832q-.256.424-.68.648-.416.224-.944.224-.592 0-1.072-.272-.48-.272-.752-.76t-.272-1.112q0-.624.272-1.112.272-.488.752-.752.48-.272 1.072-.272.512 0 .92.216.416.208.68.616v-2.528zm-2.12 5.472q.44 0 .792-.2.36-.208.56-.584.208-.376.208-.856t-.208-.856q-.2-.376-.56-.576-.352-.208-.792-.208-.448 0-.808.208-.352.2-.56.576-.2.376-.2.856t.2.856q.208.376.56.584.36.2.808.2zM257.505 37.4v4.208h-.544v-.768q-.224.384-.616.6-.392.208-.896.208-.824 0-1.304-.456-.472-.464-.472-1.352V37.4h.568v2.384q0 .664.328 1.008t.936.344q.664 0 1.048-.4.384-.408.384-1.128V37.4zM264.857 39.68h-3.52q.048.656.504 1.064.456.4 1.152.4.392 0 .72-.136.328-.144.568-.416l.32.368q-.28.336-.704.512-.416.176-.92.176-.648 0-1.152-.272-.496-.28-.776-.768t-.28-1.104q0-.616.264-1.104.272-.488.736-.76.472-.272 1.056-.272.584 0 1.048.272.464.272.728.76.264.48.264 1.104zm-2.032-1.824q-.608 0-1.024.392-.408.384-.464 1.008h2.984q-.056-.624-.472-1.008-.408-.392-1.024-.392zM266.569 38.224q.2-.424.592-.64.4-.216.984-.216v.552l-.136-.008q-.664 0-1.04.408t-.376 1.144v2.144h-.568V37.4h.544zM236.753 47.805q.792 0 1.24.456.456.456.456 1.344v2.44h-.568v-2.384q0-.656-.32-1-.312-.344-.888-.344-.656 0-1.032.408-.376.4-.376 1.112v2.208h-.568v-2.384q0-.656-.32-1-.312-.344-.896-.344-.648 0-1.032.408-.376.4-.376 1.112v2.208h-.568v-4.208h.544v.768q.224-.384.624-.592.4-.208.92-.208.528 0 .912.224.392.224.584.664.232-.416.664-.648.44-.24 1-.24zM243.673 50.117h-3.52q.048.656.504 1.064.456.4 1.152.4.392 0 .72-.136.328-.144.568-.416l.32.368q-.28.336-.704.512-.416.176-.92.176-.648 0-1.152-.272-.496-.28-.776-.768t-.28-1.104q0-.616.264-1.104.272-.488.736-.76.472-.272 1.056-.272.584 0 1.048.272.464.272.728.76.264.48.264 1.104zm-2.032-1.824q-.608 0-1.024.392-.408.384-.464 1.008h2.984q-.056-.624-.472-1.008-.408-.392-1.024-.392zM248.737 47.837v3.696q0 1.072-.528 1.584-.52.52-1.576.52-.584 0-1.112-.176-.52-.168-.848-.472l.288-.432q.304.272.736.424.44.152.92.152.8 0 1.176-.376.376-.368.376-1.152v-.536q-.264.4-.696.608-.424.208-.944.208-.592 0-1.08-.256-.48-.264-.76-.728-.272-.472-.272-1.064 0-.592.272-1.056.28-.464.76-.72.48-.256 1.08-.256.536 0 .968.216.432.216.696.624v-.808zm-2.152 3.544q.456 0 .824-.192.368-.2.568-.552.208-.352.208-.8 0-.448-.208-.792-.2-.352-.568-.544-.36-.2-.824-.2-.456 0-.824.192-.36.192-.568.544-.2.352-.2.8 0 .448.2.8.208.352.568.552.368.192.824.192zM253.993 50.117h-3.52q.048.656.504 1.064.456.4 1.152.4.392 0 .72-.136.328-.144.568-.416l.32.368q-.28.336-.704.512-.416.176-.92.176-.648 0-1.152-.272-.496-.28-.776-.768t-.28-1.104q0-.616.264-1.104.272-.488.736-.76.472-.272 1.056-.272.584 0 1.048.272.464.272.728.76.264.48.264 1.104zm-2.032-1.824q-.608 0-1.024.392-.408.384-.464 1.008h2.984q-.056-.624-.472-1.008-.408-.392-1.024-.392zM257.377 51.79q-.16.143-.4.223-.232.072-.488.072-.592 0-.912-.32-.32-.32-.32-.904v-2.544h-.752v-.48h.752v-.92h.568v.92h1.28v.48h-1.28v2.512q0 .376.184.576.192.192.544.192.176 0 .336-.056.168-.056.288-.16zM262.673 47.805q.592 0 1.072.272.48.264.752.752t.272 1.112q0 .624-.272 1.112-.272.488-.752.76t-1.072.272q-.528 0-.952-.224-.416-.224-.672-.648v.832h-.544V46.11h.568v2.528q.264-.408.672-.616.416-.216.928-.216zm-.04 3.776q.44 0 .8-.2.36-.208.56-.584.208-.376.208-.856t-.208-.856q-.2-.376-.56-.576-.36-.208-.8-.208-.448 0-.808.208-.352.2-.56.576-.2.376-.2.856t.2.856q.208.376.56.584.36.2.808.2zM267.377 47.805q.824 0 1.264.416.44.408.44 1.216v2.608h-.544v-.656q-.192.328-.568.512-.368.184-.88.184-.704 0-1.12-.336-.416-.336-.416-.888 0-.536.384-.864.392-.328 1.24-.328h1.336v-.256q0-.544-.304-.824-.304-.288-.888-.288-.4 0-.768.136-.368.128-.632.36l-.256-.424q.32-.272.768-.416.448-.152.944-.152zm-.2 3.832q.48 0 .824-.216.344-.224.512-.64v-.688h-1.32q-1.08 0-1.08.752 0 .368.28.584.28.208.784.208zM272.769 47.805q.792 0 1.256.464.472.456.472 1.336v2.44h-.568v-2.384q0-.656-.328-1t-.936-.344q-.68 0-1.08.408-.392.4-.392 1.112v2.208h-.568v-4.208h.544v.776q.232-.384.64-.592.416-.216.96-.216zM279.953 47.837v3.696q0 1.072-.528 1.584-.52.52-1.576.52-.584 0-1.112-.176-.52-.168-.848-.472l.288-.432q.304.272.736.424.44.152.92.152.8 0 1.176-.376.376-.368.376-1.152v-.536q-.264.4-.696.608-.424.208-.944.208-.592 0-1.08-.256-.48-.264-.76-.728-.272-.472-.272-1.064 0-.592.272-1.056.28-.464.76-.72.48-.256 1.08-.256.536 0 .968.216.432.216.696.624v-.808zm-2.152 3.544q.456 0 .824-.192.368-.2.568-.552.208-.352.208-.8 0-.448-.208-.792-.2-.352-.568-.544-.36-.2-.824-.2-.456 0-.824.192-.36.192-.568.544-.2.352-.2.8 0 .448.2.8.208.352.568.552.368.192.824.192zM285.209 50.117h-3.52q.048.656.504 1.064.456.4 1.152.4.392 0 .72-.136.328-.144.568-.416l.32.368q-.28.336-.704.512-.416.176-.92.176-.648 0-1.152-.272-.496-.28-.776-.768t-.28-1.104q0-.616.264-1.104.272-.488.736-.76.472-.272 1.056-.272.584 0 1.048.272.464.272.728.76.264.48.264 1.104zm-2.032-1.824q-.608 0-1.024.392-.408.384-.464 1.008h2.984q-.056-.624-.472-1.008-.408-.392-1.024-.392zM232.897 56.987q-.368 0-.56.2-.184.2-.184.592v.496h1.296v.48h-1.28v3.728h-.568v-3.728h-.752v-.48h.752v-.52q0-.576.328-.912.336-.336.944-.336.24 0 .464.072.224.064.376.192l-.192.424q-.248-.208-.624-.208zM235.865 62.523q-.608 0-1.096-.272-.488-.28-.768-.768t-.28-1.104q0-.616.28-1.104.28-.488.768-.76t1.096-.272q.608 0 1.096.272.488.272.76.76.28.488.28 1.104 0 .616-.28 1.104-.272.488-.76.768-.488.272-1.096.272zm0-.504q.448 0 .8-.2.36-.208.56-.584.2-.376.2-.856t-.2-.856q-.2-.376-.56-.576-.352-.208-.8-.208-.448 0-.808.208-.352.2-.56.576-.2.376-.2.856t.2.856q.208.376.56.584.36.2.808.2zM239.705 59.1q.2-.425.592-.64.4-.217.984-.217v.552l-.136-.008q-.664 0-1.04.408t-.376 1.144v2.144h-.568v-4.208h.544z" style="font-style:normal;font-variant:normal;font-weight:400;font-stretch:normal;font-size:8px;font-family:Montserrat;-inkscape-font-specification:'Montserrat, Normal';font-variant-ligatures:normal;font-variant-caps:normal;font-variant-numeric:normal;font-variant-east-asian:normal" transform="translate(-72.753 -17.797)"/></g><g aria-label="Angst" style="font-style:normal;font-weight:400;font-size:40px;line-height:.1;font-family:sans-serif;letter-spacing:0;word-spacing:0;white-space:pre;inline-size:64.1195;fill:#000;fill-opacity:1;stroke:none"><path d="M235.097 40.312h-2.8l-.552 1.296h-1.072l2.52-5.6h1.024l2.528 5.6h-1.088zm-.344-.816-1.056-2.448-1.048 2.448zM239.785 37.288q.808 0 1.296.472t.488 1.4v2.448h-1v-2.32q0-.56-.264-.84-.264-.288-.752-.288-.552 0-.872.336-.32.328-.32.952v2.16h-1v-4.272h.952v.552q.248-.296.624-.448.376-.152.848-.152zM247.12 37.336v3.624q0 2.256-2.303 2.256-.616 0-1.168-.16-.552-.152-.912-.448l.448-.752q.28.232.704.368.432.144.872.144.704 0 1.032-.32.328-.32.328-.976v-.224q-.256.28-.624.424-.368.144-.808.144-.608 0-1.104-.256-.488-.264-.776-.736-.28-.472-.28-1.08 0-.608.28-1.072.288-.472.776-.728.496-.256 1.104-.256.464 0 .84.152.384.152.64.464v-.568zm-2.28 3.232q.569 0 .929-.336.368-.344.368-.888 0-.536-.368-.872-.36-.336-.928-.336-.576 0-.944.336-.36.336-.36.872 0 .544.36.888.368.336.944.336zM249.753 41.664q-.52 0-1.016-.136t-.792-.344l.384-.76q.288.192.688.312.408.112.8.112.896 0 .896-.472 0-.224-.232-.312-.224-.088-.728-.168-.528-.08-.864-.184-.328-.104-.576-.36-.24-.264-.24-.728 0-.608.504-.968.512-.368 1.376-.368.44 0 .88.104.44.096.72.264l-.384.76q-.544-.32-1.224-.32-.44 0-.672.136-.224.128-.224.344 0 .24.24.344.248.096.76.184.512.08.84.184.328.104.56.352.24.248.24.704 0 .6-.52.96t-1.416.36zM255.12 41.376q-.175.144-.431.216-.248.072-.528.072-.704 0-1.088-.368-.384-.368-.384-1.072v-2.056h-.704v-.8h.704v-.976h1v.976h1.144v.8h-1.144V40.2q0 .312.152.48.152.16.44.16.336 0 .56-.176z" style="font-style:normal;font-variant:normal;font-weight:600;font-stretch:normal;font-size:8px;font-family:Montserrat;-inkscape-font-specification:'Montserrat, Semi-Bold';font-variant-ligatures:normal;font-variant-caps:normal;font-variant-numeric:normal;font-variant-east-asian:normal" transform="translate(-213.137 3.387)"/></g><g aria-label="Tid" style="font-style:normal;font-weight:400;font-size:40px;line-height:.1;font-family:sans-serif;letter-spacing:0;word-spacing:0;white-space:pre;inline-size:64.1195;fill:#000;fill-opacity:1;stroke:none"><path d="M232.6 36.888h-1.855v-.88h4.752v.88h-1.856v4.72h-1.04zM236.08 37.336h1v4.272h-1zm.505-.704q-.272 0-.456-.168-.184-.176-.184-.432t.184-.424q.184-.176.456-.176t.456.168q.184.16.184.408 0 .264-.184.448-.176.176-.456.176zM242.577 35.672v5.936h-.96v-.552q-.248.304-.616.456-.36.152-.8.152-.616 0-1.112-.272-.488-.272-.768-.768-.28-.504-.28-1.152 0-.648.28-1.144.28-.496.768-.768.496-.272 1.112-.272.424 0 .776.144.352.144.6.432v-2.192zm-2.256 5.136q.36 0 .648-.16.288-.168.456-.472.168-.304.168-.704 0-.4-.168-.704-.168-.304-.456-.464-.288-.168-.648-.168-.36 0-.648.168-.288.16-.456.464-.168.304-.168.704 0 .4.168.704.168.304.456.472.288.16.648.16z" style="font-style:normal;font-variant:normal;font-weight:600;font-stretch:normal;font-size:8px;font-family:Montserrat;-inkscape-font-specification:'Montserrat, Semi-Bold';font-variant-ligatures:normal;font-variant-caps:normal;font-variant-numeric:normal;font-variant-east-asian:normal" transform="translate(136.112 182.878)"/></g><g aria-label="Naturligt angstforløb" style="font-style:normal;font-weight:400;font-size:40px;line-height:.1;font-family:sans-serif;letter-spacing:0;word-spacing:0;white-space:pre;inline-size:97.3552;fill:#000;fill-opacity:1;stroke:none"><path d="M236.305 36.008v5.6h-.488l-3.6-4.544v4.544h-.592v-5.6h.488l3.608 4.544v-4.544zM239.48 37.368q.825 0 1.265.416.44.408.44 1.216v2.608h-.544v-.656q-.192.328-.568.512-.368.184-.88.184-.704 0-1.12-.336-.416-.336-.416-.888 0-.536.384-.864.392-.328 1.24-.328h1.336v-.256q0-.544-.304-.824-.304-.288-.888-.288-.4 0-.768.136-.368.128-.632.36l-.256-.424q.32-.272.768-.416.448-.152.944-.152zm-.2 3.832q.48 0 .825-.216.344-.224.512-.64v-.688h-1.32q-1.08 0-1.08.752 0 .368.28.584.28.208.784.208zM244.945 41.352q-.16.144-.4.224-.232.072-.488.072-.592 0-.912-.32-.32-.32-.32-.904V37.88h-.752v-.48h.752v-.92h.568v.92h1.28v.48h-1.28v2.512q0 .376.184.576.192.192.544.192.176 0 .336-.056.168-.056.288-.16zM249.769 37.4v4.208h-.544v-.768q-.224.384-.616.6-.392.208-.896.208-.824 0-1.304-.456-.472-.464-.472-1.352V37.4h.568v2.384q0 .664.328 1.008t.936.344q.664 0 1.048-.4.384-.408.384-1.128V37.4zM251.905 38.224q.2-.424.592-.64.4-.216.984-.216v.552l-.136-.008q-.664 0-1.04.408t-.376 1.144v2.144h-.568V37.4h.544zM254.505 35.672h.568v5.936h-.568zM256.657 37.4h.568v4.208h-.568zm.288-.92q-.176 0-.296-.12t-.12-.288q0-.16.12-.28.12-.12.296-.12t.296.12q.12.112.12.272 0 .176-.12.296t-.296.12zM262.705 37.4v3.696q0 1.072-.528 1.584-.52.52-1.576.52-.584 0-1.112-.176-.52-.168-.848-.472l.288-.432q.304.272.736.424.44.152.92.152.8 0 1.176-.376.376-.368.376-1.152v-.536q-.264.4-.696.608-.424.208-.944.208-.592 0-1.08-.256-.48-.264-.76-.728-.272-.472-.272-1.064 0-.592.272-1.056.28-.464.76-.72.48-.256 1.08-.256.536 0 .968.216.432.216.696.624V37.4zm-2.152 3.544q.456 0 .824-.192.368-.2.568-.552.208-.352.208-.8 0-.448-.208-.792-.2-.352-.568-.544-.36-.2-.824-.2-.456 0-.824.192-.36.192-.568.544-.2.352-.2.8 0 .448.2.8.208.352.568.552.368.192.824.192zM266.513 41.352q-.16.144-.4.224-.232.072-.488.072-.592 0-.912-.32-.32-.32-.32-.904V37.88h-.752v-.48h.752v-.92h.568v.92h1.28v.48h-1.28v2.512q0 .376.184.576.192.192.544.192.176 0 .336-.056.168-.056.288-.16zM271.113 37.368q.824 0 1.264.416.44.408.44 1.216v2.608h-.544v-.656q-.192.328-.568.512-.368.184-.88.184-.704 0-1.12-.336-.416-.336-.416-.888 0-.536.384-.864.392-.328 1.24-.328h1.336v-.256q0-.544-.304-.824-.304-.288-.888-.288-.4 0-.768.136-.368.128-.632.36l-.256-.424q.32-.272.768-.416.448-.152.944-.152zm-.2 3.832q.48 0 .824-.216.344-.224.512-.64v-.688h-1.32q-1.08 0-1.08.752 0 .368.28.584.28.208.784.208zM276.505 37.368q.792 0 1.256.464.472.456.472 1.336v2.44h-.568v-2.384q0-.656-.328-1t-.936-.344q-.68 0-1.08.408-.392.4-.392 1.112v2.208h-.568V37.4h.544v.776q.232-.384.64-.592.416-.216.96-.216zM283.689 37.4v3.696q0 1.072-.528 1.584-.52.52-1.576.52-.584 0-1.112-.176-.52-.168-.848-.472l.288-.432q.304.272.736.424.44.152.92.152.8 0 1.176-.376.376-.368.376-1.152v-.536q-.264.4-.696.608-.424.208-.944.208-.592 0-1.08-.256-.48-.264-.76-.728-.272-.472-.272-1.064 0-.592.272-1.056.28-.464.76-.72.48-.256 1.08-.256.536 0 .968.216.432.216.696.624V37.4zm-2.152 3.544q.456 0 .824-.192.368-.2.568-.552.208-.352.208-.8 0-.448-.208-.792-.2-.352-.568-.544-.36-.2-.824-.2-.456 0-.824.192-.36.192-.568.544-.2.352-.2.8 0 .448.2.8.208.352.568.552.368.192.824.192zM286.409 41.648q-.512 0-.984-.144-.464-.152-.728-.376l.256-.448q.264.208.664.344.4.128.832.128.576 0 .848-.176.28-.184.28-.512 0-.232-.152-.36-.152-.136-.384-.2-.232-.072-.616-.136-.512-.096-.824-.192-.312-.104-.536-.344-.216-.24-.216-.664 0-.528.44-.864.44-.336 1.224-.336.408 0 .816.112.408.104.672.28l-.248.456q-.52-.36-1.24-.36-.544 0-.824.192-.272.192-.272.504 0 .24.152.384.16.144.392.216.232.064.64.136.504.096.808.192.304.096.52.328.216.232.216.64 0 .552-.464.88-.456.32-1.272.32zM291.409 41.352q-.16.144-.4.224-.232.072-.488.072-.592 0-.912-.32-.32-.32-.32-.904V37.88h-.752v-.48h.752v-.92h.568v.92h1.28v.48h-1.28v2.512q0 .376.184.576.192.192.544.192.176 0 .336-.056.168-.056.288-.16zM293.833 36.112q-.368 0-.56.2-.184.2-.184.592v.496h1.296v.48h-1.28v3.728h-.568V37.88h-.752v-.48h.752v-.52q0-.576.328-.912.336-.336.944-.336.24 0 .464.072.224.064.376.192l-.192.424q-.248-.208-.624-.208zM296.8 41.648q-.607 0-1.095-.272-.488-.28-.768-.768t-.28-1.104q0-.616.28-1.104.28-.488.768-.76t1.096-.272q.608 0 1.096.272.488.272.76.76.28.488.28 1.104 0 .616-.28 1.104-.272.488-.76.768-.488.272-1.096.272zm0-.504q.449 0 .8-.2.36-.208.56-.584.2-.376.2-.856t-.2-.856q-.2-.376-.56-.576-.351-.208-.8-.208-.447 0-.807.208-.352.2-.56.576-.2.376-.2.856t.2.856q.208.376.56.584.36.2.808.2zM300.64 38.224q.2-.424.593-.64.4-.216.984-.216v.552l-.136-.008q-.664 0-1.04.408t-.376 1.144v2.144h-.568V37.4h.544zM303.24 35.672h.569v5.936h-.568zM307.113 41.648q-.608 0-1.096-.272-.488-.28-.768-.768t-.28-1.104q0-.616.28-1.104.28-.488.768-.76t1.096-.272q.608 0 1.096.272.488.272.76.76.28.488.28 1.104 0 .616-.28 1.104-.272.488-.76.768-.488.272-1.096.272zm0-.504q.448 0 .8-.2.36-.208.56-.584.2-.376.2-.856t-.2-.856q-.2-.376-.56-.576-.352-.208-.8-.208-.448 0-.808.208-.352.2-.56.576-.2.376-.2.856t.2.856q.208.376.56.584.36.2.808.2zm1.568-4.288h.376l-3.536 5.32h-.384zM312.577 37.368q.592 0 1.072.272.48.264.752.752t.272 1.112q0 .624-.272 1.112-.272.488-.752.76t-1.072.272q-.528 0-.952-.224-.416-.224-.672-.648v.832h-.544v-5.936h.568V38.2q.264-.408.672-.616.416-.216.928-.216zm-.04 3.776q.44 0 .8-.2.36-.208.56-.584.208-.376.208-.856t-.208-.856q-.2-.376-.56-.576-.36-.208-.8-.208-.448 0-.808.208-.352.2-.56.576-.2.376-.2.856t.2.856q.208.376.56.584.36.2.808.2z" style="font-style:normal;font-variant:normal;font-weight:400;font-stretch:normal;font-size:8px;font-family:Montserrat;-inkscape-font-specification:'Montserrat, Normal';font-variant-ligatures:normal;font-variant-caps:normal;font-variant-numeric:normal;font-variant-east-asian:normal" transform="translate(-14.209 75.265)"/></g><g aria-label="Flugt" style="font-style:normal;font-weight:400;font-size:40px;line-height:.1;font-family:sans-serif;letter-spacing:0;word-spacing:0;white-space:pre;inline-size:97.3552;fill:#000;fill-opacity:1;stroke:none"><path d="M232.217 36.52v2.2h2.896v.512h-2.896v2.376h-.592v-5.6h3.84v.512zM236.569 35.672h.568v5.936h-.568zM242.513 37.4v4.208h-.544v-.768q-.224.384-.616.6-.392.208-.896.208-.824 0-1.304-.456-.472-.464-.472-1.352V37.4h.568v2.384q0 .664.328 1.008t.936.344q.664 0 1.048-.4.384-.408.384-1.128V37.4zM248 37.4v3.696q0 1.072-.527 1.584-.52.52-1.576.52-.584 0-1.112-.176-.52-.168-.848-.472l.288-.432q.304.272.736.424.44.152.92.152.8 0 1.176-.376.376-.368.376-1.152v-.536q-.264.4-.696.608-.424.208-.944.208-.592 0-1.08-.256-.48-.264-.76-.728-.272-.472-.272-1.064 0-.592.272-1.056.28-.464.76-.72.48-.256 1.08-.256.536 0 .968.216.432.216.696.624V37.4zm-2.151 3.544q.456 0 .824-.192.368-.2.568-.552.208-.352.208-.8 0-.448-.208-.792-.2-.352-.568-.544-.36-.2-.824-.2-.456 0-.824.192-.36.192-.568.544-.2.352-.2.8 0 .448.2.8.208.352.568.552.368.192.824.192zM251.809 41.352q-.16.144-.4.224-.232.072-.488.072-.592 0-.912-.32-.32-.32-.32-.904V37.88h-.752v-.48h.752v-.92h.568v.92h1.28v.48h-1.28v2.512q0 .376.184.576.192.192.544.192.176 0 .336-.056.168-.056.288-.16z" style="font-style:normal;font-variant:normal;font-weight:400;font-stretch:normal;font-size:8px;font-family:Montserrat;-inkscape-font-specification:'Montserrat, Normal';font-variant-ligatures:normal;font-variant-caps:normal;font-variant-numeric:normal;font-variant-east-asian:normal" transform="translate(-120.92 120.594)"/></g></svg>