<svg width="24" height="24" xmlns="http://www.w3.org/2000/svg"><defs><clipPath id="flag_heart_svg__a" clipPathUnits="userSpaceOnUse"><path d="M-2.5-4.019h30v28.236h-30zm15 18.701S17 11.41 17 8.985c0-2.797-3.682-3.682-4.5-.279-.818-3.403-4.5-2.518-4.5.278 0 2.425 4.5 5.698 4.5 5.698z" class="flag_heart_svg__powerclip" style="fill:#000;fill-opacity:1;stroke:none"/></clipPath></defs><g fill="none" stroke="#000" stroke-linecap="round" stroke-linejoin="round" clip-path="url(#flag_heart_svg__a)" style="fill:#75d29c;fill-opacity:1;stroke:none" transform="translate(.977 .898)"><path d="M22.5 3.193c-8.334 4.253-10.354-5.886-20-.693v15c9.2-4.954 12.112 4.7 20 .735z" style="fill:#75d29c;fill-opacity:1;stroke:none"/></g><g fill="none" stroke="#000" stroke-linecap="round" stroke-linejoin="round"><path d="M.5.5v23M22.5 3.193c-8.334 4.253-10.354-5.886-20-.693v15c9.2-4.954 12.112 4.7 20 .735z"/></g><path fill="none" stroke="#000" stroke-linejoin="round" d="M12.5 14.682S17 11.41 17 8.985c0-2.797-3.682-3.682-4.5-.279-.818-3.403-4.5-2.518-4.5.278 0 2.425 4.5 5.698 4.5 5.698z"/><path fill="none" d="M0 0h24v24H0Z"/></svg>