<svg id="friends_f_svg__svg32" version="1.1" viewBox="0 0 200 200" xmlns="http://www.w3.org/2000/svg"><defs id="friends_f_svg__defs36"><style id="style2-1">.friends_f_svg__a{fill:none;stroke:#000;stroke-linecap:round;stroke-linejoin:round}</style></defs><g id="friends_f_svg__g3073"><g id="friends_f_svg__g30-6" style="fill:#75d29c;fill-opacity:1" transform="matrix(8.33333 0 0 8.33333 -232.532 303.275)"><g id="friends_f_svg__g2669" style="fill:#75d29c;fill-opacity:1" transform="translate(28.402 -36.205)"><path id="friends_f_svg__path2204" d="M-145.658 784.132c-1.794-.69-3.795-2.49-4.815-4.331l-.8-1.444-.134-38.189c-.1-28.014-.218-38.373-.447-38.88-.469-1.043-2.067-2.318-3.161-2.523-1.888-.354-3.79.633-4.726 2.454-.212.414-.303 4.826-.303 14.802v14.213l-3.71-.1c-3.387-.093-3.832-.165-5.086-.82-1.738-.907-3.868-3.231-4.543-4.955-.476-1.218-.536-2.41-.713-14.283-.27-18.003-.29-31.982-.047-31.982.112 0 2.017.8 4.233 1.78 4.893 2.16 6.92 2.64 10.407 2.459 10.26-.53 17.805-9.343 16.713-19.52-.125-1.17-.367-2.613-.538-3.207-.604-2.1-2.778-5.954-3.873-6.863-.235-.195-.428-.442-.428-.55 0-.25 4.057-1.456 7.017-2.085 1.963-.417 3.66-.487 11.74-.487 8.074 0 9.798.071 11.866.491 11.048 2.247 20.277 8.341 26.347 17.399 3.102 4.63 4.947 9.038 6.234 14.901.617 2.81.623 2.993.624 21.861V723.3l-.72 1.537c-.88 1.88-2.606 3.653-4.407 4.532-1.185.577-1.801.67-5.06.761l-3.711.104v-36.947l-.609-.902c-1.706-2.532-5.23-2.617-7.055-.17l-.568.762-.135 42.285-.135 42.286-.784 1.698a9.396 9.396 0 0 1-2.228 3.017c-5.453 4.984-13.996 1.947-15.188-5.398-.184-1.132-.284-10.91-.286-27.79-.003-25.51-.014-26.063-.54-26.924-1.56-2.559-5.575-2.646-7.206-.158-.459.7-.495 2.319-.622 28.149l-.135 27.406-.775 1.679c-2.064 4.467-7.213 6.627-11.693 4.905z" style="fill:#75d29c;fill-opacity:1;fill-rule:evenodd;stroke:none;stroke-width:2.99999;stroke-linecap:round;stroke-linejoin:round;paint-order:stroke markers fill" transform="matrix(.12 0 0 .12 23.393 -71.149)"/><path id="friends_f_svg__path2428" d="M-135.349 640.453c-6.688-1.459-12.133-6.304-14.517-12.919-.661-1.835-.818-2.756-.934-5.51-.173-4.088.253-6.139 2.032-9.783 1.044-2.138 1.635-2.946 3.557-4.862 3.984-3.972 7.749-5.638 13.254-5.867 2.585-.107 3.51-.031 5.374.44 6.014 1.52 10.571 5.291 13.25 10.964 5.26 11.143-1.23 24.5-13.315 27.396-2.577.618-6.241.678-8.7.141z" style="fill:#75d29c;fill-opacity:1;fill-rule:evenodd;stroke:none;stroke-width:2.99999;stroke-linecap:round;stroke-linejoin:round;paint-order:stroke markers fill" transform="matrix(.12 0 0 .12 23.393 -71.149)"/><path id="friends_f_svg__path2467" d="M-162.743 673.605a598.992 598.992 0 0 1-5.598-2.456c-5.95-2.63-7.16-3.505-8.422-6.091-1.073-2.2-1.296-4.206-.698-6.285 1.2-4.175 4.152-6.568 8.389-6.8 2.45-.136 2.885.004 9.901 3.18 4.303 1.949 5.756 3.085 6.918 5.412 2.343 4.688.533 9.934-4.282 12.412-.93.479-1.752.644-3.509.706-1.261.045-2.476.01-2.699-.078z" style="fill:#75d29c;fill-opacity:1;fill-rule:evenodd;stroke:none;stroke-width:2.99999;stroke-linecap:round;stroke-linejoin:round;paint-order:stroke markers fill" transform="matrix(.12 0 0 .12 23.393 -71.149)"/><path id="friends_f_svg__path2506" d="M-58.97 640.467c-7.333-1.696-13.13-7.252-15.01-14.384-.789-2.991-.788-7.067.002-9.913 1.017-3.665 2.492-6.16 5.295-8.961 2.108-2.107 2.844-2.648 5.012-3.689 3.106-1.49 5.63-2.074 8.961-2.074 8.85 0 16.648 6.091 19.002 14.843.644 2.393.643 7.335-.002 9.708-1.823 6.714-6.869 11.945-13.544 14.043-2.417.76-7.341.976-9.716.427z" style="fill:#75d29c;fill-opacity:1;fill-rule:evenodd;stroke:none;stroke-width:2.99999;stroke-linecap:round;stroke-linejoin:round;paint-order:stroke markers fill" transform="matrix(.12 0 0 .12 23.393 -71.149)"/><path id="friends_f_svg__path2545" d="M-46.69 784.291c-1.617-.535-3.55-1.996-4.533-3.424-1.76-2.558-1.675-1.02-1.675-30.461 0-29.188.082-27.68-1.586-29.248-.688-.647-1.127-.81-2.395-.893-1.875-.123-3.171.48-3.98 1.851-.529.894-.544 1.525-.675 28.308l-.135 27.393-.7 1.485c-1.012 2.15-1.937 3.107-3.967 4.107-1.652.813-2.01.886-4.369.886-2.204 0-2.783-.1-4.066-.702-2.066-.97-3.342-2.168-4.228-3.972l-.753-1.534-.135-22.265-.135-22.266 1.159-1.547c.637-.85 1.528-2.336 1.98-3.3 1.736-3.71 1.675-2.978 1.79-21.737.068-11.347 0-18.324-.201-20.647-.758-8.726-3.368-16.29-8.087-23.442-1.064-1.612-1.897-2.959-1.851-2.992.484-.358 16.372-7.926 18.3-8.717 4.29-1.762 4.322-1.766 12.334-1.613 7.755.148 10.1.466 14.655 1.984 8.543 2.849 16.677 9.235 21.645 16.994 2.576 4.023 4.76 9.799 5.62 14.868.519 3.052.544 4.185.473 21.692l-.075 18.47-.756 1.54c-.946 1.927-2.976 3.786-4.935 4.519-1.19.445-2.114.554-4.703.554h-3.22l-.076-18.42c-.072-17.871-.09-18.446-.614-19.315-1.575-2.614-5.419-2.75-7.198-.256l-.629.882-.135 42.372-.135 42.372-.714 1.525c-.877 1.87-2.45 3.484-4.337 4.45-1.765.903-5.03 1.138-6.959.5z" style="fill:#75d29c;fill-opacity:1;fill-rule:evenodd;stroke:none;stroke-width:2.99999;stroke-linecap:round;stroke-linejoin:round;paint-order:stroke markers fill" transform="matrix(.12 0 0 .12 23.393 -71.149)"/></g></g><g id="friends_f_svg__g30" transform="scale(8.33333)"><circle id="friends_f_svg__circle6" cx="7.647" cy="3.387" r="2.887" class="friends_f_svg__a"/><path id="friends_f_svg__path8" d="M5.624 9.271a1.619 1.619 0 0 1-2.137.819L2.5 9.65a1.618 1.618 0 0 1 1.319-2.956l.986.439a1.619 1.619 0 0 1 .819 2.138Z" class="friends_f_svg__a"/><path id="friends_f_svg__line10" d="M7.93 21.881v-6.105" class="friends_f_svg__a"/><path id="friends_f_svg__path12" d="M11.167 12.208v9.673a1.619 1.619 0 1 1-3.237 0" class="friends_f_svg__a"/><path id="friends_f_svg__path14" d="M7.93 21.881a1.619 1.619 0 1 1-3.237 0v-8.673" class="friends_f_svg__a"/><path id="friends_f_svg__path16" d="M2 11.958v3.421A1.617 1.617 0 0 0 3.613 17h1.08" class="friends_f_svg__a"/><circle id="friends_f_svg__circle18" cx="16.807" cy="3.387" r="2.887" class="friends_f_svg__a"/><path id="friends_f_svg__line20" d="M16.524 21.881v-6.105" class="friends_f_svg__a"/><path id="friends_f_svg__path22" d="M19.761 12.208v9.673a1.619 1.619 0 1 1-3.237 0" class="friends_f_svg__a"/><path id="friends_f_svg__path24" d="M19.761 17h1.079a1.618 1.618 0 0 0 1.619-1.618v-3.71a5.4 5.4 0 0 0-5.4-5.4h-1.075a5.364 5.364 0 0 0-1.844.328" class="friends_f_svg__a"/><path id="friends_f_svg__path26" d="M11.167 17h1.08a1.617 1.617 0 0 0 1.618-1.618v-3.71a5.4 5.4 0 0 0-5.395-5.4H7.39a5.372 5.372 0 0 0-1.765.3 1.74 1.74 0 0 0-.82.564" class="friends_f_svg__a"/><path id="friends_f_svg__path28" d="M13.286 18.958v2.923a1.619 1.619 0 0 0 3.238 0" class="friends_f_svg__a"/></g></g></svg>