<svg xmlns="http://www.w3.org/2000/svg" viewBox="0 0 200 200"><g transform="matrix(8.333333333333334,0,0,8.333333333333334,0,0)"><defs><style>.a{fill:none;stroke:#000000;stroke-linecap:round;stroke-linejoin:round;}</style></defs><circle class="a" cx="7.647" cy="3.387" r="2.887"></circle><path class="a" d="M5.624,9.271a1.619,1.619,0,0,1-2.137.819L2.5,9.65A1.618,1.618,0,0,1,3.819,6.694l.986.439A1.619,1.619,0,0,1,5.624,9.271Z"></path><line class="a" x1="7.93" y1="21.881" x2="7.93" y2="15.776"></line><path class="a" d="M11.167,12.208v9.673a1.619,1.619,0,1,1-3.237,0"></path><path class="a" d="M7.93,21.881a1.619,1.619,0,1,1-3.237,0V13.208"></path><path class="a" d="M2,11.958v3.421A1.617,1.617,0,0,0,3.613,17h1.08"></path><circle class="a" cx="16.807" cy="3.387" r="2.887"></circle><line class="a" x1="16.524" y1="21.881" x2="16.524" y2="15.776"></line><path class="a" d="M19.761,12.208v9.673a1.619,1.619,0,1,1-3.237,0"></path><path class="a" d="M19.761,17H20.84a1.618,1.618,0,0,0,1.619-1.618v-3.71a5.4,5.4,0,0,0-5.4-5.4H15.984A5.364,5.364,0,0,0,14.14,6.6"></path><path class="a" d="M11.167,17h1.08a1.617,1.617,0,0,0,1.618-1.618v-3.71a5.4,5.4,0,0,0-5.395-5.4H7.39a5.372,5.372,0,0,0-1.765.3,1.74,1.74,0,0,0-.82.564"></path><path class="a" d="M13.286,18.958v2.923a1.619,1.619,0,0,0,3.238,0"></path></g></svg>