<?xml version="1.0" encoding="UTF-8" standalone="no"?>
<svg
   xmlns:dc="http://purl.org/dc/elements/1.1/"
   xmlns:cc="http://creativecommons.org/ns#"
   xmlns:rdf="http://www.w3.org/1999/02/22-rdf-syntax-ns#"
   xmlns:svg="http://www.w3.org/2000/svg"
   xmlns="http://www.w3.org/2000/svg"
   xmlns:sodipodi="http://sodipodi.sourceforge.net/DTD/sodipodi-0.dtd"
   xmlns:inkscape="http://www.inkscape.org/namespaces/inkscape"
   width="10.861329mm"
   height="19.684031mm"
   viewBox="0 0 10.861329 19.684031"
   version="1.1"
   id="svg1021"
   inkscape:version="1.0.2 (e86c870879, 2021-01-15)"
   sodipodi:docname="kritiker_v2.svg"
   inkscape:export-filename="/home/tobias/documents/FunkLid/proxy/modeller/kritiker_v2.png"
   inkscape:export-xdpi="600"
   inkscape:export-ydpi="600">
  <defs
     id="defs1015" />
  <sodipodi:namedview
     id="base"
     pagecolor="#ffffff"
     bordercolor="#666666"
     borderopacity="1.0"
     inkscape:pageopacity="0.0"
     inkscape:pageshadow="2"
     inkscape:zoom="10.357675"
     inkscape:cx="41.34435"
     inkscape:cy="47.959111"
     inkscape:document-units="mm"
     inkscape:current-layer="layer1"
     inkscape:document-rotation="0"
     showgrid="false"
     inkscape:window-width="2880"
     inkscape:window-height="1765"
     inkscape:window-x="0"
     inkscape:window-y="35"
     inkscape:window-maximized="1" />
  <metadata
     id="metadata1018">
    <rdf:RDF>
      <cc:Work
         rdf:about="">
        <dc:format>image/svg+xml</dc:format>
        <dc:type
           rdf:resource="http://purl.org/dc/dcmitype/StillImage" />
        <dc:title />
      </cc:Work>
    </rdf:RDF>
  </metadata>
  <g
     inkscape:groupmode="layer"
     id="layer2"
     inkscape:label="baggrund">
    <rect
       style="fill:#ffffff;fill-rule:evenodd;stroke:none;stroke-width:0.264999;stroke-linecap:round;stroke-linejoin:round;stroke-miterlimit:4;stroke-dasharray:none;stroke-opacity:1;fill-opacity:1"
       id="rect1009"
       width="17.044397"
       height="23.404886"
       x="-2.7939105"
       y="-1.4567977" />
  </g>
  <g
     inkscape:label="Layer 1"
     inkscape:groupmode="layer"
     id="layer1"
     transform="translate(-70.552501,-92.40833)">
    <path
       d="m 74.200825,102.20069 h 1.420844 v 0 c 0.112101,0 0.202977,0.0909 0.202977,0.20298 v 0.30448 0 c 0,0.056 -0.04544,0.10149 -0.101488,0.10149 h -1.623822 v 0 c -0.05605,0 -0.101489,-0.0454 -0.101489,-0.10149 0,0 0,0 0,0 v -0.30448 0 c 0,-0.1121 0.09088,-0.20298 0.202978,-0.20298 z"
       id="path2922"
       style="fill:none;stroke:#000000;stroke-width:0.264998;stroke-linecap:round;stroke-linejoin:round;stroke-miterlimit:4;stroke-dasharray:none;stroke-opacity:1" />
    <path
       d="m 75.328977,100.51509 v 0 c -0.0991,-0.0991 -0.0991,-0.25977 0,-0.35887 0.0991,-0.0991 0.259767,-0.0991 0.358864,0 l 0.933698,0.93372 v 0 c 0.0991,0.0991 0.0991,0.25977 0,0.35887 -0.0991,0.0991 -0.259767,0.0991 -0.358865,0 z"
       id="path2924"
       style="fill:none;stroke:#000000;stroke-width:0.264998;stroke-linecap:round;stroke-linejoin:round;stroke-miterlimit:4;stroke-dasharray:none;stroke-opacity:1" />
    <path
       d="m 76.836086,99.007951 v 0 c -0.0991,-0.0991 -0.0991,-0.259771 0,-0.358871 0.0991,-0.0991 0.259767,-0.0991 0.358865,0 l 0.933698,0.933715 v 0 c 0.09887,0.09932 0.09851,0.259995 -8.12e-4,0.358871 -0.09932,0.09888 -0.25999,0.09851 -0.358865,-8.12e-4 z"
       id="path2926"
       style="fill:none;stroke:#000000;stroke-width:0.264998;stroke-linecap:round;stroke-linejoin:round;stroke-miterlimit:4;stroke-dasharray:none;stroke-opacity:1" />
    <g
       transform="matrix(0.20297773,0,0,0.20298149,73.727888,100.82139)"
       id="g2932"
       style="stroke:#000000;stroke-width:1.30554;stroke-miterlimit:4;stroke-dasharray:none;stroke-opacity:1;fill:#000000;fill-opacity:1">
      <path
         fill="none"
         stroke="#000000"
         stroke-linecap="round"
         stroke-linejoin="round"
         stroke-width="1"
         d="m 9.146,4.76 h 8 v 6 h -8 z"
         transform="rotate(-45)"
         id="path2930"
         style="stroke:#000000;stroke-width:1.30554;stroke-miterlimit:4;stroke-dasharray:none;stroke-opacity:1;fill:#000000;fill-opacity:1" />
    </g>
    <path
       d="m 77.015519,100.62267 1.29175,1.43529 v 0 c 0.12095,0.11682 0.313698,0.11347 0.430516,-0.007 0.113956,-0.11799 0.113956,-0.30505 0,-0.42304 l -1.435256,-1.29226"
       stroke-linecap="round"
       stroke-width="1"
       stroke="#000000"
       fill="none"
       stroke-linejoin="round"
       id="path2934"
       style="stroke:#000000;stroke-width:0.264998;stroke-miterlimit:4;stroke-dasharray:none;stroke-opacity:1" />
    <g
       id="g3387"
       transform="translate(3.6666667e-7,-52.916669)">
      <path
         d="m 79.036156,151.54271 v -0.26459 2e-5 c -2.15e-4,-0.44143 -0.274396,-0.83637 -0.687906,-0.99088 l -1.413944,-0.47493"
         id="path2953"
         style="fill:none;stroke:#000000;stroke-width:0.264583;stroke-linecap:round;stroke-linejoin:round" />
      <path
         d="m 75.05259,149.81233 -1.413934,0.47493 v 0 c -0.413512,0.1545 -0.687697,0.54943 -0.687916,0.99086 v 0.26459"
         id="path2955"
         style="fill:none;stroke:#000000;stroke-width:0.264583;stroke-linecap:round;stroke-linejoin:round" />
      <path
         d="m 77.586504,147.57396 h -0.179916 v 0 c -0.125749,2e-5 -0.234142,-0.0885 -0.259292,-0.21167 l -0.08996,-0.44979 v 0 c -0.382215,0.004 -0.760982,-0.0727 -1.11125,-0.22569 v 0 c -0.295583,-0.13593 -0.484104,-0.43243 -0.481805,-0.75777 v -0.42095"
         id="path2957"
         style="fill:#ffffff;stroke:#000000;stroke-width:0.264583;stroke-linecap:round;stroke-linejoin:round;fill-opacity:1" />
      <path
         d="m 74.802823,149.89621 v 0.80142 0 c -9.1e-5,0.0731 0.05906,0.13236 0.132127,0.13245 0.01426,2e-5 0.02844,-0.002 0.04197,-0.007 l 1.016529,-0.33893 -0.940858,-0.67204"
         id="path2963"
         style="fill:none;stroke:#000000;stroke-width:0.264583;stroke-linecap:round;stroke-linejoin:round" />
      <path
         d="m 77.184073,149.89621 v 0.80142 0 c 9.1e-5,0.0731 -0.05906,0.13236 -0.132127,0.13245 -0.01426,2e-5 -0.02844,-0.002 -0.04197,-0.007 l -1.01653,-0.33893 0.940859,-0.67204"
         id="path2965"
         style="fill:none;stroke:#000000;stroke-width:0.264583;stroke-linecap:round;stroke-linejoin:round" />
      <path
         d="m 75.993448,151.54271 v -1.05834"
         id="path2967"
         style="fill:none;stroke:#000000;stroke-width:0.264583;stroke-linecap:round;stroke-linejoin:round" />
      <path
         d="m 76.258031,148.5 v 0 c -0.09547,-0.004 -0.189144,0.0266 -0.264583,0.0852 v 0 c -0.0754,-0.0587 -0.169104,-0.0889 -0.264583,-0.0852 -0.633148,0 -0.661459,0.7276 -1.357842,0.55748 v 0 c -0.03627,-0.01 -0.07356,0.0118 -0.08328,0.0481 -0.003,0.0111 -0.0031,0.0228 -3.25e-4,0.0339 0.108479,0.41883 0.841639,0.41883 1.044575,0.41883 v 0 c 0.260313,0.004 0.506669,-0.11742 0.661458,-0.32676 v 0 c 0.154877,0.20923 0.401174,0.33091 0.661458,0.32676 0.202936,0 0.936096,0 1.04484,-0.41883 v 0 c 0.009,-0.0365 -0.01321,-0.0733 -0.04967,-0.0823 -0.01116,-0.003 -0.02284,-0.003 -0.03394,3.1e-4 C 76.919491,149.2276 76.89118,148.5 76.258031,148.5 Z"
         id="path2969"
         style="fill:#000000;stroke:#000000;stroke-width:0.264583;stroke-linecap:round;stroke-linejoin:round;fill-opacity:1" />
      <path
         d="m 77.107079,148.99609 v 0 c 0.09651,-0.1377 0.161798,-0.29482 0.191294,-0.46037 v 0 c 0.01445,-0.0869 0.07119,-0.16088 0.151342,-0.19738 0.28522,-0.12991 0.356658,-0.64876 0.126206,-0.76438 0.09429,-0.56308 0.121375,-1.3987 -0.491629,-1.83237 -0.12335,-0.0873 -0.272617,-0.15825 -0.452469,-0.20746 -0.180437,-0.0494 -0.391657,-0.0768 -0.638375,-0.0768 -0.142077,0 -0.272374,0.009 -0.391795,0.0263 -1.321901,0.18989 -1.311038,1.36582 -1.190678,2.09041 -0.230452,0.11562 -0.15875,0.635 0.126206,0.76438 v 0 c 0.08015,0.0365 0.136891,0.1105 0.151342,0.19738 v 0 c 0.0295,0.16555 0.09478,0.32267 0.191294,0.46037"
         id="path2971"
         style="fill:none;stroke:#000000;stroke-width:0.264583;stroke-linecap:round;stroke-linejoin:round"
         sodipodi:nodetypes="csssccsssscssssc" />
      <path
         d="m 74.41124,146.51562 h 0.523875"
         id="path2973"
         style="fill:none;stroke:#000000;stroke-width:0.264583;stroke-linecap:round;stroke-linejoin:round" />
      <path
         d="m 74.360969,147.04479 h 0.706437"
         id="path2975"
         style="fill:none;stroke:#000000;stroke-width:0.264583;stroke-linecap:round;stroke-linejoin:round" />
      <g
         stroke-linecap="round"
         stroke-width="1"
         stroke="#000000"
         fill="none"
         stroke-linejoin="round"
         id="g3294"
         transform="matrix(0.26458333,0,0,0.26458333,78.242406,145.19899)">
        <g
           id="g3370"
           transform="translate(-20)">
          <path
             d="m 13.5,9.25 v 0 c 0.138071,0 0.25,0.111929 0.25,0.25 0,0.138071 -0.111929,0.25 -0.25,0.25 -0.138071,0 -0.25,-0.111929 -0.25,-0.25 v 0 c 0,-0.138071 0.111929,-0.25 0.25,-0.25"
             id="path3260" />
          <path
             d="m 9.5,9.25 v 0 C 9.638071,9.25 9.75,9.361929 9.75,9.5 9.75,9.638071 9.638071,9.75 9.5,9.75 9.361929,9.75 9.25,9.638071 9.25,9.5 v 0 C 9.25,9.361929 9.361929,9.25 9.5,9.25"
             id="path3262" />
        </g>
      </g>
      <path
         d="m 79.036156,152.60105 v -1.05834"
         id="path2967-1-7"
         style="fill:none;stroke:#000000;stroke-width:0.264583;stroke-linecap:round;stroke-linejoin:round" />
      <path
         d="m 72.95074,152.60105 v -1.05834"
         id="path2967-1-5"
         style="fill:none;stroke:#000000;stroke-width:0.264583;stroke-linecap:round;stroke-linejoin:round" />
    </g>
    <text
       xml:space="preserve"
       style="font-style:normal;font-variant:normal;font-weight:bold;font-stretch:normal;font-size:0.926893px;line-height:1.25;font-family:Montserrat;-inkscape-font-specification:'Montserrat, Bold';font-variant-ligatures:normal;font-variant-caps:normal;font-variant-numeric:normal;font-variant-east-asian:normal;letter-spacing:0px;word-spacing:0px;fill:#000000;fill-opacity:1;stroke:none;stroke-width:0.264583"
       x="71.974495"
       y="104.64556"
       id="text3496"><tspan
         id="tspan3494"
         x="71.974495"
         y="104.64556"
         style="font-style:normal;font-variant:normal;font-weight:bold;font-stretch:normal;font-size:0.926893px;font-family:Montserrat;-inkscape-font-specification:'Montserrat, Bold';font-variant-ligatures:normal;font-variant-caps:normal;font-variant-numeric:normal;font-variant-east-asian:normal;stroke-width:0.264583"
         sodipodi:role="line">Din indre kritiker</tspan></text>
    <g
       id="g1006"
       transform="translate(0.39218073,0.2995594)">
      <text
         xml:space="preserve"
         style="font-style:normal;font-variant:normal;font-weight:bold;font-stretch:normal;font-size:0.820074px;line-height:1.25;font-family:Montserrat;-inkscape-font-specification:'Montserrat, Bold';font-variant-ligatures:normal;font-variant-caps:normal;font-variant-numeric:normal;font-variant-east-asian:normal;letter-spacing:0px;word-spacing:0px;fill:#000000;fill-opacity:1;stroke:none;stroke-width:0.264583"
         x="72.432922"
         y="106.59724"
         id="text3496-5"><tspan
           id="tspan3494-0"
           x="72.432922"
           y="106.59724"
           style="font-style:normal;font-variant:normal;font-weight:500;font-stretch:normal;font-size:0.820074px;font-family:Montserrat;-inkscape-font-specification:'Montserrat, Medium';font-variant-ligatures:normal;font-variant-caps:normal;font-variant-numeric:normal;font-variant-east-asian:normal;stroke-width:0.264583"
           sodipodi:role="line">Dømmer dig</tspan></text>
      <text
         xml:space="preserve"
         style="font-style:normal;font-variant:normal;font-weight:bold;font-stretch:normal;font-size:0.926893px;line-height:1.25;font-family:Montserrat;-inkscape-font-specification:'Montserrat, Bold';font-variant-ligatures:normal;font-variant-caps:normal;font-variant-numeric:normal;font-variant-east-asian:normal;letter-spacing:0px;word-spacing:0px;white-space:pre;inline-size:8.85766;fill:#000000;fill-opacity:1;stroke:none;stroke-width:0.299045"
         x="73.545029"
         y="112.97906"
         id="text3496-5-5"
         transform="matrix(0.88475829,0,0,0.88475929,7.4511451,9.6586562)"><tspan
           x="73.545029"
           y="112.97906"><tspan
             style="font-style:normal;font-variant:normal;font-weight:500;font-stretch:normal;font-size:0.926893px;font-family:Montserrat;-inkscape-font-specification:'Montserrat, Medium';font-variant-ligatures:normal;font-variant-caps:normal;font-variant-numeric:normal;font-variant-east-asian:normal;stroke-width:0.299045">Saboterer dine </tspan></tspan><tspan
           x="73.545029"
           y="114.13768"><tspan
             style="font-style:normal;font-variant:normal;font-weight:500;font-stretch:normal;font-size:0.926893px;font-family:Montserrat;-inkscape-font-specification:'Montserrat, Medium';font-variant-ligatures:normal;font-variant-caps:normal;font-variant-numeric:normal;font-variant-east-asian:normal;stroke-width:0.299045">værdier</tspan></tspan></text>
      <text
         xml:space="preserve"
         style="font-style:normal;font-variant:normal;font-weight:bold;font-stretch:normal;font-size:0.820074px;line-height:1.25;font-family:Montserrat;-inkscape-font-specification:'Montserrat, Bold';font-variant-ligatures:normal;font-variant-caps:normal;font-variant-numeric:normal;font-variant-east-asian:normal;letter-spacing:0px;word-spacing:0px;fill:#000000;fill-opacity:1;stroke:none;stroke-width:0.264583"
         x="72.432922"
         y="108.10754"
         id="text3496-5-6"><tspan
           x="72.432922"
           y="108.10754"
           style="font-style:normal;font-variant:normal;font-weight:500;font-stretch:normal;font-size:0.820074px;font-family:Montserrat;-inkscape-font-specification:'Montserrat, Medium';font-variant-ligatures:normal;font-variant-caps:normal;font-variant-numeric:normal;font-variant-east-asian:normal;stroke-width:0.264583"
           sodipodi:role="line"
           id="tspan3588">Presser dig</tspan></text>
    </g>
    <path
       style="color:#000000;font-style:normal;font-variant:normal;font-weight:normal;font-stretch:normal;font-size:medium;line-height:normal;font-family:sans-serif;font-variant-ligatures:normal;font-variant-position:normal;font-variant-caps:normal;font-variant-numeric:normal;font-variant-alternates:normal;font-variant-east-asian:normal;font-feature-settings:normal;font-variation-settings:normal;text-indent:0;text-align:start;text-decoration:none;text-decoration-line:none;text-decoration-style:solid;text-decoration-color:#000000;letter-spacing:normal;word-spacing:normal;text-transform:none;writing-mode:lr-tb;direction:ltr;text-orientation:mixed;dominant-baseline:auto;baseline-shift:baseline;text-anchor:start;white-space:normal;shape-padding:0;shape-margin:0;inline-size:0;clip-rule:nonzero;display:inline;overflow:visible;visibility:visible;isolation:auto;mix-blend-mode:normal;color-interpolation:sRGB;color-interpolation-filters:linearRGB;solid-color:#000000;solid-opacity:1;vector-effect:none;fill:#000000;fill-opacity:1;fill-rule:nonzero;stroke:none;stroke-linecap:butt;stroke-linejoin:round;stroke-miterlimit:4;stroke-dasharray:none;stroke-dashoffset:0;stroke-opacity:1;color-rendering:auto;image-rendering:auto;shape-rendering:auto;text-rendering:auto;enable-background:accumulate;stop-color:#000000"
       d="m 70.68336,103.19922 c -0.07265,9.1e-4 -0.131027,0.0602 -0.130859,0.13281 v 1.9043 c -1.68e-4,0.0727 0.05821,0.1319 0.130859,0.13281 h 10.59961 c 0.07265,-9.1e-4 0.131027,-0.0602 0.130859,-0.13281 v -1.9043 c 1.68e-4,-0.0727 -0.05821,-0.1319 -0.130859,-0.13281 z m 0.132813,0.26562 h 10.333984 v 1.64063 H 70.816173 Z"
       id="path870"
       sodipodi:nodetypes="cccccccccccccc" />
    <path
       style="fill:none;stroke:#000000;stroke-width:0.264582px;stroke-linecap:butt;stroke-linejoin:miter;stroke-opacity:1"
       d="m 80.397498,105.2313 v 6.84741"
       id="path894" />
    <path
       style="fill:none;stroke:#000000;stroke-width:0.264582px;stroke-linecap:butt;stroke-linejoin:miter;stroke-opacity:1"
       d="m 71.584737,105.24495 v 6.84741"
       id="path894-3" />
    <path
       style="fill:none;stroke:#000000;stroke-width:0.264583px;stroke-linecap:round;stroke-linejoin:round;stroke-opacity:1"
       d="m 79.835453,101.39729 1.439472,1.9024"
       id="path959"
       sodipodi:nodetypes="cc" />
    <path
       style="fill:none;stroke:#000000;stroke-width:0.264583px;stroke-linecap:round;stroke-linejoin:round;stroke-opacity:1"
       d="m 72.130877,101.39729 -1.439472,1.9024"
       id="path959-6"
       sodipodi:nodetypes="cc" />
  </g>
</svg>
