<svg width="41.051" height="74.396" viewBox="0 0 10.861 19.684" xmlns="http://www.w3.org/2000/svg"><path d="M-2.794-1.457H14.25v23.405H-2.794z" style="fill:#fff;fill-rule:evenodd;stroke:none;stroke-width:.264999;stroke-linecap:round;stroke-linejoin:round;stroke-miterlimit:4;stroke-dasharray:none;stroke-opacity:1;fill-opacity:1"/><path d="M74.2 102.2h1.422v0c.112 0 .203.092.203.204v.304a.102.102 0 0 1-.102.102H74.1v0a.101.101 0 0 1-.101-.102s0 0 0 0v-.304 0c0-.112.09-.203.203-.203zM75.329 100.515v0a.254.254 0 0 1 .359-.359l.934.934v0a.254.254 0 0 1-.36.359zM76.836 99.008v0a.254.254 0 0 1 .359-.359l.934.934v0a.254.254 0 0 1-.36.358z" style="fill:none;stroke:#000;stroke-width:.264998;stroke-linecap:round;stroke-linejoin:round;stroke-miterlimit:4;stroke-dasharray:none;stroke-opacity:1" transform="translate(-70.553 -92.408)"/><path fill="none" stroke-linecap="round" stroke-linejoin="round" stroke-width="1" d="M9.146 4.76h8v6h-8z" style="stroke:#000;stroke-width:1.30554;stroke-miterlimit:4;stroke-dasharray:none;stroke-opacity:1;fill:#000;fill-opacity:1" transform="matrix(.14353 -.14353 .14353 .14353 3.175 8.413)"/><path fill="none" stroke="#000" stroke-linecap="round" stroke-linejoin="round" d="m77.016 100.623 1.291 1.435v0a.305.305 0 0 0 .43-.43l-1.434-1.292" style="stroke:#000;stroke-width:.264998;stroke-miterlimit:4;stroke-dasharray:none;stroke-opacity:1" transform="translate(-70.553 -92.408)"/><path d="M79.036 151.543v-.265 0c0-.441-.274-.836-.688-.99l-1.414-.476M75.053 149.812l-1.414.475v0c-.414.155-.688.55-.688.991v.265" style="fill:none;stroke:#000;stroke-width:.264583;stroke-linecap:round;stroke-linejoin:round" transform="translate(-70.553 -145.325)"/><path d="M77.587 147.574h-.18v0a.265.265 0 0 1-.26-.212l-.09-.45v0a2.705 2.705 0 0 1-1.11-.225v0a.828.828 0 0 1-.483-.758v-.42" style="fill:#fff;stroke:#000;stroke-width:.264583;stroke-linecap:round;stroke-linejoin:round;fill-opacity:1" transform="translate(-70.553 -145.325)"/><path d="M74.803 149.896v.802a.132.132 0 0 0 .174.125l1.016-.339-.94-.672" style="fill:none;stroke:#000;stroke-width:.264583;stroke-linecap:round;stroke-linejoin:round" transform="translate(-70.553 -145.325)"/><path d="M77.184 149.896v.802a.132.132 0 0 1-.174.125l-1.017-.339.941-.672M75.993 151.543v-1.059" style="fill:none;stroke:#000;stroke-width:.264583;stroke-linecap:round;stroke-linejoin:round" transform="translate(-70.553 -145.325)"/><path d="M76.258 148.5v0a.404.404 0 0 0-.265.085v0a.405.405 0 0 0-.264-.085c-.633 0-.662.728-1.358.557v0a.068.068 0 0 0-.084.082c.109.42.842.42 1.045.42v0a.807.807 0 0 0 .661-.327v0c.155.209.402.33.662.326.203 0 .936 0 1.045-.419v0a.068.068 0 0 0-.084-.082c-.697.17-.725-.557-1.358-.557Z" style="fill:#000;stroke:#000;stroke-width:.264583;stroke-linecap:round;stroke-linejoin:round;fill-opacity:1" transform="translate(-70.553 -145.325)"/><path d="M77.107 148.996v0c.097-.138.162-.295.191-.46v0a.265.265 0 0 1 .152-.198c.285-.13.356-.648.126-.764.094-.563.121-1.399-.492-1.832a1.427 1.427 0 0 0-.452-.208 2.418 2.418 0 0 0-.639-.077c-.142 0-.272.01-.391.027-1.322.19-1.311 1.365-1.191 2.09-.23.116-.159.635.126.764v0c.08.037.137.11.152.198v0c.029.165.094.322.19.46M74.411 146.516h.524M74.361 147.045h.706" style="fill:none;stroke:#000;stroke-width:.264583;stroke-linecap:round;stroke-linejoin:round" transform="translate(-70.553 -145.325)"/><g fill="none" stroke="#000" stroke-linecap="round" stroke-linejoin="round"><path stroke-width=".26458" d="M5.97 2.321h0a.066.066 0 1 1-.066.067h0c0-.037.03-.067.066-.067M4.912 2.321h0a.066.066 0 1 1-.066.067h0c0-.037.03-.067.066-.067"/></g><path d="M79.036 152.601v-1.058M72.95 152.601v-1.058" style="fill:none;stroke:#000;stroke-width:.264583;stroke-linecap:round;stroke-linejoin:round" transform="translate(-70.553 -145.325)"/><text xml:space="preserve" x="71.974" y="104.646" style="font-style:normal;font-variant:normal;font-weight:700;font-stretch:normal;font-size:.926893px;line-height:1.25;font-family:Montserrat;-inkscape-font-specification:'Montserrat, Bold';font-variant-ligatures:normal;font-variant-caps:normal;font-variant-numeric:normal;font-variant-east-asian:normal;letter-spacing:0;word-spacing:0;fill:#000;fill-opacity:1;stroke:none;stroke-width:.264583" transform="translate(-70.553 -92.408)"><tspan x="71.974" y="104.646" style="font-style:normal;font-variant:normal;font-weight:700;font-stretch:normal;font-size:.926893px;font-family:Montserrat;-inkscape-font-specification:'Montserrat, Bold';font-variant-ligatures:normal;font-variant-caps:normal;font-variant-numeric:normal;font-variant-east-asian:normal;stroke-width:.264583">Din indre kritiker</tspan></text><text xml:space="preserve" x="72.433" y="106.597" style="font-style:normal;font-variant:normal;font-weight:700;font-stretch:normal;font-size:.820074px;line-height:1.25;font-family:Montserrat;-inkscape-font-specification:'Montserrat, Bold';font-variant-ligatures:normal;font-variant-caps:normal;font-variant-numeric:normal;font-variant-east-asian:normal;letter-spacing:0;word-spacing:0;fill:#000;fill-opacity:1;stroke:none;stroke-width:.264583" transform="translate(-70.16 -92.109)"><tspan x="72.433" y="106.597" style="font-style:normal;font-variant:normal;font-weight:500;font-stretch:normal;font-size:.820074px;font-family:Montserrat;-inkscape-font-specification:'Montserrat, Medium';font-variant-ligatures:normal;font-variant-caps:normal;font-variant-numeric:normal;font-variant-east-asian:normal;stroke-width:.264583">Dømmer dig</tspan></text><text xml:space="preserve" x="73.545" y="112.979" style="font-style:normal;font-variant:normal;font-weight:700;font-stretch:normal;font-size:.926893px;line-height:1.25;font-family:Montserrat;-inkscape-font-specification:'Montserrat, Bold';font-variant-ligatures:normal;font-variant-caps:normal;font-variant-numeric:normal;font-variant-east-asian:normal;letter-spacing:0;word-spacing:0;white-space:pre;inline-size:8.85766;fill:#000;fill-opacity:1;stroke:none;stroke-width:.299045" transform="matrix(.88476 0 0 .88476 -62.71 -82.45)"><tspan x="73.545" y="112.979"><tspan style="font-style:normal;font-variant:normal;font-weight:500;font-stretch:normal;font-size:.926893px;font-family:Montserrat;-inkscape-font-specification:'Montserrat, Medium';font-variant-ligatures:normal;font-variant-caps:normal;font-variant-numeric:normal;font-variant-east-asian:normal;stroke-width:.299045">Saboterer dine </tspan></tspan><tspan x="73.545" y="114.138"><tspan style="font-style:normal;font-variant:normal;font-weight:500;font-stretch:normal;font-size:.926893px;font-family:Montserrat;-inkscape-font-specification:'Montserrat, Medium';font-variant-ligatures:normal;font-variant-caps:normal;font-variant-numeric:normal;font-variant-east-asian:normal;stroke-width:.299045">værdier</tspan></tspan></text><text xml:space="preserve" x="72.433" y="108.108" style="font-style:normal;font-variant:normal;font-weight:700;font-stretch:normal;font-size:.820074px;line-height:1.25;font-family:Montserrat;-inkscape-font-specification:'Montserrat, Bold';font-variant-ligatures:normal;font-variant-caps:normal;font-variant-numeric:normal;font-variant-east-asian:normal;letter-spacing:0;word-spacing:0;fill:#000;fill-opacity:1;stroke:none;stroke-width:.264583" transform="translate(-70.16 -92.109)"><tspan x="72.433" y="108.108" style="font-style:normal;font-variant:normal;font-weight:500;font-stretch:normal;font-size:.820074px;font-family:Montserrat;-inkscape-font-specification:'Montserrat, Medium';font-variant-ligatures:normal;font-variant-caps:normal;font-variant-numeric:normal;font-variant-east-asian:normal;stroke-width:.264583">Presser dig</tspan></text><path d="M70.683 103.2a.133.133 0 0 0-.13.132v1.904c0 .073.058.132.13.133h10.6c.073 0 .131-.06.13-.133v-1.904a.132.132 0 0 0-.13-.133zm.133.265H81.15v1.64H70.816Z" style="color:#000;font-style:normal;font-variant:normal;font-weight:400;font-stretch:normal;font-size:medium;line-height:normal;font-family:sans-serif;font-variant-ligatures:normal;font-variant-position:normal;font-variant-caps:normal;font-variant-numeric:normal;font-variant-alternates:normal;font-variant-east-asian:normal;font-feature-settings:normal;font-variation-settings:normal;text-indent:0;text-align:start;text-decoration:none;text-decoration-line:none;text-decoration-style:solid;text-decoration-color:#000;letter-spacing:normal;word-spacing:normal;text-transform:none;writing-mode:lr-tb;direction:ltr;text-orientation:mixed;dominant-baseline:auto;baseline-shift:baseline;text-anchor:start;white-space:normal;shape-padding:0;shape-margin:0;inline-size:0;clip-rule:nonzero;display:inline;overflow:visible;visibility:visible;isolation:auto;mix-blend-mode:normal;color-interpolation:sRGB;color-interpolation-filters:linearRGB;solid-color:#000;solid-opacity:1;vector-effect:none;fill:#000;fill-opacity:1;fill-rule:nonzero;stroke:none;stroke-linecap:butt;stroke-linejoin:round;stroke-miterlimit:4;stroke-dasharray:none;stroke-dashoffset:0;stroke-opacity:1;color-rendering:auto;image-rendering:auto;shape-rendering:auto;text-rendering:auto;enable-background:accumulate;stop-color:#000" transform="translate(-70.553 -92.408)"/><path d="M80.397 105.231v6.848M71.585 105.245v6.847" style="fill:none;stroke:#000;stroke-width:.264582px;stroke-linecap:butt;stroke-linejoin:miter;stroke-opacity:1" transform="translate(-70.553 -92.408)"/><path d="m79.835 101.397 1.44 1.903M72.13 101.397l-1.439 1.903" style="fill:none;stroke:#000;stroke-width:.264583px;stroke-linecap:round;stroke-linejoin:round;stroke-opacity:1" transform="translate(-70.553 -92.408)"/></svg>