<svg width="168.304" height="201.971" xmlns="http://www.w3.org/2000/svg"><path d="M206.845 227.805c-2.368-2.887-7.376-8.701-11.127-12.92-3.75-4.218-6.413-7.921-5.917-8.228.497-.307 4.585.786 9.085 2.428 6.123 2.235 8.65 2.735 10.044 1.99 5.426-2.904 7.036-19.878 7.036-74.165 0-30.422-.271-38.853-1.25-38.847-.687.004-6.633.68-13.212 1.5s-14.576 1.492-17.771 1.492c-5.192 0-5.928.26-6.924 2.445-1.178 2.586-3.412 3.94-4.94 2.995-.505-.312-1.66-2-2.567-3.753-1.372-2.649-1.616-6.058-1.445-20.187.202-16.632-1.127-34.36-2.93-39.103-1.983-5.215 1.195-6.665 8.76-3.996 3.517 1.242 5.196 1.182 14.694-.522 5.897-1.058 14.854-3.262 19.904-4.898l9.181-2.975 6.214 3.128c10.232 5.152 10.417 5.64 6.788 17.866-1.46 4.92-1.6 13.614-1.327 82.5.351 88.395.685 84.502-8.032 93.546-6.406 6.646-8.606 6.6-14.264-.296zm-8.379-136.75c6.434-1.1 13.004-2 14.6-2h2.9v-18.26l-4.25.536c-2.337.294-8.75 1.054-14.25 1.688-5.5.633-11.912 1.379-14.25 1.655l-4.25.504v17.878h3.9c2.146 0 9.166-.9 15.6-2zm-5.306-25.5c6.091-1.375 13.78-2.5 17.088-2.5h6.013l-.666-8.67c-.367-4.769-1.212-9.327-1.878-10.13-.967-1.165-2.829-1.327-9.231-.802-8.477.696-23.385 3.134-24.21 3.96-.27.269-.74 5.024-1.045 10.566-.654 11.861-1.944 11.16 13.929 7.576zM71.08 216.17c-2.876-2.877-4.95-7.257-6.203-13.093-.924-4.312-.786-6.092.917-11.8 5.332-17.865 6.913-31.461 8.364-71.916 1.334-37.186.566-52.217-3.226-63.175-1.99-5.752-2.048-6.478-.624-7.902 1.356-1.355 2.309-1.402 7.049-.34 3.014.674 7.197.944 9.295.6 8.458-1.387 17.19-3.548 24.045-5.953 3.977-1.395 8.027-2.53 9-2.524 2.958.02 13.294 6.316 15.006 9.14 1.499 2.473 1.466 3.087-.478 9.01-1.148 3.495-3.8 16.026-5.893 27.847-3.16 17.837-4.187 21.874-6.041 23.741-3.218 3.242-3.967 3.054-7.609-1.906-1.129-1.537-2.183-1.513-14.716.336-7.425 1.096-13.604 2.095-13.73 2.22-.127.125-.69 13.024-1.253 28.664-1.826 50.821-3.383 69.744-6.225 75.693-1.628 3.407-5.027 4.008-7.677 1.358zm30.627-117.462c4.769-1.124 7.068-1.217 9.75-.395 1.929.593 3.696.889 3.926.659.509-.51 2.742-20.091 2.337-20.496-.158-.158-5.23.568-11.27 1.614-6.041 1.046-12.844 1.916-15.117 1.934-3.428.026-4.237.415-4.737 2.281-.747 2.787-.825 16.222-.098 16.948.575.576 5.383-.229 15.209-2.545zm-1.84-26.231c5.712-1.566 11.204-2.448 14-2.25l4.6.328.285-9.098c.214-6.826-.062-9.386-1.106-10.253-1.263-1.048-12.89.388-27.93 3.45l-2.75.56v9.92c0 11.648-.912 11.129 12.9 7.343zm21.67 125.045c-1.394-2.127-1.709-6.088-1.965-24.75-.223-16.22-.758-24.224-1.982-29.655-2.196-9.746-1.419-10.73 6.376-8.072 6.276 2.14 8.473 1.852 32.17-4.201 14.15-3.615 15.295-3.476 22.699 2.754 2.966 2.496 3.242 3.16 2.644 6.372-.367 1.972-.982 14.16-1.367 27.085-.645 21.668-.874 23.831-2.943 27.75-2.843 5.386-5.131 5.468-8.545.309-2.318-3.502-2.973-3.892-5.883-3.498-12.016 1.627-31.93 3.461-32.663 3.008-.484-.299-1.437.8-2.117 2.444-1.523 3.676-4.19 3.864-6.424.454zm25.978-13.03c10.234-1.813 12.218-1.938 16.201-1.024l3.25.746v-11.147c0-10.16-.155-11.098-1.75-10.592-5.937 1.88-28.37 6.558-31.5 6.568l-3.75.012V187.178l4.75-.63c2.613-.348 8.372-1.273 12.799-2.057zm-1.563-26.992c7.097-2.242 8.695-2.42 13.586-1.516 3.05.563 6.04 1.331 6.647 1.706 1.485.918.21-17.413-1.34-19.282-1.54-1.855-7.045-1.606-15.379.696-3.85 1.064-9.812 2.677-13.25 3.586l-6.25 1.652v16.969l3.971-.635c2.184-.35 7.59-1.779 12.015-3.176z" style="fill:#000" transform="translate(-64.31 -31.06)"/></svg>