<?xml version="1.0" encoding="UTF-8" standalone="no"?>
<svg
   xmlns:dc="http://purl.org/dc/elements/1.1/"
   xmlns:cc="http://creativecommons.org/ns#"
   xmlns:rdf="http://www.w3.org/1999/02/22-rdf-syntax-ns#"
   xmlns:svg="http://www.w3.org/2000/svg"
   xmlns="http://www.w3.org/2000/svg"
   xmlns:sodipodi="http://sodipodi.sourceforge.net/DTD/sodipodi-0.dtd"
   xmlns:inkscape="http://www.inkscape.org/namespaces/inkscape"
   version="1.1"
   id="svg901"
   width="168.30434"
   height="201.97108"
   viewBox="0 0 168.30434 201.97108"
   sodipodi:docname="ma.svg"
   inkscape:version="1.0.2 (e86c870879, 2021-01-15)">
  <metadata
     id="metadata907">
    <rdf:RDF>
      <cc:Work
         rdf:about="">
        <dc:format>image/svg+xml</dc:format>
        <dc:type
           rdf:resource="http://purl.org/dc/dcmitype/StillImage" />
        <dc:title></dc:title>
      </cc:Work>
    </rdf:RDF>
  </metadata>
  <defs
     id="defs905" />
  <sodipodi:namedview
     pagecolor="#ffffff"
     bordercolor="#666666"
     borderopacity="1"
     objecttolerance="10"
     gridtolerance="10"
     guidetolerance="10"
     inkscape:pageopacity="0"
     inkscape:pageshadow="2"
     inkscape:window-width="2298"
     inkscape:window-height="1757"
     id="namedview903"
     showgrid="false"
     inkscape:zoom="3.6229666"
     inkscape:cx="87.922718"
     inkscape:cy="97.426687"
     inkscape:window-x="576"
     inkscape:window-y="37"
     inkscape:window-maximized="1"
     inkscape:current-layer="g909" />
  <g
     inkscape:groupmode="layer"
     inkscape:label="Image"
     id="g909"
     transform="translate(-64.310136,-31.060853)">
    <path
       style="fill:#000000"
       d="m 206.84538,227.80509 c -2.36882,-2.8875 -7.37597,-8.70152 -11.12699,-12.92005 -3.75102,-4.21853 -6.41379,-7.92112 -5.91726,-8.22799 0.49652,-0.30687 4.58461,0.78576 9.08463,2.42807 6.12319,2.23468 8.65041,2.73525 10.04403,1.9894 5.426,-2.9039 7.03631,-19.87706 7.03631,-74.16465 0,-30.42142 -0.27131,-38.853047 -1.25,-38.846787 -0.6875,0.004 -6.6329,0.67939 -13.21199,1.5 -6.5791,0.820597 -14.57625,1.492007 -17.77144,1.492007 -5.19147,0 -5.92795,0.26008 -6.92346,2.44499 -1.17812,2.58569 -3.41171,3.93966 -4.94046,2.99484 -0.50428,-0.31166 -1.65954,-2.00062 -2.56723,-3.75324 -1.3716,-2.64835 -1.61557,-6.058017 -1.44436,-20.186587 0.20154,-16.6317 -1.12705,-34.36031 -2.93044,-39.10359 -1.98265,-5.21476 1.19507,-6.66405 8.7597,-3.99509 3.51804,1.24124 5.1967,1.18159 14.69443,-0.52211 5.89747,-1.05789 14.85425,-3.26219 19.90396,-4.89844 l 9.18129,-2.97501 6.21377,3.12834 c 10.23199,5.15133 10.41743,5.63938 6.78835,17.8659 -1.46048,4.92043 -1.60031,13.614 -1.32695,82.499997 0.35077,88.39471 0.68506,84.50172 -8.03271,93.54625 -6.40521,6.64529 -8.60603,6.59958 -14.26318,-0.29625 z M 198.4661,91.055093 c 6.43431,-1.1 13.00403,-2 14.59937,-2 h 2.90063 v -9.13005 -9.13006 l -4.25,0.53553 c -2.3375,0.29454 -8.75,1.05415 -14.25,1.68802 -5.5,0.63387 -11.9125,1.37898 -14.25,1.6558 l -4.25,0.5033 v 8.93873 8.93873 h 3.90063 c 2.14534,0 9.16506,-0.9 15.59937,-2 z m -5.30607,-25.5 c 6.09117,-1.375 13.78076,-2.5 17.08799,-2.5 h 6.01313 l -0.66645,-8.67035 c -0.36655,-4.76869 -1.21153,-9.32711 -1.87772,-10.12983 -0.96702,-1.16518 -2.82849,-1.32679 -9.23108,-0.80143 -8.47641,0.69552 -23.38511,3.13358 -24.21079,3.95926 -0.26914,0.26914 -0.73921,5.02377 -1.04459,10.56585 -0.6536,11.86144 -1.9438,11.15968 13.92951,7.5765 z M 71.080774,216.16976 c -2.876537,-2.87653 -4.951709,-7.25635 -6.203394,-13.09275 -0.924681,-4.31164 -0.786283,-6.09251 0.917018,-11.79997 5.331487,-17.86487 6.912747,-31.46146 8.363728,-71.91617 1.333753,-37.186297 0.566203,-52.217267 -3.226014,-63.175197 -1.990403,-5.75143 -2.047737,-6.47743 -0.623974,-7.90119 1.355928,-1.35593 2.308577,-1.40205 7.048712,-0.34126 3.01449,0.67462 7.19727,0.94509 9.29507,0.60105 8.45828,-1.38715 17.18922,-3.54877 24.0454,-5.95322 3.97717,-1.39478 8.02717,-2.5306 9,-2.52404 2.95758,0.0199 13.29391,6.31625 15.00603,9.14084 1.49846,2.47207 1.46587,3.08566 -0.4785,9.00862 -1.14757,3.49572 -3.79954,16.02698 -5.89327,27.84724 -3.15952,17.837197 -4.18662,21.873937 -6.04068,23.741377 -3.21831,3.24151 -3.96719,3.05392 -7.60891,-1.90603 -1.12878,-1.53738 -2.18304,-1.5133 -14.71589,0.33618 -7.425,1.09571 -13.60371,2.09463 -13.73046,2.21982 -0.12675,0.12518 -0.69036,13.0239 -1.25248,28.66382 -1.82655,50.82116 -3.38281,69.74413 -6.2251,75.69297 -1.62775,3.40682 -5.027115,4.00808 -7.677286,1.35791 z M 101.70701,98.707853 c 4.76896,-1.12417 7.06833,-1.2172 9.74914,-0.39443 1.92954,0.59219 3.6964,0.88855 3.92637,0.65858 0.50908,-0.50908 2.74239,-20.09144 2.33754,-20.49629 -0.15807,-0.15806 -5.22987,0.56849 -11.27068,1.61456 -6.0408,1.04608 -12.8433,1.9161 -15.11665,1.93339 -3.42757,0.0261 -4.23633,0.41563 -4.73634,2.28143 -0.74699,2.78737 -0.82518,16.221777 -0.0986,16.948307 0.5754,0.57541 5.38279,-0.2292 15.20926,-2.545547 z m -1.84066,-26.23083 c 5.71266,-1.56586 11.20467,-2.44822 14,-2.24929 l 4.59975,0.32736 0.28552,-9.09808 c 0.2142,-6.82567 -0.0619,-9.38644 -1.10558,-10.25259 -1.2635,-1.04861 -12.89045,0.38744 -27.92994,3.44965 l -2.75,0.55993 v 9.92054 c 0,11.64735 -0.91176,11.1284 12.90025,7.34248 z m 21.6702,125.045237 c -1.39397,-2.12746 -1.70844,-6.08864 -1.9649,-24.75 -0.22292,-16.22116 -0.75764,-24.22466 -1.98132,-29.65558 -2.19595,-9.74607 -1.41897,-10.72977 6.37577,-8.07212 6.27579,2.13975 8.4728,1.85287 32.16916,-4.20055 14.15037,-3.61483 15.2957,-3.47587 22.69955,2.75406 2.96606,2.49578 3.24198,3.16067 2.64418,6.37179 -0.3671,1.97188 -0.98223,14.16023 -1.36695,27.08523 -0.64497,21.66792 -0.87441,23.83133 -2.94305,27.75 -2.84292,5.38542 -5.131,5.46812 -8.54525,0.30885 -2.31766,-3.50222 -2.97283,-3.89176 -5.88288,-3.49773 -12.01547,1.62692 -31.93017,3.46087 -32.66303,3.00793 -0.48379,-0.299 -1.43644,0.80065 -2.11699,2.44366 -1.52259,3.67584 -4.18993,3.86453 -6.42429,0.45446 z m 25.97843,-13.03091 c 10.2337,-1.81228 12.2179,-1.93761 16.20112,-1.02333 l 3.25,0.74598 v -11.14684 c 0,-10.16055 -0.15484,-11.0978 -1.75,-10.59251 -5.93745,1.88076 -28.37072,6.55869 -31.5,6.56858 l -3.75,0.0119 v 9.06127 9.06128 l 4.75,-0.63047 c 2.6125,-0.34675 8.37199,-1.27187 12.79888,-2.05582 z m -1.56333,-26.99151 c 7.09715,-2.24199 8.69509,-2.42029 13.58664,-1.51604 3.04895,0.56363 6.03995,1.33158 6.64667,1.70655 1.48468,0.91758 0.20998,-17.41361 -1.34083,-19.28223 -1.53975,-1.85528 -7.04432,-1.60616 -15.37803,0.69595 -3.85,1.06352 -9.8125,2.67724 -13.25,3.58604 l -6.25,1.65236 v 8.48412 8.48412 l 3.97122,-0.63503 c 2.18417,-0.34926 7.59062,-1.77839 12.01433,-3.17584 z"
       id="path913" />
  </g>
</svg>
