<svg xmlns:xlink="http://www.w3.org/1999/xlink" width="772.18" height="569.36" xmlns="http://www.w3.org/2000/svg"><defs><linearGradient id="mentaliseringsmodel_svg__b"><stop offset="0" style="stop-color:#c85c5c;stop-opacity:1"/><stop offset=".5" style="stop-color:#e27272;stop-opacity:.59215686"/><stop offset="1" style="stop-color:#eec0c0;stop-opacity:.62402397"/></linearGradient><linearGradient id="mentaliseringsmodel_svg__a"><stop offset="0" style="stop-color:#8adcad;stop-opacity:.49080423"/><stop offset=".313" style="stop-color:#75d29c;stop-opacity:.38431373"/><stop offset=".625" style="stop-color:#75d29c;stop-opacity:.62352941"/><stop offset="1" style="stop-color:#75d29c;stop-opacity:1"/></linearGradient><linearGradient xlink:href="#mentaliseringsmodel_svg__a" id="mentaliseringsmodel_svg__c" x1="59.871" x2="702.08" y1="273.258" y2="273.258" gradientTransform="translate(36.234 37.042)" gradientUnits="userSpaceOnUse"/><linearGradient xlink:href="#mentaliseringsmodel_svg__b" id="mentaliseringsmodel_svg__d" x1="59.215" x2="716.8" y1="268.546" y2="268.546" gradientTransform="matrix(.9768 0 0 .99264 38.207 43.731)" gradientUnits="userSpaceOnUse"/></defs><path d="M428.851 304.982c106.99-64.184 261.412-157.415 287.875-172.127 10.056-5.59 14.95-8.035 15.235-7.702 2.007 2.343 1.095 1.151 3.68-2.817 1.47-2.256 2.673-4.38 2.673-4.72 0-.75-9.718.15-9.718.15-.616.624-1.744-.078.06 1.766.702.718.513 1.118-.699 1.892-7.646 4.881-303.076 182.306-303.954 182.178m0 0c-.466.429-61.385 37.304-129.849 78.423-127.368 76.498-194.42 116.82-196.94 118.432-.849.543-1.27 1.293-1.05 1.867.202.527.639.958.97.958.778 0 35.134-20.488 195.576-116.631l130.608-78.6 5.533-3.069" style="fill:url(#mentaliseringsmodel_svg__c);fill-opacity:1;stroke-width:1" transform="translate(-10.089 -23.23)"/><path d="M416.152 308.404c-.357 0-12.955-8.038-29.003-17.77-35.07-21.269-120.835-73.21-218.224-132.163-39.334-23.81-71.577-43.214-71.65-43.121-.075.093-.46.802-.855 1.577-.618 1.207-.519 1.538.696 2.321 1.381.89 158.718 96.005 263.868 159.517 42.084 25.419 51.524 31.156 52.292 31.715m2.876-2.076 67.046 40.403c34.66 20.887 70.959 42.962 80.758 48.898 113.344 68.655 144.11 87.3 155.037 93.95 12.314 7.496 12.852 7.753 13.755 6.579.893-1.163 1.056-1.034 3.282 2.584 1.288 2.095 2.342 3.952 2.342 4.13 0 .44-4.187.39-7.013-.084-2.074-.349-2.254-.524-1.668-1.636.36-.685.562-1.319.449-1.409-.114-.09-64.347-38.907-142.741-86.262-78.393-47.354-166.471-100.45-174.123-105.077" style="fill:url(#mentaliseringsmodel_svg__d);fill-opacity:1;stroke-width:.999995" transform="translate(-10.089 -23.23)"/><path d="M69.62 310.3c0-141.264.215-212.503.64-212.503.425 0 .64 71.24.64 212.503 0 141.264-.215 212.503-.64 212.503-.425 0-.64-71.24-.64-212.503z" style="fill:#000;stroke:#000;stroke-width:1;stroke-opacity:1" transform="translate(-10.089 -23.23)"/><g aria-label="Høj" style="font-style:normal;font-weight:400;font-size:40px;line-height:1.25;font-family:sans-serif;letter-spacing:0;word-spacing:0;fill:#000;fill-opacity:1;stroke:none"><path d="M68.3 64.403v14.933h-2.773v-6.4h-7.723v6.4h-2.773V64.403h2.773v6.165h7.723v-6.165zM77.175 79.486q-1.728 0-3.115-.747-1.387-.747-2.176-2.07-.768-1.343-.768-3.029 0-1.685.768-3.008.79-1.322 2.176-2.069 1.387-.747 3.115-.747 1.749 0 3.136.747 1.386.747 2.154 2.07.79 1.322.79 3.007 0 1.686-.79 3.03-.768 1.322-2.154 2.07-1.387.746-3.136.746zm0-2.283q1.472 0 2.432-.981.96-.982.96-2.582 0-1.6-.96-2.58-.96-.982-2.432-.982t-2.432.981q-.939.981-.939 2.581t.939 2.582q.96.981 2.432.981zM81.1 66.515h1.493l-9.386 14.336h-1.494zM84.641 83.624q-1.685 0-2.56-.66l.768-1.985q.598.448 1.558.448.746 0 1.13-.47.406-.447.406-1.343v-11.67h2.666V79.55q0 1.898-1.045 2.986-1.045 1.088-2.923 1.088zm2.624-17.557q-.725 0-1.216-.448-.49-.47-.49-1.152 0-.683.49-1.13.49-.47 1.216-.47t1.216.448q.49.427.49 1.088 0 .704-.49 1.195-.47.47-1.216.47z" style="font-style:normal;font-variant:normal;font-weight:600;font-stretch:normal;font-size:21.3333px;font-family:Montserrat;-inkscape-font-specification:'Montserrat, Semi-Bold';font-variant-ligatures:normal;font-variant-caps:normal;font-variant-numeric:normal;font-variant-east-asian:normal" transform="translate(-10.089 -23.23)"/></g><g aria-label="Lav" style="font-style:normal;font-weight:400;font-size:40px;line-height:1.25;font-family:sans-serif;letter-spacing:0;word-spacing:0;fill:#000;fill-opacity:1;stroke:none"><path d="M53.985 537.871h2.774v12.587h7.808v2.347H53.985ZM70.967 541.285q2.517 0 3.84 1.216 1.344 1.194 1.344 3.626v6.678h-2.518v-1.387q-.49.747-1.408 1.152-.896.384-2.176.384-1.28 0-2.24-.427-.96-.448-1.493-1.216-.512-.789-.512-1.77 0-1.536 1.13-2.454 1.153-.938 3.606-.938h2.944v-.17q0-1.196-.725-1.836-.704-.64-2.112-.64-.96 0-1.899.3-.917.298-1.557.831l-1.046-1.941q.896-.683 2.155-1.046 1.259-.362 2.667-.362zm-.363 9.728q1.003 0 1.77-.448.79-.47 1.11-1.323v-1.323h-2.752q-2.304 0-2.304 1.515 0 .725.576 1.152.576.427 1.6.427zM90.017 541.413l-4.885 11.392H82.38l-4.885-11.392h2.773l3.541 8.448 3.648-8.448z" style="font-style:normal;font-variant:normal;font-weight:600;font-stretch:normal;font-size:21.3333px;font-family:Montserrat;-inkscape-font-specification:'Montserrat, Semi-Bold';font-variant-ligatures:normal;font-variant-caps:normal;font-variant-numeric:normal;font-variant-east-asian:normal" transform="translate(-10.089 -23.23)"/></g><g aria-label="Følelser" style="font-style:normal;font-weight:400;font-size:40px;line-height:1.25;font-family:sans-serif;letter-spacing:0;word-spacing:0;fill:#000;fill-opacity:1;stroke:none;stroke-width:.999999"><path d="M284.21 27.74v5.866h7.723v1.365h-7.723v6.336h-1.579V26.374h10.24v1.365zM300.018 41.414q-1.621 0-2.923-.725-1.301-.747-2.048-2.048-.746-1.302-.746-2.944 0-1.643.746-2.944.747-1.302 2.048-2.027 1.302-.725 2.923-.725t2.923.725q1.3.725 2.026 2.027.747 1.301.747 2.944 0 1.642-.747 2.944-.725 1.301-2.026 2.048-1.302.725-2.923.725zm0-1.344q1.195 0 2.133-.533.96-.555 1.494-1.558.533-1.002.533-2.282t-.533-2.283q-.534-1.003-1.494-1.536-.938-.555-2.133-.555t-2.155.555q-.938.533-1.493 1.536-.533 1.003-.533 2.283t.533 2.282q.555 1.003 1.493 1.558.96.533 2.155.533zm4.181-11.435h1.003l-9.43 14.187h-1.023zM308.807 25.478h1.515v15.83h-1.515zM324.317 36.166h-9.387q.128 1.75 1.344 2.837 1.216 1.067 3.072 1.067 1.045 0 1.92-.363.875-.384 1.515-1.109l.853.981q-.747.896-1.877 1.366-1.11.469-2.454.469-1.728 0-3.072-.725-1.322-.747-2.07-2.048-.746-1.302-.746-2.944 0-1.643.704-2.944.726-1.302 1.963-2.027 1.259-.725 2.816-.725t2.795.725q1.237.725 1.94 2.027.705 1.28.705 2.944zm-5.42-4.864q-1.62 0-2.73 1.045-1.088 1.024-1.237 2.688h7.957q-.15-1.664-1.258-2.688-1.088-1.045-2.731-1.045zM327.431 25.478h1.515v15.83h-1.515zM336.178 41.414q-1.366 0-2.624-.384-1.238-.405-1.942-1.003l.683-1.194q.704.554 1.77.917 1.067.341 2.22.341 1.535 0 2.26-.469.747-.49.747-1.365 0-.619-.405-.96-.405-.363-1.024-.534-.619-.192-1.643-.362-1.365-.256-2.197-.512-.832-.278-1.43-.918-.575-.64-.575-1.77 0-1.408 1.173-2.304 1.173-.896 3.264-.896 1.088 0 2.176.298 1.088.278 1.792.747l-.661 1.216q-1.387-.96-3.307-.96-1.45 0-2.197.512-.726.512-.726 1.344 0 .64.406 1.024.426.384 1.045.576.619.17 1.707.363 1.344.256 2.154.512.811.256 1.387.874.576.619.576 1.707 0 1.472-1.237 2.347-1.216.853-3.392.853zM353.372 36.166h-9.386q.128 1.75 1.344 2.837 1.216 1.067 3.072 1.067 1.045 0 1.92-.363.874-.384 1.514-1.109l.854.981q-.747.896-1.878 1.366-1.109.469-2.453.469-1.728 0-3.072-.725-1.323-.747-2.07-2.048-.746-1.302-.746-2.944 0-1.643.704-2.944.725-1.302 1.963-2.027 1.258-.725 2.816-.725 1.557 0 2.794.725 1.238.725 1.942 2.027.704 1.28.704 2.944zm-5.418-4.864q-1.622 0-2.73 1.045-1.089 1.024-1.238 2.688h7.957q-.15-1.664-1.259-2.688-1.088-1.045-2.73-1.045zM357.938 32.283q.533-1.13 1.578-1.706Q360.583 30 362.14 30v1.472l-.362-.022q-1.771 0-2.774 1.088-1.002 1.088-1.002 3.051v5.717h-1.515V30.086h1.45z" style="font-style:normal;font-variant:normal;font-weight:400;font-stretch:normal;font-size:21.3333px;font-family:Montserrat;-inkscape-font-specification:'Montserrat, Normal';font-variant-ligatures:normal;font-variant-caps:normal;font-variant-numeric:normal;font-variant-east-asian:normal;stroke-width:.999999" transform="rotate(30.839 37.068 -29.904)"/></g><g aria-label="Evne til at sætte sig i andres sted" style="font-style:normal;font-weight:400;font-size:40px;line-height:1.25;font-family:sans-serif;letter-spacing:0;word-spacing:0;fill:#000;fill-opacity:1;stroke:none;stroke-width:.999999"><path d="M-152.74 504.924v1.366h-10.56v-14.934h10.24v1.366h-8.66v5.312h7.722v1.344h-7.723v5.546zM-140.153 495.068l-4.992 11.222h-1.557l-4.971-11.222h1.579l4.202 9.558 4.246-9.558zM-132.302 494.983q2.112 0 3.349 1.237 1.259 1.216 1.259 3.563v6.507h-1.515v-6.358q0-1.75-.875-2.666-.874-.918-2.496-.918-1.813 0-2.88 1.088-1.045 1.067-1.045 2.966v5.888h-1.515v-11.222h1.451v2.07q.619-1.024 1.707-1.58 1.109-.575 2.56-.575zM-113.764 501.148h-9.386q.128 1.75 1.344 2.838 1.216 1.066 3.072 1.066 1.045 0 1.92-.362.874-.384 1.514-1.11l.854.982q-.747.896-1.878 1.365-1.11.47-2.453.47-1.728 0-3.072-.726-1.323-.747-2.07-2.048-.746-1.301-.746-2.944t.704-2.944q.725-1.301 1.963-2.027 1.258-.725 2.816-.725 1.557 0 2.794.725 1.238.726 1.942 2.027.704 1.28.704 2.944zm-5.418-4.864q-1.622 0-2.731 1.046-1.088 1.024-1.237 2.688h7.957q-.15-1.664-1.259-2.688-1.088-1.046-2.73-1.046zM-99.15 505.607q-.427.384-1.067.597-.619.192-1.302.192-1.578 0-2.432-.853-.853-.853-.853-2.41v-6.785h-2.005v-1.28h2.005v-2.453h1.515v2.453h3.413v1.28h-3.413v6.699q0 1.003.49 1.536.512.512 1.451.512.47 0 .896-.15.448-.149.768-.426zM-96.399 495.068h1.515v11.222h-1.515zm.768-2.453q-.469 0-.789-.32-.32-.32-.32-.768 0-.427.32-.747t.79-.32q.469 0 .789.32.32.299.32.726 0 .469-.32.789-.32.32-.79.32zM-90.66 490.46h1.515v15.83h-1.515zM-75.407 494.983q2.198 0 3.371 1.11 1.173 1.087 1.173 3.242v6.955h-1.45v-1.75q-.512.875-1.515 1.366-.981.49-2.347.49-1.877 0-2.986-.896-1.11-.896-1.11-2.368 0-1.43 1.024-2.304 1.046-.874 3.307-.874h3.563v-.683q0-1.45-.811-2.197-.81-.768-2.368-.768-1.067 0-2.048.362-.981.342-1.685.96l-.683-1.13q.853-.726 2.048-1.11 1.195-.405 2.517-.405zm-.533 10.219q1.28 0 2.197-.576.918-.598 1.366-1.707v-1.835h-3.52q-2.88 0-2.88 2.006 0 .98.746 1.557.747.555 2.091.555zM-60.836 505.607q-.427.384-1.067.597-.618.192-1.301.192-1.579 0-2.432-.853t-.853-2.41v-6.785h-2.006v-1.28h2.006v-2.453h1.514v2.453h3.414v1.28h-3.414v6.699q0 1.003.49 1.536.513.512 1.452.512.469 0 .896-.15.448-.149.768-.426zM-49.487 506.396q-1.365 0-2.624-.384-1.237-.405-1.941-1.002l.683-1.195q.704.555 1.77.917 1.067.342 2.219.342 1.536 0 2.261-.47.747-.49.747-1.365 0-.619-.405-.96-.406-.363-1.024-.533-.62-.192-1.643-.363-1.365-.256-2.197-.512-.832-.277-1.43-.917-.576-.64-.576-1.771 0-1.408 1.174-2.304 1.173-.896 3.264-.896 1.088 0 2.176.299 1.088.277 1.792.746l-.662 1.216q-1.386-.96-3.306-.96-1.451 0-2.198.512-.725.512-.725 1.344 0 .64.405 1.024.427.384 1.046.576.618.17 1.706.363 1.344.256 2.155.512.81.256 1.387.875.576.618.576 1.706 0 1.472-1.238 2.347-1.216.853-3.392.853zM-24.122 500.594q0 .17-.042.512h-9.408q.106 1.77 1.322 2.858t3.094 1.088q2.133 0 3.434-1.472l.854.982q-.768.896-1.878 1.365-1.109.47-2.453.47-1.621 0-2.923-.64-1.3-.662-2.09-1.942-.598 1.323-1.814 1.963-1.216.618-2.73.618-1.984 0-3.115-.896-1.13-.917-1.13-2.41 0-1.366 1.023-2.24 1.046-.875 3.307-.875h3.563v-.704q0-1.45-.81-2.197-.812-.768-2.369-.768-1.067 0-2.048.362-.981.342-1.685.96l-.683-1.13q.853-.726 2.048-1.11 1.195-.405 2.496-.405 3.243 0 4.117 2.304.726-1.088 1.878-1.685 1.173-.62 2.581-.62 1.557 0 2.795.726 1.258.726 1.962 2.006.704 1.28.704 2.88zm-5.482-4.31q-1.003 0-1.878.448-.853.448-1.429 1.28-.555.832-.661 1.963h7.957q-.107-1.11-.661-1.941-.555-.854-1.43-1.302-.874-.448-1.898-.448zm-9.046 8.918q1.622 0 2.582-.854.96-.874.96-2.346v-.896h-3.52q-1.515 0-2.198.533-.682.512-.682 1.408 0 1.003.746 1.579.768.576 2.112.576zM-15.119 505.607q-.427.384-1.067.597-.618.192-1.3.192-1.58 0-2.433-.853-.853-.853-.853-2.41v-6.785h-2.006v-1.28h2.006v-2.453h1.514v2.453h3.414v1.28h-3.414v6.699q0 1.003.491 1.536.512.512 1.45.512.47 0 .897-.15.448-.149.768-.426zM-6.756 505.607q-.427.384-1.067.597-.619.192-1.301.192-1.579 0-2.432-.853-.854-.853-.854-2.41v-6.785h-2.005v-1.28h2.005v-2.453h1.515v2.453h3.413v1.28h-3.413v6.699q0 1.003.49 1.536.513.512 1.451.512.47 0 .896-.15.448-.149.768-.426zM5.36 501.148h-9.386q.128 1.75 1.344 2.838 1.216 1.066 3.072 1.066 1.046 0 1.92-.362.875-.384 1.515-1.11l.853.982q-.746.896-1.877 1.365-1.11.47-2.453.47-1.728 0-3.072-.726-1.323-.747-2.07-2.048-.746-1.301-.746-2.944t.704-2.944q.725-1.301 1.962-2.027 1.259-.725 2.816-.725 1.558 0 2.795.725 1.237.726 1.941 2.027.704 1.28.704 2.944zm-5.418-4.864q-1.621 0-2.73 1.046-1.088 1.024-1.238 2.688h7.958q-.15-1.664-1.26-2.688-1.087-1.046-2.73-1.046zM17.073 506.396q-1.365 0-2.624-.384-1.237-.405-1.941-1.002l.682-1.195q.704.555 1.77.917 1.068.342 2.22.342 1.536 0 2.26-.47.748-.49.748-1.365 0-.619-.406-.96-.405-.363-1.024-.533-.618-.192-1.642-.363-1.366-.256-2.198-.512-.832-.277-1.43-.917-.575-.64-.575-1.771 0-1.408 1.173-2.304 1.174-.896 3.264-.896 1.088 0 2.176.299 1.088.277 1.792.746l-.661 1.216q-1.387-.96-3.307-.96-1.45 0-2.197.512-.725.512-.725 1.344 0 .64.405 1.024.427.384 1.045.576.619.17 1.707.363 1.344.256 2.155.512.81.256 1.386.875.576.618.576 1.706 0 1.472-1.237 2.347-1.216.853-3.392.853zM24.497 495.068h1.514v11.222h-1.514zm.768-2.453q-.47 0-.79-.32-.32-.32-.32-.768 0-.427.32-.747t.79-.32q.47 0 .79.32.32.299.32.726 0 .469-.32.789-.32.32-.79.32zM40.625 495.068v9.856q0 2.859-1.408 4.224-1.387 1.387-4.203 1.387-1.557 0-2.965-.47-1.387-.447-2.262-1.258l.768-1.152q.811.725 1.963 1.13 1.173.406 2.453.406 2.134 0 3.136-1.003 1.003-.981 1.003-3.072v-1.43q-.704 1.068-1.856 1.622-1.13.555-2.517.555-1.579 0-2.88-.683-1.28-.704-2.027-1.941-.725-1.259-.725-2.837 0-1.58.725-2.816.747-1.238 2.027-1.92 1.28-.683 2.88-.683 1.43 0 2.581.576 1.152.576 1.856 1.664v-2.155zm-5.739 9.45q1.216 0 2.197-.511.982-.533 1.515-1.472.555-.939.555-2.133 0-1.195-.555-2.112-.533-.94-1.515-1.451-.96-.533-2.197-.533-1.216 0-2.197.512-.96.512-1.515 1.45-.533.939-.533 2.134 0 1.194.533 2.133.555.939 1.515 1.472.981.512 2.197.512zM50.46 495.068h1.514v11.222h-1.515zm.767-2.453q-.469 0-.789-.32-.32-.32-.32-.768 0-.427.32-.747t.79-.32q.469 0 .789.32.32.299.32.726 0 .469-.32.789-.32.32-.79.32zM65.713 494.983q2.197 0 3.37 1.11 1.174 1.087 1.174 3.242v6.955h-1.451v-1.75q-.512.875-1.515 1.366-.981.49-2.346.49-1.878 0-2.987-.896-1.11-.896-1.11-2.368 0-1.43 1.025-2.304 1.045-.874 3.306-.874h3.563v-.683q0-1.45-.81-2.197-.811-.768-2.369-.768-1.066 0-2.048.362-.981.342-1.685.96l-.683-1.13q.854-.726 2.048-1.11 1.195-.405 2.518-.405zm-.534 10.219q1.28 0 2.198-.576.917-.598 1.365-1.707v-1.835h-3.52q-2.88 0-2.88 2.006 0 .98.747 1.557.746.555 2.09.555zM80.091 494.983q2.112 0 3.35 1.237 1.258 1.216 1.258 3.563v6.507h-1.514v-6.358q0-1.75-.875-2.666-.875-.918-2.496-.918-1.813 0-2.88 1.088-1.045 1.067-1.045 2.966v5.888h-1.515v-11.222h1.45v2.07q.62-1.024 1.707-1.58 1.11-.575 2.56-.575zM99.1 490.46v15.83h-1.452v-2.22q-.682 1.132-1.813 1.729-1.11.597-2.517.597-1.579 0-2.859-.725t-2.005-2.027q-.726-1.301-.726-2.965t.726-2.965q.725-1.302 2.005-2.006 1.28-.725 2.859-.725 1.365 0 2.453.576 1.11.555 1.813 1.643v-6.742zm-5.654 14.592q1.173 0 2.112-.533.96-.555 1.493-1.557.555-1.003.555-2.283t-.555-2.283q-.533-1.002-1.493-1.536-.939-.554-2.112-.554-1.195 0-2.155.554-.939.534-1.493 1.536-.534 1.003-.534 2.283t.534 2.283q.554 1.002 1.493 1.557.96.533 2.155.533zM104.774 497.266q.533-1.131 1.578-1.707 1.067-.576 2.624-.576v1.472l-.362-.021q-1.77 0-2.774 1.088-1.002 1.088-1.002 3.05v5.718h-1.515v-11.222h1.45zM121.371 501.148h-9.387q.128 1.75 1.344 2.838 1.216 1.066 3.072 1.066 1.046 0 1.92-.362.875-.384 1.515-1.11l.853.982q-.746.896-1.877 1.365-1.11.47-2.453.47-1.728 0-3.072-.726-1.323-.747-2.07-2.048-.746-1.301-.746-2.944t.704-2.944q.725-1.301 1.962-2.027 1.26-.725 2.816-.725 1.558 0 2.795.725 1.237.726 1.941 2.027.704 1.28.704 2.944zm-5.419-4.864q-1.62 0-2.73 1.046-1.088 1.024-1.238 2.688h7.958q-.15-1.664-1.259-2.688-1.088-1.046-2.73-1.046zM127.494 506.396q-1.366 0-2.624-.384-1.238-.405-1.942-1.002l.683-1.195q.704.555 1.77.917 1.067.342 2.22.342 1.535 0 2.26-.47.747-.49.747-1.365 0-.619-.405-.96-.405-.363-1.024-.533-.619-.192-1.643-.363-1.365-.256-2.197-.512-.832-.277-1.43-.917-.575-.64-.575-1.771 0-1.408 1.173-2.304 1.173-.896 3.264-.896 1.088 0 2.176.299 1.088.277 1.792.746l-.661 1.216q-1.387-.96-3.307-.96-1.45 0-2.197.512-.726.512-.726 1.344 0 .64.406 1.024.426.384 1.045.576.619.17 1.707.363 1.344.256 2.154.512.811.256 1.387.875.576.618.576 1.706 0 1.472-1.237 2.347-1.216.853-3.392.853zM143.515 506.396q-1.365 0-2.624-.384-1.237-.405-1.941-1.002l.682-1.195q.704.555 1.771.917 1.067.342 2.219.342 1.536 0 2.26-.47.748-.49.748-1.365 0-.619-.406-.96-.405-.363-1.024-.533-.618-.192-1.642-.363-1.366-.256-2.198-.512-.832-.277-1.429-.917-.576-.64-.576-1.771 0-1.408 1.173-2.304 1.174-.896 3.264-.896 1.088 0 2.176.299 1.088.277 1.792.746l-.661 1.216q-1.387-.96-3.307-.96-1.45 0-2.197.512-.725.512-.725 1.344 0 .64.405 1.024.427.384 1.045.576.619.17 1.707.363 1.344.256 2.155.512.81.256 1.386.875.576.618.576 1.706 0 1.472-1.237 2.347-1.216.853-3.392.853zM156.848 505.607q-.426.384-1.066.597-.62.192-1.302.192-1.578 0-2.432-.853-.853-.853-.853-2.41v-6.785h-2.005v-1.28h2.005v-2.453h1.515v2.453h3.413v1.28h-3.413v6.699q0 1.003.49 1.536.512.512 1.45.512.47 0 .897-.15.448-.149.768-.426zM168.965 501.148h-9.386q.128 1.75 1.344 2.838 1.216 1.066 3.072 1.066 1.045 0 1.92-.362.874-.384 1.514-1.11l.854.982q-.747.896-1.878 1.365-1.109.47-2.453.47-1.728 0-3.072-.726-1.323-.747-2.07-2.048-.746-1.301-.746-2.944t.704-2.944q.725-1.301 1.963-2.027 1.258-.725 2.816-.725 1.557 0 2.794.725 1.238.726 1.942 2.027.704 1.28.704 2.944zm-5.418-4.864q-1.622 0-2.73 1.046-1.089 1.024-1.238 2.688h7.957q-.15-1.664-1.259-2.688-1.088-1.046-2.73-1.046zM182.32 490.46v15.83h-1.45v-2.22q-.683 1.132-1.814 1.729-1.11.597-2.517.597-1.579 0-2.859-.725t-2.005-2.027q-.726-1.301-.726-2.965t.726-2.965q.725-1.302 2.005-2.006 1.28-.725 2.859-.725 1.365 0 2.453.576 1.11.555 1.813 1.643v-6.742zm-5.653 14.592q1.173 0 2.112-.533.96-.555 1.493-1.557.555-1.003.555-2.283t-.555-2.283q-.533-1.002-1.493-1.536-.939-.554-2.112-.554-1.195 0-2.155.554-.939.534-1.493 1.536-.534 1.003-.534 2.283t.534 2.283q.554 1.002 1.493 1.557.96.533 2.155.533z" style="font-style:normal;font-variant:normal;font-weight:400;font-stretch:normal;font-size:21.3333px;font-family:Montserrat;-inkscape-font-specification:'Montserrat, Normal';font-variant-ligatures:normal;font-variant-caps:normal;font-variant-numeric:normal;font-variant-east-asian:normal;stroke-width:.999999" transform="rotate(-31.159 -46.704 6.477)"/></g></svg>