<svg viewBox="0 0 200 200" xmlns="http://www.w3.org/2000/svg"><path d="M160.5 93.833c-9.071-2.443-15.372-10.61-15.372-19.926 0-5.826 1.944-10.518 6.063-14.633 6.881-6.874 17.315-7.997 25.565-2.75 6.304 4.009 10.176 11.865 9.431 19.133-.915 8.934-7.642 16.563-16.173 18.342-2.72.567-7.075.491-9.514-.166z" style="fill:#75d29c;fill-rule:evenodd;stroke-width:3;stroke-linecap:round;stroke-linejoin:round;paint-order:stroke markers fill"/><g fill="none" stroke="#000" stroke-linecap="round" stroke-linejoin="round"><path stroke-width="8.33333" d="M137.5 70.833a25 25 0 1 0 50 0 25 25 0 1 0-50 0ZM37.5 12.5a25 25 0 0 0-25 25v33.333h0a41.667 41.667 0 0 0 83.333 0V37.5a25 25 0 0 0-25-25"/><path stroke-width="8.33333" d="M54.167 112.5v66.667a16.667 16.667 0 0 0 33.333 0V131.1a20.833 20.833 0 1 1 41.667 0v31.4a16.667 16.667 0 0 0 33.333 0V95.833M37.5 4.167V25M70.833 4.167V25"/></g></svg>