<?xml version="1.0" encoding="UTF-8" standalone="no"?>
<svg
   viewBox="0 0 200 200"
   version="1.1"
   id="svg14"
   sodipodi:docname="stethoscope_f.svg"
   inkscape:export-filename="/home/tobias/documents/FunkLid/proxy/ekstra_ekstra:ikoner/stethoscope.png"
   inkscape:export-xdpi="127.3"
   inkscape:export-ydpi="127.3"
   inkscape:version="1.1.1 (3bf5ae0d25, 2021-09-20)"
   xmlns:inkscape="http://www.inkscape.org/namespaces/inkscape"
   xmlns:sodipodi="http://sodipodi.sourceforge.net/DTD/sodipodi-0.dtd"
   xmlns="http://www.w3.org/2000/svg"
   xmlns:svg="http://www.w3.org/2000/svg">
  <defs
     id="defs18" />
  <sodipodi:namedview
     id="namedview16"
     pagecolor="#ffffff"
     bordercolor="#666666"
     borderopacity="1.0"
     inkscape:pageshadow="2"
     inkscape:pageopacity="0.0"
     inkscape:pagecheckerboard="0"
     showgrid="false"
     inkscape:zoom="2.62"
     inkscape:cx="131.87023"
     inkscape:cy="72.519084"
     inkscape:window-width="1920"
     inkscape:window-height="1080"
     inkscape:window-x="2880"
     inkscape:window-y="0"
     inkscape:window-maximized="1"
     inkscape:current-layer="svg14" />
  <path
     style="fill:#75d29c;fill-rule:evenodd;stroke-width:3;stroke-linecap:round;stroke-linejoin:round;paint-order:stroke markers fill"
     d="m 160.5,93.833333 c -9.07101,-2.443164 -15.37195,-10.610752 -15.37195,-19.925869 0,-5.826945 1.94395,-10.518938 6.0628,-14.633444 6.88146,-6.874205 17.31535,-7.996595 25.56507,-2.750077 6.30374,4.008942 10.17614,11.864873 9.43144,19.133538 -0.91525,8.933382 -7.64258,16.562466 -16.17351,18.341485 -2.71985,0.567188 -7.07449,0.491375 -9.51385,-0.165633 z"
     id="path863" />
  <g
     transform="matrix(8.333333333333334,0,0,8.333333333333334,0,0)"
     id="g12">
    <path
       d="M16.500 8.500 A3.000 3.000 0 1 0 22.500 8.500 A3.000 3.000 0 1 0 16.500 8.500 Z"
       fill="none"
       stroke="#000000"
       stroke-linecap="round"
       stroke-linejoin="round"
       id="path2" />
    <path
       d="M4.5,1.5a3,3,0,0,0-3,3v4h0a5,5,0,0,0,10,0v-4a3,3,0,0,0-3-3"
       fill="none"
       stroke="#000000"
       stroke-linecap="round"
       stroke-linejoin="round"
       id="path4" />
    <path
       d="M6.5,13.5v8a2,2,0,0,0,4,0V15.732a2.5,2.5,0,1,1,5,0V19.5a2,2,0,0,0,4,0v-8"
       fill="none"
       stroke="#000000"
       stroke-linecap="round"
       stroke-linejoin="round"
       id="path6" />
    <path
       d="M4.5 0.5L4.5 3"
       fill="none"
       stroke="#000000"
       stroke-linecap="round"
       stroke-linejoin="round"
       id="path8" />
    <path
       d="M8.5 0.5L8.5 3"
       fill="none"
       stroke="#000000"
       stroke-linecap="round"
       stroke-linejoin="round"
       id="path10" />
  </g>
</svg>
