<svg id="Group_816" data-name="Group 816" xmlns="http://www.w3.org/2000/svg" width="193.082" height="202.496" viewBox="0 0 193.082 202.496">
  <path id="Path_442" data-name="Path 442" d="M40.541,0h0C68.511,0,91.184,20.966,91.184,46.83S82.574,85.324,34,93.659h0c-27.969,0-34-55.214-34-55.214S12.572,0,40.541,0Z" transform="translate(82.074 35.712) rotate(31)" fill="#e79e17"/>
  <rect id="Rectangle_157" data-name="Rectangle 157" width="55.07" height="8.472" rx="4" transform="matrix(0.799, 0.602, -0.602, 0.799, 13.673, 24.554)" fill="#e79e17"/>
  <rect id="Rectangle_160" data-name="Rectangle 160" width="62.13" height="11.296" rx="4" transform="matrix(0.799, 0.602, -0.602, 0.799, 139.355, 130.444)" fill="#e79e17"/>
  <rect id="Rectangle_161" data-name="Rectangle 161" width="49.422" height="8.472" rx="4" transform="matrix(0.259, 0.966, -0.966, 0.259, 113.092, 152.566)" fill="#e79e17"/>
  <rect id="Rectangle_162" data-name="Rectangle 162" width="49.422" height="8.472" rx="4" transform="matrix(-0.225, 0.974, -0.974, -0.225, 132.142, 1.906)" fill="#e79e17"/>
  <rect id="Rectangle_158" data-name="Rectangle 158" width="62.13" height="8.472" rx="4" transform="matrix(0.819, -0.574, 0.574, 0.819, 0, 169.842)" fill="#e79e17"/>
  <rect id="Rectangle_159" data-name="Rectangle 159" width="60.718" height="8.472" rx="4" transform="matrix(0.819, -0.574, 0.574, 0.819, 138.485, 70.647)" fill="#e79e17"/>
</svg>
