<svg xmlns="http://www.w3.org/2000/svg" width="585.828" height="235.97" viewBox="0 0 585.828 235.97">
  <g id="Group_814" data-name="Group 814" transform="translate(-428.227 -1855.995)">
    <path id="Path_468" data-name="Path 468" d="M1002.726,548.517c-19.873-.213-39.182-.03-58.642,2.365A368.247,368.247,0,0,0,888,562.325c-7.377,2.109-15.385,5.057-16.01,9.432-.39,2.731,2.3,5.3,5.137,7.608a46.964,46.964,0,0,0,15.326,8.709c11.431,3.755,25.966,3.344,39.433,2.783,33.847-1.411,67.744-2.963,101.086-6.313,12.049-1.211,24.1-2.67,35.3-5.286,6.087-1.422,12.476-3.583,13.79-6.994,1.886-4.895-6.856-9.171-14.155-11.377-14.608-4.416-17.89-6.138-34.137-8.123-6.9-.843-19.522-3.465-37.4-4.311" transform="translate(-443.722 1500.745)" fill="#076572"/>
    <path id="Path_469" data-name="Path 469" d="M992.7,548.534c-18.35-.269-36.178-.038-54.147,2.991A261.712,261.712,0,0,0,886.766,566c-6.812,2.667-14.205,6.4-14.783,11.93-.36,3.454,2.124,6.709,4.744,9.623,3.8,4.229,13.687,8.037,19.639,10.715,10.554,4.749,18.488,4.531,30.923,3.821,31.253-1.785,62.551-3.748,93.337-7.985,11.125-1.531,22.255-3.378,32.6-6.687,5.621-1.8,11.52-4.532,12.733-8.846,1.742-6.192-6.331-11.6-13.07-14.391-13.488-5.585-16.518-7.764-31.52-10.275-6.373-1.066-18.025-4.382-34.534-5.453" transform="translate(-350.403 1421.097)" fill="#009cb2"/>
    <path id="Path_470" data-name="Path 470" d="M130.778.071C110.9-.158,91.6.039,72.135,2.618A345.347,345.347,0,0,0,16.048,14.94C8.671,17.21.664,20.385.038,25.1c-.39,2.941,2.3,5.711,5.138,8.192A46.248,46.248,0,0,0,20.5,42.667c11.431,4.043,25.966,3.6,39.433,3,33.847-1.519,67.744-3.191,101.086-6.8,12.049-1.3,24.1-2.876,35.3-5.692,6.087-1.531,12.476-3.858,13.79-7.531,1.886-5.271-6.856-9.875-14.155-12.251-14.608-4.755-17.889-6.61-34.137-8.747C154.919,3.736,142.3.913,124.419,0" transform="translate(866.045 1958.54) rotate(180)" fill="#7ec8d6"/>
    <path id="Path_471" data-name="Path 471" d="M130.778.071C110.9-.158,91.6.039,72.135,2.618A345.347,345.347,0,0,0,16.048,14.94C8.671,17.21.664,20.385.038,25.1c-.39,2.941,2.3,5.711,5.138,8.192A46.248,46.248,0,0,0,20.5,42.667c11.431,4.043,25.966,3.6,39.433,3,33.847-1.519,67.744-3.191,101.086-6.8,12.049-1.3,24.1-2.876,35.3-5.692,6.087-1.531,12.476-3.858,13.79-7.531,1.886-5.271-6.856-9.875-14.155-12.251-14.608-4.755-17.889-6.61-34.137-8.747C154.919,3.736,142.3.913,124.419,0" transform="translate(1014.055 1902.049) rotate(180)" fill="rgba(50,63,81,0.14)"/>
  </g>
</svg>
