<svg xmlns="http://www.w3.org/2000/svg" width="525.916" height="1017.953" viewBox="0 0 525.916 1017.953">
  <g id="Group_838" data-name="Group 838" transform="translate(-2015.608 -580.445)">
    <g id="Group_809" data-name="Group 809" transform="translate(56.109 152)">
      <ellipse id="Ellipse_116" data-name="Ellipse 116" cx="16.24" cy="19.212" rx="16.24" ry="19.212" transform="matrix(0.94, -0.341, 0.341, 0.94, 2191.358, 989.509)" fill="#323f51"/>
      <path id="Path_1169" data-name="Path 1169" d="M0,.379C.119,12.512,39.213,12.135,39.094,0" transform="translate(2245.442 926.534)" fill="none" stroke="#323f51" stroke-linecap="round" stroke-linejoin="round" stroke-width="5"/>
      <path id="Path_1170" data-name="Path 1170" d="M0,.379C.119,12.512,39.211,12.135,39.092,0" transform="translate(2151.881 930.798)" fill="none" stroke="#323f51" stroke-linecap="round" stroke-linejoin="round" stroke-width="5"/>
      <g id="Group_805" data-name="Group 805" transform="translate(2279.734 781.213)">
        <text id="Z" transform="translate(0 0)" fill="#323f51" font-size="70" font-family="Lato-Black, Lato" font-weight="800" letter-spacing="0.5em"><tspan x="7.312" y="69">Z</tspan></text>
      </g>
      <g id="Group_806" data-name="Group 806" transform="translate(2323.221 719.818)">
        <text id="Z-2" data-name="Z" transform="translate(0 0)" fill="#323f51" font-size="70" font-family="Lato-Black, Lato" font-weight="800" letter-spacing="0.5em"><tspan x="7.312" y="69">Z</tspan></text>
      </g>
      <g id="Group_807" data-name="Group 807" transform="translate(2368.415 643.506)">
        <text id="Z-3" data-name="Z" transform="translate(0 0)" fill="#323f51" font-size="100" font-family="Lato-Black, Lato" font-weight="800" letter-spacing="0.5em"><tspan x="27.618" y="99">Z</tspan></text>
      </g>
      <g id="Group_804" data-name="Group 804" transform="translate(1962.999 787.057)">
        <path id="Path_1164" data-name="Path 1164" d="M-976.144,187.328" transform="translate(1134.292 13.043)" fill="none" stroke="#323f51" stroke-width="1"/>
        <path id="Path_1167" data-name="Path 1167" d="M-925.129,262.108c-.674,53.987-1.343,90.332-2.017,144.323a284.622,284.622,0,0,1-55.438,1.038" transform="translate(1114.11 247.387)" fill="none" stroke="#323f51" stroke-linecap="round" stroke-linejoin="round" stroke-width="6"/>
        <path id="Path_1168" data-name="Path 1168" d="M-940.249,262.451c-2.521,51.786-2.6,86.568-.219,138.358a132.262,132.262,0,0,1,55.736.79" transform="translate(1243.108 254.143)" fill="none" stroke="#323f51" stroke-linecap="round" stroke-linejoin="round" stroke-width="6"/>
        <path id="Path_1163" data-name="Path 1163" d="M-867.544,157.951c-42.946,23.811-68.98,69.444-87.429,114.952A628.678,628.678,0,0,0-999.71,545.68c1.075,17.862,3.055,36.175,11.269,52.073,10.425,20.181,29.829,34.29,50.168,44.409,38.6,19.206,82.122,26.473,125.175,28.788,36.6,1.968,74.193.368,108.346-12.935s64.636-39.874,75.3-74.941c6.312-20.756,5.432-42.921,4.494-64.595q-1.383-32-2.77-64c-2.472-57.125-5.13-115.258-24.323-169.122s-57.778-103.8-111.848-122.4c-17.11-5.888-93.132-12.261-103.242-5.142-.075.026-8.431,5.085-8.593,5.142" transform="translate(1056.951 -154.662)" fill="none" stroke="#323f51" stroke-miterlimit="10" stroke-width="10"/>
        <path id="Path_1165" data-name="Path 1165" d="M-943.1,188.38c-37.584,8.846-71.261,47.374-71.3,85.988-.008,9.144,1.5,18.437,5.639,26.593,7.692,15.142,23.236,24.406,38.1,32.628,52.938,29.263,66.615,23.331,134.356,33.675" transform="translate(1014.401 29.614)" fill="none" stroke="#323f51" stroke-linecap="round" stroke-linejoin="round" stroke-width="7"/>
        <path id="Path_1166" data-name="Path 1166" d="M-850.443,193.954c30.363,19.011,47.421,40.345,63.431,72.394,8.2,16.407,14.03,36.047,6.544,52.788-5.2,11.628-16.048,19.809-27.469,25.444-42.28,20.871-104.887,20.034-149.225,36.073" transform="translate(1275.543 25.635)" fill="none" stroke="#323f51" stroke-linecap="round" stroke-linejoin="round" stroke-width="7"/>
      </g>
    </g>
    <g id="Group_808" data-name="Group 808" transform="translate(2088.383 580.445)">
      <path id="Path_843" data-name="Path 843" d="M575.4,136.387A73.711,73.711,0,0,1,649.466,62.8c40.243.045,73.4,33.411,73.347,73.8a73.705,73.705,0,1,1-147.41-.217Z" transform="translate(-508.261 3.073)" fill="#e79e17"/>
      <path id="Path_844" data-name="Path 844" d="M641.329,103.49c0,5.495-4.331,8.514-8.156,6.41-10.523-5.789-20.912-11.841-31.255-17.956A5.632,5.632,0,0,1,600.2,84.2a5.468,5.468,0,0,1,7.568-2.194c10.376,5.821,20.694,11.738,30.9,17.841C640.12,100.714,640.836,102.786,641.329,103.49Z" transform="translate(-378.966 102.728)" fill="#e79e17"/>
      <path id="Path_845" data-name="Path 845" d="M600.651,86.971c.819.64,2.975,1.58,3.966,3.224,5.879,9.774,11.54,19.683,17.176,29.6,1.887,3.326,1.062,6.525-1.817,8.271s-6.429.774-8.367-2.546q-8.549-14.614-16.92-29.336C592.144,91.686,594.606,87.035,600.651,86.971Z" transform="translate(-409.544 133.506)" fill="#e79e17"/>
      <path id="Path_846" data-name="Path 846" d="M604.3,92.779c-1.458-1.465-3.62-2.789-4.471-4.7-1.183-2.655-.09-5.271,2.584-6.845,3.972-2.348,7.977-4.644,11.968-6.947,5.783-3.339,11.559-6.7,17.361-10,3.793-2.156,7.094-1.535,8.879,1.561,1.753,3.032.627,6.448-2.981,8.546q-14.326,8.338-28.716,16.549A40.654,40.654,0,0,1,604.3,92.779Z" transform="translate(-378.994 4.212)" fill="#e79e17"/>
      <path id="Path_847" data-name="Path 847" d="M582.31,128.965c-5.521-.147-8.329-4.465-6.186-8.335,5.763-10.408,11.745-20.688,17.8-30.935a5.7,5.7,0,0,1,8-1.823,5.543,5.543,0,0,1,1.983,7.651c-5.776,10.261-11.629,20.483-17.687,30.577C585.291,127.628,583.116,128.4,582.31,128.965Z" transform="translate(-508.253 133.437)" fill="#e79e17"/>
      <path id="Path_848" data-name="Path 848" d="M582.456,55.327c.787.6,2.866,1.459,3.8,3.013,5.943,9.883,11.681,19.894,17.38,29.918,1.849,3.256.941,6.589-1.945,8.239-2.859,1.638-6.256.8-8.137-2.386-5.847-9.941-11.655-19.907-17.291-29.97C573.891,59.907,576.654,55.308,582.456,55.327Z" transform="translate(-508.201 -37.274)" fill="#e79e17"/>
      <path id="Path_849" data-name="Path 849" d="M600.875,97.236c-6.1.109-8.745-4.523-6.256-8.994,4.081-7.318,8.341-14.534,12.525-21.788,1.523-2.629,2.994-5.29,4.6-7.862,1.939-3.1,5.342-4.113,8.105-2.546,2.91,1.644,3.9,4.99,2.066,8.22C616.227,74.3,610.489,84.3,604.553,94.191,603.619,95.751,601.6,96.666,600.875,97.236Z" transform="translate(-409.575 -37.321)" fill="#e79e17"/>
      <path id="Path_850" data-name="Path 850" d="M609.657,85.212c-.025,5.591-4.286,8.553-8.162,6.416-10.523-5.8-20.9-11.866-31.242-17.982a5.691,5.691,0,0,1-1.708-7.734,5.476,5.476,0,0,1,7.587-2.162q15.554,8.732,30.9,17.854C608.467,82.468,609.184,84.534,609.657,85.212Z" transform="translate(-549.718 4.128)" fill="#e79e17"/>
      <path id="Path_851" data-name="Path 851" d="M585.925,75.5c0-5.476-.032-10.951.007-16.421.032-4.043,2.213-6.512,5.712-6.57,3.544-.058,5.891,2.348,5.91,6.359q.087,16.974-.006,33.942c-.019,4-2.354,6.422-5.885,6.391-3.5-.038-5.674-2.469-5.706-6.55-.045-5.719-.012-11.431-.012-17.15Z" transform="translate(-451.539 -52.505)" fill="#e79e17"/>
      <path id="Path_852" data-name="Path 852" d="M588.2,85.175c-5.6,0-11.195.045-16.786-.019-4.049-.045-6.493-2.277-6.512-5.77-.025-3.518,2.444-5.84,6.429-5.853q16.964-.048,33.935.026c3.838.013,6.218,2.2,6.32,5.553.108,3.563-2.3,5.975-6.237,6.032-5.713.077-11.431.019-17.15.019Z" transform="translate(-564.906 60.874)" fill="#e79e17"/>
      <path id="Path_853" data-name="Path 853" d="M624.6,85.172c-5.476,0-10.951.045-16.427-.013-4.318-.038-6.788-2.264-6.729-5.924.064-3.621,2.565-5.712,6.934-5.719q16.427-.01,32.848.026c4.414.013,6.877,2.092,6.909,5.712.032,3.659-2.425,5.86-6.749,5.9-5.6.045-11.195.013-16.786.013Z" transform="translate(-367.716 60.877)" fill="#e79e17"/>
      <path id="Path_854" data-name="Path 854" d="M609.631,88.577c-.582.716-1.516,2.712-3.083,3.653-9.89,5.924-19.894,11.668-29.925,17.355a5.7,5.7,0,0,1-8.194-2.13,5.856,5.856,0,0,1,2.309-7.894C580.781,93.65,590.85,87.784,601.021,82.1,605.256,79.737,609.779,82.622,609.631,88.577Z" transform="translate(-549.731 102.775)" fill="#e79e17"/>
      <path id="Path_855" data-name="Path 855" d="M597.566,112.56c0,5.6.051,11.195-.019,16.792-.051,4.017-2.335,6.416-5.891,6.384-3.5-.032-5.687-2.463-5.706-6.544q-.057-16.792-.019-33.577c.007-4.049,2.213-6.512,5.706-6.57,3.544-.058,5.866,2.348,5.917,6.365C597.623,101.129,597.572,106.841,597.566,112.56Z" transform="translate(-451.53 144.693)" fill="#e79e17"/>
    </g>
  </g>
</svg>
