<svg xmlns="http://www.w3.org/2000/svg" width="615.948" height="940.96" viewBox="0 0 615.948 940.96">
  <g id="Group_836" data-name="Group 836" transform="translate(-1959.499 -643.506)">
    <g id="Group_804" data-name="Group 804" transform="translate(-10674 18788)">
      <path id="Path_1164" data-name="Path 1164" d="M-976.144,187.328" transform="translate(13798.609 -17928.492)" fill="none" stroke="#323f51" stroke-width="1"/>
      <path id="Path_1167" data-name="Path 1167" d="M-915.2,262.108c-.79,63.313-1.575,105.935-2.365,169.253a333.789,333.789,0,0,1-65.014,1.217" transform="translate(13773.829 -17640.75)" fill="none" stroke="#323f51" stroke-linecap="round" stroke-linejoin="round" stroke-width="6"/>
      <path id="Path_1168" data-name="Path 1168" d="M-939.912,262.451c-2.957,60.731-3.044,101.521-.257,162.257a155.109,155.109,0,0,1,65.363.926" transform="translate(13932.086 -17632.768)" fill="none" stroke="#323f51" stroke-linecap="round" stroke-linejoin="round" stroke-width="6"/>
      <path id="Path_1163" data-name="Path 1163" d="M-844.522,158.519c-50.365,27.924-80.9,81.439-102.532,134.809a737.276,737.276,0,0,0-52.464,319.9c1.261,20.947,3.582,42.423,13.215,61.068,12.226,23.667,34.982,40.213,58.833,52.08,45.269,22.523,96.308,31.046,146.8,33.76,42.923,2.308,87.009.432,127.062-15.169s75.8-46.762,88.3-87.886c7.4-24.341,6.37-50.335,5.27-75.753q-1.622-37.53-3.248-75.059c-2.9-66.992-6.016-135.168-28.525-198.335S-659.567,186.2-722.976,164.385c-20.066-6.905-109.22-14.378-121.076-6.031-.088.03-9.887,5.963-10.078,6.031" transform="translate(13703.646 -18130.809)" fill="none" stroke="#323f51" stroke-miterlimit="10" stroke-width="10"/>
      <path id="Path_1165" data-name="Path 1165" d="M-930.788,188.38c-44.077,10.374-83.57,55.557-83.613,100.841-.01,10.724,1.755,21.621,6.613,31.186,9.021,17.758,27.249,28.622,44.682,38.264,62.082,34.318,78.122,27.361,157.564,39.491" transform="translate(13651.4 -17908.877)" fill="none" stroke="#323f51" stroke-linecap="round" stroke-linejoin="round" stroke-width="7"/>
      <path id="Path_1166" data-name="Path 1166" d="M-832.009,193.954c35.607,22.3,55.612,47.314,74.388,84.9,9.613,19.241,16.453,42.273,7.675,61.907-6.1,13.637-18.82,23.231-32.214,29.839-49.584,24.477-123,23.494-175,42.3" transform="translate(13967.538 -17912.58)" fill="none" stroke="#323f51" stroke-linecap="round" stroke-linejoin="round" stroke-width="7"/>
    </g>
    <ellipse id="Ellipse_116" data-name="Ellipse 116" cx="19.045" cy="22.531" rx="19.045" ry="22.531" transform="matrix(0.94, -0.341, 0.341, 0.94, 2230.806, 1049.277)" fill="#323f51"/>
    <path id="Path_1169" data-name="Path 1169" d="M0,.445C.14,14.673,45.986,14.231,45.847,0" transform="translate(2294.231 975.424)" fill="none" stroke="#323f51" stroke-linecap="round" stroke-linejoin="round" stroke-width="5"/>
    <g id="Group_805" data-name="Group 805" transform="translate(1519.228 677.314)">
      <text id="Z" transform="translate(815.219 127.686)" fill="#323f51" font-size="70" font-family="Lato-Black, Lato" font-weight="800" letter-spacing="0.5em"><tspan x="12.263" y="69">Z</tspan></text>
    </g>
    <g id="Group_806" data-name="Group 806" transform="translate(1570.228 605.314)">
      <text id="Z-2" data-name="Z" transform="translate(815.219 127.686)" fill="#323f51" font-size="70" font-family="Lato-Black, Lato" font-weight="800" letter-spacing="0.5em"><tspan x="12.263" y="69">Z</tspan></text>
    </g>
    <g id="Group_807" data-name="Group 807" transform="translate(1618.228 526.82)">
      <text id="Z-3" data-name="Z" transform="translate(820.219 116.686)" fill="#323f51" font-size="100" font-family="Lato-Black, Lato" font-weight="800" letter-spacing="0.5em"><tspan x="37.657" y="99">Z</tspan></text>
    </g>
  </g>
</svg>
