<svg width="577.736" height="1291.095" xmlns="http://www.w3.org/2000/svg"><g data-name="Group 831" transform="translate(11323.494 -3252.355)"><g fill="#fff" data-name="Path 1219"><path d="M-10838.537 4227.635c-2.911 0-5.857-.377-8.755-1.12-2.505-.643-5.05-1.58-7.567-2.784-4.7-2.25-8.421-4.984-11.138-6.98-1.047-.77-1.952-1.434-2.747-1.947-1.12-.723-2.488-1.461-4.152-1.476l-349.148-4.17c-.509-.356-1.626-1.245-3.558-3.295-2.221-2.356-4.883-5.585-7.7-9.336-4.725-6.296-12.25-17.198-21.257-33.378-8.759-15.731-16.858-32.746-24.073-50.573a498.446 498.446 0 0 1-21.176-64.814c-.078-.692-.26-1.788-.643-4.083-.895-5.353-2.561-15.317-4.027-28.071-1.794-15.614-2.725-30.55-2.768-44.394-.055-18.187 1.428-34.491 4.408-48.46 1.709-8.01 3.938-15.356 6.625-21.835 2.878-6.94 6.352-13.056 10.328-18.18 2.35-3.029 4.927-5.776 7.659-8.164a52.458 52.458 0 0 1 9.135-6.418 54.159 54.159 0 0 1 10.832-4.506c3.997-1.181 8.305-1.975 12.806-2.36 1.925-.164 80.337-5.747 84.217-6.022 53.708-.53 89.124-2.651 114.994-4.2 16.284-.976 29.146-1.747 40.449-1.747 7.271 0 13.532.31 19.703.976 6.462.698 12.973 1.819 19.906 3.428 6.987 1.621 14.737 3.816 23.693 6.709 8.583 2.772 18.382 6.21 30.84 10.817 22.665 8.383 42.743 15.928 58.915 23.377 7.96 3.667 14.65 7.162 20.453 10.684 6.043 3.67 11.188 7.405 15.73 11.42a84.007 84.007 0 0 1 12.182 13.315c3.598 4.892 6.813 10.323 9.829 16.603 5.645 11.757 10.688 26.69 16.352 48.418 5.463 20.961 9.187 38.104 11.72 53.95 3.158 19.755 4.443 37.43 3.928 54.035-.283 9.14-1.136 18.061-2.535 26.515-1.479 8.936-3.619 17.66-6.36 25.932a160.825 160.825 0 0 1-10.82 25.207c-4.475 8.362-9.806 16.51-15.847 24.219-7.453 8.218-14.964 14.287-22.327 18.04-3.198 1.63-6.421 2.849-9.58 3.62a35.971 35.971 0 0 1-8.526 1.048Z"/><path fill="#323f51" d="M-11005.793 3854.322c-11.153 0-23.95.767-40.15 1.737-25.947 1.554-61.481 3.683-114.804 4.188-2.197.152-81.855 5.826-84.28 6.026-15.676 1.34-27.749 7.729-36.908 19.532-21.139 27.24-25.963 83.015-13.584 157.05.25 1.493.43 2.721.553 3.66 22.848 90.56 64.798 148.678 74.699 157.664l347.319 4.148c3.93 0 6.57 1.94 9.911 4.395 5.047 3.707 13.492 9.913 24.5 9.913 11.73 0 24.124-7.13 36.392-20.659 47.981-61.101 37.543-134.947 19.117-205.645-20.244-77.67-36.41-85.642-130.358-120.39-46.434-17.174-65.434-21.619-92.407-21.619m0-10c28.295 0 48.384 4.675 95.876 22.24 97.022 35.885 115.259 45.502 136.565 127.246 18.622 71.445 30.509 148.843-20.928 214.344-16.95 18.742-31.978 24.483-44.257 24.483-19.392 0-31.935-14.308-34.411-14.308l-349.97-4.179c-6.952 0-56.553-65.02-81.838-165.56 0-4.285-38.452-183.96 58.877-192.278 1.953-.167 82.234-5.886 84.441-6.039 87.704-.86 126.136-5.949 155.645-5.949Z"/></g><g fill="none" stroke-width="30" data-name="Group 829"><path stroke="#485c74" stroke-linecap="round" d="m-10804.217 4374.56 7.974-39.794" data-name="Line 34"/><path stroke="#5babb6" stroke-linecap="square" d="M-10794.17 4323.657s17.133-203.246-82.958-232.948" data-name="Path 820"/></g><g fill="none" stroke-width="30" data-name="Group 830"><path stroke="#485c74" stroke-linecap="round" d="m-11256.73 4374.56-7.974-39.794" data-name="Line 35"/><path stroke="#5babb6" stroke-linecap="square" d="M-11266.779 4323.657s-17.132-203.245 82.959-232.948" data-name="Path 821"/></g><path fill="#6ac0d0" d="M-11084.708 3906.419c-43.2 23.955-69.376 69.847-87.929 115.614a632.314 632.314 0 0 0-44.991 274.327c1.081 17.964 3.071 36.386 11.336 52.375 10.483 20.294 30 34.487 50.454 44.658 38.82 19.316 82.584 26.624 125.883 28.954 36.81 1.976 74.617.367 108.966-13.007s65-40.1 75.726-75.38c6.351-20.863 5.464-43.16 4.521-64.952l-2.787-64.363c-2.482-57.457-5.158-115.92-24.461-170.1s-58.11-104.386-112.488-123.085c-17.313-5.963-38.4-20.017-56.472-17.042-39.229 6.455-20.6 2.33-47.757 12" data-name="Path 1218"/><circle cx="11.729" cy="11.729" r="11.729" fill="none" stroke="#4d5c70" stroke-linecap="round" stroke-miterlimit="10" stroke-width="5" data-name="Ellipse 117" transform="translate(-11014.067 4031.006)"/><circle cx="4.133" cy="4.133" r="4.133" fill="#4d5c70" data-name="Ellipse 118" transform="translate(-11006.49 4038.602)"/><circle cx="11.729" cy="11.729" r="11.729" fill="none" stroke="#4d5c70" stroke-linecap="round" stroke-miterlimit="10" stroke-width="5" data-name="Ellipse 119" transform="translate(-11087.379 4031.006)"/><circle cx="4.133" cy="4.133" r="4.133" fill="#4d5c70" data-name="Ellipse 120" transform="translate(-11079.801 4038.602)"/><path fill="none" stroke="#4d5c70" stroke-linecap="round" stroke-miterlimit="10" stroke-width="5" d="M-11011.199 4116.903a132.863 132.863 0 0 0-13.215-2.808 56.175 56.175 0 0 0-28.947 3.189 43.187 43.187 0 0 0-21.757 18.991" data-name="Path 1220"/><path fill="#6ac0d0" d="m-10860.005 4059.39 6.67 32.185 4.454 31.781-59.642-4.636-21.642-42.924Z" data-name="Path 1221"/><path fill="none" stroke="#4d5c70" stroke-linecap="round" stroke-miterlimit="10" stroke-width="5" d="M-11010.929 4009.36c9.215 1.928 16.12 6.829 22.977 13.118" data-name="Path 1224"/><path fill="none" stroke="#4d5c70" stroke-linecap="round" stroke-miterlimit="10" stroke-width="5" d="M-11066.916 4009.36c-9.214 1.928-16.113 6.829-22.977 13.118" data-name="Path 1225"/><path fill="none" stroke="#4d5c70" stroke-linecap="round" stroke-miterlimit="10" stroke-width="5" d="M-11011.026 4063.544c5.789 1.941 11.336 1.38 17.341 0" data-name="Path 1222"/><path fill="none" stroke="#4d5c70" stroke-linecap="round" stroke-miterlimit="10" stroke-width="5" d="M-11084.341 4063.544c5.8 1.941 11.343 1.38 17.34 0" data-name="Path 1223"/><g stroke="#323f51" stroke-linecap="round" stroke-miterlimit="10" stroke-width="10" data-name="Group 828"><path fill="#fff" d="M-11297.941 4537.676s-25.038-146.011-19.82-219.626 96.78-108.26 211.782-109.527 164.321 34.691 164.321 34.691 128.116 15.049 170.821 74.836 0 164.313 0 164.313" data-name="Path 829"/><path fill="none" d="m-10770.838 4318.049-114.6 50.524-56.22-125.359" data-name="Path 830"/></g><path fill="#fff" stroke="#323f51" stroke-width="5" d="M-10850.935 3781.669c4.535 2.806 6.5 5.628 8.695 10.522a10.956 10.956 0 0 1 1.158 4.715 15.311 15.311 0 0 1-1.175 4.633 78.8 78.8 0 0 1-3.418 9.038 15.612 15.612 0 0 1-6.411 7.055c-3.377 1.746-10.93 1.06-14.511-.041-5.016-1.533-5.905-.237-9.388-4.144-1.754-1.958-3.369-5.449-4.388-7.879s-1.378-7.855-.856-10.473c.807-4.038 7.569-12.822 13.2-15.261 7.382-3.189 9.617-.522 17.325 1.166" data-name="Path 1211"/><path fill="none" stroke="#323f51" stroke-linecap="round" stroke-miterlimit="10" stroke-width="5" d="M-10850.935 3781.669c4.535 2.806 6.5 5.628 8.695 10.522a10.956 10.956 0 0 1 1.158 4.715 15.311 15.311 0 0 1-1.175 4.633 78.8 78.8 0 0 1-3.418 9.038 15.612 15.612 0 0 1-6.411 7.055c-3.377 1.746-10.93 1.06-14.511-.041-5.016-1.533-5.905-.237-9.388-4.144-1.754-1.958-3.369-5.449-4.388-7.879s-1.378-7.855-.856-10.473c.807-4.038 7.569-12.822 13.2-15.261 7.382-3.189 9.617-.522 17.325 1.166" data-name="Path 1212"/><path fill="#fff" stroke="#323f51" stroke-width="10" d="M-10786.469 3674.876c9.527 5.816 13.573 11.8 18 22.235a23.03 23.03 0 0 1 2.219 10.114c-.188 3.434-1.533 6.762-2.757 10.049-2.471 6.615-4.543 13.385-7.8 19.69s-7.879 12.227-14.062 15.571c-7.3 3.956-23.409 2.879-30.971.7-10.644-3.051-12.594-.2-19.837-8.434-3.63-4.135-6.884-11.591-8.94-16.778s-2.5-16.874-1.252-22.56c1.941-8.752 16.852-28.067 29-33.63 15.93-7.284 20.555-1.648 36.925 1.582" data-name="Path 1213"/><path fill="none" stroke="#323f51" stroke-linecap="round" stroke-miterlimit="10" stroke-width="10" d="M-10786.469 3674.876c9.527 5.816 13.573 11.8 18 22.235a23.03 23.03 0 0 1 2.219 10.114c-.188 3.434-1.533 6.762-2.757 10.049-2.471 6.615-4.543 13.385-7.8 19.69s-7.879 12.227-14.062 15.571c-7.3 3.956-23.409 2.879-30.971.7-10.644-3.051-12.594-.2-19.837-8.434-3.63-4.135-6.884-11.591-8.94-16.778s-2.5-16.874-1.252-22.56c1.941-8.752 16.852-28.067 29-33.63 15.93-7.284 20.555-1.648 36.925 1.582" data-name="Path 1214"/><path fill="#fff" stroke="#323f51" stroke-width="10" d="M-10759.842 3501.669c-9.48 89.34-69.312 158.516-155.541 173.614-53.164 9.307-123.665 12.357-174.746-7.814-51.893-20.482-82.364-68.018-100.603-119.984-16.734-47.668-40.026-106.73-18.413-156.306 28.368-65.073 93.539-117.586 161.418-131.966 45.205-9.576 168.605 19.339 221.535 64.674 69.352 59.421 53.236 93.222 74.365 177.195" data-name="Path 1215"/><path fill="none" stroke="#323f51" stroke-linecap="round" stroke-miterlimit="10" stroke-width="10" d="M-10759.842 3501.669c-9.48 89.34-69.312 158.516-155.541 173.614-53.164 9.307-123.665 12.357-174.746-7.814-51.893-20.482-82.364-68.018-100.603-119.984-16.734-47.668-40.026-106.73-18.413-156.306 28.368-65.073 93.539-117.586 161.418-131.966 45.205-9.576 168.605 19.339 221.535 64.674 69.352 59.421 53.236 93.222 74.365 177.195" data-name="Path 1216"/><path fill="none" stroke="#4d5c70" stroke-linecap="round" stroke-linejoin="round" stroke-width="10" d="M-11091.468 3583.194a568.029 568.029 0 0 0 211.99-81.974q-59.2-28.324-118.383-56.648c-11.933-5.71-24.533-12.015-31.477-23.613-12.616-21.085 1.506-51.607 23.976-60.049s48.353 1.289 65.747 18.3c30.786 30.114 35.706 88.687 2.864 116.354-13.361 11.256-30.724 16.215-47.851 17.9-28.3 2.781-58.623-3.426-79.877-23.051s-30.562-54.376-16.656-80.148c-23.019 8.842-44.195 24.233-57.5 45.677s-17.967 49.225-9.525 73.189c3.358 9.535 15.276 19.176 21.4 11.264 1.859-2.39 2.236-5.636 2.495-8.7a325.712 325.712 0 0 0-31.1-168.842c14.012 4.266 28.809 8.573 42.994 4.976s26.895-18.206 23.38-32.936c28.535 18.5 47.984 49.339 60.129 81.941s17.781 67.338 24.45 101.603c1.891 9.755 3.946 19.682 8.748 28.287 5.327 9.519 13.636 16.762 21.78 23.8q30.845 26.66 61.69 53.328c3.821 3.3 8.567 6.819 13.314 5.285 3.578-1.15 5.751-4.8 7.618-8.181q34.741-63.071 69.481-126.15c8.615-15.636 17.449-32.039 18.257-50.041.949-21.158-9.289-40.914-19.238-59.4a243.164 243.164 0 0 1-115.979 59.713" data-name="Path 1217"/></g></svg>