<svg xmlns="http://www.w3.org/2000/svg" width="926.328" height="454.659" viewBox="0 0 926.328 454.659">
  <g id="Group_841" data-name="Group 841" transform="translate(-1200.596 -2169.468)">
    <g id="Group_819" data-name="Group 819" transform="translate(1200.596 2464.303)">
      <path id="Path_1180" data-name="Path 1180" d="M22.579,48.046c13.1-.608,24.254-11.851,24.9-25.112S38.039-.583,24.935.026.68,11.877.03,25.138,9.475,48.655,22.579,48.046Z" transform="translate(152.675 58.139) rotate(-166)" fill="#557591"/>
      <path id="Path_1181" data-name="Path 1181" d="M22.579,48.046c13.1-.608,24.254-11.851,24.9-25.112S38.039-.583,24.935.026.68,11.877.03,25.138,9.475,48.655,22.579,48.046Z" transform="translate(116.172 111.944) rotate(-166)" fill="#557591"/>
      <path id="Path_1183" data-name="Path 1183" d="M22.579,48.046c13.1-.608,24.254-11.851,24.9-25.112S38.039-.583,24.935.026.68,11.877.03,25.138,9.475,48.655,22.579,48.046Z" transform="translate(46.102 108.856) rotate(-166)" fill="#557591"/>
    </g>
    <path id="Path_1182" data-name="Path 1182" d="M332.158,15.5C406.083,3.585,477.277-5,545.455,3.3A557.216,557.216,0,0,1,734.617,62.032c23.9,12.359,48.792,30.826,44.035,64.05-2.973,20.738-17.092,41.867-31.324,61.011-20.648,27.763-43.537,55.141-70.822,74.718C628.1,296.529,574.95,300.9,526,303.559c-123.039,6.695-246.036,12.328-364.071,3.894C119.274,304.4,77,299.441,39.767,285.177c-20.237-7.756-40.4-21.024-39.751-46.5.934-36.562,26.127-72.882,56.721-93.584,61.223-41.416,69.12-55.835,132.483-79.464C216.14,55.586,288.228,27.463,355.8,11.716" transform="translate(2067.449 2624.127) rotate(-169)" fill="#557591"/>
  </g>
</svg>
