<svg width="1119.205" height="617.246" xmlns="http://www.w3.org/2000/svg"><g fill="#557591" data-name="Group 842"><path d="M211.779 449.577c-14.887-2.181-29.903 8.034-33.537 22.82s5.49 28.548 20.377 30.73 29.903-8.035 33.537-22.822-5.488-28.545-20.377-30.728Z" data-name="Path 1192"/><path d="M173.201 513.395c-14.887-2.181-29.903 8.034-33.537 22.82s5.49 28.548 20.377 30.73 29.903-8.035 33.537-22.822-5.488-28.545-20.377-30.728Z" data-name="Path 1191"/><path d="M92.756 514.065c-14.887-2.181-29.903 8.034-33.537 22.82s5.49 28.548 20.377 30.73 29.903-8.035 33.537-22.822-5.488-28.545-20.377-30.728Z" data-name="Path 1190"/><path d="M599.825 510.546c-101.605-3.27-198.705-10.268-287.413-38.992-89.366-28.926-168.338-73.084-236.874-127.272-28.652-22.662-57.036-53.72-42.092-96.764 9.334-26.867 33.619-51.368 57.548-73.193 34.708-31.65 72.304-62.207 113.737-81.229 73.497-33.727 145.464-25.78 211.394-16.646 165.704 22.953 331.075 47.305 486.192 89.12 56.045 15.117 111.098 32.678 157.023 61.331 24.96 15.579 48.394 38.484 40.929 72.267-10.716 48.483-53.697 90.36-99.828 110.024-92.317 39.333-106.577 56.502-197.139 71.579-38.48 6.41-141.837 25.214-235.961 28.696" data-name="Path 1189"/></g></svg>