<svg width="926.328" height="454.659" xmlns="http://www.w3.org/2000/svg"><g fill="#557591" data-name="Group 841"><g data-name="Group 819"><path d="M142.39 300.893c-12.858-2.58-26.4 5.631-30.235 18.342s3.47 25.102 16.332 27.681 26.402-5.63 30.24-18.34-3.475-25.104-16.337-27.683Z" data-name="Path 1180"/><path d="M105.887 354.698c-12.858-2.58-26.4 5.631-30.235 18.342s3.47 25.102 16.332 27.681 26.402-5.63 30.24-18.34-3.475-25.104-16.337-27.683Z" data-name="Path 1181"/><path d="M35.817 351.61c-12.858-2.58-26.4 5.631-30.235 18.342s3.47 25.102 16.332 27.681 26.402-5.63 30.24-18.34-3.475-25.104-16.337-27.683Z" data-name="Path 1183"/></g><path d="M543.755 376.065c-74.84-2.41-146.364-7.567-211.706-28.723a557.216 557.216 0 0 1-174.48-93.747c-21.102-16.692-42.013-39.57-31.004-71.275 6.875-19.79 24.766-37.837 42.39-53.913 25.566-23.314 53.258-45.821 83.777-59.832C306.873 43.73 359.881 49.582 408.44 56.312c122.056 16.905 243.868 34.844 358.125 65.645 41.289 11.136 81.84 24.07 115.667 45.177 18.385 11.475 35.646 28.346 30.148 53.23-7.893 35.712-39.554 66.558-73.536 81.042-68 28.973-78.503 41.62-145.21 52.725-28.343 4.722-104.472 18.573-173.807 21.137" data-name="Path 1182"/></g></svg>