<svg width="756.044" height="416.961" xmlns="http://www.w3.org/2000/svg"><g fill="#557591" data-name="Group 840"><path d="M727.472 386.714c-3.498-10.473-14.604-16.727-24.806-13.967s-15.636 13.486-12.138 23.96 14.604 16.726 24.806 13.967 15.636-13.487 12.138-23.96Z" data-name="Path 1178"/><path d="M676.018 383.683c-3.498-10.473-14.604-16.727-24.806-13.967s-15.636 13.486-12.138 23.96 14.604 16.726 24.806 13.967 15.636-13.487 12.138-23.96Z" data-name="Path 1177"/><path d="M649.512 331.415c-3.498-10.473-14.604-16.727-24.806-13.967s-15.636 13.486-12.138 23.96 14.604 16.726 24.806 13.967 15.636-13.487 12.138-23.96Z" data-name="Path 1179"/><path d="M405.193 344.882c-68.634-2.21-134.225-6.936-194.152-26.34a511.014 511.014 0 0 1-160.013-85.974c-19.356-15.308-38.53-36.289-28.434-65.366 6.305-18.15 22.714-34.704 38.875-49.444 23.447-21.38 48.843-42.021 76.832-54.871 49.648-22.783 98.264-17.414 142.801-11.245C393.036 67.146 504.75 83.593 609.53 111.844c37.861 10.212 75.05 22.074 106.073 41.43 16.862 10.524 32.693 25.997 27.65 48.819-7.239 32.751-36.274 61.04-67.439 74.323-62.362 26.57-71.995 38.17-133.173 48.352-25.992 4.33-95.81 17.032-159.394 19.385" data-name="Path 517"/></g></svg>