<svg xmlns="http://www.w3.org/2000/svg" width="1119.205" height="617.246" viewBox="0 0 1119.205 617.246">
  <g id="Group_842" data-name="Group 842" transform="translate(-270.475 -4135.316)">
    <path id="Path_1192" data-name="Path 1192" d="M25.9,55.108c15.03-.7,27.82-13.593,28.566-28.8S43.63-.668,28.6.03.78,13.623.034,28.832,10.868,55.806,25.9,55.108Z" transform="translate(497.163 4643.93) rotate(-169)" fill="#557591"/>
    <path id="Path_1191" data-name="Path 1191" d="M25.9,55.108c15.03-.7,27.82-13.593,28.566-28.8S43.63-.668,28.6.03.78,13.623.034,28.832,10.868,55.806,25.9,55.108Z" transform="translate(458.585 4707.748) rotate(-169)" fill="#557591"/>
    <path id="Path_1190" data-name="Path 1190" d="M25.9,55.108c15.03-.7,27.82-13.593,28.566-28.8S43.63-.668,28.6.03.78,13.623.034,28.832,10.868,55.806,25.9,55.108Z" transform="translate(378.14 4708.418) rotate(-169)" fill="#557591"/>
    <path id="Path_1189" data-name="Path 1189" d="M450.938,21.045C551.3,4.868,647.951-6.791,740.51,4.479,833.753,15.822,919.7,44.1,997.316,84.215c32.45,16.779,66.239,41.85,59.783,86.955-4.036,28.154-23.2,56.839-42.525,82.829-28.031,37.691-59.106,74.86-96.148,101.438-65.711,47.132-137.873,53.062-204.334,56.676C547.053,421.2,380.073,428.85,219.828,417.4c-57.9-4.145-115.292-10.878-165.841-30.242C26.513,376.628-.861,358.615.021,324.028c1.268-49.637,35.469-98.945,77-127.05,83.116-56.226,93.838-75.8,179.859-107.88C293.431,75.464,391.3,37.283,483.031,15.906" transform="translate(1308.937 4752.563) rotate(-169)" fill="#557591"/>
  </g>
</svg>
