<svg width="110.476" height="111.688" xmlns="http://www.w3.org/2000/svg"><g fill="rgba(145,145,145,0.27)" data-name="Group 216"><path d="M63.92 79.948c-13.217 3.295-26.401-3.941-29.448-16.163s-.466-19.205 21.504-28.866c13.217-3.296 22.572 22.084 22.572 22.084s-1.411 19.65-14.628 22.945Z" data-name="Path 450"/><rect width="26.82" height="4.126" data-name="Rectangle 177" rx="2.063" transform="rotate(172 53.299 31.592)"/><rect width="30.258" height="5.501" data-name="Rectangle 172" rx="2.751" transform="rotate(172 13.187 32.211)"/><rect width="24.069" height="4.126" data-name="Rectangle 173" rx="2.063" transform="rotate(-150 22.189 18.497)"/><rect width="24.069" height="4.126" data-name="Rectangle 178" rx="2.063" transform="rotate(-122 67.575 30.556)"/><rect width="30.258" height="4.126" data-name="Rectangle 176" rx="2.063" transform="rotate(100 32.275 27.693)"/><rect width="29.57" height="4.126" data-name="Rectangle 179" rx="2.063" transform="rotate(100 -8.83 62.94)"/></g></svg>