<svg width="159.661" height="279.631" xmlns="http://www.w3.org/2000/svg"><g fill="none" stroke="#903" data-name="Group 182"><path stroke-linecap="round" stroke-linejoin="round" stroke-width="1.612" d="M71.483 164.915c4.195 16.372.948 25.313-1.02 42.1a326.959 326.959 0 0 0-.708 69.429 59.81 59.81 0 0 0-19.913-.274" data-name="Path 368"/><path stroke-linecap="round" stroke-linejoin="round" stroke-width="1.612" d="M101.202 164.791c.956 40.812-6.258 73.224-5.216 114.034q11.034-1.008 22.118-1.3" data-name="Path 369"/><path stroke-linecap="round" stroke-width="2.149" d="m81.222 1.37-5.659 15.913h9.47l-5.422 15.552" data-name="Path 370"/><path stroke-linecap="round" stroke-width="2.149" d="m51.704 3.779.053 16.891 8.91-3.2.154 16.464" data-name="Path 371"/><path stroke-linecap="round" stroke-width="2.149" d="M113.884 4.896 102.253 17.14l8.652 3.843-11.269 12.013" data-name="Path 372"/><path stroke-miterlimit="10" stroke-width="3.76" d="M35.337 110.975c3.432 13.45 10.885 25.532 19.242 36.614 6.684 8.86 14.883 17.755 25.8 19.771 9.672 1.784 19.567-2.318 27.541-8.078 19.528-14.1 30.683-39.466 26.6-63.206-4.569-26.569-32.136-52.772-60.409-50.587-29.515 2.28-45.203 40.294-38.774 65.486Z" data-name="Path 373"/><g stroke-linecap="round" stroke-linejoin="round" stroke-width="1.612" data-name="Group 180"><path d="M95.081 86.096a30.412 30.412 0 0 0 11.161-4.114" data-name="Path 374"/><path d="M95.835 90.048a25.89 25.89 0 0 0 8.162.347" data-name="Path 375"/></g><g stroke-linecap="round" stroke-linejoin="round" stroke-width="1.612" data-name="Group 181"><path d="M72.24 86.096a30.415 30.415 0 0 1-11.161-4.114" data-name="Path 376"/><path d="M71.487 90.048a25.9 25.9 0 0 1-8.164.347" data-name="Path 377"/></g><path stroke-linecap="round" stroke-linejoin="round" stroke-width="1.612" d="M116.667 125.554s-34.912-29.157-64.07 0" data-name="Path 378"/><path stroke-linecap="round" stroke-linejoin="round" stroke-width="1.612" d="m131.766 124.311 11.345-4.386c3.986-1.541 8.071-3.143 11.238-6.013s5.255-7.341 4.118-11.46a16.417 16.417 0 0 0-3.622-5.948 131.661 131.661 0 0 0-49.115-36.321" data-name="Path 379"/><path stroke-linecap="round" stroke-linejoin="round" stroke-width="1.612" d="M43.326 129.126c-7.344-1.078-14.751-2.171-21.707-4.757S8.098 117.55 4.007 111.356a17.941 17.941 0 0 1-3.182-8.814 17.739 17.739 0 0 1 3.04-10.24c5.355-8.448 15.029-12.938 24.174-16.987l26.162-11.584" data-name="Path 380"/></g></svg>