<svg width="203.437" height="238.607" xmlns="http://www.w3.org/2000/svg"><g fill="none" stroke="#7ec8d6" data-name="Group 184"><path stroke-linecap="round" stroke-linejoin="round" stroke-width="1.929" d="M168.132 116.866c9.17 8.575 19.781 14.794 34.034 21.019" data-name="Path 392"/><path stroke-linecap="round" stroke-linejoin="round" stroke-width="2.348" d="M78.966 171.164c-17.634 19.66-27.667 33.563-37.526 57.022a90.9 90.9 0 0 0-17.442-11.856" data-name="Path 393"/><path stroke-linecap="round" stroke-linejoin="round" stroke-width="2.348" d="M138.536 177.024c9.175 20.417 16.6 32.662 31.873 46.956a107.5 107.5 0 0 0-16.387 12.968" data-name="Path 394"/><path stroke-miterlimit="10" stroke-width="4.5" d="M114.836 26.731c-13.717 4.341-23.845 15.931-31.787 27.927a184.188 184.188 0 0 0-28.7 75.723c-.73 5.192-1.226 10.566.21 15.609 1.82 6.4 6.572 11.58 11.825 15.666 9.966 7.758 22.04 12.374 34.268 15.542 10.395 2.692 21.281 4.42 31.863 2.584s20.876-7.693 25.977-17.143c3.019-5.592 4.055-12.01 5.045-18.287l2.924-18.537c2.612-16.549 5.227-33.394 2.846-49.979s-10.557-33.163-25-41.645c-4.6-2.7-9.808-7.935-15.139-8.13-11.574-.425-6.015-.526-14.329.668" data-name="Path 395"/><path stroke-linecap="round" stroke-miterlimit="10" stroke-width="1.494" d="M91.026 77.217a7.7 7.7 0 0 0-3.479-3.884 2.214 2.214 0 0 0-1.317-.385 1.611 1.611 0 0 0-1.278 1.188 3.13 3.13 0 0 0 .115 1.82 6.172 6.172 0 0 0 2.906 3.5c-1.842.06-6.283.764-6.716 3.038-.594 3.127 6.608 5.784 8.065 2.568" data-name="Path 396"/><path stroke-linecap="round" stroke-miterlimit="10" stroke-width="1.494" d="M113.076 65.549c-.552.964-1.126 1.917-1.691 2.872a3.228 3.228 0 0 0 .112 3.564c1.168 1.614 4.917 2.877 6.14 3.219 3.656 1.021 3.768-2.622 4.744-4.327" data-name="Path 397"/><path stroke-linecap="round" stroke-miterlimit="10" stroke-width="1.494" d="M92.538 53.786c-.553.964-1.126 1.917-1.691 2.872a3.228 3.228 0 0 0 .111 3.564c1.168 1.614 4.919 2.877 6.14 3.218 3.656 1.022 3.768-2.62 4.746-4.325" data-name="Path 398"/><path stroke-linecap="round" stroke-miterlimit="10" stroke-width="1.494" d="M59.304 63.482c-5.227-6.068-11.469-10.338-18.368-14.084" data-name="Path 399"/><path stroke-linecap="round" stroke-miterlimit="10" stroke-width="1.494" d="M61.317 72.089a208.776 208.776 0 0 0-30.99-22.506" data-name="Path 400"/><path stroke-width="2" d="M44.688 1c-1.024 3.185-1.821 6.467-3.116 9.539-2.707 6.417-5.629 12.746-8.554 19.068-1.689 3.649-3.522 7.233-5.364 10.81-.919 1.787-1.909 3.637-4.437 3.307a5.635 5.635 0 0 1-4.778-3.811c-1-3.06-2.088-6.214-.842-9.6 1.041-2.838 2.812-4.617 5.115-4.536 2.5.088 4.46 2.166 4.976 5.25.127.76.31 1.512.617 2.995l6.326-15.342a27.51 27.51 0 0 1-15.208-.595c-.353-.118-1.174.46-1.439.911-2.541 4.328-4.88 8.78-7.543 13.03-1.717 2.738-3.336 2.795-6.015.8-3.222-2.393-4.5-8.78-2.308-12.2 1.234-1.928 2.884-3.444 5.457-3.083 1.721.242 3.261 2.607 3.606 5.312a5.78 5.78 0 0 0 1.068 2.9L21.082 5.98c8.687 2.573 16.018-.683 23.123-4.976Z" data-name="Path 401"/><path stroke-linecap="round" stroke-linejoin="round" stroke-width="2.348" d="M30.327 114.279c17.285 11.8 24.219 16.824 43.5 23.6 6.5 2.284 17.555.533 23.921-.131 4.043-.422 7.7-3.268 9.546-4.878 8.127-7.092 10.769-8.879 9.862-18.019" data-name="Path 402"/></g></svg>