<svg xmlns="http://www.w3.org/2000/svg" width="246.527" height="222.58" viewBox="0 0 246.527 222.58">
  <g id="Group_186" data-name="Group 186" transform="translate(649.308 439.209)">
    <path id="Path_403" data-name="Path 403" d="M-544.863-339.468l8.007,24.489,39.292,8.6" transform="translate(74.073 70.738)" fill="none" stroke="#6c86a1" stroke-linecap="round" stroke-linejoin="round" stroke-width="1.463"/>
    <path id="Path_404" data-name="Path 404" d="M-529.4-377.245c10.358,9.684,22.343,16.711,38.442,23.739" transform="translate(87.041 42.946)" fill="none" stroke="#6c86a1" stroke-linecap="round" stroke-linejoin="round" stroke-width="1.724"/>
    <path id="Path_405" data-name="Path 405" d="M-590.922-383.08a7.631,7.631,0,0,0-4.864-1.742,2.2,2.2,0,0,0-1.328.285,1.6,1.6,0,0,0-.552,1.641,3.117,3.117,0,0,0,.959,1.53,6.11,6.11,0,0,0,4.184,1.677c-1.576.921-5.112,3.632-4.415,5.816.959,3,8.486,1.919,8.238-1.571" transform="translate(36.596 38.57)" fill="none" stroke="#6c86a1" stroke-linecap="round" stroke-miterlimit="10" stroke-width="2"/>
    <path id="Path_406" data-name="Path 406" d="M-621.24-343.847l3.188-2.839c-8.777,3.326-15.925,2.239-20.825-5.107-6.777-10.16,1.037-26.134,17.928-23.346l-8.049-3.1a14.1,14.1,0,0,1,15.877-11.515,14.053,14.053,0,0,1,12.411,14.59l-7.8.661.19,4.475c2.831-.294,5.488-.552,8.143-.851,8.006-.9,16.008-1.829,24.014-2.724,1.769-.2,3.6-.258,2.271-3.121l-21.616,1.287c-1.682-4.519-2.6-9.059-4.907-12.727-4-6.353-10.465-8.414-17.7-7.025-7.471,1.436-12.18,6.249-13.879,13.619-.588,2.55-1.332,3.837-4.092,4.569a18.021,18.021,0,0,0-12.771,21.512,18.227,18.227,0,0,0,20.466,14c1.94-.285,3.42-.711,5.018,1.4,6.2,8.173,16.217,9.956,24.968,4.808,7.532-4.432,10.541-14.364,7.068-23.314-.183-.47-.294-.969-.543-1.8,5.832-2.316,11.616-4.529,17.311-6.951,1.055-.448,1.749-1.742,2.61-2.644l-.928-1.082c-10.893,3.709-21.786,7.416-33.044,11.248l1.648,4.186,7.447-2.629c3.6,6.611,1.224,14.315-5.577,18.572A14.052,14.052,0,0,1-621.24-343.847Z" transform="translate(0 30.93)" fill="#6c85a0"/>
    <path id="Path_407" data-name="Path 407" d="M-537.533-424.5c13.592,4.3,23.626,15.786,31.5,27.672A182.519,182.519,0,0,1-477.6-321.8c.723,5.145,1.215,10.471-.208,15.467-1.8,6.343-6.512,11.476-11.717,15.525-9.876,7.688-21.839,12.262-33.955,15.4-10.3,2.666-21.088,4.379-31.573,2.56s-20.686-7.623-25.741-16.988c-2.991-5.539-4.018-11.9-5-18.118q-1.449-9.186-2.9-18.369c-2.588-16.4-5.179-33.09-2.82-49.524s10.462-32.859,24.775-41.264c4.557-2.68,9.719-7.862,15-8.057,11.469-.419,5.962-.52,14.2.663" transform="translate(40.335 9.754)" fill="none" stroke="#6c86a1" stroke-miterlimit="10" stroke-width="4.269"/>
    <path id="Path_408" data-name="Path 408" d="M-506.571-411.395c-8.491,8.463-22.76,13.924-34.265,16.826a123.291,123.291,0,0,1-24.572,3.615c-7.528.34-16.525.227-24.259-3.347" transform="translate(39.268 18.831)" fill="none" stroke="#6c86a1" stroke-linecap="round" stroke-width="7"/>
    <g id="Group_185" data-name="Group 185" transform="translate(-485.796 -439.209)">
      <path id="Path_409" data-name="Path 409" d="M-545.453-423.811c5.779-1.8,11.083-3.42,16.361-5.117,1.735-.557,3.782-.974,3.724-3.451-.058-2.453-1.988-4.967-4.4-5.073a13.212,13.212,0,0,0-6.054,1.113C-540.854-433.945-544.173-430.01-545.453-423.811Z" transform="translate(559.45 440.446)" fill="#6c86a1"/>
      <path id="Path_410" data-name="Path 410" d="M-551.4-422.8c2.15-3.733,4.352-7.469,6.457-11.26.737-1.328,1.5-2.818-.031-4.164-1.473-1.292-4.22-1.4-5.529.162a13.8,13.8,0,0,0-2.666,5A11.869,11.869,0,0,0-551.4-422.8Z" transform="translate(553.642 439.209)" fill="#6c86a1"/>
      <path id="Path_411" data-name="Path 411" d="M-543.631-418.58c4.047-.321,7.886-.5,11.684-1.007,1.065-.142,2.69-1.089,2.856-1.909a3.166,3.166,0,0,0-2.348-3.945,11.685,11.685,0,0,0-5.141.359A10.893,10.893,0,0,0-543.631-418.58Z" transform="translate(560.742 448.873)" fill="#6c86a1"/>
    </g>
    <circle id="Ellipse_35" data-name="Ellipse 35" cx="4.318" cy="4.318" r="4.318" transform="translate(-544.014 -354.525)" fill="none" stroke="#6c86a1" stroke-width="1"/>
    <path id="Path_412" data-name="Path 412" d="M-586.619-393.8c3.391.709,5.933,2.514,8.457,4.829" transform="translate(44.459 32.203)" fill="none" stroke="#6c86a1" stroke-linecap="round" stroke-miterlimit="10" stroke-width="1.12"/>
    <circle id="Ellipse_36" data-name="Ellipse 36" cx="1.522" cy="1.522" r="1.522" transform="translate(-542.982 -351.665)" fill="#6c86a1" stroke="#6c86a1" stroke-width="1"/>
    <path id="Path_413" data-name="Path 413" d="M-604.049-357.8l39.933,14.946,30.366-25.757" transform="translate(32.098 50.067)" fill="none" stroke="#6c86a1" stroke-linecap="round" stroke-linejoin="round" stroke-width="1.804"/>
    <path id="Path_414" data-name="Path 414" d="M-539.131-350.533l-39.113,18.262-9.341,47.415" transform="translate(43.774 62.89)" fill="none" stroke="#6c86a1" stroke-linecap="round" stroke-linejoin="round" stroke-width="1.804"/>
    <line id="Line_1" data-name="Line 1" x2="17.914" y2="3.004" transform="translate(-562.031 -224.868)" fill="none" stroke="#6c86a1" stroke-linecap="round" stroke-linejoin="round" stroke-width="1.804"/>
    <line id="Line_2" data-name="Line 2" y1="17.645" x2="4.31" transform="translate(-428.179 -235.364)" fill="none" stroke="#6c86a1" stroke-linecap="round" stroke-linejoin="round" stroke-width="1.804"/>
  </g>
</svg>
