<svg width="135.958" height="253.01" xmlns="http://www.w3.org/2000/svg"><g data-name="Group 843"><g data-name="Group 187"><path fill="none" stroke="#7dc9d7" stroke-linecap="round" stroke-linejoin="round" stroke-width="2" d="M68.61 72.484c4.941 3.9 10.431 3 14.927-.143" data-name="Path 417"/><g fill="none" stroke="#7dc9d7" data-name="Layer 42"><path stroke-linecap="round" stroke-linejoin="round" stroke-width="3" d="M87.36 164.847c2.236 31.636 1.663 54.751.907 86.663 13.733-1.516 17.734-2.806 30.847-6.691" data-name="Path 418"/><path stroke-linecap="round" stroke-linejoin="round" stroke-width="3" d="M46.325 162.813c-7.307 32.118-9.819 53.351-6.347 84.9a113.407 113.407 0 0 0-26.2-2.354" data-name="Path 419"/><path stroke-miterlimit="10" stroke-width="4.503" d="M22.723 134.462c-.223 4.03.039 8.234 1.917 11.807 2.592 4.932 7.784 7.86 12.783 10.318 12.659 6.227 26.446 11.311 40.521 10.364s28.418-9.241 32.811-22.646c1.924-5.87 1.846-12.18 1.749-18.357l-.818-52.2c-.349-22.188-.794-50-20.024-65.052C78.362-1.712 66.69.617 58.598 14.804c-8.708 15.262-10.36 34.973-14.9 51.69-6.077 22.389-19.684 44.612-20.975 67.968Z" data-name="Path 421"/><path stroke-linecap="round" stroke-linejoin="round" stroke-width="3" d="M112.436 78.027a49.687 49.687 0 0 1 19.132 21.218c2.364 4.733 4.047 10.4 1.887 15.23-1.5 3.354-4.629 5.713-7.924 7.34-12.2 6.022-26.989 3.63-39.78 8.259" data-name="Path 422"/><path stroke-linecap="round" stroke-linejoin="round" stroke-width="3" d="M38.705 76.027a25.73 25.73 0 0 0-19.245 24.275 16.892 16.892 0 0 0 1.627 7.672c2.219 4.369 6.7 7.042 10.991 9.413a478.5 478.5 0 0 0 47.114 22.775" data-name="Path 423"/><path stroke-linecap="round" stroke-linejoin="round" stroke-width="4" d="M3.725 16.276 16.46 39.548l19.228-19.909s7.15-7.849 0-12.757-15.842 4.066-15.842 4.066-2.943-9.532-10.654-7.991-8.62 7.558-5.467 13.319Z" data-name="Path 424"/></g></g><path fill="#7dc9d7" d="M69.916 51.717a3.693 3.693 0 0 1 4.043 3.909 3.772 3.772 0 0 1-3.747 4.034 4.151 4.151 0 0 1-4.423-4.017 3.845 3.845 0 0 1 4.127-3.926Z" data-name="Path 436"/><path fill="#fff" d="M71.641 55.689a1.582 1.582 0 0 1 1.731 1.674 1.615 1.615 0 0 1-1.6 1.727 1.775 1.775 0 0 1-1.894-1.72 1.645 1.645 0 0 1 1.763-1.681Z" data-name="Path 437"/><path fill="#7dc9d7" stroke="rgba(0,0,0,0)" stroke-miterlimit="10" d="M90.064 59.662h-.033a3.82 3.82 0 0 1-2.859-1.058 4.09 4.09 0 0 1-.989-2.963 4.247 4.247 0 0 1 1.114-2.937 3.839 3.839 0 0 1 2.8-1.156h.01a3.809 3.809 0 0 1 2.722 1.136 4.19 4.19 0 0 1 1.194 3.015 4.009 4.009 0 0 1-1.1 2.879 3.941 3.941 0 0 1-2.859 1.084Zm1.389-3.95h-.029a1.659 1.659 0 0 0-1.268 2.826 1.867 1.867 0 0 0 1.321.544h.073a1.75 1.75 0 0 0 1.157-2.9 1.705 1.705 0 0 0-1.254-.47Z" data-name="Subtraction 9"/></g></svg>