<svg xmlns="http://www.w3.org/2000/svg" width="168.286" height="224.977" viewBox="0 0 168.286 224.977">
  <g id="Group_179" data-name="Group 179" transform="translate(1015.316 -134.57)">
    <path id="Path_357" data-name="Path 357" d="M-963.4,262.108c-.225,18.025-.448,30.16-.673,48.187a95.03,95.03,0,0,1-18.51.346" transform="translate(12.097 47.694)" fill="none" stroke="#e79e17" stroke-linecap="round" stroke-linejoin="round" stroke-width="1.829"/>
    <path id="Path_358" data-name="Path 358" d="M-941.547,262.451a462.642,462.642,0,0,0-.073,47.628,42.863,42.863,0,0,1,18.609.272" transform="translate(27.452 47.824)" fill="none" stroke="#e79e17" stroke-linecap="round" stroke-linejoin="round" stroke-width="1.829"/>
    <path id="Path_359" data-name="Path 359" d="M-956.324,140.788c-14.339,7.95-23.031,23.186-29.191,38.381a209.9,209.9,0,0,0-14.937,91.076c.359,5.964,1.02,12.078,3.762,17.386,3.481,6.738,9.96,11.449,16.75,14.828,12.888,6.412,27.419,8.839,41.794,9.612,12.22.657,24.772.123,36.175-4.319s21.581-13.313,25.14-25.022c2.108-6.93,1.814-14.331,1.5-21.567q-.462-10.685-.925-21.37c-.825-19.073-1.713-38.483-8.121-56.467s-19.291-34.658-37.344-40.868c-5.747-1.978-12.752-6.646-18.749-5.657-13.025,2.145-6.84.774-15.856,3.987" transform="translate(5.162 0)" fill="none" stroke="#e79e17" stroke-miterlimit="10" stroke-width="4.269"/>
    <path id="Path_360" data-name="Path 360" d="M-992.129,192.036c-12.549,2.954-22.26,15.2-22.272,28.1a19.55,19.55,0,0,0,1.883,8.879c2.568,5.056,7.758,8.149,12.721,10.894a553.723,553.723,0,0,0,54.521,26.356" transform="translate(0 21.052)" fill="none" stroke="#e79e17" stroke-linecap="round" stroke-linejoin="round" stroke-width="1.829"/>
    <path id="Path_361" data-name="Path 361" d="M-903.756,191.7a57.486,57.486,0,0,1,22.141,24.55c2.737,5.478,4.684,12.035,2.185,17.625-1.736,3.883-5.358,6.614-9.172,8.5-14.117,6.969-31.234,4.2-46.038,9.558" transform="translate(30.326 20.926)" fill="none" stroke="#e79e17" stroke-linecap="round" stroke-linejoin="round" stroke-width="1.829"/>
    <path id="Path_362" data-name="Path 362" d="M-948.544,168.386c0,1.267-.026,2.533-.046,3.8a3.677,3.677,0,0,0,2.128,3.462c2.07.932,6.494.058,7.9-.3,4.194-1.059,2.241-4.727,2.241-6.966" transform="translate(25.022 12.061)" fill="none" stroke="#e79e17" stroke-linecap="round" stroke-linejoin="round" stroke-width="1.829"/>
    <path id="Path_363" data-name="Path 363" d="M-968.089,168.386c0,1.267-.026,2.533-.044,3.8a3.673,3.673,0,0,0,2.127,3.462c2.07.932,6.494.058,7.9-.3,4.194-1.059,2.241-4.727,2.241-6.966" transform="translate(17.591 12.061)" fill="none" stroke="#e79e17" stroke-linecap="round" stroke-linejoin="round" stroke-width="1.829"/>
    <path id="Path_364" data-name="Path 364" d="M-976.144,187.328" transform="translate(14.545 19.262)" fill="none" stroke="#e79e17" stroke-width="1"/>
    <path id="Path_365" data-name="Path 365" d="M-946.9,188.881c-6.745-5.318-14.24-4.1-20.377.2" transform="translate(17.915 18.512)" fill="none" stroke="#e79e17" stroke-linecap="round" stroke-linejoin="round" stroke-width="1.829"/>
    <path id="Path_366" data-name="Path 366" d="M-997.514,189.713l-1.6,1.064-.934,5.338,2.534-.533,3.067-2.667Z" transform="translate(5.457 20.169)" fill="none" stroke="#e79e17" stroke-width="1"/>
    <path id="Path_367" data-name="Path 367" d="M-908.245,191.847l-3.267-2.134-2.156.667.667,4.667,5.468,3.467Z" transform="translate(38.299 20.169)" fill="none" stroke="#e79e17" stroke-width="1"/>
  </g>
</svg>
