<svg xmlns="http://www.w3.org/2000/svg" width="138.102" height="252.302" viewBox="0 0 138.102 252.302">
  <g id="Group_220" data-name="Group 220" transform="translate(-562.09 -787.303)">
    <g id="Group_187" data-name="Group 187" transform="translate(521.805 552.627)">
      <g id="Texte" transform="translate(106.883 287.596)">
        <path id="Path_417" data-name="Path 417" d="M80.795,278.639c4.941,3.9,10.431,3,14.927-.143" transform="translate(-79.785 -259.075)" fill="none" stroke="#323f51" stroke-linecap="round" stroke-linejoin="round" stroke-width="1.077"/>
      </g>
      <g id="Layer_42" data-name="Layer 42" transform="translate(41.308 236.936)">
        <path id="Path_418" data-name="Path 418" d="M91.914,333.355c2.236,31.636,1.663,54.751.907,86.663,13.733-1.516,17.734-2.806,30.847-6.691" transform="translate(-6.579 -170.768)" fill="none" stroke="#323f51" stroke-linecap="round" stroke-linejoin="round" stroke-width="1.586"/>
        <path id="Path_419" data-name="Path 419" d="M80.824,332.149c-7.307,32.118-9.819,53.351-6.347,84.9a113.407,113.407,0,0,0-26.2-2.354" transform="translate(-36.524 -171.596)" fill="none" stroke="#323f51" stroke-linecap="round" stroke-linejoin="round" stroke-width="1.586"/>
        <path id="Path_421" data-name="Path 421" d="M53.609,369.138c-.223,4.03.039,8.234,1.917,11.807,2.592,4.932,7.784,7.86,12.783,10.318,12.659,6.227,26.446,11.311,40.521,10.364s28.418-9.241,32.811-22.646c1.924-5.87,1.846-12.18,1.749-18.357l-.818-52.2c-.349-22.188-.794-50-20.024-65.052-13.3-10.408-24.972-8.079-33.064,6.108-8.708,15.262-10.36,34.973-14.9,51.69C68.507,323.559,54.9,345.782,53.609,369.138Z" transform="translate(-32.911 -236.936)" fill="none" stroke="#323f51" stroke-miterlimit="10" stroke-width="4.503"/>
        <path id="Path_422" data-name="Path 422" d="M120.017,280.682A49.687,49.687,0,0,1,139.149,301.9c2.364,4.733,4.047,10.4,1.887,15.23-1.5,3.354-4.629,5.713-7.924,7.34-12.2,6.022-26.989,3.63-39.78,8.259" transform="translate(-5.606 -206.915)" fill="none" stroke="#323f51" stroke-linecap="round" stroke-linejoin="round" stroke-width="1.294"/>
        <path id="Path_423" data-name="Path 423" d="M69.113,279.31a25.73,25.73,0,0,0-19.245,24.275,16.892,16.892,0,0,0,1.627,7.672c2.219,4.369,6.7,7.042,10.991,9.413A478.5,478.5,0,0,0,109.6,343.445" transform="translate(-35.433 -207.857)" fill="none" stroke="#323f51" stroke-linecap="round" stroke-linejoin="round" stroke-width="1.294"/>
        <path id="Path_424" data-name="Path 424" d="M43.008,250.737l12.735,23.272L74.971,254.1s7.15-7.849,0-12.757-15.842,4.066-15.842,4.066-2.943-9.532-10.654-7.991S39.855,244.976,43.008,250.737Z" transform="translate(-41.308 -236.721)" fill="none" stroke="#323f51" stroke-linecap="round" stroke-linejoin="round" stroke-width="2"/>
      </g>
    </g>
    <path id="Path_436" data-name="Path 436" d="M1013.962,500.6a3.693,3.693,0,0,1,4.043,3.909,3.772,3.772,0,0,1-3.747,4.034,4.151,4.151,0,0,1-4.423-4.017A3.845,3.845,0,0,1,1013.962,500.6Z" transform="translate(-382.958 338.42)" fill="#323f51"/>
    <path id="Path_437" data-name="Path 437" d="M1015.224,504.122a1.582,1.582,0,0,1,1.731,1.674,1.615,1.615,0,0,1-1.6,1.727,1.775,1.775,0,0,1-1.894-1.72A1.645,1.645,0,0,1,1015.224,504.122Z" transform="translate(-382.495 338.87)" fill="#fff"/>
    <path id="Path_435" data-name="Path 435" d="M1041.019,500.4a3.988,3.988,0,0,1,3.927,4.151,3.744,3.744,0,0,1-3.994,3.961c-2.476-.014-3.865-1.466-3.849-4.021A3.884,3.884,0,0,1,1041.019,500.4Z" transform="translate(-389.833 338.456)" fill="#323f51"/>
    <path id="Path_434" data-name="Path 434" d="M1041.978,504.122a1.566,1.566,0,0,1,1.715,1.658,1.6,1.6,0,0,1-1.589,1.711,1.76,1.76,0,0,1-1.876-1.7A1.63,1.63,0,0,1,1041.978,504.122Z" transform="translate(-389.466 338.893)" fill="#fff"/>
  </g>
</svg>
