<svg xmlns="http://www.w3.org/2000/svg" width="2510.524" height="2510.524" viewBox="0 0 2510.524 2510.524">
  <g id="Group_952" data-name="Group 952" transform="translate(6727.967 -2591.819)">
    <path id="Path_1409" data-name="Path 1409" d="M867.465,0H978.927c479.088,0,867.465,852.013,867.465,852.013s-388.378,852.013-867.465,852.013H867.465C388.377,1704.025,0,1322.566,0,852.013S388.377,0,867.465,0Z" transform="translate(-4217.442 3796.747) rotate(135)" fill="#fff"/>
    <g id="Group_951" data-name="Group 951" transform="translate(2448 -23)">
      <path id="Path_1392" data-name="Path 1392" d="M-976.144,187.328" transform="translate(-7102.906 3565.235)" fill="none" stroke="#323f51" stroke-width="1"/>
      <path id="Path_1390" data-name="Path 1390" d="M-882.9,262.108c-1.169,93.671-2.331,156.731-3.5,250.409a493.833,493.833,0,0,1-96.189,1.8" transform="translate(-7142.656 4026.806)" fill="none" stroke="#323f51" stroke-linecap="round" stroke-linejoin="round" stroke-width="10"/>
      <path id="Path_1387" data-name="Path 1387" d="M-938.817,262.451c-4.374,89.852-4.5,150.2-.38,240.059a229.483,229.483,0,0,1,96.7,1.37" transform="translate(-6889.151 4038.778)" fill="none" stroke="#323f51" stroke-linecap="round" stroke-linejoin="round" stroke-width="10"/>
      <path id="Path_1388" data-name="Path 1388" d="M-769.576,158.091C-844.09,199.4-889.261,278.58-921.272,357.54a1090.8,1090.8,0,0,0-77.62,473.284c1.865,30.991,5.3,62.765,19.552,90.35,18.089,35.016,51.756,59.495,87.044,77.053,66.976,33.323,142.487,45.932,217.187,49.948,63.5,3.414,128.729.638,187.988-22.442S-374.974,956.548-356.476,895.7c10.952-36.012,9.425-74.471,7.8-112.076q-2.4-55.525-4.806-111.05c-4.289-99.115-8.9-199.98-42.2-293.436S-495.936,199.038-589.75,166.769c-29.867-10.278-66.266-34.535-97.43-29.4-67.686,11.146-35.546,4.024-82.4,20.721" transform="translate(-7255.238 3252.522)" fill="#7ec8d6" stroke="#323f51" stroke-miterlimit="10" stroke-width="10"/>
      <path id="Path_1393" data-name="Path 1393" d="M32.4,68.721c-5.592,3.46-8.016,6.94-10.721,12.974a13.509,13.509,0,0,0-1.428,5.813A18.879,18.879,0,0,0,21.7,93.221a97.168,97.168,0,0,0,4.214,11.144c1.79,3.55,4.375,6.879,7.905,8.7,4.164,2.152,13.477,1.307,17.892-.05,6.185-1.891,7.282-.292,11.576-5.109,2.162-2.414,4.154-6.718,5.411-9.715s1.7-9.685,1.056-12.914c-1-4.978-9.333-15.81-16.273-18.817-9.1-3.932-11.858-.644-21.362,1.438" transform="translate(-8260.057 3348.128)" fill="#fff" stroke="#323f51" stroke-width="5"/>
      <path id="Path_1394" data-name="Path 1394" d="M32.4,68.721c-5.592,3.46-8.016,6.94-10.721,12.974a13.509,13.509,0,0,0-1.428,5.813A18.879,18.879,0,0,0,21.7,93.221a97.168,97.168,0,0,0,4.214,11.144c1.79,3.55,4.375,6.879,7.905,8.7,4.164,2.152,13.477,1.307,17.892-.05,6.185-1.891,7.282-.292,11.576-5.109,2.162-2.414,4.154-6.718,5.411-9.715s1.7-9.685,1.056-12.914c-1-4.978-9.333-15.81-16.273-18.817-9.1-3.932-11.858-.644-21.362,1.438" transform="translate(-8260.057 3348.128)" fill="none" stroke="#323f51" stroke-linecap="round" stroke-miterlimit="10" stroke-width="5"/>
      <path id="Path_1395" data-name="Path 1395" d="M35.672,59.265c-11.747,7.171-16.736,14.553-22.2,27.417-1.649,3.9-2.967,8.1-2.736,12.471.231,4.234,1.891,8.338,3.4,12.391,3.047,8.157,5.6,16.5,9.615,24.279s9.715,15.076,17.339,19.2c9,4.878,28.865,3.55,38.188.865,13.125-3.762,15.529-.241,24.46-10.4,4.476-5.1,8.488-14.292,11.023-20.688s3.088-20.809,1.549-27.819c-2.394-10.792-20.779-34.608-35.764-41.467-19.642-8.981-25.345-2.032-45.53,1.951" transform="translate(-8346.422 3225.902)" fill="#fff" stroke="#323f51" stroke-width="10"/>
      <path id="Path_1396" data-name="Path 1396" d="M35.672,59.265c-11.747,7.171-16.736,14.553-22.2,27.417-1.649,3.9-2.967,8.1-2.736,12.471.231,4.234,1.891,8.338,3.4,12.391,3.047,8.157,5.6,16.5,9.615,24.279s9.715,15.076,17.339,19.2c9,4.878,28.865,3.55,38.188.865,13.125-3.762,15.529-.241,24.46-10.4,4.476-5.1,8.488-14.292,11.023-20.688s3.088-20.809,1.549-27.819c-2.394-10.792-20.779-34.608-35.764-41.467-19.642-8.981-25.345-2.032-45.53,1.951" transform="translate(-8346.422 3225.902)" fill="none" stroke="#323f51" stroke-linecap="round" stroke-miterlimit="10" stroke-width="10"/>
      <path id="Path_1397" data-name="Path 1397" d="M19.126,301.966c12.039,110.159,88.023,195.456,197.528,214.073C284.17,527.515,373.7,531.276,438.571,506.4c65.9-25.254,104.6-83.869,127.759-147.945,21.251-58.776,50.83-131.6,23.384-192.731C553.688,85.49,470.926,20.74,384.724,3.009,327.316-8.8,170.6,26.855,103.387,82.754,15.314,156.023,35.781,197.7,8.948,301.242" transform="translate(-8362.411 2769.631)" fill="#fff" stroke="#323f51" stroke-width="10"/>
      <path id="Path_1398" data-name="Path 1398" d="M19.126,301.966c12.039,110.159,88.023,195.456,197.528,214.073C284.17,527.515,373.7,531.276,438.571,506.4c65.9-25.254,104.6-83.869,127.759-147.945,21.251-58.776,50.83-131.6,23.384-192.731C553.688,85.49,470.926,20.74,384.724,3.009,327.316-8.8,170.6,26.855,103.387,82.754,15.314,156.023,35.781,197.7,8.948,301.242" transform="translate(-8362.411 2769.631)" fill="none" stroke="#323f51" stroke-linecap="round" stroke-miterlimit="10" stroke-width="10"/>
      <path id="Path_1399" data-name="Path 1399" d="M384.474,316.422A745.58,745.58,0,0,1,112.723,215.344Q188.606,180.42,264.479,145.5c15.3-7.04,31.45-14.815,40.35-29.116,16.172-26-1.931-63.633-30.736-74.043s-61.984,1.589-84.281,22.569c-39.465,37.132-45.771,109.355-3.671,143.469,17.128,13.879,39.385,19.994,61.34,22.076,36.277,3.43,75.149-4.224,102.395-28.422s39.184-67.053,21.352-98.834c29.509,10.9,56.654,29.881,73.711,56.322s23.032,60.7,12.21,90.245c-4.3,11.757-19.582,23.645-27.437,13.889-2.384-2.947-2.866-6.95-3.2-10.731A388.361,388.361,0,0,1,466.382,44.73c-17.963,5.26-36.931,10.57-55.115,6.135S376.791,28.417,381.3,10.253c-36.579,22.81-61.511,60.837-77.08,101.037s-22.79,83.034-31.339,125.286c-2.424,12.029-5.059,24.269-11.214,34.879-6.829,11.737-17.48,20.668-27.919,29.348q-39.541,32.873-79.082,65.756c-4.9,4.073-10.983,8.408-17.067,6.517-4.586-1.418-7.372-5.924-9.766-10.088Q83.295,285.218,38.76,207.439c-11.043-19.28-22.368-39.506-23.4-61.7C14.14,119.648,27.265,95.289,40.018,72.5a316.225,316.225,0,0,0,148.669,73.62" transform="translate(-8305.074 2855.7)" fill="none" stroke="#4d5c70" stroke-linecap="round" stroke-linejoin="round" stroke-width="10"/>
      <ellipse id="Ellipse_124" data-name="Ellipse 124" cx="21.271" cy="21.271" rx="21.271" ry="21.271" transform="translate(-7879.112 3610.857)" fill="none" stroke="#353f4f" stroke-linecap="round" stroke-miterlimit="10" stroke-width="5"/>
      <ellipse id="Ellipse_125" data-name="Ellipse 125" cx="7.496" cy="7.496" rx="7.496" ry="7.496" transform="translate(-7865.37 3624.633)" fill="#353f4f"/>
      <ellipse id="Ellipse_126" data-name="Ellipse 126" cx="21.271" cy="21.271" rx="21.271" ry="21.271" transform="translate(-8012.063 3610.857)" fill="none" stroke="#353f4f" stroke-linecap="round" stroke-miterlimit="10" stroke-width="5"/>
      <ellipse id="Ellipse_127" data-name="Ellipse 127" cx="7.496" cy="7.496" rx="7.496" ry="7.496" transform="translate(-7998.32 3624.633)" fill="#353f4f"/>
      <path id="Path_1401" data-name="Path 1401" d="M584.349,145.573a240.947,240.947,0,0,0-23.966-5.092c-17.628-2.49-36-.943-52.5,5.784s-30.994,18.773-39.457,34.44" transform="translate(-8458.26 3621.061)" fill="none" stroke="#353f4f" stroke-linecap="round" stroke-miterlimit="10" stroke-width="5"/>
      <path id="Path_1402" data-name="Path 1402" d="M477.689,124.343c16.711,3.5,29.235,12.385,41.669,23.79" transform="translate(-8351.11 3447.258)" fill="none" stroke="#353f4f" stroke-linecap="round" stroke-miterlimit="10" stroke-width="5"/>
      <path id="Path_1403" data-name="Path 1403" d="M507.97,124.343c-16.711,3.5-29.221,12.385-41.67,23.79" transform="translate(-8482.925 3447.258)" fill="none" stroke="#353f4f" stroke-linecap="round" stroke-miterlimit="10" stroke-width="5"/>
      <path id="Path_1404" data-name="Path 1404" d="M477.675,132.158c10.5,3.521,20.558,2.5,31.447,0" transform="translate(-8351.271 3537.707)" fill="none" stroke="#353f4f" stroke-linecap="round" stroke-miterlimit="10" stroke-width="5"/>
      <path id="Path_1405" data-name="Path 1405" d="M467.1,132.158c10.512,3.521,20.571,2.5,31.447,0" transform="translate(-8473.654 3537.707)" fill="none" stroke="#353f4f" stroke-linecap="round" stroke-miterlimit="10" stroke-width="5"/>
      <path id="Path_1391" data-name="Path 1391" d="M-774.151,191.7c52.681,32.986,87.28,71.967,115.059,127.575,14.223,28.467,24.343,62.543,11.354,91.591-9.023,20.176-27.844,34.37-47.661,44.146-73.359,36.213-162.311,21.84-239.241,49.669" transform="translate(-6846.724 3592.239)" fill="none" stroke="#323f51" stroke-linecap="round" stroke-linejoin="round" stroke-width="10"/>
      <path id="Path_1389" data-name="Path 1389" d="M-898.661,192.036c-65.211,15.349-115.676,79-115.74,146-.014,15.866,2.6,31.989,9.784,46.14,13.346,26.272,40.315,42.346,66.107,56.612A2877.528,2877.528,0,0,0-655.187,577.752" transform="translate(-7339.045 3594.296)" fill="none" stroke="#323f51" stroke-linecap="round" stroke-linejoin="round" stroke-width="10"/>
    </g>
  </g>
</svg>
