<svg width="2510.524" height="2510.524" xmlns="http://www.w3.org/2000/svg"><g data-name="Group 952"><path fill="#fff" d="m1897.135 1818.318-78.816 78.816C1479.553 2235.9 602.465 1908.06 602.465 1908.06s-327.84-877.089 10.926-1215.854l78.815-78.816c338.767-338.766 883.124-343.657 1215.855-10.926s327.84 877.088-10.926 1215.854Z" data-name="Path 1409"/><g data-name="Group 951" transform="translate(9175.967 -2614.819)"><path fill="none" stroke="#323f51" stroke-linecap="round" stroke-linejoin="round" stroke-width="10" d="M-8025.556 4288.914c-1.169 93.671-2.331 156.731-3.5 250.409a493.833 493.833 0 0 1-96.189 1.8" data-name="Path 1390"/><path fill="none" stroke="#323f51" stroke-linecap="round" stroke-linejoin="round" stroke-width="10" d="M-7827.968 4301.229c-4.374 89.852-4.5 150.2-.38 240.059a229.483 229.483 0 0 1 96.7 1.37" data-name="Path 1387"/><path fill="#7ec8d6" stroke="#323f51" stroke-miterlimit="10" stroke-width="10" d="M-8024.814 3410.613c-74.514 41.309-119.685 120.489-151.696 199.449a1090.8 1090.8 0 0 0-77.62 473.284c1.865 30.991 5.3 62.765 19.552 90.35 18.089 35.016 51.756 59.495 87.044 77.053 66.976 33.323 142.487 45.932 217.187 49.948 63.5 3.414 128.729.638 187.988-22.442s112.147-69.185 130.645-130.033c10.952-36.012 9.425-74.471 7.8-112.076q-2.4-55.525-4.806-111.05c-4.289-99.115-8.9-199.98-42.2-293.436s-100.254-180.1-194.068-212.369c-29.867-10.278-66.266-34.535-97.43-29.4-67.686 11.146-35.546 4.024-82.4 20.721" data-name="Path 1388"/><path fill="#fff" stroke="#323f51" stroke-width="5" d="M-8227.657 3416.849c-5.592 3.46-8.016 6.94-10.721 12.974a13.509 13.509 0 0 0-1.428 5.813 18.879 18.879 0 0 0 1.449 5.713 97.168 97.168 0 0 0 4.214 11.144c1.79 3.55 4.375 6.879 7.905 8.7 4.164 2.152 13.477 1.307 17.892-.05 6.185-1.891 7.282-.292 11.576-5.109 2.162-2.414 4.154-6.718 5.411-9.715s1.7-9.685 1.056-12.914c-1-4.978-9.333-15.81-16.273-18.817-9.1-3.932-11.858-.644-21.362 1.438" data-name="Path 1393"/><path fill="none" stroke="#323f51" stroke-linecap="round" stroke-miterlimit="10" stroke-width="5" d="M-8227.657 3416.849c-5.592 3.46-8.016 6.94-10.721 12.974a13.509 13.509 0 0 0-1.428 5.813 18.879 18.879 0 0 0 1.449 5.713 97.168 97.168 0 0 0 4.214 11.144c1.79 3.55 4.375 6.879 7.905 8.7 4.164 2.152 13.477 1.307 17.892-.05 6.185-1.891 7.282-.292 11.576-5.109 2.162-2.414 4.154-6.718 5.411-9.715s1.7-9.685 1.056-12.914c-1-4.978-9.333-15.81-16.273-18.817-9.1-3.932-11.858-.644-21.362 1.438" data-name="Path 1394"/><path fill="#fff" stroke="#323f51" stroke-width="10" d="M-8310.75 3285.167c-11.747 7.171-16.736 14.553-22.2 27.417-1.649 3.9-2.967 8.1-2.736 12.471.231 4.234 1.891 8.338 3.4 12.391 3.047 8.157 5.6 16.5 9.615 24.279s9.715 15.076 17.339 19.2c9 4.878 28.865 3.55 38.188.865 13.125-3.762 15.529-.241 24.46-10.4 4.476-5.1 8.488-14.292 11.023-20.688s3.088-20.809 1.549-27.819c-2.394-10.792-20.779-34.608-35.764-41.467-19.642-8.981-25.345-2.032-45.53 1.951" data-name="Path 1395"/><path fill="none" stroke="#323f51" stroke-linecap="round" stroke-miterlimit="10" stroke-width="10" d="M-8310.75 3285.167c-11.747 7.171-16.736 14.553-22.2 27.417-1.649 3.9-2.967 8.1-2.736 12.471.231 4.234 1.891 8.338 3.4 12.391 3.047 8.157 5.6 16.5 9.615 24.279s9.715 15.076 17.339 19.2c9 4.878 28.865 3.55 38.188.865 13.125-3.762 15.529-.241 24.46-10.4 4.476-5.1 8.488-14.292 11.023-20.688s3.088-20.809 1.549-27.819c-2.394-10.792-20.779-34.608-35.764-41.467-19.642-8.981-25.345-2.032-45.53 1.951" data-name="Path 1396"/><path fill="#fff" stroke="#323f51" stroke-width="10" d="M-8343.285 3071.597c12.039 110.159 88.023 195.456 197.528 214.073 67.516 11.476 157.046 15.237 221.917-9.639 65.9-25.254 104.6-83.869 127.759-147.945 21.251-58.776 50.83-131.6 23.384-192.731-36.026-80.234-118.788-144.984-204.99-162.715-57.408-11.809-214.124 23.846-281.337 79.745-88.073 73.269-67.606 114.946-94.439 218.488" data-name="Path 1397"/><path fill="none" stroke="#323f51" stroke-linecap="round" stroke-miterlimit="10" stroke-width="10" d="M-8343.285 3071.597c12.039 110.159 88.023 195.456 197.528 214.073 67.516 11.476 157.046 15.237 221.917-9.639 65.9-25.254 104.6-83.869 127.759-147.945 21.251-58.776 50.83-131.6 23.384-192.731-36.026-80.234-118.788-144.984-204.99-162.715-57.408-11.809-214.124 23.846-281.337 79.745-88.073 73.269-67.606 114.946-94.439 218.488" data-name="Path 1398"/><path fill="none" stroke="#4d5c70" stroke-linecap="round" stroke-linejoin="round" stroke-width="10" d="M-7920.6 3172.122a745.58 745.58 0 0 1-271.751-101.078l151.756-69.844c15.3-7.04 31.45-14.815 40.35-29.116 16.172-26-1.931-63.633-30.736-74.043s-61.984 1.589-84.281 22.569c-39.465 37.132-45.771 109.355-3.671 143.469 17.128 13.879 39.385 19.994 61.34 22.076 36.277 3.43 75.149-4.224 102.395-28.422s39.184-67.053 21.352-98.834c29.509 10.9 56.654 29.881 73.711 56.322s23.032 60.7 12.21 90.245c-4.3 11.757-19.582 23.645-27.437 13.889-2.384-2.947-2.866-6.95-3.2-10.731a388.361 388.361 0 0 1 39.87-208.194c-17.963 5.26-36.931 10.57-55.115 6.135s-34.476-22.448-29.967-40.612c-36.579 22.81-61.511 60.837-77.08 101.037s-22.79 83.034-31.339 125.286c-2.424 12.029-5.059 24.269-11.214 34.879-6.829 11.737-17.48 20.668-27.919 29.348q-39.541 32.873-79.082 65.756c-4.9 4.073-10.983 8.408-17.067 6.517-4.586-1.418-7.372-5.924-9.766-10.088q-44.538-77.77-89.073-155.549c-11.043-19.28-22.368-39.506-23.4-61.7-1.22-26.091 11.905-50.45 24.658-73.239a316.225 316.225 0 0 0 148.669 73.62" data-name="Path 1399"/><circle cx="21.271" cy="21.271" r="21.271" fill="none" stroke="#353f4f" stroke-linecap="round" stroke-miterlimit="10" stroke-width="5" data-name="Ellipse 124" transform="translate(-7879.112 3610.857)"/><circle cx="7.496" cy="7.496" r="7.496" fill="#353f4f" data-name="Ellipse 125" transform="translate(-7865.37 3624.633)"/><circle cx="21.271" cy="21.271" r="21.271" fill="none" stroke="#353f4f" stroke-linecap="round" stroke-miterlimit="10" stroke-width="5" data-name="Ellipse 126" transform="translate(-8012.063 3610.857)"/><circle cx="7.496" cy="7.496" r="7.496" fill="#353f4f" data-name="Ellipse 127" transform="translate(-7998.32 3624.633)"/><path fill="none" stroke="#353f4f" stroke-linecap="round" stroke-miterlimit="10" stroke-width="5" d="M-7873.911 3766.634a240.947 240.947 0 0 0-23.966-5.092c-17.628-2.49-36-.943-52.5 5.784s-30.994 18.773-39.457 34.44" data-name="Path 1401"/><path fill="none" stroke="#353f4f" stroke-linecap="round" stroke-miterlimit="10" stroke-width="5" d="M-7873.421 3571.601c16.711 3.5 29.235 12.385 41.669 23.79" data-name="Path 1402"/><path fill="none" stroke="#353f4f" stroke-linecap="round" stroke-miterlimit="10" stroke-width="5" d="M-7974.955 3571.601c-16.711 3.5-29.221 12.385-41.67 23.79" data-name="Path 1403"/><path fill="none" stroke="#353f4f" stroke-linecap="round" stroke-miterlimit="10" stroke-width="5" d="M-7873.596 3669.865c10.5 3.521 20.558 2.5 31.447 0" data-name="Path 1404"/><path fill="none" stroke="#353f4f" stroke-linecap="round" stroke-miterlimit="10" stroke-width="5" d="M-8006.554 3669.865c10.512 3.521 20.571 2.5 31.447 0" data-name="Path 1405"/><path fill="none" stroke="#323f51" stroke-linecap="round" stroke-linejoin="round" stroke-width="10" d="M-7620.875 3783.939c52.681 32.986 87.28 71.967 115.059 127.575 14.223 28.467 24.343 62.543 11.354 91.591-9.023 20.176-27.844 34.37-47.661 44.146-73.359 36.213-162.311 21.84-239.241 49.669" data-name="Path 1391"/><path fill="none" stroke="#323f51" stroke-linecap="round" stroke-linejoin="round" stroke-width="10" d="M-8237.706 3786.332c-65.211 15.349-115.676 79-115.74 146-.014 15.866 2.6 31.989 9.784 46.14 13.346 26.272 40.315 42.346 66.107 56.612a2877.528 2877.528 0 0 0 283.323 136.964" data-name="Path 1389"/></g></g></svg>