<svg width="2061" height="1744" xmlns="http://www.w3.org/2000/svg"><defs><filter id="Kognitions-pyramide_svg__b" width="1465.71" height="506.145" x="208.175" y="1070.02" filterUnits="userSpaceOnUse"><feOffset dy="5"/><feGaussianBlur result="blur" stdDeviation="2.5"/><feFlood flood-opacity=".102"/><feComposite in2="blur" operator="in"/><feComposite in="SourceGraphic"/></filter><filter id="Kognitions-pyramide_svg__c" width="1120.993" height="483.189" x="387.208" y="783.041" filterUnits="userSpaceOnUse"><feOffset dy="5"/><feGaussianBlur result="blur-2" stdDeviation="2.5"/><feFlood flood-opacity=".102"/><feComposite in2="blur-2" operator="in"/><feComposite in="SourceGraphic"/></filter><filter id="Kognitions-pyramide_svg__d" width="789.714" height="422.229" x="552.8" y="557.025" filterUnits="userSpaceOnUse"><feOffset dy="5"/><feGaussianBlur result="blur-3" stdDeviation="2.5"/><feFlood flood-opacity=".102"/><feComposite in2="blur-3" operator="in"/><feComposite in="SourceGraphic"/></filter><filter id="Kognitions-pyramide_svg__e" width="1286.77" height="196.211" x="387.115" y="1070.02" filterUnits="userSpaceOnUse"><feOffset dy="5"/><feGaussianBlur result="blur-4" stdDeviation="2.5"/><feFlood flood-opacity=".102"/><feComposite in2="blur-4" operator="in"/><feComposite in="SourceGraphic"/></filter><filter id="Kognitions-pyramide_svg__f" width="1644.65" height="219.17" x="208.175" y="1356.994" filterUnits="userSpaceOnUse"><feOffset dy="5"/><feGaussianBlur result="blur-5" stdDeviation="2.5"/><feFlood flood-opacity=".102"/><feComposite in2="blur-5" operator="in"/><feComposite in="SourceGraphic"/></filter><filter id="Kognitions-pyramide_svg__g" width="955.4" height="196.215" x="552.8" y="783.041" filterUnits="userSpaceOnUse"><feOffset dy="5"/><feGaussianBlur result="blur-6" stdDeviation="2.5"/><feFlood flood-opacity=".102"/><feComposite in2="blur-6" operator="in"/><feComposite in="SourceGraphic"/></filter><filter id="Kognitions-pyramide_svg__h" width="624.025" height="542.432" x="718.487" y="149.844" filterUnits="userSpaceOnUse"><feOffset dy="5"/><feGaussianBlur result="blur-7" stdDeviation="2.5"/><feFlood flood-opacity=".102"/><feComposite in2="blur-7" operator="in"/><feComposite in="SourceGraphic"/></filter><clipPath id="Kognitions-pyramide_svg__a"><path d="M0 0h2061v1744H0z"/></clipPath></defs><g clip-path="url(#Kognitions-pyramide_svg__a)"><path fill="#f2f2f2" d="M0 0h2061v1744H0z"/><g data-name="Group 1499"><g filter="url(#Kognitions-pyramide_svg__b)" transform="translate(0 .005)"><path fill="#536477" d="m333.552 1359.49 1228.21-286.974 104.622 181.211-1450.709 309.934Z" data-name="Path 1980"/></g><g filter="url(#Kognitions-pyramide_svg__c)" transform="translate(0 .005)"><path fill="#027586" d="m499.333 1072.517 896.744-286.977 104.625 181.215L394.71 1253.73Z" data-name="Path 1981"/></g><path fill="#606" d="M830.61 498.563 994.31 392.8h175.015L725.987 679.777Z" data-name="Path 1982"/><g filter="url(#Kognitions-pyramide_svg__d)" transform="translate(0 .005)"><path fill="#69a4af" d="m664.923 785.541 600.663-226.013 69.426 120.25-774.714 286.979Z" data-name="Path 1983"/></g><g filter="url(#Kognitions-pyramide_svg__e)" transform="translate(0 .005)"><path fill="#6c85a0" d="M1561.764 1072.516H499.238L394.62 1253.727h1271.77Z" data-name="Path 1984"/></g><g filter="url(#Kognitions-pyramide_svg__f)" transform="translate(0 .005)"><path fill="#323f51" d="m1845.33 1563.662-117.878-204.17h-1393.9l-117.877 204.17Z" data-name="Path 1985"/></g><g filter="url(#Kognitions-pyramide_svg__g)" transform="translate(0 .005)"><path fill="#009cb2" d="M1396.07 785.54H664.923L560.298 966.756h940.4Z" data-name="Path 1986"/></g><g filter="url(#Kognitions-pyramide_svg__h)" transform="translate(0 .005)"><path fill="#81bec9" d="M1230.394 498.559 1030.505 152.34l-199.89 346.219-104.623 181.213h609.026Z" data-name="Path 1987"/></g><text fill="#fff" font-family="BebasNeueBold, Bebas Neue" font-size="150" transform="translate(830.229 347.676)"><tspan x="169.185" y="113">D</tspan></text><text fill="#fff" font-family="BebasNeueBold, Bebas Neue" font-size="150" transform="translate(602.905 814.31)"><tspan x="109.877" y="113">C</tspan></text><text fill="#fff" font-family="BebasNeueBold, Bebas Neue" font-size="150" transform="translate(344.818 1398.54)"><tspan x="49.621" y="113">A</tspan></text><path fill="none" stroke="#fff" stroke-miterlimit="10" stroke-width="2" d="M883.712 813.108v134.246" data-name="Line 135"/><path fill="none" stroke="#fff" stroke-miterlimit="10" stroke-width="2" d="M864.712 508.388v134.246" data-name="Line 136"/><text fill="#fff" font-family="BebasNeueBold, Bebas Neue" font-size="150" transform="translate(436.596 1098.603)"><tspan x="108.377" y="113">B</tspan></text><path fill="none" stroke="#fff" stroke-miterlimit="10" stroke-width="2" d="M714.251 1100.808v134.246" data-name="Line 137"/><path fill="none" stroke="#fff" stroke-miterlimit="10" stroke-width="2" d="M565.542 1397.339v134.246" data-name="Line 138"/></g><path fill="#fff" d="M909.806 556.461v-41.58h-9.84v41.58Zm10.62-22.92 13.26-18.66h-10.38l-13.2 19.38 13.26 22.2h11.4Zm29.94-9.96c-9.72 0-15.6 6.72-15.6 16.92 0 10.74 5.94 16.98 15.6 16.98 9.72 0 15.6-6.72 15.6-16.92 0-10.74-5.88-16.98-15.6-16.98Zm0 6.96c3.84 0 5.76 2.94 5.76 10.02 0 6.9-1.92 9.96-5.76 9.96s-5.76-2.94-5.76-10.02c0-6.9 1.92-9.96 5.76-9.96Zm56.46-6.96c-4.08 0-7.02 1.68-9.54 5.04a7.562 7.562 0 0 0-7.5-5.04c-3.9 0-6.78 1.62-9.24 4.74l-.66-3.72h-8.28v31.86h9.48v-21.78c1.38-2.64 2.88-4.14 4.86-4.14 1.44 0 2.7.9 2.7 4.26v21.66h9.48v-21.78c1.38-2.64 2.82-4.14 4.86-4.14 1.44 0 2.7.9 2.7 4.26v21.66h9.48v-23.28c0-6.06-3.42-9.6-8.34-9.6Zm33.3 0a11.514 11.514 0 0 0-9 4.56l-.48-3.54h-8.34v45.18l9.48-1.02v-14.58a9.945 9.945 0 0 0 7.74 3.3c7.86 0 12.66-7.2 12.66-17.04 0-10.32-3.66-16.86-12.06-16.86Zm-3.48 26.94a5.644 5.644 0 0 1-4.86-2.82v-13.44c1.38-2.34 3.24-3.72 5.34-3.72 3.3 0 5.22 2.1 5.22 10.02 0 7.14-2.16 9.96-5.7 9.96Zm30.66-3v-36.6l-9.48 1.02v36.54c0 5.88 3.12 9 8.4 9a17.155 17.155 0 0 0 6.12-1.08l-1.86-6.72a4.507 4.507 0 0 1-1.56.3c-1.02 0-1.62-.66-1.62-2.46Zm35.82-7.62c0-10.32-5.58-16.32-14.7-16.32-9.66 0-14.88 7.56-14.88 17.1 0 9.96 5.4 16.8 16.02 16.8a19.589 19.589 0 0 0 12.42-4.44l-3.9-5.28c-2.76 1.92-5.04 2.82-7.62 2.82-3.9 0-6.6-1.56-7.26-7.26h19.74a31.809 31.809 0 0 0 .18-3.42Zm-9.3-2.28h-10.62c.42-5.7 2.28-7.74 5.46-7.74 3.78 0 5.1 3 5.16 7.32Zm24.24 18.84v-45.54l-9.48 1.02v44.52Zm10.02-17.88 9.66-13.98h-9.66l-9.72 14.46 9.48 17.4h10.68Zm24.84-15c-8.04 0-13.02 4.26-13.02 9.72 0 4.92 3.12 8.16 9.42 9.96 5.76 1.62 6.72 2.28 6.72 4.5 0 1.86-1.74 2.94-4.68 2.94a13.335 13.335 0 0 1-8.34-3.18l-4.68 5.22a19.811 19.811 0 0 0 13.32 4.74c7.92 0 14.16-3.9 14.16-10.5 0-5.7-3.54-8.34-9.84-10.14-5.7-1.68-6.54-2.4-6.54-4.08 0-1.44 1.26-2.4 4.14-2.4a14.031 14.031 0 0 1 7.56 2.52l3.48-5.4a18.538 18.538 0 0 0-11.7-3.9Zm45.54 16.32c0-10.32-5.58-16.32-14.7-16.32-9.66 0-14.88 7.56-14.88 17.1 0 9.96 5.4 16.8 16.02 16.8a19.589 19.589 0 0 0 12.42-4.44l-3.9-5.28c-2.76 1.92-5.04 2.82-7.62 2.82-3.9 0-6.6-1.56-7.26-7.26h19.74a31.809 31.809 0 0 0 .18-3.42Zm-9.3-2.28h-10.62c.42-5.7 2.28-7.74 5.46-7.74 3.78 0 5.1 3 5.16 7.32Zm-275.58 55.96c-9.72 0-15.6 6.72-15.6 16.92 0 10.74 5.94 16.98 15.6 16.98 9.72 0 15.6-6.72 15.6-16.92 0-10.74-5.88-16.98-15.6-16.98Zm0 6.96c3.84 0 5.76 2.94 5.76 10.02 0 6.9-1.92 9.96-5.76 9.96s-5.76-2.94-5.76-10.02c0-6.9 1.92-9.96 5.76-9.96Zm39.06-6.96a11.514 11.514 0 0 0-9 4.56l-.48-3.54h-8.34v45.18l9.48-1.02v-14.58a9.945 9.945 0 0 0 7.74 3.3c7.86 0 12.66-7.2 12.66-17.04 0-10.32-3.66-16.86-12.06-16.86Zm-3.48 26.94a5.644 5.644 0 0 1-4.86-2.82v-13.44c1.38-2.34 3.24-3.72 5.34-3.72 3.3 0 5.22 2.1 5.22 10.02 0 7.14-2.16 9.96-5.7 9.96Zm50.82-24.06-2.22-7.02a25.232 25.232 0 0 1-15 4.14c-8.34 0-13.98 4.44-13.98 11.64 0 4.14 1.62 6.96 5.7 9.12a7.588 7.588 0 0 0-3.78 6.12c0 3.42 2.82 6.3 9.78 6.3h4.62c3.18 0 4.56 1.26 4.56 3.12 0 2.04-1.32 3.6-6.9 3.6-5.76 0-6.96-1.2-6.96-3.96h-8.52c0 6.3 3.18 10.26 15.24 10.26 10.92 0 16.68-4.02 16.68-10.56 0-5.34-4.74-9.24-12.18-9.24h-4.8c-3.06 0-3.48-.96-3.48-1.92a2.039 2.039 0 0 1 1.02-1.8 17.61 17.61 0 0 0 3.66.36c8.28 0 13.38-4.5 13.38-10.68 0-4.14-1.98-6.48-6-8.22 4.02 0 6.96-.36 9.18-1.26Zm-16.98 3.36c3.18 0 4.8 1.62 4.8 5.16 0 3.66-1.68 5.52-4.8 5.52-2.88 0-4.8-1.92-4.8-5.4 0-3.3 1.86-5.28 4.8-5.28Zm46.02 17.4v-12.36c0-7.38-3.96-11.28-13.2-11.28a35.993 35.993 0 0 0-12 2.34l2.16 6.24a28.7 28.7 0 0 1 8.34-1.68c3.9 0 5.4 1.14 5.4 4.92v1.38h-3.24c-9.66 0-14.94 3.78-14.94 10.74 0 5.82 4.02 9.96 10.38 9.96 3.78 0 7.32-1.26 9.6-4.8 1.44 3.18 3.9 4.32 7.68 4.62l1.98-6.18c-1.5-.54-2.16-1.44-2.16-3.9Zm-14.34 3.48c-2.34 0-3.72-1.5-3.72-4.02 0-3.18 2.1-4.68 6.42-4.68h2.34v5.64a5.676 5.676 0 0 1-5.04 3.06Zm38.34 5.76 10.02-31.86h-9.66l-5.88 24.66-5.64-24.66h-10.32l10.26 31.86Zm40.56-16.56c0-10.32-5.58-16.32-14.7-16.32-9.66 0-14.88 7.56-14.88 17.1 0 9.96 5.4 16.8 16.02 16.8a19.589 19.589 0 0 0 12.42-4.44l-3.9-5.28c-2.76 1.92-5.04 2.82-7.62 2.82-3.9 0-6.6-1.56-7.26-7.26h19.74a31.809 31.809 0 0 0 .18-3.42Zm-9.3-2.28h-10.62c.42-5.7 2.28-7.74 5.46-7.74 3.78 0 5.1 3 5.16 7.32Zm32.04-13.92c-3.66 0-6.78 2.64-8.22 7.08l-.78-6.18h-8.28v31.86h9.48v-15.78c1.02-4.86 2.64-7.8 6.6-7.8a11.517 11.517 0 0 1 2.88.42l1.5-9.18a10.734 10.734 0 0 0-3.18-.42Z" data-name="Path 1991"/><path fill="#fff" d="M978.286 889.641v17.82h9.84v-41.58h-9.84v16.08h-12.48v-16.08h-9.84v41.58h9.84v-17.82Zm44.34 17.82v-31.86h-9.48v22.14c-1.38 2.4-3.18 3.72-5.16 3.72s-3.06-.96-3.06-4.2v-21.66h-9.48v22.86c0 6.18 2.94 10.02 8.88 10.02a11.027 11.027 0 0 0 9.66-5.04l.42 4.02Zm16.92 0v-45.54l-9.48 1.02v44.52Zm10.02-17.88 9.66-13.98h-9.66l-9.72 14.46 9.48 17.4h10.68Zm26.46-15c-9.72 0-15.6 6.72-15.6 16.92 0 10.74 5.94 16.98 15.6 16.98 9.72 0 15.6-6.72 15.6-16.92 0-10.74-5.88-16.98-15.6-16.98Zm0 6.96c3.84 0 5.76 2.94 5.76 10.02 0 6.9-1.92 9.96-5.76 9.96s-5.76-2.94-5.76-10.02c0-6.9 1.92-9.96 5.76-9.96Zm56.46-6.96c-4.08 0-7.02 1.68-9.54 5.04a7.562 7.562 0 0 0-7.5-5.04c-3.9 0-6.78 1.62-9.24 4.74l-.66-3.72h-8.28v31.86h9.48v-21.78c1.38-2.64 2.88-4.14 4.86-4.14 1.44 0 2.7.9 2.7 4.26v21.66h9.48v-21.78c1.38-2.64 2.82-4.14 4.86-4.14 1.44 0 2.7.9 2.7 4.26v21.66h9.48v-23.28c0-6.06-3.42-9.6-8.34-9.6Zm50.7 0c-4.08 0-7.02 1.68-9.54 5.04a7.562 7.562 0 0 0-7.5-5.04c-3.9 0-6.78 1.62-9.24 4.74l-.66-3.72h-8.28v31.86h9.48v-21.78c1.38-2.64 2.88-4.14 4.86-4.14 1.44 0 2.7.9 2.7 4.26v21.66h9.48v-21.78c1.38-2.64 2.82-4.14 4.86-4.14 1.44 0 2.7.9 2.7 4.26v21.66h9.48v-23.28c0-6.06-3.42-9.6-8.34-9.6Zm43.26 16.32c0-10.32-5.58-16.32-14.7-16.32-9.66 0-14.88 7.56-14.88 17.1 0 9.96 5.4 16.8 16.02 16.8a19.589 19.589 0 0 0 12.42-4.44l-3.9-5.28c-2.76 1.92-5.04 2.82-7.62 2.82-3.9 0-6.6-1.56-7.26-7.26h19.74a31.809 31.809 0 0 0 .18-3.42Zm-9.3-2.28h-10.62c.42-5.7 2.28-7.74 5.46-7.74 3.78 0 5.1 3 5.16 7.32Zm23.94 9.9v-36.6l-9.48 1.02v36.54c0 5.88 3.12 9 8.4 9a17.155 17.155 0 0 0 6.12-1.08l-1.86-6.72a4.507 4.507 0 0 1-1.56.3c-1.02 0-1.62-.66-1.62-2.46Zm19.86-23.94c-8.04 0-13.02 4.26-13.02 9.72 0 4.92 3.12 8.16 9.42 9.96 5.76 1.62 6.72 2.28 6.72 4.5 0 1.86-1.74 2.94-4.68 2.94a13.335 13.335 0 0 1-8.34-3.18l-4.68 5.22a19.811 19.811 0 0 0 13.32 4.74c7.92 0 14.16-3.9 14.16-10.5 0-5.7-3.54-8.34-9.84-10.14-5.7-1.68-6.54-2.4-6.54-4.08 0-1.44 1.26-2.4 4.14-2.4a14.031 14.031 0 0 1 7.56 2.52l3.48-5.4a18.538 18.538 0 0 0-11.7-3.9Zm45.54 16.32c0-10.32-5.58-16.32-14.7-16.32-9.66 0-14.88 7.56-14.88 17.1 0 9.96 5.4 16.8 16.02 16.8a19.589 19.589 0 0 0 12.42-4.44l-3.9-5.28c-2.76 1.92-5.04 2.82-7.62 2.82-3.9 0-6.6-1.56-7.26-7.26h19.74a31.809 31.809 0 0 0 .18-3.42Zm-9.3-2.28h-10.62c.42-5.7 2.28-7.74 5.46-7.74 3.78 0 5.1 3 5.16 7.32Z" data-name="Path 1990"/><path fill="#fff" d="M812.025 1149.861c-11.7 0-18.72 8.22-18.72 21.78 0 13.86 7.02 21.84 18.72 21.84 11.76 0 18.78-8.22 18.78-21.84 0-13.86-7.02-21.78-18.78-21.78Zm0 7.2c5.58 0 8.46 4.08 8.46 14.58 0 10.56-2.82 14.64-8.46 14.64-5.4 0-8.4-4.08-8.4-14.64 0-10.5 2.88-14.58 8.4-14.58Zm42.3 2.52a11.514 11.514 0 0 0-9 4.56l-.48-3.54h-8.34v45.18l9.48-1.02v-14.58a9.945 9.945 0 0 0 7.74 3.3c7.86 0 12.66-7.2 12.66-17.04 0-10.32-3.66-16.86-12.06-16.86Zm-3.48 26.94a5.644 5.644 0 0 1-4.86-2.82v-13.44c1.38-2.34 3.24-3.72 5.34-3.72 3.3 0 5.22 2.1 5.22 10.02 0 7.14-2.16 9.96-5.7 9.96Zm56.7-26.94c-4.08 0-7.02 1.68-9.54 5.04a7.562 7.562 0 0 0-7.5-5.04c-3.9 0-6.78 1.62-9.24 4.74l-.66-3.72h-8.28v31.86h9.48v-21.78c1.38-2.64 2.88-4.14 4.86-4.14 1.44 0 2.7.9 2.7 4.26v21.66h9.48v-21.78c1.38-2.64 2.82-4.14 4.86-4.14 1.44 0 2.7.9 2.7 4.26v21.66h9.48v-23.28c0-6.06-3.42-9.6-8.34-9.6Zm61.44 16.32c0-10.32-5.64-16.32-14.4-16.32a12.064 12.064 0 0 0-9.36 4.02c-1.86-2.46-4.86-4.02-9.72-4.02a35.993 35.993 0 0 0-12 2.34l2.16 6.3a28.7 28.7 0 0 1 8.34-1.68c3.9 0 5.4 1.2 5.4 4.92v1.32h-3.24c-9.9 0-15.3 3.78-15.3 10.74 0 5.82 4.02 9.96 10.62 9.96 4.44 0 8.4-1.38 11.28-5.46 2.64 3.36 6.9 5.46 12.66 5.46a19.589 19.589 0 0 0 12.42-4.44l-3.9-5.28c-2.76 1.92-5.04 2.82-7.62 2.82-3.96 0-6.66-1.56-7.26-7.26h19.74a31.809 31.809 0 0 0 .18-3.42Zm-9.36-2.28h-10.56c.42-5.7 2.28-7.74 5.4-7.74 3.78 0 5.16 3 5.16 7.32Zm-25.14 13.08c-2.34 0-3.6-1.44-3.6-3.84 0-3.3 2.04-4.68 6.24-4.68h2.4v.24a17.621 17.621 0 0 0 .66 4.44c-1.62 2.4-3.3 3.84-5.7 3.84Zm57.24-27c-3.66 0-6.78 2.64-8.22 7.08l-.78-6.18h-8.28v31.86h9.48v-15.78c1.02-4.86 2.64-7.8 6.6-7.8a11.517 11.517 0 0 1 2.88.42l1.5-9.18a10.733 10.733 0 0 0-3.18-.42Zm16.26 32.76v-45.54l-9.48 1.02v44.52Zm10.02-17.88 9.66-13.98h-9.66l-9.72 14.46 9.48 17.4h10.68Zm24.84-15c-8.04 0-13.02 4.26-13.02 9.72 0 4.92 3.12 8.16 9.42 9.96 5.76 1.62 6.72 2.28 6.72 4.5 0 1.86-1.74 2.94-4.68 2.94a13.335 13.335 0 0 1-8.34-3.18l-4.68 5.22a19.811 19.811 0 0 0 13.32 4.74c7.92 0 14.16-3.9 14.16-10.5 0-5.7-3.54-8.34-9.84-10.14-5.7-1.68-6.54-2.4-6.54-4.08 0-1.44 1.26-2.4 4.14-2.4a14.031 14.031 0 0 1 7.56 2.52l3.48-5.4a18.538 18.538 0 0 0-11.7-3.9Zm31.56 0c-9.72 0-15.6 6.72-15.6 16.92 0 10.74 5.94 16.98 15.6 16.98 9.72 0 15.6-6.72 15.6-16.92 0-10.74-5.88-16.98-15.6-16.98Zm0 6.96c3.84 0 5.76 2.94 5.76 10.02 0 6.9-1.92 9.96-5.76 9.96s-5.76-2.94-5.76-10.02c0-6.9 1.92-9.96 5.76-9.96Zm56.46-6.96c-4.08 0-7.02 1.68-9.54 5.04a7.562 7.562 0 0 0-7.5-5.04c-3.9 0-6.78 1.62-9.24 4.74l-.66-3.72h-8.28v31.86h9.48v-21.78c1.38-2.64 2.88-4.14 4.86-4.14 1.44 0 2.7.9 2.7 4.26v21.66h9.48v-21.78c1.38-2.64 2.82-4.14 4.86-4.14 1.44 0 2.7.9 2.7 4.26v21.66h9.48v-23.28c0-6.06-3.42-9.6-8.34-9.6Zm34.14 0a11.614 11.614 0 0 0-9.18 4.44v-17.04l-9.48.96v44.52h9.48v-21.84c1.68-2.58 3.42-4.08 5.52-4.08 1.8 0 3 .9 3 4.26v21.66h9.48v-23.28c0-6.06-3.3-9.6-8.82-9.6Zm43.74 16.32c0-10.32-5.58-16.32-14.7-16.32-9.66 0-14.88 7.56-14.88 17.1 0 9.96 5.4 16.8 16.02 16.8a19.589 19.589 0 0 0 12.42-4.44l-3.9-5.28c-2.76 1.92-5.04 2.82-7.62 2.82-3.9 0-6.6-1.56-7.26-7.26h19.74a31.809 31.809 0 0 0 .18-3.42Zm-9.3-2.28h-10.62c.42-5.7 2.28-7.74 5.46-7.74 3.78 0 5.1 3 5.16 7.32Zm43.32-25.68-9.48-1.02v15.66a10.325 10.325 0 0 0-7.38-3c-8.22 0-13.2 7.02-13.2 16.86 0 10.32 4.02 17.04 12.12 17.04a10.625 10.625 0 0 0 9.06-4.74l.48 3.72h8.4Zm-14.94 38.58c-3.12 0-5.28-2.1-5.28-10.02 0-7.14 2.4-10.02 5.82-10.02 2.1 0 3.48 1.02 4.92 2.7v13.74c-1.5 2.4-3.24 3.6-5.46 3.6Z" data-name="Path 1989"/><path fill="#fff" d="m682.206 1482.521 2.16 8.94h10.44l-12.54-41.58h-11.94l-12.54 41.58h10.2l2.1-8.94Zm-1.68-7.14h-8.76l4.38-18.36Zm26.64 16.08v-45.54l-9.48 1.02v44.52Zm10.02-17.88 9.66-13.98h-9.66l-9.72 14.46 9.48 17.4h10.68Zm33.6 16.38-3.18-6.06a6.3 6.3 0 0 1-3.42 1.08c-1.98 0-3-1.08-3-4.14v-14.64h6.3l1.02-6.6h-7.32v-7.98l-9.48 1.08v6.9h-4.5v6.6h4.5v14.76c0 7.5 3.42 11.46 10.44 11.52a15.781 15.781 0 0 0 8.64-2.52Zm7.86-47.16a5.405 5.405 0 1 0 5.64 5.4 5.313 5.313 0 0 0-5.64-5.4Zm4.8 48.66v-31.86h-9.48v31.86Zm24.84 0 10.02-31.86h-9.66l-5.88 24.66-5.64-24.66h-10.32l10.26 31.86Zm40.56-16.56c0-10.32-5.58-16.32-14.7-16.32-9.66 0-14.88 7.56-14.88 17.1 0 9.96 5.4 16.8 16.02 16.8a19.589 19.589 0 0 0 12.42-4.44l-3.9-5.28c-2.76 1.92-5.04 2.82-7.62 2.82-3.9 0-6.6-1.56-7.26-7.26h19.74a31.809 31.809 0 0 0 .18-3.42Zm-9.3-2.28h-10.62c.42-5.7 2.28-7.74 5.46-7.74 3.78 0 5.1 3 5.16 7.32Zm32.04-13.92c-3.66 0-6.78 2.64-8.22 7.08l-.78-6.18h-8.28v31.86h9.48v-15.78c1.02-4.86 2.64-7.8 6.6-7.8a11.517 11.517 0 0 1 2.88.42l1.5-9.18a10.734 10.734 0 0 0-3.18-.42Zm11.46-15.9a5.405 5.405 0 1 0 5.64 5.4 5.313 5.313 0 0 0-5.64-5.4Zm4.8 48.66v-31.86h-9.48v31.86Zm26.1-32.88c-3.96 0-7.02 1.62-9.72 4.8l-.66-3.78h-8.28v31.86h9.48v-21.78c1.68-2.64 3.42-4.14 5.52-4.14 1.86 0 3 .9 3 4.26v21.66h9.48v-23.28c0-6.06-3.3-9.6-8.82-9.6Zm45.3 2.88-2.22-7.02a25.233 25.233 0 0 1-15 4.14c-8.34 0-13.98 4.44-13.98 11.64 0 4.14 1.62 6.96 5.7 9.12a7.588 7.588 0 0 0-3.78 6.12c0 3.42 2.82 6.3 9.78 6.3h4.62c3.18 0 4.56 1.26 4.56 3.12 0 2.04-1.32 3.6-6.9 3.6-5.76 0-6.96-1.2-6.96-3.96h-8.52c0 6.3 3.18 10.26 15.24 10.26 10.92 0 16.68-4.02 16.68-10.56 0-5.34-4.74-9.24-12.18-9.24h-4.8c-3.06 0-3.48-.96-3.48-1.92a2.039 2.039 0 0 1 1.02-1.8 17.609 17.609 0 0 0 3.66.36c8.28 0 13.38-4.5 13.38-10.68 0-4.14-1.98-6.48-6-8.22 4.02 0 6.96-.36 9.18-1.26Zm-16.98 3.36c3.18 0 4.8 1.62 4.8 5.16 0 3.66-1.68 5.52-4.8 5.52-2.88 0-4.8-1.92-4.8-5.4 0-3.3 1.86-5.28 4.8-5.28Zm60.24 17.4v-12.36c0-7.38-3.96-11.28-13.2-11.28a35.993 35.993 0 0 0-12 2.34l2.16 6.24a28.7 28.7 0 0 1 8.34-1.68c3.9 0 5.4 1.14 5.4 4.92v1.38h-3.24c-9.66 0-14.94 3.78-14.94 10.74 0 5.82 4.02 9.96 10.38 9.96 3.78 0 7.32-1.26 9.6-4.8 1.44 3.18 3.9 4.32 7.68 4.62l1.98-6.18c-1.5-.54-2.16-1.44-2.16-3.9Zm-14.34 3.48c-2.34 0-3.72-1.5-3.72-4.02 0-3.18 2.1-4.68 6.42-4.68h2.34v5.64a5.676 5.676 0 0 1-5.04 3.06Zm36.48-32.76a11.319 11.319 0 0 1 4.98 1.2l2.58-6.18a19.387 19.387 0 0 0-8.7-2.04c-8.16 0-12.18 4.74-12.18 10.86v2.82h-4.8v6.6h4.8v25.26h9.48v-25.26h6.48l1.02-6.6h-7.5v-2.46c0-3 1.08-4.2 3.84-4.2Zm39.66 5.64c-3.96 0-7.02 1.62-9.72 4.8l-.66-3.78h-8.28v31.86h9.48v-21.78c1.68-2.64 3.42-4.14 5.52-4.14 1.86 0 3 .9 3 4.26v21.66h9.48v-23.28c0-6.06-3.3-9.6-8.82-9.6Zm43.74 16.32c0-10.32-5.58-16.32-14.7-16.32-9.66 0-14.88 7.56-14.88 17.1 0 9.96 5.4 16.8 16.02 16.8a19.589 19.589 0 0 0 12.42-4.44l-3.9-5.28c-2.76 1.92-5.04 2.82-7.62 2.82-3.9 0-6.6-1.56-7.26-7.26h19.74a31.809 31.809 0 0 0 .18-3.42Zm-9.3-2.28h-10.62c.42-5.7 2.28-7.74 5.46-7.74 3.78 0 5.1 3 5.16 7.32Zm32.04-13.92c-3.66 0-6.78 2.64-8.22 7.08l-.78-6.18h-8.28v31.86h9.48v-15.78c1.02-4.86 2.64-7.8 6.6-7.8a11.517 11.517 0 0 1 2.88.42l1.5-9.18a10.733 10.733 0 0 0-3.18-.42Zm25.56 32.76 10.02-31.86h-9.66l-5.88 24.66-5.64-24.66h-10.32l10.26 31.86Zm40.56-16.56c0-10.32-5.58-16.32-14.7-16.32-9.66 0-14.88 7.56-14.88 17.1 0 9.96 5.4 16.8 16.02 16.8a19.589 19.589 0 0 0 12.42-4.44l-3.9-5.28c-2.76 1.92-5.04 2.82-7.62 2.82-3.9 0-6.6-1.56-7.26-7.26h19.74a31.809 31.809 0 0 0 .18-3.42Zm-9.3-2.28h-10.62c.42-5.7 2.28-7.74 5.46-7.74 3.78 0 5.1 3 5.16 7.32Zm25.98-14.04c-8.04 0-13.02 4.26-13.02 9.72 0 4.92 3.12 8.16 9.42 9.96 5.76 1.62 6.72 2.28 6.72 4.5 0 1.86-1.74 2.94-4.68 2.94a13.335 13.335 0 0 1-8.34-3.18l-4.68 5.22a19.811 19.811 0 0 0 13.32 4.74c7.92 0 14.16-3.9 14.16-10.5 0-5.7-3.54-8.34-9.84-10.14-5.7-1.68-6.54-2.4-6.54-4.08 0-1.44 1.26-2.4 4.14-2.4a14.031 14.031 0 0 1 7.56 2.52l3.48-5.4a18.538 18.538 0 0 0-11.7-3.9Zm34.74 32.94 10.14-31.92h-9.78l-6.24 25.8-5.7-25.8h-10.08l9.72 31.86h3.24c-1.74 4.08-4.02 5.88-10.26 6.66l1.02 6.66c10.02-.54 15.42-5.22 17.94-13.26Zm24.72-32.94c-8.04 0-13.02 4.26-13.02 9.72 0 4.92 3.12 8.16 9.42 9.96 5.76 1.62 6.72 2.28 6.72 4.5 0 1.86-1.74 2.94-4.68 2.94a13.335 13.335 0 0 1-8.34-3.18l-4.68 5.22a19.811 19.811 0 0 0 13.32 4.74c7.92 0 14.16-3.9 14.16-10.5 0-5.7-3.54-8.34-9.84-10.14-5.7-1.68-6.54-2.4-6.54-4.08 0-1.44 1.26-2.4 4.14-2.4a14.031 14.031 0 0 1 7.56 2.52l3.48-5.4a18.538 18.538 0 0 0-11.7-3.9Zm37.74 31.38-3.18-6.06a6.3 6.3 0 0 1-3.42 1.08c-1.98 0-3-1.08-3-4.14v-14.64h6.3l1.02-6.6h-7.32v-7.98l-9.48 1.08v6.9h-4.5v6.6h4.5v14.76c0 7.5 3.42 11.46 10.44 11.52a15.781 15.781 0 0 0 8.64-2.52Zm30.36-15.06c0-10.32-5.58-16.32-14.7-16.32-9.66 0-14.88 7.56-14.88 17.1 0 9.96 5.4 16.8 16.02 16.8a19.589 19.589 0 0 0 12.42-4.44l-3.9-5.28c-2.76 1.92-5.04 2.82-7.62 2.82-3.9 0-6.6-1.56-7.26-7.26h19.74a31.809 31.809 0 0 0 .18-3.42Zm-9.3-2.28h-10.62c.42-5.7 2.28-7.74 5.46-7.74 3.78 0 5.1 3 5.16 7.32Zm49.98-14.04c-4.08 0-7.02 1.68-9.54 5.04a7.562 7.562 0 0 0-7.5-5.04c-3.9 0-6.78 1.62-9.24 4.74l-.66-3.72h-8.28v31.86h9.48v-21.78c1.38-2.64 2.88-4.14 4.86-4.14 1.44 0 2.7.9 2.7 4.26v21.66h9.48v-21.78c1.38-2.64 2.82-4.14 4.86-4.14 1.44 0 2.7.9 2.7 4.26v21.66h9.48v-23.28c0-6.06-3.42-9.6-8.34-9.6Zm43.26 16.32c0-10.32-5.58-16.32-14.7-16.32-9.66 0-14.88 7.56-14.88 17.1 0 9.96 5.4 16.8 16.02 16.8a19.589 19.589 0 0 0 12.42-4.44l-3.9-5.28c-2.76 1.92-5.04 2.82-7.62 2.82-3.9 0-6.6-1.56-7.26-7.26h19.74a31.809 31.809 0 0 0 .18-3.42Zm-9.3-2.28h-10.62c.42-5.7 2.28-7.74 5.46-7.74 3.78 0 5.1 3 5.16 7.32Zm34.74 17.34-3.18-6.06a6.3 6.3 0 0 1-3.42 1.08c-1.98 0-3-1.08-3-4.14v-14.64h6.3l1.02-6.6h-7.32v-7.98l-9.48 1.08v6.9h-4.5v6.6h4.5v14.76c0 7.5 3.42 11.46 10.44 11.52a15.781 15.781 0 0 0 8.64-2.52Z" data-name="Path 1988"/></g></svg>