<svg xmlns="http://www.w3.org/2000/svg" xmlns:xlink="http://www.w3.org/1999/xlink" width="2061" height="1744" viewBox="0 0 2061 1744">
  <defs>
    <filter id="Path_1980" x="208.175" y="1070.02" width="1465.71" height="506.145" filterUnits="userSpaceOnUse">
      <feOffset dy="5" input="SourceAlpha"/>
      <feGaussianBlur stdDeviation="2.5" result="blur"/>
      <feFlood flood-opacity="0.102"/>
      <feComposite operator="in" in2="blur"/>
      <feComposite in="SourceGraphic"/>
    </filter>
    <filter id="Path_1981" x="387.208" y="783.041" width="1120.993" height="483.189" filterUnits="userSpaceOnUse">
      <feOffset dy="5" input="SourceAlpha"/>
      <feGaussianBlur stdDeviation="2.5" result="blur-2"/>
      <feFlood flood-opacity="0.102"/>
      <feComposite operator="in" in2="blur-2"/>
      <feComposite in="SourceGraphic"/>
    </filter>
    <filter id="Path_1983" x="552.8" y="557.025" width="789.714" height="422.229" filterUnits="userSpaceOnUse">
      <feOffset dy="5" input="SourceAlpha"/>
      <feGaussianBlur stdDeviation="2.5" result="blur-3"/>
      <feFlood flood-opacity="0.102"/>
      <feComposite operator="in" in2="blur-3"/>
      <feComposite in="SourceGraphic"/>
    </filter>
    <filter id="Path_1984" x="387.115" y="1070.02" width="1286.77" height="196.211" filterUnits="userSpaceOnUse">
      <feOffset dy="5" input="SourceAlpha"/>
      <feGaussianBlur stdDeviation="2.5" result="blur-4"/>
      <feFlood flood-opacity="0.102"/>
      <feComposite operator="in" in2="blur-4"/>
      <feComposite in="SourceGraphic"/>
    </filter>
    <filter id="Path_1985" x="208.175" y="1356.994" width="1644.65" height="219.17" filterUnits="userSpaceOnUse">
      <feOffset dy="5" input="SourceAlpha"/>
      <feGaussianBlur stdDeviation="2.5" result="blur-5"/>
      <feFlood flood-opacity="0.102"/>
      <feComposite operator="in" in2="blur-5"/>
      <feComposite in="SourceGraphic"/>
    </filter>
    <filter id="Path_1986" x="552.8" y="783.041" width="955.4" height="196.215" filterUnits="userSpaceOnUse">
      <feOffset dy="5" input="SourceAlpha"/>
      <feGaussianBlur stdDeviation="2.5" result="blur-6"/>
      <feFlood flood-opacity="0.102"/>
      <feComposite operator="in" in2="blur-6"/>
      <feComposite in="SourceGraphic"/>
    </filter>
    <filter id="Path_1987" x="718.487" y="149.844" width="624.025" height="542.432" filterUnits="userSpaceOnUse">
      <feOffset dy="5" input="SourceAlpha"/>
      <feGaussianBlur stdDeviation="2.5" result="blur-7"/>
      <feFlood flood-opacity="0.102"/>
      <feComposite operator="in" in2="blur-7"/>
      <feComposite in="SourceGraphic"/>
    </filter>
    <clipPath id="clip-Kognitions-pyramide">
      <rect width="2061" height="1744"/>
    </clipPath>
  </defs>
  <g id="Kognitions-pyramide" clip-path="url(#clip-Kognitions-pyramide)">
    <rect width="2061" height="1744" fill="#f2f2f2"/>
    <g id="Group_1499" data-name="Group 1499" transform="translate(175.83 84.345)">
      <g transform="matrix(1, 0, 0, 1, -175.83, -84.34)" filter="url(#Path_1980)">
        <path id="Path_1980-2" data-name="Path 1980" d="M157.722,592.3l1228.21-286.974,104.622,181.211L39.845,796.471Z" transform="translate(175.83 767.19)" fill="#536477"/>
      </g>
      <g transform="matrix(1, 0, 0, 1, -175.83, -84.34)" filter="url(#Path_1981)">
        <path id="Path_1981-2" data-name="Path 1981" d="M190.643,518.287,1087.387,231.31l104.625,181.215L86.02,699.5Z" transform="translate(308.69 554.23)" fill="#027586"/>
      </g>
      <path id="Path_1982" data-name="Path 1982" d="M276.085,235.78l163.7-105.763H614.8L171.462,416.994Z" transform="translate(378.695 178.438)" fill="#606"/>
      <g transform="matrix(1, 0, 0, 1, -175.83, -84.34)" filter="url(#Path_1983)">
        <path id="Path_1983-2" data-name="Path 1983" d="M233.353,399.031,834.016,173.018l69.426,120.25L128.728,580.247Z" transform="translate(431.57 386.51)" fill="#69a4af"/>
      </g>
      <g transform="matrix(1, 0, 0, 1, -175.83, -84.34)" filter="url(#Path_1984)">
        <path id="Path_1984-2" data-name="Path 1984" d="M1253.144,305.326H190.618L86,486.537h1271.77Z" transform="translate(308.62 767.19)" fill="#6c85a0"/>
      </g>
      <g transform="matrix(1, 0, 0, 1, -175.83, -84.34)" filter="url(#Path_1985)">
        <path id="Path_1985-2" data-name="Path 1985" d="M1669.5,583.512l-117.878-204.17H157.722L39.845,583.512Z" transform="translate(175.83 980.15)" fill="#323f51"/>
      </g>
      <g transform="matrix(1, 0, 0, 1, -175.83, -84.34)" filter="url(#Path_1986)">
        <path id="Path_1986-2" data-name="Path 1986" d="M964.5,231.31H233.353L128.728,412.526h940.4Z" transform="translate(431.57 554.23)" fill="#009cb2"/>
      </g>
      <g transform="matrix(1, 0, 0, 1, -175.83, -84.34)" filter="url(#Path_1987)">
        <path id="Path_1987-2" data-name="Path 1987" d="M675.864,414.219h0L475.975,68,276.085,414.219h0L171.462,595.432H780.488Z" transform="translate(554.53 84.34)" fill="#81bec9"/>
      </g>
      <text id="D" transform="translate(654.399 263.331)" fill="#fff" font-size="150" font-family="BebasNeueBold, Bebas Neue"><tspan x="169.185" y="113">D</tspan></text>
      <text id="C" transform="translate(427.075 729.965)" fill="#fff" font-size="150" font-family="BebasNeueBold, Bebas Neue"><tspan x="109.877" y="113">C</tspan></text>
      <text id="A" transform="translate(168.988 1314.195)" fill="#fff" font-size="150" font-family="BebasNeueBold, Bebas Neue"><tspan x="49.621" y="113">A</tspan></text>
      <line id="Line_135" data-name="Line 135" y2="134.246" transform="translate(707.882 728.763)" fill="none" stroke="#fff" stroke-miterlimit="10" stroke-width="2"/>
      <line id="Line_136" data-name="Line 136" y2="134.246" transform="translate(688.882 424.043)" fill="none" stroke="#fff" stroke-miterlimit="10" stroke-width="2"/>
      <text id="B" transform="translate(260.766 1014.258)" fill="#fff" font-size="150" font-family="BebasNeueBold, Bebas Neue"><tspan x="108.377" y="113">B</tspan></text>
      <line id="Line_137" data-name="Line 137" y2="134.246" transform="translate(538.421 1016.463)" fill="none" stroke="#fff" stroke-miterlimit="10" stroke-width="2"/>
      <line id="Line_138" data-name="Line 138" y2="134.246" transform="translate(389.712 1312.994)" fill="none" stroke="#fff" stroke-miterlimit="10" stroke-width="2"/>
    </g>
    <path id="Path_1991" data-name="Path 1991" d="M13.74,64V22.42H3.9V64ZM24.36,41.08,37.62,22.42H27.24L14.04,41.8,27.3,64H38.7ZM54.3,31.12c-9.72,0-15.6,6.72-15.6,16.92,0,10.74,5.94,16.98,15.6,16.98,9.72,0,15.6-6.72,15.6-16.92C69.9,37.36,64.02,31.12,54.3,31.12Zm0,6.96c3.84,0,5.76,2.94,5.76,10.02,0,6.9-1.92,9.96-5.76,9.96s-5.76-2.94-5.76-10.02C48.54,41.14,50.46,38.08,54.3,38.08Zm56.46-6.96c-4.08,0-7.02,1.68-9.54,5.04a7.562,7.562,0,0,0-7.5-5.04c-3.9,0-6.78,1.62-9.24,4.74l-.66-3.72H75.54V64h9.48V42.22c1.38-2.64,2.88-4.14,4.86-4.14,1.44,0,2.7.9,2.7,4.26V64h9.48V42.22c1.38-2.64,2.82-4.14,4.86-4.14,1.44,0,2.7.9,2.7,4.26V64h9.48V40.72C119.1,34.66,115.68,31.12,110.76,31.12Zm33.3,0a11.514,11.514,0,0,0-9,4.56l-.48-3.54h-8.34V77.32l9.48-1.02V61.72a9.945,9.945,0,0,0,7.74,3.3c7.86,0,12.66-7.2,12.66-17.04C156.12,37.66,152.46,31.12,144.06,31.12Zm-3.48,26.94a5.644,5.644,0,0,1-4.86-2.82V41.8c1.38-2.34,3.24-3.72,5.34-3.72,3.3,0,5.22,2.1,5.22,10.02C146.28,55.24,144.12,58.06,140.58,58.06Zm30.66-3V18.46l-9.48,1.02V56.02c0,5.88,3.12,9,8.4,9a17.155,17.155,0,0,0,6.12-1.08l-1.86-6.72a4.507,4.507,0,0,1-1.56.3C171.84,57.52,171.24,56.86,171.24,55.06Zm35.82-7.62c0-10.32-5.58-16.32-14.7-16.32-9.66,0-14.88,7.56-14.88,17.1,0,9.96,5.4,16.8,16.02,16.8a19.589,19.589,0,0,0,12.42-4.44l-3.9-5.28c-2.76,1.92-5.04,2.82-7.62,2.82-3.9,0-6.6-1.56-7.26-7.26h19.74A31.809,31.809,0,0,0,207.06,47.44Zm-9.3-2.28H187.14c.42-5.7,2.28-7.74,5.46-7.74,3.78,0,5.1,3,5.16,7.32ZM222,64V18.46l-9.48,1.02V64Zm10.02-17.88,9.66-13.98h-9.66L222.3,46.6,231.78,64h10.68Zm24.84-15c-8.04,0-13.02,4.26-13.02,9.72,0,4.92,3.12,8.16,9.42,9.96,5.76,1.62,6.72,2.28,6.72,4.5,0,1.86-1.74,2.94-4.68,2.94a13.335,13.335,0,0,1-8.34-3.18l-4.68,5.22a19.811,19.811,0,0,0,13.32,4.74c7.92,0,14.16-3.9,14.16-10.5,0-5.7-3.54-8.34-9.84-10.14-5.7-1.68-6.54-2.4-6.54-4.08,0-1.44,1.26-2.4,4.14-2.4a14.031,14.031,0,0,1,7.56,2.52l3.48-5.4A18.538,18.538,0,0,0,256.86,31.12ZM302.4,47.44c0-10.32-5.58-16.32-14.7-16.32-9.66,0-14.88,7.56-14.88,17.1,0,9.96,5.4,16.8,16.02,16.8a19.589,19.589,0,0,0,12.42-4.44l-3.9-5.28c-2.76,1.92-5.04,2.82-7.62,2.82-3.9,0-6.6-1.56-7.26-7.26h19.74A31.809,31.809,0,0,0,302.4,47.44Zm-9.3-2.28H282.48c.42-5.7,2.28-7.74,5.46-7.74,3.78,0,5.1,3,5.16,7.32ZM17.52,101.12c-9.72,0-15.6,6.72-15.6,16.92,0,10.74,5.94,16.98,15.6,16.98,9.72,0,15.6-6.72,15.6-16.92C33.12,107.36,27.24,101.12,17.52,101.12Zm0,6.96c3.84,0,5.76,2.94,5.76,10.02,0,6.9-1.92,9.96-5.76,9.96s-5.76-2.94-5.76-10.02C11.76,111.14,13.68,108.08,17.52,108.08Zm39.06-6.96a11.514,11.514,0,0,0-9,4.56l-.48-3.54H38.76v45.18l9.48-1.02V131.72a9.945,9.945,0,0,0,7.74,3.3c7.86,0,12.66-7.2,12.66-17.04C68.64,107.66,64.98,101.12,56.58,101.12ZM53.1,128.06a5.644,5.644,0,0,1-4.86-2.82V111.8c1.38-2.34,3.24-3.72,5.34-3.72,3.3,0,5.22,2.1,5.22,10.02C58.8,125.24,56.64,128.06,53.1,128.06ZM103.92,104l-2.22-7.02a25.232,25.232,0,0,1-15,4.14c-8.34,0-13.98,4.44-13.98,11.64,0,4.14,1.62,6.96,5.7,9.12A7.588,7.588,0,0,0,74.64,128c0,3.42,2.82,6.3,9.78,6.3h4.62c3.18,0,4.56,1.26,4.56,3.12,0,2.04-1.32,3.6-6.9,3.6-5.76,0-6.96-1.2-6.96-3.96H71.22c0,6.3,3.18,10.26,15.24,10.26,10.92,0,16.68-4.02,16.68-10.56,0-5.34-4.74-9.24-12.18-9.24h-4.8c-3.06,0-3.48-.96-3.48-1.92a2.039,2.039,0,0,1,1.02-1.8,17.61,17.61,0,0,0,3.66.36c8.28,0,13.38-4.5,13.38-10.68,0-4.14-1.98-6.48-6-8.22C98.76,105.26,101.7,104.9,103.92,104Zm-16.98,3.36c3.18,0,4.8,1.62,4.8,5.16,0,3.66-1.68,5.52-4.8,5.52-2.88,0-4.8-1.92-4.8-5.4C82.14,109.34,84,107.36,86.94,107.36Zm46.02,17.4V112.4c0-7.38-3.96-11.28-13.2-11.28a35.993,35.993,0,0,0-12,2.34l2.16,6.24a28.7,28.7,0,0,1,8.34-1.68c3.9,0,5.4,1.14,5.4,4.92v1.38h-3.24c-9.66,0-14.94,3.78-14.94,10.74,0,5.82,4.02,9.96,10.38,9.96,3.78,0,7.32-1.26,9.6-4.8,1.44,3.18,3.9,4.32,7.68,4.62l1.98-6.18C133.62,128.12,132.96,127.22,132.96,124.76Zm-14.34,3.48c-2.34,0-3.72-1.5-3.72-4.02,0-3.18,2.1-4.68,6.42-4.68h2.34v5.64A5.676,5.676,0,0,1,118.62,128.24ZM156.96,134l10.02-31.86h-9.66l-5.88,24.66-5.64-24.66H135.48L145.74,134Zm40.56-16.56c0-10.32-5.58-16.32-14.7-16.32-9.66,0-14.88,7.56-14.88,17.1,0,9.96,5.4,16.8,16.02,16.8a19.589,19.589,0,0,0,12.42-4.44l-3.9-5.28c-2.76,1.92-5.04,2.82-7.62,2.82-3.9,0-6.6-1.56-7.26-7.26h19.74A31.809,31.809,0,0,0,197.52,117.44Zm-9.3-2.28H177.6c.42-5.7,2.28-7.74,5.46-7.74,3.78,0,5.1,3,5.16,7.32Zm32.04-13.92c-3.66,0-6.78,2.64-8.22,7.08l-.78-6.18h-8.28V134h9.48V118.22c1.02-4.86,2.64-7.8,6.6-7.8a11.517,11.517,0,0,1,2.88.42l1.5-9.18A10.734,10.734,0,0,0,220.26,101.24Z" transform="translate(896.066 492.461)" fill="#fff"/>
    <path id="Path_1990" data-name="Path 1990" d="M26.22,46.18V64h9.84V22.42H26.22V38.5H13.74V22.42H3.9V64h9.84V46.18ZM70.56,64V32.14H61.08V54.28C59.7,56.68,57.9,58,55.92,58s-3.06-.96-3.06-4.2V32.14H43.38V55c0,6.18,2.94,10.02,8.88,10.02a11.027,11.027,0,0,0,9.66-5.04L62.34,64Zm16.92,0V18.46L78,19.48V64ZM97.5,46.12l9.66-13.98H97.5L87.78,46.6,97.26,64h10.68Zm26.46-15c-9.72,0-15.6,6.72-15.6,16.92,0,10.74,5.94,16.98,15.6,16.98,9.72,0,15.6-6.72,15.6-16.92C139.56,37.36,133.68,31.12,123.96,31.12Zm0,6.96c3.84,0,5.76,2.94,5.76,10.02,0,6.9-1.92,9.96-5.76,9.96s-5.76-2.94-5.76-10.02C118.2,41.14,120.12,38.08,123.96,38.08Zm56.46-6.96c-4.08,0-7.02,1.68-9.54,5.04a7.562,7.562,0,0,0-7.5-5.04c-3.9,0-6.78,1.62-9.24,4.74l-.66-3.72H145.2V64h9.48V42.22c1.38-2.64,2.88-4.14,4.86-4.14,1.44,0,2.7.9,2.7,4.26V64h9.48V42.22c1.38-2.64,2.82-4.14,4.86-4.14,1.44,0,2.7.9,2.7,4.26V64h9.48V40.72C188.76,34.66,185.34,31.12,180.42,31.12Zm50.7,0c-4.08,0-7.02,1.68-9.54,5.04a7.562,7.562,0,0,0-7.5-5.04c-3.9,0-6.78,1.62-9.24,4.74l-.66-3.72H195.9V64h9.48V42.22c1.38-2.64,2.88-4.14,4.86-4.14,1.44,0,2.7.9,2.7,4.26V64h9.48V42.22c1.38-2.64,2.82-4.14,4.86-4.14,1.44,0,2.7.9,2.7,4.26V64h9.48V40.72C239.46,34.66,236.04,31.12,231.12,31.12Zm43.26,16.32c0-10.32-5.58-16.32-14.7-16.32-9.66,0-14.88,7.56-14.88,17.1,0,9.96,5.4,16.8,16.02,16.8a19.589,19.589,0,0,0,12.42-4.44l-3.9-5.28c-2.76,1.92-5.04,2.82-7.62,2.82-3.9,0-6.6-1.56-7.26-7.26H274.2A31.809,31.809,0,0,0,274.38,47.44Zm-9.3-2.28H254.46c.42-5.7,2.28-7.74,5.46-7.74,3.78,0,5.1,3,5.16,7.32Zm23.94,9.9V18.46l-9.48,1.02V56.02c0,5.88,3.12,9,8.4,9a17.155,17.155,0,0,0,6.12-1.08l-1.86-6.72a4.507,4.507,0,0,1-1.56.3C289.62,57.52,289.02,56.86,289.02,55.06Zm19.86-23.94c-8.04,0-13.02,4.26-13.02,9.72,0,4.92,3.12,8.16,9.42,9.96,5.76,1.62,6.72,2.28,6.72,4.5,0,1.86-1.74,2.94-4.68,2.94a13.335,13.335,0,0,1-8.34-3.18l-4.68,5.22a19.811,19.811,0,0,0,13.32,4.74c7.92,0,14.16-3.9,14.16-10.5,0-5.7-3.54-8.34-9.84-10.14-5.7-1.68-6.54-2.4-6.54-4.08,0-1.44,1.26-2.4,4.14-2.4a14.031,14.031,0,0,1,7.56,2.52l3.48-5.4A18.538,18.538,0,0,0,308.88,31.12Zm45.54,16.32c0-10.32-5.58-16.32-14.7-16.32-9.66,0-14.88,7.56-14.88,17.1,0,9.96,5.4,16.8,16.02,16.8a19.589,19.589,0,0,0,12.42-4.44l-3.9-5.28c-2.76,1.92-5.04,2.82-7.62,2.82-3.9,0-6.6-1.56-7.26-7.26h19.74A31.809,31.809,0,0,0,354.42,47.44Zm-9.3-2.28H334.5c.42-5.7,2.28-7.74,5.46-7.74,3.78,0,5.1,3,5.16,7.32Z" transform="translate(952.066 843.461)" fill="#fff"/>
    <path id="Path_1989" data-name="Path 1989" d="M20.7,21.4C9,21.4,1.98,29.62,1.98,43.18,1.98,57.04,9,65.02,20.7,65.02c11.76,0,18.78-8.22,18.78-21.84C39.48,29.32,32.46,21.4,20.7,21.4Zm0,7.2c5.58,0,8.46,4.08,8.46,14.58,0,10.56-2.82,14.64-8.46,14.64-5.4,0-8.4-4.08-8.4-14.64C12.3,32.68,15.18,28.6,20.7,28.6ZM63,31.12a11.514,11.514,0,0,0-9,4.56l-.48-3.54H45.18V77.32l9.48-1.02V61.72a9.945,9.945,0,0,0,7.74,3.3c7.86,0,12.66-7.2,12.66-17.04C75.06,37.66,71.4,31.12,63,31.12ZM59.52,58.06a5.644,5.644,0,0,1-4.86-2.82V41.8c1.38-2.34,3.24-3.72,5.34-3.72,3.3,0,5.22,2.1,5.22,10.02C65.22,55.24,63.06,58.06,59.52,58.06Zm56.7-26.94c-4.08,0-7.02,1.68-9.54,5.04a7.562,7.562,0,0,0-7.5-5.04c-3.9,0-6.78,1.62-9.24,4.74l-.66-3.72H81V64h9.48V42.22c1.38-2.64,2.88-4.14,4.86-4.14,1.44,0,2.7.9,2.7,4.26V64h9.48V42.22c1.38-2.64,2.82-4.14,4.86-4.14,1.44,0,2.7.9,2.7,4.26V64h9.48V40.72C124.56,34.66,121.14,31.12,116.22,31.12Zm61.44,16.32c0-10.32-5.64-16.32-14.4-16.32a12.064,12.064,0,0,0-9.36,4.02c-1.86-2.46-4.86-4.02-9.72-4.02a35.993,35.993,0,0,0-12,2.34l2.16,6.3a28.7,28.7,0,0,1,8.34-1.68c3.9,0,5.4,1.2,5.4,4.92v1.32h-3.24c-9.9,0-15.3,3.78-15.3,10.74,0,5.82,4.02,9.96,10.62,9.96,4.44,0,8.4-1.38,11.28-5.46,2.64,3.36,6.9,5.46,12.66,5.46a19.589,19.589,0,0,0,12.42-4.44l-3.9-5.28c-2.76,1.92-5.04,2.82-7.62,2.82-3.96,0-6.66-1.56-7.26-7.26h19.74A31.809,31.809,0,0,0,177.66,47.44Zm-9.36-2.28H157.74c.42-5.7,2.28-7.74,5.4-7.74,3.78,0,5.16,3,5.16,7.32ZM143.16,58.24c-2.34,0-3.6-1.44-3.6-3.84,0-3.3,2.04-4.68,6.24-4.68h2.4v.24a17.621,17.621,0,0,0,.66,4.44C147.24,56.8,145.56,58.24,143.16,58.24Zm57.24-27c-3.66,0-6.78,2.64-8.22,7.08l-.78-6.18h-8.28V64h9.48V48.22c1.02-4.86,2.64-7.8,6.6-7.8a11.517,11.517,0,0,1,2.88.42l1.5-9.18A10.733,10.733,0,0,0,200.4,31.24ZM216.66,64V18.46l-9.48,1.02V64Zm10.02-17.88,9.66-13.98h-9.66L216.96,46.6,226.44,64h10.68Zm24.84-15c-8.04,0-13.02,4.26-13.02,9.72,0,4.92,3.12,8.16,9.42,9.96,5.76,1.62,6.72,2.28,6.72,4.5,0,1.86-1.74,2.94-4.68,2.94a13.335,13.335,0,0,1-8.34-3.18l-4.68,5.22a19.811,19.811,0,0,0,13.32,4.74c7.92,0,14.16-3.9,14.16-10.5,0-5.7-3.54-8.34-9.84-10.14-5.7-1.68-6.54-2.4-6.54-4.08,0-1.44,1.26-2.4,4.14-2.4a14.031,14.031,0,0,1,7.56,2.52l3.48-5.4A18.538,18.538,0,0,0,251.52,31.12Zm31.56,0c-9.72,0-15.6,6.72-15.6,16.92,0,10.74,5.94,16.98,15.6,16.98,9.72,0,15.6-6.72,15.6-16.92C298.68,37.36,292.8,31.12,283.08,31.12Zm0,6.96c3.84,0,5.76,2.94,5.76,10.02,0,6.9-1.92,9.96-5.76,9.96s-5.76-2.94-5.76-10.02C277.32,41.14,279.24,38.08,283.08,38.08Zm56.46-6.96c-4.08,0-7.02,1.68-9.54,5.04a7.562,7.562,0,0,0-7.5-5.04c-3.9,0-6.78,1.62-9.24,4.74l-.66-3.72h-8.28V64h9.48V42.22c1.38-2.64,2.88-4.14,4.86-4.14,1.44,0,2.7.9,2.7,4.26V64h9.48V42.22c1.38-2.64,2.82-4.14,4.86-4.14,1.44,0,2.7.9,2.7,4.26V64h9.48V40.72C347.88,34.66,344.46,31.12,339.54,31.12Zm34.14,0a11.614,11.614,0,0,0-9.18,4.44V18.52l-9.48.96V64h9.48V42.16c1.68-2.58,3.42-4.08,5.52-4.08,1.8,0,3,.9,3,4.26V64h9.48V40.72C382.5,34.66,379.2,31.12,373.68,31.12Zm43.74,16.32c0-10.32-5.58-16.32-14.7-16.32-9.66,0-14.88,7.56-14.88,17.1,0,9.96,5.4,16.8,16.02,16.8a19.589,19.589,0,0,0,12.42-4.44l-3.9-5.28c-2.76,1.92-5.04,2.82-7.62,2.82-3.9,0-6.6-1.56-7.26-7.26h19.74A31.809,31.809,0,0,0,417.42,47.44Zm-9.3-2.28H397.5c.42-5.7,2.28-7.74,5.46-7.74,3.78,0,5.1,3,5.16,7.32Zm43.32-25.68-9.48-1.02V34.12a10.325,10.325,0,0,0-7.38-3c-8.22,0-13.2,7.02-13.2,16.86,0,10.32,4.02,17.04,12.12,17.04a10.625,10.625,0,0,0,9.06-4.74l.48,3.72h8.4ZM436.5,58.06c-3.12,0-5.28-2.1-5.28-10.02,0-7.14,2.4-10.02,5.82-10.02,2.1,0,3.48,1.02,4.92,2.7V54.46C440.46,56.86,438.72,58.06,436.5,58.06Z" transform="translate(791.325 1128.461)" fill="#fff"/>
    <path id="Path_1988" data-name="Path 1988" d="M23.64,55.06,25.8,64H36.24L23.7,22.42H11.76L-.78,64H9.42l2.1-8.94Zm-1.68-7.14H13.2l4.38-18.36ZM48.6,64V18.46l-9.48,1.02V64ZM58.62,46.12l9.66-13.98H58.62L48.9,46.6,58.38,64H69.06ZM92.22,62.5l-3.18-6.06a6.3,6.3,0,0,1-3.42,1.08c-1.98,0-3-1.08-3-4.14V38.74h6.3l1.02-6.6H82.62V24.16l-9.48,1.08v6.9h-4.5v6.6h4.5V53.5c0,7.5,3.42,11.46,10.44,11.52A15.781,15.781,0,0,0,92.22,62.5Zm7.86-47.16a5.405,5.405,0,1,0,5.64,5.4A5.313,5.313,0,0,0,100.08,15.34ZM104.88,64V32.14H95.4V64Zm24.84,0,10.02-31.86h-9.66L124.2,56.8l-5.64-24.66H108.24L118.5,64Zm40.56-16.56c0-10.32-5.58-16.32-14.7-16.32-9.66,0-14.88,7.56-14.88,17.1,0,9.96,5.4,16.8,16.02,16.8a19.589,19.589,0,0,0,12.42-4.44l-3.9-5.28c-2.76,1.92-5.04,2.82-7.62,2.82-3.9,0-6.6-1.56-7.26-7.26H170.1A31.809,31.809,0,0,0,170.28,47.44Zm-9.3-2.28H150.36c.42-5.7,2.28-7.74,5.46-7.74,3.78,0,5.1,3,5.16,7.32Zm32.04-13.92c-3.66,0-6.78,2.64-8.22,7.08l-.78-6.18h-8.28V64h9.48V48.22c1.02-4.86,2.64-7.8,6.6-7.8a11.517,11.517,0,0,1,2.88.42l1.5-9.18A10.734,10.734,0,0,0,193.02,31.24Zm11.46-15.9a5.405,5.405,0,1,0,5.64,5.4A5.313,5.313,0,0,0,204.48,15.34ZM209.28,64V32.14H199.8V64Zm26.1-32.88c-3.96,0-7.02,1.62-9.72,4.8L225,32.14h-8.28V64h9.48V42.22c1.68-2.64,3.42-4.14,5.52-4.14,1.86,0,3,.9,3,4.26V64h9.48V40.72C244.2,34.66,240.9,31.12,235.38,31.12ZM280.68,34l-2.22-7.02a25.233,25.233,0,0,1-15,4.14c-8.34,0-13.98,4.44-13.98,11.64,0,4.14,1.62,6.96,5.7,9.12A7.588,7.588,0,0,0,251.4,58c0,3.42,2.82,6.3,9.78,6.3h4.62c3.18,0,4.56,1.26,4.56,3.12,0,2.04-1.32,3.6-6.9,3.6-5.76,0-6.96-1.2-6.96-3.96h-8.52c0,6.3,3.18,10.26,15.24,10.26,10.92,0,16.68-4.02,16.68-10.56,0-5.34-4.74-9.24-12.18-9.24h-4.8c-3.06,0-3.48-.96-3.48-1.92a2.039,2.039,0,0,1,1.02-1.8,17.609,17.609,0,0,0,3.66.36c8.28,0,13.38-4.5,13.38-10.68,0-4.14-1.98-6.48-6-8.22C275.52,35.26,278.46,34.9,280.68,34ZM263.7,37.36c3.18,0,4.8,1.62,4.8,5.16,0,3.66-1.68,5.52-4.8,5.52-2.88,0-4.8-1.92-4.8-5.4C258.9,39.34,260.76,37.36,263.7,37.36Zm60.24,17.4V42.4c0-7.38-3.96-11.28-13.2-11.28a35.993,35.993,0,0,0-12,2.34l2.16,6.24a28.7,28.7,0,0,1,8.34-1.68c3.9,0,5.4,1.14,5.4,4.92v1.38H311.4c-9.66,0-14.94,3.78-14.94,10.74,0,5.82,4.02,9.96,10.38,9.96,3.78,0,7.32-1.26,9.6-4.8,1.44,3.18,3.9,4.32,7.68,4.62l1.98-6.18C324.6,58.12,323.94,57.22,323.94,54.76ZM309.6,58.24c-2.34,0-3.72-1.5-3.72-4.02,0-3.18,2.1-4.68,6.42-4.68h2.34v5.64A5.676,5.676,0,0,1,309.6,58.24Zm36.48-32.76a11.319,11.319,0,0,1,4.98,1.2l2.58-6.18a19.387,19.387,0,0,0-8.7-2.04c-8.16,0-12.18,4.74-12.18,10.86v2.82h-4.8v6.6h4.8V64h9.48V38.74h6.48l1.02-6.6h-7.5V29.68C342.24,26.68,343.32,25.48,346.08,25.48Zm39.66,5.64c-3.96,0-7.02,1.62-9.72,4.8l-.66-3.78h-8.28V64h9.48V42.22c1.68-2.64,3.42-4.14,5.52-4.14,1.86,0,3,.9,3,4.26V64h9.48V40.72C394.56,34.66,391.26,31.12,385.74,31.12Zm43.74,16.32c0-10.32-5.58-16.32-14.7-16.32-9.66,0-14.88,7.56-14.88,17.1,0,9.96,5.4,16.8,16.02,16.8a19.589,19.589,0,0,0,12.42-4.44l-3.9-5.28c-2.76,1.92-5.04,2.82-7.62,2.82-3.9,0-6.6-1.56-7.26-7.26H429.3A31.809,31.809,0,0,0,429.48,47.44Zm-9.3-2.28H409.56c.42-5.7,2.28-7.74,5.46-7.74,3.78,0,5.1,3,5.16,7.32Zm32.04-13.92c-3.66,0-6.78,2.64-8.22,7.08l-.78-6.18h-8.28V64h9.48V48.22c1.02-4.86,2.64-7.8,6.6-7.8a11.517,11.517,0,0,1,2.88.42l1.5-9.18A10.733,10.733,0,0,0,452.22,31.24ZM477.78,64,487.8,32.14h-9.66L472.26,56.8l-5.64-24.66H456.3L466.56,64Zm40.56-16.56c0-10.32-5.58-16.32-14.7-16.32-9.66,0-14.88,7.56-14.88,17.1,0,9.96,5.4,16.8,16.02,16.8a19.589,19.589,0,0,0,12.42-4.44l-3.9-5.28c-2.76,1.92-5.04,2.82-7.62,2.82-3.9,0-6.6-1.56-7.26-7.26h19.74A31.809,31.809,0,0,0,518.34,47.44Zm-9.3-2.28H498.42c.42-5.7,2.28-7.74,5.46-7.74,3.78,0,5.1,3,5.16,7.32Zm25.98-14.04c-8.04,0-13.02,4.26-13.02,9.72,0,4.92,3.12,8.16,9.42,9.96,5.76,1.62,6.72,2.28,6.72,4.5,0,1.86-1.74,2.94-4.68,2.94a13.335,13.335,0,0,1-8.34-3.18l-4.68,5.22a19.811,19.811,0,0,0,13.32,4.74c7.92,0,14.16-3.9,14.16-10.5,0-5.7-3.54-8.34-9.84-10.14-5.7-1.68-6.54-2.4-6.54-4.08,0-1.44,1.26-2.4,4.14-2.4a14.031,14.031,0,0,1,7.56,2.52l3.48-5.4A18.538,18.538,0,0,0,535.02,31.12Zm34.74,32.94L579.9,32.14h-9.78l-6.24,25.8-5.7-25.8H548.1L557.82,64h3.24c-1.74,4.08-4.02,5.88-10.26,6.66l1.02,6.66C561.84,76.78,567.24,72.1,569.76,64.06Zm24.72-32.94c-8.04,0-13.02,4.26-13.02,9.72,0,4.92,3.12,8.16,9.42,9.96,5.76,1.62,6.72,2.28,6.72,4.5,0,1.86-1.74,2.94-4.68,2.94a13.335,13.335,0,0,1-8.34-3.18l-4.68,5.22a19.811,19.811,0,0,0,13.32,4.74c7.92,0,14.16-3.9,14.16-10.5,0-5.7-3.54-8.34-9.84-10.14-5.7-1.68-6.54-2.4-6.54-4.08,0-1.44,1.26-2.4,4.14-2.4a14.031,14.031,0,0,1,7.56,2.52l3.48-5.4A18.538,18.538,0,0,0,594.48,31.12ZM632.22,62.5l-3.18-6.06a6.3,6.3,0,0,1-3.42,1.08c-1.98,0-3-1.08-3-4.14V38.74h6.3l1.02-6.6h-7.32V24.16l-9.48,1.08v6.9h-4.5v6.6h4.5V53.5c0,7.5,3.42,11.46,10.44,11.52A15.781,15.781,0,0,0,632.22,62.5Zm30.36-15.06c0-10.32-5.58-16.32-14.7-16.32-9.66,0-14.88,7.56-14.88,17.1,0,9.96,5.4,16.8,16.02,16.8a19.589,19.589,0,0,0,12.42-4.44l-3.9-5.28c-2.76,1.92-5.04,2.82-7.62,2.82-3.9,0-6.6-1.56-7.26-7.26H662.4A31.809,31.809,0,0,0,662.58,47.44Zm-9.3-2.28H642.66c.42-5.7,2.28-7.74,5.46-7.74,3.78,0,5.1,3,5.16,7.32Zm49.98-14.04c-4.08,0-7.02,1.68-9.54,5.04a7.562,7.562,0,0,0-7.5-5.04c-3.9,0-6.78,1.62-9.24,4.74l-.66-3.72h-8.28V64h9.48V42.22c1.38-2.64,2.88-4.14,4.86-4.14,1.44,0,2.7.9,2.7,4.26V64h9.48V42.22c1.38-2.64,2.82-4.14,4.86-4.14,1.44,0,2.7.9,2.7,4.26V64h9.48V40.72C711.6,34.66,708.18,31.12,703.26,31.12Zm43.26,16.32c0-10.32-5.58-16.32-14.7-16.32-9.66,0-14.88,7.56-14.88,17.1,0,9.96,5.4,16.8,16.02,16.8a19.589,19.589,0,0,0,12.42-4.44l-3.9-5.28c-2.76,1.92-5.04,2.82-7.62,2.82-3.9,0-6.6-1.56-7.26-7.26h19.74A31.809,31.809,0,0,0,746.52,47.44Zm-9.3-2.28H726.6c.42-5.7,2.28-7.74,5.46-7.74,3.78,0,5.1,3,5.16,7.32ZM771.96,62.5l-3.18-6.06a6.3,6.3,0,0,1-3.42,1.08c-1.98,0-3-1.08-3-4.14V38.74h6.3l1.02-6.6h-7.32V24.16l-9.48,1.08v6.9h-4.5v6.6h4.5V53.5c0,7.5,3.42,11.46,10.44,11.52A15.781,15.781,0,0,0,771.96,62.5Z" transform="translate(658.566 1427.461)" fill="#fff"/>
  </g>
</svg>
