<svg width="193.082" height="202.496" data-name="Group 816" xmlns="http://www.w3.org/2000/svg"><path fill="#e79e17" d="M116.824 56.592c23.975 14.406 32.612 44.055 19.29 66.224s-27.205 28.562-73.134 10.689c-23.974-14.405-.707-64.84-.707-64.84s30.577-26.478 54.551-12.073Z" data-name="Path 442"/><rect width="55.07" height="8.472" fill="#e79e17" data-name="Rectangle 157" rx="4" transform="rotate(37 -29.848 32.698)"/><rect width="62.13" height="11.296" fill="#e79e17" data-name="Rectangle 160" rx="4" transform="rotate(37 -125.223 273.38)"/><rect width="49.422" height="8.472" fill="#e79e17" data-name="Rectangle 161" rx="4" transform="rotate(74.99 -42.893 149.975)"/><rect width="49.422" height="8.472" fill="#e79e17" data-name="Rectangle 162" rx="4" transform="scale(-1) rotate(-77 -67.293 82.15)"/><rect width="62.13" height="8.472" fill="#e79e17" data-name="Rectangle 158" rx="4" transform="rotate(-35.02 269.131 84.865)"/><rect width="60.718" height="8.472" fill="#e79e17" data-name="Rectangle 159" rx="4" transform="rotate(-35.02 181.144 -184.143)"/></svg>