<svg xmlns="http://www.w3.org/2000/svg" width="577.736" height="1291.095" viewBox="0 0 577.736 1291.095">
  <g id="Group_831" data-name="Group 831" transform="translate(11323.494 -3252.355)">
    <g id="Path_1219" data-name="Path 1219" transform="translate(-11266.157 3849.56)" fill="#fff">
      <path d="M 427.6204528808594 378.0745849609375 C 424.7087707519531 378.0745849609375 421.7630310058594 377.6976013183594 418.8649291992188 376.9541625976562 C 416.3600158691406 376.3115844726562 413.8141784667969 375.3750915527344 411.298095703125 374.1708374023438 C 406.5978698730469 371.9210815429688 402.876953125 369.1871643066406 400.1600341796875 367.1910095214844 C 399.1127624511719 366.4216003417969 398.2083435058594 365.757080078125 397.4130249023438 365.2440795898438 C 396.2926025390625 364.5213317871094 394.9248657226562 363.7827453613281 393.26123046875 363.7675170898438 L 44.1131477355957 359.5980834960938 C 43.60401916503906 359.2424621582031 42.48739624023438 358.3531188964844 40.5551872253418 356.3031616210938 C 38.33402252197266 353.9465026855469 35.6715202331543 350.718017578125 32.85577011108398 346.9666748046875 C 28.12993812561035 340.6706848144531 20.60560417175293 329.7691650390625 11.59768772125244 313.5894165039062 C 2.839354753494263 297.8579406738281 -5.259811878204346 280.8425903320312 -12.47481155395508 263.0160827636719 C -20.96988487243652 242.0267639160156 -28.09378242492676 220.2222290039062 -33.65088272094727 198.2021179199219 C -33.72895431518555 197.5104064941406 -33.91035842895508 196.4141235351562 -34.29406356811523 194.1194305419922 C -35.18906021118164 188.7664184570312 -36.85506057739258 178.8024291992188 -38.32072830200195 166.0477600097656 C -40.1149787902832 150.4336700439453 -41.04631042480469 135.4975891113281 -41.08872985839844 121.6543426513672 C -41.14447784423828 103.4674224853516 -39.66147994995117 87.16292572021484 -36.68106079101562 73.19384002685547 C -34.97222900390625 65.18467712402344 -32.7433967590332 57.83834075927734 -30.05647850036621 51.3590087890625 C -27.1784782409668 44.41892623901367 -23.70356178283691 38.30250930786133 -19.72822952270508 33.17959213256836 C -17.37756156921387 30.15042495727539 -14.80064487457275 27.4034252166748 -12.06897830963135 25.01484298706055 C -9.244562149047852 22.54517555236816 -6.171228408813477 20.38584327697754 -2.934228658676147 18.59692573547363 C 0.4316880404949188 16.73684310913086 4.076271533966064 15.2208423614502 7.898437976837158 14.09117603302002 C 11.89485454559326 12.91000938415527 16.20327186584473 12.11609268188477 20.70402145385742 11.73142623901367 C 22.62863731384277 11.56693267822266 101.0412216186523 5.984208106994629 104.9207763671875 5.709343433380127 C 158.6285095214844 5.179656028747559 194.0448150634766 3.057839155197144 219.9146118164062 1.508092522621155 C 236.1988525390625 0.5325925350189209 249.0611877441406 -0.2379074692726135 260.3639526367188 -0.2379074692726135 C 267.6354370117188 -0.2379074692726135 273.8961181640625 0.07225919514894485 280.0665283203125 0.7381758689880371 C 286.5286865234375 1.435509204864502 293.0400085449219 2.556675910949707 299.9726867675781 4.165759086608887 C 306.9598693847656 5.787425994873047 314.7100219726562 7.982009410858154 323.6658630371094 10.87484264373779 C 332.2486877441406 13.64717578887939 342.0482788085938 17.08434295654297 354.5056762695312 21.69184303283691 C 377.1712646484375 30.07492637634277 397.2489318847656 37.62025833129883 413.4214477539062 45.06925964355469 C 421.3817749023438 48.73584365844727 428.07177734375 52.2305908203125 433.873779296875 55.75334167480469 C 439.9166870117188 59.42242431640625 445.0621032714844 63.15800857543945 449.6040344238281 67.17359161376953 C 454.2000122070312 71.23692321777344 458.1848449707031 75.59217834472656 461.7861022949219 80.48825836181641 C 465.3841857910156 85.37984466552734 468.5991821289062 90.81050872802734 471.6146850585938 97.09059143066406 C 477.2602844238281 108.8480072021484 482.3034362792969 123.7809295654297 487.9668579101562 145.5094299316406 C 493.4300231933594 166.4700164794922 497.1541748046875 183.6125946044922 499.68701171875 199.458251953125 C 502.8449401855469 219.2143402099609 504.1298522949219 236.8895874023438 503.6152648925781 253.4940032958984 C 503.33203125 262.6342468261719 502.4790344238281 271.5552673339844 501.0799255371094 280.0090942382812 C 499.6011047363281 288.9445190429688 497.461181640625 297.66943359375 494.7195129394531 305.9413452148438 C 491.8390197753906 314.6321716308594 488.1986083984375 323.1128540039062 483.8995361328125 331.1475830078125 C 479.4252624511719 339.5097045898438 474.0939636230469 347.6575317382812 468.0526123046875 355.366943359375 C 460.5997619628906 363.5845642089844 453.088623046875 369.6539306640625 445.7263488769531 373.4071655273438 C 442.5281982421875 375.0375061035156 439.3045959472656 376.2556762695312 436.1452026367188 377.0277709960938 C 433.3027648925781 377.7223510742188 430.4346923828125 378.0745849609375 427.6204528808594 378.0745849609375 Z" stroke="none"/>
      <path d="M 260.3639526367188 4.7620849609375 C 249.2107696533203 4.7620849609375 236.4143524169922 5.5286865234375 220.2135162353516 6.499176025390625 C 194.2673492431641 8.053436279296875 158.7327575683594 10.18209838867188 105.4102783203125 10.68716430664062 C 103.2130126953125 10.83941650390625 23.55511474609375 16.51318359375 21.12985229492188 16.7132568359375 C 5.453765869140625 18.05300903320312 -6.618896484375 24.44192504882812 -15.778076171875 36.24493408203125 C -36.91665649414062 63.48541259765625 -41.74105834960938 119.2601623535156 -29.36248779296875 193.2948455810547 C -29.1129150390625 194.7876586914062 -28.93182373046875 196.016357421875 -28.808837890625 196.9550476074219 C -5.9608154296875 287.5155944824219 35.98928833007812 345.6333923339844 45.88998413085938 354.6190185546875 L 393.2086181640625 358.7672729492188 C 397.1394348144531 358.7672729492188 399.7788696289062 360.7065124511719 403.1204223632812 363.1616821289062 C 408.1665954589844 366.8692626953125 416.6123657226562 373.0745849609375 427.6204223632812 373.0745849609375 C 439.3494262695312 373.0745849609375 451.7442016601562 365.9453430175781 464.0121765136719 352.4163513183594 C 511.9933471679688 291.3148498535156 501.5554504394531 217.4693450927734 483.1285095214844 146.7705078125 C 462.8846740722656 69.1019287109375 446.7191772460938 61.12899780273438 352.7711791992188 26.38143920898438 C 306.3367919921875 9.207183837890625 287.3370971679688 4.7620849609375 260.3639526367188 4.7620849609375 M 260.3639526367188 -5.237884521484375 C 288.658935546875 -5.237884521484375 308.7479248046875 -0.5631103515625 356.2401123046875 17.00234985351562 C 453.2615966796875 52.88668823242188 471.4989318847656 62.50350952148438 492.80517578125 144.2483367919922 C 511.426513671875 215.6928405761719 523.313720703125 293.0905151367188 471.8771057128906 358.5924377441406 C 454.9271850585938 377.3342895507812 439.8993530273438 383.0745849609375 427.6204223632812 383.0745849609375 C 408.227783203125 383.0745849609375 395.6854858398438 368.7672729492188 393.2086181640625 368.7672729492188 L 43.23818969726562 364.5880126953125 C 36.28720092773438 364.5880126953125 -13.31414794921875 299.5689086914062 -38.59890747070312 199.0285949707031 C -38.59890747070312 194.742919921875 -77.05111694335938 15.06802368164062 20.27825927734375 6.749603271484375 C 22.23052978515625 6.582763671875 102.5115966796875 0.864013671875 104.7192687988281 0.711090087890625 C 192.4226226806641 -0.14862060546875 230.8553466796875 -5.237884521484375 260.3639526367188 -5.237884521484375 Z" stroke="none" fill="#323f51"/>
    </g>
    <g id="Group_829" data-name="Group 829" transform="translate(-10877.128 4090.709)">
      <line id="Line_34" data-name="Line 34" y1="39.794" x2="7.974" transform="translate(72.911 244.057)" fill="none" stroke="#485c74" stroke-linecap="round" stroke-width="30"/>
      <path id="Path_820" data-name="Path 820" d="M579.945,369.024s17.133-203.246-82.958-232.948" transform="translate(-496.987 -136.076)" fill="none" stroke="#5babb6" stroke-linecap="square" stroke-width="30"/>
    </g>
    <g id="Group_830" data-name="Group 830" transform="translate(-11267.893 4090.709)">
      <line id="Line_35" data-name="Line 35" x1="7.974" y1="39.794" transform="translate(3.189 244.057)" fill="none" stroke="#485c74" stroke-linecap="round" stroke-width="30"/>
      <path id="Path_821" data-name="Path 821" d="M441.741,369.024S424.609,165.779,524.7,136.076" transform="translate(-440.627 -136.076)" fill="none" stroke="#5babb6" stroke-linecap="square" stroke-width="30"/>
    </g>
    <path id="Path_1218" data-name="Path 1218" d="M581.755,120.116c-43.2,23.955-69.376,69.847-87.929,115.614a632.314,632.314,0,0,0-44.991,274.327c1.081,17.964,3.071,36.386,11.336,52.375,10.483,20.294,30,34.487,50.454,44.658,38.82,19.316,82.584,26.624,125.883,28.954,36.81,1.976,74.617.367,108.966-13.007s65-40.1,75.726-75.38c6.351-20.863,5.464-43.16,4.521-64.952q-1.394-32.188-2.787-64.363c-2.482-57.457-5.158-115.92-24.461-170.1S740.363,143.856,685.985,125.157c-17.313-5.963-38.4-20.017-56.472-17.042-39.229,6.455-20.6,2.33-47.757,12" transform="translate(-11666.463 3786.303)" fill="#6ac0d0"/>
    <circle id="Ellipse_117" data-name="Ellipse 117" cx="11.729" cy="11.729" r="11.729" transform="translate(-11014.067 4031.006)" fill="none" stroke="#4d5c70" stroke-linecap="round" stroke-miterlimit="10" stroke-width="5"/>
    <circle id="Ellipse_118" data-name="Ellipse 118" cx="4.133" cy="4.133" r="4.133" transform="translate(-11006.49 4038.602)" fill="#4d5c70"/>
    <circle id="Ellipse_119" data-name="Ellipse 119" cx="11.729" cy="11.729" r="11.729" transform="translate(-11087.379 4031.006)" fill="none" stroke="#4d5c70" stroke-linecap="round" stroke-miterlimit="10" stroke-width="5"/>
    <circle id="Ellipse_120" data-name="Ellipse 120" cx="4.133" cy="4.133" r="4.133" transform="translate(-11079.801 4038.602)" fill="#4d5c70"/>
    <path id="Path_1220" data-name="Path 1220" d="M532.35,142.786a132.863,132.863,0,0,0-13.215-2.808,56.175,56.175,0,0,0-28.947,3.189,43.187,43.187,0,0,0-21.757,18.991" transform="translate(-11543.549 3974.117)" fill="none" stroke="#4d5c70" stroke-linecap="round" stroke-miterlimit="10" stroke-width="5"/>
    <path id="Path_1221" data-name="Path 1221" d="M559.5,131.559l6.67,32.185,4.454,31.781-59.642-4.636-21.642-42.924Z" transform="translate(-11419.505 3927.831)" fill="#6ac0d0"/>
    <path id="Path_1224" data-name="Path 1224" d="M477.689,124.343c9.215,1.928,16.12,6.829,22.977,13.118" transform="translate(-11488.618 3885.017)" fill="none" stroke="#4d5c70" stroke-linecap="round" stroke-miterlimit="10" stroke-width="5"/>
    <path id="Path_1225" data-name="Path 1225" d="M489.277,124.343c-9.214,1.928-16.113,6.829-22.977,13.118" transform="translate(-11556.193 3885.017)" fill="none" stroke="#4d5c70" stroke-linecap="round" stroke-miterlimit="10" stroke-width="5"/>
    <path id="Path_1222" data-name="Path 1222" d="M477.675,132.158c5.789,1.941,11.336,1.38,17.341,0" transform="translate(-11488.701 3931.386)" fill="none" stroke="#4d5c70" stroke-linecap="round" stroke-miterlimit="10" stroke-width="5"/>
    <path id="Path_1223" data-name="Path 1223" d="M467.1,132.158c5.8,1.941,11.343,1.38,17.34,0" transform="translate(-11551.441 3931.386)" fill="none" stroke="#4d5c70" stroke-linecap="round" stroke-miterlimit="10" stroke-width="5"/>
    <g id="Group_828" data-name="Group 828" transform="translate(-11318.477 4208.49)">
      <path id="Path_829" data-name="Path 829" d="M431.508,444.442s-25.038-146.011-19.82-219.626,96.78-108.26,211.782-109.527S787.791,149.98,787.791,149.98s128.116,15.049,170.821,74.836,0,164.313,0,164.313" transform="translate(-410.972 -115.256)" fill="#fff" stroke="#323f51" stroke-linecap="round" stroke-miterlimit="10" stroke-width="10"/>
      <path id="Path_830" data-name="Path 830" d="M658.5,232.907,543.9,283.431,487.68,158.072" transform="translate(-110.861 -123.348)" fill="none" stroke="#323f51" stroke-linecap="round" stroke-miterlimit="10" stroke-width="10"/>
    </g>
    <path id="Path_1211" data-name="Path 1211" d="M50.782,67.946c4.535,2.806,6.5,5.628,8.695,10.522a10.956,10.956,0,0,1,1.158,4.715,15.311,15.311,0,0,1-1.175,4.633,78.8,78.8,0,0,1-3.418,9.038,15.612,15.612,0,0,1-6.411,7.055c-3.377,1.746-10.93,1.06-14.511-.041-5.016-1.533-5.905-.237-9.388-4.144-1.754-1.958-3.369-5.449-4.388-7.879s-1.378-7.855-.856-10.473c.807-4.038,7.569-12.822,13.2-15.261,7.382-3.189,9.617-.522,17.325,1.166" transform="translate(-10901.717 3713.723)" fill="#fff" stroke="#323f51" stroke-width="5"/>
    <path id="Path_1212" data-name="Path 1212" d="M50.782,67.946c4.535,2.806,6.5,5.628,8.695,10.522a10.956,10.956,0,0,1,1.158,4.715,15.311,15.311,0,0,1-1.175,4.633,78.8,78.8,0,0,1-3.418,9.038,15.612,15.612,0,0,1-6.411,7.055c-3.377,1.746-10.93,1.06-14.511-.041-5.016-1.533-5.905-.237-9.388-4.144-1.754-1.958-3.369-5.449-4.388-7.879s-1.378-7.855-.856-10.473c.807-4.038,7.569-12.822,13.2-15.261,7.382-3.189,9.617-.522,17.325,1.166" transform="translate(-10901.717 3713.723)" fill="none" stroke="#323f51" stroke-linecap="round" stroke-miterlimit="10" stroke-width="5"/>
    <path id="Path_1213" data-name="Path 1213" d="M76.806,57.727c9.527,5.816,13.573,11.8,18,22.235a23.03,23.03,0,0,1,2.219,10.114c-.188,3.434-1.533,6.762-2.757,10.049-2.471,6.615-4.543,13.385-7.8,19.69s-7.879,12.227-14.062,15.571c-7.3,3.956-23.409,2.879-30.971.7-10.644-3.051-12.594-.2-19.837-8.434-3.63-4.135-6.884-11.591-8.94-16.778S10.158,94,11.406,88.314c1.941-8.752,16.852-28.067,29-33.63,15.93-7.284,20.555-1.648,36.925,1.582" transform="translate(-10863.275 3617.149)" fill="#fff" stroke="#323f51" stroke-width="10"/>
    <path id="Path_1214" data-name="Path 1214" d="M76.806,57.727c9.527,5.816,13.573,11.8,18,22.235a23.03,23.03,0,0,1,2.219,10.114c-.188,3.434-1.533,6.762-2.757,10.049-2.471,6.615-4.543,13.385-7.8,19.69s-7.879,12.227-14.062,15.571c-7.3,3.956-23.409,2.879-30.971.7-10.644-3.051-12.594-.2-19.837-8.434-3.63-4.135-6.884-11.591-8.94-16.778S10.158,94,11.406,88.314c1.941-8.752,16.852-28.067,29-33.63,15.93-7.284,20.555-1.648,36.925,1.582" transform="translate(-10863.275 3617.149)" fill="none" stroke="#323f51" stroke-linecap="round" stroke-miterlimit="10" stroke-width="10"/>
    <path id="Path_1215" data-name="Path 1215" d="M466.98,245.038c-9.48,89.34-69.312,158.516-155.541,173.614-53.164,9.307-123.665,12.357-174.746-7.814C84.8,390.356,54.329,342.82,36.09,290.854,19.356,243.186-3.936,184.124,17.677,134.548,46.045,69.475,111.216,16.962,179.095,2.582,224.3-6.994,347.7,21.921,400.63,67.256c69.352,59.421,53.236,93.222,74.365,177.195" transform="translate(-11226.822 3256.631)" fill="#fff" stroke="#323f51" stroke-width="10"/>
    <path id="Path_1216" data-name="Path 1216" d="M466.98,245.038c-9.48,89.34-69.312,158.516-155.541,173.614-53.164,9.307-123.665,12.357-174.746-7.814C84.8,390.356,54.329,342.82,36.09,290.854,19.356,243.186-3.936,184.124,17.677,134.548,46.045,69.475,111.216,16.962,179.095,2.582,224.3-6.994,347.7,21.921,400.63,67.256c69.352,59.421,53.236,93.222,74.365,177.195" transform="translate(-11226.822 3256.631)" fill="none" stroke="#323f51" stroke-linecap="round" stroke-miterlimit="10" stroke-width="10"/>
    <path id="Path_1217" data-name="Path 1217" d="M79.173,258.557a568.029,568.029,0,0,0,211.99-81.974q-59.2-28.324-118.383-56.648c-11.933-5.71-24.533-12.015-31.477-23.613-12.616-21.085,1.506-51.607,23.976-60.049s48.353,1.289,65.747,18.3c30.786,30.114,35.706,88.687,2.864,116.354-13.361,11.256-30.724,16.215-47.851,17.9-28.3,2.781-58.623-3.426-79.877-23.051S75.6,111.4,89.506,85.628c-23.019,8.842-44.195,24.233-57.5,45.677s-17.967,49.225-9.525,73.189c3.358,9.535,15.276,19.176,21.4,11.264,1.859-2.39,2.236-5.636,2.495-8.7a325.712,325.712,0,0,0-31.1-168.842c14.012,4.266,28.809,8.573,42.994,4.976s26.895-18.206,23.38-32.936c28.535,18.5,47.984,49.339,60.129,81.941S159.56,159.535,166.229,193.8c1.891,9.755,3.946,19.682,8.748,28.287,5.327,9.519,13.636,16.762,21.78,23.8q30.845,26.66,61.69,53.328c3.821,3.3,8.567,6.819,13.314,5.285,3.578-1.15,5.751-4.8,7.618-8.181q34.741-63.071,69.481-126.15c8.615-15.636,17.449-32.039,18.257-50.041.949-21.158-9.289-40.914-19.238-59.4A243.164,243.164,0,0,1,231.9,120.441" transform="translate(-11170.641 3324.637)" fill="none" stroke="#4d5c70" stroke-linecap="round" stroke-linejoin="round" stroke-width="10"/>
  </g>
</svg>
