<svg width="798.196" height="821.952" xmlns="http://www.w3.org/2000/svg"><g data-name="Group 839"><g data-name="Group 809" transform="translate(-1959.5 -551.709)"><ellipse cx="14.762" cy="17.464" fill="#323f51" data-name="Ellipse 116" rx="14.762" ry="17.464" transform="rotate(-19.95 3811.45 -5694.695)"/><path fill="none" stroke="#323f51" stroke-linecap="round" stroke-linejoin="round" stroke-width="5" d="M2219.739 901.123c.108 11.029 35.644 10.686 35.536-.345" data-name="Path 1169"/><path fill="none" stroke="#323f51" stroke-linecap="round" stroke-linejoin="round" stroke-width="5" d="M2134.692 904.999c.108 11.029 35.643 10.686 35.534-.345" data-name="Path 1170"/><text fill="#323f51" data-name="Group 805" font-family="Lato-Black, Lato" font-size="70" font-weight="800" letter-spacing=".5em" transform="translate(2250.911 768.681)"><tspan x="4.704" y="69">Z</tspan></text><g data-name="Group 806"><text fill="#323f51" data-name="Z" font-family="Lato-Black, Lato" font-size="70" font-weight="800" letter-spacing=".5em" transform="translate(2290.441 712.874)"><tspan x="4.704" y="69">Z</tspan></text></g><g data-name="Group 807"><text fill="#323f51" data-name="Z" font-family="Lato-Black, Lato" font-size="100" font-weight="800" letter-spacing=".5em" transform="translate(2331.522 643.506)"><tspan x="22.329" y="99">Z</tspan></text></g><g fill="none" stroke="#323f51" data-name="Group 804"><path stroke-linecap="round" stroke-linejoin="round" stroke-width="6" d="M2134.783 1237.124c-.612 49.074-1.221 82.111-1.833 131.189a258.72 258.72 0 0 1-50.393.943" data-name="Path 1167"/><path stroke-linecap="round" stroke-linejoin="round" stroke-width="6" d="M2238.298 1243.577a1185.005 1185.005 0 0 0-.2 125.767 120.227 120.227 0 0 1 50.664.718" data-name="Path 1168"/><path stroke-miterlimit="10" stroke-width="10" d="M2135.169 776.983c-39.038 21.644-62.7 63.124-79.473 104.492a571.466 571.466 0 0 0-40.665 247.956c.977 16.237 2.777 32.883 10.243 47.334 9.477 18.345 27.115 31.169 45.6 40.368 35.089 17.458 74.649 24.064 113.784 26.168 33.27 1.789 67.441.334 98.487-11.758s58.754-36.246 68.445-68.122c5.738-18.867 4.938-39.015 4.085-58.716q-1.257-29.09-2.518-58.179c-2.247-51.926-4.663-104.77-22.11-153.731s-52.518-94.364-101.667-111.264c-15.553-5.352-84.657-11.145-93.847-4.674-.068.023-7.664 4.622-7.811 4.674" data-name="Path 1163"/><path stroke-linecap="round" stroke-linejoin="round" stroke-width="7" d="M2027.808 972.149c-34.164 8.041-64.776 43.063-64.81 78.163-.008 8.312 1.361 16.759 5.126 24.173 6.992 13.764 21.121 22.185 34.634 29.659 48.12 26.6 60.553 21.208 122.129 30.61" data-name="Path 1165"/><path stroke-linecap="round" stroke-linejoin="round" stroke-width="7" d="M2349.414 973.6c27.6 17.281 43.106 36.674 57.659 65.806 7.451 14.914 12.753 32.766 5.949 47.985-4.727 10.57-14.587 18.006-24.969 23.128-38.433 18.972-95.342 18.211-135.645 32.79" data-name="Path 1166"/></g></g><g fill="#e79e17" data-name="Group 808"><path d="M584.913 139.46a73.711 73.711 0 0 1 74.066-73.587c40.243.045 73.4 33.411 73.347 73.8a73.705 73.705 0 1 1-147.41-.217Z" data-name="Path 843"/><path d="M780.137 206.218c0 5.495-4.331 8.514-8.156 6.41-10.523-5.789-20.912-11.841-31.255-17.956a5.632 5.632 0 0 1-1.718-7.744 5.468 5.468 0 0 1 7.568-2.194c10.376 5.821 20.694 11.738 30.9 17.841 1.452.867 2.168 2.939 2.661 3.643Z" data-name="Path 844"/><path d="M708.881 220.477c.819.64 2.975 1.58 3.966 3.224 5.879 9.774 11.54 19.683 17.176 29.6 1.887 3.326 1.062 6.525-1.817 8.271s-6.429.774-8.367-2.546q-8.549-14.614-16.92-29.336c-2.545-4.498-.083-9.149 5.962-9.213Z" data-name="Path 845"/><path d="M743.08 96.991c-1.458-1.465-3.62-2.789-4.471-4.7-1.183-2.655-.09-5.271 2.584-6.845 3.972-2.348 7.977-4.644 11.968-6.947 5.783-3.339 11.559-6.7 17.361-10 3.793-2.156 7.094-1.535 8.879 1.561 1.753 3.032.627 6.448-2.981 8.546q-14.326 8.338-28.716 16.549a40.654 40.654 0 0 1-4.624 1.836Z" data-name="Path 846"/><path d="M591.831 262.402c-5.521-.147-8.329-4.465-6.186-8.335 5.763-10.408 11.745-20.688 17.8-30.935a5.7 5.7 0 0 1 8-1.823 5.543 5.543 0 0 1 1.983 7.651c-5.776 10.261-11.629 20.483-17.687 30.577-.929 1.528-3.104 2.3-3.91 2.865Z" data-name="Path 847"/><path d="M592.029 18.053c.787.6 2.866 1.459 3.8 3.013 5.943 9.883 11.681 19.894 17.38 29.918 1.849 3.256.941 6.589-1.945 8.239-2.859 1.638-6.256.8-8.137-2.386-5.847-9.941-11.655-19.907-17.291-29.97-2.372-4.234.391-8.833 6.193-8.814Z" data-name="Path 848"/><path d="M709.074 59.915c-6.1.109-8.745-4.523-6.256-8.994 4.081-7.318 8.341-14.534 12.525-21.788 1.523-2.629 2.994-5.29 4.6-7.862 1.939-3.1 5.342-4.113 8.105-2.546 2.91 1.644 3.9 4.99 2.066 8.22-5.688 10.034-11.426 20.034-17.362 29.925-.934 1.56-2.953 2.475-3.678 3.045Z" data-name="Path 849"/><path d="M577.713 89.34c-.025 5.591-4.286 8.553-8.162 6.416-10.523-5.8-20.9-11.866-31.242-17.982a5.691 5.691 0 0 1-1.708-7.734 5.476 5.476 0 0 1 7.587-2.162q15.554 8.732 30.9 17.854c1.435.864 2.152 2.93 2.625 3.608Z" data-name="Path 850"/><path d="M652.16 22.995c0-5.476-.032-10.951.007-16.421.032-4.043 2.213-6.512 5.712-6.57 3.544-.058 5.891 2.348 5.91 6.359q.087 16.974-.006 33.942c-.019 4-2.354 6.422-5.885 6.391-3.5-.038-5.674-2.469-5.706-6.55-.045-5.719-.012-11.431-.012-17.15Z" data-name="Path 851"/><path d="M541.068 146.049c-5.6 0-11.195.045-16.786-.019-4.049-.045-6.493-2.277-6.512-5.77-.025-3.518 2.444-5.84 6.429-5.853q16.964-.048 33.935.026c3.838.013 6.218 2.2 6.32 5.553.108 3.563-2.3 5.975-6.237 6.032-5.713.077-11.431.019-17.15.019Z" data-name="Path 852"/><path d="M774.658 146.049c-5.476 0-10.951.045-16.427-.013-4.318-.038-6.788-2.264-6.729-5.924.064-3.621 2.565-5.712 6.934-5.719q16.427-.01 32.848.026c4.414.013 6.877 2.092 6.909 5.712.032 3.659-2.425 5.86-6.749 5.9-5.6.045-11.195.013-16.786.013Z" data-name="Path 853"/><path d="M577.674 191.352c-.582.716-1.516 2.712-3.083 3.653-9.89 5.924-19.894 11.668-29.925 17.355a5.7 5.7 0 0 1-8.194-2.13 5.856 5.856 0 0 1 2.309-7.894c10.043-5.911 20.112-11.777 30.283-17.461 4.235-2.363 8.758.522 8.61 6.477Z" data-name="Path 854"/><path d="M663.81 257.253c0 5.6.051 11.195-.019 16.792-.051 4.017-2.335 6.416-5.891 6.384-3.5-.032-5.687-2.463-5.706-6.544q-.057-16.792-.019-33.577c.007-4.049 2.213-6.512 5.706-6.57 3.544-.058 5.866 2.348 5.917 6.365.069 5.719.018 11.431.012 17.15Z" data-name="Path 855"/></g></g></svg>