<svg width="615.948" height="940.96" xmlns="http://www.w3.org/2000/svg"><g data-name="Group 836" transform="translate(-1959.499 -643.506)"><g fill="none" stroke="#323f51" data-name="Group 804"><path stroke-linecap="round" stroke-linejoin="round" stroke-width="6" d="M2184.629 1409.358c-.79 63.313-1.575 105.935-2.365 169.253a333.789 333.789 0 0 1-65.014 1.217" data-name="Path 1167"/><path stroke-linecap="round" stroke-linejoin="round" stroke-width="6" d="M2318.174 1417.683c-2.957 60.731-3.044 101.521-.257 162.257a155.109 155.109 0 0 1 65.363.926" data-name="Path 1168"/><path stroke-miterlimit="10" stroke-width="10" d="M2185.124 815.71c-50.365 27.924-80.9 81.439-102.532 134.809a737.276 737.276 0 0 0-52.464 319.9c1.261 20.947 3.582 42.423 13.215 61.068 12.226 23.667 34.982 40.213 58.833 52.08 45.269 22.523 96.308 31.046 146.8 33.76 42.923 2.308 87.009.432 127.062-15.169s75.8-46.762 88.3-87.886c7.4-24.341 6.37-50.335 5.27-75.753q-1.622-37.53-3.248-75.059c-2.9-66.992-6.016-135.168-28.525-198.335s-67.756-121.734-131.165-143.549c-20.066-6.905-109.22-14.378-121.076-6.031-.088.03-9.887 5.963-10.078 6.031" data-name="Path 1163"/><path stroke-linecap="round" stroke-linejoin="round" stroke-width="7" d="M2046.612 1067.503c-44.077 10.374-83.57 55.557-83.613 100.841-.01 10.724 1.755 21.621 6.613 31.186 9.021 17.758 27.249 28.622 44.682 38.264 62.082 34.318 78.122 27.361 157.564 39.491" data-name="Path 1165"/><path stroke-linecap="round" stroke-linejoin="round" stroke-width="7" d="M2461.529 1069.374c35.607 22.3 55.612 47.314 74.388 84.9 9.613 19.241 16.453 42.273 7.675 61.907-6.1 13.637-18.82 23.231-32.214 29.839-49.584 24.477-123 23.494-175 42.3" data-name="Path 1166"/></g><ellipse cx="19.045" cy="22.531" fill="#323f51" data-name="Ellipse 116" rx="19.045" ry="22.531" transform="rotate(-19.95 4101.165 -5820.34)"/><path fill="none" stroke="#323f51" stroke-linecap="round" stroke-linejoin="round" stroke-width="5" d="M2294.231 975.869c.14 14.228 45.986 13.786 45.847-.445" data-name="Path 1169"/><text fill="#323f51" data-name="Group 805" font-family="Lato-Black, Lato" font-size="70" font-weight="800" letter-spacing=".5em" transform="translate(2334.447 805)"><tspan x="12.263" y="69">Z</tspan></text><g data-name="Group 806"><text fill="#323f51" data-name="Z" font-family="Lato-Black, Lato" font-size="70" font-weight="800" letter-spacing=".5em" transform="translate(2385.447 733)"><tspan x="12.263" y="69">Z</tspan></text></g><g data-name="Group 807"><text fill="#323f51" data-name="Z" font-family="Lato-Black, Lato" font-size="100" font-weight="800" letter-spacing=".5em" transform="translate(2438.447 643.506)"><tspan x="37.657" y="99">Z</tspan></text></g></g></svg>