<svg xmlns="http://www.w3.org/2000/svg" width="756.044" height="416.961" viewBox="0 0 756.044 416.961">
  <g id="Group_840" data-name="Group 840" transform="translate(-167.475 -1655.317)">
    <path id="Path_1178" data-name="Path 1178" d="M19.374,38.258c11.038-.283,20.266-9.075,20.609-19.638S31.658-.276,20.619.007.354,9.082.01,19.645,8.336,38.541,19.374,38.258Z" transform="translate(864.025 2071.744) rotate(-107)" fill="#557591"/>
    <path id="Path_1177" data-name="Path 1177" d="M19.374,38.258c11.038-.283,20.266-9.075,20.609-19.638S31.658-.276,20.619.007.354,9.082.01,19.645,8.336,38.541,19.374,38.258Z" transform="translate(812.571 2068.713) rotate(-107)" fill="#557591"/>
    <path id="Path_1179" data-name="Path 1179" d="M19.374,38.258c11.038-.283,20.266-9.075,20.609-19.638S31.658-.276,20.619.007.354,9.082.01,19.645,8.336,38.541,19.374,38.258Z" transform="translate(786.065 2016.445) rotate(-107)" fill="#557591"/>
    <path id="Path_517" data-name="Path 517" d="M304.617,14.216C372.412,3.288,437.7-4.587,500.228,3.025A511.014,511.014,0,0,1,673.706,56.888c21.921,11.334,44.746,28.27,40.384,58.74-2.726,19.019-15.675,38.4-28.727,55.953-18.936,25.461-39.927,50.569-64.95,68.523-44.389,31.838-93.136,35.844-138.032,38.286C369.545,284.529,256.746,289.7,148.5,281.961c-39.114-2.8-77.882-7.348-112.029-20.429C17.91,254.419-.582,242.251.014,218.886c.856-33.531,23.96-66.839,52.018-85.825,56.146-37.982,63.389-51.206,121.5-72.875,24.689-9.209,90.8-35,152.767-49.442" transform="translate(868.976 2072.277) rotate(-169)" fill="#557591"/>
  </g>
</svg>
