<svg xmlns="http://www.w3.org/2000/svg" width="46.912" height="47.059" viewBox="0 0 46.912 47.059">
  <path id="Path_622" data-name="Path 622" d="M10.777,4963.517-4.029,4948.71a16.854,16.854,0,0,0-.942-22.774,16.831,16.831,0,0,0-23.816,0,16.83,16.83,0,0,0,0,23.816,16.809,16.809,0,0,0,22.776.944l14.8,14.806a1.4,1.4,0,0,0,1.984-1.985Zm-37.58-15.749a14.027,14.027,0,0,1,0-19.847,14.027,14.027,0,0,1,19.848,0,14.051,14.051,0,0,1,0,19.848A14.026,14.026,0,0,1-26.8,4947.768Z" transform="translate(34.725 -4920)" fill="#f2f2f2" stroke="#f2f2f2" stroke-width="2"/>
</svg>
