<svg width="33.059" height="48.084" data-name="Group 365" xmlns="http://www.w3.org/2000/svg"><path fill="rgba(255,255,255,0.71)" d="M22.792 19.535H7.514v-7.514a9.016 9.016 0 0 1 18.032 0v.623h3.006v-.623a12.022 12.022 0 0 0-24.043 0v7.514a4.513 4.513 0 0 0-4.508 4.508v19.536a4.512 4.512 0 0 0 4.508 4.5h24.043a4.512 4.512 0 0 0 4.508-4.5V24.043a4.514 4.514 0 0 0-4.033-4.482h-6.235Zm5.759 3a1.5 1.5 0 0 1 1.5 1.5v19.536a1.5 1.5 0 0 1-1.5 1.5H4.508a1.5 1.5 0 0 1-1.5-1.5V24.035a1.5 1.5 0 0 1 1.5-1.5Z" data-name="Path 89"/><path fill="rgba(255,255,255,0.71)" d="M16.53 39.07a1.5 1.5 0 0 0 1.5-1.5v-7.513a1.502 1.502 0 1 0-3.005 0v7.513a1.5 1.5 0 0 0 1.505 1.5Z" data-name="Path 90"/></svg>