<svg xmlns="http://www.w3.org/2000/svg" width="137.924" height="132.828" viewBox="0 0 137.924 132.828">
  <g id="Group_1380" data-name="Group 1380" transform="translate(3492.51 -7845.579)">
    <g id="Group_1362" data-name="Group 1362" transform="translate(-4763 6834.447)">
      <g id="Group_329" data-name="Group 329" transform="translate(580.005 -97)">
        <path id="Path_443" data-name="Path 443" d="M768.958,532.716c12.538-1.642,24.728-2.04,37.064,4.349,12.427,6.434,24.406,17.744,35.654,32.354a46.846,46.846,0,0,1,10.317,28.172c.307,8.366-1.333,16.4-3.072,23.624-2.524,10.47-5.458,20.684-9.478,27.509-7.132,12.1-16.315,11.563-24.827,10.508-21.394-2.65-42.823-5.732-63.941-14.361-7.631-3.12-15.272-7-22.4-14.481-3.873-4.065-7.955-10.385-8.86-20.794-1.3-14.939,1.682-28.716,6.24-35.857,9.121-14.285,9.934-19.847,20.143-26.751,4.338-2.934,15.9-11.3,27.169-14.787" transform="translate(-26.116 578.783)" fill="none" stroke="#323f51" stroke-width="5"/>
      </g>
    </g>
    <g id="Group_1377" data-name="Group 1377" transform="translate(-5544.28 7007.816)">
      <path id="Path_187" data-name="Path 187" d="M3290.076,5233.294c-2.119-2.956-6.1-4-9-5.653-1.112-.633-2.271-1.211-3.376-1.874,1.054-.223,1.032-2.07-.113-1.975-.787.067-1.573.083-2.359.108a26.449,26.449,0,0,1-2.85-3.474c1.152-.126,1.156-2.1-.023-2-.485.041-.97.041-1.455.065-.942-1.129-1.852-2.269-2.739-3.418.041,0,.083,0,.124-.006,1.178-.1,1.188-2.109,0-2.009-.527.044-1.053.045-1.579.073q-1.232-1.679-2.386-3.428c.026,0,.053,0,.079,0,1.179-.1,1.188-2.109,0-2.008-.437.036-.873.035-1.309.059-.415-.675-.84-1.338-1.237-2.039-.227-.4-.455-.872-.686-1.373.045,0,.09,0,.135-.007,1.179-.1,1.188-2.108,0-2.009-.34.029-.68.026-1.02.047-1.011-2.253-2.2-4.623-3.9-5.418a3.351,3.351,0,0,0-.74-.229c-.294-1-.648-2.022-1.021-2.978a2.491,2.491,0,0,0-.7-1.233c-1.154-.883-3.547-.633-4.815-.332-3.719.88-4.334,4.49-4.526,8.079h0a6.05,6.05,0,0,1-3.139.173,14.141,14.141,0,0,1-7.646-5.762c-1.328-2.266-.5-5.89-2.657-7.486a3.066,3.066,0,0,0-.718-.386c1.8-2.711.794-7.007-2.793-7.411a2.379,2.379,0,0,0-2.711,2.5,5.66,5.66,0,0,0,1.133,2.463,3.54,3.54,0,0,1-.558,4.027c-.007.006-.007.015-.014.021-4.491,4-12.053,8.721-10.986,16.129-4.214,1.94-4.023,9.383-1.525,12.756,4.573,6.173,11.949,9.351,18.383,12.535a72.4,72.4,0,0,1,9.681,5.425c3.967,2.787,7.085,6.573,10.744,9.77,5.7,4.979,10.367,5.458,17.433,5.548,4.086.052,8.178.06,12.256-.266,2.847-.228,5.361-.305,7.575-2.443A11.132,11.132,0,0,0,3290.076,5233.294Zm.35,7.094c-4.994,3.354-12.762,2.783-18.4,2.166a26.007,26.007,0,0,1-7.595-2.069c1.191-3.928,4.439-6.521,7.595-6.113,1.507.2,4.155,1.128,5.673.865,2.538-.442,5.484-1.543,6.787-3.916a12.055,12.055,0,0,1,2.532,1.7A11.065,11.065,0,0,1,3290.426,5240.388Zm-31.207-36.058c-1.29.018-3.3-.329-4.589-.419-1.187-.082-1.6.389-.42.472a46.479,46.479,0,0,0,5.01.043c.622,1.178,2.091,4.226,2.637,5.272-1.214.011-3.091.085-4.306,0-1.187-.082-1.427-.03-.244.052a46.058,46.058,0,0,0,4.8.053c.711,1.151,1.438,2.292,2.2,3.4-.134,0,1.686.793,1.43.892a19.931,19.931,0,0,1-4.573.745c-1.188-.083-1.16.193.023.276,1.518.1,3.034.109,4.55.065.833,1.144,3.234,4.189,4.1,5.3-1.01,0-3.572-.615-4.583-.685-1.188-.083-1.183.6,0,.685,1.529.106,3.057.109,4.583.063.913,1.132,3.149,3.339,4.074,4.45-.7-.018-2.721.048-3.426,0-1.188-.083-1.184.772,0,.854,1.367.095,2.733.112,4.1.086a15.887,15.887,0,0,0,1.635,1.169c-6.011,3.859-11.592-4.505-15.007-8.935a112.576,112.576,0,0,1-11.108-18.372,6.873,6.873,0,0,1,3.387-.914C3255.427,5199.105,3258.014,5202.464,3259.219,5204.33Zm-10.78-10.586c.8-.241,4.3-.515,5.06-.054.489.3-.065,2.058.222,3.024a21.468,21.468,0,0,0-4.724,1.677c-.814.349-1.655.773-2.513,1.157C3246.629,5197.247,3246.07,5194.46,3248.439,5193.744Zm-17.175-.054c.611,1.847,2.24,2.683,3.617,3.945,3.224,2.958,7.069,5.883,11.116,4.273a26.021,26.021,0,0,0,2.441-1.248c.429.855.89,1.671,1.332,2.509-4.476,1.946-8.514,2.569-13.223.742-.174-.067.28.744,0,.622-5.339-2.306-8.817-8.376-9.965-14.536.243-.208.479-.414.7-.616C3229.868,5187,3230.609,5191.713,3231.264,5193.689Zm-3.028-12.029a2.766,2.766,0,0,1,.195,4.561,1.015,1.015,0,0,0-.133.152,4.951,4.951,0,0,0-.335-2.462c-.237-.545-.679-.967-.906-1.507C3226.607,5181.331,3227.492,5181.237,3228.236,5181.66Zm-3.257,9.646c2.877,13.3,13.628,17.05,25.133,11.863,3.686,6.772,8.375,14.831,13.134,20.866,3.66,4.641,9.814,7.909,14.789,4.136.254.141.5.28.762.425,1.144.634,2.58,1.23,3.994,1.883-1.5,2.6-3.673,4.031-6.611,3.892-1.829-.087-3.562-.69-5.411-.481-3.025.341-6.883,2.5-8.031,5.775a47.741,47.741,0,0,1-10-7.118c-.119-.105-.228-.218-.345-.325a1,1,0,0,0,.33-.441c1.8-4.755-.206-10.44-3.719-13.629-4.153-3.771-9.073-4.016-14.125-2.788a.848.848,0,0,0-.376.2c-5.859-3.994-12-7.583-18.124-11.029C3215.275,5198.682,3220.825,5194.594,3224.979,5191.306Zm26.049,39.626c-4.736-4.616-8.736-9.9-14.141-13.75-.073-.053-.15-.1-.225-.153,3.679-.7,7.153-.438,10.4,2.024C3250.449,5221.627,3252.488,5226.591,3251.028,5230.932Zm36,16.247c-2.924,2.515-5.858,2.123-9.432,2.247-.155.006-.447-.013-.72,0-5.355.265-12.516,1.016-17.652-.923-6.119-2.31-9.889-9.177-14.924-13.263-5.152-4.18-11.211-6.658-16.973-9.635a48.749,48.749,0,0,1-9.143-5.8c-1.563-1.312-3.675-3.042-4.612-4.958-1.1-2.242-.68-7.478,1.95-8.537,7.6,4.265,15.48,8.616,22.414,14.077.134.105-.22-1.507,0-1.329,6.771,5.461,12.387,14.651,19.618,19.8a31.168,31.168,0,0,0,17.327,5.919c4.8.24,10.724.451,15.256-1.91A13.137,13.137,0,0,1,3287.023,5247.179Z" transform="translate(-1128.008 -4310.849)" fill="#323f51" stroke="#323f51" stroke-miterlimit="10" stroke-width="1"/>
      <path id="Path_188" data-name="Path 188" d="M3226.524,5238.214c-2.651-1.122-6.726-4.085-6.873-7.419a1.047,1.047,0,1,0-2.095,0c.2,4.452,4.816,8,8.41,9.526C3227.217,5240.85,3227.76,5238.737,3226.524,5238.214Z" transform="translate(-1129.706 -4329.758)" fill="#323f51" stroke="#323f51" stroke-miterlimit="10" stroke-width="1"/>
      <path id="Path_189" data-name="Path 189" d="M3234.954,5245.468a1.455,1.455,0,0,0,0,2.907A1.455,1.455,0,0,0,3234.954,5245.468Z" transform="translate(-1134.335 -4336.589)" fill="#323f51" stroke="#323f51" stroke-miterlimit="10" stroke-width="1"/>
    </g>
  </g>
</svg>
