<svg xmlns="http://www.w3.org/2000/svg" width="137.924" height="132.828" viewBox="0 0 137.924 132.828">
  <g id="Group_1383" data-name="Group 1383" transform="translate(3852.51 -8019.579)">
    <text id="Z" transform="translate(-3813.54 8085.252)" fill="#fff" stroke="#fff" stroke-width="2" font-size="46" font-family="Herculanum"><tspan x="0" y="0">Z</tspan></text>
    <text id="Z-2" data-name="Z" transform="matrix(0.946, -0.326, 0.326, 0.946, -3770.025, 8100.776)" fill="#fff" stroke="#fff" stroke-width="2" font-size="34" font-family="Herculanum"><tspan x="0" y="0">Z</tspan></text>
    <text id="Z-3" data-name="Z" transform="translate(-3784.599 8121.658) rotate(6)" fill="#fff" stroke="#fff" stroke-width="2" font-size="24" font-family="Herculanum"><tspan x="0" y="0">Z</tspan></text>
    <path id="Path_1828" data-name="Path 1828" d="M768.958,532.716c12.538-1.642,24.728-2.04,37.064,4.349,12.427,6.434,24.406,17.744,35.654,32.354a46.846,46.846,0,0,1,10.317,28.172c.307,8.366-1.333,16.4-3.072,23.624-2.524,10.47-5.458,20.684-9.478,27.509-7.132,12.1-16.315,11.563-24.827,10.508-21.394-2.65-42.823-5.732-63.941-14.361-7.631-3.12-15.272-7-22.4-14.481-3.873-4.065-7.955-10.385-8.86-20.794-1.3-14.939,1.682-28.716,6.24-35.857,9.121-14.285,9.934-19.847,20.143-26.751,4.338-2.934,15.9-11.3,27.169-14.787" transform="translate(-4569.111 7490.23)" fill="none" stroke="#fff" stroke-width="5"/>
  </g>
</svg>
