<svg width="137.924" height="132.828" xmlns="http://www.w3.org/2000/svg"><g data-name="Group 1385" transform="translate(4214.51 -8019.579)"><g data-name="Group 330"><path fill="none" stroke="#fff" stroke-width="5" d="M-4162.153 8022.946c12.538-1.642 24.728-2.04 37.064 4.349 12.427 6.434 24.406 17.744 35.654 32.354a46.846 46.846 0 0 1 10.317 28.172c.307 8.366-1.333 16.4-3.072 23.624-2.524 10.47-5.458 20.684-9.478 27.509-7.132 12.1-16.315 11.563-24.827 10.508-21.394-2.65-42.823-5.732-63.941-14.361-7.631-3.12-15.272-7-22.4-14.481-3.873-4.065-7.955-10.385-8.86-20.794-1.3-14.939 1.682-28.716 6.24-35.857 9.121-14.285 9.934-19.847 20.143-26.751 4.338-2.934 15.9-11.3 27.169-14.787" data-name="Path 443"/></g><path fill="#fff" stroke="rgba(0,0,0,0)" stroke-miterlimit="10" d="M-4188.043 8106.512h-.021a2.307 2.307 0 0 1-1.7-.614 2.439 2.439 0 0 1-.61-1.799 2.341 2.341 0 0 1 2.35-2.456h.006a2.286 2.286 0 0 1 1.634.682 2.514 2.514 0 0 1 .717 1.81 2.239 2.239 0 0 1-2.376 2.377Zm.831-2.369h-.017a1 1 0 0 0-.76 1.7 1.121 1.121 0 0 0 .793.326h.044a.963.963 0 0 0 .953-1.027.96.96 0 0 0-.259-.71 1.025 1.025 0 0 0-.754-.289Z" data-name="Subtraction 1"/><path fill="#fff" stroke="rgba(0,0,0,0)" stroke-miterlimit="10" d="M-4200.043 8106.512h-.021a2.307 2.307 0 0 1-1.7-.614 2.439 2.439 0 0 1-.61-1.799 2.341 2.341 0 0 1 2.35-2.456h.006a2.286 2.286 0 0 1 1.634.682 2.514 2.514 0 0 1 .717 1.81 2.239 2.239 0 0 1-2.376 2.377Zm.831-2.369h-.017a1 1 0 0 0-.76 1.7 1.121 1.121 0 0 0 .793.326h.044a.963.963 0 0 0 .953-1.027.96.96 0 0 0-.259-.71 1.025 1.025 0 0 0-.754-.289Z" data-name="Subtraction 3"/><ellipse cx="2.664" cy="2.848" fill="none" stroke="#fff" stroke-miterlimit="10" stroke-width="1.5" data-name="Ellipse 50" rx="2.664" ry="2.848" transform="rotate(-72.98 3389.996 6866.071)"/><ellipse cx="2.664" cy="2.848" fill="none" stroke="#fff" stroke-miterlimit="10" stroke-width="1.5" data-name="Ellipse 49" rx="2.664" ry="2.848" transform="rotate(-72.98 3393.726 6861.028)"/><ellipse cx="2.664" cy="2.848" fill="none" stroke="#fff" stroke-miterlimit="10" stroke-width="1.5" data-name="Ellipse 48" rx="2.664" ry="2.848" transform="rotate(-72.98 3391.193 6855.495)"/><path fill="none" stroke="#fff" stroke-width="3" d="M-4121.29 8101.587c-6.052-.442-11.838-1.384-17.12-5.273-5.324-3.912-10.03-9.884-14.113-17.209a19.571 19.571 0 0 1-2.507-13.086 35.193 35.193 0 0 1 3.428-9.898c2.068-4.284 4.307-8.413 6.776-10.985 4.378-4.562 8.665-3.487 12.593-2.252 9.87 3.104 19.722 6.397 28.964 12.048a29.71 29.71 0 0 1 9.355 8.297 13.893 13.893 0 0 1 2.437 9.774c-.638 6.557-3.198 12.22-5.948 14.879-5.499 5.318-6.347 7.64-11.742 9.679-2.293.866-8.45 3.41-14.057 3.88" data-name="Path 616"/><g data-name="Group 339"><g data-name="Group 187"><path fill="none" stroke="#fff" stroke-linecap="round" stroke-linejoin="round" stroke-width="2" d="M-4199.921 8114.208c2.966 2.338 6.261 1.8 8.959-.086" data-name="Path 417"/><g fill="none" stroke="#fff" data-name="Layer 42"><path stroke-miterlimit="10" stroke-width="4.503" d="M-4198.91 8123.749c11.323 8.5 24.06 15.456 24 11.749l.844-20.528c-.21-13.318-.477-30.012-12.019-39.046-7.981-6.247-14.989-4.849-19.846 3.666-5.227 9.161-7.817 8.177-4.513 27.506-.008.031-.145 2.815 3.731 7.874.945 1.234 7.102 8.435 7.803 8.779Z" data-name="Path 421"/><path stroke-linecap="round" stroke-linejoin="round" stroke-width="2" d="m-4132.867 8070.471 7.644 13.969 11.541-11.949s4.291-4.711 0-7.657-9.513 2.44-9.513 2.44-1.766-5.722-6.395-4.8-5.169 4.54-3.277 7.997Z" data-name="Path 424"/></g></g></g></g></svg>