<svg width="1788.813" height="721.03" viewBox="0 0 473.29 190.772" xmlns="http://www.w3.org/2000/svg"><defs><path id="valg_model_v3_se_angsten_svg__b" d="M3.13 31.417h84.367v70.385H3.13z"/><path id="valg_model_v3_se_angsten_svg__a" d="M3.13 31.417h39.612V75.4H3.13z"/><path id="valg_model_v3_se_angsten_svg__i" d="M3.13 31.417h84.367v70.385H3.13z"/><path id="valg_model_v3_se_angsten_svg__g" d="M-57.115 15.572h46.702v15.751h-46.702z"/><path id="valg_model_v3_se_angsten_svg__c" d="M-69.075 19.288h55.254v10.748h-55.254z"/><path id="valg_model_v3_se_angsten_svg__d" d="M-57.115 15.572h46.702v15.751h-46.702z"/><path id="valg_model_v3_se_angsten_svg__e" d="M-57.115 15.572h46.702v15.751h-46.702z"/><path id="valg_model_v3_se_angsten_svg__h" d="M-57.115 15.572h46.702v15.751h-46.702z"/><path id="valg_model_v3_se_angsten_svg__f" d="M-57.115 15.572h46.702v15.751h-46.702z"/></defs><g transform="translate(.032 -240.49)"><circle cx="431.023" cy="282.726" r="42.235" style="fill:#75d29c;fill-opacity:1;fill-rule:evenodd;stroke:none;stroke-width:.529167;stroke-linecap:square"/><g aria-label="Det gode liv" style="font-style:normal;font-variant:normal;font-weight:600;font-stretch:normal;font-size:10.5833px;line-height:1.25;font-family:Montserrat;-inkscape-font-specification:'Montserrat, Semi-Bold';font-variant-ligatures:normal;font-variant-caps:normal;font-variant-numeric:normal;font-variant-east-asian:normal;letter-spacing:0;word-spacing:0;white-space:pre;shape-inside:url(#valg_model_v3_se_angsten_svg__a);fill:#000;fill-opacity:1;stroke:none" transform="translate(407.885 232.058)"><path d="M14.025 33.735h3.239q1.185 0 2.106.465.92.455 1.429 1.302.508.836.508 1.937 0 1.1-.508 1.947-.508.836-1.429 1.302-.92.455-2.106.455h-3.239zm3.175 6.244q.815 0 1.43-.307.624-.318.952-.889.338-.582.338-1.344 0-.762-.338-1.334-.328-.582-.953-.889-.614-.317-1.429-.317h-1.799v5.08zM27.953 38.35q0 .137-.021.39h-4.435q.117.625.604.995.497.36 1.227.36.932 0 1.535-.614l.709.815q-.381.455-.963.688-.582.233-1.312.233-.932 0-1.64-.37-.71-.37-1.101-1.027-.381-.667-.381-1.503 0-.825.37-1.481.38-.667 1.048-1.038.666-.37 1.503-.37.825 0 1.47.37.657.36 1.017 1.027.37.656.37 1.524zm-2.857-1.864q-.635 0-1.08.381-.434.37-.53.995h3.208q-.085-.614-.519-.995-.434-.38-1.08-.38zM32.62 40.836q-.233.19-.571.286-.328.095-.699.095-.931 0-1.44-.487-.507-.487-.507-1.418v-2.72h-.931v-1.058h.93v-1.291h1.324v1.29h1.513v1.06h-1.513v2.687q0 .413.2.635.202.212.583.212.444 0 .74-.233zM15.401 48.72v4.795q0 2.984-3.048 2.984-.815 0-1.545-.211-.73-.201-1.206-.593l.592-.995q.37.307.932.487.571.19 1.153.19.931 0 1.365-.423.434-.423.434-1.29v-.297q-.338.37-.825.56-.487.191-1.07.191-.803 0-1.46-.338-.645-.35-1.026-.974-.37-.625-.37-1.429t.37-1.418q.38-.624 1.026-.963.657-.339 1.46-.339.615 0 1.112.201.508.201.847.614v-.751Zm-3.016 4.276q.751 0 1.228-.444.486-.455.486-1.175 0-.709-.486-1.153-.477-.445-1.228-.445-.762 0-1.249.445-.476.444-.476 1.153 0 .72.476 1.175.487.444 1.249.444zM19.677 54.446q-.857 0-1.545-.37t-1.08-1.027q-.38-.666-.38-1.503 0-.836.38-1.492.392-.656 1.08-1.026.688-.37 1.545-.37.868 0 1.556.37.688.37 1.069 1.026.391.656.391 1.492 0 .837-.391 1.503-.381.656-1.07 1.027-.687.37-1.555.37zm0-1.132q.73 0 1.206-.487.477-.487.477-1.28 0-.794-.477-1.281-.476-.487-1.206-.487t-1.207.487q-.465.487-.465 1.28 0 .794.465 1.281.477.487 1.207.487zM29.498 46.52v7.852h-1.27v-.73q-.328.402-.815.603-.476.201-1.058.201-.815 0-1.471-.36-.646-.36-1.016-1.016-.37-.666-.37-1.524 0-.857.37-1.513.37-.656 1.016-1.016.656-.36 1.47-.36.562 0 1.028.19.465.191.793.572v-2.9zm-2.984 6.794q.476 0 .857-.212.38-.222.603-.624.222-.402.222-.932 0-.529-.222-.93-.222-.403-.603-.615-.381-.222-.857-.222-.477 0-.858.222-.38.212-.603.614-.222.402-.222.931 0 .53.222.932t.603.624q.381.212.858.212zM36.547 51.578q0 .138-.022.392h-4.434q.116.624.603.995.498.36 1.228.36.931 0 1.535-.614l.709.815q-.381.455-.963.687-.583.233-1.313.233-.931 0-1.64-.37-.71-.37-1.1-1.027-.382-.666-.382-1.503 0-.825.37-1.481.382-.667 1.048-1.037.667-.37 1.503-.37.826 0 1.471.37.656.36 1.016 1.026.37.656.37 1.524zm-2.858-1.862q-.635 0-1.08.38-.433.37-.529.995h3.207q-.084-.613-.518-.994t-1.08-.381zM17.687 59.749h1.323V67.6h-1.323zM20.746 61.95h1.323V67.6h-1.323zm.667-.932q-.36 0-.604-.222-.243-.233-.243-.571 0-.339.243-.561.244-.233.604-.233t.603.222q.243.212.243.54 0 .35-.243.593-.233.232-.603.232zM29.096 61.95 26.672 67.6h-1.365l-2.423-5.651h1.375l1.757 4.19 1.81-4.19z" style="text-align:center;text-anchor:middle;shape-inside:url(#valg_model_v3_se_angsten_svg__a)"/></g><g transform="translate(106.457 241.005)"><circle cx="-64.254" cy="41.721" r="42.235" style="fill:#e27272;fill-opacity:1;fill-rule:evenodd;stroke:none;stroke-width:.529167;stroke-linecap:square"/><g aria-label="Fanget i kontrol og undgåelse" style="font-style:normal;font-variant:normal;font-weight:600;font-stretch:normal;font-size:10.5833px;line-height:1.25;font-family:Montserrat;-inkscape-font-specification:'Montserrat, Semi-Bold';font-variant-ligatures:normal;font-variant-caps:normal;font-variant-numeric:normal;font-variant-east-asian:normal;text-align:center;letter-spacing:0;word-spacing:0;white-space:pre;shape-inside:url(#valg_model_v3_se_angsten_svg__b);fill:#000;fill-opacity:1;stroke:none" transform="translate(-109.78 -9.63)"><path d="M25.344 34.888v2.255h3.577v1.164h-3.577v2.836h-1.376v-7.408h5.408v1.153zM32.562 35.428q1.248 0 1.905.603.666.593.666 1.8v3.312h-1.248v-.688q-.244.37-.699.572-.444.19-1.08.19-.634 0-1.11-.212-.477-.222-.742-.603-.254-.391-.254-.878 0-.762.561-1.217.572-.466 1.789-.466h1.46v-.085q0-.592-.36-.91-.349-.317-1.047-.317-.476 0-.942.148-.455.148-.773.413l-.518-.963q.444-.34 1.069-.519.624-.18 1.323-.18zm-.18 4.826q.497 0 .878-.222.392-.233.55-.656v-.657h-1.365q-1.143 0-1.143.752 0 .36.286.571.286.212.794.212zM40.033 35.428q1.07 0 1.715.624.645.625.645 1.853v3.238h-1.322v-3.07q0-.74-.35-1.11-.349-.381-.995-.381-.73 0-1.153.444-.423.434-.423 1.26v2.857h-1.323v-5.651h1.26v.73q.327-.392.825-.593.497-.2 1.121-.2zM49.738 35.492v4.794q0 2.984-3.048 2.984-.815 0-1.545-.211-.73-.201-1.206-.593l.592-.995q.37.307.932.487.571.19 1.153.19.932 0 1.365-.423.434-.423.434-1.291v-.296q-.338.37-.825.56-.487.191-1.07.191-.803 0-1.46-.339-.645-.349-1.026-.973-.37-.625-.37-1.429t.37-1.418q.38-.625 1.026-.963.657-.339 1.46-.339.615 0 1.112.201.508.201.847.614v-.751zm-3.016 4.275q.751 0 1.228-.444.487-.455.487-1.175 0-.71-.487-1.154-.477-.444-1.228-.444-.762 0-1.249.444-.476.445-.476 1.154 0 .72.476 1.175.487.444 1.249.444zM56.787 38.35q0 .137-.021.39H52.33q.117.625.603.995.498.36 1.228.36.931 0 1.535-.614l.709.815q-.381.455-.963.688-.582.233-1.313.233-.931 0-1.64-.37-.71-.37-1.1-1.027-.382-.667-.382-1.503 0-.825.37-1.481.382-.667 1.048-1.038.667-.37 1.503-.37.826 0 1.471.37.656.36 1.016 1.027.37.656.37 1.524zm-2.858-1.864q-.635 0-1.08.381-.433.37-.528.995h3.206q-.084-.614-.518-.995-.434-.38-1.08-.38zM61.454 40.836q-.233.19-.572.286-.328.095-.698.095-.931 0-1.44-.487-.507-.487-.507-1.418v-2.72h-.932v-1.058h.932v-1.291h1.323v1.29h1.513v1.06H59.56v2.687q0 .413.2.635.202.212.583.212.444 0 .74-.233zM65.465 35.492h1.323v5.651h-1.323Zm.667-.932q-.36 0-.603-.222-.244-.233-.244-.572 0-.338.244-.56.243-.233.603-.233t.603.222q.243.212.243.54 0 .349-.243.592-.233.233-.603.233zM20.3 51.949l-.983.93v1.493h-1.323V46.52h1.323v4.742l2.74-2.54h1.588l-2.36 2.37 2.582 3.281H22.26zM27.032 54.446q-.857 0-1.545-.37t-1.08-1.027q-.38-.666-.38-1.503 0-.836.38-1.492.392-.656 1.08-1.026.688-.37 1.545-.37.868 0 1.556.37.688.37 1.069 1.026.391.656.391 1.492 0 .837-.391 1.503-.381.656-1.07 1.027-.687.37-1.555.37zm0-1.132q.73 0 1.206-.487.477-.487.477-1.28 0-.794-.477-1.281-.476-.487-1.206-.487t-1.207.487q-.465.487-.465 1.28 0 .794.465 1.281.477.487 1.207.487zM34.525 48.657q1.069 0 1.714.625.646.624.646 1.852v3.238h-1.323v-3.069q0-.74-.35-1.111-.349-.381-.994-.381-.73 0-1.154.444-.423.434-.423 1.26v2.857h-1.323v-5.651h1.26v.73q.328-.392.825-.593.497-.2 1.122-.2zM41.965 54.065q-.233.19-.572.286-.328.095-.698.095-.931 0-1.44-.487-.507-.486-.507-1.418v-2.72h-.932v-1.058h.932v-1.291h1.322v1.291h1.514v1.058H40.07v2.689q0 .412.202.635.2.211.582.211.444 0 .74-.233zM44.314 49.546q.572-.889 2.011-.889v1.26q-.17-.032-.307-.032-.772 0-1.206.455-.434.444-.434 1.291v2.741h-1.323v-5.651h1.26zM49.934 54.446q-.857 0-1.545-.37t-1.08-1.027q-.38-.666-.38-1.503 0-.836.38-1.492.392-.656 1.08-1.026.688-.37 1.545-.37.868 0 1.556.37.688.37 1.069 1.026.391.656.391 1.492 0 .837-.391 1.503-.381.656-1.07 1.027-.687.37-1.555.37zm0-1.132q.73 0 1.207-.487.476-.487.476-1.28 0-.794-.476-1.281-.477-.487-1.207-.487-.73 0-1.206.487-.466.487-.466 1.28 0 .794.466 1.281.476.487 1.206.487zM54.22 46.52h1.323v7.852H54.22zM62.74 54.446q-.857 0-1.545-.37t-1.08-1.027q-.38-.666-.38-1.503 0-.836.38-1.492.392-.656 1.08-1.026.688-.37 1.545-.37.868 0 1.556.37.687.37 1.068 1.026.392.656.392 1.492 0 .837-.392 1.503-.38.656-1.068 1.027-.688.37-1.556.37zm0-1.132q.73 0 1.206-.487.477-.487.477-1.28 0-.794-.477-1.281-.476-.487-1.206-.487t-1.207.487q-.465.487-.465 1.28 0 .794.465 1.281.477.487 1.207.487zM72.635 48.72v4.795q0 2.984-3.048 2.984-.815 0-1.545-.211-.73-.201-1.206-.593l.592-.995q.37.307.932.487.571.19 1.153.19.931 0 1.365-.423.434-.423.434-1.29v-.297q-.338.37-.825.56-.487.191-1.07.191-.803 0-1.46-.338-.645-.35-1.026-.974-.37-.625-.37-1.429t.37-1.418q.38-.624 1.026-.963.657-.339 1.46-.339.615 0 1.112.201.508.201.847.614v-.751zm-3.016 4.276q.751 0 1.228-.444.486-.455.486-1.175 0-.709-.486-1.153-.477-.445-1.228-.445-.762 0-1.249.445-.476.444-.476 1.153 0 .72.476 1.175.487.444 1.249.444zM23.015 61.95V67.6h-1.259v-.72q-.317.382-.794.593-.476.201-1.026.201-1.133 0-1.789-.624-.645-.635-.645-1.873V61.95h1.323v3.048q0 .762.338 1.143.35.37.984.37.71 0 1.122-.434.424-.444.424-1.27V61.95zM27.958 61.886q1.069 0 1.714.625.646.624.646 1.852V67.6h-1.323v-3.069q0-.74-.35-1.111-.348-.381-.994-.381-.73 0-1.154.444-.423.434-.423 1.26V67.6h-1.323V61.95h1.26v.73q.328-.392.825-.593.497-.2 1.122-.2zM37.589 59.749V67.6h-1.27v-.73q-.328.402-.815.603-.476.201-1.059.201-.814 0-1.47-.36-.646-.36-1.017-1.015-.37-.667-.37-1.524 0-.858.37-1.514t1.016-1.016q.657-.36 1.471-.36.561 0 1.027.19.466.191.794.572v-2.9zm-2.985 6.794q.476 0 .857-.212.381-.222.604-.624.222-.402.222-.931 0-.53-.222-.932-.223-.402-.604-.614-.38-.222-.857-.222-.476 0-.857.222-.381.212-.603.614-.223.402-.223.932 0 .529.223.93.222.403.603.625.38.212.857.212zM44.933 61.95v4.794q0 2.985-3.048 2.985-.814 0-1.545-.212-.73-.201-1.206-.593l.592-.995q.37.307.932.487.571.19 1.153.19.932 0 1.366-.423.434-.423.434-1.29v-.297q-.34.37-.826.56-.487.191-1.069.191-.804 0-1.46-.338-.646-.35-1.027-.974-.37-.624-.37-1.429 0-.804.37-1.418.381-.624 1.027-.963.656-.339 1.46-.339.614 0 1.111.201.508.201.847.614v-.751zm-3.016 4.275q.752 0 1.228-.444.487-.455.487-1.175 0-.709-.487-1.153-.476-.445-1.228-.445-.762 0-1.249.445-.476.444-.476 1.153 0 .72.476 1.175.487.444 1.25.444zM48.828 61.886q1.249 0 1.905.604.667.592.667 1.799V67.6H50.15v-.688q-.243.37-.698.572-.445.19-1.08.19t-1.111-.211q-.476-.223-.741-.604-.254-.391-.254-.878 0-.762.56-1.217.572-.466 1.79-.466h1.46v-.084q0-.593-.36-.91-.35-.318-1.048-.318-.476 0-.942.148-.455.148-.772.413l-.519-.963q.445-.339 1.07-.519.624-.18 1.322-.18zm-.18 4.826q.498 0 .879-.222.391-.233.55-.656v-.656h-1.365q-1.143 0-1.143.751 0 .36.285.572.286.211.794.211zm.286-5.387q-.519 0-.878-.349-.35-.35-.35-.857 0-.508.35-.868.36-.36.878-.36.53 0 .878.36.36.36.36.868t-.36.857q-.349.35-.878.35zm0-.54q.296 0 .487-.19.19-.19.19-.476 0-.296-.2-.487-.191-.201-.477-.201t-.476.201q-.19.19-.19.487 0 .286.19.476t.476.19zM58.459 64.807q0 .138-.021.392h-4.435q.117.624.604.995.497.36 1.227.36.932 0 1.535-.614l.709.815q-.381.455-.963.688-.582.232-1.313.232-.93 0-1.64-.37-.709-.37-1.1-1.027-.382-.666-.382-1.502 0-.826.37-1.482.382-.667 1.049-1.037.666-.37 1.502-.37.826 0 1.471.37.657.36 1.016 1.026.37.656.37 1.524zM55.6 62.945q-.635 0-1.08.38-.433.371-.528.995h3.206q-.084-.613-.518-.994t-1.08-.381zM59.729 59.749h1.323V67.6h-1.323zM64.534 67.675q-.688 0-1.344-.18-.657-.18-1.048-.455l.508-1.005q.38.254.91.413.54.148 1.058.148 1.186 0 1.186-.625 0-.296-.307-.412-.297-.117-.963-.223-.699-.105-1.143-.243-.434-.138-.762-.476-.318-.35-.318-.963 0-.805.667-1.28.677-.488 1.82-.488.582 0 1.164.138.583.127.953.35l-.508 1.005q-.72-.424-1.62-.424-.581 0-.888.18-.297.17-.297.455 0 .318.318.455.328.127 1.005.244.678.106 1.112.243.433.138.74.466.318.328.318.931 0 .794-.688 1.27t-1.873.476zM73.55 64.807q0 .138-.02.392h-4.435q.116.624.603.995.498.36 1.228.36.931 0 1.535-.614l.709.815q-.381.455-.963.688-.583.232-1.313.232-.931 0-1.64-.37-.71-.37-1.1-1.027-.382-.666-.382-1.502 0-.826.37-1.482.382-.667 1.048-1.037.667-.37 1.503-.37.826 0 1.471.37.656.36 1.016 1.026.37.656.37 1.524zm-2.857-1.862q-.635 0-1.08.38-.433.371-.529.995h3.207q-.084-.613-.518-.994t-1.08-.381z" style="font-style:normal;font-variant:normal;font-weight:600;font-stretch:normal;font-size:10.5833px;font-family:Montserrat;-inkscape-font-specification:'Montserrat, Semi-Bold';font-variant-ligatures:normal;font-variant-caps:normal;font-variant-numeric:normal;font-variant-east-asian:normal;text-align:center;text-anchor:middle"/></g></g><g aria-label="Hjælpere" style="font-style:normal;font-variant:normal;font-weight:600;font-stretch:normal;font-size:5.08px;line-height:1.25;font-family:Montserrat;-inkscape-font-specification:'Montserrat, Semi-Bold';font-variant-ligatures:normal;font-variant-caps:normal;font-variant-numeric:normal;font-variant-east-asian:normal;letter-spacing:0;word-spacing:0;white-space:pre;shape-inside:url(#valg_model_v3_se_angsten_svg__c);fill:#000;fill-opacity:1;stroke:none;stroke-width:.1272;stroke-miterlimit:4;stroke-dasharray:none;stroke-opacity:1" transform="matrix(2.08333 0 0 2.08333 429.988 260.668)"><path d="M-65.437 20.402v3.556h-.66v-1.524h-1.84v1.524h-.66v-3.556h.66v1.468h1.84v-1.468zM-64.822 24.98q-.402 0-.61-.158l.183-.473q.142.107.37.107.179 0 .27-.112.097-.107.097-.32v-2.779h.635v2.764q0 .452-.25.711-.248.26-.695.26zm.625-4.182q-.173 0-.29-.106-.117-.112-.117-.275 0-.162.117-.269.117-.112.29-.112.172 0 .29.107.116.102.116.26 0 .167-.117.284-.112.111-.29.111zM-58.61 22.592q0 .116-.015.203h-2.138q.05.305.284.482.234.178.594.178.437 0 .737-.295l.346.392q-.194.218-.473.33-.274.112-.625.112-.37 0-.675-.122-.3-.122-.508-.376-.163.264-.442.38-.28.118-.615.118-.508 0-.803-.229-.294-.234-.294-.61 0-.345.274-.558.274-.219.853-.219h.701v-.046q0-.284-.172-.436-.168-.153-.498-.153-.234 0-.457.071-.219.071-.371.198l-.249-.462q.213-.162.513-.249.3-.086.63-.086.716 0 1.01.416.184-.198.443-.304.264-.112.569-.112.391 0 .706.178.315.172.493.487.183.31.183.712zm-1.386-.87q-.285 0-.508.174-.219.172-.264.482h1.534q-.04-.31-.26-.482-.218-.173-.502-.173zm-2.088 1.81q.315 0 .493-.163.182-.163.182-.432v-.142h-.655q-.548 0-.548.35 0 .183.137.285.142.101.39.101zM-58 20.189h.635v3.77H-58zM-55.028 21.215q.396 0 .706.173.315.172.493.487t.178.727q0 .411-.178.731-.178.315-.493.488-.31.173-.706.173-.549 0-.869-.366v1.316h-.635v-3.699h.605v.356q.157-.193.386-.29.234-.096.513-.096zm-.071 2.235q.35 0 .574-.234.228-.233.228-.614t-.228-.615q-.224-.234-.574-.234-.229 0-.412.107-.183.102-.29.295-.106.193-.106.447t.107.447q.106.193.29.3.182.101.41.101zM-50.497 22.617q0 .066-.01.188h-2.128q.056.3.29.477.238.173.588.173.448 0 .737-.295l.34.392q-.182.218-.462.33-.28.112-.63.112-.447 0-.787-.178t-.528-.493q-.183-.32-.183-.721 0-.397.177-.712.183-.32.503-.497.32-.178.722-.178.396 0 .706.178.315.172.488.492.177.315.177.732zm-1.371-.894q-.305 0-.518.183-.209.178-.254.477h1.539q-.04-.294-.25-.477-.207-.183-.517-.183zM-49.283 21.642q.275-.427.966-.427v.604q-.082-.015-.148-.015-.37 0-.579.219-.208.213-.208.62v1.315h-.635v-2.713h.604zM-45.254 22.617q0 .066-.01.188h-2.129q.056.3.29.477.239.173.589.173.447 0 .737-.295l.34.392q-.183.218-.462.33-.28.112-.63.112-.447 0-.788-.178-.34-.178-.528-.493-.183-.32-.183-.721 0-.397.178-.712.183-.32.503-.497.32-.178.721-.178.397 0 .706.178.315.172.488.492.178.315.178.732zm-1.372-.894q-.305 0-.518.183-.208.178-.254.477h1.54q-.041-.294-.25-.477-.208-.183-.518-.183z" style="font-style:normal;font-variant:normal;font-weight:600;font-stretch:normal;font-size:5.08px;font-family:Montserrat;-inkscape-font-specification:'Montserrat, Semi-Bold';font-variant-ligatures:normal;font-variant-caps:normal;font-variant-numeric:normal;font-variant-east-asian:normal"/></g><circle cx="293.078" cy="367.755" r="6" style="display:inline;fill:#75d29c;fill-opacity:1;fill-rule:evenodd;stroke:none;stroke-width:1.4;stroke-linecap:square;stroke-opacity:1"/><path fill="none" stroke="#000" stroke-linecap="round" stroke-linejoin="round" stroke-width=".127" d="m18.5 7.5 5 5-5 5" style="stroke:#000;stroke-width:2.19231;stroke-miterlimit:4;stroke-dasharray:none;stroke-opacity:1" transform="matrix(.65552 0 0 .62211 279.87 360.228)"/><circle cx="293.078" cy="406.522" r="6" style="display:inline;fill:#f3f3f3;fill-opacity:1;fill-rule:evenodd;stroke:none;stroke-width:1.4;stroke-linecap:square;stroke-opacity:1"/><path fill="none" stroke="#000" stroke-linecap="round" stroke-linejoin="round" stroke-width=".127" d="m18.5 7.5 5 5-5 5" style="stroke:#727272;stroke-width:2.19231;stroke-miterlimit:4;stroke-dasharray:none;stroke-opacity:1" transform="matrix(.65552 0 0 .62211 279.995 398.746)"/><g aria-label="Selvomsorg" style="font-style:normal;font-weight:400;font-size:5.08px;line-height:1.25;font-family:sans-serif;letter-spacing:0;word-spacing:0;white-space:pre;shape-inside:url(#valg_model_v3_se_angsten_svg__d);fill:#727272;fill-opacity:1;stroke:none;stroke-width:.1272;stroke-miterlimit:4;stroke-dasharray:none;stroke-opacity:1" transform="matrix(2.08333 0 0 2.08333 426.754 366.846)"><path d="M-56.035 20.108q-.194 0-.346-.034-.153-.033-.336-.09-.111-.04-.167-.044l.03-.674h.238l.063.484q.064.06.205.108.145.045.317.045.283 0 .428-.127.15-.126.15-.35 0-.145-.083-.25-.078-.104-.212-.178-.13-.075-.361-.175-.209-.094-.365-.19-.153-.097-.269-.257-.111-.164-.111-.392 0-.204.108-.365.111-.164.316-.257.209-.093.485-.093.17 0 .301.026.134.026.302.071.075.026.127.034l-.023.625h-.227l-.074-.458q-.038-.037-.157-.07-.115-.034-.253-.034-.257 0-.391.108-.13.108-.13.313 0 .149.077.25.082.1.202.17.119.072.38.195.242.115.395.208.152.093.26.246.112.149.112.358 0 .197-.112.38-.108.182-.335.301-.224.116-.544.116zM-53.818 20.108q-.451 0-.69-.294-.234-.295-.234-.786 0-.325.123-.57.123-.246.342-.38.224-.135.507-.135.347 0 .537.194.193.19.204.548 0 .227-.026.346h-1.281q.007.369.171.596.164.224.466.224.149 0 .31-.052.163-.056.252-.13l.071.163q-.108.112-.32.194-.213.082-.432.082zm.38-1.274q.01-.078.01-.16-.003-.243-.103-.38-.097-.142-.31-.142-.216 0-.346.157-.127.156-.145.525zM-52.436 17.288l-.302-.041v-.16l.6-.071h.007l.082.056v2.783l.317.03v.182h-1.006v-.183l.302-.033zM-51.639 18h.864v.174l-.264.049.376 1.073.156.473.135-.458.376-1.088-.253-.049V18h.756v.175l-.194.049-.719 1.874h-.317l-.748-1.874-.168-.049zM-49.352 19.028q0-.336.138-.582.138-.246.362-.372.227-.13.484-.13.47 0 .704.297.238.298.238.783 0 .339-.138.585-.137.246-.365.372-.223.127-.48.127-.47 0-.708-.298-.235-.298-.235-.782zm.965.868q.257 0 .395-.213.138-.212.138-.63 0-.413-.127-.655-.126-.242-.406-.242-.257 0-.398.212-.138.212-.138.63 0 .413.13.655.13.243.406.243zM-47.09 19.884l.227-.033v-1.565l-.268-.067v-.201l.532-.067.067.048.023.15-.004.119q.13-.12.354-.217.227-.1.406-.1.201 0 .324.067t.186.209q.12-.101.332-.187.216-.09.402-.09.231 0 .362.09.13.086.182.272.056.183.056.492v1.047l.268.033v.183h-.886v-.183l.23-.033v-1.036q0-.216-.033-.343-.03-.13-.12-.193-.085-.064-.249-.064-.123 0-.26.056-.138.052-.235.127.033.145.033.413v1.04l.265.033v.183h-.902v-.183l.246-.033v-1.043q0-.224-.03-.347-.026-.123-.104-.182-.078-.064-.238-.064-.134 0-.287.067-.15.068-.261.157v1.412l.25.033v.183h-.868zM-43.034 19.769q.038.056.157.1.123.045.257.045.212 0 .313-.082.1-.082.1-.227 0-.1-.063-.175-.063-.075-.179-.13-.111-.06-.324-.142-.287-.108-.42-.257-.131-.153-.131-.399 0-.164.097-.287.1-.123.272-.19.175-.07.387-.07.172 0 .298.026.13.026.209.052.078.026.104.033v.462h-.227l-.075-.275q-.022-.045-.119-.075-.097-.033-.216-.033-.168 0-.272.074-.1.075-.1.201 0 .112.052.187.056.07.138.115.081.045.223.104l.075.03q.208.082.339.157.13.074.216.197.089.12.089.294 0 .276-.216.44-.212.164-.585.164-.182 0-.384-.049-.197-.052-.324-.104v-.477h.242zM-41.499 19.028q0-.336.138-.582.138-.246.362-.372.227-.13.484-.13.47 0 .704.297.238.298.238.783 0 .339-.138.585-.137.246-.365.372-.223.127-.48.127-.47 0-.708-.298-.235-.298-.235-.782zm.965.868q.257 0 .395-.213.138-.212.138-.63 0-.413-.127-.655-.126-.242-.406-.242-.257 0-.398.212-.138.212-.138.63 0 .413.13.655.13.243.406.243zM-39.226 19.884l.28-.022v-1.576l-.269-.067v-.201l.514-.067h.008l.082.067v.067l-.012.29h.012q.037-.063.134-.163.096-.1.25-.183.152-.086.33-.086.075 0 .124.02v.416q-.026-.018-.086-.033-.056-.019-.127-.019-.309 0-.573.19v1.341l.473.03v.179h-1.14zM-36.637 21.073q-.477 0-.693-.153-.212-.149-.212-.414 0-.163.1-.301.105-.138.246-.209-.171-.097-.171-.313 0-.134.078-.253.078-.12.205-.183-.186-.082-.287-.234-.097-.153-.097-.362 0-.216.12-.376.122-.16.32-.246.2-.086.424-.086.377 0 .589.157.056-.056.171-.108.116-.052.246-.052h.127v.328h-.41q.09.137.09.32 0 .22-.112.391-.108.168-.306.26-.193.094-.44.094-.16 0-.286-.034-.052.053-.086.116-.033.063-.033.123 0 .134.089.186.09.049.32.049h.421q.362 0 .537.137.175.138.175.392 0 .212-.153.387-.153.179-.413.28-.257.104-.56.104zm.026-1.945q.425 0 .425-.503 0-.25-.112-.365-.108-.12-.328-.12-.205 0-.324.116-.12.112-.12.362 0 .234.112.372.116.138.347.138zm.007 1.729q.183 0 .343-.056.164-.052.265-.16.1-.105.1-.246 0-.168-.09-.246-.089-.075-.346-.075h-.44q-.148 0-.234-.018-.153.167-.153.376t.127.317q.127.108.428.108z" style="font-style:normal;font-variant:normal;font-weight:400;font-stretch:normal;font-size:3.72533px;font-family:Merriweather;-inkscape-font-specification:'Merriweather, Normal';font-variant-ligatures:normal;font-variant-caps:normal;font-variant-numeric:normal;font-variant-east-asian:normal;fill:#727272;fill-opacity:1"/></g><circle cx="293.078" cy="387.156" r="6" style="display:inline;fill:#f3f3f3;fill-opacity:1;fill-rule:evenodd;stroke:none;stroke-width:1.4;stroke-linecap:square;stroke-opacity:1"/><path fill="none" stroke="#000" stroke-linecap="round" stroke-linejoin="round" stroke-width=".127" d="m18.5 7.5 5 5-5 5" style="stroke:#727272;stroke-width:2.19231;stroke-miterlimit:4;stroke-dasharray:none;stroke-opacity:1" transform="matrix(.65552 0 0 .62211 279.995 379.38)"/><g aria-label="Accept" style="font-style:normal;font-weight:400;font-size:5.08px;line-height:1.25;font-family:sans-serif;letter-spacing:0;word-spacing:0;white-space:pre;shape-inside:url(#valg_model_v3_se_angsten_svg__e);fill:#727272;fill-opacity:1;stroke:none;stroke-width:.1272;stroke-miterlimit:4;stroke-dasharray:none;stroke-opacity:1" transform="matrix(2.08333 0 0 2.08333 427.336 347.318)"><path d="M-56.035 17.277h.41l.905 2.57.231.037v.183h-.983v-.183l.309-.037-.175-.551h-1.088l-.175.551.32.037v.183h-.883v-.183l.231-.037zm.235.596-.093-.328-.09.335-.376 1.196h.95zM-54.414 19.046q0-.31.119-.559.123-.25.357-.395.239-.149.57-.149.16 0 .276.03.116.03.276.082l-.015.574h-.242l-.082-.38q-.023-.104-.283-.104-.261 0-.414.212-.149.209-.149.596 0 .44.168.67.171.228.443.228.157 0 .294-.049.142-.048.243-.115l.07.149q-.1.104-.298.19-.193.082-.395.082-.305 0-.517-.138-.209-.138-.317-.376-.104-.242-.104-.548zM-52.503 19.046q0-.31.119-.559.123-.25.358-.395.238-.149.57-.149.16 0 .275.03.116.03.276.082l-.015.574h-.242l-.082-.38q-.022-.104-.283-.104-.261 0-.414.212-.149.209-.149.596 0 .44.168.67.171.228.443.228.157 0 .294-.049.142-.048.243-.115l.07.149q-.1.104-.298.19-.193.082-.395.082-.305 0-.517-.138-.209-.138-.317-.376-.104-.242-.104-.548zM-49.631 20.108q-.45 0-.69-.294-.234-.295-.234-.786 0-.325.123-.57.123-.246.343-.38.223-.135.506-.135.347 0 .537.194.194.19.205.548 0 .227-.026.346h-1.282q.008.369.171.596.164.224.466.224.15 0 .31-.052.163-.056.253-.13l.07.163q-.108.112-.32.194-.212.082-.432.082zm.38-1.274q.011-.078.011-.16-.004-.243-.104-.38-.097-.142-.31-.142-.215 0-.346.157-.127.156-.145.525zM-46.506 18.96q0 .317-.13.582-.13.26-.372.413-.243.153-.567.153-.09 0-.193-.015-.105-.015-.168-.037l.011.313v.376l.388.04v.183h-1.04v-.182l.268-.041v-2.459l-.272-.067v-.201l.53-.067h.007l.078.067v.22q.112-.123.276-.209.168-.086.372-.086.22 0 .403.108.186.109.298.336.112.227.112.573zm-.964-.756q-.142 0-.265.06-.123.06-.19.13V19.8q.026.044.13.082.109.033.235.033.287 0 .462-.227.179-.227.179-.686 0-.402-.156-.6-.153-.197-.395-.197zM-45.544 20.104q-.213 0-.317-.097-.104-.097-.104-.331v-1.43h-.269v-.168q.02-.004.105-.027.085-.022.115-.04.06-.034.093-.135.03-.07.071-.227l.049-.186h.22l.007.536h.622v.246h-.622v1.144q0 .212.011.298.015.086.056.112.045.026.149.026.1 0 .22-.026.123-.026.19-.056l.056.167q-.09.067-.291.13-.197.064-.361.064z" style="font-style:normal;font-variant:normal;font-weight:400;font-stretch:normal;font-size:3.72533px;font-family:Merriweather;-inkscape-font-specification:'Merriweather, Normal';font-variant-ligatures:normal;font-variant-caps:normal;font-variant-numeric:normal;font-variant-east-asian:normal;fill:#727272;fill-opacity:1"/></g><g style="display:inline;stroke-width:1.55" transform="translate(18.2 95.672) scale(.64516)"><circle cx="389.053" cy="119.971" r="9.3" style="display:inline;fill:#75d29c;fill-opacity:1;fill-rule:evenodd;stroke:none;stroke-width:2.17;stroke-linecap:square;stroke-opacity:1" transform="translate(37.01 240.49)"/><path fill="none" stroke="#000" stroke-linecap="round" stroke-linejoin="round" stroke-width=".127" d="m18.5 7.5 5 5-5 5" style="stroke:#0e0000;stroke-width:2.19231;stroke-miterlimit:4;stroke-dasharray:none;stroke-opacity:1" transform="matrix(1.01606 0 0 .96427 405.784 348.409)"/></g><path d="M308.245 325.597h2.064v.388l-.69.093 1.28 3.64.287.947.256-.963 1.157-3.624-.613-.093v-.388h1.73v.388l-.496.093-1.84 5.347h-.675l-1.987-5.347-.473-.093zM314.834 326.28q-.248 0-.373-.14-.124-.14-.124-.357 0-.248.148-.411.155-.163.419-.163t.388.14q.124.14.124.356 0 .264-.155.42-.148.155-.42.155zm-.31 1.373-.59-.14v-.41l1.203-.148h.015l.179.14v3.826l.62.062v.38h-2.056v-.38l.629-.07zM318.179 331.449q-.466 0-.854-.233-.388-.233-.62-.714-.226-.481-.226-1.188 0-.66.272-1.203t.776-.853q.512-.319 1.203-.319.396 0 .722.086v-1.451l-.792-.094v-.333l1.397-.14h.023l.171.124v5.837h.45v.357q-.248.054-.434.085-.179.03-.38.03-.202 0-.288-.069-.085-.07-.085-.295v-.248q-.217.264-.574.442-.35.179-.761.179zm.31-.551q.303 0 .567-.132.264-.14.396-.319v-2.84q-.062-.093-.295-.163-.225-.078-.481-.078-.606 0-.97.466-.357.458-.357 1.42 0 .838.318 1.242t.822.404zM323.231 331.449q-.939 0-1.435-.613-.49-.614-.49-1.638 0-.675.257-1.188.256-.512.714-.791.466-.28 1.055-.28.722 0 1.118.404.404.396.427 1.14 0 .474-.054.723h-2.67q.015.768.357 1.241.341.466.97.466.31 0 .644-.109.342-.116.528-.271l.147.341q-.225.233-.667.404-.443.17-.9.17zm.792-2.655q.023-.163.023-.333-.008-.505-.217-.792-.202-.295-.644-.295-.45 0-.722.326-.264.326-.303 1.094zM326.01 327.653l-.559-.14v-.418l1.11-.14h.023l.163.14v.326l-.008.186q.28-.248.738-.45.457-.202.877-.202.489 0 .752.186.272.187.38.575.11.38.11 1.032v2.173l.543.054v.388h-1.84v-.38l.481-.062v-2.181q0-.458-.062-.714-.062-.264-.233-.388-.17-.132-.496-.132-.28 0-.598.14-.318.14-.566.326v2.941l.527.07v.38h-1.831v-.38l.489-.07z" style="font-style:normal;font-variant:normal;font-weight:400;font-stretch:normal;font-size:3.72533px;line-height:1.25;font-family:Merriweather;-inkscape-font-specification:'Merriweather, Normal';font-variant-ligatures:normal;font-variant-caps:normal;font-variant-numeric:normal;font-variant-east-asian:normal;letter-spacing:0;word-spacing:0;white-space:pre;fill:#000;fill-opacity:1;stroke:none;stroke-width:.265;stroke-miterlimit:4;stroke-dasharray:none;stroke-opacity:1"/><path d="M310.014 370.006q-.403 0-.721-.07-.319-.07-.699-.186-.233-.086-.35-.093l.063-1.405h.497l.132 1.009q.132.124.426.225.303.093.66.093.59 0 .893-.264.31-.264.31-.73 0-.302-.17-.52-.164-.217-.443-.372-.272-.155-.753-.365-.434-.194-.76-.395-.319-.202-.56-.536-.232-.341-.232-.815 0-.427.225-.76.233-.342.66-.536.434-.194 1.009-.194.357 0 .628.054.28.055.629.148.155.054.264.07l-.047 1.303h-.473l-.155-.954q-.078-.078-.326-.148-.241-.07-.528-.07-.536 0-.815.226-.272.225-.272.651 0 .31.163.52.171.21.42.357.248.148.791.404.504.24.823.435.318.194.543.512.233.31.233.745 0 .411-.233.792-.225.38-.699.628-.465.24-1.133.24zM314.632 370.006q-.939 0-1.436-.613-.489-.613-.489-1.638 0-.675.257-1.187.256-.512.714-.792.465-.28 1.055-.28.722 0 1.118.404.403.396.427 1.141 0 .474-.055.722h-2.67q.016.768.357 1.242.342.465.97.465.311 0 .645-.108.341-.117.528-.272l.147.342q-.225.232-.667.403-.443.17-.9.17zm.792-2.654q.023-.163.023-.334-.008-.505-.217-.792-.202-.295-.644-.295-.45 0-.722.326-.264.326-.303 1.095zM318.784 368.756q0-.73.73-1.07.73-.35 1.847-.373v-.217q0-.365-.078-.575-.077-.21-.271-.303-.186-.1-.536-.1-.396 0-.714.116-.31.109-.62.272l-.195-.404q.101-.085.373-.225t.629-.248q.357-.109.714-.109.55 0 .869.155.326.148.465.481.14.334.14.893v2.491h.458v.342q-.155.039-.396.077-.233.04-.411.04-.217 0-.295-.07-.078-.063-.078-.288v-.256q-.232.233-.574.427-.334.194-.76.194-.56 0-.932-.318-.365-.326-.365-.932zm1.63.722q.202 0 .466-.124t.481-.295v-1.335q-.846 0-1.28.264-.427.256-.427.675 0 .42.201.621.21.194.56.194zM323.604 366.21l-.559-.139v-.42l1.11-.139h.023l.163.14v.326l-.008.186q.28-.248.738-.45.458-.202.877-.202.489 0 .752.187.272.186.38.574.11.38.11 1.032v2.173l.543.054v.389h-1.84v-.38l.482-.063v-2.18q0-.459-.063-.715-.062-.264-.232-.388-.171-.132-.497-.132-.28 0-.598.14-.318.14-.566.326v2.941l.527.07v.38h-1.831v-.38l.489-.07zM330.147 372.016q-.994 0-1.444-.318-.442-.31-.442-.862 0-.341.21-.628.217-.287.511-.435-.357-.202-.357-.652 0-.28.163-.528t.427-.38q-.388-.17-.597-.489-.202-.318-.202-.753 0-.45.248-.784.256-.333.668-.512.419-.178.884-.178.784 0 1.227.326.116-.117.357-.225.24-.11.512-.11h.264v.684h-.854q.186.287.186.667 0 .458-.232.815-.226.35-.637.544-.403.194-.916.194-.333 0-.597-.07-.109.108-.179.24-.07.132-.07.256 0 .28.187.388.186.101.667.101h.877q.753 0 1.118.288.364.287.364.814 0 .443-.318.808-.318.372-.861.582-.536.217-1.164.217zm.054-4.051q.885 0 .885-1.048 0-.52-.233-.76-.225-.249-.683-.249-.427 0-.675.24-.249.233-.249.753 0 .49.233.777.24.287.722.287zm.016 3.6q.38 0 .714-.116.341-.108.55-.333.21-.218.21-.512 0-.35-.186-.513-.186-.155-.722-.155h-.916q-.31 0-.489-.039-.318.35-.318.784 0 .435.264.66.264.225.893.225zM333.724 369.3q.078.116.326.21.257.092.536.092.442 0 .652-.17.21-.171.21-.474 0-.21-.132-.365t-.373-.271q-.233-.124-.675-.295-.598-.225-.877-.536-.272-.318-.272-.83 0-.342.202-.598.21-.256.566-.396.365-.147.808-.147.357 0 .62.054.272.055.435.109.163.054.217.07v.962h-.473l-.155-.574q-.047-.093-.249-.155-.201-.07-.45-.07-.349 0-.566.155-.21.155-.21.42 0 .232.109.387.116.148.287.24.17.094.466.218l.155.062q.434.17.706.326.272.155.45.411.187.249.187.614 0 .574-.45.915-.443.342-1.22.342-.38 0-.798-.101-.412-.109-.676-.217v-.994h.505zM338.25 369.998q-.443 0-.66-.202-.218-.201-.218-.69v-2.98h-.559v-.35q.04-.008.218-.054.178-.047.24-.086.124-.07.194-.279.062-.147.148-.473l.1-.388h.459l.015 1.117h1.296v.512h-1.296v2.383q0 .442.023.62.031.18.117.234.093.054.31.054.21 0 .458-.054.256-.055.396-.117l.116.35q-.186.14-.605.271-.411.132-.753.132zM341.99 370.006q-.939 0-1.436-.613-.489-.613-.489-1.638 0-.675.256-1.187.257-.512.714-.792.466-.28 1.056-.28.722 0 1.118.404.403.396.426 1.141 0 .474-.054.722h-2.67q.016.768.357 1.242.342.465.97.465.31 0 .645-.108.341-.117.527-.272l.148.342q-.225.232-.668.403-.442.17-.9.17zm.792-2.654q.023-.163.023-.334-.008-.505-.217-.792-.202-.295-.645-.295-.45 0-.721.326-.264.326-.303 1.095zM344.769 366.21l-.56-.139v-.42l1.11-.139h.024l.163.14v.326l-.008.186q.28-.248.737-.45.458-.202.877-.202.49 0 .753.187.272.186.38.574.109.38.109 1.032v2.173l.543.054v.389h-1.84v-.38l.482-.063v-2.18q0-.459-.062-.715-.062-.264-.233-.388-.17-.132-.497-.132-.279 0-.597.14-.318.14-.567.326v2.941l.528.07v.38h-1.832v-.38l.49-.07zM354.827 369.99q-.217 0-.326-.085-.101-.085-.101-.28v-.263q-.256.256-.644.45-.38.194-.768.194-.722 0-1.025-.388-.303-.388-.303-1.28v-2.251l-.434-.125v-.341l1.086-.101h.008l.148.093v2.662q0 .45.062.706.07.249.233.373.17.116.489.116.31 0 .582-.132.271-.132.473-.31v-2.942l-.559-.124v-.341l1.18-.101h.008l.179.093v3.912h.465l-.008.349q-.217.054-.38.085-.155.031-.365.031zM357.877 370.006q-.466 0-.854-.233-.388-.233-.62-.714-.226-.481-.226-1.187 0-.66.272-1.203.272-.544.776-.854.512-.318 1.203-.318.396 0 .722.085v-1.451l-.792-.093v-.334l1.397-.14h.024l.17.124v5.837h.45v.357q-.248.054-.434.085-.179.031-.38.031-.202 0-.288-.07-.085-.07-.085-.295v-.248q-.217.264-.574.443-.35.178-.761.178zm.31-.551q.303 0 .567-.132.264-.14.396-.318v-2.84q-.062-.094-.295-.164-.225-.077-.481-.077-.606 0-.97.465-.357.458-.357 1.42 0 .839.318 1.242.318.404.822.404zM362.93 370.006q-.94 0-1.436-.613-.49-.613-.49-1.638 0-.675.257-1.187.256-.512.714-.792.466-.28 1.055-.28.722 0 1.118.404.404.396.427 1.141 0 .474-.054.722h-2.67q.015.768.357 1.242.341.465.97.465.31 0 .644-.108.342-.117.528-.272l.147.342q-.225.232-.667.403-.443.17-.9.17zm.791-2.654q.023-.163.023-.334-.008-.505-.217-.792-.202-.295-.644-.295-.45 0-.722.326-.264.326-.303 1.095zM365.863 366.125h-.73v-.357l.73-.147v-.365q0-.481.249-.885.256-.403.66-.636.41-.24.868-.24.264 0 .458.07v.775q-.07-.062-.279-.116-.202-.062-.45-.062-.365 0-.536.194-.163.186-.163.652v.613h1.071v.504h-1.07v3.353l.86.062v.38h-2.328v-.38l.66-.07zM368.362 369.54l.582-.046v-3.283l-.558-.14v-.42l1.07-.139h.016l.17.14v.14l-.023.605h.024q.077-.132.28-.342.2-.21.52-.38.317-.178.69-.178.155 0 .256.038v.87q-.054-.04-.179-.07-.116-.039-.263-.039-.645 0-1.196.396v2.794l.986.062v.372h-2.375zM371.901 368.756q0-.73.73-1.07.73-.35 1.847-.373v-.217q0-.365-.078-.575-.077-.21-.271-.303-.187-.1-.536-.1-.396 0-.714.116-.31.109-.62.272l-.195-.404q.101-.085.373-.225.271-.14.628-.248.357-.109.714-.109.552 0 .87.155.326.148.465.481.14.334.14.893v2.491h.458v.342q-.155.039-.396.077-.233.04-.411.04-.217 0-.295-.07-.078-.063-.078-.288v-.256q-.232.233-.574.427-.334.194-.76.194-.56 0-.932-.318-.365-.326-.365-.932zm1.63.722q.202 0 .466-.124t.481-.295v-1.335q-.846 0-1.28.264-.427.256-.427.675 0 .42.201.621.21.194.56.194z" style="font-size:3.72533px;line-height:1.25;font-family:Merriweather;-inkscape-font-specification:'Merriweather, Normal';letter-spacing:0;word-spacing:0;white-space:pre;fill:#000;fill-opacity:1;stroke-width:.265"/><g aria-label="Udfordr din angst" style="font-size:5.08px;line-height:1.25;letter-spacing:0;word-spacing:0;white-space:pre;shape-inside:url(#valg_model_v3_se_angsten_svg__f);stroke-width:.1272" transform="matrix(2.08333 0 0 2.08333 405.882 235.034)"><path d="M-55.696 20.097q-.548 0-.808-.29-.257-.295-.257-.91V17.53l-.265-.045V17.3h.995v.186l-.317.049v1.404q0 .507.179.73.183.224.522.224t.506-.239q.172-.238.172-.693v-1.426l-.313-.049V17.3h.868v.186l-.272.045v1.412q0 .581-.276.868-.276.287-.734.287zM-53.386 20.108q-.224 0-.41-.112-.186-.112-.298-.343-.108-.23-.108-.57 0-.316.13-.577.13-.26.373-.41.246-.153.577-.153.19 0 .347.041v-.696l-.38-.045v-.16l.67-.067h.012l.081.06v2.8h.217v.172q-.12.026-.21.041-.085.015-.182.015-.096 0-.137-.033-.041-.034-.041-.142v-.12q-.105.127-.276.213-.168.086-.365.086zm.149-.265q.145 0 .272-.063.126-.067.19-.153v-1.363q-.03-.045-.142-.078-.108-.038-.23-.038-.291 0-.466.224-.172.22-.172.682 0 .402.153.596.153.193.395.193zM-51.58 18.245h-.35v-.171l.35-.071v-.175q0-.231.12-.425.123-.193.316-.305.198-.116.418-.116.126 0 .22.034v.372q-.034-.03-.135-.056-.096-.03-.216-.03-.175 0-.257.094-.078.09-.078.313v.294h.514v.242h-.514v1.61l.414.03v.182h-1.118v-.183l.317-.033zM-50.387 19.028q0-.336.138-.582.137-.246.36-.372.228-.13.485-.13.47 0 .704.297.239.298.239.783 0 .339-.138.585-.138.246-.365.372-.224.127-.48.127-.47 0-.709-.298-.234-.298-.234-.782zm.965.868q.257 0 .394-.213.138-.212.138-.63 0-.413-.126-.655-.127-.242-.406-.242-.257 0-.399.212-.138.212-.138.63 0 .413.13.655.13.243.407.243zM-48.115 19.884l.28-.022v-1.576l-.269-.067v-.201l.514-.067h.008l.082.067v.067l-.011.29h.01q.038-.063.135-.163t.25-.183q.152-.086.331-.086.075 0 .123.02v.416q-.026-.018-.086-.033-.055-.019-.126-.019-.31 0-.574.19v1.341l.473.03v.179h-1.14zM-45.611 20.108q-.224 0-.41-.112-.186-.112-.298-.343-.108-.23-.108-.57 0-.316.13-.577.13-.26.373-.41.246-.153.577-.153.19 0 .347.041v-.696l-.38-.045v-.16l.67-.067h.011l.082.06v2.8h.216v.172q-.119.026-.208.041-.086.015-.183.015t-.138-.033q-.04-.034-.04-.142v-.12q-.105.127-.276.213-.168.086-.365.086zm.149-.265q.145 0 .272-.063.126-.067.19-.153v-1.363q-.03-.045-.142-.078-.108-.038-.231-.038-.29 0-.466.224-.171.22-.171.682 0 .402.153.596.152.193.395.193zM-44.095 19.884l.28-.022v-1.576l-.27-.067v-.201l.515-.067h.008l.082.067v.067l-.012.29h.012q.037-.063.134-.163.096-.1.25-.183.152-.086.33-.086.075 0 .124.02v.416q-.026-.018-.086-.033-.056-.019-.127-.019-.309 0-.573.19v1.341l.473.03v.179h-1.14zM-40.709 20.108q-.223 0-.41-.112-.186-.112-.298-.343-.108-.23-.108-.57 0-.316.13-.577.131-.26.373-.41.246-.153.578-.153.19 0 .346.041v-.696l-.38-.045v-.16l.67-.067h.012l.082.06v2.8h.216v.172q-.12.026-.209.041-.085.015-.182.015-.097 0-.138-.033-.041-.034-.041-.142v-.12q-.104.127-.276.213-.167.086-.365.086zm.15-.265q.144 0 .271-.063.127-.067.19-.153v-1.363q-.03-.045-.142-.078-.108-.038-.23-.038-.291 0-.466.224-.172.22-.172.682 0 .402.153.596.153.193.395.193zM-38.76 17.627q-.12 0-.18-.067-.059-.067-.059-.172 0-.119.07-.197.075-.078.202-.078t.186.067q.06.067.06.171 0 .127-.075.201-.07.075-.2.075zm-.15.66-.283-.068v-.197l.578-.071h.007l.086.067v1.837l.298.03v.182h-.987v-.183l.301-.033zM-37.736 18.286l-.268-.067v-.201l.532-.067h.012l.078.067v.156l-.004.09q.134-.12.354-.216.22-.097.421-.097.235 0 .361.09.13.089.183.275.052.183.052.495v1.044l.26.026v.186h-.882v-.183l.23-.03v-1.046q0-.22-.029-.343-.03-.127-.112-.186-.082-.064-.238-.064-.134 0-.287.067-.153.068-.272.157v1.412l.253.033v.183h-.879v-.183l.235-.033zM-34.603 19.508q0-.35.35-.514.35-.168.887-.179v-.104q0-.175-.038-.276-.037-.1-.13-.145-.09-.049-.257-.049-.19 0-.343.056-.149.052-.298.13l-.093-.193q.049-.041.179-.108t.302-.12q.171-.051.342-.051.265 0 .418.074.156.07.223.231.067.16.067.429v1.195h.22v.164q-.074.019-.19.038-.112.018-.197.018-.105 0-.142-.033-.037-.03-.037-.138v-.123q-.112.112-.276.205-.16.093-.365.093-.268 0-.447-.153-.175-.156-.175-.447zm.782.347q.097 0 .224-.06.126-.06.23-.142v-.64q-.405 0-.614.126-.205.123-.205.324 0 .202.097.298.1.094.268.094zM-32.29 18.286l-.268-.067v-.201l.533-.067h.011l.078.067v.156l-.003.09q.134-.12.353-.216.22-.097.421-.097.235 0 .362.09.13.089.182.275.052.183.052.495v1.044l.261.026v.186h-.883v-.183l.231-.03v-1.046q0-.22-.03-.343-.03-.127-.111-.186-.082-.064-.239-.064-.134 0-.287.067-.152.068-.271.157v1.412l.253.033v.183h-.88v-.183l.235-.033zM-29.15 21.073q-.476 0-.692-.153-.212-.149-.212-.414 0-.163.1-.301.104-.138.246-.209-.171-.097-.171-.313 0-.134.078-.253.078-.12.205-.183-.187-.082-.287-.234-.097-.153-.097-.362 0-.216.12-.376.122-.16.32-.246.2-.086.424-.086.377 0 .589.157.056-.056.171-.108.116-.052.246-.052h.127v.328h-.41q.09.137.09.32 0 .22-.112.391-.108.168-.306.26-.194.094-.44.094-.16 0-.286-.034-.052.053-.086.116-.033.063-.033.123 0 .134.089.186.09.049.32.049h.421q.362 0 .537.137.175.138.175.392 0 .212-.153.387-.153.179-.413.28-.257.104-.56.104zm.027-1.945q.425 0 .425-.503 0-.25-.112-.365-.108-.12-.328-.12-.205 0-.324.116-.12.112-.12.362 0 .234.112.372.116.138.347.138zm.007 1.729q.183 0 .343-.056.164-.052.265-.16.1-.105.1-.246 0-.168-.09-.246-.089-.075-.346-.075h-.44q-.148 0-.234-.018-.153.167-.153.376t.127.317q.127.108.428.108zM-27.432 19.769q.037.056.157.1.123.045.257.045.212 0 .313-.082.1-.082.1-.227 0-.1-.063-.175-.063-.075-.179-.13-.112-.06-.324-.142-.287-.108-.421-.257-.13-.153-.13-.399 0-.164.096-.287.101-.123.272-.19.175-.07.388-.07.171 0 .298.026.13.026.208.052.079.026.105.033v.462h-.227l-.075-.275q-.022-.045-.12-.075-.096-.033-.215-.033-.168 0-.272.074-.1.075-.1.201 0 .112.051.187.056.07.138.115.082.045.224.104l.074.03q.209.082.34.157.13.074.215.197.09.12.09.294 0 .276-.216.44-.213.164-.585.164-.183 0-.384-.049-.197-.052-.324-.104v-.477h.242zM-25.26 20.104q-.212 0-.317-.097-.104-.097-.104-.331v-1.43h-.268v-.168l.104-.027q.086-.022.116-.04.06-.034.093-.135.03-.07.07-.227l.049-.186h.22l.007.536h.622v.246h-.622v1.144q0 .212.011.298.015.086.056.112.045.026.15.026.1 0 .22-.026.122-.026.19-.056l.055.167q-.09.067-.29.13-.198.064-.362.064z" style="font-size:3.72533px;font-family:Merriweather;-inkscape-font-specification:'Merriweather, Normal'"/></g><circle cx="293.078" cy="425.263" r="6" style="display:inline;fill:#f3f3f3;fill-opacity:1;fill-rule:evenodd;stroke:none;stroke-width:1.4;stroke-linecap:square;stroke-opacity:1"/><path fill="none" stroke="#000" stroke-linecap="round" stroke-linejoin="round" stroke-width=".127" d="m18.5 7.5 5 5-5 5" style="stroke:#727272;stroke-width:2.19231;stroke-miterlimit:4;stroke-dasharray:none;stroke-opacity:1" transform="matrix(.65552 0 0 .62211 279.995 417.487)"/><g aria-label="Netværk" style="font-style:normal;font-weight:400;font-size:5.08px;line-height:1.25;font-family:sans-serif;letter-spacing:0;word-spacing:0;white-space:pre;shape-inside:url(#valg_model_v3_se_angsten_svg__g);fill:#727272;fill-opacity:1;stroke:none;stroke-width:.1272;stroke-miterlimit:4;stroke-dasharray:none;stroke-opacity:1" transform="matrix(2.08333 0 0 2.08333 426.847 386.593)"><path d="m-56.63 17.53-.299-.045V17.3h.693l1.24 1.818.21.395V17.53l-.325-.045V17.3h.88v.186l-.299.045v2.537h-.294l-1.267-1.86-.287-.49v2.13l.354.037v.183h-.905v-.183l.298-.04zM-53.055 20.108q-.45 0-.689-.294-.235-.295-.235-.786 0-.325.123-.57.123-.246.343-.38.224-.135.507-.135.346 0 .536.194.194.19.205.548 0 .227-.026.346h-1.281q.007.369.17.596.165.224.467.224.149 0 .309-.052.164-.056.253-.13l.07.163q-.107.112-.32.194-.212.082-.432.082zm.38-1.274q.012-.078.012-.16-.004-.243-.105-.38-.097-.142-.309-.142-.216 0-.346.157-.127.156-.146.525zM-51.307 20.104q-.213 0-.317-.097-.104-.097-.104-.331v-1.43h-.269v-.168l.105-.027q.085-.022.115-.04.06-.034.093-.135.03-.07.071-.227l.048-.186h.22l.008.536h.622v.246h-.622v1.144q0 .212.011.298.015.086.056.112.045.026.149.026.1 0 .22-.026.123-.026.19-.056l.056.167q-.09.067-.291.13-.197.064-.361.064zM-50.6 18h.865v.174l-.265.049.376 1.073.157.473.134-.458.376-1.088-.253-.049V18h.756v.175l-.194.049-.719 1.874h-.316l-.749-1.874-.168-.049zM-47.698 20.108q-.268 0-.45-.15-.18-.152-.18-.442 0-.35.347-.518.347-.172.88-.183 0-.25-.03-.369t-.116-.164q-.086-.048-.268-.048-.186 0-.343.056-.153.052-.324.141l-.093-.19q.052-.048.19-.115.142-.07.317-.12.178-.051.35-.051.246 0 .391.067.145.063.212.208.13-.138.302-.212.175-.075.376-.075.35 0 .54.194.194.19.205.548 0 .227-.026.346h-1.285q.007.369.171.596.164.224.466.224.15 0 .31-.052.163-.056.253-.127l.07.16q-.108.112-.32.194-.209.082-.425.082-.264 0-.458-.104-.19-.105-.305-.295-.108.157-.306.28-.197.119-.45.119zm1.897-1.274q.003-.049.003-.16 0-.243-.1-.38-.097-.142-.306-.142-.216 0-.346.157-.13.156-.15.525zm-1.736 1.02q.16 0 .305-.093t.212-.212q-.085-.242-.085-.551-.391.003-.596.134-.202.13-.202.335 0 .201.097.294.1.094.269.094zM-45.068 19.884l.28-.022v-1.576l-.268-.067v-.201l.514-.067h.007l.082.067v.067l-.011.29h.011q.037-.063.134-.163t.25-.183q.153-.086.331-.086.075 0 .123.02v.416q-.026-.018-.085-.033-.056-.019-.127-.019-.31 0-.574.19v1.341l.473.03v.179h-1.14zM-43.171 17.288l-.29-.041v-.16l.591-.071h.004l.082.056v1.821l-.007.22.86-.89-.28-.052v-.172h.902v.172l-.294.052-.548.533.708 1.099.231.03v.182h-.905v-.183l.235-.033-.526-.864-.383.38.007.19v.294l.265.033v.183h-.887v-.183l.235-.033z" style="font-style:normal;font-variant:normal;font-weight:400;font-stretch:normal;font-size:3.72533px;font-family:Merriweather;-inkscape-font-specification:'Merriweather, Normal';font-variant-ligatures:normal;font-variant-caps:normal;font-variant-numeric:normal;font-variant-east-asian:normal;fill:#727272;fill-opacity:1"/></g><g style="display:inline;stroke-width:1.55" transform="translate(18.2 115.418) scale(.64516)"><circle cx="389.053" cy="119.971" r="9.3" style="display:inline;fill:#75d29c;fill-opacity:1;fill-rule:evenodd;stroke:none;stroke-width:2.17;stroke-linecap:square;stroke-opacity:1" transform="translate(37.01 240.49)"/><path fill="none" stroke="#000" stroke-linecap="round" stroke-linejoin="round" stroke-width=".127" d="m18.5 7.5 5 5-5 5" style="stroke:#0e0000;stroke-width:2.19231;stroke-miterlimit:4;stroke-dasharray:none;stroke-opacity:1" transform="matrix(1.01606 0 0 .96427 405.784 348.409)"/></g><g aria-label="Værdier" style="font-style:normal;font-weight:400;font-size:5.08px;line-height:1.25;font-family:sans-serif;letter-spacing:0;word-spacing:0;white-space:pre;shape-inside:url(#valg_model_v3_se_angsten_svg__h);fill:#000;fill-opacity:1;stroke:none;stroke-width:.1272;stroke-miterlimit:4;stroke-dasharray:none;stroke-opacity:1" transform="matrix(2.08333 0 0 2.08333 427.36 309.304)"><path d="M-57.175 17.299h.991v.186l-.331.045.614 1.747.138.455.123-.462.555-1.74-.294-.045V17.3h.83v.186l-.238.045-.883 2.567h-.324l-.954-2.567-.227-.045zM-53.837 20.108q-.268 0-.45-.15-.18-.152-.18-.442 0-.35.347-.518.346-.172.88-.183 0-.25-.03-.369t-.116-.164q-.086-.048-.268-.048-.187 0-.343.056-.153.052-.324.141l-.093-.19q.052-.048.19-.115.141-.07.316-.12.18-.051.35-.051.246 0 .392.067.145.063.212.208.13-.138.302-.212.175-.075.376-.075.35 0 .54.194.194.19.205.548 0 .227-.026.346h-1.285q.007.369.171.596.164.224.466.224.149 0 .309-.052.164-.056.253-.127l.071.16q-.108.112-.32.194-.209.082-.425.082-.265 0-.458-.104-.19-.105-.306-.295-.108.157-.305.28-.198.119-.45.119zm1.896-1.274q.004-.049.004-.16 0-.243-.1-.38-.098-.142-.306-.142-.216 0-.347.157-.13.156-.149.525zm-1.736 1.02q.16 0 .306-.093.145-.093.212-.212-.086-.242-.086-.551-.39.003-.596.134-.2.13-.2.335 0 .201.096.294.1.094.268.094zM-51.207 19.884l.28-.022v-1.576l-.269-.067v-.201l.514-.067h.008l.082.067v.067l-.011.29h.01q.038-.063.135-.163t.25-.183q.152-.086.331-.086.075 0 .123.02v.416q-.026-.018-.086-.033-.055-.019-.126-.019-.31 0-.574.19v1.341l.473.03v.179h-1.14zM-48.703 20.108q-.224 0-.41-.112-.187-.112-.298-.343-.108-.23-.108-.57 0-.316.13-.577.13-.26.373-.41.245-.153.577-.153.19 0 .346.041v-.696l-.38-.045v-.16l.671-.067h.011l.082.06v2.8h.216v.172q-.119.026-.208.041-.086.015-.183.015t-.138-.033q-.04-.034-.04-.142v-.12q-.105.127-.276.213-.168.086-.365.086zm.149-.265q.145 0 .272-.063.126-.067.19-.153v-1.363q-.03-.045-.142-.078-.108-.038-.231-.038-.29 0-.466.224-.171.22-.171.682 0 .402.153.596.152.193.395.193zM-46.755 17.627q-.12 0-.179-.067-.06-.067-.06-.172 0-.119.071-.197.075-.078.201-.078.127 0 .187.067t.06.171q0 .127-.075.201-.071.075-.201.075zm-.15.66-.282-.068v-.197l.577-.071h.008l.085.067v1.837l.298.03v.182h-.987v-.183l.302-.033zM-45.038 20.108q-.45 0-.689-.294-.235-.295-.235-.786 0-.325.123-.57.123-.246.343-.38.224-.135.507-.135.346 0 .536.194.194.19.205.548 0 .227-.026.346h-1.282q.008.369.172.596.164.224.465.224.15 0 .31-.052.164-.056.253-.13l.07.163q-.107.112-.32.194-.212.082-.432.082zm.38-1.274q.011-.078.011-.16-.003-.243-.104-.38-.097-.142-.31-.142-.215 0-.346.157-.126.156-.145.525zM-43.92 19.884l.28-.022v-1.576l-.269-.067v-.201l.514-.067h.008l.082.067v.067l-.012.29h.012q.037-.063.134-.163t.25-.183q.152-.086.33-.086.075 0 .124.02v.416q-.026-.018-.086-.033-.056-.019-.127-.019-.309 0-.573.19v1.341l.473.03v.179h-1.14z" style="font-style:normal;font-variant:normal;font-weight:400;font-stretch:normal;font-size:3.72533px;font-family:Merriweather;-inkscape-font-specification:'Merriweather, Normal';font-variant-ligatures:normal;font-variant-caps:normal;font-variant-numeric:normal;font-variant-east-asian:normal"/></g><path d="m112.26 294.305-11.523-11.579 11.522-11.58M100.737 282.726h53" style="fill:none;stroke:#0e0000;stroke-width:2;stroke-linecap:round;stroke-linejoin:round;stroke-miterlimit:4;stroke-dasharray:none;stroke-opacity:1" transform="translate(-7.07)"/><path d="M153.737 282.726h38.482" style="fill:none;stroke:#0e0000;stroke-width:2.00001;stroke-linecap:round;stroke-linejoin:round;stroke-miterlimit:4;stroke-dasharray:none;stroke-opacity:1" transform="translate(-7.07)"/><circle cx="236.613" cy="282.726" r="42.235" style="fill:#f3f3f3;fill-opacity:1;fill-rule:evenodd;stroke:none;stroke-width:.529167;stroke-linecap:square"/><g aria-label="Valg" style="font-style:normal;font-variant:normal;font-weight:600;font-stretch:normal;font-size:10.5833px;line-height:1.25;font-family:Montserrat;-inkscape-font-specification:'Montserrat, Semi-Bold';font-variant-ligatures:normal;font-variant-caps:normal;font-variant-numeric:normal;font-variant-east-asian:normal;letter-spacing:0;word-spacing:0;white-space:pre;shape-inside:url(#valg_model_v3_se_angsten_svg__i);fill:#000;fill-opacity:1;stroke:none" transform="translate(221.962 244.446)"><path d="m10.899 33.735-3.228 7.408H6.316l-3.238-7.408H4.57l2.466 5.715 2.487-5.715zM13.29 35.428q1.25 0 1.906.603.667.593.667 1.8v3.312h-1.25v-.688q-.243.37-.698.572-.444.19-1.08.19-.634 0-1.11-.212-.477-.222-.741-.603-.254-.391-.254-.878 0-.762.56-1.217.572-.466 1.79-.466h1.46v-.085q0-.592-.36-.91-.35-.317-1.048-.317-.476 0-.942.148-.455.148-.772.413l-.519-.963q.444-.34 1.069-.519.624-.18 1.323-.18zm-.18 4.826q.498 0 .88-.222.39-.233.55-.656v-.657h-1.366q-1.143 0-1.143.752 0 .36.286.571.286.212.794.212zM17.556 33.29h1.323v7.853h-1.323zM26.224 35.492v4.794q0 2.984-3.048 2.984-.815 0-1.546-.211-.73-.201-1.206-.593l.593-.995q.37.307.93.487.572.19 1.155.19.93 0 1.365-.423.434-.423.434-1.291v-.296q-.339.37-.826.56-.487.191-1.069.191-.804 0-1.46-.339-.646-.349-1.027-.973-.37-.625-.37-1.429t.37-1.418q.381-.625 1.027-.963.656-.339 1.46-.339.614 0 1.112.201.507.201.846.614v-.751zm-3.017 4.275q.752 0 1.228-.444.487-.455.487-1.175 0-.71-.487-1.154-.476-.444-1.228-.444-.762 0-1.248.444-.477.445-.477 1.154 0 .72.477 1.175.486.444 1.248.444z" style="shape-inside:url(#valg_model_v3_se_angsten_svg__i)"/></g><path d="M281.007 282.726h38.482" style="fill:none;stroke:#0e0000;stroke-width:2.00001;stroke-linecap:round;stroke-linejoin:round;stroke-miterlimit:4;stroke-dasharray:none;stroke-opacity:1" transform="translate(7.071)"/><g fill="none" stroke="#000" stroke-linecap="round" stroke-linejoin="round" stroke-width=".127" style="stroke:#0e0000;stroke-width:.865765;stroke-miterlimit:4;stroke-dasharray:none;stroke-opacity:1"><path d="m18.5 7.5 5 5-5 5M23.5 12.5H.5" style="stroke:#0e0000;stroke-width:.865765;stroke-miterlimit:4;stroke-dasharray:none;stroke-opacity:1" transform="matrix(2.30435 0 0 2.31586 325.408 253.778)"/></g></g></svg>