<svg width="314.061" height="307.537" xmlns="http://www.w3.org/2000/svg"><g data-name="Group 585"><path fill="#fff" d="m145.192 14.73 18.656-.317c80.187-1.364 147.66 142.723 147.66 142.723s-62.531 146.297-142.723 147.66l-18.656.318a145.213 145.213 0 1 1-4.937-290.384Z" data-name="Path 207"/><path fill="none" stroke="#323f51" stroke-miterlimit="10" stroke-width="3" d="m114.635 169.808-43.529 38.176-25.472 55.351" data-name="Path 882"/><path fill="none" stroke="#485c74" stroke-linecap="round" stroke-width="5.539" d="m20.081 259.351 25.51 4.278" data-name="Line 36"/><path fill="none" stroke="#323f51" stroke-miterlimit="10" stroke-width="3" d="m133.639 117.538 53.628-8.235 44.741 46.823" data-name="Path 883"/><path fill="#c2c4c6" d="M78.813 159.357c-.922 4.04-1.382 8.344-.1 12.284 1.772 5.44 6.521 9.3 11.155 12.654 11.739 8.492 24.817 16.021 39.229 17.493s30.364-4.44 37.126-17.255c2.962-5.605 3.975-12.007 4.943-18.277q4.1-26.492 8.193-52.976c3.481-22.522 7.84-50.751-9.025-69.313-11.661-12.832-23.882-12.494-34.524.467-11.454 13.947-16.532 33.611-24.016 49.748-10.021 21.614-27.635 41.755-32.981 65.173" data-name="Path 884"/><path fill="none" stroke="#323f51" stroke-linecap="round" stroke-miterlimit="10" stroke-width="2" d="M131.936 81.708a6.355 6.355 0 0 0-2.867-3.2 1.835 1.835 0 0 0-1.086-.316 1.33 1.33 0 0 0-1.054.981 2.593 2.593 0 0 0 .095 1.5 5.08 5.08 0 0 0 2.395 2.884c-1.519.049-5.179.63-5.535 2.5-.489 2.578 5.445 4.768 6.647 2.115" data-name="Path 885"/><path fill="none" stroke="#323f51" stroke-miterlimit="10" stroke-width="3" d="m137.447 181.905 24.4 44.587 47.831 22.239" data-name="Path 886"/><path fill="none" stroke="#485c74" stroke-linecap="round" stroke-width="5.539" d="m204.214 267.911 2.784-12.071 1.265-5.486 1.351-5.853" data-name="Path 905"/><path fill="none" stroke="#323f51" stroke-miterlimit="10" stroke-width="3" d="m21.381 122.379 54.379 16.067 62.664-17.106" data-name="Path 887"/><path fill="none" stroke="#323f51" stroke-linecap="round" stroke-miterlimit="10" stroke-width="2" d="M147.676 72.085c-.455.8-.927 1.582-1.392 2.368a2.663 2.663 0 0 0 .09 2.938c.964 1.331 4.055 2.373 5.063 2.653 3.013.842 3.106-2.159 3.911-3.566" data-name="Path 888"/><path fill="none" stroke="#323f51" stroke-linecap="round" stroke-miterlimit="10" stroke-width="2" d="M130.749 62.39c-.455.793-.927 1.58-1.395 2.366a2.659 2.659 0 0 0 .092 2.938c.961 1.331 4.053 2.373 5.06 2.653 3.013.842 3.106-2.159 3.911-3.563" data-name="Path 889"/><path fill="none" stroke="#4d5c70" stroke-linecap="round" stroke-miterlimit="10" stroke-width="3" d="M102.31 69.208c-6.3-7.312-13.823-12.457-22.135-16.972" data-name="Path 890"/><path fill="none" stroke="#4d5c70" stroke-linecap="round" stroke-miterlimit="10" stroke-width="3" d="M104.738 79.582a251.562 251.562 0 0 0-37.35-27.127" data-name="Path 891"/><path fill="#e79e17" d="M70.144 37.985a6.8 6.8 0 0 1-1.993 1.692 8.669 8.669 0 0 1-6.494.526 6.878 6.878 0 0 1-3.67-2.388 3.943 3.943 0 0 1-.441-4.664 5.315 5.315 0 0 1 2.561-2.215 8.666 8.666 0 0 1 9.424 1.706.623.623 0 0 0 .1.056l8.02-16.984-21.29-5.294-.231.489c-2.845 6.024-5.715 12.034-8.516 18.077a5.873 5.873 0 0 1-4.364 3.447 8.305 8.305 0 0 1-7.721-1.879 4.122 4.122 0 0 1-1.443-4.381 4.968 4.968 0 0 1 2.989-3.159 8.662 8.662 0 0 1 9.359 1.677c.036.036.085.066.153.119L58.299 0c.82.2 1.618.4 2.415.594l13.1 3.264q5.33 1.325 10.661 2.648a1.378 1.378 0 0 0 .246.019c.124.063.316.092.139.3a.725.725 0 0 0-.073.151Z" data-name="Path 892"/></g></svg>