<svg xmlns="http://www.w3.org/2000/svg" width="419.147" height="413.638" viewBox="0 0 419.147 413.638">
  <g id="Group_583" data-name="Group 583" transform="translate(-298.549 -3187.322)">
    <path id="Path_475" data-name="Path 475" d="M145.822,0h18.737C245.094,0,310.38,145.822,310.38,145.822S245.094,291.644,164.559,291.644H145.822A145.822,145.822,0,0,1,145.822,0Z" transform="matrix(0.839, -0.545, 0.545, 0.839, 298.549, 3356.367)" fill="#fff"/>
    <g id="Group_580" data-name="Group 580" transform="translate(535.229 3474.355)">
      <path id="Path_913" data-name="Path 913" d="M14.142,10.951C10.552,5.667,5.636,2.489,0,0" transform="matrix(0.799, -0.602, 0.602, 0.799, 6.463, 8.511)" fill="none" stroke="#323f51" stroke-linecap="round" stroke-miterlimit="10" stroke-width="3"/>
      <path id="Path_912" data-name="Path 912" d="M24.127,17.157A103.292,103.292,0,0,0,0,0" transform="matrix(0.799, -0.602, 0.602, 0.799, 0, 16.424)" fill="none" stroke="#323f51" stroke-linecap="round" stroke-miterlimit="10" stroke-width="3"/>
    </g>
    <g id="Group_578" data-name="Group 578" transform="translate(349.1 3274.57)">
      <path id="Path_893" data-name="Path 893" d="M248.675,486.781a7.535,7.535,0,0,1,4.8-1.718,2.2,2.2,0,0,1,1.311.282,1.581,1.581,0,0,1,.543,1.619,3.057,3.057,0,0,1-.946,1.51,6.034,6.034,0,0,1-4.128,1.652c1.556.908,5.044,3.583,4.355,5.739-.946,2.963-8.371,1.891-8.126-1.552" transform="translate(-100.679 -396.221)" fill="none" stroke="#323f51" stroke-linecap="round" stroke-miterlimit="10" stroke-width="2"/>
      <path id="Path_894" data-name="Path 894" d="M40.831,42.87l-2.639-2.351c7.27,2.754,13.19,1.853,17.25-4.233,5.614-8.415-.859-21.647-14.851-19.339l6.668-2.565a11.822,11.822,0,0,0-23.434,2.548l6.459.549-.157,3.707c-2.346-.245-4.548-.458-6.746-.706-6.632-.746-13.262-1.515-19.893-2.256C2.021,18.06.5,18.01,1.6,15.638c6.164.368,12.368.736,17.907,1.066,1.393-3.742,2.154-7.5,4.065-10.543C26.888.9,32.246-.809,38.236.342c6.189,1.189,10.09,5.178,11.5,11.282.487,2.114,1.1,3.18,3.39,3.785A14.931,14.931,0,0,1,63.7,33.23a15.1,15.1,0,0,1-16.955,11.6c-1.607-.237-2.833-.589-4.156,1.157-5.136,6.771-13.434,8.248-20.684,3.982-6.24-3.671-8.732-11.9-5.856-19.313.151-.39.245-.8.451-1.49-4.831-1.918-9.622-3.752-14.339-5.758C1.29,23.037.713,21.966,0,21.218l.769-.9c9.024,3.07,18.048,6.143,27.374,9.317l-1.364,3.467L20.609,30.93c-2.981,5.476-1.015,11.857,4.621,15.385A11.64,11.64,0,0,0,40.831,42.87Z" transform="translate(171.468 74.923) rotate(-20)" fill="#485c74"/>
      <line id="Line_39" data-name="Line 39" x1="10.599" y2="5.215" transform="translate(182.28 106.982)" fill="none" stroke="#323f51" stroke-linecap="round" stroke-width="4.425"/>
      <line id="Line_40" data-name="Line 40" x1="6.595" y2="9.8" transform="translate(0 133.168)" fill="none" stroke="#323f51" stroke-linecap="round" stroke-width="4.425"/>
      <path id="Path_895" data-name="Path 895" d="M239.565,523.513l-9.917,40.113-48.667,14.09" transform="translate(-164.486 -358.762)" fill="none" stroke="#323f51" stroke-linecap="square" stroke-width="4.425"/>
      <line id="Line_41" data-name="Line 41" x1="4.379" y1="18.988" transform="translate(10.357 218.023)" fill="none" stroke="#485c74" stroke-linecap="round" stroke-width="4.425"/>
      <path id="Path_896" data-name="Path 896" d="M239.9,484.969l-39.3,6.611-23.874,35.628" transform="translate(-168.632 -396.313)" fill="none" stroke="#323f51" stroke-linecap="square" stroke-width="4.425"/>
      <path id="Path_897" data-name="Path 897" d="M251.633,452.746c-13.407,4.243-23.306,15.571-31.07,27.3a180.068,180.068,0,0,0-28.053,74.017c-.713,5.076-1.2,10.329.205,15.259,1.779,6.254,6.424,11.318,11.559,15.312,9.743,7.585,21.543,12.1,33.494,15.192,10.161,2.632,20.8,4.32,31.145,2.527s20.405-7.52,25.392-16.757c2.951-5.467,3.962-11.739,4.93-17.874q1.43-9.062,2.859-18.119c2.553-16.175,5.109-32.642,2.784-48.852s-10.321-32.417-24.441-40.706c-4.493-2.641-9.587-7.757-14.8-7.946-11.312-.415-5.881-.513-14.007.654" transform="translate(-153.932 -428.618)" fill="#6ac0d0"/>
      <path id="Path_898" data-name="Path 898" d="M295.589,502.991l-35.26,17.263L233.516,490.5" transform="translate(-113.306 -390.92)" fill="none" stroke="#323f51" stroke-linecap="square" stroke-width="4.425"/>
      <path id="Path_899" data-name="Path 899" d="M223.028,520.543,268.2,541.637,278.994,596.4" transform="translate(-123.524 -361.656)" fill="none" stroke="#323f51" stroke-linecap="square" stroke-width="4.425"/>
      <line id="Line_42" data-name="Line 42" x1="20.691" y2="3.47" transform="translate(151.819 236.256)" fill="none" stroke="#485c74" stroke-linecap="round" stroke-width="4.425"/>
      <path id="Path_900" data-name="Path 900" d="M208.92,463.816c8.124,8.414,21.776,13.845,32.781,16.733a113.847,113.847,0,0,0,23.509,3.593c7.2.339,15.811.227,23.209-3.329" transform="translate(-139.276 -418.466)" fill="none" stroke="#fff" stroke-linecap="round" stroke-width="6"/>
      <g id="Group_577" data-name="Group 577" transform="translate(52.833 0)">
        <path id="Path_901" data-name="Path 901" d="M219.2,455.02c-5.7-1.775-10.931-3.372-16.139-5.048-1.712-.549-3.731-.961-3.674-3.4.057-2.42,1.96-4.9,4.341-5a13.015,13.015,0,0,1,5.972,1.1A16.473,16.473,0,0,1,219.2,455.02Z" transform="translate(-199.387 -438.611)" fill="#485c74"/>
        <path id="Path_902" data-name="Path 902" d="M218.861,456.251c-2.122-3.682-4.294-7.368-6.371-11.107-.727-1.311-1.483-2.782.032-4.108,1.453-1.273,4.164-1.378,5.453.16a13.562,13.562,0,0,1,2.63,4.935A11.708,11.708,0,0,1,218.861,456.251Z" transform="translate(-187.446 -440.061)" fill="#485c74"/>
        <path id="Path_903" data-name="Path 903" d="M214.984,458.608c-3.992-.318-7.78-.5-11.525-1-1.05-.138-2.653-1.072-2.819-1.883a3.124,3.124,0,0,1,2.318-3.889,11.51,11.51,0,0,1,5.072.353A10.742,10.742,0,0,1,214.984,458.608Z" transform="translate(-198.242 -428.725)" fill="#485c74"/>
      </g>
      <circle id="Ellipse_87" data-name="Ellipse 87" cx="3.34" cy="3.34" r="3.34" transform="translate(142.463 81.676)" fill="#323f51" stroke="#323f51" stroke-width="1"/>
      <path id="Path_904" data-name="Path 904" d="M250.674,478.66a13.686,13.686,0,0,0-6.543,3.735" transform="translate(-102.965 -402.458)" fill="#323f51" stroke="#323f51" stroke-linecap="round" stroke-miterlimit="10" stroke-width="0.75"/>
      <circle id="Ellipse_88" data-name="Ellipse 88" cx="1.177" cy="1.177" r="1.177" transform="translate(145.991 83.888)" fill="#6ac0d0"/>
    </g>
    <g id="Group_582" data-name="Group 582" transform="translate(585.367 3454.708)">
      <g id="Group_581" data-name="Group 581" transform="translate(0 0)">
        <path id="Path_914" data-name="Path 914" d="M232.307,259.32a.928.928,0,0,0,.885.262l2.5-.628a.913.913,0,0,0,.59-1.307,35.048,35.048,0,0,0-13.248-13.713.911.911,0,0,0-1.325.545c-.23.811-.472,1.677-.738,2.629a.944.944,0,0,0,.239.9C225.6,252.379,228.013,254.832,232.307,259.32ZM194.1,244.592c1.616,1.636,3.268,3.31,5.545,5.639a.949.949,0,0,0,.9.25c6.022-1.594,9.345-2.445,15.318-3.9a.953.953,0,0,0,.67-.637c.4-1.354.747-2.535,1.062-3.621a.9.9,0,0,0-.568-1.109,34.394,34.394,0,0,0-24.066.44.917.917,0,0,0-.295,1.491Zm-15.535,29.029,13.04-3.333a.928.928,0,0,0,.651-.651c1.654-6.051,2.591-9.363,4.348-15.267a.955.955,0,0,0-.217-.907c-2.275-2.392-3.927-4.066-5.545-5.706-.907-.917-1.806-1.829-2.8-2.836a.934.934,0,0,0-1.156-.145,34.9,34.9,0,0,0-15.038,20.9.936.936,0,0,0,.179.805c1.692,2.106,3.266,4.034,5.6,6.831A.927.927,0,0,0,178.561,273.621Zm53.314,16.055c-1.7-1.716-3.435-3.476-5.894-6l-.007-.025c-.027.007-.049.024-.074.031-4.891,1.308-7.995,2.115-11.947,3.1-1.173.291-2.421.6-3.813.939a.947.947,0,0,0-.67.637c-.945,3.179-1.591,5.447-2.224,7.664-.463,1.616-.917,3.208-1.449,5.1a.941.941,0,0,0,.311.972c3.009,2.423,4.985,3.912,7.421,5.561a.942.942,0,0,0,.756.134,34.907,34.907,0,0,0,20.262-14.366.934.934,0,0,0-.123-1.158C233.533,291.354,232.709,290.521,231.875,289.676Zm6.985-25.922a.913.913,0,0,0-1.1-.6l-3.362.86a.931.931,0,0,0-.653.651c-1.659,6.073-2.6,9.385-4.347,15.269a.951.951,0,0,0,.217.9c2.249,2.367,3.891,4.03,5.49,5.65l2.123,2.15a34.346,34.346,0,0,0,1.63-24.882Zm-45.542,10.832-.016-.054-.013-.016c-.02.007-.036.018-.058.025h0l-7.727,1.974L179.683,278a.931.931,0,0,0-.668.715c-1.091,5.519-1.585,8.337-2.47,13.462a.491.491,0,0,0,.11.246,79.375,79.375,0,0,0,10.418,10.367.569.569,0,0,0,.29.141,126.134,126.134,0,0,0,13.313-2.2.942.942,0,0,0,.695-.653c.552-1.956,1.019-3.59,1.493-5.251.633-2.219,1.281-4.482,2.161-7.631a.946.946,0,0,0-.239-.908C200.274,281.8,197.851,279.332,193.318,274.586Z" transform="translate(-170.787 -239.25)" fill="#485c74"/>
        <path id="Path_915" data-name="Path 915" d="M171.342,267.088c-.033.6-.092,1.2-.092,1.811a34.6,34.6,0,0,0,2.2,12.075c.474-2.647.941-5.139,1.667-8.791-.06-.23-.141-.546-.2-.776C173.512,269.724,172.379,268.356,171.342,267.088Zm31.594,32.667c-.071.02-.132.058-.2.074-1.974.436-3.612.771-5.108,1.048a.908.908,0,0,0-.081,1.766,34.194,34.194,0,0,0,8.541,1.091c.6,0,1.174-.06,1.763-.089-1.406-1.055-2.9-2.233-4.8-3.771C203,299.84,202.978,299.792,202.936,299.754ZM229.58,257.37c-4.461-4.661-6.869-7.112-11.455-11.652a.229.229,0,0,0-.159-.063.245.245,0,0,0-.052.005l0,0c-5.635,1.373-8.885,2.2-13.907,3.529l-1.9.507c-.224.221-.422.413-.646.632-1.777,5.972-2.709,9.267-4.341,15.345.08.306.148.577.226.883,4.348,4.546,6.748,6.99,11.172,11.375l.876.243c6.127-1.495,9.448-2.347,15.8-4.044v0h0a.243.243,0,0,0,.157-.154c1.853-6.22,2.789-9.526,4.453-15.722C229.727,257.948,229.658,257.676,229.58,257.37Z" transform="translate(-171.25 -234.065)" fill="#485c74"/>
      </g>
    </g>
  </g>
</svg>
