<svg width="419.147" height="413.638" xmlns="http://www.w3.org/2000/svg"><g data-name="Group 583"><path fill="#fff" d="m122.345 89.572 15.72-10.212c67.569-43.891 201.817 42.873 201.817 42.873S364.58 280.158 297.01 324.05l-15.72 10.211A145.891 145.891 0 0 1 122.345 89.572Z" data-name="Path 475"/><g fill="none" stroke="#323f51" stroke-linecap="round" stroke-miterlimit="10" stroke-width="3" data-name="Group 580"><path stroke-width="3.0012" d="M261.035 295.78c-6.05-2.06-11.89-1.64-17.892-.236" data-name="Path 913"/><path stroke-width="3.0012" d="M266.286 302.641a103.334 103.334 0 0 0-29.606.816" data-name="Path 912"/></g><g data-name="Group 578" transform="translate(50.551 87.248)"><path fill="none" stroke="#323f51" stroke-linecap="round" stroke-miterlimit="10" stroke-width="2" d="M147.996 90.56a7.535 7.535 0 0 1 4.8-1.718 2.2 2.2 0 0 1 1.311.282 1.581 1.581 0 0 1 .543 1.619 3.057 3.057 0 0 1-.946 1.51 6.034 6.034 0 0 1-4.128 1.652c1.556.908 5.044 3.583 4.355 5.739-.946 2.963-8.371 1.891-8.126-1.552" data-name="Path 893"/><path fill="#485c74" d="m224.499 101.243-3.284-1.307c7.774.101 13.028-2.77 14.762-9.878 2.397-9.827-8.21-20.047-20.57-13.093l5.389-4.69a11.822 11.822 0 0 0-21.15 10.408l6.258-1.693 1.12 3.537c-2.288.572-4.43 1.125-6.58 1.644-6.488 1.567-12.98 3.112-19.465 4.684-1.435.348-2.881.82-2.659-1.784l17.192-5.123c.029-3.993-.541-7.785.214-11.298 1.316-6.078 5.767-9.516 11.79-10.483 6.221-1 11.252 1.415 14.664 6.668 1.18 1.82 2.121 2.612 4.48 2.398a14.931 14.931 0 0 1 16.032 13.13 15.1 15.1 0 0 1-11.965 16.699c-1.591.327-2.864.415-3.51 2.508-2.51 8.12-9.803 12.346-18.075 10.817-7.119-1.316-12.275-8.196-12.108-16.146.009-.418-.043-.835-.086-1.554-5.195-.15-10.325-.235-15.443-.507-.946-.05-1.854-.86-2.78-1.319l.415-1.108c9.53-.202 19.06-.4 28.91-.608l-.096 3.725-6.541.069c-.929 6.165 3.101 11.49 9.604 12.877a11.64 11.64 0 0 0 13.482-8.573Z" data-name="Path 894"/><path fill="none" stroke="#323f51" stroke-linecap="round" stroke-width="4.425" d="m192.879 106.982-10.599 5.215" data-name="Line 39"/><path fill="none" stroke="#323f51" stroke-linecap="round" stroke-width="4.425" d="M6.595 133.168 0 142.968" data-name="Line 40"/><path fill="none" stroke="#323f51" stroke-linecap="square" stroke-width="4.425" d="m75.079 164.751-9.917 40.113-48.667 14.09" data-name="Path 895"/><path fill="none" stroke="#485c74" stroke-linecap="round" stroke-width="4.425" d="m14.736 237.011-4.379-18.988" data-name="Line 41"/><path fill="none" stroke="#323f51" stroke-linecap="square" stroke-width="4.425" d="m71.268 88.656-39.3 6.611-23.874 35.628" data-name="Path 896"/><path fill="#6ac0d0" d="M97.701 24.128c-13.407 4.243-23.306 15.571-31.07 27.3a180.068 180.068 0 0 0-28.053 74.017c-.713 5.076-1.2 10.329.205 15.259 1.779 6.254 6.424 11.318 11.559 15.312 9.743 7.585 21.543 12.1 33.494 15.192 10.161 2.632 20.8 4.32 31.145 2.527s20.405-7.52 25.392-16.757c2.951-5.467 3.962-11.739 4.93-17.874l2.859-18.119c2.553-16.175 5.109-32.642 2.784-48.852s-10.321-32.417-24.441-40.706c-4.493-2.641-9.587-7.757-14.8-7.946-11.312-.415-5.881-.513-14.007.654" data-name="Path 897"/><path fill="none" stroke="#323f51" stroke-linecap="square" stroke-width="4.425" d="m182.283 112.071-35.26 17.263L120.21 99.58" data-name="Path 898"/><path fill="none" stroke="#323f51" stroke-linecap="square" stroke-width="4.425" d="m99.504 158.887 45.172 21.094 10.794 54.763" data-name="Path 899"/><path fill="none" stroke="#485c74" stroke-linecap="round" stroke-width="4.425" d="m172.51 236.256-20.691 3.47" data-name="Line 42"/><path fill="none" stroke="#fff" stroke-linecap="round" stroke-width="6" d="M69.644 45.35c8.124 8.414 21.776 13.845 32.781 16.733a113.847 113.847 0 0 0 23.509 3.593c7.2.339 15.811.227 23.209-3.329" data-name="Path 900"/><g fill="#485c74" data-name="Group 577"><path d="M72.646 16.409c-5.7-1.775-10.931-3.372-16.139-5.048-1.712-.549-3.731-.961-3.674-3.4.057-2.42 1.96-4.9 4.341-5a13.015 13.015 0 0 1 5.972 1.1 16.473 16.473 0 0 1 9.5 12.348Z" data-name="Path 901"/><path d="M84.248 16.19c-2.122-3.682-4.294-7.368-6.371-11.107-.727-1.311-1.483-2.782.032-4.108 1.453-1.273 4.164-1.378 5.453.16a13.562 13.562 0 0 1 2.63 4.935 11.708 11.708 0 0 1-1.744 10.12Z" data-name="Path 902"/><path d="M69.575 29.883c-3.992-.318-7.78-.5-11.525-1-1.05-.138-2.653-1.072-2.819-1.883a3.124 3.124 0 0 1 2.318-3.889 11.51 11.51 0 0 1 5.072.353 10.742 10.742 0 0 1 6.954 6.419Z" data-name="Path 903"/></g><circle cx="3.34" cy="3.34" r="3.34" fill="#323f51" stroke="#323f51" data-name="Ellipse 87" transform="translate(142.463 81.676)"/><path fill="#323f51" stroke="#323f51" stroke-linecap="round" stroke-miterlimit="10" stroke-width=".75" d="M147.709 76.202a13.686 13.686 0 0 0-6.543 3.735" data-name="Path 904"/><circle cx="1.177" cy="1.177" r="1.177" fill="#6ac0d0" data-name="Ellipse 88" transform="translate(145.991 83.888)"/></g><g data-name="Group 582"><g fill="#485c74" data-name="Group 581"><path d="M348.338 287.456a.928.928 0 0 0 .885.262l2.5-.628a.913.913 0 0 0 .59-1.307 35.048 35.048 0 0 0-13.248-13.713.911.911 0 0 0-1.325.545c-.23.811-.472 1.677-.738 2.629a.944.944 0 0 0 .239.9 556.316 556.316 0 0 1 11.097 11.312Zm-38.207-14.728c1.616 1.636 3.268 3.31 5.545 5.639a.949.949 0 0 0 .9.25 679.254 679.254 0 0 1 15.318-3.9.953.953 0 0 0 .67-.637c.4-1.354.747-2.535 1.062-3.621a.9.9 0 0 0-.568-1.109 34.394 34.394 0 0 0-24.066.44.917.917 0 0 0-.295 1.491Zm-15.535 29.029 13.04-3.333a.928.928 0 0 0 .651-.651c1.654-6.051 2.591-9.363 4.348-15.267a.955.955 0 0 0-.217-.907c-2.275-2.392-3.927-4.066-5.545-5.706-.907-.917-1.806-1.829-2.8-2.836a.934.934 0 0 0-1.156-.145 34.9 34.9 0 0 0-15.038 20.9.936.936 0 0 0 .179.805 442.455 442.455 0 0 0 5.6 6.831.927.927 0 0 0 .934.309Zm53.314 16.055a942.564 942.564 0 0 1-5.894-6l-.007-.025c-.027.007-.049.024-.074.031a658.777 658.777 0 0 1-15.76 4.039.947.947 0 0 0-.67.637c-.945 3.179-1.591 5.447-2.224 7.664-.463 1.616-.917 3.208-1.449 5.1a.941.941 0 0 0 .311.972c3.009 2.423 4.985 3.912 7.421 5.561a.942.942 0 0 0 .756.134 34.907 34.907 0 0 0 20.262-14.366.934.934 0 0 0-.123-1.158c-.895-.911-1.719-1.744-2.553-2.589Zm6.985-25.922a.913.913 0 0 0-1.1-.6l-3.362.86a.931.931 0 0 0-.653.651 615.977 615.977 0 0 1-4.347 15.269.951.951 0 0 0 .217.9c2.249 2.367 3.891 4.03 5.49 5.65l2.123 2.15a34.346 34.346 0 0 0 1.63-24.882Zm-45.542 10.832-.016-.054-.013-.016c-.02.007-.036.018-.058.025l-7.727 1.974-5.825 1.485a.931.931 0 0 0-.668.715c-1.091 5.519-1.585 8.337-2.47 13.462a.491.491 0 0 0 .11.246 79.375 79.375 0 0 0 10.418 10.367.569.569 0 0 0 .29.141 126.134 126.134 0 0 0 13.313-2.2.942.942 0 0 0 .695-.653c.552-1.956 1.019-3.59 1.493-5.251.633-2.219 1.281-4.482 2.161-7.631a.946.946 0 0 0-.239-.908 540.402 540.402 0 0 1-11.468-11.702Z" data-name="Path 914"/><path d="M286.91 300.409c-.033.6-.092 1.2-.092 1.811a34.6 34.6 0 0 0 2.2 12.075c.474-2.647.941-5.139 1.667-8.791l-.2-.776a552.388 552.388 0 0 1-3.575-4.319Zm31.594 32.667c-.071.02-.132.058-.2.074-1.974.436-3.612.771-5.108 1.048a.908.908 0 0 0-.081 1.766 34.194 34.194 0 0 0 8.541 1.091c.6 0 1.174-.06 1.763-.089a165.261 165.261 0 0 1-4.8-3.771c-.051-.034-.073-.082-.115-.12Zm26.644-42.385a511.6 511.6 0 0 0-11.455-11.652.229.229 0 0 0-.159-.063.245.245 0 0 0-.052.005 634.01 634.01 0 0 0-13.907 3.529l-1.9.507c-.224.221-.422.413-.646.632a503.482 503.482 0 0 0-4.341 15.345c.08.306.148.577.226.883a507.31 507.31 0 0 0 11.172 11.375l.876.243a633.694 633.694 0 0 0 15.8-4.044.243.243 0 0 0 .157-.154 507.73 507.73 0 0 0 4.453-15.722l-.224-.884Z" data-name="Path 915"/></g></g></g></svg>