<svg width="355.074" height="330.53" xmlns="http://www.w3.org/2000/svg"><g data-name="Group 595" transform="translate(-319.509 -3758.213)"><path fill="#fff" d="m547.775 4045.808-16.293 4.369c-70.035 18.777-212.914-73.913-171.522-110.364s33.49-124.474 103.524-143.25l16.293-4.37a131.287 131.287 0 1 1 67.998 253.615Z" data-name="Path 917"/><path fill="none" stroke="#485c74" stroke-linecap="round" stroke-linejoin="round" stroke-width="10.0014" d="m528.619 3965.435.77 49.555s6.783.157 16.105.007" data-name="Path 920"/><path fill="none" stroke="#485c74" stroke-linecap="round" stroke-linejoin="round" stroke-width="10.0014" d="M506.611 3954.689c5.025 22.73 5.052 60.222 5.052 60.222l-16.497.446" data-name="Path 921"/><g fill="none" stroke-width="10" data-name="Group 553"><path stroke="#485c74" stroke-linecap="round" d="m456.87 3963.689-.697-6.621" data-name="Line 35"/><path stroke="#323f51" stroke-linecap="square" d="M455.581 3951.602s-4.858-57.632 23.524-66.055" data-name="Path 821"/></g><path fill="#6c85a0" d="M507.209 3818.368c-12.248 6.793-19.672 19.806-24.933 32.784a179.3 179.3 0 0 0-12.758 77.788c.307 5.094.871 10.318 3.214 14.851 2.973 5.755 8.507 9.779 14.307 12.663 11.008 5.477 23.417 7.55 35.7 8.21 10.438.56 21.158.1 30.9-3.688s18.431-11.372 21.473-21.375c1.8-5.916 1.549-12.239 1.282-18.418q-.4-9.127-.79-18.251c-.7-16.293-1.463-32.87-6.936-48.233s-9.748-20.916-21.725-30.849-23.235-9.153-26.185-8.886-5.841.661-13.542 3.4" data-name="Path 822"/><circle cx="3.326" cy="3.326" r="3.326" fill="none" stroke="#374658" stroke-linecap="round" stroke-miterlimit="10" stroke-width="2" data-name="Ellipse 80" transform="translate(527.24 3854.331)"/><circle cx="1.172" cy="1.172" r="1.172" fill="#4d5c70" stroke="#323f51" stroke-width="2" data-name="Ellipse 81" transform="translate(529.388 3856.485)"/><circle cx="3.326" cy="3.326" r="3.326" fill="none" stroke="#374658" stroke-linecap="round" stroke-miterlimit="10" stroke-width="2" data-name="Ellipse 82" transform="translate(506.452 3854.331)"/><circle cx="1.172" cy="1.172" r="1.172" fill="#4d5c70" stroke="#323f51" stroke-width="2" data-name="Ellipse 83" transform="translate(508.6 3856.485)"/><path fill="none" stroke="#374658" stroke-linecap="round" stroke-miterlimit="10" stroke-width="2" d="M528.054 3878.688a37.677 37.677 0 0 0-3.747-.8 15.929 15.929 0 0 0-8.208.9 12.246 12.246 0 0 0-6.169 5.385" data-name="Path 823"/><path fill="none" stroke="#374658" stroke-linecap="round" stroke-miterlimit="10" stroke-width="2" d="M528.129 3848.194a13.613 13.613 0 0 1 6.515 3.72" data-name="Path 825"/><path fill="none" stroke="#374658" stroke-linecap="round" stroke-miterlimit="10" stroke-width="2" d="M512.253 3848.194a13.623 13.623 0 0 0-6.515 3.72" data-name="Path 826"/><path fill="none" stroke="#374658" stroke-linecap="round" stroke-miterlimit="10" stroke-width="2" d="M528.103 3863.558a8.734 8.734 0 0 0 4.917 0" data-name="Path 827"/><path fill="none" stroke="#374658" stroke-linecap="round" stroke-miterlimit="10" stroke-width="2" d="M507.311 3863.558a8.734 8.734 0 0 0 4.917 0" data-name="Path 828"/><g data-name="Group 552"><path fill="none" stroke="#485c74" stroke-linecap="round" stroke-width="10" d="m524.18 3891.235 6.423 7.419" data-name="Line 34"/><path fill="none" stroke="#323f51" stroke-linecap="square" stroke-width="10" d="M532.242 3900.823s25.763 27.842 39.948 21.057c-.057.027-.028.013 0 0" data-name="Path 820"/><path fill="#323f51" d="M573.641 3917.627s2.381-1.648 3.38-.53c-.057-.093-.003-.015.043.079.698 1.433-.232 6.097-.628 6.184s-2.795-5.733-2.795-5.733Z" data-name="Path 922"/></g></g></svg>