<svg xmlns="http://www.w3.org/2000/svg" width="355.074" height="330.53" viewBox="0 0 355.074 330.53">
  <g id="Group_595" data-name="Group 595" transform="translate(-319.509 -3758.213)">
    <path id="Path_917" data-name="Path 917" d="M131.271,0h16.867c72.5,0,186.487,126.514,137.073,151S220.637,262.541,148.138,262.541H131.271A131.271,131.271,0,1,1,131.271,0Z" transform="matrix(-0.966, 0.259, -0.259, -0.966, 674.583, 4011.809)" fill="#fff"/>
    <path id="Path_920" data-name="Path 920" d="M.072,0,0,49.554s6.778.272,16.1.281" transform="matrix(1, -0.017, 0.017, 1, 528.547, 3965.436)" fill="none" stroke="#485c74" stroke-linecap="round" stroke-linejoin="round" stroke-width="10"/>
    <path id="Path_921" data-name="Path 921" d="M12.473,0C17.11,22.808,16.5,60.291,16.5,60.291L0,60.456" transform="matrix(1, -0.017, 0.017, 1, 494.138, 3954.901)" fill="none" stroke="#485c74" stroke-linecap="round" stroke-linejoin="round" stroke-width="10"/>
    <g id="Group_553" data-name="Group 553" transform="translate(455.265 3885.547)">
      <line id="Line_35" data-name="Line 35" x1="0.697" y1="6.621" transform="translate(0.908 71.521)" fill="none" stroke="#485c74" stroke-linecap="round" stroke-width="10"/>
      <path id="Path_821" data-name="Path 821" d="M440.943,202.131s-4.858-57.632,23.524-66.055" transform="translate(-440.627 -136.076)" fill="none" stroke="#323f51" stroke-linecap="square" stroke-width="10"/>
    </g>
    <path id="Path_822" data-name="Path 822" d="M485.724,111.216c-12.248,6.793-19.672,19.806-24.933,32.784a179.3,179.3,0,0,0-12.758,77.788c.307,5.094.871,10.318,3.214,14.851,2.973,5.755,8.507,9.779,14.307,12.663,11.008,5.477,23.417,7.55,35.7,8.21,10.438.56,21.158.1,30.9-3.688s18.431-11.372,21.473-21.375c1.8-5.916,1.549-12.239,1.282-18.418q-.4-9.127-.79-18.251c-.7-16.293-1.463-32.87-6.936-48.233s-9.748-20.916-21.725-30.849-23.235-9.153-26.185-8.886-5.841.661-13.542,3.4" transform="translate(21.485 3707.152)" fill="#6c85a0"/>
    <ellipse id="Ellipse_80" data-name="Ellipse 80" cx="3.326" cy="3.326" rx="3.326" ry="3.326" transform="translate(527.24 3854.331)" fill="none" stroke="#374658" stroke-linecap="round" stroke-miterlimit="10" stroke-width="2"/>
    <ellipse id="Ellipse_81" data-name="Ellipse 81" cx="1.172" cy="1.172" rx="1.172" ry="1.172" transform="translate(529.388 3856.485)" fill="#4d5c70" stroke="#323f51" stroke-width="2"/>
    <ellipse id="Ellipse_82" data-name="Ellipse 82" cx="3.326" cy="3.326" rx="3.326" ry="3.326" transform="translate(506.452 3854.331)" fill="none" stroke="#374658" stroke-linecap="round" stroke-miterlimit="10" stroke-width="2"/>
    <ellipse id="Ellipse_83" data-name="Ellipse 83" cx="1.172" cy="1.172" rx="1.172" ry="1.172" transform="translate(508.6 3856.485)" fill="#4d5c70" stroke="#323f51" stroke-width="2"/>
    <path id="Path_823" data-name="Path 823" d="M486.556,140.331a37.677,37.677,0,0,0-3.747-.8,15.929,15.929,0,0,0-8.208.9,12.246,12.246,0,0,0-6.169,5.385" transform="translate(41.498 3738.357)" fill="none" stroke="#374658" stroke-linecap="round" stroke-miterlimit="10" stroke-width="2"/>
    <path id="Path_825" data-name="Path 825" d="M477.689,124.343a13.613,13.613,0,0,1,6.515,3.72" transform="translate(50.44 3723.851)" fill="none" stroke="#374658" stroke-linecap="round" stroke-miterlimit="10" stroke-width="2"/>
    <path id="Path_826" data-name="Path 826" d="M472.815,124.343a13.623,13.623,0,0,0-6.515,3.72" transform="translate(39.438 3723.851)" fill="none" stroke="#374658" stroke-linecap="round" stroke-miterlimit="10" stroke-width="2"/>
    <path id="Path_827" data-name="Path 827" d="M477.675,132.158a8.734,8.734,0,0,0,4.917,0" transform="translate(50.428 3731.4)" fill="none" stroke="#374658" stroke-linecap="round" stroke-miterlimit="10" stroke-width="2"/>
    <path id="Path_828" data-name="Path 828" d="M467.1,132.158a8.734,8.734,0,0,0,4.917,0" transform="translate(40.211 3731.4)" fill="none" stroke="#374658" stroke-linecap="round" stroke-miterlimit="10" stroke-width="2"/>
    <g id="Group_552" data-name="Group 552" transform="translate(579.853 3919.718) rotate(133)">
      <line id="Line_34" data-name="Line 34" y1="9.757" x2="1.045" transform="translate(17.138 50.385)" fill="none" stroke="#485c74" stroke-linecap="round" stroke-width="10"/>
      <path id="Path_820" data-name="Path 820" d="M11.845,43.577S14.637,5.747,0,0C.059.023.029.011,0,0" transform="translate(6.807 4.13)" fill="none" stroke="#323f51" stroke-linecap="square" stroke-width="10"/>
      <path id="Path_922" data-name="Path 922" d="M2.707,5.969S-.122,5.352.014,3.859c-.029.105-.008.012.029-.085C.615,2.286,4.66-.215,4.994.015S2.707,5.969,2.707,5.969Z" transform="translate(0 0)" fill="#323f51"/>
    </g>
  </g>
</svg>
