<svg width="449.078" height="397.168" xmlns="http://www.w3.org/2000/svg"><g fill-rule="evenodd" data-name="Group 757"><path d="M279.272 130.554c5.875 14.274 3.252 29.814 2.876 44.806-1.214 46.952-3.603 93.91-5.56 140.862-.14 3.53-.235 7.05-.583 10.567-2.889 28.771-13.468 40.712-43.39 48.974-5.847 1.61-11.853 4.364-17.654 4.214-55.127-1.562-110.305-2.91-165.314-5.962-21.06-1.167-25.261-10.91-29.739-32.203-7.843-37.379-2.832-74.378.507-111.7 1.244-13.916-.896-28.036-.46-42.05.601-18.619.73-37.027 16.19-52.596 6.53-6.587 12.427-11.436 21.29-11.726 17.15-.573 34.329-.565 51.478-.428 17.1.123 33.793.49 51.049-3.831 25.435-6.365 94.976 1.69 119.31 11.073Zm-24.593 18.698c-29.722-1.06-57.178-6.523-82.84-1.816-31.002 5.693-60.967 3.75-91.42 3.43-7.335-.081-14.743-.726-22 .099-8.02.917-13.498 5.719-14.179 13.858-.504 5.829-.988 11.86-.007 17.546 6.643 38.346 5.598 77.024 3.675 115.773-.724 14.407 3.55 27.427 9.224 38.853 4.067 1.569 6.23 3.078 8.5 3.177q66.07 3.054 132.145 5.824c15.264.658 28.926-3.352 42.37-14.648 4.693-58.735 9.454-118.36 14.532-182.096Z" data-name="Path 1145"/><path fill="#6c85a0" d="M92.662 190.368c-15.352-.055-25.883.494-36.313-.304-8.764-.64-12.979-10.238-9.784-18.673 4.271-11.315 14.11-15.184 24.068-18.758 19.557-7.021 36.67-3.743 50.867 12.43 11.19 12.74 17.994 26.898 19.874 44.037a200.433 200.433 0 0 0 17.534 63.814c14.122 1.461 17.318-11.634 25.596-17.032a86.697 86.697 0 0 0 20.97-18.645c34.234-44.157 78.508-77.24 121.487-111.823 18.28-14.72 35.702-30.476 53.627-45.64 14.332-12.127 28.66-24.294 43.323-36.001 5.624-4.493 12.325-7.247 19.231-1.958 5.974 4.587 6.33 12.516.306 22.048-6.264 9.907-12.208 20.322-20.064 28.886-18.234 19.838-36.975 39.28-56.57 57.766-14.5 13.669-30.338 25.973-46.139 38.158-28.013 21.632-52.492 46.657-76.19 72.9-20.301 22.488-42.851 43.205-66.165 62.6-19.996 16.606-40.486 11.317-51.479-12.363-14.36-30.879-24.325-63.324-28.464-97.38-.95-7.773-3.6-15.32-5.715-24.062Z" data-name="Path 1144"/></g></svg>