<svg width="778.902" height="1091.944" xmlns="http://www.w3.org/2000/svg"><defs><filter id="Illustration_verb_BDS_svg__a" width="610" height="86" x="47.501" y="1005.944" filterUnits="userSpaceOnUse"><feOffset dy="3"/><feGaussianBlur result="blur" stdDeviation="3"/><feFlood flood-opacity=".161"/><feComposite in2="blur" operator="in"/><feComposite in="SourceGraphic"/></filter></defs><g data-name="Group 1151"><g data-name="Group 1050"><path fill="none" stroke="#323f51" stroke-linecap="round" stroke-linejoin="round" stroke-width="6" d="M296.102 793.947c-1.043 83.589-2.08 139.861-3.123 223.456a440.677 440.677 0 0 1-85.835 1.607" data-name="Path 1602"/><path fill="none" stroke="#323f51" stroke-linecap="round" stroke-linejoin="round" stroke-width="6" d="M472.418 804.937c-3.9 80.18-4.019 134.033-.339 214.22a204.782 204.782 0 0 1 86.3 1.223" data-name="Path 1599"/><path fill="none" stroke="#323f51" stroke-miterlimit="10" stroke-width="10" d="M296.76 10.183c-66.494 36.866-106.8 107.52-135.368 177.981a973.389 973.389 0 0 0-69.265 422.342c1.664 27.656 4.73 56.009 17.448 80.625 16.142 31.247 46.185 53.091 77.675 68.759 59.767 29.736 127.15 40.988 193.81 44.572 56.669 3.047 114.874.57 167.753-20.027s100.076-61.738 116.583-116.032c9.773-32.136 8.411-66.455 6.958-100.012q-2.141-49.548-4.289-99.1c-3.827-88.447-7.942-178.455-37.66-261.852S540.947 46.723 457.227 17.929c-26.492-9.117-144.2-18.983-159.85-7.962-.116.04-13.054 7.873-13.305 7.962" data-name="Path 1600"/><g fill="none" stroke="#323f51" stroke-linecap="round" stroke-linejoin="round" stroke-width="7" data-name="Group 1012"><path d="M367.092 222.404c-.224-22.856-73.867-22.145-73.643.714" data-name="Path 200"/><path d="M485.512 222.404c-.224-22.856-73.864-22.145-73.639.714" data-name="Path 201"/><path d="M390.085 303.625c-27.921-22.008-58.938-16.977-84.347.817" data-name="Path 202"/></g><g data-name="Group 1011"><g data-name="Group 537"><path fill="#efdc74" d="M381.188 426.498h-.054a235.892 235.892 0 0 0-60.826 7.949c-.15.04-.311.079-.472.115a235.914 235.914 0 0 0-51.7 20.8l48.759 84.583a137.6 137.6 0 0 1 27.973-11.045l.642-.159a137.8 137.8 0 0 1 35.555-4.654h.038a136.383 136.383 0 0 1 63.322 15.517l48.886-84.542a233.687 233.687 0 0 0-112.12-28.564Z" data-name="Path 755"/><path fill="#cc5858" d="M502.281 460.203 453.41 544.72a136.6 136.6 0 0 1 59.166 77.349c6.135 20.526 24.374 34.325 45.381 34.338h1.43a48.614 48.614 0 0 0 46.61-62.509 233.808 233.808 0 0 0-103.716-133.695Z" data-name="Path 754"/><path fill="#7ed6ad" d="M155.985 593.562a48.621 48.621 0 0 0 46.551 62.609h.359c21.349 0 40.437-14 46.43-34.063a136.6 136.6 0 0 1 58.6-77.008l-48.758-84.583a233.716 233.716 0 0 0-103.182 133.045Z" data-name="Path 756"/></g><g data-name="Group 536"><g data-name="Group 530"><g data-name="Group 527" opacity=".1" transform="translate(292.673 572.501)"><circle cx="84.166" cy="84.166" r="84.166" fill="#494d56" data-name="Ellipse 74"/></g><g data-name="Group 528" transform="translate(267.779 547.496)"><circle cx="80.738" cy="80.738" r="80.738" fill="#fff" data-name="Ellipse 75" transform="rotate(-45 137.829 57.09)"/></g><g data-name="Group 529" transform="translate(265.191 545.914)"><circle cx="80.738" cy="80.738" r="80.738" fill="#e7f0f7" data-name="Ellipse 76" transform="rotate(-45 137.829 57.09)"/></g></g><g data-name="Group 531"><path fill="#494d56" d="M420.277 664.75a101.676 101.676 0 0 0 .61-12.573c.008-9.664.06-19.329.079-28.993l.112-55.224.2-96.142a1.427 1.427 0 0 0-2.75-.534l-43.314 107.85-18.692 46.54c-6.76 16.834-17.71 34.91-6.5 54.03 5.144 8.777 13.11 15.647 22.923 18.335q1.392.382 2.81.657a36.861 36.861 0 0 0 30.89-8.187 40.5 40.5 0 0 0 9.912-12.688 40.055 40.055 0 0 0 3.72-13.07Z" data-name="Path 757"/><path fill="#494d56" d="M411.919 663.126a101.711 101.711 0 0 0 .61-12.573c.007-9.665.059-19.33.079-28.994l.112-55.223.2-96.143a1.426 1.426 0 0 0-2.749-.534l-43.315 107.85-18.691 46.54c-6.76 16.835-17.709 34.91-6.5 54.03 5.144 8.778 13.11 15.648 22.923 18.336q1.391.381 2.809.657a36.862 36.862 0 0 0 30.886-8.189 40.492 40.492 0 0 0 9.913-12.687 40.027 40.027 0 0 0 3.723-13.07Z" data-name="Path 758" opacity=".1"/><path fill="#fff" d="M375.59 698.66c.054.01.106.025.16.035a36.865 36.865 0 0 0 30.891-8.19 40.492 40.492 0 0 0 9.913-12.69 40.018 40.018 0 0 0 3.723-13.067 101.557 101.557 0 0 0 .61-12.576c.008-9.663.059-19.328.08-28.992l.114-55.223c.053-27.639.157-77.334.196-96.139a1.384 1.384 0 0 0-1.32-1.407Z" data-name="Path 759" opacity=".1"/></g><g data-name="Group 535"><g data-name="Group 532" opacity=".1" transform="rotate(11 -2899.342 1999.387)"><circle cx="42.795" cy="42.795" r="42.795" fill="#494d56" data-name="Ellipse 77" transform="rotate(-45 73.055 30.26)"/></g><g data-name="Group 533" transform="rotate(11 -3029.65 2127.777)"><circle cx="41.052" cy="41.052" r="41.052" fill="#fff" data-name="Ellipse 78" transform="translate(0 .788)"/></g><g data-name="Group 534" transform="rotate(11 -2924.417 2030.766)"><circle cx="41.052" cy="41.052" r="41.052" fill="#e7f0f7" data-name="Ellipse 79" transform="rotate(-45 70.08 29.028)"/></g></g></g></g><path fill="none" stroke="#323f51" stroke-linecap="round" stroke-linejoin="round" stroke-width="7" d="M113.89 342.611c-58.192 13.7-110.333 73.35-110.391 133.136-.013 14.158 2.318 28.546 8.731 41.173 11.91 23.445 35.976 37.788 58.992 50.518 81.964 45.308 103.14 36.123 208.024 52.139" data-name="Path 1603"/><path fill="none" stroke="#323f51" stroke-linecap="round" stroke-linejoin="round" stroke-width="7" d="M661.684 345.084c47.011 29.435 73.422 62.466 98.211 112.089 12.692 25.4 21.723 55.811 10.132 81.733-8.052 18-24.847 30.671-42.531 39.394-65.463 32.315-162.4 31.018-231.046 55.852" data-name="Path 1601"/></g><g filter="url(#Illustration_verb_BDS_svg__a)" transform="translate(.001 .004)"><ellipse cx="296" cy="34" fill="rgba(112,112,112,0.1)" data-name="Ellipse 121" rx="296" ry="34" transform="translate(56.5 1011.94)"/></g></g></svg>