<?xml version="1.0" encoding="UTF-8" standalone="no"?>
<svg xmlns:inkscape="http://www.inkscape.org/namespaces/inkscape" xmlns:sodipodi="http://sodipodi.sourceforge.net/DTD/sodipodi-0.dtd" xmlns="http://www.w3.org/2000/svg" xmlns:svg="http://www.w3.org/2000/svg" xmlns:bx="https://boxy-svg.com" viewBox="-1043.443 599.725 3138.074 838.291" version="1.1" id="svg7566" sodipodi:docname="Patientportræt_Yasmin19år.svg" inkscape:version="1.1.1 (3bf5ae0d25, 2021-09-20)">
  <sodipodi:namedview id="namedview7568" pagecolor="#ffffff" bordercolor="#666666" borderopacity="1.0" inkscape:pageshadow="2" inkscape:pageopacity="0.0" inkscape:pagecheckerboard="0" showgrid="false" inkscape:zoom="0.48692287" inkscape:cx="1568.0101" inkscape:cy="418.95752" inkscape:window-width="2160" inkscape:window-height="1406" inkscape:window-x="-11" inkscape:window-y="-11" inkscape:window-maximized="1" inkscape:current-layer="g7563"/>
  <defs id="defs7448">
    <clipPath id="clip-path">
      <rect id="Rectangle_362" data-name="Rectangle 362" width="870.938" height="1058.047" fill="#323f51"/>
    </clipPath>
    <clipPath id="clip-path-2">
      <rect id="Rectangle_364" data-name="Rectangle 364" width="370.478" height="846.353" fill="none"/>
    </clipPath>
    
    <clipPath id="clip-1">
      <rect id="rect-1" data-name="Rectangle 362" width="948.922" height="1058.047" fill="#323f51"/>
    </clipPath>
    <clipPath id="clip-2">
      <rect id="Rectangle_363" data-name="Rectangle 363" width="535.688" height="817.071" fill="none"/>
    </clipPath>
    <clipPath id="clip-3">
      <rect id="rect-4" data-name="Rectangle 362" width="948.922" height="1058.047" fill="#323f51"/>
    </clipPath>
    <clipPath id="clip-5">
      <rect id="Rectangle_367" data-name="Rectangle 367" width="787.201" height="890.531" fill="none"/>
    </clipPath>
  </defs>
  <g id="Group_1051" data-name="Group 1051" transform="translate(-2763.4204,10650.59)">
    <g transform="translate(-48.274582,38.277569)" id="g7471">
      <path id="Path_1296" data-name="Path 1296" d="m 2975.15,-13213.979 h 198.314 c 852.18,-6.458 1560.568,100.957 1543.399,185.058 -24.431,119.674 166.859,247.538 -202.716,191.524 -371.099,-56.245 -900.652,-6.464 -1340.686,-6.464 H 2975.15 c -852.408,0 -1323.824,-230.264 -1013.856,-357.083 141.915,-58.062 783.518,-13.035 1013.856,-13.035 z" fill="#ffffff" transform="rotate(-1.356203,3219.0066,-13024.456)"/>
      <g id="Group_878" data-name="Group 878" transform="matrix(0.824548,0,0,0.848458,1754.8076,-13651.755)">
        <g id="Group_873" data-name="Group 873">
          <g id="Group_872" data-name="Group 872" clip-path="url(#clip-path)"/>
        </g>
      </g>
      <g id="Group_880" data-name="Group 880" transform="matrix(-0.965287,0,0,0.885187,2314.2485,-13575.152)">
        <g id="Group_879" data-name="Group 879" clip-path="url(#clip-path-2)">
          <path id="Path_1297" data-name="Path 1297" d="m 272.962,270.1 c 0,0 -128.255,61.882 -202.2,38.924 0,0 18.2,-22.962 50.053,-40.046 -2.559,-14.841 -4.55,-27.722 -5.689,-38.642 C 112,205.138 112,190.857 112,190.857 l 49.483,-38.92 46.924,-37.244 c -3.7,104.726 64.554,155.41 64.554,155.41" transform="translate(34.461,55.852)" fill="#ffb27d"/>
          <path id="Path_1298" data-name="Path 1298" d="m 0,749.131 c 0.028,-1.511 0.1,-3.008 0.2,-4.52 v -1.4 c 0.294,-20.184 0.782,-40.869 1.442,-61.781 0.684,-21.149 1.539,-42.538 2.546,-63.937 0.8,-18.812 1.735,-37.47 2.827,-55.706 4.326,-72.448 11.057,-138.01 21.052,-177.828 0.223,-0.883 0.448,-1.75 0.685,-2.619 15.411,-57.358 48.975,-95.527 79.516,-123.393 l 25.586,-22.41 c 2.14,0.422 4.3,0.8 6.452,1.12 23.667,3.612 48.414,1.427 73.174,-10.623 29.576,-14.29 61.433,-29.687 66.554,-25.769 0.476,0.352 0.938,0.7 1.413,1.066 h 0.015 c 9.352,7.094 17.931,16.263 25.782,27.265 0.028,0 0.028,0.013 0.028,0.013 v 0.013 a 1.106,1.106 0 0 1 0.1,0.141 c 1.82,2.532 3.6,5.163 5.3,7.893 a 0.889,0.889 0 0 1 0.141,0.211 c 0.04,0.054 0.1,0.14 0.167,0.251 0.067,0.111 0.141,0.225 0.225,0.349 0.448,0.715 1.19,1.875 2.141,3.485 0.323,0.546 0.672,1.12 1.036,1.764 0.419,0.729 0.88,1.512 1.358,2.364 q 1.113,1.974 2.393,4.382 c 0.281,0.532 0.575,1.077 0.883,1.651 0.459,0.9 0.952,1.833 1.441,2.815 0.168,0.32 0.321,0.644 0.491,0.98 0.293,0.575 0.586,1.161 0.88,1.75 0.729,1.5 1.5,3.065 2.268,4.715 0.769,1.624 1.541,3.319 2.352,5.081 1.077,2.451 2.2,5.039 3.331,7.755 0.561,1.344 1.133,2.715 1.694,4.129 0.112,0.266 0.208,0.547 0.323,0.812 a 406.991,406.991 0 0 1 14.724,45.937 c 0.015,0.028 0.015,0.07 0.027,0.1 3.948,15.173 7.363,31.269 10.26,48.12 7.963,46.762 11.939,99.139 11.661,154.02 0,20.156 -0.575,40.883 -1.71,61.318 -2.238,36.434 -3.008,71.3 -2.9,103.674 0,1.063 0,2.128 0.015,3.19 0.013,2.128 0.028,4.227 0.042,6.328 0.015,1.581 0.028,3.161 0.055,4.73 0.03,1.805 0.042,3.612 0.071,5.389 0.028,1.624 0.04,3.233 0.07,4.828 0.013,0.2 0.013,0.393 0.013,0.589 0.013,1.022 0.042,2.043 0.056,3.065 0.07,3.038 0.128,6.061 0.2,9.057 0.055,1.988 0.1,3.975 0.15,5.934 0.073,2.21 0.128,4.407 0.2,6.578 0.04,1.665 0.1,3.316 0.153,4.955 0.028,0.727 0.057,1.456 0.071,2.168 z" fill="#2b478b" transform="translate(0,97.222)"/>
          <path id="Path_1299" data-name="Path 1299" d="m 349.71,470.456 c 0,20.156 -0.575,40.883 -1.709,61.318 -2.238,36.434 -3.01,71.3 -2.9,103.674 0,1.063 0,2.128 0.015,3.19 0.013,2.128 0.03,4.227 0.042,6.328 0.015,1.581 0.028,3.161 0.057,4.73 0.028,1.805 0.042,3.612 0.07,5.389 0.028,1.624 0.042,3.233 0.07,4.828 0.013,0.2 0.013,0.393 0.013,0.589 0.015,1.022 0.042,2.043 0.056,3.065 0.07,3.038 0.128,6.061 0.2,9.057 0.055,1.988 0.1,3.975 0.152,5.934 0.071,2.21 0.126,4.407 0.2,6.578 0.042,1.665 0.1,3.316 0.155,4.955 0.027,0.727 0.055,1.456 0.071,2.168 H 51.581 A 109.18,109.18 0 0 1 43.3,660.181 132.49,132.49 0 0 1 42.622,646 c 0.125,-25.11 7.154,-51.706 18.462,-78.312 12.681,-29.869 30.765,-59.751 50.557,-87.618 25.165,-35.44 53.1,-67.59 76.24,-92.266 v -0.015 c 28.356,-30.233 49.491,-49.224 49.491,-49.224 l 99.194,-21.808 1.484,-0.323 c 7.964,46.762 11.939,99.139 11.661,154.02" transform="translate(20.754,154.094)" fill="#233862"/>
          <path id="Path_1300" data-name="Path 1300" d="m 195.755,142.54 c 0,0 -32.417,59.082 -94.129,75.6 C 98.5,192.941 98.5,178.66 98.5,178.66 l 49.483,-38.92 z" transform="translate(47.965,68.049)" fill="#ed985f"/>
          <path id="Path_1301" data-name="Path 1301" d="m 91.142,230.039 c 0,0 122.351,20.015 133.836,-55.2 C 236.463,99.624 259.992,51.549 182.359,35.589 104.726,19.629 85.13,46.077 75.1,70.266 65.07,94.455 59.611,222.894 91.142,230.039" transform="translate(32.758,14.964)" fill="#ffb27d"/>
          <path id="Path_1302" data-name="Path 1302" d="m 282.4,41.546 c 1.112,-1.274 3.673,-2.3 9.375,-2.613 a 23.133,23.133 0 0 0 -10.653,-3 c -1.191,-7.929 -5.408,-21.96 -19.054,-25.371 0,0 7.334,3.908 8.29,12.337 C 254.552,6.669 220.691,-5.144 126.923,2.259 3.347,12.013 44.073,91.133 60.072,100.565 c 15.999,9.432 56.27,-16.427 86.078,-14.059 29.808,2.368 35.476,45.436 45.589,51.348 10.113,5.912 6.134,-4.541 19.817,-10.725 13.683,-6.184 14.983,16.486 11.03,31.228 -3.953,14.742 14.849,34.182 14.849,34.182 l 19,-20.459 c 19,-20.459 36.9,-107.115 28.263,-125.588 -0.763,-1.633 -1.517,-3.285 -2.3,-4.946" transform="translate(19.808)" fill="#323f51"/>
          <path id="Path_1303" data-name="Path 1303" d="m 309.254,595.03 q -10.16,22.989 -23.388,46.944 -9.76,17.616 -21.316,35.72 c -7.572,11.842 -21.75,25.25 -40.129,39.387 a 0.052,0.052 0 0 1 -0.028,0.015 c -8.455,6.522 -17.8,13.183 -27.8,19.915 H 18.656 c 11.925,-10.635 24.2,-21.5 36.307,-32.078 3.893,-3.4 7.783,-6.788 11.633,-10.12 23.527,-20.379 45.7,-38.994 62.521,-51.983 h 0.015 c 13.563,-10.441 23.641,-17.216 28.132,-18.266 7.029,-1.651 13.957,-27.267 20.939,-63.615 7,-36.432 14.067,-83.658 21.347,-128.391 v -0.013 c 8.956,-55.077 18.236,-106.346 28.147,-129.078 25.949,-59.639 75.889,-78.927 75.889,-78.927 0,0 0.043,0.07 0.141,0.21 0.042,0.055 0.1,0.14 0.168,0.251 0.068,0.111 0.14,0.226 0.223,0.351 0.448,0.714 1.19,1.874 2.141,3.484 0.323,0.547 0.672,1.12 1.036,1.764 0.419,0.729 0.88,1.514 1.358,2.366 0.742,1.316 1.539,2.772 2.393,4.381 0.283,0.534 0.575,1.078 0.883,1.651 0.459,0.9 0.952,1.835 1.441,2.815 0.168,0.321 0.321,0.645 0.491,0.98 0.293,0.575 0.586,1.161 0.88,1.75 0.729,1.5 1.5,3.066 2.268,4.717 0.769,1.624 1.541,3.317 2.352,5.081 1.077,2.449 2.2,5.039 3.331,7.755 0.561,1.343 1.133,2.715 1.694,4.128 0.112,0.268 0.208,0.547 0.323,0.812 a 361.027,361.027 0 0 1 14.724,45.938 c 0.015,0.027 0.015,0.068 0.027,0.1 a 385.388,385.388 0 0 1 8.776,48.442 c 7.222,61.867 1.637,141.758 -38.981,233.521" transform="translate(9.085,109.343)" fill="#2b478b"/>
        </g>
      </g>
      <text style="font-size:132px;font-family:'Roboto Slab';white-space:pre;fill:#333333" id="text7469"><tspan x="2551.8301" y="-12952.9" id="tspan7463">"Jeg hedder </tspan><tspan style="font-weight:700" id="tspan7465">Jonas</tspan><tspan id="tspan7467"> og er 21 år."</tspan></text>
    </g>
    <g transform="translate(-579.23102,-1098.3503)" id="g7563">
      <path id="path-2" data-name="Path 1296" d="m 3602.159,-10422.544 h 192.771 c 828.566,0 1707.387,-52.843 1707.387,-155.106 0,-2.149 58.341,-143.906 59.962,-145.665 153.441,-166.664 -1517.416,5.142 -2328.585,5.142 -4,-7.291 -324.063,-48.368 -667.887,27.017 -83.261,18.255 -181.854,23.414 -212.155,142.733 -21.064,82.945 24.122,103.266 36.334,115.593 33.492,33.807 -2.04,35.002 87.11,67.387 206.619,75.058 620.595,-56.882 1125.063,-57.101 z" fill="#ffffff" transform="rotate(-178.6438,3960.1515,-10569.215)"/>
      <g id="Group_1053" data-name="Group 1053" transform="matrix(-0.852776,0,0,0.858796,2845.2429,896.14624)">
        <g id="Group_875" data-name="Group 875" transform="translate(-495,-14047.094)">
          <g id="g-1" data-name="Group 873">
            <g id="g-2" data-name="Group 872" clip-path="url(#clip-1)">
              <g id="Group_877" data-name="Group 877" transform="translate(321.234,151.016)">
                <g id="Group_876" data-name="Group 876" clip-path="url(#clip-2)">
                  <path id="Path_1291" data-name="Path 1291" d="m 87.525,136.579 c 0,0 45.069,67.879 35.618,130.923 L 189.476,426.49 312,245.637 c 0,0 -63.723,-68.658 -87.1,-161.889 z" transform="translate(101.251,96.881)" fill="#ffb27d"/>
                  <path id="Path_1292" data-name="Path 1292" d="m 108.025,274.975 c 0,0 165.566,7.978 169.17,-89.249 C 280.799,88.499 325.946,24.067 202.128,14.8 100.3,7.182 66.192,48.536 56.919,80.7 47.646,112.864 46.675,269.408 108.025,274.975" transform="translate(60.459,16.058)" fill="#ffb27d"/>
                  <path id="Path_1293" data-name="Path 1293" d="m 58.925,94.932 c 0,0 -33,124.921 21.607,142.855 54.607,17.934 199.938,4.665 200.811,-148.715 0,0 -76.492,44.021 -112.9,42.684 -36.408,-1.337 -59.781,-22.021 -93.524,-6.162 0,0 -12.3,-0.874 -16,-30.661" transform="translate(56.734,103.04)" fill="#35488b"/>
                  <path id="Path_1294" data-name="Path 1294" d="m 413.266,158.877 h -0.022 c -0.222,-0.019 -1.583,-0.1 -4.629,-0.121 -18.536,17.736 -61.7,52.268 -122.076,58.8 -33.051,3.576 -49.7,-12.369 -57.88,-26.609 -0.022,-0.019 -0.022,-0.039 -0.039,-0.058 a 67.561,67.561 0 0 1 -4.426,-9.432 l 0.181,-0.716 c 0,0 -119.456,26.388 -150.029,65.392 -16.709,21.327 -32,105.481 -45.479,194.286 -0.039,0.2 -0.078,0.416 -0.1,0.615 C 17.947,512.285 8.3,586.432 0,633.419 H 535.688 V 194.124 C 478.435,161.062 414.77,158.918 413.267,158.877" transform="translate(0,183.652)" fill="#f99746"/>
                  <path id="Path_1295" data-name="Path 1295" d="m 248.076,61.5 c -2.726,-9.945 -15.2,-15.231 -15.2,-15.231 -93.034,-40.279 -161.44,2.8 -161.44,2.8 57.622,-74.73 195.5,-58.169 224.154,9.7 46.78,110.831 -40.155,133.345 -40.155,133.345 0,0 -86.456,-36.129 -35.991,-80.5 16.72,-14.7 24.838,-27.808 27.575,-39.241 A 38.3,38.3 0 0 0 248.076,61.5" transform="translate(82.642)" fill="#35488b"/>
                </g>
              </g>
            </g>
          </g>
        </g>
      </g>
      <text style="font-size:132px;font-family:'Roboto Slab';white-space:pre;fill:#333333" id="text7491"><tspan x="3051.9299" y="-10544.4" id="tspan7485">"Jeg hedder </tspan><tspan style="font-weight:700" id="tspan7487">Erik</tspan><tspan id="tspan7489"> og er lige blevet 61 år."</tspan></text>
      <path id="path-4" data-name="Path 1296" d="M 3581.628,-8663.593 H 3750.3 c 724.99,0 1493.952,52.843 1493.952,155.106 0,2.149 51.048,143.906 52.465,145.665 134.26,166.664 -658.235,92.739 -1368.002,92.739 -3.055,-17.126 -706.957,-37.003 -1016.433,-53.281 -34.215,-1.8 -472.728,-55.849 -509.079,-74.528 -73.644,-37.843 -17.061,-171.365 -0.472,-183.476 146.813,-107.18 453.349,-52.259 1178.897,-82.225 z" fill="#ffffff" transform="rotate(178.6438,3839.0144,-8448.7626)"/>
      <text style="font-size:132px;font-family:'Roboto Slab';white-space:pre;fill:#333333" x="-194.97701" y="19.823999" id="text7500"><tspan x="3050.2729" y="-8384.0654" style="font-size:132px;word-spacing:0px" id="tspan7494">"Jeg hedder </tspan><tspan style="font-weight:700;font-size:132px;word-spacing:0px" id="tspan7496">Yasmin</tspan><tspan style="font-size:132px;word-spacing:0px" id="tspan7498"> og er 19 år"</tspan></text>
      <g id="Group_1054" data-name="Group 1054" transform="translate(4532.4272,3511.5461)">
        <g id="Group_874" data-name="Group 874" transform="matrix(0.807495,0,0,0.847802,-2181.0178,-12555.901)">
          <g id="g-3" data-name="Group 873">
            <g id="g-4" data-name="Group 872" clip-path="url(#clip-3)">
              <path id="Path_1277" data-name="Path 1277" d="m 526,213.911 c -1.055,-1.75 -44.926,-71.123 -126.933,-84.964 a 117.58,117.58 0 0 0 -76.164,12.828 c -1.125,-6.979 -1.692,-11.022 -1.692,-11.022 0,0 -10.005,-44.143 -51.754,-46.288 0,0 13.312,7.957 15.445,16.356 0,0 -24.231,-20.331 -61.777,-6.739 -37.546,13.592 -93.264,51.81 -65.2,140.718 28.064,88.908 -29.225,110.941 -52.247,168.294 -23.022,57.353 55.339,68.371 39.095,113.149 -16.244,44.778 32.092,150.534 155.055,104.3 113.789,-42.786 146.18,-197.852 108.981,-255.079 z" transform="translate(76.008,63.309)" fill="#b2443b"/>
              <path id="Path_1279" data-name="Path 1279" d="m 397.186,401.337 -123.557,73.394 -27.154,-86.86 c 0,0 10.247,-31.808 14.411,-82.5 a 338.171,338.171 0 0 0 -2,-73.1 l 107.446,46.659 a 197.789,197.789 0 0 0 -2.626,24.084 c -0.8,15.455 -0.271,36.192 5.341,55.565 4.832,16.629 13.407,32.256 28.139,42.758" transform="translate(184.739,174.091)" fill="#ffb27d"/>
              <path id="Path_1280" data-name="Path 1280" d="m 362.873,328.27 c -59.269,2.182 -108.161,-53.21 -108.161,-53.21 l 102.82,-2.355 c -0.8,15.455 -0.271,36.194 5.341,55.565" transform="translate(190.913,204.399)" fill="#ea9c68"/>
              <path id="Path_1281" data-name="Path 1281" d="m 411.191,387.265 c 0,0 -116.044,38.672 -162.727,-52.592 -50.381,-98.49 -6.872,-175.353 32.889,-182.88 79.29,-15.011 127.656,12.511 143.75,43.833 16.094,31.322 50.152,170.883 -13.912,191.64" transform="translate(169.199,110.612)" fill="#ffb27d"/>
              <path id="Path_1282" data-name="Path 1282" d="m 303.076,263.891 c 0,0 5.712,11.86 36.411,3.046 0,0 25.779,-7.4 21.939,-20.968 0,0 -27.5,-4.18 -58.35,17.922" transform="translate(227.163,184.124)" fill="#ffffff"/>
              <path id="Path_1283" data-name="Path 1283" d="m 538.228,540.77 v 0.014 C 616.174,494.068 605.917,422.5 605.917,422.5 L 507.44,342.477 v -0.012 c -11.631,-9.96 -26.495,-17.124 -45.344,-19.509 -6.932,-0.876 -21.538,-3.6 -29.681,-4.572 1.387,18.356 1.387,33.173 -30.681,38.8 -20.823,3.671 -40.774,-0.128 -58.128,-7.189 a 146.738,146.738 0 0 1 -43.934,-28.141 c -1.515,0.282 -3,0.565 -4.468,0.821 -30.708,5.677 -49.578,8.111 -74.946,18.153 a 69.338,69.338 0 0 0 -23.622,15.508 l -0.077,0.077 a 69.954,69.954 0 0 0 -11.426,15.175 69.169,69.169 0 0 0 -8.345,41.773 l 4.339,37.359 0.67,5.856 7.238,62.288 16.585,142.736 3.982,34.352 c 0,0 -0.695,4.239 -1.876,11.556 v 0.025 c -0.924,5.828 -2.185,13.66 -3.648,22.877 h 337.385 a 1556.594,1556.594 0 0 1 -3.235,-189.615 z" transform="translate(132.159,238.637)" fill="#323f51"/>
              <path id="Path_1284" data-name="Path 1284" d="m 340.248,177.1 c 0,0 1.529,91.126 -50.976,121.139 0,0 20.744,-42.93 13.741,-69.161 0,0 -13.564,81.281 -55.042,95.458 -41.478,14.177 -62.444,-150.936 23.364,-184.136 85.808,-33.2 170.428,6.23 180.544,64.269 10.116,58.039 2.414,70.142 2.414,70.142 0,0 -40.169,-110.419 -114.045,-97.711" transform="translate(158.837,96.144)" fill="#b2443b"/>
              <path id="Path_1285" data-name="Path 1285" d="M 324.987,707.613 H 204.079 c 1.463,-9.216 2.722,-17.047 3.648,-22.877 v -0.023 c 1.179,-7.318 1.876,-11.557 1.876,-11.557 l -3.985,-34.356 -16.585,-142.731 -7.24,-62.288 -0.668,-5.854 -4.339,-37.361 a 69.169,69.169 0 0 1 8.345,-41.773 13.631,13.631 0 0 1 6.674,3.261 c 17.331,14.635 34.3,40.516 50.017,71.047 5.751,11.193 11.347,23.029 16.715,35.148 q 5.545,12.56 10.76,25.368 v 0.03 c 1.307,3.207 2.591,6.391 3.875,9.573 30.221,76.181 50.609,152.053 50.609,152.053 0,0 4.493,25.8 1.205,62.341" transform="translate(132.159,261.429)" fill="#202d3e"/>
              <path id="Path_1286" data-name="Path 1286" d="m 301.581,433.768 c 0,0 -2.724,6.984 -7.189,18.333 v 0.028 c -2.673,6.774 -5.957,15.146 -9.682,24.493 -16.045,40.414 -39.774,99.366 -54,130.665 -3.49,7.675 -6.417,13.685 -8.5,17.355 -1.951,3.441 2.7,14.353 10.6,28.554 v 0.025 c 3.9,6.981 8.576,14.789 13.632,22.875 h -89.598 c -6.419,-8.882 -10.936,-16.946 -12.684,-23.592 -7.367,-27.887 17.845,-140.476 34.432,-208.568 4.622,-18.949 8.576,-34.431 10.963,-43.7 1.541,-6.006 2.439,-9.4 2.439,-9.4 l 14.224,5.572 14.381,5.647 h 0.026 l 63.006,24.675 z" transform="translate(107.065,292.943)" fill="#ffb27d"/>
              <path id="Path_1287" data-name="Path 1287" d="m 281,521.515 c 0,0 -67.28,11.755 -132.917,-56.077 0,0 55.756,-163.135 125.259,-130.1 69.503,33.035 52.79,146.841 7.658,186.177" transform="translate(110.992,248.033)" fill="#323f51"/>
            </g>
          </g>
        </g>
      </g>
      <g transform="translate(-184.65062)" id="g7561">
        <g id="g7551">
          <path id="path-6" data-name="Path 1296" d="m 3890.901,-6581.568 h 171.505 c 737.154,0 1519.017,52.844 1519.017,155.107 0,2.149 51.905,143.906 53.345,145.665 136.513,166.665 -669.278,92.74 -1390.954,92.74 -3.106,-17.126 -1007.985,79.317 -1321.423,11.927 -34.034,-7.318 -192.725,-121.058 -229.686,-139.737 -74.881,-37.843 -17.347,-171.365 -0.479,-183.476 149.275,-107.181 460.955,-52.26 1198.675,-82.226 z" fill="#ffffff" transform="rotate(-1.356203,4152.5734,-6366.7598)"/>
          <g id="Group_1052" data-name="Group 1052" transform="matrix(0.986523,0,0,0.915957,-323.70758,4222.4687)">
            <g id="Group_884" data-name="Group 884" transform="translate(2934,-12194.172)">
              <g id="Group_883" data-name="Group 883">
                <g id="Group_882" data-name="Group 882" clip-path="url(#clip-5)">
                  <path id="Path_1308" data-name="Path 1308" d="M 33.284,0 0,11.1 V 0 Z" transform="translate(-0.001,-0.001)" fill="#f8fbff"/>
                  <path id="Path_1310" data-name="Path 1310" d="m 344.575,625.915 c -0.883,-13.189 -29.719,-45.72 -29.719,-45.72 C 295.434,535.121 277.364,429.347 277.364,429.347 274.053,305.804 260.057,234.272 248.73,195.736 c -7.23,-24.652 -13.4,-35.8 -14.978,-38.439 -0.251,-0.423 -0.386,-0.635 -0.386,-0.635 a 4.526,4.526 0 0 0 -0.441,0.423 143.878,143.878 0 0 0 -11.442,11.92 c -77.685,90.32 -11.325,234.979 -9.288,268.036 2.117,34.609 75.751,148.133 75.751,148.133 2.538,8.382 3.722,14.1 1.573,21.162 -2.536,8.325 10.38,17.383 11.948,25.146 1.568,7.763 5.7,7.394 7.283,5.067 1.583,-2.327 -3.536,-16.857 -4.05,-20.549 -0.514,-3.692 7.867,8.7 9.794,16.868 1.927,8.168 -6.083,28.517 6.736,25.68 12.819,-2.837 24.222,-19.443 23.342,-32.629" transform="translate(238.826,203.502)" fill="#f4a671"/>
                  <path id="Path_1311" data-name="Path 1311" d="m 156.18,85.311 c 0,0 -0.637,13.73 7.6,16.419 8.237,2.689 -8.486,32.314 -7.171,52.325 1.315,20.011 10.161,28.045 10.161,28.045 0,0 -4.251,-11.005 -1.874,-17.812 0,0 -0.379,14.157 9.959,21.3 10.338,7.143 7.559,13.316 7.559,13.316 0,0 23.365,-7 24.02,-24.521 0,0 1,7.922 0.2,11.2 0,0 20.176,-15.15 21.139,-32.6 0.963,-17.45 -15.886,-32.181 -23.553,-32.45 -7.667,-0.269 -24.799,-15.333 -24.335,-21.033 0.464,-5.7 -23.7,-14.192 -23.7,-14.192" transform="translate(202.861,110.817)" fill="#2c3a64"/>
                  <path id="Path_1312" data-name="Path 1312" d="M 294.454,48.428 C 280.86,27.785 226.88,39.338 173.891,74.236 120.902,109.134 88.966,154.159 102.563,174.8 c 13.597,20.641 67.573,9.091 120.563,-25.8 52.99,-34.891 84.927,-79.924 71.328,-100.567" transform="translate(129.159,49.607)" fill="#e2af64"/>
                  <path id="Path_1313" data-name="Path 1313" d="M 329.511,476.152 H 143.3 c -0.887,-4.934 -1.8,-9.824 -2.683,-14.651 -2.729,-14.7 -5.345,-28.825 -7.856,-42.131 l 7.7,-2.49 83.292,-26.857 4.285,-13.589 7.205,-22.873 5.736,-18.222 18.546,-4.89 16.553,-4.352 a 0.21,0.21 0 0 1 0.11,-0.021 L 303,319 a 42.929,42.929 0 0 1 1.819,4.586 c 2.055,5.929 5.69,18.351 10.019,41.57 4.046,21.661 8.679,52.736 13.18,96.686 0.3,2.9 0.6,5.842 0.906,8.876 q 0.166,1.721 0.326,3.437 c 0.085,0.671 0.175,1.322 0.26,1.993" transform="translate(172.453,414.379)" fill="#2b478b"/>
                  <path id="Path_1314" data-name="Path 1314" d="M 329.511,479.381 H 143.3 c -0.887,-4.934 -1.8,-9.824 -2.683,-14.651 -2.729,-14.7 -5.345,-28.825 -7.856,-42.131 l 7.7,-2.49 83.292,-26.857 4.285,-13.589 7.205,-22.873 5.736,-18.222 18.438,-5.5 5.952,-1.752 49.7,-14.8 0.368,5.715 c 0.5,6.945 1.538,20.946 3.681,45.616 1.945,22.546 4.8,54.033 8.936,97.226 q 0.421,4.352 0.864,8.876 0.166,1.721 0.326,3.437 c 0.085,0.671 0.175,1.322 0.26,1.993" transform="translate(172.453,411.149)" fill="#233862"/>
                  <path id="Path_1315" data-name="Path 1315" d="m 267.529,72.786 -95.253,144.521 c 0,0 -10.89,-21.335 -22.985,-13.681 -18.87,11.925 -59.41,-28.889 -50.957,-86.513 0.559,-3.766 1.221,-7.345 1.954,-10.745 C 119.293,78.984 140.4,48.5 155.544,27.061 199.286,0.644 267.529,72.786 267.529,72.786" transform="translate(126.247,27.597)" fill="#2c3a64"/>
                  <path id="Path_1316" data-name="Path 1316" d="m 302.388,261.237 c -13.329,12.212 -30.639,23.142 -53.079,31.639 -84.115,31.875 -127.377,-37 -146.728,-85.681 10.922,-8.384 21.861,-11.394 28.195,-13.04 6.175,-1.593 12.709,-2.984 18.137,-4 8.736,-8.8 19.111,-41.34 15.87,-89.24 l 4.232,0.538 70.985,9.431 c 0,0 -0.175,22.183 1.087,42.954 1,16.254 2.906,31.659 6.462,35.009 5.5,0.43 8.807,0.749 8.807,0.749 a 0.169,0.169 0 0 0 0.044,0.06 444.8,444.8 0 0 1 45.984,71.581" transform="translate(133.251,131.093)" fill="#ffb27d"/>
                  <path id="Path_1317" data-name="Path 1317" d="m 202.473,110.584 c 0,0 -0.189,22.164 1.085,42.954 -39.3,1.391 -62.321,-33.078 -72.08,-52.378 z" transform="translate(170.787,131.405)" fill="#ed985f"/>
                  <path id="Path_1318" data-name="Path 1318" d="m 225.544,200.924 c 0,0 -92.727,7.439 -96.472,-50.378 -3.745,-57.817 -18.236,-95.8 40.812,-102.992 59.048,-7.192 71.99,14.125 77.931,33.117 5.941,18.992 1.752,116.83 -22.27,120.253" transform="translate(162.074,59.914)" fill="#ffb27d"/>
                  <path id="Path_1319" data-name="Path 1319" d="m 258.894,55.124 c -15.456,-16.477 -26.054,-11.973 -31.8,-6.357 -52.513,-24.661 -82.582,18.659 -82.582,18.659 -3.57,41.881 -31.974,67.551 -31.974,67.551 0,0 17.585,9.378 55.953,-3.136 11.718,-3.826 21.817,-12.969 30.2,-23.813 -14.1,27.464 -34.372,47.895 -34.372,47.895 45.221,-24.5 59.806,-90.492 61.236,-97.463 5.989,4.727 17.863,15.072 21.958,25.691 5.566,14.428 9.578,44.6 18.344,43.014 0,0 16.212,-47.327 -6.966,-72.041" transform="translate(146.189,53.487)" fill="#2c3a64"/>
                  <path id="Path_1320" data-name="Path 1320" d="m 105.271,153.878 c 0,0 -43.124,-85.837 17.137,-119.768 C 182.669,0.179 226.779,13.5 259.931,55 Z" transform="translate(117.332,19.281)" fill="#edbd77"/>
                  <path id="Path_1321" data-name="Path 1321" d="M 363.826,35.7 C 352.379,17.35 314.575,18.648 267.66,35.831 q -5.911,2.141 -11.989,4.651 h -0.023 a 434.573,434.573 0 0 0 -64.162,33.177 c -27.222,16.985 -50.918,35.574 -69.528,53.732 -1.927,1.881 -3.786,3.766 -5.607,5.626 -26.1,26.944 -40.51,52.5 -37.869,70.027 a 22.024,22.024 0 0 0 3.117,8.743 c 7.964,12.746 28.673,15.992 56.371,10.994 a 239.31,239.31 0 0 0 39.255,-10.906 h 0.023 c 4.393,-1.6 8.83,-3.334 13.373,-5.193 -0.2,-0.216 -0.391,-0.414 -0.584,-0.609 -0.736,-0.754 -1.515,-1.49 -2.338,-2.186 l -0.844,-0.646 a 16.774,16.774 0 0 0 -2.835,-1.71 c -0.193,-0.085 -0.345,-0.17 -0.54,-0.258 h -0.046 a 1.052,1.052 0 0 1 -0.149,-0.067 12.052,12.052 0 0 0 -1.927,-0.584 3.612,3.612 0 0 0 -0.474,-0.087 3.819,3.819 0 0 0 -0.5,-0.062 6.914,6.914 0 0 0 -0.972,-0.067 h -0.152 c -0.239,0 -0.453,0.021 -0.692,0.041 -0.258,0.025 -0.5,0.044 -0.756,0.087 -0.3,0.064 -0.609,0.131 -0.91,0.216 -0.283,0.087 -0.563,0.175 -0.844,0.283 a 8.421,8.421 0 0 0 -1.018,0.453 c -0.345,0.175 -0.69,0.366 -1.035,0.584 a 12.871,12.871 0 0 1 -3.552,1.559 14.975,14.975 0 0 1 -4.437,0.5 h -0.023 c -0.255,0 -0.538,-0.023 -0.818,-0.044 -0.347,-0.044 -0.694,-0.064 -1.039,-0.108 -0.347,-0.064 -0.717,-0.11 -1.085,-0.172 -0.582,-0.131 -1.166,-0.26 -1.752,-0.432 h -0.041 c -0.476,-0.154 -0.952,-0.3 -1.428,-0.478 -0.455,-0.152 -0.887,-0.324 -1.343,-0.494 -0.044,-0.025 -0.108,-0.046 -0.152,-0.069 -0.368,-0.152 -0.715,-0.3 -1.081,-0.478 -0.692,-0.343 -1.432,-0.708 -2.143,-1.1 -0.368,-0.193 -0.717,-0.412 -1.085,-0.625 -0.368,-0.213 -0.713,-0.455 -1.081,-0.692 -0.368,-0.237 -0.713,-0.476 -1.081,-0.717 -0.368,-0.26 -0.715,-0.517 -1.083,-0.8 -0.368,-0.262 -0.715,-0.543 -1.085,-0.825 h -0.016 a 27.681,27.681 0 0 1 -7.449,-2.269 c -0.234,-0.131 -0.474,-0.239 -0.69,-0.368 a 0.168,0.168 0 0 0 -0.09,-0.046 15.286,15.286 0 0 1 -5.083,-4.393 c -0.175,-0.26 -0.347,-0.52 -0.52,-0.777 a 15.379,15.379 0 0 1 -1,-1.86 17.562,17.562 0 0 1 -1,-9.373 v -0.021 c 2.184,-16.251 21.252,-39.752 50.1,-61.631 0.625,-0.478 1.255,-0.952 1.883,-1.428 6.253,-4.651 12.941,-9.24 19.994,-13.635 A 262.892,262.892 0 0 1 255.171,76.93 h 0.3 c 5.108,-1.862 9.759,-3.419 14.456,-4.653 h 0.021 c 1.3,-0.347 2.6,-0.648 3.853,-0.952 h 0.023 a 100.525,100.525 0 0 1 14.932,-2.4 h 0.021 c 0.37,-0.044 0.736,-0.067 1.081,-0.09 12.488,-0.821 21.707,1.818 25.732,8.29 3.483,5.6 2.724,13.4 -1.559,22.4 a 0.385,0.385 0 0 1 0.021,0.152 c 0.368,1.448 0.671,2.922 0.908,4.393 0.131,0.648 0.216,1.3 0.306,1.968 0.018,0.023 0.018,0.041 0.018,0.087 0.067,0.5 0.129,1.018 0.175,1.536 v 0.023 c 0.044,0.237 0.064,0.5 0.108,0.733 0,0.044 0.023,0.09 0.023,0.133 0,0.064 0.021,0.126 0.021,0.193 0.041,0.517 0.085,1.037 0.131,1.538 0.021,0.28 0.041,0.538 0.062,0.8 0.023,0.543 0.067,1.083 0.087,1.623 0.044,0.738 0.067,1.474 0.085,2.184 a 97.943,97.943 0 0 1 -0.3,10.217 c -0.064,0.671 -0.108,1.32 -0.172,1.968 -0.021,0.2 -0.044,0.391 -0.067,0.584 C 355.473,91.1 375.9,55.051 363.826,35.7" transform="translate(101.543,29.149)" fill="#ffcf83"/>
                  <path id="Path_1322" data-name="Path 1322" d="m 383.248,226.234 c -11.541,-57.734 -47.3,-74.269 -47.3,-74.269 0,0 -5.943,-9.007 -39.159,-10.424 -5.17,-0.214 -10.819,-1.283 -17.114,-1.786 -1.258,-0.085 -2.538,-0.184 -3.858,-0.267 a 0.341,0.341 0 0 0 0.041,0.064 c 1.264,1.94 34.772,53.46 32.912,67.3 -1.9,14.1 -123.874,9.274 -132.711,2.159 -7.088,-5.738 -19.4,-44 -23.99,-58.962 -1.163,-3.727 -1.846,-6.01 -1.846,-6.01 0,0 -42.593,7.43 -62.624,24.02 0,0 15.327,16.822 25.567,37.5 0.968,1.973 1.894,3.936 2.754,5.945 a 87.525,87.525 0 0 1 4.467,12.925 c 1.464,5.752 0.14,11.677 -2.963,18.049 -2.789,5.83 -7.118,12.086 -12.1,18.875 -3.281,4.409 -6.819,9.086 -10.419,14.079 2.533,8.417 5.837,18.507 9.5,29.912 7.531,23.473 16.5,52.46 22.9,83.681 a 79.794,79.794 0 0 1 -0.8,35.4 81.636,81.636 0 0 1 -4.635,13.474 c -3.046,6.819 -3.8,16.21 -7.21,25.022 -13.939,36.1 -30.029,83.2 -13.907,107.8 10.755,31.443 259.817,-44.92 243.053,-77.889 0,0 9.929,-172.987 16.783,-226.571 0.223,-1.966 0.407,-3.862 0.508,-5.77 a 82.963,82.963 0 0 0 -0.016,-8.886 c 21.59,-9.83 22.169,-25.372 22.169,-25.372" transform="translate(113.796,181.193)" fill="#f99746"/>
                  <path id="Path_1323" data-name="Path 1323" d="m 206.438,378.374 c -35.871,11.493 -70.8,16.429 -98.509,18.433 3.416,-8.812 5.941,-16.8 8.984,-23.617 a 81.633,81.633 0 0 0 4.635,-13.474 79.8,79.8 0 0 0 0.8,-35.4 c -6.4,-31.216 -23.4,-84.471 -30.935,-107.942 20.125,-44.885 40.922,-20.406 40.922,-20.406 0,0 60.822,27.28 86.713,77.565 25.891,50.285 18.341,94.923 -12.615,104.84" transform="translate(118.75,245.905)" fill="#ed7d2b"/>
                  <path id="Path_1324" data-name="Path 1324" d="m 107.68,144.9 c 0,0 57.925,37.018 72.735,115.057 l 17.516,-5.561 c 0,0 -6.78,-55.709 -73.779,-112.924 z" transform="translate(139.874,183.773)" fill="#2b478b"/>
                  <path id="Path_1325" data-name="Path 1325" d="m 229.811,264.366 -18.341,1.2 c 3.674,-67.661 -30.282,-113.852 -40.32,-125.961 6.292,0.506 11.994,1.115 17.111,1.791 48.035,69.5 41.549,122.968 41.549,122.968" transform="translate(222.321,181.347)" fill="#2b478b"/>
                  <path id="Path_1326" data-name="Path 1326" d="M 373.985,500.026 361.2,306.135 c 0,0 -12.424,-88.164 -12.608,-103.571 -0.184,-15.407 -12.626,-22.919 -12.626,-22.919 0,0 -91.309,4.814 -117.046,6.262 -25.737,1.448 -23.15,16.093 -23.15,16.093 0,0 11.221,46.846 12.355,51.667 17.33,73.623 -81.752,118.607 -81.752,118.607 0,0 -16.073,41.591 -28.542,81.426 C 76.456,522.007 95.546,620 95.546,620 h 0.011 c 0.517,8.419 1.124,21.273 1.773,37.177 h 205.518 c 0.908,-4.283 1.968,-9.132 3.18,-14.458 4.653,-20.272 11.58,-47.131 21.229,-73.032 2.317,-6.235 4.784,-12.424 7.423,-18.459 7.377,-16.838 16.035,-32.418 26.075,-44.471 0.391,-0.474 0.435,-0.841 0.218,-1.124 z" transform="translate(113.921,233.355)" fill="#2b478b"/>
                  <path id="Path_1327" data-name="Path 1327" d="m 139.209,195.714 a 7.692,7.692 0 1 1 9.658,5 7.689,7.689 0 0 1 -9.658,-5" transform="translate(180.359,241.212)" fill="#ed7d2b"/>
                  <path id="Path_1328" data-name="Path 1328" d="m 139.781,195.534 a 7.692,7.692 0 1 1 9.66,5 7.69,7.69 0 0 1 -9.66,-5" transform="translate(181.102,240.976)" fill="#f99746"/>
                  <path id="Path_1329" data-name="Path 1329" d="m 140.692,189.484 a 1.117,1.117 0 1 1 1.115,1.117 1.118,1.118 0 0 1 -1.115,-1.117" transform="translate(182.756,244.688)" fill="#2b478b"/>
                  <path id="Path_1330" data-name="Path 1330" d="m 143.867,189.488 a 1.118,1.118 0 1 1 1.115,1.12 1.117,1.117 0 0 1 -1.115,-1.12" transform="translate(186.88,244.695)" fill="#2b478b"/>
                  <path id="Path_1331" data-name="Path 1331" d="m 188.455,191.463 a 7.692,7.692 0 1 1 9.658,5 7.689,7.689 0 0 1 -9.658,-5" transform="translate(244.328,235.69)" fill="#ed7d2b"/>
                  <path id="Path_1332" data-name="Path 1332" d="m 189.028,191.282 a 7.692,7.692 0 1 1 9.658,5 7.685,7.685 0 0 1 -9.658,-5" transform="translate(245.072,235.455)" fill="#f99746"/>
                  <path id="Path_1333" data-name="Path 1333" d="m 189.939,185.234 a 1.117,1.117 0 1 1 1.113,1.117 1.115,1.115 0 0 1 -1.113,-1.117" transform="translate(246.727,239.167)" fill="#2b478b"/>
                  <path id="Path_1334" data-name="Path 1334" d="m 193.113,185.239 a 1.118,1.118 0 1 1 1.115,1.117 1.117,1.117 0 0 1 -1.115,-1.117" transform="translate(250.85,239.173)" fill="#2b478b"/>
                  <path id="Path_1335" data-name="Path 1335" d="m 102.4,90.1 c 0,0 -0.637,13.732 7.6,16.417 8.237,2.685 -8.486,32.314 -7.173,52.327 1.313,20.013 10.164,28.045 10.164,28.045 0,0 -4.251,-11.008 -1.874,-17.817 0,0 -0.379,14.162 9.959,21.3 10.338,7.138 7.559,13.318 7.559,13.318 0,0 23.367,-7 24.02,-24.521 0,0 1,7.918 0.2,11.2 0,0 20.176,-15.15 21.139,-32.6 0.963,-17.45 -15.886,-32.183 -23.553,-32.455 -7.667,-0.272 -24.792,-15.327 -24.33,-21.022 C 126.573,98.597 102.4,90.1 102.4,90.1" transform="translate(133.005,117.041)" fill="#2c3a64"/>
                  <path id="Path_1336" data-name="Path 1336" d="m 156.17,102.668 c 0,0 13.817,8.377 23.65,7.4 9.736,-0.966 15.042,-12.713 15.042,-12.713 a 81.651,81.651 0 0 0 -38.692,5.313" transform="translate(202.862,125.86)" fill="#fff2e9"/>
                  <path id="Path_1337" data-name="Path 1337" d="m 275.2,476.449 c -8.628,-5.3 -18.208,-1.356 -26.668,3.308 3.081,-3.416 2.708,-6.233 2.225,-7.925 -0.483,-1.692 -6.035,4.106 -12,6.759 -5.965,2.653 -7.527,9.4 -7.527,9.4 -2.154,0.08 -10.925,-4.782 -18.716,-9.38 C 178.7,456.71 119.632,362.385 117.922,354.2 c -1.71,-8.185 74.041,-81.6 97.063,-108.742 23.022,-27.142 -13.9,-106.6 -49.69,-92.614 0,0 -103.312,122.018 -137.5,190.76 0,0 35.63,77.535 148.015,146.9 l -0.166,0.138 c 0,0 31.862,20.1 46.607,24.995 15.337,5.083 37.066,-5.722 45.888,-7 8.822,-1.278 27.195,6.281 32.611,-0.129 5.416,-6.41 -9.906,-22.436 -25.555,-32.055" transform="translate(36.105,196.414)" fill="#ffb27d"/>
                  <path id="Path_1338" data-name="Path 1338" d="m 113.827,154.571 -46.41,45.34 c 0,0 10.6,66.949 80.841,75.692 0,0 57.652,-46.159 23.2,-94.238 -34.452,-48.079 -57.635,-26.795 -57.635,-26.795" transform="translate(87.573,194.688)" fill="#f99746"/>
                </g>
              </g>
            </g>
          </g>
        </g>
        <text style="font-size:132px;font-family:'Roboto Slab';white-space:pre;fill:#333333" id="text7559"><tspan x="3186.1299" y="-6311.1899" style="font-size:132px;word-spacing:0px" id="tspan7553">"Jeg hedder </tspan><tspan style="font-weight:700;font-size:132px;word-spacing:0px" id="tspan7555">Ida</tspan><tspan style="font-size:132px;word-spacing:0px" id="tspan7557"> og er lige fyldt 25 år"</tspan></text>
      </g>
    </g>
  </g>
</svg>
