<svg viewBox="-1041.076 -2894.099 3138.074 838.291" xmlns="http://www.w3.org/2000/svg"><defs><clipPath id="Patientportræt_Jonas20år_svg__a"><path fill="#323f51" d="M0 0h870.938v1058.047H0z" data-name="Rectangle 362"/></clipPath><clipPath id="Patientportræt_Jonas20år_svg__b"><path fill="none" d="M0 0h370.478v846.353H0z" data-name="Rectangle 364"/></clipPath></defs><g data-name="Group 1051"><path fill="#fff" d="m159.038-2519.287 198.258-4.693c851.789-26.626 1562.52 63.993 1547.347 148.477-21.592 120.218 172.67 243.519-198.126 196.268-372.327-47.446-900.553 14.854-1340.464 25.269l-198.255 4.694c-852.17 20.174-1328.903-198.868-1022.024-332.987 140.501-61.405 782.99-31.576 1013.264-37.028z" data-name="Path 1296"/><g data-name="Group 880"><g clip-path="url(#Patientportræt_Jonas20år_svg__b)" data-name="Group 879" transform="matrix(-.96529 0 0 .88519 -497.446 -2886.284)"><path fill="#ffb27d" d="M307.423 325.952s-128.255 61.882-202.2 38.924c0 0 18.2-22.962 50.053-40.046-2.559-14.841-4.55-27.722-5.689-38.642-3.126-25.198-3.126-39.479-3.126-39.479l49.483-38.92 46.924-37.244c-3.7 104.726 64.554 155.41 64.554 155.41" data-name="Path 1297"/><path fill="#2b478b" d="M0 846.353c.028-1.511.1-3.008.2-4.52v-1.4a3648.22 3648.22 0 0 1 1.442-61.781 4363.254 4363.254 0 0 1 2.546-63.937c.8-18.812 1.735-37.47 2.827-55.706 4.326-72.448 11.057-138.01 21.052-177.828.223-.883.448-1.75.685-2.619 15.411-57.358 48.975-95.527 79.516-123.393l25.586-22.41c2.14.422 4.3.8 6.452 1.12 23.667 3.612 48.414 1.427 73.174-10.623 29.576-14.29 61.433-29.687 66.554-25.769.476.352.938.7 1.413 1.066h.015c9.352 7.094 17.931 16.263 25.782 27.265.028 0 .028.013.028.013v.013a1.106 1.106 0 0 1 .1.141c1.82 2.532 3.6 5.163 5.3 7.893a.889.889 0 0 1 .141.211c.04.054.1.14.167.251.067.111.141.225.225.349.448.715 1.19 1.875 2.141 3.485.323.546.672 1.12 1.036 1.764.419.729.88 1.512 1.358 2.364q1.113 1.974 2.393 4.382c.281.532.575 1.077.883 1.651.459.9.952 1.833 1.441 2.815.168.32.321.644.491.98.293.575.586 1.161.88 1.75.729 1.5 1.5 3.065 2.268 4.715.769 1.624 1.541 3.319 2.352 5.081 1.077 2.451 2.2 5.039 3.331 7.755a249.863 249.863 0 0 1 1.694 4.129c.112.266.208.547.323.812a406.991 406.991 0 0 1 14.724 45.937c.015.028.015.07.027.1 3.948 15.173 7.363 31.269 10.26 48.12 7.963 46.762 11.939 99.139 11.661 154.02 0 20.156-.575 40.883-1.71 61.318-2.238 36.434-3.008 71.3-2.9 103.674 0 1.063 0 2.128.015 3.19.013 2.128.028 4.227.042 6.328.015 1.581.028 3.161.055 4.73.03 1.805.042 3.612.071 5.389.028 1.624.04 3.233.07 4.828.013.2.013.393.013.589.013 1.022.042 2.043.056 3.065.07 3.038.128 6.061.2 9.057.055 1.988.1 3.975.15 5.934.073 2.21.128 4.407.2 6.578.04 1.665.1 3.316.153 4.955.028.727.057 1.456.071 2.168z" data-name="Path 1298"/><path fill="#233862" d="M370.464 624.55c0 20.156-.575 40.883-1.709 61.318-2.238 36.434-3.01 71.3-2.9 103.674 0 1.063 0 2.128.015 3.19.013 2.128.03 4.227.042 6.328.015 1.581.028 3.161.057 4.73.028 1.805.042 3.612.07 5.389.028 1.624.042 3.233.07 4.828.013.2.013.393.013.589.015 1.022.042 2.043.056 3.065.07 3.038.128 6.061.2 9.057.055 1.988.1 3.975.152 5.934.071 2.21.126 4.407.2 6.578.042 1.665.1 3.316.155 4.955.027.727.055 1.456.071 2.168H72.335a109.18 109.18 0 0 1-8.281-32.078 132.49 132.49 0 0 1-.678-14.181c.125-25.11 7.154-51.706 18.462-78.312 12.681-29.869 30.765-59.751 50.557-87.618 25.165-35.44 53.1-67.59 76.24-92.266v-.015c28.356-30.233 49.491-49.224 49.491-49.224l99.194-21.808 1.484-.323c7.964 46.762 11.939 99.139 11.661 154.02" data-name="Path 1299"/><path fill="#ed985f" d="M243.72 210.589s-32.417 59.082-94.129 75.6c-3.126-25.199-3.126-39.48-3.126-39.48l49.483-38.92z" data-name="Path 1300"/><path fill="#ffb27d" d="M123.9 245.003s122.351 20.015 133.836-55.2c11.485-75.215 35.014-123.29-42.619-139.25-77.633-15.96-97.229 10.488-107.259 34.677-10.03 24.189-15.489 152.628 16.042 159.773" data-name="Path 1301"/><path fill="#323f51" d="M302.208 41.546c1.112-1.274 3.673-2.3 9.375-2.613a23.133 23.133 0 0 0-10.653-3c-1.191-7.929-5.408-21.96-19.054-25.371 0 0 7.334 3.908 8.29 12.337-15.806-16.23-49.667-28.043-143.435-20.64-123.576 9.754-82.85 88.874-66.851 98.306 15.999 9.432 56.27-16.427 86.078-14.059 29.808 2.368 35.476 45.436 45.589 51.348 10.113 5.912 6.134-4.541 19.817-10.725 13.683-6.184 14.983 16.486 11.03 31.228-3.953 14.742 14.849 34.182 14.849 34.182l19-20.459c19-20.459 36.9-107.115 28.263-125.588-.763-1.633-1.517-3.285-2.3-4.946" data-name="Path 1302"/><path fill="#2b478b" d="M318.339 704.373q-10.16 22.989-23.388 46.944-9.76 17.616-21.316 35.72c-7.572 11.842-21.75 25.25-40.129 39.387a.052.052 0 0 1-.028.015c-8.455 6.522-17.8 13.183-27.8 19.915H27.741c11.925-10.635 24.2-21.5 36.307-32.078 3.893-3.4 7.783-6.788 11.633-10.12 23.527-20.379 45.7-38.994 62.521-51.983h.015c13.563-10.441 23.641-17.216 28.132-18.266 7.029-1.651 13.957-27.267 20.939-63.615 7-36.432 14.067-83.658 21.347-128.391v-.013c8.956-55.077 18.236-106.346 28.147-129.078 25.949-59.639 75.889-78.927 75.889-78.927s.043.07.141.21c.042.055.1.14.168.251.068.111.14.226.223.351.448.714 1.19 1.874 2.141 3.484.323.547.672 1.12 1.036 1.764.419.729.88 1.514 1.358 2.366a196.587 196.587 0 0 1 2.393 4.381c.283.534.575 1.078.883 1.651.459.9.952 1.835 1.441 2.815.168.321.321.645.491.98.293.575.586 1.161.88 1.75.729 1.5 1.5 3.066 2.268 4.717.769 1.624 1.541 3.317 2.352 5.081a425.63 425.63 0 0 1 3.331 7.755 249.708 249.708 0 0 1 1.694 4.128c.112.268.208.547.323.812a361.027 361.027 0 0 1 14.724 45.938c.015.027.015.068.027.1a385.388 385.388 0 0 1 8.776 48.442c7.222 61.867 1.637 141.758-38.981 233.521" data-name="Path 1303"/></g></g><text style="font-size:132px;font-family:'Roboto Slab';white-space:pre;fill:#333" transform="translate(-2811.695 10688.868)"><tspan x="2551.83" y="-12952.9">&quot;Jeg hedder </tspan><tspan style="font-weight:700">Jonas</tspan><tspan> og er 20 år.&quot;</tspan></text></g></svg>