<?xml version="1.0" encoding="UTF-8" standalone="no"?>
<svg xmlns:inkscape="http://www.inkscape.org/namespaces/inkscape" xmlns:sodipodi="http://sodipodi.sourceforge.net/DTD/sodipodi-0.dtd" xmlns="http://www.w3.org/2000/svg" xmlns:svg="http://www.w3.org/2000/svg" xmlns:bx="https://boxy-svg.com" viewBox="-1041.076 -2894.099 3138.074 838.291" version="1.1" id="svg9412" sodipodi:docname="Patientportræt_Jonas20år.svg" inkscape:version="1.1.1 (3bf5ae0d25, 2021-09-20)">
  <sodipodi:namedview id="namedview9414" pagecolor="#ffffff" bordercolor="#666666" borderopacity="1.0" inkscape:pageshadow="2" inkscape:pageopacity="0.0" inkscape:pagecheckerboard="0" showgrid="false" inkscape:zoom="0.48692287" inkscape:cx="1568.0101" inkscape:cy="821.48533" inkscape:window-width="2160" inkscape:window-height="1406" inkscape:window-x="-11" inkscape:window-y="-11" inkscape:window-maximized="1" inkscape:current-layer="Group_1051"/>
  <defs id="defs9294">
    <clipPath id="clip-path">
      <rect id="Rectangle_362" data-name="Rectangle 362" width="870.938" height="1058.047" fill="#323f51"/>
    </clipPath>
    <clipPath id="clip-path-2">
      <rect id="Rectangle_364" data-name="Rectangle 364" width="370.478" height="846.353" fill="none"/>
    </clipPath>
    
    <clipPath id="clip-1">
      <rect id="rect-1" data-name="Rectangle 362" width="948.922" height="1058.047" fill="#323f51"/>
    </clipPath>
    <clipPath id="clip-2">
      <rect id="Rectangle_363" data-name="Rectangle 363" width="535.688" height="817.071" fill="none"/>
    </clipPath>
    <clipPath id="clip-3">
      <rect id="rect-4" data-name="Rectangle 362" width="948.922" height="1058.047" fill="#323f51"/>
    </clipPath>
    <clipPath id="clip-5">
      <rect id="Rectangle_367" data-name="Rectangle 367" width="787.201" height="890.531" fill="none"/>
    </clipPath>
  </defs>
  <g id="Group_1051" data-name="Group 1051" transform="translate(-2763.4204,10650.59)">
    <g transform="translate(-48.274582,38.277569)" id="g9317">
      <path id="Path_1296" data-name="Path 1296" d="m 2975.15,-13213.979 h 198.314 c 852.18,-6.458 1560.568,100.957 1543.399,185.058 -24.431,119.674 166.859,247.538 -202.716,191.524 -371.099,-56.245 -900.652,-6.464 -1340.686,-6.464 H 2975.15 c -852.408,0 -1323.824,-230.264 -1013.856,-357.083 141.915,-58.062 783.518,-13.035 1013.856,-13.035 z" fill="#ffffff" transform="rotate(-1.356203,3219.0066,-13024.456)"/>
      <g id="Group_878" data-name="Group 878" transform="matrix(0.824548,0,0,0.848458,1754.8076,-13651.755)">
        <g id="Group_873" data-name="Group 873">
          <g id="Group_872" data-name="Group 872" clip-path="url(#clip-path)"/>
        </g>
      </g>
      <g id="Group_880" data-name="Group 880" transform="matrix(-0.965287,0,0,0.885187,2314.2485,-13575.152)">
        <g id="Group_879" data-name="Group 879" clip-path="url(#clip-path-2)">
          <path id="Path_1297" data-name="Path 1297" d="m 272.962,270.1 c 0,0 -128.255,61.882 -202.2,38.924 0,0 18.2,-22.962 50.053,-40.046 -2.559,-14.841 -4.55,-27.722 -5.689,-38.642 C 112,205.138 112,190.857 112,190.857 l 49.483,-38.92 46.924,-37.244 c -3.7,104.726 64.554,155.41 64.554,155.41" transform="translate(34.461,55.852)" fill="#ffb27d"/>
          <path id="Path_1298" data-name="Path 1298" d="m 0,749.131 c 0.028,-1.511 0.1,-3.008 0.2,-4.52 v -1.4 c 0.294,-20.184 0.782,-40.869 1.442,-61.781 0.684,-21.149 1.539,-42.538 2.546,-63.937 0.8,-18.812 1.735,-37.47 2.827,-55.706 4.326,-72.448 11.057,-138.01 21.052,-177.828 0.223,-0.883 0.448,-1.75 0.685,-2.619 15.411,-57.358 48.975,-95.527 79.516,-123.393 l 25.586,-22.41 c 2.14,0.422 4.3,0.8 6.452,1.12 23.667,3.612 48.414,1.427 73.174,-10.623 29.576,-14.29 61.433,-29.687 66.554,-25.769 0.476,0.352 0.938,0.7 1.413,1.066 h 0.015 c 9.352,7.094 17.931,16.263 25.782,27.265 0.028,0 0.028,0.013 0.028,0.013 v 0.013 a 1.106,1.106 0 0 1 0.1,0.141 c 1.82,2.532 3.6,5.163 5.3,7.893 a 0.889,0.889 0 0 1 0.141,0.211 c 0.04,0.054 0.1,0.14 0.167,0.251 0.067,0.111 0.141,0.225 0.225,0.349 0.448,0.715 1.19,1.875 2.141,3.485 0.323,0.546 0.672,1.12 1.036,1.764 0.419,0.729 0.88,1.512 1.358,2.364 q 1.113,1.974 2.393,4.382 c 0.281,0.532 0.575,1.077 0.883,1.651 0.459,0.9 0.952,1.833 1.441,2.815 0.168,0.32 0.321,0.644 0.491,0.98 0.293,0.575 0.586,1.161 0.88,1.75 0.729,1.5 1.5,3.065 2.268,4.715 0.769,1.624 1.541,3.319 2.352,5.081 1.077,2.451 2.2,5.039 3.331,7.755 0.561,1.344 1.133,2.715 1.694,4.129 0.112,0.266 0.208,0.547 0.323,0.812 a 406.991,406.991 0 0 1 14.724,45.937 c 0.015,0.028 0.015,0.07 0.027,0.1 3.948,15.173 7.363,31.269 10.26,48.12 7.963,46.762 11.939,99.139 11.661,154.02 0,20.156 -0.575,40.883 -1.71,61.318 -2.238,36.434 -3.008,71.3 -2.9,103.674 0,1.063 0,2.128 0.015,3.19 0.013,2.128 0.028,4.227 0.042,6.328 0.015,1.581 0.028,3.161 0.055,4.73 0.03,1.805 0.042,3.612 0.071,5.389 0.028,1.624 0.04,3.233 0.07,4.828 0.013,0.2 0.013,0.393 0.013,0.589 0.013,1.022 0.042,2.043 0.056,3.065 0.07,3.038 0.128,6.061 0.2,9.057 0.055,1.988 0.1,3.975 0.15,5.934 0.073,2.21 0.128,4.407 0.2,6.578 0.04,1.665 0.1,3.316 0.153,4.955 0.028,0.727 0.057,1.456 0.071,2.168 z" fill="#2b478b" transform="translate(0,97.222)"/>
          <path id="Path_1299" data-name="Path 1299" d="m 349.71,470.456 c 0,20.156 -0.575,40.883 -1.709,61.318 -2.238,36.434 -3.01,71.3 -2.9,103.674 0,1.063 0,2.128 0.015,3.19 0.013,2.128 0.03,4.227 0.042,6.328 0.015,1.581 0.028,3.161 0.057,4.73 0.028,1.805 0.042,3.612 0.07,5.389 0.028,1.624 0.042,3.233 0.07,4.828 0.013,0.2 0.013,0.393 0.013,0.589 0.015,1.022 0.042,2.043 0.056,3.065 0.07,3.038 0.128,6.061 0.2,9.057 0.055,1.988 0.1,3.975 0.152,5.934 0.071,2.21 0.126,4.407 0.2,6.578 0.042,1.665 0.1,3.316 0.155,4.955 0.027,0.727 0.055,1.456 0.071,2.168 H 51.581 A 109.18,109.18 0 0 1 43.3,660.181 132.49,132.49 0 0 1 42.622,646 c 0.125,-25.11 7.154,-51.706 18.462,-78.312 12.681,-29.869 30.765,-59.751 50.557,-87.618 25.165,-35.44 53.1,-67.59 76.24,-92.266 v -0.015 c 28.356,-30.233 49.491,-49.224 49.491,-49.224 l 99.194,-21.808 1.484,-0.323 c 7.964,46.762 11.939,99.139 11.661,154.02" transform="translate(20.754,154.094)" fill="#233862"/>
          <path id="Path_1300" data-name="Path 1300" d="m 195.755,142.54 c 0,0 -32.417,59.082 -94.129,75.6 C 98.5,192.941 98.5,178.66 98.5,178.66 l 49.483,-38.92 z" transform="translate(47.965,68.049)" fill="#ed985f"/>
          <path id="Path_1301" data-name="Path 1301" d="m 91.142,230.039 c 0,0 122.351,20.015 133.836,-55.2 C 236.463,99.624 259.992,51.549 182.359,35.589 104.726,19.629 85.13,46.077 75.1,70.266 65.07,94.455 59.611,222.894 91.142,230.039" transform="translate(32.758,14.964)" fill="#ffb27d"/>
          <path id="Path_1302" data-name="Path 1302" d="m 282.4,41.546 c 1.112,-1.274 3.673,-2.3 9.375,-2.613 a 23.133,23.133 0 0 0 -10.653,-3 c -1.191,-7.929 -5.408,-21.96 -19.054,-25.371 0,0 7.334,3.908 8.29,12.337 C 254.552,6.669 220.691,-5.144 126.923,2.259 3.347,12.013 44.073,91.133 60.072,100.565 c 15.999,9.432 56.27,-16.427 86.078,-14.059 29.808,2.368 35.476,45.436 45.589,51.348 10.113,5.912 6.134,-4.541 19.817,-10.725 13.683,-6.184 14.983,16.486 11.03,31.228 -3.953,14.742 14.849,34.182 14.849,34.182 l 19,-20.459 c 19,-20.459 36.9,-107.115 28.263,-125.588 -0.763,-1.633 -1.517,-3.285 -2.3,-4.946" transform="translate(19.808)" fill="#323f51"/>
          <path id="Path_1303" data-name="Path 1303" d="m 309.254,595.03 q -10.16,22.989 -23.388,46.944 -9.76,17.616 -21.316,35.72 c -7.572,11.842 -21.75,25.25 -40.129,39.387 a 0.052,0.052 0 0 1 -0.028,0.015 c -8.455,6.522 -17.8,13.183 -27.8,19.915 H 18.656 c 11.925,-10.635 24.2,-21.5 36.307,-32.078 3.893,-3.4 7.783,-6.788 11.633,-10.12 23.527,-20.379 45.7,-38.994 62.521,-51.983 h 0.015 c 13.563,-10.441 23.641,-17.216 28.132,-18.266 7.029,-1.651 13.957,-27.267 20.939,-63.615 7,-36.432 14.067,-83.658 21.347,-128.391 v -0.013 c 8.956,-55.077 18.236,-106.346 28.147,-129.078 25.949,-59.639 75.889,-78.927 75.889,-78.927 0,0 0.043,0.07 0.141,0.21 0.042,0.055 0.1,0.14 0.168,0.251 0.068,0.111 0.14,0.226 0.223,0.351 0.448,0.714 1.19,1.874 2.141,3.484 0.323,0.547 0.672,1.12 1.036,1.764 0.419,0.729 0.88,1.514 1.358,2.366 0.742,1.316 1.539,2.772 2.393,4.381 0.283,0.534 0.575,1.078 0.883,1.651 0.459,0.9 0.952,1.835 1.441,2.815 0.168,0.321 0.321,0.645 0.491,0.98 0.293,0.575 0.586,1.161 0.88,1.75 0.729,1.5 1.5,3.066 2.268,4.717 0.769,1.624 1.541,3.317 2.352,5.081 1.077,2.449 2.2,5.039 3.331,7.755 0.561,1.343 1.133,2.715 1.694,4.128 0.112,0.268 0.208,0.547 0.323,0.812 a 361.027,361.027 0 0 1 14.724,45.938 c 0.015,0.027 0.015,0.068 0.027,0.1 a 385.388,385.388 0 0 1 8.776,48.442 c 7.222,61.867 1.637,141.758 -38.981,233.521" transform="translate(9.085,109.343)" fill="#2b478b"/>
        </g>
      </g>
      <text style="font-size:132px;font-family:'Roboto Slab';white-space:pre;fill:#333333" id="text9315"><tspan x="2551.8301" y="-12952.9" id="tspan9309">"Jeg hedder </tspan><tspan style="font-weight:700" id="tspan9311">Jonas</tspan><tspan id="tspan9313"> og er 20 år."</tspan></text>
    </g>
  </g>
</svg>
