<svg width="321" height="87.609" xmlns="http://www.w3.org/2000/svg"><g data-name="Group 761" transform="translate(-368 -3050.469)"><rect width="321" height="70" fill="#fff" data-name="Rectangle 325" rx="35" transform="translate(368 3063)"/><g fill="#e79e17" data-name="Group 687" transform="translate(585.154 3050.469)"><path d="M50.544 24.485c10.371 6.232 14.108 19.06 8.345 28.651S47.12 65.493 27.25 57.76c-10.374-6.232-.307-28.052-.307-28.052s13.23-11.456 23.602-5.223Z" data-name="Path 442"/><rect width="23.826" height="3.665" data-name="Rectangle 157" rx="1.833" transform="rotate(37 -12.913 14.147)"/><rect width="26.88" height="4.887" data-name="Rectangle 160" rx="2.444" transform="rotate(37 -54.177 118.277)"/><rect width="21.382" height="3.665" data-name="Rectangle 161" rx="1.833" transform="rotate(74.99 -18.558 64.885)"/><rect width="21.382" height="3.665" data-name="Rectangle 162" rx="1.833" transform="scale(-1) rotate(-77 -29.114 35.541)"/><rect width="26.88" height="3.665" data-name="Rectangle 158" rx="1.833" transform="rotate(-35.02 116.438 36.716)"/><rect width="26.269" height="3.665" data-name="Rectangle 159" rx="1.833" transform="rotate(-35.02 78.371 -79.669)"/></g><text fill="#e79e17" data-name="Hver dag" font-family="FiraSans-MediumItalic, Fira Sans" font-size="40" font-style="italic" font-weight="500" transform="translate(401.065 3070.243)"><tspan x="0" y="43">Hver dag</tspan></text></g></svg>