<svg xmlns="http://www.w3.org/2000/svg" width="70.565" height="64.241" viewBox="0 0 70.565 64.241">
  <path id="Path_1860" data-name="Path 1860" d="M35.035.069c-5.324-.222-10.5-.031-15.71,2.464C14.073,5.046,9.026,9.2,4.3,14.453A15.072,15.072,0,0,0,.01,24.279,23.4,23.4,0,0,0,1.387,32.2c1.1,3.483,2.379,6.867,4.106,9.073,3.062,3.912,6.956,3.484,10.564,2.9,9.068-1.47,18.149-3.087,27.081-6.576A29.162,29.162,0,0,0,52.6,32.093a10.961,10.961,0,0,0,3.694-7.286A16.545,16.545,0,0,0,52.5,12.955c-3.913-4.6-4.793-6.395-9.145-8.462C41.5,3.614,38.122.884,33.332,0" transform="matrix(-0.921, -0.391, 0.391, -0.921, 52.544, 63.595)" fill="#d9d9d9" stroke="#d8d9d9" stroke-width="1" stroke-dasharray="5"/>
</svg>
