<svg width="859.873" height="1164.449" xmlns="http://www.w3.org/2000/svg"><g data-name="Group 1388"><path fill="none" stroke="#323f51" stroke-linecap="round" stroke-linejoin="round" stroke-width="10" d="M554.94 904.706c1.169 93.671 2.331 156.731 3.5 250.409a493.833 493.833 0 0 0 96.189 1.8" data-name="Path 1759"/><path fill="none" stroke="#323f51" stroke-linecap="round" stroke-linejoin="round" stroke-width="10" d="M354.211 917.022c4.374 89.852 4.5 150.2.38 240.059a229.483 229.483 0 0 0-96.7 1.37" data-name="Path 1752"/><path fill="#7ec8d6" stroke="#323f51" stroke-miterlimit="10" stroke-width="10" d="M553.511 26.408c75.421 41.309 121.141 120.489 153.541 199.449a1079.031 1079.031 0 0 1 78.564 473.284c-1.888 30.991-5.365 62.765-19.79 90.35-18.309 35.016-52.385 59.495-88.1 77.053-67.79 33.323-144.22 45.932-219.828 49.948-64.277 3.414-130.3.638-190.274-22.442S154.11 824.865 135.387 764.017c-11.085-36.012-9.54-74.471-7.891-112.076q2.429-55.525 4.864-111.05c4.341-99.115 9.009-199.98 42.715-293.436s101.468-180.1 196.423-212.369c30.23-10.278 67.072-34.535 98.615-29.4 68.509 11.146 35.978 4.024 83.4 20.721" data-name="Path 1750"/><path fill="none" stroke="#353f4f" stroke-linecap="round" stroke-miterlimit="10" stroke-width="5" d="M383.295 154.394c-16.711 3.5-29.235 12.385-41.669 23.79" data-name="Path 1760"/><path fill="none" stroke="#353f4f" stroke-linecap="round" stroke-miterlimit="10" stroke-width="5" d="M507.46 196.394c16.711 3.5 29.221 12.385 41.67 23.79" data-name="Path 1761"/><path fill="none" stroke="#323f51" stroke-linecap="round" stroke-linejoin="round" stroke-width="10" d="M137.439 398.732c-52.681 32.986-87.28 71.967-115.059 127.575-14.223 28.467-24.343 62.543-11.354 91.591 9.023 20.176 27.844 34.37 47.661 44.146 73.359 36.213 162.311 21.84 239.241 49.669" data-name="Path 1751"/><path fill="none" stroke="#323f51" stroke-linecap="round" stroke-linejoin="round" stroke-width="10" d="M760.281 385.126c53.3 15.349 94.54 79 94.593 146 .012 15.866-2.123 31.989-8 46.14-10.908 26.272-32.949 42.346-54.029 56.612-75.064 50.773-203.603-262.788-282.754-222.347" data-name="Path 1754"/><path fill="#323f51" d="M389.237 372.99a67.359 67.359 0 0 1-12.963-19.497c-1.618-3.576-1.648-6.831 2.248-8.663 3.733-1.754 5.758.673 7.228 3.83 11.492 24.664 31.626 34.243 57.89 33.084 1.307-.058 2.619-.05 3.921-.143 3.279-.232 5.902.775 6.243 4.36.351 3.723-1.728 5.916-5.461 6.204-22.327 1.7-42.697-2.658-59.106-19.174Z" data-name="Path 1753"/><path fill="#323f51" d="M493.829 242.538c-13.752-.157-22.828 8.617-22.583 21.834.246 13.317 8.378 22.067 20.927 22.533 13.493.5 24.837-9.8 24.7-22.439-.134-13.095-9.249-21.764-23.044-21.928Z" data-name="Path 1755"/><path fill="#fff" d="M484.077 264.733c-5.884-.069-9.77 3.692-9.67 9.349.107 5.7 3.59 9.449 8.957 9.644 5.784.221 10.64-4.2 10.577-9.606-.057-5.61-3.956-9.318-9.864-9.387Z" data-name="Path 1756" opacity=".9"/><path fill="#323f51" d="M386.787 241.816c-12.51-.032-22.365 10.394-22.258 23.532.107 13.657 9.065 22.538 22.639 22.455 14.037-.082 21.91-8.311 21.816-22.791-.095-13.496-9.344-23.167-22.197-23.196Z" data-name="Path 1757"/><path fill="#fff" d="M379.213 265.407c-5.922-.07-9.831 3.712-9.725 9.4.109 5.732 3.606 9.5 9.009 9.7 5.809.222 10.691-4.219 10.635-9.66-.058-5.64-3.974-9.371-9.919-9.44Z" data-name="Path 1758"/></g></svg>