<svg width="113.88" height="237.336" xmlns="http://www.w3.org/2000/svg"><g fill="#7ec8d6" data-name="Group 1390"><path d="M83.013 112.813v-10.646a4.258 4.258 0 0 1 8.515 0v10.646a4.258 4.258 0 1 1-8.515 0Z" data-name="Path 990"/><path d="M83.013 82.261v-16.59a4.258 4.258 0 1 1 8.515 0v16.59a4.258 4.258 0 0 1-8.515 0Z" data-name="Path 991"/><path d="M83.013 45.757v-10.64a4.258 4.258 0 1 1 8.515 0v10.64a4.258 4.258 0 1 1-8.515 0Z" data-name="Path 992"/><path d="M0 167.091a4.318 4.318 0 0 1 .416-1.848 4.261 4.261 0 0 1 3.839-2.412h18.089v-50.022a4.258 4.258 0 0 1 8.515 0v54.282a4.253 4.253 0 0 1-4.254 4.254h-13.5l43.831 54.91 43.838-54.91H87.267a4.253 4.253 0 0 1-4.254-4.254v-54.282a4.258 4.258 0 0 1 8.515 0v50.021h18.089a4.259 4.259 0 0 1 3.331 6.915l-52.688 65.99a4.253 4.253 0 0 1-6.648 0L.93 169.745a4.21 4.21 0 0 1-.93-2.654Z" data-name="Path 993"/><path d="M22.343 45.757v-10.64a4.258 4.258 0 1 1 8.515 0v10.64a4.258 4.258 0 1 1-8.515 0Z" data-name="Path 994"/><path d="M22.343 82.261v-16.59a4.258 4.258 0 1 1 8.515 0v16.59a4.258 4.258 0 0 1-8.515 0Z" data-name="Path 995"/><path d="M22.343 112.813v-10.646a4.258 4.258 0 0 1 8.515 0v10.646a4.258 4.258 0 1 1-8.515 0Z" data-name="Path 996"/><path d="M52.681 97.913V87.267a4.258 4.258 0 0 1 8.515 0v10.646a4.258 4.258 0 0 1-8.515 0Z" data-name="Path 997"/><path d="M52.681 61.722V40.438a4.258 4.258 0 0 1 8.515 0v21.284a4.258 4.258 0 1 1-8.515 0Z" data-name="Path 998"/><path d="M52.681 14.9V4.254a4.258 4.258 0 0 1 8.515 0V14.9a4.258 4.258 0 1 1-8.515 0Z" data-name="Path 999"/></g></svg>