<svg xmlns="http://www.w3.org/2000/svg" width="113.88" height="237.336" viewBox="0 0 113.88 237.336">
  <g id="Group_1391" data-name="Group 1391" transform="translate(0 237.335) rotate(-90)">
    <path id="Path_990" data-name="Path 990" d="M14.9,8.515H4.254A4.257,4.257,0,0,1,4.254,0H14.9a4.257,4.257,0,1,1,0,8.515Z" transform="translate(97.913 22.352)" fill="#029cb2"/>
    <path id="Path_991" data-name="Path 991" d="M20.85,8.515H4.26A4.257,4.257,0,1,1,4.26,0H20.85a4.257,4.257,0,0,1,0,8.515Z" transform="translate(61.411 22.352)" fill="#029cb2"/>
    <path id="Path_992" data-name="Path 992" d="M14.9,8.515H4.26A4.257,4.257,0,1,1,4.26,0H14.9a4.257,4.257,0,1,1,0,8.515Z" transform="translate(30.857 22.352)" fill="#029cb2"/>
    <path id="Path_993" data-name="Path 993" d="M58.536,113.88a4.318,4.318,0,0,1-1.848-.416,4.261,4.261,0,0,1-2.412-3.839V91.536H4.254a4.257,4.257,0,0,1,0-8.515H58.536a4.253,4.253,0,0,1,4.254,4.254v13.5L117.7,56.944,62.79,13.106V26.613a4.253,4.253,0,0,1-4.254,4.254H4.254a4.257,4.257,0,0,1,0-8.515H54.275V4.263A4.259,4.259,0,0,1,61.19.932L127.18,53.62a4.253,4.253,0,0,1,0,6.648L61.19,112.95A4.21,4.21,0,0,1,58.536,113.88Z" transform="translate(108.555 0)" fill="#029cb2"/>
    <path id="Path_994" data-name="Path 994" d="M14.9,8.515H4.26A4.257,4.257,0,1,1,4.26,0H14.9a4.257,4.257,0,1,1,0,8.515Z" transform="translate(30.857 83.022)" fill="#029cb2"/>
    <path id="Path_995" data-name="Path 995" d="M20.85,8.515H4.26A4.257,4.257,0,1,1,4.26,0H20.85a4.257,4.257,0,0,1,0,8.515Z" transform="translate(61.411 83.022)" fill="#029cb2"/>
    <path id="Path_996" data-name="Path 996" d="M14.9,8.515H4.254A4.257,4.257,0,0,1,4.254,0H14.9a4.257,4.257,0,1,1,0,8.515Z" transform="translate(97.913 83.022)" fill="#029cb2"/>
    <path id="Path_997" data-name="Path 997" d="M14.9,8.515H4.254A4.257,4.257,0,0,1,4.254,0H14.9a4.257,4.257,0,0,1,0,8.515Z" transform="translate(83.013 52.684)" fill="#029cb2"/>
    <path id="Path_998" data-name="Path 998" d="M25.538,8.515H4.254A4.257,4.257,0,0,1,4.254,0H25.538a4.257,4.257,0,1,1,0,8.515Z" transform="translate(36.184 52.684)" fill="#029cb2"/>
    <path id="Path_999" data-name="Path 999" d="M14.9,8.515H4.254A4.257,4.257,0,0,1,4.254,0H14.9a4.257,4.257,0,1,1,0,8.515Z" transform="translate(0 52.684)" fill="#029cb2"/>
  </g>
</svg>
