<svg width="113.88" height="237.336" xmlns="http://www.w3.org/2000/svg"><g fill="#029cb2" data-name="Group 1391"><path d="M30.867 124.522v10.646a4.258 4.258 0 0 1-8.515 0v-10.646a4.258 4.258 0 1 1 8.515 0Z" data-name="Path 990"/><path d="M30.867 155.074v16.59a4.258 4.258 0 1 1-8.515 0v-16.59a4.258 4.258 0 0 1 8.515 0Z" data-name="Path 991"/><path d="M30.867 191.578v10.64a4.258 4.258 0 1 1-8.515 0v-10.64a4.258 4.258 0 1 1 8.515 0Z" data-name="Path 992"/><path d="M113.88 70.244a4.318 4.318 0 0 1-.416 1.848 4.261 4.261 0 0 1-3.839 2.412H91.536v50.022a4.258 4.258 0 0 1-8.515 0V70.244a4.253 4.253 0 0 1 4.254-4.254h13.5L56.944 11.08 13.106 65.99h13.507a4.253 4.253 0 0 1 4.254 4.254v54.282a4.258 4.258 0 0 1-8.515 0V74.505H4.263A4.259 4.259 0 0 1 .932 67.59L53.62 1.6a4.253 4.253 0 0 1 6.648 0l52.682 65.99a4.21 4.21 0 0 1 .93 2.654Z" data-name="Path 993"/><path d="M91.537 191.578v10.64a4.258 4.258 0 1 1-8.515 0v-10.64a4.258 4.258 0 1 1 8.515 0Z" data-name="Path 994"/><path d="M91.537 155.074v16.59a4.258 4.258 0 1 1-8.515 0v-16.59a4.258 4.258 0 0 1 8.515 0Z" data-name="Path 995"/><path d="M91.537 124.522v10.646a4.258 4.258 0 0 1-8.515 0v-10.646a4.258 4.258 0 1 1 8.515 0Z" data-name="Path 996"/><path d="M61.199 139.422v10.646a4.258 4.258 0 0 1-8.515 0v-10.646a4.258 4.258 0 0 1 8.515 0Z" data-name="Path 997"/><path d="M61.199 175.613v21.284a4.258 4.258 0 0 1-8.515 0v-21.284a4.258 4.258 0 1 1 8.515 0Z" data-name="Path 998"/><path d="M61.199 222.435v10.646a4.258 4.258 0 0 1-8.515 0v-10.646a4.258 4.258 0 1 1 8.515 0Z" data-name="Path 999"/></g></svg>