<svg width="3772" height="2389" xmlns="http://www.w3.org/2000/svg"><defs><clipPath id="Vigtig_-_Indflydelse_svg__a"><path d="M0 0h3772v2389H0z"/></clipPath></defs><g clip-path="url(#Vigtig_-_Indflydelse_svg__a)" data-name="Vigtig / Indflydelse"><rect width="3105.943" height="2131.024" fill="#fff" data-name="Rectangle 501" rx="41" transform="translate(70.352 62.718)"/><text fill="#323f51" font-family="FiraSans-Bold, Fira Sans" font-size="85" font-weight="700" transform="translate(329 1075)"><tspan x="0" y="90">Vigtigt</tspan></text><text fill="#323f51" data-name="Mindre vigtigt" font-family="FiraSans-Bold, Fira Sans" font-size="85" font-weight="700" transform="translate(189 1660)"><tspan x="0" y="90">Mindre vigtigt</tspan></text><text fill="#323f51" font-family="FiraSans-Bold, Fira Sans" font-size="85" font-weight="700" transform="translate(1156.397 439)"><tspan x="0" y="90">Indflydelse</tspan></text><text fill="#323f51" data-name="Mindre indflydelse" font-family="FiraSans-Bold, Fira Sans" font-size="85" font-weight="700" transform="translate(2153.168 439)"><tspan x="0" y="90">Mindre indflydelse</tspan></text><path fill="none" stroke="#707070" stroke-width="3" d="M171.5 624.5h2806.453" data-name="Line 71" opacity=".478"/><path fill="none" stroke="rgba(112,112,112,0.67)" stroke-width="3" d="M841 269.5v1872" data-name="Line 77" opacity=".478"/><path fill="none" stroke="rgba(112,112,112,0.67)" stroke-width="3" d="M1915 269.5v1872" data-name="Line 113" opacity=".478"/><path fill="none" stroke="rgba(112,112,112,0.67)" stroke-width="3" d="M171.5 1358.5h2806.453" data-name="Line 74" opacity=".478"/><g data-name="Group 1388"><path fill="none" stroke="#323f51" stroke-linecap="round" stroke-linejoin="round" stroke-width="10" d="M3301.282 2014.171c1.169 93.671 2.331 156.731 3.5 250.409a493.833 493.833 0 0 0 96.189 1.8" data-name="Path 1759"/><path fill="none" stroke="#323f51" stroke-linecap="round" stroke-linejoin="round" stroke-width="10" d="M3100.553 2026.487c4.374 89.852 4.5 150.2.38 240.059a229.483 229.483 0 0 0-96.7 1.37" data-name="Path 1752"/><path fill="#7ec8d6" stroke="#323f51" stroke-miterlimit="10" stroke-width="10" d="M3299.853 1135.873c75.421 41.309 121.141 120.489 153.541 199.449a1079.031 1079.031 0 0 1 78.564 473.284c-1.888 30.991-5.365 62.765-19.79 90.35-18.309 35.016-52.385 59.495-88.1 77.053-67.79 33.323-144.22 45.932-219.828 49.948-64.277 3.414-130.3.638-190.274-22.442s-113.514-69.185-132.237-130.033c-11.085-36.012-9.54-74.471-7.891-112.076q2.429-55.525 4.864-111.05c4.341-99.115 9.009-199.98 42.715-293.436s101.468-180.1 196.423-212.369c30.23-10.278 67.072-34.535 98.615-29.4 68.509 11.146 35.978 4.024 83.4 20.721" data-name="Path 1750"/><path fill="none" stroke="#353f4f" stroke-linecap="round" stroke-miterlimit="10" stroke-width="5" d="M3129.637 1263.859c-16.711 3.5-29.235 12.385-41.669 23.79" data-name="Path 1760"/><path fill="none" stroke="#353f4f" stroke-linecap="round" stroke-miterlimit="10" stroke-width="5" d="M3253.802 1305.859c16.711 3.5 29.221 12.385 41.67 23.79" data-name="Path 1761"/><path fill="none" stroke="#323f51" stroke-linecap="round" stroke-linejoin="round" stroke-width="10" d="M2883.781 1508.197c-52.681 32.986-87.28 71.967-115.059 127.575-14.223 28.467-24.343 62.543-11.354 91.591 9.023 20.176 27.844 34.37 47.661 44.146 73.359 36.213 162.311 21.84 239.241 49.669" data-name="Path 1751"/><path fill="none" stroke="#323f51" stroke-linecap="round" stroke-linejoin="round" stroke-width="10" d="M3506.623 1494.591c53.3 15.349 94.54 79 94.593 146 .012 15.866-2.123 31.989-8 46.14-10.908 26.272-32.949 42.346-54.029 56.612-75.064 50.773-203.603-262.788-282.754-222.347" data-name="Path 1754"/><path fill="#323f51" d="M3135.579 1482.456a67.359 67.359 0 0 1-12.963-19.498c-1.618-3.576-1.648-6.831 2.248-8.663 3.733-1.754 5.758.673 7.228 3.83 11.492 24.664 31.626 34.243 57.89 33.084 1.307-.058 2.619-.05 3.921-.143 3.279-.232 5.902.775 6.243 4.36.351 3.723-1.728 5.916-5.461 6.204-22.327 1.7-42.697-2.658-59.106-19.174Z" data-name="Path 1753"/><path fill="#323f51" d="M3240.171 1352.003c-13.752-.157-22.828 8.617-22.583 21.834.246 13.317 8.378 22.067 20.927 22.533 13.493.5 24.837-9.8 24.7-22.439-.134-13.095-9.249-21.764-23.044-21.928Z" data-name="Path 1755"/><path fill="#fff" d="M3230.419 1374.198c-5.884-.069-9.77 3.692-9.67 9.349.107 5.7 3.59 9.449 8.957 9.644 5.784.221 10.64-4.2 10.577-9.606-.057-5.61-3.956-9.318-9.864-9.387Z" data-name="Path 1756" opacity=".9"/><path fill="#323f51" d="M3133.129 1351.281c-12.51-.032-22.365 10.394-22.258 23.532.107 13.657 9.065 22.538 22.639 22.455 14.037-.082 21.91-8.311 21.816-22.791-.095-13.496-9.344-23.167-22.197-23.196Z" data-name="Path 1757"/><path fill="#fff" d="M3125.555 1374.872c-5.922-.07-9.831 3.712-9.725 9.4.109 5.732 3.606 9.5 9.009 9.7 5.809.222 10.691-4.219 10.635-9.66-.058-5.64-3.974-9.371-9.919-9.44Z" data-name="Path 1758"/></g><text fill="#323f51" stroke="#b7b7b7" stroke-miterlimit="10" data-name="Svært ved at bevare overblikket over mine arbejdsopgaver" font-family="FiraSans-MediumItalic, Fira Sans" font-size="50" font-style="italic" font-weight="500" transform="translate(1019.397 741.81)"><tspan x="0" y="53">Svært ved at bevare overblikket </tspan><tspan x="0" y="132">over mine arbejdsopgaver</tspan></text><text fill="#d9d9d9" stroke="#d9d9d9" stroke-miterlimit="10" data-name="Skriv her..." font-family="FiraSans-MediumItalic, Fira Sans" font-size="50" font-style="italic" font-weight="500" transform="translate(1019.397 1522.001)"><tspan x="0" y="53">Skriv her...</tspan></text><text fill="#323f51" stroke="#b7b7b7" stroke-miterlimit="10" data-name="Skriv her..." font-family="FiraSans-MediumItalic, Fira Sans" font-size="50" font-style="italic" font-weight="500" transform="translate(2153.167 1522.001)"><tspan x="0" y="53">Skriv her...</tspan></text><text fill="#323f51" stroke="#b7b7b7" stroke-miterlimit="10" data-name="Uro omkring mig" font-family="FiraSans-MediumItalic, Fira Sans" font-size="50" font-style="italic" font-weight="500" transform="translate(2153.167 741.81)"><tspan x="0" y="53">Uro omkring mig</tspan></text><text fill="#323f51" stroke="#b7b7b7" stroke-miterlimit="10" data-name="Står meget op på arbejdet" font-family="FiraSans-MediumItalic, Fira Sans" font-size="50" font-style="italic" font-weight="500" transform="translate(1019.397 957.651)"><tspan x="0" y="53">Står meget op på arbejdet</tspan></text><text fill="#d9d9d9" stroke="#d8d9d9" stroke-miterlimit="10" data-name="..." font-family="FiraSans-MediumItalic, Fira Sans" font-size="50" font-style="italic" font-weight="500" transform="translate(1019.397 1170.188)"><tspan x="0" y="53">...</tspan></text><text fill="#d9d9d9" stroke="#d8d9d9" stroke-miterlimit="10" data-name="..." font-family="FiraSans-MediumItalic, Fira Sans" font-size="50" font-style="italic" font-weight="500" transform="translate(2156.168 957.653)"><tspan x="0" y="53">...</tspan></text><text fill="#d9d9d9" stroke="#d8d9d9" stroke-miterlimit="10" data-name="…" font-family="FiraSans-MediumItalic, Fira Sans" font-size="50" font-style="italic" font-weight="500" transform="translate(2156.168 1706.327)"><tspan x="0" y="53">…</tspan></text><path fill="#029cb2" d="M921.193 795.064c4.816 2.286 9.658 4.134 15.432 3.873 5.82-.26 12.092-2.113 18.499-5.104a15.08 15.08 0 0 0 7.793-7.372 23.413 23.413 0 0 0 1.829-7.834c.349-3.637.494-7.254-.234-9.961-1.29-4.8-5.045-5.929-8.596-6.802-8.926-2.191-17.922-4.253-27.513-4.532a29.178 29.178 0 0 0-10.866 1.37 10.967 10.967 0 0 0-6.251 5.266 16.554 16.554 0 0 0-1.14 12.399c1.805 5.767 1.914 7.764 5.114 11.37 1.365 1.534 3.408 5.37 7.474 8.056" data-name="Path 1847"/><path fill="#d9d9d9" stroke="#d9d9d9" stroke-dasharray="5.0028" stroke-width="1.00056" d="M921.193 1575.255c4.816 2.286 9.658 4.134 15.432 3.873 5.82-.26 12.092-2.113 18.499-5.104a15.08 15.08 0 0 0 7.793-7.372 23.413 23.413 0 0 0 1.829-7.834c.349-3.637.494-7.254-.234-9.961-1.29-4.8-5.045-5.929-8.596-6.802-8.926-2.191-17.922-4.253-27.513-4.532a29.178 29.178 0 0 0-10.866 1.37 10.967 10.967 0 0 0-6.251 5.266 16.554 16.554 0 0 0-1.14 12.399c1.805 5.767 1.914 7.764 5.114 11.37 1.365 1.534 3.408 5.37 7.474 8.056" data-name="Path 1856"/><path fill="#029cb2" d="M2054.963 1575.255c4.816 2.286 9.658 4.134 15.432 3.873 5.82-.26 12.092-2.113 18.499-5.104a15.08 15.08 0 0 0 7.793-7.372 23.413 23.413 0 0 0 1.829-7.834c.349-3.637.494-7.254-.234-9.961-1.29-4.8-5.045-5.929-8.596-6.802-8.926-2.191-17.922-4.253-27.513-4.532a29.178 29.178 0 0 0-10.866 1.37 10.967 10.967 0 0 0-6.251 5.266 16.554 16.554 0 0 0-1.14 12.399c1.805 5.767 1.914 7.764 5.114 11.37 1.365 1.534 3.408 5.37 7.474 8.056" data-name="Path 1859"/><path fill="#029cb2" d="M2054.964 795.064c4.816 2.286 9.658 4.134 15.432 3.873 5.82-.26 12.092-2.113 18.499-5.104a15.08 15.08 0 0 0 7.793-7.372 23.413 23.413 0 0 0 1.829-7.834c.349-3.637.494-7.254-.234-9.961-1.29-4.8-5.045-5.929-8.596-6.802-8.926-2.191-17.922-4.253-27.513-4.532a29.178 29.178 0 0 0-10.866 1.37 10.967 10.967 0 0 0-6.251 5.266 16.554 16.554 0 0 0-1.14 12.399c1.805 5.767 1.914 7.764 5.114 11.37 1.365 1.534 3.408 5.37 7.474 8.056" data-name="Path 1853"/><path fill="#029cb2" d="M921.193 1010.905c4.816 2.286 9.658 4.134 15.432 3.873 5.82-.26 12.092-2.113 18.499-5.104a15.08 15.08 0 0 0 7.793-7.372 23.413 23.413 0 0 0 1.829-7.834c.349-3.637.494-7.254-.234-9.961-1.29-4.8-5.045-5.929-8.596-6.802-8.926-2.191-17.922-4.253-27.513-4.532a29.178 29.178 0 0 0-10.866 1.37 10.967 10.967 0 0 0-6.251 5.266 16.554 16.554 0 0 0-1.14 12.399c1.805 5.767 1.914 7.764 5.114 11.37 1.365 1.534 3.408 5.37 7.474 8.056" data-name="Path 1849"/><path fill="#d9d9d9" stroke="#d8d9d9" stroke-dasharray="5.0028" stroke-width="1.00056" d="M921.193 1223.443c4.816 2.286 9.658 4.134 15.432 3.873 5.82-.26 12.092-2.113 18.499-5.104a15.08 15.08 0 0 0 7.793-7.372 23.413 23.413 0 0 0 1.829-7.834c.349-3.637.494-7.254-.234-9.961-1.29-4.8-5.045-5.929-8.596-6.802-8.926-2.191-17.922-4.253-27.513-4.532a29.178 29.178 0 0 0-10.866 1.37 10.967 10.967 0 0 0-6.251 5.266 16.554 16.554 0 0 0-1.14 12.399c1.805 5.767 1.914 7.764 5.114 11.37 1.365 1.534 3.408 5.37 7.474 8.056" data-name="Path 1860"/><path fill="#d9d9d9" stroke="#d8d9d9" stroke-dasharray="5.0028" stroke-width="1.00056" d="M2057.965 1010.907c4.816 2.286 9.658 4.134 15.432 3.873 5.82-.26 12.092-2.113 18.499-5.104a15.08 15.08 0 0 0 7.793-7.372 23.413 23.413 0 0 0 1.829-7.834c.349-3.637.494-7.254-.234-9.961-1.29-4.8-5.045-5.929-8.596-6.802-8.926-2.191-17.922-4.253-27.513-4.532a29.178 29.178 0 0 0-10.866 1.37 10.967 10.967 0 0 0-6.251 5.266 16.554 16.554 0 0 0-1.14 12.399c1.805 5.767 1.914 7.764 5.114 11.37 1.365 1.534 3.408 5.37 7.474 8.056" data-name="Path 1862"/><path fill="#d9d9d9" stroke="#d8d9d9" stroke-dasharray="5.0028" stroke-width="1.00056" d="M2057.965 1759.58c4.816 2.287 9.658 4.135 15.432 3.874 5.82-.26 12.092-2.113 18.499-5.104a15.08 15.08 0 0 0 7.793-7.372 23.413 23.413 0 0 0 1.829-7.834c.349-3.637.494-7.254-.234-9.961-1.29-4.8-5.045-5.929-8.596-6.802-8.926-2.191-17.922-4.253-27.513-4.532a29.178 29.178 0 0 0-10.866 1.37 10.967 10.967 0 0 0-6.251 5.266 16.554 16.554 0 0 0-1.14 12.399c1.805 5.767 1.914 7.764 5.114 11.37 1.365 1.534 3.408 5.37 7.474 8.056" data-name="Path 1863"/><g fill="#7ec8d6" data-name="Group 1389"><path d="M493.805 1920.731v-10.646a4.258 4.258 0 0 1 8.515 0v10.646a4.258 4.258 0 1 1-8.515 0Z" data-name="Path 990"/><path d="M493.805 1890.179v-16.59a4.258 4.258 0 1 1 8.515 0v16.59a4.258 4.258 0 0 1-8.515 0Z" data-name="Path 991"/><path d="M493.805 1853.675v-10.64a4.258 4.258 0 1 1 8.515 0v10.64a4.258 4.258 0 1 1-8.515 0Z" data-name="Path 992"/><path d="M410.792 1975.009a4.318 4.318 0 0 1 .416-1.848 4.261 4.261 0 0 1 3.839-2.412h18.089v-50.022a4.258 4.258 0 0 1 8.515 0v54.282a4.253 4.253 0 0 1-4.254 4.254h-13.5l43.831 54.91 43.838-54.91h-13.507a4.253 4.253 0 0 1-4.254-4.254v-54.282a4.258 4.258 0 0 1 8.515 0v50.021h18.089a4.259 4.259 0 0 1 3.331 6.915l-52.688 65.99a4.253 4.253 0 0 1-6.648 0l-52.682-65.99a4.21 4.21 0 0 1-.93-2.654Z" data-name="Path 993"/><path d="M433.135 1853.675v-10.64a4.258 4.258 0 1 1 8.515 0v10.64a4.258 4.258 0 1 1-8.515 0Z" data-name="Path 994"/><path d="M433.135 1890.179v-16.59a4.258 4.258 0 1 1 8.515 0v16.59a4.258 4.258 0 0 1-8.515 0Z" data-name="Path 995"/><path d="M433.135 1920.731v-10.646a4.258 4.258 0 0 1 8.515 0v10.646a4.258 4.258 0 1 1-8.515 0Z" data-name="Path 996"/><path d="M463.473 1905.831v-10.646a4.258 4.258 0 0 1 8.515 0v10.646a4.258 4.258 0 0 1-8.515 0Z" data-name="Path 997"/><path d="M463.473 1869.64v-21.284a4.258 4.258 0 0 1 8.515 0v21.284a4.258 4.258 0 1 1-8.515 0Z" data-name="Path 998"/><path d="M463.473 1822.818v-10.646a4.258 4.258 0 0 1 8.515 0v10.646a4.258 4.258 0 1 1-8.515 0Z" data-name="Path 999"/></g><g fill="#7ec8d6" data-name="Group 1390"><path d="M2528.805 290.477v-10.646a4.258 4.258 0 0 1 8.515 0v10.646a4.258 4.258 0 1 1-8.515 0Z" data-name="Path 990"/><path d="M2528.805 259.925v-16.59a4.258 4.258 0 1 1 8.515 0v16.59a4.258 4.258 0 0 1-8.515 0Z" data-name="Path 991"/><path d="M2528.805 223.421v-10.64a4.258 4.258 0 1 1 8.515 0v10.64a4.258 4.258 0 1 1-8.515 0Z" data-name="Path 992"/><path d="M2445.792 344.755a4.318 4.318 0 0 1 .416-1.848 4.261 4.261 0 0 1 3.839-2.412h18.089v-50.022a4.258 4.258 0 0 1 8.515 0v54.282a4.253 4.253 0 0 1-4.254 4.254h-13.5l43.831 54.91 43.838-54.91h-13.507a4.253 4.253 0 0 1-4.254-4.254v-54.282a4.258 4.258 0 0 1 8.515 0v50.021h18.089a4.259 4.259 0 0 1 3.331 6.915l-52.688 65.99a4.253 4.253 0 0 1-6.648 0l-52.682-65.99a4.21 4.21 0 0 1-.93-2.654Z" data-name="Path 993"/><path d="M2468.135 223.421v-10.64a4.258 4.258 0 1 1 8.515 0v10.64a4.258 4.258 0 1 1-8.515 0Z" data-name="Path 994"/><path d="M2468.135 259.925v-16.59a4.258 4.258 0 1 1 8.515 0v16.59a4.258 4.258 0 0 1-8.515 0Z" data-name="Path 995"/><path d="M2468.135 290.477v-10.646a4.258 4.258 0 0 1 8.515 0v10.646a4.258 4.258 0 1 1-8.515 0Z" data-name="Path 996"/><path d="M2498.473 275.577v-10.646a4.258 4.258 0 0 1 8.515 0v10.646a4.258 4.258 0 0 1-8.515 0Z" data-name="Path 997"/><path d="M2498.473 239.386v-21.284a4.258 4.258 0 0 1 8.515 0v21.284a4.258 4.258 0 1 1-8.515 0Z" data-name="Path 998"/><path d="M2498.473 192.564v-10.646a4.258 4.258 0 0 1 8.515 0v10.646a4.258 4.258 0 1 1-8.515 0Z" data-name="Path 999"/></g><g fill="#029cb2" data-name="Group 1391"><path d="M1342.659 302.187v10.646a4.258 4.258 0 0 1-8.515 0v-10.646a4.258 4.258 0 1 1 8.515 0Z" data-name="Path 990"/><path d="M1342.659 332.739v16.59a4.258 4.258 0 1 1-8.515 0v-16.59a4.258 4.258 0 0 1 8.515 0Z" data-name="Path 991"/><path d="M1342.659 369.243v10.64a4.258 4.258 0 1 1-8.515 0v-10.64a4.258 4.258 0 1 1 8.515 0Z" data-name="Path 992"/><path d="M1425.672 247.909a4.318 4.318 0 0 1-.416 1.848 4.261 4.261 0 0 1-3.839 2.412h-18.089v50.022a4.258 4.258 0 0 1-8.515 0v-54.282a4.253 4.253 0 0 1 4.254-4.254h13.5l-43.831-54.91-43.838 54.91h13.507a4.253 4.253 0 0 1 4.254 4.254v54.282a4.258 4.258 0 0 1-8.515 0V252.17h-18.089a4.259 4.259 0 0 1-3.331-6.915l52.688-65.99a4.253 4.253 0 0 1 6.648 0l52.682 65.99a4.21 4.21 0 0 1 .93 2.654Z" data-name="Path 993"/><path d="M1403.329 369.243v10.64a4.258 4.258 0 1 1-8.515 0v-10.64a4.258 4.258 0 1 1 8.515 0Z" data-name="Path 994"/><path d="M1403.329 332.739v16.59a4.258 4.258 0 1 1-8.515 0v-16.59a4.258 4.258 0 0 1 8.515 0Z" data-name="Path 995"/><path d="M1403.329 302.187v10.646a4.258 4.258 0 0 1-8.515 0v-10.646a4.258 4.258 0 1 1 8.515 0Z" data-name="Path 996"/><path d="M1372.991 317.087v10.646a4.258 4.258 0 0 1-8.515 0v-10.646a4.258 4.258 0 0 1 8.515 0Z" data-name="Path 997"/><path d="M1372.991 353.278v21.284a4.258 4.258 0 0 1-8.515 0v-21.284a4.258 4.258 0 1 1 8.515 0Z" data-name="Path 998"/><path d="M1372.991 400.1v10.646a4.258 4.258 0 0 1-8.515 0V400.1a4.258 4.258 0 1 1 8.515 0Z" data-name="Path 999"/></g><g fill="#029cb2" data-name="Group 1392"><path d="M441.659 901.833v10.646a4.258 4.258 0 0 1-8.515 0v-10.646a4.258 4.258 0 1 1 8.515 0Z" data-name="Path 990"/><path d="M441.659 932.385v16.59a4.258 4.258 0 1 1-8.515 0v-16.59a4.258 4.258 0 0 1 8.515 0Z" data-name="Path 991"/><path d="M441.659 968.889v10.64a4.258 4.258 0 1 1-8.515 0v-10.64a4.258 4.258 0 1 1 8.515 0Z" data-name="Path 992"/><path d="M524.672 847.555a4.318 4.318 0 0 1-.416 1.848 4.261 4.261 0 0 1-3.839 2.412h-18.089v50.022a4.258 4.258 0 0 1-8.515 0v-54.282a4.253 4.253 0 0 1 4.254-4.254h13.5l-43.831-54.91-43.838 54.91h13.507a4.253 4.253 0 0 1 4.254 4.254v54.282a4.258 4.258 0 0 1-8.515 0v-50.021h-18.089a4.259 4.259 0 0 1-3.331-6.915l52.688-65.99a4.253 4.253 0 0 1 6.648 0l52.682 65.99a4.21 4.21 0 0 1 .93 2.654Z" data-name="Path 993"/><path d="M502.329 968.889v10.64a4.258 4.258 0 1 1-8.515 0v-10.64a4.258 4.258 0 1 1 8.515 0Z" data-name="Path 994"/><path d="M502.329 932.385v16.59a4.258 4.258 0 1 1-8.515 0v-16.59a4.258 4.258 0 0 1 8.515 0Z" data-name="Path 995"/><path d="M502.329 901.833v10.646a4.258 4.258 0 0 1-8.515 0v-10.646a4.258 4.258 0 1 1 8.515 0Z" data-name="Path 996"/><path d="M471.991 916.733v10.646a4.258 4.258 0 0 1-8.515 0v-10.646a4.258 4.258 0 0 1 8.515 0Z" data-name="Path 997"/><path d="M471.991 952.924v21.284a4.258 4.258 0 0 1-8.515 0v-21.284a4.258 4.258 0 1 1 8.515 0Z" data-name="Path 998"/><path d="M471.991 999.746v10.646a4.258 4.258 0 0 1-8.515 0v-10.646a4.258 4.258 0 1 1 8.515 0Z" data-name="Path 999"/></g></g></svg>