<svg xmlns="http://www.w3.org/2000/svg" xmlns:xlink="http://www.w3.org/1999/xlink" width="3772" height="2389" viewBox="0 0 3772 2389">
  <defs>
    <clipPath id="clip-Vigtig_Indflydelse">
      <rect width="3772" height="2389"/>
    </clipPath>
  </defs>
  <g id="Vigtig_Indflydelse" data-name="Vigtig / Indflydelse" clip-path="url(#clip-Vigtig_Indflydelse)">
    <rect id="Rectangle_501" data-name="Rectangle 501" width="3105.943" height="2131.024" rx="41" transform="translate(70.352 62.718)" fill="#fff"/>
    <text id="Vigtigt" transform="translate(329 1075)" fill="#323f51" font-size="85" font-family="FiraSans-Bold, Fira Sans" font-weight="700"><tspan x="0" y="90">Vigtigt</tspan></text>
    <text id="Mindre_vigtigt" data-name="Mindre vigtigt" transform="translate(189 1660)" fill="#323f51" font-size="85" font-family="FiraSans-Bold, Fira Sans" font-weight="700"><tspan x="0" y="90">Mindre vigtigt</tspan></text>
    <text id="Indflydelse" transform="translate(1156.397 439)" fill="#323f51" font-size="85" font-family="FiraSans-Bold, Fira Sans" font-weight="700"><tspan x="0" y="90">Indflydelse</tspan></text>
    <text id="Mindre_indflydelse" data-name="Mindre indflydelse" transform="translate(2153.168 439)" fill="#323f51" font-size="85" font-family="FiraSans-Bold, Fira Sans" font-weight="700"><tspan x="0" y="90">Mindre indflydelse</tspan></text>
    <line id="Line_71" data-name="Line 71" x2="2806.453" transform="translate(171.5 624.5)" fill="none" stroke="#707070" stroke-width="3" opacity="0.478"/>
    <line id="Line_77" data-name="Line 77" y2="1872" transform="translate(841 269.5)" fill="none" stroke="rgba(112,112,112,0.67)" stroke-width="3" opacity="0.478"/>
    <line id="Line_113" data-name="Line 113" y2="1872" transform="translate(1915 269.5)" fill="none" stroke="rgba(112,112,112,0.67)" stroke-width="3" opacity="0.478"/>
    <line id="Line_74" data-name="Line 74" x2="2806.453" transform="translate(171.5 1358.5)" fill="none" stroke="rgba(112,112,112,0.67)" stroke-width="3" opacity="0.478"/>
    <g id="Group_1388" data-name="Group 1388" transform="translate(-133.794 -42.605)">
      <path id="Path_1762" data-name="Path 1762" d="M-976.144,187.328" transform="translate(4464.534 1333.098)" fill="none" stroke="#323f51" stroke-width="1"/>
      <path id="Path_1759" data-name="Path 1759" d="M-982.584,262.108c1.169,93.671,2.331,156.731,3.5,250.409a493.833,493.833,0,0,0,96.189,1.8" transform="translate(4417.66 1794.668)" fill="none" stroke="#323f51" stroke-linecap="round" stroke-linejoin="round" stroke-width="10"/>
      <path id="Path_1752" data-name="Path 1752" d="M-845.872,262.451c4.374,89.852,4.5,150.2.38,240.059a229.483,229.483,0,0,0-96.7,1.37" transform="translate(4080.219 1806.641)" fill="none" stroke="#323f51" stroke-linecap="round" stroke-linejoin="round" stroke-width="10"/>
      <path id="Path_1750" data-name="Path 1750" d="M-573.652,158.091C-498.231,199.4-452.511,278.58-420.111,357.54a1079.031,1079.031,0,0,1,78.564,473.284c-1.888,30.991-5.365,62.765-19.79,90.35-18.309,35.016-52.385,59.495-88.1,77.053-67.79,33.323-144.22,45.932-219.828,49.948-64.277,3.414-130.3.638-190.274-22.442S-973.053,956.548-991.776,895.7c-11.085-36.012-9.54-74.471-7.891-112.076q2.429-55.525,4.864-111.05c4.341-99.115,9.009-199.98,42.715-293.436S-850.62,199.038-755.665,166.769c30.23-10.278,67.072-34.535,98.615-29.4,68.509,11.146,35.978,4.024,83.4,20.721" transform="translate(4007.299 1020.387)" fill="#7ec8d6" stroke="#323f51" stroke-miterlimit="10" stroke-width="10"/>
      <path id="Path_1760" data-name="Path 1760" d="M519.358,124.343c-16.711,3.5-29.235,12.385-41.669,23.79" transform="translate(2744.073 1182.121)" fill="none" stroke="#353f4f" stroke-linecap="round" stroke-miterlimit="10" stroke-width="5"/>
      <path id="Path_1761" data-name="Path 1761" d="M466.3,124.343c16.711,3.5,29.221,12.385,41.67,23.79" transform="translate(2921.296 1224.121)" fill="none" stroke="#353f4f" stroke-linecap="round" stroke-miterlimit="10" stroke-width="5"/>
      <path id="Path_1751" data-name="Path 1751" d="M-802.231,191.7c-52.681,32.986-87.28,71.967-115.059,127.575-14.223,28.467-24.343,62.543-11.354,91.591,9.023,20.176,27.844,34.37,47.661,44.146,73.359,36.213,162.311,21.84,239.241,49.669" transform="translate(3819.806 1359.102)" fill="none" stroke="#323f51" stroke-linecap="round" stroke-linejoin="round" stroke-width="10"/>
      <path id="Path_1754" data-name="Path 1754" d="M-764.21,192.036c53.3,15.349,94.54,79,94.593,146,.012,15.866-2.123,31.989-8,46.14-10.908,26.272-32.949,42.346-54.029,56.612C-806.71,491.561-935.249,178-1014.4,218.441" transform="translate(4404.627 1345.16)" fill="none" stroke="#323f51" stroke-linecap="round" stroke-linejoin="round" stroke-width="10"/>
      <path id="Path_1753" data-name="Path 1753" d="M82.646,50.359a67.321,67.321,0,0,1,4.31,23c.092,3.922-1.152,6.928-5.452,7.092-4.119.155-5.034-2.868-5.153-6.347-.94-27.178-15.721-43.854-40.335-53.045-1.226-.458-2.429-.978-3.664-1.4-3.107-1.067-5.127-3.018-4.04-6.45,1.131-3.562,3.9-4.767,7.447-3.574C56.963,16.79,74,28.756,82.646,50.359Z" transform="matrix(-0.921, 0.391, -0.391, -0.921, 3365.18, 1539.127)" fill="#323f51"/>
      <path id="Path_1755" data-name="Path 1755" d="M1032.423,500.6c-13.752-.157-22.828,8.617-22.583,21.834.246,13.317,8.378,22.067,20.927,22.533,13.493.5,24.837-9.8,24.7-22.439C1055.333,509.433,1046.218,500.764,1032.423,500.6Z" transform="translate(2341.542 894.008)" fill="#323f51"/>
      <path id="Path_1756" data-name="Path 1756" d="M1023.13,504.123c-5.884-.069-9.77,3.692-9.67,9.349.107,5.7,3.59,9.449,8.957,9.644,5.784.221,10.64-4.2,10.577-9.606C1032.937,507.9,1029.038,504.192,1023.13,504.123Z" transform="translate(2341.083 912.68)" fill="#fff" opacity="0.9"/>
      <path id="Path_1757" data-name="Path 1757" d="M1059.361,500.4c-12.51-.032-22.365,10.394-22.258,23.532.107,13.657,9.065,22.538,22.639,22.455,14.037-.082,21.91-8.311,21.816-22.791C1081.463,510.1,1072.214,500.429,1059.361,500.4Z" transform="translate(2207.562 893.486)" fill="#323f51"/>
      <path id="Path_1758" data-name="Path 1758" d="M1049.955,504.123c-5.922-.07-9.831,3.712-9.725,9.4.109,5.732,3.606,9.5,9.009,9.7,5.809.222,10.691-4.219,10.635-9.66C1059.816,507.923,1055.9,504.192,1049.955,504.123Z" transform="translate(2209.394 913.354)" fill="#fff"/>
    </g>
    <text id="Svært_ved_at_bevare_overblikket_over_mine_arbejdsopgaver" data-name="Svært ved at bevare overblikket over mine arbejdsopgaver" transform="translate(1019.397 741.81)" fill="#323f51" stroke="#b7b7b7" stroke-miterlimit="10" stroke-width="1" font-size="50" font-family="FiraSans-MediumItalic, Fira Sans" font-weight="500" font-style="italic"><tspan x="0" y="53">Svært ved at bevare overblikket </tspan><tspan x="0" y="132">over mine arbejdsopgaver</tspan></text>
    <text id="Skriv_her..." data-name="Skriv her..." transform="translate(1019.397 1522.001)" fill="#d9d9d9" stroke="#d9d9d9" stroke-miterlimit="10" stroke-width="1" font-size="50" font-family="FiraSans-MediumItalic, Fira Sans" font-weight="500" font-style="italic"><tspan x="0" y="53">Skriv her...</tspan></text>
    <text id="Skriv_her...-2" data-name="Skriv her..." transform="translate(2153.167 1522.001)" fill="#323f51" stroke="#b7b7b7" stroke-miterlimit="10" stroke-width="1" font-size="50" font-family="FiraSans-MediumItalic, Fira Sans" font-weight="500" font-style="italic"><tspan x="0" y="53">Skriv her...</tspan></text>
    <text id="Uro_omkring_mig" data-name="Uro omkring mig" transform="translate(2153.167 741.81)" fill="#323f51" stroke="#b7b7b7" stroke-miterlimit="10" stroke-width="1" font-size="50" font-family="FiraSans-MediumItalic, Fira Sans" font-weight="500" font-style="italic"><tspan x="0" y="53">Uro omkring mig</tspan></text>
    <text id="Står_meget_op_på_arbejdet" data-name="Står meget op på arbejdet" transform="translate(1019.397 957.651)" fill="#323f51" stroke="#b7b7b7" stroke-miterlimit="10" stroke-width="1" font-size="50" font-family="FiraSans-MediumItalic, Fira Sans" font-weight="500" font-style="italic"><tspan x="0" y="53">Står meget op på arbejdet</tspan></text>
    <text id="_..." data-name="..." transform="translate(1019.397 1170.188)" fill="#d9d9d9" stroke="#d8d9d9" stroke-miterlimit="10" stroke-width="1" font-size="50" font-family="FiraSans-MediumItalic, Fira Sans" font-weight="500" font-style="italic"><tspan x="0" y="53">...</tspan></text>
    <text id="_...-2" data-name="..." transform="translate(2156.168 957.653)" fill="#d9d9d9" stroke="#d8d9d9" stroke-miterlimit="10" stroke-width="1" font-size="50" font-family="FiraSans-MediumItalic, Fira Sans" font-weight="500" font-style="italic"><tspan x="0" y="53">...</tspan></text>
    <text id="_" data-name="…" transform="translate(2156.168 1706.327)" fill="#d9d9d9" stroke="#d8d9d9" stroke-miterlimit="10" stroke-width="1" font-size="50" font-family="FiraSans-MediumItalic, Fira Sans" font-weight="500" font-style="italic"><tspan x="0" y="53">…</tspan></text>
    <path id="Path_1847" data-name="Path 1847" d="M35.035.069c-5.324-.222-10.5-.031-15.71,2.464C14.073,5.046,9.026,9.2,4.3,14.453A15.072,15.072,0,0,0,.01,24.279,23.4,23.4,0,0,0,1.387,32.2c1.1,3.483,2.379,6.867,4.106,9.073,3.062,3.912,6.956,3.484,10.564,2.9,9.068-1.47,18.149-3.087,27.081-6.576A29.162,29.162,0,0,0,52.6,32.093a10.961,10.961,0,0,0,3.694-7.286A16.545,16.545,0,0,0,52.5,12.955c-3.913-4.6-4.793-6.395-9.145-8.462C41.5,3.614,38.122.884,33.332,0" transform="matrix(-0.921, -0.391, 0.391, -0.921, 953.433, 808.826)" fill="#029cb2"/>
    <path id="Path_1856" data-name="Path 1856" d="M35.035.069c-5.324-.222-10.5-.031-15.71,2.464C14.073,5.046,9.026,9.2,4.3,14.453A15.072,15.072,0,0,0,.01,24.279,23.4,23.4,0,0,0,1.387,32.2c1.1,3.483,2.379,6.867,4.106,9.073,3.062,3.912,6.956,3.484,10.564,2.9,9.068-1.47,18.149-3.087,27.081-6.576A29.162,29.162,0,0,0,52.6,32.093a10.961,10.961,0,0,0,3.694-7.286A16.545,16.545,0,0,0,52.5,12.955c-3.913-4.6-4.793-6.395-9.145-8.462C41.5,3.614,38.122.884,33.332,0" transform="matrix(-0.921, -0.391, 0.391, -0.921, 953.433, 1589.017)" fill="#d9d9d9" stroke="#d9d9d9" stroke-width="1" stroke-dasharray="5"/>
    <path id="Path_1859" data-name="Path 1859" d="M35.035.069c-5.324-.222-10.5-.031-15.71,2.464C14.073,5.046,9.026,9.2,4.3,14.453A15.072,15.072,0,0,0,.01,24.279,23.4,23.4,0,0,0,1.387,32.2c1.1,3.483,2.379,6.867,4.106,9.073,3.062,3.912,6.956,3.484,10.564,2.9,9.068-1.47,18.149-3.087,27.081-6.576A29.162,29.162,0,0,0,52.6,32.093a10.961,10.961,0,0,0,3.694-7.286A16.545,16.545,0,0,0,52.5,12.955c-3.913-4.6-4.793-6.395-9.145-8.462C41.5,3.614,38.122.884,33.332,0" transform="matrix(-0.921, -0.391, 0.391, -0.921, 2087.203, 1589.017)" fill="#029cb2"/>
    <path id="Path_1853" data-name="Path 1853" d="M35.035.069c-5.324-.222-10.5-.031-15.71,2.464C14.073,5.046,9.026,9.2,4.3,14.453A15.072,15.072,0,0,0,.01,24.279,23.4,23.4,0,0,0,1.387,32.2c1.1,3.483,2.379,6.867,4.106,9.073,3.062,3.912,6.956,3.484,10.564,2.9,9.068-1.47,18.149-3.087,27.081-6.576A29.162,29.162,0,0,0,52.6,32.093a10.961,10.961,0,0,0,3.694-7.286A16.545,16.545,0,0,0,52.5,12.955c-3.913-4.6-4.793-6.395-9.145-8.462C41.5,3.614,38.122.884,33.332,0" transform="matrix(-0.921, -0.391, 0.391, -0.921, 2087.204, 808.826)" fill="#029cb2"/>
    <path id="Path_1849" data-name="Path 1849" d="M35.035.069c-5.324-.222-10.5-.031-15.71,2.464C14.073,5.046,9.026,9.2,4.3,14.453A15.072,15.072,0,0,0,.01,24.279,23.4,23.4,0,0,0,1.387,32.2c1.1,3.483,2.379,6.867,4.106,9.073,3.062,3.912,6.956,3.484,10.564,2.9,9.068-1.47,18.149-3.087,27.081-6.576A29.162,29.162,0,0,0,52.6,32.093a10.961,10.961,0,0,0,3.694-7.286A16.545,16.545,0,0,0,52.5,12.955c-3.913-4.6-4.793-6.395-9.145-8.462C41.5,3.614,38.122.884,33.332,0" transform="matrix(-0.921, -0.391, 0.391, -0.921, 953.433, 1024.667)" fill="#029cb2"/>
    <path id="Path_1860" data-name="Path 1860" d="M35.035.069c-5.324-.222-10.5-.031-15.71,2.464C14.073,5.046,9.026,9.2,4.3,14.453A15.072,15.072,0,0,0,.01,24.279,23.4,23.4,0,0,0,1.387,32.2c1.1,3.483,2.379,6.867,4.106,9.073,3.062,3.912,6.956,3.484,10.564,2.9,9.068-1.47,18.149-3.087,27.081-6.576A29.162,29.162,0,0,0,52.6,32.093a10.961,10.961,0,0,0,3.694-7.286A16.545,16.545,0,0,0,52.5,12.955c-3.913-4.6-4.793-6.395-9.145-8.462C41.5,3.614,38.122.884,33.332,0" transform="matrix(-0.921, -0.391, 0.391, -0.921, 953.433, 1237.205)" fill="#d9d9d9" stroke="#d8d9d9" stroke-width="1" stroke-dasharray="5"/>
    <path id="Path_1862" data-name="Path 1862" d="M35.035.069c-5.324-.222-10.5-.031-15.71,2.464C14.073,5.046,9.026,9.2,4.3,14.453A15.072,15.072,0,0,0,.01,24.279,23.4,23.4,0,0,0,1.387,32.2c1.1,3.483,2.379,6.867,4.106,9.073,3.062,3.912,6.956,3.484,10.564,2.9,9.068-1.47,18.149-3.087,27.081-6.576A29.162,29.162,0,0,0,52.6,32.093a10.961,10.961,0,0,0,3.694-7.286A16.545,16.545,0,0,0,52.5,12.955c-3.913-4.6-4.793-6.395-9.145-8.462C41.5,3.614,38.122.884,33.332,0" transform="matrix(-0.921, -0.391, 0.391, -0.921, 2090.205, 1024.669)" fill="#d9d9d9" stroke="#d8d9d9" stroke-width="1" stroke-dasharray="5"/>
    <path id="Path_1863" data-name="Path 1863" d="M35.035.069c-5.324-.222-10.5-.031-15.71,2.464C14.073,5.046,9.026,9.2,4.3,14.453A15.072,15.072,0,0,0,.01,24.279,23.4,23.4,0,0,0,1.387,32.2c1.1,3.483,2.379,6.867,4.106,9.073,3.062,3.912,6.956,3.484,10.564,2.9,9.068-1.47,18.149-3.087,27.081-6.576A29.162,29.162,0,0,0,52.6,32.093a10.961,10.961,0,0,0,3.694-7.286A16.545,16.545,0,0,0,52.5,12.955c-3.913-4.6-4.793-6.395-9.145-8.462C41.5,3.614,38.122.884,33.332,0" transform="matrix(-0.921, -0.391, 0.391, -0.921, 2090.205, 1773.343)" fill="#d9d9d9" stroke="#d8d9d9" stroke-width="1" stroke-dasharray="5"/>
    <g id="Group_1389" data-name="Group 1389" transform="translate(524.672 1807.918) rotate(90)">
      <path id="Path_990" data-name="Path 990" d="M14.9,8.515H4.254A4.257,4.257,0,0,1,4.254,0H14.9a4.257,4.257,0,1,1,0,8.515Z" transform="translate(97.913 22.352)" fill="#7ec8d6"/>
      <path id="Path_991" data-name="Path 991" d="M20.85,8.515H4.26A4.257,4.257,0,1,1,4.26,0H20.85a4.257,4.257,0,0,1,0,8.515Z" transform="translate(61.411 22.352)" fill="#7ec8d6"/>
      <path id="Path_992" data-name="Path 992" d="M14.9,8.515H4.26A4.257,4.257,0,1,1,4.26,0H14.9a4.257,4.257,0,1,1,0,8.515Z" transform="translate(30.857 22.352)" fill="#7ec8d6"/>
      <path id="Path_993" data-name="Path 993" d="M58.536,113.88a4.318,4.318,0,0,1-1.848-.416,4.261,4.261,0,0,1-2.412-3.839V91.536H4.254a4.257,4.257,0,0,1,0-8.515H58.536a4.253,4.253,0,0,1,4.254,4.254v13.5L117.7,56.944,62.79,13.106V26.613a4.253,4.253,0,0,1-4.254,4.254H4.254a4.257,4.257,0,0,1,0-8.515H54.275V4.263A4.259,4.259,0,0,1,61.19.932L127.18,53.62a4.253,4.253,0,0,1,0,6.648L61.19,112.95A4.21,4.21,0,0,1,58.536,113.88Z" transform="translate(108.555 0)" fill="#7ec8d6"/>
      <path id="Path_994" data-name="Path 994" d="M14.9,8.515H4.26A4.257,4.257,0,1,1,4.26,0H14.9a4.257,4.257,0,1,1,0,8.515Z" transform="translate(30.857 83.022)" fill="#7ec8d6"/>
      <path id="Path_995" data-name="Path 995" d="M20.85,8.515H4.26A4.257,4.257,0,1,1,4.26,0H20.85a4.257,4.257,0,0,1,0,8.515Z" transform="translate(61.411 83.022)" fill="#7ec8d6"/>
      <path id="Path_996" data-name="Path 996" d="M14.9,8.515H4.254A4.257,4.257,0,0,1,4.254,0H14.9a4.257,4.257,0,1,1,0,8.515Z" transform="translate(97.913 83.022)" fill="#7ec8d6"/>
      <path id="Path_997" data-name="Path 997" d="M14.9,8.515H4.254A4.257,4.257,0,0,1,4.254,0H14.9a4.257,4.257,0,0,1,0,8.515Z" transform="translate(83.013 52.684)" fill="#7ec8d6"/>
      <path id="Path_998" data-name="Path 998" d="M25.538,8.515H4.254A4.257,4.257,0,0,1,4.254,0H25.538a4.257,4.257,0,1,1,0,8.515Z" transform="translate(36.184 52.684)" fill="#7ec8d6"/>
      <path id="Path_999" data-name="Path 999" d="M14.9,8.515H4.254A4.257,4.257,0,0,1,4.254,0H14.9a4.257,4.257,0,1,1,0,8.515Z" transform="translate(0 52.684)" fill="#7ec8d6"/>
    </g>
    <g id="Group_1390" data-name="Group 1390" transform="translate(2559.672 177.664) rotate(90)">
      <path id="Path_990-2" data-name="Path 990" d="M14.9,8.515H4.254A4.257,4.257,0,0,1,4.254,0H14.9a4.257,4.257,0,1,1,0,8.515Z" transform="translate(97.913 22.352)" fill="#7ec8d6"/>
      <path id="Path_991-2" data-name="Path 991" d="M20.85,8.515H4.26A4.257,4.257,0,1,1,4.26,0H20.85a4.257,4.257,0,0,1,0,8.515Z" transform="translate(61.411 22.352)" fill="#7ec8d6"/>
      <path id="Path_992-2" data-name="Path 992" d="M14.9,8.515H4.26A4.257,4.257,0,1,1,4.26,0H14.9a4.257,4.257,0,1,1,0,8.515Z" transform="translate(30.857 22.352)" fill="#7ec8d6"/>
      <path id="Path_993-2" data-name="Path 993" d="M58.536,113.88a4.318,4.318,0,0,1-1.848-.416,4.261,4.261,0,0,1-2.412-3.839V91.536H4.254a4.257,4.257,0,0,1,0-8.515H58.536a4.253,4.253,0,0,1,4.254,4.254v13.5L117.7,56.944,62.79,13.106V26.613a4.253,4.253,0,0,1-4.254,4.254H4.254a4.257,4.257,0,0,1,0-8.515H54.275V4.263A4.259,4.259,0,0,1,61.19.932L127.18,53.62a4.253,4.253,0,0,1,0,6.648L61.19,112.95A4.21,4.21,0,0,1,58.536,113.88Z" transform="translate(108.555 0)" fill="#7ec8d6"/>
      <path id="Path_994-2" data-name="Path 994" d="M14.9,8.515H4.26A4.257,4.257,0,1,1,4.26,0H14.9a4.257,4.257,0,1,1,0,8.515Z" transform="translate(30.857 83.022)" fill="#7ec8d6"/>
      <path id="Path_995-2" data-name="Path 995" d="M20.85,8.515H4.26A4.257,4.257,0,1,1,4.26,0H20.85a4.257,4.257,0,0,1,0,8.515Z" transform="translate(61.411 83.022)" fill="#7ec8d6"/>
      <path id="Path_996-2" data-name="Path 996" d="M14.9,8.515H4.254A4.257,4.257,0,0,1,4.254,0H14.9a4.257,4.257,0,1,1,0,8.515Z" transform="translate(97.913 83.022)" fill="#7ec8d6"/>
      <path id="Path_997-2" data-name="Path 997" d="M14.9,8.515H4.254A4.257,4.257,0,0,1,4.254,0H14.9a4.257,4.257,0,0,1,0,8.515Z" transform="translate(83.013 52.684)" fill="#7ec8d6"/>
      <path id="Path_998-2" data-name="Path 998" d="M25.538,8.515H4.254A4.257,4.257,0,0,1,4.254,0H25.538a4.257,4.257,0,1,1,0,8.515Z" transform="translate(36.184 52.684)" fill="#7ec8d6"/>
      <path id="Path_999-2" data-name="Path 999" d="M14.9,8.515H4.254A4.257,4.257,0,0,1,4.254,0H14.9a4.257,4.257,0,1,1,0,8.515Z" transform="translate(0 52.684)" fill="#7ec8d6"/>
    </g>
    <g id="Group_1391" data-name="Group 1391" transform="translate(1311.792 415) rotate(-90)">
      <path id="Path_990-3" data-name="Path 990" d="M14.9,8.515H4.254A4.257,4.257,0,0,1,4.254,0H14.9a4.257,4.257,0,1,1,0,8.515Z" transform="translate(97.913 22.352)" fill="#029cb2"/>
      <path id="Path_991-3" data-name="Path 991" d="M20.85,8.515H4.26A4.257,4.257,0,1,1,4.26,0H20.85a4.257,4.257,0,0,1,0,8.515Z" transform="translate(61.411 22.352)" fill="#029cb2"/>
      <path id="Path_992-3" data-name="Path 992" d="M14.9,8.515H4.26A4.257,4.257,0,1,1,4.26,0H14.9a4.257,4.257,0,1,1,0,8.515Z" transform="translate(30.857 22.352)" fill="#029cb2"/>
      <path id="Path_993-3" data-name="Path 993" d="M58.536,113.88a4.318,4.318,0,0,1-1.848-.416,4.261,4.261,0,0,1-2.412-3.839V91.536H4.254a4.257,4.257,0,0,1,0-8.515H58.536a4.253,4.253,0,0,1,4.254,4.254v13.5L117.7,56.944,62.79,13.106V26.613a4.253,4.253,0,0,1-4.254,4.254H4.254a4.257,4.257,0,0,1,0-8.515H54.275V4.263A4.259,4.259,0,0,1,61.19.932L127.18,53.62a4.253,4.253,0,0,1,0,6.648L61.19,112.95A4.21,4.21,0,0,1,58.536,113.88Z" transform="translate(108.555 0)" fill="#029cb2"/>
      <path id="Path_994-3" data-name="Path 994" d="M14.9,8.515H4.26A4.257,4.257,0,1,1,4.26,0H14.9a4.257,4.257,0,1,1,0,8.515Z" transform="translate(30.857 83.022)" fill="#029cb2"/>
      <path id="Path_995-3" data-name="Path 995" d="M20.85,8.515H4.26A4.257,4.257,0,1,1,4.26,0H20.85a4.257,4.257,0,0,1,0,8.515Z" transform="translate(61.411 83.022)" fill="#029cb2"/>
      <path id="Path_996-3" data-name="Path 996" d="M14.9,8.515H4.254A4.257,4.257,0,0,1,4.254,0H14.9a4.257,4.257,0,1,1,0,8.515Z" transform="translate(97.913 83.022)" fill="#029cb2"/>
      <path id="Path_997-3" data-name="Path 997" d="M14.9,8.515H4.254A4.257,4.257,0,0,1,4.254,0H14.9a4.257,4.257,0,0,1,0,8.515Z" transform="translate(83.013 52.684)" fill="#029cb2"/>
      <path id="Path_998-3" data-name="Path 998" d="M25.538,8.515H4.254A4.257,4.257,0,0,1,4.254,0H25.538a4.257,4.257,0,1,1,0,8.515Z" transform="translate(36.184 52.684)" fill="#029cb2"/>
      <path id="Path_999-3" data-name="Path 999" d="M14.9,8.515H4.254A4.257,4.257,0,0,1,4.254,0H14.9a4.257,4.257,0,1,1,0,8.515Z" transform="translate(0 52.684)" fill="#029cb2"/>
    </g>
    <g id="Group_1392" data-name="Group 1392" transform="translate(410.792 1014.646) rotate(-90)">
      <path id="Path_990-4" data-name="Path 990" d="M14.9,8.515H4.254A4.257,4.257,0,0,1,4.254,0H14.9a4.257,4.257,0,1,1,0,8.515Z" transform="translate(97.913 22.352)" fill="#029cb2"/>
      <path id="Path_991-4" data-name="Path 991" d="M20.85,8.515H4.26A4.257,4.257,0,1,1,4.26,0H20.85a4.257,4.257,0,0,1,0,8.515Z" transform="translate(61.411 22.352)" fill="#029cb2"/>
      <path id="Path_992-4" data-name="Path 992" d="M14.9,8.515H4.26A4.257,4.257,0,1,1,4.26,0H14.9a4.257,4.257,0,1,1,0,8.515Z" transform="translate(30.857 22.352)" fill="#029cb2"/>
      <path id="Path_993-4" data-name="Path 993" d="M58.536,113.88a4.318,4.318,0,0,1-1.848-.416,4.261,4.261,0,0,1-2.412-3.839V91.536H4.254a4.257,4.257,0,0,1,0-8.515H58.536a4.253,4.253,0,0,1,4.254,4.254v13.5L117.7,56.944,62.79,13.106V26.613a4.253,4.253,0,0,1-4.254,4.254H4.254a4.257,4.257,0,0,1,0-8.515H54.275V4.263A4.259,4.259,0,0,1,61.19.932L127.18,53.62a4.253,4.253,0,0,1,0,6.648L61.19,112.95A4.21,4.21,0,0,1,58.536,113.88Z" transform="translate(108.555 0)" fill="#029cb2"/>
      <path id="Path_994-4" data-name="Path 994" d="M14.9,8.515H4.26A4.257,4.257,0,1,1,4.26,0H14.9a4.257,4.257,0,1,1,0,8.515Z" transform="translate(30.857 83.022)" fill="#029cb2"/>
      <path id="Path_995-4" data-name="Path 995" d="M20.85,8.515H4.26A4.257,4.257,0,1,1,4.26,0H20.85a4.257,4.257,0,0,1,0,8.515Z" transform="translate(61.411 83.022)" fill="#029cb2"/>
      <path id="Path_996-4" data-name="Path 996" d="M14.9,8.515H4.254A4.257,4.257,0,0,1,4.254,0H14.9a4.257,4.257,0,1,1,0,8.515Z" transform="translate(97.913 83.022)" fill="#029cb2"/>
      <path id="Path_997-4" data-name="Path 997" d="M14.9,8.515H4.254A4.257,4.257,0,0,1,4.254,0H14.9a4.257,4.257,0,0,1,0,8.515Z" transform="translate(83.013 52.684)" fill="#029cb2"/>
      <path id="Path_998-4" data-name="Path 998" d="M25.538,8.515H4.254A4.257,4.257,0,0,1,4.254,0H25.538a4.257,4.257,0,1,1,0,8.515Z" transform="translate(36.184 52.684)" fill="#029cb2"/>
      <path id="Path_999-4" data-name="Path 999" d="M14.9,8.515H4.254A4.257,4.257,0,0,1,4.254,0H14.9a4.257,4.257,0,1,1,0,8.515Z" transform="translate(0 52.684)" fill="#029cb2"/>
    </g>
  </g>
</svg>
