<svg id="book_svg__svg24" width="18" height="18" fill="#FFF" version="1.1" viewBox="0 0 24 24" xmlns="http://www.w3.org/2000/svg"><g id="book_svg__g6"><path id="book_svg__rect4" fill="none" d="M0 0h24v24H0z"/></g><g id="book_svg__g22"><g id="book_svg__g20"><g id="book_svg__g911" transform="translate(.163 18.347)"><path id="book_svg__path10-1" d="M2.837-14.323c1.11-.35 2.33-.5 3.5-.5 1.95 0 4.05.4 5.5 1.5.19 9.8.03 7.528.057 15.451-1.35-.85-3.857-1.45-5.557-1.45-1.65 0-3.35.3-4.75 1.05-.1.05-.15.05-.25.05-.25 0-.5-.25-.5-.5v-14.6c.6-.45 1.25-.75 2-1zm0 13.5c1.1-.35 2.3-.5 3.5-.5 1.7 0 3.638.496 4.988 1.346l-.015-11.39c-1.35-.85-3.273-1.456-4.973-1.456-1.2 0-2.4.15-3.5.5z" style="stroke-width:1"/><path id="book_svg__path10-3" d="M20.837-14.323c-1.11-.35-2.33-.5-3.5-.5-1.95 0-4.05.4-5.5 1.5-.085 9.338-.015 9.663.057 15.451 1.35-.85 3.743-1.45 5.443-1.45 1.65 0 3.35.3 4.75 1.05.1.05.15.05.25.05.25 0 .5-.25.5-.5v-14.6c-.6-.45-1.25-.75-2-1zm0 13.5c-1.1-.35-2.3-.5-3.5-.5-1.7 0-3.638.496-4.988 1.346l-.02-11.388c1.35-.85 3.308-1.458 5.008-1.458 1.2 0 2.4.15 3.5.5z" style="stroke-width:1"/><path id="book_svg__path12-0" d="M17.514-8.777c.88 0 1.73.09 2.5.26v-1.52c-.79-.15-1.64-.24-2.5-.24-1.7 0-3.24.29-4.5.83v1.66c1.13-.64 2.7-.99 4.5-.99z" style="stroke-width:1"/><path id="book_svg__path14-4" d="M13.014-6.787v1.66c1.13-.64 2.7-.99 4.5-.99.88 0 1.73.09 2.5.26v-1.52c-.79-.15-1.64-.24-2.5-.24-1.7 0-3.24.3-4.5.83z" style="stroke-width:1"/><path id="book_svg__path16-4" d="M17.514-4.947c-1.7 0-3.24.29-4.5.83v1.66c1.13-.64 2.7-.99 4.5-.99.88 0 1.73.09 2.5.26v-1.52c-.79-.16-1.64-.24-2.5-.24z" style="stroke-width:1"/></g></g></g></svg>