<?xml version="1.0" encoding="utf-8"?>
<svg viewBox="661.553 140.737 39.603 39.828" xmlns="http://www.w3.org/2000/svg">
  <circle style="fill: rgb(56, 68, 84);" cx="681.165" cy="160.177" r="15.865" transform="matrix(1.241658, 0, 0, 1.225435, -164.398499, -35.5788)"/>
  <g id="g844" transform="matrix(1, 0, 0, 1, 668.988645, 147.5092)" style="stroke:#ffffff;stroke-opacity:1">
    <g stroke-linecap="round" stroke-width="1" stroke="#000" fill="none" stroke-linejoin="round" id="g6" style="stroke:#ffffff;stroke-width:1.4;stroke-linejoin:miter;stroke-miterlimit:4;stroke-dasharray:none;stroke-opacity:1" transform="translate(-0.0070602,-1.0424205)">
      <path d="m 1.5,12.5 h 9" id="path2" style="stroke:#ffffff;stroke-width:1.4;stroke-linejoin:miter;stroke-miterlimit:4;stroke-dasharray:none;stroke-opacity:1"/>
      <path d="m 13.5,12.5 h 9" id="path4" style="stroke:#ffffff;stroke-width:1.4;stroke-linejoin:miter;stroke-miterlimit:4;stroke-dasharray:none;stroke-opacity:1"/>
    </g>
    <path fill="none" stroke="#000000" stroke-linejoin="round" stroke-width="1" d="M 1.4929398,6.4575795 H 20.458707 22.49294 V 20.457579 H 1.4929398 Z" id="path8" style="stroke:#ffffff;stroke-width:1.4;stroke-linejoin:miter;stroke-miterlimit:4;stroke-dasharray:none;stroke-opacity:1"/>
    <g stroke-width="1" stroke="#000" fill="none" stroke-linejoin="round" id="g14" style="stroke:#ffffff;stroke-width:1.4;stroke-linejoin:miter;stroke-miterlimit:4;stroke-dasharray:none;stroke-opacity:1" transform="translate(-0.0070602,-1.0424205)">
      <path d="m 10.5,11.5 h 3 v 4 h -3 z" id="path10" style="stroke:#ffffff;stroke-width:1.4;stroke-linejoin:miter;stroke-miterlimit:4;stroke-dasharray:none;stroke-opacity:1"/>
      <path d="m 8,7.5 c 0,-2.209 1.789,-4 4,-4 2.209,0 4,1.791 4,4" id="path12" style="stroke:#ffffff;stroke-width:1.4;stroke-linejoin:miter;stroke-miterlimit:4;stroke-dasharray:none;stroke-opacity:1"/>
    </g>
  </g>
  <path fill="none" d="M0,0h24v24h-24Z" id="path16" transform="matrix(1, 0, 0, 1, 668.981585, 147.5092)"/>
  <circle style="fill: rgb(56, 68, 84);" cx="681.165" cy="160.177" r="15.865" transform="matrix(1.241658, 0, 0, 1.225435, -109.129166, -35.026367)"/>
  <text style="fill: rgb(255, 255, 255); font-family: Arial, sans-serif; font-size: 5.2px; white-space: pre;" x="732.386" y="161.788" transform="matrix(5.46502, 0, 0, 5.310347, -3273.403076, -689.511169)">?</text>
  <circle style="fill: rgb(56, 68, 84);" cx="681.165" cy="160.177" r="15.865" transform="matrix(1.241658, 0, 0, 1.225435, -49.440937, -35.165962)"/>
  <text style="fill: rgb(255, 255, 255); font-family: Arial, sans-serif; font-size: 5.2px; white-space: pre;" x="732.386" y="161.788" transform="matrix(6.530612, 0, 0, 6.863271, -3995.989258, -936.735901)">+</text>
</svg>