<svg xml:space="preserve" xmlns:xlink="http://www.w3.org/1999/xlink" width="1000" height="360.156" viewBox="-222.5 -160.269 1000 360.156" xmlns="http://www.w3.org/2000/svg"><path d="M777.5 199.887h-1000v-360.156h1000z" style="fill:#fff"/><defs><path id="bds-ubehagskurver_svg__a" d="M-161.067-144.613h934.655V183.09h-934.655z"/></defs><clipPath id="bds-ubehagskurver_svg__b"><use xlink:href="#bds-ubehagskurver_svg__a" width="100%" height="100%" overflow="visible" style="overflow:visible"/></clipPath><path d="m-157.942 179.965 4.876-.033 4.246-.173 4.77-.478 4.804-.883 4.781-1.35 4.434-1.713 4.589-2.257 4.745-2.863 4.732-3.378 4.869-4.005 4.286-3.941 4.826-4.878 4.846-5.319 4.669-5.483 4.242-5.245 5.043-6.521 4.27-5.717 4.969-6.834 4.401-6.167 4.825-6.852 9.389-13.417 4.404-6.259 4.747-6.681 4.934-6.829 4.295-5.822 4.638-6.139 4.79-6.154 4.687-5.806 4.536-5.407 5.035-5.737 4.527-4.902 4.83-4.956 4.378-4.232 4.786-4.343 4.503-3.809 4.709-3.686 4.601-3.312 4.819-3.157 4.64-2.741L33.275-.02l4.707-2.181 4.323-1.751 4.956-1.705 4.435-1.262 4.724-1.077 4.526-.778 5.023-.584 4.35-.275 4.936-.063 4.499.169 4.923.412 4.246.542 4.837.822 4.671.985 4.669 1.165 4.652 1.33 4.469 1.427 4.831 1.694 4.603 1.758 4.847 1.987 4.385 1.911 4.848 2.228 4.645 2.237 4.633 2.327 4.837 2.521 4.455 2.393 4.564 2.522 5.04 2.852 4.56 2.637 4.667 2.744 4.744 2.831 4.362 2.639 4.65 2.835 4.614 2.84 4.937 3.056 4.355 2.706 14.047 8.754 4.825 2.999 4.842 3 4.41 2.718 4.682 2.869 4.566 2.776 4.951 2.986 4.285 2.56 4.921 2.909 4.628 2.704 4.582 2.647 4.584 2.609 4.677 2.629 4.956 2.745 4.546 2.476 4.484 2.403 4.797 2.529 4.786 2.475 4.295 2.182 5.089 2.536 4.258 2.079 4.978 2.387 4.756 2.226 4.24 1.946 4.775 2.142 4.803 2.109 4.781 2.046 4.432 1.858 4.591 1.878 4.747 1.891 4.732 1.842 4.867 1.844 4.286 1.582 4.826 1.737 4.845 1.695 4.671 1.59 4.239 1.406 5.043 1.628 4.27 1.339 4.971 1.512 4.399 1.303 4.825 1.387 4.594 1.282 4.794 1.297 4.405 1.154 4.748 1.212 4.935 1.218 4.291 1.026 4.642 1.077 4.792 1.077 4.685 1.018 4.537.954 5.036 1.028 4.525.89 4.828.92 4.382.808 4.782.85 4.505.778 4.706.785 4.604.74 4.819.748 4.639.696 4.747.685 4.705.658 4.325.584 4.956.645 4.435.557 4.725.571 4.523.531 5.023.564 4.352.47 4.937.516 4.499.454 4.92.478 4.249.398 4.83.434 4.672.406 4.675.388 4.647.373 4.468.347 4.828.359 4.612.331 4.84.331 4.385.29 4.852.31 4.639.283 4.635.275 4.834.272 4.462.241 4.561.24 5.042.25 4.56.221 4.664.215 4.751.211 4.361.183 4.648.193 4.616.18 4.93.188 4.36.157 5.024.175 4.529.151 4.492.143 4.82.149 4.845.142 4.415.123 4.679.125 4.571.121 4.945.122 4.29.104 4.92.11 4.626.103 4.578.097 4.586.089 4.678.09 4.953.093 4.548.081 4.486.075 4.795.078 4.79.074 4.507.067" clip-path="url(#bds-ubehagskurver_svg__b)" style="fill:none;stroke:#3e578a;stroke-width:1.73440003;stroke-linejoin:round;stroke-miterlimit:10"/><defs><path id="bds-ubehagskurver_svg__c" d="M-161.067-144.613h934.655V183.09h-934.655z"/></defs><clipPath id="bds-ubehagskurver_svg__d"><use xlink:href="#bds-ubehagskurver_svg__c" width="100%" height="100%" overflow="visible" style="overflow:visible"/></clipPath><path d="m-157.942 179.965 4.876-.022 4.246-.11 4.77-.304 4.804-.563 4.781-.857 4.434-1.091 4.589-1.438 4.745-1.819 4.732-2.152 4.869-2.548 4.286-2.507 4.826-3.105 4.846-3.384 4.669-3.489 4.242-3.338 5.043-4.15 4.27-3.637 4.969-4.349 4.401-3.924 4.825-4.36 9.389-8.539 4.404-3.983 4.747-4.253 4.934-4.345 4.295-3.705 4.638-3.906 4.79-3.915 4.687-3.697 4.536-3.44 5.035-3.651 4.527-3.118 4.83-3.155 4.378-2.694 4.786-2.762 4.503-2.423 4.709-2.349 4.601-2.106 4.819-2.012 4.64-1.743 4.746-1.593 4.707-1.388 4.323-1.114 4.956-1.087 4.435-.801 4.724-.686 4.526-.494 5.023-.372 4.35-.174 4.936-.04 4.499.103 4.923.266 4.246.345 4.837.521 4.671.629 4.669.74 4.652.846 4.469.908 4.831 1.077 4.603 1.119 4.847 1.265 4.385 1.216 4.848 1.416 4.645 1.426 4.633 1.481 4.837 1.603 4.455 1.526 4.564 1.605 5.04 1.813 4.56 1.679 4.667 1.746 4.744 1.803 4.362 1.677 4.65 1.807 4.614 1.804 4.937 1.946 4.355 1.723 14.047 5.568 4.825 1.911 4.842 1.909 4.41 1.729 4.682 1.822 4.566 1.771 4.951 1.898 4.285 1.631 4.921 1.851 4.628 1.721 4.582 1.683 4.584 1.662 4.677 1.672 4.956 1.745 4.546 1.577 4.484 1.529 4.797 1.608 4.786 1.575 4.295 1.39 5.089 1.612 4.258 1.326 4.978 1.516 4.756 1.418 4.24 1.239 4.775 1.365 4.803 1.341 4.781 1.304 4.432 1.18 4.591 1.193 4.747 1.206 4.732 1.17 4.867 1.173 4.286 1.006 4.826 1.108 4.845 1.08 4.671 1.012 4.239.893 5.043 1.035 4.27.854 4.971.962 4.399.829 4.825.882 4.594.816 4.794.825 4.405.734 4.748.772 4.935.774 4.291.655 4.642.684 4.792.685 4.685.647 4.537.609 5.036.651 4.525.569 4.828.585 4.382.512 4.782.544 4.505.493 4.706.499 4.604.472 4.819.477 4.639.442 4.747.436 4.705.42 4.325.371 4.956.409 4.435.355 4.725.364 4.523.336 5.023.362 4.352.3 4.937.326 4.499.289 4.92.303 4.249.254 4.83.277 4.672.258 4.675.249 4.647.235 4.468.22 4.828.229 4.612.211 4.84.213 4.385.183 4.852.197 4.639.179 4.635.176 4.834.173 4.462.154 4.561.152 5.042.16 4.56.139 4.664.139 4.751.134 4.361.116 4.648.123 4.616.115 4.93.119 4.36.098 5.024.114 4.529.096 4.492.088 4.82.097 4.845.09 4.415.081 4.679.079 4.571.075 4.945.078 4.29.067 4.92.07 4.626.065 4.578.058 4.586.06 4.678.058 4.953.058 4.548.05 4.486.05 4.795.05 4.79.045 4.507.044" clip-path="url(#bds-ubehagskurver_svg__d)" style="fill:none;stroke:#00786a;stroke-width:1.73440003;stroke-linejoin:round;stroke-miterlimit:10"/><defs><path id="bds-ubehagskurver_svg__e" d="M-161.067-144.613h934.655V183.09h-934.655z"/></defs><clipPath id="bds-ubehagskurver_svg__f"><use xlink:href="#bds-ubehagskurver_svg__e" width="100%" height="100%" overflow="visible" style="overflow:visible"/></clipPath><path d="m-157.942 179.965 4.876-.014 4.246-.061 4.77-.177 4.804-.318 4.781-.492 4.434-.622 4.589-.822 4.745-1.041 4.732-1.226 4.869-1.455 4.286-1.437 4.826-1.771 4.846-1.934 4.669-1.995 4.242-1.908 5.043-2.37 4.27-2.08 4.969-2.485 4.401-2.243 4.825-2.491 9.389-4.88 4.404-2.277 4.747-2.428 4.934-2.483 4.295-2.117 4.638-2.232 4.79-2.239 4.687-2.111 4.536-1.966 5.035-2.085 4.527-1.786 4.83-1.8 4.378-1.539 4.786-1.579 4.503-1.386 4.709-1.339 4.601-1.203 4.819-1.151 4.64-.994 4.746-.912 4.707-.795 4.323-.636 4.956-.619 4.435-.461 4.724-.39 4.526-.284 5.023-.211 4.35-.102 4.936-.02 4.499.061 4.923.149 4.246.198 4.837.296 4.671.361 4.669.423 4.652.482 4.469.521 4.831.614 4.603.641 4.847.722 4.385.695 4.848.81 4.645.812 4.633.849 4.837.916 4.455.869 4.564.919 5.04 1.034 4.56.959 4.667 1 4.744 1.03 4.362.959 4.65 1.033 4.614 1.03 4.937 1.11 4.355.985 14.047 3.184 4.825 1.089 4.842 1.093 4.41.987 4.682 1.043 4.566 1.009 4.951 1.087 4.285.931 4.921 1.057 4.628.983 4.582.962 4.584.952 4.677.955 4.956.998 4.546.901 4.484.874 4.797.919 4.786.901 4.295.792 5.089.923 4.258.757 4.978.864 4.756.811 4.24.709 4.775.779 4.803.766 4.781.746 4.432.674 4.591.683 4.747.686 4.732.672 4.867.671 4.286.575 4.826.632 4.845.614 4.671.58 4.239.511 5.043.593 4.27.483 4.971.553 4.399.473 4.825.505 4.594.466 4.794.472 4.405.421 4.748.439 4.935.441 4.291.375 4.642.391 4.792.393 4.685.37 4.537.347 5.036.371 4.525.327 4.828.334 4.382.294 4.782.307 4.505.285 4.706.284 4.604.267 4.819.275 4.639.252 4.747.25 4.705.239 4.325.213 4.956.234 4.435.202 4.725.207 4.523.195 5.023.205 4.352.171 4.937.186 4.499.167 4.92.173 4.249.145 4.83.158 4.672.147 4.675.141 4.647.138 4.468.123 4.828.132 4.612.12 4.84.121 4.385.105 4.852.112 4.639.101 4.635.103 4.834.098 4.462.086 4.561.086 5.042.095 4.56.079 4.664.078 4.751.077 4.361.068 4.648.07 4.616.062 4.93.07 4.36.057 5.024.064 4.529.056 4.492.049 4.82.057 4.845.051 4.415.044 4.679.048 4.571.042 4.945.043 4.29.04 4.92.038 4.626.039 4.578.033 4.586.035 4.678.033 4.953.034 4.548.029 4.486.026 4.795.029 4.79.027 4.507.023" clip-path="url(#bds-ubehagskurver_svg__f)" style="fill:none;stroke:#780072;stroke-width:1.73440003;stroke-linejoin:round;stroke-miterlimit:10"/><defs><path id="bds-ubehagskurver_svg__g" d="M-161.067-144.613h934.655V183.09h-934.655z"/></defs><clipPath id="bds-ubehagskurver_svg__h"><use xlink:href="#bds-ubehagskurver_svg__g" width="100%" height="100%" overflow="visible" style="overflow:visible"/></clipPath><path d="m-157.942 179.965 4.876-.049 4.246-.26 4.77-.716 4.804-1.327 4.781-2.026 4.434-2.565 4.589-3.387 4.745-4.294 4.732-5.069 4.869-6.004 4.286-5.915 4.826-7.315 4.846-7.978 4.669-8.228 4.242-7.869 5.043-9.775 4.27-8.578 4.969-10.252 4.401-9.252 4.825-10.277 9.389-20.126 4.404-9.387 4.747-10.021 4.934-10.244 4.295-8.733 4.638-9.208 4.79-9.229 4.687-8.713 4.536-8.11 5.035-8.603 4.527-7.353 4.83-7.433 4.378-6.352 4.786-6.514 4.503-5.711 4.709-5.529 4.601-4.969 4.819-4.736 4.64-4.113 4.746-3.755 4.707-3.276 4.323-2.623 4.956-2.559 4.435-1.891 4.724-1.616 4.526-1.166 5.023-.876 4.35-.412 4.936-.095 4.499.251 4.923.62 4.246.816 4.837 1.228 4.671 1.478 4.669 1.747 4.652 1.994 4.469 2.14 4.831 2.544 4.603 2.636 4.847 2.979 4.385 2.866 4.848 3.342 4.645 3.357 4.633 3.491 4.837 3.779 4.455 3.594 4.564 3.779 5.04 4.278 4.56 3.957 4.667 4.117 4.744 4.248 4.362 3.956 4.65 4.256 4.614 4.256 4.937 4.582 4.355 4.063 14.047 13.13 4.825 4.497 4.842 4.501 4.41 4.077 4.682 4.301 4.566 4.167 4.951 4.479 4.285 3.84 4.921 4.363 4.628 4.056 4.582 3.968 4.584 3.919 4.677 3.943 4.956 4.114 4.546 3.714 4.484 3.606 4.797 3.792 4.786 3.714 4.295 3.273 5.089 3.802 4.258 3.122 4.978 3.577 4.756 3.339 4.24 2.921 4.775 3.215 4.803 3.162 4.781 3.072 4.432 2.784 4.591 2.814 4.747 2.839 4.732 2.763 4.867 2.764 4.286 2.375 4.826 2.603 4.845 2.547 4.671 2.385 4.239 2.108 5.043 2.437 4.27 2.009 4.971 2.271 4.399 1.953 4.825 2.081 4.594 1.924 4.794 1.945 4.405 1.735 4.748 1.817 4.935 1.822 4.291 1.543 4.642 1.612 4.792 1.617 4.685 1.528 4.537 1.431 5.036 1.542 4.525 1.335 4.828 1.38 4.382 1.21 4.782 1.28 4.505 1.165 4.706 1.173 4.604 1.113 4.819 1.122 4.639 1.044 4.747 1.031 4.705.985 4.325.872 4.956.968 4.435.838 4.725.858 4.523.79 5.023.852 4.352.706 4.937.775 4.499.68 4.92.716 4.249.595 4.83.653 4.672.606 4.675.586 4.647.56 4.468.518 4.828.54 4.612.495 4.84.497 4.385.436 4.852.461 4.639.428 4.635.406 4.834.412 4.462.363 4.561.359 5.042.378 4.56.329 4.664.322 4.751.315 4.361.28 4.648.287 4.616.273 4.93.276 4.36.239 5.024.26 4.529.228 4.492.214 4.82.222 4.845.215 4.415.185 4.679.191 4.571.178 4.945.184 4.29.154 4.92.168 4.626.152 4.578.144 4.586.137 4.678.134 4.953.14 4.548.119 4.486.112 4.795.118 4.79.111 4.507.102" clip-path="url(#bds-ubehagskurver_svg__h)" style="fill:none;stroke:orange;stroke-width:1.73440003;stroke-linejoin:round;stroke-miterlimit:10"/><defs><path id="bds-ubehagskurver_svg__i" d="M-218.594-156.363h992.188v352.344h-992.188z"/></defs><clipPath id="bds-ubehagskurver_svg__j"><use xlink:href="#bds-ubehagskurver_svg__i" width="100%" height="100%" overflow="visible" style="overflow:visible"/></clipPath><path stroke-miterlimit="10" d="M-157.942 179.965H769.68m-927.622 0v-320.671m0 320.671h-10.55" clip-path="url(#bds-ubehagskurver_svg__j)" style="fill:none;stroke:#000;stroke-width:1.73440003;stroke-linejoin:round;stroke-miterlimit:10"/><path d="M-176.368 181.844c0 1.514-.162 2.824-.489 3.938-.325 1.11-.771 2.03-1.337 2.757-.565.729-1.233 1.271-2.006 1.622a5.895 5.895 0 0 1-2.478.533 5.786 5.786 0 0 1-2.472-.533c-.76-.352-1.424-.894-1.99-1.622-.565-.727-1.008-1.646-1.33-2.757-.322-1.112-.484-2.425-.484-3.938 0-1.523.16-2.84.484-3.955.322-1.114.765-2.036 1.33-2.765.566-.729 1.23-1.271 1.99-1.622a5.786 5.786 0 0 1 2.472-.533c.878 0 1.703.18 2.478.533.772.352 1.441.894 2.006 1.622.566.729 1.013 1.65 1.337 2.765.326 1.115.489 2.432.489 3.955zm-2.236 0c0-1.326-.113-2.44-.336-3.34-.225-.898-.521-1.622-.896-2.173-.375-.549-.808-.941-1.302-1.184a3.458 3.458 0 0 0-1.543-.359 3.45 3.45 0 0 0-1.533.359c-.491.242-.924.637-1.293 1.184-.37.549-.667 1.274-.892 2.173-.224.899-.334 2.012-.334 3.34 0 1.316.111 2.429.334 3.328.225.898.521 1.622.892 2.173.372.549.802.939 1.293 1.177a3.51 3.51 0 0 0 1.533.353c.537 0 1.052-.116 1.543-.353.493-.237.927-.63 1.302-1.177.375-.551.674-1.274.896-2.173.223-.899.336-2.012.336-3.328z"/><path d="M-157.942 19.629h-10.55" style="fill:none;stroke:#000;stroke-width:1.73440003;stroke-linejoin:round;stroke-miterlimit:10"/><path d="M-191.908 13.948c0 .308-.097.563-.287.757-.192.195-.519.294-.982.294h-5.444l-.804 4.554a11.895 11.895 0 0 1 2.502-.292c.912 0 1.712.134 2.398.401.688.27 1.267.639 1.733 1.105a4.605 4.605 0 0 1 1.061 1.661c.239.641.361 1.332.361 2.082 0 .918-.162 1.749-.489 2.49a5.83 5.83 0 0 1-1.323 1.904 5.752 5.752 0 0 1-1.979 1.223 6.954 6.954 0 0 1-2.458.426 6.743 6.743 0 0 1-1.471-.153 7.41 7.41 0 0 1-1.306-.408 7.762 7.762 0 0 1-1.124-.581 6.252 6.252 0 0 1-.922-.689l.66-.915c.146-.211.339-.317.574-.317.155 0 .336.06.542.187.208.127.456.264.746.416.289.151.628.287 1.019.413.389.127.858.188 1.402.188.602 0 1.147-.099 1.629-.292a3.6 3.6 0 0 0 1.246-.831c.345-.357.609-.79.792-1.288.185-.5.276-1.061.276-1.68 0-.545-.078-1.035-.232-1.469a2.805 2.805 0 0 0-.714-1.11 3.313 3.313 0 0 0-1.197-.714c-.475-.171-1.029-.257-1.665-.257-.439 0-.894.037-1.36.111-.468.074-.95.191-1.446.354l-1.355-.403 1.402-8.117h8.217v.954h-.002zm15.51 7.738c0 1.515-.162 2.826-.487 3.94-.327 1.11-.771 2.03-1.337 2.757-.566.727-1.235 1.269-2.009 1.623a5.874 5.874 0 0 1-2.478.531 5.8 5.8 0 0 1-2.472-.531c-.76-.353-1.425-.896-1.988-1.623-.565-.727-1.01-1.647-1.331-2.757-.32-1.112-.482-2.425-.482-3.94 0-1.522.16-2.838.482-3.954.32-1.116.766-2.036 1.331-2.766.565-.729 1.228-1.271 1.988-1.624a5.786 5.786 0 0 1 2.472-.532c.88 0 1.705.178 2.478.532.774.354 1.443.896 2.009 1.624.566.728 1.01 1.65 1.337 2.766.325 1.116.487 2.434.487 3.954zm-2.231 0c0-1.325-.113-2.439-.338-3.34-.224-.899-.523-1.622-.897-2.171-.375-.549-.808-.945-1.3-1.185a3.46 3.46 0 0 0-3.078 0c-.493.239-.922.635-1.293 1.185-.371.549-.668 1.274-.892 2.171-.225.901-.337 2.013-.337 3.34 0 1.318.112 2.43.337 3.329.224.899.521 1.621.892 2.173.372.549.801.939 1.293 1.175a3.501 3.501 0 0 0 1.533.354c.537 0 1.05-.118 1.545-.354.493-.236.925-.628 1.3-1.175.375-.553.674-1.274.897-2.173.226-.899.338-2.009.338-3.329z"/><path d="M-157.942-140.706h-10.55" style="fill:none;stroke:#000;stroke-width:1.73440003;stroke-linejoin:round;stroke-miterlimit:10"/><path d="M-214.334-131.448h3.724v-11.83c0-.359.012-.714.037-1.073l-3.1 2.648a.845.845 0 0 1-.238.141.694.694 0 0 1-.556-.037.581.581 0 0 1-.22-.188l-.683-.929 5.164-4.48h1.758v15.748h3.419v1.649h-9.305zm23.876-7.02c0 1.513-.162 2.826-.488 3.938-.327 1.11-.772 2.03-1.337 2.757-.567.729-1.237 1.271-2.01 1.624a5.858 5.858 0 0 1-2.477.532 5.764 5.764 0 0 1-2.473-.532c-.76-.354-1.425-.896-1.988-1.624-.564-.727-1.01-1.648-1.33-2.757-.32-1.11-.484-2.425-.484-3.938 0-1.522.162-2.842.484-3.956.322-1.112.766-2.036 1.33-2.765.565-.728 1.229-1.269 1.988-1.624a5.785 5.785 0 0 1 2.473-.529c.879 0 1.705.176 2.477.529.772.355 1.443.896 2.01 1.624.564.727 1.01 1.651 1.337 2.765.326 1.116.488 2.434.488 3.956zm-2.235 0c0-1.327-.111-2.439-.336-3.338-.224-.899-.523-1.625-.897-2.173-.375-.551-.808-.945-1.3-1.184a3.509 3.509 0 0 0-1.545-.361c-.53 0-1.04.12-1.533.361-.493.239-.924.635-1.295 1.184-.371.547-.668 1.274-.892 2.173-.225.899-.336 2.011-.336 3.338 0 1.318.111 2.426.336 3.325.224.899.521 1.625.892 2.173.371.551.802.943 1.295 1.179a3.502 3.502 0 0 0 3.078 0c.491-.236.925-.628 1.3-1.179.375-.549.674-1.274.897-2.173.225-.899.336-2.006.336-3.325zm16.271 0c0 1.513-.162 2.826-.488 3.938-.327 1.11-.772 2.03-1.337 2.757-.567.729-1.235 1.271-2.008 1.624-.772.355-1.6.532-2.478.532a5.756 5.756 0 0 1-2.472-.532c-.76-.354-1.425-.896-1.988-1.624-.565-.727-1.01-1.648-1.33-2.757-.322-1.11-.484-2.425-.484-3.938 0-1.522.162-2.842.484-3.956.32-1.114.764-2.036 1.33-2.765.565-.728 1.228-1.269 1.988-1.624a5.777 5.777 0 0 1 2.472-.529c.88 0 1.705.176 2.478.529.772.355 1.441.896 2.008 1.624.564.727 1.012 1.651 1.337 2.765.324 1.116.488 2.434.488 3.956zm-2.235 0c0-1.327-.113-2.439-.336-3.338-.224-.899-.523-1.625-.897-2.173-.375-.551-.808-.945-1.302-1.184a3.487 3.487 0 0 0-1.543-.361c-.528 0-1.04.12-1.531.361-.493.241-.926.635-1.295 1.184-.369.547-.667 1.274-.892 2.173-.223.899-.334 2.011-.334 3.338 0 1.318.111 2.426.334 3.325.226.899.521 1.625.892 2.173.372.551.803.943 1.295 1.179a3.5 3.5 0 0 0 3.074 0c.493-.236.927-.628 1.302-1.179.375-.549.674-1.274.897-2.173.223-.899.336-2.006.336-3.325z"/><path d="M105.869-39.531c.734 0 1.418.107 2.059.322a4.717 4.717 0 0 1 1.654.946 4.44 4.44 0 0 1 1.098 1.521c.269.598.405 1.275.405 2.032 0 .651-.099 1.251-.294 1.8a7.332 7.332 0 0 1-.788 1.58c-.329.505-.711.993-1.142 1.466-.431.472-.89.95-1.378 1.439l-4.566 4.675c.324-.09.651-.16.982-.215.327-.053.649-.079.957-.079h5.81c.236 0 .424.069.563.208a.731.731 0 0 1 .206.537v1.308H99.852v-.746c0-.146.03-.301.091-.464.062-.162.16-.313.299-.451l5.555-5.578c.463-.472.885-.924 1.264-1.355.378-.433.702-.864.971-1.3a6.3 6.3 0 0 0 .623-1.325 4.61 4.61 0 0 0 .22-1.439c0-.505-.079-.948-.238-1.33-.158-.382-.38-.7-.665-.95a2.824 2.824 0 0 0-.994-.568 3.862 3.862 0 0 0-1.227-.187c-.431 0-.835.063-1.208.194-.375.13-.704.31-.989.542-.285.23-.526.505-.725.818a3.105 3.105 0 0 0-.422 1.045c-.058.227-.149.394-.282.501-.128.105-.301.158-.512.158a1.611 1.611 0 0 1-.278-.023l-1.124-.195c.112-.788.331-1.49.651-2.099a4.978 4.978 0 0 1 1.228-1.533 5.198 5.198 0 0 1 1.708-.934 6.426 6.426 0 0 1 2.071-.321zm7.822 16.211a1.554 1.554 0 0 1 .432-1.082c.136-.134.296-.243.484-.324.187-.081.384-.122.584-.122a1.53 1.53 0 0 1 1.082.446 1.532 1.532 0 0 1 .433 1.082 1.48 1.48 0 0 1-.433 1.073 1.426 1.426 0 0 1-.482.326 1.578 1.578 0 0 1-1.184 0 1.455 1.455 0 0 1-.484-.326 1.603 1.603 0 0 1-.316-.475 1.48 1.48 0 0 1-.116-.598z" style="fill:#3e578a"/><path d="M79.537 30a6.36 6.36 0 0 1 2.031.313 4.637 4.637 0 0 1 1.606.89c.447.387.797.855 1.05 1.404.251.549.378 1.161.378 1.837a4.65 4.65 0 0 1-.215 1.466 3.654 3.654 0 0 1-.609 1.142 3.63 3.63 0 0 1-.954.831 5.38 5.38 0 0 1-1.239.544c1.131.301 1.979.8 2.546 1.501.564.7.848 1.578.848 2.637 0 .795-.149 1.517-.45 2.154a4.81 4.81 0 0 1-1.241 1.629 5.624 5.624 0 0 1-1.837 1.031 6.85 6.85 0 0 1-2.247.359c-.919 0-1.707-.114-2.363-.347-.655-.232-1.209-.551-1.659-.952a4.969 4.969 0 0 1-1.11-1.434 10.83 10.83 0 0 1-.739-1.795l.927-.391c.162-.074.329-.111.501-.111.162 0 .306.035.433.105a.66.66 0 0 1 .285.322c.018.035.033.068.049.104.016.039.031.076.049.116.113.236.25.501.408.793.159.294.377.567.653.824s.618.475 1.024.651c.408.183.913.269 1.515.269.611 0 1.144-.098 1.6-.299a3.485 3.485 0 0 0 1.135-.769c.301-.315.53-.664.685-1.05.153-.387.23-.772.23-1.154 0-.465-.063-.891-.188-1.281a2.236 2.236 0 0 0-.676-1.008c-.327-.28-.778-.501-1.355-.665-.579-.162-1.32-.245-2.222-.245V37.86c.733-.007 1.358-.086 1.879-.237.521-.149.947-.361 1.276-.63a2.4 2.4 0 0 0 .722-.959c.149-.368.225-.783.225-1.239 0-.496-.078-.929-.239-1.3a2.605 2.605 0 0 0-.646-.924 2.701 2.701 0 0 0-.971-.549 3.918 3.918 0 0 0-1.219-.183c-.431 0-.834.063-1.209.193-.375.13-.706.312-.991.544a3.31 3.31 0 0 0-.718.823 3.89 3.89 0 0 0-.44 1.038c-.065.229-.16.395-.287.5a.753.753 0 0 1-.495.16c-.041 0-.084-.004-.128-.007a1.765 1.765 0 0 1-.153-.019l-1.123-.195c.113-.789.331-1.489.653-2.099a4.92 4.92 0 0 1 1.227-1.531 5.204 5.204 0 0 1 1.71-.936 6.588 6.588 0 0 1 2.078-.31Zm7.593 16.211a1.54 1.54 0 0 1 .431-1.079c.134-.135.296-.245.482-.326.187-.083.383-.121.584-.121.213 0 .414.039.6.121.188.081.349.188.484.326.134.132.239.294.317.482.077.188.116.387.116.597a1.504 1.504 0 0 1-.433 1.075 1.42 1.42 0 0 1-.484.326 1.56 1.56 0 0 1-.6.114c-.201 0-.397-.037-.584-.114a1.403 1.403 0 0 1-.482-.326 1.483 1.483 0 0 1-.431-1.075z" style="fill:teal"/><path d="M68.906 99.092h2.625v1.235c0 .13-.041.24-.118.329-.076.09-.195.134-.359.134h-2.146v4.566h-1.906v-4.566h-7.689a.627.627 0 0 1-.415-.141.619.619 0 0 1-.218-.345l-.22-1.098 8.434-11.207h2.015v11.092h-.003ZM67 91.941c0-.213.005-.438.02-.679.012-.239.039-.487.079-.75l-6.31 8.582H67Zm6.067 12.083c0-.209.039-.41.116-.597a1.47 1.47 0 0 1 .797-.807c.188-.082.383-.121.586-.121.213 0 .414.039.6.121a1.463 1.463 0 0 1 .8.807c.078.188.115.388.115.597 0 .222-.037.421-.115.6a1.634 1.634 0 0 1-.316.476 1.423 1.423 0 0 1-.484.325 1.54 1.54 0 0 1-.6.114 1.51 1.51 0 0 1-.586-.114 1.401 1.401 0 0 1-.48-.325 1.504 1.504 0 0 1-.433-1.076z" style="fill:purple"/><path d="M714.859 134.091v1.978h-5.6v15.381h-2.354v-15.381h-5.633v-1.978zm4.515 5.087v12.271h-2.146v-12.271zm.487-3.843c0 .204-.038.397-.125.581a1.842 1.842 0 0 1-.343.487 1.571 1.571 0 0 1-.485.338 1.46 1.46 0 0 1-.595.123c-.21 0-.405-.041-.584-.123a1.564 1.564 0 0 1-.486-.338 1.802 1.802 0 0 1-.338-.487 1.605 1.605 0 0 1 0-1.185c.088-.19.195-.357.338-.492.141-.14.305-.25.486-.333.181-.081.374-.119.584-.119a1.474 1.474 0 0 1 1.08.452c.139.135.259.302.343.492.085.192.125.391.125.604zm11.944 16.114c-.305 0-.5-.151-.57-.452l-.193-1.488a6.574 6.574 0 0 1-1.804 1.537c-.681.384-1.455.574-2.32.574a4.436 4.436 0 0 1-1.917-.408 3.99 3.99 0 0 1-1.46-1.196c-.408-.526-.72-1.18-.939-1.961-.22-.782-.327-1.682-.327-2.697 0-.904.125-1.747.365-2.526a6.171 6.171 0 0 1 1.048-2.027 4.995 4.995 0 0 1 1.671-1.348c.649-.331 1.392-.494 2.228-.494.75 0 1.389.126 1.92.385a4.76 4.76 0 0 1 1.431 1.068v-6.799h2.148v17.835h-1.279v-.003zm-4.171-1.575c.704 0 1.313-.161 1.842-.483.532-.322 1.014-.779 1.463-1.374v-5.932c-.399-.53-.829-.901-1.306-1.117a3.683 3.683 0 0 0-1.563-.324c-1.149 0-2.023.41-2.642 1.227-.615.818-.92 1.983-.92 3.487 0 .796.068 1.479.2 2.052.141.568.344 1.036.609 1.404.266.364.586.634.977.803.387.171.833.257 1.34.257z"/><g aria-label="Ubehag" style="font-style:normal;font-variant:normal;font-weight:400;font-stretch:normal;font-size:17.33333397px;line-height:1.25;font-family:Questrial;-inkscape-font-specification:Questrial;letter-spacing:0;word-spacing:0;fill:#000;fill-opacity:1;stroke:none"><path d="M-129.855-146.765v9.148q0 3.203-1.917 5.17-1.893 1.94-4.926 1.94-3.01 0-4.926-1.94-1.893-1.967-1.893-5.17v-9.148h1.82v9.197q0 2.596 1.553 4.052 1.335 1.238 3.446 1.238t3.47-1.238q1.553-1.431 1.553-4.052v-9.197zM-124.9-140.868q1.48-2.16 4.344-2.16 2.62 0 4.247 1.82 1.625 1.796 1.625 4.44 0 2.646-1.625 4.441-1.626 1.82-4.393 1.82-2.742 0-4.198-2.135v1.941h-1.82v-16.986h1.82zm4.101 8.711q1.942 0 3.155-1.359 1.14-1.286 1.14-3.251 0-1.966-1.14-3.252-1.213-1.359-3.155-1.359-1.965 0-3.106 1.359-1.092 1.286-1.092 3.252 0 1.965 1.092 3.251 1.14 1.36 3.106 1.36zM-106.876-132.157q2.45 0 3.518-2.038h1.99q-.63 1.65-2.014 2.67-1.359 1.018-3.519 1.018-2.742 0-4.465-1.82-1.674-1.771-1.674-4.44 0-2.694 1.602-4.441 1.698-1.82 4.416-1.82 2.718 0 4.417 1.82 1.601 1.747 1.601 4.44v.729h-10.168q.195 1.674 1.335 2.766 1.165 1.116 2.96 1.116zm-.146-9.221q-1.674 0-2.815 1.043-1.068.995-1.31 2.597h8.25q-.242-1.602-1.31-2.597-1.14-1.043-2.815-1.043zM-96.96-147.687v6.746q.655-.874 1.602-1.48.946-.607 2.16-.607 1.213 0 2.086.34.874.34 1.529 1.019 1.505 1.48 1.505 3.907v7.061h-1.82v-7.013q0-1.674-.947-2.67-.946-.994-2.45-.994-1.53 0-2.597 1.02-1.068 1.043-1.068 2.669v6.988h-1.82v-16.986zM-75.571-132.642q-1.456 2.135-4.344 2.135-2.62 0-4.27-1.82-1.602-1.795-1.602-4.44 0-2.645 1.601-4.441 1.65-1.82 4.392-1.82 2.743 0 4.223 2.16v-1.966h1.82v12.133h-1.82zm-4.101.485q1.965 0 3.106-1.359 1.092-1.286 1.092-3.251 0-1.966-1.092-3.252-1.14-1.359-3.106-1.359-1.942 0-3.155 1.359-1.14 1.286-1.14 3.252 0 1.965 1.14 3.251 1.213 1.36 3.155 1.36zM-61.115-140.893v-1.941h1.82v11.77q0 2.62-1.505 3.979-1.48 1.383-4.004 1.383-2.524 0-3.955-.97-1.408-.971-1.918-2.573h2.015q.776 1.893 3.543 1.893 2.11 0 3.057-.97.947-.971.947-2.864v-1.674q-1.48 2.16-4.344 2.16-2.621 0-4.271-1.796-1.602-1.748-1.602-4.368 0-2.621 1.602-4.368 1.65-1.796 4.392-1.796 2.767 0 4.223 2.135zm-4.102 8.542q.995 0 1.772-.34.776-.364 1.335-.97 1.092-1.262 1.092-3.203 0-1.942-1.092-3.204-1.19-1.31-3.107-1.31-1.965 0-3.154 1.31-1.14 1.286-1.14 3.204 0 1.917 1.14 3.203 1.189 1.31 3.154 1.31z" style="font-size:24.26666641px"/></g><g aria-label="1. gang" style="font-style:normal;font-variant:normal;font-weight:400;font-stretch:normal;font-size:17.33333397px;line-height:1.25;font-family:Questrial;-inkscape-font-specification:Questrial;letter-spacing:0;word-spacing:0;fill:#000;fill-opacity:1;stroke:none"><path d="M353.108 61.734h3.724V49.88q0-.51.037-1.08l-3.094 2.657q-.158.134-.316.17-.157.024-.29 0-.134-.024-.256-.097-.109-.073-.17-.158l-.679-.934 5.181-4.477h1.76v15.773h3.42v1.65h-9.317zM365.498 62.05q0-.316.109-.595.121-.279.315-.485.207-.206.486-.328.279-.121.594-.121.316 0 .595.121.279.122.485.328.206.206.328.485.12.28.12.595 0 .327-.12.606-.122.267-.328.474-.206.206-.485.315-.28.121-.595.121-.315 0-.594-.12-.28-.11-.486-.316-.194-.207-.315-.474-.11-.279-.11-.606zM382.088 50.887q.801 0 1.493.182.691.17 1.262.51h3.336v.8q0 .4-.51.51l-1.395.194q.413.789.413 1.76 0 .897-.352 1.638-.34.728-.946 1.25-.607.521-1.456.8-.85.28-1.845.28-.873 0-1.638-.207-.388.243-.594.522-.194.279-.194.546 0 .436.352.667.364.218.946.315t1.323.122q.752.024 1.528.085.789.048 1.53.182.751.133 1.334.436.582.304.934.838.364.534.364 1.383 0 .789-.4 1.529-.389.74-1.129 1.31-.74.582-1.82.922-1.067.352-2.414.352-1.347 0-2.354-.267-1.007-.267-1.675-.716-.667-.449-1.007-1.043-.327-.583-.327-1.226 0-.91.57-1.54.57-.632 1.553-1.008-.546-.242-.861-.643-.316-.412-.316-1.104 0-.267.097-.546.097-.291.292-.57.206-.28.497-.534.291-.255.68-.449-.91-.51-1.42-1.359-.51-.85-.51-1.965 0-.898.34-1.626.352-.74.97-1.25.62-.522 1.469-.8.861-.28 1.88-.28zm3.895 13.165q0-.45-.255-.728-.254-.28-.691-.437-.425-.158-.995-.218-.57-.073-1.213-.11l-1.287-.072q-.655-.037-1.261-.122-.68.316-1.117.789-.424.473-.424 1.128 0 .413.206.765.218.364.655.618.437.267 1.092.413.667.158 1.565.158.874 0 1.565-.158.692-.158 1.165-.449.486-.291.74-.692.255-.4.255-.885zm-3.895-6.674q.656 0 1.153-.182.498-.182.837-.51.34-.327.51-.776.17-.46.17-1.007 0-1.128-.692-1.796-.68-.667-1.978-.667-1.31 0-2.002.667-.68.668-.68 1.796 0 .546.17 1.007.183.45.523.777t.837.51q.497.181 1.152.181zM398.226 63.384q-.315 0-.485-.097-.17-.109-.267-.412l-.242-1.153q-.486.437-.959.789-.461.34-.97.582-.498.23-1.08.352-.57.134-1.275.134-.715 0-1.346-.195-.631-.206-1.104-.606-.462-.4-.74-1.007-.268-.62-.268-1.456 0-.728.4-1.396.401-.68 1.3-1.2.897-.523 2.34-.85 1.445-.34 3.544-.388v-.959q0-1.432-.619-2.16-.619-.74-1.808-.74-.8 0-1.347.206-.534.195-.934.45-.388.242-.68.448-.278.194-.558.194-.218 0-.376-.109-.157-.121-.267-.291l-.388-.692q1.02-.982 2.196-1.468 1.177-.485 2.609-.485 1.031 0 1.832.34.8.34 1.347.946.546.607.825 1.468.279.862.279 1.893v7.862zm-4.634-1.322q.57 0 1.043-.11.473-.12.886-.327.424-.218.8-.522.389-.315.753-.703v-2.548q-1.493.048-2.548.242-1.044.182-1.711.486-.655.303-.959.715-.29.413-.29.923 0 .485.157.837.158.352.425.582.279.219.643.328.376.097.8.097zM402.451 63.384v-12.29h1.298q.461 0 .57.448l.17 1.335q.801-.886 1.796-1.432.995-.546 2.294-.546 1.007 0 1.771.34.777.328 1.286.946.522.607.789 1.468.267.862.267 1.905v7.826h-2.172v-7.826q0-1.395-.643-2.16-.631-.776-1.93-.776-.97 0-1.807.461-.825.461-1.517 1.25v9.051zM420.29 50.887q.8 0 1.492.182.691.17 1.262.51h3.336v.8q0 .4-.51.51l-1.395.194q.413.789.413 1.76 0 .897-.352 1.638-.34.728-.946 1.25-.607.521-1.456.8-.85.28-1.845.28-.873 0-1.638-.207-.388.243-.594.522-.194.279-.194.546 0 .436.352.667.364.218.946.315t1.323.122q.752.024 1.528.085.789.048 1.53.182.751.133 1.334.436.582.304.934.838.364.534.364 1.383 0 .789-.4 1.529-.389.74-1.129 1.31-.74.582-1.82.922-1.067.352-2.414.352-1.347 0-2.354-.267-1.007-.267-1.674-.716-.668-.449-1.008-1.043-.327-.583-.327-1.226 0-.91.57-1.54.57-.632 1.553-1.008-.546-.242-.861-.643-.316-.412-.316-1.104 0-.267.097-.546.097-.291.292-.57.206-.28.497-.534.291-.255.68-.449-.91-.51-1.42-1.359-.51-.85-.51-1.965 0-.898.34-1.626.352-.74.97-1.25.62-.522 1.469-.8.861-.28 1.88-.28zm3.894 13.165q0-.45-.255-.728-.254-.28-.691-.437-.425-.158-.995-.218-.57-.073-1.213-.11l-1.287-.072q-.655-.037-1.261-.122-.68.316-1.117.789-.424.473-.424 1.128 0 .413.206.765.218.364.655.618.437.267 1.092.413.667.158 1.565.158.874 0 1.565-.158.692-.158 1.165-.449.486-.291.74-.692.255-.4.255-.885zm-3.895-6.674q.656 0 1.153-.182.498-.182.837-.51.34-.327.51-.776.17-.46.17-1.007 0-1.128-.692-1.796-.68-.667-1.978-.667-1.31 0-2.002.667-.679.668-.679 1.796 0 .546.17 1.007.182.45.522.777t.837.51q.497.181 1.152.181z" style="font-style:normal;font-variant:normal;font-weight:400;font-stretch:normal;font-size:24.26666641px;font-family:Lato;-inkscape-font-specification:Lato;fill:#f90;fill-opacity:1" transform="translate(-214.002 -153.019)"/></g></svg>