<?xml version="1.0" encoding="UTF-8" standalone="no"?>
<!-- Generator: Adobe Illustrator 16.0.3, SVG Export Plug-In . SVG Version: 6.00 Build 0)  -->

<svg
   xmlns:dc="http://purl.org/dc/elements/1.1/"
   xmlns:cc="http://creativecommons.org/ns#"
   xmlns:rdf="http://www.w3.org/1999/02/22-rdf-syntax-ns#"
   xmlns:svg="http://www.w3.org/2000/svg"
   xmlns="http://www.w3.org/2000/svg"
   xmlns:xlink="http://www.w3.org/1999/xlink"
   xmlns:sodipodi="http://sodipodi.sourceforge.net/DTD/sodipodi-0.dtd"
   xmlns:inkscape="http://www.inkscape.org/namespaces/inkscape"
   version="1.1"
   id="Layer_1"
   x="0px"
   y="0px"
   width="1000px"
   height="360.156px"
   viewBox="-222.5 -160.269 1000 360.156"
   enable-background="new -222.5 -160.269 1000 360.156"
   xml:space="preserve"
   sodipodi:docname="bds-ubehagskurver.svg"
   inkscape:version="0.92.3 (2405546, 2018-03-11)"><metadata
   id="metadata2003"><rdf:RDF><cc:Work
       rdf:about=""><dc:format>image/svg+xml</dc:format><dc:type
         rdf:resource="http://purl.org/dc/dcmitype/StillImage" /><dc:title></dc:title></cc:Work></rdf:RDF></metadata><defs
   id="defs2001" /><sodipodi:namedview
   pagecolor="#ffffff"
   bordercolor="#666666"
   borderopacity="1"
   objecttolerance="10"
   gridtolerance="10"
   guidetolerance="10"
   inkscape:pageopacity="0"
   inkscape:pageshadow="2"
   inkscape:window-width="1920"
   inkscape:window-height="950"
   id="namedview1999"
   showgrid="false"
   inkscape:zoom="0.94328045"
   inkscape:cx="524.28972"
   inkscape:cy="403.0525"
   inkscape:window-x="0"
   inkscape:window-y="27"
   inkscape:window-maximized="1"
   inkscape:current-layer="g1996" />
<g
   id="g1996">
	<path
   style="fill:#ffffff"
   d="m 777.5,199.887 h -1000 v -360.156 h 1000 z"
   id="polygon1918"
   inkscape:connector-curvature="0" />
	<g
   id="g1960">
		<g
   id="g1928">
			<defs
   id="defs1921">
				<rect
   id="SVGID_1_"
   x="-161.067"
   y="-144.61301"
   width="934.65503"
   height="327.703" />
			</defs>
			<clipPath
   id="SVGID_2_">
				<use
   xlink:href="#SVGID_1_"
   overflow="visible"
   id="use1923"
   style="overflow:visible"
   x="0"
   y="0"
   width="100%"
   height="100%" />
			</clipPath>
			
				<path
   style="fill:none;stroke:#3e578a;stroke-width:1.73440003;stroke-linejoin:round;stroke-miterlimit:10"
   clip-path="url(#SVGID_2_)"
   d="m -157.942,179.965 4.876,-0.033 4.246,-0.173 4.77,-0.478 4.804,-0.883 4.781,-1.35 4.434,-1.713 4.589,-2.257 4.745,-2.863 4.732,-3.378 4.869,-4.005 4.286,-3.941 4.826,-4.878 4.846,-5.319 4.669,-5.483 4.242,-5.245 5.043,-6.521 4.27,-5.717 4.969,-6.834 4.401,-6.167 4.825,-6.852 9.389,-13.417 4.404,-6.259 4.747,-6.681 4.934,-6.829 4.295,-5.822 4.638,-6.139 4.79,-6.154 4.687,-5.806 4.536,-5.407 5.035,-5.737 4.527,-4.902 4.83,-4.956 4.378,-4.232 4.786,-4.343 4.503,-3.809 4.709,-3.686 4.601,-3.312 4.819,-3.157 4.64,-2.741 4.746,-2.506 4.707,-2.181 4.323,-1.751 4.956,-1.705 4.435,-1.262 4.724,-1.077 4.526,-0.778 5.023,-0.584 4.35,-0.275 4.936,-0.063 4.499,0.169 4.923,0.412 4.246,0.542 4.837,0.822 4.671,0.985 4.669,1.165 4.652,1.33 4.469,1.427 4.831,1.694 4.603,1.758 4.847,1.987 4.385,1.911 4.848,2.228 4.645,2.237 4.633,2.327 4.837,2.521 4.455,2.393 4.564,2.522 5.04,2.852 4.56,2.637 4.667,2.744 4.744,2.831 4.362,2.639 4.65,2.835 4.614,2.84 4.937,3.056 4.355,2.706 14.047,8.754 4.825,2.999 4.842,3 4.41,2.718 4.682,2.869 4.566,2.776 4.951,2.986 4.285,2.56 4.921,2.909 4.628,2.704 4.582,2.647 4.584,2.609 4.677,2.629 4.956,2.745 4.546,2.476 4.484,2.403 4.797,2.529 4.786,2.475 4.295,2.182 5.089,2.536 4.258,2.079 4.978,2.387 4.756,2.226 4.24,1.946 4.775,2.142 4.803,2.109 4.781,2.046 4.432,1.858 4.591,1.878 4.747,1.891 4.732,1.842 4.867,1.844 4.286,1.582 4.826,1.737 4.845,1.695 4.671,1.59 4.239,1.406 5.043,1.628 4.27,1.339 4.971,1.512 4.399,1.303 4.825,1.387 4.594,1.282 4.794,1.297 4.405,1.154 4.748,1.212 4.935,1.218 4.291,1.026 4.642,1.077 4.792,1.077 4.685,1.018 4.537,0.954 5.036,1.028 4.525,0.89 4.828,0.92 4.382,0.808 4.782,0.85 4.505,0.778 4.706,0.785 4.604,0.74 4.819,0.748 4.639,0.696 4.747,0.685 4.705,0.658 4.325,0.584 4.956,0.645 4.435,0.557 4.725,0.571 4.523,0.531 5.023,0.564 4.352,0.47 4.937,0.516 4.499,0.454 4.92,0.478 4.249,0.398 4.83,0.434 4.672,0.406 4.675,0.388 4.647,0.373 4.468,0.347 4.828,0.359 4.612,0.331 4.84,0.331 4.385,0.29 4.852,0.31 4.639,0.283 4.635,0.275 4.834,0.272 4.462,0.241 4.561,0.24 5.042,0.25 4.56,0.221 4.664,0.215 4.751,0.211 4.361,0.183 4.648,0.193 4.616,0.18 4.93,0.188 4.36,0.157 5.024,0.175 4.529,0.151 4.492,0.143 4.82,0.149 4.845,0.142 4.415,0.123 4.679,0.125 4.571,0.121 4.945,0.122 4.29,0.104 4.92,0.11 4.626,0.103 4.578,0.097 4.586,0.089 4.678,0.09 4.953,0.093 4.548,0.081 4.486,0.075 4.795,0.078 4.79,0.074 4.507,0.067"
   id="polyline1926"
   inkscape:connector-curvature="0" />
		</g>
		<g
   id="g1938">
			<defs
   id="defs1931">
				<rect
   id="SVGID_3_"
   x="-161.067"
   y="-144.61301"
   width="934.65503"
   height="327.703" />
			</defs>
			<clipPath
   id="SVGID_4_">
				<use
   xlink:href="#SVGID_3_"
   overflow="visible"
   id="use1933"
   style="overflow:visible"
   x="0"
   y="0"
   width="100%"
   height="100%" />
			</clipPath>
			
				<path
   style="fill:none;stroke:#00786a;stroke-width:1.73440003;stroke-linejoin:round;stroke-miterlimit:10"
   clip-path="url(#SVGID_4_)"
   d="m -157.942,179.965 4.876,-0.022 4.246,-0.11 4.77,-0.304 4.804,-0.563 4.781,-0.857 4.434,-1.091 4.589,-1.438 4.745,-1.819 4.732,-2.152 4.869,-2.548 4.286,-2.507 4.826,-3.105 4.846,-3.384 4.669,-3.489 4.242,-3.338 5.043,-4.15 4.27,-3.637 4.969,-4.349 4.401,-3.924 4.825,-4.36 9.389,-8.539 4.404,-3.983 4.747,-4.253 4.934,-4.345 4.295,-3.705 4.638,-3.906 4.79,-3.915 4.687,-3.697 4.536,-3.44 5.035,-3.651 4.527,-3.118 4.83,-3.155 4.378,-2.694 4.786,-2.762 4.503,-2.423 4.709,-2.349 4.601,-2.106 4.819,-2.012 4.64,-1.743 4.746,-1.593 4.707,-1.388 4.323,-1.114 4.956,-1.087 4.435,-0.801 4.724,-0.686 4.526,-0.494 5.023,-0.372 4.35,-0.174 4.936,-0.04 4.499,0.103 4.923,0.266 4.246,0.345 4.837,0.521 4.671,0.629 4.669,0.74 4.652,0.846 4.469,0.908 4.831,1.077 4.603,1.119 4.847,1.265 4.385,1.216 4.848,1.416 4.645,1.426 4.633,1.481 4.837,1.603 4.455,1.526 4.564,1.605 5.04,1.813 4.56,1.679 4.667,1.746 4.744,1.803 4.362,1.677 4.65,1.807 4.614,1.804 4.937,1.946 4.355,1.723 14.047,5.568 4.825,1.911 4.842,1.909 4.41,1.729 4.682,1.822 4.566,1.771 4.951,1.898 4.285,1.631 4.921,1.851 4.628,1.721 4.582,1.683 4.584,1.662 4.677,1.672 4.956,1.745 4.546,1.577 4.484,1.529 4.797,1.608 4.786,1.575 4.295,1.39 5.089,1.612 4.258,1.326 4.978,1.516 4.756,1.418 4.24,1.239 4.775,1.365 4.803,1.341 4.781,1.304 4.432,1.18 4.591,1.193 4.747,1.206 4.732,1.17 4.867,1.173 4.286,1.006 4.826,1.108 4.845,1.08 4.671,1.012 4.239,0.893 5.043,1.035 4.27,0.854 4.971,0.962 4.399,0.829 4.825,0.882 4.594,0.816 4.794,0.825 4.405,0.734 4.748,0.772 4.935,0.774 4.291,0.655 4.642,0.684 4.792,0.685 4.685,0.647 4.537,0.609 5.036,0.651 4.525,0.569 4.828,0.585 4.382,0.512 4.782,0.544 4.505,0.493 4.706,0.499 4.604,0.472 4.819,0.477 4.639,0.442 4.747,0.436 4.705,0.42 4.325,0.371 4.956,0.409 4.435,0.355 4.725,0.364 4.523,0.336 5.023,0.362 4.352,0.3 4.937,0.326 4.499,0.289 4.92,0.303 4.249,0.254 4.83,0.277 4.672,0.258 4.675,0.249 4.647,0.235 4.468,0.22 4.828,0.229 4.612,0.211 4.84,0.213 4.385,0.183 4.852,0.197 4.639,0.179 4.635,0.176 4.834,0.173 4.462,0.154 4.561,0.152 5.042,0.16 4.56,0.139 4.664,0.139 4.751,0.134 4.361,0.116 4.648,0.123 4.616,0.115 4.93,0.119 4.36,0.098 5.024,0.114 4.529,0.096 4.492,0.088 4.82,0.097 4.845,0.09 4.415,0.081 4.679,0.079 4.571,0.075 4.945,0.078 4.29,0.067 4.92,0.07 4.626,0.065 4.578,0.058 4.586,0.06 4.678,0.058 4.953,0.058 4.548,0.05 4.486,0.05 4.795,0.05 4.79,0.045 4.507,0.044"
   id="polyline1936"
   inkscape:connector-curvature="0" />
		</g>
		<g
   id="g1948">
			<defs
   id="defs1941">
				<rect
   id="SVGID_5_"
   x="-161.067"
   y="-144.61301"
   width="934.65503"
   height="327.703" />
			</defs>
			<clipPath
   id="SVGID_6_">
				<use
   xlink:href="#SVGID_5_"
   overflow="visible"
   id="use1943"
   style="overflow:visible"
   x="0"
   y="0"
   width="100%"
   height="100%" />
			</clipPath>
			
				<path
   style="fill:none;stroke:#780072;stroke-width:1.73440003;stroke-linejoin:round;stroke-miterlimit:10"
   clip-path="url(#SVGID_6_)"
   d="m -157.942,179.965 4.876,-0.014 4.246,-0.061 4.77,-0.177 4.804,-0.318 4.781,-0.492 4.434,-0.622 4.589,-0.822 4.745,-1.041 4.732,-1.226 4.869,-1.455 4.286,-1.437 4.826,-1.771 4.846,-1.934 4.669,-1.995 4.242,-1.908 5.043,-2.37 4.27,-2.08 4.969,-2.485 4.401,-2.243 4.825,-2.491 9.389,-4.88 4.404,-2.277 4.747,-2.428 4.934,-2.483 4.295,-2.117 4.638,-2.232 4.79,-2.239 4.687,-2.111 4.536,-1.966 5.035,-2.085 4.527,-1.786 4.83,-1.8 4.378,-1.539 4.786,-1.579 4.503,-1.386 4.709,-1.339 4.601,-1.203 4.819,-1.151 4.64,-0.994 4.746,-0.912 4.707,-0.795 4.323,-0.636 4.956,-0.619 4.435,-0.461 4.724,-0.39 4.526,-0.284 5.023,-0.211 4.35,-0.102 4.936,-0.02 4.499,0.061 4.923,0.149 4.246,0.198 4.837,0.296 4.671,0.361 4.669,0.423 4.652,0.482 4.469,0.521 4.831,0.614 4.603,0.641 4.847,0.722 4.385,0.695 4.848,0.81 4.645,0.812 4.633,0.849 4.837,0.916 4.455,0.869 4.564,0.919 5.04,1.034 4.56,0.959 4.667,1 4.744,1.03 4.362,0.959 4.65,1.033 4.614,1.03 4.937,1.11 4.355,0.985 14.047,3.184 4.825,1.089 4.842,1.093 4.41,0.987 4.682,1.043 4.566,1.009 4.951,1.087 4.285,0.931 4.921,1.057 4.628,0.983 4.582,0.962 4.584,0.952 4.677,0.955 4.956,0.998 4.546,0.901 4.484,0.874 4.797,0.919 4.786,0.901 4.295,0.792 5.089,0.923 4.258,0.757 4.978,0.864 4.756,0.811 4.24,0.709 4.775,0.779 4.803,0.766 4.781,0.746 4.432,0.674 4.591,0.683 4.747,0.686 4.732,0.672 4.867,0.671 4.286,0.575 4.826,0.632 4.845,0.614 4.671,0.58 4.239,0.511 5.043,0.593 4.27,0.483 4.971,0.553 4.399,0.473 4.825,0.505 4.594,0.466 4.794,0.472 4.405,0.421 4.748,0.439 4.935,0.441 4.291,0.375 4.642,0.391 4.792,0.393 4.685,0.37 4.537,0.347 5.036,0.371 4.525,0.327 4.828,0.334 4.382,0.294 4.782,0.307 4.505,0.285 4.706,0.284 4.604,0.267 4.819,0.275 4.639,0.252 4.747,0.25 4.705,0.239 4.325,0.213 4.956,0.234 4.435,0.202 4.725,0.207 4.523,0.195 5.023,0.205 4.352,0.171 4.937,0.186 4.499,0.167 4.92,0.173 4.249,0.145 4.83,0.158 4.672,0.147 4.675,0.141 4.647,0.138 4.468,0.123 4.828,0.132 4.612,0.12 4.84,0.121 4.385,0.105 4.852,0.112 4.639,0.101 4.635,0.103 4.834,0.098 4.462,0.086 4.561,0.086 5.042,0.095 4.56,0.079 4.664,0.078 4.751,0.077 4.361,0.068 4.648,0.07 4.616,0.062 4.93,0.07 4.36,0.057 5.024,0.064 4.529,0.056 4.492,0.049 4.82,0.057 4.845,0.051 4.415,0.044 4.679,0.048 4.571,0.042 4.945,0.043 4.29,0.04 4.92,0.038 4.626,0.039 4.578,0.033 4.586,0.035 4.678,0.033 4.953,0.034 4.548,0.029 4.486,0.026 4.795,0.029 4.79,0.027 4.507,0.023"
   id="polyline1946"
   inkscape:connector-curvature="0" />
		</g>
		<g
   id="g1958">
			<defs
   id="defs1951">
				<rect
   id="SVGID_7_"
   x="-161.067"
   y="-144.61301"
   width="934.65503"
   height="327.703" />
			</defs>
			<clipPath
   id="SVGID_8_">
				<use
   xlink:href="#SVGID_7_"
   overflow="visible"
   id="use1953"
   style="overflow:visible"
   x="0"
   y="0"
   width="100%"
   height="100%" />
			</clipPath>
			
				<path
   style="fill:none;stroke:#ffa500;stroke-width:1.73440003;stroke-linejoin:round;stroke-miterlimit:10"
   clip-path="url(#SVGID_8_)"
   d="m -157.942,179.965 4.876,-0.049 4.246,-0.26 4.77,-0.716 4.804,-1.327 4.781,-2.026 4.434,-2.565 4.589,-3.387 4.745,-4.294 4.732,-5.069 4.869,-6.004 4.286,-5.915 4.826,-7.315 4.846,-7.978 4.669,-8.228 4.242,-7.869 5.043,-9.775 4.27,-8.578 4.969,-10.252 4.401,-9.252 4.825,-10.277 9.389,-20.126 4.404,-9.387 4.747,-10.021 4.934,-10.244 4.295,-8.733 4.638,-9.208 4.79,-9.229 4.687,-8.713 4.536,-8.11 5.035,-8.603 4.527,-7.353 4.83,-7.433 4.378,-6.352 4.786,-6.514 4.503,-5.711 4.709,-5.529 4.601,-4.969 4.819,-4.736 4.64,-4.113 4.746,-3.755 4.707,-3.276 4.323,-2.623 4.956,-2.559 4.435,-1.891 4.724,-1.616 4.526,-1.166 5.023,-0.876 4.35,-0.412 4.936,-0.095 4.499,0.251 4.923,0.62 4.246,0.816 4.837,1.228 4.671,1.478 4.669,1.747 4.652,1.994 4.469,2.14 4.831,2.544 4.603,2.636 4.847,2.979 4.385,2.866 4.848,3.342 4.645,3.357 4.633,3.491 4.837,3.779 4.455,3.594 4.564,3.779 5.04,4.278 4.56,3.957 4.667,4.117 4.744,4.248 4.362,3.956 4.65,4.256 4.614,4.256 4.937,4.582 4.355,4.063 14.047,13.13 4.825,4.497 4.842,4.501 4.41,4.077 4.682,4.301 4.566,4.167 4.951,4.479 4.285,3.84 4.921,4.363 4.628,4.056 4.582,3.968 4.584,3.919 4.677,3.943 4.956,4.114 4.546,3.714 4.484,3.606 4.797,3.792 4.786,3.714 4.295,3.273 5.089,3.802 4.258,3.122 4.978,3.577 4.756,3.339 4.24,2.921 4.775,3.215 4.803,3.162 4.781,3.072 4.432,2.784 4.591,2.814 4.747,2.839 4.732,2.763 4.867,2.764 4.286,2.375 4.826,2.603 4.845,2.547 4.671,2.385 4.239,2.108 5.043,2.437 4.27,2.009 4.971,2.271 4.399,1.953 4.825,2.081 4.594,1.924 4.794,1.945 4.405,1.735 4.748,1.817 4.935,1.822 4.291,1.543 4.642,1.612 4.792,1.617 4.685,1.528 4.537,1.431 5.036,1.542 4.525,1.335 4.828,1.38 4.382,1.21 4.782,1.28 4.505,1.165 4.706,1.173 4.604,1.113 4.819,1.122 4.639,1.044 4.747,1.031 4.705,0.985 4.325,0.872 4.956,0.968 4.435,0.838 4.725,0.858 4.523,0.79 5.023,0.852 4.352,0.706 4.937,0.775 4.499,0.68 4.92,0.716 4.249,0.595 4.83,0.653 4.672,0.606 4.675,0.586 4.647,0.56 4.468,0.518 4.828,0.54 4.612,0.495 4.84,0.497 4.385,0.436 4.852,0.461 4.639,0.428 4.635,0.406 4.834,0.412 4.462,0.363 4.561,0.359 5.042,0.378 4.56,0.329 4.664,0.322 4.751,0.315 4.361,0.28 4.648,0.287 4.616,0.273 4.93,0.276 4.36,0.239 5.024,0.26 4.529,0.228 4.492,0.214 4.82,0.222 4.845,0.215 4.415,0.185 4.679,0.191 4.571,0.178 4.945,0.184 4.29,0.154 4.92,0.168 4.626,0.152 4.578,0.144 4.586,0.137 4.678,0.134 4.953,0.14 4.548,0.119 4.486,0.112 4.795,0.118 4.79,0.111 4.507,0.102"
   id="polyline1956"
   inkscape:connector-curvature="0" />
		</g>
	</g>
	<g
   id="g1972">
		<g
   id="g1970">
			<defs
   id="defs1963">
				<rect
   id="SVGID_9_"
   x="-218.59399"
   y="-156.36301"
   width="992.18799"
   height="352.34399" />
			</defs>
			<clipPath
   id="SVGID_10_">
				<use
   xlink:href="#SVGID_9_"
   overflow="visible"
   id="use1965"
   style="overflow:visible"
   x="0"
   y="0"
   width="100%"
   height="100%" />
			</clipPath>
			
				<path
   clip-path="url(#SVGID_10_)"
   stroke-miterlimit="10"
   d="M -157.942,179.965 H 769.68 m -927.622,0 v -320.671 m 0,320.671 h -10.55"
   id="path1968"
   inkscape:connector-curvature="0"
   style="fill:none;stroke:#000000;stroke-width:1.73440003;stroke-linejoin:round;stroke-miterlimit:10" />
		</g>
	</g>
	<path
   d="m -176.368,181.844 c 0,1.514 -0.162,2.824 -0.489,3.938 -0.325,1.11 -0.771,2.03 -1.337,2.757 -0.565,0.729 -1.233,1.271 -2.006,1.622 -0.774,0.354 -1.602,0.533 -2.478,0.533 -0.887,0 -1.712,-0.179 -2.472,-0.533 -0.76,-0.352 -1.424,-0.894 -1.99,-1.622 -0.565,-0.727 -1.008,-1.646 -1.33,-2.757 -0.322,-1.112 -0.484,-2.425 -0.484,-3.938 0,-1.523 0.16,-2.84 0.484,-3.955 0.322,-1.114 0.765,-2.036 1.33,-2.765 0.566,-0.729 1.23,-1.271 1.99,-1.622 0.76,-0.354 1.585,-0.533 2.472,-0.533 0.878,0 1.703,0.18 2.478,0.533 0.772,0.352 1.441,0.894 2.006,1.622 0.566,0.729 1.013,1.65 1.337,2.765 0.326,1.115 0.489,2.432 0.489,3.955 z m -2.236,0 c 0,-1.326 -0.113,-2.44 -0.336,-3.34 -0.225,-0.898 -0.521,-1.622 -0.896,-2.173 -0.375,-0.549 -0.808,-0.941 -1.302,-1.184 -0.491,-0.241 -1.006,-0.359 -1.543,-0.359 -0.528,0 -1.04,0.118 -1.533,0.359 -0.491,0.242 -0.924,0.637 -1.293,1.184 -0.37,0.549 -0.667,1.274 -0.892,2.173 -0.224,0.899 -0.334,2.012 -0.334,3.34 0,1.316 0.111,2.429 0.334,3.328 0.225,0.898 0.521,1.622 0.892,2.173 0.372,0.549 0.802,0.939 1.293,1.177 0.493,0.236 1.004,0.353 1.533,0.353 0.537,0 1.052,-0.116 1.543,-0.353 0.493,-0.237 0.927,-0.63 1.302,-1.177 0.375,-0.551 0.674,-1.274 0.896,-2.173 0.223,-0.899 0.336,-2.012 0.336,-3.328 z"
   id="path1974"
   inkscape:connector-curvature="0" />
	
		<path
   style="fill:none;stroke:#000000;stroke-width:1.73440003;stroke-linejoin:round;stroke-miterlimit:10"
   d="m -157.942,19.629 h -10.55"
   id="line1976"
   inkscape:connector-curvature="0" />
	<path
   d="m -191.908,13.948 c 0,0.308 -0.097,0.563 -0.287,0.757 -0.192,0.195 -0.519,0.294 -0.982,0.294 h -5.444 l -0.804,4.554 c 0.902,-0.195 1.736,-0.292 2.502,-0.292 0.912,0 1.712,0.134 2.398,0.401 0.688,0.27 1.267,0.639 1.733,1.105 0.466,0.466 0.822,1.022 1.061,1.661 0.239,0.641 0.361,1.332 0.361,2.082 0,0.918 -0.162,1.749 -0.489,2.49 -0.326,0.741 -0.767,1.376 -1.323,1.904 -0.56,0.532 -1.216,0.938 -1.979,1.223 -0.762,0.285 -1.58,0.426 -2.458,0.426 -0.514,0 -1.005,-0.049 -1.471,-0.153 -0.466,-0.102 -0.902,-0.237 -1.306,-0.408 -0.404,-0.17 -0.779,-0.364 -1.124,-0.581 -0.347,-0.214 -0.653,-0.445 -0.922,-0.689 l 0.66,-0.915 c 0.146,-0.211 0.339,-0.317 0.574,-0.317 0.155,0 0.336,0.06 0.542,0.187 0.208,0.127 0.456,0.264 0.746,0.416 0.289,0.151 0.628,0.287 1.019,0.413 0.389,0.127 0.858,0.188 1.402,0.188 0.602,0 1.147,-0.099 1.629,-0.292 0.484,-0.195 0.899,-0.475 1.246,-0.831 0.345,-0.357 0.609,-0.79 0.792,-1.288 0.185,-0.5 0.276,-1.061 0.276,-1.68 0,-0.545 -0.078,-1.035 -0.232,-1.469 -0.154,-0.434 -0.394,-0.806 -0.714,-1.11 -0.32,-0.305 -0.718,-0.544 -1.197,-0.714 -0.475,-0.171 -1.029,-0.257 -1.665,-0.257 -0.439,0 -0.894,0.037 -1.36,0.111 -0.468,0.074 -0.95,0.191 -1.446,0.354 l -1.355,-0.403 1.402,-8.117 h 8.217 v 0.954 h -0.002 z m 15.51,7.738 c 0,1.515 -0.162,2.826 -0.487,3.94 -0.327,1.11 -0.771,2.03 -1.337,2.757 -0.566,0.727 -1.235,1.269 -2.009,1.623 -0.772,0.354 -1.598,0.531 -2.478,0.531 -0.887,0 -1.712,-0.178 -2.472,-0.531 -0.76,-0.353 -1.425,-0.896 -1.988,-1.623 -0.565,-0.727 -1.01,-1.647 -1.331,-2.757 -0.32,-1.112 -0.482,-2.425 -0.482,-3.94 0,-1.522 0.16,-2.838 0.482,-3.954 0.32,-1.116 0.766,-2.036 1.331,-2.766 0.565,-0.729 1.228,-1.271 1.988,-1.624 0.76,-0.354 1.585,-0.532 2.472,-0.532 0.88,0 1.705,0.178 2.478,0.532 0.774,0.354 1.443,0.896 2.009,1.624 0.566,0.728 1.01,1.65 1.337,2.766 0.325,1.116 0.487,2.434 0.487,3.954 z m -2.231,0 c 0,-1.325 -0.113,-2.439 -0.338,-3.34 -0.224,-0.899 -0.523,-1.622 -0.897,-2.171 -0.375,-0.549 -0.808,-0.945 -1.3,-1.185 -0.495,-0.239 -1.008,-0.36 -1.545,-0.36 -0.53,0 -1.04,0.12 -1.533,0.36 -0.493,0.239 -0.922,0.635 -1.293,1.185 -0.371,0.549 -0.668,1.274 -0.892,2.171 -0.225,0.901 -0.337,2.013 -0.337,3.34 0,1.318 0.112,2.43 0.337,3.329 0.224,0.899 0.521,1.621 0.892,2.173 0.372,0.549 0.801,0.939 1.293,1.175 0.491,0.236 1.003,0.354 1.533,0.354 0.537,0 1.05,-0.118 1.545,-0.354 0.493,-0.236 0.925,-0.628 1.3,-1.175 0.375,-0.553 0.674,-1.274 0.897,-2.173 0.226,-0.899 0.338,-2.009 0.338,-3.329 z"
   id="path1978"
   inkscape:connector-curvature="0" />
	
		<path
   style="fill:none;stroke:#000000;stroke-width:1.73440003;stroke-linejoin:round;stroke-miterlimit:10"
   d="m -157.942,-140.70599 h -10.55"
   id="line1980"
   inkscape:connector-curvature="0" />
	<path
   d="m -214.334,-131.448 h 3.724 v -11.83 c 0,-0.359 0.012,-0.714 0.037,-1.073 l -3.1,2.648 c -0.081,0.065 -0.16,0.113 -0.238,0.141 -0.077,0.028 -0.151,0.042 -0.225,0.042 -0.122,0 -0.23,-0.026 -0.331,-0.079 -0.098,-0.051 -0.17,-0.114 -0.22,-0.188 l -0.683,-0.929 5.164,-4.48 h 1.758 v 15.748 h 3.419 v 1.649 h -9.305 z m 23.876,-7.02 c 0,1.513 -0.162,2.826 -0.488,3.938 -0.327,1.11 -0.772,2.03 -1.337,2.757 -0.567,0.729 -1.237,1.271 -2.01,1.624 -0.772,0.355 -1.598,0.532 -2.477,0.532 -0.887,0 -1.712,-0.176 -2.473,-0.532 -0.76,-0.354 -1.425,-0.896 -1.988,-1.624 -0.564,-0.727 -1.01,-1.648 -1.33,-2.757 -0.32,-1.11 -0.484,-2.425 -0.484,-3.938 0,-1.522 0.162,-2.842 0.484,-3.956 0.322,-1.112 0.766,-2.036 1.33,-2.765 0.565,-0.728 1.229,-1.269 1.988,-1.624 0.76,-0.354 1.585,-0.529 2.473,-0.529 0.879,0 1.705,0.176 2.477,0.529 0.772,0.355 1.443,0.896 2.01,1.624 0.564,0.727 1.01,1.651 1.337,2.765 0.326,1.116 0.488,2.434 0.488,3.956 z m -2.235,0 c 0,-1.327 -0.111,-2.439 -0.336,-3.338 -0.224,-0.899 -0.523,-1.625 -0.897,-2.173 -0.375,-0.551 -0.808,-0.945 -1.3,-1.184 -0.495,-0.239 -1.008,-0.361 -1.545,-0.361 -0.53,0 -1.04,0.12 -1.533,0.361 -0.493,0.239 -0.924,0.635 -1.295,1.184 -0.371,0.547 -0.668,1.274 -0.892,2.173 -0.225,0.899 -0.336,2.011 -0.336,3.338 0,1.318 0.111,2.426 0.336,3.325 0.224,0.899 0.521,1.625 0.892,2.173 0.371,0.551 0.802,0.943 1.295,1.179 0.491,0.236 1.003,0.355 1.533,0.355 0.537,0 1.05,-0.118 1.545,-0.355 0.491,-0.236 0.925,-0.628 1.3,-1.179 0.375,-0.549 0.674,-1.274 0.897,-2.173 0.225,-0.899 0.336,-2.006 0.336,-3.325 z m 16.271,0 c 0,1.513 -0.162,2.826 -0.488,3.938 -0.327,1.11 -0.772,2.03 -1.337,2.757 -0.567,0.729 -1.235,1.271 -2.008,1.624 -0.772,0.355 -1.6,0.532 -2.478,0.532 -0.887,0 -1.712,-0.176 -2.472,-0.532 -0.76,-0.354 -1.425,-0.896 -1.988,-1.624 -0.565,-0.727 -1.01,-1.648 -1.33,-2.757 -0.322,-1.11 -0.484,-2.425 -0.484,-3.938 0,-1.522 0.162,-2.842 0.484,-3.956 0.32,-1.114 0.764,-2.036 1.33,-2.765 0.565,-0.728 1.228,-1.269 1.988,-1.624 0.76,-0.354 1.583,-0.529 2.472,-0.529 0.88,0 1.705,0.176 2.478,0.529 0.772,0.355 1.441,0.896 2.008,1.624 0.564,0.727 1.012,1.651 1.337,2.765 0.324,1.116 0.488,2.434 0.488,3.956 z m -2.235,0 c 0,-1.327 -0.113,-2.439 -0.336,-3.338 -0.224,-0.899 -0.523,-1.625 -0.897,-2.173 -0.375,-0.551 -0.808,-0.945 -1.302,-1.184 -0.491,-0.239 -1.006,-0.361 -1.543,-0.361 -0.528,0 -1.04,0.12 -1.531,0.361 -0.493,0.241 -0.926,0.635 -1.295,1.184 -0.369,0.547 -0.667,1.274 -0.892,2.173 -0.223,0.899 -0.334,2.011 -0.334,3.338 0,1.318 0.111,2.426 0.334,3.325 0.226,0.899 0.521,1.625 0.892,2.173 0.372,0.551 0.803,0.943 1.295,1.179 0.491,0.236 1.003,0.355 1.531,0.355 0.537,0 1.052,-0.118 1.543,-0.355 0.493,-0.236 0.927,-0.628 1.302,-1.179 0.375,-0.549 0.674,-1.274 0.897,-2.173 0.223,-0.899 0.336,-2.006 0.336,-3.325 z"
   id="path1982"
   inkscape:connector-curvature="0" />
	
	
	<path
   d="m 105.869,-39.531 c 0.734,0 1.418,0.107 2.059,0.322 0.639,0.216 1.189,0.531 1.654,0.946 0.463,0.414 0.831,0.922 1.098,1.521 0.269,0.598 0.405,1.275 0.405,2.032 0,0.651 -0.099,1.251 -0.294,1.8 -0.195,0.549 -0.458,1.079 -0.788,1.58 -0.329,0.505 -0.711,0.993 -1.142,1.466 -0.431,0.472 -0.89,0.95 -1.378,1.439 l -4.566,4.675 c 0.324,-0.09 0.651,-0.16 0.982,-0.215 0.327,-0.053 0.649,-0.079 0.957,-0.079 h 5.81 c 0.236,0 0.424,0.069 0.563,0.208 0.137,0.139 0.206,0.317 0.206,0.537 v 1.308 H 99.852 v -0.746 c 0,-0.146 0.03,-0.301 0.091,-0.464 0.062,-0.162 0.16,-0.313 0.299,-0.451 l 5.555,-5.578 c 0.463,-0.472 0.885,-0.924 1.264,-1.355 0.378,-0.433 0.702,-0.864 0.971,-1.3 0.269,-0.437 0.475,-0.878 0.623,-1.325 0.146,-0.447 0.22,-0.927 0.22,-1.439 0,-0.505 -0.079,-0.948 -0.238,-1.33 -0.158,-0.382 -0.38,-0.7 -0.665,-0.95 -0.285,-0.253 -0.618,-0.443 -0.994,-0.568 -0.378,-0.126 -0.788,-0.187 -1.227,-0.187 -0.431,0 -0.835,0.063 -1.208,0.194 -0.375,0.13 -0.704,0.31 -0.989,0.542 -0.285,0.23 -0.526,0.505 -0.725,0.818 -0.201,0.313 -0.341,0.662 -0.422,1.045 -0.058,0.227 -0.149,0.394 -0.282,0.501 -0.128,0.105 -0.301,0.158 -0.512,0.158 -0.039,0 -0.083,-10e-4 -0.127,-0.005 -0.044,-0.003 -0.097,-0.009 -0.151,-0.018 l -1.124,-0.195 c 0.112,-0.788 0.331,-1.49 0.651,-2.099 0.322,-0.61 0.732,-1.123 1.228,-1.533 0.495,-0.412 1.066,-0.721 1.708,-0.934 0.639,-0.216 1.329,-0.321 2.071,-0.321 z m 7.822,16.211 c 0,-0.211 0.039,-0.412 0.116,-0.598 0.077,-0.188 0.183,-0.349 0.316,-0.484 0.136,-0.134 0.296,-0.243 0.484,-0.324 0.187,-0.081 0.384,-0.122 0.584,-0.122 0.213,0 0.414,0.039 0.6,0.122 0.188,0.081 0.348,0.19 0.482,0.324 0.134,0.134 0.241,0.294 0.318,0.484 0.078,0.187 0.115,0.385 0.115,0.598 0,0.22 -0.037,0.419 -0.115,0.598 -0.077,0.178 -0.185,0.338 -0.318,0.475 -0.134,0.139 -0.294,0.247 -0.482,0.326 -0.187,0.076 -0.387,0.114 -0.6,0.114 -0.201,0 -0.398,-0.039 -0.584,-0.114 -0.188,-0.079 -0.348,-0.187 -0.484,-0.326 -0.133,-0.139 -0.239,-0.297 -0.316,-0.475 -0.078,-0.179 -0.116,-0.378 -0.116,-0.598 z"
   id="path1988"
   inkscape:connector-curvature="0"
   style="fill:#3e578a" />
	<path
   d="m 79.537,30 c 0.732,0 1.411,0.105 2.031,0.313 0.625,0.206 1.159,0.503 1.606,0.89 0.447,0.387 0.797,0.855 1.05,1.404 0.251,0.549 0.378,1.161 0.378,1.837 0,0.547 -0.072,1.033 -0.215,1.466 -0.143,0.433 -0.347,0.813 -0.609,1.142 -0.266,0.329 -0.583,0.607 -0.954,0.831 -0.371,0.224 -0.783,0.407 -1.239,0.544 1.131,0.301 1.979,0.8 2.546,1.501 0.564,0.7 0.848,1.578 0.848,2.637 0,0.795 -0.149,1.517 -0.45,2.154 -0.301,0.639 -0.716,1.181 -1.241,1.629 -0.526,0.447 -1.136,0.79 -1.837,1.031 -0.7,0.241 -1.448,0.359 -2.247,0.359 -0.919,0 -1.707,-0.114 -2.363,-0.347 C 76.186,47.159 75.632,46.84 75.182,46.439 74.73,46.036 74.358,45.557 74.072,45.005 73.781,44.45 73.535,43.854 73.333,43.21 l 0.927,-0.391 c 0.162,-0.074 0.329,-0.111 0.501,-0.111 0.162,0 0.306,0.035 0.433,0.105 0.125,0.069 0.22,0.176 0.285,0.322 0.018,0.035 0.033,0.068 0.049,0.104 0.016,0.039 0.031,0.076 0.049,0.116 0.113,0.236 0.25,0.501 0.408,0.793 0.159,0.294 0.377,0.567 0.653,0.824 0.276,0.257 0.618,0.475 1.024,0.651 0.408,0.183 0.913,0.269 1.515,0.269 0.611,0 1.144,-0.098 1.6,-0.299 0.456,-0.199 0.834,-0.456 1.135,-0.769 0.301,-0.315 0.53,-0.664 0.685,-1.05 0.153,-0.387 0.23,-0.772 0.23,-1.154 0,-0.465 -0.063,-0.891 -0.188,-1.281 -0.127,-0.391 -0.352,-0.725 -0.676,-1.008 -0.327,-0.28 -0.778,-0.501 -1.355,-0.665 -0.579,-0.162 -1.32,-0.245 -2.222,-0.245 V 37.86 c 0.733,-0.007 1.358,-0.086 1.879,-0.237 0.521,-0.149 0.947,-0.361 1.276,-0.63 0.329,-0.268 0.57,-0.588 0.722,-0.959 0.149,-0.368 0.225,-0.783 0.225,-1.239 0,-0.496 -0.078,-0.929 -0.239,-1.3 -0.159,-0.37 -0.373,-0.678 -0.646,-0.924 -0.272,-0.243 -0.596,-0.426 -0.971,-0.549 -0.375,-0.122 -0.781,-0.183 -1.219,-0.183 -0.431,0 -0.834,0.063 -1.209,0.193 -0.375,0.13 -0.706,0.312 -0.991,0.544 -0.283,0.234 -0.524,0.507 -0.718,0.823 -0.195,0.32 -0.341,0.664 -0.44,1.038 -0.065,0.229 -0.16,0.395 -0.287,0.5 -0.127,0.105 -0.292,0.16 -0.495,0.16 -0.041,0 -0.084,-0.004 -0.128,-0.007 -0.046,-0.003 -0.095,-0.01 -0.153,-0.019 l -1.123,-0.195 c 0.113,-0.789 0.331,-1.489 0.653,-2.099 0.32,-0.609 0.729,-1.121 1.227,-1.531 0.498,-0.413 1.066,-0.723 1.71,-0.936 C 78.103,30.097 78.798,30 79.537,30 Z m 7.593,16.211 c 0,-0.209 0.037,-0.41 0.115,-0.597 0.077,-0.187 0.183,-0.348 0.316,-0.482 0.134,-0.135 0.296,-0.245 0.482,-0.326 0.187,-0.083 0.383,-0.121 0.584,-0.121 0.213,0 0.414,0.039 0.6,0.121 0.188,0.081 0.349,0.188 0.484,0.326 0.134,0.132 0.239,0.294 0.317,0.482 0.077,0.188 0.116,0.387 0.116,0.597 0,0.222 -0.039,0.42 -0.116,0.6 -0.078,0.178 -0.183,0.338 -0.317,0.475 -0.135,0.139 -0.295,0.248 -0.484,0.326 -0.187,0.077 -0.387,0.114 -0.6,0.114 -0.201,0 -0.397,-0.037 -0.584,-0.114 -0.188,-0.078 -0.349,-0.187 -0.482,-0.326 -0.135,-0.137 -0.239,-0.297 -0.316,-0.475 -0.078,-0.179 -0.115,-0.378 -0.115,-0.6 z"
   id="path1990"
   inkscape:connector-curvature="0"
   style="fill:#008080" />
	<path
   d="m 68.906,99.092 h 2.625 v 1.235 c 0,0.13 -0.041,0.24 -0.118,0.329 -0.076,0.09 -0.195,0.134 -0.359,0.134 h -2.146 v 4.566 h -1.906 v -4.566 h -7.689 c -0.162,0 -0.301,-0.046 -0.415,-0.141 -0.113,-0.093 -0.187,-0.209 -0.218,-0.345 l -0.22,-1.098 8.434,-11.207 h 2.015 V 99.091 H 68.906 Z M 67,91.941 c 0,-0.213 0.005,-0.438 0.02,-0.679 0.012,-0.239 0.039,-0.487 0.079,-0.75 l -6.31,8.582 H 67 Z m 6.067,12.083 c 0,-0.209 0.039,-0.41 0.116,-0.597 0.078,-0.187 0.183,-0.347 0.317,-0.481 0.134,-0.136 0.295,-0.245 0.48,-0.326 0.188,-0.082 0.383,-0.121 0.586,-0.121 0.213,0 0.414,0.039 0.6,0.121 0.188,0.081 0.348,0.188 0.484,0.326 0.132,0.133 0.239,0.293 0.316,0.481 0.078,0.188 0.115,0.388 0.115,0.597 0,0.222 -0.037,0.421 -0.115,0.6 -0.077,0.178 -0.185,0.338 -0.316,0.476 -0.136,0.139 -0.296,0.248 -0.484,0.325 -0.187,0.078 -0.387,0.114 -0.6,0.114 -0.203,0 -0.398,-0.036 -0.586,-0.114 -0.187,-0.077 -0.347,-0.187 -0.48,-0.325 -0.135,-0.138 -0.239,-0.298 -0.317,-0.476 -0.077,-0.179 -0.116,-0.379 -0.116,-0.6 z"
   id="path1992"
   inkscape:connector-curvature="0"
   style="fill:#800080" />
	<path
   d="m 714.859,134.091 v 1.978 h -5.6 v 15.381 h -2.354 v -15.381 h -5.633 v -1.978 z m 4.515,5.087 v 12.271 h -2.146 v -12.271 z m 0.487,-3.843 c 0,0.204 -0.038,0.397 -0.125,0.581 -0.086,0.181 -0.204,0.343 -0.343,0.487 -0.141,0.145 -0.305,0.257 -0.485,0.338 -0.187,0.082 -0.384,0.123 -0.595,0.123 -0.21,0 -0.405,-0.041 -0.584,-0.123 -0.182,-0.081 -0.344,-0.193 -0.486,-0.338 -0.142,-0.145 -0.25,-0.305 -0.338,-0.487 -0.077,-0.186 -0.114,-0.377 -0.114,-0.581 0,-0.211 0.037,-0.412 0.114,-0.604 0.088,-0.19 0.195,-0.357 0.338,-0.492 0.141,-0.14 0.305,-0.25 0.486,-0.333 0.181,-0.081 0.374,-0.119 0.584,-0.119 0.211,0 0.408,0.038 0.595,0.119 0.181,0.083 0.343,0.191 0.485,0.333 0.139,0.135 0.259,0.302 0.343,0.492 0.085,0.192 0.125,0.391 0.125,0.604 z m 11.944,16.114 c -0.305,0 -0.5,-0.151 -0.57,-0.452 l -0.193,-1.488 c -0.531,0.64 -1.132,1.154 -1.804,1.537 -0.681,0.384 -1.455,0.574 -2.32,0.574 -0.706,0 -1.336,-0.136 -1.917,-0.408 -0.568,-0.273 -1.063,-0.673 -1.46,-1.196 -0.408,-0.526 -0.72,-1.18 -0.939,-1.961 -0.22,-0.782 -0.327,-1.682 -0.327,-2.697 0,-0.904 0.125,-1.747 0.365,-2.526 0.243,-0.781 0.595,-1.457 1.048,-2.027 0.461,-0.57 1.013,-1.019 1.671,-1.348 0.649,-0.331 1.392,-0.494 2.228,-0.494 0.75,0 1.389,0.126 1.92,0.385 0.531,0.257 1.01,0.612 1.431,1.068 v -6.799 h 2.148 v 17.835 h -1.279 v -0.003 z m -4.171,-1.575 c 0.704,0 1.313,-0.161 1.842,-0.483 0.532,-0.322 1.014,-0.779 1.463,-1.374 v -5.932 c -0.399,-0.53 -0.829,-0.901 -1.306,-1.117 -0.469,-0.217 -0.992,-0.324 -1.563,-0.324 -1.149,0 -2.023,0.41 -2.642,1.227 -0.615,0.818 -0.92,1.983 -0.92,3.487 0,0.796 0.068,1.479 0.2,2.052 0.141,0.568 0.344,1.036 0.609,1.404 0.266,0.364 0.586,0.634 0.977,0.803 0.387,0.171 0.833,0.257 1.34,0.257 z"
   id="path1994"
   inkscape:connector-curvature="0" />
<g
   transform="translate(-222.5,-160.269)"
   style="font-style:normal;font-variant:normal;font-weight:normal;font-stretch:normal;font-size:17.33333397px;line-height:1.25;font-family:Questrial;-inkscape-font-specification:Questrial;letter-spacing:0px;word-spacing:0px;fill:#000000;fill-opacity:1;stroke:none"
   id="flowRoot2196" /><g
   aria-label="Ubehag"
   style="font-style:normal;font-variant:normal;font-weight:normal;font-stretch:normal;font-size:17.33333397px;line-height:1.25;font-family:Questrial;-inkscape-font-specification:Questrial;letter-spacing:0px;word-spacing:0px;fill:#000000;fill-opacity:1;stroke:none"
   id="text2206"><path
     d="m -129.855,-146.76523 v 9.14853 q 0,3.2032 -1.91707,5.1688 -1.8928,1.94133 -4.92613,1.94133 -3.00907,0 -4.92614,-1.94133 -1.8928,-1.9656 -1.8928,-5.1688 v -9.14853 h 1.82 v 9.19706 q 0,2.59654 1.55307,4.05254 1.33467,1.2376 3.44587,1.2376 2.1112,0 3.47013,-1.2376 1.55307,-1.43174 1.55307,-4.05254 v -9.19706 z"
     style="font-size:24.26666641px"
     id="path2251"
     inkscape:connector-curvature="0" /><path
     d="m -124.89987,-140.86843 q 1.48027,-2.15974 4.34374,-2.15974 2.6208,0 4.24666,1.82 1.62587,1.79574 1.62587,4.4408 0,2.64507 -1.62587,4.4408 -1.62586,1.82 -4.39226,1.82 -2.74214,0 -4.19814,-2.13546 v 1.94133 h -1.82 v -16.98667 h 1.82 z m 4.10107,8.71173 q 1.94133,0 3.15467,-1.35893 1.14053,-1.28614 1.14053,-3.25174 0,-1.9656 -1.14053,-3.25173 -1.21334,-1.35893 -3.15467,-1.35893 -1.9656,0 -3.10613,1.35893 -1.092,1.28613 -1.092,3.25173 0,1.9656 1.092,3.25174 1.14053,1.35893 3.10613,1.35893 z"
     style="font-size:24.26666641px"
     id="path2253"
     inkscape:connector-curvature="0" /><path
     d="m -106.87637,-132.1567 q 2.45094,0 3.51867,-2.0384 h 1.98987 q -0.63094,1.65013 -2.01414,2.66933 -1.35893,1.0192 -3.51866,1.0192 -2.74214,0 -4.46507,-1.82 -1.6744,-1.77146 -1.6744,-4.4408 0,-2.6936 1.6016,-4.4408 1.69867,-1.82 4.41653,-1.82 2.71787,0 4.41654,1.82 1.6016,1.7472 1.6016,4.4408 v 0.728 h -10.16774 q 0.19414,1.6744 1.33467,2.7664 1.1648,1.11627 2.96053,1.11627 z m -0.1456,-9.22133 q -1.6744,0 -2.81493,1.04346 -1.06773,0.99494 -1.3104,2.59654 h 8.25067 q -0.24267,-1.6016 -1.3104,-2.59654 -1.14054,-1.04346 -2.81494,-1.04346 z"
     style="font-size:24.26666641px"
     id="path2255"
     inkscape:connector-curvature="0" /><path
     d="m -96.96002,-147.68737 v 6.74614 q 0.6552,-0.8736 1.6016,-1.48027 0.9464,-0.60667 2.159733,-0.60667 1.213334,0 2.086934,0.33974 0.8736,0.33973 1.5288,1.0192 1.504533,1.48026 1.504533,3.90693 v 7.0616 h -1.82 v -7.01307 q 0,-1.6744 -0.9464,-2.66933 -0.9464,-0.99493 -2.450933,-0.99493 -1.5288,0 -2.596534,1.0192 -1.067733,1.04346 -1.067733,2.66933 v 6.9888 h -1.82 v -16.98667 z"
     style="font-size:24.26666641px"
     id="path2257"
     inkscape:connector-curvature="0" /><path
     d="m -75.571231,-132.64203 q -1.456,2.13546 -4.343733,2.13546 -2.6208,0 -4.270933,-1.82 -1.6016,-1.79573 -1.6016,-4.4408 0,-2.64506 1.6016,-4.4408 1.650133,-1.82 4.392266,-1.82 2.742133,0 4.2224,2.15974 v -1.9656 h 1.82 v 12.13333 h -1.82 z m -4.101066,0.48533 q 1.965599,0 3.106133,-1.35893 1.092,-1.28614 1.092,-3.25174 0,-1.9656 -1.092,-3.25173 -1.140534,-1.35893 -3.106133,-1.35893 -1.941334,0 -3.154667,1.35893 -1.140533,1.28613 -1.140533,3.25173 0,1.9656 1.140533,3.25174 1.213333,1.35893 3.154667,1.35893 z"
     style="font-size:24.26666641px"
     id="path2259"
     inkscape:connector-curvature="0" /><path
     d="m -61.115497,-140.8927 v -1.94133 h 1.82 v 11.76933 q 0,2.6208 -1.504533,3.97973 -1.480267,1.3832 -4.004,1.3832 -2.523733,0 -3.955467,-0.97066 -1.407466,-0.97067 -1.917066,-2.57227 h 2.014133 q 0.776533,1.8928 3.542933,1.8928 2.1112,0 3.0576,-0.97067 0.9464,-0.97066 0.9464,-2.86346 v -1.6744 q -1.480266,2.15973 -4.343733,2.15973 -2.6208,0 -4.270933,-1.79573 -1.6016,-1.7472 -1.6016,-4.368 0,-2.6208 1.6016,-4.368 1.650133,-1.79574 4.392266,-1.79574 2.7664,0 4.2224,2.13547 z m -4.101066,8.54187 q 0.994933,0 1.771466,-0.33974 0.776534,-0.364 1.334667,-0.97066 1.092,-1.26187 1.092,-3.2032 0,-1.94134 -1.092,-3.2032 -1.189067,-1.3104 -3.106133,-1.3104 -1.9656,0 -3.154667,1.3104 -1.140533,1.28613 -1.140533,3.2032 0,1.91706 1.140533,3.2032 1.189067,1.3104 3.154667,1.3104 z"
     style="font-size:24.26666641px"
     id="path2261"
     inkscape:connector-curvature="0" /></g><g
   style="font-style:normal;font-variant:normal;font-weight:normal;font-stretch:normal;font-size:17.33333397px;line-height:1.25;font-family:Questrial;-inkscape-font-specification:Questrial;letter-spacing:0px;word-spacing:0px;fill:#000000;fill-opacity:1;stroke:none"
   id="flowRoot2208" /><g
   aria-label="1. gang"
   transform="translate(-214.00225,-153.01862)"
   style="font-style:normal;font-variant:normal;font-weight:normal;font-stretch:normal;font-size:17.33333397px;line-height:1.25;font-family:Questrial;-inkscape-font-specification:Questrial;letter-spacing:0px;word-spacing:0px;fill:#000000;fill-opacity:1;stroke:none"
   id="flowRoot2216"><path
     d="m 353.10755,61.734273 h 3.72494 V 49.880006 q 0,-0.5096 0.0364,-1.079867 l -3.094,2.6572 q -0.15774,0.133467 -0.31547,0.169867 -0.15773,0.02427 -0.2912,0 -0.13347,-0.02427 -0.2548,-0.09707 -0.1092,-0.0728 -0.16987,-0.157733 l -0.67946,-0.934267 5.18093,-4.477199 h 1.75933 V 61.73427 h 3.4216 v 1.650133 h -9.3184 z"
     style="font-style:normal;font-variant:normal;font-weight:normal;font-stretch:normal;font-size:24.26666641px;font-family:Lato;-inkscape-font-specification:Lato;fill:#ff9900;fill-opacity:1"
     id="path2265"
     inkscape:connector-curvature="0" /><path
     d="m 365.49758,62.049739 q 0,-0.315466 0.1092,-0.594533 0.12133,-0.279067 0.31547,-0.485333 0.20626,-0.206267 0.48533,-0.3276 0.27907,-0.121334 0.59453,-0.121334 0.31547,0 0.59454,0.121334 0.27906,0.121333 0.48533,0.3276 0.20627,0.206266 0.3276,0.485333 0.12133,0.279067 0.12133,0.594533 0,0.3276 -0.12133,0.606667 -0.12133,0.266933 -0.3276,0.4732 -0.20627,0.206267 -0.48533,0.315467 -0.27907,0.121333 -0.59454,0.121333 -0.31546,0 -0.59453,-0.121333 -0.27907,-0.1092 -0.48533,-0.315467 -0.19414,-0.206267 -0.31547,-0.4732 -0.1092,-0.279067 -0.1092,-0.606667 z"
     style="font-style:normal;font-variant:normal;font-weight:normal;font-stretch:normal;font-size:24.26666641px;font-family:Lato;-inkscape-font-specification:Lato;fill:#ff9900;fill-opacity:1"
     id="path2267"
     inkscape:connector-curvature="0" /><path
     d="m 382.0884,50.887073 q 0.8008,0 1.4924,0.182 0.6916,0.169866 1.26186,0.5096 h 3.33667 v 0.8008 q 0,0.4004 -0.5096,0.5096 l -1.39533,0.194133 q 0.41253,0.788667 0.41253,1.759333 0,0.897867 -0.35187,1.638 -0.33973,0.728 -0.9464,1.249734 -0.60666,0.521733 -1.456,0.8008 -0.84933,0.279066 -1.84426,0.279066 -0.8736,0 -1.638,-0.206266 -0.38827,0.242666 -0.59454,0.521733 -0.19413,0.279067 -0.19413,0.546 0,0.4368 0.35187,0.667333 0.364,0.2184 0.9464,0.315467 0.5824,0.09707 1.32253,0.121333 0.75227,0.02427 1.5288,0.08493 0.78867,0.04853 1.5288,0.182 0.75227,0.133466 1.33467,0.4368 0.5824,0.303333 0.93426,0.8372 0.364,0.533866 0.364,1.3832 0,0.788666 -0.4004,1.5288 -0.38826,0.740133 -1.1284,1.3104 -0.74013,0.5824 -1.82,0.922133 -1.06773,0.351867 -2.41453,0.351867 -1.3468,0 -2.35387,-0.266934 -1.00706,-0.266933 -1.6744,-0.715866 -0.66733,-0.448934 -1.00706,-1.043467 -0.3276,-0.5824 -0.3276,-1.225467 0,-0.91 0.57026,-1.540933 0.57027,-0.630933 1.55307,-1.007067 -0.546,-0.242666 -0.86147,-0.643066 -0.31546,-0.412534 -0.31546,-1.104134 0,-0.266933 0.0971,-0.546 0.0971,-0.2912 0.2912,-0.570266 0.20627,-0.279067 0.49747,-0.533867 0.2912,-0.2548 0.67947,-0.448933 -0.91,-0.5096 -1.4196,-1.358934 -0.5096,-0.849333 -0.5096,-1.9656 0,-0.897866 0.33973,-1.625866 0.35187,-0.740134 0.97067,-1.249734 0.6188,-0.521733 1.46813,-0.8008 0.86147,-0.279066 1.88067,-0.279066 z m 3.8948,13.164666 q 0,-0.448933 -0.2548,-0.728 -0.2548,-0.279066 -0.6916,-0.4368 -0.42467,-0.157733 -0.99494,-0.2184 -0.57026,-0.0728 -1.21333,-0.1092 -0.63093,-0.0364 -1.28613,-0.0728 -0.6552,-0.0364 -1.26187,-0.121333 -0.67947,0.315467 -1.11627,0.788667 -0.42466,0.4732 -0.42466,1.1284 0,0.412533 0.20626,0.7644 0.2184,0.364 0.6552,0.6188 0.4368,0.266933 1.092,0.412533 0.66734,0.157733 1.5652,0.157733 0.8736,0 1.5652,-0.157733 0.6916,-0.157733 1.1648,-0.448933 0.48534,-0.2912 0.74014,-0.6916 0.2548,-0.4004 0.2548,-0.885734 z m -3.8948,-6.673333 q 0.6552,0 1.15266,-0.182 0.49747,-0.182 0.8372,-0.5096 0.33974,-0.3276 0.5096,-0.776533 0.16987,-0.461067 0.16987,-1.007067 0,-1.1284 -0.6916,-1.795733 -0.67947,-0.667334 -1.97773,-0.667334 -1.3104,0 -2.002,0.667334 -0.67947,0.667333 -0.67947,1.795733 0,0.546 0.16987,1.007067 0.182,0.448933 0.52173,0.776533 0.33973,0.3276 0.8372,0.5096 0.49747,0.182 1.15267,0.182 z"
     style="font-style:normal;font-variant:normal;font-weight:normal;font-stretch:normal;font-size:24.26666641px;font-family:Lato;-inkscape-font-specification:Lato;fill:#ff9900;fill-opacity:1"
     id="path2269"
     inkscape:connector-curvature="0" /><path
     d="m 398.22649,63.384406 q -0.31547,0 -0.48534,-0.09707 -0.16986,-0.1092 -0.26693,-0.412533 l -0.24267,-1.152667 q -0.48533,0.4368 -0.95853,0.788667 -0.46107,0.339733 -0.97067,0.5824 -0.49746,0.230533 -1.07986,0.351867 -0.57027,0.133466 -1.274,0.133466 -0.71587,0 -1.3468,-0.194133 -0.63094,-0.206267 -1.10414,-0.606667 -0.46106,-0.4004 -0.74013,-1.007066 -0.26693,-0.6188 -0.26693,-1.456 0,-0.728 0.4004,-1.395334 0.4004,-0.679466 1.29826,-1.2012 0.89787,-0.521733 2.34174,-0.849333 1.44386,-0.339733 3.54293,-0.388267 v -0.958533 q 0,-1.431733 -0.6188,-2.159733 -0.6188,-0.740134 -1.80787,-0.740134 -0.8008,0 -1.3468,0.206267 -0.53386,0.194133 -0.93426,0.448933 -0.38827,0.242667 -0.67947,0.448934 -0.27907,0.194133 -0.55813,0.194133 -0.2184,0 -0.37614,-0.1092 -0.15773,-0.121333 -0.26693,-0.2912 l -0.38827,-0.6916 q 1.0192,-0.9828 2.19614,-1.468133 1.17693,-0.485334 2.60866,-0.485334 1.03134,0 1.83214,0.339734 0.8008,0.339733 1.3468,0.9464 0.546,0.606666 0.82506,1.468133 0.27907,0.861467 0.27907,1.8928 v 7.8624 z m -4.63494,-1.322533 q 0.57027,0 1.04347,-0.1092 0.4732,-0.121334 0.88573,-0.3276 0.42467,-0.2184 0.8008,-0.521734 0.38827,-0.315466 0.75227,-0.703733 v -2.548 q -1.4924,0.04853 -2.548,0.242667 -1.04347,0.182 -1.7108,0.485333 -0.6552,0.303333 -0.95853,0.715867 -0.2912,0.412533 -0.2912,0.922133 0,0.485333 0.15773,0.8372 0.15773,0.351867 0.42467,0.5824 0.27906,0.2184 0.64306,0.3276 0.37614,0.09707 0.8008,0.09707 z"
     style="font-style:normal;font-variant:normal;font-weight:normal;font-stretch:normal;font-size:24.26666641px;font-family:Lato;-inkscape-font-specification:Lato;fill:#ff9900;fill-opacity:1"
     id="path2271"
     inkscape:connector-curvature="0" /><path
     d="M 402.45116,63.384406 V 51.093339 h 1.29827 q 0.46107,0 0.57027,0.448934 l 0.16986,1.334666 q 0.8008,-0.885733 1.79574,-1.431733 0.99493,-0.546 2.2932,-0.546 1.00706,0 1.77146,0.339733 0.77654,0.3276 1.28614,0.9464 0.52173,0.606667 0.78866,1.468134 0.26694,0.861466 0.26694,1.904933 v 7.826 h -2.17187 v -7.826 q 0,-1.395333 -0.64307,-2.159733 -0.63093,-0.776534 -1.9292,-0.776534 -0.97066,0 -1.80786,0.461067 -0.82507,0.461067 -1.51667,1.249733 v 9.051467 z"
     style="font-style:normal;font-variant:normal;font-weight:normal;font-stretch:normal;font-size:24.26666641px;font-family:Lato;-inkscape-font-specification:Lato;fill:#ff9900;fill-opacity:1"
     id="path2273"
     inkscape:connector-curvature="0" /><path
     d="m 420.28944,50.887073 q 0.8008,0 1.4924,0.182 0.6916,0.169866 1.26186,0.5096 h 3.33667 v 0.8008 q 0,0.4004 -0.5096,0.5096 l -1.39533,0.194133 q 0.41253,0.788667 0.41253,1.759333 0,0.897867 -0.35187,1.638 -0.33973,0.728 -0.9464,1.249734 -0.60666,0.521733 -1.456,0.8008 -0.84933,0.279066 -1.84426,0.279066 -0.8736,0 -1.638,-0.206266 -0.38827,0.242666 -0.59454,0.521733 -0.19413,0.279067 -0.19413,0.546 0,0.4368 0.35187,0.667333 0.364,0.2184 0.9464,0.315467 0.5824,0.09707 1.32253,0.121333 0.75227,0.02427 1.5288,0.08493 0.78867,0.04853 1.5288,0.182 0.75227,0.133466 1.33467,0.4368 0.5824,0.303333 0.93426,0.8372 0.364,0.533866 0.364,1.3832 0,0.788666 -0.4004,1.5288 -0.38826,0.740133 -1.1284,1.3104 -0.74013,0.5824 -1.82,0.922133 -1.06773,0.351867 -2.41453,0.351867 -1.3468,0 -2.35387,-0.266934 -1.00706,-0.266933 -1.6744,-0.715866 -0.66733,-0.448934 -1.00706,-1.043467 -0.3276,-0.5824 -0.3276,-1.225467 0,-0.91 0.57026,-1.540933 0.57027,-0.630933 1.55307,-1.007067 -0.546,-0.242666 -0.86147,-0.643066 -0.31546,-0.412534 -0.31546,-1.104134 0,-0.266933 0.0971,-0.546 0.0971,-0.2912 0.2912,-0.570266 0.20627,-0.279067 0.49747,-0.533867 0.2912,-0.2548 0.67947,-0.448933 -0.91,-0.5096 -1.4196,-1.358934 -0.5096,-0.849333 -0.5096,-1.9656 0,-0.897866 0.33973,-1.625866 0.35187,-0.740134 0.97067,-1.249734 0.6188,-0.521733 1.46813,-0.8008 0.86147,-0.279066 1.88067,-0.279066 z m 3.8948,13.164666 q 0,-0.448933 -0.2548,-0.728 -0.2548,-0.279066 -0.6916,-0.4368 -0.42467,-0.157733 -0.99494,-0.2184 -0.57026,-0.0728 -1.21333,-0.1092 -0.63093,-0.0364 -1.28613,-0.0728 -0.6552,-0.0364 -1.26187,-0.121333 -0.67947,0.315467 -1.11627,0.788667 -0.42466,0.4732 -0.42466,1.1284 0,0.412533 0.20626,0.7644 0.2184,0.364 0.6552,0.6188 0.4368,0.266933 1.092,0.412533 0.66734,0.157733 1.5652,0.157733 0.8736,0 1.5652,-0.157733 0.6916,-0.157733 1.1648,-0.448933 0.48534,-0.2912 0.74014,-0.6916 0.2548,-0.4004 0.2548,-0.885734 z m -3.8948,-6.673333 q 0.6552,0 1.15266,-0.182 0.49747,-0.182 0.8372,-0.5096 0.33974,-0.3276 0.5096,-0.776533 0.16987,-0.461067 0.16987,-1.007067 0,-1.1284 -0.6916,-1.795733 -0.67947,-0.667334 -1.97773,-0.667334 -1.3104,0 -2.002,0.667334 -0.67947,0.667333 -0.67947,1.795733 0,0.546 0.16987,1.007067 0.182,0.448933 0.52173,0.776533 0.33973,0.3276 0.8372,0.5096 0.49747,0.182 1.15267,0.182 z"
     style="font-style:normal;font-variant:normal;font-weight:normal;font-stretch:normal;font-size:24.26666641px;font-family:Lato;-inkscape-font-specification:Lato;fill:#ff9900;fill-opacity:1"
     id="path2275"
     inkscape:connector-curvature="0" /></g></g>
</svg>