<?xml version="1.0" encoding="utf-8"?>
<!-- Generator: Adobe Illustrator 16.0.3, SVG Export Plug-In . SVG Version: 6.00 Build 0)  -->
<!DOCTYPE svg PUBLIC "-//W3C//DTD SVG 1.1//EN" "http://www.w3.org/Graphics/SVG/1.1/DTD/svg11.dtd">
<svg version="1.1" id="Layer_1" xmlns="http://www.w3.org/2000/svg" xmlns:xlink="http://www.w3.org/1999/xlink" x="0px" y="0px"
	 width="1000px" height="560px" viewBox="0 0 1000 560" enable-background="new 0 0 1000 560" xml:space="preserve">
<polyline fill="none" stroke="#000000" stroke-width="2" stroke-miterlimit="10" points="130,347.5 890,347.5 890,349.5 894,347.5 
	890,345.5 890,347.5 "/>
<polyline fill="none" stroke="#000000" stroke-width="2" stroke-miterlimit="10" points="890,212.5 890,214.5 894,212.5 890,210.5 
	890,212.5 130,212.5 "/>
<linearGradient id="SVGID_1_" gradientUnits="userSpaceOnUse" x1="373.0088" y1="374.6797" x2="816.5107" y2="374.6797">
	<stop  offset="0" style="stop-color:#FFF33B"/>
	<stop  offset="0.0595" style="stop-color:#FFE029"/>
	<stop  offset="0.1303" style="stop-color:#FFD218"/>
	<stop  offset="0.2032" style="stop-color:#FEC90F"/>
	<stop  offset="0.2809" style="stop-color:#FDC70C"/>
	<stop  offset="0.6685" style="stop-color:#F3903F"/>
	<stop  offset="0.8876" style="stop-color:#ED683C"/>
	<stop  offset="1" style="stop-color:#E93E3A"/>
</linearGradient>
<path fill="none" stroke="url(#SVGID_1_)" stroke-width="2" stroke-miterlimit="10" d="M373.5,237c44.75,25.25,45,119,71.5,119
	s28.5-155,50.25-154S524,418,542,417.5S570.5,196,582,196s27.5,267.5,39,268s34.5-263.5,46.5-264s29,314.5,42.5,316s34-315,47-317
	s33.5,339.333,59,354.5"/>
<path fill="none" stroke="#8DC63F" stroke-width="2" stroke-miterlimit="10" d="M130,205.5c0,0,4.527-13.706,13.764-14.02
	S157.64,242.809,167.5,244c15.167,1.833,17.5-32,41-50s43.5-15.167,63-14s40.5,10.833,48,17.5s11.833,10.333,21,19.5
	s30.833,21.167,44,23s25-7.5,25-7.5s34.066-25.533,42-29.5c7.933-3.966,60.167-23.5,85.5-20s81,54.167,108,54s41.334-41.5,75-42.5
	s58.667,36.667,86,35s29.334-43.667,44.5-48.5s36,3,36,3"/>
<polyline fill="none" stroke="#000000" stroke-width="2" stroke-miterlimit="10" points="130,527.5 132,527.5 130,531.5 128,527.5 
	130,527.5 130,32.5 132,32.5 130,28.5 128,32.5 130,32.5 "/>
<g>
	<path d="M901.578,209.862c-0.154-0.256-0.268-0.513-0.34-0.772c-0.072-0.258-0.108-0.516-0.108-0.772c0-0.48,0.118-0.94,0.356-1.38
		c0.236-0.44,0.568-0.844,0.996-1.212l0.439,0.272c0.043,0.027,0.07,0.056,0.084,0.088c0.014,0.032,0.02,0.064,0.02,0.096
		c0,0.075-0.026,0.139-0.08,0.192c-0.084,0.107-0.168,0.219-0.247,0.336c-0.08,0.117-0.152,0.241-0.216,0.372
		c-0.064,0.131-0.115,0.268-0.152,0.412s-0.057,0.296-0.057,0.456c0,0.17,0.025,0.347,0.076,0.528s0.138,0.374,0.26,0.576
		c0.038,0.059,0.057,0.12,0.057,0.184c0,0.128-0.072,0.219-0.216,0.272L901.578,209.862z M904.01,209.862
		c-0.154-0.256-0.268-0.513-0.34-0.772c-0.072-0.258-0.107-0.516-0.107-0.772c0-0.48,0.118-0.94,0.355-1.38s0.569-0.844,0.996-1.212
		l0.439,0.272c0.043,0.027,0.071,0.056,0.084,0.088c0.014,0.032,0.021,0.064,0.021,0.096c0,0.075-0.026,0.139-0.08,0.192
		c-0.085,0.107-0.168,0.219-0.248,0.336s-0.151,0.241-0.216,0.372s-0.115,0.268-0.152,0.412s-0.056,0.296-0.056,0.456
		c0,0.17,0.025,0.347,0.076,0.528c0.05,0.181,0.138,0.374,0.26,0.576c0.037,0.059,0.056,0.12,0.056,0.184
		c0,0.128-0.072,0.219-0.216,0.272L904.01,209.862z"/>
	<path d="M908.99,206.546c0.066,0.035,0.143,0.105,0.229,0.212l6.64,8.64c-0.017-0.139-0.026-0.273-0.032-0.404
		s-0.008-0.257-0.008-0.38v-8.12h1.359v11.464h-0.783c-0.123,0-0.226-0.021-0.309-0.064c-0.082-0.042-0.164-0.115-0.244-0.216
		l-6.631-8.632c0.01,0.133,0.018,0.264,0.023,0.392c0.005,0.128,0.008,0.246,0.008,0.352v8.168h-1.359v-11.464h0.799
		C908.82,206.495,908.924,206.512,908.99,206.546z"/>
	<path d="M923.034,209.727c0.592,0,1.126,0.099,1.604,0.296s0.883,0.478,1.216,0.84c0.334,0.363,0.59,0.802,0.769,1.316
		s0.269,1.089,0.269,1.724c0,0.64-0.09,1.216-0.269,1.728c-0.179,0.512-0.435,0.95-0.769,1.312
		c-0.333,0.363-0.738,0.642-1.216,0.836c-0.478,0.195-1.012,0.292-1.604,0.292c-0.593,0-1.127-0.097-1.604-0.292
		c-0.477-0.194-0.884-0.473-1.22-0.836c-0.336-0.362-0.595-0.8-0.776-1.312c-0.182-0.512-0.271-1.088-0.271-1.728
		c0-0.634,0.09-1.209,0.271-1.724s0.44-0.954,0.776-1.316c0.336-0.362,0.743-0.643,1.22-0.84
		C921.907,209.825,922.441,209.727,923.034,209.727z M923.034,216.958c0.8,0,1.397-0.268,1.792-0.804
		c0.395-0.536,0.592-1.284,0.592-2.244c0-0.965-0.197-1.717-0.592-2.256c-0.395-0.539-0.992-0.808-1.792-0.808
		c-0.405,0-0.758,0.069-1.056,0.208c-0.299,0.139-0.549,0.338-0.748,0.6c-0.201,0.262-0.35,0.583-0.449,0.964
		c-0.098,0.381-0.147,0.812-0.147,1.292s0.05,0.909,0.147,1.288c0.1,0.378,0.248,0.697,0.449,0.956
		c0.199,0.259,0.449,0.458,0.748,0.596C922.276,216.889,922.629,216.958,923.034,216.958z"/>
	<path d="M928.65,217.958v-8.104h0.815c0.155,0,0.261,0.029,0.32,0.088c0.059,0.059,0.099,0.16,0.12,0.304l0.096,1.264
		c0.277-0.565,0.62-1.006,1.027-1.324c0.408-0.317,0.887-0.476,1.437-0.476c0.224,0,0.427,0.025,0.608,0.076s0.35,0.121,0.504,0.212
		l-0.184,1.064c-0.038,0.133-0.121,0.2-0.248,0.2c-0.075,0-0.189-0.025-0.345-0.076s-0.37-0.076-0.647-0.076
		c-0.496,0-0.911,0.144-1.244,0.432c-0.334,0.288-0.612,0.707-0.836,1.256v5.16H928.65z"/>
	<path d="M935.098,217.958v-8.104h0.848c0.203,0,0.331,0.099,0.385,0.296l0.104,0.832c0.299-0.368,0.633-0.669,1.004-0.904
		s0.801-0.352,1.292-0.352c0.55,0,0.993,0.152,1.332,0.456c0.339,0.304,0.583,0.715,0.731,1.232c0.113-0.293,0.261-0.547,0.445-0.76
		c0.184-0.213,0.391-0.389,0.619-0.528c0.229-0.139,0.474-0.24,0.732-0.304c0.258-0.064,0.521-0.096,0.788-0.096
		c0.427,0,0.806,0.068,1.14,0.204c0.334,0.136,0.616,0.334,0.848,0.596c0.232,0.262,0.41,0.583,0.532,0.964
		c0.123,0.381,0.185,0.817,0.185,1.308v5.16h-1.424v-5.16c0-0.634-0.139-1.116-0.416-1.444s-0.681-0.492-1.209-0.492
		c-0.234,0-0.457,0.042-0.668,0.124c-0.211,0.083-0.396,0.204-0.556,0.364c-0.159,0.16-0.286,0.361-0.38,0.604
		s-0.141,0.524-0.141,0.844v5.16h-1.424v-5.16c0-0.65-0.131-1.136-0.392-1.456c-0.261-0.32-0.643-0.48-1.144-0.48
		c-0.353,0-0.68,0.095-0.98,0.284s-0.577,0.447-0.828,0.772v6.04H935.098z"/>
	<path d="M954.186,217.958h-0.633c-0.139,0-0.25-0.021-0.336-0.064c-0.085-0.042-0.141-0.133-0.168-0.272l-0.159-0.752
		c-0.214,0.192-0.421,0.364-0.624,0.516c-0.203,0.152-0.416,0.28-0.641,0.384c-0.224,0.104-0.463,0.183-0.715,0.236
		c-0.254,0.053-0.535,0.08-0.845,0.08c-0.315,0-0.609-0.044-0.884-0.132c-0.275-0.088-0.514-0.22-0.717-0.396
		c-0.202-0.176-0.363-0.399-0.483-0.668c-0.12-0.27-0.181-0.588-0.181-0.956c0-0.32,0.089-0.628,0.265-0.924
		c0.176-0.296,0.46-0.559,0.853-0.788c0.392-0.229,0.904-0.417,1.539-0.564c0.635-0.147,1.411-0.231,2.328-0.252v-0.632
		c0-0.629-0.135-1.105-0.404-1.428s-0.668-0.484-1.195-0.484c-0.347,0-0.639,0.044-0.876,0.132s-0.442,0.187-0.616,0.296
		s-0.322,0.208-0.447,0.296c-0.126,0.088-0.25,0.132-0.373,0.132c-0.096,0-0.18-0.025-0.252-0.076s-0.129-0.113-0.172-0.188
		l-0.256-0.456c0.448-0.432,0.931-0.755,1.448-0.968c0.517-0.213,1.091-0.32,1.72-0.32c0.453,0,0.855,0.075,1.208,0.224
		s0.647,0.357,0.888,0.624s0.422,0.589,0.545,0.968c0.122,0.379,0.184,0.795,0.184,1.248V217.958z M950.489,217.086
		c0.251,0,0.479-0.025,0.688-0.076c0.207-0.05,0.404-0.123,0.588-0.216s0.359-0.207,0.527-0.34s0.332-0.285,0.492-0.456v-1.688
		c-0.656,0.021-1.213,0.073-1.672,0.156c-0.459,0.083-0.832,0.191-1.119,0.324c-0.289,0.133-0.498,0.291-0.629,0.472
		c-0.131,0.181-0.195,0.384-0.195,0.608c0,0.213,0.034,0.397,0.104,0.552c0.069,0.155,0.162,0.282,0.279,0.38
		c0.118,0.099,0.257,0.17,0.416,0.216C950.129,217.064,950.303,217.086,950.489,217.086z"/>
	<path d="M957.93,206.174v11.784h-1.424v-11.784H957.93z"/>
	<path d="M962.897,218.086c-0.64,0-1.132-0.179-1.476-0.536c-0.344-0.357-0.517-0.872-0.517-1.544v-4.96h-0.976
		c-0.086,0-0.158-0.025-0.217-0.076s-0.088-0.129-0.088-0.236v-0.568l1.328-0.168l0.328-2.504c0.011-0.08,0.045-0.146,0.104-0.196
		c0.059-0.05,0.134-0.076,0.225-0.076h0.721v2.792h2.319v1.032h-2.319v4.864c0,0.341,0.082,0.595,0.248,0.76
		c0.164,0.166,0.378,0.248,0.639,0.248c0.15,0,0.279-0.02,0.389-0.06s0.204-0.084,0.284-0.132c0.079-0.048,0.147-0.092,0.204-0.132
		c0.056-0.04,0.105-0.06,0.147-0.06c0.075,0,0.142,0.045,0.2,0.136l0.416,0.68c-0.245,0.229-0.541,0.409-0.889,0.54
		C963.623,218.021,963.266,218.086,962.897,218.086z"/>
	<path d="M967.409,205.895c0.155,0.256,0.267,0.512,0.336,0.768s0.104,0.512,0.104,0.768c0,0.485-0.119,0.948-0.356,1.388
		s-0.567,0.844-0.987,1.212l-0.44-0.272c-0.043-0.026-0.071-0.056-0.084-0.088c-0.014-0.032-0.021-0.064-0.021-0.096
		c0-0.075,0.027-0.139,0.08-0.192c0.086-0.101,0.168-0.212,0.248-0.332c0.08-0.12,0.152-0.245,0.217-0.376
		c0.063-0.13,0.113-0.268,0.151-0.412c0.037-0.144,0.056-0.296,0.056-0.456c0-0.171-0.025-0.347-0.076-0.528
		c-0.051-0.181-0.137-0.373-0.26-0.576c-0.037-0.059-0.056-0.117-0.056-0.176c0-0.128,0.071-0.221,0.216-0.28L967.409,205.895z
		 M969.842,205.895c0.154,0.256,0.266,0.512,0.336,0.768c0.068,0.256,0.104,0.512,0.104,0.768c0,0.485-0.119,0.948-0.355,1.388
		c-0.238,0.44-0.567,0.844-0.988,1.212l-0.44-0.272c-0.042-0.026-0.071-0.056-0.084-0.088c-0.013-0.032-0.021-0.064-0.021-0.096
		c0-0.075,0.027-0.139,0.08-0.192c0.086-0.101,0.168-0.212,0.248-0.332c0.08-0.12,0.152-0.245,0.217-0.376
		c0.063-0.13,0.114-0.268,0.152-0.412c0.037-0.144,0.055-0.296,0.055-0.456c0-0.171-0.025-0.347-0.075-0.528
		c-0.051-0.181-0.138-0.373-0.261-0.576c-0.037-0.059-0.055-0.117-0.055-0.176c0-0.128,0.071-0.221,0.215-0.28L969.842,205.895z"/>
	<path d="M976.905,206.174v11.784h-1.424v-11.784H976.905z"/>
	<path d="M981.32,207.311c0,0.139-0.027,0.268-0.084,0.388c-0.055,0.12-0.13,0.227-0.223,0.32c-0.094,0.093-0.202,0.167-0.324,0.22
		c-0.123,0.054-0.254,0.08-0.393,0.08s-0.268-0.026-0.388-0.08c-0.12-0.053-0.228-0.126-0.32-0.22s-0.167-0.2-0.22-0.32
		c-0.054-0.12-0.08-0.25-0.08-0.388s0.026-0.271,0.08-0.396c0.053-0.125,0.127-0.235,0.22-0.328s0.2-0.167,0.32-0.22
		s0.249-0.08,0.388-0.08s0.27,0.027,0.393,0.08c0.122,0.053,0.23,0.126,0.324,0.22c0.093,0.093,0.168,0.203,0.223,0.328
		C981.293,207.04,981.32,207.172,981.32,207.311z M981.001,209.854v8.104h-1.424v-8.104H981.001z"/>
	<path d="M982.488,209.854h1.168c0.112,0,0.205,0.029,0.28,0.088c0.075,0.059,0.128,0.128,0.16,0.208l2.056,5.216
		c0.075,0.192,0.134,0.384,0.176,0.576c0.043,0.192,0.083,0.381,0.121,0.568c0.042-0.187,0.088-0.376,0.136-0.568
		s0.108-0.384,0.184-0.576l2.08-5.216c0.032-0.085,0.084-0.156,0.156-0.212c0.071-0.056,0.161-0.084,0.269-0.084h1.111l-3.305,8.104
		h-1.287L982.488,209.854z"/>
</g>
<g>
	<path d="M903.43,335.852h0.584c0.203,0,0.363-0.024,0.484-0.075c0.119-0.051,0.232-0.138,0.34-0.261l3.815-4.319
		c0.117-0.134,0.231-0.229,0.341-0.284c0.108-0.056,0.248-0.084,0.42-0.084h1.319l-4.368,4.936
		c-0.111,0.123-0.217,0.228-0.316,0.313c-0.098,0.085-0.203,0.154-0.315,0.208c0.149,0.048,0.28,0.12,0.392,0.216
		c0.112,0.096,0.23,0.216,0.353,0.36l4.56,5.432h-1.344c-0.102,0-0.187-0.008-0.256-0.024c-0.069-0.016-0.129-0.037-0.18-0.063
		s-0.098-0.062-0.141-0.104c-0.043-0.042-0.085-0.088-0.128-0.136l-3.96-4.552c-0.059-0.064-0.113-0.119-0.164-0.164
		s-0.109-0.084-0.176-0.116s-0.145-0.055-0.232-0.067c-0.088-0.014-0.195-0.021-0.324-0.021h-0.703v5.248h-1.545v-11.464h1.545
		V335.852z"/>
	<path d="M912.397,342.292v-8.104h0.815c0.155,0,0.262,0.029,0.32,0.088s0.1,0.159,0.12,0.304l0.097,1.264
		c0.277-0.565,0.619-1.007,1.027-1.324c0.408-0.316,0.887-0.476,1.436-0.476c0.225,0,0.428,0.025,0.608,0.076
		c0.182,0.051,0.35,0.121,0.505,0.212l-0.185,1.063c-0.038,0.134-0.12,0.2-0.248,0.2c-0.075,0-0.189-0.025-0.345-0.076
		c-0.154-0.05-0.37-0.075-0.647-0.075c-0.496,0-0.911,0.144-1.243,0.432c-0.334,0.288-0.613,0.707-0.837,1.256v5.16H912.397z"/>
	<path d="M922.126,334.06c0.592,0,1.126,0.1,1.604,0.297s0.883,0.477,1.216,0.84c0.334,0.362,0.59,0.801,0.769,1.315
		s0.269,1.09,0.269,1.725c0,0.64-0.09,1.216-0.269,1.728s-0.435,0.949-0.769,1.313c-0.333,0.362-0.738,0.641-1.216,0.836
		c-0.478,0.194-1.012,0.292-1.604,0.292c-0.593,0-1.127-0.098-1.604-0.292c-0.477-0.195-0.884-0.474-1.22-0.836
		c-0.336-0.363-0.595-0.801-0.776-1.313s-0.271-1.088-0.271-1.728c0-0.635,0.09-1.21,0.271-1.725s0.44-0.953,0.776-1.315
		c0.336-0.363,0.743-0.643,1.22-0.84C920.999,334.159,921.533,334.06,922.126,334.06z M922.126,341.292
		c0.8,0,1.397-0.268,1.792-0.804s0.592-1.284,0.592-2.244c0-0.966-0.197-1.718-0.592-2.256c-0.395-0.539-0.992-0.809-1.792-0.809
		c-0.405,0-0.758,0.069-1.056,0.208c-0.299,0.139-0.549,0.339-0.748,0.601c-0.201,0.261-0.35,0.582-0.449,0.964
		c-0.098,0.381-0.147,0.812-0.147,1.292c0,0.479,0.05,0.909,0.147,1.288c0.1,0.379,0.248,0.697,0.449,0.956
		c0.199,0.259,0.449,0.457,0.748,0.596C921.368,341.223,921.721,341.292,922.126,341.292z"/>
	<path d="M927.742,345.036v-10.848h0.848c0.203,0,0.33,0.099,0.384,0.296l0.12,0.96c0.347-0.422,0.742-0.761,1.188-1.017
		s0.959-0.384,1.541-0.384c0.463,0,0.885,0.09,1.264,0.268c0.379,0.18,0.701,0.443,0.968,0.792c0.267,0.35,0.472,0.783,0.616,1.301
		c0.145,0.517,0.216,1.111,0.216,1.784c0,0.597-0.08,1.153-0.24,1.668c-0.159,0.515-0.39,0.96-0.688,1.336
		c-0.298,0.376-0.664,0.672-1.1,0.888c-0.435,0.216-0.924,0.324-1.468,0.324c-0.501,0-0.929-0.083-1.284-0.248
		c-0.354-0.165-0.668-0.4-0.939-0.704v3.584H927.742z M931.35,335.196c-0.464,0-0.871,0.106-1.22,0.319
		c-0.35,0.214-0.671,0.515-0.964,0.904v3.92c0.261,0.353,0.548,0.601,0.859,0.744c0.313,0.144,0.66,0.216,1.045,0.216
		c0.752,0,1.33-0.27,1.735-0.808c0.405-0.539,0.608-1.307,0.608-2.304c0-0.528-0.047-0.981-0.141-1.36s-0.228-0.689-0.404-0.933
		c-0.176-0.242-0.392-0.42-0.647-0.531C931.966,335.252,931.675,335.196,931.35,335.196z"/>
	<path d="M941.213,335.524c-0.063,0.117-0.162,0.176-0.295,0.176c-0.08,0-0.172-0.029-0.272-0.088
		c-0.102-0.059-0.226-0.124-0.372-0.196s-0.322-0.139-0.523-0.2c-0.203-0.062-0.443-0.092-0.721-0.092
		c-0.24,0-0.456,0.03-0.648,0.092c-0.191,0.062-0.355,0.146-0.492,0.252c-0.135,0.107-0.239,0.231-0.312,0.372
		c-0.071,0.142-0.108,0.295-0.108,0.46c0,0.208,0.061,0.382,0.181,0.521s0.278,0.259,0.476,0.359
		c0.197,0.102,0.422,0.191,0.672,0.269c0.251,0.077,0.508,0.16,0.772,0.248s0.521,0.186,0.772,0.292
		c0.25,0.106,0.475,0.239,0.672,0.399s0.355,0.356,0.476,0.588c0.12,0.232,0.181,0.511,0.181,0.836c0,0.374-0.067,0.719-0.201,1.036
		c-0.133,0.317-0.33,0.593-0.592,0.824c-0.262,0.232-0.581,0.415-0.959,0.548c-0.379,0.134-0.816,0.2-1.313,0.2
		c-0.565,0-1.078-0.092-1.536-0.276c-0.459-0.184-0.849-0.42-1.168-0.708l0.336-0.544c0.042-0.069,0.093-0.122,0.151-0.159
		c0.059-0.038,0.137-0.057,0.232-0.057s0.197,0.037,0.305,0.112c0.105,0.074,0.235,0.157,0.388,0.248
		c0.151,0.091,0.336,0.173,0.552,0.248c0.216,0.074,0.486,0.111,0.813,0.111c0.277,0,0.52-0.035,0.728-0.107
		s0.382-0.169,0.521-0.292s0.24-0.264,0.308-0.424c0.066-0.16,0.101-0.331,0.101-0.513c0-0.224-0.061-0.409-0.181-0.556
		s-0.278-0.271-0.476-0.376c-0.197-0.104-0.424-0.194-0.676-0.271c-0.254-0.078-0.513-0.159-0.777-0.244
		c-0.264-0.086-0.521-0.183-0.775-0.292s-0.479-0.247-0.676-0.412s-0.355-0.369-0.477-0.612c-0.119-0.242-0.18-0.537-0.18-0.884
		c0-0.31,0.064-0.606,0.191-0.893c0.129-0.285,0.315-0.535,0.561-0.752c0.246-0.216,0.547-0.388,0.904-0.516
		s0.766-0.192,1.224-0.192c0.534,0,1.013,0.084,1.437,0.252c0.424,0.169,0.791,0.399,1.1,0.692L941.213,335.524z"/>
	<path d="M945.102,330.508v11.784h-1.424v-11.784H945.102z"/>
	<path d="M949.518,331.644c0,0.14-0.028,0.269-0.084,0.389c-0.057,0.12-0.131,0.227-0.225,0.319
		c-0.094,0.094-0.201,0.167-0.324,0.221c-0.122,0.053-0.253,0.08-0.392,0.08s-0.269-0.027-0.388-0.08
		c-0.12-0.054-0.227-0.127-0.32-0.221c-0.094-0.093-0.166-0.199-0.22-0.319s-0.08-0.249-0.08-0.389c0-0.139,0.026-0.271,0.08-0.396
		s0.126-0.234,0.22-0.328c0.094-0.093,0.2-0.167,0.32-0.22c0.119-0.054,0.249-0.08,0.388-0.08s0.27,0.026,0.392,0.08
		c0.123,0.053,0.23,0.127,0.324,0.22c0.094,0.094,0.168,0.203,0.225,0.328C949.489,331.373,949.518,331.505,949.518,331.644z
		 M949.197,334.188v8.104h-1.424v-8.104H949.197z"/>
	<path d="M954.438,334.052c0.352,0,0.681,0.039,0.987,0.116s0.585,0.19,0.837,0.34h2.199v0.528c0,0.176-0.111,0.288-0.336,0.336
		l-0.92,0.128c0.182,0.347,0.271,0.733,0.271,1.16c0,0.395-0.076,0.753-0.228,1.076c-0.151,0.322-0.362,0.599-0.632,0.828
		c-0.27,0.229-0.59,0.405-0.96,0.527c-0.371,0.123-0.777,0.185-1.22,0.185c-0.379,0-0.736-0.046-1.072-0.137
		c-0.171,0.107-0.301,0.222-0.389,0.345c-0.088,0.122-0.131,0.242-0.131,0.359c0,0.192,0.076,0.338,0.231,0.437
		c0.154,0.099,0.36,0.169,0.616,0.212s0.547,0.069,0.871,0.08c0.326,0.011,0.658,0.027,0.996,0.052
		c0.339,0.024,0.671,0.065,0.996,0.124c0.326,0.059,0.616,0.154,0.873,0.288c0.256,0.133,0.461,0.317,0.615,0.552
		s0.232,0.539,0.232,0.912c0,0.347-0.087,0.683-0.26,1.008c-0.174,0.325-0.424,0.615-0.748,0.868
		c-0.326,0.253-0.723,0.456-1.192,0.608c-0.47,0.151-1,0.228-1.593,0.228c-0.592,0-1.11-0.059-1.555-0.176
		c-0.446-0.117-0.815-0.274-1.109-0.472c-0.293-0.198-0.513-0.426-0.659-0.685c-0.147-0.259-0.22-0.529-0.22-0.812
		c0-0.4,0.127-0.74,0.379-1.021c0.254-0.28,0.602-0.503,1.045-0.668c-0.229-0.106-0.412-0.249-0.549-0.428
		c-0.135-0.179-0.203-0.417-0.203-0.716c0-0.117,0.021-0.239,0.064-0.364c0.042-0.125,0.107-0.249,0.195-0.372
		s0.195-0.24,0.324-0.352c0.128-0.112,0.277-0.211,0.447-0.297c-0.399-0.224-0.713-0.521-0.939-0.892
		c-0.227-0.37-0.34-0.804-0.34-1.3c0-0.395,0.076-0.753,0.228-1.076c0.152-0.322,0.364-0.598,0.636-0.824
		c0.272-0.227,0.597-0.401,0.973-0.523C953.577,334.113,953.989,334.052,954.438,334.052z M956.965,342.732
		c0-0.203-0.056-0.366-0.168-0.488c-0.111-0.123-0.264-0.218-0.456-0.284s-0.413-0.116-0.663-0.148
		c-0.252-0.031-0.516-0.054-0.793-0.067s-0.56-0.028-0.848-0.044c-0.288-0.017-0.563-0.046-0.824-0.088
		c-0.304,0.144-0.551,0.319-0.74,0.527s-0.283,0.456-0.283,0.744c0,0.182,0.047,0.351,0.14,0.508s0.235,0.294,0.428,0.408
		c0.192,0.115,0.434,0.205,0.724,0.272c0.291,0.066,0.634,0.1,1.028,0.1c0.384,0,0.728-0.034,1.032-0.104s0.561-0.168,0.771-0.296
		c0.211-0.129,0.373-0.28,0.484-0.456C956.909,343.14,956.965,342.945,956.965,342.732z M954.438,338.332
		c0.287,0,0.542-0.04,0.764-0.12c0.221-0.08,0.406-0.192,0.556-0.336s0.261-0.316,0.336-0.516c0.075-0.2,0.112-0.42,0.112-0.66
		c0-0.496-0.15-0.891-0.452-1.185c-0.302-0.293-0.739-0.439-1.315-0.439c-0.571,0-1.008,0.146-1.309,0.439
		c-0.301,0.294-0.451,0.688-0.451,1.185c0,0.24,0.038,0.46,0.115,0.66c0.077,0.199,0.19,0.372,0.34,0.516s0.334,0.256,0.553,0.336
		S954.154,338.332,954.438,338.332z"/>
	<path d="M906.142,354.725c-0.063,0.117-0.163,0.176-0.296,0.176c-0.08,0-0.171-0.029-0.271-0.088
		c-0.102-0.059-0.227-0.124-0.373-0.196s-0.321-0.139-0.523-0.2c-0.203-0.062-0.443-0.092-0.721-0.092
		c-0.24,0-0.455,0.03-0.647,0.092s-0.356,0.146-0.492,0.252c-0.136,0.107-0.239,0.231-0.312,0.372
		c-0.072,0.142-0.108,0.295-0.108,0.46c0,0.208,0.06,0.382,0.181,0.521c0.119,0.139,0.277,0.259,0.476,0.359
		c0.197,0.102,0.421,0.191,0.672,0.269s0.508,0.16,0.772,0.248c0.264,0.088,0.521,0.186,0.771,0.292
		c0.25,0.106,0.475,0.239,0.672,0.399s0.355,0.356,0.477,0.588c0.119,0.232,0.18,0.511,0.18,0.836c0,0.374-0.066,0.719-0.2,1.036
		s-0.331,0.593-0.592,0.824c-0.262,0.232-0.581,0.415-0.96,0.548c-0.379,0.134-0.816,0.2-1.313,0.2
		c-0.564,0-1.077-0.092-1.535-0.276c-0.459-0.184-0.849-0.42-1.168-0.708l0.336-0.544c0.042-0.069,0.093-0.122,0.151-0.159
		c0.059-0.038,0.136-0.057,0.231-0.057c0.097,0,0.197,0.037,0.305,0.112c0.106,0.074,0.236,0.157,0.389,0.248
		c0.151,0.091,0.336,0.173,0.551,0.248c0.217,0.074,0.487,0.111,0.813,0.111c0.277,0,0.52-0.035,0.729-0.107
		c0.207-0.072,0.381-0.169,0.52-0.292s0.241-0.264,0.309-0.424c0.066-0.16,0.1-0.331,0.1-0.513c0-0.224-0.061-0.409-0.18-0.556
		c-0.121-0.146-0.279-0.271-0.477-0.376c-0.197-0.104-0.423-0.194-0.676-0.271c-0.254-0.078-0.512-0.159-0.776-0.244
		c-0.264-0.086-0.522-0.183-0.776-0.292c-0.253-0.109-0.479-0.247-0.676-0.412s-0.355-0.369-0.476-0.612
		c-0.12-0.242-0.181-0.537-0.181-0.884c0-0.31,0.064-0.606,0.192-0.893c0.128-0.285,0.315-0.535,0.56-0.752
		c0.246-0.216,0.547-0.388,0.904-0.516s0.766-0.192,1.225-0.192c0.533,0,1.012,0.084,1.436,0.252c0.424,0.169,0.791,0.399,1.1,0.692
		L906.142,354.725z"/>
	<path d="M910.901,361.62c-0.64,0-1.132-0.179-1.476-0.536s-0.517-0.872-0.517-1.544v-4.96h-0.976c-0.086,0-0.158-0.025-0.217-0.076
		s-0.088-0.129-0.088-0.235V353.7l1.328-0.168l0.328-2.504c0.011-0.08,0.045-0.146,0.104-0.196s0.134-0.076,0.225-0.076h0.721v2.792
		h2.319v1.032h-2.319v4.864c0,0.341,0.082,0.595,0.248,0.76c0.164,0.165,0.378,0.248,0.639,0.248c0.15,0,0.279-0.02,0.389-0.06
		s0.204-0.084,0.284-0.133c0.079-0.048,0.147-0.092,0.204-0.132c0.056-0.04,0.105-0.06,0.147-0.06c0.075,0,0.142,0.045,0.2,0.136
		l0.416,0.68c-0.245,0.229-0.541,0.41-0.889,0.54C911.627,361.555,911.27,361.62,910.901,361.62z"/>
	<path d="M914.413,361.492v-8.104h0.815c0.155,0,0.262,0.029,0.32,0.088s0.1,0.159,0.12,0.304l0.097,1.264
		c0.277-0.565,0.619-1.007,1.027-1.324c0.408-0.316,0.887-0.476,1.436-0.476c0.225,0,0.428,0.025,0.608,0.076
		c0.182,0.051,0.35,0.121,0.505,0.212l-0.185,1.063c-0.038,0.134-0.12,0.2-0.248,0.2c-0.075,0-0.189-0.025-0.345-0.076
		c-0.154-0.05-0.37-0.075-0.647-0.075c-0.496,0-0.911,0.144-1.243,0.432c-0.334,0.288-0.613,0.707-0.837,1.256v5.16H914.413z"/>
	<path d="M924.069,353.26c0.485,0,0.933,0.082,1.345,0.244c0.41,0.163,0.765,0.397,1.063,0.704c0.298,0.307,0.532,0.686,0.7,1.136
		c0.168,0.451,0.252,0.965,0.252,1.54c0,0.225-0.024,0.374-0.072,0.448c-0.048,0.075-0.139,0.112-0.271,0.112h-5.393
		c0.011,0.512,0.08,0.957,0.208,1.336s0.304,0.694,0.528,0.948c0.224,0.253,0.49,0.442,0.8,0.567c0.31,0.126,0.655,0.188,1.04,0.188
		c0.357,0,0.665-0.041,0.924-0.124s0.481-0.172,0.668-0.269c0.187-0.096,0.343-0.185,0.469-0.268
		c0.125-0.083,0.232-0.124,0.323-0.124c0.117,0,0.208,0.045,0.272,0.136l0.399,0.521c-0.176,0.213-0.387,0.398-0.632,0.556
		c-0.246,0.157-0.508,0.287-0.788,0.388c-0.28,0.102-0.569,0.178-0.868,0.229s-0.595,0.076-0.888,0.076
		c-0.56,0-1.076-0.095-1.548-0.284c-0.473-0.189-0.881-0.467-1.225-0.832s-0.611-0.817-0.804-1.356
		c-0.192-0.538-0.288-1.157-0.288-1.855c0-0.565,0.087-1.094,0.26-1.584c0.174-0.491,0.423-0.916,0.748-1.276
		c0.326-0.359,0.723-0.643,1.192-0.848S923.482,353.26,924.069,353.26z M924.102,354.309c-0.688,0-1.229,0.198-1.624,0.596
		c-0.396,0.397-0.64,0.948-0.736,1.652h4.408c0-0.331-0.046-0.634-0.136-0.908c-0.091-0.274-0.225-0.513-0.4-0.712
		c-0.176-0.2-0.391-0.354-0.645-0.464C924.716,354.363,924.427,354.309,924.102,354.309z"/>
	<path d="M933.885,354.725c-0.063,0.117-0.162,0.176-0.295,0.176c-0.08,0-0.172-0.029-0.272-0.088
		c-0.102-0.059-0.226-0.124-0.372-0.196s-0.322-0.139-0.523-0.2c-0.203-0.062-0.443-0.092-0.721-0.092
		c-0.24,0-0.456,0.03-0.648,0.092c-0.191,0.062-0.355,0.146-0.492,0.252c-0.135,0.107-0.239,0.231-0.312,0.372
		c-0.071,0.142-0.108,0.295-0.108,0.46c0,0.208,0.061,0.382,0.181,0.521s0.278,0.259,0.476,0.359
		c0.197,0.102,0.422,0.191,0.672,0.269c0.251,0.077,0.508,0.16,0.772,0.248s0.521,0.186,0.772,0.292
		c0.25,0.106,0.475,0.239,0.672,0.399s0.355,0.356,0.476,0.588c0.12,0.232,0.181,0.511,0.181,0.836c0,0.374-0.067,0.719-0.201,1.036
		c-0.133,0.317-0.33,0.593-0.592,0.824c-0.262,0.232-0.581,0.415-0.959,0.548c-0.379,0.134-0.816,0.2-1.313,0.2
		c-0.565,0-1.078-0.092-1.536-0.276c-0.459-0.184-0.849-0.42-1.168-0.708l0.336-0.544c0.042-0.069,0.093-0.122,0.151-0.159
		c0.059-0.038,0.137-0.057,0.232-0.057s0.197,0.037,0.305,0.112c0.105,0.074,0.235,0.157,0.388,0.248
		c0.151,0.091,0.336,0.173,0.552,0.248c0.216,0.074,0.486,0.111,0.813,0.111c0.277,0,0.52-0.035,0.728-0.107
		s0.382-0.169,0.521-0.292s0.24-0.264,0.308-0.424c0.066-0.16,0.101-0.331,0.101-0.513c0-0.224-0.061-0.409-0.181-0.556
		s-0.278-0.271-0.476-0.376c-0.197-0.104-0.424-0.194-0.676-0.271c-0.254-0.078-0.513-0.159-0.777-0.244
		c-0.264-0.086-0.521-0.183-0.775-0.292s-0.479-0.247-0.676-0.412s-0.355-0.369-0.477-0.612c-0.119-0.242-0.18-0.537-0.18-0.884
		c0-0.31,0.064-0.606,0.191-0.893c0.129-0.285,0.315-0.535,0.561-0.752c0.246-0.216,0.547-0.388,0.904-0.516
		s0.766-0.192,1.224-0.192c0.534,0,1.013,0.084,1.437,0.252c0.424,0.169,0.791,0.399,1.1,0.692L933.885,354.725z"/>
	<path d="M940.829,354.725c-0.063,0.117-0.163,0.176-0.296,0.176c-0.08,0-0.171-0.029-0.271-0.088
		c-0.102-0.059-0.227-0.124-0.373-0.196s-0.321-0.139-0.523-0.2c-0.203-0.062-0.443-0.092-0.721-0.092
		c-0.24,0-0.455,0.03-0.647,0.092s-0.356,0.146-0.492,0.252c-0.136,0.107-0.239,0.231-0.312,0.372
		c-0.072,0.142-0.108,0.295-0.108,0.46c0,0.208,0.06,0.382,0.181,0.521c0.119,0.139,0.277,0.259,0.476,0.359
		c0.197,0.102,0.421,0.191,0.672,0.269s0.508,0.16,0.772,0.248c0.264,0.088,0.521,0.186,0.771,0.292
		c0.25,0.106,0.475,0.239,0.672,0.399s0.355,0.356,0.477,0.588c0.119,0.232,0.18,0.511,0.18,0.836c0,0.374-0.066,0.719-0.2,1.036
		s-0.331,0.593-0.592,0.824c-0.262,0.232-0.581,0.415-0.96,0.548c-0.379,0.134-0.816,0.2-1.313,0.2
		c-0.564,0-1.077-0.092-1.535-0.276c-0.459-0.184-0.849-0.42-1.168-0.708l0.336-0.544c0.042-0.069,0.093-0.122,0.151-0.159
		c0.059-0.038,0.136-0.057,0.231-0.057c0.097,0,0.197,0.037,0.305,0.112c0.106,0.074,0.236,0.157,0.389,0.248
		c0.151,0.091,0.336,0.173,0.551,0.248c0.217,0.074,0.487,0.111,0.813,0.111c0.277,0,0.52-0.035,0.729-0.107
		c0.207-0.072,0.381-0.169,0.52-0.292s0.241-0.264,0.309-0.424c0.066-0.16,0.1-0.331,0.1-0.513c0-0.224-0.061-0.409-0.18-0.556
		c-0.121-0.146-0.279-0.271-0.477-0.376c-0.197-0.104-0.423-0.194-0.676-0.271c-0.254-0.078-0.512-0.159-0.776-0.244
		c-0.264-0.086-0.522-0.183-0.776-0.292c-0.253-0.109-0.479-0.247-0.676-0.412s-0.355-0.369-0.476-0.612
		c-0.12-0.242-0.181-0.537-0.181-0.884c0-0.31,0.064-0.606,0.192-0.893c0.128-0.285,0.315-0.535,0.56-0.752
		c0.246-0.216,0.547-0.388,0.904-0.516s0.766-0.192,1.225-0.192c0.533,0,1.012,0.084,1.436,0.252c0.424,0.169,0.791,0.399,1.1,0.692
		L940.829,354.725z"/>
	<path d="M945.589,361.62c-0.64,0-1.132-0.179-1.476-0.536s-0.517-0.872-0.517-1.544v-4.96h-0.976c-0.086,0-0.158-0.025-0.217-0.076
		s-0.088-0.129-0.088-0.235V353.7l1.328-0.168l0.328-2.504c0.011-0.08,0.045-0.146,0.104-0.196s0.134-0.076,0.225-0.076h0.721v2.792
		h2.319v1.032h-2.319v4.864c0,0.341,0.082,0.595,0.248,0.76c0.164,0.165,0.378,0.248,0.639,0.248c0.15,0,0.279-0.02,0.389-0.06
		s0.204-0.084,0.284-0.133c0.079-0.048,0.147-0.092,0.204-0.132c0.056-0.04,0.105-0.06,0.147-0.06c0.075,0,0.142,0.045,0.2,0.136
		l0.416,0.68c-0.245,0.229-0.541,0.41-0.889,0.54C946.314,361.555,945.957,361.62,945.589,361.62z"/>
	<path d="M951.004,350.844c0,0.14-0.027,0.269-0.084,0.389c-0.055,0.12-0.13,0.227-0.223,0.319
		c-0.094,0.094-0.202,0.167-0.324,0.221c-0.123,0.053-0.254,0.08-0.393,0.08s-0.268-0.027-0.388-0.08
		c-0.12-0.054-0.228-0.127-0.32-0.221c-0.093-0.093-0.167-0.199-0.22-0.319c-0.054-0.12-0.08-0.249-0.08-0.389
		c0-0.139,0.026-0.271,0.08-0.396c0.053-0.125,0.127-0.234,0.22-0.328c0.093-0.093,0.2-0.167,0.32-0.22
		c0.12-0.054,0.249-0.08,0.388-0.08s0.27,0.026,0.393,0.08c0.122,0.053,0.23,0.127,0.324,0.22c0.093,0.094,0.168,0.203,0.223,0.328
		C950.977,350.573,951.004,350.705,951.004,350.844z M950.685,353.389v8.104h-1.424v-8.104H950.685z"/>
	<path d="M954.78,349.708v11.784h-1.424v-11.784H954.78z"/>
	<path d="M961.932,354.725c-0.063,0.117-0.162,0.176-0.295,0.176c-0.08,0-0.172-0.029-0.272-0.088
		c-0.102-0.059-0.226-0.124-0.372-0.196s-0.322-0.139-0.523-0.2c-0.203-0.062-0.443-0.092-0.721-0.092
		c-0.24,0-0.456,0.03-0.648,0.092c-0.191,0.062-0.355,0.146-0.492,0.252c-0.135,0.107-0.239,0.231-0.312,0.372
		c-0.071,0.142-0.108,0.295-0.108,0.46c0,0.208,0.061,0.382,0.181,0.521s0.278,0.259,0.476,0.359
		c0.197,0.102,0.422,0.191,0.672,0.269c0.251,0.077,0.508,0.16,0.772,0.248s0.521,0.186,0.772,0.292
		c0.25,0.106,0.475,0.239,0.672,0.399s0.355,0.356,0.476,0.588c0.12,0.232,0.181,0.511,0.181,0.836c0,0.374-0.067,0.719-0.201,1.036
		c-0.133,0.317-0.33,0.593-0.592,0.824c-0.262,0.232-0.581,0.415-0.959,0.548c-0.379,0.134-0.816,0.2-1.313,0.2
		c-0.565,0-1.078-0.092-1.536-0.276c-0.459-0.184-0.849-0.42-1.168-0.708l0.336-0.544c0.042-0.069,0.093-0.122,0.151-0.159
		c0.059-0.038,0.137-0.057,0.232-0.057s0.197,0.037,0.305,0.112c0.105,0.074,0.235,0.157,0.388,0.248
		c0.151,0.091,0.336,0.173,0.552,0.248c0.216,0.074,0.486,0.111,0.813,0.111c0.277,0,0.52-0.035,0.728-0.107
		s0.382-0.169,0.521-0.292s0.24-0.264,0.308-0.424c0.066-0.16,0.101-0.331,0.101-0.513c0-0.224-0.061-0.409-0.181-0.556
		s-0.278-0.271-0.476-0.376c-0.197-0.104-0.424-0.194-0.676-0.271c-0.254-0.078-0.513-0.159-0.777-0.244
		c-0.264-0.086-0.521-0.183-0.775-0.292s-0.479-0.247-0.676-0.412s-0.355-0.369-0.477-0.612c-0.119-0.242-0.18-0.537-0.18-0.884
		c0-0.31,0.064-0.606,0.191-0.893c0.129-0.285,0.315-0.535,0.561-0.752c0.246-0.216,0.547-0.388,0.904-0.516
		s0.766-0.192,1.224-0.192c0.534,0,1.013,0.084,1.437,0.252c0.424,0.169,0.791,0.399,1.1,0.692L961.932,354.725z"/>
	<path d="M966.691,361.62c-0.64,0-1.131-0.179-1.476-0.536c-0.344-0.357-0.517-0.872-0.517-1.544v-4.96h-0.976
		c-0.085,0-0.157-0.025-0.216-0.076s-0.088-0.129-0.088-0.235V353.7l1.328-0.168l0.328-2.504c0.01-0.08,0.045-0.146,0.104-0.196
		s0.133-0.076,0.225-0.076h0.72v2.792h2.319v1.032h-2.319v4.864c0,0.341,0.083,0.595,0.248,0.76s0.378,0.248,0.64,0.248
		c0.149,0,0.279-0.02,0.389-0.06s0.203-0.084,0.283-0.133c0.08-0.048,0.148-0.092,0.204-0.132s0.105-0.06,0.147-0.06
		c0.075,0,0.143,0.045,0.201,0.136l0.416,0.68c-0.246,0.229-0.542,0.41-0.889,0.54C967.417,361.555,967.061,361.62,966.691,361.62z"
		/>
	<path d="M976.156,361.492h-0.633c-0.139,0-0.25-0.021-0.336-0.064c-0.086-0.042-0.141-0.133-0.168-0.271l-0.16-0.752
		c-0.213,0.191-0.421,0.364-0.623,0.516c-0.203,0.152-0.416,0.28-0.641,0.384c-0.225,0.104-0.463,0.184-0.716,0.236
		c-0.253,0.054-0.535,0.08-0.845,0.08c-0.314,0-0.609-0.044-0.883-0.132c-0.275-0.088-0.514-0.22-0.717-0.396
		c-0.203-0.176-0.363-0.398-0.484-0.668c-0.119-0.269-0.18-0.588-0.18-0.956c0-0.319,0.088-0.628,0.264-0.924
		s0.461-0.559,0.853-0.788c0.392-0.229,0.905-0.417,1.54-0.563s1.41-0.23,2.328-0.252v-0.632c0-0.63-0.135-1.105-0.404-1.429
		c-0.27-0.322-0.668-0.483-1.195-0.483c-0.348,0-0.639,0.044-0.877,0.132c-0.236,0.088-0.442,0.187-0.615,0.296
		c-0.174,0.109-0.323,0.208-0.448,0.296c-0.126,0.088-0.249,0.132-0.372,0.132c-0.096,0-0.18-0.025-0.252-0.076
		c-0.072-0.05-0.129-0.113-0.172-0.188l-0.256-0.456c0.447-0.432,0.93-0.755,1.447-0.968c0.518-0.214,1.091-0.32,1.721-0.32
		c0.453,0,0.855,0.075,1.207,0.224c0.353,0.149,0.648,0.357,0.889,0.624c0.24,0.268,0.422,0.59,0.544,0.969
		c0.122,0.378,0.185,0.794,0.185,1.248V361.492z M972.459,360.62c0.252,0,0.48-0.025,0.688-0.076s0.404-0.122,0.589-0.216
		c0.184-0.093,0.359-0.207,0.527-0.34c0.168-0.134,0.332-0.285,0.492-0.456v-1.688c-0.656,0.021-1.213,0.074-1.672,0.156
		c-0.459,0.083-0.832,0.191-1.12,0.324c-0.288,0.134-0.497,0.291-0.628,0.472c-0.131,0.182-0.196,0.385-0.196,0.608
		c0,0.213,0.034,0.397,0.104,0.552c0.068,0.155,0.162,0.281,0.279,0.38s0.256,0.171,0.416,0.216
		C972.1,360.598,972.273,360.62,972.459,360.62z"/>
	<path d="M978.315,361.492v-8.104h0.849c0.202,0,0.33,0.099,0.383,0.296l0.113,0.88c0.352-0.39,0.744-0.704,1.18-0.944
		c0.434-0.24,0.938-0.36,1.508-0.36c0.442,0,0.833,0.074,1.172,0.221c0.338,0.146,0.621,0.354,0.848,0.624s0.398,0.593,0.516,0.972
		s0.177,0.798,0.177,1.256v5.16h-1.425v-5.16c0-0.613-0.139-1.089-0.42-1.428c-0.279-0.339-0.707-0.508-1.283-0.508
		c-0.422,0-0.814,0.102-1.18,0.304c-0.365,0.203-0.703,0.478-1.013,0.824v5.968H978.315z"/>
	<path d="M992.916,361.492c-0.203,0-0.332-0.099-0.385-0.296l-0.128-0.984c-0.347,0.422-0.743,0.759-1.188,1.013
		c-0.445,0.253-0.955,0.38-1.531,0.38c-0.465,0-0.886-0.09-1.264-0.269c-0.379-0.179-0.701-0.441-0.969-0.788
		c-0.267-0.347-0.472-0.778-0.615-1.296c-0.145-0.517-0.217-1.111-0.217-1.784c0-0.597,0.08-1.153,0.24-1.668
		s0.391-0.961,0.691-1.34c0.302-0.378,0.668-0.676,1.101-0.892s0.923-0.324,1.472-0.324c0.496,0,0.92,0.084,1.272,0.252
		s0.667,0.404,0.944,0.708v-4.496h1.424v11.784H992.916z M990.155,360.452c0.464,0,0.87-0.106,1.22-0.32
		c0.35-0.213,0.671-0.515,0.965-0.903v-3.92c-0.262-0.353-0.549-0.599-0.86-0.74s-0.657-0.212-1.036-0.212
		c-0.758,0-1.339,0.27-1.744,0.808c-0.405,0.539-0.607,1.307-0.607,2.304c0,0.528,0.045,0.98,0.136,1.356s0.224,0.686,0.399,0.928
		c0.176,0.243,0.393,0.42,0.648,0.532S989.824,360.452,990.155,360.452z"/>
</g>
<g>
	<path d="M244.264,273.87c-0.048,0.08-0.099,0.14-0.152,0.18s-0.123,0.061-0.208,0.061c-0.09,0-0.196-0.046-0.316-0.137
		c-0.12-0.09-0.272-0.19-0.456-0.3c-0.184-0.109-0.405-0.209-0.664-0.3c-0.258-0.091-0.572-0.136-0.94-0.136
		c-0.347,0-0.653,0.047-0.92,0.14c-0.267,0.094-0.489,0.22-0.668,0.38s-0.313,0.349-0.404,0.564c-0.091,0.216-0.136,0.449-0.136,0.7
		c0,0.319,0.079,0.585,0.236,0.796c0.157,0.21,0.365,0.391,0.624,0.54c0.259,0.149,0.552,0.278,0.88,0.388
		c0.328,0.109,0.664,0.223,1.008,0.34c0.344,0.117,0.68,0.249,1.008,0.396c0.328,0.146,0.622,0.332,0.88,0.556
		c0.258,0.224,0.466,0.499,0.624,0.824c0.157,0.325,0.236,0.725,0.236,1.199c0,0.502-0.085,0.973-0.256,1.412
		c-0.171,0.44-0.42,0.823-0.748,1.148s-0.731,0.581-1.208,0.768c-0.478,0.187-1.02,0.28-1.628,0.28
		c-0.742,0-1.417-0.135-2.028-0.404c-0.61-0.269-1.132-0.633-1.564-1.092l0.448-0.735c0.042-0.06,0.095-0.108,0.156-0.148
		c0.062-0.04,0.129-0.06,0.204-0.06c0.112,0,0.24,0.06,0.384,0.18c0.144,0.12,0.324,0.252,0.54,0.396
		c0.216,0.145,0.478,0.276,0.784,0.396s0.681,0.18,1.124,0.18c0.368,0,0.696-0.051,0.984-0.151c0.288-0.102,0.532-0.244,0.732-0.429
		c0.2-0.184,0.354-0.403,0.46-0.66c0.107-0.256,0.16-0.541,0.16-0.855c0-0.347-0.079-0.631-0.236-0.853
		c-0.158-0.221-0.364-0.406-0.62-0.556s-0.548-0.276-0.876-0.38c-0.328-0.104-0.664-0.211-1.008-0.32
		c-0.344-0.109-0.68-0.235-1.008-0.38c-0.328-0.144-0.62-0.33-0.876-0.56s-0.463-0.517-0.62-0.86s-0.236-0.77-0.236-1.276
		c0-0.405,0.079-0.797,0.236-1.176c0.157-0.378,0.385-0.715,0.684-1.008s0.668-0.528,1.108-0.704
		c0.44-0.176,0.945-0.264,1.516-0.264c0.64,0,1.224,0.102,1.752,0.304c0.528,0.203,0.989,0.496,1.384,0.88L244.264,273.87z"/>
	<path d="M249.104,283.67c-0.64,0-1.132-0.179-1.476-0.536c-0.344-0.357-0.516-0.872-0.516-1.544v-4.96h-0.976
		c-0.085,0-0.157-0.025-0.216-0.076s-0.088-0.129-0.088-0.235v-0.568l1.328-0.168l0.328-2.504c0.011-0.08,0.045-0.146,0.104-0.196
		s0.133-0.076,0.224-0.076h0.72v2.792h2.32v1.032h-2.32v4.864c0,0.341,0.083,0.595,0.248,0.76c0.165,0.165,0.378,0.248,0.64,0.248
		c0.149,0,0.279-0.02,0.388-0.06s0.204-0.084,0.284-0.133c0.08-0.048,0.148-0.092,0.204-0.132c0.056-0.04,0.105-0.06,0.148-0.06
		c0.075,0,0.142,0.045,0.2,0.136l0.416,0.68c-0.245,0.229-0.542,0.41-0.888,0.54C249.829,283.604,249.472,283.67,249.104,283.67z"/>
	<path d="M258.744,276.47c0.325,0.363,0.576,0.799,0.752,1.309c0.176,0.509,0.264,1.078,0.264,1.708c0,0.64-0.089,1.216-0.268,1.728
		s-0.435,0.949-0.768,1.313c-0.333,0.362-0.739,0.641-1.216,0.836c-0.478,0.194-1.012,0.292-1.604,0.292
		c-0.405,0-0.783-0.046-1.132-0.137c-0.35-0.09-0.668-0.221-0.956-0.392l-0.44,0.592c-0.118,0.155-0.255,0.266-0.412,0.332
		c-0.158,0.066-0.313,0.101-0.468,0.101h-0.536l1.16-1.568c-0.352-0.368-0.621-0.811-0.808-1.328
		c-0.187-0.518-0.28-1.106-0.28-1.768c0-0.635,0.091-1.21,0.272-1.725s0.44-0.953,0.776-1.315c0.336-0.363,0.743-0.643,1.22-0.84
		c0.477-0.197,1.012-0.297,1.604-0.297c0.421,0,0.812,0.051,1.172,0.152s0.689,0.245,0.988,0.432l0.544-0.728
		c0.106-0.144,0.203-0.247,0.288-0.308c0.085-0.062,0.213-0.093,0.384-0.093H260L258.744,276.47z M253.416,279.491
		c0,0.854,0.158,1.541,0.472,2.059l3.488-4.728c-0.39-0.299-0.88-0.448-1.472-0.448c-0.405,0-0.763,0.072-1.072,0.217
		c-0.309,0.144-0.569,0.35-0.78,0.616c-0.211,0.268-0.369,0.595-0.476,0.981C253.469,278.576,253.416,279.01,253.416,279.491z
		 M255.904,282.59c0.4,0,0.753-0.07,1.06-0.212s0.565-0.346,0.776-0.613c0.21-0.267,0.369-0.592,0.476-0.974
		c0.106-0.382,0.16-0.813,0.16-1.294c0-0.807-0.139-1.466-0.416-1.979l-3.464,4.688C254.869,282.462,255.338,282.59,255.904,282.59z
		"/>
	<path d="M261.512,283.542v-8.104h0.816c0.155,0,0.261,0.029,0.32,0.088c0.059,0.059,0.099,0.159,0.12,0.304l0.096,1.264
		c0.277-0.565,0.62-1.007,1.028-1.324c0.408-0.316,0.887-0.476,1.436-0.476c0.224,0,0.427,0.025,0.608,0.076
		c0.182,0.051,0.35,0.121,0.504,0.212l-0.184,1.063c-0.038,0.134-0.12,0.2-0.248,0.2c-0.075,0-0.189-0.025-0.344-0.076
		c-0.155-0.05-0.371-0.075-0.648-0.075c-0.496,0-0.911,0.144-1.244,0.432c-0.333,0.288-0.612,0.707-0.836,1.256v5.16H261.512z"/>
	<path d="M267.96,283.542v-8.104h0.816c0.155,0,0.261,0.029,0.32,0.088c0.059,0.059,0.099,0.159,0.12,0.304l0.096,1.264
		c0.277-0.565,0.62-1.007,1.028-1.324c0.408-0.316,0.887-0.476,1.436-0.476c0.224,0,0.427,0.025,0.608,0.076
		c0.182,0.051,0.35,0.121,0.504,0.212l-0.184,1.063c-0.038,0.134-0.12,0.2-0.248,0.2c-0.075,0-0.189-0.025-0.344-0.076
		c-0.155-0.05-0.371-0.075-0.648-0.075c-0.496,0-0.911,0.144-1.244,0.432c-0.333,0.288-0.612,0.707-0.836,1.256v5.16H267.96z"/>
	<path d="M277.616,275.31c0.485,0,0.933,0.082,1.344,0.244c0.411,0.163,0.765,0.397,1.064,0.704c0.298,0.307,0.532,0.686,0.7,1.136
		c0.168,0.451,0.252,0.965,0.252,1.54c0,0.225-0.024,0.374-0.072,0.448c-0.048,0.075-0.139,0.112-0.272,0.112h-5.392
		c0.011,0.512,0.08,0.957,0.208,1.336s0.304,0.694,0.528,0.948c0.224,0.253,0.491,0.442,0.8,0.567
		c0.309,0.126,0.656,0.188,1.04,0.188c0.357,0,0.665-0.041,0.924-0.124s0.481-0.172,0.668-0.269
		c0.187-0.096,0.343-0.185,0.468-0.268c0.125-0.083,0.233-0.124,0.324-0.124c0.117,0,0.208,0.045,0.272,0.136l0.4,0.521
		c-0.176,0.213-0.387,0.398-0.632,0.556c-0.246,0.157-0.508,0.287-0.788,0.388c-0.28,0.102-0.569,0.178-0.868,0.229
		c-0.299,0.051-0.595,0.076-0.888,0.076c-0.56,0-1.076-0.095-1.548-0.284c-0.472-0.189-0.88-0.467-1.224-0.832
		c-0.344-0.365-0.612-0.817-0.804-1.356c-0.192-0.538-0.288-1.157-0.288-1.855c0-0.565,0.087-1.094,0.26-1.584
		c0.173-0.491,0.422-0.916,0.748-1.276c0.325-0.359,0.723-0.643,1.192-0.848S277.029,275.31,277.616,275.31z M277.648,276.358
		c-0.688,0-1.229,0.198-1.624,0.596c-0.395,0.397-0.64,0.948-0.736,1.652h4.408c0-0.331-0.045-0.634-0.136-0.908
		c-0.09-0.274-0.224-0.513-0.4-0.712c-0.176-0.2-0.391-0.354-0.644-0.464S277.974,276.358,277.648,276.358z"/>
	<path d="M289.088,275.31c0.485,0,0.933,0.082,1.344,0.244c0.411,0.163,0.765,0.397,1.064,0.704c0.298,0.307,0.532,0.686,0.7,1.136
		c0.168,0.451,0.252,0.965,0.252,1.54c0,0.225-0.024,0.374-0.072,0.448c-0.048,0.075-0.139,0.112-0.272,0.112h-5.392
		c0.011,0.512,0.08,0.957,0.208,1.336s0.304,0.694,0.528,0.948c0.224,0.253,0.491,0.442,0.8,0.567
		c0.309,0.126,0.656,0.188,1.04,0.188c0.357,0,0.665-0.041,0.924-0.124s0.481-0.172,0.668-0.269
		c0.187-0.096,0.343-0.185,0.468-0.268c0.125-0.083,0.233-0.124,0.324-0.124c0.117,0,0.208,0.045,0.272,0.136l0.4,0.521
		c-0.176,0.213-0.387,0.398-0.632,0.556c-0.246,0.157-0.508,0.287-0.788,0.388c-0.28,0.102-0.569,0.178-0.868,0.229
		c-0.299,0.051-0.595,0.076-0.888,0.076c-0.56,0-1.076-0.095-1.548-0.284c-0.472-0.189-0.88-0.467-1.224-0.832
		c-0.344-0.365-0.612-0.817-0.804-1.356c-0.192-0.538-0.288-1.157-0.288-1.855c0-0.565,0.087-1.094,0.26-1.584
		c0.173-0.491,0.422-0.916,0.748-1.276c0.325-0.359,0.723-0.643,1.192-0.848S288.501,275.31,289.088,275.31z M289.12,276.358
		c-0.688,0-1.229,0.198-1.624,0.596c-0.395,0.397-0.64,0.948-0.736,1.652h4.408c0-0.331-0.045-0.634-0.136-0.908
		c-0.09-0.274-0.224-0.513-0.4-0.712c-0.176-0.2-0.391-0.354-0.644-0.464S289.445,276.358,289.12,276.358z"/>
	<path d="M295.848,271.758v11.784h-1.424v-11.784H295.848z"/>
	<path d="M299.943,271.758v11.784h-1.424v-11.784H299.943z"/>
	<path d="M305.663,275.31c0.485,0,0.933,0.082,1.344,0.244c0.411,0.163,0.765,0.397,1.064,0.704c0.298,0.307,0.532,0.686,0.7,1.136
		c0.168,0.451,0.252,0.965,0.252,1.54c0,0.225-0.024,0.374-0.072,0.448c-0.048,0.075-0.139,0.112-0.272,0.112h-5.392
		c0.011,0.512,0.08,0.957,0.208,1.336s0.304,0.694,0.528,0.948c0.224,0.253,0.491,0.442,0.8,0.567
		c0.309,0.126,0.656,0.188,1.04,0.188c0.357,0,0.665-0.041,0.924-0.124s0.481-0.172,0.668-0.269
		c0.187-0.096,0.343-0.185,0.468-0.268c0.125-0.083,0.233-0.124,0.324-0.124c0.117,0,0.208,0.045,0.272,0.136l0.4,0.521
		c-0.176,0.213-0.387,0.398-0.632,0.556c-0.246,0.157-0.508,0.287-0.788,0.388c-0.28,0.102-0.569,0.178-0.868,0.229
		c-0.299,0.051-0.595,0.076-0.888,0.076c-0.56,0-1.076-0.095-1.548-0.284c-0.472-0.189-0.88-0.467-1.224-0.832
		c-0.344-0.365-0.612-0.817-0.804-1.356c-0.192-0.538-0.288-1.157-0.288-1.855c0-0.565,0.087-1.094,0.26-1.584
		c0.173-0.491,0.422-0.916,0.748-1.276c0.325-0.359,0.723-0.643,1.192-0.848S305.076,275.31,305.663,275.31z M305.695,276.358
		c-0.688,0-1.229,0.198-1.624,0.596c-0.395,0.397-0.64,0.948-0.736,1.652h4.408c0-0.331-0.045-0.634-0.136-0.908
		c-0.09-0.274-0.224-0.513-0.4-0.712c-0.176-0.2-0.391-0.354-0.644-0.464S306.021,276.358,305.695,276.358z"/>
	<path d="M310.839,283.542v-8.104h0.816c0.155,0,0.261,0.029,0.32,0.088c0.059,0.059,0.099,0.159,0.12,0.304l0.096,1.264
		c0.277-0.565,0.62-1.007,1.028-1.324c0.408-0.316,0.887-0.476,1.436-0.476c0.224,0,0.427,0.025,0.608,0.076
		c0.182,0.051,0.35,0.121,0.504,0.212l-0.184,1.063c-0.038,0.134-0.12,0.2-0.248,0.2c-0.075,0-0.189-0.025-0.344-0.076
		c-0.155-0.05-0.371-0.075-0.648-0.075c-0.496,0-0.911,0.144-1.244,0.432c-0.333,0.288-0.612,0.707-0.836,1.256v5.16H310.839z"/>
	<path d="M320.695,283.542v-6.888l-0.896-0.104c-0.112-0.026-0.204-0.067-0.276-0.124c-0.072-0.056-0.108-0.137-0.108-0.244v-0.584
		h1.28v-0.783c0-0.465,0.065-0.876,0.196-1.236c0.13-0.36,0.317-0.664,0.56-0.912s0.535-0.436,0.876-0.564
		c0.341-0.128,0.725-0.191,1.152-0.191c0.363,0,0.699,0.053,1.008,0.16l-0.032,0.712c-0.005,0.106-0.051,0.171-0.136,0.191
		c-0.085,0.021-0.205,0.032-0.36,0.032h-0.248c-0.245,0-0.468,0.032-0.668,0.096c-0.2,0.064-0.372,0.168-0.516,0.313
		c-0.144,0.144-0.254,0.333-0.332,0.568c-0.077,0.234-0.116,0.525-0.116,0.871v0.744h2.344v1.032h-2.296v6.912H320.695z"/>
	<path d="M327.351,271.758v11.784h-1.424v-11.784H327.351z"/>
	<path d="M333.07,275.31c0.485,0,0.933,0.082,1.344,0.244c0.411,0.163,0.765,0.397,1.064,0.704c0.298,0.307,0.532,0.686,0.7,1.136
		c0.168,0.451,0.252,0.965,0.252,1.54c0,0.225-0.024,0.374-0.072,0.448c-0.048,0.075-0.139,0.112-0.272,0.112h-5.392
		c0.011,0.512,0.08,0.957,0.208,1.336s0.304,0.694,0.528,0.948c0.224,0.253,0.491,0.442,0.8,0.567
		c0.309,0.126,0.656,0.188,1.04,0.188c0.357,0,0.665-0.041,0.924-0.124s0.481-0.172,0.668-0.269
		c0.187-0.096,0.343-0.185,0.468-0.268c0.125-0.083,0.233-0.124,0.324-0.124c0.117,0,0.208,0.045,0.272,0.136l0.4,0.521
		c-0.176,0.213-0.387,0.398-0.632,0.556c-0.246,0.157-0.508,0.287-0.788,0.388c-0.28,0.102-0.569,0.178-0.868,0.229
		c-0.299,0.051-0.595,0.076-0.888,0.076c-0.56,0-1.076-0.095-1.548-0.284c-0.472-0.189-0.88-0.467-1.224-0.832
		c-0.344-0.365-0.612-0.817-0.804-1.356c-0.192-0.538-0.288-1.157-0.288-1.855c0-0.565,0.087-1.094,0.26-1.584
		c0.173-0.491,0.422-0.916,0.748-1.276c0.325-0.359,0.723-0.643,1.192-0.848S332.483,275.31,333.07,275.31z M333.103,276.358
		c-0.688,0-1.229,0.198-1.624,0.596c-0.395,0.397-0.64,0.948-0.736,1.652h4.408c0-0.331-0.045-0.634-0.136-0.908
		c-0.09-0.274-0.224-0.513-0.4-0.712c-0.176-0.2-0.391-0.354-0.644-0.464S333.428,276.358,333.103,276.358z"/>
	<path d="M338.246,283.542v-8.104h0.816c0.155,0,0.261,0.029,0.32,0.088c0.059,0.059,0.099,0.159,0.12,0.304l0.096,1.264
		c0.277-0.565,0.62-1.007,1.028-1.324c0.408-0.316,0.887-0.476,1.436-0.476c0.224,0,0.427,0.025,0.608,0.076
		c0.182,0.051,0.35,0.121,0.504,0.212l-0.184,1.063c-0.038,0.134-0.12,0.2-0.248,0.2c-0.075,0-0.189-0.025-0.344-0.076
		c-0.155-0.05-0.371-0.075-0.648-0.075c-0.496,0-0.911,0.144-1.244,0.432c-0.333,0.288-0.612,0.707-0.836,1.256v5.16H338.246z"/>
	<path d="M347.902,275.31c0.485,0,0.933,0.082,1.344,0.244c0.411,0.163,0.765,0.397,1.064,0.704c0.298,0.307,0.532,0.686,0.7,1.136
		c0.168,0.451,0.252,0.965,0.252,1.54c0,0.225-0.024,0.374-0.072,0.448c-0.048,0.075-0.139,0.112-0.272,0.112h-5.392
		c0.011,0.512,0.08,0.957,0.208,1.336s0.304,0.694,0.528,0.948c0.224,0.253,0.491,0.442,0.8,0.567
		c0.309,0.126,0.656,0.188,1.04,0.188c0.357,0,0.665-0.041,0.924-0.124s0.481-0.172,0.668-0.269
		c0.187-0.096,0.343-0.185,0.468-0.268c0.125-0.083,0.233-0.124,0.324-0.124c0.117,0,0.208,0.045,0.272,0.136l0.4,0.521
		c-0.176,0.213-0.387,0.398-0.632,0.556c-0.246,0.157-0.508,0.287-0.788,0.388c-0.28,0.102-0.569,0.178-0.868,0.229
		c-0.299,0.051-0.595,0.076-0.888,0.076c-0.56,0-1.076-0.095-1.548-0.284c-0.472-0.189-0.88-0.467-1.224-0.832
		c-0.344-0.365-0.612-0.817-0.804-1.356c-0.192-0.538-0.288-1.157-0.288-1.855c0-0.565,0.087-1.094,0.26-1.584
		c0.173-0.491,0.422-0.916,0.748-1.276c0.325-0.359,0.723-0.643,1.192-0.848S347.315,275.31,347.902,275.31z M347.935,276.358
		c-0.688,0-1.229,0.198-1.624,0.596c-0.395,0.397-0.64,0.948-0.736,1.652h4.408c0-0.331-0.045-0.634-0.136-0.908
		c-0.09-0.274-0.224-0.513-0.4-0.712c-0.176-0.2-0.391-0.354-0.644-0.464S348.26,276.358,347.935,276.358z"/>
	<path d="M238.216,302.742v-11.784h1.432v4.849c0.336-0.39,0.721-0.703,1.156-0.94c0.435-0.237,0.932-0.356,1.492-0.356
		c0.469,0,0.894,0.089,1.272,0.265c0.379,0.176,0.701,0.438,0.968,0.788c0.267,0.349,0.472,0.781,0.616,1.296
		s0.216,1.107,0.216,1.78c0,0.597-0.08,1.153-0.24,1.668s-0.391,0.96-0.692,1.336s-0.669,0.672-1.104,0.888
		s-0.924,0.324-1.468,0.324c-0.522,0-0.966-0.102-1.332-0.305c-0.366-0.202-0.684-0.485-0.956-0.848l-0.072,0.736
		c-0.042,0.202-0.165,0.304-0.368,0.304H238.216z M241.832,295.646c-0.464,0-0.871,0.106-1.22,0.319
		c-0.349,0.214-0.67,0.515-0.964,0.904v3.92c0.256,0.353,0.54,0.601,0.852,0.744s0.66,0.216,1.044,0.216
		c0.757,0,1.339-0.27,1.744-0.808c0.405-0.539,0.608-1.307,0.608-2.304c0-0.528-0.047-0.981-0.14-1.36s-0.228-0.689-0.404-0.933
		c-0.176-0.242-0.392-0.42-0.648-0.531C242.448,295.702,242.157,295.646,241.832,295.646z"/>
	<path d="M250.32,294.51c0.485,0,0.933,0.082,1.344,0.244c0.411,0.163,0.765,0.397,1.064,0.704c0.298,0.307,0.532,0.686,0.7,1.136
		c0.168,0.451,0.252,0.965,0.252,1.54c0,0.225-0.024,0.374-0.072,0.448c-0.048,0.075-0.139,0.112-0.272,0.112h-5.392
		c0.011,0.512,0.08,0.957,0.208,1.336s0.304,0.694,0.528,0.948c0.224,0.253,0.491,0.442,0.8,0.567
		c0.309,0.126,0.656,0.188,1.04,0.188c0.357,0,0.665-0.041,0.924-0.124s0.481-0.172,0.668-0.269
		c0.187-0.096,0.343-0.185,0.468-0.268c0.125-0.083,0.233-0.124,0.324-0.124c0.117,0,0.208,0.045,0.272,0.136l0.4,0.521
		c-0.176,0.213-0.387,0.398-0.632,0.556c-0.246,0.157-0.508,0.287-0.788,0.388c-0.28,0.102-0.569,0.178-0.868,0.229
		c-0.299,0.051-0.595,0.076-0.888,0.076c-0.56,0-1.076-0.095-1.548-0.284c-0.472-0.189-0.88-0.467-1.224-0.832
		c-0.344-0.365-0.612-0.817-0.804-1.356c-0.192-0.538-0.288-1.157-0.288-1.855c0-0.565,0.087-1.094,0.26-1.584
		c0.173-0.491,0.422-0.916,0.748-1.276c0.325-0.359,0.723-0.643,1.192-0.848S249.733,294.51,250.32,294.51z M250.352,295.559
		c-0.688,0-1.229,0.198-1.624,0.596c-0.395,0.397-0.64,0.948-0.736,1.652h4.408c0-0.331-0.045-0.634-0.136-0.908
		c-0.09-0.274-0.224-0.513-0.4-0.712c-0.176-0.2-0.391-0.354-0.644-0.464S250.677,295.559,250.352,295.559z"/>
	<path d="M257.08,290.958v11.784h-1.424v-11.784H257.08z"/>
	<path d="M265.544,302.742h-0.632c-0.139,0-0.25-0.021-0.336-0.064c-0.085-0.042-0.141-0.133-0.168-0.271l-0.16-0.752
		c-0.213,0.191-0.421,0.364-0.624,0.516c-0.203,0.152-0.416,0.28-0.64,0.384c-0.224,0.104-0.463,0.184-0.716,0.236
		c-0.253,0.054-0.535,0.08-0.844,0.08c-0.315,0-0.609-0.044-0.884-0.132c-0.275-0.088-0.514-0.22-0.716-0.396
		c-0.203-0.176-0.364-0.398-0.484-0.668c-0.12-0.269-0.18-0.588-0.18-0.956c0-0.319,0.088-0.628,0.264-0.924s0.46-0.559,0.852-0.788
		c0.392-0.229,0.905-0.417,1.54-0.563s1.411-0.23,2.328-0.252v-0.632c0-0.63-0.135-1.105-0.404-1.429
		c-0.27-0.322-0.668-0.483-1.196-0.483c-0.347,0-0.639,0.044-0.876,0.132s-0.443,0.187-0.616,0.296s-0.323,0.208-0.448,0.296
		c-0.125,0.088-0.25,0.132-0.372,0.132c-0.096,0-0.18-0.025-0.252-0.076c-0.072-0.05-0.129-0.113-0.172-0.188l-0.256-0.456
		c0.448-0.432,0.931-0.755,1.448-0.968c0.517-0.214,1.09-0.32,1.72-0.32c0.453,0,0.856,0.075,1.208,0.224
		c0.352,0.149,0.648,0.357,0.888,0.624c0.24,0.268,0.421,0.59,0.544,0.969c0.123,0.378,0.184,0.794,0.184,1.248V302.742z
		 M261.848,301.87c0.251,0,0.48-0.025,0.688-0.076s0.404-0.122,0.588-0.216c0.184-0.093,0.36-0.207,0.528-0.34
		c0.168-0.134,0.332-0.285,0.492-0.456v-1.688c-0.656,0.021-1.213,0.074-1.672,0.156c-0.458,0.083-0.832,0.191-1.12,0.324
		c-0.288,0.134-0.498,0.291-0.628,0.472c-0.13,0.182-0.196,0.385-0.196,0.608c0,0.213,0.035,0.397,0.104,0.552
		c0.069,0.155,0.163,0.281,0.28,0.38c0.118,0.099,0.256,0.171,0.416,0.216C261.488,301.848,261.661,301.87,261.848,301.87z"/>
	<path d="M272.344,295.975c-0.064,0.117-0.163,0.176-0.296,0.176c-0.08,0-0.171-0.029-0.272-0.088
		c-0.102-0.059-0.226-0.124-0.372-0.196c-0.147-0.072-0.322-0.139-0.524-0.2c-0.203-0.062-0.443-0.092-0.72-0.092
		c-0.24,0-0.456,0.03-0.648,0.092s-0.356,0.146-0.492,0.252c-0.136,0.107-0.24,0.231-0.312,0.372
		c-0.072,0.142-0.108,0.295-0.108,0.46c0,0.208,0.06,0.382,0.18,0.521c0.12,0.139,0.278,0.259,0.476,0.359
		c0.197,0.102,0.421,0.191,0.672,0.269c0.25,0.077,0.508,0.16,0.772,0.248s0.521,0.186,0.772,0.292
		c0.25,0.106,0.475,0.239,0.672,0.399s0.356,0.356,0.476,0.588c0.12,0.232,0.18,0.511,0.18,0.836c0,0.374-0.067,0.719-0.2,1.036
		s-0.331,0.593-0.592,0.824c-0.262,0.232-0.582,0.415-0.96,0.548c-0.379,0.134-0.816,0.2-1.312,0.2
		c-0.565,0-1.078-0.092-1.536-0.276c-0.459-0.184-0.848-0.42-1.168-0.708l0.336-0.544c0.042-0.069,0.093-0.122,0.152-0.159
		c0.059-0.038,0.136-0.057,0.232-0.057c0.096,0,0.197,0.037,0.304,0.112c0.106,0.074,0.236,0.157,0.388,0.248
		c0.152,0.091,0.336,0.173,0.552,0.248c0.216,0.074,0.487,0.111,0.812,0.111c0.277,0,0.52-0.035,0.728-0.107s0.381-0.169,0.52-0.292
		s0.241-0.264,0.308-0.424c0.066-0.16,0.1-0.331,0.1-0.513c0-0.224-0.06-0.409-0.18-0.556s-0.279-0.271-0.476-0.376
		c-0.197-0.104-0.423-0.194-0.676-0.271c-0.253-0.078-0.512-0.159-0.776-0.244c-0.264-0.086-0.522-0.183-0.776-0.292
		s-0.479-0.247-0.676-0.412c-0.198-0.165-0.356-0.369-0.476-0.612c-0.12-0.242-0.18-0.537-0.18-0.884
		c0-0.31,0.064-0.606,0.192-0.893c0.128-0.285,0.315-0.535,0.56-0.752c0.246-0.216,0.547-0.388,0.904-0.516
		c0.357-0.128,0.765-0.192,1.224-0.192c0.534,0,1.012,0.084,1.436,0.252c0.424,0.169,0.791,0.399,1.1,0.692L272.344,295.975z"/>
	<path d="M277.104,302.87c-0.64,0-1.132-0.179-1.476-0.536c-0.344-0.357-0.516-0.872-0.516-1.544v-4.96h-0.976
		c-0.085,0-0.157-0.025-0.216-0.076s-0.088-0.129-0.088-0.235v-0.568l1.328-0.168l0.328-2.504c0.011-0.08,0.045-0.146,0.104-0.196
		s0.133-0.076,0.224-0.076h0.72v2.792h2.32v1.032h-2.32v4.864c0,0.341,0.083,0.595,0.248,0.76c0.165,0.165,0.378,0.248,0.64,0.248
		c0.149,0,0.279-0.02,0.388-0.06s0.204-0.084,0.284-0.133c0.08-0.048,0.148-0.092,0.204-0.132c0.056-0.04,0.105-0.06,0.148-0.06
		c0.075,0,0.142,0.045,0.2,0.136l0.416,0.68c-0.245,0.229-0.542,0.41-0.888,0.54C277.829,302.805,277.472,302.87,277.104,302.87z"/>
	<path d="M280.615,302.742v-8.104h0.848c0.203,0,0.331,0.099,0.384,0.296l0.112,0.88c0.352-0.39,0.745-0.704,1.18-0.944
		s0.938-0.36,1.508-0.36c0.442,0,0.833,0.074,1.172,0.221c0.338,0.146,0.621,0.354,0.848,0.624c0.227,0.27,0.398,0.593,0.516,0.972
		s0.176,0.798,0.176,1.256v5.16h-1.424v-5.16c0-0.613-0.14-1.089-0.42-1.428c-0.28-0.339-0.708-0.508-1.284-0.508
		c-0.421,0-0.815,0.102-1.18,0.304c-0.365,0.203-0.703,0.478-1.012,0.824v5.968H280.615z"/>
	<path d="M291.415,292.094c0,0.14-0.028,0.269-0.084,0.389c-0.056,0.12-0.13,0.227-0.224,0.319
		c-0.094,0.094-0.202,0.167-0.324,0.221c-0.123,0.053-0.253,0.08-0.392,0.08s-0.268-0.027-0.388-0.08
		c-0.12-0.054-0.227-0.127-0.32-0.221c-0.093-0.093-0.167-0.199-0.22-0.319c-0.054-0.12-0.08-0.249-0.08-0.389
		c0-0.139,0.026-0.271,0.08-0.396c0.053-0.125,0.126-0.234,0.22-0.328c0.093-0.093,0.2-0.167,0.32-0.22
		c0.12-0.054,0.249-0.08,0.388-0.08s0.27,0.026,0.392,0.08c0.123,0.053,0.23,0.127,0.324,0.22c0.093,0.094,0.168,0.203,0.224,0.328
		C291.387,291.823,291.415,291.955,291.415,292.094z M291.095,294.639v8.104h-1.424v-8.104H291.095z"/>
	<path d="M293.607,302.742v-8.104h0.848c0.203,0,0.331,0.099,0.384,0.296l0.112,0.88c0.352-0.39,0.745-0.704,1.18-0.944
		s0.938-0.36,1.508-0.36c0.442,0,0.833,0.074,1.172,0.221c0.338,0.146,0.621,0.354,0.848,0.624c0.227,0.27,0.398,0.593,0.516,0.972
		s0.176,0.798,0.176,1.256v5.16h-1.424v-5.16c0-0.613-0.14-1.089-0.42-1.428c-0.28-0.339-0.708-0.508-1.284-0.508
		c-0.421,0-0.815,0.102-1.18,0.304c-0.365,0.203-0.703,0.478-1.012,0.824v5.968H293.607z"/>
	<path d="M305.231,294.502c0.352,0,0.681,0.039,0.988,0.116s0.585,0.19,0.836,0.34h2.2v0.528c0,0.176-0.112,0.288-0.336,0.336
		L308,295.95c0.181,0.347,0.272,0.733,0.272,1.16c0,0.395-0.076,0.753-0.228,1.076c-0.152,0.322-0.363,0.599-0.632,0.828
		c-0.27,0.229-0.589,0.405-0.96,0.527c-0.371,0.123-0.777,0.185-1.22,0.185c-0.379,0-0.736-0.046-1.072-0.137
		c-0.171,0.107-0.3,0.222-0.388,0.345c-0.088,0.122-0.132,0.242-0.132,0.359c0,0.192,0.077,0.338,0.232,0.437
		c0.154,0.099,0.36,0.169,0.616,0.212c0.256,0.043,0.547,0.069,0.872,0.08s0.657,0.027,0.996,0.052
		c0.338,0.024,0.67,0.065,0.996,0.124c0.325,0.059,0.616,0.154,0.872,0.288c0.256,0.133,0.461,0.317,0.616,0.552
		s0.232,0.539,0.232,0.912c0,0.347-0.086,0.683-0.26,1.008s-0.423,0.615-0.748,0.868s-0.723,0.456-1.192,0.608
		c-0.47,0.151-1,0.228-1.592,0.228c-0.592,0-1.111-0.059-1.556-0.176c-0.446-0.117-0.815-0.274-1.108-0.472
		c-0.293-0.198-0.513-0.426-0.66-0.685c-0.147-0.259-0.22-0.529-0.22-0.812c0-0.4,0.127-0.74,0.38-1.021
		c0.253-0.28,0.602-0.503,1.044-0.668c-0.229-0.106-0.412-0.249-0.548-0.428c-0.136-0.179-0.204-0.417-0.204-0.716
		c0-0.117,0.021-0.239,0.064-0.364c0.042-0.125,0.108-0.249,0.196-0.372s0.196-0.24,0.324-0.352
		c0.128-0.112,0.277-0.211,0.448-0.297c-0.4-0.224-0.713-0.521-0.94-0.892c-0.227-0.37-0.34-0.804-0.34-1.3
		c0-0.395,0.076-0.753,0.228-1.076c0.152-0.322,0.364-0.598,0.636-0.824s0.596-0.401,0.972-0.523
		C304.372,294.563,304.784,294.502,305.231,294.502z M307.759,303.183c0-0.203-0.056-0.366-0.168-0.488
		c-0.112-0.123-0.264-0.218-0.456-0.284c-0.192-0.066-0.413-0.116-0.664-0.148c-0.251-0.031-0.515-0.054-0.792-0.067
		c-0.278-0.014-0.56-0.028-0.848-0.044c-0.288-0.017-0.563-0.046-0.824-0.088c-0.304,0.144-0.551,0.319-0.74,0.527
		c-0.189,0.208-0.284,0.456-0.284,0.744c0,0.182,0.047,0.351,0.14,0.508s0.236,0.294,0.428,0.408
		c0.192,0.115,0.434,0.205,0.724,0.272c0.291,0.066,0.633,0.1,1.028,0.1c0.384,0,0.728-0.034,1.032-0.104s0.561-0.168,0.772-0.296
		c0.21-0.129,0.372-0.28,0.484-0.456C307.704,303.59,307.759,303.396,307.759,303.183z M305.231,298.782
		c0.288,0,0.542-0.04,0.764-0.12c0.221-0.08,0.406-0.192,0.556-0.336s0.261-0.316,0.336-0.516c0.075-0.2,0.112-0.42,0.112-0.66
		c0-0.496-0.151-0.891-0.452-1.185c-0.301-0.293-0.74-0.439-1.316-0.439c-0.571,0-1.007,0.146-1.308,0.439
		c-0.301,0.294-0.452,0.688-0.452,1.185c0,0.24,0.039,0.46,0.116,0.66c0.077,0.199,0.19,0.372,0.34,0.516s0.333,0.256,0.552,0.336
		S304.949,298.782,305.231,298.782z"/>
	<path d="M313.887,294.51c0.485,0,0.933,0.082,1.344,0.244c0.411,0.163,0.765,0.397,1.064,0.704c0.298,0.307,0.532,0.686,0.7,1.136
		c0.168,0.451,0.252,0.965,0.252,1.54c0,0.225-0.024,0.374-0.072,0.448c-0.048,0.075-0.139,0.112-0.272,0.112h-5.392
		c0.011,0.512,0.08,0.957,0.208,1.336s0.304,0.694,0.528,0.948c0.224,0.253,0.491,0.442,0.8,0.567
		c0.309,0.126,0.656,0.188,1.04,0.188c0.357,0,0.665-0.041,0.924-0.124s0.481-0.172,0.668-0.269
		c0.187-0.096,0.343-0.185,0.468-0.268c0.125-0.083,0.233-0.124,0.324-0.124c0.117,0,0.208,0.045,0.272,0.136l0.4,0.521
		c-0.176,0.213-0.387,0.398-0.632,0.556c-0.246,0.157-0.508,0.287-0.788,0.388c-0.28,0.102-0.569,0.178-0.868,0.229
		c-0.299,0.051-0.595,0.076-0.888,0.076c-0.56,0-1.076-0.095-1.548-0.284c-0.472-0.189-0.88-0.467-1.224-0.832
		c-0.344-0.365-0.612-0.817-0.804-1.356c-0.192-0.538-0.288-1.157-0.288-1.855c0-0.565,0.087-1.094,0.26-1.584
		c0.173-0.491,0.422-0.916,0.748-1.276c0.325-0.359,0.723-0.643,1.192-0.848S313.3,294.51,313.887,294.51z M313.919,295.559
		c-0.688,0-1.229,0.198-1.624,0.596c-0.395,0.397-0.64,0.948-0.736,1.652h4.408c0-0.331-0.045-0.634-0.136-0.908
		c-0.09-0.274-0.224-0.513-0.4-0.712c-0.176-0.2-0.391-0.354-0.644-0.464S314.245,295.559,313.919,295.559z"/>
	<path d="M319.063,302.742v-8.104h0.816c0.155,0,0.261,0.029,0.32,0.088c0.059,0.059,0.099,0.159,0.12,0.304l0.096,1.264
		c0.277-0.565,0.62-1.007,1.028-1.324c0.408-0.316,0.887-0.476,1.436-0.476c0.224,0,0.427,0.025,0.608,0.076
		c0.182,0.051,0.35,0.121,0.504,0.212l-0.184,1.063c-0.038,0.134-0.12,0.2-0.248,0.2c-0.075,0-0.189-0.025-0.344-0.076
		c-0.155-0.05-0.371-0.075-0.648-0.075c-0.496,0-0.911,0.144-1.244,0.432c-0.333,0.288-0.612,0.707-0.836,1.256v5.16H319.063z"/>
</g>
<polygon points="355.766,266.249 365.99,249.061 364.27,248.037 369.405,245.273 369.427,251.104 367.708,250.082 357.484,267.271 
	"/>
<ellipse fill="none" stroke="#000000" stroke-width="2" stroke-miterlimit="10" cx="130" cy="528.594" rx="0.563" ry="0.656"/>
<ellipse fill="none" stroke="#000000" stroke-width="2" stroke-miterlimit="10" cx="129.969" cy="31.156" rx="0.344" ry="0.469"/>
<g>
	<path d="M117.504,17.664c0.31,0,0.593-0.015,0.852-0.044s0.502-0.073,0.732-0.132c0.229-0.059,0.445-0.129,0.648-0.212
		c0.203-0.083,0.405-0.177,0.608-0.284v-2.528h-1.776c-0.101,0-0.183-0.029-0.244-0.088c-0.062-0.059-0.092-0.13-0.092-0.216v-0.88
		h3.52v4.4c-0.288,0.208-0.588,0.389-0.9,0.544s-0.646,0.284-1,0.388c-0.355,0.104-0.735,0.182-1.14,0.232
		c-0.405,0.051-0.845,0.076-1.32,0.076c-0.832,0-1.595-0.143-2.288-0.428c-0.693-0.286-1.291-0.686-1.792-1.2
		s-0.892-1.132-1.172-1.852c-0.28-0.72-0.42-1.512-0.42-2.376c0-0.875,0.137-1.672,0.412-2.392c0.275-0.72,0.667-1.337,1.176-1.852
		c0.509-0.515,1.125-0.913,1.848-1.196s1.532-0.424,2.428-0.424c0.453,0,0.875,0.033,1.264,0.1c0.389,0.067,0.75,0.163,1.084,0.288
		c0.333,0.125,0.641,0.277,0.924,0.456s0.547,0.38,0.792,0.604l-0.44,0.704c-0.091,0.144-0.208,0.216-0.352,0.216
		c-0.085,0-0.179-0.029-0.28-0.088c-0.134-0.075-0.283-0.165-0.448-0.272c-0.166-0.106-0.367-0.209-0.604-0.308
		s-0.517-0.183-0.84-0.252s-0.706-0.104-1.148-0.104c-0.646,0-1.229,0.105-1.752,0.316c-0.523,0.211-0.968,0.512-1.336,0.904
		c-0.368,0.392-0.651,0.867-0.848,1.424c-0.197,0.558-0.296,1.183-0.296,1.876c0,0.726,0.103,1.372,0.308,1.94
		c0.206,0.568,0.495,1.049,0.868,1.444c0.373,0.395,0.816,0.696,1.328,0.904C116.32,17.56,116.885,17.664,117.504,17.664z"/>
	<path d="M127.192,10.56c0.592,0,1.126,0.099,1.604,0.296c0.478,0.197,0.883,0.478,1.216,0.84c0.333,0.363,0.589,0.802,0.768,1.316
		s0.268,1.089,0.268,1.724c0,0.64-0.089,1.216-0.268,1.728c-0.179,0.512-0.435,0.95-0.768,1.312
		c-0.333,0.363-0.739,0.642-1.216,0.836c-0.477,0.195-1.012,0.292-1.604,0.292c-0.592,0-1.127-0.097-1.604-0.292
		c-0.478-0.194-0.884-0.473-1.22-0.836c-0.336-0.362-0.595-0.8-0.776-1.312c-0.182-0.512-0.272-1.088-0.272-1.728
		c0-0.634,0.09-1.209,0.272-1.724c0.181-0.515,0.44-0.954,0.776-1.316c0.336-0.362,0.743-0.643,1.22-0.84
		C126.065,10.659,126.6,10.56,127.192,10.56z M127.192,17.792c0.8,0,1.397-0.268,1.792-0.804c0.395-0.536,0.592-1.284,0.592-2.244
		c0-0.965-0.197-1.717-0.592-2.256c-0.395-0.539-0.992-0.808-1.792-0.808c-0.406,0-0.758,0.069-1.056,0.208
		c-0.299,0.139-0.548,0.338-0.748,0.6c-0.2,0.262-0.35,0.583-0.448,0.964s-0.148,0.812-0.148,1.292s0.049,0.909,0.148,1.288
		c0.099,0.378,0.248,0.697,0.448,0.956c0.2,0.259,0.449,0.458,0.748,0.596C126.435,17.723,126.787,17.792,127.192,17.792z"/>
	<path d="M138.512,18.792c-0.203,0-0.331-0.099-0.384-0.296L138,17.512c-0.347,0.421-0.743,0.758-1.188,1.012
		s-0.956,0.38-1.532,0.38c-0.464,0-0.886-0.089-1.264-0.268c-0.379-0.179-0.701-0.441-0.968-0.788
		c-0.267-0.347-0.472-0.779-0.616-1.296c-0.144-0.517-0.216-1.112-0.216-1.784c0-0.597,0.08-1.153,0.24-1.668
		s0.391-0.961,0.692-1.34c0.301-0.378,0.668-0.676,1.1-0.892c0.432-0.216,0.923-0.324,1.472-0.324c0.496,0,0.92,0.084,1.272,0.252
		s0.667,0.404,0.944,0.708V7.008h1.424v11.784H138.512z M135.752,17.752c0.464,0,0.871-0.106,1.22-0.32
		c0.349-0.213,0.67-0.515,0.964-0.904v-3.92c-0.261-0.352-0.548-0.599-0.86-0.74c-0.312-0.142-0.657-0.212-1.036-0.212
		c-0.757,0-1.339,0.27-1.744,0.808c-0.405,0.539-0.608,1.307-0.608,2.304c0,0.528,0.045,0.98,0.136,1.356
		c0.09,0.376,0.224,0.686,0.4,0.928c0.176,0.243,0.392,0.42,0.648,0.532S135.421,17.752,135.752,17.752z"/>
	<path d="M144.208,18.92c-0.64,0-1.132-0.179-1.476-0.536c-0.344-0.357-0.516-0.872-0.516-1.544v-4.96h-0.976
		c-0.085,0-0.157-0.025-0.216-0.076s-0.088-0.129-0.088-0.236V11l1.328-0.168l0.328-2.504c0.011-0.08,0.045-0.146,0.104-0.196
		c0.059-0.05,0.133-0.076,0.224-0.076h0.72v2.792h2.32v1.032h-2.32v4.864c0,0.341,0.083,0.595,0.248,0.76
		c0.165,0.166,0.378,0.248,0.64,0.248c0.149,0,0.279-0.02,0.388-0.06s0.204-0.084,0.284-0.132c0.08-0.048,0.148-0.092,0.204-0.132
		c0.056-0.04,0.105-0.06,0.148-0.06c0.075,0,0.142,0.045,0.2,0.136l0.416,0.68c-0.245,0.229-0.542,0.409-0.888,0.54
		C144.933,18.854,144.576,18.92,144.208,18.92z"/>
</g>
<g>
	<path d="M117.06,546.064c0,0.858-0.136,1.64-0.408,2.344s-0.656,1.307-1.152,1.808c-0.496,0.502-1.091,0.89-1.784,1.164
		s-1.461,0.412-2.304,0.412h-4.288v-11.464h4.288c0.842,0,1.61,0.138,2.304,0.412s1.288,0.664,1.784,1.168s0.88,1.107,1.152,1.812
		S117.06,545.205,117.06,546.064z M115.467,546.064c0-0.704-0.096-1.334-0.288-1.889c-0.192-0.555-0.464-1.023-0.816-1.408
		c-0.352-0.384-0.779-0.677-1.28-0.88c-0.501-0.202-1.059-0.304-1.672-0.304h-2.728v8.952h2.728c0.613,0,1.17-0.102,1.672-0.304
		c0.501-0.203,0.928-0.495,1.28-0.876c0.352-0.382,0.624-0.85,0.816-1.404C115.372,547.397,115.467,546.768,115.467,546.064z"/>
	<path d="M124.899,551.792h-0.632c-0.139,0-0.25-0.021-0.336-0.064c-0.085-0.042-0.141-0.133-0.168-0.271l-0.16-0.752
		c-0.213,0.191-0.421,0.364-0.624,0.516c-0.203,0.152-0.416,0.28-0.64,0.384c-0.224,0.104-0.463,0.184-0.716,0.236
		c-0.253,0.054-0.535,0.08-0.844,0.08c-0.315,0-0.609-0.044-0.884-0.132c-0.275-0.088-0.514-0.22-0.716-0.396
		c-0.203-0.176-0.364-0.398-0.484-0.668c-0.12-0.269-0.18-0.588-0.18-0.956c0-0.319,0.088-0.628,0.264-0.924s0.46-0.559,0.852-0.788
		c0.392-0.229,0.905-0.417,1.54-0.563s1.411-0.23,2.328-0.252v-0.632c0-0.63-0.135-1.105-0.404-1.429
		c-0.27-0.322-0.668-0.483-1.196-0.483c-0.347,0-0.639,0.044-0.876,0.132s-0.443,0.187-0.616,0.296s-0.323,0.208-0.448,0.296
		c-0.125,0.088-0.25,0.132-0.372,0.132c-0.096,0-0.18-0.025-0.252-0.076c-0.072-0.05-0.129-0.113-0.172-0.188l-0.256-0.456
		c0.448-0.432,0.931-0.755,1.448-0.968c0.517-0.214,1.09-0.32,1.72-0.32c0.453,0,0.856,0.075,1.208,0.224
		c0.352,0.149,0.648,0.357,0.888,0.624c0.24,0.268,0.421,0.59,0.544,0.969c0.123,0.378,0.184,0.794,0.184,1.248V551.792z
		 M121.203,550.92c0.251,0,0.48-0.025,0.688-0.076s0.404-0.122,0.588-0.216c0.184-0.093,0.36-0.207,0.528-0.34
		c0.168-0.134,0.332-0.285,0.492-0.456v-1.688c-0.656,0.021-1.213,0.074-1.672,0.156c-0.458,0.083-0.832,0.191-1.12,0.324
		c-0.288,0.134-0.498,0.291-0.628,0.472c-0.13,0.182-0.196,0.385-0.196,0.608c0,0.213,0.035,0.397,0.104,0.552
		c0.069,0.155,0.163,0.281,0.28,0.38c0.118,0.099,0.256,0.171,0.416,0.216C120.843,550.897,121.017,550.92,121.203,550.92z
		 M120.403,541.272c0-0.225,0.042-0.427,0.128-0.608s0.201-0.339,0.348-0.472c0.146-0.134,0.316-0.236,0.508-0.309
		s0.395-0.107,0.608-0.107c0.219,0,0.425,0.035,0.62,0.107s0.367,0.175,0.516,0.309c0.149,0.133,0.267,0.29,0.352,0.472
		c0.085,0.182,0.128,0.384,0.128,0.608c0,0.219-0.043,0.418-0.128,0.6c-0.085,0.182-0.203,0.336-0.352,0.464s-0.321,0.229-0.516,0.3
		c-0.195,0.072-0.401,0.108-0.62,0.108c-0.213,0-0.416-0.036-0.608-0.108c-0.192-0.071-0.361-0.172-0.508-0.3
		c-0.147-0.128-0.263-0.282-0.348-0.464S120.403,541.491,120.403,541.272z M121.203,541.272c0,0.234,0.072,0.427,0.216,0.575
		c0.144,0.149,0.341,0.225,0.592,0.225c0.24,0,0.433-0.075,0.58-0.225c0.146-0.148,0.22-0.341,0.22-0.575
		c0-0.24-0.074-0.436-0.22-0.584c-0.147-0.149-0.34-0.225-0.58-0.225c-0.25,0-0.448,0.075-0.592,0.225
		C121.275,540.837,121.203,541.032,121.203,541.272z"/>
	<path d="M127.059,551.792v-8.104h0.816c0.155,0,0.261,0.029,0.32,0.088c0.059,0.059,0.099,0.159,0.12,0.304l0.096,1.264
		c0.277-0.565,0.62-1.007,1.028-1.324c0.408-0.316,0.887-0.476,1.436-0.476c0.224,0,0.427,0.025,0.608,0.076
		c0.182,0.051,0.35,0.121,0.504,0.212l-0.184,1.063c-0.038,0.134-0.12,0.2-0.248,0.2c-0.075,0-0.189-0.025-0.344-0.076
		c-0.155-0.05-0.371-0.075-0.648-0.075c-0.496,0-0.911,0.144-1.244,0.432c-0.333,0.288-0.612,0.707-0.836,1.256v5.16H127.059z"/>
	<path d="M135.091,540.008v11.784h-1.424v-11.784H135.091z"/>
	<path d="M139.507,541.144c0,0.14-0.028,0.269-0.084,0.389c-0.056,0.12-0.13,0.227-0.224,0.319
		c-0.094,0.094-0.202,0.167-0.324,0.221c-0.123,0.053-0.253,0.08-0.392,0.08s-0.268-0.027-0.388-0.08
		c-0.12-0.054-0.227-0.127-0.32-0.221c-0.093-0.093-0.167-0.199-0.22-0.319c-0.054-0.12-0.08-0.249-0.08-0.389
		c0-0.139,0.026-0.271,0.08-0.396c0.053-0.125,0.126-0.234,0.22-0.328c0.093-0.093,0.2-0.167,0.32-0.22
		c0.12-0.054,0.249-0.08,0.388-0.08s0.27,0.026,0.392,0.08c0.123,0.053,0.23,0.127,0.324,0.22c0.093,0.094,0.168,0.203,0.224,0.328
		C139.479,540.873,139.507,541.005,139.507,541.144z M139.187,543.688v8.104h-1.424v-8.104H139.187z"/>
	<path d="M144.427,543.552c0.352,0,0.681,0.039,0.988,0.116s0.585,0.19,0.836,0.34h2.2v0.528c0,0.176-0.112,0.288-0.336,0.336
		l-0.92,0.128c0.181,0.347,0.272,0.733,0.272,1.16c0,0.395-0.076,0.753-0.228,1.076c-0.152,0.322-0.363,0.599-0.632,0.828
		c-0.27,0.229-0.589,0.405-0.96,0.527c-0.371,0.123-0.777,0.185-1.22,0.185c-0.379,0-0.736-0.046-1.072-0.137
		c-0.171,0.107-0.3,0.222-0.388,0.345c-0.088,0.122-0.132,0.242-0.132,0.359c0,0.192,0.077,0.338,0.232,0.437
		c0.154,0.099,0.36,0.169,0.616,0.212c0.256,0.043,0.547,0.069,0.872,0.08s0.657,0.027,0.996,0.052
		c0.338,0.024,0.67,0.065,0.996,0.124c0.325,0.059,0.616,0.154,0.872,0.288c0.256,0.133,0.461,0.317,0.616,0.552
		s0.232,0.539,0.232,0.912c0,0.347-0.086,0.683-0.26,1.008s-0.423,0.615-0.748,0.868s-0.723,0.456-1.192,0.608
		c-0.47,0.151-1,0.228-1.592,0.228c-0.592,0-1.111-0.059-1.556-0.176c-0.446-0.117-0.815-0.274-1.108-0.472
		c-0.293-0.198-0.513-0.426-0.66-0.685c-0.147-0.259-0.22-0.529-0.22-0.812c0-0.4,0.127-0.74,0.38-1.021
		c0.253-0.28,0.602-0.503,1.044-0.668c-0.229-0.106-0.412-0.249-0.548-0.428c-0.136-0.179-0.204-0.417-0.204-0.716
		c0-0.117,0.021-0.239,0.064-0.364c0.042-0.125,0.108-0.249,0.196-0.372s0.196-0.24,0.324-0.352
		c0.128-0.112,0.277-0.211,0.448-0.297c-0.4-0.224-0.713-0.521-0.94-0.892c-0.227-0.37-0.34-0.804-0.34-1.3
		c0-0.395,0.076-0.753,0.228-1.076c0.152-0.322,0.364-0.598,0.636-0.824s0.596-0.401,0.972-0.523
		C143.567,543.613,143.979,543.552,144.427,543.552z M146.955,552.232c0-0.203-0.056-0.366-0.168-0.488
		c-0.112-0.123-0.264-0.218-0.456-0.284c-0.192-0.066-0.413-0.116-0.664-0.148c-0.251-0.031-0.515-0.054-0.792-0.067
		c-0.278-0.014-0.56-0.028-0.848-0.044c-0.288-0.017-0.563-0.046-0.824-0.088c-0.304,0.144-0.551,0.319-0.74,0.527
		c-0.189,0.208-0.284,0.456-0.284,0.744c0,0.182,0.047,0.351,0.14,0.508s0.236,0.294,0.428,0.408
		c0.192,0.115,0.434,0.205,0.724,0.272c0.291,0.066,0.633,0.1,1.028,0.1c0.384,0,0.728-0.034,1.032-0.104s0.561-0.168,0.772-0.296
		c0.21-0.129,0.372-0.28,0.484-0.456C146.899,552.64,146.955,552.445,146.955,552.232z M144.427,547.832
		c0.288,0,0.542-0.04,0.764-0.12c0.221-0.08,0.406-0.192,0.556-0.336s0.261-0.316,0.336-0.516c0.075-0.2,0.112-0.42,0.112-0.66
		c0-0.496-0.151-0.891-0.452-1.185c-0.301-0.293-0.74-0.439-1.316-0.439c-0.571,0-1.007,0.146-1.308,0.439
		c-0.301,0.294-0.452,0.688-0.452,1.185c0,0.24,0.039,0.46,0.116,0.66c0.077,0.199,0.19,0.372,0.34,0.516s0.333,0.256,0.552,0.336
		S144.144,547.832,144.427,547.832z"/>
	<path d="M152.331,551.92c-0.64,0-1.132-0.179-1.476-0.536c-0.344-0.357-0.516-0.872-0.516-1.544v-4.96h-0.976
		c-0.085,0-0.157-0.025-0.216-0.076s-0.088-0.129-0.088-0.235V544l1.328-0.168l0.328-2.504c0.011-0.08,0.045-0.146,0.104-0.196
		s0.133-0.076,0.224-0.076h0.72v2.792h2.32v1.032h-2.32v4.864c0,0.341,0.083,0.595,0.248,0.76c0.165,0.165,0.378,0.248,0.64,0.248
		c0.149,0,0.279-0.02,0.388-0.06s0.204-0.084,0.284-0.133c0.08-0.048,0.148-0.092,0.204-0.132c0.056-0.04,0.105-0.06,0.148-0.06
		c0.075,0,0.142,0.045,0.2,0.136l0.416,0.68c-0.245,0.229-0.542,0.41-0.888,0.54C153.056,551.854,152.699,551.92,152.331,551.92z"/>
</g>
<ellipse fill="none" stroke="#000000" stroke-width="2" stroke-miterlimit="10" cx="891.313" cy="212.606" rx="0.438" ry="1.019"/>
<ellipse fill="none" stroke="#000000" stroke-width="2" stroke-miterlimit="10" cx="891.15" cy="347.425" rx="1.15" ry="0.925"/>
<rect y="2.5" fill="none" width="1000" height="555"/>
<g>
	<path d="M22.225,57.997h4.96v1.304h-6.512V47.837h1.552V57.997z"/>
	<path d="M30.577,48.653c0,0.139-0.028,0.268-0.084,0.388c-0.056,0.12-0.13,0.227-0.224,0.32c-0.094,0.093-0.202,0.167-0.324,0.22
		c-0.123,0.054-0.253,0.08-0.392,0.08s-0.268-0.026-0.388-0.08c-0.12-0.053-0.227-0.126-0.32-0.22s-0.167-0.2-0.22-0.32
		c-0.054-0.12-0.08-0.25-0.08-0.388s0.026-0.271,0.08-0.396c0.053-0.125,0.126-0.235,0.22-0.328s0.2-0.167,0.32-0.22
		c0.12-0.053,0.249-0.08,0.388-0.08s0.27,0.027,0.392,0.08s0.23,0.126,0.324,0.22c0.093,0.093,0.168,0.203,0.224,0.328
		C30.549,48.383,30.577,48.515,30.577,48.653z M30.257,51.197v8.104h-1.424v-8.104H30.257z"/>
	<path d="M31.745,51.197h1.168c0.112,0,0.205,0.029,0.28,0.088c0.075,0.059,0.128,0.128,0.16,0.208l2.056,5.216
		c0.075,0.192,0.133,0.384,0.176,0.576c0.043,0.192,0.083,0.381,0.12,0.568c0.042-0.187,0.088-0.376,0.136-0.568
		c0.048-0.192,0.109-0.384,0.184-0.576l2.08-5.216c0.032-0.085,0.084-0.156,0.156-0.212c0.072-0.056,0.161-0.084,0.268-0.084h1.112
		l-3.304,8.104h-1.288L31.745,51.197z"/>
	<path d="M45.601,52.533c-0.064,0.118-0.163,0.176-0.296,0.176c-0.08,0-0.171-0.029-0.272-0.088
		c-0.102-0.059-0.226-0.124-0.372-0.196c-0.147-0.072-0.322-0.139-0.524-0.2c-0.203-0.061-0.443-0.092-0.72-0.092
		c-0.24,0-0.456,0.031-0.648,0.092c-0.192,0.062-0.356,0.146-0.492,0.252c-0.136,0.107-0.24,0.231-0.312,0.372
		c-0.072,0.142-0.108,0.295-0.108,0.46c0,0.208,0.06,0.381,0.18,0.52c0.12,0.139,0.278,0.259,0.476,0.36
		c0.197,0.101,0.421,0.19,0.672,0.268c0.25,0.078,0.508,0.16,0.772,0.248c0.264,0.088,0.521,0.186,0.772,0.292
		c0.25,0.107,0.475,0.24,0.672,0.4c0.197,0.16,0.356,0.356,0.476,0.588s0.18,0.511,0.18,0.836c0,0.374-0.067,0.719-0.2,1.036
		s-0.331,0.592-0.592,0.824c-0.262,0.232-0.582,0.415-0.96,0.548c-0.379,0.133-0.816,0.2-1.312,0.2
		c-0.565,0-1.078-0.092-1.536-0.276c-0.459-0.184-0.848-0.42-1.168-0.708l0.336-0.544c0.042-0.069,0.093-0.123,0.152-0.16
		c0.059-0.037,0.136-0.056,0.232-0.056c0.096,0,0.197,0.038,0.304,0.112c0.106,0.075,0.236,0.157,0.388,0.248
		c0.152,0.091,0.336,0.173,0.552,0.248s0.487,0.112,0.812,0.112c0.277,0,0.52-0.036,0.728-0.108c0.208-0.072,0.381-0.169,0.52-0.292
		s0.241-0.264,0.308-0.424c0.066-0.16,0.1-0.331,0.1-0.512c0-0.224-0.06-0.409-0.18-0.556c-0.12-0.146-0.279-0.272-0.476-0.376
		s-0.423-0.194-0.676-0.272c-0.253-0.077-0.512-0.159-0.776-0.244c-0.264-0.085-0.522-0.183-0.776-0.292
		c-0.253-0.109-0.479-0.247-0.676-0.412c-0.198-0.166-0.356-0.37-0.476-0.612s-0.18-0.537-0.18-0.884
		c0-0.31,0.064-0.607,0.192-0.892c0.128-0.285,0.315-0.536,0.56-0.752c0.246-0.216,0.547-0.388,0.904-0.516
		c0.357-0.128,0.765-0.192,1.224-0.192c0.534,0,1.012,0.084,1.436,0.252c0.424,0.168,0.791,0.399,1.1,0.692L45.601,52.533z"/>
	<path d="M49.384,47.517v6.936h0.368c0.106,0,0.194-0.015,0.264-0.044s0.147-0.089,0.232-0.18l2.56-2.744
		c0.08-0.085,0.16-0.155,0.24-0.208s0.187-0.08,0.32-0.08h1.296l-2.984,3.176c-0.075,0.091-0.148,0.171-0.22,0.24
		c-0.072,0.069-0.153,0.131-0.244,0.184c0.096,0.064,0.183,0.137,0.26,0.22c0.077,0.083,0.15,0.178,0.22,0.284l3.168,4h-1.28
		c-0.118,0-0.217-0.022-0.3-0.068c-0.083-0.045-0.161-0.116-0.236-0.212l-2.664-3.32c-0.08-0.112-0.16-0.185-0.24-0.22
		c-0.08-0.035-0.2-0.052-0.36-0.052h-0.4v3.872h-1.432V47.517H49.384z"/>
	<path d="M55.264,51.197h1.168c0.112,0,0.205,0.029,0.28,0.088c0.075,0.059,0.128,0.128,0.16,0.208l2.056,5.216
		c0.075,0.192,0.133,0.384,0.176,0.576c0.043,0.192,0.083,0.381,0.12,0.568c0.042-0.187,0.088-0.376,0.136-0.568
		c0.048-0.192,0.109-0.384,0.184-0.576l2.08-5.216c0.032-0.085,0.084-0.156,0.156-0.212c0.072-0.056,0.161-0.084,0.268-0.084h1.112
		l-3.304,8.104h-1.288L55.264,51.197z"/>
	<path d="M70.432,59.301H69.8c-0.139,0-0.25-0.021-0.336-0.064s-0.141-0.133-0.168-0.272l-0.16-0.752
		c-0.213,0.192-0.421,0.364-0.624,0.516c-0.203,0.152-0.416,0.28-0.64,0.384s-0.463,0.183-0.716,0.236
		c-0.253,0.053-0.535,0.08-0.844,0.08c-0.315,0-0.609-0.044-0.884-0.132c-0.275-0.088-0.514-0.22-0.716-0.396
		c-0.203-0.176-0.364-0.399-0.484-0.668c-0.12-0.27-0.18-0.588-0.18-0.956c0-0.32,0.088-0.628,0.264-0.924
		c0.176-0.296,0.46-0.559,0.852-0.788c0.392-0.229,0.905-0.417,1.54-0.564c0.635-0.147,1.411-0.231,2.328-0.252v-0.632
		c0-0.629-0.135-1.105-0.404-1.428s-0.668-0.484-1.196-0.484c-0.347,0-0.639,0.044-0.876,0.132s-0.443,0.187-0.616,0.296
		s-0.323,0.208-0.448,0.296c-0.125,0.088-0.25,0.132-0.372,0.132c-0.096,0-0.18-0.025-0.252-0.076
		c-0.072-0.051-0.129-0.113-0.172-0.188l-0.256-0.456c0.448-0.432,0.931-0.755,1.448-0.968c0.517-0.213,1.09-0.32,1.72-0.32
		c0.453,0,0.856,0.075,1.208,0.224s0.648,0.357,0.888,0.624c0.24,0.267,0.421,0.589,0.544,0.968
		c0.123,0.379,0.184,0.795,0.184,1.248V59.301z M66.736,58.429c0.251,0,0.48-0.025,0.688-0.076c0.208-0.05,0.404-0.123,0.588-0.216
		c0.184-0.093,0.36-0.207,0.528-0.34s0.332-0.285,0.492-0.456v-1.688c-0.656,0.021-1.213,0.073-1.672,0.156
		c-0.458,0.083-0.832,0.191-1.12,0.324c-0.288,0.133-0.498,0.291-0.628,0.472c-0.13,0.181-0.196,0.384-0.196,0.608
		c0,0.213,0.035,0.397,0.104,0.552c0.069,0.155,0.163,0.282,0.28,0.38c0.118,0.099,0.256,0.17,0.416,0.216
		C66.376,58.407,66.549,58.429,66.736,58.429z"/>
	<path d="M74.176,47.517v11.784h-1.424V47.517H74.176z"/>
	<path d="M78.591,48.653c0,0.139-0.028,0.268-0.084,0.388c-0.056,0.12-0.13,0.227-0.224,0.32c-0.094,0.093-0.202,0.167-0.324,0.22
		c-0.123,0.054-0.253,0.08-0.392,0.08s-0.268-0.026-0.388-0.08c-0.12-0.053-0.227-0.126-0.32-0.22s-0.167-0.2-0.22-0.32
		c-0.054-0.12-0.08-0.25-0.08-0.388s0.026-0.271,0.08-0.396c0.053-0.125,0.126-0.235,0.22-0.328s0.2-0.167,0.32-0.22
		c0.12-0.053,0.249-0.08,0.388-0.08s0.27,0.027,0.392,0.08s0.23,0.126,0.324,0.22c0.093,0.093,0.168,0.203,0.224,0.328
		C78.563,48.383,78.591,48.515,78.591,48.653z M78.271,51.197v8.104h-1.424v-8.104H78.271z"/>
	<path d="M83.239,59.429c-0.64,0-1.132-0.179-1.476-0.536c-0.344-0.357-0.516-0.872-0.516-1.544v-4.96h-0.976
		c-0.085,0-0.157-0.025-0.216-0.076s-0.088-0.129-0.088-0.236v-0.568l1.328-0.168l0.328-2.504c0.011-0.08,0.045-0.146,0.104-0.196
		c0.059-0.05,0.133-0.076,0.224-0.076h0.72v2.792h2.32v1.032h-2.32v4.864c0,0.341,0.083,0.595,0.248,0.76
		c0.165,0.166,0.378,0.248,0.64,0.248c0.149,0,0.279-0.02,0.388-0.06s0.204-0.084,0.284-0.132c0.08-0.048,0.148-0.092,0.204-0.132
		c0.056-0.04,0.105-0.06,0.148-0.06c0.075,0,0.142,0.045,0.2,0.136l0.416,0.68c-0.245,0.229-0.542,0.409-0.888,0.54
		C83.964,59.364,83.607,59.429,83.239,59.429z"/>
	<path d="M89.959,51.069c0.485,0,0.933,0.082,1.344,0.244c0.411,0.163,0.765,0.397,1.064,0.704c0.298,0.307,0.532,0.686,0.7,1.136
		s0.252,0.964,0.252,1.54c0,0.224-0.024,0.373-0.072,0.448s-0.139,0.112-0.272,0.112h-5.392c0.011,0.512,0.08,0.957,0.208,1.336
		s0.304,0.695,0.528,0.948c0.224,0.253,0.491,0.443,0.8,0.568c0.309,0.125,0.656,0.188,1.04,0.188c0.357,0,0.665-0.042,0.924-0.124
		c0.259-0.083,0.481-0.172,0.668-0.268c0.187-0.096,0.343-0.186,0.468-0.268c0.125-0.083,0.233-0.124,0.324-0.124
		c0.117,0,0.208,0.045,0.272,0.136l0.4,0.52c-0.176,0.213-0.387,0.399-0.632,0.556c-0.246,0.157-0.508,0.287-0.788,0.388
		c-0.28,0.101-0.569,0.177-0.868,0.228c-0.299,0.05-0.595,0.076-0.888,0.076c-0.56,0-1.076-0.095-1.548-0.284
		c-0.472-0.189-0.88-0.467-1.224-0.832c-0.344-0.365-0.612-0.817-0.804-1.356s-0.288-1.157-0.288-1.856
		c0-0.565,0.087-1.093,0.26-1.584s0.422-0.916,0.748-1.276c0.325-0.36,0.723-0.643,1.192-0.848
		C88.844,51.172,89.372,51.069,89.959,51.069z M89.991,52.117c-0.688,0-1.229,0.199-1.624,0.596
		c-0.395,0.397-0.64,0.948-0.736,1.652h4.408c0-0.331-0.045-0.633-0.136-0.908c-0.09-0.274-0.224-0.512-0.4-0.712
		c-0.176-0.2-0.391-0.354-0.644-0.464S90.316,52.117,89.991,52.117z"/>
	<path d="M97.591,59.429c-0.64,0-1.132-0.179-1.476-0.536c-0.344-0.357-0.516-0.872-0.516-1.544v-4.96h-0.976
		c-0.085,0-0.157-0.025-0.216-0.076s-0.088-0.129-0.088-0.236v-0.568l1.328-0.168l0.328-2.504c0.011-0.08,0.045-0.146,0.104-0.196
		c0.059-0.05,0.133-0.076,0.224-0.076h0.72v2.792h2.32v1.032h-2.32v4.864c0,0.341,0.083,0.595,0.248,0.76
		c0.165,0.166,0.378,0.248,0.64,0.248c0.149,0,0.279-0.02,0.388-0.06s0.204-0.084,0.284-0.132c0.08-0.048,0.148-0.092,0.204-0.132
		c0.056-0.04,0.105-0.06,0.148-0.06c0.075,0,0.142,0.045,0.2,0.136l0.416,0.68c-0.245,0.229-0.542,0.409-0.888,0.54
		C98.316,59.364,97.959,59.429,97.591,59.429z"/>
	<path d="M104.311,59.469c-0.075,0.187-0.186,0.325-0.332,0.416c-0.147,0.091-0.297,0.136-0.452,0.136h-0.6l4.808-11.976
		c0.069-0.171,0.168-0.301,0.296-0.392c0.128-0.091,0.28-0.136,0.456-0.136h0.6L104.311,59.469z"/>
	<path d="M27.737,67.038v1.264h-5.504v3.808h4.456v1.216h-4.456v3.912h5.504v1.264h-7.064V67.038H27.737z"/>
	<path d="M29.745,78.501v-8.104h0.848c0.203,0,0.331,0.099,0.384,0.296l0.112,0.88c0.352-0.389,0.745-0.704,1.18-0.944
		c0.435-0.24,0.938-0.36,1.508-0.36c0.442,0,0.833,0.073,1.172,0.22c0.338,0.147,0.621,0.355,0.848,0.624
		c0.227,0.27,0.398,0.594,0.516,0.972c0.117,0.379,0.176,0.797,0.176,1.256v5.16h-1.424v-5.16c0-0.613-0.14-1.089-0.42-1.428
		c-0.28-0.339-0.708-0.508-1.284-0.508c-0.421,0-0.815,0.102-1.18,0.304s-0.703,0.478-1.012,0.824v5.968H29.745z"/>
	<path d="M41.849,70.27c0.485,0,0.933,0.082,1.344,0.244c0.411,0.163,0.765,0.397,1.064,0.704c0.298,0.307,0.532,0.686,0.7,1.136
		s0.252,0.964,0.252,1.54c0,0.224-0.024,0.373-0.072,0.448s-0.139,0.112-0.272,0.112h-5.392c0.011,0.512,0.08,0.957,0.208,1.336
		s0.304,0.695,0.528,0.948c0.224,0.253,0.491,0.443,0.8,0.568c0.309,0.125,0.656,0.188,1.04,0.188c0.357,0,0.665-0.042,0.924-0.124
		c0.259-0.083,0.481-0.172,0.668-0.268c0.187-0.096,0.343-0.186,0.468-0.268c0.125-0.083,0.233-0.124,0.324-0.124
		c0.117,0,0.208,0.045,0.272,0.136l0.4,0.52c-0.176,0.213-0.387,0.399-0.632,0.556c-0.246,0.157-0.508,0.287-0.788,0.388
		c-0.28,0.101-0.569,0.177-0.868,0.228c-0.299,0.05-0.595,0.076-0.888,0.076c-0.56,0-1.076-0.095-1.548-0.284
		c-0.472-0.189-0.88-0.467-1.224-0.832c-0.344-0.365-0.612-0.817-0.804-1.356s-0.288-1.157-0.288-1.856
		c0-0.565,0.087-1.093,0.26-1.584s0.422-0.916,0.748-1.276c0.325-0.36,0.723-0.643,1.192-0.848
		C40.734,70.372,41.262,70.27,41.849,70.27z M41.881,71.317c-0.688,0-1.229,0.199-1.624,0.596c-0.395,0.397-0.64,0.948-0.736,1.652
		h4.408c0-0.331-0.045-0.633-0.136-0.908c-0.09-0.274-0.224-0.512-0.4-0.712c-0.176-0.2-0.391-0.354-0.644-0.464
		S42.206,71.317,41.881,71.317z"/>
	<path d="M47.024,78.501v-8.104h0.816c0.155,0,0.261,0.029,0.32,0.088c0.059,0.059,0.099,0.16,0.12,0.304l0.096,1.264
		c0.277-0.565,0.62-1.006,1.028-1.324c0.408-0.317,0.887-0.476,1.436-0.476c0.224,0,0.427,0.025,0.608,0.076
		c0.182,0.051,0.35,0.121,0.504,0.212l-0.184,1.064c-0.038,0.133-0.12,0.2-0.248,0.2c-0.075,0-0.189-0.025-0.344-0.076
		s-0.371-0.076-0.648-0.076c-0.496,0-0.911,0.144-1.244,0.432c-0.333,0.288-0.612,0.707-0.836,1.256v5.16H47.024z"/>
	<path d="M56.201,70.261c0.352,0,0.681,0.039,0.988,0.116c0.307,0.078,0.585,0.191,0.836,0.34h2.2v0.528
		c0,0.176-0.112,0.288-0.336,0.336l-0.92,0.128c0.181,0.347,0.272,0.733,0.272,1.16c0,0.395-0.076,0.753-0.228,1.076
		c-0.152,0.323-0.363,0.599-0.632,0.828c-0.27,0.229-0.589,0.405-0.96,0.528c-0.371,0.123-0.777,0.184-1.22,0.184
		c-0.379,0-0.736-0.045-1.072-0.136c-0.171,0.106-0.3,0.221-0.388,0.344c-0.088,0.123-0.132,0.243-0.132,0.36
		c0,0.192,0.077,0.337,0.232,0.436c0.154,0.099,0.36,0.169,0.616,0.212c0.256,0.042,0.547,0.069,0.872,0.08
		c0.325,0.011,0.657,0.028,0.996,0.052c0.338,0.024,0.67,0.065,0.996,0.124c0.325,0.059,0.616,0.155,0.872,0.288
		c0.256,0.133,0.461,0.317,0.616,0.552c0.155,0.235,0.232,0.539,0.232,0.912c0,0.347-0.086,0.683-0.26,1.008
		s-0.423,0.615-0.748,0.868s-0.723,0.456-1.192,0.608c-0.47,0.152-1,0.228-1.592,0.228c-0.592,0-1.111-0.059-1.556-0.176
		c-0.446-0.118-0.815-0.275-1.108-0.472c-0.293-0.197-0.513-0.425-0.66-0.684c-0.147-0.259-0.22-0.529-0.22-0.812
		c0-0.4,0.127-0.74,0.38-1.02c0.253-0.28,0.602-0.502,1.044-0.668c-0.229-0.106-0.412-0.249-0.548-0.428
		c-0.136-0.179-0.204-0.417-0.204-0.716c0-0.117,0.021-0.238,0.064-0.364c0.042-0.125,0.108-0.25,0.196-0.372
		s0.196-0.24,0.324-0.352c0.128-0.112,0.277-0.21,0.448-0.296c-0.4-0.224-0.713-0.521-0.94-0.892c-0.227-0.371-0.34-0.804-0.34-1.3
		c0-0.395,0.076-0.753,0.228-1.076c0.152-0.323,0.364-0.597,0.636-0.824c0.272-0.227,0.596-0.401,0.972-0.524
		C55.341,70.323,55.753,70.261,56.201,70.261z M58.729,78.941c0-0.203-0.056-0.365-0.168-0.488
		c-0.112-0.123-0.264-0.217-0.456-0.284c-0.192-0.066-0.413-0.116-0.664-0.148c-0.251-0.032-0.515-0.055-0.792-0.068
		c-0.278-0.013-0.56-0.028-0.848-0.044c-0.288-0.016-0.563-0.045-0.824-0.088c-0.304,0.144-0.551,0.32-0.74,0.528
		c-0.189,0.208-0.284,0.456-0.284,0.744c0,0.182,0.047,0.351,0.14,0.508c0.093,0.157,0.236,0.293,0.428,0.408
		c0.192,0.115,0.434,0.206,0.724,0.272c0.291,0.067,0.633,0.1,1.028,0.1c0.384,0,0.728-0.035,1.032-0.104s0.561-0.168,0.772-0.296
		c0.21-0.128,0.372-0.28,0.484-0.456C58.673,79.35,58.729,79.155,58.729,78.941z M56.201,74.542c0.288,0,0.542-0.04,0.764-0.12
		c0.221-0.08,0.406-0.192,0.556-0.336s0.261-0.316,0.336-0.516c0.075-0.2,0.112-0.42,0.112-0.66c0-0.496-0.151-0.891-0.452-1.184
		s-0.74-0.44-1.316-0.44c-0.571,0-1.007,0.146-1.308,0.44s-0.452,0.688-0.452,1.184c0,0.24,0.039,0.46,0.116,0.66
		c0.077,0.2,0.19,0.372,0.34,0.516s0.333,0.256,0.552,0.336S55.918,74.542,56.201,74.542z"/>
	<path d="M63.552,67.854c0,0.139-0.028,0.268-0.084,0.388c-0.056,0.12-0.13,0.227-0.224,0.32c-0.094,0.093-0.202,0.167-0.324,0.22
		c-0.123,0.054-0.253,0.08-0.392,0.08s-0.268-0.026-0.388-0.08c-0.12-0.053-0.227-0.126-0.32-0.22s-0.167-0.2-0.22-0.32
		c-0.054-0.12-0.08-0.25-0.08-0.388s0.026-0.271,0.08-0.396c0.053-0.125,0.126-0.235,0.22-0.328s0.2-0.167,0.32-0.22
		c0.12-0.053,0.249-0.08,0.388-0.08s0.27,0.027,0.392,0.08s0.23,0.126,0.324,0.22c0.093,0.093,0.168,0.203,0.224,0.328
		C63.524,67.583,63.552,67.715,63.552,67.854z M63.232,70.397v8.104h-1.424v-8.104H63.232z"/>
	<path d="M65.744,78.501v-8.104h0.848c0.203,0,0.331,0.099,0.384,0.296l0.112,0.88c0.352-0.389,0.745-0.704,1.18-0.944
		c0.435-0.24,0.938-0.36,1.508-0.36c0.442,0,0.833,0.073,1.172,0.22c0.338,0.147,0.621,0.355,0.848,0.624
		c0.227,0.27,0.398,0.594,0.516,0.972c0.117,0.379,0.176,0.797,0.176,1.256v5.16h-1.424v-5.16c0-0.613-0.14-1.089-0.42-1.428
		c-0.28-0.339-0.708-0.508-1.284-0.508c-0.421,0-0.815,0.102-1.18,0.304s-0.703,0.478-1.012,0.824v5.968H65.744z"/>
	<path d="M76.544,67.854c0,0.139-0.028,0.268-0.084,0.388c-0.056,0.12-0.13,0.227-0.224,0.32c-0.094,0.093-0.202,0.167-0.324,0.22
		c-0.123,0.054-0.253,0.08-0.392,0.08s-0.268-0.026-0.388-0.08c-0.12-0.053-0.227-0.126-0.32-0.22s-0.167-0.2-0.22-0.32
		c-0.054-0.12-0.08-0.25-0.08-0.388s0.026-0.271,0.08-0.396c0.053-0.125,0.126-0.235,0.22-0.328s0.2-0.167,0.32-0.22
		c0.12-0.053,0.249-0.08,0.388-0.08s0.27,0.027,0.392,0.08s0.23,0.126,0.324,0.22c0.093,0.093,0.168,0.203,0.224,0.328
		C76.516,67.583,76.544,67.715,76.544,67.854z M76.224,70.397v8.104H74.8v-8.104H76.224z"/>
	<path d="M77.712,70.397h1.168c0.112,0,0.205,0.029,0.28,0.088c0.075,0.059,0.128,0.128,0.16,0.208l2.056,5.216
		c0.075,0.192,0.133,0.384,0.176,0.576c0.043,0.192,0.083,0.381,0.12,0.568c0.042-0.187,0.088-0.376,0.136-0.568
		c0.048-0.192,0.109-0.384,0.184-0.576l2.08-5.216c0.032-0.085,0.084-0.156,0.156-0.212c0.072-0.056,0.161-0.084,0.268-0.084h1.112
		l-3.304,8.104h-1.288L77.712,70.397z"/>
	<path d="M89.929,70.27c0.485,0,0.933,0.082,1.344,0.244c0.411,0.163,0.765,0.397,1.064,0.704c0.298,0.307,0.532,0.686,0.7,1.136
		s0.252,0.964,0.252,1.54c0,0.224-0.024,0.373-0.072,0.448s-0.139,0.112-0.272,0.112h-5.392c0.011,0.512,0.08,0.957,0.208,1.336
		s0.304,0.695,0.528,0.948c0.224,0.253,0.491,0.443,0.8,0.568c0.309,0.125,0.656,0.188,1.04,0.188c0.357,0,0.665-0.042,0.924-0.124
		c0.259-0.083,0.481-0.172,0.668-0.268c0.187-0.096,0.343-0.186,0.468-0.268c0.125-0.083,0.233-0.124,0.324-0.124
		c0.117,0,0.208,0.045,0.272,0.136l0.4,0.52c-0.176,0.213-0.387,0.399-0.632,0.556c-0.246,0.157-0.508,0.287-0.788,0.388
		c-0.28,0.101-0.569,0.177-0.868,0.228c-0.299,0.05-0.595,0.076-0.888,0.076c-0.56,0-1.076-0.095-1.548-0.284
		c-0.472-0.189-0.88-0.467-1.224-0.832c-0.344-0.365-0.612-0.817-0.804-1.356s-0.288-1.157-0.288-1.856
		c0-0.565,0.087-1.093,0.26-1.584s0.422-0.916,0.748-1.276c0.325-0.36,0.723-0.643,1.192-0.848
		C88.814,70.372,89.342,70.27,89.929,70.27z M89.961,71.317c-0.688,0-1.229,0.199-1.624,0.596c-0.395,0.397-0.64,0.948-0.736,1.652
		h4.408c0-0.331-0.045-0.633-0.136-0.908c-0.09-0.274-0.224-0.512-0.4-0.712c-0.176-0.2-0.391-0.354-0.644-0.464
		S90.286,71.317,89.961,71.317z"/>
	<path d="M101.057,78.501h-0.632c-0.139,0-0.25-0.021-0.336-0.064s-0.141-0.133-0.168-0.272l-0.16-0.752
		c-0.213,0.192-0.421,0.364-0.624,0.516c-0.203,0.152-0.416,0.28-0.64,0.384s-0.463,0.183-0.716,0.236
		c-0.253,0.053-0.535,0.08-0.844,0.08c-0.315,0-0.609-0.044-0.884-0.132c-0.275-0.088-0.514-0.22-0.716-0.396
		c-0.203-0.176-0.364-0.399-0.484-0.668c-0.12-0.27-0.18-0.588-0.18-0.956c0-0.32,0.088-0.628,0.264-0.924
		c0.176-0.296,0.46-0.559,0.852-0.788c0.392-0.229,0.905-0.417,1.54-0.564c0.635-0.147,1.411-0.231,2.328-0.252v-0.632
		c0-0.629-0.135-1.105-0.404-1.428s-0.668-0.484-1.196-0.484c-0.347,0-0.639,0.044-0.876,0.132s-0.443,0.187-0.616,0.296
		s-0.323,0.208-0.448,0.296c-0.125,0.088-0.25,0.132-0.372,0.132c-0.096,0-0.18-0.025-0.252-0.076
		c-0.072-0.051-0.129-0.113-0.172-0.188l-0.256-0.456c0.448-0.432,0.931-0.755,1.448-0.968c0.517-0.213,1.09-0.32,1.72-0.32
		c0.453,0,0.856,0.075,1.208,0.224s0.648,0.357,0.888,0.624c0.24,0.267,0.421,0.589,0.544,0.968
		c0.123,0.379,0.184,0.795,0.184,1.248V78.501z M97.36,77.629c0.251,0,0.48-0.025,0.688-0.076c0.208-0.05,0.404-0.123,0.588-0.216
		c0.184-0.093,0.36-0.207,0.528-0.34s0.332-0.285,0.492-0.456v-1.688c-0.656,0.021-1.213,0.073-1.672,0.156
		c-0.458,0.083-0.832,0.191-1.12,0.324c-0.288,0.133-0.498,0.291-0.628,0.472c-0.13,0.181-0.196,0.384-0.196,0.608
		c0,0.213,0.035,0.397,0.104,0.552c0.069,0.155,0.163,0.282,0.28,0.38c0.118,0.099,0.256,0.17,0.416,0.216
		C97,77.607,97.174,77.629,97.36,77.629z"/>
	<path d="M104.448,70.397v5.168c0,0.613,0.141,1.088,0.424,1.424c0.282,0.336,0.709,0.504,1.28,0.504
		c0.416,0,0.808-0.099,1.176-0.296c0.368-0.197,0.707-0.472,1.016-0.824v-5.976h1.424v8.104h-0.848
		c-0.203,0-0.331-0.099-0.384-0.296l-0.112-0.872c-0.352,0.389-0.747,0.703-1.184,0.94s-0.938,0.356-1.504,0.356
		c-0.443,0-0.833-0.073-1.172-0.22c-0.339-0.147-0.623-0.354-0.852-0.62c-0.229-0.267-0.401-0.589-0.516-0.968
		c-0.115-0.378-0.172-0.797-0.172-1.256v-5.168H104.448z"/>
</g>
</svg>
