<svg xml:space="preserve" width="1000" height="560" xmlns="http://www.w3.org/2000/svg"><path fill="none" stroke="#000" stroke-miterlimit="10" stroke-width="2" d="M130 347.5h760v2l4-2-4-2v2M890 212.5v2l4-2-4-2v2H130"/><linearGradient id="ha-bds-kurve_svg__a" x1="373.009" x2="816.511" y1="374.68" y2="374.68" gradientUnits="userSpaceOnUse"><stop offset="0" style="stop-color:#fff33b"/><stop offset=".059" style="stop-color:#ffe029"/><stop offset=".13" style="stop-color:#ffd218"/><stop offset=".203" style="stop-color:#fec90f"/><stop offset=".281" style="stop-color:#fdc70c"/><stop offset=".668" style="stop-color:#f3903f"/><stop offset=".888" style="stop-color:#ed683c"/><stop offset="1" style="stop-color:#e93e3a"/></linearGradient><path fill="none" stroke="url(#ha-bds-kurve_svg__a)" stroke-miterlimit="10" stroke-width="2" d="M373.5 237c44.75 25.25 45 119 71.5 119s28.5-155 50.25-154S524 418 542 417.5 570.5 196 582 196s27.5 267.5 39 268 34.5-263.5 46.5-264 29 314.5 42.5 316 34-315 47-317 33.5 339.333 59 354.5"/><path fill="none" stroke="#8DC63F" stroke-miterlimit="10" stroke-width="2" d="M130 205.5s4.527-13.706 13.764-14.02S157.64 242.809 167.5 244c15.167 1.833 17.5-32 41-50s43.5-15.167 63-14 40.5 10.833 48 17.5 11.833 10.333 21 19.5 30.833 21.167 44 23 25-7.5 25-7.5 34.066-25.533 42-29.5c7.933-3.966 60.167-23.5 85.5-20s81 54.167 108 54 41.334-41.5 75-42.5 58.667 36.667 86 35 29.334-43.667 44.5-48.5 36 3 36 3"/><path fill="none" stroke="#000" stroke-miterlimit="10" stroke-width="2" d="M130 527.5h2l-2 4-2-4h2v-495h2l-2-4-2 4h2"/><path d="M901.578 209.862a3.123 3.123 0 0 1-.34-.772 2.86 2.86 0 0 1 .248-2.152 4.26 4.26 0 0 1 .996-1.212l.439.272c.043.027.07.056.084.088a.258.258 0 0 1-.06.288 5.826 5.826 0 0 0-.247.336 2.96 2.96 0 0 0-.216.372c-.064.131-.115.268-.152.412s-.057.296-.057.456c0 .17.025.347.076.528s.138.374.26.576c.038.059.057.12.057.184 0 .128-.072.219-.216.272l-.872.352zm2.432 0a3.123 3.123 0 0 1-.34-.772 2.87 2.87 0 0 1 .248-2.152c.237-.44.569-.844.996-1.212l.439.272a.199.199 0 0 1 .084.088.258.258 0 0 1-.059.288c-.085.107-.168.219-.248.336s-.151.241-.216.372-.115.268-.152.412-.056.296-.056.456c0 .17.025.347.076.528.05.181.138.374.26.576.037.059.056.12.056.184 0 .128-.072.219-.216.272l-.872.352zM908.99 206.546a.815.815 0 0 1 .229.212l6.64 8.64c-.017-.139-.026-.273-.032-.404s-.008-.257-.008-.38v-8.12h1.359v11.464h-.783a.667.667 0 0 1-.309-.064.78.78 0 0 1-.244-.216l-6.631-8.632a10.939 10.939 0 0 1 .031.744v8.168h-1.359v-11.464h.799a.721.721 0 0 1 .308.052zM923.034 209.727c.592 0 1.126.099 1.604.296s.883.478 1.216.84c.334.363.59.802.769 1.316s.269 1.089.269 1.724c0 .64-.09 1.216-.269 1.728-.179.512-.435.95-.769 1.312a3.32 3.32 0 0 1-1.216.836 4.209 4.209 0 0 1-1.604.292 4.202 4.202 0 0 1-1.604-.292 3.368 3.368 0 0 1-1.22-.836 3.73 3.73 0 0 1-.776-1.312c-.182-.512-.271-1.088-.271-1.728 0-.634.09-1.209.271-1.724s.44-.954.776-1.316a3.428 3.428 0 0 1 1.22-.84 4.145 4.145 0 0 1 1.604-.296zm0 7.231c.8 0 1.397-.268 1.792-.804s.592-1.284.592-2.244c0-.965-.197-1.717-.592-2.256-.395-.539-.992-.808-1.792-.808-.405 0-.758.069-1.056.208a1.963 1.963 0 0 0-.748.6c-.201.262-.35.583-.449.964-.098.381-.147.812-.147 1.292s.05.909.147 1.288c.1.378.248.697.449.956.199.259.449.458.748.596.298.139.651.208 1.056.208zM928.65 217.958v-8.104h.815c.155 0 .261.029.32.088s.099.16.12.304l.096 1.264c.277-.565.62-1.006 1.027-1.324a2.275 2.275 0 0 1 1.437-.476 2.114 2.114 0 0 1 1.112.288l-.184 1.064c-.038.133-.121.2-.248.2-.075 0-.189-.025-.345-.076s-.37-.076-.647-.076c-.496 0-.911.144-1.244.432-.334.288-.612.707-.836 1.256v5.16h-1.423zM935.098 217.958v-8.104h.848c.203 0 .331.099.385.296l.104.832c.299-.368.633-.669 1.004-.904s.801-.352 1.292-.352c.55 0 .993.152 1.332.456.339.304.583.715.731 1.232a2.56 2.56 0 0 1 1.796-1.592c.258-.064.521-.096.788-.096.427 0 .806.068 1.14.204.334.136.616.334.848.596.232.262.41.583.532.964.123.381.185.817.185 1.308v5.16h-1.424v-5.16c0-.634-.139-1.116-.416-1.444s-.681-.492-1.209-.492a1.83 1.83 0 0 0-.668.124 1.611 1.611 0 0 0-.936.968 2.329 2.329 0 0 0-.141.844v5.16h-1.424v-5.16c0-.65-.131-1.136-.392-1.456-.261-.32-.643-.48-1.144-.48-.353 0-.68.095-.98.284s-.577.447-.828.772v6.04h-1.423zM954.186 217.958h-.633a.75.75 0 0 1-.336-.064c-.085-.042-.141-.133-.168-.272l-.159-.752a9.172 9.172 0 0 1-.624.516c-.203.152-.416.28-.641.384a3.314 3.314 0 0 1-.715.236 4.14 4.14 0 0 1-.845.08c-.315 0-.609-.044-.884-.132a2.02 2.02 0 0 1-.717-.396 1.894 1.894 0 0 1-.483-.668 2.336 2.336 0 0 1-.181-.956c0-.32.089-.628.265-.924.176-.296.46-.559.853-.788.392-.229.904-.417 1.539-.564.635-.147 1.411-.231 2.328-.252v-.632c0-.629-.135-1.105-.404-1.428s-.668-.484-1.195-.484c-.347 0-.639.044-.876.132s-.442.187-.616.296-.322.208-.447.296a.65.65 0 0 1-.373.132c-.096 0-.18-.025-.252-.076s-.129-.113-.172-.188l-.256-.456a4.626 4.626 0 0 1 1.448-.968 4.477 4.477 0 0 1 1.72-.32c.453 0 .855.075 1.208.224s.647.357.888.624.422.589.545.968c.122.379.184.795.184 1.248v5.184zm-3.697-.872a2.717 2.717 0 0 0 1.276-.292c.184-.093.359-.207.527-.34s.332-.285.492-.456v-1.688c-.656.021-1.213.073-1.672.156-.459.083-.832.191-1.119.324-.289.133-.498.291-.629.472a1.012 1.012 0 0 0-.195.608c0 .213.034.397.104.552a1.036 1.036 0 0 0 .695.596c.161.046.335.068.521.068zM957.93 206.174v11.784h-1.424v-11.784h1.424zM962.897 218.086c-.64 0-1.132-.179-1.476-.536-.344-.357-.517-.872-.517-1.544v-4.96h-.976c-.086 0-.158-.025-.217-.076s-.088-.129-.088-.236v-.568l1.328-.168.328-2.504a.301.301 0 0 1 .104-.196.337.337 0 0 1 .225-.076h.721v2.792h2.319v1.032h-2.319v4.864c0 .341.082.595.248.76a.86.86 0 0 0 .639.248c.15 0 .279-.02.389-.06s.204-.084.284-.132c.079-.048.147-.092.204-.132a.266.266 0 0 1 .147-.06c.075 0 .142.045.2.136l.416.68a2.652 2.652 0 0 1-.889.54 2.983 2.983 0 0 1-1.07.196zM967.409 205.895c.155.256.267.512.336.768s.104.512.104.768c0 .485-.119.948-.356 1.388s-.567.844-.987 1.212l-.44-.272a.194.194 0 0 1-.084-.088.262.262 0 0 1 .059-.288 3.54 3.54 0 0 0 .465-.708c.063-.13.113-.268.151-.412.037-.144.056-.296.056-.456 0-.171-.025-.347-.076-.528a2.356 2.356 0 0 0-.26-.576.328.328 0 0 1-.056-.176c0-.128.071-.221.216-.28l.872-.352zm2.433 0c.154.256.266.512.336.768a2.898 2.898 0 0 1-.251 2.156c-.238.44-.567.844-.988 1.212l-.44-.272a.2.2 0 0 1-.084-.088.256.256 0 0 1 .059-.288 3.54 3.54 0 0 0 .465-.708c.063-.13.114-.268.152-.412.037-.144.055-.296.055-.456 0-.171-.025-.347-.075-.528a2.362 2.362 0 0 0-.261-.576.327.327 0 0 1-.055-.176c0-.128.071-.221.215-.28l.872-.352zM976.905 206.174v11.784h-1.424v-11.784h1.424zM981.32 207.311a.89.89 0 0 1-.084.388 1.056 1.056 0 0 1-.547.54c-.123.054-.254.08-.393.08s-.268-.026-.388-.08a1.081 1.081 0 0 1-.54-.54.99.99 0 0 1 0-.784 1.028 1.028 0 0 1 .928-.628c.139 0 .27.027.393.08a1.04 1.04 0 0 1 .547.548.942.942 0 0 1 .084.396zm-.319 2.543v8.104h-1.424v-8.104h1.424zM982.488 209.854h1.168c.112 0 .205.029.28.088a.498.498 0 0 1 .16.208l2.056 5.216c.075.192.134.384.176.576.043.192.083.381.121.568.042-.187.088-.376.136-.568s.108-.384.184-.576l2.08-5.216a.477.477 0 0 1 .156-.212.422.422 0 0 1 .269-.084h1.111l-3.305 8.104h-1.287l-3.305-8.104zM903.43 335.852h.584c.203 0 .363-.024.484-.075a.968.968 0 0 0 .34-.261l3.815-4.319c.117-.134.231-.229.341-.284a.912.912 0 0 1 .42-.084h1.319l-4.368 4.936a3.545 3.545 0 0 1-.316.313 1.42 1.42 0 0 1-.315.208c.149.048.28.12.392.216.112.096.23.216.353.36l4.56 5.432h-1.344c-.102 0-.187-.008-.256-.024s-.129-.037-.18-.063-.098-.062-.141-.104a2.827 2.827 0 0 1-.128-.136l-3.96-4.552c-.059-.064-.113-.119-.164-.164a.757.757 0 0 0-.408-.183 2.1 2.1 0 0 0-.324-.021h-.703v5.248h-1.545v-11.464h1.545v5.021zM912.397 342.292v-8.104h.815c.155 0 .262.029.32.088s.1.159.12.304l.097 1.264c.277-.565.619-1.007 1.027-1.324a2.28 2.28 0 0 1 1.436-.476 2.121 2.121 0 0 1 1.113.288l-.185 1.063c-.038.134-.12.2-.248.2-.075 0-.189-.025-.345-.076-.154-.05-.37-.075-.647-.075-.496 0-.911.144-1.243.432-.334.288-.613.707-.837 1.256v5.16h-1.423zM922.126 334.06c.592 0 1.126.1 1.604.297s.883.477 1.216.84c.334.362.59.801.769 1.315s.269 1.09.269 1.725c0 .64-.09 1.216-.269 1.728s-.435.949-.769 1.313a3.344 3.344 0 0 1-1.216.836 4.228 4.228 0 0 1-1.604.292 4.22 4.22 0 0 1-1.604-.292 3.393 3.393 0 0 1-1.22-.836c-.336-.363-.595-.801-.776-1.313s-.271-1.088-.271-1.728c0-.635.09-1.21.271-1.725s.44-.953.776-1.315a3.415 3.415 0 0 1 1.22-.84 4.145 4.145 0 0 1 1.604-.297zm0 7.232c.8 0 1.397-.268 1.792-.804s.592-1.284.592-2.244c0-.966-.197-1.718-.592-2.256-.395-.539-.992-.809-1.792-.809-.405 0-.758.069-1.056.208a1.966 1.966 0 0 0-.748.601c-.201.261-.35.582-.449.964a5.199 5.199 0 0 0-.147 1.292c0 .479.05.909.147 1.288.1.379.248.697.449.956.199.259.449.457.748.596.298.139.651.208 1.056.208zM927.742 345.036v-10.848h.848c.203 0 .33.099.384.296l.12.96c.347-.422.742-.761 1.188-1.017s.959-.384 1.541-.384c.463 0 .885.09 1.264.268.379.18.701.443.968.792.267.35.472.783.616 1.301.145.517.216 1.111.216 1.784 0 .597-.08 1.153-.24 1.668-.159.515-.39.96-.688 1.336a3.194 3.194 0 0 1-1.1.888 3.255 3.255 0 0 1-1.468.324c-.501 0-.929-.083-1.284-.248a2.881 2.881 0 0 1-.939-.704v3.584h-1.426zm3.608-9.84c-.464 0-.871.106-1.22.319-.35.214-.671.515-.964.904v3.92c.261.353.548.601.859.744.313.144.66.216 1.045.216.752 0 1.33-.27 1.735-.808.405-.539.608-1.307.608-2.304 0-.528-.047-.981-.141-1.36s-.228-.689-.404-.933a1.57 1.57 0 0 0-.647-.531 2.165 2.165 0 0 0-.871-.167zM941.213 335.524a.314.314 0 0 1-.295.176.55.55 0 0 1-.272-.088c-.102-.059-.226-.124-.372-.196s-.322-.139-.523-.2a2.482 2.482 0 0 0-.721-.092c-.24 0-.456.03-.648.092a1.607 1.607 0 0 0-.492.252 1.145 1.145 0 0 0-.312.372 1.014 1.014 0 0 0-.108.46c0 .208.061.382.181.521s.278.259.476.359c.197.102.422.191.672.269.251.077.508.16.772.248s.521.186.772.292c.25.106.475.239.672.399s.355.356.476.588a1.8 1.8 0 0 1 .181.836c0 .374-.067.719-.201 1.036-.133.317-.33.593-.592.824a2.857 2.857 0 0 1-.959.548 3.93 3.93 0 0 1-1.313.2 4.091 4.091 0 0 1-1.536-.276 3.875 3.875 0 0 1-1.168-.708l.336-.544a.482.482 0 0 1 .151-.159c.059-.038.137-.057.232-.057s.197.037.305.112c.105.074.235.157.388.248.151.091.336.173.552.248.216.074.486.111.813.111.277 0 .52-.035.728-.107s.382-.169.521-.292.24-.264.308-.424c.066-.16.101-.331.101-.513 0-.224-.061-.409-.181-.556s-.278-.271-.476-.376a3.885 3.885 0 0 0-.676-.271 60.033 60.033 0 0 1-.777-.244c-.264-.086-.521-.183-.775-.292s-.479-.247-.676-.412-.355-.369-.477-.612c-.119-.242-.18-.537-.18-.884 0-.31.064-.606.191-.893.129-.285.315-.535.561-.752.246-.216.547-.388.904-.516s.766-.192 1.224-.192c.534 0 1.013.084 1.437.252.424.169.791.399 1.1.692l-.324.521zM945.102 330.508v11.784h-1.424v-11.784h1.424zM949.518 331.644c0 .14-.028.269-.084.389a1.104 1.104 0 0 1-.549.54c-.122.053-.253.08-.392.08s-.269-.027-.388-.08a1.054 1.054 0 0 1-.32-.221c-.094-.093-.166-.199-.22-.319s-.08-.249-.08-.389a1.04 1.04 0 0 1 .62-.944c.119-.054.249-.08.388-.08s.27.026.392.08c.123.053.23.127.324.22.094.094.168.203.225.328a.974.974 0 0 1 .084.396zm-.321 2.544v8.104h-1.424v-8.104h1.424zM954.438 334.052c.352 0 .681.039.987.116s.585.19.837.34h2.199v.528c0 .176-.111.288-.336.336l-.92.128c.182.347.271.733.271 1.16 0 .395-.076.753-.228 1.076a2.423 2.423 0 0 1-.632.828c-.27.229-.59.405-.96.527a3.854 3.854 0 0 1-1.22.185c-.379 0-.736-.046-1.072-.137a1.35 1.35 0 0 0-.389.345.614.614 0 0 0-.131.359c0 .192.076.338.231.437.154.099.36.169.616.212s.547.069.871.08c.326.011.658.027.996.052.339.024.671.065.996.124.326.059.616.154.873.288.256.133.461.317.615.552s.232.539.232.912c0 .347-.087.683-.26 1.008a2.752 2.752 0 0 1-.748.868 3.873 3.873 0 0 1-1.192.608c-.47.151-1 .228-1.593.228-.592 0-1.11-.059-1.555-.176-.446-.117-.815-.274-1.109-.472a2.055 2.055 0 0 1-.659-.685 1.62 1.62 0 0 1-.22-.812c0-.4.127-.74.379-1.021.254-.28.602-.503 1.045-.668a1.435 1.435 0 0 1-.549-.428c-.135-.179-.203-.417-.203-.716 0-.117.021-.239.064-.364.042-.125.107-.249.195-.372s.195-.24.324-.352c.128-.112.277-.211.447-.297a2.519 2.519 0 0 1-.939-.892c-.227-.37-.34-.804-.34-1.3 0-.395.076-.753.228-1.076a2.38 2.38 0 0 1 .636-.824c.272-.227.597-.401.973-.523a4.052 4.052 0 0 1 1.24-.182zm2.527 8.68a.694.694 0 0 0-.168-.488c-.111-.123-.264-.218-.456-.284s-.413-.116-.663-.148c-.252-.031-.516-.054-.793-.067s-.56-.028-.848-.044a8.257 8.257 0 0 1-.824-.088c-.304.144-.551.319-.74.527s-.283.456-.283.744c0 .182.047.351.14.508s.235.294.428.408c.192.115.434.205.724.272.291.066.634.1 1.028.1.384 0 .728-.034 1.032-.104s.561-.168.771-.296a1.45 1.45 0 0 0 .484-.456c.112-.176.168-.371.168-.584zm-2.527-4.4c.287 0 .542-.04.764-.12.221-.08.406-.192.556-.336s.261-.316.336-.516c.075-.2.112-.42.112-.66 0-.496-.15-.891-.452-1.185-.302-.293-.739-.439-1.315-.439-.571 0-1.008.146-1.309.439-.301.294-.451.688-.451 1.185 0 .24.038.46.115.66.077.199.19.372.34.516s.334.256.553.336.467.12.751.12zM906.142 354.725a.316.316 0 0 1-.296.176.546.546 0 0 1-.271-.088c-.102-.059-.227-.124-.373-.196s-.321-.139-.523-.2a2.482 2.482 0 0 0-.721-.092c-.24 0-.455.03-.647.092s-.356.146-.492.252a1.133 1.133 0 0 0-.312.372 1.002 1.002 0 0 0-.108.46c0 .208.06.382.181.521.119.139.277.259.476.359.197.102.421.191.672.269s.508.16.772.248.521.186.771.292c.25.106.475.239.672.399s.355.356.477.588c.119.232.18.511.18.836 0 .374-.066.719-.2 1.036s-.331.593-.592.824a2.852 2.852 0 0 1-.96.548 3.93 3.93 0 0 1-1.313.2 4.09 4.09 0 0 1-1.535-.276 3.875 3.875 0 0 1-1.168-.708l.336-.544a.482.482 0 0 1 .151-.159.42.42 0 0 1 .231-.057c.097 0 .197.037.305.112.106.074.236.157.389.248.151.091.336.173.551.248.217.074.487.111.813.111.277 0 .52-.035.729-.107.207-.072.381-.169.52-.292s.241-.264.309-.424c.066-.16.1-.331.1-.513a.855.855 0 0 0-.18-.556 1.552 1.552 0 0 0-.477-.376 3.854 3.854 0 0 0-.676-.271 59.962 59.962 0 0 1-.776-.244 9.153 9.153 0 0 1-.776-.292c-.253-.109-.479-.247-.676-.412s-.355-.369-.476-.612c-.12-.242-.181-.537-.181-.884a2.164 2.164 0 0 1 .752-1.645c.246-.216.547-.388.904-.516s.766-.192 1.225-.192c.533 0 1.012.084 1.436.252.424.169.791.399 1.1.692l-.323.521zM910.901 361.62c-.64 0-1.132-.179-1.476-.536s-.517-.872-.517-1.544v-4.96h-.976c-.086 0-.158-.025-.217-.076s-.088-.129-.088-.235v-.569l1.328-.168.328-2.504c.011-.08.045-.146.104-.196s.134-.076.225-.076h.721v2.792h2.319v1.032h-2.319v4.864c0 .341.082.595.248.76a.864.864 0 0 0 .639.248c.15 0 .279-.02.389-.06s.204-.084.284-.133c.079-.048.147-.092.204-.132a.266.266 0 0 1 .147-.06c.075 0 .142.045.2.136l.416.68c-.245.229-.541.41-.889.54a2.962 2.962 0 0 1-1.07.197zM914.413 361.492v-8.104h.815c.155 0 .262.029.32.088s.1.159.12.304l.097 1.264c.277-.565.619-1.007 1.027-1.324a2.28 2.28 0 0 1 1.436-.476 2.121 2.121 0 0 1 1.113.288l-.185 1.063c-.038.134-.12.2-.248.2-.075 0-.189-.025-.345-.076-.154-.05-.37-.075-.647-.075-.496 0-.911.144-1.243.432-.334.288-.613.707-.837 1.256v5.16h-1.423zM924.069 353.26c.485 0 .933.082 1.345.244.41.163.765.397 1.063.704.298.307.532.686.7 1.136.168.451.252.965.252 1.54 0 .225-.024.374-.072.448-.048.075-.139.112-.271.112h-5.393c.011.512.08.957.208 1.336s.304.694.528.948c.224.253.49.442.8.567.31.126.655.188 1.04.188.357 0 .665-.041.924-.124s.481-.172.668-.269c.187-.096.343-.185.469-.268.125-.083.232-.124.323-.124.117 0 .208.045.272.136l.399.521a2.735 2.735 0 0 1-.632.556 3.953 3.953 0 0 1-.788.388 5.273 5.273 0 0 1-1.756.305c-.56 0-1.076-.095-1.548-.284-.473-.189-.881-.467-1.225-.832s-.611-.817-.804-1.356c-.192-.538-.288-1.157-.288-1.855 0-.565.087-1.094.26-1.584.174-.491.423-.916.748-1.276.326-.359.723-.643 1.192-.848s.999-.309 1.586-.309zm.033 1.049c-.688 0-1.229.198-1.624.596-.396.397-.64.948-.736 1.652h4.408c0-.331-.046-.634-.136-.908a2.041 2.041 0 0 0-.4-.712 1.796 1.796 0 0 0-.645-.464 2.156 2.156 0 0 0-.867-.164zM933.885 354.725a.314.314 0 0 1-.295.176.55.55 0 0 1-.272-.088c-.102-.059-.226-.124-.372-.196s-.322-.139-.523-.2a2.482 2.482 0 0 0-.721-.092c-.24 0-.456.03-.648.092a1.607 1.607 0 0 0-.492.252 1.145 1.145 0 0 0-.312.372 1.014 1.014 0 0 0-.108.46c0 .208.061.382.181.521s.278.259.476.359c.197.102.422.191.672.269.251.077.508.16.772.248s.521.186.772.292c.25.106.475.239.672.399s.355.356.476.588a1.8 1.8 0 0 1 .181.836c0 .374-.067.719-.201 1.036-.133.317-.33.593-.592.824a2.857 2.857 0 0 1-.959.548 3.93 3.93 0 0 1-1.313.2 4.091 4.091 0 0 1-1.536-.276 3.875 3.875 0 0 1-1.168-.708l.336-.544a.482.482 0 0 1 .151-.159c.059-.038.137-.057.232-.057s.197.037.305.112c.105.074.235.157.388.248.151.091.336.173.552.248.216.074.486.111.813.111.277 0 .52-.035.728-.107s.382-.169.521-.292.24-.264.308-.424c.066-.16.101-.331.101-.513 0-.224-.061-.409-.181-.556s-.278-.271-.476-.376a3.885 3.885 0 0 0-.676-.271 60.033 60.033 0 0 1-.777-.244c-.264-.086-.521-.183-.775-.292s-.479-.247-.676-.412-.355-.369-.477-.612c-.119-.242-.18-.537-.18-.884 0-.31.064-.606.191-.893.129-.285.315-.535.561-.752.246-.216.547-.388.904-.516s.766-.192 1.224-.192c.534 0 1.013.084 1.437.252.424.169.791.399 1.1.692l-.324.521zM940.829 354.725a.316.316 0 0 1-.296.176.546.546 0 0 1-.271-.088c-.102-.059-.227-.124-.373-.196s-.321-.139-.523-.2a2.482 2.482 0 0 0-.721-.092c-.24 0-.455.03-.647.092s-.356.146-.492.252a1.133 1.133 0 0 0-.312.372 1.002 1.002 0 0 0-.108.46c0 .208.06.382.181.521.119.139.277.259.476.359.197.102.421.191.672.269s.508.16.772.248.521.186.771.292c.25.106.475.239.672.399s.355.356.477.588c.119.232.18.511.18.836 0 .374-.066.719-.2 1.036s-.331.593-.592.824a2.852 2.852 0 0 1-.96.548 3.93 3.93 0 0 1-1.313.2 4.09 4.09 0 0 1-1.535-.276 3.875 3.875 0 0 1-1.168-.708l.336-.544a.482.482 0 0 1 .151-.159.42.42 0 0 1 .231-.057c.097 0 .197.037.305.112.106.074.236.157.389.248.151.091.336.173.551.248.217.074.487.111.813.111.277 0 .52-.035.729-.107.207-.072.381-.169.52-.292s.241-.264.309-.424c.066-.16.1-.331.1-.513a.855.855 0 0 0-.18-.556 1.552 1.552 0 0 0-.477-.376 3.854 3.854 0 0 0-.676-.271 59.962 59.962 0 0 1-.776-.244 9.153 9.153 0 0 1-.776-.292c-.253-.109-.479-.247-.676-.412s-.355-.369-.476-.612c-.12-.242-.181-.537-.181-.884a2.164 2.164 0 0 1 .752-1.645c.246-.216.547-.388.904-.516s.766-.192 1.225-.192c.533 0 1.012.084 1.436.252.424.169.791.399 1.1.692l-.323.521zM945.589 361.62c-.64 0-1.132-.179-1.476-.536s-.517-.872-.517-1.544v-4.96h-.976c-.086 0-.158-.025-.217-.076s-.088-.129-.088-.235v-.569l1.328-.168.328-2.504c.011-.08.045-.146.104-.196s.134-.076.225-.076h.721v2.792h2.319v1.032h-2.319v4.864c0 .341.082.595.248.76a.864.864 0 0 0 .639.248c.15 0 .279-.02.389-.06s.204-.084.284-.133c.079-.048.147-.092.204-.132a.266.266 0 0 1 .147-.06c.075 0 .142.045.2.136l.416.68c-.245.229-.541.41-.889.54a2.97 2.97 0 0 1-1.07.197zM951.004 350.844c0 .14-.027.269-.084.389a1.079 1.079 0 0 1-.547.54.983.983 0 0 1-.781 0 1.042 1.042 0 0 1-.32-.221 1.046 1.046 0 0 1-.22-.319.934.934 0 0 1-.08-.389 1.04 1.04 0 0 1 .62-.944c.12-.054.249-.08.388-.08s.27.026.393.08a1.056 1.056 0 0 1 .547.548.942.942 0 0 1 .084.396zm-.319 2.545v8.104h-1.424v-8.104h1.424zM954.78 349.708v11.784h-1.424v-11.784h1.424zM961.932 354.725a.314.314 0 0 1-.295.176.55.55 0 0 1-.272-.088c-.102-.059-.226-.124-.372-.196s-.322-.139-.523-.2a2.482 2.482 0 0 0-.721-.092c-.24 0-.456.03-.648.092a1.607 1.607 0 0 0-.492.252 1.145 1.145 0 0 0-.312.372 1.014 1.014 0 0 0-.108.46c0 .208.061.382.181.521s.278.259.476.359c.197.102.422.191.672.269.251.077.508.16.772.248s.521.186.772.292c.25.106.475.239.672.399s.355.356.476.588a1.8 1.8 0 0 1 .181.836c0 .374-.067.719-.201 1.036-.133.317-.33.593-.592.824a2.857 2.857 0 0 1-.959.548 3.93 3.93 0 0 1-1.313.2 4.091 4.091 0 0 1-1.536-.276 3.875 3.875 0 0 1-1.168-.708l.336-.544a.482.482 0 0 1 .151-.159c.059-.038.137-.057.232-.057s.197.037.305.112c.105.074.235.157.388.248.151.091.336.173.552.248.216.074.486.111.813.111.277 0 .52-.035.728-.107s.382-.169.521-.292.24-.264.308-.424c.066-.16.101-.331.101-.513 0-.224-.061-.409-.181-.556s-.278-.271-.476-.376a3.885 3.885 0 0 0-.676-.271 60.033 60.033 0 0 1-.777-.244c-.264-.086-.521-.183-.775-.292s-.479-.247-.676-.412-.355-.369-.477-.612c-.119-.242-.18-.537-.18-.884 0-.31.064-.606.191-.893.129-.285.315-.535.561-.752.246-.216.547-.388.904-.516s.766-.192 1.224-.192c.534 0 1.013.084 1.437.252.424.169.791.399 1.1.692l-.324.521zM966.691 361.62c-.64 0-1.131-.179-1.476-.536-.344-.357-.517-.872-.517-1.544v-4.96h-.976c-.085 0-.157-.025-.216-.076s-.088-.129-.088-.235v-.569l1.328-.168.328-2.504c.01-.08.045-.146.104-.196s.133-.076.225-.076h.72v2.792h2.319v1.032h-2.319v4.864c0 .341.083.595.248.76s.378.248.64.248c.149 0 .279-.02.389-.06s.203-.084.283-.133c.08-.048.148-.092.204-.132s.105-.06.147-.06c.075 0 .143.045.201.136l.416.68c-.246.229-.542.41-.889.54a2.967 2.967 0 0 1-1.071.197zM976.156 361.492h-.633a.75.75 0 0 1-.336-.064c-.086-.042-.141-.133-.168-.271l-.16-.752a9.471 9.471 0 0 1-.623.516c-.203.152-.416.28-.641.384a3.268 3.268 0 0 1-.716.236c-.253.054-.535.08-.845.08-.314 0-.609-.044-.883-.132a2.02 2.02 0 0 1-.717-.396 1.888 1.888 0 0 1-.484-.668 2.35 2.35 0 0 1-.18-.956c0-.319.088-.628.264-.924s.461-.559.853-.788c.392-.229.905-.417 1.54-.563s1.41-.23 2.328-.252v-.632c0-.63-.135-1.105-.404-1.429-.27-.322-.668-.483-1.195-.483-.348 0-.639.044-.877.132a3.357 3.357 0 0 0-.615.296c-.174.109-.323.208-.448.296a.647.647 0 0 1-.372.132.424.424 0 0 1-.252-.076.573.573 0 0 1-.172-.188l-.256-.456a4.61 4.61 0 0 1 1.447-.968 4.464 4.464 0 0 1 1.721-.32c.453 0 .855.075 1.207.224.353.149.648.357.889.624.24.268.422.59.544.969.122.378.185.794.185 1.248v5.181zm-3.697-.872a2.726 2.726 0 0 0 1.277-.292c.184-.093.359-.207.527-.34.168-.134.332-.285.492-.456v-1.688c-.656.021-1.213.074-1.672.156-.459.083-.832.191-1.12.324-.288.134-.497.291-.628.472a1.017 1.017 0 0 0-.196.608c0 .213.034.397.104.552a1.033 1.033 0 0 0 .695.596c.162.046.335.068.521.068zM978.315 361.492v-8.104h.849c.202 0 .33.099.383.296l.113.88c.352-.39.744-.704 1.18-.944.434-.24.938-.36 1.508-.36.442 0 .833.074 1.172.221.338.146.621.354.848.624s.398.593.516.972.177.798.177 1.256v5.16h-1.425v-5.16c0-.613-.139-1.089-.42-1.428-.279-.339-.707-.508-1.283-.508a2.4 2.4 0 0 0-1.18.304 3.927 3.927 0 0 0-1.013.824v5.968h-1.425zM992.916 361.492c-.203 0-.332-.099-.385-.296l-.128-.984a4.28 4.28 0 0 1-1.188 1.013c-.445.253-.955.38-1.531.38-.465 0-.886-.09-1.264-.269a2.632 2.632 0 0 1-.969-.788c-.267-.347-.472-.778-.615-1.296-.145-.517-.217-1.111-.217-1.784 0-.597.08-1.153.24-1.668s.391-.961.691-1.34c.302-.378.668-.676 1.101-.892s.923-.324 1.472-.324c.496 0 .92.084 1.272.252s.667.404.944.708v-4.496h1.424v11.784h-.847zm-2.761-1.04c.464 0 .87-.106 1.22-.32a3.53 3.53 0 0 0 .965-.903v-3.92c-.262-.353-.549-.599-.86-.74s-.657-.212-1.036-.212c-.758 0-1.339.27-1.744.808-.405.539-.607 1.307-.607 2.304 0 .528.045.98.136 1.356s.224.686.399.928c.176.243.393.42.648.532s.548.167.879.167zM244.264 273.87c-.048.08-.099.14-.152.18s-.123.061-.208.061c-.09 0-.196-.046-.316-.137a5.34 5.34 0 0 0-.456-.3 3.737 3.737 0 0 0-.664-.3 2.846 2.846 0 0 0-.94-.136c-.347 0-.653.047-.92.14-.267.094-.489.22-.668.38s-.313.349-.404.564a1.783 1.783 0 0 0-.136.7c0 .319.079.585.236.796.157.21.365.391.624.54.259.149.552.278.88.388.328.109.664.223 1.008.34.344.117.68.249 1.008.396.328.146.622.332.88.556.258.224.466.499.624.824.157.325.236.725.236 1.199 0 .502-.085.973-.256 1.412-.171.44-.42.823-.748 1.148s-.731.581-1.208.768c-.478.187-1.02.28-1.628.28a4.976 4.976 0 0 1-2.028-.404 4.754 4.754 0 0 1-1.564-1.092l.448-.735a.564.564 0 0 1 .156-.148.366.366 0 0 1 .204-.06c.112 0 .24.06.384.18.144.12.324.252.54.396.216.145.478.276.784.396s.681.18 1.124.18c.368 0 .696-.051.984-.151.288-.102.532-.244.732-.429.2-.184.354-.403.46-.66.107-.256.16-.541.16-.855 0-.347-.079-.631-.236-.853-.158-.221-.364-.406-.62-.556s-.548-.276-.876-.38l-1.008-.32a9.843 9.843 0 0 1-1.008-.38c-.328-.144-.62-.33-.876-.56s-.463-.517-.62-.86-.236-.77-.236-1.276a3.045 3.045 0 0 1 .92-2.184 3.324 3.324 0 0 1 1.108-.704c.44-.176.945-.264 1.516-.264.64 0 1.224.102 1.752.304.528.203.989.496 1.384.88l-.376.736zM249.104 283.67c-.64 0-1.132-.179-1.476-.536-.344-.357-.516-.872-.516-1.544v-4.96h-.976c-.085 0-.157-.025-.216-.076s-.088-.129-.088-.235v-.568l1.328-.168.328-2.504c.011-.08.045-.146.104-.196s.133-.076.224-.076h.72v2.792h2.32v1.032h-2.32v4.864c0 .341.083.595.248.76a.866.866 0 0 0 .64.248c.149 0 .279-.02.388-.06s.204-.084.284-.133c.08-.048.148-.092.204-.132a.266.266 0 0 1 .148-.06c.075 0 .142.045.2.136l.416.68a2.65 2.65 0 0 1-.888.54c-.347.13-.704.196-1.072.196zM258.744 276.47c.325.363.576.799.752 1.309.176.509.264 1.078.264 1.708 0 .64-.089 1.216-.268 1.728s-.435.949-.768 1.313a3.352 3.352 0 0 1-1.216.836 4.228 4.228 0 0 1-1.604.292 4.48 4.48 0 0 1-1.132-.137 3.631 3.631 0 0 1-.956-.392l-.44.592a1.012 1.012 0 0 1-.412.332 1.207 1.207 0 0 1-.468.101h-.536l1.16-1.568a3.727 3.727 0 0 1-.808-1.328c-.187-.518-.28-1.106-.28-1.768 0-.635.091-1.21.272-1.725s.44-.953.776-1.315a3.415 3.415 0 0 1 1.22-.84 4.168 4.168 0 0 1 1.604-.297c.421 0 .812.051 1.172.152s.689.245.988.432l.544-.728c.106-.144.203-.247.288-.308.085-.062.213-.093.384-.093h.72l-1.256 1.704zm-5.328 3.021c0 .854.158 1.541.472 2.059l3.488-4.728c-.39-.299-.88-.448-1.472-.448a2.5 2.5 0 0 0-1.072.217c-.309.144-.569.35-.78.616a2.754 2.754 0 0 0-.476.981 4.9 4.9 0 0 0-.16 1.303zm2.488 3.099c.4 0 .753-.07 1.06-.212s.565-.346.776-.613c.21-.267.369-.592.476-.974a4.84 4.84 0 0 0 .16-1.294c0-.807-.139-1.466-.416-1.979l-3.464 4.688c.373.256.842.384 1.408.384zM261.512 283.542v-8.104h.816c.155 0 .261.029.32.088s.099.159.12.304l.096 1.264c.277-.565.62-1.007 1.028-1.324a2.28 2.28 0 0 1 1.436-.476 2.097 2.097 0 0 1 1.112.288l-.184 1.063c-.038.134-.12.2-.248.2-.075 0-.189-.025-.344-.076-.155-.05-.371-.075-.648-.075-.496 0-.911.144-1.244.432-.333.288-.612.707-.836 1.256v5.16h-1.424zM267.96 283.542v-8.104h.816c.155 0 .261.029.32.088s.099.159.12.304l.096 1.264c.277-.565.62-1.007 1.028-1.324a2.28 2.28 0 0 1 1.436-.476 2.097 2.097 0 0 1 1.112.288l-.184 1.063c-.038.134-.12.2-.248.2-.075 0-.189-.025-.344-.076-.155-.05-.371-.075-.648-.075-.496 0-.911.144-1.244.432-.333.288-.612.707-.836 1.256v5.16h-1.424zM277.616 275.31c.485 0 .933.082 1.344.244.411.163.765.397 1.064.704.298.307.532.686.7 1.136.168.451.252.965.252 1.54 0 .225-.024.374-.072.448-.048.075-.139.112-.272.112h-5.392c.011.512.08.957.208 1.336s.304.694.528.948c.224.253.491.442.8.567.309.126.656.188 1.04.188.357 0 .665-.041.924-.124s.481-.172.668-.269c.187-.096.343-.185.468-.268.125-.083.233-.124.324-.124.117 0 .208.045.272.136l.4.521a2.735 2.735 0 0 1-.632.556 3.953 3.953 0 0 1-.788.388 5.273 5.273 0 0 1-1.756.305c-.56 0-1.076-.095-1.548-.284a3.397 3.397 0 0 1-1.224-.832 3.811 3.811 0 0 1-.804-1.356c-.192-.538-.288-1.157-.288-1.855 0-.565.087-1.094.26-1.584.173-.491.422-.916.748-1.276.325-.359.723-.643 1.192-.848s.997-.309 1.584-.309zm.032 1.048c-.688 0-1.229.198-1.624.596-.395.397-.64.948-.736 1.652h4.408a2.87 2.87 0 0 0-.136-.908 2.01 2.01 0 0 0-.4-.712c-.176-.2-.391-.354-.644-.464s-.542-.164-.868-.164zM289.088 275.31c.485 0 .933.082 1.344.244.411.163.765.397 1.064.704.298.307.532.686.7 1.136.168.451.252.965.252 1.54 0 .225-.024.374-.072.448-.048.075-.139.112-.272.112h-5.392c.011.512.08.957.208 1.336s.304.694.528.948c.224.253.491.442.8.567.309.126.656.188 1.04.188.357 0 .665-.041.924-.124s.481-.172.668-.269c.187-.096.343-.185.468-.268.125-.083.233-.124.324-.124.117 0 .208.045.272.136l.4.521a2.735 2.735 0 0 1-.632.556 3.953 3.953 0 0 1-.788.388 5.273 5.273 0 0 1-1.756.305c-.56 0-1.076-.095-1.548-.284a3.397 3.397 0 0 1-1.224-.832 3.811 3.811 0 0 1-.804-1.356c-.192-.538-.288-1.157-.288-1.855 0-.565.087-1.094.26-1.584.173-.491.422-.916.748-1.276.325-.359.723-.643 1.192-.848s.997-.309 1.584-.309zm.032 1.048c-.688 0-1.229.198-1.624.596-.395.397-.64.948-.736 1.652h4.408a2.87 2.87 0 0 0-.136-.908 2.01 2.01 0 0 0-.4-.712c-.176-.2-.391-.354-.644-.464s-.543-.164-.868-.164zM295.848 271.758v11.784h-1.424v-11.784h1.424zM299.943 271.758v11.784h-1.424v-11.784h1.424zM305.663 275.31c.485 0 .933.082 1.344.244.411.163.765.397 1.064.704.298.307.532.686.7 1.136.168.451.252.965.252 1.54 0 .225-.024.374-.072.448-.048.075-.139.112-.272.112h-5.392c.011.512.08.957.208 1.336s.304.694.528.948c.224.253.491.442.8.567.309.126.656.188 1.04.188.357 0 .665-.041.924-.124s.481-.172.668-.269c.187-.096.343-.185.468-.268.125-.083.233-.124.324-.124.117 0 .208.045.272.136l.4.521a2.735 2.735 0 0 1-.632.556 3.953 3.953 0 0 1-.788.388 5.273 5.273 0 0 1-1.756.305c-.56 0-1.076-.095-1.548-.284a3.397 3.397 0 0 1-1.224-.832 3.811 3.811 0 0 1-.804-1.356c-.192-.538-.288-1.157-.288-1.855 0-.565.087-1.094.26-1.584.173-.491.422-.916.748-1.276.325-.359.723-.643 1.192-.848s.997-.309 1.584-.309zm.032 1.048c-.688 0-1.229.198-1.624.596-.395.397-.64.948-.736 1.652h4.408a2.87 2.87 0 0 0-.136-.908 2.01 2.01 0 0 0-.4-.712c-.176-.2-.391-.354-.644-.464s-.542-.164-.868-.164zM310.839 283.542v-8.104h.816c.155 0 .261.029.32.088s.099.159.12.304l.096 1.264c.277-.565.62-1.007 1.028-1.324a2.28 2.28 0 0 1 1.436-.476 2.097 2.097 0 0 1 1.112.288l-.184 1.063c-.038.134-.12.2-.248.2-.075 0-.189-.025-.344-.076-.155-.05-.371-.075-.648-.075-.496 0-.911.144-1.244.432-.333.288-.612.707-.836 1.256v5.16h-1.424zM320.695 283.542v-6.888l-.896-.104a.69.69 0 0 1-.276-.124c-.072-.056-.108-.137-.108-.244v-.584h1.28v-.783c0-.465.065-.876.196-1.236.13-.36.317-.664.56-.912s.535-.436.876-.564a3.26 3.26 0 0 1 1.152-.191c.363 0 .699.053 1.008.16l-.032.712c-.005.106-.051.171-.136.191a1.58 1.58 0 0 1-.36.032h-.248c-.245 0-.468.032-.668.096s-.372.168-.516.313a1.418 1.418 0 0 0-.332.568 2.821 2.821 0 0 0-.116.871v.744h2.344v1.032h-2.296v6.912h-1.432zM327.351 271.758v11.784h-1.424v-11.784h1.424zM333.07 275.31c.485 0 .933.082 1.344.244.411.163.765.397 1.064.704.298.307.532.686.7 1.136.168.451.252.965.252 1.54 0 .225-.024.374-.072.448-.048.075-.139.112-.272.112h-5.392c.011.512.08.957.208 1.336s.304.694.528.948c.224.253.491.442.8.567.309.126.656.188 1.04.188.357 0 .665-.041.924-.124s.481-.172.668-.269c.187-.096.343-.185.468-.268.125-.083.233-.124.324-.124.117 0 .208.045.272.136l.4.521a2.735 2.735 0 0 1-.632.556 3.953 3.953 0 0 1-.788.388 5.273 5.273 0 0 1-1.756.305c-.56 0-1.076-.095-1.548-.284a3.397 3.397 0 0 1-1.224-.832 3.811 3.811 0 0 1-.804-1.356c-.192-.538-.288-1.157-.288-1.855 0-.565.087-1.094.26-1.584.173-.491.422-.916.748-1.276.325-.359.723-.643 1.192-.848s.997-.309 1.584-.309zm.033 1.048c-.688 0-1.229.198-1.624.596-.395.397-.64.948-.736 1.652h4.408a2.87 2.87 0 0 0-.136-.908 2.01 2.01 0 0 0-.4-.712c-.176-.2-.391-.354-.644-.464s-.543-.164-.868-.164zM338.246 283.542v-8.104h.816c.155 0 .261.029.32.088s.099.159.12.304l.096 1.264c.277-.565.62-1.007 1.028-1.324a2.28 2.28 0 0 1 1.436-.476 2.097 2.097 0 0 1 1.112.288l-.184 1.063c-.038.134-.12.2-.248.2-.075 0-.189-.025-.344-.076-.155-.05-.371-.075-.648-.075-.496 0-.911.144-1.244.432-.333.288-.612.707-.836 1.256v5.16h-1.424zM347.902 275.31c.485 0 .933.082 1.344.244.411.163.765.397 1.064.704.298.307.532.686.7 1.136.168.451.252.965.252 1.54 0 .225-.024.374-.072.448-.048.075-.139.112-.272.112h-5.392c.011.512.08.957.208 1.336s.304.694.528.948c.224.253.491.442.8.567.309.126.656.188 1.04.188.357 0 .665-.041.924-.124s.481-.172.668-.269c.187-.096.343-.185.468-.268.125-.083.233-.124.324-.124.117 0 .208.045.272.136l.4.521a2.735 2.735 0 0 1-.632.556 3.953 3.953 0 0 1-.788.388 5.273 5.273 0 0 1-1.756.305c-.56 0-1.076-.095-1.548-.284a3.397 3.397 0 0 1-1.224-.832 3.811 3.811 0 0 1-.804-1.356c-.192-.538-.288-1.157-.288-1.855 0-.565.087-1.094.26-1.584.173-.491.422-.916.748-1.276.325-.359.723-.643 1.192-.848s.997-.309 1.584-.309zm.033 1.048c-.688 0-1.229.198-1.624.596-.395.397-.64.948-.736 1.652h4.408a2.87 2.87 0 0 0-.136-.908 2.01 2.01 0 0 0-.4-.712c-.176-.2-.391-.354-.644-.464s-.543-.164-.868-.164zM238.216 302.742v-11.784h1.432v4.849c.336-.39.721-.703 1.156-.94.435-.237.932-.356 1.492-.356.469 0 .894.089 1.272.265.379.176.701.438.968.788.267.349.472.781.616 1.296s.216 1.107.216 1.78c0 .597-.08 1.153-.24 1.668s-.391.96-.692 1.336-.669.672-1.104.888-.924.324-1.468.324c-.522 0-.966-.102-1.332-.305a3.01 3.01 0 0 1-.956-.848l-.072.736c-.042.202-.165.304-.368.304h-.92zm3.616-7.096c-.464 0-.871.106-1.22.319-.349.214-.67.515-.964.904v3.92c.256.353.54.601.852.744s.66.216 1.044.216c.757 0 1.339-.27 1.744-.808.405-.539.608-1.307.608-2.304 0-.528-.047-.981-.14-1.36s-.228-.689-.404-.933a1.567 1.567 0 0 0-.648-.531 2.173 2.173 0 0 0-.872-.167zM250.32 294.51c.485 0 .933.082 1.344.244.411.163.765.397 1.064.704.298.307.532.686.7 1.136.168.451.252.965.252 1.54 0 .225-.024.374-.072.448-.048.075-.139.112-.272.112h-5.392c.011.512.08.957.208 1.336s.304.694.528.948c.224.253.491.442.8.567.309.126.656.188 1.04.188.357 0 .665-.041.924-.124s.481-.172.668-.269c.187-.096.343-.185.468-.268.125-.083.233-.124.324-.124.117 0 .208.045.272.136l.4.521a2.735 2.735 0 0 1-.632.556 3.953 3.953 0 0 1-.788.388 5.273 5.273 0 0 1-1.756.305c-.56 0-1.076-.095-1.548-.284a3.397 3.397 0 0 1-1.224-.832 3.811 3.811 0 0 1-.804-1.356c-.192-.538-.288-1.157-.288-1.855 0-.565.087-1.094.26-1.584.173-.491.422-.916.748-1.276.325-.359.723-.643 1.192-.848s.997-.309 1.584-.309zm.032 1.049c-.688 0-1.229.198-1.624.596-.395.397-.64.948-.736 1.652h4.408a2.87 2.87 0 0 0-.136-.908 2.01 2.01 0 0 0-.4-.712c-.176-.2-.391-.354-.644-.464s-.543-.164-.868-.164zM257.08 290.958v11.784h-1.424v-11.784h1.424zM265.544 302.742h-.632a.75.75 0 0 1-.336-.064c-.085-.042-.141-.133-.168-.271l-.16-.752a9.224 9.224 0 0 1-.624.516c-.203.152-.416.28-.64.384a3.251 3.251 0 0 1-.716.236 4.06 4.06 0 0 1-.844.08c-.315 0-.609-.044-.884-.132a1.876 1.876 0 0 1-1.2-1.064 2.333 2.333 0 0 1-.18-.956c0-.319.088-.628.264-.924s.46-.559.852-.788c.392-.229.905-.417 1.54-.563s1.411-.23 2.328-.252v-.632c0-.63-.135-1.105-.404-1.429-.27-.322-.668-.483-1.196-.483-.347 0-.639.044-.876.132s-.443.187-.616.296-.323.208-.448.296a.647.647 0 0 1-.372.132.424.424 0 0 1-.252-.076.573.573 0 0 1-.172-.188l-.256-.456a4.626 4.626 0 0 1 1.448-.968 4.455 4.455 0 0 1 1.72-.32c.453 0 .856.075 1.208.224.352.149.648.357.888.624.24.268.421.59.544.969.123.378.184.794.184 1.248v5.181zm-3.696-.872a2.698 2.698 0 0 0 1.276-.292c.184-.093.36-.207.528-.34.168-.134.332-.285.492-.456v-1.688c-.656.021-1.213.074-1.672.156-.458.083-.832.191-1.12.324-.288.134-.498.291-.628.472-.13.182-.196.385-.196.608 0 .213.035.397.104.552.069.155.163.281.28.38a1.1 1.1 0 0 0 .416.216c.16.046.333.068.52.068zM272.344 295.975a.316.316 0 0 1-.296.176.552.552 0 0 1-.272-.088 6.501 6.501 0 0 0-.372-.196 3.5 3.5 0 0 0-.524-.2 2.48 2.48 0 0 0-.72-.092c-.24 0-.456.03-.648.092s-.356.146-.492.252c-.136.107-.24.231-.312.372a1.002 1.002 0 0 0-.108.46c0 .208.06.382.18.521s.278.259.476.359c.197.102.421.191.672.269.25.077.508.16.772.248s.521.186.772.292c.25.106.475.239.672.399s.356.356.476.588c.12.232.18.511.18.836 0 .374-.067.719-.2 1.036s-.331.593-.592.824a2.862 2.862 0 0 1-.96.548c-.379.134-.816.2-1.312.2a4.091 4.091 0 0 1-1.536-.276 3.888 3.888 0 0 1-1.168-.708l.336-.544a.475.475 0 0 1 .152-.159.422.422 0 0 1 .232-.057c.096 0 .197.037.304.112.106.074.236.157.388.248.152.091.336.173.552.248.216.074.487.111.812.111.277 0 .52-.035.728-.107s.381-.169.52-.292.241-.264.308-.424c.066-.16.1-.331.1-.513 0-.224-.06-.409-.18-.556s-.279-.271-.476-.376a3.854 3.854 0 0 0-.676-.271 65.285 65.285 0 0 1-.776-.244c-.264-.086-.522-.183-.776-.292s-.479-.247-.676-.412a1.85 1.85 0 0 1-.476-.612c-.12-.242-.18-.537-.18-.884a2.164 2.164 0 0 1 .752-1.645c.246-.216.547-.388.904-.516a3.615 3.615 0 0 1 1.224-.192c.534 0 1.012.084 1.436.252.424.169.791.399 1.1.692l-.32.521zM277.104 302.87c-.64 0-1.132-.179-1.476-.536-.344-.357-.516-.872-.516-1.544v-4.96h-.976c-.085 0-.157-.025-.216-.076s-.088-.129-.088-.235v-.568l1.328-.168.328-2.504c.011-.08.045-.146.104-.196s.133-.076.224-.076h.72v2.792h2.32v1.032h-2.32v4.864c0 .341.083.595.248.76a.866.866 0 0 0 .64.248c.149 0 .279-.02.388-.06s.204-.084.284-.133c.08-.048.148-.092.204-.132a.266.266 0 0 1 .148-.06c.075 0 .142.045.2.136l.416.68a2.65 2.65 0 0 1-.888.54 3.01 3.01 0 0 1-1.072.196zM280.615 302.742v-8.104h.848c.203 0 .331.099.384.296l.112.88c.352-.39.745-.704 1.18-.944s.938-.36 1.508-.36c.442 0 .833.074 1.172.221.338.146.621.354.848.624.227.27.398.593.516.972s.176.798.176 1.256v5.16h-1.424v-5.16c0-.613-.14-1.089-.42-1.428-.28-.339-.708-.508-1.284-.508a2.4 2.4 0 0 0-1.18.304 3.906 3.906 0 0 0-1.012.824v5.968h-1.424zM291.415 292.094c0 .14-.028.269-.084.389a1.082 1.082 0 0 1-.548.54.978.978 0 0 1-.78 0 1.054 1.054 0 0 1-.32-.221 1.046 1.046 0 0 1-.22-.319.934.934 0 0 1-.08-.389 1.023 1.023 0 0 1 .3-.724c.093-.093.2-.167.32-.22.12-.054.249-.08.388-.08s.27.026.392.08a1.045 1.045 0 0 1 .548.548.958.958 0 0 1 .084.396zm-.32 2.545v8.104h-1.424v-8.104h1.424zM293.607 302.742v-8.104h.848c.203 0 .331.099.384.296l.112.88c.352-.39.745-.704 1.18-.944s.938-.36 1.508-.36c.442 0 .833.074 1.172.221.338.146.621.354.848.624.227.27.398.593.516.972s.176.798.176 1.256v5.16h-1.424v-5.16c0-.613-.14-1.089-.42-1.428-.28-.339-.708-.508-1.284-.508a2.4 2.4 0 0 0-1.18.304 3.906 3.906 0 0 0-1.012.824v5.968h-1.424zM305.231 294.502c.352 0 .681.039.988.116s.585.19.836.34h2.2v.528c0 .176-.112.288-.336.336l-.919.128c.181.347.272.733.272 1.16 0 .395-.076.753-.228 1.076a2.448 2.448 0 0 1-.632.828c-.27.229-.589.405-.96.527a3.854 3.854 0 0 1-1.22.185c-.379 0-.736-.046-1.072-.137-.171.107-.3.222-.388.345a.616.616 0 0 0-.132.359c0 .192.077.338.232.437.154.099.36.169.616.212.256.043.547.069.872.08s.657.027.996.052c.338.024.67.065.996.124.325.059.616.154.872.288.256.133.461.317.616.552s.232.539.232.912c0 .347-.086.683-.26 1.008s-.423.615-.748.868-.723.456-1.192.608c-.47.151-1 .228-1.592.228a6.156 6.156 0 0 1-1.556-.176c-.446-.117-.815-.274-1.108-.472a2.069 2.069 0 0 1-.66-.685 1.62 1.62 0 0 1-.22-.812c0-.4.127-.74.38-1.021.253-.28.602-.503 1.044-.668a1.424 1.424 0 0 1-.548-.428c-.136-.179-.204-.417-.204-.716 0-.117.021-.239.064-.364.042-.125.108-.249.196-.372a2.074 2.074 0 0 1 .772-.649 2.522 2.522 0 0 1-.94-.892c-.227-.37-.34-.804-.34-1.3 0-.395.076-.753.228-1.076.152-.322.364-.598.636-.824s.596-.401.972-.523a4.014 4.014 0 0 1 1.235-.182zm2.528 8.681a.694.694 0 0 0-.168-.488 1.075 1.075 0 0 0-.456-.284 3.35 3.35 0 0 0-.664-.148 10.46 10.46 0 0 0-.792-.067c-.278-.014-.56-.028-.848-.044a8.257 8.257 0 0 1-.824-.088 2.332 2.332 0 0 0-.74.527 1.07 1.07 0 0 0-.144 1.252c.093.157.236.294.428.408.192.115.434.205.724.272.291.066.633.1 1.028.1.384 0 .728-.034 1.032-.104s.561-.168.772-.296c.21-.129.372-.28.484-.456a1.06 1.06 0 0 0 .168-.584zm-2.528-4.401c.288 0 .542-.04.764-.12.221-.08.406-.192.556-.336s.261-.316.336-.516c.075-.2.112-.42.112-.66 0-.496-.151-.891-.452-1.185-.301-.293-.74-.439-1.316-.439-.571 0-1.007.146-1.308.439-.301.294-.452.688-.452 1.185 0 .24.039.46.116.66.077.199.19.372.34.516s.333.256.552.336.47.12.752.12zM313.887 294.51c.485 0 .933.082 1.344.244.411.163.765.397 1.064.704.298.307.532.686.7 1.136.168.451.252.965.252 1.54 0 .225-.024.374-.072.448-.048.075-.139.112-.272.112h-5.392c.011.512.08.957.208 1.336s.304.694.528.948c.224.253.491.442.8.567.309.126.656.188 1.04.188.357 0 .665-.041.924-.124s.481-.172.668-.269c.187-.096.343-.185.468-.268.125-.083.233-.124.324-.124.117 0 .208.045.272.136l.4.521a2.735 2.735 0 0 1-.632.556 3.953 3.953 0 0 1-.788.388 5.273 5.273 0 0 1-1.756.305c-.56 0-1.076-.095-1.548-.284a3.397 3.397 0 0 1-1.224-.832 3.811 3.811 0 0 1-.804-1.356c-.192-.538-.288-1.157-.288-1.855 0-.565.087-1.094.26-1.584.173-.491.422-.916.748-1.276.325-.359.723-.643 1.192-.848s.997-.309 1.584-.309zm.032 1.049c-.688 0-1.229.198-1.624.596-.395.397-.64.948-.736 1.652h4.408a2.87 2.87 0 0 0-.136-.908 2.01 2.01 0 0 0-.4-.712c-.176-.2-.391-.354-.644-.464s-.542-.164-.868-.164zM319.063 302.742v-8.104h.816c.155 0 .261.029.32.088s.099.159.12.304l.096 1.264c.277-.565.62-1.007 1.028-1.324a2.28 2.28 0 0 1 1.436-.476 2.097 2.097 0 0 1 1.112.288l-.184 1.063c-.038.134-.12.2-.248.2-.075 0-.189-.025-.344-.076-.155-.05-.371-.075-.648-.075-.496 0-.911.144-1.244.432-.333.288-.612.707-.836 1.256v5.16h-1.424zM355.766 266.249l10.224-17.188-1.72-1.024 5.135-2.764.022 5.831-1.719-1.022-10.224 17.189z"/><ellipse cx="130" cy="528.594" fill="none" stroke="#000" stroke-miterlimit="10" stroke-width="2" rx=".563" ry=".656"/><ellipse cx="129.969" cy="31.156" fill="none" stroke="#000" stroke-miterlimit="10" stroke-width="2" rx=".344" ry=".469"/><path d="M117.504 17.664c.31 0 .593-.015.852-.044s.502-.073.732-.132a5.02 5.02 0 0 0 .648-.212c.203-.083.405-.177.608-.284v-2.528h-1.776a.337.337 0 0 1-.244-.088.284.284 0 0 1-.092-.216v-.88h3.52v4.4a6.123 6.123 0 0 1-1.9.932 7.181 7.181 0 0 1-1.14.232c-.405.051-.845.076-1.32.076a5.961 5.961 0 0 1-2.288-.428c-.693-.286-1.291-.686-1.792-1.2s-.892-1.132-1.172-1.852c-.28-.72-.42-1.512-.42-2.376 0-.875.137-1.672.412-2.392a5.275 5.275 0 0 1 1.176-1.852c.509-.515 1.125-.913 1.848-1.196s1.532-.424 2.428-.424c.453 0 .875.033 1.264.1s.75.163 1.084.288c.333.125.641.277.924.456s.547.38.792.604l-.44.704c-.091.144-.208.216-.352.216a.564.564 0 0 1-.28-.088 8.1 8.1 0 0 1-.448-.272c-.166-.106-.367-.209-.604-.308s-.517-.183-.84-.252-.706-.104-1.148-.104c-.646 0-1.229.105-1.752.316a3.707 3.707 0 0 0-1.336.904 3.999 3.999 0 0 0-.848 1.424c-.197.558-.296 1.183-.296 1.876 0 .726.103 1.372.308 1.94.206.568.495 1.049.868 1.444s.816.696 1.328.904a4.465 4.465 0 0 0 1.696.312zM127.192 10.56c.592 0 1.126.099 1.604.296.478.197.883.478 1.216.84.333.363.589.802.768 1.316s.268 1.089.268 1.724c0 .64-.089 1.216-.268 1.728-.179.512-.435.95-.768 1.312a3.328 3.328 0 0 1-1.216.836 4.205 4.205 0 0 1-1.604.292 4.205 4.205 0 0 1-1.604-.292 3.36 3.36 0 0 1-1.22-.836 3.73 3.73 0 0 1-.776-1.312c-.182-.512-.272-1.088-.272-1.728 0-.634.09-1.209.272-1.724a3.72 3.72 0 0 1 .776-1.316 3.428 3.428 0 0 1 1.22-.84 4.168 4.168 0 0 1 1.604-.296zm0 7.232c.8 0 1.397-.268 1.792-.804s.592-1.284.592-2.244c0-.965-.197-1.717-.592-2.256-.395-.539-.992-.808-1.792-.808-.406 0-.758.069-1.056.208a1.97 1.97 0 0 0-.748.6c-.2.262-.35.583-.448.964s-.148.812-.148 1.292.049.909.148 1.288c.099.378.248.697.448.956s.449.458.748.596c.299.139.651.208 1.056.208zM138.512 18.792c-.203 0-.331-.099-.384-.296l-.128-.984c-.347.421-.743.758-1.188 1.012s-.956.38-1.532.38c-.464 0-.886-.089-1.264-.268a2.621 2.621 0 0 1-.968-.788c-.267-.347-.472-.779-.616-1.296-.144-.517-.216-1.112-.216-1.784 0-.597.08-1.153.24-1.668s.391-.961.692-1.34a3.248 3.248 0 0 1 1.1-.892 3.248 3.248 0 0 1 1.472-.324c.496 0 .92.084 1.272.252s.667.404.944.708V7.008h1.424v11.784h-.848zm-2.76-1.04c.464 0 .871-.106 1.22-.32a3.53 3.53 0 0 0 .964-.904v-3.92c-.261-.352-.548-.599-.86-.74a2.47 2.47 0 0 0-1.036-.212c-.757 0-1.339.27-1.744.808-.405.539-.608 1.307-.608 2.304 0 .528.045.98.136 1.356.09.376.224.686.4.928.176.243.392.42.648.532s.549.168.88.168zM144.208 18.92c-.64 0-1.132-.179-1.476-.536-.344-.357-.516-.872-.516-1.544v-4.96h-.976c-.085 0-.157-.025-.216-.076s-.088-.129-.088-.236V11l1.328-.168.328-2.504a.301.301 0 0 1 .104-.196.334.334 0 0 1 .224-.076h.72v2.792h2.32v1.032h-2.32v4.864c0 .341.083.595.248.76a.862.862 0 0 0 .64.248c.149 0 .279-.02.388-.06s.204-.084.284-.132c.08-.048.148-.092.204-.132a.266.266 0 0 1 .148-.06c.075 0 .142.045.2.136l.416.68a2.667 2.667 0 0 1-.888.54c-.347.13-.704.196-1.072.196zM117.06 546.064c0 .858-.136 1.64-.408 2.344s-.656 1.307-1.152 1.808c-.496.502-1.091.89-1.784 1.164s-1.461.412-2.304.412h-4.288v-11.464h4.288c.842 0 1.61.138 2.304.412s1.288.664 1.784 1.168.88 1.107 1.152 1.812.408 1.485.408 2.344zm-1.593 0c0-.704-.096-1.334-.288-1.889a3.985 3.985 0 0 0-.816-1.408 3.487 3.487 0 0 0-1.28-.88 4.437 4.437 0 0 0-1.672-.304h-2.728v8.952h2.728a4.44 4.44 0 0 0 1.672-.304 3.514 3.514 0 0 0 1.28-.876 3.95 3.95 0 0 0 .816-1.404c.193-.554.288-1.183.288-1.887zM124.899 551.792h-.632a.75.75 0 0 1-.336-.064c-.085-.042-.141-.133-.168-.271l-.16-.752a9.224 9.224 0 0 1-.624.516c-.203.152-.416.28-.64.384a3.251 3.251 0 0 1-.716.236 4.06 4.06 0 0 1-.844.08c-.315 0-.609-.044-.884-.132a1.876 1.876 0 0 1-1.2-1.064 2.333 2.333 0 0 1-.18-.956c0-.319.088-.628.264-.924s.46-.559.852-.788c.392-.229.905-.417 1.54-.563s1.411-.23 2.328-.252v-.632c0-.63-.135-1.105-.404-1.429-.27-.322-.668-.483-1.196-.483-.347 0-.639.044-.876.132s-.443.187-.616.296-.323.208-.448.296a.647.647 0 0 1-.372.132.424.424 0 0 1-.252-.076.573.573 0 0 1-.172-.188l-.256-.456a4.626 4.626 0 0 1 1.448-.968 4.455 4.455 0 0 1 1.72-.32c.453 0 .856.075 1.208.224.352.149.648.357.888.624.24.268.421.59.544.969.123.378.184.794.184 1.248v5.181zm-3.696-.872a2.698 2.698 0 0 0 1.276-.292c.184-.093.36-.207.528-.34.168-.134.332-.285.492-.456v-1.688c-.656.021-1.213.074-1.672.156-.458.083-.832.191-1.12.324-.288.134-.498.291-.628.472-.13.182-.196.385-.196.608 0 .213.035.397.104.552.069.155.163.281.28.38a1.1 1.1 0 0 0 .416.216c.16.045.334.068.52.068zm-.8-9.648c0-.225.042-.427.128-.608s.201-.339.348-.472c.146-.134.316-.236.508-.309s.395-.107.608-.107c.219 0 .425.035.62.107s.367.175.516.309a1.417 1.417 0 0 1 .48 1.08 1.368 1.368 0 0 1-.48 1.064 1.654 1.654 0 0 1-.516.3 1.773 1.773 0 0 1-.62.108c-.213 0-.416-.036-.608-.108a1.625 1.625 0 0 1-.508-.3 1.383 1.383 0 0 1-.476-1.064zm.8 0c0 .234.072.427.216.575.144.149.341.225.592.225.24 0 .433-.075.58-.225a.787.787 0 0 0 .22-.575.798.798 0 0 0-.22-.584.779.779 0 0 0-.58-.225c-.25 0-.448.075-.592.225a.806.806 0 0 0-.216.584zM127.059 551.792v-8.104h.816c.155 0 .261.029.32.088s.099.159.12.304l.096 1.264c.277-.565.62-1.007 1.028-1.324a2.28 2.28 0 0 1 1.436-.476 2.097 2.097 0 0 1 1.112.288l-.184 1.063c-.038.134-.12.2-.248.2-.075 0-.189-.025-.344-.076-.155-.05-.371-.075-.648-.075-.496 0-.911.144-1.244.432-.333.288-.612.707-.836 1.256v5.16h-1.424zM135.091 540.008v11.784h-1.424v-11.784h1.424zM139.507 541.144c0 .14-.028.269-.084.389a1.082 1.082 0 0 1-.548.54.978.978 0 0 1-.78 0 1.054 1.054 0 0 1-.32-.221 1.046 1.046 0 0 1-.22-.319.934.934 0 0 1-.08-.389 1.023 1.023 0 0 1 .3-.724c.093-.093.2-.167.32-.22.12-.054.249-.08.388-.08s.27.026.392.08a1.045 1.045 0 0 1 .548.548.958.958 0 0 1 .084.396zm-.32 2.544v8.104h-1.424v-8.104h1.424zM144.427 543.552c.352 0 .681.039.988.116s.585.19.836.34h2.2v.528c0 .176-.112.288-.336.336l-.92.128c.181.347.272.733.272 1.16 0 .395-.076.753-.228 1.076a2.448 2.448 0 0 1-.632.828c-.27.229-.589.405-.96.527a3.854 3.854 0 0 1-1.22.185c-.379 0-.736-.046-1.072-.137-.171.107-.3.222-.388.345a.616.616 0 0 0-.132.359c0 .192.077.338.232.437.154.099.36.169.616.212.256.043.547.069.872.08s.657.027.996.052c.338.024.67.065.996.124.325.059.616.154.872.288.256.133.461.317.616.552s.232.539.232.912c0 .347-.086.683-.26 1.008s-.423.615-.748.868-.723.456-1.192.608c-.47.151-1 .228-1.592.228a6.156 6.156 0 0 1-1.556-.176c-.446-.117-.815-.274-1.108-.472a2.069 2.069 0 0 1-.66-.685 1.62 1.62 0 0 1-.22-.812c0-.4.127-.74.38-1.021.253-.28.602-.503 1.044-.668a1.424 1.424 0 0 1-.548-.428c-.136-.179-.204-.417-.204-.716 0-.117.021-.239.064-.364.042-.125.108-.249.196-.372a2.074 2.074 0 0 1 .772-.649 2.522 2.522 0 0 1-.94-.892c-.227-.37-.34-.804-.34-1.3 0-.395.076-.753.228-1.076.152-.322.364-.598.636-.824s.596-.401.972-.523a4.016 4.016 0 0 1 1.236-.182zm2.528 8.68a.694.694 0 0 0-.168-.488 1.075 1.075 0 0 0-.456-.284 3.35 3.35 0 0 0-.664-.148 10.46 10.46 0 0 0-.792-.067c-.278-.014-.56-.028-.848-.044a8.257 8.257 0 0 1-.824-.088 2.332 2.332 0 0 0-.74.527 1.07 1.07 0 0 0-.144 1.252c.093.157.236.294.428.408.192.115.434.205.724.272.291.066.633.1 1.028.1.384 0 .728-.034 1.032-.104s.561-.168.772-.296c.21-.129.372-.28.484-.456.112-.176.168-.371.168-.584zm-2.528-4.4c.288 0 .542-.04.764-.12.221-.08.406-.192.556-.336s.261-.316.336-.516c.075-.2.112-.42.112-.66 0-.496-.151-.891-.452-1.185-.301-.293-.74-.439-1.316-.439-.571 0-1.007.146-1.308.439-.301.294-.452.688-.452 1.185 0 .24.039.46.116.66.077.199.19.372.34.516s.333.256.552.336.469.12.752.12zM152.331 551.92c-.64 0-1.132-.179-1.476-.536-.344-.357-.516-.872-.516-1.544v-4.96h-.976c-.085 0-.157-.025-.216-.076s-.088-.129-.088-.235V544l1.328-.168.328-2.504c.011-.08.045-.146.104-.196s.133-.076.224-.076h.72v2.792h2.32v1.032h-2.32v4.864c0 .341.083.595.248.76a.866.866 0 0 0 .64.248c.149 0 .279-.02.388-.06s.204-.084.284-.133c.08-.048.148-.092.204-.132a.266.266 0 0 1 .148-.06c.075 0 .142.045.2.136l.416.68a2.65 2.65 0 0 1-.888.54 3.01 3.01 0 0 1-1.072.197z"/><ellipse cx="891.313" cy="212.606" fill="none" stroke="#000" stroke-miterlimit="10" stroke-width="2" rx=".438" ry="1.019"/><ellipse cx="891.15" cy="347.425" fill="none" stroke="#000" stroke-miterlimit="10" stroke-width="2" rx="1.15" ry=".925"/><path fill="none" d="M0 2.5h1000v555H0z"/><path d="M22.225 57.997h4.96v1.304h-6.512V47.837h1.552v10.16zM30.577 48.653a.905.905 0 0 1-.084.388 1.1 1.1 0 0 1-.548.54c-.123.054-.253.08-.392.08s-.268-.026-.388-.08a1.063 1.063 0 0 1-.54-.54.99.99 0 0 1 0-.784c.053-.125.126-.235.22-.328s.2-.167.32-.22c.12-.053.249-.08.388-.08s.27.027.392.08.23.126.324.22c.093.093.168.203.224.328a.965.965 0 0 1 .084.396zm-.32 2.544v8.104h-1.424v-8.104h1.424zM31.745 51.197h1.168c.112 0 .205.029.28.088a.498.498 0 0 1 .16.208l2.056 5.216c.075.192.133.384.176.576.043.192.083.381.12.568.042-.187.088-.376.136-.568.048-.192.109-.384.184-.576l2.08-5.216a.477.477 0 0 1 .156-.212.423.423 0 0 1 .268-.084h1.112l-3.304 8.104h-1.288l-3.304-8.104zM45.601 52.533a.315.315 0 0 1-.296.176.552.552 0 0 1-.272-.088 6.501 6.501 0 0 0-.372-.196 3.5 3.5 0 0 0-.524-.2 2.515 2.515 0 0 0-.72-.092c-.24 0-.456.031-.648.092a1.584 1.584 0 0 0-.492.252c-.136.107-.24.231-.312.372a1.002 1.002 0 0 0-.108.46c0 .208.06.381.18.52s.278.259.476.36c.197.101.421.19.672.268.25.078.508.16.772.248s.521.186.772.292c.25.107.475.24.672.4.197.16.356.356.476.588s.18.511.18.836c0 .374-.067.719-.2 1.036s-.331.592-.592.824a2.862 2.862 0 0 1-.96.548c-.379.133-.816.2-1.312.2a4.091 4.091 0 0 1-1.536-.276 3.888 3.888 0 0 1-1.168-.708l.336-.544a.478.478 0 0 1 .152-.16.43.43 0 0 1 .232-.056c.096 0 .197.038.304.112.106.075.236.157.388.248.152.091.336.173.552.248s.487.112.812.112c.277 0 .52-.036.728-.108.208-.072.381-.169.52-.292s.241-.264.308-.424c.066-.16.1-.331.1-.512a.85.85 0 0 0-.18-.556c-.12-.146-.279-.272-.476-.376s-.423-.194-.676-.272a50.909 50.909 0 0 1-.776-.244 8.824 8.824 0 0 1-.776-.292 2.728 2.728 0 0 1-.676-.412c-.198-.166-.356-.37-.476-.612s-.18-.537-.18-.884c0-.31.064-.607.192-.892.128-.285.315-.536.56-.752.246-.216.547-.388.904-.516a3.615 3.615 0 0 1 1.224-.192c.534 0 1.012.084 1.436.252a3.4 3.4 0 0 1 1.1.692l-.32.52zM49.384 47.517v6.936h.368c.106 0 .194-.015.264-.044s.147-.089.232-.18l2.56-2.744c.08-.085.16-.155.24-.208s.187-.08.32-.08h1.296l-2.984 3.176a2.79 2.79 0 0 1-.22.24 1.29 1.29 0 0 1-.244.184c.096.064.183.137.26.22.077.083.15.178.22.284l3.168 4h-1.28a.608.608 0 0 1-.3-.068.78.78 0 0 1-.236-.212l-2.664-3.32a.624.624 0 0 0-.24-.22.944.944 0 0 0-.36-.052h-.4v3.872h-1.432V47.517h1.432zM55.264 51.197h1.168c.112 0 .205.029.28.088a.498.498 0 0 1 .16.208l2.056 5.216c.075.192.133.384.176.576.043.192.083.381.12.568.042-.187.088-.376.136-.568.048-.192.109-.384.184-.576l2.08-5.216a.477.477 0 0 1 .156-.212.423.423 0 0 1 .268-.084h1.112l-3.304 8.104h-1.288l-3.304-8.104zM70.432 59.301H69.8c-.139 0-.25-.021-.336-.064s-.141-.133-.168-.272l-.16-.752a8.933 8.933 0 0 1-.624.516c-.203.152-.416.28-.64.384s-.463.183-.716.236a4.13 4.13 0 0 1-.844.08c-.315 0-.609-.044-.884-.132a1.884 1.884 0 0 1-1.2-1.064c-.12-.27-.18-.588-.18-.956 0-.32.088-.628.264-.924.176-.296.46-.559.852-.788.392-.229.905-.417 1.54-.564.635-.147 1.411-.231 2.328-.252v-.632c0-.629-.135-1.105-.404-1.428s-.668-.484-1.196-.484c-.347 0-.639.044-.876.132s-.443.187-.616.296-.323.208-.448.296a.647.647 0 0 1-.372.132.424.424 0 0 1-.252-.076.583.583 0 0 1-.172-.188l-.256-.456a4.626 4.626 0 0 1 1.448-.968 4.473 4.473 0 0 1 1.72-.32c.453 0 .856.075 1.208.224s.648.357.888.624.421.589.544.968c.123.379.184.795.184 1.248v5.184zm-3.696-.872a2.698 2.698 0 0 0 1.276-.292c.184-.093.36-.207.528-.34s.332-.285.492-.456v-1.688c-.656.021-1.213.073-1.672.156-.458.083-.832.191-1.12.324-.288.133-.498.291-.628.472a1.02 1.02 0 0 0-.196.608c0 .213.035.397.104.552a1.038 1.038 0 0 0 .696.596c.16.046.333.068.52.068zM74.176 47.517v11.784h-1.424V47.517h1.424zM78.591 48.653a.905.905 0 0 1-.084.388 1.1 1.1 0 0 1-.548.54c-.123.054-.253.08-.392.08s-.268-.026-.388-.08a1.063 1.063 0 0 1-.54-.54.99.99 0 0 1 0-.784c.053-.125.126-.235.22-.328s.2-.167.32-.22c.12-.053.249-.08.388-.08s.27.027.392.08.23.126.324.22c.093.093.168.203.224.328a.965.965 0 0 1 .084.396zm-.32 2.544v8.104h-1.424v-8.104h1.424zM83.239 59.429c-.64 0-1.132-.179-1.476-.536-.344-.357-.516-.872-.516-1.544v-4.96h-.976c-.085 0-.157-.025-.216-.076s-.088-.129-.088-.236v-.568l1.328-.168.328-2.504a.301.301 0 0 1 .104-.196.334.334 0 0 1 .224-.076h.72v2.792h2.32v1.032h-2.32v4.864c0 .341.083.595.248.76a.862.862 0 0 0 .64.248c.149 0 .279-.02.388-.06s.204-.084.284-.132c.08-.048.148-.092.204-.132a.266.266 0 0 1 .148-.06c.075 0 .142.045.2.136l.416.68a2.667 2.667 0 0 1-.888.54 3.01 3.01 0 0 1-1.072.196zM89.959 51.069c.485 0 .933.082 1.344.244.411.163.765.397 1.064.704.298.307.532.686.7 1.136s.252.964.252 1.54c0 .224-.024.373-.072.448s-.139.112-.272.112h-5.392c.011.512.08.957.208 1.336s.304.695.528.948c.224.253.491.443.8.568.309.125.656.188 1.04.188.357 0 .665-.042.924-.124a4.43 4.43 0 0 0 1.136-.536c.125-.083.233-.124.324-.124.117 0 .208.045.272.136l.4.52a2.712 2.712 0 0 1-.632.556 3.953 3.953 0 0 1-.788.388c-.28.101-.569.177-.868.228-.299.05-.595.076-.888.076-.56 0-1.076-.095-1.548-.284a3.397 3.397 0 0 1-1.224-.832c-.344-.365-.612-.817-.804-1.356s-.288-1.157-.288-1.856c0-.565.087-1.093.26-1.584s.422-.916.748-1.276a3.44 3.44 0 0 1 1.192-.848 3.916 3.916 0 0 1 1.584-.308zm.032 1.048c-.688 0-1.229.199-1.624.596-.395.397-.64.948-.736 1.652h4.408c0-.331-.045-.633-.136-.908a2.019 2.019 0 0 0-.4-.712c-.176-.2-.391-.354-.644-.464s-.543-.164-.868-.164zM97.591 59.429c-.64 0-1.132-.179-1.476-.536-.344-.357-.516-.872-.516-1.544v-4.96h-.976c-.085 0-.157-.025-.216-.076s-.088-.129-.088-.236v-.568l1.328-.168.328-2.504a.301.301 0 0 1 .104-.196.334.334 0 0 1 .224-.076h.72v2.792h2.32v1.032h-2.32v4.864c0 .341.083.595.248.76a.862.862 0 0 0 .64.248c.149 0 .279-.02.388-.06s.204-.084.284-.132c.08-.048.148-.092.204-.132a.266.266 0 0 1 .148-.06c.075 0 .142.045.2.136l.416.68a2.667 2.667 0 0 1-.888.54 3.01 3.01 0 0 1-1.072.196zM104.311 59.469a.839.839 0 0 1-.784.552h-.6l4.808-11.976a.86.86 0 0 1 .296-.392.766.766 0 0 1 .456-.136h.6l-4.776 11.952zM27.737 67.038v1.264h-5.504v3.808h4.456v1.216h-4.456v3.912h5.504v1.264h-7.064V67.038h7.064zM29.745 78.501v-8.104h.848c.203 0 .331.099.384.296l.112.88a4.556 4.556 0 0 1 1.18-.944c.435-.24.938-.36 1.508-.36.442 0 .833.073 1.172.22.338.147.621.355.848.624.227.27.398.594.516.972.117.379.176.797.176 1.256v5.16h-1.424v-5.16c0-.613-.14-1.089-.42-1.428-.28-.339-.708-.508-1.284-.508-.421 0-.815.102-1.18.304s-.703.478-1.012.824v5.968h-1.424zM41.849 70.27c.485 0 .933.082 1.344.244.411.163.765.397 1.064.704.298.307.532.686.7 1.136s.252.964.252 1.54c0 .224-.024.373-.072.448s-.139.112-.272.112h-5.392c.011.512.08.957.208 1.336s.304.695.528.948c.224.253.491.443.8.568.309.125.656.188 1.04.188.357 0 .665-.042.924-.124a4.43 4.43 0 0 0 1.136-.536c.125-.083.233-.124.324-.124.117 0 .208.045.272.136l.4.52a2.712 2.712 0 0 1-.632.556 3.953 3.953 0 0 1-.788.388c-.28.101-.569.177-.868.228-.299.05-.595.076-.888.076-.56 0-1.076-.095-1.548-.284a3.397 3.397 0 0 1-1.224-.832c-.344-.365-.612-.817-.804-1.356s-.288-1.157-.288-1.856c0-.565.087-1.093.26-1.584s.422-.916.748-1.276a3.44 3.44 0 0 1 1.192-.848c.469-.206.997-.308 1.584-.308zm.032 1.047c-.688 0-1.229.199-1.624.596-.395.397-.64.948-.736 1.652h4.408c0-.331-.045-.633-.136-.908a2.019 2.019 0 0 0-.4-.712c-.176-.2-.391-.354-.644-.464s-.543-.164-.868-.164zM47.024 78.501v-8.104h.816c.155 0 .261.029.32.088s.099.16.12.304l.096 1.264c.277-.565.62-1.006 1.028-1.324a2.274 2.274 0 0 1 1.436-.476 2.097 2.097 0 0 1 1.112.288l-.184 1.064c-.038.133-.12.2-.248.2-.075 0-.189-.025-.344-.076s-.371-.076-.648-.076c-.496 0-.911.144-1.244.432-.333.288-.612.707-.836 1.256v5.16h-1.424zM56.201 70.261c.352 0 .681.039.988.116.307.078.585.191.836.34h2.2v.528c0 .176-.112.288-.336.336l-.92.128c.181.347.272.733.272 1.16 0 .395-.076.753-.228 1.076a2.439 2.439 0 0 1-.632.828c-.27.229-.589.405-.96.528a3.854 3.854 0 0 1-1.22.184c-.379 0-.736-.045-1.072-.136-.171.106-.3.221-.388.344a.62.62 0 0 0-.132.36c0 .192.077.337.232.436.154.099.36.169.616.212.256.042.547.069.872.08.325.011.657.028.996.052.338.024.67.065.996.124.325.059.616.155.872.288.256.133.461.317.616.552.155.235.232.539.232.912 0 .347-.086.683-.26 1.008s-.423.615-.748.868-.723.456-1.192.608c-.47.152-1 .228-1.592.228a6.156 6.156 0 0 1-1.556-.176c-.446-.118-.815-.275-1.108-.472a2.057 2.057 0 0 1-.66-.684 1.62 1.62 0 0 1-.22-.812c0-.4.127-.74.38-1.02s.602-.502 1.044-.668a1.424 1.424 0 0 1-.548-.428c-.136-.179-.204-.417-.204-.716 0-.117.021-.238.064-.364.042-.125.108-.25.196-.372a2.112 2.112 0 0 1 .772-.648 2.522 2.522 0 0 1-.94-.892c-.227-.371-.34-.804-.34-1.3 0-.395.076-.753.228-1.076a2.38 2.38 0 0 1 .636-.824c.272-.227.596-.401.972-.524a3.986 3.986 0 0 1 1.236-.184zm2.528 8.68a.696.696 0 0 0-.168-.488 1.085 1.085 0 0 0-.456-.284 3.35 3.35 0 0 0-.664-.148 9.955 9.955 0 0 0-.792-.068c-.278-.013-.56-.028-.848-.044a7.705 7.705 0 0 1-.824-.088c-.304.144-.551.32-.74.528a1.07 1.07 0 0 0-.144 1.252c.093.157.236.293.428.408.192.115.434.206.724.272.291.067.633.1 1.028.1.384 0 .728-.035 1.032-.104s.561-.168.772-.296c.21-.128.372-.28.484-.456.112-.175.168-.37.168-.584zm-2.528-4.399c.288 0 .542-.04.764-.12.221-.08.406-.192.556-.336s.261-.316.336-.516c.075-.2.112-.42.112-.66 0-.496-.151-.891-.452-1.184s-.74-.44-1.316-.44c-.571 0-1.007.146-1.308.44s-.452.688-.452 1.184c0 .24.039.46.116.66.077.2.19.372.34.516s.333.256.552.336.469.12.752.12zM63.552 67.854a.905.905 0 0 1-.084.388 1.1 1.1 0 0 1-.548.54c-.123.054-.253.08-.392.08s-.268-.026-.388-.08a1.063 1.063 0 0 1-.54-.54.99.99 0 0 1 0-.784c.053-.125.126-.235.22-.328s.2-.167.32-.22c.12-.053.249-.08.388-.08s.27.027.392.08.23.126.324.22c.093.093.168.203.224.328a.958.958 0 0 1 .084.396zm-.32 2.543v8.104h-1.424v-8.104h1.424zM65.744 78.501v-8.104h.848c.203 0 .331.099.384.296l.112.88a4.556 4.556 0 0 1 1.18-.944c.435-.24.938-.36 1.508-.36.442 0 .833.073 1.172.22.338.147.621.355.848.624.227.27.398.594.516.972.117.379.176.797.176 1.256v5.16h-1.424v-5.16c0-.613-.14-1.089-.42-1.428-.28-.339-.708-.508-1.284-.508-.421 0-.815.102-1.18.304s-.703.478-1.012.824v5.968h-1.424zM76.544 67.854a.905.905 0 0 1-.084.388 1.1 1.1 0 0 1-.548.54c-.123.054-.253.08-.392.08s-.268-.026-.388-.08a1.063 1.063 0 0 1-.54-.54.99.99 0 0 1 0-.784c.053-.125.126-.235.22-.328s.2-.167.32-.22c.12-.053.249-.08.388-.08s.27.027.392.08.23.126.324.22c.093.093.168.203.224.328a.958.958 0 0 1 .084.396zm-.32 2.543v8.104H74.8v-8.104h1.424zM77.712 70.397h1.168c.112 0 .205.029.28.088a.498.498 0 0 1 .16.208l2.056 5.216c.075.192.133.384.176.576.043.192.083.381.12.568.042-.187.088-.376.136-.568.048-.192.109-.384.184-.576l2.08-5.216a.477.477 0 0 1 .156-.212.423.423 0 0 1 .268-.084h1.112l-3.304 8.104h-1.288l-3.304-8.104zM89.929 70.27c.485 0 .933.082 1.344.244.411.163.765.397 1.064.704.298.307.532.686.7 1.136s.252.964.252 1.54c0 .224-.024.373-.072.448s-.139.112-.272.112h-5.392c.011.512.08.957.208 1.336s.304.695.528.948c.224.253.491.443.8.568.309.125.656.188 1.04.188.357 0 .665-.042.924-.124a4.43 4.43 0 0 0 1.136-.536c.125-.083.233-.124.324-.124.117 0 .208.045.272.136l.4.52a2.712 2.712 0 0 1-.632.556 3.953 3.953 0 0 1-.788.388c-.28.101-.569.177-.868.228-.299.05-.595.076-.888.076-.56 0-1.076-.095-1.548-.284a3.397 3.397 0 0 1-1.224-.832c-.344-.365-.612-.817-.804-1.356s-.288-1.157-.288-1.856c0-.565.087-1.093.26-1.584s.422-.916.748-1.276a3.44 3.44 0 0 1 1.192-.848c.469-.206.997-.308 1.584-.308zm.032 1.047c-.688 0-1.229.199-1.624.596-.395.397-.64.948-.736 1.652h4.408c0-.331-.045-.633-.136-.908a2.019 2.019 0 0 0-.4-.712c-.176-.2-.391-.354-.644-.464s-.543-.164-.868-.164zM101.057 78.501h-.632c-.139 0-.25-.021-.336-.064s-.141-.133-.168-.272l-.16-.752a8.933 8.933 0 0 1-.624.516c-.203.152-.416.28-.64.384s-.463.183-.716.236a4.13 4.13 0 0 1-.844.08c-.315 0-.609-.044-.884-.132a1.884 1.884 0 0 1-1.2-1.064c-.12-.27-.18-.588-.18-.956 0-.32.088-.628.264-.924.176-.296.46-.559.852-.788.392-.229.905-.417 1.54-.564.635-.147 1.411-.231 2.328-.252v-.632c0-.629-.135-1.105-.404-1.428s-.668-.484-1.196-.484c-.347 0-.639.044-.876.132s-.443.187-.616.296-.323.208-.448.296a.647.647 0 0 1-.372.132.424.424 0 0 1-.252-.076.583.583 0 0 1-.172-.188l-.256-.456a4.626 4.626 0 0 1 1.448-.968 4.473 4.473 0 0 1 1.72-.32c.453 0 .856.075 1.208.224s.648.357.888.624.421.589.544.968c.123.379.184.795.184 1.248v5.184zm-3.697-.872a2.698 2.698 0 0 0 1.276-.292c.184-.093.36-.207.528-.34s.332-.285.492-.456v-1.688c-.656.021-1.213.073-1.672.156-.458.083-.832.191-1.12.324-.288.133-.498.291-.628.472a1.02 1.02 0 0 0-.196.608c0 .213.035.397.104.552a1.038 1.038 0 0 0 .696.596c.16.046.334.068.52.068zM104.448 70.397v5.168c0 .613.141 1.088.424 1.424.282.336.709.504 1.28.504.416 0 .808-.099 1.176-.296a3.647 3.647 0 0 0 1.016-.824v-5.976h1.424v8.104h-.848c-.203 0-.331-.099-.384-.296l-.112-.872c-.352.389-.747.703-1.184.94s-.938.356-1.504.356a2.92 2.92 0 0 1-1.172-.22 2.33 2.33 0 0 1-.852-.62 2.643 2.643 0 0 1-.516-.968 4.305 4.305 0 0 1-.172-1.256v-5.168h1.424z"/></svg>