<?xml version="1.0" encoding="utf-8"?>
<!-- Generator: Adobe Illustrator 16.0.3, SVG Export Plug-In . SVG Version: 6.00 Build 0)  -->
<!DOCTYPE svg PUBLIC "-//W3C//DTD SVG 1.1//EN" "http://www.w3.org/Graphics/SVG/1.1/DTD/svg11.dtd">
<svg version="1.1" id="Layer_1" xmlns="http://www.w3.org/2000/svg" xmlns:xlink="http://www.w3.org/1999/xlink" x="0px" y="0px"
	 width="650px" height="650px" viewBox="0 0 650 650" enable-background="new 0 0 650 650" xml:space="preserve">
<line fill="none" stroke="#000000" stroke-width="12" stroke-miterlimit="10" stroke-dasharray="12" x1="325" y1="8.603" x2="325" y2="650"/>
<g>
	<path d="M228.08,96.794v-25.77h7.787l4.676,17.578l4.623-17.578h7.805v25.77h-4.834V76.509l-5.115,20.285h-5.01l-5.098-20.285
		v20.285H228.08z"/>
	<path d="M257.98,96.794v-25.77h5.203v25.77H257.98z"/>
	<path d="M280.128,87.319v-4.342h11.215v10.266c-1.09,1.055-2.669,1.983-4.737,2.786s-4.163,1.204-6.284,1.204
		c-2.695,0-5.045-0.565-7.049-1.696s-3.51-2.748-4.518-4.852s-1.512-4.392-1.512-6.864c0-2.684,0.563-5.068,1.688-7.154
		s2.771-3.686,4.939-4.799c1.652-0.855,3.709-1.283,6.17-1.283c3.199,0,5.698,0.671,7.497,2.013s2.956,3.196,3.472,5.563
		l-5.168,0.967c-0.363-1.266-1.046-2.265-2.048-2.997s-2.253-1.099-3.753-1.099c-2.273,0-4.081,0.721-5.423,2.162
		s-2.013,3.58-2.013,6.416c0,3.059,0.68,5.353,2.039,6.882s3.141,2.294,5.344,2.294c1.09,0,2.183-0.214,3.278-0.642
		s2.036-0.946,2.821-1.556v-3.27H280.128z"/>
</g>
<g>
	<path d="M352.061,83.354c0-2.625,0.393-4.828,1.178-6.609c0.586-1.313,1.386-2.49,2.399-3.533s2.124-1.816,3.331-2.32
		c1.605-0.68,3.457-1.02,5.555-1.02c3.797,0,6.835,1.178,9.114,3.533s3.419,5.631,3.419,9.826c0,4.16-1.131,7.415-3.393,9.765
		s-5.285,3.524-9.07,3.524c-3.832,0-6.879-1.169-9.141-3.507S352.061,87.456,352.061,83.354z M357.422,83.179
		c0,2.918,0.674,5.13,2.021,6.636s3.059,2.259,5.133,2.259s3.776-0.747,5.106-2.241s1.995-3.735,1.995-6.724
		c0-2.953-0.647-5.156-1.942-6.609s-3.015-2.18-5.159-2.18s-3.873,0.735-5.186,2.206S357.422,80.214,357.422,83.179z"/>
	<path d="M393.105,86.606v-4.342h11.215V92.53c-1.09,1.055-2.669,1.983-4.737,2.786s-4.163,1.204-6.284,1.204
		c-2.695,0-5.045-0.565-7.049-1.696s-3.51-2.748-4.518-4.852s-1.512-4.392-1.512-6.864c0-2.684,0.563-5.068,1.688-7.154
		s2.771-3.686,4.939-4.799c1.652-0.855,3.709-1.283,6.17-1.283c3.199,0,5.698,0.671,7.497,2.013s2.956,3.196,3.472,5.563
		l-5.168,0.967c-0.363-1.266-1.046-2.265-2.048-2.997s-2.253-1.099-3.753-1.099c-2.273,0-4.081,0.721-5.423,2.162
		s-2.013,3.58-2.013,6.416c0,3.059,0.68,5.353,2.039,6.882s3.141,2.294,5.344,2.294c1.09,0,2.183-0.214,3.278-0.642
		s2.036-0.946,2.821-1.556v-3.27H393.105z"/>
	<path d="M407.801,87.696l5.063-0.492c0.305,1.699,0.923,2.947,1.854,3.744s2.188,1.195,3.771,1.195
		c1.676,0,2.938-0.354,3.788-1.063s1.274-1.538,1.274-2.487c0-0.609-0.179-1.128-0.536-1.556s-0.981-0.8-1.872-1.116
		c-0.609-0.211-1.998-0.586-4.166-1.125c-2.789-0.691-4.746-1.541-5.871-2.549c-1.582-1.418-2.373-3.146-2.373-5.186
		c0-1.313,0.372-2.54,1.116-3.683s1.816-2.013,3.217-2.61s3.091-0.896,5.071-0.896c3.234,0,5.669,0.709,7.304,2.127
		s2.493,3.311,2.575,5.678l-5.203,0.229c-0.223-1.324-0.7-2.276-1.433-2.856s-1.831-0.87-3.296-0.87
		c-1.512,0-2.695,0.311-3.551,0.932c-0.551,0.398-0.826,0.932-0.826,1.6c0,0.609,0.258,1.131,0.773,1.564
		c0.656,0.551,2.25,1.125,4.781,1.723s4.403,1.216,5.616,1.854s2.162,1.512,2.848,2.619s1.028,2.476,1.028,4.104
		c0,1.477-0.41,2.859-1.23,4.148s-1.98,2.247-3.48,2.874s-3.369,0.94-5.607,0.94c-3.258,0-5.76-0.753-7.506-2.259
		S408.141,90.579,407.801,87.696z"/>
	<path d="M456.369,96.081h-5.66l-2.25-5.854h-10.301l-2.127,5.854h-5.52l10.037-25.77h5.502L456.369,96.081z M446.789,85.886
		l-3.551-9.563l-3.48,9.563H446.789z M446.701,68.624c0,0.949-0.337,1.761-1.011,2.435s-1.485,1.011-2.435,1.011
		s-1.761-0.337-2.435-1.011s-1.011-1.485-1.011-2.435s0.337-1.761,1.011-2.435s1.485-1.011,2.435-1.011s1.761,0.334,2.435,1.002
		S446.701,67.663,446.701,68.624z M444.82,68.624c0-0.434-0.152-0.803-0.457-1.107s-0.674-0.457-1.107-0.457
		s-0.803,0.152-1.107,0.457s-0.457,0.674-0.457,1.107s0.152,0.803,0.457,1.107s0.674,0.457,1.107,0.457s0.803-0.152,1.107-0.457
		S444.82,69.058,444.82,68.624z"/>
	<path d="M372.056,139.281v-25.77h7.787l4.676,17.578l4.623-17.578h7.805v25.77h-4.834v-20.285l-5.115,20.285h-5.01l-5.098-20.285
		v20.285H372.056z"/>
	<path d="M401.956,139.281v-25.77h5.203v25.77H401.956z"/>
	<path d="M424.104,129.807v-4.342h11.215v10.266c-1.09,1.055-2.669,1.983-4.737,2.786s-4.163,1.204-6.284,1.204
		c-2.695,0-5.045-0.565-7.049-1.696s-3.51-2.748-4.518-4.852s-1.512-4.392-1.512-6.864c0-2.684,0.563-5.068,1.688-7.154
		s2.771-3.686,4.939-4.799c1.652-0.855,3.709-1.283,6.17-1.283c3.199,0,5.698,0.671,7.497,2.013s2.956,3.196,3.472,5.563
		l-5.168,0.967c-0.363-1.266-1.046-2.265-2.048-2.997s-2.253-1.099-3.753-1.099c-2.273,0-4.081,0.721-5.423,2.162
		s-2.013,3.58-2.013,6.416c0,3.059,0.68,5.353,2.039,6.882s3.141,2.294,5.344,2.294c1.09,0,2.183-0.214,3.278-0.642
		s2.036-0.946,2.821-1.556v-3.27H424.104z"/>
</g>
</svg>
