<svg xml:space="preserve" width="650" height="650" xmlns="http://www.w3.org/2000/svg"><path fill="none" stroke="#000" stroke-dasharray="12" stroke-miterlimit="10" stroke-width="12" d="M325 8.603V650"/><path d="M228.08 96.794v-25.77h7.787l4.676 17.578 4.623-17.578h7.805v25.77h-4.834V76.509l-5.115 20.285h-5.01l-5.098-20.285v20.285h-4.834zM257.98 96.794v-25.77h5.203v25.77h-5.203zM280.128 87.319v-4.342h11.215v10.266c-1.09 1.055-2.669 1.983-4.737 2.786s-4.163 1.204-6.284 1.204c-2.695 0-5.045-.565-7.049-1.696s-3.51-2.748-4.518-4.852-1.512-4.392-1.512-6.864c0-2.684.563-5.068 1.688-7.154s2.771-3.686 4.939-4.799c1.652-.855 3.709-1.283 6.17-1.283 3.199 0 5.698.671 7.497 2.013s2.956 3.196 3.472 5.563l-5.168.967c-.363-1.266-1.046-2.265-2.048-2.997s-2.253-1.099-3.753-1.099c-2.273 0-4.081.721-5.423 2.162s-2.013 3.58-2.013 6.416c0 3.059.68 5.353 2.039 6.882s3.141 2.294 5.344 2.294c1.09 0 2.183-.214 3.278-.642s2.036-.946 2.821-1.556v-3.27h-5.958zM352.061 83.354c0-2.625.393-4.828 1.178-6.609.586-1.313 1.386-2.49 2.399-3.533s2.124-1.816 3.331-2.32c1.605-.68 3.457-1.02 5.555-1.02 3.797 0 6.835 1.178 9.114 3.533s3.419 5.631 3.419 9.826c0 4.16-1.131 7.415-3.393 9.765s-5.285 3.524-9.07 3.524c-3.832 0-6.879-1.169-9.141-3.507s-3.392-5.557-3.392-9.659zm5.361-.175c0 2.918.674 5.13 2.021 6.636s3.059 2.259 5.133 2.259 3.776-.747 5.106-2.241 1.995-3.735 1.995-6.724c0-2.953-.647-5.156-1.942-6.609s-3.015-2.18-5.159-2.18-3.873.735-5.186 2.206-1.968 3.688-1.968 6.653zM393.105 86.606v-4.342h11.215V92.53c-1.09 1.055-2.669 1.983-4.737 2.786s-4.163 1.204-6.284 1.204c-2.695 0-5.045-.565-7.049-1.696s-3.51-2.748-4.518-4.852-1.512-4.392-1.512-6.864c0-2.684.563-5.068 1.688-7.154s2.771-3.686 4.939-4.799c1.652-.855 3.709-1.283 6.17-1.283 3.199 0 5.698.671 7.497 2.013s2.956 3.196 3.472 5.563l-5.168.967c-.363-1.266-1.046-2.265-2.048-2.997s-2.253-1.099-3.753-1.099c-2.273 0-4.081.721-5.423 2.162s-2.013 3.58-2.013 6.416c0 3.059.68 5.353 2.039 6.882s3.141 2.294 5.344 2.294c1.09 0 2.183-.214 3.278-.642s2.036-.946 2.821-1.556v-3.27h-5.958zM407.801 87.696l5.063-.492c.305 1.699.923 2.947 1.854 3.744s2.188 1.195 3.771 1.195c1.676 0 2.938-.354 3.788-1.063s1.274-1.538 1.274-2.487c0-.609-.179-1.128-.536-1.556s-.981-.8-1.872-1.116c-.609-.211-1.998-.586-4.166-1.125-2.789-.691-4.746-1.541-5.871-2.549-1.582-1.418-2.373-3.146-2.373-5.186 0-1.313.372-2.54 1.116-3.683s1.816-2.013 3.217-2.61 3.091-.896 5.071-.896c3.234 0 5.669.709 7.304 2.127s2.493 3.311 2.575 5.678l-5.203.229c-.223-1.324-.7-2.276-1.433-2.856s-1.831-.87-3.296-.87c-1.512 0-2.695.311-3.551.932-.551.398-.826.932-.826 1.6 0 .609.258 1.131.773 1.564.656.551 2.25 1.125 4.781 1.723s4.403 1.216 5.616 1.854 2.162 1.512 2.848 2.619 1.028 2.476 1.028 4.104c0 1.477-.41 2.859-1.23 4.148s-1.98 2.247-3.48 2.874-3.369.94-5.607.94c-3.258 0-5.76-.753-7.506-2.259s-2.789-3.7-3.129-6.583zM456.369 96.081h-5.66l-2.25-5.854h-10.301l-2.127 5.854h-5.52l10.037-25.77h5.502l10.319 25.77zm-9.58-10.195-3.551-9.563-3.48 9.563h7.031zm-.088-17.262c0 .949-.337 1.761-1.011 2.435s-1.485 1.011-2.435 1.011-1.761-.337-2.435-1.011-1.011-1.485-1.011-2.435.337-1.761 1.011-2.435 1.485-1.011 2.435-1.011 1.761.334 2.435 1.002 1.011 1.483 1.011 2.444zm-1.881 0c0-.434-.152-.803-.457-1.107s-.674-.457-1.107-.457-.803.152-1.107.457-.457.674-.457 1.107.152.803.457 1.107.674.457 1.107.457.803-.152 1.107-.457.457-.673.457-1.107zM372.056 139.281v-25.77h7.787l4.676 17.578 4.623-17.578h7.805v25.77h-4.834v-20.285l-5.115 20.285h-5.01l-5.098-20.285v20.285h-4.834zM401.956 139.281v-25.77h5.203v25.77h-5.203zM424.104 129.807v-4.342h11.215v10.266c-1.09 1.055-2.669 1.983-4.737 2.786s-4.163 1.204-6.284 1.204c-2.695 0-5.045-.565-7.049-1.696s-3.51-2.748-4.518-4.852-1.512-4.392-1.512-6.864c0-2.684.563-5.068 1.688-7.154s2.771-3.686 4.939-4.799c1.652-.855 3.709-1.283 6.17-1.283 3.199 0 5.698.671 7.497 2.013s2.956 3.196 3.472 5.563l-5.168.967c-.363-1.266-1.046-2.265-2.048-2.997s-2.253-1.099-3.753-1.099c-2.273 0-4.081.721-5.423 2.162s-2.013 3.58-2.013 6.416c0 3.059.68 5.353 2.039 6.882s3.141 2.294 5.344 2.294c1.09 0 2.183-.214 3.278-.642s2.036-.946 2.821-1.556v-3.27h-5.958z"/></svg>