<?xml version="1.0" encoding="utf-8"?>
<!-- Generator: Adobe Illustrator 16.0.0, SVG Export Plug-In . SVG Version: 6.00 Build 0)  -->
<!DOCTYPE svg PUBLIC "-//W3C//DTD SVG 1.1//EN" "http://www.w3.org/Graphics/SVG/1.1/DTD/svg11.dtd">
<svg version="1.1" id="Layer_1" xmlns="http://www.w3.org/2000/svg" xmlns:xlink="http://www.w3.org/1999/xlink" x="0px" y="0px"
	 width="555px" height="199.887px" viewBox="0 0 555 199.887" enable-background="new 0 0 555 199.887" xml:space="preserve">
<g>
	<polygon fill="#FFFFFF" points="0,0 555,0 555,199.887 0,199.887 0,0 	"/>
	<g>
		<defs>
			<rect id="SVGID_1_" x="34.095" y="2.168" width="518.737" height="188.396"/>
		</defs>
		<clipPath id="SVGID_2_">
			<use xlink:href="#SVGID_1_"  overflow="visible"/>
		</clipPath>
		
			<path clip-path="url(#SVGID_2_)" fill="none" stroke="#FFA500" stroke-width="1.7344" stroke-linejoin="round" stroke-miterlimit="10" d="
			M100.4,118.069l21.523-35.377 M35.83,188.83h0.339h0.295l0.332-0.001l0.334-0.002l0.333-0.002l0.309-0.003l0.319-0.005
			l0.331-0.007l0.329-0.008l0.339-0.011l0.298-0.011l0.336-0.015l0.337-0.018l0.325-0.02l0.295-0.02l0.351-0.027l0.297-0.025
			l0.346-0.033l0.306-0.032l0.336-0.039l0.32-0.04l0.333-0.046l0.307-0.047l0.331-0.053l0.343-0.06l0.299-0.057l0.323-0.063
			l0.333-0.071l0.327-0.074l0.315-0.075l0.351-0.089l0.315-0.085l0.336-0.095l0.305-0.091l0.333-0.104l0.313-0.103l0.328-0.112
			l0.32-0.114l0.335-0.125l0.323-0.125l0.331-0.134l0.328-0.138l0.301-0.131l0.345-0.156l0.309-0.145l0.329-0.159l0.314-0.157
			l0.35-0.181l0.303-0.161l0.344-0.189l0.313-0.177l0.343-0.2l0.295-0.177l0.336-0.207l0.325-0.206L54,184.196l0.324-0.216
			l0.311-0.212l0.337-0.234l0.32-0.229l0.337-0.247l0.305-0.229l0.337-0.258l0.323-0.253l0.322-0.257l0.337-0.274l0.31-0.258
			l0.318-0.269l0.351-0.302l0.317-0.279l0.325-0.291l0.33-0.301l0.303-0.281l0.324-0.305l0.321-0.308l0.343-0.334l0.303-0.299
			l0.35-0.352l0.316-0.321l0.312-0.323l0.336-0.352l0.337-0.358l0.307-0.331l0.326-0.356l0.318-0.352l0.345-0.387l0.298-0.338
			l0.342-0.394l0.322-0.375l0.319-0.375l0.319-0.38l0.326-0.392l0.345-0.42l0.316-0.39l0.313-0.388l0.333-0.419l0.333-0.423
			l0.299-0.383l0.354-0.458l0.296-0.387l0.347-0.456l0.331-0.439l0.295-0.396l0.333-0.449l0.334-0.455l0.333-0.458l0.309-0.427
			l0.319-0.446l0.331-0.464l0.329-0.467l0.339-0.483l0.298-0.429l0.336-0.486l0.337-0.491l0.325-0.477l0.295-0.436l0.352-0.521
			l0.297-0.443l0.346-0.52l0.306-0.462l0.336-0.511l0.32-0.488l0.333-0.512l0.307-0.474l0.331-0.513l0.343-0.534l0.299-0.468
			l0.323-0.508l0.333-0.526l0.326-0.518l0.316-0.503l0.35-0.561l0.315-0.506l0.336-0.541l0.305-0.493l0.333-0.54l0.313-0.511
			l0.328-0.535l0.32-0.524l0.335-0.552l0.323-0.531l0.331-0.546l0.328-0.543l0.301-0.5l0.345-0.574l0.308-0.516l0.329-0.55
			l0.315-0.528l0.35-0.587l0.303-0.51l0.344-0.579l0.313-0.528l0.342-0.579l0.296-0.501l0.336-0.57l0.325-0.553l0.325-0.552
			l0.635-1.081l0.657-1.12l1.304-2.226l2.914-4.982l0.646-1.102l0.646-1.103l0.666-1.132l0.312-0.531l0.336-0.569l0.337-0.572
			l0.307-0.52l0.326-0.551l0.318-0.537l0.344-0.581l0.298-0.502l0.343-0.576l0.322-0.54l0.319-0.534l0.319-0.533l0.326-0.543
			l0.345-0.574l0.316-0.525l0.312-0.519l0.334-0.552l0.333-0.55l0.314-0.517"/>
		
			<line clip-path="url(#SVGID_2_)" fill="none" stroke="#FFA500" stroke-width="1.7344" stroke-linejoin="round" stroke-miterlimit="10" stroke-dasharray="14.6338,4.8779" x1="100.4" y1="118.069" x2="170.152" y2="3.422"/>
	</g>
	<g>
		<defs>
			<rect id="SVGID_3_" x="2.168" y="2.168" width="550.664" height="195.551"/>
		</defs>
		<clipPath id="SVGID_4_">
			<use xlink:href="#SVGID_3_"  overflow="visible"/>
		</clipPath>
		
			<path clip-path="url(#SVGID_4_)" fill="none" stroke="#000000" stroke-width="1.7344" stroke-linejoin="round" stroke-miterlimit="10" d="
			M35.83,188.83h516.569 M35.83,188.83V3.75 M35.83,188.83h-5.856"/>
	</g>
	<path d="M25.603,189.873c0,0.84-0.09,1.568-0.271,2.186c-0.181,0.616-0.428,1.127-0.742,1.53c-0.314,0.404-0.685,0.705-1.114,0.901
		s-0.888,0.295-1.375,0.295c-0.492,0-0.95-0.099-1.372-0.295c-0.422-0.196-0.79-0.497-1.104-0.901
		c-0.314-0.403-0.56-0.914-0.739-1.53c-0.178-0.617-0.268-1.346-0.268-2.186c0-0.845,0.089-1.576,0.268-2.195
		c0.179-0.618,0.425-1.13,0.739-1.534s0.682-0.705,1.104-0.901c0.422-0.196,0.88-0.295,1.372-0.295c0.488,0,0.946,0.099,1.375,0.295
		s0.8,0.497,1.114,0.901s0.562,0.916,0.742,1.534C25.512,188.297,25.603,189.028,25.603,189.873L25.603,189.873z M24.362,189.873
		c0-0.736-0.062-1.354-0.186-1.853c-0.125-0.499-0.29-0.901-0.498-1.206c-0.208-0.305-0.448-0.523-0.722-0.657
		c-0.273-0.134-0.559-0.2-0.857-0.2c-0.293,0-0.577,0.066-0.85,0.2c-0.273,0.134-0.513,0.353-0.718,0.657s-0.37,0.707-0.495,1.206
		c-0.124,0.499-0.186,1.116-0.186,1.853c0,0.731,0.062,1.348,0.186,1.847c0.125,0.499,0.289,0.9,0.495,1.206
		c0.206,0.305,0.445,0.522,0.718,0.653c0.273,0.131,0.557,0.196,0.85,0.196c0.298,0,0.584-0.065,0.857-0.196
		c0.273-0.131,0.514-0.349,0.722-0.653c0.208-0.306,0.374-0.707,0.498-1.206C24.3,191.221,24.362,190.604,24.362,189.873
		L24.362,189.873z"/>
	
		<line fill="none" stroke="#000000" stroke-width="1.7344" stroke-linejoin="round" stroke-miterlimit="10" x1="35.83" y1="117.646" x2="29.974" y2="117.646"/>
	<path d="M16.978,114.469c0,0.171-0.053,0.312-0.159,0.42c-0.106,0.108-0.288,0.162-0.545,0.162h-3.021l-0.447,2.527
		c0.501-0.108,0.964-0.163,1.389-0.163c0.506,0,0.95,0.075,1.331,0.225c0.382,0.148,0.703,0.353,0.962,0.612
		s0.456,0.567,0.589,0.922s0.2,0.739,0.2,1.155c0,0.51-0.09,0.971-0.271,1.382s-0.426,0.764-0.735,1.057
		c-0.31,0.294-0.675,0.52-1.098,0.678s-0.877,0.237-1.365,0.237c-0.285,0-0.557-0.028-0.816-0.085s-0.501-0.132-0.725-0.227
		c-0.224-0.095-0.432-0.202-0.624-0.322c-0.192-0.119-0.362-0.247-0.511-0.383l0.366-0.508c0.081-0.117,0.188-0.176,0.318-0.176
		c0.086,0,0.187,0.034,0.301,0.104c0.115,0.07,0.253,0.146,0.414,0.23c0.16,0.084,0.349,0.16,0.565,0.23s0.477,0.104,0.779,0.104
		c0.334,0,0.636-0.054,0.904-0.162c0.269-0.108,0.499-0.263,0.691-0.461c0.192-0.198,0.338-0.438,0.44-0.715
		c0.102-0.277,0.153-0.588,0.153-0.932c0-0.303-0.043-0.574-0.129-0.816c-0.086-0.241-0.218-0.447-0.396-0.616
		c-0.178-0.169-0.399-0.302-0.664-0.396c-0.264-0.095-0.572-0.143-0.924-0.143c-0.244,0-0.496,0.021-0.755,0.062
		c-0.26,0.041-0.527,0.106-0.803,0.196l-0.752-0.224l0.779-4.505h4.56V114.469L16.978,114.469z M25.587,118.764
		c0,0.84-0.09,1.568-0.271,2.186c-0.181,0.616-0.428,1.127-0.742,1.53c-0.314,0.404-0.686,0.705-1.115,0.901
		c-0.429,0.196-0.887,0.295-1.375,0.295c-0.492,0-0.95-0.099-1.372-0.295s-0.791-0.497-1.104-0.901
		c-0.313-0.403-0.56-0.914-0.738-1.53c-0.178-0.617-0.268-1.346-0.268-2.186c0-0.845,0.089-1.576,0.268-2.195
		c0.178-0.618,0.425-1.13,0.738-1.534c0.314-0.404,0.682-0.705,1.104-0.901s0.88-0.295,1.372-0.295c0.488,0,0.946,0.099,1.375,0.295
		c0.429,0.196,0.801,0.497,1.115,0.901s0.561,0.916,0.742,1.534C25.497,117.188,25.587,117.919,25.587,118.764L25.587,118.764z
		 M24.348,118.764c0-0.736-0.062-1.354-0.187-1.853c-0.124-0.499-0.29-0.901-0.498-1.206c-0.208-0.305-0.448-0.523-0.722-0.657
		s-0.559-0.2-0.857-0.2c-0.294,0-0.577,0.066-0.851,0.2c-0.273,0.134-0.512,0.353-0.718,0.657s-0.371,0.707-0.495,1.206
		c-0.125,0.499-0.187,1.116-0.187,1.853c0,0.731,0.062,1.348,0.187,1.847c0.124,0.499,0.289,0.9,0.495,1.206
		c0.206,0.305,0.445,0.522,0.718,0.653c0.273,0.131,0.557,0.196,0.851,0.196c0.298,0,0.583-0.065,0.857-0.196
		s0.514-0.349,0.722-0.653c0.208-0.306,0.374-0.707,0.498-1.206C24.286,120.111,24.348,119.495,24.348,118.764L24.348,118.764z"/>
	
		<line fill="none" stroke="#000000" stroke-width="1.7344" stroke-linejoin="round" stroke-miterlimit="10" x1="35.83" y1="46.461" x2="29.974" y2="46.461"/>
	<path d="M4.532,51.55h2.066v-6.564c0-0.199,0.007-0.397,0.021-0.596l-1.721,1.47c-0.045,0.037-0.089,0.062-0.132,0.078
		c-0.043,0.016-0.084,0.024-0.125,0.024c-0.067,0-0.128-0.015-0.183-0.044c-0.054-0.029-0.095-0.064-0.122-0.105l-0.379-0.515
		l2.866-2.486h0.976v8.739h1.897v0.915H4.532V51.55L4.532,51.55z M17.783,47.654c0,0.84-0.09,1.568-0.271,2.185
		s-0.428,1.127-0.742,1.531c-0.314,0.404-0.686,0.705-1.115,0.901c-0.429,0.196-0.887,0.295-1.375,0.295
		c-0.492,0-0.95-0.099-1.372-0.295s-0.791-0.497-1.104-0.901c-0.313-0.404-0.56-0.915-0.738-1.531s-0.268-1.345-0.268-2.185
		c0-0.844,0.089-1.576,0.268-2.195c0.178-0.619,0.425-1.13,0.738-1.535c0.314-0.404,0.682-0.704,1.104-0.901
		c0.422-0.196,0.88-0.294,1.372-0.294c0.488,0,0.946,0.098,1.375,0.294c0.429,0.197,0.801,0.497,1.115,0.901
		s0.561,0.916,0.742,1.535C17.692,46.078,17.783,46.81,17.783,47.654L17.783,47.654z M16.543,47.654
		c0-0.736-0.062-1.354-0.187-1.853c-0.124-0.499-0.29-0.901-0.498-1.206c-0.208-0.305-0.448-0.524-0.722-0.657s-0.559-0.2-0.857-0.2
		c-0.294,0-0.577,0.066-0.851,0.2c-0.273,0.133-0.512,0.352-0.718,0.657c-0.206,0.305-0.371,0.707-0.495,1.206
		c-0.125,0.499-0.187,1.117-0.187,1.853c0,0.732,0.062,1.348,0.187,1.847c0.124,0.499,0.289,0.901,0.495,1.206
		s0.445,0.523,0.718,0.654c0.273,0.131,0.557,0.196,0.851,0.196c0.298,0,0.583-0.065,0.857-0.196s0.514-0.349,0.722-0.654
		c0.208-0.305,0.374-0.707,0.498-1.206C16.481,49.002,16.543,48.386,16.543,47.654L16.543,47.654z M25.573,47.654
		c0,0.84-0.09,1.568-0.271,2.185s-0.428,1.127-0.742,1.531c-0.314,0.404-0.685,0.705-1.114,0.901s-0.888,0.295-1.375,0.295
		c-0.492,0-0.95-0.099-1.372-0.295c-0.422-0.196-0.791-0.497-1.104-0.901c-0.314-0.404-0.56-0.915-0.738-1.531
		c-0.179-0.617-0.268-1.345-0.268-2.185c0-0.844,0.089-1.576,0.268-2.195c0.178-0.619,0.424-1.13,0.738-1.535
		s0.682-0.704,1.104-0.901c0.422-0.196,0.879-0.294,1.372-0.294c0.488,0,0.946,0.098,1.375,0.294c0.429,0.197,0.8,0.497,1.114,0.901
		s0.562,0.916,0.742,1.535C25.482,46.078,25.573,46.81,25.573,47.654L25.573,47.654z M24.333,47.654
		c0-0.736-0.063-1.354-0.187-1.853s-0.29-0.901-0.498-1.206c-0.208-0.305-0.448-0.524-0.722-0.657c-0.273-0.133-0.559-0.2-0.857-0.2
		c-0.293,0-0.577,0.066-0.85,0.2s-0.513,0.352-0.718,0.657c-0.206,0.305-0.37,0.707-0.495,1.206
		c-0.124,0.499-0.186,1.117-0.186,1.853c0,0.732,0.062,1.348,0.186,1.847c0.125,0.499,0.289,0.901,0.495,1.206
		s0.445,0.523,0.718,0.654s0.557,0.196,0.85,0.196c0.298,0,0.584-0.065,0.857-0.196c0.273-0.131,0.514-0.349,0.722-0.654
		c0.208-0.305,0.374-0.707,0.498-1.206S24.333,48.386,24.333,47.654L24.333,47.654z"/>
	<path d="M49.85,17.344h-1.01c-0.113,0-0.206-0.029-0.277-0.088c-0.072-0.059-0.126-0.133-0.163-0.224l-0.901-2.324h-4.322
		l-0.901,2.324c-0.032,0.081-0.085,0.153-0.159,0.217c-0.075,0.063-0.168,0.095-0.281,0.095h-1.009l3.848-9.634h1.328L49.85,17.344
		L49.85,17.344z M43.542,13.767h3.591l-1.511-3.916c-0.1-0.244-0.194-0.546-0.285-0.908c-0.05,0.185-0.099,0.354-0.146,0.508
		c-0.047,0.153-0.094,0.289-0.139,0.406L43.542,13.767L43.542,13.767z M50.873,17.344v-6.809h0.711c0.172,0,0.28,0.083,0.325,0.25
		l0.088,0.738c0.298-0.325,0.63-0.589,0.996-0.792c0.366-0.203,0.789-0.305,1.267-0.305c0.371,0,0.698,0.062,0.982,0.186
		c0.285,0.125,0.522,0.299,0.711,0.525c0.19,0.226,0.334,0.498,0.434,0.816c0.099,0.318,0.149,0.67,0.149,1.054v4.336h-1.192v-4.336
		c0-0.515-0.119-0.915-0.355-1.199c-0.237-0.285-0.598-0.427-1.081-0.427c-0.352,0-0.682,0.084-0.989,0.254
		c-0.307,0.169-0.592,0.401-0.854,0.694v5.014H50.873L50.873,17.344z M60.63,10.42c0.298,0,0.576,0.033,0.833,0.098
		c0.257,0.065,0.49,0.162,0.697,0.288h1.85v0.44c0,0.149-0.095,0.244-0.285,0.285l-0.772,0.108c0.153,0.289,0.23,0.614,0.23,0.976
		c0,0.33-0.063,0.63-0.19,0.901s-0.304,0.502-0.532,0.694c-0.229,0.192-0.498,0.34-0.81,0.444C61.342,14.758,61,14.81,60.63,14.81
		c-0.316,0-0.617-0.039-0.901-0.115c-0.145,0.09-0.253,0.188-0.325,0.292c-0.073,0.104-0.108,0.203-0.108,0.298
		c0,0.163,0.064,0.286,0.193,0.369c0.128,0.083,0.3,0.144,0.515,0.18c0.214,0.036,0.458,0.059,0.731,0.068
		c0.273,0.009,0.552,0.023,0.837,0.044c0.284,0.02,0.563,0.054,0.836,0.102s0.519,0.127,0.735,0.241
		c0.217,0.113,0.389,0.268,0.518,0.464c0.128,0.196,0.193,0.453,0.193,0.769c0,0.289-0.072,0.57-0.217,0.843
		s-0.354,0.517-0.626,0.732c-0.273,0.214-0.607,0.385-1.002,0.511c-0.396,0.126-0.841,0.19-1.338,0.19
		c-0.497,0-0.933-0.05-1.308-0.149c-0.375-0.1-0.686-0.232-0.931-0.396c-0.247-0.165-0.431-0.356-0.553-0.573
		c-0.122-0.217-0.183-0.445-0.183-0.684c0-0.334,0.106-0.619,0.318-0.854s0.503-0.422,0.874-0.563
		c-0.189-0.09-0.342-0.21-0.457-0.359c-0.116-0.149-0.173-0.35-0.173-0.603c0-0.1,0.019-0.201,0.054-0.305
		c0.037-0.104,0.092-0.208,0.166-0.312c0.075-0.104,0.165-0.203,0.271-0.298c0.106-0.095,0.232-0.179,0.376-0.251
		c-0.338-0.185-0.603-0.434-0.792-0.745c-0.189-0.312-0.284-0.675-0.284-1.091c0-0.334,0.064-0.637,0.193-0.908
		c0.128-0.271,0.307-0.501,0.535-0.691c0.228-0.19,0.5-0.336,0.816-0.44C59.91,10.472,60.255,10.42,60.63,10.42L60.63,10.42z
		 M62.757,17.716c0-0.171-0.047-0.309-0.142-0.413c-0.095-0.104-0.224-0.184-0.386-0.241s-0.349-0.097-0.559-0.122
		c-0.21-0.024-0.431-0.043-0.664-0.054c-0.232-0.011-0.47-0.023-0.711-0.037s-0.473-0.039-0.694-0.075
		c-0.253,0.118-0.459,0.265-0.62,0.44c-0.161,0.176-0.24,0.384-0.24,0.624c0,0.153,0.04,0.297,0.118,0.43
		c0.079,0.133,0.199,0.247,0.359,0.342c0.16,0.095,0.364,0.17,0.609,0.227c0.247,0.057,0.534,0.085,0.864,0.085
		c0.32,0,0.61-0.029,0.867-0.088c0.257-0.059,0.474-0.141,0.65-0.247s0.312-0.234,0.406-0.383
		C62.71,18.055,62.757,17.893,62.757,17.716L62.757,17.716z M60.63,14.017c0.244,0,0.458-0.034,0.644-0.102
		c0.185-0.068,0.341-0.162,0.467-0.281s0.22-0.264,0.281-0.434s0.092-0.353,0.092-0.552c0-0.42-0.127-0.753-0.379-1
		c-0.253-0.246-0.621-0.369-1.104-0.369c-0.479,0-0.845,0.123-1.098,0.369s-0.379,0.579-0.379,1c0,0.199,0.033,0.382,0.098,0.552
		s0.161,0.314,0.285,0.434s0.279,0.213,0.464,0.281C60.186,13.983,60.396,14.017,60.63,14.017L60.63,14.017z M69.099,11.66
		c-0.054,0.099-0.137,0.149-0.25,0.149c-0.063,0-0.137-0.025-0.223-0.074c-0.086-0.05-0.191-0.105-0.315-0.166
		c-0.124-0.061-0.271-0.118-0.44-0.169c-0.169-0.052-0.372-0.078-0.606-0.078c-0.199,0-0.379,0.026-0.542,0.078
		c-0.163,0.052-0.301,0.123-0.414,0.213s-0.2,0.194-0.261,0.312c-0.061,0.117-0.092,0.246-0.092,0.386
		c0,0.176,0.051,0.322,0.153,0.437s0.235,0.216,0.4,0.301c0.165,0.086,0.352,0.162,0.562,0.227s0.426,0.134,0.647,0.207
		s0.438,0.154,0.65,0.244s0.401,0.203,0.566,0.338c0.165,0.136,0.298,0.301,0.4,0.495c0.102,0.194,0.152,0.427,0.152,0.698
		c0,0.316-0.057,0.608-0.17,0.874c-0.113,0.267-0.279,0.497-0.498,0.691c-0.219,0.194-0.488,0.348-0.806,0.46
		c-0.319,0.113-0.686,0.169-1.101,0.169c-0.475,0-0.905-0.078-1.291-0.234s-0.712-0.353-0.979-0.593l0.278-0.46
		c0.036-0.054,0.079-0.097,0.129-0.129c0.049-0.032,0.115-0.047,0.196-0.047c0.081,0,0.166,0.03,0.254,0.091
		c0.088,0.061,0.197,0.13,0.325,0.207c0.129,0.077,0.283,0.146,0.464,0.21c0.181,0.063,0.409,0.095,0.684,0.095
		c0.23,0,0.434-0.031,0.609-0.092c0.177-0.061,0.322-0.143,0.437-0.247c0.116-0.104,0.201-0.223,0.258-0.355
		c0.056-0.133,0.084-0.277,0.084-0.43c0-0.186-0.051-0.34-0.152-0.464c-0.102-0.124-0.235-0.23-0.399-0.318
		c-0.165-0.088-0.354-0.164-0.566-0.227c-0.212-0.063-0.429-0.131-0.65-0.203c-0.221-0.072-0.439-0.155-0.654-0.248
		c-0.214-0.092-0.404-0.208-0.569-0.345c-0.165-0.138-0.298-0.31-0.4-0.515c-0.102-0.205-0.153-0.453-0.153-0.742
		c0-0.262,0.054-0.513,0.163-0.752s0.266-0.449,0.471-0.63s0.458-0.325,0.759-0.434s0.643-0.163,1.027-0.163
		c0.451,0,0.854,0.071,1.209,0.213c0.354,0.142,0.663,0.335,0.924,0.579L69.099,11.66L69.099,11.66z M73.092,17.452
		c-0.537,0-0.951-0.15-1.24-0.451s-0.434-0.733-0.434-1.297v-4.167h-0.82c-0.072,0-0.132-0.021-0.18-0.064
		c-0.047-0.043-0.071-0.109-0.071-0.2v-0.474l1.111-0.143l0.277-2.107c0.009-0.063,0.039-0.116,0.088-0.159
		c0.049-0.043,0.113-0.064,0.189-0.064h0.603v2.344h1.951v0.867h-1.951v4.085c0,0.289,0.069,0.502,0.207,0.64
		s0.317,0.207,0.539,0.207c0.126,0,0.236-0.017,0.329-0.051c0.093-0.034,0.172-0.071,0.237-0.112s0.122-0.078,0.169-0.112
		c0.047-0.034,0.089-0.051,0.125-0.051c0.063,0,0.12,0.039,0.169,0.115l0.346,0.576c-0.203,0.19-0.451,0.34-0.742,0.451
		C73.705,17.397,73.403,17.452,73.092,17.452L73.092,17.452z M75.73,12.805h3.32v1.016h-3.32V12.805L75.73,12.805z M80.703,17.344
		v-6.809h0.711c0.172,0,0.28,0.083,0.325,0.25l0.088,0.738c0.298-0.325,0.63-0.589,0.996-0.792c0.366-0.203,0.789-0.305,1.267-0.305
		c0.37,0,0.698,0.062,0.982,0.186c0.285,0.125,0.522,0.299,0.711,0.525c0.19,0.226,0.334,0.498,0.434,0.816s0.149,0.67,0.149,1.054
		v4.336h-1.192v-4.336c0-0.515-0.118-0.915-0.355-1.199s-0.598-0.427-1.081-0.427c-0.353,0-0.682,0.084-0.989,0.254
		s-0.592,0.401-0.854,0.694v5.014H80.703L80.703,17.344z M89.498,10.535v6.809h-1.192v-6.809H89.498L89.498,10.535z M89.769,8.401
		c0,0.113-0.023,0.22-0.071,0.322s-0.111,0.192-0.19,0.271c-0.079,0.079-0.169,0.141-0.271,0.187
		c-0.102,0.045-0.211,0.067-0.329,0.067c-0.117,0-0.226-0.022-0.325-0.067c-0.099-0.045-0.188-0.107-0.268-0.187
		c-0.079-0.079-0.141-0.169-0.186-0.271c-0.045-0.102-0.068-0.209-0.068-0.322c0-0.118,0.022-0.229,0.068-0.335
		c0.045-0.106,0.107-0.197,0.186-0.274c0.079-0.077,0.168-0.138,0.268-0.183c0.1-0.045,0.208-0.068,0.325-0.068
		c0.118,0,0.227,0.022,0.329,0.068c0.102,0.045,0.192,0.106,0.271,0.183c0.079,0.077,0.143,0.168,0.19,0.274
		C89.745,8.172,89.769,8.283,89.769,8.401L89.769,8.401z M90.748,10.535h0.982c0.095,0,0.173,0.024,0.234,0.074
		s0.105,0.108,0.132,0.176l1.728,4.383c0.063,0.158,0.113,0.318,0.149,0.481s0.07,0.321,0.102,0.474
		c0.036-0.153,0.075-0.312,0.115-0.474s0.092-0.323,0.156-0.481l1.741-4.383c0.027-0.072,0.071-0.132,0.132-0.18
		c0.061-0.047,0.137-0.071,0.227-0.071h0.935l-2.778,6.809h-1.077L90.748,10.535L90.748,10.535z M101.181,10.427
		c0.406,0,0.782,0.069,1.128,0.207s0.644,0.335,0.895,0.593s0.446,0.575,0.586,0.952c0.14,0.377,0.21,0.81,0.21,1.297
		c0,0.186-0.02,0.31-0.061,0.373c-0.041,0.063-0.115,0.095-0.224,0.095h-4.532c0.009,0.429,0.068,0.803,0.176,1.121
		s0.256,0.584,0.443,0.796c0.188,0.212,0.411,0.372,0.671,0.478c0.26,0.106,0.55,0.159,0.871,0.159c0.303,0,0.563-0.035,0.779-0.105
		c0.217-0.07,0.404-0.145,0.562-0.223c0.158-0.079,0.289-0.154,0.393-0.224c0.104-0.07,0.194-0.105,0.271-0.105
		c0.1,0,0.176,0.038,0.23,0.115l0.332,0.434c-0.145,0.181-0.321,0.336-0.529,0.467c-0.208,0.131-0.429,0.239-0.664,0.325
		c-0.235,0.086-0.478,0.15-0.729,0.193s-0.498,0.064-0.742,0.064c-0.475,0-0.909-0.08-1.304-0.24
		c-0.395-0.161-0.737-0.393-1.026-0.698c-0.29-0.305-0.515-0.684-0.678-1.138c-0.163-0.454-0.244-0.975-0.244-1.562
		c0-0.474,0.073-0.917,0.22-1.328c0.146-0.411,0.357-0.768,0.63-1.07c0.273-0.303,0.607-0.541,1.002-0.715
		C100.245,10.514,100.688,10.427,101.181,10.427L101.181,10.427z M101.208,11.307c-0.578,0-1.033,0.167-1.365,0.501
		c-0.332,0.334-0.539,0.797-0.62,1.389h3.706c0-0.28-0.039-0.535-0.115-0.765c-0.077-0.23-0.19-0.429-0.339-0.596
		c-0.149-0.167-0.33-0.297-0.542-0.39C101.721,11.354,101.479,11.307,101.208,11.307L101.208,11.307z M110.522,17.344h-0.528
		c-0.118,0-0.212-0.018-0.285-0.054c-0.072-0.036-0.12-0.113-0.142-0.23l-0.135-0.63c-0.181,0.163-0.356,0.307-0.525,0.434
		c-0.169,0.126-0.348,0.234-0.536,0.322c-0.188,0.088-0.387,0.155-0.599,0.2c-0.212,0.045-0.45,0.068-0.711,0.068
		c-0.267,0-0.515-0.037-0.746-0.112c-0.23-0.075-0.43-0.185-0.6-0.332c-0.169-0.146-0.305-0.334-0.406-0.562
		c-0.102-0.229-0.153-0.496-0.153-0.803c0-0.266,0.075-0.525,0.224-0.775c0.149-0.251,0.388-0.472,0.718-0.664
		c0.33-0.192,0.761-0.349,1.294-0.471c0.533-0.122,1.183-0.192,1.951-0.21v-0.535c0-0.528-0.113-0.928-0.339-1.199
		c-0.226-0.271-0.56-0.406-1.002-0.406c-0.293,0-0.54,0.037-0.738,0.112c-0.199,0.075-0.37,0.158-0.515,0.25
		c-0.145,0.093-0.27,0.175-0.376,0.248c-0.106,0.072-0.211,0.108-0.315,0.108c-0.081,0-0.151-0.021-0.21-0.064
		s-0.106-0.094-0.142-0.152l-0.217-0.386c0.375-0.361,0.78-0.632,1.216-0.813s0.918-0.271,1.447-0.271
		c0.379,0,0.717,0.063,1.013,0.189s0.544,0.302,0.745,0.525c0.201,0.224,0.354,0.494,0.458,0.813
		c0.104,0.318,0.155,0.667,0.155,1.046V17.344L110.522,17.344z M107.419,16.612c0.208,0,0.4-0.021,0.576-0.064
		c0.176-0.043,0.341-0.104,0.495-0.183c0.154-0.079,0.302-0.174,0.444-0.285c0.142-0.11,0.279-0.238,0.41-0.383v-1.416
		c-0.551,0.018-1.019,0.061-1.403,0.129c-0.384,0.068-0.697,0.158-0.938,0.271c-0.242,0.113-0.418,0.245-0.529,0.396
		c-0.11,0.151-0.166,0.322-0.166,0.511c0,0.181,0.029,0.335,0.088,0.464c0.059,0.128,0.137,0.235,0.234,0.318
		s0.213,0.145,0.349,0.183C107.115,16.593,107.261,16.612,107.419,16.612L107.419,16.612z M113.368,10.535v4.343
		c0,0.515,0.119,0.913,0.356,1.195s0.595,0.424,1.074,0.424c0.348,0,0.676-0.083,0.986-0.248c0.309-0.165,0.595-0.396,0.857-0.694
		v-5.02h1.192v6.809h-0.711c-0.171,0-0.278-0.083-0.318-0.25l-0.095-0.732c-0.298,0.33-0.631,0.594-0.999,0.793
		c-0.368,0.198-0.79,0.298-1.264,0.298c-0.371,0-0.698-0.062-0.982-0.187c-0.285-0.124-0.523-0.298-0.715-0.521
		s-0.337-0.495-0.434-0.813c-0.097-0.318-0.146-0.669-0.146-1.053v-4.343H113.368L113.368,10.535z"/>
	<path d="M516.332,163.37v1.098h-3.108v8.536h-1.306v-8.536h-3.126v-1.098H516.332L516.332,163.37z M518.838,166.194v6.81h-1.192
		v-6.81H518.838L518.838,166.194z M519.107,164.061c0,0.113-0.021,0.221-0.069,0.322s-0.113,0.191-0.191,0.271
		s-0.169,0.142-0.269,0.187c-0.104,0.046-0.213,0.068-0.33,0.068c-0.116,0-0.225-0.022-0.324-0.068
		c-0.101-0.045-0.191-0.107-0.27-0.187s-0.139-0.169-0.187-0.271c-0.043-0.102-0.064-0.209-0.064-0.322
		c0-0.117,0.021-0.229,0.064-0.335c0.048-0.106,0.108-0.198,0.187-0.274c0.078-0.077,0.169-0.138,0.27-0.184
		c0.1-0.045,0.208-0.067,0.324-0.067c0.117,0,0.226,0.022,0.33,0.067c0.1,0.046,0.19,0.106,0.269,0.184
		c0.078,0.076,0.144,0.168,0.191,0.274S519.107,163.943,519.107,164.061L519.107,164.061z M525.736,173.004
		c-0.169,0-0.277-0.084-0.316-0.251l-0.108-0.826c-0.295,0.356-0.628,0.641-1.001,0.854c-0.378,0.212-0.807,0.318-1.288,0.318
		c-0.391,0-0.741-0.075-1.063-0.227c-0.316-0.151-0.59-0.373-0.811-0.664c-0.226-0.292-0.399-0.654-0.521-1.088
		s-0.182-0.933-0.182-1.497c0-0.502,0.069-0.969,0.203-1.402c0.135-0.434,0.33-0.809,0.581-1.125
		c0.256-0.316,0.563-0.565,0.928-0.748c0.36-0.184,0.772-0.274,1.236-0.274c0.416,0,0.771,0.07,1.066,0.213s0.56,0.34,0.794,0.593
		v-3.773h1.192v9.898H525.736L525.736,173.004z M523.422,172.13c0.39,0,0.728-0.09,1.022-0.268c0.295-0.179,0.563-0.433,0.812-0.763
		v-3.292c-0.222-0.294-0.46-0.5-0.725-0.62c-0.26-0.12-0.551-0.18-0.867-0.18c-0.638,0-1.123,0.228-1.466,0.681
		c-0.342,0.454-0.511,1.1-0.511,1.935c0,0.442,0.038,0.822,0.112,1.139c0.078,0.315,0.19,0.575,0.338,0.779
		c0.147,0.202,0.325,0.352,0.542,0.446C522.893,172.082,523.14,172.13,523.422,172.13L523.422,172.13z"/>
	
		<line fill="none" stroke="#000000" stroke-width="1.7344" stroke-linejoin="round" stroke-miterlimit="10" x1="91.922" y1="70.676" x2="160.863" y2="70.676"/>
	<path d="M178.627,74.578h-1.01c-0.113,0-0.206-0.029-0.277-0.088c-0.072-0.059-0.126-0.133-0.163-0.223l-0.901-2.324h-4.322
		l-0.901,2.324c-0.032,0.081-0.085,0.153-0.16,0.217c-0.075,0.063-0.168,0.095-0.281,0.095h-1.01l3.849-9.634h1.328L178.627,74.578
		L178.627,74.578z M172.319,71.001h3.591l-1.511-3.916c-0.1-0.244-0.194-0.546-0.285-0.908c-0.05,0.185-0.099,0.354-0.146,0.508
		c-0.047,0.154-0.094,0.289-0.139,0.407L172.319,71.001L172.319,71.001z M179.921,74.578v-5.786l-0.759-0.088
		c-0.09-0.022-0.166-0.058-0.227-0.105c-0.061-0.047-0.092-0.116-0.092-0.206v-0.488h1.077v-0.657c0-0.393,0.054-0.739,0.163-1.04
		c0.108-0.3,0.265-0.555,0.468-0.766c0.203-0.21,0.448-0.368,0.735-0.474c0.287-0.106,0.611-0.159,0.972-0.159
		c0.303,0,0.585,0.043,0.847,0.128l-0.027,0.604c-0.005,0.09-0.043,0.144-0.116,0.163c-0.072,0.018-0.174,0.027-0.305,0.027h-0.21
		c-0.203,0-0.39,0.026-0.559,0.078c-0.169,0.052-0.313,0.139-0.434,0.261c-0.12,0.122-0.212,0.281-0.277,0.478
		c-0.066,0.196-0.099,0.441-0.099,0.735v0.624h1.972v0.867h-1.931v5.806H179.921L179.921,74.578z M184.217,74.578V64.68h1.199v4.072
		c0.285-0.325,0.61-0.588,0.976-0.789c0.366-0.201,0.784-0.302,1.253-0.302c0.393,0,0.749,0.075,1.067,0.224
		c0.318,0.149,0.589,0.37,0.813,0.664c0.224,0.293,0.396,0.656,0.519,1.087c0.122,0.431,0.183,0.929,0.183,1.494
		c0,0.501-0.067,0.969-0.203,1.403c-0.135,0.434-0.33,0.808-0.583,1.125c-0.253,0.316-0.562,0.564-0.928,0.745
		c-0.366,0.181-0.777,0.271-1.233,0.271c-0.438,0-0.811-0.086-1.118-0.257c-0.307-0.172-0.576-0.409-0.806-0.711l-0.062,0.617
		c-0.031,0.171-0.133,0.257-0.305,0.257H184.217L184.217,74.578z M187.252,68.616c-0.389,0-0.729,0.089-1.023,0.268
		c-0.293,0.178-0.564,0.432-0.813,0.762v3.292c0.217,0.293,0.457,0.501,0.718,0.624c0.262,0.122,0.553,0.183,0.874,0.183
		c0.637,0,1.126-0.226,1.467-0.678c0.341-0.451,0.512-1.097,0.512-1.938c0-0.442-0.04-0.823-0.119-1.141
		c-0.079-0.319-0.191-0.58-0.338-0.783c-0.146-0.204-0.328-0.353-0.542-0.447C187.772,68.664,187.527,68.616,187.252,68.616
		L187.252,68.616z M191.684,74.578v-6.809h0.684c0.131,0,0.222,0.025,0.271,0.075c0.05,0.05,0.083,0.136,0.102,0.257l0.074,1.057
		c0.235-0.474,0.524-0.845,0.867-1.111s0.745-0.4,1.206-0.4c0.189,0,0.36,0.022,0.512,0.065s0.292,0.103,0.423,0.179l-0.155,0.894
		c-0.032,0.113-0.102,0.17-0.21,0.17c-0.063,0-0.159-0.022-0.288-0.065c-0.128-0.043-0.31-0.064-0.545-0.064
		c-0.416,0-0.764,0.121-1.043,0.362c-0.28,0.242-0.515,0.593-0.705,1.054v4.336H191.684L191.684,74.578z M199.088,76.59
		c-0.036,0.086-0.084,0.156-0.146,0.21s-0.155,0.081-0.281,0.081h-0.887l1.247-2.703l-2.812-6.409h1.036
		c0.1,0,0.179,0.026,0.237,0.078c0.059,0.052,0.102,0.109,0.129,0.173l1.822,4.288c0.041,0.1,0.075,0.198,0.105,0.295
		c0.029,0.097,0.055,0.198,0.078,0.301c0.031-0.104,0.063-0.204,0.095-0.301s0.068-0.198,0.108-0.301l1.761-4.282
		c0.027-0.072,0.073-0.132,0.139-0.18c0.065-0.047,0.137-0.071,0.214-0.071h0.955L199.088,76.59L199.088,76.59z M208.763,74.578
		c-0.172,0-0.278-0.083-0.319-0.251l-0.108-0.827c-0.293,0.357-0.627,0.642-1.002,0.854s-0.804,0.318-1.287,0.318
		c-0.389,0-0.742-0.076-1.06-0.227c-0.319-0.151-0.59-0.373-0.813-0.664c-0.224-0.292-0.396-0.654-0.519-1.087
		s-0.183-0.933-0.183-1.498c0-0.501,0.067-0.969,0.203-1.402c0.136-0.434,0.33-0.809,0.583-1.125
		c0.253-0.316,0.561-0.566,0.925-0.749c0.363-0.183,0.776-0.274,1.236-0.274c0.416,0,0.771,0.071,1.067,0.213
		c0.296,0.143,0.562,0.34,0.796,0.593V64.68h1.192v9.898H208.763L208.763,74.578z M206.446,73.704c0.388,0,0.729-0.089,1.022-0.268
		c0.294-0.179,0.565-0.433,0.813-0.762v-3.293c-0.221-0.293-0.462-0.5-0.725-0.62c-0.262-0.12-0.551-0.18-0.867-0.18
		c-0.637,0-1.126,0.227-1.466,0.681c-0.341,0.454-0.512,1.099-0.512,1.934c0,0.443,0.038,0.822,0.115,1.138
		c0.077,0.316,0.188,0.576,0.335,0.779c0.146,0.203,0.328,0.352,0.542,0.447C205.919,73.657,206.166,73.704,206.446,73.704
		L206.446,73.704z M214.178,67.661c0.406,0,0.782,0.069,1.127,0.207c0.346,0.138,0.644,0.335,0.895,0.593
		c0.25,0.258,0.446,0.575,0.586,0.952s0.21,0.81,0.21,1.297c0,0.185-0.021,0.309-0.062,0.373c-0.041,0.063-0.115,0.095-0.224,0.095
		h-4.532c0.009,0.429,0.068,0.802,0.176,1.121c0.108,0.318,0.256,0.583,0.444,0.796c0.187,0.212,0.411,0.371,0.67,0.478
		c0.26,0.106,0.55,0.159,0.871,0.159c0.302,0,0.562-0.035,0.779-0.105c0.217-0.07,0.404-0.145,0.562-0.223
		c0.158-0.08,0.289-0.154,0.394-0.224c0.104-0.07,0.194-0.104,0.271-0.104c0.099,0,0.176,0.038,0.23,0.115l0.332,0.434
		c-0.145,0.181-0.321,0.336-0.528,0.468c-0.208,0.131-0.429,0.239-0.664,0.325c-0.235,0.085-0.478,0.15-0.729,0.193
		c-0.25,0.043-0.498,0.064-0.742,0.064c-0.474,0-0.909-0.081-1.304-0.24c-0.395-0.161-0.737-0.394-1.026-0.698
		s-0.515-0.684-0.678-1.138s-0.244-0.974-0.244-1.562c0-0.474,0.073-0.917,0.22-1.328c0.146-0.411,0.357-0.768,0.63-1.07
		c0.273-0.302,0.608-0.541,1.003-0.715C213.241,67.748,213.685,67.661,214.178,67.661L214.178,67.661z M214.205,68.542
		c-0.578,0-1.033,0.167-1.365,0.501c-0.332,0.334-0.539,0.797-0.62,1.389h3.706c0-0.28-0.039-0.535-0.115-0.766
		s-0.189-0.429-0.339-0.596c-0.149-0.167-0.33-0.297-0.542-0.39C214.717,68.587,214.476,68.542,214.205,68.542L214.205,68.542z
		 M219.847,64.68v9.898h-1.192V64.68H219.847L219.847,64.68z M225.853,68.894c-0.054,0.1-0.138,0.149-0.25,0.149
		c-0.063,0-0.138-0.025-0.224-0.075c-0.085-0.05-0.19-0.105-0.314-0.166c-0.125-0.061-0.271-0.118-0.44-0.169
		c-0.169-0.052-0.372-0.078-0.606-0.078c-0.199,0-0.379,0.026-0.542,0.078c-0.163,0.051-0.3,0.123-0.413,0.213
		c-0.113,0.09-0.2,0.194-0.261,0.312c-0.061,0.117-0.091,0.246-0.091,0.386c0,0.176,0.051,0.322,0.152,0.437
		c0.102,0.116,0.235,0.216,0.4,0.302c0.165,0.085,0.352,0.162,0.562,0.227c0.21,0.065,0.426,0.134,0.647,0.207
		c0.221,0.072,0.438,0.153,0.65,0.244c0.212,0.09,0.4,0.203,0.565,0.338c0.165,0.136,0.298,0.3,0.399,0.495
		c0.102,0.194,0.153,0.427,0.153,0.698c0,0.316-0.056,0.607-0.169,0.874c-0.113,0.267-0.279,0.497-0.498,0.691
		c-0.219,0.194-0.488,0.348-0.806,0.461s-0.685,0.169-1.101,0.169c-0.474,0-0.904-0.078-1.291-0.234
		c-0.386-0.155-0.712-0.353-0.979-0.592l0.278-0.46c0.036-0.054,0.079-0.097,0.128-0.129c0.05-0.032,0.116-0.047,0.197-0.047
		c0.082,0,0.166,0.03,0.254,0.091c0.088,0.061,0.197,0.13,0.325,0.207c0.129,0.077,0.284,0.147,0.464,0.21s0.409,0.095,0.684,0.095
		c0.23,0,0.434-0.03,0.61-0.091c0.176-0.061,0.322-0.143,0.437-0.247s0.201-0.223,0.257-0.355c0.057-0.134,0.085-0.277,0.085-0.431
		c0-0.185-0.051-0.339-0.153-0.464c-0.102-0.124-0.234-0.23-0.399-0.318s-0.354-0.164-0.566-0.227
		c-0.212-0.063-0.429-0.131-0.65-0.203c-0.221-0.072-0.439-0.155-0.654-0.248c-0.214-0.092-0.404-0.208-0.569-0.346
		c-0.165-0.137-0.298-0.309-0.4-0.515s-0.152-0.453-0.152-0.742c0-0.262,0.054-0.513,0.163-0.752c0.108-0.24,0.265-0.45,0.471-0.63
		s0.458-0.325,0.759-0.434c0.301-0.108,0.643-0.163,1.026-0.163c0.452,0,0.855,0.071,1.209,0.214
		c0.354,0.142,0.663,0.335,0.925,0.579L225.853,68.894L225.853,68.894z M230.482,67.661c0.406,0,0.782,0.069,1.128,0.207
		c0.345,0.138,0.644,0.335,0.895,0.593c0.25,0.258,0.445,0.575,0.585,0.952s0.21,0.81,0.21,1.297c0,0.185-0.021,0.309-0.061,0.373
		c-0.041,0.063-0.115,0.095-0.224,0.095h-4.533c0.009,0.429,0.068,0.802,0.177,1.121c0.108,0.318,0.256,0.583,0.443,0.796
		s0.411,0.371,0.671,0.478c0.26,0.106,0.55,0.159,0.871,0.159c0.303,0,0.563-0.035,0.779-0.105c0.217-0.07,0.404-0.145,0.562-0.223
		c0.158-0.08,0.289-0.154,0.393-0.224c0.104-0.07,0.194-0.104,0.271-0.104c0.099,0,0.176,0.038,0.23,0.115l0.333,0.434
		c-0.145,0.181-0.321,0.336-0.529,0.468c-0.208,0.131-0.429,0.239-0.664,0.325c-0.235,0.085-0.478,0.15-0.729,0.193
		s-0.498,0.064-0.742,0.064c-0.474,0-0.909-0.081-1.304-0.24c-0.395-0.161-0.737-0.394-1.026-0.698
		c-0.289-0.305-0.515-0.684-0.677-1.138s-0.244-0.974-0.244-1.562c0-0.474,0.074-0.917,0.221-1.328
		c0.146-0.411,0.356-0.768,0.63-1.07c0.273-0.302,0.607-0.541,1.002-0.715C229.546,67.748,229.99,67.661,230.482,67.661
		L230.482,67.661z M230.509,68.542c-0.578,0-1.033,0.167-1.365,0.501c-0.333,0.334-0.539,0.797-0.62,1.389h3.706
		c0-0.28-0.039-0.535-0.115-0.766s-0.189-0.429-0.338-0.596c-0.149-0.167-0.33-0.297-0.542-0.39S230.78,68.542,230.509,68.542
		L230.509,68.542z"/>
</g>
</svg>
