<?xml version="1.0" encoding="utf-8"?>
<!-- Generator: Adobe Illustrator 16.0.3, SVG Export Plug-In . SVG Version: 6.00 Build 0)  -->
<!DOCTYPE svg PUBLIC "-//W3C//DTD SVG 1.1//EN" "http://www.w3.org/Graphics/SVG/1.1/DTD/svg11.dtd">
<svg version="1.1" id="Layer_1" xmlns="http://www.w3.org/2000/svg" xmlns:xlink="http://www.w3.org/1999/xlink" x="0px" y="0px"
	 width="1000px" height="360.156px" viewBox="-222.5 -160.269 1000 360.156" enable-background="new -222.5 -160.269 1000 360.156"
	 xml:space="preserve">
<g>
	<polygon fill="#FFFFFF" points="-222.5,-160.269 777.5,-160.269 777.5,199.887 -222.5,199.887 	"/>
	<g>
		<g>
			<defs>
				<rect id="SVGID_1_" x="-161.067" y="-144.613" width="934.655" height="327.703"/>
			</defs>
			<clipPath id="SVGID_2_">
				<use xlink:href="#SVGID_1_"  overflow="visible"/>
			</clipPath>
			
				<polyline clip-path="url(#SVGID_2_)" fill="none" stroke="#3E578A" stroke-width="1.7344" stroke-linejoin="round" stroke-miterlimit="10" points="
				-157.942,179.965 -153.066,179.932 -148.82,179.759 -144.05,179.281 -139.246,178.398 -134.465,177.048 -130.031,175.335 
				-125.442,173.078 -120.697,170.215 -115.965,166.837 -111.096,162.832 -106.81,158.891 -101.984,154.013 -97.138,148.694 
				-92.469,143.211 -88.227,137.966 -83.184,131.445 -78.914,125.728 -73.945,118.894 -69.544,112.727 -64.719,105.875 
				-55.33,92.458 -50.926,86.199 -46.179,79.518 -41.245,72.689 -36.95,66.867 -32.312,60.728 -27.522,54.574 -22.835,48.768 
				-18.299,43.361 -13.264,37.624 -8.737,32.722 -3.907,27.766 0.471,23.534 5.257,19.191 9.76,15.382 14.469,11.696 19.07,8.384 
				23.889,5.227 28.529,2.486 33.275,-0.02 37.982,-2.201 42.305,-3.952 47.261,-5.657 51.696,-6.919 56.42,-7.996 60.946,-8.774 
				65.969,-9.358 70.319,-9.633 75.255,-9.696 79.754,-9.527 84.677,-9.115 88.923,-8.573 93.76,-7.751 98.431,-6.766 103.1,-5.601 
				107.752,-4.271 112.221,-2.844 117.052,-1.15 121.655,0.608 126.502,2.595 130.887,4.506 135.735,6.734 140.38,8.971 
				145.013,11.298 149.85,13.819 154.305,16.212 158.869,18.734 163.909,21.586 168.469,24.223 173.136,26.967 177.88,29.798 
				182.242,32.437 186.892,35.272 191.506,38.112 196.443,41.168 200.798,43.874 214.845,52.628 219.67,55.627 224.512,58.627 
				228.922,61.345 233.604,64.214 238.17,66.99 243.121,69.976 247.406,72.536 252.327,75.445 256.955,78.149 261.537,80.796 
				266.121,83.405 270.798,86.034 275.754,88.779 280.3,91.255 284.784,93.658 289.581,96.187 294.367,98.662 298.662,100.844 
				303.751,103.38 308.009,105.459 312.987,107.846 317.743,110.072 321.983,112.018 326.758,114.16 331.561,116.269 
				336.342,118.315 340.774,120.173 345.365,122.051 350.112,123.942 354.844,125.784 359.711,127.628 363.997,129.21 
				368.823,130.947 373.668,132.642 378.339,134.232 382.578,135.638 387.621,137.266 391.891,138.605 396.862,140.117 
				401.261,141.42 406.086,142.807 410.68,144.089 415.474,145.386 419.879,146.54 424.627,147.752 429.562,148.97 433.853,149.996 
				438.495,151.073 443.287,152.15 447.972,153.168 452.509,154.122 457.545,155.15 462.07,156.04 466.898,156.96 471.28,157.768 
				476.062,158.618 480.567,159.396 485.273,160.181 489.877,160.921 494.696,161.669 499.335,162.365 504.082,163.05 
				508.787,163.708 513.112,164.292 518.068,164.937 522.503,165.494 527.228,166.065 531.751,166.596 536.774,167.16 
				541.126,167.63 546.063,168.146 550.562,168.6 555.482,169.078 559.731,169.476 564.561,169.91 569.233,170.316 573.908,170.704 
				578.555,171.077 583.023,171.424 587.851,171.783 592.463,172.114 597.303,172.445 601.688,172.735 606.54,173.045 
				611.179,173.328 615.814,173.603 620.648,173.875 625.11,174.116 629.671,174.356 634.713,174.606 639.273,174.827 
				643.937,175.042 648.688,175.253 653.049,175.436 657.697,175.629 662.313,175.809 667.243,175.997 671.603,176.154 
				676.627,176.329 681.156,176.48 685.648,176.623 690.468,176.772 695.313,176.914 699.728,177.037 704.407,177.162 
				708.978,177.283 713.923,177.405 718.213,177.509 723.133,177.619 727.759,177.722 732.337,177.819 736.923,177.908 
				741.601,177.998 746.554,178.091 751.102,178.172 755.588,178.247 760.383,178.325 765.173,178.399 769.68,178.466 			"/>
		</g>
		<g>
			<defs>
				<rect id="SVGID_3_" x="-161.067" y="-144.613" width="934.655" height="327.703"/>
			</defs>
			<clipPath id="SVGID_4_">
				<use xlink:href="#SVGID_3_"  overflow="visible"/>
			</clipPath>
			
				<polyline clip-path="url(#SVGID_4_)" fill="none" stroke="#00786A" stroke-width="1.7344" stroke-linejoin="round" stroke-miterlimit="10" points="
				-157.942,179.965 -153.066,179.943 -148.82,179.833 -144.05,179.529 -139.246,178.966 -134.465,178.109 -130.031,177.018 
				-125.442,175.58 -120.697,173.761 -115.965,171.609 -111.096,169.061 -106.81,166.554 -101.984,163.449 -97.138,160.065 
				-92.469,156.576 -88.227,153.238 -83.184,149.088 -78.914,145.451 -73.945,141.102 -69.544,137.178 -64.719,132.818 
				-55.33,124.279 -50.926,120.296 -46.179,116.043 -41.245,111.698 -36.95,107.993 -32.312,104.087 -27.522,100.172 
				-22.835,96.475 -18.299,93.035 -13.264,89.384 -8.737,86.266 -3.907,83.111 0.471,80.417 5.257,77.655 9.76,75.232 
				14.469,72.883 19.07,70.777 23.889,68.765 28.529,67.022 33.275,65.429 37.982,64.041 42.305,62.927 47.261,61.84 51.696,61.039 
				56.42,60.353 60.946,59.859 65.969,59.487 70.319,59.313 75.255,59.273 79.754,59.376 84.677,59.642 88.923,59.987 93.76,60.508 
				98.431,61.137 103.1,61.877 107.752,62.723 112.221,63.631 117.052,64.708 121.655,65.827 126.502,67.092 130.887,68.308 
				135.735,69.724 140.38,71.15 145.013,72.631 149.85,74.234 154.305,75.76 158.869,77.365 163.909,79.178 168.469,80.857 
				173.136,82.603 177.88,84.406 182.242,86.083 186.892,87.89 191.506,89.694 196.443,91.64 200.798,93.363 214.845,98.931 
				219.67,100.842 224.512,102.751 228.922,104.48 233.604,106.302 238.17,108.073 243.121,109.971 247.406,111.602 
				252.327,113.453 256.955,115.174 261.537,116.857 266.121,118.519 270.798,120.191 275.754,121.936 280.3,123.513 
				284.784,125.042 289.581,126.65 294.367,128.225 298.662,129.615 303.751,131.227 308.009,132.553 312.987,134.069 
				317.743,135.487 321.983,136.726 326.758,138.091 331.561,139.432 336.342,140.736 340.774,141.916 345.365,143.109 
				350.112,144.315 354.844,145.485 359.711,146.658 363.997,147.664 368.823,148.772 373.668,149.852 378.339,150.864 
				382.578,151.757 387.621,152.792 391.891,153.646 396.862,154.608 401.261,155.437 406.086,156.319 410.68,157.135 
				415.474,157.96 419.879,158.694 424.627,159.466 429.562,160.24 433.853,160.895 438.495,161.579 443.287,162.264 
				447.972,162.911 452.509,163.52 457.545,164.171 462.07,164.74 466.898,165.325 471.28,165.837 476.062,166.381 480.567,166.874 
				485.273,167.373 489.877,167.845 494.696,168.322 499.335,168.764 504.082,169.2 508.787,169.62 513.112,169.991 518.068,170.4 
				522.503,170.755 527.228,171.119 531.751,171.455 536.774,171.817 541.126,172.117 546.063,172.443 550.562,172.732 
				555.482,173.035 559.731,173.289 564.561,173.566 569.233,173.824 573.908,174.073 578.555,174.308 583.023,174.528 
				587.851,174.757 592.463,174.968 597.303,175.181 601.688,175.364 606.54,175.561 611.179,175.74 615.814,175.916 
				620.648,176.089 625.11,176.243 629.671,176.395 634.713,176.555 639.273,176.694 643.937,176.833 648.688,176.967 
				653.049,177.083 657.697,177.206 662.313,177.321 667.243,177.44 671.603,177.538 676.627,177.652 681.156,177.748 
				685.648,177.836 690.468,177.933 695.313,178.023 699.728,178.104 704.407,178.183 708.978,178.258 713.923,178.336 
				718.213,178.403 723.133,178.473 727.759,178.538 732.337,178.596 736.923,178.656 741.601,178.714 746.554,178.772 
				751.102,178.822 755.588,178.872 760.383,178.922 765.173,178.967 769.68,179.011 			"/>
		</g>
		<g>
			<defs>
				<rect id="SVGID_5_" x="-161.067" y="-144.613" width="934.655" height="327.703"/>
			</defs>
			<clipPath id="SVGID_6_">
				<use xlink:href="#SVGID_5_"  overflow="visible"/>
			</clipPath>
			
				<polyline clip-path="url(#SVGID_6_)" fill="none" stroke="#780072" stroke-width="1.7344" stroke-linejoin="round" stroke-miterlimit="10" points="
				-157.942,179.965 -153.066,179.951 -148.82,179.89 -144.05,179.713 -139.246,179.395 -134.465,178.903 -130.031,178.281 
				-125.442,177.459 -120.697,176.418 -115.965,175.192 -111.096,173.737 -106.81,172.3 -101.984,170.529 -97.138,168.595 
				-92.469,166.6 -88.227,164.692 -83.184,162.322 -78.914,160.242 -73.945,157.757 -69.544,155.514 -64.719,153.023 
				-55.33,148.143 -50.926,145.866 -46.179,143.438 -41.245,140.955 -36.95,138.838 -32.312,136.606 -27.522,134.367 
				-22.835,132.256 -18.299,130.29 -13.264,128.205 -8.737,126.419 -3.907,124.619 0.471,123.08 5.257,121.501 9.76,120.115 
				14.469,118.776 19.07,117.573 23.889,116.422 28.529,115.428 33.275,114.516 37.982,113.721 42.305,113.085 47.261,112.466 
				51.696,112.005 56.42,111.615 60.946,111.331 65.969,111.12 70.319,111.018 75.255,110.998 79.754,111.059 84.677,111.208 
				88.923,111.406 93.76,111.702 98.431,112.063 103.1,112.486 107.752,112.968 112.221,113.489 117.052,114.103 121.655,114.744 
				126.502,115.466 130.887,116.161 135.735,116.971 140.38,117.783 145.013,118.632 149.85,119.548 154.305,120.417 
				158.869,121.336 163.909,122.37 168.469,123.329 173.136,124.329 177.88,125.359 182.242,126.318 186.892,127.351 
				191.506,128.381 196.443,129.491 200.798,130.476 214.845,133.66 219.67,134.749 224.512,135.842 228.922,136.829 
				233.604,137.872 238.17,138.881 243.121,139.968 247.406,140.899 252.327,141.956 256.955,142.939 261.537,143.901 
				266.121,144.853 270.798,145.808 275.754,146.806 280.3,147.707 284.784,148.581 289.581,149.5 294.367,150.401 298.662,151.193 
				303.751,152.116 308.009,152.873 312.987,153.737 317.743,154.548 321.983,155.257 326.758,156.036 331.561,156.802 
				336.342,157.548 340.774,158.222 345.365,158.905 350.112,159.591 354.844,160.263 359.711,160.934 363.997,161.509 
				368.823,162.141 373.668,162.755 378.339,163.335 382.578,163.846 387.621,164.439 391.891,164.922 396.862,165.475 
				401.261,165.948 406.086,166.453 410.68,166.919 415.474,167.391 419.879,167.812 424.627,168.251 429.562,168.692 
				433.853,169.067 438.495,169.458 443.287,169.851 447.972,170.221 452.509,170.568 457.545,170.939 462.07,171.266 
				466.898,171.6 471.28,171.894 476.062,172.201 480.567,172.486 485.273,172.77 489.877,173.037 494.696,173.312 499.335,173.564 
				504.082,173.814 508.787,174.053 513.112,174.266 518.068,174.5 522.503,174.702 527.228,174.909 531.751,175.104 
				536.774,175.309 541.126,175.48 546.063,175.666 550.562,175.833 555.482,176.006 559.731,176.151 564.561,176.309 
				569.233,176.456 573.908,176.597 578.555,176.735 583.023,176.858 587.851,176.99 592.463,177.11 597.303,177.231 
				601.688,177.336 606.54,177.448 611.179,177.549 615.814,177.652 620.648,177.75 625.11,177.836 629.671,177.922 
				634.713,178.017 639.273,178.096 643.937,178.174 648.688,178.251 653.049,178.319 657.697,178.389 662.313,178.451 
				667.243,178.521 671.603,178.578 676.627,178.642 681.156,178.698 685.648,178.747 690.468,178.804 695.313,178.855 
				699.728,178.899 704.407,178.947 708.978,178.989 713.923,179.032 718.213,179.072 723.133,179.11 727.759,179.149 
				732.337,179.182 736.923,179.217 741.601,179.25 746.554,179.284 751.102,179.313 755.588,179.339 760.383,179.368 
				765.173,179.395 769.68,179.418 			"/>
		</g>
		<g>
			<defs>
				<rect id="SVGID_7_" x="-161.067" y="-144.613" width="934.655" height="327.703"/>
			</defs>
			<clipPath id="SVGID_8_">
				<use xlink:href="#SVGID_7_"  overflow="visible"/>
			</clipPath>
			
				<polyline clip-path="url(#SVGID_8_)" fill="none" stroke="#FFA500" stroke-width="1.7344" stroke-linejoin="round" stroke-miterlimit="10" points="
				-157.942,179.965 -153.066,179.916 -148.82,179.656 -144.05,178.94 -139.246,177.613 -134.465,175.587 -130.031,173.022 
				-125.442,169.635 -120.697,165.341 -115.965,160.272 -111.096,154.268 -106.81,148.353 -101.984,141.038 -97.138,133.06 
				-92.469,124.832 -88.227,116.963 -83.184,107.188 -78.914,98.61 -73.945,88.358 -69.544,79.106 -64.719,68.829 -55.33,48.703 
				-50.926,39.316 -46.179,29.295 -41.245,19.051 -36.95,10.318 -32.312,1.11 -27.522,-8.119 -22.835,-16.832 -18.299,-24.942 
				-13.264,-33.545 -8.737,-40.898 -3.907,-48.331 0.471,-54.683 5.257,-61.197 9.76,-66.908 14.469,-72.437 19.07,-77.406 
				23.889,-82.142 28.529,-86.255 33.275,-90.01 37.982,-93.286 42.305,-95.909 47.261,-98.468 51.696,-100.359 56.42,-101.975 
				60.946,-103.141 65.969,-104.017 70.319,-104.429 75.255,-104.524 79.754,-104.273 84.677,-103.653 88.923,-102.837 
				93.76,-101.609 98.431,-100.131 103.1,-98.384 107.752,-96.39 112.221,-94.25 117.052,-91.706 121.655,-89.07 126.502,-86.091 
				130.887,-83.225 135.735,-79.883 140.38,-76.526 145.013,-73.035 149.85,-69.256 154.305,-65.662 158.869,-61.883 
				163.909,-57.605 168.469,-53.648 173.136,-49.531 177.88,-45.283 182.242,-41.327 186.892,-37.071 191.506,-32.815 
				196.443,-28.233 200.798,-24.17 214.845,-11.04 219.67,-6.543 224.512,-2.042 228.922,2.035 233.604,6.336 238.17,10.503 
				243.121,14.982 247.406,18.822 252.327,23.185 256.955,27.241 261.537,31.209 266.121,35.128 270.798,39.071 275.754,43.185 
				280.3,46.899 284.784,50.505 289.581,54.297 294.367,58.011 298.662,61.284 303.751,65.086 308.009,68.208 312.987,71.785 
				317.743,75.124 321.983,78.045 326.758,81.26 331.561,84.422 336.342,87.494 340.774,90.278 345.365,93.092 350.112,95.931 
				354.844,98.694 359.711,101.458 363.997,103.833 368.823,106.436 373.668,108.983 378.339,111.368 382.578,113.476 
				387.621,115.913 391.891,117.922 396.862,120.193 401.261,122.146 406.086,124.227 410.68,126.151 415.474,128.096 
				419.879,129.831 424.627,131.648 429.562,133.47 433.853,135.013 438.495,136.625 443.287,138.242 447.972,139.77 
				452.509,141.201 457.545,142.743 462.07,144.078 466.898,145.458 471.28,146.668 476.062,147.948 480.567,149.113 
				485.273,150.286 489.877,151.399 494.696,152.521 499.335,153.565 504.082,154.596 508.787,155.581 513.112,156.453 
				518.068,157.421 522.503,158.259 527.228,159.117 531.751,159.907 536.774,160.759 541.126,161.465 546.063,162.24 
				550.562,162.92 555.482,163.636 559.731,164.231 564.561,164.884 569.233,165.49 573.908,166.076 578.555,166.636 
				583.023,167.154 587.851,167.694 592.463,168.189 597.303,168.686 601.688,169.122 606.54,169.583 611.179,170.011 
				615.814,170.417 620.648,170.829 625.11,171.192 629.671,171.551 634.713,171.929 639.273,172.258 643.937,172.58 
				648.688,172.895 653.049,173.175 657.697,173.462 662.313,173.735 667.243,174.011 671.603,174.25 676.627,174.51 
				681.156,174.738 685.648,174.952 690.468,175.174 695.313,175.389 699.728,175.574 704.407,175.765 708.978,175.943 
				713.923,176.127 718.213,176.281 723.133,176.449 727.759,176.601 732.337,176.745 736.923,176.882 741.601,177.016 
				746.554,177.156 751.102,177.275 755.588,177.387 760.383,177.505 765.173,177.616 769.68,177.718 			"/>
		</g>
	</g>
	<g>
		<g>
			<defs>
				<rect id="SVGID_9_" x="-218.594" y="-156.363" width="992.188" height="352.344"/>
			</defs>
			<clipPath id="SVGID_10_">
				<use xlink:href="#SVGID_9_"  overflow="visible"/>
			</clipPath>
			
				<path clip-path="url(#SVGID_10_)" fill="none" stroke="#000000" stroke-width="1.7344" stroke-linejoin="round" stroke-miterlimit="10" d="
				M-157.942,179.965H769.68 M-157.942,179.965v-320.671 M-157.942,179.965h-10.55"/>
		</g>
	</g>
	<path d="M-176.368,181.844c0,1.514-0.162,2.824-0.489,3.938c-0.325,1.11-0.771,2.03-1.337,2.757
		c-0.565,0.729-1.233,1.271-2.006,1.622c-0.774,0.354-1.602,0.533-2.478,0.533c-0.887,0-1.712-0.179-2.472-0.533
		c-0.76-0.352-1.424-0.894-1.99-1.622c-0.565-0.727-1.008-1.646-1.33-2.757c-0.322-1.112-0.484-2.425-0.484-3.938
		c0-1.523,0.16-2.84,0.484-3.955c0.322-1.114,0.765-2.036,1.33-2.765c0.566-0.729,1.23-1.271,1.99-1.622
		c0.76-0.354,1.585-0.533,2.472-0.533c0.878,0,1.703,0.18,2.478,0.533c0.772,0.352,1.441,0.894,2.006,1.622
		c0.566,0.729,1.013,1.65,1.337,2.765C-176.531,179.004-176.368,180.321-176.368,181.844L-176.368,181.844z M-178.604,181.844
		c0-1.326-0.113-2.44-0.336-3.34c-0.225-0.898-0.521-1.622-0.896-2.173c-0.375-0.549-0.808-0.941-1.302-1.184
		c-0.491-0.241-1.006-0.359-1.543-0.359c-0.528,0-1.04,0.118-1.533,0.359c-0.491,0.242-0.924,0.637-1.293,1.184
		c-0.37,0.549-0.667,1.274-0.892,2.173c-0.224,0.899-0.334,2.012-0.334,3.34c0,1.316,0.111,2.429,0.334,3.328
		c0.225,0.898,0.521,1.622,0.892,2.173c0.372,0.549,0.802,0.939,1.293,1.177c0.493,0.236,1.004,0.353,1.533,0.353
		c0.537,0,1.052-0.116,1.543-0.353c0.493-0.237,0.927-0.63,1.302-1.177c0.375-0.551,0.674-1.274,0.896-2.173
		C-178.717,184.273-178.604,183.16-178.604,181.844L-178.604,181.844z"/>
	
		<line fill="none" stroke="#000000" stroke-width="1.7344" stroke-linejoin="round" stroke-miterlimit="10" x1="-157.942" y1="19.629" x2="-168.492" y2="19.629"/>
	<path d="M-191.908,13.948c0,0.308-0.097,0.563-0.287,0.757c-0.192,0.195-0.519,0.294-0.982,0.294h-5.444l-0.804,4.554
		c0.902-0.195,1.736-0.292,2.502-0.292c0.912,0,1.712,0.134,2.398,0.401c0.688,0.27,1.267,0.639,1.733,1.105
		s0.822,1.022,1.061,1.661c0.239,0.641,0.361,1.332,0.361,2.082c0,0.918-0.162,1.749-0.489,2.49
		c-0.326,0.741-0.767,1.376-1.323,1.904c-0.56,0.532-1.216,0.938-1.979,1.223c-0.762,0.285-1.58,0.426-2.458,0.426
		c-0.514,0-1.005-0.049-1.471-0.153c-0.466-0.102-0.902-0.237-1.306-0.408c-0.404-0.17-0.779-0.364-1.124-0.581
		c-0.347-0.214-0.653-0.445-0.922-0.689l0.66-0.915c0.146-0.211,0.339-0.317,0.574-0.317c0.155,0,0.336,0.06,0.542,0.187
		c0.208,0.127,0.456,0.264,0.746,0.416c0.289,0.151,0.628,0.287,1.019,0.413c0.389,0.127,0.858,0.188,1.402,0.188
		c0.602,0,1.147-0.099,1.629-0.292c0.484-0.195,0.899-0.475,1.246-0.831c0.345-0.357,0.609-0.79,0.792-1.288
		c0.185-0.5,0.276-1.061,0.276-1.68c0-0.545-0.078-1.035-0.232-1.469s-0.394-0.806-0.714-1.11c-0.32-0.305-0.718-0.544-1.197-0.714
		c-0.475-0.171-1.029-0.257-1.665-0.257c-0.439,0-0.894,0.037-1.36,0.111c-0.468,0.074-0.95,0.191-1.446,0.354l-1.355-0.403
		l1.402-8.117h8.217v0.954H-191.908z M-176.398,21.686c0,1.515-0.162,2.826-0.487,3.94c-0.327,1.11-0.771,2.03-1.337,2.757
		c-0.566,0.727-1.235,1.269-2.009,1.623c-0.772,0.354-1.598,0.531-2.478,0.531c-0.887,0-1.712-0.178-2.472-0.531
		s-1.425-0.896-1.988-1.623c-0.565-0.727-1.01-1.647-1.331-2.757c-0.32-1.112-0.482-2.425-0.482-3.94
		c0-1.522,0.16-2.838,0.482-3.954c0.32-1.116,0.766-2.036,1.331-2.766c0.565-0.729,1.228-1.271,1.988-1.624
		c0.76-0.354,1.585-0.532,2.472-0.532c0.88,0,1.705,0.178,2.478,0.532c0.774,0.354,1.443,0.896,2.009,1.624s1.01,1.65,1.337,2.766
		C-176.56,18.848-176.398,20.166-176.398,21.686L-176.398,21.686z M-178.629,21.686c0-1.325-0.113-2.439-0.338-3.34
		c-0.224-0.899-0.523-1.622-0.897-2.171c-0.375-0.549-0.808-0.945-1.3-1.185c-0.495-0.239-1.008-0.36-1.545-0.36
		c-0.53,0-1.04,0.12-1.533,0.36c-0.493,0.239-0.922,0.635-1.293,1.185c-0.371,0.549-0.668,1.274-0.892,2.171
		c-0.225,0.901-0.337,2.013-0.337,3.34c0,1.318,0.112,2.43,0.337,3.329c0.224,0.899,0.521,1.621,0.892,2.173
		c0.372,0.549,0.801,0.939,1.293,1.175c0.491,0.236,1.003,0.354,1.533,0.354c0.537,0,1.05-0.118,1.545-0.354
		c0.493-0.236,0.925-0.628,1.3-1.175c0.375-0.553,0.674-1.274,0.897-2.173C-178.741,24.116-178.629,23.006-178.629,21.686
		L-178.629,21.686z"/>
	
		<line fill="none" stroke="#000000" stroke-width="1.7344" stroke-linejoin="round" stroke-miterlimit="10" x1="-157.942" y1="-140.706" x2="-168.492" y2="-140.706"/>
	<path d="M-214.334-131.448h3.724v-11.83c0-0.359,0.012-0.714,0.037-1.073l-3.1,2.648c-0.081,0.065-0.16,0.113-0.238,0.141
		c-0.077,0.028-0.151,0.042-0.225,0.042c-0.122,0-0.23-0.026-0.331-0.079c-0.098-0.051-0.17-0.114-0.22-0.188l-0.683-0.929
		l5.164-4.48h1.758v15.748h3.419v1.649h-9.305V-131.448L-214.334-131.448z M-190.458-138.468c0,1.513-0.162,2.826-0.488,3.938
		c-0.327,1.11-0.772,2.03-1.337,2.757c-0.567,0.729-1.237,1.271-2.01,1.624c-0.772,0.355-1.598,0.532-2.477,0.532
		c-0.887,0-1.712-0.176-2.473-0.532c-0.76-0.354-1.425-0.896-1.988-1.624c-0.564-0.727-1.01-1.648-1.33-2.757
		c-0.32-1.11-0.484-2.425-0.484-3.938c0-1.522,0.162-2.842,0.484-3.956c0.322-1.112,0.766-2.036,1.33-2.765
		c0.565-0.728,1.229-1.269,1.988-1.624c0.76-0.354,1.585-0.529,2.473-0.529c0.879,0,1.705,0.176,2.477,0.529
		c0.772,0.355,1.443,0.896,2.01,1.624c0.564,0.727,1.01,1.651,1.337,2.765C-190.62-141.308-190.458-139.99-190.458-138.468
		L-190.458-138.468z M-192.693-138.468c0-1.327-0.111-2.439-0.336-3.338c-0.224-0.899-0.523-1.625-0.897-2.173
		c-0.375-0.551-0.808-0.945-1.3-1.184c-0.495-0.239-1.008-0.361-1.545-0.361c-0.53,0-1.04,0.12-1.533,0.361
		c-0.493,0.239-0.924,0.635-1.295,1.184c-0.371,0.547-0.668,1.274-0.892,2.173c-0.225,0.899-0.336,2.011-0.336,3.338
		c0,1.318,0.111,2.426,0.336,3.325c0.224,0.899,0.521,1.625,0.892,2.173c0.371,0.551,0.802,0.943,1.295,1.179
		c0.491,0.236,1.003,0.355,1.533,0.355c0.537,0,1.05-0.118,1.545-0.355c0.491-0.236,0.925-0.628,1.3-1.179
		c0.375-0.549,0.674-1.274,0.897-2.173C-192.804-136.042-192.693-137.149-192.693-138.468L-192.693-138.468z M-176.422-138.468
		c0,1.513-0.162,2.826-0.488,3.938c-0.327,1.11-0.772,2.03-1.337,2.757c-0.567,0.729-1.235,1.271-2.008,1.624
		c-0.772,0.355-1.6,0.532-2.478,0.532c-0.887,0-1.712-0.176-2.472-0.532c-0.76-0.354-1.425-0.896-1.988-1.624
		c-0.565-0.727-1.01-1.648-1.33-2.757c-0.322-1.11-0.484-2.425-0.484-3.938c0-1.522,0.162-2.842,0.484-3.956
		c0.32-1.114,0.764-2.036,1.33-2.765c0.565-0.728,1.228-1.269,1.988-1.624c0.76-0.354,1.583-0.529,2.472-0.529
		c0.88,0,1.705,0.176,2.478,0.529c0.772,0.355,1.441,0.896,2.008,1.624c0.564,0.727,1.012,1.651,1.337,2.765
		C-176.586-141.308-176.422-139.99-176.422-138.468L-176.422-138.468z M-178.657-138.468c0-1.327-0.113-2.439-0.336-3.338
		c-0.224-0.899-0.523-1.625-0.897-2.173c-0.375-0.551-0.808-0.945-1.302-1.184c-0.491-0.239-1.006-0.361-1.543-0.361
		c-0.528,0-1.04,0.12-1.531,0.361c-0.493,0.241-0.926,0.635-1.295,1.184c-0.369,0.547-0.667,1.274-0.892,2.173
		c-0.223,0.899-0.334,2.011-0.334,3.338c0,1.318,0.111,2.426,0.334,3.325c0.226,0.899,0.521,1.625,0.892,2.173
		c0.372,0.551,0.803,0.943,1.295,1.179c0.491,0.236,1.003,0.355,1.531,0.355c0.537,0,1.052-0.118,1.543-0.355
		c0.493-0.236,0.927-0.628,1.302-1.179c0.375-0.549,0.674-1.274,0.897-2.173C-178.77-136.042-178.657-137.149-178.657-138.468
		L-178.657-138.468z"/>
	<path d="M-118.618-121.207h-1.82c-0.204,0-0.371-0.053-0.5-0.158c-0.13-0.106-0.227-0.239-0.294-0.403l-1.622-4.188h-7.788
		l-1.624,4.188c-0.058,0.145-0.153,0.275-0.289,0.391c-0.134,0.113-0.303,0.171-0.505,0.171h-1.821l6.936-17.358h2.393
		L-118.618-121.207L-118.618-121.207z M-129.982-127.652h6.47l-2.724-7.056c-0.18-0.44-0.349-0.984-0.512-1.637
		c-0.091,0.334-0.18,0.639-0.264,0.917c-0.084,0.274-0.169,0.521-0.25,0.73L-129.982-127.652L-129.982-127.652z M-116.775-121.207
		v-12.268h1.281c0.31,0,0.503,0.149,0.584,0.45l0.158,1.329c0.539-0.584,1.137-1.061,1.795-1.427
		c0.66-0.366,1.422-0.549,2.284-0.549c0.669,0,1.258,0.111,1.769,0.334c0.514,0.225,0.941,0.54,1.281,0.947
		c0.343,0.406,0.602,0.897,0.783,1.471c0.178,0.572,0.268,1.207,0.268,1.898v7.813h-2.147v-7.813c0-0.927-0.214-1.648-0.64-2.161
		c-0.426-0.514-1.077-0.769-1.948-0.769c-0.634,0-1.229,0.151-1.781,0.458c-0.554,0.305-1.068,0.723-1.54,1.251v9.033h-2.147
		V-121.207z M-99.193-133.682c0.537,0,1.038,0.06,1.501,0.176c0.463,0.118,0.882,0.292,1.255,0.519h3.334v0.793
		c0,0.268-0.17,0.44-0.514,0.514l-1.392,0.194c0.276,0.521,0.415,1.106,0.415,1.759c0,0.593-0.114,1.135-0.343,1.623
		c-0.229,0.489-0.547,0.904-0.957,1.251c-0.414,0.345-0.897,0.612-1.46,0.799c-0.561,0.188-1.175,0.282-1.842,0.282
		c-0.57,0-1.112-0.071-1.624-0.208c-0.26,0.164-0.456,0.34-0.586,0.526c-0.132,0.188-0.193,0.366-0.193,0.539
		c0,0.293,0.114,0.514,0.347,0.663c0.23,0.149,0.54,0.261,0.929,0.326c0.385,0.065,0.825,0.105,1.316,0.121
		c0.493,0.018,0.994,0.042,1.508,0.08c0.512,0.037,1.015,0.098,1.506,0.185c0.493,0.086,0.936,0.229,1.325,0.435
		c0.391,0.203,0.7,0.482,0.933,0.836c0.23,0.354,0.349,0.816,0.349,1.385c0,0.521-0.13,1.027-0.391,1.52
		c-0.262,0.491-0.639,0.931-1.128,1.318c-0.493,0.386-1.095,0.693-1.806,0.92c-0.714,0.227-1.515,0.343-2.411,0.343
		c-0.896,0-1.682-0.09-2.357-0.27c-0.676-0.179-1.235-0.417-1.677-0.712c-0.445-0.297-0.776-0.642-0.996-1.033
		c-0.22-0.391-0.331-0.803-0.331-1.232c0-0.602,0.192-1.115,0.574-1.54c0.382-0.422,0.906-0.76,1.575-1.014
		c-0.341-0.162-0.616-0.378-0.823-0.647c-0.209-0.269-0.312-0.63-0.312-1.085c0-0.181,0.033-0.363,0.097-0.551
		c0.067-0.187,0.166-0.375,0.299-0.562c0.135-0.188,0.297-0.366,0.489-0.537c0.19-0.172,0.417-0.324,0.677-0.452
		c-0.61-0.334-1.087-0.783-1.427-1.342c-0.341-0.563-0.512-1.216-0.512-1.966c0-0.602,0.114-1.149,0.347-1.636
		c0.23-0.489,0.554-0.903,0.964-1.246c0.412-0.341,0.901-0.605,1.471-0.792C-100.493-133.589-99.868-133.682-99.193-133.682
		L-99.193-133.682z M-95.361-120.536c0-0.308-0.084-0.556-0.257-0.744c-0.171-0.187-0.403-0.331-0.695-0.435
		c-0.292-0.102-0.628-0.174-1.006-0.22c-0.378-0.042-0.778-0.077-1.196-0.097c-0.419-0.02-0.848-0.042-1.281-0.067
		c-0.435-0.024-0.853-0.07-1.251-0.135c-0.456,0.213-0.827,0.479-1.117,0.793c-0.291,0.316-0.433,0.691-0.433,1.124
		c0,0.276,0.072,0.535,0.213,0.774c0.143,0.239,0.359,0.445,0.648,0.616c0.289,0.172,0.656,0.308,1.096,0.41
		c0.445,0.102,0.962,0.153,1.557,0.153c0.577,0,1.1-0.053,1.563-0.158c0.462-0.107,0.853-0.255,1.172-0.445
		c0.316-0.191,0.561-0.422,0.73-0.689C-95.445-119.926-95.361-120.218-95.361-120.536L-95.361-120.536z M-99.193-127.201
		c0.44,0,0.825-0.062,1.16-0.183c0.334-0.123,0.614-0.292,0.841-0.507s0.397-0.475,0.506-0.781c0.111-0.306,0.166-0.637,0.166-0.996
		c0-0.756-0.229-1.356-0.683-1.802c-0.456-0.443-1.119-0.665-1.988-0.665c-0.864,0-1.524,0.222-1.979,0.665
		s-0.683,1.043-0.683,1.802c0,0.359,0.06,0.69,0.178,0.996c0.116,0.306,0.289,0.565,0.512,0.781
		c0.224,0.216,0.503,0.384,0.838,0.507C-99.995-127.263-99.617-127.201-99.193-127.201L-99.193-127.201z M-83.936-131.448
		c-0.097,0.178-0.246,0.268-0.45,0.268c-0.115,0-0.247-0.044-0.401-0.134s-0.345-0.188-0.568-0.299
		c-0.224-0.109-0.487-0.211-0.793-0.304c-0.305-0.093-0.669-0.139-1.091-0.139c-0.359,0-0.683,0.046-0.977,0.139
		c-0.294,0.095-0.542,0.222-0.746,0.383c-0.204,0.164-0.361,0.351-0.47,0.563c-0.111,0.211-0.167,0.443-0.167,0.695
		c0,0.317,0.093,0.581,0.276,0.788c0.185,0.206,0.424,0.389,0.721,0.542c0.297,0.155,0.634,0.292,1.012,0.408
		c0.378,0.118,0.767,0.243,1.167,0.373c0.397,0.132,0.788,0.278,1.17,0.44c0.382,0.162,0.723,0.366,1.021,0.609
		c0.297,0.247,0.537,0.544,0.722,0.892c0.183,0.35,0.272,0.769,0.272,1.258c0,0.57-0.102,1.096-0.306,1.575
		c-0.204,0.48-0.503,0.896-0.897,1.246c-0.394,0.349-0.879,0.626-1.452,0.829c-0.575,0.202-1.237,0.304-1.985,0.304
		c-0.855,0-1.629-0.141-2.326-0.422c-0.695-0.281-1.283-0.635-1.763-1.068l0.501-0.829c0.063-0.098,0.143-0.176,0.232-0.232
		c0.088-0.058,0.206-0.084,0.352-0.084s0.299,0.053,0.458,0.164c0.16,0.109,0.355,0.234,0.586,0.373
		c0.232,0.139,0.51,0.262,0.836,0.378c0.327,0.112,0.737,0.17,1.233,0.17c0.414,0,0.781-0.056,1.096-0.166
		c0.32-0.111,0.581-0.258,0.788-0.445c0.209-0.188,0.363-0.401,0.465-0.641c0.1-0.239,0.151-0.498,0.151-0.774
		c0-0.334-0.092-0.612-0.273-0.835c-0.185-0.224-0.424-0.416-0.72-0.574c-0.297-0.158-0.639-0.295-1.021-0.408
		c-0.382-0.114-0.772-0.236-1.17-0.366c-0.399-0.13-0.792-0.28-1.179-0.447c-0.385-0.166-0.729-0.375-1.026-0.621
		c-0.297-0.25-0.537-0.56-0.719-0.929c-0.185-0.369-0.276-0.816-0.276-1.335c0-0.473,0.097-0.925,0.294-1.356
		c0.197-0.429,0.479-0.808,0.848-1.135c0.369-0.325,0.825-0.584,1.369-0.781c0.542-0.197,1.158-0.293,1.849-0.293
		c0.813,0,1.54,0.128,2.179,0.383c0.639,0.257,1.195,0.604,1.665,1.043L-83.936-131.448L-83.936-131.448z M-76.741-121.011
		c-0.968,0-1.714-0.271-2.234-0.813c-0.521-0.542-0.781-1.321-0.781-2.336v-7.508h-1.478c-0.13,0-0.238-0.039-0.324-0.116
		c-0.086-0.077-0.128-0.195-0.128-0.361v-0.853l2.002-0.257l0.498-3.797c0.016-0.114,0.07-0.209,0.159-0.287
		c0.088-0.078,0.204-0.115,0.341-0.115h1.085v4.223h3.516v1.563h-3.516v7.36c0,0.521,0.125,0.904,0.373,1.152
		c0.25,0.248,0.572,0.373,0.971,0.373c0.227,0,0.426-0.03,0.593-0.091c0.167-0.062,0.31-0.128,0.427-0.203
		c0.116-0.074,0.22-0.141,0.305-0.202c0.084-0.06,0.16-0.091,0.225-0.091c0.113,0,0.216,0.07,0.304,0.208l0.623,1.038
		c-0.366,0.341-0.813,0.612-1.337,0.813C-75.636-121.112-76.179-121.011-76.741-121.011L-76.741-121.011z M-71.987-129.385h5.982
		v1.83h-5.982V-129.385L-71.987-129.385z M-63.029-121.207v-12.268h1.281c0.311,0,0.505,0.149,0.586,0.45l0.158,1.329
		c0.539-0.584,1.137-1.061,1.795-1.427c0.66-0.366,1.421-0.549,2.284-0.549c0.667,0,1.256,0.111,1.769,0.334
		c0.514,0.225,0.941,0.54,1.281,0.947c0.343,0.406,0.602,0.897,0.783,1.471c0.179,0.572,0.268,1.207,0.268,1.898v7.813h-2.147
		v-7.813c0-0.927-0.213-1.648-0.641-2.161c-0.426-0.512-1.077-0.769-1.948-0.769c-0.635,0-1.228,0.151-1.781,0.458
		c-0.554,0.306-1.068,0.723-1.54,1.251v9.033h-2.148V-121.207z M-47.18-133.474v12.268h-2.148v-12.268H-47.18L-47.18-133.474z
		 M-46.693-137.321c0,0.204-0.042,0.398-0.128,0.581c-0.086,0.185-0.199,0.347-0.341,0.489s-0.305,0.253-0.489,0.336
		c-0.183,0.081-0.38,0.122-0.593,0.122c-0.209,0-0.407-0.041-0.584-0.122c-0.179-0.081-0.339-0.191-0.484-0.336
		c-0.143-0.143-0.253-0.304-0.334-0.489c-0.081-0.183-0.124-0.376-0.124-0.581c0-0.211,0.041-0.412,0.124-0.604
		c0.081-0.19,0.191-0.354,0.334-0.493s0.303-0.25,0.484-0.331c0.18-0.081,0.375-0.122,0.584-0.122c0.213,0,0.41,0.039,0.593,0.122
		c0.183,0.081,0.347,0.191,0.489,0.331s0.257,0.303,0.341,0.493C-46.735-137.733-46.693-137.532-46.693-137.321L-46.693-137.321z
		 M-44.928-133.474h1.771c0.17,0,0.31,0.042,0.42,0.132c0.109,0.091,0.188,0.195,0.237,0.318l3.113,7.897
		c0.114,0.285,0.204,0.572,0.27,0.866c0.065,0.294,0.126,0.579,0.183,0.855c0.065-0.276,0.136-0.563,0.208-0.855
		c0.072-0.292,0.165-0.581,0.281-0.866l3.137-7.897c0.048-0.13,0.127-0.239,0.238-0.325c0.109-0.084,0.246-0.127,0.408-0.127h1.686
		l-5.006,12.268h-1.941L-44.928-133.474L-44.928-133.474z M-26.129-133.67c0.732,0,1.41,0.125,2.033,0.373
		c0.623,0.248,1.159,0.604,1.611,1.068c0.453,0.464,0.804,1.037,1.058,1.716c0.252,0.679,0.378,1.46,0.378,2.336
		c0,0.336-0.037,0.56-0.111,0.672c-0.074,0.114-0.208,0.17-0.403,0.17h-8.167c0.016,0.774,0.124,1.448,0.317,2.02
		c0.195,0.574,0.461,1.052,0.799,1.434c0.338,0.384,0.741,0.67,1.209,0.862c0.468,0.19,0.991,0.287,1.569,0.287
		c0.545,0,1.014-0.063,1.404-0.19c0.391-0.125,0.727-0.26,1.012-0.401c0.285-0.142,0.521-0.278,0.708-0.404
		c0.188-0.125,0.35-0.188,0.489-0.188c0.18,0,0.317,0.069,0.414,0.208l0.598,0.781c-0.26,0.326-0.577,0.605-0.952,0.841
		c-0.375,0.236-0.774,0.431-1.197,0.586c-0.424,0.155-0.862,0.271-1.314,0.348c-0.453,0.078-0.897,0.115-1.336,0.115
		c-0.857,0-1.638-0.145-2.351-0.431c-0.711-0.291-1.327-0.709-1.848-1.258c-0.522-0.551-0.929-1.233-1.223-2.052
		c-0.294-0.816-0.44-1.756-0.44-2.813c0-0.854,0.132-1.652,0.397-2.393c0.262-0.741,0.643-1.383,1.135-1.928
		c0.491-0.545,1.092-0.975,1.805-1.288C-27.816-133.513-27.017-133.67-26.129-133.67L-26.129-133.67z M-26.079-132.084
		c-1.042,0-1.861,0.301-2.46,0.902c-0.598,0.602-0.971,1.436-1.117,2.504h6.678c0-0.505-0.07-0.964-0.208-1.379
		c-0.139-0.414-0.341-0.772-0.611-1.073c-0.269-0.301-0.595-0.535-0.977-0.704C-25.156-132.002-25.592-132.084-26.079-132.084
		L-26.079-132.084z M-9.298-121.207h-0.952c-0.211,0-0.382-0.032-0.512-0.097c-0.13-0.065-0.217-0.204-0.257-0.416l-0.243-1.135
		c-0.325,0.294-0.642,0.553-0.947,0.783c-0.304,0.227-0.626,0.42-0.966,0.579c-0.338,0.159-0.697,0.28-1.079,0.361
		s-0.811,0.123-1.281,0.123c-0.48,0-0.927-0.067-1.344-0.202c-0.414-0.136-0.774-0.333-1.081-0.598
		c-0.305-0.262-0.551-0.602-0.732-1.012c-0.183-0.414-0.276-0.894-0.276-1.448c0-0.479,0.136-0.945,0.405-1.396
		c0.268-0.452,0.699-0.852,1.293-1.196c0.595-0.347,1.371-0.63,2.331-0.85c0.961-0.22,2.131-0.345,3.516-0.378v-0.962
		c0-0.952-0.204-1.673-0.61-2.161c-0.408-0.489-1.01-0.732-1.805-0.732c-0.528,0-0.973,0.067-1.331,0.202
		c-0.359,0.136-0.667,0.285-0.927,0.451c-0.262,0.167-0.487,0.315-0.677,0.447c-0.192,0.128-0.382,0.193-0.568,0.193
		c-0.146,0-0.273-0.037-0.378-0.114c-0.105-0.077-0.192-0.17-0.255-0.274l-0.392-0.695c0.676-0.651,1.406-1.139,2.19-1.466
		c0.787-0.326,1.656-0.487,2.608-0.487c0.683,0,1.292,0.112,1.826,0.339c0.533,0.227,0.98,0.545,1.341,0.947
		c0.363,0.403,0.639,0.89,0.825,1.464c0.188,0.574,0.28,1.202,0.28,1.886v7.844H-9.298z M-14.888-122.527
		c0.375,0,0.72-0.037,1.037-0.114c0.318-0.078,0.616-0.188,0.892-0.329c0.278-0.143,0.545-0.315,0.8-0.514
		c0.255-0.199,0.503-0.429,0.739-0.69v-2.551c-0.993,0.032-1.837,0.109-2.528,0.232c-0.692,0.121-1.256,0.283-1.689,0.487
		c-0.437,0.204-0.753,0.441-0.954,0.714c-0.199,0.271-0.299,0.579-0.299,0.92c0,0.325,0.053,0.604,0.159,0.835
		c0.105,0.23,0.246,0.424,0.422,0.574c0.174,0.15,0.384,0.261,0.628,0.329C-15.439-122.56-15.174-122.527-14.888-122.527
		L-14.888-122.527z M-4.171-133.474v7.825c0,0.927,0.214,1.645,0.642,2.154c0.428,0.507,1.072,0.764,1.936,0.764
		c0.626,0,1.218-0.15,1.775-0.447s1.073-0.714,1.545-1.251v-9.044h2.148v12.268H2.595c-0.31,0-0.501-0.149-0.574-0.451l-0.171-1.319
		c-0.538,0.595-1.138,1.071-1.8,1.43c-0.664,0.355-1.424,0.537-2.279,0.537c-0.668,0-1.256-0.113-1.768-0.338
		c-0.514-0.224-0.943-0.537-1.288-0.938c-0.347-0.403-0.609-0.892-0.783-1.466c-0.174-0.572-0.262-1.205-0.262-1.897v-7.825h2.159
		V-133.474z"/>
	<path fill="#FF9900" d="M138.01-93.949h3.724v-11.828c0-0.359,0.012-0.716,0.035-1.075l-3.101,2.65
		c-0.081,0.063-0.16,0.111-0.237,0.139c-0.078,0.03-0.153,0.044-0.226,0.044c-0.123,0-0.232-0.026-0.331-0.079
		s-0.171-0.116-0.218-0.19l-0.685-0.927l5.165-4.48h1.759v15.748h3.417v1.649h-9.303V-93.949L138.01-93.949z M149.63-93.633
		c0-0.211,0.039-0.412,0.116-0.598c0.078-0.187,0.183-0.347,0.317-0.482c0.134-0.135,0.295-0.243,0.48-0.324
		c0.188-0.081,0.383-0.123,0.586-0.123c0.213,0,0.412,0.042,0.6,0.123c0.187,0.081,0.348,0.188,0.482,0.324
		c0.134,0.134,0.241,0.296,0.318,0.482c0.078,0.188,0.115,0.387,0.115,0.598c0,0.22-0.037,0.419-0.115,0.598
		c-0.077,0.18-0.185,0.338-0.318,0.477c-0.134,0.137-0.295,0.245-0.482,0.322c-0.188,0.078-0.387,0.115-0.6,0.115
		c-0.203,0-0.398-0.037-0.586-0.115c-0.187-0.077-0.347-0.187-0.48-0.322c-0.135-0.139-0.239-0.297-0.317-0.477
		C149.669-93.212,149.63-93.412,149.63-93.633L149.63-93.633z M162.005-104.568v7.825c0,0.927,0.214,1.645,0.639,2.154
		c0.427,0.507,1.073,0.764,1.936,0.764c0.628,0,1.217-0.15,1.777-0.447c0.558-0.297,1.072-0.714,1.543-1.251v-9.044h2.148v12.268
		h-1.281c-0.31,0-0.501-0.149-0.575-0.451l-0.169-1.318c-0.537,0.593-1.137,1.07-1.802,1.429c-0.664,0.355-1.422,0.537-2.277,0.537
		c-0.667,0-1.258-0.113-1.77-0.338c-0.514-0.224-0.94-0.537-1.288-0.938c-0.347-0.405-0.605-0.892-0.781-1.466
		c-0.176-0.572-0.264-1.205-0.264-1.897v-7.825h2.165V-104.568z M182.222-92.301c-0.31,0-0.501-0.149-0.572-0.451l-0.195-1.49
		c-0.528,0.644-1.131,1.156-1.807,1.54c-0.676,0.382-1.448,0.572-2.319,0.572c-0.698,0-1.337-0.136-1.909-0.408
		c-0.574-0.273-1.063-0.672-1.466-1.197c-0.403-0.526-0.713-1.179-0.935-1.958c-0.22-0.783-0.331-1.682-0.331-2.699
		c0-0.902,0.121-1.745,0.366-2.526c0.243-0.781,0.595-1.457,1.051-2.027c0.456-0.568,1.013-1.019,1.666-1.35
		c0.656-0.329,1.397-0.493,2.228-0.493c0.75,0,1.389,0.127,1.923,0.384c0.531,0.255,1.01,0.612,1.434,1.068v-6.797h2.147v17.833
		H182.222L182.222-92.301z M178.049-93.875c0.701,0,1.314-0.16,1.842-0.482c0.528-0.324,1.017-0.781,1.466-1.374v-5.932
		c-0.401-0.528-0.834-0.901-1.307-1.117c-0.472-0.215-0.993-0.322-1.563-0.322c-1.147,0-2.029,0.41-2.643,1.229
		c-0.614,0.816-0.922,1.979-0.922,3.484c0,0.799,0.07,1.481,0.209,2.05c0.139,0.57,0.337,1.038,0.604,1.404
		c0.264,0.366,0.591,0.633,0.977,0.806C177.098-93.962,177.544-93.875,178.049-93.875L178.049-93.875z M187.609-92.301v-10.425
		l-1.367-0.159c-0.162-0.039-0.299-0.104-0.41-0.188c-0.109-0.086-0.164-0.209-0.164-0.373v-0.88h1.941v-1.184
		c0-0.708,0.097-1.332,0.293-1.874c0.194-0.54,0.477-1,0.843-1.378c0.366-0.378,0.808-0.663,1.325-0.857
		c0.518-0.19,1.1-0.285,1.751-0.285c0.545,0,1.054,0.077,1.525,0.232l-0.047,1.086c-0.007,0.162-0.078,0.262-0.208,0.293
		c-0.13,0.034-0.313,0.049-0.549,0.049h-0.378c-0.366,0-0.704,0.046-1.008,0.141c-0.305,0.093-0.565,0.25-0.781,0.47
		c-0.217,0.22-0.382,0.507-0.501,0.86c-0.118,0.355-0.176,0.795-0.176,1.325v1.123h3.551v1.563h-3.479v10.46H187.609L187.609-92.301
		z M200.244-104.763c0.896,0,1.703,0.149,2.423,0.45c0.722,0.301,1.334,0.727,1.839,1.276c0.503,0.549,0.894,1.212,1.167,1.99
		c0.271,0.778,0.408,1.646,0.408,2.606c0,0.97-0.137,1.842-0.408,2.619c-0.272,0.776-0.663,1.438-1.167,1.984
		c-0.505,0.544-1.117,0.964-1.839,1.262c-0.72,0.297-1.527,0.445-2.423,0.445c-0.902,0-1.715-0.149-2.435-0.445
		c-0.722-0.297-1.335-0.718-1.844-1.262c-0.508-0.547-0.901-1.208-1.177-1.984c-0.278-0.776-0.415-1.651-0.415-2.619
		c0-0.96,0.139-1.828,0.415-2.606c0.275-0.777,0.669-1.441,1.177-1.99c0.509-0.549,1.123-0.975,1.844-1.276
		C198.527-104.614,199.34-104.763,200.244-104.763L200.244-104.763z M200.244-93.814c1.204,0,2.106-0.405,2.703-1.214
		c0.599-0.811,0.897-1.944,0.897-3.401c0-1.464-0.299-2.603-0.897-3.417c-0.598-0.814-1.499-1.221-2.703-1.221
		c-0.618,0-1.152,0.105-1.604,0.316c-0.452,0.213-0.829,0.516-1.13,0.91s-0.526,0.882-0.677,1.459
		c-0.151,0.579-0.225,1.23-0.225,1.953c0,0.725,0.075,1.374,0.225,1.948c0.149,0.575,0.376,1.056,0.677,1.448
		c0.301,0.391,0.678,0.691,1.13,0.902C199.09-93.921,199.625-93.814,200.244-93.814L200.244-93.814z M208.73-92.301v-12.268h1.235
		c0.236,0,0.397,0.042,0.487,0.132c0.088,0.091,0.15,0.246,0.185,0.466l0.134,1.904c0.422-0.854,0.943-1.522,1.563-2.002
		c0.617-0.479,1.342-0.718,2.173-0.718c0.343,0,0.649,0.037,0.922,0.114c0.274,0.078,0.526,0.187,0.764,0.324l-0.281,1.612
		c-0.058,0.204-0.185,0.304-0.378,0.304c-0.114,0-0.289-0.037-0.519-0.114c-0.23-0.077-0.562-0.116-0.982-0.116
		c-0.75,0-1.374,0.218-1.879,0.653c-0.505,0.437-0.929,1.068-1.27,1.899v7.813h-2.152V-92.301z M227.113-92.301
		c-0.31,0-0.501-0.149-0.574-0.451l-0.193-1.49c-0.528,0.644-1.131,1.156-1.807,1.54c-0.676,0.382-1.448,0.572-2.319,0.572
		c-0.699,0-1.337-0.136-1.913-0.408c-0.572-0.273-1.061-0.672-1.464-1.197c-0.401-0.526-0.714-1.179-0.934-1.958
		c-0.218-0.781-0.329-1.682-0.329-2.699c0-0.902,0.123-1.745,0.368-2.526c0.243-0.781,0.595-1.457,1.05-2.027
		c0.456-0.568,1.01-1.019,1.665-1.35c0.657-0.329,1.399-0.493,2.229-0.493c0.75,0,1.388,0.127,1.921,0.384
		c0.535,0.255,1.012,0.612,1.436,1.068v-6.797h2.146v17.833H227.113L227.113-92.301z M222.937-93.875c0.7,0,1.314-0.16,1.844-0.482
		c0.53-0.324,1.017-0.781,1.466-1.374v-5.932c-0.399-0.528-0.836-0.901-1.307-1.117c-0.472-0.215-0.993-0.322-1.563-0.322
		c-1.147,0-2.027,0.41-2.643,1.229c-0.614,0.816-0.92,1.979-0.92,3.484c0,0.799,0.069,1.481,0.208,2.05
		c0.137,0.57,0.339,1.038,0.605,1.404c0.262,0.366,0.59,0.633,0.977,0.806C221.987-93.962,222.434-93.875,222.937-93.875
		L222.937-93.875z M232.01-92.301v-12.268h1.235c0.236,0,0.397,0.042,0.487,0.132c0.088,0.091,0.149,0.246,0.183,0.466l0.135,1.904
		c0.422-0.854,0.943-1.522,1.561-2.002c0.619-0.479,1.344-0.718,2.173-0.718c0.343,0,0.649,0.037,0.924,0.114
		c0.271,0.078,0.526,0.187,0.762,0.324l-0.281,1.612c-0.057,0.204-0.183,0.304-0.376,0.304c-0.115,0-0.287-0.037-0.52-0.114
		c-0.232-0.077-0.559-0.116-0.981-0.116c-0.75,0-1.376,0.218-1.879,0.653c-0.505,0.437-0.927,1.068-1.271,1.899v7.813h-2.152
		V-92.301z M244.154-104.568v12.268h-2.146v-12.268H244.154L244.154-104.568z M244.643-108.415c0,0.204-0.042,0.398-0.128,0.581
		c-0.086,0.185-0.201,0.347-0.341,0.489c-0.145,0.143-0.306,0.253-0.487,0.336c-0.185,0.081-0.38,0.122-0.593,0.122
		s-0.406-0.041-0.586-0.122c-0.179-0.081-0.339-0.191-0.482-0.336c-0.145-0.143-0.257-0.304-0.338-0.489
		c-0.081-0.183-0.122-0.376-0.122-0.581c0-0.211,0.041-0.412,0.122-0.604c0.081-0.19,0.193-0.354,0.338-0.493
		c0.143-0.139,0.303-0.248,0.482-0.331c0.18-0.081,0.375-0.122,0.586-0.122c0.211,0,0.408,0.039,0.593,0.122
		c0.181,0.083,0.343,0.191,0.487,0.331c0.143,0.139,0.257,0.303,0.341,0.493C244.601-108.826,244.643-108.626,244.643-108.415
		L244.643-108.415z M247.958-92.301v-12.268h1.281c0.31,0,0.505,0.149,0.586,0.45l0.159,1.329c0.537-0.584,1.135-1.061,1.794-1.427
		c0.658-0.366,1.422-0.549,2.282-0.549c0.669,0,1.258,0.113,1.771,0.336c0.512,0.226,0.939,0.539,1.281,0.945
		c0.341,0.408,0.602,0.897,0.781,1.471c0.178,0.572,0.269,1.207,0.269,1.898v7.813h-2.148v-7.813c0-0.927-0.214-1.648-0.639-2.161
		c-0.427-0.514-1.079-0.769-1.948-0.769c-0.635,0-1.23,0.151-1.782,0.458c-0.554,0.305-1.065,0.723-1.54,1.251v9.033h-2.147V-92.301
		z M265.538-104.776c0.537,0,1.038,0.06,1.501,0.176c0.462,0.118,0.883,0.292,1.256,0.519h3.333v0.793
		c0,0.268-0.171,0.44-0.514,0.514l-1.39,0.194c0.274,0.521,0.413,1.106,0.413,1.759c0,0.593-0.112,1.135-0.341,1.623
		c-0.229,0.489-0.549,0.904-0.959,1.251c-0.413,0.345-0.897,0.612-1.46,0.801c-0.561,0.187-1.175,0.28-1.842,0.28
		c-0.57,0-1.112-0.071-1.625-0.208c-0.26,0.164-0.456,0.34-0.586,0.528c-0.13,0.187-0.193,0.364-0.193,0.537
		c0,0.293,0.114,0.515,0.347,0.665c0.232,0.149,0.542,0.259,0.929,0.324c0.385,0.065,0.825,0.105,1.316,0.121
		c0.493,0.018,0.996,0.042,1.508,0.081c0.512,0.035,1.016,0.097,1.508,0.183c0.491,0.086,0.934,0.229,1.323,0.435
		c0.391,0.203,0.7,0.482,0.934,0.836c0.23,0.354,0.347,0.816,0.347,1.385c0,0.521-0.13,1.027-0.391,1.52
		c-0.262,0.491-0.639,0.931-1.128,1.318c-0.493,0.386-1.094,0.693-1.805,0.92c-0.714,0.227-1.515,0.343-2.411,0.343
		s-1.682-0.09-2.358-0.27c-0.676-0.179-1.235-0.417-1.677-0.712c-0.445-0.297-0.776-0.642-0.996-1.033
		c-0.22-0.391-0.331-0.803-0.331-1.232c0-0.602,0.191-1.115,0.573-1.54c0.382-0.422,0.906-0.76,1.575-1.014
		c-0.341-0.162-0.616-0.378-0.824-0.647c-0.209-0.268-0.312-0.63-0.312-1.085c0-0.181,0.034-0.363,0.097-0.551
		c0.067-0.187,0.165-0.375,0.299-0.562c0.136-0.188,0.297-0.366,0.489-0.537c0.19-0.172,0.417-0.324,0.677-0.452
		c-0.61-0.334-1.087-0.783-1.427-1.342c-0.341-0.563-0.512-1.216-0.512-1.966c0-0.602,0.114-1.149,0.347-1.636
		c0.23-0.489,0.554-0.903,0.964-1.246c0.412-0.341,0.901-0.605,1.471-0.792C264.241-104.683,264.863-104.776,265.538-104.776
		L265.538-104.776z M269.37-91.63c0-0.308-0.084-0.556-0.255-0.744c-0.172-0.187-0.405-0.331-0.697-0.435
		c-0.292-0.102-0.628-0.174-1.006-0.22c-0.378-0.042-0.776-0.077-1.197-0.097c-0.419-0.02-0.846-0.041-1.281-0.067
		c-0.435-0.024-0.852-0.07-1.251-0.135c-0.456,0.213-0.827,0.479-1.117,0.793c-0.289,0.316-0.431,0.691-0.431,1.124
		c0,0.276,0.072,0.535,0.211,0.774c0.143,0.239,0.359,0.445,0.647,0.616c0.289,0.172,0.656,0.308,1.098,0.41
		c0.445,0.102,0.962,0.153,1.555,0.153c0.577,0,1.1-0.053,1.563-0.158c0.463-0.107,0.855-0.255,1.172-0.445
		c0.317-0.191,0.562-0.422,0.732-0.689C269.286-91.02,269.37-91.313,269.37-91.63L269.37-91.63z M265.538-98.295
		c0.44,0,0.825-0.062,1.16-0.183c0.334-0.123,0.616-0.292,0.843-0.507c0.227-0.215,0.396-0.475,0.505-0.781
		c0.111-0.306,0.167-0.637,0.167-0.996c0-0.756-0.229-1.356-0.685-1.802c-0.456-0.443-1.117-0.663-1.988-0.663
		c-0.864,0-1.522,0.22-1.978,0.663c-0.456,0.443-0.683,1.043-0.683,1.802c0,0.359,0.058,0.69,0.176,0.996
		c0.116,0.306,0.291,0.565,0.514,0.781c0.224,0.216,0.501,0.384,0.836,0.507C264.738-98.357,265.114-98.295,265.538-98.295
		L265.538-98.295z M287.457-92.301h-0.951c-0.212,0-0.384-0.032-0.513-0.097c-0.128-0.065-0.215-0.204-0.257-0.416l-0.244-1.135
		c-0.327,0.294-0.641,0.553-0.947,0.783c-0.304,0.227-0.626,0.42-0.962,0.579c-0.338,0.159-0.698,0.28-1.082,0.361
		c-0.382,0.081-0.81,0.123-1.281,0.123c-0.482,0-0.929-0.067-1.343-0.202c-0.415-0.136-0.775-0.333-1.08-0.598
		c-0.308-0.262-0.551-0.602-0.732-1.012c-0.185-0.414-0.274-0.894-0.274-1.448c0-0.479,0.133-0.945,0.401-1.396
		c0.27-0.452,0.702-0.852,1.297-1.196c0.593-0.347,1.371-0.63,2.331-0.85c0.961-0.218,2.133-0.345,3.516-0.378v-0.962
		c0-0.952-0.204-1.673-0.612-2.161c-0.406-0.489-1.008-0.732-1.807-0.732c-0.528,0-0.973,0.067-1.328,0.202
		c-0.357,0.136-0.667,0.285-0.93,0.451c-0.26,0.167-0.487,0.315-0.677,0.447c-0.19,0.128-0.382,0.193-0.567,0.193
		c-0.146,0-0.272-0.037-0.378-0.114c-0.107-0.077-0.19-0.17-0.259-0.274l-0.391-0.695c0.676-0.651,1.408-1.139,2.192-1.466
		c0.787-0.326,1.654-0.487,2.606-0.487c0.683,0,1.291,0.112,1.824,0.339s0.98,0.545,1.343,0.947s0.639,0.89,0.823,1.464
		c0.188,0.574,0.281,1.202,0.281,1.886V-92.301L287.457-92.301z M281.867-93.618c0.373,0,0.72-0.039,1.036-0.116
		c0.32-0.078,0.616-0.188,0.893-0.329c0.276-0.143,0.542-0.315,0.799-0.514s0.501-0.429,0.739-0.69v-2.551
		c-0.994,0.032-1.837,0.109-2.527,0.232c-0.689,0.121-1.254,0.283-1.69,0.487c-0.434,0.204-0.753,0.441-0.95,0.714
		c-0.201,0.271-0.3,0.579-0.3,0.92c0,0.325,0.052,0.604,0.159,0.835c0.105,0.23,0.246,0.424,0.42,0.574
		c0.176,0.15,0.386,0.261,0.63,0.329C281.316-93.654,281.584-93.618,281.867-93.618L281.867-93.618z M291.207-92.301v-10.425
		l-1.367-0.159c-0.165-0.039-0.301-0.104-0.412-0.188c-0.108-0.086-0.165-0.209-0.165-0.373v-0.88h1.942v-1.184
		c0-0.708,0.097-1.332,0.292-1.874c0.194-0.54,0.476-1,0.843-1.378c0.366-0.378,0.808-0.663,1.323-0.857
		c0.516-0.19,1.101-0.285,1.753-0.285c0.545,0,1.054,0.077,1.525,0.232l-0.048,1.086c-0.009,0.162-0.079,0.262-0.207,0.293
		c-0.13,0.034-0.313,0.049-0.551,0.049h-0.378c-0.365,0-0.702,0.046-1.007,0.141c-0.307,0.093-0.566,0.25-0.781,0.47
		c-0.217,0.22-0.386,0.507-0.502,0.86c-0.117,0.355-0.176,0.795-0.176,1.325v1.123h3.553v1.563h-3.48v10.46H291.207L291.207-92.301z
		 M312.552-92.301H311.6c-0.211,0-0.382-0.032-0.512-0.097c-0.131-0.065-0.215-0.204-0.257-0.416l-0.245-1.135
		c-0.325,0.294-0.641,0.553-0.946,0.783c-0.305,0.227-0.627,0.42-0.963,0.579c-0.338,0.159-0.698,0.28-1.082,0.361
		c-0.382,0.081-0.81,0.123-1.281,0.123c-0.48,0-0.927-0.067-1.342-0.202c-0.414-0.136-0.776-0.333-1.081-0.598
		c-0.306-0.262-0.551-0.602-0.731-1.012c-0.186-0.414-0.276-0.894-0.276-1.448c0-0.479,0.136-0.945,0.406-1.396
		c0.266-0.452,0.698-0.852,1.293-1.196c0.594-0.347,1.371-0.63,2.332-0.85c0.959-0.218,2.131-0.345,3.516-0.378v-0.962
		c0-0.952-0.204-1.673-0.61-2.161c-0.408-0.489-1.013-0.732-1.808-0.732c-0.529,0-0.972,0.067-1.33,0.202
		c-0.359,0.136-0.667,0.285-0.928,0.451c-0.262,0.167-0.489,0.315-0.677,0.447c-0.192,0.128-0.382,0.193-0.568,0.193
		c-0.146,0-0.273-0.037-0.379-0.114c-0.105-0.077-0.191-0.17-0.255-0.274l-0.393-0.695c0.674-0.651,1.404-1.139,2.192-1.466
		c0.785-0.326,1.652-0.487,2.604-0.487c0.683,0,1.291,0.112,1.826,0.339c0.533,0.227,0.98,0.545,1.341,0.947
		c0.362,0.401,0.639,0.89,0.825,1.464c0.188,0.574,0.28,1.202,0.28,1.886V-92.301L312.552-92.301z M306.964-93.618
		c0.373,0,0.718-0.039,1.036-0.116c0.319-0.078,0.614-0.188,0.889-0.329c0.278-0.143,0.546-0.315,0.801-0.514
		c0.257-0.199,0.504-0.429,0.739-0.69v-2.551c-0.994,0.032-1.837,0.109-2.526,0.232c-0.693,0.121-1.257,0.283-1.689,0.487
		c-0.435,0.204-0.753,0.441-0.952,0.714c-0.199,0.271-0.299,0.579-0.299,0.92c0,0.325,0.053,0.604,0.158,0.835
		c0.107,0.23,0.246,0.424,0.421,0.574c0.176,0.15,0.385,0.261,0.63,0.329C306.413-93.654,306.677-93.618,306.964-93.618
		L306.964-93.618z M315.814-92.301v-12.268h1.281c0.31,0,0.505,0.149,0.586,0.45l0.158,1.329c0.538-0.584,1.137-1.061,1.795-1.427
		c0.66-0.366,1.422-0.549,2.284-0.549c0.667,0,1.256,0.113,1.769,0.336c0.514,0.226,0.939,0.539,1.282,0.945
		c0.34,0.408,0.602,0.897,0.781,1.471c0.182,0.572,0.27,1.207,0.27,1.898v7.813h-2.148v-7.813c0-0.927-0.215-1.648-0.641-2.161
		c-0.426-0.514-1.077-0.769-1.946-0.769c-0.637,0-1.231,0.151-1.782,0.458s-1.066,0.723-1.54,1.251v9.033h-2.148V-92.301z
		 M333.394-104.776c0.537,0,1.036,0.06,1.501,0.176c0.463,0.118,0.884,0.292,1.256,0.519h3.333v0.793
		c0,0.268-0.171,0.44-0.512,0.514l-1.391,0.194c0.274,0.521,0.414,1.106,0.414,1.759c0,0.593-0.113,1.135-0.34,1.623
		c-0.229,0.489-0.551,0.904-0.959,1.251c-0.413,0.345-0.897,0.612-1.459,0.801c-0.563,0.187-1.175,0.28-1.842,0.28
		c-0.57,0-1.112-0.071-1.624-0.208c-0.261,0.164-0.456,0.34-0.584,0.528c-0.131,0.187-0.195,0.364-0.195,0.537
		c0,0.293,0.116,0.515,0.347,0.665c0.231,0.149,0.541,0.259,0.929,0.324c0.386,0.065,0.825,0.105,1.316,0.121
		c0.492,0.018,0.995,0.042,1.51,0.081c0.51,0.035,1.013,0.097,1.506,0.183c0.492,0.084,0.935,0.229,1.323,0.435
		c0.391,0.203,0.704,0.482,0.936,0.836c0.232,0.354,0.347,0.816,0.347,1.385c0,0.521-0.128,1.027-0.391,1.52
		c-0.26,0.491-0.637,0.931-1.129,1.318c-0.491,0.386-1.093,0.693-1.808,0.92c-0.711,0.227-1.515,0.343-2.41,0.343
		s-1.683-0.09-2.358-0.27c-0.676-0.179-1.235-0.417-1.679-0.712c-0.443-0.297-0.773-0.642-0.994-1.033
		c-0.22-0.391-0.332-0.803-0.332-1.232c0-0.602,0.191-1.115,0.575-1.54c0.382-0.422,0.906-0.76,1.573-1.014
		c-0.34-0.162-0.616-0.378-0.823-0.647c-0.208-0.268-0.312-0.63-0.312-1.085c0-0.181,0.033-0.363,0.099-0.551
		c0.064-0.187,0.163-0.375,0.299-0.562c0.134-0.188,0.297-0.366,0.489-0.537c0.189-0.172,0.415-0.324,0.677-0.452
		c-0.608-0.334-1.087-0.783-1.427-1.342c-0.343-0.563-0.514-1.216-0.514-1.966c0-0.602,0.114-1.149,0.349-1.636
		c0.232-0.489,0.553-0.903,0.962-1.246c0.412-0.341,0.901-0.605,1.472-0.792C332.094-104.683,332.719-104.776,333.394-104.776
		L333.394-104.776z M337.226-91.63c0-0.308-0.086-0.556-0.257-0.744c-0.172-0.187-0.404-0.331-0.696-0.435
		c-0.294-0.102-0.628-0.174-1.009-0.22c-0.378-0.042-0.777-0.077-1.196-0.097s-0.845-0.041-1.281-0.067
		c-0.435-0.024-0.853-0.07-1.251-0.135c-0.455,0.213-0.828,0.479-1.117,0.793c-0.286,0.316-0.431,0.691-0.431,1.124
		c0,0.276,0.072,0.535,0.211,0.774c0.143,0.239,0.359,0.445,0.647,0.616c0.288,0.172,0.654,0.308,1.098,0.41
		s0.963,0.153,1.556,0.153c0.577,0,1.098-0.053,1.563-0.158c0.463-0.107,0.855-0.255,1.172-0.445
		c0.316-0.191,0.562-0.422,0.732-0.689C337.135-91.02,337.226-91.313,337.226-91.63L337.226-91.63z M333.394-98.295
		c0.438,0,0.825-0.062,1.158-0.183c0.336-0.123,0.617-0.292,0.844-0.507c0.229-0.216,0.398-0.475,0.506-0.781
		c0.108-0.306,0.167-0.637,0.167-0.996c0-0.756-0.229-1.356-0.687-1.802c-0.456-0.445-1.117-0.663-1.988-0.663
		c-0.862,0-1.521,0.22-1.978,0.663c-0.458,0.443-0.685,1.043-0.685,1.802c0,0.359,0.058,0.69,0.178,0.996
		c0.119,0.306,0.288,0.565,0.512,0.781s0.502,0.384,0.836,0.507C332.592-98.357,332.97-98.295,333.394-98.295L333.394-98.295z
		 M348.651-102.541c-0.097,0.178-0.246,0.268-0.45,0.268c-0.112,0-0.248-0.044-0.402-0.134c-0.155-0.09-0.344-0.188-0.568-0.299
		c-0.224-0.109-0.488-0.211-0.792-0.304c-0.305-0.093-0.669-0.139-1.093-0.139c-0.357,0-0.683,0.046-0.977,0.139
		c-0.292,0.095-0.54,0.222-0.744,0.385c-0.203,0.162-0.357,0.349-0.47,0.562c-0.109,0.211-0.166,0.443-0.166,0.695
		c0,0.317,0.094,0.581,0.276,0.788c0.182,0.208,0.421,0.389,0.718,0.542c0.298,0.155,0.636,0.292,1.016,0.408
		c0.378,0.118,0.766,0.243,1.163,0.373c0.397,0.132,0.79,0.278,1.172,0.44c0.382,0.162,0.722,0.366,1.019,0.609
		c0.296,0.247,0.537,0.544,0.72,0.892c0.184,0.35,0.274,0.769,0.274,1.258c0,0.57-0.104,1.096-0.308,1.575
		c-0.201,0.48-0.5,0.896-0.896,1.246c-0.396,0.349-0.878,0.626-1.454,0.829c-0.575,0.2-1.234,0.304-1.984,0.304
		c-0.855,0-1.628-0.141-2.324-0.422c-0.699-0.281-1.283-0.635-1.765-1.068l0.499-0.829c0.065-0.098,0.143-0.176,0.232-0.232
		c0.09-0.058,0.208-0.084,0.354-0.084c0.146,0,0.3,0.053,0.458,0.164c0.158,0.109,0.352,0.234,0.586,0.373
		c0.232,0.139,0.509,0.262,0.836,0.378c0.327,0.112,0.737,0.17,1.233,0.17c0.415,0,0.783-0.056,1.098-0.166
		c0.318-0.111,0.579-0.258,0.788-0.445c0.21-0.188,0.362-0.401,0.465-0.641c0.102-0.239,0.151-0.498,0.151-0.774
		c0-0.334-0.092-0.612-0.272-0.835c-0.186-0.224-0.423-0.416-0.72-0.574c-0.298-0.158-0.638-0.295-1.018-0.408
		c-0.384-0.114-0.775-0.236-1.172-0.366c-0.399-0.13-0.79-0.28-1.179-0.447c-0.386-0.166-0.727-0.375-1.024-0.621
		c-0.295-0.25-0.536-0.56-0.72-0.929c-0.183-0.369-0.272-0.816-0.272-1.335c0-0.473,0.097-0.925,0.29-1.355
		c0.195-0.431,0.48-0.809,0.851-1.137c0.371-0.325,0.827-0.584,1.367-0.781c0.542-0.195,1.157-0.293,1.849-0.293
		c0.813,0,1.54,0.128,2.181,0.383c0.637,0.257,1.194,0.604,1.666,1.043L348.651-102.541L348.651-102.541z M355.846-92.105
		c-0.968,0-1.712-0.271-2.232-0.813c-0.521-0.542-0.781-1.321-0.781-2.336v-7.508h-1.479c-0.128,0-0.237-0.039-0.323-0.116
		c-0.085-0.077-0.129-0.195-0.129-0.361v-0.853l2.002-0.257l0.502-3.797c0.016-0.114,0.066-0.209,0.158-0.287
		c0.09-0.078,0.202-0.115,0.34-0.115h1.087v4.223h3.515v1.563h-3.515v7.36c0,0.521,0.124,0.904,0.373,1.152
		c0.248,0.248,0.57,0.373,0.972,0.373c0.227,0,0.422-0.03,0.59-0.091s0.311-0.128,0.427-0.203c0.118-0.074,0.221-0.141,0.307-0.202
		c0.084-0.06,0.16-0.091,0.226-0.091c0.114,0,0.214,0.07,0.304,0.208l0.625,1.038c-0.366,0.341-0.812,0.612-1.337,0.813
		C356.953-92.205,356.41-92.105,355.846-92.105L355.846-92.105z M366.022-104.763c0.73,0,1.407,0.125,2.032,0.373
		c0.623,0.248,1.159,0.604,1.611,1.068s0.805,1.037,1.056,1.716c0.254,0.679,0.379,1.46,0.379,2.336c0,0.336-0.037,0.56-0.109,0.672
		c-0.074,0.114-0.208,0.17-0.404,0.17h-8.166c0.018,0.774,0.121,1.448,0.318,2.02c0.195,0.574,0.463,1.052,0.797,1.434
		c0.34,0.384,0.74,0.67,1.211,0.862c0.468,0.19,0.99,0.287,1.567,0.287c0.547,0,1.016-0.063,1.404-0.19
		c0.391-0.125,0.727-0.26,1.015-0.401c0.282-0.142,0.52-0.278,0.708-0.403c0.188-0.126,0.35-0.19,0.489-0.19
		c0.179,0,0.318,0.069,0.413,0.208l0.599,0.781c-0.261,0.328-0.577,0.605-0.952,0.841c-0.375,0.237-0.774,0.431-1.196,0.586
		c-0.421,0.155-0.86,0.271-1.313,0.348c-0.451,0.078-0.896,0.115-1.336,0.115c-0.855,0-1.638-0.145-2.351-0.431
		c-0.713-0.291-1.329-0.709-1.85-1.258s-0.928-1.233-1.22-2.05c-0.294-0.818-0.439-1.758-0.439-2.815
		c0-0.854,0.132-1.652,0.396-2.393c0.266-0.741,0.645-1.383,1.137-1.928c0.491-0.545,1.093-0.973,1.808-1.288
		C364.338-104.607,365.135-104.763,366.022-104.763L366.022-104.763z M366.07-103.178c-1.042,0-1.862,0.301-2.46,0.902
		c-0.597,0.602-0.968,1.436-1.116,2.504h6.678c0-0.505-0.068-0.964-0.208-1.379c-0.139-0.414-0.341-0.772-0.61-1.073
		c-0.269-0.301-0.593-0.535-0.977-0.702C366.995-103.095,366.558-103.178,366.07-103.178L366.07-103.178z M373.845-92.301v-12.268
		h1.28c0.31,0,0.505,0.149,0.586,0.45l0.159,1.329c0.536-0.584,1.135-1.061,1.794-1.427c0.658-0.366,1.42-0.549,2.284-0.549
		c0.667,0,1.257,0.113,1.769,0.336c0.514,0.226,0.938,0.539,1.282,0.945c0.34,0.408,0.603,0.897,0.781,1.471
		c0.182,0.572,0.27,1.207,0.27,1.898v7.813h-2.148v-7.813c0-0.927-0.215-1.648-0.641-2.161c-0.428-0.512-1.076-0.769-1.946-0.769
		c-0.637,0-1.231,0.151-1.782,0.458s-1.066,0.723-1.539,1.251v9.033h-2.148V-92.301z"/>
	<path fill="#3E578A" d="M105.869-39.531c0.734,0,1.418,0.107,2.059,0.322c0.639,0.216,1.189,0.531,1.654,0.946
		c0.463,0.414,0.831,0.922,1.098,1.521c0.269,0.598,0.405,1.275,0.405,2.032c0,0.651-0.099,1.251-0.294,1.8
		c-0.195,0.549-0.458,1.079-0.788,1.58c-0.329,0.505-0.711,0.993-1.142,1.466c-0.431,0.472-0.89,0.95-1.378,1.439l-4.566,4.675
		c0.324-0.09,0.651-0.16,0.982-0.215c0.327-0.053,0.649-0.079,0.957-0.079h5.81c0.236,0,0.424,0.069,0.563,0.208
		c0.137,0.139,0.206,0.317,0.206,0.537v1.308H99.852v-0.746c0-0.146,0.03-0.301,0.091-0.464c0.062-0.162,0.16-0.313,0.299-0.451
		l5.555-5.578c0.463-0.472,0.885-0.924,1.264-1.355c0.378-0.433,0.702-0.864,0.971-1.3c0.269-0.437,0.475-0.878,0.623-1.325
		c0.146-0.447,0.22-0.927,0.22-1.439c0-0.505-0.079-0.948-0.238-1.33c-0.158-0.382-0.38-0.7-0.665-0.95
		c-0.285-0.253-0.618-0.443-0.994-0.568c-0.378-0.126-0.788-0.187-1.227-0.187c-0.431,0-0.835,0.063-1.208,0.194
		c-0.375,0.13-0.704,0.31-0.989,0.542c-0.285,0.23-0.526,0.505-0.725,0.818c-0.201,0.313-0.341,0.662-0.422,1.045
		c-0.058,0.227-0.149,0.394-0.282,0.501c-0.128,0.105-0.301,0.158-0.512,0.158c-0.039,0-0.083-0.001-0.127-0.005
		c-0.044-0.003-0.097-0.009-0.151-0.018l-1.124-0.195c0.112-0.788,0.331-1.49,0.651-2.099c0.322-0.61,0.732-1.123,1.228-1.533
		c0.495-0.412,1.066-0.721,1.708-0.934C104.437-39.426,105.127-39.531,105.869-39.531L105.869-39.531z M113.691-23.32
		c0-0.211,0.039-0.412,0.116-0.598c0.077-0.188,0.183-0.349,0.316-0.484c0.136-0.134,0.296-0.243,0.484-0.324
		c0.187-0.081,0.384-0.122,0.584-0.122c0.213,0,0.414,0.039,0.6,0.122c0.188,0.081,0.348,0.19,0.482,0.324s0.241,0.294,0.318,0.484
		c0.078,0.187,0.115,0.385,0.115,0.598c0,0.22-0.037,0.419-0.115,0.598c-0.077,0.178-0.185,0.338-0.318,0.475
		c-0.134,0.139-0.294,0.247-0.482,0.326c-0.187,0.076-0.387,0.114-0.6,0.114c-0.201,0-0.398-0.039-0.584-0.114
		c-0.188-0.079-0.348-0.187-0.484-0.326c-0.133-0.139-0.239-0.297-0.316-0.475C113.729-22.901,113.691-23.1,113.691-23.32
		L113.691-23.32z"/>
	<path fill="#008080" d="M79.537,30c0.732,0,1.411,0.105,2.031,0.313c0.625,0.206,1.159,0.503,1.606,0.89
		c0.447,0.387,0.797,0.855,1.05,1.404c0.251,0.549,0.378,1.161,0.378,1.837c0,0.547-0.072,1.033-0.215,1.466
		c-0.143,0.433-0.347,0.813-0.609,1.142c-0.266,0.329-0.583,0.607-0.954,0.831c-0.371,0.224-0.783,0.407-1.239,0.544
		c1.131,0.301,1.979,0.8,2.546,1.501c0.564,0.7,0.848,1.578,0.848,2.637c0,0.795-0.149,1.517-0.45,2.154
		c-0.301,0.639-0.716,1.181-1.241,1.629c-0.526,0.447-1.136,0.79-1.837,1.031c-0.7,0.241-1.448,0.359-2.247,0.359
		c-0.919,0-1.707-0.114-2.363-0.347c-0.655-0.232-1.209-0.551-1.659-0.952c-0.452-0.403-0.824-0.882-1.11-1.434
		c-0.291-0.555-0.537-1.151-0.739-1.795l0.927-0.391c0.162-0.074,0.329-0.111,0.501-0.111c0.162,0,0.306,0.035,0.433,0.105
		c0.125,0.069,0.22,0.176,0.285,0.322c0.018,0.035,0.033,0.068,0.049,0.104c0.016,0.039,0.031,0.076,0.049,0.116
		c0.113,0.236,0.25,0.501,0.408,0.793c0.159,0.294,0.377,0.567,0.653,0.824c0.276,0.257,0.618,0.475,1.024,0.651
		c0.408,0.183,0.913,0.269,1.515,0.269c0.611,0,1.144-0.098,1.6-0.299c0.456-0.199,0.834-0.456,1.135-0.769
		c0.301-0.315,0.53-0.664,0.685-1.05c0.153-0.387,0.23-0.772,0.23-1.154c0-0.465-0.063-0.891-0.188-1.281
		c-0.127-0.391-0.352-0.725-0.676-1.008c-0.327-0.28-0.778-0.501-1.355-0.665c-0.579-0.162-1.32-0.245-2.222-0.245V37.86
		c0.733-0.007,1.358-0.086,1.879-0.237c0.521-0.149,0.947-0.361,1.276-0.63c0.329-0.268,0.57-0.588,0.722-0.959
		c0.149-0.368,0.225-0.783,0.225-1.239c0-0.496-0.078-0.929-0.239-1.3c-0.159-0.37-0.373-0.678-0.646-0.924
		c-0.272-0.243-0.596-0.426-0.971-0.549c-0.375-0.122-0.781-0.183-1.219-0.183c-0.431,0-0.834,0.063-1.209,0.193
		c-0.375,0.13-0.706,0.312-0.991,0.544c-0.283,0.234-0.524,0.507-0.718,0.823c-0.195,0.32-0.341,0.664-0.44,1.038
		c-0.065,0.229-0.16,0.395-0.287,0.5c-0.127,0.105-0.292,0.16-0.495,0.16c-0.041,0-0.084-0.004-0.128-0.007
		c-0.046-0.003-0.095-0.01-0.153-0.019l-1.123-0.195c0.113-0.789,0.331-1.489,0.653-2.099c0.32-0.609,0.729-1.121,1.227-1.531
		c0.498-0.413,1.066-0.723,1.71-0.936C78.103,30.097,78.798,30,79.537,30L79.537,30z M87.13,46.211c0-0.209,0.037-0.41,0.115-0.597
		c0.077-0.187,0.183-0.348,0.316-0.482c0.134-0.135,0.296-0.245,0.482-0.326c0.187-0.083,0.383-0.121,0.584-0.121
		c0.213,0,0.414,0.039,0.6,0.121c0.188,0.081,0.349,0.188,0.484,0.326c0.134,0.132,0.239,0.294,0.317,0.482
		c0.077,0.188,0.116,0.387,0.116,0.597c0,0.222-0.039,0.42-0.116,0.6c-0.078,0.178-0.183,0.338-0.317,0.475
		c-0.135,0.139-0.295,0.248-0.484,0.326c-0.187,0.077-0.387,0.114-0.6,0.114c-0.201,0-0.397-0.037-0.584-0.114
		c-0.188-0.078-0.349-0.187-0.482-0.326c-0.135-0.137-0.239-0.297-0.316-0.475C87.167,46.632,87.13,46.433,87.13,46.211
		L87.13,46.211z"/>
	<path fill="#800080" d="M68.906,99.092h2.625v1.235c0,0.13-0.041,0.24-0.118,0.329c-0.076,0.09-0.195,0.134-0.359,0.134h-2.146
		v4.566h-1.906v-4.566h-7.689c-0.162,0-0.301-0.046-0.415-0.141c-0.113-0.093-0.187-0.209-0.218-0.345l-0.22-1.098l8.434-11.207
		h2.015v11.092H68.906z M67,91.941c0-0.213,0.005-0.438,0.02-0.679c0.012-0.239,0.039-0.487,0.079-0.75l-6.31,8.582H67V91.941
		L67,91.941z M73.067,104.024c0-0.209,0.039-0.41,0.116-0.597c0.078-0.187,0.183-0.347,0.317-0.481
		c0.134-0.136,0.295-0.245,0.48-0.326c0.188-0.082,0.383-0.121,0.586-0.121c0.213,0,0.414,0.039,0.6,0.121
		c0.188,0.081,0.348,0.188,0.484,0.326c0.132,0.133,0.239,0.293,0.316,0.481c0.078,0.188,0.115,0.388,0.115,0.597
		c0,0.222-0.037,0.421-0.115,0.6c-0.077,0.178-0.185,0.338-0.316,0.476c-0.136,0.139-0.296,0.248-0.484,0.325
		c-0.187,0.078-0.387,0.114-0.6,0.114c-0.203,0-0.398-0.036-0.586-0.114c-0.187-0.077-0.347-0.187-0.48-0.325
		c-0.135-0.138-0.239-0.298-0.317-0.476C73.106,104.445,73.067,104.245,73.067,104.024L73.067,104.024z"/>
	<path d="M714.859,134.091v1.978h-5.6v15.381h-2.354v-15.381h-5.633v-1.978H714.859L714.859,134.091z M719.374,139.178v12.271
		h-2.146v-12.271H719.374L719.374,139.178z M719.861,135.335c0,0.204-0.038,0.397-0.125,0.581c-0.086,0.181-0.204,0.343-0.343,0.487
		c-0.141,0.145-0.305,0.257-0.485,0.338c-0.187,0.082-0.384,0.123-0.595,0.123c-0.21,0-0.405-0.041-0.584-0.123
		c-0.182-0.081-0.344-0.193-0.486-0.338s-0.25-0.305-0.338-0.487c-0.077-0.186-0.114-0.377-0.114-0.581
		c0-0.211,0.037-0.412,0.114-0.604c0.088-0.19,0.195-0.357,0.338-0.492c0.141-0.14,0.305-0.25,0.486-0.333
		c0.181-0.081,0.374-0.119,0.584-0.119c0.211,0,0.408,0.038,0.595,0.119c0.181,0.083,0.343,0.191,0.485,0.333
		c0.139,0.135,0.259,0.302,0.343,0.492C719.821,134.923,719.861,135.122,719.861,135.335L719.861,135.335z M731.805,151.449
		c-0.305,0-0.5-0.151-0.57-0.452l-0.193-1.488c-0.531,0.64-1.132,1.154-1.804,1.537c-0.681,0.384-1.455,0.574-2.32,0.574
		c-0.706,0-1.336-0.136-1.917-0.408c-0.568-0.273-1.063-0.673-1.46-1.196c-0.408-0.526-0.72-1.18-0.939-1.961
		c-0.22-0.782-0.327-1.682-0.327-2.697c0-0.904,0.125-1.747,0.365-2.526c0.243-0.781,0.595-1.457,1.048-2.027
		c0.461-0.57,1.013-1.019,1.671-1.348c0.649-0.331,1.392-0.494,2.228-0.494c0.75,0,1.389,0.126,1.92,0.385
		c0.531,0.257,1.01,0.612,1.431,1.068v-6.799h2.148v17.835h-1.279V151.449z M727.634,149.874c0.704,0,1.313-0.161,1.842-0.483
		c0.532-0.322,1.014-0.779,1.463-1.374v-5.932c-0.399-0.53-0.829-0.901-1.306-1.117c-0.469-0.217-0.992-0.324-1.563-0.324
		c-1.149,0-2.023,0.41-2.642,1.227c-0.615,0.818-0.92,1.983-0.92,3.487c0,0.796,0.068,1.479,0.2,2.052
		c0.141,0.568,0.344,1.036,0.609,1.404c0.266,0.364,0.586,0.634,0.977,0.803C726.681,149.788,727.127,149.874,727.634,149.874
		L727.634,149.874z"/>
</g>
</svg>
