<svg xml:space="preserve" xmlns:xlink="http://www.w3.org/1999/xlink" width="1000" height="360.156" viewBox="-222.5 -160.269 1000 360.156" xmlns="http://www.w3.org/2000/svg"><path fill="#FFF" d="M-222.5-160.269h1000v360.156h-1000z"/><defs><path id="ha-angstkurver_svg__a" d="M-161.067-144.613h934.655V183.09h-934.655z"/></defs><clipPath id="ha-angstkurver_svg__b"><use xlink:href="#ha-angstkurver_svg__a" overflow="visible"/></clipPath><path fill="none" stroke="#3E578A" stroke-linejoin="round" stroke-miterlimit="10" stroke-width="1.734" d="m-157.942 179.965 4.876-.033 4.246-.173 4.77-.478 4.804-.883 4.781-1.35 4.434-1.713 4.589-2.257 4.745-2.863 4.732-3.378 4.869-4.005 4.286-3.941 4.826-4.878 4.846-5.319 4.669-5.483 4.242-5.245 5.043-6.521 4.27-5.717 4.969-6.834 4.401-6.167 4.825-6.852 9.389-13.417 4.404-6.259 4.747-6.681 4.934-6.829 4.295-5.822 4.638-6.139 4.79-6.154 4.687-5.806 4.536-5.407 5.035-5.737 4.527-4.902 4.83-4.956 4.378-4.232 4.786-4.343 4.503-3.809 4.709-3.686 4.601-3.312 4.819-3.157 4.64-2.741L33.275-.02l4.707-2.181 4.323-1.751 4.956-1.705 4.435-1.262 4.724-1.077 4.526-.778 5.023-.584 4.35-.275 4.936-.063 4.499.169 4.923.412 4.246.542 4.837.822 4.671.985 4.669 1.165 4.652 1.33 4.469 1.427 4.831 1.694 4.603 1.758 4.847 1.987 4.385 1.911 4.848 2.228 4.645 2.237 4.633 2.327 4.837 2.521 4.455 2.393 4.564 2.522 5.04 2.852 4.56 2.637 4.667 2.744 4.744 2.831 4.362 2.639 4.65 2.835 4.614 2.84 4.937 3.056 4.355 2.706 14.047 8.754 4.825 2.999 4.842 3 4.41 2.718 4.682 2.869 4.566 2.776 4.951 2.986 4.285 2.56 4.921 2.909 4.628 2.704 4.582 2.647 4.584 2.609 4.677 2.629 4.956 2.745 4.546 2.476 4.484 2.403 4.797 2.529 4.786 2.475 4.295 2.182 5.089 2.536 4.258 2.079 4.978 2.387 4.756 2.226 4.24 1.946 4.775 2.142 4.803 2.109 4.781 2.046 4.432 1.858 4.591 1.878 4.747 1.891 4.732 1.842 4.867 1.844 4.286 1.582 4.826 1.737 4.845 1.695 4.671 1.59 4.239 1.406 5.043 1.628 4.27 1.339 4.971 1.512 4.399 1.303 4.825 1.387 4.594 1.282 4.794 1.297 4.405 1.154 4.748 1.212 4.935 1.218 4.291 1.026 4.642 1.077 4.792 1.077 4.685 1.018 4.537.954 5.036 1.028 4.525.89 4.828.92 4.382.808 4.782.85 4.505.778 4.706.785 4.604.74 4.819.748 4.639.696 4.747.685 4.705.658 4.325.584 4.956.645 4.435.557 4.725.571 4.523.531 5.023.564 4.352.47 4.937.516 4.499.454 4.92.478 4.249.398 4.83.434 4.672.406 4.675.388 4.647.373 4.468.347 4.828.359 4.612.331 4.84.331 4.385.29 4.852.31 4.639.283 4.635.275 4.834.272 4.462.241 4.561.24 5.042.25 4.56.221 4.664.215 4.751.211 4.361.183 4.648.193 4.616.18 4.93.188 4.36.157 5.024.175 4.529.151 4.492.143 4.82.149 4.845.142 4.415.123 4.679.125 4.571.121 4.945.122 4.29.104 4.92.11 4.626.103 4.578.097 4.586.089 4.678.09 4.953.093 4.548.081 4.486.075 4.795.078 4.79.074 4.507.067" clip-path="url(#ha-angstkurver_svg__b)"/><defs><path id="ha-angstkurver_svg__c" d="M-161.067-144.613h934.655V183.09h-934.655z"/></defs><clipPath id="ha-angstkurver_svg__d"><use xlink:href="#ha-angstkurver_svg__c" overflow="visible"/></clipPath><path fill="none" stroke="#00786A" stroke-linejoin="round" stroke-miterlimit="10" stroke-width="1.734" d="m-157.942 179.965 4.876-.022 4.246-.11 4.77-.304 4.804-.563 4.781-.857 4.434-1.091 4.589-1.438 4.745-1.819 4.732-2.152 4.869-2.548 4.286-2.507 4.826-3.105 4.846-3.384 4.669-3.489 4.242-3.338 5.043-4.15 4.27-3.637 4.969-4.349 4.401-3.924 4.825-4.36 9.389-8.539 4.404-3.983 4.747-4.253 4.934-4.345 4.295-3.705 4.638-3.906 4.79-3.915 4.687-3.697 4.536-3.44 5.035-3.651 4.527-3.118 4.83-3.155 4.378-2.694 4.786-2.762 4.503-2.423 4.709-2.349 4.601-2.106 4.819-2.012 4.64-1.743 4.746-1.593 4.707-1.388 4.323-1.114 4.956-1.087 4.435-.801 4.724-.686 4.526-.494 5.023-.372 4.35-.174 4.936-.04 4.499.103 4.923.266 4.246.345 4.837.521 4.671.629 4.669.74 4.652.846 4.469.908 4.831 1.077 4.603 1.119 4.847 1.265 4.385 1.216 4.848 1.416 4.645 1.426 4.633 1.481 4.837 1.603 4.455 1.526 4.564 1.605 5.04 1.813 4.56 1.679 4.667 1.746 4.744 1.803 4.362 1.677 4.65 1.807 4.614 1.804 4.937 1.946 4.355 1.723 14.047 5.568 4.825 1.911 4.842 1.909 4.41 1.729 4.682 1.822 4.566 1.771 4.951 1.898 4.285 1.631 4.921 1.851 4.628 1.721 4.582 1.683 4.584 1.662 4.677 1.672 4.956 1.745 4.546 1.577 4.484 1.529 4.797 1.608 4.786 1.575 4.295 1.39 5.089 1.612 4.258 1.326 4.978 1.516 4.756 1.418 4.24 1.239 4.775 1.365 4.803 1.341 4.781 1.304 4.432 1.18 4.591 1.193 4.747 1.206 4.732 1.17 4.867 1.173 4.286 1.006 4.826 1.108 4.845 1.08 4.671 1.012 4.239.893 5.043 1.035 4.27.854 4.971.962 4.399.829 4.825.882 4.594.816 4.794.825 4.405.734 4.748.772 4.935.774 4.291.655 4.642.684 4.792.685 4.685.647 4.537.609 5.036.651 4.525.569 4.828.585 4.382.512 4.782.544 4.505.493 4.706.499 4.604.472 4.819.477 4.639.442 4.747.436 4.705.42 4.325.371 4.956.409 4.435.355 4.725.364 4.523.336 5.023.362 4.352.3 4.937.326 4.499.289 4.92.303 4.249.254 4.83.277 4.672.258 4.675.249 4.647.235 4.468.22 4.828.229 4.612.211 4.84.213 4.385.183 4.852.197 4.639.179 4.635.176 4.834.173 4.462.154 4.561.152 5.042.16 4.56.139 4.664.139 4.751.134 4.361.116 4.648.123 4.616.115 4.93.119 4.36.098 5.024.114 4.529.096 4.492.088 4.82.097 4.845.09 4.415.081 4.679.079 4.571.075 4.945.078 4.29.067 4.92.07 4.626.065 4.578.058 4.586.06 4.678.058 4.953.058 4.548.05 4.486.05 4.795.05 4.79.045 4.507.044" clip-path="url(#ha-angstkurver_svg__d)"/><defs><path id="ha-angstkurver_svg__e" d="M-161.067-144.613h934.655V183.09h-934.655z"/></defs><clipPath id="ha-angstkurver_svg__f"><use xlink:href="#ha-angstkurver_svg__e" overflow="visible"/></clipPath><path fill="none" stroke="#780072" stroke-linejoin="round" stroke-miterlimit="10" stroke-width="1.734" d="m-157.942 179.965 4.876-.014 4.246-.061 4.77-.177 4.804-.318 4.781-.492 4.434-.622 4.589-.822 4.745-1.041 4.732-1.226 4.869-1.455 4.286-1.437 4.826-1.771 4.846-1.934 4.669-1.995 4.242-1.908 5.043-2.37 4.27-2.08 4.969-2.485 4.401-2.243 4.825-2.491 9.389-4.88 4.404-2.277 4.747-2.428 4.934-2.483 4.295-2.117 4.638-2.232 4.79-2.239 4.687-2.111 4.536-1.966 5.035-2.085 4.527-1.786 4.83-1.8 4.378-1.539 4.786-1.579 4.503-1.386 4.709-1.339 4.601-1.203 4.819-1.151 4.64-.994 4.746-.912 4.707-.795 4.323-.636 4.956-.619 4.435-.461 4.724-.39 4.526-.284 5.023-.211 4.35-.102 4.936-.02 4.499.061 4.923.149 4.246.198 4.837.296 4.671.361 4.669.423 4.652.482 4.469.521 4.831.614 4.603.641 4.847.722 4.385.695 4.848.81 4.645.812 4.633.849 4.837.916 4.455.869 4.564.919 5.04 1.034 4.56.959 4.667 1 4.744 1.03 4.362.959 4.65 1.033 4.614 1.03 4.937 1.11 4.355.985 14.047 3.184 4.825 1.089 4.842 1.093 4.41.987 4.682 1.043 4.566 1.009 4.951 1.087 4.285.931 4.921 1.057 4.628.983 4.582.962 4.584.952 4.677.955 4.956.998 4.546.901 4.484.874 4.797.919 4.786.901 4.295.792 5.089.923 4.258.757 4.978.864 4.756.811 4.24.709 4.775.779 4.803.766 4.781.746 4.432.674 4.591.683 4.747.686 4.732.672 4.867.671 4.286.575 4.826.632 4.845.614 4.671.58 4.239.511 5.043.593 4.27.483 4.971.553 4.399.473 4.825.505 4.594.466 4.794.472 4.405.421 4.748.439 4.935.441 4.291.375 4.642.391 4.792.393 4.685.37 4.537.347 5.036.371 4.525.327 4.828.334 4.382.294 4.782.307 4.505.285 4.706.284 4.604.267 4.819.275 4.639.252 4.747.25 4.705.239 4.325.213 4.956.234 4.435.202 4.725.207 4.523.195 5.023.205 4.352.171 4.937.186 4.499.167 4.92.173 4.249.145 4.83.158 4.672.147 4.675.141 4.647.138 4.468.123 4.828.132 4.612.12 4.84.121 4.385.105 4.852.112 4.639.101 4.635.103 4.834.098 4.462.086 4.561.086 5.042.095 4.56.079 4.664.078 4.751.077 4.361.068 4.648.07 4.616.062 4.93.07 4.36.057 5.024.064 4.529.056 4.492.049 4.82.057 4.845.051 4.415.044 4.679.048 4.571.042 4.945.043 4.29.04 4.92.038 4.626.039 4.578.033 4.586.035 4.678.033 4.953.034 4.548.029 4.486.026 4.795.029 4.79.027 4.507.023" clip-path="url(#ha-angstkurver_svg__f)"/><defs><path id="ha-angstkurver_svg__g" d="M-161.067-144.613h934.655V183.09h-934.655z"/></defs><clipPath id="ha-angstkurver_svg__h"><use xlink:href="#ha-angstkurver_svg__g" overflow="visible"/></clipPath><path fill="none" stroke="orange" stroke-linejoin="round" stroke-miterlimit="10" stroke-width="1.734" d="m-157.942 179.965 4.876-.049 4.246-.26 4.77-.716 4.804-1.327 4.781-2.026 4.434-2.565 4.589-3.387 4.745-4.294 4.732-5.069 4.869-6.004 4.286-5.915 4.826-7.315 4.846-7.978 4.669-8.228 4.242-7.869 5.043-9.775 4.27-8.578 4.969-10.252 4.401-9.252 4.825-10.277 9.389-20.126 4.404-9.387 4.747-10.021 4.934-10.244 4.295-8.733 4.638-9.208 4.79-9.229 4.687-8.713 4.536-8.11 5.035-8.603 4.527-7.353 4.83-7.433 4.378-6.352 4.786-6.514 4.503-5.711 4.709-5.529 4.601-4.969 4.819-4.736 4.64-4.113 4.746-3.755 4.707-3.276 4.323-2.623 4.956-2.559 4.435-1.891 4.724-1.616 4.526-1.166 5.023-.876 4.35-.412 4.936-.095 4.499.251 4.923.62 4.246.816 4.837 1.228 4.671 1.478 4.669 1.747 4.652 1.994 4.469 2.14 4.831 2.544 4.603 2.636 4.847 2.979 4.385 2.866 4.848 3.342 4.645 3.357 4.633 3.491 4.837 3.779 4.455 3.594 4.564 3.779 5.04 4.278 4.56 3.957 4.667 4.117 4.744 4.248 4.362 3.956 4.65 4.256 4.614 4.256 4.937 4.582 4.355 4.063 14.047 13.13 4.825 4.497 4.842 4.501 4.41 4.077 4.682 4.301 4.566 4.167 4.951 4.479 4.285 3.84 4.921 4.363 4.628 4.056 4.582 3.968 4.584 3.919 4.677 3.943 4.956 4.114 4.546 3.714 4.484 3.606 4.797 3.792 4.786 3.714 4.295 3.273 5.089 3.802 4.258 3.122 4.978 3.577 4.756 3.339 4.24 2.921 4.775 3.215 4.803 3.162 4.781 3.072 4.432 2.784 4.591 2.814 4.747 2.839 4.732 2.763 4.867 2.764 4.286 2.375 4.826 2.603 4.845 2.547 4.671 2.385 4.239 2.108 5.043 2.437 4.27 2.009 4.971 2.271 4.399 1.953 4.825 2.081 4.594 1.924 4.794 1.945 4.405 1.735 4.748 1.817 4.935 1.822 4.291 1.543 4.642 1.612 4.792 1.617 4.685 1.528 4.537 1.431 5.036 1.542 4.525 1.335 4.828 1.38 4.382 1.21 4.782 1.28 4.505 1.165 4.706 1.173 4.604 1.113 4.819 1.122 4.639 1.044 4.747 1.031 4.705.985 4.325.872 4.956.968 4.435.838 4.725.858 4.523.79 5.023.852 4.352.706 4.937.775 4.499.68 4.92.716 4.249.595 4.83.653 4.672.606 4.675.586 4.647.56 4.468.518 4.828.54 4.612.495 4.84.497 4.385.436 4.852.461 4.639.428 4.635.406 4.834.412 4.462.363 4.561.359 5.042.378 4.56.329 4.664.322 4.751.315 4.361.28 4.648.287 4.616.273 4.93.276 4.36.239 5.024.26 4.529.228 4.492.214 4.82.222 4.845.215 4.415.185 4.679.191 4.571.178 4.945.184 4.29.154 4.92.168 4.626.152 4.578.144 4.586.137 4.678.134 4.953.14 4.548.119 4.486.112 4.795.118 4.79.111 4.507.102" clip-path="url(#ha-angstkurver_svg__h)"/><defs><path id="ha-angstkurver_svg__i" d="M-218.594-156.363h992.188v352.344h-992.188z"/></defs><clipPath id="ha-angstkurver_svg__j"><use xlink:href="#ha-angstkurver_svg__i" overflow="visible"/></clipPath><path fill="none" stroke="#000" stroke-linejoin="round" stroke-miterlimit="10" stroke-width="1.734" d="M-157.942 179.965H769.68m-927.622 0v-320.671m0 320.671h-10.55" clip-path="url(#ha-angstkurver_svg__j)"/><path d="M-176.368 181.844c0 1.514-.162 2.824-.489 3.938-.325 1.11-.771 2.03-1.337 2.757-.565.729-1.233 1.271-2.006 1.622a5.895 5.895 0 0 1-2.478.533 5.786 5.786 0 0 1-2.472-.533c-.76-.352-1.424-.894-1.99-1.622-.565-.727-1.008-1.646-1.33-2.757-.322-1.112-.484-2.425-.484-3.938 0-1.523.16-2.84.484-3.955.322-1.114.765-2.036 1.33-2.765.566-.729 1.23-1.271 1.99-1.622a5.786 5.786 0 0 1 2.472-.533c.878 0 1.703.18 2.478.533.772.352 1.441.894 2.006 1.622.566.729 1.013 1.65 1.337 2.765.326 1.115.489 2.432.489 3.955zm-2.236 0c0-1.326-.113-2.44-.336-3.34-.225-.898-.521-1.622-.896-2.173-.375-.549-.808-.941-1.302-1.184a3.458 3.458 0 0 0-1.543-.359 3.45 3.45 0 0 0-1.533.359c-.491.242-.924.637-1.293 1.184-.37.549-.667 1.274-.892 2.173-.224.899-.334 2.012-.334 3.34 0 1.316.111 2.429.334 3.328.225.898.521 1.622.892 2.173.372.549.802.939 1.293 1.177a3.51 3.51 0 0 0 1.533.353c.537 0 1.052-.116 1.543-.353.493-.237.927-.63 1.302-1.177.375-.551.674-1.274.896-2.173.223-.899.336-2.012.336-3.328z"/><path fill="none" stroke="#000" stroke-linejoin="round" stroke-miterlimit="10" stroke-width="1.734" d="M-157.942 19.629h-10.55"/><path d="M-191.908 13.948c0 .308-.097.563-.287.757-.192.195-.519.294-.982.294h-5.444l-.804 4.554a11.895 11.895 0 0 1 2.502-.292c.912 0 1.712.134 2.398.401.688.27 1.267.639 1.733 1.105s.822 1.022 1.061 1.661c.239.641.361 1.332.361 2.082 0 .918-.162 1.749-.489 2.49a5.83 5.83 0 0 1-1.323 1.904 5.752 5.752 0 0 1-1.979 1.223 6.954 6.954 0 0 1-2.458.426 6.743 6.743 0 0 1-1.471-.153 7.41 7.41 0 0 1-1.306-.408 7.762 7.762 0 0 1-1.124-.581 6.252 6.252 0 0 1-.922-.689l.66-.915c.146-.211.339-.317.574-.317.155 0 .336.06.542.187.208.127.456.264.746.416.289.151.628.287 1.019.413.389.127.858.188 1.402.188.602 0 1.147-.099 1.629-.292a3.6 3.6 0 0 0 1.246-.831c.345-.357.609-.79.792-1.288.185-.5.276-1.061.276-1.68 0-.545-.078-1.035-.232-1.469s-.394-.806-.714-1.11a3.313 3.313 0 0 0-1.197-.714c-.475-.171-1.029-.257-1.665-.257-.439 0-.894.037-1.36.111-.468.074-.95.191-1.446.354l-1.355-.403 1.402-8.117h8.217v.954h-.002zm15.51 7.738c0 1.515-.162 2.826-.487 3.94-.327 1.11-.771 2.03-1.337 2.757-.566.727-1.235 1.269-2.009 1.623a5.874 5.874 0 0 1-2.478.531c-.887 0-1.712-.178-2.472-.531s-1.425-.896-1.988-1.623c-.565-.727-1.01-1.647-1.331-2.757-.32-1.112-.482-2.425-.482-3.94 0-1.522.16-2.838.482-3.954.32-1.116.766-2.036 1.331-2.766.565-.729 1.228-1.271 1.988-1.624a5.786 5.786 0 0 1 2.472-.532c.88 0 1.705.178 2.478.532.774.354 1.443.896 2.009 1.624s1.01 1.65 1.337 2.766c.325 1.116.487 2.434.487 3.954zm-2.231 0c0-1.325-.113-2.439-.338-3.34-.224-.899-.523-1.622-.897-2.171-.375-.549-.808-.945-1.3-1.185a3.46 3.46 0 0 0-3.078 0c-.493.239-.922.635-1.293 1.185-.371.549-.668 1.274-.892 2.171-.225.901-.337 2.013-.337 3.34 0 1.318.112 2.43.337 3.329.224.899.521 1.621.892 2.173.372.549.801.939 1.293 1.175a3.501 3.501 0 0 0 1.533.354c.537 0 1.05-.118 1.545-.354.493-.236.925-.628 1.3-1.175.375-.553.674-1.274.897-2.173.226-.899.338-2.009.338-3.329z"/><path fill="none" stroke="#000" stroke-linejoin="round" stroke-miterlimit="10" stroke-width="1.734" d="M-157.942-140.706h-10.55"/><path d="M-214.334-131.448h3.724v-11.83c0-.359.012-.714.037-1.073l-3.1 2.648a.845.845 0 0 1-.238.141.694.694 0 0 1-.556-.037.581.581 0 0 1-.22-.188l-.683-.929 5.164-4.48h1.758v15.748h3.419v1.649h-9.305v-1.649zm23.876-7.02c0 1.513-.162 2.826-.488 3.938-.327 1.11-.772 2.03-1.337 2.757-.567.729-1.237 1.271-2.01 1.624a5.858 5.858 0 0 1-2.477.532 5.764 5.764 0 0 1-2.473-.532c-.76-.354-1.425-.896-1.988-1.624-.564-.727-1.01-1.648-1.33-2.757-.32-1.11-.484-2.425-.484-3.938 0-1.522.162-2.842.484-3.956.322-1.112.766-2.036 1.33-2.765.565-.728 1.229-1.269 1.988-1.624a5.785 5.785 0 0 1 2.473-.529c.879 0 1.705.176 2.477.529.772.355 1.443.896 2.01 1.624.564.727 1.01 1.651 1.337 2.765.326 1.116.488 2.434.488 3.956zm-2.235 0c0-1.327-.111-2.439-.336-3.338-.224-.899-.523-1.625-.897-2.173-.375-.551-.808-.945-1.3-1.184a3.509 3.509 0 0 0-1.545-.361c-.53 0-1.04.12-1.533.361-.493.239-.924.635-1.295 1.184-.371.547-.668 1.274-.892 2.173-.225.899-.336 2.011-.336 3.338 0 1.318.111 2.426.336 3.325.224.899.521 1.625.892 2.173.371.551.802.943 1.295 1.179a3.502 3.502 0 0 0 3.078 0c.491-.236.925-.628 1.3-1.179.375-.549.674-1.274.897-2.173.225-.899.336-2.006.336-3.325zm16.271 0c0 1.513-.162 2.826-.488 3.938-.327 1.11-.772 2.03-1.337 2.757-.567.729-1.235 1.271-2.008 1.624-.772.355-1.6.532-2.478.532a5.756 5.756 0 0 1-2.472-.532c-.76-.354-1.425-.896-1.988-1.624-.565-.727-1.01-1.648-1.33-2.757-.322-1.11-.484-2.425-.484-3.938 0-1.522.162-2.842.484-3.956.32-1.114.764-2.036 1.33-2.765.565-.728 1.228-1.269 1.988-1.624a5.777 5.777 0 0 1 2.472-.529c.88 0 1.705.176 2.478.529.772.355 1.441.896 2.008 1.624.564.727 1.012 1.651 1.337 2.765.324 1.116.488 2.434.488 3.956zm-2.235 0c0-1.327-.113-2.439-.336-3.338-.224-.899-.523-1.625-.897-2.173-.375-.551-.808-.945-1.302-1.184a3.487 3.487 0 0 0-1.543-.361c-.528 0-1.04.12-1.531.361-.493.241-.926.635-1.295 1.184-.369.547-.667 1.274-.892 2.173-.223.899-.334 2.011-.334 3.338 0 1.318.111 2.426.334 3.325.226.899.521 1.625.892 2.173.372.551.803.943 1.295 1.179a3.5 3.5 0 0 0 3.074 0c.493-.236.927-.628 1.302-1.179.375-.549.674-1.274.897-2.173.223-.899.336-2.006.336-3.325zM-118.618-121.207h-1.82a.768.768 0 0 1-.5-.158.99.99 0 0 1-.294-.403l-1.622-4.188h-7.788l-1.624 4.188a1 1 0 0 1-.289.391.759.759 0 0 1-.505.171h-1.821l6.936-17.358h2.393l6.934 17.357zm-11.364-6.445h6.47l-2.724-7.056a12.21 12.21 0 0 1-.512-1.637c-.091.334-.18.639-.264.917-.084.274-.169.521-.25.73l-2.72 7.046zm13.207 6.445v-12.268h1.281c.31 0 .503.149.584.45l.158 1.329a7.208 7.208 0 0 1 1.795-1.427c.66-.366 1.422-.549 2.284-.549.669 0 1.258.111 1.769.334.514.225.941.54 1.281.947.343.406.602.897.783 1.471.178.572.268 1.207.268 1.898v7.813h-2.147v-7.813c0-.927-.214-1.648-.64-2.161-.426-.514-1.077-.769-1.948-.769-.634 0-1.229.151-1.781.458a5.875 5.875 0 0 0-1.54 1.251v9.033h-2.147v.003zm17.582-12.475c.537 0 1.038.06 1.501.176.463.118.882.292 1.255.519h3.334v.793c0 .268-.17.44-.514.514l-1.392.194c.276.521.415 1.106.415 1.759 0 .593-.114 1.135-.343 1.623a3.638 3.638 0 0 1-.957 1.251 4.43 4.43 0 0 1-1.46.799 5.766 5.766 0 0 1-1.842.282c-.57 0-1.112-.071-1.624-.208a2.01 2.01 0 0 0-.586.526.934.934 0 0 0-.193.539c0 .293.114.514.347.663.23.149.54.261.929.326a9.93 9.93 0 0 0 1.316.121c.493.018.994.042 1.508.08.512.037 1.015.098 1.506.185a4.45 4.45 0 0 1 1.325.435c.391.203.7.482.933.836.23.354.349.816.349 1.385 0 .521-.13 1.027-.391 1.52a4.22 4.22 0 0 1-1.128 1.318c-.493.386-1.095.693-1.806.92-.714.227-1.515.343-2.411.343-.896 0-1.682-.09-2.357-.27-.676-.179-1.235-.417-1.677-.712-.445-.297-.776-.642-.996-1.033a2.481 2.481 0 0 1-.331-1.232c0-.602.192-1.115.574-1.54.382-.422.906-.76 1.575-1.014a2.218 2.218 0 0 1-.823-.647c-.209-.269-.312-.63-.312-1.085 0-.181.033-.363.097-.551.067-.187.166-.375.299-.562.135-.188.297-.366.489-.537.19-.172.417-.324.677-.452a3.73 3.73 0 0 1-1.427-1.342c-.341-.563-.512-1.216-.512-1.966 0-.602.114-1.149.347-1.636.23-.489.554-.903.964-1.246a4.455 4.455 0 0 1 1.471-.792 5.93 5.93 0 0 1 1.871-.282zm3.832 13.146c0-.308-.084-.556-.257-.744a1.686 1.686 0 0 0-.695-.435 4.837 4.837 0 0 0-1.006-.22 19.068 19.068 0 0 0-1.196-.097c-.419-.02-.848-.042-1.281-.067-.435-.024-.853-.07-1.251-.135a3.533 3.533 0 0 0-1.117.793 1.6 1.6 0 0 0-.433 1.124c0 .276.072.535.213.774.143.239.359.445.648.616.289.172.656.308 1.096.41.445.102.962.153 1.557.153a7.1 7.1 0 0 0 1.563-.158 4.09 4.09 0 0 0 1.172-.445c.316-.191.561-.422.73-.689.173-.27.257-.562.257-.88zm-3.832-6.665c.44 0 .825-.062 1.16-.183.334-.123.614-.292.841-.507s.397-.475.506-.781c.111-.306.166-.637.166-.996 0-.756-.229-1.356-.683-1.802-.456-.443-1.119-.665-1.988-.665-.864 0-1.524.222-1.979.665s-.683 1.043-.683 1.802c0 .359.06.69.178.996.116.306.289.565.512.781.224.216.503.384.838.507.33.121.708.183 1.132.183zm15.257-4.247a.48.48 0 0 1-.45.268c-.115 0-.247-.044-.401-.134s-.345-.188-.568-.299a5.415 5.415 0 0 0-.793-.304 3.768 3.768 0 0 0-1.091-.139 3.22 3.22 0 0 0-.977.139 2.362 2.362 0 0 0-.746.383 1.748 1.748 0 0 0-.47.563 1.471 1.471 0 0 0-.167.695c0 .317.093.581.276.788.185.206.424.389.721.542.297.155.634.292 1.012.408.378.118.767.243 1.167.373.397.132.788.278 1.17.44.382.162.723.366 1.021.609.297.247.537.544.722.892.183.35.272.769.272 1.258 0 .57-.102 1.096-.306 1.575-.204.48-.503.896-.897 1.246a4.358 4.358 0 0 1-1.452.829c-.575.202-1.237.304-1.985.304-.855 0-1.629-.141-2.326-.422-.695-.281-1.283-.635-1.763-1.068l.501-.829a.755.755 0 0 1 .232-.232c.088-.058.206-.084.352-.084s.299.053.458.164c.16.109.355.234.586.373.232.139.51.262.836.378.327.112.737.17 1.233.17.414 0 .781-.056 1.096-.166a2.26 2.26 0 0 0 .788-.445c.209-.188.363-.401.465-.641.1-.239.151-.498.151-.774 0-.334-.092-.612-.273-.835a2.36 2.36 0 0 0-.72-.574 5.5 5.5 0 0 0-1.021-.408 47.734 47.734 0 0 1-1.17-.366c-.399-.13-.792-.28-1.179-.447a4.225 4.225 0 0 1-1.026-.621 2.839 2.839 0 0 1-.719-.929c-.185-.369-.276-.816-.276-1.335 0-.473.097-.925.294-1.356.197-.429.479-.808.848-1.135.369-.325.825-.584 1.369-.781.542-.197 1.158-.293 1.849-.293.813 0 1.54.128 2.179.383a5.318 5.318 0 0 1 1.665 1.043l-.487.794zm7.195 10.437c-.968 0-1.714-.271-2.234-.813-.521-.542-.781-1.321-.781-2.336v-7.508h-1.478a.468.468 0 0 1-.324-.116c-.086-.077-.128-.195-.128-.361v-.853l2.002-.257.498-3.797a.457.457 0 0 1 .159-.287.498.498 0 0 1 .341-.115h1.085v4.223h3.516v1.563h-3.516v7.36c0 .521.125.904.373 1.152.25.248.572.373.971.373.227 0 .426-.03.593-.091.167-.062.31-.128.427-.203.116-.074.22-.141.305-.202a.408.408 0 0 1 .225-.091c.113 0 .216.07.304.208l.623 1.038a4.08 4.08 0 0 1-1.337.813c-.519.199-1.062.3-1.624.3zm4.754-8.374h5.982v1.83h-5.982v-1.83zm8.958 8.178v-12.268h1.281c.311 0 .505.149.586.45l.158 1.329a7.208 7.208 0 0 1 1.795-1.427c.66-.366 1.421-.549 2.284-.549.667 0 1.256.111 1.769.334.514.225.941.54 1.281.947.343.406.602.897.783 1.471.179.572.268 1.207.268 1.898v7.813h-2.147v-7.813c0-.927-.213-1.648-.641-2.161-.426-.512-1.077-.769-1.948-.769-.635 0-1.228.151-1.781.458a5.895 5.895 0 0 0-1.54 1.251v9.033h-2.148v.003zm15.849-12.267v12.268h-2.148v-12.268h2.148zm.487-3.847c0 .204-.042.398-.128.581-.086.185-.199.347-.341.489s-.305.253-.489.336c-.183.081-.38.122-.593.122-.209 0-.407-.041-.584-.122a1.621 1.621 0 0 1-.818-.825 1.42 1.42 0 0 1-.124-.581c0-.211.041-.412.124-.604.081-.19.191-.354.334-.493s.303-.25.484-.331c.18-.081.375-.122.584-.122.213 0 .41.039.593.122a1.631 1.631 0 0 1 .83.824c.086.192.128.393.128.604zm1.765 3.847h1.771c.17 0 .31.042.42.132a.792.792 0 0 1 .237.318l3.113 7.897c.114.285.204.572.27.866.065.294.126.579.183.855.065-.276.136-.563.208-.855.072-.292.165-.581.281-.866l3.137-7.897a.718.718 0 0 1 .238-.325.651.651 0 0 1 .408-.127h1.686l-5.006 12.268h-1.941l-5.005-12.266zm18.799-.196c.732 0 1.41.125 2.033.373a4.587 4.587 0 0 1 1.611 1.068c.453.464.804 1.037 1.058 1.716.252.679.378 1.46.378 2.336 0 .336-.037.56-.111.672-.074.114-.208.17-.403.17h-8.167c.016.774.124 1.448.317 2.02.195.574.461 1.052.799 1.434.338.384.741.67 1.209.862.468.19.991.287 1.569.287.545 0 1.014-.063 1.404-.19.391-.125.727-.26 1.012-.401.285-.142.521-.278.708-.404.188-.125.35-.188.489-.188.18 0 .317.069.414.208l.598.781c-.26.326-.577.605-.952.841a6.326 6.326 0 0 1-1.197.586 7.847 7.847 0 0 1-2.65.463 6.25 6.25 0 0 1-2.351-.431 5.263 5.263 0 0 1-1.848-1.258c-.522-.551-.929-1.233-1.223-2.052-.294-.816-.44-1.756-.44-2.813 0-.854.132-1.652.397-2.393a5.66 5.66 0 0 1 1.135-1.928 5.216 5.216 0 0 1 1.805-1.288c.719-.314 1.518-.471 2.406-.471zm.05 1.586c-1.042 0-1.861.301-2.46.902-.598.602-.971 1.436-1.117 2.504h6.678c0-.505-.07-.964-.208-1.379a3.024 3.024 0 0 0-.611-1.073 2.824 2.824 0 0 0-.977-.704 3.215 3.215 0 0 0-1.305-.25zm16.781 10.877h-.952a1.15 1.15 0 0 1-.512-.097c-.13-.065-.217-.204-.257-.416l-.243-1.135a13.75 13.75 0 0 1-.947.783c-.304.227-.626.42-.966.579-.338.159-.697.28-1.079.361s-.811.123-1.281.123c-.48 0-.927-.067-1.344-.202a3.12 3.12 0 0 1-1.081-.598 2.81 2.81 0 0 1-.732-1.012c-.183-.414-.276-.894-.276-1.448 0-.479.136-.945.405-1.396.268-.452.699-.852 1.293-1.196.595-.347 1.371-.63 2.331-.85.961-.22 2.131-.345 3.516-.378v-.962c0-.952-.204-1.673-.61-2.161-.408-.489-1.01-.732-1.805-.732-.528 0-.973.067-1.331.202a5.038 5.038 0 0 0-.927.451c-.262.167-.487.315-.677.447a1.025 1.025 0 0 1-.568.193.623.623 0 0 1-.378-.114.96.96 0 0 1-.255-.274l-.392-.695c.676-.651 1.406-1.139 2.19-1.466.787-.326 1.656-.487 2.608-.487.683 0 1.292.112 1.826.339.533.227.98.545 1.341.947.363.403.639.89.825 1.464.188.574.28 1.202.28 1.886v7.844h-.002zm-5.59-1.32c.375 0 .72-.037 1.037-.114.318-.078.616-.188.892-.329.278-.143.545-.315.8-.514s.503-.429.739-.69v-2.551c-.993.032-1.837.109-2.528.232-.692.121-1.256.283-1.689.487-.437.204-.753.441-.954.714a1.519 1.519 0 0 0-.299.92c0 .325.053.604.159.835.105.23.246.424.422.574.174.15.384.261.628.329.242.074.507.107.793.107zm10.717-10.947v7.825c0 .927.214 1.645.642 2.154.428.507 1.072.764 1.936.764.626 0 1.218-.15 1.775-.447s1.073-.714 1.545-1.251v-9.044h2.148v12.268h-1.28c-.31 0-.501-.149-.574-.451l-.171-1.319a6.773 6.773 0 0 1-1.8 1.43c-.664.355-1.424.537-2.279.537-.668 0-1.256-.113-1.768-.338a3.533 3.533 0 0 1-1.288-.938 3.989 3.989 0 0 1-.783-1.466 6.502 6.502 0 0 1-.262-1.897v-7.825h2.159v-.002z"/><path fill="#F90" d="M138.01-93.949h3.724v-11.828c0-.359.012-.716.035-1.075l-3.101 2.65a.896.896 0 0 1-.237.139.686.686 0 0 1-.557-.035.565.565 0 0 1-.218-.19l-.685-.927 5.165-4.48h1.759v15.748h3.417v1.649h-9.303v-1.651h.001zm11.62.316c0-.211.039-.412.116-.598.078-.187.183-.347.317-.482a1.539 1.539 0 0 1 1.066-.447c.213 0 .412.042.6.123a1.472 1.472 0 0 1 .8.806c.078.188.115.387.115.598a1.48 1.48 0 0 1-.433 1.075 1.426 1.426 0 0 1-.482.322 1.545 1.545 0 0 1-.6.115c-.203 0-.398-.037-.586-.115a1.437 1.437 0 0 1-.48-.322 1.571 1.571 0 0 1-.317-.477 1.487 1.487 0 0 1-.116-.598zm12.375-10.935v7.825c0 .927.214 1.645.639 2.154.427.507 1.073.764 1.936.764.628 0 1.217-.15 1.777-.447a5.493 5.493 0 0 0 1.543-1.251v-9.044h2.148v12.268h-1.281c-.31 0-.501-.149-.575-.451l-.169-1.318a6.755 6.755 0 0 1-1.802 1.429c-.664.355-1.422.537-2.277.537-.667 0-1.258-.113-1.77-.338a3.559 3.559 0 0 1-1.288-.938 4.032 4.032 0 0 1-.781-1.466 6.434 6.434 0 0 1-.264-1.897v-7.825h2.165v-.002zm20.217 12.267c-.31 0-.501-.149-.572-.451l-.195-1.49a6.447 6.447 0 0 1-1.807 1.54c-.676.382-1.448.572-2.319.572a4.397 4.397 0 0 1-1.909-.408 3.992 3.992 0 0 1-1.466-1.197c-.403-.526-.713-1.179-.935-1.958-.22-.783-.331-1.682-.331-2.699 0-.902.121-1.745.366-2.526a6.12 6.12 0 0 1 1.051-2.027 5.031 5.031 0 0 1 1.666-1.35c.656-.329 1.397-.493 2.228-.493.75 0 1.389.127 1.923.384.531.255 1.01.612 1.434 1.068v-6.797h2.147V-92.3h-1.281v-.001zm-4.173-1.574c.701 0 1.314-.16 1.842-.482.528-.324 1.017-.781 1.466-1.374v-5.932c-.401-.528-.834-.901-1.307-1.117a3.726 3.726 0 0 0-1.563-.322c-1.147 0-2.029.41-2.643 1.229-.614.816-.922 1.979-.922 3.484 0 .799.07 1.481.209 2.05.139.57.337 1.038.604 1.404.264.366.591.633.977.806.386.167.832.254 1.337.254zm9.56 1.574v-10.425l-1.367-.159a1.1 1.1 0 0 1-.41-.188.446.446 0 0 1-.164-.373v-.88h1.941v-1.184c0-.708.097-1.332.293-1.874.194-.54.477-1 .843-1.378a3.553 3.553 0 0 1 1.325-.857c.518-.19 1.1-.285 1.751-.285.545 0 1.054.077 1.525.232l-.047 1.086c-.007.162-.078.262-.208.293-.13.034-.313.049-.549.049h-.378c-.366 0-.704.046-1.008.141a1.82 1.82 0 0 0-.781.47c-.217.22-.382.507-.501.86-.118.355-.176.795-.176 1.325v1.123h3.551v1.563h-3.479v10.46h-2.161v.001zm12.635-12.462c.896 0 1.703.149 2.423.45a5.16 5.16 0 0 1 1.839 1.276 5.7 5.7 0 0 1 1.167 1.99c.271.778.408 1.646.408 2.606 0 .97-.137 1.842-.408 2.619a5.634 5.634 0 0 1-1.167 1.984 5.153 5.153 0 0 1-1.839 1.262c-.72.297-1.527.445-2.423.445-.902 0-1.715-.149-2.435-.445a5.195 5.195 0 0 1-1.844-1.262 5.663 5.663 0 0 1-1.177-1.984c-.278-.776-.415-1.651-.415-2.619 0-.96.139-1.828.415-2.606a5.684 5.684 0 0 1 1.177-1.99 5.225 5.225 0 0 1 1.844-1.276c.718-.301 1.531-.45 2.435-.45zm0 10.949c1.204 0 2.106-.405 2.703-1.214.599-.811.897-1.944.897-3.401 0-1.464-.299-2.603-.897-3.417-.598-.814-1.499-1.221-2.703-1.221-.618 0-1.152.105-1.604.316-.452.213-.829.516-1.13.91s-.526.882-.677 1.459a7.751 7.751 0 0 0-.225 1.953c0 .725.075 1.374.225 1.948.149.575.376 1.056.677 1.448a3.01 3.01 0 0 0 1.13.902c.45.21.985.317 1.604.317zm8.486 1.513v-12.268h1.235c.236 0 .397.042.487.132.088.091.15.246.185.466l.134 1.904c.422-.854.943-1.522 1.563-2.002.617-.479 1.342-.718 2.173-.718.343 0 .649.037.922.114.274.078.526.187.764.324l-.281 1.612c-.058.204-.185.304-.378.304-.114 0-.289-.037-.519-.114-.23-.077-.562-.116-.982-.116-.75 0-1.374.218-1.879.653-.505.437-.929 1.068-1.27 1.899v7.813h-2.152v-.003zm18.383 0c-.31 0-.501-.149-.574-.451l-.193-1.49a6.447 6.447 0 0 1-1.807 1.54c-.676.382-1.448.572-2.319.572a4.425 4.425 0 0 1-1.913-.408 4.002 4.002 0 0 1-1.464-1.197c-.401-.526-.714-1.179-.934-1.958-.218-.781-.329-1.682-.329-2.699 0-.902.123-1.745.368-2.526a6.137 6.137 0 0 1 1.05-2.027 5.008 5.008 0 0 1 1.665-1.35c.657-.329 1.399-.493 2.229-.493.75 0 1.388.127 1.921.384a4.734 4.734 0 0 1 1.436 1.068v-6.797h2.146V-92.3h-1.282v-.001zm-4.176-1.574c.7 0 1.314-.16 1.844-.482.53-.324 1.017-.781 1.466-1.374v-5.932c-.399-.528-.836-.901-1.307-1.117a3.726 3.726 0 0 0-1.563-.322c-1.147 0-2.027.41-2.643 1.229-.614.816-.92 1.979-.92 3.484 0 .799.069 1.481.208 2.05.137.57.339 1.038.605 1.404.262.366.59.633.977.806.383.167.83.254 1.333.254zm9.073 1.574v-12.268h1.235c.236 0 .397.042.487.132.088.091.149.246.183.466l.135 1.904c.422-.854.943-1.522 1.561-2.002.619-.479 1.344-.718 2.173-.718.343 0 .649.037.924.114.271.078.526.187.762.324l-.281 1.612c-.057.204-.183.304-.376.304-.115 0-.287-.037-.52-.114-.232-.077-.559-.116-.981-.116-.75 0-1.376.218-1.879.653-.505.437-.927 1.068-1.271 1.899v7.813h-2.152v-.003zm12.144-12.267V-92.3h-2.146v-12.268h2.146zm.489-3.847c0 .204-.042.398-.128.581a1.684 1.684 0 0 1-.828.825c-.185.081-.38.122-.593.122s-.406-.041-.586-.122a1.588 1.588 0 0 1-.482-.336 1.553 1.553 0 0 1-.338-.489 1.418 1.418 0 0 1-.122-.581c0-.211.041-.412.122-.604.081-.19.193-.354.338-.493.143-.139.303-.248.482-.331a1.41 1.41 0 0 1 .586-.122c.211 0 .408.039.593.122.181.083.343.191.487.331a1.56 1.56 0 0 1 .469 1.097zm3.315 16.114v-12.268h1.281c.31 0 .505.149.586.45l.159 1.329a7.15 7.15 0 0 1 1.794-1.427c.658-.366 1.422-.549 2.282-.549.669 0 1.258.113 1.771.336.512.226.939.539 1.281.945.341.408.602.897.781 1.471.178.572.269 1.207.269 1.898v7.813h-2.148v-7.813c0-.927-.214-1.648-.639-2.161-.427-.514-1.079-.769-1.948-.769-.635 0-1.23.151-1.782.458a5.924 5.924 0 0 0-1.54 1.251v9.033h-2.147v.003zm17.58-12.475c.537 0 1.038.06 1.501.176.462.118.883.292 1.256.519h3.333v.793c0 .268-.171.44-.514.514l-1.39.194c.274.521.413 1.106.413 1.759 0 .593-.112 1.135-.341 1.623a3.643 3.643 0 0 1-.959 1.251 4.461 4.461 0 0 1-1.46.801 5.795 5.795 0 0 1-1.842.28c-.57 0-1.112-.071-1.625-.208-.26.164-.456.34-.586.528-.13.187-.193.364-.193.537 0 .293.114.515.347.665.232.149.542.259.929.324a9.93 9.93 0 0 0 1.316.121c.493.018.996.042 1.508.081.512.035 1.016.097 1.508.183.491.086.934.229 1.323.435.391.203.7.482.934.836.23.354.347.816.347 1.385 0 .521-.13 1.027-.391 1.52a4.22 4.22 0 0 1-1.128 1.318c-.493.386-1.094.693-1.805.92-.714.227-1.515.343-2.411.343s-1.682-.09-2.358-.27c-.676-.179-1.235-.417-1.677-.712-.445-.297-.776-.642-.996-1.033a2.481 2.481 0 0 1-.331-1.232c0-.602.191-1.115.573-1.54.382-.422.906-.76 1.575-1.014a2.23 2.23 0 0 1-.824-.647c-.209-.268-.312-.63-.312-1.085 0-.181.034-.363.097-.551.067-.187.165-.375.299-.562.136-.188.297-.366.489-.537.19-.172.417-.324.677-.452a3.73 3.73 0 0 1-1.427-1.342c-.341-.563-.512-1.216-.512-1.966 0-.602.114-1.149.347-1.636.23-.489.554-.903.964-1.246a4.455 4.455 0 0 1 1.471-.792 6.015 6.015 0 0 1 1.875-.281zm3.832 13.146c0-.308-.084-.556-.255-.744a1.7 1.7 0 0 0-.697-.435 4.837 4.837 0 0 0-1.006-.22 18.918 18.918 0 0 0-1.197-.097c-.419-.02-.846-.041-1.281-.067a11.83 11.83 0 0 1-1.251-.135 3.533 3.533 0 0 0-1.117.793 1.608 1.608 0 0 0-.431 1.124c0 .276.072.535.211.774.143.239.359.445.647.616.289.172.656.308 1.098.41.445.102.962.153 1.555.153a7.1 7.1 0 0 0 1.563-.158c.463-.107.855-.255 1.172-.445.317-.191.562-.422.732-.689.173-.27.257-.563.257-.88zm-3.832-6.665c.44 0 .825-.062 1.16-.183a2.43 2.43 0 0 0 .843-.507 1.97 1.97 0 0 0 .505-.781c.111-.306.167-.637.167-.996 0-.756-.229-1.356-.685-1.802-.456-.443-1.117-.663-1.988-.663-.864 0-1.522.22-1.978.663-.456.443-.683 1.043-.683 1.802 0 .359.058.69.176.996.116.306.291.565.514.781.224.216.501.384.836.507.333.121.709.183 1.133.183zm21.919 5.994h-.951a1.15 1.15 0 0 1-.513-.097c-.128-.065-.215-.204-.257-.416l-.244-1.135c-.327.294-.641.553-.947.783-.304.227-.626.42-.962.579-.338.159-.698.28-1.082.361-.382.081-.81.123-1.281.123-.482 0-.929-.067-1.343-.202a3.088 3.088 0 0 1-1.08-.598 2.776 2.776 0 0 1-.732-1.012c-.185-.414-.274-.894-.274-1.448 0-.479.133-.945.401-1.396.27-.452.702-.852 1.297-1.196.593-.347 1.371-.63 2.331-.85.961-.218 2.133-.345 3.516-.378v-.962c0-.952-.204-1.673-.612-2.161-.406-.489-1.008-.732-1.807-.732-.528 0-.973.067-1.328.202a5.235 5.235 0 0 0-.93.451c-.26.167-.487.315-.677.447a1.02 1.02 0 0 1-.567.193.625.625 0 0 1-.378-.114 1.035 1.035 0 0 1-.259-.274l-.391-.695a7.095 7.095 0 0 1 2.192-1.466c.787-.326 1.654-.487 2.606-.487.683 0 1.291.112 1.824.339s.98.545 1.343.947.639.89.823 1.464c.188.574.281 1.202.281 1.886v7.844h.001zm-5.59-1.317c.373 0 .72-.039 1.036-.116.32-.078.616-.188.893-.329.276-.143.542-.315.799-.514s.501-.429.739-.69v-2.551c-.994.032-1.837.109-2.527.232-.689.121-1.254.283-1.69.487-.434.204-.753.441-.95.714-.201.271-.3.579-.3.92 0 .325.052.604.159.835.105.23.246.424.42.574.176.15.386.261.63.329.24.073.508.109.791.109zm9.34 1.317v-10.425l-1.367-.159a1.088 1.088 0 0 1-.412-.188.449.449 0 0 1-.165-.373v-.88h1.942v-1.184c0-.708.097-1.332.292-1.874.194-.54.476-1 .843-1.378a3.562 3.562 0 0 1 1.323-.857c.516-.19 1.101-.285 1.753-.285.545 0 1.054.077 1.525.232l-.048 1.086c-.009.162-.079.262-.207.293a2.31 2.31 0 0 1-.551.049h-.378a3.38 3.38 0 0 0-1.007.141c-.307.093-.566.25-.781.47-.217.22-.386.507-.502.86-.117.355-.176.795-.176 1.325v1.123h3.553v1.563h-3.48v10.46h-2.157v.001zm21.345 0h-.952a1.15 1.15 0 0 1-.512-.097c-.131-.065-.215-.204-.257-.416l-.245-1.135c-.325.294-.641.553-.946.783-.305.227-.627.42-.963.579-.338.159-.698.28-1.082.361-.382.081-.81.123-1.281.123-.48 0-.927-.067-1.342-.202a3.101 3.101 0 0 1-1.081-.598 2.785 2.785 0 0 1-.731-1.012c-.186-.414-.276-.894-.276-1.448 0-.479.136-.945.406-1.396.266-.452.698-.852 1.293-1.196.594-.347 1.371-.63 2.332-.85.959-.218 2.131-.345 3.516-.378v-.962c0-.952-.204-1.673-.61-2.161-.408-.489-1.013-.732-1.808-.732-.529 0-.972.067-1.33.202a5.08 5.08 0 0 0-.928.451c-.262.167-.489.315-.677.447a1.025 1.025 0 0 1-.568.193.628.628 0 0 1-.379-.114.974.974 0 0 1-.255-.274l-.393-.695a7.026 7.026 0 0 1 2.192-1.466c.785-.326 1.652-.487 2.604-.487.683 0 1.291.112 1.826.339.533.227.98.545 1.341.947.362.401.639.89.825 1.464.188.574.28 1.202.28 1.886v7.844h.001zm-5.588-1.317c.373 0 .718-.039 1.036-.116.319-.078.614-.188.889-.329a5.08 5.08 0 0 0 .801-.514c.257-.199.504-.429.739-.69v-2.551c-.994.032-1.837.109-2.526.232-.693.121-1.257.283-1.689.487-.435.204-.753.441-.952.714a1.519 1.519 0 0 0-.299.92c0 .325.053.604.158.835.107.23.246.424.421.574.176.15.385.261.63.329.241.073.505.109.792.109zm8.85 1.317v-12.268h1.281c.31 0 .505.149.586.45l.158 1.329a7.19 7.19 0 0 1 1.795-1.427c.66-.366 1.422-.549 2.284-.549.667 0 1.256.113 1.769.336.514.226.939.539 1.282.945.34.408.602.897.781 1.471a6.25 6.25 0 0 1 .27 1.898v7.813h-2.148v-7.813c0-.927-.215-1.648-.641-2.161-.426-.514-1.077-.769-1.946-.769-.637 0-1.231.151-1.782.458s-1.066.723-1.54 1.251v9.033h-2.148v.003zm17.58-12.475c.537 0 1.036.06 1.501.176.463.118.884.292 1.256.519h3.333v.793c0 .268-.171.44-.512.514l-1.391.194c.274.521.414 1.106.414 1.759 0 .593-.113 1.135-.34 1.623a3.668 3.668 0 0 1-.959 1.251 4.466 4.466 0 0 1-1.459.801 5.803 5.803 0 0 1-1.842.28c-.57 0-1.112-.071-1.624-.208-.261.164-.456.34-.584.528-.131.187-.195.364-.195.537 0 .293.116.515.347.665.231.149.541.259.929.324.386.065.825.105 1.316.121.492.018.995.042 1.51.081.51.035 1.013.097 1.506.183a4.38 4.38 0 0 1 1.323.435c.391.203.704.482.936.836.232.354.347.816.347 1.385 0 .521-.128 1.027-.391 1.52-.26.491-.637.931-1.129 1.318-.491.386-1.093.693-1.808.92-.711.227-1.515.343-2.41.343s-1.683-.09-2.358-.27c-.676-.179-1.235-.417-1.679-.712-.443-.297-.773-.642-.994-1.033a2.482 2.482 0 0 1-.332-1.232c0-.602.191-1.115.575-1.54.382-.422.906-.76 1.573-1.014a2.226 2.226 0 0 1-.823-.647c-.208-.268-.312-.63-.312-1.085 0-.181.033-.363.099-.551.064-.187.163-.375.299-.562.134-.188.297-.366.489-.537.189-.172.415-.324.677-.452a3.745 3.745 0 0 1-1.427-1.342c-.343-.563-.514-1.216-.514-1.966 0-.602.114-1.149.349-1.636.232-.489.553-.903.962-1.246a4.45 4.45 0 0 1 1.472-.792 5.947 5.947 0 0 1 1.87-.281zm3.832 13.146c0-.308-.086-.556-.257-.744a1.697 1.697 0 0 0-.696-.435 4.853 4.853 0 0 0-1.009-.22c-.378-.042-.777-.077-1.196-.097s-.845-.041-1.281-.067c-.435-.024-.853-.07-1.251-.135a3.533 3.533 0 0 0-1.117.793 1.622 1.622 0 0 0-.431 1.124c0 .276.072.535.211.774.143.239.359.445.647.616.288.172.654.308 1.098.41s.963.153 1.556.153c.577 0 1.098-.053 1.563-.158.463-.107.855-.255 1.172-.445.316-.191.562-.422.732-.689a1.64 1.64 0 0 0 .259-.88zm-3.832-6.665c.438 0 .825-.062 1.158-.183.336-.123.617-.292.844-.507.229-.216.398-.475.506-.781.108-.306.167-.637.167-.996 0-.756-.229-1.356-.687-1.802-.456-.445-1.117-.663-1.988-.663-.862 0-1.521.22-1.978.663-.458.443-.685 1.043-.685 1.802 0 .359.058.69.178.996.119.306.288.565.512.781s.502.384.836.507c.335.121.713.183 1.137.183zm15.257-4.246a.48.48 0 0 1-.45.268.832.832 0 0 1-.402-.134c-.155-.09-.344-.188-.568-.299a5.49 5.49 0 0 0-.792-.304 3.773 3.773 0 0 0-1.093-.139 3.23 3.23 0 0 0-.977.139c-.292.095-.54.222-.744.385a1.777 1.777 0 0 0-.47.562 1.494 1.494 0 0 0-.166.695c0 .317.094.581.276.788.182.208.421.389.718.542.298.155.636.292 1.016.408.378.118.766.243 1.163.373.397.132.79.278 1.172.44.382.162.722.366 1.019.609.296.247.537.544.72.892.184.35.274.769.274 1.258 0 .57-.104 1.096-.308 1.575-.201.48-.5.896-.896 1.246a4.358 4.358 0 0 1-1.454.829c-.575.2-1.234.304-1.984.304-.855 0-1.628-.141-2.324-.422-.699-.281-1.283-.635-1.765-1.068l.499-.829a.777.777 0 0 1 .232-.232.645.645 0 0 1 .354-.084.8.8 0 0 1 .458.164c.158.109.352.234.586.373.232.139.509.262.836.378.327.112.737.17 1.233.17.415 0 .783-.056 1.098-.166.318-.111.579-.258.788-.445.21-.188.362-.401.465-.641.102-.239.151-.498.151-.774 0-.334-.092-.612-.272-.835a2.36 2.36 0 0 0-.72-.574 5.552 5.552 0 0 0-1.018-.408 44.087 44.087 0 0 1-1.172-.366c-.399-.13-.79-.28-1.179-.447a4.193 4.193 0 0 1-1.024-.621 2.896 2.896 0 0 1-.72-.929c-.183-.369-.272-.816-.272-1.335a3.274 3.274 0 0 1 1.141-2.492 4.268 4.268 0 0 1 1.367-.781c.542-.195 1.157-.293 1.849-.293.813 0 1.54.128 2.181.383a5.37 5.37 0 0 1 1.666 1.043l-.492.794zm7.195 10.436c-.968 0-1.712-.271-2.232-.813-.521-.542-.781-1.321-.781-2.336v-7.508h-1.479a.469.469 0 0 1-.323-.116c-.085-.077-.129-.195-.129-.361v-.853l2.002-.257.502-3.797a.442.442 0 0 1 .158-.287.497.497 0 0 1 .34-.115h1.087v4.223h3.515v1.563h-3.515v7.36c0 .521.124.904.373 1.152.248.248.57.373.972.373.227 0 .422-.03.59-.091s.311-.128.427-.203a6.66 6.66 0 0 0 .307-.202.408.408 0 0 1 .226-.091c.114 0 .214.07.304.208l.625 1.038a4.07 4.07 0 0 1-1.337.813c-.525.2-1.068.3-1.632.3zm10.176-12.658c.73 0 1.407.125 2.032.373.623.248 1.159.604 1.611 1.068s.805 1.037 1.056 1.716c.254.679.379 1.46.379 2.336 0 .336-.037.56-.109.672-.074.114-.208.17-.404.17h-8.166c.018.774.121 1.448.318 2.02.195.574.463 1.052.797 1.434.34.384.74.67 1.211.862.468.19.99.287 1.567.287.547 0 1.016-.063 1.404-.19a7.51 7.51 0 0 0 1.015-.401c.282-.142.52-.278.708-.403.188-.126.35-.19.489-.19a.47.47 0 0 1 .413.208l.599.781a3.75 3.75 0 0 1-.952.841 6.287 6.287 0 0 1-1.196.586 7.821 7.821 0 0 1-2.649.463 6.258 6.258 0 0 1-2.351-.431c-.713-.291-1.329-.709-1.85-1.258s-.928-1.233-1.22-2.05c-.294-.818-.439-1.758-.439-2.815 0-.854.132-1.652.396-2.393a5.73 5.73 0 0 1 1.137-1.928 5.235 5.235 0 0 1 1.808-1.288c.712-.314 1.509-.47 2.396-.47zm.048 1.585c-1.042 0-1.862.301-2.46.902-.597.602-.968 1.436-1.116 2.504h6.678c0-.505-.068-.964-.208-1.379a3.038 3.038 0 0 0-.61-1.073 2.775 2.775 0 0 0-.977-.702 3.205 3.205 0 0 0-1.307-.252zm7.775 10.877v-12.268h1.28c.31 0 .505.149.586.45l.159 1.329a7.132 7.132 0 0 1 1.794-1.427c.658-.366 1.42-.549 2.284-.549.667 0 1.257.113 1.769.336.514.226.938.539 1.282.945.34.408.603.897.781 1.471a6.25 6.25 0 0 1 .27 1.898v7.813h-2.148v-7.813c0-.927-.215-1.648-.641-2.161-.428-.512-1.076-.769-1.946-.769-.637 0-1.231.151-1.782.458s-1.066.723-1.539 1.251v9.033h-2.148v.003z"/><path fill="#3E578A" d="M105.869-39.531c.734 0 1.418.107 2.059.322a4.717 4.717 0 0 1 1.654.946 4.44 4.44 0 0 1 1.098 1.521c.269.598.405 1.275.405 2.032 0 .651-.099 1.251-.294 1.8a7.332 7.332 0 0 1-.788 1.58c-.329.505-.711.993-1.142 1.466-.431.472-.89.95-1.378 1.439l-4.566 4.675c.324-.09.651-.16.982-.215.327-.053.649-.079.957-.079h5.81c.236 0 .424.069.563.208a.731.731 0 0 1 .206.537v1.308H99.852v-.746c0-.146.03-.301.091-.464.062-.162.16-.313.299-.451l5.555-5.578c.463-.472.885-.924 1.264-1.355.378-.433.702-.864.971-1.3a6.3 6.3 0 0 0 .623-1.325 4.61 4.61 0 0 0 .22-1.439c0-.505-.079-.948-.238-1.33-.158-.382-.38-.7-.665-.95a2.824 2.824 0 0 0-.994-.568 3.862 3.862 0 0 0-1.227-.187c-.431 0-.835.063-1.208.194-.375.13-.704.31-.989.542-.285.23-.526.505-.725.818a3.105 3.105 0 0 0-.422 1.045c-.058.227-.149.394-.282.501-.128.105-.301.158-.512.158a1.611 1.611 0 0 1-.278-.023l-1.124-.195c.112-.788.331-1.49.651-2.099a4.978 4.978 0 0 1 1.228-1.533 5.198 5.198 0 0 1 1.708-.934 6.426 6.426 0 0 1 2.071-.321zm7.822 16.211a1.554 1.554 0 0 1 .432-1.082c.136-.134.296-.243.484-.324.187-.081.384-.122.584-.122a1.53 1.53 0 0 1 1.082.446 1.532 1.532 0 0 1 .433 1.082 1.48 1.48 0 0 1-.433 1.073 1.426 1.426 0 0 1-.482.326 1.578 1.578 0 0 1-1.184 0 1.455 1.455 0 0 1-.484-.326 1.603 1.603 0 0 1-.316-.475 1.48 1.48 0 0 1-.116-.598z"/><path fill="teal" d="M79.537 30a6.36 6.36 0 0 1 2.031.313 4.637 4.637 0 0 1 1.606.89c.447.387.797.855 1.05 1.404.251.549.378 1.161.378 1.837a4.65 4.65 0 0 1-.215 1.466 3.654 3.654 0 0 1-.609 1.142 3.63 3.63 0 0 1-.954.831 5.38 5.38 0 0 1-1.239.544c1.131.301 1.979.8 2.546 1.501.564.7.848 1.578.848 2.637 0 .795-.149 1.517-.45 2.154a4.81 4.81 0 0 1-1.241 1.629 5.624 5.624 0 0 1-1.837 1.031 6.85 6.85 0 0 1-2.247.359c-.919 0-1.707-.114-2.363-.347-.655-.232-1.209-.551-1.659-.952a4.969 4.969 0 0 1-1.11-1.434 10.83 10.83 0 0 1-.739-1.795l.927-.391c.162-.074.329-.111.501-.111.162 0 .306.035.433.105a.66.66 0 0 1 .285.322c.018.035.033.068.049.104.016.039.031.076.049.116.113.236.25.501.408.793.159.294.377.567.653.824s.618.475 1.024.651c.408.183.913.269 1.515.269.611 0 1.144-.098 1.6-.299a3.485 3.485 0 0 0 1.135-.769c.301-.315.53-.664.685-1.05.153-.387.23-.772.23-1.154 0-.465-.063-.891-.188-1.281a2.236 2.236 0 0 0-.676-1.008c-.327-.28-.778-.501-1.355-.665-.579-.162-1.32-.245-2.222-.245V37.86c.733-.007 1.358-.086 1.879-.237.521-.149.947-.361 1.276-.63a2.4 2.4 0 0 0 .722-.959c.149-.368.225-.783.225-1.239 0-.496-.078-.929-.239-1.3a2.605 2.605 0 0 0-.646-.924 2.701 2.701 0 0 0-.971-.549 3.918 3.918 0 0 0-1.219-.183c-.431 0-.834.063-1.209.193-.375.13-.706.312-.991.544a3.31 3.31 0 0 0-.718.823 3.89 3.89 0 0 0-.44 1.038c-.065.229-.16.395-.287.5a.753.753 0 0 1-.495.16c-.041 0-.084-.004-.128-.007a1.765 1.765 0 0 1-.153-.019l-1.123-.195c.113-.789.331-1.489.653-2.099a4.92 4.92 0 0 1 1.227-1.531 5.204 5.204 0 0 1 1.71-.936 6.588 6.588 0 0 1 2.078-.31zm7.593 16.211a1.54 1.54 0 0 1 .431-1.079c.134-.135.296-.245.482-.326.187-.083.383-.121.584-.121.213 0 .414.039.6.121.188.081.349.188.484.326.134.132.239.294.317.482.077.188.116.387.116.597a1.504 1.504 0 0 1-.433 1.075 1.42 1.42 0 0 1-.484.326 1.56 1.56 0 0 1-.6.114c-.201 0-.397-.037-.584-.114a1.403 1.403 0 0 1-.482-.326 1.483 1.483 0 0 1-.431-1.075z"/><path fill="purple" d="M68.906 99.092h2.625v1.235c0 .13-.041.24-.118.329-.076.09-.195.134-.359.134h-2.146v4.566h-1.906v-4.566h-7.689a.627.627 0 0 1-.415-.141.619.619 0 0 1-.218-.345l-.22-1.098 8.434-11.207h2.015v11.092h-.003zM67 91.941c0-.213.005-.438.02-.679.012-.239.039-.487.079-.75l-6.31 8.582H67v-7.153zm6.067 12.083c0-.209.039-.41.116-.597a1.47 1.47 0 0 1 .797-.807c.188-.082.383-.121.586-.121.213 0 .414.039.6.121a1.463 1.463 0 0 1 .8.807c.078.188.115.388.115.597 0 .222-.037.421-.115.6a1.634 1.634 0 0 1-.316.476 1.423 1.423 0 0 1-.484.325 1.54 1.54 0 0 1-.6.114 1.51 1.51 0 0 1-.586-.114 1.401 1.401 0 0 1-.48-.325 1.504 1.504 0 0 1-.433-1.076z"/><path d="M714.859 134.091v1.978h-5.6v15.381h-2.354v-15.381h-5.633v-1.978h13.587zm4.515 5.087v12.271h-2.146v-12.271h2.146zm.487-3.843c0 .204-.038.397-.125.581a1.842 1.842 0 0 1-.343.487 1.571 1.571 0 0 1-.485.338 1.46 1.46 0 0 1-.595.123c-.21 0-.405-.041-.584-.123-.182-.081-.344-.193-.486-.338s-.25-.305-.338-.487a1.605 1.605 0 0 1 0-1.185c.088-.19.195-.357.338-.492.141-.14.305-.25.486-.333.181-.081.374-.119.584-.119a1.474 1.474 0 0 1 1.08.452c.139.135.259.302.343.492.085.192.125.391.125.604zm11.944 16.114c-.305 0-.5-.151-.57-.452l-.193-1.488a6.574 6.574 0 0 1-1.804 1.537c-.681.384-1.455.574-2.32.574a4.436 4.436 0 0 1-1.917-.408 3.99 3.99 0 0 1-1.46-1.196c-.408-.526-.72-1.18-.939-1.961-.22-.782-.327-1.682-.327-2.697 0-.904.125-1.747.365-2.526a6.171 6.171 0 0 1 1.048-2.027 4.995 4.995 0 0 1 1.671-1.348c.649-.331 1.392-.494 2.228-.494.75 0 1.389.126 1.92.385a4.76 4.76 0 0 1 1.431 1.068v-6.799h2.148v17.835h-1.279v-.003zm-4.171-1.575c.704 0 1.313-.161 1.842-.483.532-.322 1.014-.779 1.463-1.374v-5.932c-.399-.53-.829-.901-1.306-1.117a3.683 3.683 0 0 0-1.563-.324c-1.149 0-2.023.41-2.642 1.227-.615.818-.92 1.983-.92 3.487 0 .796.068 1.479.2 2.052.141.568.344 1.036.609 1.404.266.364.586.634.977.803.387.171.833.257 1.34.257z"/></svg>