<svg xml:space="preserve" xmlns:xlink="http://www.w3.org/1999/xlink" width="555" height="199.887" xmlns="http://www.w3.org/2000/svg"><path fill="#FFF" d="M0 0h555v199.887H0V0z"/><defs><path id="ha-angstkurve-forventning_svg__a" d="M34.095 2.168h518.737v188.396H34.095z"/></defs><clipPath id="ha-angstkurve-forventning_svg__b"><use xlink:href="#ha-angstkurve-forventning_svg__a" overflow="visible"/></clipPath><path fill="none" stroke="orange" stroke-linejoin="round" stroke-miterlimit="10" stroke-width="1.734" d="m100.4 118.069 21.523-35.377M35.83 188.83h.634l.332-.001.334-.002.333-.002.309-.003.319-.005.331-.007.329-.008.339-.011.298-.011.336-.015.337-.018.325-.02.295-.02.351-.027.297-.025.346-.033.306-.032.336-.039.32-.04.333-.046.307-.047.331-.053.343-.06.299-.057.323-.063.333-.071.327-.074.315-.075.351-.089.315-.085.336-.095.305-.091.333-.104.313-.103.328-.112.32-.114.335-.125.323-.125.331-.134.328-.138.301-.131.345-.156.309-.145.329-.159.314-.157.35-.181.303-.161.344-.189.313-.177.343-.2.295-.177.336-.207.325-.206.327-.208.324-.216.311-.212.337-.234.32-.229.337-.247.305-.229.337-.258.323-.253.322-.257.337-.274.31-.258.318-.269.351-.302.317-.279.325-.291.33-.301.303-.281.324-.305.321-.308.343-.334.303-.299.35-.352.316-.321.312-.323.336-.352.337-.358.307-.331.326-.356.318-.352.345-.387.298-.338.342-.394.322-.375.319-.375.319-.38.326-.392.345-.42.316-.39.313-.388.333-.419.333-.423.299-.383.354-.458.296-.387.347-.456.331-.439.295-.396.333-.449.334-.455.333-.458.309-.427.319-.446.331-.464.329-.467.339-.483.298-.429.336-.486.337-.491.325-.477.295-.436.352-.521.297-.443.346-.52.306-.462.336-.511.32-.488.333-.512.307-.474.331-.513.343-.534.299-.468.323-.508.333-.526.326-.518.316-.503.35-.561.315-.506.336-.541.305-.493.333-.54.313-.511.328-.535.32-.524.335-.552.323-.531.331-.546.328-.543.301-.5.345-.574.308-.516.329-.55.315-.528.35-.587.303-.51.344-.579.313-.528.342-.579.296-.501.336-.57.325-.553.325-.552.635-1.081.657-1.12 1.304-2.226 2.914-4.982.646-1.102.646-1.103.666-1.132.312-.531.336-.569.337-.572.307-.52.326-.551.318-.537.344-.581.298-.502.343-.576.322-.54.319-.534.319-.533.326-.543.345-.574.316-.525.312-.519.334-.552.333-.55.314-.517" clip-path="url(#ha-angstkurve-forventning_svg__b)"/><path fill="none" stroke="orange" stroke-dasharray="14.6338,4.8779" stroke-linejoin="round" stroke-miterlimit="10" stroke-width="1.734" d="M100.4 118.069 170.152 3.422" clip-path="url(#ha-angstkurve-forventning_svg__b)"/><defs><path id="ha-angstkurve-forventning_svg__c" d="M2.168 2.168h550.664v195.551H2.168z"/></defs><clipPath id="ha-angstkurve-forventning_svg__d"><use xlink:href="#ha-angstkurve-forventning_svg__c" overflow="visible"/></clipPath><path fill="none" stroke="#000" stroke-linejoin="round" stroke-miterlimit="10" stroke-width="1.734" d="M35.83 188.83h516.569m-516.569 0V3.75m0 185.08h-5.856" clip-path="url(#ha-angstkurve-forventning_svg__d)"/><path d="M25.603 189.873c0 .84-.09 1.568-.271 2.186-.181.616-.428 1.127-.742 1.53-.314.404-.685.705-1.114.901s-.888.295-1.375.295a3.22 3.22 0 0 1-1.372-.295 2.991 2.991 0 0 1-1.104-.901c-.314-.403-.56-.914-.739-1.53-.178-.617-.268-1.346-.268-2.186 0-.845.089-1.576.268-2.195.179-.618.425-1.13.739-1.534s.682-.705 1.104-.901a3.22 3.22 0 0 1 1.372-.295c.488 0 .946.099 1.375.295s.8.497 1.114.901.562.916.742 1.534c.18.619.271 1.35.271 2.195zm-1.241 0c0-.736-.062-1.354-.186-1.853-.125-.499-.29-.901-.498-1.206-.208-.305-.448-.523-.722-.657a1.921 1.921 0 0 0-1.707 0c-.273.134-.513.353-.718.657s-.37.707-.495 1.206c-.124.499-.186 1.116-.186 1.853 0 .731.062 1.348.186 1.847.125.499.289.9.495 1.206.206.305.445.522.718.653a1.944 1.944 0 0 0 1.707 0c.273-.131.514-.349.722-.653.208-.306.374-.707.498-1.206s.186-1.116.186-1.847z"/><path fill="none" stroke="#000" stroke-linejoin="round" stroke-miterlimit="10" stroke-width="1.734" d="M35.83 117.646h-5.856"/><path d="M16.978 114.469a.576.576 0 0 1-.159.42c-.106.108-.288.162-.545.162h-3.021l-.447 2.527a6.629 6.629 0 0 1 1.389-.163c.506 0 .95.075 1.331.225.382.148.703.353.962.612s.456.567.589.922.2.739.2 1.155c0 .51-.09.971-.271 1.382s-.426.764-.735 1.057c-.31.294-.675.52-1.098.678s-.877.237-1.365.237c-.285 0-.557-.028-.816-.085s-.501-.132-.725-.227a4.46 4.46 0 0 1-.624-.322 3.455 3.455 0 0 1-.511-.383l.366-.508a.373.373 0 0 1 .318-.176c.086 0 .187.034.301.104.115.07.253.146.414.23.16.084.349.16.565.23s.477.104.779.104c.334 0 .636-.054.904-.162.269-.108.499-.263.691-.461.192-.198.338-.438.44-.715.102-.277.153-.588.153-.932 0-.303-.043-.574-.129-.816a1.558 1.558 0 0 0-.396-.616 1.846 1.846 0 0 0-.664-.396 2.726 2.726 0 0 0-.924-.143c-.244 0-.496.021-.755.062-.26.041-.527.106-.803.196l-.752-.224.779-4.505h4.56v.531h-.001zm8.609 4.295c0 .84-.09 1.568-.271 2.186-.181.616-.428 1.127-.742 1.53a2.97 2.97 0 0 1-1.115.901 3.27 3.27 0 0 1-1.375.295c-.492 0-.95-.099-1.372-.295s-.791-.497-1.104-.901c-.313-.403-.56-.914-.738-1.53-.178-.617-.268-1.346-.268-2.186 0-.845.089-1.576.268-2.195.178-.618.425-1.13.738-1.534.314-.404.682-.705 1.104-.901s.88-.295 1.372-.295c.488 0 .946.099 1.375.295.429.196.801.497 1.115.901s.561.916.742 1.534c.181.619.271 1.35.271 2.195zm-1.239 0c0-.736-.062-1.354-.187-1.853-.124-.499-.29-.901-.498-1.206-.208-.305-.448-.523-.722-.657a1.924 1.924 0 0 0-1.708 0c-.273.134-.512.353-.718.657s-.371.707-.495 1.206c-.125.499-.187 1.116-.187 1.853 0 .731.062 1.348.187 1.847.124.499.289.9.495 1.206.206.305.445.522.718.653a1.961 1.961 0 0 0 1.708 0c.274-.131.514-.349.722-.653.208-.306.374-.707.498-1.206.125-.5.187-1.116.187-1.847z"/><path fill="none" stroke="#000" stroke-linejoin="round" stroke-miterlimit="10" stroke-width="1.734" d="M35.83 46.461h-5.856"/><path d="M4.532 51.55h2.066v-6.564c0-.199.007-.397.021-.596l-1.721 1.47a.46.46 0 0 1-.132.078.387.387 0 0 1-.308-.02.327.327 0 0 1-.122-.105l-.379-.515 2.866-2.486h.976v8.739h1.897v.915H4.532v-.916zm13.251-3.896c0 .84-.09 1.568-.271 2.185s-.428 1.127-.742 1.531a2.97 2.97 0 0 1-1.115.901 3.27 3.27 0 0 1-1.375.295c-.492 0-.95-.099-1.372-.295s-.791-.497-1.104-.901c-.313-.404-.56-.915-.738-1.531s-.268-1.345-.268-2.185c0-.844.089-1.576.268-2.195.178-.619.425-1.13.738-1.535a3.001 3.001 0 0 1 1.104-.901c.422-.196.88-.294 1.372-.294.488 0 .946.098 1.375.294.429.197.801.497 1.115.901s.561.916.742 1.535c.18.619.271 1.351.271 2.195zm-1.24 0c0-.736-.062-1.354-.187-1.853-.124-.499-.29-.901-.498-1.206-.208-.305-.448-.524-.722-.657s-.559-.2-.857-.2c-.294 0-.577.066-.851.2-.273.133-.512.352-.718.657-.206.305-.371.707-.495 1.206-.125.499-.187 1.117-.187 1.853 0 .732.062 1.348.187 1.847.124.499.289.901.495 1.206s.445.523.718.654a1.961 1.961 0 0 0 1.708 0c.274-.131.514-.349.722-.654.208-.305.374-.707.498-1.206.125-.499.187-1.115.187-1.847zm9.03 0c0 .84-.09 1.568-.271 2.185s-.428 1.127-.742 1.531c-.314.404-.685.705-1.114.901s-.888.295-1.375.295a3.22 3.22 0 0 1-1.372-.295 2.983 2.983 0 0 1-1.104-.901c-.314-.404-.56-.915-.738-1.531-.179-.617-.268-1.345-.268-2.185 0-.844.089-1.576.268-2.195.178-.619.424-1.13.738-1.535s.682-.704 1.104-.901a3.216 3.216 0 0 1 1.372-.294c.488 0 .946.098 1.375.294.429.197.8.497 1.114.901s.562.916.742 1.535c.18.619.271 1.351.271 2.195zm-1.24 0c0-.736-.063-1.354-.187-1.853s-.29-.901-.498-1.206c-.208-.305-.448-.524-.722-.657a1.935 1.935 0 0 0-.857-.2c-.293 0-.577.066-.85.2s-.513.352-.718.657c-.206.305-.37.707-.495 1.206-.124.499-.186 1.117-.186 1.853 0 .732.062 1.348.186 1.847.125.499.289.901.495 1.206s.445.523.718.654a1.944 1.944 0 0 0 1.707 0c.273-.131.514-.349.722-.654.208-.305.374-.707.498-1.206s.187-1.115.187-1.847zM49.85 17.344h-1.01a.42.42 0 0 1-.277-.088.552.552 0 0 1-.163-.224l-.901-2.324h-4.322l-.901 2.324a.557.557 0 0 1-.159.217.421.421 0 0 1-.281.095h-1.009l3.848-9.634h1.328l3.847 9.634zm-6.308-3.577h3.591l-1.511-3.916a6.83 6.83 0 0 1-.285-.908c-.05.185-.099.354-.146.508a6.263 6.263 0 0 1-.139.406l-1.51 3.91zm7.331 3.577v-6.809h.711c.172 0 .28.083.325.25l.088.738c.298-.325.63-.589.996-.792a2.57 2.57 0 0 1 1.267-.305c.371 0 .698.062.982.186.285.125.522.299.711.525.19.226.334.498.434.816.099.318.149.67.149 1.054v4.336h-1.192v-4.336c0-.515-.119-.915-.355-1.199-.237-.285-.598-.427-1.081-.427a2.01 2.01 0 0 0-.989.254 3.26 3.26 0 0 0-.854.694v5.014h-1.192v.001zm9.757-6.924c.298 0 .576.033.833.098s.49.162.697.288h1.85v.44c0 .149-.095.244-.285.285l-.772.108c.153.289.23.614.23.976 0 .33-.063.63-.19.901s-.304.502-.532.694a2.45 2.45 0 0 1-.81.444 3.192 3.192 0 0 1-1.021.156c-.316 0-.617-.039-.901-.115a1.08 1.08 0 0 0-.325.292.52.52 0 0 0-.108.298.41.41 0 0 0 .193.369c.128.083.3.144.515.18.214.036.458.059.731.068.273.009.552.023.837.044.284.02.563.054.836.102s.519.127.735.241c.217.113.389.268.518.464.128.196.193.453.193.769 0 .289-.072.57-.217.843s-.354.517-.626.732a3.17 3.17 0 0 1-1.002.511c-.396.126-.841.19-1.338.19-.497 0-.933-.05-1.308-.149a3.114 3.114 0 0 1-.931-.396 1.697 1.697 0 0 1-.553-.573 1.376 1.376 0 0 1-.183-.684c0-.334.106-.619.318-.854s.503-.422.874-.563a1.239 1.239 0 0 1-.457-.359c-.116-.149-.173-.35-.173-.603 0-.1.019-.201.054-.305.037-.104.092-.208.166-.312a1.87 1.87 0 0 1 .271-.298 1.7 1.7 0 0 1 .376-.251 2.069 2.069 0 0 1-.792-.745 2.063 2.063 0 0 1-.284-1.091c0-.334.064-.637.193-.908.128-.271.307-.501.535-.691.228-.19.5-.336.816-.44a3.306 3.306 0 0 1 1.037-.156zm2.127 7.296a.589.589 0 0 0-.142-.413c-.095-.104-.224-.184-.386-.241s-.349-.097-.559-.122a9.978 9.978 0 0 0-.664-.054c-.232-.011-.47-.023-.711-.037s-.473-.039-.694-.075a1.947 1.947 0 0 0-.62.44.892.892 0 0 0-.122 1.054.996.996 0 0 0 .359.342c.16.095.364.17.609.227.247.057.534.085.864.085.32 0 .61-.029.867-.088s.474-.141.65-.247.312-.234.406-.383a.88.88 0 0 0 .143-.488zm-2.127-3.699c.244 0 .458-.034.644-.102.185-.068.341-.162.467-.281s.22-.264.281-.434.092-.353.092-.552c0-.42-.127-.753-.379-1-.253-.246-.621-.369-1.104-.369-.479 0-.845.123-1.098.369s-.379.579-.379 1c0 .199.033.382.098.552s.161.314.285.434.279.213.464.281c.185.068.395.102.629.102zm8.469-2.357a.267.267 0 0 1-.25.149.47.47 0 0 1-.223-.074 5.259 5.259 0 0 0-.315-.166 2.901 2.901 0 0 0-.44-.169 2.08 2.08 0 0 0-.606-.078c-.199 0-.379.026-.542.078-.163.052-.301.123-.414.213s-.2.194-.261.312a.824.824 0 0 0-.092.386c0 .176.051.322.153.437s.235.216.4.301c.165.086.352.162.562.227s.426.134.647.207.438.154.65.244.401.203.566.338c.165.136.298.301.4.495.102.194.152.427.152.698 0 .316-.057.608-.17.874a1.903 1.903 0 0 1-.498.691 2.406 2.406 0 0 1-.806.46 3.29 3.29 0 0 1-1.101.169c-.475 0-.905-.078-1.291-.234s-.712-.353-.979-.593l.278-.46a.44.44 0 0 1 .129-.129.356.356 0 0 1 .196-.047c.081 0 .166.03.254.091s.197.13.325.207c.129.077.283.146.464.21.181.063.409.095.684.095.23 0 .434-.031.609-.092.177-.061.322-.143.437-.247a1.012 1.012 0 0 0 .342-.785.71.71 0 0 0-.152-.464 1.31 1.31 0 0 0-.399-.318 3.048 3.048 0 0 0-.566-.227 26.16 26.16 0 0 1-.65-.203 7.497 7.497 0 0 1-.654-.248 2.321 2.321 0 0 1-.569-.345 1.577 1.577 0 0 1-.4-.515 1.653 1.653 0 0 1-.153-.742c0-.262.054-.513.163-.752s.266-.449.471-.63.458-.325.759-.434.643-.163 1.027-.163c.451 0 .854.071 1.209.213.354.142.663.335.924.579l-.27.441zm3.993 5.792c-.537 0-.951-.15-1.24-.451s-.434-.733-.434-1.297v-4.167h-.82a.26.26 0 0 1-.18-.064c-.047-.043-.071-.109-.071-.2v-.474l1.111-.143.277-2.107a.255.255 0 0 1 .088-.159.278.278 0 0 1 .189-.064h.603v2.344h1.951v.867h-1.951v4.085c0 .289.069.502.207.64s.317.207.539.207a.96.96 0 0 0 .329-.051c.093-.034.172-.071.237-.112s.122-.078.169-.112a.224.224 0 0 1 .125-.051c.063 0 .12.039.169.115l.346.576a2.24 2.24 0 0 1-.742.451 2.479 2.479 0 0 1-.902.167zm2.638-4.647h3.32v1.016h-3.32v-1.016zm4.973 4.539v-6.809h.711c.172 0 .28.083.325.25l.088.738c.298-.325.63-.589.996-.792a2.57 2.57 0 0 1 1.267-.305c.37 0 .698.062.982.186.285.125.522.299.711.525.19.226.334.498.434.816s.149.67.149 1.054v4.336h-1.192v-4.336c0-.515-.118-.915-.355-1.199s-.598-.427-1.081-.427c-.353 0-.682.084-.989.254s-.592.401-.854.694v5.014h-1.192v.001zm8.795-6.809v6.809h-1.192v-6.809h1.192zm.271-2.134c0 .113-.023.22-.071.322a.954.954 0 0 1-.461.458.803.803 0 0 1-.329.067.778.778 0 0 1-.325-.067.907.907 0 0 1-.454-.458.83.83 0 0 1 0-.657.831.831 0 0 1 .186-.274.924.924 0 0 1 .268-.183.782.782 0 0 1 .325-.068c.118 0 .227.022.329.068a.912.912 0 0 1 .461.457.816.816 0 0 1 .071.335zm.979 2.134h.982c.095 0 .173.024.234.074s.105.108.132.176l1.728 4.383c.063.158.113.318.149.481l.102.474c.036-.153.075-.312.115-.474s.092-.323.156-.481l1.741-4.383a.407.407 0 0 1 .132-.18.362.362 0 0 1 .227-.071h.935l-2.778 6.809h-1.077l-2.778-6.808zm10.433-.108c.406 0 .782.069 1.128.207s.644.335.895.593.446.575.586.952c.14.377.21.81.21 1.297 0 .186-.02.31-.061.373-.041.063-.115.095-.224.095h-4.532c.009.429.068.803.176 1.121s.256.584.443.796c.188.212.411.372.671.478.26.106.55.159.871.159.303 0 .563-.035.779-.105.217-.07.404-.145.562-.223.158-.079.289-.154.393-.224a.51.51 0 0 1 .271-.105c.1 0 .176.038.23.115l.332.434a2.11 2.11 0 0 1-.529.467 3.494 3.494 0 0 1-.664.325 4.385 4.385 0 0 1-1.471.257 3.44 3.44 0 0 1-1.304-.24 2.906 2.906 0 0 1-1.026-.698 3.186 3.186 0 0 1-.678-1.138c-.163-.454-.244-.975-.244-1.562 0-.474.073-.917.22-1.328a3.15 3.15 0 0 1 .63-1.07 2.904 2.904 0 0 1 1.002-.715 3.29 3.29 0 0 1 1.334-.261zm.027.88c-.578 0-1.033.167-1.365.501-.332.334-.539.797-.62 1.389h3.706c0-.28-.039-.535-.115-.765a1.689 1.689 0 0 0-.339-.596 1.552 1.552 0 0 0-.542-.39 1.806 1.806 0 0 0-.725-.139zm9.314 6.037h-.528a.643.643 0 0 1-.285-.054c-.072-.036-.12-.113-.142-.23l-.135-.63a7.688 7.688 0 0 1-.525.434 3.085 3.085 0 0 1-.536.322 2.756 2.756 0 0 1-.599.2 3.44 3.44 0 0 1-.711.068 2.4 2.4 0 0 1-.746-.112 1.572 1.572 0 0 1-1.006-.894 1.957 1.957 0 0 1-.153-.803c0-.266.075-.525.224-.775.149-.251.388-.472.718-.664.33-.192.761-.349 1.294-.471s1.183-.192 1.951-.21v-.535c0-.528-.113-.928-.339-1.199-.226-.271-.56-.406-1.002-.406-.293 0-.54.037-.738.112a2.81 2.81 0 0 0-.515.25c-.145.093-.27.175-.376.248a.559.559 0 0 1-.315.108c-.081 0-.151-.021-.21-.064s-.106-.094-.142-.152l-.217-.386c.375-.361.78-.632 1.216-.813s.918-.271 1.447-.271c.379 0 .717.063 1.013.189s.544.302.745.525c.201.224.354.494.458.813.104.318.155.667.155 1.046v4.354h-.001zm-3.103-.732a2.25 2.25 0 0 0 1.071-.247c.154-.079.302-.174.444-.285.142-.11.279-.238.41-.383v-1.416c-.551.018-1.019.061-1.403.129a3.813 3.813 0 0 0-.938.271c-.242.113-.418.245-.529.396a.849.849 0 0 0-.166.511c0 .181.029.335.088.464.059.128.137.235.234.318s.213.145.349.183c.136.04.282.059.44.059zm5.949-6.077v4.343c0 .515.119.913.356 1.195s.595.424 1.074.424c.348 0 .676-.083.986-.248.309-.165.595-.396.857-.694v-5.02h1.192v6.809h-.711c-.171 0-.278-.083-.318-.25l-.095-.732c-.298.33-.631.594-.999.793-.368.198-.79.298-1.264.298-.371 0-.698-.062-.982-.187-.285-.124-.523-.298-.715-.521s-.337-.495-.434-.813a3.598 3.598 0 0 1-.146-1.053v-4.343h1.199v-.001zM516.332 163.37v1.098h-3.108v8.536h-1.306v-8.536h-3.126v-1.098h7.54zm2.506 2.824v6.81h-1.192v-6.81h1.192zm.269-2.133c0 .113-.021.221-.069.322s-.113.191-.191.271-.169.142-.269.187a.803.803 0 0 1-.33.068.762.762 0 0 1-.324-.068c-.101-.045-.191-.107-.27-.187s-.139-.169-.187-.271a.884.884 0 0 1 0-.657.87.87 0 0 1 .457-.458.818.818 0 0 1 .654 0 .932.932 0 0 1 .46.458.814.814 0 0 1 .069.335zm6.629 8.943c-.169 0-.277-.084-.316-.251l-.108-.826a3.649 3.649 0 0 1-1.001.854 2.587 2.587 0 0 1-1.288.318c-.391 0-.741-.075-1.063-.227a2.205 2.205 0 0 1-.811-.664c-.226-.292-.399-.654-.521-1.088s-.182-.933-.182-1.497c0-.502.069-.969.203-1.402.135-.434.33-.809.581-1.125.256-.316.563-.565.928-.748.36-.184.772-.274 1.236-.274.416 0 .771.07 1.066.213s.56.34.794.593v-3.773h1.192v9.898h-.71v-.001zm-2.314-.874c.39 0 .728-.09 1.022-.268.295-.179.563-.433.812-.763v-3.292c-.222-.294-.46-.5-.725-.62a2.05 2.05 0 0 0-.867-.18c-.638 0-1.123.228-1.466.681-.342.454-.511 1.1-.511 1.935 0 .442.038.822.112 1.139.078.315.19.575.338.779.147.202.325.352.542.446.214.095.461.143.743.143z"/><path fill="none" stroke="#000" stroke-linejoin="round" stroke-miterlimit="10" stroke-width="1.734" d="M91.922 70.676h68.941"/><path d="M178.627 74.578h-1.01a.42.42 0 0 1-.277-.088.555.555 0 0 1-.163-.223l-.901-2.324h-4.322l-.901 2.324a.55.55 0 0 1-.16.217.421.421 0 0 1-.281.095h-1.01l3.849-9.634h1.328l3.848 9.633zm-6.308-3.577h3.591l-1.511-3.916a6.83 6.83 0 0 1-.285-.908c-.05.185-.099.354-.146.508a6.307 6.307 0 0 1-.139.407l-1.51 3.909zm7.602 3.577v-5.786l-.759-.088a.603.603 0 0 1-.227-.105.245.245 0 0 1-.092-.206v-.488h1.077v-.657c0-.393.054-.739.163-1.04.108-.3.265-.555.468-.766.203-.21.448-.368.735-.474.287-.106.611-.159.972-.159.303 0 .585.043.847.128l-.027.604c-.005.09-.043.144-.116.163a1.329 1.329 0 0 1-.305.027h-.21c-.203 0-.39.026-.559.078a1.025 1.025 0 0 0-.434.261c-.12.122-.212.281-.277.478a2.332 2.332 0 0 0-.099.735v.624h1.972v.867h-1.931v5.806h-1.198v-.002zm4.296 0V64.68h1.199v4.072a3.59 3.59 0 0 1 .976-.789 2.561 2.561 0 0 1 1.253-.302c.393 0 .749.075 1.067.224.318.149.589.37.813.664.224.293.396.656.519 1.087.122.431.183.929.183 1.494 0 .501-.067.969-.203 1.403-.135.434-.33.808-.583 1.125a2.715 2.715 0 0 1-.928.745 2.744 2.744 0 0 1-1.233.271c-.438 0-.811-.086-1.118-.257a2.621 2.621 0 0 1-.806-.711l-.062.617c-.031.171-.133.257-.305.257h-.772v-.002zm3.035-5.962c-.389 0-.729.089-1.023.268a2.955 2.955 0 0 0-.813.762v3.292c.217.293.457.501.718.624.262.122.553.183.874.183.637 0 1.126-.226 1.467-.678.341-.451.512-1.097.512-1.938 0-.442-.04-.823-.119-1.141a2.246 2.246 0 0 0-.338-.783 1.308 1.308 0 0 0-.542-.447 1.827 1.827 0 0 0-.736-.142zm4.432 5.962v-6.809h.684c.131 0 .222.025.271.075.05.05.083.136.102.257l.074 1.057c.235-.474.524-.845.867-1.111s.745-.4 1.206-.4c.189 0 .36.022.512.065s.292.103.423.179l-.155.894c-.032.113-.102.17-.21.17-.063 0-.159-.022-.288-.065a1.795 1.795 0 0 0-.545-.064c-.416 0-.764.121-1.043.362-.28.242-.515.593-.705 1.054v4.336h-1.193zm7.404 2.012c-.036.086-.084.156-.146.21s-.155.081-.281.081h-.887l1.247-2.703-2.812-6.409h1.036c.1 0 .179.026.237.078a.479.479 0 0 1 .129.173l1.822 4.288a3.494 3.494 0 0 1 .183.596c.031-.104.063-.204.095-.301s.068-.198.108-.301l1.761-4.282a.387.387 0 0 1 .353-.251h.955l-3.8 8.821zm9.675-2.012c-.172 0-.278-.083-.319-.251l-.108-.827c-.293.357-.627.642-1.002.854s-.804.318-1.287.318a2.44 2.44 0 0 1-1.06-.227 2.203 2.203 0 0 1-.813-.664c-.224-.292-.396-.654-.519-1.087s-.183-.933-.183-1.498c0-.501.067-.969.203-1.402a3.41 3.41 0 0 1 .583-1.125c.253-.316.561-.566.925-.749a2.71 2.71 0 0 1 1.236-.274c.416 0 .771.071 1.067.213.296.143.562.34.796.593V64.68h1.192v9.898h-.711zm-2.317-.874c.388 0 .729-.089 1.022-.268.294-.179.565-.433.813-.762v-3.293c-.221-.293-.462-.5-.725-.62a2.057 2.057 0 0 0-.867-.18c-.637 0-1.126.227-1.466.681-.341.454-.512 1.099-.512 1.934 0 .443.038.822.115 1.138.077.316.188.576.335.779.146.203.328.352.542.447.216.097.463.144.743.144zm7.732-6.043c.406 0 .782.069 1.127.207.346.138.644.335.895.593.25.258.446.575.586.952s.21.81.21 1.297c0 .185-.021.309-.062.373-.041.063-.115.095-.224.095h-4.532c.009.429.068.802.176 1.121.108.318.256.583.444.796.187.212.411.371.67.478.26.106.55.159.871.159.302 0 .562-.035.779-.105a3.888 3.888 0 0 0 .956-.447.507.507 0 0 1 .271-.104c.099 0 .176.038.23.115l.332.434a2.147 2.147 0 0 1-.528.468 3.494 3.494 0 0 1-.664.325 4.376 4.376 0 0 1-1.471.257c-.474 0-.909-.081-1.304-.24-.395-.161-.737-.394-1.026-.698s-.515-.684-.678-1.138-.244-.974-.244-1.562c0-.474.073-.917.22-1.328a3.15 3.15 0 0 1 .63-1.07 2.921 2.921 0 0 1 1.003-.715c.396-.176.84-.263 1.333-.263zm.027.881c-.578 0-1.033.167-1.365.501-.332.334-.539.797-.62 1.389h3.706c0-.28-.039-.535-.115-.766s-.189-.429-.339-.596a1.552 1.552 0 0 0-.542-.39 1.793 1.793 0 0 0-.725-.138zm5.642-3.862v9.898h-1.192V64.68h1.192zm6.006 4.214a.266.266 0 0 1-.25.149.465.465 0 0 1-.224-.075 4.913 4.913 0 0 0-.314-.166 2.943 2.943 0 0 0-.44-.169 2.08 2.08 0 0 0-.606-.078c-.199 0-.379.026-.542.078-.163.051-.3.123-.413.213a.964.964 0 0 0-.261.312.823.823 0 0 0-.091.386c0 .176.051.322.152.437.102.116.235.216.4.302.165.085.352.162.562.227.21.065.426.134.647.207.221.072.438.153.65.244.212.09.4.203.565.338.165.136.298.3.399.495.102.194.153.427.153.698 0 .316-.056.607-.169.874a1.903 1.903 0 0 1-.498.691c-.219.194-.488.348-.806.461s-.685.169-1.101.169c-.474 0-.904-.078-1.291-.234a3.29 3.29 0 0 1-.979-.592l.278-.46a.45.45 0 0 1 .128-.129.362.362 0 0 1 .197-.047c.082 0 .166.03.254.091s.197.13.325.207c.129.077.284.147.464.21s.409.095.684.095c.23 0 .434-.03.61-.091s.322-.143.437-.247.201-.223.257-.355c.057-.134.085-.277.085-.431a.709.709 0 0 0-.153-.464c-.102-.124-.234-.23-.399-.318s-.354-.164-.566-.227a26.16 26.16 0 0 1-.65-.203 7.497 7.497 0 0 1-.654-.248 2.294 2.294 0 0 1-.569-.346c-.165-.137-.298-.309-.4-.515s-.152-.453-.152-.742a1.824 1.824 0 0 1 .634-1.382c.206-.18.458-.325.759-.434a3.026 3.026 0 0 1 1.026-.163c.452 0 .855.071 1.209.214.354.142.663.335.925.579l-.272.439zm4.629-1.233c.406 0 .782.069 1.128.207.345.138.644.335.895.593.25.258.445.575.585.952s.21.81.21 1.297c0 .185-.021.309-.061.373-.041.063-.115.095-.224.095h-4.533c.009.429.068.802.177 1.121.108.318.256.583.443.796s.411.371.671.478c.26.106.55.159.871.159.303 0 .563-.035.779-.105a3.754 3.754 0 0 0 .955-.447.507.507 0 0 1 .271-.104c.099 0 .176.038.23.115l.333.434a2.134 2.134 0 0 1-.529.468 3.494 3.494 0 0 1-.664.325 4.385 4.385 0 0 1-1.471.257c-.474 0-.909-.081-1.304-.24a2.92 2.92 0 0 1-1.026-.698c-.289-.305-.515-.684-.677-1.138s-.244-.974-.244-1.562c0-.474.074-.917.221-1.328.146-.411.356-.768.63-1.07a2.917 2.917 0 0 1 1.002-.715c.396-.176.84-.263 1.332-.263zm.027.881c-.578 0-1.033.167-1.365.501-.333.334-.539.797-.62 1.389h3.706c0-.28-.039-.535-.115-.766s-.189-.429-.338-.596c-.149-.167-.33-.297-.542-.39s-.455-.138-.726-.138z"/></svg>