<svg xml:space="preserve" width="1000" height="560" xmlns="http://www.w3.org/2000/svg"><path fill="none" stroke="#D53593" stroke-miterlimit="10" stroke-width="2" d="M541.25 417.579h6.375"/><path fill="none" stroke="#000" stroke-miterlimit="10" stroke-width="2" d="M130 347.5h760v2l4-2-4-2v2M890 212.5v2l4-2-4-2v2H130"/><linearGradient id="ha-bds-kurve-trappe_svg__a" x1="373.009" x2="816.511" y1="374.68" y2="374.68" gradientUnits="userSpaceOnUse"><stop offset="0" style="stop-color:#ffd80d"/><stop offset=".394" style="stop-color:#f78e1e;stop-opacity:.6059"/><stop offset=".695" style="stop-color:#f37121;stop-opacity:.1851"/><stop offset="1" style="stop-color:#d32027;stop-opacity:0"/></linearGradient><path fill="none" stroke="url(#ha-bds-kurve-trappe_svg__a)" stroke-miterlimit="10" stroke-width="2" d="M373.5 237c44.75 25.25 45 119 71.5 119s28.5-155 50.25-154S524 418 542 417.5 570.5 196 582 196s27.5 267.5 39 268 34.5-263.5 46.5-264 29 314.5 42.5 316 34-315 47-317 33.5 339.333 59 354.5"/><path fill="none" stroke="#8DC63F" stroke-miterlimit="10" stroke-width="2" d="M130 205.5s4.527-13.706 13.764-14.02S157.64 242.809 167.5 244c15.167 1.833 17.5-32 41-50s43.5-15.167 63-14 40.5 10.833 48 17.5 11.833 10.333 21 19.5 30.833 21.167 44 23 25-7.5 25-7.5 34.066-25.533 42-29.5c7.933-3.966 60.167-23.5 85.5-20s81 54.167 108 54 41.334-41.5 75-42.5 58.667 36.667 86 35 29.334-43.667 44.5-48.5 36 3 36 3"/><path fill="none" stroke="#000" stroke-miterlimit="10" stroke-width="2" d="M130 527.5h2l-2 4-2-4h2v-495h2l-2-4-2 4h2"/><path d="M901.912 209.969a3.123 3.123 0 0 1-.34-.772 2.86 2.86 0 0 1 .248-2.152 4.26 4.26 0 0 1 .996-1.212l.439.272c.043.027.07.056.084.088a.258.258 0 0 1-.06.288 5.826 5.826 0 0 0-.247.336 2.96 2.96 0 0 0-.216.372c-.064.131-.115.268-.152.412s-.057.296-.057.456c0 .17.025.347.076.528s.138.374.26.576c.038.059.057.12.057.184 0 .128-.072.219-.216.272l-.872.352zm2.432 0a3.123 3.123 0 0 1-.34-.772 2.87 2.87 0 0 1 .248-2.152c.237-.44.569-.844.996-1.212l.439.272a.199.199 0 0 1 .084.088.258.258 0 0 1-.059.288c-.085.107-.168.219-.248.336s-.151.241-.216.372-.115.268-.152.412-.056.296-.056.456c0 .17.025.347.076.528.05.181.138.374.26.576.037.059.056.12.056.184 0 .128-.072.219-.216.272l-.872.352zM909.324 206.653a.815.815 0 0 1 .229.212l6.64 8.64c-.017-.139-.026-.273-.032-.404s-.008-.257-.008-.38v-8.12h1.359v11.464h-.783a.667.667 0 0 1-.309-.064.78.78 0 0 1-.244-.216l-6.631-8.632a10.939 10.939 0 0 1 .031.744v8.168h-1.359v-11.464h.799a.721.721 0 0 1 .308.052zM923.368 209.833c.592 0 1.126.099 1.604.296s.883.478 1.216.84c.334.363.59.802.769 1.316s.269 1.089.269 1.724c0 .64-.09 1.216-.269 1.728-.179.512-.435.95-.769 1.312a3.32 3.32 0 0 1-1.216.836 4.209 4.209 0 0 1-1.604.292 4.202 4.202 0 0 1-1.604-.292 3.368 3.368 0 0 1-1.22-.836 3.73 3.73 0 0 1-.776-1.312c-.182-.512-.271-1.088-.271-1.728 0-.634.09-1.209.271-1.724s.44-.954.776-1.316a3.428 3.428 0 0 1 1.22-.84 4.164 4.164 0 0 1 1.604-.296zm0 7.232c.8 0 1.397-.268 1.792-.804s.592-1.284.592-2.244c0-.965-.197-1.717-.592-2.256-.395-.539-.992-.808-1.792-.808-.405 0-.758.069-1.056.208a1.963 1.963 0 0 0-.748.6c-.201.262-.35.583-.449.964-.098.381-.147.812-.147 1.292s.05.909.147 1.288c.1.378.248.697.449.956.199.259.449.458.748.596.298.139.651.208 1.056.208zM928.984 218.065v-8.104h.815c.155 0 .261.029.32.088s.099.16.12.304l.096 1.264c.277-.565.62-1.006 1.027-1.324a2.275 2.275 0 0 1 1.437-.476 2.114 2.114 0 0 1 1.112.288l-.184 1.064c-.038.133-.121.2-.248.2-.075 0-.189-.025-.345-.076s-.37-.076-.647-.076c-.496 0-.911.144-1.244.432-.334.288-.612.707-.836 1.256v5.16h-1.423zM935.432 218.065v-8.104h.848c.203 0 .331.099.385.296l.104.832c.299-.368.633-.669 1.004-.904s.801-.352 1.292-.352c.55 0 .993.152 1.332.456.339.304.583.715.731 1.232a2.56 2.56 0 0 1 1.796-1.592c.258-.064.521-.096.788-.096.427 0 .806.068 1.14.204.334.136.616.334.848.596.232.262.41.583.532.964.123.381.185.817.185 1.308v5.16h-1.424v-5.16c0-.634-.139-1.116-.416-1.444s-.681-.492-1.209-.492a1.83 1.83 0 0 0-.668.124 1.611 1.611 0 0 0-.936.968 2.329 2.329 0 0 0-.141.844v5.16h-1.424v-5.16c0-.65-.131-1.136-.392-1.456-.261-.32-.643-.48-1.144-.48-.353 0-.68.095-.98.284s-.577.447-.828.772v6.04h-1.423zM954.52 218.065h-.633a.75.75 0 0 1-.336-.064c-.085-.042-.141-.133-.168-.272l-.159-.752a9.172 9.172 0 0 1-.624.516c-.203.152-.416.28-.641.384a3.314 3.314 0 0 1-.715.236 4.14 4.14 0 0 1-.845.08c-.315 0-.609-.044-.884-.132a2.02 2.02 0 0 1-.717-.396 1.894 1.894 0 0 1-.483-.668 2.336 2.336 0 0 1-.181-.956c0-.32.089-.628.265-.924.176-.296.46-.559.853-.788.392-.229.904-.417 1.539-.564.635-.147 1.411-.231 2.328-.252v-.632c0-.629-.135-1.105-.404-1.428s-.668-.484-1.195-.484c-.347 0-.639.044-.876.132s-.442.187-.616.296-.322.208-.447.296a.65.65 0 0 1-.373.132c-.096 0-.18-.025-.252-.076s-.129-.113-.172-.188l-.256-.456a4.626 4.626 0 0 1 1.448-.968 4.477 4.477 0 0 1 1.72-.32c.453 0 .855.075 1.208.224s.647.357.888.624.422.589.545.968c.122.379.184.795.184 1.248v5.184zm-3.697-.872a2.717 2.717 0 0 0 1.276-.292c.184-.093.359-.207.527-.34s.332-.285.492-.456v-1.688c-.656.021-1.213.073-1.672.156-.459.083-.832.191-1.119.324-.289.133-.498.291-.629.472a1.012 1.012 0 0 0-.195.608c0 .213.034.397.104.552a1.036 1.036 0 0 0 .695.596c.161.046.335.068.521.068zM958.264 206.281v11.784h-1.424v-11.784h1.424zM963.231 218.193c-.64 0-1.132-.179-1.476-.536-.344-.357-.517-.872-.517-1.544v-4.96h-.976c-.086 0-.158-.025-.217-.076s-.088-.129-.088-.236v-.568l1.328-.168.328-2.504a.301.301 0 0 1 .104-.196.337.337 0 0 1 .225-.076h.721v2.792h2.319v1.032h-2.319v4.864c0 .341.082.595.248.76a.86.86 0 0 0 .639.248c.15 0 .279-.02.389-.06s.204-.084.284-.132c.079-.048.147-.092.204-.132a.266.266 0 0 1 .147-.06c.075 0 .142.045.2.136l.416.68a2.652 2.652 0 0 1-.889.54 2.983 2.983 0 0 1-1.07.196zM967.743 206.001c.155.256.267.512.336.768s.104.512.104.768c0 .485-.119.948-.356 1.388s-.567.844-.987 1.212l-.44-.272a.194.194 0 0 1-.084-.088.262.262 0 0 1 .059-.288 3.54 3.54 0 0 0 .465-.708c.063-.13.113-.268.151-.412.037-.144.056-.296.056-.456 0-.171-.025-.347-.076-.528a2.356 2.356 0 0 0-.26-.576.328.328 0 0 1-.056-.176c0-.128.071-.221.216-.28l.872-.352zm2.433 0c.154.256.266.512.336.768a2.898 2.898 0 0 1-.251 2.156c-.238.44-.567.844-.988 1.212l-.44-.272a.2.2 0 0 1-.084-.088.256.256 0 0 1 .059-.288 3.54 3.54 0 0 0 .465-.708c.063-.13.114-.268.152-.412.037-.144.055-.296.055-.456 0-.171-.025-.347-.075-.528a2.362 2.362 0 0 0-.261-.576.327.327 0 0 1-.055-.176c0-.128.071-.221.215-.28l.872-.352zM977.239 206.281v11.784h-1.424v-11.784h1.424zM981.654 207.417a.89.89 0 0 1-.084.388 1.056 1.056 0 0 1-.547.54c-.123.054-.254.08-.393.08s-.268-.026-.388-.08a1.081 1.081 0 0 1-.54-.54.99.99 0 0 1 0-.784 1.028 1.028 0 0 1 .928-.628c.139 0 .27.027.393.08a1.04 1.04 0 0 1 .547.548.949.949 0 0 1 .084.396zm-.319 2.544v8.104h-1.424v-8.104h1.424zM982.822 209.961h1.168c.112 0 .205.029.28.088a.498.498 0 0 1 .16.208l2.056 5.216c.075.192.134.384.176.576.043.192.083.381.121.568.042-.187.088-.376.136-.568s.108-.384.184-.576l2.08-5.216a.477.477 0 0 1 .156-.212.422.422 0 0 1 .269-.084h1.111l-3.305 8.104h-1.287l-3.305-8.104zM903.762 336.185h.584c.203 0 .364-.024.484-.075s.233-.138.34-.261l3.816-4.319c.117-.134.23-.229.34-.284s.249-.084.42-.084h1.32l-4.368 4.936c-.112.123-.218.228-.316.313s-.204.154-.315.208c.148.048.279.12.392.216s.229.216.353.36l4.56 5.432h-1.345c-.101 0-.186-.008-.256-.024-.068-.016-.129-.037-.18-.063s-.098-.062-.14-.104a2.827 2.827 0 0 1-.128-.136l-3.961-4.552a2.533 2.533 0 0 0-.163-.164.743.743 0 0 0-.408-.183 2.108 2.108 0 0 0-.324-.021h-.704v5.248h-1.544v-11.464h1.544v5.021zM912.73 342.625v-8.104h.815c.155 0 .261.029.32.088s.099.159.12.304l.096 1.264c.277-.565.62-1.007 1.027-1.324a2.28 2.28 0 0 1 1.437-.476 2.114 2.114 0 0 1 1.112.288l-.184 1.063c-.038.134-.121.2-.248.2-.075 0-.189-.025-.345-.076-.155-.05-.37-.075-.647-.075-.496 0-.911.144-1.244.432-.334.288-.612.707-.836 1.256v5.16h-1.423zM922.459 334.393c.592 0 1.126.1 1.604.297.477.197.883.477 1.216.84.333.362.589.801.769 1.315.178.515.268 1.09.268 1.725 0 .64-.09 1.216-.268 1.728-.18.512-.436.949-.769 1.313a3.352 3.352 0 0 1-1.216.836 4.228 4.228 0 0 1-1.604.292 4.22 4.22 0 0 1-1.604-.292 3.385 3.385 0 0 1-1.22-.836 3.728 3.728 0 0 1-.776-1.313c-.182-.512-.272-1.088-.272-1.728 0-.635.091-1.21.272-1.725.181-.515.44-.953.776-1.315.336-.363.742-.643 1.22-.84s1.011-.297 1.604-.297zm0 7.232c.799 0 1.396-.268 1.791-.804s.592-1.284.592-2.244c0-.966-.197-1.718-.592-2.256-.395-.539-.992-.809-1.791-.809-.406 0-.758.069-1.057.208s-.548.339-.748.601c-.2.261-.35.582-.448.964a5.152 5.152 0 0 0-.147 1.292c0 .479.049.909.147 1.288s.248.697.448.956.449.457.748.596.651.208 1.057.208zM928.074 345.369v-10.848h.848c.203 0 .331.099.385.296l.119.96c.348-.422.743-.761 1.188-1.017s.958-.384 1.54-.384c.464 0 .885.09 1.264.268.379.18.701.443.969.792.266.35.472.783.615 1.301.145.517.217 1.111.217 1.784 0 .597-.08 1.153-.24 1.668s-.39.96-.688 1.336c-.298.376-.665.672-1.1.888s-.925.324-1.468.324c-.502 0-.93-.083-1.284-.248s-.669-.4-.94-.704v3.584h-1.425zm3.608-9.84c-.463 0-.87.106-1.219.319-.35.214-.672.515-.965.904v3.92c.262.353.549.601.86.744s.659.216 1.044.216c.752 0 1.33-.27 1.736-.808.404-.539.607-1.307.607-2.304 0-.528-.047-.981-.14-1.36-.094-.379-.228-.689-.404-.933a1.57 1.57 0 0 0-.647-.531 2.167 2.167 0 0 0-.872-.167zM941.546 335.857a.316.316 0 0 1-.296.176.546.546 0 0 1-.271-.088c-.102-.059-.227-.124-.373-.196s-.321-.139-.523-.2a2.482 2.482 0 0 0-.721-.092c-.24 0-.455.03-.647.092s-.356.146-.492.252a1.133 1.133 0 0 0-.312.372 1.002 1.002 0 0 0-.108.46c0 .208.06.382.181.521.119.139.277.259.476.359.197.102.421.191.672.269s.508.16.772.248.521.186.771.292c.25.106.475.239.672.399s.355.356.477.588c.119.232.18.511.18.836 0 .374-.066.719-.2 1.036s-.331.593-.592.824a2.852 2.852 0 0 1-.96.548 3.93 3.93 0 0 1-1.313.2 4.09 4.09 0 0 1-1.535-.276 3.875 3.875 0 0 1-1.168-.708l.336-.544a.482.482 0 0 1 .151-.159.42.42 0 0 1 .231-.057c.097 0 .197.037.305.112.106.074.236.157.389.248.151.091.336.173.551.248.217.074.487.111.813.111.277 0 .52-.035.729-.107.207-.072.381-.169.52-.292s.241-.264.309-.424c.066-.16.1-.331.1-.513a.855.855 0 0 0-.18-.556 1.552 1.552 0 0 0-.477-.376 3.854 3.854 0 0 0-.676-.271 59.962 59.962 0 0 1-.776-.244 9.153 9.153 0 0 1-.776-.292c-.253-.109-.479-.247-.676-.412s-.355-.369-.476-.612c-.12-.242-.181-.537-.181-.884a2.164 2.164 0 0 1 .752-1.645c.246-.216.547-.388.904-.516s.766-.192 1.225-.192c.533 0 1.012.084 1.436.252.424.169.791.399 1.1.692l-.323.521zM945.434 330.841v11.784h-1.424v-11.784h1.424zM949.85 331.977c0 .14-.027.269-.084.389a1.1 1.1 0 0 1-.548.54c-.122.053-.253.08-.392.08s-.269-.027-.389-.08a1.066 1.066 0 0 1-.539-.54.919.919 0 0 1-.08-.389 1.037 1.037 0 0 1 .619-.944c.12-.054.25-.08.389-.08s.27.026.392.08a1.056 1.056 0 0 1 .548.548.958.958 0 0 1 .084.396zm-.321 2.544v8.104h-1.424v-8.104h1.424zM954.77 334.385c.352 0 .682.039.988.116s.585.19.836.34h2.199v.528c0 .176-.111.288-.336.336l-.92.128c.182.347.272.733.272 1.16 0 .395-.076.753-.228 1.076a2.438 2.438 0 0 1-.633.828c-.27.229-.589.405-.959.527a3.856 3.856 0 0 1-1.221.185c-.379 0-.736-.046-1.072-.137-.17.107-.3.222-.388.345a.616.616 0 0 0-.132.359c0 .192.077.338.232.437.154.099.359.169.615.212s.547.069.872.08.657.027.996.052.671.065.996.124.616.154.872.288c.256.133.461.317.615.552.155.234.232.539.232.912 0 .347-.086.683-.26 1.008s-.423.615-.748.868-.723.456-1.191.608c-.471.151-1 .228-1.593.228-.592 0-1.11-.059-1.556-.176s-.814-.274-1.108-.472a2.055 2.055 0 0 1-.659-.685 1.621 1.621 0 0 1-.221-.812c0-.4.127-.74.38-1.021s.602-.503 1.044-.668c-.229-.106-.412-.249-.548-.428s-.204-.417-.204-.716c0-.117.021-.239.064-.364s.107-.249.195-.372a2.074 2.074 0 0 1 .772-.649 2.522 2.522 0 0 1-.94-.892c-.227-.37-.34-.804-.34-1.3 0-.395.076-.753.229-1.076.152-.322.363-.598.636-.824s.597-.401.972-.523a4.06 4.06 0 0 1 1.24-.182zm2.527 8.68c0-.203-.055-.366-.168-.488a1.071 1.071 0 0 0-.455-.284 3.367 3.367 0 0 0-.664-.148 10.505 10.505 0 0 0-.792-.067c-.278-.014-.56-.028-.849-.044a8.29 8.29 0 0 1-.824-.088 2.327 2.327 0 0 0-.739.527 1.07 1.07 0 0 0-.143 1.252c.093.157.235.294.428.408.191.115.434.205.724.272.29.066.634.1 1.028.1.384 0 .728-.034 1.031-.104.305-.069.562-.168.772-.296.21-.129.372-.28.483-.456.113-.176.168-.371.168-.584zm-2.527-4.4c.288 0 .543-.04.764-.12.222-.08.406-.192.557-.336.148-.144.261-.316.336-.516.074-.2.111-.42.111-.66 0-.496-.15-.891-.451-1.185-.302-.293-.74-.439-1.316-.439-.57 0-1.007.146-1.309.439-.301.294-.451.688-.451 1.185 0 .24.039.46.115.66a1.438 1.438 0 0 0 .893.852c.219.08.467.12.751.12zM906.475 355.058a.318.318 0 0 1-.297.176c-.08 0-.17-.029-.271-.088s-.226-.124-.372-.196c-.147-.072-.321-.139-.524-.2s-.442-.092-.72-.092c-.24 0-.456.03-.647.092a1.584 1.584 0 0 0-.492.252c-.137.107-.24.231-.313.372a1 1 0 0 0-.107.46c0 .208.06.382.18.521.119.139.278.259.477.359.197.102.42.191.672.269.25.077.508.16.771.248s.521.186.771.292c.251.106.475.239.672.399s.356.356.477.588c.12.232.18.511.18.836 0 .374-.066.719-.199 1.036a2.267 2.267 0 0 1-.592.824 2.857 2.857 0 0 1-.961.548c-.379.134-.816.2-1.312.2a4.095 4.095 0 0 1-1.536-.276 3.888 3.888 0 0 1-1.168-.708l.336-.544a.495.495 0 0 1 .152-.159.42.42 0 0 1 .231-.057c.097 0 .197.037.304.112.107.074.236.157.389.248s.336.173.552.248c.216.074.487.111.812.111.277 0 .521-.035.729-.107s.381-.169.52-.292.242-.264.309-.424.1-.331.1-.513c0-.224-.06-.409-.18-.556s-.279-.271-.477-.376a3.822 3.822 0 0 0-.676-.271 59.891 59.891 0 0 1-.775-.244c-.264-.086-.523-.183-.776-.292s-.479-.247-.676-.412a1.85 1.85 0 0 1-.476-.612c-.121-.242-.181-.537-.181-.884a2.192 2.192 0 0 1 .752-1.645c.245-.216.547-.388.904-.516a3.61 3.61 0 0 1 1.224-.192c.533 0 1.012.084 1.436.252.425.169.791.399 1.101.692l-.323.521zM911.234 361.953c-.641 0-1.133-.179-1.477-.536s-.516-.872-.516-1.544v-4.96h-.977c-.085 0-.157-.025-.216-.076s-.088-.129-.088-.235v-.568l1.328-.168.327-2.504c.012-.08.046-.146.104-.196s.134-.076.224-.076h.721v2.792h2.32v1.032h-2.32v4.864c0 .341.082.595.248.76a.867.867 0 0 0 .64.248c.149 0 .278-.02.388-.06s.205-.084.285-.133c.079-.048.147-.092.203-.132.057-.04.105-.06.148-.06.074 0 .141.045.199.136l.416.68c-.244.229-.541.41-.888.54a2.981 2.981 0 0 1-1.069.196zM914.746 361.825v-8.104h.815c.155 0 .261.029.32.088s.099.159.12.304l.096 1.264c.277-.565.62-1.007 1.027-1.324a2.28 2.28 0 0 1 1.437-.476 2.114 2.114 0 0 1 1.112.288l-.184 1.063c-.038.134-.121.2-.248.2-.075 0-.189-.025-.345-.076-.155-.05-.37-.075-.647-.075-.496 0-.911.144-1.244.432-.334.288-.612.707-.836 1.256v5.16h-1.423zM924.402 353.593c.484 0 .933.082 1.344.244.41.163.766.397 1.064.704.298.307.531.686.699 1.136.168.451.252.965.252 1.54 0 .225-.023.374-.072.448-.047.075-.139.112-.271.112h-5.393c.012.512.08.957.209 1.336.127.379.304.694.527.948.225.253.49.442.801.567.309.126.655.188 1.039.188.357 0 .666-.041.924-.124.26-.083.482-.172.668-.269.188-.096.344-.185.469-.268s.232-.124.324-.124c.117 0 .207.045.271.136l.4.521a2.72 2.72 0 0 1-.633.556 3.945 3.945 0 0 1-.787.388 5.273 5.273 0 0 1-1.756.305 4.132 4.132 0 0 1-1.549-.284 3.397 3.397 0 0 1-1.224-.832 3.796 3.796 0 0 1-.804-1.356c-.192-.538-.289-1.157-.289-1.855 0-.565.088-1.094.261-1.584a3.73 3.73 0 0 1 .748-1.276 3.452 3.452 0 0 1 1.192-.848 3.913 3.913 0 0 1 1.586-.309zm.032 1.049c-.688 0-1.229.198-1.623.596-.396.397-.641.948-.736 1.652h4.408c0-.331-.046-.634-.137-.908a2.01 2.01 0 0 0-.4-.712c-.176-.2-.391-.354-.644-.464s-.542-.164-.868-.164zM934.218 355.058a.316.316 0 0 1-.296.176.546.546 0 0 1-.271-.088c-.102-.059-.227-.124-.373-.196s-.321-.139-.523-.2a2.482 2.482 0 0 0-.721-.092c-.24 0-.455.03-.647.092s-.356.146-.492.252a1.133 1.133 0 0 0-.312.372 1.002 1.002 0 0 0-.108.46c0 .208.06.382.181.521.119.139.277.259.476.359.197.102.421.191.672.269s.508.16.772.248.521.186.771.292c.25.106.475.239.672.399s.355.356.477.588c.119.232.18.511.18.836 0 .374-.066.719-.2 1.036s-.331.593-.592.824a2.852 2.852 0 0 1-.96.548 3.93 3.93 0 0 1-1.313.2 4.09 4.09 0 0 1-1.535-.276 3.875 3.875 0 0 1-1.168-.708l.336-.544a.482.482 0 0 1 .151-.159.42.42 0 0 1 .231-.057c.097 0 .197.037.305.112.106.074.236.157.389.248.151.091.336.173.551.248.217.074.487.111.813.111.277 0 .52-.035.729-.107.207-.072.381-.169.52-.292s.241-.264.309-.424c.066-.16.1-.331.1-.513a.855.855 0 0 0-.18-.556 1.552 1.552 0 0 0-.477-.376 3.854 3.854 0 0 0-.676-.271 59.962 59.962 0 0 1-.776-.244 9.153 9.153 0 0 1-.776-.292c-.253-.109-.479-.247-.676-.412s-.355-.369-.476-.612c-.12-.242-.181-.537-.181-.884a2.164 2.164 0 0 1 .752-1.645c.246-.216.547-.388.904-.516s.766-.192 1.225-.192c.533 0 1.012.084 1.436.252.424.169.791.399 1.1.692l-.323.521zM941.162 355.058a.318.318 0 0 1-.297.176c-.08 0-.17-.029-.271-.088s-.226-.124-.372-.196c-.147-.072-.321-.139-.524-.2s-.442-.092-.72-.092c-.24 0-.456.03-.647.092a1.584 1.584 0 0 0-.492.252c-.137.107-.24.231-.313.372a1 1 0 0 0-.107.46c0 .208.06.382.18.521.119.139.278.259.477.359.197.102.42.191.672.269.25.077.508.16.771.248s.521.186.771.292c.251.106.475.239.672.399s.356.356.477.588c.12.232.18.511.18.836 0 .374-.066.719-.199 1.036a2.267 2.267 0 0 1-.592.824 2.857 2.857 0 0 1-.961.548c-.379.134-.816.2-1.312.2a4.095 4.095 0 0 1-1.536-.276 3.888 3.888 0 0 1-1.168-.708l.336-.544a.495.495 0 0 1 .152-.159.42.42 0 0 1 .231-.057c.097 0 .197.037.304.112.107.074.236.157.389.248s.336.173.552.248c.216.074.487.111.812.111.277 0 .521-.035.729-.107s.381-.169.52-.292.242-.264.309-.424.1-.331.1-.513c0-.224-.06-.409-.18-.556s-.279-.271-.477-.376a3.822 3.822 0 0 0-.676-.271 59.891 59.891 0 0 1-.775-.244c-.264-.086-.523-.183-.776-.292s-.479-.247-.676-.412a1.85 1.85 0 0 1-.476-.612c-.121-.242-.181-.537-.181-.884a2.192 2.192 0 0 1 .752-1.645c.245-.216.547-.388.904-.516a3.61 3.61 0 0 1 1.224-.192c.533 0 1.012.084 1.436.252.425.169.791.399 1.101.692l-.323.521zM945.922 361.953c-.641 0-1.133-.179-1.477-.536s-.516-.872-.516-1.544v-4.96h-.977c-.085 0-.157-.025-.216-.076s-.088-.129-.088-.235v-.568l1.328-.168.327-2.504c.012-.08.046-.146.104-.196s.134-.076.224-.076h.721v2.792h2.32v1.032h-2.32v4.864c0 .341.082.595.248.76a.867.867 0 0 0 .64.248c.149 0 .278-.02.388-.06s.205-.084.285-.133c.079-.048.147-.092.203-.132.057-.04.105-.06.148-.06.074 0 .141.045.199.136l.416.68c-.244.229-.541.41-.888.54a2.99 2.99 0 0 1-1.069.196zM951.337 351.177c0 .14-.028.269-.084.389a1.082 1.082 0 0 1-.548.54.983.983 0 0 1-.78 0 1.03 1.03 0 0 1-.32-.221 1.05 1.05 0 0 1-.221-.319 1.004 1.004 0 0 1 0-.785 1.042 1.042 0 0 1 .541-.548c.119-.054.248-.08.387-.08s.27.026.393.08a1.045 1.045 0 0 1 .548.548.958.958 0 0 1 .084.396zm-.319 2.545v8.104h-1.424v-8.104h1.424zM955.113 350.041v11.784h-1.424v-11.784h1.424zM962.265 355.058a.316.316 0 0 1-.296.176.546.546 0 0 1-.271-.088c-.102-.059-.227-.124-.373-.196s-.321-.139-.523-.2a2.482 2.482 0 0 0-.721-.092c-.24 0-.455.03-.647.092s-.356.146-.492.252a1.133 1.133 0 0 0-.312.372 1.002 1.002 0 0 0-.108.46c0 .208.06.382.181.521.119.139.277.259.476.359.197.102.421.191.672.269s.508.16.772.248.521.186.771.292c.25.106.475.239.672.399s.355.356.477.588c.119.232.18.511.18.836 0 .374-.066.719-.2 1.036s-.331.593-.592.824a2.852 2.852 0 0 1-.96.548 3.93 3.93 0 0 1-1.313.2 4.09 4.09 0 0 1-1.535-.276 3.875 3.875 0 0 1-1.168-.708l.336-.544a.482.482 0 0 1 .151-.159.42.42 0 0 1 .231-.057c.097 0 .197.037.305.112.106.074.236.157.389.248.151.091.336.173.551.248.217.074.487.111.813.111.277 0 .52-.035.729-.107.207-.072.381-.169.52-.292s.241-.264.309-.424c.066-.16.1-.331.1-.513a.855.855 0 0 0-.18-.556 1.552 1.552 0 0 0-.477-.376 3.854 3.854 0 0 0-.676-.271 59.962 59.962 0 0 1-.776-.244 9.153 9.153 0 0 1-.776-.292c-.253-.109-.479-.247-.676-.412s-.355-.369-.476-.612c-.12-.242-.181-.537-.181-.884a2.164 2.164 0 0 1 .752-1.645c.246-.216.547-.388.904-.516s.766-.192 1.225-.192c.533 0 1.012.084 1.436.252.424.169.791.399 1.1.692l-.323.521zM967.024 361.953c-.64 0-1.132-.179-1.476-.536s-.517-.872-.517-1.544v-4.96h-.976c-.086 0-.158-.025-.217-.076s-.088-.129-.088-.235v-.568l1.328-.168.328-2.504c.011-.08.045-.146.104-.196s.134-.076.225-.076h.721v2.792h2.319v1.032h-2.319v4.864c0 .341.082.595.248.76a.864.864 0 0 0 .639.248c.15 0 .279-.02.389-.06s.204-.084.284-.133c.079-.048.147-.092.204-.132a.266.266 0 0 1 .147-.06c.075 0 .142.045.2.136l.416.68c-.245.229-.541.41-.889.54a2.983 2.983 0 0 1-1.07.196zM976.488 361.825h-.633a.75.75 0 0 1-.336-.064c-.085-.042-.141-.133-.168-.271l-.159-.752a9.479 9.479 0 0 1-.624.516c-.203.152-.416.28-.641.384a3.26 3.26 0 0 1-.715.236 4.07 4.07 0 0 1-.845.08c-.315 0-.609-.044-.884-.132a2.02 2.02 0 0 1-.717-.396 1.885 1.885 0 0 1-.483-.668 2.333 2.333 0 0 1-.181-.956c0-.319.089-.628.265-.924s.46-.559.853-.788c.392-.229.904-.417 1.539-.563s1.411-.23 2.328-.252v-.632c0-.63-.135-1.105-.404-1.429-.27-.322-.668-.483-1.195-.483-.347 0-.639.044-.876.132s-.442.187-.616.296-.322.208-.447.296a.65.65 0 0 1-.373.132.424.424 0 0 1-.252-.076.573.573 0 0 1-.172-.188l-.256-.456a4.626 4.626 0 0 1 1.448-.968 4.458 4.458 0 0 1 1.72-.32c.453 0 .855.075 1.208.224.353.149.647.357.888.624.24.268.422.59.545.969.122.378.184.794.184 1.248v5.181zm-3.696-.872a2.717 2.717 0 0 0 1.276-.292c.184-.093.359-.207.527-.34.168-.134.332-.285.492-.456v-1.688c-.656.021-1.213.074-1.672.156-.459.083-.832.191-1.119.324-.289.134-.498.291-.629.472a1.016 1.016 0 0 0-.195.608c0 .213.034.397.104.552.069.155.162.281.279.38.118.099.257.171.416.216.161.046.334.068.521.068zM978.648 361.825v-8.104h.848c.203 0 .33.099.384.296l.112.88c.352-.39.745-.704 1.18-.944s.938-.36 1.508-.36c.443 0 .834.074 1.172.221.339.146.621.354.849.624.227.27.398.593.516.972s.177.798.177 1.256v5.16h-1.425v-5.16c0-.613-.14-1.089-.42-1.428s-.708-.508-1.284-.508c-.421 0-.814.102-1.18.304a3.906 3.906 0 0 0-1.012.824v5.968h-1.425zM993.248 361.825c-.203 0-.331-.099-.385-.296l-.127-.984a4.294 4.294 0 0 1-1.188 1.013c-.445.253-.956.38-1.532.38-.464 0-.885-.09-1.264-.269s-.701-.441-.968-.788-.472-.778-.616-1.296c-.145-.517-.216-1.111-.216-1.784 0-.597.079-1.153.239-1.668s.391-.961.692-1.34a3.252 3.252 0 0 1 1.101-.892 3.245 3.245 0 0 1 1.472-.324c.496 0 .92.084 1.272.252.352.168.666.404.943.708v-4.496h1.424v11.784h-.847zm-2.76-1.04c.464 0 .87-.106 1.22-.32.349-.213.671-.515.964-.903v-3.92c-.262-.353-.548-.599-.859-.74a2.478 2.478 0 0 0-1.037-.212c-.757 0-1.338.27-1.744.808-.404.539-.607 1.307-.607 2.304 0 .528.045.98.137 1.356.09.376.224.686.399.928.176.243.392.42.647.532s.549.167.88.167zM244.264 273.87c-.048.08-.099.14-.152.18s-.123.061-.208.061c-.09 0-.196-.046-.316-.137a5.34 5.34 0 0 0-.456-.3 3.737 3.737 0 0 0-.664-.3 2.846 2.846 0 0 0-.94-.136c-.347 0-.653.047-.92.14-.267.094-.489.22-.668.38s-.313.349-.404.564a1.783 1.783 0 0 0-.136.7c0 .319.079.585.236.796.157.21.365.391.624.54.259.149.552.278.88.388.328.109.664.223 1.008.34.344.117.68.249 1.008.396.328.146.622.332.88.556.258.224.466.499.624.824.157.325.236.725.236 1.199 0 .502-.085.973-.256 1.412-.171.44-.42.823-.748 1.148s-.731.581-1.208.768c-.478.187-1.02.28-1.628.28a4.976 4.976 0 0 1-2.028-.404 4.754 4.754 0 0 1-1.564-1.092l.448-.735a.564.564 0 0 1 .156-.148.366.366 0 0 1 .204-.06c.112 0 .24.06.384.18.144.12.324.252.54.396.216.145.478.276.784.396s.681.18 1.124.18c.368 0 .696-.051.984-.151.288-.102.532-.244.732-.429.2-.184.354-.403.46-.66.107-.256.16-.541.16-.855 0-.347-.079-.631-.236-.853-.158-.221-.364-.406-.62-.556s-.548-.276-.876-.38l-1.008-.32a9.843 9.843 0 0 1-1.008-.38c-.328-.144-.62-.33-.876-.56s-.463-.517-.62-.86-.236-.77-.236-1.276a3.045 3.045 0 0 1 .92-2.184 3.324 3.324 0 0 1 1.108-.704c.44-.176.945-.264 1.516-.264.64 0 1.224.102 1.752.304.528.203.989.496 1.384.88l-.376.736zM249.104 283.67c-.64 0-1.132-.179-1.476-.536-.344-.357-.516-.872-.516-1.544v-4.96h-.976c-.085 0-.157-.025-.216-.076s-.088-.129-.088-.235v-.568l1.328-.168.328-2.504c.011-.08.045-.146.104-.196s.133-.076.224-.076h.72v2.792h2.32v1.032h-2.32v4.864c0 .341.083.595.248.76a.866.866 0 0 0 .64.248c.149 0 .279-.02.388-.06s.204-.084.284-.133c.08-.048.148-.092.204-.132a.266.266 0 0 1 .148-.06c.075 0 .142.045.2.136l.416.68a2.65 2.65 0 0 1-.888.54c-.347.13-.704.196-1.072.196zM258.744 276.47c.325.363.576.799.752 1.309.176.509.264 1.078.264 1.708 0 .64-.089 1.216-.268 1.728s-.435.949-.768 1.313a3.352 3.352 0 0 1-1.216.836 4.228 4.228 0 0 1-1.604.292 4.48 4.48 0 0 1-1.132-.137 3.631 3.631 0 0 1-.956-.392l-.44.592a1.012 1.012 0 0 1-.412.332 1.207 1.207 0 0 1-.468.101h-.536l1.16-1.568a3.727 3.727 0 0 1-.808-1.328c-.187-.518-.28-1.106-.28-1.768 0-.635.091-1.21.272-1.725s.44-.953.776-1.315a3.415 3.415 0 0 1 1.22-.84 4.168 4.168 0 0 1 1.604-.297c.421 0 .812.051 1.172.152s.689.245.988.432l.544-.728c.106-.144.203-.247.288-.308.085-.062.213-.093.384-.093h.72l-1.256 1.704zm-5.328 3.021c0 .854.158 1.541.472 2.059l3.488-4.728c-.39-.299-.88-.448-1.472-.448a2.5 2.5 0 0 0-1.072.217c-.309.144-.569.35-.78.616a2.754 2.754 0 0 0-.476.981 4.9 4.9 0 0 0-.16 1.303zm2.488 3.099c.4 0 .753-.07 1.06-.212s.565-.346.776-.613c.21-.267.369-.592.476-.974a4.84 4.84 0 0 0 .16-1.294c0-.807-.139-1.466-.416-1.979l-3.464 4.688c.373.256.842.384 1.408.384zM261.512 283.542v-8.104h.816c.155 0 .261.029.32.088s.099.159.12.304l.096 1.264c.277-.565.62-1.007 1.028-1.324a2.28 2.28 0 0 1 1.436-.476 2.097 2.097 0 0 1 1.112.288l-.184 1.063c-.038.134-.12.2-.248.2-.075 0-.189-.025-.344-.076-.155-.05-.371-.075-.648-.075-.496 0-.911.144-1.244.432-.333.288-.612.707-.836 1.256v5.16h-1.424zM267.96 283.542v-8.104h.816c.155 0 .261.029.32.088s.099.159.12.304l.096 1.264c.277-.565.62-1.007 1.028-1.324a2.28 2.28 0 0 1 1.436-.476 2.097 2.097 0 0 1 1.112.288l-.184 1.063c-.038.134-.12.2-.248.2-.075 0-.189-.025-.344-.076-.155-.05-.371-.075-.648-.075-.496 0-.911.144-1.244.432-.333.288-.612.707-.836 1.256v5.16h-1.424zM277.616 275.31c.485 0 .933.082 1.344.244.411.163.765.397 1.064.704.298.307.532.686.7 1.136.168.451.252.965.252 1.54 0 .225-.024.374-.072.448-.048.075-.139.112-.272.112h-5.392c.011.512.08.957.208 1.336s.304.694.528.948c.224.253.491.442.8.567.309.126.656.188 1.04.188.357 0 .665-.041.924-.124s.481-.172.668-.269c.187-.096.343-.185.468-.268.125-.083.233-.124.324-.124.117 0 .208.045.272.136l.4.521a2.735 2.735 0 0 1-.632.556 3.953 3.953 0 0 1-.788.388 5.273 5.273 0 0 1-1.756.305c-.56 0-1.076-.095-1.548-.284a3.397 3.397 0 0 1-1.224-.832 3.811 3.811 0 0 1-.804-1.356c-.192-.538-.288-1.157-.288-1.855 0-.565.087-1.094.26-1.584.173-.491.422-.916.748-1.276.325-.359.723-.643 1.192-.848s.997-.309 1.584-.309zm.032 1.048c-.688 0-1.229.198-1.624.596-.395.397-.64.948-.736 1.652h4.408a2.87 2.87 0 0 0-.136-.908 2.01 2.01 0 0 0-.4-.712c-.176-.2-.391-.354-.644-.464s-.542-.164-.868-.164zM289.088 275.31c.485 0 .933.082 1.344.244.411.163.765.397 1.064.704.298.307.532.686.7 1.136.168.451.252.965.252 1.54 0 .225-.024.374-.072.448-.048.075-.139.112-.272.112h-5.392c.011.512.08.957.208 1.336s.304.694.528.948c.224.253.491.442.8.567.309.126.656.188 1.04.188.357 0 .665-.041.924-.124s.481-.172.668-.269c.187-.096.343-.185.468-.268.125-.083.233-.124.324-.124.117 0 .208.045.272.136l.4.521a2.735 2.735 0 0 1-.632.556 3.953 3.953 0 0 1-.788.388 5.273 5.273 0 0 1-1.756.305c-.56 0-1.076-.095-1.548-.284a3.397 3.397 0 0 1-1.224-.832 3.811 3.811 0 0 1-.804-1.356c-.192-.538-.288-1.157-.288-1.855 0-.565.087-1.094.26-1.584.173-.491.422-.916.748-1.276.325-.359.723-.643 1.192-.848s.997-.309 1.584-.309zm.032 1.048c-.688 0-1.229.198-1.624.596-.395.397-.64.948-.736 1.652h4.408a2.87 2.87 0 0 0-.136-.908 2.01 2.01 0 0 0-.4-.712c-.176-.2-.391-.354-.644-.464s-.543-.164-.868-.164zM295.848 271.758v11.784h-1.424v-11.784h1.424zM299.943 271.758v11.784h-1.424v-11.784h1.424zM305.663 275.31c.485 0 .933.082 1.344.244.411.163.765.397 1.064.704.298.307.532.686.7 1.136.168.451.252.965.252 1.54 0 .225-.024.374-.072.448-.048.075-.139.112-.272.112h-5.392c.011.512.08.957.208 1.336s.304.694.528.948c.224.253.491.442.8.567.309.126.656.188 1.04.188.357 0 .665-.041.924-.124s.481-.172.668-.269c.187-.096.343-.185.468-.268.125-.083.233-.124.324-.124.117 0 .208.045.272.136l.4.521a2.735 2.735 0 0 1-.632.556 3.953 3.953 0 0 1-.788.388 5.273 5.273 0 0 1-1.756.305c-.56 0-1.076-.095-1.548-.284a3.397 3.397 0 0 1-1.224-.832 3.811 3.811 0 0 1-.804-1.356c-.192-.538-.288-1.157-.288-1.855 0-.565.087-1.094.26-1.584.173-.491.422-.916.748-1.276.325-.359.723-.643 1.192-.848s.997-.309 1.584-.309zm.032 1.048c-.688 0-1.229.198-1.624.596-.395.397-.64.948-.736 1.652h4.408a2.87 2.87 0 0 0-.136-.908 2.01 2.01 0 0 0-.4-.712c-.176-.2-.391-.354-.644-.464s-.542-.164-.868-.164zM310.839 283.542v-8.104h.816c.155 0 .261.029.32.088s.099.159.12.304l.096 1.264c.277-.565.62-1.007 1.028-1.324a2.28 2.28 0 0 1 1.436-.476 2.097 2.097 0 0 1 1.112.288l-.184 1.063c-.038.134-.12.2-.248.2-.075 0-.189-.025-.344-.076-.155-.05-.371-.075-.648-.075-.496 0-.911.144-1.244.432-.333.288-.612.707-.836 1.256v5.16h-1.424zM320.695 283.542v-6.888l-.896-.104a.69.69 0 0 1-.276-.124c-.072-.056-.108-.137-.108-.244v-.584h1.28v-.783c0-.465.065-.876.196-1.236.13-.36.317-.664.56-.912s.535-.436.876-.564a3.26 3.26 0 0 1 1.152-.191c.363 0 .699.053 1.008.16l-.032.712c-.005.106-.051.171-.136.191a1.58 1.58 0 0 1-.36.032h-.248c-.245 0-.468.032-.668.096s-.372.168-.516.313a1.418 1.418 0 0 0-.332.568 2.821 2.821 0 0 0-.116.871v.744h2.344v1.032h-2.296v6.912h-1.432zM327.351 271.758v11.784h-1.424v-11.784h1.424zM333.07 275.31c.485 0 .933.082 1.344.244.411.163.765.397 1.064.704.298.307.532.686.7 1.136.168.451.252.965.252 1.54 0 .225-.024.374-.072.448-.048.075-.139.112-.272.112h-5.392c.011.512.08.957.208 1.336s.304.694.528.948c.224.253.491.442.8.567.309.126.656.188 1.04.188.357 0 .665-.041.924-.124s.481-.172.668-.269c.187-.096.343-.185.468-.268.125-.083.233-.124.324-.124.117 0 .208.045.272.136l.4.521a2.735 2.735 0 0 1-.632.556 3.953 3.953 0 0 1-.788.388 5.273 5.273 0 0 1-1.756.305c-.56 0-1.076-.095-1.548-.284a3.397 3.397 0 0 1-1.224-.832 3.811 3.811 0 0 1-.804-1.356c-.192-.538-.288-1.157-.288-1.855 0-.565.087-1.094.26-1.584.173-.491.422-.916.748-1.276.325-.359.723-.643 1.192-.848s.997-.309 1.584-.309zm.033 1.048c-.688 0-1.229.198-1.624.596-.395.397-.64.948-.736 1.652h4.408a2.87 2.87 0 0 0-.136-.908 2.01 2.01 0 0 0-.4-.712c-.176-.2-.391-.354-.644-.464s-.543-.164-.868-.164zM338.246 283.542v-8.104h.816c.155 0 .261.029.32.088s.099.159.12.304l.096 1.264c.277-.565.62-1.007 1.028-1.324a2.28 2.28 0 0 1 1.436-.476 2.097 2.097 0 0 1 1.112.288l-.184 1.063c-.038.134-.12.2-.248.2-.075 0-.189-.025-.344-.076-.155-.05-.371-.075-.648-.075-.496 0-.911.144-1.244.432-.333.288-.612.707-.836 1.256v5.16h-1.424zM347.902 275.31c.485 0 .933.082 1.344.244.411.163.765.397 1.064.704.298.307.532.686.7 1.136.168.451.252.965.252 1.54 0 .225-.024.374-.072.448-.048.075-.139.112-.272.112h-5.392c.011.512.08.957.208 1.336s.304.694.528.948c.224.253.491.442.8.567.309.126.656.188 1.04.188.357 0 .665-.041.924-.124s.481-.172.668-.269c.187-.096.343-.185.468-.268.125-.083.233-.124.324-.124.117 0 .208.045.272.136l.4.521a2.735 2.735 0 0 1-.632.556 3.953 3.953 0 0 1-.788.388 5.273 5.273 0 0 1-1.756.305c-.56 0-1.076-.095-1.548-.284a3.397 3.397 0 0 1-1.224-.832 3.811 3.811 0 0 1-.804-1.356c-.192-.538-.288-1.157-.288-1.855 0-.565.087-1.094.26-1.584.173-.491.422-.916.748-1.276.325-.359.723-.643 1.192-.848s.997-.309 1.584-.309zm.033 1.048c-.688 0-1.229.198-1.624.596-.395.397-.64.948-.736 1.652h4.408a2.87 2.87 0 0 0-.136-.908 2.01 2.01 0 0 0-.4-.712c-.176-.2-.391-.354-.644-.464s-.543-.164-.868-.164zM238.216 302.742v-11.784h1.432v4.849c.336-.39.721-.703 1.156-.94.435-.237.932-.356 1.492-.356.469 0 .894.089 1.272.265.379.176.701.438.968.788.267.349.472.781.616 1.296s.216 1.107.216 1.78c0 .597-.08 1.153-.24 1.668s-.391.96-.692 1.336-.669.672-1.104.888-.924.324-1.468.324c-.522 0-.966-.102-1.332-.305a3.01 3.01 0 0 1-.956-.848l-.072.736c-.042.202-.165.304-.368.304h-.92zm3.616-7.096c-.464 0-.871.106-1.22.319-.349.214-.67.515-.964.904v3.92c.256.353.54.601.852.744s.66.216 1.044.216c.757 0 1.339-.27 1.744-.808.405-.539.608-1.307.608-2.304 0-.528-.047-.981-.14-1.36s-.228-.689-.404-.933a1.567 1.567 0 0 0-.648-.531 2.173 2.173 0 0 0-.872-.167zM250.32 294.51c.485 0 .933.082 1.344.244.411.163.765.397 1.064.704.298.307.532.686.7 1.136.168.451.252.965.252 1.54 0 .225-.024.374-.072.448-.048.075-.139.112-.272.112h-5.392c.011.512.08.957.208 1.336s.304.694.528.948c.224.253.491.442.8.567.309.126.656.188 1.04.188.357 0 .665-.041.924-.124s.481-.172.668-.269c.187-.096.343-.185.468-.268.125-.083.233-.124.324-.124.117 0 .208.045.272.136l.4.521a2.735 2.735 0 0 1-.632.556 3.953 3.953 0 0 1-.788.388 5.273 5.273 0 0 1-1.756.305c-.56 0-1.076-.095-1.548-.284a3.397 3.397 0 0 1-1.224-.832 3.811 3.811 0 0 1-.804-1.356c-.192-.538-.288-1.157-.288-1.855 0-.565.087-1.094.26-1.584.173-.491.422-.916.748-1.276.325-.359.723-.643 1.192-.848s.997-.309 1.584-.309zm.032 1.049c-.688 0-1.229.198-1.624.596-.395.397-.64.948-.736 1.652h4.408a2.87 2.87 0 0 0-.136-.908 2.01 2.01 0 0 0-.4-.712c-.176-.2-.391-.354-.644-.464s-.543-.164-.868-.164zM257.08 290.958v11.784h-1.424v-11.784h1.424zM265.544 302.742h-.632a.75.75 0 0 1-.336-.064c-.085-.042-.141-.133-.168-.271l-.16-.752a9.224 9.224 0 0 1-.624.516c-.203.152-.416.28-.64.384a3.251 3.251 0 0 1-.716.236 4.06 4.06 0 0 1-.844.08c-.315 0-.609-.044-.884-.132a1.876 1.876 0 0 1-1.2-1.064 2.333 2.333 0 0 1-.18-.956c0-.319.088-.628.264-.924s.46-.559.852-.788c.392-.229.905-.417 1.54-.563s1.411-.23 2.328-.252v-.632c0-.63-.135-1.105-.404-1.429-.27-.322-.668-.483-1.196-.483-.347 0-.639.044-.876.132s-.443.187-.616.296-.323.208-.448.296a.647.647 0 0 1-.372.132.424.424 0 0 1-.252-.076.573.573 0 0 1-.172-.188l-.256-.456a4.626 4.626 0 0 1 1.448-.968 4.455 4.455 0 0 1 1.72-.32c.453 0 .856.075 1.208.224.352.149.648.357.888.624.24.268.421.59.544.969.123.378.184.794.184 1.248v5.181zm-3.696-.872a2.698 2.698 0 0 0 1.276-.292c.184-.093.36-.207.528-.34.168-.134.332-.285.492-.456v-1.688c-.656.021-1.213.074-1.672.156-.458.083-.832.191-1.12.324-.288.134-.498.291-.628.472-.13.182-.196.385-.196.608 0 .213.035.397.104.552.069.155.163.281.28.38a1.1 1.1 0 0 0 .416.216c.16.046.333.068.52.068zM272.344 295.975a.316.316 0 0 1-.296.176.552.552 0 0 1-.272-.088 6.501 6.501 0 0 0-.372-.196 3.5 3.5 0 0 0-.524-.2 2.48 2.48 0 0 0-.72-.092c-.24 0-.456.03-.648.092s-.356.146-.492.252c-.136.107-.24.231-.312.372a1.002 1.002 0 0 0-.108.46c0 .208.06.382.18.521s.278.259.476.359c.197.102.421.191.672.269.25.077.508.16.772.248s.521.186.772.292c.25.106.475.239.672.399s.356.356.476.588c.12.232.18.511.18.836 0 .374-.067.719-.2 1.036s-.331.593-.592.824a2.862 2.862 0 0 1-.96.548c-.379.134-.816.2-1.312.2a4.091 4.091 0 0 1-1.536-.276 3.888 3.888 0 0 1-1.168-.708l.336-.544a.475.475 0 0 1 .152-.159.422.422 0 0 1 .232-.057c.096 0 .197.037.304.112.106.074.236.157.388.248.152.091.336.173.552.248.216.074.487.111.812.111.277 0 .52-.035.728-.107s.381-.169.52-.292.241-.264.308-.424c.066-.16.1-.331.1-.513 0-.224-.06-.409-.18-.556s-.279-.271-.476-.376a3.854 3.854 0 0 0-.676-.271 65.285 65.285 0 0 1-.776-.244c-.264-.086-.522-.183-.776-.292s-.479-.247-.676-.412a1.85 1.85 0 0 1-.476-.612c-.12-.242-.18-.537-.18-.884a2.164 2.164 0 0 1 .752-1.645c.246-.216.547-.388.904-.516a3.615 3.615 0 0 1 1.224-.192c.534 0 1.012.084 1.436.252.424.169.791.399 1.1.692l-.32.521zM277.104 302.87c-.64 0-1.132-.179-1.476-.536-.344-.357-.516-.872-.516-1.544v-4.96h-.976c-.085 0-.157-.025-.216-.076s-.088-.129-.088-.235v-.568l1.328-.168.328-2.504c.011-.08.045-.146.104-.196s.133-.076.224-.076h.72v2.792h2.32v1.032h-2.32v4.864c0 .341.083.595.248.76a.866.866 0 0 0 .64.248c.149 0 .279-.02.388-.06s.204-.084.284-.133c.08-.048.148-.092.204-.132a.266.266 0 0 1 .148-.06c.075 0 .142.045.2.136l.416.68a2.65 2.65 0 0 1-.888.54 3.01 3.01 0 0 1-1.072.196zM280.615 302.742v-8.104h.848c.203 0 .331.099.384.296l.112.88c.352-.39.745-.704 1.18-.944s.938-.36 1.508-.36c.442 0 .833.074 1.172.221.338.146.621.354.848.624.227.27.398.593.516.972s.176.798.176 1.256v5.16h-1.424v-5.16c0-.613-.14-1.089-.42-1.428-.28-.339-.708-.508-1.284-.508a2.4 2.4 0 0 0-1.18.304 3.906 3.906 0 0 0-1.012.824v5.968h-1.424zM291.415 292.094c0 .14-.028.269-.084.389a1.082 1.082 0 0 1-.548.54.978.978 0 0 1-.78 0 1.054 1.054 0 0 1-.32-.221 1.046 1.046 0 0 1-.22-.319.934.934 0 0 1-.08-.389 1.023 1.023 0 0 1 .3-.724c.093-.093.2-.167.32-.22.12-.054.249-.08.388-.08s.27.026.392.08a1.045 1.045 0 0 1 .548.548.958.958 0 0 1 .084.396zm-.32 2.545v8.104h-1.424v-8.104h1.424zM293.607 302.742v-8.104h.848c.203 0 .331.099.384.296l.112.88c.352-.39.745-.704 1.18-.944s.938-.36 1.508-.36c.442 0 .833.074 1.172.221.338.146.621.354.848.624.227.27.398.593.516.972s.176.798.176 1.256v5.16h-1.424v-5.16c0-.613-.14-1.089-.42-1.428-.28-.339-.708-.508-1.284-.508a2.4 2.4 0 0 0-1.18.304 3.906 3.906 0 0 0-1.012.824v5.968h-1.424zM305.231 294.502c.352 0 .681.039.988.116s.585.19.836.34h2.2v.528c0 .176-.112.288-.336.336l-.919.128c.181.347.272.733.272 1.16 0 .395-.076.753-.228 1.076a2.448 2.448 0 0 1-.632.828c-.27.229-.589.405-.96.527a3.854 3.854 0 0 1-1.22.185c-.379 0-.736-.046-1.072-.137-.171.107-.3.222-.388.345a.616.616 0 0 0-.132.359c0 .192.077.338.232.437.154.099.36.169.616.212.256.043.547.069.872.08s.657.027.996.052c.338.024.67.065.996.124.325.059.616.154.872.288.256.133.461.317.616.552s.232.539.232.912c0 .347-.086.683-.26 1.008s-.423.615-.748.868-.723.456-1.192.608c-.47.151-1 .228-1.592.228a6.156 6.156 0 0 1-1.556-.176c-.446-.117-.815-.274-1.108-.472a2.069 2.069 0 0 1-.66-.685 1.62 1.62 0 0 1-.22-.812c0-.4.127-.74.38-1.021.253-.28.602-.503 1.044-.668a1.424 1.424 0 0 1-.548-.428c-.136-.179-.204-.417-.204-.716 0-.117.021-.239.064-.364.042-.125.108-.249.196-.372a2.074 2.074 0 0 1 .772-.649 2.522 2.522 0 0 1-.94-.892c-.227-.37-.34-.804-.34-1.3 0-.395.076-.753.228-1.076.152-.322.364-.598.636-.824s.596-.401.972-.523a4.014 4.014 0 0 1 1.235-.182zm2.528 8.681a.694.694 0 0 0-.168-.488 1.075 1.075 0 0 0-.456-.284 3.35 3.35 0 0 0-.664-.148 10.46 10.46 0 0 0-.792-.067c-.278-.014-.56-.028-.848-.044a8.257 8.257 0 0 1-.824-.088 2.332 2.332 0 0 0-.74.527 1.07 1.07 0 0 0-.144 1.252c.093.157.236.294.428.408.192.115.434.205.724.272.291.066.633.1 1.028.1.384 0 .728-.034 1.032-.104s.561-.168.772-.296c.21-.129.372-.28.484-.456a1.06 1.06 0 0 0 .168-.584zm-2.528-4.401c.288 0 .542-.04.764-.12.221-.08.406-.192.556-.336s.261-.316.336-.516c.075-.2.112-.42.112-.66 0-.496-.151-.891-.452-1.185-.301-.293-.74-.439-1.316-.439-.571 0-1.007.146-1.308.439-.301.294-.452.688-.452 1.185 0 .24.039.46.116.66.077.199.19.372.34.516s.333.256.552.336.47.12.752.12zM313.887 294.51c.485 0 .933.082 1.344.244.411.163.765.397 1.064.704.298.307.532.686.7 1.136.168.451.252.965.252 1.54 0 .225-.024.374-.072.448-.048.075-.139.112-.272.112h-5.392c.011.512.08.957.208 1.336s.304.694.528.948c.224.253.491.442.8.567.309.126.656.188 1.04.188.357 0 .665-.041.924-.124s.481-.172.668-.269c.187-.096.343-.185.468-.268.125-.083.233-.124.324-.124.117 0 .208.045.272.136l.4.521a2.735 2.735 0 0 1-.632.556 3.953 3.953 0 0 1-.788.388 5.273 5.273 0 0 1-1.756.305c-.56 0-1.076-.095-1.548-.284a3.397 3.397 0 0 1-1.224-.832 3.811 3.811 0 0 1-.804-1.356c-.192-.538-.288-1.157-.288-1.855 0-.565.087-1.094.26-1.584.173-.491.422-.916.748-1.276.325-.359.723-.643 1.192-.848s.997-.309 1.584-.309zm.032 1.049c-.688 0-1.229.198-1.624.596-.395.397-.64.948-.736 1.652h4.408a2.87 2.87 0 0 0-.136-.908 2.01 2.01 0 0 0-.4-.712c-.176-.2-.391-.354-.644-.464s-.542-.164-.868-.164zM319.063 302.742v-8.104h.816c.155 0 .261.029.32.088s.099.159.12.304l.096 1.264c.277-.565.62-1.007 1.028-1.324a2.28 2.28 0 0 1 1.436-.476 2.097 2.097 0 0 1 1.112.288l-.184 1.063c-.038.134-.12.2-.248.2-.075 0-.189-.025-.344-.076-.155-.05-.371-.075-.648-.075-.496 0-.911.144-1.244.432-.333.288-.612.707-.836 1.256v5.16h-1.424zM355.766 266.249l10.224-17.188-1.72-1.024 5.135-2.764.022 5.831-1.719-1.022-10.224 17.189z"/><ellipse cx="130" cy="528.594" fill="none" stroke="#000" stroke-miterlimit="10" stroke-width="2" rx=".563" ry=".656"/><ellipse cx="129.969" cy="31.156" fill="none" stroke="#000" stroke-miterlimit="10" stroke-width="2" rx=".344" ry=".469"/><path d="M117.504 17.664c.31 0 .593-.015.852-.044s.502-.073.732-.132a5.02 5.02 0 0 0 .648-.212c.203-.083.405-.177.608-.284v-2.528h-1.776a.337.337 0 0 1-.244-.088.284.284 0 0 1-.092-.216v-.88h3.52v4.4a6.123 6.123 0 0 1-1.9.932 7.181 7.181 0 0 1-1.14.232c-.405.051-.845.076-1.32.076a5.961 5.961 0 0 1-2.288-.428c-.693-.286-1.291-.686-1.792-1.2s-.892-1.132-1.172-1.852c-.28-.72-.42-1.512-.42-2.376 0-.875.137-1.672.412-2.392a5.275 5.275 0 0 1 1.176-1.852c.509-.515 1.125-.913 1.848-1.196s1.532-.424 2.428-.424c.453 0 .875.033 1.264.1s.75.163 1.084.288c.333.125.641.277.924.456s.547.38.792.604l-.44.704c-.091.144-.208.216-.352.216a.564.564 0 0 1-.28-.088 8.1 8.1 0 0 1-.448-.272c-.166-.106-.367-.209-.604-.308s-.517-.183-.84-.252-.706-.104-1.148-.104c-.646 0-1.229.105-1.752.316a3.707 3.707 0 0 0-1.336.904 3.999 3.999 0 0 0-.848 1.424c-.197.558-.296 1.183-.296 1.876 0 .726.103 1.372.308 1.94.206.568.495 1.049.868 1.444s.816.696 1.328.904a4.465 4.465 0 0 0 1.696.312zM127.192 10.56c.592 0 1.126.099 1.604.296.478.197.883.478 1.216.84.333.363.589.802.768 1.316s.268 1.089.268 1.724c0 .64-.089 1.216-.268 1.728-.179.512-.435.95-.768 1.312a3.328 3.328 0 0 1-1.216.836 4.205 4.205 0 0 1-1.604.292 4.205 4.205 0 0 1-1.604-.292 3.36 3.36 0 0 1-1.22-.836 3.73 3.73 0 0 1-.776-1.312c-.182-.512-.272-1.088-.272-1.728 0-.634.09-1.209.272-1.724a3.72 3.72 0 0 1 .776-1.316 3.428 3.428 0 0 1 1.22-.84 4.168 4.168 0 0 1 1.604-.296zm0 7.232c.8 0 1.397-.268 1.792-.804s.592-1.284.592-2.244c0-.965-.197-1.717-.592-2.256-.395-.539-.992-.808-1.792-.808-.406 0-.758.069-1.056.208a1.97 1.97 0 0 0-.748.6c-.2.262-.35.583-.448.964s-.148.812-.148 1.292.049.909.148 1.288c.099.378.248.697.448.956s.449.458.748.596c.299.139.651.208 1.056.208zM138.512 18.792c-.203 0-.331-.099-.384-.296l-.128-.984c-.347.421-.743.758-1.188 1.012s-.956.38-1.532.38c-.464 0-.886-.089-1.264-.268a2.621 2.621 0 0 1-.968-.788c-.267-.347-.472-.779-.616-1.296-.144-.517-.216-1.112-.216-1.784 0-.597.08-1.153.24-1.668s.391-.961.692-1.34a3.248 3.248 0 0 1 1.1-.892 3.248 3.248 0 0 1 1.472-.324c.496 0 .92.084 1.272.252s.667.404.944.708V7.008h1.424v11.784h-.848zm-2.76-1.04c.464 0 .871-.106 1.22-.32a3.53 3.53 0 0 0 .964-.904v-3.92c-.261-.352-.548-.599-.86-.74a2.47 2.47 0 0 0-1.036-.212c-.757 0-1.339.27-1.744.808-.405.539-.608 1.307-.608 2.304 0 .528.045.98.136 1.356.09.376.224.686.4.928.176.243.392.42.648.532s.549.168.88.168zM144.208 18.92c-.64 0-1.132-.179-1.476-.536-.344-.357-.516-.872-.516-1.544v-4.96h-.976c-.085 0-.157-.025-.216-.076s-.088-.129-.088-.236V11l1.328-.168.328-2.504a.301.301 0 0 1 .104-.196.334.334 0 0 1 .224-.076h.72v2.792h2.32v1.032h-2.32v4.864c0 .341.083.595.248.76a.862.862 0 0 0 .64.248c.149 0 .279-.02.388-.06s.204-.084.284-.132c.08-.048.148-.092.204-.132a.266.266 0 0 1 .148-.06c.075 0 .142.045.2.136l.416.68a2.667 2.667 0 0 1-.888.54c-.347.13-.704.196-1.072.196zM116.662 546.064c0 .858-.136 1.64-.408 2.344s-.656 1.307-1.152 1.808c-.496.502-1.091.89-1.784 1.164s-1.461.412-2.304.412h-4.288v-11.464h4.288c.842 0 1.61.138 2.304.412s1.288.664 1.784 1.168.88 1.107 1.152 1.812.408 1.485.408 2.344zm-1.593 0c0-.704-.096-1.334-.288-1.889a3.985 3.985 0 0 0-.816-1.408 3.487 3.487 0 0 0-1.28-.88 4.437 4.437 0 0 0-1.672-.304h-2.728v8.952h2.728a4.44 4.44 0 0 0 1.672-.304 3.514 3.514 0 0 0 1.28-.876 3.95 3.95 0 0 0 .816-1.404c.193-.554.288-1.183.288-1.887zM124.501 551.792h-.632a.75.75 0 0 1-.336-.064c-.085-.042-.141-.133-.168-.271l-.16-.752a9.224 9.224 0 0 1-.624.516c-.203.152-.416.28-.64.384a3.251 3.251 0 0 1-.716.236 4.06 4.06 0 0 1-.844.08c-.315 0-.609-.044-.884-.132a1.876 1.876 0 0 1-1.2-1.064 2.333 2.333 0 0 1-.18-.956c0-.319.088-.628.264-.924s.46-.559.852-.788c.392-.229.905-.417 1.54-.563s1.411-.23 2.328-.252v-.632c0-.63-.135-1.105-.404-1.429-.27-.322-.668-.483-1.196-.483-.347 0-.639.044-.876.132s-.443.187-.616.296-.323.208-.448.296a.647.647 0 0 1-.372.132.424.424 0 0 1-.252-.076.573.573 0 0 1-.172-.188l-.256-.456a4.626 4.626 0 0 1 1.448-.968 4.455 4.455 0 0 1 1.72-.32c.453 0 .856.075 1.208.224.352.149.648.357.888.624.24.268.421.59.544.969.123.378.184.794.184 1.248v5.181zm-3.696-.872a2.698 2.698 0 0 0 1.276-.292c.184-.093.36-.207.528-.34.168-.134.332-.285.492-.456v-1.688c-.656.021-1.213.074-1.672.156-.458.083-.832.191-1.12.324-.288.134-.498.291-.628.472-.13.182-.196.385-.196.608 0 .213.035.397.104.552.069.155.163.281.28.38a1.1 1.1 0 0 0 .416.216c.16.045.334.068.52.068zm-.8-9.648c0-.225.042-.427.128-.608s.201-.339.348-.472c.146-.134.316-.236.508-.309s.395-.107.608-.107c.219 0 .425.035.62.107s.367.175.516.309a1.417 1.417 0 0 1 .48 1.08 1.368 1.368 0 0 1-.48 1.064 1.654 1.654 0 0 1-.516.3 1.773 1.773 0 0 1-.62.108c-.213 0-.416-.036-.608-.108a1.625 1.625 0 0 1-.508-.3 1.383 1.383 0 0 1-.476-1.064zm.8 0c0 .234.072.427.216.575.144.149.341.225.592.225.24 0 .433-.075.58-.225a.787.787 0 0 0 .22-.575.798.798 0 0 0-.22-.584.779.779 0 0 0-.58-.225c-.25 0-.448.075-.592.225a.806.806 0 0 0-.216.584zM126.661 551.792v-8.104h.816c.155 0 .261.029.32.088s.099.159.12.304l.096 1.264c.277-.565.62-1.007 1.028-1.324a2.28 2.28 0 0 1 1.436-.476 2.097 2.097 0 0 1 1.112.288l-.184 1.063c-.038.134-.12.2-.248.2-.075 0-.189-.025-.344-.076-.155-.05-.371-.075-.648-.075-.496 0-.911.144-1.244.432-.333.288-.612.707-.836 1.256v5.16h-1.424zM134.693 540.008v11.784h-1.424v-11.784h1.424zM139.108 541.144c0 .14-.028.269-.084.389a1.082 1.082 0 0 1-.548.54.978.978 0 0 1-.78 0 1.054 1.054 0 0 1-.32-.221 1.046 1.046 0 0 1-.22-.319.934.934 0 0 1-.08-.389 1.023 1.023 0 0 1 .3-.724c.093-.093.2-.167.32-.22.12-.054.249-.08.388-.08s.27.026.392.08a1.045 1.045 0 0 1 .548.548.942.942 0 0 1 .084.396zm-.319 2.544v8.104h-1.424v-8.104h1.424zM144.028 543.552c.352 0 .681.039.988.116s.585.19.836.34h2.2v.528c0 .176-.112.288-.336.336l-.92.128c.181.347.272.733.272 1.16 0 .395-.076.753-.228 1.076a2.448 2.448 0 0 1-.632.828c-.27.229-.589.405-.96.527a3.854 3.854 0 0 1-1.22.185c-.379 0-.736-.046-1.072-.137-.171.107-.3.222-.388.345a.616.616 0 0 0-.132.359c0 .192.077.338.232.437.154.099.36.169.616.212.256.043.547.069.872.08s.657.027.996.052c.338.024.67.065.996.124.325.059.616.154.872.288.256.133.461.317.616.552s.232.539.232.912c0 .347-.086.683-.26 1.008s-.423.615-.748.868-.723.456-1.192.608c-.47.151-1 .228-1.592.228a6.156 6.156 0 0 1-1.556-.176c-.446-.117-.815-.274-1.108-.472a2.069 2.069 0 0 1-.66-.685 1.62 1.62 0 0 1-.22-.812c0-.4.127-.74.38-1.021.253-.28.602-.503 1.044-.668a1.424 1.424 0 0 1-.548-.428c-.136-.179-.204-.417-.204-.716 0-.117.021-.239.064-.364.042-.125.108-.249.196-.372a2.074 2.074 0 0 1 .772-.649 2.522 2.522 0 0 1-.94-.892c-.227-.37-.34-.804-.34-1.3 0-.395.076-.753.228-1.076.152-.322.364-.598.636-.824s.596-.401.972-.523a4.02 4.02 0 0 1 1.236-.182zm2.528 8.68a.694.694 0 0 0-.168-.488 1.075 1.075 0 0 0-.456-.284 3.35 3.35 0 0 0-.664-.148 10.46 10.46 0 0 0-.792-.067c-.278-.014-.56-.028-.848-.044a8.257 8.257 0 0 1-.824-.088 2.332 2.332 0 0 0-.74.527 1.07 1.07 0 0 0-.144 1.252c.093.157.236.294.428.408.192.115.434.205.724.272.291.066.633.1 1.028.1.384 0 .728-.034 1.032-.104s.561-.168.772-.296c.21-.129.372-.28.484-.456.112-.176.168-.371.168-.584zm-2.528-4.4c.288 0 .542-.04.764-.12.221-.08.406-.192.556-.336s.261-.316.336-.516c.075-.2.112-.42.112-.66 0-.496-.151-.891-.452-1.185-.301-.293-.74-.439-1.316-.439-.571 0-1.007.146-1.308.439-.301.294-.452.688-.452 1.185 0 .24.039.46.116.66.077.199.19.372.34.516s.333.256.552.336.47.12.752.12zM151.932 551.92c-.64 0-1.132-.179-1.476-.536-.344-.357-.516-.872-.516-1.544v-4.96h-.976c-.085 0-.157-.025-.216-.076s-.088-.129-.088-.235V544l1.328-.168.328-2.504c.011-.08.045-.146.104-.196s.133-.076.224-.076h.72v2.792h2.32v1.032h-2.32v4.864c0 .341.083.595.248.76a.866.866 0 0 0 .64.248c.149 0 .279-.02.388-.06s.204-.084.284-.133c.08-.048.148-.092.204-.132a.266.266 0 0 1 .148-.06c.075 0 .142.045.2.136l.416.68a2.65 2.65 0 0 1-.888.54 3.01 3.01 0 0 1-1.072.197z"/><ellipse cx="891.313" cy="212.606" fill="none" stroke="#000" stroke-miterlimit="10" stroke-width="2" rx=".438" ry="1.019"/><ellipse cx="891.15" cy="347.425" fill="none" stroke="#000" stroke-miterlimit="10" stroke-width="2" rx="1.15" ry=".925"/><path fill="none" d="M0 2.5h1000v555H0z"/><path fill="none" stroke="#000" stroke-miterlimit="10" stroke-width="2" d="M125.333 212.504s-6.417-.722-9 6.137 0 50.453-1 55.225c-1 4.772-5 6.137-5 6.137s3.208 1.004 5 6.136c1.792 5.132-1.333 49.914 1 55.225 2.333 5.312 9 6.137 9 6.137"/><path d="M13.096 242.624v4.288h-1.544v-11.464h3.384c.725 0 1.356.084 1.892.252.536.168.98.407 1.332.716a2.9 2.9 0 0 1 .788 1.12c.173.438.26.925.26 1.464 0 .534-.093 1.021-.28 1.464a3.15 3.15 0 0 1-.82 1.144c-.36.32-.807.569-1.34.748s-1.144.268-1.832.268h-1.84zm0-1.232h1.84c.442 0 .833-.059 1.172-.176.339-.118.623-.281.852-.492.229-.21.403-.462.52-.756s.176-.616.176-.968c0-.73-.225-1.301-.676-1.712s-1.132-.616-2.044-.616h-1.84v4.72zM20.944 246.912v-8.104h.816c.155 0 .261.029.32.088s.099.16.12.304l.096 1.264c.277-.565.62-1.006 1.028-1.324a2.274 2.274 0 0 1 1.436-.476 2.097 2.097 0 0 1 1.112.288l-.184 1.064c-.038.133-.12.2-.248.2-.075 0-.189-.025-.344-.076s-.371-.076-.648-.076c-.496 0-.911.144-1.244.432-.333.288-.612.707-.836 1.256v5.16h-1.424zM30.672 238.68c.592 0 1.126.099 1.604.296.478.197.883.478 1.216.84.333.363.589.802.768 1.316s.268 1.089.268 1.724c0 .64-.089 1.216-.268 1.728-.179.512-.435.95-.768 1.312a3.328 3.328 0 0 1-1.216.836 4.205 4.205 0 0 1-1.604.292 4.205 4.205 0 0 1-1.604-.292 3.36 3.36 0 0 1-1.22-.836 3.73 3.73 0 0 1-.776-1.312c-.182-.512-.272-1.088-.272-1.728 0-.634.09-1.209.272-1.724a3.72 3.72 0 0 1 .776-1.316 3.428 3.428 0 0 1 1.22-.84 4.149 4.149 0 0 1 1.604-.296zm0 7.232c.8 0 1.397-.268 1.792-.804s.592-1.284.592-2.244c0-.965-.197-1.717-.592-2.256-.395-.539-.992-.808-1.792-.808-.406 0-.758.069-1.056.208a1.97 1.97 0 0 0-.748.6c-.2.262-.35.583-.448.964s-.148.812-.148 1.292.049.909.148 1.288c.099.378.248.697.448.956s.449.458.748.596c.298.138.65.208 1.056.208zM41.815 240.248a.605.605 0 0 1-.128.136.301.301 0 0 1-.184.048.454.454 0 0 1-.26-.1 3.888 3.888 0 0 0-.356-.22 3.017 3.017 0 0 0-.524-.22 2.5 2.5 0 0 0-.756-.1c-.395 0-.744.071-1.048.212a2.043 2.043 0 0 0-.764.612c-.205.267-.36.589-.464.968a4.806 4.806 0 0 0-.156 1.272c0 .491.056.927.168 1.308.112.381.269.702.472.96.203.259.449.456.74.592.291.136.617.204.98.204.347 0 .632-.041.856-.124.224-.083.411-.174.56-.276.149-.101.272-.193.368-.276a.442.442 0 0 1 .288-.124c.123 0 .213.045.272.136l.4.52a3.079 3.079 0 0 1-1.32.948c-.528.2-1.085.3-1.672.3-.507 0-.978-.093-1.412-.28s-.812-.458-1.132-.812-.572-.791-.756-1.308c-.184-.517-.276-1.106-.276-1.768 0-.603.084-1.16.252-1.672.168-.512.413-.953.736-1.324.323-.371.721-.66 1.196-.868s1.019-.312 1.632-.312c.565 0 1.066.092 1.504.276.437.184.824.444 1.16.78l-.376.512zM46.968 238.68c.485 0 .933.082 1.344.244.411.163.765.397 1.064.704.298.307.532.686.7 1.136s.252.964.252 1.54c0 .224-.024.373-.072.448s-.139.112-.272.112h-5.392c.011.512.08.957.208 1.336s.304.695.528.948c.224.253.491.443.8.568.309.125.656.188 1.04.188.357 0 .665-.042.924-.124a4.43 4.43 0 0 0 1.136-.536c.125-.083.233-.124.324-.124.117 0 .208.045.272.136l.4.52a2.712 2.712 0 0 1-.632.556 3.953 3.953 0 0 1-.788.388c-.28.101-.569.177-.868.228-.299.05-.595.076-.888.076-.56 0-1.076-.095-1.548-.284a3.397 3.397 0 0 1-1.224-.832c-.344-.365-.612-.817-.804-1.356s-.288-1.157-.288-1.856c0-.565.087-1.093.26-1.584s.422-.916.748-1.276a3.44 3.44 0 0 1 1.192-.848c.469-.206.997-.308 1.584-.308zm.032 1.048c-.688 0-1.229.199-1.624.596-.395.397-.64.948-.736 1.652h4.408c0-.331-.045-.633-.136-.908a2.019 2.019 0 0 0-.4-.712c-.176-.2-.391-.354-.644-.464s-.543-.164-.868-.164zM56.784 240.144a.315.315 0 0 1-.296.176.552.552 0 0 1-.272-.088 6.501 6.501 0 0 0-.372-.196 3.5 3.5 0 0 0-.524-.2 2.515 2.515 0 0 0-.72-.092c-.24 0-.456.031-.648.092a1.584 1.584 0 0 0-.492.252c-.136.107-.24.231-.312.372a1.002 1.002 0 0 0-.108.46c0 .208.06.381.18.52s.278.259.476.36c.197.101.421.19.672.268.25.078.508.16.772.248s.521.186.772.292c.25.107.475.24.672.4.197.16.356.356.476.588s.18.511.18.836c0 .374-.067.719-.2 1.036s-.331.592-.592.824a2.862 2.862 0 0 1-.96.548c-.379.133-.816.2-1.312.2a4.091 4.091 0 0 1-1.536-.276 3.888 3.888 0 0 1-1.168-.708l.336-.544a.478.478 0 0 1 .152-.16.43.43 0 0 1 .232-.056c.096 0 .197.038.304.112.106.075.236.157.388.248.152.091.336.173.552.248s.487.112.812.112c.277 0 .52-.036.728-.108.208-.072.381-.169.52-.292s.241-.264.308-.424c.066-.16.1-.331.1-.512a.85.85 0 0 0-.18-.556c-.12-.146-.279-.272-.476-.376s-.423-.194-.676-.272a50.909 50.909 0 0 1-.776-.244 8.824 8.824 0 0 1-.776-.292 2.728 2.728 0 0 1-.676-.412c-.198-.166-.356-.37-.476-.612s-.18-.537-.18-.884c0-.31.064-.607.192-.892.128-.285.315-.536.56-.752.246-.216.547-.388.904-.516a3.615 3.615 0 0 1 1.224-.192c.534 0 1.012.084 1.436.252a3.4 3.4 0 0 1 1.1.692l-.32.52zM63.728 240.144a.315.315 0 0 1-.296.176.552.552 0 0 1-.272-.088 6.501 6.501 0 0 0-.372-.196 3.5 3.5 0 0 0-.524-.2 2.515 2.515 0 0 0-.72-.092c-.24 0-.456.031-.648.092a1.584 1.584 0 0 0-.492.252c-.136.107-.24.231-.312.372a1.002 1.002 0 0 0-.108.46c0 .208.06.381.18.52s.278.259.476.36c.197.101.421.19.672.268.25.078.508.16.772.248s.521.186.772.292c.25.107.475.24.672.4.197.16.356.356.476.588s.18.511.18.836c0 .374-.067.719-.2 1.036s-.331.592-.592.824a2.862 2.862 0 0 1-.96.548c-.379.133-.816.2-1.312.2a4.091 4.091 0 0 1-1.536-.276 3.888 3.888 0 0 1-1.168-.708l.336-.544a.478.478 0 0 1 .152-.16.43.43 0 0 1 .232-.056c.096 0 .197.038.304.112.106.075.236.157.388.248.152.091.336.173.552.248s.487.112.812.112c.277 0 .52-.036.728-.108.208-.072.381-.169.52-.292s.241-.264.308-.424c.066-.16.1-.331.1-.512a.85.85 0 0 0-.18-.556c-.12-.146-.279-.272-.476-.376s-.423-.194-.676-.272a50.909 50.909 0 0 1-.776-.244 8.824 8.824 0 0 1-.776-.292 2.728 2.728 0 0 1-.676-.412c-.198-.166-.356-.37-.476-.612s-.18-.537-.18-.884c0-.31.064-.607.192-.892.128-.285.315-.536.56-.752.246-.216.547-.388.904-.516a3.615 3.615 0 0 1 1.224-.192c.534 0 1.012.084 1.436.252a3.4 3.4 0 0 1 1.1.692l-.32.52zM69.119 246.912v-8.104h.848c.203 0 .331.099.384.296l.104.832c.299-.368.633-.669 1.004-.904s.801-.352 1.292-.352c.549 0 .994.152 1.332.456.339.304.583.715.732 1.232a2.536 2.536 0 0 1 1.064-1.288c.229-.139.473-.24.732-.304.258-.064.521-.096.788-.096.426 0 .806.068 1.14.204.333.136.616.334.848.596.232.262.409.583.532.964.123.381.184.817.184 1.308v5.16h-1.424v-5.16c0-.634-.139-1.116-.416-1.444s-.68-.492-1.208-.492c-.235 0-.458.042-.668.124a1.611 1.611 0 0 0-.936.968c-.093.243-.14.524-.14.844v5.16h-1.424v-5.16c0-.65-.131-1.136-.392-1.456-.261-.32-.643-.48-1.144-.48-.352 0-.679.095-.98.284s-.577.447-.828.772v6.04h-1.424zM85.463 238.68c.485 0 .933.082 1.344.244.411.163.765.397 1.064.704.298.307.532.686.7 1.136s.252.964.252 1.54c0 .224-.024.373-.072.448s-.139.112-.272.112h-5.392c.011.512.08.957.208 1.336s.304.695.528.948c.224.253.491.443.8.568.309.125.656.188 1.04.188.357 0 .665-.042.924-.124a4.43 4.43 0 0 0 1.136-.536c.125-.083.233-.124.324-.124.117 0 .208.045.272.136l.4.52a2.712 2.712 0 0 1-.632.556 3.953 3.953 0 0 1-.788.388c-.28.101-.569.177-.868.228-.299.05-.595.076-.888.076-.56 0-1.076-.095-1.548-.284a3.397 3.397 0 0 1-1.224-.832c-.344-.365-.612-.817-.804-1.356s-.288-1.157-.288-1.856c0-.565.087-1.093.26-1.584s.422-.916.748-1.276a3.44 3.44 0 0 1 1.192-.848c.469-.206.997-.308 1.584-.308zm.032 1.048c-.688 0-1.229.199-1.624.596-.395.397-.64.948-.736 1.652h4.408c0-.331-.045-.633-.136-.908a2.019 2.019 0 0 0-.4-.712c-.176-.2-.391-.354-.644-.464s-.543-.164-.868-.164zM96.343 246.912c-.203 0-.331-.099-.384-.296l-.128-.984c-.347.421-.743.758-1.188 1.012s-.956.38-1.532.38c-.464 0-.886-.089-1.264-.268a2.621 2.621 0 0 1-.968-.788c-.267-.347-.472-.779-.616-1.296-.144-.517-.216-1.112-.216-1.784 0-.597.08-1.153.24-1.668s.391-.961.692-1.34a3.248 3.248 0 0 1 1.1-.892 3.248 3.248 0 0 1 1.472-.324c.496 0 .92.084 1.272.252s.667.404.944.708v-4.496h1.424v11.784h-.848zm-2.76-1.04c.464 0 .871-.106 1.22-.32a3.53 3.53 0 0 0 .964-.904v-3.92c-.261-.352-.548-.599-.86-.74a2.47 2.47 0 0 0-1.036-.212c-.757 0-1.339.27-1.744.808-.405.539-.608 1.307-.608 2.304 0 .528.045.98.136 1.356.09.376.224.686.4.928.176.243.392.42.648.532s.549.168.88.168zM17.12 266.112h-.632c-.139 0-.25-.021-.336-.064s-.141-.133-.168-.272l-.16-.752a8.933 8.933 0 0 1-.624.516c-.203.152-.416.28-.64.384s-.463.183-.716.236a4.13 4.13 0 0 1-.844.08c-.315 0-.609-.044-.884-.132a1.884 1.884 0 0 1-1.2-1.064c-.12-.27-.18-.588-.18-.956 0-.32.088-.628.264-.924.176-.296.46-.559.852-.788.392-.229.905-.417 1.54-.564.635-.147 1.411-.231 2.328-.252v-.632c0-.629-.135-1.105-.404-1.428s-.668-.484-1.196-.484c-.347 0-.639.044-.876.132s-.443.187-.616.296-.323.208-.448.296a.647.647 0 0 1-.372.132.424.424 0 0 1-.252-.076.583.583 0 0 1-.172-.188l-.256-.456a4.626 4.626 0 0 1 1.448-.968 4.473 4.473 0 0 1 1.72-.32c.453 0 .856.075 1.208.224s.648.357.888.624.421.589.544.968c.123.379.184.795.184 1.248v5.184zm-3.696-.872a2.698 2.698 0 0 0 1.276-.292c.184-.093.36-.207.528-.34s.332-.285.492-.456v-1.688c-.656.021-1.213.073-1.672.156-.458.083-.832.191-1.12.324-.288.133-.498.291-.628.472a1.02 1.02 0 0 0-.196.608c0 .213.035.397.104.552a1.038 1.038 0 0 0 .696.596c.16.045.333.068.52.068zM24.808 259.448a.605.605 0 0 1-.128.136.301.301 0 0 1-.184.048.454.454 0 0 1-.26-.1 3.888 3.888 0 0 0-.356-.22 3.017 3.017 0 0 0-.524-.22 2.5 2.5 0 0 0-.756-.1c-.395 0-.744.071-1.048.212a2.043 2.043 0 0 0-.764.612c-.205.267-.36.589-.464.968a4.806 4.806 0 0 0-.156 1.272c0 .491.056.927.168 1.308.112.381.269.702.472.96.203.259.449.456.74.592.291.136.617.204.98.204.347 0 .632-.041.856-.124.224-.083.411-.174.56-.276.149-.101.272-.193.368-.276a.442.442 0 0 1 .288-.124c.123 0 .213.045.272.136l.4.52a3.079 3.079 0 0 1-1.32.948c-.528.2-1.085.3-1.672.3-.507 0-.978-.093-1.412-.28s-.812-.458-1.132-.812-.572-.791-.756-1.308c-.184-.517-.276-1.106-.276-1.768 0-.603.084-1.16.252-1.672.168-.512.413-.953.736-1.324.323-.371.721-.66 1.196-.868s1.019-.312 1.632-.312c.565 0 1.066.092 1.504.276.437.184.824.444 1.16.78l-.376.512zM32.28 259.448a.605.605 0 0 1-.128.136.301.301 0 0 1-.184.048.454.454 0 0 1-.26-.1 3.888 3.888 0 0 0-.356-.22 3.017 3.017 0 0 0-.524-.22 2.5 2.5 0 0 0-.756-.1c-.395 0-.744.071-1.048.212a2.043 2.043 0 0 0-.764.612c-.205.267-.36.589-.464.968a4.806 4.806 0 0 0-.156 1.272c0 .491.056.927.168 1.308.112.381.269.702.472.96.203.259.449.456.74.592.291.136.617.204.98.204.347 0 .632-.041.856-.124.224-.083.411-.174.56-.276.149-.101.272-.193.368-.276a.442.442 0 0 1 .288-.124c.123 0 .213.045.272.136l.4.52a3.079 3.079 0 0 1-1.32.948c-.528.2-1.085.3-1.672.3-.507 0-.978-.093-1.412-.28s-.812-.458-1.132-.812-.572-.791-.756-1.308c-.184-.517-.276-1.106-.276-1.768 0-.603.084-1.16.252-1.672.168-.512.413-.953.736-1.324.323-.371.721-.66 1.196-.868s1.019-.312 1.632-.312c.565 0 1.066.092 1.504.276.437.184.824.444 1.16.78l-.376.512zM37.432 257.88c.485 0 .933.082 1.344.244.411.163.765.397 1.064.704.298.307.532.686.7 1.136s.252.964.252 1.54c0 .224-.024.373-.072.448s-.139.112-.272.112h-5.392c.011.512.08.957.208 1.336s.304.695.528.948c.224.253.491.443.8.568.309.125.656.188 1.04.188.357 0 .665-.042.924-.124a4.43 4.43 0 0 0 1.136-.536c.125-.083.233-.124.324-.124.117 0 .208.045.272.136l.4.52a2.712 2.712 0 0 1-.632.556 3.953 3.953 0 0 1-.788.388c-.28.101-.569.177-.868.228-.299.05-.595.076-.888.076-.56 0-1.076-.095-1.548-.284a3.397 3.397 0 0 1-1.224-.832c-.344-.365-.612-.817-.804-1.356s-.288-1.157-.288-1.856c0-.565.087-1.093.26-1.584s.422-.916.748-1.276a3.44 3.44 0 0 1 1.192-.848c.469-.206.997-.308 1.584-.308zm.032 1.048c-.688 0-1.229.199-1.624.596-.395.397-.64.948-.736 1.652h4.408c0-.331-.045-.633-.136-.908a2.019 2.019 0 0 0-.4-.712c-.176-.2-.391-.354-.644-.464s-.543-.164-.868-.164zM42.607 268.856v-10.848h.848c.203 0 .331.099.384.296l.12.96c.347-.421.743-.76 1.188-1.016.445-.256.958-.384 1.54-.384.464 0 .885.089 1.264.268.378.179.701.443.968.792s.472.783.616 1.3c.144.518.216 1.112.216 1.784 0 .597-.08 1.153-.24 1.668-.16.515-.389.96-.688 1.336a3.203 3.203 0 0 1-1.1.888 3.255 3.255 0 0 1-1.468.324c-.501 0-.929-.083-1.284-.248a2.885 2.885 0 0 1-.94-.704v3.584h-1.424zm3.608-9.84c-.464 0-.871.107-1.22.32-.35.213-.671.515-.964.904v3.92c.261.352.548.6.86.744s.66.216 1.044.216c.752 0 1.331-.269 1.736-.808s.608-1.307.608-2.304c0-.528-.046-.981-.14-1.36-.094-.379-.228-.689-.404-.932a1.57 1.57 0 0 0-.648-.532 2.15 2.15 0 0 0-.872-.168zM53.896 266.24c-.64 0-1.132-.179-1.476-.536-.344-.357-.516-.872-.516-1.544v-4.96h-.976c-.085 0-.157-.025-.216-.076s-.088-.129-.088-.236v-.568l1.328-.168.328-2.504a.301.301 0 0 1 .104-.196.334.334 0 0 1 .224-.076h.72v2.792h2.32v1.032h-2.32v4.864c0 .341.083.595.248.76a.862.862 0 0 0 .64.248c.149 0 .279-.02.388-.06s.204-.084.284-.132c.08-.048.148-.092.204-.132a.266.266 0 0 1 .148-.06c.075 0 .142.045.2.136l.416.68a2.667 2.667 0 0 1-.888.54c-.347.13-.704.196-1.072.196zM66.447 266.112h-.632c-.139 0-.25-.021-.336-.064s-.141-.133-.168-.272l-.16-.752a8.933 8.933 0 0 1-.624.516c-.203.152-.416.28-.64.384s-.463.183-.716.236a4.13 4.13 0 0 1-.844.08c-.315 0-.609-.044-.884-.132a1.884 1.884 0 0 1-1.2-1.064c-.12-.27-.18-.588-.18-.956 0-.32.088-.628.264-.924.176-.296.46-.559.852-.788.392-.229.905-.417 1.54-.564.635-.147 1.411-.231 2.328-.252v-.632c0-.629-.135-1.105-.404-1.428s-.668-.484-1.196-.484c-.347 0-.639.044-.876.132s-.443.187-.616.296-.323.208-.448.296a.647.647 0 0 1-.372.132.424.424 0 0 1-.252-.076.583.583 0 0 1-.172-.188l-.256-.456a4.626 4.626 0 0 1 1.448-.968 4.473 4.473 0 0 1 1.72-.32c.453 0 .856.075 1.208.224s.648.357.888.624.421.589.544.968c.123.379.184.795.184 1.248v5.184zm-3.696-.872a2.698 2.698 0 0 0 1.276-.292c.184-.093.36-.207.528-.34s.332-.285.492-.456v-1.688c-.656.021-1.213.073-1.672.156-.458.083-.832.191-1.12.324-.288.133-.498.291-.628.472a1.02 1.02 0 0 0-.196.608c0 .213.035.397.104.552a1.038 1.038 0 0 0 .696.596c.16.045.333.068.52.068zM68.927 266.112v-6.888l-.896-.104a.703.703 0 0 1-.276-.124c-.072-.056-.108-.137-.108-.244v-.584h1.28v-.784c0-.464.065-.876.196-1.236.13-.36.317-.664.56-.912s.535-.436.876-.564.725-.192 1.152-.192c.363 0 .699.053 1.008.16l-.032.712c-.005.106-.051.17-.136.192a1.58 1.58 0 0 1-.36.032h-.248c-.245 0-.468.032-.668.096s-.372.168-.516.312-.254.333-.332.568a2.828 2.828 0 0 0-.116.872v.744h2.344v1.032h-2.296v6.912h-1.432zM11.168 285.312v-11.784h1.424v4.768a4.377 4.377 0 0 1 1.152-.884c.421-.221.906-.332 1.456-.332.442 0 .833.073 1.172.22.338.147.621.355.848.624.227.27.398.593.516.972s.176.798.176 1.256v5.16h-1.424v-5.16c0-.613-.14-1.089-.42-1.428-.28-.339-.708-.508-1.284-.508a2.4 2.4 0 0 0-1.18.304 3.886 3.886 0 0 0-1.012.824v5.968h-1.424zM18.784 277.208h1.168c.112 0 .205.029.28.088a.498.498 0 0 1 .16.208l2.056 5.216c.075.191.133.384.176.576.043.191.083.381.12.567.042-.187.088-.376.136-.567.048-.192.109-.385.184-.576l2.08-5.216a.477.477 0 0 1 .156-.212.423.423 0 0 1 .268-.084h1.112l-3.304 8.104h-1.288l-3.304-8.104zM31.072 277.08c.592 0 1.126.099 1.604.296.478.197.883.478 1.216.84.333.363.589.801.768 1.316s.268 1.09.268 1.725c0 .64-.089 1.216-.268 1.728s-.435.949-.768 1.313a3.352 3.352 0 0 1-1.216.836 4.224 4.224 0 0 1-1.604.292 4.224 4.224 0 0 1-1.604-.292 3.385 3.385 0 0 1-1.22-.836 3.743 3.743 0 0 1-.776-1.313c-.182-.512-.272-1.088-.272-1.728 0-.635.09-1.21.272-1.725a3.73 3.73 0 0 1 .776-1.316 3.428 3.428 0 0 1 1.22-.84 4.168 4.168 0 0 1 1.604-.296zm0 7.232c.8 0 1.397-.268 1.792-.804s.592-1.284.592-2.244c0-.966-.197-1.718-.592-2.257-.395-.538-.992-.807-1.792-.807-.406 0-.758.069-1.056.208a1.968 1.968 0 0 0-.748.599c-.2.262-.35.583-.448.965a5.15 5.15 0 0 0-.148 1.292c0 .479.049.909.148 1.288s.248.697.448.956.449.457.748.596c.298.139.651.208 1.056.208zM36.688 285.312v-8.104h.816c.155 0 .261.029.32.088s.099.16.12.304l.096 1.264c.277-.565.62-1.006 1.028-1.324a2.274 2.274 0 0 1 1.436-.476 2.097 2.097 0 0 1 1.112.288l-.184 1.064c-.038.133-.12.201-.248.201-.075 0-.189-.025-.344-.076s-.371-.076-.648-.076c-.496 0-.911.144-1.244.432-.333.288-.612.707-.836 1.256v5.16h-1.424zM51.928 285.312c-.203 0-.331-.099-.384-.296l-.128-.984a4.28 4.28 0 0 1-1.188 1.013c-.445.253-.956.38-1.532.38-.464 0-.886-.09-1.264-.269a2.621 2.621 0 0 1-.968-.788c-.267-.347-.472-.778-.616-1.296-.144-.517-.216-1.111-.216-1.784 0-.597.08-1.153.24-1.668s.391-.961.692-1.34a3.248 3.248 0 0 1 1.1-.892 3.248 3.248 0 0 1 1.472-.324c.496 0 .92.084 1.272.252s.667.404.944.708v-4.496h1.424v11.784h-.848zm-2.761-1.04c.464 0 .871-.106 1.22-.32.349-.213.67-.515.964-.903v-3.92c-.261-.353-.548-.6-.86-.74a2.47 2.47 0 0 0-1.036-.212c-.757 0-1.339.27-1.744.808-.405.539-.608 1.307-.608 2.304 0 .528.045.98.136 1.356.09.376.224.686.4.928.176.243.392.42.648.532s.55.167.88.167zM56.4 277.208v5.168c0 .613.141 1.088.424 1.424.282.336.709.504 1.28.504.416 0 .808-.099 1.176-.296a3.665 3.665 0 0 0 1.016-.824v-5.976h1.424v8.104h-.848c-.203 0-.331-.099-.384-.296l-.112-.872c-.352.39-.747.703-1.184.94-.438.236-.938.355-1.504.355a2.92 2.92 0 0 1-1.172-.22 2.318 2.318 0 0 1-.852-.62c-.229-.267-.401-.589-.516-.968s-.172-.798-.172-1.256v-5.168H56.4zM70.359 277.08c.485 0 .933.082 1.344.244.411.163.765.397 1.064.704.298.307.532.686.7 1.136.168.451.252.965.252 1.54 0 .225-.024.374-.072.448-.048.075-.139.112-.272.112h-5.392c.011.512.08.957.208 1.336s.304.694.528.948c.224.253.491.442.8.567.309.126.656.188 1.04.188.357 0 .665-.041.924-.124s.481-.172.668-.269c.187-.096.343-.185.468-.268.125-.083.233-.124.324-.124.117 0 .208.045.272.136l.4.521a2.735 2.735 0 0 1-.632.556 3.953 3.953 0 0 1-.788.388 5.273 5.273 0 0 1-1.756.305c-.56 0-1.076-.095-1.548-.284a3.397 3.397 0 0 1-1.224-.832 3.811 3.811 0 0 1-.804-1.356c-.192-.538-.288-1.157-.288-1.855 0-.565.087-1.094.26-1.584.173-.491.422-.916.748-1.276a3.44 3.44 0 0 1 1.192-.848c.47-.206.997-.309 1.584-.309zm.033 1.048c-.688 0-1.229.199-1.624.596-.395.397-.64.948-.736 1.652h4.408a2.87 2.87 0 0 0-.136-.908 2.023 2.023 0 0 0-.4-.713c-.176-.199-.391-.354-.644-.463s-.543-.164-.868-.164zM75.535 285.312v-8.104h.816c.155 0 .261.029.32.088s.099.16.12.304l.096 1.264c.277-.565.62-1.006 1.028-1.324a2.274 2.274 0 0 1 1.436-.476 2.097 2.097 0 0 1 1.112.288l-.184 1.064c-.038.133-.12.201-.248.201-.075 0-.189-.025-.344-.076s-.371-.076-.648-.076c-.496 0-.911.144-1.244.432-.333.288-.612.707-.836 1.256v5.16h-1.424zM80.464 284.432a1.015 1.015 0 0 1 .284-.712.965.965 0 0 1 .316-.216c.123-.054.253-.08.392-.08s.27.026.392.08a.994.994 0 0 1 .608.928.992.992 0 0 1-.288.712 1.007 1.007 0 0 1-.712.288 1.01 1.01 0 0 1-.392-.076.925.925 0 0 1-.316-.212 1.002 1.002 0 0 1-.284-.712zM17.264 294.839c-.048.08-.099.14-.152.18s-.123.061-.208.061c-.09 0-.196-.046-.316-.137a5.34 5.34 0 0 0-.456-.3 3.737 3.737 0 0 0-.664-.3 2.846 2.846 0 0 0-.94-.136c-.347 0-.653.047-.92.14-.267.094-.489.22-.668.38s-.313.349-.404.564a1.783 1.783 0 0 0-.136.7c0 .319.079.585.236.796.157.21.365.391.624.54.259.149.552.278.88.388.328.109.664.223 1.008.34.344.117.68.249 1.008.396.328.146.622.332.88.556.258.224.466.499.624.824.157.325.236.725.236 1.2 0 .502-.085.973-.256 1.412-.171.439-.42.822-.748 1.148-.328.324-.731.58-1.208.768-.478.186-1.02.279-1.628.279a4.976 4.976 0 0 1-2.028-.404 4.74 4.74 0 0 1-1.564-1.092l.448-.734a.536.536 0 0 1 .156-.148.36.36 0 0 1 .204-.061c.112 0 .24.061.384.18.144.121.324.252.54.396.216.145.478.275.784.396.307.119.681.18 1.124.18.368 0 .696-.051.984-.152s.532-.244.732-.428c.2-.184.354-.404.46-.66.107-.256.16-.541.16-.855 0-.348-.079-.631-.236-.854-.158-.221-.364-.406-.62-.555s-.548-.276-.876-.38l-1.008-.32a9.843 9.843 0 0 1-1.008-.38c-.328-.144-.62-.33-.876-.56s-.463-.517-.62-.86-.236-.77-.236-1.276a3.045 3.045 0 0 1 .92-2.184 3.324 3.324 0 0 1 1.108-.704c.44-.176.945-.264 1.516-.264.64 0 1.224.102 1.752.304.528.203.989.496 1.384.88l-.376.736zM22.928 296.279c.592 0 1.126.1 1.604.297.478.197.883.477 1.216.84.333.362.589.801.768 1.315s.268 1.09.268 1.724c0 .641-.089 1.217-.268 1.729s-.435.949-.768 1.313a3.364 3.364 0 0 1-1.216.836 4.244 4.244 0 0 1-1.604.291 4.244 4.244 0 0 1-1.604-.291 3.397 3.397 0 0 1-1.22-.836 3.743 3.743 0 0 1-.776-1.313c-.182-.512-.272-1.088-.272-1.729 0-.634.09-1.209.272-1.724.181-.515.44-.953.776-1.315a3.415 3.415 0 0 1 1.22-.84 4.149 4.149 0 0 1 1.604-.297zm0 7.233c.8 0 1.397-.268 1.792-.805.395-.535.592-1.283.592-2.244 0-.965-.197-1.717-.592-2.255-.395-.539-.992-.809-1.792-.809-.406 0-.758.069-1.056.208a1.973 1.973 0 0 0-.748.601c-.2.261-.35.582-.448.964a5.15 5.15 0 0 0-.148 1.292c0 .48.049.91.148 1.289s.248.697.448.955c.2.26.449.457.748.596.298.137.65.208 1.056.208zM28.544 304.512v-8.104h.816c.155 0 .261.029.32.088s.099.159.12.304l.096 1.264c.277-.565.62-1.007 1.028-1.324a2.28 2.28 0 0 1 1.436-.476 2.097 2.097 0 0 1 1.112.288l-.184 1.063c-.038.134-.12.2-.248.2-.075 0-.189-.025-.344-.076-.155-.05-.371-.075-.648-.075-.496 0-.911.144-1.244.432-.333.288-.612.707-.836 1.256v5.161h-1.424zM37.72 296.271c.352 0 .681.039.988.116s.585.19.836.34h2.2v.528c0 .176-.112.288-.336.336l-.92.128c.181.347.272.733.272 1.16 0 .395-.076.753-.228 1.076a2.448 2.448 0 0 1-.632.828c-.27.229-.589.406-.96.527a3.854 3.854 0 0 1-1.22.186c-.379 0-.736-.047-1.072-.137-.171.107-.3.221-.388.344s-.132.242-.132.359c0 .193.077.338.232.438.154.098.36.168.616.211.256.043.547.07.872.08.325.012.657.027.996.053.338.023.67.064.996.123.325.059.616.154.872.289.256.133.461.316.616.551s.232.539.232.912c0 .348-.086.684-.26 1.008a2.73 2.73 0 0 1-.748.869 3.882 3.882 0 0 1-1.192.607c-.47.152-1 .229-1.592.229a6.156 6.156 0 0 1-1.556-.176c-.446-.117-.815-.275-1.108-.473a2.066 2.066 0 0 1-.66-.684 1.623 1.623 0 0 1-.22-.813c0-.4.127-.74.38-1.02.253-.281.602-.504 1.044-.668a1.444 1.444 0 0 1-.548-.428c-.136-.18-.204-.418-.204-.717 0-.117.021-.238.064-.363.042-.125.108-.25.196-.373a2.074 2.074 0 0 1 .772-.649c-.4-.223-.713-.52-.94-.891-.227-.371-.34-.804-.34-1.3 0-.395.076-.753.228-1.076.152-.322.364-.598.636-.824s.596-.401.972-.523a4.016 4.016 0 0 1 1.236-.183zm2.528 8.68a.696.696 0 0 0-.168-.488 1.074 1.074 0 0 0-.456-.283 3.281 3.281 0 0 0-.664-.148 10.447 10.447 0 0 0-.792-.068c-.278-.014-.56-.027-.848-.043a8.895 8.895 0 0 1-.824-.088 2.302 2.302 0 0 0-.74.527 1.066 1.066 0 0 0-.284.744c0 .182.047.35.14.508.093.156.236.293.428.408.192.115.434.205.724.271s.633.1 1.028.1c.384 0 .728-.033 1.032-.104.304-.068.561-.168.772-.295.21-.129.372-.281.484-.457.112-.176.168-.371.168-.584zm-2.528-4.4c.288 0 .542-.039.764-.119.221-.08.406-.193.556-.336a1.39 1.39 0 0 0 .336-.516c.075-.2.112-.42.112-.66 0-.496-.151-.891-.452-1.185-.301-.293-.74-.439-1.316-.439-.571 0-1.007.146-1.308.439-.301.294-.452.688-.452 1.185 0 .24.039.46.116.66.077.199.19.372.34.516.149.143.333.256.552.336s.47.119.752.119zM18.456 312.248v1.264h-5.504v4.008h4.704v1.264h-4.704v4.928h-1.56v-11.463h7.064zM19.744 323.711v-8.104h.816c.155 0 .261.029.32.088s.099.16.12.305l.096 1.264c.277-.566.62-1.008 1.028-1.324a2.28 2.28 0 0 1 1.436-.477c.224 0 .427.025.608.076.182.051.35.121.504.213l-.184 1.063c-.038.135-.12.201-.248.201-.075 0-.189-.025-.344-.076s-.371-.076-.648-.076c-.496 0-.911.145-1.244.432-.333.289-.612.707-.836 1.256v5.16h-1.424zM27.424 315.607v5.168c0 .613.141 1.088.424 1.424.282.336.709.504 1.28.504.416 0 .808-.098 1.176-.295a3.665 3.665 0 0 0 1.016-.824v-5.977h1.424v8.104h-.848c-.203 0-.331-.098-.384-.295l-.112-.873a4.447 4.447 0 0 1-1.184.941c-.438.236-.938.355-1.504.355a2.92 2.92 0 0 1-1.172-.221 2.327 2.327 0 0 1-.852-.619c-.229-.268-.401-.59-.516-.969s-.172-.796-.172-1.255v-5.168h1.424zM39.728 316.943a.316.316 0 0 1-.296.176.552.552 0 0 1-.272-.088 6.556 6.556 0 0 0-.372-.195 3.607 3.607 0 0 0-.524-.201 2.515 2.515 0 0 0-.72-.092c-.24 0-.456.031-.648.092a1.606 1.606 0 0 0-.492.252c-.136.107-.24.232-.312.373a.998.998 0 0 0-.108.459c0 .209.06.383.18.521.12.139.278.258.476.359.197.102.421.191.672.268.25.078.508.16.772.248s.521.186.772.293c.25.105.475.238.672.398s.356.357.476.588c.12.232.18.512.18.836 0 .375-.067.719-.2 1.037a2.272 2.272 0 0 1-.592.824 2.86 2.86 0 0 1-.96.547c-.379.135-.816.201-1.312.201a4.072 4.072 0 0 1-1.536-.277 3.906 3.906 0 0 1-1.168-.707l.336-.545a.48.48 0 0 1 .152-.158.413.413 0 0 1 .232-.057.54.54 0 0 1 .304.111c.106.074.236.158.388.248.152.092.336.174.552.248s.487.111.812.111c.277 0 .52-.035.728-.107s.381-.168.52-.291.241-.264.308-.424c.066-.16.1-.332.1-.514 0-.223-.06-.408-.18-.555s-.279-.271-.476-.377a3.933 3.933 0 0 0-.676-.271 50.909 50.909 0 0 1-.776-.244c-.264-.086-.522-.182-.776-.291s-.479-.248-.676-.412a1.855 1.855 0 0 1-.476-.613c-.12-.242-.18-.537-.18-.883 0-.311.064-.607.192-.893.128-.285.315-.535.56-.752.246-.217.547-.389.904-.516a3.59 3.59 0 0 1 1.224-.193c.534 0 1.012.084 1.436.252.424.17.791.4 1.1.693l-.32.521zM44.488 323.84c-.64 0-1.132-.18-1.476-.537-.344-.357-.516-.871-.516-1.543v-4.961h-.976c-.085 0-.157-.025-.216-.076s-.088-.129-.088-.234v-.568l1.328-.168.328-2.504c.011-.08.045-.146.104-.197s.133-.076.224-.076h.72v2.793h2.32v1.031h-2.32v4.865c0 .34.083.594.248.76a.87.87 0 0 0 .64.248c.149 0 .279-.02.388-.061.109-.039.204-.084.284-.133.08-.047.148-.092.204-.131a.261.261 0 0 1 .148-.061c.075 0 .142.045.2.137l.416.68c-.245.229-.542.41-.888.539-.347.13-.704.197-1.072.197zM48 323.711v-8.104h.816c.155 0 .261.029.32.088s.099.16.12.305l.096 1.264c.277-.566.62-1.008 1.028-1.324a2.28 2.28 0 0 1 1.436-.477c.224 0 .427.025.608.076.182.051.35.121.504.213l-.184 1.063c-.038.135-.12.201-.248.201-.075 0-.189-.025-.344-.076s-.371-.076-.648-.076c-.496 0-.911.145-1.244.432-.333.289-.612.707-.836 1.256v5.16H48zM60.096 323.711h-.632a.75.75 0 0 1-.336-.064c-.085-.041-.141-.133-.168-.271l-.16-.752a8.933 8.933 0 0 1-.624.516c-.203.152-.416.281-.64.385s-.463.184-.716.236a4.13 4.13 0 0 1-.844.08c-.315 0-.609-.045-.884-.133a1.876 1.876 0 0 1-1.2-1.064 2.328 2.328 0 0 1-.18-.955c0-.32.088-.629.264-.924.176-.297.46-.559.852-.789.392-.229.905-.416 1.54-.563s1.411-.23 2.328-.252v-.633c0-.629-.135-1.105-.404-1.428s-.668-.484-1.196-.484c-.347 0-.639.045-.876.133s-.443.186-.616.295-.323.209-.448.297a.645.645 0 0 1-.372.131.424.424 0 0 1-.252-.076.563.563 0 0 1-.172-.188l-.256-.455a4.63 4.63 0 0 1 1.448-.969 4.473 4.473 0 0 1 1.72-.32c.453 0 .856.076 1.208.225s.648.357.888.623c.24.268.421.59.544.969s.184.795.184 1.248v5.182zm-3.697-.871a2.7 2.7 0 0 0 1.276-.293c.184-.092.36-.207.528-.34s.332-.285.492-.455v-1.689c-.656.021-1.213.074-1.672.156-.458.084-.832.191-1.12.324-.288.135-.498.291-.628.473s-.196.385-.196.607c0 .213.035.398.104.553a1.034 1.034 0 0 0 .696.596c.161.044.334.068.52.068zM64.712 323.84c-.64 0-1.132-.18-1.476-.537-.344-.357-.516-.871-.516-1.543v-4.961h-.976c-.085 0-.157-.025-.216-.076s-.088-.129-.088-.234v-.568l1.328-.168.328-2.504c.011-.08.045-.146.104-.197s.133-.076.224-.076h.72v2.793h2.32v1.031h-2.32v4.865c0 .34.083.594.248.76a.87.87 0 0 0 .64.248c.149 0 .279-.02.388-.061.109-.039.204-.084.284-.133.08-.047.148-.092.204-.131a.261.261 0 0 1 .148-.061c.075 0 .142.045.2.137l.416.68c-.245.229-.542.41-.888.539-.347.13-.704.197-1.072.197zM70.127 313.063a.9.9 0 0 1-.084.389 1.087 1.087 0 0 1-.548.541.978.978 0 0 1-.78 0 1.072 1.072 0 0 1-.54-.541.928.928 0 0 1-.08-.389 1.023 1.023 0 0 1 .3-.723c.094-.094.2-.168.32-.221.12-.053.249-.08.388-.08s.27.027.392.08.23.127.324.221c.093.094.168.203.224.328a.938.938 0 0 1 .084.395zm-.319 2.544v8.104h-1.424v-8.104h1.424zM75.6 315.479c.592 0 1.126.1 1.604.297.478.197.883.477 1.216.84.333.363.589.801.768 1.316.179.514.268 1.09.268 1.725 0 .639-.089 1.215-.268 1.727s-.435.949-.768 1.313a3.34 3.34 0 0 1-1.216.836 4.205 4.205 0 0 1-1.604.293 4.205 4.205 0 0 1-1.604-.293c-.478-.195-.884-.473-1.22-.836s-.595-.801-.776-1.313c-.182-.512-.272-1.088-.272-1.727 0-.635.09-1.211.272-1.725.181-.516.44-.953.776-1.316s.743-.643 1.22-.84a4.145 4.145 0 0 1 1.604-.297zm0 7.232c.8 0 1.397-.268 1.792-.803.395-.537.592-1.285.592-2.244 0-.967-.197-1.719-.592-2.256-.395-.539-.992-.809-1.792-.809-.406 0-.758.068-1.056.207-.299.139-.548.34-.748.602-.2.26-.35.582-.448.963s-.148.813-.148 1.293c0 .479.049.908.148 1.287s.248.697.448.957a2 2 0 0 0 .748.596c.298.139.65.207 1.056.207zM81.216 323.711v-8.104h.848c.203 0 .331.1.384.297l.112.879c.352-.389.745-.703 1.18-.943s.938-.361 1.508-.361c.442 0 .833.074 1.172.221.338.146.621.355.848.625.227.27.398.592.516.971s.176.799.176 1.256v5.16h-1.424v-5.16c0-.613-.14-1.088-.42-1.428-.28-.338-.708-.508-1.284-.508-.421 0-.815.102-1.18.305s-.703.477-1.012.824v5.967h-1.424z"/><path fill="none" stroke="#D53593" stroke-miterlimit="10" stroke-width="2" d="M545.854 417.579h31.087v-23.391h43.86V366.75h30.994V341.5h27.485v-35.032h46.199v-19.343h36.257v-32.119h46.2v-18.934h35.672V205h40"/><path d="M434.328 456.641c0 .858-.136 1.64-.408 2.344s-.656 1.307-1.152 1.808c-.496.502-1.091.89-1.784 1.164s-1.461.412-2.304.412h-4.288v-11.464h4.288c.842 0 1.61.138 2.304.412s1.288.664 1.784 1.168.88 1.107 1.152 1.812.408 1.484.408 2.344zm-1.592 0c0-.704-.096-1.334-.288-1.889a3.985 3.985 0 0 0-.816-1.408 3.487 3.487 0 0 0-1.28-.88 4.437 4.437 0 0 0-1.672-.304h-2.728v8.952h2.728a4.44 4.44 0 0 0 1.672-.304 3.514 3.514 0 0 0 1.28-.876 3.95 3.95 0 0 0 .816-1.404c.192-.554.288-1.184.288-1.887zM437.448 454.265v5.168c0 .613.141 1.088.424 1.424.282.336.709.504 1.28.504.416 0 .808-.099 1.176-.296a3.665 3.665 0 0 0 1.016-.824v-5.976h1.424v8.104h-.848c-.203 0-.331-.099-.384-.296l-.112-.872c-.352.39-.747.703-1.184.94-.438.236-.938.355-1.504.355a2.92 2.92 0 0 1-1.172-.22 2.318 2.318 0 0 1-.852-.62c-.229-.267-.401-.589-.516-.968s-.172-.798-.172-1.256v-5.168h1.424zM452.84 455.601a.316.316 0 0 1-.296.176.552.552 0 0 1-.272-.088 6.501 6.501 0 0 0-.372-.196 3.5 3.5 0 0 0-.524-.2 2.48 2.48 0 0 0-.72-.092c-.24 0-.456.03-.648.092s-.356.146-.492.252c-.136.107-.24.231-.312.372a1.002 1.002 0 0 0-.108.46c0 .208.06.382.18.521s.278.259.476.359c.197.102.421.191.672.269.25.077.508.16.772.248s.521.186.772.292c.25.106.475.239.672.399s.356.356.476.588c.12.232.18.511.18.836 0 .374-.067.719-.2 1.036s-.331.593-.592.824a2.862 2.862 0 0 1-.96.548c-.379.134-.816.2-1.312.2a4.091 4.091 0 0 1-1.536-.276 3.888 3.888 0 0 1-1.168-.708l.336-.544a.475.475 0 0 1 .152-.159.422.422 0 0 1 .232-.057c.096 0 .197.037.304.112.106.074.236.157.388.248.152.091.336.173.552.248.216.074.487.111.812.111.277 0 .52-.035.728-.107s.381-.169.52-.292.241-.264.308-.424c.066-.16.1-.331.1-.513 0-.224-.06-.409-.18-.556s-.279-.271-.476-.376a3.854 3.854 0 0 0-.676-.271 65.285 65.285 0 0 1-.776-.244c-.264-.086-.522-.183-.776-.292s-.479-.247-.676-.412a1.85 1.85 0 0 1-.476-.612c-.12-.242-.18-.537-.18-.884a2.164 2.164 0 0 1 .752-1.645c.246-.216.547-.388.904-.516a3.615 3.615 0 0 1 1.224-.192c.534 0 1.012.084 1.436.252.424.169.791.399 1.1.692l-.32.521zM456.624 450.584v6.937h.368c.106 0 .194-.015.264-.044s.147-.09.232-.181l2.56-2.744c.08-.085.16-.154.24-.208a.572.572 0 0 1 .32-.079h1.296l-2.984 3.176a2.628 2.628 0 0 1-.22.239c-.072.07-.153.131-.244.185.096.063.183.138.26.22.077.083.15.178.22.284l3.168 4h-1.28a.608.608 0 0 1-.3-.068.767.767 0 0 1-.236-.212l-2.664-3.319a.628.628 0 0 0-.24-.221.964.964 0 0 0-.36-.052h-.4v3.872h-1.432v-11.784h1.432zM469.479 462.368h-.632a.75.75 0 0 1-.336-.064c-.085-.042-.141-.133-.168-.271l-.16-.752a9.224 9.224 0 0 1-.624.516c-.203.152-.416.28-.64.384a3.251 3.251 0 0 1-.716.236 4.06 4.06 0 0 1-.844.08c-.315 0-.609-.044-.884-.132a1.876 1.876 0 0 1-1.2-1.064 2.333 2.333 0 0 1-.18-.956c0-.319.088-.628.264-.924s.46-.559.852-.788c.392-.229.905-.417 1.54-.563s1.411-.23 2.328-.252v-.632c0-.63-.135-1.105-.404-1.429-.27-.322-.668-.483-1.196-.483-.347 0-.639.044-.876.132s-.443.187-.616.296-.323.208-.448.296a.647.647 0 0 1-.372.132.424.424 0 0 1-.252-.076.573.573 0 0 1-.172-.188l-.256-.456a4.626 4.626 0 0 1 1.448-.968 4.455 4.455 0 0 1 1.72-.32c.453 0 .856.075 1.208.224.352.149.648.357.888.624.24.268.421.59.544.969.123.378.184.794.184 1.248v5.181zm-3.696-.872a2.698 2.698 0 0 0 1.276-.292c.184-.093.36-.207.528-.34.168-.134.332-.285.492-.456v-1.688c-.656.021-1.213.074-1.672.156-.458.083-.832.191-1.12.324-.288.134-.498.291-.628.472-.13.182-.196.385-.196.608 0 .213.035.397.104.552.069.155.163.281.28.38a1.1 1.1 0 0 0 .416.216c.16.046.334.068.52.068zM473.223 450.584v11.784h-1.424v-11.784h1.424zM483.463 455.601a.316.316 0 0 1-.296.176.552.552 0 0 1-.272-.088 6.501 6.501 0 0 0-.372-.196 3.5 3.5 0 0 0-.524-.2 2.48 2.48 0 0 0-.72-.092c-.24 0-.456.03-.648.092s-.356.146-.492.252c-.136.107-.24.231-.312.372a1.002 1.002 0 0 0-.108.46c0 .208.06.382.18.521s.278.259.476.359c.197.102.421.191.672.269.25.077.508.16.772.248s.521.186.772.292c.25.106.475.239.672.399s.356.356.476.588c.12.232.18.511.18.836 0 .374-.067.719-.2 1.036s-.331.593-.592.824a2.862 2.862 0 0 1-.96.548c-.379.134-.816.2-1.312.2a4.091 4.091 0 0 1-1.536-.276 3.888 3.888 0 0 1-1.168-.708l.336-.544a.475.475 0 0 1 .152-.159.422.422 0 0 1 .232-.057c.096 0 .197.037.304.112.106.074.236.157.388.248.152.091.336.173.552.248.216.074.487.111.812.111.277 0 .52-.035.728-.107s.381-.169.52-.292.241-.264.308-.424c.066-.16.1-.331.1-.513 0-.224-.06-.409-.18-.556s-.279-.271-.476-.376a3.854 3.854 0 0 0-.676-.271 65.285 65.285 0 0 1-.776-.244c-.264-.086-.522-.183-.776-.292s-.479-.247-.676-.412a1.85 1.85 0 0 1-.476-.612c-.12-.242-.18-.537-.18-.884a2.164 2.164 0 0 1 .752-1.645c.246-.216.547-.388.904-.516a3.615 3.615 0 0 1 1.224-.192c.534 0 1.012.084 1.436.252.424.169.791.399 1.1.692l-.32.521zM488.223 462.496c-.64 0-1.132-.179-1.476-.536-.344-.357-.516-.872-.516-1.544v-4.96h-.976c-.085 0-.157-.025-.216-.076s-.088-.129-.088-.235v-.568l1.328-.168.328-2.504c.011-.08.045-.146.104-.196s.133-.076.224-.076h.72v2.792h2.32v1.032h-2.32v4.864c0 .341.083.595.248.76a.866.866 0 0 0 .64.248c.149 0 .279-.02.388-.06s.204-.084.284-.133c.08-.048.148-.092.204-.132a.266.266 0 0 1 .148-.06c.075 0 .142.045.2.136l.416.68a2.65 2.65 0 0 1-.888.54 3.01 3.01 0 0 1-1.072.196zM497.687 462.368h-.632a.75.75 0 0 1-.336-.064c-.085-.042-.141-.133-.168-.271l-.16-.752a9.224 9.224 0 0 1-.624.516c-.203.152-.416.28-.64.384a3.251 3.251 0 0 1-.716.236 4.06 4.06 0 0 1-.844.08c-.315 0-.609-.044-.884-.132a1.876 1.876 0 0 1-1.2-1.064 2.333 2.333 0 0 1-.18-.956c0-.319.088-.628.264-.924s.46-.559.852-.788c.392-.229.905-.417 1.54-.563s1.411-.23 2.328-.252v-.632c0-.63-.135-1.105-.404-1.429-.27-.322-.668-.483-1.196-.483-.347 0-.639.044-.876.132s-.443.187-.616.296-.323.208-.448.296a.647.647 0 0 1-.372.132.424.424 0 0 1-.252-.076.573.573 0 0 1-.172-.188l-.256-.456a4.626 4.626 0 0 1 1.448-.968 4.455 4.455 0 0 1 1.72-.32c.453 0 .856.075 1.208.224.352.149.648.357.888.624.24.268.421.59.544.969.123.378.184.794.184 1.248v5.181zm-3.696-.872a2.698 2.698 0 0 0 1.276-.292c.184-.093.36-.207.528-.34.168-.134.332-.285.492-.456v-1.688c-.656.021-1.213.074-1.672.156-.458.083-.832.191-1.12.324-.288.134-.498.291-.628.472-.13.182-.196.385-.196.608 0 .213.035.397.104.552.069.155.163.281.28.38a1.1 1.1 0 0 0 .416.216c.16.046.333.068.52.068zM499.847 462.368v-8.104h.816c.155 0 .261.029.32.088.058.059.099.159.12.304l.097 1.264c.277-.565.619-1.007 1.027-1.324a2.28 2.28 0 0 1 1.436-.476 2.121 2.121 0 0 1 1.113.288l-.185 1.063c-.038.134-.12.2-.248.2-.075 0-.189-.025-.345-.076-.154-.05-.37-.075-.647-.075-.496 0-.911.144-1.243.432-.334.288-.613.707-.837 1.256v5.16h-1.424zM508.751 462.496c-.64 0-1.132-.179-1.476-.536s-.517-.872-.517-1.544v-4.96h-.976c-.086 0-.158-.025-.217-.076s-.088-.129-.088-.235v-.568l1.328-.168.328-2.504c.011-.08.045-.146.104-.196s.134-.076.225-.076h.721v2.792h2.319v1.032h-2.319v4.864c0 .341.082.595.248.76a.864.864 0 0 0 .639.248c.15 0 .279-.02.389-.06s.204-.084.284-.133c.079-.048.147-.092.204-.132a.266.266 0 0 1 .147-.06c.075 0 .142.045.2.136l.416.68c-.245.229-.541.41-.889.54a2.987 2.987 0 0 1-1.07.196zM515.471 454.136c.485 0 .934.082 1.344.244.411.163.766.397 1.064.704s.531.686.699 1.136c.168.451.252.965.252 1.54 0 .225-.023.374-.071.448-.048.075-.139.112-.272.112h-5.392c.011.512.08.957.208 1.336s.305.694.527.948c.225.253.491.442.801.567.309.126.656.188 1.04.188.356 0 .665-.041.924-.124s.481-.172.668-.269c.187-.096.343-.185.468-.268s.233-.124.324-.124a.31.31 0 0 1 .271.136l.4.521c-.176.213-.387.398-.632.556s-.508.287-.788.388a4.96 4.96 0 0 1-.867.229 5.284 5.284 0 0 1-.889.076c-.561 0-1.076-.095-1.548-.284s-.88-.467-1.224-.832a3.798 3.798 0 0 1-.805-1.356c-.191-.538-.288-1.157-.288-1.855 0-.565.087-1.094.261-1.584.173-.491.422-.916.748-1.276.324-.359.723-.643 1.191-.848s.999-.309 1.586-.309zm.032 1.049c-.688 0-1.229.198-1.624.596s-.641.948-.736 1.652h4.408a2.84 2.84 0 0 0-.137-.908 2.008 2.008 0 0 0-.399-.712 1.801 1.801 0 0 0-.644-.464 2.164 2.164 0 0 0-.868-.164zM424.168 481.568v-11.784h1.424v4.769a4.402 4.402 0 0 1 1.152-.885c.421-.221.906-.332 1.456-.332.442 0 .833.074 1.172.221.338.146.621.354.848.624.227.27.398.593.516.972s.176.798.176 1.256v5.16h-1.424v-5.16c0-.613-.14-1.089-.42-1.428-.28-.339-.708-.508-1.284-.508a2.4 2.4 0 0 0-1.18.304 3.906 3.906 0 0 0-1.012.824v5.968h-1.424zM431.784 473.465h1.168c.112 0 .205.029.28.088s.128.128.16.208l2.056 5.216c.075.191.133.384.176.576.043.191.083.381.12.567.042-.187.088-.376.136-.567.048-.192.109-.385.184-.576l2.08-5.216a.471.471 0 0 1 .156-.212.417.417 0 0 1 .268-.084h1.112l-3.304 8.104h-1.288l-3.304-8.104zM444.072 473.336c.592 0 1.126.1 1.604.297.478.197.883.477 1.216.84.333.362.589.801.768 1.315s.268 1.09.268 1.725c0 .64-.089 1.216-.268 1.728s-.435.949-.768 1.313a3.352 3.352 0 0 1-1.216.836 4.224 4.224 0 0 1-1.604.292 4.224 4.224 0 0 1-1.604-.292 3.385 3.385 0 0 1-1.22-.836 3.743 3.743 0 0 1-.776-1.313c-.182-.512-.272-1.088-.272-1.728 0-.635.09-1.21.272-1.725.181-.515.44-.953.776-1.315a3.415 3.415 0 0 1 1.22-.84 4.168 4.168 0 0 1 1.604-.297zm0 7.232c.8 0 1.397-.268 1.792-.804s.592-1.284.592-2.244c0-.966-.197-1.718-.592-2.256-.395-.539-.992-.809-1.792-.809-.406 0-.758.069-1.056.208a1.973 1.973 0 0 0-.748.601c-.2.261-.35.582-.448.964a5.15 5.15 0 0 0-.148 1.292c0 .479.049.909.148 1.288s.248.697.448.956.449.457.748.596c.298.139.651.208 1.056.208zM449.688 481.568v-8.104h.816c.155 0 .261.029.32.088s.099.159.12.304l.096 1.264c.277-.565.62-1.007 1.028-1.324a2.28 2.28 0 0 1 1.436-.476 2.097 2.097 0 0 1 1.112.288l-.184 1.063c-.038.134-.12.2-.248.2-.075 0-.189-.025-.344-.076-.155-.05-.371-.075-.648-.075-.496 0-.911.144-1.244.432-.333.288-.612.707-.836 1.256v5.16h-1.424zM464.928 481.568c-.203 0-.331-.099-.384-.296l-.128-.984a4.28 4.28 0 0 1-1.188 1.013c-.445.253-.956.38-1.532.38-.464 0-.886-.09-1.264-.269a2.621 2.621 0 0 1-.968-.788c-.267-.347-.472-.778-.616-1.296-.144-.517-.216-1.111-.216-1.784 0-.597.08-1.153.24-1.668s.391-.961.692-1.34c.301-.378.668-.676 1.1-.892s.923-.324 1.472-.324c.496 0 .92.084 1.272.252s.667.404.944.708v-4.496h1.424v11.784h-.848zm-2.761-1.04c.464 0 .871-.106 1.22-.32.349-.213.67-.515.964-.903v-3.92c-.261-.353-.548-.599-.86-.74s-.657-.212-1.036-.212c-.757 0-1.339.27-1.744.808-.405.539-.608 1.307-.608 2.304 0 .528.045.98.136 1.356.09.376.224.686.4.928.176.243.392.42.648.532s.55.167.88.167zM469.4 473.465v5.168c0 .613.141 1.088.424 1.424.282.336.709.504 1.28.504.416 0 .808-.099 1.176-.296a3.665 3.665 0 0 0 1.016-.824v-5.976h1.424v8.104h-.848c-.203 0-.331-.099-.384-.296l-.112-.872c-.352.39-.747.703-1.184.94-.438.236-.938.355-1.504.355a2.92 2.92 0 0 1-1.172-.22 2.318 2.318 0 0 1-.852-.62c-.229-.267-.401-.589-.516-.968s-.172-.798-.172-1.256v-5.168h1.424zM483.359 473.336c.485 0 .933.082 1.344.244.411.163.765.397 1.064.704.298.307.532.686.7 1.136.168.451.252.965.252 1.54 0 .225-.024.374-.072.448-.048.075-.139.112-.272.112h-5.392c.011.512.08.957.208 1.336s.304.694.528.948c.224.253.491.442.8.567.309.126.656.188 1.04.188.357 0 .665-.041.924-.124s.481-.172.668-.269c.187-.096.343-.185.468-.268.125-.083.233-.124.324-.124.117 0 .208.045.272.136l.4.521a2.735 2.735 0 0 1-.632.556 3.953 3.953 0 0 1-.788.388 5.273 5.273 0 0 1-1.756.305c-.56 0-1.076-.095-1.548-.284a3.397 3.397 0 0 1-1.224-.832 3.811 3.811 0 0 1-.804-1.356c-.192-.538-.288-1.157-.288-1.855 0-.565.087-1.094.26-1.584.173-.491.422-.916.748-1.276.325-.359.723-.643 1.192-.848s.997-.309 1.584-.309zm.033 1.049c-.688 0-1.229.198-1.624.596-.395.397-.64.948-.736 1.652h4.408a2.87 2.87 0 0 0-.136-.908 2.01 2.01 0 0 0-.4-.712c-.176-.2-.391-.354-.644-.464s-.543-.164-.868-.164zM488.535 481.568v-8.104h.816c.155 0 .261.029.32.088s.099.159.12.304l.096 1.264c.277-.565.62-1.007 1.028-1.324a2.28 2.28 0 0 1 1.436-.476 2.097 2.097 0 0 1 1.112.288l-.184 1.063c-.038.134-.12.2-.248.2-.075 0-.189-.025-.344-.076-.155-.05-.371-.075-.648-.075-.496 0-.911.144-1.244.432-.333.288-.612.707-.836 1.256v5.16h-1.424zM523.438 445.554l10.224-17.189-1.721-1.023 5.135-2.764.024 5.831-1.719-1.022-10.225 17.189zM21.92 58.249h4.96v1.304h-6.512V48.089h1.552v10.16zM30.272 48.905a.905.905 0 0 1-.084.388 1.1 1.1 0 0 1-.548.54c-.123.054-.253.08-.392.08s-.268-.026-.388-.08a1.063 1.063 0 0 1-.54-.54.99.99 0 0 1 0-.784c.053-.125.126-.235.22-.328s.2-.167.32-.22c.12-.053.249-.08.388-.08s.27.027.392.08.23.126.324.22c.093.093.168.203.224.328a.942.942 0 0 1 .084.396zm-.319 2.544v8.104h-1.424v-8.104h1.424zM31.44 51.449h1.168c.112 0 .205.029.28.088a.498.498 0 0 1 .16.208l2.056 5.216c.075.192.133.384.176.576.043.192.083.381.12.568.042-.187.088-.376.136-.568.048-.192.109-.384.184-.576l2.08-5.216a.477.477 0 0 1 .156-.212.423.423 0 0 1 .268-.084h1.112l-3.304 8.104h-1.288l-3.304-8.104zM45.296 52.785a.315.315 0 0 1-.296.176.552.552 0 0 1-.272-.088 6.501 6.501 0 0 0-.372-.196 3.5 3.5 0 0 0-.524-.2 2.515 2.515 0 0 0-.72-.092c-.24 0-.456.031-.648.092a1.584 1.584 0 0 0-.492.252c-.136.107-.24.231-.312.372a1.002 1.002 0 0 0-.108.46c0 .208.06.381.18.52s.278.259.476.36c.197.101.421.19.672.268.25.078.508.16.772.248s.521.186.772.292c.25.107.475.24.672.4.197.16.356.356.476.588s.18.511.18.836c0 .374-.067.719-.2 1.036s-.331.592-.592.824a2.862 2.862 0 0 1-.96.548c-.379.133-.816.2-1.312.2a4.091 4.091 0 0 1-1.536-.276 3.888 3.888 0 0 1-1.168-.708l.336-.544a.478.478 0 0 1 .152-.16.43.43 0 0 1 .232-.056c.096 0 .197.038.304.112.106.075.236.157.388.248.152.091.336.173.552.248s.487.112.812.112c.277 0 .52-.036.728-.108.208-.072.381-.169.52-.292s.241-.264.308-.424c.066-.16.1-.331.1-.512a.85.85 0 0 0-.18-.556c-.12-.146-.279-.272-.476-.376s-.423-.194-.676-.272a50.909 50.909 0 0 1-.776-.244 8.824 8.824 0 0 1-.776-.292 2.728 2.728 0 0 1-.676-.412c-.198-.166-.356-.37-.476-.612s-.18-.537-.18-.884c0-.31.064-.607.192-.892.128-.285.315-.536.56-.752.246-.216.547-.388.904-.516a3.615 3.615 0 0 1 1.224-.192c.534 0 1.012.084 1.436.252a3.4 3.4 0 0 1 1.1.692l-.32.52zM49.08 47.769v6.936h.368c.106 0 .194-.015.264-.044s.147-.089.232-.18l2.56-2.744c.08-.085.16-.155.24-.208s.187-.08.32-.08h1.296l-2.984 3.176a2.79 2.79 0 0 1-.22.24 1.29 1.29 0 0 1-.244.184c.096.064.183.137.26.22.077.083.15.178.22.284l3.168 4h-1.28a.608.608 0 0 1-.3-.068.78.78 0 0 1-.236-.212l-2.664-3.32a.624.624 0 0 0-.24-.22.944.944 0 0 0-.36-.052h-.4v3.872h-1.432V47.769h1.432zM54.96 51.449h1.168c.112 0 .205.029.28.088a.498.498 0 0 1 .16.208l2.056 5.216c.075.192.133.384.176.576.043.192.083.381.12.568.042-.187.088-.376.136-.568.048-.192.109-.384.184-.576l2.08-5.216a.477.477 0 0 1 .156-.212.423.423 0 0 1 .268-.084h1.112l-3.304 8.104h-1.288l-3.304-8.104zM70.128 59.553h-.632c-.139 0-.25-.021-.336-.064s-.141-.133-.168-.272l-.16-.752a8.933 8.933 0 0 1-.624.516c-.203.152-.416.28-.64.384s-.463.183-.716.236a4.13 4.13 0 0 1-.844.08c-.315 0-.609-.044-.884-.132a1.884 1.884 0 0 1-1.2-1.064c-.12-.27-.18-.588-.18-.956 0-.32.088-.628.264-.924.176-.296.46-.559.852-.788.392-.229.905-.417 1.54-.564.635-.147 1.411-.231 2.328-.252v-.632c0-.629-.135-1.105-.404-1.428s-.668-.484-1.196-.484c-.347 0-.639.044-.876.132s-.443.187-.616.296-.323.208-.448.296a.647.647 0 0 1-.372.132.424.424 0 0 1-.252-.076.583.583 0 0 1-.172-.188l-.256-.456a4.626 4.626 0 0 1 1.448-.968 4.473 4.473 0 0 1 1.72-.32c.453 0 .856.075 1.208.224s.648.357.888.624.421.589.544.968c.123.379.184.795.184 1.248v5.184zm-3.696-.872a2.698 2.698 0 0 0 1.276-.292c.184-.093.36-.207.528-.34s.332-.285.492-.456v-1.688c-.656.021-1.213.073-1.672.156-.458.083-.832.191-1.12.324-.288.133-.498.291-.628.472a1.02 1.02 0 0 0-.196.608c0 .213.035.397.104.552a1.038 1.038 0 0 0 .696.596c.16.045.333.068.52.068zM73.872 47.769v11.784h-1.424V47.769h1.424zM78.287 48.905a.905.905 0 0 1-.084.388 1.1 1.1 0 0 1-.548.54c-.123.054-.253.08-.392.08s-.268-.026-.388-.08a1.063 1.063 0 0 1-.54-.54.99.99 0 0 1 0-.784c.053-.125.126-.235.22-.328s.2-.167.32-.22c.12-.053.249-.08.388-.08s.27.027.392.08.23.126.324.22c.093.093.168.203.224.328a.958.958 0 0 1 .084.396zm-.32 2.544v8.104h-1.424v-8.104h1.424zM82.935 59.681c-.64 0-1.132-.179-1.476-.536-.344-.357-.516-.872-.516-1.544v-4.96h-.976c-.085 0-.157-.025-.216-.076s-.088-.129-.088-.236v-.568l1.328-.168.328-2.504a.301.301 0 0 1 .104-.196.334.334 0 0 1 .224-.076h.72v2.792h2.32v1.032h-2.32v4.864c0 .341.083.595.248.76a.862.862 0 0 0 .64.248c.149 0 .279-.02.388-.06s.204-.084.284-.132c.08-.048.148-.092.204-.132a.266.266 0 0 1 .148-.06c.075 0 .142.045.2.136l.416.68a2.667 2.667 0 0 1-.888.54c-.347.13-.704.196-1.072.196zM89.655 51.321c.485 0 .933.082 1.344.244.411.163.765.397 1.064.704.298.307.532.686.7 1.136s.252.964.252 1.54c0 .224-.024.373-.072.448s-.139.112-.272.112h-5.392c.011.512.08.957.208 1.336s.304.695.528.948c.224.253.491.443.8.568.309.125.656.188 1.04.188.357 0 .665-.042.924-.124a4.43 4.43 0 0 0 1.136-.536c.125-.083.233-.124.324-.124.117 0 .208.045.272.136l.4.52a2.712 2.712 0 0 1-.632.556 3.953 3.953 0 0 1-.788.388c-.28.101-.569.177-.868.228-.299.05-.595.076-.888.076-.56 0-1.076-.095-1.548-.284a3.397 3.397 0 0 1-1.224-.832c-.344-.365-.612-.817-.804-1.356s-.288-1.157-.288-1.856c0-.565.087-1.093.26-1.584s.422-.916.748-1.276a3.44 3.44 0 0 1 1.192-.848c.469-.206.997-.308 1.584-.308zm.032 1.048c-.688 0-1.229.199-1.624.596-.395.397-.64.948-.736 1.652h4.408c0-.331-.045-.633-.136-.908a2.019 2.019 0 0 0-.4-.712c-.176-.2-.391-.354-.644-.464s-.543-.164-.868-.164zM97.287 59.681c-.64 0-1.132-.179-1.476-.536-.344-.357-.516-.872-.516-1.544v-4.96h-.976c-.085 0-.157-.025-.216-.076s-.088-.129-.088-.236v-.568l1.328-.168.328-2.504a.301.301 0 0 1 .104-.196.334.334 0 0 1 .224-.076h.72v2.792h2.32v1.032h-2.32v4.864c0 .341.083.595.248.76a.862.862 0 0 0 .64.248c.149 0 .279-.02.388-.06s.204-.084.284-.132c.08-.048.148-.092.204-.132a.266.266 0 0 1 .148-.06c.075 0 .142.045.2.136l.416.68a2.667 2.667 0 0 1-.888.54c-.347.13-.704.196-1.072.196zM104.006 59.721a.839.839 0 0 1-.784.552h-.6l4.808-11.976a.86.86 0 0 1 .296-.392.766.766 0 0 1 .456-.136h.6l-4.776 11.952zM27.433 67.289v1.264h-5.504v3.808h4.456v1.216h-4.456v3.912h5.504v1.264h-7.064V67.289h7.064zM29.44 78.753v-8.104h.848c.203 0 .331.099.384.296l.112.88a4.556 4.556 0 0 1 1.18-.944c.435-.24.938-.36 1.508-.36.442 0 .833.073 1.172.22.338.147.621.355.848.624.227.27.398.594.516.972.117.379.176.797.176 1.256v5.16H34.76v-5.16c0-.613-.14-1.089-.42-1.428-.28-.339-.708-.508-1.284-.508-.421 0-.815.102-1.18.304s-.703.478-1.012.824v5.968H29.44zM41.544 70.521c.485 0 .933.082 1.344.244.411.163.765.397 1.064.704.298.307.532.686.7 1.136s.252.964.252 1.54c0 .224-.024.373-.072.448s-.139.112-.272.112h-5.392c.011.512.08.957.208 1.336s.304.695.528.948c.224.253.491.443.8.568.309.125.656.188 1.04.188.357 0 .665-.042.924-.124a4.43 4.43 0 0 0 1.136-.536c.125-.083.233-.124.324-.124.117 0 .208.045.272.136l.4.52a2.712 2.712 0 0 1-.632.556 3.953 3.953 0 0 1-.788.388c-.28.101-.569.177-.868.228-.299.05-.595.076-.888.076-.56 0-1.076-.095-1.548-.284a3.397 3.397 0 0 1-1.224-.832c-.344-.365-.612-.817-.804-1.356s-.288-1.157-.288-1.856c0-.565.087-1.093.26-1.584s.422-.916.748-1.276a3.44 3.44 0 0 1 1.192-.848c.47-.205.998-.308 1.584-.308zm.033 1.048c-.688 0-1.229.199-1.624.596-.395.397-.64.948-.736 1.652h4.408c0-.331-.045-.633-.136-.908a2.019 2.019 0 0 0-.4-.712c-.176-.2-.391-.354-.644-.464s-.543-.164-.868-.164zM46.72 78.753v-8.104h.816c.155 0 .261.029.32.088s.099.16.12.304l.096 1.264c.277-.565.62-1.006 1.028-1.324a2.274 2.274 0 0 1 1.436-.476 2.097 2.097 0 0 1 1.112.288l-.184 1.064c-.038.133-.12.2-.248.2-.075 0-.189-.025-.344-.076s-.371-.076-.648-.076c-.496 0-.911.144-1.244.432-.333.288-.612.707-.836 1.256v5.16H46.72zM55.896 70.513c.352 0 .681.039.988.116.307.078.585.191.836.34h2.2v.528c0 .176-.112.288-.336.336l-.92.128c.181.347.272.733.272 1.16 0 .395-.076.753-.228 1.076a2.439 2.439 0 0 1-.632.828c-.27.229-.589.405-.96.528a3.854 3.854 0 0 1-1.22.184c-.379 0-.736-.045-1.072-.136-.171.106-.3.221-.388.344a.62.62 0 0 0-.132.36c0 .192.077.337.232.436.154.099.36.169.616.212.256.042.547.069.872.08.325.011.657.028.996.052.338.024.67.065.996.124.325.059.616.155.872.288.256.133.461.317.616.552.155.235.232.539.232.912 0 .347-.086.683-.26 1.008s-.423.615-.748.868-.723.456-1.192.608c-.47.152-1 .228-1.592.228a6.156 6.156 0 0 1-1.556-.176c-.446-.118-.815-.275-1.108-.472a2.057 2.057 0 0 1-.66-.684 1.62 1.62 0 0 1-.22-.812c0-.4.127-.74.38-1.02s.602-.502 1.044-.668a1.424 1.424 0 0 1-.548-.428c-.136-.179-.204-.417-.204-.716 0-.117.021-.238.064-.364.042-.125.108-.25.196-.372a2.112 2.112 0 0 1 .772-.648 2.522 2.522 0 0 1-.94-.892c-.227-.371-.34-.804-.34-1.3 0-.395.076-.753.228-1.076a2.38 2.38 0 0 1 .636-.824c.272-.227.596-.401.972-.524a3.965 3.965 0 0 1 1.236-.184zm2.528 8.68a.696.696 0 0 0-.168-.488 1.085 1.085 0 0 0-.456-.284 3.35 3.35 0 0 0-.664-.148 9.955 9.955 0 0 0-.792-.068c-.278-.013-.56-.028-.848-.044a7.705 7.705 0 0 1-.824-.088c-.304.144-.551.32-.74.528a1.07 1.07 0 0 0-.144 1.252c.093.157.236.293.428.408.192.115.434.206.724.272.291.067.633.1 1.028.1.384 0 .728-.035 1.032-.104s.561-.168.772-.296c.21-.128.372-.28.484-.456.113-.176.168-.371.168-.584zm-2.528-4.4c.288 0 .542-.04.764-.12.221-.08.406-.192.556-.336s.261-.316.336-.516c.075-.2.112-.42.112-.66 0-.496-.151-.891-.452-1.184s-.74-.44-1.316-.44c-.571 0-1.007.146-1.308.44s-.452.688-.452 1.184c0 .24.039.46.116.66.077.2.19.372.34.516s.333.256.552.336.47.12.752.12zM63.248 68.105a.905.905 0 0 1-.084.388 1.1 1.1 0 0 1-.548.54c-.123.054-.253.08-.392.08s-.268-.026-.388-.08a1.063 1.063 0 0 1-.54-.54.99.99 0 0 1 0-.784c.053-.125.126-.235.22-.328s.2-.167.32-.22c.12-.053.249-.08.388-.08s.27.027.392.08.23.126.324.22c.093.093.168.203.224.328a.958.958 0 0 1 .084.396zm-.32 2.544v8.104h-1.424v-8.104h1.424zM65.44 78.753v-8.104h.848c.203 0 .331.099.384.296l.112.88a4.556 4.556 0 0 1 1.18-.944c.435-.24.938-.36 1.508-.36.442 0 .833.073 1.172.22.338.147.621.355.848.624.227.27.398.594.516.972.117.379.176.797.176 1.256v5.16H70.76v-5.16c0-.613-.14-1.089-.42-1.428-.28-.339-.708-.508-1.284-.508-.421 0-.815.102-1.18.304s-.703.478-1.012.824v5.968H65.44zM76.24 68.105a.905.905 0 0 1-.084.388 1.1 1.1 0 0 1-.548.54c-.123.054-.253.08-.392.08s-.268-.026-.388-.08a1.063 1.063 0 0 1-.54-.54.99.99 0 0 1 0-.784c.053-.125.126-.235.22-.328s.2-.167.32-.22c.12-.053.249-.08.388-.08s.27.027.392.08.23.126.324.22c.093.093.168.203.224.328a.958.958 0 0 1 .084.396zm-.32 2.544v8.104h-1.424v-8.104h1.424zM77.408 70.649h1.168c.112 0 .205.029.28.088a.498.498 0 0 1 .16.208l2.056 5.216c.075.192.133.384.176.576.043.192.083.381.12.568.042-.187.088-.376.136-.568.048-.192.109-.384.184-.576l2.08-5.216a.477.477 0 0 1 .156-.212.423.423 0 0 1 .268-.084h1.112L82 78.753h-1.288l-3.304-8.104zM89.625 70.521c.485 0 .933.082 1.344.244.411.163.765.397 1.064.704.298.307.532.686.7 1.136s.252.964.252 1.54c0 .224-.024.373-.072.448s-.139.112-.272.112h-5.392c.011.512.08.957.208 1.336s.304.695.528.948c.224.253.491.443.8.568.309.125.656.188 1.04.188.357 0 .665-.042.924-.124a4.43 4.43 0 0 0 1.136-.536c.125-.083.233-.124.324-.124.117 0 .208.045.272.136l.4.52a2.712 2.712 0 0 1-.632.556 3.953 3.953 0 0 1-.788.388c-.28.101-.569.177-.868.228-.299.05-.595.076-.888.076-.56 0-1.076-.095-1.548-.284a3.397 3.397 0 0 1-1.224-.832c-.344-.365-.612-.817-.804-1.356s-.288-1.157-.288-1.856c0-.565.087-1.093.26-1.584s.422-.916.748-1.276a3.44 3.44 0 0 1 1.192-.848 3.916 3.916 0 0 1 1.584-.308zm.032 1.048c-.688 0-1.229.199-1.624.596-.395.397-.64.948-.736 1.652h4.408c0-.331-.045-.633-.136-.908a2.019 2.019 0 0 0-.4-.712c-.176-.2-.391-.354-.644-.464s-.543-.164-.868-.164zM100.752 78.753h-.632c-.139 0-.25-.021-.336-.064s-.141-.133-.168-.272l-.16-.752a8.933 8.933 0 0 1-.624.516c-.203.152-.416.28-.64.384s-.463.183-.716.236a4.13 4.13 0 0 1-.844.08c-.315 0-.609-.044-.884-.132a1.884 1.884 0 0 1-1.2-1.064c-.12-.27-.18-.588-.18-.956 0-.32.088-.628.264-.924.176-.296.46-.559.852-.788.392-.229.905-.417 1.54-.564.635-.147 1.411-.231 2.328-.252v-.632c0-.629-.135-1.105-.404-1.428s-.668-.484-1.196-.484c-.347 0-.639.044-.876.132s-.443.187-.616.296-.323.208-.448.296a.647.647 0 0 1-.372.132.424.424 0 0 1-.252-.076.583.583 0 0 1-.172-.188l-.256-.456a4.626 4.626 0 0 1 1.448-.968 4.473 4.473 0 0 1 1.72-.32c.453 0 .856.075 1.208.224s.648.357.888.624.421.589.544.968c.123.379.184.795.184 1.248v5.184zm-3.696-.872a2.698 2.698 0 0 0 1.276-.292c.184-.093.36-.207.528-.34s.332-.285.492-.456v-1.688c-.656.021-1.213.073-1.672.156-.458.083-.832.191-1.12.324-.288.133-.498.291-.628.472a1.02 1.02 0 0 0-.196.608c0 .213.035.397.104.552a1.038 1.038 0 0 0 .696.596c.16.045.334.068.52.068zM104.144 70.649v5.168c0 .613.141 1.088.424 1.424.282.336.709.504 1.28.504.416 0 .808-.099 1.176-.296a3.647 3.647 0 0 0 1.016-.824v-5.976h1.424v8.104h-.848c-.203 0-.331-.099-.384-.296l-.112-.872c-.352.389-.747.703-1.184.94s-.938.356-1.504.356a2.92 2.92 0 0 1-1.172-.22 2.33 2.33 0 0 1-.852-.62 2.643 2.643 0 0 1-.516-.968 4.305 4.305 0 0 1-.172-1.256v-5.168h1.424z"/></svg>