<?xml version="1.0" encoding="utf-8"?>
<!-- Generator: Adobe Illustrator 16.0.3, SVG Export Plug-In . SVG Version: 6.00 Build 0)  -->
<!DOCTYPE svg PUBLIC "-//W3C//DTD SVG 1.1//EN" "http://www.w3.org/Graphics/SVG/1.1/DTD/svg11.dtd">
<svg version="1.1" id="Layer_1" xmlns="http://www.w3.org/2000/svg" xmlns:xlink="http://www.w3.org/1999/xlink" x="0px" y="0px"
	 width="520px" height="480px" viewBox="0 0 520 480" enable-background="new 0 0 520 480" xml:space="preserve">
<circle fill="#FFFFFF" stroke="#231F20" stroke-miterlimit="10" cx="260" cy="240" r="60"/>
<g>
	<path d="M216.558,233.585v1.422h-6.192v4.284h5.013v1.368h-5.013v4.401h6.192v1.422h-7.947v-12.897H216.558z"/>
	<path d="M227.853,233.585v1.467h-4.167v11.43h-1.746v-11.43h-4.185v-1.467H227.853z"/>
	<path d="M238.914,245.213c0.348,0,0.667-0.016,0.958-0.049s0.565-0.082,0.824-0.148c0.258-0.066,0.501-0.146,0.729-0.238
		c0.228-0.094,0.456-0.199,0.684-0.32v-2.844h-1.998c-0.114,0-0.206-0.033-0.275-0.099c-0.069-0.066-0.103-0.147-0.103-0.243v-0.99
		h3.96v4.95c-0.324,0.233-0.662,0.438-1.013,0.612s-0.726,0.319-1.125,0.436c-0.399,0.117-0.827,0.205-1.283,0.262
		s-0.951,0.086-1.485,0.086c-0.936,0-1.794-0.161-2.574-0.482c-0.78-0.32-1.452-0.771-2.016-1.35s-1.003-1.273-1.318-2.084
		c-0.315-0.81-0.473-1.701-0.473-2.672c0-0.984,0.154-1.881,0.463-2.691c0.309-0.81,0.75-1.505,1.323-2.083
		c0.573-0.579,1.266-1.028,2.079-1.346s1.724-0.477,2.732-0.477c0.51,0,0.984,0.038,1.422,0.112
		c0.438,0.075,0.844,0.183,1.219,0.324s0.722,0.312,1.04,0.513c0.318,0.201,0.615,0.427,0.891,0.679l-0.495,0.792
		c-0.102,0.162-0.234,0.243-0.396,0.243c-0.096,0-0.201-0.033-0.315-0.099c-0.15-0.084-0.318-0.186-0.504-0.306
		c-0.186-0.12-0.413-0.235-0.68-0.346s-0.582-0.206-0.945-0.284c-0.363-0.078-0.793-0.117-1.292-0.117
		c-0.726,0-1.383,0.118-1.971,0.355c-0.588,0.237-1.089,0.576-1.503,1.017c-0.414,0.441-0.732,0.975-0.954,1.602
		c-0.222,0.627-0.333,1.331-0.333,2.111c0,0.816,0.116,1.543,0.347,2.182s0.557,1.181,0.977,1.625
		c0.42,0.443,0.918,0.783,1.494,1.017C237.582,245.096,238.218,245.213,238.914,245.213z"/>
	<path d="M258.354,240.039c0,0.965-0.153,1.852-0.459,2.659c-0.306,0.808-0.738,1.502-1.296,2.084s-1.229,1.033-2.012,1.354
		c-0.783,0.321-1.648,0.481-2.596,0.481c-0.948,0-1.812-0.16-2.592-0.481c-0.78-0.321-1.449-0.772-2.007-1.354
		s-0.99-1.276-1.296-2.084c-0.306-0.807-0.459-1.693-0.459-2.659c0-0.966,0.153-1.853,0.459-2.66
		c0.306-0.807,0.738-1.503,1.296-2.088s1.227-1.04,2.007-1.364c0.78-0.324,1.644-0.486,2.592-0.486c0.948,0,1.813,0.162,2.596,0.486
		c0.783,0.324,1.454,0.779,2.012,1.364s0.99,1.281,1.296,2.088S258.354,239.072,258.354,240.039z M256.563,240.039
		c0-0.792-0.108-1.503-0.324-2.133c-0.216-0.63-0.522-1.162-0.918-1.597s-0.876-0.77-1.44-1.004
		c-0.564-0.234-1.194-0.351-1.89-0.351c-0.69,0-1.317,0.117-1.881,0.351c-0.564,0.234-1.045,0.569-1.444,1.004
		s-0.707,0.967-0.922,1.597c-0.216,0.63-0.324,1.341-0.324,2.133s0.108,1.501,0.324,2.128c0.216,0.627,0.523,1.158,0.922,1.593
		c0.399,0.436,0.88,0.768,1.444,0.999s1.191,0.347,1.881,0.347c0.696,0,1.326-0.115,1.89-0.347s1.044-0.563,1.44-0.999
		c0.396-0.435,0.702-0.966,0.918-1.593C256.455,241.54,256.563,240.831,256.563,240.039z"/>
	<path d="M271.916,240.039c0,0.965-0.152,1.844-0.459,2.637c-0.306,0.791-0.738,1.47-1.296,2.033
		c-0.558,0.564-1.228,1.001-2.007,1.311c-0.779,0.309-1.645,0.463-2.592,0.463h-4.824v-12.897h4.824
		c0.947,0,1.813,0.154,2.592,0.463s1.449,0.747,2.007,1.314s0.99,1.247,1.296,2.039
		C271.764,238.193,271.916,239.072,271.916,240.039z M270.125,240.039c0-0.792-0.107-1.5-0.324-2.124
		c-0.215-0.624-0.521-1.152-0.918-1.584c-0.396-0.432-0.875-0.762-1.439-0.99s-1.191-0.342-1.881-0.342h-3.069v10.071h3.069
		c0.689,0,1.316-0.114,1.881-0.342s1.044-0.557,1.439-0.985c0.396-0.43,0.703-0.955,0.918-1.58
		C270.018,241.539,270.125,240.831,270.125,240.039z"/>
	<path d="M282.194,233.585v1.467h-4.167v11.43h-1.746v-11.43h-4.186v-1.467H282.194z"/>
	<path d="M289.25,245.016h5.58v1.467h-7.326v-12.897h1.746V245.016z"/>
	<path d="M298.826,246.482h-1.746v-12.897h1.746V246.482z"/>
	<path d="M300.788,233.585h1.396c0.156,0,0.281,0.039,0.378,0.117c0.096,0.078,0.167,0.177,0.216,0.297l3.645,9.099
		c0.084,0.204,0.16,0.426,0.23,0.666c0.068,0.239,0.136,0.489,0.202,0.747c0.054-0.258,0.112-0.508,0.175-0.747
		c0.063-0.24,0.137-0.462,0.221-0.666l3.627-9.099c0.043-0.102,0.114-0.197,0.217-0.284c0.102-0.087,0.228-0.13,0.377-0.13h1.404
		l-5.256,12.897h-1.574L300.788,233.585z"/>
</g>
<circle fill="none" stroke="#231F20" stroke-miterlimit="10" cx="260" cy="240" r="90"/>
<circle fill="none" stroke="#231F20" stroke-miterlimit="10" cx="260" cy="240" r="120"/>
<path fill="none" stroke="#231F20" stroke-miterlimit="10" d="M410,240c0,82.84-67.157,150-150,150s-150-67.16-150-150
	S177.157,90,260,90S410,157.16,410,240z"/>
<path fill="none" stroke="#231F20" stroke-miterlimit="10" d="M440,240c0,99.408-80.587,180-179.998,180S80,339.408,80,240
	S160.591,60,260.002,60S440,140.592,440,240z"/>
<line fill="none" stroke="#231F20" stroke-miterlimit="10" x1="320" y1="240" x2="520" y2="240"/>
<line fill="none" stroke="#231F20" stroke-miterlimit="10" x1="0" y1="240" x2="200" y2="240"/>
<line fill="none" stroke="#231F20" stroke-miterlimit="10" x1="260" y1="0" x2="260" y2="180"/>
<line fill="none" stroke="#231F20" stroke-miterlimit="10" x1="260" y1="300" x2="260" y2="480"/>
<g>
	<path d="M429.393,54.329v1.264h-5.504v4.008h4.703v1.264h-4.703v4.928h-1.561V54.329H429.393z"/>
	<path d="M430.68,65.792v-8.104h0.816c0.154,0,0.26,0.029,0.318,0.088c0.059,0.059,0.1,0.16,0.121,0.304l0.096,1.264
		c0.277-0.565,0.619-1.006,1.027-1.324s0.887-0.476,1.438-0.476c0.223,0,0.426,0.025,0.607,0.076s0.35,0.121,0.504,0.212
		l-0.184,1.064c-0.037,0.133-0.121,0.2-0.248,0.2c-0.076,0-0.189-0.025-0.344-0.076c-0.156-0.051-0.371-0.076-0.648-0.076
		c-0.496,0-0.91,0.144-1.244,0.432s-0.611,0.707-0.836,1.256v5.16H430.68z"/>
	<path d="M439.033,55.145c0,0.139-0.029,0.268-0.084,0.388c-0.057,0.12-0.131,0.227-0.225,0.32s-0.201,0.167-0.324,0.22
		c-0.123,0.054-0.254,0.08-0.393,0.08s-0.268-0.026-0.387-0.08c-0.121-0.053-0.227-0.126-0.32-0.22s-0.168-0.2-0.221-0.32
		c-0.053-0.12-0.08-0.25-0.08-0.388s0.027-0.271,0.08-0.396s0.127-0.235,0.221-0.328s0.199-0.167,0.32-0.22
		c0.119-0.053,0.248-0.08,0.387-0.08s0.27,0.027,0.393,0.08s0.23,0.126,0.324,0.22s0.168,0.203,0.225,0.328
		C439.004,54.874,439.033,55.006,439.033,55.145z M438.713,57.688v8.104h-1.424v-8.104H438.713z"/>
	<path d="M443.68,65.92c-0.639,0-1.131-0.179-1.475-0.536c-0.346-0.357-0.518-0.872-0.518-1.544v-4.96h-0.975
		c-0.086,0-0.158-0.025-0.217-0.076s-0.088-0.129-0.088-0.236V58l1.328-0.168l0.328-2.504c0.01-0.08,0.045-0.146,0.104-0.196
		c0.059-0.05,0.133-0.076,0.225-0.076h0.719v2.792h2.32v1.032h-2.32v4.864c0,0.341,0.084,0.595,0.248,0.76
		c0.166,0.166,0.379,0.248,0.641,0.248c0.148,0,0.279-0.02,0.389-0.06s0.203-0.084,0.283-0.132s0.148-0.092,0.205-0.132
		c0.055-0.04,0.104-0.06,0.146-0.06c0.076,0,0.143,0.045,0.201,0.136l0.416,0.68c-0.246,0.229-0.541,0.409-0.889,0.54
		C444.406,65.855,444.049,65.92,443.68,65.92z"/>
	<path d="M449.096,55.145c0,0.139-0.029,0.268-0.084,0.388c-0.057,0.12-0.131,0.227-0.225,0.32s-0.201,0.167-0.324,0.22
		c-0.123,0.054-0.254,0.08-0.393,0.08s-0.268-0.026-0.387-0.08c-0.121-0.053-0.227-0.126-0.32-0.22s-0.168-0.2-0.221-0.32
		c-0.053-0.12-0.08-0.25-0.08-0.388s0.027-0.271,0.08-0.396s0.127-0.235,0.221-0.328s0.199-0.167,0.32-0.22
		c0.119-0.053,0.248-0.08,0.387-0.08s0.27,0.027,0.393,0.08s0.23,0.126,0.324,0.22s0.168,0.203,0.225,0.328
		C449.066,54.874,449.096,55.006,449.096,55.145z M448.775,57.688v8.104h-1.424v-8.104H448.775z"/>
	<path d="M456.99,65.792c-0.203,0-0.33-0.099-0.383-0.296l-0.129-0.984c-0.346,0.421-0.742,0.758-1.188,1.012
		s-0.957,0.38-1.533,0.38c-0.463,0-0.885-0.089-1.264-0.268c-0.379-0.179-0.701-0.441-0.967-0.788
		c-0.268-0.347-0.473-0.779-0.617-1.296c-0.143-0.517-0.215-1.112-0.215-1.784c0-0.597,0.08-1.153,0.24-1.668
		c0.158-0.515,0.391-0.961,0.691-1.34c0.301-0.378,0.668-0.676,1.1-0.892c0.432-0.216,0.922-0.324,1.473-0.324
		c0.496,0,0.92,0.084,1.271,0.252s0.666,0.404,0.943,0.708v-4.496h1.424v11.784H456.99z M454.23,64.752
		c0.465,0,0.871-0.106,1.221-0.32s0.67-0.515,0.963-0.904v-3.92c-0.262-0.352-0.547-0.599-0.859-0.74
		c-0.313-0.142-0.658-0.212-1.035-0.212c-0.758,0-1.34,0.27-1.744,0.808c-0.406,0.539-0.609,1.307-0.609,2.304
		c0,0.528,0.045,0.98,0.137,1.356c0.09,0.376,0.225,0.686,0.4,0.928c0.176,0.243,0.391,0.42,0.648,0.532
		C453.607,64.696,453.9,64.752,454.23,64.752z"/>
</g>
<g>
	<path d="M46.305,60.674v4.784H44.76V53.995H48c0.725,0,1.352,0.073,1.88,0.22c0.528,0.147,0.964,0.359,1.308,0.636
		c0.344,0.277,0.599,0.612,0.764,1.004c0.165,0.392,0.248,0.831,0.248,1.316c0,0.405-0.064,0.784-0.192,1.136
		c-0.128,0.352-0.313,0.668-0.556,0.948c-0.243,0.28-0.539,0.519-0.888,0.716s-0.745,0.347-1.188,0.448
		c0.192,0.112,0.363,0.275,0.512,0.488l3.344,4.552h-1.376c-0.283,0-0.491-0.109-0.624-0.328l-2.976-4.096
		c-0.091-0.128-0.189-0.22-0.296-0.276c-0.107-0.056-0.267-0.084-0.48-0.084H46.305z M46.305,59.546h1.624
		c0.453,0,0.852-0.055,1.196-0.164c0.344-0.109,0.632-0.264,0.864-0.464c0.232-0.2,0.407-0.438,0.524-0.716
		c0.117-0.277,0.176-0.584,0.176-0.92c0-0.683-0.226-1.197-0.676-1.544c-0.451-0.346-1.122-0.52-2.012-0.52h-1.696V59.546z"/>
	<path d="M57.888,57.227c0.485,0,0.933,0.082,1.344,0.244c0.411,0.163,0.765,0.397,1.064,0.704c0.298,0.307,0.532,0.686,0.7,1.136
		s0.252,0.964,0.252,1.54c0,0.224-0.024,0.373-0.072,0.448s-0.139,0.112-0.272,0.112h-5.392c0.011,0.512,0.08,0.957,0.208,1.336
		s0.304,0.695,0.528,0.948c0.224,0.253,0.491,0.443,0.8,0.568c0.309,0.125,0.656,0.188,1.04,0.188c0.357,0,0.665-0.042,0.924-0.124
		c0.259-0.083,0.481-0.172,0.668-0.268c0.187-0.096,0.343-0.186,0.468-0.268c0.125-0.083,0.233-0.124,0.324-0.124
		c0.117,0,0.208,0.045,0.272,0.136l0.4,0.52c-0.176,0.213-0.387,0.399-0.632,0.556c-0.246,0.157-0.508,0.287-0.788,0.388
		c-0.28,0.101-0.569,0.177-0.868,0.228c-0.299,0.05-0.595,0.076-0.888,0.076c-0.56,0-1.076-0.095-1.548-0.284
		c-0.472-0.189-0.88-0.467-1.224-0.832c-0.344-0.365-0.612-0.817-0.804-1.356s-0.288-1.157-0.288-1.856
		c0-0.565,0.087-1.093,0.26-1.584s0.422-0.916,0.748-1.276c0.325-0.36,0.723-0.643,1.192-0.848
		C56.773,57.329,57.301,57.227,57.888,57.227z M57.92,58.274c-0.688,0-1.229,0.199-1.624,0.596c-0.395,0.397-0.64,0.948-0.736,1.652
		h4.408c0-0.331-0.045-0.633-0.136-0.908c-0.09-0.274-0.224-0.512-0.4-0.712c-0.176-0.2-0.391-0.354-0.644-0.464
		S58.246,58.274,57.92,58.274z"/>
	<path d="M64.648,53.674v11.784h-1.424V53.674H64.648z"/>
	<path d="M73.112,65.458h-0.632c-0.139,0-0.25-0.021-0.336-0.064s-0.141-0.133-0.168-0.272l-0.16-0.752
		c-0.213,0.192-0.421,0.364-0.624,0.516c-0.203,0.152-0.416,0.28-0.64,0.384s-0.463,0.183-0.716,0.236
		c-0.253,0.053-0.535,0.08-0.844,0.08c-0.315,0-0.609-0.044-0.884-0.132c-0.275-0.088-0.514-0.22-0.716-0.396
		c-0.203-0.176-0.364-0.399-0.484-0.668c-0.12-0.27-0.18-0.588-0.18-0.956c0-0.32,0.088-0.628,0.264-0.924
		c0.176-0.296,0.46-0.559,0.852-0.788c0.392-0.229,0.905-0.417,1.54-0.564c0.635-0.147,1.411-0.231,2.328-0.252v-0.632
		c0-0.629-0.135-1.105-0.404-1.428s-0.668-0.484-1.196-0.484c-0.347,0-0.639,0.044-0.876,0.132s-0.443,0.187-0.616,0.296
		s-0.323,0.208-0.448,0.296c-0.125,0.088-0.25,0.132-0.372,0.132c-0.096,0-0.18-0.025-0.252-0.076
		c-0.072-0.051-0.129-0.113-0.172-0.188l-0.256-0.456c0.448-0.432,0.931-0.755,1.448-0.968c0.517-0.213,1.09-0.32,1.72-0.32
		c0.453,0,0.856,0.075,1.208,0.224s0.648,0.357,0.888,0.624c0.24,0.267,0.421,0.589,0.544,0.968
		c0.123,0.379,0.184,0.795,0.184,1.248V65.458z M69.416,64.586c0.251,0,0.48-0.025,0.688-0.076c0.208-0.05,0.404-0.123,0.588-0.216
		c0.184-0.093,0.36-0.207,0.528-0.34s0.332-0.285,0.492-0.456v-1.688c-0.656,0.021-1.213,0.073-1.672,0.156
		c-0.458,0.083-0.832,0.191-1.12,0.324c-0.288,0.133-0.498,0.291-0.628,0.472c-0.13,0.181-0.196,0.384-0.196,0.608
		c0,0.213,0.035,0.397,0.104,0.552c0.069,0.155,0.163,0.282,0.28,0.38c0.118,0.099,0.256,0.17,0.416,0.216
		C69.056,64.564,69.229,64.586,69.416,64.586z"/>
	<path d="M77.728,65.586c-0.64,0-1.132-0.179-1.476-0.536c-0.344-0.357-0.516-0.872-0.516-1.544v-4.96h-0.976
		c-0.085,0-0.157-0.025-0.216-0.076s-0.088-0.129-0.088-0.236v-0.568l1.328-0.168l0.328-2.504c0.011-0.08,0.045-0.146,0.104-0.196
		c0.059-0.05,0.133-0.076,0.224-0.076h0.72v2.792h2.32v1.032h-2.32v4.864c0,0.341,0.083,0.595,0.248,0.76
		c0.165,0.166,0.378,0.248,0.64,0.248c0.149,0,0.279-0.02,0.388-0.06s0.204-0.084,0.284-0.132c0.08-0.048,0.148-0.092,0.204-0.132
		c0.056-0.04,0.105-0.06,0.148-0.06c0.075,0,0.142,0.045,0.2,0.136l0.416,0.68c-0.245,0.229-0.542,0.409-0.888,0.54
		C78.453,65.521,78.096,65.586,77.728,65.586z"/>
	<path d="M83.143,54.811c0,0.139-0.028,0.268-0.084,0.388c-0.056,0.12-0.13,0.227-0.224,0.32c-0.094,0.093-0.202,0.167-0.324,0.22
		c-0.123,0.054-0.253,0.08-0.392,0.08s-0.268-0.026-0.388-0.08c-0.12-0.053-0.227-0.126-0.32-0.22s-0.167-0.2-0.22-0.32
		c-0.054-0.12-0.08-0.25-0.08-0.388s0.026-0.271,0.08-0.396c0.053-0.125,0.126-0.235,0.22-0.328s0.2-0.167,0.32-0.22
		c0.12-0.053,0.249-0.08,0.388-0.08s0.27,0.027,0.392,0.08s0.23,0.126,0.324,0.22c0.093,0.093,0.168,0.203,0.224,0.328
		C83.115,54.54,83.143,54.672,83.143,54.811z M82.823,57.354v8.104h-1.424v-8.104H82.823z"/>
	<path d="M88.616,57.227c0.592,0,1.126,0.099,1.604,0.296c0.478,0.197,0.883,0.478,1.216,0.84c0.333,0.363,0.589,0.802,0.768,1.316
		s0.268,1.089,0.268,1.724c0,0.64-0.089,1.216-0.268,1.728c-0.179,0.512-0.435,0.95-0.768,1.312
		c-0.333,0.363-0.739,0.642-1.216,0.836c-0.477,0.195-1.012,0.292-1.604,0.292c-0.592,0-1.127-0.097-1.604-0.292
		c-0.478-0.194-0.884-0.473-1.22-0.836c-0.336-0.362-0.595-0.8-0.776-1.312c-0.182-0.512-0.272-1.088-0.272-1.728
		c0-0.634,0.09-1.209,0.272-1.724c0.181-0.515,0.44-0.954,0.776-1.316c0.336-0.362,0.743-0.643,1.22-0.84
		C87.489,57.325,88.023,57.227,88.616,57.227z M88.616,64.458c0.8,0,1.397-0.268,1.792-0.804C90.802,63.119,91,62.371,91,61.411
		c0-0.965-0.197-1.717-0.592-2.256c-0.395-0.539-0.992-0.808-1.792-0.808c-0.406,0-0.758,0.069-1.056,0.208
		c-0.299,0.139-0.548,0.338-0.748,0.6c-0.2,0.262-0.35,0.583-0.448,0.964s-0.148,0.812-0.148,1.292s0.049,0.909,0.148,1.288
		c0.099,0.378,0.248,0.697,0.448,0.956c0.2,0.259,0.449,0.458,0.748,0.596C87.858,64.389,88.21,64.458,88.616,64.458z"/>
	<path d="M94.231,65.458v-8.104h0.848c0.203,0,0.331,0.099,0.384,0.296l0.112,0.88c0.352-0.389,0.745-0.704,1.18-0.944
		c0.435-0.24,0.938-0.36,1.508-0.36c0.442,0,0.833,0.073,1.172,0.22c0.338,0.147,0.621,0.355,0.848,0.624
		c0.227,0.27,0.398,0.594,0.516,0.972c0.117,0.379,0.176,0.797,0.176,1.256v5.16h-1.424v-5.16c0-0.613-0.14-1.089-0.42-1.428
		c-0.28-0.339-0.708-0.508-1.284-0.508c-0.421,0-0.815,0.102-1.18,0.304s-0.703,0.478-1.012,0.824v5.968H94.231z"/>
	<path d="M106.335,57.227c0.485,0,0.933,0.082,1.344,0.244c0.411,0.163,0.765,0.397,1.064,0.704c0.298,0.307,0.532,0.686,0.7,1.136
		s0.252,0.964,0.252,1.54c0,0.224-0.024,0.373-0.072,0.448s-0.139,0.112-0.272,0.112h-5.392c0.011,0.512,0.08,0.957,0.208,1.336
		s0.304,0.695,0.528,0.948c0.224,0.253,0.491,0.443,0.8,0.568c0.309,0.125,0.656,0.188,1.04,0.188c0.357,0,0.665-0.042,0.924-0.124
		c0.259-0.083,0.481-0.172,0.668-0.268c0.187-0.096,0.343-0.186,0.468-0.268c0.125-0.083,0.233-0.124,0.324-0.124
		c0.117,0,0.208,0.045,0.272,0.136l0.4,0.52c-0.176,0.213-0.387,0.399-0.632,0.556c-0.246,0.157-0.508,0.287-0.788,0.388
		c-0.28,0.101-0.569,0.177-0.868,0.228c-0.299,0.05-0.595,0.076-0.888,0.076c-0.56,0-1.076-0.095-1.548-0.284
		c-0.472-0.189-0.88-0.467-1.224-0.832c-0.344-0.365-0.612-0.817-0.804-1.356s-0.288-1.157-0.288-1.856
		c0-0.565,0.087-1.093,0.26-1.584s0.422-0.916,0.748-1.276c0.325-0.36,0.723-0.643,1.192-0.848
		C105.221,57.329,105.749,57.227,106.335,57.227z M106.368,58.274c-0.688,0-1.229,0.199-1.624,0.596
		c-0.395,0.397-0.64,0.948-0.736,1.652h4.408c0-0.331-0.045-0.633-0.136-0.908c-0.09-0.274-0.224-0.512-0.4-0.712
		c-0.176-0.2-0.391-0.354-0.644-0.464S106.693,58.274,106.368,58.274z"/>
	<path d="M111.511,65.458v-8.104h0.816c0.155,0,0.261,0.029,0.32,0.088c0.059,0.059,0.099,0.16,0.12,0.304l0.096,1.264
		c0.277-0.565,0.62-1.006,1.028-1.324c0.408-0.317,0.887-0.476,1.436-0.476c0.224,0,0.427,0.025,0.608,0.076
		c0.182,0.051,0.35,0.121,0.504,0.212l-0.184,1.064c-0.038,0.133-0.12,0.2-0.248,0.2c-0.075,0-0.189-0.025-0.344-0.076
		s-0.371-0.076-0.648-0.076c-0.496,0-0.911,0.144-1.244,0.432c-0.333,0.288-0.612,0.707-0.836,1.256v5.16H111.511z"/>
</g>
<g>
	<path d="M49.377,406.453c-0.048,0.08-0.099,0.141-0.152,0.18c-0.053,0.041-0.123,0.061-0.208,0.061
		c-0.09,0-0.196-0.045-0.316-0.137c-0.12-0.09-0.272-0.189-0.456-0.299c-0.184-0.109-0.405-0.209-0.664-0.301
		c-0.258-0.09-0.572-0.135-0.94-0.135c-0.347,0-0.653,0.047-0.92,0.139c-0.267,0.094-0.489,0.221-0.668,0.381
		s-0.313,0.348-0.404,0.564c-0.091,0.215-0.136,0.449-0.136,0.699c0,0.32,0.079,0.586,0.236,0.797
		c0.157,0.209,0.365,0.391,0.624,0.539c0.259,0.15,0.552,0.279,0.88,0.389c0.328,0.109,0.664,0.223,1.008,0.34
		c0.344,0.117,0.68,0.248,1.008,0.396c0.328,0.146,0.622,0.332,0.88,0.555c0.258,0.225,0.466,0.5,0.624,0.824
		c0.157,0.326,0.236,0.725,0.236,1.199c0,0.502-0.085,0.973-0.256,1.412c-0.171,0.441-0.42,0.824-0.748,1.148
		c-0.328,0.326-0.731,0.582-1.208,0.768c-0.478,0.188-1.02,0.281-1.628,0.281c-0.742,0-1.417-0.135-2.028-0.404
		c-0.61-0.27-1.132-0.633-1.564-1.092l0.448-0.736c0.042-0.059,0.095-0.107,0.156-0.148c0.062-0.039,0.129-0.059,0.204-0.059
		c0.112,0,0.24,0.059,0.384,0.18c0.144,0.119,0.324,0.252,0.54,0.395c0.216,0.145,0.478,0.277,0.784,0.396
		c0.307,0.121,0.681,0.18,1.124,0.18c0.368,0,0.696-0.051,0.984-0.15c0.288-0.102,0.532-0.244,0.732-0.43
		c0.2-0.184,0.354-0.402,0.46-0.66c0.107-0.256,0.16-0.541,0.16-0.855c0-0.346-0.079-0.631-0.236-0.852
		c-0.158-0.221-0.364-0.406-0.62-0.557c-0.256-0.148-0.548-0.275-0.876-0.379c-0.328-0.105-0.664-0.211-1.008-0.32
		c-0.344-0.109-0.68-0.236-1.008-0.381c-0.328-0.143-0.62-0.33-0.876-0.559c-0.256-0.23-0.463-0.518-0.62-0.861
		s-0.236-0.77-0.236-1.275c0-0.406,0.079-0.797,0.236-1.176s0.385-0.715,0.684-1.008s0.668-0.529,1.108-0.705
		c0.44-0.176,0.945-0.264,1.516-0.264c0.64,0,1.224,0.102,1.752,0.305c0.528,0.203,0.989,0.496,1.384,0.879L49.377,406.453z"/>
	<path d="M52.993,408.021v5.168c0,0.613,0.141,1.088,0.424,1.424c0.282,0.336,0.709,0.504,1.28,0.504
		c0.416,0,0.808-0.098,1.176-0.295c0.368-0.197,0.707-0.473,1.016-0.824v-5.977h1.424v8.104h-0.848
		c-0.203,0-0.331-0.098-0.384-0.295l-0.112-0.873c-0.352,0.391-0.747,0.703-1.184,0.941c-0.438,0.236-0.938,0.355-1.504,0.355
		c-0.443,0-0.833-0.074-1.172-0.221c-0.339-0.146-0.623-0.354-0.852-0.619c-0.229-0.268-0.401-0.59-0.516-0.969
		s-0.172-0.797-0.172-1.256v-5.168H52.993z"/>
	<path d="M60.657,416.125v-8.104h0.848c0.203,0,0.331,0.1,0.384,0.297l0.112,0.879c0.352-0.389,0.745-0.703,1.18-0.943
		s0.938-0.361,1.508-0.361c0.442,0,0.833,0.074,1.172,0.221c0.338,0.146,0.621,0.355,0.848,0.625
		c0.227,0.27,0.398,0.592,0.516,0.971s0.176,0.799,0.176,1.256v5.16h-1.424v-5.16c0-0.613-0.14-1.088-0.42-1.428
		c-0.28-0.338-0.708-0.508-1.284-0.508c-0.421,0-0.815,0.102-1.18,0.305s-0.703,0.477-1.012,0.824v5.967H60.657z"/>
	<path d="M75.257,416.125c-0.203,0-0.331-0.098-0.384-0.295l-0.128-0.984c-0.347,0.422-0.743,0.758-1.188,1.012
		s-0.956,0.381-1.532,0.381c-0.464,0-0.886-0.09-1.264-0.27c-0.379-0.178-0.701-0.441-0.968-0.787
		c-0.267-0.348-0.472-0.779-0.616-1.297c-0.144-0.516-0.216-1.111-0.216-1.783c0-0.598,0.08-1.154,0.24-1.668
		c0.16-0.516,0.391-0.961,0.692-1.34s0.668-0.676,1.1-0.893c0.432-0.215,0.923-0.324,1.472-0.324c0.496,0,0.92,0.084,1.272,0.252
		s0.667,0.404,0.944,0.709v-4.496h1.424v11.783H75.257z M72.497,415.086c0.464,0,0.871-0.107,1.22-0.32
		c0.349-0.213,0.67-0.516,0.964-0.904v-3.92c-0.261-0.352-0.548-0.598-0.86-0.74c-0.312-0.141-0.657-0.211-1.036-0.211
		c-0.757,0-1.339,0.27-1.744,0.807c-0.405,0.539-0.608,1.307-0.608,2.305c0,0.527,0.045,0.98,0.136,1.355
		c0.09,0.377,0.224,0.686,0.4,0.928c0.176,0.244,0.392,0.42,0.648,0.533C71.873,415.029,72.166,415.086,72.497,415.086z"/>
	<path d="M78.497,416.125v-11.783h1.424v4.768c0.347-0.367,0.731-0.662,1.152-0.885c0.421-0.221,0.906-0.332,1.456-0.332
		c0.442,0,0.833,0.074,1.172,0.221c0.338,0.146,0.621,0.355,0.848,0.625c0.227,0.27,0.398,0.592,0.516,0.971
		s0.176,0.799,0.176,1.256v5.16h-1.424v-5.16c0-0.613-0.14-1.088-0.42-1.428c-0.28-0.338-0.708-0.508-1.284-0.508
		c-0.421,0-0.815,0.102-1.18,0.305s-0.703,0.477-1.012,0.824v5.967H78.497z"/>
	<path d="M90.601,407.893c0.485,0,0.933,0.082,1.344,0.244c0.411,0.164,0.765,0.398,1.064,0.705c0.298,0.307,0.532,0.686,0.7,1.135
		c0.168,0.451,0.252,0.965,0.252,1.541c0,0.225-0.024,0.373-0.072,0.447c-0.048,0.076-0.139,0.113-0.272,0.113h-5.392
		c0.011,0.512,0.08,0.957,0.208,1.336s0.304,0.693,0.528,0.947c0.224,0.254,0.491,0.443,0.8,0.568
		c0.309,0.125,0.656,0.188,1.04,0.188c0.357,0,0.665-0.041,0.924-0.123c0.259-0.084,0.481-0.172,0.668-0.27
		c0.187-0.096,0.343-0.184,0.468-0.268c0.125-0.082,0.233-0.123,0.324-0.123c0.117,0,0.208,0.045,0.272,0.135l0.4,0.521
		c-0.176,0.213-0.387,0.398-0.632,0.555c-0.246,0.158-0.508,0.287-0.788,0.389c-0.28,0.102-0.569,0.178-0.868,0.229
		c-0.299,0.051-0.595,0.076-0.888,0.076c-0.56,0-1.076-0.096-1.548-0.285c-0.472-0.189-0.88-0.467-1.224-0.832
		c-0.344-0.365-0.612-0.816-0.804-1.355s-0.288-1.158-0.288-1.855c0-0.566,0.087-1.094,0.26-1.584
		c0.173-0.492,0.422-0.916,0.748-1.277c0.325-0.359,0.723-0.643,1.192-0.848S90.014,407.893,90.601,407.893z M90.633,408.941
		c-0.688,0-1.229,0.199-1.624,0.596c-0.395,0.398-0.64,0.949-0.736,1.652h4.408c0-0.33-0.045-0.633-0.136-0.908
		c-0.09-0.273-0.224-0.512-0.4-0.711c-0.176-0.201-0.391-0.355-0.644-0.465S90.958,408.941,90.633,408.941z"/>
	<path d="M101.48,416.125c-0.203,0-0.331-0.098-0.384-0.295l-0.128-0.984c-0.347,0.422-0.743,0.758-1.188,1.012
		s-0.956,0.381-1.532,0.381c-0.464,0-0.886-0.09-1.264-0.27c-0.379-0.178-0.701-0.441-0.968-0.787
		c-0.267-0.348-0.472-0.779-0.616-1.297c-0.144-0.516-0.216-1.111-0.216-1.783c0-0.598,0.08-1.154,0.24-1.668
		c0.16-0.516,0.391-0.961,0.692-1.34s0.668-0.676,1.1-0.893c0.432-0.215,0.923-0.324,1.472-0.324c0.496,0,0.92,0.084,1.272,0.252
		s0.667,0.404,0.944,0.709v-4.496h1.424v11.783H101.48z M98.72,415.086c0.464,0,0.871-0.107,1.22-0.32
		c0.349-0.213,0.67-0.516,0.964-0.904v-3.92c-0.261-0.352-0.548-0.598-0.86-0.74c-0.312-0.141-0.657-0.211-1.036-0.211
		c-0.757,0-1.339,0.27-1.744,0.807c-0.405,0.539-0.608,1.307-0.608,2.305c0,0.527,0.045,0.98,0.136,1.355
		c0.09,0.377,0.224,0.686,0.4,0.928c0.176,0.244,0.392,0.42,0.648,0.533C98.096,415.029,98.39,415.086,98.72,415.086z"/>
	<path d="M111.92,404.533c0.421,0,0.806,0.068,1.152,0.205c0.347,0.135,0.646,0.314,0.9,0.539s0.453,0.484,0.6,0.779
		c0.146,0.297,0.23,0.605,0.252,0.926l-0.888,0.176c-0.027,0.004-0.051,0.008-0.072,0.008c-0.069,0-0.135-0.02-0.196-0.057
		c-0.061-0.037-0.105-0.104-0.132-0.199c-0.038-0.139-0.097-0.283-0.18-0.434c-0.083-0.148-0.189-0.285-0.32-0.406
		c-0.131-0.123-0.288-0.225-0.472-0.305c-0.184-0.08-0.398-0.121-0.644-0.121c-0.267,0-0.506,0.043-0.72,0.129
		s-0.396,0.203-0.548,0.355c-0.152,0.152-0.27,0.332-0.352,0.537c-0.083,0.205-0.124,0.428-0.124,0.668
		c0,0.186,0.022,0.365,0.068,0.535c0.045,0.172,0.113,0.344,0.204,0.516c0.09,0.174,0.208,0.354,0.352,0.537s0.317,0.377,0.52,0.58
		l3.296,3.352c0.203-0.357,0.364-0.732,0.484-1.125c0.12-0.391,0.201-0.785,0.244-1.18c0.011-0.102,0.042-0.18,0.096-0.24
		c0.053-0.059,0.128-0.088,0.224-0.088h0.88c-0.011,0.613-0.109,1.217-0.296,1.809s-0.456,1.146-0.808,1.664l2.4,2.432h-1.376
		c-0.155,0-0.28-0.018-0.376-0.055c-0.096-0.037-0.203-0.115-0.32-0.232l-1.152-1.16c-0.501,0.484-1.079,0.869-1.732,1.152
		c-0.653,0.281-1.372,0.424-2.156,0.424c-0.427,0-0.845-0.072-1.256-0.217s-0.777-0.354-1.1-0.627
		c-0.323-0.275-0.583-0.609-0.78-1.004c-0.198-0.395-0.296-0.84-0.296-1.336c0-0.375,0.063-0.727,0.188-1.061
		c0.125-0.334,0.298-0.641,0.52-0.924c0.222-0.283,0.484-0.537,0.788-0.76c0.304-0.225,0.637-0.416,1-0.576
		c-0.325-0.412-0.565-0.811-0.72-1.201c-0.155-0.389-0.232-0.791-0.232-1.207c0-0.389,0.07-0.756,0.212-1.096
		c0.141-0.342,0.345-0.639,0.612-0.893s0.591-0.453,0.972-0.6S111.445,404.533,111.92,404.533z M108.744,412.957
		c0,0.348,0.064,0.652,0.192,0.916s0.296,0.486,0.504,0.668s0.445,0.318,0.712,0.412c0.267,0.094,0.539,0.141,0.816,0.141
		c0.597,0,1.133-0.109,1.608-0.328s0.893-0.51,1.256-0.873l-3.384-3.416c-0.565,0.305-0.991,0.668-1.276,1.094
		C108.887,411.994,108.744,412.457,108.744,412.957z"/>
	<path d="M16.929,431.037v4.289h-1.544v-11.465h3.384c0.725,0,1.356,0.084,1.892,0.252c0.536,0.168,0.98,0.406,1.332,0.717
		c0.352,0.309,0.614,0.682,0.788,1.119c0.173,0.438,0.26,0.926,0.26,1.465c0,0.533-0.093,1.021-0.28,1.463
		c-0.187,0.443-0.46,0.824-0.82,1.145s-0.807,0.57-1.34,0.748c-0.533,0.18-1.144,0.268-1.832,0.268H16.929z M16.929,429.807h1.84
		c0.442,0,0.833-0.061,1.172-0.178s0.623-0.281,0.852-0.492c0.229-0.209,0.403-0.461,0.52-0.756
		c0.117-0.293,0.176-0.615,0.176-0.967c0-0.73-0.225-1.301-0.676-1.713c-0.451-0.41-1.132-0.615-2.044-0.615h-1.84V429.807z"/>
	<path d="M27.745,427.094c0.485,0,0.933,0.082,1.344,0.244c0.411,0.162,0.765,0.396,1.064,0.703c0.298,0.307,0.532,0.686,0.7,1.137
		s0.252,0.965,0.252,1.539c0,0.225-0.024,0.375-0.072,0.449s-0.139,0.111-0.272,0.111h-5.392c0.011,0.512,0.08,0.957,0.208,1.336
		s0.304,0.695,0.528,0.949c0.224,0.252,0.491,0.441,0.8,0.566c0.309,0.127,0.656,0.189,1.04,0.189c0.357,0,0.665-0.041,0.924-0.125
		c0.259-0.082,0.481-0.172,0.668-0.268s0.343-0.186,0.468-0.268c0.125-0.084,0.233-0.125,0.324-0.125
		c0.117,0,0.208,0.045,0.272,0.137l0.4,0.52c-0.176,0.213-0.387,0.398-0.632,0.557c-0.246,0.156-0.508,0.287-0.788,0.387
		c-0.28,0.102-0.569,0.178-0.868,0.229c-0.299,0.051-0.595,0.076-0.888,0.076c-0.56,0-1.076-0.094-1.548-0.283
		c-0.472-0.189-0.88-0.467-1.224-0.832c-0.344-0.365-0.612-0.818-0.804-1.357c-0.192-0.537-0.288-1.156-0.288-1.855
		c0-0.564,0.087-1.094,0.26-1.584s0.422-0.916,0.748-1.275c0.325-0.359,0.723-0.643,1.192-0.848S27.158,427.094,27.745,427.094z
		 M27.777,428.143c-0.688,0-1.229,0.197-1.624,0.596c-0.395,0.396-0.64,0.947-0.736,1.652h4.408c0-0.332-0.045-0.635-0.136-0.908
		c-0.09-0.275-0.224-0.514-0.4-0.713c-0.176-0.199-0.391-0.354-0.644-0.463S28.103,428.143,27.777,428.143z"/>
	<path d="M32.921,435.326v-8.104h0.816c0.155,0,0.261,0.029,0.32,0.088c0.059,0.059,0.099,0.158,0.12,0.303l0.096,1.264
		c0.277-0.564,0.62-1.006,1.028-1.324c0.408-0.316,0.887-0.475,1.436-0.475c0.224,0,0.427,0.025,0.608,0.076
		c0.182,0.051,0.35,0.121,0.504,0.211l-0.184,1.064c-0.038,0.133-0.12,0.199-0.248,0.199c-0.075,0-0.189-0.025-0.344-0.076
		c-0.155-0.049-0.371-0.074-0.648-0.074c-0.496,0-0.911,0.143-1.244,0.432c-0.333,0.287-0.612,0.707-0.836,1.256v5.16H32.921z"/>
	<path d="M44.008,428.559c-0.064,0.117-0.163,0.176-0.296,0.176c-0.08,0-0.171-0.029-0.272-0.088
		c-0.102-0.059-0.226-0.125-0.372-0.197c-0.147-0.072-0.322-0.139-0.524-0.199c-0.203-0.063-0.443-0.092-0.72-0.092
		c-0.24,0-0.456,0.029-0.648,0.092c-0.192,0.061-0.356,0.145-0.492,0.252c-0.136,0.107-0.24,0.23-0.312,0.371
		c-0.072,0.143-0.108,0.295-0.108,0.461c0,0.207,0.06,0.381,0.18,0.52c0.12,0.139,0.278,0.26,0.476,0.359
		c0.197,0.102,0.421,0.191,0.672,0.27c0.25,0.076,0.508,0.16,0.772,0.248s0.521,0.186,0.772,0.291c0.25,0.107,0.475,0.24,0.672,0.4
		s0.356,0.355,0.476,0.588s0.18,0.51,0.18,0.836c0,0.373-0.067,0.719-0.2,1.035c-0.133,0.318-0.331,0.594-0.592,0.824
		c-0.262,0.232-0.582,0.416-0.96,0.549c-0.379,0.133-0.816,0.199-1.312,0.199c-0.565,0-1.078-0.092-1.536-0.275
		c-0.459-0.184-0.848-0.42-1.168-0.709l0.336-0.543c0.042-0.07,0.093-0.123,0.152-0.16s0.136-0.057,0.232-0.057
		c0.096,0,0.197,0.037,0.304,0.113c0.106,0.074,0.236,0.156,0.388,0.248c0.152,0.09,0.336,0.172,0.552,0.248
		c0.216,0.074,0.487,0.111,0.812,0.111c0.277,0,0.52-0.035,0.728-0.107s0.381-0.17,0.52-0.293s0.241-0.264,0.308-0.424
		c0.066-0.16,0.1-0.33,0.1-0.512c0-0.225-0.06-0.41-0.18-0.557s-0.279-0.271-0.476-0.375s-0.423-0.195-0.676-0.271
		c-0.253-0.078-0.512-0.16-0.776-0.244c-0.264-0.086-0.522-0.184-0.776-0.293s-0.479-0.246-0.676-0.412
		c-0.198-0.164-0.356-0.369-0.476-0.611s-0.18-0.537-0.18-0.885c0-0.309,0.064-0.605,0.192-0.893
		c0.128-0.285,0.315-0.535,0.56-0.752c0.246-0.215,0.547-0.387,0.904-0.516c0.357-0.127,0.765-0.191,1.224-0.191
		c0.534,0,1.012,0.084,1.436,0.252c0.424,0.168,0.791,0.398,1.1,0.691L44.008,428.559z"/>
	<path d="M49.593,427.094c0.592,0,1.126,0.1,1.604,0.297c0.478,0.197,0.883,0.477,1.216,0.84c0.333,0.361,0.589,0.801,0.768,1.314
		c0.179,0.516,0.268,1.09,0.268,1.725c0,0.641-0.089,1.217-0.268,1.729s-0.435,0.949-0.768,1.313
		c-0.333,0.361-0.739,0.641-1.216,0.836c-0.477,0.193-1.012,0.291-1.604,0.291c-0.592,0-1.127-0.098-1.604-0.291
		c-0.478-0.195-0.884-0.475-1.22-0.836c-0.336-0.363-0.595-0.801-0.776-1.313c-0.182-0.512-0.272-1.088-0.272-1.729
		c0-0.635,0.09-1.209,0.272-1.725c0.181-0.514,0.44-0.953,0.776-1.314c0.336-0.363,0.743-0.643,1.22-0.84
		C48.466,427.193,49,427.094,49.593,427.094z M49.593,434.326c0.8,0,1.397-0.268,1.792-0.805c0.395-0.535,0.592-1.283,0.592-2.244
		c0-0.965-0.197-1.717-0.592-2.256c-0.395-0.539-0.992-0.809-1.792-0.809c-0.406,0-0.758,0.07-1.056,0.209
		c-0.299,0.139-0.548,0.338-0.748,0.6s-0.35,0.582-0.448,0.965c-0.099,0.381-0.148,0.811-0.148,1.291s0.049,0.91,0.148,1.289
		s0.248,0.697,0.448,0.955c0.2,0.26,0.449,0.457,0.748,0.596C48.835,434.256,49.187,434.326,49.593,434.326z"/>
	<path d="M55.208,435.326v-8.104h0.848c0.203,0,0.331,0.098,0.384,0.295l0.112,0.881c0.352-0.391,0.745-0.705,1.18-0.945
		s0.938-0.359,1.508-0.359c0.442,0,0.833,0.074,1.172,0.221c0.338,0.146,0.621,0.354,0.848,0.623
		c0.227,0.27,0.398,0.594,0.516,0.973s0.176,0.797,0.176,1.256v5.16h-1.424v-5.16c0-0.613-0.14-1.09-0.42-1.428
		c-0.28-0.34-0.708-0.508-1.284-0.508c-0.421,0-0.815,0.102-1.18,0.303c-0.365,0.203-0.703,0.479-1.012,0.824v5.969H55.208z"/>
	<path d="M65.688,423.541v11.785h-1.424v-11.785H65.688z"/>
	<path d="M70.104,424.678c0,0.139-0.028,0.268-0.084,0.389c-0.056,0.119-0.13,0.227-0.224,0.318
		c-0.094,0.094-0.202,0.168-0.324,0.221s-0.253,0.08-0.392,0.08s-0.268-0.027-0.388-0.08c-0.12-0.053-0.227-0.127-0.32-0.221
		c-0.093-0.092-0.167-0.199-0.22-0.318c-0.054-0.121-0.08-0.25-0.08-0.389s0.026-0.271,0.08-0.396
		c0.053-0.125,0.126-0.234,0.22-0.328c0.093-0.092,0.2-0.166,0.32-0.219c0.12-0.055,0.249-0.08,0.388-0.08s0.27,0.025,0.392,0.08
		c0.123,0.053,0.23,0.127,0.324,0.219c0.093,0.094,0.168,0.203,0.224,0.328C70.076,424.406,70.104,424.539,70.104,424.678z
		 M69.784,427.223v8.104H68.36v-8.104H69.784z"/>
	<path d="M75.024,427.086c0.352,0,0.681,0.039,0.988,0.115c0.307,0.078,0.585,0.191,0.836,0.34h2.2v0.529
		c0,0.176-0.112,0.287-0.336,0.336l-0.92,0.127c0.181,0.348,0.272,0.734,0.272,1.16c0,0.395-0.076,0.754-0.228,1.076
		s-0.363,0.6-0.632,0.828c-0.27,0.229-0.589,0.406-0.96,0.527c-0.371,0.123-0.777,0.186-1.22,0.186
		c-0.379,0-0.736-0.047-1.072-0.137c-0.171,0.107-0.3,0.221-0.388,0.344s-0.132,0.242-0.132,0.359c0,0.193,0.077,0.338,0.232,0.438
		c0.154,0.098,0.36,0.168,0.616,0.211c0.256,0.043,0.547,0.07,0.872,0.08c0.325,0.012,0.657,0.027,0.996,0.053
		c0.338,0.023,0.67,0.064,0.996,0.123c0.325,0.059,0.616,0.154,0.872,0.289c0.256,0.133,0.461,0.316,0.616,0.551
		s0.232,0.539,0.232,0.912c0,0.348-0.086,0.684-0.26,1.008c-0.173,0.326-0.423,0.615-0.748,0.869
		c-0.325,0.252-0.723,0.455-1.192,0.607c-0.47,0.152-1,0.229-1.592,0.229c-0.592,0-1.111-0.059-1.556-0.176
		c-0.446-0.117-0.815-0.275-1.108-0.473c-0.293-0.197-0.513-0.426-0.66-0.684c-0.147-0.26-0.22-0.529-0.22-0.813
		c0-0.4,0.127-0.74,0.38-1.02c0.253-0.281,0.602-0.504,1.044-0.668c-0.229-0.107-0.412-0.25-0.548-0.428
		c-0.136-0.18-0.204-0.418-0.204-0.717c0-0.117,0.021-0.238,0.064-0.363c0.042-0.125,0.108-0.25,0.196-0.373s0.196-0.24,0.324-0.352
		c0.128-0.111,0.277-0.211,0.448-0.297c-0.4-0.223-0.713-0.52-0.94-0.891c-0.227-0.371-0.34-0.805-0.34-1.301
		c0-0.395,0.076-0.752,0.228-1.076c0.152-0.322,0.364-0.598,0.636-0.824s0.596-0.4,0.972-0.523S74.576,427.086,75.024,427.086z
		 M77.552,435.766c0-0.203-0.056-0.365-0.168-0.488c-0.112-0.123-0.264-0.217-0.456-0.283c-0.192-0.066-0.413-0.117-0.664-0.148
		c-0.251-0.031-0.515-0.055-0.792-0.068c-0.278-0.014-0.56-0.027-0.848-0.043c-0.288-0.018-0.563-0.047-0.824-0.088
		c-0.304,0.143-0.551,0.318-0.74,0.527c-0.189,0.207-0.284,0.455-0.284,0.744c0,0.182,0.047,0.35,0.14,0.508
		c0.093,0.156,0.236,0.293,0.428,0.408c0.192,0.115,0.434,0.205,0.724,0.271s0.633,0.1,1.028,0.1c0.384,0,0.728-0.033,1.032-0.104
		c0.304-0.068,0.561-0.168,0.772-0.295c0.21-0.129,0.372-0.281,0.484-0.457C77.496,436.174,77.552,435.979,77.552,435.766z
		 M75.024,431.365c0.288,0,0.542-0.039,0.764-0.119c0.221-0.08,0.406-0.193,0.556-0.336c0.149-0.145,0.261-0.316,0.336-0.516
		c0.075-0.201,0.112-0.42,0.112-0.66c0-0.496-0.151-0.891-0.452-1.186c-0.301-0.293-0.74-0.439-1.316-0.439
		c-0.571,0-1.007,0.146-1.308,0.439c-0.301,0.295-0.452,0.689-0.452,1.186c0,0.24,0.039,0.459,0.116,0.66
		c0.077,0.199,0.19,0.371,0.34,0.516c0.149,0.143,0.333,0.256,0.552,0.336S74.741,431.365,75.024,431.365z"/>
	<path d="M84.792,427.223v5.168c0,0.613,0.141,1.088,0.424,1.424c0.282,0.336,0.709,0.504,1.28,0.504c0.416,0,0.808-0.1,1.176-0.297
		c0.368-0.197,0.707-0.473,1.016-0.824v-5.975h1.424v8.104h-0.848c-0.203,0-0.331-0.1-0.384-0.297l-0.112-0.871
		c-0.352,0.389-0.747,0.703-1.184,0.939s-0.938,0.355-1.504,0.355c-0.443,0-0.833-0.072-1.172-0.219
		c-0.339-0.146-0.623-0.354-0.852-0.621c-0.229-0.266-0.401-0.588-0.516-0.967s-0.172-0.799-0.172-1.256v-5.168H84.792z"/>
	<path d="M98.16,435.326c-0.203,0-0.331-0.1-0.384-0.297l-0.128-0.984c-0.347,0.422-0.743,0.76-1.188,1.014
		c-0.445,0.252-0.956,0.379-1.532,0.379c-0.464,0-0.886-0.09-1.264-0.268c-0.379-0.18-0.701-0.441-0.968-0.789
		c-0.267-0.346-0.472-0.777-0.616-1.295s-0.216-1.111-0.216-1.785c0-0.596,0.08-1.152,0.24-1.668c0.16-0.514,0.391-0.961,0.692-1.34
		c0.301-0.377,0.668-0.676,1.1-0.891c0.432-0.217,0.923-0.324,1.472-0.324c0.496,0,0.92,0.084,1.272,0.252s0.667,0.404,0.944,0.707
		v-4.496h1.424v11.785H98.16z M95.4,434.285c0.464,0,0.871-0.105,1.22-0.32c0.349-0.213,0.67-0.514,0.964-0.902v-3.92
		c-0.261-0.354-0.548-0.6-0.86-0.74c-0.312-0.143-0.657-0.213-1.036-0.213c-0.757,0-1.339,0.27-1.744,0.809
		s-0.608,1.307-0.608,2.303c0,0.529,0.045,0.98,0.136,1.357c0.09,0.375,0.224,0.686,0.4,0.928s0.392,0.42,0.648,0.531
		C94.776,434.23,95.069,434.285,95.4,434.285z"/>
	<path d="M100.375,427.223h1.168c0.112,0,0.205,0.029,0.28,0.088s0.128,0.127,0.16,0.207l2.056,5.217
		c0.075,0.191,0.133,0.383,0.176,0.576c0.043,0.191,0.083,0.381,0.12,0.566c0.042-0.186,0.088-0.375,0.136-0.566
		c0.048-0.193,0.109-0.385,0.184-0.576l2.08-5.217c0.032-0.086,0.084-0.156,0.156-0.211c0.072-0.057,0.161-0.084,0.268-0.084h1.112
		l-3.304,8.104h-1.288L100.375,427.223z"/>
	<path d="M111.496,424.678c0,0.139-0.028,0.268-0.084,0.389c-0.056,0.119-0.13,0.227-0.224,0.318
		c-0.094,0.094-0.202,0.168-0.324,0.221s-0.253,0.08-0.392,0.08s-0.268-0.027-0.388-0.08c-0.12-0.053-0.227-0.127-0.32-0.221
		c-0.093-0.092-0.167-0.199-0.22-0.318c-0.054-0.121-0.08-0.25-0.08-0.389s0.026-0.271,0.08-0.396
		c0.053-0.125,0.126-0.234,0.22-0.328c0.093-0.092,0.2-0.166,0.32-0.219c0.12-0.055,0.249-0.08,0.388-0.08s0.27,0.025,0.392,0.08
		c0.123,0.053,0.23,0.127,0.324,0.219c0.093,0.094,0.168,0.203,0.224,0.328C111.468,424.406,111.496,424.539,111.496,424.678z
		 M111.176,427.223v8.104h-1.424v-8.104H111.176z"/>
	<path d="M115.167,423.541v6.938h0.368c0.106,0,0.194-0.016,0.264-0.045s0.147-0.09,0.232-0.18l2.56-2.744
		c0.08-0.086,0.16-0.154,0.24-0.209c0.08-0.053,0.187-0.078,0.32-0.078h1.296l-2.984,3.176c-0.075,0.09-0.148,0.17-0.22,0.238
		c-0.072,0.07-0.153,0.131-0.244,0.186c0.096,0.063,0.183,0.137,0.26,0.219c0.077,0.084,0.15,0.178,0.22,0.285l3.168,4h-1.28
		c-0.118,0-0.217-0.023-0.3-0.068c-0.083-0.045-0.161-0.115-0.236-0.213l-2.664-3.318c-0.08-0.113-0.16-0.186-0.24-0.221
		c-0.08-0.035-0.2-0.053-0.36-0.053h-0.4v3.873h-1.432v-11.785H115.167z"/>
	<path d="M123.655,423.541v11.785h-1.424v-11.785H123.655z"/>
	<path d="M128.071,424.678c0,0.139-0.028,0.268-0.084,0.389c-0.056,0.119-0.13,0.227-0.224,0.318
		c-0.094,0.094-0.202,0.168-0.324,0.221s-0.253,0.08-0.392,0.08s-0.268-0.027-0.388-0.08c-0.12-0.053-0.227-0.127-0.32-0.221
		c-0.093-0.092-0.167-0.199-0.22-0.318c-0.054-0.121-0.08-0.25-0.08-0.389s0.026-0.271,0.08-0.396
		c0.053-0.125,0.126-0.234,0.22-0.328c0.093-0.092,0.2-0.166,0.32-0.219c0.12-0.055,0.249-0.08,0.388-0.08s0.27,0.025,0.392,0.08
		c0.123,0.053,0.23,0.127,0.324,0.219c0.093,0.094,0.168,0.203,0.224,0.328C128.043,424.406,128.071,424.539,128.071,424.678z
		 M127.751,427.223v8.104h-1.424v-8.104H127.751z"/>
	<path d="M130.263,435.326v-8.104h0.848c0.203,0,0.331,0.098,0.384,0.295l0.112,0.881c0.352-0.391,0.745-0.705,1.18-0.945
		s0.938-0.359,1.508-0.359c0.442,0,0.833,0.074,1.172,0.221c0.338,0.146,0.621,0.354,0.848,0.623
		c0.227,0.27,0.398,0.594,0.516,0.973s0.176,0.797,0.176,1.256v5.16h-1.424v-5.16c0-0.613-0.14-1.09-0.42-1.428
		c-0.28-0.34-0.708-0.508-1.284-0.508c-0.421,0-0.815,0.102-1.18,0.303c-0.365,0.203-0.703,0.479-1.012,0.824v5.969H130.263z"/>
	<path d="M141.887,427.086c0.352,0,0.681,0.039,0.988,0.115c0.307,0.078,0.585,0.191,0.836,0.34h2.2v0.529
		c0,0.176-0.112,0.287-0.336,0.336l-0.92,0.127c0.181,0.348,0.272,0.734,0.272,1.16c0,0.395-0.076,0.754-0.228,1.076
		s-0.363,0.6-0.632,0.828c-0.27,0.229-0.589,0.406-0.96,0.527c-0.371,0.123-0.777,0.186-1.22,0.186
		c-0.379,0-0.736-0.047-1.072-0.137c-0.171,0.107-0.3,0.221-0.388,0.344s-0.132,0.242-0.132,0.359c0,0.193,0.077,0.338,0.232,0.438
		c0.154,0.098,0.36,0.168,0.616,0.211c0.256,0.043,0.547,0.07,0.872,0.08c0.325,0.012,0.657,0.027,0.996,0.053
		c0.338,0.023,0.67,0.064,0.996,0.123c0.325,0.059,0.616,0.154,0.872,0.289c0.256,0.133,0.461,0.316,0.616,0.551
		s0.232,0.539,0.232,0.912c0,0.348-0.086,0.684-0.26,1.008c-0.173,0.326-0.423,0.615-0.748,0.869
		c-0.325,0.252-0.723,0.455-1.192,0.607c-0.47,0.152-1,0.229-1.592,0.229c-0.592,0-1.111-0.059-1.556-0.176
		c-0.446-0.117-0.815-0.275-1.108-0.473c-0.293-0.197-0.513-0.426-0.66-0.684c-0.147-0.26-0.22-0.529-0.22-0.813
		c0-0.4,0.127-0.74,0.38-1.02c0.253-0.281,0.602-0.504,1.044-0.668c-0.229-0.107-0.412-0.25-0.548-0.428
		c-0.136-0.18-0.204-0.418-0.204-0.717c0-0.117,0.021-0.238,0.064-0.363c0.042-0.125,0.108-0.25,0.196-0.373s0.196-0.24,0.324-0.352
		c0.128-0.111,0.277-0.211,0.448-0.297c-0.4-0.223-0.713-0.52-0.94-0.891c-0.227-0.371-0.34-0.805-0.34-1.301
		c0-0.395,0.076-0.752,0.228-1.076c0.152-0.322,0.364-0.598,0.636-0.824s0.596-0.4,0.972-0.523S141.439,427.086,141.887,427.086z
		 M144.415,435.766c0-0.203-0.056-0.365-0.168-0.488c-0.112-0.123-0.264-0.217-0.456-0.283c-0.192-0.066-0.413-0.117-0.664-0.148
		c-0.251-0.031-0.515-0.055-0.792-0.068c-0.278-0.014-0.56-0.027-0.848-0.043c-0.288-0.018-0.563-0.047-0.824-0.088
		c-0.304,0.143-0.551,0.318-0.74,0.527c-0.189,0.207-0.284,0.455-0.284,0.744c0,0.182,0.047,0.35,0.14,0.508
		c0.093,0.156,0.236,0.293,0.428,0.408c0.192,0.115,0.434,0.205,0.724,0.271s0.633,0.1,1.028,0.1c0.384,0,0.728-0.033,1.032-0.104
		c0.304-0.068,0.561-0.168,0.772-0.295c0.21-0.129,0.372-0.281,0.484-0.457C144.359,436.174,144.415,435.979,144.415,435.766z
		 M141.887,431.365c0.288,0,0.542-0.039,0.764-0.119c0.221-0.08,0.406-0.193,0.556-0.336c0.149-0.145,0.261-0.316,0.336-0.516
		c0.075-0.201,0.112-0.42,0.112-0.66c0-0.496-0.151-0.891-0.452-1.186c-0.301-0.293-0.74-0.439-1.316-0.439
		c-0.571,0-1.007,0.146-1.308,0.439c-0.301,0.295-0.452,0.689-0.452,1.186c0,0.24,0.039,0.459,0.116,0.66
		c0.077,0.199,0.19,0.371,0.34,0.516c0.149,0.143,0.333,0.256,0.552,0.336S141.604,431.365,141.887,431.365z"/>
</g>
<g>
	<path d="M415.633,416.125h-1.201c-0.139,0-0.25-0.034-0.336-0.104s-0.148-0.158-0.191-0.265l-1.072-2.768h-5.145l-1.072,2.768
		c-0.037,0.096-0.1,0.182-0.191,0.256c-0.09,0.075-0.203,0.112-0.336,0.112h-1.199l4.584-11.464h1.576L415.633,416.125z
		 M408.119,411.869h4.281l-1.801-4.664c-0.117-0.288-0.232-0.648-0.344-1.08c-0.059,0.219-0.115,0.42-0.172,0.604
		c-0.057,0.185-0.111,0.346-0.164,0.484L408.119,411.869z"/>
	<path d="M416.855,416.125v-8.104h0.816c0.154,0,0.262,0.029,0.32,0.088s0.098,0.159,0.119,0.304l0.096,1.264
		c0.277-0.565,0.621-1.007,1.029-1.324c0.408-0.316,0.887-0.476,1.436-0.476c0.225,0,0.426,0.025,0.607,0.076
		s0.35,0.121,0.504,0.212l-0.184,1.063c-0.037,0.134-0.119,0.2-0.248,0.2c-0.074,0-0.189-0.025-0.344-0.076
		c-0.154-0.05-0.371-0.075-0.648-0.075c-0.496,0-0.91,0.144-1.244,0.432c-0.332,0.288-0.611,0.707-0.836,1.256v5.16H416.855z"/>
	<path d="M423.352,416.125v-11.784h1.434v4.849c0.336-0.39,0.721-0.703,1.154-0.94c0.436-0.237,0.934-0.356,1.492-0.356
		c0.471,0,0.895,0.089,1.273,0.265c0.377,0.176,0.701,0.438,0.967,0.788c0.268,0.349,0.473,0.781,0.617,1.296
		c0.143,0.515,0.215,1.107,0.215,1.78c0,0.597-0.08,1.153-0.24,1.668s-0.391,0.96-0.691,1.336s-0.67,0.672-1.104,0.888
		c-0.436,0.216-0.924,0.324-1.469,0.324c-0.523,0-0.967-0.102-1.332-0.305c-0.365-0.202-0.684-0.485-0.955-0.848l-0.072,0.736
		c-0.043,0.202-0.166,0.304-0.369,0.304H423.352z M426.969,409.029c-0.465,0-0.871,0.106-1.221,0.319
		c-0.35,0.214-0.67,0.515-0.963,0.904v3.92c0.256,0.353,0.539,0.601,0.852,0.744c0.311,0.144,0.66,0.216,1.043,0.216
		c0.758,0,1.34-0.27,1.744-0.808c0.406-0.539,0.609-1.307,0.609-2.304c0-0.528-0.047-0.981-0.141-1.36s-0.229-0.689-0.404-0.933
		c-0.176-0.242-0.393-0.42-0.648-0.531C427.584,409.085,427.293,409.029,426.969,409.029z"/>
	<path d="M435.455,407.893c0.486,0,0.934,0.082,1.344,0.244c0.412,0.163,0.766,0.397,1.064,0.704s0.533,0.686,0.701,1.136
		c0.168,0.451,0.252,0.965,0.252,1.54c0,0.225-0.025,0.374-0.072,0.448c-0.049,0.075-0.139,0.112-0.273,0.112h-5.391
		c0.01,0.512,0.08,0.957,0.207,1.336c0.129,0.379,0.305,0.694,0.529,0.948c0.223,0.253,0.49,0.442,0.799,0.567
		c0.311,0.126,0.656,0.188,1.041,0.188c0.357,0,0.664-0.041,0.924-0.124c0.258-0.083,0.48-0.172,0.668-0.269
		c0.186-0.096,0.342-0.185,0.467-0.268c0.127-0.083,0.234-0.124,0.324-0.124c0.117,0,0.209,0.045,0.273,0.136l0.398,0.521
		c-0.176,0.213-0.387,0.398-0.631,0.556c-0.246,0.157-0.508,0.287-0.789,0.388c-0.279,0.102-0.568,0.178-0.867,0.229
		s-0.596,0.076-0.889,0.076c-0.559,0-1.076-0.095-1.547-0.284c-0.473-0.189-0.881-0.467-1.225-0.832s-0.611-0.817-0.805-1.356
		c-0.191-0.538-0.287-1.157-0.287-1.855c0-0.565,0.086-1.094,0.26-1.584c0.174-0.491,0.422-0.916,0.748-1.276
		c0.324-0.359,0.723-0.643,1.191-0.848C434.342,407.996,434.869,407.893,435.455,407.893z M435.488,408.941
		c-0.689,0-1.23,0.198-1.625,0.596s-0.641,0.948-0.736,1.652h4.408c0-0.331-0.045-0.634-0.135-0.908
		c-0.092-0.274-0.225-0.513-0.4-0.712c-0.176-0.2-0.391-0.354-0.645-0.464S435.813,408.941,435.488,408.941z"/>
	<path d="M442.215,408.021v8.703c0,0.325-0.043,0.628-0.127,0.908c-0.086,0.28-0.221,0.524-0.404,0.732s-0.422,0.372-0.713,0.492
		c-0.291,0.119-0.639,0.18-1.043,0.18c-0.176,0-0.336-0.014-0.48-0.04s-0.287-0.066-0.432-0.12l0.064-0.768
		c0.01-0.069,0.033-0.113,0.072-0.133c0.037-0.019,0.096-0.027,0.176-0.027c0.043,0,0.088,0.001,0.135,0.004
		c0.049,0.003,0.107,0.004,0.176,0.004c0.416,0,0.713-0.098,0.889-0.292s0.264-0.508,0.264-0.94v-8.703H442.215z M442.535,405.477
		c0,0.14-0.027,0.269-0.084,0.389s-0.131,0.227-0.225,0.319c-0.092,0.094-0.201,0.167-0.322,0.221
		c-0.123,0.053-0.254,0.08-0.393,0.08s-0.268-0.027-0.389-0.08c-0.119-0.054-0.227-0.127-0.32-0.221
		c-0.092-0.093-0.166-0.199-0.219-0.319c-0.055-0.12-0.08-0.249-0.08-0.389c0-0.139,0.025-0.271,0.08-0.396
		c0.053-0.125,0.127-0.234,0.219-0.328c0.094-0.093,0.201-0.167,0.32-0.22c0.121-0.054,0.25-0.08,0.389-0.08s0.27,0.026,0.393,0.08
		c0.121,0.053,0.23,0.127,0.322,0.22c0.094,0.094,0.168,0.203,0.225,0.328S442.535,405.338,442.535,405.477z"/>
	<path d="M450.398,416.125c-0.203,0-0.33-0.099-0.383-0.296l-0.129-0.984c-0.346,0.422-0.742,0.759-1.188,1.013
		c-0.445,0.253-0.957,0.38-1.533,0.38c-0.463,0-0.885-0.09-1.264-0.269s-0.701-0.441-0.967-0.788
		c-0.268-0.347-0.473-0.778-0.617-1.296c-0.143-0.517-0.215-1.111-0.215-1.784c0-0.597,0.08-1.153,0.24-1.668
		c0.158-0.515,0.391-0.961,0.691-1.34c0.301-0.378,0.668-0.676,1.1-0.892s0.922-0.324,1.473-0.324c0.496,0,0.92,0.084,1.271,0.252
		s0.666,0.404,0.943,0.708v-4.496h1.424v11.784H450.398z M447.639,415.085c0.465,0,0.871-0.106,1.221-0.32
		c0.35-0.213,0.67-0.515,0.963-0.903v-3.92c-0.262-0.353-0.547-0.599-0.859-0.74s-0.658-0.212-1.035-0.212
		c-0.758,0-1.34,0.27-1.744,0.808c-0.406,0.539-0.609,1.307-0.609,2.304c0,0.528,0.045,0.98,0.137,1.356
		c0.09,0.376,0.225,0.686,0.4,0.928c0.176,0.243,0.391,0.42,0.648,0.532C447.016,415.029,447.309,415.085,447.639,415.085z"/>
	<path d="M456.846,407.893c0.486,0,0.934,0.082,1.344,0.244c0.412,0.163,0.766,0.397,1.064,0.704s0.533,0.686,0.701,1.136
		c0.168,0.451,0.252,0.965,0.252,1.54c0,0.225-0.025,0.374-0.072,0.448c-0.049,0.075-0.139,0.112-0.273,0.112h-5.391
		c0.01,0.512,0.08,0.957,0.207,1.336c0.129,0.379,0.305,0.694,0.529,0.948c0.223,0.253,0.49,0.442,0.799,0.567
		c0.311,0.126,0.656,0.188,1.041,0.188c0.357,0,0.664-0.041,0.924-0.124c0.258-0.083,0.48-0.172,0.668-0.269
		c0.186-0.096,0.342-0.185,0.467-0.268c0.127-0.083,0.234-0.124,0.324-0.124c0.117,0,0.209,0.045,0.273,0.136l0.398,0.521
		c-0.176,0.213-0.387,0.398-0.631,0.556c-0.246,0.157-0.508,0.287-0.789,0.388c-0.279,0.102-0.568,0.178-0.867,0.229
		s-0.596,0.076-0.889,0.076c-0.559,0-1.076-0.095-1.547-0.284c-0.473-0.189-0.881-0.467-1.225-0.832s-0.611-0.817-0.805-1.356
		c-0.191-0.538-0.287-1.157-0.287-1.855c0-0.565,0.086-1.094,0.26-1.584c0.174-0.491,0.422-0.916,0.748-1.276
		c0.324-0.359,0.723-0.643,1.191-0.848C455.732,407.996,456.26,407.893,456.846,407.893z M456.879,408.941
		c-0.689,0-1.23,0.198-1.625,0.596s-0.641,0.948-0.736,1.652h4.408c0-0.331-0.045-0.634-0.135-0.908
		c-0.092-0.274-0.225-0.513-0.4-0.712c-0.176-0.2-0.391-0.354-0.645-0.464S457.203,408.941,456.879,408.941z"/>
	<path d="M469.223,404.533c0.42,0,0.805,0.067,1.15,0.204c0.348,0.136,0.648,0.315,0.9,0.54c0.254,0.224,0.453,0.483,0.6,0.779
		c0.148,0.296,0.232,0.604,0.252,0.925l-0.887,0.176c-0.027,0.005-0.051,0.008-0.072,0.008c-0.07,0-0.135-0.019-0.195-0.056
		c-0.063-0.038-0.105-0.104-0.133-0.2c-0.037-0.139-0.098-0.283-0.18-0.433c-0.084-0.148-0.189-0.285-0.32-0.407
		c-0.131-0.123-0.287-0.225-0.473-0.305c-0.184-0.08-0.398-0.12-0.643-0.12c-0.268,0-0.508,0.043-0.721,0.129
		c-0.213,0.085-0.396,0.203-0.549,0.355c-0.15,0.152-0.27,0.331-0.352,0.536s-0.123,0.428-0.123,0.668
		c0,0.187,0.021,0.365,0.066,0.536c0.047,0.171,0.113,0.343,0.205,0.516c0.09,0.174,0.207,0.353,0.352,0.536
		c0.145,0.185,0.318,0.378,0.52,0.58l3.297,3.352c0.203-0.356,0.363-0.731,0.484-1.124c0.119-0.392,0.201-0.785,0.244-1.18
		c0.01-0.102,0.043-0.181,0.096-0.24c0.053-0.059,0.127-0.088,0.225-0.088h0.879c-0.01,0.613-0.109,1.216-0.295,1.809
		c-0.188,0.592-0.457,1.146-0.809,1.664l2.4,2.432h-1.377c-0.154,0-0.279-0.019-0.375-0.056c-0.098-0.037-0.203-0.115-0.32-0.232
		l-1.152-1.16c-0.502,0.485-1.078,0.869-1.732,1.152c-0.652,0.282-1.371,0.424-2.156,0.424c-0.426,0-0.846-0.072-1.256-0.216
		c-0.41-0.145-0.777-0.354-1.1-0.628s-0.582-0.609-0.779-1.004s-0.297-0.84-0.297-1.336c0-0.374,0.063-0.727,0.188-1.061
		c0.127-0.333,0.299-0.641,0.521-0.924c0.221-0.282,0.482-0.536,0.787-0.76c0.305-0.225,0.637-0.416,1-0.576
		c-0.326-0.411-0.564-0.811-0.721-1.2c-0.154-0.389-0.23-0.792-0.23-1.208c0-0.389,0.07-0.755,0.211-1.096
		c0.143-0.342,0.346-0.639,0.613-0.893c0.266-0.253,0.59-0.453,0.971-0.6S468.748,404.533,469.223,404.533z M466.045,412.957
		c0,0.347,0.064,0.652,0.193,0.916c0.127,0.264,0.295,0.486,0.504,0.668c0.207,0.182,0.445,0.318,0.711,0.412
		c0.268,0.093,0.539,0.14,0.816,0.14c0.598,0,1.133-0.109,1.607-0.328s0.895-0.509,1.258-0.872l-3.385-3.416
		c-0.566,0.305-0.99,0.668-1.275,1.093C466.189,411.993,466.045,412.456,466.045,412.957z"/>
	<path d="M404.209,434.093c0.475,0,0.898-0.079,1.271-0.239s0.689-0.385,0.949-0.672c0.258-0.288,0.455-0.633,0.592-1.032
		c0.135-0.4,0.203-0.84,0.203-1.32v-6.968h1.545v6.968c0,0.661-0.105,1.274-0.316,1.84s-0.512,1.055-0.904,1.468
		c-0.393,0.414-0.871,0.738-1.436,0.973c-0.566,0.234-1.201,0.352-1.904,0.352c-0.705,0-1.34-0.117-1.904-0.352
		s-1.045-0.559-1.439-0.973c-0.395-0.413-0.697-0.902-0.908-1.468s-0.316-1.179-0.316-1.84v-6.968h1.545v6.96
		c0,0.479,0.066,0.92,0.203,1.32c0.137,0.399,0.334,0.743,0.592,1.031c0.26,0.288,0.576,0.514,0.953,0.677
		C403.309,434.012,403.734,434.093,404.209,434.093z"/>
	<path d="M416.912,435.325c-0.203,0-0.33-0.099-0.383-0.296l-0.129-0.984c-0.346,0.422-0.742,0.759-1.188,1.013
		c-0.445,0.253-0.957,0.38-1.533,0.38c-0.463,0-0.885-0.09-1.264-0.269s-0.701-0.441-0.967-0.788
		c-0.268-0.347-0.473-0.778-0.617-1.296c-0.143-0.517-0.215-1.111-0.215-1.784c0-0.597,0.08-1.153,0.24-1.668
		c0.158-0.515,0.391-0.961,0.691-1.34c0.301-0.378,0.668-0.676,1.1-0.892s0.922-0.324,1.473-0.324c0.496,0,0.92,0.084,1.271,0.252
		s0.666,0.404,0.943,0.708v-4.496h1.424v11.784H416.912z M414.152,434.285c0.465,0,0.871-0.106,1.221-0.32
		c0.35-0.213,0.67-0.515,0.963-0.903v-3.92c-0.262-0.353-0.547-0.599-0.859-0.74s-0.658-0.212-1.035-0.212
		c-0.758,0-1.34,0.27-1.744,0.808c-0.406,0.539-0.609,1.307-0.609,2.304c0,0.528,0.045,0.98,0.137,1.356
		c0.09,0.376,0.225,0.686,0.4,0.928c0.176,0.243,0.391,0.42,0.648,0.532C413.529,434.229,413.822,434.285,414.152,434.285z"/>
	<path d="M425.855,435.325c-0.203,0-0.33-0.099-0.383-0.296l-0.129-0.984c-0.346,0.422-0.742,0.759-1.188,1.013
		c-0.445,0.253-0.957,0.38-1.533,0.38c-0.463,0-0.885-0.09-1.264-0.269s-0.701-0.441-0.967-0.788
		c-0.268-0.347-0.473-0.778-0.617-1.296c-0.143-0.517-0.215-1.111-0.215-1.784c0-0.597,0.08-1.153,0.24-1.668
		c0.158-0.515,0.391-0.961,0.691-1.34c0.301-0.378,0.668-0.676,1.1-0.892s0.922-0.324,1.473-0.324c0.496,0,0.92,0.084,1.271,0.252
		s0.666,0.404,0.943,0.708v-4.496h1.424v11.784H425.855z M423.096,434.285c0.465,0,0.871-0.106,1.221-0.32
		c0.35-0.213,0.67-0.515,0.963-0.903v-3.92c-0.262-0.353-0.547-0.599-0.859-0.74s-0.658-0.212-1.035-0.212
		c-0.758,0-1.34,0.27-1.744,0.808c-0.406,0.539-0.609,1.307-0.609,2.304c0,0.528,0.045,0.98,0.137,1.356
		c0.09,0.376,0.225,0.686,0.4,0.928c0.176,0.243,0.391,0.42,0.648,0.532C422.473,434.229,422.766,434.285,423.096,434.285z"/>
	<path d="M435.047,435.325h-0.631c-0.139,0-0.252-0.021-0.336-0.064c-0.086-0.042-0.143-0.133-0.168-0.271l-0.16-0.752
		c-0.215,0.191-0.422,0.364-0.625,0.516c-0.203,0.152-0.416,0.28-0.641,0.384c-0.223,0.104-0.461,0.184-0.715,0.236
		c-0.254,0.054-0.535,0.08-0.844,0.08c-0.314,0-0.609-0.044-0.885-0.132s-0.514-0.22-0.715-0.396
		c-0.203-0.176-0.365-0.398-0.484-0.668c-0.121-0.269-0.18-0.588-0.18-0.956c0-0.319,0.088-0.628,0.264-0.924
		s0.459-0.559,0.852-0.788c0.393-0.229,0.904-0.417,1.539-0.563s1.412-0.23,2.328-0.252v-0.632c0-0.63-0.135-1.105-0.402-1.429
		c-0.27-0.322-0.668-0.483-1.197-0.483c-0.346,0-0.639,0.044-0.875,0.132c-0.238,0.088-0.443,0.187-0.617,0.296
		c-0.172,0.109-0.322,0.208-0.447,0.296s-0.25,0.132-0.373,0.132c-0.096,0-0.18-0.025-0.252-0.076
		c-0.07-0.05-0.129-0.113-0.172-0.188l-0.256-0.456c0.449-0.432,0.932-0.755,1.449-0.968c0.516-0.214,1.09-0.32,1.719-0.32
		c0.453,0,0.857,0.075,1.209,0.224c0.352,0.149,0.648,0.357,0.887,0.624c0.24,0.268,0.422,0.59,0.545,0.969
		c0.123,0.378,0.184,0.794,0.184,1.248V435.325z M431.352,434.453c0.25,0,0.48-0.025,0.688-0.076
		c0.209-0.051,0.404-0.122,0.588-0.216c0.184-0.093,0.359-0.207,0.527-0.34c0.17-0.134,0.332-0.285,0.492-0.456v-1.688
		c-0.654,0.021-1.213,0.074-1.672,0.156c-0.459,0.083-0.832,0.191-1.119,0.324c-0.289,0.134-0.498,0.291-0.629,0.472
		c-0.131,0.182-0.195,0.385-0.195,0.608c0,0.213,0.035,0.397,0.104,0.552c0.07,0.155,0.164,0.281,0.281,0.38
		s0.256,0.171,0.416,0.216C430.992,434.431,431.164,434.453,431.352,434.453z"/>
	<path d="M437.207,435.325v-8.104h0.848c0.203,0,0.33,0.099,0.385,0.296l0.111,0.88c0.352-0.39,0.744-0.704,1.18-0.944
		s0.938-0.36,1.508-0.36c0.443,0,0.834,0.074,1.172,0.221c0.34,0.146,0.621,0.354,0.848,0.624s0.398,0.593,0.518,0.972
		c0.117,0.379,0.176,0.798,0.176,1.256v5.16h-1.424v-5.16c0-0.613-0.141-1.089-0.42-1.428c-0.281-0.339-0.709-0.508-1.285-0.508
		c-0.422,0-0.814,0.102-1.18,0.304c-0.365,0.203-0.703,0.478-1.012,0.824v5.968H437.207z"/>
	<path d="M446.104,435.325v-8.104h0.848c0.203,0,0.33,0.099,0.385,0.296l0.111,0.88c0.352-0.39,0.744-0.704,1.18-0.944
		s0.938-0.36,1.508-0.36c0.443,0,0.834,0.074,1.172,0.221c0.34,0.146,0.621,0.354,0.848,0.624s0.398,0.593,0.518,0.972
		c0.117,0.379,0.176,0.798,0.176,1.256v5.16h-1.424v-5.16c0-0.613-0.141-1.089-0.42-1.428c-0.281-0.339-0.709-0.508-1.285-0.508
		c-0.422,0-0.814,0.102-1.18,0.304c-0.365,0.203-0.703,0.478-1.012,0.824v5.968H446.104z"/>
	<path d="M458.207,427.093c0.486,0,0.934,0.082,1.344,0.244c0.412,0.163,0.766,0.397,1.064,0.704s0.533,0.686,0.701,1.136
		c0.168,0.451,0.252,0.965,0.252,1.54c0,0.225-0.025,0.374-0.072,0.448c-0.049,0.075-0.139,0.112-0.273,0.112h-5.391
		c0.01,0.512,0.08,0.957,0.207,1.336c0.129,0.379,0.305,0.694,0.529,0.948c0.223,0.253,0.49,0.442,0.799,0.567
		c0.311,0.126,0.656,0.188,1.041,0.188c0.357,0,0.664-0.041,0.924-0.124c0.258-0.083,0.48-0.172,0.668-0.269
		c0.186-0.096,0.342-0.185,0.467-0.268c0.127-0.083,0.234-0.124,0.324-0.124c0.117,0,0.209,0.045,0.273,0.136l0.398,0.521
		c-0.176,0.213-0.387,0.398-0.631,0.556c-0.246,0.157-0.508,0.287-0.789,0.388c-0.279,0.102-0.568,0.178-0.867,0.229
		s-0.596,0.076-0.889,0.076c-0.559,0-1.076-0.095-1.547-0.284c-0.473-0.189-0.881-0.467-1.225-0.832s-0.611-0.817-0.805-1.356
		c-0.191-0.538-0.287-1.157-0.287-1.855c0-0.565,0.086-1.094,0.26-1.584c0.174-0.491,0.422-0.916,0.748-1.276
		c0.324-0.359,0.723-0.643,1.191-0.848C457.094,427.196,457.621,427.093,458.207,427.093z M458.24,428.142
		c-0.689,0-1.23,0.198-1.625,0.596s-0.641,0.948-0.736,1.652h4.408c0-0.331-0.045-0.634-0.135-0.908
		c-0.092-0.274-0.225-0.513-0.4-0.712c-0.176-0.2-0.391-0.354-0.645-0.464S458.564,428.142,458.24,428.142z"/>
	<path d="M464.967,423.541v11.784h-1.424v-11.784H464.967z"/>
	<path d="M472.119,428.558c-0.064,0.117-0.162,0.176-0.297,0.176c-0.08,0-0.17-0.029-0.271-0.088s-0.225-0.124-0.371-0.196
		s-0.322-0.139-0.525-0.2c-0.201-0.062-0.441-0.092-0.719-0.092c-0.24,0-0.457,0.03-0.648,0.092s-0.355,0.146-0.492,0.252
		c-0.137,0.107-0.24,0.231-0.313,0.372c-0.072,0.142-0.107,0.295-0.107,0.46c0,0.208,0.061,0.382,0.18,0.521
		c0.121,0.139,0.279,0.259,0.477,0.359c0.197,0.102,0.422,0.191,0.672,0.269s0.508,0.16,0.771,0.248s0.521,0.186,0.771,0.292
		c0.252,0.106,0.475,0.239,0.674,0.399c0.197,0.16,0.355,0.356,0.475,0.588c0.121,0.232,0.18,0.511,0.18,0.836
		c0,0.374-0.066,0.719-0.199,1.036s-0.33,0.593-0.592,0.824c-0.262,0.232-0.582,0.415-0.961,0.548c-0.379,0.134-0.814,0.2-1.311,0.2
		c-0.566,0-1.078-0.092-1.537-0.276c-0.459-0.184-0.848-0.42-1.168-0.708l0.336-0.544c0.043-0.069,0.094-0.122,0.152-0.159
		c0.059-0.038,0.137-0.057,0.232-0.057s0.197,0.037,0.303,0.112c0.107,0.074,0.236,0.157,0.389,0.248s0.336,0.173,0.553,0.248
		c0.215,0.074,0.486,0.111,0.813,0.111c0.275,0,0.52-0.035,0.727-0.107c0.209-0.072,0.381-0.169,0.52-0.292s0.242-0.264,0.309-0.424
		s0.1-0.331,0.1-0.513c0-0.224-0.059-0.409-0.18-0.556c-0.119-0.146-0.277-0.271-0.475-0.376c-0.199-0.104-0.424-0.194-0.678-0.271
		c-0.252-0.078-0.512-0.159-0.775-0.244c-0.264-0.086-0.523-0.183-0.775-0.292c-0.254-0.109-0.479-0.247-0.676-0.412
		s-0.357-0.369-0.477-0.612c-0.119-0.242-0.18-0.537-0.18-0.884c0-0.31,0.064-0.606,0.191-0.893
		c0.129-0.285,0.314-0.535,0.561-0.752c0.244-0.216,0.547-0.388,0.904-0.516s0.764-0.192,1.223-0.192
		c0.533,0,1.012,0.084,1.438,0.252c0.424,0.169,0.789,0.399,1.1,0.692L472.119,428.558z"/>
	<path d="M477.631,427.093c0.486,0,0.934,0.082,1.344,0.244c0.412,0.163,0.766,0.397,1.064,0.704s0.533,0.686,0.701,1.136
		c0.168,0.451,0.252,0.965,0.252,1.54c0,0.225-0.025,0.374-0.072,0.448c-0.049,0.075-0.139,0.112-0.273,0.112h-5.391
		c0.01,0.512,0.08,0.957,0.207,1.336c0.129,0.379,0.305,0.694,0.529,0.948c0.223,0.253,0.49,0.442,0.799,0.567
		c0.311,0.126,0.656,0.188,1.041,0.188c0.357,0,0.664-0.041,0.924-0.124c0.258-0.083,0.48-0.172,0.668-0.269
		c0.186-0.096,0.342-0.185,0.467-0.268c0.127-0.083,0.234-0.124,0.324-0.124c0.117,0,0.209,0.045,0.273,0.136l0.398,0.521
		c-0.176,0.213-0.387,0.398-0.631,0.556c-0.246,0.157-0.508,0.287-0.789,0.388c-0.279,0.102-0.568,0.178-0.867,0.229
		s-0.596,0.076-0.889,0.076c-0.559,0-1.076-0.095-1.547-0.284c-0.473-0.189-0.881-0.467-1.225-0.832s-0.611-0.817-0.805-1.356
		c-0.191-0.538-0.287-1.157-0.287-1.855c0-0.565,0.086-1.094,0.26-1.584c0.174-0.491,0.422-0.916,0.748-1.276
		c0.324-0.359,0.723-0.643,1.191-0.848C476.518,427.196,477.045,427.093,477.631,427.093z M477.664,428.142
		c-0.689,0-1.23,0.198-1.625,0.596s-0.641,0.948-0.736,1.652h4.408c0-0.331-0.045-0.634-0.135-0.908
		c-0.092-0.274-0.225-0.513-0.4-0.712c-0.176-0.2-0.391-0.354-0.645-0.464S477.988,428.142,477.664,428.142z"/>
</g>
<path fill="none" stroke="#231F20" stroke-miterlimit="10" d="M470,240c0,115.968-94.021,210-210,210S50,355.968,50,240
	c0-115.968,94.021-210,210-210S470,124.032,470,240z"/>
</svg>
