<svg xml:space="preserve" width="520" height="480" xmlns="http://www.w3.org/2000/svg"><circle cx="260" cy="240" r="60" fill="#FFF" stroke="#231F20" stroke-miterlimit="10"/><path d="M216.558 233.585v1.422h-6.192v4.284h5.013v1.368h-5.013v4.401h6.192v1.422h-7.947v-12.897h7.947zM227.853 233.585v1.467h-4.167v11.43h-1.746v-11.43h-4.185v-1.467h10.098zM238.914 245.213c.348 0 .667-.016.958-.049s.565-.082.824-.148c.258-.066.501-.146.729-.238.228-.094.456-.199.684-.32v-2.844h-1.998a.382.382 0 0 1-.275-.099.323.323 0 0 1-.103-.243v-.99h3.96v4.95a6.895 6.895 0 0 1-2.138 1.048c-.399.117-.827.205-1.283.262s-.951.086-1.485.086c-.936 0-1.794-.161-2.574-.482-.78-.32-1.452-.771-2.016-1.35s-1.003-1.273-1.318-2.084c-.315-.81-.473-1.701-.473-2.672 0-.984.154-1.881.463-2.691.309-.81.75-1.505 1.323-2.083.573-.579 1.266-1.028 2.079-1.346s1.724-.477 2.732-.477c.51 0 .984.038 1.422.112.438.075.844.183 1.219.324s.722.312 1.04.513c.318.201.615.427.891.679l-.495.792c-.102.162-.234.243-.396.243a.638.638 0 0 1-.315-.099 9.55 9.55 0 0 1-.504-.306c-.186-.12-.413-.235-.68-.346s-.582-.206-.945-.284a6.22 6.22 0 0 0-1.292-.117c-.726 0-1.383.118-1.971.355a4.17 4.17 0 0 0-1.503 1.017 4.5 4.5 0 0 0-.954 1.602c-.222.627-.333 1.331-.333 2.111 0 .816.116 1.543.347 2.182s.557 1.181.977 1.625c.42.443.918.783 1.494 1.017.577.233 1.213.35 1.909.35zM258.354 240.039c0 .965-.153 1.852-.459 2.659-.306.808-.738 1.502-1.296 2.084s-1.229 1.033-2.012 1.354c-.783.321-1.648.481-2.596.481-.948 0-1.812-.16-2.592-.481-.78-.321-1.449-.772-2.007-1.354s-.99-1.276-1.296-2.084c-.306-.807-.459-1.693-.459-2.659 0-.966.153-1.853.459-2.66.306-.807.738-1.503 1.296-2.088s1.227-1.04 2.007-1.364c.78-.324 1.644-.486 2.592-.486.948 0 1.813.162 2.596.486.783.324 1.454.779 2.012 1.364s.99 1.281 1.296 2.088.459 1.693.459 2.66zm-1.791 0c0-.792-.108-1.503-.324-2.133-.216-.63-.522-1.162-.918-1.597s-.876-.77-1.44-1.004c-.564-.234-1.194-.351-1.89-.351-.69 0-1.317.117-1.881.351-.564.234-1.045.569-1.444 1.004s-.707.967-.922 1.597c-.216.63-.324 1.341-.324 2.133s.108 1.501.324 2.128a4.48 4.48 0 0 0 .922 1.593c.399.436.88.768 1.444.999s1.191.347 1.881.347c.696 0 1.326-.115 1.89-.347s1.044-.563 1.44-.999c.396-.435.702-.966.918-1.593.216-.627.324-1.336.324-2.128zM271.916 240.039c0 .965-.152 1.844-.459 2.637a5.844 5.844 0 0 1-1.296 2.033 5.805 5.805 0 0 1-2.007 1.311c-.779.309-1.645.463-2.592.463h-4.824v-12.897h4.824c.947 0 1.813.154 2.592.463s1.449.747 2.007 1.314.99 1.247 1.296 2.039c.307.791.459 1.67.459 2.637zm-1.791 0c0-.792-.107-1.5-.324-2.124a4.447 4.447 0 0 0-.918-1.584c-.396-.432-.875-.762-1.439-.99s-1.191-.342-1.881-.342h-3.069v10.071h3.069c.689 0 1.316-.114 1.881-.342s1.044-.557 1.439-.985c.396-.43.703-.955.918-1.58.217-.624.324-1.332.324-2.124zM282.194 233.585v1.467h-4.167v11.43h-1.746v-11.43h-4.186v-1.467h10.099zM289.25 245.016h5.58v1.467h-7.326v-12.897h1.746v11.43zM298.826 246.482h-1.746v-12.897h1.746v12.897zM300.788 233.585h1.396c.156 0 .281.039.378.117a.728.728 0 0 1 .216.297l3.645 9.099c.084.204.16.426.23.666.068.239.136.489.202.747.054-.258.112-.508.175-.747a5.25 5.25 0 0 1 .221-.666l3.627-9.099a.759.759 0 0 1 .217-.284.561.561 0 0 1 .377-.13h1.404l-5.256 12.897h-1.574l-5.258-12.897z"/><circle cx="260" cy="240" r="90" fill="none" stroke="#231F20" stroke-miterlimit="10"/><circle cx="260" cy="240" r="120" fill="none" stroke="#231F20" stroke-miterlimit="10"/><path fill="none" stroke="#231F20" stroke-miterlimit="10" d="M410 240c0 82.84-67.157 150-150 150s-150-67.16-150-150S177.157 90 260 90s150 67.16 150 150z"/><path fill="none" stroke="#231F20" stroke-miterlimit="10" d="M440 240c0 99.408-80.587 180-179.998 180S80 339.408 80 240 160.591 60 260.002 60 440 140.592 440 240zM320 240h200M0 240h200M260 0v180M260 300v180"/><path d="M429.393 54.329v1.264h-5.504v4.008h4.703v1.264h-4.703v4.928h-1.561V54.329h7.065zM430.68 65.792v-8.104h.816c.154 0 .26.029.318.088.059.059.1.16.121.304l.096 1.264c.277-.565.619-1.006 1.027-1.324s.887-.476 1.438-.476a2.114 2.114 0 0 1 1.111.288l-.184 1.064c-.037.133-.121.2-.248.2-.076 0-.189-.025-.344-.076-.156-.051-.371-.076-.648-.076-.496 0-.91.144-1.244.432s-.611.707-.836 1.256v5.16h-1.423zM439.033 55.145a.92.92 0 0 1-.084.388c-.057.12-.131.227-.225.32s-.201.167-.324.22c-.123.054-.254.08-.393.08s-.268-.026-.387-.08a1.066 1.066 0 0 1-.541-.54 1.008 1.008 0 0 1 .221-1.112 1.05 1.05 0 0 1 .32-.22.983.983 0 0 1 .78 0c.123.053.23.126.324.22s.168.203.225.328a.974.974 0 0 1 .084.396zm-.32 2.543v8.104h-1.424v-8.104h1.424zM443.68 65.92c-.639 0-1.131-.179-1.475-.536-.346-.357-.518-.872-.518-1.544v-4.96h-.975c-.086 0-.158-.025-.217-.076s-.088-.129-.088-.236V58l1.328-.168.328-2.504a.297.297 0 0 1 .104-.196.335.335 0 0 1 .225-.076h.719v2.792h2.32v1.032h-2.32v4.864c0 .341.084.595.248.76a.866.866 0 0 0 .641.248c.148 0 .279-.02.389-.06s.203-.084.283-.132.148-.092.205-.132a.261.261 0 0 1 .146-.06c.076 0 .143.045.201.136l.416.68a2.662 2.662 0 0 1-.889.54 2.992 2.992 0 0 1-1.071.196zM449.096 55.145a.92.92 0 0 1-.084.388c-.057.12-.131.227-.225.32s-.201.167-.324.22c-.123.054-.254.08-.393.08s-.268-.026-.387-.08a1.066 1.066 0 0 1-.541-.54 1.008 1.008 0 0 1 .221-1.112 1.05 1.05 0 0 1 .32-.22.983.983 0 0 1 .78 0c.123.053.23.126.324.22s.168.203.225.328a.99.99 0 0 1 .084.396zm-.321 2.543v8.104h-1.424v-8.104h1.424zM456.99 65.792c-.203 0-.33-.099-.383-.296l-.129-.984c-.346.421-.742.758-1.188 1.012s-.957.38-1.533.38c-.463 0-.885-.089-1.264-.268a2.61 2.61 0 0 1-.967-.788c-.268-.347-.473-.779-.617-1.296-.143-.517-.215-1.112-.215-1.784 0-.597.08-1.153.24-1.668.158-.515.391-.961.691-1.34a3.248 3.248 0 0 1 1.1-.892c.432-.216.922-.324 1.473-.324.496 0 .92.084 1.271.252s.666.404.943.708v-4.496h1.424v11.784h-.846zm-2.76-1.04c.465 0 .871-.106 1.221-.32s.67-.515.963-.904v-3.92c-.262-.352-.547-.599-.859-.74a2.476 2.476 0 0 0-1.035-.212c-.758 0-1.34.27-1.744.808-.406.539-.609 1.307-.609 2.304 0 .528.045.98.137 1.356.09.376.225.686.4.928.176.243.391.42.648.532.255.112.548.168.878.168zM46.305 60.674v4.784H44.76V53.995H48c.725 0 1.352.073 1.88.22.528.147.964.359 1.308.636.344.277.599.612.764 1.004.165.392.248.831.248 1.316a3.3 3.3 0 0 1-.192 1.136 2.994 2.994 0 0 1-.556.948c-.243.28-.539.519-.888.716s-.745.347-1.188.448c.192.112.363.275.512.488l3.344 4.552h-1.376c-.283 0-.491-.109-.624-.328l-2.976-4.096a.867.867 0 0 0-.296-.276c-.107-.056-.267-.084-.48-.084h-1.175zm0-1.128h1.624c.453 0 .852-.055 1.196-.164.344-.109.632-.264.864-.464.232-.2.407-.438.524-.716.117-.277.176-.584.176-.92 0-.683-.226-1.197-.676-1.544-.451-.346-1.122-.52-2.012-.52h-1.696v4.328zM57.888 57.227c.485 0 .933.082 1.344.244.411.163.765.397 1.064.704.298.307.532.686.7 1.136s.252.964.252 1.54c0 .224-.024.373-.072.448s-.139.112-.272.112h-5.392c.011.512.08.957.208 1.336s.304.695.528.948c.224.253.491.443.8.568.309.125.656.188 1.04.188.357 0 .665-.042.924-.124a4.43 4.43 0 0 0 1.136-.536c.125-.083.233-.124.324-.124.117 0 .208.045.272.136l.4.52a2.712 2.712 0 0 1-.632.556 3.953 3.953 0 0 1-.788.388c-.28.101-.569.177-.868.228-.299.05-.595.076-.888.076-.56 0-1.076-.095-1.548-.284a3.397 3.397 0 0 1-1.224-.832c-.344-.365-.612-.817-.804-1.356s-.288-1.157-.288-1.856c0-.565.087-1.093.26-1.584s.422-.916.748-1.276a3.44 3.44 0 0 1 1.192-.848c.469-.206.997-.308 1.584-.308zm.032 1.047c-.688 0-1.229.199-1.624.596-.395.397-.64.948-.736 1.652h4.408c0-.331-.045-.633-.136-.908a2.019 2.019 0 0 0-.4-.712c-.176-.2-.391-.354-.644-.464s-.542-.164-.868-.164zM64.648 53.674v11.784h-1.424V53.674h1.424zM73.112 65.458h-.632c-.139 0-.25-.021-.336-.064s-.141-.133-.168-.272l-.16-.752a8.933 8.933 0 0 1-.624.516c-.203.152-.416.28-.64.384s-.463.183-.716.236a4.13 4.13 0 0 1-.844.08c-.315 0-.609-.044-.884-.132a1.884 1.884 0 0 1-1.2-1.064c-.12-.27-.18-.588-.18-.956 0-.32.088-.628.264-.924.176-.296.46-.559.852-.788.392-.229.905-.417 1.54-.564.635-.147 1.411-.231 2.328-.252v-.632c0-.629-.135-1.105-.404-1.428s-.668-.484-1.196-.484c-.347 0-.639.044-.876.132s-.443.187-.616.296-.323.208-.448.296a.647.647 0 0 1-.372.132.424.424 0 0 1-.252-.076.583.583 0 0 1-.172-.188l-.256-.456a4.626 4.626 0 0 1 1.448-.968 4.473 4.473 0 0 1 1.72-.32c.453 0 .856.075 1.208.224s.648.357.888.624.421.589.544.968c.123.379.184.795.184 1.248v5.184zm-3.696-.872a2.698 2.698 0 0 0 1.276-.292c.184-.093.36-.207.528-.34s.332-.285.492-.456V61.81c-.656.021-1.213.073-1.672.156-.458.083-.832.191-1.12.324-.288.133-.498.291-.628.472a1.02 1.02 0 0 0-.196.608c0 .213.035.397.104.552a1.038 1.038 0 0 0 .696.596c.16.046.333.068.52.068zM77.728 65.586c-.64 0-1.132-.179-1.476-.536-.344-.357-.516-.872-.516-1.544v-4.96h-.976c-.085 0-.157-.025-.216-.076s-.088-.129-.088-.236v-.568l1.328-.168.328-2.504a.301.301 0 0 1 .104-.196.334.334 0 0 1 .224-.076h.72v2.792h2.32v1.032h-2.32v4.864c0 .341.083.595.248.76a.862.862 0 0 0 .64.248c.149 0 .279-.02.388-.06s.204-.084.284-.132c.08-.048.148-.092.204-.132a.266.266 0 0 1 .148-.06c.075 0 .142.045.2.136l.416.68a2.667 2.667 0 0 1-.888.54 3.01 3.01 0 0 1-1.072.196zM83.143 54.811a.905.905 0 0 1-.084.388 1.1 1.1 0 0 1-.548.54c-.123.054-.253.08-.392.08s-.268-.026-.388-.08a1.063 1.063 0 0 1-.54-.54.99.99 0 0 1 0-.784c.053-.125.126-.235.22-.328s.2-.167.32-.22c.12-.053.249-.08.388-.08s.27.027.392.08.23.126.324.22c.093.093.168.203.224.328a.958.958 0 0 1 .084.396zm-.32 2.543v8.104h-1.424v-8.104h1.424zM88.616 57.227c.592 0 1.126.099 1.604.296.478.197.883.478 1.216.84.333.363.589.802.768 1.316s.268 1.089.268 1.724c0 .64-.089 1.216-.268 1.728-.179.512-.435.95-.768 1.312a3.328 3.328 0 0 1-1.216.836 4.205 4.205 0 0 1-1.604.292 4.205 4.205 0 0 1-1.604-.292 3.36 3.36 0 0 1-1.22-.836 3.73 3.73 0 0 1-.776-1.312c-.182-.512-.272-1.088-.272-1.728 0-.634.09-1.209.272-1.724a3.72 3.72 0 0 1 .776-1.316 3.428 3.428 0 0 1 1.22-.84 4.145 4.145 0 0 1 1.604-.296zm0 7.231c.8 0 1.397-.268 1.792-.804.394-.535.592-1.283.592-2.243 0-.965-.197-1.717-.592-2.256-.395-.539-.992-.808-1.792-.808-.406 0-.758.069-1.056.208a1.97 1.97 0 0 0-.748.6c-.2.262-.35.583-.448.964s-.148.812-.148 1.292.049.909.148 1.288c.099.378.248.697.448.956s.449.458.748.596c.298.138.65.207 1.056.207zM94.231 65.458v-8.104h.848c.203 0 .331.099.384.296l.112.88a4.556 4.556 0 0 1 1.18-.944c.435-.24.938-.36 1.508-.36.442 0 .833.073 1.172.22.338.147.621.355.848.624.227.27.398.594.516.972.117.379.176.797.176 1.256v5.16h-1.424v-5.16c0-.613-.14-1.089-.42-1.428-.28-.339-.708-.508-1.284-.508-.421 0-.815.102-1.18.304s-.703.478-1.012.824v5.968h-1.424zM106.335 57.227c.485 0 .933.082 1.344.244.411.163.765.397 1.064.704.298.307.532.686.7 1.136s.252.964.252 1.54c0 .224-.024.373-.072.448s-.139.112-.272.112h-5.392c.011.512.08.957.208 1.336s.304.695.528.948c.224.253.491.443.8.568.309.125.656.188 1.04.188.357 0 .665-.042.924-.124a4.43 4.43 0 0 0 1.136-.536c.125-.083.233-.124.324-.124.117 0 .208.045.272.136l.4.52a2.712 2.712 0 0 1-.632.556 3.953 3.953 0 0 1-.788.388c-.28.101-.569.177-.868.228-.299.05-.595.076-.888.076-.56 0-1.076-.095-1.548-.284a3.397 3.397 0 0 1-1.224-.832c-.344-.365-.612-.817-.804-1.356s-.288-1.157-.288-1.856c0-.565.087-1.093.26-1.584s.422-.916.748-1.276a3.44 3.44 0 0 1 1.192-.848c.47-.206.998-.308 1.584-.308zm.033 1.047c-.688 0-1.229.199-1.624.596-.395.397-.64.948-.736 1.652h4.408c0-.331-.045-.633-.136-.908a2.019 2.019 0 0 0-.4-.712c-.176-.2-.391-.354-.644-.464s-.543-.164-.868-.164zM111.511 65.458v-8.104h.816c.155 0 .261.029.32.088s.099.16.12.304l.096 1.264c.277-.565.62-1.006 1.028-1.324a2.274 2.274 0 0 1 1.436-.476 2.097 2.097 0 0 1 1.112.288l-.184 1.064c-.038.133-.12.2-.248.2-.075 0-.189-.025-.344-.076s-.371-.076-.648-.076c-.496 0-.911.144-1.244.432-.333.288-.612.707-.836 1.256v5.16h-1.424zM49.377 406.453a.612.612 0 0 1-.152.18.332.332 0 0 1-.208.061c-.09 0-.196-.045-.316-.137a5.357 5.357 0 0 0-.456-.299 3.808 3.808 0 0 0-.664-.301 2.874 2.874 0 0 0-.94-.135c-.347 0-.653.047-.92.139-.267.094-.489.221-.668.381s-.313.348-.404.564a1.778 1.778 0 0 0-.136.699c0 .32.079.586.236.797.157.209.365.391.624.539.259.15.552.279.88.389.328.109.664.223 1.008.34.344.117.68.248 1.008.396.328.146.622.332.88.555.258.225.466.5.624.824.157.326.236.725.236 1.199 0 .502-.085.973-.256 1.412-.171.441-.42.824-.748 1.148a3.483 3.483 0 0 1-1.208.768c-.478.188-1.02.281-1.628.281a4.976 4.976 0 0 1-2.028-.404 4.769 4.769 0 0 1-1.564-1.092l.448-.736a.595.595 0 0 1 .156-.148.374.374 0 0 1 .204-.059c.112 0 .24.059.384.18.144.119.324.252.54.395.216.145.478.277.784.396.307.121.681.18 1.124.18.368 0 .696-.051.984-.15.288-.102.532-.244.732-.43.2-.184.354-.402.46-.66.107-.256.16-.541.16-.855 0-.346-.079-.631-.236-.852a1.99 1.99 0 0 0-.62-.557 4.41 4.41 0 0 0-.876-.379l-1.008-.32a9.849 9.849 0 0 1-1.008-.381 3.257 3.257 0 0 1-.876-.559c-.256-.23-.463-.518-.62-.861s-.236-.77-.236-1.275a3.041 3.041 0 0 1 .92-2.184 3.326 3.326 0 0 1 1.108-.705c.44-.176.945-.264 1.516-.264.64 0 1.224.102 1.752.305s.989.496 1.384.879l-.376.736zM52.993 408.021v5.168c0 .613.141 1.088.424 1.424.282.336.709.504 1.28.504.416 0 .808-.098 1.176-.295a3.665 3.665 0 0 0 1.016-.824v-5.977h1.424v8.104h-.848c-.203 0-.331-.098-.384-.295l-.112-.873a4.447 4.447 0 0 1-1.184.941c-.438.236-.938.355-1.504.355a2.92 2.92 0 0 1-1.172-.221 2.327 2.327 0 0 1-.852-.619c-.229-.268-.401-.59-.516-.969s-.172-.797-.172-1.256v-5.168h1.424zM60.657 416.125v-8.104h.848c.203 0 .331.1.384.297l.112.879c.352-.389.745-.703 1.18-.943s.938-.361 1.508-.361c.442 0 .833.074 1.172.221.338.146.621.355.848.625.227.27.398.592.516.971s.176.799.176 1.256v5.16h-1.424v-5.16c0-.613-.14-1.088-.42-1.428-.28-.338-.708-.508-1.284-.508-.421 0-.815.102-1.18.305s-.703.477-1.012.824v5.967h-1.424zM75.257 416.125c-.203 0-.331-.098-.384-.295l-.128-.984c-.347.422-.743.758-1.188 1.012s-.956.381-1.532.381c-.464 0-.886-.09-1.264-.27a2.618 2.618 0 0 1-.968-.787c-.267-.348-.472-.779-.616-1.297-.144-.516-.216-1.111-.216-1.783 0-.598.08-1.154.24-1.668.16-.516.391-.961.692-1.34s.668-.676 1.1-.893a3.261 3.261 0 0 1 1.472-.324c.496 0 .92.084 1.272.252s.667.404.944.709v-4.496h1.424v11.783h-.848zm-2.76-1.039c.464 0 .871-.107 1.22-.32.349-.213.67-.516.964-.904v-3.92c-.261-.352-.548-.598-.86-.74a2.486 2.486 0 0 0-1.036-.211c-.757 0-1.339.27-1.744.807-.405.539-.608 1.307-.608 2.305 0 .527.045.98.136 1.355.09.377.224.686.4.928.176.244.392.42.648.533.256.11.549.167.88.167zM78.497 416.125v-11.783h1.424v4.768a4.445 4.445 0 0 1 1.152-.885c.421-.221.906-.332 1.456-.332.442 0 .833.074 1.172.221.338.146.621.355.848.625.227.27.398.592.516.971s.176.799.176 1.256v5.16h-1.424v-5.16c0-.613-.14-1.088-.42-1.428-.28-.338-.708-.508-1.284-.508-.421 0-.815.102-1.18.305s-.703.477-1.012.824v5.967h-1.424zM90.601 407.893c.485 0 .933.082 1.344.244.411.164.765.398 1.064.705.298.307.532.686.7 1.135.168.451.252.965.252 1.541 0 .225-.024.373-.072.447-.048.076-.139.113-.272.113h-5.392c.011.512.08.957.208 1.336s.304.693.528.947c.224.254.491.443.8.568.309.125.656.188 1.04.188.357 0 .665-.041.924-.123a4.724 4.724 0 0 0 1.136-.538c.125-.082.233-.123.324-.123.117 0 .208.045.272.135l.4.521a2.708 2.708 0 0 1-.632.555 3.956 3.956 0 0 1-.788.389 5.273 5.273 0 0 1-1.756.305c-.56 0-1.076-.096-1.548-.285a3.397 3.397 0 0 1-1.224-.832c-.344-.365-.612-.816-.804-1.355s-.288-1.158-.288-1.855c0-.566.087-1.094.26-1.584.173-.492.422-.916.748-1.277.325-.359.723-.643 1.192-.848s.997-.309 1.584-.309zm.032 1.048c-.688 0-1.229.199-1.624.596-.395.398-.64.949-.736 1.652h4.408c0-.33-.045-.633-.136-.908a2.014 2.014 0 0 0-.4-.711c-.176-.201-.391-.355-.644-.465s-.543-.164-.868-.164zM101.48 416.125c-.203 0-.331-.098-.384-.295l-.128-.984c-.347.422-.743.758-1.188 1.012s-.956.381-1.532.381c-.464 0-.886-.09-1.264-.27a2.618 2.618 0 0 1-.968-.787c-.267-.348-.472-.779-.616-1.297-.144-.516-.216-1.111-.216-1.783 0-.598.08-1.154.24-1.668.16-.516.391-.961.692-1.34s.668-.676 1.1-.893a3.261 3.261 0 0 1 1.472-.324c.496 0 .92.084 1.272.252s.667.404.944.709v-4.496h1.424v11.783h-.848zm-2.76-1.039c.464 0 .871-.107 1.22-.32.349-.213.67-.516.964-.904v-3.92c-.261-.352-.548-.598-.86-.74a2.486 2.486 0 0 0-1.036-.211c-.757 0-1.339.27-1.744.807-.405.539-.608 1.307-.608 2.305 0 .527.045.98.136 1.355.09.377.224.686.4.928.176.244.392.42.648.533.256.11.55.167.88.167zM111.92 404.533c.421 0 .806.068 1.152.205.347.135.646.314.9.539s.453.484.6.779c.146.297.23.605.252.926l-.888.176c-.027.004-.051.008-.072.008a.375.375 0 0 1-.196-.057c-.061-.037-.105-.104-.132-.199a1.993 1.993 0 0 0-.18-.434 1.647 1.647 0 0 0-.792-.711 1.602 1.602 0 0 0-.644-.121c-.267 0-.506.043-.72.129s-.396.203-.548.355c-.152.152-.27.332-.352.537a1.764 1.764 0 0 0-.124.668c0 .186.022.365.068.535.045.172.113.344.204.516.09.174.208.354.352.537s.317.377.52.58l3.296 3.352c.203-.357.364-.732.484-1.125.12-.391.201-.785.244-1.18a.41.41 0 0 1 .096-.24.286.286 0 0 1 .224-.088h.88a6.358 6.358 0 0 1-1.104 3.473l2.4 2.432h-1.376c-.155 0-.28-.018-.376-.055a.988.988 0 0 1-.32-.232l-1.152-1.16a5.78 5.78 0 0 1-1.732 1.152 5.4 5.4 0 0 1-2.156.424c-.427 0-.845-.072-1.256-.217s-.777-.354-1.1-.627a3.144 3.144 0 0 1-.78-1.004 2.939 2.939 0 0 1-.296-1.336c0-.375.063-.727.188-1.061.125-.334.298-.641.52-.924.222-.283.484-.537.788-.76a5.19 5.19 0 0 1 1-.576 4.87 4.87 0 0 1-.72-1.201 3.23 3.23 0 0 1-.232-1.207c0-.389.07-.756.212-1.096.141-.342.345-.639.612-.893s.591-.453.972-.6.809-.219 1.284-.219zm-3.176 8.424c0 .348.064.652.192.916s.296.486.504.668.445.318.712.412c.267.094.539.141.816.141.597 0 1.133-.109 1.608-.328s.893-.51 1.256-.873l-3.384-3.416c-.565.305-.991.668-1.276 1.094a2.433 2.433 0 0 0-.428 1.386zM16.929 431.037v4.289h-1.544v-11.465h3.384c.725 0 1.356.084 1.892.252.536.168.98.406 1.332.717.352.309.614.682.788 1.119.173.438.26.926.26 1.465 0 .533-.093 1.021-.28 1.463-.187.443-.46.824-.82 1.145s-.807.57-1.34.748c-.533.18-1.144.268-1.832.268h-1.84zm0-1.23h1.84c.442 0 .833-.061 1.172-.178s.623-.281.852-.492c.229-.209.403-.461.52-.756.117-.293.176-.615.176-.967 0-.73-.225-1.301-.676-1.713-.451-.41-1.132-.615-2.044-.615h-1.84v4.721zM27.745 427.094c.485 0 .933.082 1.344.244a3 3 0 0 1 1.064.703c.298.307.532.686.7 1.137s.252.965.252 1.539c0 .225-.024.375-.072.449s-.139.111-.272.111h-5.392c.011.512.08.957.208 1.336s.304.695.528.949c.224.252.491.441.8.566.309.127.656.189 1.04.189.357 0 .665-.041.924-.125.259-.082.481-.172.668-.268s.343-.186.468-.268c.125-.084.233-.125.324-.125.117 0 .208.045.272.137l.4.52a2.762 2.762 0 0 1-.632.557 3.95 3.95 0 0 1-.788.387 5.273 5.273 0 0 1-1.756.305c-.56 0-1.076-.094-1.548-.283a3.397 3.397 0 0 1-1.224-.832 3.815 3.815 0 0 1-.804-1.357c-.192-.537-.288-1.156-.288-1.855 0-.564.087-1.094.26-1.584s.422-.916.748-1.275c.325-.359.723-.643 1.192-.848s.997-.309 1.584-.309zm.032 1.049c-.688 0-1.229.197-1.624.596-.395.396-.64.947-.736 1.652h4.408a2.86 2.86 0 0 0-.136-.908 2.006 2.006 0 0 0-.4-.713c-.176-.199-.391-.354-.644-.463s-.542-.164-.868-.164zM32.921 435.326v-8.104h.816c.155 0 .261.029.32.088s.099.158.12.303l.096 1.264c.277-.564.62-1.006 1.028-1.324a2.279 2.279 0 0 1 1.436-.475 2.135 2.135 0 0 1 1.112.287l-.184 1.064c-.038.133-.12.199-.248.199-.075 0-.189-.025-.344-.076a2.24 2.24 0 0 0-.648-.074c-.496 0-.911.143-1.244.432-.333.287-.612.707-.836 1.256v5.16h-1.424zM44.008 428.559a.316.316 0 0 1-.296.176.552.552 0 0 1-.272-.088 6.448 6.448 0 0 0-.372-.197 3.399 3.399 0 0 0-.524-.199 2.446 2.446 0 0 0-.72-.092c-.24 0-.456.029-.648.092a1.542 1.542 0 0 0-.492.252c-.136.107-.24.23-.312.371a1.006 1.006 0 0 0-.108.461c0 .207.06.381.18.52s.278.26.476.359c.197.102.421.191.672.27.25.076.508.16.772.248s.521.186.772.291c.25.107.475.24.672.4s.356.355.476.588.18.51.18.836c0 .373-.067.719-.2 1.035a2.239 2.239 0 0 1-.592.824 2.864 2.864 0 0 1-.96.549 3.955 3.955 0 0 1-1.312.199 4.111 4.111 0 0 1-1.536-.275 3.87 3.87 0 0 1-1.168-.709l.336-.543c.042-.07.093-.123.152-.16s.136-.057.232-.057a.53.53 0 0 1 .304.113c.106.074.236.156.388.248.152.09.336.172.552.248.216.074.487.111.812.111.277 0 .52-.035.728-.107s.381-.17.52-.293.241-.264.308-.424c.066-.16.1-.33.1-.512 0-.225-.06-.41-.18-.557s-.279-.271-.476-.375-.423-.195-.676-.271c-.253-.078-.512-.16-.776-.244-.264-.086-.522-.184-.776-.293s-.479-.246-.676-.412c-.198-.164-.356-.369-.476-.611s-.18-.537-.18-.885a2.17 2.17 0 0 1 .752-1.645c.246-.215.547-.387.904-.516a3.64 3.64 0 0 1 1.224-.191c.534 0 1.012.084 1.436.252.424.168.791.398 1.1.691l-.32.522zM49.593 427.094c.592 0 1.126.1 1.604.297.478.197.883.477 1.216.84.333.361.589.801.768 1.314.179.516.268 1.09.268 1.725 0 .641-.089 1.217-.268 1.729s-.435.949-.768 1.313a3.364 3.364 0 0 1-1.216.836 4.244 4.244 0 0 1-1.604.291 4.244 4.244 0 0 1-1.604-.291 3.397 3.397 0 0 1-1.22-.836 3.743 3.743 0 0 1-.776-1.313c-.182-.512-.272-1.088-.272-1.729 0-.635.09-1.209.272-1.725.181-.514.44-.953.776-1.314a3.415 3.415 0 0 1 1.22-.84 4.145 4.145 0 0 1 1.604-.297zm0 7.232c.8 0 1.397-.268 1.792-.805.395-.535.592-1.283.592-2.244 0-.965-.197-1.717-.592-2.256-.395-.539-.992-.809-1.792-.809-.406 0-.758.07-1.056.209-.299.139-.548.338-.748.6s-.35.582-.448.965c-.099.381-.148.811-.148 1.291s.049.91.148 1.289.248.697.448.955c.2.26.449.457.748.596.298.139.65.209 1.056.209zM55.208 435.326v-8.104h.848c.203 0 .331.098.384.295l.112.881c.352-.391.745-.705 1.18-.945s.938-.359 1.508-.359c.442 0 .833.074 1.172.221.338.146.621.354.848.623.227.27.398.594.516.973s.176.797.176 1.256v5.16h-1.424v-5.16c0-.613-.14-1.09-.42-1.428-.28-.34-.708-.508-1.284-.508a2.41 2.41 0 0 0-1.18.303 3.927 3.927 0 0 0-1.012.824v5.969h-1.424zM65.688 423.541v11.785h-1.424v-11.785h1.424zM70.104 424.678a.913.913 0 0 1-.084.389 1.078 1.078 0 0 1-.548.539c-.122.053-.253.08-.392.08s-.268-.027-.388-.08a1.036 1.036 0 0 1-.32-.221 1.042 1.042 0 0 1-.22-.318c-.054-.121-.08-.25-.08-.389s.026-.271.08-.396a1.023 1.023 0 0 1 .54-.547c.12-.055.249-.08.388-.08s.27.025.392.08a1.06 1.06 0 0 1 .548.547.954.954 0 0 1 .084.396zm-.32 2.545v8.104H68.36v-8.104h1.424zM75.024 427.086a4.1 4.1 0 0 1 .988.115c.307.078.585.191.836.34h2.2v.529c0 .176-.112.287-.336.336l-.92.127c.181.348.272.734.272 1.16 0 .395-.076.754-.228 1.076s-.363.6-.632.828c-.27.229-.589.406-.96.527a3.854 3.854 0 0 1-1.22.186c-.379 0-.736-.047-1.072-.137-.171.107-.3.221-.388.344s-.132.242-.132.359c0 .193.077.338.232.438.154.098.36.168.616.211.256.043.547.07.872.08.325.012.657.027.996.053.338.023.67.064.996.123.325.059.616.154.872.289.256.133.461.316.616.551s.232.539.232.912c0 .348-.086.684-.26 1.008a2.73 2.73 0 0 1-.748.869 3.882 3.882 0 0 1-1.192.607c-.47.152-1 .229-1.592.229a6.156 6.156 0 0 1-1.556-.176c-.446-.117-.815-.275-1.108-.473a2.066 2.066 0 0 1-.66-.684 1.623 1.623 0 0 1-.22-.813c0-.4.127-.74.38-1.02.253-.281.602-.504 1.044-.668a1.444 1.444 0 0 1-.548-.428c-.136-.18-.204-.418-.204-.717 0-.117.021-.238.064-.363.042-.125.108-.25.196-.373a2.074 2.074 0 0 1 .772-.649c-.4-.223-.713-.52-.94-.891-.227-.371-.34-.805-.34-1.301 0-.395.076-.752.228-1.076.152-.322.364-.598.636-.824s.596-.4.972-.523.788-.181 1.236-.181zm2.528 8.68a.696.696 0 0 0-.168-.488 1.074 1.074 0 0 0-.456-.283 3.281 3.281 0 0 0-.664-.148 10.447 10.447 0 0 0-.792-.068c-.278-.014-.56-.027-.848-.043a8.895 8.895 0 0 1-.824-.088 2.302 2.302 0 0 0-.74.527 1.066 1.066 0 0 0-.284.744c0 .182.047.35.14.508.093.156.236.293.428.408.192.115.434.205.724.271s.633.1 1.028.1c.384 0 .728-.033 1.032-.104.304-.068.561-.168.772-.295.21-.129.372-.281.484-.457.112-.176.168-.371.168-.584zm-2.528-4.401c.288 0 .542-.039.764-.119.221-.08.406-.193.556-.336a1.39 1.39 0 0 0 .336-.516 1.87 1.87 0 0 0 .112-.66c0-.496-.151-.891-.452-1.186-.301-.293-.74-.439-1.316-.439-.571 0-1.007.146-1.308.439-.301.295-.452.689-.452 1.186 0 .24.039.459.116.66.077.199.19.371.34.516.149.143.333.256.552.336s.469.119.752.119zM84.792 427.223v5.168c0 .613.141 1.088.424 1.424.282.336.709.504 1.28.504.416 0 .808-.1 1.176-.297a3.665 3.665 0 0 0 1.016-.824v-5.975h1.424v8.104h-.848c-.203 0-.331-.1-.384-.297l-.112-.871c-.352.389-.747.703-1.184.939s-.938.355-1.504.355a2.92 2.92 0 0 1-1.172-.219 2.31 2.31 0 0 1-.852-.621c-.229-.266-.401-.588-.516-.967s-.172-.799-.172-1.256v-5.168h1.424zM98.16 435.326c-.203 0-.331-.1-.384-.297l-.128-.984c-.347.422-.743.76-1.188 1.014-.445.252-.956.379-1.532.379-.464 0-.886-.09-1.264-.268a2.624 2.624 0 0 1-.968-.789c-.267-.346-.472-.777-.616-1.295s-.216-1.111-.216-1.785c0-.596.08-1.152.24-1.668.16-.514.391-.961.692-1.34a3.245 3.245 0 0 1 1.1-.891c.432-.217.923-.324 1.472-.324.496 0 .92.084 1.272.252s.667.404.944.707v-4.496h1.424v11.785h-.848zm-2.76-1.041c.464 0 .871-.105 1.22-.32.349-.213.67-.514.964-.902v-3.92c-.261-.354-.548-.6-.86-.74a2.455 2.455 0 0 0-1.036-.213c-.757 0-1.339.27-1.744.809s-.608 1.307-.608 2.303c0 .529.045.98.136 1.357.09.375.224.686.4.928s.392.42.648.531c.256.112.549.167.88.167zM100.375 427.223h1.168c.112 0 .205.029.28.088s.128.127.16.207l2.056 5.217c.075.191.133.383.176.576.043.191.083.381.12.566.042-.186.088-.375.136-.566.048-.193.109-.385.184-.576l2.08-5.217a.463.463 0 0 1 .156-.211.417.417 0 0 1 .268-.084h1.112l-3.304 8.104h-1.288l-3.304-8.104zM111.496 424.678a.913.913 0 0 1-.084.389 1.078 1.078 0 0 1-.548.539c-.122.053-.253.08-.392.08s-.268-.027-.388-.08a1.036 1.036 0 0 1-.32-.221 1.042 1.042 0 0 1-.22-.318c-.054-.121-.08-.25-.08-.389s.026-.271.08-.396a1.023 1.023 0 0 1 .54-.547c.12-.055.249-.08.388-.08s.27.025.392.08a1.06 1.06 0 0 1 .548.547.954.954 0 0 1 .084.396zm-.32 2.545v8.104h-1.424v-8.104h1.424zM115.167 423.541v6.938h.368c.106 0 .194-.016.264-.045s.147-.09.232-.18l2.56-2.744c.08-.086.16-.154.24-.209a.572.572 0 0 1 .32-.078h1.296l-2.984 3.176c-.075.09-.148.17-.22.238-.072.07-.153.131-.244.186.096.063.183.137.26.219.077.084.15.178.22.285l3.168 4h-1.28a.619.619 0 0 1-.3-.068.758.758 0 0 1-.236-.213l-2.664-3.318a.62.62 0 0 0-.24-.221.94.94 0 0 0-.36-.053h-.4v3.873h-1.432v-11.785h1.432zM123.655 423.541v11.785h-1.424v-11.785h1.424zM128.071 424.678a.913.913 0 0 1-.084.389 1.078 1.078 0 0 1-.548.539c-.122.053-.253.08-.392.08s-.268-.027-.388-.08a1.036 1.036 0 0 1-.32-.221 1.042 1.042 0 0 1-.22-.318c-.054-.121-.08-.25-.08-.389s.026-.271.08-.396a1.023 1.023 0 0 1 .54-.547c.12-.055.249-.08.388-.08s.27.025.392.08a1.06 1.06 0 0 1 .548.547.954.954 0 0 1 .084.396zm-.32 2.545v8.104h-1.424v-8.104h1.424zM130.263 435.326v-8.104h.848c.203 0 .331.098.384.295l.112.881c.352-.391.745-.705 1.18-.945s.938-.359 1.508-.359c.442 0 .833.074 1.172.221.338.146.621.354.848.623.227.27.398.594.516.973s.176.797.176 1.256v5.16h-1.424v-5.16c0-.613-.14-1.09-.42-1.428-.28-.34-.708-.508-1.284-.508a2.41 2.41 0 0 0-1.18.303 3.927 3.927 0 0 0-1.012.824v5.969h-1.424zM141.887 427.086a4.1 4.1 0 0 1 .988.115c.307.078.585.191.836.34h2.2v.529c0 .176-.112.287-.336.336l-.92.127c.181.348.272.734.272 1.16 0 .395-.076.754-.228 1.076s-.363.6-.632.828c-.27.229-.589.406-.96.527a3.854 3.854 0 0 1-1.22.186c-.379 0-.736-.047-1.072-.137-.171.107-.3.221-.388.344s-.132.242-.132.359c0 .193.077.338.232.438.154.098.36.168.616.211.256.043.547.07.872.08.325.012.657.027.996.053.338.023.67.064.996.123.325.059.616.154.872.289.256.133.461.316.616.551s.232.539.232.912c0 .348-.086.684-.26 1.008a2.73 2.73 0 0 1-.748.869 3.882 3.882 0 0 1-1.192.607c-.47.152-1 .229-1.592.229a6.156 6.156 0 0 1-1.556-.176c-.446-.117-.815-.275-1.108-.473a2.066 2.066 0 0 1-.66-.684 1.623 1.623 0 0 1-.22-.813c0-.4.127-.74.38-1.02.253-.281.602-.504 1.044-.668a1.444 1.444 0 0 1-.548-.428c-.136-.18-.204-.418-.204-.717 0-.117.021-.238.064-.363.042-.125.108-.25.196-.373a2.074 2.074 0 0 1 .772-.649c-.4-.223-.713-.52-.94-.891-.227-.371-.34-.805-.34-1.301 0-.395.076-.752.228-1.076.152-.322.364-.598.636-.824s.596-.4.972-.523.788-.181 1.236-.181zm2.528 8.68a.696.696 0 0 0-.168-.488 1.074 1.074 0 0 0-.456-.283 3.281 3.281 0 0 0-.664-.148 10.447 10.447 0 0 0-.792-.068c-.278-.014-.56-.027-.848-.043a8.895 8.895 0 0 1-.824-.088 2.302 2.302 0 0 0-.74.527 1.066 1.066 0 0 0-.284.744c0 .182.047.35.14.508.093.156.236.293.428.408.192.115.434.205.724.271s.633.1 1.028.1c.384 0 .728-.033 1.032-.104.304-.068.561-.168.772-.295.21-.129.372-.281.484-.457.112-.176.168-.371.168-.584zm-2.528-4.401c.288 0 .542-.039.764-.119.221-.08.406-.193.556-.336a1.39 1.39 0 0 0 .336-.516 1.87 1.87 0 0 0 .112-.66c0-.496-.151-.891-.452-1.186-.301-.293-.74-.439-1.316-.439-.571 0-1.007.146-1.308.439-.301.295-.452.689-.452 1.186 0 .24.039.459.116.66.077.199.19.371.34.516.149.143.333.256.552.336s.469.119.752.119zM415.633 416.125h-1.201c-.139 0-.25-.034-.336-.104s-.148-.158-.191-.265l-1.072-2.768h-5.145l-1.072 2.768a.612.612 0 0 1-.191.256.509.509 0 0 1-.336.112h-1.199l4.584-11.464h1.576l4.583 11.465zm-7.514-4.256h4.281l-1.801-4.664a8.774 8.774 0 0 1-.344-1.08c-.059.219-.115.42-.172.604a7.674 7.674 0 0 1-.164.484l-1.8 4.656zM416.855 416.125v-8.104h.816c.154 0 .262.029.32.088s.098.159.119.304l.096 1.264c.277-.565.621-1.007 1.029-1.324a2.28 2.28 0 0 1 1.436-.476 2.114 2.114 0 0 1 1.111.288l-.184 1.063c-.037.134-.119.2-.248.2a1.24 1.24 0 0 1-.344-.076c-.154-.05-.371-.075-.648-.075-.496 0-.91.144-1.244.432-.332.288-.611.707-.836 1.256v5.16h-1.423zM423.352 416.125v-11.784h1.434v4.849c.336-.39.721-.703 1.154-.94.436-.237.934-.356 1.492-.356.471 0 .895.089 1.273.265.377.176.701.438.967.788.268.349.473.781.617 1.296.143.515.215 1.107.215 1.78 0 .597-.08 1.153-.24 1.668s-.391.96-.691 1.336-.67.672-1.104.888a3.26 3.26 0 0 1-1.469.324c-.523 0-.967-.102-1.332-.305a3.007 3.007 0 0 1-.955-.848l-.072.736c-.043.202-.166.304-.369.304h-.92zm3.617-7.096c-.465 0-.871.106-1.221.319-.35.214-.67.515-.963.904v3.92c.256.353.539.601.852.744.311.144.66.216 1.043.216.758 0 1.34-.27 1.744-.808.406-.539.609-1.307.609-2.304 0-.528-.047-.981-.141-1.36s-.229-.689-.404-.933a1.573 1.573 0 0 0-.648-.531 2.172 2.172 0 0 0-.871-.167zM435.455 407.893c.486 0 .934.082 1.344.244.412.163.766.397 1.064.704s.533.686.701 1.136c.168.451.252.965.252 1.54 0 .225-.025.374-.072.448-.049.075-.139.112-.273.112h-5.391c.01.512.08.957.207 1.336.129.379.305.694.529.948.223.253.49.442.799.567.311.126.656.188 1.041.188.357 0 .664-.041.924-.124.258-.083.48-.172.668-.269.186-.096.342-.185.467-.268.127-.083.234-.124.324-.124.117 0 .209.045.273.136l.398.521a2.75 2.75 0 0 1-.631.556 3.935 3.935 0 0 1-.789.388c-.279.102-.568.178-.867.229s-.596.076-.889.076a4.122 4.122 0 0 1-1.547-.284c-.473-.189-.881-.467-1.225-.832s-.611-.817-.805-1.356c-.191-.538-.287-1.157-.287-1.855 0-.565.086-1.094.26-1.584a3.73 3.73 0 0 1 .748-1.276 3.448 3.448 0 0 1 1.191-.848c.473-.206 1-.309 1.586-.309zm.033 1.048c-.689 0-1.23.198-1.625.596s-.641.948-.736 1.652h4.408c0-.331-.045-.634-.135-.908a2.057 2.057 0 0 0-.4-.712c-.176-.2-.391-.354-.645-.464s-.542-.164-.867-.164zM442.215 408.021v8.703c0 .325-.043.628-.127.908-.086.28-.221.524-.404.732s-.422.372-.713.492a2.75 2.75 0 0 1-1.043.18 2.513 2.513 0 0 1-.912-.16l.064-.768c.01-.069.033-.113.072-.133a.411.411 0 0 1 .176-.027c.043 0 .088.001.135.004.049.003.107.004.176.004.416 0 .713-.098.889-.292s.264-.508.264-.94v-8.703h1.423zm.32-2.544c0 .14-.027.269-.084.389a1.104 1.104 0 0 1-.547.54.983.983 0 0 1-.782 0 1.066 1.066 0 0 1-.539-.54.919.919 0 0 1-.08-.389.97.97 0 0 1 .08-.396 1.054 1.054 0 0 1 .539-.548c.121-.054.25-.08.389-.08s.27.026.393.08c.121.053.23.127.322.22.094.094.168.203.225.328s.084.257.084.396zM450.398 416.125c-.203 0-.33-.099-.383-.296l-.129-.984a4.251 4.251 0 0 1-1.188 1.013c-.445.253-.957.38-1.533.38-.463 0-.885-.09-1.264-.269s-.701-.441-.967-.788c-.268-.347-.473-.778-.617-1.296-.143-.517-.215-1.111-.215-1.784 0-.597.08-1.153.24-1.668.158-.515.391-.961.691-1.34.301-.378.668-.676 1.1-.892s.922-.324 1.473-.324c.496 0 .92.084 1.271.252s.666.404.943.708v-4.496h1.424v11.784h-.846zm-2.759-1.04c.465 0 .871-.106 1.221-.32.35-.213.67-.515.963-.903v-3.92c-.262-.353-.547-.599-.859-.74s-.658-.212-1.035-.212c-.758 0-1.34.27-1.744.808-.406.539-.609 1.307-.609 2.304 0 .528.045.98.137 1.356.09.376.225.686.4.928.176.243.391.42.648.532.255.111.548.167.878.167zM456.846 407.893c.486 0 .934.082 1.344.244.412.163.766.397 1.064.704s.533.686.701 1.136c.168.451.252.965.252 1.54 0 .225-.025.374-.072.448-.049.075-.139.112-.273.112h-5.391c.01.512.08.957.207 1.336.129.379.305.694.529.948.223.253.49.442.799.567.311.126.656.188 1.041.188.357 0 .664-.041.924-.124.258-.083.48-.172.668-.269.186-.096.342-.185.467-.268.127-.083.234-.124.324-.124.117 0 .209.045.273.136l.398.521a2.75 2.75 0 0 1-.631.556 3.935 3.935 0 0 1-.789.388c-.279.102-.568.178-.867.229s-.596.076-.889.076a4.122 4.122 0 0 1-1.547-.284c-.473-.189-.881-.467-1.225-.832s-.611-.817-.805-1.356c-.191-.538-.287-1.157-.287-1.855 0-.565.086-1.094.26-1.584a3.73 3.73 0 0 1 .748-1.276 3.448 3.448 0 0 1 1.191-.848c.472-.206 1-.309 1.586-.309zm.033 1.048c-.689 0-1.23.198-1.625.596s-.641.948-.736 1.652h4.408c0-.331-.045-.634-.135-.908a2.057 2.057 0 0 0-.4-.712c-.176-.2-.391-.354-.645-.464s-.543-.164-.867-.164zM469.223 404.533c.42 0 .805.067 1.15.204.348.136.648.315.9.54.254.224.453.483.6.779.148.296.232.604.252.925l-.887.176a.365.365 0 0 1-.267-.048c-.063-.038-.105-.104-.133-.2a1.967 1.967 0 0 0-.18-.433 1.695 1.695 0 0 0-.32-.407 1.612 1.612 0 0 0-.473-.305 1.6 1.6 0 0 0-.643-.12 1.91 1.91 0 0 0-.721.129 1.62 1.62 0 0 0-.549.355c-.15.152-.27.331-.352.536s-.123.428-.123.668c0 .187.021.365.066.536.047.171.113.343.205.516.09.174.207.353.352.536.145.185.318.378.52.58l3.297 3.352c.203-.356.363-.731.484-1.124.119-.392.201-.785.244-1.18a.407.407 0 0 1 .096-.24c.053-.059.127-.088.225-.088h.879a6.363 6.363 0 0 1-1.104 3.473l2.4 2.432h-1.377c-.154 0-.279-.019-.375-.056a.968.968 0 0 1-.32-.232l-1.152-1.16a5.762 5.762 0 0 1-1.732 1.152 5.376 5.376 0 0 1-2.156.424 3.77 3.77 0 0 1-1.256-.216c-.41-.145-.777-.354-1.1-.628s-.582-.609-.779-1.004-.297-.84-.297-1.336a3 3 0 0 1 .188-1.061c.127-.333.299-.641.521-.924.221-.282.482-.536.787-.76a5.221 5.221 0 0 1 1-.576 4.902 4.902 0 0 1-.721-1.2 3.254 3.254 0 0 1-.23-1.208c0-.389.07-.755.211-1.096a2.6 2.6 0 0 1 .613-.893c.266-.253.59-.453.971-.6s.811-.218 1.286-.218zm-3.178 8.424c0 .347.064.652.193.916.127.264.295.486.504.668.207.182.445.318.711.412.268.093.539.14.816.14.598 0 1.133-.109 1.607-.328s.895-.509 1.258-.872l-3.385-3.416c-.566.305-.99.668-1.275 1.093a2.434 2.434 0 0 0-.429 1.387zM404.209 434.093c.475 0 .898-.079 1.271-.239s.689-.385.949-.672c.258-.288.455-.633.592-1.032.135-.4.203-.84.203-1.32v-6.968h1.545v6.968c0 .661-.105 1.274-.316 1.84s-.512 1.055-.904 1.468a4.144 4.144 0 0 1-1.436.973c-.566.234-1.201.352-1.904.352-.705 0-1.34-.117-1.904-.352s-1.045-.559-1.439-.973c-.395-.413-.697-.902-.908-1.468s-.316-1.179-.316-1.84v-6.968h1.545v6.96c0 .479.066.92.203 1.32.137.399.334.743.592 1.031.26.288.576.514.953.677.374.162.799.243 1.274.243zM416.912 435.325c-.203 0-.33-.099-.383-.296l-.129-.984a4.251 4.251 0 0 1-1.188 1.013c-.445.253-.957.38-1.533.38-.463 0-.885-.09-1.264-.269s-.701-.441-.967-.788c-.268-.347-.473-.778-.617-1.296-.143-.517-.215-1.111-.215-1.784 0-.597.08-1.153.24-1.668.158-.515.391-.961.691-1.34.301-.378.668-.676 1.1-.892s.922-.324 1.473-.324c.496 0 .92.084 1.271.252s.666.404.943.708v-4.496h1.424v11.784h-.846zm-2.76-1.04c.465 0 .871-.106 1.221-.32.35-.213.67-.515.963-.903v-3.92c-.262-.353-.547-.599-.859-.74s-.658-.212-1.035-.212c-.758 0-1.34.27-1.744.808-.406.539-.609 1.307-.609 2.304 0 .528.045.98.137 1.356.09.376.225.686.4.928.176.243.391.42.648.532.255.111.548.167.878.167zM425.855 435.325c-.203 0-.33-.099-.383-.296l-.129-.984a4.251 4.251 0 0 1-1.188 1.013c-.445.253-.957.38-1.533.38-.463 0-.885-.09-1.264-.269s-.701-.441-.967-.788c-.268-.347-.473-.778-.617-1.296-.143-.517-.215-1.111-.215-1.784 0-.597.08-1.153.24-1.668.158-.515.391-.961.691-1.34.301-.378.668-.676 1.1-.892s.922-.324 1.473-.324c.496 0 .92.084 1.271.252s.666.404.943.708v-4.496h1.424v11.784h-.846zm-2.759-1.04c.465 0 .871-.106 1.221-.32.35-.213.67-.515.963-.903v-3.92c-.262-.353-.547-.599-.859-.74s-.658-.212-1.035-.212c-.758 0-1.34.27-1.744.808-.406.539-.609 1.307-.609 2.304 0 .528.045.98.137 1.356.09.376.225.686.4.928.176.243.391.42.648.532.255.111.548.167.878.167zM435.047 435.325h-.631a.745.745 0 0 1-.336-.064c-.086-.042-.143-.133-.168-.271l-.16-.752a9.754 9.754 0 0 1-.625.516c-.203.152-.416.28-.641.384a3.208 3.208 0 0 1-.715.236c-.254.054-.535.08-.844.08-.314 0-.609-.044-.885-.132s-.514-.22-.715-.396a1.864 1.864 0 0 1-.484-.668 2.317 2.317 0 0 1-.18-.956c0-.319.088-.628.264-.924s.459-.559.852-.788c.393-.229.904-.417 1.539-.563s1.412-.23 2.328-.252v-.632c0-.63-.135-1.105-.402-1.429-.27-.322-.668-.483-1.197-.483-.346 0-.639.044-.875.132a3.348 3.348 0 0 0-.617.296c-.172.109-.322.208-.447.296s-.25.132-.373.132a.424.424 0 0 1-.252-.076.595.595 0 0 1-.172-.188l-.256-.456a4.641 4.641 0 0 1 1.449-.968 4.45 4.45 0 0 1 1.719-.32c.453 0 .857.075 1.209.224.352.149.648.357.887.624.24.268.422.59.545.969.123.378.184.794.184 1.248v5.181zm-3.695-.872c.25 0 .48-.025.688-.076a2.68 2.68 0 0 0 .588-.216c.184-.093.359-.207.527-.34.17-.134.332-.285.492-.456v-1.688c-.654.021-1.213.074-1.672.156-.459.083-.832.191-1.119.324-.289.134-.498.291-.629.472a1.016 1.016 0 0 0-.195.608c0 .213.035.397.104.552.07.155.164.281.281.38s.256.171.416.216c.159.046.331.068.519.068zM437.207 435.325v-8.104h.848c.203 0 .33.099.385.296l.111.88c.352-.39.744-.704 1.18-.944s.938-.36 1.508-.36c.443 0 .834.074 1.172.221.34.146.621.354.848.624s.398.593.518.972c.117.379.176.798.176 1.256v5.16h-1.424v-5.16c0-.613-.141-1.089-.42-1.428-.281-.339-.709-.508-1.285-.508a2.4 2.4 0 0 0-1.18.304 3.906 3.906 0 0 0-1.012.824v5.968h-1.425zM446.104 435.325v-8.104h.848c.203 0 .33.099.385.296l.111.88c.352-.39.744-.704 1.18-.944s.938-.36 1.508-.36c.443 0 .834.074 1.172.221.34.146.621.354.848.624s.398.593.518.972c.117.379.176.798.176 1.256v5.16h-1.424v-5.16c0-.613-.141-1.089-.42-1.428-.281-.339-.709-.508-1.285-.508a2.4 2.4 0 0 0-1.18.304 3.906 3.906 0 0 0-1.012.824v5.968h-1.425zM458.207 427.093c.486 0 .934.082 1.344.244.412.163.766.397 1.064.704s.533.686.701 1.136c.168.451.252.965.252 1.54 0 .225-.025.374-.072.448-.049.075-.139.112-.273.112h-5.391c.01.512.08.957.207 1.336.129.379.305.694.529.948.223.253.49.442.799.567.311.126.656.188 1.041.188.357 0 .664-.041.924-.124.258-.083.48-.172.668-.269.186-.096.342-.185.467-.268.127-.083.234-.124.324-.124.117 0 .209.045.273.136l.398.521a2.75 2.75 0 0 1-.631.556 3.935 3.935 0 0 1-.789.388c-.279.102-.568.178-.867.229s-.596.076-.889.076a4.122 4.122 0 0 1-1.547-.284c-.473-.189-.881-.467-1.225-.832s-.611-.817-.805-1.356c-.191-.538-.287-1.157-.287-1.855 0-.565.086-1.094.26-1.584a3.73 3.73 0 0 1 .748-1.276 3.448 3.448 0 0 1 1.191-.848c.473-.206 1-.309 1.586-.309zm.033 1.049c-.689 0-1.23.198-1.625.596s-.641.948-.736 1.652h4.408c0-.331-.045-.634-.135-.908a2.057 2.057 0 0 0-.4-.712c-.176-.2-.391-.354-.645-.464s-.543-.164-.867-.164zM464.967 423.541v11.784h-1.424v-11.784h1.424zM472.119 428.558a.316.316 0 0 1-.297.176c-.08 0-.17-.029-.271-.088s-.225-.124-.371-.196-.322-.139-.525-.2a2.459 2.459 0 0 0-.719-.092c-.24 0-.457.03-.648.092s-.355.146-.492.252c-.137.107-.24.231-.313.372a1 1 0 0 0-.107.46c0 .208.061.382.18.521.121.139.279.259.477.359.197.102.422.191.672.269s.508.16.771.248.521.186.771.292c.252.106.475.239.674.399.197.16.355.356.475.588.121.232.18.511.18.836 0 .374-.066.719-.199 1.036s-.33.593-.592.824a2.857 2.857 0 0 1-.961.548c-.379.134-.814.2-1.311.2a4.097 4.097 0 0 1-1.537-.276 3.888 3.888 0 0 1-1.168-.708l.336-.544a.495.495 0 0 1 .152-.159c.059-.038.137-.057.232-.057s.197.037.303.112c.107.074.236.157.389.248s.336.173.553.248c.215.074.486.111.813.111.275 0 .52-.035.727-.107.209-.072.381-.169.52-.292s.242-.264.309-.424.1-.331.1-.513a.844.844 0 0 0-.18-.556 1.52 1.52 0 0 0-.475-.376 3.909 3.909 0 0 0-.678-.271 65.221 65.221 0 0 1-.775-.244 8.882 8.882 0 0 1-.775-.292c-.254-.109-.479-.247-.676-.412s-.357-.369-.477-.612c-.119-.242-.18-.537-.18-.884a2.179 2.179 0 0 1 .752-1.645c.244-.216.547-.388.904-.516s.764-.192 1.223-.192a3.89 3.89 0 0 1 1.438.252 3.44 3.44 0 0 1 1.1.692l-.324.521zM477.631 427.093c.486 0 .934.082 1.344.244.412.163.766.397 1.064.704s.533.686.701 1.136c.168.451.252.965.252 1.54 0 .225-.025.374-.072.448-.049.075-.139.112-.273.112h-5.391c.01.512.08.957.207 1.336.129.379.305.694.529.948.223.253.49.442.799.567.311.126.656.188 1.041.188.357 0 .664-.041.924-.124.258-.083.48-.172.668-.269.186-.096.342-.185.467-.268.127-.083.234-.124.324-.124.117 0 .209.045.273.136l.398.521a2.75 2.75 0 0 1-.631.556 3.935 3.935 0 0 1-.789.388c-.279.102-.568.178-.867.229s-.596.076-.889.076a4.122 4.122 0 0 1-1.547-.284c-.473-.189-.881-.467-1.225-.832s-.611-.817-.805-1.356c-.191-.538-.287-1.157-.287-1.855 0-.565.086-1.094.26-1.584a3.73 3.73 0 0 1 .748-1.276 3.448 3.448 0 0 1 1.191-.848c.473-.206 1-.309 1.586-.309zm.033 1.049c-.689 0-1.23.198-1.625.596s-.641.948-.736 1.652h4.408c0-.331-.045-.634-.135-.908a2.057 2.057 0 0 0-.4-.712c-.176-.2-.391-.354-.645-.464s-.543-.164-.867-.164z"/><path fill="none" stroke="#231F20" stroke-miterlimit="10" d="M470 240c0 115.968-94.021 210-210 210S50 355.968 50 240 144.021 30 260 30s210 94.032 210 210z"/></svg>