<svg xml:space="preserve" width="800" height="400" viewBox="-0.5 -0.5 800 400" xmlns="http://www.w3.org/2000/svg"><circle cx="399.5" cy="199.5" r="195" fill="#F30" stroke="#231F20" stroke-miterlimit="10"/><circle cx="399.5" cy="199.5" r="75" fill="#FF9"/><path d="M354.584 195.467c-.232-.385-.402-.771-.51-1.158s-.162-.774-.162-1.158c0-.72.178-1.41.534-2.07s.854-1.266 1.494-1.817l.659.407a.312.312 0 0 1 .127.133.392.392 0 0 1-.09.432 8.22 8.22 0 0 0-.373.504 4.506 4.506 0 0 0-.323.558 3.13 3.13 0 0 0-.228.618 2.673 2.673 0 0 0-.084.685c0 .256.037.52.113.792.076.271.206.56.391.863a.52.52 0 0 1 .084.276c0 .192-.108.328-.324.408l-1.308.527zm3.648 0a4.687 4.687 0 0 1-.51-1.158 4.302 4.302 0 0 1-.162-1.158c0-.72.178-1.41.533-2.07.356-.66.854-1.266 1.494-1.817l.66.407a.318.318 0 0 1 .127.133.393.393 0 0 1-.091.432c-.128.16-.252.328-.372.504a4.512 4.512 0 0 0-.324.558c-.096.196-.172.402-.228.618s-.084.444-.084.685c0 .256.038.52.114.792.076.271.205.56.39.863a.512.512 0 0 1 .084.276c0 .192-.108.328-.323.408l-1.308.527zM372.848 193.102a.9.9 0 0 1-.228.27.502.502 0 0 1-.312.09c-.137 0-.295-.067-.475-.203a7.347 7.347 0 0 0-.684-.45 5.55 5.55 0 0 0-.996-.45c-.389-.136-.857-.204-1.41-.204-.52 0-.98.07-1.38.21-.4.141-.734.33-1.002.57a2.32 2.32 0 0 0-.606.846 2.685 2.685 0 0 0-.203 1.05c0 .48.117.878.354 1.194s.548.586.936.81c.389.225.828.419 1.32.582.492.164.996.334 1.512.511a17.57 17.57 0 0 1 1.512.594 5.3 5.3 0 0 1 1.32.834c.389.336.7.748.937 1.236.235.487.354 1.088.354 1.8 0 .752-.129 1.458-.385 2.118a4.9 4.9 0 0 1-1.122 1.722c-.491.488-1.097.872-1.812 1.152-.717.279-1.53.42-2.442.42-1.112 0-2.126-.202-3.042-.606s-1.697-.95-2.346-1.638l.672-1.104a.884.884 0 0 1 .234-.222.538.538 0 0 1 .306-.09c.168 0 .36.09.575.27.217.181.486.378.811.595.324.216.716.413 1.176.594.461.18 1.021.27 1.686.27.553 0 1.045-.076 1.477-.228a3.113 3.113 0 0 0 1.098-.643c.301-.275.53-.605.69-.989.16-.385.24-.813.24-1.284 0-.521-.118-.946-.354-1.278s-.546-.609-.93-.834a6.5 6.5 0 0 0-1.314-.57l-1.512-.479c-.516-.164-1.02-.354-1.512-.57s-.93-.496-1.314-.84-.693-.774-.93-1.29-.354-1.153-.354-1.914c0-.607.117-1.195.354-1.764s.578-1.072 1.025-1.512c.449-.44 1.002-.792 1.662-1.057.66-.264 1.418-.396 2.274-.396.96 0 1.836.151 2.628.456a6.05 6.05 0 0 1 2.076 1.319l-.564 1.102zM376.424 207.61v-12.156h1.272c.304 0 .496.148.576.444l.155 1.248a6.259 6.259 0 0 1 1.507-1.356c.556-.352 1.202-.527 1.938-.527.823 0 1.489.228 1.998.684.508.456.873 1.072 1.098 1.848a3.83 3.83 0 0 1 .666-1.14 3.872 3.872 0 0 1 2.028-1.248 4.91 4.91 0 0 1 1.182-.144c.641 0 1.211.102 1.711.306s.924.502 1.271.894c.348.393.614.875.799 1.446.184.572.275 1.227.275 1.962v7.74h-2.137v-7.74c0-.952-.207-1.674-.623-2.166s-1.02-.737-1.813-.737c-.352 0-.686.062-1.002.186s-.594.306-.834.546-.43.542-.57.906c-.14.364-.209.786-.209 1.266v7.74h-2.137v-7.74c0-.976-.195-1.704-.588-2.184-.393-.48-.964-.72-1.716-.72-.528 0-1.019.142-1.47.426-.453.284-.866.67-1.242 1.158v9.06h-2.135zM400.94 195.262c.728 0 1.399.122 2.017.365a4.546 4.546 0 0 1 1.596 1.057c.447.46.798 1.028 1.05 1.704s.378 1.445.378 2.31c0 .336-.036.561-.107.672-.072.112-.209.168-.408.168h-8.088c.016.769.119 1.437.312 2.004.192.568.456 1.043.792 1.422.336.381.736.665 1.2.853.464.188.983.282 1.56.282.536 0 .998-.063 1.387-.187a6.792 6.792 0 0 0 1.703-.803c.188-.124.35-.187.486-.187.176 0 .313.068.408.204l.6.78a4.05 4.05 0 0 1-.947.834 5.884 5.884 0 0 1-1.183.582c-.42.152-.854.267-1.302.342a7.961 7.961 0 0 1-1.332.114 6.2 6.2 0 0 1-2.322-.426c-.708-.284-1.32-.7-1.836-1.248s-.918-1.226-1.206-2.034c-.288-.808-.432-1.735-.432-2.784 0-.848.13-1.64.39-2.376.26-.735.635-1.374 1.122-1.914s1.084-.964 1.788-1.271c.703-.309 1.495-.463 2.374-.463zm.048 1.572c-1.031 0-1.844.299-2.436.895s-.961 1.422-1.104 2.478h6.612c0-.496-.068-.949-.204-1.361s-.336-.769-.601-1.068a2.69 2.69 0 0 0-.965-.696 3.22 3.22 0 0 0-1.302-.248zM408.703 207.61v-12.156h1.225c.232 0 .392.044.48.132.088.089.147.24.18.456l.144 1.896c.416-.848.931-1.51 1.542-1.986.612-.476 1.33-.714 2.154-.714.336 0 .64.038.912.114.271.076.523.182.756.317l-.275 1.597c-.057.2-.181.3-.373.3-.111 0-.283-.038-.516-.114s-.557-.114-.973-.114c-.743 0-1.365.217-1.865.648s-.918 1.061-1.254 1.884v7.74h-2.137zM422.061 207.802c-.961 0-1.699-.269-2.215-.805-.516-.535-.773-1.308-.773-2.315v-7.44h-1.465a.478.478 0 0 1-.323-.114c-.089-.075-.132-.193-.132-.354v-.853l1.992-.252.492-3.756c.016-.12.067-.218.155-.294s.2-.113.336-.113h1.08v4.188h3.479v1.548h-3.479v7.296c0 .513.124.893.372 1.141s.568.372.96.372c.224 0 .418-.03.582-.091.164-.06.306-.126.426-.197.12-.072.222-.139.306-.198a.393.393 0 0 1 .223-.09c.111 0 .212.067.3.204l.624 1.02a4.008 4.008 0 0 1-1.332.811 4.578 4.578 0 0 1-1.608.292zM432.14 195.262c.728 0 1.399.122 2.017.365a4.546 4.546 0 0 1 1.596 1.057c.447.46.798 1.028 1.05 1.704s.378 1.445.378 2.31c0 .336-.036.561-.107.672-.072.112-.209.168-.408.168h-8.088c.016.769.119 1.437.312 2.004.192.568.456 1.043.792 1.422.336.381.736.665 1.2.853.464.188.983.282 1.56.282.536 0 .998-.063 1.387-.187a6.792 6.792 0 0 0 1.703-.803c.188-.124.35-.187.486-.187.176 0 .313.068.408.204l.6.78a4.05 4.05 0 0 1-.947.834 5.884 5.884 0 0 1-1.183.582c-.42.152-.854.267-1.302.342a7.961 7.961 0 0 1-1.332.114 6.2 6.2 0 0 1-2.322-.426c-.708-.284-1.32-.7-1.836-1.248s-.918-1.226-1.206-2.034c-.288-.808-.432-1.735-.432-2.784 0-.848.13-1.64.39-2.376.26-.735.635-1.374 1.122-1.914s1.084-.964 1.788-1.271c.702-.309 1.494-.463 2.374-.463zm.048 1.572c-1.031 0-1.844.299-2.436.895s-.961 1.422-1.104 2.478h6.612c0-.496-.068-.949-.204-1.361s-.336-.769-.601-1.068a2.69 2.69 0 0 0-.965-.696 3.227 3.227 0 0 0-1.302-.248zM440.299 189.514c.232.384.4.768.504 1.151a4.332 4.332 0 0 1-.377 3.234c-.356.66-.851 1.266-1.482 1.818l-.66-.408a.307.307 0 0 1-.126-.132.395.395 0 0 1 .091-.433 5.283 5.283 0 0 0 .695-1.061c.095-.196.172-.402.229-.618.055-.216.084-.444.084-.684 0-.257-.039-.521-.114-.792a3.5 3.5 0 0 0-.39-.864.48.48 0 0 1-.084-.265c0-.191.107-.331.323-.42l1.307-.526zm3.648 0c.232.384.4.768.504 1.151a4.322 4.322 0 0 1-.378 3.234c-.356.66-.851 1.266-1.481 1.818l-.66-.408a.31.31 0 0 1-.127-.132.394.394 0 0 1 .091-.433 5.288 5.288 0 0 0 .696-1.061c.095-.196.172-.402.228-.618s.084-.444.084-.684c0-.257-.038-.521-.114-.792a3.464 3.464 0 0 0-.39-.864.49.49 0 0 1-.084-.265c0-.191.108-.331.323-.42l1.308-.526z"/><g fill="#FFF"><path d="M355.881 75.466c-.232-.385-.402-.771-.511-1.158s-.162-.774-.162-1.158c0-.72.179-1.41.534-2.07s.854-1.266 1.494-1.817l.66.407a.306.306 0 0 1 .156.277.394.394 0 0 1-.121.288c-.127.16-.252.328-.371.504-.12.176-.229.362-.324.558a3.335 3.335 0 0 0-.229.618 2.718 2.718 0 0 0-.084.685c0 .256.038.52.114.792.076.271.206.56.39.863a.503.503 0 0 1 .084.276c0 .192-.107.328-.324.408l-1.306.527zm3.647 0a4.73 4.73 0 0 1-.511-1.158 4.34 4.34 0 0 1-.161-1.158c0-.72.178-1.41.534-2.07.355-.66.854-1.266 1.494-1.817l.66.407a.306.306 0 0 1 .125.133.393.393 0 0 1-.09.432c-.128.16-.252.328-.372.504s-.228.362-.323.558a3.198 3.198 0 0 0-.229.618 2.673 2.673 0 0 0-.084.685c0 .256.037.52.113.792.076.271.207.56.391.863a.503.503 0 0 1 .084.276c0 .192-.107.328-.324.408l-1.307.527zM367.664 85.653h7.439v1.956h-9.768V70.413h2.328v15.24zM380.191 71.637c0 .208-.041.401-.125.582-.084.18-.197.34-.336.479-.141.141-.303.25-.486.33s-.381.12-.588.12c-.209 0-.402-.04-.582-.12s-.34-.189-.48-.33c-.14-.14-.25-.3-.33-.479a1.509 1.509 0 0 1 0-1.177c.08-.188.19-.352.33-.491.141-.141.301-.25.48-.33s.373-.12.582-.12c.207 0 .404.04.588.12s.346.189.486.33c.139.14.252.304.336.491.084.189.125.387.125.595zm-.479 3.816v12.156h-2.136V75.453h2.136zM392.036 87.609c-.304 0-.496-.147-.576-.444l-.192-1.476a6.395 6.395 0 0 1-1.781 1.518c-.668.381-1.434.57-2.299.57a4.391 4.391 0 0 1-1.896-.402 3.93 3.93 0 0 1-1.452-1.182c-.4-.52-.708-1.168-.924-1.944-.216-.775-.324-1.668-.324-2.676 0-.896.12-1.729.36-2.502a6.099 6.099 0 0 1 1.038-2.01 4.856 4.856 0 0 1 1.65-1.338c.647-.324 1.383-.486 2.207-.486.744 0 1.381.126 1.908.378.528.252 1 .606 1.416 1.063v-6.744h2.137V87.61h-1.272zm-4.14-1.559c.695 0 1.306-.16 1.83-.48.523-.32 1.006-.771 1.445-1.356v-5.88c-.393-.527-.822-.897-1.29-1.109s-.985-.318-1.554-.318c-1.137 0-2.008.404-2.616 1.212-.608.809-.912 1.96-.912 3.456 0 .792.067 1.47.204 2.034.137.563.336 1.028.6 1.392.265.364.588.63.973.799.384.166.824.25 1.32.25zM401.707 75.261c.729 0 1.4.122 2.017.365.616.244 1.147.597 1.596 1.057s.798 1.028 1.05 1.704.379 1.445.379 2.31c0 .336-.037.561-.108.672-.072.112-.208.168-.408.168h-8.088c.017.769.12 1.437.312 2.004.192.568.457 1.043.793 1.422.336.381.735.665 1.199.853.465.188.984.282 1.561.282.535 0 .998-.063 1.386-.187a6.704 6.704 0 0 0 1.704-.803c.187-.124.35-.187.486-.187a.47.47 0 0 1 .408.204l.6.78c-.264.32-.58.599-.948.834a5.858 5.858 0 0 1-1.183.582c-.42.152-.854.267-1.301.342a7.97 7.97 0 0 1-1.332.114c-.84 0-1.615-.143-2.322-.426a5.088 5.088 0 0 1-1.836-1.248c-.517-.548-.918-1.226-1.207-2.034-.287-.808-.432-1.735-.432-2.784 0-.848.131-1.64.391-2.376a5.624 5.624 0 0 1 1.121-1.914 5.144 5.144 0 0 1 1.789-1.271c.701-.309 1.494-.463 2.373-.463zm.049 1.572c-1.032 0-1.844.299-2.437.895-.592.596-.96 1.422-1.104 2.478h6.613a4.29 4.29 0 0 0-.205-1.361c-.136-.412-.336-.769-.6-1.068s-.586-.532-.966-.696-.813-.248-1.301-.248zM411.848 69.933v17.676h-2.137V69.933h2.137zM422.575 77.457a.473.473 0 0 1-.444.265.839.839 0 0 1-.408-.132 8.538 8.538 0 0 0-.558-.295 5.422 5.422 0 0 0-.786-.3 3.75 3.75 0 0 0-1.08-.138c-.359 0-.684.046-.972.138a2.36 2.36 0 0 0-.737.378c-.205.16-.36.347-.469.559a1.507 1.507 0 0 0-.162.689c0 .313.09.572.271.78.18.208.418.388.714.54s.632.286 1.008.402c.376.115.762.239 1.158.372.396.132.781.277 1.158.438.375.16.711.36 1.008.6.296.24.533.534.714.883.181.348.271.766.271 1.254 0 .56-.101 1.078-.301 1.554a3.371 3.371 0 0 1-.888 1.236 4.264 4.264 0 0 1-1.44.821c-.568.2-1.224.301-1.968.301-.848 0-1.616-.139-2.304-.414a5.832 5.832 0 0 1-1.752-1.063l.504-.815a.715.715 0 0 1 .229-.24.638.638 0 0 1 .348-.084c.144 0 .296.056.455.168.16.112.354.236.582.372.229.136.505.26.828.372.324.112.73.168 1.219.168a3.37 3.37 0 0 0 1.092-.162 2.27 2.27 0 0 0 .779-.438c.209-.184.363-.396.463-.636s.15-.496.15-.768c0-.336-.091-.614-.271-.834a2.276 2.276 0 0 0-.714-.564 5.883 5.883 0 0 0-1.014-.408 60.373 60.373 0 0 1-1.164-.365 13 13 0 0 1-1.164-.438c-.381-.164-.719-.37-1.015-.618s-.534-.554-.714-.918-.27-.806-.27-1.326a3.252 3.252 0 0 1 1.127-2.466c.369-.324.82-.582 1.356-.773.536-.192 1.147-.288 1.837-.288.799 0 1.518.126 2.153.378s1.187.598 1.649 1.038l-.478.777zM430.843 75.261c.728 0 1.399.122 2.017.365a4.546 4.546 0 0 1 1.596 1.057c.447.46.798 1.028 1.05 1.704s.378 1.445.378 2.31c0 .336-.036.561-.107.672-.072.112-.209.168-.408.168h-8.088c.016.769.119 1.437.312 2.004.192.568.456 1.043.792 1.422.336.381.736.665 1.2.853.464.188.983.282 1.56.282.536 0 .998-.063 1.387-.187a6.792 6.792 0 0 0 1.703-.803c.188-.124.35-.187.486-.187.176 0 .313.068.408.204l.6.78a4.05 4.05 0 0 1-.947.834 5.884 5.884 0 0 1-1.183.582c-.42.152-.854.267-1.302.342a7.961 7.961 0 0 1-1.332.114 6.2 6.2 0 0 1-2.322-.426c-.708-.284-1.32-.7-1.836-1.248s-.918-1.226-1.206-2.034c-.288-.808-.432-1.735-.432-2.784 0-.848.13-1.64.39-2.376.26-.735.635-1.374 1.122-1.914s1.084-.964 1.788-1.271c.702-.309 1.494-.463 2.374-.463zm.048 1.572c-1.031 0-1.844.299-2.436.895s-.961 1.422-1.104 2.478h6.612c0-.496-.068-.949-.204-1.361s-.336-.769-.601-1.068a2.69 2.69 0 0 0-.965-.696 3.224 3.224 0 0 0-1.302-.248zM439.003 69.513c.231.384.399.768.504 1.151a4.333 4.333 0 0 1-.378 3.234c-.355.66-.85 1.266-1.482 1.818l-.66-.408a.304.304 0 0 1-.125-.132.394.394 0 0 1 .09-.433 5.283 5.283 0 0 0 .695-1.061c.097-.196.172-.402.229-.618.056-.216.084-.444.084-.684 0-.257-.038-.521-.113-.792a3.506 3.506 0 0 0-.391-.864.48.48 0 0 1-.084-.265c0-.191.107-.331.324-.42l1.307-.526zm3.647 0c.232.384.4.768.504 1.151a4.332 4.332 0 0 1-.377 3.234c-.356.66-.851 1.266-1.482 1.818l-.66-.408a.307.307 0 0 1-.126-.132.395.395 0 0 1 .091-.433 5.283 5.283 0 0 0 .695-1.061c.095-.196.172-.402.229-.618.055-.216.084-.444.084-.684 0-.257-.039-.521-.114-.792a3.5 3.5 0 0 0-.39-.864.48.48 0 0 1-.084-.265c0-.191.107-.331.323-.42l1.307-.526z"/></g><path fill="none" d="M415 247h6.5z"/></svg>