<?xml version="1.0" encoding="utf-8"?>
<!-- Generator: Adobe Illustrator 16.0.3, SVG Export Plug-In . SVG Version: 6.00 Build 0)  -->
<!DOCTYPE svg PUBLIC "-//W3C//DTD SVG 1.1//EN" "http://www.w3.org/Graphics/SVG/1.1/DTD/svg11.dtd">
<svg version="1.1" id="Layer_1" xmlns="http://www.w3.org/2000/svg" xmlns:xlink="http://www.w3.org/1999/xlink" x="0px" y="0px"
	 width="800px" height="400px" viewBox="-0.5 -0.5 800 400" enable-background="new -0.5 -0.5 800 400" xml:space="preserve">
<circle fill="#FF3300" stroke="#231F20" stroke-miterlimit="10" cx="399.5" cy="199.5" r="195"/>
<circle fill="#FFFF99" cx="399.5" cy="199.5" r="75"/>
<g enable-background="new    ">
	<path d="M354.584,195.467c-0.232-0.385-0.402-0.771-0.51-1.158s-0.162-0.774-0.162-1.158c0-0.72,0.178-1.41,0.534-2.07
		s0.854-1.266,1.494-1.817l0.659,0.407c0.064,0.041,0.106,0.084,0.127,0.133c0.02,0.048,0.029,0.096,0.029,0.144
		c0,0.112-0.039,0.208-0.119,0.288c-0.129,0.16-0.252,0.328-0.373,0.504c-0.119,0.176-0.228,0.362-0.323,0.558
		c-0.097,0.196-0.173,0.402-0.228,0.618c-0.057,0.216-0.084,0.444-0.084,0.685c0,0.256,0.037,0.52,0.113,0.792
		c0.076,0.271,0.206,0.56,0.391,0.863c0.055,0.089,0.084,0.181,0.084,0.276c0,0.192-0.108,0.328-0.324,0.408L354.584,195.467z
		 M358.232,195.467c-0.232-0.385-0.402-0.771-0.51-1.158c-0.108-0.388-0.162-0.774-0.162-1.158c0-0.72,0.178-1.41,0.533-2.07
		c0.356-0.66,0.854-1.266,1.494-1.817l0.66,0.407c0.064,0.041,0.105,0.084,0.127,0.133c0.02,0.048,0.029,0.096,0.029,0.144
		c0,0.112-0.04,0.208-0.12,0.288c-0.128,0.16-0.252,0.328-0.372,0.504c-0.119,0.176-0.229,0.362-0.324,0.558
		c-0.096,0.196-0.172,0.402-0.228,0.618s-0.084,0.444-0.084,0.685c0,0.256,0.038,0.52,0.114,0.792
		c0.076,0.271,0.205,0.56,0.39,0.863c0.056,0.089,0.084,0.181,0.084,0.276c0,0.192-0.108,0.328-0.323,0.408L358.232,195.467z"/>
	<path d="M372.848,193.102c-0.071,0.12-0.147,0.21-0.228,0.27c-0.08,0.061-0.185,0.09-0.312,0.09c-0.137,0-0.295-0.067-0.475-0.203
		c-0.18-0.137-0.408-0.286-0.684-0.45c-0.276-0.164-0.608-0.314-0.996-0.45c-0.389-0.136-0.857-0.204-1.41-0.204
		c-0.52,0-0.98,0.07-1.38,0.21c-0.4,0.141-0.734,0.33-1.002,0.57c-0.269,0.24-0.47,0.521-0.606,0.846
		c-0.136,0.324-0.203,0.674-0.203,1.05c0,0.48,0.117,0.878,0.354,1.194s0.548,0.586,0.936,0.81c0.389,0.225,0.828,0.419,1.32,0.582
		c0.492,0.164,0.996,0.334,1.512,0.511c0.516,0.176,1.021,0.374,1.512,0.594c0.492,0.22,0.933,0.498,1.32,0.834
		c0.389,0.336,0.7,0.748,0.937,1.236c0.235,0.487,0.354,1.088,0.354,1.8c0,0.752-0.129,1.458-0.385,2.118
		c-0.256,0.659-0.63,1.233-1.122,1.722c-0.491,0.488-1.097,0.872-1.812,1.152c-0.717,0.279-1.53,0.42-2.442,0.42
		c-1.112,0-2.126-0.202-3.042-0.606s-1.697-0.95-2.346-1.638l0.672-1.104c0.064-0.088,0.142-0.162,0.234-0.222
		c0.092-0.061,0.193-0.09,0.306-0.09c0.168,0,0.36,0.09,0.575,0.27c0.217,0.181,0.486,0.378,0.811,0.595
		c0.324,0.216,0.716,0.413,1.176,0.594c0.461,0.18,1.021,0.27,1.686,0.27c0.553,0,1.045-0.076,1.477-0.228
		c0.432-0.152,0.799-0.366,1.098-0.643c0.301-0.275,0.53-0.605,0.69-0.989c0.16-0.385,0.24-0.813,0.24-1.284
		c0-0.521-0.118-0.946-0.354-1.278s-0.546-0.609-0.93-0.834c-0.384-0.224-0.822-0.414-1.314-0.57
		c-0.492-0.155-0.996-0.315-1.512-0.479s-1.02-0.354-1.512-0.57s-0.93-0.496-1.314-0.84c-0.384-0.344-0.693-0.774-0.93-1.29
		s-0.354-1.153-0.354-1.914c0-0.607,0.117-1.195,0.354-1.764s0.578-1.072,1.025-1.512c0.449-0.44,1.002-0.792,1.662-1.057
		c0.66-0.264,1.418-0.396,2.274-0.396c0.96,0,1.836,0.151,2.628,0.456c0.792,0.304,1.484,0.743,2.076,1.319L372.848,193.102z"/>
	<path d="M376.424,207.61v-12.156h1.272c0.304,0,0.496,0.148,0.576,0.444l0.155,1.248c0.449-0.552,0.951-1.004,1.507-1.356
		c0.556-0.352,1.202-0.527,1.938-0.527c0.823,0,1.489,0.228,1.998,0.684c0.508,0.456,0.873,1.072,1.098,1.848
		c0.168-0.439,0.39-0.819,0.666-1.14c0.275-0.319,0.586-0.584,0.93-0.792s0.71-0.36,1.098-0.456
		c0.389-0.096,0.782-0.144,1.182-0.144c0.641,0,1.211,0.102,1.711,0.306s0.924,0.502,1.271,0.894
		c0.348,0.393,0.614,0.875,0.799,1.446c0.184,0.572,0.275,1.227,0.275,1.962v7.74h-2.137v-7.74c0-0.952-0.207-1.674-0.623-2.166
		s-1.02-0.737-1.813-0.737c-0.352,0-0.686,0.062-1.002,0.186s-0.594,0.306-0.834,0.546s-0.43,0.542-0.57,0.906
		c-0.14,0.364-0.209,0.786-0.209,1.266v7.74h-2.137v-7.74c0-0.976-0.195-1.704-0.588-2.184c-0.393-0.48-0.964-0.72-1.716-0.72
		c-0.528,0-1.019,0.142-1.47,0.426c-0.453,0.284-0.866,0.67-1.242,1.158v9.06H376.424z"/>
	<path d="M400.94,195.262c0.728,0,1.399,0.122,2.017,0.365c0.615,0.244,1.147,0.597,1.596,1.057c0.447,0.46,0.798,1.028,1.05,1.704
		s0.378,1.445,0.378,2.31c0,0.336-0.036,0.561-0.107,0.672c-0.072,0.112-0.209,0.168-0.408,0.168h-8.088
		c0.016,0.769,0.119,1.437,0.312,2.004c0.192,0.568,0.456,1.043,0.792,1.422c0.336,0.381,0.736,0.665,1.2,0.853
		c0.464,0.188,0.983,0.282,1.56,0.282c0.536,0,0.998-0.063,1.387-0.187c0.387-0.124,0.721-0.258,1.002-0.401
		c0.279-0.145,0.514-0.278,0.701-0.402c0.188-0.124,0.35-0.187,0.486-0.187c0.176,0,0.313,0.068,0.408,0.204l0.6,0.78
		c-0.264,0.32-0.58,0.599-0.947,0.834c-0.369,0.236-0.763,0.431-1.183,0.582c-0.42,0.152-0.854,0.267-1.302,0.342
		c-0.448,0.076-0.893,0.114-1.332,0.114c-0.84,0-1.614-0.143-2.322-0.426c-0.708-0.284-1.32-0.7-1.836-1.248
		s-0.918-1.226-1.206-2.034c-0.288-0.808-0.432-1.735-0.432-2.784c0-0.848,0.13-1.64,0.39-2.376c0.26-0.735,0.635-1.374,1.122-1.914
		s1.084-0.964,1.788-1.271C399.269,195.416,400.061,195.262,400.94,195.262z M400.988,196.834c-1.031,0-1.844,0.299-2.436,0.895
		s-0.961,1.422-1.104,2.478h6.612c0-0.496-0.068-0.949-0.204-1.361s-0.336-0.769-0.601-1.068c-0.264-0.3-0.586-0.532-0.965-0.696
		C401.91,196.916,401.477,196.834,400.988,196.834z"/>
	<path d="M408.703,207.61v-12.156h1.225c0.232,0,0.392,0.044,0.48,0.132c0.088,0.089,0.147,0.24,0.18,0.456l0.144,1.896
		c0.416-0.848,0.931-1.51,1.542-1.986c0.612-0.476,1.33-0.714,2.154-0.714c0.336,0,0.64,0.038,0.912,0.114
		c0.271,0.076,0.523,0.182,0.756,0.317l-0.275,1.597c-0.057,0.2-0.181,0.3-0.373,0.3c-0.111,0-0.283-0.038-0.516-0.114
		s-0.557-0.114-0.973-0.114c-0.743,0-1.365,0.217-1.865,0.648s-0.918,1.061-1.254,1.884v7.74H408.703z"/>
	<path d="M422.061,207.802c-0.961,0-1.699-0.269-2.215-0.805c-0.516-0.535-0.773-1.308-0.773-2.315v-7.44h-1.465
		c-0.127,0-0.235-0.038-0.323-0.114c-0.089-0.075-0.132-0.193-0.132-0.354v-0.853l1.992-0.252l0.492-3.756
		c0.016-0.12,0.067-0.218,0.155-0.294s0.2-0.113,0.336-0.113h1.08v4.188h3.479v1.548h-3.479v7.296c0,0.513,0.124,0.893,0.372,1.141
		s0.568,0.372,0.96,0.372c0.224,0,0.418-0.03,0.582-0.091c0.164-0.06,0.306-0.126,0.426-0.197c0.12-0.072,0.222-0.139,0.306-0.198
		c0.084-0.061,0.158-0.09,0.223-0.09c0.111,0,0.212,0.067,0.3,0.204l0.624,1.02c-0.368,0.344-0.813,0.614-1.332,0.811
		C423.148,207.704,422.611,207.802,422.061,207.802z"/>
	<path d="M432.14,195.262c0.728,0,1.399,0.122,2.017,0.365c0.615,0.244,1.147,0.597,1.596,1.057c0.447,0.46,0.798,1.028,1.05,1.704
		s0.378,1.445,0.378,2.31c0,0.336-0.036,0.561-0.107,0.672c-0.072,0.112-0.209,0.168-0.408,0.168h-8.088
		c0.016,0.769,0.119,1.437,0.312,2.004c0.192,0.568,0.456,1.043,0.792,1.422c0.336,0.381,0.736,0.665,1.2,0.853
		c0.464,0.188,0.983,0.282,1.56,0.282c0.536,0,0.998-0.063,1.387-0.187c0.387-0.124,0.721-0.258,1.002-0.401
		c0.279-0.145,0.514-0.278,0.701-0.402c0.188-0.124,0.35-0.187,0.486-0.187c0.176,0,0.313,0.068,0.408,0.204l0.6,0.78
		c-0.264,0.32-0.58,0.599-0.947,0.834c-0.369,0.236-0.763,0.431-1.183,0.582c-0.42,0.152-0.854,0.267-1.302,0.342
		c-0.448,0.076-0.893,0.114-1.332,0.114c-0.84,0-1.614-0.143-2.322-0.426c-0.708-0.284-1.32-0.7-1.836-1.248
		s-0.918-1.226-1.206-2.034c-0.288-0.808-0.432-1.735-0.432-2.784c0-0.848,0.13-1.64,0.39-2.376c0.26-0.735,0.635-1.374,1.122-1.914
		s1.084-0.964,1.788-1.271C430.468,195.416,431.26,195.262,432.14,195.262z M432.188,196.834c-1.031,0-1.844,0.299-2.436,0.895
		s-0.961,1.422-1.104,2.478h6.612c0-0.496-0.068-0.949-0.204-1.361s-0.336-0.769-0.601-1.068c-0.264-0.3-0.586-0.532-0.965-0.696
		C433.109,196.916,432.676,196.834,432.188,196.834z"/>
	<path d="M440.299,189.514c0.232,0.384,0.4,0.768,0.504,1.151c0.104,0.385,0.156,0.769,0.156,1.152c0,0.729-0.178,1.422-0.533,2.082
		c-0.356,0.66-0.851,1.266-1.482,1.818l-0.66-0.408c-0.064-0.04-0.105-0.084-0.126-0.132c-0.021-0.049-0.03-0.097-0.03-0.145
		c0-0.111,0.041-0.208,0.121-0.288c0.127-0.151,0.252-0.317,0.371-0.498c0.12-0.18,0.229-0.367,0.324-0.563s0.172-0.402,0.229-0.618
		c0.055-0.216,0.084-0.444,0.084-0.684c0-0.257-0.039-0.521-0.114-0.792c-0.076-0.272-0.206-0.561-0.39-0.864
		c-0.057-0.088-0.084-0.176-0.084-0.265c0-0.191,0.107-0.331,0.323-0.42L440.299,189.514z M443.947,189.514
		c0.232,0.384,0.4,0.768,0.504,1.151c0.104,0.385,0.156,0.769,0.156,1.152c0,0.729-0.178,1.422-0.534,2.082
		s-0.851,1.266-1.481,1.818l-0.66-0.408c-0.064-0.04-0.106-0.084-0.127-0.132c-0.02-0.049-0.029-0.097-0.029-0.145
		c0-0.111,0.04-0.208,0.12-0.288c0.128-0.151,0.252-0.317,0.372-0.498c0.119-0.18,0.229-0.367,0.324-0.563s0.172-0.402,0.228-0.618
		s0.084-0.444,0.084-0.684c0-0.257-0.038-0.521-0.114-0.792c-0.076-0.272-0.205-0.561-0.39-0.864
		c-0.056-0.088-0.084-0.176-0.084-0.265c0-0.191,0.108-0.331,0.323-0.42L443.947,189.514z"/>
</g>
<g enable-background="new    ">
	<path fill="#FFFFFF" d="M355.881,75.466c-0.232-0.385-0.402-0.771-0.511-1.158s-0.162-0.774-0.162-1.158
		c0-0.72,0.179-1.41,0.534-2.07s0.854-1.266,1.494-1.817l0.66,0.407c0.063,0.041,0.105,0.084,0.125,0.133
		c0.021,0.048,0.031,0.096,0.031,0.144c0,0.112-0.041,0.208-0.121,0.288c-0.127,0.16-0.252,0.328-0.371,0.504
		c-0.12,0.176-0.229,0.362-0.324,0.558c-0.096,0.196-0.172,0.402-0.229,0.618c-0.056,0.216-0.084,0.444-0.084,0.685
		c0,0.256,0.038,0.52,0.114,0.792c0.076,0.271,0.206,0.56,0.39,0.863c0.057,0.089,0.084,0.181,0.084,0.276
		c0,0.192-0.107,0.328-0.324,0.408L355.881,75.466z M359.528,75.466c-0.232-0.385-0.402-0.771-0.511-1.158
		c-0.107-0.388-0.161-0.774-0.161-1.158c0-0.72,0.178-1.41,0.534-2.07c0.355-0.66,0.854-1.266,1.494-1.817l0.66,0.407
		c0.063,0.041,0.105,0.084,0.125,0.133c0.02,0.048,0.03,0.096,0.03,0.144c0,0.112-0.04,0.208-0.12,0.288
		c-0.128,0.16-0.252,0.328-0.372,0.504s-0.228,0.362-0.323,0.558c-0.097,0.196-0.173,0.402-0.229,0.618
		c-0.057,0.216-0.084,0.444-0.084,0.685c0,0.256,0.037,0.52,0.113,0.792c0.076,0.271,0.207,0.56,0.391,0.863
		c0.057,0.089,0.084,0.181,0.084,0.276c0,0.192-0.107,0.328-0.324,0.408L359.528,75.466z"/>
	<path fill="#FFFFFF" d="M367.664,85.653h7.439v1.956h-9.768V70.413h2.328V85.653z"/>
	<path fill="#FFFFFF" d="M380.191,71.637c0,0.208-0.041,0.401-0.125,0.582c-0.084,0.18-0.197,0.34-0.336,0.479
		c-0.141,0.141-0.303,0.25-0.486,0.33s-0.381,0.12-0.588,0.12c-0.209,0-0.402-0.04-0.582-0.12s-0.34-0.189-0.48-0.33
		c-0.14-0.14-0.25-0.3-0.33-0.479c-0.08-0.181-0.119-0.374-0.119-0.582s0.039-0.406,0.119-0.595c0.08-0.188,0.19-0.352,0.33-0.491
		c0.141-0.141,0.301-0.25,0.48-0.33s0.373-0.12,0.582-0.12c0.207,0,0.404,0.04,0.588,0.12s0.346,0.189,0.486,0.33
		c0.139,0.14,0.252,0.304,0.336,0.491C380.15,71.231,380.191,71.429,380.191,71.637z M379.712,75.453v12.156h-2.136V75.453H379.712z
		"/>
	<path fill="#FFFFFF" d="M392.036,87.609c-0.304,0-0.496-0.147-0.576-0.444l-0.192-1.476c-0.52,0.632-1.113,1.138-1.781,1.518
		c-0.668,0.381-1.434,0.57-2.299,0.57c-0.695,0-1.328-0.134-1.896-0.402c-0.567-0.268-1.052-0.661-1.452-1.182
		c-0.4-0.52-0.708-1.168-0.924-1.944c-0.216-0.775-0.324-1.668-0.324-2.676c0-0.896,0.12-1.729,0.36-2.502
		c0.239-0.771,0.586-1.441,1.038-2.01c0.451-0.568,1.002-1.014,1.65-1.338c0.647-0.324,1.383-0.486,2.207-0.486
		c0.744,0,1.381,0.126,1.908,0.378c0.528,0.252,1,0.606,1.416,1.063v-6.744h2.137v17.676H392.036z M387.896,86.05
		c0.695,0,1.306-0.16,1.83-0.48c0.523-0.32,1.006-0.771,1.445-1.356v-5.88c-0.393-0.527-0.822-0.897-1.29-1.109
		s-0.985-0.318-1.554-0.318c-1.137,0-2.008,0.404-2.616,1.212c-0.608,0.809-0.912,1.96-0.912,3.456c0,0.792,0.067,1.47,0.204,2.034
		c0.137,0.563,0.336,1.028,0.6,1.392c0.265,0.364,0.588,0.63,0.973,0.799C386.96,85.966,387.4,86.05,387.896,86.05z"/>
	<path fill="#FFFFFF" d="M401.707,75.261c0.729,0,1.4,0.122,2.017,0.365c0.616,0.244,1.147,0.597,1.596,1.057
		s0.798,1.028,1.05,1.704s0.379,1.445,0.379,2.31c0,0.336-0.037,0.561-0.108,0.672c-0.072,0.112-0.208,0.168-0.408,0.168h-8.088
		c0.017,0.769,0.12,1.437,0.312,2.004c0.192,0.568,0.457,1.043,0.793,1.422c0.336,0.381,0.735,0.665,1.199,0.853
		c0.465,0.188,0.984,0.282,1.561,0.282c0.535,0,0.998-0.063,1.386-0.187s0.722-0.258,1.002-0.401
		c0.28-0.145,0.515-0.278,0.702-0.402s0.35-0.187,0.486-0.187c0.176,0,0.312,0.068,0.408,0.204l0.6,0.78
		c-0.264,0.32-0.58,0.599-0.948,0.834c-0.368,0.236-0.763,0.431-1.183,0.582c-0.42,0.152-0.854,0.267-1.301,0.342
		c-0.449,0.076-0.893,0.114-1.332,0.114c-0.84,0-1.615-0.143-2.322-0.426c-0.709-0.284-1.32-0.7-1.836-1.248
		c-0.517-0.548-0.918-1.226-1.207-2.034c-0.287-0.808-0.432-1.735-0.432-2.784c0-0.848,0.131-1.64,0.391-2.376
		c0.26-0.735,0.634-1.374,1.121-1.914c0.488-0.54,1.084-0.964,1.789-1.271C400.035,75.415,400.828,75.261,401.707,75.261z
		 M401.756,76.833c-1.032,0-1.844,0.299-2.437,0.895c-0.592,0.596-0.96,1.422-1.104,2.478h6.613c0-0.496-0.068-0.949-0.205-1.361
		c-0.136-0.412-0.336-0.769-0.6-1.068s-0.586-0.532-0.966-0.696S402.244,76.833,401.756,76.833z"/>
	<path fill="#FFFFFF" d="M411.848,69.933v17.676h-2.137V69.933H411.848z"/>
	<path fill="#FFFFFF" d="M422.575,77.457c-0.096,0.177-0.244,0.265-0.444,0.265c-0.119,0-0.256-0.044-0.408-0.132
		c-0.151-0.089-0.338-0.187-0.558-0.295c-0.22-0.107-0.481-0.207-0.786-0.3c-0.304-0.092-0.664-0.138-1.08-0.138
		c-0.359,0-0.684,0.046-0.972,0.138c-0.288,0.093-0.534,0.219-0.737,0.378c-0.205,0.16-0.36,0.347-0.469,0.559
		c-0.107,0.212-0.162,0.441-0.162,0.689c0,0.313,0.09,0.572,0.271,0.78c0.18,0.208,0.418,0.388,0.714,0.54s0.632,0.286,1.008,0.402
		c0.376,0.115,0.762,0.239,1.158,0.372c0.396,0.132,0.781,0.277,1.158,0.438c0.375,0.16,0.711,0.36,1.008,0.6
		c0.296,0.24,0.533,0.534,0.714,0.883c0.181,0.348,0.271,0.766,0.271,1.254c0,0.56-0.101,1.078-0.301,1.554
		c-0.199,0.477-0.496,0.888-0.888,1.236c-0.392,0.348-0.872,0.622-1.44,0.821c-0.568,0.2-1.224,0.301-1.968,0.301
		c-0.848,0-1.616-0.139-2.304-0.414c-0.688-0.276-1.271-0.63-1.752-1.063l0.504-0.815c0.064-0.104,0.14-0.185,0.229-0.24
		c0.088-0.056,0.203-0.084,0.348-0.084c0.144,0,0.296,0.056,0.455,0.168c0.16,0.112,0.354,0.236,0.582,0.372
		c0.229,0.136,0.505,0.26,0.828,0.372c0.324,0.112,0.73,0.168,1.219,0.168c0.416,0,0.779-0.055,1.092-0.162
		c0.313-0.108,0.572-0.254,0.779-0.438c0.209-0.184,0.363-0.396,0.463-0.636s0.15-0.496,0.15-0.768c0-0.336-0.091-0.614-0.271-0.834
		c-0.181-0.221-0.418-0.408-0.714-0.564c-0.297-0.156-0.635-0.292-1.014-0.408c-0.381-0.115-0.769-0.237-1.164-0.365
		c-0.396-0.128-0.785-0.274-1.164-0.438c-0.381-0.164-0.719-0.37-1.015-0.618s-0.534-0.554-0.714-0.918s-0.27-0.806-0.27-1.326
		c0-0.464,0.096-0.909,0.287-1.338c0.192-0.428,0.473-0.804,0.84-1.128c0.369-0.324,0.82-0.582,1.356-0.773
		c0.536-0.192,1.147-0.288,1.837-0.288c0.799,0,1.518,0.126,2.153,0.378s1.187,0.598,1.649,1.038L422.575,77.457z"/>
	<path fill="#FFFFFF" d="M430.843,75.261c0.728,0,1.399,0.122,2.017,0.365c0.615,0.244,1.147,0.597,1.596,1.057
		c0.447,0.46,0.798,1.028,1.05,1.704s0.378,1.445,0.378,2.31c0,0.336-0.036,0.561-0.107,0.672c-0.072,0.112-0.209,0.168-0.408,0.168
		h-8.088c0.016,0.769,0.119,1.437,0.312,2.004c0.192,0.568,0.456,1.043,0.792,1.422c0.336,0.381,0.736,0.665,1.2,0.853
		c0.464,0.188,0.983,0.282,1.56,0.282c0.536,0,0.998-0.063,1.387-0.187c0.387-0.124,0.721-0.258,1.002-0.401
		c0.279-0.145,0.514-0.278,0.701-0.402c0.188-0.124,0.35-0.187,0.486-0.187c0.176,0,0.313,0.068,0.408,0.204l0.6,0.78
		c-0.264,0.32-0.58,0.599-0.947,0.834c-0.369,0.236-0.763,0.431-1.183,0.582c-0.42,0.152-0.854,0.267-1.302,0.342
		c-0.448,0.076-0.893,0.114-1.332,0.114c-0.84,0-1.614-0.143-2.322-0.426c-0.708-0.284-1.32-0.7-1.836-1.248
		s-0.918-1.226-1.206-2.034c-0.288-0.808-0.432-1.735-0.432-2.784c0-0.848,0.13-1.64,0.39-2.376c0.26-0.735,0.635-1.374,1.122-1.914
		s1.084-0.964,1.788-1.271C429.171,75.415,429.963,75.261,430.843,75.261z M430.891,76.833c-1.031,0-1.844,0.299-2.436,0.895
		s-0.961,1.422-1.104,2.478h6.612c0-0.496-0.068-0.949-0.204-1.361s-0.336-0.769-0.601-1.068c-0.264-0.3-0.586-0.532-0.965-0.696
		C431.813,76.915,431.379,76.833,430.891,76.833z"/>
	<path fill="#FFFFFF" d="M439.003,69.513c0.231,0.384,0.399,0.768,0.504,1.151c0.104,0.385,0.156,0.769,0.156,1.152
		c0,0.729-0.179,1.422-0.534,2.082s-0.85,1.266-1.482,1.818l-0.66-0.408c-0.063-0.04-0.105-0.084-0.125-0.132
		c-0.021-0.049-0.03-0.097-0.03-0.145c0-0.111,0.04-0.208,0.12-0.288c0.127-0.151,0.252-0.317,0.371-0.498
		c0.121-0.18,0.229-0.367,0.324-0.563c0.097-0.196,0.172-0.402,0.229-0.618c0.056-0.216,0.084-0.444,0.084-0.684
		c0-0.257-0.038-0.521-0.113-0.792c-0.076-0.272-0.207-0.561-0.391-0.864c-0.057-0.088-0.084-0.176-0.084-0.265
		c0-0.191,0.107-0.331,0.324-0.42L439.003,69.513z M442.65,69.513c0.232,0.384,0.4,0.768,0.504,1.151
		c0.104,0.385,0.156,0.769,0.156,1.152c0,0.729-0.178,1.422-0.533,2.082c-0.356,0.66-0.851,1.266-1.482,1.818l-0.66-0.408
		c-0.064-0.04-0.105-0.084-0.126-0.132c-0.021-0.049-0.03-0.097-0.03-0.145c0-0.111,0.041-0.208,0.121-0.288
		c0.127-0.151,0.252-0.317,0.371-0.498c0.12-0.18,0.229-0.367,0.324-0.563s0.172-0.402,0.229-0.618
		c0.055-0.216,0.084-0.444,0.084-0.684c0-0.257-0.039-0.521-0.114-0.792c-0.076-0.272-0.206-0.561-0.39-0.864
		c-0.057-0.088-0.084-0.176-0.084-0.265c0-0.191,0.107-0.331,0.323-0.42L442.65,69.513z"/>
</g>
<polygon fill="none" points="415,247 421.5,247 421.5,247 "/>
</svg>
