<svg xml:space="preserve" width="501" height="73.578" viewBox="200 31.442 501 73.578" xmlns="http://www.w3.org/2000/svg"><path fill="#FFCD0A" stroke="#000" stroke-miterlimit="10" d="M422.722 73.81c0 16.961-49.746 30.71-111.111 30.71S200.5 90.771 200.5 73.81V62.652c0-2.855 63.808-19.551 111.111-19.551 39.84 0 111.111 15.617 111.111 19.551V73.81z"/><ellipse cx="311.612" cy="62.652" fill="#F89821" stroke="#000" stroke-miterlimit="10" rx="111.111" ry="30.71"/><path fill="#F8981F" stroke="#000" stroke-miterlimit="10" d="M700.5 73.81c0 16.961-49.746 30.71-111.111 30.71S478.278 90.771 478.278 73.81V62.652c0-2.855 63.808-19.551 111.111-19.551C629.23 43.1 700.5 58.718 700.5 62.652V73.81z"/><ellipse cx="589.389" cy="62.652" fill="#FFCD0A" stroke="#000" stroke-miterlimit="10" rx="111.111" ry="30.71"/><path d="M299.602 65.768h-1.5a.645.645 0 0 1-.42-.13.785.785 0 0 1-.24-.33l-1.34-3.46h-6.43l-1.34 3.46a.776.776 0 0 1-.24.32.638.638 0 0 1-.42.14h-1.5l5.729-14.33h1.97l5.731 14.33zm-9.39-5.32h5.35l-2.25-5.83c-.146-.36-.29-.81-.43-1.35-.074.273-.146.525-.215.755-.07.23-.139.432-.205.605l-2.25 5.82zM301.132 65.768v-10.13h1.06c.253 0 .414.124.48.37l.14 1.101c.44-.487.932-.88 1.475-1.18.544-.3 1.172-.45 1.886-.45.553 0 1.042.091 1.465.275.423.184.777.443 1.06.78.283.336.498.742.645 1.215.146.474.22.997.22 1.57v6.45h-1.78v-6.45c0-.767-.175-1.362-.524-1.785-.351-.423-.886-.635-1.605-.635-.526 0-1.019.126-1.475.379a4.878 4.878 0 0 0-1.265 1.03v7.46h-1.782zM315.662 55.469c.44 0 .852.048 1.235.145.384.097.732.238 1.045.425h2.75v.66c0 .22-.14.36-.42.42l-1.15.16c.227.434.34.917.34 1.45 0 .493-.095.941-.285 1.345-.19.403-.454.748-.791 1.035a3.556 3.556 0 0 1-1.2.66 4.84 4.84 0 0 1-1.525.23c-.474 0-.92-.057-1.34-.17a1.688 1.688 0 0 0-.485.43.775.775 0 0 0-.165.45c0 .24.096.422.29.545.194.124.45.211.771.265a8.5 8.5 0 0 0 1.09.1c.406.014.821.035 1.245.065.424.03.839.082 1.245.155.406.074.77.193 1.09.36.32.167.577.396.771.69.193.293.29.673.29 1.14 0 .434-.108.854-.325 1.26a3.41 3.41 0 0 1-.935 1.085c-.407.316-.903.57-1.49.76-.586.19-1.25.286-1.99.286s-1.388-.074-1.945-.22-1.019-.344-1.385-.59c-.366-.247-.641-.532-.825-.855a2.035 2.035 0 0 1-.275-1.015c0-.5.159-.925.475-1.275.317-.35.752-.628 1.306-.835a1.807 1.807 0 0 1-.686-.535c-.169-.224-.255-.521-.255-.895 0-.146.027-.298.081-.455a1.74 1.74 0 0 1 .245-.465 2.62 2.62 0 0 1 .965-.81c-.5-.28-.892-.651-1.175-1.115-.283-.463-.425-1.005-.425-1.625 0-.494.095-.942.285-1.345.19-.404.455-.747.795-1.03s.745-.502 1.215-.655a4.887 4.887 0 0 1 1.543-.231zm3.16 10.85c0-.254-.07-.457-.21-.61a1.368 1.368 0 0 0-.569-.355 4.181 4.181 0 0 0-.83-.185c-.314-.04-.644-.068-.99-.085-.347-.016-.7-.035-1.06-.055s-.704-.057-1.03-.11c-.38.18-.688.4-.925.66s-.355.57-.355.93c0 .227.059.438.175.635.117.197.295.367.535.51.24.144.542.257.905.34.364.083.792.125 1.286.125.479 0 .91-.042 1.29-.129s.702-.21.965-.37.465-.35.605-.57c.138-.221.208-.465.208-.731zm-3.16-5.501c.36 0 .678-.05.955-.149.276-.101.508-.241.695-.42s.327-.395.42-.645c.093-.25.14-.525.14-.825 0-.62-.188-1.113-.565-1.48-.376-.367-.925-.55-1.645-.55-.713 0-1.259.183-1.635.55-.376.367-.564.86-.564 1.48 0 .3.048.575.145.825.097.25.238.465.425.645s.417.32.69.42c.272.099.585.149.939.149zM328.271 57.308a.394.394 0 0 1-.37.221.7.7 0 0 1-.34-.11 8.27 8.27 0 0 0-.465-.245 4.337 4.337 0 0 0-.655-.25 3.115 3.115 0 0 0-.9-.115c-.3 0-.57.038-.81.115a1.936 1.936 0 0 0-.615.314c-.17.133-.3.289-.39.465-.09.177-.135.369-.135.575 0 .26.075.477.225.65.15.174.348.323.595.45.246.126.526.238.84.335s.635.2.965.311c.33.109.651.231.964.364.313.134.594.3.84.5s.445.445.595.735c.15.29.225.638.225 1.045 0 .467-.083.898-.25 1.295-.167.397-.414.74-.74 1.03a3.546 3.546 0 0 1-1.2.686c-.473.167-1.02.25-1.64.25-.707 0-1.347-.115-1.92-.345a4.857 4.857 0 0 1-1.46-.885l.42-.68a.62.62 0 0 1 .19-.2.528.528 0 0 1 .29-.07.67.67 0 0 1 .38.14c.133.093.295.196.485.31s.42.216.69.31.608.14 1.015.14c.346 0 .65-.044.91-.135.26-.09.476-.211.65-.365.173-.153.302-.33.385-.53.083-.2.125-.414.125-.64 0-.28-.075-.512-.225-.695-.15-.183-.348-.339-.595-.47s-.528-.244-.845-.34a52.26 52.26 0 0 1-.97-.305 10.97 10.97 0 0 1-.97-.365 3.41 3.41 0 0 1-.845-.515c-.247-.207-.445-.462-.595-.765s-.225-.671-.225-1.105c0-.386.08-.758.24-1.115.16-.356.394-.67.7-.939.307-.27.683-.485 1.13-.645.446-.16.957-.24 1.53-.24.667 0 1.265.105 1.795.315.53.21.988.498 1.375.865l-.399.648zM334.221 65.928c-.8 0-1.415-.224-1.845-.67-.43-.447-.645-1.09-.645-1.931v-6.199h-1.22a.403.403 0 0 1-.27-.095c-.074-.063-.11-.162-.11-.295v-.71l1.66-.21.41-3.13c.014-.1.057-.182.13-.245s.167-.095.28-.095h.9v3.49h2.9v1.291h-2.9v6.08c0 .427.103.743.31.95.207.207.474.311.8.311.187 0 .348-.025.485-.076.137-.05.255-.104.355-.165s.185-.115.255-.165a.335.335 0 0 1 .185-.075c.093 0 .176.056.25.169l.52.85a3.312 3.312 0 0 1-1.11.675c-.433.163-.88.245-1.34.245zM553.639 51.438h1.55c.174 0 .313.043.421.13a.812.812 0 0 1 .24.331l4.05 10.109c.094.227.178.474.255.74.076.267.151.543.225.83.06-.287.125-.563.195-.83s.151-.514.245-.74l4.029-10.109a.834.834 0 0 1 .24-.315.626.626 0 0 1 .42-.145h1.561l-5.84 14.33h-1.749l-5.842-14.331zM577.659 55.478c.546 0 1.055.107 1.525.32.47.213.876.523 1.219.93.344.407.613.901.811 1.485.196.583.295 1.248.295 1.995 0 .273-.026.458-.08.555-.054.097-.164.145-.331.145h-6.27c.026.606.117 1.135.27 1.584.154.451.359.825.615 1.125.257.3.561.523.91.67s.741.22 1.175.22c.46 0 .844-.048 1.149-.145a3.67 3.67 0 0 0 .766-.325c.203-.12.368-.229.495-.325s.243-.145.35-.145c.094 0 .17.015.23.045.061.03.11.071.15.125l.471.61a3.65 3.65 0 0 1-.766.695c-.29.196-.6.358-.931.485-.33.126-.671.221-1.025.285a5.968 5.968 0 0 1-1.05.095 4.095 4.095 0 0 1-2.125-.565c-.636-.377-1.138-.952-1.505-1.725-.18.413-.415.767-.704 1.06a3.987 3.987 0 0 1-.966.72 4.273 4.273 0 0 1-1.125.405 5.77 5.77 0 0 1-1.185.125c-.46 0-.88-.059-1.26-.175a2.777 2.777 0 0 1-.985-.524 2.317 2.317 0 0 1-.64-.88c-.15-.354-.225-.77-.225-1.25 0-.4.109-.793.33-1.18.22-.387.574-.734 1.064-1.04.49-.307 1.132-.559 1.925-.755.794-.196 1.764-.308 2.91-.335v-.5c0-.787-.169-1.39-.505-1.81s-.835-.63-1.495-.63c-.433 0-.798.058-1.095.175s-.553.245-.771.385c-.217.14-.403.268-.56.385s-.313.175-.465.175c-.12 0-.226-.032-.315-.095s-.161-.142-.215-.235l-.32-.57c.561-.54 1.142-.943 1.745-1.209.604-.267 1.282-.4 2.035-.4.8 0 1.443.17 1.931.51.486.34.84.813 1.06 1.42a4.077 4.077 0 0 1 1.405-1.395c.579-.344 1.272-.516 2.078-.516zm-4.509 5.43c-.821.033-1.518.108-2.09.225-.573.117-1.04.268-1.401.455-.358.187-.621.4-.785.64-.163.24-.244.5-.244.78 0 .58.167 1.003.5 1.27.334.267.77.4 1.31.4.38 0 .735-.06 1.065-.18s.615-.303.859-.55c.243-.246.436-.553.575-.92.141-.366.21-.796.21-1.29l.001-.83zm4.439-4.12c-.406 0-.771.068-1.09.205s-.595.335-.825.595c-.229.26-.413.577-.55.95s-.229.793-.275 1.26h5.081c0-.433-.052-.835-.155-1.205a2.887 2.887 0 0 0-.454-.955 2.132 2.132 0 0 0-.735-.625 2.16 2.16 0 0 0-.997-.225zM583.779 65.768v-10.13h1.021c.193 0 .326.037.399.11.074.073.124.2.151.38l.119 1.58c.347-.707.776-1.258 1.285-1.655.51-.396 1.108-.595 1.795-.595.279 0 .533.032.76.095.227.063.437.151.63.265l-.23 1.33c-.046.167-.149.25-.31.25-.093 0-.236-.032-.43-.095s-.464-.095-.811-.095c-.619 0-1.138.18-1.555.54s-.765.884-1.045 1.57v6.45h-1.779zM598.969 65.768c-.254 0-.413-.123-.479-.37l-.16-1.23a5.335 5.335 0 0 1-1.485 1.265c-.557.317-1.194.476-1.914.476-.58 0-1.107-.112-1.581-.335a3.259 3.259 0 0 1-1.21-.985c-.334-.433-.59-.973-.771-1.62-.18-.647-.27-1.39-.27-2.23 0-.747.101-1.442.3-2.085.2-.644.488-1.202.865-1.675a4.07 4.07 0 0 1 1.375-1.115c.541-.271 1.154-.405 1.841-.405.619 0 1.149.105 1.59.315.439.21.833.505 1.18.885v-5.62h1.78v14.73h-1.061zm-3.45-1.299c.58 0 1.088-.133 1.525-.4.437-.267.838-.643 1.204-1.129v-4.9c-.326-.44-.685-.748-1.074-.925a3.101 3.101 0 0 0-1.295-.265c-.947 0-1.674.336-2.181 1.01s-.76 1.634-.76 2.88c0 .66.057 1.225.17 1.695.113.47.28.857.5 1.16s.49.525.811.665c.321.139.687.209 1.1.209zM605.399 52.458c0 .173-.034.335-.104.485a1.41 1.41 0 0 1-.28.399 1.309 1.309 0 0 1-.405.275c-.153.066-.316.1-.489.1-.175 0-.336-.033-.485-.1a1.318 1.318 0 0 1-.675-.674 1.249 1.249 0 0 1 0-.98 1.296 1.296 0 0 1 .675-.685 1.226 1.226 0 0 1 .974 0c.153.066.288.158.405.275.116.117.21.253.28.41.07.157.104.322.104.495zm-.4 3.18v10.13h-1.78v-10.13h1.78zM612.149 55.478a4.53 4.53 0 0 1 1.68.305c.514.203.957.497 1.331.88.373.383.664.857.875 1.42.21.563.314 1.205.314 1.925 0 .28-.03.467-.09.56s-.174.14-.34.14h-6.74c.013.64.1 1.197.26 1.67.16.474.381.869.66 1.186.28.316.613.554 1 .709.386.157.82.235 1.3.235.447 0 .832-.052 1.155-.155a5.565 5.565 0 0 0 1.42-.67c.156-.104.291-.155.405-.155.146 0 .26.058.34.17l.5.65a3.38 3.38 0 0 1-.791.695 4.942 4.942 0 0 1-.984.484 6.228 6.228 0 0 1-1.085.285 6.663 6.663 0 0 1-1.109.095c-.701 0-1.346-.118-1.936-.355s-1.1-.583-1.53-1.04c-.43-.457-.765-1.021-1.005-1.695-.24-.673-.36-1.446-.36-2.32 0-.707.109-1.367.325-1.98a4.656 4.656 0 0 1 .936-1.595 4.273 4.273 0 0 1 1.49-1.06c.586-.255 1.245-.384 1.979-.384zm.04 1.31c-.86 0-1.536.249-2.029.745-.494.497-.8 1.185-.92 2.064h5.51c0-.413-.057-.792-.17-1.135s-.28-.64-.5-.89-.489-.443-.805-.58a2.756 2.756 0 0 0-1.086-.204zM618.618 65.768v-10.13h1.02c.194 0 .327.037.4.11s.124.2.15.38l.12 1.58c.347-.707.775-1.258 1.285-1.655.51-.396 1.107-.595 1.794-.595.28 0 .533.032.761.095.227.063.437.151.63.265l-.23 1.33c-.047.167-.149.25-.31.25a1.58 1.58 0 0 1-.431-.095c-.193-.063-.463-.095-.81-.095-.619 0-1.139.18-1.555.54-.417.36-.766.884-1.045 1.57v6.45h-1.779z"/><path fill="none" stroke="#000" stroke-miterlimit="10" d="M276.24 102.884V91.726M210.407 86.68V75.522M302.815 104.521V93.362M312.722 104.521V93.362M396.889 93.362V82.204M554.111 102.884V91.726M488.278 86.68V75.522M580.685 104.521V93.362M590.592 104.521V93.362M674.759 93.362V82.204"/></svg>