<?xml version="1.0" encoding="utf-8"?>
<!-- Generator: Adobe Illustrator 16.0.3, SVG Export Plug-In . SVG Version: 6.00 Build 0)  -->
<!DOCTYPE svg PUBLIC "-//W3C//DTD SVG 1.1//EN" "http://www.w3.org/Graphics/SVG/1.1/DTD/svg11.dtd">
<svg version="1.1" id="Layer_1" xmlns="http://www.w3.org/2000/svg" xmlns:xlink="http://www.w3.org/1999/xlink" x="0px" y="0px"
	 width="501px" height="73.578px" viewBox="200 31.442 501 73.578" enable-background="new 200 31.442 501 73.578"
	 xml:space="preserve">
<path fill="#FFCD0A" stroke="#000000" stroke-miterlimit="10" d="M422.722,73.81c0,16.961-49.746,30.71-111.111,30.71
	c-61.365,0-111.111-13.749-111.111-30.71c0-2.361,0,0,0-11.158c0-2.855,63.808-19.551,111.111-19.551
	c39.84,0,111.111,15.617,111.111,19.551C422.722,73.81,422.722,70.823,422.722,73.81z"/>
<ellipse fill="#F89821" stroke="#000000" stroke-miterlimit="10" cx="311.612" cy="62.652" rx="111.111" ry="30.71"/>
<path fill="#F8981F" stroke="#000000" stroke-miterlimit="10" d="M700.5,73.81c0,16.961-49.746,30.71-111.111,30.71
	S478.278,90.771,478.278,73.81c0-2.361,0,0,0-11.158c0-2.855,63.808-19.551,111.111-19.551C629.23,43.1,700.5,58.718,700.5,62.652
	C700.5,73.81,700.5,70.823,700.5,73.81z"/>
<ellipse fill="#FFCD0A" stroke="#000000" stroke-miterlimit="10" cx="589.389" cy="62.652" rx="111.111" ry="30.71"/>
<g>
	<path d="M299.602,65.768h-1.5c-0.173,0-0.313-0.043-0.42-0.13c-0.107-0.086-0.187-0.196-0.24-0.33l-1.34-3.46h-6.43l-1.34,3.46
		c-0.047,0.12-0.126,0.227-0.24,0.32c-0.114,0.094-0.254,0.14-0.42,0.14h-1.5l5.729-14.33h1.97L299.602,65.768z M290.212,60.448
		h5.35l-2.25-5.83c-0.146-0.36-0.29-0.81-0.43-1.35c-0.074,0.273-0.146,0.525-0.215,0.755c-0.07,0.23-0.139,0.432-0.205,0.605
		L290.212,60.448z"/>
	<path d="M301.132,65.768v-10.13h1.06c0.253,0,0.414,0.124,0.48,0.37l0.14,1.101c0.44-0.487,0.932-0.88,1.475-1.18
		c0.544-0.3,1.172-0.45,1.886-0.45c0.553,0,1.042,0.091,1.465,0.275c0.423,0.184,0.777,0.443,1.06,0.78
		c0.283,0.336,0.498,0.742,0.645,1.215c0.146,0.474,0.22,0.997,0.22,1.57v6.45h-1.78v-6.45c0-0.767-0.175-1.362-0.524-1.785
		c-0.351-0.423-0.886-0.635-1.605-0.635c-0.526,0-1.019,0.126-1.475,0.379c-0.457,0.254-0.878,0.597-1.265,1.03v7.46H301.132z"/>
	<path d="M315.662,55.469c0.44,0,0.852,0.048,1.235,0.145c0.384,0.097,0.732,0.238,1.045,0.425h2.75v0.66
		c0,0.22-0.14,0.36-0.42,0.42l-1.15,0.16c0.227,0.434,0.34,0.917,0.34,1.45c0,0.493-0.095,0.941-0.285,1.345
		c-0.19,0.403-0.454,0.748-0.791,1.035c-0.336,0.286-0.736,0.506-1.2,0.66c-0.463,0.153-0.972,0.23-1.525,0.23
		c-0.474,0-0.92-0.057-1.34-0.17c-0.213,0.133-0.375,0.277-0.485,0.43c-0.11,0.154-0.165,0.303-0.165,0.45
		c0,0.24,0.096,0.422,0.29,0.545c0.194,0.124,0.45,0.211,0.771,0.265c0.319,0.053,0.683,0.086,1.09,0.1
		c0.406,0.014,0.821,0.035,1.245,0.065c0.424,0.03,0.839,0.082,1.245,0.155c0.406,0.074,0.77,0.193,1.09,0.36
		c0.32,0.167,0.577,0.396,0.771,0.69c0.193,0.293,0.29,0.673,0.29,1.14c0,0.434-0.108,0.854-0.325,1.26
		c-0.217,0.407-0.529,0.769-0.935,1.085c-0.407,0.316-0.903,0.57-1.49,0.76c-0.586,0.19-1.25,0.286-1.99,0.286
		c-0.74,0-1.388-0.074-1.945-0.22s-1.019-0.344-1.385-0.59c-0.366-0.247-0.641-0.532-0.825-0.855
		c-0.183-0.324-0.275-0.662-0.275-1.015c0-0.5,0.159-0.925,0.475-1.275c0.317-0.35,0.752-0.628,1.306-0.835
		c-0.287-0.134-0.515-0.312-0.686-0.535c-0.169-0.224-0.255-0.521-0.255-0.895c0-0.146,0.027-0.298,0.081-0.455
		c0.053-0.157,0.134-0.312,0.245-0.465c0.11-0.153,0.245-0.3,0.405-0.44c0.16-0.14,0.347-0.263,0.56-0.37
		c-0.5-0.28-0.892-0.651-1.175-1.115c-0.283-0.463-0.425-1.005-0.425-1.625c0-0.494,0.095-0.942,0.285-1.345
		c0.19-0.404,0.455-0.747,0.795-1.03s0.745-0.502,1.215-0.655C314.587,55.545,315.102,55.469,315.662,55.469z M318.822,66.319
		c0-0.254-0.07-0.457-0.21-0.61c-0.14-0.153-0.33-0.271-0.569-0.355c-0.241-0.083-0.517-0.145-0.83-0.185
		c-0.314-0.04-0.644-0.068-0.99-0.085c-0.347-0.016-0.7-0.035-1.06-0.055s-0.704-0.057-1.03-0.11c-0.38,0.18-0.688,0.4-0.925,0.66
		s-0.355,0.57-0.355,0.93c0,0.227,0.059,0.438,0.175,0.635c0.117,0.197,0.295,0.367,0.535,0.51c0.24,0.144,0.542,0.257,0.905,0.34
		c0.364,0.083,0.792,0.125,1.286,0.125c0.479,0,0.91-0.042,1.29-0.129c0.38-0.087,0.702-0.21,0.965-0.37s0.465-0.35,0.605-0.57
		C318.752,66.829,318.822,66.585,318.822,66.319z M315.662,60.818c0.36,0,0.678-0.05,0.955-0.149
		c0.276-0.101,0.508-0.241,0.695-0.42s0.327-0.395,0.42-0.645c0.093-0.25,0.14-0.525,0.14-0.825c0-0.62-0.188-1.113-0.565-1.48
		c-0.376-0.367-0.925-0.55-1.645-0.55c-0.713,0-1.259,0.183-1.635,0.55c-0.376,0.367-0.564,0.86-0.564,1.48
		c0,0.3,0.048,0.575,0.145,0.825c0.097,0.25,0.238,0.465,0.425,0.645s0.417,0.32,0.69,0.42
		C314.995,60.768,315.308,60.818,315.662,60.818z"/>
	<path d="M328.271,57.308c-0.08,0.147-0.203,0.221-0.37,0.221c-0.1,0-0.213-0.037-0.34-0.11c-0.127-0.073-0.282-0.155-0.465-0.245
		c-0.184-0.09-0.402-0.174-0.655-0.25c-0.253-0.077-0.554-0.115-0.9-0.115c-0.3,0-0.57,0.038-0.81,0.115
		c-0.241,0.076-0.446,0.182-0.615,0.314c-0.17,0.133-0.3,0.289-0.39,0.465c-0.09,0.177-0.135,0.369-0.135,0.575
		c0,0.26,0.075,0.477,0.225,0.65c0.15,0.174,0.348,0.323,0.595,0.45c0.246,0.126,0.526,0.238,0.84,0.335s0.635,0.2,0.965,0.311
		c0.33,0.109,0.651,0.231,0.964,0.364c0.313,0.134,0.594,0.3,0.84,0.5s0.445,0.445,0.595,0.735c0.15,0.29,0.225,0.638,0.225,1.045
		c0,0.467-0.083,0.898-0.25,1.295c-0.167,0.397-0.414,0.74-0.74,1.03c-0.326,0.291-0.726,0.519-1.2,0.686
		c-0.473,0.167-1.02,0.25-1.64,0.25c-0.707,0-1.347-0.115-1.92-0.345c-0.574-0.23-1.06-0.525-1.46-0.885l0.42-0.68
		c0.053-0.086,0.117-0.153,0.19-0.2c0.073-0.047,0.169-0.07,0.29-0.07c0.121,0,0.247,0.047,0.38,0.14
		c0.133,0.093,0.295,0.196,0.485,0.31s0.42,0.216,0.69,0.31s0.608,0.14,1.015,0.14c0.346,0,0.65-0.044,0.91-0.135
		c0.26-0.09,0.476-0.211,0.65-0.365c0.173-0.153,0.302-0.33,0.385-0.53c0.083-0.2,0.125-0.414,0.125-0.64
		c0-0.28-0.075-0.512-0.225-0.695c-0.15-0.183-0.348-0.339-0.595-0.47s-0.528-0.244-0.845-0.34c-0.317-0.096-0.64-0.198-0.97-0.305
		c-0.33-0.106-0.653-0.229-0.97-0.365c-0.316-0.137-0.599-0.308-0.845-0.515c-0.247-0.207-0.445-0.462-0.595-0.765
		s-0.225-0.671-0.225-1.105c0-0.386,0.08-0.758,0.24-1.115c0.16-0.356,0.394-0.67,0.7-0.939c0.307-0.27,0.683-0.485,1.13-0.645
		c0.446-0.16,0.957-0.24,1.53-0.24c0.667,0,1.265,0.105,1.795,0.315c0.53,0.21,0.988,0.498,1.375,0.865L328.271,57.308z"/>
	<path d="M334.221,65.928c-0.8,0-1.415-0.224-1.845-0.67c-0.43-0.447-0.645-1.09-0.645-1.931v-6.199h-1.22
		c-0.106,0-0.196-0.032-0.27-0.095c-0.074-0.063-0.11-0.162-0.11-0.295v-0.71l1.66-0.21l0.41-3.13c0.014-0.1,0.057-0.182,0.13-0.245
		s0.167-0.095,0.28-0.095h0.9v3.49h2.9v1.291h-2.9v6.08c0,0.427,0.103,0.743,0.31,0.95c0.207,0.207,0.474,0.311,0.8,0.311
		c0.187,0,0.348-0.025,0.485-0.076c0.137-0.05,0.255-0.104,0.355-0.165s0.185-0.115,0.255-0.165c0.07-0.05,0.132-0.075,0.185-0.075
		c0.093,0,0.176,0.056,0.25,0.169l0.52,0.85c-0.307,0.287-0.677,0.512-1.11,0.675C335.128,65.846,334.681,65.928,334.221,65.928z"/>
</g>
<g>
	<path d="M553.639,51.438h1.55c0.174,0,0.313,0.043,0.421,0.13c0.106,0.087,0.186,0.197,0.24,0.331l4.05,10.109
		c0.094,0.227,0.178,0.474,0.255,0.74c0.076,0.267,0.151,0.543,0.225,0.83c0.06-0.287,0.125-0.563,0.195-0.83
		s0.151-0.514,0.245-0.74l4.029-10.109c0.047-0.114,0.127-0.219,0.24-0.315c0.114-0.097,0.254-0.145,0.42-0.145h1.561l-5.84,14.33
		h-1.749L553.639,51.438z"/>
	<path d="M577.659,55.478c0.546,0,1.055,0.107,1.525,0.32c0.47,0.213,0.876,0.523,1.219,0.93c0.344,0.407,0.613,0.901,0.811,1.485
		c0.196,0.583,0.295,1.248,0.295,1.995c0,0.273-0.026,0.458-0.08,0.555c-0.054,0.097-0.164,0.145-0.331,0.145h-6.27
		c0.026,0.606,0.117,1.135,0.27,1.584c0.154,0.451,0.359,0.825,0.615,1.125c0.257,0.3,0.561,0.523,0.91,0.67s0.741,0.22,1.175,0.22
		c0.46,0,0.844-0.048,1.149-0.145c0.307-0.096,0.563-0.205,0.766-0.325c0.203-0.12,0.368-0.229,0.495-0.325s0.243-0.145,0.35-0.145
		c0.094,0,0.17,0.015,0.23,0.045c0.061,0.03,0.11,0.071,0.15,0.125l0.471,0.61c-0.221,0.267-0.476,0.498-0.766,0.695
		c-0.29,0.196-0.6,0.358-0.931,0.485c-0.33,0.126-0.671,0.221-1.025,0.285c-0.353,0.063-0.703,0.095-1.05,0.095
		c-0.779,0-1.488-0.188-2.125-0.565c-0.636-0.377-1.138-0.952-1.505-1.725c-0.18,0.413-0.415,0.767-0.704,1.06
		c-0.291,0.293-0.613,0.533-0.966,0.72c-0.354,0.187-0.729,0.322-1.125,0.405c-0.396,0.083-0.792,0.125-1.185,0.125
		c-0.46,0-0.88-0.059-1.26-0.175c-0.381-0.117-0.709-0.292-0.985-0.524c-0.277-0.234-0.49-0.527-0.64-0.88
		c-0.15-0.354-0.225-0.77-0.225-1.25c0-0.4,0.109-0.793,0.33-1.18c0.22-0.387,0.574-0.734,1.064-1.04
		c0.49-0.307,1.132-0.559,1.925-0.755c0.794-0.196,1.764-0.308,2.91-0.335v-0.5c0-0.787-0.169-1.39-0.505-1.81
		s-0.835-0.63-1.495-0.63c-0.433,0-0.798,0.058-1.095,0.175s-0.553,0.245-0.771,0.385c-0.217,0.14-0.403,0.268-0.56,0.385
		s-0.313,0.175-0.465,0.175c-0.12,0-0.226-0.032-0.315-0.095s-0.161-0.142-0.215-0.235l-0.32-0.57
		c0.561-0.54,1.142-0.943,1.745-1.209c0.604-0.267,1.282-0.4,2.035-0.4c0.8,0,1.443,0.17,1.931,0.51
		c0.486,0.34,0.84,0.813,1.06,1.42c0.36-0.586,0.828-1.052,1.405-1.395C576.16,55.65,576.853,55.478,577.659,55.478z M573.15,60.908
		c-0.821,0.033-1.518,0.108-2.09,0.225c-0.573,0.117-1.04,0.268-1.401,0.455c-0.358,0.187-0.621,0.4-0.785,0.64
		c-0.163,0.24-0.244,0.5-0.244,0.78c0,0.58,0.167,1.003,0.5,1.27c0.334,0.267,0.77,0.4,1.31,0.4c0.38,0,0.735-0.06,1.065-0.18
		s0.615-0.303,0.859-0.55c0.243-0.246,0.436-0.553,0.575-0.92c0.141-0.366,0.21-0.796,0.21-1.29L573.15,60.908L573.15,60.908z
		 M577.589,56.788c-0.406,0-0.771,0.068-1.09,0.205s-0.595,0.335-0.825,0.595c-0.229,0.26-0.413,0.577-0.55,0.95
		s-0.229,0.793-0.275,1.26h5.081c0-0.433-0.052-0.835-0.155-1.205c-0.104-0.37-0.255-0.688-0.454-0.955
		c-0.2-0.267-0.445-0.475-0.735-0.625C578.294,56.864,577.963,56.788,577.589,56.788z"/>
	<path d="M583.779,65.768v-10.13h1.021c0.193,0,0.326,0.037,0.399,0.11c0.074,0.073,0.124,0.2,0.151,0.38l0.119,1.58
		c0.347-0.707,0.776-1.258,1.285-1.655c0.51-0.396,1.108-0.595,1.795-0.595c0.279,0,0.533,0.032,0.76,0.095
		c0.227,0.063,0.437,0.151,0.63,0.265l-0.23,1.33c-0.046,0.167-0.149,0.25-0.31,0.25c-0.093,0-0.236-0.032-0.43-0.095
		s-0.464-0.095-0.811-0.095c-0.619,0-1.138,0.18-1.555,0.54s-0.765,0.884-1.045,1.57v6.45H583.779z"/>
	<path d="M598.969,65.768c-0.254,0-0.413-0.123-0.479-0.37l-0.16-1.23c-0.434,0.527-0.929,0.949-1.485,1.265
		c-0.557,0.317-1.194,0.476-1.914,0.476c-0.58,0-1.107-0.112-1.581-0.335c-0.474-0.223-0.877-0.551-1.21-0.985
		c-0.334-0.433-0.59-0.973-0.771-1.62c-0.18-0.647-0.27-1.39-0.27-2.23c0-0.747,0.101-1.442,0.3-2.085
		c0.2-0.644,0.488-1.202,0.865-1.675c0.377-0.473,0.836-0.845,1.375-1.115c0.541-0.271,1.154-0.405,1.841-0.405
		c0.619,0,1.149,0.105,1.59,0.315c0.439,0.21,0.833,0.505,1.18,0.885v-5.62h1.78v14.73H598.969z M595.519,64.469
		c0.58,0,1.088-0.133,1.525-0.4c0.437-0.267,0.838-0.643,1.204-1.129v-4.9c-0.326-0.44-0.685-0.748-1.074-0.925
		c-0.391-0.177-0.822-0.265-1.295-0.265c-0.947,0-1.674,0.336-2.181,1.01s-0.76,1.634-0.76,2.88c0,0.66,0.057,1.225,0.17,1.695
		c0.113,0.47,0.28,0.857,0.5,1.16s0.49,0.525,0.811,0.665C594.74,64.399,595.106,64.469,595.519,64.469z"/>
	<path d="M605.399,52.458c0,0.173-0.034,0.335-0.104,0.485c-0.07,0.149-0.164,0.283-0.28,0.399
		c-0.117,0.117-0.252,0.208-0.405,0.275c-0.153,0.066-0.316,0.1-0.489,0.1c-0.175,0-0.336-0.033-0.485-0.1
		c-0.151-0.067-0.284-0.159-0.4-0.275c-0.117-0.116-0.208-0.25-0.275-0.399c-0.066-0.15-0.101-0.312-0.101-0.485
		s0.034-0.338,0.101-0.495c0.067-0.156,0.158-0.293,0.275-0.41c0.116-0.117,0.249-0.208,0.4-0.275c0.149-0.067,0.312-0.1,0.485-0.1
		c0.173,0,0.335,0.034,0.489,0.1c0.153,0.066,0.288,0.158,0.405,0.275c0.116,0.117,0.21,0.253,0.28,0.41
		C605.365,52.12,605.399,52.285,605.399,52.458z M604.999,55.638v10.13h-1.78v-10.13H604.999z"/>
	<path d="M612.149,55.478c0.606,0,1.167,0.102,1.68,0.305c0.514,0.203,0.957,0.497,1.331,0.88c0.373,0.383,0.664,0.857,0.875,1.42
		c0.21,0.563,0.314,1.205,0.314,1.925c0,0.28-0.03,0.467-0.09,0.56s-0.174,0.14-0.34,0.14h-6.74c0.013,0.64,0.1,1.197,0.26,1.67
		c0.16,0.474,0.381,0.869,0.66,1.186c0.28,0.316,0.613,0.554,1,0.709c0.386,0.157,0.82,0.235,1.3,0.235
		c0.447,0,0.832-0.052,1.155-0.155c0.323-0.104,0.602-0.215,0.835-0.335c0.233-0.12,0.429-0.232,0.585-0.335
		c0.156-0.104,0.291-0.155,0.405-0.155c0.146,0,0.26,0.058,0.34,0.17l0.5,0.65c-0.221,0.267-0.483,0.498-0.791,0.695
		c-0.307,0.196-0.635,0.358-0.984,0.484c-0.351,0.127-0.712,0.222-1.085,0.285c-0.374,0.063-0.743,0.095-1.109,0.095
		c-0.701,0-1.346-0.118-1.936-0.355s-1.1-0.583-1.53-1.04c-0.43-0.457-0.765-1.021-1.005-1.695c-0.24-0.673-0.36-1.446-0.36-2.32
		c0-0.707,0.109-1.367,0.325-1.98c0.217-0.613,0.528-1.145,0.936-1.595c0.406-0.451,0.903-0.804,1.49-1.06
		C610.756,55.607,611.415,55.478,612.149,55.478z M612.189,56.788c-0.86,0-1.536,0.249-2.029,0.745
		c-0.494,0.497-0.8,1.185-0.92,2.064h5.51c0-0.413-0.057-0.792-0.17-1.135s-0.28-0.64-0.5-0.89s-0.489-0.443-0.805-0.58
		C612.957,56.857,612.595,56.788,612.189,56.788z"/>
	<path d="M618.618,65.768v-10.13h1.02c0.194,0,0.327,0.037,0.4,0.11s0.124,0.2,0.15,0.38l0.12,1.58
		c0.347-0.707,0.775-1.258,1.285-1.655c0.51-0.396,1.107-0.595,1.794-0.595c0.28,0,0.533,0.032,0.761,0.095
		c0.227,0.063,0.437,0.151,0.63,0.265l-0.23,1.33c-0.047,0.167-0.149,0.25-0.31,0.25c-0.094,0-0.236-0.032-0.431-0.095
		c-0.193-0.063-0.463-0.095-0.81-0.095c-0.619,0-1.139,0.18-1.555,0.54c-0.417,0.36-0.766,0.884-1.045,1.57v6.45H618.618z"/>
</g>
<line fill="none" stroke="#000000" stroke-miterlimit="10" x1="276.24" y1="102.884" x2="276.24" y2="91.726"/>
<line fill="none" stroke="#000000" stroke-miterlimit="10" x1="210.407" y1="86.68" x2="210.407" y2="75.522"/>
<line fill="none" stroke="#000000" stroke-miterlimit="10" x1="302.815" y1="104.521" x2="302.815" y2="93.362"/>
<line fill="none" stroke="#000000" stroke-miterlimit="10" x1="312.722" y1="104.521" x2="312.722" y2="93.362"/>
<line fill="none" stroke="#000000" stroke-miterlimit="10" x1="396.889" y1="93.362" x2="396.889" y2="82.204"/>
<line fill="none" stroke="#000000" stroke-miterlimit="10" x1="554.111" y1="102.884" x2="554.111" y2="91.726"/>
<line fill="none" stroke="#000000" stroke-miterlimit="10" x1="488.278" y1="86.68" x2="488.278" y2="75.522"/>
<line fill="none" stroke="#000000" stroke-miterlimit="10" x1="580.685" y1="104.521" x2="580.685" y2="93.362"/>
<line fill="none" stroke="#000000" stroke-miterlimit="10" x1="590.592" y1="104.521" x2="590.592" y2="93.362"/>
<line fill="none" stroke="#000000" stroke-miterlimit="10" x1="674.759" y1="93.362" x2="674.759" y2="82.204"/>
</svg>
