<svg xml:space="preserve" width="400" height="400" xmlns="http://www.w3.org/2000/svg"><path fill="#919191" d="M200.019 335 71.612 241.736l49.022-150.942 158.701-.023 49.063 150.927z"/><circle cx="200" cy="200" r="195" fill="#FF7C80"/><circle cx="200" cy="200" r="135" fill="#CFF"/><circle cx="200" cy="200" r="75" fill="#0CF"/><g fill="#111"><path d="M140.616 288.7c.485 0 .939.071 1.36.216s.785.354 1.092.628.548.609.725 1.004c.176.396.264.843.264 1.345 0 .426-.064.82-.192 1.184s-.301.711-.52 1.044-.471.655-.756.968a35.35 35.35 0 0 1-.908.956l-3.016 3.088c.213-.059.429-.104.647-.14s.43-.053.632-.053h3.84c.155 0 .277.046.368.137.091.09.137.208.137.352v.864h-7.648v-.487a.89.89 0 0 1 .06-.313.84.84 0 0 1 .196-.297l3.672-3.688c.305-.309.581-.606.832-.892.251-.286.466-.572.645-.86s.315-.58.412-.876c.096-.296.144-.612.144-.948s-.054-.631-.16-.884-.253-.462-.439-.628c-.188-.165-.405-.289-.656-.372s-.521-.124-.809-.124c-.287 0-.555.043-.8.128a2.146 2.146 0 0 0-1.131.895 2.102 2.102 0 0 0-.276.689.64.64 0 0 1-.191.336.525.525 0 0 1-.336.104c-.027 0-.055-.002-.084-.004a3.714 3.714 0 0 1-.101-.012l-.743-.129a4.2 4.2 0 0 1 .432-1.388c.213-.402.484-.739.812-1.012a3.459 3.459 0 0 1 1.128-.62c.421-.14.878-.211 1.368-.211zM145.792 299.412a1.015 1.015 0 0 1 .284-.712.987.987 0 0 1 1.1-.216.978.978 0 0 1 .532.535c.051.123.076.254.076.393a.983.983 0 0 1-1 .999c-.139 0-.27-.025-.393-.076-.122-.051-.228-.121-.315-.212s-.157-.196-.208-.315a.999.999 0 0 1-.076-.396zM157.415 299.061c.475 0 .899-.08 1.272-.24s.689-.385.948-.672c.258-.289.456-.633.592-1.032.136-.4.204-.841.204-1.32v-6.968h1.544v6.968c0 .661-.105 1.274-.316 1.841a4.289 4.289 0 0 1-.903 1.467c-.393.414-.871.738-1.437.973s-1.2.352-1.904.352-1.339-.117-1.903-.352a4.156 4.156 0 0 1-1.44-.973 4.23 4.23 0 0 1-.908-1.467 5.23 5.23 0 0 1-.315-1.841v-6.968h1.544v6.96c0 .479.067.92.204 1.319.136.4.333.744.592 1.033.259.287.576.513.952.676.375.162.799.244 1.274.244zM170.119 300.292c-.203 0-.331-.099-.384-.296l-.128-.984a4.259 4.259 0 0 1-1.188 1.012c-.445.254-.956.381-1.532.381-.464 0-.885-.09-1.264-.268a2.624 2.624 0 0 1-.968-.789c-.267-.346-.473-.778-.616-1.296-.144-.517-.216-1.112-.216-1.784a5.6 5.6 0 0 1 .24-1.668 4.08 4.08 0 0 1 .691-1.34 3.24 3.24 0 0 1 1.101-.892 3.245 3.245 0 0 1 1.472-.324c.496 0 .92.084 1.271.252.353.168.667.404.944.708v-4.496h1.424v11.784h-.847zm-2.76-1.04c.464 0 .87-.106 1.22-.32.35-.213.671-.514.964-.904v-3.92c-.262-.352-.548-.598-.86-.739a2.469 2.469 0 0 0-1.035-.212c-.758 0-1.339.27-1.744.808-.405.539-.608 1.307-.608 2.304 0 .528.045.98.136 1.356s.225.686.4.928c.176.243.392.421.648.532.255.11.548.167.879.167zM172.335 292.188h1.168c.112 0 .206.029.28.088.075.06.128.129.16.209l2.056 5.216c.075.192.134.384.177.575.042.192.082.382.119.568.043-.187.089-.376.137-.568.048-.191.109-.383.184-.575l2.08-5.216a.48.48 0 0 1 .156-.213.423.423 0 0 1 .268-.084h1.112l-3.304 8.104h-1.288l-3.305-8.104zM183.455 289.645a.905.905 0 0 1-.084.388 1.104 1.104 0 0 1-.548.54.983.983 0 0 1-.781 0 1.054 1.054 0 0 1-.32-.221 1.046 1.046 0 0 1-.22-.319c-.054-.12-.08-.249-.08-.388s.026-.271.08-.396a1.04 1.04 0 0 1 .54-.548c.12-.054.249-.08.388-.08s.27.026.393.08c.122.054.23.126.323.22.094.094.168.203.225.328a.954.954 0 0 1 .084.396zm-.32 2.543v8.104h-1.424v-8.104h1.424zM187.127 288.508v6.936h.367c.107 0 .195-.014.265-.043s.146-.09.231-.18l2.561-2.744c.08-.086.16-.155.239-.209a.574.574 0 0 1 .32-.08h1.296l-2.983 3.176a2.398 2.398 0 0 1-.221.24c-.071.07-.153.131-.243.185.096.063.183.138.26.22.077.083.15.178.22.284l3.168 4h-1.28a.621.621 0 0 1-.3-.067.798.798 0 0 1-.236-.213l-2.663-3.32a.62.62 0 0 0-.24-.219.94.94 0 0 0-.36-.053h-.399v3.872h-1.433v-11.784h1.431zM195.614 288.508v11.784h-1.424v-11.784h1.424zM200.03 289.645a.905.905 0 0 1-.084.388 1.104 1.104 0 0 1-.548.54.983.983 0 0 1-.781 0 1.054 1.054 0 0 1-.32-.221 1.046 1.046 0 0 1-.22-.319c-.054-.12-.08-.249-.08-.388s.026-.271.08-.396a1.04 1.04 0 0 1 .54-.548c.12-.054.249-.08.388-.08s.27.026.393.08c.122.054.23.126.323.22.094.094.168.203.225.328a.954.954 0 0 1 .084.396zm-.32 2.543v8.104h-1.424v-8.104h1.424zM202.222 300.292v-8.104h.848c.203 0 .331.1.385.297l.111.879a4.556 4.556 0 0 1 1.181-.943c.435-.24.937-.359 1.508-.359.442 0 .833.072 1.172.219.339.147.621.355.848.625s.398.594.517.972c.117.379.176.798.176 1.256v5.16h-1.424v-5.16c0-.613-.141-1.089-.42-1.428-.28-.339-.708-.509-1.284-.509-.422 0-.814.102-1.181.305a3.923 3.923 0 0 0-1.012.824v5.968h-1.425zM213.846 292.052c.352 0 .681.039.987.116.307.078.586.191.836.34h2.2v.528c0 .176-.112.288-.336.336l-.92.128c.182.347.271.733.271 1.16 0 .395-.075.754-.228 1.076s-.362.599-.632.828a2.86 2.86 0 0 1-.96.527 3.854 3.854 0 0 1-1.22.184c-.379 0-.736-.045-1.072-.135-.171.105-.3.221-.389.344a.618.618 0 0 0-.132.359c0 .192.077.338.232.436.154.1.36.17.616.213s.546.069.872.08c.325.01.657.027.995.052.339.024.671.065.996.124s.616.154.872.288.462.317.616.552.232.539.232.912c0 .347-.087.683-.261 1.008a2.715 2.715 0 0 1-.748.868 3.867 3.867 0 0 1-1.191.608c-.47.152-1 .228-1.592.228a6.164 6.164 0 0 1-1.557-.176c-.445-.118-.814-.274-1.107-.472-.294-.197-.514-.426-.66-.685s-.22-.529-.22-.812c0-.4.126-.74.38-1.021.253-.28.601-.503 1.044-.668a1.424 1.424 0 0 1-.548-.428c-.137-.179-.204-.417-.204-.716 0-.117.021-.238.063-.364s.108-.249.196-.372.196-.24.324-.352c.128-.112.277-.211.447-.297-.399-.224-.713-.521-.939-.892s-.34-.804-.34-1.3c0-.395.076-.754.228-1.076a2.37 2.37 0 0 1 .637-.824c.271-.227.596-.4.972-.523s.791-.182 1.24-.182zm2.527 8.68c0-.203-.056-.365-.168-.488s-.264-.217-.456-.284a3.269 3.269 0 0 0-.664-.147c-.251-.033-.515-.055-.792-.068s-.56-.028-.848-.044a7.966 7.966 0 0 1-.824-.089c-.304.145-.551.32-.74.529a1.064 1.064 0 0 0-.283.743c0 .182.046.351.14.509.093.156.236.293.428.407.192.114.434.206.725.272.29.066.633.1 1.027.1.384 0 .729-.035 1.032-.104.304-.07.562-.168.772-.297.21-.127.371-.279.483-.455s.168-.371.168-.584zm-2.527-4.4c.287 0 .542-.04.764-.12.221-.08.406-.192.556-.336s.262-.315.336-.517a1.86 1.86 0 0 0 .112-.659c0-.496-.15-.891-.452-1.185-.302-.293-.74-.439-1.315-.439-.571 0-1.007.146-1.309.439-.301.294-.452.688-.452 1.185 0 .239.039.46.116.659.077.201.19.373.34.517s.333.256.552.336.469.12.752.12zM223.933 293.523a.314.314 0 0 1-.296.177.539.539 0 0 1-.271-.089c-.102-.059-.226-.123-.372-.195s-.321-.139-.524-.2a2.47 2.47 0 0 0-.72-.092c-.24 0-.456.03-.648.092a1.59 1.59 0 0 0-.491.252c-.137.106-.24.231-.313.372a1 1 0 0 0-.107.46c0 .208.06.382.18.521s.278.258.476.359.422.191.672.268c.251.078.509.16.772.248.264.089.521.186.771.293.251.106.475.24.673.4.197.159.355.355.476.588.12.231.18.51.18.836 0 .373-.066.719-.199 1.035a2.258 2.258 0 0 1-.593.824 2.861 2.861 0 0 1-.96.549 3.95 3.95 0 0 1-1.312.199 4.115 4.115 0 0 1-1.536-.275 3.89 3.89 0 0 1-1.168-.709l.336-.543a.478.478 0 0 1 .152-.16c.059-.037.136-.057.231-.057s.197.037.304.112c.107.075.236.157.389.248.151.091.336.173.552.248s.486.112.813.112c.276 0 .52-.037.728-.108.208-.072.381-.169.52-.292s.242-.264.309-.424.1-.331.1-.512c0-.225-.06-.41-.18-.557s-.278-.271-.476-.376a3.944 3.944 0 0 0-.677-.272 33.668 33.668 0 0 1-.775-.244c-.265-.084-.523-.182-.776-.291s-.479-.247-.676-.412a1.89 1.89 0 0 1-.477-.612c-.119-.243-.18-.537-.18-.884a2.182 2.182 0 0 1 .752-1.645c.245-.216.547-.388.904-.516s.765-.191 1.224-.191c.533 0 1.012.084 1.437.252.424.168.79.398 1.1.691l-.324.52zM225.868 294.893h3.952v1.207h-3.952v-1.207zM237.444 292.796a.767.767 0 0 1-.057.292.973.973 0 0 1-.144.252l-4.384 5.84h4.424v1.112h-6.104v-.592c0-.069.018-.151.053-.244.034-.093.084-.183.147-.269l4.408-5.879h-4.36v-1.121h6.017v.609zM242.46 292.061c.592 0 1.126.098 1.604.295s.883.479 1.216.84c.334.363.59.803.769 1.316.179.516.268 1.09.268 1.725 0 .64-.089 1.216-.268 1.728-.179.513-.435.95-.769 1.312a3.307 3.307 0 0 1-1.216.836c-.478.195-1.012.293-1.604.293s-1.127-.098-1.604-.293a3.348 3.348 0 0 1-1.22-.836 3.711 3.711 0 0 1-.776-1.312c-.181-.512-.271-1.088-.271-1.728 0-.635.091-1.209.271-1.725.182-.514.44-.953.776-1.316.336-.361.742-.643 1.22-.84s1.012-.295 1.604-.295zm0 7.231c.8 0 1.397-.269 1.792-.804.395-.536.592-1.284.592-2.244 0-.965-.197-1.717-.592-2.256s-.992-.809-1.792-.809c-.405 0-.758.07-1.057.209s-.548.338-.748.6c-.199.262-.349.582-.447.964s-.148.812-.148 1.292.05.909.148 1.288c.099.378.248.697.447.956.2.258.449.457.748.596s.652.208 1.057.208zM248.076 300.292v-8.104h.848c.203 0 .331.1.385.297l.111.879a4.556 4.556 0 0 1 1.181-.943c.435-.24.937-.359 1.508-.359.442 0 .833.072 1.172.219.339.147.621.355.848.625s.398.594.517.972c.117.379.176.798.176 1.256v5.16h-1.424v-5.16c0-.613-.141-1.089-.42-1.428-.28-.339-.708-.509-1.284-.509-.422 0-.814.102-1.181.305a3.923 3.923 0 0 0-1.012.824v5.968h-1.425zM260.181 292.061c.485 0 .934.081 1.344.244.411.162.766.396 1.064.703s.532.686.7 1.137c.168.45.252.963.252 1.539 0 .225-.024.373-.072.448s-.139.112-.272.112h-5.392c.011.512.08.957.208 1.336s.304.695.528.947c.224.254.49.443.8.568s.656.188 1.04.188c.357 0 .665-.042.924-.124a4.43 4.43 0 0 0 1.136-.537c.126-.083.233-.124.324-.124.117 0 .208.045.272.137l.399.52c-.176.213-.387.398-.632.556s-.508.286-.788.388-.569.178-.868.229-.595.076-.888.076c-.56 0-1.076-.096-1.548-.284a3.401 3.401 0 0 1-1.225-.832 3.826 3.826 0 0 1-.804-1.356c-.191-.538-.288-1.156-.288-1.855 0-.565.087-1.094.26-1.584.174-.49.423-.916.748-1.276s.723-.643 1.192-.848c.471-.207.999-.308 1.586-.308zm.032 1.046c-.688 0-1.229.199-1.624.597s-.641.948-.736 1.651h4.408c0-.33-.046-.633-.136-.908a2.046 2.046 0 0 0-.4-.711 1.804 1.804 0 0 0-.644-.465 2.181 2.181 0 0 0-.868-.164z"/></g><g fill="#111"><path d="M136.425 204.454h2.464v-7.816c0-.235.008-.472.024-.712l-2.048 1.752a.586.586 0 0 1-.16.092.455.455 0 0 1-.368-.024.388.388 0 0 1-.144-.124l-.448-.616 3.408-2.952h1.159v10.4h2.257v1.088h-6.145v-1.088zM144.112 204.662a1.015 1.015 0 0 1 .284-.712.987.987 0 0 1 1.1-.216.978.978 0 0 1 .532.535c.051.123.076.254.076.393a.983.983 0 0 1-1 .999c-.139 0-.27-.025-.393-.076-.122-.051-.228-.121-.315-.212s-.157-.196-.208-.315a1.016 1.016 0 0 1-.076-.396zM157.151 195.87a.64.64 0 0 1-.151.18.34.34 0 0 1-.208.06c-.091 0-.196-.045-.316-.136s-.271-.191-.456-.3c-.184-.109-.405-.209-.664-.3s-.571-.136-.939-.136c-.347 0-.653.047-.92.14-.268.093-.49.22-.668.38a1.56 1.56 0 0 0-.404.564c-.091.216-.136.45-.136.7 0 .32.078.585.235.796.157.211.365.391.624.54.259.149.552.279.88.388s.664.223 1.009.34c.344.117.68.25 1.008.396.328.147.621.332.88.556s.467.499.624.824c.157.326.236.726.236 1.201 0 .501-.086.972-.257 1.412-.17.439-.42.822-.748 1.147a3.51 3.51 0 0 1-1.208.769c-.477.186-1.02.279-1.628.279a4.97 4.97 0 0 1-2.027-.404 4.758 4.758 0 0 1-1.564-1.092l.448-.736a.59.59 0 0 1 .156-.147.364.364 0 0 1 .204-.06c.111 0 .239.06.384.18.144.119.324.252.54.396.216.144.477.275.784.396.307.12.681.18 1.123.18.368 0 .696-.05.984-.151s.532-.244.732-.429c.199-.184.353-.403.46-.659a2.22 2.22 0 0 0 .16-.856c0-.347-.079-.631-.236-.853-.157-.221-.364-.406-.62-.556s-.548-.276-.876-.38l-1.008-.32c-.344-.11-.681-.236-1.008-.38a3.284 3.284 0 0 1-.876-.56 2.552 2.552 0 0 1-.62-.86c-.157-.344-.236-.769-.236-1.276a3.045 3.045 0 0 1 .92-2.184 3.308 3.308 0 0 1 1.108-.704c.439-.176.945-.264 1.516-.264.64 0 1.224.101 1.752.304s.989.496 1.384.88l-.377.735zM161.439 194.894a.905.905 0 0 1-.084.388c-.057.12-.131.227-.225.32a1.04 1.04 0 0 1-.323.22c-.123.054-.254.08-.393.08s-.268-.026-.388-.08a1.05 1.05 0 0 1-.54-.54.99.99 0 0 1 0-.784 1.028 1.028 0 0 1 .928-.628c.139 0 .27.027.393.08.122.053.23.126.323.22.094.093.168.203.225.328a.961.961 0 0 1 .084.396zm-.32 2.544v8.104h-1.424v-8.104h1.424zM165.111 193.758v6.936h.367c.107 0 .195-.015.265-.044s.146-.089.231-.18l2.561-2.744c.08-.085.16-.155.239-.208a.574.574 0 0 1 .32-.08h1.296l-2.983 3.176a2.64 2.64 0 0 1-.221.24 1.283 1.283 0 0 1-.243.184c.096.063.183.138.26.22.077.083.15.178.22.284l3.168 4h-1.28a.621.621 0 0 1-.3-.067.798.798 0 0 1-.236-.213l-2.663-3.32a.62.62 0 0 0-.24-.219.94.94 0 0 0-.36-.053h-.399v3.872h-1.433v-11.784h1.431zM173.495 193.758v6.936h.367c.107 0 .195-.015.265-.044s.146-.089.231-.18l2.561-2.744c.08-.085.16-.155.239-.208a.574.574 0 0 1 .32-.08h1.296l-2.983 3.176a2.64 2.64 0 0 1-.221.24 1.283 1.283 0 0 1-.243.184c.096.063.183.138.26.22.077.083.15.178.22.284l3.168 4h-1.28a.621.621 0 0 1-.3-.067.798.798 0 0 1-.236-.213l-2.663-3.32a.62.62 0 0 0-.24-.219.94.94 0 0 0-.36-.053h-.399v3.872h-1.433v-11.784h1.431zM183.126 197.31c.485 0 .934.082 1.344.244.411.163.766.397 1.064.704.299.307.532.686.7 1.136s.252.964.252 1.54c0 .224-.024.373-.072.448s-.139.112-.272.112h-5.392c.011.512.08.957.208 1.336s.304.695.528.947c.224.254.49.443.8.568s.656.188 1.04.188c.357 0 .665-.042.924-.124a4.43 4.43 0 0 0 1.136-.537c.126-.083.233-.124.324-.124.117 0 .208.045.272.137l.399.52c-.176.213-.387.398-.632.556s-.508.286-.788.388-.569.178-.868.229-.595.076-.888.076c-.56 0-1.076-.096-1.548-.284a3.401 3.401 0 0 1-1.225-.832 3.826 3.826 0 0 1-.804-1.356c-.191-.538-.288-1.156-.288-1.855 0-.565.087-1.093.26-1.584.174-.491.423-.916.748-1.276a3.44 3.44 0 0 1 1.192-.848 3.92 3.92 0 0 1 1.586-.309zm.032 1.048c-.688 0-1.229.199-1.624.596s-.641.948-.736 1.652h4.408c0-.331-.046-.633-.136-.908a2.05 2.05 0 0 0-.4-.712 1.801 1.801 0 0 0-.644-.464 2.181 2.181 0 0 0-.868-.164zM188.303 205.542v-8.104h.816c.154 0 .261.029.319.088.059.059.099.16.12.304l.096 1.264c.277-.565.62-1.006 1.028-1.324s.887-.476 1.437-.476a2.114 2.114 0 0 1 1.111.288l-.184 1.064c-.037.133-.12.2-.248.2-.075 0-.189-.025-.344-.076-.155-.051-.371-.076-.648-.076-.496 0-.91.144-1.244.432-.333.288-.611.707-.836 1.256v5.16h-1.423zM194.75 205.542v-11.784h1.424v4.768a4.36 4.36 0 0 1 1.152-.884c.421-.221.906-.332 1.456-.332.442 0 .833.073 1.172.22.339.147.621.355.848.624.227.27.398.594.517.972.117.379.176.797.176 1.256v5.16h-1.424v-5.16c0-.613-.141-1.089-.42-1.428-.28-.339-.708-.508-1.284-.508-.422 0-.814.102-1.181.304a3.923 3.923 0 0 0-1.012.824v5.968h-1.424zM206.854 197.31c.485 0 .934.082 1.344.244.411.163.766.397 1.064.704.299.307.532.686.7 1.136s.252.964.252 1.54c0 .224-.024.373-.072.448s-.139.112-.272.112h-5.392c.011.512.08.957.208 1.336s.304.695.528.947c.224.254.49.443.8.568s.656.188 1.04.188c.357 0 .665-.042.924-.124a4.43 4.43 0 0 0 1.136-.537c.126-.083.233-.124.324-.124.117 0 .208.045.272.137l.399.52c-.176.213-.387.398-.632.556s-.508.286-.788.388-.569.178-.868.229-.595.076-.888.076c-.56 0-1.076-.096-1.548-.284a3.401 3.401 0 0 1-1.225-.832 3.826 3.826 0 0 1-.804-1.356c-.191-.538-.288-1.156-.288-1.855 0-.565.087-1.093.26-1.584.174-.491.423-.916.748-1.276a3.44 3.44 0 0 1 1.192-.848c.472-.206 1-.309 1.586-.309zm.033 1.048c-.688 0-1.229.199-1.624.596s-.641.948-.736 1.652h4.408c0-.331-.046-.633-.136-.908a2.05 2.05 0 0 0-.4-.712 1.801 1.801 0 0 0-.644-.464 2.181 2.181 0 0 0-.868-.164zM217.735 205.542c-.203 0-.331-.099-.384-.296l-.128-.984a4.259 4.259 0 0 1-1.188 1.012c-.445.254-.956.381-1.532.381-.464 0-.885-.09-1.264-.268a2.624 2.624 0 0 1-.968-.789c-.267-.346-.473-.778-.616-1.296-.144-.517-.216-1.112-.216-1.784 0-.597.08-1.153.24-1.667a4.07 4.07 0 0 1 .691-1.34 3.252 3.252 0 0 1 1.101-.892 3.245 3.245 0 0 1 1.472-.324c.496 0 .92.084 1.271.252.353.168.667.404.944.708v-4.496h1.424v11.784h-.847zm-2.759-1.04c.464 0 .87-.106 1.22-.32.35-.213.671-.514.964-.904v-3.919c-.262-.352-.548-.599-.86-.74a2.469 2.469 0 0 0-1.035-.212c-.758 0-1.339.27-1.744.808-.405.539-.608 1.307-.608 2.304 0 .528.045.98.136 1.356s.225.686.4.928c.176.243.392.421.648.532.255.11.548.167.879.167zM225.614 198.774a.313.313 0 0 1-.296.176.546.546 0 0 1-.271-.088 6.501 6.501 0 0 0-.372-.196 3.417 3.417 0 0 0-.524-.2 2.505 2.505 0 0 0-.72-.092c-.24 0-.456.031-.648.092a1.59 1.59 0 0 0-.491.252c-.137.107-.24.231-.313.372a1 1 0 0 0-.107.46c0 .208.06.381.18.52s.278.259.476.36c.197.101.422.19.672.268.251.078.509.16.772.248.264.088.521.185.771.292.251.106.475.24.673.4.197.159.355.355.476.588.12.231.18.51.18.836 0 .373-.066.719-.199 1.035a2.258 2.258 0 0 1-.593.824 2.861 2.861 0 0 1-.96.549 3.95 3.95 0 0 1-1.312.199 4.115 4.115 0 0 1-1.536-.275 3.89 3.89 0 0 1-1.168-.709l.336-.543a.478.478 0 0 1 .152-.16c.059-.037.136-.057.231-.057s.197.037.304.112c.107.075.236.157.389.248.151.091.336.173.552.248s.486.112.813.112c.276 0 .52-.037.728-.108.208-.072.381-.169.52-.292s.242-.264.309-.424.1-.331.1-.512c0-.225-.06-.41-.18-.557s-.278-.271-.476-.376a3.944 3.944 0 0 0-.677-.272 33.668 33.668 0 0 1-.775-.244c-.265-.084-.523-.182-.776-.291s-.479-.247-.676-.412a1.901 1.901 0 0 1-.477-.612c-.119-.243-.18-.537-.18-.884a2.182 2.182 0 0 1 .752-1.644c.245-.216.547-.388.904-.516s.765-.192 1.224-.192c.533 0 1.012.084 1.437.252.424.168.79.399 1.1.692l-.324.521zM227.55 200.142h3.952v1.208h-3.952v-1.208zM239.127 198.046a.763.763 0 0 1-.057.292 1.007 1.007 0 0 1-.144.252l-4.384 5.84h4.424v1.112h-6.104v-.592c0-.069.018-.151.053-.244.034-.093.084-.183.147-.269l4.408-5.879h-4.36v-1.12h6.017v.608zM244.142 197.31c.592 0 1.126.099 1.604.296s.883.478 1.216.84c.334.363.59.802.769 1.316s.268 1.089.268 1.724c0 .64-.089 1.216-.268 1.728-.179.513-.435.95-.769 1.312a3.307 3.307 0 0 1-1.216.836c-.478.195-1.012.293-1.604.293s-1.127-.098-1.604-.293a3.348 3.348 0 0 1-1.22-.836 3.711 3.711 0 0 1-.776-1.312c-.181-.512-.271-1.088-.271-1.728 0-.635.091-1.209.271-1.724.182-.515.44-.954.776-1.316.336-.362.742-.643 1.22-.84s1.012-.296 1.604-.296zm0 7.232c.8 0 1.397-.269 1.792-.804.395-.536.592-1.284.592-2.244 0-.965-.197-1.717-.592-2.256-.395-.539-.992-.808-1.792-.808-.405 0-.758.069-1.057.208s-.548.338-.748.6c-.199.262-.349.583-.447.964s-.148.812-.148 1.292.05.909.148 1.288c.099.378.248.697.447.956.2.258.449.457.748.596s.651.208 1.057.208zM249.758 205.542v-8.104h.848c.203 0 .331.099.385.296l.111.88a4.56 4.56 0 0 1 1.181-.944c.435-.24.937-.36 1.508-.36.442 0 .833.073 1.172.22.339.147.621.355.848.624.227.27.398.594.517.972.117.379.176.797.176 1.256v5.16h-1.424v-5.16c0-.613-.141-1.089-.42-1.428-.28-.339-.708-.508-1.284-.508-.422 0-.814.102-1.181.304a3.923 3.923 0 0 0-1.012.824v5.968h-1.425zM261.862 197.31c.485 0 .934.082 1.344.244.411.163.766.397 1.064.704.299.307.532.686.7 1.136s.252.964.252 1.54c0 .224-.024.373-.072.448s-.139.112-.272.112h-5.392c.011.512.08.957.208 1.336s.304.695.528.947c.224.254.49.443.8.568s.656.188 1.04.188c.357 0 .665-.042.924-.124a4.43 4.43 0 0 0 1.136-.537c.126-.083.233-.124.324-.124.117 0 .208.045.272.137l.399.52c-.176.213-.387.398-.632.556s-.508.286-.788.388-.569.178-.868.229-.595.076-.888.076c-.56 0-1.076-.096-1.548-.284a3.401 3.401 0 0 1-1.225-.832 3.826 3.826 0 0 1-.804-1.356c-.191-.538-.288-1.156-.288-1.855 0-.565.087-1.093.26-1.584.174-.491.423-.916.748-1.276a3.44 3.44 0 0 1 1.192-.848 3.92 3.92 0 0 1 1.586-.309zm.033 1.048c-.688 0-1.229.199-1.624.596s-.641.948-.736 1.652h4.408c0-.331-.046-.633-.136-.908a2.05 2.05 0 0 0-.4-.712 1.801 1.801 0 0 0-.644-.464 2.181 2.181 0 0 0-.868-.164z"/></g><g fill="#111"><path d="M120.002 353.949c.484 0 .933.07 1.344.209.41.139.764.336 1.06.592s.526.564.692.928c.165.363.248.766.248 1.207 0 .363-.047.688-.141.973-.093.285-.227.535-.399.752s-.383.398-.628.549c-.246.148-.52.27-.824.359.746.197 1.309.527 1.684.992.377.463.564 1.045.564 1.744 0 .527-.1 1.002-.301 1.424a3.2 3.2 0 0 1-.819 1.076 3.723 3.723 0 0 1-1.212.68 4.602 4.602 0 0 1-1.484.236c-.607 0-1.127-.076-1.56-.229s-.798-.361-1.097-.627c-.299-.268-.543-.584-.735-.949s-.354-.762-.488-1.188l.608-.256a.827.827 0 0 1 .336-.072.58.58 0 0 1 .283.068.42.42 0 0 1 .188.211c.011.021.021.045.032.068s.021.049.032.076c.074.154.165.33.272.523.105.195.25.379.432.549s.406.314.676.432.604.176 1.004.176.75-.064 1.052-.195.552-.301.753-.508a2.15 2.15 0 0 0 .603-1.457c0-.309-.041-.592-.124-.848s-.232-.477-.448-.664c-.216-.186-.515-.332-.896-.439-.381-.107-.87-.16-1.467-.16v-1.031c.484-.006.899-.059 1.243-.16.345-.102.626-.24.845-.416s.377-.387.476-.633.147-.518.147-.816c0-.33-.052-.617-.156-.863-.104-.246-.246-.447-.428-.607s-.396-.281-.644-.361-.517-.119-.804-.119a2.46 2.46 0 0 0-.801.127 2.17 2.17 0 0 0-.651.357c-.189.15-.349.332-.476.543a2.528 2.528 0 0 0-.289.684c-.043.156-.106.268-.191.336a.502.502 0 0 1-.328.105c-.027 0-.055-.002-.084-.004l-.1-.014-.744-.127c.074-.523.219-.986.432-1.389s.484-.74.813-1.012.703-.479 1.127-.619a4.303 4.303 0 0 1 1.373-.213zM125.025 364.662a1.015 1.015 0 0 1 .283-.713.989.989 0 0 1 .709-.295c.139 0 .27.025.392.08a.983.983 0 0 1 .532.535c.051.123.076.254.076.393a1 1 0 0 1-.076.395.97.97 0 0 1-.532.529c-.122.051-.253.076-.392.076s-.27-.025-.393-.076-.228-.121-.316-.213a1.001 1.001 0 0 1-.283-.711zM142.841 359.814c0 .857-.136 1.646-.408 2.363s-.655 1.334-1.151 1.852-1.092.92-1.789 1.205c-.695.285-1.465.428-2.308.428s-1.61-.143-2.304-.428-1.288-.688-1.784-1.205-.88-1.135-1.151-1.852c-.272-.717-.408-1.506-.408-2.363 0-.859.136-1.648.408-2.365.271-.717.655-1.336 1.151-1.855s1.091-.924 1.784-1.213c.693-.287 1.461-.432 2.304-.432s1.612.145 2.308.432c.697.289 1.293.693 1.789 1.213s.879 1.139 1.151 1.855.408 1.506.408 2.365zm-1.592 0c0-.705-.097-1.338-.288-1.896-.192-.561-.465-1.033-.816-1.42s-.778-.684-1.279-.893a4.374 4.374 0 0 0-1.681-.313c-.613 0-1.171.105-1.672.313a3.596 3.596 0 0 0-1.284.893 3.982 3.982 0 0 0-.82 1.42c-.191.559-.287 1.191-.287 1.896 0 .703.096 1.334.287 1.891.192.559.466 1.029.82 1.416.355.387.783.684 1.284.889s1.059.309 1.672.309c.618 0 1.179-.104 1.681-.309.501-.205.928-.502 1.279-.889s.624-.857.816-1.416c.191-.557.288-1.187.288-1.891zM143.713 357.438h1.168c.111 0 .205.029.279.088s.129.129.16.209l2.056 5.215c.075.191.134.385.177.576.042.191.082.381.119.568.043-.188.089-.377.137-.568s.109-.385.184-.576l2.08-5.215c.032-.086.084-.156.156-.213s.161-.084.268-.084h1.112l-3.304 8.104h-1.288l-3.304-8.104zM155.929 357.309c.485 0 .934.082 1.344.244.411.164.766.398 1.064.705s.532.686.7 1.135c.168.451.252.965.252 1.541 0 .225-.024.373-.072.447-.048.076-.139.113-.272.113h-5.392c.011.512.08.957.208 1.336s.304.693.528.947c.224.254.49.443.8.568s.656.188 1.04.188c.357 0 .665-.041.924-.123a4.724 4.724 0 0 0 1.136-.538c.126-.082.233-.123.324-.123.117 0 .208.045.272.135l.399.521a2.708 2.708 0 0 1-.632.555c-.245.158-.508.287-.788.389s-.569.178-.868.229-.595.076-.888.076c-.56 0-1.076-.096-1.548-.285a3.401 3.401 0 0 1-1.225-.832 3.821 3.821 0 0 1-.804-1.355c-.191-.539-.288-1.158-.288-1.855 0-.566.087-1.094.26-1.584a3.75 3.75 0 0 1 .748-1.277c.325-.359.723-.643 1.192-.848s.999-.309 1.586-.309zm.032 1.048c-.688 0-1.229.199-1.624.596-.395.398-.641.949-.736 1.652h4.408c0-.33-.046-.633-.136-.908a2.046 2.046 0 0 0-.4-.711 1.792 1.792 0 0 0-.644-.465 2.181 2.181 0 0 0-.868-.164zM161.104 365.541v-8.104h.816c.154 0 .261.029.319.088s.099.16.12.305l.096 1.264c.277-.566.62-1.008 1.028-1.324s.887-.477 1.437-.477c.224 0 .426.025.607.076s.35.121.504.213l-.184 1.063c-.037.135-.12.201-.248.201-.075 0-.189-.025-.344-.076-.155-.051-.371-.076-.648-.076-.496 0-.91.145-1.244.432-.333.289-.611.707-.836 1.256v5.16h-1.423zM167.601 365.541v-11.783h1.433v4.848a4.124 4.124 0 0 1 1.155-.939c.435-.238.933-.357 1.492-.357.47 0 .894.09 1.272.266.378.176.701.438.968.787s.472.781.616 1.297c.144.514.216 1.107.216 1.779 0 .598-.08 1.154-.24 1.668-.16.516-.391.961-.692 1.336a3.249 3.249 0 0 1-1.104.889 3.268 3.268 0 0 1-1.468.324c-.523 0-.967-.102-1.332-.305s-.685-.486-.956-.848l-.072.736c-.043.201-.165.303-.368.303h-.92zm3.616-7.096c-.464 0-.871.107-1.22.32-.35.213-.671.514-.964.904v3.92c.256.352.54.6.852.744.312.143.66.215 1.044.215.757 0 1.339-.27 1.744-.807.405-.539.608-1.307.608-2.305 0-.527-.047-.98-.141-1.359a2.68 2.68 0 0 0-.404-.934c-.176-.242-.392-.42-.647-.531s-.547-.167-.872-.167zM179.704 357.309c.485 0 .934.082 1.344.244.411.164.766.398 1.064.705s.532.686.7 1.135c.168.451.252.965.252 1.541 0 .225-.024.373-.072.447-.048.076-.139.113-.272.113h-5.392c.011.512.08.957.208 1.336s.304.693.528.947c.224.254.49.443.8.568s.656.188 1.04.188c.357 0 .665-.041.924-.123a4.724 4.724 0 0 0 1.136-.538c.126-.082.233-.123.324-.123.117 0 .208.045.272.135l.399.521a2.708 2.708 0 0 1-.632.555c-.245.158-.508.287-.788.389s-.569.178-.868.229-.595.076-.888.076c-.56 0-1.076-.096-1.548-.285a3.401 3.401 0 0 1-1.225-.832 3.821 3.821 0 0 1-.804-1.355c-.191-.539-.288-1.158-.288-1.855 0-.566.087-1.094.26-1.584a3.75 3.75 0 0 1 .748-1.277c.325-.359.723-.643 1.192-.848s.999-.309 1.586-.309zm.032 1.048c-.688 0-1.229.199-1.624.596-.395.398-.641.949-.736 1.652h4.408c0-.33-.046-.633-.136-.908a2.046 2.046 0 0 0-.4-.711 1.792 1.792 0 0 0-.644-.465 2.174 2.174 0 0 0-.868-.164zM186.464 353.758v11.783h-1.424v-11.783h1.424zM194.928 365.541h-.632a.748.748 0 0 1-.336-.064c-.086-.041-.142-.133-.168-.271l-.16-.752a9.423 9.423 0 0 1-.624.516 3.561 3.561 0 0 1-.641.385 3.234 3.234 0 0 1-.716.236c-.253.053-.534.08-.844.08-.314 0-.609-.045-.884-.133a1.876 1.876 0 0 1-1.2-1.064 2.328 2.328 0 0 1-.18-.955c0-.32.088-.629.264-.924.176-.297.46-.559.852-.789.393-.229.905-.416 1.54-.563s1.411-.23 2.328-.252v-.633c0-.629-.135-1.105-.403-1.428-.27-.322-.668-.484-1.196-.484-.347 0-.639.045-.876.133s-.443.186-.616.295-.322.209-.448.297a.643.643 0 0 1-.372.131.424.424 0 0 1-.252-.076.574.574 0 0 1-.172-.188l-.256-.455a4.63 4.63 0 0 1 1.448-.969 4.477 4.477 0 0 1 1.72-.32c.453 0 .856.076 1.208.225.353.148.648.357.888.623.24.268.422.59.544.969.123.379.185.795.185 1.248v5.182zm-3.697-.871a2.72 2.72 0 0 0 1.276-.293c.184-.092.359-.207.527-.34.169-.133.332-.285.492-.455v-1.689c-.655.021-1.213.074-1.672.156-.459.084-.832.191-1.12.324-.288.135-.497.291-.628.473s-.196.385-.196.607c0 .213.035.398.104.553a1.034 1.034 0 0 0 .696.596c.16.045.335.068.521.068zM201.728 358.773a.315.315 0 0 1-.296.176.546.546 0 0 1-.271-.088c-.102-.059-.226-.123-.372-.195s-.321-.139-.524-.201a2.505 2.505 0 0 0-.72-.092c-.24 0-.456.031-.648.092a1.612 1.612 0 0 0-.491.252c-.137.107-.24.232-.313.373s-.107.295-.107.459c0 .209.06.383.18.521s.278.258.476.359.422.191.672.268c.251.078.509.16.772.248s.521.186.771.293c.251.105.475.238.673.398.197.16.355.357.476.588.12.232.18.512.18.836 0 .375-.066.719-.199 1.037a2.275 2.275 0 0 1-.593.824 2.84 2.84 0 0 1-.96.547c-.379.135-.815.201-1.312.201a4.075 4.075 0 0 1-1.536-.277 3.906 3.906 0 0 1-1.168-.707l.336-.545a.49.49 0 0 1 .152-.158c.059-.039.136-.057.231-.057s.197.037.304.111c.107.074.236.158.389.248.151.092.336.174.552.248s.486.111.813.111c.276 0 .52-.035.728-.107s.381-.168.52-.291.242-.264.309-.424.1-.332.1-.514c0-.223-.06-.408-.18-.555s-.278-.271-.476-.377a3.944 3.944 0 0 0-.677-.271 47.547 47.547 0 0 1-.775-.244c-.265-.086-.523-.182-.776-.291s-.479-.248-.676-.412a1.884 1.884 0 0 1-.477-.613c-.119-.242-.18-.537-.18-.883a2.182 2.182 0 0 1 .752-1.645c.246-.217.547-.389.904-.516a3.59 3.59 0 0 1 1.224-.193c.533 0 1.012.084 1.437.252.424.17.79.4 1.1.693l-.324.521zM206.487 365.67c-.64 0-1.132-.18-1.476-.537-.345-.357-.517-.871-.517-1.543v-4.961h-.976a.317.317 0 0 1-.216-.076c-.06-.051-.089-.129-.089-.234v-.568l1.328-.168.328-2.504c.011-.08.046-.146.104-.197s.133-.076.224-.076h.72v2.793h2.32v1.031h-2.32v4.865c0 .34.083.594.248.76a.874.874 0 0 0 .641.248c.148 0 .278-.02.388-.061.109-.039.204-.084.284-.133.08-.047.147-.092.204-.131.056-.041.104-.061.147-.061.075 0 .142.045.2.137l.416.68c-.245.229-.541.41-.888.539a2.988 2.988 0 0 1-1.07.197zM209.999 365.541v-8.104h.848c.203 0 .331.1.385.297l.111.879a4.556 4.556 0 0 1 1.181-.943c.435-.24.937-.361 1.508-.361.442 0 .833.074 1.172.221s.621.355.848.625.398.592.517.971c.117.379.176.799.176 1.256v5.16h-1.424v-5.16c0-.613-.141-1.088-.42-1.428-.28-.338-.708-.508-1.284-.508-.422 0-.814.102-1.181.305a3.902 3.902 0 0 0-1.012.824v5.967h-1.425zM220.799 354.893a.9.9 0 0 1-.084.389 1.109 1.109 0 0 1-.548.541.983.983 0 0 1-.781 0 1.072 1.072 0 0 1-.54-.541.928.928 0 0 1-.08-.389 1.04 1.04 0 0 1 .62-.944.983.983 0 0 1 .781 0c.122.053.23.127.323.221.094.094.168.203.225.328a.953.953 0 0 1 .084.395zm-.32 2.545v8.104h-1.424v-8.104h1.424zM222.99 365.541v-8.104h.848c.203 0 .331.1.385.297l.111.879a4.556 4.556 0 0 1 1.181-.943c.435-.24.937-.361 1.508-.361.442 0 .833.074 1.172.221s.621.355.848.625.398.592.517.971c.117.379.176.799.176 1.256v5.16h-1.424v-5.16c0-.613-.141-1.088-.42-1.428-.28-.338-.708-.508-1.284-.508-.422 0-.814.102-1.181.305a3.902 3.902 0 0 0-1.012.824v5.967h-1.425zM234.615 357.301c.352 0 .681.039.987.117.307.076.586.189.836.34h2.2v.527c0 .176-.112.289-.336.336l-.92.129c.182.346.271.732.271 1.16 0 .395-.075.752-.228 1.076a2.445 2.445 0 0 1-.632.828 2.86 2.86 0 0 1-.96.527 3.854 3.854 0 0 1-1.22.184c-.379 0-.736-.045-1.072-.137-.171.107-.3.223-.389.346a.613.613 0 0 0-.132.359c0 .191.077.338.232.436.154.1.36.17.616.213s.546.068.872.08c.325.01.657.027.995.051.339.025.671.066.996.125s.616.154.872.287.462.318.616.553.232.539.232.912c0 .346-.087.682-.261 1.008a2.712 2.712 0 0 1-.748.867 3.847 3.847 0 0 1-1.191.609c-.47.15-1 .227-1.592.227-.593 0-1.111-.059-1.557-.176s-.814-.273-1.107-.471a2.052 2.052 0 0 1-.66-.686 1.626 1.626 0 0 1-.22-.811c0-.4.126-.74.38-1.021.253-.279.601-.502 1.044-.668a1.406 1.406 0 0 1-.548-.428c-.137-.178-.204-.416-.204-.715 0-.117.021-.24.063-.365s.108-.248.196-.371.196-.24.324-.352c.128-.113.277-.211.447-.297a2.521 2.521 0 0 1-.939-.893c-.227-.369-.34-.803-.34-1.299 0-.395.076-.754.228-1.076a2.37 2.37 0 0 1 .637-.824c.271-.227.596-.402.972-.523a4.03 4.03 0 0 1 1.24-.184zm2.528 8.681c0-.203-.056-.367-.168-.488a1.076 1.076 0 0 0-.456-.285 3.406 3.406 0 0 0-.664-.148c-.251-.031-.515-.053-.792-.066s-.56-.029-.848-.045-.563-.045-.824-.088c-.304.145-.551.32-.74.527a1.072 1.072 0 0 0-.283.744c0 .182.046.352.14.508.093.158.236.295.428.408.192.115.434.205.725.273.29.066.633.1 1.027.1.384 0 .729-.035 1.032-.104.304-.07.562-.168.772-.297.21-.129.371-.279.483-.455.112-.177.168-.371.168-.584zm-2.528-4.4c.287 0 .542-.041.764-.121a1.54 1.54 0 0 0 .556-.336c.149-.143.262-.316.336-.516.075-.199.112-.42.112-.66 0-.496-.15-.891-.452-1.184s-.74-.439-1.315-.439c-.571 0-1.007.146-1.309.439-.301.293-.452.688-.452 1.184 0 .24.039.461.116.66s.19.373.34.516c.149.145.333.256.552.336s.469.121.752.121zM244.702 358.773a.315.315 0 0 1-.296.176.546.546 0 0 1-.271-.088c-.102-.059-.226-.123-.372-.195s-.321-.139-.524-.201a2.505 2.505 0 0 0-.72-.092c-.24 0-.456.031-.648.092a1.612 1.612 0 0 0-.491.252c-.137.107-.24.232-.313.373s-.107.295-.107.459c0 .209.06.383.18.521s.278.258.476.359.422.191.672.268c.251.078.509.16.772.248s.521.186.771.293c.251.105.475.238.673.398.197.16.355.357.476.588.12.232.18.512.18.836 0 .375-.066.719-.199 1.037a2.275 2.275 0 0 1-.593.824 2.84 2.84 0 0 1-.96.547c-.379.135-.815.201-1.312.201a4.075 4.075 0 0 1-1.536-.277 3.906 3.906 0 0 1-1.168-.707l.336-.545a.49.49 0 0 1 .152-.158c.059-.039.136-.057.231-.057s.197.037.304.111c.107.074.236.158.389.248.151.092.336.174.552.248s.486.111.813.111c.276 0 .52-.035.728-.107s.381-.168.52-.291.242-.264.309-.424.1-.332.1-.514c0-.223-.06-.408-.18-.555s-.278-.271-.476-.377a3.944 3.944 0 0 0-.677-.271 47.547 47.547 0 0 1-.775-.244c-.265-.086-.523-.182-.776-.291s-.479-.248-.676-.412a1.884 1.884 0 0 1-.477-.613c-.119-.242-.18-.537-.18-.883a2.182 2.182 0 0 1 .752-1.645c.246-.217.547-.389.904-.516a3.59 3.59 0 0 1 1.224-.193c.533 0 1.012.084 1.437.252.424.17.79.4 1.1.693l-.324.521zM246.638 360.141h3.952v1.209h-3.952v-1.209zM258.214 358.045a.772.772 0 0 1-.057.293.973.973 0 0 1-.144.252l-4.384 5.84h4.424v1.111h-6.104v-.592c0-.068.018-.15.053-.244a1.07 1.07 0 0 1 .147-.268l4.408-5.881h-4.36v-1.119h6.017v.608zM263.229 357.309c.592 0 1.126.1 1.604.297s.883.477 1.216.84c.334.363.59.801.769 1.316.179.514.268 1.09.268 1.725 0 .639-.089 1.215-.268 1.727s-.435.949-.769 1.313c-.333.363-.738.641-1.216.836s-1.012.293-1.604.293-1.127-.098-1.604-.293-.884-.473-1.22-.836-.595-.801-.776-1.313a5.16 5.16 0 0 1-.271-1.727c0-.635.091-1.211.271-1.725.182-.516.44-.953.776-1.316s.742-.643 1.22-.84 1.013-.297 1.604-.297zm0 7.232c.8 0 1.397-.268 1.792-.803.395-.537.592-1.285.592-2.244 0-.967-.197-1.719-.592-2.256-.395-.539-.992-.809-1.792-.809-.405 0-.758.068-1.057.207s-.548.34-.748.602c-.199.26-.349.582-.447.963s-.148.813-.148 1.293c0 .479.05.908.148 1.287s.248.697.447.957c.2.258.449.457.748.596s.652.207 1.057.207zM268.846 365.541v-8.104h.848c.203 0 .331.1.385.297l.111.879a4.556 4.556 0 0 1 1.181-.943c.435-.24.937-.361 1.508-.361.442 0 .833.074 1.172.221s.621.355.848.625.398.592.517.971c.117.379.176.799.176 1.256v5.16h-1.424v-5.16c0-.613-.141-1.088-.42-1.428-.28-.338-.708-.508-1.284-.508-.422 0-.814.102-1.181.305a3.902 3.902 0 0 0-1.012.824v5.967h-1.425zM280.95 357.309c.485 0 .934.082 1.344.244.411.164.766.398 1.064.705s.532.686.7 1.135c.168.451.252.965.252 1.541 0 .225-.024.373-.072.447-.048.076-.139.113-.272.113h-5.392c.011.512.08.957.208 1.336s.304.693.528.947c.224.254.49.443.8.568s.656.188 1.04.188c.357 0 .665-.041.924-.123a4.724 4.724 0 0 0 1.136-.538c.126-.082.233-.123.324-.123.117 0 .208.045.272.135l.399.521a2.708 2.708 0 0 1-.632.555c-.245.158-.508.287-.788.389s-.569.178-.868.229-.595.076-.888.076c-.56 0-1.076-.096-1.548-.285a3.401 3.401 0 0 1-1.225-.832 3.821 3.821 0 0 1-.804-1.355c-.191-.539-.288-1.158-.288-1.855 0-.566.087-1.094.26-1.584a3.75 3.75 0 0 1 .748-1.277c.325-.359.723-.643 1.192-.848s.999-.309 1.586-.309zm.032 1.048c-.688 0-1.229.199-1.624.596-.395.398-.641.949-.736 1.652h4.408c0-.33-.046-.633-.136-.908a2.046 2.046 0 0 0-.4-.711 1.792 1.792 0 0 0-.644-.465 2.174 2.174 0 0 0-.868-.164z"/></g><path fill="#0CF" d="M198 125v-15h-4l6-10 6 10h-4v15z"/><path fill="#FF7C80" d="M198 335v-15h-4l6-10 6 10h-4v15z"/><path fill="#0CF" d="m245.669 259.525 8.809 12.142 3.237-2.349 1.015 11.618-10.728-4.571 3.238-2.349-8.808-12.142zM157.545 261.648l-8.797 12.15 3.24 2.347-10.724 4.58 1.005-11.62 3.239 2.346 8.798-12.148zM128.352 178.862l-14.262-4.648-1.239 3.804-7.649-8.804 11.367-2.607-1.24 3.804 14.262 4.648zM270.496 174.94l14.262-4.647-1.24-3.803 11.367 2.606-7.649 8.803-1.24-3.803-14.262 4.647z"/><path fill="#FF7C80" d="m122.377 89.473 8.815 12.136 3.237-2.351 1.022 11.617-10.731-4.564 3.236-2.351-8.815-12.136zM280.99 91.857l-8.795 12.151 3.241 2.346-10.725 4.582 1.004-11.62 3.24 2.346 8.795-12.15zM327.904 243.594l-14.263-4.643-1.238 3.805-7.652-8.801 11.365-2.611-1.237 3.804 14.264 4.641zM70.902 239.816l14.266-4.634-1.236-3.803 11.365 2.615-7.657 8.797-1.236-3.805-14.266 4.635z"/><circle cx="200" cy="200" r=".5" fill="#8C8C8C"/></svg>