<?xml version="1.0" encoding="utf-8"?>
<!-- Generator: Adobe Illustrator 16.0.3, SVG Export Plug-In . SVG Version: 6.00 Build 0)  -->
<!DOCTYPE svg PUBLIC "-//W3C//DTD SVG 1.1//EN" "http://www.w3.org/Graphics/SVG/1.1/DTD/svg11.dtd">
<svg version="1.1" id="Layer_1" xmlns="http://www.w3.org/2000/svg" xmlns:xlink="http://www.w3.org/1999/xlink" x="0px" y="0px"
	 width="400px" height="400px" viewBox="0 0 400 400" enable-background="new 0 0 400 400" xml:space="preserve">
<polygon fill="#919191" points="200.019,335 71.612,241.736 120.634,90.794 279.335,90.771 328.398,241.698 "/>
<circle fill="#FF7C80" cx="200" cy="200" r="195"/>
<circle fill="#CCFFFF" cx="200" cy="200" r="135"/>
<circle fill="#00CCFF" cx="200" cy="200" r="75"/>
<g>
	<path fill="#111111" d="M140.616,288.7c0.485,0,0.939,0.071,1.36,0.216s0.785,0.354,1.092,0.628s0.548,0.609,0.725,1.004
		c0.176,0.396,0.264,0.843,0.264,1.345c0,0.426-0.064,0.82-0.192,1.184s-0.301,0.711-0.52,1.044s-0.471,0.655-0.756,0.968
		c-0.286,0.313-0.588,0.631-0.908,0.956l-3.016,3.088c0.213-0.059,0.429-0.104,0.647-0.14s0.43-0.053,0.632-0.053h3.84
		c0.155,0,0.277,0.046,0.368,0.137c0.091,0.09,0.137,0.208,0.137,0.352v0.864h-7.648v-0.487c0-0.102,0.02-0.206,0.06-0.313
		c0.04-0.107,0.105-0.205,0.196-0.297l3.672-3.688c0.305-0.309,0.581-0.606,0.832-0.892c0.251-0.286,0.466-0.572,0.645-0.86
		s0.315-0.58,0.412-0.876c0.096-0.296,0.144-0.612,0.144-0.948s-0.054-0.631-0.16-0.884s-0.253-0.462-0.439-0.628
		c-0.188-0.165-0.405-0.289-0.656-0.372s-0.521-0.124-0.809-0.124c-0.287,0-0.555,0.043-0.8,0.128s-0.463,0.204-0.651,0.356
		c-0.189,0.152-0.35,0.332-0.48,0.539c-0.131,0.209-0.223,0.438-0.276,0.689c-0.042,0.154-0.106,0.266-0.191,0.336
		c-0.086,0.068-0.197,0.104-0.336,0.104c-0.027,0-0.055-0.002-0.084-0.004c-0.029-0.003-0.063-0.007-0.101-0.012l-0.743-0.129
		c0.074-0.522,0.218-0.984,0.432-1.388c0.213-0.402,0.484-0.739,0.812-1.012c0.328-0.272,0.704-0.479,1.128-0.62
		C139.669,288.771,140.126,288.7,140.616,288.7z"/>
	<path fill="#111111" d="M145.792,299.412c0-0.139,0.025-0.27,0.076-0.393c0.051-0.122,0.12-0.229,0.208-0.319
		s0.193-0.163,0.315-0.216c0.123-0.054,0.254-0.08,0.393-0.08s0.269,0.026,0.392,0.08c0.123,0.053,0.229,0.125,0.32,0.216
		s0.161,0.197,0.212,0.319c0.051,0.123,0.076,0.254,0.076,0.393c0,0.145-0.025,0.275-0.076,0.396
		c-0.051,0.119-0.121,0.225-0.212,0.315s-0.197,0.161-0.32,0.212s-0.253,0.076-0.392,0.076s-0.27-0.025-0.393-0.076
		c-0.122-0.051-0.228-0.121-0.315-0.212s-0.157-0.196-0.208-0.315C145.817,299.688,145.792,299.557,145.792,299.412z"/>
	<path fill="#111111" d="M157.415,299.061c0.475,0,0.899-0.08,1.272-0.24s0.689-0.385,0.948-0.672
		c0.258-0.289,0.456-0.633,0.592-1.032c0.136-0.4,0.204-0.841,0.204-1.32v-6.968h1.544v6.968c0,0.661-0.105,1.274-0.316,1.841
		c-0.211,0.564-0.512,1.055-0.903,1.467c-0.393,0.414-0.871,0.738-1.437,0.973s-1.2,0.352-1.904,0.352s-1.339-0.117-1.903-0.352
		c-0.565-0.234-1.046-0.559-1.44-0.973c-0.395-0.412-0.697-0.902-0.908-1.467c-0.211-0.566-0.315-1.18-0.315-1.841v-6.968h1.544
		v6.96c0,0.479,0.067,0.92,0.204,1.319c0.136,0.4,0.333,0.744,0.592,1.033c0.259,0.287,0.576,0.513,0.952,0.676
		C156.516,298.979,156.94,299.061,157.415,299.061z"/>
	<path fill="#111111" d="M170.119,300.292c-0.203,0-0.331-0.099-0.384-0.296l-0.128-0.984c-0.347,0.422-0.743,0.759-1.188,1.012
		c-0.445,0.254-0.956,0.381-1.532,0.381c-0.464,0-0.885-0.09-1.264-0.268c-0.379-0.18-0.701-0.441-0.968-0.789
		c-0.267-0.346-0.473-0.778-0.616-1.296c-0.144-0.517-0.216-1.112-0.216-1.784c0-0.597,0.08-1.152,0.24-1.668
		c0.159-0.514,0.391-0.961,0.691-1.34c0.302-0.379,0.668-0.676,1.101-0.892c0.432-0.216,0.922-0.324,1.472-0.324
		c0.496,0,0.92,0.084,1.271,0.252c0.353,0.168,0.667,0.404,0.944,0.708v-4.496h1.424v11.784H170.119z M167.359,299.252
		c0.464,0,0.87-0.106,1.22-0.32c0.35-0.213,0.671-0.514,0.964-0.904v-3.92c-0.262-0.352-0.548-0.598-0.86-0.739
		c-0.312-0.142-0.657-0.212-1.035-0.212c-0.758,0-1.339,0.27-1.744,0.808c-0.405,0.539-0.608,1.307-0.608,2.304
		c0,0.528,0.045,0.98,0.136,1.356s0.225,0.686,0.4,0.928c0.176,0.243,0.392,0.421,0.648,0.532
		C166.735,299.195,167.028,299.252,167.359,299.252z"/>
	<path fill="#111111" d="M172.335,292.188h1.168c0.112,0,0.206,0.029,0.28,0.088c0.075,0.06,0.128,0.129,0.16,0.209l2.056,5.216
		c0.075,0.192,0.134,0.384,0.177,0.575c0.042,0.192,0.082,0.382,0.119,0.568c0.043-0.187,0.089-0.376,0.137-0.568
		c0.048-0.191,0.109-0.383,0.184-0.575l2.08-5.216c0.032-0.086,0.084-0.156,0.156-0.213c0.072-0.056,0.161-0.084,0.268-0.084h1.112
		l-3.304,8.104h-1.288L172.335,292.188z"/>
	<path fill="#111111" d="M183.455,289.645c0,0.139-0.028,0.268-0.084,0.388c-0.057,0.12-0.131,0.227-0.225,0.319
		c-0.093,0.094-0.201,0.167-0.323,0.221c-0.123,0.053-0.254,0.08-0.393,0.08s-0.268-0.027-0.388-0.08
		c-0.12-0.054-0.227-0.127-0.32-0.221c-0.093-0.093-0.167-0.199-0.22-0.319c-0.054-0.12-0.08-0.249-0.08-0.388
		s0.026-0.271,0.08-0.396c0.053-0.125,0.127-0.234,0.22-0.328c0.094-0.094,0.2-0.166,0.32-0.22s0.249-0.08,0.388-0.08
		s0.27,0.026,0.393,0.08c0.122,0.054,0.23,0.126,0.323,0.22c0.094,0.094,0.168,0.203,0.225,0.328
		C183.427,289.373,183.455,289.506,183.455,289.645z M183.135,292.188v8.104h-1.424v-8.104H183.135z"/>
	<path fill="#111111" d="M187.127,288.508v6.936h0.367c0.107,0,0.195-0.014,0.265-0.043s0.146-0.09,0.231-0.18l2.561-2.744
		c0.08-0.086,0.16-0.155,0.239-0.209c0.08-0.053,0.188-0.08,0.32-0.08h1.296l-2.983,3.176c-0.075,0.092-0.148,0.172-0.221,0.24
		c-0.071,0.07-0.153,0.131-0.243,0.185c0.096,0.063,0.183,0.138,0.26,0.22c0.077,0.083,0.15,0.178,0.22,0.284l3.168,4h-1.28
		c-0.117,0-0.217-0.022-0.3-0.067c-0.083-0.046-0.161-0.117-0.236-0.213l-2.663-3.32c-0.08-0.111-0.16-0.185-0.24-0.219
		c-0.08-0.035-0.2-0.053-0.36-0.053h-0.399v3.872h-1.433v-11.784H187.127z"/>
	<path fill="#111111" d="M195.614,288.508v11.784h-1.424v-11.784H195.614z"/>
	<path fill="#111111" d="M200.03,289.645c0,0.139-0.028,0.268-0.084,0.388c-0.057,0.12-0.131,0.227-0.225,0.319
		c-0.093,0.094-0.201,0.167-0.323,0.221c-0.123,0.053-0.254,0.08-0.393,0.08s-0.268-0.027-0.388-0.08
		c-0.12-0.054-0.227-0.127-0.32-0.221c-0.093-0.093-0.167-0.199-0.22-0.319c-0.054-0.12-0.08-0.249-0.08-0.388
		s0.026-0.271,0.08-0.396c0.053-0.125,0.127-0.234,0.22-0.328c0.094-0.094,0.2-0.166,0.32-0.22s0.249-0.08,0.388-0.08
		s0.27,0.026,0.393,0.08c0.122,0.054,0.23,0.126,0.323,0.22c0.094,0.094,0.168,0.203,0.225,0.328
		C200.002,289.373,200.03,289.506,200.03,289.645z M199.71,292.188v8.104h-1.424v-8.104H199.71z"/>
	<path fill="#111111" d="M202.222,300.292v-8.104h0.848c0.203,0,0.331,0.1,0.385,0.297l0.111,0.879
		c0.353-0.389,0.745-0.703,1.181-0.943c0.435-0.24,0.937-0.359,1.508-0.359c0.442,0,0.833,0.072,1.172,0.219
		c0.339,0.147,0.621,0.355,0.848,0.625s0.398,0.594,0.517,0.972c0.117,0.379,0.176,0.798,0.176,1.256v5.16h-1.424v-5.16
		c0-0.613-0.141-1.089-0.42-1.428c-0.28-0.339-0.708-0.509-1.284-0.509c-0.422,0-0.814,0.102-1.181,0.305
		c-0.365,0.203-0.702,0.478-1.012,0.824v5.968H202.222z"/>
	<path fill="#111111" d="M213.846,292.052c0.352,0,0.681,0.039,0.987,0.116c0.307,0.078,0.586,0.191,0.836,0.34h2.2v0.528
		c0,0.176-0.112,0.288-0.336,0.336l-0.92,0.128c0.182,0.347,0.271,0.733,0.271,1.16c0,0.395-0.075,0.754-0.228,1.076
		s-0.362,0.599-0.632,0.828c-0.27,0.229-0.59,0.404-0.96,0.527c-0.371,0.123-0.777,0.184-1.22,0.184
		c-0.379,0-0.736-0.045-1.072-0.135c-0.171,0.105-0.3,0.221-0.389,0.344c-0.088,0.123-0.132,0.242-0.132,0.359
		c0,0.192,0.077,0.338,0.232,0.436c0.154,0.1,0.36,0.17,0.616,0.213s0.546,0.069,0.872,0.08c0.325,0.01,0.657,0.027,0.995,0.052
		c0.339,0.024,0.671,0.065,0.996,0.124s0.616,0.154,0.872,0.288s0.462,0.317,0.616,0.552s0.232,0.539,0.232,0.912
		c0,0.347-0.087,0.683-0.261,1.008c-0.173,0.325-0.422,0.615-0.748,0.868c-0.325,0.253-0.723,0.456-1.191,0.608
		c-0.47,0.152-1,0.228-1.592,0.228c-0.593,0-1.111-0.059-1.557-0.176c-0.445-0.118-0.814-0.274-1.107-0.472
		c-0.294-0.197-0.514-0.426-0.66-0.685s-0.22-0.529-0.22-0.812c0-0.4,0.126-0.74,0.38-1.021c0.253-0.28,0.601-0.503,1.044-0.668
		c-0.229-0.106-0.412-0.249-0.548-0.428c-0.137-0.179-0.204-0.417-0.204-0.716c0-0.117,0.021-0.238,0.063-0.364
		s0.108-0.249,0.196-0.372s0.196-0.24,0.324-0.352c0.128-0.112,0.277-0.211,0.447-0.297c-0.399-0.224-0.713-0.521-0.939-0.892
		s-0.34-0.804-0.34-1.3c0-0.395,0.076-0.754,0.228-1.076c0.152-0.322,0.364-0.598,0.637-0.824c0.271-0.227,0.596-0.4,0.972-0.523
		S213.397,292.052,213.846,292.052z M216.373,300.732c0-0.203-0.056-0.365-0.168-0.488s-0.264-0.217-0.456-0.284
		c-0.191-0.066-0.413-0.116-0.664-0.147c-0.251-0.033-0.515-0.055-0.792-0.068s-0.56-0.028-0.848-0.044
		c-0.288-0.017-0.563-0.046-0.824-0.089c-0.304,0.145-0.551,0.32-0.74,0.529c-0.189,0.207-0.283,0.455-0.283,0.743
		c0,0.182,0.046,0.351,0.14,0.509c0.093,0.156,0.236,0.293,0.428,0.407c0.192,0.114,0.434,0.206,0.725,0.272
		c0.29,0.066,0.633,0.1,1.027,0.1c0.384,0,0.729-0.035,1.032-0.104c0.304-0.07,0.562-0.168,0.772-0.297
		c0.21-0.127,0.371-0.279,0.483-0.455S216.373,300.945,216.373,300.732z M213.846,296.332c0.287,0,0.542-0.04,0.764-0.12
		c0.221-0.08,0.406-0.192,0.556-0.336s0.262-0.315,0.336-0.517c0.075-0.199,0.112-0.42,0.112-0.659c0-0.496-0.15-0.891-0.452-1.185
		c-0.302-0.293-0.74-0.439-1.315-0.439c-0.571,0-1.007,0.146-1.309,0.439c-0.301,0.294-0.452,0.688-0.452,1.185
		c0,0.239,0.039,0.46,0.116,0.659c0.077,0.201,0.19,0.373,0.34,0.517s0.333,0.256,0.552,0.336S213.563,296.332,213.846,296.332z"/>
	<path fill="#111111" d="M223.933,293.523c-0.063,0.118-0.162,0.177-0.296,0.177c-0.08,0-0.171-0.029-0.271-0.089
		c-0.102-0.059-0.226-0.123-0.372-0.195s-0.321-0.139-0.524-0.2c-0.202-0.062-0.442-0.092-0.72-0.092
		c-0.24,0-0.456,0.03-0.648,0.092c-0.191,0.062-0.355,0.146-0.491,0.252c-0.137,0.106-0.24,0.231-0.313,0.372
		c-0.072,0.142-0.107,0.295-0.107,0.46c0,0.208,0.06,0.382,0.18,0.521s0.278,0.258,0.476,0.359s0.422,0.191,0.672,0.268
		c0.251,0.078,0.509,0.16,0.772,0.248c0.264,0.089,0.521,0.186,0.771,0.293c0.251,0.106,0.475,0.24,0.673,0.4
		c0.197,0.159,0.355,0.355,0.476,0.588c0.12,0.231,0.18,0.51,0.18,0.836c0,0.373-0.066,0.719-0.199,1.035
		c-0.134,0.318-0.331,0.592-0.593,0.824c-0.261,0.232-0.581,0.415-0.96,0.549c-0.379,0.133-0.815,0.199-1.312,0.199
		c-0.565,0-1.077-0.092-1.536-0.275c-0.459-0.185-0.848-0.42-1.168-0.709l0.336-0.543c0.043-0.07,0.093-0.123,0.152-0.16
		c0.059-0.037,0.136-0.057,0.231-0.057s0.197,0.037,0.304,0.112c0.107,0.075,0.236,0.157,0.389,0.248
		c0.151,0.091,0.336,0.173,0.552,0.248s0.486,0.112,0.813,0.112c0.276,0,0.52-0.037,0.728-0.108c0.208-0.072,0.381-0.169,0.52-0.292
		s0.242-0.264,0.309-0.424s0.1-0.331,0.1-0.512c0-0.225-0.06-0.41-0.18-0.557s-0.278-0.271-0.476-0.376
		c-0.198-0.104-0.423-0.194-0.677-0.272c-0.253-0.076-0.512-0.158-0.775-0.244c-0.265-0.084-0.523-0.182-0.776-0.291
		s-0.479-0.247-0.676-0.412c-0.197-0.166-0.356-0.369-0.477-0.612c-0.119-0.243-0.18-0.537-0.18-0.884
		c0-0.31,0.064-0.607,0.192-0.893s0.314-0.535,0.56-0.752c0.245-0.216,0.547-0.388,0.904-0.516s0.765-0.191,1.224-0.191
		c0.533,0,1.012,0.084,1.437,0.252c0.424,0.168,0.79,0.398,1.1,0.691L223.933,293.523z"/>
	<path fill="#111111" d="M225.868,294.893h3.952v1.207h-3.952V294.893z"/>
	<path fill="#111111" d="M237.444,292.796c0,0.102-0.019,0.198-0.057,0.292c-0.037,0.094-0.085,0.178-0.144,0.252l-4.384,5.84h4.424
		v1.112h-6.104V299.7c0-0.069,0.018-0.151,0.053-0.244c0.034-0.093,0.084-0.183,0.147-0.269l4.408-5.879h-4.36v-1.121h6.017V292.796
		z"/>
	<path fill="#111111" d="M242.46,292.061c0.592,0,1.126,0.098,1.604,0.295s0.883,0.479,1.216,0.84
		c0.334,0.363,0.59,0.803,0.769,1.316c0.179,0.516,0.268,1.09,0.268,1.725c0,0.64-0.089,1.216-0.268,1.728
		c-0.179,0.513-0.435,0.95-0.769,1.312c-0.333,0.363-0.738,0.643-1.216,0.836c-0.478,0.195-1.012,0.293-1.604,0.293
		s-1.127-0.098-1.604-0.293c-0.478-0.193-0.884-0.473-1.22-0.836c-0.336-0.361-0.595-0.799-0.776-1.312
		c-0.181-0.512-0.271-1.088-0.271-1.728c0-0.635,0.091-1.209,0.271-1.725c0.182-0.514,0.44-0.953,0.776-1.316
		c0.336-0.361,0.742-0.643,1.22-0.84S241.868,292.061,242.46,292.061z M242.46,299.292c0.8,0,1.397-0.269,1.792-0.804
		c0.395-0.536,0.592-1.284,0.592-2.244c0-0.965-0.197-1.717-0.592-2.256s-0.992-0.809-1.792-0.809c-0.405,0-0.758,0.07-1.057,0.209
		s-0.548,0.338-0.748,0.6c-0.199,0.262-0.349,0.582-0.447,0.964s-0.148,0.812-0.148,1.292s0.05,0.909,0.148,1.288
		c0.099,0.378,0.248,0.697,0.447,0.956c0.2,0.258,0.449,0.457,0.748,0.596S242.055,299.292,242.46,299.292z"/>
	<path fill="#111111" d="M248.076,300.292v-8.104h0.848c0.203,0,0.331,0.1,0.385,0.297l0.111,0.879
		c0.353-0.389,0.745-0.703,1.181-0.943c0.435-0.24,0.937-0.359,1.508-0.359c0.442,0,0.833,0.072,1.172,0.219
		c0.339,0.147,0.621,0.355,0.848,0.625s0.398,0.594,0.517,0.972c0.117,0.379,0.176,0.798,0.176,1.256v5.16h-1.424v-5.16
		c0-0.613-0.141-1.089-0.42-1.428c-0.28-0.339-0.708-0.509-1.284-0.509c-0.422,0-0.814,0.102-1.181,0.305
		c-0.365,0.203-0.702,0.478-1.012,0.824v5.968H248.076z"/>
	<path fill="#111111" d="M260.181,292.061c0.485,0,0.934,0.081,1.344,0.244c0.411,0.162,0.766,0.396,1.064,0.703
		s0.532,0.686,0.7,1.137c0.168,0.45,0.252,0.963,0.252,1.539c0,0.225-0.024,0.373-0.072,0.448s-0.139,0.112-0.272,0.112h-5.392
		c0.011,0.512,0.08,0.957,0.208,1.336s0.304,0.695,0.528,0.947c0.224,0.254,0.49,0.443,0.8,0.568s0.656,0.188,1.04,0.188
		c0.357,0,0.665-0.042,0.924-0.124c0.259-0.083,0.481-0.172,0.668-0.268c0.187-0.097,0.343-0.186,0.468-0.269
		c0.126-0.083,0.233-0.124,0.324-0.124c0.117,0,0.208,0.045,0.272,0.137l0.399,0.52c-0.176,0.213-0.387,0.398-0.632,0.556
		s-0.508,0.286-0.788,0.388s-0.569,0.178-0.868,0.229s-0.595,0.076-0.888,0.076c-0.56,0-1.076-0.096-1.548-0.284
		c-0.473-0.189-0.88-0.467-1.225-0.832c-0.344-0.365-0.611-0.817-0.804-1.356c-0.191-0.538-0.288-1.156-0.288-1.855
		c0-0.565,0.087-1.094,0.26-1.584c0.174-0.49,0.423-0.916,0.748-1.276s0.723-0.643,1.192-0.848
		C259.066,292.162,259.594,292.061,260.181,292.061z M260.213,293.107c-0.688,0-1.229,0.199-1.624,0.597s-0.641,0.948-0.736,1.651
		h4.408c0-0.33-0.046-0.633-0.136-0.908c-0.091-0.273-0.225-0.512-0.4-0.711c-0.176-0.2-0.391-0.355-0.644-0.465
		C260.827,293.162,260.538,293.107,260.213,293.107z"/>
</g>
<g>
	<path fill="#111111" d="M136.425,204.454h2.464v-7.816c0-0.235,0.008-0.472,0.024-0.712l-2.048,1.752
		c-0.054,0.042-0.107,0.073-0.16,0.092c-0.054,0.019-0.104,0.028-0.152,0.028c-0.08,0-0.151-0.017-0.216-0.052
		s-0.112-0.076-0.144-0.124l-0.448-0.616l3.408-2.952h1.159v10.4h2.257v1.088h-6.145V204.454z"/>
	<path fill="#111111" d="M144.112,204.662c0-0.139,0.025-0.27,0.076-0.393c0.051-0.122,0.12-0.229,0.208-0.319
		s0.193-0.163,0.315-0.216c0.123-0.054,0.254-0.08,0.393-0.08s0.269,0.026,0.392,0.08c0.123,0.053,0.229,0.125,0.32,0.216
		s0.161,0.197,0.212,0.319c0.051,0.123,0.076,0.254,0.076,0.393c0,0.145-0.025,0.275-0.076,0.396
		c-0.051,0.119-0.121,0.225-0.212,0.315s-0.197,0.161-0.32,0.212s-0.253,0.076-0.392,0.076s-0.27-0.025-0.393-0.076
		c-0.122-0.051-0.228-0.121-0.315-0.212s-0.157-0.196-0.208-0.315C144.138,204.938,144.112,204.807,144.112,204.662z"/>
	<path fill="#111111" d="M157.151,195.87c-0.048,0.08-0.099,0.14-0.151,0.18c-0.054,0.04-0.123,0.06-0.208,0.06
		c-0.091,0-0.196-0.045-0.316-0.136s-0.271-0.191-0.456-0.3c-0.184-0.109-0.405-0.209-0.664-0.3s-0.571-0.136-0.939-0.136
		c-0.347,0-0.653,0.047-0.92,0.14c-0.268,0.093-0.49,0.22-0.668,0.38c-0.179,0.16-0.313,0.348-0.404,0.564
		c-0.091,0.216-0.136,0.45-0.136,0.7c0,0.32,0.078,0.585,0.235,0.796c0.157,0.211,0.365,0.391,0.624,0.54
		c0.259,0.149,0.552,0.279,0.88,0.388s0.664,0.223,1.009,0.34c0.344,0.117,0.68,0.25,1.008,0.396
		c0.328,0.147,0.621,0.332,0.88,0.556s0.467,0.499,0.624,0.824c0.157,0.326,0.236,0.726,0.236,1.201
		c0,0.501-0.086,0.972-0.257,1.412c-0.17,0.439-0.42,0.822-0.748,1.147c-0.327,0.325-0.73,0.581-1.208,0.769
		c-0.477,0.186-1.02,0.279-1.628,0.279c-0.741,0-1.417-0.135-2.027-0.404c-0.611-0.27-1.132-0.633-1.564-1.092l0.448-0.736
		c0.043-0.059,0.095-0.107,0.156-0.147c0.061-0.04,0.129-0.06,0.204-0.06c0.111,0,0.239,0.06,0.384,0.18
		c0.144,0.119,0.324,0.252,0.54,0.396c0.216,0.144,0.477,0.275,0.784,0.396c0.307,0.12,0.681,0.18,1.123,0.18
		c0.368,0,0.696-0.05,0.984-0.151s0.532-0.244,0.732-0.429c0.199-0.184,0.353-0.403,0.46-0.659c0.106-0.256,0.16-0.542,0.16-0.856
		c0-0.347-0.079-0.631-0.236-0.853c-0.157-0.221-0.364-0.406-0.62-0.556s-0.548-0.276-0.876-0.38s-0.664-0.21-1.008-0.32
		s-0.681-0.236-1.008-0.38c-0.328-0.144-0.62-0.331-0.876-0.56c-0.257-0.229-0.463-0.516-0.62-0.86
		c-0.157-0.344-0.236-0.769-0.236-1.276c0-0.405,0.079-0.797,0.236-1.176c0.157-0.378,0.385-0.714,0.684-1.008
		s0.668-0.528,1.108-0.704c0.439-0.176,0.945-0.264,1.516-0.264c0.64,0,1.224,0.101,1.752,0.304s0.989,0.496,1.384,0.88
		L157.151,195.87z"/>
	<path fill="#111111" d="M161.439,194.894c0,0.139-0.028,0.268-0.084,0.388c-0.057,0.12-0.131,0.227-0.225,0.32
		c-0.093,0.093-0.201,0.167-0.323,0.22c-0.123,0.054-0.254,0.08-0.393,0.08s-0.268-0.026-0.388-0.08
		c-0.12-0.053-0.227-0.126-0.32-0.22c-0.093-0.093-0.167-0.2-0.22-0.32c-0.054-0.12-0.08-0.25-0.08-0.388s0.026-0.271,0.08-0.396
		c0.053-0.125,0.127-0.235,0.22-0.328c0.094-0.093,0.2-0.167,0.32-0.22s0.249-0.08,0.388-0.08s0.27,0.027,0.393,0.08
		c0.122,0.053,0.23,0.126,0.323,0.22c0.094,0.093,0.168,0.203,0.225,0.328C161.411,194.624,161.439,194.755,161.439,194.894z
		 M161.119,197.438v8.104h-1.424v-8.104H161.119z"/>
	<path fill="#111111" d="M165.111,193.758v6.936h0.367c0.107,0,0.195-0.015,0.265-0.044s0.146-0.089,0.231-0.18l2.561-2.744
		c0.08-0.085,0.16-0.155,0.239-0.208c0.08-0.053,0.188-0.08,0.32-0.08h1.296l-2.983,3.176c-0.075,0.091-0.148,0.171-0.221,0.24
		c-0.071,0.069-0.153,0.131-0.243,0.184c0.096,0.063,0.183,0.138,0.26,0.22c0.077,0.083,0.15,0.178,0.22,0.284l3.168,4h-1.28
		c-0.117,0-0.217-0.022-0.3-0.067c-0.083-0.046-0.161-0.117-0.236-0.213l-2.663-3.32c-0.08-0.111-0.16-0.185-0.24-0.219
		c-0.08-0.035-0.2-0.053-0.36-0.053h-0.399v3.872h-1.433v-11.784H165.111z"/>
	<path fill="#111111" d="M173.495,193.758v6.936h0.367c0.107,0,0.195-0.015,0.265-0.044s0.146-0.089,0.231-0.18l2.561-2.744
		c0.08-0.085,0.16-0.155,0.239-0.208c0.08-0.053,0.188-0.08,0.32-0.08h1.296l-2.983,3.176c-0.075,0.091-0.148,0.171-0.221,0.24
		c-0.071,0.069-0.153,0.131-0.243,0.184c0.096,0.063,0.183,0.138,0.26,0.22c0.077,0.083,0.15,0.178,0.22,0.284l3.168,4h-1.28
		c-0.117,0-0.217-0.022-0.3-0.067c-0.083-0.046-0.161-0.117-0.236-0.213l-2.663-3.32c-0.08-0.111-0.16-0.185-0.24-0.219
		c-0.08-0.035-0.2-0.053-0.36-0.053h-0.399v3.872h-1.433v-11.784H173.495z"/>
	<path fill="#111111" d="M183.126,197.31c0.485,0,0.934,0.082,1.344,0.244c0.411,0.163,0.766,0.397,1.064,0.704
		c0.299,0.307,0.532,0.686,0.7,1.136s0.252,0.964,0.252,1.54c0,0.224-0.024,0.373-0.072,0.448s-0.139,0.112-0.272,0.112h-5.392
		c0.011,0.512,0.08,0.957,0.208,1.336s0.304,0.695,0.528,0.947c0.224,0.254,0.49,0.443,0.8,0.568s0.656,0.188,1.04,0.188
		c0.357,0,0.665-0.042,0.924-0.124c0.259-0.083,0.481-0.172,0.668-0.268c0.187-0.097,0.343-0.186,0.468-0.269
		c0.126-0.083,0.233-0.124,0.324-0.124c0.117,0,0.208,0.045,0.272,0.137l0.399,0.52c-0.176,0.213-0.387,0.398-0.632,0.556
		s-0.508,0.286-0.788,0.388s-0.569,0.178-0.868,0.229s-0.595,0.076-0.888,0.076c-0.56,0-1.076-0.096-1.548-0.284
		c-0.473-0.189-0.88-0.467-1.225-0.832c-0.344-0.365-0.611-0.817-0.804-1.356c-0.191-0.538-0.288-1.156-0.288-1.855
		c0-0.565,0.087-1.093,0.26-1.584c0.174-0.491,0.423-0.916,0.748-1.276c0.325-0.36,0.723-0.643,1.192-0.848
		C182.012,197.413,182.539,197.31,183.126,197.31z M183.158,198.358c-0.688,0-1.229,0.199-1.624,0.596s-0.641,0.948-0.736,1.652
		h4.408c0-0.331-0.046-0.633-0.136-0.908c-0.091-0.274-0.225-0.512-0.4-0.712c-0.176-0.2-0.391-0.354-0.644-0.464
		C183.772,198.413,183.483,198.358,183.158,198.358z"/>
	<path fill="#111111" d="M188.303,205.542v-8.104h0.816c0.154,0,0.261,0.029,0.319,0.088c0.059,0.059,0.099,0.16,0.12,0.304
		l0.096,1.264c0.277-0.565,0.62-1.006,1.028-1.324s0.887-0.476,1.437-0.476c0.224,0,0.426,0.025,0.607,0.076s0.35,0.121,0.504,0.212
		l-0.184,1.064c-0.037,0.133-0.12,0.2-0.248,0.2c-0.075,0-0.189-0.025-0.344-0.076c-0.155-0.051-0.371-0.076-0.648-0.076
		c-0.496,0-0.91,0.144-1.244,0.432c-0.333,0.288-0.611,0.707-0.836,1.256v5.16H188.303z"/>
	<path fill="#111111" d="M194.75,205.542v-11.784h1.424v4.768c0.347-0.368,0.73-0.663,1.152-0.884
		c0.421-0.221,0.906-0.332,1.456-0.332c0.442,0,0.833,0.073,1.172,0.22c0.339,0.147,0.621,0.355,0.848,0.624
		c0.227,0.27,0.398,0.594,0.517,0.972c0.117,0.379,0.176,0.797,0.176,1.256v5.16h-1.424v-5.16c0-0.613-0.141-1.089-0.42-1.428
		c-0.28-0.339-0.708-0.508-1.284-0.508c-0.422,0-0.814,0.102-1.181,0.304c-0.365,0.203-0.702,0.478-1.012,0.824v5.968H194.75z"/>
	<path fill="#111111" d="M206.854,197.31c0.485,0,0.934,0.082,1.344,0.244c0.411,0.163,0.766,0.397,1.064,0.704
		c0.299,0.307,0.532,0.686,0.7,1.136s0.252,0.964,0.252,1.54c0,0.224-0.024,0.373-0.072,0.448s-0.139,0.112-0.272,0.112h-5.392
		c0.011,0.512,0.08,0.957,0.208,1.336s0.304,0.695,0.528,0.947c0.224,0.254,0.49,0.443,0.8,0.568s0.656,0.188,1.04,0.188
		c0.357,0,0.665-0.042,0.924-0.124c0.259-0.083,0.481-0.172,0.668-0.268c0.187-0.097,0.343-0.186,0.468-0.269
		c0.126-0.083,0.233-0.124,0.324-0.124c0.117,0,0.208,0.045,0.272,0.137l0.399,0.52c-0.176,0.213-0.387,0.398-0.632,0.556
		s-0.508,0.286-0.788,0.388s-0.569,0.178-0.868,0.229s-0.595,0.076-0.888,0.076c-0.56,0-1.076-0.096-1.548-0.284
		c-0.473-0.189-0.88-0.467-1.225-0.832c-0.344-0.365-0.611-0.817-0.804-1.356c-0.191-0.538-0.288-1.156-0.288-1.855
		c0-0.565,0.087-1.093,0.26-1.584c0.174-0.491,0.423-0.916,0.748-1.276c0.325-0.36,0.723-0.643,1.192-0.848
		C205.74,197.413,206.268,197.31,206.854,197.31z M206.887,198.358c-0.688,0-1.229,0.199-1.624,0.596s-0.641,0.948-0.736,1.652
		h4.408c0-0.331-0.046-0.633-0.136-0.908c-0.091-0.274-0.225-0.512-0.4-0.712c-0.176-0.2-0.391-0.354-0.644-0.464
		C207.501,198.413,207.212,198.358,206.887,198.358z"/>
	<path fill="#111111" d="M217.735,205.542c-0.203,0-0.331-0.099-0.384-0.296l-0.128-0.984c-0.347,0.422-0.743,0.759-1.188,1.012
		c-0.445,0.254-0.956,0.381-1.532,0.381c-0.464,0-0.885-0.09-1.264-0.268c-0.379-0.18-0.701-0.441-0.968-0.789
		c-0.267-0.346-0.473-0.778-0.616-1.296c-0.144-0.517-0.216-1.112-0.216-1.784c0-0.597,0.08-1.153,0.24-1.667
		c0.159-0.515,0.391-0.961,0.691-1.34c0.302-0.378,0.668-0.676,1.101-0.892c0.432-0.216,0.922-0.324,1.472-0.324
		c0.496,0,0.92,0.084,1.271,0.252c0.353,0.168,0.667,0.404,0.944,0.708v-4.496h1.424v11.784H217.735z M214.976,204.502
		c0.464,0,0.87-0.106,1.22-0.32c0.35-0.213,0.671-0.514,0.964-0.904v-3.919c-0.262-0.352-0.548-0.599-0.86-0.74
		c-0.312-0.142-0.657-0.212-1.035-0.212c-0.758,0-1.339,0.27-1.744,0.808c-0.405,0.539-0.608,1.307-0.608,2.304
		c0,0.528,0.045,0.98,0.136,1.356s0.225,0.686,0.4,0.928c0.176,0.243,0.392,0.421,0.648,0.532
		C214.352,204.445,214.645,204.502,214.976,204.502z"/>
	<path fill="#111111" d="M225.614,198.774c-0.063,0.118-0.162,0.176-0.296,0.176c-0.08,0-0.171-0.029-0.271-0.088
		c-0.102-0.059-0.226-0.124-0.372-0.196c-0.146-0.072-0.321-0.139-0.524-0.2c-0.202-0.061-0.442-0.092-0.72-0.092
		c-0.24,0-0.456,0.031-0.648,0.092c-0.191,0.062-0.355,0.146-0.491,0.252c-0.137,0.107-0.24,0.231-0.313,0.372
		c-0.072,0.142-0.107,0.295-0.107,0.46c0,0.208,0.06,0.381,0.18,0.52c0.12,0.139,0.278,0.259,0.476,0.36
		c0.197,0.101,0.422,0.19,0.672,0.268c0.251,0.078,0.509,0.16,0.772,0.248c0.264,0.088,0.521,0.185,0.771,0.292
		c0.251,0.106,0.475,0.24,0.673,0.4c0.197,0.159,0.355,0.355,0.476,0.588c0.12,0.231,0.18,0.51,0.18,0.836
		c0,0.373-0.066,0.719-0.199,1.035c-0.134,0.318-0.331,0.592-0.593,0.824c-0.261,0.232-0.581,0.415-0.96,0.549
		c-0.379,0.133-0.815,0.199-1.312,0.199c-0.565,0-1.077-0.092-1.536-0.275c-0.459-0.185-0.848-0.42-1.168-0.709l0.336-0.543
		c0.043-0.07,0.093-0.123,0.152-0.16c0.059-0.037,0.136-0.057,0.231-0.057s0.197,0.037,0.304,0.112
		c0.107,0.075,0.236,0.157,0.389,0.248c0.151,0.091,0.336,0.173,0.552,0.248s0.486,0.112,0.813,0.112
		c0.276,0,0.52-0.037,0.728-0.108c0.208-0.072,0.381-0.169,0.52-0.292s0.242-0.264,0.309-0.424s0.1-0.331,0.1-0.512
		c0-0.225-0.06-0.41-0.18-0.557s-0.278-0.271-0.476-0.376c-0.198-0.104-0.423-0.194-0.677-0.272
		c-0.253-0.076-0.512-0.158-0.775-0.244c-0.265-0.084-0.523-0.182-0.776-0.291s-0.479-0.247-0.676-0.412
		c-0.197-0.166-0.356-0.37-0.477-0.612c-0.119-0.243-0.18-0.537-0.18-0.884c0-0.31,0.064-0.607,0.192-0.892s0.314-0.536,0.56-0.752
		c0.245-0.216,0.547-0.388,0.904-0.516s0.765-0.192,1.224-0.192c0.533,0,1.012,0.084,1.437,0.252c0.424,0.168,0.79,0.399,1.1,0.692
		L225.614,198.774z"/>
	<path fill="#111111" d="M227.55,200.142h3.952v1.208h-3.952V200.142z"/>
	<path fill="#111111" d="M239.127,198.046c0,0.102-0.019,0.199-0.057,0.292c-0.037,0.093-0.085,0.177-0.144,0.252l-4.384,5.84h4.424
		v1.112h-6.104v-0.592c0-0.069,0.018-0.151,0.053-0.244c0.034-0.093,0.084-0.183,0.147-0.269l4.408-5.879h-4.36v-1.12h6.017V198.046
		z"/>
	<path fill="#111111" d="M244.142,197.31c0.592,0,1.126,0.099,1.604,0.296s0.883,0.478,1.216,0.84
		c0.334,0.363,0.59,0.802,0.769,1.316s0.268,1.089,0.268,1.724c0,0.64-0.089,1.216-0.268,1.728c-0.179,0.513-0.435,0.95-0.769,1.312
		c-0.333,0.363-0.738,0.643-1.216,0.836c-0.478,0.195-1.012,0.293-1.604,0.293s-1.127-0.098-1.604-0.293
		c-0.478-0.193-0.884-0.473-1.22-0.836c-0.336-0.361-0.595-0.799-0.776-1.312c-0.181-0.512-0.271-1.088-0.271-1.728
		c0-0.635,0.091-1.209,0.271-1.724c0.182-0.515,0.44-0.954,0.776-1.316c0.336-0.362,0.742-0.643,1.22-0.84
		S243.55,197.31,244.142,197.31z M244.142,204.542c0.8,0,1.397-0.269,1.792-0.804c0.395-0.536,0.592-1.284,0.592-2.244
		c0-0.965-0.197-1.717-0.592-2.256c-0.395-0.539-0.992-0.808-1.792-0.808c-0.405,0-0.758,0.069-1.057,0.208s-0.548,0.338-0.748,0.6
		c-0.199,0.262-0.349,0.583-0.447,0.964s-0.148,0.812-0.148,1.292s0.05,0.909,0.148,1.288c0.099,0.378,0.248,0.697,0.447,0.956
		c0.2,0.258,0.449,0.457,0.748,0.596S243.736,204.542,244.142,204.542z"/>
	<path fill="#111111" d="M249.758,205.542v-8.104h0.848c0.203,0,0.331,0.099,0.385,0.296l0.111,0.88
		c0.353-0.389,0.745-0.704,1.181-0.944c0.435-0.24,0.937-0.36,1.508-0.36c0.442,0,0.833,0.073,1.172,0.22
		c0.339,0.147,0.621,0.355,0.848,0.624c0.227,0.27,0.398,0.594,0.517,0.972c0.117,0.379,0.176,0.797,0.176,1.256v5.16h-1.424v-5.16
		c0-0.613-0.141-1.089-0.42-1.428c-0.28-0.339-0.708-0.508-1.284-0.508c-0.422,0-0.814,0.102-1.181,0.304
		c-0.365,0.203-0.702,0.478-1.012,0.824v5.968H249.758z"/>
	<path fill="#111111" d="M261.862,197.31c0.485,0,0.934,0.082,1.344,0.244c0.411,0.163,0.766,0.397,1.064,0.704
		c0.299,0.307,0.532,0.686,0.7,1.136s0.252,0.964,0.252,1.54c0,0.224-0.024,0.373-0.072,0.448s-0.139,0.112-0.272,0.112h-5.392
		c0.011,0.512,0.08,0.957,0.208,1.336s0.304,0.695,0.528,0.947c0.224,0.254,0.49,0.443,0.8,0.568s0.656,0.188,1.04,0.188
		c0.357,0,0.665-0.042,0.924-0.124c0.259-0.083,0.481-0.172,0.668-0.268c0.187-0.097,0.343-0.186,0.468-0.269
		c0.126-0.083,0.233-0.124,0.324-0.124c0.117,0,0.208,0.045,0.272,0.137l0.399,0.52c-0.176,0.213-0.387,0.398-0.632,0.556
		s-0.508,0.286-0.788,0.388s-0.569,0.178-0.868,0.229s-0.595,0.076-0.888,0.076c-0.56,0-1.076-0.096-1.548-0.284
		c-0.473-0.189-0.88-0.467-1.225-0.832c-0.344-0.365-0.611-0.817-0.804-1.356c-0.191-0.538-0.288-1.156-0.288-1.855
		c0-0.565,0.087-1.093,0.26-1.584c0.174-0.491,0.423-0.916,0.748-1.276c0.325-0.36,0.723-0.643,1.192-0.848
		C260.748,197.413,261.275,197.31,261.862,197.31z M261.895,198.358c-0.688,0-1.229,0.199-1.624,0.596s-0.641,0.948-0.736,1.652
		h4.408c0-0.331-0.046-0.633-0.136-0.908c-0.091-0.274-0.225-0.512-0.4-0.712c-0.176-0.2-0.391-0.354-0.644-0.464
		C262.509,198.413,262.22,198.358,261.895,198.358z"/>
</g>
<g>
	<path fill="#111111" d="M120.002,353.949c0.484,0,0.933,0.07,1.344,0.209c0.41,0.139,0.764,0.336,1.06,0.592
		s0.526,0.564,0.692,0.928c0.165,0.363,0.248,0.766,0.248,1.207c0,0.363-0.047,0.688-0.141,0.973
		c-0.093,0.285-0.227,0.535-0.399,0.752s-0.383,0.398-0.628,0.549c-0.246,0.148-0.52,0.27-0.824,0.359
		c0.746,0.197,1.309,0.527,1.684,0.992c0.377,0.463,0.564,1.045,0.564,1.744c0,0.527-0.1,1.002-0.301,1.424
		c-0.199,0.422-0.473,0.779-0.819,1.076c-0.347,0.295-0.751,0.521-1.212,0.68c-0.461,0.156-0.956,0.236-1.484,0.236
		c-0.607,0-1.127-0.076-1.56-0.229s-0.798-0.361-1.097-0.627c-0.299-0.268-0.543-0.584-0.735-0.949s-0.354-0.762-0.488-1.188
		l0.608-0.256c0.111-0.049,0.224-0.072,0.336-0.072c0.106,0,0.201,0.023,0.283,0.068c0.084,0.045,0.146,0.115,0.188,0.211
		c0.011,0.021,0.021,0.045,0.032,0.068s0.021,0.049,0.032,0.076c0.074,0.154,0.165,0.33,0.272,0.523
		c0.105,0.195,0.25,0.379,0.432,0.549s0.406,0.314,0.676,0.432s0.604,0.176,1.004,0.176s0.75-0.064,1.052-0.195
		s0.552-0.301,0.753-0.508c0.199-0.209,0.35-0.441,0.451-0.697s0.152-0.508,0.152-0.76c0-0.309-0.041-0.592-0.124-0.848
		s-0.232-0.477-0.448-0.664c-0.216-0.186-0.515-0.332-0.896-0.439c-0.381-0.107-0.87-0.16-1.467-0.16v-1.031
		c0.484-0.006,0.899-0.059,1.243-0.16c0.345-0.102,0.626-0.24,0.845-0.416s0.377-0.387,0.476-0.633s0.147-0.518,0.147-0.816
		c0-0.33-0.052-0.617-0.156-0.863c-0.104-0.246-0.246-0.447-0.428-0.607s-0.396-0.281-0.644-0.361s-0.517-0.119-0.804-0.119
		c-0.289,0-0.555,0.043-0.801,0.127c-0.245,0.086-0.463,0.205-0.651,0.357c-0.189,0.15-0.349,0.332-0.476,0.543
		c-0.129,0.211-0.225,0.439-0.289,0.684c-0.043,0.156-0.106,0.268-0.191,0.336c-0.086,0.07-0.195,0.105-0.328,0.105
		c-0.027,0-0.055-0.002-0.084-0.004c-0.029-0.004-0.063-0.008-0.1-0.014l-0.744-0.127c0.074-0.523,0.219-0.986,0.432-1.389
		s0.484-0.74,0.813-1.012s0.703-0.479,1.127-0.619C119.054,354.02,119.511,353.949,120.002,353.949z"/>
	<path fill="#111111" d="M125.025,364.662c0-0.139,0.025-0.27,0.076-0.393s0.119-0.229,0.207-0.32
		c0.089-0.09,0.193-0.162,0.316-0.215c0.123-0.055,0.254-0.08,0.393-0.08s0.27,0.025,0.392,0.08c0.122,0.053,0.229,0.125,0.32,0.215
		c0.091,0.092,0.161,0.197,0.212,0.32s0.076,0.254,0.076,0.393c0,0.143-0.025,0.275-0.076,0.395
		c-0.051,0.121-0.121,0.227-0.212,0.316c-0.091,0.092-0.198,0.162-0.32,0.213s-0.253,0.076-0.392,0.076s-0.27-0.025-0.393-0.076
		s-0.228-0.121-0.316-0.213c-0.088-0.09-0.156-0.195-0.207-0.316C125.051,364.938,125.025,364.805,125.025,364.662z"/>
	<path fill="#111111" d="M142.841,359.814c0,0.857-0.136,1.646-0.408,2.363s-0.655,1.334-1.151,1.852s-1.092,0.92-1.789,1.205
		c-0.695,0.285-1.465,0.428-2.308,0.428s-1.61-0.143-2.304-0.428s-1.288-0.688-1.784-1.205s-0.88-1.135-1.151-1.852
		c-0.272-0.717-0.408-1.506-0.408-2.363c0-0.859,0.136-1.648,0.408-2.365c0.271-0.717,0.655-1.336,1.151-1.855
		s1.091-0.924,1.784-1.213c0.693-0.287,1.461-0.432,2.304-0.432s1.612,0.145,2.308,0.432c0.697,0.289,1.293,0.693,1.789,1.213
		s0.879,1.139,1.151,1.855S142.841,358.955,142.841,359.814z M141.249,359.814c0-0.705-0.097-1.338-0.288-1.896
		c-0.192-0.561-0.465-1.033-0.816-1.42s-0.778-0.684-1.279-0.893c-0.502-0.207-1.063-0.313-1.681-0.313
		c-0.613,0-1.171,0.105-1.672,0.313c-0.501,0.209-0.929,0.506-1.284,0.893c-0.354,0.387-0.628,0.859-0.82,1.42
		c-0.191,0.559-0.287,1.191-0.287,1.896c0,0.703,0.096,1.334,0.287,1.891c0.192,0.559,0.466,1.029,0.82,1.416
		c0.355,0.387,0.783,0.684,1.284,0.889s1.059,0.309,1.672,0.309c0.618,0,1.179-0.104,1.681-0.309
		c0.501-0.205,0.928-0.502,1.279-0.889s0.624-0.857,0.816-1.416C141.152,361.148,141.249,360.518,141.249,359.814z"/>
	<path fill="#111111" d="M143.713,357.438h1.168c0.111,0,0.205,0.029,0.279,0.088s0.129,0.129,0.16,0.209l2.056,5.215
		c0.075,0.191,0.134,0.385,0.177,0.576c0.042,0.191,0.082,0.381,0.119,0.568c0.043-0.188,0.089-0.377,0.137-0.568
		s0.109-0.385,0.184-0.576l2.08-5.215c0.032-0.086,0.084-0.156,0.156-0.213s0.161-0.084,0.268-0.084h1.112l-3.304,8.104h-1.288
		L143.713,357.438z"/>
	<path fill="#111111" d="M155.929,357.309c0.485,0,0.934,0.082,1.344,0.244c0.411,0.164,0.766,0.398,1.064,0.705
		s0.532,0.686,0.7,1.135c0.168,0.451,0.252,0.965,0.252,1.541c0,0.225-0.024,0.373-0.072,0.447
		c-0.048,0.076-0.139,0.113-0.272,0.113h-5.392c0.011,0.512,0.08,0.957,0.208,1.336s0.304,0.693,0.528,0.947
		c0.224,0.254,0.49,0.443,0.8,0.568s0.656,0.188,1.04,0.188c0.357,0,0.665-0.041,0.924-0.123c0.259-0.084,0.481-0.172,0.668-0.27
		c0.187-0.096,0.343-0.184,0.468-0.268c0.126-0.082,0.233-0.123,0.324-0.123c0.117,0,0.208,0.045,0.272,0.135l0.399,0.521
		c-0.176,0.213-0.387,0.398-0.632,0.555c-0.245,0.158-0.508,0.287-0.788,0.389s-0.569,0.178-0.868,0.229s-0.595,0.076-0.888,0.076
		c-0.56,0-1.076-0.096-1.548-0.285c-0.473-0.189-0.88-0.467-1.225-0.832c-0.344-0.365-0.611-0.816-0.804-1.355
		c-0.191-0.539-0.288-1.158-0.288-1.855c0-0.566,0.087-1.094,0.26-1.584c0.174-0.492,0.423-0.916,0.748-1.277
		c0.325-0.359,0.723-0.643,1.192-0.848S155.342,357.309,155.929,357.309z M155.961,358.357c-0.688,0-1.229,0.199-1.624,0.596
		c-0.395,0.398-0.641,0.949-0.736,1.652h4.408c0-0.33-0.046-0.633-0.136-0.908c-0.091-0.273-0.225-0.512-0.4-0.711
		c-0.176-0.201-0.391-0.355-0.644-0.465C156.575,358.412,156.286,358.357,155.961,358.357z"/>
	<path fill="#111111" d="M161.104,365.541v-8.104h0.816c0.154,0,0.261,0.029,0.319,0.088s0.099,0.16,0.12,0.305l0.096,1.264
		c0.277-0.566,0.62-1.008,1.028-1.324s0.887-0.477,1.437-0.477c0.224,0,0.426,0.025,0.607,0.076s0.35,0.121,0.504,0.213
		l-0.184,1.063c-0.037,0.135-0.12,0.201-0.248,0.201c-0.075,0-0.189-0.025-0.344-0.076c-0.155-0.051-0.371-0.076-0.648-0.076
		c-0.496,0-0.91,0.145-1.244,0.432c-0.333,0.289-0.611,0.707-0.836,1.256v5.16H161.104z"/>
	<path fill="#111111" d="M167.601,365.541v-11.783h1.433v4.848c0.336-0.389,0.721-0.703,1.155-0.939
		c0.435-0.238,0.933-0.357,1.492-0.357c0.47,0,0.894,0.09,1.272,0.266c0.378,0.176,0.701,0.438,0.968,0.787s0.472,0.781,0.616,1.297
		c0.144,0.514,0.216,1.107,0.216,1.779c0,0.598-0.08,1.154-0.24,1.668c-0.16,0.516-0.391,0.961-0.692,1.336
		c-0.301,0.377-0.669,0.672-1.104,0.889c-0.435,0.215-0.924,0.324-1.468,0.324c-0.523,0-0.967-0.102-1.332-0.305
		s-0.685-0.486-0.956-0.848l-0.072,0.736c-0.043,0.201-0.165,0.303-0.368,0.303H167.601z M171.217,358.445
		c-0.464,0-0.871,0.107-1.22,0.32c-0.35,0.213-0.671,0.514-0.964,0.904v3.92c0.256,0.352,0.54,0.6,0.852,0.744
		c0.312,0.143,0.66,0.215,1.044,0.215c0.757,0,1.339-0.27,1.744-0.807c0.405-0.539,0.608-1.307,0.608-2.305
		c0-0.527-0.047-0.98-0.141-1.359c-0.093-0.379-0.228-0.689-0.404-0.934c-0.176-0.242-0.392-0.42-0.647-0.531
		S171.542,358.445,171.217,358.445z"/>
	<path fill="#111111" d="M179.704,357.309c0.485,0,0.934,0.082,1.344,0.244c0.411,0.164,0.766,0.398,1.064,0.705
		s0.532,0.686,0.7,1.135c0.168,0.451,0.252,0.965,0.252,1.541c0,0.225-0.024,0.373-0.072,0.447
		c-0.048,0.076-0.139,0.113-0.272,0.113h-5.392c0.011,0.512,0.08,0.957,0.208,1.336s0.304,0.693,0.528,0.947
		c0.224,0.254,0.49,0.443,0.8,0.568s0.656,0.188,1.04,0.188c0.357,0,0.665-0.041,0.924-0.123c0.259-0.084,0.481-0.172,0.668-0.27
		c0.187-0.096,0.343-0.184,0.468-0.268c0.126-0.082,0.233-0.123,0.324-0.123c0.117,0,0.208,0.045,0.272,0.135l0.399,0.521
		c-0.176,0.213-0.387,0.398-0.632,0.555c-0.245,0.158-0.508,0.287-0.788,0.389s-0.569,0.178-0.868,0.229s-0.595,0.076-0.888,0.076
		c-0.56,0-1.076-0.096-1.548-0.285c-0.473-0.189-0.88-0.467-1.225-0.832c-0.344-0.365-0.611-0.816-0.804-1.355
		c-0.191-0.539-0.288-1.158-0.288-1.855c0-0.566,0.087-1.094,0.26-1.584c0.174-0.492,0.423-0.916,0.748-1.277
		c0.325-0.359,0.723-0.643,1.192-0.848S179.117,357.309,179.704,357.309z M179.736,358.357c-0.688,0-1.229,0.199-1.624,0.596
		c-0.395,0.398-0.641,0.949-0.736,1.652h4.408c0-0.33-0.046-0.633-0.136-0.908c-0.091-0.273-0.225-0.512-0.4-0.711
		c-0.176-0.201-0.391-0.355-0.644-0.465C180.351,358.412,180.062,358.357,179.736,358.357z"/>
	<path fill="#111111" d="M186.464,353.758v11.783h-1.424v-11.783H186.464z"/>
	<path fill="#111111" d="M194.928,365.541h-0.632c-0.139,0-0.251-0.021-0.336-0.064c-0.086-0.041-0.142-0.133-0.168-0.271
		l-0.16-0.752c-0.214,0.191-0.422,0.365-0.624,0.516c-0.203,0.152-0.416,0.281-0.641,0.385c-0.224,0.104-0.462,0.184-0.716,0.236
		c-0.253,0.053-0.534,0.08-0.844,0.08c-0.314,0-0.609-0.045-0.884-0.133c-0.275-0.088-0.514-0.219-0.716-0.396
		c-0.203-0.176-0.364-0.398-0.484-0.668c-0.12-0.268-0.18-0.588-0.18-0.955c0-0.32,0.088-0.629,0.264-0.924
		c0.176-0.297,0.46-0.559,0.852-0.789c0.393-0.229,0.905-0.416,1.54-0.563s1.411-0.23,2.328-0.252v-0.633
		c0-0.629-0.135-1.105-0.403-1.428c-0.27-0.322-0.668-0.484-1.196-0.484c-0.347,0-0.639,0.045-0.876,0.133s-0.443,0.186-0.616,0.295
		s-0.322,0.209-0.448,0.297c-0.125,0.088-0.249,0.131-0.372,0.131c-0.096,0-0.18-0.025-0.252-0.076
		c-0.071-0.049-0.129-0.113-0.172-0.188l-0.256-0.455c0.448-0.432,0.931-0.756,1.448-0.969c0.517-0.213,1.091-0.32,1.72-0.32
		c0.453,0,0.856,0.076,1.208,0.225c0.353,0.148,0.648,0.357,0.888,0.623c0.24,0.268,0.422,0.59,0.544,0.969
		c0.123,0.379,0.185,0.795,0.185,1.248V365.541z M191.231,364.67c0.251,0,0.48-0.025,0.688-0.076s0.403-0.123,0.588-0.217
		c0.184-0.092,0.359-0.207,0.527-0.34c0.169-0.133,0.332-0.285,0.492-0.455v-1.689c-0.655,0.021-1.213,0.074-1.672,0.156
		c-0.459,0.084-0.832,0.191-1.12,0.324c-0.288,0.135-0.497,0.291-0.628,0.473s-0.196,0.385-0.196,0.607
		c0,0.213,0.035,0.398,0.104,0.553s0.163,0.281,0.28,0.379c0.117,0.1,0.256,0.172,0.416,0.217S191.045,364.67,191.231,364.67z"/>
	<path fill="#111111" d="M201.728,358.773c-0.063,0.117-0.162,0.176-0.296,0.176c-0.08,0-0.171-0.029-0.271-0.088
		c-0.102-0.059-0.226-0.123-0.372-0.195s-0.321-0.139-0.524-0.201c-0.202-0.061-0.442-0.092-0.72-0.092
		c-0.24,0-0.456,0.031-0.648,0.092c-0.191,0.063-0.355,0.146-0.491,0.252c-0.137,0.107-0.24,0.232-0.313,0.373
		s-0.107,0.295-0.107,0.459c0,0.209,0.06,0.383,0.18,0.521s0.278,0.258,0.476,0.359s0.422,0.191,0.672,0.268
		c0.251,0.078,0.509,0.16,0.772,0.248s0.521,0.186,0.771,0.293c0.251,0.105,0.475,0.238,0.673,0.398
		c0.197,0.16,0.355,0.357,0.476,0.588c0.12,0.232,0.18,0.512,0.18,0.836c0,0.375-0.066,0.719-0.199,1.037
		c-0.134,0.316-0.331,0.592-0.593,0.824c-0.261,0.232-0.581,0.414-0.96,0.547c-0.379,0.135-0.815,0.201-1.312,0.201
		c-0.565,0-1.077-0.092-1.536-0.277c-0.459-0.184-0.848-0.42-1.168-0.707l0.336-0.545c0.043-0.068,0.093-0.121,0.152-0.158
		c0.059-0.039,0.136-0.057,0.231-0.057s0.197,0.037,0.304,0.111c0.107,0.074,0.236,0.158,0.389,0.248
		c0.151,0.092,0.336,0.174,0.552,0.248s0.486,0.111,0.813,0.111c0.276,0,0.52-0.035,0.728-0.107s0.381-0.168,0.52-0.291
		s0.242-0.264,0.309-0.424s0.1-0.332,0.1-0.514c0-0.223-0.06-0.408-0.18-0.555s-0.278-0.271-0.476-0.377
		c-0.198-0.104-0.423-0.193-0.677-0.271c-0.253-0.078-0.512-0.158-0.775-0.244c-0.265-0.086-0.523-0.182-0.776-0.291
		s-0.479-0.248-0.676-0.412c-0.197-0.166-0.356-0.369-0.477-0.613c-0.119-0.242-0.18-0.537-0.18-0.883
		c0-0.311,0.064-0.607,0.192-0.893s0.314-0.535,0.56-0.752s0.547-0.389,0.904-0.516c0.357-0.129,0.765-0.193,1.224-0.193
		c0.533,0,1.012,0.084,1.437,0.252c0.424,0.17,0.79,0.4,1.1,0.693L201.728,358.773z"/>
	<path fill="#111111" d="M206.487,365.67c-0.64,0-1.132-0.18-1.476-0.537c-0.345-0.357-0.517-0.871-0.517-1.543v-4.961h-0.976
		c-0.086,0-0.157-0.025-0.216-0.076c-0.06-0.051-0.089-0.129-0.089-0.234v-0.568l1.328-0.168l0.328-2.504
		c0.011-0.08,0.046-0.146,0.104-0.197s0.133-0.076,0.224-0.076h0.72v2.793h2.32v1.031h-2.32v4.865c0,0.34,0.083,0.594,0.248,0.76
		c0.166,0.164,0.379,0.248,0.641,0.248c0.148,0,0.278-0.02,0.388-0.061c0.109-0.039,0.204-0.084,0.284-0.133
		c0.08-0.047,0.147-0.092,0.204-0.131c0.056-0.041,0.104-0.061,0.147-0.061c0.075,0,0.142,0.045,0.2,0.137l0.416,0.68
		c-0.245,0.229-0.541,0.41-0.888,0.539C207.213,365.604,206.855,365.67,206.487,365.67z"/>
	<path fill="#111111" d="M209.999,365.541v-8.104h0.848c0.203,0,0.331,0.1,0.385,0.297l0.111,0.879
		c0.353-0.389,0.745-0.703,1.181-0.943c0.435-0.24,0.937-0.361,1.508-0.361c0.442,0,0.833,0.074,1.172,0.221
		s0.621,0.355,0.848,0.625s0.398,0.592,0.517,0.971c0.117,0.379,0.176,0.799,0.176,1.256v5.16h-1.424v-5.16
		c0-0.613-0.141-1.088-0.42-1.428c-0.28-0.338-0.708-0.508-1.284-0.508c-0.422,0-0.814,0.102-1.181,0.305
		c-0.365,0.203-0.702,0.477-1.012,0.824v5.967H209.999z"/>
	<path fill="#111111" d="M220.799,354.893c0,0.141-0.028,0.27-0.084,0.389c-0.057,0.121-0.131,0.227-0.225,0.32
		c-0.093,0.094-0.201,0.166-0.323,0.221c-0.123,0.053-0.254,0.08-0.393,0.08s-0.268-0.027-0.388-0.08
		c-0.12-0.055-0.227-0.127-0.32-0.221c-0.093-0.094-0.167-0.199-0.22-0.32c-0.054-0.119-0.08-0.248-0.08-0.389
		c0-0.139,0.026-0.27,0.08-0.395c0.053-0.125,0.127-0.234,0.22-0.328c0.094-0.094,0.2-0.168,0.32-0.221s0.249-0.08,0.388-0.08
		s0.27,0.027,0.393,0.08c0.122,0.053,0.23,0.127,0.323,0.221c0.094,0.094,0.168,0.203,0.225,0.328
		C220.771,354.623,220.799,354.754,220.799,354.893z M220.479,357.438v8.104h-1.424v-8.104H220.479z"/>
	<path fill="#111111" d="M222.99,365.541v-8.104h0.848c0.203,0,0.331,0.1,0.385,0.297l0.111,0.879
		c0.353-0.389,0.745-0.703,1.181-0.943c0.435-0.24,0.937-0.361,1.508-0.361c0.442,0,0.833,0.074,1.172,0.221
		s0.621,0.355,0.848,0.625s0.398,0.592,0.517,0.971c0.117,0.379,0.176,0.799,0.176,1.256v5.16h-1.424v-5.16
		c0-0.613-0.141-1.088-0.42-1.428c-0.28-0.338-0.708-0.508-1.284-0.508c-0.422,0-0.814,0.102-1.181,0.305
		c-0.365,0.203-0.702,0.477-1.012,0.824v5.967H222.99z"/>
	<path fill="#111111" d="M234.615,357.301c0.352,0,0.681,0.039,0.987,0.117c0.307,0.076,0.586,0.189,0.836,0.34h2.2v0.527
		c0,0.176-0.112,0.289-0.336,0.336l-0.92,0.129c0.182,0.346,0.271,0.732,0.271,1.16c0,0.395-0.075,0.752-0.228,1.076
		c-0.152,0.322-0.362,0.598-0.632,0.828c-0.27,0.229-0.59,0.404-0.96,0.527c-0.371,0.123-0.777,0.184-1.22,0.184
		c-0.379,0-0.736-0.045-1.072-0.137c-0.171,0.107-0.3,0.223-0.389,0.346c-0.088,0.121-0.132,0.242-0.132,0.359
		c0,0.191,0.077,0.338,0.232,0.436c0.154,0.1,0.36,0.17,0.616,0.213s0.546,0.068,0.872,0.08c0.325,0.01,0.657,0.027,0.995,0.051
		c0.339,0.025,0.671,0.066,0.996,0.125s0.616,0.154,0.872,0.287s0.462,0.318,0.616,0.553s0.232,0.539,0.232,0.912
		c0,0.346-0.087,0.682-0.261,1.008c-0.173,0.324-0.422,0.615-0.748,0.867c-0.325,0.254-0.723,0.457-1.191,0.609
		c-0.47,0.15-1,0.227-1.592,0.227c-0.593,0-1.111-0.059-1.557-0.176s-0.814-0.273-1.107-0.471c-0.294-0.199-0.514-0.426-0.66-0.686
		c-0.146-0.258-0.22-0.529-0.22-0.811c0-0.4,0.126-0.74,0.38-1.021c0.253-0.279,0.601-0.502,1.044-0.668
		c-0.229-0.105-0.412-0.248-0.548-0.428c-0.137-0.178-0.204-0.416-0.204-0.715c0-0.117,0.021-0.24,0.063-0.365
		s0.108-0.248,0.196-0.371s0.196-0.24,0.324-0.352c0.128-0.113,0.277-0.211,0.447-0.297c-0.399-0.225-0.713-0.521-0.939-0.893
		c-0.227-0.369-0.34-0.803-0.34-1.299c0-0.395,0.076-0.754,0.228-1.076c0.152-0.322,0.364-0.598,0.637-0.824
		c0.271-0.227,0.596-0.402,0.972-0.523C233.755,357.363,234.167,357.301,234.615,357.301z M237.143,365.982
		c0-0.203-0.056-0.367-0.168-0.488c-0.112-0.123-0.264-0.219-0.456-0.285c-0.191-0.066-0.413-0.115-0.664-0.148
		c-0.251-0.031-0.515-0.053-0.792-0.066s-0.56-0.029-0.848-0.045s-0.563-0.045-0.824-0.088c-0.304,0.145-0.551,0.32-0.74,0.527
		c-0.189,0.209-0.283,0.457-0.283,0.744c0,0.182,0.046,0.352,0.14,0.508c0.093,0.158,0.236,0.295,0.428,0.408
		c0.192,0.115,0.434,0.205,0.725,0.273c0.29,0.066,0.633,0.1,1.027,0.1c0.384,0,0.729-0.035,1.032-0.104
		c0.304-0.07,0.562-0.168,0.772-0.297c0.21-0.129,0.371-0.279,0.483-0.455C237.087,366.389,237.143,366.195,237.143,365.982z
		 M234.615,361.582c0.287,0,0.542-0.041,0.764-0.121c0.221-0.08,0.406-0.191,0.556-0.336c0.149-0.143,0.262-0.316,0.336-0.516
		c0.075-0.199,0.112-0.42,0.112-0.66c0-0.496-0.15-0.891-0.452-1.184s-0.74-0.439-1.315-0.439c-0.571,0-1.007,0.146-1.309,0.439
		c-0.301,0.293-0.452,0.688-0.452,1.184c0,0.24,0.039,0.461,0.116,0.66s0.19,0.373,0.34,0.516c0.149,0.145,0.333,0.256,0.552,0.336
		S234.332,361.582,234.615,361.582z"/>
	<path fill="#111111" d="M244.702,358.773c-0.063,0.117-0.162,0.176-0.296,0.176c-0.08,0-0.171-0.029-0.271-0.088
		c-0.102-0.059-0.226-0.123-0.372-0.195s-0.321-0.139-0.524-0.201c-0.202-0.061-0.442-0.092-0.72-0.092
		c-0.24,0-0.456,0.031-0.648,0.092c-0.191,0.063-0.355,0.146-0.491,0.252c-0.137,0.107-0.24,0.232-0.313,0.373
		s-0.107,0.295-0.107,0.459c0,0.209,0.06,0.383,0.18,0.521s0.278,0.258,0.476,0.359s0.422,0.191,0.672,0.268
		c0.251,0.078,0.509,0.16,0.772,0.248s0.521,0.186,0.771,0.293c0.251,0.105,0.475,0.238,0.673,0.398
		c0.197,0.16,0.355,0.357,0.476,0.588c0.12,0.232,0.18,0.512,0.18,0.836c0,0.375-0.066,0.719-0.199,1.037
		c-0.134,0.316-0.331,0.592-0.593,0.824c-0.261,0.232-0.581,0.414-0.96,0.547c-0.379,0.135-0.815,0.201-1.312,0.201
		c-0.565,0-1.077-0.092-1.536-0.277c-0.459-0.184-0.848-0.42-1.168-0.707l0.336-0.545c0.043-0.068,0.093-0.121,0.152-0.158
		c0.059-0.039,0.136-0.057,0.231-0.057s0.197,0.037,0.304,0.111c0.107,0.074,0.236,0.158,0.389,0.248
		c0.151,0.092,0.336,0.174,0.552,0.248s0.486,0.111,0.813,0.111c0.276,0,0.52-0.035,0.728-0.107s0.381-0.168,0.52-0.291
		s0.242-0.264,0.309-0.424s0.1-0.332,0.1-0.514c0-0.223-0.06-0.408-0.18-0.555s-0.278-0.271-0.476-0.377
		c-0.198-0.104-0.423-0.193-0.677-0.271c-0.253-0.078-0.512-0.158-0.775-0.244c-0.265-0.086-0.523-0.182-0.776-0.291
		s-0.479-0.248-0.676-0.412c-0.197-0.166-0.356-0.369-0.477-0.613c-0.119-0.242-0.18-0.537-0.18-0.883
		c0-0.311,0.064-0.607,0.192-0.893s0.314-0.535,0.56-0.752s0.547-0.389,0.904-0.516c0.357-0.129,0.765-0.193,1.224-0.193
		c0.533,0,1.012,0.084,1.437,0.252c0.424,0.17,0.79,0.4,1.1,0.693L244.702,358.773z"/>
	<path fill="#111111" d="M246.638,360.141h3.952v1.209h-3.952V360.141z"/>
	<path fill="#111111" d="M258.214,358.045c0,0.102-0.019,0.199-0.057,0.293c-0.037,0.094-0.085,0.178-0.144,0.252l-4.384,5.84h4.424
		v1.111h-6.104v-0.592c0-0.068,0.018-0.15,0.053-0.244c0.034-0.094,0.084-0.182,0.147-0.268l4.408-5.881h-4.36v-1.119h6.017V358.045
		z"/>
	<path fill="#111111" d="M263.229,357.309c0.592,0,1.126,0.1,1.604,0.297s0.883,0.477,1.216,0.84
		c0.334,0.363,0.59,0.801,0.769,1.316c0.179,0.514,0.268,1.09,0.268,1.725c0,0.639-0.089,1.215-0.268,1.727
		s-0.435,0.949-0.769,1.313c-0.333,0.363-0.738,0.641-1.216,0.836s-1.012,0.293-1.604,0.293s-1.127-0.098-1.604-0.293
		s-0.884-0.473-1.22-0.836s-0.595-0.801-0.776-1.313c-0.181-0.512-0.271-1.088-0.271-1.727c0-0.635,0.091-1.211,0.271-1.725
		c0.182-0.516,0.44-0.953,0.776-1.316s0.742-0.643,1.22-0.84S262.638,357.309,263.229,357.309z M263.229,364.541
		c0.8,0,1.397-0.268,1.792-0.803c0.395-0.537,0.592-1.285,0.592-2.244c0-0.967-0.197-1.719-0.592-2.256
		c-0.395-0.539-0.992-0.809-1.792-0.809c-0.405,0-0.758,0.068-1.057,0.207s-0.548,0.34-0.748,0.602
		c-0.199,0.26-0.349,0.582-0.447,0.963s-0.148,0.813-0.148,1.293c0,0.479,0.05,0.908,0.148,1.287s0.248,0.697,0.447,0.957
		c0.2,0.258,0.449,0.457,0.748,0.596S262.824,364.541,263.229,364.541z"/>
	<path fill="#111111" d="M268.846,365.541v-8.104h0.848c0.203,0,0.331,0.1,0.385,0.297l0.111,0.879
		c0.353-0.389,0.745-0.703,1.181-0.943c0.435-0.24,0.937-0.361,1.508-0.361c0.442,0,0.833,0.074,1.172,0.221
		s0.621,0.355,0.848,0.625s0.398,0.592,0.517,0.971c0.117,0.379,0.176,0.799,0.176,1.256v5.16h-1.424v-5.16
		c0-0.613-0.141-1.088-0.42-1.428c-0.28-0.338-0.708-0.508-1.284-0.508c-0.422,0-0.814,0.102-1.181,0.305
		c-0.365,0.203-0.702,0.477-1.012,0.824v5.967H268.846z"/>
	<path fill="#111111" d="M280.95,357.309c0.485,0,0.934,0.082,1.344,0.244c0.411,0.164,0.766,0.398,1.064,0.705
		s0.532,0.686,0.7,1.135c0.168,0.451,0.252,0.965,0.252,1.541c0,0.225-0.024,0.373-0.072,0.447
		c-0.048,0.076-0.139,0.113-0.272,0.113h-5.392c0.011,0.512,0.08,0.957,0.208,1.336s0.304,0.693,0.528,0.947
		c0.224,0.254,0.49,0.443,0.8,0.568s0.656,0.188,1.04,0.188c0.357,0,0.665-0.041,0.924-0.123c0.259-0.084,0.481-0.172,0.668-0.27
		c0.187-0.096,0.343-0.184,0.468-0.268c0.126-0.082,0.233-0.123,0.324-0.123c0.117,0,0.208,0.045,0.272,0.135l0.399,0.521
		c-0.176,0.213-0.387,0.398-0.632,0.555c-0.245,0.158-0.508,0.287-0.788,0.389s-0.569,0.178-0.868,0.229s-0.595,0.076-0.888,0.076
		c-0.56,0-1.076-0.096-1.548-0.285c-0.473-0.189-0.88-0.467-1.225-0.832c-0.344-0.365-0.611-0.816-0.804-1.355
		c-0.191-0.539-0.288-1.158-0.288-1.855c0-0.566,0.087-1.094,0.26-1.584c0.174-0.492,0.423-0.916,0.748-1.277
		c0.325-0.359,0.723-0.643,1.192-0.848S280.363,357.309,280.95,357.309z M280.982,358.357c-0.688,0-1.229,0.199-1.624,0.596
		c-0.395,0.398-0.641,0.949-0.736,1.652h4.408c0-0.33-0.046-0.633-0.136-0.908c-0.091-0.273-0.225-0.512-0.4-0.711
		c-0.176-0.201-0.391-0.355-0.644-0.465C281.597,358.412,281.308,358.357,280.982,358.357z"/>
</g>
<polygon fill="#00CCFF" points="198,125 198,110 194,110 200,100 206,110 202,110 202,125 "/>
<polygon fill="#FF7C80" points="198,335 198,320 194,320 200,310 206,320 202,320 202,335 "/>
<polygon fill="#00CCFF" points="245.669,259.525 254.478,271.667 257.715,269.318 258.73,280.936 248.002,276.365 251.24,274.016 
	242.432,261.874 "/>
<polygon fill="#00CCFF" points="157.545,261.648 148.748,273.798 151.988,276.145 141.264,280.725 142.269,269.105 145.508,271.451 
	154.306,259.303 "/>
<polygon fill="#00CCFF" points="128.352,178.862 114.09,174.214 112.851,178.018 105.202,169.214 116.569,166.607 115.329,170.411 
	129.591,175.059 "/>
<polygon fill="#00CCFF" points="270.496,174.94 284.758,170.293 283.518,166.49 294.885,169.096 287.236,177.899 285.996,174.096 
	271.734,178.743 "/>
<polygon fill="#FF7C80" points="122.377,89.473 131.192,101.609 134.429,99.258 135.451,110.875 124.72,106.311 127.956,103.96 
	119.141,91.824 "/>
<polygon fill="#FF7C80" points="280.99,91.857 272.195,104.008 275.436,106.354 264.711,110.936 265.715,99.316 268.955,101.662 
	277.75,89.512 "/>
<polygon fill="#FF7C80" points="327.904,243.594 313.641,238.951 312.403,242.756 304.751,233.955 316.116,231.344 314.879,235.148 
	329.143,239.789 "/>
<polygon fill="#FF7C80" points="70.902,239.816 85.168,235.182 83.932,231.379 95.297,233.994 87.64,242.791 86.404,238.986 
	72.138,243.621 "/>
<circle fill="#8C8C8C" cx="200" cy="200" r="0.5"/>
</svg>
