<svg width="248.543" height="223.882" xmlns="http://www.w3.org/2000/svg"><g data-name="Group 904" transform="translate(2537.533 9399.477)"><path fill="none" stroke="#323f51" stroke-linecap="round" stroke-linejoin="round" stroke-width="3" d="m-2358.015-9228.552 8.028 24.553 39.4 8.624" data-name="Path 403"/><path fill="none" stroke="#323f51" stroke-linecap="round" stroke-linejoin="round" stroke-width="3" d="M-2329.509-9294.293c10.385 9.71 22.4 16.755 38.542 23.8" data-name="Path 404"/><path fill="none" stroke="#323f51" stroke-linecap="round" stroke-miterlimit="10" stroke-width="2.5" d="M-2441.765-9304.531a7.651 7.651 0 0 0-4.877-1.746 2.2 2.2 0 0 0-1.331.286 1.6 1.6 0 0 0-.554 1.645 3.126 3.126 0 0 0 .961 1.534 6.126 6.126 0 0 0 4.2 1.681c-1.58.924-5.126 3.642-4.427 5.832.961 3.013 8.508 1.924 8.26-1.575" data-name="Path 405"/><path fill="#323f51" stroke="#323f51" d="m-2508.858-9272.855 3.2-2.846c-8.8 3.335-15.966 2.245-20.879-5.12-6.795-10.186 1.04-26.2 17.975-23.407l-8.07-3.1a14.135 14.135 0 0 1 15.918-11.545 14.09 14.09 0 0 1 12.443 14.628l-7.816.663.19 4.486c2.838-.295 5.5-.553 8.164-.853 8.027-.9 16.05-1.834 24.077-2.732 1.774-.2 3.614-.259 2.278-3.129l-21.673 1.29c-1.686-4.531-2.607-9.083-4.92-12.76-4.007-6.37-10.493-8.436-17.742-7.043-7.491 1.439-12.212 6.265-13.915 13.655-.59 2.557-1.335 3.847-4.1 4.581a18.068 18.068 0 0 0-12.8 21.568 18.274 18.274 0 0 0 20.52 14.04c1.945-.286 3.429-.713 5.031 1.4 6.215 8.195 16.259 9.982 25.033 4.821 7.552-4.444 10.568-14.4 7.086-23.375-.183-.471-.295-.972-.545-1.8 5.847-2.322 11.646-4.541 17.356-6.97 1.057-.449 1.753-1.746 2.617-2.651l-.93-1.085c-10.921 3.719-21.843 7.436-33.131 11.278l1.652 4.2 7.466-2.636c3.607 6.629 1.227 14.352-5.592 18.621a14.089 14.089 0 0 1-18.893-4.179Z" data-name="Path 406"/><path fill="none" stroke="#323f51" stroke-miterlimit="10" stroke-width="4.5" d="M-2384.491-9374.955c13.307 4.325 23.743 15.911 31.578 27.745a183 183 0 0 1 28.511 75.228c.725 5.158 1.218 10.5-.209 15.507-1.808 6.359-6.529 11.506-11.747 15.565-9.9 7.708-21.9 12.294-34.044 15.44-10.328 2.673-21.143 4.39-31.655 2.567s-20.741-7.643-25.808-17.032c-3-5.554-4.029-11.931-5.012-18.165q-1.452-9.21-2.9-18.417c-2.594-16.441-5.192-33.177-2.828-49.654s10.306-35.709 24.656-44.135c8.594-4.75 15.064-5.709 21.4-5.455 2.54.1 5.516.44 8.06.805" data-name="Path 407"/><path fill="none" stroke="#323f51" stroke-linecap="round" stroke-width="5" d="M-2354.519-9352.711c-8.513 8.485-22.82 13.961-34.354 16.871a123.618 123.618 0 0 1-24.637 3.625c-7.548.34-16.568.228-24.322-3.356" data-name="Path 408"/><g fill="#313e50" data-name="Group 185"><path d="M-2359.025-9382.799c5.794-1.8 11.112-3.429 16.4-5.131 1.739-.559 3.792-.977 3.734-3.46-.058-2.459-1.993-4.98-4.411-5.086a13.246 13.246 0 0 0-6.07 1.116c-5.041 2.4-8.369 6.345-9.653 12.561Z" data-name="Path 409"/><path d="M-2370.817-9383.023c2.156-3.743 4.363-7.489 6.474-11.29.738-1.332 1.508-2.826-.031-4.175-1.477-1.3-4.231-1.4-5.544.163a13.84 13.84 0 0 0-2.673 5.016 11.9 11.9 0 0 0 1.774 10.286Z" data-name="Path 410"/><path d="M-2355.903-9369.105c4.058-.322 7.907-.506 11.715-1.009 1.068-.142 2.7-1.092 2.863-1.914a3.174 3.174 0 0 0-2.354-3.955 11.715 11.715 0 0 0-5.155.36 10.922 10.922 0 0 0-7.069 6.518Z" data-name="Path 411"/></g><circle cx="4.329" cy="4.329" r="4.329" fill="none" stroke="#323f51" stroke-width="2.5" data-name="Ellipse 35" transform="translate(-2431.43 -9314.571)"/><path fill="none" stroke="#323f51" stroke-linecap="round" stroke-miterlimit="10" stroke-width="2.5" d="M-2429.571-9321.662c3.4.711 5.948 2.521 8.479 4.841" data-name="Path 412"/><circle cx="1.526" cy="1.526" r="1.526" fill="#6c86a1" stroke="#323f51" stroke-width="2.5" data-name="Ellipse 36" transform="translate(-2430.396 -9311.705)"/><path fill="none" stroke="#323f51" stroke-linecap="round" stroke-linejoin="round" stroke-width="3" d="m-2459.44-9267.658 40.038 14.985 30.445-25.825" data-name="Path 413"/><path fill="none" stroke="#323f51" stroke-linecap="round" stroke-linejoin="round" stroke-width="3" d="m-2382.641-9247.514-39.215 18.31-9.366 47.539" data-name="Path 414"/><path fill="none" stroke="#323f51" stroke-linecap="round" stroke-linejoin="round" stroke-width="3" d="m-2449.494-9184.576 17.96 3.012" data-name="Line 1"/><path fill="none" stroke="#323f51" stroke-linecap="round" stroke-linejoin="round" stroke-width="3" d="m-2315.292-9177.409 4.321-17.691" data-name="Line 2"/></g></svg>