<svg xmlns="http://www.w3.org/2000/svg" xmlns:xlink="http://www.w3.org/1999/xlink" width="852.996" height="822.288" viewBox="0 0 852.996 822.288">
  <defs>
    <clipPath id="clip-path">
      <rect id="Rectangle_486" data-name="Rectangle 486" width="379.422" height="22.807" fill="none"/>
    </clipPath>
  </defs>
  <g id="Group_1218" data-name="Group 1218" transform="translate(-1917.596 -421.588)">
    <g id="Group_775" data-name="Group 775" transform="translate(1605.99 -3345)">
      <path id="Path_917" data-name="Path 917" d="M323.816,7.24l40.037-.71C535.938,3.48,801.181,317.421,682.862,381.2S524.893,664.919,352.807,667.969l-40.037.71C140.685,671.729,3.654,526.133,6.7,343.482S151.73,10.29,323.816,7.24Z" transform="matrix(-0.966, 0.259, -0.259, -0.966, 1172.713, 4410.806)" fill="#fff"/>
    </g>
    <g id="Group_1200" data-name="Group 1200" transform="translate(2046.516 450.439)">
      <path id="Path_368" data-name="Path 368" d="M106.226,108.8c10.628,41.481,2.4,64.137-2.583,106.667a828.423,828.423,0,0,0-1.794,175.914,151.541,151.541,0,0,0-50.453-.694" transform="translate(95.578 318.78)" fill="none" stroke="#353f4f" stroke-linecap="round" stroke-linejoin="round" stroke-width="6"/>
      <path id="Path_369" data-name="Path 369" d="M91.785,108.729C94.208,212.136,75.929,294.257,78.569,397.66q27.957-2.555,56.04-3.3" transform="translate(185.317 318.53)" fill="none" stroke="#353f4f" stroke-linecap="round" stroke-linejoin="round" stroke-width="6"/>
      <path id="Path_370" data-name="Path 370" d="M80.769,13.2,66.43,53.516H90.418L76.687,92.92" transform="translate(145.711)" fill="none" stroke="#930031" stroke-linecap="round" stroke-width="6"/>
      <path id="Path_371" data-name="Path 371" d="M52.483,14.609,52.618,57.4l22.576-8.11.4,41.726" transform="translate(99.205 4.692)" fill="none" stroke="#930031" stroke-linecap="round" stroke-width="6"/>
      <path id="Path_372" data-name="Path 372" d="M116.594,15.262,87.125,46.285l21.923,9.738L80.5,86.46" transform="translate(192.642 6.868)" fill="none" stroke="#930031" stroke-linecap="round" stroke-width="6"/>
      <path id="Path_373" data-name="Path 373" d="M45.7,205.163c8.695,34.078,27.58,64.692,48.754,92.771,16.935,22.448,37.71,44.987,65.359,50.093,24.507,4.521,49.578-5.873,69.78-20.467,49.478-35.733,77.743-100,67.4-160.145C285.417,100.1,215.572,33.7,143.936,39.24,69.158,45.018,29.411,141.334,45.7,205.163Z" transform="translate(64.521 85.742)" fill="#7ec8d6" stroke="#353f4f" stroke-miterlimit="10" stroke-width="6"/>
      <g id="Group_180" data-name="Group 180" transform="translate(261.593 217.445)">
        <path id="Path_374" data-name="Path 374" d="M77.839,70.747a77.055,77.055,0,0,0,28.282-10.424" transform="translate(-77.839 -60.323)" fill="none" stroke="#353f4f" stroke-linecap="round" stroke-linejoin="round" stroke-width="6"/>
        <path id="Path_375" data-name="Path 375" d="M78.28,65.038a65.6,65.6,0,0,0,20.68.88" transform="translate(-76.369 -44.601)" fill="none" stroke="#353f4f" stroke-linecap="round" stroke-linejoin="round" stroke-width="6"/>
      </g>
      <g id="Group_181" data-name="Group 181" transform="translate(175.441 217.445)">
        <path id="Path_376" data-name="Path 376" d="M86.241,70.747A77.062,77.062,0,0,1,57.963,60.323" transform="translate(-57.963 -60.323)" fill="none" stroke="#353f4f" stroke-linecap="round" stroke-linejoin="round" stroke-width="6"/>
        <path id="Path_377" data-name="Path 377" d="M79.959,65.038a65.624,65.624,0,0,1-20.684.88" transform="translate(-53.588 -44.601)" fill="none" stroke="#353f4f" stroke-linecap="round" stroke-linejoin="round" stroke-width="6"/>
      </g>
      <path id="Path_378" data-name="Path 378" d="M215.339,111.052s-88.458-73.877-162.334,0" transform="translate(100.946 216.791)" fill="none" stroke="#353f4f" stroke-linecap="round" stroke-linejoin="round" stroke-width="6"/>
      <path id="Path_379" data-name="Path 379" d="M150.026,210.062l28.746-11.114c10.1-3.905,20.45-7.962,28.473-15.236s13.316-18.6,10.433-29.037c-1.578-5.717-5.362-10.533-9.176-15.071A333.593,333.593,0,0,0,84.064,47.58" transform="translate(204.511 114.631)" fill="none" stroke="#353f4f" stroke-linecap="round" stroke-linejoin="round" stroke-width="6"/>
      <path id="Path_380" data-name="Path 380" d="M130.463,215.347c-18.608-2.731-37.376-5.5-55-12.054S41.2,186.016,30.84,170.321c-4.408-6.684-7.65-14.33-8.062-22.331-.477-9.154,2.8-18.2,7.7-25.946C44.047,100.64,68.558,89.262,91.73,79q33.146-14.674,66.287-29.349" transform="translate(0 121.546)" fill="none" stroke="#353f4f" stroke-linecap="round" stroke-linejoin="round" stroke-width="6"/>
    </g>
    <g id="Group_1213" data-name="Group 1213" transform="translate(2102.641 1155.549)" opacity="0.17">
      <g id="Group_1155" data-name="Group 1155" clip-path="url(#clip-path)">
        <path id="Path_1693" data-name="Path 1693" d="M382.569,703.45c0,6.3-84.936,11.4-189.709,11.4S3.148,709.749,3.148,703.45s84.935-11.4,189.712-11.4,189.709,5.107,189.709,11.4" transform="translate(-3.149 -692.048)"/>
      </g>
    </g>
  </g>
</svg>
