<svg xmlns="http://www.w3.org/2000/svg" xmlns:xlink="http://www.w3.org/1999/xlink" width="343" height="85.244" viewBox="0 0 343 85.244">
  <defs>
    <filter id="Path_700" x="237.684" y="0" width="71.312" height="69.182" filterUnits="userSpaceOnUse">
      <feOffset dy="3" input="SourceAlpha"/>
      <feGaussianBlur stdDeviation="3" result="blur"/>
      <feFlood flood-opacity="0.161"/>
      <feComposite operator="in" in2="blur"/>
      <feComposite in="SourceGraphic"/>
    </filter>
    <filter id="Path_701" x="252.68" y="10.83" width="71.312" height="69.182" filterUnits="userSpaceOnUse">
      <feOffset dy="3" input="SourceAlpha"/>
      <feGaussianBlur stdDeviation="3" result="blur-2"/>
      <feFlood flood-opacity="0.416"/>
      <feComposite operator="in" in2="blur-2"/>
      <feComposite in="SourceGraphic"/>
    </filter>
  </defs>
  <g id="Group_1212" data-name="Group 1212" transform="translate(-2332.002 -9231.756)">
    <g id="Group_1210" data-name="Group 1210" transform="translate(-16420.156 23419)">
      <rect id="Rectangle_332" data-name="Rectangle 332" width="343" height="70" rx="35" transform="translate(18752.158 -14172)" fill="#fff6d5"/>
      <text id="Notesbog" transform="translate(18797.066 -14165.757)" fill="#323f51" font-size="40" font-family="FiraSans-MediumItalic, Fira Sans" font-weight="500" font-style="italic"><tspan x="0" y="43">Notesbog</tspan></text>
    </g>
    <g id="Group_1211" data-name="Group 1211" transform="translate(-57 265.686)">
      <g transform="matrix(1, 0, 0, 1, 2389, 8966.07)" filter="url(#Path_700)">
        <g id="Path_700-2" data-name="Path 700" transform="translate(246.68 6)" fill="#faf7d3">
          <path d="M 51.81182098388672 49.68160247802734 L 1.500000476837158 49.68160247802734 L 1.500000476837158 1.500003099441528 L 51.81182098388672 1.500003099441528 L 51.81182098388672 18.99713325500488 L 51.81182098388672 49.68160247802734 Z" stroke="none"/>
          <path d="M 3 3.000003814697266 L 3 48.18160247802734 L 50.31182098388672 48.18160247802734 L 50.31182098388672 18.99713134765625 L 50.31182098388672 3.000003814697266 L 3 3.000003814697266 M 0 3.814697265625e-06 L 53.31182098388672 3.814697265625e-06 L 53.31182098388672 18.99713134765625 L 53.31182098388672 51.18160247802734 L 0 51.18160247802734 L 0 3.814697265625e-06 Z" stroke="none" fill="#323f51"/>
        </g>
      </g>
      <g transform="matrix(1, 0, 0, 1, 2389, 8966.07)" filter="url(#Path_701)">
        <g id="Path_701-2" data-name="Path 701" transform="translate(261.68 16.83)" fill="#faf7d3">
          <path d="M 51.81182098388672 49.68160247802734 L 1.500000476837158 49.68160247802734 L 1.500000476837158 1.500003099441528 L 51.81182098388672 1.500003099441528 L 51.81182098388672 18.99713325500488 L 51.81182098388672 49.68160247802734 Z" stroke="none"/>
          <path d="M 3 3.000003814697266 L 3 48.18160247802734 L 50.31182098388672 48.18160247802734 L 50.31182098388672 18.99713134765625 L 50.31182098388672 3.000003814697266 L 3 3.000003814697266 M 0 3.814697265625e-06 L 53.31182098388672 3.814697265625e-06 L 53.31182098388672 18.99713134765625 L 53.31182098388672 51.18160247802734 L 0 51.18160247802734 L 0 3.814697265625e-06 Z" stroke="none" fill="#323f51"/>
        </g>
      </g>
      <line id="Line_48" data-name="Line 48" x2="36.956" transform="translate(2659.997 8996.073)" fill="none" stroke="#707070" stroke-width="1"/>
      <line id="Line_49" data-name="Line 49" x2="29.176" transform="translate(2659.997 9007.745)" fill="none" stroke="#707070" stroke-width="1"/>
      <path id="Path_1146" data-name="Path 1146" d="M0,0H22.9" transform="translate(2659.997 9019.414)" fill="none" stroke="#707070" stroke-width="1"/>
    </g>
  </g>
</svg>
