<svg width="149.032" height="280.325" xmlns="http://www.w3.org/2000/svg"><g fill="none" stroke="#353f4f" data-name="Group 1073"><path stroke-linecap="round" stroke-linejoin="round" stroke-width="3" d="M60.155 164.915c4.195 16.372.948 25.313-1.02 42.1a326.959 326.959 0 0 0-.708 69.429 59.81 59.81 0 0 0-19.913-.274" data-name="Path 368"/><path stroke-linecap="round" stroke-linejoin="round" stroke-width="3" d="M89.874 164.791c.956 40.812-6.258 73.224-5.216 114.034q11.034-1.008 22.118-1.3" data-name="Path 369"/><path stroke-linecap="round" stroke-width="2.149" d="m69.894 1.37-5.659 15.913h9.47l-5.422 15.552" data-name="Path 370"/><path stroke-linecap="round" stroke-width="2.149" d="m40.376 3.779.053 16.891 8.91-3.2.154 16.464" data-name="Path 371"/><path stroke-linecap="round" stroke-width="2.149" d="M102.556 4.896 90.925 17.14l8.652 3.843-11.269 12.013" data-name="Path 372"/><path stroke-linecap="round" stroke-width="2.149" d="m122.158 197.661-15.922 5.629 5.964 7.352-15.495 5.588" data-name="Path 1620"/><path stroke-miterlimit="10" stroke-width="3.76" d="M24.009 110.975c3.432 13.45 10.885 25.532 19.242 36.614 6.684 8.86 14.883 17.755 25.8 19.771 9.672 1.784 19.567-2.318 27.541-8.078 19.528-14.1 30.683-39.466 26.6-63.206-4.569-26.569-32.136-52.772-60.409-50.587-29.515 2.28-45.203 40.294-38.774 65.486Z" data-name="Path 373"/><path stroke-linecap="round" stroke-linejoin="round" stroke-width="3" d="m120.438 124.311 11.345-4.386c3.986-1.541 8.071-3.143 11.238-6.013s5.255-7.341 4.118-11.46a16.417 16.417 0 0 0-3.622-5.948 131.661 131.661 0 0 0-49.115-36.321" data-name="Path 379"/><path stroke-linecap="round" stroke-linejoin="round" stroke-width="3" d="M28.077 124.126c-4.59.83-9.22 1.673-13.567 3.666a23.252 23.252 0 0 0-11.008 10.027 14.744 14.744 0 0 0-.089 14.682c3.346 6.509 9.393 9.971 15.109 13.089l16.348 8.925" data-name="Path 380"/></g></svg>