<svg xmlns="http://www.w3.org/2000/svg" width="161.054" height="280.325" viewBox="0 0 161.054 280.325">
  <g id="Group_1068" data-name="Group 1068" transform="translate(-21.23 -11.83)">
    <path id="Path_368" data-name="Path 368" d="M73.035,108.8c4.195,16.372.948,25.313-1.02,42.1a326.959,326.959,0,0,0-.708,69.429,59.81,59.81,0,0,0-19.913-.274" transform="translate(20.372 67.945)" fill="none" stroke="#353f4f" stroke-linecap="round" stroke-linejoin="round" stroke-width="3"/>
    <path id="Path_369" data-name="Path 369" d="M83.627,108.729c.956,40.812-6.258,73.224-5.216,114.034q11.034-1.008,22.118-1.3" transform="translate(39.499 67.892)" fill="none" stroke="#353f4f" stroke-linecap="round" stroke-linejoin="round" stroke-width="3"/>
    <path id="Path_370" data-name="Path 370" d="M72.089,13.2,66.43,29.113H75.9L70.478,44.665" transform="translate(31.057)" fill="none" stroke="#353f4f" stroke-linecap="round" stroke-width="2.149"/>
    <path id="Path_371" data-name="Path 371" d="M52.483,14.609,52.536,31.5l8.91-3.2L61.6,44.764" transform="translate(21.145 1)" fill="none" stroke="#353f4f" stroke-linecap="round" stroke-width="2.149"/>
    <path id="Path_372" data-name="Path 372" d="M94.748,15.262,83.117,27.506l8.652,3.843L80.5,43.362" transform="translate(41.06 1.464)" fill="none" stroke="#353f4f" stroke-linecap="round" stroke-width="2.149"/>
    <path id="Path_373" data-name="Path 373" d="M43.509,104.53c3.432,13.45,10.885,25.532,19.242,36.614,6.684,8.86,14.883,17.755,25.8,19.771,9.672,1.784,19.567-2.318,27.541-8.078,19.528-14.1,30.683-39.466,26.6-63.206-4.569-26.569-32.136-52.772-60.409-50.587C52.768,41.324,37.08,79.338,43.509,104.53Z" transform="translate(13.752 18.275)" fill="none" stroke="#353f4f" stroke-miterlimit="10" stroke-width="3.76"/>
    <g id="Group_180" data-name="Group 180" transform="translate(117.005 93.812)">
      <path id="Path_374" data-name="Path 374" d="M77.839,64.437A30.412,30.412,0,0,0,89,60.323" transform="translate(-77.839 -60.323)" fill="none" stroke="#353f4f" stroke-linecap="round" stroke-linejoin="round" stroke-width="1.612"/>
      <path id="Path_375" data-name="Path 375" d="M78.28,65.038a25.89,25.89,0,0,0,8.162.347" transform="translate(-77.526 -56.972)" fill="none" stroke="#353f4f" stroke-linecap="round" stroke-linejoin="round" stroke-width="1.612"/>
    </g>
    <g id="Group_181" data-name="Group 181" transform="translate(83.003 93.812)">
      <path id="Path_376" data-name="Path 376" d="M69.124,64.437a30.415,30.415,0,0,1-11.161-4.114" transform="translate(-57.963 -60.323)" fill="none" stroke="#353f4f" stroke-linecap="round" stroke-linejoin="round" stroke-width="1.612"/>
      <path id="Path_377" data-name="Path 377" d="M67.439,65.038a25.9,25.9,0,0,1-8.164.347" transform="translate(-57.031 -56.972)" fill="none" stroke="#353f4f" stroke-linecap="round" stroke-linejoin="round" stroke-width="1.612"/>
    </g>
    <path id="Path_378" data-name="Path 378" d="M79.667,83.611S65.139,71.477,53,83.611" transform="translate(42.516 37.207)" fill="none" stroke="#353f4f" stroke-linecap="round" stroke-linejoin="round" stroke-width="1.612"/>
    <path id="Path_379" data-name="Path 379" d="M110.1,111.708l11.345-4.386c3.986-1.541,8.071-3.143,11.238-6.013s5.255-7.341,4.118-11.46a16.417,16.417,0,0,0-3.622-5.948A131.661,131.661,0,0,0,84.064,47.58" transform="translate(43.59 24.433)" fill="none" stroke="#353f4f" stroke-linecap="round" stroke-linejoin="round" stroke-width="3"/>
    <path id="Path_380" data-name="Path 380" d="M65.25,115.049c-7.344-1.078-14.751-2.171-21.707-4.757s-13.521-6.819-17.612-13.013a17.941,17.941,0,0,1-3.182-8.814,17.739,17.739,0,0,1,3.04-10.24c5.355-8.448,15.029-12.938,24.174-16.987L76.125,49.654" transform="translate(0 25.907)" fill="none" stroke="#353f4f" stroke-linecap="round" stroke-linejoin="round" stroke-width="3"/>
  </g>
</svg>
