<svg xmlns="http://www.w3.org/2000/svg" width="143.593" height="275.372" viewBox="0 0 143.593 275.372">
  <g id="Group_1191" data-name="Group 1191" transform="translate(-216.204 9353.521)">
    <path id="Path_1606" data-name="Path 1606" d="M27.3,0c13.34,5.781,15.28,17.656,22.316,27.4,3.6,4.989,6.163,10.96,2.873,16.052-2.285,3.535-7.049,6.021-12.066,7.736C21.852,57.535,19.479,50.83,0,55.709" transform="translate(275.162 -9239.734) rotate(179)" fill="none" stroke="#353f4f" stroke-linecap="round" stroke-linejoin="round" stroke-width="3"/>
    <path id="Path_1609" data-name="Path 1609" d="M0,0" transform="matrix(0.996, -0.087, 0.087, 0.996, 287.217, -9238.794)" fill="none" stroke="#353f4f" stroke-miterlimit="10" stroke-width="5.492"/>
    <path id="Path_1607" data-name="Path 1607" d="M.06,119.063c-.2,3.631.036,7.416,1.727,10.635,2.335,4.442,7.01,7.076,11.512,9.292,11.4,5.608,23.819,10.187,36.494,9.333S75.388,140,79.343,127.929c1.733-5.288,1.663-10.97,1.575-16.533l-.736-47.009C79.868,44.4,79.467,19.356,62.147,5.8,50.173-3.573,39.658-1.476,32.37,11.3,24.527,25.047,23.04,42.8,18.952,57.854,13.478,78.014,1.223,98.028.06,119.063Z" transform="matrix(0.996, -0.087, 0.087, 0.996, 230.544, -9319.974)" fill="none" stroke="#353f4f" stroke-width="4.5"/>
    <g id="Group_1066" data-name="Group 1066" transform="matrix(0.996, -0.087, 0.087, 0.996, 269.955, -9281.135)">
      <path id="Path_547" data-name="Path 547" d="M8.919,0A15.071,15.071,0,0,0,0,5.375" transform="translate(0 1.584)" fill="none" stroke="#353f4f" stroke-linecap="round" stroke-linejoin="round" stroke-width="3"/>
      <path id="Path_548" data-name="Path 548" d="M0,0A19.7,19.7,0,0,1,8.06,8.944" transform="translate(0.124)" fill="none" stroke="#353f4f" stroke-linecap="round" stroke-linejoin="round" stroke-width="3"/>
    </g>
    <g id="Group_1067" data-name="Group 1067" transform="matrix(0.996, -0.087, 0.087, 0.996, 292.447, -9280.16)">
      <path id="Path_549" data-name="Path 549" d="M8.919,0A15.071,15.071,0,0,0,0,5.375" transform="translate(0 1.584)" fill="none" stroke="#353f4f" stroke-linecap="round" stroke-linejoin="round" stroke-width="3"/>
      <path id="Path_550" data-name="Path 550" d="M0,0A19.7,19.7,0,0,1,8.06,8.942" transform="translate(0.124)" fill="none" stroke="#353f4f" stroke-linecap="round" stroke-linejoin="round" stroke-width="3"/>
    </g>
    <ellipse id="Ellipse_131" data-name="Ellipse 131" cx="17.334" cy="68.502" rx="17.334" ry="68.502" transform="translate(217.391 -9318.428) rotate(-77.98)" fill="none" stroke="#353f4f" stroke-miterlimit="10" stroke-width="2"/>
    <ellipse id="Ellipse_132" data-name="Ellipse 132" cx="68.502" cy="17.334" rx="68.502" ry="17.334" transform="matrix(0.996, -0.092, 0.092, 0.996, 218.198, -9332.1)" fill="none" stroke="#353f4f" stroke-miterlimit="10" stroke-width="2"/>
    <path id="Path_1610" data-name="Path 1610" d="M0,4.063A8.484,8.484,0,0,1,6.972.02a16.1,16.1,0,0,1,8.073,2A18.219,18.219,0,0,0,19.923,4.07a9.281,9.281,0,0,0,3.659-.179A13.728,13.728,0,0,0,29.648.725" transform="matrix(0.996, -0.087, 0.087, 0.996, 268.075, -9254.518)" fill="none" stroke="#353f4f" stroke-linecap="round" stroke-linejoin="round" stroke-width="3"/>
    <path id="Path_1611" data-name="Path 1611" d="M0,0C1.458,35.749,1.084,61.869.592,97.93c8.955-1.713,11.565-3.171,20.115-7.561" transform="translate(298.342 -9177.961) rotate(1)" fill="none" stroke="#353f4f" stroke-linecap="round" stroke-linejoin="round" stroke-width="3"/>
    <path id="Path_1608" data-name="Path 1608" d="M21.223,0c-4.765,36.613-6.4,60.818-4.139,96.779A43.651,43.651,0,0,0,0,94.1" transform="translate(243.377 -9180.246) rotate(1)" fill="none" stroke="#353f4f" stroke-linecap="round" stroke-linejoin="round" stroke-width="3"/>
    <path id="Path_1612" data-name="Path 1612" d="M0,0C7.536,3.751,12.806,7.045,18.678,13.161c7.36,7.668,11.266,18.246,12.781,28.879s.823,21.452.13,32.174" transform="matrix(0.996, -0.087, 0.087, 0.996, 318.312, -9241.57)" fill="none" stroke="#353f4f" stroke-linecap="round" stroke-linejoin="round" stroke-width="3"/>
  </g>
</svg>
