<svg xmlns="http://www.w3.org/2000/svg" width="176.675" height="225.376" viewBox="0 0 176.675 225.376">
  <g id="Group_1070" data-name="Group 1070" transform="translate(-1302.448 8523.403)">
    <g id="Group_836" data-name="Group 836" transform="translate(1304.587 -8521.146)">
      <path id="Path_1164" data-name="Path 1164" d="M-976.144,187.328" transform="translate(1032.805 -119.701)" fill="none" stroke="#323f51" stroke-width="4.5"/>
      <path id="Path_1167" data-name="Path 1167" d="M-963.192,262.108c-.227,18.221-.453,30.488-.681,48.71a96.064,96.064,0,0,1-18.711.35" transform="translate(1030.26 -90.149)" fill="none" stroke="#323f51" stroke-linecap="round" stroke-linejoin="round" stroke-width="3"/>
      <path id="Path_1168" data-name="Path 1168" d="M-941.539,262.451a439.985,439.985,0,0,0-.074,46.7,44.64,44.64,0,0,1,18.811.267" transform="translate(1047.042 -88.096)" fill="none" stroke="#323f51" stroke-linecap="round" stroke-linejoin="round" stroke-width="3"/>
      <path id="Path_1163" data-name="Path 1163" d="M-955.841,155.773c-14.495,8.036-23.281,23.438-29.508,38.8a212.186,212.186,0,0,0-15.1,92.064c.363,6.029,1.031,12.209,3.8,17.575,3.519,6.811,10.068,11.573,16.932,14.989,13.028,6.482,27.717,8.935,42.248,9.716,12.353.664,25.041.124,36.568-4.366s21.815-13.458,25.413-25.293c2.13-7.005,1.833-14.486,1.517-21.8q-.467-10.8-.935-21.6c-.834-19.28-1.731-38.9-8.209-57.08s-19.5-35.035-37.75-41.312c-5.775-1.987-31.433-4.138-34.845-1.736-.025.009-2.846,1.716-2.9,1.736" transform="translate(1023.051 -154.663)" fill="none" stroke="#323f51" stroke-miterlimit="10" stroke-width="4.5"/>
      <path id="Path_1165" data-name="Path 1165" d="M24.064,0C11.379,2.986.013,15.989,0,29.022A19.762,19.762,0,0,0,1.9,38c2.6,5.111,7.842,8.237,12.859,11.012,17.867,9.877,22.483,7.874,45.346,11.365" transform="matrix(0.899, -0.438, 0.438, 0.899, 0, 103.331)" fill="none" stroke="#323f51" stroke-linecap="round" stroke-linejoin="round" stroke-width="3"/>
      <path id="Path_1605" data-name="Path 1605" d="M39.725,0c13.98,2.918,26.506,15.628,26.52,28.366a17.488,17.488,0,0,1-2.1,8.772c-2.861,5-8.643,8.051-14.172,10.763C30.285,57.555,25.2,55.6,0,59.01" transform="matrix(0.978, 0.208, -0.208, 0.978, 107.902, 76.907)" fill="none" stroke="#323f51" stroke-linecap="round" stroke-linejoin="round" stroke-width="3"/>
    </g>
    <path id="Path_574" data-name="Path 574" d="M2.988,2.578a9.3,9.3,0,0,1-2.6-1.414C0,.872-.168.544.214.192.58-.145.953.013,1.3.269c2.687,2,5.649,2.1,8.8.86.157-.062.318-.117.473-.183.389-.164.763-.175.99.173s.1.672-.346.861A11.175,11.175,0,0,1,2.988,2.578Z" transform="matrix(0.951, -0.309, 0.309, 0.951, 1372.23, -8464.822)" fill="#323f51"/>
    <path id="Path_573" data-name="Path 573" d="M2.988,2.578a9.3,9.3,0,0,1-2.6-1.414C0,.872-.168.544.214.192.58-.145.953.013,1.3.269c2.687,2,5.649,2.1,8.8.86.157-.062.318-.117.473-.183.389-.164.763-.175.99.173s.1.672-.346.861A11.175,11.175,0,0,1,2.988,2.578Z" transform="matrix(0.995, 0.105, -0.105, 0.995, 1400.233, -8467.016)" fill="#323f51"/>
    <path id="Path_570" data-name="Path 570" d="M1015.287,500.6c3.253-.037,5.4,2.038,5.342,5.165-.058,3.15-1.982,5.22-4.95,5.33a5.485,5.485,0,0,1-5.844-5.308C1009.868,502.688,1012.024,500.638,1015.287,500.6Z" transform="translate(365.577 -8965.565)" fill="#323f51"/>
    <path id="Path_569" data-name="Path 569" d="M1015.531,504.122a1.857,1.857,0,0,1,2.033,1.965,1.9,1.9,0,0,1-1.883,2.027,2.084,2.084,0,0,1-2.223-2.019A1.931,1.931,0,0,1,1015.531,504.122Z" transform="translate(366.862 -8966.988)" fill="#e4e4e4" opacity="0.9"/>
    <path id="Path_571" data-name="Path 571" d="M1042.246,500.4a5.238,5.238,0,0,1,5.157,5.452,4.918,4.918,0,0,1-5.245,5.2c-3.252-.019-5.077-1.926-5.055-5.281A5.1,5.1,0,0,1,1042.246,500.4Z" transform="translate(360.258 -8965.521)" fill="#323f51"/>
    <path id="Path_1262" data-name="Path 1262" d="M1015.531,504.122a1.857,1.857,0,0,1,2.033,1.965,1.9,1.9,0,0,1-1.883,2.027,2.084,2.084,0,0,1-2.223-2.019A1.931,1.931,0,0,1,1015.531,504.122Z" transform="translate(388.434 -8966.988)" fill="#e4e4e4" opacity="0.9"/>
    <path id="Path_1411" data-name="Path 1411" d="M4.157,3.673A12.85,12.85,0,0,1,.541,1.658C.007,1.242-.233.776.3.274.806-.206,1.326.019,1.8.384c3.738,2.848,7.858,3,12.245,1.226.219-.088.442-.167.658-.26.541-.234,1.061-.249,1.378.246.329.514.133.957-.482,1.226C11.926,4.431,8.143,5.048,4.157,3.673Z" transform="translate(1407.762 -8445.498) rotate(158)" fill="#323f51"/>
  </g>
</svg>
