<svg xmlns="http://www.w3.org/2000/svg" width="110.949" height="258.252" viewBox="0 0 110.949 258.252">
  <g id="Group_1071" data-name="Group 1071" transform="translate(-1960.895 9333.516)">
    <path id="Path_418" data-name="Path 418" d="M91.914,333.355c2.283,32.3,1.7,55.9.926,88.486,14.022-1.548,18.107-2.865,31.5-6.832" transform="translate(1945.644 -9498.604)" fill="none" stroke="#353f4f" stroke-linecap="round" stroke-linejoin="round" stroke-width="3"/>
    <path id="Path_419" data-name="Path 419" d="M81.508,332.149c-7.46,32.794-10.026,54.474-6.481,86.684a115.791,115.791,0,0,0-26.749-2.4" transform="translate(1914.151 -9499.475)" fill="none" stroke="#353f4f" stroke-linecap="round" stroke-linejoin="round" stroke-width="3"/>
    <path id="Path_421" data-name="Path 421" d="M53.611,371.919c-.227,4.115.04,8.407,1.958,12.056,2.646,5.036,7.947,8.025,13.052,10.535,12.925,6.358,27,11.549,41.373,10.582s29.016-9.435,33.5-23.123c1.964-5.993,1.885-12.436,1.785-18.743l-.835-53.294c-.356-22.655-.811-51.053-20.445-66.421-13.576-10.626-25.5-8.249-33.76,6.236-8.891,15.583-10.578,35.709-15.211,52.778C68.822,325.381,54.931,348.071,53.611,371.919Z" transform="translate(1917.95 -9568.192)" fill="none" stroke="#353f4f" stroke-miterlimit="10" stroke-width="4.503"/>
    <path id="Path_422" data-name="Path 422" d="M13.736,47.881A49.942,49.942,0,0,0,33.271,26.752c2.414-4.715,4.132-10.358,1.927-15.17-1.532-3.341-4.726-5.69-8.09-7.311C14.652-1.726,13.061,4.61,0,0" transform="translate(2025.207 -9214.686) rotate(140)" fill="none" stroke="#353f4f" stroke-linecap="round" stroke-linejoin="round" stroke-width="3"/>
    <path id="Path_423" data-name="Path 423" d="M19.2,0c8.094,2.6,14.356,13.412,14.363,24.786a22.747,22.747,0,0,1-1.214,7.834c-1.656,4.461-8.584,11.809-11.785,14.23" transform="matrix(0.326, 0.946, -0.946, 0.326, 2057.742, -9229.975)" fill="none" stroke="#353f4f" stroke-linecap="round" stroke-linejoin="round" stroke-width="3"/>
    <path id="Path_612" data-name="Path 612" d="M56.569,54.627a20.57,20.57,0,0,0,7.538-2.777" transform="translate(1979.504 -9332.891)" fill="none" stroke="#353f4f" stroke-linecap="round" stroke-linejoin="round" stroke-width="3"/>
    <path id="Path_613" data-name="Path 613" d="M56.932,55.73a17.468,17.468,0,0,0,5.511.234" transform="translate(1979.65 -9331.326)" fill="none" stroke="#353f4f" stroke-linecap="round" stroke-linejoin="round" stroke-width="3"/>
    <g id="Group_325" data-name="Group 325" transform="translate(2013.113 -9281.041)">
      <path id="Path_614" data-name="Path 614" d="M47.745,54.627a20.554,20.554,0,0,1-7.536-2.777" transform="translate(-40.209 -51.85)" fill="none" stroke="#353f4f" stroke-linecap="round" stroke-linejoin="round" stroke-width="3"/>
      <path id="Path_615" data-name="Path 615" d="M46.8,55.73a17.466,17.466,0,0,1-5.511.234" transform="translate(-39.773 -50.285)" fill="none" stroke="#353f4f" stroke-linecap="round" stroke-linejoin="round" stroke-width="3"/>
    </g>
    <path id="Path_551" data-name="Path 551" d="M0,2.321A6.224,6.224,0,0,1,4.845.011a13.161,13.161,0,0,1,5.61,1.144,14.273,14.273,0,0,0,3.39,1.17,7.81,7.81,0,0,0,2.543-.1A10.378,10.378,0,0,0,20.6.414" transform="matrix(0.996, -0.087, 0.087, 0.996, 2018.123, -9261.088)" fill="none" stroke="#353f4f" stroke-linecap="round" stroke-linejoin="round" stroke-width="3"/>
  </g>
</svg>
