<?xml version="1.0" encoding="UTF-8" standalone="no"?>
<svg
   xmlns:dc="http://purl.org/dc/elements/1.1/"
   xmlns:cc="http://creativecommons.org/ns#"
   xmlns:rdf="http://www.w3.org/1999/02/22-rdf-syntax-ns#"
   xmlns:svg="http://www.w3.org/2000/svg"
   xmlns="http://www.w3.org/2000/svg"
   viewBox="0 0 541 192"
   height="192"
   width="541"
   id="svg2"
   version="1.1">
  <metadata
     id="metadata8">
    <rdf:RDF>
      <cc:Work
         rdf:about="">
        <dc:format>image/svg+xml</dc:format>
        <dc:type
           rdf:resource="http://purl.org/dc/dcmitype/StillImage" />
        <dc:title></dc:title>
      </cc:Work>
    </rdf:RDF>
  </metadata>
  <defs
     id="defs6" />
  <path
     id="path817"
     d="m 402.03682,182.04649 c -1.98009,-2.50006 -2.83932,-4.49824 -2.45033,-5.69833 1.0463,-3.22796 4.75218,-10.43944 5.64976,-10.99417 1.30301,-0.8053 7.77708,2.55735 10.42548,5.41502 1.82174,1.96569 2.28125,3.47838 2.08716,6.87087 -0.13689,2.39264 -0.66346,4.35247 -1.17015,4.35518 -0.50669,0.003 -1.73489,0.74126 -2.72932,1.64121 -0.99443,0.89995 -3.37297,1.7767 -5.28564,1.94833 -3.00961,0.27006 -3.88792,-0.20605 -6.52696,-3.53811 z m 81,-14 c -1.98009,-2.50006 -2.83932,-4.49824 -2.45033,-5.69833 1.0463,-3.22796 4.75218,-10.43944 5.64976,-10.99417 1.30301,-0.8053 7.77708,2.55735 10.42548,5.41502 1.82174,1.96569 2.28125,3.47838 2.08716,6.87087 -0.13689,2.39264 -0.66346,4.35247 -1.17015,4.35518 -0.50669,0.003 -1.73489,0.74126 -2.72932,1.64121 -0.99443,0.89995 -3.37297,1.7767 -5.28564,1.94833 -3.00961,0.27006 -3.88792,-0.20605 -6.52696,-3.53811 z m -227,-8 c -1.98009,-2.50006 -2.83932,-4.49824 -2.45033,-5.69833 1.0463,-3.22796 4.75218,-10.43944 5.64976,-10.99417 1.30301,-0.8053 7.77708,2.55735 10.42548,5.41502 1.82174,1.96569 2.28125,3.47838 2.08716,6.87087 -0.13689,2.39264 -0.66346,4.35247 -1.17015,4.35518 -0.50669,0.003 -1.73489,0.74126 -2.72932,1.64121 -0.99443,0.89995 -3.37297,1.7767 -5.28564,1.94833 -3.00961,0.27006 -3.88792,-0.20605 -6.52696,-3.53811 z m -151,-2 c -1.98009,-2.50006 -2.83932,-4.49824 -2.45033,-5.69833 1.0463,-3.22796 4.75218,-10.43944 5.64976,-10.99417 1.30301,-0.8053 7.77708,2.55735 10.42548,5.41502 1.82174,1.96569 2.28125,3.47838 2.08716,6.87087 -0.13689,2.39264 -0.66346,4.35247 -1.17015,4.35518 -0.50669,0.003 -1.73489,0.74126 -2.72932,1.64121 -0.99443,0.89995 -3.37297,1.7767 -5.28564,1.94833 -3.00961,0.27006 -3.88792,-0.20605 -6.52696,-3.53811 z m 300.7722,-6.89617 c 2.63986,-0.7435 2.59021,-2.77272 -0.059,-2.41211 -0.9625,0.13102 -1.75,-0.20648 -1.75,-0.75 C 404,147.44469 403.325,147 402.5,147 c -0.825,0 -1.5,-0.45 -1.5,-1 0,-0.55 0.40217,-1 0.8937,-1 0.51247,0 0.54239,-1.59967 0.0701,-3.75 -1.07828,-4.90987 -1.0255,-17.95762 0.0845,-20.87704 0.47951,-1.2612 1.7898,-3.21106 2.91177,-4.33303 C 406.08203,114.91797 407,113.30678 407,112.45951 407,110.30792 411.08941,105 412.74708,105 c 0.75402,0 1.07225,-0.48331 0.70717,-1.07403 C 412.56107,102.48078 416.88617,98 419.17431,98 420.17844,98 421,97.325 421,96.5 c 0,-0.825 0.34377,-1.5 0.76393,-1.5 0.42016,0 1.85891,-1.77171 3.19722,-3.937132 1.3383,-2.165423 2.75791,-3.736496 3.15469,-3.491274 0.39678,0.245222 1.01612,-0.895904 1.37631,-2.535835 0.36019,-1.639932 2.00633,-4.118859 3.65809,-5.508727 1.65177,-1.389867 2.63118,-2.533923 2.17649,-2.542345 -0.4547,-0.0084 -0.20332,-0.410122 0.55862,-0.892666 0.99077,-0.627466 1.15766,-1.691178 0.58596,-3.734687 C 436.03165,70.7858 435.70824,69.275 435.75263,69 c 0.0444,-0.275 -2.8068,-0.5 -6.33596,-0.5 C 425.8875,68.5 423,68.768172 423,69.095939 c 0,0.327766 -1.5933,0.499205 -3.54066,0.380975 -3.96113,-0.240492 -11.13041,1.930989 -13.53808,4.100507 C 405.05295,74.359839 403.61701,75 402.73028,75 c -0.88674,0 -1.89036,0.45 -2.23028,1 -0.33992,0.55 -1.51803,1 -2.61803,1 -1.26014,0 -1.73536,0.428204 -1.28462,1.157524 0.50158,0.811573 -0.004,0.965089 -1.69098,0.513654 -1.3235,-0.354128 -2.96887,-0.650013 -3.65637,-0.657523 -0.6875,-0.0075 -1.25,-0.421526 -1.25,-0.920035 0,-0.49851 0.83803,-0.687231 1.86229,-0.419382 1.24793,0.326342 2.02756,-0.145011 2.36328,-1.428812 0.41453,-1.585177 0.0744,-1.834258 -1.97098,-1.443264 -2.18596,0.417872 -2.34565,0.254171 -1.38017,-1.414807 C 393.08458,68.566752 394.76722,67 396.66024,67 c 1.06687,0 2.46069,-0.520928 3.09738,-1.157618 0.87682,-0.876825 1.53174,-0.847124 2.7,0.122444 1.28872,1.069545 1.54238,0.995642 1.54238,-0.44937 0,-1.126432 0.52301,-1.528738 1.5,-1.15383 0.88376,0.339133 1.5,0.01245 1.5,-0.795186 0,-0.753934 1.41715,-1.864811 3.14922,-2.468615 4.23672,-1.476927 4.84818,-1.394976 4.86609,0.652175 0.0119,1.359752 0.20654,1.448228 0.87283,0.396755 0.66535,-1.049995 1.32915,-1.100833 2.96218,-0.226861 1.75035,0.936759 2.00627,0.869966 1.52019,-0.396755 C 419.96099,60.455951 420.41675,60 421.89301,60 423.05186,60 424,59.578292 424,59.062871 c 0,-1.18523 7.2765,-0.09452 8.1382,1.219879 0.351,0.535414 1.18882,0.633177 1.8618,0.21725 0.68575,-0.423818 1.61403,-0.150459 2.1118,0.621885 0.74976,1.163318 1.03228,1.154188 1.8126,-0.05857 0.74893,-1.163984 1.50819,-0.811735 4,1.855756 1.69158,1.810844 3.14223,4.032354 3.22366,4.936688 0.3922,4.355448 0.28521,5.692956 -0.50131,6.267071 -0.46928,0.342554 -0.36624,1.532802 0.22899,2.644995 0.83387,1.558101 0.74282,2.303856 -0.39675,3.249619 C 443.66554,80.692537 443,82.059465 443,83.055057 c 0,0.995592 -0.9,2.095817 -2,2.444943 -1.1,0.349126 -2,1.054451 -2,1.567388 C 439,87.580324 438.27686,88 437.39301,88 c -1.01759,0 -1.39587,0.550157 -1.03138,1.5 0.37311,0.972325 -0.029,1.505387 -1.14301,1.515313 -1.47971,0.01318 -1.5101,0.154313 -0.21862,1.015206 1.23078,0.820433 0.468,1.965224 -4.25,6.378424 -3.1625,2.958197 -5.75,5.890477 -5.75,6.516177 0,0.62571 -0.7875,1.43585 -1.75,1.80031 -2.23904,0.84784 -4.25,2.83122 -4.25,4.19171 0,1.60903 -3.2677,5.08286 -4.78126,5.08286 -0.73522,0 -1.05866,0.45 -0.71874,1 0.33992,0.55 0.25762,1.5625 -0.18289,2.25 -1.93411,3.01857 -3.05319,7.67131 -1.93568,8.04785 0.77195,0.26012 0.69329,0.89211 -0.25387,2.03953 -1.17925,1.42857 -1.14848,1.66262 0.21861,1.66262 1.00343,0 1.37847,0.554 1.01546,1.5 -0.31659,0.825 -0.2545,2.2875 0.13796,3.25 1.37205,3.36494 1.07489,9.20076 -0.49959,9.81124 -1.25634,0.48712 -1.1908,0.80919 0.4035,1.98266 1.71091,1.25931 1.73678,1.46504 0.25574,2.03337 -0.90626,0.34776 -1.39878,1.03515 -1.09448,1.52751 0.3043,0.49237 -1.38578,0.85036 -3.75574,0.79554 -3.14021,-0.0726 -3.6827,-0.27608 -2,-0.75 z m -222.7722,-12.10383 c -1.98009,-2.50006 -2.83932,-4.49824 -2.45033,-5.69833 1.0463,-3.22796 4.75218,-10.43944 5.64976,-10.99417 1.30301,-0.8053 7.77708,2.55735 10.42548,5.41502 1.82174,1.96569 2.28125,3.47838 2.08716,6.87087 -0.13689,2.39264 -0.66346,4.35247 -1.17015,4.35518 -0.50669,0.003 -1.73489,0.74126 -2.72932,1.64121 -0.99443,0.89995 -3.37297,1.7767 -5.28564,1.94833 -3.00961,0.27006 -3.88792,-0.20605 -6.52696,-3.53811 z m 152,-1 c -1.98009,-2.50006 -2.83932,-4.49824 -2.45033,-5.69833 1.0463,-3.22796 4.75218,-10.43944 5.64976,-10.99417 1.30301,-0.8053 7.77708,2.55735 10.42548,5.41502 1.82174,1.96569 2.28125,3.47838 2.08716,6.87087 -0.13689,2.39264 -0.66346,4.35247 -1.17015,4.35518 -0.50669,0.003 -1.73489,0.74126 -2.72932,1.64121 -0.99443,0.89995 -3.37297,1.7767 -5.28564,1.94833 -3.00961,0.27006 -3.88792,-0.20605 -6.52696,-3.53811 z m 151.7722,-0.89617 c 2.63986,-0.7435 2.59021,-2.77272 -0.059,-2.41211 -0.9625,0.13102 -1.75,-0.20648 -1.75,-0.75 C 485,133.44469 484.325,133 483.5,133 c -0.825,0 -1.5,-0.45 -1.5,-1 0,-0.55 0.40217,-1 0.8937,-1 0.51247,0 0.54239,-1.59967 0.0701,-3.75 -1.07828,-4.90987 -1.0255,-17.95762 0.0845,-20.87704 0.47951,-1.2612 1.7898,-3.21106 2.91177,-4.33303 C 487.08203,100.91797 488,99.306778 488,98.459507 488,96.307921 492.08941,91 493.74708,91 c 0.75402,0 1.07225,-0.483312 0.70717,-1.074028 C 493.56107,88.480785 497.88617,84 500.17431,84 501.17844,84 502,83.325 502,82.5 c 0,-0.825 0.34377,-1.5 0.76393,-1.5 0.42016,0 1.85891,-1.77171 3.19722,-3.937132 1.3383,-2.165423 2.75791,-3.736496 3.15469,-3.491274 0.39678,0.245222 1.01612,-0.895904 1.37631,-2.535835 0.36019,-1.639932 2.00633,-4.118859 3.65809,-5.508727 1.65177,-1.389867 2.63118,-2.533923 2.17649,-2.542345 -0.4547,-0.0084 -0.20332,-0.410122 0.55862,-0.892666 0.99077,-0.627466 1.15766,-1.691178 0.58596,-3.734687 C 517.03165,56.7858 516.70824,55.275 516.75263,55 c 0.0444,-0.275 -2.8068,-0.5 -6.33596,-0.5 C 506.8875,54.5 504,54.768172 504,55.095939 c 0,0.327766 -1.5933,0.499205 -3.54066,0.380975 -3.96113,-0.240492 -11.13041,1.930989 -13.53808,4.100507 C 486.05295,60.359839 484.61701,61 483.73028,61 c -0.88674,0 -1.89036,0.45 -2.23028,1 -0.33992,0.55 -1.51803,1 -2.61803,1 -1.26014,0 -1.73536,0.428204 -1.28462,1.157524 0.50158,0.811573 -0.004,0.965089 -1.69098,0.513654 -1.3235,-0.354128 -2.96887,-0.650013 -3.65637,-0.657523 -0.6875,-0.0075 -1.25,-0.421526 -1.25,-0.920035 0,-0.49851 0.83803,-0.687231 1.86229,-0.419382 1.24793,0.326342 2.02756,-0.145011 2.36328,-1.428812 0.41453,-1.585177 0.0744,-1.834258 -1.97098,-1.443264 -2.18596,0.417872 -2.34565,0.254171 -1.38017,-1.414807 C 474.08458,54.566752 475.76722,53 477.66024,53 c 1.06687,0 2.46069,-0.520928 3.09738,-1.157618 0.87682,-0.876825 1.53174,-0.847124 2.7,0.122444 1.28872,1.069545 1.54238,0.995642 1.54238,-0.44937 0,-1.126432 0.52301,-1.528738 1.5,-1.15383 0.88376,0.339133 1.5,0.01245 1.5,-0.795186 0,-0.753934 1.41715,-1.864811 3.14922,-2.468615 4.23672,-1.476927 4.84818,-1.394976 4.86609,0.652175 0.0119,1.359752 0.20654,1.448228 0.87283,0.396755 0.66535,-1.049995 1.32915,-1.100833 2.96218,-0.226861 1.75035,0.936759 2.00627,0.869966 1.52019,-0.396755 C 500.96099,46.455951 501.41675,46 502.89301,46 504.05186,46 505,45.578292 505,45.062871 c 0,-1.18523 7.2765,-0.09452 8.1382,1.219879 0.351,0.535414 1.18882,0.633177 1.8618,0.21725 0.68575,-0.423818 1.61403,-0.150459 2.1118,0.621885 0.74976,1.163318 1.03228,1.154188 1.8126,-0.05857 0.74893,-1.163984 1.50819,-0.811735 4,1.855756 1.69158,1.810844 3.14223,4.032354 3.22366,4.936688 0.3922,4.355448 0.28521,5.692956 -0.50131,6.267071 -0.46928,0.342554 -0.36624,1.532802 0.22899,2.644995 0.83387,1.558101 0.74282,2.303856 -0.39675,3.249619 C 524.66554,66.692537 524,68.059465 524,69.055057 c 0,0.995592 -0.9,2.095817 -2,2.444943 -1.1,0.349126 -2,1.054451 -2,1.567388 C 520,73.580324 519.27686,74 518.39301,74 c -1.01759,0 -1.39587,0.550157 -1.03138,1.5 0.37311,0.972325 -0.029,1.505387 -1.14301,1.515313 -1.47971,0.01318 -1.5101,0.154313 -0.21862,1.015206 1.23078,0.820433 0.468,1.965224 -4.25,6.378424 -3.1625,2.958193 -5.75,5.890473 -5.75,6.516179 0,0.625706 -0.7875,1.435845 -1.75,1.800309 -2.23904,0.847843 -4.25,2.831221 -4.25,4.191709 0,1.609028 -3.2677,5.08286 -4.78126,5.08286 -0.73522,0 -1.05866,0.45 -0.71874,1 0.33992,0.55 0.25762,1.5625 -0.18289,2.25 -1.93411,3.01857 -3.05319,7.67131 -1.93568,8.04785 0.77195,0.26012 0.69329,0.89211 -0.25387,2.03953 -1.17925,1.42857 -1.14848,1.66262 0.21861,1.66262 1.00343,0 1.37847,0.554 1.01546,1.5 -0.31659,0.825 -0.2545,2.2875 0.13796,3.25 1.37205,3.36494 1.07489,9.20076 -0.49959,9.81124 -1.25634,0.48712 -1.1908,0.80919 0.4035,1.98266 1.71091,1.25931 1.73678,1.46504 0.25574,2.03337 -0.90626,0.34776 -1.39878,1.03515 -1.09448,1.52751 0.3043,0.49237 -1.38578,0.85036 -3.75574,0.79554 -3.14021,-0.0726 -3.6827,-0.27608 -2,-0.75 z M 24.036818,132.04649 c -1.980084,-2.50006 -2.839319,-4.49824 -2.450329,-5.69833 1.046297,-3.22796 4.752184,-10.43944 5.649763,-10.99417 1.303007,-0.8053 7.777075,2.55735 10.425481,5.41502 1.821735,1.96569 2.281243,3.47838 2.087152,6.87087 -0.136887,2.39264 -0.663452,4.35247 -1.170144,4.35518 -0.506693,0.003 -1.734887,0.74126 -2.729322,1.64121 -0.994434,0.89995 -3.372971,1.7767 -5.285639,1.94833 -3.009614,0.27006 -3.887921,-0.20605 -6.526962,-3.53811 z m 235.772202,-2.89617 c 2.63986,-0.7435 2.59021,-2.77272 -0.059,-2.41211 -0.9625,0.13102 -1.75,-0.20648 -1.75,-0.75 C 258,125.44469 257.325,125 256.5,125 c -0.825,0 -1.5,-0.45 -1.5,-1 0,-0.55 0.40217,-1 0.8937,-1 0.51247,0 0.54239,-1.59967 0.0701,-3.75 -1.07828,-4.90987 -1.0255,-17.95762 0.0845,-20.877043 0.47951,-1.2612 1.7898,-3.21106 2.91177,-4.333023 C 260.08203,92.91797 261,91.306778 261,90.459507 261,88.307921 265.08941,83 266.74708,83 c 0.75402,0 1.07225,-0.483312 0.70717,-1.074028 C 266.56107,80.480785 270.88617,76 273.17431,76 274.17844,76 275,75.325 275,74.5 c 0,-0.825 0.34377,-1.5 0.76393,-1.5 0.42016,0 1.85891,-1.77171 3.19722,-3.937132 1.3383,-2.165423 2.75791,-3.736496 3.15469,-3.491274 0.39678,0.245222 1.01612,-0.895904 1.37631,-2.535835 0.36019,-1.639932 2.00633,-4.118859 3.65809,-5.508727 1.65177,-1.389867 2.63118,-2.533923 2.17649,-2.542345 -0.4547,-0.0084 -0.20332,-0.410122 0.55862,-0.892666 0.99077,-0.627466 1.15766,-1.691178 0.58596,-3.734687 C 290.03165,48.7858 289.70824,47.275 289.75263,47 c 0.0444,-0.275 -2.8068,-0.5 -6.33596,-0.5 C 279.8875,46.5 277,46.768172 277,47.095939 c 0,0.327766 -1.5933,0.499205 -3.54066,0.380975 -3.96113,-0.240492 -11.13041,1.930989 -13.53808,4.100507 C 259.05295,52.359839 257.61701,53 256.73028,53 c -0.88674,0 -1.89036,0.45 -2.23028,1 -0.33992,0.55 -1.51803,1 -2.61803,1 -1.26014,0 -1.73536,0.428204 -1.28462,1.157524 0.50158,0.811573 -0.004,0.965089 -1.69098,0.513654 -1.3235,-0.354128 -2.96887,-0.650013 -3.65637,-0.657523 -0.6875,-0.0075 -1.25,-0.421526 -1.25,-0.920035 0,-0.49851 0.83803,-0.687231 1.86229,-0.419382 1.24793,0.326342 2.02756,-0.145011 2.36328,-1.428812 0.41453,-1.585177 0.0744,-1.834258 -1.97098,-1.443264 -2.18596,0.417872 -2.34565,0.254171 -1.38017,-1.414807 C 247.08458,46.566752 248.76722,45 250.66024,45 c 1.06687,0 2.46069,-0.520928 3.09738,-1.157618 0.87682,-0.876825 1.53174,-0.847124 2.7,0.122444 1.28872,1.069545 1.54238,0.995642 1.54238,-0.44937 0,-1.126432 0.52301,-1.528738 1.5,-1.15383 0.88376,0.339133 1.5,0.01245 1.5,-0.795186 0,-0.753934 1.41715,-1.864811 3.14922,-2.468615 4.23672,-1.476927 4.84818,-1.394976 4.86609,0.652175 0.0119,1.359752 0.20654,1.448228 0.87283,0.396755 0.66535,-1.049995 1.32915,-1.100833 2.96218,-0.226861 1.75035,0.936759 2.00627,0.869966 1.52019,-0.396755 C 273.96099,38.455951 274.41675,38 275.89301,38 277.05186,38 278,37.578292 278,37.062871 c 0,-1.18523 7.2765,-0.09452 8.1382,1.219879 0.351,0.535414 1.18882,0.633177 1.8618,0.21725 0.68575,-0.423818 1.61403,-0.150459 2.1118,0.621885 0.74976,1.163318 1.03228,1.154188 1.8126,-0.05857 0.74893,-1.163984 1.50819,-0.811735 4,1.855756 1.69158,1.810844 3.14223,4.032354 3.22366,4.936688 0.3922,4.355448 0.28521,5.692956 -0.50131,6.267071 -0.46928,0.342554 -0.36624,1.532802 0.22899,2.644995 0.83387,1.558101 0.74282,2.303856 -0.39675,3.249619 C 297.66554,58.692537 297,60.059465 297,61.055057 c 0,0.995592 -0.9,2.095817 -2,2.444943 -1.1,0.349126 -2,1.054451 -2,1.567388 C 293,65.580324 292.27686,66 291.39301,66 c -1.01759,0 -1.39587,0.550157 -1.03138,1.5 0.37311,0.972325 -0.029,1.505387 -1.14301,1.515313 -1.47971,0.01318 -1.5101,0.154313 -0.21862,1.015206 1.23078,0.820433 0.468,1.965224 -4.25,6.378424 -3.1625,2.958193 -5.75,5.890473 -5.75,6.516179 0,0.625706 -0.7875,1.435845 -1.75,1.800309 C 275.01096,85.573274 273,87.556652 273,88.91714 273,90.526168 269.7323,94 268.21874,94 c -0.73522,0 -1.05866,0.45 -0.71874,1 0.33992,0.55 0.25762,1.5625 -0.18289,2.25 -1.93411,3.01857 -3.05319,7.67131 -1.93568,8.04785 0.77195,0.26012 0.69329,0.89211 -0.25387,2.03953 -1.17925,1.42857 -1.14848,1.66262 0.21861,1.66262 1.00343,0 1.37847,0.554 1.01546,1.5 -0.31659,0.825 -0.2545,2.2875 0.13796,3.25 1.37205,3.36494 1.07489,9.20076 -0.49959,9.81124 -1.25634,0.48712 -1.1908,0.80919 0.4035,1.98266 1.71091,1.25931 1.73678,1.46504 0.25574,2.03337 -0.90626,0.34776 -1.39878,1.03515 -1.09448,1.52751 0.3043,0.49237 -1.38578,0.85036 -3.75574,0.79554 -3.14021,-0.0726 -3.6827,-0.27608 -2,-0.75 z m -151,-2 c 2.63986,-0.7435 2.59021,-2.77272 -0.059,-2.41211 -0.9625,0.13102 -1.75,-0.20648 -1.75,-0.75 C 107,123.44469 106.325,123 105.5,123 c -0.825,0 -1.5,-0.45 -1.5,-1 0,-0.55 0.40217,-1 0.8937,-1 0.51247,0 0.54239,-1.59967 0.0701,-3.75 -1.07828,-4.90987 -1.0255,-17.957622 0.0845,-20.877043 0.47951,-1.2612 1.7898,-3.21106 2.91177,-4.333023 C 109.08203,90.91797 110,89.306778 110,88.459507 110,86.307921 114.08941,81 115.74708,81 c 0.75402,0 1.07225,-0.483312 0.70717,-1.074028 C 115.56107,78.480785 119.88617,74 122.17431,74 123.17844,74 124,73.325 124,72.5 c 0,-0.825 0.34377,-1.5 0.76393,-1.5 0.42016,0 1.85891,-1.77171 3.19722,-3.937132 1.3383,-2.165423 2.75791,-3.736496 3.15469,-3.491274 0.39678,0.245222 1.01612,-0.895904 1.37631,-2.535835 0.36019,-1.639932 2.00633,-4.118859 3.65809,-5.508727 1.65177,-1.389867 2.63118,-2.533923 2.17649,-2.542345 -0.4547,-0.0084 -0.20332,-0.410122 0.55862,-0.892666 0.99077,-0.627466 1.15766,-1.691178 0.58596,-3.734687 C 139.03165,46.7858 138.70824,45.275 138.75263,45 c 0.0444,-0.275 -2.8068,-0.5 -6.33596,-0.5 C 128.8875,44.5 126,44.768172 126,45.095939 c 0,0.327766 -1.5933,0.499205 -3.54066,0.380975 -3.96113,-0.240492 -11.13041,1.930989 -13.53808,4.100507 C 108.05295,50.359839 106.61701,51 105.73028,51 c -0.88674,0 -1.89036,0.45 -2.23028,1 -0.33992,0.55 -1.51803,1 -2.61803,1 -1.260142,0 -1.73536,0.428204 -1.284615,1.157524 0.501575,0.811573 -0.0038,0.965089 -1.690983,0.513654 C 96.582867,54.31705 94.9375,54.021165 94.25,54.013655 93.5625,54.006145 93,53.592129 93,53.09362 c 0,-0.49851 0.838029,-0.687231 1.862286,-0.419382 1.247934,0.326342 2.027561,-0.145011 2.363283,-1.428812 0.414533,-1.585177 0.07438,-1.834258 -1.970981,-1.443264 C 93.068634,50.220034 92.90894,50.056333 93.87442,48.387355 96.084584,44.566752 97.767218,43 99.660243,43 c 1.066867,0 2.460687,-0.520928 3.097377,-1.157618 0.87682,-0.876825 1.53174,-0.847124 2.7,0.122444 1.28872,1.069545 1.54238,0.995642 1.54238,-0.44937 0,-1.126432 0.52301,-1.528738 1.5,-1.15383 0.88376,0.339133 1.5,0.01245 1.5,-0.795186 0,-0.753934 1.41715,-1.864811 3.14922,-2.468615 4.23672,-1.476927 4.84818,-1.394976 4.86609,0.652175 0.0119,1.359752 0.20654,1.448228 0.87283,0.396755 0.66535,-1.049995 1.32915,-1.100833 2.96218,-0.226861 1.75035,0.936759 2.00627,0.869966 1.52019,-0.396755 C 122.96099,36.455951 123.41675,36 124.89301,36 126.05186,36 127,35.578292 127,35.062871 c 0,-1.18523 7.2765,-0.09452 8.1382,1.219879 0.351,0.535414 1.18882,0.633177 1.8618,0.21725 0.68575,-0.423818 1.61403,-0.150459 2.1118,0.621885 0.74976,1.163318 1.03228,1.154188 1.8126,-0.05857 0.74893,-1.163984 1.50819,-0.811735 4,1.855756 1.69158,1.810844 3.14223,4.032354 3.22366,4.936688 0.3922,4.355448 0.28521,5.692956 -0.50131,6.267071 -0.46928,0.342554 -0.36624,1.532802 0.22899,2.644995 0.83387,1.558101 0.74282,2.303856 -0.39675,3.249619 C 146.66554,56.692537 146,58.059465 146,59.055057 c 0,0.995592 -0.9,2.095817 -2,2.444943 -1.1,0.349126 -2,1.054451 -2,1.567388 C 142,63.580324 141.27686,64 140.39301,64 c -1.01759,0 -1.39587,0.550157 -1.03138,1.5 0.37311,0.972325 -0.029,1.505387 -1.14301,1.515313 -1.47971,0.01318 -1.5101,0.154313 -0.21862,1.015206 1.23078,0.820433 0.468,1.965224 -4.25,6.378424 -3.1625,2.958193 -5.75,5.890473 -5.75,6.516179 0,0.625706 -0.7875,1.435845 -1.75,1.800309 C 124.01096,83.573274 122,85.556652 122,86.91714 122,88.526168 118.7323,92 117.21874,92 c -0.73522,0 -1.05866,0.45 -0.71874,1 0.33992,0.55 0.25762,1.5625 -0.18289,2.25 -1.93411,3.018571 -3.05319,7.67131 -1.93568,8.04785 0.77195,0.26012 0.69329,0.89211 -0.25387,2.03953 -1.17925,1.42857 -1.14848,1.66262 0.21861,1.66262 1.00343,0 1.37847,0.554 1.01546,1.5 -0.31659,0.825 -0.2545,2.2875 0.13796,3.25 1.37205,3.36494 1.07489,9.20076 -0.49959,9.81124 -1.25634,0.48712 -1.1908,0.80919 0.4035,1.98266 1.71091,1.25931 1.73678,1.46504 0.25574,2.03337 -0.90626,0.34776 -1.39878,1.03515 -1.09448,1.52751 0.3043,0.49237 -1.38578,0.85036 -3.75574,0.79554 -3.14021,-0.0726 -3.6827,-0.27608 -2,-0.75 z m 78,-19 c 2.63986,-0.7435 2.59021,-2.77272 -0.059,-2.41211 -0.9625,0.13102 -1.75,-0.20648 -1.75,-0.75 C 185,104.44469 184.325,104 183.5,104 c -0.825,0 -1.5,-0.45 -1.5,-1 0,-0.55 0.40217,-1 0.8937,-1 0.51247,0 0.54239,-1.59967 0.0701,-3.75 -1.07828,-4.909874 -1.0255,-17.957622 0.0845,-20.877043 0.47951,-1.2612 1.7898,-3.21106 2.91177,-4.333023 C 187.08203,71.91797 188,70.306778 188,69.459507 188,67.307921 192.08941,62 193.74708,62 c 0.75402,0 1.07225,-0.483312 0.70717,-1.074028 C 193.56107,59.480785 197.88617,55 200.17431,55 201.17844,55 202,54.325 202,53.5 c 0,-0.825 0.34377,-1.5 0.76393,-1.5 0.42016,0 1.85891,-1.77171 3.19722,-3.937132 1.3383,-2.165423 2.75791,-3.736496 3.15469,-3.491274 0.39678,0.245222 1.01612,-0.895904 1.37631,-2.535835 0.36019,-1.639932 2.00633,-4.118859 3.65809,-5.508727 1.65177,-1.389867 2.63118,-2.533923 2.17649,-2.542345 -0.4547,-0.0084 -0.20332,-0.410122 0.55862,-0.892666 0.99077,-0.627466 1.15766,-1.691178 0.58596,-3.734687 C 217.03165,27.7858 216.70824,26.275 216.75263,26 c 0.0444,-0.275 -2.8068,-0.5 -6.33596,-0.5 C 206.8875,25.5 204,25.768172 204,26.095939 c 0,0.327766 -1.5933,0.499205 -3.54066,0.380975 -3.96113,-0.240492 -11.13041,1.930989 -13.53808,4.100507 C 186.05295,31.359839 184.61701,32 183.73028,32 c -0.88674,0 -1.89036,0.45 -2.23028,1 -0.33992,0.55 -1.51803,1 -2.61803,1 -1.26014,0 -1.73536,0.428204 -1.28462,1.157524 0.50158,0.811573 -0.004,0.965089 -1.69098,0.513654 -1.3235,-0.354128 -2.96887,-0.650013 -3.65637,-0.657523 -0.6875,-0.0075 -1.25,-0.421526 -1.25,-0.920035 0,-0.49851 0.83803,-0.687231 1.86229,-0.419382 1.24793,0.326342 2.02756,-0.145011 2.36328,-1.428812 0.41453,-1.585177 0.0744,-1.834258 -1.97098,-1.443264 -2.18596,0.417872 -2.34565,0.254171 -1.38017,-1.414807 C 174.08458,25.566752 175.76722,24 177.66024,24 c 1.06687,0 2.46069,-0.520928 3.09738,-1.157618 0.87682,-0.876825 1.53174,-0.847124 2.7,0.122444 1.28872,1.069545 1.54238,0.995642 1.54238,-0.44937 0,-1.126432 0.52301,-1.528738 1.5,-1.15383 0.88376,0.339133 1.5,0.01245 1.5,-0.795186 0,-0.753934 1.41715,-1.864811 3.14922,-2.468615 4.23672,-1.476927 4.84818,-1.394976 4.86609,0.652175 0.0119,1.359752 0.20654,1.448228 0.87283,0.396755 0.66535,-1.049995 1.32915,-1.100833 2.96218,-0.226861 1.75035,0.936759 2.00627,0.869966 1.52019,-0.396755 C 200.96099,17.455951 201.41675,17 202.89301,17 204.05186,17 205,16.578292 205,16.062871 c 0,-1.18523 7.2765,-0.09452 8.1382,1.219879 0.351,0.535414 1.18882,0.633177 1.8618,0.21725 0.68575,-0.423818 1.61403,-0.150459 2.1118,0.621885 0.74976,1.163318 1.03228,1.154188 1.8126,-0.05857 0.74893,-1.163984 1.50819,-0.811735 4,1.855756 1.69158,1.810844 3.14223,4.032354 3.22366,4.936688 0.3922,4.355448 0.28521,5.692956 -0.50131,6.267071 -0.46928,0.342554 -0.36624,1.532802 0.22899,2.644995 0.83387,1.558101 0.74282,2.303856 -0.39675,3.249619 C 224.66554,37.692537 224,39.059465 224,40.055057 c 0,0.995592 -0.9,2.095817 -2,2.444943 -1.1,0.349126 -2,1.054451 -2,1.567388 C 220,44.580324 219.27686,45 218.39301,45 c -1.01759,0 -1.39587,0.550157 -1.03138,1.5 0.37311,0.972325 -0.029,1.505387 -1.14301,1.515313 -1.47971,0.01318 -1.5101,0.154313 -0.21862,1.015206 1.23078,0.820433 0.468,1.965224 -4.25,6.378424 -3.1625,2.958193 -5.75,5.890473 -5.75,6.516179 0,0.625706 -0.7875,1.435845 -1.75,1.800309 C 202.01096,64.573274 200,66.556652 200,67.91714 200,69.526168 196.7323,73 195.21874,73 c -0.73522,0 -1.05866,0.45 -0.71874,1 0.33992,0.55 0.25762,1.5625 -0.18289,2.25 -1.93411,3.018571 -3.05319,7.67131 -1.93568,8.047854 0.77195,0.260111 0.69329,0.892105 -0.25387,2.039525 C 190.94831,87.765954 190.97908,88 192.34617,88 c 1.00343,0 1.37847,0.553996 1.01546,1.5 -0.31659,0.825 -0.2545,2.2875 0.13796,3.25 1.37205,3.364939 1.07489,9.20076 -0.49959,9.81124 -1.25634,0.48712 -1.1908,0.80919 0.4035,1.98266 1.71091,1.25931 1.73678,1.46504 0.25574,2.03337 -0.90626,0.34776 -1.39878,1.03515 -1.09448,1.52751 0.3043,0.49237 -1.38578,0.85036 -3.75574,0.79554 -3.14021,-0.0726 -3.6827,-0.27608 -2,-0.75 z m 152,-1 c 2.63986,-0.7435 2.59021,-2.77272 -0.059,-2.41211 -0.9625,0.13102 -1.75,-0.20648 -1.75,-0.75 C 337,103.44469 336.325,103 335.5,103 c -0.825,0 -1.5,-0.45 -1.5,-1 0,-0.55 0.40217,-1 0.8937,-1 0.51247,0 0.54239,-1.599674 0.0701,-3.75 -1.07828,-4.909874 -1.0255,-17.957622 0.0845,-20.877043 0.47951,-1.2612 1.7898,-3.21106 2.91177,-4.333023 C 339.08203,70.91797 340,69.306778 340,68.459507 340,66.307921 344.08941,61 345.74708,61 c 0.75402,0 1.07225,-0.483312 0.70717,-1.074028 C 345.56107,58.480785 349.88617,54 352.17431,54 353.17844,54 354,53.325 354,52.5 c 0,-0.825 0.34377,-1.5 0.76393,-1.5 0.42016,0 1.85891,-1.77171 3.19722,-3.937132 1.3383,-2.165423 2.75791,-3.736496 3.15469,-3.491274 0.39678,0.245222 1.01612,-0.895904 1.37631,-2.535835 0.36019,-1.639932 2.00633,-4.118859 3.65809,-5.508727 1.65177,-1.389867 2.63118,-2.533923 2.17649,-2.542345 -0.4547,-0.0084 -0.20332,-0.410122 0.55862,-0.892666 0.99077,-0.627466 1.15766,-1.691178 0.58596,-3.734687 C 369.03165,26.7858 368.70824,25.275 368.75263,25 c 0.0444,-0.275 -2.8068,-0.5 -6.33596,-0.5 C 358.8875,24.5 356,24.768172 356,25.095939 c 0,0.327766 -1.5933,0.499205 -3.54066,0.380975 -3.96113,-0.240492 -11.13041,1.930989 -13.53808,4.100507 C 338.05295,30.359839 336.61701,31 335.73028,31 c -0.88674,0 -1.89036,0.45 -2.23028,1 -0.33992,0.55 -1.51803,1 -2.61803,1 -1.26014,0 -1.73536,0.428204 -1.28462,1.157524 0.50158,0.811573 -0.004,0.965089 -1.69098,0.513654 -1.3235,-0.354128 -2.96887,-0.650013 -3.65637,-0.657523 -0.6875,-0.0075 -1.25,-0.421526 -1.25,-0.920035 0,-0.49851 0.83803,-0.687231 1.86229,-0.419382 1.24793,0.326342 2.02756,-0.145011 2.36328,-1.428812 0.41453,-1.585177 0.0744,-1.834258 -1.97098,-1.443264 -2.18596,0.417872 -2.34565,0.254171 -1.38017,-1.414807 C 326.08458,24.566752 327.76722,23 329.66024,23 c 1.06687,0 2.46069,-0.520928 3.09738,-1.157618 0.87682,-0.876825 1.53174,-0.847124 2.7,0.122444 1.28872,1.069545 1.54238,0.995642 1.54238,-0.44937 0,-1.126432 0.52301,-1.528738 1.5,-1.15383 0.88376,0.339133 1.5,0.01245 1.5,-0.795186 0,-0.753934 1.41715,-1.864811 3.14922,-2.468615 4.23672,-1.476927 4.84818,-1.394976 4.86609,0.652175 0.0119,1.359752 0.20654,1.448228 0.87283,0.396755 0.66535,-1.049995 1.32915,-1.100833 2.96218,-0.226861 1.75035,0.936759 2.00627,0.869966 1.52019,-0.396755 C 352.96099,16.455951 353.41675,16 354.89301,16 356.05186,16 357,15.578292 357,15.062871 c 0,-1.18523 7.2765,-0.09451 8.1382,1.219879 0.351,0.535414 1.18882,0.633177 1.8618,0.21725 0.68575,-0.423818 1.61403,-0.150459 2.1118,0.621885 0.74976,1.163318 1.03228,1.154188 1.8126,-0.05857 0.74893,-1.163984 1.50819,-0.811735 4,1.855756 1.69158,1.810844 3.14223,4.032354 3.22366,4.936688 0.3922,4.355448 0.28521,5.692956 -0.50131,6.267071 -0.46928,0.342554 -0.36624,1.532802 0.22899,2.644995 0.83387,1.558101 0.74282,2.303856 -0.39675,3.249619 C 376.66554,36.692537 376,38.059465 376,39.055057 c 0,0.995592 -0.9,2.095817 -2,2.444943 -1.1,0.349126 -2,1.054451 -2,1.567388 C 372,43.580324 371.27686,44 370.39301,44 c -1.01759,0 -1.39587,0.550157 -1.03138,1.5 0.37311,0.972325 -0.029,1.505387 -1.14301,1.515313 -1.47971,0.01318 -1.5101,0.154313 -0.21862,1.015206 1.23078,0.820433 0.468,1.965224 -4.25,6.378424 -3.1625,2.958193 -5.75,5.890473 -5.75,6.516179 0,0.625706 -0.7875,1.435845 -1.75,1.800309 C 354.01096,63.573274 352,65.556652 352,66.91714 352,68.526168 348.7323,72 347.21874,72 c -0.73522,0 -1.05866,0.45 -0.71874,1 0.33992,0.55 0.25762,1.5625 -0.18289,2.25 -1.93411,3.018571 -3.05319,7.67131 -1.93568,8.047854 0.77195,0.260111 0.69329,0.892105 -0.25387,2.039525 C 342.94831,86.765954 342.97908,87 344.34617,87 c 1.00343,0 1.37847,0.553996 1.01546,1.5 -0.31659,0.825 -0.2545,2.2875 0.13796,3.25 1.37205,3.364939 1.07489,9.20076 -0.49959,9.81124 -1.25634,0.48712 -1.1908,0.80919 0.4035,1.98266 1.71091,1.25931 1.73678,1.46504 0.25574,2.03337 -0.90626,0.34776 -1.39878,1.03515 -1.09448,1.52751 0.3043,0.49237 -1.38578,0.85036 -3.75574,0.79554 -3.14021,-0.0726 -3.6827,-0.27608 -2,-0.75 z m -311.000003,-6 C 30.448884,100.40682 30.399235,98.377596 27.75,98.73821 26.7875,98.869226 26,98.531726 26,97.98821 26,97.444695 25.325,97 24.5,97 23.675,97 23,96.55 23,96 c 0,-0.55 0.402166,-1 0.893703,-1 0.512467,0 0.542388,-1.599674 0.07014,-3.75 -1.078289,-4.909874 -1.025504,-17.957622 0.08446,-20.877043 0.479507,-1.2612 1.789801,-3.21106 2.911764,-4.333023 C 28.08203,64.91797 29,63.306778 29,62.459507 29,60.307921 33.089415,55 34.747075,55 35.501103,55 35.81933,54.516688 35.454248,53.925972 34.561073,52.480785 38.886167,48 41.174314,48 42.178441,48 43,47.325 43,46.5 43,45.675 43.343769,45 43.763932,45 c 0.420163,0 1.858909,-1.77171 3.197214,-3.937132 1.338304,-2.165423 2.757918,-3.736496 3.154696,-3.491274 0.396778,0.245222 1.016115,-0.895904 1.376304,-2.535835 0.360189,-1.639932 2.006333,-4.118859 3.658097,-5.508727 1.651764,-1.389867 2.631181,-2.533923 2.176482,-2.542345 -0.454699,-0.0084 -0.203319,-0.410122 0.558622,-0.892666 0.990773,-0.627466 1.157667,-1.691178 0.585962,-3.734687 C 58.031648,20.7858 57.708242,19.275 57.752629,19 57.797016,18.725 54.945833,18.5 51.416667,18.5 47.8875,18.5 45,18.768172 45,19.095939 45,19.423705 43.406702,19.595144 41.459338,19.476914 37.498211,19.236422 30.328932,21.407903 27.921259,23.577421 27.052952,24.359839 25.61701,25 24.730276,25 23.843543,25 22.839919,25.45 22.5,26 c -0.339919,0.55 -1.518034,1 -2.618034,1 -1.260138,0 -1.735356,0.428204 -1.284611,1.157524 0.50158,0.811573 -0.0038,0.965089 -1.690983,0.513654 C 15.582867,28.31705 13.9375,28.021165 13.25,28.013655 12.5625,28.006145 12,27.592129 12,27.09362 c 0,-0.49851 0.838029,-0.687231 1.862286,-0.419382 1.247934,0.326342 2.027561,-0.145011 2.363283,-1.428812 0.414533,-1.585177 0.07438,-1.834258 -1.970981,-1.443264 C 12.068634,24.220034 11.90894,24.056333 12.87442,22.387355 15.084584,18.566752 16.767218,17 18.660243,17 c 1.066866,0 2.460685,-0.520928 3.097375,-1.157618 0.876825,-0.876825 1.531741,-0.847124 2.7,0.122444 C 25.746341,17.034371 26,16.960468 26,15.515456 c 0,-1.126432 0.523005,-1.528738 1.5,-1.15383 0.883765,0.339133 1.5,0.01245 1.5,-0.795186 0,-0.753934 1.41715,-1.864811 3.149223,-2.468615 4.236716,-1.4769268 4.848177,-1.3949761 4.86609,0.652175 0.0119,1.359752 0.206537,1.448228 0.872826,0.396755 0.665352,-1.049995 1.32915,-1.100833 2.962182,-0.226861 1.75035,0.936759 2.006271,0.869966 1.520185,-0.396755 C 41.960987,10.455951 42.416749,10 43.893011,10 45.051855,10 46,9.5782918 46,9.0628706 46,7.877641 53.276504,8.9683563 54.138197,10.28275 54.489205,10.818164 55.327016,10.915927 56,10.5 c 0.685752,-0.423818 1.614027,-0.150459 2.111803,0.621885 0.74976,1.163318 1.032276,1.154188 1.812594,-0.05857 0.748933,-1.1639842 1.50819,-0.811735 4,1.855756 1.691582,1.810844 3.14223,4.032354 3.223663,4.936688 0.392196,4.355448 0.285208,5.692956 -0.501305,6.267071 -0.469285,0.342554 -0.366241,1.532802 0.228986,2.644995 0.833871,1.558101 0.74282,2.303856 -0.396754,3.249619 C 65.665544,30.692537 65,32.059465 65,33.055057 65,34.050649 64.1,35.150874 63,35.5 61.9,35.849126 61,36.554451 61,37.067388 61,37.580324 60.276855,38 59.393011,38 c -1.017592,0 -1.395874,0.550157 -1.031385,1.5 0.373117,0.972325 -0.02898,1.505387 -1.143011,1.515313 -1.479702,0.01318 -1.510093,0.154313 -0.218615,1.015206 1.230782,0.820433 0.467998,1.965224 -4.25,6.378424 -3.1625,2.958193 -5.75,5.890473 -5.75,6.516179 0,0.625706 -0.7875,1.435845 -1.75,1.800309 C 43.010959,57.573274 41,59.556652 41,60.91714 41,62.526168 37.732295,66 36.218742,66 35.483515,66 35.160081,66.45 35.5,67 c 0.339919,0.55 0.25762,1.5625 -0.182887,2.25 -1.934108,3.018571 -3.053195,7.67131 -1.935687,8.047854 0.771958,0.260111 0.69329,0.892105 -0.253871,2.039525 C 31.948308,80.765954 31.979083,81 33.34617,81 c 1.003433,0 1.378472,0.553996 1.015456,1.5 -0.316582,0.825 -0.2545,2.2875 0.13796,3.25 1.372057,3.364939 1.074898,9.200756 -0.499586,9.811238 -1.25634,0.487127 -1.190796,0.809191 0.403497,1.982665 1.710913,1.259311 1.736788,1.465034 0.255744,2.033364 -0.906265,0.347767 -1.398781,1.035153 -1.09448,1.527513 0.3043,0.49237 -1.385785,0.85036 -3.755744,0.79554 -3.140206,-0.0726 -3.682701,-0.27608 -2,-0.75 z"
     style="fill:#000000" />
</svg>
