<svg width="2293" height="2579" xmlns="http://www.w3.org/2000/svg"><defs><clipPath id="Figur_spekulativ-undrende_svg__a"><path d="M0 0h2293v2579H0z"/></clipPath></defs><g clip-path="url(#Figur_spekulativ-undrende_svg__a)" data-name="Figur_spekulativ/undrende"><path fill="#fff" d="m1698.168 2023.137-78.816 78.816c-338.766 338.766-1215.854 10.926-1215.854 10.926S75.658 1235.79 414.424 897.025l78.815-78.816c338.767-338.766 883.124-343.657 1215.855-10.926s327.84 877.088-10.926 1215.854Z" data-name="Path 1407"/><g data-name="Group 950"><path fill="none" stroke="#323f51" stroke-linecap="round" stroke-linejoin="round" stroke-width="10" d="M951.444 1845.914c-1.169 93.671-2.331 156.731-3.5 250.409a493.833 493.833 0 0 1-96.189 1.8" data-name="Path 1390"/><path fill="none" stroke="#323f51" stroke-linecap="round" stroke-linejoin="round" stroke-width="10" d="M1149.032 1858.229c-4.374 89.852-4.5 150.2-.38 240.059a229.483 229.483 0 0 1 96.7 1.37" data-name="Path 1387"/><path fill="#7ec8d6" stroke="#323f51" stroke-miterlimit="10" stroke-width="10" d="M952.186 967.613c-74.514 41.309-119.685 120.489-151.696 199.449a1090.8 1090.8 0 0 0-77.62 473.284c1.865 30.991 5.3 62.765 19.552 90.35 18.089 35.016 51.756 59.495 87.044 77.053 66.976 33.323 142.487 45.932 217.187 49.948 63.5 3.414 128.729.638 187.988-22.442s112.147-69.185 130.645-130.033c10.952-36.012 9.425-74.471 7.8-112.076q-2.4-55.525-4.806-111.05c-4.289-99.115-8.9-199.98-42.2-293.436s-100.254-180.1-194.068-212.369c-29.867-10.278-66.266-34.535-97.43-29.4-67.686 11.146-35.546 4.024-82.4 20.721" data-name="Path 1388"/><path fill="#fff" stroke="#323f51" stroke-width="5" d="M749.343 973.849c-5.592 3.46-8.016 6.94-10.721 12.974a13.509 13.509 0 0 0-1.428 5.813 18.879 18.879 0 0 0 1.449 5.713 97.168 97.168 0 0 0 4.214 11.144c1.79 3.55 4.375 6.879 7.905 8.7 4.164 2.152 13.477 1.307 17.892-.05 6.185-1.891 7.282-.292 11.576-5.109 2.162-2.414 4.154-6.718 5.411-9.715s1.7-9.685 1.056-12.914c-1-4.978-9.333-15.81-16.273-18.817-9.1-3.932-11.858-.644-21.362 1.438" data-name="Path 1393"/><path fill="none" stroke="#323f51" stroke-linecap="round" stroke-miterlimit="10" stroke-width="5" d="M749.343 973.849c-5.592 3.46-8.016 6.94-10.721 12.974a13.509 13.509 0 0 0-1.428 5.813 18.879 18.879 0 0 0 1.449 5.713 97.168 97.168 0 0 0 4.214 11.144c1.79 3.55 4.375 6.879 7.905 8.7 4.164 2.152 13.477 1.307 17.892-.05 6.185-1.891 7.282-.292 11.576-5.109 2.162-2.414 4.154-6.718 5.411-9.715s1.7-9.685 1.056-12.914c-1-4.978-9.333-15.81-16.273-18.817-9.1-3.932-11.858-.644-21.362 1.438" data-name="Path 1394"/><path fill="#fff" stroke="#323f51" stroke-width="10" d="M666.25 842.167c-11.747 7.171-16.736 14.553-22.2 27.417-1.649 3.9-2.967 8.1-2.736 12.471.231 4.234 1.891 8.338 3.4 12.391 3.047 8.157 5.6 16.5 9.615 24.279s9.715 15.076 17.339 19.2c9 4.878 28.865 3.55 38.188.865 13.125-3.762 15.529-.241 24.46-10.4 4.476-5.1 8.488-14.292 11.023-20.688s3.088-20.809 1.549-27.819c-2.394-10.792-20.779-34.608-35.764-41.467-19.642-8.981-25.345-2.032-45.53 1.951" data-name="Path 1395"/><path fill="none" stroke="#323f51" stroke-linecap="round" stroke-miterlimit="10" stroke-width="10" d="M666.25 842.167c-11.747 7.171-16.736 14.553-22.2 27.417-1.649 3.9-2.967 8.1-2.736 12.471.231 4.234 1.891 8.338 3.4 12.391 3.047 8.157 5.6 16.5 9.615 24.279s9.715 15.076 17.339 19.2c9 4.878 28.865 3.55 38.188.865 13.125-3.762 15.529-.241 24.46-10.4 4.476-5.1 8.488-14.292 11.023-20.688s3.088-20.809 1.549-27.819c-2.394-10.792-20.779-34.608-35.764-41.467-19.642-8.981-25.345-2.032-45.53 1.951" data-name="Path 1396"/><path fill="#fff" stroke="#323f51" stroke-width="10" d="M633.715 628.597c12.039 110.159 88.023 195.456 197.528 214.073 67.516 11.476 157.046 15.237 221.917-9.639 65.9-25.254 104.6-83.869 127.759-147.945 21.251-58.776 50.83-131.6 23.384-192.731-36.026-80.234-118.788-144.984-204.99-162.715-57.408-11.809-214.124 23.846-281.337 79.745-88.073 73.269-67.606 114.946-94.439 218.488" data-name="Path 1397"/><path fill="none" stroke="#323f51" stroke-linecap="round" stroke-miterlimit="10" stroke-width="10" d="M633.715 628.597c12.039 110.159 88.023 195.456 197.528 214.073 67.516 11.476 157.046 15.237 221.917-9.639 65.9-25.254 104.6-83.869 127.759-147.945 21.251-58.776 50.83-131.6 23.384-192.731-36.026-80.234-118.788-144.984-204.99-162.715-57.408-11.809-214.124 23.846-281.337 79.745-88.073 73.269-67.606 114.946-94.439 218.488" data-name="Path 1398"/><path fill="none" stroke="#353f4f" stroke-linecap="round" stroke-miterlimit="10" stroke-width="5" d="M1120.579 1095.601c16.711 3.5 29.235 12.385 41.669 23.79" data-name="Path 1402"/><path fill="none" stroke="#353f4f" stroke-linecap="round" stroke-miterlimit="10" stroke-width="5" d="M998.045 1137.601c-16.711 3.5-29.221 12.385-41.67 23.79" data-name="Path 1403"/><path fill="none" stroke="#323f51" stroke-linecap="round" stroke-linejoin="round" stroke-width="10" d="M1363.125 1339.939c52.681 32.986 87.28 71.967 115.059 127.575 14.223 28.467 24.343 62.543 11.354 91.591-9.023 20.176-27.844 34.37-47.661 44.146-73.359 36.213-162.311 21.84-239.241 49.669" data-name="Path 1391"/><path fill="none" stroke="#323f51" stroke-linecap="round" stroke-linejoin="round" stroke-width="10" d="M748.229 1326.332c-53.3 15.349-94.54 79-94.593 146-.012 15.866 2.123 31.989 8 46.14 10.908 26.272 32.949 42.346 54.029 56.612 75.063 50.773 203.602-262.788 282.755-222.347" data-name="Path 1389"/><text fill="#323f51" data-name="?" font-family="FiraSans-SemiBold, Fira Sans" font-size="300" font-weight="600" transform="translate(860 383)"><tspan x="-2.4" y="319">?</tspan></text></g><path fill="#323f51" d="M1021.954 1306.206a67.321 67.321 0 0 1 18.596 14.212c2.693 2.853 3.78 5.92.693 8.918-2.957 2.872-5.66 1.238-8.077-1.266-18.881-19.565-41.027-22.07-65.468-12.431-1.218.48-2.46.898-3.66 1.41-3.024 1.287-5.83 1.188-7.32-2.09-1.543-3.404-.291-6.152 3.14-7.64 20.548-8.875 41.216-11.382 62.096-1.113Z" data-name="Path 493"/><path fill="#323f51" d="M1011.341 1183.746c13.752-.157 22.828 8.617 22.583 21.834-.246 13.317-8.378 22.067-20.927 22.533-13.493.5-24.837-9.8-24.7-22.439.134-13.095 9.249-21.764 23.044-21.928Z" data-name="Path 494"/><path fill="#e4e4e4" d="M1020.979 1205.938c5.884-.069 9.77 3.692 9.67 9.349-.107 5.7-3.59 9.449-8.957 9.644-5.784.221-10.64-4.2-10.577-9.606.056-5.61 3.956-9.318 9.864-9.387Z" data-name="Path 495" opacity=".9"/><path fill="#323f51" d="M1117.323 1183.023c12.51-.032 22.365 10.394 22.258 23.532-.107 13.657-9.065 22.538-22.639 22.455-14.037-.082-21.91-8.311-21.816-22.791.097-13.496 9.344-23.167 22.197-23.196Z" data-name="Path 496"/><path fill="#e4e4e4" d="M1124.839 1206.614c5.922-.07 9.831 3.712 9.725 9.4-.109 5.732-3.606 9.5-9.009 9.7-5.809.222-10.691-4.219-10.635-9.66.058-5.64 3.979-9.371 9.919-9.44Z" data-name="Path 497"/></g></svg>