<svg xmlns="http://www.w3.org/2000/svg" xmlns:xlink="http://www.w3.org/1999/xlink" width="2293" height="2579" viewBox="0 0 2293 2579">
  <defs>
    <clipPath id="clip-Figur_spekulativ_undrende">
      <rect width="2293" height="2579"/>
    </clipPath>
  </defs>
  <g id="Figur_spekulativ_undrende" data-name="Figur_spekulativ/undrende" clip-path="url(#clip-Figur_spekulativ_undrende)">
    <path id="Path_1407" data-name="Path 1407" d="M867.465,0H978.927c479.088,0,867.465,852.013,867.465,852.013s-388.378,852.013-867.465,852.013H867.465C388.377,1704.025,0,1322.566,0,852.013S388.377,0,867.465,0Z" transform="translate(2311.558 1409.747) rotate(135)" fill="#fff"/>
    <g id="Group_950" data-name="Group 950" transform="translate(8977 -2443)">
      <path id="Path_1392" data-name="Path 1392" d="M-976.144,187.328" transform="translate(-7102.906 3565.235)" fill="none" stroke="#323f51" stroke-width="1"/>
      <path id="Path_1390" data-name="Path 1390" d="M-882.9,262.108c-1.169,93.671-2.331,156.731-3.5,250.409a493.833,493.833,0,0,1-96.189,1.8" transform="translate(-7142.656 4026.806)" fill="none" stroke="#323f51" stroke-linecap="round" stroke-linejoin="round" stroke-width="10"/>
      <path id="Path_1387" data-name="Path 1387" d="M-938.817,262.451c-4.374,89.852-4.5,150.2-.38,240.059a229.483,229.483,0,0,1,96.7,1.37" transform="translate(-6889.151 4038.778)" fill="none" stroke="#323f51" stroke-linecap="round" stroke-linejoin="round" stroke-width="10"/>
      <path id="Path_1388" data-name="Path 1388" d="M-769.576,158.091C-844.09,199.4-889.261,278.58-921.272,357.54a1090.8,1090.8,0,0,0-77.62,473.284c1.865,30.991,5.3,62.765,19.552,90.35,18.089,35.016,51.756,59.495,87.044,77.053,66.976,33.323,142.487,45.932,217.187,49.948,63.5,3.414,128.729.638,187.988-22.442S-374.974,956.548-356.476,895.7c10.952-36.012,9.425-74.471,7.8-112.076q-2.4-55.525-4.806-111.05c-4.289-99.115-8.9-199.98-42.2-293.436S-495.936,199.038-589.75,166.769c-29.867-10.278-66.266-34.535-97.43-29.4-67.686,11.146-35.546,4.024-82.4,20.721" transform="translate(-7255.238 3252.522)" fill="#7ec8d6" stroke="#323f51" stroke-miterlimit="10" stroke-width="10"/>
      <path id="Path_1393" data-name="Path 1393" d="M32.4,68.721c-5.592,3.46-8.016,6.94-10.721,12.974a13.509,13.509,0,0,0-1.428,5.813A18.879,18.879,0,0,0,21.7,93.221a97.168,97.168,0,0,0,4.214,11.144c1.79,3.55,4.375,6.879,7.905,8.7,4.164,2.152,13.477,1.307,17.892-.05,6.185-1.891,7.282-.292,11.576-5.109,2.162-2.414,4.154-6.718,5.411-9.715s1.7-9.685,1.056-12.914c-1-4.978-9.333-15.81-16.273-18.817-9.1-3.932-11.858-.644-21.362,1.438" transform="translate(-8260.057 3348.128)" fill="#fff" stroke="#323f51" stroke-width="5"/>
      <path id="Path_1394" data-name="Path 1394" d="M32.4,68.721c-5.592,3.46-8.016,6.94-10.721,12.974a13.509,13.509,0,0,0-1.428,5.813A18.879,18.879,0,0,0,21.7,93.221a97.168,97.168,0,0,0,4.214,11.144c1.79,3.55,4.375,6.879,7.905,8.7,4.164,2.152,13.477,1.307,17.892-.05,6.185-1.891,7.282-.292,11.576-5.109,2.162-2.414,4.154-6.718,5.411-9.715s1.7-9.685,1.056-12.914c-1-4.978-9.333-15.81-16.273-18.817-9.1-3.932-11.858-.644-21.362,1.438" transform="translate(-8260.057 3348.128)" fill="none" stroke="#323f51" stroke-linecap="round" stroke-miterlimit="10" stroke-width="5"/>
      <path id="Path_1395" data-name="Path 1395" d="M35.672,59.265c-11.747,7.171-16.736,14.553-22.2,27.417-1.649,3.9-2.967,8.1-2.736,12.471.231,4.234,1.891,8.338,3.4,12.391,3.047,8.157,5.6,16.5,9.615,24.279s9.715,15.076,17.339,19.2c9,4.878,28.865,3.55,38.188.865,13.125-3.762,15.529-.241,24.46-10.4,4.476-5.1,8.488-14.292,11.023-20.688s3.088-20.809,1.549-27.819c-2.394-10.792-20.779-34.608-35.764-41.467-19.642-8.981-25.345-2.032-45.53,1.951" transform="translate(-8346.422 3225.902)" fill="#fff" stroke="#323f51" stroke-width="10"/>
      <path id="Path_1396" data-name="Path 1396" d="M35.672,59.265c-11.747,7.171-16.736,14.553-22.2,27.417-1.649,3.9-2.967,8.1-2.736,12.471.231,4.234,1.891,8.338,3.4,12.391,3.047,8.157,5.6,16.5,9.615,24.279s9.715,15.076,17.339,19.2c9,4.878,28.865,3.55,38.188.865,13.125-3.762,15.529-.241,24.46-10.4,4.476-5.1,8.488-14.292,11.023-20.688s3.088-20.809,1.549-27.819c-2.394-10.792-20.779-34.608-35.764-41.467-19.642-8.981-25.345-2.032-45.53,1.951" transform="translate(-8346.422 3225.902)" fill="none" stroke="#323f51" stroke-linecap="round" stroke-miterlimit="10" stroke-width="10"/>
      <path id="Path_1397" data-name="Path 1397" d="M19.126,301.966c12.039,110.159,88.023,195.456,197.528,214.073C284.17,527.515,373.7,531.276,438.571,506.4c65.9-25.254,104.6-83.869,127.759-147.945,21.251-58.776,50.83-131.6,23.384-192.731C553.688,85.49,470.926,20.74,384.724,3.009,327.316-8.8,170.6,26.855,103.387,82.754,15.314,156.023,35.781,197.7,8.948,301.242" transform="translate(-8362.411 2769.631)" fill="#fff" stroke="#323f51" stroke-width="10"/>
      <path id="Path_1398" data-name="Path 1398" d="M19.126,301.966c12.039,110.159,88.023,195.456,197.528,214.073C284.17,527.515,373.7,531.276,438.571,506.4c65.9-25.254,104.6-83.869,127.759-147.945,21.251-58.776,50.83-131.6,23.384-192.731C553.688,85.49,470.926,20.74,384.724,3.009,327.316-8.8,170.6,26.855,103.387,82.754,15.314,156.023,35.781,197.7,8.948,301.242" transform="translate(-8362.411 2769.631)" fill="none" stroke="#323f51" stroke-linecap="round" stroke-miterlimit="10" stroke-width="10"/>
      <path id="Path_1402" data-name="Path 1402" d="M477.689,124.343c16.711,3.5,29.235,12.385,41.669,23.79" transform="translate(-8334.11 3414.258)" fill="none" stroke="#353f4f" stroke-linecap="round" stroke-miterlimit="10" stroke-width="5"/>
      <path id="Path_1403" data-name="Path 1403" d="M507.97,124.343c-16.711,3.5-29.221,12.385-41.67,23.79" transform="translate(-8486.925 3456.258)" fill="none" stroke="#353f4f" stroke-linecap="round" stroke-miterlimit="10" stroke-width="5"/>
      <path id="Path_1391" data-name="Path 1391" d="M-774.151,191.7c52.681,32.986,87.28,71.967,115.059,127.575,14.223,28.467,24.343,62.543,11.354,91.591-9.023,20.176-27.844,34.37-47.661,44.146-73.359,36.213-162.311,21.84-239.241,49.669" transform="translate(-6839.724 3591.239)" fill="none" stroke="#323f51" stroke-linecap="round" stroke-linejoin="round" stroke-width="10"/>
      <path id="Path_1389" data-name="Path 1389" d="M-919.808,192.036c-53.3,15.349-94.54,79-94.593,146-.012,15.866,2.123,31.989,8,46.14,10.908,26.272,32.949,42.346,54.029,56.612C-877.309,491.561-748.77,178-669.617,218.441" transform="translate(-7308.963 3577.296)" fill="none" stroke="#323f51" stroke-linecap="round" stroke-linejoin="round" stroke-width="10"/>
      <text id="_" data-name="?" transform="translate(-8117 2826)" fill="#323f51" font-size="300" font-family="FiraSans-SemiBold, Fira Sans" font-weight="600"><tspan x="-2.4" y="319">?</tspan></text>
    </g>
    <path id="Path_493" data-name="Path 493" d="M1030.968,552.212a67.321,67.321,0,0,1-19.542-12.88c-2.886-2.658-4.184-5.641-1.314-8.848,2.75-3.071,5.56-1.629,8.146.7,20.2,18.2,42.467,19.155,66.176,7.834,1.181-.564,2.391-1.068,3.553-1.663,2.926-1.494,5.732-1.591,7.447,1.575,1.777,3.288.72,6.117-2.6,7.84C1072.956,557.057,1052.513,561,1030.968,552.212Z" transform="translate(2011.89 1928.99) rotate(-176)" fill="#323f51"/>
    <path id="Path_494" data-name="Path 494" d="M1032.884,500.6c13.752-.157,22.828,8.617,22.583,21.834-.246,13.317-8.378,22.067-20.927,22.533-13.493.5-24.837-9.8-24.7-22.439C1009.974,509.433,1019.089,500.764,1032.884,500.6Z" transform="translate(-21.543 683.146)" fill="#323f51"/>
    <path id="Path_495" data-name="Path 495" d="M1023.323,504.123c5.884-.069,9.77,3.692,9.67,9.349-.107,5.7-3.59,9.449-8.957,9.644-5.784.221-10.64-4.2-10.577-9.606C1013.515,507.9,1017.415,504.192,1023.323,504.123Z" transform="translate(-2.344 701.815)" fill="#e4e4e4" opacity="0.9"/>
    <path id="Path_496" data-name="Path 496" d="M1059.3,500.4c12.51-.032,22.365,10.394,22.258,23.532-.107,13.657-9.065,22.538-22.639,22.455-14.037-.082-21.91-8.311-21.816-22.791C1037.2,510.1,1046.447,500.429,1059.3,500.4Z" transform="translate(58.023 682.623)" fill="#323f51"/>
    <path id="Path_497" data-name="Path 497" d="M1050.147,504.123c5.922-.07,9.831,3.712,9.725,9.4-.109,5.732-3.606,9.5-9.009,9.7-5.809.222-10.691-4.219-10.635-9.66C1040.286,507.923,1044.207,504.192,1050.147,504.123Z" transform="translate(74.692 702.491)" fill="#e4e4e4"/>
  </g>
</svg>
