<svg width="2293" height="2579" xmlns="http://www.w3.org/2000/svg"><defs><clipPath id="Illustration_sig_Kærligt(værdibaserede_aktiviteter_)_svg__b"><path fill="none" d="M0 0h450.547v454.283H0z" data-name="Rectangle 449"/></clipPath><clipPath id="Illustration_sig_Kærligt(værdibaserede_aktiviteter_)_svg__a"><path d="M0 0h2293v2579H0z"/></clipPath></defs><g clip-path="url(#Illustration_sig_Kærligt(værdibaserede_aktiviteter_)_svg__a)" data-name="Illustration_sig noget kærligt (værdibaserede aktiviteter )"><path fill="#fff" d="m1610.357 1927.359-69.875 69.875c-300.34 300.34-1063.132 24.498-1063.132 24.498S201.508 1258.94 501.848 958.6l69.876-69.875c300.34-300.341 776.32-311.309 1063.131-24.498s275.843 762.79-24.498 1063.132Z" data-name="Path 1407"/><path fill="#fff" d="m4040.168 2023.137-78.816 78.816c-338.766 338.766-1215.854 10.926-1215.854 10.926s-327.84-877.089 10.926-1215.854l78.815-78.816c338.767-338.766 883.124-343.657 1215.855-10.926s327.84 877.088-10.926 1215.854Z" data-name="Path 1733"/><path fill="none" stroke="#323f51" stroke-linecap="round" stroke-linejoin="round" stroke-width="10" d="M602.444 1834.914c-1.169 93.671-2.331 156.731-3.5 250.409a493.833 493.833 0 0 1-96.189 1.8" data-name="Path 1390"/><path fill="none" stroke="#323f51" stroke-linecap="round" stroke-linejoin="round" stroke-width="10" d="M800.032 1847.229c-4.374 89.852-4.5 150.2-.38 240.059a229.483 229.483 0 0 1 96.7 1.37" data-name="Path 1387"/><path fill="#7ec8d6" stroke="#323f51" stroke-miterlimit="10" stroke-width="10" d="M603.186 956.613c-74.514 41.309-119.685 120.489-151.696 199.449a1090.8 1090.8 0 0 0-77.62 473.284c1.865 30.991 5.3 62.765 19.552 90.35 18.089 35.016 51.756 59.495 87.044 77.053 66.976 33.323 142.487 45.932 217.187 49.948 63.5 3.414 128.729.638 187.988-22.442s112.147-69.185 130.645-130.033c10.952-36.012 9.425-74.471 7.8-112.076q-2.4-55.525-4.806-111.05c-4.289-99.115-8.9-199.98-42.2-293.436s-100.254-180.1-194.068-212.369c-29.867-10.278-66.266-34.535-97.43-29.4-67.686 11.146-35.546 4.024-82.4 20.721" data-name="Path 1388"/><path fill="none" stroke="#353f4f" stroke-linecap="round" stroke-miterlimit="10" stroke-width="5" d="M771.579 1084.601c16.711 3.5 29.235 12.385 41.669 23.79" data-name="Path 1402"/><path fill="none" stroke="#353f4f" stroke-linecap="round" stroke-miterlimit="10" stroke-width="5" d="M649.045 1126.601c-16.711 3.5-29.221 12.385-41.67 23.79" data-name="Path 1403"/><path fill="none" stroke="#323f51" stroke-linecap="round" stroke-linejoin="round" stroke-width="10" d="M1014.125 1328.939c52.681 32.986 87.28 71.967 115.059 127.575 14.223 28.467 24.343 62.543 11.354 91.591-9.023 20.176-27.844 34.37-47.661 44.146-73.359 36.213-162.311 21.84-239.241 49.669" data-name="Path 1391"/><path fill="none" stroke="#323f51" stroke-linecap="round" stroke-linejoin="round" stroke-width="10" d="M399.229 1315.332c-53.3 15.349-94.54 79-94.593 146-.012 15.866 2.123 31.989 8 46.14 10.908 26.272 32.949 42.346 54.029 56.612 75.063 50.773 203.602-262.788 282.755-222.347" data-name="Path 1389"/><path fill="#323f51" d="M627.929 1303.752a67.359 67.359 0 0 1-12.962-19.504c-1.62-3.576-1.648-6.831 2.249-8.662 3.733-1.754 5.758.673 7.229 3.83 11.488 24.66 31.622 34.246 57.885 33.09 1.308-.058 2.62-.05 3.922-.143 3.28-.232 5.901.776 6.243 4.362.351 3.723-1.729 5.916-5.46 6.204-22.33 1.702-42.7-2.66-59.106-19.177Z" data-name="Path 493"/><path fill="#323f51" d="M662.341 1172.746c13.752-.157 22.828 8.617 22.583 21.834-.246 13.317-8.378 22.067-20.927 22.533-13.493.5-24.837-9.8-24.7-22.439.134-13.095 9.249-21.764 23.044-21.928Z" data-name="Path 494"/><path fill="#fff" d="M671.979 1194.938c5.884-.069 9.77 3.692 9.67 9.349-.107 5.7-3.59 9.449-8.957 9.644-5.784.221-10.64-4.2-10.577-9.606.056-5.61 3.956-9.318 9.864-9.387Z" data-name="Path 495" opacity=".9"/><path fill="#323f51" d="M768.323 1172.023c12.51-.032 22.365 10.394 22.258 23.532-.107 13.657-9.065 22.538-22.639 22.455-14.037-.082-21.91-8.311-21.816-22.791.097-13.496 9.344-23.167 22.197-23.196Z" data-name="Path 496"/><path fill="#fff" d="M775.839 1195.614c5.922-.07 9.831 3.712 9.725 9.4-.109 5.732-3.606 9.5-9.009 9.7-5.809.222-10.691-4.219-10.635-9.66.058-5.64 3.979-9.371 9.919-9.44Z" data-name="Path 497"/><g data-name="Group 1187"><path fill="none" stroke="#323f51" stroke-linecap="round" stroke-linejoin="round" stroke-width="10" d="M1350.219 1335.248c-30.6 14.167-54.791 22.324-91.949 25.042-46.577 3.402-98.431-11.756-145.762-34.644-28.698-13.884-57.42-26.807-85.093-45.078-14.175-9.357-32.685-23.269-36.091-33.524 0 0-5.579-11.624-5.578-24.625.002-3.211-.654-15.503.002-19.847 1.019-6.822 10.035-17.031 12.177-18.333-.336.088-6.595 7.71-6.595 7.71" data-name="Path 1725"/><path fill="#e79e17" stroke="#323f51" stroke-miterlimit="10" stroke-width="10" d="M1287.938 1561.09c-1.061 19.071.184 38.964 9.073 55.873 12.265 23.34 36.826 37.193 60.493 48.827 59.9 29.461 125.144 53.527 191.749 49.042s134.48-43.728 155.266-107.166c9.1-27.777 8.738-57.636 8.275-86.866l-3.878-247c-1.644-105-3.75-236.61-94.757-307.844-62.911-49.242-118.161-38.222-156.455 28.9-41.212 72.234-49.027 165.507-70.512 244.618-28.755 105.927-93.142 211.09-99.254 321.616Z" data-name="Path 1724"/><path fill="#323f51" d="M1473.782 1256.177a53.851 53.851 0 0 1-15.629-10.3c-2.308-2.126-3.346-4.512-1.051-7.076 2.2-2.456 4.446-1.3 6.515.562 16.158 14.558 33.964 15.319 52.925 6.265.945-.451 1.912-.854 2.842-1.33 2.34-1.194 4.584-1.272 5.955 1.26 1.421 2.63.576 4.892-2.081 6.27-15.895 8.223-32.245 11.377-49.476 4.349Z" data-name="Path 1726"/><path fill="#323f51" d="M1463.003 1089.899a34.598 34.598 0 0 1 10.817 2.015c1.693.59 2.68 1.55 1.73 3.235-.902 1.612-2.406 1.481-3.916.973-11.8-3.98-22.392-.946-32.117 7.07-.485.4-.99.781-1.462 1.19-1.187 1.027-2.496 1.493-3.7.526-1.251-1.004-1.113-2.267.234-3.44 8.052-7.032 17.17-11.688 28.414-11.569Z" data-name="Path 1731"/><path fill="#323f51" d="M1465.258 1151.35c11-.126 18.257 6.892 18.061 17.462-.2 10.65-6.7 17.648-16.737 18.021-10.791.4-19.864-7.839-19.758-17.946.111-10.473 7.401-17.406 18.434-17.537Z" data-name="Path 1727"/><path fill="#fff" d="M1453.964 1162.102c4.705-.056 7.814 2.952 7.733 7.477-.086 4.559-2.871 7.557-7.164 7.713-4.625.177-8.509-3.355-8.459-7.683.042-4.485 3.164-7.452 7.89-7.507Z" data-name="Path 1728" opacity=".9"/><path fill="#323f51" d="M1550.015 1150.774c10.005-.026 17.888 8.313 17.8 18.82-.086 10.922-7.25 18.025-18.106 17.959-11.226-.066-17.523-6.647-17.448-18.227.078-10.794 7.475-18.53 17.754-18.552Z" data-name="Path 1729"/><path fill="none" stroke="#323f51" stroke-linecap="round" stroke-linejoin="round" stroke-width="10" d="M1711.217 1416.148c-36.11 3.552-69.638 8.781-102.19 14.915-95.446 17.983-175.288 43.028-260.876 49.18-34.094 2.45-64.073 12.781-91.387 11.22-84.199-4.811-133.207-35.327-156.329-40.155-30.359-6.349-33.49-38.772-21.366-50.42" data-name="Path 1722"/><path fill="none" stroke="#323f51" stroke-linecap="round" stroke-linejoin="round" stroke-width="10" d="M1593.811 1704.877c10.581 149.7 7.868 259.089 4.285 410.1 64.994-7.174 83.929-13.278 145.978-31.671" data-name="Path 1721"/><path fill="none" stroke="#323f51" stroke-linecap="round" stroke-linejoin="round" stroke-width="10" d="M1402.619 1686.251c-34.576 151.979-46.462 252.466-30.027 401.748a536.213 536.213 0 0 0-123.971-11.139" data-name="Path 1723"/><path fill="#323f51" d="M1578.92 1077.857a34.604 34.604 0 0 1 7.974 7.584c1.098 1.418 1.403 2.76-.312 3.656-1.634.86-2.824-.069-3.814-1.318-7.728-9.767-18.265-12.994-30.79-11.568-.625.07-1.256.114-1.874.2-1.556.215-2.908-.107-3.392-1.575-.501-1.524.303-2.507 2.072-2.758 10.585-1.51 20.77-.447 30.136 5.78Z" data-name="Path 1732"/><path fill="#fff" d="M1540.032 1161.639c4.736-.056 7.863 2.969 7.777 7.518-.087 4.585-2.883 7.6-7.2 7.756-4.645.178-8.551-3.374-8.505-7.725.041-4.51 3.177-7.494 7.928-7.549Z" data-name="Path 1730"/></g><g data-name="Group 1188"><g clip-path="url(#Illustration_sig_Kærligt(værdibaserede_aktiviteter_)_svg__b)" data-name="Group 1095" transform="translate(1056 480.648)"><path fill="#f297bc" d="M332.243 453.817c7.762-4.44-9.928-55.8-9.928-55.8s137.636-54.571 127.716-199.633S271.488-50.848 121.455 26.033-24.452 282.849 52.023 361.598c83.076 85.558 216.976 61.216 216.976 61.216s54.563 35.966 63.24 31" data-name="Path 1627"/><path fill="#ab003d" d="M130.748 182.265s-13.648-27.899-29.767-14.258 20.356 55.2 34.724 54.556c13.641-.618 45.261-48.974 27.9-61.38-18.528-13.235-32.857 21.082-32.857 21.082" data-name="Path 1628"/><path fill="#ab003d" d="M300.936 177.615s-13.641-27.899-29.772-14.258 20.36 55.196 34.728 54.555c13.641-.618 44.651-45.879 27.282-58.277-18.519-13.234-32.238 17.98-32.238 17.98" data-name="Path 1629"/><path d="M175.549 211.885c.016.109.805 1.345 2.494 3.909a67.726 67.726 0 0 0 7.733 9.458 48.973 48.973 0 0 0 13.037 9.646 39.5 39.5 0 0 0 17.363 3.987l1.173.047.578.023.3.016h.149l.07.008c.125-.008-.993.078-.5.039h.047l2.752-.274c.891-.109 1.9-.164 2.681-.3l1.806-.5a30.179 30.179 0 0 0 7.77-2.963 46.063 46.063 0 0 0 6.895-4.722 70.989 70.989 0 0 0 5.579-5.57 70.123 70.123 0 0 0 7.317-9.92c1.493-2.541 2.353-3.987 2.353-3.987l.289-.485a4.115 4.115 0 0 1 7.567 2.963s-.109.532-.328 1.517a38.463 38.463 0 0 1-1.079 3.948 63.429 63.429 0 0 1-6.09 13.258 56.006 56.006 0 0 1-6.05 8.036 47.842 47.842 0 0 1-8.857 7.52 41.657 41.657 0 0 1-11.843 5.347l-3.5.86c-1.024.18-1.853.242-2.8.367l-2.744.336-.727.055h-.6l-.805-.008-1.603-.016a48.5 48.5 0 0 1-12.739-1.712 44.519 44.519 0 0 1-11.554-4.878 49.6 49.6 0 0 1-15.665-14.735 57.5 57.5 0 0 1-6.691-13.086 37.409 37.409 0 0 1-1.212-3.963c-.219-.962-.336-1.462-.336-1.462l-.281-1.235a4.1 4.1 0 0 1 7.989-1.845c.023.1.047.219.063.321" data-name="Path 1630"/></g></g></g></svg>