<svg xmlns="http://www.w3.org/2000/svg" xmlns:xlink="http://www.w3.org/1999/xlink" width="2293" height="2579" viewBox="0 0 2293 2579">
  <defs>
    <clipPath id="clip-path">
      <rect id="Rectangle_449" data-name="Rectangle 449" width="450.547" height="454.283" fill="none"/>
    </clipPath>
    <clipPath id="clip-Illustration_sig_noget_kærligt_værdibaserede_aktiviteter_">
      <rect width="2293" height="2579"/>
    </clipPath>
  </defs>
  <g id="Illustration_sig_noget_kærligt_værdibaserede_aktiviteter_" data-name="Illustration_sig noget kærligt (værdibaserede aktiviteter )" clip-path="url(#clip-Illustration_sig_noget_kærligt_værdibaserede_aktiviteter_)">
    <path id="Path_1407" data-name="Path 1407" d="M769.07,0h98.819c424.745,0,769.07,734.425,769.07,734.425s-344.325,734.425-769.07,734.425H769.07C344.324,1468.85,0,1140.037,0,734.425S344.324,0,769.07,0Z" transform="translate(2154.172 1383.544) rotate(135)" fill="#fff"/>
    <path id="Path_1733" data-name="Path 1733" d="M867.465,0H978.927c479.088,0,867.465,852.013,867.465,852.013s-388.378,852.013-867.465,852.013H867.465C388.377,1704.025,0,1322.566,0,852.013S388.377,0,867.465,0Z" transform="translate(4653.558 1409.747) rotate(135)" fill="#fff"/>
    <path id="Path_1392" data-name="Path 1392" d="M-976.144,187.328" transform="translate(1525.094 1111.235)" fill="none" stroke="#323f51" stroke-width="1"/>
    <path id="Path_1390" data-name="Path 1390" d="M-882.9,262.108c-1.169,93.671-2.331,156.731-3.5,250.409a493.833,493.833,0,0,1-96.189,1.8" transform="translate(1485.344 1572.806)" fill="none" stroke="#323f51" stroke-linecap="round" stroke-linejoin="round" stroke-width="10"/>
    <path id="Path_1387" data-name="Path 1387" d="M-938.817,262.451c-4.374,89.852-4.5,150.2-.38,240.059a229.483,229.483,0,0,1,96.7,1.37" transform="translate(1738.849 1584.778)" fill="none" stroke="#323f51" stroke-linecap="round" stroke-linejoin="round" stroke-width="10"/>
    <path id="Path_1388" data-name="Path 1388" d="M-769.576,158.091C-844.09,199.4-889.261,278.58-921.272,357.54a1090.8,1090.8,0,0,0-77.62,473.284c1.865,30.991,5.3,62.765,19.552,90.35,18.089,35.016,51.756,59.495,87.044,77.053,66.976,33.323,142.487,45.932,217.187,49.948,63.5,3.414,128.729.638,187.988-22.442S-374.974,956.548-356.476,895.7c10.952-36.012,9.425-74.471,7.8-112.076q-2.4-55.525-4.806-111.05c-4.289-99.115-8.9-199.98-42.2-293.436S-495.936,199.038-589.75,166.769c-29.867-10.278-66.266-34.535-97.43-29.4-67.686,11.146-35.546,4.024-82.4,20.721" transform="translate(1372.762 798.522)" fill="#7ec8d6" stroke="#323f51" stroke-miterlimit="10" stroke-width="10"/>
    <path id="Path_1402" data-name="Path 1402" d="M477.689,124.343c16.711,3.5,29.235,12.385,41.669,23.79" transform="translate(293.89 960.258)" fill="none" stroke="#353f4f" stroke-linecap="round" stroke-miterlimit="10" stroke-width="5"/>
    <path id="Path_1403" data-name="Path 1403" d="M507.97,124.343c-16.711,3.5-29.221,12.385-41.67,23.79" transform="translate(141.075 1002.258)" fill="none" stroke="#353f4f" stroke-linecap="round" stroke-miterlimit="10" stroke-width="5"/>
    <path id="Path_1391" data-name="Path 1391" d="M-774.151,191.7c52.681,32.986,87.28,71.967,115.059,127.575,14.223,28.467,24.343,62.543,11.354,91.591-9.023,20.176-27.844,34.37-47.661,44.146-73.359,36.213-162.311,21.84-239.241,49.669" transform="translate(1788.276 1137.239)" fill="none" stroke="#323f51" stroke-linecap="round" stroke-linejoin="round" stroke-width="10"/>
    <path id="Path_1389" data-name="Path 1389" d="M-919.808,192.036c-53.3,15.349-94.54,79-94.593,146-.012,15.866,2.123,31.989,8,46.14,10.908,26.272,32.949,42.346,54.029,56.612C-877.309,491.561-748.77,178-669.617,218.441" transform="translate(1319.037 1123.296)" fill="none" stroke="#323f51" stroke-linecap="round" stroke-linejoin="round" stroke-width="10"/>
    <path id="Path_493" data-name="Path 493" d="M1030.968,552.212a67.321,67.321,0,0,1-19.542-12.88c-2.886-2.658-4.184-5.641-1.314-8.848,2.75-3.071,5.56-1.629,8.146.7,20.2,18.2,42.467,19.155,66.176,7.834,1.181-.564,2.391-1.068,3.553-1.663,2.926-1.494,5.732-1.591,7.447,1.575,1.777,3.288.72,6.117-2.6,7.84C1072.956,557.057,1052.513,561,1030.968,552.212Z" transform="matrix(0.921, 0.391, -0.391, 0.921, -105.678, 392.056)" fill="#323f51"/>
    <path id="Path_494" data-name="Path 494" d="M1032.884,500.6c13.752-.157,22.828,8.617,22.583,21.834-.246,13.317-8.378,22.067-20.927,22.533-13.493.5-24.837-9.8-24.7-22.439C1009.974,509.433,1019.089,500.764,1032.884,500.6Z" transform="translate(-370.543 672.146)" fill="#323f51"/>
    <path id="Path_495" data-name="Path 495" d="M1023.323,504.123c5.884-.069,9.77,3.692,9.67,9.349-.107,5.7-3.59,9.449-8.957,9.644-5.784.221-10.64-4.2-10.577-9.606C1013.515,507.9,1017.415,504.192,1023.323,504.123Z" transform="translate(-351.344 690.815)" fill="#fff" opacity="0.9"/>
    <path id="Path_496" data-name="Path 496" d="M1059.3,500.4c12.51-.032,22.365,10.394,22.258,23.532-.107,13.657-9.065,22.538-22.639,22.455-14.037-.082-21.91-8.311-21.816-22.791C1037.2,510.1,1046.447,500.429,1059.3,500.4Z" transform="translate(-290.977 671.623)" fill="#323f51"/>
    <path id="Path_497" data-name="Path 497" d="M1050.147,504.123c5.922-.07,9.831,3.712,9.725,9.4-.109,5.732-3.606,9.5-9.009,9.7-5.809.222-10.691-4.219-10.635-9.66C1040.286,507.923,1044.207,504.192,1050.147,504.123Z" transform="translate(-274.308 691.491)" fill="#fff"/>
    <g id="Group_1187" data-name="Group 1187" transform="translate(-714 -1097)">
      <path id="Path_1725" data-name="Path 1725" d="M0,0C28.232,18.441,47.97,34.631,69.968,64.7c27.571,37.694,42.2,89.7,47.876,141.967,3.436,31.695,7.7,62.9,6.873,96.05-.422,16.979-2.409,40.049-9.3,48.373,0,0-6.9,10.891-17.926,17.781-2.724,1.7-12.8,8.771-16.831,10.517-6.325,2.752-19.761.517-22-.609.253.238,10.034,1.506,10.034,1.506" transform="matrix(-0.53, 0.848, -0.848, -0.53, 2064.219, 2432.248)" fill="none" stroke="#323f51" stroke-linecap="round" stroke-linejoin="round" stroke-width="10"/>
      <path id="Path_1724" data-name="Path 1724" d="M-346.454,392.016c-1.061,19.071.184,38.964,9.073,55.873,12.265,23.34,36.826,37.193,60.493,48.827,59.9,29.461,125.144,53.527,191.749,49.042S49.341,502.03,70.127,438.592c9.1-27.777,8.738-57.636,8.275-86.866l-3.878-247c-1.644-105-3.75-236.61-94.757-307.844-62.911-49.242-118.161-38.222-156.455,28.9C-217.9-101.984-225.715-8.711-247.2,70.4-275.955,176.327-340.342,281.49-346.454,392.016Z" transform="translate(2348.392 2266.074)" fill="#e79e17" stroke="#323f51" stroke-miterlimit="10" stroke-width="10"/>
      <path id="Path_1726" data-name="Path 1726" d="M1026.469,547.511a53.851,53.851,0,0,1-15.629-10.3c-2.308-2.126-3.346-4.512-1.051-7.076,2.2-2.456,4.446-1.3,6.515.562,16.158,14.558,33.964,15.319,52.925,6.265.945-.451,1.912-.854,2.842-1.33,2.34-1.194,4.584-1.272,5.955,1.26,1.421,2.63.576,4.892-2.081,6.27C1060.05,551.385,1043.7,554.539,1026.469,547.511Z" transform="translate(1161.313 1805.666)" fill="#323f51"/>
      <path id="Path_1731" data-name="Path 1731" d="M11.111,9.586A34.6,34.6,0,0,1,1.446,4.327C.018,3.242-.624,2.024.8.715,2.156-.539,3.546.05,4.825,1c9.993,7.432,21.005,7.82,32.732,3.2.585-.23,1.183-.436,1.758-.679,1.447-.61,2.836-.649,3.683.643.879,1.342.357,2.5-1.287,3.2C31.88,11.564,21.768,13.174,11.111,9.586Z" transform="matrix(-0.951, 0.309, -0.309, -0.951, 2190.532, 2192.582)" fill="#323f51"/>
      <path id="Path_1727" data-name="Path 1727" d="M1028.269,500.6c11-.126,18.257,6.892,18.061,17.462-.2,10.65-6.7,17.648-16.737,18.021-10.791.4-19.864-7.839-19.758-17.946C1009.946,507.664,1017.236,500.731,1028.269,500.6Z" transform="translate(1150.989 1747.75)" fill="#323f51"/>
      <path id="Path_1728" data-name="Path 1728" d="M1021.348,504.123c4.705-.056,7.814,2.952,7.733,7.477-.086,4.559-2.871,7.557-7.164,7.713-4.625.177-8.509-3.355-8.459-7.683C1013.5,507.145,1016.622,504.178,1021.348,504.123Z" transform="translate(1146.616 1754.979)" fill="#fff" opacity="0.9"/>
      <path id="Path_1729" data-name="Path 1729" d="M1054.855,500.4c10.005-.026,17.888,8.313,17.8,18.82-.086,10.922-7.25,18.025-18.106,17.959-11.226-.066-17.523-6.647-17.448-18.227C1037.179,508.158,1044.576,500.422,1054.855,500.4Z" transform="translate(1209.16 1747.374)" fill="#323f51"/>
      <path id="Path_1722" data-name="Path 1722" d="M634.553,92.186c-36.273-.875-70.189.229-103.245,2.35-96.927,6.217-179.226,21.345-264.926,17.02-34.138-1.723-65.153,4.878-92.073,0C91.324,96.519,46.4,60.258,24.039,52.648-5.32,42.647-4.477,10.084,8.977,0" transform="translate(1784.159 2498.982) rotate(-7)" fill="none" stroke="#323f51" stroke-linecap="round" stroke-linejoin="round" stroke-width="10"/>
      <path id="Path_1721" data-name="Path 1721" d="M-308.4-137.166c10.581,149.7,7.868,259.089,4.285,410.1,64.994-7.174,83.929-13.278,145.978-31.671" transform="translate(2616.211 2939.043)" fill="none" stroke="#323f51" stroke-linecap="round" stroke-linejoin="round" stroke-width="10"/>
      <path id="Path_1723" data-name="Path 1723" d="M-198.038-138.372C-232.614,13.607-244.5,114.094-228.065,263.376a536.213,536.213,0,0,0-123.971-11.139" transform="translate(2314.657 2921.623)" fill="none" stroke="#323f51" stroke-linecap="round" stroke-linejoin="round" stroke-width="10"/>
      <path id="Path_1732" data-name="Path 1732" d="M11.111,9.586A34.6,34.6,0,0,1,1.446,4.327C.018,3.242-.624,2.024.8.715,2.156-.539,3.546.05,4.825,1c9.993,7.432,21.005,7.82,32.732,3.2.585-.23,1.183-.436,1.758-.679,1.447-.61,2.836-.649,3.683.643.879,1.342.357,2.5-1.287,3.2C31.88,11.564,21.768,13.174,11.111,9.586Z" transform="matrix(-0.966, -0.259, 0.259, -0.966, 2301.17, 2186.995)" fill="#323f51"/>
      <path id="Path_1730" data-name="Path 1730" d="M1048.161,504.123c4.736-.056,7.863,2.969,7.777,7.518-.087,4.585-2.883,7.6-7.2,7.756-4.645.178-8.551-3.374-8.505-7.725C1040.274,507.162,1043.41,504.178,1048.161,504.123Z" transform="translate(1205.871 1754.516)" fill="#fff"/>
    </g>
    <g id="Group_1188" data-name="Group 1188" transform="translate(1056 480.648)">
      <g id="Group_1095" data-name="Group 1095" transform="translate(0 0)" clip-path="url(#clip-path)">
        <path id="Path_1627" data-name="Path 1627" d="M332.244,453.811c7.762-4.44-9.928-55.8-9.928-55.8s137.636-54.571,127.716-199.633S271.489-50.854,121.456,26.027-24.451,282.843,52.024,361.592C135.1,447.15,269,422.808,269,422.808s54.563,35.966,63.24,31" transform="translate(-0.001 0.006)" fill="#f297bc"/>
        <path id="Path_1628" data-name="Path 1628" d="M46.2,44.349S32.552,16.45,16.433,30.091s20.356,55.2,34.724,54.556c13.641-.618,45.261-48.974,27.9-61.38C60.529,10.032,46.2,44.349,46.2,44.349" transform="translate(84.548 137.916)" fill="#ab003d"/>
        <path id="Path_1629" data-name="Path 1629" d="M67.972,41.252S54.331,13.353,38.2,26.994,58.56,82.19,72.928,81.549c13.641-.618,44.651-45.879,27.282-58.277C81.691,10.038,67.972,41.252,67.972,41.252" transform="translate(232.964 136.363)" fill="#ab003d"/>
        <path id="Path_1630" data-name="Path 1630" d="M29.573,30.257c.016.109.805,1.345,2.494,3.909A67.726,67.726,0,0,0,39.8,43.624,48.973,48.973,0,0,0,52.837,53.27,39.5,39.5,0,0,0,70.2,57.257l1.173.047.578.023.3.016H72.4l.07.008c.125-.008-.993.078-.5.039h.047l2.752-.274c.891-.109,1.9-.164,2.681-.3l1.806-.5a30.179,30.179,0,0,0,7.77-2.963,46.063,46.063,0,0,0,6.895-4.722A70.989,70.989,0,0,0,99.5,43.061a70.123,70.123,0,0,0,7.317-9.92c1.493-2.541,2.353-3.987,2.353-3.987l.289-.485a4.115,4.115,0,0,1,7.567,2.963s-.109.532-.328,1.517a38.463,38.463,0,0,1-1.079,3.948,63.429,63.429,0,0,1-6.09,13.258,56.006,56.006,0,0,1-6.05,8.036,47.842,47.842,0,0,1-8.857,7.52,41.657,41.657,0,0,1-11.843,5.347l-3.5.86c-1.024.18-1.853.242-2.8.367l-2.744.336-.727.055h-.6l-.805-.008L70,72.852A48.5,48.5,0,0,1,57.261,71.14a44.519,44.519,0,0,1-11.554-4.878A49.6,49.6,0,0,1,30.042,51.527a57.5,57.5,0,0,1-6.691-13.086,37.409,37.409,0,0,1-1.212-3.963c-.219-.962-.336-1.462-.336-1.462l-.281-1.235a4.1,4.1,0,0,1,7.989-1.845c.023.1.047.219.063.321" transform="translate(145.976 181.628)"/>
      </g>
    </g>
  </g>
</svg>
