<svg xmlns="http://www.w3.org/2000/svg" width="449.078" height="397.168" viewBox="0 0 449.078 397.168">
  <g id="Group_757" data-name="Group 757" transform="translate(-2667.936 -1561.91) rotate(-22)">
    <path id="Path_1145" data-name="Path 1145" d="M252.867,5.217c7.33,13.587,6.338,29.319,7.525,44.271,3.681,46.831,6.193,93.792,9.134,140.7.228,3.526.5,7.037.52,10.572.122,28.921-9.158,41.9-38.063,53.234-5.648,2.211-11.336,5.575-17.122,6.03-55,4.185-110.028,8.589-165.066,11.279-21.071,1.032-26.264-8.223-32.935-28.937C5.167,206,6.3,168.674,5.735,131.2,5.524,117.228,1.925,103.405.9,89.42-.44,70.836-2.228,52.511,11.529,35.414,17.34,28.182,22.7,22.745,31.487,21.534c17-2.356,34.089-4.136,51.162-5.785,17.024-1.658,33.667-3.031,50.382-9.126C157.67-2.356,227.684-1.584,252.867,5.217ZM230.35,26.377c-29.677,2.04-57.557-.536-82.594,6.818C117.51,42.085,87.5,43.272,57.174,46.124c-7.305.683-14.741.813-21.875,2.389-7.882,1.747-12.831,7.094-12.661,15.261.106,5.851.252,11.9,1.82,17.455,10.6,37.453,13.587,76.036,15.708,114.781.78,14.407,6.387,26.914,13.221,37.689,4.209,1.137,6.517,2.413,8.785,2.275q66.041-3.84,132.057-7.964c15.253-.934,28.425-6.346,40.623-18.982C233.405,150.114,231.934,90.306,230.35,26.377Z" transform="matrix(0.883, 0.469, -0.469, 0.883, 1877.761, 2550.068)" fill-rule="evenodd"/>
    <path id="Path_1144" data-name="Path 1144" d="M48.375,186.378c-15.277,1.544-25.695,3.186-36.153,3.478C3.437,190.133-1.755,181.023.545,172.3,3.616,160.6,13,155.727,22.534,151.135c18.723-9.02,36.088-7.541,51.893,7.07,12.458,11.507,20.7,24.882,24.354,41.736a200.468,200.468,0,0,0,24.086,61.653c14.2-.017,16.016-13.376,23.688-19.608a86.712,86.712,0,0,0,18.918-20.73c29.457-47.489,70.055-85.007,109.207-123.883,16.651-16.545,32.342-34.032,48.594-50.983,12.994-13.555,25.979-27.15,39.347-40.322,5.127-5.054,11.506-8.492,18.926-3.949,6.42,3.941,7.6,11.791,2.6,21.9-5.2,10.507-10.028,21.486-16.951,30.823-16.073,21.632-32.692,42.922-50.26,63.352-13,15.106-27.474,28.994-41.923,42.76-25.614,24.435-47.359,51.877-68.2,80.448-17.853,24.484-38.128,47.44-59.3,69.161-18.162,18.6-39.095,15.472-52.495-6.94-17.5-29.221-30.79-60.458-38.453-93.905C54.811,202.086,51.39,194.854,48.375,186.378Z" transform="matrix(0.883, 0.469, -0.469, 0.883, 1947.863, 2471.562)" fill="#6c85a0" fill-rule="evenodd"/>
  </g>
</svg>
