<svg xmlns="http://www.w3.org/2000/svg" width="82.305" height="73.069" viewBox="0 0 82.305 73.069">
  <g id="Group_747" data-name="Group 747" transform="matrix(0.921, -0.391, 0.391, 0.921, -2600.007, -1576.837)">
    <path id="Path_1145" data-name="Path 1145" d="M-258.944,487.748c1.361,2.523,1.177,5.444,1.4,8.22.684,8.7,1.15,17.415,1.7,26.123.042.655.092,1.307.1,1.963.023,5.37-1.7,7.779-7.067,9.884a12.038,12.038,0,0,1-3.179,1.12c-10.212.777-20.429,1.595-30.648,2.094-3.912.192-4.876-1.527-6.115-5.373-2.171-6.752-1.961-13.682-2.066-20.639-.039-2.6-.708-5.162-.9-7.758-.249-3.451-.581-6.853,1.973-10.028,1.079-1.343,2.075-2.352,3.706-2.577,3.156-.437,6.329-.768,9.5-1.074a36.855,36.855,0,0,0,9.355-1.694C-276.62,486.341-263.62,486.485-258.944,487.748Zm-4.181,3.929c-5.51.379-10.687-.1-15.336,1.266-5.616,1.651-11.188,1.871-16.819,2.4a33.085,33.085,0,0,0-4.062.444,2.722,2.722,0,0,0-2.351,2.834,12.891,12.891,0,0,0,.338,3.241c1.968,6.954,2.523,14.118,2.917,21.312a14.509,14.509,0,0,0,2.455,7,6.614,6.614,0,0,0,1.631.422q12.262-.713,24.52-1.479a10.862,10.862,0,0,0,7.543-3.525C-262.558,514.651-262.831,503.546-263.125,491.677Z" transform="matrix(0.883, 0.469, -0.469, 0.883, 2272.631, 2199.947)" fill-rule="evenodd"/>
    <path id="Path_1144" data-name="Path 1144" d="M-296.321,504.123c-2.837.287-4.771.591-6.713.646a2.428,2.428,0,0,1-2.168-3.259c.57-2.173,2.313-3.078,4.083-3.93,3.476-1.675,6.7-1.4,9.635,1.313a14.394,14.394,0,0,1,4.522,7.749,37.222,37.222,0,0,0,4.472,11.447c2.636,0,2.974-2.484,4.4-3.641a16.1,16.1,0,0,0,3.513-3.849c5.469-8.817,13.007-15.784,20.277-23,3.092-3.072,6.005-6.319,9.023-9.466,2.413-2.517,4.824-5.041,7.306-7.487.952-.938,2.136-1.577,3.514-.733,1.192.732,1.411,2.189.483,4.066a37.007,37.007,0,0,1-3.147,5.723c-2.984,4.016-6.07,7.97-9.332,11.763-2.414,2.8-5.1,5.383-7.784,7.939A109.27,109.27,0,0,0-266.9,514.339a119.028,119.028,0,0,1-11.011,12.841c-3.372,3.454-7.259,2.873-9.747-1.289a59.927,59.927,0,0,1-7.14-17.436A41.293,41.293,0,0,0-296.321,504.123Z" transform="matrix(0.883, 0.469, -0.469, 0.883, 2277.021, 2200.333)" fill="#009cb2" fill-rule="evenodd"/>
  </g>
</svg>
