<svg width="82.305" height="73.069" xmlns="http://www.w3.org/2000/svg"><g fill-rule="evenodd" data-name="Group 745"><path d="M52.91 24.366c1.138 2.633.701 5.528.683 8.314-.073 8.73-.364 17.456-.57 26.182-.015.657-.022 1.31-.071 1.965-.443 5.354-2.369 7.606-7.9 9.238a12.043 12.043 0 0 1-3.265.84c-10.245-.11-20.499-.18-30.726-.57-3.916-.147-4.728-1.944-5.629-5.884-1.578-6.918-.768-13.806-.27-20.749.187-2.594-.258-5.206-.224-7.81.051-3.46.015-6.88 2.836-9.823 1.191-1.245 2.272-2.164 3.917-2.247 3.183-.162 6.374-.216 9.56-.246a36.87 36.87 0 0 0 9.47-.878c4.695-1.266 17.639.004 22.19 1.668Zm-4.507 3.554c-5.524-.1-10.642-1.026-15.394-.068-5.74 1.158-11.313.895-16.97.934a33.098 33.098 0 0 0-4.087.09 2.723 2.723 0 0 0-2.589 2.62 12.896 12.896 0 0 0 .056 3.26c1.358 7.101 1.29 14.289 1.06 21.493a14.515 14.515 0 0 0 1.84 7.189 6.617 6.617 0 0 0 1.588.562q12.283.352 24.566.652a10.866 10.866 0 0 0 7.823-2.86l2.107-33.872Z" data-name="Path 1145"/><path fill="#7ec8d6" d="M18.434 36.085c-2.852.04-4.806.175-6.746.062A2.429 2.429 0 0 1 9.81 32.71c.756-2.117 2.572-2.867 4.41-3.563 3.609-1.368 6.798-.815 9.488 2.144a14.4 14.4 0 0 1 3.835 8.115 37.236 37.236 0 0 0 3.465 11.796c2.627.228 3.179-2.218 4.7-3.248a16.106 16.106 0 0 0 3.835-3.531c6.215-8.313 14.332-14.603 22.203-21.164 3.348-2.794 6.532-5.777 9.813-8.652 2.623-2.3 5.245-4.606 7.93-6.828 1.03-.853 2.266-1.387 3.566-.426 1.124.833 1.216 2.304.129 4.094a37.021 37.021 0 0 1-3.633 5.43c-3.322 3.744-6.74 7.417-10.32 10.915-2.649 2.581-5.55 4.922-8.446 7.237A109.312 109.312 0 0 0 46.87 48.817 119.074 119.074 0 0 1 34.783 60.66c-3.66 3.15-7.484 2.234-9.602-2.13a59.95 59.95 0 0 1-5.605-17.996 41.309 41.309 0 0 0-1.142-4.45Z" data-name="Path 1144"/></g></svg>