<svg xmlns="http://www.w3.org/2000/svg" width="580.412" height="521.59" viewBox="0 0 580.412 521.59">
  <g id="Group_1056" data-name="Group 1056" transform="translate(2198.938 9553.708)">
    <path id="Path_1345" data-name="Path 1345" d="M209.443,0h26.912C352.027,0,445.8,97.867,445.8,195.734c0,2.055,37.368,90.087,37.288,92.108-3.826,95.8-133.488,103.626-246.731,103.626H209.443C93.771,391.467,0,303.834,0,195.734S93.771,0,209.443,0Z" transform="matrix(0.951, -0.309, 0.309, 0.951, -2198.938, -9404.426)" fill="#fff"/>
    <g id="Group_905" data-name="Group 905" transform="translate(-2094.024 -9275.068)">
      <path id="Path_211" data-name="Path 211" d="M-4852.995,7768.923h72.7a5.3,5.3,0,0,1,5.3,5.3,5.3,5.3,0,0,1-5.3,5.3h-72.7a5.3,5.3,0,0,1-5.3-5.3A5.3,5.3,0,0,1-4852.995,7768.923Z" transform="translate(4858.297 -7751.711)" fill="#903"/>
      <path id="Path_212" data-name="Path 212" d="M-4833.6,7762.906a5.3,5.3,0,0,1,3.751,1.553l17.2,17.213a5.3,5.3,0,0,1,0,7.5l-17.2,17.215a5.3,5.3,0,0,1-7.5,0,5.3,5.3,0,0,1,0-7.493l13.459-13.472-13.459-13.466a5.3,5.3,0,0,1,0-7.5A5.288,5.288,0,0,1-4833.6,7762.906Z" transform="translate(4894.397 -7762.906)" fill="#903"/>
    </g>
    <text id="TRÆTHED_OG_UDMATTELSE" data-name="TRÆTHED OG 
UDMATTELSE" transform="translate(-2096.67 -9349.871)" fill="#903" font-size="30" font-family="Lato-Black, Lato" font-weight="800" letter-spacing="0.1em"><tspan x="0" y="0">TRÆTHED OG </tspan><tspan x="0" y="38">UDMATTELSE</tspan></text>
    <g id="Group_904" data-name="Group 904" transform="translate(619 43.444)">
      <path id="Path_403" data-name="Path 403" d="M-544.863-339.468l8.028,24.553,39.4,8.624" transform="translate(-1813.152 -8889.084)" fill="none" stroke="#323f51" stroke-linecap="round" stroke-linejoin="round" stroke-width="3"/>
      <path id="Path_404" data-name="Path 404" d="M-529.4-377.245c10.385,9.71,22.4,16.755,38.542,23.8" transform="translate(-1800.109 -8917.048)" fill="none" stroke="#323f51" stroke-linecap="round" stroke-linejoin="round" stroke-width="3"/>
      <path id="Path_405" data-name="Path 405" d="M-590.9-383.076a7.651,7.651,0,0,0-4.877-1.746,2.2,2.2,0,0,0-1.331.286,1.6,1.6,0,0,0-.554,1.645,3.126,3.126,0,0,0,.961,1.534,6.126,6.126,0,0,0,4.2,1.681c-1.58.924-5.126,3.642-4.427,5.832.961,3.013,8.508,1.924,8.26-1.575" transform="translate(-1850.865 -8921.455)" fill="none" stroke="#323f51" stroke-linecap="round" stroke-miterlimit="10" stroke-width="2.5"/>
      <path id="Path_406" data-name="Path 406" d="M-621.166-343.711l3.2-2.846c-8.8,3.335-15.966,2.245-20.879-5.12-6.795-10.186,1.04-26.2,17.975-23.407l-8.07-3.1a14.135,14.135,0,0,1,15.918-11.545,14.09,14.09,0,0,1,12.443,14.628l-7.816.663.19,4.486c2.838-.295,5.5-.553,8.164-.853,8.027-.9,16.05-1.834,24.077-2.732,1.774-.2,3.614-.259,2.278-3.129l-21.673,1.29c-1.686-4.531-2.607-9.083-4.92-12.76-4.007-6.37-10.493-8.436-17.742-7.043-7.491,1.439-12.212,6.265-13.915,13.655-.59,2.557-1.335,3.847-4.1,4.581a18.068,18.068,0,0,0-12.8,21.568,18.274,18.274,0,0,0,20.52,14.04c1.945-.286,3.429-.713,5.031,1.4,6.215,8.195,16.259,9.982,25.033,4.821,7.552-4.444,10.568-14.4,7.086-23.375-.183-.471-.295-.972-.545-1.8,5.847-2.322,11.646-4.541,17.356-6.97,1.057-.449,1.753-1.746,2.617-2.651l-.93-1.085c-10.921,3.719-21.843,7.436-33.131,11.278l1.652,4.2,7.466-2.636c3.607,6.629,1.227,14.352-5.592,18.621A14.089,14.089,0,0,1-621.166-343.711Z" transform="translate(-1887.692 -8929.144)" fill="#323f51" stroke="#323f51" stroke-width="1"/>
      <path id="Path_407" data-name="Path 407" d="M-537.389-424.437h0c13.307,4.325,23.743,15.911,31.578,27.745A183,183,0,0,1-477.3-321.464c.725,5.158,1.218,10.5-.209,15.507-1.808,6.359-6.529,11.506-11.747,15.565-9.9,7.708-21.9,12.294-34.044,15.44-10.328,2.673-21.143,4.39-31.655,2.567s-20.741-7.643-25.808-17.032c-3-5.554-4.029-11.931-5.012-18.165q-1.452-9.21-2.9-18.417c-2.594-16.441-5.192-33.177-2.828-49.654s10.306-35.709,24.656-44.135c8.594-4.75,15.064-5.709,21.4-5.455,2.54.1,5.516.44,8.06.805" transform="translate(-1847.102 -8950.518)" fill="none" stroke="#323f51" stroke-miterlimit="10" stroke-width="4.5"/>
      <path id="Path_408" data-name="Path 408" d="M-506.354-411.395c-8.513,8.485-22.82,13.961-34.354,16.871a123.618,123.618,0,0,1-24.637,3.625c-7.548.34-16.568.228-24.322-3.356" transform="translate(-1848.165 -8941.316)" fill="none" stroke="#323f51" stroke-linecap="round" stroke-width="5"/>
      <g id="Group_185" data-name="Group 185" transform="translate(-2373.059 -9399.478)">
        <path id="Path_409" data-name="Path 409" d="M-545.453-423.775c5.794-1.8,11.112-3.429,16.4-5.131,1.739-.559,3.792-.977,3.734-3.46-.058-2.459-1.993-4.98-4.411-5.086a13.246,13.246,0,0,0-6.07,1.116C-540.841-433.936-544.169-429.991-545.453-423.775Z" transform="translate(559.487 440.454)" fill="#313e50"/>
        <path id="Path_410" data-name="Path 410" d="M-551.4-422.754c2.156-3.743,4.363-7.489,6.474-11.29.738-1.332,1.508-2.826-.031-4.175-1.477-1.3-4.231-1.4-5.544.163a13.84,13.84,0,0,0-2.673,5.016A11.9,11.9,0,0,0-551.4-422.754Z" transform="translate(553.642 439.209)" fill="#313e50"/>
        <path id="Path_411" data-name="Path 411" d="M-543.631-418.561c4.058-.322,7.907-.506,11.715-1.009,1.068-.142,2.7-1.092,2.863-1.914a3.174,3.174,0,0,0-2.354-3.955,11.715,11.715,0,0,0-5.155.36A10.922,10.922,0,0,0-543.631-418.561Z" transform="translate(560.787 448.934)" fill="#313e50"/>
      </g>
      <ellipse id="Ellipse_35" data-name="Ellipse 35" cx="4.329" cy="4.329" rx="4.329" ry="4.329" transform="translate(-2431.43 -9314.571)" fill="none" stroke="#323f51" stroke-width="2.5"/>
      <path id="Path_412" data-name="Path 412" d="M-586.619-393.8c3.4.711,5.948,2.521,8.479,4.841" transform="translate(-1842.952 -8927.862)" fill="none" stroke="#323f51" stroke-linecap="round" stroke-miterlimit="10" stroke-width="2.5"/>
      <ellipse id="Ellipse_36" data-name="Ellipse 36" cx="1.526" cy="1.526" rx="1.526" ry="1.526" transform="translate(-2430.396 -9311.705)" fill="#6c86a1" stroke="#323f51" stroke-width="2.5"/>
      <path id="Path_413" data-name="Path 413" d="M-604.049-357.773l40.038,14.985,30.445-25.825" transform="translate(-1855.391 -8909.885)" fill="none" stroke="#323f51" stroke-linecap="round" stroke-linejoin="round" stroke-width="3"/>
      <path id="Path_414" data-name="Path 414" d="M-539-350.533l-39.215,18.31-9.366,47.539" transform="translate(-1843.641 -8896.981)" fill="none" stroke="#323f51" stroke-linecap="round" stroke-linejoin="round" stroke-width="3"/>
      <line id="Line_1" data-name="Line 1" x2="17.96" y2="3.012" transform="translate(-2449.494 -9184.576)" fill="none" stroke="#323f51" stroke-linecap="round" stroke-linejoin="round" stroke-width="3"/>
      <line id="Line_2" data-name="Line 2" y1="17.691" x2="4.321" transform="translate(-2315.292 -9195.1)" fill="none" stroke="#323f51" stroke-linecap="round" stroke-linejoin="round" stroke-width="3"/>
    </g>
  </g>
</svg>
