<svg xmlns="http://www.w3.org/2000/svg" width="616.633" height="505.693" viewBox="0 0 616.633 505.693">
  <g id="Group_1058" data-name="Group 1058" transform="translate(2219.938 8600.742)">
    <path id="Path_1355" data-name="Path 1355" d="M209.443,0h26.912C352.027,0,494.45,84.571,494.45,182.437c0,2.055,37.369,90.088,37.288,92.108-3.826,95.8-240.6,83.932-240.6,83.932H264.228C148.556,358.477,0,303.834,0,195.734S93.771,0,209.443,0Z" transform="matrix(0.951, -0.309, 0.309, 0.951, -2219.938, -8436.426)" fill="#fff"/>
    <g id="Group_908" data-name="Group 908" transform="translate(-2085.024 -8302.068)">
      <path id="Path_211" data-name="Path 211" d="M-4852.995,7768.923h72.7a5.3,5.3,0,0,1,5.3,5.3,5.3,5.3,0,0,1-5.3,5.3h-72.7a5.3,5.3,0,0,1-5.3-5.3A5.3,5.3,0,0,1-4852.995,7768.923Z" transform="translate(4858.297 -7751.711)" fill="#903"/>
      <path id="Path_212" data-name="Path 212" d="M-4833.6,7762.906a5.3,5.3,0,0,1,3.751,1.553l17.2,17.213a5.3,5.3,0,0,1,0,7.5l-17.2,17.215a5.3,5.3,0,0,1-7.5,0,5.3,5.3,0,0,1,0-7.493l13.459-13.472-13.459-13.466a5.3,5.3,0,0,1,0-7.5A5.288,5.288,0,0,1-4833.6,7762.906Z" transform="translate(4894.397 -7762.906)" fill="#903"/>
    </g>
    <text id="SVIMMELHED" transform="translate(-2084.67 -8336.871)" fill="#903" font-size="30" font-family="Lato-Black, Lato" font-weight="800" letter-spacing="0.1em"><tspan x="0" y="0">SVIMMELHED</tspan></text>
    <g id="Group_1055" data-name="Group 1055">
      <path id="Path_1353" data-name="Path 1353" d="M27.3,0c13.34,5.781,15.28,17.656,22.316,27.4,3.6,4.989,6.163,10.96,2.873,16.052-2.285,3.535-7.049,6.021-12.066,7.736C21.852,57.535,19.479,50.83,0,55.709" transform="translate(-1777.838 -8363.734) rotate(179)" fill="none" stroke="#353f4f" stroke-linecap="round" stroke-linejoin="round" stroke-width="3"/>
      <path id="Path_1352" data-name="Path 1352" d="M0,0" transform="matrix(0.996, -0.087, 0.087, 0.996, -1765.783, -8362.794)" fill="none" stroke="#353f4f" stroke-miterlimit="10" stroke-width="5.492"/>
      <path id="Path_1350" data-name="Path 1350" d="M.06,119.063c-.2,3.631.036,7.416,1.727,10.635,2.335,4.442,7.01,7.076,11.512,9.292,11.4,5.608,23.819,10.187,36.494,9.333S75.388,140,79.343,127.929c1.733-5.288,1.663-10.97,1.575-16.533l-.736-47.009C79.868,44.4,79.467,19.356,62.147,5.8,50.173-3.573,39.658-1.476,32.37,11.3,24.527,25.047,23.04,42.8,18.952,57.854,13.478,78.014,1.223,98.028.06,119.063Z" transform="matrix(0.996, -0.087, 0.087, 0.996, -1822.456, -8443.974)" fill="none" stroke="#353f4f" stroke-width="4.5"/>
      <g id="Group_910" data-name="Group 910" transform="matrix(0.996, -0.087, 0.087, 0.996, -1783.045, -8405.135)">
        <path id="Path_547" data-name="Path 547" d="M8.919,0A15.071,15.071,0,0,0,0,5.375" transform="translate(0 1.584)" fill="none" stroke="#353f4f" stroke-linecap="round" stroke-linejoin="round" stroke-width="3"/>
        <path id="Path_548" data-name="Path 548" d="M0,0A19.7,19.7,0,0,1,8.06,8.944" transform="translate(0.124)" fill="none" stroke="#353f4f" stroke-linecap="round" stroke-linejoin="round" stroke-width="3"/>
      </g>
      <g id="Group_909" data-name="Group 909" transform="matrix(0.996, -0.087, 0.087, 0.996, -1760.553, -8404.16)">
        <path id="Path_549" data-name="Path 549" d="M8.919,0A15.071,15.071,0,0,0,0,5.375" transform="translate(0 1.584)" fill="none" stroke="#353f4f" stroke-linecap="round" stroke-linejoin="round" stroke-width="3"/>
        <path id="Path_550" data-name="Path 550" d="M0,0A19.7,19.7,0,0,1,8.06,8.942" transform="translate(0.124)" fill="none" stroke="#353f4f" stroke-linecap="round" stroke-linejoin="round" stroke-width="3"/>
      </g>
      <ellipse id="Ellipse_122" data-name="Ellipse 122" cx="17.334" cy="68.502" rx="17.334" ry="68.502" transform="translate(-1835.609 -8442.428) rotate(-77.98)" fill="none" stroke="#353f4f" stroke-miterlimit="10" stroke-width="2"/>
      <ellipse id="Ellipse_123" data-name="Ellipse 123" cx="68.502" cy="17.334" rx="68.502" ry="17.334" transform="matrix(0.996, -0.092, 0.092, 0.996, -1834.802, -8456.1)" fill="none" stroke="#353f4f" stroke-miterlimit="10" stroke-width="2"/>
      <path id="Path_1354" data-name="Path 1354" d="M0,4.063A8.484,8.484,0,0,1,6.972.02a16.1,16.1,0,0,1,8.073,2A18.219,18.219,0,0,0,19.923,4.07a9.281,9.281,0,0,0,3.659-.179A13.728,13.728,0,0,0,29.648.725" transform="matrix(0.996, -0.087, 0.087, 0.996, -1784.925, -8378.518)" fill="none" stroke="#353f4f" stroke-linecap="round" stroke-linejoin="round" stroke-width="3"/>
      <path id="Path_1348" data-name="Path 1348" d="M0,0C1.458,35.749,1.084,61.869.592,97.93c8.955-1.713,11.565-3.171,20.115-7.561" transform="translate(-1754.658 -8301.961) rotate(1)" fill="none" stroke="#353f4f" stroke-linecap="round" stroke-linejoin="round" stroke-width="3"/>
      <path id="Path_1349" data-name="Path 1349" d="M21.223,0c-4.765,36.613-6.4,60.818-4.139,96.779A43.651,43.651,0,0,0,0,94.1" transform="translate(-1809.623 -8304.246) rotate(1)" fill="none" stroke="#353f4f" stroke-linecap="round" stroke-linejoin="round" stroke-width="3"/>
      <path id="Path_1351" data-name="Path 1351" d="M0,0C7.536,3.751,12.806,7.045,18.678,13.161c7.36,7.668,11.266,18.246,12.781,28.879s.823,21.452.13,32.174" transform="matrix(0.996, -0.087, 0.087, 0.996, -1734.688, -8365.57)" fill="none" stroke="#353f4f" stroke-linecap="round" stroke-linejoin="round" stroke-width="3"/>
    </g>
  </g>
</svg>
