<svg xmlns="http://www.w3.org/2000/svg" width="580.412" height="521.59" viewBox="0 0 580.412 521.59">
  <g id="Group_1057" data-name="Group 1057" transform="translate(2233.938 9068.708)">
    <path id="Path_1346" data-name="Path 1346" d="M209.443,0h26.912C352.027,0,445.8,97.867,445.8,195.734c0,2.055,37.368,90.087,37.288,92.108-3.826,95.8-133.488,103.626-246.731,103.626H209.443C93.771,391.467,0,303.834,0,195.734S93.771,0,209.443,0Z" transform="matrix(0.951, -0.309, 0.309, 0.951, -2233.938, -8919.426)" fill="#fff"/>
    <g id="Group_907" data-name="Group 907" transform="translate(-2109.024 -8750.068)">
      <path id="Path_211" data-name="Path 211" d="M-4852.995,7768.923h72.7a5.3,5.3,0,0,1,5.3,5.3,5.3,5.3,0,0,1-5.3,5.3h-72.7a5.3,5.3,0,0,1-5.3-5.3A5.3,5.3,0,0,1-4852.995,7768.923Z" transform="translate(4858.297 -7751.711)" fill="#903"/>
      <path id="Path_212" data-name="Path 212" d="M-4833.6,7762.906a5.3,5.3,0,0,1,3.751,1.553l17.2,17.213a5.3,5.3,0,0,1,0,7.5l-17.2,17.215a5.3,5.3,0,0,1-7.5,0,5.3,5.3,0,0,1,0-7.493l13.459-13.472-13.459-13.466a5.3,5.3,0,0,1,0-7.5A5.288,5.288,0,0,1-4833.6,7762.906Z" transform="translate(4894.397 -7762.906)" fill="#903"/>
    </g>
    <text id="SYMPTOMER_FRA_MAVEN" data-name="SYMPTOMER
FRA MAVEN" transform="translate(-2108.67 -8861.871)" fill="#903" font-size="30" font-family="Lato-Black, Lato" font-weight="800" letter-spacing="0.1em"><tspan x="0" y="0">SYMPTOMER</tspan><tspan x="0" y="38">FRA MAVEN</tspan></text>
    <g id="Group_906" data-name="Group 906" transform="translate(-3144.062 -9215.146)">
      <g id="Group_316" data-name="Group 316" transform="translate(1249.642 346.891)">
        <g id="Group_895" data-name="Group 895" transform="translate(0)">
          <g id="Group_894" data-name="Group 894">
            <path id="Path_578" data-name="Path 578" d="M45.688,52.205C30.919,34.178,22.4,21.526,13.613.457A62.451,62.451,0,0,1,.333,10.218" transform="matrix(-0.839, -0.545, 0.545, -0.839, 93.266, 253.205)" fill="none" stroke="#141928" stroke-linecap="round" stroke-linejoin="round" stroke-width="3"/>
            <path id="Path_579" data-name="Path 579" d="M-2.165,70.239C8.879,45.929,17.616,31.259,35.053,13.819A105.386,105.386,0,0,1,17.7-.566" transform="translate(85.974 242.874) rotate(150)" fill="none" stroke="#141928" stroke-linecap="round" stroke-linejoin="round" stroke-width="3"/>
            <path id="Path_580" data-name="Path 580" d="M762.419-260.176c-15.234,5.184-26.481,19.024-35.3,33.347a230.208,230.208,0,0,0-31.874,90.422c-.809,6.2-1.362,12.617.233,18.639,2.021,7.641,7.3,13.828,13.133,18.707,11.07,9.264,24.478,14.776,38.058,18.559a77.71,77.71,0,0,0,35.251,1.521c11.75-2.191,21.326-6.594,26.991-17.878,3.353-6.678-9.849-35.556-5.045-46.17,11.1-24.81,21.695-38.705,19.052-58.508s-11.726-39.6-27.769-49.728c-5.107-3.227-10.893-9.475-16.813-9.708-12.854-.507-6.681-.628-15.914.8" transform="translate(-694.453 261.322)" fill="none" stroke="#243040" stroke-miterlimit="10" stroke-width="4"/>
            <path id="Path_584" data-name="Path 584" d="M1.378,43C13.172,26.98,14.795,15.31,28.233,6.331,32.765,3.3,46.357.781,50.924,1.856c2.9.681,10.292,5.721,11.68,8.009,6.11,10.071,9.523,12.829,9.284,25.54" transform="translate(66.639 161.296) rotate(-148)" fill="none" stroke="#141928" stroke-linecap="round" stroke-linejoin="round" stroke-width="3"/>
            <path id="Path_1339" data-name="Path 1339" d="M47.012-1.6c-6.571,8.06-7.78,13.7-14.968,18.444-2.424,1.6-20.285,6.972-22.594,6.61-1.467-.229-5.1-2.4-5.737-3.444-.059-.1-.118-.192-.33-.536C.834,15.339-.749,14.057-.227,8.094" transform="matrix(0.829, -0.559, 0.559, 0.829, 81.425, 127.091)" fill="none" stroke="#243040" stroke-linecap="round" stroke-linejoin="round" stroke-width="3"/>
          </g>
        </g>
      </g>
      <g id="Group_319" data-name="Group 319" transform="translate(1328.009 393.812)">
        <g id="Group_317" data-name="Group 317" transform="translate(26.88 0)">
          <path id="Path_585" data-name="Path 585" d="M56.569,55.346a23.053,23.053,0,0,0,8.825-3.5" transform="translate(-56.569 -51.85)" fill="none" stroke="#243040" stroke-linecap="round" stroke-linejoin="round" stroke-width="3"/>
          <path id="Path_586" data-name="Path 586" d="M56.932,55.73a19.048,19.048,0,0,0,6.452.3" transform="translate(-56.336 -48.876)" fill="none" stroke="#243040" stroke-linecap="round" stroke-linejoin="round" stroke-width="3"/>
        </g>
        <g id="Group_318" data-name="Group 318" transform="translate(0 0)">
          <path id="Path_587" data-name="Path 587" d="M49.032,55.346a23.035,23.035,0,0,1-8.823-3.5" transform="translate(-40.209 -51.85)" fill="none" stroke="#243040" stroke-linecap="round" stroke-linejoin="round" stroke-width="3"/>
          <path id="Path_588" data-name="Path 588" d="M47.741,55.73a19.046,19.046,0,0,1-6.452.3" transform="translate(-39.514 -48.876)" fill="none" stroke="#243040" stroke-linecap="round" stroke-linejoin="round" stroke-width="3"/>
        </g>
        <path id="Path_589" data-name="Path 589" d="M65.629,65.461s-12.666-4.5-23.248,0" transform="translate(-38.812 -37.164)" fill="none" stroke="#243040" stroke-linecap="round" stroke-linejoin="round" stroke-width="3"/>
      </g>
    </g>
  </g>
</svg>
