<svg xmlns="http://www.w3.org/2000/svg" xmlns:xlink="http://www.w3.org/1999/xlink" width="1625.593" height="2066.382" viewBox="0 0 1625.593 2066.382">
  <defs>
    <clipPath id="clip-path">
      <rect id="Rectangle_362" data-name="Rectangle 362" width="948.922" height="1058.047" fill="#323f51"/>
    </clipPath>
    <clipPath id="clip-path-2">
      <rect id="Rectangle_363" data-name="Rectangle 363" width="535.688" height="817.071" fill="none"/>
    </clipPath>
  </defs>
  <g id="Group_1053" data-name="Group 1053" transform="translate(789.562 14666.5)">
    <path id="Path_1290" data-name="Path 1290" d="M545.669,0h70.114c301.365,0,545.669,346.739,545.669,693.479,0,7.281,97.357,319.177,97.147,326.335-9.968,339.428-347.78,367.143-642.817,367.143H545.669C244.3,1386.957,0,1076.476,0,693.479S244.3,0,545.669,0Z" transform="matrix(0.951, -0.309, 0.309, 0.951, -789.562, -13919.192)" fill="#fff"/>
    <g id="Group_875" data-name="Group 875" transform="translate(-495 -14047.094)">
      <rect id="Rectangle_360" data-name="Rectangle 360" width="895.246" height="1017.568" transform="translate(19.009 19.212)" fill="#fff6ee"/>
      <rect id="Rectangle_361" data-name="Rectangle 361" width="784.423" height="891.597" transform="translate(74.423 77.443)" fill="#7ec8d6"/>
      <g id="Group_873" data-name="Group 873">
        <g id="Group_872" data-name="Group 872" clip-path="url(#clip-path)">
          <path id="Path_1288" data-name="Path 1288" d="M948.924,1058.047H0V0H948.924ZM34.667,1023.382h879.59V34.663H34.667Z" fill="#2e3552"/>
          <g id="Group_877" data-name="Group 877" transform="translate(321.234 151.016)">
            <g id="Group_876" data-name="Group 876" clip-path="url(#clip-path-2)">
              <path id="Path_1291" data-name="Path 1291" d="M87.525,136.579s45.069,67.879,35.618,130.923l66.333,158.988L312,245.637s-63.723-68.658-87.1-161.889Z" transform="translate(101.251 96.881)" fill="#ffb27d"/>
              <path id="Path_1292" data-name="Path 1292" d="M108.025,274.975s165.566,7.978,169.17-89.249S325.946,24.067,202.128,14.8C100.3,7.182,66.192,48.536,56.919,80.7S46.675,269.408,108.025,274.975" transform="translate(60.459 16.058)" fill="#ffb27d"/>
              <path id="Path_1293" data-name="Path 1293" d="M58.925,94.932s-33,124.921,21.607,142.855S280.47,242.452,281.343,89.072c0,0-76.492,44.021-112.9,42.684s-59.781-22.021-93.524-6.162c0,0-12.3-.874-16-30.661" transform="translate(56.734 103.04)" fill="#35488b"/>
              <path id="Path_1294" data-name="Path 1294" d="M413.266,158.877h-.022c-.222-.019-1.583-.1-4.629-.121-18.536,17.736-61.7,52.268-122.076,58.8-33.051,3.576-49.7-12.369-57.88-26.609-.022-.019-.022-.039-.039-.058a67.561,67.561,0,0,1-4.426-9.432l.181-.716S104.919,207.129,74.346,246.133c-16.709,21.327-32,105.481-45.479,194.286-.039.2-.078.416-.1.615C17.947,512.285,8.3,586.432,0,633.419H535.688V194.124c-57.253-33.062-120.918-35.206-122.421-35.247" transform="translate(0 183.652)" fill="#f99746"/>
              <path id="Path_1295" data-name="Path 1295" d="M248.076,61.5c-2.726-9.945-15.2-15.231-15.2-15.231-93.034-40.279-161.44,2.8-161.44,2.8,57.622-74.73,195.5-58.169,224.154,9.7C342.37,169.6,255.435,192.114,255.435,192.114s-86.456-36.129-35.991-80.5c16.72-14.7,24.838-27.808,27.575-39.241A38.3,38.3,0,0,0,248.076,61.5" transform="translate(82.642 0)" fill="#35488b"/>
            </g>
          </g>
        </g>
      </g>
    </g>
    <text id="Erik_61_år_" data-name="Erik ( 61 år)" transform="translate(-77.934 -12953.757)" fill="#323f51" font-size="75" font-family="FiraSans-Bold, Fira Sans" font-weight="700"><tspan x="0" y="80">Erik ( 61 år)</tspan></text>
    <line id="Line_51" data-name="Line 51" y1="638" transform="translate(-20.5 -14666.5)" fill="none" stroke="#323f51" stroke-width="15"/>
  </g>
</svg>
