<svg xmlns="http://www.w3.org/2000/svg" xmlns:xlink="http://www.w3.org/1999/xlink" width="1625.593" height="2085.382" viewBox="0 0 1625.593 2085.382">
  <defs>
    <clipPath id="clip-path">
      <rect id="Rectangle_362" data-name="Rectangle 362" width="870.938" height="1058.047" fill="#323f51"/>
    </clipPath>
    <clipPath id="clip-path-2">
      <rect id="Rectangle_364" data-name="Rectangle 364" width="370.478" height="846.353" fill="none"/>
    </clipPath>
  </defs>
  <g id="Group_1051" data-name="Group 1051" transform="translate(-1307.438 14450.5)">
    <path id="Path_1296" data-name="Path 1296" d="M545.669,0h70.114c301.365,0,545.669,346.739,545.669,693.479,0,7.281,97.357,319.177,97.147,326.335-9.968,339.428-347.78,367.143-642.817,367.143H545.669C244.3,1386.957,0,1076.476,0,693.479S244.3,0,545.669,0Z" transform="matrix(0.951, -0.309, 0.309, 0.951, 1307.438, -13684.192)" fill="#fff"/>
    <g id="Group_878" data-name="Group 878" transform="translate(1602 -13812.094)">
      <rect id="Rectangle_360" data-name="Rectangle 360" width="817.262" height="1017.568" transform="translate(19.009 19.212)" fill="#fff6ee"/>
      <rect id="Rectangle_361" data-name="Rectangle 361" width="706.438" height="891.597" transform="translate(74.423 77.443)" fill="rgba(231,158,23,0.47)"/>
      <g id="Group_873" data-name="Group 873">
        <g id="Group_872" data-name="Group 872" clip-path="url(#clip-path)">
          <path id="Path_1288" data-name="Path 1288" d="M870.939,1058.047H0V0H870.939ZM31.818,1023.382h807.3V34.663H31.818Z" fill="#2e3552"/>
        </g>
      </g>
    </g>
    <g id="Group_880" data-name="Group 880" transform="translate(1910 -13685.172)">
      <g id="Group_879" data-name="Group 879" clip-path="url(#clip-path-2)">
        <path id="Path_1297" data-name="Path 1297" d="M272.962,270.1s-128.255,61.882-202.2,38.924c0,0,18.2-22.962,50.053-40.046-2.559-14.841-4.55-27.722-5.689-38.642C112,205.138,112,190.857,112,190.857l49.483-38.92,46.924-37.244c-3.7,104.726,64.554,155.41,64.554,155.41" transform="translate(34.461 55.852)" fill="#ffb27d"/>
        <path id="Path_1298" data-name="Path 1298" d="M0,749.131c.028-1.511.1-3.008.2-4.52v-1.4c.294-20.184.782-40.869,1.442-61.781.684-21.149,1.539-42.538,2.546-63.937.8-18.812,1.735-37.47,2.827-55.706,4.326-72.448,11.057-138.01,21.052-177.828.223-.883.448-1.75.685-2.619,15.411-57.358,48.975-95.527,79.516-123.393l25.586-22.41c2.14.422,4.3.8,6.452,1.12,23.667,3.612,48.414,1.427,73.174-10.623,29.576-14.29,61.433-29.687,66.554-25.769.476.352.938.7,1.413,1.066h.015c9.352,7.094,17.931,16.263,25.782,27.265.028,0,.028.013.028.013v.013a1.106,1.106,0,0,1,.1.141c1.82,2.532,3.6,5.163,5.3,7.893a.889.889,0,0,1,.141.211c.04.054.1.14.167.251s.141.225.225.349c.448.715,1.19,1.875,2.141,3.485.323.546.672,1.12,1.036,1.764.419.729.88,1.512,1.358,2.364q1.113,1.974,2.393,4.382c.281.532.575,1.077.883,1.651.459.9.952,1.833,1.441,2.815.168.32.321.644.491.98.293.575.586,1.161.88,1.75.729,1.5,1.5,3.065,2.268,4.715.769,1.624,1.541,3.319,2.352,5.081,1.077,2.451,2.2,5.039,3.331,7.755.561,1.344,1.133,2.715,1.694,4.129.112.266.208.547.323.812a406.991,406.991,0,0,1,14.724,45.937c.015.028.015.07.027.1,3.948,15.173,7.363,31.269,10.26,48.12,7.963,46.762,11.939,99.139,11.661,154.02,0,20.156-.575,40.883-1.71,61.318-2.238,36.434-3.008,71.3-2.9,103.674,0,1.063,0,2.128.015,3.19.013,2.128.028,4.227.042,6.328.015,1.581.028,3.161.055,4.73.03,1.805.042,3.612.071,5.389.028,1.624.04,3.233.07,4.828.013.2.013.393.013.589.013,1.022.042,2.043.056,3.065.07,3.038.128,6.061.2,9.057.055,1.988.1,3.975.15,5.934.073,2.21.128,4.407.2,6.578.04,1.665.1,3.316.153,4.955.028.727.057,1.456.071,2.168Z" transform="translate(0 97.222)" fill="#2b478b"/>
        <path id="Path_1299" data-name="Path 1299" d="M349.71,470.456c0,20.156-.575,40.883-1.709,61.318-2.238,36.434-3.01,71.3-2.9,103.674,0,1.063,0,2.128.015,3.19.013,2.128.03,4.227.042,6.328.015,1.581.028,3.161.057,4.73.028,1.805.042,3.612.07,5.389.028,1.624.042,3.233.07,4.828.013.2.013.393.013.589.015,1.022.042,2.043.056,3.065.07,3.038.128,6.061.2,9.057.055,1.988.1,3.975.152,5.934.071,2.21.126,4.407.2,6.578.042,1.665.1,3.316.155,4.955.027.727.055,1.456.071,2.168H51.581A109.18,109.18,0,0,1,43.3,660.181,132.49,132.49,0,0,1,42.622,646c.125-25.11,7.154-51.706,18.462-78.312,12.681-29.869,30.765-59.751,50.557-87.618,25.165-35.44,53.1-67.59,76.24-92.266v-.015c28.356-30.233,49.491-49.224,49.491-49.224l99.194-21.808,1.484-.323c7.964,46.762,11.939,99.139,11.661,154.02" transform="translate(20.754 154.094)" fill="#233862"/>
        <path id="Path_1300" data-name="Path 1300" d="M195.755,142.54s-32.417,59.082-94.129,75.6C98.5,192.941,98.5,178.66,98.5,178.66l49.483-38.92Z" transform="translate(47.965 68.049)" fill="#ed985f"/>
        <path id="Path_1301" data-name="Path 1301" d="M91.142,230.039s122.351,20.015,133.836-55.2,35.014-123.29-42.619-139.25S85.13,46.077,75.1,70.266,59.611,222.894,91.142,230.039" transform="translate(32.758 14.964)" fill="#ffb27d"/>
        <path id="Path_1302" data-name="Path 1302" d="M282.4,41.546c1.112-1.274,3.673-2.3,9.375-2.613a23.133,23.133,0,0,0-10.653-3c-1.191-7.929-5.408-21.96-19.054-25.371,0,0,7.334,3.908,8.29,12.337C254.552,6.669,220.691-5.144,126.923,2.259,3.347,12.013,44.073,91.133,60.072,100.565s56.27-16.427,86.078-14.059,35.476,45.436,45.589,51.348,6.134-4.541,19.817-10.725,14.983,16.486,11.03,31.228,14.849,34.182,14.849,34.182l19-20.459c19-20.459,36.9-107.115,28.263-125.588-.763-1.633-1.517-3.285-2.3-4.946" transform="translate(19.808 0)" fill="#323f51"/>
        <path id="Path_1303" data-name="Path 1303" d="M309.254,595.03q-10.16,22.989-23.388,46.944-9.76,17.616-21.316,35.72c-7.572,11.842-21.75,25.25-40.129,39.387a.052.052,0,0,1-.028.015c-8.455,6.522-17.8,13.183-27.8,19.915H18.656c11.925-10.635,24.2-21.5,36.307-32.078,3.893-3.4,7.783-6.788,11.633-10.12,23.527-20.379,45.7-38.994,62.521-51.983h.015c13.563-10.441,23.641-17.216,28.132-18.266,7.029-1.651,13.957-27.267,20.939-63.615,7-36.432,14.067-83.658,21.347-128.391v-.013c8.956-55.077,18.236-106.346,28.147-129.078,25.949-59.639,75.889-78.927,75.889-78.927s.043.07.141.21c.042.055.1.14.168.251s.14.226.223.351c.448.714,1.19,1.874,2.141,3.484.323.547.672,1.12,1.036,1.764.419.729.88,1.514,1.358,2.366.742,1.316,1.539,2.772,2.393,4.381.283.534.575,1.078.883,1.651.459.9.952,1.835,1.441,2.815.168.321.321.645.491.98.293.575.586,1.161.88,1.75.729,1.5,1.5,3.066,2.268,4.717.769,1.624,1.541,3.317,2.352,5.081,1.077,2.449,2.2,5.039,3.331,7.755.561,1.343,1.133,2.715,1.694,4.128.112.268.208.547.323.812a361.027,361.027,0,0,1,14.724,45.938c.015.027.015.068.027.1a385.388,385.388,0,0,1,8.776,48.442c7.222,61.867,1.637,141.758-38.981,233.521" transform="translate(9.085 109.343)" fill="#2b478b"/>
      </g>
    </g>
    <text id="Jonas_21_år_" data-name="Jonas, (21 år)" transform="translate(1936.066 -12718.757)" fill="#323f51" font-size="75" font-family="FiraSans-Bold, Fira Sans" font-weight="700"><tspan x="0" y="80">Jonas, (21 år)</tspan></text>
    <line id="Line_52" data-name="Line 52" y1="638" transform="translate(2037.5 -14450.5)" fill="none" stroke="#323f51" stroke-width="15"/>
  </g>
</svg>
